<?xml version="1.0" ?>
<!-- Uploaded to: SVG Repo, www.svgrepo.com, Generator: SVG Repo Mixer Tools -->
<svg width="800px" height="800px" viewBox="0 0 117 117" version="1.1" xmlns="http://www.w3.org/2000/svg" xmlns:xlink="http://www.w3.org/1999/xlink">
<title/>
<desc/>
<defs/>
<g fill="none" fill-rule="evenodd" id="Page-1" stroke="none" stroke-width="1">
<g fill-rule="nonzero" id="zoom-in">
<path d="M45.6,90.7 C56.6,90.7 66.6,86.8 74.4,80.2 L109.4,115.2 C110.2,116 111.2,116.4 112.3,116.4 C113.3,116.4 114.4,116 115.2,115.2 C116.8,113.6 116.8,111 115.2,109.4 L80.2,74.4 C86.7,66.6 90.7,56.5 90.7,45.6 C90.7,20.7 70.5,0.5 45.6,0.5 C20.8,0.5 0.5,20.8 0.5,45.6 C0.5,70.5 20.8,90.7 45.6,90.7 Z M45.6,8.7 C66,8.7 82.5,25.3 82.5,45.6 C82.5,66 66,82.5 45.6,82.5 C25.2,82.5 8.7,65.9 8.7,45.6 C8.7,25.3 25.3,8.7 45.6,8.7 Z" fill="#4A4A4A" id="Shape"/>
<path d="M41.5,72.3 C41.5,74.6 43.3,76.4 45.6,76.4 C47.9,76.4 49.7,74.6 49.7,72.3 L49.7,49.7 L72.3,49.7 C74.6,49.7 76.4,47.9 76.4,45.6 C76.4,43.3 74.6,41.5 72.3,41.5 L49.7,41.5 L49.7,18.9 C49.7,16.6 47.9,14.8 45.6,14.8 C43.3,14.8 41.5,16.6 41.5,18.9 L41.5,41.5 L18.9,41.5 C16.6,41.5 14.8,43.3 14.8,45.6 C14.8,47.9 16.6,49.7 18.9,49.7 L41.5,49.7 L41.5,72.3 Z" fill="#17AB13" id="Shape"/>
</g>
</g>
</svg>