<svg width="50" height="50" viewBox="0 0 50 50" fill="none" xmlns="http://www.w3.org/2000/svg">
<path d="M16.2026 39.4956L39.4953 16.2029C42.2782 16.9872 45.3915 16.2862 47.5814 14.0964C50.0217 11.656 50.6155 8.06828 49.3619 5.07007L43.9585 10.4734L39.5266 6.04155L44.93 0.638188C41.9318 -0.615397 38.3441 -0.0216609 35.9037 2.41871C33.6849 4.6375 32.9929 7.80471 33.8274 10.6152L10.615 33.8276C7.80446 32.9931 4.63725 33.6851 2.41856 35.9039C-0.0218135 38.3442 -0.61555 41.9319 0.638035 44.9302L6.0414 39.5268L10.4733 43.9587L5.06992 49.362C8.06813 50.6156 11.6559 50.0219 14.0962 47.5815C16.286 45.3918 16.9869 42.2784 16.2026 39.4956Z" fill="#343434"/>
</svg>
