<svg width="46" height="50" viewBox="0 0 46 50" fill="none" xmlns="http://www.w3.org/2000/svg">
<path fill-rule="evenodd" clip-rule="evenodd" d="M15.9742 19.551L27.5435 28.6975L43.5629 22.3257C44.0466 22.1322 44.4512 21.8332 44.7546 21.4506C45.0581 21.0637 45.2603 20.602 45.3351 20.0919C45.4098 19.5773 45.3483 19.0761 45.168 18.6231C44.9878 18.1658 44.6887 17.7656 44.2797 17.4402L40.1726 14.1994L37.4947 17.5897C37.2528 17.8932 36.8087 17.946 36.5053 17.7041C36.1975 17.4622 36.1492 17.0225 36.3866 16.7147C37.2837 15.5846 38.1762 14.4545 39.0689 13.3243L36.2062 11.0598C35.3091 12.1899 34.4166 13.3243 33.5239 14.4545C33.4077 14.6007 33.2383 14.6948 33.0528 14.7162C32.8674 14.7377 32.681 14.6847 32.5345 14.5688C32.3884 14.4527 32.2942 14.2833 32.2728 14.0978C32.2514 13.9123 32.3044 13.7259 32.4202 13.5795L35.0981 10.1891L32.2355 7.92451C31.3427 9.05567 30.4486 10.1858 29.5531 11.3148C29.3157 11.6227 28.8715 11.6754 28.5681 11.4335C28.2603 11.1916 28.2076 10.7476 28.4494 10.4441C29.3422 9.31298 30.2363 8.18287 31.1318 7.05381L28.2647 4.78916L25.5868 8.17959C25.3449 8.48301 24.9007 8.53574 24.5974 8.29385C24.2896 8.05634 24.2413 7.6123 24.4787 7.30888C25.3757 6.17441 26.2683 5.04433 27.161 3.91416L23.0539 0.673336C22.6449 0.347946 22.1832 0.145702 21.7039 0.0796852C21.2202 0.00488281 20.7233 0.0665016 20.2351 0.259956C19.7514 0.44912 19.3512 0.752438 19.0479 1.13506C18.7401 1.52207 18.5421 1.98369 18.4674 2.49375L15.9742 19.551ZM17.8826 33.7895L13.1466 30.0474L1.28268 45.0643C0.768124 45.7194 0.565975 46.5198 0.653866 47.2849C0.741756 48.0499 1.12437 48.7844 1.77955 49.3032L1.82349 49.3385L1.83228 49.3429C2.47428 49.8266 3.2526 50.0156 4.00016 49.9321C4.76529 49.8397 5.49966 49.4572 6.01412 48.8063L17.8826 33.7895ZM26.2682 29.4802L15.508 20.9758L13.472 23.5569C12.8081 24.3968 12.5442 25.4302 12.6629 26.4152C12.7729 27.3694 13.2346 28.2841 14.0217 28.9437L18.7533 32.6858L18.7709 32.699C19.6107 33.363 20.6441 33.6226 21.6291 33.5081C22.6185 33.3895 23.5683 32.9013 24.2323 32.0569L26.2682 29.4802Z" fill="#343434"/>
</svg>
