<svg width="50" height="50" viewBox="0 0 50 50" fill="none" xmlns="http://www.w3.org/2000/svg">
<path d="M38.5419 0C32.2125 0 27.0831 5.12878 27.0831 11.4581V38.5419C27.0831 42.5699 23.8175 45.8331 19.7919 45.8331C15.7656 45.8331 12.5 42.5699 12.5 38.5419V26.8738C17.2544 25.9075 20.8331 21.7057 20.8331 16.6669V10.4169H16.6669V2.08313C16.6669 0.931885 15.735 0 14.5831 0C13.4319 0 12.5 0.931885 12.5 2.08313V10.4169H8.33313V2.08313C8.33313 0.931885 7.40186 0 6.25 0C5.09814 0 4.16687 0.931885 4.16687 2.08313V10.4169H0V16.6669C0 21.7063 3.57874 25.9075 8.33313 26.8738V38.5419C8.33313 44.8712 13.4644 50 19.7919 50C26.1188 50 31.25 44.8712 31.25 38.5419V11.4581C31.25 7.43005 34.5138 4.16687 38.5419 4.16687C42.5699 4.16687 45.8331 7.43005 45.8331 11.4581V50H50V11.4581C50 5.12878 44.8712 0 38.5419 0Z" fill="#343434"/>
</svg>
