<svg width="38" height="50" viewBox="0 0 38 50" fill="none" xmlns="http://www.w3.org/2000/svg">
<path d="M37.6432 29.2743C37.0704 21.8174 33.5985 17.1444 30.5356 13.0208C27.6995 9.20322 25.25 5.90654 25.25 1.04345C25.25 0.652826 25.0312 0.295795 24.6844 0.116791C24.3364 -0.0632874 23.9184 -0.0337953 23.6021 0.196088C19.0021 3.48769 15.164 9.03544 13.8232 14.3288C12.8925 18.0141 12.7693 22.157 12.7521 24.8933C8.504 23.9859 7.5417 17.6316 7.53154 17.5624C7.50804 17.4001 7.44673 17.2456 7.35256 17.1113C7.25838 16.977 7.13397 16.8667 6.98936 16.7894C6.69336 16.6348 6.34541 16.6235 6.04531 16.7721C5.82256 16.8799 0.577539 19.5449 0.272363 30.1856C0.250976 30.5396 0.25 30.8947 0.25 31.2497C0.25 41.5873 8.66162 49.9984 19 49.9984C19.0143 49.9994 19.0295 50.0015 19.0417 49.9984H19.0549C29.3679 49.9688 37.75 41.569 37.75 31.2497C37.75 30.7299 37.6432 29.2743 37.6432 29.2743ZM19 47.9152C15.5535 47.9152 12.75 44.9288 12.75 41.2578C12.75 41.1327 12.749 41.0065 12.7581 40.8519C12.7998 39.3038 13.0938 38.247 13.4163 37.544C14.0206 38.842 15.1009 40.0351 16.8557 40.0351C16.9925 40.0352 17.128 40.0084 17.2544 39.956C17.3808 39.9037 17.4957 39.827 17.5924 39.7303C17.6892 39.6335 17.7659 39.5187 17.8182 39.3923C17.8705 39.2659 17.8974 39.1304 17.8974 38.9935C17.8974 37.5105 17.9279 35.7996 18.2972 34.2555C18.6258 32.8863 19.411 31.4297 20.406 30.262C20.8484 31.7776 21.7111 33.0043 22.5534 34.2016C23.7589 35.9144 25.005 37.6854 25.2237 40.7055C25.2369 40.8845 25.2502 41.0645 25.2502 41.2578C25.25 44.9287 22.4465 47.9152 19 47.9152Z" fill="#343434"/>
</svg>
