<svg width="40" height="42" viewBox="0 0 40 42" fill="none" xmlns="http://www.w3.org/2000/svg">
<path d="M20 0.991699C8.97167 0.991699 0 9.96337 0 20.9917V31.8417C0 34.0584 0.866666 36.1584 2.41667 37.725L4.71667 40.0417L8.05 41.0084H8.1C10.85 41.0084 13.1 38.7584 13.1 36.0084V26.175C13.1 23.425 10.85 21.175 8.1 21.175H8.05L4.71667 22.1584L3.33333 23.5484V20.9917C3.33333 11.8017 10.81 4.32503 20 4.32503C29.19 4.32503 36.6667 11.8017 36.6667 20.9917V23.5467L35.2833 22.1584L31.95 21.175H31.9C29.15 21.175 26.9 23.425 26.9 26.175V36.0084C26.9 38.7584 29.15 41.0084 31.9 41.0084H31.95L35.2833 40.0417L37.5833 37.725C39.1333 36.1584 40 34.0584 40 31.8417V20.9917C40 9.96337 31.0283 0.991699 20 0.991699Z" fill="#343434"/>
</svg>
