<svg width="50" height="40" viewBox="0 0 50 40" fill="none" xmlns="http://www.w3.org/2000/svg">
<path d="M47.0703 33.1836H2.92969C1.31162 33.1836 0 34.4952 0 36.1133C0 37.7312 1.31162 39.043 2.92969 39.043H47.0703C48.6884 39.043 50 37.7312 50 36.1133C50 34.4952 48.6884 33.1836 47.0703 33.1836ZM38.1836 8.31133V14.1406C38.1836 14.9503 37.5284 15.6055 36.7188 15.6055C35.9091 15.6055 35.2539 14.9503 35.2539 14.1406V6.43281C34.3173 5.9373 33.3349 5.52139 32.3242 5.16357V17.0703C32.3242 17.88 31.669 18.5352 30.8594 18.5352C30.0497 18.5352 29.3945 17.88 29.3945 17.0703V2.42188C29.3945 1.61367 28.7379 0.957031 27.9297 0.957031H22.0703C21.2621 0.957031 20.6055 1.61367 20.6055 2.42188V17.0703C20.6055 17.88 19.9503 18.5352 19.1406 18.5352C18.331 18.5352 17.6758 17.88 17.6758 17.0703V5.16367C16.6651 5.52148 15.6827 5.9374 14.7461 6.43291V14.1406C14.7461 14.9503 14.0909 15.6055 13.2812 15.6055C12.4716 15.6055 11.8164 14.9503 11.8164 14.1406V8.31133C6.48828 12.3207 3.02734 18.6776 3.02734 25.8594V30.2539H46.9727V25.8594C46.9727 18.6776 43.5117 12.3207 38.1836 8.31133Z" fill="#343434"/>
</svg>
