<svg width="34" height="49" viewBox="0 0 34 49" fill="none" xmlns="http://www.w3.org/2000/svg">
<path d="M32.9293 49H22.5229C22.1292 49 21.7776 48.7539 21.644 48.3883L19.6963 43.164H33.1332L33.8575 47.9172C33.8997 48.1844 33.8223 48.4656 33.6465 48.6695C33.4637 48.8805 33.2036 49 32.9293 49ZM17.0033 29.1294C17.2635 29.1294 17.4744 28.9184 17.4744 28.6512V24.4746C17.4744 24.2145 17.2635 24.0035 17.0033 24.0035C16.7361 24.0035 16.5252 24.2145 16.5252 24.4746V28.6512C16.5252 28.9184 16.7361 29.1294 17.0033 29.1294ZM22.0659 17.6261C22.326 17.6261 22.537 17.4151 22.537 17.1479V12.3104C22.537 12.0502 22.326 11.8393 22.0659 11.8393H11.9337C11.6735 11.8393 11.4626 12.0502 11.4626 12.3104V17.1479C11.4626 17.4151 11.6735 17.6261 11.9337 17.6261H22.0659ZM12.4118 16.6768V12.7885H21.5878V16.6768H12.4118ZM19.3447 42.2147L17.0033 35.9217L14.6548 42.2147H1.01399L3.60153 25.3746V18.3855C3.60153 18.1183 3.71404 17.8651 3.91091 17.6894L7.20159 14.694V7.41654C7.20159 6.89622 7.62347 6.47433 8.14379 6.47433H25.8558C26.3761 6.47433 26.798 6.89622 26.798 7.41654V14.694L30.0887 17.6894C30.2855 17.8651 30.398 18.1183 30.398 18.3855V25.3746L32.9856 42.2147H19.3447ZM14.3033 43.164L12.3626 48.3883C12.222 48.7539 11.8704 49 11.4767 49H1.07024C0.796022 49 0.535861 48.8805 0.360077 48.6695C0.177262 48.4656 0.0999172 48.1844 0.142105 47.9172L0.873367 43.164H14.3033ZM7.20159 5.78526V-0.0577978C7.20159 -0.578118 7.62347 -1 8.14379 -1H12.4962C13.0165 -1 13.4384 -0.578118 13.4384 -0.0577978V5.53213H8.14379C7.79926 5.53213 7.47581 5.62354 7.20159 5.78526ZM20.5612 5.53213V-0.0577978C20.5612 -0.578118 20.9831 -1 21.5034 -1H25.8558C26.3761 -1 26.798 -0.578118 26.798 -0.0577978V5.78526C26.5238 5.62354 26.2003 5.53213 25.8558 5.53213H20.5612Z" fill="#343434"/>
</svg>
