<svg width="44" height="43" viewBox="0 0 44 43" fill="none" xmlns="http://www.w3.org/2000/svg">
<path d="M20.9582 39.7083H40.7498V42.8333H20.9582V39.7083ZM42.104 7.62492C40.1248 6.89575 38.979 7.93742 38.6665 8.97908L35.5415 16.7916C35.5415 16.7916 36.479 5.02075 36.479 4.91658C36.479 3.87492 35.7498 2.72909 34.2915 2.72909C33.4582 2.72909 32.4165 2.93742 32.104 4.60409L30.3332 16.7916L29.4998 3.24992C29.3957 1.89575 28.354 0.645752 26.7915 0.645752C24.9165 0.645752 24.0832 2.10409 24.0832 3.35408V16.7916L21.479 6.47909C21.2707 5.64575 20.4373 4.49992 18.7707 4.91658C17.6248 5.22908 16.8957 6.27075 17.104 7.41658L19.9165 24.0833L12.2082 20.9583C11.3748 20.7499 10.229 21.4791 9.70818 22.5208C9.08318 23.6666 9.29151 25.0208 10.7498 25.9583L14.7082 28.2499L20.9582 35.5416V37.6249H40.7498V23.0416L43.4582 10.3333C43.6665 9.29158 43.2498 8.04158 42.104 7.62492Z" fill="#343434"/>
<path d="M18.25 2.83321C18.5625 2.72904 19.8125 2.72904 20.0208 2.72904C19.6042 1.27071 18.1458 0.437377 16.6875 0.749877C15.5417 1.06238 14.7083 2.20821 14.7083 3.35404V15.7499L12.1042 5.43738C11.7917 4.29154 10.6458 3.45821 9.39583 3.77071C7.9375 4.18738 7.52083 5.33321 7.72917 6.27071L9.91667 19.3957C11.0625 18.7707 12.1042 18.6665 12.9375 18.979L17.2083 20.5415L15.0208 7.62488C14.7083 5.43738 16.0625 3.35404 18.25 2.83321ZM9.60417 27.6249C7.72917 26.3749 7 23.8749 7.83333 21.7915L2.83333 19.9165C1.375 19.9165 0.125 21.0624 0.125 22.6249C0.125 23.5624 0.541666 24.3957 1.375 24.9165L5.33333 27.2082L11.5833 34.4999V36.5832H18.875L13.3542 29.9165L9.60417 27.6249ZM11.5833 38.6665V41.7915H18.875V38.6665H11.5833Z" fill="#343434"/>
</svg>
