<svg width="50" height="34" viewBox="0 0 50 34" fill="none" xmlns="http://www.w3.org/2000/svg">
<path d="M48.6061 4.96287C46.2949 1.88528 41.9107 1.26177 38.833 3.57309L36.596 5.253C37.1865 6.08802 37.7326 6.89902 38.2344 7.68619L40.5922 5.91547C42.3781 4.57442 44.9223 4.93602 46.2635 6.72197C46.9096 7.58229 47.1812 8.64835 47.0283 9.72379C46.8753 10.7992 46.3174 11.7472 45.457 12.3933L41.8831 15.0773C42.2365 16.2041 42.4518 17.262 42.5308 18.2545L47.2162 14.7358C48.7022 13.6198 49.6655 11.9864 49.9286 10.1362C50.1918 8.28626 49.7221 6.44894 48.6061 4.96287ZM7.4692 18.2548C7.5482 17.2623 7.76352 16.2044 8.11692 15.0776L4.54296 12.3936C3.68265 11.7475 3.12477 10.7994 2.97175 9.72409C2.81882 8.64865 3.09039 7.58258 3.73646 6.72237C4.53134 5.66392 5.74867 5.10564 6.98035 5.10564C7.85603 5.10475 8.70816 5.38913 9.40778 5.91576L11.7656 7.68648C12.2674 6.89931 12.8135 6.08831 13.404 5.25329L11.167 3.57339C8.08948 1.26177 3.70521 1.88538 1.39389 4.96297C0.277921 6.44894 -0.191785 8.28626 0.071387 10.1364C0.334461 11.9866 1.2978 13.62 2.78377 14.736L7.4692 18.2548ZM31.5811 3.44947C29.9789 1.42387 27.5802 0.262207 25 0.262207C22.4198 0.262207 20.0211 1.42387 18.4188 3.44947C13.0741 10.2063 10.3642 15.4726 10.3642 19.102C10.3642 27.1722 16.9298 33.7378 25 33.7378C33.0701 33.7378 39.6357 27.1721 39.6357 19.102C39.6358 15.4725 36.9259 10.2063 31.5811 3.44947ZM29.5526 22.9527H20.4475C19.6386 22.9527 18.9827 22.2969 18.9827 21.4879C18.9827 20.679 19.6386 20.0231 20.4475 20.0231H29.5526C30.3615 20.0231 31.0174 20.679 31.0174 21.4879C31.0174 22.2969 30.3615 22.9527 29.5526 22.9527ZM29.5526 16.4591H20.4475C19.6386 16.4591 18.9827 15.8033 18.9827 14.9944C18.9827 14.1854 19.6386 13.5296 20.4475 13.5296H29.5526C30.3615 13.5296 31.0174 14.1854 31.0174 14.9944C31.0174 15.8034 30.3615 16.4591 29.5526 16.4591Z" fill="#343434"/>
</svg>
