<svg width="50" height="44" viewBox="0 0 50 44" fill="none" xmlns="http://www.w3.org/2000/svg">
<path d="M42.6758 26.3945H37.4226C33.6993 26.3945 30.3434 24.9275 27.8533 22.5586L20.9474 26.5447L19.4825 24.007L25.9059 20.2993C25.6294 19.8902 25.429 19.4313 25.1967 18.9924L17.8417 20.9629L17.0835 18.1333L24.1041 16.2523C23.96 15.7354 23.8362 15.2159 23.7521 14.6758H16.3086V11.7461H23.5352V8.81641H16.3086V5.88672H23.5352V0.0273438H22.0703C10.1872 0.0273438 2.83779 5.30732 0 6.44609V32.2539H20.8701L26.7295 35.1836H50V33.7188C50 29.6804 46.7142 26.3945 42.6758 26.3945ZM20.1777 35.1836H0V43.9727H17.6758V41.043H18.7944L24.6538 43.9727H50V38.1133H26.0371L20.1777 35.1836Z" fill="#343434"/>
</svg>
