<svg width="50" height="50" viewBox="0 0 50 50" fill="none" xmlns="http://www.w3.org/2000/svg">
<path d="M3.56836 17.1646V0.585823C3.56836 0.26362 3.95529 0 4.4282 0H11.6079C12.0808 0 12.4678 0.26362 12.4678 0.585823V17.0767H4.4282C4.12726 17.0767 3.82631 17.106 3.56836 17.1646ZM37.1023 17.0767V0.585823C37.1023 0.26362 37.4893 0 37.9622 0H45.1419C45.6148 0 46.0017 0.26362 46.0017 0.585823V17.1646C45.7438 17.106 45.4428 17.0767 45.1419 17.0767H37.1023ZM37.1023 31.3122V24.5753H45.1419C45.4428 24.5753 45.7438 24.546 46.0017 24.4581V31.3122H37.1023ZM15.2623 15.9637L14.1874 14.587V2.54833L24.1187 14.8213H18.6157C17.2399 14.8213 16.0361 15.2607 15.2623 15.9637ZM27.73 31.3122L24.1187 26.8307H30.9544C31.9003 26.8307 32.7601 26.6257 33.448 26.2742L35.3826 28.676V31.3122H33.6629H27.73ZM25.4084 14.8213L35.3826 2.54833V14.587L34.3078 15.9637C33.534 15.2607 32.3302 14.8213 30.9544 14.8213H25.4084Z" fill="#343434"/>
<path d="M16.3371 31.3124H14.1874V28.6762L16.1221 26.2744C16.81 26.6259 17.6698 26.8309 18.6156 26.8309H25.4514L21.8401 31.3124H16.3371ZM31.0834 37.9615H18.9166V33.0699C18.9166 32.8649 18.8736 32.6598 18.7876 32.4841H31.2124C31.1264 32.6598 31.0834 32.8649 31.0834 33.0699V37.9615ZM14.4454 23.4038H4.4282C3.95529 23.4038 3.56836 23.1402 3.56836 22.818V18.8344C3.56836 18.5122 3.95529 18.2486 4.4282 18.2486H14.4454V23.4038ZM45.1419 23.4038H35.1247V18.2486H45.1419C45.6148 18.2486 46.0017 18.5122 46.0017 18.8344V22.818C46.0017 23.1402 45.6148 23.4038 45.1419 23.4038ZM30.9544 25.6592H18.6156C17.2399 25.6592 16.1651 24.8977 16.1651 23.9896V17.6628C16.1651 16.7254 17.2399 15.9932 18.6156 15.9932H30.9544C32.3302 15.9932 33.405 16.7254 33.405 17.6628V23.9896C33.405 24.8977 32.3302 25.6592 30.9544 25.6592ZM3.56836 31.3124V24.4583C3.82631 24.5462 4.12726 24.5755 4.4282 24.5755H12.4678V31.3124H3.56836ZM13.3706 41.0957H3.82631C1.71969 41.0957 0 39.9533 0 38.5181V33.0699C0 32.7477 0.38693 32.4841 0.859845 32.4841H16.3371C16.81 32.4841 17.1969 32.7477 17.1969 33.0699V38.5181C17.1969 39.9533 15.4772 41.0957 13.3706 41.0957ZM3.61135 44.9035V42.2673H13.5856V44.9035H3.61135ZM36.4144 44.9035V42.2673H46.3886V44.9035H36.4144ZM14.8323 50.0002H2.36457C1.89166 50.0002 1.50473 49.7366 1.50473 49.4144V46.661C1.50473 46.3388 1.89166 46.0752 2.36457 46.0752H14.8323C15.3052 46.0752 15.6922 46.3388 15.6922 46.661V49.4144C15.6922 49.7366 15.3052 50.0002 14.8323 50.0002ZM47.5924 50.0002H35.1677C34.6948 50.0002 34.3078 49.7366 34.3078 49.4144V46.661C34.3078 46.3388 34.6948 46.0752 35.1677 46.0752H47.5924C48.0653 46.0752 48.4523 46.3388 48.4523 46.661V49.4144C48.4523 49.7366 48.0653 50.0002 47.5924 50.0002ZM46.1737 41.0957H36.5864C34.4798 41.0957 32.8031 39.9533 32.8031 38.5181V33.0699C32.8031 32.7477 33.19 32.4841 33.6629 32.4841H49.1402C49.6131 32.4841 50 32.7477 50 33.0699V38.5181C50 39.9533 48.2803 41.0957 46.1737 41.0957Z" fill="#343434"/>
</svg>
