<svg width="50" height="40" viewBox="0 0 50 40" fill="none" xmlns="http://www.w3.org/2000/svg">
<path d="M40.6249 16.5536L35.886 7.97526C35.4282 7.14661 34.7567 6.45581 33.9414 5.97474C33.126 5.49368 32.1966 5.23993 31.2499 5.23992V0.662682C35.1962 0.662682 38.9242 2.47332 41.3639 5.57497L49.9999 16.5536V25.9285L49.262 34.3641C49.088 36.353 47.5309 37.9407 45.5458 38.1534L34.7175 39.3134C32.7097 39.5285 30.8355 38.2764 30.2654 36.3392L29.007 32.063C28.4841 30.2855 26.8527 29.0651 24.9999 29.0651C23.1472 29.0651 21.5158 30.2855 20.9928 32.063L19.7344 36.3392C19.1644 38.2764 17.2902 39.5285 15.2824 39.3134L4.45409 38.1534C2.46894 37.9407 0.911814 36.353 0.737888 34.3641L0 25.9285V16.5536L8.63591 5.57497C9.84008 4.04414 11.376 2.80661 13.128 1.9557C14.88 1.10478 16.8023 0.662666 18.7499 0.662682V5.23992C17.8032 5.23993 16.8739 5.49368 16.0585 5.97474C15.2431 6.45581 14.5716 7.14661 14.1138 7.97526L9.37497 16.5536" fill="#343434"/>
</svg>
