<svg width="33" height="29" viewBox="0 0 33 29" fill="none" xmlns="http://www.w3.org/2000/svg" style="transform: rotate(180deg);">
<path d="M31.8987 28.6313C25.309 28.624 18.9919 25.9996 14.3369 21.3353C9.68185 16.671 7.07005 10.3487 7.0759 3.75896L1.83931 8.99554C1.62949 9.185 1.35484 9.28651 1.07224 9.27906C0.789639 9.2716 0.520726 9.15576 0.32118 8.9555C0.121635 8.75525 0.00674092 8.48593 0.000287303 8.2033C-0.00616631 7.92067 0.0963146 7.64639 0.286512 7.43723L7.40077 0.322974C7.50305 0.220581 7.62451 0.139351 7.7582 0.0839299C7.8919 0.0285088 8.0352 -1.75029e-05 8.17993 -1.75029e-05C8.32465 -1.75029e-05 8.46796 0.0285088 8.60165 0.0839299C8.73535 0.139351 8.8568 0.220581 8.95908 0.322974L16.0733 7.43723C16.1757 7.53955 16.2568 7.66103 16.3122 7.79471C16.3676 7.9284 16.3961 8.07169 16.3961 8.21639C16.3961 8.36109 16.3676 8.50438 16.3122 8.63807C16.2568 8.77175 16.1757 8.89322 16.0733 8.99554C15.971 9.09787 15.8496 9.17903 15.7159 9.23441C15.5822 9.28978 15.4389 9.31828 15.2942 9.31828C15.1495 9.31828 15.0062 9.28978 14.8725 9.23441C14.7388 9.17903 14.6174 9.09787 14.515 8.99554L9.27845 3.75896C9.27261 9.76458 11.6523 15.5266 15.8943 19.7779C20.1363 24.0291 25.8931 26.4215 31.8987 26.4288C32.1908 26.4288 32.4709 26.5448 32.6774 26.7513C32.884 26.9579 33 27.238 33 27.5301C33 27.8221 32.884 28.1023 32.6774 28.3088C32.4709 28.5153 32.1908 28.6313 31.8987 28.6313V28.6313Z" fill="black"/>
</svg>
