<svg width="2002" height="1040" viewBox="0 0 2002 1040" fill="none" xmlns="http://www.w3.org/2000/svg">
<path d="M659.895 0H2V510H659.895V0Z" fill="#9BAFBD"/>
<path d="M522.125 99.2618L337.408 343.88L525.329 343.295L522.125 99.2618Z" fill="#728694"/>
<path d="M621.033 335.592H46.4736V353.135H621.033V335.592Z" fill="#4C6270"/>
<path d="M519.651 109.096C517.316 115.753 512.434 124.633 503.23 132.054C500.467 134.283 496.737 135.172 494.276 137.73C492.862 139.197 491.809 140.967 490.921 142.802C488.993 146.769 487.77 151.281 488.585 155.86C495.552 158.918 499.052 167.18 498.737 174.785C498.421 182.382 495.046 189.493 491.559 196.255C490.645 198.025 489.717 199.794 488.48 201.353C487.401 202.715 486.105 203.892 485.026 205.254C482.993 207.839 481.848 210.984 480.605 214.023C473.316 231.895 462.026 247.946 455.138 265.036C452.217 272.837 444.52 277.613 437.329 281.816C432.184 284.816 427.039 287.822 421.802 290.361C421.02 290.749 420.23 291.118 419.441 291.473C419.342 292.058 419.243 292.637 419.145 293.222C417.414 303.136 415.059 313.082 409.941 321.725C404.526 330.869 395.493 338.433 384.927 339.644C380.684 340.124 376.401 339.585 372.164 339.045C359.079 337.374 345.987 335.71 332.75 333.276C319.112 335.151 305.256 333.783 291.559 332.401C280.125 331.257 268.691 330.112 257.105 328.843C253.73 336.269 250.355 343.689 246.98 351.109C244.631 356.28 242.263 361.483 239.02 366.153C234.697 372.383 228.954 377.468 223.27 382.487C212.191 392.275 201.112 402.07 190.033 411.858C187.092 414.456 184.145 417.061 181.658 420.1C175.763 427.29 172.473 436.841 164.868 441.097C163.539 442.932 160.901 443.406 158.71 442.808C156.52 442.209 154.677 440.775 152.901 439.367C141.289 430.191 129.684 421.008 118.072 411.831C114.118 408.7 110.079 405.484 107.454 401.168C103.908 395.34 103.408 387.769 106.151 381.52C119.552 388.664 133.263 395.255 147.21 401.26C150.559 402.701 154.256 404.135 157.651 403.096C165.855 402.543 172.131 395.873 177.5 389.644C200.677 362.746 223.914 334.743 235.223 301.616C238.362 296.216 245.25 294.558 251.388 293.407C286.723 286.769 322.223 280.112 358.822 278.178C364.559 270.594 370.289 263.009 376.026 255.425C383.513 245.525 391.059 235.52 396.204 224.219C402.316 210.786 404.967 195.657 413.46 183.579C423.158 169.785 439.046 161.944 453.862 154.577C455.658 150.452 456.526 145.992 457.381 141.585C457.921 138.789 458.408 135.685 456.256 133.573C452.816 131.961 449.23 130.639 445.566 129.633C444.046 129.212 442.434 128.811 441.27 127.745C439.756 126.364 439.335 123.93 440.296 122.121C440.855 121.062 441.816 120.22 442.066 118.983C442.704 118.529 442.723 117.582 442.533 116.819C442.342 116.056 442.013 115.273 442.197 114.51C442.322 114.003 442.664 113.569 442.835 113.076C443.158 112.135 442.816 111.083 443.072 110.122C443.447 108.688 445.059 107.708 445.079 106.228C445.092 105.189 444.309 104.34 443.625 103.564C442.947 102.781 442.276 101.768 442.579 100.775C442.829 99.9592 443.651 99.479 444.401 99.0712C448.355 96.9596 452.552 94.8152 455.052 91.0788C457.691 87.1451 458.375 81.1328 460.441 78.3634C463.704 74.0088 473.408 64.0627 489.289 66.3322C505.802 68.6937 511.46 76.3111 514.684 79.7317C517.48 82.705 520.131 88.1319 520.73 92.1708C521.335 96.3742 521.052 105.097 519.651 109.096Z" fill="#FDD5C8"/>
<path d="M308.724 314.943C308.401 314.943 308.085 314.792 307.888 314.502C307.566 314.042 307.684 313.404 308.145 313.088C319.546 305.201 333.73 295.387 349.592 294.367C352.171 294.203 354.776 294.268 357.302 294.334C360.085 294.406 362.967 294.485 365.756 294.235C377.585 293.183 388.243 286.434 397.651 280.468C402.704 277.264 406.566 274.389 410.296 271.607C414.059 268.805 417.954 265.904 423.072 262.661C424.099 262.01 425.487 261.246 426.954 260.431C430.993 258.194 436.526 255.135 438.151 252.432C439.829 249.636 440.21 246.597 440.612 243.374C440.763 242.157 440.921 240.901 441.151 239.624C442.967 229.547 447.388 219.936 451.664 210.641C456 201.222 460.48 191.48 462.158 181.382C462.25 180.83 462.776 180.455 463.329 180.547C463.881 180.639 464.256 181.165 464.164 181.718C462.441 192.091 457.901 201.958 453.513 211.497C449.289 220.68 444.921 230.172 443.151 239.993C442.927 241.216 442.776 242.446 442.625 243.63C442.197 247.071 441.789 250.327 439.888 253.484C437.98 256.662 432.408 259.74 427.934 262.22C426.493 263.016 425.131 263.772 424.158 264.391C419.105 267.594 415.243 270.469 411.513 273.251C407.75 276.054 403.855 278.955 398.737 282.198C389.131 288.282 378.25 295.176 365.927 296.268C363.02 296.525 360.079 296.446 357.237 296.373C354.763 296.308 352.197 296.242 349.71 296.4C334.414 297.38 320.48 307.017 309.289 314.759C309.125 314.884 308.921 314.943 308.724 314.943Z" fill="#E0AFA1"/>
<path d="M421.796 290.361C421.013 290.749 420.223 291.117 419.434 291.473C419.335 292.058 419.236 292.637 419.138 293.222C407.184 300.11 394.184 305.162 381.579 310.056C376.052 312.207 370.335 314.43 364.25 315.101C362.585 315.292 360.901 315.358 359.269 315.423C356.289 315.542 353.48 315.654 350.75 316.417C348.131 317.147 345.638 318.495 343.217 319.798L342.684 320.081C337.993 322.6 332.625 325.212 327.006 325.212C326.184 325.212 325.368 325.152 324.539 325.034C318.256 324.133 313.138 319.693 309.019 316.134C308.671 315.825 308.579 315.331 308.769 314.93C308.802 314.845 308.855 314.766 308.921 314.693C309.164 314.41 309.519 314.299 309.862 314.358C310.039 314.384 310.21 314.463 310.355 314.588C314.269 317.976 319.138 322.199 324.829 323.014C330.717 323.863 336.638 321.015 341.717 318.278L342.25 317.995C344.763 316.64 347.362 315.239 350.197 314.45C353.151 313.628 356.217 313.503 359.184 313.384C360.783 313.318 362.427 313.253 364.019 313.075C369.835 312.424 375.427 310.253 380.835 308.155C394.184 302.965 407.993 297.597 420.434 290.078C420.901 289.808 421.493 289.94 421.796 290.361Z" fill="#E0AFA1"/>
<path d="M1330.95 0H673.053V510H1330.95V0Z" fill="#9BAFBD"/>
<path d="M1287.7 336.007H713.139V353.551H1287.7V336.007Z" fill="#4C6270"/>
<path d="M1286.61 272.851C1284.05 262.793 1274.6 255.34 1264.38 253.518C1254.16 251.69 1243.49 254.86 1234.78 260.498C1227.79 265.023 1221.55 271.227 1213.65 273.608C1213.65 273.608 1213.65 273.608 1213.65 273.608C1213.2 273.746 1212.76 273.864 1212.3 273.97C1211.15 272.904 1209.94 271.897 1208.68 270.95C1205.71 268.701 1202.47 266.806 1199.05 265.326C1195.7 263.872 1192.2 262.813 1188.71 261.754C1184.75 260.557 1180.8 259.36 1176.84 258.169C1173.98 257.307 1171.13 256.446 1168.22 255.768C1155.55 252.808 1142.05 253.472 1129.9 257.176C1113.59 262.649 1098.53 274.391 1081.38 273.174C1075.5 272.759 1069.86 270.799 1064.19 269.148C1048.06 264.438 1030.26 262.215 1015.82 268.358C1013.05 269.911 1010.91 272.391 1008.27 274.18C1002.8 277.883 995.836 278.745 989.231 278.837C958.468 279.291 932.02 290.244 902.316 292.474C899.205 291.454 895.757 292.428 892.553 291.763C889.645 291.165 884.283 290.546 881.33 290.257C876.652 289.796 873.159 288.895 868.488 288.435C866.297 288.218 864.106 288.001 861.909 287.928C859.113 287.843 856.316 287.994 853.527 288.198C848.777 288.54 844.027 289.033 839.435 289.79C838.803 289.895 838.178 290.007 837.553 290.119C836.81 289.724 836.066 289.323 835.316 288.921C829.172 285.567 823.06 281.719 819.764 275.627C817.856 272.101 816.902 267.845 813.784 265.326C811.54 263.517 808.501 262.938 805.626 263.155C802.757 263.366 799.988 264.293 797.257 265.214C794.191 266.253 791.126 267.28 788.369 268.694C782.284 269.523 776.191 270.358 770.099 271.194C761.31 272.391 752.402 273.621 744.237 277.094C740.422 278.712 736.764 280.85 733.909 283.843C731.053 286.843 729.04 290.783 728.902 294.921C728.803 297.769 730.224 301.058 732.58 301.367C739.415 302.249 746.376 302.4 753.191 301.387C761.172 300.203 768.968 297.447 777.04 297.519C780.757 297.558 784.395 298.197 787.981 298.953H788.001C790.244 299.42 792.455 299.933 794.639 300.367C794.323 300.459 794.014 300.551 793.698 300.637C793.698 300.637 793.691 300.63 793.691 300.637C775.014 305.959 755.336 307.722 736.007 305.801C733.777 305.577 731.198 305.419 729.632 307.037C728.784 307.912 728.428 309.149 728.224 310.34C727.665 313.55 727.955 316.898 729.066 319.963C729.619 321.489 730.369 322.976 730.481 324.588C730.659 327.14 729.205 329.488 727.79 331.626C726.382 333.764 724.902 336.086 725.014 338.638C725.126 341.197 727.711 343.75 730.086 342.802C731.27 342.329 732.02 341.184 732.784 340.165C738.468 332.646 748.277 329.804 757.395 327.416C766.645 324.989 775.922 322.562 785.402 321.332C792.007 320.47 798.672 320.2 805.336 320.115C814.955 319.983 824.58 320.24 833.797 320.213H833.803C834.349 320.213 834.895 320.213 835.441 320.207C836.356 321.082 837.277 321.956 838.178 322.831C850.001 334.165 861.632 345.677 873.093 357.373C877.619 361.997 882.198 366.746 885.093 372.542C886.705 375.765 887.77 379.265 889.645 382.336C893.362 388.441 900.31 392.434 907.455 392.578C910.678 392.644 913.862 391.973 917.02 391.315C922.093 390.25 927.172 389.191 931.672 387.895C956.862 373.364 985.382 365.306 1010.48 350.617C1018.37 346.006 1025.89 340.743 1034.05 336.639C1042.22 332.534 1051.21 329.58 1059.94 330.686C1075.51 331.126 1091.11 328.982 1106.65 330.008C1120.05 330.896 1133.25 334.139 1146.68 334.442C1166.86 334.902 1187.13 328.475 1203.63 316.293C1210.46 330.001 1220.15 342.046 1229.76 353.972C1236.34 362.129 1242.91 370.279 1249.15 378.699C1253.38 380.271 1258.35 381.777 1262.17 379.383C1264.55 377.903 1265.88 375.226 1266.87 372.614C1270.4 363.339 1271.19 353.038 1269.11 343.342C1268.92 342.441 1268.69 341.5 1268.9 340.592C1269.43 338.316 1272.16 337.52 1274.19 336.362C1278.45 333.942 1280.43 328.692 1280.3 323.798C1280.17 319.121 1278.45 314.668 1276.24 310.386L1275.94 309.8C1277.49 308.741 1278.9 307.504 1280.17 306.136C1283.53 302.505 1285.91 297.927 1287.12 293.105C1288.78 286.474 1288.38 279.423 1286.61 272.851ZM911.803 353.689C908.395 343.019 902.415 333.185 894.764 325.443C892.856 323.502 890.83 321.7 888.718 320.042C889.514 320.141 890.316 320.233 891.112 320.325H891.119C912.172 322.759 933.455 323.187 954.494 321.568C939.198 330.824 924.757 341.487 911.803 353.689ZM1244.11 326.883L1241.93 322.667C1241.97 322.647 1242.01 322.634 1242.05 322.621C1244.65 321.503 1247.28 319.865 1249.74 317.95C1250.31 317.516 1250.86 317.062 1251.41 316.595C1251.48 317.181 1251.43 317.766 1251.32 318.339C1251.32 318.339 1251.31 318.339 1251.31 318.345C1251.1 319.411 1250.68 320.463 1250.43 321.529C1249.85 324.009 1250.22 326.607 1250.59 329.133C1251.31 333.968 1252.03 338.803 1252.74 343.638L1244.11 326.883Z" fill="#FDD5C8"/>
<path d="M1244.11 326.883C1244.06 326.864 1244.01 326.831 1243.96 326.798C1238.59 322.706 1236.83 315.852 1235.13 309.221C1234.26 305.827 1233.36 302.314 1231.99 299.262C1227.74 289.803 1220.21 280.811 1208.96 271.759C1208.71 271.562 1208.61 271.24 1208.69 270.95C1209.95 271.897 1211.16 272.904 1212.31 273.97C1212.76 273.858 1213.21 273.739 1213.65 273.608C1213.66 273.608 1213.66 273.608 1213.66 273.608C1223.09 281.784 1229.58 290 1233.45 298.611C1234.87 301.788 1235.8 305.367 1236.68 308.827C1238 313.984 1239.26 318.917 1242.05 322.621C1242.02 322.641 1241.98 322.654 1241.94 322.667L1244.11 326.883Z" fill="#E0AFA1"/>
<path d="M1275.94 309.8L1276.24 310.386C1270.93 313.234 1265.78 314.786 1260.57 315.102C1260.1 315.128 1259.62 315.148 1259.16 315.168C1257.62 315.227 1256.17 315.286 1254.78 315.688C1253.47 316.069 1251.95 316.951 1251.32 318.339C1251.43 317.76 1251.48 317.181 1251.41 316.595C1250.86 317.056 1250.31 317.516 1249.74 317.95C1250.55 315.924 1252.58 314.675 1254.34 314.161C1255.91 313.708 1257.53 313.648 1259.09 313.583C1259.55 313.563 1260.02 313.543 1260.47 313.517C1267.66 313.076 1274.28 310.083 1280.16 306.136C1278.89 307.511 1277.48 308.741 1275.94 309.8Z" fill="#E0AFA1"/>
<path d="M894.763 325.443C894.599 325.423 894.441 325.351 894.309 325.232C884.46 315.931 872.125 309.511 860.191 303.301C851.789 298.933 843.171 294.447 835.322 288.921C836.072 289.329 836.816 289.73 837.559 290.119C838.184 290 838.809 289.895 839.441 289.79C846.322 294.296 853.704 298.137 860.921 301.893C871.289 307.287 881.954 312.839 891.112 320.325C890.316 320.233 889.513 320.141 888.717 320.042C890.829 321.7 892.855 323.509 894.763 325.443Z" fill="#E0AFA1"/>
<path d="M838.184 322.825C837.276 321.95 836.362 321.068 835.447 320.2C834.901 320.207 834.355 320.207 833.809 320.207H833.803C829.211 316.28 824.342 312.642 819.283 309.373C815.961 307.228 811.526 304.551 806.704 302.913C802.493 301.492 798.086 300.861 793.697 300.637C794.013 300.545 794.322 300.459 794.638 300.367C792.461 299.926 790.243 299.42 788 298.953C794.336 298.874 800.954 299.295 807.217 301.413C812.211 303.104 816.75 305.847 820.151 308.044C826.467 312.129 832.487 316.773 838.046 321.845C838.322 322.088 838.375 322.509 838.184 322.825Z" fill="#E0AFA1"/>
<path d="M2002 0H1344.11V510H2002V0Z" fill="#9BAFBD"/>
<path d="M1574.03 217.206H1446.84V334.736H1574.03V217.206Z" fill="#728694"/>
<path d="M1967.53 335.348H1392.97V352.891H1967.53V335.348Z" fill="#4C6270"/>
<path d="M1900.89 293.176C1898.92 289.4 1895.15 286.959 1891.51 284.749C1888.51 282.934 1885.24 281.092 1881.74 281.329C1880.23 281.388 1878.3 281.506 1876.61 280.723C1875.78 280.335 1875.05 279.743 1874.36 279.138C1872.9 277.862 1871.54 276.487 1870.28 275.014C1869.56 274.172 1868.75 273.231 1867.64 273.119C1865.54 272.902 1864.07 275.79 1861.96 275.586C1860.66 275.461 1859.53 274.132 1858.27 274.481C1857.86 274.599 1857.48 274.895 1857.05 274.895C1856.7 274.895 1856.39 274.711 1856.08 274.58C1855.08 274.159 1853.87 274.29 1852.98 274.902C1850.53 275.033 1847.65 274.139 1845.47 275.553C1843.37 276.921 1842.96 279.75 1842.48 282.217C1842.2 283.624 1841.85 285.012 1841.4 286.381C1841.01 287.578 1840.5 288.834 1839.46 289.564C1838.77 290.045 1837.93 290.235 1837.1 290.387C1832.55 291.209 1827.84 291.077 1823.34 290.005C1817.54 282.967 1810.96 276.428 1803.28 271.435C1795.59 266.442 1786.72 263.048 1777.56 262.654C1772.99 262.456 1768.43 263.002 1763.87 263.252C1755.47 263.699 1747.05 263.127 1738.64 262.555C1721.51 261.384 1704.38 260.213 1687.26 259.042C1676.65 244.801 1664.6 231.138 1652.58 217.528C1647.03 211.239 1641.47 204.944 1635.91 198.649C1633.86 196.32 1631.79 193.979 1629.32 192.097C1624.69 188.578 1618.73 186.861 1612.94 187.368C1596.63 192.788 1578.84 193.998 1561.3 194.972C1540.07 196.149 1517.97 196.912 1498.42 188.552C1491.39 185.546 1484.89 181.434 1478.74 176.895C1471.05 171.199 1463.8 164.733 1458.22 156.944C1457.22 155.517 1455.64 153.938 1453.81 152.734C1453.3 152.405 1452.75 152.09 1452.14 152.083C1450.82 152.063 1449.96 153.438 1449.38 154.629C1448.78 155.865 1448.16 157.115 1447.86 158.464C1447.07 161.911 1448.35 165.463 1449.61 168.771C1450.18 170.278 1450.75 171.778 1451.32 173.277C1451.86 174.692 1452.39 176.113 1453.03 177.487C1454.03 179.684 1455.26 181.763 1456.49 183.835C1458.34 186.947 1460.18 190.058 1462.18 193.064C1463.3 194.735 1464.46 196.373 1465.48 198.11C1468.18 202.714 1469.76 207.865 1471.33 212.963C1472.55 216.147 1476.61 218.245 1479.69 217.745C1482.77 217.239 1485.02 215.936 1487.97 214.93C1492.89 213.259 1496.99 212.963 1502.17 213.443C1513.37 214.489 1524.49 216.344 1535.43 219.002C1540.14 220.146 1544.83 221.442 1549.59 222.356C1568.49 226.001 1590.76 223.304 1608.17 215.101C1620.48 238.525 1630.36 260.279 1641.2 281.533C1647.7 294.274 1654.99 307.332 1666.5 315.686H1666.51C1667.12 316.133 1667.75 316.567 1668.39 316.988C1666.35 316.534 1664.23 315.962 1662.14 315.725C1660.08 315.488 1658.05 315.574 1656.17 316.403C1654.41 317.179 1652.98 318.528 1651.39 319.593C1649.8 320.665 1647.84 321.474 1645.98 320.975C1644.77 320.652 1643.78 319.81 1642.88 318.935C1640.47 316.607 1638.41 313.903 1636.8 310.956C1635.88 309.279 1634.87 307.319 1633.01 306.891C1631.55 306.555 1630.07 307.305 1628.83 308.141C1627.04 315.725 1629.77 323.527 1635.4 327.921C1636.76 328.98 1638.26 329.842 1639.78 330.657C1641.34 331.486 1642.95 332.276 1644.64 332.736C1651.3 334.552 1658.16 331.296 1665.01 330.427C1674.21 329.263 1683.33 332.447 1692.47 333.999C1701.94 335.611 1711.61 335.466 1721.2 335.321C1730.43 335.183 1739.66 335.045 1748.89 334.9C1756.01 334.788 1763.18 334.677 1770.17 333.282C1776.82 332.019 1784.39 334.604 1791.62 333.552C1793.68 333.256 1795.7 332.664 1797.78 332.565C1799.45 332.486 1801.13 332.736 1802.8 332.973C1807.11 333.598 1811.47 334.177 1815.82 333.861C1820.17 333.545 1824.56 332.269 1827.95 329.539C1831.35 326.803 1833.61 322.461 1833.16 318.126C1837.59 317.666 1841.6 319.139 1845.04 321.218C1848.48 323.297 1851.53 325.961 1854.87 328.191C1860.17 331.73 1866.29 334.144 1872.64 334.67C1878.99 335.19 1885.58 333.736 1890.85 330.158C1892.58 328.98 1894.17 327.579 1895.59 326.04C1903.53 317.39 1905.72 303.885 1900.89 293.176ZM1737.78 316.949C1724.35 316.778 1710.91 317.153 1697.25 318.06C1695.16 318.199 1693.07 318.35 1690.96 318.514C1692.24 318.153 1693.53 317.817 1694.82 317.495C1694.83 317.495 1694.83 317.495 1694.83 317.488C1712.16 313.16 1730.32 312.081 1748.04 314.35C1748.91 314.456 1749.78 314.581 1750.64 314.706C1750.18 314.995 1749.7 315.245 1749.22 315.462C1745.74 317.034 1741.65 317.001 1737.78 316.949Z" fill="#FDD5C8"/>
<path d="M1691.31 318.495C1691.31 318.495 1668.18 317.186 1668.38 316.988C1667.74 316.567 1667.11 316.133 1666.49 315.686C1667.75 315.949 1669.03 316.133 1670.28 316.291C1678.39 317.33 1686.64 317.732 1694.82 317.495C1693.53 317.817 1691.31 318.495 1691.31 318.495Z" fill="#E0AFA1"/>
<path d="M1802.03 309.292C1784.36 310.14 1766.62 312.213 1749.22 315.469C1749.7 315.252 1750.18 315.002 1750.64 314.712C1749.78 314.587 1748.91 314.462 1748.04 314.357C1765.8 310.982 1783.93 308.838 1801.97 307.976C1802.33 307.963 1802.63 308.239 1802.66 308.601C1802.66 308.97 1802.39 309.279 1802.03 309.292Z" fill="#E0AFA1"/>
<path d="M2000 530H1342.11V1040H2000V530Z" fill="#9BAFBD"/>
<path d="M1642.97 656.508H1563.09V940.463H1642.97V656.508Z" fill="#728694"/>
<path d="M1955.84 780.208C1953.32 772.755 1947.09 766.526 1939.46 764.579C1934.13 763.217 1928.53 763.908 1923.09 764.684C1916.62 765.605 1910.01 766.684 1904.32 769.894C1902 771.203 1899.86 772.854 1897.41 773.887C1894.2 775.229 1890.66 775.446 1887.2 775.65C1883.84 775.841 1880.38 776.018 1877.55 774.939C1874.91 772.124 1874.95 767.835 1874.66 763.994C1874.24 758.165 1872.7 752.423 1870.14 747.167C1869.53 745.904 1868.86 744.654 1868.01 743.529C1865.11 739.681 1860.48 737.589 1856.03 735.747C1852.15 734.142 1848.18 732.603 1844.02 732.123C1841.72 731.86 1839.38 731.919 1837.11 731.458C1832.51 730.518 1828.65 727.538 1824.59 725.196C1817.79 721.276 1810.16 719.059 1803.45 716.928C1797.37 716.026 1792.39 711.705 1786.61 709.626C1781.37 707.738 1775.46 707.791 1770.25 709.751C1766.71 711.093 1763.55 713.25 1760.43 715.395C1752.42 720.887 1744.4 726.387 1736.39 731.886C1730.24 736.103 1727.53 737.925 1721.89 741.766C1721.14 742.279 1720.34 742.819 1719.47 743.411C1719.11 743.2 1718.74 742.983 1718.39 742.779C1705.06 735.011 1694.38 729.09 1681.33 723.321C1671.45 718.96 1660.75 716.822 1650.34 714C1641.07 711.487 1631.81 708.975 1622.55 706.462C1620.55 705.922 1618.55 705.376 1616.49 705.166C1608.63 704.363 1601.18 708.442 1594.62 712.415C1576.79 720.039 1557.87 725.058 1540.51 733.695C1536.09 735.892 1531.8 738.319 1527.39 740.549C1518.12 745.253 1508.45 749.068 1498.78 752.87C1492.99 755.153 1487.12 757.455 1480.93 758.106C1473.27 758.909 1465.51 757.133 1458.02 757.6C1447.68 757.231 1437.28 755.33 1427.93 750.89C1421.25 747.713 1414.69 743.154 1407.3 743.437C1405.98 743.483 1404.61 743.72 1403.57 744.529C1402.53 745.338 1401.89 746.871 1402.28 748.351C1404.55 757.119 1413 762.757 1421.25 766.487C1429.5 770.216 1438.54 773.124 1444.75 779.715C1449.22 784.458 1452.86 791.385 1459.36 791.825C1462.86 792.062 1466.12 790.214 1469.23 788.569C1487.5 778.88 1508.03 774.459 1528.57 770.335C1552.87 766.414 1577.58 759.862 1596.97 744.7C1599.57 742.667 1602.09 740.47 1605.06 739.017C1608.03 737.563 1611.58 736.925 1613.84 738.352C1638.99 756.448 1664.13 774.551 1689.6 792.378C1672.89 810.783 1649.04 820.973 1630.11 837.095C1625.68 840.865 1620.85 845.219 1615.04 844.989C1612.11 844.871 1609.36 843.568 1606.76 842.207C1594.21 835.675 1582.05 827.294 1568.5 825.077C1540.89 820.131 1513.36 814.776 1485.89 809.02C1483.05 808.422 1480.17 807.81 1477.59 806.481C1474.82 805.047 1472.51 802.85 1469.85 801.219C1467.18 799.587 1463.84 798.535 1460.94 799.699C1458.59 800.64 1457.03 802.817 1455.29 804.652C1445.02 815.473 1427.61 815.164 1415.72 821.644C1411.76 826.222 1404.52 828.676 1403.7 834.675C1403.07 839.174 1406.98 843.384 1411.4 844.404C1415.83 845.423 1420.47 843.95 1424.49 841.825C1428.5 839.707 1432.16 836.924 1436.28 835.03C1439.8 833.405 1443.58 832.458 1447.38 831.708C1469.65 827.34 1493.24 829.925 1514.29 838.733C1524.85 842.904 1535.45 847.088 1545.41 852.534C1550.49 855.304 1555.43 858.415 1560.86 860.382C1565.11 861.914 1569.57 862.737 1573.97 863.717C1585.16 866.203 1596.11 869.795 1607.3 874.031C1615.64 877.149 1624.96 877.616 1633.59 875.347C1636.26 874.643 1638.86 873.689 1641.52 872.966C1645.07 872.005 1648.72 871.459 1652.32 870.782C1674.95 866.532 1696.42 856.803 1714.99 843.154C1715.21 843.003 1715.42 842.838 1715.64 842.68C1716.55 842.845 1717.45 843.035 1718.34 843.259C1731.05 846.417 1741.68 855.35 1752.97 862.23C1760.88 867.052 1769.36 870.959 1778.15 873.847C1780.7 874.682 1783.31 875.439 1785.98 875.531C1792.03 875.748 1797.62 872.624 1802.99 869.854C1815.99 863.158 1829.74 858.06 1843.45 852.981C1848.58 851.08 1853.71 849.179 1858.84 847.278C1863.88 845.403 1869 843.496 1873.11 840.477C1876.24 836.734 1877.95 831.965 1878.69 827.143C1879.43 822.315 1879.26 817.407 1878.98 812.533C1878.84 810.093 1878.75 807.382 1880.32 805.501C1882.49 802.876 1886.57 803.258 1889.89 804.021C1896.44 805.521 1902.87 807.58 1909.78 809.5C1916.43 811.823 1923.28 814.171 1930.33 813.901C1935.01 813.717 1939.57 812.382 1944.01 810.902C1945.62 810.362 1947.24 809.79 1948.66 808.856C1950.8 807.448 1952.34 805.297 1953.56 803.047C1957.31 796.114 1958.36 787.661 1955.84 780.208ZM1770.61 732.886C1774.01 730.682 1777.55 727.867 1781.58 728.275C1783.59 728.485 1785.41 729.485 1787.18 730.472C1799.49 737.346 1811.8 744.22 1824.11 751.094C1806.96 751.054 1790.1 755.258 1773.02 756.889C1769.62 757.212 1766.22 757.435 1762.81 757.264C1758.44 757.054 1754.12 756.192 1749.83 755.337C1744.84 754.337 1739.84 753.344 1734.78 752.008C1734.34 751.903 1733.91 751.778 1733.47 751.66C1734.38 750.824 1735.32 750.055 1736.31 749.331C1746.41 741.891 1759.94 739.786 1770.61 732.886ZM1791.62 854.771C1790.61 855.534 1789.56 856.336 1788.32 856.567C1786.73 856.863 1785.13 856.192 1783.66 855.521C1770.24 849.456 1757.07 842.858 1743.88 835.668C1742.38 834.859 1740.89 834.037 1739.39 833.201C1739.62 833.142 1739.86 833.083 1740.08 833.03C1751.58 830.083 1763.26 827.182 1775.12 827.485C1780.64 827.63 1786.12 828.458 1791.57 829.287C1802.74 830.984 1813.91 832.688 1824.45 834.898C1812.86 840.358 1801.84 847.035 1791.62 854.771Z" fill="#FDD5C8"/>
<path d="M657.895 530H0V1040H657.895V530Z" fill="#9BAFBD"/>
<path d="M614.645 865.709H40.0859V886.112H614.645V865.709Z" fill="#4C6270"/>
<path d="M588.928 828.806C588.849 831.889 588.349 834.941 587.73 837.94C586.526 843.8 584.803 849.675 581.487 854.303C578.151 858.962 573.369 862.03 568.323 863.56C563.276 865.082 557.974 865.143 552.796 864.462C548.855 863.95 544.882 862.986 541.415 860.744C537.875 858.457 535.04 854.946 531.803 852.115C528.566 849.285 524.546 847.051 520.566 847.938C513.382 850.555 507.994 859.138 500.323 862.359C497.599 863.506 494.691 863.927 491.816 864.34C475.092 866.727 458.375 869.106 441.651 871.5C427.994 873.443 414.309 875.402 400.546 875.715C388.415 875.991 376.27 874.996 364.27 872.916C355.342 870.383 346.27 869.029 337.171 868.066C331.79 867.499 326.362 867.071 321.007 867.874C317.836 868.349 314.671 869.259 311.48 869.045C304.23 868.555 298.165 862.443 291.099 860.492C290.855 860.423 290.619 860.362 290.375 860.301C289.553 860.071 288.73 859.849 287.895 859.628C277.619 856.835 266.316 853.837 255.02 850.83C248.428 849.071 241.27 847.38 235.105 850.624C219.941 854.273 204.533 858.687 189.013 862.496C184.776 863.537 180.5 864.539 176.171 864.585C170.5 864.646 164.921 863.093 159.369 861.762C144.29 858.159 128.954 856.231 113.645 854.318C104.816 852.276 94.4804 853.882 85.2765 858.541C82.5199 859.941 79.4804 861.64 76.6383 860.492C73.2962 859.146 71.9409 854.647 70.5988 850.838C66.283 838.613 58.0528 828.944 51.158 818.44C46.4475 811.257 42.2041 803.286 40.9738 794.366C40.6186 791.788 40.5725 788.927 41.8949 786.808C43.5528 784.145 46.9212 783.595 49.6054 784.643C52.2896 785.698 54.4475 787.993 56.5199 790.227C60.4738 794.488 64.4212 798.749 68.3751 803.01C79.3686 814.86 95.1383 824.53 112.007 827.827C127.895 830.933 144.151 829.188 160.198 827.437C169.625 826.411 179.053 825.379 188.48 824.346C194.783 823.665 201.092 822.969 207.323 821.661C215.171 820.001 222.842 817.354 230.612 815.235C263.013 806.384 296.678 806.697 329.961 807.241C338.342 806.912 344.342 809.803 350.303 809.069C352.855 808.755 355.309 807.784 357.796 807.034C364.171 805.114 370.809 804.64 377.25 803.018C382.211 801.771 387.02 799.851 391.921 798.321C403.48 794.718 415.454 793.333 427.369 791.964C437.737 790.77 448.119 789.577 458.533 789.087C460.592 789.569 462.375 789.776 464.132 790.181C471.257 791.803 477.553 796.477 483.658 801.052C489.717 805.596 495.776 810.14 501.836 814.684C504.007 816.459 506.73 816.191 509.191 815.854C512.678 815.373 516.165 814.891 519.651 814.409C520.651 814.271 521.711 814.11 522.52 813.414C523.934 812.19 524.112 809.849 524.165 807.799C524.23 805.037 524.303 802.291 524.375 799.529C524.401 798.405 524.434 797.265 524.75 796.209C525.27 794.473 526.573 793.088 528.105 792.652C529.191 792.316 530.513 792.186 531.803 792.354C533.191 792.537 534.625 793.042 535.948 792.522C536.204 792.423 536.448 792.285 536.711 792.224C537.711 792.01 538.803 792.951 539.698 792.384C539.908 792.254 540.079 792.048 540.296 791.933C540.915 791.596 541.612 792.078 542.237 792.4C543.013 792.798 543.875 792.966 544.724 792.882C546.467 792.56 547.145 789.424 548.994 789.156C549.888 789.026 550.737 789.646 551.428 790.319C553.796 792.614 555.52 795.888 558.303 797.433C560.645 798.734 563.349 798.589 565.928 798.872C572.237 799.568 578.29 803.079 582.526 808.556C586.75 814.041 589.112 821.439 588.928 828.806Z" fill="#FDD5C8"/>
<path d="M478.776 829.15C470.967 836.578 460.756 838.399 450.894 840.158C446.546 840.931 442.059 841.727 437.848 842.997C433.908 844.182 429.987 845.865 426.19 847.487C420.21 850.05 414.019 852.697 407.539 853.523C402.25 854.204 396.894 853.645 391.717 853.11C387.552 852.674 383.243 852.23 379.039 852.437C375.625 852.605 372.158 853.209 368.809 853.798C365.98 854.296 363.059 854.801 360.151 855.061C350.658 855.894 341.684 853.928 334.204 849.384C329.763 847.365 324.723 848.397 319.842 849.407C319.237 849.53 318.631 849.66 318.026 849.774C313.065 850.754 305.927 851.48 301.171 846.516C299.822 845.116 298.75 843.333 297.71 841.612C296 838.789 294.381 836.112 291.815 835.492C289.394 834.911 286.039 836.785 284.829 840.832C283.908 843.922 284.283 847.801 285.894 851.771C286.848 854.12 288.118 856.353 289.355 858.511C289.69 859.1 290.033 859.689 290.368 860.301C289.546 860.071 288.723 859.849 287.888 859.628C286.625 857.417 285.315 855.114 284.309 852.636C283.033 849.484 281.796 844.756 283.171 840.158C284.355 836.196 288.138 832.516 292.171 833.488C295.421 834.276 297.315 837.404 299.144 840.441C300.125 842.071 301.138 843.746 302.335 844.993C306.533 849.369 313.131 848.665 317.73 847.763C318.329 847.648 318.927 847.525 319.533 847.395C324.671 846.34 329.98 845.238 334.888 847.502C334.921 847.51 334.947 847.525 334.973 847.548C342.177 851.947 350.842 853.837 360.019 853.033C362.868 852.781 365.756 852.276 368.546 851.786C371.94 851.19 375.454 850.578 378.96 850.402C383.283 850.188 387.644 850.647 391.868 851.075C396.96 851.61 402.23 852.154 407.348 851.496C413.612 850.692 419.697 848.091 425.579 845.575C429.414 843.93 433.381 842.239 437.401 841.023C441.697 839.73 446.23 838.919 450.618 838.139C460.697 836.341 470.217 834.65 477.658 827.574C478.033 827.222 478.585 827.284 478.894 827.72C479.204 828.156 479.151 828.798 478.776 829.15Z" fill="#E0AFA1"/>
<path d="M1328.95 530H671.053V1040H1328.95V530Z" fill="#9BAFBD"/>
<path d="M1246.74 744.259L1019.11 864.421L1249.82 862.664L1246.74 744.259Z" fill="#728694"/>
<path d="M1303.24 859.356H728.685V876.899H1303.24V859.356Z" fill="#4C6270"/>
<path d="M1240.01 761.527C1233.59 769.19 1223.55 773.795 1213.57 773.203C1209.78 772.979 1206.03 772.045 1202.25 772.413C1199.13 772.716 1196.14 773.893 1193.41 775.446C1191.05 776.788 1188.77 778.511 1187.56 780.939C1186.24 783.583 1186.37 786.675 1185.86 789.582C1184.61 796.7 1179.49 802.659 1173.42 806.58C1167.36 810.494 1160.35 812.665 1153.44 814.789C1137.82 825.347 1121.09 834.451 1103.62 841.786C1100.65 843.029 1097.64 844.239 1094.99 846.061C1093.78 846.884 1092.66 847.831 1091.36 848.502C1089.71 849.344 1087.85 849.699 1086.03 850.034C1072.01 852.633 1058 855.231 1043.98 857.823C1039.03 857.507 1033.84 857.816 1028.63 858.125C1019.03 858.691 1009.22 859.303 1000.3 862.914C996.816 864.322 993.448 866.197 989.73 866.69C985.665 867.236 981.592 866.098 977.658 864.954C975.533 864.335 973.395 863.71 971.382 862.783C966.869 860.691 963.086 857.06 960.796 852.639C960.645 852.343 960.5 852.047 960.362 851.751C960.007 851.804 959.645 851.85 959.296 851.883C946.059 853.429 933.349 849.39 919.829 847.568C903.487 845.371 890.461 848.443 875.171 853.481C864.823 856.889 847.796 859.586 836.086 859.796C821.573 860.059 807.323 857.547 792.954 855.468C778.592 853.389 766.461 852.824 750.652 857.902C747.559 858.895 744.237 861.099 741.467 859.388C739.698 858.296 738.961 856.152 738.204 854.218C732.573 839.812 719.777 829.425 712.369 815.842C710.448 812.316 708.855 808.33 709.5 804.35C710.138 800.377 713.75 796.673 717.737 797.239C720.066 797.568 721.967 799.199 723.724 800.758C730.875 807.113 738.027 813.467 745.178 819.815C748.296 822.584 754.612 824.663 760.592 827.031C776.77 833.445 794.862 832.872 812.105 830.524C829.355 828.176 842.855 825.676 860.02 822.782C865.902 821.788 876.092 821.551 881.895 819.532C888.375 817.269 894.138 813.46 900.928 812.441C905.796 811.711 910.757 811.632 915.586 810.671C920.013 809.79 924.263 808.191 928.671 807.218C933.29 806.192 940.783 805.244 945.441 804.396C964.487 800.916 974.415 801.653 988.908 800.66C1002.49 799.732 1013.51 800.706 1026.62 797.029C1033.83 795.081 1041.83 792.865 1049.84 790.648C1059.7 787.911 1069.68 785.129 1078.55 780.018C1082.72 777.617 1086.57 774.729 1090.65 772.19C1108.04 761.356 1129.41 757.087 1149.62 760.422C1153.61 761.079 1157.66 762.02 1161.65 761.343C1164.92 758.836 1168.4 756.139 1171.74 753.284C1172.96 752.238 1174.25 751.022 1174.46 749.423C1174.65 748.002 1173.92 746.621 1173.11 745.437C1171.22 742.674 1168.74 740.312 1167.24 737.326C1166.82 736.484 1166.47 735.583 1166.45 734.642C1166.39 732.274 1168.4 730.32 1170.56 729.353C1171.53 729.097 1172.75 728.84 1173.55 727.992C1174.27 727.222 1174.57 726.038 1175.51 725.564C1175.86 725.387 1176.26 725.334 1176.59 725.124C1177.42 724.591 1177.47 723.308 1178.27 722.729C1179.06 722.144 1180.22 722.493 1181.1 722.045C1183.34 720.887 1181.34 716.375 1183.65 715.382C1184.02 715.224 1184.43 715.204 1184.83 715.224C1186.38 715.296 1187.86 715.901 1189.38 716.224C1192.53 716.888 1195.84 716.322 1198.84 715.165C1201.84 714.013 1204.59 712.303 1207.32 710.606C1218.05 704.824 1233.08 707.58 1241.07 717.138C1244.91 721.736 1247.14 727.558 1247.91 733.498C1249.22 743.398 1246.43 753.87 1240.01 761.527Z" fill="#FDD5C8"/>
<path d="M1148.98 779.09C1146.14 789.674 1135.52 795.66 1126.15 800.936L1125.42 801.344C1114.09 807.738 1104.93 814.171 1097.41 821.032C1096.99 821.413 1096.57 821.801 1096.14 822.19C1093.76 824.393 1091.3 826.669 1088.39 828.281C1085.62 829.807 1082.57 830.656 1080.21 831.228C1075.61 832.339 1070.84 833.03 1066.24 833.701C1061.07 834.451 1055.72 835.227 1050.61 836.609C1047.13 837.549 1043.66 838.799 1040.31 840.009C1035.64 841.693 1030.8 843.437 1025.81 844.39C1020.59 845.39 1015.18 845.542 1009.95 845.686C1003.15 845.871 996.125 846.061 989.625 848.166C989.125 848.331 988.618 848.502 988.118 848.679C985.77 849.495 983.342 850.337 980.789 850.094C978.46 849.877 975.941 848.614 973.5 847.39C970.638 845.956 967.684 844.469 965.21 844.772C962.467 845.107 960.842 849.337 960.796 852.626C960.645 852.33 960.5 852.034 960.362 851.738C960.006 851.791 959.645 851.837 959.296 851.87C959.559 848.094 961.526 843.673 965.02 843.252C967.947 842.891 971.118 844.483 974.184 846.015C976.599 847.226 978.881 848.37 980.927 848.568C983.151 848.778 985.316 848.028 987.612 847.232C988.125 847.055 988.638 846.877 989.151 846.712C995.855 844.542 1003 844.344 1009.9 844.16C1015.07 844.015 1020.41 843.871 1025.51 842.897C1030.38 841.963 1035.16 840.24 1039.78 838.575C1043.16 837.358 1046.66 836.096 1050.2 835.142C1055.39 833.734 1060.79 832.951 1066.01 832.195C1070.57 831.537 1075.3 830.846 1079.84 829.748C1082.1 829.202 1085.03 828.386 1087.62 826.945C1090.37 825.419 1092.77 823.209 1095.09 821.065C1095.51 820.67 1095.93 820.288 1096.36 819.9C1103.96 812.967 1113.22 806.461 1124.65 800.015L1125.37 799.607C1134.48 794.476 1144.8 788.661 1147.47 778.702C1147.59 778.294 1148.01 778.044 1148.41 778.156C1148.85 778.261 1149.09 778.682 1148.98 779.09Z" fill="#E0AFA1"/>
</svg>
