<svg width="2000" height="1040" viewBox="0 0 2000 1040" fill="none" xmlns="http://www.w3.org/2000/svg">
<g clip-path="url(#clip0_101_381)">
<path d="M2000 0H0V1040H2000V0Z" fill="#9BAFBD"/>
<path d="M189.651 655.79C225.811 647.64 263.241 657.94 300.251 660.04C334.511 661.99 368.721 656.87 402.651 651.76C408.751 650.84 416.041 648.95 417.801 643.03C418.611 640.3 417.961 637.34 418.541 634.55C420.361 625.79 431.881 623.94 440.821 624.03C461.491 624.23 482.161 624.44 502.831 624.64C461.631 580.69 399.381 549.94 341.301 565.93C327.801 569.65 315.051 575.73 301.601 579.66C285.811 584.27 269.311 585.85 252.941 587.4C235.681 589.04 218.421 590.67 201.161 592.31C186.241 593.72 170.591 595.4 158.261 603.92C145.931 612.44 138.651 630.25 146.691 642.9C155.801 657.26 176.981 658.64 189.651 655.79Z" fill="#728694"/>
<path d="M148.98 823.77C153.25 835.14 168.37 837.59 180.36 835.7C192.36 833.82 204.97 829.53 216.21 834.13C218.86 835.22 221.49 836.8 224.35 836.62C228.08 836.38 230.94 833.23 234.47 831.99C243 828.99 251.84 837.74 260.76 836.27C271.47 834.5 276.35 819.25 287.18 818.52C290.84 818.27 294.34 819.84 297.93 820.63C306.54 822.53 315.44 819.95 323.83 817.26C358.75 806.08 392.97 792.64 428.35 783.01C457.97 774.95 488.25 769.6 518.29 763.28C570.88 752.22 622.83 738.15 673.82 721.17C683.66 717.89 694.98 712.84 696.86 702.64C698.53 693.55 691.57 684.49 693.29 675.4C695.45 664.07 708.99 659.62 720.29 657.32C799.65 641.16 879.01 625 958.37 608.84C931.57 559.21 874.38 527.72 818.11 531.6C762.01 535.47 709.5 571.04 654.9 565.8C636.96 566.55 618.49 568.54 602.77 577.23C587.06 585.92 574.67 602.77 576.17 620.66C577.29 634 585.62 645.53 594.18 655.82C600.14 662.97 606.68 670.62 607.27 679.91C607.85 689.07 602.23 697.74 594.89 703.25C587.55 708.76 578.64 711.69 569.91 714.52C559.98 717.75 550.04 720.97 540.11 724.2C509.59 734.11 479.06 744.02 448.1 752.41C428.58 757.7 408.86 762.38 388.86 765.34C378 766.94 367 768.05 356.48 771.2C345.45 774.51 335.08 780.03 323.75 782.11C299.07 786.65 274.76 774.4 250 770.29C223.9 765.96 196.34 771.06 173.51 784.42C158.76 793.08 143.67 809.64 148.98 823.77Z" fill="#728694"/>
<path d="M1026.61 723.07C1039.39 765.73 1081.48 794.42 1124.99 803.93C1168.5 813.43 1213.73 807.14 1257.77 800.49C1329.57 789.64 1401.23 777.9 1472.74 765.27C1533.62 754.52 1595.66 743.08 1656.9 751.57C1706.42 758.44 1756.05 778.23 1804.94 767.78C1799.62 755.32 1785.17 749.96 1772.16 746.17C1621.7 702.32 1461.04 693.91 1306.82 721.8C1233.57 735.05 1157.04 756.19 1086.4 732.71C1064.37 725.38 1038.05 714.49 1026.61 723.07Z" fill="#728694"/>
<path d="M1136.19 624.3C1176.48 631.07 1217.63 629.75 1258.46 628.4C1360.91 625.01 1464.16 621.53 1563.96 598.14C1592.05 591.56 1619.81 583.41 1646.69 572.93C1667.49 564.83 1687.92 555.29 1709.78 550.78C1728.77 546.87 1748.31 546.86 1767.69 546.88C1817.83 546.91 1870.18 547.45 1914.72 570.46C1919.32 572.84 1925.61 575.19 1929.05 571.32C1933.68 566.1 1926.36 558.84 1920.08 555.8C1871.01 532.03 1821.19 508.02 1767.58 498.1C1726.04 490.41 1683.41 491.43 1641.22 493.78C1575.7 497.43 1510.39 504.22 1445.12 511C1408.18 514.84 1371.24 518.68 1334.31 522.52C1289.33 527.2 1244.35 531.87 1199.42 537.05C1181.45 539.12 1163.07 541.39 1146.9 549.5C1130.73 557.61 1116.94 572.84 1115.63 590.88C1113.86 615.63 1140.4 638.01 1136.19 624.3Z" fill="#728694"/>
<path d="M621.72 574.39C615.65 568.74 611.02 561.6 606.5 554.59C602.18 547.9 597.75 540.89 596.88 532.98C596.42 528.76 597 524.5 597.58 520.3C598.46 513.93 599.34 507.55 600.23 501.18C600.31 500.61 603.44 499.63 605.51 500.92C606.03 501.25 606.46 501.65 606.83 502.12C607.36 503.9 607.87 505.68 608.37 507.47C608.25 515.41 601.59 522.16 601.49 530.12C601.45 533.34 602.5 536.46 603.64 539.47C608.12 551.25 614.17 562.43 621.61 572.6C621.65 573.21 621.68 573.8 621.72 574.39Z" fill="#99685A"/>
<path d="M619.55 558.61C610.05 546.96 606.61 530.53 610.65 516.04C614.21 530.01 617.08 544.36 619.55 558.61Z" fill="#99685A"/>
<path d="M308.44 720.76C308.11 720.38 217.38 735.28 217.38 735.28C210.33 733.29 204.26 731.32 198.37 729.19C196.77 728.62 195.18 728.03 193.59 727.43C186.46 724.73 179.27 721.74 170.6 718.14C162.59 714.81 151.71 711.02 142.23 706.11C137.3 703.56 129.88 700.66 124.71 698.66C118.87 696.39 113.19 693.74 108.17 689.99C94.8403 680.05 83.4103 669.43 70.8203 658.58C66.4303 654.8 60.8203 648.88 56.8003 643.5C54.4203 640.32 52.5403 636.63 51.6303 632.78C51.0103 630.2 50.8303 627.53 51.2203 624.9C51.2303 624.82 51.2403 624.75 51.2503 624.67C52.0003 619.96 54.4903 613.22 57.0003 609.16C64.1403 597.59 69.2903 589.84 77.4203 578.95C79.0403 576.79 83.2203 573.59 85.5003 572.14C87.4203 570.92 91.6503 569.79 93.8503 569.19C102.77 566.72 109.69 564.75 118.62 562.28C122.7 561.15 126.64 560.03 130.56 558.85C136.25 557.15 141.94 555.44 147.7 554.03C176.67 546.95 206.9 547.56 236.68 548.8C239.5 548.92 242.37 549.05 244.98 550.1C248.65 551.57 251.4 554.66 253.81 557.8C262.28 568.83 268.31 581.71 271.36 595.27C271.85 597.44 272.25 599.78 271.39 601.83C270.24 604.58 267.25 605.96 264.42 607.01C263.26 602.57 261.76 598.17 260.26 593.89C259.72 592.36 259.14 590.75 257.93 589.66C255.49 587.48 251.67 588.26 248.61 589.42C240.87 592.36 233.75 596.93 227.84 602.74C225.56 604.98 223.31 608 223.31 611.96C224.61 614.13 226.02 616.23 227.54 618.25C215.62 622.45 203.45 627.43 189.59 631.59C189.57 631.6 189.55 631.6 189.53 631.61C189.65 631.75 189.78 631.88 189.9 632.02C189.9 632.02 189.9 632.02 189.91 632.03C190.37 632.54 190.83 633.04 191.29 633.54C191.6 633.88 191.92 634.21 192.23 634.54C199.46 642.16 207.33 648.8 215.45 654.31C221.69 658.54 227.17 661.02 233.41 665.25C235.41 666.61 237.41 667.94 239.43 669.27C247.76 674.76 256.2 680.07 264.36 685.82C274.24 692.79 283.02 698.05 290.79 703.8C297.37 708.66 303.23 713.87 308.44 720.76Z" fill="#FDD5C8"/>
<path d="M261.01 608.22C255.08 610.21 249.65 611.54 243.36 613.23C226.05 617.88 209.59 625.59 189.59 631.59C177.58 615.22 161.93 601.54 144.09 591.84C144.33 587.85 144.32 583.2 144.31 578.56C144.31 578.05 144.33 577.51 144.63 577.11C144.99 576.66 145.61 576.53 146.18 576.44C178 571.3 209.59 564.7 240.81 556.67C251.48 571.94 258.45 589.77 261.01 608.22Z" fill="#99685A"/>
<path d="M179.99 619.95C190.24 617.96 196.77 617.18 207.09 615.61C218.39 613.89 229.98 612.44 241.24 613.83C224.7 618.51 208.77 625.84 189.59 631.59C189.57 631.6 189.55 631.6 189.53 631.61C189.72 631.83 183.77 624.51 179.99 619.95Z" fill="#7A4A3D"/>
<path d="M213.27 719.61C213.53 722.49 215.71 726.78 198.37 729.19C196.77 728.62 195.18 728.03 193.59 727.43C186.46 724.73 179.27 721.74 170.6 718.14C162.59 714.81 151.71 711.02 142.23 706.11C137.3 703.56 129.88 700.66 124.71 698.66C118.87 696.39 113.19 693.74 108.17 689.99C94.8403 680.05 83.4103 669.43 70.8203 658.58C66.4303 654.8 60.8203 648.88 56.8003 643.5C54.4203 640.32 52.5403 636.63 51.6303 632.78C51.0103 630.2 50.8303 627.53 51.2203 624.9C57.1103 628.1 63.0103 631.29 68.9003 634.48C70.0203 635.09 71.1503 635.71 72.0403 636.62C72.9503 637.56 73.5503 638.76 74.1703 639.91C76.2403 643.72 78.8203 647.3 82.0803 650.17C89.0803 656.36 98.5403 658.81 107.61 661.07C112.26 662.23 116.92 663.39 121.62 664.32C124.89 664.98 128.2 665.53 131.36 666.61C136.93 668.51 141.82 671.97 146.61 675.38C154.81 681.21 163.01 687.05 171.2 692.88C179.34 698.67 187.51 704.49 196.48 708.88C202.03 711.6 208 713.86 212.41 718.19C212.82 718.59 213.23 719.05 213.27 719.61Z" fill="#E0AFA1"/>
<path d="M290.791 703.8C288.381 704.03 285.971 704.27 283.561 704.5C282.801 704.57 282.011 704.64 281.301 704.35C280.601 704.07 280.081 703.49 279.591 702.93C267.951 689.85 253.791 679.34 239.431 669.27C247.761 674.76 256.201 680.07 264.361 685.82C274.241 692.79 283.021 698.05 290.791 703.8Z" fill="#E0AFA1"/>
<path d="M1683.38 451.1C1685.41 449.17 1686.26 446.36 1687.59 443.9C1688.93 441.44 1691.29 439.08 1694.07 439.38C1697.41 439.75 1699.07 443.53 1700.05 446.74C1709.53 477.7 1717.47 509.12 1723.82 540.87C1724.76 545.57 1724.73 551.98 1720.15 553.4C1716.57 554.51 1713.16 551.43 1710.76 548.56C1696.21 531.16 1685.31 510.7 1679 488.91C1675.64 477.32 1671.59 462.32 1683.38 451.1Z" fill="#252E37"/>
<path d="M197.5 725.68C196.21 726.27 194.91 726.86 193.59 727.43C186.46 724.73 179.27 721.74 170.6 718.14C162.59 714.81 151.71 711.02 142.23 706.11C137.3 703.56 129.88 700.66 124.71 698.66C118.87 696.39 113.19 693.74 108.17 689.99C94.8399 680.05 83.4099 669.43 70.8199 658.58C66.4299 654.8 60.8199 648.88 56.7999 643.5C54.4199 640.32 52.5399 636.63 51.6299 632.78C58.1999 642.29 67.1799 650.02 76.0199 657.58C87.1899 667.14 98.3799 676.71 110.03 685.68C113.47 688.33 116.96 690.93 120.79 692.97C127.12 696.32 134.15 698.03 140.99 700.15C160.76 706.27 179.2 716 197.5 725.68Z" fill="#99685A"/>
<path d="M202.301 719.82C217.961 711.51 235.141 706.08 252.741 703.87C257.781 703.24 262.871 702.87 267.851 701.88C271.141 701.23 274.441 700.31 277.791 700.48C281.141 700.65 284.671 702.17 286.161 705.18C264.281 714 241.321 720.12 217.961 723.36C212.071 724.17 205.301 724.53 202.301 719.82Z" fill="#E0AFA1"/>
<path d="M113.641 563.67C115.871 564.54 118.421 566.7 121.171 568.37C126.471 571.59 132.631 573.07 138.731 574.12C151.391 576.31 164.281 576.86 177.121 576.46C185.051 576.21 193.041 575.59 200.701 573.52C204.581 572.48 208.341 571.07 212.061 569.56C217.311 567.42 222.471 565.07 227.521 562.5C229.871 561.3 232.271 560.04 234.891 559.73C239.451 559.21 243.761 561.63 247.711 563.97C241.381 565.93 235.001 567.92 229.271 571.22C225.151 573.6 221.421 576.62 217.291 578.97C209.981 583.14 201.441 585.11 193.041 584.58C188.611 584.29 184.231 583.33 179.801 583.05C174.781 582.73 169.751 583.28 164.731 583.42C145.281 583.96 125.151 577.77 111.181 564.35" fill="#7A4A3D"/>
<path d="M1702.63 525.45C1706.31 535.5 1710.69 545.45 1717.9 553.29C1600.16 590.68 1474.71 585.75 1354.49 607.71C1320.63 613.89 1287.08 622.23 1252.79 625.13C1218.5 628.04 1182.83 625.18 1151.95 610C1145.33 606.74 1138.96 597.48 1131.74 589.54C1124.58 581.67 1117.35 573.7 1112.15 564.4C1105.49 552.5 1102.46 538.97 1097.77 526.16C1088.84 501.75 1073.83 479.84 1065.77 455.13C1057.84 430.82 1056.88 404.55 1047.91 380.6C1060.06 383.47 1072.17 386.47 1084.25 389.61C1154.78 407.91 1224.14 430.72 1291.77 457.86C1306.08 463.61 1320.85 469.62 1335.96 471.67C1341.68 472.46 1347.46 472.66 1353.27 472.07C1357.06 471.71 1360.86 471.35 1364.69 470.98C1395.24 468.08 1426.96 465.07 1458.69 462.08C1469.03 461.1 1479.37 460.13 1489.71 459.15C1557.55 452.74 1625.39 446.33 1693.23 439.92C1686.65 444.82 1684.56 450.52 1684.25 456.1C1684.12 458.38 1684.26 460.65 1684.56 462.91" fill="#3E4852"/>
<path d="M1717.9 553.29C1600.16 590.68 1474.71 585.75 1354.49 607.71C1320.63 613.89 1287.08 622.23 1252.79 625.13C1218.5 628.04 1182.83 625.18 1151.95 610C1145.33 606.74 1138.96 597.48 1131.74 589.54C1124.58 581.67 1117.35 573.7 1112.15 564.4C1105.49 552.5 1102.46 538.97 1097.77 526.16C1088.84 501.75 1073.83 479.84 1065.77 455.13C1057.84 430.82 1056.88 404.55 1047.91 380.6C1060.06 383.47 1072.17 386.47 1084.25 389.61C1117.08 430.37 1149.9 471.14 1182.73 511.9C1190.69 521.78 1198.83 531.84 1209.45 538.79C1220.36 545.94 1233.22 549.39 1245.83 552.73C1280.99 562.04 1318.86 571.26 1352.97 558.61C1366.22 553.7 1378.93 545.5 1393.06 545.89C1397.4 546.01 1401.7 546.96 1406.05 547.01C1411.45 547.06 1416.76 545.73 1422.02 544.54C1485.65 530.24 1552.5 537.18 1616.36 523.98C1643.1 518.45 1669.51 509.38 1696.58 507.79C1698.12 512.59 1699.74 517.37 1701.43 522.12C1705.38 533.28 1709.89 544.58 1717.9 553.29Z" fill="#2F3943"/>
<path d="M1359.89 527.85C1360.72 533.2 1362.72 538.61 1361.5 543.89C1360.28 549.16 1353.66 553.56 1349.44 550.17C1348.08 549.08 1347.3 547.45 1346.58 545.86C1340.06 531.43 1335.32 516.2 1332.51 500.61C1327.84 513.2 1318.45 523.36 1309.28 533.17C1305.7 537 1300.53 541.17 1295.83 538.86C1295.88 524 1304.25 510.48 1313.66 498.98C1321.1 489.89 1329.46 481.38 1335.96 471.67C1341.68 472.46 1347.46 472.66 1353.27 472.07C1357.06 471.71 1360.86 471.35 1364.69 470.98C1365.35 473.09 1365.71 475.32 1365.77 477.42C1366.27 494.42 1357.27 511.04 1359.89 527.85Z" fill="#2F3943"/>
<path d="M419.25 443.19C417.84 449.9 414.91 456.3 410.77 461.7C408.42 464.77 405.68 467.52 402.61 469.81C399.45 472.17 395.93 474.05 392.12 475.31C378.11 479.94 372.07 483.59 349.74 487.91C341.52 489.5 331.18 490.45 328.16 492.07C323.98 494.32 325.03 500.9 322.97 505.18C319.98 511.41 316.93 516.54 313.69 520.91C308.08 528.5 301.91 533.78 294.55 538.51C289.99 541.43 284.96 544.14 279.33 547.04C271.55 551.05 257.99 558.64 249.28 559.52C244.08 560.05 249.08 562.25 234.29 566.92C225.72 569.63 221.23 573.84 213.4 578.28C204.88 583.12 189.39 583.24 179.64 582.21C162.85 580.45 153.09 583.83 133.97 576.03C133.81 575.96 133.64 575.9 133.48 575.83C125.02 572.36 116.54 568.47 110.1 561.99C108.75 560.63 107.41 558.96 106.11 557.1C104.06 554.17 102.13 550.76 100.46 547.33C98.62 543.54 97.1 539.73 96.13 536.54C95.01 532.87 94.02 529.21 93.17 525.57C85.06 491.19 88.96 458.45 111.94 431.96C116.47 426.74 127.5 416.3 133.25 412.47C155.55 397.65 167.33 388.08 188.46 385.63C194.56 384.92 200.46 385.53 206.25 386.65C217.92 388.89 229.14 393.2 240.56 392.93C250.99 392.68 259.28 390.9 269.33 388.05C280.23 384.96 291.05 381.12 301.2 376.08C310.42 371.51 319.08 365.95 326.73 359.07C339.2 347.87 358.17 336.18 377.14 342.2C387.93 345.62 396.62 354.03 402.39 363.78C408.15 373.52 411.28 384.58 413.78 395.63C415.98 405.36 417.75 415.19 419.07 425.08C419.87 431.1 420.5 437.25 419.25 443.19Z" fill="#FDD5C8"/>
<path d="M164.98 562.15C162.78 565.09 159.42 566.9 156.12 568.52C149.89 571.56 143.4 574.25 136.57 575.42C135.55 575.59 134.52 575.73 133.48 575.83C125.02 572.36 116.54 568.47 110.1 561.99C108.75 560.63 107.41 558.96 106.11 557.1C104.06 554.17 102.13 550.76 100.46 547.33C98.6199 543.54 97.0999 539.73 96.1299 536.54C95.0099 532.87 94.0199 529.21 93.1699 525.57C97.5499 533.18 104.5 539.32 111.48 544.85C113.91 546.78 116.42 548.7 119.34 549.76C122.26 550.81 125.69 550.89 128.32 549.23C131.47 547.23 132.97 543.13 136.36 541.58C139.17 540.3 142.5 541.16 145.24 542.58C147.99 543.99 150.46 545.94 153.37 546.99C157.6 548.53 162.94 548.33 165.66 551.91C167.88 554.84 167.18 559.21 164.98 562.15Z" fill="#EFC3B6"/>
<path d="M412 458.25C411.59 459.4 411.19 460.55 410.77 461.7C408.42 464.77 405.68 467.52 402.61 469.81C399.45 472.17 395.93 474.05 392.12 475.31C378.11 479.94 372.07 483.59 349.74 487.91C341.52 489.5 331.18 490.45 328.16 492.07C323.98 494.32 325.03 500.9 322.97 505.18C314.79 522.22 306.15 531.06 294.55 538.51C292.4 537.15 290.45 535.37 288.59 533.61C285.31 530.5 281.82 526.55 283.22 521.65C289.28 517.28 295.44 512.15 297.6 505.01C299.68 498.16 297.69 490.79 295.35 484.02C288.66 464.68 279.19 446.44 269.76 428.28C282.4 444.42 289.79 464.09 301.89 480.64C303.15 480.68 304.22 479.57 304.57 478.35C304.93 477.13 304.73 475.83 304.52 474.58C303.13 465.94 301.73 457.3 300.34 448.66C302.96 457.77 308.35 466.07 315.6 472.18C316.62 473.03 317.81 473.88 319.12 473.76C321.78 473.5 322.63 469.72 325.11 468.75C328 467.61 330.82 470.86 333.93 471.04C337.98 471.28 340.39 466.54 344.05 464.79C348.39 462.73 353.57 465.21 358.29 464.35C365.9 462.96 370.86 453.29 378.55 454.08C379.86 454.21 381.14 454.66 382.45 454.64C383.8 454.62 385.08 454.12 386.32 453.62C391.28 451.64 396.23 449.66 401.55 448.78C403.71 448.53 405.93 448.28 408.05 448.8C410.16 449.32 412.18 450.78 412.75 452.88C413.22 454.66 412.6 456.52 412 458.25Z" fill="#E0AFA1"/>
<path d="M267.14 522.71C262.91 516.68 263.16 508.63 260.43 501.8C264.19 508 268.31 513.99 272.74 519.73C273.55 520.78 274.41 522.16 273.77 523.32C273.13 524.49 271.48 524.51 270.16 524.28C269.01 524.08 267.76 523.6 267.14 522.71Z" fill="#EFC3B6"/>
<path d="M313.69 520.91C308.08 528.5 301.91 533.78 294.55 538.51C289.99 541.43 284.96 544.14 279.33 547.04C271.55 551.05 257.99 558.64 249.28 559.52C244.08 560.05 249.08 562.25 234.29 566.92C225.72 569.63 221.23 573.84 213.4 578.28C204.88 583.12 189.39 583.24 179.64 582.21C162.85 580.45 153.09 583.83 133.97 576.03C125.35 572.51 116.66 568.59 110.1 561.99C108.75 560.63 107.41 558.96 106.11 557.1C104.06 554.17 102.13 550.76 100.46 547.33C107.95 555.02 117.83 560.39 128.39 562.31C132.17 563 137.17 562.55 138.29 558.88C139.58 554.66 134.39 549.38 137.51 546.25C138.21 545.54 139.22 545.19 140.22 545.11C144.65 544.79 148.04 549.29 152.42 549.99C158.19 550.91 164.18 545.09 169.4 547.72C170.18 548.12 170.89 548.7 171.35 549.46C172.55 551.42 171.88 553.95 171.18 556.14C183.51 548.99 198.74 547.02 212.48 550.8C214.45 551.34 216.49 552 218.5 551.63C219.9 551.38 221.16 550.64 222.28 549.77C226.94 546.14 229.3 540.33 233.04 535.76C236.79 531.18 243.62 527.81 248.5 531.16C249.55 531.88 250.48 532.9 251.73 533.17C255.13 533.88 256.71 529.13 256.8 525.67C260.65 525.95 264.4 527.57 267.25 530.18C268.47 527.72 268.42 524.66 267.11 522.24C272.99 520.78 278.93 519.11 284.06 515.88C289.19 512.65 293.48 507.63 294.5 501.65C295.13 497.95 295.35 492.95 299.02 492.16C302.28 491.46 304.68 495.08 306.05 498.13C309.33 505.45 312.65 513.05 313.69 520.91Z" fill="#E0AFA1"/>
<path d="M407.01 450.4C404.8 456.69 403.46 463.2 402.61 469.81C399.45 472.17 395.93 474.05 392.12 475.31C378.11 479.94 372.07 483.59 349.74 487.91C341.52 489.5 331.18 490.45 328.16 492.07C326.33 493.06 325.51 494.87 324.98 496.95C324.3 499.64 324.13 502.77 322.97 505.18C320.87 509.56 318.74 513.39 316.53 516.8C306.78 531.89 295.6 538.65 279.33 547.04C271.55 551.05 257.99 558.64 249.28 559.52C244.08 560.05 249.08 562.25 234.29 566.92C225.72 569.63 221.23 573.84 213.4 578.28C204.88 583.12 189.39 583.24 179.64 582.21C162.85 580.45 153.09 583.83 133.97 576.03C125.35 572.51 116.66 568.59 110.1 561.99C108.75 560.63 107.41 558.96 106.11 557.1C110.88 561.2 116.47 564.44 122.33 566.71C134.37 571.36 147.51 572.33 160.42 572.11C164.33 572.05 168.57 571.75 171.52 569.17C171.92 571.92 173.96 574.98 176.7 574.54C180.09 573.99 180.36 569.06 178.91 565.94C177.46 562.82 175.16 559.43 176.48 556.26C177.65 553.47 181.03 552.45 184.01 551.97C194.02 550.36 204.37 550.95 214.13 553.67C216.53 554.34 219.08 555.14 221.45 554.38C222.89 553.92 224.09 552.92 225.14 551.84C229.38 547.41 232.18 540.75 238.16 539.35C242.93 538.23 248.73 540.87 252.43 537.66C254.89 535.52 255.82 531.14 259.07 530.9C259.99 530.83 260.89 531.15 261.78 531.38C267.3 532.79 273.59 530.24 276.57 525.38C277.26 524.27 277.84 523 278.98 522.36C279.84 521.88 280.87 521.86 281.85 521.89C286.9 522.04 291.96 523.36 296.97 522.62C301.97 521.88 307.13 518.08 307.99 513.3C310.43 497.01 310.19 480.32 307.28 464.11C308.05 467.22 308.84 470.37 310.44 473.14C312.05 475.91 314.61 478.3 317.74 478.93C320.51 479.5 323.36 478.66 326.06 477.83C353.35 469.42 380.44 460.37 407.01 450.4Z" fill="#99685A"/>
<path d="M167.17 410.05C165.16 408.4 164.82 405.33 165.7 402.89C166.58 400.45 168.43 398.49 170.27 396.65C173.89 393.04 177.9 389.47 182.85 388.24C177.59 389.14 172.55 391.28 168.24 394.42C165.55 396.39 163.03 398.94 162.31 402.19C161.59 405.45 163.35 409.4 167.17 410.05Z" fill="#99685A"/>
<path d="M140.17 506.18C137.92 509.68 138.1 514.3 139.53 518.2C140.96 522.11 143.5 525.49 145.84 528.93C149.2 533.86 152.32 539.22 152.97 545.15C153.09 546.2 153.15 547.33 153.81 548.15C154.47 548.97 156 549.14 156.47 548.2C156.63 547.88 156.63 547.51 156.62 547.15C156.41 541.72 153.44 536.84 150.57 532.24C148.57 529.03 146.57 525.83 144.56 522.62C143.05 520.2 141.52 517.74 140.6 515.04C139.68 512.33 139.41 509.3 140.17 506.18Z" fill="#EFC3B6"/>
<path d="M238.2 531.47C236.36 525.43 233.54 518.85 227.66 516.56C220.25 513.68 211.19 518.98 204.19 515.2C202.03 514.03 200.38 512.12 198.78 510.26C193.52 504.12 188.11 497.72 185.88 489.94C191.84 490.39 197.86 490.05 203.73 488.92C206.05 488.48 208.39 487.91 210.73 488.12C216.05 488.61 220.12 492.89 223.66 496.9C229.53 503.55 235.52 510.37 238.82 518.6C240.58 523.01 241.46 528.2 238.2 531.47Z" fill="#EFC3B6"/>
<path d="M176.2 542.53C189.44 543.5 202.68 544.46 215.91 545.43C216.45 545.47 217.03 545.53 217.43 545.89C217.83 546.25 217.87 547.03 217.39 547.25C217.22 547.33 217.02 547.32 216.83 547.32C205.28 546.9 193.72 546.48 182.17 545.97C179.28 545.84 176.3 545.68 173.68 544.44C174.53 543.14 176.3 542.55 176.2 542.53Z" fill="#FEE4DB"/>
<path d="M254.98 502.3C255.17 506.4 255.63 510.48 256.37 514.52C256.57 515.63 256.8 516.74 257.3 517.75C257.8 518.76 258.62 519.65 259.68 520.02C260.43 517.8 260.18 515.38 259.76 513.07C259.11 509.56 258.08 506.11 256.7 502.82C256.56 502.49 256.41 502.15 256.1 501.96C255.8 501.78 255.32 501.86 254.98 502.3Z" fill="#FEE4DB"/>
<path d="M145.34 509.55C145.99 503.03 148.66 496.72 152.89 491.71C153.3 491.22 153.74 490.73 153.94 490.13C154.14 489.53 154.06 488.78 153.55 488.39C152.74 487.76 151.58 488.44 150.84 489.14C146.09 493.61 143.2 500.01 143.01 506.54C142.96 508.22 143.39 510.31 145.02 510.73C145.2 510.43 145.29 510.13 145.34 509.55Z" fill="#FEE4DB"/>
<path d="M219.65 538.08C218.21 535.66 217.69 532.71 218.22 529.94C218.74 527.17 220.3 524.61 222.52 522.88C223.34 522.24 224.33 521.56 224.39 520.52C224.45 519.41 223.28 518.53 222.16 518.53C221.04 518.53 220.03 519.15 219.14 519.82C217.11 521.34 215.3 523.33 214.67 525.78C214.35 527.01 214.36 528.31 214.41 529.58C214.53 532.48 215.04 535.61 217.13 537.63C217.51 538 217.99 538.33 218.52 538.3C219.05 538.27 219.54 537.69 219.65 538.08Z" fill="#FEE4DB"/>
<path d="M257.46 436.63C264.16 447.57 270.87 458.51 277.57 469.45C280.05 473.49 282.55 477.6 283.9 482.14C285.25 486.69 285.33 491.81 283.08 495.98C281.84 498.28 279.9 500.31 279.47 502.89C279.04 505.47 281.39 508.66 283.8 507.64C284.48 507.35 285.01 506.79 285.48 506.22C289.36 501.56 291.34 495.37 290.91 489.32C290.5 483.62 288.07 478.28 285.57 473.14C279.71 461.12 273.23 449.41 266.3 437.98C265.31 436.35 264.25 434.66 262.64 433.64C261.03 432.62 258.69 432.47 257.34 433.83C256.01 435.2 256.65 438.09 257.46 436.63Z" fill="#FEE4DB"/>
<path d="M373.87 392.68C352.63 392.15 331.34 393.38 310.3 396.36C308.43 396.62 306.2 396.77 304.99 395.32C323.02 386.42 342.42 380.31 362.29 377.27C363.79 377.04 365.39 376.85 366.74 377.53C367.98 378.16 368.75 379.41 369.46 380.6C371.18 383.49 372.9 386.38 374.62 389.27C375.53 390.78 375.96 392.73 373.87 392.68Z" fill="#FEE4DB"/>
<path d="M318.68 459.92C330.39 458.23 342.07 456.37 353.73 454.37C357.03 453.8 360.38 453.21 363.41 451.76C364.65 451.17 365.99 450.09 365.75 448.74C365.55 447.59 364.31 446.97 363.21 446.6C357.3 444.61 350.93 444.66 344.74 443.87C338.58 443.09 332.35 441.46 326.25 442.65C320.16 443.84 314.21 449.09 314.97 455.25C315.27 457.7 317.1 460.14 318.68 459.92Z" fill="#FEE4DB"/>
<path d="M244.68 517.45C245.47 510.29 246.26 503.1 245.98 495.9C245.94 494.76 245.88 493.54 246.43 492.54C246.69 492.07 247.07 491.67 247.51 491.35C248.86 490.36 250.75 490.17 252.27 490.87C253.79 491.57 254.87 493.14 254.99 494.8C253.11 495.42 250.83 494.64 249.21 495.78C248.1 496.56 247.68 498.02 247.71 499.37C247.74 500.72 248.13 502.04 248.3 503.38C248.86 507.9 246.88 512.3 244.68 517.45Z" fill="#EFC3B6"/>
<path d="M182.78 400.07C179.79 400.5 176.79 401.27 174.27 402.93C171.75 404.59 169.76 407.24 169.47 410.24C169.45 410.44 169.44 410.64 169.5 410.84C169.67 411.38 170.35 411.6 170.92 411.56C172.24 411.48 173.36 410.55 174.21 409.53C175.05 408.51 175.74 407.34 176.73 406.47C177.07 406.17 177.5 405.9 177.94 406.01C178.62 406.19 178.73 407.09 178.7 407.79C178.64 409.37 178.57 410.95 178.51 412.53C179.59 413.03 180.65 411.81 181.17 410.74C182.69 407.61 183.68 404.21 184.07 400.75C184.11 400.41 184.12 400.01 183.85 399.79C183.67 399.64 183.42 399.63 183.18 399.64C182.23 399.68 181.3 399.89 182.78 400.07Z" fill="#EFC3B6"/>
<path d="M216.18 412.33C218.02 416.69 223.83 417.34 228.57 417.32C233.38 417.3 238.19 417.28 243 417.26C249.37 417.23 256.05 417.28 261.63 420.36C266.46 423.02 269.87 427.64 272.89 432.26C280.42 443.81 286.5 456.31 290.93 469.37C292.01 472.54 293.07 475.89 295.49 478.21C297.91 480.53 302.17 481.31 304.52 478.91C305.93 477.47 306.28 475.33 306.57 473.33C307.47 467.01 308.37 460.63 307.82 454.27C307.27 447.91 305.13 441.49 300.7 436.9C297.59 433.68 293.55 431.55 289.56 429.51C284.53 426.94 279.47 424.45 274.38 422.02C269.25 419.57 264.03 417.18 258.46 416.03C244.23 413.1 228.48 418.43 216.18 412.33Z" fill="#EFC3B6"/>
<path d="M299.13 417.92C307.28 415.15 315.93 413.68 324.51 414.24C330.4 414.62 336.18 415.95 341.94 417.28C349.48 419.02 357.02 420.75 364.56 422.49C377.03 425.36 389.88 428.4 400.2 435.97C400.7 436.34 401.21 436.73 401.52 437.27C402.45 438.87 401.14 441.02 399.41 441.65C397.67 442.28 395.75 441.87 393.95 441.44C362.39 433.98 330.84 426.54 299.13 417.92Z" fill="#EFC3B6"/>
<path d="M186.02 523.38L183.95 526.67C183.95 526.67 190.95 524.5 192.38 523.38C193.06 522.85 193.46 522.02 193.65 521.19C194.4 518.01 192.54 514.84 190.67 512.15C190.25 511.55 189.81 510.94 189.16 510.6C187.55 509.75 185.57 510.97 183.78 510.63C181.95 510.28 180.14 507.94 178.59 508.98C176.81 510.18 180.54 515.6 182.91 518.61C184.2 520.23 186.02 523.38 186.02 523.38Z" fill="#E0AFA1"/>
<path d="M395.93 422.88C378.95 420.48 362.35 415.43 346.91 407.98C346.55 407.81 346.18 407.62 345.97 407.28C345.46 406.45 346.28 405.43 347.1 404.91C349.77 403.23 353.08 403.04 356.23 402.82C364.59 402.22 372.9 400.97 381.06 399.08C384.01 398.4 387.09 397.63 390.03 398.38C392.54 399.02 394.68 400.72 396.35 402.71C400.43 407.56 402.02 414.06 402.47 420.38C402.51 420.94 402.54 421.54 402.3 422.05C401.71 423.3 399.98 423.37 398.6 423.25C396.65 423.06 394.71 422.89 395.93 422.88Z" fill="#EFC3B6"/>
<path d="M165.98 520.76C166.7 524.78 169.35 528.41 173.13 530.94C169.15 531.43 165.33 533.15 162.33 535.8C160.98 536.99 159.55 538.46 157.76 538.37C159.49 536.18 161.27 533.91 162.04 531.22C163.3 526.82 161.68 522.19 160.47 517.77C159.27 513.39 158.47 508.83 159.02 504.33C159.57 499.83 161.6 495.36 165.21 492.62C163.31 496.04 161.45 499.59 160.93 503.46C160.57 506.1 160.85 508.78 161.23 511.42C161.52 513.41 161.87 515.41 162.71 517.24C163.54 519.05 164.92 520.7 165.98 520.76Z" fill="#E0AFA1"/>
<path d="M301.2 376.08C295.99 380.2 290.1 383.59 284.13 386.45C260.13 397.95 231.34 402.48 206.89 391.94C206.83 390.7 206 388.46 206.25 386.65C217.92 388.89 229.14 393.2 240.56 392.93C250.99 392.68 259.28 390.9 269.33 388.05C280.23 384.96 291.05 381.12 301.2 376.08Z" fill="#EFC3B6"/>
<path d="M181.73 413.17C182.89 408.27 186.09 403.89 190.41 401.29C191.43 400.68 192.59 400.15 193.76 400.36C195.48 400.68 196.51 402.48 196.91 404.19C197.2 405.43 197.4 406.9 198.51 407.53C198.14 405.72 197.78 403.91 197.41 402.09C197.13 400.71 196.82 399.26 195.93 398.17C194.93 396.95 193.35 396.37 191.83 395.94C190.8 395.65 189.73 395.4 188.67 395.48C186.6 395.64 184.77 397.05 183.67 398.81C182.57 400.57 182.1 402.66 181.83 404.72C181.43 407.56 181.39 410.43 181.73 413.17Z" fill="#99685A"/>
<path d="M185.3 522.49C186.33 522.79 187.66 522.52 188.09 521.54C188.57 520.45 187.67 519.21 186.64 518.61C185.61 518.01 184.38 517.71 183.51 516.9C182.62 516.06 181.97 514.64 180.74 514.69C180.06 514.71 184.27 522.19 185.3 522.49Z" fill="#99685A"/>
<path d="M166.3 552.77C162.79 555.88 158.12 557.76 153.44 557.47C148.77 557.18 144.19 554.55 141.98 550.43C149.56 553.52 158.14 554.08 166.3 552.77Z" fill="#99685A"/>
<path d="M224.66 538.26C223.95 536.21 223.25 533.89 224.24 531.95C224.74 530.96 225.63 530.22 226.15 529.24C226.67 528.26 226.64 526.8 225.64 526.31C225.04 526.01 224.28 526.2 223.76 526.64C223.25 527.07 222.95 527.71 222.75 528.35C221.71 531.73 223.2 535.36 224.66 538.26Z" fill="#99685A"/>
<path d="M378.32 439.58C371.37 439.22 364.43 438.77 357.49 438.24C356.82 438.19 356.08 438.1 355.64 437.6C355.25 437.15 355.21 436.5 355.04 435.93C354.08 432.84 349.77 432.94 346.55 433.2C341.18 433.62 335.72 432.66 330.81 430.44C330.92 429.65 331.02 428.87 331.13 428.08C319.8 426.73 308.71 423.47 298.45 418.49C299.68 417.53 301.44 417.84 302.96 418.19C323.64 422.92 344.67 426.11 365.82 427.7C371.83 428.15 378.01 428.52 383.48 431.05C389.38 433.78 393.96 438.82 399.79 441.7C391.34 440.88 382.91 439.82 378.32 439.58Z" fill="#E0AFA1"/>
<path d="M237.95 536.77C239.36 535.98 240.81 535.17 242.42 534.96C244.17 534.74 245.95 535.26 247.7 535C247.93 534.97 248.16 534.92 248.35 534.79C248.85 534.45 248.86 533.68 248.61 533.13C248.03 531.84 246.45 531.21 245.04 531.39C243.63 531.57 242.4 532.41 241.36 533.38C240.33 534.35 239.44 535.47 237.95 536.77Z" fill="#99685A"/>
<path d="M259.86 532.98C260.66 531.37 260.24 529.38 259.35 527.82C258.46 526.26 257.14 524.98 256.02 523.58C254.12 521.21 252.73 518.42 252.13 515.44C251.65 513.02 251.69 510.53 251.23 508.1C250.73 505.5 249.66 503.06 248.75 500.58C248.61 500.2 248.48 499.79 248.57 499.4C248.81 498.38 250.41 498.32 251.1 499.11C251.79 499.9 251.82 501.05 251.81 502.1C251.78 505.41 251.74 508.73 251.71 512.04" stroke="#99685A" stroke-miterlimit="10"/>
<path d="M251.03 506.73C250.44 505.06 249.85 503.38 249.26 501.71C249.07 501.16 248.87 500.59 248.92 500.01C248.97 499.43 249.33 498.84 249.9 498.71C250.58 498.55 251.24 499.13 251.5 499.77C251.8 500.5 251.75 501.32 251.7 502.11C251.59 503.65 251.49 505.18 251.03 506.73Z" fill="#99685A"/>
<path d="M401.61 448.82C399.14 448.43 396.68 448.05 394.21 447.66C393.61 447.57 392.98 447.46 392.48 447.1C391.81 446.61 391.53 445.76 391.11 445.03C389.32 441.93 385.16 441.39 381.59 441.2C376.69 440.93 371.8 440.67 366.9 440.4C367.87 439.49 368.84 438.57 369.81 437.66C360.19 432.77 349.73 429.82 339.35 426.9C361.39 431.08 383.43 435.27 405.48 439.45C403.37 440.33 402.32 443.14 403.34 445.18C403.95 446.4 405.19 447.65 404.62 448.89C403.99 450.27 401.93 449.87 401.61 448.82Z" fill="#99685A"/>
<path d="M168.41 419.43C164.29 417.92 160.8 414.79 158.85 410.86C158.02 409.19 157.46 407.31 157.8 405.48C158 404.39 158.52 403.38 159.12 402.45C158.25 405.49 159.35 408.83 161.31 411.31C163.27 413.79 166 415.54 168.76 417.07C168.77 417.98 168.77 418.89 168.41 419.43Z" fill="#E0AFA1"/>
<path d="M191.67 412.72C193.31 413.14 195.02 413.26 196.7 413.09C196.9 413.07 197.13 413.03 197.25 412.87C197.5 412.56 197.18 412.12 196.85 411.9C195.36 410.91 193.4 411.16 191.63 411.45C191.37 411.49 191.07 411.56 190.92 411.78C190.77 412 190.92 412.53 191.67 412.72Z" fill="#E0AFA1"/>
<path d="M198.75 407.98C199.11 408.89 199.47 409.81 199.83 410.72C200.01 411.19 200.3 411.74 200.8 411.77C201.17 411.8 201.5 411.5 201.64 411.16C201.77 410.82 201.75 410.43 201.69 410.07C201.48 408.68 200.88 407.35 199.97 406.28C199.91 406.21 199.85 406.14 199.76 406.12C199.58 406.08 199.44 406.25 199.36 406.41C199.04 407.02 198.98 407.76 198.75 407.98Z" fill="#E0AFA1"/>
<path d="M204.88 389.48C208.3 392.36 211.77 395.29 214.33 398.97C216.89 402.65 218.48 407.21 217.69 411.62C217.62 412.03 217.52 412.45 217.27 412.78C216.73 413.51 215.67 413.61 214.78 413.46C213.89 413.31 213 412.97 212.25 413.19C211.93 411.98 213.33 411.1 214.01 410.05C214.53 409.25 214.65 408.26 214.66 407.3C214.69 403.89 213.47 400.55 211.63 397.68C209.78 394.82 207.35 392.38 204.88 389.48Z" fill="#E0AFA1"/>
<path d="M395.78 417.78C383.25 414.52 370.83 410.83 358.55 406.72C370.01 406.84 381.47 407.05 392.93 407.34C393.23 407.35 393.55 407.36 393.8 407.52C394.12 407.72 394.27 408.1 394.4 408.45C395.52 411.78 395.67 415.43 395.78 417.78Z" fill="#E0AFA1"/>
<path d="M169.51 493.34C163.59 499.2 162.16 507.54 164.89 515.41C166.04 518.74 168.27 522 171.64 523.03" stroke="#E0AFA1" stroke-miterlimit="10" stroke-linecap="round" stroke-linejoin="round"/>
<path d="M178.21 510.56C175.67 504.68 172.82 498.93 169.68 493.35" stroke="#E0AFA1" stroke-miterlimit="10" stroke-linecap="round" stroke-linejoin="round"/>
<path d="M180.49 530.51C175.01 528.29 170.29 524.23 167.28 519.14C166.46 517.74 165.74 516.21 165.75 514.58C167.14 515.42 167.76 517.07 168.48 518.53C170.17 521.93 172.89 524.81 176.2 526.69C177.97 527.69 180.03 528.54 180.49 530.51Z" fill="#99685A"/>
<path d="M324.98 496.95C324.3 499.64 324.13 502.77 322.97 505.18C320.87 509.56 318.74 513.39 316.53 516.8C316.37 516.81 316.22 516.8 316.06 516.78C314.18 516.48 313.79 513.98 313.84 512.07C314.07 502.8 313.62 493.52 312.47 484.32C312.28 482.78 312.27 480.81 313.67 480.12C317.92 485.38 321.71 491.02 324.98 496.95Z" fill="#BA8677"/>
<path d="M1583.67 717.5C1575.5 697.84 1576.8 678.25 1577.97 656.84C1578.49 647.35 1580.04 637.64 1584.8 629.55C1586.86 626.04 1590.4 622.57 1594.2 623.63C1596.34 624.22 1597.9 626.14 1599.13 628.07C1603.62 635.17 1605.44 643.71 1607.18 652.04C1611.66 673.52 1616.17 695.46 1613.83 717.31C1613.3 722.27 1612.34 727.39 1609.44 731.35C1606.55 735.31 1601.23 737.71 1596.87 735.71C1594.52 734.63 1592.78 732.48 1591.33 730.26C1588.68 726.23 1581.68 719.65 1583.67 717.5Z" fill="#313B45"/>
<path d="M1600.75 739.61C1599.94 739.72 1599.12 739.83 1598.31 739.94C1517.94 750.75 1438.55 761.5 1359.16 772.26C1305.61 775.09 1250.41 781.64 1195.82 791.57C1177.58 794.88 1158.68 798.57 1140.71 794C1118.95 789.14 1093.17 789.8 1071.42 778.72C1062.37 774.1 1054.4 767.62 1046.93 760.73C1009.08 725.83 982.991 680.14 951.041 639.84C944.941 632.15 938.631 624.66 931.981 617.47C926.921 612 921.671 606.72 916.171 601.66C904.191 590.64 897.601 577.11 892.491 563.73C890.041 557.33 888.401 550.66 886.781 544.01C878.951 511.97 871.311 479.74 868.301 446.89C868.131 444.99 867.971 443.09 867.831 441.19C867.051 431.13 866.671 421.04 866.391 410.96C865.681 386.15 865.651 360.82 873.161 337.16C875.301 330.42 878.161 323.8 881.691 317.59C889.911 303.12 901.781 290.84 916.781 284.28C917.941 283.76 919.111 283.29 920.311 282.85C962.811 269.36 1016.43 286.79 1043.7 325.28C1051.12 335.75 1056.65 347.42 1062.14 359.03C1088.43 424.87 1114.73 491.15 1141.04 557.42C1148.84 580.7 1159.42 604.77 1171.25 628.28C1171.61 629.01 1171.97 629.73 1172.34 630.46C1172.72 630.44 1173.11 630.42 1173.49 630.4C1232.15 627.29 1289.1 608.99 1347.35 610.31C1428.44 620.23 1511.78 621.25 1594.95 622.26C1589.98 623.25 1587.82 629.95 1587.17 635.32C1586.08 644.37 1585.4 653.46 1585.14 662.57C1584.78 675.18 1585.23 687.81 1586.48 700.36C1586.69 702.5 1586.92 704.63 1587.18 706.76C1588.64 718.82 1591.42 731.83 1600.75 739.61Z" fill="#495760"/>
<path d="M1600.75 739.61C1519.55 750.53 1439.35 761.39 1359.16 772.26C1305.61 775.09 1250.41 781.64 1195.82 791.57C1177.58 794.88 1158.68 798.57 1140.71 794C1118.95 789.14 1093.17 789.8 1071.42 778.72C1062.37 774.1 1054.4 767.62 1046.93 760.73C1009.08 725.83 982.99 680.14 951.04 639.84C944.94 632.15 938.63 624.66 931.98 617.47C932.34 614.06 932.97 610.68 933.91 607.33C938.68 612.91 944.38 617.56 948.43 622.6C950.17 624.76 951.9 626.92 953.63 629.08C971.1 650.82 988.57 672.55 1006.04 694.29C1015.93 706.6 1025.84 718.94 1036.9 730.2C1045.04 738.48 1053.85 746.21 1063.88 752.03C1097.68 771.65 1139.69 767.17 1182.31 762.93C1246.17 767 1308.92 746.93 1372.63 740.92C1411.06 737.3 1450 738.79 1488.01 732.05C1522.03 726.02 1554.47 713.54 1586.48 700.36C1586.69 702.5 1586.92 704.63 1587.18 706.76C1588.64 718.82 1591.42 731.83 1600.75 739.61Z" fill="#3A474F"/>
<path d="M1188.37 708.84C1174.74 700.32 1177.05 678.84 1166.15 667.02C1165.92 691.41 1163.52 715.77 1158.98 739.73C1155.16 737.02 1153.79 732.05 1152.94 727.44C1149.12 706.92 1150.28 685.49 1156.3 665.51C1140.38 676.53 1131.19 694.67 1122.65 712.05C1118.17 707.99 1119.44 700.73 1121.44 695.02C1130.76 668.41 1148.41 644.8 1171.25 628.28C1171.61 629.01 1171.97 629.73 1172.34 630.46C1172.72 630.44 1173.11 630.42 1173.49 630.4C1172.19 635.91 1173.17 641.43 1174.31 646.47C1177.27 659.58 1180.71 672.59 1184.64 685.45C1186.96 693.07 1189.48 700.95 1188.37 708.84Z" fill="#3A474F"/>
<path d="M953.63 629.08C952.91 632.69 952.02 636.27 951.04 639.84C944.94 632.15 938.63 624.66 931.98 617.47C926.92 612 921.67 606.72 916.17 601.66C904.19 590.64 897.6 577.11 892.49 563.73C890.04 557.33 888.4 550.66 886.78 544.01C878.95 511.97 871.31 479.74 868.3 446.89C868.13 444.99 867.97 443.09 867.83 441.19C867.97 427.84 868.43 414.48 868.93 401.16C869.9 375.23 871.09 348.92 879.23 324.29C879.97 322.05 880.79 319.81 881.69 317.59C887.86 302.45 898.17 288.46 917.06 282.68C916.97 283.21 916.87 283.74 916.78 284.28C911.34 315.13 906.19 347.22 915 377.23C917.74 386.56 921.82 395.71 922.04 405.43C922.24 414.46 919.08 423.18 917.1 432C906.83 477.78 928.41 523.83 945.38 567.58C950.29 580.23 954.89 593.25 955.58 606.81C955.96 614.3 955.13 621.73 953.63 629.08Z" fill="#3A474F"/>
<path d="M965.26 330.55C950.92 339.15 946.93 358.56 949.5 375.09C952.08 391.61 959.64 406.99 962.84 423.41C965.44 436.73 965.12 450.46 967.21 463.87C969.36 477.62 974.01 490.84 978.63 503.96C994.06 547.74 1009.59 591.73 1031.72 632.53C1037.4 643.01 1043.56 653.35 1047.19 664.7C1049.96 673.34 1051.38 682.76 1056.95 689.93C1062.52 697.09 1074.44 700.44 1080.51 693.7C1084.64 689.11 1084.28 682.17 1083.68 676.03C1079.61 634.6 1075.54 593.18 1071.47 551.75C1069.19 528.54 1066.89 505.19 1060.8 482.68C1050.18 443.41 1028.15 406.84 1025.76 366.23C1025.25 357.59 1025.56 348.49 1021.5 340.84C1016.52 331.47 1005.66 326.27 995.06 325.83C984.47 325.37 972.95 325.94 965.26 330.55Z" fill="#576975"/>
<path d="M1206.33 698.1C1204.72 704.32 1205.71 711.63 1210.43 715.99C1217.79 722.78 1229.41 719.5 1239.11 717.01C1260.88 711.42 1283.69 712 1306.15 712.52C1378.49 714.18 1453.02 714.39 1520.22 687.57C1527.6 684.63 1536.05 679.59 1535.85 671.65C1535.6 661.75 1522.87 658.12 1513 657.31C1487.2 655.19 1461.4 653.08 1435.6 650.96C1387.64 647.03 1339.41 643.09 1291.47 647.19C1272.11 648.84 1252.86 651.81 1233.89 656.05C1226.05 657.81 1217.68 660.13 1212.63 666.39C1205.29 675.49 1208.7 688.95 1206.33 698.1Z" fill="#576975"/>
<path d="M921.19 610.81C918.47 613.11 914.48 613.05 910.99 612.35C907.5 611.65 904.01 610.43 900.47 610.86C898.22 611.13 896.09 612.06 893.86 612.49C887.1 613.78 880.45 610.38 873.7 609.05C867.49 607.83 861.09 608.37 854.78 608.8C839.89 609.82 824.86 610.16 810.1 607.95C796.27 605.88 782.31 601.56 770.18 604.63C714.49 601.51 658.71 618.5 606.61 613.45C598.95 613.06 591.3 613.08 583.65 613.37C544.13 614.86 504.64 623.53 465.22 619.97C450.93 618.68 436.8 615.76 423.16 611.33C413.55 608.2 404.19 604.33 395.19 599.73C392.5 598.35 389.7 596.88 386.68 596.92C384.36 596.96 382.16 597.9 380.04 598.82C344.92 614.04 309.8 629.26 275.06 643.77C271.68 643.89 268.28 643.53 264.98 642.74C262.06 642.04 259.23 640.99 256.56 639.62C258.13 638.68 259.2 637.28 259.91 635.64C261.01 633.19 261.32 630.22 261.39 627.49C261.58 619.59 260.91 611.67 259.4 603.91C257.02 591.65 252.59 579.79 246.27 569.03C245.06 566.98 243.91 564.04 245.75 562.52C246.21 562.14 246.8 561.94 247.37 561.75C263.71 556.21 279.91 549.62 293.96 539.59C308 529.56 319.87 515.78 325.06 499.32C325.24 498.75 325.41 498.17 325.61 497.6C325.63 497.54 325.65 497.48 325.67 497.42C325.74 497.22 325.81 497.03 325.89 496.84C325.95 496.69 326.01 496.54 326.07 496.39C326.13 496.26 326.19 496.13 326.25 496.01C326.37 495.75 326.5 495.5 326.65 495.26C326.69 495.19 326.73 495.12 326.78 495.05C326.88 494.88 327 494.72 327.12 494.56C327.25 494.39 327.39 494.23 327.54 494.08C327.67 493.94 327.81 493.81 327.95 493.68C327.99 493.64 328.03 493.6 328.07 493.57C328.2 493.46 328.34 493.35 328.48 493.25C328.6 493.15 328.73 493.06 328.86 492.98C328.94 492.92 329.02 492.87 329.11 492.82C329.4 492.64 329.7 492.48 330.01 492.34C330.28 492.21 330.57 492.09 330.86 491.98C331.15 491.87 331.45 491.77 331.75 491.68C332.01 491.6 332.28 491.53 332.55 491.46C332.9 491.37 333.25 491.29 333.61 491.22C334.08 491.13 334.55 491.04 335.02 490.97C335.5 490.89 335.97 490.82 336.43 490.75C358.37 487.62 379.89 481.46 400.17 472.51L400.6 472.34C405.13 458.31 402.13 458.12 399.59 443.6C397.05 429.08 392.06 415.11 386.73 401.36C382.74 391.06 378.26 380.43 369.88 373.23C369.41 372.83 368.94 372.44 368.45 372.07C367.97 371.7 367.47 371.34 366.97 370.99C366.61 370.74 366.24 370.49 365.86 370.26C365.62 370.09 365.38 369.94 365.13 369.8C365.09 369.77 365.05 369.74 365.01 369.72C364.78 369.58 364.55 369.44 364.31 369.31C364.3 369.31 364.3 369.3 364.29 369.3C363.89 369.06 363.48 368.83 363.06 368.62C362.52 368.33 361.98 368.05 361.42 367.8C360.87 367.53 360.31 367.28 359.75 367.06C359.19 366.81 358.62 366.58 358.04 366.38C353.15 364.54 347.91 363.55 342.7 363.26C333.8 362.77 324.92 364.17 315.12 365.86C316.79 362.97 318.73 359.82 320.76 357.86L320.77 357.85C344.99 334.36 370.84 312.56 398.07 292.65C408.68 284.9 419.71 277.35 431.14 270.93C431.36 270.81 431.58 270.68 431.8 270.57C446.73 262.23 462.33 255.87 478.53 253.53C495.13 252.64 511.79 252.88 528.36 254.23C559.12 256.73 589.57 263.06 618.75 273.07C636.79 279.27 654.36 286.85 672.69 292.12C705.62 301.58 739.77 303.27 774.01 300.71C784.19 299.95 794.38 298.82 804.55 297.4C825.29 294.51 845.94 290.44 866.24 285.98C884.01 282.08 902.34 277.87 920.96 281.27C904.92 293.1 895.04 312.85 895.18 332.78C895.33 353.2 905.29 373.04 902.86 393.32C902.8 393.85 902.72 394.38 902.64 394.91C901.32 403.67 897.95 412.08 896.99 420.9C895.93 430.59 897.81 440.37 897.53 450.11C897.23 460.53 894.46 470.76 894.17 481.17C893.91 490.45 895.62 499.66 897.38 508.78C900.8 526.39 904.46 543.95 908.5 561.35C912.36 578.03 916.56 594.55 921.19 610.81Z" fill="#709EB8"/>
<path d="M812.77 376.48C796.88 352.89 783.84 327.39 774.01 300.71C784.19 299.95 794.38 298.82 804.55 297.4C803.33 323.76 808.05 350.36 812.77 376.48Z" fill="#4E768F"/>
<path d="M921.19 610.81C918.47 613.11 914.48 613.05 910.99 612.35C907.5 611.65 904.01 610.43 900.47 610.86C898.22 611.13 896.09 612.06 893.86 612.49C887.1 613.78 880.45 610.38 873.7 609.05C867.49 607.83 861.09 608.37 854.78 608.8C839.89 609.82 824.86 610.16 810.1 607.95C796.27 605.88 782.31 601.56 770.18 604.63C714.49 601.51 658.71 618.5 606.61 613.45C598.95 613.06 591.3 613.08 583.65 613.37C574.33 608.54 566.88 600.67 560.73 592.15C544.07 569.09 535.85 540.07 537.91 511.7C539.03 496.39 545.11 478.98 559.71 474.25C569.09 471.21 579.41 474.45 588 479.28C596.6 484.11 600.79 491.04 609.71 495.23C611.44 494.48 616.32 491.99 620.44 493.66C599.25 437.9 584.49 397.6 565.18 339.81C573.96 355.06 582.73 370.32 591.51 385.57C593.13 388.4 594.92 391.39 597.85 392.84C600.82 394.32 604.35 393.89 607.64 393.4C638.25 388.76 668.37 380.81 697.28 369.72C694.15 389.26 694.21 409.3 697.44 428.82C698.76 436.81 701.14 445.52 707.93 449.94C713.05 453.28 719.55 453.41 725.66 453.27C748.98 452.73 772.25 449.86 795 444.73C796.5 452.33 795.31 460.18 795.7 467.92C796.1 475.66 798.63 484.05 805.23 488.11C808.93 490.39 813.4 490.98 817.73 491.23C837.61 492.37 859.67 485.81 869.88 468.71C877.66 455.69 877.08 439.45 881.69 425C885.47 413.19 892.89 402.58 902.64 394.91C901.32 403.67 897.95 412.08 896.99 420.9C895.93 430.59 897.81 440.37 897.53 450.11C897.23 460.53 894.46 470.76 894.17 481.17C893.91 490.45 895.62 499.66 897.38 508.78C900.8 526.39 904.46 543.95 908.5 561.35C912.36 578.03 916.56 594.55 921.19 610.81Z" fill="#4E768F"/>
<path d="M463.68 558.9C459.29 570.92 451.24 581.22 442.87 590.91C436.7 598.05 430.22 605.05 423.16 611.33C413.55 608.2 404.19 604.33 395.19 599.73C392.5 598.35 389.7 596.88 386.68 596.92C384.36 596.96 382.16 597.9 380.04 598.82C344.92 614.04 309.3 611.26 274.56 625.77C271.18 625.89 261.32 630.22 261.39 627.49C261.58 619.59 260.91 611.67 259.4 603.91C258.54 599.47 257.41 595.08 256.01 590.78C255.69 589.79 255.36 588.8 255 587.82C252.69 581.3 249.77 574.99 246.27 569.03C245.06 566.98 243.25 563.52 243.25 563.52C243.25 563.52 246.8 560.18 247.37 560C264.47 554.74 277.28 546.5 294.71 538.34C301.39 535.21 316.85 518.91 322.75 504.9C322.87 504.62 322.97 504.37 323.06 504.14C323.55 502.87 323.65 502.18 324.06 500.32C324.19 499.74 324.46 498.15 324.61 497.6C324.94 496.37 325.68 494.21 326.37 493.31C328.15 490.99 333.67 490.36 334.68 490.25C334.76 490.24 334.84 490.23 334.92 490.22C358.04 487.68 399.85 471.84 399.85 471.84C402.09 464.89 402.93 461.63 402.65 458.19C402.58 457.31 402.44 456.41 402.23 455.44C402.19 455.24 402.14 455.03 402.09 454.81C402.01 454.5 401.94 454.19 401.86 453.87C401.82 453.7 401.78 453.54 401.74 453.37C401.66 453.04 401.57 452.7 401.48 452.34C401.41 452.08 401.35 451.81 401.28 451.53C401.21 451.25 401.14 450.97 401.07 450.67C401.02 450.48 400.98 450.28 400.93 450.08C400.87 449.83 400.8 449.56 400.74 449.29C400.69 449.09 400.65 448.88 400.6 448.67C400.27 447.21 399.93 445.54 399.59 443.6C397.05 429.08 392.06 415.11 386.73 401.36C382.74 391.06 378.26 380.43 369.88 373.23C369.41 372.83 368.94 372.44 368.45 372.07C367.97 371.7 367.47 371.34 366.97 370.99C366.61 370.73 366.24 370.49 365.86 370.26C365.65 370.12 365.44 369.98 365.22 369.86C365.19 369.83 365.16 369.82 365.13 369.8C365.09 369.77 365.05 369.74 365.01 369.72C364.78 369.58 364.55 369.44 364.31 369.31C364.3 369.31 364.3 369.3 364.29 369.3C364.27 369.29 364.26 369.28 364.24 369.27C363.86 369.04 363.45 368.83 363.06 368.62C362.52 368.33 361.98 368.05 361.42 367.8C360.87 367.53 360.31 367.28 359.75 367.06C359.19 366.81 358.62 366.58 358.04 366.38C353.15 364.54 347.91 363.55 342.7 363.26C342.25 363.24 341.79 363.22 341.34 363.21C341.1 363.2 340.86 363.19 340.62 363.19C340.41 363.19 340.19 363.18 339.98 363.18C337.09 363.14 334.28 363.32 331.44 363.74H331.43C329.88 363.97 328.31 364.28 326.72 364.65C325.66 364.9 324.59 365.19 323.5 365.51C320.23 366.48 316.8 367.76 313.09 369.39C313.71 368.35 314.39 367.13 315.12 365.86C316.37 363.69 317.78 361.38 319.26 359.53C319.4 359.35 319.54 359.18 319.69 359.02C320.04 358.6 320.4 358.21 320.76 357.86L320.77 357.85C344.99 334.36 370.84 312.56 398.07 292.65C408.68 284.9 419.71 277.35 431.14 270.93C415.23 308.96 421.99 353.81 434.15 393.78C447.31 437.06 466.36 479.49 468 524.7C468.42 536.25 467.65 548.04 463.68 558.9Z" fill="#4E768F"/>
<path d="M411.4 459.81C410.8 469.17 407.37 478.7 400.33 484.89C393.96 490.49 385.44 492.8 377.24 494.94C365.05 498.13 352.78 501.34 340.21 502.3C336.56 502.59 332.2 502.78 328.68 503.78C326.24 504.47 324.38 504.82 323 504.9C323.12 504.61 323.13 504.36 323.06 504.14C323.55 502.87 323.65 502.18 324.06 500.32C324.19 499.74 324.46 498.15 324.61 497.6C324.94 496.37 325.68 494.21 326.37 493.31C328.15 490.99 333.67 490.36 334.68 490.25C357.75 487.79 399.85 471.84 399.85 471.84C402.09 464.89 402.93 461.63 402.65 458.19C402.66 457.49 402.52 456.69 402.23 455.44C402.19 455.24 402.14 455.03 402.09 454.81C402.01 454.5 401.94 454.19 401.86 453.87C401.82 453.7 401.78 453.54 401.74 453.37C401.66 453.04 401.57 452.7 401.48 452.34C401.41 452.08 401.35 451.81 401.28 451.53C401.21 451.25 401.14 450.97 401.07 450.67C401.02 450.48 400.98 450.28 400.93 450.08C400.87 449.83 400.8 449.56 400.74 449.29C400.69 449.09 400.65 448.88 400.6 448.67C400.27 447.21 399.93 445.54 399.59 443.6C397.05 429.08 392.06 415.11 386.73 401.36C382.74 391.06 378.26 380.43 369.88 373.23C369.41 372.83 368.94 372.44 368.45 372.07C367.97 371.7 367.47 371.34 366.97 370.99C366.61 370.73 366.24 370.49 365.86 370.26C365.65 370.12 365.44 369.98 365.22 369.86C365.19 369.83 365.16 369.82 365.13 369.8C365.09 369.77 365.05 369.74 365.01 369.72C364.78 369.58 364.55 369.44 364.31 369.31C364.3 369.31 364.3 369.3 364.29 369.3C364.27 369.29 364.26 369.28 364.24 369.27C363.86 369.04 363.45 368.83 363.06 368.62C362.52 368.33 361.98 368.05 361.42 367.8C360.87 367.53 360.31 367.28 359.75 367.06C359.19 366.81 358.62 366.58 358.04 366.38C353.15 364.57 347.91 363.58 342.7 363.26C342.25 363.24 341.79 363.22 341.34 363.21C341.1 363.2 340.86 363.19 340.62 363.19C340.41 363.19 340.19 363.18 339.98 363.18C337.09 363.14 334.28 363.32 331.44 363.74H331.43C329.88 363.97 328.31 364.28 326.72 364.65C325.66 364.91 324.59 365.19 323.5 365.51C320.23 366.48 316.8 367.76 313.09 369.39C313.71 368.35 314.39 367.13 315.12 365.86C316.37 363.69 317.78 361.38 319.26 359.53C319.4 359.35 319.54 359.18 319.69 359.02C320.04 358.6 320.4 358.21 320.76 357.86L320.77 357.85C324.02 356.43 327.35 355.22 330.81 354.43C350.62 349.95 371.49 360.64 384.28 376.42C397.06 392.2 403.19 412.25 407.89 432.01C410.06 441.13 412 450.46 411.4 459.81Z" fill="#263F4F"/>
<path d="M921.191 610.81C918.471 613.11 914.481 613.05 910.991 612.35C907.501 611.65 904.011 610.43 900.471 610.86C898.221 611.13 896.091 612.06 893.861 612.49C887.101 613.78 880.451 610.38 873.701 609.05C867.491 607.83 861.091 608.37 854.781 608.8C839.891 609.82 824.861 610.16 810.101 607.95C796.271 605.88 782.311 601.56 770.181 604.63C714.491 601.51 658.711 618.5 606.611 613.45C559.431 611.04 512.281 624.22 465.221 619.97C440.871 617.77 416.961 610.85 395.191 599.73C392.501 598.35 389.701 596.88 386.681 596.92C384.361 596.96 382.161 597.9 380.041 598.82C344.921 614.04 309.801 629.26 275.061 643.77C268.681 643.99 256.991 641.79 251.311 638.87C255.221 636.53 261.281 632.04 261.391 627.49C261.581 619.59 260.911 611.67 259.401 603.91C299.631 592.4 332.571 562.97 363.421 534.3C371.531 543.72 385.711 544.49 398.101 543.49C406.471 542.81 414.911 541.63 422.681 538.45C430.451 535.28 437.581 529.91 441.521 522.5C444.531 516.83 445.541 510.33 446.161 503.94C449.341 471.45 443.951 438.8 438.521 406.62C442.351 409.81 446.591 412.51 451.091 414.65C449.701 427.25 457.461 438.91 464.871 449.43C479.551 470.25 494.231 491.07 508.911 511.89C525.551 535.48 545.281 561.07 573.821 565.43C602.011 569.74 630.361 551.48 658.331 557.07C668.151 559.04 677.151 563.84 685.871 568.77C688.711 570.37 691.661 572.03 694.921 572.21C701.111 572.55 706.141 567.59 711.691 564.81C724.681 558.29 740.651 563.86 754.681 560.05C763.291 557.71 771.861 551.82 780.361 554.53C783.851 555.64 787.031 558.17 790.691 557.97C793.411 557.83 795.791 556.17 798.121 554.75C813.941 545.07 834.921 544.5 851.251 553.29C863.631 559.95 874.671 571.85 888.701 570.96C896.201 570.48 902.701 566.35 908.501 561.35C912.361 578.03 916.561 594.55 921.191 610.81Z" fill="#31556B"/>
<path d="M260.78 630.67C260.08 633.69 258.83 636.78 256.44 638.36C252.71 640.84 247.95 638.65 244.3 636.03C237.73 631.34 231.94 625.28 227.28 618.25C231.33 616.63 235.34 615.13 239.4 613.83C240.03 613.62 240.65 613.42 241.28 613.23C246.85 611.54 251.65 610.21 256.9 608.22C257.75 607.9 258.62 607.55 259.49 607.19C259.63 607.13 259.77 607.07 259.91 607.01C261.74 614.88 262.6 622.9 260.78 630.67Z" fill="#193646"/>
<path d="M557.122 529.329C594.805 518.491 623.558 503.466 621.345 495.77C619.131 488.075 586.789 490.622 549.106 501.46C511.423 512.299 482.669 527.323 484.883 535.019C487.096 542.715 519.439 540.168 557.122 529.329Z" fill="#193646"/>
<path d="M635.141 625.72C635.301 632.66 633.891 638.21 632.121 644.93C630.351 651.65 616.571 665.31 610.381 668.47C583.261 682.31 592.771 675.48 537.791 704.53C525.401 711.08 507.771 718.52 493.641 722.02C461.271 730.02 433.541 737.1 401.531 746.45C384.331 751.47 366.191 756.62 349.061 763.73C343.601 766 338.141 768.27 332.671 770.54C327.371 772.74 321.931 775.03 317.831 779.05C315.831 781.01 314.191 783.35 312.001 785.11C308.651 787.82 304.321 788.94 300.571 791.06C297.191 792.96 294.311 795.65 291.041 797.74C285.301 801.39 278.571 803.06 271.971 804.68C259.281 811.38 243.911 816.7 228.601 822C220.771 824.7 212.941 827.41 205.121 830.12C198.501 832.41 191.871 834.71 185.041 836.28C182.251 836.94 179.381 837.46 176.531 837.22C176.381 837.21 176.241 837.2 176.091 837.18C175.911 837.16 175.731 837.14 175.551 837.11C174.771 837 174.041 836.79 173.351 836.51C171.761 835.85 170.431 834.76 169.391 833.34C169.061 832.89 168.761 832.42 168.491 831.91C167.171 829.47 167.621 825.76 169.521 823.68C169.521 823.67 169.531 823.67 169.531 823.67C169.811 823.36 170.131 823.09 170.481 822.86C164.811 825.13 159.281 827.3 154.261 829.71C153.181 830.23 151.331 830.94 149.631 831.52C148.591 831.89 147.611 832.2 146.891 832.39C143.431 833.31 141.151 833.46 137.911 831.94C137.441 831.72 136.981 831.47 136.541 831.19C136.541 831.19 136.541 831.19 136.531 831.18C136.431 831.12 136.331 831.06 136.241 830.99C136.231 830.98 136.221 830.98 136.221 830.98C134.581 829.92 133.201 828.48 132.391 826.72C131.341 824.44 131.401 821.58 132.871 819.54C132.911 819.48 132.951 819.42 132.991 819.37C130.201 820.75 125.311 822.83 121.991 822.26C118.671 821.69 116.341 820.78 114.361 818.06C114.141 817.75 113.921 817.3 113.721 816.79C113.241 815.56 112.871 813.99 112.781 813.27C112.631 812.11 113.651 809.56 114.021 808.76C116.441 803.46 120.371 800.74 124.921 797.11C121.321 796.41 119.721 792.65 120.471 789.69C121.211 786.72 123.531 784.45 125.741 782.35C127.761 780.43 129.771 778.51 131.791 776.59C137.261 771.39 143.241 765.31 148.991 760.43C161.531 749.8 179.411 736.19 191.651 728.18C204.691 719.64 216.161 716.67 232.051 710.87C239.661 708.09 255.061 704.83 263.071 703.62C283.601 700.51 298.601 704.3 316.351 697.67C351.141 684.69 381.661 675 410.081 663.33C435.361 652.96 494.601 609.38 536.061 598.56C536.161 598.53 536.271 598.51 536.371 598.48C534.781 596.42 533.231 594.33 531.701 592.21C515.521 569.68 503.061 543.98 495.141 518.53L600.961 484.31C602.011 487.18 603.021 490.08 603.991 493.02C604.981 496.02 605.931 499.06 606.831 502.12C607.361 503.9 607.871 505.68 608.371 507.47C609.161 510.31 609.921 513.16 610.651 516.04C614.211 530.01 617.081 544.36 619.551 558.61C620.081 561.64 620.591 564.66 621.081 567.67C621.381 569.47 621.511 571.07 621.611 572.6C621.651 573.21 621.681 573.8 621.721 574.39C621.831 576.22 621.951 578 622.311 579.95C622.471 580.8 622.671 581.7 622.941 582.64C623.751 585.45 624.951 588.49 626.241 591.59C627.151 593.8 628.091 596.05 628.951 598.26C630.091 601.17 631.081 604.04 631.651 606.72C632.841 612.29 635.011 620.02 635.141 625.72Z" fill="#FDD5C8"/>
<path d="M622.311 579.95C609.871 568.26 597.861 555.61 592.531 539.55C588.111 526.26 588.831 511.33 594.501 498.51C595.261 501.22 596.801 494.83 601.761 493.32C602.491 493.1 603.241 493.01 603.991 493.02C611.811 516.75 616.971 542.54 621.081 567.67C621.851 572.39 621.541 575.76 622.311 579.95Z" fill="#E0AFA1"/>
<path d="M536.061 598.56C536.161 598.53 536.271 598.51 536.371 598.48C534.781 596.42 533.231 594.33 531.701 592.21C532.631 586.41 532.361 580.81 531.501 575.31C535.671 581.31 541.791 585.93 548.701 588.31C556.941 591.13 566.181 590.84 573.901 594.89C561.371 596.79 548.731 598.02 536.061 598.56Z" fill="#99685A"/>
<path d="M562.66 617.46C572.31 612.69 585.01 617.32 594.03 611.44C599.95 607.58 602.56 599.94 602.01 592.9C601.58 587.4 598.78 581.42 593.46 579.96C592.68 579.75 591.84 579.64 591.05 579.85C588.47 580.55 587.98 583.89 587.48 586.52C586.19 593.42 581.28 599.54 574.82 602.3C571.94 603.53 568.8 604.13 566.04 605.62C563.29 607.11 560.87 609.88 561.11 613C561.37 616.12 565.49 618.59 562.66 617.46Z" fill="#FEE4DB"/>
<path d="M183.561 822.15C194.911 816.88 206.261 811.6 217.611 806.33C220.821 804.84 224.051 803.34 227.071 801.5C233.381 797.66 238.811 792.33 245.571 789.33C247.511 788.47 250.591 788.38 250.921 790.48C251.101 791.67 250.141 792.69 249.231 793.47C244.921 797.12 239.911 799.84 234.941 802.53C219.571 810.85 204.041 819.24 187.181 823.85C186.241 824.11 185.151 824.33 184.351 823.76C183.561 823.19 183.781 821.55 183.561 822.15Z" fill="#FEE4DB"/>
<path d="M145.74 815.93C155.64 810.3 165.54 804.67 175.44 799.03C181.12 795.8 186.83 792.55 192.99 790.37C199.37 788.11 206.34 786.93 211.73 782.83C215.1 780.26 217.89 776.56 222 775.55C222.49 775.43 223.04 775.37 223.44 775.67C224.27 776.29 223.62 777.59 222.92 778.34C212.34 789.74 196.99 795.15 182.3 800.24C178.59 801.52 174.85 802.83 171.53 804.93C168.72 806.71 166.28 809.01 163.5 810.82C158.87 813.83 153.47 815.38 148.16 816.88C147.37 817.11 146.15 817.08 145.74 815.93Z" fill="#FEE4DB"/>
<path d="M126.631 800.47C148.321 783.18 172.731 769.33 198.701 759.58C199.531 759.27 200.421 758.95 201.301 759.09C202.181 759.23 203.031 760 202.921 760.88C202.821 761.72 201.981 762.25 201.231 762.64C193.501 766.71 185.721 770.79 177.461 773.63C173.521 774.98 169.451 776.06 165.801 778.07C162.061 780.12 158.881 783.07 155.301 785.39C149.971 788.84 143.781 790.85 138.681 794.63C134.971 797.37 131.821 801.05 127.521 802.7C127.021 802.24 126.811 801.5 126.631 800.47Z" fill="#FEE4DB"/>
<path d="M156.16 759.36C166.19 750.68 176.44 742.27 186.9 734.12C189.35 732.21 192.2 730.21 195.27 730.67C194.93 734.2 191.37 736.34 188.36 738.21C178.11 744.58 170.09 753.97 160.29 761C159.41 761.63 158.47 762.26 157.41 762.47C156.34 762.68 155.1 762.35 154.53 761.43C153.96 760.51 154.44 759.02 156.16 759.36Z" fill="#FEE4DB"/>
<path d="M220.501 748.97C230.781 742.73 241.641 737.43 252.891 733.16C255.111 732.32 257.441 731.5 259.801 731.75C254.471 736.9 247.681 740.21 241.021 743.43C237.181 745.29 233.351 747.14 229.511 749C226.361 750.53 222.811 752.09 219.471 751.04C219.521 750.35 219.711 749.45 220.501 748.97Z" fill="#FEE4DB"/>
<path d="M234.53 764.57C239.7 760.28 245 756.16 250.44 752.22C254.48 749.29 258.69 746.42 263.49 745.07C263.92 744.95 264.4 744.85 264.8 745.05C265.84 745.59 265.07 747.17 264.21 747.98C254.96 756.73 244.7 764.87 232.6 768.84C232.05 769.02 231.36 769.16 230.96 768.74C230.66 768.43 230.67 767.94 230.75 767.52C231.08 765.93 232.23 764.53 234.53 764.57Z" fill="#FEE4DB"/>
<path d="M256.53 777.97C264.45 770.07 273.31 763.12 282.86 757.3C285.45 755.72 288.97 754.27 291.29 756.23C291 757.91 289.55 759.12 288.2 760.16C280.11 766.42 272.02 772.68 263.93 778.94C261.92 780.49 259.53 782.14 257.06 781.55C256.58 781.44 256.1 781.23 255.78 780.85C255.16 780.13 255.3 778.99 255.83 778.2C256.36 777.43 257.21 776.92 256.53 777.97Z" fill="#FEE4DB"/>
<path d="M505.501 650.12C521.281 642.66 537.061 635.21 552.841 627.75C553.851 627.27 555.051 626.24 554.471 625.29C554.281 624.98 553.951 624.8 553.611 624.67C552.241 624.17 550.731 624.49 549.311 624.83C531.921 628.97 515.021 635.15 499.051 643.2C497.951 643.76 496.811 644.35 496.051 645.33C495.291 646.3 495.011 647.77 495.741 648.77C496.211 649.42 497.011 649.76 497.781 649.97C500.691 650.79 504.041 650.81 505.501 650.12Z" fill="#FEE4DB"/>
<path d="M525.53 660.65C537.57 656.72 549.47 652.38 561.21 647.64C558.76 644.96 554.4 645.84 550.95 646.98C540.04 650.6 529.32 654.79 518.85 659.53C518.23 659.81 517.51 660.29 517.63 660.95C517.72 661.44 518.25 661.72 518.72 661.88C521.44 662.81 524.54 662.49 525.53 660.65Z" fill="#FEE4DB"/>
<path d="M526.261 526.04C529.001 533.08 531.821 540.26 536.661 546.06C537.471 547.03 538.361 547.98 539.521 548.49C540.681 548.99 542.161 548.94 543.061 548.06C543.681 547.46 543.931 546.58 544.141 545.75C545.051 542.11 545.581 538.39 545.961 534.66C546.281 531.61 546.351 528.12 544.181 525.95C542.281 524.05 539.321 523.84 536.641 523.75C532.961 523.62 528.671 523.77 526.261 526.04Z" fill="#FEE4DB"/>
<path d="M635.14 625.72C635.3 632.66 633.89 638.21 632.12 644.93C630.35 651.65 616.57 665.31 610.38 668.47C583.26 682.31 592.77 675.48 537.79 704.53C525.4 711.08 507.77 718.52 493.64 722.02C461.27 730.02 433.54 737.1 401.53 746.45C384.33 751.47 366.19 756.62 349.06 763.73C343.6 766 338.14 768.27 332.67 770.54C327.37 772.74 321.93 775.03 317.83 779.05C315.83 781.01 314.19 783.35 312 785.11C308.65 787.82 304.32 788.94 300.57 791.06C297.19 792.96 294.31 795.65 291.04 797.74C285.3 801.39 278.57 803.06 271.97 804.68C259.28 811.38 243.91 816.7 228.6 822C220.77 824.7 212.94 827.41 205.12 830.12C198.5 832.41 191.87 834.71 185.04 836.28C182.25 836.94 179.38 837.46 176.53 837.22C176.64 837.1 176.76 836.99 176.88 836.88C181.8 832.29 187.71 828.76 194.09 826.62C197.66 825.42 201.38 824.64 204.87 823.22C207.16 822.28 209.33 821.07 211.65 820.19C215.18 818.84 218.95 818.29 222.61 817.33C229.17 815.6 235.29 812.54 241.36 809.5C242.64 808.85 243.93 808.21 245.21 807.57C249.41 805.46 253.69 803.3 257.06 800.03C257.93 799.19 258.77 798.26 259.86 797.75C260.96 797.24 262.44 797.28 263.2 798.22C266.89 794.89 268.97 790.02 272.86 786.94C275.09 785.18 277.78 784.12 280.37 782.95C290.97 778.17 300.54 771.09 308.21 762.35C311.55 760.61 314.4 758.14 317.25 755.67C321.21 758.22 327.69 760.11 329.57 755.8C330.4 753.91 329.69 751.7 330.02 749.66C330.35 747.62 333.02 745.73 334.34 747.32C335.72 749 333.6 752.37 335.53 753.37C336.22 753.72 337.05 753.47 337.78 753.22C366.55 743.12 394.22 729.89 420.13 713.83C422.45 712.39 424.87 710.89 427.58 710.57C432.44 710.01 437.55 713.33 442.04 711.39C444.65 710.27 446.58 707.5 449.42 707.36C451.27 707.28 452.93 708.37 454.69 708.97C459.27 710.52 464.37 708.57 468.21 705.62C472.05 702.67 475.06 698.78 478.74 695.63C479.88 694.65 481.19 693.71 482.7 693.64C484.67 693.56 486.35 694.98 488.22 695.58C492.39 696.93 496.67 694.13 500.07 691.37C509.24 683.94 517.73 675.67 525.4 666.7C528.25 666.52 530.31 669.22 532.15 671.41C533.99 673.59 537.15 675.63 539.48 673.98C540.98 672.92 541.26 670.87 541.72 669.09C544.12 659.83 553.73 654.53 562.75 651.32C571.76 648.12 581.71 645.54 587.83 638.19C588.34 637.58 588.84 636.86 588.74 636.07C588.54 634.46 586.33 634.21 584.72 634.4C574.85 635.54 564.98 636.68 555.11 637.82C553.87 632.01 560.76 627.72 566.67 627.15C572.59 626.59 579.14 627.58 583.96 624.12C588.38 620.95 590.53 614.5 595.85 613.36C597.62 612.97 599.47 613.29 601.28 613.12C607.54 612.53 611.93 606.07 612.42 599.8C612.9 593.52 610.46 587.43 608.08 581.61C615.92 583.05 617.31 584.78 617.85 586.5C618.4 588.23 618.43 590.11 619.17 591.76C619.91 593.41 621.79 594.82 623.47 594.14C624 593.92 624.44 593.52 624.87 593.13C625.35 592.68 625.83 592.16 626.24 591.59C627.15 593.8 628.09 596.05 628.95 598.26C630.09 601.17 631.08 604.04 631.65 606.72C632.84 612.29 635.01 620.02 635.14 625.72Z" fill="#E0AFA1"/>
<path d="M120.681 819.4C124.931 818.33 127.661 813.24 126.201 809.11C127.241 811.88 132.051 811.81 133.011 809.01C133.531 807.48 133.251 805.32 134.741 804.69C135.711 804.27 136.941 804.86 137.861 804.34C138.741 803.84 138.911 802.54 139.791 802.03C140.741 801.48 141.941 802.11 143.021 801.97C144.531 801.77 145.391 800.19 146.571 799.22C149.211 797.04 153.811 797.73 155.641 794.84C156.461 793.55 156.671 791.62 158.121 791.16C159.571 790.7 161.061 792.17 162.551 791.84C163.471 791.63 164.091 790.79 164.731 790.1C166.051 788.69 167.781 787.74 169.471 786.81C171.631 785.63 173.801 784.44 175.961 783.26C188.671 776.31 201.381 769.35 214.101 762.4C218.311 760.1 222.761 757.73 227.561 757.76C228.961 760.34 226.721 763.35 224.511 765.29C215.431 773.28 204.391 778.67 193.421 783.78C182.001 789.09 170.471 794.22 159.461 800.33C151.651 804.67 144.111 809.5 136.911 814.78C132.161 818.25 126.521 822.16 120.681 819.4Z" fill="#E0AFA1"/>
<path d="M241.74 783.89C241.18 784.11 240.63 784.33 240.09 784.58C227.93 789.9 218.53 800.68 206 805.18C202.42 806.46 198.67 807.2 195.05 808.35C190.63 809.77 186.44 811.8 182.29 813.87C171.94 819.04 161.75 824.52 151.74 830.32C151.04 830.72 150.34 831.13 149.63 831.52C148.59 831.89 147.61 832.2 146.89 832.39C143.43 833.31 141.15 833.46 137.91 831.94C137.44 831.72 136.98 831.47 136.54 831.19C136.54 831.19 136.54 831.19 136.53 831.18C136.43 831.12 136.33 831.06 136.24 830.99C136.52 831.1 136.8 831.21 137.09 831.29C139.4 832 141.97 831.8 144.19 830.82C145.82 830.12 147.25 829 148.26 827.54C149 826.48 149.55 825.24 150.59 824.47C151.62 823.7 152.95 823.52 154.13 823.03C156.14 822.19 157.63 820.49 159.4 819.21C164.93 815.2 173.12 815.39 177.6 810.24C178.47 809.24 179.17 808.07 180.25 807.31C181.38 806.51 182.79 806.27 184.14 805.98C192.87 804.14 201.07 799.86 207.56 793.74C208.38 792.97 209.21 792.14 210.28 791.8C211.4 791.44 212.61 791.65 213.79 791.64C218.92 791.61 222.91 787.46 227.06 784.45C231.1 781.53 235.78 779.5 240.68 778.56C242.43 778.22 244.82 778.4 245.25 780.14C245.71 781.96 243.5 783.2 241.74 783.89Z" fill="#E0AFA1"/>
<path d="M133.03 791.17C143.62 785.58 150.62 775.03 160.22 767.87C164.14 764.95 168.47 762.61 172.39 759.7C175.34 757.5 178.05 754.99 180.98 752.76C192.69 743.84 207.69 739.61 218.34 729.44C215.69 734.14 213.03 738.84 210.38 743.54C208.82 746.3 207.21 749.13 204.8 751.2C202.1 753.52 198.64 754.71 195.29 755.93C176.94 762.63 159.52 771.89 133.03 791.17Z" fill="#E0AFA1"/>
<path d="M318.1 754.92C319.84 748.54 319.19 741.71 317.53 735.3C315.87 728.89 313.21 722.8 310.87 716.61C321.29 725.57 328.05 738.65 329.34 752.33C329.59 755.03 329.42 758.21 327.21 759.77C325.7 760.83 323.62 760.77 321.91 760.08C320.19 759.4 317.23 758.12 318.1 754.92Z" fill="#E0AFA1"/>
<path d="M180.661 830.26C180.641 831.4 179.621 832.24 178.681 832.89C177.491 833.74 176.291 834.58 175.101 835.42C174.541 835.81 173.961 836.21 173.351 836.51C171.761 835.85 170.431 834.76 169.391 833.34C173.301 833.09 177.161 832.03 180.661 830.26Z" fill="#E0AFA1"/>
<path d="M376.341 772.61C375.611 773.57 374.521 774.2 373.431 774.71C368.961 776.82 363.801 777.44 358.371 776.27C358.211 776.24 358.041 776.21 357.881 776.17C360.331 781.93 362.331 787.89 363.841 793.97C364.441 796.39 364.981 798.86 364.941 801.35C364.931 801.73 364.911 802.11 364.881 802.49C364.681 804.6 364.011 806.7 362.701 808.35C361.231 810.2 359.081 811.39 356.861 812.2C356.651 812.27 356.431 812.34 356.201 812.38C355.971 812.43 355.731 812.45 355.481 812.43H355.471C355.401 812.42 355.341 812.42 355.271 812.4C354.891 812.34 354.521 812.16 354.151 811.82C355.091 813.53 355.501 815.5 355.381 817.45V817.46C355.271 819.4 354.631 821.31 353.511 822.89C351.241 826.06 347.091 827.76 343.251 827.1C340.661 826.65 338.471 825.29 336.451 823.51C336.441 823.51 336.441 823.51 336.431 823.5C334.861 822.12 333.401 820.5 331.961 818.85C331.961 818.84 331.951 818.84 331.951 818.83L331.941 818.82C331.631 818.47 331.321 818.12 331.021 817.77C331.151 818.17 331.241 818.58 331.281 818.99C331.351 819.49 331.351 820 331.291 820.51C331.121 822.27 330.321 823.99 329.091 825.28C327.211 827.24 324.481 828.26 321.771 828.38C320.571 828.43 319.361 828.32 318.211 827.96C317.021 827.59 315.941 826.97 314.921 826.23C314.211 825.72 313.521 825.15 312.861 824.58C308.691 820.98 304.901 816.95 301.341 812.26C301.331 812.24 301.331 812.23 301.321 812.22C300.901 811.67 300.481 811.1 300.071 810.53C300.101 810.96 300.121 811.38 300.101 811.81C300.101 811.88 300.091 811.96 300.091 812.03V812.04C299.981 814.29 299.181 816.53 297.571 818.1C294.641 820.96 289.911 820.86 286.131 819.17C286.131 819.17 286.121 819.16 286.111 819.16C285.791 819.03 285.481 818.87 285.181 818.71C281.281 816.6 278.331 813.14 274.991 810.23C272.401 807.98 269.561 806.05 266.721 804.11L307.641 773.74L353.881 758.59L359.721 756.67L359.971 756.59C360.011 756.64 360.051 756.69 360.091 756.74C363.781 761.24 368.561 764.84 373.891 767.13C375.021 767.61 376.271 768.12 376.831 769.21C377.391 770.28 377.081 771.65 376.341 772.61Z" fill="#FDD5C8"/>
<path d="M376.341 772.61C375.611 773.57 374.521 774.2 373.431 774.71C368.961 776.82 363.801 777.44 358.371 776.27C355.951 771.88 353.771 767.35 351.831 762.73C351.571 762.1 351.311 761.4 351.541 760.76C351.711 760.27 352.131 759.92 352.531 759.6C352.961 759.25 353.411 758.91 353.881 758.59C355.671 757.33 357.671 756.34 359.721 756.67C359.841 756.68 359.971 756.7 360.091 756.74C363.781 761.24 368.561 764.84 373.891 767.13C375.021 767.61 376.271 768.12 376.831 769.21C377.391 770.28 377.081 771.65 376.341 772.61Z" fill="#99685A"/>
<path d="M364.881 802.49C364.681 804.6 364.011 806.7 362.701 808.35C361.231 810.2 359.081 811.39 356.861 812.2C356.451 812.35 355.971 812.47 355.481 812.43H355.471C353.981 811.17 352.771 809.68 351.911 808.33C355.211 808.6 358.511 807.41 361.251 805.55C362.561 804.66 363.761 803.62 364.881 802.49Z" fill="#99685A"/>
<path d="M352.471 794.89C355.401 793.44 359.331 794.43 361.211 797.11C360.851 795.78 359.691 794.79 358.421 794.29C357.141 793.78 355.751 793.68 354.381 793.58C353.591 793.52 352.601 793.57 352.471 794.89Z" fill="#E0AFA1"/>
<path d="M355.381 817.46C355.271 819.4 354.631 821.31 353.511 822.89C351.241 826.06 347.091 827.76 343.251 827.1C340.661 826.65 338.471 825.29 336.451 823.51C337.341 823.84 338.251 824.1 339.181 824.3C340.551 824.59 341.971 824.73 343.371 824.56C345.611 824.29 347.671 823.22 349.581 822.01C351.651 820.68 353.601 819.16 355.381 817.46Z" fill="#99685A"/>
<path d="M300.071 810.53C300.101 810.96 300.121 811.38 300.101 811.81C296.711 807.37 291.201 800.35 287.341 796.35L288.991 795.26C294.171 800.62 297.901 805.77 301.321 812.22C300.901 811.67 300.481 811.1 300.071 810.53Z" fill="#E0AFA1"/>
<path d="M331.291 820.51C331.121 822.27 330.321 823.99 329.091 825.28C327.211 827.24 324.481 828.26 321.771 828.38C320.571 828.43 319.361 828.32 318.211 827.96C317.021 827.59 315.941 826.97 314.921 826.23C317.601 826.53 320.381 826.04 322.791 824.83C325.921 823.26 328.421 820.48 329.641 817.2C330.261 818.27 330.811 819.37 331.291 820.51Z" fill="#99685A"/>
<path d="M312.59 813.2C312.74 811.51 313 809.61 314.35 808.58C315.59 807.63 317.33 807.76 318.87 807.99C317.75 807.49 316.5 806.98 315.32 807.33C314.34 807.62 313.63 808.46 313.03 809.29C312.2 810.47 311.44 811.89 312.59 813.2Z" fill="#E0AFA1"/>
<path d="M338.961 815.93C338.821 813.57 339.951 811.18 341.851 809.78C343.751 808.38 346.371 808.02 348.581 808.85C347.451 807.96 345.911 807.6 344.511 807.9C343.641 808.09 342.841 808.5 342.101 809C340.991 809.74 339.991 810.68 339.351 811.86C338.721 813.04 338.481 814.46 338.961 815.93Z" fill="#E0AFA1"/>
<path d="M300.091 812.03V812.04C299.981 814.29 299.181 816.53 297.571 818.1C294.641 820.96 289.911 820.86 286.131 819.17C289.211 819.34 292.301 818.86 294.541 816.85C295.691 815.81 296.511 814.45 297.271 813.09C297.881 812.01 298.471 810.91 299.051 809.81C299.321 810.57 299.701 811.3 300.091 812.03Z" fill="#99685A"/>
<path d="M331.021 817.77C331.151 818.17 331.241 818.58 331.281 818.99C326.101 810.87 315.071 794.02 307.301 785.23L309.051 783.74C318.561 794.5 325.771 806.05 331.941 818.82C331.631 818.47 331.321 818.12 331.021 817.77Z" fill="#E0AFA1"/>
<path d="M355.271 812.4C349.201 806.37 347.851 802.09 347.851 802.09C342.751 793.11 335.821 779.77 329.181 769.84L331.681 769.17C338.401 779.23 344.171 790.87 349.321 801.82L356.201 812.38L355.271 812.4Z" fill="#E0AFA1"/>
<path d="M508.22 521.74C512.08 538.61 520.16 554.87 533.06 566.4C545.96 577.94 564.01 584.25 581.01 580.97C564.35 575.67 548.01 567.98 535.71 555.54C523.41 543.1 515.66 525.31 518.41 508.04C515.31 510.34 512.22 512.65 509.12 514.95C508.22 515.62 507.3 516.31 506.77 517.3C505.54 519.61 506.91 522.4 508.22 521.74Z" fill="#E0AFA1"/>
<path d="M635.141 625.72C635.301 632.66 633.891 638.21 632.121 644.93C630.351 651.65 616.571 665.31 610.381 668.47C583.261 682.31 592.771 675.48 537.791 704.53C525.401 711.08 507.771 718.52 493.641 722.02C461.271 730.02 433.541 737.1 401.531 746.45C384.331 751.47 366.191 756.62 349.061 763.73C343.601 766 338.141 768.27 332.671 770.54C327.371 772.74 321.931 775.03 317.831 779.05C315.831 781.01 314.191 783.35 312.001 785.11C308.651 787.82 304.321 788.94 300.571 791.06C297.191 792.96 294.311 795.65 291.041 797.74C285.301 801.39 278.571 803.06 271.971 804.68C259.281 811.38 243.911 816.7 228.601 822C220.771 824.7 212.941 827.41 205.121 830.12C198.501 832.41 191.871 834.71 185.041 836.28C182.111 836.97 179.081 837.51 176.091 837.18C176.141 837.16 176.191 837.14 176.241 837.12C180.491 835.41 184.741 833.71 188.981 832.01C191.531 830.98 194.081 829.96 196.641 828.98C201.691 827.04 206.781 825.24 211.881 823.44C222.121 819.83 232.361 816.22 242.601 812.6C248.321 810.17 254.621 806.46 260.831 802.6C264.271 800.45 267.721 798.22 270.411 795.19C272.461 792.88 274.041 790.14 276.371 788.11C280.891 784.13 287.401 783.49 292.771 780.76C298.241 777.98 302.321 773.15 306.901 769.07C311.481 764.98 317.251 761.42 323.341 762.11C325.671 762.38 328.231 763.21 330.201 761.95C330.971 761.46 331.531 760.71 332.211 760.11C333.991 758.58 336.441 758.21 338.731 757.74C345.431 756.35 351.821 753.51 357.351 749.47C361.651 747.8 366.721 744.43 372.131 741.71C379.471 738.02 387.361 735.56 395.211 733.12C419.991 725.41 444.781 717.69 469.571 709.98C472.921 706.51 479.271 704.56 485.751 704.02C491.821 703.51 498.781 703.87 502.921 699.42C503.771 698.5 504.441 697.43 505.351 696.57C506.451 695.53 507.841 694.87 509.201 694.22C512.881 692.46 516.561 690.71 520.231 688.96C524.291 687.02 528.451 685.06 532.931 684.67C535.171 684.47 537.511 684.66 539.571 683.74C541.321 682.95 542.631 681.45 543.791 679.93C546.061 676.97 547.971 673.74 549.471 670.33C550.671 667.63 551.661 664.74 553.651 662.55C555.481 660.54 558.001 659.3 560.461 658.12C568.821 654.09 577.171 650.06 585.521 646.03C586.721 644.97 588.731 643.93 590.531 642.62C592.331 641.32 594.021 639.6 594.421 637.41C594.821 635.22 593.401 632.62 591.181 632.48C590.301 632.42 589.341 632.73 588.561 632.32C586.891 631.44 588.001 628.9 589.271 627.49C593.231 623.1 597.551 618.55 603.261 617.02C605.071 616.54 606.961 616.38 608.711 615.73C613.981 613.78 616.821 607.76 616.791 602.14C616.771 596.53 614.481 591.2 612.241 586.06C616.741 593.97 620.541 601.11 621.071 608.9C621.611 616.69 617.941 625.35 610.631 628.09C609.141 628.65 607.521 628.97 606.231 629.91C602.531 632.61 603.681 638.36 602.081 642.65C600.341 647.31 595.501 649.89 591.211 652.4C586.921 654.92 582.401 658.5 582.161 663.46C595.071 663.64 607.991 659.41 618.301 651.63C620.841 649.72 623.471 646.81 622.521 643.78C621.521 640.61 617.091 639.36 616.461 636.1C615.531 631.34 623.391 628.55 622.981 623.72C622.911 622.96 622.631 622.23 622.591 621.47C622.501 619.83 623.491 618.36 624.321 616.95C627.601 611.32 628.681 604.85 628.951 598.26C630.091 601.17 631.081 604.04 631.651 606.72C632.841 612.29 635.011 620.02 635.141 625.72Z" fill="#99685A"/>
<path d="M240.131 785.03C240.091 786.38 238.941 787.39 237.881 788.22C234.301 791.05 230.711 793.88 227.131 796.71C224.281 798.96 221.381 801.24 218.011 802.62C215.361 803.7 212.501 804.18 209.791 805.13C206.661 806.22 203.781 807.92 200.841 809.47C190.711 814.83 179.721 818.47 169.531 823.67C169.811 823.36 170.131 823.09 170.481 822.86C164.811 825.13 159.281 827.3 154.261 829.71C153.181 830.23 151.331 830.94 149.631 831.52C148.591 831.89 147.611 832.2 146.891 832.39C143.431 833.31 141.151 833.46 137.911 831.94C137.441 831.72 136.981 831.47 136.541 831.19C136.721 831.23 136.911 831.26 137.091 831.29C139.401 831.67 141.821 831.45 144.191 830.82C146.921 830.12 149.591 828.89 151.981 827.47C157.601 824.15 162.771 819.74 169.111 818.16C170.071 817.92 171.061 817.75 171.961 817.32C173.411 816.64 174.481 815.36 175.641 814.26C183.231 807.1 195.371 806.95 203.481 800.38C205.361 798.86 207.061 796.97 209.351 796.19C210.611 795.77 211.961 795.71 213.271 795.47C217.281 794.74 220.751 792.3 224.071 789.94C226.691 788.07 229.311 786.2 231.931 784.32C233.331 783.33 234.831 782.29 236.551 782.18C238.111 782.08 239.851 783.1 240.091 784.58C240.121 784.73 240.141 784.88 240.131 785.03Z" fill="#99685A"/>
<path d="M220.241 763.3C218.931 765.32 216.991 766.83 215.391 768.63C213.791 770.42 212.471 772.76 212.871 775.13C213.011 775.96 213.331 776.88 212.871 777.57C212.601 777.97 212.151 778.18 211.711 778.38C204.801 781.45 197.781 784.26 190.671 786.82C186.721 788.24 182.701 789.6 179.131 791.81C176.691 793.32 174.501 795.2 172.141 796.83C165.281 801.55 157.121 804.02 149.951 808.25C144.211 811.64 139.151 816.12 133.301 819.31C133.161 819.39 133.021 819.46 132.871 819.54C132.911 819.48 132.951 819.42 132.991 819.37C130.201 820.75 125.311 822.83 121.991 822.26C118.671 821.69 116.341 820.78 114.361 818.06C114.141 817.75 113.921 817.3 113.721 816.79C118.121 820.16 124.541 818.95 129.951 817.42C131.971 816.85 134.251 816 134.941 814.03C135.161 813.38 135.191 812.66 135.541 812.08C135.811 811.63 136.251 811.31 136.671 811C143.521 806.02 150.761 801.56 158.291 797.69C162.231 795.66 166.281 793.77 169.811 791.1C173.001 788.69 175.721 785.67 179.031 783.41C182.981 780.7 187.611 779.19 192.071 777.44C200.211 774.24 208.001 770.12 215.231 765.2C216.741 764.17 218.431 763.05 220.241 763.3Z" fill="#99685A"/>
<path d="M124.301 798.47C141.691 784.83 159.461 770.98 180.191 763.32C187.711 760.54 195.671 758.55 202.281 754.01C203.151 753.41 204.071 752.63 204.111 751.57C204.151 750.18 202.631 749.16 202.551 747.78C202.511 747.08 202.841 746.33 202.551 745.69C202.221 744.96 201.191 744.78 200.451 745.1C199.711 745.42 199.181 746.08 198.661 746.7C194.471 751.67 188.761 755.1 183.171 758.42C179.601 760.55 176.021 762.67 172.451 764.8C168.801 766.97 165.161 769.14 161.511 771.31C154.721 775.35 147.911 779.41 141.801 784.42C139.231 786.53 136.791 788.8 134.221 790.91C130.951 793.59 127.471 796.01 124.301 798.47Z" fill="#99685A"/>
<path d="M621.88 496.56C612.97 491.31 603.43 492.35 593.73 492.7C584.04 493.05 576.57 495.56 567.25 498.23C551.41 502.77 534.23 507.85 518.73 513.44C506.15 517.99 493.85 525.09 484.14 534.28C476.86 511.73 467.13 484.85 458.01 463.33C443.52 429.13 426.65 395.41 420.02 358.86C414.62 329.1 417.09 296.43 431.8 270.57C446.73 262.23 462.33 255.87 478.53 253.53C495.13 252.64 511.79 252.88 528.36 254.23C538.63 269.55 546.95 286.17 553.05 303.57C556.08 312.21 558.57 321.03 561.14 329.82C577.75 386.64 598.06 442.37 621.88 496.56Z" fill="#709EB8"/>
<path d="M335.4 492.06C336.54 503.23 329.6 513.53 322.55 522.42C303.07 546.94 280.31 568.99 255 587.82C252.69 581.3 249.77 574.99 246.27 569.03C245.54 567.8 244.6 566.06 243.97 564.87C243.54 564.07 243.25 563.52 243.25 563.52C243.25 563.52 246.8 560.18 247.37 560C264.47 554.74 277.28 546.5 294.71 538.34C300.37 535.69 312.33 523.58 319.43 511.43C320.72 509.24 321.85 507.04 322.75 504.9C322.87 504.62 322.97 504.37 323.06 504.14C323.55 502.87 323.65 502.18 324.06 500.32C324.19 499.74 324.46 498.15 324.61 497.6C324.94 496.37 325.68 494.21 326.37 493.31C328.15 490.99 333.67 490.36 334.68 490.25C334.76 490.24 334.84 490.23 334.92 490.22C335.52 491.48 335.69 492.33 335.4 492.06Z" fill="#31556B"/>
<path opacity="0.1882" d="M481.62 299.37C486.86 346.73 499.43 393.27 518.75 436.82C524.72 450.29 531.64 463.88 542.88 473.41C544.63 474.9 546.65 476.34 548.95 476.38C555.02 476.49 556.73 468.08 555.98 462.06C554.2 447.66 550.08 433.66 545.97 419.74C539.91 399.2 533.86 378.67 527.75 358.15C520.77 334.68 513.5 310.78 499.39 290.77C498.39 289.35 497.32 287.92 495.81 287.06C491.77 284.76 486.38 287.83 484.52 292.09C482.66 296.35 483.31 301.23 481.62 299.37Z" fill="white"/>
<path d="M319.43 511.43C318.95 512.71 318.35 513.96 317.73 515.16C312.61 525.09 305.91 534.51 296.65 540.77C293.86 542.67 290.86 544.25 287.88 545.82C278.89 550.57 269.82 555.35 260.07 558.24C254.47 559.9 248.28 561.16 243.97 564.87C243.54 564.07 243.25 563.52 243.25 563.52C243.25 563.52 246.8 560.18 247.37 560C264.47 554.74 277.28 546.5 294.71 538.34C300.37 535.69 312.33 523.58 319.43 511.43Z" fill="#263F4F"/>
<path d="M1842.52 777.49C1838.84 783.61 1832.68 789.57 1825.62 788.48C1771.02 781.51 1720.2 748.91 1663.86 742.38C1642.13 739.87 1620.11 741.31 1598.31 739.94C1599.12 739.83 1599.94 739.72 1600.75 739.61C1591.42 731.83 1588.64 718.82 1587.18 706.76C1586.92 704.63 1586.69 702.5 1586.48 700.36C1585.23 687.81 1584.78 675.18 1585.14 662.57C1591.7 660.49 1598.26 658.42 1604.82 656.34C1615.01 653.11 1625.31 649.86 1635.97 649.08C1652.94 647.84 1669.66 652.93 1686.54 655.08C1724.23 659.9 1764.6 650.45 1799.21 666.13C1810.64 670.73 1822.59 676.98 1831.29 686.82C1836.44 692.64 1840.26 699.51 1843.34 706.64C1853.06 729.17 1855.16 756.46 1842.52 777.49Z" fill="#23282B"/>
<path d="M1623.67 680.41C1643.64 686.06 1664 690.59 1684.68 692.39C1691.52 692.99 1698.39 693.28 1705.24 693.78C1723.6 695.12 1742.06 697.96 1759.09 704.96C1776.12 711.96 1791.72 723.44 1801.23 739.2C1804.78 745.09 1809.37 752.57 1816.16 751.48C1822.95 750.39 1825.03 741.55 1824.36 734.7C1822.29 713.68 1808.25 694.25 1788.94 685.69C1784.11 683.55 1779.01 682.05 1773.94 680.56C1767.38 678.64 1760.83 676.71 1754.27 674.79C1725.5 666.35 1694.97 657.87 1665.98 665.52C1661.34 666.75 1656.73 668.39 1651.92 668.48C1647.69 668.56 1643.51 667.42 1639.29 667.43C1633.89 667.45 1628.53 669.42 1624.4 672.9C1622.9 674.17 1621.45 675.94 1621.78 677.88C1622.11 679.82 1625.29 680.79 1623.67 680.41Z" fill="#353A3E"/>
<path d="M1949.42 536.04C1949.11 547.46 1940.33 557.27 1930.01 562.17C1924.16 564.94 1917.74 566.48 1911.27 566.64C1888.5 567.22 1869.04 551.58 1848.21 542.38C1803.27 522.52 1751.26 532.76 1702.63 525.45C1702.22 524.34 1701.82 523.23 1701.43 522.12C1699.74 517.37 1698.12 512.59 1696.58 507.79C1692.83 496.19 1689.49 484.45 1686.55 472.62C1685.76 469.42 1684.99 466.18 1684.56 462.91C1688.78 459.93 1693.19 457.1 1696.65 453.31C1699.81 449.86 1702.07 445.7 1704.99 442.04C1711.86 433.41 1722.44 427.85 1733.44 427.07C1745.69 426.2 1757.68 431.01 1768.32 437.16C1778.95 443.31 1788.76 450.89 1799.74 456.4C1814.58 463.84 1831.39 467.32 1847.97 466.38C1854.37 466.01 1860.81 465.01 1867.15 465.92C1873.23 466.79 1878.92 469.38 1884.39 472.18C1901.86 481.11 1918.08 492.48 1932.44 505.85C1941.17 513.96 1949.74 524.13 1949.42 536.04Z" fill="#23282B"/>
<path d="M1709.26 475.77C1766.12 480.98 1823.88 486.39 1876.96 507.44C1885.81 510.95 1894.96 515.26 1900.26 523.17C1902.81 526.98 1904.31 531.42 1906.8 535.27C1909.29 539.13 1913.26 542.54 1917.85 542.43C1922.59 542.32 1926.6 538.29 1927.88 533.72C1929.16 529.15 1928.19 524.23 1926.5 519.8C1920.78 504.77 1907.21 493.82 1892.39 487.58C1877.57 481.34 1861.41 479.19 1845.48 477.04C1817.6 473.27 1788.48 468.82 1765.77 452.21C1757.99 446.52 1750.38 439.2 1740.76 438.63C1737.14 438.42 1733.53 439.21 1730.04 440.2C1723.2 442.14 1716.43 444.93 1711.17 449.7C1705.9 454.47 1702.11 461.51 1703 468.56C1703.59 473.26 1706.01 475.32 1709.26 475.77Z" fill="#353A3E"/>
<path d="M98.2605 571.41C104.291 572.8 114.481 575.47 119.971 578.76C124.551 581.5 129.281 584.35 134.181 586.42C135.701 587.06 137.291 587.65 138.841 588.22C139.911 588.62 141.001 589.02 142.071 589.45L144.021 591.91C142.311 591.3 140.571 590.68 139.201 590.17C137.641 589.59 123.211 583.71 118.541 580.92C111.451 576.67 105.621 574.13 97.5205 571.61" fill="#E0AFA1"/>
<path d="M180.95 523.39C176.84 521.26 173.52 517.66 171.74 513.39C170.33 510.02 169.96 505.89 172.03 502.88C171.42 504.72 172 506.72 172.7 508.53C175.02 514.54 178.62 520.06 180.95 523.39Z" fill="#FEE4DB"/>
</g>
<defs>
<clipPath id="clip0_101_381">
<rect width="2000" height="1040" fill="white"/>
</clipPath>
</defs>
</svg>
