<svg width="2000" height="1040" viewBox="0 0 2000 1040" fill="none" xmlns="http://www.w3.org/2000/svg">
<g clip-path="url(#clip0_102_2885)">
<rect width="2000" height="1040" fill="#9BAFBD"/>
<path d="M1500.79 1046.62H1534.01H1571.34H1658.71H1665.82H1668.69C1668.1 1042.87 1667.46 1039.13 1666.75 1035.39V1035.38C1651.74 955.591 1610.88 879.833 1585.9 802.521C1576.93 774.795 1570 746.865 1567.05 718.48C1565.62 704.861 1565.11 691.132 1565.74 677.277C1559.12 632.011 1547.39 587.492 1530.81 544.843C1527.42 536.081 1523.81 527.405 1520.01 518.808C1513.49 504.097 1506.32 489.227 1499.99 474.171C1496.2 465.165 1492.72 456.08 1489.85 446.925C1489.76 446.626 1489.66 446.327 1489.58 446.021C1488.09 441.243 1486.8 436.442 1485.72 431.608C1485.11 428.898 1484.57 426.194 1484.11 423.467C1482.1 411.64 1481.54 399.671 1483.08 387.537L1395.97 444.772C1395.97 444.772 1395.97 444.78 1395.97 444.78L1358.81 469.196L1352.39 473.416L1282.73 519.193L1258.37 535.201L1255.09 537.354L1253.39 538.478L1252.81 538.855C1252.88 539.217 1252.96 539.578 1253.05 539.939C1253.32 541.189 1253.59 542.431 1253.86 543.672C1253.91 543.9 1253.96 544.112 1254 544.34C1254.92 548.506 1255.88 552.647 1256.89 556.796C1256.91 556.852 1256.92 556.899 1256.93 556.961C1260.39 571.131 1264.35 585.15 1268.72 599.036C1268.76 599.123 1268.78 599.218 1268.8 599.304C1298.33 692.735 1346.77 780.201 1386.7 870.256C1394.73 888.392 1402.47 906.726 1407.93 925.794C1418.09 961.231 1420.92 1000.11 1434.98 1033.43C1436.88 1037.94 1438.99 1042.35 1441.34 1046.63H1443.02H1457.85H1472.09H1494.98H1500.79V1046.62Z" fill="#FDD5C8"/>
<path d="M1500.79 1046.62H1534H1571.33C1559.57 1008.35 1547.8 970.098 1536.03 931.837C1533.82 924.642 1531.59 917.408 1528.05 910.773C1522 899.461 1512.44 890.483 1503.38 881.371C1457.99 835.765 1421.14 781.726 1395.32 722.881C1407.44 790.842 1460.78 842.597 1499.84 899.618C1507.16 910.316 1513.65 925.928 1504.29 934.922C1498.94 940.065 1490.2 940.254 1483.4 937.265C1476.6 934.282 1471.32 928.713 1466.41 923.151C1425.68 876.938 1397.49 821.313 1370.77 765.883C1333.64 688.876 1298.08 609.473 1283.77 525.574C1283.76 525.551 1283.75 525.519 1283.75 525.495C1283.4 523.397 1283.05 521.299 1282.72 519.193L1258.36 535.201L1255.08 537.354L1253.38 538.478C1253.27 538.965 1253.15 539.452 1253.04 539.948C1253.31 541.197 1253.58 542.438 1253.85 543.68C1253.9 543.908 1253.95 544.12 1253.99 544.348C1254.91 548.514 1255.87 552.655 1256.88 556.804C1256.9 556.859 1256.91 556.907 1256.92 556.969C1260.38 571.138 1264.34 585.158 1268.71 599.045C1268.75 599.131 1268.77 599.225 1268.79 599.311C1298.32 692.743 1346.76 780.209 1386.69 870.264C1394.72 888.4 1402.46 906.734 1407.92 925.802C1418.08 961.239 1420.91 1000.12 1434.97 1033.44C1437.41 1038.01 1440.07 1042.43 1443.02 1046.64H1457.84H1472.09C1471.41 1045.07 1470.64 1043.52 1469.9 1041.99C1461.06 1023.87 1454.73 1004.55 1451.1 984.74C1474.78 995.106 1480.13 1025.34 1494.97 1046.64H1500.79V1046.62Z" fill="#E0AFA1"/>
<path d="M1666.75 1035.38V1035.39C1666.55 1039.13 1666.25 1042.88 1665.82 1046.62H1658.71C1655.97 1032.56 1654.52 1018.21 1651.75 1004.12C1645.23 970.99 1631.53 939.742 1617.46 909.014C1603.95 879.501 1590 850.178 1575.61 821.076C1569.75 809.211 1562.55 796.265 1549.89 792.296C1534.66 787.533 1519.2 797.898 1506.61 807.681C1507.48 787.502 1508.48 766.731 1516.92 748.358C1520.85 739.808 1526.35 731.871 1528.55 722.723C1531.3 711.344 1528.62 699.438 1525.82 688.083C1515.14 644.805 1502.4 602.039 1487.65 559.964C1505.6 596.474 1523.25 643.39 1537.73 691.32C1544.2 712.743 1550.07 735.258 1546.01 757.262C1545.4 760.61 1544.6 764.248 1546.21 767.25C1547.44 769.537 1549.81 770.928 1552.03 772.28C1565.18 780.288 1576.27 790.685 1585.89 802.513C1610.88 879.833 1651.75 955.59 1666.75 1035.38Z" fill="#E0AFA1"/>
<path d="M1567.04 718.479C1556.6 660.279 1544.51 602.376 1530.81 544.843C1547.38 587.5 1559.12 632.011 1565.73 677.277C1565.11 691.132 1565.62 704.861 1567.04 718.479Z" fill="#E0AFA1"/>
<path d="M1426.26 951.906C1430.43 985.119 1441.24 1017.51 1457.83 1046.61H1441.33C1438.98 1042.34 1436.87 1037.93 1434.96 1033.42C1420.91 1000.09 1418.08 961.207 1407.92 925.778C1402.45 906.711 1394.72 888.377 1386.68 870.24C1346.76 780.193 1298.32 692.719 1268.79 599.288C1268.77 599.202 1268.74 599.107 1268.71 599.02C1264.33 585.134 1260.37 571.115 1256.92 556.945C1256.91 556.89 1256.9 556.844 1256.88 556.781C1255.87 552.639 1254.91 548.498 1253.99 544.325C1253.94 544.097 1253.9 543.884 1253.85 543.656C1253.57 542.415 1253.31 541.173 1253.04 539.923C1252.96 539.562 1252.87 539.201 1252.8 538.84L1253.38 538.462L1255.08 537.338C1255.54 538.902 1256.01 540.458 1256.48 542.022C1256.49 542.077 1256.51 542.132 1256.52 542.203V542.21C1291.98 660.168 1340.81 774.134 1401.8 881.221C1409.24 894.278 1416.89 907.294 1426.45 918.875C1441.47 937.075 1460.77 951.244 1480.29 964.544C1464.74 958.194 1449.17 951.851 1433.62 945.493C1431.91 944.798 1429.92 944.112 1428.28 944.94C1425.98 946.14 1425.94 949.342 1426.26 951.906Z" fill="#99685A"/>
<path d="M1534 1046.62H1500.79C1493.57 1026.99 1484.72 1007.96 1474.34 989.789C1479.44 990.633 1483.08 995.027 1486.23 999.114L1504.14 1022.37C1505.07 1023.58 1506.07 1024.83 1507.5 1025.34C1510.15 1026.29 1513.09 1024.11 1514.08 1021.47C1515.05 1018.84 1514.68 1015.91 1514.49 1013.11C1513.88 1004.19 1515.36 995.138 1518.79 986.878C1521.77 986.776 1522.99 990.61 1523.33 993.56C1525.39 1011.52 1529.26 1029.16 1534 1046.62Z" fill="#99685A"/>
<path d="M1517.37 879.557C1529.84 895.753 1537.29 915.759 1552.04 929.912C1556.1 933.809 1562.39 937.288 1567.02 934.077C1569.15 932.594 1570.23 930.054 1571.13 927.624C1579.02 905.89 1579.2 881.466 1571.63 859.629C1570.83 857.302 1568.44 854.509 1566.49 856.008C1565.63 856.663 1565.45 857.862 1565.37 858.935C1564.12 874.808 1568.22 892.416 1559.18 905.543C1558.46 906.6 1557.48 907.689 1556.2 907.705C1555.26 907.713 1554.43 907.137 1553.68 906.569C1541.72 897.567 1530.29 887.864 1517.37 879.557Z" fill="#FEE4DB"/>
<path d="M1457.05 886.452C1463.07 893.126 1467.46 901.07 1472.71 908.367C1477.95 915.665 1484.38 922.575 1492.79 925.81C1496.49 918.52 1492.6 909.811 1488.41 902.805C1484.08 895.587 1479.37 888.605 1474.29 881.9C1470.37 876.725 1465.3 871.234 1458.78 871.321C1457.8 871.337 1456.76 871.502 1455.98 872.125C1454.86 873.033 1454.63 874.634 1454.59 876.07C1454.5 880.638 1455.83 885.095 1457.05 886.452Z" fill="#FEE4DB"/>
<path d="M1354.74 580.828C1375.72 642.495 1404.83 701.411 1441.07 755.588C1422.86 689.929 1392.73 627.563 1354.74 580.828Z" fill="#FEE4DB"/>
<path d="M978.263 6.86557C962.256 44.0447 946.707 79.6836 927.466 116.776C917.258 136.462 904.778 157.767 888.124 172.447C877.206 182.066 856.702 198.356 843.275 203.968C836.775 206.687 829.675 209.084 822.243 211.072C818.827 211.992 815.348 212.817 811.83 213.547C793.969 217.257 775.099 218.506 758.832 216.109C754.422 215.457 749.728 214.216 744.932 212.613C744.829 212.581 744.719 212.542 744.616 212.51C731.576 208.117 717.778 201.131 706.67 196.29C687.406 187.889 682.112 183.968 666.492 163.669C661.711 157.452 655.96 149.712 648.537 139.818V139.81C648.529 139.802 648.529 139.802 648.521 139.794H648.466C648.458 139.794 648.458 139.794 648.45 139.794H647.74C647.259 139.794 646.793 139.787 646.336 139.779C646.099 139.779 645.878 139.771 645.649 139.763C645.302 139.755 644.963 139.747 644.632 139.731C644.292 139.716 643.961 139.7 643.63 139.684C643.267 139.668 642.904 139.645 642.549 139.622C641.713 139.566 640.916 139.495 640.127 139.402C639.867 139.378 639.606 139.346 639.354 139.315C638.242 139.181 637.184 139.009 636.167 138.812C635.843 138.749 635.52 138.686 635.204 138.616C634.865 138.545 634.534 138.466 634.195 138.38C634.163 138.372 634.139 138.372 634.116 138.364C634.1 138.364 634.084 138.356 634.068 138.356C634.06 138.356 634.053 138.356 634.045 138.348C634.037 138.348 634.029 138.348 634.029 138.348H634.021L634.013 138.34C633.942 138.325 633.863 138.301 633.784 138.285C633.524 138.222 633.272 138.16 633.027 138.081C632.735 138.01 632.451 137.932 632.175 137.837C631.938 137.775 631.717 137.704 631.489 137.625C630.857 137.429 630.25 137.216 629.658 136.988C629.311 136.863 628.972 136.73 628.641 136.588C627.607 136.164 626.613 135.692 625.659 135.165C625.383 135.024 625.106 134.867 624.838 134.718C624.538 134.544 624.239 134.372 623.947 134.183C623.686 134.034 623.434 133.869 623.189 133.704C621.004 132.274 618.985 130.608 617.012 128.706C616.074 127.817 615.151 126.875 614.228 125.877C609.952 121.287 606.449 116.109 603.223 110.733C602.82 110.065 602.418 109.397 602.023 108.721V108.714C601.085 107.118 600.162 105.507 599.246 103.888C598.923 103.33 598.608 102.764 598.3 102.215C597.692 101.154 597.093 100.085 596.485 99.0235C595.712 97.6485 594.915 96.2734 594.111 94.9134C586.601 82.1591 581.22 77.6325 576.156 73.5932C575.595 73.1531 575.043 72.713 574.499 72.265C574.223 72.045 573.947 71.825 573.671 71.5971C573.118 71.157 572.574 70.6933 572.014 70.2061C571.761 69.9939 571.517 69.7817 571.272 69.5538C570.357 68.7286 569.442 67.8564 568.503 66.8504C568.132 66.4576 567.754 66.0331 567.367 65.6009C567.351 65.5931 567.351 65.5852 567.344 65.5774C566.949 65.1295 566.547 64.65 566.137 64.1471C565.947 63.9113 565.758 63.6677 565.553 63.4241C565.056 62.7875 564.551 62.1117 564.038 61.3887C563.888 61.1844 563.738 60.9722 563.596 60.76C563.162 60.1313 562.713 59.4712 562.263 58.7718C562.003 58.371 561.766 58.0095 561.553 57.6638C558.547 53.0507 558.713 53.6087 554.287 49.0979C554.248 49.0507 554.193 49.0035 554.145 48.9485C552.441 47.2039 549.089 45.6636 545.602 43.9897C545.594 43.9897 545.586 43.9897 545.578 43.9819C541.484 42.0172 537.239 39.8796 535.307 37.027C535.054 36.6576 534.802 36.2883 534.541 35.9111C534.163 35.3452 533.768 34.7873 533.358 34.245C532.964 33.687 532.553 33.1291 532.143 32.5868C531.741 32.0367 531.323 31.4788 530.897 30.9365C530.486 30.3865 530.053 29.8442 529.627 29.2941C529.201 28.744 528.759 28.186 528.325 27.6438C526.132 24.8854 523.86 22.1035 521.564 19.1957C521.106 18.6142 520.641 18.0248 520.183 17.4354C519.253 16.2487 518.33 15.0385 517.414 13.8047C516.507 12.5945 515.608 11.3528 514.716 10.0797C514.235 9.40391 513.77 8.7202 513.304 8.02079C513.044 7.63572 512.784 7.2585 512.539 6.86557H670.776C670.783 6.86557 670.791 6.85771 670.791 6.84985C670.791 6.85771 670.791 6.86557 670.791 6.86557H978.263Z" fill="#FDD5C8"/>
<path d="M844.035 122.536C841.416 123.157 839.396 120.305 838.245 117.869C833.645 108.258 829.212 98.5754 824.944 88.8152C818.68 106.113 827.255 124.399 830.663 142.765C831.239 145.837 831.657 148.918 831.847 151.983C832.194 157.672 831.365 164.069 826.932 167.676C826.135 168.321 825.259 168.856 824.36 169.342C823.35 169.909 822.301 170.427 821.331 171.056C819.256 172.384 817.56 174.097 816.069 176.007C813.797 178.891 811.974 182.246 810.002 185.445V185.453C809.418 186.396 808.819 187.331 808.196 188.235C804.062 194.208 796.504 199.481 789.877 196.439C788.473 195.795 787.172 194.789 785.633 194.593C779.724 193.869 779.219 203.646 774.399 207.142C770.92 209.657 766.132 208.259 761.832 208.172C755.963 208.062 750.504 210.616 744.926 212.605C744.824 212.573 744.713 212.534 744.611 212.502C731.57 208.109 717.772 201.123 706.665 196.282C687.4 187.881 682.107 183.96 666.486 163.661C661.706 157.445 655.955 149.704 648.531 139.81V139.802C648.523 139.794 648.523 139.794 648.515 139.786H648.46C648.452 139.786 648.452 139.786 648.444 139.786H647.734C647.742 139.739 647.75 139.692 647.766 139.645C647.829 139.275 647.955 138.93 648.129 138.592C648.76 137.398 650.022 136.706 651.213 136.069C653.044 135.087 654.858 134.073 656.649 133.028C660.72 130.709 664.727 128.265 668.656 125.728C677.641 119.928 686.28 113.601 694.603 106.875C701.569 101.247 708.321 95.3299 714.885 89.1923C732.02 73.1688 747.885 55.6205 762.937 37.6714C767.149 32.6497 771.338 27.573 775.567 22.5278C777.295 20.4532 779.038 18.3942 780.789 16.3431C783.527 13.1446 786.288 9.97762 789.104 6.8656H838.773L846.938 115.425C847.159 118.214 846.773 121.884 844.035 122.536Z" fill="#EFC3B6"/>
<path d="M670.773 6.86557C670.197 10.6691 671.168 14.7006 673.795 17.1446C674.426 17.7419 675.152 18.237 675.98 18.6221C679.775 20.3745 684.185 19.2193 688.358 18.9128C692.523 18.6064 697.627 19.8873 698.795 23.8952C699.465 26.2214 698.519 28.7126 697.28 30.8029C691.679 40.2412 680.69 44.8463 670.45 48.8385C668.202 49.7186 665.843 50.6145 663.437 50.4102C661.023 50.2059 658.553 48.5556 658.269 46.1587C658.001 43.864 659.634 41.1606 658.088 39.4475C656.763 37.9543 654.325 38.7087 652.526 39.581C631.928 49.7186 612.001 64.7365 589.028 64.1156C579.569 63.8563 570.457 60.9093 561.543 57.6559C561.764 57.9938 561.993 58.3553 562.253 58.7639C562.703 59.4634 563.152 60.1234 563.586 60.7522C563.728 60.9643 563.878 61.1765 564.028 61.3809C564.541 62.1038 565.046 62.7797 565.543 63.4162C565.748 63.6677 565.937 63.9113 566.126 64.1392C566.537 64.6422 566.939 65.1137 567.333 65.5695C567.341 65.5774 567.341 65.5852 567.357 65.5931C567.736 66.0253 568.114 66.4497 568.493 66.8426C569.432 67.8407 570.347 68.7208 571.262 69.5459C571.515 69.7738 571.759 69.9861 572.004 70.1983C572.564 70.6933 573.116 71.1491 573.66 71.5892C573.936 71.8171 574.213 72.0372 574.489 72.2572C575.041 72.7051 575.585 73.1452 576.145 73.5853C589.004 74.7641 602.1 74.3869 613.949 69.5224C615.866 68.7286 617.862 67.8171 619.921 68.0528C621.988 68.2965 623.992 70.2768 623.377 72.2493C622.84 73.9704 620.805 74.6383 619.069 75.1649C612.127 77.3181 605.847 81.5225 601.209 87.1018C599.339 89.3572 597.666 92.4773 598.984 95.0941C599.031 95.1887 599.079 95.2826 599.134 95.3694C598.96 95.464 598.795 95.5737 598.629 95.6912C597.509 96.5085 596.83 97.68 596.459 99.0078C597.035 100.021 597.611 101.035 598.179 102.057C598.526 102.662 598.866 103.275 599.213 103.88C600.128 105.499 601.051 107.11 601.99 108.706V108.714C602.384 109.389 602.786 110.057 603.189 110.725C606.415 116.101 609.918 121.287 614.194 125.869C615.117 126.867 616.04 127.81 616.979 128.698C618.32 129.303 619.685 129.837 621.065 130.285C632.425 134.034 644.661 133.68 656.644 133.012C657.488 132.973 658.317 132.926 659.153 132.879C668.328 132.352 677.629 131.818 686.346 128.926C699.899 124.446 711.007 114.67 720.789 104.312C740.354 83.6208 756.187 59.7699 771.918 36.0603C774.797 31.7146 777.716 27.298 779.373 22.355C780.027 20.3903 780.485 18.3706 780.785 16.3273C781.211 13.5847 781.408 10.7949 781.558 8.02079C781.574 7.62786 781.589 7.24278 781.613 6.84985H670.773V6.86557ZM709.745 59.8798C711.804 58.4732 713.95 56.9486 716.442 56.7443C719.89 56.4613 723.148 58.9526 724.544 62.1038C725.941 65.263 725.759 68.9094 724.915 72.2493C723.29 78.717 719.472 84.2258 714.888 89.1923C712.388 91.9274 709.658 94.489 706.944 96.9487C703.047 100.477 699.008 104.014 694.606 106.883C691.466 108.918 688.153 110.615 684.563 111.723C675.617 114.505 665.985 113.374 656.692 112.226C640.795 110.253 624.197 108.014 611.054 98.8823C610.502 98.5052 609.926 98.1124 609.342 97.7195C618.896 96.4225 628.165 93.5383 637.364 90.662C662.498 82.8114 688.058 74.7563 709.745 59.8798Z" fill="#E0AFA1"/>
<path d="M870.622 125.381C878.645 120.957 886.661 116.525 894.684 112.1C899.362 109.515 904.19 106.804 907.345 102.513C908.489 100.949 909.404 98.8901 908.6 97.1293C907.858 95.5105 905.846 94.7879 904.071 94.9764C902.296 95.1729 900.687 96.0848 899.141 96.9723C892.262 100.949 885.375 104.917 878.496 108.894C874.693 111.086 870.709 113.46 868.571 117.287C867.703 118.835 867.206 120.792 868.074 122.34C868.966 123.912 871.04 124.502 872.823 124.187C874.598 123.881 876.168 122.867 870.622 125.381Z" fill="#EFC3B6"/>
<path d="M948.446 6.86552C945.496 8.13862 942.364 9.08166 939.279 10.009C937.063 10.677 934.838 11.3449 932.621 12.0129C928.29 13.3175 923.967 14.622 919.636 15.9187C918.137 16.3666 916.433 16.7988 915.1 15.9972C914.208 15.4628 913.695 14.5041 913.206 13.6004C911.968 11.3056 910.65 9.05808 909.246 6.85767H948.446V6.86552Z" fill="#EFC3B6"/>
<path d="M826.895 194.553C826.382 200.282 824.781 205.901 822.248 211.072C818.832 211.992 815.353 212.817 811.835 213.547C812.876 204.172 812.269 194.608 810.005 185.452C809.634 183.905 809.2 182.372 808.727 180.848C811.945 178.239 816.805 173.798 820.828 168.698C821.483 167.865 822.524 166.914 823.447 167.44C823.992 167.747 824.165 168.423 824.291 169.028C824.315 169.13 824.331 169.241 824.355 169.342C826.098 177.649 827.636 186.105 826.895 194.553Z" fill="#EFC3B6"/>
<path d="M670.756 6.8656C668.942 8.52377 666.654 9.6947 664.43 10.8028C647.918 19.015 631.256 26.9523 614.485 34.6223C599.598 41.42 583.946 48.1313 567.585 47.5183C560.003 47.2275 552.304 46.1116 545.583 43.9897C545.575 43.9897 545.567 43.9897 545.559 43.9819C541.464 42.0172 537.22 39.8796 535.287 37.027C535.035 36.6576 534.783 36.2883 534.522 35.9111C534.144 35.3452 533.749 34.7873 533.339 34.245C532.952 33.6871 532.542 33.1292 532.124 32.5869C531.722 32.0368 531.304 31.4788 530.878 30.9366C530.467 30.3865 530.033 29.8442 529.607 29.2941C529.181 28.744 528.74 28.186 528.306 27.6438C526.113 24.8854 523.841 22.1035 521.545 19.1958C521.087 18.6143 520.622 18.0248 520.164 17.4354C519.233 16.2488 518.31 15.0385 517.395 13.8048C516.488 12.5945 515.589 11.3529 514.697 10.0798C514.216 9.40393 513.751 8.72024 513.285 8.02082C513.38 7.63575 513.498 7.25853 513.617 6.8656H515.328C524.487 14.347 532.873 22.7636 540.297 31.9425C543.642 26.2607 537.67 19.9109 535.019 13.8833C534.585 12.8932 534.238 11.7851 534.538 10.7556C535.193 8.50806 538.561 8.21729 540.399 9.67113C542.238 11.1328 542.948 13.5297 543.689 15.7459C545.385 20.8147 547.823 25.7734 551.696 29.4748C555.562 33.1763 561.061 35.4553 566.338 34.5515C566.37 24.9404 555.594 19.2037 551.263 10.622C550.702 9.5061 550.387 8.05226 550.616 6.87346H556.943C561.7 10.347 565.289 15.3293 570.164 18.7164C582.116 27.0387 598.32 23.9738 612.497 20.5711C623.691 17.8756 635.887 14.457 644.005 6.87346H670.756V6.8656Z" fill="#E0AFA1"/>
<path d="M645.188 67.8172C645.125 68.9724 645.022 70.1826 644.407 71.157C643.776 72.1394 642.703 72.7367 641.669 73.2867C632.211 78.3399 622.436 82.7957 612.417 86.615C610.342 87.4165 608.204 88.2101 606.587 89.735C604.015 92.1712 603.29 95.9507 603.069 99.4795C602.864 102.584 602.943 105.79 602.012 108.729C600.134 105.531 598.32 102.262 596.474 99.0235C595.7 97.6484 594.904 96.2734 594.099 94.9133C586.589 82.1591 581.208 77.6326 576.144 73.5932C573.225 71.2671 570.408 69.0902 567.355 65.601C579.512 72.5087 594.612 74.1276 607.928 69.7975C612.062 68.4537 615.999 66.5833 619.983 64.8623C627.611 61.5774 635.469 58.8269 643.476 56.6501C643.886 56.54 644.359 56.4378 644.714 56.6658C645.125 56.9251 645.196 57.4909 645.219 57.9703C645.369 61.2552 645.361 64.5401 645.188 67.8172Z" fill="#99685A"/>
<path d="M730.355 95.5263C743.498 112.768 756.791 130.269 764.988 150.317C768.073 157.877 770.416 165.743 773.966 173.099C774.857 174.946 776.498 177.075 778.478 176.502C779.93 176.077 780.561 174.427 781.634 173.359C784.553 170.459 789.515 172.651 792.678 175.276C795.842 177.9 799.676 181.099 803.557 179.723C803.502 175.559 803.447 171.394 803.383 167.229C803.376 166.592 803.383 165.916 803.754 165.398C804.417 164.47 805.821 164.589 806.918 164.887C809.134 165.484 811.257 166.412 813.197 167.638C811.627 161.689 807.107 156.942 802.169 153.248C797.23 149.555 791.732 146.623 786.99 142.686C773.682 131.613 767.899 114.018 756.854 100.705C755.955 99.6207 754.961 98.3947 755.103 96.996C755.214 95.8726 756.042 94.9607 756.389 93.8917C756.878 92.3912 756.397 90.7724 755.876 89.279C753.904 83.6129 751.332 78.1432 748.224 73.0037C741.471 80.996 735.002 89.2238 730.355 95.5263Z" fill="#C79789"/>
<path d="M724.112 102.6C726.944 111.409 730.202 120.085 733.87 128.588C735.062 131.346 736.411 134.23 738.919 135.904C741.83 137.845 745.712 137.759 748.725 139.527C751.905 141.39 753.593 144.966 755.084 148.329C756.796 152.164 758.508 156.007 760.212 159.842C761.916 163.661 763.651 167.944 762.31 171.905C761.19 175.237 758.05 177.579 754.697 178.663C751.344 179.748 747.747 179.755 744.221 179.763C743.487 179.763 742.722 179.755 742.091 179.386C741.27 178.915 740.884 177.964 740.544 177.084C733.941 160.132 723.552 144.651 710.346 132.093C708.05 129.908 705.462 127.315 705.762 124.163C705.936 122.364 707.048 120.816 708.145 119.378C713.264 112.713 718.984 106.513 724.112 102.6Z" fill="#C79789"/>
<path d="M792.814 6.86549C783.142 21.6397 774.133 36.6654 766.197 51.4396C761.171 59.8562 755.736 68.0213 749.89 75.8878C744.289 83.4478 738.325 90.7409 732.037 97.7265C729.734 100.289 727.383 102.812 725.001 105.287C722.082 108.313 719.1 111.275 716.062 114.167C712.883 117.193 709.609 120.171 706.083 122.78C703.251 124.887 700.277 126.764 697.058 128.234C693.563 129.845 689.863 130.953 686.155 131.991C678.266 134.199 670.291 136.101 662.244 137.68C657.66 138.584 653.038 139.386 648.383 139.771H648.375C648.328 139.779 648.288 139.786 648.241 139.786H647.728C647.247 139.786 646.782 139.779 646.324 139.771C646.087 139.771 645.866 139.763 645.638 139.755C645.291 139.747 644.951 139.739 644.62 139.723C644.281 139.708 643.949 139.692 643.618 139.676C643.255 139.66 642.892 139.637 642.537 139.614C641.701 139.558 640.904 139.487 640.115 139.394C639.855 139.37 639.595 139.338 639.342 139.307C638.23 139.173 637.173 139.001 636.155 138.804C635.832 138.741 635.508 138.678 635.193 138.608C634.853 138.537 634.522 138.458 634.183 138.372C634.151 138.364 634.128 138.364 634.104 138.356C634.088 138.356 634.072 138.348 634.057 138.348C634.049 138.348 634.041 138.348 634.033 138.34C634.025 138.34 634.017 138.34 634.017 138.34H634.009L634.001 138.333C633.93 138.317 633.852 138.293 633.773 138.277C633.512 138.214 633.26 138.152 633.015 138.073C632.723 138.002 632.44 137.924 632.163 137.829C631.927 137.767 631.706 137.696 631.477 137.617C630.846 137.421 630.238 137.208 629.647 136.98C629.3 136.855 628.96 136.722 628.629 136.58C627.596 136.156 626.602 135.684 625.647 135.157C625.371 135.016 625.095 134.859 624.827 134.71C624.527 134.536 624.227 134.364 623.935 134.175C623.675 134.026 623.422 133.861 623.178 133.696C620.993 132.266 618.973 130.6 617.001 128.698C616.062 127.809 615.139 126.867 614.216 125.869C609.94 121.279 606.438 116.101 603.211 110.725C603.227 110.607 603.235 110.474 603.242 110.348C606.13 115.496 612.26 118.041 618.145 118.725C624.03 119.393 629.994 118.575 635.903 118.811C645.906 119.22 655.483 122.647 665.202 125.028C666.346 125.311 667.498 125.578 668.666 125.712C669.589 125.829 670.512 125.877 671.435 125.782C673.849 125.562 676.081 124.502 678.377 123.723C683.962 121.86 690.005 121.727 695.614 119.928C705.949 116.611 713.633 108.124 720.725 99.9276C741.488 75.9271 761.834 51.0545 775.592 22.5042C775.837 22.0169 776.058 21.5297 776.294 21.0346C778.29 16.8067 780.144 12.4608 781.588 8.01285C781.706 7.62778 781.833 7.24271 781.951 6.84192H792.814V6.86549Z" fill="#99685A"/>
<path d="M685.841 13.4825C684.2 15.3215 681.558 15.8323 679.128 16.2487C677.345 16.5474 675.578 16.846 673.795 17.1446C671.602 17.514 669.401 17.8755 667.208 18.2527C666.095 18.4413 664.943 18.6221 663.863 18.292C662.79 17.962 661.835 16.9561 661.969 15.8401C659.453 16.4453 656.984 17.3097 654.64 18.402C650.01 21.5141 644.038 24.2645 638.121 26.9758C623.108 33.8678 608.104 40.7441 593.091 47.6047C590.535 48.7756 587.947 49.9465 585.194 50.5045C582.149 51.1175 579.017 50.9368 575.925 50.7481C568.698 50.3002 561.488 49.7501 554.277 49.0979C554.238 49.0507 554.183 49.0035 554.135 48.9485C552.431 47.2039 549.078 45.6636 545.592 43.9897C545.584 43.9897 545.576 43.9897 545.568 43.9819C541.474 42.0172 537.229 39.8797 535.296 37.027C535.044 36.6576 534.792 36.2883 534.531 35.9111C534.547 35.8953 534.571 35.8875 534.586 35.8796C537.908 34.2529 541.789 34.3079 545.442 34.8266C550.735 35.5731 555.902 37.2234 560.652 39.6596C565.787 42.3001 571.53 45.9858 576.863 43.7461C578.907 42.8817 580.516 41.2471 582.18 39.7696C593.817 29.4984 610.021 26.7007 624.891 22.2213C635.683 18.9678 646.12 14.6378 656.526 10.3155C658.34 9.56894 660.179 8.79879 661.741 7.61214C662.048 7.37638 662.348 7.11705 662.64 6.86557H670.758C670.765 6.86557 670.773 6.85771 670.773 6.84985C670.773 6.85771 670.773 6.86557 670.773 6.86557H687.167C687.608 9.30175 687.443 11.6908 685.841 13.4825Z" fill="#99685A"/>
<path d="M568.738 53.2864C577.479 55.2511 586.701 54.0409 595.198 51.1961C603.686 48.3434 611.544 43.9111 619.22 39.306C623.33 36.8384 627.55 34.2607 632.3 33.5928C628.647 37.6164 624.616 41.2942 620.269 44.5556C613.106 49.9387 605.004 54.2453 596.247 56.2099C587.49 58.1745 578.047 57.703 568.738 53.2864Z" fill="#FEE4DB"/>
<path d="M648.084 103.07C654.332 103.511 660.643 103.118 666.789 101.916C671.94 100.91 677.273 99.1418 680.657 95.1334C670.615 94.3871 661.258 101.578 651.216 100.823C650.388 100.761 649.536 100.65 648.755 100.91C647.974 101.169 647.287 101.955 647.461 102.764C648.186 102.858 648.92 102.961 648.084 103.07Z" fill="#FEE4DB"/>
<path d="M613.338 13.6004C611.965 16.3038 608.423 16.9325 605.394 17.1132C599.588 17.4747 593.758 17.4118 587.959 16.9325C584.804 16.6653 581.546 16.2487 578.863 14.567C575.921 12.7281 574.098 9.66324 572.008 6.84985H578.926C579.297 7.13276 579.668 7.41567 580.062 7.67501C584.433 10.6377 589.955 11.3371 595.241 11.2507C600.518 11.1642 605.796 10.402 611.066 10.8185C612.084 10.9049 613.33 11.2114 613.59 12.2016C613.701 12.681 613.559 13.176 613.338 13.6004Z" fill="#FEE4DB"/>
<path d="M851.127 132.376C848.642 152.203 846.157 172.022 843.672 191.85C852.46 180.109 856.026 164.627 853.257 150.246C852.042 143.935 849.667 137.735 851.127 132.376Z" fill="#FEE4DB"/>
<path d="M1499.41 446.422C1499.41 446.422 1496.56 445.904 1490.55 446.005C1490.23 446.005 1489.91 446.013 1489.58 446.021C1487.27 446.076 1484.54 446.226 1481.37 446.517C1474.29 447.168 1464.99 448.528 1453.35 451.224C1453.11 451.278 1452.87 451.326 1452.63 451.389C1444.61 453.267 1435.47 455.766 1425.18 459.082C1424.94 459.153 1424.71 459.231 1424.48 459.318C1412.35 463.255 1398.62 468.332 1383.22 474.839C1376.5 477.676 1369.45 480.796 1362.09 484.214C1345 492.151 1326.14 501.716 1305.43 513.22C1305.1 513.409 1304.77 513.582 1304.45 513.771C1297.76 517.495 1290.87 521.425 1283.77 525.582C1276.9 529.605 1269.84 533.834 1262.59 538.266C1262.22 538.486 1261.87 538.706 1261.51 538.934C1260.79 539.373 1260.05 539.822 1259.33 540.27C1258.38 540.851 1257.44 541.44 1256.48 542.038C1255.6 542.58 1254.72 543.114 1253.85 543.672C1253.66 543.775 1253.5 543.884 1253.32 543.995C1253.4 544.27 1253.47 544.545 1253.55 544.82C1253.55 544.828 1253.55 544.828 1253.55 544.828C1254.67 548.788 1255.77 552.773 1256.88 556.796C1256.9 556.851 1256.91 556.899 1256.92 556.961C1257.99 560.805 1259.05 564.687 1260.13 568.577C1260.48 569.889 1260.84 571.201 1261.21 572.521C1262.99 578.982 1264.8 585.473 1266.67 591.995C1267.03 593.245 1267.38 594.502 1267.75 595.752C1268.07 596.844 1268.39 597.944 1268.71 599.037C1268.74 599.123 1268.76 599.217 1268.79 599.303C1269.17 600.624 1269.56 601.944 1269.96 603.264C1270.43 604.844 1270.91 606.416 1271.4 607.995C1271.73 609.08 1272.06 610.18 1272.4 611.265C1273.65 615.288 1274.93 619.304 1276.25 623.304C1276.68 624.601 1277.11 625.889 1277.54 627.186C1277.96 628.444 1278.4 629.709 1278.83 630.966C1279.33 632.42 1279.83 633.858 1280.35 635.312C1280.61 636.027 1280.87 636.758 1281.12 637.481C1281.8 639.398 1282.51 641.316 1283.23 643.226C1283.47 643.87 1283.71 644.506 1283.95 645.143C1284.19 645.78 1284.43 646.416 1284.68 647.053C1285.18 648.365 1285.69 649.678 1286.21 650.99C1286.51 651.784 1286.83 652.57 1287.15 653.355C1287.3 653.732 1287.45 654.11 1287.61 654.495C1288.03 655.54 1288.46 656.585 1288.9 657.622C1289.15 658.243 1289.41 658.864 1289.67 659.477C1290.11 660.546 1290.58 661.623 1291.03 662.691C1273.01 731.155 1279.44 802.711 1294.24 870.824C1294.51 872.062 1294.78 873.293 1295.06 874.531C1295.33 875.762 1295.6 876.993 1295.89 878.224C1296.16 879.454 1296.45 880.693 1296.73 881.916C1296.98 882.996 1297.24 884.085 1297.49 885.166C1297.51 885.308 1297.54 885.458 1297.58 885.6C1297.92 887.043 1298.26 888.487 1298.61 889.931C1299.11 892.053 1299.62 894.167 1300.15 896.281C1300.56 898.009 1301 899.737 1301.43 901.464C1302.06 903.957 1302.69 906.458 1303.33 908.951C1303.76 910.663 1304.2 912.375 1304.65 914.079C1304.88 914.97 1305.11 915.846 1305.35 916.729C1305.61 917.731 1305.87 918.741 1306.14 919.751C1306.64 921.621 1307.13 923.49 1307.64 925.36C1307.65 925.399 1307.66 925.439 1307.67 925.486C1307.73 925.723 1307.79 925.944 1307.86 926.18C1307.86 926.188 1307.86 926.196 1307.87 926.204C1308.59 928.871 1309.31 931.545 1310.04 934.196C1314.28 949.753 1318.72 965.27 1323.13 980.796C1323.65 982.618 1324.16 984.44 1324.68 986.263C1325.71 989.915 1326.76 993.552 1327.78 997.213C1328.78 1000.76 1329.78 1004.33 1330.77 1007.88C1331.81 1011.63 1332.85 1015.38 1333.88 1019.14C1334.87 1022.8 1335.87 1026.45 1336.85 1030.12C1337.82 1033.79 1338.79 1037.44 1339.74 1041.11C1340.22 1042.94 1340.69 1044.78 1341.15 1046.62H911.379C911.379 1046.63 911.371 1046.64 911.371 1046.65C911.347 1046.72 911.332 1046.77 911.308 1046.84C911.316 1046.78 911.324 1046.72 911.332 1046.65V1046.62H810.543C810.353 1046.19 810.164 1045.75 809.959 1045.32C809.336 1043.9 808.704 1042.47 808.065 1041.04C806.101 1036.6 804.089 1032.16 802.054 1027.7C801.273 1025.96 800.476 1024.22 799.672 1022.48C799.451 1021.99 799.238 1021.52 799.009 1021.03C798.086 1019.03 797.155 1017.01 796.216 1014.99C795.727 1013.93 795.238 1012.87 794.733 1011.81C794.236 1010.75 793.747 1009.69 793.242 1008.63C790.047 1001.78 786.789 994.925 783.475 988.061C782.213 985.434 780.943 982.807 779.657 980.18C778.616 978.027 777.559 975.881 776.51 973.727C775.689 972.07 774.877 970.398 774.048 968.733C773.251 967.108 772.455 965.491 771.642 963.874C770.033 960.639 768.415 957.381 766.79 954.147C763.524 947.615 760.211 941.083 756.882 934.574C755.249 931.387 753.608 928.192 751.951 925.013C750.326 921.857 748.693 918.717 747.044 915.578C745.916 913.416 744.796 911.262 743.66 909.117C742.516 906.931 741.372 904.746 740.213 902.569C739.092 900.431 737.964 898.301 736.82 896.179C735.274 893.252 733.72 890.333 732.158 887.422C731.188 885.6 730.217 883.785 729.239 881.979C724.577 873.309 719.891 864.694 715.205 856.166C714.069 854.099 712.94 852.04 711.797 849.981C710.661 847.922 709.532 845.871 708.389 843.82C708.12 843.323 707.844 842.834 707.568 842.345C706.471 840.349 705.351 838.353 704.239 836.365C703.584 835.181 702.921 833.998 702.267 832.831C701.083 830.716 699.908 828.618 698.732 826.519C695.814 821.321 692.887 816.161 689.984 811.041C689.913 810.915 689.834 810.781 689.763 810.647C687.57 806.813 685.392 803.002 683.223 799.208C682.347 797.693 681.479 796.178 680.619 794.677C679.752 793.168 678.892 791.668 678.024 790.174C677.353 788.996 676.683 787.84 676.004 786.677C675.342 785.506 674.671 784.351 673.993 783.196C672.233 780.154 670.482 777.145 668.739 774.142C667.366 771.793 665.993 769.451 664.636 767.125C664.416 766.755 664.202 766.386 663.982 766.009C661.473 761.726 658.98 757.49 656.503 753.301C656.361 753.057 656.211 752.807 656.069 752.571C655.43 751.494 654.799 750.417 654.16 749.348C652.89 747.203 651.628 745.065 650.365 742.952C649.742 741.899 649.111 740.837 648.48 739.784C647.762 738.574 647.036 737.364 646.318 736.177C644.882 733.773 643.455 731.391 642.027 729.018C641.325 727.824 640.615 726.645 639.897 725.474C639.4 724.649 638.911 723.823 638.406 722.998C634.935 717.231 631.495 711.564 628.118 706.008C626.975 704.146 625.854 702.291 624.734 700.46C623.645 698.668 622.549 696.9 621.468 695.132C620.853 694.126 620.23 693.12 619.614 692.114C618.999 691.116 618.391 690.118 617.776 689.12C617.169 688.13 616.553 687.148 615.954 686.165C615.346 685.175 614.739 684.2 614.131 683.226C612.924 681.277 611.733 679.352 610.55 677.434C609.359 675.517 608.191 673.623 607.016 671.744C605.84 669.866 604.688 668.004 603.536 666.165C602.961 665.238 602.385 664.326 601.817 663.415C600.673 661.591 599.545 659.784 598.424 658.007C595.056 652.656 591.79 647.485 588.619 642.495C588.09 641.662 587.569 640.836 587.041 640.019C584.351 635.791 581.739 631.713 579.207 627.768C577.811 625.583 576.422 623.445 575.073 621.355C574.742 621.277 574.403 621.206 574.071 621.12C573.858 621.072 573.645 621.025 573.432 620.97C572.312 620.711 571.2 620.443 570.079 620.176C569.346 619.995 568.612 619.823 567.878 619.642C566.269 619.257 564.66 618.864 563.05 618.455C555.848 616.663 548.661 614.778 541.514 612.789C490.377 598.597 440.511 579.327 393.399 555.248C392.657 554.871 391.915 554.486 391.174 554.093C388.484 552.718 385.809 551.319 383.143 549.897C383.143 549.897 383.135 549.897 383.127 549.889C380.161 548.325 377.21 546.729 374.268 545.118C368.383 541.896 362.553 538.596 356.778 535.233C356.754 535.217 356.723 535.201 356.699 535.185C363.373 479.098 370.055 423.004 376.729 366.908C383.861 307.049 392.965 242.774 433.672 198.726C454.775 188.777 475.499 178.019 495.789 166.435C530.698 146.529 564.321 124.187 596.46 99.3848C600.689 107.974 604.98 116.666 611.165 123.983C611.512 124.391 611.867 124.808 612.23 125.208C612.27 125.256 612.309 125.295 612.341 125.335C612.664 125.688 612.995 126.042 613.327 126.387C613.697 126.78 614.076 127.166 614.471 127.551C614.857 127.928 615.252 128.305 615.654 128.674C616.459 129.405 617.279 130.12 618.123 130.796C618.502 131.102 618.881 131.393 619.275 131.684C619.662 131.975 620.048 132.258 620.45 132.533C621.208 133.075 621.997 133.57 622.786 134.05C623.243 134.325 623.709 134.592 624.182 134.851C624.426 134.984 624.663 135.111 624.892 135.228C625.073 135.323 625.255 135.417 625.436 135.504C626.209 135.889 627.006 136.25 627.811 136.572C628.04 136.666 628.253 136.761 628.481 136.839C629.507 137.232 630.556 137.57 631.613 137.853C631.874 137.924 632.134 137.987 632.386 138.057C632.741 138.144 633.096 138.222 633.451 138.293C633.633 138.333 633.799 138.364 633.98 138.396H633.988C633.988 138.396 633.996 138.396 634.004 138.396C634.011 138.404 634.019 138.404 634.027 138.404C634.043 138.404 634.059 138.411 634.075 138.411C634.098 138.419 634.122 138.419 634.153 138.426C634.264 138.442 634.382 138.466 634.501 138.482C634.737 138.521 634.982 138.561 635.211 138.592C635.621 138.646 636.031 138.694 636.441 138.733C636.844 138.781 637.262 138.812 637.672 138.843C637.901 138.859 638.122 138.874 638.35 138.89C638.879 138.93 639.4 138.953 639.928 138.977C640.331 138.993 640.741 139.009 641.143 139.032C641.474 139.047 641.806 139.063 642.137 139.079C642.461 139.095 642.792 139.118 643.123 139.134C643.376 139.15 643.628 139.166 643.873 139.181C644.141 139.205 644.409 139.221 644.677 139.244C644.725 139.252 644.772 139.252 644.819 139.259C645.024 139.283 645.222 139.307 645.427 139.323C645.687 139.354 645.947 139.386 646.2 139.417C646.721 139.48 647.226 139.566 647.738 139.668C647.746 139.668 647.762 139.676 647.77 139.676C647.849 139.692 647.935 139.708 648.014 139.723C648.093 139.739 648.18 139.755 648.251 139.771C648.29 139.779 648.322 139.786 648.354 139.794H648.361C648.385 139.794 648.401 139.802 648.417 139.81C648.425 139.81 648.425 139.81 648.433 139.81C648.456 139.81 648.48 139.818 648.503 139.826C648.559 139.842 648.606 139.85 648.669 139.865C648.811 139.896 648.953 139.928 649.087 139.967C649.308 140.022 649.521 140.077 649.734 140.156C649.868 140.195 650.01 140.235 650.137 140.281C650.365 140.352 650.586 140.431 650.815 140.517C653.3 141.453 655.517 142.977 657.765 144.375C663.445 147.896 669.535 150.717 675.752 153.193C676.344 153.429 676.943 153.657 677.535 153.885C678.119 154.113 678.702 154.333 679.286 154.545C680.596 155.04 681.913 155.511 683.246 155.975C683.743 156.148 684.24 156.313 684.737 156.478C685.345 156.682 685.952 156.879 686.56 157.075C687.151 157.272 687.743 157.452 688.343 157.642C689.124 157.892 689.92 158.128 690.717 158.356C690.914 158.419 691.104 158.474 691.301 158.537C691.419 158.568 691.546 158.608 691.664 158.639C691.838 158.686 691.995 158.733 692.169 158.781C692.492 158.875 692.816 158.969 693.139 159.056C693.289 159.095 693.455 159.142 693.605 159.181C693.92 159.268 694.236 159.362 694.551 159.441C695.001 159.559 695.451 159.685 695.9 159.802C696.587 159.991 697.265 160.156 697.959 160.328C698.464 160.455 698.953 160.58 699.458 160.698C699.513 160.714 699.577 160.721 699.64 160.737C699.916 160.8 700.192 160.863 700.468 160.934C700.744 161.005 701.028 161.068 701.304 161.13C701.88 161.256 702.456 161.39 703.024 161.516C703.119 161.539 703.221 161.554 703.316 161.578C703.892 161.696 704.46 161.822 705.028 161.94C705.777 162.089 706.542 162.246 707.292 162.387C707.789 162.482 708.278 162.584 708.775 162.671C709.406 162.78 710.029 162.899 710.661 163.008C711.757 163.205 712.869 163.378 713.982 163.551C714.195 163.582 714.392 163.613 714.605 163.645C715.299 163.748 715.993 163.857 716.703 163.952C717.382 164.046 718.068 164.14 718.747 164.226C719.228 164.282 719.701 164.345 720.183 164.407C720.206 164.407 720.23 164.415 720.253 164.415C720.845 164.486 721.429 164.549 722.021 164.619C722.565 164.675 723.093 164.73 723.638 164.793C724.387 164.863 725.137 164.934 725.886 165.005C726.02 165.02 726.162 165.028 726.296 165.044C727.409 165.138 728.521 165.224 729.641 165.303C730.272 165.343 730.911 165.382 731.55 165.414C732.821 165.492 734.091 165.547 735.361 165.594H735.369C738.012 165.688 740.662 165.728 743.305 165.712C743.968 165.712 744.63 165.704 745.285 165.688C745.948 165.68 746.61 165.665 747.273 165.641C747.928 165.625 748.591 165.602 749.253 165.579C749.916 165.555 750.571 165.523 751.233 165.492C751.936 165.46 752.646 165.421 753.356 165.382C753.774 165.358 754.2 165.335 754.618 165.303C754.641 165.303 754.665 165.303 754.689 165.295C755.501 165.24 756.298 165.186 757.111 165.115C758.767 164.981 760.416 164.824 762.073 164.651H762.081C764.716 164.368 767.35 164.022 769.97 163.621C781.661 161.853 793.171 158.953 804.255 154.946H804.263C813.398 151.653 822.226 147.598 830.659 142.788C835.117 140.258 839.456 137.515 843.66 134.568C862.326 121.475 878.174 104.808 892.927 87.4559C908.784 68.7836 920.609 37.4906 932.616 12.0444C933.437 10.2919 934.257 8.57872 935.085 6.89697H1081.43C1180.72 26.8736 1260.61 64.8072 1325.08 109.263C1351.99 127.825 1384.29 148.478 1398.07 169.092C1428.96 215.237 1466.7 286.059 1482.15 344.072C1486.7 361.172 1493 402.036 1496.6 426.658C1498.31 438.374 1499.41 446.422 1499.41 446.422Z" fill="#709EB8"/>
<path d="M1268.58 1046.62H831.363C820.642 1027.36 812.966 1004.87 809.258 978.618C879.88 1052.23 1084.75 1026.2 1216.8 1002.76C1239.32 998.767 1203.71 932.523 1201.2 901.433C1199.57 881.19 1198.02 852.245 1204.43 832.965C1208.08 821.983 1187.94 773.899 1177.1 769.75C1173.79 768.484 1161.82 801.251 1158.69 799.579C1150.64 795.29 1155.01 783.211 1159.64 775.368C1180.2 740.554 1186.14 699.344 1191.66 659.32C1202.53 580.64 1213.4 501.966 1224.27 423.294L1268.58 1046.62Z" fill="#4E768F"/>
<path d="M821.307 825.612C819.003 859.29 823.46 900.636 826.032 916.895C835.728 978.255 835.333 1005.39 848.303 1046.62H810.538C810.349 1046.2 810.16 1045.75 809.954 1045.32C809.339 1043.9 808.7 1042.47 808.061 1041.04C806.097 1036.6 804.085 1032.16 802.05 1027.7C801.269 1025.96 800.472 1024.22 799.667 1022.48C799.446 1021.99 799.233 1021.52 799.005 1021.03C798.082 1019.03 797.151 1017.01 796.212 1014.99C795.723 1013.93 795.234 1012.87 794.729 1011.81C794.232 1010.75 793.743 1009.68 793.238 1008.63C790.043 1001.78 786.785 994.925 783.471 988.061C782.201 985.434 780.931 982.807 779.653 980.18C778.612 978.027 777.555 975.881 776.505 973.727C775.685 972.07 774.872 970.398 774.044 968.734C773.247 967.108 772.45 965.491 771.638 963.874C770.036 960.632 768.419 957.381 766.786 954.147C763.52 947.615 760.207 941.083 756.878 934.574C755.245 931.387 753.604 928.192 751.947 925.013C750.322 921.857 748.689 918.71 747.04 915.578C745.912 913.416 744.792 911.262 743.656 909.117C742.512 906.931 741.368 904.746 740.208 902.569C739.088 900.431 737.96 898.301 736.816 896.179C735.278 893.252 733.716 890.333 732.154 887.422C731.183 885.6 730.213 883.785 729.235 881.979C724.572 873.309 719.886 864.694 715.2 856.166C714.064 854.099 712.936 852.04 711.792 849.981C710.656 847.922 709.528 845.871 708.384 843.82C708.116 843.323 707.84 842.834 707.564 842.345C706.467 840.349 705.347 838.353 704.235 836.365C703.58 835.181 702.917 833.998 702.262 832.831C701.079 830.716 699.904 828.618 698.728 826.519C695.809 821.321 692.882 816.161 689.979 811.041C689.908 810.915 689.829 810.781 689.758 810.647C687.565 806.813 685.388 803.002 683.218 799.208C682.343 797.693 681.475 796.179 680.615 794.677C679.747 793.168 678.887 791.667 678.02 790.174C677.349 788.995 676.679 787.84 676 786.677C675.337 785.506 674.667 784.351 673.988 783.196C672.229 780.155 670.478 777.144 668.734 774.142C667.362 771.793 665.989 769.451 664.632 767.124C664.411 766.755 664.198 766.386 663.977 766.009C661.469 761.726 658.976 757.49 656.499 753.301C656.357 753.058 656.207 752.806 656.065 752.571C655.426 751.494 654.795 750.417 654.156 749.348C652.885 747.203 651.623 745.065 650.361 742.952C649.738 741.899 649.107 740.838 648.476 739.784C647.758 738.574 647.032 737.364 646.314 736.178C644.878 733.772 643.45 731.391 642.022 729.018C641.32 727.824 640.61 726.645 639.892 725.474C639.395 724.649 638.906 723.823 638.401 722.998C634.93 717.23 631.491 711.564 628.114 706.008C626.97 704.145 625.85 702.291 624.73 700.46C623.641 698.668 622.545 696.9 621.464 695.132C620.848 694.126 620.225 693.12 619.61 692.114C618.995 691.116 618.387 690.118 617.772 689.12C617.164 688.13 616.549 687.148 615.949 686.165C615.342 685.183 614.734 684.2 614.127 683.226C612.92 681.277 611.729 679.352 610.545 677.434C609.354 675.516 608.187 673.623 607.011 671.745C605.836 669.866 604.684 668.004 603.532 666.165C602.956 665.246 602.38 664.326 601.812 663.415C600.669 661.592 599.54 659.783 598.42 658.008C595.052 652.656 591.786 647.485 588.614 642.495C588.086 641.662 587.565 640.837 587.036 640.019C584.346 635.792 581.735 631.713 579.203 627.768C577.806 625.583 576.418 623.445 575.069 621.355C574.738 621.277 574.398 621.206 574.067 621.12C573.854 621.072 573.641 621.025 573.428 620.97C572.308 620.711 571.195 620.444 570.075 620.176C569.342 619.995 568.608 619.823 567.874 619.642C566.265 619.257 564.655 618.864 563.046 618.456C562.636 615.147 562.249 611.846 561.902 608.522C561.65 606.125 561.405 603.721 561.2 601.315C561.192 601.284 561.184 601.253 561.184 601.221C561.066 599.854 560.94 598.486 560.829 597.127V597.095C560.443 592.483 560.104 587.877 559.812 583.241C559.378 576.199 559.039 569.111 558.778 561.983V561.944C556.987 513.928 558.526 464.222 554.25 412.968V412.937C553.508 403.993 552.585 395.003 551.434 385.958C574.769 511.947 657.548 679.556 778.604 660.963H778.612C780.268 660.711 781.933 660.42 783.605 660.09C783.945 660.027 784.284 659.964 784.623 659.886H784.631C787.084 659.383 789.554 658.817 792.031 658.165C793.877 657.678 795.668 657.293 797.411 656.986C797.427 656.986 797.45 656.978 797.466 656.978C798.697 656.766 799.904 656.609 801.079 656.476C801.087 656.476 801.095 656.476 801.095 656.476C803.667 656.208 806.136 656.145 808.487 656.271C826.324 657.214 838.086 668.978 844.287 685.733C846.33 691.249 847.774 697.301 848.634 703.682C849.06 706.825 849.344 710.048 849.486 713.332C849.77 719.698 849.518 726.283 848.76 732.901C848.105 738.692 847.048 744.508 845.613 750.221C845.194 751.903 844.737 753.577 844.248 755.235C842.654 760.681 840.698 766.009 838.394 771.093C837.526 773.034 836.595 774.936 835.625 776.799C834.773 778.417 833.897 780.013 832.974 781.561C832.359 782.606 831.72 783.644 831.065 784.658C830.079 786.19 829.18 787.903 828.351 789.774C826.679 793.577 825.33 798.04 824.257 803.003C823.744 805.322 823.31 807.76 822.924 810.292C822.569 812.603 822.261 814.986 821.993 817.439C821.733 820.082 821.504 822.819 821.307 825.612Z" fill="#4E768F"/>
<path d="M1227.33 405.101C1193.24 355.576 1174.08 295.992 1172.93 235.952C1187.93 281.092 1202.92 326.224 1217.92 371.364C1211.41 344.236 1211.56 315.552 1218.37 288.495C1227.19 335.914 1234.22 383.663 1239.42 431.608C1236.2 420.104 1231.09 410.555 1227.33 405.101Z" fill="#4E768F"/>
<path d="M788.625 657.992C805.957 625.19 803.693 583.005 782.953 552.231C811.724 537.928 840.314 514.658 843.43 482.784C847.406 442.123 809.862 411.278 787.024 377.345C811.038 406.901 838.144 433.958 867.759 457.943C869.826 450.996 871.893 444.049 873.96 437.102C879.451 440.811 884.934 444.528 890.424 448.237C890.977 439.35 891.529 430.461 892.081 421.573C899.725 429.981 909.863 436.127 920.868 439.027C934.713 403.475 932.18 361.965 914.115 328.347C927.597 366.311 953.773 399.687 987.506 421.887C988.089 428.017 988.681 434.155 989.265 440.284C994.322 432.693 999.379 425.101 1004.44 417.51C1009.26 434.964 1000.69 453.699 988.224 466.878C975.759 480.057 959.721 489.205 945.237 500.128C904.001 531.224 875.94 576.199 849.812 620.664C843.966 630.612 837.884 640.9 828.449 647.563C819.014 654.228 805.184 656.2 788.625 657.992Z" fill="#4E768F"/>
<path d="M919.245 509.598C919.521 521.024 919.797 532.458 920.073 543.885C928.522 551.798 942.044 544.144 950.643 536.396C1007.32 485.369 1056.89 426.524 1097.5 362.067C1099.37 368.551 1101.23 375.034 1103.1 381.517C1107.26 374.248 1115.1 369.188 1123.47 368.386C1120.29 395.867 1120.52 423.734 1124.17 451.161C1132.51 432.34 1144.16 414.98 1158.43 400.103C1156.93 416.363 1159.36 432.96 1165.45 448.12C1168.61 445.345 1171.78 442.571 1174.94 439.797C1172.48 448.952 1174.02 459.106 1179.09 467.122C1187.44 477.888 1195.79 488.646 1204.14 499.413C1208.21 493.794 1212.29 488.183 1216.36 482.564C1219.63 504.599 1229.6 525.606 1244.62 542.117C1164.62 586.848 1076.42 614.659 988.92 642.164C977.639 645.709 966.05 649.301 954.24 648.593C943.645 647.964 933.524 643.886 924.341 638.589C900.374 624.766 881.228 600.891 878.009 573.488C874.806 546.085 890.269 516.222 919.245 509.598Z" fill="#4E768F"/>
<path d="M553.858 428.819C518.918 391.098 488.096 349.588 462.102 305.273C482.684 329.022 503.258 352.779 523.84 376.527C509.838 350.586 497.657 323.678 487.401 296.055C515.257 340.519 540.589 386.555 553.858 428.819Z" fill="#4E768F"/>
<path d="M784.082 797.685C782.867 835.237 781.66 872.788 780.445 910.339C795.6 849.066 831.487 793.074 880.919 753.6C871.594 782.803 864.486 812.706 859.666 842.968C894.314 809.416 928.971 775.872 963.619 742.315C974.45 796.825 996.476 849.098 1027.94 894.988C1010.63 843.986 993.329 792.98 976.02 741.985C989.439 769.365 1007.53 794.465 1029.27 815.893C1014.23 789.223 1002.6 760.641 994.764 731.062C1054.98 771.486 1117.03 809.219 1180.65 844.088C1133.52 808.548 1090.77 767.235 1053.69 721.387C1077.69 730.928 1102.7 737.969 1128.17 742.355C1117.75 734.645 1109.9 723.525 1106.16 711.132C1115.07 719.092 1126.83 723.839 1138.78 724.303C1134.15 711.47 1129.53 698.636 1124.9 685.811C1139.12 700.318 1159.24 708.908 1179.59 709.144C1151.7 663.996 1141.98 608.035 1153.05 556.183C1092.62 618.62 1010.12 653.693 934.043 695.878C874.095 729.12 817.05 767.565 784.082 797.685Z" fill="#4E768F"/>
<path d="M963.344 756.94C963.234 759.8 963.099 762.653 962.95 765.506V765.513C958.232 860.931 940.853 955.701 911.387 1046.61C911.364 1046.68 911.34 1046.76 911.316 1046.83C911.324 1046.76 911.332 1046.69 911.34 1046.61C920.546 953.058 937.839 860.513 955.163 768.115C955.305 767.314 955.463 766.519 955.605 765.718C961.356 763.942 962.918 760.649 963.344 756.94Z" fill="#4E768F"/>
<path d="M963.517 752.712C963.509 754.15 963.509 755.573 963.344 756.94C963.407 755.533 963.454 754.119 963.517 752.712Z" fill="#4E768F"/>
<path d="M1037.49 22.3076C1116.88 45.4906 1196.59 68.7914 1271.84 103.047C1293.52 112.918 1315 123.818 1333.31 139.024C1352.34 154.835 1367.35 174.82 1381.73 194.922C1397.92 217.587 1413.7 240.99 1423.08 267.198C1433.81 297.171 1435.7 329.454 1437.49 361.227C1427.62 326.586 1393.62 305.344 1362.3 287.395C1380.82 291.992 1399.33 296.59 1417.84 301.194C1388.65 255.85 1346.32 220.73 1304.68 186.372C1258.68 148.423 1210.27 109.271 1151.92 96.5717C1174.31 100.321 1196.7 104.061 1219.09 107.809C1161.4 64.8856 1080.78 62.8346 1022.94 20.1072C1029.32 20.4922 1035.3 21.6632 1037.49 22.3076Z" fill="#8BB0C5"/>
<path d="M679.117 848.687C744.524 831.087 815.998 836.175 877.564 808.004C903.045 796.344 925.923 779.321 952.083 769.254C976.586 759.824 1003.05 756.854 1028.4 749.969C1070.08 738.645 1108.59 716.562 1140.28 687.32C1151.5 676.962 1162.09 665.418 1168.11 651.406C1172.77 640.585 1174.49 628.758 1175.54 617.033C1178.08 588.671 1176.92 560.121 1175.77 531.672C1175.58 526.981 1175.39 522.281 1175.19 517.59C1174.38 497.629 1173.56 477.668 1172.75 457.707C1172.5 451.499 1172.18 445.023 1169.14 439.593C1157.77 419.247 1123.9 431.286 1105.1 417.455C1085.55 439.585 1066 461.723 1046.45 483.853C1035.75 495.963 1024.98 508.144 1012.32 518.195C998.154 529.448 981.919 537.786 965.809 546.046C945.748 556.332 925.197 566.784 902.84 569.811C907.202 525.621 968.152 507.381 980.278 464.662C981.288 461.11 981.808 456.945 979.528 454.045C976.033 449.596 968.973 451.247 963.845 453.66C929.93 469.582 904.899 499.79 885.342 531.657C865.778 563.523 850.489 597.944 829.37 628.797C803.707 666.283 770.1 697.576 740.746 732.28C711.399 766.959 685.547 807.026 679.117 848.687Z" fill="#31556B"/>
<path d="M1206.77 509.715C1206.5 513.787 1204.3 517.433 1202.58 521.126C1194.66 538.282 1196.13 559.845 1183.55 573.967C1183.72 574.329 1183.88 574.707 1184.01 575.099C1185.78 579.995 1184.76 586.282 1182.18 591.862C1181.39 593.551 1180.46 595.201 1179.97 596.994C1179.39 599.076 1179.43 601.276 1179.33 603.429C1178.81 613.724 1174.73 623.807 1167.94 631.579C1167.88 631.666 1167.83 631.767 1167.76 631.854C1162.93 639.729 1157.78 648.31 1151.65 656.224C1149.66 658.801 1147.55 661.3 1145.32 663.689C1142.09 667.132 1138.6 670.322 1134.75 673.12C1133.08 674.338 1131.35 675.485 1129.53 676.539C1122.68 680.546 1115.1 683.116 1107.98 686.605C1089.96 695.438 1075.24 709.985 1058.76 721.309C1056.02 723.195 1053.21 724.987 1050.35 726.652C1046.39 728.947 1042.29 731.006 1037.99 732.688C1013.84 742.189 986.45 739.156 961.561 746.503C954.926 748.468 948.528 751.148 942.146 753.82C913.604 765.797 885.054 777.773 856.519 789.75C799.971 835.087 718.321 830.401 654.475 864.402C637.917 873.214 622.801 884.527 606.337 893.52C585.881 904.699 563.642 912.146 541.537 919.554C518.517 927.245 495.497 934.953 472.477 942.645C466.419 944.672 460.123 946.692 453.773 948.246C441.206 951.307 428.41 952.545 416.75 948.435C415.251 947.915 413.776 947.299 412.316 946.589C411.086 946.226 409.879 945.792 408.711 945.319C406.234 944.325 403.867 943.11 401.579 941.714C401.382 941.603 401.193 941.477 400.996 941.359C387.553 932.87 377.408 917.992 368.32 903.934C359.918 890.941 351.524 877.94 343.13 864.946C341.245 862.043 339.351 859.085 337.64 856.063C334.815 851.062 332.48 845.863 331.518 840.238C329.474 828.287 333.869 816.287 337.9 804.848C349.978 770.551 359.381 735.061 361.969 698.802C365.906 643.54 354.538 584.741 378.717 534.848C380.934 538.698 390.945 542.894 400.791 546.989C439.525 563.099 478.394 579.256 518.857 590.368C527.432 592.718 536.062 594.848 544.685 596.986C553.379 599.147 562.064 601.331 570.671 603.791C572.115 604.207 573.551 604.632 574.994 605.056C574.616 611.909 574.237 618.769 573.843 625.615C568.218 655.485 561.804 685.678 553.883 715.486C553.836 715.698 553.781 715.902 553.718 716.114C553.694 716.193 553.678 716.279 553.655 716.358C553.544 716.814 553.41 717.277 553.292 717.733C571.231 709.89 591.537 711.124 611.015 708.767C618.549 707.863 626.012 706.401 633.451 704.948C645.269 702.637 657.102 700.326 668.92 698.016C675.571 696.711 682.245 695.407 688.69 693.309C694.48 691.423 700.034 688.916 705.683 686.644C712.436 683.917 719.331 681.528 726.218 679.132C742.311 673.544 758.397 667.956 774.482 662.385C776.005 661.85 777.527 661.324 779.042 660.798C779.429 660.263 779.807 659.729 780.186 659.186C795.696 636.891 798.756 609.787 809.194 586.093C813.422 566.187 822.573 548.443 833.988 532.6C845.396 516.749 859.06 502.65 872.968 488.921C880.841 481.141 888.919 473.393 898.441 467.743C907.3 462.477 917.264 459.145 925.698 453.236C934.541 447.051 941.262 438.382 947.581 429.652C949.601 426.862 951.944 423.852 954.902 422.343C955.967 421.793 957.119 421.447 958.366 421.369C962.113 421.149 965.497 423.585 968.093 426.296C971.438 429.785 974.049 433.942 975.808 438.438C977.496 442.736 978.427 447.326 978.482 451.939C978.498 453.801 978.388 455.656 978.12 457.495C971.627 473.849 959.525 488.654 943.976 497.81C940.055 500.112 935.882 502.109 932.49 505.118C929.776 507.531 927.654 510.502 925.556 513.456C919.371 522.132 913.201 530.792 907.016 539.476C906.362 540.395 905.707 541.323 905.052 542.242C904.374 543.193 903.672 544.207 903.53 545.37C903.474 545.881 903.522 546.376 903.656 546.863C903.979 548.066 904.792 549.173 905.565 550.188C906.575 551.507 907.648 552.851 908.784 554.109C911.213 556.788 914.022 559.028 917.509 559.641C922.076 560.45 926.605 558.211 930.612 555.877C951.487 543.712 969.331 527.106 986.987 510.651C997.187 501.133 1007.41 491.601 1016.86 481.338C1031.73 465.196 1044.6 447.349 1057.43 429.55C1064.14 415.813 1071.15 401.667 1084.02 394.516C1084.23 394.405 1084.43 394.288 1084.64 394.186C1086.89 392.991 1089.29 392.048 1091.79 391.553C1099.95 389.918 1109.61 394.256 1111.67 402.28C1112.02 403.647 1112.14 405.046 1112.12 406.446C1112.11 408.426 1111.81 410.445 1111.48 412.41C1111.44 412.653 1111.4 412.889 1111.36 413.125C1110.69 417.031 1109.89 420.921 1108.96 424.779C1105.36 439.781 1099.88 454.327 1092.69 467.986C1089.26 474.533 1085.43 480.867 1081.22 486.949C1071.25 501.369 1059.36 514.194 1046.83 526.477C1033.15 539.916 1018.68 552.702 1005.13 566.25C1005.56 566.824 1006.01 567.351 1006.48 567.822C1006.83 568.176 1007.18 568.506 1007.55 568.804C1009.23 570.196 1011.06 571.044 1012.88 571.358C1013.89 571.547 1014.89 571.563 1015.84 571.422C1017.15 571.233 1018.39 570.839 1019.58 570.313C1021.65 569.394 1023.58 568.081 1025.45 566.792C1031.98 562.289 1038.49 557.786 1045.03 553.291C1051.83 548.592 1058.67 543.877 1064.76 538.282C1086.14 518.603 1097.21 489.11 1120.56 471.79C1119.34 457.558 1124.31 443.742 1133.45 433.542C1134.75 432.08 1136.14 430.705 1137.57 429.384C1140.42 426.728 1143.47 424.284 1146.5 421.848C1147.87 420.756 1149.27 419.64 1150.91 419.043C1156.38 417.047 1162.18 421.219 1168 421.211C1171.38 423.341 1173.26 426.532 1174.17 430.265C1175.61 436.151 1174.63 443.349 1173.36 449.683C1171.54 458.721 1169.74 467.766 1167.93 476.795C1166.46 484.12 1164.99 491.507 1162.04 498.383C1158.9 505.707 1154.2 512.254 1149.79 518.902C1140.52 532.859 1132.39 547.57 1125.49 562.84V562.848C1125.18 563.539 1124.87 564.223 1124.56 564.922C1138.34 554.148 1148.55 539.901 1153.55 523.995C1154.78 520.05 1155.72 516.003 1157.07 512.105V512.097C1157.69 510.328 1158.39 508.6 1159.24 506.933C1160 505.448 1160.88 504.026 1161.87 502.682L1161.88 502.674C1165.64 497.582 1170.96 493.644 1177.05 491.877C1184.72 489.637 1193.5 491.051 1199.8 495.979C1203.03 498.509 1205.61 502.085 1206.48 506.022C1206.76 507.209 1206.87 508.458 1206.77 509.715Z" fill="#FDD5C8"/>
<path d="M399.367 896.084C406.522 886.034 420.778 881.695 432.351 886.057C434.252 886.775 436.106 887.698 438.118 887.943C440.366 888.211 442.607 887.604 444.823 887.162C453.675 885.395 463.023 886.215 471.425 889.489C472.869 884.598 473.16 879.367 472.269 874.35C494.319 882.144 517.607 886.452 540.997 887.051C549.62 887.272 558.59 886.917 566.242 882.949C567.544 882.278 568.94 881.269 568.995 879.809C569.035 878.697 568.262 877.719 567.425 876.969C565.106 874.871 562.116 873.632 559.781 871.557C557.446 869.483 555.837 865.956 557.406 863.258C576.324 863.905 595.313 862.517 613.939 859.148C616.81 858.627 619.918 857.925 621.78 855.685C622.995 854.225 623.492 852.316 624.257 850.573C628.289 841.351 639.089 837.477 648.76 834.558C660.065 831.158 671.362 827.75 682.667 824.35C684.703 823.735 686.982 822.914 687.795 820.966C688.568 819.112 687.692 817.005 687.771 815.002C687.953 810.623 692.749 807.696 697.143 807.578C701.538 807.46 705.719 809.274 709.987 810.331C722.569 813.455 735.712 810.095 748.5 807.933C761.281 805.764 775.52 805.125 786.06 812.651C746.008 831.45 697.159 826.188 658.716 848.064C642.355 857.373 628.273 871.408 610.042 876.133C602.413 878.105 594.106 878.437 587.495 882.704C583.811 885.079 580.955 888.511 577.634 891.367C568.656 899.106 556.728 902.38 545.123 904.857C526.632 908.801 507.824 911.286 488.938 912.288C457.848 913.921 425.543 911.247 399.367 896.084Z" fill="#EFC3B6"/>
<path d="M1145.32 663.689C1140.69 668.624 1135.51 673.049 1129.54 676.538C1122.69 680.546 1115.1 683.116 1107.98 686.605C1089.97 695.438 1075.25 709.985 1058.77 721.308C1052.23 725.796 1045.41 729.78 1037.99 732.688C1013.85 742.189 986.455 739.156 961.565 746.503C954.931 748.468 948.533 751.148 942.151 753.82C913.608 765.797 885.058 777.773 856.524 789.75C799.976 835.087 718.325 830.401 654.48 864.402C637.921 873.214 622.806 884.527 606.342 893.52C585.886 904.699 563.647 912.146 541.542 919.554C518.522 927.245 495.502 934.953 472.482 942.645C466.423 944.672 460.128 946.692 453.777 948.246L481.744 910.923C479.203 905.661 476.663 900.407 474.131 895.153C504.969 895.895 535.87 894.285 566.463 890.333C573.973 889.355 583.543 885.892 583.117 878.365C583.014 876.543 582.257 874.705 582.722 872.938C583.558 869.743 587.605 868.796 590.927 868.646C603.77 868.086 617.37 870.429 628.967 864.875C639.475 859.85 646.102 849.342 655.143 841.997C676.38 824.76 706.847 827.292 733.622 821.565C747.72 818.551 761.257 813.053 775.528 811.073C784.443 809.826 793.791 809.913 801.925 806.087C807.66 803.373 812.354 798.916 817.655 795.431C831.074 786.63 848.114 784.303 861.691 773.875C854.449 772.704 847.428 776.342 840.651 779.14C833.875 781.938 825.623 783.832 819.58 779.691C830.774 775.517 841.456 769.961 851.301 763.195C857.147 759.179 862.693 754.739 868.76 751.062C875.3 747.101 882.352 744.091 889.397 741.136C903.992 735.022 918.681 729.12 933.449 723.438C936.747 722.165 940.297 720.876 943.76 721.599C947.231 722.322 950.324 725.946 949.117 729.261C948.044 732.201 944.486 733.262 941.417 733.914C931.69 735.989 921.971 738.055 912.259 740.13C910.91 740.413 909.411 740.798 908.67 741.953C907.684 743.478 908.607 745.654 910.153 746.614C911.699 747.572 913.624 747.62 915.446 747.541C939.082 746.535 959.356 729.395 982.85 726.59C986.739 726.134 990.691 726.063 994.557 725.426C1008.43 723.163 1020.65 713.71 1034.68 713.206C1036.9 718.055 1043.75 718.857 1048.76 716.955C1053.76 715.053 1057.87 711.297 1061.96 709.497C1087.23 689.906 1113.86 669.701 1145.32 663.689Z" fill="#E0AFA1"/>
<path d="M498.275 914.947C490.647 915.175 483.152 918.457 477.843 923.924C475.019 926.827 472.81 930.291 469.907 933.115C462.515 940.278 451.699 942.361 441.546 944.144C434.225 945.414 426.912 946.684 419.591 947.962C418.644 948.127 417.698 948.293 416.743 948.443C415.244 947.922 413.769 947.307 412.31 946.597C411.079 946.234 409.872 945.8 408.704 945.327C406.227 944.333 403.861 943.118 401.573 941.722C401.873 941.453 402.196 941.209 402.535 941.02C404.223 940.049 406.243 939.828 408.168 939.536C415.481 938.408 422.557 935.789 428.813 931.884C431.133 930.425 433.602 928.192 433.136 925.526C432.774 923.451 430.786 922.118 428.971 921.045C424.324 918.268 419.118 915.396 413.809 916.438C410.369 917.108 407.332 919.38 403.837 919.601C397.636 919.98 393.171 914.071 389.455 909.117C381.622 898.624 371.855 889.568 360.787 882.539C366.356 893.954 374.916 903.626 383.791 912.738C390.765 919.901 398.259 927.206 401.312 936.704C401.715 937.959 402.03 939.339 401.518 940.546C401.391 940.854 401.21 941.13 400.989 941.367C387.546 932.878 377.401 918 368.313 903.942C359.911 890.948 351.517 877.947 343.124 864.954C341.238 862.051 339.345 859.093 337.633 856.071C355.399 868.37 372.833 881.142 389.913 894.38C391.341 895.485 392.887 896.636 394.686 896.699C396.871 896.763 398.717 895.224 400.618 894.167C409.777 889.047 420.948 894.538 431.361 895.934C436.734 896.652 442.177 896.226 447.597 896.329C465.947 896.684 484.099 903.358 498.275 914.947Z" fill="#E0AFA1"/>
<path d="M1058.76 721.309C1052.22 725.796 1045.4 729.78 1037.99 732.688C1013.84 742.189 986.45 739.156 961.561 746.503C954.926 748.468 948.528 751.148 942.146 753.82C913.604 765.797 885.054 777.773 856.519 789.75C799.971 835.087 718.321 830.401 654.475 864.402C637.916 873.214 622.801 884.527 606.337 893.52C585.881 904.699 563.642 912.146 541.537 919.554C518.517 927.245 495.497 934.953 472.477 942.645C452.905 949.2 430.863 955.63 412.308 946.589C411.078 946.226 409.871 945.792 408.703 945.319C423.1 947.086 437.869 945.824 451.714 941.517C455.256 940.42 459.421 938.14 459.161 934.464C459.058 932.918 458.127 931.34 458.711 929.904C459.153 928.839 460.289 928.247 461.37 927.837C469.298 924.816 480.335 925.06 483.38 917.171C481.676 916.359 479.885 915.507 478.765 913.976C477.653 912.446 477.503 910.04 478.97 908.848C479.704 908.241 480.682 908.044 481.629 907.886C496.089 905.448 510.983 906.774 525.444 904.328C539.226 901.993 552.329 896.258 566.238 894.877C574.947 894.009 584.422 894.68 591.616 889.734C594.354 887.864 596.523 885.308 599.079 883.201C609.319 874.752 623.961 874.642 636.268 869.593C646.863 865.238 655.485 857.318 664.573 850.352C673.661 843.402 684.067 837.083 693.644 837.185C720.214 835.631 746.429 830.314 772.273 823.979C781.693 821.668 791.12 819.206 800.058 815.475C817.075 808.391 832.095 796.849 849.624 791.164C847.786 789.419 848.346 786.182 850.113 784.358C851.881 782.535 854.444 781.773 856.882 781.081C862.98 779.361 869.086 777.624 875.184 775.887C877.646 775.195 880.178 774.457 882.182 772.869C883.847 771.549 885.038 769.718 886.576 768.241C889.661 765.27 893.905 763.895 897.999 762.613C914.053 757.576 930.099 752.547 944.899 747.455C970.483 735.234 1000.46 737.356 1027.95 730.401C1038.32 727.777 1048.43 723.855 1058.76 721.309Z" fill="#99685A"/>
<path d="M832.719 566.313C847.802 560.49 864.085 557.747 880.25 558.313C866.476 568.026 849.065 572.498 832.719 566.313Z" fill="#FEE4DB"/>
<path d="M381.164 820.966C402.243 802.482 425.011 785.899 449.08 771.486C472.629 757.388 498.962 745.05 526.36 747.046C487.965 769.568 449.569 792.091 411.174 814.615C401.857 820.09 392.414 825.612 381.164 820.966Z" fill="#FEE4DB"/>
<path d="M963.301 434.744C957.305 450.053 944.352 462.501 928.787 467.931C920.921 470.673 912.433 471.719 904.994 475.468C897.128 479.437 891.03 486.124 885.445 492.93C877.059 503.138 869.391 513.936 862.512 525.205C880.712 502.14 904.449 483.428 931.177 471.098C939.287 467.358 947.973 463.978 953.889 457.299C959.341 451.137 961.747 442.941 963.301 434.744Z" fill="#FEE4DB"/>
<path d="M884.3 693.175C902.113 686.055 919.548 678 936.501 669.041C939.089 667.674 941.755 666.212 943.491 663.854C945.226 661.497 945.731 657.984 943.877 655.728C941.369 652.687 936.541 653.576 932.817 654.919C918.002 660.255 904.33 668.279 890.753 676.255C885.649 679.257 880.166 682.699 878.249 688.287C878.028 688.924 877.863 689.622 878.028 690.275C878.399 691.76 880.198 692.342 881.728 692.483C884.726 692.75 887.787 692.302 884.3 693.175Z" fill="#EFC3B6"/>
<path d="M806.742 786.512C791.603 797.228 771.636 797.291 753.744 802.245C749.484 803.421 744.332 804.707 741.098 801.701C749.192 793.066 760.134 787.479 771.502 784.115C782.87 780.752 794.743 779.478 806.552 778.386C807.602 778.292 808.84 778.268 809.487 779.093C809.866 779.572 809.929 780.233 809.905 780.846C809.779 784.437 806.836 787.73 806.742 786.512Z" fill="#EFC3B6"/>
<path d="M1108.95 424.748C1105.36 439.75 1099.87 454.296 1092.69 467.955C1081.37 487.067 1066.61 503.892 1051.96 520.615C1050.25 522.557 1048.54 524.505 1046.83 526.455C1033.14 539.893 1018.68 552.678 1005.13 566.227C1005.55 566.8 1006.01 567.327 1006.48 567.798C1003.55 570.321 1000.54 572.773 997.474 575.13C990.942 580.152 984.102 584.781 977.941 590.243C973.2 594.447 968.892 599.131 964.017 603.17C953.864 611.579 941.115 617.056 927.941 617.661C914.751 618.274 898.452 616.679 891.344 607.115C889.182 604.215 887.029 601.307 884.867 598.4C889.324 596.011 894.847 597.881 899.296 600.286C903.745 602.691 908.282 605.685 913.346 605.488C920.509 605.189 925.929 598.605 932.95 597.127C937.084 596.254 941.399 597.245 945.596 596.758C952.404 595.98 958.108 591.484 963.402 587.162C972.932 579.406 982.509 571.618 990.745 562.509C996.827 555.775 1002.16 548.34 1008.8 542.148C1013.99 537.315 1019.89 533.315 1025.48 528.945C1040.46 517.221 1053.12 502.855 1065.67 488.592C1071.05 482.47 1076.47 476.301 1080.59 469.275C1087.79 456.984 1090.67 442.642 1097.1 429.943C1098.54 427.097 1100.48 424.08 1103.59 423.341C1105.58 422.862 1107.45 423.498 1108.95 424.748Z" fill="#EFC3B6"/>
<path d="M551.767 717.207C538.687 720.09 525.671 723.187 512.717 726.503C498.754 730.079 484.735 733.954 472.128 740.429C450.812 751.376 433.93 769.53 410.508 776.146C438.782 771.172 459.467 749.828 484.893 737.647C503.771 728.61 525.079 724.735 545.898 720.342C551.523 719.148 557.471 717.749 551.767 717.207Z" fill="#E0AFA1"/>
<path d="M353.754 801.014C364.223 787.18 375.543 773.938 384.868 759.313C394.193 744.688 401.537 728.39 403.012 711.124C408.109 735.061 401.987 761.137 386.761 780.343C382.659 785.514 377.831 790.284 371.898 793.184C367.591 795.298 362.511 796.581 353.754 801.014Z" fill="#FEE4DB"/>
<path d="M395.023 550.148C400.159 580.113 400.877 611.005 397.137 641.221C394.605 661.717 390.037 681.874 383.979 701.443C376.121 726.825 365.755 751.242 353.125 774.119C362.568 762.818 372.106 751.383 378.914 737.938C384.839 726.22 388.523 713.293 392.144 700.467C403.165 661.379 414.059 620.192 406.794 580.034C405.973 575.508 404.924 571.013 403.236 566.8C400.711 560.49 396.711 553.614 395.023 550.148Z" fill="#E0AFA1"/>
<path d="M784.91 659.335C778.551 673.465 761.637 679.045 746.483 682.495C724.125 687.595 701.216 691.493 680.421 701.128C654.679 713.057 633.213 733.333 606.533 742.99C614.327 733.325 623.66 724.908 634.073 718.15C633.166 715.635 629.774 715.329 627.099 715.462C601.515 716.727 575.932 718.001 550.348 719.265C551.152 718.008 552.328 716.979 553.732 716.106C553.708 716.185 553.693 716.271 553.669 716.35C553.558 716.805 553.424 717.269 553.306 717.725C571.245 709.882 591.552 711.116 611.029 708.759C618.563 707.855 626.026 706.393 633.466 704.939C645.283 702.629 657.117 700.318 668.934 698.008C675.585 696.704 682.259 695.399 688.704 693.3C694.495 691.415 700.048 688.908 705.697 686.636C712.45 683.909 719.345 681.52 726.232 679.124C743.848 673.018 761.456 666.895 779.056 660.789C779.443 660.255 779.821 659.721 780.2 659.178C781.77 659.013 783.348 659.029 784.91 659.335Z" fill="#E0AFA1"/>
<path d="M775.434 667.501C771.071 682.197 777.075 697.803 783.536 711.713C786.029 717.073 788.64 722.519 789.216 728.397C789.374 729.969 789.311 731.722 788.23 732.869C787.449 733.702 786.289 734.04 785.177 734.331C773.935 737.246 761.052 738.794 753.874 747.894C753.455 748.421 753.053 749.026 753.093 749.694C753.195 751.242 755.325 751.565 756.871 751.415C767.166 750.409 777.367 748.508 787.331 745.757C789.76 745.089 792.222 744.358 794.738 744.429C798.738 744.539 802.383 746.645 805.664 748.924C808.623 750.983 811.51 753.309 813.317 756.421C814.887 759.133 815.534 762.276 816.851 765.113C819.454 770.732 824.787 775.007 830.854 776.343C836.92 777.679 843.563 776.036 848.304 772.036C849.093 771.369 849.85 770.614 850.237 769.663C850.955 767.903 850.284 765.914 849.511 764.178C843.24 750.103 829.97 739.328 814.871 736.051C811.384 735.297 807.692 734.873 804.71 732.916C802.138 731.234 800.387 728.586 798.801 725.961C794.865 719.439 791.543 712.562 788.482 705.591C785.548 698.904 782.818 691.894 782.913 684.593C782.96 680.979 783.71 677.379 783.418 673.772C783.126 670.165 781.485 666.361 778.195 664.837C776.941 665.536 775.694 666.629 775.434 667.501Z" fill="#E0AFA1"/>
<path d="M954.904 422.335C951.528 435.105 942.771 446.233 932.445 454.697C920.651 464.371 906.798 471.129 893.386 478.438C888.787 480.945 884.172 483.569 880.433 487.239C877.332 490.281 874.942 493.936 872.394 497.448C857.105 518.556 835.387 535.688 826.181 560.042C823.735 566.51 822.268 573.291 820.516 579.972C812.974 608.954 800.171 636.577 782.917 661.104C781.442 663.194 779.249 665.528 776.788 664.829C775.518 664.467 774.808 663.548 774.5 662.377C776.023 661.842 777.545 661.316 779.06 660.789C779.446 660.255 779.825 659.721 780.204 659.178C795.713 636.883 798.774 609.779 809.211 586.086C813.44 566.179 822.591 548.435 834.006 532.591C845.414 516.741 859.077 502.643 872.986 488.913C880.859 481.133 888.937 473.385 898.459 467.735C907.318 462.469 917.282 459.137 925.715 453.228C934.559 447.043 941.28 438.374 947.599 429.644C949.603 426.854 951.946 423.844 954.904 422.335Z" fill="#E0AFA1"/>
<path d="M978.126 457.479C971.634 473.833 959.532 488.638 943.983 497.794C940.062 500.096 935.889 502.093 932.497 505.102C929.783 507.515 927.661 510.486 925.562 513.44C918.723 523.036 911.899 532.623 905.059 542.226C904.38 543.178 903.678 544.191 903.536 545.354C903.481 545.865 903.528 546.36 903.662 546.848C891.403 551.264 876.958 550.855 864.723 556.05C886.591 543.421 902.211 520.552 905.99 495.656C906.297 493.629 906.566 491.484 907.781 489.818C909.658 487.247 913.161 486.603 916.293 485.943C935.132 481.982 952.187 470.21 962.514 454.021C966.167 448.308 970.261 441.353 975.815 438.422C978.189 444.442 979.049 451.066 978.126 457.479Z" fill="#E0AFA1"/>
<path d="M1084.63 394.155C1079.91 400.088 1076.08 406.752 1072.3 413.353C1064.8 426.469 1057.29 439.585 1049.79 452.709C1028.04 478.658 1005.25 503.295 981.374 526.832C962.677 543.436 940.438 557.716 916.598 568.443C913.695 569.748 910.713 571.021 907.549 571.406C903.865 571.861 900.165 571.115 896.481 570.667C886.304 569.409 876.001 570.4 865.801 571.39C868.601 565.779 875.315 563.539 881.366 561.833C890.509 559.256 899.652 556.671 908.788 554.077C911.217 556.757 914.026 558.996 917.513 559.609C922.081 560.419 926.609 558.179 930.616 555.846C951.491 543.68 969.335 527.075 986.991 510.619C997.191 501.102 1007.42 491.57 1016.87 481.306C1031.74 465.165 1044.6 447.318 1057.43 429.518C1064.14 415.781 1071.15 401.636 1084.02 394.484C1084.22 394.374 1084.43 394.256 1084.63 394.155Z" fill="#E0AFA1"/>
<path d="M1112.12 406.414C1112.1 408.394 1111.81 410.414 1111.48 412.378C1106.99 439.027 1096.6 464.67 1081.22 486.925C1060.36 517.094 1031.09 540.285 1005.13 566.219C1007.35 569.181 1010.15 570.847 1012.89 571.327C995.04 589.48 976.352 606.903 954.168 619.225C949.553 621.787 944.67 624.161 939.408 624.663C934.84 625.096 930.256 624.098 925.776 623.108C917.082 621.182 908.388 619.257 899.695 617.331C895.947 616.498 892.027 615.579 889.155 613.033C886.291 610.494 884.99 605.764 887.404 602.793C895.229 601.551 900.223 611.728 907.962 613.41C915.788 615.107 922.367 607.783 929.815 604.883C930.888 604.467 932.087 604.144 933.175 604.53C934.493 605.009 935.219 606.377 936.252 607.312C939.202 610.007 943.896 608.781 947.573 607.202C955.683 603.689 963.335 599.131 970.277 593.677C977.701 587.846 984.264 581.033 990.812 574.235C1000.16 564.529 1009.5 554.824 1018.86 545.118C1033.83 529.574 1048.81 514.022 1063.64 498.328C1070.84 490.713 1078.05 482.996 1083.55 474.092C1088.36 466.281 1091.77 457.715 1095.15 449.188C1100.81 434.94 1106.46 420.669 1112.12 406.414Z" fill="#E0AFA1"/>
<path d="M1137.56 429.369C1132.74 439.836 1128.76 452.324 1126.12 465.087C1125.48 468.136 1124.91 471.255 1123.51 474.029C1121.89 477.243 1119.27 479.829 1116.82 482.469C1100.52 500.026 1090.06 522.454 1072.95 539.24C1059.53 552.411 1042.6 561.512 1028.48 573.944C1019.32 582.007 1011.45 591.398 1003.61 600.734C1007.31 589.779 1012.86 579.688 1019.59 570.29C1021.66 569.37 1023.59 568.058 1025.46 566.769C1031.99 562.266 1038.5 557.763 1045.03 553.268C1051.84 548.568 1058.67 543.853 1064.76 538.258C1086.15 518.58 1097.22 489.086 1120.57 471.766C1119.35 457.534 1124.32 443.719 1133.46 433.518C1134.75 432.072 1136.14 430.689 1137.56 429.369Z" fill="#E0AFA1"/>
<path d="M1159.24 506.91C1160 505.424 1160.88 504.002 1161.87 502.658C1160.28 505.794 1158.68 508.937 1157.07 512.073C1157.69 510.312 1158.39 508.576 1159.24 506.91Z" fill="#E0AFA1"/>
<path d="M1173.35 449.668C1171.54 458.705 1169.74 467.751 1167.93 476.78C1166.46 484.104 1164.98 491.492 1162.04 498.368C1158.9 505.692 1154.2 512.238 1149.79 518.887C1140.52 532.843 1132.39 547.554 1125.49 562.824V562.832C1109.58 575.021 1092.65 585.465 1076.54 597.002C1057.12 610.903 1038.52 626.841 1026.41 647.383C1014.69 666.377 991.173 678.825 968.39 676.656C966.647 676.491 964.817 676.263 963.223 676.978C961.629 677.686 960.509 679.768 961.472 681.215C962.229 682.362 963.791 682.558 965.164 682.691C975.64 683.682 985.935 686.708 995.276 691.532C985.131 698.322 971.68 697.246 960.241 701.529C948.21 706.039 937.552 716.633 924.796 715.053C930.926 710.943 937.063 706.833 943.193 702.724C943.942 702.22 944.731 701.678 945.102 700.853C946.483 697.796 941.544 696.004 938.183 696.303C927.447 697.246 916.773 698.834 906.225 701.05C904.79 698.723 907.417 696.043 909.744 694.597C924.378 685.513 940.045 678.063 956.344 672.452C968.461 669.489 975.475 655.682 986.882 655.564C989.193 655.54 991.505 656.121 993.801 655.863C996.735 655.548 999.346 653.921 1001.83 652.334C1007.57 648.688 1013.38 644.978 1017.92 639.933C1023.23 634.024 1026.54 626.581 1031.68 620.522C1036.81 614.479 1043.56 610.055 1050.27 605.826C1078.62 587.996 1109.11 571.555 1129.36 544.93C1137.26 534.549 1143.33 522.926 1149.35 511.365C1159 492.867 1168.85 473.613 1169.72 452.796C1170.05 445.079 1169.8 435.954 1174.17 430.249C1175.6 436.135 1174.62 443.334 1173.35 449.668Z" fill="#E0AFA1"/>
<path d="M1206.77 509.715C1206.49 513.786 1204.29 517.432 1202.58 521.126C1194.65 538.282 1196.13 559.845 1183.55 573.967C1183.72 574.329 1183.88 574.706 1184 575.099C1180.15 578.651 1176.18 582.109 1172.71 586.03C1167.2 592.263 1163.01 599.539 1157.88 606.078C1133.7 636.883 1091.44 648.263 1064.73 676.9C1056.19 686.055 1049.02 697.128 1037.79 702.683C1032.96 705.065 1027.64 706.267 1022.37 707.344C1004.51 710.975 986.417 713.293 968.233 714.299C963.76 714.55 958.758 714.542 955.484 711.501C986.338 705.285 1018.01 698.755 1044.45 681.717C1060.1 671.626 1073.38 658.157 1089.31 648.522C1101.82 640.962 1115.75 635.901 1127.95 627.885C1144.91 616.774 1157.72 600.561 1170.23 584.647C1175.14 578.407 1180.06 572.128 1183.81 565.15C1193.83 546.541 1195.36 523.358 1206.48 505.99C1206.76 507.209 1206.87 508.458 1206.77 509.715Z" fill="#E0AFA1"/>
<path d="M802.251 690.362C807.924 692.318 808.468 700.02 811.884 704.94C816.444 711.494 825.642 712.413 833.649 712.712C846.627 713.199 859.596 713.686 872.574 714.174C878.924 714.409 886.679 715.596 888.919 721.521C890.963 726.928 886.908 732.602 882.861 736.743C877.733 742 870.83 747.219 863.706 745.396C855.549 743.305 851.96 733.199 844.213 729.899C840.773 728.437 836.908 728.491 833.208 727.989C824.151 726.755 815.647 721.899 810.006 714.739C804.366 707.572 801.644 698.189 802.251 690.362Z" fill="#E0AFA1"/>
<path d="M574.993 605.048C574.614 611.901 574.236 618.762 573.841 625.606C568.216 655.477 561.803 685.67 553.882 715.478C546.49 719.281 538.428 721.788 530.184 722.849C530.72 715.706 531.256 708.562 531.793 701.419C534.428 666.408 537.094 631.249 544.683 596.977C554.829 599.5 564.982 602.054 574.993 605.048Z" fill="#E0AFA1"/>
<path d="M479.359 737.136C484.787 732.641 487.595 725.804 489.946 719.171C495.863 702.488 500.202 685.261 502.908 667.776C501.212 684.091 499.516 700.397 497.82 716.712C497.149 723.132 496.115 730.252 491.059 734.291C488.037 736.704 483.832 737.56 479.359 737.136Z" fill="#E0AFA1"/>
<path d="M368.33 874.263C367.635 869.183 367.446 864.039 367.762 858.927C373.031 857.554 377.331 864.631 382.766 864.221C389.109 863.732 390.766 854.083 396.832 852.198C401.51 850.738 407.333 854.446 411.151 851.401C412.35 850.439 413.06 848.963 414.259 848.017C416.807 845.997 420.483 846.912 423.678 847.512C429.627 848.616 435.851 848.198 441.602 846.305C437.161 852.782 427.923 853.594 421.556 858.217C414.985 862.982 411.94 871.486 405.337 876.204C402.773 878.034 399.688 879.289 397.834 881.829C395.01 885.702 394.829 892.471 390.079 893.189C388.762 893.394 387.429 892.984 386.182 892.526C381.102 890.657 376.368 887.864 372.274 884.337C368.929 881.426 365.916 876.338 368.33 874.263Z" fill="#E0AFA1"/>
<path d="M574.997 605.048C574.618 611.901 574.24 618.762 573.845 625.606C568.22 655.477 561.807 685.67 553.886 715.478C553.815 715.768 553.744 716.059 553.657 716.35C551.614 717.418 549.634 718.59 548.695 720.625C551.007 700.255 554.375 680.004 558.785 659.98C562.911 641.285 567.944 622.699 570.674 603.783C572.118 604.199 573.561 604.624 574.997 605.048Z" fill="#99685A"/>
<path d="M978.489 451.923C978.505 453.786 978.395 455.64 978.127 457.479C971.634 473.833 959.532 488.638 943.983 497.793C940.062 500.096 935.889 502.093 932.497 505.102C929.783 507.515 927.661 510.485 925.562 513.44C919.378 522.116 913.208 530.776 907.023 539.46C907.899 533.967 910.431 528.497 912.924 523.428C915.985 517.205 919.038 510.98 922.099 504.764C923.125 502.682 924.261 500.481 926.28 499.358C927.74 498.54 929.46 498.399 931.108 498.148C943.549 496.293 954.144 487.892 961.946 478.061C968.36 469.967 973.251 460.834 978.489 451.923Z" fill="#99685A"/>
<path d="M1111.35 413.094C1110.69 416.999 1109.88 420.889 1108.95 424.748C1105.35 439.75 1099.87 454.296 1092.68 467.955C1089.25 474.501 1085.42 480.835 1081.21 486.917C1071.24 501.338 1059.35 514.164 1046.82 526.446C1033.14 539.885 1018.68 552.67 1005.12 566.219C1005.55 566.792 1006.01 567.319 1006.47 567.79C1006.82 568.144 1007.17 568.474 1007.54 568.772C999.53 575.751 991.791 583.036 984.359 590.628C996.65 568.851 1012.83 549.252 1031.91 533.039C1038.91 527.09 1046.32 521.589 1052.83 515.114C1058.45 509.526 1063.36 503.287 1068.21 497.023C1084.3 476.277 1100.35 454.406 1106.39 428.897C1107.66 423.553 1108.67 417.746 1111.35 413.094Z" fill="#99685A"/>
<path d="M1126.23 563.578C1093.31 587.375 1056.19 607.414 1032.35 640.247C1029.86 643.681 1027.49 647.281 1024.21 649.968C1021.7 652.019 1018.74 653.457 1015.82 654.873C1008.32 658.511 1000.81 662.157 993.312 665.796C999.071 661.693 1004.82 657.591 1010.58 653.489C1019.86 646.88 1029.26 640.145 1036.4 631.281C1039.58 627.335 1042.29 622.989 1045.88 619.414C1047.87 617.434 1050.12 615.713 1052.35 614.007C1076.47 595.579 1100.7 577.08 1126.23 563.578Z" fill="#99685A"/>
<path d="M1183.61 574.117C1178.55 578.407 1174.46 583.885 1170.48 589.244C1165.39 596.129 1160.3 603.013 1155.2 609.897C1151.68 614.652 1148.13 619.446 1143.72 623.406C1138.78 627.831 1132.91 631.068 1127.09 634.282C1116.69 640.003 1106.29 645.732 1096.79 650.511C1076.31 661.402 1057.73 675.792 1042.08 692.868C1038.83 696.413 1035.61 700.154 1031.36 702.417C1028.17 704.122 1024.56 704.9 1021.02 705.654C1008.11 708.405 994.971 711.171 981.836 709.945C1000.38 707.061 1019.48 703.965 1035.44 694.126C1049.59 685.387 1060.19 671.98 1073.5 662.015C1093.27 647.21 1118.27 640.522 1137.77 625.371C1152 614.314 1162.55 599.351 1173.14 584.812C1176.26 580.545 1179.59 576.128 1184.61 572.742L1183.61 574.117Z" fill="#99685A"/>
<path d="M1122.92 676.805C1126.82 675.579 1130.91 674.558 1134.76 673.112C1133.09 674.33 1131.35 675.478 1129.54 676.531C1122.69 680.538 1115.1 683.108 1107.99 686.597C1089.97 695.43 1075.25 709.977 1058.77 721.301C1056.02 723.187 1053.22 724.979 1050.36 726.644C1048.29 727.014 1046.18 727.328 1043.99 727.572C1049.49 725.466 1054.22 721.788 1058.82 718.094C1078.75 702.087 1098.5 684.507 1122.92 676.805Z" fill="#99685A"/>
<path d="M1167.77 631.854C1162.93 639.729 1157.79 648.31 1151.66 656.224C1152.05 655.375 1152.43 654.526 1152.81 653.677C1156.47 645.599 1161.12 637.607 1167.77 631.854Z" fill="#99685A"/>
<path d="M801.241 675.163C810.937 676.46 818.573 683.666 826.091 689.906C832.899 695.556 840.283 700.751 848.654 703.651C857.024 706.551 866.538 706.99 874.6 703.312C865.844 694.385 852.33 691.933 842.406 684.318C837.893 680.86 834.162 676.357 829.223 673.536C825.452 671.383 821.161 670.322 816.94 669.277C812.483 668.184 808.025 667.085 803.576 665.992C801.856 665.568 799.963 665.167 798.393 665.968C796.523 666.927 795.821 669.465 796.626 671.398C797.431 673.34 799.387 674.911 801.241 675.163Z" fill="#FEE4DB"/>
<path d="M1052.18 624.451C1045.01 647.964 1025.31 665.183 1006.51 681.088C1017.89 681.395 1029.18 676.609 1037.33 668.695C1045.49 660.789 1050.54 649.937 1052.05 638.706C1052.8 633.025 1052.69 627.218 1052.18 624.451Z" fill="#FEE4DB"/>
<path d="M999.225 592.561C989.111 610.479 977.143 627.359 963.566 642.84C963.953 644.074 965.61 644.263 966.896 644.153C977.135 643.32 986.72 638.534 994.822 632.239C1002.92 625.945 1009.7 618.157 1016.42 610.424C1021.3 604.812 1026.2 599.162 1029.97 592.757C1016.82 594.596 1008.3 610.015 995.035 610.573C996.858 603.594 999.453 596.805 999.225 592.561Z" fill="#FEE4DB"/>
<path d="M1045.81 708.68C1049.18 706.323 1052.59 703.925 1055.23 700.767C1056.85 698.817 1058.15 696.625 1059.45 694.456C1066.65 682.471 1074.71 670.55 1086.18 662.511C1082.75 676.491 1075.47 689.513 1065.35 699.776C1060.47 704.712 1054.86 709.081 1048.37 711.556C1048.02 711.69 1047.65 711.824 1047.28 711.808C1046.21 711.753 1045.53 710.283 1045.81 708.68Z" fill="#FEE4DB"/>
<path d="M539.047 853.145C551.937 851.251 564.954 849.358 577.947 850.297C587.091 850.967 597.062 852.861 604.841 848.04C593.741 842.337 580.464 842.597 568.204 844.987C555.945 847.37 544.119 851.717 539.047 853.145Z" fill="#FEE4DB"/>
<path d="M764.344 727.596C772.723 718.354 770.727 701.843 760.376 694.849C759.666 694.369 758.83 693.905 757.986 694.063C756.44 694.346 755.99 696.311 755.951 697.874C755.722 707.25 758.483 716.68 764.344 727.596Z" fill="#FEE4DB"/>
<path d="M379.726 575.39C374.622 600.553 369.541 626.754 375.987 651.61C377.564 650.188 377.919 647.886 378.18 645.78C381.201 621.12 384.23 596.137 379.726 575.39Z" fill="#FEE4DB"/>
<path d="M430.785 588.82C431.101 620.868 431.59 653.819 443.778 683.485C446.271 680.64 446.65 676.577 446.816 672.806C448.141 643.382 444.173 613.732 430.785 588.82Z" fill="#FEE4DB"/>
<path d="M1182.62 498.415C1178.5 505.166 1174.37 511.923 1170.25 518.674C1169.84 519.342 1169.24 520.104 1168.48 519.963C1167.44 519.782 1167.4 518.312 1167.63 517.283C1168.66 512.764 1169.71 508.167 1172.01 504.144C1174.32 500.12 1178.09 496.686 1182.62 498.415Z" fill="#FEE4DB"/>
<path d="M942.258 575.225C964.789 557.292 986.018 537.739 1005.72 516.765C1012.64 509.409 1019.63 501.676 1028.85 497.542C1027.96 500.655 1025.72 503.161 1023.55 505.566C1015.67 514.25 1007.8 522.926 999.934 531.609C984.267 548.891 968.418 566.321 949.303 579.728C946.234 581.881 941.935 583.909 939.008 581.567C939.521 578.423 941.335 575.947 942.258 575.225Z" fill="#FEE4DB"/>
<path d="M1135.53 480.882C1124.08 500.615 1105.95 516.348 1097.23 537.425C1111.98 524.026 1124.07 507.727 1132.6 489.747C1134.53 485.676 1136.31 481.479 1135.53 480.882Z" fill="#FEE4DB"/>
<path d="M548.938 375.403C560.503 456.678 572.068 537.959 583.633 619.233C578.395 610.974 570.332 604.538 561.102 601.245C556.653 525.409 552.204 449.581 548.938 375.403Z" fill="#31556B"/>
<path d="M1341.18 1046.62H1267.59C1263.01 955.299 1241.07 861.901 1228.52 768.964C1219.06 698.802 1214.95 627.925 1216.21 557.15C1216.58 536.152 1217.43 515.177 1218.75 494.226V494.218C1220.62 464.379 1223.45 434.611 1227.24 404.96C1227.52 402.728 1227.81 400.496 1228.11 398.273C1231.84 405.455 1235.14 412.433 1238.04 419.271C1246.85 440.001 1251.94 459.428 1253.95 479.169C1255.23 491.664 1255.28 504.269 1256.17 516.796C1256.17 516.796 1256.17 516.796 1256.17 516.804C1256.53 521.794 1257.02 526.769 1257.77 531.712C1257.95 532.882 1258.14 534.038 1258.35 535.209C1258.64 536.899 1258.97 538.596 1259.32 540.278C1258.38 540.859 1257.43 541.448 1256.47 542.046C1255.59 542.588 1254.71 543.122 1253.84 543.68C1253.66 543.783 1253.49 543.892 1253.31 544.003C1253.39 544.277 1253.46 544.553 1253.55 544.828C1253.54 544.828 1253.55 544.836 1253.55 544.836C1254.66 548.796 1255.76 552.781 1256.88 556.804C1256.89 556.859 1256.91 556.907 1256.92 556.969C1257.98 560.813 1259.05 564.695 1260.12 568.585C1260.47 569.897 1260.84 571.209 1261.2 572.529C1262.98 578.989 1264.79 585.48 1266.67 592.003C1267.02 593.253 1267.38 594.502 1267.75 595.76C1268.06 596.852 1268.38 597.952 1268.7 599.045C1268.73 599.131 1268.76 599.225 1268.78 599.311C1269.17 600.632 1269.55 601.952 1269.96 603.272C1270.42 604.852 1270.9 606.423 1271.39 608.003C1271.72 609.087 1272.05 610.188 1272.39 611.273C1273.64 615.296 1274.92 619.311 1276.24 623.312C1276.66 624.609 1277.1 625.905 1277.54 627.194C1277.96 628.452 1278.39 629.717 1278.82 630.974C1279.32 632.428 1279.83 633.866 1280.35 635.32C1280.6 636.035 1280.86 636.766 1281.11 637.489C1281.8 639.406 1282.5 641.324 1283.23 643.233C1283.46 643.878 1283.71 644.514 1283.94 645.151C1284.18 645.788 1284.42 646.424 1284.67 647.061C1285.17 648.373 1285.68 649.685 1286.2 650.997C1286.51 651.792 1286.82 652.578 1287.15 653.363C1287.29 653.74 1287.45 654.117 1287.6 654.502C1288.02 655.548 1288.46 656.593 1288.89 657.63C1289.14 658.251 1289.4 658.872 1289.66 659.485C1290.1 660.554 1290.57 661.63 1291.03 662.699C1273 731.163 1279.43 802.718 1294.23 870.832C1294.5 872.07 1294.77 873.301 1295.05 874.539C1295.32 875.77 1295.6 877.001 1295.88 878.231C1296.16 879.462 1296.44 880.701 1296.72 881.923C1296.98 883.004 1297.23 884.093 1297.48 885.174C1297.5 885.316 1297.54 885.466 1297.58 885.608C1297.91 887.051 1298.25 888.495 1298.6 889.939C1299.11 892.061 1299.61 894.175 1300.14 896.289C1300.56 898.017 1300.99 899.745 1301.42 901.472C1302.05 903.965 1302.68 906.466 1303.32 908.959C1303.75 910.671 1304.19 912.383 1304.64 914.087C1304.87 914.978 1305.1 915.854 1305.34 916.737C1305.6 917.739 1305.87 918.749 1306.13 919.759C1306.63 921.628 1307.12 923.498 1307.63 925.368C1307.64 925.407 1307.65 925.447 1307.67 925.494C1307.72 925.731 1307.78 925.952 1307.85 926.188C1307.85 926.196 1307.85 926.204 1307.86 926.212C1308.57 928.878 1309.31 931.545 1310.03 934.204C1314.28 949.761 1318.72 965.278 1323.12 980.803C1323.64 982.626 1324.15 984.448 1324.67 986.271C1325.71 989.923 1326.75 993.56 1327.77 997.22C1328.78 1000.77 1329.77 1004.34 1330.76 1007.89C1331.81 1011.64 1332.85 1015.39 1333.87 1019.14C1334.87 1022.8 1335.86 1026.46 1336.84 1030.13C1337.82 1033.79 1338.78 1037.45 1339.73 1041.12C1340.24 1042.94 1340.71 1044.78 1341.18 1046.62Z" fill="#31556B"/>
<path d="M757.13 165.083C752.436 195.575 740.682 224.518 728.241 252.793C719.657 272.329 710.349 292.212 694.902 306.994C679.455 321.777 656.372 330.531 636.161 323.458C618.198 317.179 606.475 300.401 595.485 284.912C565.586 242.766 532.208 203.095 495.809 166.388C530.717 146.482 564.34 124.14 596.479 99.3383C600.708 107.928 605 116.619 611.184 123.935C617.369 131.259 625.732 137.193 635.238 138.537C640.452 139.267 645.927 138.631 650.85 140.485C653.335 141.421 655.552 142.945 657.8 144.344C663.48 147.865 669.571 150.686 675.787 153.161C701.473 163.401 729.566 167.331 757.13 165.083Z" fill="#31556B"/>
<path d="M569.053 612.852C574.292 616.475 573.897 623.273 573.369 630.259C582.496 629.096 587.23 617.622 584.666 608.702C582.11 599.775 574.576 593.213 566.947 587.885C540.046 569.119 508.048 559.288 476.634 549.747C450.017 541.661 423.392 533.566 396.775 525.48C390.258 523.499 383.6 521.496 376.784 521.708C369.976 521.92 363.302 525.04 359.263 530.502C350.995 541.676 360.351 554.415 367.862 565.394C370.094 558.533 370.709 553.866 372.421 549.983C386.858 548.357 402.936 553.473 412.174 556.364C439.69 564.985 455.871 571.987 483.387 580.608C513.823 590.14 549.71 599.469 569.053 612.852Z" fill="#263F4F"/>
<path d="M1304.74 486.517C1288.49 494.273 1271.47 502.147 1258.15 514.785C1255.81 517.008 1252.63 520.663 1250.55 523.13C1245.17 529.55 1246.39 540.364 1253.06 545.441C1254.35 543.484 1257.98 541.119 1261.5 538.926C1303.37 512.788 1347.41 490.124 1393.04 471.24C1424.35 458.281 1457.13 446.972 1490.88 446.91C1491.73 448.834 1492.36 450.752 1493.2 452.677C1493.47 453.29 1494.01 455.019 1494.01 455.019C1494.01 455.019 1496.44 453.911 1497.12 453.259C1501.2 449.369 1503.87 444.049 1504.54 438.469C1504.86 435.75 1504.67 432.788 1503.04 430.587C1501.72 428.803 1499.63 427.742 1497.55 426.956C1485.71 422.493 1474.91 421.746 1462.67 424.913C1448.79 428.505 1433.77 430.367 1419.99 435.412C1380.85 449.739 1341.53 468.953 1304.74 486.517Z" fill="#263F4F"/>
<path d="M961.427 6.8656C947.787 39.141 929.776 69.4832 908.366 96.7215C904.516 101.617 900.563 106.403 896.509 111.086L896.501 111.094C883.279 126.356 868.96 140.463 853.727 153.201C851.81 154.812 849.877 156.4 847.928 157.956C844.236 160.911 840.497 163.794 836.71 166.584C832.876 168.659 828.955 170.584 824.972 172.345C822.045 173.649 819.071 174.867 816.073 176.007C815.039 176.4 813.998 176.777 812.957 177.154H812.949C793.597 184.062 773.007 187.543 752.448 187.394C741.199 187.323 729.973 186.16 718.96 183.889C700.555 180.093 682.813 173.194 666.491 163.677C654.239 156.533 642.776 147.92 632.402 138.019C632.757 138.105 633.112 138.183 633.467 138.254C633.649 138.293 633.814 138.325 633.996 138.356H634.004C634.004 138.356 634.012 138.356 634.02 138.356C634.027 138.364 634.035 138.364 634.043 138.364C634.059 138.364 634.075 138.372 634.091 138.372C634.114 138.38 634.138 138.38 634.169 138.388C634.28 138.404 634.398 138.427 634.517 138.442C634.753 138.482 634.998 138.521 635.227 138.553C635.637 138.608 636.047 138.654 636.457 138.694C636.86 138.741 637.278 138.773 637.688 138.804C637.917 138.82 638.138 138.836 638.366 138.851C638.895 138.89 639.416 138.914 639.944 138.938C640.347 138.953 640.757 138.969 641.159 138.993C641.49 139.009 641.822 139.024 642.153 139.04C642.477 139.055 642.808 139.079 643.139 139.095C643.392 139.11 643.644 139.126 643.889 139.142C644.157 139.166 644.425 139.181 644.693 139.205C644.741 139.213 644.788 139.213 644.835 139.221C645.04 139.245 645.238 139.267 645.443 139.283C645.703 139.315 645.963 139.346 646.216 139.378C646.737 139.441 647.241 139.527 647.754 139.629C647.762 139.629 647.778 139.637 647.786 139.637C647.865 139.653 647.951 139.668 648.03 139.684C648.109 139.7 648.196 139.715 648.267 139.731C648.306 139.739 648.338 139.747 648.37 139.755H648.377C648.401 139.755 648.417 139.763 648.433 139.771C648.441 139.771 648.441 139.771 648.448 139.771C648.472 139.771 648.496 139.779 648.519 139.786C648.575 139.802 648.622 139.81 648.685 139.826C648.827 139.857 648.969 139.888 649.103 139.928C649.324 139.983 649.537 140.038 649.75 140.116C649.884 140.156 650.026 140.195 650.152 140.242C650.381 140.313 650.602 140.392 650.831 140.478C653.316 141.413 655.533 142.937 657.781 144.337C663.461 147.857 669.551 150.679 675.768 153.154C676.36 153.389 676.959 153.617 677.551 153.845C678.135 154.073 678.718 154.293 679.302 154.506C680.612 155 681.929 155.472 683.262 155.936C683.759 156.109 684.256 156.274 684.753 156.438C685.361 156.643 685.968 156.839 686.576 157.036C687.167 157.233 687.759 157.414 688.359 157.602C689.14 157.854 689.936 158.089 690.733 158.317C690.93 158.38 691.12 158.435 691.317 158.497C691.924 158.678 692.54 158.852 693.155 159.024C694.078 159.284 695.001 159.535 695.924 159.771C696.611 159.959 697.289 160.124 697.983 160.298C698.488 160.423 698.977 160.549 699.482 160.667C699.537 160.683 699.6 160.691 699.664 160.706C699.94 160.769 700.216 160.832 700.492 160.903C700.768 160.973 701.052 161.036 701.328 161.099C701.904 161.225 702.48 161.358 703.048 161.484C703.143 161.508 703.245 161.524 703.34 161.547C703.916 161.665 704.484 161.79 705.052 161.909C705.801 162.058 706.566 162.215 707.316 162.357C707.813 162.451 708.302 162.553 708.799 162.639C709.43 162.75 710.053 162.867 710.684 162.977C711.781 163.174 712.893 163.347 714.006 163.52C714.219 163.551 714.416 163.583 714.629 163.613C715.323 163.716 716.017 163.826 716.727 163.92C717.406 164.014 718.092 164.109 718.771 164.196C719.252 164.25 719.725 164.313 720.206 164.376C720.23 164.376 720.254 164.384 720.277 164.384C720.869 164.454 721.453 164.518 722.044 164.589C722.589 164.643 723.117 164.698 723.662 164.761C724.411 164.832 725.161 164.903 725.91 164.974C726.044 164.989 726.186 164.997 726.32 165.013C727.433 165.107 728.545 165.194 729.665 165.272C730.296 165.311 730.935 165.351 731.574 165.382C732.844 165.46 734.115 165.516 735.385 165.563H735.393C738.035 165.657 740.686 165.696 743.329 165.68C743.991 165.68 744.654 165.672 745.309 165.657C745.972 165.649 746.634 165.633 747.297 165.61C747.952 165.594 748.614 165.571 749.277 165.547C749.94 165.523 750.595 165.492 751.257 165.46C751.959 165.429 752.669 165.39 753.379 165.351C753.797 165.327 754.223 165.303 754.642 165.272C754.665 165.272 754.689 165.272 754.713 165.264C755.525 165.209 756.322 165.154 757.134 165.083C758.791 164.95 760.44 164.793 762.097 164.619H762.105C764.739 164.337 767.374 163.991 769.993 163.59C781.685 161.822 793.195 158.922 804.279 154.914H804.287C813.422 151.621 822.25 147.567 830.683 142.757C835.14 140.227 839.479 137.484 843.684 134.537C862.349 121.445 878.198 104.776 892.951 87.4244C908.807 68.7523 920.633 37.4592 932.64 12.013C933.46 10.2605 934.281 8.54734 935.109 6.8656H961.427Z" fill="#263F4F"/>
</g>
<defs>
<clipPath id="clip0_102_2885">
<rect width="2000" height="1040" fill="white"/>
</clipPath>
</defs>
</svg>
