<svg width="2108" height="1040" viewBox="0 0 2108 1040" fill="none" xmlns="http://www.w3.org/2000/svg">
<g clip-path="url(#clip0_101_1733)">
<rect width="2107.4" height="1040" fill="#9BAFBD"/>
<path d="M1658.23 795.755V1040H450V972.339C468.661 915.86 487.304 859.375 505.959 802.896C515.704 773.391 525.551 743.644 541.276 716.852C566.281 674.255 606.062 640.533 652.174 622.857C671.965 615.269 692.656 610.593 713.564 606.6C713.872 606.54 714.162 606.479 714.464 606.431C714.464 606.431 714.483 606.413 714.483 606.431C749.431 599.792 784.88 594.989 817.521 581.626C820.028 580.599 822.523 579.518 825 578.382C835.095 579.149 844.96 579.53 854.595 579.56C856.372 579.56 858.13 579.56 859.869 579.542C894.238 579.234 925.924 574.787 956.117 569.266C958.842 568.776 961.561 568.269 964.255 567.749C975.649 565.593 986.843 563.327 997.886 561.128C999.505 560.79 1001.11 560.47 1002.72 560.15C1016.93 557.322 1030.91 554.646 1044.83 552.459C1047.58 552.03 1050.33 551.619 1053.08 551.233C1055.99 550.822 1058.87 550.423 1061.75 550.073C1066.44 549.493 1071.11 548.986 1075.81 548.587C1079.45 548.249 1083.09 547.989 1086.73 547.777C1123.94 545.639 1160.67 549.753 1197.19 556.616C1200.86 557.304 1204.52 558.023 1208.19 558.754C1213.48 559.823 1218.77 560.959 1224.04 562.119C1224.18 562.137 1224.32 562.167 1224.45 562.21C1226.76 562.717 1229.06 563.219 1231.37 563.738C1235.31 564.638 1239.24 565.544 1243.19 566.475C1244.7 566.825 1246.21 567.194 1247.73 567.562C1251.11 568.372 1254.49 569.181 1257.89 570.009C1261.26 570.818 1264.65 571.658 1268.03 572.486C1273.66 573.863 1279.28 575.253 1284.93 576.66C1288.41 577.53 1291.89 578.388 1295.37 579.246C1298.85 580.104 1302.33 580.961 1305.82 581.813C1312.78 583.529 1319.75 585.19 1326.73 586.815C1331.97 588.042 1337.25 589.232 1342.51 590.392C1344.24 590.772 1345.97 591.141 1347.68 591.509C1349.43 591.89 1351.19 592.258 1352.93 592.627C1354.68 592.995 1356.43 593.364 1358.19 593.714C1365.96 595.291 1373.76 596.759 1381.57 598.088C1382.78 598.3 1384.01 598.499 1385.23 598.698C1388.64 599.266 1392.08 599.798 1395.5 600.305C1397.22 600.565 1398.93 600.813 1400.65 601.042C1404.07 601.514 1407.51 601.961 1410.95 602.371C1438.68 605.646 1466.9 606.715 1493.78 614.254C1516.34 620.604 1537.11 631.321 1555.81 645.161C1588.65 669.416 1615.2 703.265 1634.21 739.723C1643.65 757.823 1651.47 776.575 1658.23 795.755Z" fill="#709EB8"/>
<path d="M1477.87 726.56C1458.16 772.551 1457.5 824.608 1464.14 874.194C1464.75 878.719 1465.41 883.232 1466.11 887.732C1467.29 895.181 1468.59 902.6 1469.98 910C1469.98 910 1470 910.018 1469.98 910.018C1471.19 916.47 1472.48 922.898 1473.79 929.332C1473.94 930.111 1474.11 930.908 1474.26 931.688C1475.88 939.565 1477.55 947.425 1479.22 955.303V955.321C1479.48 956.511 1479.72 957.677 1479.96 958.867C1480.97 963.591 1481.97 968.334 1482.96 973.076C1482.99 973.215 1483.02 973.366 1483.04 973.505C1486.36 989.52 1489.49 1005.55 1492 1021.68C1492.93 1027.69 1493.76 1033.86 1494.17 1040.01H1441.76C1432.61 1026.21 1423.94 1012.11 1415.78 997.718V997.7C1410.64 988.674 1405.71 979.558 1400.99 970.321C1387.62 944.211 1375.42 916.639 1354.43 896.129C1347.61 889.46 1339.97 883.636 1331.92 878.235C1316.09 867.591 1298.73 858.596 1283.21 848.078C1283.06 847.969 1282.9 847.879 1282.77 847.788C1280.37 846.139 1278.01 844.471 1275.7 842.756C1273.82 841.336 1271.98 839.898 1270.2 838.412L1270.18 838.394C1260.25 830.244 1251.72 820.881 1245.68 809.227C1241.38 800.939 1238.69 791.992 1236.71 782.845C1236.11 780.121 1235.59 777.414 1235.12 774.678V774.66C1235.09 774.478 1235.06 774.291 1235.01 774.11V774.092C1234.72 772.364 1234.43 770.636 1234.16 768.908C1233.56 765.175 1233.01 761.448 1232.51 757.696C1232.16 755.141 1231.84 752.573 1231.53 750.018C1230.96 745.324 1230.46 740.612 1230.03 735.899C1229.29 727.992 1228.76 720.072 1228.41 712.145C1228.35 710.955 1228.3 709.747 1228.26 708.551C1227.2 680.411 1228.47 652.175 1232.06 624.252C1233.97 609.282 1236.56 594.397 1239.82 579.657C1240.8 575.295 1241.84 570.879 1243.16 566.565C1243.17 566.535 1243.17 566.505 1243.19 566.475C1244.7 566.825 1246.21 567.194 1247.73 567.562C1251.11 568.372 1254.49 569.181 1257.88 570.009C1261.26 570.818 1264.64 571.658 1268.03 572.486C1273.66 573.863 1279.28 575.253 1284.93 576.66C1288.41 577.53 1291.88 578.388 1295.37 579.246C1298.84 580.104 1302.33 580.961 1305.82 581.813C1312.77 583.529 1319.75 585.19 1326.72 586.815C1331.97 588.042 1337.25 589.232 1342.51 590.392C1344.24 590.772 1345.97 591.141 1347.68 591.509C1349.43 591.89 1351.18 592.258 1352.92 592.627C1354.68 592.995 1356.43 593.364 1358.19 593.714C1365.96 595.291 1373.75 596.759 1381.57 598.088C1382.78 598.3 1384.01 598.499 1385.23 598.698C1388.64 599.266 1392.08 599.798 1395.5 600.305C1397.22 600.565 1398.93 600.813 1400.64 601.042C1404.07 601.514 1407.51 601.961 1410.95 602.371C1438.68 605.646 1466.9 606.715 1493.78 614.254C1516.34 620.604 1537.11 631.321 1555.81 645.161C1521.09 660.216 1493 691.261 1477.87 726.56Z" fill="#4E768F"/>
<path d="M701.572 918.742C666.697 876.23 634.274 831.706 604.503 785.479C595.598 771.651 586.814 757.394 582.67 741.475C633.591 795.055 676.967 855.793 701.572 918.742Z" fill="#4E768F"/>
<path d="M817.31 717.703C779.565 683.148 744.556 645.608 712.713 605.555C736.926 617.166 755.412 637.875 772.128 658.893C787.998 678.847 802.896 699.574 817.31 717.703Z" fill="#4E768F"/>
<path d="M673.004 955.695C637.815 935.971 603.392 914.875 569.839 892.475C557.612 884.313 544.509 875.656 529.811 875.668C535.574 874.484 541.536 874.756 547.378 875.432C599.767 881.498 642.968 917.847 673.004 955.695Z" fill="#4E768F"/>
<path d="M708.042 900.117C696.05 866.485 680.476 834.171 669.542 800.178C658.607 766.184 652.421 729.647 659.9 694.729C669.874 761.357 709.721 822.451 708.042 900.117Z" fill="#4E768F"/>
<path d="M1452.96 933.53C1463.12 886.343 1482.98 841.264 1510.93 801.905C1516.23 794.438 1521.93 787.068 1529.32 781.661C1533.13 787.062 1530.81 794.481 1528.28 800.588C1509.27 846.701 1485.62 890.898 1452.96 933.53Z" fill="#4E768F"/>
<path d="M1463.02 942.918C1485.13 914.023 1510.26 887.448 1537.88 863.767C1551.2 852.337 1565.93 841.209 1583.27 838.418C1585.32 847.438 1578.32 855.799 1571.62 862.178C1548.82 883.896 1523.26 902.708 1495.75 918.017C1485.34 923.81 1474.46 929.235 1463.02 942.918Z" fill="#4E768F"/>
<path d="M1469.63 963.537C1509.34 927.852 1558.86 903.192 1611.27 893.006C1572.42 915.667 1531.87 935.409 1469.63 963.537Z" fill="#4E768F"/>
<path d="M1470.41 977.552C1500.7 965.186 1534.17 963.501 1566.88 963.217C1579.41 963.108 1592.09 963.193 1604.27 966.153C1616.46 969.113 1628.26 975.233 1635.84 985.225C1601.6 968.213 1558.59 991.024 1522.8 977.577C1511.74 973.42 1501.42 965.821 1470.41 977.552Z" fill="#4E768F"/>
<path d="M1366.27 1040H908.809C910.917 1031.82 916.318 1024.83 921.58 1018.16C943.908 989.901 966.882 961.604 995.602 939.904C1028.79 914.821 1067.95 899.851 1108.86 891.145C1126.43 887.4 1144.34 884.814 1162.23 883.087C1169.13 882.416 1176.03 881.86 1182.89 881.437C1199.3 880.41 1216.02 879.951 1231.94 884.101C1236.22 885.219 1240.38 886.639 1244.43 888.336C1262.89 896.045 1279.03 909.196 1293.95 922.765C1321.83 948.138 1348.01 976.984 1361.47 1012.19C1364.87 1021.05 1367.45 1030.64 1366.27 1040Z" fill="#4E768F"/>
<path d="M1262.97 649.909C1262.99 653.746 1262.89 657.588 1262.7 661.424C1261.77 680.387 1258.49 699.139 1255.22 717.842C1254.84 720.029 1254.45 722.234 1254.06 724.421C1253.72 726.33 1253.37 728.257 1253.02 730.172C1251.78 736.721 1250.43 743.282 1248.81 749.734C1248.06 752.718 1247.27 755.654 1246.38 758.572V758.59C1246.3 758.868 1246.23 759.128 1246.14 759.388C1244.18 765.858 1241.87 772.159 1239.03 778.2C1239.03 778.23 1239.01 778.248 1239 778.26C1238.28 779.807 1237.51 781.335 1236.72 782.845C1234.39 787.268 1231.75 791.514 1228.72 795.568C1221.65 805.053 1212.75 813.021 1204.72 821.72C1204.6 821.859 1204.48 821.998 1204.36 822.131C1204.27 822.21 1204.19 822.3 1204.11 822.391C1191.82 835.863 1181.44 851.159 1171.73 867.047C1171.33 867.688 1170.94 868.346 1170.54 869.005C1170.34 869.343 1170.14 869.675 1169.95 870.013C1169.78 870.291 1169.61 870.563 1169.44 870.853C1167 874.889 1164.61 878.973 1162.24 883.074C1155.11 895.356 1148.15 907.747 1140.81 919.672C1137.11 925.713 1133.3 931.615 1129.34 937.354C1114.61 958.613 1097.6 977.317 1074.75 989.828C1059.4 998.255 1042.38 1003.15 1026.49 1010.54C1009.59 1018.41 994.172 1029 979.075 1039.99H693.164C696.849 1021.3 702.19 1002.85 712.786 987.152C723.491 971.324 738.829 959.381 753.328 946.93C787.34 917.751 817.872 884.5 844.097 848.144C846.145 845.299 848.162 842.442 850.156 839.566C852.802 835.76 855.4 831.918 857.955 828.052C858.825 826.722 859.701 825.375 860.571 824.028C860.77 823.72 860.952 823.43 861.151 823.128C861.211 823.019 861.29 822.916 861.35 822.808C862.788 820.591 864.196 818.373 865.603 816.138C874.17 802.527 882.597 788.79 893.054 776.605C894.462 774.968 895.882 773.379 897.368 771.802C897.839 771.283 898.328 770.763 898.818 770.256C904.551 764.245 910.731 758.681 917.171 753.401C918.319 752.44 919.497 751.492 920.675 750.573C921.146 750.193 921.623 749.806 922.112 749.456C922.131 749.426 922.131 749.426 922.143 749.438C931.531 742.019 941.414 735.12 951.219 728.269C951.527 728.058 951.817 727.84 952.119 727.629C952.137 727.647 952.137 727.629 952.137 727.629C954.215 726.173 956.281 724.723 958.359 723.285L958.378 723.267C958.396 723.267 958.408 723.249 958.426 723.237L1000.32 694.01C1000.88 693.611 1001.46 693.212 1002.03 692.82C1018.63 681.245 1035.2 669.664 1051.8 658.071C1051.86 658.041 1051.92 657.992 1051.98 657.95C1053.65 656.79 1055.28 655.624 1056.95 654.476H1056.97C1064.43 649.263 1071.9 644.043 1079.36 638.848C1081.51 637.332 1083.68 635.833 1085.84 634.323C1086.82 633.634 1087.79 632.964 1088.76 632.275C1097.86 625.926 1106.97 619.583 1116.06 613.221H1116.08C1117.32 612.351 1118.58 611.475 1119.82 610.624C1129.04 604.184 1138.28 597.744 1147.5 591.292C1149.02 590.223 1150.57 589.153 1152.1 588.078C1161.2 581.729 1170.3 575.385 1179.4 569.036C1184.31 565.611 1189.2 562.186 1194.11 558.772C1195.14 558.053 1196.16 557.334 1197.19 556.616L1208.17 559.002L1224 562.427L1224.44 562.518L1231.12 563.974L1243.15 566.571L1247.73 567.568C1257.77 593.781 1262.96 621.842 1262.97 649.909Z" fill="#31556B"/>
<path d="M1472.56 1040H1397.36C1353.21 979.528 1311.86 917.02 1282.98 848.289C1282.9 848.12 1282.84 847.951 1282.77 847.782C1281.58 844.937 1280.41 842.091 1279.28 839.234C1279.14 838.944 1279.04 838.636 1278.91 838.346C1277.01 833.543 1275.15 828.68 1273.44 823.696C1265.67 801.229 1260.66 776.593 1265.15 746.78C1265.15 746.78 1265.15 746.761 1265.15 746.731C1265.49 744.496 1265.89 742.237 1266.33 739.941C1266.54 739.911 1266.74 739.862 1266.96 739.832C1269.64 739.391 1272.3 739.192 1274.95 739.222C1300.89 739.542 1324.07 761.84 1334.72 786.494C1346.52 813.843 1347.98 844.459 1356.44 873.016C1375.68 938.001 1428.9 987.037 1472.56 1040Z" fill="#31556B"/>
<path d="M1254.93 473.737C1250.8 495.793 1246.67 517.843 1242.56 539.9C1241.29 546.678 1239.9 553.71 1235.69 559.153C1232.91 562.747 1229.04 565.424 1226.37 569.109C1225.46 570.377 1224.71 571.737 1224.1 573.162C1222 577.874 1221.33 583.257 1220.64 588.428C1219.72 595.418 1218.64 602.377 1217.39 609.307H1217.37C1217.35 609.446 1217.34 609.597 1217.29 609.736C1216.17 615.976 1214.92 622.199 1213.51 628.397C1201.94 680.043 1181.41 729.707 1153.04 774.412C1148.23 782.012 1143.36 789.521 1138.26 796.631C1120.77 821.146 1100.58 841.167 1069.85 845.42C1040.71 849.455 981.701 839.687 967.595 821.793C953.537 803.929 941.262 785.655 930.14 767.012C907.782 729.586 890.021 690.645 871.565 650.453C871.547 650.453 871.547 650.453 871.547 650.453C866.792 640.099 861.989 629.653 857.03 619.118C854.492 613.674 851.889 608.213 849.243 602.722C847.895 599.937 846.427 597.001 843.83 595.333C841.184 593.654 837.867 593.588 834.774 592.996C821.792 590.44 813.044 577.899 809.111 565.267C805.166 552.634 804.598 539.114 800.424 526.555C794.522 508.83 781.6 493.461 779.316 474.909C777.999 464.204 780.524 453.07 786.336 443.984C792.957 433.617 807.456 425.951 816.723 434.107C819.278 431.291 821.048 428.035 822.287 424.531C824.794 417.512 825.193 409.465 825.422 401.883C826.461 365.775 827.76 328.289 844.186 296.108C864.666 255.977 906.144 230.096 949.272 217.065C992.4 204.016 1037.93 201.956 1082.76 197.504C1090.39 196.737 1098.21 195.927 1105.61 197.885C1111.14 199.353 1116.16 202.307 1121.08 205.225C1144.81 219.264 1169.3 234.041 1184.72 256.889C1197.34 275.58 1202.78 298.216 1205.69 320.605C1208.75 344.16 1209.25 368.065 1207.19 391.722C1206.19 403.176 1205.24 416.466 1213.66 424.314C1213.97 424.223 1214.27 424.133 1214.56 424.006C1214.67 423.976 1214.77 423.945 1214.88 423.897C1225.83 419.674 1230.04 402.288 1241.94 402.167C1250.53 402.088 1255.89 411.513 1257.7 419.91C1261.56 437.58 1258.25 455.945 1254.93 473.737Z" fill="#FDD5C8"/>
<path d="M1053.62 517.946C1046.17 530.626 1043.27 545.917 1045.56 560.446C1045.77 561.757 1046.06 563.146 1046.98 564.101C1047.99 565.14 1049.51 565.442 1050.93 565.659C1059.01 566.91 1067.24 567.2 1075.39 566.523C1076.13 566.463 1076.91 566.372 1077.49 565.907C1077.97 565.508 1078.23 564.904 1078.42 564.306C1079.65 560.512 1079.02 556.338 1077.62 552.61C1076.22 548.883 1074.09 545.476 1072.21 541.966C1069.21 536.396 1066.83 530.5 1065.1 524.416C1064.35 521.752 1063.63 518.901 1061.63 516.985C1059.64 515.07 1055.61 514.557 1053.62 517.946Z" fill="#EFC3B6"/>
<path d="M971.812 499.823C976.21 496.24 980.548 492.591 984.837 488.882C984.275 495.539 984.082 502.227 984.257 508.902C980.415 504.982 975.788 501.822 971.812 499.823Z" fill="#EFC3B6"/>
<path d="M798.285 504.776C794.389 495.66 791.428 486.139 789.471 476.419C787.955 468.898 787.145 460.664 790.836 453.94C791.761 452.254 793.09 450.617 794.95 450.14C797.023 449.602 799.173 450.641 800.901 451.916C805.74 455.48 808.948 461.183 809.479 467.17C806.852 467.091 805.021 464.204 802.411 463.932C800.623 463.745 798.901 464.892 797.917 466.403C796.932 467.913 796.551 469.719 796.249 471.495C794.141 483.868 795.12 496.76 798.285 504.776Z" fill="#99685A"/>
<path d="M1066.08 488.344C1054.6 485.632 1045.33 476.836 1033.92 473.876C1041.41 481.578 1048.2 489.963 1054.18 498.892C1055.45 497.031 1056.47 494.99 1057.89 493.238C1060.07 490.537 1063.2 488.628 1066.08 488.344Z" fill="#EFC3B6"/>
<path d="M1003.35 507.857C1005.58 506.86 1007.8 505.864 1010.04 504.867C1007.41 512.358 1003.03 519.233 997.359 524.785C992.569 529.473 986.926 533.188 981.326 536.873C975.853 540.474 970.361 544.08 964.513 547.022C939.944 559.376 910.723 559.092 883.846 553.263C898.671 549.094 914.172 548.164 929.426 546.05C944.68 543.941 960.176 540.468 972.995 531.937C985.011 523.945 994.115 511.977 1003.35 507.857Z" fill="#EFC3B6"/>
<path d="M1149.27 530.941C1158.03 531.527 1166.87 531.025 1175.51 529.436C1163.2 523.842 1148.43 530.21 1135.42 526.531C1141.57 521.734 1149.72 520.411 1157.51 520.097C1165.31 519.783 1173.21 520.308 1180.81 518.538C1170.42 514.623 1159.24 512.811 1148.14 513.24C1159.09 509.917 1169.9 506.117 1180.51 501.846C1183.73 500.553 1187.3 498.826 1188.3 495.503C1180.54 493.226 1172.2 495.328 1164.56 497.974C1156.91 500.62 1149.23 503.858 1141.13 503.87C1155.82 497.297 1171.1 490.271 1181.07 477.639C1182.96 475.241 1184.7 472.081 1183.5 469.272C1182.97 468.034 1181.92 467.085 1180.79 466.354C1175.55 462.965 1168.53 463.811 1162.88 466.445C1157.23 469.079 1152.47 473.272 1147.23 476.661C1141.69 480.249 1135.62 482.943 1129.59 485.626C1119.69 490.018 1109.77 494.416 1099.47 497.756C1093.49 499.69 1087.37 501.278 1081.72 504.003C1079.43 505.109 1077.06 506.583 1076.22 508.981C1075.05 512.316 1077.32 515.856 1079.83 518.333C1086.24 524.628 1094.9 528.222 1103.72 529.92C1112.53 531.617 1121.58 531.539 1130.56 531.376C1136.76 531.249 1143.21 530.53 1149.27 530.941Z" fill="#EFC3B6"/>
<path d="M815.563 529.811C814.487 523.739 813.551 517.565 814.119 511.422C814.687 505.278 816.904 499.098 821.338 494.808C821.676 494.482 822.057 494.15 822.522 494.089C823.023 494.023 823.513 494.277 823.93 494.573C826.666 496.536 827.56 500.33 827.041 503.659C826.521 506.987 824.848 510.008 823.325 513.016C821.398 516.822 819.664 520.719 818.136 524.7C816.922 527.854 815.822 531.297 815.563 529.811Z" fill="#99685A"/>
<path d="M1166.69 526.941C1152.82 532.735 1138.63 538.22 1123.72 540.141C1108.82 542.062 1092.95 540.135 1080.31 532.01C1072.73 527.135 1064.86 519.795 1056.14 522.054C1050.76 523.45 1046.32 528.44 1040.78 527.974C1039.74 524.374 1043.42 520.791 1042.76 517.106C1042.51 515.747 1041.7 514.569 1040.9 513.439C1035.12 505.217 1029.34 496.995 1023.56 488.773C1031.87 493.117 1036.87 502.891 1045.88 505.495C1046.77 505.755 1047.72 505.936 1048.63 505.755C1050.95 505.302 1052.23 502.746 1052.55 500.408C1052.86 498.071 1052.58 495.624 1053.37 493.395C1054.56 490.024 1057.97 487.915 1061.4 486.912C1064.83 485.91 1068.45 485.753 1071.91 484.834C1084.17 481.572 1092.45 469.351 1104.68 465.968C1116.15 462.79 1128.66 468.076 1140.19 465.122C1145.29 463.817 1149.88 460.966 1154.97 459.612C1160.05 458.259 1166.3 458.863 1169.37 463.134C1173.15 468.402 1170.01 475.893 1165.69 480.726C1156.66 490.815 1143.32 495.938 1130.13 498.983C1116.94 502.028 1103.33 503.381 1090.48 507.676C1089.63 507.96 1088.72 508.304 1088.21 509.047C1086.7 511.246 1089.89 513.651 1092.47 514.303C1117.42 520.592 1143.46 511.56 1167.24 501.744C1168.6 501.182 1170.04 500.608 1171.5 500.813C1172.95 501.019 1174.36 502.33 1174.11 503.779C1173.99 504.498 1173.5 505.096 1172.99 505.622C1168.54 510.25 1161.98 511.989 1156.01 514.327C1150.03 516.665 1143.79 520.453 1142.19 526.669C1150.94 526.343 1159.67 524.948 1168.1 522.525C1169.44 524.452 1167.31 527.588 1166.69 526.941Z" fill="#E0AFA1"/>
<path d="M1007.74 506.142C992.527 521.988 976.802 538.208 956.775 547.24C933.051 557.945 905.153 557.304 880.566 548.762C887.628 549.143 894.744 548.436 901.595 546.684C902.489 546.454 903.498 546.098 903.8 545.228C904.114 544.316 903.456 543.361 902.761 542.685C899.662 539.664 895.318 538.414 891.295 536.825C887.271 535.236 883.109 532.874 881.556 528.838C906.325 532.173 932.339 531.08 955.12 520.791C946.215 521.788 937.256 522.29 928.297 522.29C918.226 522.29 907.811 521.571 898.864 516.949C893.222 514.031 888.431 509.694 882.861 506.637C877.116 503.483 869.891 500.982 867.934 494.73C869.637 495.074 870.12 492.374 869.39 490.797C868.665 489.22 867.626 487.172 868.888 485.976C869.299 485.59 869.873 485.42 870.423 485.3C875.213 484.236 880.173 485.487 884.988 486.447C893.838 488.217 902.882 489.027 911.907 488.858C921.06 488.689 930.23 487.511 939.352 488.308C953.471 489.54 966.773 495.431 979.115 502.396C980.638 503.254 982.202 504.178 983.169 505.634C983.858 506.673 984.202 507.93 985.036 508.854C986.353 510.322 988.558 510.588 990.521 510.449C994.285 510.183 997.964 508.782 1000.94 506.468C1002.25 505.453 1003.55 504.214 1005.2 504.063C1006.84 503.912 1008.44 505.411 1007.74 506.142Z" fill="#E0AFA1"/>
<path d="M1254.93 473.737C1250.8 495.793 1246.67 517.843 1242.56 539.9C1241.29 546.678 1239.89 553.71 1235.69 559.153C1232.9 562.747 1229.04 565.424 1226.37 569.109C1225.46 570.377 1224.71 571.737 1224.1 573.162C1223.96 569.459 1224.21 565.732 1224.47 562.028C1225.85 542.328 1227.4 522.537 1225.75 502.855C1223.55 476.655 1215.74 451.1 1214.6 424.858C1214.58 424.58 1214.58 424.308 1214.58 424C1214.69 423.97 1214.79 423.939 1214.9 423.891C1225.85 419.668 1230.06 402.282 1241.96 402.161C1250.56 402.082 1255.91 411.507 1257.73 419.904C1261.56 437.58 1258.25 455.945 1254.93 473.737Z" fill="#E0AFA1"/>
<path d="M896.781 533.514C899.615 533.997 902.261 535.514 904.103 537.719C904.659 538.383 905.16 539.12 905.867 539.628C906.779 540.28 907.927 540.474 909.033 540.649C922.946 542.848 937.728 544.829 950.693 539.308C964.388 533.478 974.573 519.807 989.078 516.641C968.907 516.363 952.04 532.397 932.17 535.852C920.281 537.924 908.133 535.357 896.781 533.514Z" fill="#99685A"/>
<path d="M914.047 515.421C921.677 517.33 929.681 516.152 937.517 515.487C948.059 514.599 958.685 514.678 969.215 515.729C976.821 516.49 984.626 517.735 992.002 515.717C987.314 514.327 983.381 511.186 979.376 508.371C972.097 503.254 964.237 499.031 956.395 494.826C954.323 493.715 952.191 492.579 949.853 492.283C943.268 491.443 937.958 497.152 933.089 501.665C927.023 507.283 919.865 511.712 914.047 515.421Z" fill="#99685A"/>
<path d="M1061.61 513.337C1070.14 513.022 1077.55 518.689 1085.41 522.018C1093.38 525.395 1102.14 526.422 1110.78 526.959C1116.78 527.334 1122.85 527.485 1128.75 526.331C1139.01 524.325 1148.07 518.526 1156.85 512.841C1147.4 510.739 1138.28 516.635 1129.01 519.432C1118.33 522.658 1106.83 521.752 1095.83 519.831C1084.84 517.91 1073.96 515.004 1061.61 513.337Z" fill="#99685A"/>
<path d="M1056.24 513.844C1058.85 511.47 1060.74 508.316 1061.61 504.897C1077.91 504.982 1094.36 503.459 1110.05 498.711C1104.54 492.38 1103.38 483.487 1102.45 475.15C1087.01 478.195 1074.83 490.827 1059.42 494.077C1057.35 500.88 1055.29 507.682 1056.24 513.844Z" fill="#99685A"/>
<path d="M1000.4 515.723C1009.89 515.161 1019.4 514.823 1028.91 514.708C1034.12 514.648 1039.77 514.793 1043.88 518.012C1030.11 521.365 1015.6 521.686 1000.4 515.723Z" fill="#EFC3B6"/>
<path d="M986.016 533.285C989.507 539.229 991.265 546.007 993.724 552.453C996.183 558.899 999.596 565.339 1005.33 569.175C1001.93 554.646 994.963 540.963 986.016 533.285Z" fill="#EFC3B6"/>
<path d="M975.092 537.278C965.051 552.326 954.848 567.743 950.305 585.251C953.023 586.658 955.79 583.499 957.24 580.804C959.052 577.439 960.865 574.068 962.683 570.704C969.05 558.863 975.605 546.297 975.092 537.278Z" fill="#EFC3B6"/>
<path d="M839.583 512.31C838.828 525.316 838.315 538.498 840.93 551.263C843.552 564.028 849.63 576.509 859.942 584.477C860.83 574.292 855.097 564.892 851.2 555.438C845.461 541.519 843.504 526.059 845.594 511.15C845.806 509.633 846.053 508.039 845.504 506.607C844.954 505.175 843.274 504.057 841.879 504.692C840.133 505.477 839.837 507.918 839.583 512.31Z" fill="#FEE4DB"/>
<path d="M1017.07 527.189C1015.54 535.828 1015.83 544.787 1017.91 553.305C1018.2 554.519 1018.76 555.939 1019.99 556.156C1021.83 556.489 1022.7 553.976 1022.81 552.109C1023.19 545.989 1023.57 539.863 1023.95 533.744C1024.08 531.732 1024.18 529.63 1023.37 527.781C1022.57 525.932 1020.54 524.452 1017.07 527.189Z" fill="#FEE4DB"/>
<path d="M992.665 494.536C993.608 491.449 993.529 488.078 994.798 485.118C995.903 482.539 997.939 480.497 999.921 478.515C1001.61 476.83 1003.48 475.054 1005.85 474.74C1006.33 474.673 1006.86 474.685 1007.26 474.957C1008.14 475.543 1007.93 476.866 1007.61 477.875C1006.9 480.146 1006.11 482.496 1004.46 484.212C1002.77 485.958 1000.31 486.888 998.821 488.809C996.749 491.48 997.075 495.292 995.686 498.367C995.456 498.868 995.046 499.43 994.502 499.345C994.224 499.303 993.994 499.098 993.807 498.886C991.862 496.681 992.079 493.334 992.665 494.536Z" fill="#FEE4DB"/>
<path d="M1011.01 490.869C1011.09 493.322 1011.44 495.763 1012.05 498.137C1013.92 498.711 1015.8 499.291 1017.75 499.514C1019.12 499.671 1020.89 499.394 1021.25 498.058C1021.37 497.599 1021.28 497.104 1021.16 496.645C1020.05 492.627 1015.63 489.83 1011.52 490.543C1011.2 491.274 1011.08 492.096 1011.01 490.869Z" fill="#FEE4DB"/>
<path d="M1063.54 437.888C1064.03 440.613 1063.11 443.368 1062.29 446.014C1061.48 448.66 1060.76 451.529 1061.64 454.157C1062.52 456.779 1065.67 458.809 1068.13 457.522C1069.43 456.84 1070.19 455.45 1070.75 454.085C1072.34 450.158 1072.82 445.778 1072.1 441.598C1071.64 438.94 1069.38 435.738 1063.54 437.888Z" fill="#FEE4DB"/>
<path d="M1214.4 486.067C1216.12 505.978 1212.12 525.872 1209.56 545.693C1207 565.514 1205.97 586.278 1213.25 604.891C1226.19 570.643 1229.23 532.729 1221.93 496.856C1220.64 490.501 1217.94 483.088 1214.4 486.067Z" fill="#FEE4DB"/>
<path d="M851.067 428.392C850.082 444.491 861.863 458.646 864.128 474.613C864.962 480.497 864.086 487.317 859.356 490.924C858.582 491.516 857.64 492.017 856.673 491.878C854.891 491.619 854.148 489.492 853.792 487.722C852.849 483.052 852.004 478.358 851.266 473.652C850.838 478.576 850.415 483.499 849.986 488.417C849.931 489.045 849.847 489.74 849.388 490.175C847.908 491.582 846.186 488.683 846.186 486.647C846.18 474.093 846.168 461.534 846.162 448.98C846.15 434.832 846.15 420.605 848.469 406.643C849.382 401.14 851.762 394.597 857.277 393.758C860.292 400.445 856.244 407.942 853.949 414.908C851.762 421.577 851.188 428.778 851.067 428.392Z" fill="#FEE4DB"/>
<path d="M795.223 443.476C803.197 444.141 810.513 449.922 813.002 457.534C814.639 462.542 814.488 468.439 818.04 472.329C820.179 469.447 819.345 465.424 818.415 461.956C816.838 456.06 815.128 449.928 811.044 445.398C806.967 440.861 799.735 438.529 795.223 443.476Z" fill="#FEE4DB"/>
<path d="M1247.47 415.252C1240.45 419.958 1234.01 425.528 1228.32 431.787C1225.84 434.511 1223.37 437.882 1223.97 441.519C1225.54 441.912 1226.96 440.571 1228.02 439.35C1234.17 432.306 1240.32 425.262 1246.47 418.218C1247.25 417.318 1248.09 416.189 1247.74 415.047C1246.68 414.932 1245.62 414.817 1247.47 415.252Z" fill="#FEE4DB"/>
<path d="M867.674 504.728C877.521 508.292 886.516 514.194 893.711 521.806C889.597 524.41 884.408 521.051 880.735 517.855C875.449 513.252 870.163 508.649 867.674 504.728Z" fill="#FEE4DB"/>
<path d="M865.669 527.678C871.329 529.14 877.081 530.639 882.095 533.641C883.381 534.408 884.759 535.574 884.62 537.066C884.372 539.64 880.578 539.561 878.144 538.697C879.678 539.863 881.648 540.437 883.563 540.28C883.677 543.621 879.708 545.947 876.428 545.3C873.148 544.654 870.647 542.008 868.72 539.277C866.792 536.547 865.143 533.526 862.539 531.43C860.709 529.962 858.492 529.019 856.758 527.437C855.024 525.854 853.846 523.244 854.922 521.16C859.954 522.35 864.618 525.056 865.669 527.678Z" fill="#FEE4DB"/>
<path d="M1056.35 520.006C1055.94 533.828 1051.74 547.548 1053.32 561.279C1056.07 560.536 1059.13 560.977 1061.56 562.476C1061.78 547.409 1062.01 532.336 1062.23 517.269C1059.75 516.883 1056.42 517.674 1056.35 520.006Z" fill="#E0AFA1"/>
<path d="M1141.24 599.055C1151.42 600.13 1162.03 595.799 1168.55 587.903C1174.61 580.569 1177.09 570.77 1183.24 563.515C1186.09 560.15 1190.65 557.256 1194.71 558.984C1196.14 559.594 1197.29 560.705 1198.3 561.89C1203.61 568.118 1205.6 576.443 1207.42 584.423C1208.59 589.534 1209.75 594.639 1210.91 599.75C1211.55 602.553 1212.19 605.501 1211.37 608.256C1209.46 614.701 1201.2 616.417 1194.47 616.369C1176.81 616.248 1159.2 611.868 1143.54 603.7C1143.38 603.054 1143.23 602.42 1141.24 599.055Z" fill="#E0AFA1"/>
<path d="M839.299 469.792C839.359 469.302 839.408 468.795 839.468 468.306C839.559 468.124 839.649 467.937 839.698 467.786C839.589 468.215 839.45 468.874 839.299 469.792Z" fill="#E0AFA1"/>
<path d="M839.921 467.067C839.921 467.128 839.861 467.406 839.691 467.786C839.818 467.327 839.891 467.097 839.921 467.067Z" fill="#E0AFA1"/>
<path d="M1220.06 481.596C1216.84 484.883 1211.69 480.479 1209.41 476.485C1191.37 444.751 1180.08 409.193 1176.54 372.855C1175.33 360.392 1174.99 347.682 1171.04 335.799C1163.65 313.682 1143.11 296.525 1120.03 293.22C1095.75 289.747 1071.96 300.44 1047.83 304.795C1005.56 312.456 962.551 300.591 919.955 294.96C903.68 292.822 885.617 292.036 872.543 301.95C857.966 313.023 854.788 333.273 852.722 351.457C848.3 390.411 843.884 429.352 839.462 468.306C838.622 470.003 836.478 472.619 832.104 471C829.705 470.1 829.409 455.903 827.778 453.916C821.477 446.267 821.538 435.593 822.305 424.519C824.812 417.499 825.211 409.453 825.44 401.871C826.479 365.763 827.778 328.277 844.204 296.096C864.684 255.965 906.163 230.084 949.29 217.053C992.418 204.004 1037.95 201.944 1082.78 197.492C1090.41 196.725 1098.22 195.915 1105.62 197.873C1111.16 199.341 1116.18 202.295 1121.1 205.213C1144.83 219.252 1169.32 234.029 1184.74 256.877C1197.36 275.568 1202.8 298.204 1205.71 320.593C1208.76 344.148 1209.27 368.052 1207.21 391.71C1206.21 403.164 1205.26 416.454 1213.68 424.302C1214.09 424.181 1214.5 424.042 1214.9 423.891C1218.15 438.468 1221.83 450.732 1217.03 467.696C1216.69 468.843 1220.9 480.738 1220.06 481.596Z" fill="#E0AFA1"/>
<path d="M1138.27 796.625C1120.77 821.14 1100.58 841.161 1069.85 845.414C1040.71 849.449 981.702 839.681 967.596 821.787C953.538 803.923 941.262 785.648 930.141 767.005C940.018 752.676 960.437 748.822 978.12 750.41C996.714 752.078 1015.24 757.968 1033.73 755.304C1046.25 753.515 1058.33 747.813 1070.97 748.634C1078.33 749.124 1085.36 751.83 1091.97 755.104C1106.82 762.462 1120.16 772.859 1130.93 785.479C1133.8 788.856 1136.57 792.554 1138.27 796.625Z" fill="#99685A"/>
<path d="M1217.38 609.301L1217.29 609.73L1213.51 628.391C1164.07 633.103 1114.26 634.033 1064.67 631.206C1024.28 628.898 982.68 624.234 944.185 636.728C928.659 641.76 913.871 649.547 897.705 651.776C889.688 652.894 881.49 652.586 873.57 650.906C872.899 650.767 872.223 650.616 871.564 650.447C871.546 650.447 871.546 650.447 871.546 650.447C866.792 640.092 861.989 629.647 857.029 619.112C874.724 607.319 893.325 596.856 912.59 587.897C916.982 585.861 921.875 583.861 926.491 585.251C929.686 586.211 932.224 588.676 935.347 589.854C939.431 591.401 943.986 590.603 948.209 589.534C969.957 584.03 989.518 572.099 1010.69 564.699C1040.37 554.344 1073.21 553.214 1103.52 561.515C1106.96 562.445 1111.12 564.62 1110.63 568.154C1110.46 569.381 1109.7 570.522 1109.89 571.749C1110.14 573.168 1111.58 574.014 1112.86 574.673C1137.13 587.033 1161.86 599.556 1188.7 604.069C1198.31 605.688 1208.17 606.286 1217.35 609.313H1217.38V609.301Z" fill="#E0AFA1"/>
<path d="M1230.36 508.878C1230.84 502.299 1231.29 495.479 1228.99 489.293C1227.46 485.148 1224.76 481.512 1223.25 477.367C1221.67 473.054 1221.43 468.263 1222.57 463.817C1223.29 461.014 1225.02 457.981 1227.89 457.625C1229.83 457.383 1231.75 458.513 1232.94 460.066C1234.12 461.618 1234.7 463.545 1235.17 465.442C1236.05 469.085 1236.59 472.812 1237.68 476.395C1239.04 480.823 1241.22 484.997 1242.09 489.546C1243.31 495.974 1241.67 502.891 1237.7 508.093C1236.83 509.223 1235.82 510.304 1234.5 510.817C1232.82 511.476 1230.76 511.035 1229.48 509.748C1228.2 508.449 1227.79 506.383 1230.36 508.878Z" fill="#99685A"/>
<path d="M1250.87 466.403C1247.34 460.174 1243.8 453.952 1240.27 447.723C1238.73 445.017 1237.15 442.16 1237.13 439.048C1237.11 434.523 1240.33 430.711 1243.37 427.359C1245.32 425.196 1247.29 423.033 1249.25 420.87C1249.86 420.2 1250.7 419.463 1251.55 419.765C1252.04 419.94 1252.35 420.417 1252.59 420.876C1253.78 423.196 1254.02 425.866 1254.19 428.47C1254.77 437.611 1254.71 446.787 1254.01 455.921C1253.69 460.162 1252.94 464.911 1250.87 466.403Z" fill="#99685A"/>
<path d="M1237.42 357.837C1234.91 369.629 1230.25 380.872 1227.8 392.676C1225.11 405.755 1225.2 419.209 1224.82 432.566C1224.31 450.442 1222.91 468.306 1220.62 486.049C1217.84 484.49 1215.58 482.363 1213.75 479.868C1208.98 473.386 1207.16 464.361 1206.69 456.054C1206.02 444.57 1206.75 432.349 1201.09 422.332C1196.13 413.585 1186.77 407.556 1183.4 398.089C1180.3 389.311 1183.05 379.676 1183.19 370.36C1183.42 354.254 1175.8 339.224 1168.37 324.937C1159.09 307.103 1148.26 287.85 1129.47 280.703C1124.91 278.975 1120.32 278.075 1115.72 277.846C1085.51 276.269 1054.53 302.62 1022.53 300.494C1016.17 300.083 1009.78 298.519 1003.51 299.684C999.903 300.373 996.339 301.962 992.684 301.551C986.951 300.893 982.589 294.513 984.075 288.931C977.853 291.638 971.226 294.423 964.502 293.516C957.76 292.616 951.241 286.497 952.528 279.827C943.104 281.984 933.686 284.141 924.28 286.279C924.189 280.129 924.11 273.997 924.032 267.847C912.608 275.876 898.689 280.298 884.728 280.341C879.714 280.359 874.452 279.869 869.909 282.008C869.42 282.238 868.961 282.479 868.52 282.775C862.678 286.34 859.983 293.698 858.153 300.458C838.35 373.52 853.701 453.064 831.101 525.298C830.533 520.066 829.941 514.895 829.282 509.76V509.712C826.147 484.877 821.833 461.135 814.783 438.227C806.006 409.749 792.987 382.449 787.761 353.113C778.307 300.029 796.92 242.734 835.801 205.339C846.385 195.136 858.286 186.419 870.139 177.731C894.273 160.049 918.788 142.155 946.716 131.408C966.628 123.747 987.778 119.923 1008.78 116.142C1021.26 113.894 1033.84 111.629 1046.52 112.009C1060.87 112.438 1074.91 116.232 1088.43 121.047C1116.04 130.882 1142.29 145.23 1163.75 165.184C1175.3 175.919 1185.33 188.17 1195.33 200.362C1207.4 215.072 1219.65 230.108 1226.64 247.803C1232.07 261.565 1234.1 276.402 1236.09 291.058C1239.09 313.253 1242.06 335.95 1237.42 357.837Z" fill="#5E3E35"/>
<path d="M868.508 282.787C862.666 286.352 859.972 293.71 858.141 300.47C838.338 373.532 853.689 453.076 831.089 525.31C830.521 520.079 829.929 514.907 829.27 509.772V509.724C829.579 502.946 829.869 496.186 830.171 489.414C830.92 472.516 831.657 455.631 832.726 438.746C834.025 418.158 835.722 396.917 829.023 377.416C827.845 374.003 826.425 370.626 826.208 367.031C825.519 354.738 838.731 346.202 842.205 334.379C848.107 314.346 824.54 294.785 829.391 274.457C831.56 265.34 839.009 258.58 846.168 252.539C852.04 255.076 857.549 258.472 862.473 262.555C865.197 260.84 867.964 270.524 868.423 279.731C868.46 280.739 868.49 281.76 868.508 282.787Z" fill="#421D13"/>
<path d="M878.784 195.299C896.201 199.673 915.472 195.994 930.056 185.512C926.298 191.04 923.096 196.936 920.504 203.092C927.494 199.419 934.484 195.74 941.473 192.067C939.069 196.447 936.659 200.833 934.254 205.213C954.112 185.506 979.11 171.02 1006.08 163.589C979.074 179.417 954.438 199.28 933.245 222.315C927.132 228.278 921.133 234.361 915.261 240.554C914.433 241.423 913.545 242.608 914.028 243.707C914.512 244.807 916.771 243.888 915.931 243.03C907.486 250.141 899.946 258.327 893.555 267.334C894.926 257.505 898.206 247.948 903.154 239.351C894.66 243.737 885.466 246.758 876.023 248.28C881.285 242.686 886.897 237.412 892.812 232.513C884.282 231.008 875.758 229.504 867.227 228C865.318 227.662 863.307 227.281 861.845 226.006C857.386 222.128 860.002 212.202 854.221 210.994C866.249 211.073 878.283 211.151 890.311 211.23C881.847 209.393 873.758 205.841 866.672 200.851C874.054 198.833 881.708 197.836 878.784 195.299Z" fill="#421D13"/>
<path d="M937.346 236.947C954.056 222.895 973.188 211.725 993.637 204.083C979.978 222.502 953.627 226.937 937.346 236.947Z" fill="#421D13"/>
<path d="M943.648 263.667C954.123 247.688 967.631 233.709 983.242 222.69C973.05 231.383 965.348 242.964 961.282 255.729C970.912 245.592 980.988 235.147 994.031 230.102C990.491 237.539 985.918 244.48 980.481 250.666C992.702 238.481 1006.66 225.499 1023.91 224.919C1007.72 240.849 992.509 257.771 978.391 275.568C978.777 271.001 979.967 266.506 981.901 262.356C975.068 269.122 967.003 274.638 958.213 278.54C958.207 275.743 958.195 272.952 958.189 270.155C951.012 274.565 943.829 278.975 936.652 283.385C936.447 274.384 944.802 267.66 947.846 259.19C948.046 258.647 948.149 257.898 947.647 257.608C947.146 257.318 946.783 258.514 943.648 263.667Z" fill="#421D13"/>
<path d="M1000.98 265.407C1012.24 250.292 1024.2 234.591 1041.27 226.61C1048.03 223.451 1055.42 221.608 1061.78 217.706C1066.63 214.733 1071.59 210.426 1077.17 211.501C1065.63 218.811 1054.76 227.19 1045.37 240.759C1052.65 233.376 1062.11 228.175 1072.25 225.994C1063.86 231.087 1056.59 238.016 1051.1 246.154C1058.1 242.33 1065.1 238.505 1072.1 234.681C1077.06 231.975 1082.29 229.19 1087.93 229.184C1082.93 233.207 1078.36 237.768 1074.34 242.771C1078.24 242.879 1082.17 242.323 1085.89 241.145C1076.07 246.214 1066.25 251.276 1056.43 256.345C1051.14 259.076 1045.8 261.836 1041.31 265.751C1038.19 268.488 1035.54 271.726 1032.64 274.704C1028.35 279.108 1023.48 282.944 1018.2 286.092C1020.27 280.721 1022.98 275.592 1026.25 270.85C1017.48 276.233 1008.48 281.247 999.292 285.874C1000.94 280.492 1003.44 275.375 1006.67 270.759C1000.57 269.569 993.903 271.829 989.783 276.486C992.937 271.303 996.247 266.21 1000.98 265.407Z" fill="#421D13"/>
<path d="M1086.79 194.695C1060.28 187.681 1033.56 209.925 1006.36 206.427C1009.1 204.729 1011.83 203.032 1014.58 201.34C1008.55 200.035 1002.53 198.73 996.508 197.426C995.765 197.262 994.973 197.075 994.454 196.519C992.828 194.773 995.384 192.278 997.559 191.306C1002 189.318 1006.43 187.325 1010.87 185.337C1007.37 182.54 1003.05 180.764 998.586 180.293C1005.4 179.689 1012.14 178.329 1018.65 176.245C1019.39 176.01 1020.25 175.605 1020.29 174.832C1020.33 174.058 1018.76 173.986 1019.04 174.705C1023.23 174.046 1027.58 174.354 1031.64 175.593C1028.16 177.894 1024.68 180.202 1021.19 182.504C1027.02 183.102 1032.85 183.7 1038.67 184.298C1036.69 185.706 1034.72 187.113 1032.74 188.521C1052.74 184.171 1074.09 186.298 1086.79 194.695Z" fill="#421D13"/>
<path d="M1070.79 136.941C1056.15 126.514 1037.76 121.464 1019.85 122.944C1036.42 128.176 1052.99 133.413 1070.79 136.941Z" fill="#421D13"/>
<path d="M1020.84 143.925C1004.63 142.457 986.914 141.363 973.533 150.631C991.065 149.302 1008.78 150.359 1026.02 153.772C1023.67 155.681 1021.32 157.596 1018.96 159.505C1031.37 157.62 1044.14 158.206 1056.33 161.221C1062.57 162.761 1069.26 164.918 1075.21 162.495C1071.14 159.414 1066.01 158.176 1061.04 157.016C1051.11 154.684 1041.18 152.358 1031.25 150.026C1036.25 150.377 1041.24 150.733 1046.23 151.084C1033.4 143.562 1018.52 139.593 1020.84 143.925Z" fill="#421D13"/>
<path d="M945.273 149.126C932.925 154.346 920.577 159.571 908.229 164.791C915.846 162.58 923.615 160.87 931.457 159.668C927.047 163.722 922.637 167.775 918.227 171.829C926.255 170.458 934.139 168.241 941.703 165.232C941.31 166.664 939.914 167.751 938.434 167.781C947.641 159.106 957.228 150.824 967.16 142.982C954.576 143.194 942.953 149.338 945.273 149.126Z" fill="#421D13"/>
<path d="M1135.13 162.779C1123.38 158.75 1111.63 154.726 1099.88 150.697C1107.42 154.998 1114.59 159.958 1121.28 165.51C1108.44 160.907 1095.31 157.161 1081.98 154.304C1089.12 157.995 1095.88 162.417 1102.13 167.479C1094.27 167.812 1086.41 168.138 1078.56 168.47C1093.58 174.662 1108.82 180.981 1121.59 191.034C1109.06 184.793 1095.67 180.287 1081.92 177.683C1105.79 181.126 1126.37 196.344 1149.72 202.403C1143.64 194.828 1137.09 187.633 1130.11 180.879C1137 181.368 1143.82 183.035 1150.15 185.796C1145.48 180.83 1140.56 176.1 1135.41 171.624C1141.09 173.901 1146.97 175.665 1152.97 176.873C1142.59 170.899 1132.2 164.924 1135.13 162.779Z" fill="#421D13"/>
<path d="M980.625 178.825C970.343 183.779 961.154 190.98 953.874 199.77C958.351 197.903 962.827 196.036 967.304 194.169C961.516 200.078 955.729 205.992 949.936 211.9C954.642 209.145 959.656 206.922 964.851 205.291C960 209.158 955.699 213.719 952.128 218.793C959.469 215.73 967.08 213.314 974.837 211.574C969.237 215.688 964.301 220.702 960.284 226.375C967.304 221.687 975.447 218.691 983.827 217.7C977.707 223.433 972.312 229.945 967.811 237.025C974.662 232.676 982.111 229.269 989.886 226.937C984.491 231.631 980.147 237.515 977.254 244.051C985.137 240.85 993.027 237.654 1000.91 234.452C995.667 240.258 991.185 246.746 987.614 253.699C993.462 248.594 1000.84 245.266 1008.53 244.251C1004.34 248.993 1001.29 254.75 999.739 260.888C1006.1 257.215 1012.46 253.536 1018.82 249.863C1020.15 249.096 1022.1 248.437 1023 249.682C1023.63 250.564 1023.21 251.79 1022.74 252.775C1020.45 257.614 1017.55 262.169 1014.13 266.289C1026.68 256.128 1039.22 245.96 1051.77 235.799C1047.79 237.068 1043.82 238.33 1039.85 239.599C1041.89 236.669 1043.93 233.745 1045.98 230.815C1046.61 229.921 1047.26 228.803 1046.81 227.801C1046.35 226.762 1045.01 226.52 1043.88 226.441C1037.77 226.018 1031.61 226.242 1025.54 227.118C1026.97 225.052 1028.39 222.986 1029.82 220.926C1021.82 220.14 1013.82 219.349 1005.82 218.564C1008.78 215.531 1011.74 212.498 1014.7 209.466C1008.12 210.239 1001.55 211.012 994.979 211.779C999.528 208.245 1003.7 204.234 1007.41 199.83C999.6 199.039 991.71 198.978 983.887 199.655C987.27 196.145 990.653 192.641 994.036 189.131C989.904 185.694 984.074 184.413 978.885 185.802C981.96 182.891 985.035 179.979 988.11 177.061C981.76 179.465 975.399 181.864 980.625 178.825Z" fill="#806158"/>
<path d="M1033.03 159.378C1046.87 158.859 1060.8 160.677 1074.05 164.737C1064.24 166.755 1054.43 168.772 1044.61 170.79C1050.68 171.962 1056.75 173.14 1062.82 174.312C1055.82 176.13 1049.05 178.801 1042.7 182.244C1050.08 183.187 1057.49 183.899 1064.91 184.377C1062.09 186.564 1058.29 187.433 1054.79 186.696C1057.52 186.255 1060.25 185.814 1062.99 185.373C1044.06 184.129 1025.14 182.891 1006.23 181.646C1011.58 178.293 1017.22 175.393 1023.07 173.001C1013.34 171.37 1003.53 170.216 993.693 169.533C997.626 164.972 1003.78 163.118 1009.61 161.644C1020.95 158.78 1032.45 156.521 1033.03 159.378Z" fill="#806158"/>
<path d="M1053.57 115.344C1074.79 119.253 1095.63 125.306 1115.64 133.383C1105.92 132.338 1096.1 132.302 1086.37 133.28C1107.31 138.893 1128.72 144.71 1146.52 157.077C1123.27 151.694 1099.6 148.099 1075.8 146.347C1078.67 149.35 1082.41 151.501 1086.45 152.479C1072.04 149.809 1057.45 148.087 1042.8 147.338C1044.55 147.084 1046.31 146.837 1048.06 146.583C1031.9 142.693 1015.12 141.424 998.568 142.85C1002.89 141.678 1007.22 140.506 1011.54 139.334C994.497 140.367 977.412 140.82 960.34 140.699C970 134.386 981.871 132.725 993.307 131.214C984.486 131.166 975.672 131.112 966.852 131.063C982.118 124.726 998.315 120.648 1014.76 118.993C1010.4 118.963 1006.05 118.933 1001.7 118.902C1020.58 114.849 1040.1 112.861 1053.57 115.344Z" fill="#806158"/>
<path d="M1167.15 179.024C1186.09 189.596 1201.96 205.581 1212.39 224.599C1214.14 227.794 1215.78 231.516 1214.63 234.971C1201.63 228.779 1189.52 220.702 1178.81 211.085C1186.64 217.76 1193.47 225.608 1199.01 234.283C1190.21 230.428 1181.28 226.888 1172.24 223.656C1176.1 227.662 1179.97 231.667 1183.83 235.666C1175.32 224.061 1159.87 218.745 1152.39 206.457C1155.56 207.877 1159.03 208.632 1162.5 208.656C1158.94 197.51 1151.93 187.488 1142.69 180.305C1149.52 183.259 1156.59 185.675 1163.81 187.512C1159.6 181.344 1155.4 175.176 1151.2 169.008C1162.26 173.629 1172.41 180.438 1167.15 179.024Z" fill="#806158"/>
<path d="M838.199 209.701C812.917 231.552 796.05 262.906 791.742 296.042C795.56 286.219 800.514 276.372 808.875 269.962C800.641 281.615 794.654 294.851 791.344 308.734C793.827 304.113 796.31 299.485 798.792 294.864C797.143 301.69 796.6 308.776 797.192 315.772C805.075 290.284 816.185 265.799 830.17 243.085C828.914 248.649 826.558 253.959 823.283 258.629C827.422 248.449 834.333 239.412 843.068 232.742C837.051 239.871 831.886 247.718 827.718 256.061C832.236 246.746 840.591 239.853 845.944 230.99C851.254 222.2 853.368 211.906 855.392 201.842C843.606 208.445 832.683 216.582 838.199 209.701Z" fill="#806158"/>
<path d="M798.683 336.946C796.593 347.627 794.829 358.767 797.626 369.285C799.613 376.764 803.776 383.433 807.231 390.356C812.723 401.345 816.492 413.095 820.238 424.797C818.655 414.298 817.072 403.804 815.49 393.305C817.175 396.639 818.854 399.98 820.54 403.315C818.957 390.091 818.123 376.776 818.039 363.455C819.229 367.472 820.413 371.49 821.603 375.507C821.283 361.866 822.691 348.189 825.79 334.898C825.886 337.212 825.983 339.52 826.08 341.834C827.801 328.936 829.215 316.002 830.315 303.037C828.218 305.478 826.128 307.913 824.032 310.353C824.992 304.173 825.131 297.872 824.437 291.656C819.706 300.216 814.97 308.776 810.24 317.343C809.521 315.422 808.802 313.501 808.077 311.586C804.948 317.222 802.471 323.215 800.695 329.413C799.505 323.245 798.308 317.077 797.118 310.909C793.917 318.865 792.968 327.709 794.406 336.167C793.965 332.645 793.518 329.123 793.077 325.601C792.418 333.726 793.596 341.985 798.683 336.946Z" fill="#806158"/>
<path d="M1104.58 207.847C1123.84 212.142 1142.44 219.343 1159.56 229.136C1145.95 225.65 1131.97 223.65 1117.93 223.185C1123.24 224.834 1128.34 227.136 1133.09 230.03C1126.5 229.867 1119.9 229.697 1113.3 229.534C1114.56 230.241 1115.83 230.942 1117.09 231.649C1108.6 229.256 1100.31 226.091 1092.39 222.212C1094.69 222.394 1097.06 221.657 1098.85 220.195C1093.35 216.624 1087.86 213.054 1082.36 209.49C1093.65 210.632 1105.03 210.861 1104.58 207.847Z" fill="#421D13"/>
<path d="M1199.09 253.035C1211.51 272.276 1224.35 292.731 1225.32 315.615C1216.56 302.566 1207.3 289.862 1197.54 277.538C1200.01 287.626 1202.48 297.715 1204.94 307.804C1200.4 301.092 1195.85 294.38 1191.31 287.669C1190.35 294.616 1190.11 301.666 1190.61 308.668C1184.48 298.923 1179.45 288.49 1175.62 277.634C1176.56 280.474 1177.5 283.313 1178.43 286.146C1175.81 274.71 1171.26 263.721 1165.03 253.778C1170.47 256.52 1175.62 259.849 1180.35 263.691C1177.73 256.158 1175.1 248.631 1172.48 241.097C1178.95 244.492 1185.61 247.513 1192.42 250.141C1192.44 249.235 1192.46 248.328 1192.47 247.422C1195.49 250.606 1198.22 254.068 1199.09 253.035Z" fill="#421D13"/>
<path d="M1053.36 280.425C1063.58 265.763 1076.95 253.306 1092.3 244.148C1097.78 240.88 1103.61 237.992 1109.89 236.862C1116.17 235.733 1122.99 236.518 1128.27 240.112C1123.57 240.348 1119.01 242.523 1115.87 246.015C1121.57 244.963 1127.46 244.988 1133.15 246.081C1125.59 249.071 1118.03 252.062 1110.47 255.058C1112.42 255.27 1114.37 255.481 1116.32 255.693C1102.89 257.596 1088.68 259.837 1078.31 268.578C1074.63 271.678 1071.59 275.483 1067.87 278.534C1064.11 281.615 1059.74 283.857 1053.36 280.425Z" fill="#421D13"/>
<path d="M1213.75 479.869C1208.98 473.386 1207.16 464.361 1206.69 456.054C1206.02 444.57 1206.75 432.349 1201.09 422.332C1196.13 413.585 1186.77 407.556 1183.4 398.089C1180.3 389.311 1183.05 379.676 1183.19 370.36C1183.42 354.254 1175.8 339.224 1168.37 324.937C1159.09 307.103 1148.26 287.85 1129.47 280.703C1124.91 278.975 1120.32 278.075 1115.72 277.846C1127.63 268.53 1145.41 267.08 1158.5 274.801C1168.51 280.703 1175.29 290.907 1180.08 301.503C1185.22 312.915 1188.44 325.07 1191.64 337.17C1193.95 345.857 1196.27 354.756 1195.52 363.721C1194.98 370.233 1192.85 376.571 1192.68 383.113C1192.14 404.602 1212.45 421.408 1215.49 442.685C1217.23 454.876 1213.19 467.865 1213.75 479.869Z" fill="#421D13"/>
<path d="M1299.18 679.946C1283.32 697.991 1271.86 719.896 1266.06 743.215C1265.15 746.888 1264.29 750.755 1261.86 753.66C1258.94 757.164 1254.2 758.632 1249.66 759.134C1230.22 761.303 1212.4 749.389 1195.62 739.313C1191.66 736.945 1187.49 734.57 1182.88 734.141C1174.15 733.302 1166.52 739.373 1158.77 743.469C1143.24 751.679 1123.94 752.325 1107.9 745.167C1100.76 741.971 1093.12 737.216 1085.69 739.663C1081.23 741.131 1078 744.955 1075 748.58C1070.34 754.253 1065.52 759.973 1060.47 765.477C1048.76 778.296 1035.84 789.98 1020.77 797.181C1020.77 797.181 1020.77 797.181 1020.77 797.199C1015.56 799.694 1010.09 801.652 1004.33 802.932C1003.42 803.132 1002.46 803.313 1001.51 803.391C999.782 803.542 998.054 803.361 996.647 802.413C994.689 801.096 993.862 798.697 993.203 796.432C988.159 779.027 986.262 760.493 977.967 744.369C969.661 728.251 952.087 714.743 934.441 718.845C925.294 720.972 917.834 727.351 910.614 733.344C892.261 748.544 871.921 762.97 848.384 766.734C841.715 767.803 834.586 767.924 828.503 764.988C813.237 757.587 812.355 736.558 817.629 742.4C814.693 736.081 811.757 729.78 808.821 723.467C800.242 705.053 791.676 686.64 783.109 668.226C828.744 644.901 873.479 619.818 917.193 593.056C924.902 600.046 932.622 607.035 940.331 614.025C972.446 585.517 1013.15 566.934 1055.6 560.784H1055.62C1064.23 559.527 1072.89 558.778 1081.57 558.579C1084.94 558.5 1088.32 558.5 1091.68 558.579C1091.91 566.167 1092.12 573.736 1092.35 581.324C1106.31 574.274 1120.84 568.311 1135.74 564.378C1148.63 569.9 1148.1 591.008 1160.83 596.88C1168.17 600.257 1176.71 596.989 1184.8 596.959C1198.44 596.91 1210.15 606.087 1220.65 614.792C1246.82 636.51 1273.01 658.228 1299.18 679.946Z" fill="white"/>
<path d="M1063.95 698.958C1062.76 708.025 1065.08 717.129 1065.85 726.24C1067 739.669 1064.76 752.803 1060.47 765.483C1048.75 778.302 1035.83 789.986 1020.76 797.187C1021.14 792.874 1022.17 788.699 1024.34 784.924C1026.73 780.749 1030.3 777.414 1033.35 773.699C1045.23 759.14 1048.32 738.292 1042.49 720.428C1041.24 716.604 1039.62 712.889 1039.01 708.913C1037.51 699.338 1042.03 689.962 1046.08 681.154C1054.82 662.022 1061.84 642.092 1067.01 621.691C1069.6 611.487 1072.23 600.342 1080.46 593.781C1075.01 600.94 1073.96 611.185 1077.83 619.305C1079.76 623.34 1082.74 626.784 1084.59 630.849C1089.65 642.001 1085.17 655.123 1079.19 665.81C1073.2 676.503 1065.56 686.815 1063.95 698.958Z" fill="#CFCFCF"/>
<path d="M1038.43 741.445C1035.69 748.556 1028.88 753.087 1023.53 758.512C1011.68 770.515 1006.81 787.129 1001.5 803.397C999.776 803.548 998.048 803.367 996.641 802.419C994.683 801.102 993.856 798.703 993.197 796.438C988.153 779.033 986.256 760.499 977.961 744.375C969.655 728.257 952.081 714.749 934.435 718.851C925.288 720.978 917.827 727.357 910.608 733.35C892.255 748.55 871.914 762.976 848.378 766.74C841.709 767.809 834.58 767.93 828.497 764.994C813.231 757.593 812.349 736.564 817.622 742.406C814.686 736.087 811.75 729.786 808.814 723.473C823.954 717.051 839.679 712.001 855.736 708.436C862.678 706.89 869.993 705.482 875.539 701.018C878.167 698.879 880.263 696.155 882.867 693.98C888.31 689.437 895.469 687.649 902.35 685.993C926.865 680.091 951.368 674.201 975.871 668.311C984.57 666.233 996.133 665.357 1000.11 673.391C1003.3 679.843 999.057 688.398 1002.85 694.499C1004.2 696.656 1006.35 698.154 1008.49 699.513C1016.38 704.576 1024.89 708.95 1031.33 715.77C1037.77 722.585 1041.8 732.71 1038.43 741.445Z" fill="#CFCFCF"/>
<path d="M1081.57 558.585C1078.83 562.161 1075.01 564.934 1071.87 568.233C1058.81 581.964 1057.31 604.691 1042.16 616.073C1041.58 616.514 1040.93 616.943 1040.22 617.033C1038.69 617.215 1037.37 615.765 1037.11 614.248C1036.86 612.732 1037.4 611.222 1037.92 609.784C1043.81 593.479 1049.68 577.18 1055.57 560.875C1055.59 560.844 1055.59 560.814 1055.6 560.784H1055.62C1064.22 559.533 1072.88 558.784 1081.57 558.585Z" fill="#CFCFCF"/>
<path d="M1174.14 693.345C1153.35 666.813 1133.57 639.488 1114.86 611.445C1117.86 608.479 1122.76 611.626 1125.66 614.677C1149.39 639.561 1172.76 664.771 1196.13 689.98C1205.33 699.9 1214.53 709.82 1223.72 719.733C1203.57 717.111 1184.69 706.793 1174.14 693.345Z" fill="#CFCFCF"/>
<path d="M1043.07 736.812V736.83C1042.98 737.398 1042.86 737.959 1042.71 738.527C1040.89 745.167 1035.32 749.679 1029.19 753.238C1027.51 754.216 1025.79 755.116 1024.09 755.974H1024.08C1023.77 756.125 1023.47 756.282 1023.16 756.433C1022.07 756.971 1021 757.521 1019.91 758.052C1019.89 758.052 1019.88 758.07 1019.86 758.07C1017.22 759.387 1014.6 760.698 1011.96 762.015C1011.88 762.064 1011.81 762.094 1011.73 762.124C1009.72 763.133 1007.7 764.13 1005.7 765.139C999.723 768.123 993.761 771.101 987.78 774.104C982.609 776.671 977.443 779.257 972.272 781.842C972.423 782.12 972.58 782.41 972.731 782.682C976.096 789.001 979.352 796.033 977.534 802.902C977.486 803.101 977.425 803.301 977.353 803.5C977.202 804.02 977.015 804.527 976.803 805.016C976.712 805.228 976.622 805.457 976.513 805.675C976.483 805.766 976.453 805.856 976.392 805.935C976.241 806.255 976.072 806.575 975.903 806.883C975.704 807.234 975.492 807.584 975.275 807.94C975.063 808.291 974.834 808.629 974.604 808.967C974.362 809.318 974.115 809.638 973.867 809.976C973.686 810.224 973.499 810.448 973.317 810.677C973.058 811.015 972.78 811.348 972.508 811.686C970.321 814.332 967.856 816.839 965.899 819.624C965.881 819.654 965.85 819.684 965.838 819.715C965.428 820.313 965.029 820.923 964.678 821.551C964.509 821.811 964.358 822.089 964.207 822.349C963.947 822.808 963.718 823.249 963.488 823.708C963.259 824.167 963.029 824.638 962.818 825.097C962.818 825.097 962.8 825.097 962.8 825.115C962.081 826.662 961.44 828.251 960.854 829.858C960.673 830.347 960.504 830.855 960.347 831.356L960.238 831.616C959.779 832.963 959.35 834.322 958.909 835.669C958.142 838.038 957.381 840.424 956.511 842.738C942.87 878.924 902.448 899.313 887.472 934.962C882.821 945.987 880.851 958.057 875.541 968.775C861.84 996.473 829.719 1009.15 807.97 1031.11C805.173 1033.94 802.558 1036.91 800.093 1040.01H584.586C613.215 1011.23 645.366 985.074 669.821 953.919V953.901C670.099 953.551 670.389 953.182 670.661 952.814C680.556 940.061 689.134 926.462 695.653 911.486V911.468C696.16 910.308 696.662 909.13 697.139 907.934V907.916C697.199 907.777 697.248 907.668 697.308 907.535C699.833 901.283 701.942 894.915 703.73 888.463C705.017 883.878 706.128 879.256 707.125 874.593V874.574C713.348 845.776 715.124 815.721 721.884 786.911C723.533 779.921 725.539 772.841 729.792 767.042C735.863 758.765 745.638 754.21 755.044 750.078C773.379 742.049 791.889 734.401 810.562 727.212C838.031 716.646 865.863 707.071 894.069 698.734C913.999 692.832 934.11 687.552 954.39 682.979C966.152 680.333 978.984 678.025 989.87 683.19C994.413 685.365 998.147 689.401 1000.32 694.004C1001.17 695.792 1001.78 697.677 1002.12 699.556C1002.93 704.038 1002.15 708.563 999.186 712.037C998.938 712.327 998.696 712.605 998.418 712.864C1008.5 711.276 1019.19 710.339 1028.59 714.302C1029.46 714.671 1030.31 715.082 1031.13 715.571H1031.15C1034.25 717.347 1037.02 719.794 1039.14 722.651C1039.14 722.669 1039.14 722.669 1039.14 722.669C1042.2 726.838 1043.85 731.84 1043.07 736.812Z" fill="#FDD5C8"/>
<path d="M958.915 835.657C958.148 838.025 957.386 840.412 956.516 842.725C942.875 878.912 902.454 899.301 887.478 934.95C882.826 945.975 880.857 958.045 875.547 968.762C861.845 996.461 829.724 1009.14 807.976 1031.1C805.179 1033.93 802.563 1036.89 800.098 1040H794.299C804.273 1024.61 816.506 1010.49 830.546 998.491C840.61 989.882 851.605 982.313 860.571 972.568C869.517 962.824 876.417 950.283 875.897 937.058C875.806 934.521 875.456 931.875 876.447 929.531C877.395 927.362 879.334 925.846 881.159 924.348C892.184 915.262 900.998 903.5 906.641 890.378C907.601 888.131 908.489 885.727 908.139 883.31C907.299 877.42 899.959 875.082 893.978 875.68C893.96 875.698 893.96 875.68 893.96 875.68C893.779 875.698 893.61 875.71 893.441 875.741C885.653 876.749 878.531 880.513 871.602 884.216C901.228 864.564 927.35 849.788 953.303 838.134C955.163 837.288 957.048 836.467 958.915 835.657Z" fill="#E0AFA1"/>
<path d="M957.169 685.903C954.976 693.503 957.574 702.268 963.555 707.446C964.159 707.971 964.853 708.479 965.651 708.527C966.448 708.575 967.33 707.941 967.252 707.143C967.197 706.612 966.762 706.213 966.37 705.851C960.691 700.643 957.707 692.651 957.169 685.903Z" fill="#E0AFA1"/>
<path d="M1013.85 714.405C1009.71 715.329 1005.5 716.278 1001.81 718.362C998.122 720.446 994.957 723.878 994.232 728.058C993.742 730.903 994.407 733.827 995.337 736.564C996.37 739.621 997.736 742.563 999.391 745.336C1001.09 748.187 1003.72 751.147 1007.03 750.9C1007.68 749.432 1005.69 748.32 1004.28 747.535C1000.09 745.185 999.016 739.724 998.503 734.945C998.207 732.166 997.971 729.266 998.974 726.662C999.784 724.566 1001.33 722.838 1003.02 721.352C1006.66 718.126 1011.09 715.794 1013.85 714.405Z" fill="#E0AFA1"/>
<path d="M879.057 728.36C880.029 732.468 879.993 736.981 878.03 740.72C876.06 744.46 871.88 747.184 867.693 746.604C866.292 746.411 864.884 745.813 864.05 744.677C863.217 743.535 863.138 741.79 864.135 740.787C867.693 742.104 871.934 741.367 874.84 738.932C877.746 736.491 879.22 732.45 879.057 728.36Z" fill="#E0AFA1"/>
<path d="M870.594 771.542C869.7 775.481 868.848 779.813 870.703 783.395C872.213 786.307 875.203 788.101 878.043 789.738C878.792 786.47 876.206 783.48 873.941 781.003C871.675 778.526 869.428 775.095 870.594 771.542Z" fill="#E0AFA1"/>
<path d="M865.904 751.31C852.656 759.774 838.906 767.446 824.746 774.279C818.324 777.378 811.763 780.326 804.81 781.927C795.374 784.102 785.557 783.721 775.879 783.329C778.41 789.013 785.237 791.768 791.447 791.418C797.657 791.067 803.433 788.258 809.015 785.504C821.659 779.257 834.303 773.016 846.947 766.77C855.792 762.408 864.847 757.883 865.904 751.31Z" fill="#E0AFA1"/>
<path d="M999.826 749.921C996.468 756.264 989.49 759.653 982.96 762.632C933.664 785.105 884.368 807.578 835.072 830.051C827.381 833.561 819.624 837.089 811.402 839.046C801.295 841.451 790.717 841.427 780.641 843.964C793.653 846.676 807.083 843.009 819.721 838.907C881.117 818.972 938.406 788.023 999.337 766.721C1008.8 763.417 1018.63 760.179 1026.12 753.534C1016.18 755.267 1005.81 754.524 999.826 749.921Z" fill="#E0AFA1"/>
<path d="M977.54 802.896C975.782 809.547 969.771 814.06 965.838 819.703C963.669 822.82 962.153 826.281 960.854 829.84C955.091 833.676 948.971 837.041 942.881 840.375C926.057 849.6 909.25 858.819 892.426 868.044C873.124 878.64 853.581 889.333 832.334 895.066C847.37 882.736 865.506 874.985 883.001 866.479C900.484 857.973 918.01 848.217 930.292 833.138C932.648 830.263 934.816 827.115 935.735 823.503C936.635 819.896 936.055 815.734 933.457 813.069C931.482 811.034 928.636 810.133 925.857 809.565C918.149 808.037 909.999 808.708 902.641 811.523C923.441 798.661 939.329 791.472 955.803 786.041C961.295 784.235 966.998 782.616 972.737 782.664C976.102 788.995 979.358 796.027 977.54 802.896Z" fill="#E0AFA1"/>
<path d="M999.18 712.049C950.222 728.493 901.065 744.333 851.715 759.569C894.813 738.968 943.462 732.178 986.687 711.849C992.746 708.992 999.107 705.428 1002.12 699.568C1002.93 704.05 1002.15 708.575 999.18 712.049Z" fill="#99685A"/>
<path d="M962.811 825.085C920.553 854.953 874.471 879.395 826.033 897.628C875.541 886.603 924.74 866.733 960.238 831.604L962.811 825.085Z" fill="#99685A"/>
<path d="M972.737 782.676C976.102 788.995 979.359 796.027 977.54 802.896C977.492 803.095 977.431 803.295 977.359 803.494C971.137 799.761 962.649 798.83 955.091 799.12C944.537 799.531 934.014 801.168 923.828 803.983C915.842 806.201 908.061 809.137 900.304 812.06C880.465 819.558 860.613 827.049 840.78 834.546C833.023 837.482 825.194 840.436 818.295 845.021C825.285 838.581 834.153 834.636 842.858 830.83C896.462 807.433 950.639 785.328 1005.31 764.577C1005.45 764.758 1005.59 764.957 1005.71 765.145C994.558 770.715 983.424 776.279 972.278 781.849C972.435 782.108 972.586 782.398 972.737 782.676Z" fill="#99685A"/>
<path d="M966.617 739.705C966.418 746.036 966.683 753.389 971.728 757.225C973.238 754.573 972.163 751.196 970.592 748.574C969.027 745.958 966.949 743.517 966.617 739.705Z" fill="#E0AFA1"/>
<path d="M924.184 701.477C924.274 707.627 926.395 713.722 930.14 718.604C930.648 716.211 930.158 713.62 928.817 711.578C927.681 709.838 925.984 708.515 924.908 706.733C923.833 704.951 923.616 702.329 924.184 701.477Z" fill="#E0AFA1"/>
<path d="M894.607 766.359C897.108 768.516 899.646 770.721 901.392 773.524C903.138 776.327 903.995 779.873 902.872 782.978C900.02 777.149 897.163 771.325 894.607 766.359Z" fill="#E0AFA1"/>
<path d="M781.123 766.166C799.464 755.938 819.098 748.036 839.408 742.708C843.226 741.705 848.186 741.21 850.276 744.562C832.02 754.573 813.28 763.695 794.142 771.893C787.122 774.895 779.449 777.831 772.043 775.989C776.248 770.709 781.491 766.268 781.123 766.166Z" fill="#FEE4DB"/>
<path d="M823.091 815.806C833.494 810.834 844.054 806.188 854.741 801.881C859.731 799.869 865.337 797.918 870.345 799.888C849.304 812.622 826.722 822.814 803.252 830.172C809.505 823.237 817.715 818.374 823.091 815.806Z" fill="#FEE4DB"/>
<path d="M781.257 906.158C784.64 900.848 788.79 896.027 793.538 891.889C795.478 890.197 797.634 888.445 798.287 885.956C798.939 883.467 797 880.223 794.481 880.749C792.735 881.111 791.756 882.96 790.264 883.938C786.863 886.174 781.148 883.769 778.877 887.146C777.88 888.632 778.127 890.602 778.411 892.372C779.179 897.06 779.94 901.754 781.257 906.158Z" fill="#FEE4DB"/>
<path d="M823.629 856.076C835.294 848.616 846.972 841.149 859.109 834.485C867.603 829.815 876.67 825.454 886.36 825.2C882.778 829.405 877.703 831.978 872.762 834.443C857.037 842.303 841.311 850.162 823.629 856.076Z" fill="#FEE4DB"/>
<path d="M914.398 753.256C926.759 746.828 939.759 741.62 953.147 737.748C955.104 737.18 957.502 736.751 958.922 738.207C944.961 747.825 929.048 754.609 914.398 753.256Z" fill="#FEE4DB"/>
<path d="M741.227 846.876C745.552 842.943 749.992 838.932 755.399 836.708C759.259 835.12 763.784 834.304 766.382 831.036C764.147 828.686 760.244 830.408 757.55 832.214C752.107 835.881 746.664 839.542 741.227 846.876Z" fill="#FEE4DB"/>
<path d="M1458.08 1040H1232.14C1220.61 1025.7 1205.94 1013.94 1189.34 1006.08C1185.12 1004.06 1180.73 1002.28 1176.45 1000.36C1174.69 999.579 1172.95 998.769 1171.24 997.893C1168.68 996.624 1166.21 995.229 1163.84 993.628C1148.99 983.642 1140.1 966.926 1133.81 950.162C1133.38 949.014 1132.95 947.854 1132.54 946.688C1132.21 945.728 1131.85 944.761 1131.52 943.782C1130.77 941.644 1130.03 939.499 1129.33 937.36C1127.72 932.636 1126.16 927.894 1124.5 923.212C1124.09 922.064 1123.67 920.916 1123.24 919.769C1122.75 918.452 1122.24 917.153 1121.74 915.836C1121.45 915.117 1121.16 914.398 1120.87 913.679C1120.62 913.099 1120.38 912.519 1120.14 911.951C1119.78 911.112 1119.43 910.302 1119.07 909.474C1117.66 906.291 1116.13 903.173 1114.43 900.129C1112.72 897.042 1110.84 894.057 1108.85 891.133C1099.63 877.595 1088 865.652 1078.4 852.301C1077.54 851.123 1076.72 849.914 1075.89 848.694C1075.48 848.066 1075.05 847.426 1074.63 846.767C1074.22 846.127 1073.81 845.48 1073.41 844.822C1072.77 843.783 1072.14 842.713 1071.54 841.638C1071.31 841.239 1071.08 840.841 1070.87 840.43C1069.66 838.261 1068.54 836.026 1067.53 833.76C1067.23 833.09 1066.94 832.413 1066.66 831.743C1066.44 831.205 1066.22 830.673 1066.01 830.124C1065.89 829.816 1065.76 829.513 1065.66 829.205C1065.38 828.486 1065.12 827.768 1064.88 827.049C1064.62 826.281 1064.36 825.502 1064.13 824.723C1063.92 824.064 1063.73 823.394 1063.55 822.717C1063.49 822.457 1063.41 822.198 1063.35 821.938C1063.2 821.34 1063.04 820.76 1062.92 820.18C1062.89 820.071 1062.87 819.968 1062.86 819.872C1062.72 819.292 1062.6 818.712 1062.49 818.126C1062.44 817.896 1062.4 817.685 1062.37 817.455C1062.34 817.334 1062.32 817.226 1062.31 817.105C1062.22 816.634 1062.14 816.144 1062.08 815.667C1061.97 814.9 1061.87 814.139 1061.79 813.359C1061.76 813.051 1061.73 812.731 1061.71 812.429C1061.65 811.758 1061.6 811.082 1061.57 810.393C1061.52 809.626 1061.51 808.877 1061.51 808.116C1061.51 804.153 1062 800.178 1063.04 796.215L1062.95 796.124C1061.68 794.855 1060.39 793.568 1059.16 792.27C1058.53 791.611 1057.9 790.953 1057.29 790.282C1057.2 790.191 1057.12 790.101 1057.03 790.004C1056.51 789.424 1055.99 788.844 1055.48 788.258C1055.33 788.089 1055.19 787.92 1055.04 787.739C1054.9 787.57 1054.75 787.4 1054.61 787.219C1054.29 786.839 1053.97 786.452 1053.66 786.059C1053.46 785.812 1053.28 785.588 1053.11 785.34C1052.95 785.129 1052.78 784.912 1052.62 784.7C1052.44 784.471 1052.27 784.229 1052.11 783.999C1051.72 783.462 1051.36 782.93 1051.01 782.38C1050.72 781.939 1050.43 781.48 1050.15 781.021C1050.07 780.912 1050.01 780.791 1049.95 780.683C1049.78 780.405 1049.63 780.133 1049.48 779.843C1049.42 779.734 1049.36 779.631 1049.3 779.523C1049.27 779.493 1049.25 779.462 1049.24 779.414C1048.93 778.864 1048.64 778.296 1048.4 777.716H1048.38C1047.84 776.587 1047.38 775.439 1046.99 774.243C1044.92 767.99 1045.53 760.463 1049.89 755.34C1051.61 753.352 1053.89 751.715 1056.79 750.676C1056.47 750.507 1056.15 750.338 1055.83 750.157C1055.31 749.867 1054.79 749.559 1054.29 749.238C1054.17 749.16 1054.04 749.087 1053.92 748.991H1053.9C1053.73 748.882 1053.58 748.779 1053.41 748.652C1053.16 748.483 1052.92 748.314 1052.69 748.133C1052.43 747.964 1052.18 747.764 1051.94 747.565C1051.82 747.474 1051.69 747.384 1051.57 747.275C1051.36 747.106 1051.14 746.937 1050.93 746.737C1050.84 746.677 1050.75 746.586 1050.66 746.508C1050.49 746.369 1050.32 746.218 1050.15 746.049C1049.89 745.819 1049.63 745.589 1049.38 745.33C1049.32 745.281 1049.26 745.209 1049.2 745.148C1048.88 744.84 1048.56 744.52 1048.27 744.188C1048.12 744.019 1047.96 743.85 1047.81 743.68C1047.46 743.3 1047.12 742.901 1046.81 742.502C1046.63 742.303 1046.47 742.092 1046.32 741.892C1045.99 741.451 1045.65 741.004 1045.33 740.545C1045.33 740.545 1045.31 740.527 1045.31 740.515C1045.31 740.515 1045.29 740.515 1045.31 740.497C1045.31 740.497 1045.29 740.497 1045.29 740.479C1044.89 739.929 1044.52 739.361 1044.17 738.781C1043.82 738.201 1043.48 737.603 1043.16 737.005C1043.12 736.945 1043.09 736.884 1043.06 736.806V736.788C1042.77 736.238 1042.49 735.688 1042.23 735.108C1042.17 734.987 1042.11 734.878 1042.08 734.758C1041.83 734.22 1041.61 733.688 1041.39 733.139C1040.09 729.792 1039.31 726.24 1039.11 722.663C1039.11 722.663 1039.11 722.663 1039.11 722.645V722.524C1039.08 721.975 1039.06 721.455 1039.06 720.905C1039.06 720.887 1039.06 720.875 1039.06 720.875C1039.06 720.404 1039.08 719.927 1039.09 719.455C1039.11 719.057 1039.14 718.676 1039.17 718.277C1039.19 718.066 1039.2 717.867 1039.23 717.667C1039.37 716.181 1039.63 714.701 1040.01 713.263C1040.13 712.774 1040.27 712.285 1040.42 711.795C1040.47 711.626 1040.51 711.475 1040.57 711.306C1041.69 707.941 1043.42 704.697 1046.11 702.407C1050.1 699.03 1055.62 698.172 1060.83 697.804C1061.92 697.725 1063.02 697.665 1064.12 697.635C1076.45 697.127 1088.85 698.613 1100.72 702.009C1100.21 701.87 1099.69 701.719 1099.19 701.549C1099.13 701.531 1099.07 701.519 1099.01 701.501C1093.66 699.882 1088.44 697.725 1083.48 695.079C1082.69 694.668 1081.89 694.221 1081.12 693.78C1080.78 693.581 1080.43 693.382 1080.09 693.182L1080.06 693.164C1080.06 693.146 1080.04 693.146 1080.04 693.146H1080.02C1079.24 692.687 1078.48 692.228 1077.71 691.739C1076.96 691.279 1076.23 690.79 1075.5 690.301C1074.21 689.443 1072.96 688.555 1071.73 687.624C1071.24 687.256 1070.75 686.887 1070.28 686.507C1070.1 686.368 1069.91 686.229 1069.73 686.066C1069.27 685.697 1068.81 685.317 1068.35 684.936C1067.23 684.036 1066.13 683.069 1065.06 682.061C1064.76 681.801 1064.47 681.523 1064.18 681.233C1063.49 680.605 1062.82 679.934 1062.14 679.257C1061.63 678.738 1061.13 678.218 1060.62 677.669C1060.24 677.24 1059.86 676.811 1059.49 676.37C1058.67 675.439 1057.89 674.461 1057.17 673.446C1056.91 673.126 1056.68 672.775 1056.45 672.437C1056.17 672.038 1055.9 671.627 1055.65 671.211C1055.18 670.462 1054.73 669.682 1054.33 668.903C1054.21 668.673 1054.09 668.432 1053.98 668.184C1053.83 667.876 1053.68 667.556 1053.54 667.235C1053.4 666.915 1053.27 666.595 1053.16 666.275C1053.04 665.955 1052.91 665.635 1052.81 665.314C1052.72 665.067 1052.64 664.807 1052.56 664.547C1052.47 664.287 1052.41 664.028 1052.35 663.75C1052.27 663.502 1052.21 663.26 1052.17 663.001C1051.99 662.161 1051.85 661.285 1051.79 660.415C1051.74 659.956 1051.73 659.497 1051.73 659.038C1051.73 658.717 1051.75 658.409 1051.76 658.077C1051.76 657.999 1051.78 657.908 1051.78 657.829C1051.8 657.509 1051.83 657.189 1051.87 656.869C1052.76 650.018 1057.63 644.478 1062.06 639.174L1062.07 639.156C1062.13 639.066 1062.21 638.975 1062.28 638.878C1067.92 637.271 1073.65 637.549 1079.32 638.848C1081.82 639.398 1084.27 640.147 1086.74 641.035C1091.31 642.672 1095.81 644.738 1100.14 646.756C1119.61 655.884 1139.38 664.632 1159.02 673.687C1166.51 677.131 1173.98 680.629 1181.4 684.193C1185.88 686.35 1190.35 688.537 1194.8 690.754C1196.07 691.394 1197.34 692.022 1198.62 692.681C1200.52 693.641 1202.42 694.608 1204.31 695.587C1205.01 695.937 1205.7 696.306 1206.39 696.656C1208.21 697.604 1210.03 698.565 1211.85 699.532C1212.62 699.942 1213.4 700.359 1214.16 700.77C1215.89 701.688 1217.62 702.619 1219.33 703.567C1220.02 703.948 1220.71 704.334 1221.4 704.697C1223.63 705.935 1225.85 707.192 1228.05 708.442C1228.11 708.491 1228.17 708.521 1228.23 708.551C1228.29 708.581 1228.34 708.611 1228.38 708.642C1230.52 709.868 1232.66 711.106 1234.77 712.375C1236.87 713.601 1238.95 714.852 1241.01 716.121C1241.21 716.241 1241.41 716.362 1241.59 716.471C1243.63 717.728 1245.66 719.008 1247.68 720.295C1249.81 721.642 1251.94 723.02 1254.03 724.409C1255.07 725.08 1256.1 725.768 1257.12 726.475C1258.6 727.454 1260.07 728.463 1261.54 729.49C1262.67 730.287 1263.81 731.079 1264.94 731.876C1266.13 732.716 1267.32 733.574 1268.51 734.444C1269.58 735.223 1270.65 736.002 1271.73 736.812C1272.75 737.579 1273.77 738.34 1274.78 739.119C1274.83 739.15 1274.87 739.18 1274.9 739.21C1276.89 740.708 1278.85 742.237 1280.79 743.813C1282.37 745.052 1283.91 746.32 1285.46 747.607C1287.08 748.936 1288.68 750.302 1290.27 751.673C1290.53 751.884 1290.81 752.114 1291.07 752.344C1292.62 753.691 1294.16 755.068 1295.69 756.439C1299.78 760.143 1303.84 764.088 1307.33 768.183C1312.11 773.753 1315.85 779.607 1317.25 785.479C1323.12 809.982 1324.63 835.814 1328.59 860.728C1329.52 866.618 1330.6 872.46 1331.9 878.211C1334.98 892.009 1339.39 905.33 1346.3 917.793C1353.43 930.643 1362.97 941.988 1372.78 952.941C1381.86 963.078 1398.21 979.951 1415.75 997.676V997.694C1430.23 1012.32 1445.46 1027.51 1458.08 1040Z" fill="#FDD5C8"/>
<path d="M1458.08 1040H1232.14C1220.61 1025.7 1205.94 1013.94 1189.34 1006.08C1185.12 1004.06 1180.74 1002.28 1176.45 1000.36C1175.38 975.154 1174.3 949.95 1173.23 924.759C1173.15 923.2 1173.11 921.575 1173.78 920.173C1175.23 917.207 1179.1 916.597 1182.38 916.228C1204.44 913.703 1225.68 904.454 1242.54 889.998C1243.18 889.448 1243.81 888.898 1244.43 888.33C1258.23 875.988 1269.2 860.523 1282.98 848.289C1283.05 848.229 1283.13 848.15 1283.21 848.078C1285.94 845.68 1288.77 843.396 1291.77 841.288C1301.79 851.002 1315.97 854.657 1328.62 860.758C1329.55 866.648 1330.62 872.49 1331.92 878.242C1335.01 892.04 1339.42 905.36 1346.33 917.823C1353.46 930.673 1363 942.018 1372.8 952.971C1381.89 963.108 1398.24 979.981 1415.78 997.706V997.724C1430.23 1012.32 1445.47 1027.51 1458.08 1040Z" fill="#E0AFA1"/>
<path d="M1240.13 779.329C1209.72 750.453 1174.02 727.176 1135.33 711.01L1083.51 695.073C1075.65 690.929 1068.44 685.589 1062.18 679.257C1056.43 673.428 1051.24 665.906 1051.81 657.829C1064.3 666.378 1073.53 680.176 1087.05 687.407C1092.49 690.313 1098.46 692.059 1104.33 693.937C1155.75 710.533 1202.88 740.189 1240.13 779.329Z" fill="#E0AFA1"/>
<path d="M1204.87 822.868C1174.81 804.316 1144.76 785.763 1114.71 767.211C1096.75 756.137 1076.44 744.593 1055.78 748.918C1055.29 749.027 1054.79 749.13 1054.29 749.238C1042.28 741.578 1036.16 725.424 1040.45 711.783C1041.83 718.132 1045.75 724.174 1050.74 728.517C1058.68 735.446 1068.84 739.101 1078.58 743.137C1113.53 757.605 1145.43 778.375 1177.1 799.036C1187.39 805.741 1197.96 812.713 1204.87 822.868Z" fill="#E0AFA1"/>
<path d="M1069.26 810.007C1068.79 821.98 1073.94 833.404 1075.91 845.227C1076.09 846.326 1076.14 847.595 1075.89 848.7C1065.5 833.144 1058.21 814.501 1063.04 796.227C1056.56 789.756 1049.86 782.954 1046.98 774.249C1044.92 767.996 1045.53 760.469 1049.89 755.346C1048.96 762.046 1051.04 769.096 1054.58 774.938C1058.7 781.716 1064.63 787.159 1070.57 792.421C1098.85 817.425 1129.17 840.092 1161.15 860.142C1169.7 865.513 1178.67 870.938 1184.23 879.365C1152.08 858.747 1120.99 836.479 1091.14 812.683C1086.06 808.629 1080.37 804.316 1073.88 804.684C1072.72 804.745 1071.5 804.992 1070.64 805.784C1069.53 806.823 1069.3 808.49 1069.26 810.007Z" fill="#E0AFA1"/>
<path d="M1307.36 768.208C1300.52 764.994 1294.34 760.487 1288.22 756.004C1270.9 743.282 1253.55 730.571 1236.22 717.86C1227.06 711.131 1217.87 704.401 1208.09 698.589C1199.45 693.448 1190.29 689.014 1181.42 684.199C1222.48 703.942 1262.07 726.028 1295.71 756.464C1299.8 760.161 1303.87 764.112 1307.36 768.208Z" fill="#E0AFA1"/>
<path d="M1165.11 740.376C1162.84 747.064 1158.48 753.026 1152.8 757.231C1153.09 758.342 1154.77 757.944 1155.69 757.255C1161.87 752.579 1165.78 745.016 1165.11 740.376Z" fill="#E0AFA1"/>
<path d="M1178.09 688.905C1174.8 691.261 1171.49 693.768 1169.22 697.127C1166.94 700.486 1165.83 704.872 1167.27 708.666C1169.82 705.663 1170.58 701.592 1171.75 697.828C1172.92 694.064 1174.96 690.101 1178.09 688.905Z" fill="#E0AFA1"/>
<path d="M1136.83 788.609C1135.78 794.378 1134.08 800.032 1131.78 805.427C1130.74 807.856 1128.91 810.629 1126.3 810.327C1129.7 802.805 1133.12 795.284 1136.83 788.609Z" fill="#E0AFA1"/>
<path d="M1199.35 821.581C1191.95 820.204 1185.72 815.419 1179.77 810.798C1160.23 795.598 1140.34 780.592 1118.46 768.981C1098.41 758.354 1076.48 750.628 1053.9 748.991C1049.39 746.006 1045.74 741.82 1043.18 737.017C1047.92 738.207 1052.85 742.309 1057.99 743.227C1061.76 743.898 1065.61 742.756 1069.44 742.72C1073.96 742.69 1078.31 744.206 1082.52 745.825C1126.01 762.607 1163.07 792.324 1199.35 821.581Z" fill="#99685A"/>
<path d="M1183.06 877.378C1153.71 864.196 1126.24 846.791 1101.82 825.853C1089.4 815.226 1077.39 803.434 1062.96 796.136C1057.88 791.055 1052.66 785.781 1049.3 779.529C1054.68 781.776 1059.57 785.709 1064.15 789.485C1102.17 820.881 1141.89 850.229 1183.06 877.378Z" fill="#99685A"/>
<path d="M1120.6 666.154C1119.22 673.095 1117.14 680.985 1110.77 684.06C1113.57 677.928 1116.89 672.032 1120.6 666.154Z" fill="#E0AFA1"/>
<path d="M1127.72 684.344C1137.68 690.138 1148.03 696.07 1159.5 697.218C1152.23 687.769 1141.2 681.293 1129.4 679.559C1128.01 679.354 1125.87 680.224 1127.72 684.344Z" fill="#FEE4DB"/>
<path d="M1207.9 731.338C1223.29 744.484 1239.39 758.022 1258.97 763.139C1254.43 754.512 1247.27 747.48 1239.32 741.82C1231.38 736.159 1222.61 731.785 1213.88 727.43C1213.11 727.043 1212.26 726.644 1211.41 726.801C1210.56 726.965 1209.84 727.973 1207.9 731.338Z" fill="#FEE4DB"/>
<path d="M1094.5 726.119C1103.13 732.818 1114 736.606 1124.93 736.715C1126.3 736.727 1128.11 736.28 1128.14 734.909C1128.16 734.19 1127.61 733.592 1127.09 733.096C1121.69 728.022 1114.44 725.509 1107.42 723.128C1103.21 721.697 1098.68 720.253 1094.39 721.437C1093.41 721.715 1091.66 723.926 1094.5 726.119Z" fill="#FEE4DB"/>
<path d="M1258.86 816.313C1263.29 824.958 1267.72 833.603 1272.15 842.248C1272.44 842.816 1272.78 843.432 1273.39 843.638C1274.18 843.91 1275 843.348 1275.63 842.804C1279.67 839.342 1283.02 835.089 1285.43 830.353C1285.78 829.664 1286.12 828.933 1286.1 828.16C1286.01 825.538 1282.45 824.946 1279.83 824.795C1273.16 824.421 1266.65 821.563 1258.86 816.313Z" fill="#FEE4DB"/>
<path d="M1171.24 997.893C1168.68 996.624 1166.21 995.229 1163.84 993.628C1148.99 983.642 1140.1 966.926 1133.81 950.162C1128.75 936.66 1124.93 922.602 1119.07 909.48C1128.71 914.005 1138.35 918.536 1148 923.061C1145.44 923.599 1142.86 924.118 1140.28 924.638C1139.06 924.898 1137.59 925.357 1137.33 926.583C1137.1 927.652 1137.96 928.619 1138.78 929.32C1147.82 937.01 1162.78 937.566 1168.38 948.023C1168.33 950.5 1165.32 951.726 1162.85 951.926C1160.37 952.107 1157.48 952.107 1156 954.095C1154.79 955.701 1155.08 957.931 1155.42 959.906C1156.1 963.93 1156.79 967.965 1157.49 971.988C1158.15 975.813 1158.93 979.896 1161.67 982.651C1163.31 984.288 1165.46 985.279 1167.23 986.765C1170.42 989.435 1171.72 993.797 1171.24 997.893Z" fill="#FEE4DB"/>
<path d="M1071.37 671.102C1077.27 672.25 1083.66 670.963 1088.49 667.368C1093.3 663.774 1096.39 657.866 1096.28 651.855C1096.26 651.021 1096.19 650.175 1095.83 649.42C1095.06 647.777 1093.17 646.937 1092.21 645.397C1093.49 648.266 1094.56 651.359 1094.29 654.495C1093.85 659.714 1089.7 664.034 1084.93 666.196C1080.15 668.359 1074.8 668.752 1071.37 671.102Z" fill="#E0AFA1"/>
<path d="M1080.06 693.146C1090.38 696.052 1100.69 698.94 1111.01 701.833C1123.19 705.259 1135.59 708.775 1146.1 715.813C1131 709.512 1115.12 705.537 1099.23 701.543C1099.17 701.525 1099.11 701.513 1099.05 701.495L1080.06 693.146Z" fill="#99685A"/>
</g>
<defs>
<clipPath id="clip0_101_1733">
<rect width="2107.4" height="1040" fill="white"/>
</clipPath>
</defs>
</svg>
