<svg width="2000" height="1040" viewBox="0 0 2000 1040" fill="none" xmlns="http://www.w3.org/2000/svg">
<g clip-path="url(#clip0_101_217)">
<path d="M2000 1.76257H0V1040H2000V1.76257Z" fill="#9BAFBD"/>
<path d="M308.189 623.224C311.127 646.049 327.779 665.269 347.53 677.084C367.28 688.891 390.033 694.468 412.4 699.885C445.172 707.82 477.945 715.764 510.718 723.7C564.763 736.795 618.936 749.905 674.108 756.899C754.253 767.056 835.413 764.159 916.146 761.245C981.925 758.871 1047.7 756.497 1113.48 754.123C1119.46 753.905 1126.38 753.197 1129.69 748.199C1133 743.201 1126.69 734.485 1122.1 738.324C1153.47 738.984 1183.75 723.491 1215.05 725.656C1241.85 727.507 1266.06 742.066 1292.3 747.885C1342.52 759.032 1397.4 737.752 1445.35 756.352C1454.85 760.03 1463.95 765.254 1474.06 766.493C1483.42 767.636 1492.81 765.262 1501.95 762.895C1538.4 753.471 1574.86 744.038 1607.82 740.795C1642.07 729.084 1674.59 712.311 1703.99 691.201C1713.79 684.166 1723.97 675.45 1725.68 663.506C1729.8 634.774 1683.34 612.335 1695.62 586.033C1697.69 581.614 1701.27 578.025 1703.24 573.558C1711.8 554.153 1686.94 537.139 1666.35 532.044C1563.16 506.539 1455.51 536.165 1349.54 544.391C1233.69 553.381 1117.6 536.519 1001.51 531.529C887.18 526.612 772.708 533.203 658.47 539.803C594.067 543.521 529.374 547.272 466.243 560.568C412.81 571.819 360.81 589.888 308.189 623.224Z" fill="#728694"/>
<path d="M1483.41 705.285C1478.99 713.181 1473.87 720.754 1468.17 727.796L1465.91 728.014C1471.96 720.69 1477.37 712.786 1482 704.496L1483.41 705.285Z" fill="#99685A"/>
<path d="M1696.99 626.065C1692.79 642.299 1683.89 655.603 1672.88 668.247C1656.74 686.79 1637.68 705.639 1616.26 717.688C1610.49 720.923 1604.46 723.627 1598.43 726.332C1578.28 735.362 1554.89 748.714 1539.98 752.207C1536.41 753.044 1529.61 752.529 1526.14 752.183C1524.92 752.062 1524.11 751.958 1523.98 751.941C1523.97 751.941 1523.96 751.941 1523.96 751.941C1523.96 751.941 1517.74 756.939 1502.14 751.523C1497.89 750.05 1493.48 742.638 1492.11 740.183V740.175C1491.84 739.676 1491.68 739.386 1491.68 739.386C1491.68 739.386 1491.27 739.507 1490.56 739.652C1486.38 740.513 1471.85 742.396 1468.17 727.796C1473.87 720.754 1478.99 713.181 1483.41 705.285L1482 704.496C1477.37 712.786 1471.96 720.69 1465.91 728.014C1443.8 734.058 1421.13 738.436 1398.18 741.205C1365.68 745.141 1332.61 745.841 1299.75 743.475C1289.99 742.766 1280.46 739.418 1272.33 733.953C1254.88 722.235 1250.92 703.136 1246.92 686.903C1246.69 687.112 1246.46 687.313 1246.22 687.506C1244.03 689.374 1241.77 691.023 1239.46 692.48C1227.04 700.384 1213.11 702.903 1199.46 705.317C1184.24 708.005 1169.02 710.702 1153.8 713.398C1131.74 717.293 1110.72 721.607 1088.36 721.728C1088.09 721.736 1087.82 721.736 1087.56 721.736C1086.59 732.609 1081.88 741.342 1075.36 747.37C1068.85 753.406 1059.47 756.199 1050.72 754.718C1048.94 754.412 1046.06 753.881 1044.56 753.599C1043.96 753.479 1043.57 753.406 1043.57 753.406C1043.57 753.406 1040.14 754.935 1038.14 755.603C1032.05 757.648 1024.22 757.43 1018.27 755C1016.88 754.428 1014.02 753.551 1014.02 753.551C1014.02 753.551 1012.5 754.163 1010.73 754.879C1009.35 755.418 1007.82 756.022 1006.74 756.432C994.335 761.133 980.427 756.424 971.59 746.541C964.202 750.799 954.528 747.08 951.96 745.945C951.542 745.76 951.309 745.648 951.309 745.648C951.309 745.648 899.171 767.459 871.485 765.358C843.799 763.249 813.81 761.463 788.611 749.817C781.69 746.621 774.695 743.169 767.122 742.348C758.301 741.39 749.552 744.086 740.933 746.195C731.291 748.561 721.472 750.219 711.596 751.161C692.546 752.972 672.932 752.046 654.936 745.535C654.421 745.35 653.906 745.157 653.399 744.955C641.785 740.529 631.048 733.8 621.889 725.382C621.6 725.132 621.318 724.867 621.036 724.601C566.114 729.454 514.299 717.036 469.454 695.402C459.747 690.726 450.371 685.615 441.357 680.15C439.28 678.895 437.22 677.615 435.176 676.311C426.29 670.669 417.783 664.689 409.695 658.46C396.656 648.424 385.566 649.18 373.034 638.516C362.555 629.598 348.825 633.22 338.394 604.045C322.08 558.403 317.903 537.203 334.869 491.795C340.262 477.372 345.654 462.949 351.046 448.527C358.918 427.456 366.99 406.023 380.857 388.317C404.785 357.773 443.675 341.854 482.259 337.822C520.85 333.789 559.692 340.325 597.825 347.472C601.173 348.099 604.73 348.711 607.893 347.439C610.252 346.498 612.103 344.598 614.38 343.471C618.598 341.387 623.918 341.29 628.215 343.206C661.254 357.91 686.679 369.621 711.725 384.389C732.916 336.196 771.033 305.757 818.366 304.944C831.774 304.711 845.078 307.004 858.286 309.282C900.338 316.558 942.391 323.825 984.444 331.101C1025.98 341.451 1071.88 323.914 1117.33 324.984C1140.81 325.54 1164.18 331.077 1187.56 328.968C1198.28 327.994 1208.78 325.435 1219.29 323.069C1234.88 319.56 1250.58 316.469 1266.35 313.813C1277.69 311.898 1289.14 310.2 1300.65 310.336C1342.44 310.843 1379.76 335.085 1414.42 358.449C1433.82 371.399 1454.06 388.148 1456.73 411.367C1457.93 421.838 1455.3 432.333 1452.68 442.547C1449.87 453.533 1447.06 464.519 1444.25 475.505C1443.82 477.203 1443.4 479.054 1443.9 480.688C1443.96 480.937 1444.06 481.179 1444.18 481.42C1444.98 482.99 1446.64 483.891 1448.21 484.696C1448.92 485.066 1449.63 485.428 1450.35 485.799C1458.52 490 1466.7 494.209 1474.87 498.41C1492.08 510.813 1515.19 520.262 1539.22 524.133C1539.39 524.157 1539.54 524.181 1539.7 524.205C1540.24 524.294 1540.79 524.382 1541.33 524.463C1546.42 525.227 1551.54 525.839 1556.54 526.998C1560.73 527.964 1564.85 529.292 1569.11 529.759C1569.12 529.759 1569.12 529.759 1569.12 529.759C1569.31 529.783 1569.49 529.807 1569.69 529.823C1570.36 529.887 1571.02 529.928 1571.7 529.936C1571.71 529.936 1571.71 529.936 1571.71 529.936C1581.2 530.193 1590.39 526.129 1599.18 522.306C1611.2 517.091 1623.6 512.109 1636.67 511.183C1649.73 510.249 1663.75 513.968 1672.45 523.763C1675.39 527.079 1677.54 530.781 1679.03 534.741V534.749C1679.28 535.417 1679.52 536.077 1679.73 536.753V536.761C1680.51 539.223 1681.08 541.767 1681.45 544.383C1681.52 544.946 1681.59 545.509 1681.66 546.081C1682.41 552.978 1681.94 560.262 1680.89 567.473C1680.81 568.012 1680.73 568.552 1680.64 569.091C1679.93 573.654 1679.01 578.17 1678.04 582.524C1695.9 589.824 1701.2 609.832 1696.99 626.065Z" fill="#FDD5C8"/>
<path d="M951.96 745.945C951.542 745.76 951.308 745.648 951.308 745.648C951.308 745.648 899.171 767.459 871.485 765.358C843.798 763.249 813.81 761.463 788.611 749.817C781.689 746.622 774.695 743.169 767.122 742.348C758.301 741.39 749.552 744.086 740.932 746.195C731.29 748.561 721.471 750.219 711.596 751.161C692.546 752.972 672.932 752.046 654.936 745.535C654.421 745.35 653.905 745.157 653.398 744.955L653.608 744.65C683.805 754.968 716.667 745.591 747.894 739.064C754.671 737.648 761.544 736.36 768.458 736.561C776.949 736.811 785.19 739.289 793.367 741.583C835.565 753.406 881.803 760.457 922.35 743.853C926.906 741.986 931.541 739.676 934.366 735.652C936.765 732.239 937.57 728.006 938.326 723.909C939.59 717.036 940.853 710.162 942.125 703.289C943.34 696.649 945.047 689.269 951.043 686.275C946.89 698.959 942.696 712.376 945.481 725.43C946.061 728.151 946.938 730.798 947.815 733.43C949.2 737.599 950.576 741.776 951.96 745.945Z" fill="#99685A"/>
<path d="M751.903 656.633C745.287 657.446 739.291 656.898 732.401 654.959C698.421 645.397 681.262 643.957 653.302 647.152C646.743 647.9 637.479 647.096 632.698 651.651C629.471 654.733 616.095 662.581 613.085 665.872C601.286 678.774 602.549 683.917 609.278 696.899C610.952 700.126 594.026 705.712 590.622 706.999C584.69 709.237 578.058 707.692 571.941 706.026C541.398 697.687 502.581 701.51 469.454 695.402C459.747 690.726 450.371 685.615 441.357 680.15C439.28 678.895 437.22 677.615 435.176 676.311C431.538 663.82 426.669 642.637 426.21 644.697C415.135 631.747 430.975 628.359 433.574 611.522C433.856 609.687 434.234 607.844 435.079 606.186C436.174 604.045 437.985 602.363 439.763 600.737C447.281 593.823 454.798 586.91 462.862 586.371C477.14 601.807 499.225 608.093 520.247 607.683C541.277 607.272 561.68 600.938 581.712 594.532C588.022 592.52 595.33 590.596 600.907 594.17C607.008 598.073 607.91 606.894 605.64 613.767C603.37 620.649 598.734 626.476 595.732 633.067C590.783 643.916 590.477 656.23 590.251 668.15C595.354 666.194 599.765 662.476 602.541 657.768C599.443 666.975 596.352 676.182 593.262 685.39C592.384 687.989 592.795 692.231 595.491 691.772C596.706 691.563 597.431 690.323 597.962 689.205C601.117 682.492 603.081 675.297 605.036 668.134C608.022 657.196 611.008 646.25 613.994 635.313C615.998 627.973 618.292 620.158 624.111 615.256C629.93 610.355 640.449 610.395 643.821 617.22C645.672 620.963 645.31 626.234 648.916 628.351C654.574 631.675 660.53 622.709 667.073 623.176C671.934 623.53 674.928 628.874 679.556 630.379C689.995 633.767 699.242 616.447 709.448 620.464C712.739 621.759 714.8 624.971 717.52 627.216C723.556 632.206 733.375 631.731 739.283 626.202C739.5 624.19 742.414 623.12 743.886 624.52C737.931 635.12 741.907 649.945 751.903 656.633Z" fill="#E0AFA1"/>
<path d="M751.902 656.633C753.367 656.464 754.864 656.214 756.418 655.901C755.87 656.681 755.259 657.438 754.591 658.17C753.649 657.727 752.755 657.212 751.902 656.633Z" fill="#E0AFA1"/>
<path d="M816.402 582.186C814.511 604.785 812.048 628.866 797.843 646.556C792.523 653.188 785.811 658.54 779.155 663.836C773.142 668.617 764.426 654.226 756.909 655.804C756.74 655.836 756.579 655.876 756.418 655.9C766.382 641.856 759.138 619.554 769.142 604.906C770.68 604.021 772.651 605.453 773.223 607.135C773.794 608.818 773.521 610.653 773.794 612.407C774.937 619.763 785.344 622.226 791.742 618.411C798.133 614.596 801.296 607.2 804.064 600.294C806.833 593.381 810.012 585.992 816.402 582.186Z" fill="#E0AFA1"/>
<path d="M729.6 686.122C726.148 686.766 722.51 687.08 719.162 686.009C715.813 684.939 712.803 682.219 712.288 678.734C712.755 680.545 712.57 682.581 711.5 684.11C709.133 687.506 704.063 687.04 700.184 688.472C702.59 688.593 704.996 688.714 707.411 688.834C707.91 688.858 708.481 688.923 708.779 689.325C708.94 689.543 708.98 689.824 709.021 690.098C709.914 696.327 710.067 702.661 709.471 708.931C711.387 704.448 710.759 699.354 711.371 694.516C711.516 693.382 711.862 692.078 712.916 691.643C714.172 691.12 715.508 692.166 716.433 693.164C720.731 697.784 724.192 703.185 726.582 709.028C724.594 703.096 721.544 697.527 717.616 692.649C717.383 692.359 717.133 692.046 717.093 691.675C717.013 690.959 717.745 690.38 718.461 690.299C719.178 690.219 719.878 690.484 720.578 690.645C724.063 691.45 727.991 689.333 729.6 686.122Z" fill="#99685A"/>
<path d="M621.889 725.382C621.599 725.132 621.317 724.867 621.036 724.601C554.234 730.501 492.028 710.855 441.356 680.15C440.777 673.47 443.746 663.377 454.169 669.848C474.628 682.557 500.085 686.356 523.755 681.865C547.417 677.374 569.252 664.931 586.468 648.086C584.319 660.239 582.17 672.722 584.536 684.834C585.293 688.73 586.597 692.673 589.317 695.563C592.045 698.46 596.464 700.03 600.126 698.484C603.289 697.148 606.798 691.386 606.798 691.386C606.798 691.386 616.198 714.758 621.889 725.382Z" fill="#99685A"/>
<path d="M698.881 501.509C700.321 519.867 690.333 538.644 674.301 547.715C667.323 551.658 659.098 553.855 651.218 552.375C650.14 552.173 648.949 551.811 648.434 550.837C648.112 550.226 648.136 549.501 648.192 548.817C648.731 542.185 651.75 536.053 654.309 529.904C657.593 522.016 660.176 513.855 662.752 505.702C667.452 490.829 672.209 475.642 671.967 460.044C673.77 468.881 675.621 477.839 679.734 485.855C680.627 487.593 681.625 489.292 682.325 491.119C683.307 493.678 683.677 496.43 683.83 499.159C684.345 508.245 682.502 517.453 678.526 525.646C676.555 529.702 674.084 533.501 671.613 537.276C671.943 537.775 672.724 537.485 673.215 537.139C682.148 530.877 688.297 520.785 689.778 509.976C690.341 505.871 690.253 501.71 690.663 497.597C691.058 493.589 691.911 489.646 692.764 485.718C693.038 484.471 693.73 482.901 695.001 483.07C695.814 483.183 696.313 483.996 696.659 484.736C699.621 490.95 700.764 498.008 698.881 501.509Z" fill="#E0AFA1"/>
<path d="M859.462 648.021C850.407 649.317 840.612 644.762 836.355 636.665C832.089 628.568 834.15 617.478 841.433 611.94C848.556 606.524 858.399 606.991 867.293 607.965C882.601 609.631 897.836 612.037 912.911 615.176C916.058 615.828 919.245 616.536 922.062 618.073C928.999 621.856 932.364 629.792 935.237 637.148C938.995 646.766 942.754 656.383 946.513 665.993C946.963 667.136 947.494 668.375 948.597 668.923C949.434 669.333 950.424 669.245 951.334 669.051C957.547 667.715 961.965 661.985 964.002 655.965C966.038 649.945 966.223 643.482 967.229 637.212C968.678 628.214 971.873 619.506 976.589 611.707C979.318 607.192 982.569 602.934 984.428 598.001C986.368 592.858 986.674 587.264 986.964 581.775C987.414 573.196 987.865 564.616 988.316 556.037C989.185 539.586 989.724 521.871 980.694 508.101C980.018 507.07 979.269 506.048 978.231 505.396C975.736 503.827 972.275 504.897 970.223 507.022C968.179 509.139 967.197 512.044 966.247 514.837C961.233 529.606 955.245 544.342 945.458 556.495C935.671 568.648 921.555 578.041 905.989 579.071C894.512 579.827 883.188 576.061 872.806 571.111C859.18 564.616 846.19 555.594 838.463 542.62C833.852 534.885 831.325 526.113 827.791 517.831C822.938 506.467 815.711 495.545 804.934 489.509C802.994 488.422 800.113 487.722 798.914 489.589C798.045 490.941 798.753 492.712 799.453 494.161C803.582 502.62 807.437 511.239 810.246 520.229C815.043 535.57 816.709 551.682 818.343 567.674C819.268 576.721 820.186 585.936 818.359 594.846C816.757 602.645 813.119 609.848 810.278 617.284C806.6 626.894 804.218 636.995 803.22 647.232C802.745 652.078 802.729 657.438 805.803 661.212C807.743 663.603 810.664 664.979 813.594 665.913C825.425 669.655 838.182 667.112 850.472 665.462C868.943 662.983 887.695 662.605 906.247 664.335C916.75 665.317 927.494 667.072 936.541 672.504C941.555 675.514 947.342 679.772 952.613 677.229C924.203 655.442 886.641 650.79 859.462 648.021Z" fill="#E0AFA1"/>
<path d="M640.65 620.922C638.236 617.88 634.381 616.037 630.493 616.077C629.278 616.093 628.039 616.286 626.944 616.834C625.528 617.55 624.465 618.806 623.507 620.069C617.809 627.602 614.276 636.77 613.455 646.186C615.218 642.419 616.417 638.411 618.067 634.588C619.717 630.765 621.89 627.047 625.157 624.472C628.425 621.896 632.956 620.633 636.86 622.065C637.874 622.435 638.96 622.991 639.99 622.653C641.021 622.315 641.327 620.472 640.65 620.922Z" fill="#99685A"/>
<path d="M647.169 645.285C644.939 639.401 642.227 633.703 639.072 628.262C638.066 626.532 636.963 624.769 635.305 623.651C633.639 622.532 631.265 622.234 629.688 623.474C628.714 624.238 628.207 625.421 627.756 626.572C623.619 637.075 621.39 648.327 621.221 659.611C624.69 656.858 628.166 654.106 631.635 651.353C632.319 650.814 633.02 650.251 633.462 649.502C634.162 648.319 634.114 646.862 634.05 645.486C633.849 641.196 633.639 636.898 633.438 632.609C633.333 630.427 633.245 628.174 634.05 626.146C638.106 632.303 641.253 639.063 643.346 646.13C644.432 645.478 645.712 645.124 647.169 645.285Z" fill="#99685A"/>
<path d="M720.475 393.049C723.259 398.055 724.008 404.156 722.511 409.685C726.253 409.379 729.601 411.818 732.539 414.16C760.121 436.18 786.809 461.887 798.35 495.239C800.435 501.259 801.996 507.449 803.55 513.63C805.763 522.443 807.984 531.248 810.198 540.061C812.21 548.053 814.23 556.093 814.954 564.302C815.671 572.391 815.123 580.544 814.037 588.592C809.731 620.496 795.067 653.236 765.586 667.997C794.608 670.862 824.049 673.72 852.781 668.721C859.494 667.554 866.126 665.961 872.862 664.955C900.146 660.874 929.732 667.297 950.311 685.864C950.48 682.903 951.334 679.981 952.645 676.335C936.597 669.583 920.291 662.911 903.068 660.383C891.228 658.645 879.204 658.902 867.236 659.168C852.218 659.498 837.208 659.828 822.19 660.158C819.976 660.206 817.707 660.247 815.63 659.474C811.606 657.985 809.167 653.679 808.652 649.413C808.137 645.148 809.184 640.866 810.214 636.705C817.457 607.562 824.612 577.349 819.3 547.787C817.836 539.634 815.437 531.682 812.918 523.795C802.278 490.475 788.145 456.189 760.419 434.852C754.181 430.048 747.364 426.007 741.368 420.897C732.41 413.267 725.465 403.303 720.475 393.049Z" fill="#99685A"/>
<path d="M1444.62 614.476C1435.71 629.26 1420.5 640.11 1403.63 643.731C1395.72 645.43 1387.55 645.599 1379.63 647.273C1367.04 649.937 1355.03 656.729 1347.67 667.289C1340.29 677.848 1338.19 692.335 1343.79 703.925C1348.19 713.028 1356.59 719.466 1364.99 725.084C1375.26 731.957 1386.23 738.227 1398.18 741.205C1365.68 745.141 1332.61 745.841 1299.75 743.475C1289.99 742.766 1280.46 739.418 1272.33 733.953C1254.89 722.235 1250.92 703.136 1246.93 686.903C1246.69 687.112 1246.46 687.313 1246.22 687.506C1244.03 689.374 1241.77 691.024 1239.46 692.48C1237.44 675.941 1239.02 658.959 1244.33 643.16C1242.27 634.001 1251.46 624.544 1261.01 623.007C1270.56 621.47 1280.08 625.067 1289.5 627.248C1302.15 630.17 1315.38 630.58 1328.19 628.431C1336.44 627.047 1344.5 624.625 1352.76 623.361C1362.46 621.888 1372.33 622.025 1382.06 620.85C1401.79 618.476 1420.61 610.741 1440.37 608.592C1442.27 608.383 1444.67 608.48 1445.49 610.21C1446.15 611.578 1445.4 613.18 1444.62 614.476Z" fill="#E0AFA1"/>
<path d="M675.194 473.959C679.146 486.668 681.979 500.092 679.935 513.243C677.858 526.612 670.606 539.103 660.023 547.529C658.775 548.519 656.28 548.994 656.16 547.401C656.111 546.773 656.578 546.242 657.013 545.783C664.385 538.057 672.184 530.274 676.184 520.366C682.027 505.895 678.808 489.549 675.194 473.959Z" fill="#99685A"/>
<path d="M1099.66 422.369C1122.84 482.764 1121.29 549.767 1113.31 613.961C1111.63 627.49 1109.68 641.22 1111.78 654.693C1113.89 668.166 1120.74 681.631 1132.69 688.19C1148.63 696.931 1168.4 691.362 1185.26 684.561C1193.9 681.076 1202.43 677.309 1210.83 673.277C1218.45 669.615 1226.11 665.623 1232.02 659.562C1236.32 655.152 1239.67 649.301 1239.27 643.152C1238.83 636.319 1234.01 630.709 1230.39 624.898C1225.14 616.447 1222.05 606.596 1215.49 599.119C1210.95 593.944 1205.02 590.226 1199.8 585.735C1184.36 572.439 1175.66 552.503 1172.95 532.31C1170.24 512.117 1173.06 491.553 1177.64 471.698C1185.46 437.798 1198.42 405.098 1215.95 375.045C1204.08 386.715 1197.27 402.458 1190.76 417.782C1186.76 427.215 1182.73 436.696 1180.27 446.635C1178.38 454.273 1177.43 462.12 1175.7 469.798C1173.83 478.064 1171.06 486.096 1168.29 494.112C1164.12 506.217 1159.95 518.314 1155.77 530.419C1155.18 532.133 1154.24 534.137 1152.44 534.322C1150.32 534.539 1149.01 532.117 1148.31 530.105C1135.13 492.213 1123.21 453.01 1099.66 422.369Z" fill="#E0AFA1"/>
<path d="M1274.88 622.765C1256.44 638.589 1247.85 662.959 1246.22 687.506C1232.21 699.45 1215.63 702.452 1199.45 705.317C1184.24 708.006 1169.02 710.702 1153.8 713.398C1131.74 717.293 1110.72 721.607 1088.36 721.728C1089.05 715.651 1095 711.273 1098.33 705.929C1101.6 700.665 1102.36 694.259 1103 688.086C1107.53 643.933 1109.97 599.554 1116.07 555.594C1116.77 573.767 1117.46 591.932 1118.14 610.097C1118.54 620.769 1118.97 631.578 1122.06 641.8C1125.15 652.021 1131.25 661.768 1140.57 666.991C1146.86 670.524 1154.13 671.772 1161.26 672.955C1167.52 673.993 1173.97 675.023 1180.15 673.551C1186.96 671.925 1192.69 667.434 1198.14 663.031C1207.2 655.715 1216.69 647.522 1219.54 636.238C1222.38 625.003 1217.89 613.091 1211.3 603.554C1204.71 594.025 1196.08 586.073 1189.13 576.809C1174.09 556.777 1167.51 530.604 1171.29 505.839C1170.88 528.753 1173.39 552.841 1186.26 571.811C1195.98 586.153 1210.85 596.302 1226.49 603.771C1242.14 611.24 1258.79 616.335 1274.88 622.765Z" fill="#99685A"/>
<path d="M1559.89 747.692C1559.47 739.491 1554.77 731.619 1547.76 727.354C1540.74 723.088 1531.6 722.541 1524.12 725.945C1523.07 726.42 1521.94 726.984 1520.83 726.686C1519.94 726.452 1519.3 725.72 1518.65 725.068C1513.33 719.684 1504.54 718.082 1497.66 721.253C1499.97 717.559 1497.78 712.376 1494.11 710.018C1490.45 707.651 1485.86 707.394 1481.5 707.346C1479.25 701.229 1474.62 696.022 1468.82 693.06C1475.59 693.18 1482.36 690.114 1486.72 684.931C1491.08 679.748 1492.97 672.569 1491.71 665.913C1491.31 663.852 1490.72 661.47 1492.05 659.852C1494.09 670.146 1492.37 681.14 1487.27 690.315C1486.35 691.989 1485.27 693.752 1485.47 695.659C1485.59 696.842 1486.21 697.921 1486.84 698.927C1495.84 713.285 1512.3 722.67 1529.23 723.12C1534.82 723.265 1540.59 722.525 1545.9 724.303C1556.26 727.772 1561.25 739.346 1559.89 747.692Z" fill="#99685A"/>
<path d="M1526.14 752.183C1524.92 752.062 1524.11 751.958 1523.98 751.942C1521.04 747.66 1519.1 742.67 1518.48 737.543C1517.76 731.636 1519.4 726.686 1522.86 724.303L1523.78 725.631C1520.82 727.668 1519.43 732.046 1520.08 737.35C1520.73 742.686 1522.87 747.877 1526.14 752.183Z" fill="#99685A"/>
<path d="M1500.58 719.66C1499.31 720.134 1498.47 721.495 1497.75 722.895C1494.99 728.279 1493.08 734.163 1492.11 740.175C1491.84 739.676 1491.68 739.386 1491.68 739.386C1491.68 739.386 1491.27 739.507 1490.56 739.652C1491.57 733.575 1493.53 727.619 1496.32 722.163C1497.18 720.472 1498.23 718.814 1500.01 718.146L1500.58 719.66Z" fill="#99685A"/>
<path d="M1522.56 594.781C1522.32 595.111 1542.93 563.98 1539.7 524.205C1540.24 524.294 1540.79 524.382 1541.33 524.463C1543.24 548.994 1536.45 574.499 1522.56 594.781Z" fill="#99685A"/>
<path d="M1571.7 529.936C1562.85 535.731 1555.29 544.785 1549.71 556.246C1544.39 567.175 1514.11 625.743 1548.26 555.546C1553.61 544.56 1560.76 535.731 1569.11 529.759C1569.12 529.759 1569.12 529.759 1569.12 529.759C1569.31 529.783 1569.49 529.807 1569.69 529.823C1570.35 529.887 1571.02 529.928 1571.7 529.936Z" fill="#99685A"/>
<path d="M826.373 431.287C826.325 431.287 826.276 431.279 826.22 431.271L811.556 428.47C811.121 428.39 810.832 427.963 810.92 427.528C811.001 427.094 811.427 426.804 811.862 426.893L826.526 429.694C826.961 429.774 827.25 430.201 827.162 430.635C827.089 431.021 826.751 431.287 826.373 431.287Z" fill="#99685A"/>
<path d="M897.947 446.12C897.859 446.12 897.778 446.104 897.69 446.08C883.871 441.412 871.524 433.114 861.995 422.072C861.705 421.734 861.746 421.227 862.076 420.937C862.414 420.647 862.921 420.679 863.21 421.017C872.555 431.842 884.659 439.979 898.205 444.551C898.623 444.696 898.849 445.146 898.712 445.573C898.591 445.911 898.285 446.12 897.947 446.12Z" fill="#99685A"/>
<path d="M971.92 456.036C971.477 456.02 971.131 455.649 971.147 455.199C971.34 449.887 971.791 444.527 972.483 439.255C972.877 436.261 973.409 432.728 974.39 429.259C976.403 422.152 980.217 415.625 985.409 410.377C985.723 410.064 986.23 410.055 986.544 410.369C986.857 410.683 986.865 411.19 986.552 411.504C981.546 416.559 977.875 422.844 975.936 429.685C974.978 433.05 974.463 436.51 974.077 439.448C973.393 444.671 972.95 449.983 972.757 455.239C972.741 455.706 972.362 456.052 971.92 456.036Z" fill="#99685A"/>
<path d="M996.452 620.681C996.186 620.681 995.92 620.544 995.768 620.303C995.534 619.924 995.655 619.425 996.033 619.192C1011.19 609.84 1029.97 606.089 1047.54 608.914C1047.99 608.987 1048.28 609.397 1048.21 609.84C1048.14 610.282 1047.73 610.58 1047.29 610.508C1030.09 607.747 1011.7 611.417 996.878 620.568C996.741 620.649 996.597 620.681 996.452 620.681Z" fill="#99685A"/>
<path d="M1045.01 631.506H1045C1027.92 631.289 1010.72 629.784 993.86 627.031C993.426 626.959 993.12 626.548 993.192 626.106C993.265 625.663 993.675 625.365 994.118 625.437C1010.9 628.174 1028.02 629.679 1045.02 629.888C1045.46 629.896 1045.81 630.258 1045.81 630.701C1045.8 631.152 1045.44 631.506 1045.01 631.506Z" fill="#99685A"/>
<path d="M970.142 747.265C970.053 741.833 970.512 736.601 971.518 731.603C972.435 727.048 973.852 722.533 975.212 718.163C977.256 711.619 979.365 704.859 979.792 697.969C979.824 697.527 980.21 697.197 980.645 697.213C981.087 697.245 981.425 697.623 981.401 698.066C980.959 705.148 978.818 712.006 976.749 718.645C975.397 722.967 973.997 727.442 973.095 731.925C972.146 736.642 971.695 741.583 971.751 746.718" fill="#99685A"/>
<path d="M1019.78 722.637C1019.44 718.79 1019.49 714.903 1019.95 711.064C1019.99 714.919 1019.97 718.782 1019.78 722.637Z" fill="#99685A"/>
<path d="M1057.61 707.651C1057.27 711.716 1055.02 715.321 1053.13 718.935C1047.54 729.567 1044.58 741.583 1044.57 753.599C1043.96 753.479 1043.58 753.406 1043.58 753.406C1043.58 753.406 1040.14 754.935 1038.14 755.603C1032.05 757.648 1024.22 757.43 1018.27 755C1016.88 754.428 1014.02 753.551 1014.02 753.551C1014.02 753.551 1012.5 754.163 1010.73 754.879C1013.82 750.308 1016.02 745.076 1017.41 739.724C1018.86 734.138 1019.52 728.408 1019.78 722.637C1020.13 726.476 1020.88 730.283 1022.02 733.961C1023.12 737.487 1024.65 741.012 1027.35 743.523C1030.06 746.026 1034.18 747.298 1037.56 745.801C1041.9 743.869 1043.33 738.557 1044.65 733.986C1046.8 726.565 1049.97 719.482 1053.14 712.432C1054.07 710.348 1055.35 707.981 1057.61 707.651Z" fill="#99685A"/>
<path d="M686.421 397.637C683.757 394.023 679.539 391.593 675.073 391.102C672.747 390.844 670.348 391.086 668.095 390.442C665.463 389.693 663.298 387.802 661.543 385.701C658.107 381.597 655.893 376.47 655.258 371.15C655.201 370.699 655.169 370.224 655.37 369.822C655.966 368.623 657.777 369.138 658.895 369.87C662.863 372.454 666.388 375.705 669.294 379.44C670.646 381.178 671.942 383.093 673.906 384.108C675.902 385.138 678.268 385.065 680.441 385.629C686.139 387.094 690.018 393.548 686.421 397.637Z" fill="#E0AFA1"/>
<path d="M842.6 439.786C842.503 439.786 842.407 439.762 842.31 439.722C828.185 433.685 815.3 424.446 805.054 413.009C804.756 412.679 804.789 412.172 805.119 411.874C805.449 411.577 805.956 411.609 806.253 411.939C816.346 423.198 829.038 432.301 842.946 438.249C843.356 438.426 843.541 438.893 843.372 439.303C843.236 439.609 842.922 439.794 842.6 439.786Z" fill="#99685A"/>
<path d="M686.365 380.462C680.385 377.331 675.387 372.663 669.947 368.671C664.506 364.687 658.228 361.258 651.484 361.25C649.488 361.25 647.484 361.548 645.488 361.371C640.297 360.912 635.612 356.888 634.373 351.818C647.79 355.488 660.892 360.285 673.512 366.136C676.023 367.303 678.567 368.542 680.522 370.498C682.607 372.582 684.039 375.488 686.736 376.671C687.661 377.073 688.707 377.267 689.456 377.935C690.204 378.603 690.398 380.035 689.504 380.502C689.037 380.743 688.482 380.623 687.975 380.502C686.526 380.164 685.07 379.818 686.365 380.462Z" fill="#E0AFA1"/>
<path d="M707.338 620.552C710.766 613.928 712.111 606.25 711.137 598.854C717.205 604.407 724.199 608.938 731.74 612.222C733.06 612.793 734.517 613.445 735.105 614.765C735.459 615.57 735.419 616.504 735.201 617.357C734.718 619.272 733.181 621.059 731.209 621.204C730.396 621.26 729.592 621.043 728.803 620.834C726.235 620.134 723.668 619.433 721.093 618.725C718.557 618.033 715.958 617.333 713.342 617.566C710.726 617.8 708.038 619.168 707.338 620.552Z" fill="#E0AFA1"/>
<path d="M712.417 601.445C712.136 601.445 711.862 601.301 711.717 601.035C710.083 598.113 710.542 594.29 713.085 589.687C713.343 589.22 713.608 588.753 713.874 588.286C715.419 585.582 717.013 582.789 716.908 579.828C716.779 576.246 714.164 573.172 712.2 571.167C710.389 569.316 707.596 566.765 704.208 565.96C699.653 564.874 694.26 567.015 689.769 571.675C689.463 571.996 688.948 572.005 688.634 571.699C688.312 571.393 688.304 570.878 688.61 570.564C693.496 565.485 699.459 563.184 704.578 564.399C708.369 565.3 711.395 568.053 713.343 570.049C715.492 572.246 718.365 575.642 718.51 579.779C718.631 583.192 716.924 586.194 715.266 589.091C715.001 589.55 714.743 590.009 714.494 590.467C712.24 594.556 711.781 597.848 713.125 600.254C713.343 600.641 713.206 601.131 712.812 601.349C712.683 601.413 712.554 601.445 712.417 601.445Z" fill="#E0AFA1"/>
<path d="M758.316 585.695C762.477 571.481 769.447 558.097 778.719 546.548C774.743 554.105 770.767 561.662 766.791 569.212C765.431 571.787 764.063 574.419 763.499 577.276C762.493 582.411 764.184 587.626 765.318 592.729C767.057 600.576 767.475 608.705 766.55 616.697C765.785 613.486 765.013 610.266 764.248 607.055C763.66 604.608 762.888 601.896 760.707 600.649C760.24 600.383 759.693 600.198 759.177 600.335C758.735 600.455 758.389 600.785 758.083 601.115C754.864 604.568 753.27 609.301 750.035 612.737C749.318 613.494 748.079 614.194 747.338 613.462C747.016 613.14 746.936 612.649 746.912 612.198C746.735 609.188 747.95 606.29 749.157 603.53C753.181 594.331 757.431 585.22 758.316 585.695Z" fill="#E0AFA1"/>
<path d="M841.07 442.595C873.513 449.042 905.706 456.768 937.545 465.734C941.264 466.78 945.071 467.891 948.169 470.201C950.648 472.044 952.539 474.563 954.278 477.122C969.795 499.948 975.534 528.326 975.027 555.924C974.52 583.522 968.177 610.645 961.296 637.373C960.725 639.595 960.145 641.921 960.668 644.15C961.191 646.379 963.196 648.448 965.473 648.206C966.801 648.061 967.928 647.2 968.974 646.363C978.729 638.605 988.483 630.846 998.238 623.087C999.333 622.218 1000.48 621.276 1000.98 619.973C1001.71 618.073 1000.9 615.973 1000.32 614.017C997.393 604.109 1000.6 593.582 1001.62 583.296C1003.08 568.56 999.944 553.791 996.838 539.312C995.494 533.075 994.157 526.829 992.813 520.592C992.371 518.547 991.928 516.479 991.043 514.588C990.029 512.431 988.483 510.571 987.091 508.632C978.318 496.447 975.461 481.05 973.843 466.12C973.634 464.189 973.409 462.161 972.298 460.567C970.511 457.992 967.043 457.324 963.936 456.881C933.449 452.47 902.962 448.068 872.474 443.657C862.285 442.185 852.072 440.704 842.148 437.975C837.496 436.696 832.048 435.271 828.225 438.209C834.261 440.301 840.281 442.434 841.07 442.595Z" fill="#E0AFA1"/>
<path d="M1199.41 558.733C1219.58 576.133 1248.65 577.469 1275.28 577.155C1318.32 576.64 1361.86 573.992 1402.97 561.236C1422.26 555.248 1441.49 546.982 1461.67 547.698C1488.71 548.664 1514.22 567.602 1522.98 593.204C1485.88 599.441 1448.79 605.671 1411.7 611.908C1390.77 615.425 1369.82 618.951 1348.89 622.468C1328.85 625.84 1308.48 629.212 1288.31 626.757C1257.37 622.983 1229.73 605.848 1204.94 586.982C1199.74 583.023 1194.42 578.741 1191.75 572.777C1189.07 566.821 1189.98 558.725 1195.46 555.183C1199.93 558.322 1204.4 561.469 1199.41 558.733Z" fill="#E0AFA1"/>
<path d="M1274.17 621.953C1290.03 627.707 1307.42 627.86 1324.17 625.84C1340.93 623.82 1357.36 619.707 1374.03 617.148C1390.43 614.62 1407.1 613.59 1423.22 609.639C1445.46 604.198 1468.37 593.236 1490.18 600.19C1469.92 599.916 1449.62 604.802 1431.71 614.25C1425.5 617.526 1419.49 621.373 1412.72 623.224C1401.61 626.266 1389.85 623.61 1378.33 623.482C1355.69 623.224 1333.66 632.786 1311.05 631.643C1297.93 630.975 1285.27 626.725 1274.17 621.953Z" fill="#99685A"/>
<path d="M1450.35 485.799C1442.01 482.644 1433.81 479.159 1425.72 475.714C1403.41 466.225 1380.33 456.414 1356.04 454.41C1335.65 452.736 1315.16 456.599 1296.78 465.589C1296.18 465.879 1295.46 465.629 1295.16 465.034C1294.87 464.43 1295.11 463.706 1295.71 463.416C1314.48 454.233 1335.42 450.289 1356.24 452.004C1380.92 454.04 1404.17 463.931 1426.66 473.493C1432.35 475.915 1438.1 478.354 1443.9 480.688C1443.96 480.937 1444.06 481.179 1444.18 481.42C1444.98 482.99 1446.64 483.891 1448.2 484.696C1448.92 485.066 1449.63 485.428 1450.35 485.799Z" fill="#E0AFA1"/>
<path d="M1680.89 567.473C1680.81 568.013 1680.73 568.552 1680.64 569.091L1620.35 571.208H1620.32C1619.88 571.208 1619.53 570.862 1619.51 570.427C1619.5 569.984 1619.84 569.614 1620.29 569.598L1680.89 567.473Z" fill="#E0AFA1"/>
<path d="M819.751 439.038C814.045 439.038 808.29 438.49 802.769 436.848C791.348 433.468 781.513 425.532 775.783 415.094C775.565 414.707 775.71 414.216 776.105 413.999C776.491 413.782 776.982 413.927 777.199 414.321C782.72 424.398 792.209 432.044 803.228 435.311C814.519 438.659 826.97 437.323 837.948 436.148C838.391 436.1 838.785 436.422 838.833 436.864C838.882 437.307 838.56 437.702 838.117 437.75C832.29 438.37 826.045 439.038 819.751 439.038Z" fill="#99685A"/>
<path d="M973.876 468.768C972.749 463.577 972.492 458.193 973.111 452.913C943.799 455.448 913.924 451.175 888 440.559C870.575 443.851 852.209 441.983 835.678 435.537C846.68 441.106 859.235 442.7 871.549 443.44C877.207 443.778 882.986 443.971 888.322 445.879C891.413 446.981 894.278 448.623 897.288 449.943C907.179 454.281 918.214 454.957 928.91 456.47C944.838 458.724 960.484 462.998 973.876 468.768Z" fill="#99685A"/>
<path d="M1681.66 546.081C1661.91 541.654 1640.71 542.837 1621.74 549.63C1621.33 549.783 1620.87 549.566 1620.71 549.147C1620.57 548.729 1620.79 548.27 1621.21 548.117C1640.27 541.284 1661.56 540.044 1681.45 544.382C1681.52 544.946 1681.59 545.509 1681.66 546.081Z" fill="#E0AFA1"/>
<path d="M1679.73 536.753C1673.95 534.378 1667.24 532.117 1660.22 531.143C1647.59 529.388 1634.83 531.763 1622.49 534.048C1622.06 534.129 1621.64 533.847 1621.56 533.405C1621.48 532.97 1621.76 532.551 1622.2 532.471C1634.66 530.153 1647.55 527.763 1660.44 529.549C1667.1 530.475 1673.45 532.519 1679.03 534.741V534.749C1679.28 535.417 1679.51 536.077 1679.73 536.753Z" fill="#E0AFA1"/>
<path d="M1515.49 686.178C1515.01 686.178 1514.52 686.114 1514.01 685.961C1513.79 685.897 1513.61 685.744 1513.51 685.543C1513.4 685.341 1513.4 685.108 1513.48 684.899C1514.24 682.919 1513.91 680.528 1512.67 678.806L1495.85 681.019C1495.4 681.076 1495.01 680.77 1494.95 680.327C1494.89 679.885 1495.2 679.482 1495.64 679.426L1512.92 677.148C1513.2 677.116 1513.47 677.221 1513.65 677.43C1515.29 679.386 1515.89 682.09 1515.28 684.553C1517.2 684.649 1519.02 683.144 1520.93 681.559C1523.14 679.716 1525.43 677.808 1528.28 678.025C1529.56 678.122 1530.68 678.645 1531.77 679.152C1532.61 679.538 1533.39 679.909 1534.21 680.07C1537.41 680.705 1540.09 678.323 1542.95 675.804C1543.79 675.064 1544.65 674.307 1545.51 673.639C1552.21 668.472 1561.68 668.303 1568.58 668.182C1569.05 668.198 1569.4 668.528 1569.41 668.971C1569.41 669.414 1569.06 669.784 1568.62 669.792C1559.95 669.945 1552.3 670.436 1546.49 674.919C1545.67 675.555 1544.87 676.263 1544.01 677.019C1540.99 679.691 1537.88 682.444 1533.9 681.663C1532.89 681.462 1531.97 681.035 1531.09 680.625C1530.09 680.158 1529.15 679.724 1528.16 679.651C1525.94 679.498 1524.01 681.108 1521.96 682.814C1519.96 684.464 1517.9 686.178 1515.49 686.178Z" fill="#E0AFA1"/>
<path d="M1540.75 669.792C1540.46 669.792 1540.18 669.639 1540.04 669.365C1538.08 665.736 1537.55 661.575 1537.03 657.55C1536.44 652.987 1535.89 648.681 1533.44 645.14C1531.69 642.621 1529.2 640.818 1526.56 638.91C1524.09 637.132 1521.53 635.281 1519.64 632.786C1519.37 632.432 1519.43 631.924 1519.79 631.659C1520.14 631.393 1520.65 631.458 1520.92 631.812C1522.65 634.114 1525 635.804 1527.49 637.599C1530.13 639.498 1532.86 641.462 1534.76 644.214C1537.43 648.078 1538.03 652.778 1538.62 657.333C1539.12 661.212 1539.64 665.221 1541.45 668.585C1541.66 668.979 1541.51 669.462 1541.12 669.679C1541 669.76 1540.88 669.792 1540.75 669.792Z" fill="#E0AFA1"/>
<path d="M1578.48 717.744C1578.19 717.744 1577.91 717.583 1577.77 717.309C1570.67 703.708 1563.29 691.007 1551.06 685.156C1551.01 685.398 1550.85 685.599 1550.6 685.704C1549.87 685.993 1549.5 685.575 1549.4 685.438C1549.3 685.301 1549.01 684.802 1549.53 684.166C1549.97 683.643 1550.77 683.241 1551.51 683.595C1565.39 690.114 1573.37 705.406 1579.19 716.569C1579.39 716.963 1579.25 717.446 1578.85 717.656C1578.74 717.712 1578.61 717.744 1578.48 717.744Z" fill="#E0AFA1"/>
<path d="M1590.32 724.352C1589.92 724.352 1589.57 724.062 1589.52 723.668L1586.44 702.911C1586.38 702.468 1586.69 702.066 1587.12 701.993C1587.55 701.929 1587.97 702.235 1588.04 702.67L1591.11 723.426C1591.18 723.869 1590.87 724.271 1590.44 724.344C1590.4 724.344 1590.36 724.352 1590.32 724.352Z" fill="#E0AFA1"/>
<path d="M674.002 722.058C673.68 722.058 673.374 721.865 673.253 721.543C670.565 714.597 667.788 707.418 666.943 699.82C665.092 683.168 673.422 666.057 687.668 657.245C691.571 654.83 694.815 653.864 697.865 654.202C700.931 654.54 703.644 656.247 706.123 658.041C713.986 663.731 720.851 670.613 726.525 678.492C726.783 678.854 726.702 679.353 726.34 679.619C725.978 679.876 725.479 679.796 725.213 679.434C719.644 671.699 712.899 664.939 705.173 659.353C703.032 657.8 700.513 656.126 697.68 655.812C695 655.514 692.086 656.407 688.505 658.621C674.774 667.112 666.75 683.603 668.537 699.651C669.358 707.04 672.102 714.122 674.75 720.971C674.911 721.382 674.702 721.849 674.291 722.01C674.195 722.034 674.098 722.058 674.002 722.058Z" fill="#E0AFA1"/>
<path d="M646.275 716.802C645.889 716.802 645.543 716.521 645.478 716.126C643.233 701.985 641.366 688.158 643.112 674.355C643.587 670.629 644.44 666.396 647.185 663.313C648.81 661.486 650.983 660.222 652.907 659.112C659.668 655.184 667.338 650.733 675.684 649.317C676.368 649.204 677.06 649.108 677.76 649.003C680.617 648.601 683.314 648.222 685.446 646.661C685.801 646.395 686.308 646.476 686.573 646.838C686.839 647.2 686.758 647.699 686.396 647.965C683.933 649.768 680.907 650.194 677.978 650.605C677.293 650.701 676.617 650.798 675.949 650.911C667.893 652.271 660.682 656.456 653.712 660.504C651.804 661.607 649.841 662.75 648.384 664.383C645.929 667.144 645.148 671.072 644.706 674.557C642.983 688.15 644.843 701.857 647.064 715.877C647.136 716.319 646.83 716.73 646.396 716.794C646.364 716.794 646.315 716.802 646.275 716.802Z" fill="#E0AFA1"/>
<path d="M621.559 700.859C621.141 700.859 620.795 700.537 620.754 700.118C619.813 688.665 620.851 677.229 623.829 666.122C624.143 664.963 624.473 663.844 625.141 662.854C625.93 661.679 627.032 660.89 628.288 660.053C637.664 653.784 647.708 648.432 658.139 644.142C658.549 643.973 659.024 644.166 659.193 644.576C659.362 644.987 659.169 645.462 658.759 645.631C648.425 649.88 638.477 655.184 629.189 661.389C628.078 662.13 627.105 662.822 626.485 663.748C625.954 664.528 625.68 665.47 625.398 666.532C622.469 677.454 621.455 688.706 622.372 699.981C622.404 700.424 622.082 700.81 621.632 700.85C621.608 700.859 621.583 700.859 621.559 700.859Z" fill="#E0AFA1"/>
<path d="M803.355 465.871C825.126 470.217 844.692 482 866.044 488.092C875.839 490.885 886.607 492.398 895.992 488.455C898.286 487.489 900.813 485.074 899.533 482.933C898.994 482.032 897.94 481.597 896.95 481.219C873.883 472.406 850.816 463.585 827.75 454.772C821.867 452.527 815.959 450.265 809.81 448.889C806.18 448.076 801.247 448.293 800.152 451.843C799.726 453.227 800.08 454.716 800.442 456.116C801.762 461.299 803.774 467.271 803.355 465.871Z" fill="#FEE4DB"/>
<path d="M655.041 590.009C660.803 592.399 666.63 594.838 671.62 598.572C674.26 600.552 676.634 602.87 679.363 604.729C682.992 607.2 687.226 608.794 691.58 609.325C692.868 609.486 694.51 609.341 694.96 608.126C695.274 607.288 694.815 606.379 694.316 605.639C691.395 601.268 686.767 598.387 682.284 595.643C675.395 591.425 668.159 587.087 660.103 586.54C657.64 586.379 654.477 587.176 655.041 590.009Z" fill="#FEE4DB"/>
<path d="M635.05 499.263C634.784 510.555 634.003 521.839 632.707 533.067C632.345 536.173 631.935 539.344 630.615 542.185C629.303 545.026 626.929 547.546 623.878 548.27C622.253 533.871 622.848 519.215 625.633 504.994C627.194 497.034 629.794 488.648 636.192 483.666C636.619 490.901 635.854 498.217 635.05 499.263Z" fill="#FEE4DB"/>
<path d="M808.789 614.041C804.217 622.733 799.26 631.852 790.865 636.963C788.7 638.283 786.173 639.313 783.678 638.846C780.571 638.25 778.382 635.514 776.62 632.89C772.491 626.765 769.022 620.198 766.286 613.341C765.787 618.934 764.829 624.48 763.42 629.92C762.294 634.291 760.716 638.822 757.263 641.727C753.811 644.633 747.951 645.092 745.118 641.582C742.728 638.613 743.38 634.21 744.877 630.701C746.374 627.192 748.611 623.9 749.118 620.126C749.328 618.54 749.231 616.93 749.416 615.345C749.642 613.462 750.269 611.651 750.897 609.864C755.332 597.212 759.758 584.56 764.193 571.908C759.227 585.099 754.157 598.467 745.843 609.84C743.984 612.375 741.859 615.313 742.631 618.363C742.865 619.272 743.356 620.126 743.388 621.067C743.485 623.377 741.022 624.818 739.525 626.58C734.358 632.649 740.185 644.069 733.963 649.059C732.587 650.162 730.833 650.685 729.086 650.886C720.748 651.836 712.418 644.584 712.201 636.198C712.088 631.973 713.448 626.902 710.269 624.118C707.911 622.057 704.023 622.669 701.698 624.769C699.372 626.87 698.309 630.033 697.77 633.116C697.456 634.918 697.19 636.914 695.814 638.122C694.937 638.886 693.762 639.192 692.635 639.466C688.329 640.528 683.83 641.582 679.508 640.584C675.186 639.578 671.162 635.82 671.444 631.393C671.508 630.46 671.75 629.51 671.548 628.592C671.122 626.677 668.828 625.679 666.896 625.977C664.957 626.283 663.315 627.522 661.762 628.721C660.868 629.413 659.894 630.25 659.838 631.385C659.79 632.456 660.587 633.349 661.327 634.114C664.53 637.413 667.733 640.705 670.937 644.005C671.669 644.753 672.434 645.526 673.416 645.88C674.896 646.411 676.53 645.88 678.108 645.904C680.466 645.937 682.76 647.353 683.734 648.81C693.754 646.041 704.353 650.259 713.343 655.474C714.76 656.295 716.185 657.156 717.754 657.607C719.162 658.009 720.643 658.074 722.1 658.13C730.1 658.444 738.221 658.701 745.883 661.019C754.567 663.643 762.953 668.907 771.944 667.788C775.509 667.345 778.881 665.897 781.98 664.078C790.736 658.943 797.537 650.806 801.843 641.615C806.157 632.407 808.065 622.202 808.789 614.041Z" fill="#99685A"/>
<path d="M644.128 364.945C647.46 362.16 652.281 361.741 656.498 362.788C660.715 363.842 664.474 366.168 668.16 368.47C668.723 368.824 669.375 369.468 669.029 370.039C668.828 370.377 668.377 370.458 667.983 370.474C665.061 370.554 662.446 368.848 659.886 367.456C657.327 366.063 654.204 364.928 651.556 366.16C650.478 366.659 649.609 367.512 648.594 368.124C647.58 368.743 646.277 369.122 645.214 368.582C643.725 367.826 643.749 365.266 644.128 364.945Z" fill="#FEE4DB"/>
<path d="M693.592 401.17C699.676 404.808 706.397 408.583 713.407 407.577C714.55 407.416 715.733 407.094 716.554 406.289C717.383 405.484 717.705 404.076 717.004 403.158C716.441 402.418 715.427 402.208 714.493 402.128C712.385 401.935 710.244 402.128 708.191 402.675C707.081 402.973 705.978 403.375 704.835 403.391C703.813 403.408 702.807 403.102 701.825 402.812C698.855 401.902 695.878 401.001 693.592 401.17Z" fill="#FEE4DB"/>
<path d="M690.002 545.389C695.781 537.123 701.64 528.728 704.924 519.191C707.628 511.344 708.505 502.998 709.358 494.732C711.732 495.175 712.932 497.783 713.72 500.06C715.829 506.177 717.688 512.551 717.238 519.006C716.714 526.531 712.964 533.678 707.435 538.821C701.905 543.964 694.71 547.135 690.002 545.389Z" fill="#FEE4DB"/>
<path d="M694.833 572.085C698.583 571.304 702.607 571.063 706.125 572.56C709.65 574.057 712.475 577.679 712.064 581.477C712 582.057 711.831 582.685 711.34 582.99C710.752 583.369 709.98 583.127 709.344 582.838C706.438 581.469 704.185 579.055 701.601 577.139C699.018 575.232 695.694 573.775 692.635 574.773C692.281 573.035 693.835 571.151 694.833 572.085Z" fill="#FEE4DB"/>
<path d="M678.897 714.388C676.869 708.062 674.824 701.671 674.148 695.064C673.472 688.456 674.245 681.51 677.553 675.748C681.134 669.518 687.339 665.196 693.883 662.21C695.106 661.647 696.442 661.116 697.77 661.333C699.098 661.542 700.354 662.798 700.072 664.118C699.887 664.955 699.179 665.55 698.486 666.058C693.376 669.744 686.688 671.732 683.364 677.084C681.408 680.247 680.973 684.086 680.7 687.796C680.056 696.408 679.991 705.076 678.897 714.388Z" fill="#FEE4DB"/>
<path d="M652.192 710.484C649.319 701.647 648.506 692.15 649.85 682.959C650.494 678.532 651.637 674.17 653.295 670.017C655.081 665.559 657.552 661.237 661.27 658.186C664.989 655.136 670.116 653.534 674.727 654.878C676.627 655.434 678.671 657.357 677.697 659.08C676.989 660.327 675.259 660.375 673.818 660.424C666.526 660.665 659.492 665.293 656.627 671.997C655.226 675.273 654.8 678.879 654.542 682.428C654.003 689.993 654.18 697.607 655.073 705.132C655.25 706.637 655.451 708.215 654.872 709.615C654.293 711.016 652.707 712.07 652.192 710.484Z" fill="#FEE4DB"/>
<path d="M626.316 702.871C625.222 692.923 625.809 682.782 628.055 673.027C628.98 668.995 630.292 664.858 633.206 661.921C635.306 659.796 638.075 658.484 640.819 657.301C646.236 654.967 651.797 652.979 657.471 651.353C657.584 653.655 655.009 655.023 652.868 655.868C648.9 657.438 645.005 659.2 641.214 661.164C639.54 662.025 637.85 662.959 636.61 664.367C635.145 666.033 634.429 668.222 633.874 670.371C631.049 681.229 631.177 692.689 628.304 703.531C628.135 704.174 627.886 704.899 627.266 705.156C626.646 705.414 626.517 704.714 626.316 702.871Z" fill="#FEE4DB"/>
<path d="M618.92 711.056C616.305 704.223 613.681 697.382 611.065 690.549C610.236 688.392 609.407 686.211 609.117 683.917C608.143 676.158 613.584 668.947 619.934 664.383C620.836 665.373 620.602 666.991 619.854 668.102C619.105 669.212 617.979 669.993 617.029 670.935C615.194 672.738 613.995 675.176 613.689 677.736C613.455 679.748 613.753 681.776 614.059 683.78C615.009 690.05 615.95 696.311 616.9 702.581C617.303 705.237 617.954 708.263 618.92 711.056Z" fill="#FEE4DB"/>
<path d="M1057.13 604.077C1049.25 602.097 1041.08 601.292 1032.97 601.695C1029.62 601.864 1026.23 602.234 1022.91 601.735C1021.88 601.582 1020.7 601.22 1020.35 600.238C1020.09 599.522 1020.38 598.709 1020.85 598.113C1022.27 596.27 1024.93 596.029 1027.25 596.045C1038.33 596.133 1049.39 598.797 1057.13 604.077Z" fill="#FEE4DB"/>
<path d="M1083.61 627.723C1074.14 630.685 1063.93 631.24 1054.2 629.325C1052.82 629.051 1051.05 627.804 1051.91 626.677C1052.14 626.363 1052.53 626.21 1052.9 626.081C1060.39 623.546 1068.78 627.763 1076.44 625.776C1079.46 624.995 1082.94 623.353 1085.39 625.277C1085.94 626.806 1084.64 628.697 1083.61 627.723Z" fill="#FEE4DB"/>
<path d="M1308.62 476.68C1336.99 461.557 1372.08 465.002 1402.15 476.374C1409.57 479.183 1417.24 482.78 1421.53 489.453C1417.6 494.435 1409.74 491.601 1404.04 488.833C1381.22 477.79 1354.74 474.483 1329.91 479.569C1322.46 481.098 1315.17 483.352 1307.79 485.187C1305.62 485.726 1303.35 486.233 1301.17 485.758C1298.99 485.292 1296.9 483.561 1296.77 481.332C1296.63 479.102 1300.33 481.098 1308.62 476.68Z" fill="#FEE4DB"/>
<path d="M1263.68 357.017C1234.58 382.104 1215.16 418.136 1210.19 456.237C1208.83 466.668 1208.62 477.718 1213.17 487.191C1214.22 489.372 1216.09 491.738 1218.49 491.384C1220.77 491.046 1221.9 488.487 1222.53 486.273C1228.45 465.299 1225.35 442.434 1232.29 421.774C1239.53 400.204 1256.7 383.762 1270.19 365.444C1272.05 362.924 1273.94 359.979 1273.4 356.888C1272.87 353.806 1269.08 352.357 1263.68 357.017Z" fill="#FEE4DB"/>
<path d="M1455.26 643.289C1469.82 629.816 1489.86 624.351 1509.07 619.377C1520.66 616.375 1532.25 613.381 1543.85 610.411C1538.69 615.288 1531.36 616.955 1524.47 618.717C1502.6 624.319 1481.49 632.866 1461.88 644.045C1460.33 644.931 1458.51 645.856 1456.86 645.18C1455.21 644.504 1455.14 641.381 1455.26 643.289Z" fill="#FEE4DB"/>
<path d="M1627.06 555.811C1636.52 554.049 1645.98 552.294 1655.44 550.531C1650.88 547.57 1644.95 547.393 1639.69 548.809C1634.44 550.226 1629.7 553.067 1627.06 555.811Z" fill="#FEE4DB"/>
<path d="M1628.32 540.012C1636.27 540.028 1644.22 538.403 1651.53 535.264C1642.56 534.008 1633.2 535.763 1628.32 540.012Z" fill="#FEE4DB"/>
<path d="M648.635 384.703C629.601 376.22 604.409 387.343 597.874 407.134C575.636 384.655 546.171 369.435 514.976 364.325C508.706 363.295 502.243 362.667 496.046 364.051C488.61 365.717 482.09 370.152 476.207 375.005C462.621 386.2 451.297 400.116 443.104 415.689C441.905 417.975 440.762 420.744 441.961 423.021C443.579 426.128 448.038 425.935 451.434 425.106C466.605 421.412 480.803 413.806 492.28 403.222C483.402 420.454 466.38 433.259 447.362 437.009C480.803 479.271 499.716 532.825 500.231 586.717C494.412 581.711 491.958 573.952 488.151 567.296C484.336 560.632 477.43 554.314 469.921 555.892C476.054 575.514 478.815 596.174 478.042 616.713C471.362 606.355 464.674 595.997 457.994 585.646C465.833 610.54 469.245 636.818 468.022 662.886C464.674 649.454 458.807 636.649 450.815 625.341C459.273 643.184 464.899 662.371 467.418 681.961C467.426 682.017 467.434 682.066 467.442 682.122C467.338 681.969 467.233 681.808 467.129 681.655C460.183 671.249 451.257 662.162 440.963 655.039C443.225 657.55 445.406 660.126 447.491 662.75C456.561 674.186 463.74 686.452 467.233 697.317C444.883 696.44 421.527 695.273 402.178 684.062C394.46 679.587 387.659 673.655 379.892 669.261C370.387 663.884 359.715 660.963 349.663 656.681C311.997 640.641 285.542 604.278 276.986 564.222C273.622 548.479 273.018 532.165 275.594 516.294C279.296 493.436 288.568 471.931 295.546 449.855C298.749 439.738 301.469 429.46 305.276 419.553C317.92 386.627 341.977 359.166 369.027 336.526C396.472 313.54 429.414 294.191 465.205 293.733C503.161 293.242 537.705 313.733 573.536 326.248C592.449 332.856 612.112 337.306 632.023 339.488C619.653 339.391 611.073 356.252 618.421 366.192C625.528 375.802 640.772 375.705 648.635 384.703Z" fill="#806158"/>
<path d="M413.414 603.796C416.344 611.627 419.273 619.442 422.211 627.273C418.541 619.747 415.587 611.876 413.414 603.796Z" fill="#5E3E35"/>
<path d="M447.491 662.75C456.561 674.186 463.74 686.452 467.233 697.317C444.883 696.44 421.527 695.273 402.178 684.062C394.46 679.587 387.659 673.655 379.893 669.261C370.387 663.884 359.715 660.963 349.663 656.681C311.997 640.641 285.542 604.278 276.986 564.222C286.282 587.715 301.646 608.793 321.816 624.045L309.429 569.284C322.661 601.107 336.842 634.25 363.442 656.166C358.774 630.661 354.09 604.954 354.403 579.023C363.683 602.572 376.625 624.673 392.633 644.287C392.714 632.069 392.802 619.852 392.883 607.634C398.645 618.162 404.416 628.697 410.179 639.232C406.766 623.812 403.354 608.391 399.949 592.97L422.597 628.295C422.468 627.957 422.34 627.611 422.211 627.272C427.869 638.878 435.233 649.663 444.014 659.128C445.149 660.359 446.316 661.558 447.491 662.75Z" fill="#5E3E35"/>
<path d="M467.443 682.122C467.338 681.969 467.234 681.808 467.129 681.655C467.225 681.76 467.322 681.856 467.419 681.961C467.427 682.017 467.435 682.066 467.443 682.122Z" fill="#5E3E35"/>
<path d="M347.224 377.428C309.453 420.068 291.369 479.473 298.958 535.932C298.492 518.934 301.904 501.839 308.866 486.322C305.663 501.187 304.81 516.551 306.347 531.674C309.606 510.418 314.942 489.477 322.25 469.243C321.429 479.03 320.608 488.825 319.796 498.612C322.202 471.336 333.55 444.921 351.667 424.39C334.846 452.672 330.089 487.867 338.814 519.602C343.933 482.024 349.969 442.273 374.259 413.146C370.041 426.708 365.832 440.277 361.615 453.839C365.969 443.843 370.315 433.846 374.669 423.85C374.653 429.734 374.637 435.617 374.621 441.5C380.883 420.615 388.818 400.237 398.307 380.607C380.762 379.737 361.446 379.407 347.82 390.498C348.045 383.874 348.287 377.25 347.224 377.428Z" fill="#5E3E35"/>
<path d="M359.08 372.285C362.597 360.542 366.332 348.864 370.299 337.258C371.032 344.502 371.756 351.745 372.489 358.997C376.054 351.576 380.593 344.63 385.954 338.385C383.032 343.938 380.626 349.757 378.782 355.753C382.662 349.645 388.255 344.647 394.75 341.467C392.891 344.985 391.032 348.502 389.173 352.011C393.994 349.419 398.823 346.828 403.644 344.236C401.101 348.204 398.557 352.172 396.006 356.14C397.769 355.053 399.523 353.967 401.286 352.88C396.151 366.031 381.881 375.005 367.804 373.926C365.116 373.725 361.961 373.363 359.08 372.285Z" fill="#5E3E35"/>
<path d="M392.811 506.088C393.8 539.94 404.819 573.437 424.127 601.268C421.229 586.669 419.105 571.924 417.76 557.099C419.789 570.387 422.219 584.536 431.378 594.371C430.67 585.027 429.954 575.691 429.245 566.346C429.841 577.155 435.08 587.634 443.378 594.596C437.688 569.067 420.585 547.771 409.994 523.851C401.253 504.117 396.98 482.426 397.583 460.857C396.287 483.223 396.263 505.67 392.811 506.088Z" fill="#5E3E35"/>
</g>
<defs>
<clipPath id="clip0_101_217">
<rect width="2000" height="1040" fill="white"/>
</clipPath>
</defs>
</svg>
