<svg width="448" height="432" viewBox="0 0 448 432" fill="none" xmlns="http://www.w3.org/2000/svg">
<path d="M448 216C448 222.365 445.471 228.47 440.971 232.971C436.47 237.471 430.365 240 424 240H24C17.6348 240 11.5303 237.471 7.02944 232.971C2.52856 228.47 0 222.365 0 216C0 209.635 2.52856 203.53 7.02944 199.029C11.5303 194.529 17.6348 192 24 192H34.768C45.296 129.536 86.016 77.408 141.424 50.912L146.32 101.152C146.451 102.729 146.898 104.263 147.632 105.664C148.366 107.065 149.374 108.305 150.595 109.31C151.817 110.316 153.228 111.066 154.744 111.517C156.26 111.968 157.852 112.11 159.424 111.936C162.589 111.628 165.502 110.077 167.524 107.623C169.546 105.169 170.511 102.013 170.208 98.848L161.872 13.184C161.707 11.5169 161.892 9.83371 162.417 8.24269C162.941 6.65168 163.793 5.18812 164.918 3.94622C166.042 2.70431 167.414 1.71159 168.945 1.03194C170.476 0.352284 172.133 0.000763694 173.808 3.35913e-06H274.176C275.851 -0.00124994 277.508 0.348218 279.04 1.02592C280.572 1.70362 281.945 2.69454 283.071 3.93491C284.196 5.17528 285.05 6.63762 285.577 8.22782C286.103 9.81802 286.291 11.5008 286.128 13.168L277.792 98.832C277.484 102 278.448 105.16 280.47 107.617C282.492 110.075 285.408 111.628 288.576 111.936C291.744 112.244 294.904 111.28 297.361 109.258C299.819 107.236 301.372 104.32 301.68 101.152L306.576 50.912C361.984 77.392 402.704 129.52 413.232 192H424C430.365 192 436.47 194.529 440.971 199.029C445.471 203.53 448 209.635 448 216ZM440 304H416C416 286.352 401.648 272 384 272H64C46.352 272 32 286.352 32 304H8C5.87827 304 3.84344 304.843 2.34315 306.343C0.842856 307.843 0 309.878 0 312V344C0 346.122 0.842856 348.157 2.34315 349.657C3.84344 351.157 5.87827 352 8 352H32V384C32 388.256 33.68 392.32 36.688 395.312L68.688 427.312C70.1718 428.8 71.935 429.98 73.8763 430.785C75.8175 431.589 77.8986 432.002 80 432H176C181.344 432 186.336 429.328 189.312 424.88C201.184 407.104 216.8 389.104 224 384.624C231.2 389.088 246.816 407.088 258.688 424.88C261.664 429.328 266.656 432 272 432H368C372.24 432 376.32 430.32 379.312 427.312L411.312 395.312C412.801 393.829 413.981 392.066 414.786 390.124C415.59 388.183 416.003 386.102 416 384V352H440C442.122 352 444.157 351.157 445.657 349.657C447.157 348.157 448 346.122 448 344V312C448 309.878 447.157 307.843 445.657 306.343C444.157 304.843 442.122 304 440 304ZM384 377.376L361.376 400H280.448C264.064 376.656 242.416 352 224 352C205.584 352 183.936 376.656 167.552 400H86.624L64 377.376L63.984 304H384V377.376Z" fill="url(#paint0_linear_239_777)"/>
<defs>
<linearGradient id="paint0_linear_239_777" x1="224" y1="132" x2="224" y2="432" gradientUnits="userSpaceOnUse">
<stop stop-color="#274470"/>
<stop offset="1" stop-color="#AD0000"/>
</linearGradient>
</defs>
</svg>
