<?xml version="1.0" encoding="utf-8"?>
<!-- Generator: Adobe Illustrator 26.0.3, SVG Export Plug-In . SVG Version: 6.00 Build 0)  -->
<svg version="1.1" id="Слой_1" xmlns="http://www.w3.org/2000/svg" xmlns:xlink="http://www.w3.org/1999/xlink" x="0px" y="0px"
	 viewBox="0 0 123.72 113.99" style="enable-background:new 0 0 123.72 113.99;" xml:space="preserve">
<style type="text/css">
	.st0{fill:#F6D3BD;}
	.st1{fill:#C4A996;}
	.st2{fill:#ED1C24;}
	.st3{fill:#998475;}
	.st4{fill:#BDB7B2;}
	.st5{fill:#E7E3E0;}
	.st6{fill:#4F5260;}
	.st7{fill:#555968;}
	.st8{fill:url(#SVGID_1_);}
	.st9{fill:url(#SVGID_00000000223216175087913800000000403368242401065636_);}
	.st10{fill:url(#SVGID_00000117647494690483371660000004704033466900639387_);}
	.st11{fill:url(#SVGID_00000034087782268388298130000018066200968026897561_);}
	.st12{fill:#63687A;}
	.st13{fill:#AEA89F;}
	.st14{fill:none;stroke:#998475;stroke-width:2;stroke-miterlimit:10;}
	.st15{fill:#FFFFFF;}
	.st16{fill:#1D1D1B;}
	.st17{fill:#E6E6E6;}
	.st18{fill:#333333;}
	.st19{fill:#4D4D4D;}
	.st20{fill:#1A1A1A;}
	.st21{fill:#A8A199;}
	.st22{fill:#E2D6CE;}
	.st23{fill:url(#SVGID_00000143594215033190165550000013623538679715804072_);}
	.st24{fill:url(#SVGID_00000129894463856091228050000012575061617233453707_);}
	.st25{fill:url(#SVGID_00000041285792145366609780000015105316634319238578_);}
	.st26{fill:url(#SVGID_00000168816405346703276850000000525990764098182020_);}
	.st27{fill:#555451;}
	.st28{fill:#578BAA;}
	.st29{fill:#6BABD1;}
	.st30{fill:#A6A6A6;}
	.st31{fill:#F3EFF5;}
	.st32{fill:#D4D1D6;}
	.st33{fill:#848BA3;}
	.st34{fill:#676D80;}
	.st35{fill:#9FA7C4;}
	.st36{fill:#BEBBBF;}
	.st37{fill:url(#SVGID_00000121998696092824179370000016468295361454788536_);}
	.st38{fill:url(#SVGID_00000021808994650218404130000001248666811954100915_);}
	.st39{fill:url(#SVGID_00000047746839106205652050000016185140179875663246_);}
	.st40{fill:url(#SVGID_00000135661991116488692140000004552314965836140212_);}
	.st41{fill:url(#SVGID_00000018228602505265723700000014504825853921328559_);}
	.st42{fill:url(#SVGID_00000072979418925402177640000016173710383683891367_);}
	.st43{fill:url(#SVGID_00000049938704423694235260000000691359904983188357_);}
	.st44{fill:url(#SVGID_00000102539564256029977410000017565962455193504181_);}
	.st45{fill:url(#SVGID_00000117659770476764073310000006012027362378362510_);}
	.st46{fill:url(#SVGID_00000025431456380247423260000006022901474993448594_);}
	.st47{fill:url(#SVGID_00000091005135778919764380000005667995918839130027_);}
	.st48{fill:url(#SVGID_00000173145659851451991390000012533168841583071396_);}
	.st49{fill:url(#SVGID_00000065767132032361568580000008153846494211911579_);}
	.st50{fill:url(#SVGID_00000079460042831547383670000014283977571786899621_);}
</style>
<g>
	<g>
		<path class="st31" d="M102.48,79.85V6.24H91.47c-0.84,1.61-6.58,2.84-13.54,2.84c-6.96,0-12.69-1.24-13.53-2.84H53.38v73.64h0
			c0,0,0,0,0,0c0,3.22,10.99,5.84,24.55,5.84s24.55-2.61,24.55-5.84C102.48,79.87,102.48,79.86,102.48,79.85z"/>
		<path class="st31" d="M77.93,0C64.38,0,53.38,2.62,53.38,5.84c0,0.13,0.02,0.27,0.06,0.4c0.87,3.04,11.5,5.43,24.49,5.43
			c12.99,0,23.62-2.39,24.49-5.43c0.04-0.13,0.06-0.27,0.06-0.4C102.48,2.62,91.49,0,77.93,0z M77.93,9.08
			c-6.96,0-12.69-1.24-13.53-2.84c-0.07-0.13-0.11-0.27-0.11-0.4c0-1.79,6.1-3.24,13.64-3.24s13.65,1.45,13.65,3.24
			c0,0.13-0.03,0.28-0.11,0.4C90.63,7.85,84.89,9.08,77.93,9.08z"/>
		<path class="st32" d="M56.13,8.53v74.04c-0.87-0.4-1.57-0.83-2.03-1.28c-0.47-0.45-0.72-0.92-0.72-1.41V6.24h0.06
			C53.68,7.06,54.62,7.83,56.13,8.53z"/>
		<g>
			<g>
				<g>
					<path class="st32" d="M102.48,6.24v73.64c0,2.45-6.35,4.54-15.34,5.41V11.25c8.5-0.81,14.63-2.73,15.28-5.01H102.48z"/>
				</g>
			</g>
		</g>
		<g>
			<g>
				<g>
					<path class="st32" d="M77.93,0.4c13.23,0,24,2.49,24.52,5.6c0.01-0.06,0.03-0.11,0.03-0.17C102.48,2.62,91.49,0,77.93,0
						C64.38,0,53.38,2.62,53.38,5.84c0,0.06,0.02,0.11,0.03,0.17C53.93,2.89,64.71,0.4,77.93,0.4z"/>
				</g>
			</g>
		</g>
		<g>
			<g>
				<path class="st33" d="M64.29,5.84c0,0.13,0.03,0.28,0.11,0.4c0.84,1.61,6.58,2.84,13.53,2.84c6.96,0,12.7-1.24,13.54-2.84
					c0.07-0.13,0.11-0.27,0.11-0.4c0-1.79-6.11-3.24-13.65-3.24S64.29,4.05,64.29,5.84z"/>
			</g>
		</g>
		<g>
			<path class="st34" d="M69.64,3.26v5.16c-2.82-0.52-4.78-1.29-5.24-2.18c-0.07-0.13-0.11-0.27-0.11-0.4
				C64.29,4.79,66.39,3.85,69.64,3.26z"/>
			<path class="st34" d="M91.58,5.84c0,0.13-0.03,0.28-0.11,0.4c-0.63,1.21-4.05,2.21-8.69,2.64V2.8
				C87.93,3.27,91.58,4.45,91.58,5.84z"/>
		</g>
	</g>
	<g>
		<path class="st31" d="M49.09,79.85V6.24H38.09c-0.84,1.61-6.58,2.84-13.54,2.84c-6.96,0-12.69-1.24-13.53-2.84H0v73.64h0
			c0,0,0,0,0,0c0,3.22,10.99,5.84,24.55,5.84S49.1,83.1,49.1,79.88C49.1,79.87,49.09,79.86,49.09,79.85z"/>
		<path class="st31" d="M24.55,0C10.99,0,0,2.62,0,5.84c0,0.13,0.02,0.27,0.06,0.4c0.87,3.04,11.5,5.43,24.49,5.43
			c12.99,0,23.62-2.39,24.49-5.43c0.04-0.13,0.06-0.27,0.06-0.4C49.09,2.62,38.11,0,24.55,0z M24.55,9.08
			c-6.96,0-12.69-1.24-13.53-2.84c-0.07-0.13-0.11-0.27-0.11-0.4c0-1.79,6.1-3.24,13.64-3.24s13.65,1.45,13.65,3.24
			c0,0.13-0.03,0.28-0.11,0.4C37.25,7.85,31.5,9.08,24.55,9.08z"/>
		<path class="st32" d="M2.75,8.53v74.04c-0.87-0.4-1.57-0.83-2.03-1.28C0.25,80.83,0,80.36,0,79.88V6.24h0.06
			C0.3,7.06,1.24,7.83,2.75,8.53z"/>
		<g>
			<g>
				<g>
					<path class="st32" d="M49.09,6.24v73.64c0,2.45-6.35,4.54-15.34,5.41V11.25c8.5-0.81,14.63-2.73,15.28-5.01H49.09z"/>
				</g>
			</g>
		</g>
		<g>
			<g>
				<g>
					<path class="st32" d="M24.55,0.4c13.23,0,24,2.49,24.52,5.6c0.01-0.06,0.03-0.11,0.03-0.17C49.09,2.62,38.11,0,24.55,0
						C10.99,0,0,2.62,0,5.84C0,5.89,0.02,5.95,0.03,6C0.55,2.89,11.33,0.4,24.55,0.4z"/>
				</g>
			</g>
		</g>
		<g>
			<g>
				<path class="st33" d="M10.9,5.84c0,0.13,0.03,0.28,0.11,0.4c0.84,1.61,6.58,2.84,13.53,2.84c6.96,0,12.7-1.24,13.54-2.84
					c0.07-0.13,0.11-0.27,0.11-0.4c0-1.79-6.11-3.24-13.65-3.24S10.9,4.05,10.9,5.84z"/>
			</g>
		</g>
		<g>
			<path class="st34" d="M16.26,3.26v5.16c-2.82-0.52-4.78-1.29-5.24-2.18c-0.07-0.13-0.11-0.27-0.11-0.4
				C10.9,4.79,13,3.85,16.26,3.26z"/>
			<path class="st34" d="M38.19,5.84c0,0.13-0.03,0.28-0.11,0.4c-0.63,1.21-4.05,2.21-8.69,2.64V2.8
				C34.54,3.27,38.19,4.45,38.19,5.84z"/>
		</g>
	</g>
	<g>
		<path class="st31" d="M60.46,60.25c-2.6,0-5.1,0.42-7.46,1.21l-0.08,0.02c-10.18,3.43-17.56,13.61-17.56,25.64
			c0,14.85,11.24,26.88,25.1,26.88c2.94,0,5.78-0.54,8.4-1.55c0.03-0.01,0.05-0.01,0.07-0.02c0.73-0.28,1.44-0.59,2.13-0.94
			c8.57-4.27,14.5-13.57,14.5-24.36C85.57,72.28,74.32,60.25,60.46,60.25z M65.44,101.52c-1.55,0.61-3.23,0.95-4.98,0.95
			c-7.92,0-14.34-6.87-14.34-15.35c0-6.94,4.31-12.8,10.22-14.7c1.3-0.42,2.69-0.65,4.12-0.65c7.92,0,14.34,6.87,14.34,15.35
			C74.8,93.72,70.9,99.35,65.44,101.52z"/>
		<g>
			<g>
				<path class="st31" d="M68.86,112.45l0.07-0.03C68.91,112.43,68.89,112.44,68.86,112.45L68.86,112.45z"/>
				<path class="st31" d="M123.52,68.31c-1.22-11.15-6.47-16.63-12.94-19.25c-5.99-2.43-12.81-2.47-18.97-0.43L53,61.45
					c2.36-0.78,4.86-1.21,7.46-1.21c13.86,0,25.1,12.03,25.1,26.87c0,10.79-5.94,20.09-14.5,24.36l35.52-15.72
					C106.58,95.76,125.86,89.69,123.52,68.31z"/>
			</g>
		</g>
		<path class="st31" d="M68.86,112.45l0.07-0.03C68.91,112.43,68.89,112.44,68.86,112.45L68.86,112.45z"/>
		<path class="st32" d="M85.57,87.12c0,10.79-5.94,20.09-14.5,24.36l35.52-15.72c0,0,17.72-5.6,17.11-24.9L85.56,86.79
			C85.56,86.9,85.57,87.01,85.57,87.12z"/>
		<path class="st31" d="M68.86,112.45l0.07-0.03C68.91,112.43,68.89,112.44,68.86,112.45L68.86,112.45z"/>
		<path class="st32" d="M91.61,48.63L53,61.45c2.36-0.78,4.86-1.21,7.46-1.21c2.27,0,4.47,0.33,6.57,0.94l39.57-13.36
			C101.67,46.72,96.44,47.03,91.61,48.63z"/>
		<path class="st31" d="M60.46,60.25c-2.6,0-5.1,0.42-7.46,1.21l-0.08,0.02c-10.18,3.43-17.56,13.61-17.56,25.64
			c0,14.85,11.24,26.88,25.1,26.88c2.94,0,5.78-0.54,8.4-1.55c0.03-0.01,0.05-0.01,0.07-0.02c0.73-0.28,1.44-0.59,2.13-0.94
			c8.57-4.27,14.5-13.57,14.5-24.36C85.57,72.28,74.32,60.25,60.46,60.25z M65.44,101.52c-1.55,0.61-3.23,0.95-4.98,0.95
			c-7.92,0-14.34-6.87-14.34-15.35c0-6.94,4.31-12.8,10.22-14.7c1.3-0.42,2.69-0.65,4.12-0.65c7.92,0,14.34,6.87,14.34,15.35
			C74.8,93.72,70.9,99.35,65.44,101.52z"/>
		<g>
			<g>
				<g>
					<path class="st32" d="M72.48,109.94c-0.69,0.35-1.41,0.66-2.13,0.94c-0.03,0.01-0.05,0.02-0.07,0.02
						c-2.62,1-5.45,1.55-8.4,1.55c-13.86,0-25.1-12.03-25.1-26.88c0-6.97,2.48-13.31,6.54-18.08c-4.9,4.9-7.96,11.88-7.96,19.62
						c0,14.85,11.24,26.88,25.1,26.88c2.94,0,5.78-0.54,8.4-1.55c0.03-0.01,0.05-0.01,0.07-0.02c0.73-0.28,1.44-0.59,2.13-0.94
						c3.04-1.52,5.74-3.68,7.97-6.31C77.11,107.11,74.91,108.73,72.48,109.94z"/>
				</g>
			</g>
		</g>
		<path class="st34" d="M65.44,101.52c-1.55,0.61-3.23,0.95-4.98,0.95c-7.92,0-14.34-6.87-14.34-15.35c0-6.94,4.31-12.8,10.22-14.7
			c1.3-0.42,2.69-0.65,4.12-0.65c7.92,0,14.34,6.87,14.34,15.35C74.8,93.72,70.9,99.35,65.44,101.52z"/>
		<path class="st33" d="M67.34,100.36c-7.92,0-14.34-6.87-14.34-15.35c0-5.63,2.84-10.56,7.07-13.22c-1.29,0.04-2.54,0.25-3.73,0.63
			c-5.91,1.9-10.22,7.76-10.22,14.7c0,8.48,6.42,15.35,14.34,15.35c1.75,0,3.43-0.34,4.98-0.95c0.8-0.32,1.56-0.72,2.29-1.18
			C67.6,100.35,67.47,100.36,67.34,100.36z"/>
	</g>
</g>
</svg>
