<?xml version="1.0" encoding="utf-8"?>
<!-- Generator: Adobe Illustrator 26.0.3, SVG Export Plug-In . SVG Version: 6.00 Build 0)  -->
<svg version="1.1" id="Слой_1" xmlns="http://www.w3.org/2000/svg" xmlns:xlink="http://www.w3.org/1999/xlink" x="0px" y="0px"
	 viewBox="0 0 152.35 87.13" style="enable-background:new 0 0 152.35 87.13;" xml:space="preserve">
<style type="text/css">
	.st0{fill:#F6D3BD;}
	.st1{fill:#C4A996;}
	.st2{fill:#ED1C24;}
	.st3{fill:#998475;}
	.st4{fill:#BDB7B2;}
	.st5{fill:#E7E3E0;}
	.st6{fill:#4F5260;}
	.st7{fill:#555968;}
	.st8{fill:url(#SVGID_1_);}
	.st9{fill:url(#SVGID_00000107567595115923470470000007587295907004505782_);}
	.st10{fill:url(#SVGID_00000149369632816717261700000015320200830407386766_);}
	.st11{fill:url(#SVGID_00000091710694144036574380000013345676223495141055_);}
	.st12{fill:#63687A;}
	.st13{fill:#AEA89F;}
	.st14{fill:none;stroke:#998475;stroke-width:2;stroke-miterlimit:10;}
	.st15{fill:#FFFFFF;}
	.st16{fill:#1D1D1B;}
	.st17{fill:#E6E6E6;}
	.st18{fill:#333333;}
	.st19{fill:#4D4D4D;}
	.st20{fill:#1A1A1A;}
	.st21{fill:#A8A199;}
	.st22{fill:#E2D6CE;}
	.st23{fill:url(#SVGID_00000117666516392587210020000001656633747001938342_);}
	.st24{fill:url(#SVGID_00000163788699201859114700000012799266391474981295_);}
	.st25{fill:url(#SVGID_00000015354663553328794910000012348964961143712910_);}
	.st26{fill:url(#SVGID_00000093858340973026890560000014569122168254791611_);}
	.st27{fill:#555451;}
	.st28{fill:#578BAA;}
	.st29{fill:#6BABD1;}
	.st30{fill:#A6A6A6;}
	.st31{fill:#F3EFF5;}
	.st32{fill:#D4D1D6;}
	.st33{fill:#848BA3;}
	.st34{fill:#676D80;}
	.st35{fill:#9FA7C4;}
	.st36{fill:#BEBBBF;}
	.st37{fill:url(#SVGID_00000070815728238007562400000018446471887988701065_);}
	.st38{fill:url(#SVGID_00000167363580591098583540000014166079401494444955_);}
	.st39{fill:url(#SVGID_00000021078313242366196630000015769086513249347234_);}
	.st40{fill:url(#SVGID_00000044859941083100074200000012377840099631906974_);}
	.st41{fill:url(#SVGID_00000093869059393824928960000009977409966032636570_);}
	.st42{fill:url(#SVGID_00000170996331415629288260000015611172268337530001_);}
	.st43{fill:url(#SVGID_00000095322631403122059810000004009609254711328437_);}
	.st44{fill:url(#SVGID_00000163751246828942736580000002606508565775799727_);}
	.st45{fill:url(#SVGID_00000029042065609102535250000013874109880057879997_);}
	.st46{fill:url(#SVGID_00000165949457036433283230000009182929046972827788_);}
	.st47{fill:url(#SVGID_00000048490471392252760310000005657295721849046690_);}
	.st48{fill:url(#SVGID_00000080912160718255015630000000645593884083095219_);}
	.st49{fill:url(#SVGID_00000044144359361261507700000011323861880089235335_);}
	.st50{fill:url(#SVGID_00000072959509222722208030000017141322916336093117_);}
</style>
<g>
	<g>
		<polygon class="st27" points="53.13,68.43 66.88,69.71 67.72,71.02 115.28,74.06 132.02,72.64 139.42,73.04 152.35,42.97 
			151.87,38.42 		"/>
		<g>
			<g>
				<g>
					<polygon class="st27" points="116.8,58.27 116.42,58.35 116.07,58.33 79.41,56.21 78.68,56.17 72.66,55.82 71.41,57.25 
						78.08,57.64 78.81,57.68 115.47,59.79 115.82,59.81 116.2,59.73 145.72,53.48 146.31,52.02 					"/>
					<polygon class="st27" points="151.22,40 150.92,40.73 151.27,39.88 151.27,39.88 					"/>
				</g>
			</g>
			<g>
				<polygon class="st4" points="151.87,38.42 151.22,40 148.44,46.83 146.31,52.02 116.8,58.27 116.42,58.35 116.07,58.33 
					79.41,56.21 78.68,56.17 72.01,55.79 87.46,38.22 89.14,36.32 90.41,34.88 124.08,36.82 124.78,36.86 				"/>
				<polygon class="st27" points="151.22,40 148.44,46.83 121.64,45.28 121.29,45.26 123.84,38.42 124.2,38.44 				"/>
				<polygon class="st5" points="124.78,36.86 116.8,58.27 116.42,58.35 116.07,58.33 124.08,36.82 				"/>
				<polygon class="st5" points="89.14,36.32 79.41,56.21 78.68,56.17 87.46,38.22 				"/>
			</g>
		</g>
		<g>
			<g>
				<polygon class="st4" points="145.55,53.52 139.42,68.08 112.35,66.56 111.66,66.52 74.29,64.41 73.59,64.37 63.04,63.78 
					73.21,57.35 76.24,57.53 76.94,57.57 78.08,57.63 78.81,57.67 113.99,59.7 114.68,59.74 115.47,59.79 115.83,59.81 116.2,59.73 
									"/>
			</g>
			<polygon class="st5" points="114.68,59.74 112.35,66.56 111.66,66.52 113.99,59.7 			"/>
			<polygon class="st5" points="76.94,57.57 74.29,64.41 73.59,64.37 76.24,57.53 			"/>
			<polygon class="st5" points="113.18,66.03 112.49,65.99 75.12,63.89 74.42,63.85 63.87,63.25 63.04,63.78 73.59,64.37 
				74.29,64.41 111.66,66.52 112.35,66.56 139.42,68.08 139.66,67.52 			"/>
		</g>
		<g>
			<g>
				<g>
					<g>
						<polygon class="st13" points="139.42,68.08 138.43,70.46 138.42,70.46 138.19,71.02 111.11,69.5 110.42,69.46 73.05,67.35 
							72.35,67.31 58.53,66.63 59.06,66.29 63.04,63.78 73.49,64.36 73.59,64.37 74.2,64.4 74.29,64.41 111.43,66.5 111.66,66.52 
							112.12,66.55 112.35,66.56 						"/>
					</g>
				</g>
			</g>
			<polygon class="st5" points="113.5,66.55 112.68,68.93 112.49,69.5 111.8,69.46 111.99,68.89 112.81,66.5 113.04,66.52 			"/>
			<polygon class="st5" points="75.12,64.21 74.19,66.6 73.97,67.16 73.27,67.12 73.49,66.57 74.42,64.17 74.51,64.18 			"/>
			<polygon class="st5" points="138.43,70.46 138.19,71.02 111.11,69.5 110.42,69.46 73.05,67.35 72.35,67.31 58.18,66.85 
				58.53,66.63 59.06,66.29 72.56,66.76 73.18,66.78 73.27,66.79 73.89,66.82 110.61,68.89 111.26,68.93 111.3,68.93 111.94,68.97 
				138.42,70.46 			"/>
		</g>
		<polygon class="st4" points="111.11,69.43 110.42,69.39 73.05,67.28 72.35,67.24 68.69,67.12 68.13,69.43 115.17,72.29 
			116.29,69.72 		"/>
		<path class="st5" d="M115.38,72.64l-0.23-0.01l-47.43-2.89l0.71-2.96l4.64,0.17l43.72,2.47L115.38,72.64z M68.55,69.12l46.4,2.82
			l0.84-1.91l-43.46-2.45l-3.38-0.11L68.55,69.12z"/>
	</g>
	<g>
		<g>
			<polygon class="st5" points="104.13,24.35 103.92,24.5 95.78,30.31 95.42,29.93 103.51,24.15 103.71,24 			"/>
			<polygon class="st27" points="0,56.62 3.22,67.34 13.52,78.89 17.32,79.15 26.07,87.13 74.37,56.62 101.11,36.66 108.07,26.83 
				104.78,23.2 104.14,20.51 80.53,0 			"/>
			<polygon class="st5" points="34.34,73.57 34.7,73.96 26.3,79.97 26.19,80.04 25.83,79.65 25.94,79.58 25.94,79.57 			"/>
			<g>
				<g>
					<polygon class="st5" points="105.91,27.29 28.03,82.95 28.4,83.34 106.34,27.64 					"/>
					<g>
						<polygon class="st13" points="105.93,27.28 105.92,27.3 97.53,33.29 96.98,33.68 84.37,42.69 83.82,43.08 52.05,65.79 
							51.87,65.91 51.81,65.96 51.49,66.18 36.99,76.54 36.53,76.88 36.45,76.94 28.04,82.94 28.02,82.96 25.63,80.39 25.27,80 
							25.27,79.99 33.66,73.99 34.03,74.38 34.57,73.99 49.08,63.63 49.63,63.23 81.41,40.52 81.96,40.14 94.56,31.13 95.11,30.74 
							94.74,30.35 102.83,24.56 102.84,24.57 103.25,24.92 						"/>
					</g>
				</g>
			</g>
			<g>
				<polygon class="st5" points="36.99,76.55 36.45,76.94 34.03,74.38 34.57,73.99 36.99,76.54 				"/>
				<polygon class="st5" points="52.05,65.79 51.87,65.91 51.5,66.18 51.49,66.18 49.08,63.63 49.63,63.23 				"/>
				<polygon class="st5" points="84.37,42.69 83.82,43.08 81.41,40.52 81.96,40.14 				"/>
				<polygon class="st5" points="97.53,33.29 96.98,33.68 94.56,31.13 95.11,30.74 				"/>
			</g>
			<g>
				<polygon class="st5" points="103.71,24 25.83,79.65 26.19,80.04 104.14,24.35 				"/>
				<polygon class="st4" points="90.21,12.11 80.72,32.74 80.61,32.98 80.26,33.23 45.24,57.61 44.96,57.81 44.59,57.89 12.9,64.83 
					12.41,65.22 25.82,79.66 103.73,23.99 				"/>
			</g>
			<g>
				<polygon class="st5" points="34.79,73.25 34.24,73.64 23.67,62.47 24.43,62.3 24.43,62.3 				"/>
				<polygon class="st5" points="49.85,62.49 49.3,62.88 44.57,57.89 44.59,57.89 44.96,57.81 45.24,57.61 				"/>
				<polygon class="st5" points="82.17,39.39 81.62,39.78 77.34,35.26 77.89,34.88 				"/>
				<polygon class="st5" points="95.32,29.99 94.77,30.38 86.05,21.17 86.35,20.51 				"/>
			</g>
			<polygon class="st27" points="91.82,10.73 80.53,0 0,56.62 8.95,67.34 10.48,67.07 44.94,59.52 45.65,59.37 81.93,34.1 
				92.42,11.3 91.82,10.73 			"/>
			<g>
				<polygon class="st4" points="90.4,11.69 80.72,32.74 80.61,32.98 80.26,33.23 45.24,57.61 44.96,57.81 44.59,57.89 9.76,65.52 
					1.38,55.65 26.96,37.66 27.5,37.28 60.54,14.05 61.1,13.65 79.13,0.98 				"/>
				<polygon class="st27" points="29.02,39.52 35.39,46.82 9.72,65.56 3.22,57.82 				"/>
				<path class="st27" d="M89.43,10.76c-0.16,0.09-0.26,0.14-0.26,0.14L71.29,23.57l-0.56,0.39l-7.81-7.6l0.56-0.39l18-12.76
					L89.43,10.76z"/>
				<polygon class="st5" points="45.24,57.61 44.96,57.81 44.59,57.89 26.96,37.66 27.5,37.28 				"/>
				<polygon class="st5" points="80.72,32.74 80.61,32.98 80.26,33.23 70.73,23.96 62.93,16.36 60.54,14.05 61.1,13.65 63.48,15.97 
					71.29,23.57 				"/>
			</g>
		</g>
		<polygon class="st4" points="94.31,38.82 94.31,38.82 68.49,57.27 63.56,60.79 55.92,66.25 55.37,66.64 48.47,71.57 47.06,69.75 
			53.77,64.95 54.32,64.56 86.1,41.86 86.64,41.46 92.81,37.06 		"/>
		<path class="st5" d="M48.41,72.03l-1.82-2.35l7.54-5.39l38.74-27.68l1.79,2.09V39l-0.14,0.1L48.41,72.03z M47.54,69.82l1,1.29
			l45.28-32.35l-1.07-1.25L47.54,69.82z"/>
	</g>
</g>
</svg>
