<?xml version="1.0" encoding="iso-8859-1"?>
<!-- Generator: Adobe Illustrator 19.0.0, SVG Export Plug-In . SVG Version: 6.00 Build 0)  -->
<svg version="1.1" id="Layer_1" xmlns="http://www.w3.org/2000/svg" xmlns:xlink="http://www.w3.org/1999/xlink" x="0px" y="0px"
	 viewBox="0 0 512 512" style="enable-background:new 0 0 512 512;" xml:space="preserve">
<polygon style="fill:#00B4D7;" points="35.894,116.615 35.894,8.987 340.839,8.987 340.839,325.891 412.591,254.139 
	472.384,313.932 287.026,499.291 101.667,313.932 161.46,254.139 233.211,325.891 233.211,116.615 "/>
<polygon style="fill:#0093C4;" points="35.894,116.615 35.894,62.801 287.026,62.801 287.026,499.291 101.667,313.932 
	161.46,254.139 233.211,325.891 233.211,116.615 "/>
<rect x="135.564" y="363.238" transform="matrix(-0.7071 -0.7071 0.7071 -0.7071 101.7433 786.5942)" style="fill:#FFFFFF;" width="156.434" height="17.974"/>
<path d="M287.025,512L88.958,313.932l72.503-72.503l62.765,62.765V125.602H26.907V0h322.919v304.194l62.765-62.765l72.502,72.503
	L287.025,512z M114.376,313.932l172.649,172.649l172.649-172.649l-47.083-47.084l-80.739,80.739V17.974H44.881v89.654h197.317
	v239.96l-80.739-80.739L114.376,313.932z"/>
<g>
</g>
<g>
</g>
<g>
</g>
<g>
</g>
<g>
</g>
<g>
</g>
<g>
</g>
<g>
</g>
<g>
</g>
<g>
</g>
<g>
</g>
<g>
</g>
<g>
</g>
<g>
</g>
<g>
</g>
</svg>
