<svg width="2000" height="1040" viewBox="0 0 2000 1040" fill="none" xmlns="http://www.w3.org/2000/svg">
<g clip-path="url(#clip0_102_3034)">
<rect width="2000" height="1040" fill="#9BAFBD"/>
<path d="M1350.2 834.672L1353.97 839.858C1353.96 839.291 1354 838.712 1354.06 838.173C1354.13 837.687 1354.23 837.23 1354.36 836.786C1352.96 836.069 1351.58 835.37 1350.2 834.672ZM1331.81 809.294L1331.8 809.273L1319.94 792.922L1319.93 792.9L1313.63 784.198L1309.47 778.47L1306.54 774.425L1300.1 765.544C1296.76 771.737 1295.72 779.3 1297.02 786.251C1299.03 797.058 1305.94 806.437 1314.31 813.493C1322.7 820.589 1332.56 825.633 1342.32 830.623C1344.95 831.974 1347.57 833.307 1350.19 834.664L1350.18 834.643L1331.81 809.294ZM1472.56 728.302C1465.5 725.534 1458.11 722.558 1450.72 719.603C1447.83 718.445 1444.89 717.277 1441.81 716.762C1441.52 716.713 1441.22 716.671 1440.94 716.643C1440.76 716.622 1440.58 716.615 1440.4 716.594C1440.35 716.584 1440.33 716.568 1440.29 716.577C1439.84 716.529 1439.41 716.496 1438.95 716.493C1438.72 716.486 1438.49 716.493 1438.26 716.486C1437.83 716.474 1437.4 716.49 1436.96 716.537C1436.67 716.547 1436.4 716.562 1436.12 716.594C1435.97 716.61 1435.83 716.625 1435.66 716.647C1435.04 716.735 1434.43 716.83 1433.81 716.95C1433.74 716.945 1433.71 716.954 1433.65 716.971C1433.07 717.103 1432.49 717.26 1431.92 717.434C1431.76 717.477 1431.63 717.535 1431.48 717.596C1431.29 717.647 1431.1 717.722 1430.91 717.795C1430.73 717.867 1430.51 717.948 1430.33 718.02C1430.1 718.104 1429.88 718.209 1429.64 718.306C1429.4 718.417 1429.17 718.511 1428.95 718.616L1428.92 718.601C1428.9 718.606 1428.91 718.628 1428.91 718.628C1428.06 719.001 1427.24 719.449 1426.45 719.958C1426.32 720.038 1426.19 720.106 1426.05 720.213C1425.92 720.292 1425.78 720.388 1425.65 720.488C1425.63 720.494 1425.59 720.505 1425.57 720.535C1425.54 720.541 1425.52 720.546 1425.51 720.573C1425.29 720.71 1425.09 720.879 1424.87 721.039C1424.87 721.039 1424.87 721.039 1424.85 721.045C1424.52 721.304 1424.19 721.562 1423.88 721.805C1422.1 723.294 1420.56 725.049 1419.36 727.029C1419.31 727.11 1419.3 727.171 1419.22 727.237L1419.14 727.235C1399.26 725.196 1380.26 720.533 1362.17 713.603C1340.33 705.825 1318.46 696.613 1296.89 686.74C1290.07 683.631 1283.05 680.239 1277.42 675.449C1275.5 673.827 1273.78 672.016 1272.23 670.02C1271.72 669.384 1271.25 668.702 1270.8 667.993C1282.19 662.019 1294.76 658.526 1307.22 655.107C1327.12 657.859 1349.53 653.66 1369.07 643.684C1378.04 639.77 1388 634.374 1393.56 625.198C1395.06 622.717 1396.19 620.037 1397.08 617.31C1397.63 615.604 1398.09 613.868 1398.43 612.094C1399.79 605.489 1399.69 598.614 1397.59 592.219C1394.92 584.114 1388.86 577.008 1380.86 574.069C1376.27 572.378 1370.73 572.226 1366.84 575.2C1355.29 581.933 1342.06 587.683 1328.05 589.516C1319.34 590.681 1310.49 590.31 1301.69 590.213C1257.41 589.757 1213.04 596.347 1170.82 609.695C1147.47 618.747 1122.16 629.18 1096.85 639.62C1093.66 640.942 1090.25 642.254 1086.83 643.044C1085.53 643.348 1084.2 643.578 1082.89 643.68C1079.61 644.012 1076.44 643.647 1073.48 642.144C1071.04 641.365 1068.64 640.564 1066.23 639.8C989.267 614.963 910.252 592.699 830.63 572.837C784.912 557.702 735.523 533.786 689.156 504.945C645.624 485.03 599.169 465.193 552.033 447.187C504.008 436.763 455.232 424.641 406.531 410.931C382.071 404.071 357.679 396.784 333.347 389.128L333.32 389.113C332.235 388.755 331.116 388.396 330.01 388.044C328.745 387.099 327.517 386.166 326.249 385.21C326.222 385.194 326.222 385.194 326.222 385.194C325.111 384.355 323.989 383.519 322.858 382.651C315.711 377.234 308.53 371.815 301.297 366.375C240.697 320.772 178.333 274.483 115.969 228.239C105.982 220.832 95.9153 213.343 87.6782 204.069C86.511 202.768 85.3749 201.412 84.2706 200.049C73.3354 186.348 66.0851 170.022 57.9832 154.38C26.9249 94.4274 -18.9484 42.3551 -74.0428 3.42775C-94.4992 -11.0186 -116.244 -23.6534 -138.979 -34.2153L7.43504 512.207C35.1808 527.724 65.9639 539.176 97.8046 545.411C99.6034 546.737 101.392 548.065 103.233 549.379C103.519 549.598 103.81 549.793 104.096 550.012C105.624 551.092 107.153 552.171 108.723 553.24C108.856 553.352 109.009 553.459 109.19 553.581C110.047 554.192 110.926 554.798 111.809 555.38C113.057 556.262 114.31 557.12 115.603 557.956C116.581 558.637 117.575 559.291 118.593 559.951C121.968 562.195 125.385 564.383 128.857 566.522L130.899 567.782C132.445 568.755 134.016 569.698 135.587 570.641C137.159 571.584 138.762 572.519 140.333 573.462C141.476 574.122 142.625 574.803 143.768 575.463C144.917 576.144 146.081 576.799 147.24 577.432C149.104 578.49 150.951 579.529 152.817 580.553C155.882 582.278 158.97 583.917 162.071 585.564C163.076 586.091 164.071 586.62 165.073 587.136C166.438 587.861 167.803 588.542 169.21 589.256C170.57 589.96 171.983 590.65 173.366 591.359C176.33 592.873 179.31 594.325 182.296 595.753C183.959 596.569 185.647 597.356 187.331 598.167C189.565 599.205 191.798 600.243 194.015 601.264C194.096 601.31 194.163 601.349 194.254 601.393C195.785 602.097 197.363 602.811 198.914 603.509C201.284 604.591 203.672 605.656 206.066 606.697C229.12 617.048 254.148 627.598 272.571 646.42C278.704 652.678 283.979 659.767 290.568 665.561C299.33 673.274 310.065 678.378 320.582 683.392C330.072 691.785 342.884 695.138 355.39 697.858C368.016 700.602 380.729 702.868 393.496 704.653C419.289 712.668 443.689 727.536 470.904 732.589C476.478 733.619 482.282 734.28 487.227 737.082C517.531 742.967 547.394 749.163 577.194 755.672C605.176 757.053 633.502 759.376 661.79 761.686C704.662 766.75 747.414 772.301 790.065 778.663C832.843 786.73 876.026 796.474 918.952 807.298C954.028 815.724 987.952 834.485 1025.06 840.264C1026.44 841.724 1027.85 843.187 1029.29 844.609C1030.49 845.846 1031.69 847.059 1032.94 848.268L1032.97 848.263C1034.48 849.766 1036.01 851.242 1037.53 852.711C1039.07 854.187 1040.61 855.661 1042.21 857.086C1043.72 858.488 1045.24 859.887 1046.82 861.273C1046.82 861.294 1046.85 861.288 1046.85 861.309C1046.94 861.388 1047.05 861.484 1047.12 861.555C1047.95 862.322 1048.84 863.074 1049.71 863.818L1051.76 865.597C1053.37 866.974 1055.01 868.366 1056.63 869.716C1057.85 870.732 1059.06 871.737 1060.29 872.725C1060.85 873.166 1061.39 873.623 1061.95 874.064C1062.2 874.249 1062.41 874.442 1062.67 874.611C1064.16 875.827 1065.69 877.019 1067.23 878.221L1067.24 878.242C1069.11 879.673 1070.98 881.103 1072.89 882.502C1074.57 883.768 1076.27 885.039 1077.99 886.262C1079.84 887.597 1081.68 888.911 1083.53 890.198C1084.48 890.843 1085.41 891.48 1086.33 892.12C1087.26 892.76 1088.19 893.386 1089.12 893.999C1090.03 894.641 1090.94 895.228 1091.86 895.822C1093.43 896.869 1095 897.903 1096.6 898.896C1098.06 899.822 1099.53 900.759 1101.01 901.659C1102.17 902.382 1103.3 903.08 1104.45 903.761C1104.59 903.894 1104.78 903.968 1104.95 904.069C1106.05 904.741 1107.16 905.409 1108.26 906.081C1108.73 906.352 1109.23 906.64 1109.73 906.927C1111.33 907.885 1112.97 908.833 1114.6 909.759C1141.38 926.842 1168.04 943.821 1194.68 960.795C1197.35 962.26 1200.07 963.909 1202.82 965.559C1204.8 966.767 1206.85 967.992 1208.92 969.177C1209.04 969.247 1209.14 969.309 1209.26 969.358C1209.83 969.705 1210.43 970.033 1211.02 970.354C1212.87 971.369 1214.75 972.355 1216.67 973.226C1221.7 975.517 1226.94 977.216 1231.94 979.617C1233.12 980.186 1234.29 980.795 1235.45 981.449C1235.99 981.725 1236.51 982.031 1237.03 982.344C1239.26 983.612 1241.41 984.969 1243.56 986.347C1245.51 987.587 1247.46 988.873 1249.42 990.086C1251.2 991.199 1253.03 992.29 1254.88 993.305C1259.15 995.652 1263.75 997.647 1268.52 998.656C1272.45 999.557 1276.51 999.731 1280.48 998.939C1288.35 998.365 1295.9 992.943 1300.66 985.826C1301.29 984.883 1301.88 983.906 1302.42 982.898C1305.96 976.425 1307.62 968.99 1308.01 961.597C1307.02 956.612 1303.94 952.208 1300.85 948.001C1298.27 944.496 1295.59 940.986 1292.85 937.582C1291.8 936.25 1290.73 934.955 1289.67 933.67C1288.35 932.036 1287 930.441 1285.63 928.832L1285.39 928.519C1290.55 927.854 1295.69 929.874 1299.98 932.647C1302.14 934.046 1304.19 935.658 1306.24 937.221C1308.25 938.764 1310.26 940.305 1312.45 941.584C1317.58 944.643 1323.41 946.308 1329.16 947.985C1335.82 949.794 1343.51 951.63 1351.05 950.225C1358.56 948.838 1365.09 944.382 1371.15 939.736C1375.1 935.629 1377.13 930.619 1378.03 925.456C1378.13 925.006 1378.2 924.523 1378.26 924.051C1378.94 919.357 1378.74 914.555 1378.27 909.827C1376.86 902.601 1372.49 895.44 1366.3 890.481C1363.6 888.329 1360.63 886.603 1357.67 884.836C1343.33 876.186 1329.69 866.337 1316.93 855.41C1318.07 856.001 1319.25 856.572 1320.44 857.141C1320.7 857.275 1320.97 857.396 1321.26 857.535C1321.33 857.56 1321.38 857.605 1321.45 857.63C1341.24 867.219 1361.98 874.655 1383.29 879.949C1384.15 880.163 1385 880.378 1385.86 880.579L1385.88 880.574C1392.35 882.138 1398.83 883.494 1405.39 884.646C1411.61 884.831 1418.15 885.07 1424.15 882.961C1429.09 881.24 1433.32 877.98 1437.46 874.792C1440.43 871.391 1442.83 867.476 1444.59 863.195C1447.66 855.859 1448.87 847.531 1448 839.408C1447.83 837.738 1447.57 836.057 1446.93 834.467C1446.31 832.916 1445.37 831.51 1444.4 830.109C1437.58 820.113 1430.65 810.079 1422.69 800.981L1422.53 800.753C1422.2 800.364 1421.86 800.01 1421.53 799.611C1421.1 799.112 1420.68 798.645 1420.24 798.149C1420.38 798.192 1420.51 798.224 1420.67 798.261C1421.79 798.552 1422.94 798.812 1424.07 799.054C1424.9 799.253 1425.73 799.407 1426.54 799.564C1427.57 799.789 1428.59 799.982 1429.6 800.175C1430.4 800.303 1431.21 800.439 1431.99 800.559C1432.78 800.7 1433.55 800.833 1434.34 800.919C1434.52 800.95 1434.7 800.993 1434.88 801C1435.21 801.037 1435.53 801.077 1435.86 801.114C1435.94 801.137 1436.04 801.146 1436.12 801.147C1436.68 801.223 1437.27 801.282 1437.85 801.331C1438.76 801.428 1439.68 801.511 1440.6 801.583C1442.65 801.748 1444.72 801.82 1446.78 801.815C1451.2 801.788 1455.69 801.383 1460.04 800.444C1460.47 800.327 1460.9 800.235 1461.34 800.139C1465.27 799.168 1469.07 797.775 1472.59 795.864C1473.03 795.644 1473.49 795.372 1473.9 795.115C1476.92 793.362 1479.74 791.277 1482.55 789.206C1487.25 786.458 1490.67 782.072 1492.83 777.106C1493.88 774.664 1494.62 772.114 1495.06 769.517C1496.36 761.587 1495.13 753.46 1493.11 745.68C1488.89 738.01 1481.38 731.419 1472.56 728.302Z" fill="#FDD5C8"/>
<path d="M355.443 451.573C355.356 462.702 351.573 473.401 347.539 483.758C341.922 498.223 333.799 514.234 318.744 517.995C305.89 521.189 290.602 514.532 279.941 522.39C274.256 526.585 271.709 533.838 266.689 538.775C257.28 548.037 241.484 546.995 229.79 540.898C218.135 534.779 209.136 524.697 198.928 516.383C197.697 515.394 196.474 514.437 195.199 513.494C195.193 513.473 195.193 513.473 195.193 513.473C187.089 507.369 178.348 502.322 169.302 497.709C149.444 487.616 128.182 479.751 109.005 468.383C73.9385 447.564 46.4513 415.279 10.2761 396.473C-2.14072 390.012 -15.5614 385.151 -28.2124 379.174L-47.8672 305.821C-29.402 315.424 -10.7301 325.119 4.62602 339.113C18.1723 351.444 28.9214 366.911 44.0222 377.279C64.0717 390.971 89.4027 394.039 111.791 403.477C128.388 410.478 143.237 420.925 157.949 431.283C174.788 443.175 191.61 455.048 208.465 466.913C222.705 476.954 238.234 487.435 255.665 487.323C268.65 487.208 280.901 481.129 291.288 473.31C297.776 468.377 303.816 462.621 307.956 455.589C315.641 442.481 316.001 426.344 314.035 411.286C312.011 395.8 307.695 380.666 301.318 366.415C308.548 371.844 315.732 377.274 322.879 382.691C324.01 383.559 325.142 384.392 326.243 385.234C326.243 385.234 326.243 385.234 326.27 385.249C333.687 394.982 340.198 405.412 345.62 416.396C351.083 427.368 355.548 439.279 355.443 451.573Z" fill="#E0AFA1"/>
<path d="M1082.9 643.677C1082.75 644.037 1082.59 644.396 1082.44 644.756C1073.68 664.872 1066.54 685.631 1066.1 707.384C1065.86 719.19 1067.24 732.234 1059.98 741.534C1057.7 744.43 1054.76 746.696 1052.14 749.297C1043.8 757.545 1039.06 768.771 1035.98 780.09C1031.79 795.593 1030.33 811.764 1031.72 827.772C1031.72 827.772 1031.71 827.796 1031.73 827.814C1031.84 829.227 1031.98 830.657 1032.16 832.074C1032.79 837.409 1033.68 842.99 1032.97 848.217C1031.71 847.019 1030.5 845.798 1029.31 844.571C1027.89 843.133 1026.46 841.684 1025.07 840.216C987.971 834.423 954.053 815.684 918.973 807.247C876.058 796.42 832.862 786.668 790.1 778.62C747.452 772.268 704.683 766.699 661.825 761.643C633.526 759.335 605.214 757.02 577.211 755.646C547.419 749.123 517.561 742.948 487.255 737.052C482.302 734.264 476.487 733.606 470.924 732.572C443.701 727.533 419.319 712.649 393.526 704.634C380.752 702.862 368.035 700.586 355.423 697.85C342.893 695.125 330.102 691.766 320.612 683.373C310.073 678.364 299.363 673.265 290.59 665.556C284.002 659.762 278.712 652.664 272.58 646.407C254.173 627.603 229.152 617.04 206.088 606.691C203.695 605.65 201.296 604.588 198.915 603.509C197.364 602.811 195.81 602.102 194.266 601.39C194.167 601.36 194.089 601.324 194.019 601.274C191.791 600.257 189.558 599.219 187.332 598.167L160.297 566.34C160.297 566.34 160.311 566.222 160.327 566.025C160.399 565.107 160.642 562.28 161.02 558.177C162.326 544.3 165.298 515.766 169.275 497.728C170.728 491.019 172.334 485.768 174.02 483.236C181.077 485.347 188.178 487.241 195.331 488.951L195.355 488.956C213.814 493.399 232.601 496.527 251.522 498.369C262.247 499.406 273.201 499.983 283.686 497.538C292.839 495.381 301.339 491 309.004 485.581C314.971 481.379 320.555 476.507 324.858 470.591C335.002 456.732 337.276 438.321 334.726 421.339C332.746 407.967 328.072 395.191 322.846 382.689C323.974 383.546 325.099 384.393 326.221 385.229C326.221 385.229 326.221 385.229 326.238 385.247C327.505 386.204 328.744 387.134 329.998 388.082C331.115 388.431 332.234 388.79 333.316 389.137L333.332 389.155C348.331 406.61 363.581 425.043 368.834 447.406C374.303 470.574 367.619 496.283 351.56 513.863C335.481 531.449 310.499 540.417 286.921 537.06C280.633 536.165 271.848 535.961 270.448 542.19C270.004 544.14 270.587 546.143 271.178 548.054C277.246 567.22 287.123 585.16 300.084 600.523C301.214 601.858 302.487 603.256 304.192 603.595C306.488 604.059 308.672 602.497 310.487 600.998C324.637 589.534 338.78 578.082 352.927 566.607C356.017 564.097 359.329 561.481 363.258 560.872C370.277 559.787 376.598 565.346 380.385 571.334C384.196 577.326 386.763 584.278 392.016 589.031C400.306 596.552 413.021 596.533 423.824 593.661C434.619 590.802 444.815 585.581 455.888 584.012C459.613 583.492 463.658 583.442 466.887 585.396C470.539 587.612 472.347 591.857 473.747 595.892C481.283 617.654 483.321 641.298 477.095 659.893C493.562 670.1 515.211 665.493 532.777 657.273C550.335 649.067 566.737 637.477 585.807 633.936C602.017 630.922 618.687 634.038 634.898 637.14C657.598 641.504 680.542 645.929 701.708 655.217C674.656 654.849 647.581 657.023 620.955 661.679C662.509 688.808 721.127 674.534 763.23 700.823C749.781 704.427 735.961 706.561 722.055 707.184C748.941 714.655 775.835 722.159 802.721 729.63C808.828 731.336 815.822 732.918 821.134 729.448C817.922 725.648 820.341 719.362 824.618 716.829C828.902 714.317 834.183 714.47 839.138 714.677C858.52 715.566 877.901 716.454 898.516 717.24C909.719 728.97 907.206 750.731 893.622 759.6C910.834 765.458 929.474 764.726 947.559 766.587C965.646 768.459 984.86 773.94 995.874 788.404C996.806 789.632 997.704 791.074 997.498 792.595C997.054 796.284 991.687 796.278 988.131 795.185C970.219 789.81 952.309 784.401 934.402 779.002C955.137 791.771 977.465 801.919 1000.69 809.167C1004.79 810.443 1009.49 811.56 1013.13 809.333C1022.14 803.828 1015.93 784.542 1026.3 782.661C1022.05 775.114 1017.84 767.581 1013.61 760.053C1011.96 757.13 1010.14 754.036 1007.17 752.525C1004.26 751.043 1000.8 751.343 997.528 751.345C978.808 751.439 960.501 739.838 952.576 722.864C964.534 727.822 977.174 731.085 990.015 732.555C994.245 733.025 1000.19 731.841 1000.06 727.568C999.996 725.641 998.535 724.088 997.09 722.77C990.346 716.608 982.245 711.913 973.527 709.077C974.529 703.693 982.167 703.351 987.463 704.786C999.065 707.952 1010.66 713.041 1022.6 711.716C1034.56 710.399 1046.53 698.963 1042.75 687.539C1039.28 677.01 1024.75 672.242 1023.39 661.248C1030.15 657.222 1037.99 665.123 1045.87 665.502C1053.89 665.854 1060.04 658.296 1062.83 650.794C1063.54 648.898 1064.15 646.952 1064.69 644.977C1065.2 643.259 1065.68 641.517 1066.2 639.809C1068.61 640.572 1071.02 641.371 1073.44 642.153C1076.47 643.628 1079.66 644.001 1082.9 643.677Z" fill="#E0AFA1"/>
<path d="M1212.3 959.143C1211.89 962.868 1211.46 966.586 1211.04 970.29C1210.46 969.969 1209.86 969.641 1209.29 969.294C1209.17 969.245 1209.07 969.183 1208.94 969.113C1206.89 967.925 1204.83 966.713 1202.85 965.495C1200.1 963.834 1197.38 962.196 1194.71 960.731C1168.07 943.757 1141.4 926.781 1114.63 909.694C1113 908.768 1111.36 907.821 1109.76 906.863C1109.26 906.575 1108.76 906.288 1108.29 906.016C1107.19 905.345 1106.08 904.676 1104.98 904.005C1104.8 903.904 1104.61 903.83 1104.48 903.697C1103.33 903.015 1102.2 902.318 1101.04 901.594C1099.55 900.684 1098.09 899.758 1096.62 898.832C1095.04 897.825 1093.46 896.805 1091.89 895.758C1090.97 895.163 1090.06 894.566 1089.15 893.934C1088.21 893.321 1087.28 892.695 1086.36 892.055C1085.43 891.419 1084.51 890.79 1083.56 890.134C1081.71 888.847 1079.86 887.533 1078.02 886.198C1076.3 884.975 1074.6 883.714 1072.92 882.437C1071.01 881.039 1069.14 879.608 1067.26 878.178L1067.26 878.156C1065.72 876.954 1064.18 875.763 1062.7 874.547C1062.45 874.386 1062.23 874.195 1061.98 873.999C1061.42 873.559 1060.88 873.102 1060.32 872.661C1059.09 871.672 1057.87 870.667 1056.66 869.652C1055.03 868.302 1053.4 866.91 1051.79 865.533L1049.73 863.754C1048.86 862.999 1047.99 862.244 1047.15 861.491C1047.07 861.434 1046.96 861.337 1046.88 861.245C1046.87 861.224 1046.85 861.229 1046.85 861.208C1045.28 859.82 1043.75 858.424 1042.24 857.022C1040.64 855.597 1039.08 854.126 1037.56 852.647C1036.04 851.191 1034.5 849.704 1032.99 848.198L1032.97 848.204C1031.72 846.981 1030.51 845.771 1029.32 844.544C1027.89 843.12 1026.47 841.66 1025.09 840.2C987.988 834.407 954.067 815.657 918.98 807.234C876.054 796.409 832.872 786.666 790.093 778.598C747.442 772.236 704.69 766.685 661.818 761.622C633.519 759.314 605.204 756.989 577.222 755.608C547.422 749.099 517.562 742.913 487.256 737.017C482.313 734.227 476.495 733.557 470.933 732.524C443.706 727.474 419.317 712.604 393.524 704.589C380.757 702.804 368.033 700.541 355.418 697.794C342.912 695.074 330.1 691.721 320.61 683.328C310.093 678.313 299.358 673.21 290.596 665.497C284.008 659.703 278.721 652.616 272.599 646.356C254.179 627.545 229.158 616.981 206.094 606.633C203.69 605.594 201.315 604.537 198.942 603.445C197.391 602.746 195.813 602.032 194.283 601.328C194.191 601.285 194.113 601.249 194.043 601.199C191.816 600.182 189.582 599.144 187.359 598.102C185.676 597.292 183.987 596.505 182.324 595.689C179.339 594.261 176.371 592.816 173.394 591.295C172.014 590.596 170.612 589.903 169.239 589.191C167.831 588.477 166.466 587.797 165.101 587.071C164.102 586.566 163.104 586.026 162.099 585.5C158.987 583.856 155.907 582.203 152.845 580.488C150.976 579.454 149.118 578.418 147.268 577.367C146.109 576.734 144.945 576.08 143.796 575.399C142.653 574.739 141.505 574.058 140.361 573.398C138.79 572.455 137.187 571.52 135.616 570.577C134.044 569.634 132.462 568.694 130.928 567.718L128.885 566.458C125.413 564.319 121.996 562.131 118.621 559.887C117.606 559.238 116.609 558.573 115.631 557.891C114.341 557.066 113.075 556.2 111.837 555.316C110.943 554.737 110.075 554.128 109.218 553.516C109.038 553.394 108.884 553.288 108.752 553.175C107.181 552.107 105.652 551.027 104.124 549.948C103.838 549.729 103.547 549.534 103.261 549.315C101.42 548.001 99.6316 546.673 97.8327 545.347C65.9639 539.177 35.1808 527.725 7.43497 512.208L-37.2715 345.361C-22.0198 360.11 -5.82103 373.686 13.3555 382.507C25.6843 388.172 39.0836 391.767 50.5529 399.061C64.5046 407.941 74.7043 421.782 88.2466 431.34C101.425 440.643 117.141 445.458 131.872 452.071C147.701 459.175 162.474 468.403 177.197 477.576C183.246 481.355 189.308 485.142 195.356 488.921L195.383 488.936C208.901 497.387 222.452 505.874 235.992 514.318C239.297 516.388 242.774 518.628 244.482 522.161C246.163 525.678 245.102 530.839 241.398 532.036C238.49 533.019 235.449 531.299 232.802 529.735C221.034 522.726 208.343 517.237 195.204 513.47C195.199 513.449 195.199 513.449 195.199 513.449C193.7 513.032 192.202 512.615 190.693 512.246C197.306 523.138 206.722 532.313 221.874 542.11C217.474 542.152 213.096 542.188 208.7 542.241C208.173 557.035 221.262 568.124 232.34 577.945C247.652 591.519 261.197 607.112 272.553 624.167C277.131 631.069 281.526 638.394 288.278 643.269C294.28 647.64 301.859 649.747 307.395 654.755C312.253 659.182 315.946 666.048 322.484 666.945C325.906 667.415 329.274 666.024 332.591 664.998C342.355 661.939 353.072 661.886 363.468 666.194C391.521 666.737 420.021 667.376 446.847 675.557C452.268 677.208 457.607 679.188 463.19 680.125C471.471 681.544 480.799 680.931 487.255 686.317C489.719 688.386 491.534 691.173 494.019 693.235C506.31 703.424 525.202 690.734 540.583 694.98C546.229 696.536 551.227 700.381 557.05 700.775C563.202 701.162 568.904 697.668 574.953 696.74C588.94 694.55 600.934 705.671 613.054 712.972C636.135 726.863 664.489 727.723 691.391 728.211C701.561 728.408 711.714 728.586 717.534 728.288C768.165 755.35 824.843 771.083 882.191 773.962C891.108 774.403 900.201 774.57 908.674 777.427C913.641 779.12 918.239 781.684 922.867 784.15C955.241 801.371 990.063 813.981 1026.49 820.557C1028.22 822.967 1029.96 825.378 1031.76 827.771C1031.76 827.771 1031.74 827.798 1031.77 827.814C1043.37 843.589 1055.79 858.983 1072.27 869.378C1083.78 876.651 1096.83 881.169 1108.47 888.234C1123.96 897.669 1136.61 911.48 1152.8 919.576C1165.12 925.745 1179.59 928.781 1188.9 938.926C1193.31 943.745 1198.62 950.701 1204.63 948.146C1205.86 951.615 1208.07 954.705 1210.65 957.458C1211.16 958.038 1211.73 958.601 1212.3 959.143Z" fill="#99685A"/>
<path d="M102.43 524.279C117.376 534.665 129.763 548.523 145.223 558.113C154.52 563.875 164.727 567.983 174.876 572.05C155.24 549.972 129.954 532.944 102.43 524.279Z" fill="#BF9184"/>
<path d="M57.985 154.391C66.0868 170.033 73.34 186.369 84.2829 200.056C63.0555 190.921 42.5113 181.068 27.3092 164.043C15.8503 151.187 8.52758 135.313 0.752845 119.958C-20.1042 78.6889 -45.2258 39.6196 -74.041 3.43848C-18.9438 42.3764 26.9324 94.4594 57.985 154.391Z" fill="#E0AFA1"/>
<path d="M211.505 373.258C204.614 381.777 191.02 378.474 181.069 373.876C165.169 366.507 149.937 357.687 135.635 347.582C119.999 336.573 105.36 323.944 88.3117 315.257C76.0529 309.005 62.8058 304.96 49.9566 300.025C22.1182 289.296 -8.43154 280.158 -26.4551 261.342C-36.0228 251.344 -49.6442 246.582 -62.1685 240.696C-63.39 240.125 -64.6094 239.52 -65.8268 238.88L-80.1842 185.297C-77.8181 184.243 -75.2101 183.794 -72.4342 184.141C-68.1105 184.665 -64.2048 186.938 -60.4443 189.136C24.1855 238.974 108.802 288.805 193.432 338.643C199.84 342.405 206.458 346.361 210.706 352.498C214.988 358.592 216.2 367.487 211.505 373.258Z" fill="#FEE4DB"/>
<path d="M397.134 513.485C401.204 502.288 405.317 490.91 406.121 479.02C406.928 467.14 404.009 454.463 395.678 445.941C408.27 450.638 420.859 455.325 433.452 460.022C469.885 473.598 506.319 487.173 542.387 501.677C535.804 509.181 525.327 513.057 515.456 511.644C508.741 510.681 502.532 507.49 495.903 506.084C485.815 503.944 475.355 506.019 465.248 508.091C457.404 509.704 449.558 511.306 441.714 512.919C426.308 516.092 410.402 519.263 397.134 513.485Z" fill="#FEE4DB"/>
<path d="M1086.87 643.035C1085.47 643.762 1084 644.328 1082.44 644.745C1077.06 646.152 1070.8 645.932 1064.73 644.955C1061.65 644.461 1058.64 643.79 1055.8 643.049C940.434 612.724 824.531 582.19 715.191 534.482C669.481 503.26 619.625 478.492 567.94 458.442C551.396 452.019 534.614 446.069 517.31 442.157C479.659 433.625 436.359 433.03 406.539 410.918C455.243 424.639 504.022 436.771 552.044 447.184C599.187 465.177 645.632 485.017 689.167 504.942C735.52 533.776 784.931 557.686 830.638 572.823C910.26 592.685 989.285 614.947 1066.25 639.773C1068.66 640.537 1071.06 641.336 1073.49 642.118C1076.46 643.607 1079.65 643.98 1082.91 643.653C1084.23 643.573 1085.55 643.342 1086.87 643.035Z" fill="#E0AFA1"/>
<path d="M1472.48 768.976C1470.67 776.725 1465.13 783.086 1459.16 788.335C1452.83 793.896 1445.54 798.714 1437.31 800.544C1436.51 800.712 1435.73 800.877 1434.92 800.979C1430.87 801.609 1426.8 801.531 1422.74 800.936C1414.58 799.792 1406.51 796.678 1398.89 793.354C1358.71 775.793 1321.68 751.6 1287.45 724.166C1278.99 717.362 1270.24 709.716 1267.34 699.26C1264.82 690.148 1269.13 678.694 1277.45 675.443C1283.07 680.234 1290.1 683.626 1296.91 686.734C1318.49 696.604 1340.36 705.831 1362.2 713.598C1380.3 720.535 1399.29 725.178 1419.17 727.227L1419.26 727.239C1419.31 727.169 1419.33 727.105 1419.38 727.034C1420.58 725.054 1422.12 723.289 1423.91 721.81C1426.71 719.477 1430.1 717.798 1433.68 716.998C1441.5 721.245 1448.9 726.208 1455.66 732.116C1466.36 741.458 1475.73 755.146 1472.48 768.976Z" fill="#E0AFA1"/>
<path d="M1493.13 745.674C1495.15 753.441 1496.39 761.579 1495.09 769.498C1494.65 772.095 1493.9 774.648 1492.88 777.094C1490.71 782.064 1487.29 786.457 1482.59 789.195C1479.78 791.266 1476.97 793.362 1473.95 795.115C1463.59 795.923 1452.97 793.268 1443.52 788.297C1443.5 788.313 1443.5 788.313 1443.49 788.292C1438.85 785.853 1434.47 782.866 1430.55 779.459C1430.13 779.096 1429.72 778.706 1429.27 778.324C1429.22 778.293 1429.17 778.227 1429.12 778.162C1426.22 775.528 1423.52 772.591 1421.2 769.425C1421.19 769.407 1421.19 769.407 1421.17 769.399C1418.29 765.42 1416.03 761.034 1414.76 756.307C1414.75 756.264 1414.73 756.222 1414.74 756.187C1414.72 756.145 1414.71 756.102 1414.71 756.057C1414.58 755.58 1414.48 755.118 1414.37 754.659C1414.06 753.266 1413.84 751.858 1413.76 750.469C1413.16 742.992 1415.14 735.48 1418.93 728.837C1419.07 728.608 1419.2 728.356 1419.36 728.132C1420.67 725.905 1422.2 723.767 1423.89 721.802C1428.8 717.703 1435.47 715.686 1441.79 716.744C1444.87 717.262 1447.82 718.438 1450.7 719.598C1458.09 722.55 1465.48 725.516 1472.55 728.281C1481.38 731.42 1488.9 738.021 1493.13 745.674Z" fill="#FDD5C8"/>
<path d="M1398.46 612.085C1398.12 613.849 1397.66 615.596 1397.11 617.291C1396.22 620.042 1395.09 622.708 1393.6 625.189C1388.03 634.355 1378.08 639.748 1369.1 643.665C1349.57 653.652 1327.15 657.84 1307.26 655.098C1294.81 658.525 1282.22 662.011 1270.82 667.998C1271.27 668.71 1271.75 669.386 1272.26 670.012C1270.14 669.863 1268.06 669.898 1266.09 670.552C1257.91 673.3 1256.08 685.396 1247.98 688.319C1245.52 683.521 1239.21 681.152 1234.23 683.101C1231.74 679.062 1229.23 675.016 1226.74 670.977C1226.17 670.038 1225.56 668.986 1225.72 667.897C1226.03 665.849 1228.56 665.148 1230.59 664.786C1251.99 661.006 1270.86 645.174 1278.28 624.758C1285.2 633.328 1297.55 635.419 1308.49 634.193C1319.43 632.968 1329.97 629.096 1340.94 628.158C1352.16 627.231 1365.87 628.276 1372.04 618.858C1371.93 621.662 1375.22 623.589 1378.02 623.214C1380.8 622.821 1383.09 620.955 1385.33 619.231C1389.28 616.216 1393.74 613.441 1398.46 612.085Z" fill="#99685A"/>
<path d="M1244.89 679.632C1248.58 696.864 1242.94 715.814 1230.42 728.218C1229.18 729.448 1227.83 730.672 1227.26 732.314C1226.73 733.844 1226.95 735.513 1226.94 737.13C1226.93 741.669 1225.09 746.174 1221.91 749.424C1215.34 756.154 1204.84 756.578 1195.44 756.723C1186.03 756.868 1175.44 757.728 1169.36 764.904C1167.58 767.006 1166.22 769.621 1163.81 770.937C1160.76 772.619 1157.01 771.736 1153.54 771.792C1147.12 771.897 1141.12 775.311 1134.71 775.518C1129.67 775.685 1124.82 773.849 1120.12 772.05C1111.91 768.907 1103.63 765.738 1096.28 760.897C1089.71 756.554 1083.96 750.922 1076.9 747.437C1069.52 743.797 1060.91 742.616 1054.29 737.714C1056.87 733.5 1059.46 729.283 1062.04 725.068C1082.62 735.216 1105.98 739.679 1128.85 737.834C1140.28 736.91 1151.52 734.467 1162.72 732.023C1167.42 731.001 1172.12 729.971 1176.82 728.949C1180.17 728.222 1183.84 727.284 1185.82 724.48C1187.57 722 1187.63 718.505 1189.82 716.406C1191.48 714.812 1193.94 714.462 1196.21 714.125C1205.71 712.706 1215.03 710.107 1223.88 706.381C1227.15 705.004 1230.9 702.603 1230.56 699.079C1230.33 696.707 1228.28 694.984 1227.22 692.858C1225.25 688.882 1227.12 683.87 1230.39 680.88C1233.65 677.89 1238.01 676.44 1242.22 675.072C1244.11 675.884 1244.6 678.254 1244.89 679.632Z" fill="#E0AFA1"/>
<path d="M1385.89 880.539C1385.03 880.348 1384.17 880.123 1383.33 879.916C1362.02 874.623 1341.28 867.176 1321.48 857.59C1321.4 857.564 1321.35 857.533 1321.3 857.499C1319.34 856.446 1317.35 855.342 1315.31 854.194C1314.78 849.131 1313.68 844.14 1312.04 839.338C1312.56 837.62 1313.07 835.936 1313.58 834.22C1318.9 838.091 1325.12 842.141 1331.55 840.771C1332.5 840.552 1333.51 840.234 1334.42 840.605C1335.29 840.939 1335.8 841.815 1336.31 842.601C1338.44 845.905 1341.5 848.735 1345.18 850.146C1346.92 850.807 1348.72 851.176 1350.49 851.692C1353.26 852.485 1355.88 853.679 1358.32 855.175C1362.11 857.548 1365.34 860.671 1368.57 863.773C1369.77 864.941 1370.99 866.092 1372.19 867.271L1372.23 867.318C1376.76 871.719 1381.31 876.115 1385.89 880.539Z" fill="#99685A"/>
<path d="M1492.87 777.097C1490.7 782.066 1487.28 786.46 1482.58 789.197C1479.77 791.269 1476.96 793.364 1473.94 795.117C1473.52 795.377 1473.07 795.632 1472.63 795.853C1469.1 797.777 1465.3 799.17 1461.39 800.128C1461.36 800.056 1461.35 799.955 1461.35 799.854C1458.4 798.223 1455.4 796.572 1452.46 794.847C1452.44 794.829 1452.43 794.842 1452.42 794.824C1444.14 790.028 1436.05 784.773 1429.27 778.324C1429.22 778.293 1429.17 778.227 1429.12 778.161C1426.69 775.845 1424.41 773.385 1422.39 770.71L1422.36 770.663C1421.06 768.953 1419.83 767.144 1418.71 765.261C1417.06 762.431 1415.65 759.341 1414.75 756.195C1414.74 756.152 1414.73 756.11 1414.73 756.065C1414.6 755.587 1414.5 755.125 1414.39 754.667C1414.07 753.274 1413.85 751.866 1413.77 750.477C1413.62 748.119 1413.82 745.78 1414.45 743.476C1415.36 740.06 1417.9 741.165 1418.73 745.055C1420.07 751.303 1424.26 757.353 1430.41 758.989C1433.65 759.872 1437.28 759.502 1440.18 761.203C1445.85 764.504 1447.23 774.559 1453.8 774.355C1455.3 774.317 1456.79 773.645 1458.27 773.862C1460.82 774.237 1462.2 776.867 1463.97 778.723C1469.16 784.051 1478.08 782.582 1484.85 779.506C1487.38 778.34 1490.19 777.006 1492.87 777.097Z" fill="#99685A"/>
<path d="M1467.51 739.885C1469.28 744.549 1468.55 749.883 1466.53 754.45C1465.75 756.17 1464.82 757.795 1463.76 759.363C1462.04 761.949 1460 764.338 1457.96 766.671C1457.05 767.709 1456.03 768.789 1454.71 769.074C1453.69 769.291 1452.63 769.008 1451.61 768.679C1446.92 767.195 1442.47 764.99 1438.23 761.977C1442.17 759.055 1445.73 755.418 1448.27 751.236C1449.73 748.844 1450.87 746.254 1451.57 743.531C1453.5 736.025 1451.78 727.379 1446.2 722.031C1453.62 727.806 1464.12 731.076 1467.51 739.885Z" fill="#E0AFA1"/>
<path d="M1378.31 909.795C1378.78 914.522 1378.96 919.316 1378.29 924C1378.23 924.48 1378.17 924.952 1378.08 925.42C1377.17 930.573 1375.14 935.586 1371.18 939.693C1365.14 944.346 1358.59 948.806 1351.09 950.181C1343.55 951.587 1335.84 949.743 1329.18 947.934C1323.45 946.275 1317.61 944.589 1312.47 941.533C1310.28 940.243 1308.27 938.713 1306.27 937.181C1301.78 923.641 1290.28 912.738 1278.37 904.255C1269.08 897.617 1259.13 891.802 1250.63 884.167C1242.09 876.531 1234.91 866.725 1233.17 855.437C1231.73 846.08 1234.79 835.745 1241.69 829.599C1243.13 828.28 1244.73 827.169 1246.52 826.281C1253.36 822.914 1261.59 823.3 1268.84 825.711C1276.1 828.098 1282.58 832.341 1288.98 836.503C1299.46 843.356 1309.95 850.219 1320.44 857.082C1319.26 856.524 1318.11 855.947 1316.95 855.359C1329.68 866.281 1343.34 876.128 1357.68 884.777C1360.63 886.544 1363.62 888.278 1366.31 890.433C1372.51 895.411 1376.88 902.561 1378.31 909.795Z" fill="#E0AFA1"/>
<path d="M1463.75 759.355C1462.03 761.941 1459.99 764.33 1457.94 766.663C1457.04 767.701 1456.02 768.781 1454.7 769.067C1453.68 769.284 1452.61 769.001 1451.59 768.672C1446.91 767.187 1442.45 764.982 1438.21 761.969C1442.16 759.047 1445.72 755.411 1448.26 751.229C1452.88 754.835 1458.15 757.593 1463.75 759.355Z" fill="#99685A"/>
<path d="M1452.45 794.85C1454.98 796.717 1457.52 798.571 1460.06 800.438C1455.72 801.385 1451.23 801.793 1446.8 801.809C1438.01 801.821 1429.3 800.348 1420.68 798.245C1420.55 798.202 1420.41 798.183 1420.26 798.143C1420.7 798.629 1421.13 799.103 1421.56 799.602C1421.89 799.991 1422.21 800.348 1422.55 800.736C1410.46 795.029 1398.3 788.591 1387.44 777.643C1395.43 779.674 1403.43 781.702 1411.44 783.717C1413.03 784.119 1414.87 784.49 1416.26 783.585C1417.56 782.748 1418.02 781.079 1418.31 779.569C1419.06 775.524 1419.42 771.437 1419.35 767.331C1419.93 768.027 1420.55 768.736 1421.17 769.399C1421.19 769.418 1421.19 769.418 1421.2 769.425C1421.59 769.845 1421.99 770.262 1422.35 770.663L1422.39 770.71C1428.7 777.319 1436.07 782.868 1443.48 788.294C1443.5 788.313 1443.5 788.313 1443.51 788.299C1444.03 788.682 1444.54 789.057 1445.05 789.453C1447.51 791.25 1449.95 793.041 1452.41 794.838C1452.42 794.845 1452.43 794.832 1452.45 794.85Z" fill="#99685A"/>
<path d="M1420.69 798.245C1421 798.695 1421.3 799.138 1421.56 799.592C1424.61 804.446 1426.37 809.909 1426.02 815.687C1425.96 816.748 1425.83 817.773 1425.64 818.777C1424.11 827.089 1418.53 834.108 1412.2 840.317C1410.15 842.357 1407.98 844.301 1405.87 846.198C1402.73 848.981 1399.5 851.837 1395.55 853.27C1391.61 854.689 1386.73 854.372 1387.6 853.809C1376.53 848.135 1365.43 842.46 1354.36 836.786C1350.34 834.736 1346.35 832.691 1342.33 830.631C1332.58 825.638 1322.71 820.586 1314.34 813.498C1305.94 806.427 1299.05 797.053 1297.03 786.259C1295.72 779.29 1296.78 771.731 1300.1 765.544C1301.91 762.16 1304.41 759.183 1307.58 756.946C1316.8 750.441 1329.46 751.197 1340.06 755.052C1350.67 758.916 1360.06 765.473 1370.32 770.18C1382.02 775.561 1394.81 778.52 1405.97 784.978C1411.66 788.273 1416.94 792.848 1420.69 798.245Z" fill="url(#paint0_linear_102_3034)"/>
<path d="M1422.83 847.564C1422.81 849.059 1422.08 850.459 1421.37 851.773C1418.07 857.888 1413.9 864.678 1407.04 865.902C1402.39 866.726 1397.75 864.673 1393.7 862.235C1385.57 857.298 1378.6 850.559 1370.24 846.046C1365.1 843.251 1359.61 841.37 1353.96 839.848C1353.95 839.283 1353.99 838.705 1354.05 838.152C1354.12 837.68 1354.21 837.212 1354.34 836.768C1350.33 834.718 1346.33 832.673 1342.31 830.612C1332.56 825.62 1322.7 820.568 1314.32 813.48C1305.92 806.409 1299.03 797.034 1297.01 786.241C1295.7 779.271 1296.76 771.713 1300.08 765.526C1301.72 779.434 1305.11 793.917 1316.44 801.589C1320.89 804.625 1326.15 806.217 1330.9 808.753C1336.41 811.686 1341.21 815.947 1344.82 821.04C1346.89 823.964 1348.63 827.273 1351.6 829.25C1354.17 830.959 1357.3 831.484 1360.32 831.971C1362.21 832.273 1364.08 832.566 1365.95 832.883C1365.98 832.888 1365.98 832.888 1366.01 832.89C1381.41 835.335 1396.81 837.814 1412.18 840.288C1412.42 840.327 1412.69 840.367 1412.93 840.417C1417.34 841.144 1422.88 843.115 1422.83 847.564Z" fill="#99685A"/>
<path d="M1311.68 789.257C1318.69 792.53 1325.84 795.467 1333.12 798.075C1335.07 798.769 1337.17 799.445 1339.16 798.865C1340.75 798.394 1342.01 797.182 1343.16 795.975C1346.64 792.326 1349.89 788.294 1351.57 783.536C1353.25 778.777 1353.16 773.175 1350.31 769.017C1348.73 766.724 1346.45 765.025 1344.18 763.441C1338.54 759.496 1332.64 755.903 1326.54 752.695C1324.37 755.222 1324.65 758.954 1323.9 762.214C1323.19 765.257 1321.52 767.978 1320 770.715C1316.54 776.939 1313.76 783.551 1311.68 789.257Z" fill="url(#paint1_linear_102_3034)"/>
<path d="M1443.67 863.703C1444 863.524 1444.3 863.351 1444.62 863.176C1442.84 867.438 1440.46 871.361 1437.49 874.77C1433.33 877.953 1429.11 881.199 1424.18 882.931C1418.17 885.051 1411.64 884.791 1405.42 884.616C1398.87 883.461 1392.39 882.105 1385.92 880.541L1385.9 880.536C1385.04 880.345 1384.18 880.12 1383.34 879.913C1381.17 877.734 1379.15 875.376 1377.15 873.047C1375.5 871.125 1373.86 869.211 1372.22 867.307L1372.19 867.26C1368.78 863.285 1365.37 859.31 1361.97 855.334C1358.11 850.831 1354.02 845.618 1353.99 839.852C1353.97 839.288 1354.01 838.709 1354.08 838.157C1354.14 837.684 1354.24 837.217 1354.37 836.772C1354.62 836.022 1354.98 835.334 1355.59 834.831C1356.38 834.142 1357.44 833.857 1358.47 833.662C1360.96 833.164 1363.46 832.949 1365.98 832.899C1366 832.904 1366 832.904 1366.04 832.906C1372.76 832.753 1379.61 833.918 1386.37 834.495C1395.68 835.286 1405.82 834.751 1413.17 829.018C1417.44 825.691 1420.75 820.668 1425.65 818.774C1426.18 818.587 1426.71 818.41 1427.28 818.305C1426.2 825.573 1425.13 832.817 1424.05 840.085C1423.38 844.63 1422.71 849.254 1423.52 853.79C1424.31 858.307 1426.85 862.777 1431.01 864.72C1434.98 866.555 1439.78 865.769 1443.67 863.703Z" fill="#99685A"/>
<path d="M1257.75 874.814C1263.14 881.906 1272.82 885.427 1281.51 883.475C1282.75 883.198 1284.08 882.819 1285.27 883.287C1286.84 883.91 1287.49 885.737 1288.17 887.284C1291.89 895.79 1300.91 900.512 1309.39 904.298C1317.06 907.712 1325.63 910.95 1333.64 908.453C1338.16 907.037 1343.18 903.905 1347.15 906.502C1350.78 908.884 1350.26 914.832 1347.12 917.823C1343.98 920.813 1339.32 921.526 1334.98 921.655C1309.74 922.404 1286.38 908.792 1266.14 893.687C1259.14 888.467 1252.24 882.918 1247.03 875.899C1241.83 868.881 1238.46 860.156 1239.39 851.473C1242.41 854.722 1246.41 857.036 1250.74 858.026C1252.37 858.406 1254.19 858.668 1255.29 859.931C1256.46 861.257 1256.41 863.202 1256.55 864.96C1257 870.33 1259.86 875.452 1257.75 874.814Z" fill="#E0AFA1"/>
<path d="M1378.29 924.01C1378.24 924.491 1378.17 924.963 1378.08 925.431C1377.17 930.584 1375.14 935.596 1371.18 939.703C1365.14 944.357 1358.6 948.817 1351.09 950.192C1343.55 951.597 1335.84 949.754 1329.18 947.945C1323.45 946.286 1317.61 944.6 1312.47 941.543C1310.29 940.254 1308.27 938.724 1306.27 937.192C1301.78 923.651 1290.29 912.749 1278.37 904.266C1269.08 897.628 1259.13 891.813 1250.63 884.178C1242.09 876.542 1234.91 866.736 1233.17 855.448C1231.73 846.091 1234.79 835.756 1241.69 829.609C1235.48 840.879 1238.36 855.533 1245.6 866.247C1252.95 877.124 1264.02 884.832 1274.82 892.281C1279.12 895.256 1283.41 898.209 1287.69 901.166C1296.52 907.258 1305.57 913.45 1315.92 916.201C1326.29 918.959 1338.39 917.626 1346.06 910.138C1353.11 903.27 1355.04 891.691 1350.6 882.901C1357.08 890.599 1359.1 901.834 1355.7 911.318C1354.61 914.362 1352.96 917.53 1353.72 920.671C1354.12 922.369 1355.19 923.834 1356.3 925.174C1359.29 928.829 1363.17 932.325 1367.87 932.634C1372.6 932.946 1377.62 928.35 1376.06 923.88C1376.82 923.801 1377.56 923.852 1378.29 924.01Z" fill="#99685A"/>
<path d="M1251.45 864.723C1256.67 868.477 1262.11 871.906 1267.76 874.973C1269.49 875.908 1271.31 876.831 1273.27 876.896C1276.89 877.016 1279.89 874.257 1282.44 871.687C1285.69 868.417 1289.07 864.932 1290.3 860.488C1291.93 854.582 1289.29 848.162 1285.11 843.691C1280.92 839.22 1275.36 836.323 1269.92 833.505C1268.2 840.286 1264.57 846.41 1260.98 852.407C1258.28 856.903 1255.61 861.393 1251.45 864.723Z" fill="#FDD5C8"/>
<path d="M1242.76 975.296C1244.5 980.399 1246.74 985.348 1249.46 990.03C1243.68 986.43 1238.08 982.494 1231.98 979.55C1226.98 977.16 1221.73 975.453 1216.71 973.159C1214.79 972.288 1212.91 971.302 1211.05 970.3C1210.45 969.972 1209.87 969.638 1209.28 969.297C1208.72 967.037 1208.39 964.704 1208.11 962.447C1207.87 960.557 1207.64 958.662 1207.53 956.874C1213.04 958.798 1219.78 955.797 1222.04 950.405C1223.91 961.569 1232.13 971.437 1242.76 975.296Z" fill="#99685A"/>
<path d="M1289.69 933.619C1290.75 934.903 1291.81 936.212 1292.85 937.537C1295.59 940.951 1298.26 944.44 1300.87 947.96C1303.96 952.167 1307.04 956.561 1308.02 961.549C1307.64 968.939 1305.98 976.384 1302.43 982.86C1301.9 983.855 1301.31 984.832 1300.67 985.788C1295.92 992.891 1288.38 998.335 1280.49 998.891C1276.52 999.682 1272.47 999.505 1268.53 998.618C1263.77 997.595 1259.16 995.614 1254.89 993.257C1253.04 992.252 1251.23 991.158 1249.44 990.046C1247.46 988.824 1245.53 987.546 1243.57 986.309C1238.56 979.207 1235.64 970.36 1237.29 961.95C1237.32 961.577 1237.41 961.224 1237.49 960.874C1233.97 957.222 1230.58 953.391 1227.39 949.449C1222.82 943.807 1218.59 937.859 1214.78 931.696C1213.36 929.405 1211.97 927.061 1210.81 924.63C1209.85 922.694 1209.06 920.677 1208.46 918.575C1207.64 915.569 1207.33 912.409 1207.51 909.293C1207.91 902.627 1210.59 896.123 1215.37 891.488C1222.39 884.674 1233.84 882.596 1242.47 887.16C1246.4 889.232 1249.59 892.415 1252.71 895.58C1263.69 906.643 1274.66 917.731 1285.63 928.783C1287.02 930.38 1288.36 931.987 1289.69 933.619Z" fill="#E0AFA1"/>
<path d="M1222.54 920.227C1226.71 925.202 1231.22 929.883 1236.02 934.245C1237.47 935.563 1239.02 936.887 1240.91 937.404C1242.18 937.755 1243.52 937.704 1244.83 937.535C1250.7 936.747 1256.15 933.296 1259.38 928.338C1261.65 924.843 1262.81 920.394 1261.47 916.445C1260.56 913.778 1258.63 911.614 1256.75 909.525C1253.55 905.972 1250.35 902.42 1247.14 898.867C1245.51 902.954 1240.98 904.94 1237.9 908.084C1236.54 909.484 1235.45 911.116 1234.14 912.572C1232.02 914.9 1229.37 916.679 1226.75 918.417C1225.66 919.128 1224.58 919.849 1222.54 920.227Z" fill="#FDD5C8"/>
<path d="M1291.49 934.673C1292 935.594 1292.46 936.55 1292.86 937.534C1296.29 945.856 1295.93 955.786 1291.57 963.706C1290.72 965.276 1289.72 966.782 1289.32 968.514C1288.34 972.825 1291.51 977.092 1295.25 979.442C1297.51 980.85 1300.01 981.818 1302.44 982.847C1301.91 983.842 1301.32 984.818 1300.68 985.775C1295.93 992.878 1288.39 998.322 1280.5 998.878C1276.53 999.669 1272.48 999.492 1268.54 998.605C1266.21 996.465 1264.1 993.997 1262.1 991.599C1257.5 986.112 1252.87 980.613 1248.27 975.126C1244.6 970.745 1240.91 966.367 1237.29 961.937C1237.33 961.564 1237.42 961.211 1237.49 960.861C1233.98 957.209 1230.59 953.378 1227.4 949.436C1222.55 943.051 1217.93 936.491 1213.7 929.656C1212.7 928.034 1211.72 926.354 1210.81 924.609C1209.85 922.673 1209.06 920.656 1208.46 918.554C1207.63 915.548 1207.33 912.389 1207.51 909.272C1213.96 922.513 1220.84 935.664 1230.78 946.495C1241.66 958.359 1256.81 967.258 1272.88 966.988C1275.58 966.945 1278.42 966.594 1280.51 964.907C1282.17 963.542 1283.16 961.528 1283.98 959.546C1287.41 951.351 1289.36 942.483 1289.67 933.614C1289.68 933.371 1289.7 933.129 1289.7 932.878L1291.49 934.673Z" fill="#99685A"/>
<path d="M1058.58 801.476C1058.21 815.444 1059.61 819.922 1065.03 827.326C1070.44 834.73 1077.89 840.353 1085.29 845.747C1115.69 867.897 1147.46 888.167 1180.36 906.383C1181.59 907.066 1182.86 907.758 1184.26 907.953C1188.85 908.598 1192.53 903.27 1191.91 898.662C1191.29 894.054 1187.84 890.386 1184.31 887.363C1157.19 864.064 1116.12 859.129 1094 831.034C1083.83 818.138 1078.73 801.43 1066.73 790.232C1065.64 789.217 1064.29 788.19 1062.82 788.415C1060.63 788.753 1059.84 791.488 1059.75 793.705C1059.51 799.124 1058.68 797.788 1058.58 801.476Z" fill="#FEE4DB"/>
<path d="M1132.26 713.901C1137.05 715.267 1142.55 716.373 1146.74 713.661C1154.04 708.93 1151.41 697.313 1155.98 689.914C1164.33 676.446 1188.74 685.456 1198.77 673.197C1203.36 667.591 1203.14 659.34 1207.03 653.215C1210.4 647.914 1216.33 644.938 1221.99 642.206C1237.91 634.507 1253.83 626.818 1269.75 619.119C1271.28 618.38 1272.92 617.532 1273.67 616.012C1275.84 611.588 1269.07 608.242 1264.15 608.354C1226.43 609.186 1198.65 643.24 1163.88 657.878C1154.26 661.923 1143.67 664.714 1136.15 671.947C1132.86 675.113 1130.24 679.078 1126.3 681.374C1121.37 684.251 1115.32 684.019 1109.65 684.562C1103.96 685.108 1097.64 687.073 1095.22 692.236C1092.78 697.402 1120.44 710.52 1132.26 713.901Z" fill="#FEE4DB"/>
<path d="M1305.33 613.452C1321.85 613.414 1338.36 611.354 1354.39 607.343C1362.86 605.221 1371.51 602.38 1377.85 596.374C1379.01 595.278 1380.13 593.965 1380.33 592.377C1380.85 588.306 1375.4 586.23 1371.33 586.73C1364.92 587.527 1359.2 590.958 1353.22 593.435C1335.85 600.636 1316.31 599.665 1297.78 602.936C1295.36 603.357 1292.81 603.928 1291.02 605.623C1289.24 607.317 1288.63 610.492 1290.43 612.182C1291.49 613.192 1293.06 613.408 1294.53 613.538C1299.97 613.99 1305.45 613.828 1305.33 613.452Z" fill="#FEE4DB"/>
<path d="M1345.12 803.203C1349.65 799.92 1354.29 796.528 1357.35 791.845C1360.4 787.162 1361.58 780.821 1358.8 775.962C1356.51 784.907 1353.64 794.68 1345.88 799.679C1343.97 800.907 1341.56 802.203 1341.45 804.471C1344.01 803.967 1346.44 802.962 1345.12 803.203Z" fill="#FEE4DB"/>
<path d="M1311.24 777.041C1314.01 772.707 1316.33 768.073 1318.11 763.241C1319.03 760.767 1319.41 757.255 1317 756.196C1311.44 760.04 1308.98 766.926 1306.87 773.346C1306.36 774.905 1305.89 776.724 1306.83 778.064C1307.76 779.407 1310.24 778.606 1311.24 777.041Z" fill="#FDD5C8"/>
<path d="M1256.41 848.425C1259.49 844.133 1261.22 838.872 1261.29 833.59C1261.31 832.436 1261.21 831.178 1260.45 830.301C1258.89 828.481 1255.93 829.525 1253.88 830.79C1250.84 832.66 1247.84 834.807 1245.94 837.827C1244.05 840.847 1243.45 844.916 1245.32 847.964C1247.93 852.243 1254.05 851.717 1256.41 848.425Z" fill="#FDD5C8"/>
<path d="M1222.33 908.666C1224.4 906.734 1227.14 905.727 1229.72 904.581C1232.31 903.432 1234.95 901.976 1236.38 899.533C1237.82 897.09 1237.54 893.438 1235.1 891.988C1232.18 890.257 1228.58 892.518 1225.97 894.674C1223.8 896.461 1221.64 898.244 1219.47 900.031C1218.35 900.955 1217.18 901.939 1216.72 903.313C1215.71 906.345 1220.4 910.467 1222.33 908.666Z" fill="#FDD5C8"/>
<path d="M165.129 322.446C233.202 223.859 324.761 141.612 430.047 84.4582C459.87 68.2711 487.994 63.816 522.715 53.5234C471.146 39.2063 399.859 91.2625 345.145 125.453C328.354 136.352 311.563 147.251 294.774 158.161C293.992 152.062 284.063 155.097 281.123 160.5C278.183 165.903 274.816 173.49 268.782 172.31C269.676 167.035 268.167 161.403 264.758 157.292C220.555 204.364 185.819 260.336 165.129 322.446Z" fill="#AD0000"/>
<path d="M292.27 205.281C299.53 207.303 306.963 208.653 314.472 209.313C316.451 209.487 318.528 209.601 320.341 208.774C322.154 207.948 323.558 205.889 322.972 204C322.603 202.791 321.545 201.938 320.479 201.269C317.116 199.157 313.036 198.227 309.091 198.648C302.883 199.322 297.423 203.172 292.27 205.281Z" fill="#AD0000"/>
<path d="M551.004 62.7907C557.687 65.9677 565.242 67.3082 572.61 66.5956C574.916 66.3757 577.492 65.7651 578.662 63.7691C580.427 60.7269 577.548 56.8946 574.287 55.5858C568.237 53.1599 561.474 55.495 555.116 56.9258C546.917 58.7817 539.096 57.126 551.004 62.7907Z" fill="#AD0000"/>
<path d="M444.389 97.5532C459.341 102.232 475.613 106.238 492.89 109.498C500.949 111.022 509.559 112.398 518.91 112.166C528.26 111.934 538.549 109.689 542.461 106.003C548.231 100.558 537.192 95.0811 524.07 94.0048C510.947 92.9284 496.704 94.7554 482.892 95.7735C461.071 97.4031 440.083 96.206 444.389 97.5532Z" fill="#AD0000"/>
<path d="M294.492 131.693C300.744 124.653 308.733 119.295 314.831 112.102C320.921 104.923 325.002 94.7807 321.43 86.0752C320.975 84.9695 320.373 83.8689 319.392 83.1769C317.513 81.8501 314.886 82.4404 312.853 83.508C304.008 88.1288 301.145 99.2518 299.735 109.133C298.311 119.007 296.885 130.018 294.492 131.693Z" fill="#AD0000"/>
<path d="M232.781 354.143C214.708 346.049 196.022 338.802 177.23 332.606L176.671 332.426C172.744 331.136 168.692 329.801 164.735 327.633C160.923 325.539 157.583 322.876 154.643 320.515L113.666 269.45L163.531 309.437C166.255 311.629 168.831 313.689 171.549 315.178C174.372 316.718 177.639 317.798 181.116 318.935L181.678 319.125C200.92 325.474 232.781 354.143 232.781 354.143Z" fill="#AD0000"/>
</g>
<defs>
<linearGradient id="paint0_linear_102_3034" x1="1347.57" y1="826.364" x2="1371.74" y2="773.618" gradientUnits="userSpaceOnUse">
<stop stop-color="#E0AFA1"/>
<stop offset="1" stop-color="#FDD5C8"/>
</linearGradient>
<linearGradient id="paint1_linear_102_3034" x1="1327.1" y1="794.816" x2="1341.46" y2="762.29" gradientUnits="userSpaceOnUse">
<stop stop-color="#FDD5C8"/>
<stop offset="0.4832" stop-color="#FBD3C6"/>
<stop offset="0.7027" stop-color="#F6CCBF"/>
<stop offset="0.8685" stop-color="#EDBFB2"/>
<stop offset="1" stop-color="#E0AFA1"/>
</linearGradient>
<clipPath id="clip0_102_3034">
<rect width="2000" height="1040" fill="white"/>
</clipPath>
</defs>
</svg>
