<?xml version="1.0" encoding="utf-8"?>
<!-- Generator: Adobe Illustrator 27.0.0, SVG Export Plug-In . SVG Version: 6.00 Build 0)  -->
<svg version="1.1" id="Слой_1" xmlns="http://www.w3.org/2000/svg" xmlns:xlink="http://www.w3.org/1999/xlink" x="0px" y="0px"
	 viewBox="0 0 1890 1292.19" style="enable-background:new 0 0 1890 1292.19;" xml:space="preserve">
<style type="text/css">
	.st0{fill:#9BAFBD;}
	.st1{fill:#728694;}
	.st2{fill:#FDD5C8;}
	.st3{fill:#FEE4DB;}
	.st4{fill:#E0AFA1;}
	.st5{fill:#99685A;}
	.st6{fill:#AECCD1;}
	.st7{fill:#7A9CA1;}
	.st8{fill:#495B5E;}
	.st9{fill:url(#SVGID_1_);}
	.st10{fill:#E09F89;}
	.st11{fill:url(#SVGID_00000091732103858728220690000005013789407357726647_);}
	.st12{fill:#F6DCDD;}
	.st13{fill:#E39D9D;}
	.st14{fill:#FDACAE;}
	.st15{fill:#E2A094;}
	.st16{fill:#FEBEBE;}
	.st17{fill:#F16E2B;}
	.st18{fill:#DF523C;}
	.st19{fill:#E78B7C;}
	.st20{fill:url(#SVGID_00000134226030474943923010000014348084513658405790_);}
	.st21{fill:#E7DBE0;}
	.st22{fill:url(#SVGID_00000137850541233249034620000001072640802901491375_);}
	.st23{fill:url(#SVGID_00000071543185040225053610000007830032604825298305_);}
	.st24{fill:#E75742;}
	.st25{fill:#EEA755;}
	.st26{fill:#EEB3B2;}
	.st27{fill:#FA9DA5;}
	.st28{fill:#FABEB5;}
	.st29{fill:#F25026;}
	.st30{fill:url(#SVGID_00000085947729317340928460000015298833801257842095_);}
	.st31{fill:url(#SVGID_00000101801513685961974330000001730502898065792907_);}
	.st32{fill:url(#SVGID_00000016048945130967641670000011812617550086610561_);}
	.st33{fill:url(#SVGID_00000181077986026884162410000009454460898288474045_);}
	.st34{fill:url(#SVGID_00000036939013984633152120000011985177065778180269_);}
	.st35{fill:url(#SVGID_00000018219927087017533490000008060211557627692966_);}
	.st36{fill:url(#SVGID_00000114774978085096660950000006428161246893006502_);}
	.st37{fill:url(#SVGID_00000127744305459332913300000018437417135522393497_);}
	.st38{fill:url(#SVGID_00000052104789270654402210000001324526956505025958_);}
	.st39{fill:url(#SVGID_00000026874560468429142190000016696242578780382135_);}
	.st40{fill:url(#SVGID_00000170279642331805160730000015973645957567013794_);}
	.st41{fill:url(#SVGID_00000134242170466902152870000006119781545455805066_);}
	.st42{fill:url(#SVGID_00000103264813154915122120000018376650155046537405_);}
	.st43{fill:url(#SVGID_00000126323335075545710200000009578386821474442368_);}
	.st44{fill:url(#SVGID_00000000943906272385960380000011441808705658955943_);}
	.st45{fill:url(#SVGID_00000025432105945212078710000014111968041370572938_);}
	.st46{fill:url(#SVGID_00000074421817926666419570000016960934242908604053_);}
	.st47{fill:url(#SVGID_00000096767668002410739990000011477806156287628180_);}
	.st48{fill:url(#SVGID_00000001646769276404513050000013256975769956400533_);}
	.st49{fill:url(#SVGID_00000146486251436882059250000000044413675955488948_);}
	.st50{fill:url(#SVGID_00000086668857381506560470000007624859351324356021_);}
	.st51{fill:url(#SVGID_00000049199150839047185910000013850556168430671011_);}
	.st52{fill:url(#SVGID_00000178184896437850290610000010898391632058233228_);}
	.st53{fill:url(#SVGID_00000092421051031841708240000008529412568231726979_);}
	.st54{fill:url(#SVGID_00000147908525983321020910000003660363637719834793_);}
	.st55{fill:url(#SVGID_00000029766404419472150120000017316233191264209303_);}
	.st56{fill:url(#SVGID_00000005244963755460785570000005875919588832889013_);}
	.st57{fill:url(#SVGID_00000132802480224571463800000004602574262386968986_);}
	.st58{fill:url(#SVGID_00000085241070272772284430000000935920988712242576_);}
	.st59{fill:url(#SVGID_00000140006863058900254780000002496935646249675142_);}
	.st60{opacity:0.4;fill:url(#SVGID_00000134245868788031895830000006967495787157341072_);}
	.st61{fill:url(#SVGID_00000106853993883283828910000007643091148657084808_);}
	.st62{fill:url(#SVGID_00000108273178507201994250000016490461914355020950_);}
	.st63{fill:url(#SVGID_00000031889894981181633030000001965510376904475309_);}
	.st64{fill:url(#SVGID_00000036966173900001373820000008201550516206705313_);}
	.st65{fill:url(#SVGID_00000152229716117043888430000014552493682771456680_);}
	.st66{fill:url(#SVGID_00000090264921357720263860000000678842260108318081_);}
	.st67{fill:url(#SVGID_00000042003089303316483500000009161198608172549006_);}
	.st68{fill:url(#SVGID_00000126292849218623600080000006810629906130667922_);}
	.st69{fill:#AD0000;}
	.st70{fill:url(#SVGID_00000048491504922815642990000013207297089854360206_);}
	.st71{fill:url(#SVGID_00000022533152478940156820000001977420096567933069_);}
	.st72{fill:url(#SVGID_00000049936261166956658260000002366636442767935674_);}
	.st73{fill:url(#SVGID_00000036238548832279086010000017667520472217166480_);}
	.st74{fill:url(#SVGID_00000059305323350273216910000003541322785912220808_);}
	.st75{fill:#BF9184;}
	.st76{fill:none;stroke:#FDD5C8;stroke-miterlimit:10;}
	.st77{fill:url(#SVGID_00000067917417597617950940000011943389376410615682_);}
	.st78{fill:url(#SVGID_00000026135832623926941870000015545525149280541631_);}
	.st79{fill:url(#SVGID_00000161595406748118673380000003996625234610163602_);}
	.st80{fill:url(#SVGID_00000135656115066017469790000003732290812591056318_);}
	.st81{fill:url(#SVGID_00000018212165191567893660000015865783272114173097_);}
	.st82{fill:url(#SVGID_00000139274177988253918340000017514607488108523165_);}
	.st83{fill:url(#SVGID_00000052065613476067233670000004763016282236262547_);}
	.st84{fill:url(#SVGID_00000075124407113702089800000013515937258571319985_);}
	.st85{fill:url(#SVGID_00000101805324141577993060000008237439812261659063_);}
	.st86{fill:url(#SVGID_00000005954134973858068760000012279782915143305384_);}
	.st87{fill:none;stroke:#E0AFA1;stroke-miterlimit:10;}
	.st88{fill:#59767A;}
	.st89{fill:none;}
	.st90{fill:#314042;}
	.st91{fill:url(#SVGID_00000001637591096134805830000003554147073581050027_);}
	.st92{fill:url(#SVGID_00000021838742289712705530000013504557331453193406_);}
	.st93{fill:url(#SVGID_00000065076340542720198810000010495926948404599428_);}
	.st94{fill:url(#SVGID_00000147907549964707225320000009413204253591193729_);}
	.st95{fill:url(#SVGID_00000110436570707923931880000010726611859399309990_);}
	.st96{fill:none;stroke:#99685A;stroke-miterlimit:10;}
	.st97{fill:#F2CEC4;}
	.st98{fill:#E1AFA1;}
	.st99{fill:url(#SVGID_00000124849678737555390060000011152173566958609316_);}
	.st100{fill:url(#SVGID_00000020399926335395978030000013441655014253676989_);}
	.st101{fill:url(#SVGID_00000106138214978594409830000008688264312694509208_);}
	.st102{fill:url(#SVGID_00000017474984877510835110000017255137306767541892_);}
	.st103{fill:url(#SVGID_00000061453755505841963670000002877336424729816471_);}
	.st104{fill:url(#SVGID_00000093174275931596629950000013376569532027666587_);}
	.st105{fill:url(#SVGID_00000047055223368487781580000016757012929050993559_);}
	.st106{fill:url(#SVGID_00000128458318499161854170000018040958090413244341_);}
	.st107{fill:url(#SVGID_00000029741618076466297460000012374726262903717778_);}
	.st108{fill:url(#SVGID_00000111173093028372005890000014184273555236836780_);}
	.st109{fill:#E39F8D;}
	.st110{fill:#C2553C;}
	.st111{fill:url(#SVGID_00000048502799267610266780000018440346583392775046_);}
	.st112{fill:url(#SVGID_00000127030126674120346790000000105846308324265151_);}
	.st113{fill:url(#SVGID_00000081635396107014205410000004752115821927149462_);}
	.st114{fill:#AD4024;}
	.st115{fill:url(#SVGID_00000053536040570343599300000012457834257571068808_);}
	.st116{fill:url(#SVGID_00000152250944225840912890000015523189682533640077_);}
	.st117{fill:url(#SVGID_00000145751611825789102620000014569025279305553595_);}
	.st118{opacity:0.5608;fill:#FFFFFF;}
	.st119{fill:#FFFFFF;}
	.st120{fill:#FFF1ED;}
	.st121{fill:#E6D7D3;}
	.st122{opacity:0.4392;fill:#E0AFA1;}
	.st123{fill:#FFD3C7;}
	.st124{opacity:0.3412;fill:#AAAD66;}
	.st125{opacity:0.2314;fill:#FFFFFF;}
	.st126{fill:#23282B;}
	.st127{fill:none;stroke:#99685A;stroke-linecap:round;stroke-linejoin:round;stroke-miterlimit:10;}
	.st128{fill:#495760;}
	.st129{fill:#353A3E;}
	.st130{fill:#3A474F;}
	.st131{fill:#709EB8;}
	.st132{fill:#8BB0C5;}
	.st133{fill:#31556B;}
	.st134{fill:#4E768F;}
	.st135{fill:#263F4F;}
	.st136{fill:#576975;}
	.st137{fill:none;stroke:#3A474F;stroke-miterlimit:10;}
	.st138{fill:#2F3943;}
	.st139{fill:#C78D7D;}
	.st140{fill:#421D13;}
	.st141{fill:#5E3E35;}
	.st142{fill:#806158;}
	.st143{fill:#EFC3B6;}
	.st144{fill:#C79789;}
	.st145{fill:none;stroke:#EFC3B6;stroke-miterlimit:10;}
	.st146{fill:#69483F;}
	.st147{fill:none;stroke:#806158;stroke-width:3;stroke-linecap:round;stroke-linejoin:round;stroke-miterlimit:10;}
	.st148{fill:#E8E8E8;}
	.st149{fill:#BACAD9;}
	.st150{fill:#694034;}
	.st151{fill:#658F85;}
	.st152{fill:#407065;}
	.st153{fill:#323C42;}
	.st154{fill:#B4CADE;}
	.st155{opacity:0.3294;fill:#C75B63;}
	.st156{fill:none;stroke:#5E3E35;stroke-width:4;stroke-linecap:round;stroke-linejoin:round;stroke-miterlimit:10;}
	.st157{fill:#4C6270;}
	.st158{fill:#7A4A3D;}
	.st159{fill:#252E37;}
	.st160{fill:#3E4852;}
	.st161{fill:none;stroke:#E0AFA1;stroke-linecap:round;stroke-linejoin:round;stroke-miterlimit:10;}
	.st162{fill:#BA8677;}
	.st163{fill:#313B45;}
	.st164{fill:none;stroke:#4E768F;stroke-miterlimit:10;}
	.st165{fill:#193646;}
	.st166{opacity:0.1882;fill:#FFFFFF;}
	.st167{fill:none;stroke:#421D13;stroke-miterlimit:10;}
	.st168{opacity:0.2196;fill:#1390D4;}
	.st169{opacity:0.2392;fill:#027DCF;}
	.st170{opacity:0.3216;fill:#FFFFFF;}
	.st171{fill:#CFCFCF;}
	.st172{fill:url(#SVGID_00000078036150353566494750000007554157723686831797_);}
	.st173{fill:url(#SVGID_00000127003770404623115590000005450664581416797107_);}
	.st174{opacity:0.749;fill:url(#SVGID_00000071527853444952143010000002739057204913639299_);}
	.st175{fill:url(#SVGID_00000088130689472524452000000016200005067261321630_);}
	.st176{fill:url(#SVGID_00000017489282479271391010000016262283285842061442_);}
	.st177{fill:#821111;}
	.st178{fill:url(#SVGID_00000058579453107945422110000012092016617543824781_);}
	.st179{fill:#BC0002;}
	.st180{fill:url(#SVGID_00000177443040682952811170000004965131045715723199_);}
	.st181{fill:url(#SVGID_00000165232612977416298560000005202044061854935192_);}
	.st182{fill:url(#SVGID_00000148640481724447681110000012750826099498155190_);}
</style>
<g>
	<rect y="2.19" class="st0" width="1890" height="1290"/>
	<path class="st1" d="M108.66,774.35c3.65,28.36,24.34,52.24,48.88,66.92c24.54,14.67,52.81,21.6,80.6,28.33
		c40.72,9.86,81.44,19.73,122.16,29.59c67.15,16.27,134.46,32.56,203.01,41.25c99.58,12.62,200.42,9.02,300.73,5.4
		c81.73-2.95,163.46-5.9,245.18-8.85c7.44-0.27,16.04-1.15,20.15-7.36c4.11-6.21-3.73-17.04-9.44-12.27
		c38.98,0.82,76.6-18.43,115.49-15.74c33.31,2.3,63.39,20.39,95.99,27.62c62.39,13.85,130.58-12.59,190.16,10.52
		c11.8,4.57,23.11,11.06,35.67,12.6c11.63,1.42,23.3-1.53,34.65-4.47c45.3-11.71,90.6-23.43,131.55-27.46
		c42.56-14.55,82.96-35.39,119.49-61.62c12.18-8.74,24.82-19.57,26.95-34.41c5.12-35.7-52.61-63.58-37.35-96.26
		c2.57-5.49,7.02-9.95,9.47-15.5c10.63-24.11-20.25-45.25-45.84-51.58c-128.21-31.69-261.96,5.12-393.63,15.34
		c-143.94,11.17-288.19-9.78-432.43-15.98c-142.05-6.11-284.28,2.08-426.22,10.28c-80.02,4.62-160.4,9.28-238.84,25.8
		C238.65,710.48,174.04,732.93,108.66,774.35z"/>
	<g>
		<path class="st5" d="M1568.86,876.31c-5.49,9.81-11.85,19.22-18.93,27.97l-2.81,0.27c7.51-9.1,14.24-18.92,19.99-29.22
			L1568.86,876.31z"/>
		<path class="st2" d="M1834.23,777.88c-5.22,20.17-16.28,36.7-29.96,52.41c-20.05,23.04-43.73,46.46-70.35,61.43
			c-7.16,4.02-14.66,7.38-22.15,10.74c-25.04,11.22-54.1,27.81-72.62,32.15c-4.44,1.04-12.88,0.4-17.2-0.03
			c-1.51-0.15-2.52-0.28-2.68-0.3c-0.01,0-0.02,0-0.02,0s-7.73,6.21-27.12-0.52c-5.28-1.83-10.76-11.04-12.46-14.09v-0.01
			c-0.34-0.62-0.53-0.98-0.53-0.98s-0.51,0.15-1.4,0.33c-5.19,1.07-23.24,3.41-27.81-14.73c7.08-8.75,13.44-18.16,18.93-27.97
			l-1.75-0.98c-5.75,10.3-12.48,20.12-19.99,29.22c-27.48,7.51-55.64,12.95-84.16,16.39c-40.38,4.89-81.47,5.76-122.29,2.82
			c-12.13-0.88-23.97-5.04-34.07-11.83c-21.68-14.56-26.61-38.29-31.57-58.46c-0.29,0.26-0.58,0.51-0.88,0.75
			c-2.72,2.32-5.52,4.37-8.39,6.18c-15.44,9.82-32.75,12.95-49.71,15.95c-18.91,3.34-37.82,6.69-56.73,10.04
			c-27.41,4.84-53.52,10.2-81.31,10.35c-0.33,0.01-0.66,0.01-0.99,0.01c-1.21,13.51-7.06,24.36-15.16,31.85
			c-8.09,7.5-19.74,10.97-30.61,9.13c-2.22-0.38-5.79-1.04-7.65-1.39c-0.75-0.15-1.23-0.24-1.23-0.24s-4.27,1.9-6.75,2.73
			c-7.57,2.54-17.3,2.27-24.69-0.75c-1.73-0.71-5.28-1.8-5.28-1.8s-1.89,0.76-4.09,1.65c-1.71,0.67-3.61,1.42-4.96,1.93
			c-15.41,5.84-32.69-0.01-43.67-12.29c-9.18,5.29-21.2,0.67-24.39-0.74c-0.52-0.23-0.81-0.37-0.81-0.37s-64.78,27.1-99.18,24.49
			c-34.4-2.62-71.66-4.84-102.97-19.31c-8.6-3.97-17.29-8.26-26.7-9.28c-10.96-1.19-21.83,2.16-32.54,4.78
			c-11.98,2.94-24.18,5-36.45,6.17c-23.67,2.25-48.04,1.1-70.4-6.99c-0.64-0.23-1.28-0.47-1.91-0.72
			c-14.43-5.5-27.77-13.86-39.15-24.32c-0.36-0.31-0.71-0.64-1.06-0.97c-68.24,6.03-132.62-9.4-188.34-36.28
			c-12.06-5.81-23.71-12.16-34.91-18.95c-2.58-1.56-5.14-3.15-7.68-4.77c-11.04-7.01-21.61-14.44-31.66-22.18
			c-16.2-12.47-29.98-11.53-45.55-24.78c-13.02-11.08-30.08-6.58-43.04-42.83c-20.27-56.71-25.46-83.05-4.38-139.47
			c6.7-17.92,13.4-35.84,20.1-53.76c9.78-26.18,19.81-52.81,37.04-74.81c29.73-37.95,78.05-57.73,125.99-62.74
			c47.95-5.01,96.21,3.11,143.59,11.99c4.16,0.78,8.58,1.54,12.51-0.04c2.93-1.17,5.23-3.53,8.06-4.93
			c5.24-2.59,11.85-2.71,17.19-0.33c41.05,18.27,72.64,32.82,103.76,51.17c26.33-59.88,73.69-97.7,132.5-98.71
			c16.66-0.29,33.19,2.56,49.6,5.39c52.25,9.04,104.5,18.07,156.75,27.11c51.61,12.86,108.64-8.93,165.11-7.6
			c29.17,0.69,58.21,7.57,87.26,4.95c13.32-1.21,26.37-4.39,39.42-7.33c19.38-4.36,38.88-8.2,58.47-11.5
			c14.1-2.38,28.32-4.49,42.62-4.32c51.93,0.63,98.3,30.75,141.36,59.78c24.11,16.09,49.26,36.9,52.57,65.75
			c1.49,13.01-1.78,26.05-5.03,38.74c-3.49,13.65-6.98,27.3-10.47,40.95c-0.54,2.11-1.06,4.41-0.44,6.44
			c0.08,0.31,0.2,0.61,0.35,0.91c0.99,1.95,3.05,3.07,5,4.07c0.89,0.46,1.77,0.91,2.66,1.37c10.15,5.22,20.32,10.45,30.47,15.67
			c21.38,15.41,50.1,27.15,79.96,31.96c0.2,0.03,0.39,0.06,0.59,0.09c0.67,0.11,1.35,0.22,2.03,0.32c6.32,0.95,12.68,1.71,18.9,3.15
			c5.2,1.2,10.32,2.85,15.61,3.43c0.01,0,0.01,0,0.01,0c0.24,0.03,0.47,0.06,0.71,0.08c0.83,0.08,1.66,0.13,2.5,0.14
			c0.01,0,0.01,0,0.01,0c11.8,0.32,23.21-4.73,34.14-9.48c14.93-6.48,30.34-12.67,46.57-13.82c16.23-1.16,33.65,3.46,44.46,15.63
			c3.66,4.12,6.32,8.72,8.18,13.64v0.01c0.31,0.83,0.6,1.65,0.87,2.49v0.01c0.97,3.06,1.67,6.22,2.13,9.47
			c0.09,0.7,0.18,1.4,0.26,2.11c0.94,8.57,0.35,17.62-0.95,26.58c-0.1,0.67-0.2,1.34-0.31,2.01c-0.88,5.67-2.03,11.28-3.23,16.69
			C1832.88,732.85,1839.46,757.71,1834.23,777.88z"/>
		<path class="st5" d="M908.54,926.83c-0.52-0.23-0.81-0.37-0.81-0.37s-64.78,27.1-99.18,24.49c-34.4-2.62-71.66-4.84-102.97-19.31
			c-8.6-3.97-17.29-8.26-26.7-9.28c-10.96-1.19-21.83,2.16-32.54,4.78c-11.98,2.94-24.18,5-36.45,6.17
			c-23.67,2.25-48.04,1.1-70.4-6.99c-0.64-0.23-1.28-0.47-1.91-0.72l0.26-0.38c37.52,12.82,78.35,1.17,117.15-6.94
			c8.42-1.76,16.96-3.36,25.55-3.11c10.55,0.31,20.79,3.39,30.95,6.24c52.43,14.69,109.88,23.45,160.26,2.82
			c5.66-2.32,11.42-5.19,14.93-10.19c2.98-4.24,3.98-9.5,4.92-14.59c1.57-8.54,3.14-17.08,4.72-25.62
			c1.51-8.25,3.63-17.42,11.08-21.14c-5.16,15.76-10.37,32.43-6.91,48.65c0.72,3.38,1.81,6.67,2.9,9.94
			C905.11,916.46,906.82,921.65,908.54,926.83z"/>
		<path class="st4" d="M659.97,815.86c-8.22,1.01-15.67,0.33-24.23-2.08c-42.22-11.88-63.54-13.67-98.28-9.7
			c-8.15,0.93-19.66-0.07-25.6,5.59c-4.01,3.83-20.63,13.58-24.37,17.67c-14.66,16.03-13.09,22.42-4.73,38.55
			c2.08,4.01-18.95,10.95-23.18,12.55c-7.37,2.78-15.61,0.86-23.21-1.21c-37.95-10.36-86.18-5.61-127.34-13.2
			c-12.06-5.81-23.71-12.16-34.91-18.95c-2.58-1.56-5.14-3.15-7.68-4.77c-4.52-15.52-10.57-41.84-11.14-39.28
			c-13.76-16.09,5.92-20.3,9.15-41.22c0.35-2.28,0.82-4.57,1.87-6.63c1.36-2.66,3.61-4.75,5.82-6.77
			c9.34-8.59,18.68-17.18,28.7-17.85c17.74,19.18,45.18,26.99,71.3,26.48c26.13-0.51,51.48-8.38,76.37-16.34
			c7.84-2.5,16.92-4.89,23.85-0.45c7.58,4.85,8.7,15.81,5.88,24.35c-2.82,8.55-8.58,15.79-12.31,23.98
			c-6.15,13.48-6.53,28.78-6.81,43.59c6.34-2.43,11.82-7.05,15.27-12.9c-3.85,11.44-7.69,22.88-11.53,34.32
			c-1.09,3.23-0.58,8.5,2.77,7.93c1.51-0.26,2.41-1.8,3.07-3.19c3.92-8.34,6.36-17.28,8.79-26.18c3.71-13.59,7.42-27.19,11.13-40.78
			c2.49-9.12,5.34-18.83,12.57-24.92c7.23-6.09,20.3-6.04,24.49,2.44c2.3,4.65,1.85,11.2,6.33,13.83
			c7.03,4.13,14.43-7.01,22.56-6.43c6.04,0.44,9.76,7.08,15.51,8.95c12.97,4.21,24.46-17.31,37.14-12.32
			c4.09,1.61,6.65,5.6,10.03,8.39c7.5,6.2,19.7,5.61,27.04-1.26c0.27-2.5,3.89-3.83,5.72-2.09
			C642.61,789.13,647.55,807.55,659.97,815.86z"/>
		<path class="st4" d="M659.97,815.86c1.82-0.21,3.68-0.52,5.61-0.91c-0.68,0.97-1.44,1.91-2.27,2.82
			C662.14,817.22,661.03,816.58,659.97,815.86z"/>
		<path class="st4" d="M740.11,723.36c-2.35,28.08-5.41,58-23.06,79.98c-6.61,8.24-14.95,14.89-23.22,21.47
			c-7.47,5.94-18.3-11.94-27.64-9.98c-0.21,0.04-0.41,0.09-0.61,0.12c12.38-17.45,3.38-45.16,15.81-63.36
			c1.91-1.1,4.36,0.68,5.07,2.77c0.71,2.09,0.37,4.37,0.71,6.55c1.42,9.14,14.35,12.2,22.3,7.46c7.94-4.74,11.87-13.93,15.31-22.51
			C728.22,737.27,732.17,728.09,740.11,723.36z"/>
		<path class="st5" d="M632.26,852.5c-4.29,0.8-8.81,1.19-12.97-0.14c-4.16-1.33-7.9-4.71-8.54-9.04c0.58,2.25,0.35,4.78-0.98,6.68
			c-2.94,4.22-9.24,3.64-14.06,5.42c2.99,0.15,5.98,0.3,8.98,0.45c0.62,0.03,1.33,0.11,1.7,0.61c0.2,0.27,0.25,0.62,0.3,0.96
			c1.11,7.74,1.3,15.61,0.56,23.4c2.38-5.57,1.6-11.9,2.36-17.91c0.18-1.41,0.61-3.03,1.92-3.57c1.56-0.65,3.22,0.65,4.37,1.89
			c5.34,5.74,9.64,12.45,12.61,19.71c-2.47-7.37-6.26-14.29-11.14-20.35c-0.29-0.36-0.6-0.75-0.65-1.21
			c-0.1-0.89,0.81-1.61,1.7-1.71s1.76,0.23,2.63,0.43C625.38,859.12,630.26,856.49,632.26,852.5z"/>
		<path class="st5" d="M498.43,901.28c-0.36-0.31-0.71-0.64-1.06-0.97c-83,7.33-160.29-17.08-223.25-55.23
			c-0.72-8.3,2.97-20.84,15.92-12.8c25.42,15.79,57.05,20.51,86.46,14.93c29.4-5.58,56.53-21.04,77.92-41.97
			c-2.67,15.1-5.34,30.61-2.4,45.66c0.94,4.84,2.56,9.74,5.94,13.33c3.39,3.6,8.88,5.55,13.43,3.63c3.93-1.66,8.29-8.82,8.29-8.82
			S491.36,888.08,498.43,901.28z"/>
		<path class="st4" d="M594.09,623.12c1.79,22.81-10.62,46.14-30.54,57.41c-8.67,4.9-18.89,7.63-28.68,5.79
			c-1.34-0.25-2.82-0.7-3.46-1.91c-0.4-0.76-0.37-1.66-0.3-2.51c0.67-8.24,4.42-15.86,7.6-23.5c4.08-9.8,7.29-19.94,10.49-30.07
			c5.84-18.48,11.75-37.35,11.45-56.73c2.24,10.98,4.54,22.11,9.65,32.07c1.11,2.16,2.35,4.27,3.22,6.54
			c1.22,3.18,1.68,6.6,1.87,9.99c0.64,11.29-1.65,22.73-6.59,32.91c-2.45,5.04-5.52,9.76-8.59,14.45c0.41,0.62,1.38,0.26,1.99-0.17
			c11.1-7.78,18.74-20.32,20.58-33.75c0.7-5.1,0.59-10.27,1.1-15.38c0.49-4.98,1.55-9.88,2.61-14.76c0.34-1.55,1.2-3.5,2.78-3.29
			c1.01,0.14,1.63,1.15,2.06,2.07C595.01,610,596.43,618.77,594.09,623.12z"/>
		<path class="st4" d="M793.61,805.16c-11.25,1.61-23.42-4.05-28.71-14.11c-5.3-10.06-2.74-23.84,6.31-30.72
			c8.85-6.73,21.08-6.15,32.13-4.94c19.02,2.07,37.95,5.06,56.68,8.96c3.91,0.81,7.87,1.69,11.37,3.6
			c8.62,4.7,12.8,14.56,16.37,23.7c4.67,11.95,9.34,23.9,14.01,35.84c0.56,1.42,1.22,2.96,2.59,3.64c1.04,0.51,2.27,0.4,3.4,0.16
			c7.72-1.66,13.21-8.78,15.74-16.26s2.76-15.51,4.01-23.3c1.8-11.18,5.77-22,11.63-31.69c3.39-5.61,7.43-10.9,9.74-17.03
			c2.41-6.39,2.79-13.34,3.15-20.16c0.56-10.66,1.12-21.32,1.68-31.98c1.08-20.44,1.75-42.45-9.47-59.56
			c-0.84-1.28-1.77-2.55-3.06-3.36c-3.1-1.95-7.4-0.62-9.95,2.02c-2.54,2.63-3.76,6.24-4.94,9.71
			c-6.23,18.35-13.67,36.66-25.83,51.76c-12.16,15.1-29.7,26.77-49.04,28.05c-14.26,0.94-28.33-3.74-41.23-9.89
			c-16.93-8.07-33.07-19.28-42.67-35.4c-5.73-9.61-8.87-20.51-13.26-30.8c-6.03-14.12-15.01-27.69-28.4-35.19
			c-2.41-1.35-5.99-2.22-7.48,0.1c-1.08,1.68-0.2,3.88,0.67,5.68c5.13,10.51,9.92,21.22,13.41,32.39
			c5.96,19.06,8.03,39.08,10.06,58.95c1.15,11.24,2.29,22.69,0.02,33.76c-1.99,9.69-6.51,18.64-10.04,27.88
			c-4.57,11.94-7.53,24.49-8.77,37.21c-0.59,6.02-0.61,12.68,3.21,17.37c2.41,2.97,6.04,4.68,9.68,5.84
			c14.7,4.65,30.55,1.49,45.82-0.56c22.95-3.08,46.25-3.55,69.3-1.4c13.05,1.22,26.4,3.4,37.64,10.15
			c6.23,3.74,13.42,9.03,19.97,5.87C874.05,814.38,827.38,808.6,793.61,805.16z"/>
		<path class="st5" d="M521.74,771.49c-3-3.78-7.79-6.07-12.62-6.02c-1.51,0.02-3.05,0.26-4.41,0.94c-1.76,0.89-3.08,2.45-4.27,4.02
			c-7.08,9.36-11.47,20.75-12.49,32.45c2.19-4.68,3.68-9.66,5.73-14.41s4.75-9.37,8.81-12.57c4.06-3.2,9.69-4.77,14.54-2.99
			c1.26,0.46,2.61,1.15,3.89,0.73S522.58,770.93,521.74,771.49z"/>
		<path class="st5" d="M529.84,801.76c-2.77-7.31-6.14-14.39-10.06-21.15c-1.25-2.15-2.62-4.34-4.68-5.73
			c-2.07-1.39-5.02-1.76-6.98-0.22c-1.21,0.95-1.84,2.42-2.4,3.85c-5.14,13.05-7.91,27.03-8.12,41.05
			c4.31-3.42,8.63-6.84,12.94-10.26c0.85-0.67,1.72-1.37,2.27-2.3c0.87-1.47,0.81-3.28,0.73-4.99c-0.25-5.33-0.51-10.67-0.76-16
			c-0.13-2.71-0.24-5.51,0.76-8.03c5.04,7.65,8.95,16.05,11.55,24.83C526.44,802,528.03,801.56,529.84,801.76z"/>
		<path class="st5" d="M620.92,488.36c3.46,6.22,4.39,13.8,2.53,20.67c4.65-0.38,8.81,2.65,12.46,5.56
			c34.27,27.36,67.43,59.3,81.77,100.74c2.59,7.48,4.53,15.17,6.46,22.85c2.75,10.95,5.51,21.89,8.26,32.84
			c2.5,9.93,5.01,19.92,5.91,30.12c0.89,10.05,0.21,20.18-1.14,30.18c-5.35,39.64-23.57,80.32-60.2,98.66
			c36.06,3.56,72.64,7.11,108.34,0.9c8.34-1.45,16.58-3.43,24.95-4.68c33.9-5.07,70.66,2.91,96.23,25.98
			c0.21-3.68,1.27-7.31,2.9-11.84c-19.94-8.39-40.2-16.68-61.6-19.82c-14.71-2.16-29.65-1.84-44.52-1.51
			c-18.66,0.41-37.31,0.82-55.97,1.23c-2.75,0.06-5.57,0.11-8.15-0.85c-5-1.85-8.03-7.2-8.67-12.5c-0.64-5.3,0.66-10.62,1.94-15.79
			c9-36.21,17.89-73.75,11.29-110.48c-1.82-10.13-4.8-20.01-7.93-29.81c-13.22-41.4-30.78-84-65.23-110.51
			c-7.75-5.97-16.22-10.99-23.67-17.34C635.75,513.48,627.12,501.1,620.92,488.36z"/>
		<path class="st4" d="M1520.66,763.48c-11.07,18.37-29.96,31.85-50.93,36.35c-9.82,2.11-19.98,2.32-29.81,4.4
			c-15.65,3.31-30.57,11.75-39.72,24.87c-9.16,13.12-11.78,31.12-4.82,45.52c5.47,11.31,15.91,19.31,26.35,26.29
			c12.76,8.54,26.39,16.33,41.23,20.03c-40.38,4.89-81.47,5.76-122.29,2.82c-12.13-0.88-23.97-5.04-34.07-11.83
			c-21.68-14.56-26.61-38.29-31.57-58.46c-0.29,0.26-0.58,0.51-0.88,0.75c-2.72,2.32-5.52,4.37-8.39,6.18
			c-2.52-20.55-0.55-41.65,6.05-61.28c-2.56-11.38,8.85-23.13,20.72-25.04c11.86-1.91,23.69,2.56,35.4,5.27
			c15.72,3.63,32.16,4.14,48.07,1.47c10.25-1.72,20.26-4.73,30.53-6.3c12.05-1.83,24.31-1.66,36.4-3.12
			c24.52-2.95,47.9-12.56,72.45-15.23c2.37-0.26,5.34-0.14,6.37,2.01C1522.56,759.88,1521.63,761.87,1520.66,763.48z"/>
		<path class="st5" d="M564.66,588.89c4.91,15.79,8.43,32.47,5.89,48.81c-2.58,16.61-11.59,32.13-24.74,42.6
			c-1.55,1.23-4.65,1.82-4.8-0.16c-0.06-0.78,0.52-1.44,1.06-2.01c9.16-9.6,18.85-19.27,23.82-31.58
			C573.15,628.57,569.15,608.26,564.66,588.89z"/>
		<path class="st4" d="M1092.06,524.79c28.8,75.04,26.87,158.29,16.96,238.05c-2.09,16.81-4.51,33.87-1.9,50.61
			c2.61,16.74,11.13,33.47,25.98,41.62c19.8,10.86,44.36,3.94,65.31-4.51c10.74-4.33,21.34-9.01,31.77-14.02
			c9.47-4.55,18.99-9.51,26.33-17.04c5.34-5.48,9.5-12.75,9.01-20.39c-0.55-8.49-6.54-15.46-11.03-22.68
			c-6.53-10.5-10.37-22.74-18.52-32.03c-5.64-6.43-13.01-11.05-19.49-16.63c-19.18-16.52-29.99-41.29-33.36-66.38
			s0.14-50.64,5.83-75.31c9.71-42.12,25.81-82.75,47.59-120.09c-14.75,14.5-23.2,34.06-31.29,53.1
			c-4.98,11.72-9.98,23.5-13.04,35.85c-2.35,9.49-3.53,19.24-5.68,28.78c-2.32,10.27-5.76,20.25-9.2,30.21
			c-5.19,15.04-10.37,30.07-15.56,45.11c-0.73,2.13-1.9,4.62-4.14,4.85c-2.63,0.27-4.26-2.74-5.13-5.24
			C1136.13,611.57,1121.32,562.86,1092.06,524.79z"/>
		<path class="st5" d="M1309.77,773.78c-22.92,19.66-33.59,49.94-35.62,80.44c-17.4,14.84-38,18.57-58.1,22.13
			c-18.91,3.34-37.82,6.69-56.73,10.04c-27.41,4.84-53.52,10.2-81.31,10.35c0.86-7.55,8.25-12.99,12.39-19.63
			c4.07-6.54,5.01-14.5,5.8-22.17c5.64-54.86,8.66-110,16.25-164.62c0.86,22.58,1.72,45.15,2.57,67.72
			c0.5,13.26,1.03,26.69,4.87,39.39c3.84,12.7,11.41,24.81,22.99,31.3c7.82,4.39,16.86,5.94,25.71,7.41
			c7.78,1.29,15.8,2.57,23.47,0.74c8.47-2.02,15.58-7.6,22.36-13.07c11.25-9.09,23.04-19.27,26.59-33.29
			c3.53-13.96-2.06-28.76-10.24-40.61c-8.19-11.84-18.91-21.72-27.55-33.23c-18.68-24.89-26.86-57.41-22.17-88.18
			c-0.5,28.47,2.62,58.4,18.6,81.97c12.08,17.82,30.56,30.43,49.99,39.71C1269.08,759.46,1289.77,765.79,1309.77,773.78z"/>
		<path class="st5" d="M1663.88,929c-0.52-10.19-6.35-19.97-15.07-25.27c-8.72-5.3-20.08-5.98-29.37-1.75
			c-1.3,0.59-2.71,1.29-4.09,0.92c-1.1-0.29-1.9-1.2-2.7-2.01c-6.62-6.69-17.54-8.68-26.09-4.74c2.88-4.59,0.15-11.03-4.4-13.96
			c-4.55-2.94-10.26-3.26-15.67-3.32c-2.8-7.6-8.55-14.07-15.76-17.75c8.41,0.15,16.82-3.66,22.24-10.1s7.77-15.36,6.2-23.63
			c-0.49-2.56-1.23-5.52,0.43-7.53c2.53,12.79,0.39,26.45-5.94,37.85c-1.15,2.08-2.49,4.27-2.24,6.64c0.15,1.47,0.92,2.81,1.7,4.06
			c11.19,17.84,31.63,29.5,52.67,30.06c6.95,0.18,14.12-0.74,20.71,1.47C1659.38,904.25,1665.58,918.63,1663.88,929z"/>
		<path class="st5" d="M1621.95,934.58c-1.51-0.15-2.52-0.28-2.68-0.3c-3.66-5.32-6.06-11.52-6.83-17.89
			c-0.9-7.34,1.14-13.49,5.44-16.45l1.14,1.65c-3.68,2.53-5.4,7.97-4.6,14.56C1615.23,922.78,1617.89,929.23,1621.95,934.58z"/>
		<path class="st5" d="M1590.19,894.17c-1.58,0.59-2.62,2.28-3.51,4.02c-3.43,6.69-5.81,14-7.01,21.47
			c-0.34-0.62-0.53-0.98-0.53-0.98s-0.51,0.15-1.4,0.33c1.26-7.55,3.69-14.95,7.16-21.73c1.07-2.1,2.37-4.16,4.58-4.99
			L1590.19,894.17z"/>
		<path class="st5" d="M1617.5,739.01c-0.29,0.41,25.31-38.27,21.3-87.69c0.67,0.11,1.35,0.22,2.03,0.32
			C1643.2,682.12,1634.76,713.81,1617.5,739.01z"/>
		<path class="st5" d="M1678.56,658.44c-10.99,7.2-20.39,18.45-27.32,32.69c-6.61,13.58-44.23,86.35-1.8-0.87
			c6.64-13.65,15.53-24.62,25.9-32.04c0.01,0,0.01,0,0.01,0c0.24,0.03,0.47,0.06,0.71,0.08
			C1676.89,658.38,1677.72,658.43,1678.56,658.44z"/>
		<path class="st5" d="M752.5,535.87c-0.06,0-0.12-0.01-0.19-0.02l-18.22-3.48c-0.54-0.1-0.9-0.63-0.79-1.17
			c0.1-0.54,0.63-0.9,1.17-0.79l18.22,3.48c0.54,0.1,0.9,0.63,0.79,1.17C753.39,535.54,752.97,535.87,752.5,535.87z"/>
		<path class="st5" d="M841.43,554.3c-0.11,0-0.21-0.02-0.32-0.05c-17.17-5.8-32.51-16.11-44.35-29.83
			c-0.36-0.42-0.31-1.05,0.1-1.41c0.42-0.36,1.05-0.32,1.41,0.1c11.61,13.45,26.65,23.56,43.48,29.24c0.52,0.18,0.8,0.74,0.63,1.27
			C842.23,554.04,841.85,554.3,841.43,554.3z"/>
		<path class="st5" d="M933.34,566.62c-0.55-0.02-0.98-0.48-0.96-1.04c0.24-6.6,0.8-13.26,1.66-19.81
			c0.49-3.72,1.15-8.11,2.37-12.42c2.5-8.83,7.24-16.94,13.69-23.46c0.39-0.39,1.02-0.4,1.41-0.01c0.39,0.39,0.4,1.02,0.01,1.41
			c-6.22,6.28-10.78,14.09-13.19,22.59c-1.19,4.18-1.83,8.48-2.31,12.13c-0.85,6.49-1.4,13.09-1.64,19.62
			C934.36,566.21,933.89,566.64,933.34,566.62L933.34,566.62z"/>
		<path class="st5" d="M963.82,771.19c-0.33,0-0.66-0.17-0.85-0.47c-0.29-0.47-0.14-1.09,0.33-1.38
			c18.83-11.62,42.16-16.28,64-12.77c0.55,0.09,0.92,0.6,0.83,1.15c-0.09,0.55-0.6,0.92-1.15,0.83
			c-21.37-3.43-44.21,1.13-62.63,12.5C964.18,771.15,964,771.19,963.82,771.19z"/>
		<path class="st5" d="M1024.15,784.64c0,0-0.01,0-0.01,0c-21.22-0.27-42.59-2.14-63.54-5.56c-0.54-0.09-0.92-0.6-0.83-1.15
			s0.6-0.92,1.15-0.83c20.85,3.4,42.12,5.27,63.24,5.53c0.55,0.01,0.99,0.46,0.99,1.01C1025.14,784.2,1024.69,784.64,1024.15,784.64
			z"/>
		<path class="st5" d="M931.13,928.47c-0.11-6.75,0.46-13.25,1.71-19.46c1.14-5.66,2.9-11.27,4.59-16.7
			c2.54-8.13,5.16-16.53,5.69-25.09c0.04-0.55,0.52-0.96,1.06-0.94c0.55,0.04,0.97,0.51,0.94,1.06c-0.55,8.8-3.21,17.32-5.78,25.57
			c-1.68,5.37-3.42,10.93-4.54,16.5c-1.18,5.86-1.74,12-1.67,18.38"/>
		<path class="st5" d="M992.81,897.87c-0.43-4.78-0.37-9.61,0.21-14.38C993.06,888.28,993.04,893.08,992.81,897.87z"/>
		<path class="st5" d="M1039.81,879.25c-0.43,5.05-3.22,9.53-5.57,14.02c-6.94,13.21-10.62,28.14-10.64,43.07
			c-0.75-0.15-1.23-0.24-1.23-0.24s-4.27,1.9-6.75,2.73c-7.57,2.54-17.3,2.27-24.69-0.75c-1.73-0.71-5.28-1.8-5.28-1.8
			s-1.89,0.76-4.09,1.65c3.84-5.68,6.57-12.18,8.3-18.83c1.8-6.94,2.62-14.06,2.95-21.23c0.43,4.77,1.36,9.5,2.78,14.07
			c1.36,4.38,3.26,8.76,6.62,11.88c3.37,3.11,8.49,4.69,12.68,2.83c5.4-2.4,7.18-9,8.82-14.68c2.67-9.22,6.61-18.02,10.54-26.78
			C1035.41,882.6,1037,879.66,1039.81,879.25z"/>
		<path class="st4" d="M578.61,494.06c-3.31-4.49-8.55-7.51-14.1-8.12c-2.89-0.32-5.87-0.02-8.67-0.82
			c-3.27-0.93-5.96-3.28-8.14-5.89c-4.27-5.1-7.02-11.47-7.81-18.08c-0.07-0.56-0.11-1.15,0.14-1.65c0.74-1.49,2.99-0.85,4.38,0.06
			c4.93,3.21,9.31,7.25,12.92,11.89c1.68,2.16,3.29,4.54,5.73,5.8c2.48,1.28,5.42,1.19,8.12,1.89
			C578.26,480.96,583.08,488.98,578.61,494.06z"/>
		<path class="st5" d="M772.66,546.43c-0.12,0-0.24-0.03-0.36-0.08c-17.55-7.5-33.56-18.98-46.29-33.19
			c-0.37-0.41-0.33-1.04,0.08-1.41c0.41-0.37,1.04-0.33,1.41,0.08c12.54,13.99,28.31,25.3,45.59,32.69c0.51,0.22,0.74,0.8,0.53,1.31
			C773.45,546.21,773.06,546.44,772.66,546.43z"/>
		<path class="st4" d="M578.54,472.72c-7.43-3.89-13.64-9.69-20.4-14.65c-6.76-4.95-14.56-9.21-22.94-9.22
			c-2.48,0-4.97,0.37-7.45,0.15c-6.45-0.57-12.27-5.57-13.81-11.87c16.67,4.56,32.95,10.52,48.63,17.79
			c3.12,1.45,6.28,2.99,8.71,5.42c2.59,2.59,4.37,6.2,7.72,7.67c1.15,0.5,2.45,0.74,3.38,1.57s1.17,2.61,0.06,3.19
			c-0.58,0.3-1.27,0.15-1.9,0C578.74,472.35,576.93,471.92,578.54,472.72z"/>
		<path class="st4" d="M604.6,771.03c4.26-8.23,5.93-17.77,4.72-26.96c7.54,6.9,16.23,12.53,25.6,16.61
			c1.64,0.71,3.45,1.52,4.18,3.16c0.44,1,0.39,2.16,0.12,3.22c-0.6,2.38-2.51,4.6-4.96,4.78c-1.01,0.07-2.01-0.2-2.99-0.46
			c-3.19-0.87-6.38-1.74-9.58-2.62c-3.15-0.86-6.38-1.73-9.63-1.44S605.47,769.31,604.6,771.03z"/>
		<path class="st4" d="M610.91,747.29c-0.35,0-0.69-0.18-0.87-0.51c-2.03-3.63-1.46-8.38,1.7-14.1c0.32-0.58,0.65-1.16,0.98-1.74
			c1.92-3.36,3.9-6.83,3.77-10.51c-0.16-4.45-3.41-8.27-5.85-10.76c-2.25-2.3-5.72-5.47-9.93-6.47c-5.66-1.35-12.36,1.31-17.94,7.1
			c-0.38,0.4-1.02,0.41-1.41,0.03c-0.4-0.38-0.41-1.02-0.03-1.41c6.07-6.31,13.48-9.17,19.84-7.66c4.71,1.12,8.47,4.54,10.89,7.02
			c2.67,2.73,6.24,6.95,6.42,12.09c0.15,4.24-1.97,7.97-4.03,11.57c-0.33,0.57-0.65,1.14-0.96,1.71c-2.8,5.08-3.37,9.17-1.7,12.16
			c0.27,0.48,0.1,1.09-0.39,1.36C611.24,747.25,611.08,747.29,610.91,747.29z"/>
		<path class="st4" d="M667.94,727.72c5.17-17.66,13.83-34.29,25.35-48.64c-4.94,9.39-9.88,18.78-14.82,28.16
			c-1.69,3.2-3.39,6.47-4.09,10.02c-1.25,6.38,0.85,12.86,2.26,19.2c2.16,9.75,2.68,19.85,1.53,29.78
			c-0.95-3.99-1.91-7.99-2.86-11.98c-0.73-3.04-1.69-6.41-4.4-7.96c-0.58-0.33-1.26-0.56-1.9-0.39c-0.55,0.15-0.98,0.56-1.36,0.97
			c-4,4.29-5.98,10.17-10,14.44c-0.89,0.94-2.43,1.81-3.35,0.9c-0.4-0.4-0.5-1.01-0.53-1.57c-0.22-3.74,1.29-7.34,2.79-10.77
			C661.56,738.45,666.84,727.13,667.94,727.72z"/>
		<path class="st4" d="M770.76,549.92c40.31,8.01,80.31,17.61,119.87,28.75c4.62,1.3,9.35,2.68,13.2,5.55
			c3.08,2.29,5.43,5.42,7.59,8.6c19.28,28.36,26.41,63.62,25.78,97.91c-0.63,34.29-8.51,67.99-17.06,101.2
			c-0.71,2.76-1.43,5.65-0.78,8.42c0.65,2.77,3.14,5.34,5.97,5.04c1.65-0.18,3.05-1.25,4.35-2.29
			c12.12-9.64,24.24-19.28,36.36-28.92c1.36-1.08,2.78-2.25,3.41-3.87c0.91-2.36-0.1-4.97-0.82-7.4
			c-3.64-12.31,0.35-25.39,1.61-38.17c1.81-18.31-2.08-36.66-5.94-54.65c-1.67-7.75-3.33-15.51-5-23.26
			c-0.55-2.54-1.1-5.11-2.2-7.46c-1.26-2.68-3.18-4.99-4.91-7.4c-10.9-15.14-14.45-34.27-16.46-52.82c-0.26-2.4-0.54-4.92-1.92-6.9
			c-2.22-3.2-6.53-4.03-10.39-4.58c-37.88-5.48-75.76-10.95-113.64-16.43c-12.66-1.83-25.35-3.67-37.68-7.06
			c-5.78-1.59-12.55-3.36-17.3,0.29C762.3,547.07,769.78,549.72,770.76,549.92z"/>
		<path class="st4" d="M1215.99,694.22c25.06,21.62,61.18,23.28,94.27,22.89c53.48-0.64,107.57-3.93,158.65-19.78
			c23.97-7.44,47.87-17.71,72.94-16.82c33.6,1.2,65.29,24.73,76.17,56.54c-46.09,7.75-92.17,15.49-138.26,23.24
			c-26.01,4.37-52.03,8.75-78.04,13.12c-24.9,4.19-50.21,8.38-75.27,5.33c-38.44-4.69-72.78-25.98-103.59-49.42
			c-6.46-4.92-13.07-10.24-16.39-17.65c-3.33-7.4-2.2-17.46,4.62-21.86C1216.64,693.71,1222.19,697.62,1215.99,694.22z"/>
		<path class="st5" d="M1308.88,772.77c19.71,7.15,41.32,7.34,62.13,4.83c20.82-2.51,41.23-7.62,61.95-10.8
			c20.38-3.14,41.09-4.42,61.12-9.33c27.63-6.76,56.09-20.38,83.19-11.74c-25.17-0.34-50.39,5.73-72.65,17.47
			c-7.71,4.07-15.18,8.85-23.59,11.15c-13.8,3.78-28.42,0.48-42.73,0.32c-28.13-0.32-55.5,11.56-83.6,10.14
			C1338.4,783.98,1322.68,778.7,1308.88,772.77z"/>
		<path class="st4" d="M1527.78,603.6c-10.36-3.92-20.55-8.25-30.6-12.53c-27.72-11.79-56.39-23.98-86.57-26.47
			c-25.34-2.08-50.8,2.72-73.64,13.89c-0.74,0.36-1.64,0.05-2.01-0.69c-0.36-0.75-0.06-1.65,0.69-2.01
			c23.32-11.41,49.33-16.31,75.2-14.18c30.67,2.53,59.56,14.82,87.5,26.7c7.07,3.01,14.21,6.04,21.42,8.94
			c0.08,0.31,0.2,0.61,0.35,0.91c0.99,1.95,3.05,3.07,5,4.07C1526.01,602.69,1526.89,603.14,1527.78,603.6z"/>
		<path class="st4" d="M1814.23,705.08c-0.1,0.67-0.2,1.34-0.31,2.01l-74.91,2.63h-0.04c-0.54,0-0.98-0.43-1-0.97
			c-0.02-0.55,0.41-1.01,0.97-1.03L1814.23,705.08z"/>
		<path class="st5" d="M744.27,545.5c-7.09,0-14.24-0.68-21.1-2.72c-14.19-4.2-26.41-14.06-33.53-27.03
			c-0.27-0.48-0.09-1.09,0.4-1.36c0.48-0.27,1.09-0.09,1.36,0.4c6.86,12.52,18.65,22.02,32.34,26.08c14.03,4.16,29.5,2.5,43.14,1.04
			c0.55-0.06,1.04,0.34,1.1,0.89c0.06,0.55-0.34,1.04-0.89,1.1C759.85,544.67,752.09,545.5,744.27,545.5z"/>
		<path class="st5" d="M935.77,582.44c-1.4-6.45-1.72-13.14-0.95-19.7c-36.42,3.15-73.54-2.16-105.75-15.35
			c-21.65,4.09-44.47,1.77-65.01-6.24c13.67,6.92,29.27,8.9,44.57,9.82c7.03,0.42,14.21,0.66,20.84,3.03
			c3.84,1.37,7.4,3.41,11.14,5.05c12.29,5.39,26,6.23,39.29,8.11C899.69,569.96,919.13,575.27,935.77,582.44z"/>
		<path class="st4" d="M1815.18,678.5c-24.54-5.5-50.87-4.03-74.44,4.41c-0.52,0.19-1.09-0.08-1.28-0.6
			c-0.18-0.52,0.09-1.09,0.61-1.28c23.69-8.49,50.14-10.03,74.85-4.64C1815.01,677.09,1815.1,677.79,1815.18,678.5z"/>
		<path class="st4" d="M1812.79,666.91c-7.18-2.95-15.52-5.76-24.24-6.97c-15.7-2.18-31.55,0.77-46.88,3.61
			c-0.54,0.1-1.06-0.25-1.16-0.8c-0.1-0.54,0.25-1.06,0.8-1.16c15.48-2.88,31.5-5.85,47.51-3.63c8.27,1.15,16.17,3.69,23.1,6.45
			v0.01C1812.23,665.25,1812.52,666.07,1812.79,666.91z"/>
		<path class="st4" d="M1608.72,852.57c-0.59,0-1.21-0.08-1.84-0.27c-0.27-0.08-0.49-0.27-0.62-0.52s-0.14-0.54-0.04-0.8
			c0.95-2.46,0.54-5.43-1-7.57l-20.9,2.75c-0.56,0.07-1.05-0.31-1.12-0.86c-0.07-0.55,0.31-1.05,0.86-1.12l21.47-2.83
			c0.34-0.04,0.68,0.09,0.9,0.35c2.04,2.43,2.79,5.79,2.03,8.85c2.39,0.12,4.65-1.75,7.02-3.72c2.74-2.29,5.59-4.66,9.13-4.39
			c1.59,0.12,2.99,0.77,4.34,1.4c1.04,0.48,2.01,0.94,3.03,1.14c3.97,0.79,7.31-2.17,10.86-5.3c1.04-0.92,2.11-1.86,3.18-2.69
			c8.33-6.42,20.09-6.63,28.67-6.78c0.58,0.02,1.01,0.43,1.02,0.98s-0.43,1.01-0.98,1.02c-10.77,0.19-20.27,0.8-27.49,6.37
			c-1.02,0.79-2.02,1.67-3.08,2.61c-3.75,3.32-7.62,6.74-12.57,5.77c-1.25-0.25-2.39-0.78-3.49-1.29c-1.24-0.58-2.41-1.12-3.64-1.21
			c-2.76-0.19-5.15,1.81-7.7,3.93C1614.28,850.44,1611.72,852.57,1608.72,852.57z"/>
		<path class="st4" d="M1640.1,832.21c-0.36,0-0.7-0.19-0.88-0.53c-2.43-4.51-3.09-9.68-3.74-14.68
			c-0.73-5.67-1.42-11.02-4.46-15.42c-2.17-3.13-5.27-5.37-8.55-7.74c-3.07-2.21-6.25-4.51-8.6-7.61c-0.33-0.44-0.25-1.07,0.19-1.4
			c0.44-0.33,1.07-0.25,1.4,0.19c2.16,2.86,5.08,4.96,8.17,7.19c3.28,2.36,6.67,4.8,9.03,8.22c3.32,4.8,4.07,10.64,4.8,16.3
			c0.62,4.82,1.26,9.8,3.51,13.98c0.26,0.49,0.08,1.09-0.41,1.36C1640.42,832.17,1640.26,832.21,1640.1,832.21z"/>
		<path class="st4" d="M1686.99,891.79c-0.36,0-0.71-0.2-0.89-0.54c-8.82-16.9-17.99-32.68-33.18-39.95
			c-0.07,0.3-0.27,0.55-0.58,0.68c-0.9,0.36-1.36-0.16-1.49-0.33c-0.12-0.17-0.48-0.79,0.17-1.58c0.54-0.65,1.54-1.15,2.46-0.71
			c17.24,8.1,27.15,27.1,34.39,40.97c0.25,0.49,0.07,1.09-0.42,1.35C1687.31,891.75,1687.15,891.79,1686.99,891.79z"/>
		<path class="st4" d="M1701.69,900c-0.49,0-0.92-0.36-0.99-0.85l-3.82-25.79c-0.08-0.55,0.3-1.05,0.84-1.14
			c0.54-0.08,1.05,0.3,1.14,0.84l3.82,25.79c0.08,0.55-0.3,1.05-0.84,1.14C1701.79,899.99,1701.74,900,1701.69,900z"/>
		<path class="st4" d="M563.18,897.15c-0.4,0-0.78-0.24-0.93-0.64c-3.34-8.63-6.79-17.55-7.84-26.99
			c-2.3-20.69,8.05-41.95,25.75-52.9c4.85-3,8.88-4.2,12.67-3.78c3.81,0.42,7.18,2.54,10.26,4.77c9.77,7.07,18.3,15.62,25.35,25.41
			c0.32,0.45,0.22,1.07-0.23,1.4c-0.45,0.32-1.07,0.22-1.4-0.23c-6.92-9.61-15.3-18.01-24.9-24.95c-2.66-1.93-5.79-4.01-9.31-4.4
			c-3.33-0.37-6.95,0.74-11.4,3.49c-17.06,10.55-27.03,31.04-24.81,50.98c1.02,9.18,4.43,17.98,7.72,26.49
			c0.2,0.51-0.06,1.09-0.57,1.29C563.42,897.12,563.3,897.15,563.18,897.15z"/>
		<path class="st4" d="M528.73,890.62c-0.48,0-0.91-0.35-0.99-0.84c-2.79-17.57-5.11-34.75-2.94-51.9
			c0.59-4.63,1.65-9.89,5.06-13.72c2.02-2.27,4.72-3.84,7.11-5.22c8.4-4.88,17.93-10.41,28.3-12.17c0.85-0.14,1.71-0.26,2.58-0.39
			c3.55-0.5,6.9-0.97,9.55-2.91c0.44-0.33,1.07-0.23,1.4,0.22c0.33,0.45,0.23,1.07-0.22,1.4c-3.06,2.24-6.82,2.77-10.46,3.28
			c-0.85,0.12-1.69,0.24-2.52,0.38c-10.01,1.69-18.97,6.89-27.63,11.92c-2.37,1.37-4.81,2.79-6.62,4.82
			c-3.05,3.43-4.02,8.31-4.57,12.64c-2.14,16.89,0.17,33.92,2.93,51.34c0.09,0.55-0.29,1.06-0.83,1.14
			C528.84,890.61,528.78,890.62,528.73,890.62z"/>
		<path class="st4" d="M498.02,870.81c-0.52,0-0.95-0.4-1-0.92c-1.17-14.23,0.12-28.44,3.82-42.24c0.39-1.44,0.8-2.83,1.63-4.06
			c0.98-1.46,2.35-2.44,3.91-3.48c11.65-7.79,24.13-14.44,37.09-19.77c0.51-0.21,1.1,0.03,1.31,0.54c0.21,0.51-0.03,1.1-0.54,1.31
			c-12.84,5.28-25.2,11.87-36.74,19.58c-1.38,0.92-2.59,1.78-3.36,2.93c-0.66,0.97-1,2.14-1.35,3.46
			c-3.64,13.57-4.9,27.55-3.76,41.56c0.04,0.55-0.36,1.03-0.92,1.08C498.08,870.81,498.05,870.81,498.02,870.81z"/>
		<path class="st3" d="M723.9,578.84c27.05,5.4,51.36,20.04,77.89,27.61c12.17,3.47,25.55,5.35,37.21,0.45
			c2.85-1.2,5.99-4.2,4.4-6.86c-0.67-1.12-1.98-1.66-3.21-2.13c-28.66-10.95-57.32-21.91-85.98-32.86
			c-7.31-2.79-14.65-5.6-22.29-7.31c-4.51-1.01-10.64-0.74-12,3.67c-0.53,1.72-0.09,3.57,0.36,5.31
			C721.92,573.16,724.42,580.58,723.9,578.84z"/>
		<path class="st3" d="M539.62,733.08c7.16,2.97,14.4,6,20.6,10.64c3.28,2.46,6.23,5.34,9.62,7.65c4.51,3.07,9.77,5.05,15.18,5.71
			c1.6,0.2,3.64,0.02,4.2-1.49c0.39-1.04-0.18-2.17-0.8-3.09c-3.63-5.43-9.38-9.01-14.95-12.42c-8.56-5.24-17.55-10.63-27.56-11.31
			C542.85,728.57,538.92,729.56,539.62,733.08z"/>
		<path class="st3" d="M514.78,620.33c-0.33,14.03-1.3,28.05-2.91,42c-0.45,3.86-0.96,7.8-2.6,11.33c-1.63,3.53-4.58,6.66-8.37,7.56
			c-2.02-17.89-1.28-36.1,2.18-53.77c1.94-9.89,5.17-20.31,13.12-26.5C516.73,609.94,515.78,619.03,514.78,620.33z"/>
		<path class="st5" d="M730.65,762.94c-5.68,10.8-11.84,22.13-22.27,28.48c-2.69,1.64-5.83,2.92-8.93,2.34
			c-3.86-0.74-6.58-4.14-8.77-7.4c-5.13-7.61-9.44-15.77-12.84-24.29c-0.62,6.95-1.81,13.84-3.56,20.6
			c-1.4,5.43-3.36,11.06-7.65,14.67c-4.29,3.61-11.57,4.18-15.09-0.18c-2.97-3.69-2.16-9.16-0.3-13.52s4.64-8.45,5.27-13.14
			c0.26-1.97,0.14-3.97,0.37-5.94c0.28-2.34,1.06-4.59,1.84-6.81c5.51-15.72,11.01-31.44,16.52-47.16
			c-6.17,16.39-12.47,33-22.8,47.13c-2.31,3.15-4.95,6.8-3.99,10.59c0.29,1.13,0.9,2.19,0.94,3.36c0.12,2.87-2.94,4.66-4.8,6.85
			c-6.42,7.54,0.82,21.73-6.91,27.93c-1.71,1.37-3.89,2.02-6.06,2.27c-10.36,1.18-20.71-7.83-20.98-18.25
			c-0.14-5.25,1.55-11.55-2.4-15.01c-2.93-2.56-7.76-1.8-10.65,0.81c-2.89,2.61-4.21,6.54-4.88,10.37
			c-0.39,2.24-0.72,4.72-2.43,6.22c-1.09,0.95-2.55,1.33-3.95,1.67c-5.35,1.32-10.94,2.63-16.31,1.39
			c-5.37-1.25-10.37-5.92-10.02-11.42c0.08-1.16,0.38-2.34,0.13-3.48c-0.53-2.38-3.38-3.62-5.78-3.25
			c-2.41,0.38-4.45,1.92-6.38,3.41c-1.11,0.86-2.32,1.9-2.39,3.31c-0.06,1.33,0.93,2.44,1.85,3.39c3.98,4.1,7.96,8.19,11.94,12.29
			c0.91,0.93,1.86,1.89,3.08,2.33c1.84,0.66,3.87,0,5.83,0.03c2.93,0.04,5.78,1.8,6.99,3.61c12.45-3.44,25.62,1.8,36.79,8.28
			c1.76,1.02,3.53,2.09,5.48,2.65c1.75,0.5,3.59,0.58,5.4,0.65c9.94,0.39,20.03,0.71,29.55,3.59c10.79,3.26,21.21,9.8,32.38,8.41
			c4.43-0.55,8.62-2.35,12.47-4.61c10.88-6.38,19.33-16.49,24.68-27.91C727.38,785.76,729.75,773.08,730.65,762.94z"/>
		<path class="st3" d="M526.06,453.44c4.14-3.46,10.13-3.98,15.37-2.68c5.24,1.31,9.91,4.2,14.49,7.06c0.7,0.44,1.51,1.24,1.08,1.95
			c-0.25,0.42-0.81,0.52-1.3,0.54c-3.63,0.1-6.88-2.02-10.06-3.75s-7.06-3.14-10.35-1.61c-1.34,0.62-2.42,1.68-3.68,2.44
			c-1.26,0.77-2.88,1.24-4.2,0.57C525.56,457.02,525.59,453.84,526.06,453.44z"/>
		<path class="st3" d="M587.52,498.45c7.56,4.52,15.91,9.21,24.62,7.96c1.42-0.2,2.89-0.6,3.91-1.6c1.03-1,1.43-2.75,0.56-3.89
			c-0.7-0.92-1.96-1.18-3.12-1.28c-2.62-0.24-5.28,0-7.83,0.68c-1.38,0.37-2.75,0.87-4.17,0.89c-1.27,0.02-2.52-0.36-3.74-0.72
			C594.06,499.36,590.36,498.24,587.52,498.45z"/>
		<path class="st3" d="M583.06,677.64c7.18-10.27,14.46-20.7,18.54-32.55c3.36-9.75,4.45-20.12,5.51-30.39
			c2.95,0.55,4.44,3.79,5.42,6.62c2.62,7.6,4.93,15.52,4.37,23.54c-0.65,9.35-5.31,18.23-12.18,24.62S588.91,679.81,583.06,677.64z"
			/>
		<path class="st3" d="M589.06,710.81c4.66-0.97,9.66-1.27,14.03,0.59c4.38,1.86,7.89,6.36,7.38,11.08c-0.08,0.72-0.29,1.5-0.9,1.88
			c-0.73,0.47-1.69,0.17-2.48-0.19c-3.61-1.7-6.41-4.7-9.62-7.08c-3.21-2.37-7.34-4.18-11.14-2.94
			C585.89,711.99,587.82,709.65,589.06,710.81z"/>
		<path class="st3" d="M569.26,887.62c-2.52-7.86-5.06-15.8-5.9-24.01c-0.84-8.21,0.12-16.84,4.23-24
			c4.45-7.74,12.16-13.11,20.29-16.82c1.52-0.7,3.18-1.36,4.83-1.09c1.65,0.26,3.21,1.82,2.86,3.46c-0.23,1.04-1.11,1.78-1.97,2.41
			c-6.35,4.58-14.66,7.05-18.79,13.7c-2.43,3.93-2.97,8.7-3.31,13.31C570.7,865.28,570.62,876.05,569.26,887.62z"/>
		<path class="st3" d="M536.08,882.77c-3.57-10.98-4.58-22.78-2.91-34.2c0.8-5.5,2.22-10.92,4.28-16.08
			c2.22-5.54,5.29-10.91,9.91-14.7c4.62-3.79,10.99-5.78,16.72-4.11c2.36,0.69,4.9,3.08,3.69,5.22c-0.88,1.55-3.03,1.61-4.82,1.67
			c-9.06,0.3-17.8,6.05-21.36,14.38c-1.74,4.07-2.27,8.55-2.59,12.96c-0.67,9.4-0.45,18.86,0.66,28.21
			c0.22,1.87,0.47,3.83-0.25,5.57S536.72,884.74,536.08,882.77z"/>
		<path class="st3" d="M503.93,873.31c-1.36-12.36-0.63-24.96,2.16-37.08c1.15-5.01,2.78-10.15,6.4-13.8
			c2.61-2.64,6.05-4.27,9.46-5.74c6.73-2.9,13.64-5.37,20.69-7.39c0.14,2.86-3.06,4.56-5.72,5.61c-4.93,1.95-9.77,4.14-14.48,6.58
			c-2.08,1.07-4.18,2.23-5.72,3.98c-1.82,2.07-2.71,4.79-3.4,7.46c-3.51,13.49-3.35,27.73-6.92,41.2c-0.21,0.8-0.52,1.7-1.29,2.02
			S504.18,875.6,503.93,873.31z"/>
		<path class="st3" d="M494.74,883.48c-3.25-8.49-6.51-16.99-9.76-25.48c-1.03-2.68-2.06-5.39-2.42-8.24
			c-1.21-9.64,5.55-18.6,13.44-24.27c1.12,1.23,0.83,3.24-0.1,4.62s-2.33,2.35-3.51,3.52c-2.28,2.24-3.77,5.27-4.15,8.45
			c-0.29,2.5,0.08,5.02,0.46,7.51c1.18,7.79,2.35,15.57,3.53,23.36C492.73,876.25,493.54,880.01,494.74,883.48z"/>
		<path class="st3" d="M1039.21,750.56c-9.79-2.46-19.94-3.46-30.01-2.96c-4.17,0.21-8.38,0.67-12.51,0.05
			c-1.28-0.19-2.74-0.64-3.18-1.86c-0.32-0.89,0.04-1.9,0.62-2.64c1.77-2.29,5.07-2.59,7.96-2.57
			C1015.86,740.69,1029.6,744,1039.21,750.56z"/>
		<path class="st3" d="M1072.11,779.94c-11.76,3.68-24.45,4.37-36.54,1.99c-1.72-0.34-3.91-1.89-2.85-3.29
			c0.29-0.39,0.77-0.58,1.23-0.74c9.31-3.15,19.74,2.09,29.26-0.38c3.74-0.97,8.07-3.01,11.11-0.62
			C1075.01,778.8,1073.39,781.15,1072.11,779.94z"/>
		<path class="st3" d="M1351.69,592.27c35.25-18.79,78.85-14.51,116.21-0.38c9.22,3.49,18.74,7.96,24.08,16.25
			c-4.89,6.19-14.65,2.67-21.74-0.77c-28.35-13.72-61.25-17.83-92.1-11.51c-9.26,1.9-18.31,4.7-27.49,6.98
			c-2.69,0.67-5.51,1.3-8.22,0.71c-2.71-0.58-5.3-2.73-5.47-5.5C1336.79,595.28,1341.39,597.76,1351.69,592.27z"/>
		<path class="st3" d="M1295.85,443.59c-36.16,31.17-60.29,75.94-66.46,123.28c-1.69,12.96-1.96,26.69,3.7,38.46
			c1.3,2.71,3.63,5.65,6.61,5.21c2.83-0.42,4.24-3.6,5.02-6.35c7.36-26.06,3.5-54.47,12.12-80.14c9-26.8,30.33-47.23,47.1-69.99
			c2.31-3.13,4.65-6.79,3.99-10.63C1307.26,439.6,1302.56,437.8,1295.85,443.59z"/>
		<path class="st3" d="M1533.88,799.28c18.1-16.74,42.99-23.53,66.86-29.71c14.4-3.73,28.81-7.45,43.22-11.14
			c-6.42,6.06-15.52,8.13-24.08,10.32c-27.17,6.96-53.4,17.58-77.77,31.47c-1.92,1.1-4.19,2.25-6.24,1.41
			S1533.74,796.91,1533.88,799.28z"/>
		<path class="st3" d="M1747.34,690.59c11.76-2.19,23.51-4.37,35.27-6.56c-5.67-3.68-13.04-3.9-19.57-2.14
			S1750.63,687.18,1747.34,690.59z"/>
		<path class="st3" d="M1748.91,670.96c9.88,0.02,19.76-2,28.84-5.9C1766.6,663.5,1754.97,665.68,1748.91,670.96z"/>
	</g>
	<path class="st142" d="M531.66,477.99c-23.65-10.54-54.95,3.28-63.07,27.87c-27.63-27.93-64.24-46.84-103-53.19
		c-7.79-1.28-15.82-2.06-23.52-0.34c-9.24,2.07-17.34,7.58-24.65,13.61c-16.88,13.91-30.95,31.2-41.13,50.55
		c-1.49,2.84-2.91,6.28-1.42,9.11c2.01,3.86,7.55,3.62,11.77,2.59c18.85-4.59,36.49-14.04,50.75-27.19
		c-11.03,21.41-32.18,37.32-55.81,41.98c41.55,52.51,65.05,119.05,65.69,186.01c-7.23-6.22-10.28-15.86-15.01-24.13
		c-4.74-8.28-13.32-16.13-22.65-14.17c7.62,24.38,11.05,50.05,10.09,75.57c-8.3-12.87-16.61-25.74-24.91-38.6
		c9.74,30.93,13.98,63.58,12.46,95.97c-4.16-16.69-11.45-32.6-21.38-46.65c10.51,22.17,17.5,46.01,20.63,70.35
		c0.01,0.07,0.02,0.13,0.03,0.2c-0.13-0.19-0.26-0.39-0.39-0.58c-8.63-12.93-19.72-24.22-32.51-33.07c2.81,3.12,5.52,6.32,8.11,9.58
		c11.27,14.21,20.19,29.45,24.53,42.95c-27.77-1.09-56.79-2.54-80.83-16.47c-9.59-5.56-18.04-12.93-27.69-18.39
		c-11.81-6.68-25.07-10.31-37.56-15.63c-46.8-19.93-79.67-65.11-90.3-114.88c-4.18-19.56-4.93-39.83-1.73-59.55
		c4.6-28.4,16.12-55.12,24.79-82.55c3.98-12.57,7.36-25.34,12.09-37.65c15.71-40.91,45.6-75.03,79.21-103.16
		c34.1-28.56,75.03-52.6,119.5-53.17c47.16-0.61,90.08,24.85,134.6,40.4c23.5,8.21,47.93,13.74,72.67,16.45
		c-15.37-0.12-26.03,20.83-16.9,33.18C502.95,466.93,521.89,466.81,531.66,477.99z"/>
	<path class="st141" d="M239.4,750.21c3.64,9.73,7.28,19.44,10.93,29.17C245.77,770.03,242.1,760.25,239.4,750.21z"/>
	<path class="st141" d="M281.74,823.46c11.27,14.21,20.19,29.45,24.53,42.95c-27.77-1.09-56.79-2.54-80.83-16.47
		c-9.59-5.56-18.04-12.93-27.69-18.39c-11.81-6.68-25.07-10.31-37.56-15.63c-46.8-19.93-79.67-65.11-90.3-114.88
		c11.55,29.19,30.64,55.38,55.7,74.33l-15.39-68.04c16.44,39.54,34.06,80.72,67.11,107.95c-5.8-31.69-11.62-63.63-11.23-95.85
		c11.53,29.26,27.61,56.72,47.5,81.09c0.1-15.18,0.21-30.36,0.31-45.54c7.16,13.08,14.33,26.17,21.49,39.26
		c-4.24-19.16-8.48-38.32-12.71-57.48l28.14,43.89c-0.16-0.42-0.32-0.85-0.48-1.27c7.03,14.42,16.18,27.82,27.09,39.58
		C278.83,820.49,280.28,821.98,281.74,823.46z"/>
	<path class="st141" d="M306.53,847.53c-0.13-0.19-0.26-0.39-0.39-0.58c0.12,0.13,0.24,0.25,0.36,0.38
		C306.51,847.4,306.52,847.46,306.53,847.53z"/>
	<path class="st141" d="M157.16,468.95c-46.93,52.98-69.4,126.79-59.97,196.94c-0.58-21.12,3.66-42.36,12.31-61.64
		c-3.98,18.47-5.04,37.56-3.13,56.35c4.05-26.41,10.68-52.43,19.76-77.57c-1.02,12.16-2.04,24.33-3.05,36.49
		c2.99-33.89,17.09-66.71,39.6-92.22c-20.9,35.14-26.81,78.87-15.97,118.3c6.36-46.69,13.86-96.08,44.04-132.27
		c-5.24,16.85-10.47,33.71-15.71,50.56c5.41-12.42,10.81-24.84,16.22-37.26c-0.02,7.31-0.04,14.62-0.06,21.93
		c7.78-25.95,17.64-51.27,29.43-75.66c-21.8-1.08-45.8-1.49-62.73,12.29C158.18,476.96,158.48,468.73,157.16,468.95z"/>
	<path class="st141" d="M171.89,462.56c4.37-14.59,9.01-29.1,13.94-43.52c0.91,9,1.81,18,2.72,27.01
		c4.43-9.22,10.07-17.85,16.73-25.61c-3.63,6.9-6.62,14.13-8.91,21.58c4.82-7.59,11.77-13.8,19.84-17.75
		c-2.31,4.37-4.62,8.74-6.93,13.1c5.99-3.22,11.99-6.44,17.98-9.66c-3.16,4.93-6.32,9.86-9.49,14.79c2.19-1.35,4.37-2.7,6.56-4.05
		c-6.38,16.34-24.11,27.49-41.6,26.15C179.39,464.35,175.47,463.9,171.89,462.56z"/>
	<path class="st141" d="M213.8,628.81c1.23,42.06,14.92,83.68,38.91,118.26c-3.6-18.14-6.24-36.46-7.91-54.88
		c2.52,16.51,5.54,34.09,16.92,46.31c-0.88-11.61-1.77-23.21-2.65-34.82c0.74,13.43,7.25,26.45,17.56,35.1
		c-7.07-31.72-28.32-58.18-41.48-87.9c-10.86-24.52-16.17-51.47-15.42-78.27C218.12,600.4,218.09,628.29,213.8,628.81z"/>
</g>
</svg>
