<svg width="2000" height="1040" viewBox="0 0 2000 1040" fill="none" xmlns="http://www.w3.org/2000/svg">
<g clip-path="url(#clip0_101_982)">
<path d="M2000 0H0V1477.27H2000V0Z" fill="url(#paint0_linear_101_982)"/>
<path d="M1141.31 971.27C1157.83 964.29 1174.89 958.59 1192.28 954.23C1200.3 952.22 1213.31 956.64 1208.95 963.66C1205.54 946.06 1232.17 932.22 1244.61 945.12C1262.07 917.99 1294.08 900.88 1326.34 901.44C1330.39 903.85 1334.44 906.27 1338.49 908.68C1347.8 900.02 1357.86 890.98 1370.39 888.83C1382.92 886.68 1398.05 894.94 1398.09 907.65C1408.98 897.76 1423.91 892.46 1438.6 893.27C1456.68 913.01 1465.07 943.02 1454.32 967.54C1443.56 992.05 1411 1006.21 1387.78 992.88C1386.18 1002.54 1384.58 1012.19 1382.98 1021.85C1376.95 1006.58 1356.38 999.19 1342.01 1007.13C1327.64 1015.07 1322.94 1036.41 1332.65 1049.64C1322.47 1041.23 1305.06 1044.17 1298.2 1055.46C1291.34 1066.75 1296.78 1083.56 1308.94 1088.7C1299.83 1079.38 1283.58 1078.28 1273.29 1086.28C1263 1094.28 1260.07 1110.31 1266.87 1121.43C1256.85 1125.5 1246.26 1131.1 1242.27 1141.15C1238.27 1151.2 1246.12 1165.56 1256.71 1163.36C1234.72 1151.03 1202.64 1166.18 1198.19 1190.99C1169.56 1171 1135.9 1158.27 1101.21 1154.3C1087.51 1152.73 1069.35 1155.78 1067.06 1169.37C1069.73 1176.57 1080.49 1169.36 1082.89 1162.07C1096.62 1120.42 1075.25 1070.21 1035.71 1051.24C1061.2 1056.02 1085.62 1025.42 1075.31 1001.62C1104.34 1013.71 1141.92 992.04 1141.31 971.27Z" fill="#495760"/>
<path d="M1237 719.3C1242.8 721.37 1243.55 729.53 1241.25 735.21C1238.93 740.91 1234.66 745.91 1233.84 752.01C1233.16 756.83 1234.77 761.67 1234.95 766.53C1235.84 789.26 1206.65 808.85 1215.68 829.73C1223.84 834 1222.23 846 1219.41 854.78C1210.98 881.17 1202.55 907.53 1194.14 933.92C1198.05 934.35 1201.98 934.81 1205.91 935.26C1206.21 942.08 1204.07 948.35 1200.64 954.15C1195.82 962.26 1188.41 969.45 1181.34 975.88C1164.7 990.97 1148.07 1006.08 1131.43 1021.2C1129.34 1023.11 1126.79 1025.15 1124 1024.68C1122.41 1024.43 1121.32 1022.79 1121.16 1021.27C1109.3 1042.04 1097.41 1062.86 1085.55 1083.63C1083.23 1087.68 1080.87 1091.79 1078.1 1095.54C1075.85 1098.56 1073.33 1101.36 1070.33 1103.68C1062.67 1109.63 1052.88 1111.79 1043.72 1114.98C1017.77 1124 995.11 1142.12 968.11 1147.28C950.5 1150.67 932.36 1148.23 914.61 1145.8C911 1145.3 907.38 1144.8 903.75 1144.3C900.18 1141.5 897.59 1137.44 896.98 1132.91C896.18 1126.96 898.931 1120.82 903.531 1116.98C889.031 1122.71 871.48 1120.71 858.98 1111.28C844.34 1100.26 837.57 1079.83 842.68 1062.23C823.52 1072.89 796.73 1066.59 784.29 1048.5C774.68 1046.41 764.68 1048.27 754.86 1047.89C745.02 1047.5 734.13 1043.94 729.91 1035.03C728.09 1031.19 728.591 1026.53 730.521 1022.76C716.091 1027.65 699.25 1025.9 684.91 1019.96C668.86 1013.32 655.25 1002.21 642.23 990.6C646.05 992.69 649.59 995.28 652.73 998.33C657.59 982.65 665.07 966.53 679.18 958.15C693.29 949.76 715.271 953.42 721.021 968.81C731.971 941.58 770.681 930.42 794.451 947.61C799.341 936.38 804.75 924.54 814.93 917.75C825.11 910.95 841.54 912.09 846.91 923.11C845.21 912.09 851.3 900.31 861.3 895.36C871.28 890.41 884.35 892.66 892.1 900.68C901.51 880.52 933.621 876.61 947.581 893.95C954.511 881.5 975.35 880.7 983.19 892.61C984.62 880.63 993.62 869.88 1005.19 866.38C1016.74 862.88 1030.19 866.81 1038.03 875.99C1047.33 857.74 1071.17 848.4 1090.39 855.51C1088.91 839.49 1100.91 823.33 1116.69 820.1C1100.14 800.46 1112.62 764.76 1137.8 759.71C1126.75 742.37 1143.37 715.41 1163.82 717.53C1168.07 705.73 1172.5 693.58 1181.09 684.44C1189.68 675.33 1203.59 669.96 1215.04 675.01C1215.88 665.44 1218.13 654.76 1226.22 649.58C1234.29 644.4 1248.4 651.24 1245.47 660.4C1241.63 660.38 1237.79 660.35 1233.92 660.33C1246.65 663.51 1256.6 675.6 1257.28 688.69C1257.95 701.75 1249.32 714.82 1237 719.3Z" fill="#495760"/>
<path d="M397.01 630.78C370.66 635.76 350.67 609.23 329.86 592.32C285.94 556.63 223.47 560.56 167.02 556.59C123.89 553.56 81.1603 544.84 39.8203 532.19C60.4203 513.39 86.1803 501.32 111.92 490.59C178.77 462.73 251.61 441.72 323.09 453.4C361.72 459.71 401.43 478.04 419.42 512.81C428.14 529.66 430.99 548.83 433.71 567.6C434.27 571.47 434.83 575.44 433.94 579.25C433.16 582.59 431.31 585.58 429.43 588.45C420.13 602.69 409.44 616.01 397.01 630.78Z" fill="black"/>
<path d="M990.34 192.43C977.25 239.57 964.16 286.7 951.09 333.84C943.09 362.68 934.18 392.91 917.68 417.25C911.36 426.57 903.93 435 895.02 442.18C862.86 468.09 818.66 471.52 777.41 473.88C725.93 476.81 674.48 479.72 623 482.65C619.68 482.83 616.34 483.04 613.02 483.22L602.18 484.27L601.13 484.36L507.45 493.34H507.43L445.86 499.23H445.84L439.27 499.87L413.02 502.39L359.97 507.46L288.06 514.35L55.06 536.67L0 541.93V0H959.52L948.22 74.89C948.22 74.89 948.72 76.32 949.65 78.87C955.81 96.26 980.47 165.6 988.1 186.51C989.36 189.91 990.16 192.02 990.34 192.43Z" fill="#709EB8"/>
<path d="M917.68 417.25C911.36 426.57 903.93 435 895.02 442.18C862.86 468.09 818.66 471.52 777.41 473.88C725.93 476.81 674.48 479.72 623 482.65C619.68 482.83 616.34 483.04 613.02 483.22L602.18 484.27L601.13 484.36L507.45 493.34H507.43L445.86 499.23H445.84L439.27 499.87L413.02 502.39L359.97 507.46L288.06 514.35L55.06 536.67L0 541.93V403.82C30.73 402.77 61.41 401.73 92.14 400.68C193.8 397.2 295.53 393.75 397.25 392.18H397.27C423.09 391.77 448.91 391.5 474.72 391.38C481.24 391.36 487.74 391.33 494.24 391.33C503.65 391.31 513.04 391.31 522.42 391.33C524.17 391.35 525.94 391.35 527.72 391.35C564.17 391.51 600.63 392.01 637.06 392.94C699.51 394.53 761.92 397.44 824.26 402.05C855.55 404.39 888.07 407.64 917.68 417.25Z" fill="#4E768F"/>
<path d="M635.98 416.73C633.25 439 627.03 460.73 623 482.66C619.68 482.84 616.34 483.05 613.02 483.23L288.07 514.34C312.91 496.89 334.66 473.09 353.37 449.09C388.87 403.5 421.76 352.2 473.37 326.23C492.1 316.82 512.64 311.18 533.48 308.82C559.87 305.82 588.71 308.73 609.12 325.75C634.43 346.89 639.98 383.98 635.98 416.73Z" fill="url(#paint1_linear_101_982)"/>
<path opacity="0.749" d="M403.17 550.82C386.55 538.26 371.74 523.32 359.32 506.6C354.23 499.74 349.32 491.3 351.8 483.13C353.22 478.45 356.85 474.82 360.39 471.45C386.62 446.48 415.39 424.18 446.12 405C471.71 389.03 513.16 378.68 519.32 383.34C524.2 387.03 523.28 409.36 523.06 413.67C522.37 427.15 521.2 440.61 519.54 454.01C517.99 466.58 515.89 479.45 509.4 490.32C504.12 499.17 496.23 506.14 488.22 512.63C460.07 535.42 428.6 554.13 403.17 550.82Z" fill="url(#paint2_linear_101_982)"/>
<path d="M0 270.02C256.57 252.09 513.16 234.16 769.7 216.22C831.59 211.88 893.65 207.54 954.45 195.2C965.79 192.88 977.18 190.27 988.11 186.5C980.47 165.59 955.81 96.25 949.66 78.86C928.39 96.63 898.23 100.22 870.86 102.34C580.84 124.95 290.52 143.91 0 159.18V270.02Z" fill="#8BB0C5"/>
<path d="M519.55 382.91C541 405.1 562.45 427.29 583.91 449.47C594.13 460.04 605.19 474.05 600.21 487.88C595.53 500.89 579.74 505.15 566.49 509.11C526.95 520.93 490.71 546.07 450.16 550.21C444.6 551.17 439.04 552.13 433.49 553.08C428.8 533.3 432.01 511.76 442.26 494.2C446.98 486.12 453.09 478.91 457.73 470.79C460.83 465.37 463.24 459.6 465.65 453.84C471.73 439.3 477.81 424.77 483.89 410.23C486.98 402.84 490.2 395.25 495.85 389.58C501.48 383.9 510.22 380.53 519.55 382.91Z" fill="url(#paint3_linear_101_982)"/>
<path d="M377.08 621.07C357.74 592.48 391.37 535.95 452.19 494.81C513.01 453.67 578 443.5 597.33 472.09C616.67 500.68 583.04 557.21 522.22 598.35C461.4 639.49 396.42 649.66 377.08 621.07Z" fill="url(#paint4_radial_101_982)"/>
<path d="M2000 900.59V1054.04C1996.89 1060.38 1994.45 1067.38 1992.05 1073.79C1985.98 1089.97 1971.12 1107.9 1954.94 1101.79C1951.49 1100.49 1948.49 1098.18 1944.99 1096.95C1930.76 1091.97 1917.42 1106.93 1912.35 1121.13C1907.26 1135.31 1904.42 1152.13 1891.8 1160.36C1878.21 1169.22 1860 1163.72 1844.25 1167.47C1826.86 1171.58 1813.34 1188.4 1813.05 1206.24C1807.37 1211.17 1799.37 1212.26 1791 1212.33C1774.18 1212.42 1755.89 1208.38 1752.02 1222.94C1750.63 1228.21 1752.5 1233.85 1751.59 1239.21C1749.45 1251.64 1734.34 1256.71 1721.75 1257.46C1709.14 1258.21 1694.77 1257.82 1686.18 1267.07C1681.93 1271.64 1679.98 1277.82 1676.68 1283.12C1666.5 1299.57 1644.88 1305.42 1625.59 1303.92C1606.29 1302.42 1587.95 1295.15 1568.98 1291.35C1564.21 1290.4 1559.05 1289.71 1554.64 1291.76C1550.14 1293.85 1547.34 1298.35 1544.05 1302.1C1523.46 1325.49 1485.16 1317.62 1457.55 1303.17C1450.89 1299.69 1444 1295.85 1436.5 1295.94C1429.98 1296.01 1423.91 1299.05 1417.86 1301.51C1388.43 1313.44 1353.7 1311.56 1331.31 1311.94C1325.76 1299.26 1320.74 1286.33 1316.29 1273.21C1307.13 1246.46 1300.22 1218.94 1295.65 1191.03C1303.06 1183.71 1311.1 1176.03 1321.35 1174.12C1326.08 1173.23 1331.28 1174.26 1335.49 1176.6C1335.81 1174.83 1336.44 1173.12 1337.38 1171.71C1348.61 1154.73 1370.93 1145.94 1390.72 1150.69C1395.42 1125.1 1426.31 1108.05 1450.45 1117.69C1456.88 1098.78 1483.88 1090.8 1499.56 1103.19C1504.4 1088.01 1519.22 1076.6 1535.11 1075.76C1551.02 1074.94 1566.93 1084.76 1573.31 1099.35C1571.92 1083.71 1584.38 1068.12 1599.92 1065.99C1615.49 1063.88 1631.65 1075.58 1634.49 1091.01C1651.29 1065.33 1695.47 1065.49 1712.08 1091.26C1723.6 1073.1 1752.13 1091.51 1773.08 1086.69C1781.08 1084.85 1787.81 1079.42 1795.58 1076.8C1803.38 1074.19 1813.99 1075.85 1816.69 1083.6C1817.14 1053.21 1856.03 1031.03 1882.42 1046.1C1881.9 1016.96 1917.37 993.85 1943.83 1006.1C1937.08 992.1 1940.85 973.83 1952.56 963.6C1964.26 953.4 1982.88 952.15 1995.86 960.71C1983.59 949.12 1980.18 929.21 1987.93 914.21C1990.75 908.75 1994.98 904.11 2000 900.59Z" fill="#495760"/>
<path d="M2000 752.2V1477.27H1258.86C1264.88 1464.09 1273.41 1452.07 1284.06 1442.22C1261.61 1433.29 1239.17 1424.33 1216.72 1415.4C1214.9 1400.08 1217.11 1384.31 1223.02 1370.06C1217.5 1368.2 1211.97 1366.33 1206.45 1364.45C1202.54 1363.13 1198.63 1361.81 1194.72 1360.5C1196.15 1327.16 1180.86 1293.52 1154.83 1272.66C1156.42 1283.8 1141.76 1291.64 1131.24 1287.73C1124.83 1285.34 1120.01 1280.43 1116.29 1274.59C1113.88 1270.84 1111.93 1266.7 1110.27 1262.64C1106.04 1252.21 1102.68 1240.94 1094.68 1233.05C1084 1268.85 1040.11 1290.62 1005.13 1277.41C997.52 1274.55 991.38 1261.77 999.45 1260.57C987.88 1262.5 975.52 1264 964.86 1259.12C954.22 1254.21 946.86 1240.42 952.91 1230.37C940.8 1237.57 926.36 1242.19 912.57 1239.28C898.8 1236.37 886.41 1224.23 886.68 1210.14C886.93 1197.12 901.02 1185.66 913.09 1189.07C897.98 1181.64 898.43 1153.55 915.25 1148.14C911.09 1148.34 906.98 1146.84 903.73 1144.28C900.16 1141.48 897.57 1137.42 896.96 1132.89C896.16 1126.94 898.91 1120.8 903.51 1116.96C889.01 1122.69 871.46 1120.69 858.96 1111.26C844.32 1100.24 837.55 1079.81 842.66 1062.21C823.5 1072.87 796.71 1066.57 784.27 1048.48C774.66 1046.39 764.66 1048.25 754.84 1047.87C745 1047.48 734.11 1043.92 729.89 1035.01C728.07 1031.17 728.57 1026.51 730.5 1022.74C716.07 1027.63 699.23 1025.88 684.89 1019.94C668.84 1013.3 655.23 1002.19 642.21 990.58C639.94 988.56 637.66 986.51 635.41 984.47C635.05 984.15 634.71 983.83 634.34 983.52C626.93 976.75 619.41 969.11 618.04 959.25C616.61 948.93 626.54 937 636.24 940.86C628.13 922.72 655.17 901.88 670.65 914.36C676.65 907.06 683.65 899.18 693.06 898.29C696.79 897.93 700.56 899.54 703.38 902.06C704.06 894.58 707.88 887.33 714.11 883.06C723.86 876.38 738.29 877.92 746.63 886.24C741.52 879.63 746.54 867.97 754.45 866.13C752.34 866.15 750.22 866.11 748.09 866.04H748.07C722.43 864.99 697.14 856.7 675.96 842.15C659.3 851.85 636.87 850.49 621.51 838.88C621.42 836.79 621.94 834.72 622.92 832.9C623.67 831.47 624.69 830.17 625.9 829.08C622.92 830.19 619.88 831.15 616.81 831.94C606.97 834.53 596.7 835.51 586.54 834.8C579.84 834.32 572.59 832.82 568.24 827.66C567.17 826.41 566.42 824.86 565.99 823.25C564.69 818.25 566.44 812.36 571.29 810.86C560.02 813.95 547.43 816.93 537.06 811.52C526.67 806.11 523.45 788.22 534.15 783.52C524.99 780.77 515.1 777.5 509.79 769.54C504.47 761.59 507.77 747.81 517.29 746.9C505.95 748.04 495.36 741.01 489.56 731.33C484.99 723.67 483.42 714.33 486.86 706.01C476.97 702.51 471.79 691.67 472.25 681.37C472.52 675.07 474.91 669.01 479.64 664.92C471.19 670.67 458.41 669.44 451.48 661.83C449.96 653.44 452.96 644.63 458.64 638.35C460.78 635.99 463.3 633.99 466.12 632.49C454.67 635.88 440.44 628.56 437.64 616.65C434.5 603.31 446.73 588.72 460.41 589.49C448.89 583.26 437.34 577.06 425.82 570.83C427.37 563.63 435.82 558.78 442.82 561.1C423.5 552.58 431.73 518.74 450.66 503.42C470.82 487.1 493.91 474.44 518.5 466.19C522.75 464.74 527.07 463.42 531.41 462.26C551.18 456.96 574.46 455.21 590 468.49C598 475.33 602.75 485.24 610.2 492.63C617.68 500.04 630.43 504.4 638.45 497.61C643.45 493.41 645.18 486 650.65 482.45C658.33 477.5 668.83 482.97 674.22 490.38C679.58 497.79 682.29 507.02 688.36 513.83C696.18 522.6 709.36 526.13 720.52 522.42C734.22 517.87 742.72 504.47 754.2 495.72C765.68 486.95 786.27 485.45 791.22 499.02C794.11 506.95 791.7 519.04 799.81 521.32C806.99 523.34 815.49 513.93 821.06 518.91C822.79 520.48 823.33 522.93 823.99 525.16C830.15 545.77 852.19 556.57 872.01 564.96C878.96 561.78 887.46 562.26 894.01 566.21C898.4 557.07 903.1 547.55 911.37 541.71C919.64 535.87 932.62 535.39 938.8 543.41C950.1 558.11 930.39 585.09 945.39 595.98C956.87 604.32 971.64 590.14 976.46 576.8C981.28 563.48 985.96 546.55 999.87 543.85C1006.48 542.55 1013.17 545.19 1019.37 547.78C1034.07 553.92 1051.62 564.87 1048.76 580.53C1047.21 588.96 1039.65 596.1 1040.67 604.6C1042.03 615.8 1058.62 619.37 1067.37 612.26C1076.12 605.15 1078.05 592.49 1077.1 581.24C1076.12 569.54 1072.85 557.22 1077.58 546.47C1082.31 535.74 1100.26 531.08 1105.03 541.81C1104.19 531.26 1105.89 519.9 1112.85 511.9C1119.78 503.92 1132.99 500.9 1141.21 507.54C1145.89 497.29 1159.78 492.49 1169.8 497.63C1179.82 502.79 1183.98 516.86 1178.37 526.63C1190.21 528.52 1197.07 542.24 1195.78 554.15C1194.48 566.04 1187.35 576.4 1180.42 586.17C1187.53 578.56 1201.6 584.08 1205.69 593.67C1209.78 603.26 1207.05 614.26 1203.96 624.22C1220.23 621.11 1234.05 607.7 1237.69 591.54C1238.76 586.77 1239.08 581.65 1241.8 577.59C1244.5 573.54 1250.89 571.39 1254.25 574.93C1260.2 565.07 1276.59 564.16 1283.57 573.32C1286.37 564.73 1296.5 559.27 1305.21 561.71C1313.94 564.12 1319.8 574.01 1317.78 582.8C1325.76 574.39 1339.98 572.87 1349.55 579.41C1359.14 585.96 1362.89 599.75 1357.96 610.25C1375.98 604.75 1395.94 625.27 1389.91 643.11C1405.66 646.54 1413.34 668.81 1403.07 681.22C1408.93 675.31 1419.71 675.42 1425.46 681.47C1431.19 687.49 1430.76 698.27 1427.23 703.83C1450.71 713.13 1463.34 743.28 1453.5 766.53C1465.68 770.71 1475.23 781.8 1477.55 794.46C1478.37 799.03 1478.41 803.98 1481.1 807.78C1488.9 818.78 1514.21 815.23 1512.21 828.55C1527.28 818.41 1546.46 814.6 1564.26 818.19C1563.9 806.24 1576.69 795.83 1588.31 798.6C1586.72 770.96 1617.79 746.92 1644.15 755.4C1678.56 717.26 1732.29 697.58 1783.2 704.42C1802.2 704.37 1802.95 737.17 1820.7 744.01C1836 728.37 1867.95 739.08 1870.7 760.78C1879.68 753.39 1893.22 754.01 1903.65 759.17C1914.06 764.35 1922.04 773.24 1929.76 781.92C1930.35 769.53 1945.24 763.9 1957.37 761.31C1971.59 758.27 1985.8 755.23 2000 752.2Z" fill="#576975"/>
<path d="M987.019 749.59C989.449 754.82 987.409 760.93 985.359 766.34C982.699 773.32 980.039 780.32 977.379 787.32C975.469 801.05 965.079 813.02 952.129 817.71C949.199 827.07 942.429 835.21 933.809 839.89C934.239 839.96 934.649 840.05 935.059 840.16C932.879 853.84 919.149 864.64 905.329 863.52C909.169 857.72 905.899 849.22 899.919 845.66C893.969 842.09 886.349 842.48 879.689 844.43C874.049 846.09 868.739 848.77 864.079 852.29C854.529 859.52 847.219 870.49 835.719 873.79C824.219 877.11 809.199 863.56 817.169 854.63C793.899 864.52 763.739 843.88 764.509 818.61C753.599 825.75 743.599 834.59 731.439 839.34C713.849 846.18 694.189 843.52 675.509 840.79C657.959 838.22 640.419 835.63 622.899 832.88C620.849 832.58 618.829 832.27 616.789 831.93C599.809 829.25 582.859 826.41 565.969 823.25C564.669 818.25 566.419 812.36 571.269 810.86C559.999 813.95 547.409 816.93 537.039 811.52C526.649 806.11 523.429 788.22 534.129 783.52C524.969 780.77 515.079 777.5 509.769 769.54C504.449 761.59 507.749 747.81 517.269 746.9C505.929 748.04 495.339 741.01 489.539 731.33C484.969 723.67 483.399 714.33 486.839 706.01C476.949 702.51 471.769 691.67 472.229 681.37C479.029 681.6 485.369 684.96 486.909 691.51C481.839 671.74 506.269 651.67 524.679 660.44C528.519 654.03 534.069 647.58 541.499 647.05C547.019 646.66 552.389 651.85 552.679 656.78C560.109 642.42 585.839 640.1 593.839 655.19C597.339 644.28 610.889 637.85 621.539 642.05C628.469 644.8 633.239 651.66 634.379 658.96C637.239 651.6 643.519 645.46 651.199 643.46C662.719 640.46 675.949 647.1 680.449 658.12C685.769 647.64 691.929 636.35 702.769 631.8C711.339 628.19 723.069 632.19 726.789 639.75C727.129 631.93 732.719 624.23 740.469 622.45C750.469 620.15 761.539 628.31 762.289 638.56C763.879 628.79 773.339 620.97 783.219 621.22C793.109 621.49 802.149 629.83 803.199 639.67C806.309 633.4 814.699 630.42 821.059 633.33C827.399 636.24 830.629 644.56 827.899 650.99C833.829 643.31 843.099 638.31 852.789 637.63C856.379 643.65 858.649 650.47 859.359 657.47C862.249 649.95 866.659 642.13 874.249 639.47C878.839 637.86 884.449 639.52 887.769 642.81C886.199 629.33 896.519 614.33 910.499 613.24C906.159 608.74 909.319 599.74 915.499 598.9C921.699 598.08 927.109 605.95 924.089 611.42C933.389 608.22 944.589 611.9 950.159 619.99C955.709 628.08 955.109 639.88 948.769 647.38C955.569 640.06 965.679 635.95 975.659 636.45C976.069 649.09 975.249 661.75 973.209 674.2C981.639 668.45 993.619 677.88 994.229 688.06C994.839 698.22 988.429 707.33 982.339 715.49C990.609 723.19 988.609 738.04 980.289 745.01C983.049 745.41 985.839 747.05 987.019 749.59Z" fill="#495760"/>
<path d="M912.821 789.82C880.731 822.55 837.821 844.46 792.481 851.25C785.641 852.27 778.711 852.95 772.071 854.95C763.981 857.36 756.571 861.59 749.091 865.5C748.751 865.68 748.431 865.84 748.091 866.02H748.071C722.431 864.97 697.141 856.68 675.961 842.13C659.301 851.83 636.871 850.47 621.511 838.86C621.351 835.13 623.121 831.52 625.901 829.06C613.381 833.72 599.881 835.72 586.541 834.79C579.841 834.31 572.591 832.81 568.241 827.65C563.901 822.51 564.881 812.85 571.291 810.85C560.021 813.94 547.431 816.92 537.061 811.51C526.671 806.1 523.451 788.21 534.151 783.51C524.991 780.76 515.101 777.49 509.791 769.53C504.471 761.58 507.771 747.8 517.291 746.89C505.951 748.03 495.361 741 489.561 731.32C502.421 707.57 515.361 675.52 538.201 681.3C553.111 685.05 549.681 709.82 555.431 724.1C559.881 709.83 568.611 695.42 582.821 690.85C595.501 686.76 611.771 695.33 613.481 707.67C615.641 692.01 637.161 682.19 652.621 688.72C669.571 695.88 678.481 714.81 681.711 732.92C686.031 721.92 702.691 721.08 711.851 728.58C721.011 736.08 724.511 748.31 727.531 759.74C755.871 744.04 769.171 697.81 801.581 697.65C808.171 697.6 809.991 707.79 814.191 712.88C832.851 713.33 849.641 730.02 850.261 748.68C860.401 742.27 876.561 729.5 884.351 738.63C892.401 748.04 892.621 763.65 905.011 764.24C908.991 764.42 913.311 763.6 916.761 765.56C925.021 770.27 919.481 783.02 912.821 789.82Z" fill="#3A474F"/>
<path d="M1288.02 1247.39C1283.75 1259.78 1274.86 1270.14 1264.61 1278.32C1250.5 1289.62 1231.93 1297.48 1214.38 1293.02C1196.86 1288.57 1183.33 1267.97 1191.15 1251.66C1179.63 1260.84 1167.22 1270.39 1152.58 1271.8C1138.4 1273.16 1122.19 1263.14 1122.03 1249.14C1121.87 1258.05 1119.8 1266.59 1116.28 1274.59C1113.87 1270.84 1111.92 1266.7 1110.26 1262.64C1106.03 1252.21 1102.67 1240.94 1094.67 1233.05C1083.99 1268.85 1040.1 1290.62 1005.12 1277.41C997.51 1274.55 991.37 1261.77 999.44 1260.57C987.87 1262.5 975.51 1264 964.85 1259.12C954.21 1254.21 946.85 1240.42 952.9 1230.37C940.79 1237.57 926.35 1242.19 912.56 1239.28C898.79 1236.37 886.4 1224.23 886.67 1210.14C886.92 1197.12 901.01 1185.66 913.08 1189.07C897.97 1181.64 898.42 1153.55 915.24 1148.14C906.51 1148.57 898.1 1141.53 896.94 1132.89C896.14 1126.94 898.89 1120.8 903.49 1116.96C888.99 1122.69 871.44 1120.69 858.94 1111.26C844.3 1100.24 837.53 1079.81 842.64 1062.21C823.48 1072.87 796.69 1066.57 784.25 1048.48C774.64 1046.39 764.64 1048.25 754.82 1047.87C744.98 1047.48 734.09 1043.92 729.87 1035.01C728.05 1031.17 728.55 1026.51 730.48 1022.74C716.05 1027.63 699.21 1025.88 684.87 1019.94C666.03 1012.14 650.51 998.17 635.39 984.46C635.03 984.14 634.69 983.82 634.32 983.51C634.55 982.51 634.8 981.51 635.07 980.51C641.68 957.01 679.48 945.31 690 967.33C690.16 945.19 720.16 929.99 738.11 942.94C746.25 913.94 793.45 907.85 808.7 933.83C811.61 922.38 826.79 917.97 837.84 922.19C848.89 926.42 856.57 936.33 863.66 945.8C880.73 968.6 907.43 905.05 935.32 923.28C998.34 964.48 954.57 1054.23 967 1079.35C986.18 1058.87 1005.36 1038.37 1024.52 1017.87C1017.16 1004.03 1009.66 989.69 1008.34 974.07C1007.02 958.43 1013.54 941.05 1027.75 934.37C1041.55 927.89 1061.18 951.89 1062.25 953.21C1061.43 951.71 1046.07 923.55 1057.36 913.26C1069 902.67 1096.77 921.92 1096.77 921.92C1096.77 921.92 1123.43 911.44 1137.66 914.4C1169.55 921.01 1202.64 939.97 1210.41 971.6C1218.18 1003.24 1183.32 1040.76 1154.68 1025.24C1160.41 1043.97 1153.54 1065.51 1139.09 1078.49C1147.16 1077.33 1156.86 1081.33 1161.36 1088.65C1168.45 1100.2 1166.36 1114.99 1163.36 1128.2C1174.63 1115.45 1189.52 1103.27 1206.5 1104.43C1223.48 1105.57 1237.59 1128.04 1225.8 1140.34C1239.66 1128.68 1262.35 1135.66 1273.44 1149.98C1284.53 1164.3 1287.12 1183.23 1289.35 1201.21C1291.25 1216.61 1293.09 1232.68 1288.02 1247.39Z" fill="#3A474F"/>
<path d="M540.979 594.39C543.799 609.96 533.319 626.82 518.119 631.16C518.799 629.32 516.229 627.71 514.369 628.3C512.509 628.87 511.259 630.57 509.869 631.94C506.319 635.37 500.479 636.71 496.299 634.1C492.099 631.49 491.099 624.55 494.999 621.55C489.409 621.87 483.729 619.82 479.609 616.03C476.719 627.03 469.559 640.8 458.609 638.37C460.749 636.01 463.269 634.01 466.089 632.51C454.639 635.9 440.409 628.58 437.609 616.67C434.469 603.33 446.699 588.74 460.379 589.51C448.859 583.28 437.309 577.08 425.789 570.85C427.339 563.65 435.789 558.8 442.789 561.12C423.469 552.6 431.699 518.76 450.629 503.44C470.789 487.12 493.879 474.46 518.469 466.21C516.289 480.03 515.699 496.82 527.329 504.35C530.529 506.44 534.349 507.49 537.529 509.6C546.189 515.42 547.389 529.62 539.829 536.8C551.259 538.25 556.129 555.87 547.079 562.98C556.699 571.5 553.089 590.09 540.979 594.39Z" fill="#495760"/>
</g>
<defs>
<linearGradient id="paint0_linear_101_982" x1="1000" y1="53.4232" x2="1000" y2="1471.27" gradientUnits="userSpaceOnUse">
<stop stop-color="#9BAFBD"/>
<stop offset="0.1969" stop-color="#90A3B1"/>
<stop offset="0.5548" stop-color="#748591"/>
<stop offset="1" stop-color="#495760"/>
</linearGradient>
<linearGradient id="paint1_linear_101_982" x1="605.703" y1="352.936" x2="367.897" y2="553.132" gradientUnits="userSpaceOnUse">
<stop stop-color="#263F4F"/>
<stop offset="1"/>
</linearGradient>
<linearGradient id="paint2_linear_101_982" x1="465.379" y1="478.509" x2="422.63" y2="423.349" gradientUnits="userSpaceOnUse">
<stop stop-color="#709EB8"/>
<stop offset="1" stop-color="#263F4F"/>
</linearGradient>
<linearGradient id="paint3_linear_101_982" x1="505.337" y1="490.189" x2="464.679" y2="410.746" gradientUnits="userSpaceOnUse">
<stop stop-color="#8BB0C5"/>
<stop offset="1" stop-color="#4E768F"/>
</linearGradient>
<radialGradient id="paint4_radial_101_982" cx="0" cy="0" r="1" gradientUnits="userSpaceOnUse" gradientTransform="translate(487.204 546.738) scale(122.069 60.3997)">
<stop/>
<stop offset="0.2237" stop-color="#020304"/>
<stop offset="0.4543" stop-color="#080D11"/>
<stop offset="0.6882" stop-color="#121E25"/>
<stop offset="0.9229" stop-color="#203542"/>
<stop offset="1" stop-color="#253E4D"/>
</radialGradient>
<clipPath id="clip0_101_982">
<rect width="2000" height="1040" fill="white"/>
</clipPath>
</defs>
</svg>
