<?xml version="1.0" encoding="utf-8"?>
<!-- Generator: Adobe Illustrator 27.0.0, SVG Export Plug-In . SVG Version: 6.00 Build 0)  -->
<svg version="1.1" id="Слой_1" xmlns="http://www.w3.org/2000/svg" xmlns:xlink="http://www.w3.org/1999/xlink" x="0px" y="0px"
	 viewBox="0 0 1500 916.65" style="enable-background:new 0 0 1500 916.65;" xml:space="preserve">
<style type="text/css">
	.st0{fill:#9BAFBD;}
	.st1{fill:#728694;}
	.st2{fill:#FDD5C8;}
	.st3{fill:#FEE4DB;}
	.st4{fill:#E0AFA1;}
	.st5{fill:#99685A;}
	.st6{fill:#AECCD1;}
	.st7{fill:#7A9CA1;}
	.st8{fill:#495B5E;}
	.st9{fill:url(#SVGID_1_);}
	.st10{fill:#E09F89;}
	.st11{fill:url(#SVGID_00000134960964456625286030000008411235908060346541_);}
	.st12{fill:#F6DCDD;}
	.st13{fill:#E39D9D;}
	.st14{fill:#FDACAE;}
	.st15{fill:#E2A094;}
	.st16{fill:#FEBEBE;}
	.st17{fill:#F16E2B;}
	.st18{fill:#DF523C;}
	.st19{fill:#E78B7C;}
	.st20{fill:url(#SVGID_00000159442669736302894190000002734120138434538885_);}
	.st21{fill:#E7DBE0;}
	.st22{fill:url(#SVGID_00000028317564709095241460000011330250208382958731_);}
	.st23{fill:url(#SVGID_00000023241436804778850240000008497390916143450008_);}
	.st24{fill:#E75742;}
	.st25{fill:#EEA755;}
	.st26{fill:#EEB3B2;}
	.st27{fill:#FA9DA5;}
	.st28{fill:#FABEB5;}
	.st29{fill:#F25026;}
	.st30{fill:url(#SVGID_00000172403369750477595280000012080071548243743391_);}
	.st31{fill:url(#SVGID_00000078046359492069670710000018303164069465667469_);}
	.st32{fill:url(#SVGID_00000158724288119228382590000011884348073525222027_);}
	.st33{fill:url(#SVGID_00000129179603772722833550000006792554716555195820_);}
	.st34{fill:url(#SVGID_00000101066514921796372900000015399237480003122842_);}
	.st35{fill:url(#SVGID_00000096739139852455196570000008501857400487625878_);}
	.st36{fill:url(#SVGID_00000160878153026296166660000014839186440311804576_);}
	.st37{fill:url(#SVGID_00000121962763771586631520000014968165069297702542_);}
	.st38{fill:url(#SVGID_00000073681641779210135090000015554212638244498355_);}
	.st39{fill:url(#SVGID_00000178910900624975289870000000893346347060243640_);}
	.st40{fill:url(#SVGID_00000113338591314462947780000013618674572969712063_);}
	.st41{fill:url(#SVGID_00000138536557537018831980000013631415839046619032_);}
	.st42{fill:url(#SVGID_00000155835182590776202320000013264313614905064343_);}
	.st43{fill:url(#SVGID_00000152253539152053333800000011672608119873189518_);}
	.st44{fill:url(#SVGID_00000094582677909065343980000010320605857722769794_);}
	.st45{fill:url(#SVGID_00000044163673190316407030000003455811580483475077_);}
	.st46{fill:url(#SVGID_00000000904624413228616120000002501912293707954353_);}
	.st47{fill:url(#SVGID_00000116199027834668765290000003078907996568906174_);}
	.st48{fill:url(#SVGID_00000147178732630557187650000016921317941283888314_);}
	.st49{fill:url(#SVGID_00000112597070517965622940000002277783867429153925_);}
	.st50{fill:url(#SVGID_00000108288513133582556240000005310441896408683706_);}
	.st51{fill:url(#SVGID_00000026130886067718502720000001429863448895356842_);}
	.st52{fill:url(#SVGID_00000102520488033833915070000004572577756001656470_);}
	.st53{fill:url(#SVGID_00000100363460871472042700000002885915931795678098_);}
	.st54{fill:url(#SVGID_00000078035830037666990600000015777173722132701326_);}
	.st55{fill:url(#SVGID_00000173143952573511082860000012268164894438264212_);}
	.st56{fill:url(#SVGID_00000010304966175044827460000012238438736273053358_);}
	.st57{fill:url(#SVGID_00000035493496739825646680000008652431086035309988_);}
	.st58{fill:url(#SVGID_00000013874761844371229450000016865737213862523063_);}
	.st59{fill:url(#SVGID_00000110429589046900140940000009205316422303242911_);}
	.st60{opacity:0.4;fill:url(#SVGID_00000181047221239923670440000005268166489868802690_);}
	.st61{fill:url(#SVGID_00000008857689586312558990000011167984169711108747_);}
	.st62{fill:url(#SVGID_00000158013357997639785100000011469434425344600227_);}
	.st63{fill:url(#SVGID_00000049199006178138223440000014642316453784122796_);}
	.st64{fill:url(#SVGID_00000020369730594819247700000016273824511219049905_);}
	.st65{fill:url(#SVGID_00000026135470220682850960000004460954212478892196_);}
	.st66{fill:url(#SVGID_00000104665595194083501530000012388377520347107774_);}
	.st67{fill:url(#SVGID_00000006677096851373420350000010186060489996263051_);}
	.st68{fill:url(#SVGID_00000041273742128230122020000000083423877583897483_);}
	.st69{fill:#AD0000;}
	.st70{fill:url(#SVGID_00000122679236287958807700000002449971526552100480_);}
	.st71{fill:url(#SVGID_00000096748494431791435480000014707521515324306602_);}
	.st72{fill:url(#SVGID_00000047766173438887321340000013439085223442758581_);}
	.st73{fill:url(#SVGID_00000022520369105238642900000003971734753519264445_);}
	.st74{fill:url(#SVGID_00000016762042982507592220000003834293795404743611_);}
	.st75{fill:#BF9184;}
	.st76{fill:none;stroke:#FDD5C8;stroke-miterlimit:10;}
	.st77{fill:url(#SVGID_00000074419714023455969030000005920979457838912189_);}
	.st78{fill:url(#SVGID_00000051366265528656830350000015986523805528203958_);}
	.st79{fill:url(#SVGID_00000153664735033296250440000009325949783661352586_);}
	.st80{fill:url(#SVGID_00000054944741128918594530000002317352737337395632_);}
	.st81{fill:url(#SVGID_00000124872470960909201900000014516867268362471610_);}
	.st82{fill:url(#SVGID_00000084500693601417429040000017161702996285989760_);}
	.st83{fill:url(#SVGID_00000040550488907902079660000014557220233955653509_);}
	.st84{fill:url(#SVGID_00000097492274004038077230000012182042342754297986_);}
	.st85{fill:url(#SVGID_00000146460140214738525080000014287151914332856195_);}
	.st86{fill:url(#SVGID_00000024681713079268973890000005352411494875659436_);}
	.st87{fill:none;stroke:#E0AFA1;stroke-miterlimit:10;}
	.st88{fill:#59767A;}
	.st89{fill:none;}
	.st90{fill:#314042;}
	.st91{fill:url(#SVGID_00000126303529104039608400000007213895516932756118_);}
	.st92{fill:url(#SVGID_00000103234096957683943300000013674643569058154173_);}
	.st93{fill:url(#SVGID_00000045578545645629886900000005202882189020755332_);}
	.st94{fill:url(#SVGID_00000169543838722733609170000011440122437007361458_);}
	.st95{fill:url(#SVGID_00000017504846717559034450000011321066783085927553_);}
	.st96{fill:none;stroke:#99685A;stroke-miterlimit:10;}
	.st97{fill:#F2CEC4;}
	.st98{fill:#E1AFA1;}
	.st99{fill:url(#SVGID_00000176009481077265070170000016556728642587290303_);}
	.st100{fill:url(#SVGID_00000039129306425339679730000016820320806291939987_);}
	.st101{fill:url(#SVGID_00000061471780137422972890000008519423322294963595_);}
	.st102{fill:url(#SVGID_00000031167544919525541420000003041307681638030747_);}
	.st103{fill:url(#SVGID_00000013907457409701291700000008911035676066993313_);}
	.st104{fill:url(#SVGID_00000106863919867210599080000011347042114740842911_);}
	.st105{fill:url(#SVGID_00000170239469333995109520000003958400311763172016_);}
	.st106{fill:url(#SVGID_00000068646777331054945650000003680585313395343029_);}
	.st107{fill:url(#SVGID_00000142174009437400777560000010925401629814551941_);}
	.st108{fill:url(#SVGID_00000057846811595116345710000016776789966566712963_);}
	.st109{fill:#E39F8D;}
	.st110{fill:#C2553C;}
	.st111{fill:url(#SVGID_00000160891256404033310390000011619580961905712264_);}
	.st112{fill:url(#SVGID_00000136390836382764829720000000985492665412478632_);}
	.st113{fill:url(#SVGID_00000065787406893168126600000002316136078283215508_);}
	.st114{fill:#AD4024;}
	.st115{fill:url(#SVGID_00000036936097704591119570000000342095082590229946_);}
	.st116{fill:url(#SVGID_00000178889807268822556870000002654782901294135208_);}
	.st117{fill:url(#SVGID_00000183949795845264765810000013828945352582000799_);}
	.st118{opacity:0.5608;fill:#FFFFFF;}
	.st119{fill:#FFFFFF;}
	.st120{fill:#FFF1ED;}
	.st121{fill:#E6D7D3;}
	.st122{opacity:0.4392;fill:#E0AFA1;}
	.st123{fill:#FFD3C7;}
	.st124{opacity:0.3412;fill:#AAAD66;}
	.st125{opacity:0.2314;fill:#FFFFFF;}
	.st126{fill:#23282B;}
	.st127{fill:none;stroke:#99685A;stroke-linecap:round;stroke-linejoin:round;stroke-miterlimit:10;}
	.st128{fill:#495760;}
	.st129{fill:#353A3E;}
	.st130{fill:#3A474F;}
	.st131{fill:#709EB8;}
	.st132{fill:#8BB0C5;}
	.st133{fill:#31556B;}
	.st134{fill:#4E768F;}
	.st135{fill:#263F4F;}
	.st136{fill:#576975;}
	.st137{fill:none;stroke:#3A474F;stroke-miterlimit:10;}
	.st138{fill:#2F3943;}
	.st139{fill:#C78D7D;}
	.st140{fill:#421D13;}
	.st141{fill:#5E3E35;}
	.st142{fill:#806158;}
	.st143{fill:#EFC3B6;}
	.st144{fill:#C79789;}
	.st145{fill:none;stroke:#EFC3B6;stroke-miterlimit:10;}
	.st146{fill:#69483F;}
	.st147{fill:none;stroke:#806158;stroke-width:3;stroke-linecap:round;stroke-linejoin:round;stroke-miterlimit:10;}
	.st148{fill:#E8E8E8;}
	.st149{fill:#BACAD9;}
	.st150{fill:#694034;}
	.st151{fill:#658F85;}
	.st152{fill:#407065;}
	.st153{fill:#323C42;}
	.st154{fill:#B4CADE;}
	.st155{opacity:0.3294;fill:#C75B63;}
	.st156{fill:none;stroke:#5E3E35;stroke-width:4;stroke-linecap:round;stroke-linejoin:round;stroke-miterlimit:10;}
	.st157{fill:#4C6270;}
	.st158{fill:#7A4A3D;}
	.st159{fill:#252E37;}
	.st160{fill:#3E4852;}
	.st161{fill:none;stroke:#E0AFA1;stroke-linecap:round;stroke-linejoin:round;stroke-miterlimit:10;}
	.st162{fill:#BA8677;}
	.st163{fill:#313B45;}
	.st164{fill:none;stroke:#4E768F;stroke-miterlimit:10;}
	.st165{fill:#193646;}
	.st166{opacity:0.1882;fill:#FFFFFF;}
	.st167{fill:none;stroke:#421D13;stroke-miterlimit:10;}
	.st168{opacity:0.2196;fill:#1390D4;}
	.st169{opacity:0.2392;fill:#027DCF;}
	.st170{opacity:0.3216;fill:#FFFFFF;}
	.st171{fill:#CFCFCF;}
	.st172{fill:url(#SVGID_00000155862004126495822110000000767936340746414526_);}
	.st173{fill:url(#SVGID_00000025436455157597383690000017153463093951804603_);}
	.st174{opacity:0.749;fill:url(#SVGID_00000000187420934254281170000016661452628518634150_);}
	.st175{fill:url(#SVGID_00000158736740866149734520000017097009879349408900_);}
	.st176{fill:url(#SVGID_00000075159497669771870940000014063845342399828918_);}
	.st177{fill:#821111;}
	.st178{fill:url(#SVGID_00000165944404407823486650000001928820091644797360_);}
	.st179{fill:#BC0002;}
	.st180{fill:url(#SVGID_00000008847948709660627000000011264325442912416175_);}
	.st181{fill:url(#SVGID_00000159459088429069622010000004390661188647578270_);}
	.st182{fill:url(#SVGID_00000148634811420330917740000014977899322165367976_);}
</style>
<g>
	<path class="st0" d="M0,915.44V0h1500v915.44H0z M1430,835.19c-2.12-0.58-4.2-1.27-6.23-2.06c-0.57-0.22-1.13-0.45-1.69-0.68
		c-0.16-0.06-0.33-0.13-0.49-0.21c-0.52-0.22-1.05-0.45-1.56-0.69c-0.01,0-0.01,0-0.01,0c-0.59-0.26-1.17-0.54-1.75-0.82
		c-1.89-0.92-3.74-1.92-5.56-3c-0.59-0.35-1.18-0.7-1.77-1.07c-2.87-1.79-5.66-3.76-8.35-5.87c-0.59-0.45-1.17-0.92-1.75-1.4"/>
	<g>
		<path class="st2" d="M1500,915.44v-77.75c-8.59,0.3-17.19,0.46-25.79,0.51c-5.2,0.03-10.4,0.02-15.6-0.05
			c-9.13-0.1-18.35-0.36-27.21-2.59c-0.47-0.12-0.93-0.24-1.4-0.37c-2.12-0.58-4.2-1.27-6.23-2.06c-0.57-0.22-1.13-0.45-1.69-0.68
			c-0.16-0.06-0.33-0.13-0.49-0.21c-0.52-0.22-1.05-0.45-1.56-0.69c-0.01,0-0.01,0-0.01,0c-0.59-0.26-1.17-0.54-1.75-0.82
			c-1.89-0.92-3.74-1.92-5.56-3c-0.59-0.35-1.18-0.7-1.77-1.07c-2.87-1.79-5.66-3.76-8.35-5.87c-0.59-0.45-1.17-0.92-1.75-1.4
			c0,0,0,0-0.01,0c-8.91-7.24-16.92-15.95-24.32-24.71c-21.49-25.39-40.59-52.8-56.98-81.75c-24.37-43.04-40.39-93.29-80.81-121.79
			c-25.22-17.78-54.51-29.5-84.99-37.57c-19.16-5.07-38.8-8.71-58.19-11.5c-16.3-1.08-33.82-0.36-51.27,1.3
			c-10.69,1.03-21.43,2.41-32.12,1.37c-1.79-0.18-3.56-0.41-5.31-0.72c-2.63-0.43-5.23-1-7.8-1.66c-6.36-1.63-12.59-3.82-18.75-6.08
			c-27.58-10.15-54.63-22.06-83.21-28.91c-8.79-0.46-16.96-3.3-24.77-7.33c-8.91-4.61-17.33-10.79-25.62-16.85
			c-0.4-0.28-0.8-0.57-1.18-0.86c-1.92-1.4-3.84-2.79-5.75-4.14c-46.7-33.09-102.64-50.28-158.12-64.32
			c-58.6-14.23-121.26-16.16-176.37-41.64c-26.15-11.23-52.98-21.57-80.17-30.83c-22.75-7.74-46.75-15.32-63.63-32.45
			c-10.34-5.62-19.33-13.17-29.23-19.32c-6.67-4.16-13.75-7.63-21.1-10.41c-20.51-7.77-43.1-10.07-64.72-6.33
			c-3.86,0.44-7.71,0.49-11.56,0.26c-7.67-0.41-15.36-1.9-23.05-3.47c-0.01-0.01-0.02-0.02-0.03-0.01c0,0,0,0-0.01,0.01
			c-0.33-0.08-0.63-0.15-0.96-0.22h-0.08c-0.04,0-0.09-0.02-0.13-0.03l-2.31-0.48c-6.67-1.37-13.34-2.7-20.07-3.39
			c-9.63-0.98-19.33-0.59-29-0.22c-2.92,0.12-6.01,0.3-8.85,1c-2.77,0.69-5.31,1.86-7.26,3.92c-1.25,1.32-2.2,2.97-3.22,4.51
			c-1.31,2.01-2.71,3.85-4.91,4.64c-1.27,0.47-2.69,0.5-3.97,0.92c-0.34,0.11-0.66,0.25-0.98,0.43c-1.58,0.9-2.42,2.71-2.76,4.5
			c-0.89,4.63,1.22,9.71,5.12,12.35c1.43,0.97,2.97,1.6,4.57,1.97c0.01,0,0.02,0,0.03,0.01c5.91,1.32,12.75-0.88,19.11-2.11
			c0.33-0.07,0.67-0.13,1-0.19c1.58-0.28,3.17-0.47,4.76-0.59c4.67-0.37,9.37-0.08,14.04,0.57c6.7,0.93,13.37,2.62,19.91,4.29
			c8.73,2.25,17.49,4.51,25.84,7.89c0.01,0,0.01,0.01,0.01,0.01h0.01c0.01,0,0.01,0,0.01,0c0.49,0.2,0.96,0.38,1.45,0.59
			c0.79,0.33,1.59,0.68,2.37,1.04c0.6,0.28,1.2,0.55,1.8,0.84c-0.43,0.03-0.85,0.05-1.28,0.07c-0.14,0-0.28,0.01-0.42,0.01
			c-0.14,0.01-0.29,0.01-0.43,0.01c-0.14,0.01-0.29,0.01-0.43,0.01c-4.25,0.03-8.45-0.59-12.63-1.48h-0.01
			c-5.32-1.14-10.59-2.71-15.87-3.99c-0.01,0-0.01,0-0.02-0.01c-0.14-0.03-0.26-0.06-0.39-0.09c-1.06-0.25-2.13-0.49-3.2-0.72
			s-2.14-0.45-3.22-0.65c-1.06-0.21-2.13-0.4-3.2-0.58h-0.03c-1.07-0.19-2.15-0.36-3.24-0.52c-0.15-0.03-0.29-0.05-0.44-0.07
			c-0.17-0.03-0.35-0.05-0.52-0.07c-0.23-0.04-0.47-0.07-0.7-0.1c-0.02-0.01-0.03-0.01-0.05,0c-0.01-0.01-0.02,0-0.02,0
			c-0.48-0.07-0.96-0.14-1.44-0.2c-0.18-0.03-0.37-0.05-0.56-0.08c-0.5-0.07-1.01-0.13-1.52-0.19c-0.4-0.05-0.8-0.1-1.19-0.14
			c-0.38-0.05-0.75-0.09-1.13-0.12c-0.65-0.08-1.31-0.15-1.97-0.22c-0.66-0.07-1.32-0.13-1.99-0.19c-1.08-0.1-2.17-0.2-3.26-0.29
			c-1.6-0.14-3.21-0.26-4.81-0.37c-1.1-0.07-2.19-0.13-3.29-0.2c-1.37-0.08-2.74-0.16-4.11-0.23c-2.74-0.14-5.48-0.26-8.21-0.37
			c-1.37-0.06-2.74-0.12-4.11-0.17c-0.33-0.01-0.66-0.02-1-0.04c-2.72-0.1-5.45-0.17-8.17,0.05h-0.01
			c-0.46,0.03-0.91,0.08-1.37,0.13c-0.02,0-0.05,0.01-0.07,0.01c-6.11,0.76-11.87,3.21-17.54,5.64c-0.94,0.39-1.9,0.81-2.85,1.28
			h-0.01c-3.12,1.48-6.12,3.28-8.05,5.91c-0.57,0.79-1.06,1.65-1.41,2.6c-0.25,0.7-0.43,1.41-0.52,2.13
			c-0.66,4.83,2.27,9.97,6.5,12.65c0.53,0.33,1.06,0.64,1.62,0.92h0.01c0.59,0.29,1.2,0.56,1.82,0.78c0.29,0.11,0.59,0.21,0.88,0.31
			c0.3,0.1,0.6,0.19,0.9,0.27c0.29,0.08,0.58,0.16,0.88,0.22c0.31,0.08,0.63,0.15,0.95,0.21c0.03,0,0.05,0.01,0.08,0.01
			c0.29,0.06,0.57,0.11,0.86,0.15c0.28,0.04,0.55,0.08,0.83,0.11c0.2,0.03,0.4,0.05,0.6,0.07c0.44,0.05,0.89,0.08,1.33,0.11
			c0.04,0.01,0.08,0.01,0.12,0.01c0,0,0,0,0.01,0c0.1,0.01,0.21,0.01,0.31,0.01c0.24,0.02,0.49,0.03,0.74,0.03
			c1.58,0.05,3.17-0.01,4.73-0.14c0.28-0.02,0.54-0.05,0.82-0.08c2.39-0.24,4.78-0.56,7.18-0.49c0.15,0,0.31,0.01,0.46,0.03
			c0.08,0,0.16,0,0.24,0.01c0.1,0,0.19,0.01,0.29,0.02c0.06,0,0.12,0,0.18,0.01c0.02,0,0.04,0,0.07,0.01
			c0.01-0.01,0.01-0.01,0.02-0.01c0.01,0,0.02,0,0.02,0.01c0.11,0,0.21,0.01,0.31,0.03c0.1,0.01,0.21,0.02,0.31,0.03
			c0.19,0.02,0.37,0.05,0.55,0.08c0.03,0,0.05,0.01,0.07,0.01c0.03,0.01,0.06,0.01,0.08,0.02h0.01c0.1,0.01,0.2,0.03,0.31,0.05
			c0.25,0.04,0.5,0.09,0.74,0.15c0.55,0.11,1.09,0.25,1.63,0.39c0.23,0.06,0.46,0.12,0.69,0.18c0.48,0.13,0.96,0.26,1.44,0.4
			c0.48,0.13,0.97,0.26,1.45,0.38c0.3,0.07,0.59,0.14,0.89,0.2c0.22,0.06,0.43,0.1,0.65,0.15c0.07,0.01,0.13,0.03,0.2,0.04
			c0.29,0.06,0.59,0.11,0.88,0.17c0.03,0,0.06,0.01,0.09,0.01c0.01,0.01,0.02,0.01,0.04,0.01c0.01,0,0.02,0.01,0.02,0.01
			c0.29,0.05,0.58,0.09,0.86,0.14c0.14,0.03,0.29,0.05,0.44,0.07c0.45,0.08,0.91,0.14,1.37,0.2v-0.01c0.01,0,0.01,0,0.01,0
			c0-0.01,0.01-0.01,0.01,0c0,0,0.01,0,0.01,0.01h0.08c0.31,0.04,0.61,0.08,0.92,0.11c0.19,0.03,0.37,0.05,0.56,0.07
			c1.77,0.19,3.55,0.33,5.34,0.46c0.35,0.02,0.7,0.04,1.05,0.07h0.01c0.24,0.02,0.48,0.04,0.72,0.06c4.67,0.34,9.34,0.78,14.01,1.3
			c0.27,0.03,0.54,0.06,0.81,0.09c0.22,0.02,0.46,0.05,0.69,0.09c0.01,0,0.01,0,0.02,0h0.09c1,0.11,2,0.23,3,0.35
			c0.33,0.04,0.67,0.08,1,0.13h0.01c1.07,0.13,2.13,0.27,3.19,0.41c0.78,0.11,1.55,0.22,2.33,0.33c2.29,0.31,4.58,0.65,6.87,1.02
			c0.39,0.06,0.77,0.12,1.16,0.18c0.28,0.04,0.56,0.09,0.83,0.14c2.23,0.36,4.45,0.74,6.66,1.15c1.17,0.21,2.33,0.43,3.49,0.65
			c1.14,0.22,2.28,0.44,3.42,0.67c0.02,0,0.04,0,0.06,0.01c0.01-0.01,0.01-0.01,0.01,0c1.15,0.22,2.29,0.46,3.43,0.7
			c1.54,0.32,3.07,0.65,4.6,0.99c1.43,0.31,2.86,0.64,4.3,0.97c-0.07,0.18-0.14,0.35-0.21,0.52c-0.02,0.05-0.04,0.09-0.05,0.14
			c-0.28,0.69-0.55,1.39-0.82,2.08c-0.19,0.46-0.37,0.93-0.56,1.39c-1.05-0.11-2.09-0.21-3.14-0.3c-1.05-0.1-2.09-0.19-3.14-0.27
			c-0.32-0.03-0.63-0.06-0.95-0.08c-0.29-0.03-0.58-0.06-0.87-0.08c-0.82-0.06-1.64-0.12-2.46-0.18c-0.01,0-0.01,0-0.02,0h-0.01
			c-0.05,0-0.11-0.01-0.16-0.01c-0.01-0.01-0.02-0.01-0.03,0c-0.73-0.05-1.46-0.09-2.19-0.14c-0.13-0.02-0.26-0.02-0.38-0.03
			c-0.51-0.04-1.04-0.06-1.55-0.09c-0.07-0.01-0.14-0.01-0.21-0.01c-0.73-0.04-1.46-0.08-2.19-0.11c-0.32-0.02-0.64-0.03-0.96-0.05
			c-0.86-0.03-1.72-0.07-2.59-0.11c-0.56-0.02-1.13-0.04-1.7-0.05c-0.59-0.02-1.17-0.04-1.75-0.05c-0.27-0.01-0.53-0.01-0.8-0.02
			c-0.93-0.03-1.86-0.04-2.79-0.05c-0.06-0.01-0.12-0.01-0.18,0c-0.01-0.01-0.01-0.01-0.02,0c-0.01-0.01-0.02-0.01-0.03,0
			c-0.01-0.01-0.01-0.01-0.02,0c-0.01-0.01-0.01-0.01-0.02,0h-0.01c-0.82-0.02-1.65-0.03-2.47-0.03h-0.01
			c-1.64-0.02-3.28-0.02-4.92,0.01c-0.69,0-1.37,0.01-2.07,0.02c-0.4,0-0.79,0-1.19,0.02c-0.56,0.01-1.11,0.02-1.65,0.03
			c-0.46,0.01-0.93,0.02-1.39,0.03h-0.01c-1.9,0.05-3.79,0.13-5.69,0.22h-0.01c-1.45,0.07-2.89,0.14-4.34,0.23
			c-0.35,0.02-0.7,0.04-1.05,0.07c-7.01,0.43-14.02,1.12-21.01,2.04c-0.4,0.04-0.8,0.09-1.19,0.16c-3.33,0.44-6.64,0.95-9.95,1.5
			c-0.35,0.06-0.69,0.12-1.04,0.18c-0.27,0.05-0.55,0.09-0.82,0.14c-1.43,0.25-2.88,0.52-4.31,0.84c-3.46,0.78-6.82,1.89-9.71,3.9
			c-1.62,1.13-3.06,2.62-4.11,4.3c-0.25,0.38-0.47,0.77-0.67,1.17c-0.32,0.62-0.58,1.27-0.78,1.92c-0.06,0.16-0.1,0.32-0.14,0.48
			c-0.04,0.13-0.07,0.27-0.1,0.41c-0.09,0.4-0.16,0.81-0.2,1.23c-0.02,0.14-0.03,0.29-0.04,0.44c-0.03,0.49-0.02,0.98,0.03,1.47
			c0.01,0.12,0.02,0.23,0.04,0.35c0.02,0.18,0.05,0.36,0.09,0.54c0,0,0,0.01,0,0.02c0.03,0.15,0.06,0.3,0.1,0.45
			c0.12,0.48,0.28,0.95,0.47,1.4h0.01c0.09,0.2,0.18,0.4,0.28,0.6c0.05,0.1,0.1,0.2,0.15,0.29c0,0.01,0,0.02,0.01,0.02
			c0.04,0.08,0.08,0.16,0.13,0.23c0,0.01,0.01,0.03,0.03,0.04c0.05,0.08,0.1,0.17,0.15,0.25c0.15,0.25,0.31,0.5,0.5,0.73
			c0.09,0.13,0.19,0.25,0.29,0.37c0.1,0.14,0.22,0.28,0.34,0.4c0.1,0.12,0.21,0.24,0.33,0.36c0.47,0.49,0.98,0.95,1.53,1.35
			c0.18,0.14,0.36,0.27,0.55,0.4c0.12,0.09,0.25,0.17,0.37,0.25c0.18,0.12,0.35,0.23,0.54,0.33c0.16,0.09,0.32,0.19,0.48,0.27
			c0.71,0.39,1.46,0.72,2.21,0.99c2.34,0.83,4.8,1.2,7.29,1.36c1.6,0.11,3.22,0.15,4.82,0.17c2.11,0.03,4.22,0.07,6.33,0.1
			c1.03,0.02,2.05,0.03,3.08,0.05c0.45,0.02,0.91,0.03,1.36,0.03c12.57,0.21,25.13,0.42,37.69,0.62c0.4,0.02,0.8,0.02,1.19,0.03
			c5.71,0.09,11.4,0.18,17.1,0.28h0.05c0.01,0,0.02,0,0.02,0c0.7,0.01,1.4,0.02,2.1,0.03c0.01,0,0.01,0,0.01,0
			c3.45,0.06,6.91,0.11,10.36,0.17c0.28,0.01,0.54,0.01,0.82,0.02c1.02,0.04,2.09,0.12,3.13,0.28c0.43,0.05,0.85,0.12,1.26,0.21
			c0.41,0.09,0.82,0.19,1.21,0.31c0.04,0.01,0.08,0.02,0.12,0.04h0.01c0.01,0.01,0.01,0.01,0.02,0.01h0.01
			c0.03,0,0.06,0.01,0.09,0.02c0.32,0.1,0.63,0.22,0.92,0.34c0.01,0.01,0.01,0.01,0.02,0.01c0.29,0.13,0.57,0.26,0.84,0.41
			c0.02,0.01,0.03,0.01,0.04,0.02c0.13,0.06,0.25,0.14,0.37,0.22c0.28,0.17,0.54,0.35,0.78,0.56c0.08,0.06,0.16,0.13,0.23,0.19
			c0.1,0.09,0.2,0.19,0.29,0.28c0.12,0.13,0.25,0.27,0.36,0.41c0.32,0.39,0.6,0.83,0.82,1.32c-0.39,0.03-0.79,0.06-1.17,0.09
			c-0.5,0.05-1,0.09-1.5,0.13c-2.15,0.2-4.3,0.38-6.46,0.55c-1.75,0.15-3.49,0.28-5.24,0.4c-0.79,0.06-1.58,0.12-2.37,0.16
			c-3.22,0.23-6.45,0.43-9.67,0.61h-0.01c-0.43,0.03-0.86,0.05-1.3,0.07c-6.99,0.38-13.99,0.66-20.99,0.83
			c-1.74,0.04-3.48,0.07-5.21,0.1c-0.37,0.01-0.73,0.01-1.1,0.02c-0.24,0-0.48,0.01-0.72,0.01c-0.48,0.01-0.95,0.03-1.43,0.03h-0.01
			c-0.15,0.01-0.3,0.01-0.45,0.01c-3.85,0.05-7.81,0.09-11.49,1.09h-0.01c-1.17,0.32-2.31,0.73-3.41,1.27
			c-0.37,0.17-0.71,0.37-1.06,0.59h-0.01c-4.03,2.46-6.95,7.18-5.75,11.68c0.05,0.17,0.09,0.33,0.15,0.49
			c0.11,0.33,0.23,0.64,0.37,0.94c0.06,0.13,0.13,0.27,0.2,0.4c0.16,0.3,0.34,0.59,0.53,0.87c0.12,0.17,0.25,0.34,0.39,0.5
			l-0.01,0.01h0.01c0.27,0.34,0.56,0.66,0.88,0.96c0.08,0.08,0.16,0.15,0.25,0.23c0.9,0.81,1.97,1.49,3.13,2.06
			c0.29,0.14,0.59,0.28,0.89,0.41c0.95,0.4,1.95,0.74,2.97,1.03c0.09,0.02,0.18,0.05,0.28,0.08c0.99,0.27,1.99,0.49,2.99,0.67
			c0.01,0,0.01,0.01,0.02,0c0.84,0.15,1.68,0.28,2.48,0.39c0.18,0.02,0.36,0.05,0.54,0.07h0.01c2.38,0.31,4.76,0.6,7.15,0.86
			c0.01,0,0.01,0,0.01,0h0.04c0.01,0,0.01,0,0.02,0c0.01,0,0.02,0,0.02,0.01c0.42,0.05,0.83,0.09,1.25,0.14
			c0.45,0.05,0.89,0.1,1.34,0.14c2.48,0.26,4.97,0.51,7.47,0.72h0.01c4.41,0.38,8.82,0.69,13.23,0.92c3,0.17,6.01,0.3,9.01,0.39
			c0.39,0.02,0.79,0.03,1.17,0.03c0.54,0.02,1.07,0.04,1.6,0.05c1.25,0.03,2.5,0.06,3.75,0.07c0,0,0,0.01,0.01,0
			c1.11,0.03,2.22,0.04,3.34,0.04c3.52,0.04,7.04,0.02,10.57-0.05l1.47-0.03c0.92-0.02,1.85-0.04,2.78-0.07
			c0.89-0.02,1.79-0.05,2.68-0.09c0.69-0.02,1.37-0.04,2.06-0.07c0.85-0.03,1.69-0.07,2.54-0.11c0.95-0.04,1.9-0.09,2.85-0.14
			c0.94-0.05,1.88-0.1,2.82-0.16c0.4-0.02,0.81-0.06,1.22-0.08c0.3-0.02,0.61-0.04,0.9-0.06c0.99-0.06,1.98-0.13,2.97-0.21
			c0.57-0.03,1.13-0.08,1.7-0.12c2.06,0.62,4.14,1.25,6.23,1.86c2.29,0.68,4.6,1.35,6.92,2c2.43,0.68,4.88,1.36,7.35,2
			c1.78,0.47,3.57,0.93,5.38,1.37c1.1,0.27,2.2,0.54,3.31,0.79c0.1,0.03,0.2,0.06,0.31,0.07c0.84,0.2,1.69,0.39,2.54,0.58
			c1.07,0.24,2.15,0.48,3.23,0.71s2.16,0.45,3.24,0.66c0.97,0.2,1.95,0.39,2.92,0.57c1.27,0.23,2.53,0.45,3.8,0.66
			c0.62,0.1,1.26,0.21,1.89,0.3c0.74,0.12,1.49,0.23,2.24,0.34c0.46,0.07,0.91,0.14,1.37,0.2c1.42,0.2,2.83,0.38,4.25,0.54
			c0.39,0.04,0.78,0.09,1.17,0.13c0.54,0.06,1.07,0.11,1.61,0.17c0.14,0.01,0.28,0.02,0.43,0.04c0.75,0.07,1.5,0.14,2.26,0.19
			c1.25,0.11,2.51,0.2,3.77,0.28c0.58,0.03,1.16,0.06,1.74,0.09c0.15,0.01,0.3,0.01,0.46,0.02c0.82,0.04,1.65,0.07,2.47,0.09
			c0.71,0.02,1.41,0.04,2.12,0.05c2.75,0.04,5.51,0,8.26-0.1c0.39-0.01,0.79-0.02,1.18-0.04c1.28-0.04,2.56-0.1,3.84-0.16
			c1.82-0.09,3.64-0.19,5.46-0.29c1.32-0.07,2.64-0.14,3.96-0.21c1.32-0.07,2.64-0.14,3.96-0.2c0.75-0.04,1.5-0.07,2.24-0.1
			c3.31-0.14,6.62-0.23,9.93-0.21c1.26,0,2.52,0.02,3.78,0.06c1.67,0.47,3.33,0.95,5,1.43c1.3,0.37,2.61,0.75,3.91,1.13
			c3.63,1.05,7.26,2.12,10.9,3.22c0.92,0.27,1.85,0.55,2.78,0.84c2.7,0.81,5.41,1.63,8.14,2.48c0.29,0.08,0.58,0.17,0.88,0.27
			c1.84,0.57,3.69,1.14,5.55,1.72c0.52,0.16,1.04,0.32,1.55,0.48c2.38,0.74,4.77,1.49,7.16,2.25c3.6,1.14,7.22,2.3,10.88,3.47
			c21.76,11.03,43.21,22.66,63.89,34.79c2.45,1.29,4.91,2.59,7.36,3.9c0.76,0.4,1.53,0.8,2.29,1.22c1.31,0.69,2.61,1.38,3.91,2.08
			c1.3,0.69,2.6,1.39,3.9,2.09c5.81,3.11,11.6,6.24,17.37,9.38c0,0,0.01-0.01,0.01,0c5.37,2.91,10.72,5.83,16.05,8.75
			c4.96,2.72,9.91,5.43,14.84,8.14c8.53,4.68,16.99,9.34,25.39,13.93h0.01c3.17,1.74,6.32,3.47,9.47,5.18
			c6.3,3.58,12.69,7.02,19.14,10.31c1.33,0.68,2.68,1.36,4.02,2.02c1.05,0.53,2.1,1.05,3.16,1.57c1.02,0.51,2.04,1,3.06,1.49
			c0.88,0.43,1.77,0.85,2.66,1.27c0.36,0.18,0.72,0.35,1.08,0.51c1.82,0.87,3.65,1.72,5.48,2.55c0.73,0.34,1.47,0.68,2.21,1.01
			c1.4,0.63,2.79,1.26,4.19,1.87c1.03,0.46,2.08,0.91,3.11,1.36c1.27,0.55,2.53,1.09,3.8,1.63c2.69,1.14,5.39,2.26,8.09,3.34
			c0.9,0.37,1.8,0.72,2.7,1.08c0.95,0.38,1.9,0.76,2.85,1.12c0.95,0.37,1.91,0.74,2.86,1.1c0.16,0.07,0.32,0.14,0.49,0.19
			c1.01,0.39,2.02,0.78,3.03,1.15c3.5,1.31,7,2.58,10.5,3.8c24.04,2.53,43.68,20.28,66.87,27.14c0.67,0.2,1.34,0.39,2.02,0.57
			c0.38,0.11,0.76,0.21,1.14,0.29c0.38,0.1,0.76,0.19,1.15,0.28c0.13,0.04,0.27,0.08,0.4,0.1c0.84,0.2,1.67,0.39,2.51,0.56
			c0.87,0.18,1.76,0.34,2.64,0.51c0.79,0.14,1.58,0.29,2.37,0.41c1.01,0.17,2.04,0.33,3.08,0.48c0.57,0.09,1.13,0.17,1.7,0.24
			c1.42,0.2,2.84,0.39,4.27,0.57c1.76,0.22,3.51,0.43,5.27,0.65c1.55,0.19,3.1,0.37,4.65,0.58c0.98,0.14,1.96,0.27,2.95,0.41
			c0.94,0.13,1.89,0.28,2.83,0.43c0.94,0.14,1.87,0.3,2.8,0.48c0.93,0.15,1.85,0.34,2.77,0.52c0.13,0.03,0.25,0.05,0.37,0.08
			c0.39,0.08,0.78,0.17,1.16,0.26c0.4,0.07,0.81,0.17,1.22,0.27h0.01c0.74,0.18,1.49,0.37,2.22,0.56c0.55,0.14,1.07,0.29,1.6,0.44
			c1.15,0.34,2.3,0.7,3.43,1.1c0.43,0.14,0.86,0.29,1.29,0.46c0.04,0.01,0.06,0.02,0.09,0.03c0.25,0.09,0.49,0.18,0.72,0.28
			c0.01,0,0.02,0,0.03,0.01c0.41,0.15,0.82,0.32,1.23,0.5c0.55,0.22,1.1,0.46,1.65,0.71c3.32,1.81,6.65,3.63,9.97,5.44
			c0.8,0.43,1.6,0.87,2.4,1.3c0,0.01,0.01,0.01,0.01,0.01c3.67,2.01,7.34,4.01,11,6.01c0.87,0.48,1.74,0.95,2.6,1.42
			c0.73,0.4,1.47,0.81,2.21,1.22c0.01,0.01,0.02,0.01,0.03,0.02h0.01c0.01,0.01,0.03,0.01,0.04,0.02c0.01,0,0.02,0,0.03,0.01
			c9.73,5.31,19.46,10.62,29.18,15.92c0.01,0.01,0.01,0.01,0.01,0.01c3.11,1.7,6.22,3.39,9.32,5.08h0.01c0.01,0,0.01,0.01,0.02,0.01
			c4.01,2.19,8.01,4.37,12.01,6.56c4.01,2.19,8.02,4.38,12.03,6.57c13.34,7.28,26.7,14.58,40.69,20.48
			c2.25,0.95,4.52,1.86,6.81,2.73c0.87,0.34,1.75,0.66,2.63,0.98c0.42,0.17,0.86,0.33,1.3,0.47h0.01c0.01,0,0.01,0.01,0.01,0.01
			s0,0.01,0.01,0c0.66,0.25,1.33,0.49,2,0.71c0.65,0.22,1.3,0.45,1.95,0.67c1.4,0.49,2.82,0.95,4.24,1.38
			c0.53,0.17,1.07,0.34,1.61,0.5c1.22,0.38,2.46,0.74,3.71,1.09c1.18,0.34,2.37,0.66,3.57,0.98c2.22,0.59,4.46,1.13,6.72,1.64
			c0.36,0.08,0.73,0.16,1.09,0.24c2.41,0.53,4.83,1.02,7.28,1.45c0.44,0.08,0.87,0.15,1.31,0.23h0.03c0.26,0.05,0.51,0.1,0.77,0.13
			c0.03,0.01,0.05,0.02,0.08,0.01c0.8,0.14,1.61,0.26,2.42,0.39c1.09,0.17,2.19,0.33,3.29,0.48c1.1,0.15,2.21,0.29,3.32,0.42
			c0.06,0.01,0.12,0.02,0.19,0.02c1.04,0.13,2.09,0.24,3.15,0.35c5.15,0.52,10.38,0.83,15.7,0.92c-1.95,0.34-3.9,0.68-5.85,1.05
			c-1.39,0.26-2.77,0.53-4.16,0.8h-0.01c-0.01,0.01-0.01,0.01-0.02,0c-0.02,0.01-0.02,0.01-0.03,0c-1.8,0.35-3.62,0.72-5.43,1.08
			c-1.78,0.37-3.56,0.74-5.32,1.13c-0.02-0.01-0.03,0-0.06,0.01c-0.11,0.01-0.23,0.03-0.34,0.06c-0.01,0-0.01,0-0.02,0.02
			c-1.17,0.25-2.32,0.51-3.48,0.77c-0.07,0-0.13,0.01-0.17,0.03c-0.64,0.13-1.27,0.28-1.9,0.44c-0.16,0.02-0.33,0.06-0.49,0.11
			c-1.59,0.37-3.19,0.74-4.78,1.13c-1.82,0.43-3.63,0.88-5.44,1.34h-0.01c-0.01-0.01-0.01-0.01-0.02,0
			c-0.01-0.01-0.02,0.01-0.02,0.01c-1.81,0.46-3.62,0.93-5.42,1.4c-0.13,0.04-0.27,0.07-0.4,0.11c-0.03,0.01-0.06,0.02-0.1,0.04
			h-0.03c-0.01-0.01-0.01,0-0.01,0c-1.63,0.43-3.25,0.87-4.87,1.32c-0.02,0-0.04,0-0.05,0.01c-1.66,0.47-3.32,0.94-4.98,1.41
			c-0.93,0.27-1.85,0.53-2.78,0.82c-0.92,0.28-1.82,0.54-2.73,0.82c-0.32,0.08-0.62,0.17-0.94,0.28c-1.47,0.44-2.95,0.9-4.42,1.36
			c-1.39,0.43-2.78,0.88-4.15,1.33c-0.89,0.29-1.77,0.58-2.65,0.88c-1.39,0.45-2.77,0.91-4.16,1.39c-0.22,0.06-0.45,0.14-0.67,0.23
			c-1.44,0.48-2.87,0.98-4.3,1.5c-0.11,0.03-0.21,0.06-0.32,0.11c-3.53,1.24-7.04,2.53-10.54,3.87c-0.34,0.13-0.68,0.25-1.02,0.4
			c-1.17,0.44-2.33,0.89-3.49,1.35c-0.56,0.22-1.12,0.44-1.68,0.67c-0.31,0.12-0.62,0.25-0.93,0.37c-1.12,0.44-2.23,0.88-3.34,1.34
			c-1.71,0.71-3.42,1.43-5.13,2.14c-1.14,0.48-2.27,0.96-3.4,1.46c-2.37,1.01-4.74,2.06-7.09,3.14c-0.57,0.27-1.16,0.52-1.73,0.79
			c-1.81,0.81-3.61,1.65-5.41,2.5c-0.84,0.4-1.68,0.81-2.51,1.21c-0.09,0.04-0.18,0.08-0.26,0.12c-1.48,0.72-2.96,1.44-4.44,2.18
			c-1.35,0.66-2.69,1.33-4.03,2.02c-0.91,0.46-1.83,0.92-2.74,1.41c-1.12,0.57-2.22,1.14-3.32,1.73c-0.09,0.03-0.18,0.09-0.27,0.14
			c-1.13,0.59-2.26,1.18-3.37,1.8c-0.82,0.43-1.62,0.87-2.43,1.33c-0.04,0.02-0.09,0.05-0.13,0.07c-1.11,0.61-2.23,1.23-3.34,1.84
			c-2.55,1.41-5.09,2.87-7.6,4.36c-0.66,0.37-1.31,0.76-1.96,1.15c-1.68,0.99-3.36,1.99-5.02,3.02c-1.57,0.95-3.11,1.92-4.66,2.89
			c-0.32,0.2-0.64,0.4-0.96,0.61c-1.45,0.91-2.91,1.85-4.35,2.79c-0.36,0-0.71,0.01-1.06,0.01c-16.24,0.2-32.47,0.39-48.71,0.59
			h-0.01c-1.41,0.02-2.82,0.03-4.24,0.05c-8.42,0.1-16.83,0.2-25.25,0.31h-0.04c-15.33,0.18-30.67,0.37-46.01,0.56
			c-4.82,0.06-9.66,0.12-14.49,0.33h-0.03c-1.27,0.06-2.53,0.12-3.8,0.2c-0.01,0-0.01,0-0.02,0c-2.56,0.15-5.12,0.37-7.67,0.66
			c-4.06,0.46-8.12,1.11-12.2,1.09c-3.85-0.01-7.66-0.64-11.47-1.28c-0.23-0.04-0.47-0.08-0.7-0.12
			c-6.59-1.15-13.18-2.28-19.62-3.41h-0.01c-5.17-0.89-10.23-1.79-15.12-2.67c-4.25-0.76-8.36-1.51-12.3-2.25
			c-2.17-0.41-4.26-0.8-6.3-1.2c-2.69-0.34-5.38-0.65-8.07-0.95c-0.31-0.04-0.61-0.07-0.91-0.1c-1.54-0.17-3.07-0.34-4.6-0.5
			c-1.14-0.12-2.27-0.24-3.4-0.35c-1.36-0.14-2.71-0.27-4.06-0.4c-0.15-0.02-0.3-0.04-0.45-0.05c-0.62-0.07-1.23-0.12-1.84-0.18
			c-0.22-0.02-0.45-0.04-0.67-0.06c-3.2-0.29-6.4-0.56-9.58-0.81c-0.06-0.01-0.13-0.01-0.2-0.01c-1.07-0.09-2.13-0.17-3.2-0.25
			c-0.23-0.02-0.47-0.03-0.7-0.05c-1.26-0.09-2.52-0.18-3.78-0.26c-0.12-0.01-0.24-0.02-0.37-0.03c-0.12-0.01-0.25-0.02-0.37-0.03
			c-0.24-0.01-0.48-0.03-0.71-0.04h-0.05c-0.42-0.02-0.83-0.05-1.24-0.08c-0.22-0.02-0.44-0.03-0.67-0.04
			c-0.09,0-0.17-0.01-0.25-0.01c-0.18-0.01-0.35-0.02-0.52-0.03c-0.13-0.01-0.25-0.02-0.38-0.03c-0.59-0.03-1.17-0.07-1.76-0.1
			c-0.51-0.03-1.02-0.06-1.53-0.08c-0.15-0.02-0.3-0.03-0.45-0.03c-0.15-0.01-0.3-0.02-0.45-0.02c-0.34-0.02-0.67-0.04-1.01-0.05
			c-0.49-0.03-0.98-0.05-1.46-0.07c-0.82-0.04-1.64-0.08-2.46-0.12c-0.26-0.01-0.52-0.02-0.78-0.03c-0.48-0.03-0.95-0.05-1.41-0.06
			c-0.11-0.01-0.23-0.01-0.35-0.02c-0.12,0-0.24-0.01-0.36-0.01h-0.17c-0.09-0.01-0.18-0.01-0.27-0.01
			c-0.39-0.03-0.77-0.04-1.16-0.05c-0.2-0.01-0.38-0.02-0.57-0.02c-0.34-0.01-0.67-0.02-1-0.03c-0.28-0.01-0.55-0.02-0.82-0.03
			c-0.39-0.01-0.78-0.03-1.17-0.04c-0.34-0.01-0.69-0.01-1.02-0.02c-0.75-0.03-1.49-0.04-2.24-0.06l-0.01-0.01h-0.03l-0.01,0.01
			c-0.01,0-0.01,0-0.02-0.01h-0.01c0,0,0,0-0.01,0.01c-0.06-0.01-0.12-0.01-0.18-0.01h-0.06l-0.01-0.01h-0.08
			c-0.01,0.01-0.01,0.01-0.02,0c-0.01,0.01-0.01,0.01-0.02,0c-0.01,0.01-0.01,0.01-0.02,0c-0.01,0.01-0.01,0.01-0.02,0
			c-0.03,0.01-0.05,0.01-0.08,0c-1.21-0.03-2.42-0.05-3.63-0.07c-0.4,0-0.81-0.01-1.21-0.01c-0.8-0.01-1.6-0.02-2.4-0.02
			c-2.74-0.03-5.46-0.02-8.16,0c-0.57,0.01-1.15,0.02-1.72,0.02l-1.65,0.03c-0.48,0.01-0.97,0.02-1.45,0.03
			c-1.03,0.02-2.06,0.05-3.08,0.07h-0.14c-0.01,0.01-0.01,0.01-0.02,0.01c-0.97,0.03-1.94,0.06-2.9,0.09
			c-0.35,0.01-0.7,0.02-1.05,0.04c-0.31,0.01-0.62,0.03-0.93,0.04c-1.06,0.04-2.11,0.09-3.15,0.14c-0.31,0.02-0.62,0.03-0.92,0.05
			c-0.94,0.05-1.88,0.1-2.81,0.16c-0.06,0-0.12,0-0.18,0.01c-1.34,0.08-2.67,0.17-4,0.27c-0.06,0-0.12,0-0.19,0.01
			c-1.32,0.1-2.63,0.2-3.93,0.31c-2.24-0.55-4.48-1.09-6.73-1.62c-0.02-0.01-0.03-0.01-0.05-0.01c-0.34-0.07-0.67-0.16-1-0.24
			c-1.95-0.46-3.9-0.91-5.85-1.36c-1.2-0.27-2.39-0.54-3.59-0.81c-0.27-0.06-0.54-0.12-0.81-0.18c-0.03,0-0.06,0-0.09-0.01h-0.01
			c-1.39-0.32-2.78-0.63-4.17-0.93c-0.01-0.01-0.02-0.01-0.04-0.01c-0.73-0.16-1.46-0.32-2.18-0.48c-0.74-0.16-1.49-0.32-2.23-0.48
			c-0.16-0.04-0.32-0.07-0.48-0.1c0,0-0.01,0-0.01-0.01c-0.23-0.05-0.46-0.1-0.69-0.14c-0.81-0.18-1.62-0.35-2.44-0.51
			c-0.15-0.04-0.29-0.07-0.44-0.1c-0.43-0.09-0.85-0.18-1.28-0.26c-0.65-0.14-1.31-0.28-1.97-0.41c0,0,0,0-0.01,0l-0.01-0.01
			c-0.93-0.19-1.86-0.38-2.8-0.56c-1.34-0.28-2.69-0.55-4.03-0.81l-0.93-0.18c-0.43-0.09-0.86-0.17-1.29-0.25
			c-1.41-0.28-2.81-0.55-4.22-0.82c-0.75-0.14-1.49-0.28-2.24-0.42c-0.92-0.18-1.85-0.35-2.77-0.52c-0.59-0.11-1.2-0.22-1.79-0.33
			c-0.06-0.01-0.12-0.02-0.19-0.03c-0.08-0.01-0.16-0.03-0.24-0.04c-0.02-0.01-0.04-0.01-0.06-0.01c-0.01,0-0.01-0.01-0.02-0.01
			c-0.04-0.01-0.08-0.02-0.13-0.02c-1.74-0.32-3.49-0.63-5.23-0.93c-1.26-0.23-2.52-0.45-3.79-0.66c-1.44-0.25-2.89-0.5-4.33-0.74
			c-0.08-0.01-0.17-0.03-0.26-0.04c0,0-0.01,0-0.02-0.01c-0.16-0.02-0.31-0.05-0.46-0.07c-2.14-0.36-4.27-0.7-6.41-1.04
			c-0.03,0-0.06-0.01-0.09-0.01c-0.09-0.02-0.18-0.03-0.27-0.05c-1.84-0.29-3.68-0.57-5.51-0.85c-0.08-0.02-0.16-0.03-0.25-0.03
			c-0.72-0.11-1.44-0.22-2.16-0.33c-0.04-0.01-0.07-0.02-0.1-0.02c-0.03-0.01-0.06-0.01-0.09-0.01c-0.24-0.04-0.48-0.08-0.72-0.11
			c-0.72-0.11-1.44-0.21-2.15-0.31c-0.23-0.04-0.45-0.07-0.67-0.1c-1.76-0.26-3.53-0.51-5.29-0.75c-1.29-0.19-2.57-0.37-3.85-0.54
			c-0.28-0.04-0.56-0.08-0.84-0.11c-1.25-0.17-2.51-0.34-3.76-0.49c-0.63-0.09-1.26-0.17-1.89-0.25c-0.01,0-0.01,0-0.02,0
			c-0.01,0-0.02,0-0.03-0.01c-0.04-0.01-0.08-0.01-0.11-0.01c-1.25-0.17-2.49-0.32-3.73-0.47c-1.18-0.15-2.35-0.29-3.53-0.43
			c-0.17-0.03-0.34-0.05-0.51-0.06c-1.99-0.24-3.97-0.47-5.96-0.69c-0.29-0.04-0.59-0.07-0.88-0.1c-0.06-0.01-0.11-0.02-0.17-0.02
			c-1.78-0.21-3.55-0.4-5.33-0.58c-0.05-0.01-0.11-0.01-0.17-0.02c-0.13-0.01-0.26-0.03-0.4-0.04c-0.01,0-0.03-0.01-0.04-0.01
			c-1.06-0.11-2.11-0.22-3.17-0.32c-0.5-0.06-1.01-0.11-1.51-0.15c-0.9-0.09-1.8-0.18-2.7-0.27c-0.9-0.09-1.8-0.17-2.7-0.25
			c-0.01-0.01-0.03-0.01-0.04-0.01c-0.02-0.01-0.04-0.01-0.06-0.01c-0.11-0.01-0.22-0.02-0.34-0.03c-0.17-0.02-0.34-0.04-0.5-0.05
			c-0.09-0.01-0.19-0.01-0.28-0.02c-1.03-0.1-2.06-0.2-3.1-0.29c-0.35-0.03-0.71-0.06-1.07-0.09c-1.58-0.15-3.17-0.28-4.75-0.41
			c-0.03,0-0.06-0.01-0.09-0.01c-0.17-0.01-0.35-0.03-0.52-0.04c-0.02-0.01-0.03-0.01-0.05-0.01c-0.14-0.01-0.28-0.02-0.42-0.03
			c-2.15-0.18-4.3-0.35-6.46-0.51h-0.04c-0.02,0-0.04,0-0.05-0.01h-0.06c-0.01-0.01-0.02-0.01-0.03-0.01
			c-0.03-0.01-0.05-0.01-0.07-0.01c-0.63-0.04-1.26-0.09-1.89-0.13c-0.16-0.01-0.33-0.03-0.49-0.03c-0.19-0.02-0.39-0.03-0.59-0.04
			c-0.19-0.02-0.39-0.04-0.58-0.05c-0.36-0.02-0.72-0.05-1.08-0.08c-0.16-0.01-0.32-0.02-0.48-0.03h-0.05
			c-0.53-0.04-1.05-0.07-1.58-0.11c-0.15-0.01-0.31-0.02-0.46-0.03c-0.95-0.06-1.9-0.12-2.85-0.18c-0.04-0.01-0.07-0.02-0.11-0.01
			c-0.14-0.02-0.28-0.03-0.42-0.03c-0.02-0.01-0.05-0.01-0.07,0c-0.05-0.01-0.1-0.01-0.16-0.01c-0.39-0.03-0.78-0.06-1.16-0.08
			c-0.17-0.01-0.35-0.02-0.52-0.03c-0.02-0.01-0.04-0.01-0.06,0c-0.38-0.02-0.76-0.05-1.15-0.07h-0.04c-0.02,0-0.03,0-0.05-0.01
			h-0.04c0,0-0.01,0-0.02,0c-0.07,0-0.14-0.01-0.22-0.01c-0.03,0-0.07,0-0.1-0.01c-0.01-0.01-0.01-0.01-0.02,0h-0.03
			c-0.03-0.01-0.06-0.01-0.08-0.01c-0.03,0-0.06,0-0.09-0.01c-0.82-0.05-1.64-0.09-2.46-0.14c-1.28-0.07-2.55-0.14-3.82-0.21
			c0,0,0,0.01-0.01,0c-0.01,0.01-0.02,0.01-0.04,0c-0.02,0-0.03,0-0.05-0.01c-0.31-0.01-0.61-0.03-0.91-0.04
			c-1.42-0.07-2.85-0.14-4.27-0.21c-0.48-0.02-0.96-0.04-1.43-0.06c-0.08-0.01-0.18-0.01-0.28-0.01c-0.04-0.01-0.07-0.01-0.1-0.01
			c-0.37-0.02-0.73-0.03-1.09-0.05c-0.36-0.01-0.72-0.03-1.08-0.04c-0.71-0.03-1.42-0.06-2.12-0.09c-0.5-0.03-1-0.05-1.5-0.06
			c-0.38-0.02-0.76-0.03-1.14-0.04c-0.02,0-0.04,0-0.06-0.01c-1.46-0.06-2.92-0.11-4.38-0.15c-0.15,0-0.29-0.01-0.44-0.01
			c-0.46-0.02-0.92-0.04-1.37-0.05c-0.25-0.01-0.5-0.01-0.74-0.02c-0.21-0.01-0.43-0.01-0.64-0.02c-2.14-0.07-4.28-0.12-6.42-0.17
			c-0.08-0.01-0.15-0.01-0.23-0.01c-0.23,0-0.46,0-0.7-0.01c-0.63-0.02-1.26-0.03-1.89-0.04c-0.09-0.01-0.17-0.01-0.27,0
			c-0.01-0.01-0.03-0.01-0.04,0c-0.01-0.01-0.02-0.01-0.03,0c-0.01-0.01-0.01-0.01-0.02,0c0,0-0.01-0.01-0.02,0h-0.03
			c-0.61-0.01-1.21-0.02-1.82-0.03c-0.61-0.02-1.21-0.03-1.82-0.03c-0.02,0-0.04-0.01-0.06-0.01c-1.17-0.01-2.34-0.03-3.52-0.04
			c-1-0.01-1.99-0.02-2.99-0.03h-0.77c-0.23-0.01-0.45-0.01-0.68-0.01c-0.33-0.01-0.66-0.01-0.99-0.01c-0.07-0.01-0.13-0.01-0.2,0
			c-0.13-0.01-0.21-0.01-0.33,0h-0.01c-0.01-0.01-0.02-0.01-0.03,0c-1.43-0.01-2.85-0.01-4.27-0.01h-0.37
			c-2.64,0-5.27,0.01-7.91,0.04h-0.39c-2.09,0.02-4.18,0.04-6.27,0.08c-0.11,0-0.21,0-0.31,0.01c-0.71,0.01-1.41,0.02-2.12,0.04
			c-0.24,0-0.49,0.01-0.73,0.01c-0.03-0.01-0.06-0.01-0.08,0c-0.73,0.01-1.46,0.03-2.18,0.04c-0.79,0.02-1.57,0.04-2.36,0.06
			c-0.83,0.01-1.65,0.03-2.47,0.06c-1.22,0.04-2.44,0.07-3.66,0.1c-0.18-0.01-0.38,0-0.57,0.01c-0.83,0.03-1.65,0.05-2.48,0.09
			c-0.2,0.01-0.41,0.01-0.61,0.02c-1.71,0.06-3.42,0.13-5.13,0.19c0-0.01-0.01-0.01-0.01-0.01c-0.03,0-0.07,0-0.1,0.01
			c-1.86,0.07-3.72,0.16-5.6,0.24c-1.91,0.09-3.82,0.19-5.72,0.29c-0.29,0.01-0.58,0.02-0.88,0.04c-1.02,0.05-2.04,0.1-3.07,0.17
			c-0.91,0.05-1.81,0.1-2.72,0.16h-0.01c-0.32,0.01-0.64,0.03-0.97,0.05c-1.89,0.11-3.79,0.24-5.68,0.36
			c-2.39,0.16-4.77,0.33-7.15,0.51c-0.06,0-0.12,0.01-0.18,0.01c-7.57,0.56-15.13,1.22-22.68,1.97
			C104.58,737.05,51.79,746.92,0,761.42v152.02l68.8,2h1114.19c6.75,1.59,13.87,1.63,20.47,0H1500z"/>
		<path class="st3" d="M609.29,453.56c28.14,12.68,50.32,37.96,59.21,67.52c1.61,5.35,3.17,11.35,7.89,14.34
			c3.17,2.01,7.1,2.19,10.82,2.7c21.11,2.92,38.29,17.74,54.79,31.23s35.49,26.88,56.79,26.04c-10.15-35.87-47.54-55.5-72.62-83.08
			c-14.49-15.94-25.86-35.73-44.78-46.04c-11.59-6.31-25.09-8.48-36.57-14.99c-8.37-4.75-15.41-11.68-24.06-15.89
			c-8.65-4.22-20.2-5-26.93,1.88C595.75,448.63,606.6,457.79,609.29,453.56z"/>
		<path class="st3" d="M431.82,353.53c-4.95,1.87-11.47,4.82-12.31,10.05c-2.27,14.11,21.67,18.21,32.77,27.21
			c16.5,13.39,27.25,33.75,46.05,43.67c1.65,0.87,3.42,1.67,5.29,1.67c3.15,0,5.82-2.2,8.8-3.25c8.8-3.11,17.53,4.11,24.55,10.25
			c9.2,8.05,19.22,15.16,29.85,21.19c1.42,0.81,3.18,1.6,4.61,0.81c0.92-0.51,1.41-1.55,1.71-2.57c2.13-7.16-2.39-14.65-7.82-19.78
			c-5.43-5.13-12.06-9.19-16.11-15.46c-2.84-4.4-4.23-9.62-7.13-13.98c-3.57-5.38-9.15-9.05-14.61-12.49
			c-20.1-12.69-40.76-24.46-61.42-36.23C456.01,358.91,444.38,348.78,431.82,353.53z"/>
		<path class="st3" d="M18.23,844.64c26.03-15.72,52.06-31.44,78.09-47.16c3.16-1.91,6.45-3.86,10.12-4.24
			c3.67-0.38,7.83,1.32,9.09,4.78c0.79,2.18,0.32,4.59-0.15,6.86c-1.61,7.67-3.22,15.34-4.82,23.01c-0.68,3.25-1.38,6.55-2.97,9.46
			c-1.93,3.53-5.04,6.27-8.39,8.5c-19.81,13.22-46.78,9.94-67.84,21.07c-3.97,2.1-8.67,4.74-12.62,2.61
			c-2.24-1.21-3.5-3.67-4.27-6.09C12.45,857.15,11.67,848.6,18.23,844.64z"/>
		<path class="st3" d="M678.51,439.49c31.31,4.27,61.73,14.97,88.82,31.24c13.76,8.26,29.26,18.37,44.56,13.52
			c-4.42-10.15-14.19-16.83-23.86-22.22c-40.06-22.35-85.77-31.95-130.69-41.26c-2.05-0.43-4.33-0.82-6.14,0.24
			c-2.43,1.42-2.85,4.98-1.59,7.49s3.72,4.18,6.16,5.58C665.06,439.39,675.64,442.42,678.51,439.49z"/>
		<path class="st3" d="M864.59,528.13c-6.58,4.31-6.96,14.41-2.87,21.12s11.28,10.81,18.23,14.49
			c36.97,19.53,75.81,35.25,114.57,50.93c34.39,13.91,69.02,27.9,105.38,35.25c6.99,1.41,15.8,1.85,19.61-4.18
			c4.05-6.42-1.01-14.65-6.33-20.06c-37.62-38.22-94.77-47.64-143.06-70.97c-17.18-8.3-33.49-18.53-51.39-25.13
			C900.83,522.97,879.47,518.38,864.59,528.13z"/>
		<path class="st3" d="M691.25,784.99c-19.48,12.01-39.14,25.09-51.96,44.04s-17.33,45.28-5.18,64.67c1.21,1.93,2.63,3.83,4.65,4.88
			c2.39,1.25,5.23,1.13,7.92,0.99c15.07-0.82,31.66-2.32,42.14-13.17c2.65-2.75,4.77-5.98,7.55-8.6
			c8.35-7.85,20.81-8.73,32.14-10.38c17.98-2.62,35.37-8.21,52.67-13.76c15.1-4.85,32.55-12.19,35.81-27.71
			c-13.29,5.96-28.2,8.29-42.67,6.66c-4.63-0.52-9.95-2.02-11.62-6.37c-2.33-6.09,4.13-11.58,9.28-15.58
			c7.08-5.5,13.12-12.32,17.73-20.01c1.57-2.62,2.97-5.98,1.36-8.58c-1.46-2.36-4.64-2.82-7.4-3.05
			C748.06,776.12,710.24,773.28,691.25,784.99z"/>
		<path class="st3" d="M1005.96,806.37c-38.11,12.51-72.88,35.03-99.9,64.68c-4.35,4.77-8.44,12.59-3.68,16.96
			c20.17-6.86,35.52-23.76,55.3-31.67c18.63-7.45,41.14-6.99,55.98-20.5c6.04-5.5,10.32-13.87,8.32-21.78
			C1019.98,806.14,1009.72,800.65,1005.96,806.37z"/>
		<path class="st3" d="M1264.58,797.77c-1.65,4.93-5.24,8.92-8.45,13.03c-9.87,12.63-16.76,27.57-19.97,43.28
			c-3.64,17.87-3.24,38.17-15.64,51.54c-4.61,4.97-10.58,8.21-17.06,9.82c-6.6,1.63-13.72,1.59-20.47,0
			c-5.06-1.18-9.9-3.24-14.18-6.11c-15.62-10.49-23.98-29.48-25.46-48.24s3.11-37.46,8.83-55.38c8.18-25.64,18.77-50.53,31.59-74.19
			c-8.15-3.57,6.2-20.38,22.31-21.89c16.11-1.51,31.48,8.85,40.56,22.26c9.07,13.4,13.05,29.5,16.86,45.23
			C1265.16,783.9,1266.79,791.14,1264.58,797.77z"/>
		<path class="st3" d="M234.25,288.55c6.51,4.05,14.78,3.25,22.45,3.1c19.95-0.4,40.46,4.92,56.02,17.43
			c4.91,3.95,9.38,8.7,11.84,14.5c1.63,3.85,2.34,8.06,4.07,11.87c3.19,7.02,9.56,12.07,16.19,16.02c3.03,1.81,6.32,3.48,9.85,3.57
			c3.53,0.09,7.34-1.86,8.34-5.24c0.73-2.47-0.14-5.14-1.42-7.38c-1.89-3.31-4.62-6.04-7.01-9c-9.11-11.29-13.65-26.42-25.23-35.16
			c-5.55-4.19-12.26-6.51-18.85-8.74c-9.26-3.12-18.61-6.2-28.3-7.53c-14.64-2.01-29.5,0.04-44.13,2.08
			c-1.47,0.21-3.11,0.51-3.99,1.71S234.07,289.24,234.25,288.55z"/>
		<path class="st3" d="M128.15,374.73c-3.67-0.35-7.67-0.86-10.22-3.52c-0.96-1-1.63-2.24-2.18-3.51c-0.51-1.19-0.93-2.44-0.9-3.74
			c0.03-1.29,0.56-2.62,1.63-3.35c0.85-0.58,1.92-0.72,2.91-0.99c1.92-0.52,3.65-1.57,5.55-2.14c2.48-0.74,5.11-0.62,7.69-0.5
			c1.07,0.05,2.18,0.11,3.11,0.64c0.72,0.41,1.26,1.06,1.74,1.73c2.79,3.9,3.99,8.91,3.25,13.65c-0.08,0.5-0.19,1.02-0.51,1.41
			c-0.37,0.45-0.95,0.66-1.5,0.82C134.54,376.47,129.97,376.37,128.15,374.73z"/>
		<path class="st3" d="M148.07,372.98c7,1.47,14.21,2.94,21.23,1.64c0.81-0.15,1.65-0.35,2.3-0.86c1-0.79,1.36-2.17,1.35-3.45
			c-0.01-1.28-0.31-2.54-0.33-3.82c-0.04-2.03,0.66-4.06,1.93-5.64c-5.7-5.18-13.88-6.5-21.58-6.8c-2.38-0.09-5.35,0.27-6.16,2.51
			c-0.21,0.59-0.23,1.24-0.24,1.87c-0.05,2.73-0.11,5.46-0.16,8.19c-0.03,1.54-0.05,3.15,0.63,4.54
			C147.72,372.54,149.33,373.61,148.07,372.98z"/>
		<path class="st3" d="M151.42,404.98c2.54,4.16,8.31,6,12.79,4.07c0.44-0.19,0.87-0.41,1.19-0.77c0.96-1.07,0.5-2.75-0.01-4.1
			c-0.71-1.87-1.43-3.73-2.14-5.6c-0.39-1.01-0.78-2.04-1.48-2.87c-1.76-2.11-4.89-2.38-7.61-1.98c-2.01,0.29-4.18,1.03-5.13,2.82
			c-0.91,1.72-0.38,3.88,0.65,5.53C150.7,403.72,152.17,405.05,151.42,404.98z"/>
		<path class="st3" d="M173.64,409.37c2.96-0.13,5.94,0.28,8.75,1.21c1.28,0.42,2.62,0.96,3.95,0.7c1.38-0.28,2.45-1.37,3.25-2.53
			c0.86-1.25,1.54-2.76,1.24-4.25c-0.32-1.58-1.63-2.72-2.8-3.83c-0.5-0.47-1.01-0.99-1.19-1.65c-0.26-0.92,0.13-2.03-0.45-2.79
			c-0.28-0.36-0.73-0.55-1.15-0.71c-3.92-1.51-8.09-2.39-12.29-2.6c-0.99-0.05-2.15,0.02-2.71,0.83c-0.58,0.84-0.19,1.97,0.12,2.94
			c0.5,1.56,0.75,3.2,0.73,4.84c-0.02,1.82-0.36,3.7,0.21,5.43C171.86,408.68,173.85,410.14,173.64,409.37z"/>
		<path class="st3" d="M201.41,408.89c2.99,0.85,6.15-0.22,9.26-0.36c2.78-0.13,5.59,0.53,8.03,1.86c1.16,0.63,2.27,1.43,3.56,1.71
			c1.29,0.28,2.87-0.16,3.38-1.38c0.6-1.42-0.55-2.99-1.83-3.84s-2.83-1.42-3.73-2.67c-1.45-2.03-0.65-5.08-2.13-7.09
			c-0.6-0.82-1.49-1.35-2.39-1.82c-4.66-2.45-9.92-3.74-15.19-3.71c-0.48,0-1,0.03-1.35,0.35c-0.34,0.31-0.44,0.8-0.51,1.25
			c-0.63,4.28-0.46,8.67,0.52,12.89c0.13,0.58,0.29,1.17,0.61,1.68C200.3,408.81,201.67,409.36,201.41,408.89z"/>
		<path class="st3" d="M123.96,324.37c-2.56-0.89-5.18-1.81-7.27-3.53c-2.09-1.72-3.59-4.43-3.12-7.1c0.37-2.08,1.97-3.89,3.99-4.51
			c2.38-0.73,5.02,0.13,7.43-0.49c2.32-0.6,4.59-2.55,6.81-1.65c0.88,0.36,1.53,1.11,2.05,1.9c2.61,3.98,2.46,9.58-0.37,13.41
			c-0.29,0.4-0.62,0.78-1.04,1.02c-0.51,0.3-1.12,0.36-1.72,0.42c-1.67,0.16-3.33,0.33-5,0.49
			C124.78,324.43,123.68,324.47,123.96,324.37z"/>
		<path class="st4" d="M1172.72,664.29c-1.32,7.58-6.26,13.96-11.26,19.82c-2.08,2.45-4.29,5-5.06,8.13
			c-1.5,6.04,2.7,12.11,2.59,18.33c-0.22,11.64-14.04,17.48-20.57,27.11c-9.04,13.31-4.97,35.4-19.25,42.87
			c-1.26,0.66-2.61,1.16-3.98,1.63c-2.39,0.82-4.82,1.59-6.83,3.1c-2.93,2.21-4.5,5.58-5.48,9.2c-0.5,1.8-0.84,3.65-1.15,5.46
			c-6.38,38.12-7.16,77.15-2.37,115.5h-7.29c-3.55-10.54-6.07-21.44-7.47-32.47c-1.58-12.44-1.75-25.01-1.94-37.56
			c-0.19-13.25-0.39-26.5-0.57-39.76c-8.74,11.21-20.64,19.92-33.95,24.87c-1.44-8.06-0.52-16.53,2.61-24.11
			c8.75-1.75,15.14-11.07,22.21-16.14c-6.23-0.77-8.05-6.36-5.79-9.94c1.18-1.88,3.32-2.87,5.02-4.3
			c4.43-3.76,5.31-10.07,5.39-15.99c0.01-0.62,0.01-1.22,0.01-1.83c0-0.4,0-0.78-0.01-1.18c-0.14-14.59-1.41-29.17-3.79-43.58
			c-6.34-6.31-16-8.1-24.93-7.52c-8.93,0.57-17.61,3.17-26.5,4.28c-12.62,1.58-25.47,0.14-38.08,1.73
			c-24.13,3.04-45.4,16.75-65.74,30.1c-2.28,1.5-4.67,3.11-5.88,5.56c-1.22,2.45-0.73,5.97,1.72,7.15c1.78,0.86,3.87,0.28,5.75-0.33
			c12.76-4.09,25.53-8.17,38.29-12.26c4.24-1.36,8.72-2.72,13.05-1.73c2.54,0.58,4.92,2.32,6.23,4.51c0.93,1.54,1.31,3.33,0.83,5.11
			c-0.9,3.33-4.09,5.04-7.55,6.08c-0.01,0.01-0.01,0-0.02,0c-1.32,0.41-2.67,0.71-3.96,0.96c-22.83,4.48-44.8,13.33-64.36,25.93
			c-5.61,3.62-14.17,7.06-17.87,1.5c7.24-4.36,14.02-9.44,20.22-15.17c-6.63-0.61-13.05-3.41-18.01-7.85
			c-1.61-1.44-3.13-3.1-5.16-3.84c-3.6-1.3-7.44,0.62-11.08,1.78c-13.19,4.17-27.93-1.89-41.22,1.97
			c-12.24,3.55-21.11,14.89-33.43,18.11c1.59-4.72,6.61-7.15,10.44-10.31c1.33-1.11,2.55-2.59,3.4-4.19c0.35,0,0.71-0.01,1.06-0.01
			c1.44-0.94,2.9-1.88,4.36-2.79c0.32-0.21,0.64-0.41,0.96-0.61c1.54-0.97,3.09-1.94,4.65-2.89c1.67-1.03,3.34-2.03,5.02-3.02
			c0.65-0.39,1.3-0.77,1.96-1.15c2.51-1.49,5.05-2.94,7.6-4.36c1.11-0.62,2.23-1.24,3.34-1.84c0.85-0.49,1.7-0.95,2.56-1.4
			c1.11-0.62,2.24-1.21,3.37-1.8c0.09-0.06,0.18-0.11,0.26-0.14c1.1-0.58,2.21-1.16,3.32-1.73c0.92-0.49,1.83-0.95,2.75-1.41
			c1.33-0.68,2.68-1.36,4.03-2.02c1.48-0.74,2.96-1.46,4.44-2.17c0.08-0.04,0.17-0.09,0.25-0.12c0.83-0.41,1.68-0.82,2.51-1.21
			c1.8-0.85,3.6-1.69,5.4-2.5c0.57-0.26,1.16-0.52,1.73-0.78c2.35-1.08,4.72-2.13,7.09-3.14c1.12-0.5,2.26-0.98,3.4-1.46
			c1.71-0.72,3.42-1.43,5.13-2.14c1.11-0.46,2.23-0.9,3.34-1.35c0.87-0.35,1.74-0.69,2.61-1.04c1.16-0.46,2.32-0.92,3.49-1.36
			c0.34-0.14,0.68-0.26,1.03-0.4c3.5-1.33,7-2.62,10.53-3.87c0.11-0.04,0.21-0.08,0.32-0.11c1.43-0.52,2.87-1.01,4.3-1.5
			c0.22-0.09,0.45-0.17,0.67-0.23c1.39-0.47,2.77-0.94,4.16-1.39c0.88-0.3,1.76-0.58,2.65-0.87c1.38-0.45,2.77-0.9,4.16-1.33
			c1.47-0.46,2.94-0.92,4.41-1.36c0.32-0.11,0.63-0.2,0.95-0.29c0.9-0.28,1.81-0.54,2.72-0.82c0.93-0.29,1.85-0.55,2.78-0.82
			c1.67-0.47,3.32-0.95,4.99-1.41c0.01-0.01,0.02-0.01,0.04-0.01c1.8-0.5,3.61-0.99,5.42-1.47c1.8-0.47,3.61-0.95,5.42-1.4
			c0,0,0.01-0.02,0.02-0.01c0.01-0.01,0.01-0.01,0.02,0h0.01c1.81-0.46,3.62-0.92,5.44-1.35c1.59-0.39,3.19-0.76,4.78-1.12
			c0.17-0.06,0.33-0.09,0.5-0.11c0.63-0.17,1.26-0.31,1.9-0.44c0.04-0.02,0.1-0.03,0.17-0.03c1.17-0.25,2.32-0.52,3.49-0.77
			c0.01-0.01,0.01-0.01,0.02-0.01c0.11-0.03,0.23-0.06,0.34-0.07c0.02-0.01,0.03-0.02,0.06-0.01c1.76-0.39,3.54-0.76,5.32-1.12
			c1.81-0.36,3.63-0.73,5.44-1.08c0.01,0.01,0.01,0.01,0.02,0c0.01,0.01,0.01,0.01,0.02,0h0.01c1.39-0.28,2.77-0.54,4.16-0.81
			c1.95-0.36,3.9-0.71,5.86-1.05c-5.33-0.09-10.56-0.4-15.71-0.92c-20.42-2.04-39.49-7.29-57.5-14.88
			c-14-5.9-27.35-13.2-40.69-20.48c-30.3-16.53-60.58-33.07-90.88-49.6c-0.55-0.25-1.1-0.5-1.65-0.72c-0.41-0.18-0.82-0.34-1.22-0.5
			c-0.01-0.01-0.02-0.01-0.03-0.01c-0.23-0.1-0.47-0.19-0.72-0.28c-0.03-0.01-0.06-0.02-0.09-0.03c-0.43-0.17-0.86-0.32-1.29-0.46
			c-1.14-0.4-2.28-0.76-3.43-1.09c-0.53-0.15-1.06-0.31-1.6-0.44c-0.74-0.2-1.49-0.39-2.23-0.56h-0.01c-0.41-0.1-0.82-0.2-1.21-0.28
			c-0.39-0.09-0.77-0.18-1.16-0.25c-0.12-0.03-0.24-0.06-0.38-0.08c-0.92-0.19-1.84-0.37-2.77-0.53c-0.93-0.18-1.86-0.33-2.8-0.47
			c-0.94-0.15-1.89-0.3-2.83-0.43c-0.98-0.15-1.96-0.29-2.94-0.41c-1.56-0.21-3.1-0.4-4.65-0.58c-1.75-0.22-3.51-0.43-5.26-0.65
			c-1.43-0.18-2.86-0.36-4.28-0.56c-0.56-0.08-1.13-0.15-1.7-0.24c-1.04-0.15-2.06-0.31-3.08-0.49c-0.79-0.12-1.58-0.26-2.37-0.41
			c-0.88-0.17-1.76-0.33-2.64-0.51c-0.84-0.18-1.68-0.36-2.51-0.56c-0.13-0.02-0.26-0.06-0.4-0.1c-0.39-0.09-0.77-0.18-1.15-0.28
			c-0.39-0.09-0.76-0.19-1.15-0.3c-0.67-0.18-1.35-0.36-2.02-0.56c-23.18-6.86-42.83-24.62-66.87-27.14
			c-28.03-9.78-55.93-22.33-82.42-37.37c-32.65-17.79-66.4-36.65-100.6-54.67c-20.68-12.13-42.13-23.76-63.89-34.79
			c-19.5-6.26-38.06-12.01-56.75-17.29c-14.18-0.46-28.4,1.44-42.62,1.25c-24.55-0.34-48.53-6.9-71.01-13.71
			c-1.56,0.12-3.11,0.23-4.67,0.33c-0.3,0.02-0.61,0.04-0.9,0.07c-0.37-0.5-0.75-1-1.11-1.51c-3.22-4.42-6.13-9.12-8.98-13.79
			c-1.44-2.36-2.92-4.83-3.94-7.41v-0.01c-0.83-2.08-1.35-4.26-1.3-6.51c1.18,1.5,2.36,2.99,3.54,4.49
			c3.21,4.07,6.42,8.14,9.63,12.21c2.55,3.24,7.03,6.76,10.21,4.15c1.85-1.52,1.91-4.29,1.82-6.68c-0.68-19.43-0.4-38.9,0.85-58.31
			c0.1-1.54,0.76-3.61,2.31-3.44c0.33,0.04,0.63,0.19,0.9,0.39c0.17,0.11,0.33,0.24,0.47,0.38c4.93,4.4,5.46,11.79,5.65,18.39
			c0.24,8.17,0.47,16.35,0.71,24.53c0.24,8.12,1.03,17.37,7.5,22.28c0.98-2.6,4.56-3.32,7.15-2.29c2.59,1.04,4.49,3.24,6.51,5.17
			c3.97,3.78,8.78,6.68,13.97,8.43c5.11,1.71,10.5,2.28,15.85,2.86c8.89,0.95,17.79,1.9,26.68,2.85c0.18,0.01,0.35,0.01,0.53,0.02
			c6.15,0.21,13.36-1.52,19.94-4.58c8.17-4.71,19.79-4.09,29.77-0.45c9.98,3.63,18.71,9.97,27.36,16.12
			c2.31,1.64,5.42,3.32,7.78,1.75c2.12-1.41,2.08-4.65,0.84-6.87c-1.25-2.21-3.35-3.78-5.01-5.71c-1.64-1.94-2.86-4.65-1.84-6.98
			c12.47,7.86,25,16.14,39.31,18.06c2.75,0.37,5.68,0.55,7.96,2.14c2.01,1.4,3.19,3.68,4.54,5.72c6.5,9.79,17.88,14.94,28.67,19.61
			c16.74,7.22,33.47,14.46,50.22,21.69c-7.04-8.49-14.08-16.99-21.12-25.48c12.57,2.05,21.96,12.2,32.51,19.33
			c4.83,3.25,10.01,5.94,14.86,9.18c22.29,14.87,35.96,40.49,58.95,54.21c-1.31-5.47-1.38-10.03-1.44-14.58
			c-0.01-1.09-0.01-2.24,0.49-3.21c1.62-3.14,6.43-1.9,9.29,0.18c8.96,6.51,14.55,16.64,22.65,24.19
			c11.06,10.3,26.26,15.18,41.31,16.75c3.04,0.32,6.31,0.61,8.66,2.56c1.84,1.54,2.8,3.85,3.9,5.98
			c5.59,10.78,16.28,18.19,27.67,22.33c11.4,4.16,23.63,5.42,35.69,6.65c9-3.92,20.03-1.1,29.86,2.66c3.96,1.51,7.9,3.19,11.88,4.67
			c3.57,1.33,7.18,2.51,10.86,3.28c2.43,0.51,4.89,0.83,7.39,0.9c-2.06-4.83-5.06-9.28-8.78-12.99
			c16.42-4.27,30.81,14.33,47.77,14.39c-13.37-8.53-26.75-17.06-40.11-25.59c-2.36-1.5-4.81-3.13-6.69-5.15h-0.01
			c-1.31-1.39-2.36-2.98-2.93-4.83c1.67-0.92,3.57-0.93,5.48-0.58c1.25,0.23,2.49,0.62,3.67,1c11.98,3.9,23.99,7.83,35.34,13.29
			c11.56,5.56,22.33,12.66,34.01,17.94c23.32,10.53,49.85,13.65,71.61,27.12c36.14,7.65,73.5,15.44,110.86,23.23
			c10.74,2.24,22.26,4.36,32.94,3.06c0.01,0,0.01,0,0.01,0c5.53-0.67,10.83-2.25,15.67-5.19c9.03-5.5,17.63-15.79,27.76-12.76
			c1.33,0.4,2.55,1.03,3.63,1.82C1171.6,650.94,1173.8,658.09,1172.72,664.29z"/>
		<path class="st4" d="M197.08,728.73c-0.91,0.05-1.81,0.1-2.72,0.16h-0.01c-0.32,0.01-0.64,0.03-0.97,0.05
			c-4.27,0.26-8.55,0.55-12.83,0.87c-0.06,0-0.12,0.01-0.18,0.01c-7.57,0.56-15.13,1.22-22.68,1.97
			C104.58,737.05,51.79,746.92,0,761.42v32.12c18.29-5.8,36.79-10.81,55.76-13.4c23.99-3.29,49.02-2.5,71.87,5.11
			c4.54,1.51,9,3.3,13.34,5.37c0.46,0.22,0.92,0.44,1.38,0.66h0.01c2.97,1.42,6.02,2.79,9.29,2.7c3.68-0.1,6.94-2.04,9.85-4.41h0.01
			c0.84-0.69,1.64-1.41,2.42-2.14c9.34-8.71,17.07-19.08,22.93-30.43C191.47,748.07,194.92,738.54,197.08,728.73z"/>
		<path class="st4" d="M82.29,885.57c-0.51-3.74-5.02-5.25-8.74-5.91c-17.49-3.1-35.24-4.74-53-4.94
			c-6.85-0.08-13.71,0.06-20.55,0.42v30.91c13.23-2.72,26.51-6.26,39.92-6.37c7.18-0.07,14.36,0.86,21.51,0.17
			c7.13-0.68,14.5-3.26,18.93-8.9c0.72-0.92,1.36-1.97,1.71-3.08C82.3,887.12,82.4,886.35,82.29,885.57z"/>
		<path class="st4" d="M1112.43,666.31c10.98-2.96,21.59-11.72,21.86-23.09c0.13-5.43-2.1-10.62-4.61-15.43
			c-4.28-8.2-9.54-15.89-15.62-22.86c-4.15-4.75-8.87-9.55-10.04-15.74c15.67,6.97,30.73,15.34,44.92,24.97
			c6.72,4.57,13.38,9.54,18.03,16.21c1.78,2.56,3.28,5.48,3.29,8.59c0.01,4.88-3.58,9.01-7.41,12.02
			c-10.18,8-23.07,11.53-35.58,14.88c-3.57,0.95-7.37,1.91-10.9,0.84C1114.53,666.16,1112.41,665.14,1112.43,666.31z"/>
		<path class="st4" d="M1153.73,553.57c0.03,1.04-0.21,2.05-0.82,2.94c-1.75,2.58-5.48,2.65-8.59,2.31
			c-5.51-0.62-11-1.64-16.36-3.07c-6.18-1.64-12.23-3.83-18.52-4.96c-6.83-1.22-13.81-1.2-20.74-1.18
			c-9.88,0.03-19.75,0.08-29.64,0.11c-3.54,0.01-7.1,0.03-10.61,0.61c-3.78,0.63-7.44,1.91-11.21,2.69
			c-8.16,1.7-16.75,0.78-24.51-2.26c-5.03-1.95-9.71-4.8-13.71-8.4c2.57,0.66,5.17,1.24,7.8,1.67c1.75,0.31,3.53,0.54,5.32,0.72
			c10.69,1.04,21.43-0.34,32.12-1.37c17.45-1.67,34.97-2.38,51.28-1.3C1114.93,544.86,1134.57,548.5,1153.73,553.57z"/>
		<path class="st4" d="M872.31,500.04c-2.38,1.1-4.86,2-7.41,2.76h-0.01c-7.3,2.16-15.14,3.21-22.59,4.97
			c-12.4,2.94-25.74,9.83-28.61,22.25c-3.88,16.86,13.54,31.17,17.51,47.82c0.5,2.07,0.78,4.18,0.79,6.33
			c-1.15-0.24-2.25-0.54-3.33-0.92h-0.01c-12.6-4.25-21.2-16.54-29.33-27.46c-23.34-31.35-52.83-58.09-86.31-78.25
			c1.93-0.81-0.69-1.21-2.54-2.89c-1.84-1.68-2.27-5.1-0.21-6.47c0.86-0.57,1.94-0.67,2.97-0.75c15.03-1,30.35,2.61,43.35,10.25
			c8.53,5.01,16.46,11.83,26.22,13.36c5.15,0.81,10.41,0.04,15.57-0.73c14.15-2.1,28.29-4.2,42.43-6.3c1.37-0.2,2.75-0.41,4.12-0.58
			v-0.01c0.58-0.08,1.17-0.14,1.75-0.21C854.98,489.25,863.4,495.43,872.31,500.04z"/>
		<path class="st4" d="M232.52,338.46c-0.22,1.26-0.46,2.56-1.2,3.61c-0.68,0.98-1.72,1.63-2.55,2.48
			c-2.75,2.83-2.66,7.25-3.41,11.12c-0.74,3.87-3.71,8.23-7.57,7.41c-2.38-0.51-3.88-2.79-5.83-4.22
			c-5.62-4.14-13.63-0.77-20.45-2.26c-3.71-0.81-6.95-3.04-10.58-4.14c-4.35-1.32-9.46-1.16-13.36-3.07
			c15.99-0.74,31.96-0.28,47.57,1.33c0.55-1.38,1.09-2.76,1.63-4.12c-1.43-0.33-2.87-0.66-4.3-0.97
			c-12.24-2.72-24.62-4.85-37.06-6.39c-1.53-0.19-3.08-0.36-4.61-0.53c0.42-0.39,0.13-0.55-1.36-0.33c1.05-0.46,1.95-1.07,2.78-1.78
			h0.01c0.84-0.73,1.59-1.57,2.26-2.48c3.67-5.01,5.33-12.32,10.29-16.37c3.33-2.72,7.75-3.62,11.99-4.39
			c0.05-0.01,0.12-0.02,0.18-0.03c2.6-0.49,5.21-0.96,7.81-1.43c2.45-0.45,4.9-0.9,7.33-1.35h0.01c5.02,1.07,10.07,1.74,15.19,1.38
			c-1.38-0.66-2.77-1.29-4.17-1.88c-0.49-0.21-0.96-0.4-1.44-0.6c0.12,0,0.23,0.01,0.35,0.03c5.7,0.84,9.88,6.2,11.17,11.81
			C234.5,326.92,233.51,332.77,232.52,338.46z"/>
		<path class="st4" d="M248.11,370.2c-3.12-8.47-1.66-17.86-0.17-26.76c1.64-9.75,3.27-19.51,4.91-29.26
			c0.42-2.47,1.18-5.39,3.55-6.2c1.42-0.49,2.98-0.02,4.4,0.47c11.1,3.81,23.82,9.05,33.85,2.94c3.45,6.08,9,10.94,15.48,13.56
			c-2.21-0.33-4.52-0.64-6.61,0.13c-2.09,0.78-3.81,3.04-3.16,5.18c1.45,4.8,11.54,3.23,11.35,8.24c-0.04,1.06-0.64,1.99-1.09,2.95
			c-2.17,4.6-0.94,10.01,0.33,14.93c0.97,3.75,2.07,7.73,4.95,10.32c4.68,4.2,11.9,3.09,17.99,4.68c4.83,1.26,9.35,4.73,10.63,9.55
			c1.29,4.82-1.63,10.72-6.54,11.62c-5.63,1.02-11.69-4.21-16.71-1.49c-3.95,2.14-4.17,8.06-1.81,11.89
			c2.36,3.82,6.42,6.18,10.02,8.87c3.29,2.46,6.57,6.81,4.36,10.28c-1.36,2.14-4.18,2.71-6.69,3.04
			c-23.93,3.15-49.94,1.28-69.46-12.93c-3.71-2.7-7.24-5.97-8.95-10.23c-1.37-3.41-1.45-7.18-1.52-10.86
			C247.06,383.79,246.92,376.47,248.11,370.2z"/>
		<path class="st4" d="M254.29,303.92c-5.91-1.04-11.76-2.39-17.53-4.04c-7.08-2.02-14.27-4.65-19.53-9.79s-8.09-13.43-4.97-20.09
			c-0.88-0.85-2.42-0.62-3.34,0.19c-0.92,0.81-1.36,2.02-1.73,3.19c-1.79,5.78-2.3,12.53,1.21,17.45c2.56,3.59,6.79,5.54,10.83,7.31
			C230.37,302.98,242.86,307.61,254.29,303.92z"/>
		<path class="st4" d="M206.34,315.26c-0.34,2.29-3.6,2.94-5.63,1.83c-1.6-0.87-2.72-2.35-3.94-3.73c-0.34-0.39-0.67-0.75-1.04-1.09
			c-2.91-2.79-6.98-4-10.95-4.75c-4.53-0.86-9.15-1.27-13.76-1.2c-5.05,0.08-10.13,0.71-15.15,0.25c-4.9-0.44-9.92-2.06-13.26-5.63
			c0.33,0.01,0.66,0.02,0.99,0.03c17.51,0.71,35.16,1.42,52.21,5.48c0.13,0.03,0.25,0.07,0.39,0.09c0.01,0.01,0.01,0.01,0.02,0.01
			c2.76,1.24,5.37,2.76,7.76,4.68c0.26,0.21,0.52,0.43,0.77,0.66C205.74,312.82,206.54,313.98,206.34,315.26z"/>
		<path class="st4" d="M175.42,339.24c-1.53-0.19-3.08-0.36-4.61-0.53c-4.67-0.52-9.33-0.96-14.01-1.3
			c-4.75-0.35-9.53-0.63-14.15-1.76c-2.33-0.57-4.6-1.37-6.97-1.67c-3.02-0.37-6.06,0.06-9.08,0.35c-0.28,0.03-0.54,0.06-0.82,0.08
			c-5.11,0.42-10.49,0.11-15.04-2.15h-0.01c-3.33-3.69-6-7.95-7.78-12.61c-0.12-0.31-0.24-0.63-0.34-0.96
			c0.09-0.72,0.26-1.43,0.52-2.13c0.35-0.95,0.84-1.81,1.41-2.6c1.93-2.63,4.93-4.43,8.05-5.91c-1.61,5.35-2.68,11.32,0.6,15.68
			c3.21,4.27,9.18,5.05,14.49,5.49c14.27,1.19,28.53,2.38,42.79,3.56c1.08,0.09,2.19,0.19,3.15,0.69c0.33,0.18,0.62,0.39,0.87,0.64
			C175.79,335.34,175.99,337.35,175.42,339.24z"/>
		<path class="st4" d="M161.89,296.33c0,0.12-0.01,0.24-0.03,0.36c-1.59,0.12-3.18,0.31-4.76,0.6c-0.33,0.06-0.66,0.12-0.99,0.19
			c3.09-5.72,5.94-11.78,6.04-18.25C162.35,284.93,162.27,290.64,161.89,296.33z"/>
		<path class="st4" d="M142.55,323.51c-1.03,4.06-3.43,7.49-6.15,10.58h-0.01c-0.23-0.04-0.46-0.08-0.71-0.11
			c-0.21-0.02-0.41-0.04-0.62-0.06c2.83-3.13,5.38-6.58,6.42-10.69c1.01-4.01,0.47-8.57-1.51-12.84c-1.51-3.24-3.85-6.35-6.98-9.26
			c0.02,0,0.06-0.01,0.08-0.01c0.45-0.06,0.9-0.1,1.37-0.13h0.01c2.89,2.82,5.07,5.82,6.53,8.94
			C143.07,314.42,143.62,319.24,142.55,323.51z"/>
		
			<linearGradient id="SVGID_1_" gradientUnits="userSpaceOnUse" x1="809.9512" y1="54.2494" x2="1159.7676" y2="125.5477" gradientTransform="matrix(1 0 0 1 0 610.8174)">
			<stop  offset="0" style="stop-color:#99685A"/>
			<stop  offset="0.3115" style="stop-color:#A37264"/>
			<stop  offset="0.845" style="stop-color:#BE8E80"/>
			<stop  offset="1" style="stop-color:#C79789"/>
		</linearGradient>
		<path class="st9" d="M1165.52,676.23c-11.15,11.61-15.31,28.03-22.35,42.51c-3.18,6.53-6.98,12.74-10.18,19.25
			c-3.14,6.41-5.69,13.08-8.23,19.74c-3.15,8.27-6.32,16.56-9.57,24.45c-1.25,3-2.5,5.93-3.78,8.8c-2.96,0.86-5.77,2.11-8.53,3.5
			c-4.33,2.17-8.55,4.69-13.01,6.6c-7.3,3.11-16.29,4.36-22.79-0.22c11.03-6.08,10-22.7,18.12-32.33c3.66-4.33,9.53-8.11,9.06-13.75
			c-0.19-2.34-1.53-4.53-1.38-6.87c0.13-1.94,1.28-3.66,2.42-5.24c4.73-6.58,10.01-12.86,13.46-20.21
			c3.45-7.33,4.85-16.12,1.5-23.51c-4.08-8.98-14.33-13.8-24.18-14.44c-9.84-0.64-19.54,2.12-29.12,4.47
			c-26.37,6.45-53.46,9.87-80.29,10.19h-0.01c-0.01,0.01-0.01,0.01-0.02,0c1.4-0.29,2.79-0.55,4.19-0.81
			c1.95-0.36,3.9-0.71,5.86-1.05c-5.33-0.09-10.56-0.4-15.71-0.92c-20.42-2.04-39.49-7.29-57.5-14.88
			c-14-5.9-27.35-13.2-40.69-20.48c-30.3-16.53-60.58-33.07-90.88-49.6c-0.55-0.25-1.09-0.49-1.65-0.72
			c-0.41-0.18-0.82-0.34-1.22-0.5c-0.01-0.01-0.02-0.01-0.03-0.01c-0.23-0.09-0.49-0.19-0.72-0.28c-0.03-0.01-0.06-0.02-0.09-0.03
			c-0.43-0.17-0.86-0.32-1.29-0.46c-1.14-0.4-2.28-0.76-3.43-1.09c-0.53-0.15-1.06-0.31-1.6-0.44c-0.74-0.2-1.49-0.39-2.23-0.56
			c3.56-1.22,7.18-2.06,10.83-2.56c12.36-1.74,25.17,0.22,37.76,3.63c3.64,0.99,7.27,2.11,10.86,3.28
			c4.48,1.47,8.91,3.04,13.26,4.61c31.38,11.34,62.77,22.68,94.15,34.01c-1.48,5.13-8.81,4.74-13.94,3.24
			c-30.84-9.01-61.7-18.02-92.55-27.03c-1.68-0.49-3.34-0.98-5.02-1.47c0.21,0.14,0.42,0.29,0.64,0.43
			c7.04,4.73,14.7,8.39,22.69,11.47c0.01,0,0.03,0.01,0.04,0.01c14.77,5.69,30.65,9.39,45.73,14.23
			c12.4,3.97,24.25,8.71,34.52,15.97c3.57,2.53,6.96,5.35,10.1,8.55c3,3.07,5.82,6.49,9.66,8.39c3.1,1.54,6.54,1.95,10.03,2.16
			c2.02,0.12,4.04,0.17,6.02,0.32c11.71,0.94,24.87,5.55,34.26-1.52c2.13-1.61,3.92-3.76,6.39-4.76c1.96-0.78,4.14-0.76,6.25-0.73
			c10.75,0.18,21.51,0.35,32.26,0.52c-10.43-6.73-22.28-11.26-34.53-13.24c-12.07-1.94-25.67-1.9-34.51-10.33
			c4.71-0.58,9.42-1.17,14.13-1.74c-5.39-2.17-10.46-5.18-12.08-9.56c27.29,6.23,53.51,16.47,80.76,22.84
			c27.24,6.39,56.45,8.71,82.76-0.81c8.66-3.13,16.86-7.51,26.25-14.27C1165.78,660.18,1165.2,667.39,1165.52,676.23z"/>
		<path class="st4" d="M176.23,315.98c-0.41,3.63-1,7.82-2.8,11.5c-1.43,2.92-3.54,5.42-5.59,7.83l-0.84-0.72
			c2-2.36,4.07-4.8,5.44-7.6c1.72-3.53,2.29-7.6,2.7-11.15c0.47-4.15,0.81-8.55,0.22-12.83c0.38,0.03,0.75,0.08,1.13,0.12
			C177.04,307.45,176.71,311.83,176.23,315.98z"/>
		<path class="st4" d="M144.77,365.53c-0.07,5.6-1.87,11.13-5.15,15.68c-0.45,0-0.92-0.01-1.37-0.02
			c3.43-4.48,5.36-10.03,5.42-15.67c0.03-4.78-1.26-9.53-3.69-13.63c0.4-0.07,0.79-0.12,1.19-0.15
			C143.54,355.91,144.81,360.7,144.77,365.53z"/>
		<path class="st4" d="M178.49,381.87c-0.4-0.01-0.79-0.01-1.19-0.02c2.17-4.96,3.12-10.7,2.78-16.68
			c-0.3-5.15-1.57-10.54-3.77-16.06c0.4-0.02,0.79-0.02,1.19-0.02c2.14,5.49,3.38,10.88,3.68,16.01
			C181.53,371.09,180.6,376.84,178.49,381.87z"/>
		<path class="st4" d="M311.14,279.22c-0.78,0.02-1.56,0.01-2.33-0.01c-5.27-0.13-10.53-0.55-15.75-1.27
			c-3.52-0.49-7.03-1.1-10.54-1.6c-7.27-1.01-14.61-1.52-21.96-1.5c-1.47,0-3.03,0.06-4.26,0.87c-1.06,0.72-1.7,1.9-2.58,2.82
			c-0.88,0.93-2.32,1.61-3.42,0.97c-0.66-0.39-1.01-1.14-1.51-1.72c-1.6-1.9-4.62-1.86-6.87-0.79c-2.24,1.07-3.99,2.91-6.01,4.36
			c-6.18,4.41-14.4,4.78-21.87,3.51c3.85-0.64,7.63-1.03,11.38-1.59c1.75-0.25,3.52-0.56,5.11-1.32c1.6-0.75,3.02-2.02,3.6-3.68
			c0.56-1.63,0.3-3.49,0.74-5.11c3.85,0.23,7.7,0.18,11.56-0.26C268.04,269.15,290.63,271.45,311.14,279.22z"/>
		<path class="st4" d="M168.61,411.04c-0.68,1.42-1.6,2.68-2.59,3.86c-0.45-0.04-0.89-0.09-1.33-0.14c1.14-1.29,2.19-2.66,2.93-4.19
			c1.65-3.47,1.67-7.91,0.01-12.18c-1.07-2.74-2.79-5.45-5.33-8.39c0.47,0,0.95-0.01,1.42-0.02c1.82,2.19,3.73,4.91,4.93,8.02
			C170.42,402.54,170.41,407.29,168.61,411.04z"/>
		<path class="st4" d="M196.91,416.96c-0.39,0-0.78-0.01-1.17-0.03c1.06-2.7,1.47-5.87,1.2-9.42c-0.28-3.79-1.25-7.54-2.19-11.16
			c-0.61-2.36-1.35-5.22-3-7.33c0.44-0.02,0.87-0.04,1.3-0.08h0.01c1.48,2.19,2.17,4.86,2.76,7.13c0.95,3.68,1.94,7.48,2.22,11.36
			C198.3,410.98,197.93,414.19,196.91,416.96z"/>
		<path class="st4" d="M369.25,405.32c-1.8-2.08,2.12-4.94,2.59-7.64c0.23-1.33-0.13-2.69-0.54-3.98
			c-1.64-5.09-11.32-10.18-7.61-14.02c5.1-5.28,13.05,6.56,19.81,9.42c7.3,3.09,14.21,7.1,20.52,11.9c1.15,0.88,2.31,1.81,3.06,3.05
			c1.38,2.27,1.06,5.44-0.74,7.39c-1.21,1.32-2.98,2.09-3.98,3.58c-0.99,1.49,2.22,2.49,1.41,4.09
			C401.08,424.44,376.2,413.33,369.25,405.32z"/>
		<path class="st4" d="M379.95,333.07c4.86,7.44,13.35,12.38,22.21,12.93c2.26,0.14,4.72,0.07,6.56,1.39
			c1.84,1.32,2.2,4.75,0.08,5.55c-0.73,0.28-1.54,0.17-2.32,0.06c-2.24-0.33-4.47-0.65-6.71-0.98c-0.85-0.12-1.85-0.2-2.43,0.43
			c-0.75,0.82-0.24,2.12,0.36,3.06c1.88,2.93,4.32,5.51,7.16,7.53c1.36,0.97,2.88,1.9,3.62,3.39s0.23,3.76-1.4,4.12
			c-0.9,0.19-1.8-0.23-2.61-0.65c-8.59-4.4-16.93-9.31-24.95-14.69c-1.05-0.71-2.14-1.47-2.73-2.59c-0.59-1.12-0.5-2.71,0.54-3.44
			c1.89-1.31,4.99,1.1,6.62-0.53c-1.51-2.84-4.05-5.07-5.25-8.06S378.59,333.27,379.95,333.07z"/>
		<path class="st4" d="M217.25,381.48c0.11-7.5,0.22-15.01,0.33-22.51c2.73,5.3,4.2,11.24,4.26,17.2c0.02,1.71-0.1,3.48-0.93,4.97
			S217.22,384.03,217.25,381.48z"/>
		<path class="st4" d="M224.46,347.92c2.73,0.24,5.68,0.57,7.7,2.43c1.23,1.14,1.96,2.71,2.51,4.29c3.24,9.33,1.31,19.56,1.81,29.42
			c0.04,0.74,0.28,1.7,1.02,1.76c0.33,0.03,0.64-0.14,0.89-0.35c1.56-1.24,1.72-3.52,1.7-5.51c-0.07-9.28-1.16-18.55-3.24-27.59
			c-0.39-1.72-0.91-3.56-2.31-4.62c-0.84-0.64-1.9-0.9-2.93-1.12c-2.77-0.59-5.59-0.97-8.43-1.13
			C222.84,347,223.24,348.63,224.46,347.92z"/>
		<path class="st4" d="M228.95,315.44c6.4,4.03,9.22,11.85,10.84,19.24c1.62,7.39,2.58,15.22,6.83,21.48
			c1.38-7.43-2.53-14.69-4.3-22.03c-0.89-3.69-1.25-7.52-2.46-11.12c-1.21-3.6-3.48-7.09-6.97-8.59
			C231.1,313.65,228.3,314.05,228.95,315.44z"/>
		<path class="st4" d="M1474.21,838.2c-5.2,0.03-10.4,0.02-15.6-0.05c-9.13-0.1-18.35-0.36-27.21-2.59
			c-0.47-0.12-0.93-0.24-1.4-0.37c-2.12-0.58-4.2-1.27-6.23-2.06c-0.57-0.22-1.13-0.45-1.69-0.68c-0.16-0.06-0.33-0.13-0.49-0.21
			c-0.52-0.22-1.05-0.45-1.56-0.69c-0.01,0-0.01,0-0.01,0c-0.59-0.27-1.17-0.54-1.75-0.82c-1.89-0.92-3.74-1.92-5.56-3
			c-0.59-0.35-1.18-0.7-1.77-1.07c-1.02-0.04-2.05-0.15-3.08-0.32c-3.78-0.63-7.47-2.14-11.18-3.01c-2.28-0.54-4.58-0.83-6.91-0.54
			c0.11,0.96,0.38,1.87,0.77,2.73c1.19,2.65,3.54,4.82,6.11,6.31c3.39,1.99,7.23,3.07,10.78,4.75c2.76,1.31,5.72,4.29,4.18,6.91
			c-1.11,1.9-3.78,1.99-5.97,1.83c-10.91-0.73-21.82-1.46-32.73-2.19c2.85,5.42,8.82,8.46,14.67,10.27
			c13.78,4.24,28.2,3.49,42.42,0.44c9.87-2.12,19.64-5.35,29.03-8.79C1464.21,843.15,1469.52,841.08,1474.21,838.2z"/>
		<path class="st4" d="M1016.22,549.06c-0.97,0.96-2.17,1.48-3.47,1.7c-2.49,0.44-5.4-0.22-7.93-0.97
			c-47.21-13.93-94.59-27.94-139.92-47h-0.01c-6.69-2.81-13.33-5.74-19.93-8.79c-1.48-0.68-3.17-1.64-3.33-3.28
			c-0.1-0.94,0.36-1.84,0.82-2.68c0.83-1.54,1.65-3.09,2.49-4.63v-0.01c0.19-0.36,0.39-0.71,0.57-1.07
			c0.39,0.29,0.78,0.57,1.18,0.86c8.29,6.06,16.71,12.23,25.62,16.84c7.81,4.04,15.98,6.87,24.77,7.33
			c28.58,6.85,55.63,18.76,83.21,28.91c6.17,2.26,12.4,4.46,18.75,6.08c2.57,0.66,5.17,1.24,7.8,1.67
			C1009.99,545.66,1013.11,547.34,1016.22,549.06z"/>
		<path class="st4" d="M667.33,767.05c-10.07,3.47-19.54,9.04-27.78,15.83c-15.36,12.66-26.92,29.32-37.16,46.4
			c-4.82,8.04-9.45,16.41-11.28,25.62c-1.82,9.2-0.44,19.48,5.69,26.57c-16.78-1.48-33.73-1.04-50.4,1.31
			c12.96-9.72,26.38-19.97,33.49-34.53c3.41-6.96,5.18-14.59,7.86-21.87c6.76-18.42,19.49-34.6,35.8-45.52
			c4.97-3.33,10.71-6.75,12.26-12.53c0.07-0.26,0.13-0.53,0.19-0.81c3.81,0.64,7.62,1.27,11.47,1.28c4.08,0.02,8.14-0.63,12.2-1.09
			C662.21,767.42,664.77,767.2,667.33,767.05z"/>
		<path class="st4" d="M854.61,779.17c-18.81,5.34-36.74,13.76-52.85,24.83c-4.98,3.42-10.37,8.65-8.77,14.47
			c22.46-9.46,44.91-18.91,67.37-28.37c2.99-1.26,6.48-3.2,6.54-6.45c0.09-4.33-5.89-5.97-10.06-4.81S848.49,782.57,854.61,779.17z"
			/>
		<path class="st4" d="M887.18,882.04c-6.3,5.65-13.94,12.1-13.15,20.53c0.45,4.71,3.56,8.64,5.78,12.87H852.8
			c-0.61-0.57-1.28-1.09-2-1.52c-4.03-2.4-9.01-2.59-13.65-1.94c-4.3,0.62-8.43,1.88-12.46,3.46h-38.17
			c0.32-0.65,0.69-1.27,1.11-1.84c2.48-3.44,6.09-5.93,8.79-9.21c6.9-8.38,6.5-21.88-0.9-29.83c-1.54-1.65-3.51-3.75-2.61-5.83
			c0.36-0.85,1.12-1.43,1.86-1.99c22.58-16.84,43.36-36.09,61.89-57.3c-4.86,1.28,1.14-3.24,5.98-1.78
			c4.84,1.46,7.53,7.05,7.07,12.09c-0.46,5.03-3.4,9.51-6.76,13.28c-6.84,7.67-15.79,13.47-21.39,22.07
			c-5.59,8.61-6.31,21.95,2.22,27.66c8.25,5.54,19.52,0.67,27.09-5.76c7.57-6.43,14.43-14.72,24.11-16.88
			C899.45,867.29,893.46,876.39,887.18,882.04z"/>
		<path class="st4" d="M931.62,797.36c18.75-6.91,39.36-8.7,59.02-5.11c2.66,0.48,5.55,1.22,7.14,3.4
			c-5.39,6.65-14.45,8.87-22.89,10.29c-15.98,2.69-32.2,3.94-48.4,3.74c-1.65-0.02-3.44-0.1-4.73-1.14
			c-1.99-1.61-1.8-4.88-0.27-6.93c1.53-2.05,3.98-3.16,6.34-4.14C940.06,792.38,952.72,788.38,931.62,797.36z"/>
		<path class="st4" d="M965.11,747.45c35.49-8.38,73.39-6.22,107.69,6.14c2.78,1,6.15,3.37,4.98,6.08
			c-0.51,1.18-1.75,1.85-2.94,2.36c-16.71,7.21-35.68,0.33-53.63-2.68c-18.83-3.16-38.12-1.9-57.12-3.78
			c-1.63-0.16-3.77-0.96-3.53-2.58c0.1-0.65,0.59-1.16,1.07-1.61C966.11,747.23,971.75,744.36,965.11,747.45z"/>
		<path class="st5" d="M585.06,508.78c-0.52-0.51-1.03-1.01-1.54-1.52C584.18,507.68,584.7,508.2,585.06,508.78z"/>
		<path class="st5" d="M971.2,696.34c-0.08,0.02-0.15,0.04-0.23,0.06c-20.42-2.04-39.49-7.29-57.5-14.88
			c-14-5.9-27.35-13.2-40.69-20.48c-30.3-16.53-60.58-33.07-90.88-49.6c-0.55-0.25-1.09-0.49-1.65-0.72
			c-0.41-0.18-0.82-0.34-1.22-0.5c-0.01-0.01-0.02-0.01-0.03-0.01c-0.23-0.1-0.47-0.19-0.72-0.28c-0.03-0.01-0.06-0.02-0.09-0.03
			c-0.43-0.17-0.86-0.32-1.29-0.46c-1.14-0.4-2.28-0.76-3.43-1.09c-0.53-0.15-1.06-0.31-1.6-0.44c-0.74-0.2-1.49-0.39-2.23-0.56
			h-0.01c-0.41-0.1-0.82-0.2-1.21-0.28c-0.39-0.09-0.77-0.18-1.16-0.25c-0.12-0.03-0.24-0.06-0.38-0.08
			c-0.92-0.19-1.84-0.37-2.77-0.53c-0.93-0.18-1.86-0.33-2.8-0.47c-0.94-0.15-1.89-0.3-2.83-0.43c-0.98-0.15-1.96-0.29-2.94-0.41
			c-1.56-0.21-3.1-0.4-4.65-0.58c-1.75-0.22-3.51-0.43-5.26-0.65c-1.43-0.18-2.86-0.36-4.28-0.56c-0.56-0.08-1.13-0.15-1.7-0.24
			c-1.04-0.15-2.06-0.31-3.08-0.49c-0.79-0.12-1.58-0.26-2.37-0.41c-0.88-0.17-1.76-0.33-2.64-0.51c-0.84-0.18-1.68-0.36-2.51-0.56
			c-0.13-0.02-0.26-0.06-0.4-0.1c-0.39-0.09-0.77-0.18-1.15-0.28c-0.39-0.09-0.76-0.19-1.15-0.3c-0.67-0.18-1.35-0.36-2.02-0.56
			c-23.18-6.86-42.83-24.62-66.87-27.14c-28.03-9.78-55.93-22.33-82.42-37.37c-32.65-17.79-66.4-36.65-100.6-54.67
			c-20.68-12.13-42.13-23.76-63.89-34.79c-19.5-6.26-38.06-12.01-56.75-17.29c-14.18-0.46-28.4,1.44-42.62,1.25
			c-24.55-0.34-48.53-6.9-71.01-13.71c-1.56,0.12-3.11,0.23-4.67,0.33c-0.3,0.02-0.61,0.04-0.9,0.07c-0.41,0.02-0.82,0.06-1.22,0.08
			c0.07-0.53,0.1-1.06,0.11-1.59c0.08-2.15-0.21-4.31-0.86-6.38c3.31,2.39,6.98,4.29,10.84,5.62c1.08,0.38,2.28,0.71,3.36,0.32
			c2.14-0.76,2.46-3.61,2.42-5.88c-0.04-1.88-0.09-3.74-0.12-5.61c-0.08-3.2-0.15-6.4-0.22-9.6c3.51,8.22,8.47,15.82,14.59,22.32
			c0.26,0.29,0.55,0.57,0.85,0.84l0.01,0.01c0.54,0.46,1.14,0.85,1.8,0.97c0.21,0.04,0.43,0.06,0.65,0.03
			c1.79-0.17,2.68-2.27,2.71-4.06c0.04-1.79-0.37-3.66,0.36-5.29c2.59,5.97,8.22,10.18,14.28,12.5c6.07,2.33,12.63,3,19.09,3.65
			c5.79,0.58,11.64,1.17,17.47,1.59c15.1,1.08,30.23,1.09,44.81-2.68c2.79-0.73,5.57-1.59,8.45-1.68c4.22-0.11,8.28,1.47,12.15,3.17
			c6.29,2.77,12.42,5.91,18.33,9.41c6.28,3.71,13.16,8,20.31,6.56c2.93-0.58,5.67-2.12,8.65-2.25c1.99-0.09,3.94,0.45,5.8,1.15
			c14.94,5.58,24.53,20.23,36.96,27.03c10.44,7.35,21.17,14.81,33.47,18.19c4.41,1.2,8.94,1.86,13.35,3.11
			c7.61,2.15,14.63,5.99,21.56,9.81c9.83,5.4,19.64,10.81,29.47,16.21c2.83,1.56,6.11,3.15,9.15,2.05c2.47-0.89,3.52-4.59,1.86-7.15
			c15.98,15.75,32.96,30.51,50.79,44.12c2.25-3.15,3.24-7.19,2.69-11.03c17.15,14.02,35.74,28.64,57.79,30.58
			c2.14,0.19,4.39,0.28,6.24,1.38c1.72,1.01,2.85,2.77,4.04,4.37c6.11,8.29,15.36,14.21,23.56,17.63
			c16.12,5.7,33.19,7.36,50.29,8.96c12.99,1.2,26.02,2.38,38.68,5.27c36.32,8.28,68.36,30.31,104.66,38.75
			c-31.27-7.42-62.53-14.86-93.79-22.28c-1.46-0.35-2.92-0.69-4.38-1.04c-1.96-0.47-3.92-0.94-5.88-1.4
			c8.81,5.76,18.54,9.64,28.57,12.87c0.01,0,0.03,0.01,0.04,0.01c10.03,3.24,20.34,5.8,30.38,8.92c5.17,1.61,10.29,3.38,15.35,5.31
			c11.87,4.49,23.42,9.84,34.52,15.97c10.33,5.7,20.31,12.09,29.79,19.1C962.77,689.49,967.04,692.85,971.2,696.34z"/>
		<path class="st5" d="M210.6,269.43c-3.17,3.18-4.21,8.18-3.25,12.61c1.05,4.76,4.09,8.89,7.72,12.17
			c11.22,10.11,28.25,12.62,42.47,7.57c11.31,4.58,22.18,10.18,32.48,16.71c1.57,9.03,5.78,17.6,11.99,24.35
			c-1.83,6.81,2.99,13.37,6.79,19.29c3.41,5.31,12.27,12.09,8.25,17.02c-1.07,1.31-3.44,0.47-4.53,1.76
			c-0.51,0.61-0.94,1.37-1.7,1.57c-0.65,0.18-1.32-0.13-1.92-0.44c-4.39-2.25-8.64-4.75-12.73-7.5c-3.77-2.54-7.48-5.35-10.04-9.1
			c-5.11-7.47-4.9-17.4-8.97-25.49c-2.18-4.32-5.53-7.99-7.67-12.34c-1.24-2.51-2.03-5.53-0.88-8.08c1.21-2.7,4.2-4.07,6.94-5.21
			c-6.07-3.57-12.45-6.61-19.04-8.85c-9.42,1.15-19.08,1.79-28.32-0.39c-9.23-2.17-18.1-7.53-22.58-15.9
			c-2.11-3.94-3.17-8.58-2.13-12.93c0.68-2.89,2.42-5.58,4.8-7.3L210.6,269.43z"/>
		<path class="st5" d="M223.8,395.46c-1.4-0.79-2.79-1.6-4.18-2.39c-0.22-0.12-0.45-0.26-0.57-0.49c-0.2-0.35-0.07-0.78,0.03-1.18
			c0.35-1.47,0.06-3.07-0.78-4.3c0.39-0.03,0.78-0.07,1.17-0.1c-1.09-2.4-3.46-3.57-6.13-4.14c-0.4-0.4-0.79-0.81-1.19-1.21
			c1.9-0.36,3.85-0.45,5.78-0.29c0.67,0.07,1.38,0.17,1.91,0.6c0.63,0.51,0.86,1.35,1.06,2.13
			C221.86,387.88,222.83,391.66,223.8,395.46z"/>
		<path class="st5" d="M222.2,354.05c-1.21-0.2-2.64-0.33-3.51,0.54c-0.61,0.61-0.87,1.63-1.69,1.88c-0.96,0.29-1.85-0.93-1.61-1.9
			c0.23-0.98,1.16-1.63,2.08-2.04c0.29-0.12,0.62-0.28,0.71-0.57c0.12-0.39-0.23-0.75-0.54-1.01c-0.65-0.53-1.3-1.07-1.95-1.61
			c0.3-0.74,0.58-1.48,0.87-2.22c0.42-0.24,0.89-0.45,1.35-0.29c0.57,0.22,0.77,0.92,0.93,1.52
			C219.42,350.5,220.59,352.5,222.2,354.05z"/>
		<path class="st5" d="M229.89,312.55c-2.08,1.62-3.68,3.86-4.56,6.35c-0.2-2.28-0.39-4.58-0.6-6.87c0.85-0.01,1.71-0.04,2.56-0.1
			c-0.6-0.29-1.2-0.56-1.8-0.84C226.79,310.76,228.9,311.12,229.89,312.55z"/>
		<path class="st5" d="M140.61,299.77c-1.2-0.03-2.43-0.07-3.62-0.19c-0.01-0.01-0.02-0.01-0.03-0.01c-1.6-0.36-3.13-0.99-4.57-1.96
			c-3.9-2.65-6.01-7.72-5.12-12.35c0.34-1.79,1.18-3.6,2.76-4.5c0.32-0.18,0.64-0.32,0.98-0.43c-1.28,3.01-1.27,6.63-0.07,9.73
			C132.63,294.41,136.38,297.76,140.61,299.77z"/>
		<path class="st5" d="M150.63,266.73c-2.4,1.14-4.14,3.29-6.08,5.12c-1.35,1.26-2.93,2.43-4.67,2.92c1.01-1.54,1.97-3.19,3.22-4.51
			c1.95-2.06,4.49-3.23,7.26-3.92C150.47,266.47,150.56,266.6,150.63,266.73z"/>
		<path class="st5" d="M126.6,334.33c-0.28,0.03-0.54,0.06-0.82,0.08c-5.11,0.42-10.49,0.11-15.04-2.15h-0.01
			c-0.56-0.28-1.09-0.58-1.62-0.92c-4.22-2.68-7.16-7.82-6.5-12.65c0.09-0.72,0.26-1.43,0.52-2.13c0.35-0.95,0.84-1.81,1.41-2.6
			c-0.35,2.85-0.29,5.68,0.79,8.31c1.37,3.32,4.21,5.87,7.39,7.56c3.18,1.68,6.68,2.61,10.16,3.53
			C124.12,333.68,125.37,334,126.6,334.33z"/>
		<path class="st5" d="M213.46,344.41c-0.26,0.47-0.6,0.88-0.98,1.21c-12.24-2.72-24.62-4.85-37.06-6.39
			c-1.53-0.19-3.08-0.36-4.61-0.53c-4.67-0.52-9.33-0.96-14.01-1.3c-0.24-0.02-0.47-0.03-0.72-0.06h-0.01
			c-2.62-0.51-5.27-0.81-7.95-0.72c-0.01-0.01-0.02-0.01-0.03,0c-1.83-0.23-3.64-0.55-5.44-0.99c-0.97-0.24-1.93-0.52-2.89-0.78
			c3.43,0.23,6.88,0.08,10.27-0.44c1.07-0.17,2.15-0.38,3.23-0.26c1.33,0.13,2.58,0.74,3.87,1.15c3.96,1.27,8.5,0.61,11.94-1.75
			c0.84,1.19,1.9,2.48,3.15,3.06h0.01c0.56,0.25,1.16,0.36,1.8,0.25c1.18-0.19,2.1-1.08,3.18-1.6c2.2-1.04,4.83-0.4,7,0.67
			c2.18,1.08,4.17,2.57,6.49,3.31c2.11,0.67,4.36,0.68,6.55,0.85C202.87,340.51,208.39,341.98,213.46,344.41z"/>
		<path class="st5" d="M224.54,309.25c-0.38,0.43-0.86,0.68-1.41,0.81c-0.49-0.21-0.96-0.4-1.44-0.6c0,0,0,0-0.01,0h-0.01
			c0,0,0-0.01-0.01-0.01c-8.35-3.38-17.11-5.64-25.84-7.89c-6.54-1.68-13.21-3.36-19.91-4.29c2.59-0.22,5.18-0.43,7.78-0.65
			c1.95-0.17,3.95-0.33,5.86,0.09c2.13,0.47,4.03,1.62,5.96,2.64c4.74,2.5,9.9,4.22,15.2,5.1
			C215.61,305.26,221.17,305.58,224.54,309.25z"/>
		<path class="st5" d="M124.02,380.87c-2.49-0.17-4.95-0.53-7.29-1.37c-3.85-1.38-7.38-4.3-8.37-8.27c-0.62-2.47-0.15-5.03,1-7.31
			c0,0.76,0.07,1.52,0.21,2.26c0.92,4.8,4.33,8.83,8.4,11.54C119.87,378.99,121.91,380,124.02,380.87z"/>
		<path class="st5" d="M209.34,381.47c-0.06,0.34-0.2,0.64-0.4,0.9c-0.28-0.01-0.54-0.01-0.82-0.02
			c-9.88-0.17-19.75-0.32-29.64-0.49c-0.4-0.01-0.79-0.01-1.19-0.02c-12.56-0.21-25.13-0.42-37.69-0.63c-0.45,0-0.92-0.01-1.37-0.02
			c-1.03-0.02-2.05-0.03-3.08-0.06c0.53-0.94,1.44-1.68,2.45-2.1c1.42-0.6,3-0.64,4.54-0.6c8.86,0.29,17.58,3.54,26.39,2.53
			c4.54-0.52,8.96-2.16,13.53-2.24c3.26-0.04,6.49,0.72,9.69,1.29C197.57,381.07,203.46,381.56,209.34,381.47z"/>
		<path class="st5" d="M153.14,413.29c-5.68-1.04-11.59-3.29-13.03-8.65c-1.2-4.5,1.72-9.22,5.75-11.68
			c-1.46,1.78-2.54,3.79-2.81,6.06c-0.45,3.75,1.48,7.49,4.19,10.11C148.98,410.82,151.01,412.12,153.14,413.29z"/>
		<path class="st5" d="M186.73,416.54c-4.41-0.23-8.82-0.54-13.24-0.93c2.51-0.62,5.03-1.41,7.59-1.79c0.35-0.06,0.73-0.1,1.08,0
			c0.4,0.11,0.72,0.39,1.05,0.64C184.3,415.32,185.49,415.99,186.73,416.54z"/>
		<path class="st5" d="M225.17,416.81c-8.88,0.36-17.77,0.43-26.66,0.2c0.52-1.18,0.86-2.44,0.99-3.73
			c5.14,2.88,11.58,3.31,17.06,1.15c0.32-0.13,0.66-0.28,1.01-0.24c0.52,0.04,0.92,0.43,1.33,0.74
			C220.66,416.21,223.09,416.22,225.17,416.81z"/>
		<path class="st8" d="M588.24,759.07c-16.64,9.31-31.71,24-37.19,39.36c-8.34,23.36-8.85,48.65-11.8,73.28
			c-1.76,14.71-4.43,29.33-7.99,43.72H132.91c-1.84-7.86-3.25-15.52-4.04-22.38c-4.69-41.42,7.62-100.99,29.49-136.47
			c6.37-10.35,13.76-19.16,22-26.77c97.73-7.3,196.18,0.87,291.01,24.1c33.39-2.87,72.13-0.77,110.56,3.95
			C583.98,758.27,586.07,758.66,588.24,759.07z"/>
		<path class="st6" d="M544.96,754.21c-7.48,7.5-14.61,15.32-21.04,23.75c-1.6,2.1-3.14,4.22-4.64,6.4
			c-10.91,15.78-19.06,33.65-21.22,52.65c-1.82,15.95,0.62,32.06,0.3,48.11c-0.21,9.94-1.46,19.8-3.1,29.59
			c-0.04,0.24-0.08,0.49-0.12,0.73H175.39c-5.11-30.53-7.83-61.47-3.85-92.05c2.23-17.03,6.76-34.03,13.76-49.76
			c0.81-1.82,1.65-3.62,2.54-5.4c7.46-15.22,17.33-29.07,29.75-40.41c85.43-2.97,170.99,5.83,253.79,26.12
			c17.07-1.47,35.54-1.63,54.64-0.82C532.27,753.37,538.59,753.75,544.96,754.21z"/>
		<path class="st2" d="M265.45,395.86c1.1-6-2.92-11.84-4.38-17.76c-0.46-1.88-0.93-3.77-1.03-5.7c-0.12-2.31,0.27-4.61,0.28-6.92
			c0.04-7.71-4.18-15.55-1.66-22.84c1.54,1.26,2.77,2.85,3.79,4.55c5.76,9.69,4.16,21.91,6.65,32.9c0.75,3.31,1.89,6.57,2.03,9.96
			c0.14,3.39-0.33,9.13-3.73,9.02C265.64,399.03,265.36,396.36,265.45,395.86z"/>
		<path class="st2" d="M285.82,377.84c4.42,3.98,3.42,11.04,5.18,16.72c2.75,8.83,12.33,13.85,21.49,15.11
			c0.45,0.06,0.99,0.09,1.28-0.26c0.32-0.38,0.17-0.95-0.01-1.41c-0.88-2.35-3.9-4.89-2.64-7.06c1.19-2.05,4.39,1.51,5.89,3.34
			c2.43,2.97,6.49,5.82,6.22,9.64c-0.29,4.02-7.26,2.76-11.19,1.84c-4.21-1-8.43-1.99-12.64-2.99c-3.9-0.92-7.91-1.89-11.23-4.13
			c-5.44-3.66-8.25-10.23-9.34-16.69c-0.63-3.71-0.76-7.63,0.55-11.16c0.54-1.45,1.37-2.87,2.67-3.7
			C283.36,376.26,284.5,376.64,285.82,377.84z"/>
		<path class="st7" d="M544.96,754.21c-7.48,7.5-14.61,15.32-21.04,23.75c-1.6,2.1-3.14,4.22-4.64,6.4
			c-10.91,15.78-19.06,33.65-21.22,52.65c-1.82,15.95,0.62,32.06,0.3,48.11c-0.21,9.94-1.46,19.8-3.1,29.59
			c-0.04,0.24-0.08,0.49-0.12,0.73H291.15c51.84-27.97,104.32-54.86,159.22-76.39c4.14-1.61,8.39-3.28,11.58-6.3
			c3.21-3.02,5.12-7.82,3.42-11.85c-1.33-3.19-4.5-5.19-7.49-6.99c-18.97-11.44-38.14-23-59.31-29.81
			c-16.33-5.26-33.5-7.58-50.57-9.49c-53.15-5.92-106.72-8.07-160.16-6.4c7.46-15.22,17.33-29.07,29.75-40.41
			c85.43-2.97,170.99,5.83,253.79,26.12c17.07-1.47,35.54-1.63,54.64-0.82C532.27,753.37,538.59,753.75,544.96,754.21z"/>
	</g>
	<g>
		<g>
			
				<radialGradient id="SVGID_00000017499346405584433150000010415835101966698158_" cx="-2857.0544" cy="13140.6514" r="21.8572" gradientTransform="matrix(2.1156 -0.3929 0.2825 0.4502 3777.446 -6167.3599)" gradientUnits="userSpaceOnUse">
				<stop  offset="0" style="stop-color:#C27059"/>
				<stop  offset="0.138" style="stop-color:#C67761"/>
				<stop  offset="0.3477" style="stop-color:#CF8A76"/>
				<stop  offset="0.6028" style="stop-color:#DFA898"/>
				<stop  offset="0.8913" style="stop-color:#F5D2C7"/>
				<stop  offset="1" style="stop-color:#FEE4DB"/>
			</radialGradient>
			<path style="fill:url(#SVGID_00000017499346405584433150000010415835101966698158_);" d="M1487.63,866.36
				c-0.43,1.21-0.91,2.47-2.67,3.66c-1.93,1.3-5.12,2.32-8.16,3.27c-6.37,2-13.16,3.87-19.9,4.4c-8.91,0.7-17.77,1.23-26.51,1.59
				c-3.25,0.13-6.51,0.24-9.56,0.33c-2.71,0.08-5.58,0.48-8.36,0.71c-2.79,0.23-5.7,0.26-7.43-0.35c-1.72-0.61-1.61-2.04,0.81-2.9
				c0.68-0.24,1.48-0.42,2.2-0.64c2.09-0.64,3.44-1.61,4.2-2.52c0.76-0.92,1.03-1.82,1.64-2.74c0.99-1.49,3.2-3.16,6.77-4.06
				c0.27-0.07,0.54-0.13,0.81-0.19c3.91-0.82,8.14-0.61,12.08-1.47c1.75-0.38,3.32-0.96,5.05-1.36c0.63-0.15,1.26-0.27,1.9-0.37
				c4.01-0.65,8.15-0.52,12.25-1.12c2.79-0.41,5.5-1.14,8.29-1.47c7.47-0.89,12.62,1.28,19.77,1.15c1.23-0.02,2.53-0.11,3.66-0.03
				c1.93,0.15,3.06,0.81,3.42,1.59C1488.24,864.62,1487.94,865.5,1487.63,866.36z"/>
			
				<radialGradient id="SVGID_00000107584958918319344970000017561820222903844768_" cx="-2311.4868" cy="15876.4258" r="22.7597" gradientTransform="matrix(2.2686 -0.4213 0.2505 0.399 2713.8286 -6436.7153)" gradientUnits="userSpaceOnUse">
				<stop  offset="0" style="stop-color:#DD9583"/>
				<stop  offset="0.3428" style="stop-color:#DE9785"/>
				<stop  offset="0.5308" style="stop-color:#E19E8D"/>
				<stop  offset="0.6812" style="stop-color:#E6AB9B"/>
				<stop  offset="0.8118" style="stop-color:#EDBCAF"/>
				<stop  offset="0.9284" style="stop-color:#F7D2C7"/>
				<stop  offset="1" style="stop-color:#FEE4DB"/>
			</radialGradient>
			<path style="fill:url(#SVGID_00000107584958918319344970000017561820222903844768_);" d="M1491.07,866.05
				c-0.46,1.3-0.97,2.65-2.86,3.92c-2.07,1.39-5.49,2.48-8.75,3.51c-6.83,2.14-14.11,4.15-21.34,4.72
				c-9.56,0.76-19.05,1.32-28.43,1.71c-3.49,0.14-6.98,0.26-10.26,0.36c-2.91,0.08-5.98,0.52-8.97,0.76
				c-2.99,0.25-6.11,0.28-7.96-0.38c-1.85-0.66-1.73-2.19,0.87-3.11c0.73-0.26,1.59-0.45,2.36-0.68c2.24-0.68,3.69-1.72,4.51-2.71
				s1.11-1.95,1.76-2.93c1.06-1.6,3.43-3.39,7.26-4.35c0.28-0.07,0.57-0.14,0.86-0.2c4.19-0.88,8.73-0.65,12.95-1.58
				c1.88-0.41,3.56-1.03,5.41-1.46c0.67-0.16,1.35-0.29,2.03-0.4c4.3-0.69,8.74-0.56,13.14-1.2c2.99-0.43,5.9-1.22,8.89-1.57
				c8.01-0.96,13.53,1.37,21.2,1.23c1.32-0.03,2.71-0.12,3.92-0.03c2.07,0.16,3.28,0.87,3.67,1.7
				C1491.72,864.18,1491.4,865.12,1491.07,866.05z"/>
			
				<radialGradient id="SVGID_00000114782518689349720280000013563624770456481200_" cx="-2856.8496" cy="13816.9883" r="19.7955" gradientTransform="matrix(2.1156 -0.3929 0.2738 0.4364 3706.5044 -6280.4038)" gradientUnits="userSpaceOnUse">
				<stop  offset="0" style="stop-color:#C2553C"/>
				<stop  offset="0.2311" style="stop-color:#C8644D"/>
				<stop  offset="0.6853" style="stop-color:#D98B78"/>
				<stop  offset="1" style="stop-color:#E6A99A"/>
			</radialGradient>
			<path style="fill:url(#SVGID_00000114782518689349720280000013563624770456481200_);" d="M1485.68,866.62
				c-0.41,1.1-0.87,2.24-2.54,3.33c-1.83,1.19-4.83,2.13-7.7,3.01c-6.01,1.85-12.4,3.58-18.75,4.1c-8.39,0.69-16.72,1.22-24.94,1.59
				c-3.06,0.14-6.12,0.25-9,0.35c-2.55,0.08-5.25,0.47-7.87,0.69c-2.62,0.22-5.36,0.27-6.98-0.28c-1.62-0.54-1.5-1.84,0.78-2.63
				c0.65-0.22,1.39-0.39,2.07-0.59c1.97-0.59,3.25-1.48,3.97-2.31c0.72-0.84,0.98-1.66,1.56-2.49c0.94-1.36,3.03-2.88,6.4-3.72
				c0.25-0.06,0.5-0.12,0.76-0.17c3.68-0.76,7.66-0.59,11.37-1.4c1.65-0.36,3.13-0.89,4.76-1.26c0.59-0.14,1.19-0.25,1.79-0.35
				c3.78-0.61,7.67-0.52,11.53-1.08c2.62-0.38,5.18-1.06,7.81-1.38c7.03-0.85,11.86,1.09,18.59,0.93c1.16-0.03,2.38-0.12,3.44-0.05
				c1.81,0.12,2.87,0.72,3.21,1.42C1486.26,865.04,1485.97,865.84,1485.68,866.62z"/>
			
				<radialGradient id="SVGID_00000036950832484748567290000016775229818297048731_" cx="-2856.2295" cy="16451.666" r="19.5134" gradientTransform="matrix(2.1156 -0.3929 0.2445 0.3897 3466.9849 -6662.0723)" gradientUnits="userSpaceOnUse">
				<stop  offset="0" style="stop-color:#BC0002"/>
				<stop  offset="0.2522" style="stop-color:#BD0304"/>
				<stop  offset="0.409" style="stop-color:#BF0B0C"/>
				<stop  offset="0.5397" style="stop-color:#C41A19"/>
				<stop  offset="0.6562" style="stop-color:#CA2E2B"/>
				<stop  offset="0.763" style="stop-color:#D24942"/>
				<stop  offset="0.8629" style="stop-color:#DB6A5F"/>
				<stop  offset="0.9557" style="stop-color:#E79080"/>
				<stop  offset="1" style="stop-color:#EDA593"/>
			</radialGradient>
			<path style="fill:url(#SVGID_00000036950832484748567290000016775229818297048731_);" d="M1482.88,866.8
				c-0.39,1-0.82,2.05-2.37,3.04c-1.7,1.09-4.5,1.96-7.17,2.77c-5.59,1.7-11.54,3.3-17.45,3.8c-7.8,0.65-15.55,1.16-23.2,1.52
				c-2.85,0.13-5.69,0.25-8.37,0.35c-2.37,0.08-4.88,0.44-7.32,0.65c-2.44,0.21-4.99,0.26-6.49-0.23c-1.5-0.49-1.39-1.68,0.73-2.4
				c0.6-0.21,1.3-0.36,1.93-0.54c1.83-0.54,3.03-1.36,3.7-2.12c0.67-0.76,0.92-1.51,1.46-2.28c0.88-1.24,2.83-2.64,5.96-3.41
				c0.23-0.06,0.47-0.11,0.71-0.16c3.43-0.71,7.12-0.56,10.58-1.31c1.53-0.33,2.91-0.82,4.43-1.16c0.55-0.13,1.11-0.23,1.66-0.32
				c3.51-0.57,7.13-0.5,10.73-1.02c2.44-0.36,4.82-0.98,7.26-1.28c6.54-0.79,11.03,0.96,17.28,0.79c1.08-0.03,2.22-0.11,3.2-0.05
				c1.69,0.11,2.67,0.65,2.98,1.29C1483.43,865.35,1483.16,866.08,1482.88,866.8z"/>
			
				<radialGradient id="SVGID_00000160886557900638856030000003266309589336400788_" cx="-2229.3801" cy="15672.1553" r="8.2989" gradientTransform="matrix(2.2605 -0.4299 0.2504 0.4172 2575.7986 -6627.6826)" gradientUnits="userSpaceOnUse">
				<stop  offset="0" style="stop-color:#B50707"/>
				<stop  offset="0.6502" style="stop-color:#B70808"/>
				<stop  offset="1" style="stop-color:#BF0B0B"/>
			</radialGradient>
			<path style="fill:url(#SVGID_00000160886557900638856030000003266309589336400788_);" d="M1455.84,873.57
				c-2.99,0.06-5.98,0.11-8.97,0.17c-0.77,0.01-1.57,0.03-2.18-0.08c-0.82-0.15-1.17-0.49-1.6-0.79c-0.7-0.48-1.69-0.88-1.9-1.47
				c-0.48-1.36,3.58-3.09,7.59-3.84s8.04-0.86,12.07-1.24c3-0.28,6.05-0.73,9.03-0.93c2.97-0.2,5.97-0.14,7.68,0.52
				c0.78,0.3,1.26,0.72,1.13,1.22c-0.22,0.85-2.09,1.74-4.01,2.46c-1.77,0.66-3.68,1.27-5.68,1.81c-1.33,0.36-2.77,0.69-4.16,0.77
				c-0.78,0.05-1.51,0.01-2.3,0.09C1460.16,872.48,1457.99,873.53,1455.84,873.57z"/>
			<path class="st69" d="M1417.01,875.14c-0.67,0.35-1.37,0.73-1.54,1.1c-0.17,0.37,0.45,0.71,1.45,0.59
				c0.94-0.12,1.74-0.56,2.67-0.64c0.68-0.06,1.14,0.11,1.36,0.31c0.22,0.2,0.3,0.44,0.62,0.61c0.32,0.17,1.02,0.25,1.66,0.09
				c0.61-0.16,0.87-0.44,1.05-0.68c0.3-0.4,0.56-0.86-0.11-1.05c-0.34-0.1-0.86-0.1-1.23-0.19c-1.26-0.27-0.63-1.29-2.23-1.35
				c-0.78-0.03-1.76,0.22-2.37,0.53C1417.73,874.75,1417.41,875.09,1417.01,875.14z"/>
			<path class="st69" d="M1458.07,874.57c0.21-0.57,1.6-1.22,3.14-1.46c0.71-0.11,1.43-0.15,2.1-0.15c0.26,0,0.53,0,0.72,0.05
				c0.36,0.09,0.34,0.31,0.08,0.51c-0.27,0.2-0.73,0.36-1.2,0.51c-1.27,0.38-2.74,0.64-4.12,0.73
				C1458.48,874.76,1458,874.74,1458.07,874.57z"/>
			<path class="st69" d="M1457.85,865.56c-0.53,0.05-0.95-0.03-1.41-0.06c-2.07-0.12-4.49,0.81-6.83,1.23
				c-2.28,0.42-4.52,0.35-6.49,0.19c-1.02-0.08-2.12-0.18-3.29,0.04c-0.77,0.14-1.43,0.39-2.07,0.63c-1.05,0.4-2.1,0.79-3.15,1.19
				c-0.66,0.25-1.46,0.53-2.21,0.53c-0.63,0-0.96-0.19-1.31-0.35c-1.04-0.47-2.79-0.7-4.75-0.61c-0.61-0.15-1.05-0.35-1.32-0.58
				c3.43-0.71,7.12-0.56,10.58-1.31c1.53-0.33,2.91-0.82,4.43-1.16c0.55-0.13,1.11-0.23,1.66-0.32c0.19,0.04,0.4,0.07,0.61,0.09
				c1.46,0.17,3.25,0.08,5-0.02c0.91-0.05,1.84-0.11,2.78-0.22c1.12-0.14,2.24-0.37,3.36-0.52c1.47-0.19,2.93-0.24,4.18-0.14
				c0.8,0.06,1.55,0.21,1.72,0.51C1459.49,864.99,1458.77,865.47,1457.85,865.56z"/>
			<path class="st69" d="M1431.81,874.59c0.12-0.33,0.02-0.63,0.14-0.95c0.13-0.33,0.57-0.71,1.39-0.93
				c0.81-0.22,1.72-0.22,2.46-0.16c1.53,0.12,2.77,0.43,3.94,0.75c1.07,0.3,2.16,0.71,1.68,1.33c-0.3,0.39-1.17,0.76-2.07,1.05
				c-0.89,0.29-1.88,0.56-2.9,0.69c-1.37,0.17-2.65,0.08-3.6-0.14c-0.37-0.09-0.71-0.21-0.63-0.41c0.1-0.24,0.8-0.53,0.57-0.71
				c-0.23-0.18-1.19-0.06-1.46-0.23C1431.45,874.79,1431.57,874.71,1431.81,874.59z"/>
			<path class="st69" d="M1451.32,870.77c1.48-0.96,3.47-1.87,5.76-2.62c0.79-0.26,1.64-0.51,2.54-0.64
				c0.64-0.09,1.27-0.12,1.88-0.15c1.25-0.05,2.51-0.11,3.76-0.16c1.56-0.07,3.16-0.14,4.49,0.01c0.77,0.08,1.49,0.29,1.33,0.63
				c-0.13,0.27-0.74,0.54-1.31,0.77c-1.4,0.57-2.84,1.17-4.56,1.55c-1.27,0.29-2.62,0.44-3.91,0.7c-1.97,0.39-3.9,1.02-5.86,1.14
				C1453.18,872.14,1451.76,871.5,1451.32,870.77z"/>
		</g>
		<g>
			<path class="st69" d="M1447.53,869.76c-19.78-63.68-22.78-131.59-8.68-196.5c3.99-18.39,12.83-31.91,21.49-50.31
				c-26.74,16.89-30.03,65.54-35.25,100.85c-1.41,10.98-2.82,21.96-4.23,32.94c-3.16-1.82-5.6,3.48-4.21,6.63
				c1.39,3.15,3.64,7.26,0.74,9.41c-2.13-2.24-5.35-3.58-8.61-3.58C1413.7,804.6,1426.45,839.08,1447.53,869.76z"/>
			<path class="st69" d="M1441.98,774.42c3.76-2.37,7.29-5.06,10.51-8.02c0.85-0.78,1.71-1.63,2.03-2.68
				c0.32-1.06-0.1-2.38-1.22-2.8c-0.71-0.27-1.52-0.12-2.25,0.1c-2.29,0.69-4.32,2.09-5.65,3.92
				C1443.31,767.81,1443,771.49,1441.98,774.42z"/>
			<path class="st69" d="M1475.68,614.19c4.09-1.72,7.65-4.47,10.18-7.85c0.79-1.06,1.51-2.37,1.02-3.57
				c-0.74-1.82-3.66-1.95-5.54-1.02c-3.49,1.72-5.02,5.42-6.82,8.62C1472.21,614.52,1468.4,617.26,1475.68,614.19z"/>
			<path class="st69" d="M1450.57,671.78c8-4.71,16.2-10.22,24.44-16.42c3.85-2.89,7.84-6.07,11.36-10.12s6.47-9.22,6.26-12.19
				c-0.31-4.37-7.17-1.61-12.77,3.59c-5.6,5.2-10.28,11.9-15.17,18.13C1456.97,664.63,1448.26,673.13,1450.57,671.78z"/>
			<path class="st69" d="M1408.34,747.55c-0.87-5.14-0.28-10.43-1.28-15.55c-1-5.12-4.17-10.42-9.64-11.97
				c-0.7-0.2-1.45-0.33-2.15-0.16c-1.35,0.33-2.1,1.66-2.39,2.9c-1.27,5.39,2.83,10.52,6.92,14.61S1408.48,745.94,1408.34,747.55z"
				/>
		</g>
	</g>
</g>
</svg>
