<?xml version="1.0" encoding="utf-8"?>
<!-- Generator: Adobe Illustrator 27.0.0, SVG Export Plug-In . SVG Version: 6.00 Build 0)  -->
<svg version="1.1" id="Слой_1" xmlns="http://www.w3.org/2000/svg" xmlns:xlink="http://www.w3.org/1999/xlink" x="0px" y="0px"
	 viewBox="0 0 2000 1040" style="enable-background:new 0 0 2000 1040;" xml:space="preserve">
<style type="text/css">
	.st0{fill:#9BAFBD;}
	.st1{fill:#728694;}
	.st2{fill:#FDD5C8;}
	.st3{fill:#FEE4DB;}
	.st4{fill:#E0AFA1;}
	.st5{fill:#99685A;}
	.st6{fill:#AECCD1;}
	.st7{fill:#7A9CA1;}
	.st8{fill:#495B5E;}
	.st9{fill:url(#SVGID_1_);}
	.st10{fill:#E09F89;}
	.st11{fill:url(#SVGID_00000073704582536800664590000016952203040475614894_);}
	.st12{fill:#F6DCDD;}
	.st13{fill:#E39D9D;}
	.st14{fill:#FDACAE;}
	.st15{fill:#E2A094;}
	.st16{fill:#FEBEBE;}
	.st17{fill:#F16E2B;}
	.st18{fill:#DF523C;}
	.st19{fill:#E78B7C;}
	.st20{fill:url(#SVGID_00000178919206447383546020000009208353221125167276_);}
	.st21{fill:#E7DBE0;}
	.st22{fill:url(#SVGID_00000097462110104618985370000007970503334331287998_);}
	.st23{fill:url(#SVGID_00000051369009120302945960000003746351127699132073_);}
	.st24{fill:#E75742;}
	.st25{fill:#EEA755;}
	.st26{fill:#EEB3B2;}
	.st27{fill:#FA9DA5;}
	.st28{fill:#FABEB5;}
	.st29{fill:#F25026;}
	.st30{fill:url(#SVGID_00000083088293081593446840000016744679459123820730_);}
	.st31{fill:url(#SVGID_00000165951601565749080890000009782040995401993089_);}
	.st32{fill:url(#SVGID_00000153686995446675687450000012170438360898323849_);}
	.st33{fill:url(#SVGID_00000128444184571895067780000015803305169661598900_);}
	.st34{fill:url(#SVGID_00000158010551267641687340000006957718132389952925_);}
	.st35{fill:url(#SVGID_00000183961296779954199330000013941254582689183880_);}
	.st36{fill:url(#SVGID_00000162341900316563314840000003125764161394275968_);}
	.st37{fill:url(#SVGID_00000131346227110309569310000005783628081598781328_);}
	.st38{fill:url(#SVGID_00000100356908666366295390000004926601761907213498_);}
	.st39{fill:url(#SVGID_00000168805746129349890100000009904057979314322847_);}
	.st40{fill:url(#SVGID_00000047035135837899040540000003241824021865030536_);}
	.st41{fill:url(#SVGID_00000014608833338332681830000004171293988243570071_);}
	.st42{fill:url(#SVGID_00000008834385304608024980000006539457617009714817_);}
	.st43{fill:url(#SVGID_00000080175758052138543160000004392370183194010806_);}
	.st44{fill:url(#SVGID_00000055701005822974036300000009431746025361057704_);}
	.st45{fill:url(#SVGID_00000132045764399385030190000002283123770413719726_);}
	.st46{fill:url(#SVGID_00000091703341426939615530000011308905777471167106_);}
	.st47{fill:url(#SVGID_00000059993293839544266610000003418951232552574641_);}
	.st48{fill:url(#SVGID_00000133491072129215210280000001143458101972872365_);}
	.st49{fill:url(#SVGID_00000078031336632329815360000012181480587424637111_);}
	.st50{fill:url(#SVGID_00000058581714482994597140000016246634457127680959_);}
	.st51{fill:url(#SVGID_00000070830195489576928860000008974650594074879379_);}
	.st52{fill:url(#SVGID_00000055706736933128955960000013851985484571173019_);}
	.st53{fill:url(#SVGID_00000049215424516365576080000002741243257164500644_);}
	.st54{fill:url(#SVGID_00000177455555695646284470000001483045748984369806_);}
	.st55{fill:url(#SVGID_00000057857654232599360600000014329649861395718530_);}
	.st56{fill:url(#SVGID_00000088823701547795465070000014726258575800767400_);}
	.st57{fill:url(#SVGID_00000106120555716742368210000010411291440815932587_);}
	.st58{fill:url(#SVGID_00000036929705125587977850000001321147635248405931_);}
	.st59{fill:url(#SVGID_00000125596355456129094230000000002799753797116586_);}
	.st60{opacity:0.4;fill:url(#SVGID_00000126306419153153119030000012892054331147844262_);}
	.st61{fill:url(#SVGID_00000057149619708372499530000010959085903394206353_);}
	.st62{fill:url(#SVGID_00000119114575510878024780000011597687112660712369_);}
	.st63{fill:url(#SVGID_00000010304308565453828470000017988994162016584601_);}
	.st64{fill:url(#SVGID_00000018218572249934088890000004976699281039990184_);}
	.st65{fill:url(#SVGID_00000026841520383018345530000000803073139862860983_);}
	.st66{fill:url(#SVGID_00000061432938530864889770000017467354353560797585_);}
	.st67{fill:url(#SVGID_00000098213239133906406750000004035256277834642327_);}
	.st68{fill:url(#SVGID_00000080890694469955368490000008223337530682092472_);}
	.st69{fill:#AD0000;}
	.st70{fill:url(#SVGID_00000115491282319090032440000004770858444525865400_);}
	.st71{fill:url(#SVGID_00000068675829337197058970000014807408630991887266_);}
	.st72{fill:url(#SVGID_00000029736509552989863620000017974211986062833052_);}
	.st73{fill:url(#SVGID_00000007399153264918641050000000056798095370429068_);}
	.st74{fill:url(#SVGID_00000047033503333174951640000010732160495321337249_);}
	.st75{fill:#BF9184;}
	.st76{fill:none;stroke:#FDD5C8;stroke-miterlimit:10;}
	.st77{fill:url(#SVGID_00000055702181159654457450000005488183110465629335_);}
	.st78{fill:url(#SVGID_00000078038018109747646340000008975496717176110992_);}
	.st79{fill:url(#SVGID_00000004511331251224513510000015734711220876373634_);}
	.st80{fill:url(#SVGID_00000144333645799468614050000000583714626842469262_);}
	.st81{fill:url(#SVGID_00000092419851309222365240000010743453357042449333_);}
	.st82{fill:url(#SVGID_00000125577729080189481190000003897852297462050491_);}
	.st83{fill:url(#SVGID_00000028302917749264998930000009818734275454767499_);}
	.st84{fill:url(#SVGID_00000101105495932914901170000014981691408782142652_);}
	.st85{fill:url(#SVGID_00000102520936262053605300000000050140196956911278_);}
	.st86{fill:url(#SVGID_00000034772399692359270570000015046984749932297888_);}
	.st87{fill:none;stroke:#E0AFA1;stroke-miterlimit:10;}
	.st88{fill:#59767A;}
	.st89{fill:none;}
	.st90{fill:#314042;}
	.st91{fill:url(#SVGID_00000018922328209861196820000015442884306333796538_);}
	.st92{fill:url(#SVGID_00000183251430910632946550000011363603552924985007_);}
	.st93{fill:url(#SVGID_00000001621689574502188920000017406639758821608094_);}
	.st94{fill:url(#SVGID_00000131367302886516252200000011602299108248082087_);}
	.st95{fill:url(#SVGID_00000050656456280053227240000010767393408146544260_);}
	.st96{fill:none;stroke:#99685A;stroke-miterlimit:10;}
	.st97{fill:#F2CEC4;}
	.st98{fill:#E1AFA1;}
	.st99{fill:url(#SVGID_00000049222420156724830080000007079899085779694741_);}
	.st100{fill:url(#SVGID_00000134216427086354551370000017407758135105953432_);}
	.st101{fill:url(#SVGID_00000114771316135783924830000016894300556701876891_);}
	.st102{fill:url(#SVGID_00000048494329496858606490000016423521611069286311_);}
	.st103{fill:url(#SVGID_00000013905253488958426490000010048473108027101837_);}
	.st104{fill:url(#SVGID_00000159429185380705070490000010219611523304946575_);}
	.st105{fill:url(#SVGID_00000075843852143408161560000016338396444040002740_);}
	.st106{fill:url(#SVGID_00000017497792134998126420000013181850243894234499_);}
	.st107{fill:url(#SVGID_00000124878127775310078630000005891045613203028632_);}
	.st108{fill:url(#SVGID_00000102527881221257038880000010540378416497779876_);}
	.st109{fill:#E39F8D;}
	.st110{fill:#C2553C;}
	.st111{fill:url(#SVGID_00000176761895566436693760000000941871738131837884_);}
	.st112{fill:url(#SVGID_00000150062945176058926840000017342851283902887613_);}
	.st113{fill:url(#SVGID_00000137854963471413327720000014350132003306208644_);}
	.st114{fill:#AD4024;}
	.st115{fill:url(#SVGID_00000147923319789397342370000015398969135704193705_);}
	.st116{fill:url(#SVGID_00000050655953257939378380000011759973708632402048_);}
	.st117{fill:url(#SVGID_00000079483672216729192290000001768002608788309126_);}
	.st118{opacity:0.5608;fill:#FFFFFF;}
	.st119{fill:#FFFFFF;}
	.st120{fill:#FFF1ED;}
	.st121{fill:#E6D7D3;}
	.st122{opacity:0.4392;fill:#E0AFA1;}
	.st123{fill:#FFD3C7;}
	.st124{opacity:0.3412;fill:#AAAD66;}
	.st125{opacity:0.2314;fill:#FFFFFF;}
	.st126{fill:#23282B;}
	.st127{fill:none;stroke:#99685A;stroke-linecap:round;stroke-linejoin:round;stroke-miterlimit:10;}
	.st128{fill:#495760;}
	.st129{fill:#353A3E;}
	.st130{fill:#3A474F;}
	.st131{fill:#709EB8;}
	.st132{fill:#8BB0C5;}
	.st133{fill:#31556B;}
	.st134{fill:#4E768F;}
	.st135{fill:#263F4F;}
	.st136{fill:#576975;}
	.st137{fill:none;stroke:#3A474F;stroke-miterlimit:10;}
	.st138{fill:#2F3943;}
	.st139{fill:#C78D7D;}
	.st140{fill:#421D13;}
	.st141{fill:#5E3E35;}
	.st142{fill:#806158;}
	.st143{fill:#EFC3B6;}
	.st144{fill:#C79789;}
	.st145{fill:none;stroke:#EFC3B6;stroke-miterlimit:10;}
	.st146{fill:#69483F;}
	.st147{fill:none;stroke:#806158;stroke-width:3;stroke-linecap:round;stroke-linejoin:round;stroke-miterlimit:10;}
	.st148{fill:#E8E8E8;}
	.st149{fill:#BACAD9;}
	.st150{fill:#694034;}
	.st151{fill:#658F85;}
	.st152{fill:#407065;}
	.st153{fill:#323C42;}
	.st154{fill:#B4CADE;}
	.st155{opacity:0.3294;fill:#C75B63;}
	.st156{fill:none;stroke:#5E3E35;stroke-width:4;stroke-linecap:round;stroke-linejoin:round;stroke-miterlimit:10;}
	.st157{fill:#4C6270;}
	.st158{fill:#7A4A3D;}
	.st159{fill:#252E37;}
	.st160{fill:#3E4852;}
	.st161{fill:none;stroke:#E0AFA1;stroke-linecap:round;stroke-linejoin:round;stroke-miterlimit:10;}
	.st162{fill:#BA8677;}
	.st163{fill:#313B45;}
	.st164{fill:none;stroke:#4E768F;stroke-miterlimit:10;}
	.st165{fill:#193646;}
	.st166{opacity:0.1882;fill:#FFFFFF;}
	.st167{fill:none;stroke:#421D13;stroke-miterlimit:10;}
	.st168{opacity:0.2196;fill:#1390D4;}
	.st169{opacity:0.2392;fill:#027DCF;}
	.st170{opacity:0.3216;fill:#FFFFFF;}
	.st171{fill:#CFCFCF;}
	.st172{fill:url(#SVGID_00000008151264002011041960000015114514288780477571_);}
	.st173{fill:url(#SVGID_00000143580584126732366790000002180594918032578469_);}
	.st174{opacity:0.749;fill:url(#SVGID_00000046303360431034548160000000632868667484977537_);}
	.st175{fill:url(#SVGID_00000103246463747145109400000002453884807789086357_);}
	.st176{fill:url(#SVGID_00000003827399794703621180000001105144994573922730_);}
	.st177{fill:#821111;}
	.st178{fill:url(#SVGID_00000124160209973144363960000015042543917204747139_);}
	.st179{fill:#BC0002;}
	.st180{fill:url(#SVGID_00000101783983781099758770000012249634126875172791_);}
	.st181{fill:url(#SVGID_00000172435642261237391690000014449243575240869275_);}
	.st182{fill:url(#SVGID_00000080887525031607727060000017464948907404770232_);}
</style>
<g>
	<g>
		<g>
			<rect class="st0" width="2000" height="1040"/>
			<g>
				<path class="st1" d="M189.65,655.79c36.16-8.15,73.59,2.15,110.6,4.25c34.26,1.95,68.47-3.17,102.4-8.28
					c6.1-0.92,13.39-2.81,15.15-8.73c0.81-2.73,0.16-5.69,0.74-8.48c1.82-8.76,13.34-10.61,22.28-10.52
					c20.67,0.2,41.34,0.41,62.01,0.61c-41.2-43.95-103.45-74.7-161.53-58.71c-13.5,3.72-26.25,9.8-39.7,13.73
					c-15.79,4.61-32.29,6.19-48.66,7.74c-17.26,1.64-34.52,3.27-51.78,4.91c-14.92,1.41-30.57,3.09-42.9,11.61
					c-12.33,8.52-19.61,26.33-11.57,38.98C155.8,657.26,176.98,658.64,189.65,655.79z"/>
				<path class="st1" d="M148.98,823.77c4.27,11.37,19.39,13.82,31.38,11.93c12-1.88,24.61-6.17,35.85-1.57
					c2.65,1.09,5.28,2.67,8.14,2.49c3.73-0.24,6.59-3.39,10.12-4.63c8.53-3,17.37,5.75,26.29,4.28
					c10.71-1.77,15.59-17.02,26.42-17.75c3.66-0.25,7.16,1.32,10.75,2.11c8.61,1.9,17.51-0.68,25.9-3.37
					c34.92-11.18,69.14-24.62,104.52-34.25c29.62-8.06,59.9-13.41,89.94-19.73c52.59-11.06,104.54-25.13,155.53-42.11
					c9.84-3.28,21.16-8.33,23.04-18.53c1.67-9.09-5.29-18.15-3.57-27.24c2.16-11.33,15.7-15.78,27-18.08
					c79.36-16.16,158.72-32.32,238.08-48.48c-26.8-49.63-83.99-81.12-140.26-77.24c-56.1,3.87-108.61,39.44-163.21,34.2
					c-17.94,0.75-36.41,2.74-52.13,11.43c-15.71,8.69-28.1,25.54-26.6,43.43c1.12,13.34,9.45,24.87,18.01,35.16
					c5.96,7.15,12.5,14.8,13.09,24.09c0.58,9.16-5.04,17.83-12.38,23.34s-16.25,8.44-24.98,11.27c-9.93,3.23-19.87,6.45-29.8,9.68
					c-30.52,9.91-61.05,19.82-92.01,28.21c-19.52,5.29-39.24,9.97-59.24,12.93c-10.86,1.6-21.86,2.71-32.38,5.86
					c-11.03,3.31-21.4,8.83-32.73,10.91c-24.68,4.54-48.99-7.71-73.75-11.82c-26.1-4.33-53.66,0.77-76.49,14.13
					C158.76,793.08,143.67,809.64,148.98,823.77z"/>
				<path class="st1" d="M1026.61,723.07c12.78,42.66,54.87,71.35,98.38,80.86c43.51,9.5,88.74,3.21,132.78-3.44
					c71.8-10.85,143.46-22.59,214.97-35.22c60.88-10.75,122.92-22.19,184.16-13.7c49.52,6.87,99.15,26.66,148.04,16.21
					c-5.32-12.46-19.77-17.82-32.78-21.61c-150.46-43.85-311.12-52.26-465.34-24.37c-73.25,13.25-149.78,34.39-220.42,10.91
					C1064.37,725.38,1038.05,714.49,1026.61,723.07z"/>
				<path class="st1" d="M1136.19,624.3c40.29,6.77,81.44,5.45,122.27,4.1c102.45-3.39,205.7-6.87,305.5-30.26
					c28.09-6.58,55.85-14.73,82.73-25.21c20.8-8.1,41.23-17.64,63.09-22.15c18.99-3.91,38.53-3.92,57.91-3.9
					c50.14,0.03,102.49,0.57,147.03,23.58c4.6,2.38,10.89,4.73,14.33,0.86c4.63-5.22-2.69-12.48-8.97-15.52
					c-49.07-23.77-98.89-47.78-152.5-57.7c-41.54-7.69-84.17-6.67-126.36-4.32c-65.52,3.65-130.83,10.44-196.1,17.22
					c-36.94,3.84-73.88,7.68-110.81,11.52c-44.98,4.68-89.96,9.35-134.89,14.53c-17.97,2.07-36.35,4.34-52.52,12.45
					c-16.17,8.11-29.96,23.34-31.27,41.38C1113.86,615.63,1140.4,638.01,1136.19,624.3z"/>
				<g>
					<path class="st5" d="M621.72,574.39c-6.07-5.65-10.7-12.79-15.22-19.8c-4.32-6.69-8.75-13.7-9.62-21.61
						c-0.46-4.22,0.12-8.48,0.7-12.68c0.88-6.37,1.76-12.75,2.65-19.12c0.08-0.57,3.21-1.55,5.28-0.26c0.52,0.33,0.95,0.73,1.32,1.2
						c0.53,1.78,1.04,3.56,1.54,5.35c-0.12,7.94-6.78,14.69-6.88,22.65c-0.04,3.22,1.01,6.34,2.15,9.35
						c4.48,11.78,10.53,22.96,17.97,33.13C621.65,573.21,621.68,573.8,621.72,574.39z"/>
					<path class="st5" d="M619.55,558.61c-9.5-11.65-12.94-28.08-8.9-42.57C614.21,530.01,617.08,544.36,619.55,558.61z"/>
					<path class="st2" d="M308.44,720.76c-0.33-0.38-91.06,14.52-91.06,14.52c-7.05-1.99-13.12-3.96-19.01-6.09
						c-1.6-0.57-3.19-1.16-4.78-1.76c-7.13-2.7-14.32-5.69-22.99-9.29c-8.01-3.33-18.89-7.12-28.37-12.03
						c-4.93-2.55-12.35-5.45-17.52-7.45c-5.84-2.27-11.52-4.92-16.54-8.67c-13.33-9.94-24.76-20.56-37.35-31.41
						c-4.39-3.78-10-9.7-14.02-15.08c-2.38-3.18-4.26-6.87-5.17-10.72c-0.62-2.58-0.8-5.25-0.41-7.88c0.01-0.08,0.02-0.15,0.03-0.23
						c0.75-4.71,3.24-11.45,5.75-15.51c7.14-11.57,12.29-19.32,20.42-30.21c1.62-2.16,5.8-5.36,8.08-6.81
						c1.92-1.22,6.15-2.35,8.35-2.95c8.92-2.47,15.84-4.44,24.77-6.91c4.08-1.13,8.02-2.25,11.94-3.43
						c5.69-1.7,11.38-3.41,17.14-4.82c28.97-7.08,59.2-6.47,88.98-5.23c2.82,0.12,5.69,0.25,8.3,1.3c3.67,1.47,6.42,4.56,8.83,7.7
						c8.47,11.03,14.5,23.91,17.55,37.47c0.49,2.17,0.89,4.51,0.03,6.56c-1.15,2.75-4.14,4.13-6.97,5.18
						c-1.16-4.44-2.66-8.84-4.16-13.12c-0.54-1.53-1.12-3.14-2.33-4.23c-2.44-2.18-6.26-1.4-9.32-0.24
						c-7.74,2.94-14.86,7.51-20.77,13.32c-2.28,2.24-4.53,5.26-4.53,9.22c1.3,2.17,2.71,4.27,4.23,6.29
						c-11.92,4.2-24.09,9.18-37.95,13.34c-0.02,0.01-0.04,0.01-0.06,0.02c0.12,0.14,0.25,0.27,0.37,0.41c0,0,0,0,0.01,0.01
						c0.46,0.51,0.92,1.01,1.38,1.51c0.31,0.34,0.63,0.67,0.94,1c7.23,7.62,15.1,14.26,23.22,19.77
						c6.24,4.23,11.72,6.71,17.96,10.94c2,1.36,4,2.69,6.02,4.02c8.33,5.49,16.77,10.8,24.93,16.55
						c9.88,6.97,18.66,12.23,26.43,17.98C297.37,708.66,303.23,713.87,308.44,720.76z"/>
					<path class="st5" d="M261.01,608.22c-5.93,1.99-11.36,3.32-17.65,5.01c-17.31,4.65-33.77,12.36-53.77,18.36
						c-12.01-16.37-27.66-30.05-45.5-39.75c0.24-3.99,0.23-8.64,0.22-13.28c0-0.51,0.02-1.05,0.32-1.45
						c0.36-0.45,0.98-0.58,1.55-0.67c31.82-5.14,63.41-11.74,94.63-19.77C251.48,571.94,258.45,589.77,261.01,608.22z"/>
					<path class="st158" d="M179.99,619.95c10.25-1.99,16.78-2.77,27.1-4.34c11.3-1.72,22.89-3.17,34.15-1.78
						c-16.54,4.68-32.47,12.01-51.65,17.76c-0.02,0.01-0.04,0.01-0.06,0.02C189.72,631.83,183.77,624.51,179.99,619.95z"/>
					<path class="st4" d="M213.27,719.61c0.26,2.88,2.44,7.17-14.9,9.58c-1.6-0.57-3.19-1.16-4.78-1.76
						c-7.13-2.7-14.32-5.69-22.99-9.29c-8.01-3.33-18.89-7.12-28.37-12.03c-4.93-2.55-12.35-5.45-17.52-7.45
						c-5.84-2.27-11.52-4.92-16.54-8.67c-13.33-9.94-24.76-20.56-37.35-31.41c-4.39-3.78-10-9.7-14.02-15.08
						c-2.38-3.18-4.26-6.87-5.17-10.72c-0.62-2.58-0.8-5.25-0.41-7.88c5.89,3.2,11.79,6.39,17.68,9.58
						c1.12,0.61,2.25,1.23,3.14,2.14c0.91,0.94,1.51,2.14,2.13,3.29c2.07,3.81,4.65,7.39,7.91,10.26c7,6.19,16.46,8.64,25.53,10.9
						c4.65,1.16,9.31,2.32,14.01,3.25c3.27,0.66,6.58,1.21,9.74,2.29c5.57,1.9,10.46,5.36,15.25,8.77
						c8.2,5.83,16.4,11.67,24.59,17.5c8.14,5.79,16.31,11.61,25.28,16c5.55,2.72,11.52,4.98,15.93,9.31
						C212.82,718.59,213.23,719.05,213.27,719.61z"/>
					<path class="st4" d="M290.79,703.8c-2.41,0.23-4.82,0.47-7.23,0.7c-0.76,0.07-1.55,0.14-2.26-0.15
						c-0.7-0.28-1.22-0.86-1.71-1.42c-11.64-13.08-25.8-23.59-40.16-33.66c8.33,5.49,16.77,10.8,24.93,16.55
						C274.24,692.79,283.02,698.05,290.79,703.8z"/>
					<path class="st159" d="M1683.38,451.1c2.03-1.93,2.88-4.74,4.21-7.2c1.34-2.46,3.7-4.82,6.48-4.52c3.34,0.37,5,4.15,5.98,7.36
						c9.48,30.96,17.42,62.38,23.77,94.13c0.94,4.7,0.91,11.11-3.67,12.53c-3.58,1.11-6.99-1.97-9.39-4.84
						c-14.55-17.4-25.45-37.86-31.76-59.65C1675.64,477.32,1671.59,462.32,1683.38,451.1z"/>
					<path class="st5" d="M197.5,725.68c-1.29,0.59-2.59,1.18-3.91,1.75c-7.13-2.7-14.32-5.69-22.99-9.29
						c-8.01-3.33-18.89-7.12-28.37-12.03c-4.93-2.55-12.35-5.45-17.52-7.45c-5.84-2.27-11.52-4.92-16.54-8.67
						c-13.33-9.94-24.76-20.56-37.35-31.41c-4.39-3.78-10-9.7-14.02-15.08c-2.38-3.18-4.26-6.87-5.17-10.72
						c6.57,9.51,15.55,17.24,24.39,24.8c11.17,9.56,22.36,19.13,34.01,28.1c3.44,2.65,6.93,5.25,10.76,7.29
						c6.33,3.35,13.36,5.06,20.2,7.18C160.76,706.27,179.2,716,197.5,725.68z"/>
					<path class="st4" d="M202.3,719.82c15.66-8.31,32.84-13.74,50.44-15.95c5.04-0.63,10.13-1,15.11-1.99
						c3.29-0.65,6.59-1.57,9.94-1.4c3.35,0.17,6.88,1.69,8.37,4.7c-21.88,8.82-44.84,14.94-68.2,18.18
						C212.07,724.17,205.3,724.53,202.3,719.82z"/>
					<path class="st158" d="M113.64,563.67c2.23,0.87,4.78,3.03,7.53,4.7c5.3,3.22,11.46,4.7,17.56,5.75
						c12.66,2.19,25.55,2.74,38.39,2.34c7.93-0.25,15.92-0.87,23.58-2.94c3.88-1.04,7.64-2.45,11.36-3.96
						c5.25-2.14,10.41-4.49,15.46-7.06c2.35-1.2,4.75-2.46,7.37-2.77c4.56-0.52,8.87,1.9,12.82,4.24
						c-6.33,1.96-12.71,3.95-18.44,7.25c-4.12,2.38-7.85,5.4-11.98,7.75c-7.31,4.17-15.85,6.14-24.25,5.61
						c-4.43-0.29-8.81-1.25-13.24-1.53c-5.02-0.32-10.05,0.23-15.07,0.37c-19.45,0.54-39.58-5.65-53.55-19.07"/>
					<g>
						<path class="st160" d="M1702.63,525.45c3.68,10.05,8.06,20,15.27,27.84c-117.74,37.39-243.19,32.46-363.41,54.42
							c-33.86,6.18-67.41,14.52-101.7,17.42c-34.29,2.91-69.96,0.05-100.84-15.13c-6.62-3.26-12.99-12.52-20.21-20.46
							c-7.16-7.87-14.39-15.84-19.59-25.14c-6.66-11.9-9.69-25.43-14.38-38.24c-8.93-24.41-23.94-46.32-32-71.03
							c-7.93-24.31-8.89-50.58-17.86-74.53c12.15,2.87,24.26,5.87,36.34,9.01c70.53,18.3,139.89,41.11,207.52,68.25
							c14.31,5.75,29.08,11.76,44.19,13.81c5.72,0.79,11.5,0.99,17.31,0.4c3.79-0.36,7.59-0.72,11.42-1.09
							c30.55-2.9,62.27-5.91,94-8.9c10.34-0.98,20.68-1.95,31.02-2.93c67.84-6.41,135.68-12.82,203.52-19.23
							c-6.58,4.9-8.67,10.6-8.98,16.18c-0.13,2.28,0.01,4.55,0.31,6.81"/>
						<path class="st138" d="M1717.9,553.29c-117.74,37.39-243.19,32.46-363.41,54.42c-33.86,6.18-67.41,14.52-101.7,17.42
							c-34.29,2.91-69.96,0.05-100.84-15.13c-6.62-3.26-12.99-12.52-20.21-20.46c-7.16-7.87-14.39-15.84-19.59-25.14
							c-6.66-11.9-9.69-25.43-14.38-38.24c-8.93-24.41-23.94-46.32-32-71.03c-7.93-24.31-8.89-50.58-17.86-74.53
							c12.15,2.87,24.26,5.87,36.34,9.01c32.83,40.76,65.65,81.53,98.48,122.29c7.96,9.88,16.1,19.94,26.72,26.89
							c10.91,7.15,23.77,10.6,36.38,13.94c35.16,9.31,73.03,18.53,107.14,5.88c13.25-4.91,25.96-13.11,40.09-12.72
							c4.34,0.12,8.64,1.07,12.99,1.12c5.4,0.05,10.71-1.28,15.97-2.47c63.63-14.3,130.48-7.36,194.34-20.56
							c26.74-5.53,53.15-14.6,80.22-16.19c1.54,4.8,3.16,9.58,4.85,14.33C1705.38,533.28,1709.89,544.58,1717.9,553.29z"/>
						<path class="st138" d="M1359.89,527.85c0.83,5.35,2.83,10.76,1.61,16.04c-1.22,5.27-7.84,9.67-12.06,6.28
							c-1.36-1.09-2.14-2.72-2.86-4.31c-6.52-14.43-11.26-29.66-14.07-45.25c-4.67,12.59-14.06,22.75-23.23,32.56
							c-3.58,3.83-8.75,8-13.45,5.69c0.05-14.86,8.42-28.38,17.83-39.88c7.44-9.09,15.8-17.6,22.3-27.31
							c5.72,0.79,11.5,0.99,17.31,0.4c3.79-0.36,7.59-0.72,11.42-1.09c0.66,2.11,1.02,4.34,1.08,6.44
							C1366.27,494.42,1357.27,511.04,1359.89,527.85z"/>
					</g>
					<g>
						<path class="st2" d="M419.25,443.19c-1.41,6.71-4.34,13.11-8.48,18.51c-2.35,3.07-5.09,5.82-8.16,8.11
							c-3.16,2.36-6.68,4.24-10.49,5.5c-14.01,4.63-20.05,8.28-42.38,12.6c-8.22,1.59-18.56,2.54-21.58,4.16
							c-4.18,2.25-3.13,8.83-5.19,13.11c-2.99,6.23-6.04,11.36-9.28,15.73c-5.61,7.59-11.78,12.87-19.14,17.6
							c-4.56,2.92-9.59,5.63-15.22,8.53c-7.78,4.01-21.34,11.6-30.05,12.48c-5.2,0.53-0.2,2.73-14.99,7.4
							c-8.57,2.71-13.06,6.92-20.89,11.36c-8.52,4.84-24.01,4.96-33.76,3.93c-16.79-1.76-26.55,1.62-45.67-6.18
							c-0.16-0.07-0.33-0.13-0.49-0.2c-8.46-3.47-16.94-7.36-23.38-13.84c-1.35-1.36-2.69-3.03-3.99-4.89
							c-2.05-2.93-3.98-6.34-5.65-9.77c-1.84-3.79-3.36-7.6-4.33-10.79c-1.12-3.67-2.11-7.33-2.96-10.97
							c-8.11-34.38-4.21-67.12,18.77-93.61c4.53-5.22,15.56-15.66,21.31-19.49c22.3-14.82,34.08-24.39,55.21-26.84
							c6.1-0.71,12-0.1,17.79,1.02c11.67,2.24,22.89,6.55,34.31,6.28c10.43-0.25,18.72-2.03,28.77-4.88
							c10.9-3.09,21.72-6.93,31.87-11.97c9.22-4.57,17.88-10.13,25.53-17.01c12.47-11.2,31.44-22.89,50.41-16.87
							c10.79,3.42,19.48,11.83,25.25,21.58c5.76,9.74,8.89,20.8,11.39,31.85c2.2,9.73,3.97,19.56,5.29,29.45
							C419.87,431.1,420.5,437.25,419.25,443.19z"/>
						<path class="st143" d="M164.98,562.15c-2.2,2.94-5.56,4.75-8.86,6.37c-6.23,3.04-12.72,5.73-19.55,6.9
							c-1.02,0.17-2.05,0.31-3.09,0.41c-8.46-3.47-16.94-7.36-23.38-13.84c-1.35-1.36-2.69-3.03-3.99-4.89
							c-2.05-2.93-3.98-6.34-5.65-9.77c-1.84-3.79-3.36-7.6-4.33-10.79c-1.12-3.67-2.11-7.33-2.96-10.97
							c4.38,7.61,11.33,13.75,18.31,19.28c2.43,1.93,4.94,3.85,7.86,4.91c2.92,1.05,6.35,1.13,8.98-0.53c3.15-2,4.65-6.1,8.04-7.65
							c2.81-1.28,6.14-0.42,8.88,1c2.75,1.41,5.22,3.36,8.13,4.41c4.23,1.54,9.57,1.34,12.29,4.92
							C167.88,554.84,167.18,559.21,164.98,562.15z"/>
						<path class="st4" d="M412,458.25c-0.41,1.15-0.81,2.3-1.23,3.45c-2.35,3.07-5.09,5.82-8.16,8.11
							c-3.16,2.36-6.68,4.24-10.49,5.5c-14.01,4.63-20.05,8.28-42.38,12.6c-8.22,1.59-18.56,2.54-21.58,4.16
							c-4.18,2.25-3.13,8.83-5.19,13.11c-8.18,17.04-16.82,25.88-28.42,33.33c-2.15-1.36-4.1-3.14-5.96-4.9
							c-3.28-3.11-6.77-7.06-5.37-11.96c6.06-4.37,12.22-9.5,14.38-16.64c2.08-6.85,0.09-14.22-2.25-20.99
							c-6.69-19.34-16.16-37.58-25.59-55.74c12.64,16.14,20.03,35.81,32.13,52.36c1.26,0.04,2.33-1.07,2.68-2.29
							c0.36-1.22,0.16-2.52-0.05-3.77c-1.39-8.64-2.79-17.28-4.18-25.92c2.62,9.11,8.01,17.41,15.26,23.52
							c1.02,0.85,2.21,1.7,3.52,1.58c2.66-0.26,3.51-4.04,5.99-5.01c2.89-1.14,5.71,2.11,8.82,2.29c4.05,0.24,6.46-4.5,10.12-6.25
							c4.34-2.06,9.52,0.42,14.24-0.44c7.61-1.39,12.57-11.06,20.26-10.27c1.31,0.13,2.59,0.58,3.9,0.56
							c1.35-0.02,2.63-0.52,3.87-1.02c4.96-1.98,9.91-3.96,15.23-4.84c2.16-0.25,4.38-0.5,6.5,0.02c2.11,0.52,4.13,1.98,4.7,4.08
							C413.22,454.66,412.6,456.52,412,458.25z"/>
						<path class="st143" d="M267.14,522.71c-4.23-6.03-3.98-14.08-6.71-20.91c3.76,6.2,7.88,12.19,12.31,17.93
							c0.81,1.05,1.67,2.43,1.03,3.59c-0.64,1.17-2.29,1.19-3.61,0.96C269.01,524.08,267.76,523.6,267.14,522.71z"/>
						<path class="st4" d="M313.69,520.91c-5.61,7.59-11.78,12.87-19.14,17.6c-4.56,2.92-9.59,5.63-15.22,8.53
							c-7.78,4.01-21.34,11.6-30.05,12.48c-5.2,0.53-0.2,2.73-14.99,7.4c-8.57,2.71-13.06,6.92-20.89,11.36
							c-8.52,4.84-24.01,4.96-33.76,3.93c-16.79-1.76-26.55,1.62-45.67-6.18c-8.62-3.52-17.31-7.44-23.87-14.04
							c-1.35-1.36-2.69-3.03-3.99-4.89c-2.05-2.93-3.98-6.34-5.65-9.77c7.49,7.69,17.37,13.06,27.93,14.98
							c3.78,0.69,8.78,0.24,9.9-3.43c1.29-4.22-3.9-9.5-0.78-12.63c0.7-0.71,1.71-1.06,2.71-1.14c4.43-0.32,7.82,4.18,12.2,4.88
							c5.77,0.92,11.76-4.9,16.98-2.27c0.78,0.4,1.49,0.98,1.95,1.74c1.2,1.96,0.53,4.49-0.17,6.68c12.33-7.15,27.56-9.12,41.3-5.34
							c1.97,0.54,4.01,1.2,6.02,0.83c1.4-0.25,2.66-0.99,3.78-1.86c4.66-3.63,7.02-9.44,10.76-14.01c3.75-4.58,10.58-7.95,15.46-4.6
							c1.05,0.72,1.98,1.74,3.23,2.01c3.4,0.71,4.98-4.04,5.07-7.5c3.85,0.28,7.6,1.9,10.45,4.51c1.22-2.46,1.17-5.52-0.14-7.94
							c5.88-1.46,11.82-3.13,16.95-6.36c5.13-3.23,9.42-8.25,10.44-14.23c0.63-3.7,0.85-8.7,4.52-9.49c3.26-0.7,5.66,2.92,7.03,5.97
							C309.33,505.45,312.65,513.05,313.69,520.91z"/>
						<path class="st5" d="M407.01,450.4c-2.21,6.29-3.55,12.8-4.4,19.41c-3.16,2.36-6.68,4.24-10.49,5.5
							c-14.01,4.63-20.05,8.28-42.38,12.6c-8.22,1.59-18.56,2.54-21.58,4.16c-1.83,0.99-2.65,2.8-3.18,4.88
							c-0.68,2.69-0.85,5.82-2.01,8.23c-2.1,4.38-4.23,8.21-6.44,11.62c-9.75,15.09-20.93,21.85-37.2,30.24
							c-7.78,4.01-21.34,11.6-30.05,12.48c-5.2,0.53-0.2,2.73-14.99,7.4c-8.57,2.71-13.06,6.92-20.89,11.36
							c-8.52,4.84-24.01,4.96-33.76,3.93c-16.79-1.76-26.55,1.62-45.67-6.18c-8.62-3.52-17.31-7.44-23.87-14.04
							c-1.35-1.36-2.69-3.03-3.99-4.89c4.77,4.1,10.36,7.34,16.22,9.61c12.04,4.65,25.18,5.62,38.09,5.4
							c3.91-0.06,8.15-0.36,11.1-2.94c0.4,2.75,2.44,5.81,5.18,5.37c3.39-0.55,3.66-5.48,2.21-8.6c-1.45-3.12-3.75-6.51-2.43-9.68
							c1.17-2.79,4.55-3.81,7.53-4.29c10.01-1.61,20.36-1.02,30.12,1.7c2.4,0.67,4.95,1.47,7.32,0.71c1.44-0.46,2.64-1.46,3.69-2.54
							c4.24-4.43,7.04-11.09,13.02-12.49c4.77-1.12,10.57,1.52,14.27-1.69c2.46-2.14,3.39-6.52,6.64-6.76
							c0.92-0.07,1.82,0.25,2.71,0.48c5.52,1.41,11.81-1.14,14.79-6c0.69-1.11,1.27-2.38,2.41-3.02c0.86-0.48,1.89-0.5,2.87-0.47
							c5.05,0.15,10.11,1.47,15.12,0.73c5-0.74,10.16-4.54,11.02-9.32c2.44-16.29,2.2-32.98-0.71-49.19
							c0.77,3.11,1.56,6.26,3.16,9.03c1.61,2.77,4.17,5.16,7.3,5.79c2.77,0.57,5.62-0.27,8.32-1.1
							C353.35,469.42,380.44,460.37,407.01,450.4z"/>
						<path class="st5" d="M167.17,410.05c-2.01-1.65-2.35-4.72-1.47-7.16c0.88-2.44,2.73-4.4,4.57-6.24
							c3.62-3.61,7.63-7.18,12.58-8.41c-5.26,0.9-10.3,3.04-14.61,6.18c-2.69,1.97-5.21,4.52-5.93,7.77
							C161.59,405.45,163.35,409.4,167.17,410.05z"/>
						<path class="st143" d="M140.17,506.18c-2.25,3.5-2.07,8.12-0.64,12.02c1.43,3.91,3.97,7.29,6.31,10.73
							c3.36,4.93,6.48,10.29,7.13,16.22c0.12,1.05,0.18,2.18,0.84,3c0.66,0.82,2.19,0.99,2.66,0.05c0.16-0.32,0.16-0.69,0.15-1.05
							c-0.21-5.43-3.18-10.31-6.05-14.91c-2-3.21-4-6.41-6.01-9.62c-1.51-2.42-3.04-4.88-3.96-7.58
							C139.68,512.33,139.41,509.3,140.17,506.18z"/>
						<path class="st143" d="M238.2,531.47c-1.84-6.04-4.66-12.62-10.54-14.91c-7.41-2.88-16.47,2.42-23.47-1.36
							c-2.16-1.17-3.81-3.08-5.41-4.94c-5.26-6.14-10.67-12.54-12.9-20.32c5.96,0.45,11.98,0.11,17.85-1.02
							c2.32-0.44,4.66-1.01,7-0.8c5.32,0.49,9.39,4.77,12.93,8.78c5.87,6.65,11.86,13.47,15.16,21.7
							C240.58,523.01,241.46,528.2,238.2,531.47z"/>
						<path class="st3" d="M176.2,542.53c13.24,0.97,26.48,1.93,39.71,2.9c0.54,0.04,1.12,0.1,1.52,0.46
							c0.4,0.36,0.44,1.14-0.04,1.36c-0.17,0.08-0.37,0.07-0.56,0.07c-11.55-0.42-23.11-0.84-34.66-1.35
							c-2.89-0.13-5.87-0.29-8.49-1.53C174.53,543.14,176.3,542.55,176.2,542.53z"/>
						<path class="st3" d="M254.98,502.3c0.19,4.1,0.65,8.18,1.39,12.22c0.2,1.11,0.43,2.22,0.93,3.23c0.5,1.01,1.32,1.9,2.38,2.27
							c0.75-2.22,0.5-4.64,0.08-6.95c-0.65-3.51-1.68-6.96-3.06-10.25c-0.14-0.33-0.29-0.67-0.6-0.86
							C255.8,501.78,255.32,501.86,254.98,502.3z"/>
						<path class="st3" d="M145.34,509.55c0.65-6.52,3.32-12.83,7.55-17.84c0.41-0.49,0.85-0.98,1.05-1.58
							c0.2-0.6,0.12-1.35-0.39-1.74c-0.81-0.63-1.97,0.05-2.71,0.75c-4.75,4.47-7.64,10.87-7.83,17.4
							c-0.05,1.68,0.38,3.77,2.01,4.19C145.2,510.43,145.29,510.13,145.34,509.55z"/>
						<path class="st3" d="M219.65,538.08c-1.44-2.42-1.96-5.37-1.43-8.14c0.52-2.77,2.08-5.33,4.3-7.06
							c0.82-0.64,1.81-1.32,1.87-2.36c0.06-1.11-1.11-1.99-2.23-1.99c-1.12,0-2.13,0.62-3.02,1.29c-2.03,1.52-3.84,3.51-4.47,5.96
							c-0.32,1.23-0.31,2.53-0.26,3.8c0.12,2.9,0.63,6.03,2.72,8.05c0.38,0.37,0.86,0.7,1.39,0.67
							C219.05,538.27,219.54,537.69,219.65,538.08z"/>
						<path class="st3" d="M257.46,436.63c6.7,10.94,13.41,21.88,20.11,32.82c2.48,4.04,4.98,8.15,6.33,12.69
							c1.35,4.55,1.43,9.67-0.82,13.84c-1.24,2.3-3.18,4.33-3.61,6.91c-0.43,2.58,1.92,5.77,4.33,4.75
							c0.68-0.29,1.21-0.85,1.68-1.42c3.88-4.66,5.86-10.85,5.43-16.9c-0.41-5.7-2.84-11.04-5.34-16.18
							c-5.86-12.02-12.34-23.73-19.27-35.16c-0.99-1.63-2.05-3.32-3.66-4.34c-1.61-1.02-3.95-1.17-5.3,0.19
							C256.01,435.2,256.65,438.09,257.46,436.63z"/>
						<path class="st3" d="M373.87,392.68c-21.24-0.53-42.53,0.7-63.57,3.68c-1.87,0.26-4.1,0.41-5.31-1.04
							c18.03-8.9,37.43-15.01,57.3-18.05c1.5-0.23,3.1-0.42,4.45,0.26c1.24,0.63,2.01,1.88,2.72,3.07c1.72,2.89,3.44,5.78,5.16,8.67
							C375.53,390.78,375.96,392.73,373.87,392.68z"/>
						<path class="st3" d="M318.68,459.92c11.71-1.69,23.39-3.55,35.05-5.55c3.3-0.57,6.65-1.16,9.68-2.61
							c1.24-0.59,2.58-1.67,2.34-3.02c-0.2-1.15-1.44-1.77-2.54-2.14c-5.91-1.99-12.28-1.94-18.47-2.73
							c-6.16-0.78-12.39-2.41-18.49-1.22c-6.09,1.19-12.04,6.44-11.28,12.6C315.27,457.7,317.1,460.14,318.68,459.92z"/>
						<path class="st143" d="M244.68,517.45c0.79-7.16,1.58-14.35,1.3-21.55c-0.04-1.14-0.1-2.36,0.45-3.36
							c0.26-0.47,0.64-0.87,1.08-1.19c1.35-0.99,3.24-1.18,4.76-0.48s2.6,2.27,2.72,3.93c-1.88,0.62-4.16-0.16-5.78,0.98
							c-1.11,0.78-1.53,2.24-1.5,3.59s0.42,2.67,0.59,4.01C248.86,507.9,246.88,512.3,244.68,517.45z"/>
						<path class="st143" d="M182.78,400.07c-2.99,0.43-5.99,1.2-8.51,2.86s-4.51,4.31-4.8,7.31c-0.02,0.2-0.03,0.4,0.03,0.6
							c0.17,0.54,0.85,0.76,1.42,0.72c1.32-0.08,2.44-1.01,3.29-2.03c0.84-1.02,1.53-2.19,2.52-3.06c0.34-0.3,0.77-0.57,1.21-0.46
							c0.68,0.18,0.79,1.08,0.76,1.78c-0.06,1.58-0.13,3.16-0.19,4.74c1.08,0.5,2.14-0.72,2.66-1.79c1.52-3.13,2.51-6.53,2.9-9.99
							c0.04-0.34,0.05-0.74-0.22-0.96c-0.18-0.15-0.43-0.16-0.67-0.15C182.23,399.68,181.3,399.89,182.78,400.07z"/>
						<path class="st143" d="M216.18,412.33c1.84,4.36,7.65,5.01,12.39,4.99c4.81-0.02,9.62-0.04,14.43-0.06
							c6.37-0.03,13.05,0.02,18.63,3.1c4.83,2.66,8.24,7.28,11.26,11.9c7.53,11.55,13.61,24.05,18.04,37.11
							c1.08,3.17,2.14,6.52,4.56,8.84c2.42,2.32,6.68,3.1,9.03,0.7c1.41-1.44,1.76-3.58,2.05-5.58c0.9-6.32,1.8-12.7,1.25-19.06
							c-0.55-6.36-2.69-12.78-7.12-17.37c-3.11-3.22-7.15-5.35-11.14-7.39c-5.03-2.57-10.09-5.06-15.18-7.49
							c-5.13-2.45-10.35-4.84-15.92-5.99C244.23,413.1,228.48,418.43,216.18,412.33z"/>
						<path class="st143" d="M299.13,417.92c8.15-2.77,16.8-4.24,25.38-3.68c5.89,0.38,11.67,1.71,17.43,3.04
							c7.54,1.74,15.08,3.47,22.62,5.21c12.47,2.87,25.32,5.91,35.64,13.48c0.5,0.37,1.01,0.76,1.32,1.3
							c0.93,1.6-0.38,3.75-2.11,4.38c-1.74,0.63-3.66,0.22-5.46-0.21C362.39,433.98,330.84,426.54,299.13,417.92z"/>
						<path class="st4" d="M186.02,523.38l-2.07,3.29c0,0,7-2.17,8.43-3.29c0.68-0.53,1.08-1.36,1.27-2.19
							c0.75-3.18-1.11-6.35-2.98-9.04c-0.42-0.6-0.86-1.21-1.51-1.55c-1.61-0.85-3.59,0.37-5.38,0.03
							c-1.83-0.35-3.64-2.69-5.19-1.65c-1.78,1.2,1.95,6.62,4.32,9.63C184.2,520.23,186.02,523.38,186.02,523.38z"/>
						<path class="st143" d="M395.93,422.88c-16.98-2.4-33.58-7.45-49.02-14.9c-0.36-0.17-0.73-0.36-0.94-0.7
							c-0.51-0.83,0.31-1.85,1.13-2.37c2.67-1.68,5.98-1.87,9.13-2.09c8.36-0.6,16.67-1.85,24.83-3.74c2.95-0.68,6.03-1.45,8.97-0.7
							c2.51,0.64,4.65,2.34,6.32,4.33c4.08,4.85,5.67,11.35,6.12,17.67c0.04,0.56,0.07,1.16-0.17,1.67c-0.59,1.25-2.32,1.32-3.7,1.2
							C396.65,423.06,394.71,422.89,395.93,422.88z"/>
						<path class="st4" d="M165.98,520.76c0.72,4.02,3.37,7.65,7.15,10.18c-3.98,0.49-7.8,2.21-10.8,4.86
							c-1.35,1.19-2.78,2.66-4.57,2.57c1.73-2.19,3.51-4.46,4.28-7.15c1.26-4.4-0.36-9.03-1.57-13.45c-1.2-4.38-2-8.94-1.45-13.44
							s2.58-8.97,6.19-11.71c-1.9,3.42-3.76,6.97-4.28,10.84c-0.36,2.64-0.08,5.32,0.3,7.96c0.29,1.99,0.64,3.99,1.48,5.82
							C163.54,519.05,164.92,520.7,165.98,520.76z"/>
						<path class="st143" d="M301.2,376.08c-5.21,4.12-11.1,7.51-17.07,10.37c-24,11.5-52.79,16.03-77.24,5.49
							c-0.06-1.24-0.89-3.48-0.64-5.29c11.67,2.24,22.89,6.55,34.31,6.28c10.43-0.25,18.72-2.03,28.77-4.88
							C280.23,384.96,291.05,381.12,301.2,376.08z"/>
						<path class="st5" d="M181.73,413.17c1.16-4.9,4.36-9.28,8.68-11.88c1.02-0.61,2.18-1.14,3.35-0.93
							c1.72,0.32,2.75,2.12,3.15,3.83c0.29,1.24,0.49,2.71,1.6,3.34c-0.37-1.81-0.73-3.62-1.1-5.44c-0.28-1.38-0.59-2.83-1.48-3.92
							c-1-1.22-2.58-1.8-4.1-2.23c-1.03-0.29-2.1-0.54-3.16-0.46c-2.07,0.16-3.9,1.57-5,3.33c-1.1,1.76-1.57,3.85-1.84,5.91
							C181.43,407.56,181.39,410.43,181.73,413.17z"/>
						<path class="st5" d="M185.3,522.49c1.03,0.3,2.36,0.03,2.79-0.95c0.48-1.09-0.42-2.33-1.45-2.93c-1.03-0.6-2.26-0.9-3.13-1.71
							c-0.89-0.84-1.54-2.26-2.77-2.21C180.06,514.71,184.27,522.19,185.3,522.49z"/>
						<path class="st5" d="M166.3,552.77c-3.51,3.11-8.18,4.99-12.86,4.7c-4.67-0.29-9.25-2.92-11.46-7.04
							C149.56,553.52,158.14,554.08,166.3,552.77z"/>
						<path class="st5" d="M224.66,538.26c-0.71-2.05-1.41-4.37-0.42-6.31c0.5-0.99,1.39-1.73,1.91-2.71
							c0.52-0.98,0.49-2.44-0.51-2.93c-0.6-0.3-1.36-0.11-1.88,0.33c-0.51,0.43-0.81,1.07-1.01,1.71
							C221.71,531.73,223.2,535.36,224.66,538.26z"/>
						<path class="st4" d="M378.32,439.58c-6.95-0.36-13.89-0.81-20.83-1.34c-0.67-0.05-1.41-0.14-1.85-0.64
							c-0.39-0.45-0.43-1.1-0.6-1.67c-0.96-3.09-5.27-2.99-8.49-2.73c-5.37,0.42-10.83-0.54-15.74-2.76
							c0.11-0.79,0.21-1.57,0.32-2.36c-11.33-1.35-22.42-4.61-32.68-9.59c1.23-0.96,2.99-0.65,4.51-0.3
							c20.68,4.73,41.71,7.92,62.86,9.51c6.01,0.45,12.19,0.82,17.66,3.35c5.9,2.73,10.48,7.77,16.31,10.65
							C391.34,440.88,382.91,439.82,378.32,439.58z"/>
						<path class="st5" d="M237.95,536.77c1.41-0.79,2.86-1.6,4.47-1.81c1.75-0.22,3.53,0.3,5.28,0.04
							c0.23-0.03,0.46-0.08,0.65-0.21c0.5-0.34,0.51-1.11,0.26-1.66c-0.58-1.29-2.16-1.92-3.57-1.74c-1.41,0.18-2.64,1.02-3.68,1.99
							C240.33,534.35,239.44,535.47,237.95,536.77z"/>
						<path class="st96" d="M259.86,532.98c0.8-1.61,0.38-3.6-0.51-5.16c-0.89-1.56-2.21-2.84-3.33-4.24
							c-1.9-2.37-3.29-5.16-3.89-8.14c-0.48-2.42-0.44-4.91-0.9-7.34c-0.5-2.6-1.57-5.04-2.48-7.52c-0.14-0.38-0.27-0.79-0.18-1.18
							c0.24-1.02,1.84-1.08,2.53-0.29c0.69,0.79,0.72,1.94,0.71,2.99c-0.03,3.31-0.07,6.63-0.1,9.94"/>
						<path class="st5" d="M251.03,506.73c-0.59-1.67-1.18-3.35-1.77-5.02c-0.19-0.55-0.39-1.12-0.34-1.7
							c0.05-0.58,0.41-1.17,0.98-1.3c0.68-0.16,1.34,0.42,1.6,1.06c0.3,0.73,0.25,1.55,0.2,2.34
							C251.59,503.65,251.49,505.18,251.03,506.73z"/>
						<path class="st5" d="M401.61,448.82c-2.47-0.39-4.93-0.77-7.4-1.16c-0.6-0.09-1.23-0.2-1.73-0.56
							c-0.67-0.49-0.95-1.34-1.37-2.07c-1.79-3.1-5.95-3.64-9.52-3.83c-4.9-0.27-9.79-0.53-14.69-0.8c0.97-0.91,1.94-1.83,2.91-2.74
							c-9.62-4.89-20.08-7.84-30.46-10.76c22.04,4.18,44.08,8.37,66.13,12.55c-2.11,0.88-3.16,3.69-2.14,5.73
							c0.61,1.22,1.85,2.47,1.28,3.71C403.99,450.27,401.93,449.87,401.61,448.82z"/>
						<path class="st4" d="M168.41,419.43c-4.12-1.51-7.61-4.64-9.56-8.57c-0.83-1.67-1.39-3.55-1.05-5.38
							c0.2-1.09,0.72-2.1,1.32-3.03c-0.87,3.04,0.23,6.38,2.19,8.86s4.69,4.23,7.45,5.76C168.77,417.98,168.77,418.89,168.41,419.43
							z"/>
						<path class="st4" d="M191.67,412.72c1.64,0.42,3.35,0.54,5.03,0.37c0.2-0.02,0.43-0.06,0.55-0.22
							c0.25-0.31-0.07-0.75-0.4-0.97c-1.49-0.99-3.45-0.74-5.22-0.45c-0.26,0.04-0.56,0.11-0.71,0.33S190.92,412.53,191.67,412.72z"
							/>
						<path class="st4" d="M198.75,407.98c0.36,0.91,0.72,1.83,1.08,2.74c0.18,0.47,0.47,1.02,0.97,1.05
							c0.37,0.03,0.7-0.27,0.84-0.61c0.13-0.34,0.11-0.73,0.05-1.09c-0.21-1.39-0.81-2.72-1.72-3.79c-0.06-0.07-0.12-0.14-0.21-0.16
							c-0.18-0.04-0.32,0.13-0.4,0.29C199.04,407.02,198.98,407.76,198.75,407.98z"/>
						<path class="st4" d="M204.88,389.48c3.42,2.88,6.89,5.81,9.45,9.49s4.15,8.24,3.36,12.65c-0.07,0.41-0.17,0.83-0.42,1.16
							c-0.54,0.73-1.6,0.83-2.49,0.68s-1.78-0.49-2.53-0.27c-0.32-1.21,1.08-2.09,1.76-3.14c0.52-0.8,0.64-1.79,0.65-2.75
							c0.03-3.41-1.19-6.75-3.03-9.62C209.78,394.82,207.35,392.38,204.88,389.48z"/>
						<path class="st4" d="M395.78,417.78c-12.53-3.26-24.95-6.95-37.23-11.06c11.46,0.12,22.92,0.33,34.38,0.62
							c0.3,0.01,0.62,0.02,0.87,0.18c0.32,0.2,0.47,0.58,0.6,0.93C395.52,411.78,395.67,415.43,395.78,417.78z"/>
						<path class="st161" d="M169.51,493.34c-5.92,5.86-7.35,14.2-4.62,22.07c1.15,3.33,3.38,6.59,6.75,7.62"/>
						<path class="st161" d="M178.21,510.56c-2.54-5.88-5.39-11.63-8.53-17.21"/>
						<path class="st5" d="M180.49,530.51c-5.48-2.22-10.2-6.28-13.21-11.37c-0.82-1.4-1.54-2.93-1.53-4.56
							c1.39,0.84,2.01,2.49,2.73,3.95c1.69,3.4,4.41,6.28,7.72,8.16C177.97,527.69,180.03,528.54,180.49,530.51z"/>
						<path class="st162" d="M324.98,496.95c-0.68,2.69-0.85,5.82-2.01,8.23c-2.1,4.38-4.23,8.21-6.44,11.62
							c-0.16,0.01-0.31,0-0.47-0.02c-1.88-0.3-2.27-2.8-2.22-4.71c0.23-9.27-0.22-18.55-1.37-27.75c-0.19-1.54-0.2-3.51,1.2-4.2
							C317.92,485.38,321.71,491.02,324.98,496.95z"/>
					</g>
					<path class="st163" d="M1583.67,717.5c-8.17-19.66-6.87-39.25-5.7-60.66c0.52-9.49,2.07-19.2,6.83-27.29
						c2.06-3.51,5.6-6.98,9.4-5.92c2.14,0.59,3.7,2.51,4.93,4.44c4.49,7.1,6.31,15.64,8.05,23.97c4.48,21.48,8.99,43.42,6.65,65.27
						c-0.53,4.96-1.49,10.08-4.39,14.04c-2.89,3.96-8.21,6.36-12.57,4.36c-2.35-1.08-4.09-3.23-5.54-5.45
						C1588.68,726.23,1581.68,719.65,1583.67,717.5z"/>
					<g>
						<path class="st128" d="M1600.75,739.61c-0.81,0.11-1.63,0.22-2.44,0.33c-80.37,10.81-159.76,21.56-239.15,32.32
							c-53.55,2.83-108.75,9.38-163.34,19.31c-18.24,3.31-37.14,7-55.11,2.43c-21.76-4.86-47.54-4.2-69.29-15.28
							c-9.05-4.62-17.02-11.1-24.49-17.99c-37.85-34.9-63.94-80.59-95.89-120.89c-6.1-7.69-12.41-15.18-19.06-22.37
							c-5.06-5.47-10.31-10.75-15.81-15.81c-11.98-11.02-18.57-24.55-23.68-37.93c-2.45-6.4-4.09-13.07-5.71-19.72
							c-7.83-32.04-15.47-64.27-18.48-97.12c-0.17-1.9-0.33-3.8-0.47-5.7c-0.78-10.06-1.16-20.15-1.44-30.23
							c-0.71-24.81-0.74-50.14,6.77-73.8c2.14-6.74,5-13.36,8.53-19.57c8.22-14.47,20.09-26.75,35.09-33.31
							c1.16-0.52,2.33-0.99,3.53-1.43c42.5-13.49,96.12,3.94,123.39,42.43c7.42,10.47,12.95,22.14,18.44,33.75
							c26.29,65.84,52.59,132.12,78.9,198.39c7.8,23.28,18.38,47.35,30.21,70.86c0.36,0.73,0.72,1.45,1.09,2.18
							c0.38-0.02,0.77-0.04,1.15-0.06c58.66-3.11,115.61-21.41,173.86-20.09c81.09,9.92,164.43,10.94,247.6,11.95
							c-4.97,0.99-7.13,7.69-7.78,13.06c-1.09,9.05-1.77,18.14-2.03,27.25c-0.36,12.61,0.09,25.24,1.34,37.79
							c0.21,2.14,0.44,4.27,0.7,6.4C1588.64,718.82,1591.42,731.83,1600.75,739.61z"/>
						<path class="st130" d="M1600.75,739.61c-81.2,10.92-161.4,21.78-241.59,32.65c-53.55,2.83-108.75,9.38-163.34,19.31
							c-18.24,3.31-37.14,7-55.11,2.43c-21.76-4.86-47.54-4.2-69.29-15.28c-9.05-4.62-17.02-11.1-24.49-17.99
							c-37.85-34.9-63.94-80.59-95.89-120.89c-6.1-7.69-12.41-15.18-19.06-22.37c0.36-3.41,0.99-6.79,1.93-10.14
							c4.77,5.58,10.47,10.23,14.52,15.27c1.74,2.16,3.47,4.32,5.2,6.48c17.47,21.74,34.94,43.47,52.41,65.21
							c9.89,12.31,19.8,24.65,30.86,35.91c8.14,8.28,16.95,16.01,26.98,21.83c33.8,19.62,75.81,15.14,118.43,10.9
							c63.86,4.07,126.61-16,190.32-22.01c38.43-3.62,77.37-2.13,115.38-8.87c34.02-6.03,66.46-18.51,98.47-31.69
							c0.21,2.14,0.44,4.27,0.7,6.4C1588.64,718.82,1591.42,731.83,1600.75,739.61z"/>
						<path class="st130" d="M1188.37,708.84c-13.63-8.52-11.32-30-22.22-41.82c-0.23,24.39-2.63,48.75-7.17,72.71
							c-3.82-2.71-5.19-7.68-6.04-12.29c-3.82-20.52-2.66-41.95,3.36-61.93c-15.92,11.02-25.11,29.16-33.65,46.54
							c-4.48-4.06-3.21-11.32-1.21-17.03c9.32-26.61,26.97-50.22,49.81-66.74c0.36,0.73,0.72,1.45,1.09,2.18
							c0.38-0.02,0.77-0.04,1.15-0.06c-1.3,5.51-0.32,11.03,0.82,16.07c2.96,13.11,6.4,26.12,10.33,38.98
							C1186.96,693.07,1189.48,700.95,1188.37,708.84z"/>
						<path class="st130" d="M953.63,629.08c-0.72,3.61-1.61,7.19-2.59,10.76c-6.1-7.69-12.41-15.18-19.06-22.37
							c-5.06-5.47-10.31-10.75-15.81-15.81c-11.98-11.02-18.57-24.55-23.68-37.93c-2.45-6.4-4.09-13.07-5.71-19.72
							c-7.83-32.04-15.47-64.27-18.48-97.12c-0.17-1.9-0.33-3.8-0.47-5.7c0.14-13.35,0.6-26.71,1.1-40.03
							c0.97-25.93,2.16-52.24,10.3-76.87c0.74-2.24,1.56-4.48,2.46-6.7c6.17-15.14,16.48-29.13,35.37-34.91
							c-0.09,0.53-0.19,1.06-0.28,1.6c-5.44,30.85-10.59,62.94-1.78,92.95c2.74,9.33,6.82,18.48,7.04,28.2
							c0.2,9.03-2.96,17.75-4.94,26.57c-10.27,45.78,11.31,91.83,28.28,135.58c4.91,12.65,9.51,25.67,10.2,39.23
							C955.96,614.3,955.13,621.73,953.63,629.08z"/>
						<path class="st136" d="M965.26,330.55c-14.34,8.6-18.33,28.01-15.76,44.54c2.58,16.52,10.14,31.9,13.34,48.32
							c2.6,13.32,2.28,27.05,4.37,40.46c2.15,13.75,6.8,26.97,11.42,40.09c15.43,43.78,30.96,87.77,53.09,128.57
							c5.68,10.48,11.84,20.82,15.47,32.17c2.77,8.64,4.19,18.06,9.76,25.23c5.57,7.16,17.49,10.51,23.56,3.77
							c4.13-4.59,3.77-11.53,3.17-17.67c-4.07-41.43-8.14-82.85-12.21-124.28c-2.28-23.21-4.58-46.56-10.67-69.07
							c-10.62-39.27-32.65-75.84-35.04-116.45c-0.51-8.64-0.2-17.74-4.26-25.39c-4.98-9.37-15.84-14.57-26.44-15.01
							C984.47,325.37,972.95,325.94,965.26,330.55z"/>
						<path class="st136" d="M1206.33,698.1c-1.61,6.22-0.62,13.53,4.1,17.89c7.36,6.79,18.98,3.51,28.68,1.02
							c21.77-5.59,44.58-5.01,67.04-4.49c72.34,1.66,146.87,1.87,214.07-24.95c7.38-2.94,15.83-7.98,15.63-15.92
							c-0.25-9.9-12.98-13.53-22.85-14.34c-25.8-2.12-51.6-4.23-77.4-6.35c-47.96-3.93-96.19-7.87-144.13-3.77
							c-19.36,1.65-38.61,4.62-57.58,8.86c-7.84,1.76-16.21,4.08-21.26,10.34C1205.29,675.49,1208.7,688.95,1206.33,698.1z"/>
					</g>
					<path class="st131" d="M921.19,610.81c-2.72,2.3-6.71,2.24-10.2,1.54s-6.98-1.92-10.52-1.49c-2.25,0.27-4.38,1.2-6.61,1.63
						c-6.76,1.29-13.41-2.11-20.16-3.44c-6.21-1.22-12.61-0.68-18.92-0.25c-14.89,1.02-29.92,1.36-44.68-0.85
						c-13.83-2.07-27.79-6.39-39.92-3.32c-55.69-3.12-111.47,13.87-163.57,8.82c-7.66-0.39-15.31-0.37-22.96-0.08
						c-39.52,1.49-79.01,10.16-118.43,6.6c-14.29-1.29-28.42-4.21-42.06-8.64c-9.61-3.13-18.97-7-27.97-11.6
						c-2.69-1.38-5.49-2.85-8.51-2.81c-2.32,0.04-4.52,0.98-6.64,1.9c-35.12,15.22-70.24,30.44-104.98,44.95
						c-3.38,0.12-6.78-0.24-10.08-1.03c-2.92-0.7-5.75-1.75-8.42-3.12c1.57-0.94,2.64-2.34,3.35-3.98c1.1-2.45,1.41-5.42,1.48-8.15
						c0.19-7.9-0.48-15.82-1.99-23.58c-2.38-12.26-6.81-24.12-13.13-34.88c-1.21-2.05-2.36-4.99-0.52-6.51
						c0.46-0.38,1.05-0.58,1.62-0.77c16.34-5.54,32.54-12.13,46.59-22.16c14.04-10.03,25.91-23.81,31.1-40.27
						c0.18-0.57,0.35-1.15,0.55-1.72c0.02-0.06,0.04-0.12,0.06-0.18c0.07-0.2,0.14-0.39,0.22-0.58c0.06-0.15,0.12-0.3,0.18-0.45
						c0.06-0.13,0.12-0.26,0.18-0.38c0.12-0.26,0.25-0.51,0.4-0.75c0.04-0.07,0.08-0.14,0.13-0.21c0.1-0.17,0.22-0.33,0.34-0.49
						c0.13-0.17,0.27-0.33,0.42-0.48c0.13-0.14,0.27-0.27,0.41-0.4c0.04-0.04,0.08-0.08,0.12-0.11c0.13-0.11,0.27-0.22,0.41-0.32
						c0.12-0.1,0.25-0.19,0.38-0.27c0.08-0.06,0.16-0.11,0.25-0.16c0.29-0.18,0.59-0.34,0.9-0.48c0.27-0.13,0.56-0.25,0.85-0.36
						s0.59-0.21,0.89-0.3c0.26-0.08,0.53-0.15,0.8-0.22c0.35-0.09,0.7-0.17,1.06-0.24c0.47-0.09,0.94-0.18,1.41-0.25
						c0.48-0.08,0.95-0.15,1.41-0.22c21.94-3.13,43.46-9.29,63.74-18.24l0.43-0.17c4.53-14.03,1.53-14.22-1.01-28.74
						c-2.54-14.52-7.53-28.49-12.86-42.24c-3.99-10.3-8.47-20.93-16.85-28.13c-0.47-0.4-0.94-0.79-1.43-1.16
						c-0.48-0.37-0.98-0.73-1.48-1.08c-0.36-0.25-0.73-0.5-1.11-0.73c-0.24-0.17-0.48-0.32-0.73-0.46
						c-0.04-0.03-0.08-0.06-0.12-0.08c-0.23-0.14-0.46-0.28-0.7-0.41c-0.01,0-0.01-0.01-0.02-0.01c-0.4-0.24-0.81-0.47-1.23-0.68
						c-0.54-0.29-1.08-0.57-1.64-0.82c-0.55-0.27-1.11-0.52-1.67-0.74c-0.56-0.25-1.13-0.48-1.71-0.68
						c-4.89-1.84-10.13-2.83-15.34-3.12c-8.9-0.49-17.78,0.91-27.58,2.6c1.67-2.89,3.61-6.04,5.64-8l0.01-0.01
						c24.22-23.49,50.07-45.29,77.3-65.2c10.61-7.75,21.64-15.3,33.07-21.72c0.22-0.12,0.44-0.25,0.66-0.36
						c14.93-8.34,30.53-14.7,46.73-17.04c16.6-0.89,33.26-0.65,49.83,0.7c30.76,2.5,61.21,8.83,90.39,18.84
						c18.04,6.2,35.61,13.78,53.94,19.05c32.93,9.46,67.08,11.15,101.32,8.59c10.18-0.76,20.37-1.89,30.54-3.31
						c20.74-2.89,41.39-6.96,61.69-11.42c17.77-3.9,36.1-8.11,54.72-4.71c-16.04,11.83-25.92,31.58-25.78,51.51
						c0.15,20.42,10.11,40.26,7.68,60.54c-0.06,0.53-0.14,1.06-0.22,1.59c-1.32,8.76-4.69,17.17-5.65,25.99
						c-1.06,9.69,0.82,19.47,0.54,29.21c-0.3,10.42-3.07,20.65-3.36,31.06c-0.26,9.28,1.45,18.49,3.21,27.61
						c3.42,17.61,7.08,35.17,11.12,52.57C912.36,578.03,916.56,594.55,921.19,610.81z"/>
					<path class="st134" d="M812.77,376.48c-15.89-23.59-28.93-49.09-38.76-75.77c10.18-0.76,20.37-1.89,30.54-3.31
						C803.33,323.76,808.05,350.36,812.77,376.48z"/>
					<path class="st134" d="M921.19,610.81c-2.72,2.3-6.71,2.24-10.2,1.54s-6.98-1.92-10.52-1.49c-2.25,0.27-4.38,1.2-6.61,1.63
						c-6.76,1.29-13.41-2.11-20.16-3.44c-6.21-1.22-12.61-0.68-18.92-0.25c-14.89,1.02-29.92,1.36-44.68-0.85
						c-13.83-2.07-27.79-6.39-39.92-3.32c-55.69-3.12-111.47,13.87-163.57,8.82c-7.66-0.39-15.31-0.37-22.96-0.08
						c-9.32-4.83-16.77-12.7-22.92-21.22c-16.66-23.06-24.88-52.08-22.82-80.45c1.12-15.31,7.2-32.72,21.8-37.45
						c9.38-3.04,19.7,0.2,28.29,5.03c8.6,4.83,12.79,11.76,21.71,15.95c1.73-0.75,6.61-3.24,10.73-1.57
						c-21.19-55.76-35.95-96.06-55.26-153.85c8.78,15.25,17.55,30.51,26.33,45.76c1.62,2.83,3.41,5.82,6.34,7.27
						c2.97,1.48,6.5,1.05,9.79,0.56c30.61-4.64,60.73-12.59,89.64-23.68c-3.13,19.54-3.07,39.58,0.16,59.1
						c1.32,7.99,3.7,16.7,10.49,21.12c5.12,3.34,11.62,3.47,17.73,3.33c23.32-0.54,46.59-3.41,69.34-8.54
						c1.5,7.6,0.31,15.45,0.7,23.19c0.4,7.74,2.93,16.13,9.53,20.19c3.7,2.28,8.17,2.87,12.5,3.12
						c19.88,1.14,41.94-5.42,52.15-22.52c7.78-13.02,7.2-29.26,11.81-43.71c3.78-11.81,11.2-22.42,20.95-30.09
						c-1.32,8.76-4.69,17.17-5.65,25.99c-1.06,9.69,0.82,19.47,0.54,29.21c-0.3,10.42-3.07,20.65-3.36,31.06
						c-0.26,9.28,1.45,18.49,3.21,27.61c3.42,17.61,7.08,35.17,11.12,52.57C912.36,578.03,916.56,594.55,921.19,610.81z"/>
					<path class="st134" d="M463.68,558.9c-4.39,12.02-12.44,22.32-20.81,32.01c-6.17,7.14-12.65,14.14-19.71,20.42
						c-9.61-3.13-18.97-7-27.97-11.6c-2.69-1.38-5.49-2.85-8.51-2.81c-2.32,0.04-4.52,0.98-6.64,1.9
						c-35.12,15.22-70.74,12.44-105.48,26.95c-3.38,0.12-13.24,4.45-13.17,1.72c0.19-7.9-0.48-15.82-1.99-23.58
						c-0.86-4.44-1.99-8.83-3.39-13.13c-0.32-0.99-0.65-1.98-1.01-2.96c-2.31-6.52-5.23-12.83-8.73-18.79
						c-1.21-2.05-3.02-5.51-3.02-5.51s3.55-3.34,4.12-3.52c17.1-5.26,29.91-13.5,47.34-21.66c6.68-3.13,22.14-19.43,28.04-33.44
						c0.12-0.28,0.22-0.53,0.31-0.76c0.49-1.27,0.59-1.96,1-3.82c0.13-0.58,0.4-2.17,0.55-2.72c0.33-1.23,1.07-3.39,1.76-4.29
						c1.78-2.32,7.3-2.95,8.31-3.06c0.08-0.01,0.16-0.02,0.24-0.03c23.12-2.54,64.93-18.38,64.93-18.38
						c2.24-6.95,3.08-10.21,2.8-13.65c-0.07-0.88-0.21-1.78-0.42-2.75c-0.04-0.2-0.09-0.41-0.14-0.63
						c-0.08-0.31-0.15-0.62-0.23-0.94c-0.04-0.17-0.08-0.33-0.12-0.5c-0.08-0.33-0.17-0.67-0.26-1.03c-0.07-0.26-0.13-0.53-0.2-0.81
						c-0.07-0.28-0.14-0.56-0.21-0.86c-0.05-0.19-0.09-0.39-0.14-0.59c-0.06-0.25-0.13-0.52-0.19-0.79
						c-0.05-0.2-0.09-0.41-0.14-0.62c-0.33-1.46-0.67-3.13-1.01-5.07c-2.54-14.52-7.53-28.49-12.86-42.24
						c-3.99-10.3-8.47-20.93-16.85-28.13c-0.47-0.4-0.94-0.79-1.43-1.16c-0.48-0.37-0.98-0.73-1.48-1.08
						c-0.36-0.26-0.73-0.5-1.11-0.73c-0.21-0.14-0.42-0.28-0.64-0.4c-0.03-0.03-0.06-0.04-0.09-0.06c-0.04-0.03-0.08-0.06-0.12-0.08
						c-0.23-0.14-0.46-0.28-0.7-0.41c-0.01,0-0.01-0.01-0.02-0.01c-0.02-0.01-0.03-0.02-0.05-0.03c-0.38-0.23-0.79-0.44-1.18-0.65
						c-0.54-0.29-1.08-0.57-1.64-0.82c-0.55-0.27-1.11-0.52-1.67-0.74c-0.56-0.25-1.13-0.48-1.71-0.68
						c-4.89-1.84-10.13-2.83-15.34-3.12c-0.45-0.02-0.91-0.04-1.36-0.05c-0.24-0.01-0.48-0.02-0.72-0.02
						c-0.21,0-0.43-0.01-0.64-0.01c-2.89-0.04-5.7,0.14-8.54,0.56h-0.01c-1.55,0.23-3.12,0.54-4.71,0.91
						c-1.06,0.25-2.13,0.54-3.22,0.86c-3.27,0.97-6.7,2.25-10.41,3.88c0.62-1.04,1.3-2.26,2.03-3.53c1.25-2.17,2.66-4.48,4.14-6.33
						c0.14-0.18,0.28-0.35,0.43-0.51c0.35-0.42,0.71-0.81,1.07-1.16l0.01-0.01c24.22-23.49,50.07-45.29,77.3-65.2
						c10.61-7.75,21.64-15.3,33.07-21.72c-15.91,38.03-9.15,82.88,3.01,122.85c13.16,43.28,32.21,85.71,33.85,130.92
						C468.42,536.25,467.65,548.04,463.68,558.9z"/>
					<path class="st135" d="M411.4,459.81c-0.6,9.36-4.03,18.89-11.07,25.08c-6.37,5.6-14.89,7.91-23.09,10.05
						c-12.19,3.19-24.46,6.4-37.03,7.36c-3.65,0.29-8.01,0.48-11.53,1.48c-2.44,0.69-4.3,1.04-5.68,1.12
						c0.12-0.29,0.13-0.54,0.06-0.76c0.49-1.27,0.59-1.96,1-3.82c0.13-0.58,0.4-2.17,0.55-2.72c0.33-1.23,1.07-3.39,1.76-4.29
						c1.78-2.32,7.3-2.95,8.31-3.06c23.07-2.46,65.17-18.41,65.17-18.41c2.24-6.95,3.08-10.21,2.8-13.65
						c0.01-0.7-0.13-1.5-0.42-2.75c-0.04-0.2-0.09-0.41-0.14-0.63c-0.08-0.31-0.15-0.62-0.23-0.94c-0.04-0.17-0.08-0.33-0.12-0.5
						c-0.08-0.33-0.17-0.67-0.26-1.03c-0.07-0.26-0.13-0.53-0.2-0.81c-0.07-0.28-0.14-0.56-0.21-0.86
						c-0.05-0.19-0.09-0.39-0.14-0.59c-0.06-0.25-0.13-0.52-0.19-0.79c-0.05-0.2-0.09-0.41-0.14-0.62
						c-0.33-1.46-0.67-3.13-1.01-5.07c-2.54-14.52-7.53-28.49-12.86-42.24c-3.99-10.3-8.47-20.93-16.85-28.13
						c-0.47-0.4-0.94-0.79-1.43-1.16c-0.48-0.37-0.98-0.73-1.48-1.08c-0.36-0.26-0.73-0.5-1.11-0.73c-0.21-0.14-0.42-0.28-0.64-0.4
						c-0.03-0.03-0.06-0.04-0.09-0.06c-0.04-0.03-0.08-0.06-0.12-0.08c-0.23-0.14-0.46-0.28-0.7-0.41c-0.01,0-0.01-0.01-0.02-0.01
						c-0.02-0.01-0.03-0.02-0.05-0.03c-0.38-0.23-0.79-0.44-1.18-0.65c-0.54-0.29-1.08-0.57-1.64-0.82
						c-0.55-0.27-1.11-0.52-1.67-0.74c-0.56-0.25-1.13-0.48-1.71-0.68c-4.89-1.81-10.13-2.8-15.34-3.12
						c-0.45-0.02-0.91-0.04-1.36-0.05c-0.24-0.01-0.48-0.02-0.72-0.02c-0.21,0-0.43-0.01-0.64-0.01c-2.89-0.04-5.7,0.14-8.54,0.56
						h-0.01c-1.55,0.23-3.12,0.54-4.71,0.91c-1.06,0.26-2.13,0.54-3.22,0.86c-3.27,0.97-6.7,2.25-10.41,3.88
						c0.62-1.04,1.3-2.26,2.03-3.53c1.25-2.17,2.66-4.48,4.14-6.33c0.14-0.18,0.28-0.35,0.43-0.51c0.35-0.42,0.71-0.81,1.07-1.16
						l0.01-0.01c3.25-1.42,6.58-2.63,10.04-3.42c19.81-4.48,40.68,6.21,53.47,21.99c12.78,15.78,18.91,35.83,23.61,55.59
						C410.06,441.13,412,450.46,411.4,459.81z"/>
					<path class="st133" d="M921.19,610.81c-2.72,2.3-6.71,2.24-10.2,1.54s-6.98-1.92-10.52-1.49c-2.25,0.27-4.38,1.2-6.61,1.63
						c-6.76,1.29-13.41-2.11-20.16-3.44c-6.21-1.22-12.61-0.68-18.92-0.25c-14.89,1.02-29.92,1.36-44.68-0.85
						c-13.83-2.07-27.79-6.39-39.92-3.32c-55.69-3.12-111.47,13.87-163.57,8.82c-47.18-2.41-94.33,10.77-141.39,6.52
						c-24.35-2.2-48.26-9.12-70.03-20.24c-2.69-1.38-5.49-2.85-8.51-2.81c-2.32,0.04-4.52,0.98-6.64,1.9
						c-35.12,15.22-70.24,30.44-104.98,44.95c-6.38,0.22-18.07-1.98-23.75-4.9c3.91-2.34,9.97-6.83,10.08-11.38
						c0.19-7.9-0.48-15.82-1.99-23.58c40.23-11.51,73.17-40.94,104.02-69.61c8.11,9.42,22.29,10.19,34.68,9.19
						c8.37-0.68,16.81-1.86,24.58-5.04c7.77-3.17,14.9-8.54,18.84-15.95c3.01-5.67,4.02-12.17,4.64-18.56
						c3.18-32.49-2.21-65.14-7.64-97.32c3.83,3.19,8.07,5.89,12.57,8.03c-1.39,12.6,6.37,24.26,13.78,34.78
						c14.68,20.82,29.36,41.64,44.04,62.46c16.64,23.59,36.37,49.18,64.91,53.54c28.19,4.31,56.54-13.95,84.51-8.36
						c9.82,1.97,18.82,6.77,27.54,11.7c2.84,1.6,5.79,3.26,9.05,3.44c6.19,0.34,11.22-4.62,16.77-7.4
						c12.99-6.52,28.96-0.95,42.99-4.76c8.61-2.34,17.18-8.23,25.68-5.52c3.49,1.11,6.67,3.64,10.33,3.44
						c2.72-0.14,5.1-1.8,7.43-3.22c15.82-9.68,36.8-10.25,53.13-1.46c12.38,6.66,23.42,18.56,37.45,17.67
						c7.5-0.48,14-4.61,19.8-9.61C912.36,578.03,916.56,594.55,921.19,610.81z"/>
					<path class="st165" d="M260.78,630.67c-0.7,3.02-1.95,6.11-4.34,7.69c-3.73,2.48-8.49,0.29-12.14-2.33
						c-6.57-4.69-12.36-10.75-17.02-17.78c4.05-1.62,8.06-3.12,12.12-4.42c0.63-0.21,1.25-0.41,1.88-0.6
						c5.57-1.69,10.37-3.02,15.62-5.01c0.85-0.32,1.72-0.67,2.59-1.03c0.14-0.06,0.28-0.12,0.42-0.18
						C261.74,614.88,262.6,622.9,260.78,630.67z"/>
					
						<ellipse transform="matrix(0.961 -0.2764 0.2764 0.961 -120.909 172.9517)" class="st165" cx="553.13" cy="515.43" rx="71" ry="14.5"/>
					<g>
						<path class="st2" d="M635.14,625.72c0.16,6.94-1.25,12.49-3.02,19.21c-1.77,6.72-15.55,20.38-21.74,23.54
							c-27.12,13.84-17.61,7.01-72.59,36.06c-12.39,6.55-30.02,13.99-44.15,17.49c-32.37,8-60.1,15.08-92.11,24.43
							c-17.2,5.02-35.34,10.17-52.47,17.28c-5.46,2.27-10.92,4.54-16.39,6.81c-5.3,2.2-10.74,4.49-14.84,8.51
							c-2,1.96-3.64,4.3-5.83,6.06c-3.35,2.71-7.68,3.83-11.43,5.95c-3.38,1.9-6.26,4.59-9.53,6.68
							c-5.74,3.65-12.47,5.32-19.07,6.94c-12.69,6.7-28.06,12.02-43.37,17.32c-7.83,2.7-15.66,5.41-23.48,8.12
							c-6.62,2.29-13.25,4.59-20.08,6.16c-2.79,0.66-5.66,1.18-8.51,0.94c-0.15-0.01-0.29-0.02-0.44-0.04
							c-0.18-0.02-0.36-0.04-0.54-0.07c-0.78-0.11-1.51-0.32-2.2-0.6c-1.59-0.66-2.92-1.75-3.96-3.17c-0.33-0.45-0.63-0.92-0.9-1.43
							c-1.32-2.44-0.87-6.15,1.03-8.23c0-0.01,0.01-0.01,0.01-0.01c0.28-0.31,0.6-0.58,0.95-0.81c-5.67,2.27-11.2,4.44-16.22,6.85
							c-1.08,0.52-2.93,1.23-4.63,1.81c-1.04,0.37-2.02,0.68-2.74,0.87c-3.46,0.92-5.74,1.07-8.98-0.45
							c-0.47-0.22-0.93-0.47-1.37-0.75c0,0,0,0-0.01-0.01c-0.1-0.06-0.2-0.12-0.29-0.19c-0.01-0.01-0.02-0.01-0.02-0.01
							c-1.64-1.06-3.02-2.5-3.83-4.26c-1.05-2.28-0.99-5.14,0.48-7.18c0.04-0.06,0.08-0.12,0.12-0.17c-2.79,1.38-7.68,3.46-11,2.89
							c-3.32-0.57-5.65-1.48-7.63-4.2c-0.22-0.31-0.44-0.76-0.64-1.27c-0.48-1.23-0.85-2.8-0.94-3.52
							c-0.15-1.16,0.87-3.71,1.24-4.51c2.42-5.3,6.35-8.02,10.9-11.65c-3.6-0.7-5.2-4.46-4.45-7.42c0.74-2.97,3.06-5.24,5.27-7.34
							c2.02-1.92,4.03-3.84,6.05-5.76c5.47-5.2,11.45-11.28,17.2-16.16c12.54-10.63,30.42-24.24,42.66-32.25
							c13.04-8.54,24.51-11.51,40.4-17.31c7.61-2.78,23.01-6.04,31.02-7.25c20.53-3.11,35.53,0.68,53.28-5.95
							c34.79-12.98,65.31-22.67,93.73-34.34c25.28-10.37,84.52-53.95,125.98-64.77c0.1-0.03,0.21-0.05,0.31-0.08
							c-1.59-2.06-3.14-4.15-4.67-6.27c-16.18-22.53-28.64-48.23-36.56-73.68l105.82-34.22c1.05,2.87,2.06,5.77,3.03,8.71
							c0.99,3,1.94,6.04,2.84,9.1c0.53,1.78,1.04,3.56,1.54,5.35c0.79,2.84,1.55,5.69,2.28,8.57c3.56,13.97,6.43,28.32,8.9,42.57
							c0.53,3.03,1.04,6.05,1.53,9.06c0.3,1.8,0.43,3.4,0.53,4.93c0.04,0.61,0.07,1.2,0.11,1.79c0.11,1.83,0.23,3.61,0.59,5.56
							c0.16,0.85,0.36,1.75,0.63,2.69c0.81,2.81,2.01,5.85,3.3,8.95c0.91,2.21,1.85,4.46,2.71,6.67c1.14,2.91,2.13,5.78,2.7,8.46
							C632.84,612.29,635.01,620.02,635.14,625.72z"/>
						<path class="st4" d="M622.31,579.95c-12.44-11.69-24.45-24.34-29.78-40.4c-4.42-13.29-3.7-28.22,1.97-41.04
							c0.76,2.71,2.3-3.68,7.26-5.19c0.73-0.22,1.48-0.31,2.23-0.3c7.82,23.73,12.98,49.52,17.09,74.65
							C621.85,572.39,621.54,575.76,622.31,579.95z"/>
						<path class="st5" d="M536.06,598.56c0.1-0.03,0.21-0.05,0.31-0.08c-1.59-2.06-3.14-4.15-4.67-6.27
							c0.93-5.8,0.66-11.4-0.2-16.9c4.17,6,10.29,10.62,17.2,13c8.24,2.82,17.48,2.53,25.2,6.58
							C561.37,596.79,548.73,598.02,536.06,598.56z"/>
						<path class="st3" d="M562.66,617.46c9.65-4.77,22.35-0.14,31.37-6.02c5.92-3.86,8.53-11.5,7.98-18.54
							c-0.43-5.5-3.23-11.48-8.55-12.94c-0.78-0.21-1.62-0.32-2.41-0.11c-2.58,0.7-3.07,4.04-3.57,6.67
							c-1.29,6.9-6.2,13.02-12.66,15.78c-2.88,1.23-6.02,1.83-8.78,3.32c-2.75,1.49-5.17,4.26-4.93,7.38
							C561.37,616.12,565.49,618.59,562.66,617.46z"/>
						<path class="st3" d="M183.56,822.15c11.35-5.27,22.7-10.55,34.05-15.82c3.21-1.49,6.44-2.99,9.46-4.83
							c6.31-3.84,11.74-9.17,18.5-12.17c1.94-0.86,5.02-0.95,5.35,1.15c0.18,1.19-0.78,2.21-1.69,2.99
							c-4.31,3.65-9.32,6.37-14.29,9.06c-15.37,8.32-30.9,16.71-47.76,21.32c-0.94,0.26-2.03,0.48-2.83-0.09
							C183.56,823.19,183.78,821.55,183.56,822.15z"/>
						<path class="st3" d="M145.74,815.93c9.9-5.63,19.8-11.26,29.7-16.9c5.68-3.23,11.39-6.48,17.55-8.66
							c6.38-2.26,13.35-3.44,18.74-7.54c3.37-2.57,6.16-6.27,10.27-7.28c0.49-0.12,1.04-0.18,1.44,0.12
							c0.83,0.62,0.18,1.92-0.52,2.67c-10.58,11.4-25.93,16.81-40.62,21.9c-3.71,1.28-7.45,2.59-10.77,4.69
							c-2.81,1.78-5.25,4.08-8.03,5.89c-4.63,3.01-10.03,4.56-15.34,6.06C147.37,817.11,146.15,817.08,145.74,815.93z"/>
						<path class="st3" d="M126.63,800.47c21.69-17.29,46.1-31.14,72.07-40.89c0.83-0.31,1.72-0.63,2.6-0.49s1.73,0.91,1.62,1.79
							c-0.1,0.84-0.94,1.37-1.69,1.76c-7.73,4.07-15.51,8.15-23.77,10.99c-3.94,1.35-8.01,2.43-11.66,4.44
							c-3.74,2.05-6.92,5-10.5,7.32c-5.33,3.45-11.52,5.46-16.62,9.24c-3.71,2.74-6.86,6.42-11.16,8.07
							C127.02,802.24,126.81,801.5,126.63,800.47z"/>
						<path class="st3" d="M156.16,759.36c10.03-8.68,20.28-17.09,30.74-25.24c2.45-1.91,5.3-3.91,8.37-3.45
							c-0.34,3.53-3.9,5.67-6.91,7.54c-10.25,6.37-18.27,15.76-28.07,22.79c-0.88,0.63-1.82,1.26-2.88,1.47
							c-1.07,0.21-2.31-0.12-2.88-1.04S154.44,759.02,156.16,759.36z"/>
						<path class="st3" d="M220.5,748.97c10.28-6.24,21.14-11.54,32.39-15.81c2.22-0.84,4.55-1.66,6.91-1.41
							c-5.33,5.15-12.12,8.46-18.78,11.68c-3.84,1.86-7.67,3.71-11.51,5.57c-3.15,1.53-6.7,3.09-10.04,2.04
							C219.52,750.35,219.71,749.45,220.5,748.97z"/>
						<path class="st3" d="M234.53,764.57c5.17-4.29,10.47-8.41,15.91-12.35c4.04-2.93,8.25-5.8,13.05-7.15
							c0.43-0.12,0.91-0.22,1.31-0.02c1.04,0.54,0.27,2.12-0.59,2.93c-9.25,8.75-19.51,16.89-31.61,20.86
							c-0.55,0.18-1.24,0.32-1.64-0.1c-0.3-0.31-0.29-0.8-0.21-1.22C231.08,765.93,232.23,764.53,234.53,764.57z"/>
						<path class="st3" d="M256.53,777.97c7.92-7.9,16.78-14.85,26.33-20.67c2.59-1.58,6.11-3.03,8.43-1.07
							c-0.29,1.68-1.74,2.89-3.09,3.93c-8.09,6.26-16.18,12.52-24.27,18.78c-2.01,1.55-4.4,3.2-6.87,2.61
							c-0.48-0.11-0.96-0.32-1.28-0.7c-0.62-0.72-0.48-1.86,0.05-2.65C256.36,777.43,257.21,776.92,256.53,777.97z"/>
						<path class="st3" d="M505.5,650.12c15.78-7.46,31.56-14.91,47.34-22.37c1.01-0.48,2.21-1.51,1.63-2.46
							c-0.19-0.31-0.52-0.49-0.86-0.62c-1.37-0.5-2.88-0.18-4.3,0.16c-17.39,4.14-34.29,10.32-50.26,18.37
							c-1.1,0.56-2.24,1.15-3,2.13c-0.76,0.97-1.04,2.44-0.31,3.44c0.47,0.65,1.27,0.99,2.04,1.2
							C500.69,650.79,504.04,650.81,505.5,650.12z"/>
						<path class="st3" d="M525.53,660.65c12.04-3.93,23.94-8.27,35.68-13.01c-2.45-2.68-6.81-1.8-10.26-0.66
							c-10.91,3.62-21.63,7.81-32.1,12.55c-0.62,0.28-1.34,0.76-1.22,1.42c0.09,0.49,0.62,0.77,1.09,0.93
							C521.44,662.81,524.54,662.49,525.53,660.65z"/>
						<path class="st3" d="M526.26,526.04c2.74,7.04,5.56,14.22,10.4,20.02c0.81,0.97,1.7,1.92,2.86,2.43
							c1.16,0.5,2.64,0.45,3.54-0.43c0.62-0.6,0.87-1.48,1.08-2.31c0.91-3.64,1.44-7.36,1.82-11.09c0.32-3.05,0.39-6.54-1.78-8.71
							c-1.9-1.9-4.86-2.11-7.54-2.2C532.96,523.62,528.67,523.77,526.26,526.04z"/>
						<path class="st4" d="M635.14,625.72c0.16,6.94-1.25,12.49-3.02,19.21c-1.77,6.72-15.55,20.38-21.74,23.54
							c-27.12,13.84-17.61,7.01-72.59,36.06c-12.39,6.55-30.02,13.99-44.15,17.49c-32.37,8-60.1,15.08-92.11,24.43
							c-17.2,5.02-35.34,10.17-52.47,17.28c-5.46,2.27-10.92,4.54-16.39,6.81c-5.3,2.2-10.74,4.49-14.84,8.51
							c-2,1.96-3.64,4.3-5.83,6.06c-3.35,2.71-7.68,3.83-11.43,5.95c-3.38,1.9-6.26,4.59-9.53,6.68
							c-5.74,3.65-12.47,5.32-19.07,6.94c-12.69,6.7-28.06,12.02-43.37,17.32c-7.83,2.7-15.66,5.41-23.48,8.12
							c-6.62,2.29-13.25,4.59-20.08,6.16c-2.79,0.66-5.66,1.18-8.51,0.94c0.11-0.12,0.23-0.23,0.35-0.34
							c4.92-4.59,10.83-8.12,17.21-10.26c3.57-1.2,7.29-1.98,10.78-3.4c2.29-0.94,4.46-2.15,6.78-3.03c3.53-1.35,7.3-1.9,10.96-2.86
							c6.56-1.73,12.68-4.79,18.75-7.83c1.28-0.65,2.57-1.29,3.85-1.93c4.2-2.11,8.48-4.27,11.85-7.54c0.87-0.84,1.71-1.77,2.8-2.28
							c1.1-0.51,2.58-0.47,3.34,0.47c3.69-3.33,5.77-8.2,9.66-11.28c2.23-1.76,4.92-2.82,7.51-3.99
							c10.6-4.78,20.17-11.86,27.84-20.6c3.34-1.74,6.19-4.21,9.04-6.68c3.96,2.55,10.44,4.44,12.32,0.13
							c0.83-1.89,0.12-4.1,0.45-6.14c0.33-2.04,3-3.93,4.32-2.34c1.38,1.68-0.74,5.05,1.19,6.05c0.69,0.35,1.52,0.1,2.25-0.15
							c28.77-10.1,56.44-23.33,82.35-39.39c2.32-1.44,4.74-2.94,7.45-3.26c4.86-0.56,9.97,2.76,14.46,0.82
							c2.61-1.12,4.54-3.89,7.38-4.03c1.85-0.08,3.51,1.01,5.27,1.61c4.58,1.55,9.68-0.4,13.52-3.35c3.84-2.95,6.85-6.84,10.53-9.99
							c1.14-0.98,2.45-1.92,3.96-1.99c1.97-0.08,3.65,1.34,5.52,1.94c4.17,1.35,8.45-1.45,11.85-4.21
							c9.17-7.43,17.66-15.7,25.33-24.67c2.85-0.18,4.91,2.52,6.75,4.71c1.84,2.18,5,4.22,7.33,2.57c1.5-1.06,1.78-3.11,2.24-4.89
							c2.4-9.26,12.01-14.56,21.03-17.77c9.01-3.2,18.96-5.78,25.08-13.13c0.51-0.61,1.01-1.33,0.91-2.12
							c-0.2-1.61-2.41-1.86-4.02-1.67c-9.87,1.14-19.74,2.28-29.61,3.42c-1.24-5.81,5.65-10.1,11.56-10.67
							c5.92-0.56,12.47,0.43,17.29-3.03c4.42-3.17,6.57-9.62,11.89-10.76c1.77-0.39,3.62-0.07,5.43-0.24
							c6.26-0.59,10.65-7.05,11.14-13.32c0.48-6.28-1.96-12.37-4.34-18.19c7.84,1.44,9.23,3.17,9.77,4.89
							c0.55,1.73,0.58,3.61,1.32,5.26c0.74,1.65,2.62,3.06,4.3,2.38c0.53-0.22,0.97-0.62,1.4-1.01c0.48-0.45,0.96-0.97,1.37-1.54
							c0.91,2.21,1.85,4.46,2.71,6.67c1.14,2.91,2.13,5.78,2.7,8.46C632.84,612.29,635.01,620.02,635.14,625.72z"/>
						<path class="st4" d="M120.68,819.4c4.25-1.07,6.98-6.16,5.52-10.29c1.04,2.77,5.85,2.7,6.81-0.1
							c0.52-1.53,0.24-3.69,1.73-4.32c0.97-0.42,2.2,0.17,3.12-0.35c0.88-0.5,1.05-1.8,1.93-2.31c0.95-0.55,2.15,0.08,3.23-0.06
							c1.51-0.2,2.37-1.78,3.55-2.75c2.64-2.18,7.24-1.49,9.07-4.38c0.82-1.29,1.03-3.22,2.48-3.68c1.45-0.46,2.94,1.01,4.43,0.68
							c0.92-0.21,1.54-1.05,2.18-1.74c1.32-1.41,3.05-2.36,4.74-3.29c2.16-1.18,4.33-2.37,6.49-3.55
							c12.71-6.95,25.42-13.91,38.14-20.86c4.21-2.3,8.66-4.67,13.46-4.64c1.4,2.58-0.84,5.59-3.05,7.53
							c-9.08,7.99-20.12,13.38-31.09,18.49c-11.42,5.31-22.95,10.44-33.96,16.55c-7.81,4.34-15.35,9.17-22.55,14.45
							C132.16,818.25,126.52,822.16,120.68,819.4z"/>
						<path class="st4" d="M241.74,783.89c-0.56,0.22-1.11,0.44-1.65,0.69c-12.16,5.32-21.56,16.1-34.09,20.6
							c-3.58,1.28-7.33,2.02-10.95,3.17c-4.42,1.42-8.61,3.45-12.76,5.52c-10.35,5.17-20.54,10.65-30.55,16.45
							c-0.7,0.4-1.4,0.81-2.11,1.2c-1.04,0.37-2.02,0.68-2.74,0.87c-3.46,0.92-5.74,1.07-8.98-0.45c-0.47-0.22-0.93-0.47-1.37-0.75
							c0,0,0,0-0.01-0.01c-0.1-0.06-0.2-0.12-0.29-0.19c0.28,0.11,0.56,0.22,0.85,0.3c2.31,0.71,4.88,0.51,7.1-0.47
							c1.63-0.7,3.06-1.82,4.07-3.28c0.74-1.06,1.29-2.3,2.33-3.07c1.03-0.77,2.36-0.95,3.54-1.44c2.01-0.84,3.5-2.54,5.27-3.82
							c5.53-4.01,13.72-3.82,18.2-8.97c0.87-1,1.57-2.17,2.65-2.93c1.13-0.8,2.54-1.04,3.89-1.33c8.73-1.84,16.93-6.12,23.42-12.24
							c0.82-0.77,1.65-1.6,2.72-1.94c1.12-0.36,2.33-0.15,3.51-0.16c5.13-0.03,9.12-4.18,13.27-7.19c4.04-2.92,8.72-4.95,13.62-5.89
							c1.75-0.34,4.14-0.16,4.57,1.58C245.71,781.96,243.5,783.2,241.74,783.89z"/>
						<path class="st4" d="M133.03,791.17c10.59-5.59,17.59-16.14,27.19-23.3c3.92-2.92,8.25-5.26,12.17-8.17
							c2.95-2.2,5.66-4.71,8.59-6.94c11.71-8.92,26.71-13.15,37.36-23.32c-2.65,4.7-5.31,9.4-7.96,14.1
							c-1.56,2.76-3.17,5.59-5.58,7.66c-2.7,2.32-6.16,3.51-9.51,4.73C176.94,762.63,159.52,771.89,133.03,791.17z"/>
						<path class="st4" d="M318.1,754.92c1.74-6.38,1.09-13.21-0.57-19.62s-4.32-12.5-6.66-18.69
							c10.42,8.96,17.18,22.04,18.47,35.72c0.25,2.7,0.08,5.88-2.13,7.44c-1.51,1.06-3.59,1-5.3,0.31
							C320.19,759.4,317.23,758.12,318.1,754.92z"/>
						<path class="st4" d="M180.66,830.26c-0.02,1.14-1.04,1.98-1.98,2.63c-1.19,0.85-2.39,1.69-3.58,2.53
							c-0.56,0.39-1.14,0.79-1.75,1.09c-1.59-0.66-2.92-1.75-3.96-3.17C173.3,833.09,177.16,832.03,180.66,830.26z"/>
						<g>
							<path class="st2" d="M376.34,772.61c-0.73,0.96-1.82,1.59-2.91,2.1c-4.47,2.11-9.63,2.73-15.06,1.56
								c-0.16-0.03-0.33-0.06-0.49-0.1c2.45,5.76,4.45,11.72,5.96,17.8c0.6,2.42,1.14,4.89,1.1,7.38c-0.01,0.38-0.03,0.76-0.06,1.14
								c-0.2,2.11-0.87,4.21-2.18,5.86c-1.47,1.85-3.62,3.04-5.84,3.85c-0.21,0.07-0.43,0.14-0.66,0.18
								c-0.23,0.05-0.47,0.07-0.72,0.05h-0.01c-0.07-0.01-0.13-0.01-0.2-0.03c-0.38-0.06-0.75-0.24-1.12-0.58
								c0.94,1.71,1.35,3.68,1.23,5.63v0.01c-0.11,1.94-0.75,3.85-1.87,5.43c-2.27,3.17-6.42,4.87-10.26,4.21
								c-2.59-0.45-4.78-1.81-6.8-3.59c-0.01,0-0.01,0-0.02-0.01c-1.57-1.38-3.03-3-4.47-4.65c0-0.01-0.01-0.01-0.01-0.02
								l-0.01-0.01c-0.31-0.35-0.62-0.7-0.92-1.05c0.13,0.4,0.22,0.81,0.26,1.22c0.07,0.5,0.07,1.01,0.01,1.52
								c-0.17,1.76-0.97,3.48-2.2,4.77c-1.88,1.96-4.61,2.98-7.32,3.1c-1.2,0.05-2.41-0.06-3.56-0.42
								c-1.19-0.37-2.27-0.99-3.29-1.73c-0.71-0.51-1.4-1.08-2.06-1.65c-4.17-3.6-7.96-7.63-11.52-12.32
								c-0.01-0.02-0.01-0.03-0.02-0.04c-0.42-0.55-0.84-1.12-1.25-1.69c0.03,0.43,0.05,0.85,0.03,1.28c0,0.07-0.01,0.15-0.01,0.22
								v0.01c-0.11,2.25-0.91,4.49-2.52,6.06c-2.93,2.86-7.66,2.76-11.44,1.07c0,0-0.01-0.01-0.02-0.01
								c-0.32-0.13-0.63-0.29-0.93-0.45c-3.9-2.11-6.85-5.57-10.19-8.48c-2.59-2.25-5.43-4.18-8.27-6.12l40.92-30.37l46.24-15.15
								l5.84-1.92l0.25-0.08c0.04,0.05,0.08,0.1,0.12,0.15c3.69,4.5,8.47,8.1,13.8,10.39c1.13,0.48,2.38,0.99,2.94,2.08
								C377.39,770.28,377.08,771.65,376.34,772.61z"/>
							<path class="st5" d="M376.34,772.61c-0.73,0.96-1.82,1.59-2.91,2.1c-4.47,2.11-9.63,2.73-15.06,1.56
								c-2.42-4.39-4.6-8.92-6.54-13.54c-0.26-0.63-0.52-1.33-0.29-1.97c0.17-0.49,0.59-0.84,0.99-1.16
								c0.43-0.35,0.88-0.69,1.35-1.01c1.79-1.26,3.79-2.25,5.84-1.92c0.12,0.01,0.25,0.03,0.37,0.07c3.69,4.5,8.47,8.1,13.8,10.39
								c1.13,0.48,2.38,0.99,2.94,2.08C377.39,770.28,377.08,771.65,376.34,772.61z"/>
							<path class="st5" d="M364.88,802.49c-0.2,2.11-0.87,4.21-2.18,5.86c-1.47,1.85-3.62,3.04-5.84,3.85
								c-0.41,0.15-0.89,0.27-1.38,0.23h-0.01c-1.49-1.26-2.7-2.75-3.56-4.1c3.3,0.27,6.6-0.92,9.34-2.78
								C362.56,804.66,363.76,803.62,364.88,802.49z"/>
							<path class="st4" d="M352.47,794.89c2.93-1.45,6.86-0.46,8.74,2.22c-0.36-1.33-1.52-2.32-2.79-2.82
								c-1.28-0.51-2.67-0.61-4.04-0.71C353.59,793.52,352.6,793.57,352.47,794.89z"/>
							<path class="st5" d="M355.38,817.46c-0.11,1.94-0.75,3.85-1.87,5.43c-2.27,3.17-6.42,4.87-10.26,4.21
								c-2.59-0.45-4.78-1.81-6.8-3.59c0.89,0.33,1.8,0.59,2.73,0.79c1.37,0.29,2.79,0.43,4.19,0.26c2.24-0.27,4.3-1.34,6.21-2.55
								C351.65,820.68,353.6,819.16,355.38,817.46z"/>
							<path class="st4" d="M300.07,810.53c0.03,0.43,0.05,0.85,0.03,1.28c-3.39-4.44-8.9-11.46-12.76-15.46l1.65-1.09
								c5.18,5.36,8.91,10.51,12.33,16.96C300.9,811.67,300.48,811.1,300.07,810.53z"/>
							<path class="st5" d="M331.29,820.51c-0.17,1.76-0.97,3.48-2.2,4.77c-1.88,1.96-4.61,2.98-7.32,3.1
								c-1.2,0.05-2.41-0.06-3.56-0.42c-1.19-0.37-2.27-0.99-3.29-1.73c2.68,0.3,5.46-0.19,7.87-1.4c3.13-1.57,5.63-4.35,6.85-7.63
								C330.26,818.27,330.81,819.37,331.29,820.51z"/>
							<path class="st4" d="M312.59,813.2c0.15-1.69,0.41-3.59,1.76-4.62c1.24-0.95,2.98-0.82,4.52-0.59
								c-1.12-0.5-2.37-1.01-3.55-0.66c-0.98,0.29-1.69,1.13-2.29,1.96C312.2,810.47,311.44,811.89,312.59,813.2z"/>
							<path class="st4" d="M338.96,815.93c-0.14-2.36,0.99-4.75,2.89-6.15c1.9-1.4,4.52-1.76,6.73-0.93
								c-1.13-0.89-2.67-1.25-4.07-0.95c-0.87,0.19-1.67,0.6-2.41,1.1c-1.11,0.74-2.11,1.68-2.75,2.86
								C338.72,813.04,338.48,814.46,338.96,815.93z"/>
							<path class="st5" d="M300.09,812.03v0.01c-0.11,2.25-0.91,4.49-2.52,6.06c-2.93,2.86-7.66,2.76-11.44,1.07
								c3.08,0.17,6.17-0.31,8.41-2.32c1.15-1.04,1.97-2.4,2.73-3.76c0.61-1.08,1.2-2.18,1.78-3.28
								C299.32,810.57,299.7,811.3,300.09,812.03z"/>
							<path class="st4" d="M331.02,817.77c0.13,0.4,0.22,0.81,0.26,1.22c-5.18-8.12-16.21-24.97-23.98-33.76l1.75-1.49
								c9.51,10.76,16.72,22.31,22.89,35.08C331.63,818.47,331.32,818.12,331.02,817.77z"/>
							<path class="st4" d="M355.27,812.4c-6.07-6.03-7.42-10.31-7.42-10.31c-5.1-8.98-12.03-22.32-18.67-32.25l2.5-0.67
								c6.72,10.06,12.49,21.7,17.64,32.65l6.88,10.56L355.27,812.4z"/>
						</g>
						<path class="st4" d="M508.22,521.74c3.86,16.87,11.94,33.13,24.84,44.66c12.9,11.54,30.95,17.85,47.95,14.57
							c-16.66-5.3-33-12.99-45.3-25.43s-20.05-30.23-17.3-47.5c-3.1,2.3-6.19,4.61-9.29,6.91c-0.9,0.67-1.82,1.36-2.35,2.35
							C505.54,519.61,506.91,522.4,508.22,521.74z"/>
						<path class="st5" d="M635.14,625.72c0.16,6.94-1.25,12.49-3.02,19.21c-1.77,6.72-15.55,20.38-21.74,23.54
							c-27.12,13.84-17.61,7.01-72.59,36.06c-12.39,6.55-30.02,13.99-44.15,17.49c-32.37,8-60.1,15.08-92.11,24.43
							c-17.2,5.02-35.34,10.17-52.47,17.28c-5.46,2.27-10.92,4.54-16.39,6.81c-5.3,2.2-10.74,4.49-14.84,8.51
							c-2,1.96-3.64,4.3-5.83,6.06c-3.35,2.71-7.68,3.83-11.43,5.95c-3.38,1.9-6.26,4.59-9.53,6.68
							c-5.74,3.65-12.47,5.32-19.07,6.94c-12.69,6.7-28.06,12.02-43.37,17.32c-7.83,2.7-15.66,5.41-23.48,8.12
							c-6.62,2.29-13.25,4.59-20.08,6.16c-2.93,0.69-5.96,1.23-8.95,0.9c0.05-0.02,0.1-0.04,0.15-0.06
							c4.25-1.71,8.5-3.41,12.74-5.11c2.55-1.03,5.1-2.05,7.66-3.03c5.05-1.94,10.14-3.74,15.24-5.54
							c10.24-3.61,20.48-7.22,30.72-10.84c5.72-2.43,12.02-6.14,18.23-10c3.44-2.15,6.89-4.38,9.58-7.41
							c2.05-2.31,3.63-5.05,5.96-7.08c4.52-3.98,11.03-4.62,16.4-7.35c5.47-2.78,9.55-7.61,14.13-11.69
							c4.58-4.09,10.35-7.65,16.44-6.96c2.33,0.27,4.89,1.1,6.86-0.16c0.77-0.49,1.33-1.24,2.01-1.84c1.78-1.53,4.23-1.9,6.52-2.37
							c6.7-1.39,13.09-4.23,18.62-8.27c4.3-1.67,9.37-5.04,14.78-7.76c7.34-3.69,15.23-6.15,23.08-8.59
							c24.78-7.71,49.57-15.43,74.36-23.14c3.35-3.47,9.7-5.42,16.18-5.96c6.07-0.51,13.03-0.15,17.17-4.6
							c0.85-0.92,1.52-1.99,2.43-2.85c1.1-1.04,2.49-1.7,3.85-2.35c3.68-1.76,7.36-3.51,11.03-5.26c4.06-1.94,8.22-3.9,12.7-4.29
							c2.24-0.2,4.58-0.01,6.64-0.93c1.75-0.79,3.06-2.29,4.22-3.81c2.27-2.96,4.18-6.19,5.68-9.6c1.2-2.7,2.19-5.59,4.18-7.78
							c1.83-2.01,4.35-3.25,6.81-4.43c8.36-4.03,16.71-8.06,25.06-12.09c1.2-1.06,3.21-2.1,5.01-3.41c1.8-1.3,3.49-3.02,3.89-5.21
							c0.4-2.19-1.02-4.79-3.24-4.93c-0.88-0.06-1.84,0.25-2.62-0.16c-1.67-0.88-0.56-3.42,0.71-4.83
							c3.96-4.39,8.28-8.94,13.99-10.47c1.81-0.48,3.7-0.64,5.45-1.29c5.27-1.95,8.11-7.97,8.08-13.59
							c-0.02-5.61-2.31-10.94-4.55-16.08c4.5,7.91,8.3,15.05,8.83,22.84c0.54,7.79-3.13,16.45-10.44,19.19
							c-1.49,0.56-3.11,0.88-4.4,1.82c-3.7,2.7-2.55,8.45-4.15,12.74c-1.74,4.66-6.58,7.24-10.87,9.75
							c-4.29,2.52-8.81,6.1-9.05,11.06c12.91,0.18,25.83-4.05,36.14-11.83c2.54-1.91,5.17-4.82,4.22-7.85
							c-1-3.17-5.43-4.42-6.06-7.68c-0.93-4.76,6.93-7.55,6.52-12.38c-0.07-0.76-0.35-1.49-0.39-2.25c-0.09-1.64,0.9-3.11,1.73-4.52
							c3.28-5.63,4.36-12.1,4.63-18.69c1.14,2.91,2.13,5.78,2.7,8.46C632.84,612.29,635.01,620.02,635.14,625.72z"/>
						<path class="st5" d="M240.13,785.03c-0.04,1.35-1.19,2.36-2.25,3.19c-3.58,2.83-7.17,5.66-10.75,8.49
							c-2.85,2.25-5.75,4.53-9.12,5.91c-2.65,1.08-5.51,1.56-8.22,2.51c-3.13,1.09-6.01,2.79-8.95,4.34
							c-10.13,5.36-21.12,9-31.31,14.2c0.28-0.31,0.6-0.58,0.95-0.81c-5.67,2.27-11.2,4.44-16.22,6.85
							c-1.08,0.52-2.93,1.23-4.63,1.81c-1.04,0.37-2.02,0.68-2.74,0.87c-3.46,0.92-5.74,1.07-8.98-0.45
							c-0.47-0.22-0.93-0.47-1.37-0.75c0.18,0.04,0.37,0.07,0.55,0.1c2.31,0.38,4.73,0.16,7.1-0.47c2.73-0.7,5.4-1.93,7.79-3.35
							c5.62-3.32,10.79-7.73,17.13-9.31c0.96-0.24,1.95-0.41,2.85-0.84c1.45-0.68,2.52-1.96,3.68-3.06
							c7.59-7.16,19.73-7.31,27.84-13.88c1.88-1.52,3.58-3.41,5.87-4.19c1.26-0.42,2.61-0.48,3.92-0.72
							c4.01-0.73,7.48-3.17,10.8-5.53c2.62-1.87,5.24-3.74,7.86-5.62c1.4-0.99,2.9-2.03,4.62-2.14c1.56-0.1,3.3,0.92,3.54,2.4
							C240.12,784.73,240.14,784.88,240.13,785.03z"/>
						<path class="st5" d="M220.24,763.3c-1.31,2.02-3.25,3.53-4.85,5.33c-1.6,1.79-2.92,4.13-2.52,6.5c0.14,0.83,0.46,1.75,0,2.44
							c-0.27,0.4-0.72,0.61-1.16,0.81c-6.91,3.07-13.93,5.88-21.04,8.44c-3.95,1.42-7.97,2.78-11.54,4.99
							c-2.44,1.51-4.63,3.39-6.99,5.02c-6.86,4.72-15.02,7.19-22.19,11.42c-5.74,3.39-10.8,7.87-16.65,11.06
							c-0.14,0.08-0.28,0.15-0.43,0.23c0.04-0.06,0.08-0.12,0.12-0.17c-2.79,1.38-7.68,3.46-11,2.89c-3.32-0.57-5.65-1.48-7.63-4.2
							c-0.22-0.31-0.44-0.76-0.64-1.27c4.4,3.37,10.82,2.16,16.23,0.63c2.02-0.57,4.3-1.42,4.99-3.39c0.22-0.65,0.25-1.37,0.6-1.95
							c0.27-0.45,0.71-0.77,1.13-1.08c6.85-4.98,14.09-9.44,21.62-13.31c3.94-2.03,7.99-3.92,11.52-6.59
							c3.19-2.41,5.91-5.43,9.22-7.69c3.95-2.71,8.58-4.22,13.04-5.97c8.14-3.2,15.93-7.32,23.16-12.24
							C216.74,764.17,218.43,763.05,220.24,763.3z"/>
						<path class="st5" d="M124.3,798.47c17.39-13.64,35.16-27.49,55.89-35.15c7.52-2.78,15.48-4.77,22.09-9.31
							c0.87-0.6,1.79-1.38,1.83-2.44c0.04-1.39-1.48-2.41-1.56-3.79c-0.04-0.7,0.29-1.45,0-2.09c-0.33-0.73-1.36-0.91-2.1-0.59
							c-0.74,0.32-1.27,0.98-1.79,1.6c-4.19,4.97-9.9,8.4-15.49,11.72c-3.57,2.13-7.15,4.25-10.72,6.38
							c-3.65,2.17-7.29,4.34-10.94,6.51c-6.79,4.04-13.6,8.1-19.71,13.11c-2.57,2.11-5.01,4.38-7.58,6.49
							C130.95,793.59,127.47,796.01,124.3,798.47z"/>
					</g>
					<path class="st131" d="M621.88,496.56c-8.91-5.25-18.45-4.21-28.15-3.86c-9.69,0.35-17.16,2.86-26.48,5.53
						c-15.84,4.54-33.02,9.62-48.52,15.21c-12.58,4.55-24.88,11.65-34.59,20.84c-7.28-22.55-17.01-49.43-26.13-70.95
						c-14.49-34.2-31.36-67.92-37.99-104.47c-5.4-29.76-2.93-62.43,11.78-88.29c14.93-8.34,30.53-14.7,46.73-17.04
						c16.6-0.89,33.26-0.65,49.83,0.7c10.27,15.32,18.59,31.94,24.69,49.34c3.03,8.64,5.52,17.46,8.09,26.25
						C577.75,386.64,598.06,442.37,621.88,496.56z"/>
					<path class="st133" d="M335.4,492.06c1.14,11.17-5.8,21.47-12.85,30.36c-19.48,24.52-42.24,46.57-67.55,65.4
						c-2.31-6.52-5.23-12.83-8.73-18.79c-0.73-1.23-1.67-2.97-2.3-4.16c-0.43-0.8-0.72-1.35-0.72-1.35s3.55-3.34,4.12-3.52
						c17.1-5.26,29.91-13.5,47.34-21.66c5.66-2.65,17.62-14.76,24.72-26.91c1.29-2.19,2.42-4.39,3.32-6.53
						c0.12-0.28,0.22-0.53,0.31-0.76c0.49-1.27,0.59-1.96,1-3.82c0.13-0.58,0.4-2.17,0.55-2.72c0.33-1.23,1.07-3.39,1.76-4.29
						c1.78-2.32,7.3-2.95,8.31-3.06c0.08-0.01,0.16-0.02,0.24-0.03C335.52,491.48,335.69,492.33,335.4,492.06z"/>
					<path class="st166" d="M481.62,299.37c5.24,47.36,17.81,93.9,37.13,137.45c5.97,13.47,12.89,27.06,24.13,36.59
						c1.75,1.49,3.77,2.93,6.07,2.97c6.07,0.11,7.78-8.3,7.03-14.32c-1.78-14.4-5.9-28.4-10.01-42.32
						c-6.06-20.54-12.11-41.07-18.22-61.59c-6.98-23.47-14.25-47.37-28.36-67.38c-1-1.42-2.07-2.85-3.58-3.71
						c-4.04-2.3-9.43,0.77-11.29,5.03C482.66,296.35,483.31,301.23,481.62,299.37z"/>
					<path class="st135" d="M319.43,511.43c-0.48,1.28-1.08,2.53-1.7,3.73c-5.12,9.93-11.82,19.35-21.08,25.61
						c-2.79,1.9-5.79,3.48-8.77,5.05c-8.99,4.75-18.06,9.53-27.81,12.42c-5.6,1.66-11.79,2.92-16.1,6.63
						c-0.43-0.8-0.72-1.35-0.72-1.35s3.55-3.34,4.12-3.52c17.1-5.26,29.91-13.5,47.34-21.66
						C300.37,535.69,312.33,523.58,319.43,511.43z"/>
					<g>
						<path class="st126" d="M1842.52,777.49c-3.68,6.12-9.84,12.08-16.9,10.99c-54.6-6.97-105.42-39.57-161.76-46.1
							c-21.73-2.51-43.75-1.07-65.55-2.44c0.81-0.11,1.63-0.22,2.44-0.33c-9.33-7.78-12.11-20.79-13.57-32.85
							c-0.26-2.13-0.49-4.26-0.7-6.4c-1.25-12.55-1.7-25.18-1.34-37.79c6.56-2.08,13.12-4.15,19.68-6.23
							c10.19-3.23,20.49-6.48,31.15-7.26c16.97-1.24,33.69,3.85,50.57,6c37.69,4.82,78.06-4.63,112.67,11.05
							c11.43,4.6,23.38,10.85,32.08,20.69c5.15,5.82,8.97,12.69,12.05,19.82C1853.06,729.17,1855.16,756.46,1842.52,777.49z"/>
						<path class="st129" d="M1623.67,680.41c19.97,5.65,40.33,10.18,61.01,11.98c6.84,0.6,13.71,0.89,20.56,1.39
							c18.36,1.34,36.82,4.18,53.85,11.18s32.63,18.48,42.14,34.24c3.55,5.89,8.14,13.37,14.93,12.28c6.79-1.09,8.87-9.93,8.2-16.78
							c-2.07-21.02-16.11-40.45-35.42-49.01c-4.83-2.14-9.93-3.64-15-5.13c-6.56-1.92-13.11-3.85-19.67-5.77
							c-28.77-8.44-59.3-16.92-88.29-9.27c-4.64,1.23-9.25,2.87-14.06,2.96c-4.23,0.08-8.41-1.06-12.63-1.05
							c-5.4,0.02-10.76,1.99-14.89,5.47c-1.5,1.27-2.95,3.04-2.62,4.98S1625.29,680.79,1623.67,680.41z"/>
					</g>
					<g>
						<path class="st126" d="M1949.42,536.04c-0.31,11.42-9.09,21.23-19.41,26.13c-5.85,2.77-12.27,4.31-18.74,4.47
							c-22.77,0.58-42.23-15.06-63.06-24.26c-44.94-19.86-96.95-9.62-145.58-16.93c-0.41-1.11-0.81-2.22-1.2-3.33
							c-1.69-4.75-3.31-9.53-4.85-14.33c-3.75-11.6-7.09-23.34-10.03-35.17c-0.79-3.2-1.56-6.44-1.99-9.71
							c4.22-2.98,8.63-5.81,12.09-9.6c3.16-3.45,5.42-7.61,8.34-11.27c6.87-8.63,17.45-14.19,28.45-14.97
							c12.25-0.87,24.24,3.94,34.88,10.09c10.63,6.15,20.44,13.73,31.42,19.24c14.84,7.44,31.65,10.92,48.23,9.98
							c6.4-0.37,12.84-1.37,19.18-0.46c6.08,0.87,11.77,3.46,17.24,6.26c17.47,8.93,33.69,20.3,48.05,33.67
							C1941.17,513.96,1949.74,524.13,1949.42,536.04z"/>
						<path class="st129" d="M1709.26,475.77c56.86,5.21,114.62,10.62,167.7,31.67c8.85,3.51,18,7.82,23.3,15.73
							c2.55,3.81,4.05,8.25,6.54,12.1c2.49,3.86,6.46,7.27,11.05,7.16c4.74-0.11,8.75-4.14,10.03-8.71
							c1.28-4.57,0.31-9.49-1.38-13.92c-5.72-15.03-19.29-25.98-34.11-32.22c-14.82-6.24-30.98-8.39-46.91-10.54
							c-27.88-3.77-57-8.22-79.71-24.83c-7.78-5.69-15.39-13.01-25.01-13.58c-3.62-0.21-7.23,0.58-10.72,1.57
							c-6.84,1.94-13.61,4.73-18.87,9.5c-5.27,4.77-9.06,11.81-8.17,18.86C1703.59,473.26,1706.01,475.32,1709.26,475.77z"/>
					</g>
				</g>
				<path class="st4" d="M98.26,571.41c6.03,1.39,16.22,4.06,21.71,7.35c4.58,2.74,9.31,5.59,14.21,7.66
					c1.52,0.64,3.11,1.23,4.66,1.8c1.07,0.4,2.16,0.8,3.23,1.23l1.95,2.46c-1.71-0.61-3.45-1.23-4.82-1.74
					c-1.56-0.58-15.99-6.46-20.66-9.25c-7.09-4.25-12.92-6.79-21.02-9.31"/>
			</g>
		</g>
	</g>
	<path class="st3" d="M180.95,523.39c-4.11-2.13-7.43-5.73-9.21-10c-1.41-3.37-1.78-7.5,0.29-10.51c-0.61,1.84-0.03,3.84,0.67,5.65
		C175.02,514.54,178.62,520.06,180.95,523.39z"/>
</g>
</svg>
