<svg width="2000" height="1040" viewBox="0 0 2000 1040" fill="none" xmlns="http://www.w3.org/2000/svg">
<rect width="2000" height="1040" fill="#9BAFBD"/>
<path d="M1963.23 521.119C1963.03 539.559 1962.21 558.172 1957.95 576.012C1949.57 611.292 1928.55 640.972 1908.05 669.545C1900.99 679.372 1877.53 689.598 1864.78 694.825C1863.66 695.278 1862.62 695.705 1861.67 696.078L1860.23 695.638C1812.25 685.958 1764.09 677.292 1715.79 669.665C1713.49 669.292 1711.17 668.932 1708.86 668.572C1650.05 659.385 1591.02 651.705 1531.89 645.545C1531.87 645.532 1531.87 645.532 1531.86 645.545C1506.39 642.892 1480.9 640.518 1455.38 638.438C1403.22 638.065 1347.77 631.638 1291.96 620.252C1265.69 614.905 1239.33 608.465 1213.21 601.038C1211.54 601.332 1209.86 601.612 1208.18 601.878C1173.34 607.665 1137.9 611.785 1102.37 615.652C1095.81 616.358 1089.24 617.052 1082.66 617.772C1052.58 620.998 1021.9 624.185 992.396 616.932C942.676 594.612 884.663 587.892 827.383 581.372C780.823 576.052 734.276 570.772 687.716 565.452C685.85 565.238 683.97 565.025 682.103 564.812C680.903 564.785 679.73 564.772 678.543 564.772C651.437 564.692 623.757 570.079 596.663 578.025C575.997 589.398 549.157 593.812 523.424 592.705C497.677 591.625 472.357 585.465 446.797 581.812C412.13 576.838 376.917 576.438 342.171 580.625C313.144 584.932 280.584 590.305 249.611 581.772C233.757 577.412 218.757 569.518 202.717 566.198C185.744 562.678 168.131 564.385 151.211 560.679C141.238 558.492 131.104 553.665 123.784 546.252C118.651 541.065 114.918 534.612 113.598 526.919C113.158 519.119 118.984 512.252 125.664 509.705C132.331 507.172 139.611 508.039 146.611 509.145C155.878 510.625 165.078 512.519 174.198 514.799C179.544 516.132 184.851 517.612 190.117 519.225C192.944 520.092 195.757 520.999 198.571 521.932C200.011 522.425 201.757 522.772 203.264 522.599C204.064 522.505 204.797 522.265 205.384 521.825C205.904 521.465 206.291 520.932 206.544 520.225C206.891 519.199 206.784 518.225 206.344 517.359C205.731 516.105 204.477 515.052 203.077 514.252C202.291 513.812 201.451 513.465 200.677 513.199C196.037 511.652 191.384 510.119 187.491 508.759C177.944 506.785 168.278 505.599 158.584 505.252C155.744 505.159 152.904 505.132 150.104 504.625C147.411 504.132 144.784 503.225 142.211 502.239C138.478 500.839 134.798 499.305 131.144 497.625C126.518 495.505 121.464 492.545 120.171 487.199C119.691 485.239 119.811 483.159 120.064 481.145C120.451 478.185 121.184 475.212 122.571 472.639C126.264 465.745 134.078 462.665 141.291 462.999C148.504 463.345 155.344 466.519 161.638 469.079C164.278 470.385 166.904 471.692 169.531 472.999H169.544C170.198 473.319 170.851 473.652 171.504 473.972C173.438 474.932 175.398 475.905 177.504 476.265C179.224 476.545 180.957 476.399 182.691 476.332C183.677 476.292 184.677 476.265 185.664 476.265C185.664 476.265 185.664 476.265 185.677 476.265C191.931 476.265 198.184 477.145 204.237 478.852C207.157 479.679 210.077 480.692 213.077 480.479C213.197 480.465 213.344 480.452 213.464 480.425C213.624 480.385 213.784 480.319 213.891 480.172C213.944 480.119 213.984 480.065 213.997 479.999C214.131 479.759 214.104 479.505 213.944 479.265V479.252C213.877 479.119 213.784 478.985 213.651 478.879C213.371 478.585 212.984 478.345 212.637 478.225C207.851 476.705 202.984 475.492 198.064 474.612C189.357 473.052 180.517 472.505 171.811 470.999C171.478 470.945 171.158 470.892 170.824 470.812C170.824 470.812 170.824 470.812 170.811 470.812C168.584 470.412 166.358 469.932 164.144 469.345C158.064 467.745 152.171 465.399 146.904 461.705C145.598 460.799 144.318 459.785 143.358 458.439C141.998 456.519 141.438 454.065 141.024 451.665C140.664 449.545 140.371 447.399 140.584 445.252C141.078 439.972 144.531 435.425 148.771 432.985C153.024 430.532 157.958 429.959 162.731 430.225C164.144 430.305 165.571 430.465 167.051 430.825C168.104 431.079 169.184 431.425 170.318 431.919C170.171 431.785 170.024 431.625 169.878 431.479C166.904 428.212 165.784 422.972 167.211 418.599C169.091 412.785 174.718 409.399 180.224 408.385C182.117 408.039 184.024 407.919 185.931 407.972C189.504 408.039 193.077 408.705 196.717 409.639C199.491 410.359 202.291 411.225 205.117 412.105C204.744 411.985 204.397 411.772 204.131 411.505C203.797 411.212 203.544 410.839 203.331 410.425V410.412C202.664 409.065 202.531 407.172 202.624 405.545C202.797 402.719 203.237 399.812 204.611 397.412C206.717 393.705 210.664 391.839 214.504 390.852C215.184 390.679 215.864 390.532 216.544 390.412C219.637 389.812 222.797 389.599 225.944 389.545C226.437 389.532 226.931 389.532 227.437 389.532C231.424 389.519 235.437 389.705 239.357 390.532H239.371C239.491 390.559 239.637 390.586 239.757 390.612C242.597 391.239 245.371 392.212 248.237 392.772C251.757 393.466 255.371 393.532 258.944 393.719C259.171 393.732 259.384 393.745 259.611 393.759C270.984 394.385 282.304 396.239 292.837 399.545C340.317 400.905 385.784 419.412 431.917 431.892C435.17 432.772 438.437 433.612 441.73 434.305C443.357 434.639 444.97 434.932 446.61 435.172C447.584 435.305 448.544 435.425 449.517 435.519H449.53C457.05 436.292 464.57 435.959 471.53 435.585C486.384 439.585 501.45 443.585 516.73 443.199C526.41 442.959 535.983 440.959 545.663 440.839C567.397 440.559 588.597 449.785 609.357 449.479C610.623 449.465 611.89 449.412 613.157 449.332C697.77 455.559 781.01 434.079 864.543 415.772C864.583 415.759 864.61 415.759 864.65 415.745C895.503 409.012 926.409 402.679 957.436 398.332C989.049 397.505 1020.01 388.546 1051.52 385.466C1086.05 382.079 1120.61 385.825 1155.09 390.825C1155.1 390.825 1155.1 390.825 1155.12 390.825H1155.13C1169.66 392.932 1184.16 395.252 1198.65 397.359C1199.42 397.479 1200.22 397.599 1201 397.705C1222.04 400.732 1243.13 403.265 1264.25 405.265C1275.56 406.345 1286.86 407.292 1298.18 408.079C1332.4 410.492 1366.61 411.545 1400.66 411.292C1405.89 411.252 1411.1 411.185 1416.33 411.079C1465.5 400.585 1514.74 390.065 1562.95 375.132C1596.22 364.826 1629.03 352.412 1663.03 345.826C1679.95 342.559 1697.06 340.732 1714.17 339.092C1767.01 334.026 1819.99 330.666 1872.67 328.626C1876.71 329.626 1880.71 330.639 1884.75 331.652H1884.77C1893.97 333.946 1903.18 336.239 1912.38 338.546C1916.09 339.479 1919.85 340.426 1923.21 342.386C1927.87 345.106 1931.46 349.612 1934.61 354.292C1954.14 383.399 1959.34 421.132 1961.63 457.305C1962.91 478.492 1963.46 499.812 1963.23 521.119Z" fill="#728694"/>
<path d="M1178.97 476.439C1176.5 466.879 1167.9 460.492 1159.09 458.559C1150.28 456.626 1141.18 458.306 1132.33 459.986C1054.89 474.706 977.463 489.412 900.023 504.132C976.503 519.692 1054.93 488.332 1132.44 495.332C1142.04 496.199 1151.9 497.625 1161.16 494.679C1170.41 491.732 1180.58 482.692 1178.97 476.439Z" fill="#728694"/>
<path d="M1515.66 481.305C1488.09 490.852 1461.8 504.865 1437.86 522.772C1430.2 528.518 1422.24 534.865 1413 535.638C1403.76 536.412 1393.29 528.678 1394.2 518.478C1394.88 510.785 1401.29 505.505 1407.18 501.358C1414.04 496.518 1421.02 491.812 1428.62 488.625C1436.36 485.385 1444.56 483.798 1452.69 482.225C1466.2 479.625 1479.7 477.012 1493.21 474.412C1497.22 473.638 1501.52 472.905 1505.22 474.772C1508.93 476.638 1511.33 482.278 1515.66 481.305Z" fill="#728694"/>
<path d="M1667.9 537.665C1613.52 549.172 1559.5 562.785 1505.98 578.492C1500.9 579.985 1495.1 582.185 1493.32 587.665C1490.29 596.945 1501.21 604.158 1510.05 605.438C1546.24 610.692 1581.06 589.878 1617.24 584.558C1638.21 581.478 1659.56 583.638 1680.58 581.118C1691.57 579.798 1705.3 573.198 1704.1 561.038C1703.48 554.665 1698.64 549.852 1693.7 546.478C1682.12 538.572 1668.09 535.132 1667.9 537.665Z" fill="#728694"/>
<path d="M1324.05 596.545C1295.18 585.518 1267.33 571.292 1241.01 554.132C1223.2 542.518 1204.58 529.092 1183.93 530.065C1182.65 530.132 1181.29 530.278 1180.28 531.132C1177.24 533.705 1179.93 539.038 1182.89 541.718C1194.93 552.598 1210.36 557.438 1224.9 563.478C1259.21 577.732 1291.9 600.265 1328.52 602.105C1328.32 599.065 1326.04 596.345 1324.05 596.545Z" fill="#728694"/>
<path d="M484.264 476.425C463.438 472.372 442.718 482.532 423.558 492.452C409.758 499.585 395.971 506.732 382.171 513.865C377.718 516.172 372.798 519.039 371.371 524.265C383.691 529.639 397.398 523.345 409.398 517.159C420.491 511.439 431.571 505.719 442.664 500.012C447.771 497.372 452.931 494.719 458.411 493.279C467.398 490.905 476.998 491.839 485.704 488.425C488.384 487.372 491.198 485.572 491.891 482.519C492.638 479.185 490.344 475.745 487.491 474.372C484.651 472.972 481.411 473.145 484.264 476.425Z" fill="#728694"/>
<path d="M297.77 498.972C264.983 502.345 231.543 497.839 200.437 485.879C198.13 484.999 195.117 484.279 193.637 486.412C192.503 488.052 193.09 490.559 194.41 491.999C195.743 493.439 197.597 494.092 199.37 494.679C225.33 503.372 252.277 512.172 279.17 508.199C285.463 507.265 292.063 505.399 297.77 498.972Z" fill="#728694"/>
<path d="M215.291 539.465C209.785 537.345 204.278 535.212 198.771 533.092C197.065 532.439 195.278 531.772 193.505 532.105C189.078 532.945 187.518 539.012 187.078 543.959C186.945 545.399 186.865 546.972 187.558 548.198C188.131 549.198 189.118 549.785 190.078 550.305C197.691 554.439 206.011 556.959 214.451 557.692C216.225 557.852 218.225 557.825 219.478 556.439C220.785 554.999 220.745 552.665 220.371 550.665C219.345 545.319 216.651 539.999 215.291 539.465Z" fill="#728694"/>
<path d="M123.649 517.879C131.263 518.505 138.876 519.145 146.489 519.772C148.809 519.959 151.476 520.385 152.662 522.599C153.182 523.559 153.316 524.692 153.422 525.799C153.636 527.959 153.742 530.239 152.982 532.238C152.476 533.558 151.609 534.679 150.636 535.625C147.049 539.145 142.116 540.505 137.329 540.759C132.543 541.012 127.769 540.278 122.983 540.158C122.263 532.772 122.423 525.279 123.649 517.879Z" fill="#728694"/>
<path d="M144.252 476.052C144.292 479.118 143.719 482.265 142.212 484.838C140.705 487.412 138.132 489.318 135.372 489.425C133.799 489.492 132.252 488.985 130.759 488.438C128.932 487.785 126.959 486.905 126.105 485.012C125.439 483.558 125.599 481.825 125.825 480.212C126.199 477.532 126.719 474.878 127.385 472.265C127.705 470.972 128.132 469.598 129.145 468.865C129.919 468.305 130.879 468.238 131.785 468.212C135.039 468.078 138.519 468.252 141.212 470.305C143.892 472.332 145.252 476.878 144.252 476.052Z" fill="#728694"/>
<path d="M228.156 457.865C223.902 454.918 219.329 452.532 214.569 450.785C210.569 449.318 206.129 448.305 202.209 450.052C198.289 451.798 195.542 457.252 197.622 461.305C199.276 464.505 202.956 465.478 206.222 466.132C215.276 467.958 224.436 469.798 233.622 469.172C235.076 469.078 236.782 468.718 237.396 467.265C237.956 465.945 237.302 464.385 236.516 463.198C234.022 459.398 230.022 456.852 228.156 457.865Z" fill="#728694"/>
<path d="M250.702 434.479C246.516 432.239 242.329 429.999 238.129 427.745C234.463 425.772 230.689 423.785 226.636 423.319C224.463 423.079 222.183 423.305 220.289 424.492C218.396 425.679 216.956 427.959 217.049 430.372C217.143 432.665 218.583 434.692 220.356 435.905C222.129 437.119 224.196 437.612 226.249 438.039C233.529 439.532 240.969 440.105 248.356 439.772C249.222 439.732 250.156 439.652 250.822 439.025C251.702 438.185 251.756 436.639 251.276 435.479C250.769 434.305 249.849 433.439 250.702 434.479Z" fill="#728694"/>
<path d="M184.635 413.052C185.635 415.345 185.649 418.145 184.662 420.452C183.675 422.759 181.715 424.519 179.475 425.105C178.155 425.452 176.782 425.412 175.435 425.292C173.729 425.132 171.862 424.745 170.782 423.265C170.222 422.492 169.942 421.505 169.822 420.519C169.382 416.745 171.315 412.772 174.409 411.132C177.502 409.492 182.889 409.052 184.635 413.052Z" fill="#728694"/>
<path d="M180.329 445.265C178.303 443.572 175.636 441.799 173.396 443.119C172.356 443.732 171.676 444.905 171.063 446.025C169.849 448.212 168.609 450.465 168.289 452.999C167.863 456.252 169.396 459.985 172.236 460.932C175.329 461.959 178.623 459.319 179.876 456.025C181.129 452.732 180.849 449.025 180.329 445.265Z" fill="#728694"/>
<path d="M163.825 481.118C161.892 480.159 159.958 479.212 158.038 478.252C157.558 478.012 157.025 477.772 156.532 477.945C156.158 478.065 155.878 478.385 155.625 478.719C152.692 482.599 152.678 488.158 152.825 493.212C152.838 493.705 152.865 494.252 153.145 494.638C153.358 494.932 153.678 495.092 153.998 495.225C157.718 496.785 162.345 495.532 164.718 491.998C167.092 488.465 166.825 482.598 163.825 481.118Z" fill="#728694"/>
<path d="M315.332 415.292C307.598 415.065 299.745 414.812 292.372 412.225C287.399 410.479 282.759 407.719 277.772 405.999C268.025 402.652 257.572 403.465 247.399 404.332C246.359 406.412 248.879 408.412 250.919 409.159C269.812 416.012 289.345 420.679 309.118 423.052C311.612 423.345 314.345 423.545 316.398 421.959C318.465 420.372 318.998 415.412 315.332 415.292Z" fill="#728694"/>
<path d="M1484.33 630.772C1472.99 624.718 1460.11 623.038 1448.59 617.438C1437.07 611.838 1426.27 600.092 1427.3 586.198C1428.41 571.358 1441.79 562.012 1453.69 555.065C1480.17 539.585 1506.63 524.119 1533.11 508.639C1494.94 512.692 1457.63 526.292 1424.74 548.118C1413.62 555.505 1400.38 564.105 1388.58 558.158C1385.39 556.545 1382.66 553.972 1379.41 552.532C1372.49 549.465 1363.78 552.665 1359.87 559.692C1355.97 566.718 1357.33 576.772 1362.93 582.225C1357.02 586.172 1349.73 587.478 1342.98 585.812C1353.45 596.892 1364.25 608.212 1377.67 614.238C1386.66 618.265 1396.38 619.718 1405.98 621.132C1431.19 624.838 1456.39 628.545 1484.33 630.772Z" fill="#728694"/>
<path d="M1291.94 620.238C1265.67 614.892 1239.31 608.452 1213.19 601.025C1211.53 601.318 1209.85 601.598 1208.17 601.865C1207.83 601.652 1207.51 601.452 1207.18 601.252C1202.71 598.665 1197.67 597.625 1192.94 595.745C1183.18 591.865 1174.93 584.545 1165.91 578.852C1144.79 565.505 1120.11 561.452 1095.93 558.052C1094.82 557.878 1093.73 557.732 1092.62 557.585C1095.91 556.852 1099.22 556.345 1102.54 556.065C1122.99 554.372 1143.75 561.012 1163.03 569.425C1185.42 579.212 1207.15 591.558 1230.77 596.812C1245.93 600.212 1261.98 600.732 1275.74 608.532C1281.37 611.732 1286.62 616.145 1291.94 620.238Z" fill="#728694"/>
<path d="M1399.16 425.852C1397.29 427.852 1394.78 428.919 1392.34 429.906C1372.61 437.892 1352.32 444.159 1331.7 448.665C1330.58 448.919 1329.45 449.159 1328.32 449.385C1320.18 451.079 1311.52 452.746 1305.37 458.852C1302.66 461.505 1300.46 464.999 1297.13 466.519C1293.53 468.145 1289.45 467.132 1285.58 467.479C1275.81 468.345 1268.16 478.359 1266.32 489.025C1264.46 499.705 1267.29 510.705 1271.26 520.652C1279.48 541.252 1293.81 560.132 1313.22 566.852C1324.17 570.639 1336.01 570.345 1346.97 574.119C1352.16 575.905 1357.3 579.079 1361.22 583.279C1365.6 587.945 1368.46 593.879 1368.21 600.572C1361.1 596.545 1353.7 592.559 1346.04 589.012C1336.1 584.439 1325.72 580.625 1314.94 578.519C1308.65 577.292 1302.12 576.625 1296.38 573.505C1294.76 572.625 1293.25 571.572 1291.78 570.412L1291.77 570.399C1288.8 568.065 1286.06 565.319 1283.18 562.785L1283.17 562.772C1281.66 561.439 1280.12 560.159 1278.48 559.025C1278.14 558.799 1277.82 558.585 1277.49 558.372C1277.48 558.372 1277.48 558.372 1277.48 558.359C1272.42 555.145 1266.69 553.225 1261.06 551.172C1254.28 548.679 1247.66 545.972 1242.68 540.452C1232.72 529.425 1234.08 508.639 1245.38 499.319C1248.81 496.492 1253.13 494.385 1254.88 490.065C1258.06 482.185 1249.6 473.705 1241.81 473.905C1234.01 474.092 1227.21 479.345 1220.14 482.985C1213.08 486.599 1203.84 488.305 1198.17 482.372C1208.46 468.439 1220.5 456.105 1233.86 445.839C1247.42 435.412 1262.26 427.159 1276.6 418.386C1279.68 416.332 1282.85 414.519 1286.09 412.932C1290 410.999 1294.02 409.386 1298.13 408.052C1332.34 410.466 1366.56 411.519 1400.61 411.266C1402.7 416.159 1402.61 422.132 1399.16 425.852Z" fill="#728694"/>
<path d="M1371.89 574.412C1359.07 568.932 1346.95 561.452 1335.99 552.265C1331.34 548.372 1326.58 543.545 1325.85 537.132C1324.79 527.892 1332.43 520.265 1334.21 511.159C1336.55 499.052 1328.22 486.146 1332.15 474.546C1334.18 468.572 1339.54 464.172 1345.29 463.759C1351.03 463.346 1356.86 466.946 1359.57 472.572C1363.13 479.986 1361.22 488.986 1360.17 497.305C1357.51 518.279 1361.18 540.185 1370.45 558.719C1371.85 561.519 1373.41 564.412 1373.46 567.612C1373.47 570.799 1371.26 574.292 1371.89 574.412Z" fill="#728694"/>
<path d="M1102.36 615.638C1095.8 616.345 1089.22 617.038 1082.65 617.758C1052.57 620.985 1021.89 624.172 992.382 616.918C942.662 594.598 884.649 587.878 827.369 581.358C780.809 576.038 734.263 570.758 687.703 565.438C685.836 565.225 683.956 565.012 682.089 564.798C680.889 564.772 679.716 564.758 678.529 564.758C680.503 564.372 682.476 563.985 684.449 563.585C739.436 552.958 795.649 550.092 851.262 555.105C822.676 558.092 794.076 561.078 765.489 564.065C806.396 566.772 847.396 569.492 887.769 577.198C959.329 590.878 1029.88 620.265 1102.26 613.865C1102.36 614.465 1102.38 615.065 1102.36 615.638Z" fill="#728694"/>
<path d="M1264.18 405.225C1260.56 407.812 1256.81 410.145 1252.9 412.199C1252.9 412.199 1252.89 412.199 1252.88 412.199C1223.45 427.839 1187.05 429.492 1153.44 429.879C1131.42 430.132 1109.41 430.385 1087.42 430.625C1091.84 435.385 1096.25 440.145 1100.65 444.905C1060.5 456.265 1018.94 459.905 977.718 464.545C899.211 473.385 821.038 485.905 740.012 502.065C801.292 484.345 862.572 466.639 923.851 448.932C922.358 443.332 915.958 441.785 910.705 441.559C890.451 440.652 868.171 444.239 849.571 437.932C843.398 435.852 837.638 432.679 832.505 427.905C843.158 423.839 853.838 419.785 864.491 415.732C864.531 415.719 864.558 415.719 864.598 415.705C895.451 408.972 926.358 402.639 957.385 398.292C988.998 397.465 1019.96 388.506 1051.46 385.426C1086 382.039 1120.56 385.786 1155.04 390.785C1155.05 390.785 1155.05 390.785 1155.06 390.785H1155.08C1169.61 392.892 1184.1 395.212 1198.6 397.319C1199.37 397.439 1200.17 397.559 1200.94 397.665C1221.97 400.692 1243.06 403.225 1264.18 405.225Z" fill="#728694"/>
<path d="M687.706 565.439C685.839 565.225 683.959 565.012 682.092 564.799C680.892 564.772 679.719 564.759 678.532 564.759C651.426 564.679 623.746 570.065 596.652 578.012C575.986 589.385 549.146 593.798 523.413 592.692C497.666 591.612 472.346 585.452 446.786 581.798C412.12 576.825 376.906 576.425 342.16 580.612C313.133 584.918 280.573 590.292 249.6 581.758C233.747 577.398 218.747 569.505 202.707 566.185C185.733 562.665 168.12 564.372 151.2 560.665C141.227 558.479 131.093 553.652 123.773 546.239C157.507 561.638 198.587 554.092 234.067 567.065C242.467 570.145 250.627 574.385 259.387 575.692C264.773 576.505 270.24 576.185 275.666 575.838C310.933 573.705 346.213 571.572 379.626 567.985C402.786 563.292 426.96 558.665 449.533 566.065C461.573 570.012 472.919 577.358 485.466 578.132C499.279 578.998 512.786 571.759 526.573 572.985C535.213 573.745 543.373 577.798 551.999 578.625C562.586 579.625 572.973 575.745 583.146 572.412C602.399 566.132 622.146 561.745 642.092 559.305C656.332 557.572 671.759 557.159 684.492 563.599C685.546 564.159 686.639 564.772 687.706 565.439Z" fill="#728694"/>
<path d="M609.356 449.879C609.503 451.799 608.209 453.145 606.583 454.052C605.676 454.559 604.689 454.919 603.756 455.145C579.729 461.372 554.889 462.292 530.236 463.159C508.449 463.959 484.609 464.012 467.609 448.892C458.623 452.439 448.716 449.959 439.17 450.012C412.21 450.145 388.983 470.319 363.09 478.599C359.69 479.679 354.356 478.799 354.943 474.945C355.263 472.865 357.303 471.812 359.076 471.105C384.276 460.945 409.476 450.785 434.703 440.625C435.25 440.399 435.81 440.185 436.356 439.959C440.636 438.239 444.996 436.745 449.436 435.479H449.45C456.97 436.252 464.49 435.919 471.449 435.545C486.303 439.545 501.369 443.545 516.649 443.159C526.329 442.919 535.903 440.919 545.583 440.799C567.316 440.519 588.516 449.745 609.276 449.439C609.329 449.585 609.343 449.732 609.356 449.879Z" fill="#728694"/>
<path d="M245.559 421.265C275.959 428.225 306.652 433.559 337.505 437.239C348.025 438.492 358.919 439.505 368.932 435.759C361.452 440.879 352.879 444.052 344.119 444.972C336.919 445.732 329.665 444.972 322.452 444.225C293.505 441.212 263.212 437.665 239.105 419.679C240.639 419.292 241.625 420.359 245.559 421.265Z" fill="#728694"/>
<path d="M227.197 448.705C266.144 442.745 304.557 462.665 343.85 464.025C316.33 464.132 288.797 462.812 261.384 460.065C250.637 458.985 238.837 457.105 227.197 448.705Z" fill="#728694"/>
<path d="M213.892 479.239C213.825 479.105 213.732 478.972 213.598 478.865C222.905 477.825 232.332 479.625 241.638 480.999C258.918 483.545 276.385 484.585 293.812 484.145C268.492 494.625 239.465 493.585 213.398 480.412C213.558 480.372 213.718 480.305 213.825 480.159C213.878 480.105 213.918 480.052 213.932 479.985L213.892 479.239Z" fill="#728694"/>
<path d="M321.145 531.052C297.279 533.065 273.399 535.078 249.532 537.092C244.586 537.505 239.586 537.932 234.679 537.158C226.706 535.918 219.412 531.678 212.292 527.478C210.839 526.625 209.199 525.545 207.799 524.358C206.812 523.518 205.932 522.652 205.346 521.772C205.866 521.412 206.252 520.878 206.506 520.172C206.852 519.145 206.746 518.172 206.306 517.305C207.879 516.372 209.586 515.812 211.346 515.572C214.759 515.052 218.386 515.665 221.692 516.852C226.759 518.678 231.386 521.705 236.292 523.958C262.679 536.065 293.212 524.558 321.145 531.052Z" fill="#728694"/>
<path d="M220.45 402.079C220.783 398.852 220.343 395.412 218.637 392.785C218.037 391.852 217.29 391.065 216.477 390.372C219.57 389.772 222.73 389.559 225.877 389.505C224.357 397.199 221.703 404.639 218.05 411.399C219.09 408.372 220.117 405.292 220.45 402.079Z" fill="#728694"/>
<path d="M259.556 393.732C255.036 397.079 250.516 400.439 245.996 403.799C245.156 398.719 242.743 393.999 239.303 390.505C239.423 390.532 239.569 390.559 239.689 390.585C242.529 391.212 245.303 392.185 248.169 392.745C251.689 393.439 255.303 393.505 258.876 393.692C259.116 393.705 259.329 393.719 259.556 393.732Z" fill="#728694"/>
<path d="M196.677 409.612C196.45 409.852 196.183 410.065 195.943 410.292C194.477 411.612 193.423 413.439 192.423 415.239C189.837 419.825 187.263 424.425 184.663 429.012C184.357 424.172 188.357 420.065 188.437 415.185C188.477 412.532 187.33 410.119 185.89 407.932C189.45 408.012 193.037 408.679 196.677 409.612Z" fill="#728694"/>
<path d="M204.877 409.639C205.957 416.919 206.943 424.826 203.717 431.279C205.863 426.079 209.837 421.852 214.61 419.666C216.877 418.626 219.397 417.986 221.17 416.106C216.103 412.879 210.41 410.866 204.877 409.639Z" fill="#728694"/>
<path d="M160.145 436.079C164.211 440.879 164.251 449.199 160.225 454.039C163.131 451.305 165.865 447.852 166.291 443.652C166.705 439.465 163.798 434.705 160.145 436.079Z" fill="#728694"/>
<path d="M182.41 435.199C183.756 438.679 187.53 441.039 187.463 444.825C187.436 446.052 186.983 447.212 186.543 448.345C184.796 452.719 182.996 457.079 181.156 461.399C185.356 460.265 188.903 456.479 190.09 451.879C190.49 450.319 190.636 448.692 191.103 447.159C192.303 443.159 195.396 440.292 198.356 437.639C195.93 433.945 191.023 434.052 186.93 434.545C185.53 434.705 184.13 434.865 182.41 435.199Z" fill="#728694"/>
<path d="M170.772 470.785C168.545 470.385 166.319 469.905 164.105 469.319C165.759 468.959 167.799 469.199 169.385 469.985C169.865 470.225 170.319 470.492 170.772 470.785Z" fill="#728694"/>
<path d="M185.624 476.239C179.157 480.852 174.17 487.932 171.73 495.999C172.837 490.719 173.957 485.239 172.89 479.945C172.37 477.372 171.157 474.852 169.49 472.959C170.144 473.279 170.797 473.612 171.45 473.932C173.384 474.892 175.344 475.865 177.45 476.225C179.17 476.505 180.904 476.359 182.637 476.292C183.637 476.265 184.624 476.239 185.624 476.239Z" fill="#728694"/>
<path d="M174.397 548.705C176.383 542.399 178.41 535.945 178.45 529.265C178.477 524.092 177.103 518.679 174.17 514.772C179.517 516.105 184.823 517.585 190.09 519.199C182.903 527.372 181.823 540.692 174.397 548.705Z" fill="#728694"/>
<path d="M547.876 488.985C526.583 496.692 504.743 502.532 482.623 506.399C477.903 507.225 472.983 508.052 469.076 511.092C493.716 514.732 519.169 511.479 542.409 501.732C545.143 500.585 547.943 499.279 549.889 496.852C551.836 494.439 552.649 490.599 547.876 488.985Z" fill="#728694"/>
<path d="M1112.43 557.839C1032.95 543.105 951.754 539.879 871.527 548.252C953.554 555.412 1035.82 559.172 1112.43 557.839Z" fill="#728694"/>
<path d="M1770.65 522.399C1775.93 535.759 1777.3 551.652 1771.61 564.798C1765.82 578.172 1753.91 586.718 1742.57 594.585C1735.22 599.678 1727.87 604.772 1720.53 609.865C1716.97 612.332 1713.22 615.038 1711.54 619.305C1709.97 623.305 1710.54 627.878 1711.13 632.198C1711.91 637.945 1712.7 643.692 1713.43 649.452C1714.3 656.172 1715.1 662.905 1715.77 669.665C1713.46 669.292 1711.14 668.932 1708.83 668.572C1706.42 661.612 1703.75 654.665 1700.7 648.065C1692.43 630.198 1681.29 614.825 1664.57 608.398C1689.5 602.718 1713.29 590.852 1733.65 573.905C1742.99 566.118 1752.49 553.225 1747.37 541.559C1745.31 536.892 1741.29 533.719 1737.31 530.972C1710.53 512.465 1678.18 504.012 1646.74 507.319C1699.19 490.172 1747.97 459.425 1797.7 412.545C1785.55 440.759 1768.39 466.305 1747.46 487.279C1756.59 497.772 1765.38 509.039 1770.65 522.399Z" fill="#728694"/>
<path d="M1861.22 338.932C1791.91 358.226 1721.66 380.946 1663.53 426.972C1636.45 448.412 1610.24 475.652 1577.14 479.505C1570.85 480.239 1564.33 480.052 1558.4 477.612C1550.18 474.252 1543.85 466.972 1537.82 459.932C1532.58 453.812 1527.34 447.692 1522.1 441.572C1515.84 434.252 1509.09 424.972 1511.45 415.239C1513.02 408.772 1518.28 404.292 1523.5 400.905C1538.14 391.412 1554.81 386.612 1571.29 382.239C1664.77 357.399 1760.43 342.599 1861.22 338.932Z" fill="#728694"/>
<path d="M1864.78 694.825C1863.66 695.278 1862.62 695.705 1861.67 696.078L1860.23 695.638C1812.25 685.958 1764.09 677.292 1715.8 669.665C1713.49 669.292 1711.17 668.932 1708.86 668.572C1650.05 659.385 1591.02 651.705 1531.89 645.545C1587.72 638.398 1644.52 642.105 1700.73 648.065C1704.98 648.505 1709.22 648.985 1713.46 649.452C1714.02 649.505 1714.58 649.558 1715.14 649.638C1731.94 651.532 1748.75 653.545 1765.37 656.918C1799.97 663.892 1833.62 676.745 1864.78 694.825Z" fill="#728694"/>
<path d="M1436.05 624.238C1427.59 620.545 1419.81 614.985 1413.26 607.998C1409.41 603.878 1405.86 599.012 1404.79 593.198C1403.73 587.398 1405.25 581.385 1404.85 575.478C1404.78 574.532 1404.65 573.518 1404.07 572.812C1403.62 572.252 1402.98 571.972 1402.35 571.718C1396.69 569.478 1390.15 569.332 1384.85 572.478C1379.54 575.625 1375.87 582.412 1376.9 588.985C1377.94 595.665 1383.18 600.492 1388.34 604.132C1403.22 614.612 1420.31 620.518 1436.05 624.238Z" fill="#728694"/>
<path d="M1884.69 331.599C1874.25 334.279 1863.83 336.839 1853.45 339.239H1853.43C1853.42 339.239 1853.42 339.239 1853.41 339.239C1853.39 339.239 1853.39 339.239 1853.38 339.239C1789.75 354.079 1727.07 364.226 1664.18 372.146C1636.34 379.452 1603.06 389.332 1570.94 402.625C1556.97 408.412 1542.5 415.452 1533.74 428.839C1530.53 433.772 1527.85 439.719 1524.12 443.959C1522.18 446.159 1519.97 447.892 1517.24 448.785C1510.64 450.959 1503.81 447.159 1497.13 445.319C1483.1 441.479 1468.52 446.372 1454.26 449.025C1440.89 451.492 1427.21 451.945 1413.73 450.372C1406.81 449.572 1399.77 448.252 1393.01 450.065C1386.26 451.892 1379.82 457.905 1379 469.132C1372.97 469.319 1368.28 475.025 1365.48 480.919C1363.82 484.412 1362.52 488.159 1360.9 491.665C1359.78 494.092 1358.53 496.412 1356.88 498.425C1348.65 489.719 1340.29 480.772 1334.54 469.985C1333.72 468.439 1332.94 466.865 1332.24 465.239C1330.69 461.679 1329.45 457.759 1329.93 453.852C1330.17 451.985 1330.78 450.239 1331.7 448.665C1333.38 445.692 1336.09 443.292 1339.02 441.799C1343.52 439.532 1348.53 438.999 1353.44 438.492C1341.57 430.105 1326.02 435.932 1313.04 441.945C1301.02 447.519 1288.96 453.092 1277.76 460.452C1272.41 463.945 1267.18 467.879 1261.21 469.745C1255.24 471.612 1248.18 470.985 1243.74 466.199C1237.05 458.999 1239.56 445.652 1246.49 438.732C1253.42 431.812 1263.16 429.732 1272.4 428.239C1285.02 426.172 1297.73 424.732 1310.48 423.865C1318.98 423.292 1327.56 422.985 1336.01 424.239C1347.77 425.999 1361.04 430.372 1370.54 422.479C1367.8 418.145 1362.38 417.412 1357.64 417.065C1333.81 415.292 1309.94 413.519 1286.08 412.905C1283.85 412.839 1281.61 412.799 1279.38 412.759C1270.57 412.612 1261.72 412.639 1252.92 412.185C1252.92 412.185 1252.9 412.185 1252.89 412.185C1244.38 411.772 1235.89 410.932 1227.53 409.092C1217.44 406.892 1207.41 403.092 1198.6 397.305C1199.37 397.425 1200.17 397.546 1200.94 397.652C1221.98 400.679 1243.08 403.212 1264.2 405.212C1275.5 406.292 1286.81 407.239 1298.13 408.025C1332.34 410.439 1366.56 411.492 1400.61 411.239C1405.84 411.199 1411.05 411.132 1416.28 411.025C1465.45 400.532 1514.69 390.012 1562.9 375.079C1596.17 364.772 1628.98 352.359 1662.98 345.772C1679.9 342.506 1697.01 340.679 1714.11 339.039C1766.95 333.972 1819.94 330.612 1872.62 328.572C1876.65 329.572 1880.66 330.599 1884.69 331.599Z" fill="#728694"/>
<path d="M1302.35 572.545C1291.86 570.825 1281.53 567.932 1271.58 563.892C1270.02 563.265 1268.42 562.572 1267.18 561.345C1264.5 558.705 1263.97 554.105 1261.33 551.412C1258.36 548.359 1253.65 548.612 1250.18 546.292C1246.14 543.599 1244.57 538.052 1243.6 532.945C1242.41 526.705 1241.62 520.359 1241.26 513.999C1248.62 528.945 1259.57 541.332 1271.12 552.559C1278.93 560.159 1288.03 567.705 1302.35 572.545Z" fill="#728694"/>
<path d="M993.184 399.705C1008.9 401.079 1024.48 404.465 1039.52 409.745C1020.52 412.879 1001.45 415.785 982.29 417.225C961.024 418.812 939.584 418.559 918.49 422.079C906.437 424.079 894.584 427.319 882.704 430.292C871.691 433.052 860.637 435.612 849.571 437.945C787.291 451.145 724.171 457.852 663.064 458.479C644.238 457.012 625.411 455.545 606.584 454.065C580.024 451.985 553.464 449.919 526.905 447.839C496.171 445.425 465.438 443.039 434.718 440.639C428.238 440.132 421.771 439.625 415.291 439.119C385.758 436.812 355.505 434.305 328.545 420.785C345.572 423.732 362.612 426.705 379.638 429.652C398.998 433.025 418.571 436.385 438.105 434.652C439.305 434.545 440.478 434.412 441.678 434.279C443.305 434.612 444.918 434.905 446.558 435.145C447.531 435.279 448.491 435.399 449.465 435.492H449.478C456.998 436.265 464.518 435.932 471.478 435.559C486.331 439.559 501.398 443.559 516.678 443.172C526.358 442.932 535.931 440.932 545.611 440.812C567.344 440.532 588.544 449.759 609.304 449.452C610.571 449.439 611.838 449.385 613.104 449.305C697.718 455.532 780.957 434.052 864.491 415.745C864.531 415.732 864.557 415.732 864.597 415.719C895.451 408.985 926.357 402.652 957.384 398.305C988.997 397.479 1019.96 388.519 1051.46 385.439C1086 382.052 1120.56 385.799 1155.04 390.799C1101.04 392.425 1047.06 395.399 993.184 399.705Z" fill="#728694"/>
<path d="M204.077 411.479C204.344 411.585 204.624 411.705 204.89 411.799C208.984 413.345 213.397 414.145 217.557 414.799C218.437 414.919 219.304 415.065 220.184 415.199C225.81 416.052 231.624 416.932 236.89 419.212C237.65 419.532 238.397 419.879 239.157 420.252C239.664 420.492 240.157 420.745 240.664 420.999C242.21 421.759 243.81 422.559 245.45 423.185C248.57 424.385 251.85 424.945 254.944 425.425C254.944 425.425 248.877 423.012 245.85 421.879C244.25 421.265 242.69 420.492 241.17 419.719C240.664 419.465 240.17 419.212 239.664 418.972C238.89 418.599 238.117 418.252 237.344 417.905C231.957 415.585 226.05 414.692 220.357 413.825C219.477 413.692 218.61 413.545 217.73 413.412C213.637 412.785 209.277 411.999 205.29 410.492C204.69 410.252 204.09 409.999 203.49 409.759L203.264 410.385L204.077 411.479Z" fill="#728694"/>
<path d="M240.302 449.199C238.075 449.932 235.702 450.292 233.129 450.292C231.422 450.292 229.622 450.145 227.729 449.799C223.462 449.079 219.169 447.626 215.022 446.226C213.569 445.719 212.115 445.239 210.675 444.772C205.902 443.252 200.995 442.066 195.569 440.799L194.835 440.626C191.022 439.719 187.075 438.786 183.262 437.719C176.555 435.852 171.289 433.839 166.742 431.399L167.022 430.772C168.076 431.026 169.156 431.372 170.289 431.866C170.142 431.732 169.996 431.572 169.849 431.426C173.715 433.266 178.156 434.866 183.569 436.386C187.382 437.439 191.315 438.359 195.102 439.266L195.822 439.439C201.289 440.719 206.209 441.906 211.035 443.439C212.475 443.892 213.942 444.386 215.395 444.892C219.502 446.279 223.769 447.719 227.942 448.439C232.475 449.226 240.302 449.199 240.302 449.199Z" fill="#728694"/>
<path d="M213.893 479.239V479.252C217.613 479.559 221.359 479.425 225.053 478.839C225.599 479.879 225.146 481.319 224.279 482.052C223.413 482.785 222.253 482.972 221.159 482.945C218.719 482.892 216.306 481.879 213.933 479.999L213.893 479.239Z" fill="#728694"/>
<path d="M216.317 518.825C215.504 520.919 214.397 522.852 213.064 524.572C212.744 524.972 212.41 525.385 211.944 525.545C211.357 525.772 210.704 525.532 210.104 525.292C209.33 524.985 208.57 524.679 207.797 524.372C206.464 523.852 205.13 523.332 203.797 522.799C203.61 522.732 203.41 522.652 203.224 522.559C204.024 522.465 204.757 522.225 205.344 521.785C205.864 521.425 206.25 520.892 206.504 520.185C206.85 519.159 206.744 518.185 206.304 517.319C205.69 516.065 204.437 515.012 203.037 514.212C205.837 514.345 208.637 514.812 211.344 515.572C212.77 515.959 214.17 516.439 215.544 516.985C215.917 517.132 216.344 517.332 216.477 517.759C216.584 518.119 216.45 518.479 216.317 518.825Z" fill="#728694"/>
<path d="M1999.58 329.879V703.358L1956.27 705.118C1933.23 703.038 1910.14 701.785 1887.02 701.372C1884.49 701.318 1881.95 701.278 1879.43 701.265H1879.42C1877.97 701.252 1876.49 701.238 1875.03 701.225C1874.27 701.211 1873.54 701.198 1872.79 701.212C1869.9 701.185 1867.01 701.185 1864.11 701.212C1862.01 701.212 1859.87 701.238 1857.77 701.265C1857.75 701.265 1857.75 701.265 1857.75 701.265C1856.35 701.278 1854.98 701.291 1853.58 701.318C1851.86 701.345 1850.15 701.372 1848.42 701.425C1848.42 701.425 1848.42 701.425 1848.41 701.425C1845.75 701.478 1843.1 701.532 1840.45 701.612C1841.17 701.172 1841.87 700.705 1842.54 700.212H1842.55C1843.02 699.878 1843.49 699.545 1843.94 699.198C1844.05 699.118 1844.13 699.052 1844.23 698.958C1844.62 698.665 1844.99 698.358 1845.35 698.038C1845.63 697.798 1845.91 697.558 1846.18 697.318C1846.47 697.065 1846.74 696.798 1847.03 696.545C1847.42 696.172 1847.81 695.798 1848.18 695.412C1848.39 695.198 1848.61 694.972 1848.81 694.745C1849.17 694.372 1849.51 693.972 1849.86 693.572C1850.03 693.372 1850.21 693.171 1850.39 692.971C1850.7 692.638 1850.98 692.278 1851.26 691.918C1851.79 691.265 1852.29 690.585 1852.78 689.905C1853.09 689.492 1853.37 689.078 1853.65 688.665C1853.93 688.265 1854.19 687.865 1854.43 687.452C1854.7 687.052 1854.95 686.652 1855.19 686.238C1855.41 685.905 1855.61 685.545 1855.82 685.198C1856.59 683.865 1857.31 682.505 1857.99 681.118C1858.33 680.465 1858.63 679.785 1858.95 679.105C1859.26 678.438 1859.55 677.745 1859.85 677.052C1860.01 676.692 1860.17 676.305 1860.31 675.932C1861.1 673.998 1861.83 672.012 1862.5 669.985C1862.65 669.545 1862.81 669.105 1862.94 668.652C1863.3 667.518 1863.66 666.358 1863.98 665.212C1864.18 664.558 1864.37 663.878 1864.54 663.212C1864.87 661.972 1865.21 660.718 1865.51 659.478C1865.74 658.558 1865.97 657.638 1866.17 656.718C1867.19 652.225 1868.05 647.732 1868.83 643.372C1870.26 635.278 1871.69 627.158 1873.09 619.038C1873.43 616.998 1873.79 614.972 1874.13 612.945C1874.33 611.758 1874.53 610.585 1874.73 609.398C1875.06 607.505 1875.37 605.612 1875.69 603.718C1876.19 600.692 1876.69 597.665 1877.18 594.612C1877.62 591.958 1878.03 589.305 1878.46 586.652C1878.77 584.758 1879.06 582.852 1879.35 580.958C1879.77 578.265 1880.18 575.572 1880.58 572.878C1880.74 571.772 1880.91 570.678 1881.07 569.572C1881.71 565.278 1882.33 560.958 1882.93 556.665C1883.51 552.372 1884.1 548.065 1884.63 543.758C1884.82 542.332 1884.99 540.892 1885.18 539.465C1885.49 537.038 1885.77 534.612 1886.05 532.185C1886.43 528.839 1886.81 525.492 1887.15 522.132C1887.42 519.705 1887.66 517.292 1887.9 514.865C1888.06 513.172 1888.23 511.465 1888.38 509.759C1888.47 508.759 1888.57 507.732 1888.66 506.732C1888.74 505.879 1888.79 505.025 1888.87 504.172C1888.97 503.025 1889.06 501.892 1889.15 500.759C1889.25 499.732 1889.33 498.679 1889.41 497.639C1889.47 496.852 1889.53 496.065 1889.58 495.279C1889.86 491.479 1890.11 487.692 1890.33 483.892C1890.43 482.052 1890.53 480.239 1890.62 478.412C1890.77 475.465 1890.9 472.532 1890.99 469.572C1891.06 468.252 1891.1 466.919 1891.13 465.599C1891.18 464.025 1891.22 462.439 1891.25 460.879V460.812C1891.29 459.385 1891.31 457.985 1891.33 456.572C1891.37 454.479 1891.39 452.372 1891.39 450.265C1891.43 444.732 1891.38 439.185 1891.26 433.665C1891.09 426.212 1890.75 418.745 1890.26 411.279C1890.14 409.425 1890.01 407.599 1889.86 405.745C1889.75 404.505 1889.66 403.252 1889.54 402.012C1889.45 400.999 1889.37 399.972 1889.26 398.959C1888.93 395.559 1888.54 392.145 1888.07 388.745C1887.93 387.612 1887.75 386.479 1887.59 385.345C1887.45 384.345 1887.27 383.332 1887.11 382.332C1886.93 381.199 1886.74 380.052 1886.54 378.932C1886.53 378.825 1886.5 378.719 1886.47 378.599C1886.46 378.532 1886.45 378.479 1886.43 378.399C1886.3 377.612 1886.14 376.825 1885.99 376.052C1885.85 375.252 1885.67 374.452 1885.5 373.665C1885.39 373.159 1885.29 372.679 1885.17 372.172C1884.99 371.345 1884.81 370.519 1884.61 369.679C1884.42 368.852 1884.22 368.025 1884.01 367.199C1882.98 363.092 1881.78 359.052 1880.38 355.119C1880.18 354.545 1879.97 353.945 1879.74 353.372C1879.55 352.839 1879.35 352.319 1879.14 351.785C1878.91 351.185 1878.67 350.572 1878.42 349.972C1877.23 347.066 1875.93 344.239 1874.49 341.492C1874.31 341.146 1874.13 340.786 1873.94 340.439C1873.74 340.066 1873.54 339.692 1873.33 339.332C1873.15 339.012 1872.98 338.692 1872.78 338.372C1872.15 337.266 1871.5 336.186 1870.82 335.119C1869.97 333.759 1869.06 332.426 1868.11 331.119C1867.57 330.346 1867.01 329.599 1866.43 328.852C1866.34 328.732 1866.25 328.599 1866.14 328.479C1866.55 328.466 1866.98 328.466 1867.39 328.452C1883.18 328.132 1899.01 328.012 1914.89 328.066C1943.05 328.146 1971.29 328.812 1999.58 329.879Z" fill="#728694"/>
<path d="M1999.58 329.879V441.625C1998.1 440.959 1996.6 440.305 1995.1 439.692C1983.62 435.025 1971.54 432.732 1959.32 431.719C1952.72 431.172 1946.06 430.985 1939.44 431.025C1938.56 431.025 1937.7 431.025 1936.82 431.039C1936.3 431.039 1935.79 431.052 1935.27 431.052C1930.32 431.105 1925.14 431.079 1920.08 430.559C1909.62 429.492 1899.7 426.319 1893.51 417.372C1892.2 415.479 1891.14 413.399 1890.24 411.225C1890.12 409.372 1889.99 407.545 1889.84 405.692C1889.74 404.452 1889.64 403.199 1889.52 401.959C1889.43 400.945 1889.35 399.919 1889.24 398.905C1888.91 395.505 1888.52 392.092 1888.06 388.692C1887.91 387.559 1887.74 386.425 1887.58 385.292C1887.43 384.292 1887.26 383.279 1887.1 382.279C1886.91 381.145 1886.72 379.999 1886.52 378.879C1886.51 378.772 1886.48 378.665 1886.46 378.545C1886.44 378.479 1886.43 378.425 1886.42 378.345C1886.28 377.559 1886.12 376.772 1885.98 375.999C1885.83 375.199 1885.66 374.399 1885.48 373.612C1885.38 373.105 1885.27 372.625 1885.15 372.119C1884.98 371.292 1884.79 370.465 1884.59 369.625C1884.4 368.799 1884.2 367.972 1883.99 367.145C1882.96 363.039 1881.76 358.999 1880.36 355.066C1880.16 354.492 1879.95 353.892 1879.72 353.319C1879.54 352.786 1879.34 352.266 1879.12 351.732C1878.9 351.132 1878.66 350.519 1878.4 349.919C1877.22 347.012 1875.91 344.186 1874.47 341.439C1874.3 341.092 1874.11 340.732 1873.92 340.386C1873.72 340.012 1873.52 339.639 1873.31 339.279C1873.14 338.959 1872.96 338.639 1872.76 338.319C1872.14 337.212 1871.48 336.132 1870.8 335.066C1869.95 333.706 1869.04 332.372 1868.1 331.066C1867.9 330.292 1867.68 329.532 1867.48 328.759V328.746C1867.44 328.626 1867.42 328.519 1867.38 328.399C1883.16 328.079 1898.99 327.959 1914.87 328.012C1943.04 328.146 1971.28 328.812 1999.58 329.879Z" fill="#728694"/>
<path d="M1999.58 512.545V556.758C1990.68 560.012 1981.28 561.252 1974.22 555.145C1970.27 551.732 1967.86 546.585 1965.62 541.372C1964.72 539.278 1963.86 537.185 1962.9 535.172V535.145C1960.51 529.972 1957.68 525.398 1952.91 523.212C1956.28 521.532 1959.72 520.159 1963.23 519.025C1974.91 515.265 1987.28 514.092 1999.58 512.545Z" fill="#728694"/>
<path d="M1999.58 656.798V703.371L1956.27 705.131C1933.23 703.051 1910.14 701.798 1887.02 701.385C1884.48 701.331 1881.95 701.291 1879.43 701.278H1879.42C1877.96 701.265 1876.48 701.251 1875.03 701.238C1874.27 701.225 1873.54 701.211 1872.79 701.225C1869.9 701.198 1867 701.198 1864.11 701.225C1862 701.225 1859.87 701.251 1857.76 701.278C1857.75 701.278 1857.75 701.278 1857.75 701.278C1856.35 701.291 1854.98 701.305 1853.58 701.331C1853.24 700.505 1852.92 699.678 1852.59 698.838C1851.94 697.131 1851.3 695.438 1850.68 693.745C1850.58 693.491 1850.48 693.225 1850.39 692.971C1850.28 692.678 1850.18 692.398 1850.06 692.105C1850.46 692.038 1850.84 691.985 1851.26 691.918C1853.44 691.585 1855.63 691.251 1857.82 690.931H1857.83C1865.84 689.718 1873.84 688.491 1881.86 687.278C1881.88 687.278 1881.91 687.265 1881.94 687.265C1883.5 687.025 1885.06 686.798 1886.63 686.558C1887.42 686.451 1888.22 686.318 1889 686.211C1891.15 685.878 1893.31 685.545 1895.47 685.198C1922.11 681.051 1948.72 676.251 1974.31 667.198C1982.91 664.131 1991.32 660.638 1999.58 656.798Z" fill="#728694"/>
<path d="M1932.22 501.119C1927.58 559.118 1920.94 617.785 1900.94 671.652C1899.26 676.198 1897.45 680.758 1895.47 685.185C1892.98 690.798 1890.22 696.251 1887.02 701.385C1875.87 701.158 1864.73 701.145 1853.58 701.318C1849.21 701.385 1844.83 701.491 1840.46 701.611C1844.29 699.278 1847.57 696.345 1850.41 692.985C1850.3 692.691 1850.19 692.398 1850.07 692.105C1850.47 692.052 1850.86 691.985 1851.27 691.918C1861.58 679.025 1865.87 660.252 1868.86 643.358C1882.37 566.785 1895.45 488.972 1890.26 411.252C1890.14 409.399 1890.01 407.559 1889.86 405.719C1887.78 379.292 1882.99 351.706 1868.14 331.106C1867.51 330.212 1866.85 329.332 1866.17 328.479C1866.58 328.466 1867.01 328.466 1867.42 328.452C1883.21 328.132 1899.03 328.012 1914.91 328.066C1925.67 351.346 1931.49 377.439 1933.87 403.559C1934.71 412.719 1935.15 421.905 1935.3 431.092C1935.65 454.399 1934.09 477.825 1932.22 501.119Z" fill="#728694"/>
<path d="M1950.66 546.491C1950.46 563.145 1949.63 579.958 1945.38 596.065C1936.99 627.931 1915.98 654.731 1895.47 680.531C1888.42 689.411 1864.95 698.651 1852.21 703.358C1851.09 703.771 1850.05 704.144 1849.1 704.491L1847.66 704.091C1799.67 695.358 1751.51 687.518 1703.22 680.638C1700.91 680.304 1698.59 679.971 1696.29 679.651C1637.47 671.358 1578.45 664.411 1519.31 658.865C1519.3 658.851 1519.3 658.851 1519.29 658.865C1493.82 656.465 1468.33 654.331 1442.81 652.438C1390.65 652.105 1335.19 646.291 1279.38 636.011C1253.11 631.185 1226.75 625.358 1200.63 618.665C1198.97 618.931 1197.29 619.185 1195.61 619.425C1160.77 624.651 1125.33 628.371 1089.79 631.865C1083.23 632.505 1076.66 633.131 1070.09 633.771C1040.01 636.691 1009.33 639.571 979.822 633.011C930.102 612.851 872.089 606.785 814.809 600.891C768.249 596.091 721.702 591.318 675.142 586.505C673.276 586.318 671.396 586.118 669.529 585.931C668.329 585.905 667.156 585.891 665.969 585.891C638.862 585.811 611.182 590.678 584.089 597.865C563.423 608.131 536.583 612.118 510.849 611.131C485.103 610.145 459.783 604.598 434.223 601.291C399.556 596.798 364.343 596.438 329.596 600.225C300.57 604.105 268.01 608.958 237.036 601.251C221.183 597.318 206.183 590.185 190.143 587.185C173.17 583.998 155.557 585.545 138.637 582.198C128.663 580.225 118.53 575.865 111.21 569.171C106.077 564.478 102.343 558.665 101.023 551.718C100.583 544.678 106.41 538.465 113.09 536.171C119.757 533.878 127.037 534.665 134.037 535.665C143.303 536.998 152.503 538.705 161.623 540.771C166.97 541.985 172.277 543.305 177.543 544.771C180.37 545.545 183.183 546.371 185.997 547.211C187.437 547.651 189.183 547.971 190.69 547.811C191.49 547.718 192.223 547.505 192.81 547.105C193.33 546.771 193.717 546.305 193.97 545.665C194.317 544.731 194.21 543.851 193.77 543.078C193.157 541.945 191.903 540.985 190.503 540.278C189.717 539.878 188.877 539.558 188.103 539.318C183.463 537.918 178.81 536.545 174.917 535.305C165.37 533.518 155.703 532.451 146.01 532.131C143.17 532.038 140.33 532.025 137.53 531.571C134.837 531.131 132.21 530.305 129.637 529.425C125.903 528.158 122.223 526.771 118.57 525.265C113.943 523.358 108.89 520.678 107.597 515.851C107.117 514.078 107.237 512.211 107.49 510.385C107.877 507.705 108.61 505.025 109.997 502.705C113.69 496.478 121.503 493.691 128.717 493.998C135.93 494.318 142.77 497.185 149.063 499.491C151.703 500.678 154.33 501.851 156.957 503.038H156.97C157.623 503.331 158.277 503.625 158.93 503.918C160.863 504.785 162.823 505.665 164.93 505.998C166.65 506.251 168.383 506.118 170.117 506.065C171.103 506.025 172.103 505.998 173.09 505.998C173.09 505.998 173.09 505.998 173.103 505.998C179.357 505.998 185.61 506.785 191.663 508.331C194.583 509.078 197.503 509.985 200.503 509.798C200.623 509.785 200.77 509.771 200.89 509.745C201.05 509.705 201.21 509.638 201.317 509.518C201.37 509.465 201.41 509.411 201.423 509.371C201.557 509.158 201.53 508.931 201.37 508.705V508.691C201.303 508.571 201.21 508.451 201.077 508.358C200.797 508.091 200.41 507.878 200.063 507.771C195.277 506.398 190.41 505.305 185.49 504.505C176.783 503.091 167.943 502.611 159.237 501.238C158.903 501.185 158.583 501.131 158.25 501.078C158.25 501.078 158.25 501.078 158.237 501.078C156.01 500.718 153.783 500.291 151.57 499.758C145.49 498.318 139.597 496.185 134.33 492.851C133.023 492.038 131.743 491.118 130.783 489.891C129.423 488.158 128.863 485.945 128.45 483.772C128.09 481.865 127.797 479.918 128.01 477.972C128.503 473.212 131.957 469.092 136.197 466.892C140.45 464.678 145.383 464.158 150.157 464.398C151.57 464.478 152.997 464.612 154.477 464.945C155.53 465.172 156.61 465.492 157.743 465.932C157.597 465.812 157.45 465.665 157.303 465.532C154.33 462.572 153.21 457.852 154.637 453.905C156.517 448.652 162.143 445.598 167.65 444.678C169.543 444.358 171.45 444.252 173.357 444.305C176.93 444.372 180.503 444.972 184.143 445.812C186.917 446.465 189.717 447.238 192.543 448.038C192.17 447.932 191.823 447.732 191.557 447.492C191.223 447.225 190.97 446.892 190.757 446.505V446.492C190.09 445.278 189.957 443.558 190.05 442.092C190.223 439.545 190.663 436.918 192.037 434.745C194.143 431.398 198.09 429.718 201.93 428.825C202.61 428.678 203.29 428.532 203.97 428.425C207.063 427.878 210.223 427.692 213.37 427.652C213.863 427.638 214.357 427.638 214.863 427.638C218.85 427.625 222.863 427.785 226.783 428.545H226.796C226.916 428.572 227.063 428.598 227.183 428.625C230.023 429.185 232.796 430.065 235.663 430.572C239.183 431.198 242.796 431.265 246.37 431.425C246.596 431.438 246.81 431.452 247.036 431.465C258.41 432.025 269.73 433.705 280.263 436.692C327.743 437.918 373.21 454.625 419.343 465.905C422.596 466.692 425.863 467.465 429.156 468.078C430.783 468.385 432.396 468.638 434.036 468.852C435.009 468.972 435.969 469.078 436.943 469.172H436.956C444.476 469.878 451.996 469.572 458.956 469.238C473.809 472.852 488.876 476.465 504.156 476.118C513.836 475.905 523.409 474.092 533.089 473.985C554.823 473.732 576.022 482.065 596.782 481.785C598.049 481.771 599.316 481.718 600.582 481.652C685.196 487.265 768.435 467.878 851.969 451.345C852.009 451.332 852.035 451.332 852.075 451.318C882.929 445.238 913.835 439.518 944.862 435.598C976.475 434.852 1007.44 426.758 1038.94 423.985C1073.47 420.932 1108.03 424.318 1142.51 428.825C1142.53 428.825 1142.53 428.825 1142.54 428.825H1142.55C1157.09 430.718 1171.58 432.825 1186.07 434.718C1186.85 434.825 1187.65 434.932 1188.42 435.038C1209.46 437.772 1230.55 440.052 1251.67 441.865C1262.98 442.852 1274.29 443.705 1285.61 444.398C1319.82 446.572 1354.03 447.532 1388.09 447.305C1393.31 447.265 1398.53 447.198 1403.75 447.118C1452.93 437.638 1502.17 428.132 1550.38 414.652C1583.65 405.345 1616.46 394.132 1650.46 388.185C1667.38 385.225 1684.49 383.585 1701.59 382.105C1754.43 377.532 1807.42 374.505 1860.1 372.652C1864.14 373.558 1868.14 374.478 1872.18 375.385H1872.19C1881.39 377.465 1890.61 379.532 1899.81 381.612C1903.51 382.452 1907.27 383.305 1910.63 385.078C1915.3 387.532 1918.89 391.598 1922.03 395.825C1941.57 422.105 1946.77 456.185 1949.06 488.852C1950.34 507.998 1950.9 527.238 1950.66 546.491Z" fill="#FDD5C8"/>
<path d="M1166.4 506.132C1163.93 497.492 1155.33 491.732 1146.52 489.985C1137.7 488.238 1128.61 489.758 1119.76 491.278C1042.32 504.572 964.889 517.852 887.449 531.145C963.929 545.198 1042.36 516.878 1119.86 523.198C1129.46 523.985 1139.33 525.278 1148.58 522.612C1157.84 519.945 1168.01 511.785 1166.4 506.132Z" fill="#FEE4DB"/>
<path d="M1503.09 510.532C1475.51 519.158 1449.22 531.812 1425.29 547.985C1417.62 553.172 1409.66 558.905 1400.42 559.598C1391.18 560.292 1380.71 553.318 1381.62 544.092C1382.3 537.145 1388.71 532.372 1394.61 528.625C1401.46 524.265 1408.45 519.998 1416.05 517.132C1423.78 514.212 1431.98 512.772 1440.11 511.358C1453.62 508.998 1467.13 506.652 1480.63 504.292C1484.65 503.598 1488.94 502.932 1492.65 504.625C1496.35 506.332 1498.75 511.412 1503.09 510.532Z" fill="#FEE4DB"/>
<path d="M1655.34 561.438C1600.95 571.825 1546.94 584.118 1493.42 598.305C1488.34 599.651 1482.54 601.638 1480.75 606.598C1477.73 614.985 1488.65 621.491 1497.49 622.651C1533.67 627.385 1568.5 608.598 1604.67 603.798C1625.65 601.011 1646.99 602.971 1668.02 600.691C1679.01 599.505 1692.74 593.545 1691.54 582.558C1690.91 576.798 1686.07 572.451 1681.14 569.411C1669.54 562.251 1655.51 559.145 1655.34 561.438Z" fill="#FEE4DB"/>
<path d="M1311.48 614.611C1282.61 604.651 1254.76 591.798 1228.44 576.305C1210.62 565.811 1192.01 553.691 1171.36 554.571C1170.08 554.625 1168.72 554.758 1167.7 555.545C1164.66 557.865 1167.36 562.691 1170.32 565.105C1182.36 574.931 1197.78 579.305 1212.33 584.758C1246.64 597.625 1279.33 617.985 1315.94 619.638C1315.74 616.878 1313.48 614.425 1311.48 614.611Z" fill="#FEE4DB"/>
<path d="M471.69 506.131C450.863 502.465 430.143 511.651 410.983 520.598C397.183 527.038 383.397 533.491 369.597 539.931C365.144 542.011 360.224 544.611 358.797 549.318C371.117 554.171 384.823 548.491 396.823 542.905C407.917 537.745 418.997 532.585 430.09 527.411C435.197 525.025 440.357 522.638 445.837 521.331C454.823 519.185 464.423 520.025 473.13 516.945C475.81 515.998 478.623 514.371 479.317 511.611C480.063 508.598 477.77 505.491 474.917 504.251C472.077 503.011 468.837 503.158 471.69 506.131Z" fill="#FEE4DB"/>
<path d="M285.196 526.491C252.409 529.531 218.969 525.465 187.863 514.665C185.556 513.865 182.543 513.211 181.063 515.145C179.929 516.625 180.516 518.891 181.836 520.185C183.169 521.491 185.023 522.078 186.796 522.611C212.756 530.465 239.702 538.411 266.596 534.811C272.889 533.985 279.489 532.291 285.196 526.491Z" fill="#FEE4DB"/>
<path d="M202.717 563.065C197.21 561.145 191.704 559.225 186.197 557.305C184.49 556.718 182.704 556.105 180.93 556.412C176.504 557.172 174.944 562.652 174.504 567.118C174.37 568.425 174.29 569.838 174.984 570.945C175.557 571.852 176.544 572.385 177.504 572.852C185.117 576.585 193.437 578.865 201.877 579.518C203.65 579.652 205.65 579.638 206.904 578.385C208.21 577.092 208.17 574.972 207.797 573.172C206.784 568.345 204.09 563.532 202.717 563.065Z" fill="#FEE4DB"/>
<path d="M111.09 543.558C118.704 544.131 126.317 544.691 133.93 545.265C136.25 545.438 138.917 545.825 140.104 547.811C140.624 548.678 140.757 549.705 140.864 550.705C141.077 552.665 141.184 554.718 140.424 556.518C139.917 557.705 139.05 558.718 138.077 559.585C134.49 562.758 129.557 563.998 124.77 564.225C119.984 564.451 115.21 563.785 110.424 563.678C109.69 557.011 109.85 550.251 111.09 543.558Z" fill="#FEE4DB"/>
<path d="M131.678 505.785C131.718 508.558 131.145 511.398 129.638 513.718C128.131 516.038 125.558 517.758 122.798 517.865C121.225 517.918 119.678 517.465 118.185 516.985C116.358 516.398 114.385 515.598 113.531 513.891C112.865 512.571 113.025 511.011 113.251 509.558C113.625 507.131 114.145 504.745 114.811 502.385C115.131 501.225 115.558 499.971 116.571 499.318C117.345 498.825 118.305 498.758 119.211 498.718C122.465 498.598 125.945 498.758 128.638 500.598C131.318 502.438 132.678 506.545 131.678 505.785Z" fill="#FEE4DB"/>
<path d="M215.595 489.372C211.342 486.705 206.769 484.558 202.009 482.972C198.009 481.638 193.569 480.732 189.649 482.305C185.742 483.878 182.982 488.812 185.062 492.478C186.715 495.372 190.395 496.238 193.662 496.838C202.715 498.492 211.875 500.145 221.062 499.585C222.515 499.492 224.222 499.185 224.835 497.865C225.395 496.665 224.742 495.265 223.955 494.198C221.449 490.758 217.449 488.452 215.595 489.372Z" fill="#FEE4DB"/>
<path d="M238.128 468.251C233.942 466.225 229.755 464.198 225.555 462.171C221.888 460.398 218.115 458.585 214.062 458.171C211.888 457.945 209.608 458.158 207.715 459.238C205.822 460.305 204.382 462.371 204.475 464.545C204.568 466.625 206.008 468.451 207.782 469.531C209.555 470.611 211.622 471.078 213.675 471.451C220.955 472.798 228.395 473.318 235.782 473.011C236.648 472.971 237.582 472.905 238.248 472.331C239.128 471.585 239.182 470.171 238.702 469.118C238.195 468.091 237.275 467.305 238.128 468.251Z" fill="#FEE4DB"/>
<path d="M172.063 448.905C173.063 450.985 173.076 453.505 172.09 455.585C171.103 457.665 169.143 459.252 166.903 459.798C165.583 460.118 164.21 460.078 162.863 459.958C161.156 459.812 159.29 459.465 158.21 458.132C157.65 457.438 157.37 456.545 157.25 455.652C156.81 452.252 158.743 448.665 161.836 447.172C164.916 445.665 170.316 445.278 172.063 448.905Z" fill="#FEE4DB"/>
<path d="M167.755 477.998C165.728 476.465 163.062 474.865 160.822 476.065C159.782 476.625 159.102 477.678 158.488 478.692C157.275 480.665 156.035 482.705 155.715 484.998C155.288 487.945 156.822 491.305 159.662 492.158C162.755 493.078 166.048 490.705 167.302 487.732C168.555 484.758 168.288 481.385 167.755 477.998Z" fill="#FEE4DB"/>
<path d="M151.264 510.371C149.331 509.505 147.398 508.651 145.478 507.785C144.998 507.571 144.464 507.358 143.971 507.505C143.598 507.611 143.318 507.905 143.064 508.198C140.131 511.705 140.118 516.718 140.264 521.291C140.278 521.745 140.304 522.225 140.584 522.585C140.798 522.851 141.118 522.998 141.438 523.118C145.158 524.531 149.784 523.398 152.158 520.198C154.518 517.011 154.251 511.705 151.264 510.371Z" fill="#FEE4DB"/>
<path d="M302.769 450.918C295.036 450.705 287.183 450.478 279.809 448.145C274.836 446.572 270.196 444.078 265.209 442.532C255.463 439.505 245.009 440.252 234.836 441.025C233.796 442.905 236.316 444.718 238.356 445.385C257.249 451.572 276.783 455.785 296.556 457.932C299.049 458.198 301.783 458.385 303.836 456.945C305.889 455.505 306.423 451.025 302.769 450.918Z" fill="#FEE4DB"/>
<path d="M1471.75 645.518C1460.42 640.051 1447.54 638.531 1436.02 633.478C1424.5 628.425 1413.7 617.811 1414.73 605.265C1415.83 591.865 1429.22 583.425 1441.11 577.158C1467.59 563.185 1494.06 549.211 1520.54 535.238C1482.37 538.905 1445.06 551.185 1412.17 570.891C1401.05 577.558 1387.81 585.331 1376.01 579.958C1372.82 578.505 1370.09 576.171 1366.83 574.878C1359.91 572.118 1351.21 574.998 1347.3 581.345C1343.39 587.691 1344.75 596.771 1350.35 601.691C1344.45 605.251 1337.15 606.438 1330.41 604.931C1340.87 614.931 1351.67 625.158 1365.1 630.598C1374.09 634.238 1383.81 635.545 1393.41 636.825C1418.62 640.158 1443.82 643.505 1471.75 645.518Z" fill="#E0AFA1"/>
<path d="M1279.37 635.998C1253.1 631.171 1226.74 625.344 1200.62 618.651C1198.95 618.918 1197.27 619.171 1195.59 619.411C1195.26 619.225 1194.94 619.038 1194.61 618.865C1190.14 616.531 1185.1 615.585 1180.37 613.891C1170.61 610.385 1162.35 603.771 1153.34 598.625C1132.22 586.571 1107.54 582.918 1083.35 579.851C1082.25 579.705 1081.15 579.558 1080.05 579.425C1083.34 578.758 1086.65 578.305 1089.97 578.051C1110.42 576.518 1131.18 582.518 1150.46 590.118C1172.85 598.958 1194.58 610.105 1218.19 614.851C1233.35 617.918 1249.41 618.398 1263.17 625.438C1268.81 628.318 1274.06 632.304 1279.37 635.998Z" fill="#E0AFA1"/>
<path d="M1386.58 460.465C1384.72 462.278 1382.21 463.225 1379.77 464.118C1360.04 471.332 1339.74 476.985 1319.13 481.065C1318.01 481.292 1316.88 481.505 1315.74 481.718C1307.61 483.252 1298.94 484.745 1292.8 490.265C1290.09 492.665 1287.89 495.825 1284.56 497.185C1280.96 498.652 1276.88 497.732 1273.01 498.052C1263.24 498.825 1255.58 507.878 1253.74 517.505C1251.89 527.145 1254.72 537.092 1258.69 546.065C1266.9 564.665 1281.24 581.718 1300.65 587.785C1311.6 591.198 1323.44 590.945 1334.4 594.345C1339.58 595.958 1344.73 598.825 1348.65 602.611C1353.02 606.825 1355.89 612.185 1355.64 618.225C1348.53 614.598 1341.13 610.985 1333.46 607.785C1323.53 603.651 1313.14 600.211 1302.37 598.305C1296.08 597.198 1289.54 596.598 1283.81 593.785C1282.18 592.998 1280.68 592.038 1279.21 590.998L1279.2 590.985C1276.22 588.878 1273.49 586.398 1270.61 584.105L1270.6 584.091C1269.09 582.878 1267.54 581.731 1265.9 580.705C1265.57 580.505 1265.25 580.305 1264.92 580.118C1264.9 580.118 1264.9 580.118 1264.9 580.105C1259.85 577.198 1254.12 575.465 1248.49 573.625C1241.7 571.371 1235.09 568.918 1230.1 563.945C1220.14 553.985 1221.5 535.212 1232.81 526.798C1236.24 524.252 1240.56 522.345 1242.3 518.438C1245.49 511.318 1237.02 503.665 1229.24 503.838C1221.44 503.998 1214.64 508.758 1207.57 512.038C1200.5 515.305 1191.26 516.838 1185.6 511.492C1195.89 498.905 1207.93 487.772 1221.29 478.492C1234.85 469.078 1249.69 461.625 1264.02 453.705C1267.1 451.838 1270.28 450.212 1273.52 448.772C1277.42 447.025 1281.45 445.572 1285.56 444.358C1319.77 446.532 1353.98 447.492 1388.04 447.265C1390.13 451.692 1390.05 457.105 1386.58 460.465Z" fill="#E0AFA1"/>
<path d="M1359.31 594.611C1346.5 589.651 1334.38 582.905 1323.42 574.611C1318.77 571.091 1314.01 566.731 1313.27 560.945C1312.22 552.598 1319.86 545.718 1321.63 537.478C1323.98 526.545 1315.65 514.891 1319.58 504.411C1321.61 499.025 1326.97 495.051 1332.71 494.678C1338.46 494.305 1344.29 497.558 1346.99 502.638C1350.55 509.331 1348.65 517.465 1347.59 524.971C1344.94 543.918 1348.61 563.691 1357.87 580.438C1359.27 582.971 1360.83 585.571 1360.89 588.464C1360.9 591.358 1358.69 594.504 1359.31 594.611Z" fill="#E0AFA1"/>
<path d="M1089.78 631.851C1083.22 632.491 1076.65 633.118 1070.07 633.758C1039.99 636.678 1009.31 639.558 979.808 632.998C930.088 612.838 872.075 606.771 814.795 600.878C768.235 596.078 721.688 591.305 675.128 586.491C673.262 586.305 671.382 586.105 669.515 585.918C668.315 585.891 667.142 585.878 665.955 585.878C667.928 585.531 669.902 585.171 671.875 584.825C726.862 575.238 783.075 572.638 838.688 577.171C810.101 579.878 781.502 582.558 752.915 585.265C793.821 587.705 834.821 590.171 875.195 597.131C946.755 609.491 1017.3 636.025 1089.69 630.238C1089.79 630.798 1089.82 631.331 1089.78 631.851Z" fill="#E0AFA1"/>
<path d="M1251.61 441.825C1247.98 444.158 1244.24 446.265 1240.33 448.118C1240.33 448.118 1240.32 448.118 1240.3 448.118C1210.88 462.252 1174.48 463.732 1140.86 464.078C1118.85 464.305 1096.84 464.532 1074.85 464.758C1079.26 469.052 1083.68 473.358 1088.08 477.652C1047.93 487.905 1006.37 491.198 965.144 495.385C886.637 503.371 808.464 514.678 727.438 529.278C788.717 513.278 849.997 497.291 911.277 481.292C909.784 476.238 903.384 474.838 898.13 474.625C877.877 473.812 855.597 477.052 836.997 471.345C830.824 469.478 825.064 466.612 819.931 462.292C830.584 458.625 841.264 454.958 851.917 451.292C851.957 451.278 851.984 451.278 852.024 451.265C882.877 445.185 913.784 439.465 944.81 435.545C976.424 434.798 1007.38 426.705 1038.89 423.932C1073.42 420.878 1107.98 424.265 1142.46 428.772C1142.48 428.772 1142.48 428.772 1142.49 428.772H1142.5C1157.04 430.665 1171.53 432.772 1186.02 434.665C1186.8 434.772 1187.6 434.878 1188.37 434.985C1209.4 437.732 1230.49 440.025 1251.61 441.825Z" fill="#E0AFA1"/>
<path d="M675.131 586.518C673.265 586.331 671.385 586.131 669.518 585.945C668.318 585.918 667.145 585.905 665.958 585.905C638.852 585.825 611.172 590.691 584.078 597.878C563.412 608.144 536.572 612.131 510.838 611.144C485.092 610.158 459.772 604.611 434.212 601.305C399.545 596.811 364.332 596.451 329.585 600.238C300.559 604.118 267.999 608.971 237.026 601.265C221.172 597.331 206.172 590.198 190.132 587.198C173.159 584.011 155.546 585.558 138.626 582.211C128.653 580.238 118.519 575.878 111.199 569.185C144.932 583.091 186.012 576.278 221.492 587.985C229.892 590.758 238.052 594.598 246.812 595.784C252.199 596.518 257.666 596.225 263.092 595.918C298.359 593.998 333.639 592.065 367.052 588.825C390.212 584.585 414.385 580.398 436.959 587.091C448.999 590.665 460.345 597.291 472.892 597.985C486.705 598.758 500.212 592.225 513.998 593.331C522.638 594.025 530.798 597.678 539.425 598.425C550.012 599.331 560.398 595.824 570.572 592.824C589.825 587.158 609.572 583.198 629.518 580.985C643.758 579.411 659.185 579.051 671.918 584.851C672.985 585.358 674.065 585.905 675.131 586.518Z" fill="#E0AFA1"/>
<path d="M596.795 482.158C596.942 483.892 595.649 485.118 594.022 485.932C593.115 486.385 592.129 486.705 591.195 486.918C567.169 492.532 542.329 493.372 517.676 494.158C495.889 494.878 472.049 494.932 455.049 481.278C446.062 484.478 436.156 482.252 426.609 482.278C399.649 482.398 376.422 500.612 350.529 508.092C347.129 509.078 341.796 508.265 342.383 504.798C342.702 502.932 344.743 501.972 346.516 501.332C371.716 492.158 396.916 482.985 422.142 473.798C422.689 473.598 423.249 473.398 423.796 473.198C428.076 471.638 432.436 470.292 436.876 469.145H436.889C444.409 469.852 451.929 469.545 458.889 469.212C473.742 472.825 488.809 476.438 504.089 476.092C513.769 475.878 523.342 474.065 533.022 473.958C554.755 473.705 575.955 482.038 596.715 481.758C596.769 481.892 596.782 482.012 596.795 482.158Z" fill="#E0AFA1"/>
<path d="M232.985 456.305C263.385 462.585 294.078 467.398 324.931 470.718C335.451 471.851 346.344 472.771 356.358 469.385C348.878 474.011 340.304 476.878 331.544 477.705C324.344 478.385 317.091 477.705 309.878 477.025C280.931 474.305 250.638 471.105 226.531 454.851C228.065 454.531 229.051 455.491 232.985 456.305Z" fill="#E0AFA1"/>
<path d="M214.623 481.091C253.57 475.718 291.983 493.705 331.276 494.918C303.756 495.011 276.223 493.825 248.81 491.345C238.063 490.385 226.263 488.691 214.623 481.091Z" fill="#E0AFA1"/>
<path d="M201.318 508.665C201.251 508.545 201.158 508.425 201.024 508.332C210.331 507.385 219.758 509.025 229.064 510.252C246.344 512.558 263.811 513.492 281.237 513.092C255.917 522.558 226.891 521.612 200.824 509.718C200.984 509.678 201.144 509.612 201.251 509.492C201.304 509.438 201.344 509.385 201.358 509.345L201.318 508.665Z" fill="#E0AFA1"/>
<path d="M308.571 555.465C284.705 557.291 260.825 559.091 236.958 560.918C232.011 561.291 227.011 561.678 222.105 560.985C214.131 559.865 206.838 556.038 199.718 552.251C198.265 551.478 196.625 550.505 195.225 549.438C194.238 548.678 193.358 547.891 192.771 547.105C193.291 546.771 193.678 546.305 193.931 545.665C194.278 544.731 194.171 543.851 193.731 543.078C195.305 542.238 197.011 541.731 198.771 541.505C202.185 541.038 205.811 541.598 209.118 542.665C214.185 544.318 218.811 547.051 223.718 549.091C250.105 559.985 280.638 549.598 308.571 555.465Z" fill="#E0AFA1"/>
<path d="M207.889 438.985C208.223 436.065 207.783 432.958 206.076 430.585C205.476 429.745 204.729 429.025 203.916 428.412C207.009 427.865 210.169 427.678 213.316 427.638C211.796 434.585 209.143 441.305 205.489 447.412C206.516 444.665 207.543 441.892 207.889 438.985Z" fill="#E0AFA1"/>
<path d="M246.982 431.452C242.462 434.465 237.942 437.505 233.422 440.545C232.582 435.958 230.169 431.692 226.729 428.545C226.849 428.572 226.995 428.598 227.115 428.625C229.955 429.185 232.728 430.065 235.595 430.572C239.115 431.198 242.728 431.265 246.302 431.425C246.542 431.425 246.755 431.438 246.982 431.452Z" fill="#E0AFA1"/>
<path d="M184.102 445.785C183.876 445.998 183.609 446.198 183.369 446.398C181.902 447.598 180.849 449.238 179.849 450.865C177.262 455.012 174.689 459.158 172.089 463.305C171.782 458.932 175.782 455.225 175.862 450.825C175.902 448.425 174.756 446.252 173.316 444.278C176.889 444.345 180.462 444.945 184.102 445.785Z" fill="#E0AFA1"/>
<path d="M192.303 445.812C193.383 452.385 194.369 459.532 191.143 465.358C193.289 460.665 197.263 456.838 202.036 454.878C204.303 453.945 206.823 453.358 208.596 451.665C203.529 448.745 197.836 446.932 192.303 445.812Z" fill="#E0AFA1"/>
<path d="M147.57 469.691C151.637 474.025 151.677 481.531 147.65 485.918C150.557 483.451 153.29 480.331 153.717 476.545C154.144 472.758 151.237 468.451 147.57 469.691Z" fill="#E0AFA1"/>
<path d="M169.849 468.892C171.196 472.025 174.969 474.172 174.902 477.585C174.876 478.692 174.422 479.745 173.982 480.758C172.236 484.705 170.436 488.638 168.596 492.545C172.796 491.518 176.342 488.105 177.529 483.945C177.929 482.545 178.076 481.065 178.542 479.678C179.742 476.065 182.836 473.478 185.796 471.092C183.369 467.758 178.462 467.852 174.369 468.292C172.956 468.452 171.556 468.598 169.849 468.892Z" fill="#E0AFA1"/>
<path d="M158.198 501.038C155.971 500.678 153.745 500.251 151.531 499.718C153.185 499.385 155.225 499.611 156.811 500.318C157.291 500.531 157.745 500.771 158.198 501.038Z" fill="#E0AFA1"/>
<path d="M173.049 505.958C166.583 510.118 161.596 516.518 159.156 523.812C160.263 519.052 161.383 514.092 160.316 509.318C159.796 506.998 158.583 504.718 156.916 503.012C157.569 503.305 158.223 503.598 158.876 503.892C160.809 504.758 162.769 505.638 164.876 505.972C166.596 506.225 168.329 506.092 170.063 506.038C171.063 505.985 172.063 505.958 173.049 505.958Z" fill="#E0AFA1"/>
<path d="M161.822 571.398C163.809 565.705 165.836 559.865 165.876 553.838C165.902 549.158 164.529 544.278 161.596 540.758C166.942 541.972 172.249 543.292 177.516 544.758C170.329 552.131 169.249 564.158 161.822 571.398Z" fill="#E0AFA1"/>
<path d="M535.302 517.465C514.009 524.425 492.169 529.691 470.049 533.198C465.329 533.945 460.409 534.691 456.502 537.438C481.142 540.731 506.595 537.798 529.835 528.985C532.568 527.945 535.368 526.758 537.315 524.585C539.275 522.398 540.075 518.931 535.302 517.465Z" fill="#E0AFA1"/>
<path d="M1099.86 579.652C1020.38 566.345 939.18 563.425 858.953 570.985C940.98 577.465 1023.25 580.852 1099.86 579.652Z" fill="#E0AFA1"/>
<path d="M1758.09 547.652C1763.37 559.718 1764.74 574.078 1759.05 585.945C1753.26 598.025 1741.35 605.745 1730.01 612.852C1722.66 617.452 1715.31 622.052 1707.97 626.652C1704.41 628.878 1700.66 631.332 1698.98 635.172C1697.41 638.785 1697.98 642.918 1698.57 646.812C1699.35 651.998 1700.14 657.198 1700.87 662.398C1701.74 668.465 1702.54 674.558 1703.21 680.651C1700.9 680.318 1698.58 679.985 1696.27 679.665C1693.86 673.385 1691.19 667.105 1688.14 661.145C1679.87 644.998 1668.73 631.132 1652.01 625.318C1676.94 620.185 1700.73 609.465 1721.09 594.172C1730.43 587.145 1739.93 575.492 1734.81 564.958C1732.75 560.745 1728.73 557.878 1724.75 555.398C1697.97 538.678 1665.62 531.052 1634.18 534.038C1686.63 518.558 1735.41 490.785 1785.14 448.452C1772.99 473.932 1755.82 496.999 1734.9 515.945C1744.03 525.412 1752.82 535.572 1758.09 547.652Z" fill="#E0AFA1"/>
<path d="M1848.65 381.958C1779.34 399.385 1709.09 419.905 1650.96 461.465C1623.88 480.825 1597.66 505.425 1564.57 508.905C1558.28 509.571 1551.76 509.398 1545.82 507.198C1537.61 504.158 1531.28 497.598 1525.25 491.238C1520.01 485.705 1514.77 480.185 1509.53 474.652C1503.26 468.052 1496.52 459.665 1498.88 450.878C1500.45 445.038 1505.7 440.998 1510.93 437.932C1525.57 429.358 1542.24 425.025 1558.72 421.065C1652.21 398.638 1747.86 385.265 1848.65 381.958Z" fill="#E0AFA1"/>
<path d="M1852.21 703.358C1851.09 703.771 1850.05 704.145 1849.1 704.491L1847.66 704.091C1799.67 695.358 1751.51 687.518 1703.22 680.638C1700.91 680.305 1698.59 679.971 1696.29 679.651C1637.47 671.358 1578.45 664.411 1519.31 658.865C1575.14 652.411 1631.94 655.758 1688.15 661.145C1692.41 661.545 1696.65 661.971 1700.89 662.398C1701.45 662.451 1702.01 662.505 1702.57 662.558C1719.37 664.265 1736.18 666.091 1752.79 669.131C1787.39 675.438 1821.05 687.038 1852.21 703.358Z" fill="#E0AFA1"/>
<path d="M1423.47 639.625C1415.02 636.278 1407.23 631.265 1400.69 624.958C1396.83 621.238 1393.29 616.838 1392.22 611.598C1391.15 606.358 1392.67 600.931 1392.27 595.598C1392.21 594.745 1392.07 593.825 1391.5 593.185C1391.05 592.678 1390.41 592.425 1389.78 592.198C1384.11 590.171 1377.58 590.051 1372.27 592.878C1366.97 595.705 1363.3 601.851 1364.33 607.785C1365.37 613.825 1370.61 618.171 1375.77 621.465C1390.65 630.918 1407.74 636.265 1423.47 639.625Z" fill="#99685A"/>
<path d="M1872.11 375.332C1861.67 377.758 1851.26 380.052 1840.87 382.238H1840.86C1840.85 382.238 1840.85 382.238 1840.83 382.238C1840.82 382.238 1840.82 382.238 1840.81 382.238C1777.18 395.638 1714.5 404.798 1651.61 411.958C1623.77 418.558 1590.49 427.478 1558.37 439.492C1544.39 444.718 1529.93 451.078 1521.17 463.158C1517.95 467.612 1515.27 472.985 1511.54 476.812C1509.61 478.798 1507.39 480.372 1504.66 481.172C1498.06 483.132 1491.23 479.705 1484.55 478.038C1470.53 474.572 1455.94 478.998 1441.69 481.385C1428.31 483.612 1414.63 484.025 1401.15 482.598C1394.23 481.878 1387.19 480.692 1380.43 482.318C1373.69 483.972 1367.25 489.398 1366.42 499.545C1360.39 499.705 1355.7 504.865 1352.9 510.198C1351.25 513.358 1349.94 516.731 1348.33 519.905C1347.21 522.091 1345.95 524.185 1344.3 526.011C1336.07 518.145 1327.71 510.078 1321.97 500.331C1321.14 498.932 1320.37 497.518 1319.66 496.052C1318.11 492.838 1316.87 489.305 1317.35 485.772C1317.59 484.092 1318.21 482.505 1319.13 481.078C1320.81 478.385 1323.51 476.225 1326.45 474.878C1330.94 472.825 1335.95 472.358 1340.86 471.892C1328.99 464.318 1313.45 469.585 1300.46 475.012C1288.45 480.038 1276.38 485.078 1265.18 491.732C1259.83 494.892 1254.61 498.438 1248.63 500.132C1242.66 501.812 1235.61 501.252 1231.17 496.932C1224.47 490.438 1226.98 478.372 1233.91 472.132C1240.85 465.878 1250.58 463.998 1259.82 462.652C1272.45 460.785 1285.15 459.478 1297.9 458.705C1306.41 458.185 1314.98 457.918 1323.43 459.038C1335.19 460.625 1348.46 464.585 1357.97 457.452C1355.22 453.545 1349.81 452.878 1345.06 452.558C1321.23 450.958 1297.37 449.358 1273.5 448.798C1271.27 448.732 1269.03 448.692 1266.81 448.665C1257.99 448.532 1249.14 448.558 1240.34 448.145C1240.34 448.145 1240.33 448.145 1240.31 448.145C1231.81 447.772 1223.31 447.012 1214.95 445.358C1204.86 443.372 1194.83 439.945 1186.02 434.705C1186.79 434.812 1187.59 434.918 1188.37 435.025C1209.41 437.758 1230.5 440.038 1251.62 441.852C1262.93 442.838 1274.23 443.692 1285.55 444.385C1319.77 446.558 1353.98 447.518 1388.03 447.292C1393.26 447.252 1398.47 447.185 1403.7 447.105C1452.87 437.625 1502.11 428.118 1550.33 414.638C1583.59 405.332 1616.41 394.118 1650.41 388.172C1667.33 385.212 1684.43 383.572 1701.54 382.092C1754.38 377.518 1807.37 374.492 1860.05 372.638C1864.07 373.505 1868.09 374.425 1872.11 375.332Z" fill="#99685A"/>
<path d="M1289.78 592.931C1279.29 591.385 1268.96 588.758 1259.01 585.118C1257.45 584.545 1255.85 583.931 1254.61 582.825C1251.93 580.438 1251.4 576.291 1248.76 573.851C1245.78 571.091 1241.08 571.331 1237.61 569.225C1233.57 566.785 1232 561.785 1231.02 557.171C1229.84 551.531 1229.05 545.811 1228.69 540.065C1236.05 553.558 1247 564.745 1258.54 574.878C1266.37 581.745 1275.46 588.558 1289.78 592.931Z" fill="#99685A"/>
<path d="M980.609 436.838C996.329 438.078 1011.9 441.132 1026.94 445.905C1007.94 448.732 988.876 451.358 969.716 452.652C948.449 454.078 927.01 453.865 905.916 457.038C893.863 458.852 882.01 461.758 870.13 464.452C859.116 466.945 848.063 469.252 836.996 471.372C774.717 483.292 711.597 489.345 650.49 489.918C631.663 488.598 612.837 487.265 594.01 485.932C567.45 484.065 540.89 482.185 514.33 480.318C483.597 478.145 452.864 475.985 422.144 473.825C415.664 473.372 409.197 472.905 402.717 472.452C373.184 470.358 342.931 468.105 315.971 455.892C332.997 458.558 350.037 461.238 367.064 463.905C386.424 466.945 405.997 469.985 425.53 468.412C426.73 468.305 427.904 468.198 429.104 468.078C430.731 468.385 432.344 468.638 433.984 468.852C434.957 468.972 435.917 469.078 436.89 469.172H436.904C444.424 469.878 451.944 469.572 458.904 469.238C473.757 472.852 488.824 476.465 504.104 476.118C513.784 475.905 523.357 474.092 533.037 473.985C554.77 473.732 575.97 482.065 596.73 481.785C597.997 481.772 599.263 481.718 600.53 481.652C685.143 487.265 768.383 467.878 851.916 451.345C851.956 451.332 851.983 451.332 852.023 451.318C882.876 445.238 913.783 439.518 944.809 435.598C976.423 434.852 1007.38 426.758 1038.89 423.985C1073.42 420.932 1107.98 424.318 1142.46 428.825C1088.46 430.265 1034.5 432.958 980.609 436.838Z" fill="#99685A"/>
<path d="M191.503 447.478C191.769 447.585 192.049 447.678 192.316 447.772C196.409 449.172 200.823 449.892 204.983 450.492C205.863 450.598 206.729 450.732 207.609 450.852C213.236 451.625 219.049 452.425 224.316 454.478C225.076 454.772 225.823 455.078 226.583 455.425C227.089 455.638 227.583 455.865 228.089 456.105C229.636 456.798 231.236 457.518 232.876 458.078C235.996 459.158 239.276 459.665 242.369 460.105C242.369 460.105 236.303 457.932 233.276 456.905C231.676 456.358 230.116 455.652 228.596 454.958C228.089 454.732 227.596 454.505 227.089 454.278C226.316 453.945 225.543 453.625 224.769 453.305C219.383 451.212 213.476 450.398 207.783 449.625C206.903 449.505 206.036 449.372 205.156 449.252C201.063 448.692 196.703 447.972 192.716 446.612C192.116 446.398 191.516 446.172 190.916 445.945L190.689 446.505L191.503 447.478Z" fill="#99685A"/>
<path d="M227.729 481.545C225.503 482.211 223.129 482.531 220.556 482.531C218.849 482.531 217.049 482.398 215.156 482.091C210.889 481.438 206.596 480.131 202.449 478.865C200.996 478.411 199.543 477.971 198.103 477.558C193.33 476.185 188.423 475.118 182.996 473.971L182.25 473.825C178.436 473.011 174.49 472.171 170.676 471.198C163.97 469.518 158.703 467.691 154.156 465.491L154.436 464.932C155.49 465.158 156.57 465.478 157.703 465.918C157.556 465.798 157.41 465.652 157.263 465.518C161.13 467.172 165.57 468.625 170.983 469.998C174.796 470.958 178.73 471.785 182.516 472.598L183.236 472.745C188.703 473.905 193.623 474.972 198.449 476.358C199.889 476.772 201.356 477.211 202.809 477.665C206.916 478.918 211.183 480.211 215.356 480.865C219.916 481.558 227.729 481.545 227.729 481.545Z" fill="#99685A"/>
<path d="M201.318 508.665C205.038 508.958 208.785 508.825 212.478 508.305C213.025 509.251 212.572 510.545 211.705 511.211C210.838 511.878 209.678 512.038 208.585 512.011C206.145 511.958 203.732 511.038 201.358 509.345L201.318 508.665Z" fill="#99685A"/>
<path d="M203.743 544.411C202.93 546.291 201.823 548.038 200.49 549.598C200.17 549.958 199.836 550.331 199.37 550.478C198.783 550.678 198.13 550.465 197.53 550.251C196.756 549.971 195.996 549.705 195.223 549.425C193.89 548.958 192.556 548.478 191.223 547.998C191.036 547.931 190.836 547.865 190.65 547.785C191.45 547.691 192.183 547.478 192.77 547.078C193.29 546.745 193.676 546.278 193.93 545.638C194.276 544.705 194.17 543.825 193.73 543.051C193.116 541.918 191.863 540.958 190.463 540.251C193.263 540.371 196.063 540.798 198.77 541.478C200.196 541.825 201.596 542.251 202.97 542.758C203.343 542.891 203.77 543.078 203.903 543.465C204.01 543.785 203.89 544.118 203.743 544.411Z" fill="#99685A"/>
<path d="M1999.58 374.225V710.611L1943.7 712.665C1920.66 710.798 1897.57 709.665 1874.45 709.278C1863.3 709.078 1852.16 709.065 1841.01 709.211C1836.64 709.278 1832.26 709.358 1827.89 709.478C1829.69 708.491 1831.36 707.385 1832.93 706.158C1833.12 706.025 1833.3 705.865 1833.48 705.718C1834.06 705.251 1834.64 704.771 1835.18 704.265C1835.48 704.011 1835.74 703.745 1836.02 703.491C1836.16 703.371 1836.32 703.225 1836.45 703.091C1836.73 702.811 1837.01 702.531 1837.29 702.238C1837.48 702.065 1837.64 701.891 1837.82 701.691C1838.13 701.371 1838.41 701.065 1838.69 700.731C1839.53 699.785 1840.33 698.811 1841.08 697.785C1841.72 696.945 1842.33 696.078 1842.92 695.185C1843.21 694.745 1843.48 694.318 1843.74 693.878C1844.04 693.425 1844.3 692.971 1844.56 692.505C1845.2 691.425 1845.8 690.305 1846.38 689.171C1846.66 688.611 1846.93 688.038 1847.21 687.465C1847.49 686.891 1847.76 686.305 1848 685.718C1848.77 684.011 1849.45 682.265 1850.09 680.491C1850.22 680.131 1850.36 679.758 1850.46 679.411C1851.13 677.545 1851.73 675.638 1852.29 673.745C1852.52 672.985 1852.73 672.225 1852.93 671.465C1853.69 668.718 1854.34 665.958 1854.94 663.225C1855.18 662.158 1855.41 661.091 1855.62 660.038C1855.85 658.985 1856.06 657.931 1856.26 656.878C1869.77 587.732 1882.85 517.452 1877.66 447.265C1877.54 445.599 1877.41 443.932 1877.26 442.265C1877.08 440.132 1876.88 437.985 1876.64 435.812C1876.57 435.159 1876.5 434.505 1876.41 433.852C1876.25 432.439 1876.08 431.039 1875.88 429.625C1875.78 428.919 1875.69 428.212 1875.57 427.519C1875.46 426.825 1875.37 426.119 1875.25 425.425C1875.14 424.719 1875.02 424.012 1874.92 423.332C1874.38 420.159 1873.77 417.025 1873.05 413.892C1872.94 413.425 1872.84 412.959 1872.72 412.492C1872.61 411.972 1872.48 411.479 1872.34 410.959C1872.18 410.305 1872.01 409.665 1871.84 409.012C1871.25 406.745 1870.58 404.505 1869.85 402.319C1869.62 401.612 1869.4 400.932 1869.14 400.239C1868.96 399.692 1868.77 399.159 1868.57 398.612C1868.41 398.145 1868.24 397.705 1868.05 397.239C1867.25 395.145 1866.38 393.079 1865.44 391.065C1865.14 390.439 1864.85 389.812 1864.54 389.199C1864.24 388.599 1863.94 387.999 1863.62 387.399C1863.26 386.692 1862.88 385.985 1862.49 385.305C1862.16 384.745 1861.85 384.172 1861.5 383.612C1860.48 381.865 1859.38 380.172 1858.21 378.492C1857.36 377.279 1856.45 376.065 1855.5 374.879C1854.96 374.185 1854.4 373.505 1853.82 372.839C1853.72 372.732 1853.64 372.612 1853.53 372.505C1853.94 372.492 1854.37 372.492 1854.78 372.479C1860.41 372.372 1866.04 372.292 1871.68 372.239C1873.62 372.212 1875.57 372.199 1877.53 372.185C1880.05 372.159 1882.58 372.145 1885.12 372.132C1890.82 372.105 1896.54 372.105 1902.26 372.119C1911.21 372.159 1920.18 372.225 1929.17 372.359C1934.29 372.439 1939.41 372.519 1944.54 372.625C1962.9 372.985 1981.24 373.532 1999.58 374.225Z" fill="#AECCD1"/>
<path d="M1999.58 374.225V479.958C1993.87 477.705 1988.27 475.065 1982.54 472.958C1975.91 470.532 1969.1 468.812 1962.17 467.612C1957.09 466.732 1951.96 466.145 1946.77 465.745C1942.73 465.438 1938.69 465.265 1934.64 465.185C1931.17 465.118 1927.72 465.105 1924.26 465.145C1923.74 465.145 1923.24 465.158 1922.72 465.158C1912.09 465.265 1900.44 465.052 1891.26 460.838C1887.26 459.012 1883.73 456.438 1880.96 452.812C1879.65 451.105 1878.58 449.225 1877.69 447.265C1877.57 445.599 1877.44 443.932 1877.29 442.265C1877.1 440.132 1876.9 437.985 1876.66 435.812C1876.6 435.159 1876.53 434.505 1876.44 433.852C1876.28 432.439 1876.1 431.039 1875.9 429.625C1875.81 428.919 1875.72 428.212 1875.6 427.519C1875.49 426.825 1875.4 426.119 1875.28 425.425C1875.17 424.719 1875.05 424.012 1874.94 423.332C1874.41 420.159 1873.8 417.025 1873.08 413.892C1872.97 413.425 1872.86 412.959 1872.74 412.492C1872.64 411.972 1872.5 411.479 1872.37 410.959C1872.21 410.305 1872.04 409.665 1871.86 409.012C1871.28 406.745 1870.61 404.505 1869.88 402.319C1869.65 401.612 1869.42 400.932 1869.17 400.239C1868.98 399.692 1868.8 399.159 1868.6 398.612C1868.44 398.145 1868.26 397.705 1868.08 397.239C1867.28 395.145 1866.41 393.079 1865.46 391.065C1865.17 390.439 1864.88 389.812 1864.57 389.199C1864.26 388.599 1863.97 387.999 1863.65 387.399C1863.29 386.692 1862.9 385.985 1862.52 385.305C1862.18 384.745 1861.88 384.172 1861.53 383.612C1860.5 381.865 1859.41 380.172 1858.24 378.492C1857.38 377.279 1856.48 376.065 1855.53 374.879C1855.33 374.185 1855.12 373.492 1854.92 372.799C1854.88 372.692 1854.85 372.585 1854.81 372.465C1860.44 372.359 1866.06 372.279 1871.7 372.225C1873.65 372.199 1875.6 372.185 1877.56 372.172C1880.08 372.145 1882.61 372.132 1885.14 372.119C1890.85 372.092 1896.57 372.092 1902.29 372.105C1911.24 372.145 1920.21 372.212 1929.2 372.345C1934.31 372.425 1939.44 372.505 1944.57 372.612C1962.9 372.985 1981.23 373.532 1999.58 374.225Z" fill="#7A9CA1"/>
<path d="M1999.58 537.092V573.558C1998.41 574.092 1997.25 574.598 1996.07 575.118C1984.99 580.025 1971.21 584.665 1961.65 577.225C1960.43 576.278 1959.35 575.172 1958.41 573.985C1954.98 569.718 1952.9 564.158 1950.34 559.185V559.158C1947.95 554.478 1945.13 550.358 1940.35 548.385C1943.73 546.865 1947.17 545.638 1950.67 544.612C1954.58 543.465 1958.57 542.585 1962.61 541.865C1963.61 541.692 1964.62 541.532 1965.62 541.358C1976.83 539.598 1988.34 538.878 1999.58 537.092Z" fill="#7A9CA1"/>
<path d="M1999.58 663.398V710.611L1943.7 712.665C1920.66 710.798 1897.57 709.665 1874.45 709.278C1863.3 709.078 1852.15 709.065 1841.01 709.212C1839.99 706.918 1839.03 704.638 1838.1 702.372C1838.01 702.145 1837.91 701.905 1837.82 701.678C1837.71 701.411 1837.61 701.145 1837.49 700.891C1837.89 700.838 1838.27 700.785 1838.69 700.731C1839.98 700.558 1841.25 700.385 1842.54 700.198H1842.55C1843.46 700.078 1844.34 699.945 1845.25 699.825H1845.26C1847.7 699.491 1850.15 699.158 1852.59 698.825C1858.17 698.065 1863.73 697.305 1869.29 696.532C1869.31 696.532 1869.34 696.518 1869.37 696.518C1873.87 695.905 1878.38 695.305 1882.89 694.651C1885.77 694.251 1888.63 693.838 1891.51 693.425H1891.53C1915.26 689.932 1938.9 685.691 1961.73 678.398C1974.74 674.252 1987.31 669.172 1999.58 663.398Z" fill="#7A9CA1"/>
<path d="M1919.65 528.425C1915.01 580.798 1908.37 633.785 1888.37 682.438C1886.69 686.545 1884.88 690.665 1882.9 694.651C1880.41 699.718 1877.65 704.638 1874.45 709.278C1863.3 709.078 1852.16 709.065 1841.01 709.211C1836.64 709.278 1832.26 709.358 1827.89 709.478C1831.72 707.371 1835 704.731 1837.84 701.678C1837.73 701.411 1837.62 701.145 1837.5 700.891C1837.9 700.838 1838.29 700.785 1838.7 700.731C1849.01 689.091 1853.3 672.131 1856.29 656.878C1869.8 587.732 1882.88 517.452 1877.69 447.265C1877.57 445.599 1877.44 443.932 1877.29 442.265C1875.21 418.399 1870.42 393.479 1855.57 374.879C1854.94 374.079 1854.28 373.279 1853.6 372.505C1854.01 372.492 1854.44 372.492 1854.85 372.479C1870.64 372.185 1886.46 372.079 1902.34 372.132C1913.1 393.159 1918.92 416.719 1921.3 440.319C1922.14 448.585 1922.58 456.892 1922.73 465.185C1923.08 486.238 1921.52 507.398 1919.65 528.425Z" fill="#495B5E"/>
<path d="M1801.1 534.399C1797.87 526.959 1800.78 518.532 1804.38 511.225C1807.98 503.919 1812.38 496.505 1812.14 488.505C1811.93 481.425 1808.06 474.892 1803.81 468.972C1798.27 461.265 1791.87 454.079 1784.77 447.532C1781.89 444.879 1778.77 442.279 1774.93 440.999C1771.3 439.785 1767.33 439.879 1763.49 439.399C1757.58 438.665 1751.98 436.599 1746.22 435.185C1739.3 433.492 1732.14 432.759 1725.01 432.039C1710.77 430.585 1696.54 429.145 1682.3 427.692C1676.5 427.105 1670.67 426.505 1664.85 426.679C1655.66 426.945 1646.54 429.119 1638.38 432.999C1625.02 439.359 1614.74 449.892 1604.78 460.212C1597.97 467.265 1591.15 474.319 1584.34 481.372C1580.49 485.359 1576.54 489.505 1574.71 494.545C1573.21 498.719 1573.26 503.199 1573.33 507.599C1573.53 520.812 1573.74 534.025 1573.94 547.239C1573.98 549.399 1574.03 551.639 1575.06 553.585C1579.17 561.359 1592.81 557.639 1600.63 562.479C1602.83 563.839 1604.49 565.852 1606.71 567.185C1614.82 572.025 1625.09 565.945 1634.54 563.985C1644.63 561.892 1655.07 564.772 1664.94 567.625C1674.35 570.345 1683.77 573.065 1693.17 575.785C1709.23 580.438 1726.73 585.078 1742.57 579.825C1757.73 574.798 1768.94 561.345 1784.87 559.105C1789.07 558.519 1794.02 558.479 1796.57 555.372C1797.82 553.852 1798.18 551.892 1798.51 550.012C1799.65 543.452 1802.11 536.745 1801.1 534.399Z" fill="url(#paint0_radial_101_566)"/>
<path d="M1793.15 515.732C1794.65 512.505 1795.33 509.012 1795.86 505.532C1797.23 496.612 1797.74 487.358 1794.93 478.718C1792.11 470.079 1785.54 462.079 1776.25 459.012C1773.31 458.039 1770.15 457.572 1767.43 456.159C1765.11 454.959 1763.26 453.159 1761.1 451.732C1758.22 449.825 1754.86 448.639 1751.54 447.492C1734.06 441.465 1716.07 436.105 1697.45 434.759C1684.19 433.799 1670.75 434.905 1657.91 438.025C1655.5 438.612 1653.07 439.279 1650.94 440.439C1648.73 441.652 1646.89 443.345 1644.97 444.919C1632.31 455.252 1614.7 460.839 1605.59 473.919C1602.54 478.292 1600.65 483.278 1597.55 487.625C1591.22 496.518 1579.69 503.252 1578.77 513.838C1578.39 518.132 1579.93 522.358 1581.43 526.452C1582.98 530.625 1584.53 534.798 1586.07 538.985C1587.09 541.705 1588.1 544.452 1589.81 546.865C1594.35 553.292 1603.07 556.278 1611.43 556.958C1619.79 557.638 1628.18 556.398 1636.55 556.412C1647.26 556.438 1657.94 558.532 1667.71 562.505C1675.89 565.838 1683.73 570.545 1692.65 571.145C1699.66 571.625 1707.33 569.598 1713.39 572.852C1715.98 574.238 1717.95 576.465 1720.62 577.718C1728.43 581.398 1737.19 575.438 1744.65 571.185C1752.05 566.972 1760.35 564.225 1767.69 559.905C1775.02 555.598 1781.59 549.132 1782.53 541.225C1780.69 538.918 1789.3 524.038 1793.15 515.732Z" fill="#E09F89"/>
<path d="M1785.9 518.505C1785.9 518.505 1768.9 555.065 1750.69 564.425C1736.75 571.585 1719.61 571.932 1704.06 568.545C1688.51 565.158 1674.17 558.332 1659.97 551.625C1653.76 548.692 1647.38 545.732 1640.46 544.799C1632.33 543.705 1624.1 545.492 1615.9 546.158C1607.7 546.825 1598.66 546.065 1592.65 540.932C1586.86 535.985 1585.3 527.945 1586.7 520.825C1588.1 513.705 1592.06 507.239 1595.94 500.919C1608.89 479.852 1623.92 457.145 1648.91 449.239C1655.9 447.025 1663.34 446.119 1670.19 443.599C1674.42 442.052 1678.37 439.919 1682.67 438.572C1691.03 435.985 1700.14 436.572 1708.94 437.212C1714.15 437.585 1719.73 438.092 1723.75 441.145C1726.07 442.919 1727.66 445.385 1729.99 447.145C1733.95 450.119 1739.39 450.585 1744.38 451.625C1751.93 453.185 1758.97 456.265 1765.91 459.359C1773.91 462.905 1782.18 466.705 1787.65 473.105C1796.78 483.799 1795.78 499.452 1789.33 511.665C1787.46 515.292 1785.9 518.505 1785.9 518.505Z" fill="url(#paint1_radial_101_566)"/>
<path d="M1756.27 558.519C1750.38 561.999 1741.71 567.332 1734.43 571.745C1733.17 572.519 1731.79 573.305 1730.27 573.305C1728.75 573.305 1727.14 572.092 1727.45 570.732C1727.63 569.919 1728.41 569.332 1729.13 568.812C1730.79 567.639 1732.45 566.465 1734.11 565.279C1737.83 562.639 1741.55 560.012 1745.27 557.372C1747.91 555.505 1750.59 553.612 1753.69 552.492C1756.78 551.372 1762.1 549.639 1763.41 552.439C1765.17 556.252 1757.31 557.905 1756.27 558.519Z" fill="#F6DCDD"/>
<path d="M1779.98 513.612C1782.83 507.985 1784.03 496.665 1790.71 497.825C1793.61 498.332 1791.41 503.252 1790.21 505.705C1787.78 510.652 1781.57 513.798 1780.47 519.132C1779.82 522.332 1781.1 527.692 1777.55 528.078C1776.79 528.158 1777.38 518.718 1779.98 513.612Z" fill="#E39D9D"/>
<path d="M1786.71 485.759C1785.03 479.985 1782.42 473.612 1776.39 471.279C1774.68 470.612 1772.78 470.332 1771.24 469.372C1769.71 468.425 1768.55 466.332 1769.72 465.012C1771.28 463.252 1774.34 463.172 1776.66 463.985C1778.98 464.799 1780.83 466.425 1782.48 468.119C1787.48 473.212 1795.24 481.559 1790.22 486.639C1789.22 487.639 1786.99 486.705 1786.71 485.759Z" fill="#FDACAE"/>
<path d="M1712.12 442.079C1714.98 446.852 1722.18 447.119 1727.74 449.065C1735.42 451.759 1740.99 458.465 1748.96 460.305C1750.36 460.625 1751.99 460.745 1753.12 459.919C1754.26 459.092 1728.18 442.105 1712.12 442.079Z" fill="#E2A094"/>
<path d="M1664.73 441.532C1662.93 442.852 1660.13 441.412 1657.85 441.092C1655.57 440.772 1653.15 440.585 1651.01 441.359C1648.86 442.132 1647.1 444.172 1647.5 446.239C1647.9 448.319 1651.13 449.612 1652.73 448.092C1648.21 449.919 1643.7 451.732 1639.18 453.559C1638.13 453.985 1636.86 454.999 1637.53 455.852C1637.71 456.092 1638.01 456.225 1638.29 456.345C1642.46 458.025 1647.25 456.279 1651.41 454.545C1655.01 453.052 1658.61 451.545 1662.21 450.052C1663.98 449.319 1665.79 448.559 1667.14 447.279C1668.49 445.999 1669.3 444.079 1668.62 442.425C1667.94 440.772 1666.34 440.345 1664.73 441.532Z" fill="#FEBEBE"/>
<path d="M1770.35 516.972C1772.35 513.305 1770.83 508.412 1773.85 505.385C1774.71 504.505 1775.78 503.799 1776.61 502.879C1778.21 501.105 1778.79 498.772 1779.31 496.532C1779.9 494.052 1780.49 491.519 1780.23 488.999C1779.99 486.679 1779.06 484.465 1777.93 482.372C1775.03 476.985 1769.1 467.319 1763.79 470.839C1759.51 473.679 1763.35 480.545 1764.73 485.199C1766.15 490.012 1768.7 494.892 1767.45 499.745C1766.07 505.065 1760.26 509.332 1760.91 514.772C1761.1 516.279 1761.78 517.719 1761.97 519.225C1762.34 522.359 1759.71 536.452 1770.35 516.972Z" fill="#F16E2B"/>
<path d="M1766.61 523.892C1767.91 528.905 1766.51 534.452 1762.93 538.425C1759.41 542.345 1754.17 544.585 1749.13 546.705C1752.19 543.399 1754.25 539.319 1755.03 535.039C1755.19 534.185 1755.31 533.279 1755.93 532.625C1756.74 531.732 1758.14 531.572 1759.35 531.212C1762.62 530.239 1765.03 527.225 1766.61 523.892Z" fill="#DF523C"/>
<path d="M1730.43 559.932C1733.26 558.545 1735.82 556.705 1737.97 554.532C1730.94 551.252 1722.59 554.612 1714.71 555.012C1707.7 555.372 1700.55 553.212 1695.18 549.079C1693.05 547.439 1691.15 545.492 1688.73 544.265C1685.82 542.799 1682.42 542.465 1679.21 541.705C1674.58 540.625 1670.23 538.612 1666.54 535.852C1665.39 534.999 1664.06 533.999 1662.61 534.305C1660.55 534.732 1660.18 537.372 1661.1 539.105C1662.83 542.372 1666.99 543.825 1670.77 544.985C1675.93 546.572 1681.07 548.159 1686.23 549.732C1688.53 550.439 1690.87 551.172 1692.77 552.559C1694.01 553.465 1694.99 554.625 1696.07 555.679C1705.02 564.452 1720.77 564.679 1730.43 559.932Z" fill="#E78B7C"/>
<path d="M1731.55 545.065C1736.18 543.052 1741.06 540.852 1743.82 536.905C1746.58 532.958 1746.1 526.732 1741.53 524.625C1737.86 522.932 1733.53 524.465 1729.49 525.092C1715.37 527.292 1700.71 515.585 1701.23 502.519C1701.3 500.945 1701.5 499.212 1700.46 497.945C1697.13 493.865 1688.7 501.079 1684.85 497.385C1683.14 495.745 1683.83 492.972 1685.31 491.159C1686.81 489.345 1688.93 487.999 1690.23 486.065C1693.45 481.332 1689.45 474.079 1683.37 473.612C1673.21 472.852 1667.9 486.932 1657.71 487.185C1651.99 487.332 1646.91 482.865 1641.22 483.439C1637.31 483.839 1633.94 486.905 1633.49 490.465C1633.03 494.025 1635.57 497.719 1639.26 498.919C1643.86 500.399 1649.31 498.279 1653.69 500.225C1658.7 502.465 1659.54 508.705 1658.65 513.732C1657.82 518.345 1656.95 524.519 1661.66 526.359C1667.25 528.545 1671.91 521.292 1677.9 520.305C1683.79 519.332 1688.93 526.625 1685.5 531.118C1684.46 532.478 1682.81 533.705 1682.9 535.372C1682.94 536.145 1683.39 536.865 1683.94 537.465C1687.27 541.092 1693.51 540.598 1698.14 542.745C1702.59 544.798 1705.35 549.225 1709.91 551.105C1714.34 552.932 1719.67 551.945 1723.83 549.638C1727.99 547.332 1731.22 543.905 1731.55 545.065Z" fill="url(#paint2_radial_101_566)"/>
<path d="M1677.62 513.305C1680.38 512.372 1683.14 511.452 1685.91 510.519C1686.63 510.279 1687.39 510.012 1687.86 509.465C1688.66 508.519 1688.27 507.092 1687.39 506.212C1686.51 505.332 1685.27 504.852 1684.1 504.332C1681.19 503.012 1678.54 501.225 1676.31 499.065C1674.68 497.492 1673.14 495.639 1670.86 495.052C1667.22 494.132 1663.55 497.092 1662.56 500.425C1661.58 503.745 1662.48 507.265 1663.15 510.652C1663.82 514.039 1660.03 517.999 1662.31 520.732C1666.06 525.239 1672.91 514.879 1677.62 513.305Z" fill="#E7DBE0"/>
<path d="M1742.91 508.692C1743.57 505.705 1738.67 503.932 1735.91 502.225C1735.31 501.852 1734.66 501.479 1734.29 500.919C1733.55 499.799 1734.11 498.292 1735.1 497.345C1737.15 495.332 1740.74 495.012 1743.42 496.279C1746.1 497.532 1747.83 500.119 1748.38 502.812C1748.86 505.212 1748.31 507.972 1746.21 509.479C1744.1 510.985 1742.3 511.492 1742.91 508.692Z" fill="url(#paint3_radial_101_566)"/>
<path d="M1726.66 483.532C1724.93 482.172 1723.91 479.799 1724.94 477.932C1725.57 476.785 1726.85 476.025 1728.18 475.625C1733.23 474.079 1738.54 476.865 1742.99 479.545C1745.98 481.345 1748.97 483.132 1751.95 484.932C1752.46 485.239 1753.02 485.625 1753.01 486.172C1753.01 486.505 1752.79 486.799 1752.58 487.065C1750.85 489.305 1748.33 491.759 1745.39 491.185C1741.77 490.479 1740.49 485.652 1736.85 485.052C1734.97 484.745 1728.39 484.892 1726.66 483.532Z" fill="url(#paint4_radial_101_566)"/>
<path d="M1666.14 461.732C1662.99 463.386 1665.03 468.479 1662.26 470.612C1659.47 472.745 1655.5 473.505 1652.01 472.572C1649.94 472.012 1648.06 470.919 1645.97 470.465C1637.21 468.572 1629.54 478.252 1620.62 477.225C1623.33 469.412 1633.38 465.452 1642.35 465.946C1647.21 466.212 1652.66 467.332 1656.47 464.585C1659.31 462.545 1660.85 458.559 1664.45 458.239C1666.18 458.079 1669.31 460.066 1666.14 461.732Z" fill="#E75742"/>
<path d="M1622.88 522.892C1626.24 521.199 1629.72 519.399 1631.9 516.519C1634.09 513.639 1634.52 509.332 1631.82 506.825C1630.37 505.479 1628.28 504.879 1626.24 504.652C1619.77 503.932 1612.98 506.825 1609.42 511.812C1608.57 512.999 1607.89 514.345 1607.88 515.772C1607.86 517.785 1609.25 519.625 1610.97 520.892C1615.04 523.865 1621.08 523.798 1622.88 522.892Z" fill="#EEA755"/>
<path d="M1650.79 512.425C1652.39 514.145 1650.94 516.999 1650.15 519.132C1649.37 521.265 1647.53 523.239 1645.09 523.625C1643.58 523.865 1641.97 523.505 1640.51 523.945C1636.91 525.039 1636.57 530.079 1633.13 531.532C1630.83 532.505 1628.11 531.452 1625.61 531.839C1622.43 532.332 1619.47 535.105 1616.49 534.012C1614.05 533.119 1613.49 529.919 1614.89 527.892C1616.29 525.879 1618.99 524.919 1621.59 524.599C1624.19 524.279 1626.85 524.479 1629.43 524.119C1632.02 523.759 1634.71 522.732 1636.02 520.652C1636.71 519.545 1636.97 518.265 1637.53 517.092C1639.46 513.145 1647.3 508.652 1650.79 512.425Z" fill="#EEB3B2"/>
<path d="M1655.27 534.825C1653.27 541.785 1642.75 544.332 1634.9 543.598C1633.78 543.492 1632.54 543.238 1631.89 542.398C1630.81 540.998 1632.06 539.078 1633.54 538.038C1636.39 536.052 1640.31 535.398 1643.75 536.332C1644.83 536.625 1645.99 537.065 1647.05 536.705C1647.67 536.492 1648.14 536.038 1648.55 535.558C1650.91 532.838 1649.46 528.852 1651.18 525.758C1652.34 523.678 1656.19 526.985 1656.39 529.318C1656.61 531.665 1655.55 533.838 1655.27 534.825Z" fill="#FA9DA5"/>
<path d="M1618.38 536.505C1614.51 538.065 1610.34 539.279 1606.5 537.665C1602.66 536.039 1599.77 533.012 1597.33 529.852C1596.34 528.572 1595.41 527.252 1594.87 525.759C1594.31 524.212 1594.23 522.559 1594.29 520.919C1594.41 517.492 1595.93 513.305 1599.65 512.839C1603.35 512.385 1606.19 516.399 1605.65 519.772C1605.38 521.412 1604.58 522.959 1604.34 524.599C1603.74 528.759 1607.37 533.052 1611.94 533.559C1613.57 533.745 1615.29 533.505 1616.82 534.052C1618.35 534.599 1619.42 536.079 1618.38 536.505Z" fill="#FABEB5"/>
<path d="M1715.79 463.359C1706.43 456.519 1692.73 458.119 1680.74 458.359C1678.95 458.399 1676.57 457.959 1676.46 456.332C1676.42 455.665 1676.82 455.052 1677.23 454.505C1679.55 451.412 1683.73 448.545 1687.47 450.105C1688.78 450.652 1689.78 451.652 1690.82 452.572C1693.03 454.519 1695.77 456.172 1698.83 456.425C1702.3 456.719 1705.67 455.185 1709.15 455.239C1714.22 455.305 1722.29 459.932 1719.46 463.772C1717.75 466.079 1716.83 464.132 1715.79 463.359Z" fill="#F25026"/>
<defs>
<radialGradient id="paint0_radial_101_566" cx="0" cy="0" r="1" gradientUnits="userSpaceOnUse" gradientTransform="translate(1693.03 504.038) rotate(180) scale(128.398 117.181)">
<stop stop-color="#DB7A62"/>
<stop offset="0.448" stop-color="#DC7C64"/>
<stop offset="0.6093" stop-color="#DE826B"/>
<stop offset="0.7243" stop-color="#E28C76"/>
<stop offset="0.8173" stop-color="#E79B87"/>
<stop offset="0.897" stop-color="#EFAF9D"/>
<stop offset="0.9662" stop-color="#F8C7B8"/>
<stop offset="1" stop-color="#FDD5C8"/>
</radialGradient>
<radialGradient id="paint1_radial_101_566" cx="0" cy="0" r="1" gradientUnits="userSpaceOnUse" gradientTransform="translate(1690.62 503.298) rotate(180) scale(90.0464 82.1796)">
<stop stop-color="#BD0002"/>
<stop offset="0.5039" stop-color="#BA0002"/>
<stop offset="0.8398" stop-color="#B10001"/>
<stop offset="1" stop-color="#AA0000"/>
</radialGradient>
<radialGradient id="paint2_radial_101_566" cx="0" cy="0" r="1" gradientUnits="userSpaceOnUse" gradientTransform="translate(1689.79 512.683) rotate(180) scale(46.8545 49.4606)">
<stop stop-color="#FFB86B"/>
<stop offset="0.1977" stop-color="#FAAD5D"/>
<stop offset="0.418" stop-color="#F6A552"/>
<stop offset="0.5102" stop-color="#F5A150"/>
<stop offset="0.6009" stop-color="#F0954A"/>
<stop offset="0.6911" stop-color="#EA8141"/>
<stop offset="0.7809" stop-color="#E06633"/>
<stop offset="0.8705" stop-color="#D34222"/>
<stop offset="0.9588" stop-color="#C4170D"/>
<stop offset="1" stop-color="#BC0002"/>
</radialGradient>
<radialGradient id="paint3_radial_101_566" cx="0" cy="0" r="1" gradientUnits="userSpaceOnUse" gradientTransform="translate(1741.55 502.75) rotate(180) scale(21.2335 19.3786)">
<stop stop-color="#FECBDA"/>
<stop offset="1" stop-color="#B80001"/>
</radialGradient>
<radialGradient id="paint4_radial_101_566" cx="0" cy="0" r="1" gradientUnits="userSpaceOnUse" gradientTransform="translate(1739.06 482.971) rotate(180) scale(16.0684 12.4871)">
<stop stop-color="#FECBDA"/>
<stop offset="0.3853" stop-color="#FDC9D8"/>
<stop offset="0.5241" stop-color="#FBC3D1"/>
<stop offset="0.623" stop-color="#F8B8C5"/>
<stop offset="0.703" stop-color="#F3A8B5"/>
<stop offset="0.7716" stop-color="#EC939F"/>
<stop offset="0.8322" stop-color="#E47A83"/>
<stop offset="0.8872" stop-color="#DA5B63"/>
<stop offset="0.9376" stop-color="#CE383D"/>
<stop offset="0.9825" stop-color="#C21114"/>
<stop offset="1" stop-color="#BC0002"/>
</radialGradient>
</defs>
</svg>
