<?xml version="1.0" encoding="utf-8"?>
<!-- Generator: Adobe Illustrator 27.0.0, SVG Export Plug-In . SVG Version: 6.00 Build 0)  -->
<svg version="1.1" id="Слой_1" xmlns="http://www.w3.org/2000/svg" xmlns:xlink="http://www.w3.org/1999/xlink" x="0px" y="0px"
	 viewBox="0 0 1820 1230" style="enable-background:new 0 0 1820 1230;" xml:space="preserve">
<style type="text/css">
	.st0{fill:#9BAFBD;}
	.st1{fill:#728694;}
	.st2{fill:#FDD5C8;}
	.st3{fill:#FEE4DB;}
	.st4{fill:#E0AFA1;}
	.st5{fill:#99685A;}
	.st6{fill:#AECCD1;}
	.st7{fill:#7A9CA1;}
	.st8{fill:#495B5E;}
	.st9{fill:url(#SVGID_1_);}
	.st10{fill:#E09F89;}
	.st11{fill:url(#SVGID_00000003793679984600447440000014606208579153682103_);}
	.st12{fill:#F6DCDD;}
	.st13{fill:#E39D9D;}
	.st14{fill:#FDACAE;}
	.st15{fill:#E2A094;}
	.st16{fill:#FEBEBE;}
	.st17{fill:#F16E2B;}
	.st18{fill:#DF523C;}
	.st19{fill:#E78B7C;}
	.st20{fill:url(#SVGID_00000173126392619096831550000002726682062170851249_);}
	.st21{fill:#E7DBE0;}
	.st22{fill:url(#SVGID_00000067219541203288741590000017824732753724760479_);}
	.st23{fill:url(#SVGID_00000164499892885134991670000000035236659122926520_);}
	.st24{fill:#E75742;}
	.st25{fill:#EEA755;}
	.st26{fill:#EEB3B2;}
	.st27{fill:#FA9DA5;}
	.st28{fill:#FABEB5;}
	.st29{fill:#F25026;}
	.st30{fill:url(#SVGID_00000029010735032202503600000008583720392687270045_);}
	.st31{fill:url(#SVGID_00000001647083398306190620000006720969744825317556_);}
	.st32{fill:url(#SVGID_00000132054121485508306330000010095250845947413124_);}
	.st33{fill:url(#SVGID_00000028296947976555542810000007968578472288502206_);}
	.st34{fill:url(#SVGID_00000107582326712133036430000006630025105097137589_);}
	.st35{fill:url(#SVGID_00000053535076209133446660000016399520826847732130_);}
	.st36{fill:url(#SVGID_00000136379180329040583250000017234036330555103387_);}
	.st37{fill:url(#SVGID_00000004542767756827853630000003535044453106008197_);}
	.st38{fill:url(#SVGID_00000026132132945801415790000002758383436864991899_);}
	.st39{fill:url(#SVGID_00000151543813545262668600000006892777182760086417_);}
	.st40{fill:url(#SVGID_00000104696971173622234540000015819466580677873290_);}
	.st41{fill:url(#SVGID_00000165937417469818520910000002438160826712690365_);}
	.st42{fill:url(#SVGID_00000131351098596334525200000006262466528497858211_);}
	.st43{fill:url(#SVGID_00000103979737290865858620000000436881375913286819_);}
	.st44{fill:url(#SVGID_00000085238213609206957400000012344913805749341605_);}
	.st45{fill:url(#SVGID_00000138568276875797350220000015439076921008117645_);}
	.st46{fill:url(#SVGID_00000056411240568209372950000007524192359507228078_);}
	.st47{fill:url(#SVGID_00000044874778043597743870000002800084828287587753_);}
	.st48{fill:url(#SVGID_00000154411893534788120840000012532678190585880972_);}
	.st49{fill:url(#SVGID_00000012452937021078828040000013844113977078997134_);}
	.st50{fill:url(#SVGID_00000165209925090582125090000016020241219772512386_);}
	.st51{fill:url(#SVGID_00000171708787568480718120000008169829065642507447_);}
	.st52{fill:url(#SVGID_00000111892816631965408930000014270817749974198420_);}
	.st53{fill:url(#SVGID_00000003098998516981956810000008677963254510741653_);}
	.st54{fill:url(#SVGID_00000083808219886842167130000007031883494008378505_);}
	.st55{fill:url(#SVGID_00000126282066329929474950000018357024896918355350_);}
	.st56{fill:url(#SVGID_00000075867466999528363860000002013334311248968887_);}
	.st57{fill:url(#SVGID_00000162321937118542102390000013425478903464617388_);}
	.st58{fill:url(#SVGID_00000147183348433789952050000018016504778082692492_);}
	.st59{fill:url(#SVGID_00000010272698682565952960000000023074121113529223_);}
	.st60{opacity:0.4;fill:url(#SVGID_00000061439883637559384880000001918358425367007407_);}
	.st61{fill:url(#SVGID_00000134930228011330668330000008133586143028991921_);}
	.st62{fill:url(#SVGID_00000066516566225828632800000004746357461719444650_);}
	.st63{fill:url(#SVGID_00000061436928912515847800000002642418216107326377_);}
	.st64{fill:url(#SVGID_00000152946893435856147410000012715029274876438461_);}
	.st65{fill:url(#SVGID_00000171689760797253542060000002054284010698275988_);}
	.st66{fill:url(#SVGID_00000179620238798138142450000010735884802696750009_);}
	.st67{fill:url(#SVGID_00000097460196600560184630000010121191940610619303_);}
	.st68{fill:url(#SVGID_00000024709248866078857400000016512863557371096994_);}
	.st69{fill:#AD0000;}
	.st70{fill:url(#SVGID_00000091720318216302969490000014337675614489439872_);}
	.st71{fill:url(#SVGID_00000000923148508490262170000002979955563920256643_);}
	.st72{fill:url(#SVGID_00000011023935976883463310000001843731463442799790_);}
	.st73{fill:url(#SVGID_00000031180361710594046100000009353331722452875670_);}
	.st74{fill:url(#SVGID_00000145737378205351279930000005936465793153264827_);}
	.st75{fill:#BF9184;}
	.st76{fill:none;stroke:#FDD5C8;stroke-miterlimit:10;}
	.st77{fill:url(#SVGID_00000052797875430059410080000003719103777252274333_);}
	.st78{fill:url(#SVGID_00000176759987745268447860000010595234822446821545_);}
	.st79{fill:url(#SVGID_00000111182927943452812290000000143569362337784472_);}
	.st80{fill:url(#SVGID_00000050633645919476485860000011175507971031445941_);}
	.st81{fill:url(#SVGID_00000029018074665182293640000002258084327127555765_);}
	.st82{fill:url(#SVGID_00000101105371089798722270000002550504022916980115_);}
	.st83{fill:url(#SVGID_00000148643729995176051760000009802750120897185949_);}
	.st84{fill:url(#SVGID_00000065765970444121326180000017434904497902035635_);}
	.st85{fill:url(#SVGID_00000087392288530441367620000005629034408317901235_);}
	.st86{fill:url(#SVGID_00000148658549743595116260000016948874374926657713_);}
	.st87{fill:none;stroke:#E0AFA1;stroke-miterlimit:10;}
	.st88{fill:#59767A;}
	.st89{fill:none;}
	.st90{fill:#314042;}
	.st91{fill:url(#SVGID_00000159440920734086025850000009158274739781783450_);}
	.st92{fill:url(#SVGID_00000034054909042035659170000001001876472690433706_);}
	.st93{fill:url(#SVGID_00000082336969353643292200000002027510813203926946_);}
	.st94{fill:url(#SVGID_00000110461316403854381440000013124246301533023633_);}
	.st95{fill:url(#SVGID_00000152947441849698143560000017449465946682656954_);}
	.st96{fill:none;stroke:#99685A;stroke-miterlimit:10;}
	.st97{fill:#F2CEC4;}
	.st98{fill:#E1AFA1;}
	.st99{fill:url(#SVGID_00000148657024033849871900000007337506990103512476_);}
	.st100{fill:url(#SVGID_00000052090567129465876870000017051476310484499133_);}
	.st101{fill:url(#SVGID_00000135657087571287471000000012880919380346584992_);}
	.st102{fill:url(#SVGID_00000103959956665390129040000010445499917667049652_);}
	.st103{fill:url(#SVGID_00000157993474603786948370000009042640279169956525_);}
	.st104{fill:url(#SVGID_00000029041886535561031050000008648951746137863047_);}
	.st105{fill:url(#SVGID_00000062174356294731387050000010937725350289148802_);}
	.st106{fill:url(#SVGID_00000158742150452911081390000005644430641499752612_);}
	.st107{fill:url(#SVGID_00000062889501742018974980000012327304299859509126_);}
	.st108{fill:url(#SVGID_00000103969065131611570010000005931748674792220853_);}
	.st109{fill:#E39F8D;}
	.st110{fill:#C2553C;}
	.st111{fill:url(#SVGID_00000075136677377967401150000009181150382915936129_);}
	.st112{fill:url(#SVGID_00000182519167349491665270000002262267586193057161_);}
	.st113{fill:url(#SVGID_00000091735376290393339950000006532711979986444735_);}
	.st114{fill:#AD4024;}
	.st115{fill:url(#SVGID_00000037685180921009956570000000288799444429190569_);}
	.st116{fill:url(#SVGID_00000050631619836350752030000016291017891578936509_);}
	.st117{fill:url(#SVGID_00000133491043627373843940000007421691407563861385_);}
	.st118{opacity:0.5608;fill:#FFFFFF;}
	.st119{fill:#FFFFFF;}
	.st120{fill:#FFF1ED;}
	.st121{fill:#E6D7D3;}
	.st122{opacity:0.4392;fill:#E0AFA1;}
	.st123{fill:#FFD3C7;}
	.st124{opacity:0.3412;fill:#AAAD66;}
	.st125{opacity:0.2314;fill:#FFFFFF;}
	.st126{fill:#23282B;}
	.st127{fill:none;stroke:#99685A;stroke-linecap:round;stroke-linejoin:round;stroke-miterlimit:10;}
	.st128{fill:#495760;}
	.st129{fill:#353A3E;}
	.st130{fill:#3A474F;}
	.st131{fill:#709EB8;}
	.st132{fill:#8BB0C5;}
	.st133{fill:#31556B;}
	.st134{fill:#4E768F;}
	.st135{fill:#263F4F;}
	.st136{fill:#576975;}
	.st137{fill:none;stroke:#3A474F;stroke-miterlimit:10;}
	.st138{fill:#2F3943;}
	.st139{fill:#C78D7D;}
	.st140{fill:#421D13;}
	.st141{fill:#5E3E35;}
	.st142{fill:#806158;}
	.st143{fill:#EFC3B6;}
	.st144{fill:#C79789;}
	.st145{fill:none;stroke:#EFC3B6;stroke-miterlimit:10;}
	.st146{fill:#69483F;}
	.st147{fill:none;stroke:#806158;stroke-width:3;stroke-linecap:round;stroke-linejoin:round;stroke-miterlimit:10;}
	.st148{fill:#E8E8E8;}
	.st149{fill:#BACAD9;}
	.st150{fill:#694034;}
	.st151{fill:#658F85;}
	.st152{fill:#407065;}
	.st153{fill:#323C42;}
	.st154{fill:#B4CADE;}
	.st155{opacity:0.3294;fill:#C75B63;}
	.st156{fill:none;stroke:#5E3E35;stroke-width:4;stroke-linecap:round;stroke-linejoin:round;stroke-miterlimit:10;}
	.st157{fill:#4C6270;}
	.st158{fill:#7A4A3D;}
	.st159{fill:#252E37;}
	.st160{fill:#3E4852;}
	.st161{fill:none;stroke:#E0AFA1;stroke-linecap:round;stroke-linejoin:round;stroke-miterlimit:10;}
	.st162{fill:#BA8677;}
	.st163{fill:#313B45;}
	.st164{fill:none;stroke:#4E768F;stroke-miterlimit:10;}
	.st165{fill:#193646;}
	.st166{opacity:0.1882;fill:#FFFFFF;}
	.st167{fill:none;stroke:#421D13;stroke-miterlimit:10;}
	.st168{opacity:0.2196;fill:#1390D4;}
	.st169{opacity:0.2392;fill:#027DCF;}
	.st170{opacity:0.3216;fill:#FFFFFF;}
	.st171{fill:#CFCFCF;}
	.st172{fill:url(#SVGID_00000014632996744550912140000017386371638576147355_);}
	.st173{fill:url(#SVGID_00000078752637649009728850000002978912679876724386_);}
	.st174{opacity:0.749;fill:url(#SVGID_00000106111314787041774840000002528674004815937181_);}
	.st175{fill:url(#SVGID_00000132073931307473108070000014742375637006975117_);}
	.st176{fill:url(#SVGID_00000001666005963502370180000003441439841071890576_);}
	.st177{fill:#821111;}
	.st178{fill:url(#SVGID_00000007390569892721292530000000336149223944397220_);}
	.st179{fill:#BC0002;}
	.st180{fill:url(#SVGID_00000027586988257134816840000017209206481108683154_);}
	.st181{fill:url(#SVGID_00000018233924391250544320000012979970954382251704_);}
	.st182{fill:url(#SVGID_00000163794734017544704790000013435629066804693400_);}
</style>
<g>
	<rect class="st0" width="1820" height="1230"/>
	<path class="st1" d="M198.57,422.86c-12.57,32.25-25.08,64.97-29.23,99.34s0.85,71.06,20.77,99.36
		c19.85,28.2,52.02,45.04,84.25,57.31c37.65,14.33,77.13,23.86,117.17,28.3c37.99,4.21,78.79,4.61,110.22,26.36
		c23.08,15.96,37.64,41.25,51.27,65.78c14.79,26.62,29.87,56.52,22.93,86.17c-8.04,34.37-42.19,55.02-73.24,71.79
		c-29.99,16.2-59.98,32.4-89.97,48.6c-8.09,4.37-16.5,9.02-21.67,16.64c-10.24,15.09-4.14,35.7,4.56,51.72
		c8.32,15.32,19.37,30.03,35.04,37.68c25.38,12.39,56.1,3.29,80.65-10.66c24.55-13.95,46.82-32.71,73.76-41.17
		c25.83-8.11,54.94-6.39,78.26-20.13c21.8-12.84,34.33-36.78,43.98-60.17c11.57-28.05,20.64-57.13,27.06-86.79
		c6.54-30.19,13.14-65.15,40.15-80.15c14.56-8.08,32.13-8.28,48.72-6.91c102.78,8.46,204.37,68.3,306.64,45.55
		c38.16,5.23,74.98,20,106.17,42.6c25.13,18.2,46.9,41.51,74.85,54.98c27.95,13.46,65.9,13.93,85.77-9.89
		c9.53-11.43,13.36-26.51,15.68-41.21c13.86-87.91-15.63-183.81,20.64-268.96c17.19-9.7,8.6-38.73-9.3-47.03
		c-17.9-8.3-38.72-3.86-58.43-2.89c-19.71,0.97-43.11-4.29-50.66-22.52c-8.07-19.49,8.57-42,28.67-48.39
		c20.1-6.39,41.81-1.52,62.46,2.81c63.06,13.23,127.24,21.08,191.63,23.44c9.42,0.34,19.52,0.39,27.41-4.76
		c13.9-9.08,13.98-30.79,4.44-44.37c-9.54-13.58-25.52-20.88-40.89-27.15c-53.35-21.77-108.74-38.53-165.21-50
		c-46.38-9.42-96.26-14.92-139.65,3.97c-45.84,19.95-77.35,64.1-122.39,85.81c-27.29,13.15-57.92,17.27-87.96,21.22
		c-56.83,7.46-115.07,14.88-171,2.36c-46.81-10.48-90.29-34.61-137.95-40.03c-56.99-6.48-113.32,14.4-170.51,18.74
		C463.63,510.06,338.91,434.45,198.57,422.86z"/>
	<g>
		<path class="st133" d="M525.25,1055.39c10.59,11.16,21.93,21.62,33.9,31.29c1.06,0.86,2.31,1.76,3.66,1.55
			c1.49-0.24,2.41-1.73,3.06-3.09c7.7-16.25,4.51-37.03-7.72-50.22c-1.89-2.04-3.99-3.92-6.43-5.26c-4.96-2.73-11.2-2.97-16.35-0.65
			c-4.72,2.13-8.48,6.44-9.61,11.49C524.64,1045.55,526.32,1051.22,525.25,1055.39z"/>
		<g>
			<path class="st2" d="M687.18,567.85c-8.63,22.18-2.92,6.19-2.71,5.61c-8.89,17.15-17.97,34.41-30.32,49.26
				c-0.34,0.41-0.68,0.81-1.02,1.21c-12.88,15.11-29.79,27.57-49.11,31.08c2.64-7.88,5.28-15.76,7.92-23.65
				c-22.91,27.85-51.4,53.9-86.78,60.9c-26.7,5.28-54.19-0.92-80.71-7.09c-30.81-7.16-61.63-14.33-92.45-21.5
				c-10.52-2.45-21.14-4.93-30.9-9.58c-33.72-16.07-50.56-54.43-58.48-90.94c-2.19-10.08-3.92-20.38-3.75-30.66
				c0.04-2.21,0.17-4.41,0.39-6.61c1.48-14.28,7.18-27.77,13.54-40.64c19.01-38.46,44.6-73.66,71.5-103.26
				c15.09-1.37,30.14,2.3,44.86,5.94c42.71,10.58,85.42,21.15,128.13,31.72c-8.27-6.78-13.71-16.32-18.97-25.64
				c-1.84-3.28-3.76-7-2.77-10.64c1.97-7.23,12.42-6.99,19.37-4.19c26.36,10.64,46.28,35.83,50.56,63.92
				c12.46,5.37,24,12.88,33.95,22.11c1.18,1.09,2.37,2.23,3.85,2.87c1.71,0.75,3.63,0.75,5.49,0.8c13.48,0.34,26.88,3.73,38.91,9.83
				c15.89,8.06,29.45,21.07,37.04,37.19C692.32,532.01,693.64,551.24,687.18,567.85z"/>
			<path class="st143" d="M654.15,622.72c-0.34,0.41-0.68,0.81-1.02,1.21c-12.88,15.11-29.79,27.57-49.11,31.08
				c2.64-7.88,5.28-15.76,7.92-23.65c-22.91,27.85-51.4,53.9-86.78,60.9c-26.7,5.28-54.19-0.92-80.71-7.09
				c-9.8-2.28-19.61-4.56-29.42-6.84c-3.24-0.75-6.48-1.51-9.73-2.26c-17.76-4.13-35.53-8.27-53.3-12.4
				c-10.52-2.45-21.14-4.93-30.9-9.58c-33.72-16.07-50.56-54.43-58.48-90.94c-2.19-10.08-3.92-20.38-3.75-30.66
				c18.07,24.57,43.58,43.43,71.8,55.17c30.84,12.83,64.79,17.38,98.15,15.57c17.94-0.98,36.08-3.73,53.73-0.42
				c3.18,0.59,6.78,1.3,9.41-0.59c1.4-1.01,2.26-2.62,3.61-3.69c4.25-3.35,10.38,0.01,14.49,3.53c4.18,3.58,8.18,7.38,11.97,11.37
				c1.12,1.19,2.3,2.44,3.85,2.93c3.45,1.08,6.66-1.9,9.83-3.64c4.85-2.66,11.17-2.4,15.79,0.66c11.91-9.06,26.22-14.94,41.06-16.87
				c3.49,3.09,1.2,8.89,2.47,13.37c1.79,6.31,10.43,8.15,16.45,5.55c6.03-2.59,10.26-8.01,15.02-12.51
				c4.77-4.51,11.2-8.42,17.56-6.84c6.34,1.58,10.28,8.23,11.09,14.71C655.66,614.88,655.24,618.87,654.15,622.72z"/>
			<path class="st143" d="M470.72,607.21c-5.33-3.91-8.97-10.04-9.84-16.59c-0.38-2.84-0.26-5.71-0.09-8.57
				c0.85-15.1,2.86-30.32,8.31-44.43c2.04-5.28,4.56-10.38,6.52-15.69c2.76-7.48,4.42-15.37,4.89-23.33
				c-9.28,3.49-16.31,11.46-20.76,20.32c-4.45,8.86-6.64,18.65-8.83,28.31c-4.61,20.36-10,41.79-24.72,56.58
				c-1.06,1.07-2.25,2.26-2.3,3.76c-0.12,3.2,4.32,4.11,7.51,3.88C441.99,610.7,452.53,609.55,470.72,607.21z"/>
			<path class="st143" d="M526.01,596.07c-4.96-0.4-6.76-6.93-5.92-11.83c0.84-4.9,2.95-10.1,0.9-14.63
				c-1.06-2.34-3.1-4.11-4.2-6.42c-2.28-4.78-0.05-10.4,2.27-15.16c4.31-8.84,9.15-17.67,16.47-24.23
				c7.32-6.56,17.62-10.53,27.13-8.06c13.82,3.59,21.36,19.81,19.54,33.98c-1.82,14.16-10.68,26.38-20.21,37.02
				c-2.78,3.1-6.03,6.33-10.18,6.71c-1.14,0.11-2.33-0.03-3.3-0.63c-2.64-1.63-2.36-5.45-3.18-8.44c-1.45-5.28-7.8-8.63-12.97-6.82
				c-5.17,1.8-8.07,8.37-5.92,13.41c0.63,1.48,1.65,3.09,1.02,4.58S523.75,596.13,526.01,596.07z"/>
			<path class="st143" d="M583.22,598.74c5.16-3.68,8.69-9.57,9.51-15.85c0.32-2.45,0.26-5,1.17-7.3c0.9-2.3,3.18-4.34,5.62-3.91
				c2.1,0.37,3.54,2.47,3.85,4.57s-0.26,4.23-0.83,6.28c-1.26,4.53-2.51,9.06-3.77,13.59c-0.6,2.17-1.2,4.48-0.57,6.64
				c1.4,4.77,7.92,5.92,12.6,4.24c4.97-1.78,8.98-5.6,11.99-9.94c2.05-2.96,4.42-6.6,8.02-6.47c1.7,0.06,3.26,1.04,4.41,2.3
				c2.87,3.17,3.35,8.01,2.04,12.08c-1.3,4.07-4.14,7.49-7.25,10.42c-6.47,6.08-15.08,10.68-23.9,9.7
				C594.06,623.77,585.06,611.9,583.22,598.74z"/>
			<path class="st5" d="M601.94,647.2c14.3-16.59,21.02-38.34,25.56-59.76c2.31-10.91,4.17-21.97,4.41-33.12
				c0.71-32.65-12.48-64.25-30.27-91.64c23.72,30.24,36,69.24,33.89,107.61c-0.78,14.16-3.43,28.14-6.08,42.07
				c-1.62,8.56-3.25,17.11-4.87,25.67c-1.58,8.33-3.26,16.89-7.85,24.02c-1.23,1.91-3.27,3.91-5.45,3.25c-1.19-0.36-2-1.43-2.7-2.46
				C605.13,657.72,602.52,652.05,601.94,647.2z"/>
			<path class="st4" d="M479.81,636.58c-0.08,7.48-0.71,14.96-1.86,22.36c-0.2,1.26-0.71,2.83-1.99,2.94
				c-1.58,0.15-2.2-1.98-2.26-3.57c-0.27-7.46-0.53-14.93-0.8-22.39c-0.19-5.32-0.8-11.45-5.18-14.47
				c-3.51-2.42-8.4-1.88-12.11,0.22c-3.7,2.09-6.47,5.48-9.13,8.81c-11.95,14.94-23.58,30.41-31.45,47.85
				c-3.24-0.75-6.48-1.51-9.73-2.26c0-0.55,0.03-1.1,0.12-1.63c0.44-2.83,1.93-5.36,3.42-7.8c10.99-17.95,24.06-35.05,41.2-47.26
				c5.97-4.26,13.67-8,20.38-5.03c3.9,1.73,6.62,5.5,7.96,9.56C479.73,627.96,479.87,632.31,479.81,636.58z"/>
			<path class="st4" d="M508.61,634.46c-0.13,5.05,4.66,9.67,9.7,9.36c1.44-0.09,2.89-0.54,3.96-1.5c3.68-3.29,1-9.82,3.6-14.03
				c1.3-2.1,3.69-3.24,5.31-5.1c3.55-4.07,2.52-10.23,3.57-15.53c0.93-4.72,3.6-8.93,4.73-13.61s0.06-10.58-4.33-12.56
				c3.72-0.25,6.84,3.31,7.38,7c0.54,3.69-0.83,7.37-2.35,10.78c-1.52,3.41-3.24,6.85-3.46,10.57c-0.26,4.4,1.54,9.25-0.81,12.98
				c-1.18,1.87-3.2,3.05-4.57,4.77c-2.14,2.68-2.48,6.3-3.14,9.66c-0.66,3.36-2.02,7.01-5.13,8.44c-3.74,1.72-8.08-0.59-11.2-3.28
				C509.1,640.02,506.49,635.97,508.61,634.46z"/>
			<path class="st4" d="M540.31,620.03c1.51,1.14,2.5,2.83,3.85,4.16s3.43,2.27,5.12,1.41c1.86-0.94,2.14-3.75,0.9-5.43
				c-1.24-1.68-3.49-2.33-5.58-2.25C542.51,617.99,540.5,618.66,540.31,620.03z"/>
			<path class="st4" d="M483,539.16c-1.69,11.92-12.49,22.03-10.93,33.97c0.27,2.08,1.02,4.23,2.7,5.48
				c1.51,1.12,3.5,1.32,5.37,1.29c10.08-0.17,19.45-5.92,26.02-13.58c6.56-7.65,10.68-17.07,14.19-26.52
				c3.03-8.15,5.49-17.92,0.47-25.02c-1.27-1.8-3.27-3.39-5.46-3.1c-1.97,0.27-3.46,2.04-4.08,3.93c-0.62,1.89-0.57,3.93-0.68,5.92
				c-0.29,5.35-1.81,10.64-4.41,15.33c-0.63,1.13-1.35,2.27-2.45,2.96c-2.02,1.26-4.68,0.66-6.82-0.37s-4.16-2.47-6.51-2.86
				C486.03,535.88,481.48,539.75,483,539.16z"/>
			<path class="st4" d="M462.88,571.71c3.7-22.49,9.28-44.67,16.67-66.23c-8.35,3.06-13.23,11.66-16.45,19.95
				c-4.62,11.91-7.32,24.55-7.97,37.31c-0.18,3.5-0.19,7.09,0.94,10.41c0.4,1.17,1.01,2.37,2.12,2.92
				C459.32,576.62,462.1,576.43,462.88,571.71z"/>
			<path class="st4" d="M626.43,627.24c11.64-33.37,11.36-69.91,5.54-104.77c-1.04-6.22-2.26-12.45-4.42-18.38
				c-4.45-12.18-12.71-22.63-17.53-34.67c-0.69-1.72-1.31-3.58-0.91-5.38c1.05-4.77,7.69-5.3,12.42-4.07
				c9.14,2.39,17.62,7.26,24.28,13.96c7.7,7.75,12.82,17.65,17.52,27.52c3.93,8.24,7.67,16.62,9.95,25.46
				c4.51,17.44,3.05,36.36-4.08,52.9S649.31,610.4,626.43,627.24z"/>
			<path class="st5" d="M451.18,667.53c10.73-9.01,16.66-23.45,15.37-37.4c-0.09-1.01-0.21-2.11,0.31-2.99
				c0.52-0.88,1.96-1.24,2.53-0.4c0.24,0.36,0.26,0.82,0.27,1.25c0.1,4.45,0.21,8.9,0.31,13.35c0.03,1.3,0.07,2.65,0.69,3.8
				c1.15,2.15,3.98,3.01,5.04,5.2c1.1,2.29-0.15,4.96-1.39,7.18c-1.45,2.61-2.9,5.22-4.35,7.83c-1.28,2.31-2.63,4.7-4.75,6.28
				c-1.98,1.48-4.46,2.12-6.58,3.38c-0.64,0.38-1.31,0.83-2.06,0.81c-1.11-0.03-1.9-1.05-2.51-1.98
				C452.55,671.56,451.03,669.28,451.18,667.53z"/>
			<path class="st5" d="M486.71,564.92c8.81-7.96,18.01-16.87,20.15-28.55c1.81-9.89-1.84-20.15-0.15-30.06
				c1.28,4.15,2.57,8.29,3.85,12.44c0.44,1.41,0.97,2.95,2.26,3.67c1.89,1.06,4.52-0.15,6.29,1.09c1.94,1.36,1.21,4.54-0.45,6.24
				s-3.97,2.74-5.34,4.68c-1.35,1.91-1.58,4.42-1.22,6.73c1-0.86,2.68-0.01,3.13,1.23c0.44,1.24,0.05,2.61-0.34,3.87
				c-0.72,2.3-1.5,4.71-3.24,6.38c-1.74,1.67-4.76,2.27-6.53,0.64c0.97,2.65-1.06,5.51-3.45,7.01c-2.38,1.51-5.22,2.28-7.38,4.09
				c-1.09,0.91-1.97,2.06-3.11,2.9c-1.14,0.84-2.7,1.34-3.98,0.74C485.91,567.4,485.68,565.84,486.71,564.92z"/>
			<path class="st5" d="M553.99,654.27c0.26-4.69,0.52-9.38,0.78-14.07c0.06-1.14,0.13-2.31,0.62-3.33c0.85-1.81,2.78-2.81,4.21-4.2
				c5.44-5.26,3.02-14.61,6.35-21.41c1.05-2.13,2.64-3.95,3.91-5.96c5.18-8.22,5.39-20.11,13.69-25.18
				c1.38,4.77-2.31,9.33-5.27,13.32c-5.89,7.95-9.73,17.4-11.04,27.21c-0.43,3.26-0.61,6.61-1.89,9.64
				c-1.11,2.62-2.98,4.83-4.51,7.23C557.91,642.13,556.25,647.41,553.99,654.27z"/>
			<path class="st5" d="M575.2,631.36c0.03-12.35,6.16-24.54,16.05-31.92C585.12,608.91,578.86,618.69,575.2,631.36z"/>
			<path class="st5" d="M410.99,674.85c-1.25-2.6-0.99-5.73,0.06-8.42c1.05-2.69,2.81-5.03,4.55-7.34
				c8.98-11.9,18.03-23.88,28.66-33.85c-3.64,17.33-19.04,29.64-26.26,45.81c-0.8,1.79-1.65,3.8-3.45,4.61
				C412.76,676.47,410.06,674.79,410.99,674.85z"/>
			<path class="st5" d="M460.8,557.94c-1.13-8.1,1.46-16.51,6.31-23.09c0.19-0.26,0.4-0.52,0.7-0.61c0.92-0.27,1.34,1.11,1.27,2.07
				c-0.46,6.31-1.01,12.7-3.11,18.68c-0.31,0.87-0.66,1.75-1.3,2.41c-0.64,0.66-1.65,1.05-2.51,0.72
				C461.3,557.79,460.81,556.59,460.8,557.94z"/>
			<path class="st5" d="M534.43,424.07c2.44,2.06,4.88,4.11,7.32,6.17c1.95-0.81,2.35-3.53,1.55-5.49c-0.8-1.96-2.4-3.46-3.54-5.24
				c-2.84-4.44-2.71-10.4-5.93-14.58c-2.65-3.45-7.03-5-11.16-6.37c-1.42-0.47-2.89-0.95-4.37-0.77s-2.98,1.2-3.18,2.68
				c-0.13,0.91,0.25,1.82,0.68,2.64c1.46,2.82,3.65,5.25,6.28,7.02c2.23,1.5,4.77,2.51,6.88,4.19c2.1,1.67,3.77,4.29,3.26,6.93
				c-0.17,0.88-0.56,1.83-0.11,2.61c0.3,0.52,0.9,0.78,1.46,1C535.43,425.57,537.29,426.31,534.43,424.07z"/>
			<path class="st5" d="M502.53,388.76c11.59-1.33,23.68,2.47,32.42,10.21c4.6,4.07,8.26,9.12,12.93,13.1
				c0.48-2.23-1.16-4.31-2.68-6c-6.24-6.95-12.66-14.05-20.94-18.37c-4.77-2.49-9.99-3.97-15.17-5.44c-1.64-0.46-3.33-0.93-5.01-0.7
				c-1.68,0.23-3.37,1.36-3.7,3.02C499.94,386.77,502.55,388.9,502.53,388.76z"/>
			<path class="st3" d="M376.44,444.88c2.79,13.95,13.12,25,23,35.23c5.63,5.83,11.62,11.88,19.4,14.13
				c4.84,1.4,10.19,1.25,14.6,3.7c7.88,4.38,9.45,14.71,12.49,23.19c0.38,1.07,0.86,2.2,1.83,2.79c2.57,1.56,5.26-1.75,6.6-4.43
				c4.68-9.37,11.39-17.72,19.52-24.33c2.01-1.63,4.52-3.25,7.02-2.56c2.27,0.63,3.61,2.91,4.61,5.03
				c2.52,5.33,4.45,10.95,5.73,16.71c0.72,3.27,1.35,6.79,3.68,9.19c2.33,2.4,7.07,2.71,8.56-0.29c0.81-1.64,0.38-3.59,0.09-5.39
				c-1.11-6.86,0.1-14.08,3.4-20.19c8.76,3.55,16.92,8.58,24.02,14.8c1.2,1.05,2.4,2.16,3.88,2.76c2.48,1.02,5.3,0.47,7.91-0.1
				c9.44-2.08,19.61-4.29,26.95-2.33c11.3,3.93,18,16.23,18.84,28.17s-3.06,23.65-7.16,34.89c1.26-1.96,3.21-3.66,5.53-3.84
				s4.81,1.76,4.56,4.08c1.18-2.58,2.41-5.24,4.51-7.16c2.1-1.92,5.31-2.91,7.84-1.63c6.95,3.52,0.38,16.5,6.6,21.18
				c3.9,2.94,9.58-0.11,12.58-3.97c6.68-8.6,7.38-20.33,7.04-31.22c-0.56-18-3.26-36.09-9.92-52.82
				c-6.66-16.73-17.47-32.08-32.22-42.4c-9.07-6.35-19.38-10.68-29.07-16.06c-11.55-6.42-22.29-14.37-34.46-19.52
				c-10.62-4.49-22.04-6.72-33.36-8.91c-16.38-3.18-32.76-6.35-49.14-9.53c-4.61-0.89-9.25-1.79-13.94-1.68
				c-16.09,0.38-29.31,12.19-40.95,23.3c-2.82,2.69-5.68,5.44-7.57,8.84C376.99,438.92,376.33,444.32,376.44,444.88z"/>
			<path class="st3" d="M510.06,597.37c5.28,5.35,11.26,10.02,17.74,13.84c0.7,0.41,1.49,0.83,2.28,0.65
				c0.61-0.13,1.09-0.6,1.46-1.09c2.12-2.82,1.6-6.8,2.74-10.14c0.86-2.52,2.65-4.61,3.72-7.04c1.08-2.43,1.25-5.65-0.74-7.41
				c-1.7-1.5-4.3-1.33-6.48-0.68c-0.45,0.14-0.94,0.31-1.2,0.7c-0.35,0.5-0.22,1.18-0.07,1.77c0.57,2.28,1.34,4.57,1.23,6.92
				s-1.35,4.84-3.58,5.59c-3.16,1.06-6.17-1.68-9.19-3.12C515.06,595.98,511.59,595.8,510.06,597.37z"/>
			<path class="st3" d="M577.02,583.43c-3.19,6.63-6.75,13.09-10.65,19.33c-0.2,0.32-0.45,0.67-0.83,0.72
				c-0.62,0.07-0.96-0.73-0.96-1.36c-0.01-2.47,1.75-4.54,3.31-6.45C571.41,591.38,574.41,586.67,577.02,583.43z"/>
			<path class="st3" d="M584.6,596.75c-0.05-5.67,0.3-11.35,1.07-16.97c0.07-0.48,0.18-1.03,0.6-1.27c0.46-0.25,1.06,0.03,1.35,0.46
				c0.28,0.44,0.33,0.99,0.35,1.51C588.26,586.27,587.53,592.11,584.6,596.75z"/>
		</g>
		<g>
			<path class="st2" d="M567.29,1048.19c-0.55,0.19-1.11,0.38-1.67,0.57c-5.49,1.86-11.07,3.5-16.7,4.9
				c-9.68,2.42-19.54,4.15-29.47,5.18c-5.38,0.56-10.86,0.93-16.15,1.99h-0.01c-2.54,0.5-5.04,1.17-7.47,2.08
				c-4.17,1.57-8.02,3.85-11.85,6.12c-7.87,4.66-15.74,9.33-23.6,13.99c-1.28,0.76-2.56,1.52-3.85,2.26
				c-0.31,0.18-0.61,0.35-0.92,0.53c-0.16,0.09-0.31,0.18-0.47,0.27c-4,2.28-8.07,4.42-12.33,6.05c-0.75,0.29-1.5,0.57-2.27,0.82
				c-1.45,0.49-2.93,0.91-4.43,1.26c-8.71,2-18.59,0.99-25.42-4.79c-5.82-4.91-8.4-13.78-5.84-20.65c0.44-1.2,1.05-2.34,1.82-3.38
				c-0.43-0.14-0.86-0.31-1.28-0.49c-0.1-0.04-0.19-0.08-0.29-0.13c-1.47-0.64-2.84-1.51-4.08-2.55c-2.25-1.87-4.05-4.29-5.12-7.02
				c-1.64-4.13-1.59-8.89-0.29-13.31c0.19-0.66,0.41-1.32,0.66-1.96c-0.12-0.07-0.24-0.15-0.36-0.23c-0.28-0.17-0.55-0.35-0.83-0.53
				v-0.01c-1.7-1.11-3.33-2.37-4.78-3.79c-1.68-1.66-3.09-3.55-4.04-5.71c-1.96-4.45-1.48-10.23,1-15
				c-0.09-0.03-0.19-0.06-0.28-0.11c-0.38-0.13-0.75-0.3-1.1-0.49c-0.27-0.14-0.54-0.29-0.8-0.46c-2.14-1.34-3.79-3.43-5.04-5.75
				c-0.56-1.04-1.04-2.13-1.45-3.21c-1.36-3.64-2.14-7.68-1.02-11.41c1.72-5.74,7.33-9.18,14.12-12.46c0.43-0.2,0.86-0.4,1.3-0.61
				c-2.62-0.62-5.34-1.28-7.43-2.98c-0.23-0.19-0.45-0.39-0.64-0.61c-0.83-0.86-1.47-1.92-1.77-3.04c-0.33-1.18-0.29-2.41,0.25-3.51
				c0.47-0.93,1.23-1.67,1.99-2.39c0.39-0.37,0.77-0.74,1.16-1.11c3.09-2.96,6.19-5.92,9.28-8.88c2.64-2.52,5.31-5.07,8.52-6.8
				c11.68-6.33,25.8-0.27,38.55,3.5c13.73,4.06,29.63,6.18,38.25,17.62c1.15-0.31,2.31-0.57,3.48-0.8
				c10.79-2.17,22.14-1.24,32.56,2.36c9.22,3.18,17.71,8.45,24.45,15.52C555.6,1003.71,561.47,1024.14,567.29,1048.19z"/>
			<path class="st143" d="M454.61,1035.96c-3.3,2.77-7.46,4.24-11.48,5.79c-13.88,5.36-27.46,12.42-37.75,23.15
				c-1.58-0.66-3.05-1.57-4.37-2.68c1.2-1.73,2.71-3.28,4.2-4.79c6.46-6.56,13.2-13.31,21.82-16.54c6.45-2.43,13.62-2.73,19.82-5.74
				c4.93-2.38,8.93-6.32,12.39-10.55C460.24,1028.79,457.92,1033.2,454.61,1035.96z"/>
			<path class="st143" d="M448.97,1011c-1.53,2.86-5.2,3.62-8.39,4.23c-11.13,2.13-21.89,6.14-31.69,11.83
				c-2.26,1.31-4.5,2.73-6.36,4.58c-2.45,2.43-4.27,5.6-6.63,8.06c-2-1.25-3.93-2.68-5.61-4.33c8.06-7.76,16.65-15.25,27.22-18.69
				c4.92-1.6,10.11-2.26,14.97-4.03c4.86-1.77,9.57-4.97,11.37-9.82c0.35-0.95,0.67-2.06,1.58-2.52c0.97-0.49,2.21,0.06,2.85,0.93
				c0.65,0.88,0.85,1.99,1.03,3.07C449.69,1006.55,450.04,1008.99,448.97,1011z"/>
			<path class="st143" d="M431.81,989.01c0,0.4-0.05,0.81-0.24,1.16c-0.23,0.41-0.65,0.69-1.06,0.93c-3.1,1.85-6.68,2.69-10.16,3.64
				c-12.7,3.46-25.35,8.97-34.06,18.84c-0.14,0.16-0.28,0.32-0.42,0.48c-2.53-1.3-4.44-3.61-5.84-6.21
				c9.96-2.62,19.22-7.57,28.33-12.47c3.46-1.86,7.08-3.86,9.14-7.21c0.71-1.15,1.22-2.44,2.06-3.51c1.76-2.23,5-3.17,7.68-2.21
				C429.92,983.4,431.85,986.16,431.81,989.01z"/>
			<path class="st143" d="M416.81,970.56c-2.22,3.94-7.02,5.5-11.41,6.57c-4.16,1.02-8.44,1.9-12.69,1.38
				c-3.66-0.45-7.34-2.11-9.57-4.98c-0.33-1.18-0.29-2.41,0.25-3.51c0.47-0.93,1.23-1.67,1.99-2.39c0.39-0.37,0.77-0.74,1.16-1.11
				c2.89,1.53,6.41,2.02,9.73,1.97c4.2-0.07,8.39-0.85,12.31-2.37c3.41-1.32,6.6-3.21,9.41-5.55
				C418.26,963.96,418.48,967.59,416.81,970.56z"/>
			<path class="st143" d="M503.3,1060.83L503.3,1060.83c-2.55,0.5-5.05,1.17-7.48,2.08c-4.17,1.57-8.02,3.85-11.85,6.12
				c-7.87,4.66-15.74,9.33-23.6,13.99c-1.28,0.76-2.56,1.52-3.85,2.26c-0.93-1.24-1.63-2.69-2.09-4.17
				c-1.02-3.28-1.08-6.77-1.41-10.18c-0.79-8.03-3.17-15.9-6.98-23.01c-0.59-1.1-1.23-2.26-1.15-3.51c0.2-2.88,3.71-3.98,6.26-5.32
				c3.72-1.94,6.37-5.82,6.82-9.99c0.45-4.18-1.31-8.53-4.54-11.22c-1.25-1.05-2.74-1.9-3.54-3.33c-0.84-1.53-0.7-3.39-0.77-5.14
				c-0.3-8.03-6-15.59-13.64-18.08c-2.61-0.85-5.7-1.39-7.07-3.76c-0.53-0.92-0.71-2.01-1.19-2.96c-0.93-1.84-2.82-2.94-4.61-3.94
				c-3.08-1.71-6.15-3.42-9.23-5.14c2.52-5.49,3.86-11.53,4.61-14.8c-1,5.21,1.33,10.96,5.76,13.91c4.17,2.79,10.04,3.43,12.69,7.68
				c0.56,0.89,0.94,1.9,1.67,2.64c0.78,0.81,1.87,1.21,2.93,1.58c4.33,1.52,8.88,3.05,12,6.41c2.77,2.98,4.05,7.01,5.24,10.9
				c1.26,4.11,2.52,8.21,3.78,12.32c0.32,1.06,0.65,2.15,0.62,3.26c-0.05,1.2-0.51,2.33-0.86,3.47c-1.62,5.28-1.19,11.7-5.29,15.41
				c4.09,4.8,7.2,10.44,9.1,16.45c0.35,1.13,0.53,2.65-0.49,3.25c-0.84,0.5-1.91-0.02-2.75-0.54c-2.52-1.54-5.04-3.09-7.57-4.63
				c1.11,5.69,2.48,11.33,4.11,16.89c0.27,0.92,0.64,1.94,1.52,2.31c0.66,0.29,1.42,0.11,2.11-0.09
				c13.2-3.78,24.81-13.85,38.53-13.54c1.01,0.02,2.28,0.33,2.44,1.32C503.59,1060.11,503.46,1060.48,503.3,1060.83z"/>
			<path class="st4" d="M405.09,1064.77c1.18-1.78,2.41-3.56,3.91-5.11c2.53-2.6,5.66-4.38,8.68-6.09
				c8.47-4.79,17.23-9.75,26.75-12.69c0.53-0.17,1.09,0.13,1.26,0.66c0.16,0.52-0.14,1.08-0.66,1.25
				c-9.33,2.88-17.99,7.78-26.36,12.52c-2.91,1.65-5.91,3.34-8.23,5.74c-1.57,1.61-2.87,3.6-4.13,5.52
				c-0.48,0.74-0.96,1.48-1.47,2.2"/>
			<path class="st4" d="M395.07,1039.16c5.21-7.17,12.67-13.19,21.81-17.57c8.62-4.14,18.47-6.83,31.02-8.48
				c0.55-0.07,1.05,0.31,1.13,0.86c0.07,0.55-0.32,1.05-0.87,1.12c-12.33,1.62-21.99,4.26-30.41,8.3
				c-9.5,4.55-17.11,10.92-22.15,18.5L395.07,1039.16z"/>
			<path class="st4" d="M433.04,992.41c-9.76,2-19.22,4.16-27.72,8.53c-6.03,3.09-11.81,7.37-18.35,13.61
				c-0.38-0.13-0.75-0.3-1.1-0.49c-0.27-0.14-0.54-0.29-0.8-0.46c6.89-6.64,12.97-11.17,19.34-14.44
				c8.72-4.48,18.33-6.68,28.23-8.71c0.54-0.11,1.07,0.24,1.18,0.78C433.93,991.77,433.58,992.3,433.04,992.41z"/>
			<path class="st4" d="M428.77,986.26c-0.15,0-0.3-0.03-0.45-0.11c-0.49-0.25-0.69-0.85-0.45-1.34c3.83-7.63,8.2-15.31,15.82-18.19
				c0.52-0.2,1.09,0.06,1.29,0.58c0.19,0.52-0.07,1.09-0.58,1.29c-6.96,2.62-10.94,9.64-14.74,17.22
				C429.49,986.06,429.14,986.26,428.77,986.26z"/>
			<path class="st4" d="M465.69,1057.33c-0.2,0-0.41-0.06-0.59-0.19c-5.89-4.29-11.09-9.42-15.45-15.27
				c-0.33-0.44-0.24-1.07,0.2-1.4c0.44-0.33,1.07-0.24,1.4,0.2c4.24,5.68,9.29,10.68,15.02,14.84c0.45,0.33,0.55,0.95,0.22,1.4
				C466.31,1057.19,466,1057.33,465.69,1057.33z"/>
			<path class="st4" d="M440.53,1092.95c1.61-8.47-1.5-17.89-8.29-23.3c3.45-0.94,6.4-3.56,7.74-6.87
				c-0.17,9.83,2.21,19.54,2.82,29.35C442.05,1092.42,441.3,1092.7,440.53,1092.95z"/>
			<path class="st4" d="M501.37,1061.25c0.84-1.55,1.71-3.08,2.57-4.58c4.04-7.05,7.85-13.72,7.93-21.35
				c0.05-4.98-1.58-9.84-3.16-14.55l-7.78-23.24c-0.17-0.52,0.11-1.09,0.63-1.26c0.53-0.18,1.09,0.1,1.27,0.63l7.78,23.24
				c1.63,4.86,3.31,9.88,3.26,15.2c-0.08,8.15-4.21,15.36-8.2,22.33c-0.58,1-1.16,2.02-1.73,3.04"/>
			<path class="st5" d="M461.61,1029.88c-0.69,7.4-7.03,13.73-14.36,14.96c5.73,12.83,8.59,26.93,8.35,40.97
				c-0.01,0.61-0.03,1.23-0.05,1.85c-0.14-0.53-0.28-1.05-0.42-1.58c-2.61-9.92-5.22-19.86-7.83-29.79
				c-0.73-2.78-1.5-5.66-3.28-7.92c-1.78-2.27-4.85-3.79-7.59-2.88c4.2-7.55,17.41-6.58,20.55-14.62c1.42-3.65-0.03-7.92-2.6-10.87
				c-2.58-2.95-6.12-4.85-9.57-6.69c3.59-4.3,2.15-11.1-1.84-15.08c-3.99-3.98-9.9-5.52-15.54-5.52c1.36-3.06-0.34-6.79-3.04-8.75
				c-2.7-1.97-6.15-2.55-9.47-2.9c-7.72-0.8-15.48-0.63-23.24-0.29c0.43-0.2,0.86-0.4,1.3-0.61c-2.62-0.62-5.34-1.28-7.43-2.98
				c-0.23-0.19-0.45-0.39-0.64-0.61c2.98,0.57,6.27,0.41,9.31,0.15c4.99-0.43,10.12-0.89,14.62-3.11c4.5-2.21,8.29-6.61,8.27-11.63
				c1.08,4.72,1.29,9.63,0.63,14.43c3.79,0.88,7.7,1.82,10.82,4.16c3.11,2.34,5.23,6.48,4.01,10.18c5.2-1.21,10.67,1.3,14.5,5.01
				c2.42,2.34,4.41,5.26,5.07,8.57c0.66,3.3-0.18,7.01-2.64,9.3C456.83,1014.84,462.3,1022.48,461.61,1029.88z"/>
			<path class="st5" d="M565.63,1047.48c0.02,0.43,0.01,0.86-0.01,1.28c-5.49,1.86-11.07,3.5-16.7,4.9
				c-0.18-0.68-0.38-1.36-0.6-2.03c-2.42-7.56-6.63-14.4-10.79-21.15c-13.91-22.53-28.92-46.11-52.42-58.29
				c-0.18-0.34-0.34-0.69-0.49-1.03c10.79-2.17,22.14-1.24,32.56,2.36c17.77,15.86,30.58,37.57,42.63,58.52
				C562.58,1036.86,565.43,1041.93,565.63,1047.48z"/>
			<path class="st3" d="M500.52,1027.28c-4.33-12.16-8.77-24.53-16.59-34.79c-3.71-4.87-8.2-9.28-10.7-14.87
				c7.12,1.83,13.31,6.42,18.03,12.06c4.71,5.64,8.05,12.3,10.83,19.1c1.81,4.42,3.42,9.15,2.74,13.88
				C504.55,1024.55,503.34,1026.79,500.52,1027.28z"/>
			<path class="st3" d="M426.09,1025.08c5.98-2.46,12.14-4.96,18.61-4.97c1.7,0,3.46,0.18,4.96,0.99c1.5,0.81,2.7,2.34,2.71,4.05
				c0,1.7-1.49,3.39-3.18,3.25c-2.27-0.19-3.29-3-5.26-4.15c-2.07-1.2-4.66-0.34-6.96,0.29
				C432.85,1025.64,428.53,1025.9,426.09,1025.08z"/>
			<path class="st3" d="M415.77,1002.53c4.75-3.33,10.65-4.97,16.44-4.58c1.55,0.11,3.18,0.39,4.35,1.42
				c1.17,1.02,1.62,2.99,0.58,4.14c-0.9,0.99-2.48,1-3.75,0.56c-1.26-0.44-2.39-1.23-3.67-1.63
				C424.7,1000.88,419.31,1005.8,415.77,1002.53z"/>
			<path class="st3" d="M396.88,985.79c2.84-0.66,5.73-1.11,8.63-1.34c2.43-0.2,5.51,0.16,6.34,2.45c0.79,2.19-1.2,4.44-3.33,5.39
				c-2.76,1.23-6.21,1.19-8.6-0.65C397.53,989.79,396.7,985.97,396.88,985.79z"/>
		</g>
		<g>
			<path class="st2" d="M1084.61,237.85c-0.06,1.26-0.35,2.63-0.84,3.89c-0.24,0.62-0.53,1.21-0.86,1.75
				c-0.85,1.39-2,2.44-3.38,2.68c-0.53,0.09-1.09,0.06-1.68-0.11c-1.45-0.42-2.49-1.65-3.44-2.82c-2.34-2.89-4.67-5.77-7.01-8.66
				c-1.63-2.01-3.26-4.03-4.89-6.04c-0.55,0.31-1.11,0.61-1.66,0.91c-1.55,0.86-3.09,1.71-4.64,2.56c0.56,0.22,1.11,0.45,1.63,0.7
				c5.09,2.32,8.36,5.73,9.57,10.03c0.25,0.88,0.38,1.8,0.4,2.73c0.12,4.05-1.84,8.21-5.53,9.79c-4.63,1.99-10.06-0.5-14.98,0.41
				c-0.02-0.01-0.03-0.01-0.04,0c-0.28,0.05-0.55,0.11-0.82,0.18c-3.84,1.04-6.55,4.24-9.63,6.84c-1.16,0.98-2.38,1.88-3.74,2.54
				c-3.89,1.91-8.76,1.59-12.38-0.76c-0.22-0.14-0.43-0.28-0.64-0.44c-1.17-0.87-2.22-1.97-3.58-2.47c-0.78-0.29-1.6-0.37-2.43-0.37
				c-0.48,0-0.97,0.03-1.45,0.06c-1.62,0.09-3.25,0.19-4.87,0.28c-2.4,0.14-4.8,0.28-7.2,0.42c-7.93,0.46-15.84,0.92-23.76,1.38
				c-1.69,0.09-3.38,0.19-5.07,0.29c-17.49-11.22-26.53-27.11-28.34-43.92c-0.31-2.87-0.36-5.97,1.17-8.42
				c1.65-2.64,4.76-3.93,7.66-5.05c2.25-0.87,4.51-1.74,6.76-2.62c0.21-0.08,0.41-0.16,0.62-0.24c1.69-0.65,3.38-1.3,5.07-1.96
				c4.38-1.69,8.77-3.39,13.15-5.09c14.93-5.77,31.18-11.63,46.58-7.26c5.84,1.66,11.21,4.73,17.08,6.24
				c4.19,1.09,8.54,1.35,12.76,2.32c9.23,2.12,17.32,7.96,22.82,15.64h0.01c4.25,5.92,6.98,12.93,7.52,20.16
				c0.04,0.52,0.06,1.05,0.08,1.57C1084.67,235.94,1084.66,236.89,1084.61,237.85z"/>
			<path class="st143" d="M1067.81,245.47c0.12,4.05-1.84,8.21-5.53,9.79c-4.63,1.99-10.06-0.5-14.98,0.41
				c-0.02-0.01-0.03-0.01-0.04,0c-0.28,0.05-0.55,0.11-0.82,0.18c-3.84,1.04-6.55,4.24-9.63,6.84c-5.36,0.72-10.74,1.32-16.12,1.78
				c-0.22-0.14-0.43-0.28-0.64-0.44c-1.17-0.87-2.22-1.97-3.58-2.47c-0.78-0.29-1.6-0.37-2.43-0.37c-0.48,0-0.97,0.03-1.45,0.06
				c-1.62,0.09-3.25,0.19-4.87,0.28c-2.4,0.14-4.8,0.28-7.2,0.42c-3.68-2.24-6.82-5.48-9.67-8.76
				c-5.65-6.49-10.71-13.46-15.76-20.43c-6.56-9.04-13.3-18.48-15.53-29.39c1.69-0.65,3.38-1.3,5.07-1.96
				c1.3,2.34,2.23,4.17,0.62,2.47c5.3,10.27,12.22,19.84,21.16,27.16s20.01,12.3,31.55,12.9c9.05,0.47,18-1.7,27.02-2.43
				C1052.8,240.88,1061.18,241.53,1067.81,245.47z"/>
			<path class="st143" d="M1084.61,237.85c-0.06,1.26-0.35,2.63-0.84,3.89c-1.77-1.45-3.42-3.07-5.07-4.65
				c-5.15-4.9-10.64-9.54-16.94-12.83c-6.3-3.28-13.51-5.15-20.56-4.21c-5.41,0.72-11.73,2.8-15.74-0.91
				c-0.02-0.76-0.03-1.52,1.44-1.24c12.8-7.14,28.77-8.32,42.49-3.15c1.59,0.6,3.2,1.3,4.41,2.49c1.76,1.72,2.48,4.2,3.46,6.45
				c1.34,3.08,3.29,5.89,5.7,8.24c0.51,0.49,1.05,0.99,1.59,1.49c0.04,0.52,0.06,1.05,0.08,1.57
				C1084.67,235.94,1084.66,236.89,1084.61,237.85z"/>
			<path class="st4" d="M1007.72,261.53c-10.33,0.6-20.64,1.2-30.96,1.8c-0.14-0.24-0.28-0.49-0.42-0.74
				c-5.79-10.35-10.93-21.07-15.38-32.06c-1.18-2.9-2.33-5.9-2.4-9.04c-0.07-3.14,1.13-6.48,4.43-9.58
				c8.74,1.96,15.23,9.28,20,16.87c4.77,7.59,8.56,15.96,14.92,22.27c3.16,3.15,6.94,5.76,9.38,9.49
				C1007.49,260.85,1007.69,261.18,1007.72,261.53z"/>
			<path class="st4" d="M1084.61,237.85c-0.09,1.88-0.69,4-1.7,5.64c-0.85,1.39-2,2.44-3.38,2.68c-2.63-2-4.9-4.5-7.22-6.88
				c-1.56-1.61-3.2-3.2-4.91-4.71c-2.08-1.85-4.26-3.58-6.55-5.13c-5.52-3.74-11.63-6.37-18.24-6.69c-3.95-0.2-7.89,0.45-11.84,0.51
				c-3.95,0.05-8.11-0.57-12.75-3.5c8.12-2.61,16.29-5.24,24.74-6.29c8.46-1.05,17.32-0.44,25.03,3.19
				c1.33,0.63,2.64,1.36,3.71,2.36c1.09,1.03,1.9,2.3,2.73,3.54c3.02,4.49,6.51,8.66,10.4,12.42
				C1084.67,235.94,1084.66,236.89,1084.61,237.85z"/>
			<path class="st5" d="M1047.26,255.67c-0.28,0.05-0.55,0.11-0.82,0.18c-5.29,1.44-8.44,6.97-13.37,9.38
				c-4.12,2.02-9.35,1.54-13.02-1.2c-1.17-0.87-2.22-1.97-3.58-2.47c-0.78-0.29-1.6-0.37-2.43-0.37c9.63-3.4,19.8-5.28,30.01-5.54
				C1045.11,255.62,1046.19,255.61,1047.26,255.67z"/>
			<path class="st5" d="M1082.91,243.49c-1.18,1.93-2.93,3.19-5.06,2.57c-1.45-0.42-2.49-1.65-3.44-2.82
				c-3.97-4.9-7.93-9.8-11.9-14.7c-2.1,1.16-4.2,2.32-6.3,3.47c0.56,0.22,1.11,0.45,1.63,0.7c-6.21-2.03-12.7-3.16-19.23-3.35
				c-4.07-0.11-8.24,0.12-12.1-1.16c-3.87-1.27-7.43-4.56-7.51-8.63c5.92,0.06,11.87,0.12,17.75-0.62
				c7.67-0.97,15.42-3.31,22.99-1.74c7.88,1.62,14.67,7.72,17.13,15.38c1.03,3.18,1.45,6.76,3.75,9.18
				C1081.28,242.47,1082.06,243.03,1082.91,243.49z"/>
			<path class="st3" d="M1015.72,226.14c4.09,4.29,10.18,6.08,16.09,6.63c9.02,0.83,18.63-0.74,26.77,3.23
				c0.67,0.33,1.39,0.76,1.61,1.48c0.28,0.93-0.46,1.93-1.36,2.28c-0.91,0.35-1.92,0.23-2.89,0.1c-8.49-1.11-16.99-2.22-25.48-3.32
				c-3.55-0.46-7.2-0.96-10.35-2.66C1016.95,232.17,1014.35,228.95,1015.72,226.14z"/>
			<path class="st3" d="M1077.02,213.26c-5.81-3.14-10.83-7.95-17.03-10.3c-8.75-3.32-18.48-1.34-27.83-0.66
				c-8.01,0.58-16.07,0.16-24.1,0.51c-13.56,0.58-27.02,3.37-39.69,8.21c-5.17-1.13-8.28-4.11-9.43-7.41
				c6.28-2.42,12.56-4.85,18.84-7.29c14.93-5.77,31.18-11.63,46.58-7.26c5.84,1.66,11.21,4.73,17.08,6.24
				c4.19,1.09,8.54,1.35,12.76,2.32C1063.43,199.74,1071.52,205.58,1077.02,213.26z"/>
		</g>
		<g>
			<path class="st2" d="M1637.1,588.55c-0.15,0.75-0.31,1.48-0.47,2.21c-0.15,0.71-0.31,1.41-0.48,2.13
				c-1.64,7.18-3.85,14.55-9.36,19.35c-4.25,3.69-9.89,5.3-15.37,6.62c-21.92,5.26-44.56,7.55-66.07,14.3
				c-17.82,5.59-35.31,14.86-47.13,29.01c-2.46,2.92-4.66,6.06-6.58,9.42c-26.33,3.27-52.12-4.15-77.37-14.33
				c-4.99-2-9.95-4.12-14.89-6.28c0.54-2.39,1.09-4.78,1.6-7.19c2.09-9.8,3.64-19.74,2.47-29.64c-1.27-10.81-5.78-21.58-3.57-32.24
				c3.36-16.26,21.47-25.67,38.08-25.97h0.04c11.99-0.2,23.73,3.06,35.42,5.75c8.36,1.92,16.83,3.56,25.36,4.3
				c4.05,0.36,8.12,0.51,12.19,0.39c3.61-0.11,7.22-0.42,10.82-0.86c15.87-1.95,31.63-6.29,47.4-5.46c1.93,0.1,3.87,0.28,5.8,0.55
				c7.8,1.1,15.65,3.84,21.25,9.39c4.92-4.16,11.85-4.06,18.46-3.9c6.44,0.15,13.83,0.85,18.54,4.72c1.2,0.98,2.22,2.16,3.01,3.59
				C1638.59,578.65,1638.06,583.73,1637.1,588.55z"/>
			<path class="st4" d="M1636.63,590.76c-1.72,7.83-3.79,16.21-9.84,21.48c-4.25,3.69-9.89,5.3-15.37,6.62
				c-21.92,5.26-44.56,7.55-66.07,14.3c-17.82,5.59-35.31,14.86-47.13,29.01c1.5-5.36,1.87-11.04,1.05-16.55
				c-0.33-2.27-0.86-4.56-0.55-6.83c0.53-3.79,3.3-6.84,6-9.56c7.49-7.55,15.57-14.71,25.04-19.56c9.47-4.84,20.52-7.22,30.89-4.81
				c2.79,0.64,5.57,1.64,8.44,1.54c2.87-0.09,5.96-1.63,6.74-4.39c0.46-1.62,0.06-3.35,0.08-5.04c0.08-5.27,4.41-9.68,9.27-11.73
				c4.87-2.06,10.26-2.32,15.49-3.03c11.47-1.57,22.61-5.47,32.57-11.39c1.2,0.98,2.22,2.16,3.01,3.59
				C1638.95,579.3,1637.83,585.31,1636.63,590.76z"/>
			<path class="st4" d="M1473.42,561.69c8.36,1.92,16.83,3.56,25.36,4.3c-4.15,0.56-8.3,1.25-12.48,1.16
				c-3.14-0.06-6.39-0.54-9.33,0.54c-2.29,0.83-4.15,2.51-5.95,4.16c-6.59,6.05-13.76,13.52-12.77,22.41
				c0.19,1.75,0.67,3.69-0.33,5.14c-0.73,1.08-2.08,1.54-3.34,1.86c-7.29,1.85-15.79,1.52-21.14,6.81
				c15.7,2.37,31.41,4.75,47.11,7.13c-7.81-0.47-15.62-0.94-23.42-1.41c-5.42-0.32-10.98-0.63-16.16,0.98
				c-5.19,1.62-9.99,5.61-10.96,10.95c-0.97,5.34,3.28,11.49,8.7,11.15c-12.72,9.19-26.28,10.57-37.73,6.92
				c2.09-9.8,3.64-19.74,2.47-29.64c-1.27-10.81-5.78-21.58-3.57-32.24c3.36-16.27,21.5-25.69,38.12-25.97
				C1449.99,555.74,1461.73,559,1473.42,561.69z"/>
			<path class="st4" d="M1569.19,560.06c-0.17,0.09-0.34,0.17-0.51,0.25c-4.75,2.28-9.81,3.91-15,4.85
				c-10.5,1.91-21.2,0.95-31.89,0.36C1537.66,563.57,1553.42,559.23,1569.19,560.06z"/>
			<path class="st5" d="M1437.96,555.94c-4.93,2.15-9.26,5.03-12.23,9.59c-4.03,6.19-4.34,14.03-4.12,21.41
				c0.59,19.18,3.85,39.03-2.55,57.12c-1.05,2.96-2.36,7.96-4.79,13.2c-4.99-2-9.95-4.12-14.89-6.28c0.54-2.39,1.09-4.78,1.6-7.19
				c2.09-9.8,3.64-19.74,2.47-29.64c-1.27-10.81-5.78-21.58-3.57-32.24C1403.24,565.65,1421.35,556.24,1437.96,555.94z"/>
			<path class="st5" d="M1637.1,588.55c-0.15,0.75-0.31,1.48-0.47,2.21c-0.15,0.71-0.31,1.41-0.48,2.13
				c-3.63,1.46-7.76,1.32-11.68,1.84c-4.09,0.54-8.07,1.85-11.69,3.83c-3.41,1.87-6.5,4.34-10.13,5.73
				c-3.62,1.39-8.12,1.47-10.99-1.15c5.61,0.05,11.69-1.6,17.07-4.54c3.24-1.77,6.26-4.02,9.78-5.11c3.39-1.06,7.03-0.98,10.51-1.73
				C1631.89,591.15,1634.56,589.99,1637.1,588.55z"/>
			<path class="st3" d="M1458.05,629.31c6.32,1.87,12.76,3.79,18.14,7.58c1.93,1.36,3.71,2.95,5.82,4.01s4.69,1.52,6.81,0.5
				c-1.18-1.85-2.37-3.7-3.55-5.54c3.33,0.4,6.7,0.39,10.02-0.02c-0.53-3.03-3.44-5.11-6.37-6.06s-6.08-1.11-8.99-2.12
				c-3.84-1.34-7.01-4.08-10.55-6.09s-7.99-3.26-11.62-1.42c1.73,2.64-0.56,6.81-3.72,6.76
				C1456.69,628.14,1459.53,628.95,1458.05,629.31z"/>
			<path class="st3" d="M1469.11,598.52c8.85,5.12,18.56,10.43,28.7,9.1c8.2-1.08,15.17-6.35,22.9-9.28c6-2.28,12.48-3.13,18.9-3.01
				c6.26,0.12,13.31,0.91,18.05-3.19c-7.92,0.91-16.08-0.27-23.42-3.39c-1.72-0.73-3.52-1.7-4.25-3.41
				c-0.68-1.59-0.34-3.65-1.58-4.86c-0.67-0.65-1.64-0.87-2.56-1.02c-6.77-1.08-13.9,0.25-19.83,3.68
				c-3.66,2.12-6.9,5.01-10.81,6.62C1486.95,593.12,1476.08,590.72,1469.11,598.52z"/>
		</g>
		<g>
			<path class="st142" d="M521.73,422.6c-10.26-2.77-18.67-10.36-28.88-13.34c-8.84-2.58-18.34-1.5-27.38-3.21
				c-10.9-2.06-20.73-8.08-31.62-10.21c-10.88-2.12-24.52,1.56-27.79,12.15c-0.58,1.87-0.85,3.96-2.22,5.35
				c-3.2,3.27-8.58,0.03-11.86-3.15c-0.26,4.1-0.52,8.2-0.77,12.31c-2.29-0.77-4.57-1.54-6.85-2.3c0.11,5.74,0.23,11.49,0.35,17.23
				c-2.93-0.71-5.7-2.07-8.05-3.95c-0.4,7-0.6,14.01-0.58,21.01c-2.01-0.67-4.03-1.35-6.04-2.02c-2.66,6.61-3.62,13.89-2.76,20.97
				c-4.36-2.59-9-4.68-13.82-6.23c-2.35-0.76-5.33-1.22-6.92,0.66c-1.2,1.42-0.99,3.51-0.72,5.35c3.76,25.33,7.52,50.67,11.29,76
				c-3.33-0.61-6.32-2.79-7.94-5.76c1.87,8.2,2.37,16.7,1.46,25.06c-1.65-1.68-4.64,0.62-4.69,2.98c-0.04,2.36,1.45,4.45,2.13,6.71
				c0.68,2.26-0.03,5.43-2.37,5.76c-1.34,0.18-2.6-0.67-3.94-0.78c-4.42-0.35-5.3,6.16-4.3,10.48c0.99,4.31,0.63,10.74-3.8,10.89
				c-0.14,0.5-0.28,0.99-0.42,1.49c-0.66,2.38-1.3,4.76-1.92,7.15c-0.69,2.7-1.35,5.41-1.97,8.13c-0.63,2.7-1.22,5.41-1.78,8.13
				c-0.22,1.1-0.44,2.2-0.66,3.31c-1.08,5.56-2.02,11.16-2.82,16.77c-2.28-9.62-6.78-18.71-13.05-26.36
				c2.4,4.27,4.16,8.91,5.19,13.7c-2.9-2.42-5.79-4.85-8.68-7.28c-2.4,2.62-2.26,7.16,0.3,9.62c-2.29-1.18-4.57-2.37-6.86-3.55
				c2.07,3.01,4.14,6.02,6.22,9.03c-1.54-0.99-3.07-1.98-4.6-2.96c4.58,6.99,13.27,9.82,21.29,12.16
				c24.82,7.27,49.64,14.53,71.76,22.52c-27.61-4.01-55.22-8.03-82.83-12.04c-4.48-0.65-8.96-1.3-13.44-1.95
				c-0.18-0.03-0.36-0.04-0.55-0.03c-1.61,0.04-3.48,1.13-3.68,2.12c-0.08,0.37,0.08,0.73,0.58,1.01
				c-6.65-3.46-13.3-6.93-19.95-10.4c-3.53-1.84-7.05-3.67-10.58-5.51c1.77,1.86,2.99,4.25,3.44,6.78
				c-5.6-4.22-11.21-8.43-16.81-12.64c-1.63-1.23-4.4-1.86-6.02-1.31c-0.04,0.01-0.07,0.02-0.1,0.03c-0.84,0.32-1.34,0.97-1.16,2.04
				c-6.4-5.2-12.79-10.4-19.19-15.6c0.01,0.32-0.11,0.63-0.44,0.76c-0.99,0.39-1.99-0.46-2.71-1.25
				c-3.36-3.66-6.72-7.33-10.08-11.01c-0.29-0.32-0.58-0.64-0.87-0.96c-0.02,0.12-0.05,0.24-0.09,0.35c-0.12,0.35-0.38,0.63-0.8,0.7
				c-1.65,0.27-2.87-1.44-3.64-2.93c-0.12-0.23-0.24-0.46-0.35-0.7C189.6,580.8,182.77,542.76,187,505.9
				c2-17.43,6.41-34.61,6.84-52.15c0.31-12.03-1.23-24.35,2.17-35.89c3.18-10.8,10.48-19.97,18.81-27.56
				c9.48-8.63,20.5-15.58,32.38-20.41c6.61-2.69,13.84-4.96,18.43-10.43c3.82-4.55,5.49-10.97,10.41-14.3
				c4.9-3.31,11.35-2.46,17.24-2.99c5.85-0.52,11.45-2.5,17.08-4.19c16.32-4.92,33.35-7.49,50.4-7.61
				c45.46-0.32,89.08,16.53,130.93,34.59C495.78,387.03,507.42,407.63,521.73,422.6z"/>
			<path class="st141" d="M330.34,592.91c-0.86-1.18-1.73-2.35-2.59-3.53c-0.81-3.04-1.53-6.1-2.15-9.19
				C327.62,584.25,329.21,588.52,330.34,592.91z"/>
			<path class="st141" d="M323.9,653.9c-8.02-2.34-16.71-5.17-21.29-12.16c1.53,0.98,3.06,1.97,4.6,2.96
				c-2.08-3.01-4.15-6.02-6.22-9.03c2.29,1.18,4.57,2.37,6.86,3.55c-2.56-2.46-2.7-7-0.3-9.62c2.89,2.43,5.78,4.86,8.68,7.28
				c-1.03-4.79-2.79-9.43-5.19-13.7c6.27,7.65,10.77,16.74,13.05,26.36c0.8-5.61,1.74-11.21,2.82-16.77
				c-5.63-5.19-10.63-10.97-14.5-17.59c5.05,4.75,10.11,9.51,15.16,14.28c3.81,3.58,7.62,7.17,11.43,10.76
				c-3.66-6.05-6.89-12.37-9.65-18.89c-3.02-7.08-5.49-14.4-7.38-21.86c2.61,4.9,5.75,9.51,9.35,13.73
				c2.93,3.44,6.18,6.62,9.67,9.48c-2.91-5.38-5.51-10.94-7.75-16.63c-2.16-5.44-3.99-11.01-5.49-16.67
				c-4.66-6.35-9.31-12.71-13.97-19.06c-2.38,14.74-2.32,29.87,0.19,44.59c-5.01-8.68-10.01-17.36-15.02-26.03
				c0.61,10.37,1.21,20.74,1.81,31.11c-4.75-4.9-9.51-9.8-14.26-14.7c1.58,6.59,3.17,13.17,4.75,19.75
				c-7.41-5.68-12.86-13.86-15.27-22.89c2.78,12.48,5.56,24.96,8.33,37.43c-12.12-13.18-27.17-23.66-43.75-30.45
				c5.66,8.29,11.34,16.59,17,24.88l-2.81-1.55c-17.61-16.74-35.21-33.49-52.81-50.24c10.94,22.44,25.87,42.94,43.88,60.23
				c1.62-0.55,4.39,0.08,6.02,1.31c5.6,4.21,11.21,8.42,16.81,12.64c-0.45-2.53-1.67-4.92-3.44-6.78c3.53,1.84,7.05,3.67,10.58,5.51
				c6.65,3.47,13.3,6.94,19.95,10.4c-0.5-0.28-0.66-0.64-0.58-1.01c0.2-0.99,2.07-2.08,3.68-2.12c0.19-0.01,0.37,0,0.55,0.03
				c4.48,0.65,8.96,1.3,13.44,1.95c27.61,4.01,55.22,8.03,82.83,12.04C373.54,668.43,348.72,661.17,323.9,653.9z M222.22,628.43
				c0.72,0.79,1.72,1.64,2.71,1.25c0.33-0.13,0.45-0.44,0.44-0.76c6.4,5.2,12.79,10.4,19.19,15.6c-0.18-1.07,0.32-1.72,1.16-2.04
				c-10.52-9.22-21.76-17.61-33.58-25.06C215.5,621.1,218.86,624.77,222.22,628.43z M206.74,614.58c0.77,1.49,1.99,3.2,3.64,2.93
				c0.42-0.07,0.68-0.35,0.8-0.7c-1.59-1-3.18-1.97-4.79-2.93C206.5,614.12,206.62,614.35,206.74,614.58z M209.15,504.09
				c-2.06,24.1,1.11,48.63,9.24,71.41c-3.77-15.33-3.9-31.55-0.38-46.94c1.56,23.23,9.84,45.97,23.58,64.76
				c-2.88-9.44-5.75-18.87-8.63-28.31c6.51,18.22,17.79,34.72,32.41,47.4c-7.05-16.4-13.53-33.04-19.42-49.89
				c7.65,16.96,15.92,34.69,30.95,45.65c-13.22-21.15-21.81-45.17-25.01-69.91c5.41,17.46,13.42,34.12,23.68,49.24
				c-19.38-30.41-29.07-65.83-38.5-100.65c0.59,11.86,1.17,23.73,1.76,35.59c-2.87-9.62-4.94-19.47-6.19-29.42
				c-1.09,11.16-2.19,22.32-3.28,33.49c-4.31-19.94-9.06-39.78-14.25-59.51c-2.01,17.01-2.56,34.19-1.66,51.29
				c-2.46-12-3.21-24.34-2.21-36.55C209.38,490.5,209.53,499.61,209.15,504.09z M275.98,469.77c-3,26.39-2.03,53.23,2.88,79.33
				c-0.4-10.05,0.63-20.16,3.07-29.91c2.37,13.99,6.86,27.62,13.25,40.29c-2.69-8.52-3.69-17.57-2.93-26.47
				c2.66,11.23,8.48,21.7,16.62,29.89c-7.6-20.31-11.95-41.83-12.82-63.49c5.39,19.28,11.79,39.79,27.45,52.26
				c-18.55-32.04-30.81-67.7-35.88-104.38c-1.07,11.74-1.02,23.59,0.14,35.32c-2.65-12.19-5.29-24.38-7.94-36.57
				C277.62,459.4,276.77,472.97,275.98,469.77z M247.07,391.09c13.67-1.71,27.45-2.56,41.23-2.55c-6.92,2.81-14.85,2.22-21.95-0.09
				s-13.55-6.25-19.92-10.14c10.83,3.03,22.17,4.24,33.39,3.57c-9.72-2.82-18.56-8.61-25.01-16.41c8.93-0.3,16,8.27,24.9,9.11
				c-6.31-6.23-11.01-14.08-13.53-22.59c7.88,3.7,9.41,14.91,16.77,19.57c-2.37-10.06-2.37-20.67,0.01-30.73
				c2.22,10.74,5.04,21.36,8.43,31.79c-0.62-5.63-0.45-11.35,0.52-16.94c2.27,7.78,3.36,15.9,3.21,24
				c-7.91-1.58-16.52,1.01-22.25,6.68c3.46,0.61,6.92,1.22,10.38,1.84c-2.71,1.39-5.03,3.55-6.59,6.16
				c3.87-0.28,7.74-0.57,11.61-0.85 M388.52,354.82c36.8,7.61,72.26,21.67,104.27,41.34c-15.31-7-29.93-15.49-43.6-25.31
				c10.27,2.46,20.54,4.93,30.81,7.39C451.85,360.46,417.15,357.46,388.52,354.82z"/>
		</g>
		<g>
			<path class="st2" d="M1689.61,323.63c-0.43,8.64-9.53,14.26-12.39,22.43c-1.84,5.29-0.89,11.14-1.99,16.63
				c-1.66,8.28-7.72,14.86-13.21,21.28c-4.72,5.53-9.22,11.33-12.77,17.65c-1.1,1.95-2.1,3.95-3,6
				c-5.13,11.78-6.41,24.85-7.91,37.79v0.01c-0.1,0.88-0.2,1.76-0.31,2.64c-0.21,1.75-0.43,3.51-0.66,5.25
				c-0.21,1.55-0.44,3.09-0.69,4.62c-0.1,0.59-0.2,1.18-0.3,1.77c-0.19,1.09-0.39,2.17-0.61,3.24c-0.13,0.63-0.26,1.26-0.41,1.89
				c-0.18,0.88-0.39,1.74-0.61,2.61c-0.09,0.35-0.18,0.71-0.27,1.06c-0.03,0.12-0.06,0.25-0.1,0.37c-0.1,0.39-0.21,0.79-0.33,1.18
				c-0.04,0.14-0.08,0.28-0.12,0.41c-0.19,0.65-0.38,1.3-0.59,1.94c-0.12,0.39-0.25,0.78-0.39,1.17c-0.08,0.24-0.17,0.49-0.25,0.74
				c-0.19,0.52-0.38,1.04-0.58,1.56c-0.13,0.33-0.26,0.66-0.39,0.99c-0.32,0.81-0.67,1.61-1.03,2.41c-0.34,0.75-0.7,1.49-1.07,2.22
				c-0.38,0.73-0.77,1.46-1.18,2.18c-0.3,0.55-0.63,1.09-0.96,1.63c-9.56,15.46-29.68,24.94-46.77,18.77
				c-7.43-2.68-13.66-7.89-20.82-11.21c-5.77-2.69-12.04-4.1-18.25-5.5c-13.59-3.05-27.18-6.1-40.77-9.15
				c-2.4-0.54-4.8-1.08-7.2-1.62c5.18-29.4,13.49-55.43,23.6-80.75c2.44,0.48,4.89,0.84,7.36,1.08c2.28,0.22,4.58,0.34,6.87,0.35
				c8.93,0.07,17.87-1.41,26.29-4.38c2.25-0.8,4.49-1.71,6.48-3.05c2.75-1.84,4.91-4.41,7.03-6.95
				c14.38-17.17,28.76-34.33,43.14-51.5c4.42-5.28,8.84-10.56,13.26-15.84c3.12-3.73,6.32-7.52,10.43-10.1
				c7.01-4.39,15.26-4.6,23.55-3.08l0.29,0.06l2.28,0.47c4.87,1.1,9.71,2.71,14.28,4.34
				C1684.31,310.81,1689.96,316.56,1689.61,323.63z"/>
			<path class="st4" d="M1638.34,445.42c-0.1,0.88-0.2,1.76-0.31,2.64c-0.21,1.75-0.43,3.51-0.66,5.25
				c-0.21,1.55-0.44,3.09-0.69,4.62c-0.1,0.59-0.2,1.18-0.3,1.77c-0.19,1.09-0.39,2.17-0.61,3.24c-0.13,0.63-0.26,1.26-0.41,1.89
				c-0.18,0.88-0.39,1.74-0.61,2.61c-0.09,0.35-0.18,0.71-0.27,1.06c-0.03,0.12-0.06,0.25-0.1,0.37c-0.1,0.39-0.21,0.79-0.33,1.18
				c-0.04,0.14-0.08,0.28-0.12,0.41c-0.19,0.65-0.38,1.3-0.59,1.94c-0.12,0.39-0.25,0.78-0.39,1.17c-0.08,0.24-0.17,0.49-0.25,0.74
				c-0.19,0.52-0.38,1.04-0.58,1.56c-0.13,0.33-0.26,0.66-0.39,0.99c-0.32,0.81-0.67,1.61-1.03,2.41c-0.34,0.75-0.7,1.49-1.07,2.22
				c-0.38,0.73-0.77,1.46-1.18,2.18c-0.3,0.55-0.63,1.09-0.96,1.63c-9.56,15.46-29.68,24.94-46.77,18.77
				c-7.43-2.68-13.66-7.89-20.82-11.21c-5.77-2.69-12.04-4.1-18.25-5.5c-13.59-3.05-27.18-6.1-40.77-9.15
				c2.23-5.53,5.17-10.85,7.77-16.23c9.83-20.25,15.3-42.57,15.99-65.06c2.28,0.22,4.58,0.34,6.87,0.35c4,5.6,5.76,13.25,7.06,20.24
				c2.25,12.09,4.5,24.51,2.27,36.61c-0.53,2.87-1.13,6.33,1.04,8.28c0.78,0.7,1.8,1.06,2.82,1.33c13.04,3.43,26.46-7.1,31.12-19.76
				c4.66-12.65,2.85-26.65,0.97-40.01c8.16,14.84,8.05,32.88,5.09,49.55c-1.48,8.3-2.78,18.75,4.24,23.42
				c4.95,3.29,11.61,1.72,17.07-0.61C1617.78,470.09,1630.22,459.03,1638.34,445.42z"/>
			<path class="st4" d="M1689.61,323.63c-0.43,8.64-9.53,14.26-12.39,22.43c-1.84,5.29-0.89,11.14-1.99,16.63
				c-1.66,8.28-7.72,14.86-13.21,21.28c-4.72,5.53-9.22,11.33-12.77,17.65c-0.92-5.62-1.5-11.28-1.1-16.94
				c0.59-8.44,3.55-17.02,9.72-22.81c1.54-1.44,3.27-2.71,4.51-4.42c4.03-5.53,1.69-13.48,4.1-19.9c1.61-4.32,5.28-7.64,6.84-11.99
				c1.56-4.34-0.83-10.72-5.42-10.22c-1.61,0.17-3.02,1.19-4.14,2.37c-5.01,5.28-6.03,14.29-12.6,17.41
				c-7.65,3.63-16.08-3.59-24.54-3.87c-4.07-0.13-8.41,1.33-12.17,0.14c4.42-5.28,8.84-10.56,13.26-15.84
				c3.12-3.73,6.32-7.52,10.43-10.1c11.85-7.42,27.24-2.91,40.4,1.79C1684.31,310.81,1689.96,316.56,1689.61,323.63z"/>
			<path class="st5" d="M1628.45,483.67c-0.3,0.55-0.63,1.09-0.96,1.63c-9.56,15.46-29.68,24.94-46.77,18.77
				c-7.43-2.68-13.66-7.89-20.82-11.21c-5.77-2.69-12.04-4.1-18.25-5.5c-12.68-2.85-25.36-5.69-38.04-8.54
				c0.01-0.55,0.1-1.1,0.31-1.6c1.05-2.47,4.35-2.84,7.03-2.77c19.33,0.52,38.57,4.36,56.62,11.3c6.13,2.36,12.16,5.09,18.56,6.6
				C1600.59,495.78,1616.45,492.37,1628.45,483.67z"/>
			<path class="st3" d="M1539.45,404.12c6.26,4.81,12.84,10.06,15.39,17.53c0.57,1.68,0.97,3.52,2.21,4.8
				c1.57,1.62,4.16,1.89,6.32,1.24s4-2.06,5.78-3.45c3.21-2.51,6.64-5.49,7.09-9.54c0.32-2.94-1.04-5.79-2.48-8.38
				c-1.8-3.21-3.92-6.46-7.15-8.22c-4.91-2.67-11.13-1.21-15.96,1.62C1547.66,401.49,1544.06,403.8,1539.45,404.12z"/>
			<path class="st3" d="M1580.83,390.02c7.35-11.13,14.7-22.26,22.05-33.4c0.92-1.4,1.87-2.84,2.24-4.48
				c0.48-2.11-0.04-4.38,0.66-6.42c0.82-2.39,3.11-3.96,5.42-5c7.9-3.57,18.8-2.01,22.97,5.58c3.72,6.77,0.91,15.11-1.93,22.29
				c-5.23,13.16-10.45,26.32-15.68,39.48c-0.44,1.12-0.92,2.28-1.82,3.07c-2.02,1.78-5.15,0.98-7.69,0.09
				c-6.75-2.37-13.6-4.79-19.41-8.97S1577.14,391.81,1580.83,390.02z"/>
		</g>
		<g>
			<path class="st131" d="M1530.71,436.67c-2.89,14.17-9.15,27.38-16.83,39.71v0.01c-2.02,3.27-4.15,6.46-6.34,9.6
				c-4.87,7-10.6,14.14-18.73,16.7c-11.32,3.57-23.04-2.75-34.03-7.21c-23.48-9.51-50.23-11.24-71.75-24.36
				c-0.76-0.46-1.51-0.94-2.26-1.43c-5.64,3.89-11.29,7.79-16.93,11.68c-1.44,1-2.92,2.05-4.34,3.17c-2.4,1.86-4.66,3.92-6.4,6.24
				c-1.81,2.4-3.07,5.08-3.36,8.12c-6.04,5.25-4.08,16.49-1.62,25.73c3.5,13.17,7,26.33,10.51,39.5c1.38,5.2,2.77,10.44,3.02,15.8
				c0.21,4.6-0.37,9.45,1.6,13.61c1.46,3.09,4.16,5.42,5.85,8.39c3.89,6.84,1.69,15.32,1.26,23.17
				c-0.64,11.64,3.04,23.47,10.17,32.7c0.22-0.46,0.44-0.91,0.68-1.35c3.7-7.05,9.31-12.62,15.93-16.68
				c9.44-5.82,20.93-8.55,31.84-8.1c19.04,0.77,36.82,9.17,53.99,17.42c4.94,2.37,10.06,4.88,13.43,9.2
				c5.17,6.62,5.04,15.8,4.67,24.19c-0.37,8.64-0.75,17.27-1.12,25.91c-1.53,34.99-3.05,69.99-6.06,104.88
				c-0.37,4.35-0.8,8.76-1.37,13.16c-2.23,17.28-6.6,34.44-18.34,46.91c-5.47,5.81-12.26,10.23-19.32,13.95
				c-26.04,13.71-56.83,18.2-85.7,12.49c-10.6-2.09-20.89-5.5-31.14-8.9c-45.68-15.13-91.35-30.27-137.02-45.41
				c-16.73-5.94-35.67-12.02-49.99-24.84c-1.54-1.38-3.1-2.88-5.08-3.5c-1.94-0.61-4.03-0.3-6.03,0.01
				c-15.57,2.36-32.99,3.46-45.66-5.65c-0.36-0.26-0.72-0.52-1.07-0.8c-7.87,11.36-17.19,22.52-28.06,31.88
				c-1.73,1.5-3.66,3.01-5.94,3.23c-1.74,0.16-3.46-0.46-5.08-1.11c-19.56-7.89-36.44-21.86-56.64-27.9
				c-1.8-0.54-3.62-1.01-5.45-1.43c-14.08-3.23-28.83-3.24-43.07-5.95c-18.53-3.52-36-11.57-54.61-14.63
				c-24.55-4.03-49.56,0.8-74.4,2.06c-31.61,1.6-63.5-2.68-93.57-12.56c0.02,0.18,0.03,0.35,0.05,0.53
				c2.91,33.47,9.25,66.93,10.33,100.63c1.08,33.87-3.86,69.62-24.19,96.74c-25.88,34.52-70.49,47.97-106.94,71.05
				c-15.17,9.6-29.15,21.09-41.51,34.11c4.42-19.71-0.85-37.55-9.99-52.17c-9.14-14.62-21.88-26.58-34.46-38.36
				c-12.28-11.5-24.56-22.99-36.83-34.48c25.11,2.48,51.14-6.75,69.08-24.5c2.49-2.46,4.92-5.43,5.98-8.66
				c0.52-1.6,0.7-3.27,0.38-4.97c1.9,1.36,4.03,2.06,6.24,2.24h0.01c6.06,0.5,12.75-2.92,17.14-7.59
				c5.23-5.56,8.65-12.6,13.52-18.44c0.51-0.61,1.04-1.21,1.6-1.79c0.2-0.23,0.42-0.46,0.64-0.68c1.8-1.82,3.85-3.5,5.06-5.77
				c3.86-7.29-2.5-14.77-7.47-22.31c-0.53-0.81-1.05-1.63-1.54-2.45c-2.83-4.7-4.61-9.42-2.55-14.13c0.97-2.23,2.78-4.16,3.02-6.58
				c0.22-2.3-1.04-4.45-2.31-6.38c-15.16-23.07-38.41-41.45-46.83-67.74c-1.26-3.94-2.15-7.96-2.7-12.03
				c-1.96-14.21,0.11-29,4.31-42.8c1.22-3.99,2.62-8,2.62-12.17c0.01-10.14-6.55-11.91-1.15-20.5
				c13.46-7.08,21.14-11.79,33.65-21.95c8.94-7.26,20.55-20.28,29.37-30.33c10.4-5.79,18.08-14.16,23.87-24
				c5.71-9.67,9.6-20.75,12.47-32.21c1.57-6.24,2.87-12.56,3.58-18.95c3.33-29.72-7.12-61.43-29.86-80.84
				c-3.09-2.63-6.76-4.49-9.97-5.75c-4.33-1.72-7.8-2.35-7.8-2.35s-22.69-19.68-35.39-24.94c-0.86-11.58,4.99-22.26,7.55-33.43
				c1.31-5.29,2.74-10.43,4.91-15.13c0.85-1.86,1.82-3.65,2.95-5.36c5.4-8.18,13.86-13.74,22.08-19.06
				c45.76-29.64,91.51-59.28,137.26-88.92c7.53-4.88,15.09-9.77,23.3-13.4c4.91-2.17,10.02-3.86,15.08-5.67
				c57.41-20.54,108.38-55.75,164.31-80.04c7.39,5.05,11.28,13.5,14.54,21.28c4.12,9.8,8.23,19.6,12.35,29.4
				c3.88,9.26,7.83,18.77,8.2,28.8c0.13,3.54-0.19,7.09-0.95,10.55c-0.84,3.79-2.19,7.47-4.04,10.89
				c-18.43,6.63-37.86,18.05-56.34,30.4c-22.71,15.17-44.46,31.96-68.74,44.45c-23.81,12.25-50.3,20.57-70.27,38.36
				c-0.31,0.26-0.61,0.54-0.91,0.81c31.76-2.56,59.13,11.32,87.1,19.89c30.85,9.45,63.23,12.54,95.35,15.58
				c28.11,2.66,57.08,5.24,84.1-2.96c4.37-1.32,8.66-2.92,13.15-3.74c14.22-2.57,28.51,2.98,41.89,8.43
				c0.12-0.11,0.23-0.23,0.35-0.34c49.71-48.86,109.32-85.11,173.95-106.09c1.87-0.61,3.76-1.2,5.65-1.78
				c28.83-8.82,59.9-13.94,88.36-4.5c10.9,3.61,21,9.24,31.18,14.54c38.62,20.11,79.43,36.02,121.47,47.36
				C1532.13,399.04,1534.37,418.74,1530.71,436.67z"/>
			<path class="st134" d="M1109.21,786.75c-38.81-34.26-77.61-68.52-116.42-102.77c46.58,22.16,98.38,30.34,149.35,38.27
				C1130.84,740.87,1121.98,760.97,1109.21,786.75z"/>
			<path class="st133" d="M630.21,660.98c-2.44,1.44-5.37,1.72-8.06,2.59c-5.97,1.94-10.59,6.72-14.24,11.84
				c-9.56,13.42-14.02,30.39-12.3,46.79c-14.28-0.89-27.05,8.75-36.71,19.3c-5.69,6.22-10.94,13.02-16.82,19.05
				c-1.96-14.21,0.11-29,4.31-42.8c1.22-3.99,2.62-8,2.62-12.17c0.01-10.14-6.55-11.91-1.15-20.5
				c13.46-7.08,21.14-11.79,33.65-21.95c8.94-7.26,20.55-20.28,29.37-30.33c10.4-5.79,18.08-14.16,23.87-24
				c0.5,11.15,1,22.3,1.51,33.46C636.57,649.17,636.17,657.47,630.21,660.98z"/>
			<path class="st133" d="M992,815.36c-14.08-3.23-28.83-3.24-43.07-5.95c-18.53-3.52-36-11.57-54.61-14.63
				c-24.55-4.03-49.56,0.8-74.4,2.06c-31.61,1.6-63.5-2.68-93.57-12.56c0.02,0.18,0.03,0.35,0.05,0.53
				c-0.04-0.06-0.08-0.12-0.12-0.18c-0.5-0.76-1.02-1.58-0.98-2.49c0.08-1.48,1.57-2.41,2.9-3.06c8.56-4.19,17.7-7.22,27.07-8.97
				c7.22-1.35,14.72-1.94,21.86-0.24c4.61,1.09,8.98,3.12,13.64,4.05c5.47,1.09,11.12,0.64,16.68,0.14
				c19.41-1.72,39.25-3.81,58.15,0.9c15.51,3.87,29.87,12.21,45.76,14c5.58,0.63,11.26,0.43,16.75,1.58
				c7.88,1.64,14.93,5.94,22.55,8.52c8.14,2.75,16.89,3.52,24.87,6.71C981.44,808.14,986.75,811.77,992,815.36z"/>
			<path class="st133" d="M1492.52,826.43c-2.23,17.28-6.6,34.44-18.34,46.91c-5.47,5.81-12.26,10.23-19.32,13.95
				c-26.04,13.71-56.83,18.2-85.7,12.49c-10.6-2.09-20.89-5.5-31.14-8.9c-45.68-15.13-91.35-30.27-137.02-45.41
				c-16.73-5.94-35.67-12.02-49.99-24.84c-1.54-1.38-3.1-2.88-5.08-3.5c-1.94-0.61-4.03-0.3-6.03,0.01
				c-15.57,2.36-32.99,3.46-45.66-5.65c12.34-30.38,24.19-61.04,31.53-92.97c7.75-33.68,10.36-68.29,12.95-102.75
				c2.14,12.43,4.27,24.86,6.41,37.29c2.55,14.82,5.54,30.55,15.8,41.54c7.42,7.96,17.77,12.42,26.53,18.86
				c18.64,13.71,29.46,35.87,47.46,50.41c6.92,5.58,14.74,9.91,22.35,14.49c25.11,15.09,48.38,33.18,74.22,46.99
				c25.83,13.81,55.24,23.28,84.24,19.17c18.86-2.68,36.85-11.16,50.91-24.01c3.73-3.41,7.88-7.39,12.92-7.01
				c5.64,0.42,9.24,6.02,11.92,10.99C1491.83,825.13,1492.17,825.78,1492.52,826.43z"/>
			<path class="st133" d="M1396.64,699.07c-3.71-14.67-8.89-28.98-15.43-42.62c3.7-7.05,9.31-12.62,15.93-16.68
				c1.68,4.46,3.31,8.95,4.88,13.46C1406,668.17,1397.85,683.64,1396.64,699.07z"/>
			<path class="st133" d="M1408.68,719.6c13.67,11.43,27.35,22.86,41.02,34.3c0.84,0.7,1.94,1.44,2.94,0.99
				c1.64-0.76,0.62-3.26-0.65-4.55c-15.06-15.38-38.14-21.87-50.87-39.23c-0.48-0.65-1.2-1.4-1.95-1.11
				S1399.36,711.81,1408.68,719.6z"/>
			<path class="st133" d="M1406.39,731.54c3.54,19.43,9.97,38.34,19.01,55.9c2.39,4.65,5.08,9.34,9.2,12.55
				C1427.21,777.42,1418.41,755.31,1406.39,731.54z"/>
			<path class="st133" d="M1513.88,476.39c-2.02,3.27-4.15,6.46-6.34,9.6c-4.87,7-10.6,14.14-18.73,16.7
				c-11.32,3.57-23.04-2.75-34.03-7.21c-23.48-9.51-50.23-11.24-71.75-24.36c18.45-11.05,35.19-24.94,49.43-41.05
				c0.13,7.57,6.12,13.61,11.87,18.54c11.19,9.6,23.26,18.51,37.03,23.77C1491.66,476.31,1503.06,478.06,1513.88,476.39z"/>
			<path class="st133" d="M641.46,399.55c-12.72,11.34-24.02,24.27-33.56,38.39c-3.82,5.66-7.33,13.41-3.21,18.86
				c2.97,3.93,9.62,6.45,8.42,11.23c-0.31,1.23-1.13,2.22-2.14,3.02c-4.33-1.72-7.8-2.35-7.8-2.35s-22.69-19.68-35.39-24.94
				c-0.86-11.58,4.99-22.26,7.55-33.43c1.31-5.29,2.74-10.43,4.91-15.13c18.41-4.26,37.24-6.69,56.14-7.26
				c3.61-0.1,8.23,0.58,9.11,4.08C646.22,394.94,643.7,397.55,641.46,399.55z"/>
			<path class="st134" d="M979.36,272.78c-0.84,3.79-2.19,7.47-4.04,10.89c-18.43,6.63-37.86,18.05-56.34,30.4
				c-22.71,15.17-44.46,31.96-68.74,44.45c-23.81,12.25-50.3,20.57-70.27,38.36c-7.03-0.8-14.17-2.94-20.88-5.11
				c-7.35-2.37-14.69-4.75-22.04-7.12c-1.93-0.62-3.94-1.3-5.34-2.76c-1.08-1.13-1.68-2.62-2.26-4.06
				c-3.64-9.06-7.27-18.11-10.91-27.17c18.84,6.46,38.28,11.14,57.99,13.97c3.3,0.47,6.91,0.83,9.73-0.95
				c2.7-1.71,3.95-4.96,4.77-8.05c1.95-7.36,2.4-15.11,1.32-22.65c8.43,6.88,17.4,13.09,26.8,18.56c2.54,1.47,5.54,2.93,8.28,1.91
				c1.91-0.71,3.22-2.49,4.09-4.32c4.12-8.6,0.88-18.86-3.36-27.39c-3.9-7.85-8.64-15.28-14.1-22.14
				c13.07,7.82,26.14,15.63,39.21,23.45c2.24,1.34,4.51,2.69,7.01,3.41c9.42,2.73,18.77-3.89,26.18-10.3
				c19.38-16.77,39.24-35.81,64.58-39.56c5.2-0.77,10.47-0.85,15.67-1.57C970.95,274.45,975.14,273.45,979.36,272.78z"/>
			<path class="st134" d="M1230.54,418.73c4.94,25.12,17.08,48.77,34.6,67.43c-23.36-21.94-40.76-49.38-61.8-73.56
				c-1.13-1.29-2.38-2.64-4.05-3c-4.68-1.03-6.79,5.41-8.51,9.87c-3.05,7.91-10.99,13.32-19.35,14.63
				c-8.37,1.32-17.01-1.04-24.39-5.19c18.46,20.52,47.25,29.51,65.37,50.33c1.07,1.22,2.14,2.96,1.28,4.34
				c-0.56,0.91-1.74,1.2-2.8,1.35c-6.7,0.96-13.5-0.39-20.13-1.72c-17.9-3.62-35.8-7.23-53.71-10.85
				c20.21,16.3,40.48,32.65,58.38,51.44c5.77,6.06,11.6,13.16,11.65,21.52c-17.94-5.23-32.97-17.31-47.47-29.11
				c-10.18-8.29-20.67-16.95-26.46-28.73c-4.18-8.49-5.65-18.11-9.71-26.65c-4.99-10.5-13.53-18.7-22.44-26.28
				c49.71-48.86,109.32-85.11,173.95-106.09c1.87-0.61,3.76-1.2,5.65-1.78c2.12,3.64,3.46,7.66,3.7,11.97
				c0.73,12.98-8.28,24.27-16.99,33.91c-4.24,4.69-8.7,9.45-14.45,12.07c-5.42,2.46-11.79,2.94-16.5,6.57
				C1228.51,397.24,1228.63,409.02,1230.54,418.73z"/>
			<path class="st134" d="M1353.1,490.78c1.15-28.11,2.29-56.22,3.44-84.33c7.18,26.01,8.82,53.52,2.96,78.09L1353.1,490.78z"/>
			<path class="st134" d="M639.93,1008.44c-2.58,2.98-7.33,0.04-10.01-2.86c-25.92-27.98-51.85-55.97-72.05-76.41
				c0.52-1.6,0.7-3.27,0.38-4.97c1.9,1.36,4.03,2.06,6.24,2.24h0.01c6.1,2.86,11.68,7.26,16.8,11.72
				C604.41,958.28,624.28,982.1,639.93,1008.44z"/>
			<path class="st134" d="M696.26,939.19c-2.56,4.96-9.98,3.33-15.05,0.98c-28.69-13.25-57.36-26.51-86.05-39.76
				c0.51-0.61,1.04-1.21,1.6-1.79c5.41-0.28,12.14-1.61,18.31-3.55c11.65-3.67,23.07-9.22,35.29-9.22c3.68,0,7.42,0.51,11.01-0.28
				c3.75-0.83,7.03-3,10.53-4.56c7.53-3.37,16.3-3.87,24.16-1.38c-2.3,3.02-6.19,4.26-9.83,5.34c-13.74,4.05-27.48,8.1-41.22,12.15
				c8.86,3.92,19.33,4.05,28.28,0.35c-9.58,4.75-20.15,7.48-30.83,7.97c12.21,4.08,26.61-2.34,38.06,3.53
				c-17.76,4.08-36.65,3.17-53.94-2.6c4.2,4.42,10.53,5.91,16.41,7.52C662.05,919.11,680.17,927.72,696.26,939.19z"/>
			<path class="st134" d="M682.25,836.82c2.68,0.06,5.4,0.26,8.11,0.35c-33.33,5.4-65.74,16.5-95.37,32.69
				c-0.53-0.81-1.05-1.63-1.54-2.45c6.95-13.2,34.25-21.7,60.46-27.16C663.24,838.31,672.71,836.62,682.25,836.82z"/>
			<path class="st134" d="M704.27,835.25c-4.35,1.9-9.11,2.08-13.91,1.92C694.98,836.42,699.62,835.78,704.27,835.25z"/>
		</g>
	</g>
</g>
</svg>
