<svg width="1278" height="1080" viewBox="0 0 1278 1080" fill="none" xmlns="http://www.w3.org/2000/svg">
<g clip-path="url(#clip0_86_17)">
<path d="M1278 0H0V1080H1278V0Z" fill="#9BAFBD"/>
<path d="M866.599 367.3C855.45 426.033 856.88 444.85 848.723 480.926C848.375 482.484 847.999 484.063 847.604 485.694C845.863 492.957 844.094 500.252 842.297 507.608C829.041 561.889 814.571 618.055 801.39 671.664C790.852 714.484 779.901 757.201 767.68 799.502C762.778 816.495 757.632 833.499 755.27 851.124C752.523 871.53 753.313 891.275 749.588 911.487C747.367 923.458 744.62 937.976 744.093 952.718C743.406 972.411 741.233 989.649 743.679 1005.71C743.801 1006.57 743.952 1007.45 744.121 1008.31C743.547 1009.82 612.696 1006.1 557.159 1004.45C542.181 1004 532.688 1003.71 532.688 1003.71C530.806 977.22 531.079 950.558 533.506 924.131C535.868 898.538 540.158 872.162 533.28 847.548C531.06 839.601 527.739 832.093 524.427 824.615C515.894 805.39 507.379 786.176 498.865 766.951C491.479 750.457 483.162 733.606 474.855 716.745C471.327 709.614 467.817 702.452 464.948 694.994C460.704 684.001 457.938 672.428 455.163 660.895C448.925 634.936 442.678 608.865 439.809 582.214C438.331 568.43 437.663 554.187 433.674 541.136C433.147 539.384 432.555 537.662 431.877 535.95C431.689 535.461 431.501 534.983 431.303 534.494C431.031 533.831 430.739 533.179 430.438 532.527C428.603 528.534 426.345 524.693 424.003 520.842C422.469 518.305 420.907 515.778 419.421 513.191C416.259 507.699 413.446 501.994 412.016 495.637C411.527 493.467 411.198 491.226 411.085 488.882C411.047 488.383 411.038 487.874 411.019 487.364C416.41 473.264 433.674 468.242 447.1 472.887C460.535 477.523 470.781 489.178 479.869 500.853C486.916 509.931 493.803 519.68 496.531 531.172C498.855 541.034 497.971 551.681 501.424 561.155C504.547 569.723 511.049 576.835 515.753 584.313C516.552 585.606 517.305 586.89 517.982 588.214C518.236 588.704 518.472 589.193 518.697 589.682C518.895 577.813 519.111 565.934 519.337 554.065C520.607 485.897 522.207 417.985 525.217 351.682C525.255 350.785 525.302 349.889 525.34 348.992C525.744 302.087 530.119 255.222 538.427 209.183C538.54 208.501 538.662 207.828 538.794 207.146C539.593 202.775 540.421 198.415 541.287 194.064C541.597 192.506 541.964 190.998 542.388 189.531C544.373 182.685 547.656 176.939 553 172.955C555.004 171.447 557.319 170.184 559.962 169.216C564.667 167.505 574.113 167.871 580.444 171.692C589.062 176.898 594.068 187.269 596.175 197.722C598.292 208.154 599.553 228.693 599.515 229.59C598.047 266.541 597.06 295.944 596.608 321.638C595.705 371.925 596.787 407.96 600.08 458.329C600.277 461.436 601.773 468.72 603.053 471.502C604.68 475.037 607.268 476.076 610.325 476.117C612.913 476.158 615.82 475.465 618.802 474.925C619.066 472.684 619.338 470.452 619.593 468.211V468.17C622.556 443.19 625.209 418.076 624.268 392.933C623.807 380.901 622.537 368.858 623.111 356.837C624.268 332.946 630.553 314.995 632.567 291.634C634.853 265.196 634.909 233.349 640.799 207.563C645.55 186.699 646.293 171.865 649.229 158.936C650.217 154.505 651.487 150.307 653.256 146.151C653.256 146.14 653.256 146.14 653.256 146.14C654.836 142.432 656.803 138.775 659.362 135.046C659.625 134.648 659.898 134.282 660.19 133.915C663.736 129.422 668.873 126.62 674.406 125.53C681.292 124.155 688.772 125.449 694.502 129.483C705.199 137.012 714.005 149.085 713.243 162.869C712.33 179.292 712.801 191.202 712.105 205.505C711.493 217.782 709.574 229.946 706.723 242.151C706.168 244.525 705.585 246.909 704.964 249.283C706.591 278.512 706.507 307.853 704.729 337.093C703.571 356.042 701.69 374.951 699.112 393.737C696.487 412.697 693.156 431.555 690.795 450.555C689.967 457.127 688.019 469.291 689.242 475.781C690.371 481.853 695.076 481.863 699.977 482.23L700.457 482.26C700.655 482.291 700.843 482.301 701.05 482.311C710.759 463.484 711.813 441.07 714.899 419.757C715.322 416.782 715.802 413.808 716.32 410.843C716.621 409.06 716.95 407.297 717.289 405.535C717.364 405.056 717.449 404.567 717.552 404.098C717.74 403.049 717.957 402.01 718.164 400.971C718.305 400.207 718.455 399.453 718.615 398.679C719.227 395.622 719.885 392.566 720.563 389.52C720.779 388.542 720.986 387.553 721.212 386.575C722.943 378.873 724.797 371.202 726.669 363.52C727.12 361.676 727.572 359.842 728.014 357.988C728.626 355.461 729.247 352.925 729.849 350.378C730.818 346.353 731.759 342.339 732.662 338.305C732.963 336.991 733.264 335.666 733.556 334.352C734.337 330.735 735.099 327.129 735.814 323.512C736.049 322.259 736.303 321.016 736.529 319.763C736.755 318.612 736.952 317.45 737.169 316.309C737.216 315.983 737.281 315.657 737.347 315.341C737.526 314.312 737.695 313.273 737.874 312.244C737.921 311.949 737.978 311.633 738.025 311.338C738.166 310.492 738.298 309.657 738.429 308.811C738.58 307.843 738.73 306.885 738.871 305.907C739.031 304.848 739.182 303.778 739.323 302.698C739.445 301.802 739.577 300.895 739.671 299.978C739.699 299.866 739.709 299.744 739.718 299.642C739.728 299.56 739.746 299.489 739.746 299.407C739.888 298.307 740.019 297.197 740.132 296.096C740.207 295.526 740.273 294.955 740.32 294.385C740.433 293.366 740.537 292.347 740.621 291.328C740.668 290.962 740.697 290.585 740.734 290.218C740.8 289.454 740.857 288.7 740.913 287.946C740.998 287.09 741.064 286.234 741.111 285.379C741.214 283.993 741.299 282.618 741.365 281.232C745.1 269.985 745.815 257.882 747.245 246.033C747.612 243.007 748.035 239.951 748.571 236.935C750.143 228.133 752.645 219.544 757.415 212.311C757.97 211.486 758.544 210.671 759.156 209.876C765.751 201.481 776.119 196.061 785.923 198.669C799.047 202.164 806.047 217.914 807.872 232.412C809.895 248.397 807.872 264.606 805.84 280.58C804.589 290.412 803.347 300.263 802.086 310.095C800.251 324.521 798.426 338.937 796.592 353.363C795.801 359.679 795.002 365.996 794.136 372.302C792.254 386.31 790.109 400.268 787.183 414.022C785.113 423.812 782.639 433.491 779.581 442.965C774.322 459.297 767.266 475.821 765.798 492.713V492.723C765.347 497.705 765.394 502.738 766.127 507.791C766.391 509.676 766.805 511.622 767.68 513.252C768.019 513.894 768.442 514.485 768.95 515.004C769.881 515.941 771.198 516.461 772.459 516.461C773.409 516.461 774.341 516.145 775.028 515.473C775.178 515.32 775.329 515.147 775.451 514.953C775.874 514.311 776.091 513.557 776.307 512.804C785.819 479.296 795.34 445.777 804.843 412.269C809.537 395.765 814.242 379.179 816.236 362.063C817.469 351.478 817.751 340.414 822.286 330.959C822.465 330.582 822.653 330.216 822.85 329.859C824.29 327.129 826.049 324.816 828.081 322.982C832.55 318.938 838.355 317.155 845.063 318.092C852.778 319.162 861.086 325.05 864.67 331.907C867.963 338.254 867.201 364.121 866.599 367.3Z" fill="#FEE4DB"/>
<path d="M744.13 1008.31C743.556 1009.82 612.705 1006.1 557.168 1004.45C542.19 1004 532.697 1003.71 532.697 1003.71C530.815 977.22 531.088 950.558 533.515 924.13C535.877 898.538 540.167 872.162 533.289 847.548C531.069 839.601 527.748 832.093 524.436 824.615C515.903 805.39 507.388 786.176 498.874 766.951C491.488 750.457 483.171 733.606 474.864 716.745C471.335 709.614 467.826 702.451 464.957 694.994C460.713 684.001 457.947 672.428 455.172 660.895C448.934 634.936 442.687 608.865 439.818 582.214C438.34 568.429 437.672 554.187 433.683 541.136C433.156 539.384 432.564 537.662 431.886 535.95C431.698 535.461 431.51 534.982 431.312 534.493C431.04 533.831 430.748 533.179 430.447 532.527C428.612 528.533 426.354 524.693 424.012 520.842L419.43 513.19C419.957 510.409 420.483 507.618 421.01 504.836C421.236 503.655 421.452 502.483 421.678 501.301C422.28 498.051 423.221 494.363 425.903 492.906C425.987 492.855 426.081 492.794 426.166 492.753C427.596 492.071 428.979 492.152 430.259 492.743C433.373 494.18 435.904 498.683 437.249 502.534C444.964 524.937 452.792 548.094 451.747 571.975C451.484 578.077 450.628 584.231 451.559 590.242C452.698 597.658 456.414 604.26 459.716 610.872C465.803 623.057 470.668 635.965 474.233 649.27C475.174 652.775 476.106 656.473 478.458 659.081C475.296 672.122 478.307 686.721 486.295 697.072C487 677.379 493.709 657.981 505.121 642.628C505.619 642.699 506.071 642.842 506.466 643.076C509.326 644.666 509.703 649.841 509.251 653.712C506.805 674.18 504.368 694.668 501.941 715.156C517.483 686.864 522.893 652.164 523.1 618.055C523.128 615.691 523.11 613.327 523.072 610.964C523.063 609.741 523.034 608.519 523.006 607.296C522.583 589.498 520.974 571.761 519.346 554.044C520.616 485.877 522.216 417.964 525.226 351.661C525.264 350.764 525.311 349.868 525.349 348.971C525.753 302.066 530.128 255.202 538.436 209.163C539.179 210.11 539.762 211.241 540.252 212.433C540.731 213.543 541.117 214.725 541.465 215.856C544.551 225.749 547.628 236.639 544.071 246.338C542.801 249.802 540.684 253.154 540.985 256.862C541.484 262.904 547.769 266.021 553.103 267.896C544.777 270.015 538.69 279.622 539.866 288.791C544.899 289.81 549.509 292.989 552.501 297.482C548.032 294.619 541.954 297.971 539.565 302.953C537.184 307.934 537.457 313.864 537.787 319.467C538.135 325.335 538.492 331.193 538.831 337.062C539.424 346.832 539.998 356.592 540.571 366.352C534.437 385.678 533.195 409.06 537.965 430.933C539.424 437.566 541.399 444.096 542.067 450.871C543.093 461.395 540.778 472.296 535.594 481.272C541.625 481.689 546.997 487.293 547.599 493.813C544.88 494.587 542.152 495.372 539.433 496.166C537.034 500.527 542.143 505.132 546.386 507.292C550.629 509.462 555.597 514.382 552.925 518.549C550.714 522.003 545.464 520.638 542.397 523.205C538.295 526.638 540.929 533.79 544.269 538.09C547.195 541.849 550.638 545.761 550.845 550.672C551.062 555.572 545.389 560.462 542.03 557.161C552.257 599.961 562.719 643.423 583.473 681.495C593.333 699.558 605.931 720.077 599.176 739.739C598.348 742.144 597.153 744.548 595.149 745.893C591.885 748.093 587.397 746.748 584.574 743.926C581.761 741.104 580.218 737.121 578.769 733.28C581.328 767.766 582.486 801.947 563.076 823.576C560.564 826.387 557.704 828.965 556.011 832.419C551.052 842.484 557.713 854.251 562.361 864.49C569.145 879.436 571.779 896.531 569.86 913.036C568.947 920.819 567.047 928.603 567.78 936.417C568.505 944.231 572.748 952.392 579.785 954.266C584.104 955.417 588.601 954.032 592.957 953.013C617.409 947.308 642.746 953.207 667.161 959.085C677.585 961.601 688.085 964.138 697.898 968.702C715.51 976.883 729.961 991.044 743.707 1005.66C743.81 1006.57 743.961 1007.44 744.13 1008.31Z" fill="#E0AFA1"/>
<path d="M523.279 615.814C523.251 616.557 523.194 617.322 523.082 618.086C522.489 622.405 520.645 626.603 517.352 629.058C515.16 630.678 512.601 631.381 509.938 631.636C507.727 631.85 505.431 631.758 503.23 631.646C497.284 631.35 490.707 630.739 486.643 626.053C482.889 621.764 482.362 615.213 479.295 610.333C477.178 606.96 473.942 604.536 472.004 601.041C468.551 594.806 470.019 586.727 467.836 579.861C466.283 574.981 462.934 570.865 462.012 565.811C461.476 562.847 461.824 559.811 461.786 556.795C461.72 551.813 460.591 546.923 459.274 542.135C454.504 524.887 446.968 508.545 437.099 494.048C436.562 493.273 436.007 492.469 435.226 491.969C433.674 490.961 431.68 491.491 430.231 492.744C429.883 493.039 429.553 493.396 429.29 493.773C428.754 494.537 428.358 495.372 428.076 496.269C427.935 496.676 427.813 497.094 427.709 497.532C427.7 497.542 427.7 497.563 427.7 497.573C427.465 498.581 427.295 499.6 427.135 500.619C426.543 504.378 425.969 508.148 425.376 511.907C424.915 514.882 424.445 517.857 423.984 520.832L419.402 513.181C416.24 507.689 413.427 501.984 411.997 495.627C411.508 493.457 411.179 491.216 411.066 488.872C411.028 488.373 411.019 487.864 411 487.354C416.391 473.254 433.655 468.232 447.081 472.877C460.516 477.513 470.762 489.168 479.85 500.843C486.897 509.921 493.784 519.67 496.512 531.162C498.836 541.024 497.952 551.671 501.405 561.145C504.528 569.713 511.029 576.825 515.734 584.303C515.809 582.601 515.875 580.92 515.912 579.219C516.58 582.224 517.267 585.209 517.973 588.194C518.942 592.402 519.958 596.599 520.983 600.787C521.811 604.138 522.668 607.521 523.053 610.964C523.241 612.594 523.336 614.204 523.279 615.814Z" fill="#E0AFA1"/>
<path d="M553 172.965L547.995 180.79L546.837 182.593L542.387 189.531C544.372 182.695 547.656 176.949 553 172.965Z" fill="#FEE4DB"/>
<path d="M559.821 974.133C558.852 984.117 556.547 994.662 557.159 1004.45C542.181 1004 532.688 1003.71 532.688 1003.71C530.806 977.22 531.079 950.558 533.506 924.131C535.868 898.539 540.158 872.162 533.28 847.548C531.06 839.602 527.739 832.093 524.427 824.615C515.894 805.391 507.379 786.176 498.865 766.952C491.479 750.457 483.162 733.607 474.855 716.746C471.327 709.614 467.817 702.452 464.948 694.994C460.704 684.002 457.938 672.428 455.163 660.895C448.925 634.937 442.678 608.866 439.809 582.214C438.331 568.43 437.663 554.187 433.674 541.136C433.147 539.384 432.555 537.662 431.877 535.951C431.689 535.462 431.501 534.983 431.303 534.494C432.658 527.76 432.959 520.832 432.169 514.118C431.652 509.676 430.654 505.316 429.158 501.169V501.159C428.791 500.171 428.415 499.193 428.001 498.235C427.992 498.205 427.973 498.194 427.963 498.164C427.888 497.96 427.804 497.767 427.709 497.583C427.597 497.308 427.484 497.053 427.361 496.799C427.371 496.788 427.39 496.758 427.408 496.758C427.606 496.544 427.832 496.381 428.086 496.279C429.149 495.8 430.56 496.228 431.426 497.135C432.517 498.276 432.959 499.937 433.354 501.505C439.639 526.496 443.44 552.231 444.673 578.088C445.002 584.72 445.153 591.404 446.526 597.853C448.549 607.236 453.065 615.753 455.822 624.912C458.042 632.247 459.096 639.939 460.686 647.458C462.755 657.269 465.719 666.815 468.664 676.34C472.192 687.7 475.993 699.559 484.103 707.689C486.239 709.818 490.077 711.438 491.639 708.789C492.251 707.76 492.194 706.425 492.138 705.203C491.413 690.532 492.561 675.495 497.849 661.965C500.37 655.516 503.804 649.485 506.438 643.087C507.05 641.579 507.633 640.041 508.132 638.472C508.856 636.23 509.44 633.948 509.929 631.626C510.606 628.447 511.124 625.217 511.622 621.998C512.817 614.265 513.946 606.543 514.718 598.739C515.198 593.94 515.536 589.132 515.734 584.313C515.809 582.611 515.875 580.93 515.913 579.229C516.581 582.235 517.267 585.22 517.973 588.205C518.227 588.694 518.462 589.183 518.688 589.672C518.886 577.803 519.102 565.924 519.328 554.055C520.598 485.887 522.197 417.975 525.208 351.672C525.246 350.775 525.293 349.879 525.33 348.982C525.735 302.077 530.11 255.213 538.417 209.173C538.53 208.491 538.653 207.818 538.784 207.136C539.311 208.898 539.791 210.671 540.243 212.444C540.544 213.625 540.835 214.817 541.108 216.02C541.56 217.986 541.964 220.044 541.494 222C541.089 223.711 540.054 225.148 539.528 226.819C538.06 231.495 540.816 236.548 540.384 241.459C539.904 246.807 535.755 251.086 535.087 256.425C534.72 259.277 535.416 262.14 535.774 264.993C537.956 282.353 528.172 300.325 533.111 317.002C534.165 325.57 534.24 334.23 533.798 342.93C532.33 373.127 524.813 403.844 531.051 433.471C532.904 442.314 535.99 451.228 534.776 460.193C533.995 465.95 531.465 471.308 530.571 477.054C529.828 481.914 530.27 486.886 530.693 491.796C536.423 556.754 539.622 624.311 518.189 685.296C515.47 693.038 512.328 700.791 511.688 709.054C512.394 739.159 523.345 768.673 536.649 795.773C540.835 804.331 545.37 812.97 546.697 822.547C547.797 830.534 546.612 838.695 547.186 846.764C547.741 854.496 549.905 861.964 551.401 869.544C553.01 877.776 553.838 886.171 554.647 894.535C555.926 907.749 557.215 920.973 558.495 934.186C559.812 947.492 561.101 960.858 559.821 974.133Z" fill="#99685A"/>
<path opacity="0.5608" d="M704.973 249.313C706.601 278.542 706.516 307.883 704.738 337.123C701.812 337.479 698.641 336.99 695.715 336.43C683.212 334.056 670.698 331.672 658.195 329.298C655.288 328.738 652.277 328.147 649.831 326.334C644.289 322.248 643.659 313.823 643.574 306.569C643.273 282.648 643.085 258.085 652.192 234.041C668.553 233.644 684.971 235.702 700.815 240.124C702.819 240.694 704.841 241.295 706.732 242.171C706.177 244.555 705.594 246.929 704.973 249.313Z" fill="white"/>
<path d="M661.45 234.398C662.165 234.409 662.89 234.572 663.624 234.857C662.861 234.786 662.137 234.643 661.45 234.398Z" fill="#E0AFA1"/>
<path d="M650.555 247.867C649.662 255.824 653.237 265.635 660.604 266.541C654.14 266.093 650.998 274.804 649.831 281.711C647.827 293.57 645.814 305.744 648.439 315.168C644.553 325.835 642.982 337.459 643.894 348.88C644.12 351.743 644.506 354.626 644.271 357.489C644.035 360.413 643.151 363.225 642.624 366.098C640.14 379.423 645.061 393.157 644.026 406.696C643.17 417.822 638.343 428.814 640.423 439.746C641.373 444.687 643.697 449.2 645.099 454.019C646.5 458.828 646.867 464.482 644.158 468.598C643.179 470.096 641.834 471.329 641.157 473.01C638.833 478.745 645.484 485.072 643.791 491.052C642.173 496.747 634.373 497.725 632.153 503.156C630.506 507.159 632.604 511.703 632.99 516.064C633.357 520.18 632.087 524.448 629.161 526.292C629.199 544.417 630.13 562.531 631.955 580.543C633.799 598.8 636.518 617.556 632.059 635.283C624.946 615.569 627.627 593.349 623.328 572.719C620.515 559.22 614.785 546.668 610.429 533.648C606.073 520.618 603.1 506.436 606.092 492.978C607.343 487.344 609.629 481.771 610.307 476.107C612.894 476.147 615.801 475.455 618.784 474.915C619.047 472.673 619.32 470.442 619.574 468.201V468.16C622.537 443.179 625.191 418.066 624.25 392.922C623.789 380.89 622.519 368.848 623.093 356.827C624.25 332.936 630.535 314.985 632.548 291.624C634.834 265.186 634.891 233.339 640.78 207.553C645.531 186.688 646.275 171.855 649.21 158.926C650.198 162.421 651.741 165.701 653.726 168.656C658.129 175.227 664.668 180.158 671.988 181.982C665.778 182.348 659.71 184.885 654.893 189.123C659.399 194.39 665.543 197.977 672.082 199.158C664.593 202.052 657.075 207.013 654.206 215.041C651.619 222.326 654.893 232.086 661.422 234.368C655.937 234.164 651.271 241.377 650.555 247.867Z" fill="#E0AFA1"/>
<path d="M653.754 168.676C653.293 178.915 652.127 189.816 650.96 200.636C648.58 222.795 646.18 244.964 643.8 267.112C641.429 289.149 639.058 311.195 635.436 333.018C633.884 342.35 632.096 351.774 632.689 361.248C633.093 367.595 634.542 373.8 635.182 380.127C636.048 388.715 635.398 397.375 634.693 405.973C631.24 448.722 626.78 491.379 621.286 533.883C622.377 520.435 608.538 507.893 612.132 494.72C613.449 489.84 616.986 486.04 618.727 481.323C620.298 477.116 620.317 472.684 619.602 468.211V468.171C622.566 443.19 625.219 418.077 624.278 392.933C623.817 380.901 622.547 368.859 623.121 356.837C624.278 332.946 630.563 314.995 632.576 291.634C634.862 265.197 634.919 233.349 640.808 207.564C645.559 186.699 646.303 171.865 649.238 158.937C650.226 154.505 651.496 150.308 653.265 146.151C654.083 153.038 654.131 160.658 653.754 168.676Z" fill="#99685A"/>
<path d="M761.818 306.223C756.098 313.548 755.119 324.775 759.475 333.119C752.899 332.029 748.627 340.22 746.52 347.046C743.961 355.359 741.59 363.754 739.445 372.22C736.933 382.001 734.712 391.873 732.774 401.806C729.058 420.807 726.367 440.062 724.73 459.419C724.062 467.233 723.573 475.108 724.42 482.902C724.561 484.247 724.749 485.622 724.457 486.936C724.034 488.852 722.698 490.329 721.484 491.796C714.823 499.895 710.862 509.859 708.012 520.353C706.252 526.842 704.926 533.546 703.646 540.107C700.297 540.27 697.295 537.988 695.451 534.881C694.765 533.74 694.238 532.487 693.899 531.203C692.648 526.404 693.41 521.31 694.21 516.42C696.063 505.02 698.001 493.64 699.996 482.27L700.475 482.301C700.673 482.332 700.861 482.342 701.068 482.352C710.778 463.525 711.831 441.111 714.917 419.798C715.341 416.823 715.82 413.848 716.338 410.884C716.639 409.101 716.968 407.338 717.307 405.576C717.382 405.097 717.467 404.608 717.57 404.139C717.759 403.09 717.975 402.051 718.182 401.012C718.323 400.247 718.474 399.494 718.634 398.719C719.245 395.663 719.904 392.607 720.581 389.56C720.798 388.582 721.004 387.594 721.23 386.616C722.961 378.914 724.815 371.242 726.687 363.561C727.139 361.717 727.59 359.883 728.033 358.029C728.644 355.492 729.265 352.965 729.867 350.418C730.836 346.394 731.777 342.38 732.68 338.346C732.981 337.031 733.273 335.707 733.574 334.393C734.355 330.776 735.117 327.17 735.832 323.553C736.086 322.3 736.321 321.057 736.547 319.804C736.773 318.652 736.989 317.491 737.187 316.35C737.234 316.024 737.3 315.698 737.366 315.382C737.544 314.353 737.714 313.314 737.892 312.285C737.939 311.99 737.996 311.674 738.043 311.378C738.184 310.533 738.316 309.697 738.448 308.852C738.598 307.884 738.749 306.926 738.89 305.948C739.05 304.889 739.2 303.819 739.341 302.739C739.482 301.832 739.595 300.936 739.689 300.019C739.718 299.907 739.727 299.784 739.736 299.683C739.746 299.601 739.765 299.53 739.765 299.448C739.915 298.348 740.038 297.248 740.15 296.137C740.226 295.567 740.292 294.996 740.339 294.426C740.452 293.407 740.564 292.388 740.64 291.369C740.687 291.002 740.715 290.625 740.753 290.259C740.828 289.495 740.894 288.751 740.931 287.987C741.016 287.131 741.082 286.275 741.129 285.419C741.232 284.034 741.317 282.659 741.383 281.273C745.118 270.025 745.833 257.922 747.263 246.074C747.63 243.048 748.053 239.992 748.59 236.976C750.057 233.339 752.419 230.547 756.69 230.466C756.587 235.438 756.794 240.419 757.283 245.371C758.365 256.374 760.868 267.203 764.744 277.412C759.776 277.3 755.006 280.621 752.626 285.277C751.826 286.856 751.281 288.578 751.111 290.381C751.036 291.104 751.026 291.817 751.064 292.541C751.215 295.546 752.306 298.45 754.037 300.844C754.037 300.844 754.037 300.844 754.047 300.844C755.947 303.554 758.704 305.561 761.818 306.223Z" fill="#E0AFA1"/>
<path d="M759.146 209.917C758.619 219.657 758.102 229.396 757.594 239.136C757.481 241.214 757.368 243.293 757.255 245.371C756.493 258.788 755.477 272.216 752.598 285.277C752.485 285.807 752.372 286.347 752.25 286.877C751.808 288.751 751.337 290.636 751.036 292.541C750.698 294.456 750.538 296.402 750.745 298.328C750.829 299.092 750.97 299.836 751.149 300.579C751.827 303.524 753.031 306.356 753.36 309.382C754.009 315.769 750.679 321.719 747.875 327.384C741.242 340.862 737.187 355.502 734.073 370.458C732.445 378.201 731.062 386.036 729.698 393.819C729.087 397.334 728.456 400.869 727.845 404.384C726.01 414.643 724.091 424.882 721.833 435.029C718.521 449.914 714.523 465.919 719.838 480.101C714.974 479.683 712.095 485.755 710.571 490.777C707.861 499.743 705.142 508.708 702.414 517.674C701.539 520.608 700.645 523.532 699.751 526.466C699.911 524.387 700.09 522.299 700.25 520.221V520.21C701.219 507.547 701.878 494.822 700.467 482.281C700.664 482.311 700.852 482.322 701.059 482.332C710.769 463.504 711.822 441.091 714.908 419.778C715.332 416.803 715.811 413.828 716.329 410.863C716.63 409.081 716.959 407.318 717.298 405.556C717.373 405.077 717.458 404.588 717.561 404.119C717.75 403.07 717.966 402.031 718.173 400.991C718.314 400.227 718.465 399.473 718.625 398.699C719.236 395.643 719.895 392.586 720.572 389.54C720.789 388.562 720.996 387.574 721.221 386.596C722.952 378.894 724.806 371.222 726.678 363.541C727.13 361.697 727.581 359.863 728.024 358.009C728.635 355.472 729.256 352.945 729.858 350.398C730.827 346.374 731.768 342.36 732.671 338.326C732.972 337.011 733.264 335.687 733.565 334.373C734.346 330.756 735.108 327.149 735.823 323.533C736.077 322.28 736.312 321.037 736.538 319.783C736.764 318.632 736.98 317.471 737.178 316.33C737.225 316.004 737.291 315.678 737.357 315.362C737.535 314.333 737.705 313.294 737.883 312.265C737.931 311.969 737.987 311.654 738.034 311.358C738.175 310.512 738.307 309.677 738.439 308.831C738.589 307.864 738.74 306.906 738.881 305.928C739.041 304.868 739.191 303.799 739.332 302.719C739.473 301.812 739.586 300.915 739.68 299.999C739.709 299.886 739.718 299.764 739.727 299.662C739.737 299.581 739.756 299.51 739.756 299.428C739.906 298.328 740.029 297.227 740.141 296.117C740.217 295.546 740.283 294.976 740.33 294.405C740.443 293.387 740.555 292.368 740.631 291.349C740.678 290.982 740.706 290.605 740.744 290.239C740.819 289.474 740.885 288.731 740.922 287.967C741.007 287.111 741.073 286.255 741.12 285.399C741.223 284.014 741.308 282.638 741.374 281.253C745.109 270.005 745.824 257.902 747.254 246.054C747.621 243.028 748.044 239.971 748.581 236.956C750.152 228.153 752.655 219.565 757.425 212.332C757.951 211.517 758.525 210.701 759.146 209.917Z" fill="#99685A"/>
<path d="M767.67 513.282C763.38 531.121 759.081 548.95 754.771 566.789C755.336 548.135 755.929 529.369 759.617 511.153C760.906 504.745 762.656 498.316 765.789 492.764C765.337 497.746 765.384 502.778 766.118 507.832C766.381 509.716 766.795 511.652 767.67 513.282Z" fill="#E0AFA1"/>
<path d="M862.535 337.948C862.3 344.672 861.472 351.366 860.042 357.906C859.11 362.185 857.586 366.872 853.917 368.757C850.878 370.336 847.303 369.49 844.029 368.604C842.721 368.247 841.432 367.901 840.124 367.554C838.722 367.177 837.264 366.77 835.947 366.128C834.959 365.639 834.056 365.028 833.284 364.172C831.769 362.471 831.073 360.107 830.565 357.805C828.58 349.002 828.27 339.752 829.624 330.817C832.635 330.409 835.712 330.195 838.807 330.195C845.703 330.195 852.722 331.245 859.43 333.415C860.437 333.731 861.5 334.148 862.074 335.086C862.572 335.911 862.563 336.97 862.535 337.948Z" fill="#F2CEC4"/>
<path d="M822.765 375.949C822.013 377.793 821.138 379.576 820.62 381.502C818.927 387.777 821.194 394.552 820.244 401.011C819.256 407.725 814.834 413.532 814.458 420.318C814.241 423.914 815.201 427.5 814.881 431.086C814.128 439.736 806.461 445.767 803.892 453.989C801.549 461.518 803.732 469.882 802.039 477.614C800.232 485.887 794.145 492.611 792.866 501.006C791.934 507.129 793.694 513.394 793.392 519.599C793.138 524.937 791.37 530.062 789.582 535.044C784.887 548.054 779.863 560.931 774.519 573.646C768.846 564.477 764.133 553.627 765.826 542.746C766.927 535.686 770.653 529.063 773.118 522.401C773.945 520.118 774.632 517.826 775.027 515.503C775.178 515.35 775.328 515.177 775.451 514.984C775.874 514.342 776.091 513.588 776.307 512.834C785.819 479.326 795.34 445.808 804.842 412.3C809.537 395.795 814.241 379.209 816.236 362.094C817.468 351.508 817.751 340.444 822.286 330.99C822.464 330.613 822.652 330.246 822.85 329.89C823.631 333.343 824.346 336.817 824.92 340.322C826.933 352.507 827.31 364.814 822.765 375.949Z" fill="#E0AFA1"/>
<path d="M694.953 524C695.141 535.258 696.176 546.607 699.384 557.325C702.602 568.032 708.125 578.128 716.178 585.25C708.379 559.566 705.98 531.977 709.216 505.163C705.735 513.7 700.871 521.586 694.953 524Z" fill="#E0AFA1"/>
<path d="M828.072 323.013C827.366 328.85 826.312 334.637 824.91 340.322C824.205 343.226 823.414 346.099 822.53 348.931C821.486 352.262 820.319 355.583 819.905 359.068C819.454 362.868 819.933 366.77 821.006 370.427C821.279 371.354 821.599 372.302 821.523 373.27C821.439 374.258 820.931 375.144 820.47 376C816.593 383.295 814.721 391.822 815.154 400.237C815.267 402.285 815.502 404.394 815.079 406.401C814.665 408.398 813.62 410.16 812.736 411.974C809.885 417.771 808.512 424.413 809.236 431.29C801.568 437.046 799.216 447.988 797.457 457.911C795.622 468.211 793.806 478.521 791.972 488.831C791.718 490.227 791.445 491.684 790.617 492.784C790.118 493.446 789.45 493.935 788.876 494.526C786.835 496.564 785.969 499.569 785.028 502.391C782.422 510.267 778.706 517.714 774.068 524.407C773.663 523.766 773.362 523.103 773.127 522.411C772.478 520.577 772.337 518.549 772.459 516.502C773.409 516.502 774.341 516.186 775.027 515.513C775.178 515.361 775.328 515.187 775.451 514.994C775.874 514.352 776.091 513.598 776.307 512.844C785.819 479.336 795.34 445.818 804.842 412.31C809.537 395.805 814.241 379.219 816.236 362.104C817.468 351.518 817.751 340.454 822.285 331C822.464 330.623 822.652 330.256 822.85 329.9C824.289 327.159 826.039 324.847 828.072 323.013Z" fill="#99685A"/>
<path d="M848.723 480.926C848.375 482.484 847.998 484.064 847.603 485.694C845.863 492.958 844.094 500.252 842.297 507.608C839.503 506.375 836.699 505.132 833.914 503.91C833.039 503.512 832.117 503.105 831.506 502.33C829.897 500.323 831.026 497.237 830.781 494.588C830.452 491.093 827.742 488.556 825.475 486.06C823.207 483.564 821.109 479.999 822.342 476.759C827.883 477.981 833.133 480.549 838.741 481.364C842.062 481.853 845.449 481.69 848.723 480.926Z" fill="#E1AFA1"/>
<path d="M588.027 189.062C587.66 197.141 586.607 205.189 584.875 213.055C584.725 213.747 584.546 214.481 584.085 214.98C583.681 215.428 583.116 215.642 582.57 215.846C572.71 219.3 561.787 219.065 552.078 215.184C551.551 214.97 551.015 214.746 550.497 214.481C549.698 214.073 548.926 213.574 548.286 212.902C546.113 210.62 545.887 206.993 545.868 203.722C545.831 196.428 546.179 189.123 546.913 181.869C549.274 179.333 551.909 177.753 554.665 176.826C557.629 175.818 560.734 175.573 563.782 175.695C569.662 175.93 575.439 177.478 581.14 179.027C583.182 179.567 585.365 180.219 586.682 181.992C588.112 183.907 588.14 186.607 588.027 189.062Z" fill="white"/>
<path d="M702.028 150.215C701.614 153.598 701.2 156.98 700.786 160.362C700.062 166.343 698.905 173.077 694.229 176.337C690.39 179.017 685.413 178.426 680.916 177.6C677.642 176.999 674.292 176.296 671.432 174.473C670.266 173.729 669.203 172.812 668.186 171.854C667.613 171.294 667.048 170.724 666.493 170.153C665.185 168.818 663.83 167.453 663.078 165.681C662.4 164.081 662.25 162.268 662.165 160.505C661.713 152.243 659.935 138.988 661.384 138.489C664.094 137.562 670.049 135.891 673.643 135.555C674.142 135.504 674.612 135.473 674.998 135.484C677.51 135.555 681.556 135.045 684.03 135.565C688.33 136.462 691.378 136.676 695.687 137.572C697.446 137.939 699.309 140.068 700.589 141.413C702.63 143.583 702.405 147.149 702.028 150.215Z" fill="#FFF1ED"/>
<path d="M838.75 330.746C837.236 338.804 836.577 347.046 836.793 355.268C836.878 358.925 837.094 362.776 835.956 366.138C834.968 365.649 834.065 365.038 833.293 364.182C831.779 362.481 831.083 360.117 830.574 357.815C828.589 349.012 828.279 339.762 829.634 330.827C832.644 330.419 835.721 330.206 838.816 330.206C838.816 330.379 838.788 330.572 838.75 330.746Z" fill="#E0AFA1"/>
<path d="M796.798 242.437C796.158 244.484 795.396 246.552 794.06 248.152C790.711 252.197 784.953 252.217 779.948 251.779C777.953 251.606 775.921 251.412 774.039 250.689C771.076 249.548 768.63 247.174 766.927 244.291C766.475 243.527 766.07 242.732 765.722 241.917C764.067 238.005 763.54 233.634 763.511 229.335C763.464 222.978 764.424 216.62 766.362 210.62C769.119 209.397 771.998 208.592 774.914 208.144C780.926 207.258 787.183 207.94 793.101 209.825C795.537 210.609 798.115 211.791 799.273 214.236C799.903 215.571 799.997 217.12 800.053 218.607C800.317 226.696 799.197 234.806 796.798 242.437Z" fill="white"/>
<path d="M550.488 214.481C549.688 214.074 548.917 213.574 548.277 212.902C546.104 210.62 545.878 206.993 545.859 203.723C545.822 196.428 546.17 189.123 546.904 181.87C549.265 179.333 551.899 177.754 554.656 176.827C551.41 189.022 549.999 201.797 550.488 214.481Z" fill="#E6D7D3"/>
<path opacity="0.4392" d="M673.643 135.555C670.256 146.609 668.45 158.244 668.328 169.878C668.318 170.53 668.318 171.213 668.186 171.845C667.613 171.284 667.048 170.714 666.493 170.143C665.185 168.809 663.83 167.443 663.078 165.671C662.4 164.071 662.25 162.258 662.165 160.495C661.713 152.233 659.935 138.978 661.384 138.479C664.094 137.572 670.049 135.902 673.643 135.555Z" fill="#E0AFA1"/>
<path d="M774.924 208.154C774.924 208.185 774.914 208.195 774.896 208.226C769.185 218.505 769.025 231.617 767.068 243.731C767.04 243.924 767.002 244.128 766.927 244.301C766.475 243.537 766.07 242.742 765.722 241.927C764.067 238.015 763.54 233.644 763.511 229.345C763.464 222.988 764.424 216.631 766.362 210.63C769.128 209.397 771.998 208.603 774.924 208.154Z" fill="#FFD3C7"/>
<path d="M549.058 356.552C561.872 356.44 588.065 356.175 588.065 356.175C575.26 359.017 549.058 356.552 549.058 356.552Z" fill="#E0AFA1"/>
<path d="M548.672 347.82C558.918 347.168 580.03 347.382 580.03 347.382C569.803 349.715 548.672 347.82 548.672 347.82Z" fill="#E0AFA1"/>
<path d="M575.796 264.3C570.151 264.3 559.097 259.787 559.097 259.787C568.082 260.265 586.324 264.127 586.324 264.127C582.825 264.249 579.315 264.3 575.796 264.3Z" fill="#E0AFA1"/>
<path d="M690.221 355.125C679.025 354.28 657.16 347.199 657.16 347.199C668.177 348.921 690.221 355.125 690.221 355.125Z" fill="#E0AFA1"/>
<path d="M693.552 342.991C678.931 338.193 648.316 333.292 648.316 333.292C664.01 332.202 693.552 342.991 693.552 342.991Z" fill="#E0AFA1"/>
<path d="M665.646 236.344C665.646 236.344 681.547 236.303 689.111 237.078C689.111 237.078 673.173 238.718 665.646 236.344Z" fill="#E0AFA1"/>
<path d="M773.523 391.996C767.802 390.569 751.987 383.917 751.987 383.917C762.411 387.829 787.55 393.493 787.55 393.493C783.147 394.471 776.947 392.841 773.523 391.996Z" fill="#E0AFA1"/>
<path d="M752.485 378.12C752.485 378.12 774.66 379.668 785.339 381.706C785.339 381.696 763.069 381.105 752.485 378.12Z" fill="#E0AFA1"/>
<path d="M783.307 295.76C778.782 295.801 769.223 293.458 769.223 293.458L790.533 294.803C790.533 294.793 785.236 295.74 783.307 295.76Z" fill="#E0AFA1"/>
<path d="M830.415 402.713C830.415 402.713 844.245 401.613 850.774 402.581C850.774 402.581 836.944 404.313 830.415 402.713Z" fill="#E0AFA1"/>
<path d="M847.076 460.152C837.273 459.378 818.823 451.167 818.823 451.167C828.156 453.673 847.076 460.152 847.076 460.152Z" fill="#E0AFA1"/>
<path opacity="0.3412" d="M599.515 229.6C598.047 266.551 597.059 295.954 596.608 321.648C589.269 320.476 582.044 314.761 574.366 313.65C560.132 311.572 549.453 324.5 538.831 337.113C537.166 339.1 535.491 341.076 533.816 342.981C531.003 346.17 528.162 349.175 525.227 351.702C525.264 350.806 525.311 349.909 525.349 349.012C525.753 302.107 530.128 255.243 538.436 209.204C538.549 208.521 538.671 207.849 538.803 207.166C539.603 202.795 540.43 198.435 541.296 194.085C541.606 192.526 541.973 191.018 542.397 189.551C544.382 182.705 547.665 176.959 553.009 172.975C555.013 171.468 557.328 170.204 559.972 169.236C564.676 167.525 574.122 167.892 580.454 171.712C589.072 176.918 594.077 187.289 596.184 197.742C598.301 208.164 599.552 228.703 599.515 229.6Z" fill="#AAAD66"/>
<path opacity="0.3412" d="M805.83 280.621C802.744 304.879 799.667 329.146 796.582 353.404C794.013 373.708 791.416 394.114 787.173 414.052C785.066 413.889 783.344 412.127 781.754 410.558C768.761 397.894 748.834 394.695 732.755 401.796C731.071 402.54 729.415 403.416 727.825 404.394C726.95 404.924 726.094 405.494 725.257 406.095C722.481 408.092 719.471 410.527 716.31 410.874C723.77 367.483 739.115 325.509 741.336 281.273C745.071 270.026 745.786 257.922 747.216 246.074C747.583 243.048 748.006 239.992 748.543 236.976C750.114 228.174 752.616 219.585 757.386 212.352C757.941 211.527 758.515 210.712 759.127 209.917C765.722 201.522 776.09 196.102 785.894 198.71C799.018 202.205 806.018 217.955 807.843 232.453C809.885 248.437 807.862 264.646 805.83 280.621Z" fill="#AAAD66"/>
<path opacity="0.2314" d="M765.187 306.722C766.795 314.282 766.287 322.361 763.728 329.615C761.075 337.154 756.352 343.623 753.144 350.907C750.66 356.531 749.249 363.693 752.73 368.665C756.578 374.146 764.095 374.014 770.427 373.351C774.313 372.944 778.198 372.536 782.084 372.129C782.846 372.047 783.646 371.956 784.304 371.538C785.208 370.967 785.716 369.877 786.13 368.838C790.156 358.66 789.902 347.128 792.631 336.461C794.287 329.992 797.043 323.848 798.022 317.216C798.323 315.168 798.445 313.019 797.843 311.052C796.469 306.6 791.906 304.389 787.71 303.197C781.585 301.465 775.197 300.844 768.884 301.343C767.463 301.455 765.958 301.669 764.895 302.688C763.832 303.707 763.559 305.805 765.187 306.722Z" fill="white"/>
</g>
<defs>
<clipPath id="clip0_86_17">
<rect width="1278" height="1080" fill="white"/>
</clipPath>
</defs>
</svg>
