<?xml version="1.0" encoding="utf-8"?>
<!-- Generator: Adobe Illustrator 27.0.0, SVG Export Plug-In . SVG Version: 6.00 Build 0)  -->
<svg version="1.1" id="Слой_1" xmlns="http://www.w3.org/2000/svg" xmlns:xlink="http://www.w3.org/1999/xlink" x="0px" y="0px"
	 viewBox="0 0 2000 1376.29" style="enable-background:new 0 0 2000 1376.29;" xml:space="preserve">
<style type="text/css">
	.st0{fill:#9BAFBD;}
	.st1{fill:#728694;}
	.st2{fill:#FDD5C8;}
	.st3{fill:#FEE4DB;}
	.st4{fill:#E0AFA1;}
	.st5{fill:#99685A;}
	.st6{fill:#AECCD1;}
	.st7{fill:#7A9CA1;}
	.st8{fill:#495B5E;}
	.st9{fill:url(#SVGID_1_);}
	.st10{fill:#E09F89;}
	.st11{fill:url(#SVGID_00000175297517726098898250000005302783624433728423_);}
	.st12{fill:#F6DCDD;}
	.st13{fill:#E39D9D;}
	.st14{fill:#FDACAE;}
	.st15{fill:#E2A094;}
	.st16{fill:#FEBEBE;}
	.st17{fill:#F16E2B;}
	.st18{fill:#DF523C;}
	.st19{fill:#E78B7C;}
	.st20{fill:url(#SVGID_00000041278311843410644130000016828275999692666797_);}
	.st21{fill:#E7DBE0;}
	.st22{fill:url(#SVGID_00000160180713735318166400000011824211540091173797_);}
	.st23{fill:url(#SVGID_00000130644769244740454960000011798020424209184898_);}
	.st24{fill:#E75742;}
	.st25{fill:#EEA755;}
	.st26{fill:#EEB3B2;}
	.st27{fill:#FA9DA5;}
	.st28{fill:#FABEB5;}
	.st29{fill:#F25026;}
	.st30{fill:url(#SVGID_00000119806666906086678120000016266900029839202209_);}
	.st31{fill:url(#SVGID_00000029012253332928430450000001683022053647111063_);}
	.st32{fill:url(#SVGID_00000162349797049618919160000006411405792973796260_);}
	.st33{fill:url(#SVGID_00000042014243030653211480000010584772662909567165_);}
	.st34{fill:url(#SVGID_00000033326688038496882680000014421768450804327308_);}
	.st35{fill:url(#SVGID_00000050647161768941046000000000225233477537242515_);}
	.st36{fill:url(#SVGID_00000142862939644781343450000017173122660993675414_);}
	.st37{fill:url(#SVGID_00000111176951823540978580000010601889105436109700_);}
	.st38{fill:url(#SVGID_00000145037340704992008540000010995942977067354773_);}
	.st39{fill:url(#SVGID_00000032640596590770040190000016926681785403128998_);}
	.st40{fill:url(#SVGID_00000075861921793582734010000016945512661882234549_);}
	.st41{fill:url(#SVGID_00000067219137239627975290000007812101592466780092_);}
	.st42{fill:url(#SVGID_00000062886205660848924530000004945162503418864788_);}
	.st43{fill:url(#SVGID_00000039830623123038152920000002467269915648286592_);}
	.st44{fill:url(#SVGID_00000115479400187702546850000009422318288257053621_);}
	.st45{fill:url(#SVGID_00000141416008361269450990000018074611639567983522_);}
	.st46{fill:url(#SVGID_00000137850196714481309920000015710938944380821675_);}
	.st47{fill:url(#SVGID_00000030466796234734748460000017380240163051933326_);}
	.st48{fill:url(#SVGID_00000116216251069644424980000011426819509663814303_);}
	.st49{fill:url(#SVGID_00000043435495591907263850000015577257550897627810_);}
	.st50{fill:url(#SVGID_00000177451813516625402020000007284862476549858212_);}
	.st51{fill:url(#SVGID_00000085213306043336632720000000290306043197040570_);}
	.st52{fill:url(#SVGID_00000018918369068640754190000009709520065421313681_);}
	.st53{fill:url(#SVGID_00000134213373150080982240000011708244505772926087_);}
	.st54{fill:url(#SVGID_00000000916054997873376950000000982510910835294635_);}
	.st55{fill:url(#SVGID_00000009560083178075399240000014171026246210302631_);}
	.st56{fill:url(#SVGID_00000150098692881873593620000007911181620025927329_);}
	.st57{fill:url(#SVGID_00000131336708860188840110000015590848699097829301_);}
	.st58{fill:url(#SVGID_00000004507449216328433770000011750779693255128738_);}
	.st59{fill:url(#SVGID_00000181772702988051109850000001895421223945249211_);}
	.st60{opacity:0.4;fill:url(#SVGID_00000183214674518951521570000000615091074995817623_);}
	.st61{fill:url(#SVGID_00000106128379346997941420000008716269723175748276_);}
	.st62{fill:url(#SVGID_00000156577232675204854020000010349696738003580581_);}
	.st63{fill:url(#SVGID_00000173849918465110626290000001959227273071513259_);}
	.st64{fill:url(#SVGID_00000044171778407214483120000007325197858089983411_);}
	.st65{fill:url(#SVGID_00000163030465977213446210000014007044932534289049_);}
	.st66{fill:url(#SVGID_00000063619046316401883470000016059058429115910020_);}
	.st67{fill:url(#SVGID_00000040542353876514057910000007601102851838952576_);}
	.st68{fill:url(#SVGID_00000084502714205152832870000007279395028793515405_);}
	.st69{fill:#AD0000;}
	.st70{fill:url(#SVGID_00000030471876653665170070000017160996457346741394_);}
	.st71{fill:url(#SVGID_00000069361443557439338620000008433049125782911374_);}
	.st72{fill:url(#SVGID_00000053530805592427215320000016207028322351514019_);}
	.st73{fill:url(#SVGID_00000102502769585684170280000008665001176845300414_);}
	.st74{fill:url(#SVGID_00000171710616609462592300000013777989990082822580_);}
	.st75{fill:#BF9184;}
	.st76{fill:none;stroke:#FDD5C8;stroke-miterlimit:10;}
	.st77{fill:url(#SVGID_00000090988711173182855150000011343383985409369271_);}
	.st78{fill:url(#SVGID_00000085244954313618072260000017884209346697377184_);}
	.st79{fill:url(#SVGID_00000159437010076872362430000001265009646038798727_);}
	.st80{fill:url(#SVGID_00000095296372054167867600000016004583871881665459_);}
	.st81{fill:url(#SVGID_00000109031767721908438730000006663116915018879149_);}
	.st82{fill:url(#SVGID_00000111166692691540970650000000044959009584314303_);}
	.st83{fill:url(#SVGID_00000031909810567813965310000004720072019001041579_);}
	.st84{fill:url(#SVGID_00000069389913099039671450000007225713588615478661_);}
	.st85{fill:url(#SVGID_00000005250251284813836010000017142655654304875182_);}
	.st86{fill:url(#SVGID_00000178902534967041959970000010897783403915199638_);}
	.st87{fill:none;stroke:#E0AFA1;stroke-miterlimit:10;}
	.st88{fill:#59767A;}
	.st89{fill:none;}
	.st90{fill:#314042;}
	.st91{fill:url(#SVGID_00000098188742417950094750000004278780685969163169_);}
	.st92{fill:url(#SVGID_00000129927890993203952960000014179227574529529735_);}
	.st93{fill:url(#SVGID_00000086688737894322561480000000207641723788344458_);}
	.st94{fill:url(#SVGID_00000064318302421074124540000012701944913539859089_);}
	.st95{fill:url(#SVGID_00000047754026855061893210000012896132553977239448_);}
	.st96{fill:none;stroke:#99685A;stroke-miterlimit:10;}
	.st97{fill:#F2CEC4;}
	.st98{fill:#E1AFA1;}
	.st99{fill:url(#SVGID_00000009553421249436347920000017112899459749487000_);}
	.st100{fill:url(#SVGID_00000036953307465130487680000011068650418385912740_);}
	.st101{fill:url(#SVGID_00000179639423901008641830000003949266221059637888_);}
	.st102{fill:url(#SVGID_00000147183027346086695800000004467342973534927030_);}
	.st103{fill:url(#SVGID_00000064336266205394939980000008202499879359514531_);}
	.st104{fill:url(#SVGID_00000024710065834232903960000011063753719848228016_);}
	.st105{fill:url(#SVGID_00000040566480698578982940000010761289980867672229_);}
	.st106{fill:url(#SVGID_00000127762423629472352030000004027062122995589765_);}
	.st107{fill:url(#SVGID_00000047759028598990002030000015469679571534396290_);}
	.st108{fill:url(#SVGID_00000014599803395846117230000016797476090530767003_);}
	.st109{fill:#E39F8D;}
	.st110{fill:#C2553C;}
	.st111{fill:url(#SVGID_00000094610747260104003110000013134032009810910084_);}
	.st112{fill:url(#SVGID_00000174584627638293982920000003013467555154786467_);}
	.st113{fill:url(#SVGID_00000026145689905281771870000010040584262551960969_);}
	.st114{fill:#AD4024;}
	.st115{fill:url(#SVGID_00000059283658010763425860000009299252965935092368_);}
	.st116{fill:url(#SVGID_00000126286396450151941860000011507762740986224267_);}
	.st117{fill:url(#SVGID_00000137828026538339740960000017107218348603936959_);}
	.st118{opacity:0.5608;fill:#FFFFFF;}
	.st119{fill:#FFFFFF;}
	.st120{fill:#FFF1ED;}
	.st121{fill:#E6D7D3;}
	.st122{opacity:0.4392;fill:#E0AFA1;}
	.st123{fill:#FFD3C7;}
	.st124{opacity:0.3412;fill:#AAAD66;}
	.st125{opacity:0.2314;fill:#FFFFFF;}
	.st126{fill:#23282B;}
	.st127{fill:none;stroke:#99685A;stroke-linecap:round;stroke-linejoin:round;stroke-miterlimit:10;}
	.st128{fill:#495760;}
	.st129{fill:#353A3E;}
	.st130{fill:#3A474F;}
	.st131{fill:#709EB8;}
	.st132{fill:#8BB0C5;}
	.st133{fill:#31556B;}
	.st134{fill:#4E768F;}
	.st135{fill:#263F4F;}
	.st136{fill:#576975;}
	.st137{fill:none;stroke:#3A474F;stroke-miterlimit:10;}
	.st138{fill:#2F3943;}
	.st139{fill:#C78D7D;}
	.st140{fill:#421D13;}
	.st141{fill:#5E3E35;}
	.st142{fill:#806158;}
	.st143{fill:#EFC3B6;}
	.st144{fill:#C79789;}
	.st145{fill:none;stroke:#EFC3B6;stroke-miterlimit:10;}
	.st146{fill:#69483F;}
	.st147{fill:none;stroke:#806158;stroke-width:3;stroke-linecap:round;stroke-linejoin:round;stroke-miterlimit:10;}
	.st148{fill:#E8E8E8;}
	.st149{fill:#BACAD9;}
	.st150{fill:#694034;}
	.st151{fill:#658F85;}
	.st152{fill:#407065;}
	.st153{fill:#323C42;}
	.st154{fill:#B4CADE;}
	.st155{opacity:0.3294;fill:#C75B63;}
	.st156{fill:none;stroke:#5E3E35;stroke-width:4;stroke-linecap:round;stroke-linejoin:round;stroke-miterlimit:10;}
	.st157{fill:#4C6270;}
	.st158{fill:#7A4A3D;}
	.st159{fill:#252E37;}
	.st160{fill:#3E4852;}
	.st161{fill:none;stroke:#E0AFA1;stroke-linecap:round;stroke-linejoin:round;stroke-miterlimit:10;}
	.st162{fill:#BA8677;}
	.st163{fill:#313B45;}
	.st164{fill:none;stroke:#4E768F;stroke-miterlimit:10;}
	.st165{fill:#193646;}
	.st166{opacity:0.1882;fill:#FFFFFF;}
	.st167{fill:none;stroke:#421D13;stroke-miterlimit:10;}
	.st168{opacity:0.2196;fill:#1390D4;}
	.st169{opacity:0.2392;fill:#027DCF;}
	.st170{opacity:0.3216;fill:#FFFFFF;}
	.st171{fill:#CFCFCF;}
	.st172{fill:url(#SVGID_00000149345946601788659940000017761831179268222893_);}
	.st173{fill:url(#SVGID_00000030478004908655796990000006310767727164699560_);}
	.st174{opacity:0.749;fill:url(#SVGID_00000149382051952168432530000012254602645608282251_);}
	.st175{fill:url(#SVGID_00000150802845570310039550000014464493612638200993_);}
	.st176{fill:url(#SVGID_00000030470196103042573570000007062163488327777935_);}
	.st177{fill:#821111;}
	.st178{fill:url(#SVGID_00000034778663473302696210000004332481587219385226_);}
	.st179{fill:#BC0002;}
	.st180{fill:url(#SVGID_00000013179432017901734420000012287524487163222166_);}
	.st181{fill:url(#SVGID_00000143594497622990903790000002115585784949787807_);}
	.st182{fill:url(#SVGID_00000078728680267821095990000009811048036346366133_);}
</style>
<g>
	<rect y="0.02" class="st0" width="2000" height="1323.08"/>
	<g>
		<path class="st2" d="M1700.09,1323.1h42.1h47.32h110.76h9.01h3.63c-0.74-4.78-1.56-9.54-2.45-14.3v-0.01
			c-19.03-101.53-70.82-197.93-102.49-296.31c-11.37-35.28-20.15-70.82-23.9-106.94c-1.81-17.33-2.45-34.8-1.66-52.43
			c-8.38-57.6-23.26-114.25-44.27-168.52c-4.3-11.15-8.87-22.19-13.69-33.13c-8.26-18.72-17.35-37.64-25.38-56.8
			c-4.8-11.46-9.22-23.02-12.85-34.67c-0.12-0.38-0.24-0.76-0.35-1.15c-1.88-6.08-3.52-12.19-4.89-18.34
			c-0.77-3.45-1.46-6.89-2.04-10.36c-2.55-15.05-3.26-30.28-1.31-45.72l-110.41,72.83c-0.01,0-0.01,0.01-0.01,0.01l-47.1,31.07
			l-8.14,5.37l-88.3,58.25l-30.88,20.37l-4.15,2.74l-2.16,1.43l-0.73,0.48c0.09,0.46,0.19,0.92,0.3,1.38
			c0.34,1.59,0.68,3.17,1.03,4.75c0.06,0.29,0.12,0.56,0.18,0.85c1.16,5.3,2.38,10.57,3.66,15.85c0.02,0.07,0.04,0.13,0.05,0.21
			c4.38,18.03,9.41,35.87,14.95,53.54c0.04,0.11,0.07,0.23,0.1,0.34c37.43,118.89,98.83,230.19,149.44,344.78
			c10.19,23.08,19.99,46.41,26.92,70.67c12.88,45.1,16.46,94.57,34.28,136.97c2.41,5.74,5.09,11.35,8.07,16.8h2.13h18.79h18.06
			h29.01H1700.09z"/>
		<path class="st2" d="M1917.69,1376.29v-0.17C1917.74,1376.18,1917.74,1376.24,1917.69,1376.29z"/>
		<path class="st4" d="M1700.09,1323.1h42.1h47.32c-14.91-48.7-29.83-97.38-44.75-146.07c-2.8-9.15-5.63-18.36-10.12-26.8
			c-7.67-14.39-19.78-25.82-31.27-37.41c-57.54-58.04-104.24-126.8-136.98-201.68c15.37,86.48,82.98,152.34,132.49,224.9
			c9.28,13.61,17.51,33.48,5.65,44.92c-6.79,6.54-17.86,6.79-26.48,2.98c-8.63-3.79-15.32-10.88-21.54-17.96
			c-51.63-58.8-87.37-129.59-121.24-200.12c-47.06-97.99-92.13-199.03-110.28-305.79c-0.01-0.03-0.02-0.07-0.02-0.1
			c-0.45-2.67-0.89-5.34-1.31-8.02l-30.88,20.37l-4.15,2.74l-2.16,1.43c-0.14,0.62-0.29,1.24-0.43,1.87
			c0.34,1.59,0.68,3.17,1.03,4.75c0.06,0.29,0.12,0.56,0.18,0.85c1.16,5.3,2.38,10.57,3.66,15.85c0.02,0.07,0.04,0.13,0.05,0.21
			c4.38,18.03,9.41,35.87,14.95,53.54c0.04,0.11,0.07,0.23,0.1,0.34c37.43,118.89,98.83,230.19,149.44,344.78
			c10.19,23.08,19.99,46.41,26.92,70.67c12.88,45.1,16.46,94.57,34.28,136.97c3.1,5.82,6.47,11.45,10.21,16.8h18.79h18.06
			c-0.86-2-1.84-3.97-2.78-5.92c-11.2-23.06-19.23-47.64-23.83-72.85c30.02,13.19,36.8,51.67,55.61,78.77H1700.09z"/>
		<path class="st4" d="M1910.46,1308.79v0.01c-0.25,4.77-0.64,9.54-1.18,14.3h-9.01c-3.47-17.89-5.31-36.16-8.82-54.08
			c-8.27-42.16-25.63-81.93-43.47-121.03c-17.13-37.55-34.81-74.86-53.05-111.9c-7.43-15.1-16.55-31.57-32.6-36.62
			c-19.31-6.06-38.9,7.13-54.87,19.58c1.11-25.68,2.38-52.11,13.08-75.49c4.97-10.88,11.95-20.98,14.74-32.62
			c3.48-14.48,0.09-29.63-3.46-44.08c-13.54-55.07-29.69-109.49-48.39-163.03c22.75,46.46,45.13,106.16,63.48,167.15
			c8.21,27.26,15.65,55.91,10.5,83.91c-0.78,4.26-1.79,8.89,0.25,12.71c1.56,2.91,4.57,4.68,7.38,6.4
			c16.67,10.19,30.73,23.42,42.92,38.47C1839.64,1110.86,1891.44,1207.26,1910.46,1308.79z"/>
		<path class="st4" d="M1784.07,905.54c-13.24-74.06-28.56-147.74-45.93-220.95c21.01,54.28,35.89,110.92,44.27,168.52
			C1781.62,870.74,1782.27,888.21,1784.07,905.54z"/>
		<path class="st5" d="M1605.62,1202.57c5.28,42.27,18.98,83.48,40.02,120.52h-20.92c-2.98-5.45-5.66-11.06-8.07-16.8
			c-17.82-42.4-21.4-91.88-34.28-136.97c-6.93-24.26-16.73-47.59-26.92-70.67c-50.61-114.58-112.01-225.89-149.44-344.78
			c-0.03-0.11-0.06-0.23-0.1-0.34c-5.55-17.67-10.57-35.51-14.95-53.54c-0.01-0.07-0.03-0.13-0.05-0.21
			c-1.28-5.27-2.5-10.54-3.66-15.85c-0.06-0.29-0.12-0.56-0.18-0.85c-0.35-1.58-0.69-3.16-1.03-4.75c-0.1-0.46-0.21-0.92-0.3-1.38
			l0.73-0.48l2.16-1.43c0.58,1.99,1.18,3.97,1.77,5.96c0.02,0.07,0.04,0.14,0.06,0.23v0.01c44.94,150.1,106.84,295.12,184.15,431.39
			c9.43,16.61,19.13,33.17,31.25,47.91c19.04,23.16,43.5,41.19,68.24,58.11c-19.71-8.08-39.44-16.15-59.16-24.24
			c-2.16-0.88-4.68-1.76-6.76-0.7C1605.26,1195.23,1605.21,1199.31,1605.62,1202.57z"/>
		<path class="st5" d="M1742.19,1323.1h-42.1c-9.15-24.98-20.37-49.2-33.53-72.32c6.47,1.07,11.08,6.66,15.07,11.86l22.71,29.6
			c1.17,1.53,2.44,3.13,4.25,3.77c3.36,1.22,7.09-1.56,8.34-4.92c1.24-3.35,0.76-7.07,0.52-10.64c-0.77-11.35,1.11-22.87,5.45-33.38
			c3.78-0.13,5.33,4.75,5.76,8.51C1731.27,1278.43,1736.18,1300.88,1742.19,1323.1z"/>
		<path class="st3" d="M1721.1,1110.51c15.8,20.61,25.25,46.07,43.95,64.08c5.14,4.95,13.12,9.38,18.98,5.3
			c2.71-1.89,4.08-5.12,5.21-8.22c10.01-27.65,10.24-58.73,0.64-86.52c-1.02-2.96-4.04-6.51-6.52-4.61
			c-1.09,0.84-1.31,2.36-1.42,3.73c-1.58,20.2,3.61,42.6-7.84,59.31c-0.92,1.34-2.16,2.73-3.78,2.75c-1.19,0.01-2.24-0.73-3.19-1.45
			C1751.96,1133.43,1737.47,1121.08,1721.1,1110.51z"/>
		<path class="st3" d="M1644.64,1119.28c7.63,8.5,13.2,18.6,19.85,27.89s14.8,18.08,25.46,22.19c4.69-9.27-0.24-20.35-5.56-29.27
			c-5.48-9.18-11.45-18.07-17.89-26.6c-4.97-6.59-11.4-13.57-19.66-13.46c-1.25,0.02-2.57,0.23-3.55,1.02
			c-1.42,1.16-1.72,3.19-1.76,5.02C1641.41,1111.88,1643.1,1117.56,1644.64,1119.28z"/>
		<path class="st3" d="M1514.95,730.38c26.6,78.47,63.49,153.44,109.43,222.38C1601.3,869.21,1563.11,789.85,1514.95,730.38z"/>
	</g>
	<g>
		<path class="st2" d="M1037.73,0.02c-20.29,47.31-40,92.66-64.39,139.86c-12.94,25.05-28.76,52.16-49.87,70.84
			c-13.84,12.24-39.83,32.97-56.85,40.11c-8.24,3.46-17.24,6.51-26.66,9.04c-4.33,1.17-8.74,2.22-13.2,3.15
			c-22.64,4.72-46.56,6.31-67.18,3.26c-5.59-0.83-11.54-2.41-17.62-4.45c-0.13-0.04-0.27-0.09-0.4-0.13
			c-16.53-5.59-34.02-14.48-48.1-20.64c-24.42-10.69-31.13-15.68-50.93-41.51c-6.06-7.91-13.35-17.76-22.76-30.35v-0.01
			c-0.01-0.01-0.01-0.01-0.02-0.02h-0.07c-0.01,0-0.01,0-0.02,0h-0.9c-0.61,0-1.2-0.01-1.78-0.02c-0.3,0-0.58-0.01-0.87-0.02
			c-0.44-0.01-0.87-0.02-1.29-0.04c-0.43-0.02-0.85-0.04-1.27-0.06c-0.46-0.02-0.92-0.05-1.37-0.08c-1.06-0.07-2.07-0.16-3.07-0.28
			c-0.33-0.03-0.66-0.07-0.98-0.11c-1.41-0.17-2.75-0.39-4.04-0.64c-0.41-0.08-0.82-0.16-1.22-0.25c-0.43-0.09-0.85-0.19-1.28-0.3
			c-0.04-0.01-0.07-0.01-0.1-0.02c-0.02,0-0.04-0.01-0.06-0.01c-0.01,0-0.02,0-0.03-0.01c-0.01,0-0.02,0-0.02,0h-0.01l-0.01-0.01
			c-0.09-0.02-0.19-0.05-0.29-0.07c-0.33-0.08-0.65-0.16-0.96-0.26c-0.37-0.09-0.73-0.19-1.08-0.31c-0.3-0.08-0.58-0.17-0.87-0.27
			c-0.8-0.25-1.57-0.52-2.32-0.81c-0.44-0.16-0.87-0.33-1.29-0.51c-1.31-0.54-2.57-1.14-3.78-1.81c-0.35-0.18-0.7-0.38-1.04-0.57
			c-0.38-0.22-0.76-0.44-1.13-0.68c-0.33-0.19-0.65-0.4-0.96-0.61c-2.77-1.82-5.33-3.94-7.83-6.36c-1.19-1.13-2.36-2.33-3.53-3.6
			c-5.42-5.84-9.86-12.43-13.95-19.27c-0.51-0.85-1.02-1.7-1.52-2.56v-0.01c-1.19-2.03-2.36-4.08-3.52-6.14
			c-0.41-0.71-0.81-1.43-1.2-2.13c-0.77-1.35-1.53-2.71-2.3-4.06c-0.98-1.75-1.99-3.5-3.01-5.23
			c-9.52-16.23-16.34-21.99-22.76-27.13c-0.71-0.56-1.41-1.12-2.1-1.69c-0.35-0.28-0.7-0.56-1.05-0.85c-0.7-0.56-1.39-1.15-2.1-1.77
			c-0.32-0.27-0.63-0.54-0.94-0.83c-1.16-1.05-2.32-2.16-3.51-3.44c-0.47-0.5-0.95-1.04-1.44-1.59c-0.02-0.01-0.02-0.02-0.03-0.03
			c-0.5-0.57-1.01-1.18-1.53-1.82c-0.24-0.3-0.48-0.61-0.74-0.92c-0.63-0.81-1.27-1.67-1.92-2.59c-0.19-0.26-0.38-0.53-0.56-0.8
			c-0.55-0.8-1.12-1.64-1.69-2.53c-0.33-0.51-0.63-0.97-0.9-1.41c-3.81-5.87-3.6-5.16-9.21-10.9c-0.05-0.06-0.12-0.12-0.18-0.19
			c-2.16-2.22-6.41-4.18-10.83-6.31c-0.01,0-0.02,0-0.03-0.01c-5.19-2.5-10.57-5.22-13.02-8.85c-0.32-0.47-0.64-0.94-0.97-1.42
			c-0.48-0.72-0.98-1.43-1.5-2.12c-0.5-0.71-1.02-1.42-1.54-2.11c-0.51-0.7-1.04-1.41-1.58-2.1c-0.52-0.7-1.07-1.39-1.61-2.09
			c-0.54-0.7-1.1-1.41-1.65-2.1c-2.78-3.51-5.66-7.05-8.57-10.75c-0.58-0.74-1.17-1.49-1.75-2.24c-1.18-1.51-2.35-3.05-3.51-4.62
			c-1.15-1.54-2.29-3.12-3.42-4.74c-0.61-0.86-1.2-1.73-1.79-2.62c-0.33-0.49-0.66-0.97-0.97-1.47h200.58
			c0.01,0,0.02-0.01,0.02-0.02c0,0.01,0,0.02,0,0.02H1037.73z"/>
		<path class="st143" d="M867.59,147.21c-3.32,0.79-5.88-2.84-7.34-5.94c-5.83-12.23-11.45-24.55-16.86-36.97
			c-7.94,22.01,2.93,45.28,7.25,68.65c0.73,3.91,1.26,7.83,1.5,11.73c0.44,7.24-0.61,15.38-6.23,19.97
			c-1.01,0.82-2.12,1.5-3.26,2.12c-1.28,0.72-2.61,1.38-3.84,2.18c-2.63,1.69-4.78,3.87-6.67,6.3c-2.88,3.67-5.19,7.94-7.69,12.01
			v0.01c-0.74,1.2-1.5,2.39-2.29,3.54c-5.24,7.6-14.82,14.31-23.22,10.44c-1.78-0.82-3.43-2.1-5.38-2.35
			c-7.49-0.92-8.13,11.52-14.24,15.97c-4.41,3.2-10.48,1.42-15.93,1.31c-7.44-0.14-14.36,3.11-21.43,5.64
			c-0.13-0.04-0.27-0.09-0.4-0.13c-16.53-5.59-34.02-14.48-48.1-20.64c-24.42-10.69-31.13-15.68-50.93-41.51
			c-6.06-7.91-13.35-17.76-22.76-30.35v-0.01c-0.01-0.01-0.01-0.01-0.02-0.02h-0.07c-0.01,0-0.01,0-0.02,0h-0.9
			c0.01-0.06,0.02-0.12,0.04-0.18c0.08-0.47,0.24-0.91,0.46-1.34c0.8-1.52,2.4-2.4,3.91-3.21c2.32-1.25,4.62-2.54,6.89-3.87
			c5.16-2.95,10.24-6.06,15.22-9.29c11.39-7.38,22.34-15.43,32.89-23.99c8.83-7.16,17.39-14.69,25.71-22.5
			c21.72-20.39,41.83-42.72,60.91-65.56c5.34-6.39,10.65-12.85,16.01-19.27c2.19-2.64,4.4-5.26,6.62-7.87
			c3.47-4.07,6.97-8.1,10.54-12.06h62.96l10.35,138.14C871.55,141.71,871.06,146.38,867.59,147.21z"/>
		<path class="st4" d="M647.96,0.02c-0.73,4.84,0.5,9.97,3.83,13.08c0.8,0.76,1.72,1.39,2.77,1.88c4.81,2.23,10.4,0.76,15.69,0.37
			c5.28-0.39,11.75,1.24,13.23,6.34c0.85,2.96-0.35,6.13-1.92,8.79c-7.1,12.01-21.03,17.87-34.01,22.95c-2.85,1.12-5.84,2.26-8.89,2
			c-3.06-0.26-6.19-2.36-6.55-5.41c-0.34-2.92,1.73-6.36-0.23-8.54c-1.68-1.9-4.77-0.94-7.05,0.17
			c-26.11,12.9-51.37,32.01-80.49,31.22c-11.99-0.33-23.54-4.08-34.84-8.22c0.28,0.43,0.57,0.89,0.9,1.41
			c0.57,0.89,1.14,1.73,1.69,2.53c0.18,0.27,0.37,0.54,0.56,0.8c0.65,0.92,1.29,1.78,1.92,2.59c0.26,0.32,0.5,0.63,0.74,0.92
			c0.52,0.64,1.03,1.24,1.53,1.82c0.01,0.01,0.01,0.02,0.03,0.03c0.48,0.55,0.96,1.09,1.44,1.59c1.19,1.27,2.35,2.39,3.51,3.44
			c0.32,0.29,0.63,0.56,0.94,0.83c0.71,0.63,1.41,1.21,2.1,1.77c0.35,0.29,0.7,0.57,1.05,0.85c0.7,0.57,1.39,1.13,2.1,1.69
			c16.3,1.5,32.9,1.02,47.92-5.17c2.43-1.01,4.96-2.17,7.57-1.87c2.62,0.31,5.16,2.83,4.38,5.34c-0.68,2.19-3.26,3.04-5.46,3.71
			c-8.8,2.74-16.76,8.09-22.64,15.19c-2.37,2.87-4.49,6.84-2.82,10.17c0.06,0.12,0.12,0.24,0.19,0.35
			c-0.22,0.12-0.43,0.26-0.64,0.41c-1.42,1.04-2.28,2.53-2.75,4.22c0.73,1.29,1.46,2.58,2.18,3.88c0.44,0.77,0.87,1.55,1.31,2.32
			c1.16,2.06,2.33,4.11,3.52,6.14v0.01c0.5,0.86,1.01,1.71,1.52,2.56c4.09,6.84,8.53,13.44,13.95,19.27
			c1.17,1.27,2.34,2.47,3.53,3.6c1.7,0.77,3.43,1.45,5.18,2.02c14.4,4.77,29.91,4.32,45.1,3.47c1.07-0.05,2.12-0.11,3.18-0.17
			c11.63-0.67,23.42-1.35,34.47-5.03c17.18-5.7,31.26-18.14,43.66-31.32c24.8-26.33,44.87-56.68,64.81-86.85
			c3.65-5.53,7.35-11.15,9.45-17.44c0.83-2.5,1.41-5.07,1.79-7.67c0.54-3.49,0.79-7.04,0.98-10.57c0.02-0.5,0.04-0.99,0.07-1.49
			H647.96z M697.36,67.48c2.61-1.79,5.33-3.73,8.49-3.99c4.37-0.36,8.5,2.81,10.27,6.82c1.77,4.02,1.54,8.66,0.47,12.91
			c-2.06,8.23-6.9,15.24-12.71,21.56c-3.17,3.48-6.63,6.74-10.07,9.87c-4.94,4.49-10.06,8.99-15.64,12.64
			c-3.98,2.59-8.18,4.75-12.73,6.16c-11.34,3.54-23.55,2.1-35.33,0.64c-20.15-2.51-41.19-5.36-57.85-16.98
			c-0.7-0.48-1.43-0.98-2.17-1.48c12.11-1.65,23.86-5.32,35.52-8.98C637.47,96.66,669.87,86.41,697.36,67.48z"/>
		<path class="st143" d="M901.29,150.83c10.17-5.63,20.33-11.27,30.5-16.9c5.93-3.29,12.05-6.74,16.05-12.2
			c1.45-1.99,2.61-4.61,1.59-6.85c-0.94-2.06-3.49-2.98-5.74-2.74c-2.25,0.25-4.29,1.41-6.25,2.54
			c-8.72,5.06-17.45,10.11-26.17,15.17c-4.82,2.79-9.87,5.81-12.58,10.68c-1.1,1.97-1.73,4.46-0.63,6.43c1.13,2,3.76,2.75,6.02,2.35
			C906.33,148.92,908.32,147.63,901.29,150.83z"/>
		<path class="st143" d="M999.94,0.02c-3.74,1.62-7.71,2.82-11.62,4c-2.81,0.85-5.63,1.7-8.44,2.55
			c-5.49,1.66-10.97,3.32-16.46,4.97c-1.9,0.57-4.06,1.12-5.75,0.1c-1.13-0.68-1.78-1.9-2.4-3.05c-1.57-2.92-3.24-5.78-5.02-8.58
			H999.94z"/>
		<path class="st143" d="M845.86,238.85c-0.65,7.29-2.68,14.44-5.89,21.02c-4.33,1.17-8.74,2.22-13.2,3.15
			c1.32-11.93,0.55-24.1-2.32-35.75c-0.47-1.97-1.02-3.92-1.62-5.86c4.08-3.32,10.24-8.97,15.34-15.46c0.83-1.06,2.15-2.27,3.32-1.6
			c0.69,0.39,0.91,1.25,1.07,2.02c0.03,0.13,0.05,0.27,0.08,0.4C844.85,217.34,846.8,228.1,845.86,238.85z"/>
		<path class="st4" d="M647.94,0.02c-2.3,2.11-5.2,3.6-8.02,5.01c-20.93,10.45-42.05,20.55-63.31,30.31
			c-18.87,8.65-38.71,17.19-59.45,16.41c-9.61-0.37-19.37-1.79-27.89-4.49c-0.01,0-0.02,0-0.03-0.01
			c-5.19-2.5-10.57-5.22-13.02-8.85c-0.32-0.47-0.64-0.94-0.97-1.42c-0.48-0.72-0.98-1.43-1.5-2.12c-0.49-0.71-1.01-1.42-1.54-2.11
			c-0.51-0.7-1.04-1.41-1.58-2.1c-0.52-0.7-1.07-1.39-1.61-2.09c-0.54-0.7-1.1-1.41-1.65-2.1c-2.78-3.51-5.66-7.05-8.57-10.75
			c-0.58-0.74-1.17-1.49-1.75-2.24c-1.18-1.51-2.35-3.05-3.51-4.62c-1.15-1.54-2.29-3.12-3.42-4.74c-0.61-0.86-1.2-1.73-1.79-2.62
			c0.12-0.49,0.27-0.97,0.42-1.47h2.17c11.61,9.52,22.24,20.23,31.65,31.91c4.24-7.23-3.33-15.31-6.69-22.98
			c-0.55-1.26-0.99-2.67-0.61-3.98c0.83-2.86,5.1-3.23,7.43-1.38c2.33,1.86,3.23,4.91,4.17,7.73c2.15,6.45,5.24,12.76,10.15,17.47
			c4.9,4.71,11.87,7.61,18.56,6.46c0.04-12.23-13.62-19.53-19.11-30.45c-0.71-1.42-1.11-3.27-0.82-4.77h8.02
			c6.03,4.42,10.58,10.76,16.76,15.07c15.15,10.59,35.69,6.69,53.66,2.36c14.19-3.43,29.65-7.78,39.94-17.43H647.94z"/>
		<path class="st5" d="M615.53,77.58c-0.08,1.47-0.21,3.01-0.99,4.25c-0.8,1.25-2.16,2.01-3.47,2.71
			c-11.99,6.43-24.38,12.1-37.08,16.96c-2.63,1.02-5.34,2.03-7.39,3.97c-3.26,3.1-4.18,7.91-4.46,12.4
			c-0.26,3.95-0.16,8.03-1.34,11.77c-2.38-4.07-4.68-8.23-7.02-12.35c-0.98-1.75-1.99-3.5-3.01-5.23
			c-9.52-16.23-16.34-21.99-22.76-27.13c-3.7-2.96-7.27-5.73-11.14-10.17c15.41,8.79,34.55,10.85,51.43,5.34
			c5.24-1.71,10.23-4.09,15.28-6.28c9.67-4.18,19.63-7.68,29.78-10.45c0.52-0.14,1.12-0.27,1.57,0.02c0.52,0.33,0.61,1.05,0.64,1.66
			C615.76,69.23,615.75,73.41,615.53,77.58z"/>
		<path class="st144" d="M723.49,112.84c16.66,21.94,33.51,44.21,43.9,69.72c3.91,9.62,6.88,19.63,11.38,28.99
			c1.13,2.35,3.21,5.06,5.72,4.33c1.84-0.54,2.64-2.64,4-4c3.7-3.69,9.99-0.9,14,2.44c4.01,3.34,8.87,7.41,13.79,5.66
			c-0.07-5.3-0.14-10.6-0.22-15.9c-0.01-0.81,0-1.67,0.47-2.33c0.84-1.18,2.62-1.03,4.01-0.65c2.81,0.76,5.5,1.94,7.96,3.5
			c-1.99-7.57-7.72-13.61-13.98-18.31c-6.26-4.7-13.23-8.43-19.24-13.44c-16.87-14.09-24.2-36.48-38.2-53.42
			c-1.14-1.38-2.4-2.94-2.22-4.72c0.14-1.43,1.19-2.59,1.63-3.95c0.62-1.91,0.01-3.97-0.65-5.87c-2.5-7.21-5.76-14.17-9.7-20.71
			C737.58,94.35,729.38,104.82,723.49,112.84z"/>
		<path class="st144" d="M715.57,121.84c3.59,11.21,7.72,22.25,12.37,33.07c1.51,3.51,3.22,7.18,6.4,9.31
			c3.69,2.47,8.61,2.36,12.43,4.61c4.03,2.37,6.17,6.92,8.06,11.2c2.17,4.88,4.34,9.77,6.5,14.65c2.16,4.86,4.36,10.31,2.66,15.35
			c-1.42,4.24-5.4,7.22-9.65,8.6c-4.25,1.38-8.81,1.39-13.28,1.4c-0.93,0-1.9-0.01-2.7-0.48c-1.04-0.6-1.53-1.81-1.96-2.93
			c-8.37-21.57-21.54-41.27-38.28-57.25c-2.91-2.78-6.19-6.08-5.81-10.09c0.22-2.29,1.63-4.26,3.02-6.09
			C701.82,134.71,709.07,126.82,715.57,121.84z"/>
		<path class="st5" d="M802.66,0.02c-12.26,18.8-23.68,37.92-33.74,56.72c-6.37,10.71-13.26,21.1-20.67,31.11
			c-7.1,9.62-14.66,18.9-22.63,27.79c-2.92,3.26-5.9,6.47-8.92,9.62c-3.7,3.85-7.48,7.62-11.33,11.3
			c-4.03,3.85-8.18,7.64-12.65,10.96c-3.59,2.68-7.36,5.07-11.44,6.94c-4.43,2.05-9.12,3.46-13.82,4.78
			c-10,2.81-20.11,5.23-30.31,7.24c-5.81,1.15-11.67,2.17-17.57,2.66h-0.01c-0.06,0.01-0.11,0.02-0.17,0.02h-0.65
			c-0.61,0-1.2-0.01-1.78-0.02c-0.3,0-0.58-0.01-0.87-0.02c-0.44-0.01-0.87-0.02-1.29-0.04c-0.43-0.02-0.85-0.04-1.27-0.06
			c-0.46-0.02-0.92-0.05-1.37-0.08c-1.06-0.07-2.07-0.16-3.07-0.28c-0.33-0.03-0.66-0.07-0.98-0.11c-1.41-0.17-2.75-0.39-4.04-0.64
			c-0.41-0.08-0.82-0.16-1.22-0.25c-0.43-0.09-0.85-0.19-1.28-0.3c-0.04-0.01-0.07-0.01-0.1-0.02c-0.02,0-0.04-0.01-0.06-0.01
			c-0.01,0-0.02,0-0.03-0.01c-0.01,0-0.02,0-0.02,0h-0.01l-0.01-0.01c-0.09-0.02-0.19-0.05-0.29-0.07
			c-0.33-0.08-0.65-0.16-0.96-0.26c-0.37-0.09-0.73-0.19-1.08-0.31c-0.3-0.08-0.58-0.17-0.87-0.27c-0.8-0.25-1.57-0.52-2.32-0.81
			c-0.44-0.16-0.87-0.33-1.29-0.51c-1.31-0.54-2.57-1.14-3.78-1.81c-0.35-0.18-0.7-0.38-1.04-0.57c-0.38-0.22-0.76-0.44-1.13-0.68
			c-0.33-0.19-0.65-0.4-0.96-0.61c-2.77-1.82-5.33-3.94-7.83-6.36c-1.19-1.13-2.36-2.33-3.53-3.6c-5.42-5.84-9.86-12.43-13.95-19.27
			c0.02-0.15,0.03-0.32,0.04-0.48c3.66,6.55,11.43,9.79,18.89,10.66c7.46,0.85,15.02-0.19,22.51,0.11
			c12.68,0.52,24.82,4.88,37.14,7.91c1.45,0.36,2.91,0.7,4.39,0.87c1.17,0.15,2.34,0.21,3.51,0.09c3.06-0.28,5.89-1.63,8.8-2.62
			c7.08-2.37,14.74-2.54,21.85-4.83c13.1-4.22,22.84-15.02,31.83-25.45c26.32-30.54,52.11-62.19,69.55-98.52
			c0.31-0.62,0.59-1.24,0.89-1.87c2.53-5.38,4.88-10.91,6.71-16.57c0.15-0.49,0.31-0.98,0.46-1.49H802.66z"/>
		<path class="st5" d="M667.06,8.44c-2.08,2.34-5.43,2.99-8.51,3.52c-2.26,0.38-4.5,0.76-6.76,1.14c-2.78,0.47-5.57,0.93-8.35,1.41
			c-1.41,0.24-2.87,0.47-4.24,0.05c-1.36-0.42-2.57-1.7-2.4-3.12c-3.19,0.77-6.32,1.87-9.29,3.26c-5.87,3.96-13.44,7.46-20.94,10.91
			c-19.03,8.77-38.05,17.52-57.08,26.25c-3.24,1.49-6.52,2.98-10.01,3.69c-3.86,0.78-7.83,0.55-11.75,0.31
			c-9.16-0.57-18.3-1.27-27.44-2.1c-0.05-0.06-0.12-0.12-0.18-0.19c-2.16-2.22-6.41-4.18-10.83-6.31c-0.01,0-0.02,0-0.03-0.01
			c-5.19-2.5-10.57-5.22-13.02-8.85c-0.32-0.47-0.64-0.94-0.97-1.42c0.02-0.02,0.05-0.03,0.07-0.04c4.21-2.07,9.13-2,13.76-1.34
			c6.71,0.95,13.26,3.05,19.28,6.15c6.51,3.36,13.79,8.05,20.55,5.2c2.59-1.1,4.63-3.18,6.74-5.06
			c14.75-13.07,35.29-16.63,54.14-22.33c13.68-4.14,26.91-9.65,40.1-15.15c2.3-0.95,4.63-1.93,6.61-3.44
			c0.39-0.3,0.77-0.63,1.14-0.95h10.29c0.01,0,0.02-0.01,0.02-0.02c0,0.01,0,0.02,0,0.02h20.78C669.3,3.12,669.09,6.16,667.06,8.44z
			"/>
		<path class="st3" d="M518.62,59.09c11.08,2.5,22.77,0.96,33.54-2.66c10.76-3.63,20.72-9.27,30.45-15.13
			c5.21-3.14,10.56-6.42,16.58-7.27c-4.63,5.12-9.74,9.8-15.25,13.95c-9.08,6.85-19.35,12.33-30.45,14.83S530.42,64.71,518.62,59.09
			z"/>
		<path class="st3" d="M619.2,122.44c7.92,0.56,15.92,0.06,23.71-1.47c6.53-1.28,13.29-3.53,17.58-8.63
			c-12.73-0.95-24.59,8.2-37.32,7.24c-1.05-0.08-2.13-0.22-3.12,0.11c-0.99,0.33-1.86,1.33-1.64,2.36
			C619.33,122.17,620.26,122.3,619.2,122.44z"/>
		<path class="st3" d="M575.15,8.59c-1.74,3.44-6.23,4.24-10.07,4.47c-7.36,0.46-14.75,0.38-22.1-0.23c-4-0.34-8.13-0.87-11.53-3.01
			c-3.73-2.34-6.04-6.24-8.69-9.82h8.77c0.47,0.36,0.94,0.72,1.44,1.05c5.54,3.77,12.54,4.66,19.24,4.55
			c6.69-0.11,13.38-1.08,20.06-0.55c1.29,0.11,2.87,0.5,3.2,1.76C575.61,7.42,575.43,8.05,575.15,8.59z"/>
		<path class="st3" d="M876.58,159.73c-3.15,25.23-6.3,50.45-9.45,75.68c11.14-14.94,15.66-34.64,12.15-52.94
			C877.74,174.44,874.73,166.55,876.58,159.73z"/>
	</g>
	<path class="st131" d="M1698.34,559.35c0,0-3.62-0.66-11.24-0.53c-0.4,0-0.81,0.01-1.23,0.02c-2.92,0.07-6.38,0.26-10.4,0.63
		c-8.98,0.83-20.76,2.56-35.52,5.99c-0.3,0.07-0.61,0.13-0.91,0.21c-10.17,2.39-21.75,5.57-34.8,9.79c-0.3,0.09-0.59,0.19-0.89,0.3
		c-15.37,5.01-32.78,11.47-52.3,19.75c-8.52,3.61-17.45,7.58-26.78,11.93c-21.67,10.1-45.57,22.27-71.82,36.91
		c-0.42,0.24-0.84,0.46-1.25,0.7c-8.48,4.74-17.21,9.74-26.21,15.03c-8.71,5.12-17.66,10.5-26.85,16.14
		c-0.46,0.28-0.91,0.56-1.37,0.85c-0.91,0.56-1.84,1.13-2.76,1.7c-1.2,0.74-2.4,1.49-3.61,2.25c-1.12,0.69-2.23,1.37-3.34,2.08
		c-0.23,0.13-0.44,0.27-0.67,0.41c0.1,0.35,0.19,0.7,0.3,1.05c0,0.01,0,0.01,0,0.01c1.41,5.04,2.81,10.11,4.22,15.23
		c0.02,0.07,0.04,0.13,0.05,0.21c1.35,4.89,2.7,9.83,4.06,14.78c0.45,1.67,0.91,3.34,1.37,5.02c2.26,8.22,4.55,16.48,6.93,24.78
		c0.45,1.59,0.9,3.19,1.37,4.78c0.4,1.39,0.8,2.79,1.21,4.18c0.04,0.11,0.07,0.23,0.1,0.34c0.49,1.68,0.98,3.36,1.49,5.04
		c0.59,2.01,1.2,4.01,1.82,6.02c0.42,1.38,0.84,2.78,1.27,4.16c1.58,5.12,3.2,10.23,4.88,15.32c0.54,1.65,1.09,3.29,1.64,4.94
		c0.53,1.6,1.08,3.21,1.63,4.81c0.63,1.85,1.27,3.68,1.93,5.53c0.32,0.91,0.65,1.84,0.97,2.76c0.87,2.44,1.76,4.88,2.68,7.31
		c0.3,0.82,0.61,1.63,0.91,2.44c0.3,0.81,0.61,1.62,0.92,2.43c0.64,1.67,1.28,3.34,1.94,5.01c0.39,1.01,0.79,2.01,1.2,3.01
		c0.18,0.48,0.38,0.96,0.58,1.45c0.53,1.33,1.08,2.66,1.63,3.98c0.32,0.79,0.65,1.58,0.98,2.36c0.56,1.36,1.15,2.73,1.73,4.09
		c-22.85,87.12-14.7,178.17,4.06,264.85c0.34,1.57,0.69,3.14,1.04,4.71c0.34,1.57,0.69,3.14,1.05,4.7c0.35,1.57,0.71,3.14,1.07,4.7
		c0.32,1.38,0.64,2.76,0.96,4.14c0.03,0.18,0.07,0.37,0.12,0.55c0.43,1.84,0.86,3.67,1.3,5.51c0.64,2.7,1.28,5.39,1.95,8.08
		c0.53,2.2,1.08,4.4,1.63,6.6c0.79,3.17,1.59,6.35,2.4,9.52c0.55,2.18,1.11,4.36,1.68,6.53c0.29,1.13,0.58,2.25,0.88,3.37
		c0.33,1.28,0.67,2.56,1.01,3.85c0.63,2.37,1.25,4.75,1.9,7.13c0.01,0.05,0.02,0.1,0.04,0.16c0.07,0.3,0.15,0.59,0.24,0.89
		c0,0.01,0,0.02,0.01,0.03c0.91,3.39,1.83,6.79,2.75,10.17c5.38,19.79,11.01,39.54,16.59,59.29c0.66,2.32,1.31,4.64,1.97,6.96
		c1.31,4.65,2.63,9.28,3.93,13.93c1.27,4.52,2.53,9.06,3.79,13.58c1.32,4.77,2.64,9.54,3.94,14.32c1.26,4.66,2.52,9.31,3.76,13.97
		c1.24,4.67,2.46,9.32,3.67,14c0.61,2.33,1.2,4.67,1.79,7.01H952.95c0,0.01-0.01,0.03-0.01,0.04c-0.03,0.08-0.05,0.15-0.08,0.24
		c0.01-0.08,0.02-0.15,0.03-0.24v-0.04H825.13c-0.24-0.55-0.48-1.11-0.74-1.66c-0.79-1.81-1.59-3.62-2.4-5.44
		c-2.49-5.65-5.04-11.31-7.62-16.99c-0.99-2.21-2-4.41-3.02-6.63c-0.28-0.62-0.55-1.23-0.84-1.85c-1.17-2.55-2.35-5.12-3.54-7.68
		c-0.62-1.35-1.24-2.7-1.88-4.05c-0.63-1.35-1.25-2.7-1.89-4.05c-4.05-8.71-8.18-17.44-12.38-26.17c-1.6-3.34-3.21-6.69-4.84-10.03
		c-1.32-2.74-2.66-5.47-3.99-8.21c-1.04-2.11-2.07-4.24-3.12-6.36c-1.01-2.06-2.02-4.12-3.05-6.18c-2.04-4.12-4.09-8.26-6.15-12.38
		c-4.14-8.31-8.34-16.62-12.56-24.9c-2.07-4.06-4.15-8.12-6.25-12.17c-2.06-4.01-4.13-8.01-6.22-12.01
		c-1.43-2.75-2.85-5.49-4.29-8.22c-1.45-2.78-2.9-5.56-4.37-8.33c-1.42-2.72-2.85-5.43-4.3-8.13c-1.96-3.72-3.93-7.44-5.91-11.14
		c-1.23-2.32-2.46-4.63-3.7-6.93c-5.91-11.03-11.85-21.99-17.79-32.85c-1.44-2.63-2.87-5.25-4.32-7.87
		c-1.44-2.62-2.87-5.23-4.32-7.84c-0.34-0.63-0.69-1.25-1.04-1.87c-1.39-2.54-2.81-5.08-4.22-7.61c-0.83-1.51-1.67-3.01-2.5-4.5
		c-1.5-2.69-2.99-5.36-4.48-8.03c-3.7-6.62-7.41-13.18-11.09-19.7c-0.09-0.16-0.19-0.33-0.28-0.5c-2.78-4.88-5.54-9.73-8.29-14.55
		c-1.11-1.93-2.21-3.86-3.3-5.77c-1.1-1.92-2.19-3.83-3.29-5.73c-0.85-1.5-1.7-2.97-2.56-4.45c-0.84-1.49-1.69-2.96-2.55-4.43
		c-2.23-3.87-4.45-7.7-6.66-11.52c-1.74-2.99-3.48-5.97-5.2-8.93c-0.28-0.47-0.55-0.94-0.83-1.42c-3.18-5.45-6.34-10.84-9.48-16.17
		c-0.18-0.31-0.37-0.63-0.55-0.93c-0.81-1.37-1.61-2.74-2.42-4.1c-1.61-2.73-3.21-5.45-4.81-8.14c-0.79-1.34-1.59-2.69-2.39-4.03
		c-0.91-1.54-1.83-3.08-2.74-4.59c-1.82-3.06-3.63-6.09-5.44-9.11c-0.89-1.52-1.79-3.02-2.7-4.51c-0.63-1.05-1.25-2.1-1.89-3.15
		c-4.4-7.34-8.76-14.55-13.04-21.62c-1.45-2.37-2.87-4.73-4.29-7.06c-1.38-2.28-2.77-4.53-4.14-6.78c-0.78-1.28-1.57-2.56-2.35-3.84
		c-0.78-1.27-1.55-2.54-2.33-3.81c-0.77-1.26-1.55-2.51-2.31-3.76c-0.77-1.26-1.54-2.5-2.31-3.74c-1.53-2.48-3.04-4.93-4.54-7.37
		c-1.51-2.44-2.99-4.85-4.48-7.24c-1.49-2.39-2.95-4.76-4.41-7.1c-0.73-1.18-1.46-2.34-2.18-3.5c-1.45-2.32-2.88-4.62-4.3-6.88
		c-4.27-6.81-8.41-13.39-12.43-19.74c-0.67-1.06-1.33-2.11-2-3.15c-3.41-5.38-6.72-10.57-9.93-15.59c-1.77-2.78-3.53-5.5-5.24-8.16
		c-0.42-0.1-0.85-0.19-1.27-0.3c-0.27-0.06-0.54-0.12-0.81-0.19c-1.42-0.33-2.83-0.67-4.25-1.01c-0.93-0.23-1.86-0.45-2.79-0.68
		c-2.04-0.49-4.08-0.99-6.12-1.51c-9.13-2.28-18.24-4.68-27.3-7.21c-64.82-18.06-128.03-42.58-187.75-73.22
		c-0.94-0.48-1.88-0.97-2.82-1.47c-3.41-1.75-6.8-3.53-10.18-5.34c0,0-0.01,0-0.02-0.01c-3.76-1.99-7.5-4.02-11.23-6.07
		c-7.46-4.1-14.85-8.3-22.17-12.58c-0.03-0.02-0.07-0.04-0.1-0.06c8.46-71.37,16.93-142.75,25.39-214.13
		c9.04-76.17,20.58-157.96,72.18-214.01c26.75-12.66,53.02-26.35,78.74-41.09c44.25-25.33,86.87-53.76,127.61-85.32
		c5.36,10.93,10.8,21.99,18.64,31.3c0.44,0.52,0.89,1.05,1.35,1.56c0.05,0.06,0.1,0.11,0.14,0.16c0.41,0.45,0.83,0.9,1.25,1.34
		c0.47,0.5,0.95,0.99,1.45,1.48c0.49,0.48,0.99,0.96,1.5,1.43c1.02,0.93,2.06,1.84,3.13,2.7c0.48,0.39,0.96,0.76,1.46,1.13
		c0.49,0.37,0.98,0.73,1.49,1.08c0.96,0.69,1.96,1.32,2.96,1.93c0.58,0.35,1.17,0.69,1.77,1.02c0.31,0.17,0.61,0.33,0.9,0.48
		c0.23,0.12,0.46,0.24,0.69,0.35c0.98,0.49,1.99,0.95,3.01,1.36c0.29,0.12,0.56,0.24,0.85,0.34c1.3,0.5,2.63,0.93,3.97,1.29
		c0.33,0.09,0.66,0.17,0.98,0.26c0.45,0.11,0.9,0.21,1.35,0.3c0.23,0.05,0.44,0.09,0.67,0.13h0.01c0,0,0.01,0,0.02,0
		c0.01,0.01,0.02,0.01,0.03,0.01c0.02,0,0.04,0.01,0.06,0.01c0.03,0.01,0.06,0.01,0.1,0.02c0.14,0.02,0.29,0.05,0.44,0.07
		c0.3,0.05,0.61,0.1,0.9,0.14c0.52,0.07,1.04,0.13,1.56,0.18c0.51,0.06,1.04,0.1,1.56,0.14c0.29,0.02,0.57,0.04,0.86,0.06
		c0.67,0.05,1.33,0.08,2,0.11c0.51,0.02,1.03,0.04,1.54,0.07c0.42,0.02,0.84,0.04,1.26,0.06c0.41,0.02,0.83,0.05,1.25,0.07
		c0.32,0.02,0.64,0.04,0.95,0.06c0.34,0.03,0.68,0.05,1.02,0.08c0.06,0.01,0.12,0.01,0.18,0.02c0.26,0.03,0.51,0.06,0.77,0.08
		c0.33,0.04,0.66,0.08,0.98,0.12c0.66,0.08,1.3,0.19,1.95,0.32c0.01,0,0.03,0.01,0.04,0.01c0.1,0.02,0.21,0.04,0.31,0.06
		c0.1,0.02,0.21,0.04,0.3,0.06c0.05,0.01,0.09,0.02,0.13,0.03h0.01c0.03,0,0.05,0.01,0.07,0.02c0.01,0,0.01,0,0.02,0
		c0.03,0,0.06,0.01,0.09,0.02c0.07,0.02,0.13,0.03,0.21,0.05c0.18,0.04,0.36,0.08,0.53,0.13c0.28,0.07,0.55,0.14,0.82,0.24
		c0.17,0.05,0.35,0.1,0.51,0.16c0.29,0.09,0.57,0.19,0.86,0.3c3.15,1.19,5.96,3.13,8.81,4.91c7.2,4.48,14.92,8.07,22.8,11.22
		c0.75,0.3,1.51,0.59,2.26,0.88c0.74,0.29,1.48,0.57,2.22,0.84c1.66,0.63,3.33,1.23,5.02,1.82c0.63,0.22,1.26,0.43,1.89,0.64
		c0.77,0.26,1.54,0.51,2.31,0.76c0.75,0.25,1.5,0.48,2.26,0.72c0.99,0.32,2,0.62,3.01,0.91c0.25,0.08,0.49,0.15,0.74,0.23
		c0.15,0.04,0.31,0.09,0.46,0.13c0.22,0.06,0.42,0.12,0.64,0.18c0.41,0.12,0.82,0.24,1.23,0.35c0.19,0.05,0.4,0.11,0.59,0.16
		c0.4,0.11,0.8,0.23,1.2,0.33c0.57,0.15,1.14,0.31,1.71,0.46c0.87,0.24,1.73,0.45,2.61,0.67c0.64,0.16,1.26,0.32,1.9,0.47
		c0.07,0.02,0.15,0.03,0.23,0.05c0.35,0.08,0.7,0.16,1.05,0.25c0.35,0.09,0.71,0.17,1.06,0.25c0.73,0.16,1.46,0.33,2.18,0.49
		c0.12,0.03,0.25,0.05,0.37,0.08c0.73,0.15,1.45,0.31,2.17,0.46c0.95,0.19,1.92,0.39,2.87,0.57c0.63,0.12,1.25,0.25,1.88,0.36
		c0.8,0.14,1.59,0.29,2.39,0.43c1.39,0.25,2.8,0.47,4.21,0.69c0.27,0.04,0.52,0.08,0.79,0.12c0.88,0.13,1.76,0.27,2.66,0.39
		c0.86,0.12,1.73,0.24,2.59,0.35c0.61,0.07,1.21,0.15,1.82,0.23c0.03,0,0.06,0.01,0.09,0.01c0.75,0.09,1.49,0.17,2.24,0.26
		c0.69,0.07,1.36,0.14,2.05,0.22c0.95,0.09,1.9,0.18,2.85,0.27c0.17,0.02,0.35,0.03,0.52,0.05c1.41,0.12,2.82,0.23,4.24,0.33
		c0.8,0.05,1.61,0.1,2.42,0.14c1.61,0.1,3.22,0.17,4.83,0.23h0.01c3.35,0.12,6.71,0.17,10.06,0.15c0.84,0,1.68-0.01,2.51-0.03
		c0.84-0.01,1.68-0.03,2.52-0.06c0.83-0.02,1.67-0.05,2.51-0.08c0.84-0.03,1.67-0.07,2.51-0.11c0.89-0.04,1.79-0.09,2.69-0.14
		c0.53-0.03,1.07-0.06,1.6-0.1c0.03,0,0.06,0,0.09-0.01c1.03-0.07,2.04-0.14,3.07-0.23c2.1-0.17,4.19-0.37,6.29-0.59h0.01
		c3.34-0.36,6.68-0.8,10-1.31c14.82-2.25,29.41-5.94,43.46-11.04h0.01c11.58-4.19,22.77-9.35,33.46-15.47
		c5.65-3.22,11.15-6.71,16.48-10.46c23.66-16.66,43.75-37.87,62.45-59.95c20.1-23.76,35.09-63.58,50.31-95.96
		c1.04-2.23,2.08-4.41,3.13-6.55h185.51c125.85,25.42,227.12,73.69,308.84,130.26c34.12,23.62,75.06,49.9,92.53,76.13
		c39.15,58.72,86.99,148.84,106.58,222.66c5.77,21.76,13.75,73.76,18.31,105.09C1696.94,549.11,1698.34,559.35,1698.34,559.35z"/>
	<path class="st134" d="M1405.73,1323.1H851.52c-13.59-24.51-23.32-53.13-28.02-86.54c89.52,93.67,349.21,60.55,516.6,30.72
		c28.55-5.08-16.6-89.37-19.77-128.93c-2.07-25.76-4.04-62.6,4.09-87.13c4.63-13.97-20.9-75.16-34.65-80.44
		c-4.19-1.61-19.36,40.09-23.33,37.96c-10.2-5.46-4.67-20.83,1.2-30.81c26.07-44.3,33.59-96.74,40.59-147.67
		c13.78-100.12,27.56-200.23,41.34-300.34L1405.73,1323.1z"/>
	<path class="st134" d="M838.78,1041.86c-2.92,42.86,2.73,95.47,5.99,116.16c12.29,78.08,11.79,112.6,28.23,165.08h-47.87
		c-0.24-0.55-0.48-1.11-0.74-1.66c-0.78-1.81-1.59-3.62-2.4-5.44c-2.49-5.65-5.04-11.31-7.62-16.99c-0.99-2.21-2-4.41-3.02-6.63
		c-0.28-0.62-0.55-1.23-0.84-1.85c-1.17-2.55-2.35-5.12-3.54-7.68c-0.62-1.35-1.24-2.7-1.88-4.05c-0.63-1.35-1.25-2.7-1.89-4.05
		c-4.05-8.71-8.18-17.44-12.38-26.17c-1.61-3.34-3.22-6.69-4.84-10.03c-1.32-2.74-2.66-5.47-3.99-8.21
		c-1.04-2.11-2.07-4.24-3.12-6.36c-1.01-2.06-2.02-4.12-3.05-6.18c-2.03-4.12-4.08-8.26-6.15-12.38
		c-4.14-8.31-8.34-16.62-12.56-24.9c-2.07-4.06-4.15-8.12-6.25-12.17c-2.06-4.01-4.13-8.02-6.22-12.01
		c-1.43-2.75-2.85-5.49-4.29-8.22c-1.45-2.78-2.9-5.56-4.37-8.33c-1.42-2.72-2.85-5.43-4.3-8.13c-1.95-3.72-3.93-7.44-5.91-11.14
		c-1.23-2.32-2.46-4.63-3.7-6.93c-5.91-11.03-11.85-21.99-17.79-32.85c-1.44-2.63-2.87-5.25-4.32-7.87
		c-1.44-2.62-2.87-5.23-4.32-7.84c-0.34-0.63-0.69-1.25-1.04-1.87c-1.39-2.54-2.81-5.08-4.22-7.61c-0.83-1.51-1.67-3.01-2.5-4.5
		c-1.5-2.69-2.99-5.36-4.48-8.03c-3.7-6.62-7.41-13.18-11.09-19.7c-0.09-0.16-0.19-0.33-0.28-0.5c-2.78-4.88-5.54-9.73-8.29-14.55
		c-1.11-1.93-2.21-3.86-3.3-5.77c-1.1-1.92-2.19-3.83-3.29-5.73c-0.85-1.5-1.7-2.97-2.56-4.45c-0.84-1.49-1.69-2.96-2.55-4.43
		c-2.23-3.87-4.45-7.7-6.66-11.52c-1.74-2.99-3.48-5.97-5.2-8.93c-0.28-0.47-0.55-0.94-0.83-1.42c-3.18-5.45-6.34-10.84-9.48-16.17
		c-0.18-0.31-0.37-0.63-0.55-0.93c-0.81-1.37-1.61-2.74-2.42-4.1c-1.61-2.73-3.21-5.45-4.81-8.14c-0.79-1.34-1.59-2.69-2.39-4.03
		c-0.91-1.54-1.83-3.08-2.74-4.59c-1.82-3.06-3.63-6.09-5.44-9.11c-0.89-1.52-1.79-3.02-2.7-4.51c-0.63-1.05-1.25-2.1-1.89-3.15
		c-4.4-7.34-8.76-14.55-13.04-21.62c-1.45-2.37-2.87-4.73-4.29-7.06c-1.38-2.28-2.77-4.53-4.14-6.78c-0.78-1.28-1.57-2.56-2.35-3.84
		c-0.78-1.27-1.55-2.54-2.33-3.81c-0.77-1.26-1.55-2.51-2.31-3.76c-0.77-1.25-1.54-2.5-2.31-3.74c-1.53-2.48-3.04-4.93-4.54-7.37
		c-1.51-2.44-2.99-4.85-4.48-7.24c-1.49-2.39-2.95-4.76-4.41-7.1c-0.73-1.17-1.46-2.34-2.18-3.5c-1.45-2.32-2.88-4.62-4.3-6.88
		c-4.27-6.81-8.41-13.39-12.43-19.74c-0.67-1.06-1.33-2.11-2-3.15c-3.41-5.38-6.72-10.57-9.93-15.59c-1.77-2.78-3.53-5.5-5.24-8.16
		c-0.42-0.1-0.85-0.19-1.27-0.3c-0.27-0.06-0.54-0.12-0.81-0.19c-1.42-0.33-2.83-0.67-4.25-1.01c-0.93-0.23-1.86-0.45-2.79-0.68
		c-2.04-0.49-4.08-0.99-6.12-1.51c-0.52-4.21-1.01-8.41-1.45-12.64c-0.32-3.05-0.63-6.11-0.89-9.17c-0.01-0.04-0.02-0.08-0.02-0.12
		c-0.15-1.74-0.31-3.48-0.45-5.21v-0.04c-0.49-5.87-0.92-11.73-1.29-17.63c-0.55-8.96-0.98-17.98-1.31-27.05v-0.05
		c-2.27-61.1-0.32-124.35-5.74-189.57v-0.04c-0.94-11.38-2.11-22.82-3.57-34.33c29.58,160.32,134.51,373.6,287.96,349.94h0.01
		c2.1-0.32,4.21-0.69,6.33-1.11c0.43-0.08,0.86-0.16,1.29-0.26h0.01c3.11-0.64,6.24-1.36,9.38-2.19c2.34-0.62,4.61-1.11,6.82-1.5
		c0.02,0,0.05-0.01,0.07-0.01c1.56-0.27,3.09-0.47,4.58-0.64c0.01,0,0.02,0,0.02,0c3.26-0.34,6.39-0.42,9.37-0.26
		c22.61,1.2,37.52,16.17,45.38,37.49c2.59,7.02,4.42,14.72,5.51,22.84c0.54,4,0.9,8.1,1.08,12.28c0.36,8.1,0.04,16.48-0.92,24.9
		c-0.83,7.37-2.17,14.77-3.99,22.04c-0.53,2.14-1.11,4.27-1.73,6.38c-2.02,6.93-4.5,13.71-7.42,20.18c-1.1,2.47-2.28,4.89-3.51,7.26
		c-1.08,2.06-2.19,4.09-3.36,6.06c-0.78,1.33-1.59,2.65-2.42,3.94c-1.25,1.95-2.39,4.13-3.44,6.51c-2.12,4.84-3.83,10.52-5.19,16.83
		c-0.65,2.96-1.2,6.06-1.69,9.28c-0.45,2.94-0.84,5.97-1.18,9.09C839.32,1034.83,839.03,1038.31,838.78,1041.86z"/>
	<path class="st134" d="M1353.45,506.77c-43.21-63.02-67.5-138.84-68.95-215.24c19.01,57.44,38.01,114.87,57.02,172.31
		c-8.25-34.52-8.06-71.02,0.57-105.45c11.19,60.34,20.1,121.1,26.69,182.11C1364.69,525.86,1358.22,513.71,1353.45,506.77z"/>
	<path class="st134" d="M797.35,828.57c21.97-41.74,19.1-95.42-7.19-134.58c36.47-18.2,72.71-47.81,76.66-88.37
		c5.04-51.74-42.55-90.99-71.5-134.17c30.44,37.61,64.8,72.04,102.34,102.56c2.62-8.84,5.24-17.68,7.86-26.52
		c6.96,4.72,13.91,9.45,20.87,14.17c0.7-11.31,1.4-22.62,2.1-33.93c9.69,10.7,22.54,18.52,36.49,22.21
		c17.55-45.24,14.34-98.06-8.56-140.84c17.09,48.31,50.27,90.78,93.03,119.03c0.74,7.8,1.49,15.61,2.23,23.41
		c6.41-9.66,12.82-19.32,19.24-28.98c6.11,22.21-4.76,46.05-20.56,62.82c-15.8,16.77-36.13,28.41-54.49,42.31
		c-52.27,39.57-87.84,96.8-120.96,153.38c-7.41,12.66-15.12,25.75-27.08,34.23S818.34,826.29,797.35,828.57z"/>
	<path class="st134" d="M962.92,639.74c0.35,14.54,0.7,29.09,1.05,43.63c10.71,10.07,27.85,0.33,38.75-9.53
		c71.84-64.93,134.68-139.81,186.15-221.83c2.37,8.25,4.74,16.5,7.11,24.75c5.27-9.25,15.21-15.69,25.81-16.71
		c-4.03,34.97-3.73,70.43,0.89,105.33c10.57-23.95,25.34-46.04,43.43-64.97c-1.9,20.69,1.18,41.81,8.9,61.1
		c4.01-3.53,8.02-7.06,12.03-10.59c-3.12,11.65-1.17,24.57,5.26,34.77c10.58,13.7,21.17,27.39,31.75,41.09
		c5.16-7.15,10.33-14.29,15.49-21.44c4.15,28.04,16.79,54.77,35.83,75.78c-101.41,56.92-213.22,92.31-324.13,127.31
		c-14.3,4.51-28.99,9.08-43.96,8.18c-13.43-0.8-26.26-5.99-37.9-12.73c-30.38-17.59-54.65-47.97-58.73-82.84
		C906.59,686.17,926.19,648.17,962.92,639.74z"/>
	<path class="st134" d="M499.76,536.95c-44.29-48-83.36-100.82-116.31-157.21c26.09,30.22,52.17,60.45,78.26,90.67
		c-17.75-33.01-33.19-67.25-46.19-102.4C450.83,424.59,482.94,483.17,499.76,536.95z"/>
	<path class="st134" d="M791.59,1006.33c-1.54,47.78-3.07,95.57-4.61,143.35c19.21-77.97,64.7-149.22,127.36-199.45
		c-11.82,37.16-20.83,75.21-26.94,113.72c43.92-42.69,87.85-85.38,131.77-128.08c13.73,69.36,41.65,135.88,81.53,194.27
		c-21.94-64.9-43.87-129.8-65.81-194.69c17.01,34.84,39.94,66.78,67.5,94.05c-19.07-33.94-33.81-70.31-43.74-107.95
		c76.33,51.44,154.98,99.45,235.63,143.82c-59.74-45.22-113.93-97.79-160.94-156.13c30.43,12.14,62.13,21.1,94.42,26.68
		c-13.22-9.81-23.17-23.96-27.91-39.73c11.3,10.13,26.2,16.17,41.36,16.76c-5.87-16.33-11.73-32.66-17.6-48.98
		c18.02,18.46,43.53,29.39,69.33,29.69c-35.36-57.45-47.68-128.66-33.65-194.64c-76.6,79.45-181.18,124.08-277.61,177.76
		C905.69,919.08,833.38,968,791.59,1006.33z"/>
	<path class="st134" d="M1018.82,954.48c-0.14,3.64-0.31,7.27-0.5,10.9v0.01c-5.98,121.42-28.01,242.01-65.36,357.7
		c-0.03,0.09-0.06,0.18-0.09,0.28c0.01-0.09,0.02-0.18,0.03-0.28c11.67-119.05,33.59-236.81,55.55-354.39
		c0.18-1.02,0.38-2.03,0.56-3.05C1016.3,963.39,1018.28,959.2,1018.82,954.48z"/>
	<path class="st134" d="M1019.04,949.1c-0.01,1.83-0.01,3.64-0.22,5.38C1018.9,952.69,1018.96,950.89,1019.04,949.1z"/>
	<path class="st132" d="M1112.81,19.67c100.63,29.5,201.67,59.15,297.06,102.74c27.48,12.56,54.71,26.43,77.92,45.78
		c24.12,20.12,43.15,45.55,61.37,71.13c20.53,28.84,40.53,58.62,52.42,91.97c13.6,38.14,15.99,79.22,18.26,119.65
		c-12.5-44.08-55.6-71.11-95.3-93.95c23.47,5.85,46.93,11.7,70.4,17.56c-37-57.7-90.66-102.39-143.45-146.11
		c-58.31-48.29-119.67-98.11-193.63-114.27c28.38,4.77,56.76,9.53,85.14,14.3c-73.13-54.62-175.32-57.23-248.64-111.6
		C1102.45,17.36,1110.03,18.85,1112.81,19.67z"/>
	<path class="st133" d="M658.53,1071.23c82.91-22.4,173.51-15.92,251.55-51.77c32.3-14.84,61.3-36.5,94.46-49.31
		c31.06-12,64.61-15.78,96.74-24.54c52.83-14.41,101.65-42.51,141.82-79.72c14.22-13.18,27.65-27.87,35.28-45.7
		c5.9-13.77,8.08-28.82,9.41-43.74c3.22-36.09,1.75-72.42,0.29-108.62c-0.24-5.97-0.48-11.95-0.73-17.92
		c-1.03-25.4-2.06-50.8-3.09-76.2c-0.32-7.9-0.73-16.14-4.58-23.05c-14.41-25.89-57.35-10.57-81.18-28.17
		c-24.78,28.16-49.56,56.33-74.34,84.49c-13.56,15.41-27.21,30.91-43.26,43.7c-17.96,14.32-38.54,24.93-58.96,35.44
		c-25.43,13.09-51.48,26.39-79.82,30.24c5.53-56.23,82.79-79.44,98.16-133.8c1.28-4.52,1.94-9.82-0.95-13.51
		c-4.43-5.66-13.38-3.56-19.88-0.49c-42.99,20.26-74.72,58.7-99.51,99.25c-24.8,40.55-44.18,84.35-70.95,123.61
		c-32.53,47.7-75.13,87.52-112.34,131.68C699.45,967.23,666.68,1018.21,658.53,1071.23z"/>
	<g>
		<path class="st2" d="M1327.39,639.89c-0.35,5.18-3.14,9.82-5.31,14.52c-10.05,21.83-8.18,49.27-24.13,67.24
			c0.22,0.46,0.42,0.94,0.58,1.44c2.25,6.23,0.96,14.23-2.32,21.33c-0.99,2.15-2.17,4.25-2.8,6.53c-0.73,2.65-0.68,5.45-0.81,8.19
			c-0.65,13.1-5.83,25.93-14.44,35.82c-0.07,0.11-0.14,0.24-0.22,0.35c-6.13,10.02-12.65,20.94-20.42,31.01
			c-2.53,3.28-5.2,6.46-8.03,9.5c-4.09,4.38-8.52,8.44-13.39,12c-2.12,1.55-4.32,3.01-6.62,4.35c-8.68,5.1-18.3,8.37-27.32,12.81
			c-22.84,11.24-41.5,29.75-62.39,44.16c-3.48,2.4-7.03,4.68-10.66,6.8c-5.02,2.92-10.22,5.54-15.67,7.68
			c-30.61,12.09-65.33,8.23-96.88,17.58c-8.41,2.5-16.52,5.91-24.61,9.31c-36.18,15.24-72.37,30.48-108.54,45.72
			c-71.68,57.69-175.18,51.73-256.11,94.99c-20.99,11.22-40.15,25.61-61.02,37.06c-25.93,14.22-54.12,23.7-82.14,33.12
			c-29.18,9.79-58.36,19.6-87.54,29.39c-7.68,2.58-15.66,5.15-23.71,7.12c-15.93,3.9-32.15,5.48-46.93,0.25
			c-1.9-0.67-3.77-1.45-5.62-2.35c-1.56-0.47-3.09-1.02-4.57-1.62c-3.14-1.26-6.14-2.81-9.04-4.59c-0.25-0.14-0.49-0.3-0.74-0.45
			c-17.04-10.8-29.9-29.73-41.42-47.62c-10.65-16.54-21.29-33.08-31.93-49.61c-2.39-3.7-4.79-7.46-6.96-11.31
			c-3.58-6.36-6.54-12.98-7.76-20.13c-2.59-15.21,2.98-30.48,8.09-45.04c15.31-43.64,27.23-88.8,30.51-134.94
			c4.99-70.32-9.42-145.14,21.23-208.63c2.81,4.9,15.5,10.24,27.98,15.45c49.1,20.5,98.37,41.06,149.66,55.2
			c10.87,2.99,21.81,5.7,32.74,8.42c11.02,2.75,22.03,5.53,32.94,8.66c1.83,0.53,3.65,1.07,5.48,1.61
			c-0.48,8.72-0.96,17.45-1.46,26.16c-7.13,38.01-15.26,76.43-25.3,114.36c-0.06,0.27-0.13,0.53-0.21,0.8
			c-0.03,0.1-0.05,0.21-0.08,0.31c-0.14,0.58-0.31,1.17-0.46,1.75c22.74-9.98,48.48-8.41,73.17-11.41
			c9.55-1.15,19.01-3.01,28.44-4.86c14.98-2.94,29.98-5.88,44.96-8.82c8.43-1.66,16.89-3.32,25.06-5.99
			c7.34-2.4,14.38-5.59,21.54-8.48c8.56-3.47,17.3-6.51,26.03-9.56c20.4-7.11,40.79-14.22,61.18-21.31
			c1.93-0.68,3.86-1.35,5.78-2.02c0.49-0.68,0.97-1.36,1.45-2.05c19.66-28.37,23.54-62.86,36.77-93.01
			c5.36-25.33,16.96-47.91,31.43-68.07c14.46-20.17,31.78-38.11,49.41-55.58c9.98-9.9,20.22-19.76,32.29-26.95
			c11.23-6.7,23.86-10.94,34.55-18.46c11.21-7.87,19.73-18.9,27.74-30.01c2.56-3.55,5.53-7.38,9.28-9.3
			c1.35-0.7,2.81-1.14,4.39-1.24c4.75-0.28,9.04,2.82,12.33,6.27c4.24,4.44,7.55,9.73,9.78,15.45c2.14,5.47,3.32,11.31,3.39,17.18
			c0.02,2.37-0.12,4.73-0.46,7.07c-8.23,20.81-23.57,39.65-43.28,51.3c-4.97,2.93-10.26,5.47-14.56,9.3
			c-3.44,3.07-6.13,6.85-8.79,10.61c-7.84,11.04-15.66,22.06-23.5,33.11c-0.83,1.17-1.66,2.35-2.49,3.52
			c-0.86,1.21-1.75,2.5-1.93,3.98c-0.07,0.65-0.01,1.28,0.16,1.9c0.41,1.53,1.44,2.94,2.42,4.23c1.28,1.68,2.64,3.39,4.08,4.99
			c3.08,3.41,6.64,6.26,11.06,7.04c5.79,1.03,11.53-1.82,16.61-4.79c26.46-15.48,49.08-36.61,71.46-57.55
			c12.93-12.11,25.89-24.24,37.87-37.3c18.85-20.54,35.16-43.25,51.42-65.9c8.51-17.48,17.39-35.48,33.71-44.58
			c0.27-0.14,0.52-0.29,0.79-0.42c2.85-1.52,5.89-2.72,9.06-3.35c10.34-2.08,22.59,3.44,25.2,13.65c0.44,1.74,0.59,3.52,0.57,5.3
			c-0.02,2.52-0.39,5.09-0.81,7.59c-0.05,0.31-0.1,0.61-0.16,0.91c-0.84,4.97-1.86,9.92-3.04,14.83
			c-4.56,19.09-11.51,37.6-20.62,54.98c-4.35,8.33-9.21,16.39-14.54,24.13c-12.64,18.35-27.71,34.67-43.59,50.3
			c-17.35,17.1-35.68,33.37-52.86,50.61c0.54,0.73,1.12,1.4,1.71,2c0.44,0.45,0.89,0.87,1.35,1.25c2.13,1.77,4.46,2.85,6.76,3.25
			c1.28,0.24,2.55,0.26,3.76,0.08c1.65-0.24,3.23-0.74,4.74-1.41c2.62-1.17,5.07-2.84,7.44-4.48c8.27-5.73,16.53-11.46,24.81-17.18
			c8.63-5.98,17.29-11.98,25.01-19.1c27.11-25.04,41.14-62.57,70.74-84.61c-1.55-18.11,4.75-35.69,16.34-48.67
			c1.65-1.86,3.41-3.61,5.22-5.29c3.61-3.38,7.48-6.49,11.32-9.59c1.73-1.39,3.51-2.81,5.59-3.57c6.93-2.54,14.28,2.77,21.66,2.76
			c4.29,2.71,6.67,6.77,7.82,11.52c1.83,7.49,0.58,16.65-1.03,24.71c-2.3,11.5-4.58,23.01-6.88,34.5
			c-1.86,9.32-3.73,18.72-7.46,27.47c-3.98,9.32-9.94,17.65-15.53,26.11c-11.75,17.76-22.06,36.48-30.8,55.91v0.01
			c-0.4,0.88-0.79,1.75-1.18,2.64c17.47-13.71,30.41-31.84,36.74-52.08c1.57-5.02,2.75-10.17,4.47-15.13v-0.01
			c0.78-2.25,1.67-4.45,2.75-6.57c0.96-1.89,2.08-3.7,3.33-5.41l0.01-0.01c4.77-6.48,11.52-11.49,19.23-13.74
			c9.73-2.85,20.86-1.05,28.84,5.22c4.09,3.22,7.37,7.77,8.47,12.78C1327.37,636.7,1327.51,638.29,1327.39,639.89z"/>
		<path class="st143" d="M303.92,1131.54c9.07-12.79,27.14-18.31,41.81-12.76c2.41,0.91,4.76,2.09,7.31,2.4
			c2.85,0.34,5.69-0.43,8.5-0.99c11.22-2.25,23.07-1.21,33.72,2.96c1.83-6.23,2.2-12.88,1.07-19.27
			c27.95,9.92,57.47,15.4,87.12,16.17c10.93,0.28,22.3-0.18,32-5.22c1.65-0.86,3.42-2.14,3.49-4c0.05-1.42-0.93-2.66-1.99-3.61
			c-2.94-2.67-6.73-4.25-9.69-6.89c-2.96-2.64-5-7.13-3.01-10.56c23.98,0.82,48.05-0.94,71.66-5.23c3.64-0.66,7.58-1.56,9.94-4.41
			c1.54-1.86,2.17-4.28,3.14-6.5c5.11-11.74,18.8-16.67,31.06-20.38c14.33-4.33,28.65-8.66,42.98-12.99
			c2.58-0.78,5.47-1.83,6.5-4.31c0.98-2.36-0.13-5.04-0.03-7.59c0.23-5.57,6.31-9.29,11.88-9.44c5.57-0.15,10.87,2.15,16.28,3.5
			c15.95,3.98,32.61-0.3,48.82-3.05c16.2-2.76,34.25-3.58,47.61,6c-50.77,23.92-112.69,17.23-161.42,45.06
			c-20.74,11.85-38.59,29.71-61.7,35.72c-9.67,2.51-20.2,2.93-28.58,8.36c-4.67,3.03-8.29,7.39-12.5,11.03
			c-11.38,9.84-26.5,14.01-41.21,17.16c-23.44,5.02-47.28,8.18-71.22,9.46C378.05,1154.24,337.1,1150.83,303.92,1131.54z"/>
		<path class="st4" d="M1249.5,835.82c-5.87,6.28-12.44,11.91-20.01,16.35c-8.68,5.1-18.3,8.37-27.32,12.81
			c-22.84,11.24-41.5,29.75-62.39,44.16c-8.29,5.71-16.93,10.78-26.33,14.48c-30.61,12.09-65.33,8.23-96.88,17.58
			c-8.41,2.5-16.52,5.91-24.61,9.31c-36.18,15.24-72.37,30.48-108.54,45.72c-71.68,57.69-175.18,51.73-256.11,94.99
			c-20.99,11.22-40.15,25.61-61.02,37.06c-25.93,14.22-54.12,23.7-82.14,33.12c-29.18,9.79-58.36,19.6-87.54,29.39
			c-7.68,2.58-15.66,5.15-23.71,7.12l35.45-47.49c-3.22-6.69-6.44-13.38-9.65-20.07c39.09,0.95,78.26-1.1,117.04-6.13
			c9.52-1.24,21.65-5.65,21.11-15.23c-0.13-2.32-1.09-4.66-0.5-6.9c1.06-4.07,6.19-5.27,10.4-5.46c16.28-0.72,33.52,2.26,48.22-4.8
			c13.32-6.4,21.72-19.77,33.18-29.12c26.92-21.93,65.54-18.71,99.48-25.99c17.87-3.84,35.03-10.84,53.12-13.36
			c11.3-1.58,23.15-1.47,33.46-6.34c7.27-3.45,13.22-9.13,19.94-13.56c17.01-11.2,38.61-14.16,55.82-27.43
			c-9.18-1.49-18.08,3.14-26.67,6.7c-8.59,3.56-19.05,5.97-26.71,0.7c14.19-5.31,27.73-12.38,40.21-20.99
			c7.41-5.11,14.44-10.76,22.13-15.44c8.29-5.04,17.23-8.87,26.16-12.63c18.5-7.78,37.12-15.29,55.84-22.52
			c4.18-1.62,8.68-3.26,13.07-2.34c4.4,0.92,8.32,5.53,6.79,9.75c-1.36,3.74-5.87,5.09-9.76,5.92c-12.33,2.64-24.65,5.27-36.96,7.91
			c-1.71,0.36-3.61,0.85-4.55,2.32c-1.25,1.94-0.08,4.71,1.88,5.93s4.4,1.28,6.71,1.18c29.96-1.28,55.66-23.09,85.44-26.66
			c4.93-0.58,9.94-0.67,14.84-1.48c17.58-2.88,33.07-14.91,50.86-15.55c2.82,6.17,11.5,7.19,17.85,4.77
			c6.34-2.42,11.54-7.2,16.73-9.49C1175.86,869.18,1209.62,843.47,1249.5,835.82z"/>
		<path class="st4" d="M429.3,1155.54c-9.67,0.29-19.17,4.47-25.9,11.43c-3.58,3.69-6.38,8.1-10.06,11.69
			c-9.37,9.12-23.08,11.77-35.95,14.03c-9.28,1.62-18.55,3.24-27.83,4.86c-1.2,0.21-2.4,0.42-3.61,0.62
			c-1.9-0.67-3.77-1.45-5.62-2.35c-1.56-0.47-3.09-1.02-4.57-1.62c-3.14-1.26-6.14-2.81-9.04-4.59c0.38-0.34,0.79-0.65,1.22-0.89
			c2.14-1.24,4.7-1.52,7.14-1.89c9.27-1.43,18.24-4.77,26.17-9.74c2.94-1.85,6.07-4.69,5.48-8.09c-0.46-2.64-2.98-4.33-5.28-5.7
			c-5.89-3.53-12.49-7.19-19.22-5.86c-4.36,0.85-8.21,3.74-12.64,4.02c-7.86,0.49-13.52-7.03-18.23-13.34
			c-9.93-13.35-22.31-24.87-36.34-33.82c7.06,14.53,17.91,26.84,29.16,38.43c8.84,9.12,18.34,18.41,22.21,30.5
			c0.51,1.59,0.91,3.35,0.26,4.89c-0.16,0.39-0.39,0.74-0.67,1.04c-17.04-10.8-29.9-29.73-41.42-47.62
			c-10.65-16.54-21.29-33.08-31.93-49.61c-2.39-3.7-4.79-7.46-6.96-11.31c22.52,15.65,44.62,31.91,66.27,48.75
			c1.81,1.41,3.77,2.87,6.05,2.95c2.77,0.08,5.11-1.87,7.52-3.22c11.61-6.52,25.77,0.47,38.97,2.25c6.81,0.91,13.71,0.37,20.58,0.5
			C388.32,1132.3,411.33,1140.79,429.3,1155.54z"/>
		<path class="st5" d="M1139.77,909.14c-8.29,5.71-16.93,10.78-26.33,14.48c-30.61,12.09-65.33,8.23-96.88,17.58
			c-8.41,2.5-16.52,5.91-24.61,9.31c-36.18,15.24-72.37,30.48-108.54,45.72c-71.68,57.69-175.18,51.73-256.11,94.99
			c-20.99,11.22-40.15,25.61-61.02,37.06c-25.93,14.22-54.12,23.7-82.14,33.12c-29.18,9.79-58.36,19.6-87.54,29.39
			c-24.81,8.34-52.75,16.52-76.27,5.02c-1.56-0.47-3.09-1.02-4.57-1.62c18.25,2.25,36.97,0.64,54.52-4.84
			c4.49-1.39,9.77-4.29,9.44-8.97c-0.13-1.97-1.31-3.98-0.57-5.81c0.56-1.35,2-2.1,3.37-2.63c10.05-3.84,24.04-3.53,27.9-13.57
			c-2.16-1.03-4.43-2.12-5.85-4.06c-1.41-1.95-1.6-5.01,0.26-6.53c0.93-0.77,2.17-1.02,3.37-1.22c18.33-3.1,37.21-1.42,55.54-4.53
			c17.47-2.97,34.08-10.27,51.71-12.03c11.04-1.1,23.05-0.25,32.17-6.54c3.47-2.38,6.22-5.63,9.46-8.31
			c12.98-10.76,31.54-10.9,47.14-17.32c13.43-5.54,24.36-15.62,35.88-24.48c11.52-8.85,24.71-16.89,36.85-16.76
			c33.68-1.98,66.91-8.74,99.67-16.8c11.94-2.94,23.89-6.08,35.22-10.82c21.57-9.02,40.61-23.71,62.83-30.94
			c-2.33-2.22-1.62-6.34,0.62-8.66s5.49-3.29,8.58-4.17c7.73-2.19,15.47-4.4,23.2-6.61c3.12-0.88,6.33-1.82,8.87-3.84
			c2.11-1.68,3.62-4.01,5.57-5.89c3.91-3.78,9.29-5.53,14.48-7.16c20.35-6.41,40.69-12.81,59.45-19.29
			c32.43-15.55,70.43-12.85,105.28-21.7C1113.86,917.37,1126.67,912.38,1139.77,909.14z"/>
		<path class="st3" d="M853.24,711.91c19.12-7.41,39.76-10.9,60.25-10.18C896.03,714.09,873.96,719.78,853.24,711.91z"/>
		<path class="st3" d="M280.86,1035.95c26.72-23.52,55.58-44.62,86.09-62.96c29.85-17.94,63.23-33.64,97.96-31.1
			c-48.67,28.66-97.34,57.32-146.01,85.98C307.09,1034.84,295.12,1041.86,280.86,1035.95z"/>
		<path class="st3" d="M1018.77,544.49c-7.6,19.48-24.02,35.32-43.75,42.23c-9.97,3.49-20.73,4.82-30.16,9.59
			c-9.97,5.05-17.7,13.56-24.78,22.22c-10.63,12.99-20.35,26.73-29.07,41.07c23.07-29.35,53.16-53.16,87.04-68.85
			c10.28-4.76,21.29-9.06,28.79-17.56C1013.75,565.35,1016.8,554.92,1018.77,544.49z"/>
		<path class="st143" d="M918.63,873.34c22.58-9.06,44.68-19.31,66.17-30.71c3.28-1.74,6.66-3.6,8.86-6.6
			c2.2-3,2.84-7.47,0.49-10.34c-3.18-3.87-9.3-2.74-14.02-1.03c-18.78,6.79-36.11,17-53.32,27.15c-6.47,3.82-13.42,8.2-15.85,15.31
			c-0.28,0.81-0.49,1.7-0.28,2.53c0.47,1.89,2.75,2.63,4.69,2.81C919.17,872.8,923.05,872.23,918.63,873.34z"/>
		<path class="st143" d="M820.31,992.11c-19.19,13.64-44.5,13.72-67.18,20.02c-5.4,1.5-11.93,3.13-16.03-0.69
			c10.26-10.99,24.13-18.1,38.54-22.38c14.41-4.28,29.46-5.9,44.43-7.29c1.33-0.12,2.9-0.15,3.72,0.9c0.48,0.61,0.56,1.45,0.53,2.23
			C824.16,989.47,820.43,993.66,820.31,992.11z"/>
		<path class="st143" d="M1203.39,531.77c-4.56,19.09-11.51,37.6-20.62,54.98c-14.35,24.32-33.05,45.73-51.63,67.01
			c-2.16,2.47-4.33,4.95-6.5,7.43c-17.35,17.1-35.68,33.37-52.86,50.61c0.54,0.73,1.12,1.4,1.71,2c-3.71,3.21-7.52,6.33-11.41,9.33
			c-8.28,6.39-16.95,12.28-24.76,19.23c-6.01,5.35-11.47,11.31-17.65,16.45c-12.87,10.7-29.03,17.67-45.73,18.44
			c-16.72,0.78-37.38-1.25-46.39-13.42c-2.74-3.69-5.47-7.39-8.21-11.09c5.65-3.04,12.65-0.66,18.29,2.4
			c5.64,3.06,11.39,6.87,17.81,6.62c9.08-0.38,15.95-8.76,24.85-10.64c5.24-1.11,10.71,0.15,16.03-0.47
			c8.63-0.99,15.86-6.71,22.57-12.21c12.08-9.87,24.22-19.78,34.66-31.37c7.71-8.57,14.47-18.03,22.89-25.91
			c6.58-6.15,14.06-11.24,21.14-16.8c18.99-14.92,35.04-33.2,50.95-51.35c6.82-7.79,13.69-15.64,18.91-24.58
			c9.12-15.64,12.77-33.89,20.92-50.05c1.83-3.62,4.29-7.46,8.23-8.4C1199.12,529.37,1201.49,530.18,1203.39,531.77z"/>
		<path class="st4" d="M497.11,903.92c-16.58,3.67-33.08,7.61-49.5,11.83c-17.7,4.55-35.47,9.48-51.45,17.72
			c-27.02,13.93-48.42,37.03-78.11,45.45c35.84-6.33,62.06-33.49,94.29-48.99c23.93-11.5,50.94-16.43,77.33-22.02
			C496.8,906.39,504.34,904.61,497.11,903.92z"/>
		<path class="st3" d="M246.11,1010.56c13.27-17.6,27.62-34.45,39.44-53.06c11.82-18.61,21.13-39.35,23-61.32
			c6.46,30.46-1.3,63.64-20.6,88.08c-5.2,6.58-11.32,12.65-18.84,16.34C263.65,1003.29,257.21,1004.92,246.11,1010.56z"/>
		<path class="st4" d="M298.42,691.34c6.51,38.13,7.42,77.44,2.68,115.89c-3.21,26.08-9,51.73-16.68,76.63
			c-9.96,32.3-23.1,63.37-39.11,92.48c11.97-14.38,24.06-28.93,32.69-46.04c7.51-14.91,12.18-31.36,16.77-47.68
			c13.97-49.74,27.78-102.15,18.57-153.25c-1.04-5.76-2.37-11.48-4.51-16.84C305.63,704.5,300.56,695.75,298.42,691.34z"/>
		<path class="st4" d="M792.64,830.28c-8.06,17.98-29.5,25.08-48.71,29.47c-28.34,6.49-57.38,11.45-83.74,23.71
			c-32.63,15.18-59.84,40.98-93.66,53.27c9.88-12.3,21.71-23.01,34.91-31.61c-1.15-3.2-5.45-3.59-8.84-3.42
			c-32.43,1.61-64.86,3.23-97.29,4.84c1.02-1.6,2.51-2.91,4.29-4.02c-0.03,0.1-0.05,0.21-0.08,0.31c-0.14,0.58-0.31,1.17-0.46,1.75
			c22.74-9.98,48.48-8.41,73.17-11.41c9.55-1.15,19.01-3.01,28.44-4.86c14.98-2.94,29.98-5.88,44.96-8.82
			c8.43-1.66,16.89-3.32,25.06-5.99c7.34-2.4,14.38-5.59,21.54-8.48c8.56-3.47,17.3-6.51,26.03-9.56
			c22.33-7.77,44.65-15.56,66.96-23.33c0.49-0.68,0.97-1.36,1.45-2.05C788.66,829.87,790.66,829.89,792.64,830.28z"/>
		<path class="st4" d="M780.63,840.67c-5.53,18.7,2.08,38.56,10.27,56.26c3.16,6.82,6.47,13.75,7.2,21.23c0.2,2,0.12,4.23-1.25,5.69
			c-0.99,1.06-2.46,1.49-3.87,1.86c-14.25,3.71-30.58,5.68-39.68,17.26c-0.53,0.67-1.04,1.44-0.99,2.29
			c0.13,1.97,2.83,2.38,4.79,2.19c13.05-1.28,25.98-3.7,38.61-7.2c3.08-0.85,6.2-1.78,9.39-1.69c5.07,0.14,9.69,2.82,13.85,5.72
			c3.75,2.62,7.41,5.58,9.7,9.54c1.99,3.45,2.81,7.45,4.48,11.06c3.3,7.15,10.06,12.59,17.75,14.29c7.69,1.7,16.11-0.39,22.12-5.48
			c1-0.85,1.96-1.81,2.45-3.02c0.91-2.24,0.06-4.77-0.92-6.98c-7.95-17.91-24.77-31.62-43.91-35.79c-4.42-0.96-9.1-1.5-12.88-3.99
			c-3.26-2.14-5.48-5.51-7.49-8.85c-4.99-8.3-9.2-17.05-13.08-25.92c-3.72-8.51-7.18-17.43-7.06-26.72
			c0.06-4.6,1.01-9.18,0.64-13.77s-2.45-9.43-6.62-11.37C782.54,838.17,780.96,839.56,780.63,840.67z"/>
		<path class="st4" d="M1008.12,528.7c-4.28,16.25-15.38,30.41-28.47,41.18c-14.95,12.31-32.51,20.91-49.51,30.21
			c-5.83,3.19-11.68,6.53-16.42,11.2c-3.93,3.87-6.96,8.52-10.19,12.99c-19.38,26.86-46.91,48.66-58.58,79.65
			c-3.1,8.23-4.96,16.86-7.18,25.36c-9.56,36.88-25.79,72.03-47.66,103.24c-1.87,2.66-4.65,5.63-7.77,4.74
			c-1.61-0.46-2.51-1.63-2.9-3.12c1.93-0.68,3.86-1.35,5.78-2.02c0.49-0.68,0.97-1.36,1.45-2.05
			c19.66-28.37,23.54-62.86,36.77-93.01c5.36-25.33,16.96-47.91,31.43-68.07c14.46-20.17,31.78-38.11,49.41-55.58
			c9.98-9.9,20.22-19.76,32.29-26.95c11.23-6.7,23.86-10.94,34.55-18.46c11.21-7.87,19.73-18.9,27.74-30.01
			C1001.4,534.45,1004.37,530.62,1008.12,528.7z"/>
		<path class="st4" d="M1037.56,573.42c-8.23,20.81-23.57,39.65-43.28,51.3c-4.97,2.93-10.26,5.47-14.56,9.3
			c-3.44,3.07-6.13,6.85-8.79,10.61c-8.67,12.21-17.32,24.41-25.99,36.63c-0.86,1.21-1.75,2.5-1.93,3.98
			c-0.07,0.65-0.01,1.28,0.16,1.9c-15.54,5.62-33.85,5.1-49.36,11.71c27.72-16.07,47.52-45.17,52.31-76.85
			c0.39-2.58,0.73-5.31,2.27-7.43c2.38-3.27,6.82-4.09,10.79-4.93c23.88-5.04,45.5-20.02,58.59-40.62
			c4.63-7.27,9.82-16.12,16.86-19.85C1037.64,556.83,1038.73,565.26,1037.56,573.42z"/>
		<path class="st4" d="M1172.57,492.84c-5.99,7.55-10.84,16.03-15.63,24.43c-9.51,16.69-19.03,33.38-28.54,50.08
			c-27.57,33.02-56.45,64.37-86.72,94.32c-23.7,21.13-51.89,39.3-82.11,52.95c-3.68,1.66-7.46,3.28-11.47,3.77
			c-4.67,0.58-9.36-0.37-14.03-0.94c-12.9-1.6-25.96-0.34-38.89,0.92c3.55-7.14,12.06-9.99,19.73-12.16
			c11.59-3.28,23.18-6.57,34.76-9.87c3.08,3.41,6.64,6.26,11.06,7.04c5.79,1.03,11.53-1.82,16.61-4.79
			c26.46-15.48,49.08-36.61,71.46-57.55c12.93-12.11,25.89-24.24,37.87-37.3c18.85-20.54,35.16-43.25,51.42-65.9
			c8.51-17.48,17.39-35.48,33.71-44.58C1172.05,493.12,1172.31,492.97,1172.57,492.84z"/>
		<path class="st4" d="M1207.41,508.44c-0.02,2.52-0.39,5.09-0.81,7.59c-5.69,33.91-18.86,66.54-38.36,94.86
			c-26.44,38.39-63.54,67.9-96.45,100.9c2.81,3.77,6.36,5.89,9.83,6.5c-22.62,23.1-46.31,45.27-74.43,60.95
			c-5.85,3.26-12.04,6.28-18.71,6.92c-5.79,0.55-11.6-0.72-17.28-1.98c-11.02-2.45-22.04-4.9-33.06-7.35
			c-4.75-1.06-9.72-2.23-13.36-5.47c-3.63-3.23-5.28-9.25-2.22-13.03c9.92-1.58,16.25,11.37,26.06,13.51
			c9.92,2.16,18.26-7.16,27.7-10.85c1.36-0.53,2.88-0.94,4.26-0.45c1.67,0.61,2.59,2.35,3.9,3.54c3.74,3.43,9.69,1.87,14.35-0.14
			c10.28-4.47,19.98-10.27,28.78-17.21c9.41-7.42,17.73-16.09,26.03-24.74c11.85-12.35,23.69-24.7,35.55-37.05
			c18.98-19.78,37.97-39.57,56.77-59.54c9.12-9.69,18.26-19.51,25.23-30.84c6.1-9.94,10.42-20.84,14.71-31.69
			C1193.07,544.74,1200.24,526.58,1207.41,508.44z"/>
		<path class="st4" d="M1239.66,537.65c-6.12,13.32-11.16,29.21-14.51,45.45c-0.81,3.88-1.53,7.85-3.31,11.38
			c-2.05,4.09-5.37,7.38-8.48,10.74c-20.66,22.34-33.92,50.88-55.6,72.24c-17.02,16.76-38.47,28.34-56.37,44.16
			c-11.61,10.26-21.59,22.21-31.53,34.09c4.69-13.94,11.73-26.78,20.26-38.74c2.62-1.17,5.07-2.84,7.44-4.48
			c8.27-5.73,16.53-11.46,24.81-17.18c8.63-5.98,17.29-11.98,25.01-19.1c27.11-25.04,41.14-62.57,70.74-84.61
			c-1.55-18.11,4.75-35.69,16.34-48.67C1236.09,541.09,1237.85,539.33,1239.66,537.65z"/>
		<path class="st4" d="M1267.14,636.32c0.96-1.89,2.08-3.7,3.33-5.41c-2.02,3.99-4.05,7.99-6.08,11.98
			C1265.17,640.65,1266.06,638.44,1267.14,636.32z"/>
		<path class="st4" d="M1285.03,563.48c-2.3,11.5-4.58,23.01-6.88,34.5c-1.86,9.32-3.73,18.72-7.46,27.47
			c-3.98,9.32-9.94,17.65-15.53,26.11c-11.75,17.76-22.06,36.48-30.8,55.91v0.01c-20.17,15.51-41.63,28.8-62.05,43.48
			c-24.62,17.69-48.2,37.97-63.54,64.11c-14.86,24.17-44.67,40.01-73.55,37.25c-2.21-0.21-4.53-0.5-6.55,0.41
			c-2.02,0.9-3.44,3.55-2.22,5.39c0.96,1.46,2.94,1.71,4.68,1.88c13.28,1.26,26.33,5.11,38.17,11.25
			c-12.86,8.64-29.91,7.27-44.41,12.72c-15.25,5.74-28.76,19.22-44.93,17.21c7.77-5.23,15.55-10.46,23.32-15.69
			c0.95-0.64,1.95-1.33,2.42-2.38c1.75-3.89-4.51-6.17-8.77-5.79c-13.61,1.2-27.14,3.22-40.51,6.04c-1.82-2.96,1.51-6.37,4.46-8.21
			c18.55-11.56,38.41-21.04,59.07-28.18c15.36-3.77,24.25-21.34,38.71-21.49c2.93-0.03,5.86,0.71,8.77,0.38
			c3.72-0.4,7.03-2.47,10.18-4.49c7.27-4.64,14.64-9.36,20.39-15.78c6.74-7.52,10.93-16.99,17.45-24.7
			c6.5-7.69,15.05-13.32,23.56-18.7c35.94-22.69,74.59-43.61,100.26-77.49c10.01-13.21,17.7-28,25.33-42.71
			c12.23-23.54,24.72-48.04,25.83-74.53c0.41-9.82,0.1-21.43,5.63-28.69C1287.88,546.26,1286.64,555.42,1285.03,563.48z"/>
		<path class="st4" d="M1327.39,639.89c-0.35,5.18-3.14,9.82-5.31,14.52c-10.05,21.83-8.18,49.27-24.13,67.24
			c0.22,0.46,0.42,0.94,0.58,1.44c-4.89,4.52-9.92,8.92-14.32,13.91c-6.98,7.93-12.29,17.19-18.8,25.51
			c-30.64,39.2-84.21,53.68-118.07,90.12c-10.82,11.65-19.92,25.74-34.15,32.81c-6.12,3.03-12.86,4.56-19.55,5.93
			c-22.63,4.62-45.57,7.57-68.62,8.85c-5.67,0.32-12.01,0.31-16.16-3.56c39.11-7.91,79.26-16.22,112.77-37.9
			c19.84-12.84,36.68-29.98,56.87-42.24c15.86-9.62,33.51-16.06,48.98-26.26c21.49-14.14,37.73-34.77,53.59-55.02
			c6.22-7.94,12.46-15.93,17.22-24.81c12.7-23.68,14.63-53.18,28.73-75.28C1327.37,636.7,1327.51,638.29,1327.39,639.89z"/>
		<path class="st4" d="M814.62,869.76c7.19,2.49,7.88,12.29,12.21,18.55c5.78,8.34,17.44,9.51,27.59,9.89
			c16.45,0.62,32.89,1.24,49.34,1.86c8.05,0.3,17.88,1.81,20.72,9.35c2.59,6.88-2.55,14.1-7.68,19.37
			c-6.5,6.69-15.25,13.33-24.28,11.01c-10.34-2.66-14.89-15.52-24.71-19.72c-4.36-1.86-9.26-1.79-13.95-2.43
			c-11.48-1.57-22.26-7.75-29.41-16.86C817.3,891.66,813.85,879.72,814.62,869.76z"/>
		<path class="st4" d="M526.55,761.2c-0.48,8.72-0.96,17.45-1.46,26.16c-7.13,38.01-15.26,76.43-25.3,114.36
			c-9.37,4.84-19.59,8.03-30.04,9.38c0.68-9.09,1.36-18.18,2.04-27.27c3.34-44.55,6.72-89.29,16.34-132.9
			C500.99,754.14,513.86,757.39,526.55,761.2z"/>
		<path class="st4" d="M405.32,929.28c6.88-5.72,10.44-14.42,13.42-22.86c7.5-21.23,13-43.15,16.43-65.4
			c-2.15,20.76-4.3,41.51-6.45,62.27c-0.85,8.17-2.16,17.23-8.57,22.37C416.32,928.73,410.99,929.82,405.32,929.28z"/>
		<path class="st4" d="M264.58,1103.77c-0.88-6.46-1.12-13.01-0.72-19.51c6.68-1.75,12.13,7.26,19.02,6.73
			c8.04-0.62,10.14-12.9,17.83-15.3c5.93-1.85,13.31,2.87,18.15-1.01c1.52-1.22,2.42-3.1,3.94-4.31c3.23-2.57,7.89-1.4,11.94-0.64
			c7.54,1.41,15.43,0.87,22.72-1.53c-5.63,8.24-17.34,9.27-25.41,15.15c-8.33,6.07-12.19,16.89-20.56,22.89
			c-3.25,2.33-7.16,3.93-9.51,7.16c-3.58,4.93-3.81,13.54-9.83,14.46c-1.67,0.26-3.36-0.27-4.94-0.85
			c-6.44-2.38-12.44-5.93-17.63-10.42C265.34,1112.89,261.52,1106.41,264.58,1103.77z"/>
		<path class="st5" d="M526.55,761.2c-0.48,8.72-0.96,17.45-1.46,26.16c-7.13,38.01-15.26,76.43-25.3,114.36
			c-0.09,0.37-0.18,0.74-0.29,1.11c-2.59,1.36-5.1,2.85-6.29,5.44c2.93-25.92,7.2-51.69,12.79-77.17
			c5.23-23.79,11.61-47.44,15.07-71.51C522.9,760.12,524.73,760.66,526.55,761.2z"/>
		<path class="st5" d="M1038.02,566.35c0.02,2.37-0.12,4.73-0.46,7.07c-8.23,20.81-23.57,39.65-43.28,51.3
			c-4.97,2.93-10.26,5.47-14.56,9.3c-3.44,3.07-6.13,6.85-8.79,10.61c-7.84,11.04-15.66,22.06-23.5,33.11
			c1.11-6.99,4.32-13.95,7.48-20.4c3.88-7.92,7.75-15.84,11.63-23.75c1.3-2.65,2.74-5.45,5.3-6.88c1.85-1.04,4.03-1.22,6.12-1.54
			c15.77-2.36,29.2-13.05,39.09-25.56C1025.18,589.31,1031.38,577.69,1038.02,566.35z"/>
		<path class="st5" d="M1206.43,516.94c-0.84,4.97-1.86,9.92-3.04,14.83c-4.56,19.09-11.51,37.6-20.62,54.98
			c-4.35,8.33-9.21,16.39-14.54,24.13c-12.64,18.35-27.71,34.67-43.59,50.3c-17.35,17.1-35.68,33.37-52.86,50.61
			c0.54,0.73,1.12,1.4,1.71,2c0.44,0.45,0.89,0.87,1.35,1.25c-10.15,8.88-19.96,18.15-29.38,27.81
			c15.58-27.71,36.09-52.65,60.28-73.28c8.87-7.57,18.26-14.57,26.51-22.81c7.13-7.11,13.35-15.05,19.5-23.02
			c20.4-26.4,40.74-54.23,48.4-86.69C1201.76,530.25,1203.04,522.86,1206.43,516.94z"/>
		<path class="st5" d="M1225.3,708.43c-41.73,30.28-88.79,55.78-119,97.56c-3.16,4.37-6.17,8.95-10.33,12.37
			c-3.18,2.61-6.93,4.44-10.63,6.24c-9.51,4.63-19.02,9.27-28.53,13.9c7.3-5.22,14.59-10.44,21.89-15.66
			c11.76-8.41,23.68-16.98,32.73-28.26c4.03-5.02,7.46-10.55,12.01-15.1c2.53-2.52,5.38-4.71,8.21-6.88
			C1162.22,749.15,1192.93,725.61,1225.3,708.43z"/>
		<path class="st5" d="M1298.03,721.84c-6.41,5.46-11.6,12.43-16.64,19.25c-6.46,8.76-12.91,17.52-19.37,26.28
			c-4.46,6.05-8.96,12.15-14.56,17.19c-6.26,5.63-13.7,9.75-21.08,13.84c-13.18,7.28-26.36,14.57-38.41,20.65
			c-25.95,13.86-49.51,32.17-69.34,53.9c-4.12,4.51-8.21,9.27-13.59,12.15c-4.05,2.17-8.62,3.16-13.11,4.12
			c-16.36,3.5-33.02,7.02-49.67,5.46c23.51-3.67,47.72-7.61,67.95-20.13c17.94-11.12,31.37-28.18,48.24-40.86
			c25.06-18.84,56.75-27.35,81.47-46.63c18.04-14.07,31.41-33.11,44.84-51.61c3.95-5.43,8.17-11.05,14.53-15.36L1298.03,721.84z"/>
		<path class="st5" d="M1221.1,852.51c4.94-1.56,10.13-2.86,15.01-4.7c-2.12,1.55-4.32,3.01-6.62,4.35
			c-8.68,5.1-18.3,8.37-27.32,12.81c-22.84,11.24-41.5,29.75-62.39,44.16c-3.48,2.4-7.03,4.68-10.66,6.8
			c-2.62,0.47-5.3,0.87-8.07,1.18c6.97-2.68,12.97-7.36,18.8-12.06C1165.11,884.68,1190.14,862.31,1221.1,852.51z"/>
		<path class="st5" d="M1277.95,795.31c-6.13,10.02-12.65,20.94-20.42,31.01c0.49-1.08,0.97-2.16,1.46-3.24
			C1263.63,812.8,1269.52,802.63,1277.95,795.31z"/>
		<path class="st89" d="M1209.43,829.31c1.72-3.38,3.43-6.77,5.15-10.15"/>
		<path class="st3" d="M813.34,850.42c12.29,1.65,21.97,10.82,31.5,18.76c8.63,7.19,17.99,13.8,28.6,17.49s22.67,4.25,32.89-0.43
			c-11.1-11.36-28.23-14.48-40.81-24.17c-5.72-4.4-10.45-10.13-16.71-13.72c-4.78-2.74-10.22-4.09-15.57-5.42
			c-5.65-1.39-11.3-2.79-16.94-4.18c-2.18-0.54-4.58-1.05-6.57-0.03c-2.37,1.22-3.26,4.45-2.24,6.91
			C808.51,848.1,810.99,850.1,813.34,850.42z"/>
		<path class="st3" d="M1131.43,785.89c-9.09,29.92-34.06,51.83-57.89,72.07c14.42,0.39,28.73-5.7,39.07-15.77
			c10.34-10.06,16.74-23.87,18.65-38.16C1132.22,796.8,1132.08,789.41,1131.43,785.89z"/>
		<path class="st3" d="M1064.31,745.31c-12.82,22.8-27.99,44.28-45.2,63.98c0.49,1.57,2.59,1.81,4.22,1.67
			c12.98-1.06,25.13-7.15,35.4-15.16c10.26-8.01,18.86-17.92,27.38-27.76c6.18-7.14,12.4-14.33,17.17-22.48
			c-16.67,2.34-27.46,21.96-44.28,22.67C1061.31,759.35,1064.6,750.71,1064.31,745.31z"/>
		<path class="st3" d="M1123.35,893.07c4.27-3,8.6-6.05,11.94-10.07c2.06-2.48,3.7-5.27,5.35-8.03
			c9.13-15.25,19.35-30.42,33.89-40.65c-4.35,17.79-13.58,34.36-26.41,47.42c-6.18,6.28-13.3,11.84-21.52,14.99
			c-0.45,0.17-0.91,0.34-1.39,0.32C1123.86,896.98,1123,895.11,1123.35,893.07z"/>
		<path class="st3" d="M480.98,1076.9c16.34-2.41,32.84-4.82,49.31-3.62c11.59,0.85,24.23,3.26,34.09-2.88
			c-14.07-7.25-30.9-6.92-46.44-3.88C502.4,1069.55,487.41,1075.08,480.98,1076.9z"/>
		<path class="st3" d="M766.57,917.14c10.62-11.76,8.09-32.77-5.03-41.67c-0.9-0.61-1.96-1.2-3.03-1c-1.96,0.36-2.53,2.86-2.58,4.85
			C755.64,891.25,759.14,903.25,766.57,917.14z"/>
		<path class="st3" d="M279.03,723.46c-6.47,32.02-12.91,65.36-4.74,96.99c2-1.81,2.45-4.74,2.78-7.42
			C280.9,781.65,284.74,749.86,279.03,723.46z"/>
		<path class="st3" d="M343.75,740.55c0.4,40.78,1.02,82.71,16.47,120.46c3.16-3.62,3.64-8.79,3.85-13.59
			C365.75,809.98,360.72,772.25,343.75,740.55z"/>
		<path class="st3" d="M1296.78,625.51c-5.23,8.59-10.46,17.19-15.68,25.78c-0.52,0.85-1.28,1.82-2.25,1.64
			c-1.32-0.23-1.37-2.1-1.07-3.41c1.3-5.75,2.63-11.6,5.55-16.72S1291.03,623.31,1296.78,625.51z"/>
		<path class="st3" d="M992.09,723.25c28.56-22.82,55.47-47.7,80.45-74.39c8.76-9.36,17.63-19.2,29.31-24.46
			c-1.12,3.96-3.96,7.15-6.72,10.21c-9.98,11.05-19.96,22.09-29.93,33.14c-19.86,21.99-39.95,44.17-64.18,61.23
			c-3.89,2.74-9.34,5.32-13.05,2.34C988.62,727.32,990.92,724.17,992.09,723.25z"/>
		<path class="st3" d="M1237.08,603.2c-14.51,25.11-37.49,45.13-48.54,71.95c18.69-17.05,34.02-37.79,44.83-60.67
			C1235.81,609.3,1238.07,603.96,1237.08,603.2z"/>
	</g>
	<path class="st133" d="M493.52,468.98c14.66,103.42,29.32,206.85,43.98,310.27c-6.64-10.51-16.86-18.7-28.56-22.89
		C503.3,659.86,497.66,563.37,493.52,468.98z"/>
	<path class="st133" d="M1497.76,1323.1h-93.28c-5.81-116.21-33.62-235.06-49.52-353.32c-12-89.28-17.2-179.47-15.61-269.53
		c0.47-26.72,1.55-53.41,3.22-80.07v-0.01c2.37-37.97,5.96-75.85,10.76-113.58c0.36-2.84,0.72-5.68,1.1-8.51
		c4.73,9.14,8.92,18.02,12.59,26.72c11.17,26.38,17.62,51.1,20.17,76.22c1.62,15.9,1.69,31.94,2.82,47.88c0,0,0,0,0,0.01
		c0.45,6.35,1.07,12.68,2.02,18.97c0.23,1.49,0.47,2.96,0.74,4.45c0.37,2.15,0.79,4.31,1.23,6.45c-1.2,0.74-2.4,1.49-3.61,2.25
		c-1.12,0.69-2.23,1.37-3.34,2.08c-0.23,0.13-0.44,0.27-0.67,0.41c0.1,0.35,0.19,0.7,0.3,1.05c-0.01,0,0,0.01,0,0.01
		c1.41,5.04,2.81,10.11,4.22,15.23c0.02,0.07,0.04,0.13,0.05,0.21c1.35,4.89,2.7,9.83,4.06,14.78c0.45,1.67,0.91,3.34,1.37,5.02
		c2.26,8.22,4.55,16.48,6.93,24.78c0.45,1.59,0.91,3.18,1.37,4.78c0.4,1.39,0.8,2.79,1.21,4.18c0.04,0.11,0.07,0.23,0.1,0.34
		c0.49,1.68,0.98,3.36,1.49,5.04c0.59,2.01,1.2,4.01,1.82,6.02c0.42,1.38,0.84,2.78,1.27,4.16c1.58,5.12,3.2,10.23,4.88,15.32
		c0.53,1.65,1.08,3.3,1.64,4.94c0.53,1.6,1.08,3.21,1.63,4.81c0.63,1.85,1.27,3.68,1.93,5.53c0.32,0.91,0.65,1.84,0.97,2.76
		c0.87,2.44,1.76,4.88,2.68,7.31c0.3,0.82,0.61,1.63,0.91,2.44c0.3,0.81,0.61,1.62,0.92,2.43c0.64,1.67,1.28,3.34,1.94,5.01
		c0.39,1.01,0.79,2.01,1.2,3.01c0.18,0.48,0.38,0.96,0.58,1.45c0.53,1.33,1.08,2.66,1.63,3.98c0.32,0.79,0.65,1.58,0.98,2.36
		c0.56,1.36,1.15,2.73,1.73,4.09c-22.85,87.12-14.7,178.17,4.06,264.85c0.34,1.57,0.69,3.14,1.04,4.71c0.34,1.57,0.69,3.14,1.05,4.7
		c0.35,1.57,0.71,3.14,1.07,4.7c0.32,1.38,0.64,2.76,0.96,4.14c0.03,0.18,0.07,0.37,0.12,0.55c0.43,1.84,0.86,3.67,1.3,5.51
		c0.64,2.7,1.28,5.39,1.95,8.08c0.53,2.2,1.08,4.4,1.63,6.6c0.79,3.17,1.59,6.35,2.4,9.52c0.55,2.18,1.11,4.36,1.68,6.53
		c0.29,1.13,0.58,2.25,0.88,3.37c0.33,1.28,0.67,2.56,1.01,3.85c0.63,2.37,1.25,4.75,1.9,7.13c0.01,0.05,0.02,0.1,0.04,0.16
		c0.07,0.3,0.15,0.59,0.24,0.89c0,0.01,0,0.02,0.01,0.03c0.9,3.39,1.83,6.78,2.75,10.17c5.38,19.79,11.01,39.54,16.59,59.29
		c0.66,2.32,1.31,4.64,1.97,6.96c1.31,4.65,2.63,9.28,3.93,13.93c1.27,4.52,2.53,9.06,3.79,13.58c1.32,4.77,2.64,9.54,3.94,14.32
		c1.26,4.66,2.52,9.31,3.76,13.97c1.24,4.67,2.46,9.32,3.67,14C1496.57,1318.42,1497.17,1320.76,1497.76,1323.1z"/>
	<path class="st133" d="M757.42,201.35c-5.95,38.8-20.85,75.63-36.62,111.61c-10.88,24.86-22.68,50.16-42.26,68.97
		c-19.58,18.81-48.84,29.95-74.46,20.95c-22.77-7.99-37.63-29.34-51.56-49.05c-37.9-53.63-80.21-104.11-126.35-150.82
		c44.25-25.33,86.87-53.76,127.61-85.32c5.36,10.93,10.8,21.99,18.64,31.3c7.84,9.32,18.44,16.87,30.49,18.58
		c6.61,0.93,13.55,0.12,19.79,2.48c3.15,1.19,5.96,3.13,8.81,4.91c7.2,4.48,14.92,8.07,22.8,11.22
		C686.87,199.21,722.48,204.21,757.42,201.35z"/>
	<path class="st135" d="M519.02,771.13c6.64,4.61,6.14,13.26,5.47,22.15c11.57-1.48,17.57-16.08,14.32-27.43
		c-3.24-11.36-12.79-19.71-22.46-26.49c-34.1-23.88-74.66-36.39-114.48-48.53c-33.74-10.29-67.49-20.59-101.23-30.88
		c-8.26-2.52-16.7-5.07-25.34-4.8c-8.63,0.27-17.09,4.24-22.21,11.19c-10.48,14.22,1.38,30.43,10.9,44.4
		c2.83-8.73,3.61-14.67,5.78-19.61c18.3-2.07,38.68,4.44,50.39,8.12c34.88,10.97,55.39,19.88,90.27,30.85
		C449.01,742.23,494.5,754.1,519.02,771.13z"/>
	<path class="st135" d="M1451.58,610.37c-20.6,9.87-42.17,19.89-59.06,35.97c-2.97,2.83-7,7.48-9.63,10.62
		c-6.82,8.17-5.28,21.93,3.18,28.39c1.63-2.49,6.24-5.5,10.7-8.29c53.07-33.26,108.9-62.1,166.74-86.13
		c39.68-16.49,81.24-30.88,124.02-30.96c1.07,2.45,1.87,4.89,2.94,7.34c0.34,0.78,1.02,2.98,1.02,2.98s3.08-1.41,3.95-2.24
		c5.17-4.95,8.55-11.72,9.4-18.82c0.41-3.46,0.17-7.23-1.9-10.03c-1.67-2.27-4.32-3.62-6.96-4.62c-15-5.68-28.69-6.63-44.21-2.6
		c-17.6,4.57-36.64,6.94-54.1,13.36C1548.05,563.57,1498.21,588.02,1451.58,610.37z"/>
	<path class="st135" d="M1016.39,0.02c-17.29,41.07-40.12,79.68-67.26,114.34c-4.88,6.23-9.89,12.32-15.03,18.28l-0.01,0.01
		c-16.76,19.42-34.91,37.37-54.22,53.58c-2.43,2.05-4.88,4.07-7.35,6.05c-4.68,3.76-9.42,7.43-14.22,10.98
		c-4.86,2.64-9.83,5.09-14.88,7.33c-3.71,1.66-7.48,3.21-11.28,4.66c-1.31,0.5-2.63,0.98-3.95,1.46h-0.01
		c-24.53,8.79-50.63,13.22-76.69,13.03c-14.26-0.09-28.49-1.57-42.45-4.46c-23.33-4.83-45.82-13.61-66.51-25.72
		c-15.53-9.09-30.06-20.05-43.21-32.65c0.45,0.11,0.9,0.21,1.35,0.3c0.23,0.05,0.44,0.09,0.67,0.13h0.01c0,0,0.01,0,0.02,0
		c0.01,0.01,0.02,0.01,0.03,0.01c0.02,0,0.04,0.01,0.06,0.01c0.03,0.01,0.06,0.01,0.1,0.02c0.14,0.02,0.29,0.05,0.44,0.07
		c0.3,0.05,0.61,0.1,0.9,0.14c0.52,0.07,1.04,0.13,1.56,0.18c0.51,0.06,1.04,0.1,1.56,0.14c0.29,0.02,0.57,0.04,0.86,0.06
		c0.67,0.05,1.33,0.08,2,0.11c0.51,0.02,1.03,0.04,1.54,0.07c0.42,0.02,0.84,0.04,1.26,0.06c0.41,0.02,0.83,0.05,1.25,0.07
		c0.32,0.02,0.64,0.04,0.95,0.06c0.34,0.03,0.68,0.05,1.02,0.08c0.06,0.01,0.12,0.01,0.18,0.02c0.26,0.03,0.51,0.06,0.77,0.08
		c0.33,0.04,0.66,0.08,0.98,0.12c0.66,0.08,1.3,0.19,1.95,0.32c0.01,0,0.03,0.01,0.04,0.01c0.1,0.02,0.21,0.04,0.31,0.06
		c0.1,0.02,0.21,0.04,0.3,0.06c0.05,0.01,0.09,0.02,0.13,0.03h0.01c0.03,0,0.05,0.01,0.07,0.02c0.01,0,0.01,0,0.02,0
		c0.03,0,0.06,0.01,0.09,0.02c0.07,0.02,0.13,0.03,0.21,0.05c0.18,0.04,0.36,0.08,0.53,0.13c0.28,0.07,0.55,0.14,0.82,0.24
		c0.17,0.05,0.35,0.1,0.51,0.16c0.29,0.09,0.57,0.19,0.86,0.3c3.15,1.19,5.96,3.13,8.81,4.91c7.2,4.48,14.92,8.07,22.8,11.22
		c0.75,0.3,1.51,0.59,2.26,0.88c0.74,0.29,1.48,0.57,2.22,0.84c1.66,0.63,3.33,1.23,5.02,1.82c0.63,0.22,1.26,0.43,1.89,0.64
		c0.77,0.26,1.54,0.51,2.31,0.76c0.75,0.25,1.5,0.48,2.26,0.72c0.99,0.32,2,0.62,3.01,0.91c0.25,0.08,0.49,0.15,0.74,0.23
		c0.77,0.23,1.55,0.45,2.33,0.67c1.17,0.33,2.34,0.65,3.51,0.95c0.87,0.24,1.73,0.45,2.61,0.67c0.64,0.16,1.26,0.32,1.9,0.47
		c0.07,0.02,0.15,0.03,0.23,0.05c0.35,0.08,0.7,0.16,1.05,0.25c0.35,0.09,0.71,0.17,1.06,0.25c0.73,0.16,1.46,0.33,2.18,0.49
		c0.12,0.03,0.25,0.05,0.37,0.08c0.73,0.15,1.45,0.31,2.17,0.46c0.95,0.19,1.92,0.39,2.87,0.57c0.63,0.12,1.25,0.25,1.88,0.36
		c0.8,0.14,1.59,0.29,2.39,0.43c1.39,0.25,2.8,0.47,4.21,0.69c0.27,0.04,0.52,0.08,0.79,0.12c0.88,0.13,1.76,0.27,2.66,0.39
		c0.86,0.12,1.73,0.24,2.59,0.35c0.61,0.07,1.21,0.15,1.82,0.23c0.03,0,0.06,0.01,0.09,0.01c0.75,0.09,1.49,0.17,2.24,0.26
		c0.69,0.07,1.36,0.14,2.05,0.22c0.95,0.09,1.9,0.18,2.85,0.27c0.17,0.02,0.35,0.03,0.52,0.05c1.41,0.12,2.82,0.23,4.24,0.33
		c0.8,0.05,1.61,0.1,2.42,0.14c1.61,0.1,3.22,0.17,4.83,0.23h0.01c3.35,0.12,6.71,0.17,10.06,0.15c0.84,0,1.68-0.01,2.51-0.03
		c0.84-0.01,1.68-0.03,2.52-0.06c0.83-0.02,1.67-0.05,2.51-0.08c0.84-0.03,1.67-0.07,2.51-0.11c0.89-0.04,1.79-0.09,2.69-0.14
		c0.53-0.03,1.07-0.06,1.6-0.1c0.03,0,0.06,0,0.09-0.01c1.03-0.07,2.04-0.14,3.07-0.23c2.1-0.17,4.19-0.37,6.29-0.59h0.01
		c3.34-0.36,6.68-0.8,10-1.31c14.82-2.25,29.41-5.94,43.46-11.04h0.01c11.58-4.19,22.77-9.35,33.46-15.47
		c5.65-3.22,11.15-6.71,16.48-10.46c23.66-16.66,43.75-37.87,62.45-59.95c20.1-23.76,35.09-63.58,50.31-95.96
		c1.04-2.23,2.08-4.41,3.13-6.55H1016.39z"/>
	<path class="st134" d="M952.94,1323.14c-0.03,0.08-0.05,0.15-0.08,0.24c0.01-0.08,0.02-0.15,0.03-0.24H952.94z"/>
</g>
<g>
	<g>
		<rect x="8.96" y="1371.09" class="st0" width="2000" height="1046.98"/>
	</g>
</g>
</svg>
