<?xml version="1.0" encoding="utf-8"?>
<!-- Generator: Adobe Illustrator 27.0.0, SVG Export Plug-In . SVG Version: 6.00 Build 0)  -->
<svg version="1.1" id="Слой_1" xmlns="http://www.w3.org/2000/svg" xmlns:xlink="http://www.w3.org/1999/xlink" x="0px" y="0px"
	 viewBox="0 0 2000 1046.98" style="enable-background:new 0 0 2000 1046.98;" xml:space="preserve">
<style type="text/css">
	.st0{fill:#9BAFBD;}
	.st1{fill:#728694;}
	.st2{fill:#FDD5C8;}
	.st3{fill:#FEE4DB;}
	.st4{fill:#E0AFA1;}
	.st5{fill:#99685A;}
	.st6{fill:#AECCD1;}
	.st7{fill:#7A9CA1;}
	.st8{fill:#495B5E;}
	.st9{fill:url(#SVGID_1_);}
	.st10{fill:#E09F89;}
	.st11{fill:url(#SVGID_00000054267675253390834860000013337916153485146286_);}
	.st12{fill:#F6DCDD;}
	.st13{fill:#E39D9D;}
	.st14{fill:#FDACAE;}
	.st15{fill:#E2A094;}
	.st16{fill:#FEBEBE;}
	.st17{fill:#F16E2B;}
	.st18{fill:#DF523C;}
	.st19{fill:#E78B7C;}
	.st20{fill:url(#SVGID_00000011020378258227882910000009909002689607752601_);}
	.st21{fill:#E7DBE0;}
	.st22{fill:url(#SVGID_00000062882627465826200920000011539801618756770748_);}
	.st23{fill:url(#SVGID_00000118359630527068114760000013501609781260854945_);}
	.st24{fill:#E75742;}
	.st25{fill:#EEA755;}
	.st26{fill:#EEB3B2;}
	.st27{fill:#FA9DA5;}
	.st28{fill:#FABEB5;}
	.st29{fill:#F25026;}
	.st30{fill:url(#SVGID_00000061429781918332333800000006878139143537782709_);}
	.st31{fill:url(#SVGID_00000057868027548571297390000006798942351780736898_);}
	.st32{fill:url(#SVGID_00000095314799825279894660000016461998899871933316_);}
	.st33{fill:url(#SVGID_00000075854084783897550450000007237577567575044746_);}
	.st34{fill:url(#SVGID_00000134956335416440188190000017634027281264325294_);}
	.st35{fill:url(#SVGID_00000007417799276836667820000008934592561603199125_);}
	.st36{fill:url(#SVGID_00000085951613559855380340000015645778616343156903_);}
	.st37{fill:url(#SVGID_00000130644255391173077890000001069711391151045253_);}
	.st38{fill:url(#SVGID_00000047057829433440024510000002715570125632452772_);}
	.st39{fill:url(#SVGID_00000169545662504320852560000013792362570004260542_);}
	.st40{fill:url(#SVGID_00000043420704310578248720000000870380779715670455_);}
	.st41{fill:url(#SVGID_00000105399004621981158450000017178170116928805284_);}
	.st42{fill:url(#SVGID_00000109719848335681904030000010467815929573695877_);}
	.st43{fill:url(#SVGID_00000080197952621297507990000002755531539954198178_);}
	.st44{fill:url(#SVGID_00000101064734154111866640000014945578250564235962_);}
	.st45{fill:url(#SVGID_00000035512914729287895260000018395568146924781500_);}
	.st46{fill:url(#SVGID_00000128458446192423387970000007112438484725444996_);}
	.st47{fill:url(#SVGID_00000001636878645505443640000015872114997994380709_);}
	.st48{fill:url(#SVGID_00000036223637172424262680000008155708403558758536_);}
	.st49{fill:url(#SVGID_00000101821629568297300790000014510967683077261455_);}
	.st50{fill:url(#SVGID_00000023243852284827936370000004233969654383723925_);}
	.st51{fill:url(#SVGID_00000116196547030283512140000011087686479371770518_);}
	.st52{fill:url(#SVGID_00000093894017258226142200000013809164280202336425_);}
	.st53{fill:url(#SVGID_00000146471151745674601080000016496016670974182074_);}
	.st54{fill:url(#SVGID_00000015342048568372875760000003161712543932125072_);}
	.st55{fill:url(#SVGID_00000021107163085078347570000017890722265072806031_);}
	.st56{fill:url(#SVGID_00000035513734395134713590000015807207991376412808_);}
	.st57{fill:url(#SVGID_00000160166261563032868750000000702483809617666459_);}
	.st58{fill:url(#SVGID_00000026131005155428896870000013423453365078110886_);}
	.st59{fill:url(#SVGID_00000009563019538806465120000000079320869672893600_);}
	.st60{opacity:0.4;fill:url(#SVGID_00000181803162577875391590000009135541499155236999_);}
	.st61{fill:url(#SVGID_00000093889216873938242100000003427369667807944369_);}
	.st62{fill:url(#SVGID_00000063634795122923032770000004500266419875731621_);}
	.st63{fill:url(#SVGID_00000067199575942733401860000018182896561225538957_);}
	.st64{fill:url(#SVGID_00000034060992359162391360000018159197512086454440_);}
	.st65{fill:url(#SVGID_00000065786838613237709190000004148674690453604517_);}
	.st66{fill:url(#SVGID_00000119095458964839144090000009948334930216892553_);}
	.st67{fill:url(#SVGID_00000166664391252197034960000011707116374912938387_);}
	.st68{fill:url(#SVGID_00000143605884338008127720000013842950240450356624_);}
	.st69{fill:#AD0000;}
	.st70{fill:url(#SVGID_00000090999561713679922730000016481296111186858922_);}
	.st71{fill:url(#SVGID_00000022543726572356666940000000401483624105544857_);}
	.st72{fill:url(#SVGID_00000180349425206838540070000000484266069064279983_);}
	.st73{fill:url(#SVGID_00000163758525790728843570000004698656924922138039_);}
	.st74{fill:url(#SVGID_00000047779003187711739800000009739198353119636125_);}
	.st75{fill:#BF9184;}
	.st76{fill:none;stroke:#FDD5C8;stroke-miterlimit:10;}
	.st77{fill:url(#SVGID_00000077290039782210049030000010565136467988717243_);}
	.st78{fill:url(#SVGID_00000116956989292879334470000000294141402258869915_);}
	.st79{fill:url(#SVGID_00000129172959045221689640000009640099251304739230_);}
	.st80{fill:url(#SVGID_00000182509907765749071550000003700133636475879606_);}
	.st81{fill:url(#SVGID_00000025429686520315310860000008347695591908575926_);}
	.st82{fill:url(#SVGID_00000150097648824381149750000007347287887736079523_);}
	.st83{fill:url(#SVGID_00000003802074387427024770000014459711275763219871_);}
	.st84{fill:url(#SVGID_00000067202027894826678340000000497604601327284867_);}
	.st85{fill:url(#SVGID_00000107568631482176997320000011606469650574949001_);}
	.st86{fill:url(#SVGID_00000129203580925118166350000002737940357677755297_);}
	.st87{fill:none;stroke:#E0AFA1;stroke-miterlimit:10;}
	.st88{fill:#59767A;}
	.st89{fill:none;}
	.st90{fill:#314042;}
	.st91{fill:url(#SVGID_00000151515153737934124830000001719712937866552216_);}
	.st92{fill:url(#SVGID_00000049206624064696037930000002821966953178077321_);}
	.st93{fill:url(#SVGID_00000070816757009992847910000006118975413043659192_);}
	.st94{fill:url(#SVGID_00000124874676654847653330000014392392660892518026_);}
	.st95{fill:url(#SVGID_00000034798514565900305200000017884498002978345623_);}
	.st96{fill:none;stroke:#99685A;stroke-miterlimit:10;}
	.st97{fill:#F2CEC4;}
	.st98{fill:#E1AFA1;}
	.st99{fill:url(#SVGID_00000106834387578165888310000011394806499740311206_);}
	.st100{fill:url(#SVGID_00000003812336743890815960000015312148928861214385_);}
	.st101{fill:url(#SVGID_00000181073903536270103450000004948313424502656395_);}
	.st102{fill:url(#SVGID_00000026845175079250514760000001252935224429384833_);}
	.st103{fill:url(#SVGID_00000073693589328761285790000017169599463238662807_);}
	.st104{fill:url(#SVGID_00000176764903717811500090000001001907201238504113_);}
	.st105{fill:url(#SVGID_00000060020222704138331470000012700319627941320074_);}
	.st106{fill:url(#SVGID_00000048461965700010181930000012349584376232706446_);}
	.st107{fill:url(#SVGID_00000125567499175220517950000006571333559218303421_);}
	.st108{fill:url(#SVGID_00000052074221900084165850000017935502111518477713_);}
	.st109{fill:#E39F8D;}
	.st110{fill:#C2553C;}
	.st111{fill:url(#SVGID_00000002345855452380966740000015916997350977975737_);}
	.st112{fill:url(#SVGID_00000084488793773973796240000008127684708100343180_);}
	.st113{fill:url(#SVGID_00000140718449187708513980000000172719766822306450_);}
	.st114{fill:#AD4024;}
	.st115{fill:url(#SVGID_00000044160002225028464900000009246113495723945914_);}
	.st116{fill:url(#SVGID_00000129911122253008443420000010247349097814396549_);}
	.st117{fill:url(#SVGID_00000139271788452512927750000015314187560633223837_);}
	.st118{opacity:0.5608;fill:#FFFFFF;}
	.st119{fill:#FFFFFF;}
	.st120{fill:#FFF1ED;}
	.st121{fill:#E6D7D3;}
	.st122{opacity:0.4392;fill:#E0AFA1;}
	.st123{fill:#FFD3C7;}
	.st124{opacity:0.3412;fill:#AAAD66;}
	.st125{opacity:0.2314;fill:#FFFFFF;}
	.st126{fill:#23282B;}
	.st127{fill:none;stroke:#99685A;stroke-linecap:round;stroke-linejoin:round;stroke-miterlimit:10;}
	.st128{fill:#495760;}
	.st129{fill:#353A3E;}
	.st130{fill:#3A474F;}
	.st131{fill:#709EB8;}
	.st132{fill:#8BB0C5;}
	.st133{fill:#31556B;}
	.st134{fill:#4E768F;}
	.st135{fill:#263F4F;}
	.st136{fill:#576975;}
	.st137{fill:none;stroke:#3A474F;stroke-miterlimit:10;}
	.st138{fill:#2F3943;}
	.st139{fill:#C78D7D;}
	.st140{fill:#421D13;}
	.st141{fill:#5E3E35;}
	.st142{fill:#806158;}
	.st143{fill:#EFC3B6;}
	.st144{fill:#C79789;}
	.st145{fill:none;stroke:#EFC3B6;stroke-miterlimit:10;}
	.st146{fill:#69483F;}
	.st147{fill:none;stroke:#806158;stroke-width:3;stroke-linecap:round;stroke-linejoin:round;stroke-miterlimit:10;}
	.st148{fill:#E8E8E8;}
	.st149{fill:#BACAD9;}
	.st150{fill:#694034;}
	.st151{fill:#658F85;}
	.st152{fill:#407065;}
	.st153{fill:#323C42;}
	.st154{fill:#B4CADE;}
	.st155{opacity:0.3294;fill:#C75B63;}
	.st156{fill:none;stroke:#5E3E35;stroke-width:4;stroke-linecap:round;stroke-linejoin:round;stroke-miterlimit:10;}
	.st157{fill:#4C6270;}
	.st158{fill:#7A4A3D;}
	.st159{fill:#252E37;}
	.st160{fill:#3E4852;}
	.st161{fill:none;stroke:#E0AFA1;stroke-linecap:round;stroke-linejoin:round;stroke-miterlimit:10;}
	.st162{fill:#BA8677;}
	.st163{fill:#313B45;}
	.st164{fill:none;stroke:#4E768F;stroke-miterlimit:10;}
	.st165{fill:#193646;}
	.st166{opacity:0.1882;fill:#FFFFFF;}
	.st167{fill:none;stroke:#421D13;stroke-miterlimit:10;}
	.st168{opacity:0.2196;fill:#1390D4;}
	.st169{opacity:0.2392;fill:#027DCF;}
	.st170{opacity:0.3216;fill:#FFFFFF;}
	.st171{fill:#CFCFCF;}
	.st172{fill:url(#SVGID_00000000210679581231308890000000368019646299482776_);}
	.st173{fill:url(#SVGID_00000029727458720229137310000009951921944829135023_);}
	.st174{opacity:0.749;fill:url(#SVGID_00000123411807269730689240000004434953845620032922_);}
	.st175{fill:url(#SVGID_00000183955596306793920490000015596474007785422504_);}
	.st176{fill:url(#SVGID_00000067207249784367244820000011725065832893002400_);}
	.st177{fill:#821111;}
	.st178{fill:url(#SVGID_00000049903292012762266840000013844516143589535369_);}
	.st179{fill:#BC0002;}
	.st180{fill:url(#SVGID_00000144332507087434113730000000942271324778815653_);}
	.st181{fill:url(#SVGID_00000025421494896827914390000008374245223341803913_);}
	.st182{fill:url(#SVGID_00000011718617473261921080000005986341943314201225_);}
</style>
<g>
	<g>
		<path class="st2" d="M1908.73,5.2V5.02C1908.78,5.09,1908.78,5.15,1908.73,5.2z"/>
	</g>
</g>
<g>
	<g>
		<rect class="st0" width="2000" height="1046.98"/>
		<path class="st1" d="M158.48,809.92c-12.15,13.89-24.29,27.77-36.44,41.66c-3.01,3.44-6.18,7.27-6.34,11.84
			c-0.34,10.03,12.33,14.06,21.63,17.85c44.53,18.14,48.31,86.44,91.29,107.99c15.19,7.62,32.96,7.94,49.9,6.62
			c95.39-7.43,180.98-60.69,274.34-81.59c86.37-19.33,176.74-10.32,263.36,7.9c86.61,18.23,171.14,45.5,257.9,63.05
			c38.94,7.88,78.6,13.8,118.28,11.78c45.2-2.29,89.21-14.8,132.43-28.26c41.66-12.98,83.02-26.92,124.03-41.82
			c36.14-13.12,74.5-28.96,94.92-61.53c5.53-8.82,9.59-19.24,7.86-29.51c-1.77-10.46-9.16-18.97-16.5-26.63
			c-85.77-89.55-206.67-144.53-330.53-150.31c-66.77-3.11-133.3,7.46-199.88,13.38c-246,21.91-504.6-17.83-732.63,77.02
			c-36.01,14.98-72.1,34.37-94.38,66.38C171.14,825.2,162.15,837.17,158.48,809.92z"/>
		<path class="st1" d="M1629.79,772.5c54.26,18.46,114.96,26.69,168.28,5.65c15.88-6.27,32.19-16.83,36.08-33.46
			c-25.73-3.59-51.71-7.59-75.68-17.58c-23.97-9.99-46.09-26.69-57.59-49.98c-4.59-9.3-7.76-19.91-15.78-26.48
			c-5.74-4.69-13.21-6.63-20.48-8.07c-16.1-3.19-34.08-4.25-47.69,4.93c-10.21,6.89-16.29,18.57-19.5,30.46
			c-6.9,25.57-1.8,54.1,13.51,75.71C1626.24,775.28,1651.48,789.53,1629.79,772.5z"/>
		<g>
			<path class="st129" d="M451.64,850.76c-2.28,10.09-9.64,19.42-17.13,27.11c-23.91,24.51-52.32,44.2-81.65,61.85
				c-12.47,7.5-27.34,14.89-41.32,8.79c-36.19-26.19-72.38-52.39-108.56-78.59c-43.1-31.19-88.28-65.02-108.03-114.42
				c-4.86-12.16-8.04-25.52-5.44-38.35c0.55-2.72,1.15-5.07,1.93-7.19v-0.04c2.85-7.81,8.07-12.48,22.39-21.53
				c-0.05-0.05-0.11-0.11-0.16-0.16c-8.94-9.03-17.97-18.19-26.23-27.88c-9.79-11.46-18.51-23.68-24.78-37.36
				c-5.61-12.24-8.94-27.21-1.93-38.39c3.17-3.93,7.29-6.97,11.36-9.96c3.65-2.68,7.32-5.38,10.98-8.07
				c5.1-3.76,10.42-7.6,16.86-8.01c24.93,1.83,48.15,13.33,69.18,26.81c21.05,13.49,40.71,29.19,62.75,40.99
				c21.07,11.3,44.09,18.89,64.48,31.38c6.99,4.28,13.8,9.3,18.21,16.2c2.39,3.74,4,7.93,5.73,12.04
				c5.73,13.53,12.99,26.4,21.62,38.3l109.97,115.17C452.64,843.3,452.48,847.08,451.64,850.76z"/>
			<path class="st126" d="M134.97,742.28c10.63,24.94,27.84,46.63,47.43,65.37c19.59,18.74,41.61,34.72,63.57,50.6
				c13.41,9.7,26.83,19.38,40.26,29.05c3.49,2.51,7.18,5.1,11.45,5.57c-28.61-24.35-59.44-45.97-88.37-69.93
				C180.38,798.99,153.06,772.33,134.97,742.28z"/>
			<g>
				<path class="st2" d="M1910.27,682.25c-1.36,4.04-2.95,7.99-4.59,11.85c-1.29,3.02-2.6,5.97-3.88,8.86
					c-1.23,2.19-2.55,4.31-3.96,6.38c-7.8,11.45-18.08,21.13-29.19,29.57c-1.92,1.46-3.87,2.89-5.83,4.27
					c-14.54,10.32-30.35,19.15-47.5,24c-1.74,0.5-3.52,0.95-5.29,1.36c-15.64,3.56-32.05,3.58-45.72-1.68
					c-22.55-3.91-43.65-15.76-58.74-32.97c-15.09-17.21-24.07-39.68-25.01-62.54c-0.17-4.46-0.32-9.49-3.66-12.43
					c-2.77-2.42-7.15-2.75-9.29-5.76c0,0-0.92-25.01-2.67-33.14c-6.4-29.74,5.25-93.91,5.25-93.91c12.28,1.23,28.94,3.13,41.23,4.36
					c0.55,0.05,1.09,0.11,1.64,0.16c3.89,0.38,7.83,0.66,11.69,0.17c2.51-0.31,4.93-0.93,7.29-1.77c5.91-2.08,11.41-5.54,16.74-8.93
					c6.4-4.08,12.81-8.16,19.21-12.23c9.33-5.95,19.33-12.09,30.4-12.16c2.36-0.01,4.77,0.38,7.05,1.13c1.25,0.4,2.44,0.9,3.6,1.5
					c6.64,3.45,11.34,10.03,9.41,17.95c0.12,0.01,0.24,0.03,0.36,0.04c1.66,0.23,3.34,0.44,4.99,0.77c2.28,0.43,4.51,1.03,6.6,2.03
					c3.72,1.76,6.98,4.99,7.69,9.06c0.08,0.01,0.16,0.03,0.24,0.05c0.44,0.08,0.87,0.2,1.3,0.34c5.09,1.54,9.33,5.73,10.83,10.85
					c0.17,0.6,0.34,1.22,0.48,1.87c0.66,2.71,1.29,5.54,3.62,6.83c0.66,0.36,1.37,0.55,2.11,0.62c1.48,0.13,3.05-0.2,4.54-0.5
					c3.77-0.77,7.77-1.22,11.45-0.07c3.68,1.17,6.97,4.34,7.77,7.62c-0.72,10.15-0.32,20.38,1.18,30.44
					c0.13,0.97,0.3,1.92,0.46,2.87c5.64-0.58,11.06,2.95,14.32,7.58c0.23,0.32,0.46,0.66,0.67,0.99c2.82,4.42,4.24,9.61,5.61,14.68
					c1.66,6.17,3.33,12.34,6.35,18.13c0.79,7.45,3.8,14.5,4.94,21.89C1915.53,662.57,1913.53,672.63,1910.27,682.25z"/>
				<path class="st143" d="M1765.76,572.2c-2.64,9.64-4.48,19.89-2.03,29.58c1.45,5.74,4.38,11.15,4.78,17.06
					c0.48,6.97-2.62,13.64-5.81,19.85c-2.27,4.4-4.63,8.77-7.09,13.07c-3.01,5.29-6.34,10.71-11.53,13.89
					c-4.64,2.86-10.24,3.58-15.66,4.21c-9.29,1.09-19.41,1.91-27.33-3.07c-4.19-2.62-7.3-6.62-10-10.75
					c-6.27-9.61-10.71-20.4-13.03-31.62c-0.56-2.78-0.66-6.36,1.87-7.66c1.07-0.55,2.36-0.5,3.57-0.38
					c7.42,0.7,14.67,3.09,21.07,6.9c3.88,2.32,8.04,5.29,12.47,4.36c0.9-0.19,1.81-0.59,2.34-1.34c0.56-0.82,0.56-1.91,0.51-2.9
					c-0.27-5.44-1.18-10.85-2.68-16.07c-1.34-4.67-3.19-9.53-2.08-14.26c0.78-3.29,2.89-6.08,4.83-8.85
					c7.76-11.01,13.57-23.38,17.1-36.39c1.13-4.16,2.01-8.63,0.66-12.74c-0.89-2.7-3.09-5.09-5.66-6.07
					c5.91-2.08,11.41-5.54,16.74-8.93c6.4-4.08,12.81-8.16,19.21-12.23c9.33-5.95,19.33-12.09,30.4-12.16
					c2.36-0.01,4.77,0.38,7.05,1.13c-0.34,3.11-2.58,5.87-4.64,8.35C1784.54,524.71,1772.5,547.71,1765.76,572.2z"/>
				<path class="st96" d="M1744.78,660.95c3.03-5.52,1.75-13.06-2.95-17.26c-2.42-2.17-5.86-3.94-6.18-7.17
					c-0.11-1.08,0.19-2.17,0.16-3.26c-0.14-5.11-7-8.32-6.67-13.43c0.13-2.11,1.54-4.04,1.44-6.15c-0.06-1.14-0.54-2.39,0.07-3.35
					c0.34-0.55,0.96-0.85,1.52-1.18c2.58-1.51,4.51-4.08,5.23-6.98c2.65,6.58,5.52,13.47,11.08,17.86c1.71,1.35,3.67,2.45,5.04,4.15
					c1.4,1.73,2.06,3.91,2.7,6.04c1.2,4,2.4,8,3.6,12c0.54,1.79,1.05,3.82,0.11,5.43c-0.48,0.82-1.26,1.4-2.03,1.95
					c-2.64,1.92-5.28,3.83-7.92,5.75C1747.59,657.08,1745.06,659.01,1744.78,660.95z"/>
				<path class="st4" d="M1809.03,498.36c-6.47,1.21-11.74,6.82-15.87,12.27c-14.05,18.6-24.36,39.7-34.58,60.66
					c-2.91,5.97-5.81,11.95-8.72,17.91c4.99-14.71,9.99-29.42,14.98-44.13c1.26-3.7,2.48-7.95,0.58-11.37
					c-0.24-0.44-0.56-0.89-1.05-1.03c-0.72-0.21-1.44,0.3-2.01,0.78c-5.44,4.48-10.86,8.97-16.3,13.46
					c3.22-6.23,6.43-12.46,9.64-18.67c-12.6,2.78-25.53,4.15-38.46,4.07c-1.58,0-3.48-0.23-4.19-1.65
					c3.89,0.38,7.83,0.66,11.69,0.17c8.78-1.09,16.56-5.96,24.03-10.7c6.4-4.08,12.81-8.16,19.21-12.23
					c9.33-5.95,19.33-12.09,30.4-12.16C1802.04,495.7,1805.77,496.65,1809.03,498.36z"/>
				<path class="st3" d="M1854.17,639.1c-5.63,2.71-10.97,6.01-15.92,9.82c-1.15,0.89-2.41,2.13-2.09,3.55
					c0.3,1.3,1.74,1.92,3.01,2.35c1.73,0.59,3.62,1.17,5.35,0.57c0.9-0.31,1.66-0.92,2.38-1.54c2.11-1.79,4.07-3.76,5.86-5.87
					c0.8-0.94,1.59-1.95,1.84-3.16C1855.03,642.72,1853.87,640.18,1854.17,639.1z"/>
				<path class="st3" d="M1747.2,689.32c0.12,3.69,0.71,7.43,2.34,10.74s4.38,6.18,7.87,7.39c0.38,0.13,0.81,0.24,1.18,0.08
					c0.58-0.26,0.68-1.1,0.37-1.66c-0.31-0.56-0.88-0.9-1.42-1.25C1752.53,701.38,1748.93,696.02,1747.2,689.32z"/>
				<path class="st3" d="M1745.93,665.94c1.26-2.55,3.03-4.84,5.18-6.71c0.76-0.66,1.62-1.3,2.62-1.44c1-0.15,2.16,0.35,2.45,1.32
					c0.29,0.97-0.39,1.99-1.24,2.52c-0.86,0.53-1.87,0.73-2.81,1.09c-2.16,0.83-3.93,2.62-4.75,4.78c-0.21,0.55-0.65,1.27-1.19,1.02
					C1745.82,667.3,1746.22,665.88,1745.93,665.94z"/>
				<path class="st3" d="M1763.73,702.02c0.91,1.29,2.68,1.87,3.35,3.3c0.53,1.12,0.23,2.46-0.19,3.63
					c-1.16,3.27-3.13,6.25-5.7,8.58c0.6,0.53,1.55,0.49,2.26,0.11c0.71-0.38,1.21-1.04,1.67-1.71c1.32-1.93,2.38-4.04,3.12-6.25
					c0.7-2.07,1.01-4.66-0.56-6.18C1766.58,702.42,1764.66,702.03,1763.73,702.02z"/>
				<path class="st3" d="M1848.07,565.85c-0.3-1.39-0.59-2.86-0.12-4.2c0.46-1.34,1.99-2.42,3.3-1.87c0.96,0.4,1.45,1.53,1.4,2.57
					c-0.05,1.04-0.55,2-1.09,2.88c-0.46,0.75-1.04,1.54-1.9,1.73C1848.8,567.16,1847.74,566.33,1848.07,565.85z"/>
				<path class="st143" d="M1910.27,682.25c-1.36,4.04-2.95,7.99-4.59,11.85c-1.29,3.02-2.6,5.97-3.88,8.86
					c-1.23,2.19-2.55,4.31-3.96,6.38c-1.3,1.02-2.62,2.04-3.92,3.03c-5.92,4.54-11.97,9.02-18.74,12.16
					c-7.56,3.52-15.77,5.28-23.92,7.01c-10.86,2.3-21.73,4.58-32.74,5.96c-4.24,0.54-8.75,0.89-12.58-1.02
					c-5.81-2.9-8.19-10.07-13.41-13.96c-1.64-1.22-3.54-2.12-4.87-3.68c-4.07-4.78-0.56-12.91-4.26-18
					c-0.94-1.29-2.3-2.27-3.15-3.62c-1.14-1.8-1.29-4.05-2.03-6.08c-1.68-4.64-6.31-7.69-8.19-12.26
					c-1.73-4.23-0.94-9.33-3.38-13.18c-2.24-3.54-6.62-5.07-9.52-8.09c-3.29-3.44-4.34-8.85-2.56-13.25c1.05-2.63,3.03-5.1,2.7-7.91
					c-0.13-1.14-0.64-2.27-0.39-3.4c0.34-1.5,1.92-2.36,3.37-2.89c13.5-4.97,28.7,0.81,40.4,9.17c4.9,3.52,9.49,7.49,14.75,10.43
					c6.89,3.85,16,11.18,23.73,12.72c5.96,1.19,9.95,0.83,15.93,1.81c6.54,1.06,14.17-1.95,20.23-4.62
					c7.37-3.25,11.6-11.17,18.21-16.71c-4.67,8.43-10.23,16.52-17.54,22.79c-7.3,6.28-16.54,10.66-26.17,10.86
					c-4.05,0.09-8.08-0.55-12.13-0.7c-5.93-0.21-12.15,0.74-16.98,4.19c-4.85,3.46-7.88,9.85-6.12,15.52
					c2.32,7.45,11.19,10.48,18.94,11.28c14.39,1.46,29.17-1.17,42.17-7.52c5.09-2.48,9.91-5.52,15.02-7.97
					c5.29-2.54,10.87-4.44,16.07-7.17C1907.96,683.62,1909.13,682.96,1910.27,682.25z"/>
				<path class="st4" d="M1830.32,651.99c0.13,0.12,0.26,0.24,0.39,0.36c-0.25,1.07,0.72,2.1,1.67,2.83
					c5.08,3.94,11.66,5.56,18.08,5.61c6.42,0.06,12.77-1.34,19-2.89c4.47-1.12,8.99-2.35,12.92-4.74
					c8.34-5.07,12.83-14.47,16.97-23.01c-3.45,6.84-7.01,13.71-11.91,19.59c-4.91,5.88-11.32,10.78-18.78,12.56
					c-1.75,0.42-3.57,0.67-5.14,1.55c-1.57,0.88-2.85,2.59-2.56,4.36c0.12,0.71,0.47,1.37,0.55,2.09c0.19,1.8-1.51,3.34-3.29,3.66
					c-1.78,0.31-3.58-0.27-5.29-0.85c-7.71-2.61-15.43-5.21-23.14-7.82c-4.17-1.41-8.74-2.82-12.88-1.31
					c-1.78,0.65-3.32,1.8-4.81,2.96c-6.04,4.71-11.85,10.06-19.09,12.57c-0.65,0.23-1.42,0.42-2,0.04
					c-0.35-0.22-0.55-0.61-0.74-0.98c-3.19-6.17-6.38-12.34-9.56-18.52c-0.37-0.72-0.76-1.5-0.64-2.3c0.34-2.46,4.85-3.33,4.14-5.71
					c-0.15-0.49-0.51-0.87-0.87-1.23c-4.54-4.45-10.69-7.03-15.06-11.64c-5.29-5.58-7.38-13.47-11.87-19.71
					c-3.53-4.89-8.44-8.64-12.07-13.45c-0.5-0.66-0.98-1.37-1.09-2.19c-0.3-2.22,2.21-3.8,4.43-4.11c4.99-0.71,9.83,1.72,14.23,4.17
					c12.51,6.98,24.56,14.77,36.06,23.31c2.2,1.63,4.41,3.31,6.94,4.34c2.47,1,5.15,1.36,7.79,1.66c3.52,0.4,7.11,0.76,10.33,2.23
					s6.06,4.29,6.52,7.8c0.25,1.94-0.23,3.89-0.18,5.85C1829.43,651.03,1830.25,653.21,1830.32,651.99z"/>
				<path class="st3" d="M1680.77,561.06c10.01,9.66,20.12,19.45,27.5,31.24c2.04,3.27,3.9,7.39,2.14,10.82
					c-0.21,0.41-0.52,0.83-0.98,0.91c-0.59,0.09-1.07-0.43-1.44-0.9c-8.88-11.4-17.76-22.81-26.64-34.21
					c-0.99-1.27-2.01-2.59-2.45-4.14C1678.46,563.23,1678.71,561.36,1680.77,561.06z"/>
				<path class="st4" d="M1905.68,694.1c-1.29,3.02-2.6,5.97-3.88,8.86c-8.07,14.3-20.04,25.97-33.15,35.95
					c-1.92,1.46-3.87,2.89-5.83,4.27c-14.54,10.32-30.35,19.15-47.5,24c-1.74,0.5-3.52,0.95-5.29,1.36
					c-1.99-0.38-3.97-0.79-5.93-1.28c-21.61-5.28-41.25-16.74-58.98-30.15c-35.87-27.15-66.48-69.25-77.8-109.13
					c-1.28-4.51-8.44-16.2-4.4-21.22c16.82,12.11,44.07,32.55,57.05,48.71c3.41,4.26,8.09,9.14,13.34,7.65
					c4.44-1.28,6.4-6.86,5.36-11.36c-1.06-4.51-4.24-8.15-7.23-11.66c-0.95-1.13-1.92-2.3-2.47-3.66c-0.5-1.28-0.6-2.66-0.78-4.01
					c-0.78-6.05-2.91-11.93-6.2-17.09c-1.48-2.3-3.21-4.52-3.81-7.19c-0.62-2.66,0.35-5.93,2.9-6.91c1.07-0.42,2.28-0.36,3.36-0.77
					c2.32-0.85,3.42-3.4,4.66-5.53c2.27-3.95,5.72-7.21,9.79-9.23c0.74-0.36,1.58-0.7,2.36-0.43c0.71,0.26,1.15,0.94,1.53,1.6
					c1.93,3.48,3.17,7.33,3.6,11.29c0.44,4.12,0.08,8.5,2.03,12.16c2.54,4.79,8.2,6.86,12.3,10.43c4.47,3.89,7.07,9.84,6.9,15.76
					c-0.19,5.93-3.14,11.72-7.84,15.33c-1.84,1.42-3.92,2.51-5.88,3.76c-14.38,9.14-22.05,27.72-18.31,44.34
					c2.04,9.07,7.64,17.76,16.16,21.5c6.87,3.01,15.38,2.35,21.36-2.17c5.99-4.54,8.95-12.91,7.45-21.32
					c10.17,14.42,27.38,23.6,45.01,24.04c8.21,0.2,16.36-1.37,24.42-2.94c9.4-1.83,18.83-3.66,27.8-7.02
					C1888.19,708.12,1897.93,702.09,1905.68,694.1z"/>
				<path class="st4" d="M1806.91,566.46c0.51,4.91,4.54,9,9.24,10.5c0.57,0.18,1.27,0.47,1.3,1.08c0.03,0.53-0.51,0.9-0.98,1.14
					c-3.29,1.69-7.55,2.69-10.48,0.44c-1.21-0.93-2.02-2.29-2.69-3.66c-1.73-3.54-2.59-8.27,0.21-11.03
					C1804.17,564.28,1806.58,563.3,1806.91,566.46z"/>
				<path class="st4" d="M1823.8,517.11c-4.15,6.43-10.32,11.56-17.41,14.43c5.18-4.09,9.44-9.32,12.42-15.19
					C1820.47,516.57,1822.15,516.79,1823.8,517.11z"/>
				<path class="st4" d="M1856.68,548.75c-4.42,5.8-8.85,11.6-13.28,17.4c-0.16,0.23-0.35,0.47-0.62,0.56
					c-1.01,0.38-1.44-1.19-1.53-2.26c-0.34-3.77-4.74-6.56-8.3-5.28c2.11-1.44,4.23-2.87,6.34-4.31c2.83-1.91,5.69-3.85,7.89-6.46
					c1.74-2.07,3.03-4.51,3.76-7.11c0.66,2.71,1.29,5.54,3.62,6.83C1855.23,548.49,1855.94,548.68,1856.68,548.75z"/>
				<path class="st4" d="M1873.66,560.05c-6.07,6.12-15.14,9.12-23.67,7.83c-1.26-0.19-2.76-0.4-3.62,0.55
					c-1.12,1.23-0.14,3.21,1.06,4.36c2,1.92,4.58,3.22,7.31,3.69c1.32,0.23,2.75,0.25,3.95-0.35c1.71-0.85,2.65-2.77,4.29-3.74
					c2.97-1.76,6.64,0.19,10.02,0.93c0.56,0.12,1.14,0.21,1.7,0.1c1.06-0.2,1.88-1.05,2.41-1.99c2.08-3.73,0.2-8.35-1.68-12.19
					C1873.73,559.79,1872.33,561.19,1873.66,560.05z"/>
				<path class="st5" d="M1868.64,738.91c-1.92,1.46-3.87,2.89-5.83,4.27c-14.54,10.32-30.35,19.15-47.5,24
					c-17.15,4.85-35.79,5.53-51.01-0.32c-22.55-3.91-43.65-15.76-58.74-32.97c-15.09-17.21-24.07-39.68-25.01-62.54
					c-0.17-4.46-0.32-9.49-3.66-12.43c-2.77-2.42-7.15-2.75-9.29-5.76l-2.34-33.14c9.44,6.59,22.91,15.53,32.35,22.12
					c11.8,8.24,24.79,18.56,25.29,32.95c0.19,5.1-1.32,10.19-0.87,15.28c0.78,9.07,7.44,16.42,14.04,22.68
					c20.71,19.62,46.11,36.59,74.6,38.31C1830.62,752.56,1849.84,746.25,1868.64,738.91z"/>
				<path class="st4" d="M1863.32,561.01c1.65-1.94,3.06-4.09,4.2-6.37c0.43-0.86,0.79-1.97,0.19-2.73
					c-0.25-0.32-0.64-0.5-1.01-0.66c-1.92-0.8-4.12-1.19-6.07-0.48c-1.95,0.71-3.51,2.76-3.14,4.8c0.24,1.33,1.18,2.4,1.9,3.55
					C1860.1,560.27,1860.61,561.76,1863.32,561.01z"/>
				<path class="st4" d="M1876.47,594.34c0.24,3.08,0.93,6.12,2.07,8.99c-2.11-0.41-4.41,0.42-5.77,2.08
					c-0.66,0.81-1.2,1.86-2.21,2.16c-1.27,0.37-2.47-0.66-3.62-1.31c-1.57-0.89-3.44-1.13-5.05-1.96c-1.61-0.83-2.98-2.68-2.32-4.37
					c0.37-0.94,1.28-1.55,2.19-2.01c1.91-0.96,4.02-1.52,6.16-1.61c1.56-0.07,3.17,0.1,4.63-0.44c1.46-0.55,2.7-2.15,2.16-3.62
					C1875.62,593,1876.44,593.98,1876.47,594.34z"/>
				<path class="st4" d="M1743.37,687.4c1.58-2.91,3.16-5.83,4.74-8.74c0.32-0.59,0.65-1.21,0.71-1.89c0.06-0.67-0.23-1.43-0.85-1.7
					c-0.38-0.17-0.83-0.13-1.24-0.07c-3.19,0.52-6.02,2.82-7.19,5.83c-0.19,0.49-0.26,1.19,0.22,1.41c1.06-0.95,2.13-1.9,3.19-2.84
					c0.21-0.19,0.46-0.39,0.74-0.35c0.55,0.07,0.57,0.86,0.39,1.39c-0.45,1.33-1.18,2.55-1.58,3.9S1742.09,687.27,1743.37,687.4z"/>
				<path class="st4" d="M1762.49,697.2c-2.9-0.29-5.73-1.36-8.09-3.07c-1.08-0.78-2.14-1.73-3.45-1.98
					c-0.41-0.08-0.91-0.05-1.16,0.28c-0.23,0.31-0.15,0.74-0.02,1.1c0.54,1.47,1.84,2.57,3.26,3.22c1.43,0.65,2.99,0.92,4.54,1.18
					c1.45,0.24,2.9,0.49,4.34,0.73c0.3,0.05,0.64,0.09,0.89-0.09C1763.05,698.39,1763.03,697.9,1762.49,697.2z"/>
				<path class="st4" d="M1756.4,673.54c-0.65,2.8-1.45,5.85-3.78,7.53c-0.74,0.54-1.61,0.9-2.26,1.54
					c-1.06,1.02-1.42,2.71-0.87,4.08c-1.28-0.7-1.33-2.54-0.87-3.93c0.57-1.74,1.68-3.29,3.14-4.4c1.03-0.78,2.29-1.43,2.76-2.63
					c0.19-0.47,0.23-0.99,0.45-1.45C1755.19,673.83,1755.69,673.44,1756.4,673.54z"/>
				<path class="st4" d="M1854.4,636.12c-0.18,0-0.37-0.08-0.5-0.22c-0.25-0.28-0.22-0.7,0.05-0.95c5.38-4.82,9.02-11.69,9.98-18.86
					c0.05-0.37,0.39-0.62,0.75-0.58c0.37,0.05,0.63,0.39,0.58,0.75c-1,7.47-4.8,14.65-10.42,19.68
					C1854.72,636.07,1854.56,636.12,1854.4,636.12z"/>
				<path class="st4" d="M1858.29,636.03c-0.69,0-1.38-0.04-2.06-0.12c-0.37-0.04-0.63-0.37-0.59-0.74
					c0.04-0.37,0.39-0.63,0.74-0.59c5.15,0.58,10.63-1.33,14.3-4.98c0.26-0.26,0.69-0.26,0.95,0c0.26,0.26,0.26,0.69,0,0.95
					C1868.1,634.06,1863.23,636.03,1858.29,636.03z"/>
				<path class="st4" d="M1863.03,638.17c-2.42,0-4.81-0.37-6.91-0.69c-0.37-0.06-0.62-0.4-0.56-0.77c0.06-0.37,0.41-0.62,0.77-0.56
					c3.82,0.59,8.15,1.26,11.98-0.16c2.91-1.08,5.3-3.27,7.68-5.61c0.27-0.26,0.69-0.25,0.95,0.01c0.26,0.26,0.26,0.69-0.01,0.95
					c-2.49,2.45-4.99,4.74-8.16,5.91C1866.92,637.93,1864.96,638.17,1863.03,638.17z"/>
				<path class="st4" d="M1878.64,624.51c-0.36-0.99-0.2-2.09-0.26-3.14c-0.07-1.05-0.49-2.23-1.49-2.59
					c-1.16-0.42-2.46,0.65-2.63,1.87c-0.18,1.22,0.48,2.42,1.33,3.31C1876.08,624.48,1876.67,624.95,1878.64,624.51z"/>
				<path class="st4" d="M1839.64,528.59c-0.51,2.15-1.25,4.24-2.17,6.27c-3.37,7.37-9.06,13.21-14.56,18.83
					c-0.13,0.13-0.31,0.2-0.48,0.2c-0.16,0-0.34-0.05-0.46-0.19c-0.27-0.26-0.28-0.68-0.01-0.94c5.41-5.56,11.02-11.3,14.3-18.46
					c0.9-1.96,1.6-3.99,2.09-6.05C1838.78,528.33,1839.21,528.45,1839.64,528.59z"/>
				<path class="st5" d="M1741.62,686.84c-1.54,4.76-3.09,9.84-1.85,14.69c0.91,3.53,3.27,6.59,6.2,8.76
					c2.93,2.17,6.41,3.51,9.95,4.35c0.78,0.19,1.69,0.33,2.32-0.18c0.77-0.61,0.67-1.85,0.21-2.72c-1.43-2.73-4.93-3.4-7.66-4.82
					c-5.15-2.68-8-8.95-7.12-14.69c0.29-1.91,0.95-3.87,0.44-5.73C1742.96,686.33,1741.74,686.79,1741.62,686.84z"/>
				<path class="st5" d="M1756.67,673.23c2.11-0.34,4.38,0.71,5.49,2.54c0.53,0.88,0.8,1.9,1.01,2.91c0.35,1.67,0.55,3.44,0.01,5.06
					c-0.16,0.48-0.39,0.97-0.31,1.48c0.05,0.37,0.27,0.7,0.49,1c0.92,1.24,2.12,2.27,3.49,2.99c0.74,0.39,1.61,0.69,2.39,0.39
					c0.61-0.23,1.04-0.81,1.24-1.43c0.48-1.5-0.29-3.13-1.32-4.33s-2.32-2.16-3.21-3.46c-1.39-2.02-1.64-4.62-1.57-7.07
					c0.02-0.58,0.05-1.18-0.15-1.73c-0.45-1.25-1.97-1.84-3.29-1.66S1758.47,670.88,1756.67,673.23z"/>
				<path class="st5" d="M1755,688.35c3.47,1.95,6.93,3.9,10.4,5.86c0.73,0.41,1.47,0.83,2.11,1.38c0.88,0.76,1.53,1.75,2.06,2.79
					c1.5,2.93,2.09,6.33,1.55,9.57c-0.65,3.95-2.87,7.45-5.03,10.82c4.26-2.44,7.29-6.91,7.97-11.77c0.68-4.86-0.99-10-4.41-13.51
					c-3.05-3.14-7.21-4.9-11.29-6.49c-0.79-0.31-1.75-0.6-2.43-0.09C1755.26,687.42,1755.83,688.89,1755,688.35z"/>
				<path class="st5" d="M1760.94,723.61c-8.61,0-17.03-5.04-21.61-11.83c-2.98-4.42-4.63-10.14-4.9-16.98
					c-0.95-24.51,11.58-32.71,11.16-32.14c-6.78,9.24-10.26,20.64-9.82,32.09c0.26,6.59,1.83,12.06,4.67,16.28
					c5.5,8.15,16.87,12.09,27.04,9.38c2.32-0.62,4.15-1.44,5.6-2.53c5.35-4.01,7.8-14.24,7.8-14.24s-0.36,10.11-7,15.65
					c-1.52,1.27-3.57,2.43-6.05,3.09C1765.56,722.98,1763.24,723.61,1760.94,723.61z"/>
				<path class="st5" d="M1857.45,563.4c3.16-0.48,6.01-2.64,7.31-5.56c0.44-0.98,0.71-2.06,0.52-3.11
					c-0.19-1.05-0.9-2.05-1.93-2.35c-1.02-0.3-2.29,0.29-2.53,1.34c-0.3,1.33,1,2.47,1.32,3.8c0.28,1.15-0.22,2.37-1.01,3.25
					C1860.34,561.65,1859.29,562.24,1857.45,563.4z"/>
				<path class="st5" d="M1849.44,568.93c-0.68,0.59-0.96,1.55-0.87,2.44c0.09,0.89,0.5,1.73,1.03,2.45
					c0.82,1.14,1.97,2.08,3.33,2.43c1.36,0.35,2.93,0.02,3.87-1.01c0.07-0.07,0.13-0.15,0.14-0.25c0.02-0.19-0.16-0.34-0.33-0.42
					c-0.99-0.5-2.18-0.36-3.22-0.72C1851.33,573.14,1850.4,570.81,1849.44,568.93z"/>
				<g>
					<path class="st5" d="M1876.22,630.41c0.5-1.23,0.08-2.61-0.23-3.9c-0.31-1.29-0.46-2.8,0.42-3.79
						c0.12-0.14,0.27-0.26,0.44-0.33c0.38-0.15,0.81,0.01,1.12,0.26c1.12,0.9,0.99,2.64,0.56,4.02
						C1878.09,628.1,1877.43,629.46,1876.22,630.41z"/>
					<path class="st5" d="M1874.65,632.5l0.95-2.34c0.37-0.92,0.09-2.05-0.18-3.15l-0.08-0.34c-0.48-1.99-0.29-3.42,0.57-4.4
						c0.21-0.24,0.44-0.41,0.69-0.51c0.56-0.22,1.23-0.08,1.79,0.37c1.15,0.93,1.43,2.65,0.78,4.74c-0.59,1.87-1.39,3.17-2.54,4.07
						L1874.65,632.5z M1877.16,623c-0.02,0-0.05,0-0.06,0.01c-0.03,0.01-0.09,0.04-0.18,0.15c-0.55,0.62-0.64,1.66-0.27,3.19
						l0.08,0.33c0.13,0.54,0.28,1.12,0.35,1.71c0.32-0.54,0.59-1.18,0.82-1.93c0.18-0.56,0.67-2.47-0.35-3.29
						C1877.4,623.06,1877.25,623,1877.16,623z"/>
				</g>
				<path class="st5" d="M1871.45,630.89l-0.91-0.98c0.87-0.97,1.21-2.41,0.85-3.67c-0.07-0.25-0.17-0.51-0.26-0.76
					c-0.35-0.97-0.79-2.17-0.1-3.23l0.47-0.71l0.58,0.62c1.12,1.18,1.68,2.84,1.56,4.54
					C1873.51,628.39,1872.73,629.88,1871.45,630.89z"/>
				<path class="st143" d="M1897.07,597.7c-0.32-0.01-0.64,0.03-0.97,0.11c-0.81,0.21-1.49,0.7-2.23,1.09
					c-3.26,1.72-7.54,1.26-10.39-1.1c0-1.22-0.32-2.42-0.64-3.61c-0.42-1.56-0.85-3.11-1.26-4.67c-0.24-0.89-0.48-1.84-0.21-2.71
					c0.05-0.2,0.15-0.38,0.26-0.55c0.13,0.97,0.3,1.92,0.46,2.87c5.64-0.58,11.06,2.95,14.32,7.58
					C1896.63,597.03,1896.86,597.36,1897.07,597.7z"/>
				<path class="st143" d="M1891.84,628.63c1.6-3.16,1.97-6.93,1.01-10.34c-0.96-3.41-3.24-6.43-6.25-8.3
					c-0.53-0.33-1.17-0.63-1.75-0.42c-0.33,0.12-0.59,0.39-0.8,0.67c-1.28,1.72-1.24,4.15-0.46,6.15c0.78,2,2.18,3.69,3.52,5.36
					C1888.43,623.44,1889.76,625.2,1891.84,628.63z"/>
			</g>
			<g>
				<path class="st128" d="M1162.24,766.22c-0.16,0.89-0.34,1.76-0.51,2.64c-3.3,17.11-7.26,34.72-18.19,48.23
					c-11.81,14.62-30.03,22.23-47.57,28.95c-12.01,4.59-24.16,9.06-36.78,11.56c-32.94,6.51-68.09-1.05-94.34-19.4
					c-35.8-23.72-63.99-57.03-91.34-90.13c-53.74-65.02-106.3-131.03-156.77-199.17c-7.45,32.52-24.2,62.34-44.63,88.72
					c-20.43,26.38-44.55,49.64-68.56,72.81c-11.8,11.37-23.6,22.75-35.4,34.12c-7.56,7.29-15.23,14.75-20.07,24.05
					c-6.12,11.8-7.4,26.04-15.62,36.47c-4.98,6.31-12.07,10.59-19.3,14.12c-10.21,4.98-21.03,8.72-32.15,11.13
					c-2.67,0.58-5.5,1.14-7.57,2.95c-2.3,2.04-3.17,5.23-4.99,7.72c-4.62,6.23-13.72,6.34-21.46,5.85
					c-14.56-0.91-30.15-2.2-38.97-8.99c-16.2-10.89-31.54-23.02-45.87-36.28c-4.21-3.89-8.4-7.99-10.97-13.13
					c-4.15-8.34-3.41-18.05-3.58-27.52c-0.13-6.28-0.66-12.46-3.32-18.05c-2.54-5.36-6.81-9.66-10.82-14.01
					c-8.64-9.4-16.47-19.54-23.36-30.3c-3.73-5.85-7.26-12.04-8.4-18.89c-1.14-6.85,0.51-14.51,5.74-19.07
					c2.13-1.85,4.85-3.22,6.17-5.72c2.66-4.95-1.53-10.75-1.84-16.36c-0.36-6.75,5.1-12.54,11.14-15.57
					c6.04-3.02,12.86-4.16,19.05-6.87c6.19-2.71,12.11-7.77,12.78-14.5c0.44-4.44-1.49-8.87-1.02-13.3
					c0.77-7.17,7.3-12.09,13.26-16.12c4.51-3.05,9.03-6.11,13.17-8.2c37.22-53.91,74.44-107.81,111.66-161.72
					c6.75-9.77,13.53-19.6,18.93-30.19c9.54-18.71,14.64-39.52,25.01-57.79c13.53-23.89,35.5-42.21,59.8-54.99
					c24.3-12.77,50.98-20.35,76.28-26.75c22.9,1.56,45.64,5.41,67.79,11.45c9.38,2.56,18.68,5.53,27.58,9.45
					c9.06,3.99,17.66,8.94,26.05,14.19C852.83,304.89,901.6,356.75,949.65,408c11.85,12.64,23.7,25.29,35.56,37.93
					c9.68,10.32,19.83,21.57,21.85,35.58c4.59-6.21,10.6-11.38,16.11-14.55c41.6,94.52,99.8,181.14,138.05,274.23
					C1165.33,748.67,1163.84,757.83,1162.24,766.22z"/>
				<path class="st136" d="M760.74,334.97c-9.96,3.76-21.19,9.39-23.1,19.86c-1.62,8.92,4.39,17.26,10.06,24.33
					c49.06,61.15,99.22,122.16,159.57,172.2c13.73,11.38,29.81,22.75,47.58,21.26c4.36-0.37,9.42-2.27,10.33-6.55
					c0.49-2.31-0.4-4.67-1.4-6.81c-5.44-11.59-14.37-21.13-23.42-30.19c-42.41-42.5-91.31-80.46-120.45-132.96
					c-9.83-17.7-17.23-36.8-28.72-53.47c-2.81-4.07-6.01-8.12-10.45-10.3C773.05,328.56,763.88,331.29,760.74,334.97z"/>
				<path class="st136" d="M351.55,758.77c0.16-12.67,5.93-25.18,15.47-33.53c3.66-3.2,7.88-5.86,10.82-9.73
					c2.96-3.9,4.4-8.73,6.81-12.99c5.82-10.31,16.69-16.49,26.06-23.71c27.13-20.91,43.41-52.54,58.84-83.12
					c14.73-29.2,29.47-58.4,44.2-87.6c10.66-21.13,21.36-42.37,28.54-64.91c5.45-17.12,8.88-35,16.68-51.19
					c9.1-18.85,23.66-34.42,38.04-49.63c5.28-5.58,10.62-11.21,17-15.51c24.01-16.17,57.71-10.54,82.18-26
					c2.41-1.52,4.98-3.91,4.39-6.7c-0.4-1.89-2.14-3.15-3.84-4.08c-16.47-8.96-36.71-1.58-53.83,6.07
					c-21.69,9.7-43.67,20.03-60.74,36.56c-14.34,13.88-24.49,31.42-34.45,48.72c-41.21,71.58-82.42,143.16-123.62,214.75
					c-12.42,21.58-24.89,43.22-40.02,62.99c-16.92,22.1-37.61,42.66-45.5,69.36c-1.92,6.48-3,13.5-0.93,19.93
					C339.74,754.86,345.72,760.4,351.55,758.77z"/>
				<path class="st136" d="M680.55,303.88c61.05,2.99,121.96,19.6,173.72,52.12c16,10.05,31.04,21.54,46.05,33.01
					c9.05,6.91,18.11,13.84,26.42,21.62c14.27,13.36,26.19,29.14,41.08,41.81c10.71,9.12,22.79,16.48,35.02,23.41
					C960.5,444.03,926,403.08,886.76,367.5s-85.82-66.78-138.5-72.23c-10.17-1.05-20.41-1.12-30.59-2.08
					c-13.89-1.3-29.63-3.74-40.32,5.23C678.71,299.43,680.07,300.43,680.55,303.88z"/>
				<path class="st136" d="M688.19,457.1c-17.34-7.6-34.96-15.38-49.33-27.7c3.73-2.41,8.66-1.27,12.81,0.29
					C666.44,435.27,679.45,445.42,688.19,457.1z"/>
				<path class="st136" d="M335.14,618.56c8.79,14.91,14.51,31.64,16.55,48.82c-4.63,2.19-9.81-1.54-13.34-5.26
					c-9.41-9.88-16.97-21.52-22.23-34.11"/>
				<path class="st130" d="M1161.73,768.87c-3.3,17.11-7.26,34.72-18.19,48.23c-11.81,14.62-30.03,22.23-47.57,28.95
					c-12.01,4.59-24.16,9.06-36.78,11.56c-32.94,6.51-68.09-1.05-94.34-19.4c-35.8-23.72-63.99-57.03-91.34-90.13
					c-53.74-65.02-106.3-131.03-156.77-199.17c-7.45,32.52-24.2,62.34-44.63,88.72c-20.43,26.38-44.55,49.64-68.56,72.81
					c-11.8,11.37-23.6,22.75-35.4,34.12c-7.56,7.29-15.23,14.75-20.07,24.05c-6.12,11.8-7.4,26.04-15.62,36.47
					c-4.98,6.31-12.07,10.59-19.3,14.12c-10.21,4.98-21.03,8.72-32.15,11.13c-2.67,0.58-5.5,1.14-7.57,2.95
					c-2.3,2.04-3.17,5.23-4.99,7.72c-4.62,6.23-13.72,6.34-21.46,5.85c-14.56-0.91-30.15-2.2-38.97-8.99
					c-16.2-10.89-31.54-23.02-45.87-36.28c-4.21-3.89-8.4-7.99-10.97-13.13c-4.15-8.34-3.41-18.05-3.58-27.52
					c22.87,17.14,45.76,34.27,68.63,51.4c9.44,7.07,22.89,14.17,31.97,6.67c6.86-5.65,5.29-18.39-2.71-22.21
					c10.16-0.09,20.32-0.19,30.48-0.28c2.95-6.97-1.53-14.95-7.15-20.03c-5.62-5.06-12.59-8.81-16.91-15.03
					c-4.31-6.21-4.43-16.43,2.3-19.91c8.34-4.32,16.79,4.82,24.44,10.27c12.52,8.93,29.96,8.34,44.07,2.21
					c14.11-6.12,25.57-16.95,36.4-27.89c40.13-40.54,75.92-85.4,106.54-133.54c19.61-30.83,37.7-65.95,32.81-102.16
					c-2.93-21.62-13.81-41.23-24.07-64.11c63.21,24.46,106.07,82.64,144.34,138.58c38.28,55.92,78.59,115.17,139.96,143.91
					c23.96,11.23,49.99,17.17,75.8,23.03c35.79,8.12,76.7,15.32,106.42-6.23C1148.23,739.85,1155.17,754.26,1161.73,768.87z"/>
				<path class="st130" d="M346.54,749.74c0.46,0.05,0.91,0.11,1.38,0.13c-2.04-16.34,5.3-33.5,18.52-43.32
					c4.39-3.26,9.58-5.99,12.09-10.86c2.19-4.24,1.92-9.38,3.93-13.69c3.69-7.92,13.36-10.51,21.26-14.2
					c19.95-9.34,32.3-29.41,43.13-48.59c39.81-70.4,75.01-143.42,105.3-218.43c4.91-12.17,9.74-24.48,16.79-35.56
					c17.13-26.89,46.11-44.32,72.99-54.78c27.57-14.21,60.55-12.81,91.05-7.18c69.48,12.81,135.03,46.12,186.35,94.67
					c28.59,27.06,53.25,59.02,86.72,79.76c-38.75-41.81-77.5-83.62-118.05-123.69c-19.29-19.07-39.1-37.84-61.68-52.87
					c-37.17-24.75-81.76-38.77-126.4-37.58c-44.63,1.18-89.05,17.93-121.97,48.09c-16.05,14.71-29.21,32.26-42.13,49.79
					c-13.14,17.8-26.17,35.7-38.12,54.34c-32.91,51.3-57.34,107.8-74.86,166.16c-4.99,16.62-12.55,36.38-29.65,39.28
					c-12.47,2.12-27.26-5.73-36.94,2.42c15.81,17.28,14.87,47.18-1.97,63.44c-5.79-12.01-17.89-20.74-31.13-22.42
					c3.5,11.93,6.13,24.12,7.88,36.43c-6.19,2.55-11.97-3.85-16.82-8.46c-2.46-2.34-6.32-3.95-9.69-4.07"/>
				<path class="st135" d="M1194.5,712c-2.78,11.73-7.03,23.45-16.16,31.1c-3.33,2.79-7.17,4.91-11.05,6.89
					c-3.53,1.8-7.13,3.52-10.83,4.93c-2.21,0.86-4.48,1.6-6.79,2.2c-0.77,0.19-1.53,0.38-2.3,0.54c-6.98,1.48-14.44,1.41-21.06-1.26
					c-3.3-1.33-6.36-3.36-8.83-5.92l-0.01-0.01c0-0.01,0-0.04-0.01-0.05c-0.21-0.5-0.42-0.98-0.62-1.48
					c-0.2-0.48-0.39-0.98-0.58-1.48c-0.19-0.51-0.38-1.03-0.55-1.56c-0.12-0.38-0.23-0.75-0.34-1.13c-0.04-0.11-0.07-0.21-0.09-0.32
					c-0.09-0.35-0.19-0.71-0.27-1.07c-0.07-0.32-0.15-0.66-0.2-0.99c-0.07-0.34-0.12-0.67-0.17-1.02
					c-0.78-5.49,0.63-11.26,3.7-15.89c0.31-0.4,0.62-0.81,0.75-1.18c0.59,0.99,1.18,1.99,1.74,2.98c0.08,0.12,0.15,0.26,0.21,0.38
					c0.4,0.68,0.78,1.37,1.15,2.07c0.56,1.03,1.11,2.08,1.65,3.14c0.35,0.67,0.68,1.34,1.01,2.01c0.13,0.23,0.24,0.46,0.34,0.68
					c0.58,1.14,1.11,2.3,1.62,3.46c0.42,0.94,0.82,1.88,1.21,2.83c0.32,0.77,0.63,1.53,0.93,2.31c0.26,0.64,0.5,1.29,0.74,1.93
					c0.16,0.46,0.32,0.91,0.48,1.38c0.19,0.52,0.36,1.05,0.55,1.58c0.24,0.74,0.47,1.46,0.7,2.2c5.05,0.12,10.09-0.47,14.99-1.69
					c1.95-0.48,3.88-1.07,5.77-1.76c12.05-4.34,22.75-12.52,29.69-23.32c1.57-2.43,2.99-5.21,2.56-7.97
					c-2.55-5.36-3.17-11.62-1.76-17.7c3.99,4.52,7.96,9.05,11.41,13.18C1194.23,711.98,1194.36,711.98,1194.5,712z"/>
			</g>
			<g>
				<path class="st2" d="M1086.32,428.34c-2,5.53-4.44,10.91-7.3,16.05c-4.08,7.32-9.32,14.44-16.87,18.05
					c-7.54,3.62-16.86,1.87-20.23-1.7c-0.6-0.64-1.22-1.26-1.85-1.85c-7.7-7.33-17.7-11.92-27.69-15.74
					c-10.81-4.13-21.99-7.6-31.83-13.66c-3.23-2-6.38-4.34-8.43-7.52c-0.86-1.34-1.5-2.87-1.84-4.44c-0.35-1.64-0.36-3.33,0.05-4.93
					c0.13-0.5,0.31-0.99,0.54-1.48c0.35-0.75,0.82-1.48,1.33-2.17c1.05-1.46,2.27-2.85,3.03-4.36c0.52-0.99,0.85-2.04,0.78-3.19
					c-0.01-0.32-0.07-0.63-0.15-0.93c-0.08-0.35-0.19-0.68-0.31-1.02c-0.05-0.17-0.12-0.34-0.2-0.5c-0.27-0.66-0.59-1.29-0.89-1.93
					c-0.08-0.17-0.15-0.36-0.23-0.54c-0.68-1.65-1.01-3.42-0.98-5.21v-0.01c0-0.12,0-0.25,0.01-0.38c0-0.23,0.01-0.46,0.04-0.68
					c0.09-1.07,0.31-2.13,0.63-3.17c0.39-1.23,0.95-2.43,1.68-3.5c0.64-0.99,1.44-1.89,2.34-2.67c0.34-0.28,0.68-0.56,1.02-0.83
					l0.01-0.01c0.72-0.59,1.42-1.18,1.93-1.96c0.44-0.68,0.7-1.41,0.81-2.17c0.12-0.81,0.08-1.64-0.04-2.48
					c-0.28-2.19-1.09-4.48-1.14-6.7v-0.01c-0.03-0.72,0.03-1.44,0.2-2.13c0.13-0.54,0.34-1.03,0.58-1.49
					c0.56-1.05,1.37-1.93,2.34-2.72c1.84-1.5,4.16-2.67,6.26-4.01c0,0,0.01-0.01,0.03-0.01c2.19-1.41,4.08-3.03,4.75-5.45
					c0.12-0.44,0.19-0.9,0.23-1.36c0.13-1.6-0.12-3.25-0.07-4.86c0.01-0.5,0.07-0.97,0.17-1.45v-0.01c0-0.08,0.03-0.16,0.04-0.24
					c0.27-1.14,0.81-2.11,1.5-2.93c1.22-1.38,2.97-2.36,4.91-2.98c2.08-0.7,4.4-0.99,6.54-1.03c10.77-0.19,21.57,2.36,31.1,7.34
					c4.03,2.09,8.03,4.86,9.8,9.03c0.62,1.46,0.98,3.11,2.16,4.17c0.77,0.68,1.77,0.99,2.81,1.02c0.87,0.05,1.76-0.11,2.58-0.39
					c1.79-0.62,3.36-1.76,5.06-2.56c0.55-0.27,1.09-0.52,1.61-0.78c3.95-1.91,7.03-3.11,12.59-0.2c2.2,1.15,4.9,4.03,5.41,6.47
					c0.35,1.72,1.3,5.68,1.29,7.6c-0.01,3.61-1.62,9.54-1.92,14.32c-0.51,7.93-2.89,14.5-0.7,22.34c1.19,4.24,5.99,6.64,7.62,10.72
					C1089.14,419.3,1087.86,424.08,1086.32,428.34z"/>
				<path class="st4" d="M1030.95,429.19c-2.34,2.07-5.57,2.78-8.68,2.93c-11.92,0.56-22.94-5.92-34.6-8.43
					c-4.08-0.89-8.3-1.29-12.16-2.85c-1.91-0.77-3.74-1.89-5.22-3.32c-0.35-1.64-0.36-3.33,0.05-4.93c0.13-0.5,0.31-0.99,0.54-1.48
					c0.35-0.75,0.82-1.48,1.33-2.17c6.89,5.22,16.94,6.09,24.52,1.84c0.58,4.81,4.77,8.31,8.95,10.75
					C1013.35,426,1022.08,428.65,1030.95,429.19z"/>
				<path class="st4" d="M996.51,406.73c-1.4-0.4-2.79-0.81-4.2-1.18c-2.6-0.7-5.23-1.28-7.89-1.56c-3.06-0.32-6.21-0.21-9.18,0.59
					c0.52-0.99,0.85-2.04,0.78-3.19c-0.01-0.32-0.07-0.63-0.15-0.93c-0.08-0.35-0.19-0.68-0.31-1.02c-0.05-0.17-0.12-0.34-0.2-0.5
					c-0.27-0.66-0.59-1.29-0.89-1.93c0.21,0.03,0.43,0.07,0.63,0.11C982.83,398.65,990.21,401.97,996.51,406.73z"/>
				<path class="st4" d="M1047.05,412.45c-0.34,0.5-0.71,0.95-1.14,1.37c-1.8,1.76-4.31,2.81-6.83,3.11
					c-3.11,0.4-6.28-0.19-9.32-1.02c-4.47-1.21-8.81-2.95-12.89-5.15c-5.83-3.15-11.09-7.25-16.67-10.79
					c-2.23-1.42-4.56-2.78-7.15-3.34c-3.3-0.71-6.74-0.08-10.12-0.34c-3.49-0.24-7.07-1.58-9.21-4.36
					c-0.16-0.21-0.31-0.43-0.46-0.66v-0.01c0-0.12,0-0.25,0.01-0.38c0-0.23,0.01-0.46,0.04-0.68c0.09-1.07,0.31-2.13,0.63-3.17
					c0.39-1.23,0.95-2.43,1.68-3.5c3.13,2.91,7.14,4.89,11.36,5.58c4.74,0.79,9.84,0.07,14.12,2.23c2.6,1.3,4.62,3.54,7.15,4.97
					c2.23,1.26,4.78,1.84,7.15,2.82c3.68,1.53,6.86,4.01,10,6.46c3.15,2.44,6.34,4.93,10.01,6.46
					C1039.1,413.55,1043.39,414.05,1047.05,412.45z"/>
				<path class="st5" d="M1055.01,438.34c-2.9,8.08-7.76,15.01-14.15,20c-0.26,0.2-0.52,0.39-0.79,0.55
					c-7.7-7.33-17.7-11.92-27.69-15.74c-10.81-4.13-21.99-7.6-31.83-13.66c-3.23-2-6.38-4.34-8.43-7.52
					c-1.77-2.75-2.6-6.25-1.79-9.37c2.04,1.99,3.72,4.48,6.35,5.53c3.83,1.5,8-0.66,11.93-1.88c1.61-0.5,3.6-0.75,4.81,0.43
					c0.58,0.58,0.85,1.38,1.21,2.11c1.56,3.13,4.83,4.98,7.97,6.5c4.52,2.2,9.21,4.15,14.16,5.05c4.94,0.91,10.17,0.71,14.81-1.26
					c-2.2,3.95-7.33,5.34-11.83,4.86c-4.48-0.47-8.68-2.38-13.06-3.44c-3.62-0.89-7.4-1.18-11.11-0.89c2.08,2.94,5.97,3.8,9.48,4.66
					c7.91,1.92,15.54,4.89,22.67,8.81c2.48,1.36,4.95,2.86,7.7,3.54C1042.68,448.44,1050.28,444.16,1055.01,438.34z"/>
				<path class="st4" d="M1004.36,382.3c-4.47-1.42-8.98-2.87-13.64-3.42c-3.95-0.46-8.04-0.23-11.73,1.13
					c0.72-0.59,1.42-1.18,1.93-1.96c0.44-0.68,0.7-1.41,0.81-2.17c0.12-0.81,0.08-1.64-0.04-2.48c4.12-0.6,8.35,0.28,12.15,1.96
					C997.69,377.07,1001.13,379.59,1004.36,382.3z"/>
				<path class="st4" d="M1036.83,392.38c-0.64-0.03-1.25-0.34-1.81-0.64c-5.89-3.14-11.61-6.6-17.26-10.16
					c-2.24-1.41-4.47-2.83-6.93-3.84c-6.28-2.58-13.45-2.17-19.85-4.46c-2.21-0.79-4.32-1.89-6.31-3.15
					c-1.52-0.95-3.02-2.04-4.12-3.44c-0.01-0.01,0-0.01,0-0.01c-0.03-0.72,0.03-1.44,0.2-2.13c0.13-0.54,0.34-1.03,0.58-1.49
					c0.56-1.05,1.37-1.93,2.34-2.72c2.71,3.56,7.21,5.54,11.64,6.59c1.7,0.4,3.45,0.71,5.19,0.9c4.08,0.43,8.21,0.27,12.27,0.9
					c4.05,0.62,8.17,2.15,10.81,5.3c0.79,0.94,1.42,2.01,2.2,2.97c2.75,3.42,6.98,5.21,10.51,7.81c1.38,1.01,2.72,2.27,3.07,3.93
					C1039.7,390.4,1038.54,392.45,1036.83,392.38z"/>
				<path class="st4" d="M1015.56,360.22c-0.08,0.15-0.21,0.26-0.36,0.34c-1.87,1.14-4.27,1.03-6.36,0.39
					c-2.09-0.64-3.99-1.77-6-2.66c-4.03-1.74-8.52-2.43-12.89-1.99c2.19-1.41,4.08-3.03,4.75-5.45c0.12-0.44,0.19-0.9,0.23-1.36
					c0.13-1.6-0.12-3.25-0.07-4.86c0.79,0.28,1.56,0.72,2.23,1.18c0.08,0.05,0.17,0.11,0.26,0.16c0.56,0.39,1.14,0.77,1.7,1.14
					c0.03,0.01,0.04,0.03,0.07,0.04c3.06,2.03,6.11,4.05,9.17,6.09c2.58,1.7,5.21,3.48,7.03,5.99
					C1015.52,359.53,1015.73,359.91,1015.56,360.22z"/>
				<path class="st5" d="M1046.83,413.39c-1.95,3.7-6.2,5.77-10.39,6.04c-4.17,0.27-8.3-1.01-12.17-2.58c-2.9-1.17-5.73-2.51-8.46-4
					c-2.07-1.14-4.09-2.36-6.28-3.22c-2.24-0.87-4.63-1.34-7.05-1.4c-1.53-0.03-3.09,0.12-4.6-0.17c-1.92-0.39-3.62-1.46-5.36-2.4
					c-0.07-0.04-0.15-0.08-0.21-0.11c-5.09-2.75-10.7-4.48-16.44-5.09c-0.08-0.35-0.19-0.68-0.31-1.02c-0.05-0.17-0.12-0.34-0.2-0.5
					c-0.27-0.66-0.59-1.29-0.89-1.93c-0.08-0.17-0.15-0.36-0.23-0.54c-0.68-1.65-1.01-3.42-0.98-5.21v-0.01c0-0.12,0-0.25,0.01-0.38
					c0-0.23,0.01-0.46,0.04-0.68c0.09-1.07,0.31-2.13,0.63-3.17c2.32,2.16,4.85,4.11,7.52,5.79c0.79,0.5,1.6,0.97,2.51,1.17
					c1.09,0.26,2.23,0.08,3.34-0.08c5.23-0.74,10.93-1.06,15.49,1.62c2.31,1.36,4.21,3.42,6.75,4.31c1.07,0.38,2.2,0.51,3.3,0.83
					c1.6,0.48,3.07,1.33,4.48,2.23c2.93,1.84,5.73,3.87,8.39,6.08c3.72,3.09,7.58,6.7,12.42,6.89c2.7,0.11,5.29-0.91,7.76-2.04
					C1046.21,413.67,1046.52,413.54,1046.83,413.39z"/>
				<path class="st4" d="M1049.66,367.71c-0.46,2-1.64,3.45-2.47,4.44c-0.44,0.54-2.86-1.56-4.15-2.59
					c-4.21-3.38-9.52-5.01-14.43-7.25c-8.28-3.79-15.64-9.44-24.08-12.83c-1.83-0.74-3.72-1.37-5.42-2.32
					c-0.03-0.01-0.04-0.03-0.07-0.04c-0.55-0.3-1.07-0.63-1.57-1.02c-0.04-0.04-0.09-0.07-0.13-0.12c-0.01,0-0.03-0.01-0.04-0.03
					c-0.93-0.74-1.73-1.7-2.27-2.77v-0.01c0-0.08,0.03-0.16,0.04-0.24c0.27-1.14,0.81-2.11,1.5-2.93c1.22-1.38,2.97-2.36,4.91-2.98
					c0.32,1.33,0.81,2.6,1.8,3.5c0.51,0.46,1.13,0.79,1.73,1.11c1.44,0.77,2.9,1.5,4.44,2.04c4.68,1.62,9.84,1.28,14.63,2.52
					c1.25,0.32,2.5,0.77,3.49,1.6c0.87,0.72,1.49,1.72,2.15,2.64c1.17,1.69,2.5,3.29,3.96,4.75c1.68,1.69,3.53,3.21,5.38,4.71
					c3.09,2.52,6.16,5.05,9.46,7.28C1049.49,367.82,1049.92,366.6,1049.66,367.71z"/>
				<path class="st5" d="M1042.66,397.08c-0.19,0.6-0.51,1.14-0.79,1.91c-2.34,1.17-5.09-0.26-7.18-1.8
					c-3.19-2.36-6.11-5.1-9.33-7.44c-3.23-2.32-6.89-4.24-10.83-4.67c-3.06-0.32-6.2,0.26-9.19-0.46
					c-5.64-1.33-9.53-6.91-15.19-8.15c-2.26-0.48-4.6-0.23-6.91-0.4c-0.5-0.04-0.99-0.09-1.49-0.2c0.51-3.5-1.91-7.66-0.98-11.33
					c0.13-0.54,0.34-1.03,0.58-1.49c0.64,0.62,1.19,1.44,1.73,2.15c2.08,2.77,5.33,4.51,8.7,5.32c3.37,0.82,6.89,0.77,10.34,0.51
					c5.28-0.4,11.13-1.15,15.36,2.03c2.31,1.73,3.7,4.36,5.42,6.68c3.05,4.13,7.26,7.42,12.01,9.38c1.91,0.79,3.92,1.38,5.54,2.63
					C1042.07,392.99,1043.25,395.12,1042.66,397.08z"/>
				<path class="st5" d="M1046.76,370.24c0.01,0.13-0.08,0.24-0.16,0.35c-1.3,1.53-2.62,3.07-3.92,4.6c-2.38-2.99-5.3-6.07-8.7-8.55
					c-3.41-2.47-7.37-4.34-11.56-4.71c-2.52-0.23-5.07,0.09-7.58-0.2c-4.38-0.51-8.48-2.94-11.02-6.54
					c-1.19-1.72-2.15-3.74-3.99-4.75c-1.48-0.79-3.25-0.75-4.91-0.94c0.19-2.16-0.36-4.43,0.15-6.56c0.27-1.14,0.81-2.11,1.5-2.93
					c1.25,1.37,2.26,2.94,3.5,4.32c1.32,1.45,3.05,2.7,5.01,2.82c1.03,0.05,2.12-0.2,3.11,0.13c1.01,0.32,1.72,1.21,2.58,1.84
					c3.48,2.58,8.71,0.9,12.46,3.06c2.15,1.26,3.44,3.57,5.22,5.32c1.11,1.11,2.44,2,3.76,2.87c4.77,3.19,9.52,6.38,14.28,9.56
					C1046.62,370.01,1046.74,370.1,1046.76,370.24z"/>
				<path class="st5" d="M1057.65,398.65c-2.46,1.91-6.03,1.46-8.9,0.25c-3.05-1.29-5.79-3.32-7.9-5.88
					c-0.81-0.98-1.71-2.13-2.98-2.19c-0.31-0.01-0.66,0.07-0.82,0.33c-0.08,0.14-0.1,0.3-0.11,0.46c-0.11,1.78,0.61,3.53,1.7,4.95
					c1.08,1.41,2.51,2.53,3.95,3.57c0.95,0.68,1.93,1.35,3.02,1.76c1.95,0.73,4.15,0.58,6.12-0.07
					C1053.72,401.17,1055.51,400.04,1057.65,398.65z"/>
				<path class="st5" d="M1070.92,383.12c2-0.48,4.06-1.09,5.55-2.5c0.38-0.35,0.72-0.77,0.86-1.27c0.13-0.5,0.01-1.1-0.4-1.4
					c-0.33-0.24-0.77-0.27-1.18-0.28c-0.77-0.02-1.6-0.01-2.25,0.4c-0.59,0.38-0.95,1.02-1.26,1.65
					C1071.58,381.08,1071.01,382.49,1070.92,383.12z"/>
				<path class="st4" d="M1063.14,353.83c-2.98,2.67-5.72,5.58-8.17,8.74c-0.35-1.61-0.7-3.23-1.05-4.86
					c-0.01-0.05-0.01-0.09-0.03-0.15c0.87,0.05,1.76-0.11,2.58-0.39c1.79-0.62,3.36-1.76,5.06-2.56
					C1062.08,354.34,1062.62,354.09,1063.14,353.83z"/>
				<path class="st4" d="M1077.23,405.23c-0.61,5.52-3.36,10.6-6.66,15.06c-3.3,4.47-7.19,8.47-10.56,12.88
					c3.71-6.85,7.92-13.43,12.6-19.66C1074.49,411.02,1076.52,408.37,1077.23,405.23z"/>
				<path class="st4" d="M1055.07,400.08c6.83-4.42,12.38-10.81,15.81-18.19c0.52-1.12,1.01-2.28,1.84-3.19
					c0.83-0.91,2.12-1.52,3.31-1.19c1.38,0.39,2.49,1.95,3.88,1.6c0.3-1.97-1.85-3.65-3.84-3.56c-1.99,0.09-3.71,1.42-5.1,2.85
					c-3.51,3.63-5.78,8.25-8.37,12.59S1056.86,399.62,1055.07,400.08z"/>
				<path class="st4" d="M1038.42,393.04c-0.97-2.07-1.05-4.48-0.58-6.72c0.47-2.24,1.45-4.34,2.53-6.36
					c4.08-7.63,9.7-14.43,16.41-19.88c1.23-1,2.53-1.97,4.03-2.49c-1.59,1.51-3.19,3.02-4.78,4.53c-2.16,2.05-4.33,4.11-6.24,6.39
					c-3.35,4-5.85,8.64-8.02,13.39c-0.95,2.08-1.84,4.22-2.18,6.48c-0.34,2.26-0.08,4.69,1.15,6.62
					C1039.41,394.67,1038.31,393.58,1038.42,393.04z"/>
				<path class="st4" d="M1039.1,389.96c2.05-0.11,4.03,0.74,5.85,1.69c3.3,1.72,6.63,4.14,7.59,7.73c0.07,0.27,0.11,0.6-0.11,0.77
					c-0.15,0.12-0.36,0.1-0.55,0.07c-2.84-0.38-5.77-0.82-8.18-2.36c-1.5-0.96-2.72-2.31-3.87-3.66c-0.6-0.7-1.21-1.45-1.42-2.35
					C1038.2,390.94,1038.5,389.99,1039.1,389.96z"/>
				<path class="st4" d="M1051.97,398.2c2.63-3.77,6.42-6.73,10.72-8.36c0.33-0.13,0.81-0.19,0.95,0.14c0.07,0.17,0,0.36-0.07,0.53
					c-1.49,3.46-4.14,6.29-7.07,8.66c-0.84,0.68-1.79,1.36-2.86,1.35C1052.57,400.53,1051.18,399.33,1051.97,398.2z"/>
			</g>
			<path class="st131" d="M1519.72,695.71c-0.35,0.31-0.7,0.6-1.05,0.91C1518.59,695.55,1519.41,695.38,1519.72,695.71z"/>
			<path class="st126" d="M188.8,604.01c-2.74,4.92-5.18,10.01-7.32,15.23c-0.3,0.73-0.58,1.58-0.2,2.26
				c0.98,1.76,4.87,0.33,5.11,2.33c-0.73,1.06-1.93,1.66-3.06,2.27c-1.13,0.61-2.3,1.31-2.87,2.46c-0.57,1.15-0.23,2.83,0.98,3.25
				c0.73,0.25,1.52-0.02,2.24-0.29c5.73-2.15,11.26-4.82,16.51-7.97c2.02,1.51-0.94,5.19,0.65,7.15c0.42,0.52,1.08,0.78,1.72,1.01
				c1.61,0.59,3.61,1.12,4.89-0.02c1.09-0.97,1.06-2.7,0.6-4.09c-0.46-1.39-1.26-2.67-1.46-4.12c-0.06-0.42-0.06-0.88,0.15-1.25
				c0.54-0.95,1.94-0.73,2.97-1.1c1.06-0.38,1.78-1.56,1.61-2.68c-0.16-1.12-1.18-2.05-2.31-2.11c-1.37-0.07-3.06,0.88-3.94-0.18
				c-0.22-0.26-0.32-0.6-0.41-0.93c-1.42-4.7-3.74-9.13-6.82-12.97c-0.94-1.17-2.51-2.39-3.77-1.58c-0.91,0.58-0.99,1.94-0.52,2.92
				s1.32,1.7,2.05,2.5c2.14,2.37,3.15,5.52,4.11,8.57c0.31,1,0.62,2.13,0.13,3.06c-0.52,0.99-1.72,1.37-2.8,1.65
				c-1.86,0.49-3.72,0.97-5.57,1.46c-1.08-1.78-0.33-4.09,0.67-5.91s2.3-3.66,2.25-5.74c-0.04-1.7-1.06-3.34-2.57-4.11
				C190.31,604.3,188.38,604.42,188.8,604.01z"/>
			<path class="st126" d="M213.17,614.46c2.86,4.25,5.09,8.92,6.59,13.82c-5.93,2.46-11.26,6.36-15.39,11.28
				c-1.06,1.26-2.08,3.06-1.19,4.45c0.6,0.93,1.87,1.23,2.96,1s2.02-0.88,2.93-1.52c1.67-1.17,3.33-2.35,5-3.52
				c2.25-1.59,5.15-3.23,7.58-1.93c1.96,1.05,3.06,3.83,5.28,3.81c1.21-0.01,2.27-0.99,2.61-2.15s0.04-2.43-0.55-3.48
				c-0.68-1.2-1.67-2.89-0.55-3.69c0.47-0.34,1.1-0.28,1.68-0.38c1.38-0.24,2.42-1.48,2.84-2.81c0.42-1.34,0.34-2.77,0.26-4.17
				c-0.55-0.57-1.54-0.3-2.14,0.21c-0.61,0.51-1.07,1.21-1.78,1.55c-1.49,0.72-3.27-0.56-3.9-2.08c-0.63-1.53-0.53-3.25-0.84-4.87
				c-0.68-3.62-3.55-6.71-7.08-7.76c-1.32-0.39-2.91-0.47-3.93,0.46C212.5,613.58,212.77,615.72,213.17,614.46z"/>
			<path class="st126" d="M236.2,627.21c1.73,3.69,3.45,7.37,5.18,11.06c-5.45,0.9-9.83,4.83-13.88,8.59
				c-1.04,0.96-2.13,2.02-2.41,3.41s0.73,3.1,2.14,2.96c0.55-0.05,1.03-0.36,1.49-0.66c5.11-3.36,10.22-6.71,15.34-10.07
				c0.14,1.86,0.28,3.72,0.43,5.58c0.03,0.46,0.07,0.93,0.29,1.33c0.75,1.43,3.16,0.93,3.92-0.5c0.76-1.43,0.42-3.17,0.05-4.74
				c2,1.08,3.99,2.17,5.99,3.25c-4.89,3.9-8.95,8.83-11.85,14.37c-0.22,0.43-0.43,0.97-0.14,1.36c0.21,0.28,0.61,0.34,0.96,0.33
				c3.24-0.06,5.23-3.41,7.34-5.87c1.8-2.1,4.09-3.77,6.63-4.83c1-0.42,2.12-0.75,3.16-0.44c1.04,0.31,1.88,1.49,1.46,2.49
				c-0.94,2.23-5.12-0.1-5.86,1.19c-0.55,0.93-1.09,1.86-1.64,2.78c1.73,1.74,4.55,1.38,6.99,1.47c2.45,0.08,5.47,1.54,5.14,3.97
				c-0.28,2.07-2.99,3.44-2.67,5.51c0.29,1.92,3.11,2.38,4.71,1.28c1.6-1.1,2.37-3.02,3.39-4.67c1.02-1.65,2.74-3.24,4.65-2.9
				c0.94,0.17,1.73,0.77,2.48,1.36c1.17,0.91,2.37,1.86,3.11,3.15c0.74,1.29,0.92,3.01,0.04,4.21c-0.65,0.88-1.85,1.52-1.87,2.61
				c-0.02,1.2,1.39,1.85,2.08,2.84c0.87,1.26,0.51,2.95,0.45,4.48s0.65,3.45,2.18,3.5c0.53,0.02,1.04-0.21,1.48-0.51
				c3.41-2.33,2.2-7.53,3.11-11.56c0.94-4.2,4.85-7.54,9.14-7.83c0.86-0.06,1.84-0.06,2.41-0.71c1.06-1.22-0.53-3.01-2.05-3.56
				c-0.52-1.4,1.37-2.54,2.85-2.43c1.48,0.11,3.02,0.78,4.4,0.22c2.22-0.9,2.01-4.51,0.04-5.88c-1.97-1.37-4.67-0.99-6.89-0.08
				c-2.22,0.91-4.26,2.29-6.59,2.84c-2.33,0.56-5.2,0-6.35-2.11c-0.43-0.79-0.57-1.7-0.92-2.53c-1.54-3.66-6.5-4.44-10.34-3.43
				c0.63,3.79-2.41,7.78-6.23,8.17c-1.64-4.57-3.76-8.98-6.31-13.11c-1.51-2.44-3.77-5.08-6.62-4.7c-1.2,0.92-0.41,2.8,0.39,4.08
				c0.8,1.28,1.29,3.37-0.1,3.96c-3.07-6.32-11.92-8.38-14.53-14.91c-0.47-1.18-0.72-2.48-1.43-3.53s-2.14-1.8-3.27-1.21
				C236.52,627.37,236.74,629.56,236.2,627.21z"/>
			<path class="st126" d="M205.88,702.45c-0.46,0.24-0.99,0.16-1.5,0.07c-5.45-1.06-10.67-3.37-10.77-4.23
				c-14.04-8.17-29.93-12.47-45.61-16.68c-3.03-0.81-6.08-1.62-9.11-2.44c-1.66-0.44-3.34-0.9-5.06-0.98
				c-7.62-0.35-13.49,6.27-20.15,10.05c-8.94-9.03-17.97-18.19-26.23-27.88c5.45-6.01,10.9-12.01,16.35-18.01
				c1.06-1.18,2.31-2.44,3.89-2.5c1.26-0.04,2.4,0.7,3.4,1.48c10.04,7.93,14.13,22.28,25.38,28.39c0.72,0.39,1.61,0.75,2.35,0.38
				c0.97-0.5,0.99-1.85,0.75-2.91c-1.49-6.62-7.89-10.94-10.78-17.07c-0.26-0.56-0.5-1.19-0.31-1.79c0.2-0.64,0.86-1.03,1.49-1.28
				c3.62-1.38,7.65,0.3,11.02,2.23c18.87,10.87,31.42,30.46,50.05,41.76c4.47,2.71,9.25,4.93,13.62,7.77
				c0.66,0.42,1.34,0.89,1.68,1.6C206.7,701.1,206.56,702.09,205.88,702.45z"/>
			<path class="st126" d="M451.64,850.76c-2.28,10.09-9.64,19.42-17.13,27.11c-23.91,24.51-52.32,44.2-81.65,61.85
				c-12.47,7.5-27.34,14.89-41.32,8.79c-36.19-26.19-72.38-52.39-108.56-78.59c-43.1-31.19-88.28-65.02-108.03-114.42
				c-4.86-12.16-8.04-25.52-5.44-38.35c0.55-2.72,1.15-5.07,1.93-7.19c-1.97,20.58,3.74,41.65,13.69,59.91
				c11.26,20.64,27.62,38.07,45.01,53.92c23.57,21.5,49.36,40.58,76.81,56.85c6.43,3.8,13.13,7.52,20.5,8.74
				c7.37,1.23,15.64-0.48,20.56-6.11c10.59,7.45,21.17,14.9,31.76,22.35c3.46,2.44,10.08,3.5,10.26-0.72
				c-12.81-5.93-24.01-15.26-32.19-26.77c21.6,4.4,43.5,8.82,65.49,7.4c22-1.42,44.47-9.4,58.85-26.11
				c3.28-3.81,5.85-10.19,1.89-13.28C419.92,847.69,435.78,849.22,451.64,850.76z"/>
			<path class="st126" d="M224.85,724.23c-1.98,9.28-2.81,18.79-2.48,28.27c0.05,1.3,0.51,3,1.81,3.01c1.1,0,2.24-1.34,3.08-0.63
				c0.34,0.28,0.4,0.77,0.42,1.2c0.05,1.24-0.08,2.53-0.71,3.59c-0.76,1.29-2.14,2.07-3.17,3.15c-1.04,1.08-1.7,2.87-0.76,4.03
				c0.7,0.86,2.02,0.98,3.05,0.57c1.03-0.41,1.84-1.22,2.61-2.01c2.56-2.62,5.12-5.23,7.67-7.85c0.28-0.28,0.57-0.58,0.95-0.7
				c1.24-0.41,2.16,1.1,2.93,2.16c1.14,1.58,3.1,2.59,5.03,2.37c1.93-0.22,3.69-1.81,3.89-3.74c0.36-3.41-3.67-6.07-3.43-9.48
				c0.26-3.77,5.51-5.91,5.34-9.68c-0.1-2.18-2.48-3.96-4.6-3.43c-1.48,0.37-2.88,1.65-4.32,1.14c-1.51-0.53-1.71-2.51-2.06-4.07
				c-0.6-2.74-2.33-5.07-4.01-7.31c-1.42-1.89-2.84-3.78-4.26-5.67c-0.82-1.08-1.92-2.29-3.26-2.07c-1.52,0.25-2.11,2.29-1.54,3.72
				c0.57,1.43,1.85,2.43,2.93,3.52c2.25,2.27,3.78,5.14,5.27,7.96c1.63,3.09,3.31,6.4,3,9.88c-0.2,2.27-1.25,4.37-2.42,6.32
				c-1.24,2.07-2.76,4.13-4.95,5.14c-0.26,0.12-0.57,0.23-0.84,0.13c-0.27-0.1-0.44-0.37-0.56-0.63c-0.97-2.11-0.47-4.57,0.03-6.84
				c1.36-6.24,2.48-12.86,0.37-18.89c-0.5-1.42-1.27-2.89-2.64-3.53S223.82,723.94,224.85,724.23z"/>
			<path class="st126" d="M250.13,728.99c3.01,4.03,6.07,8.14,7.75,12.89c1.69,4.74,1.82,10.3-0.84,14.57
				c-1.17,1.87-2.8,3.39-4.13,5.14c-2.38,3.13-3.74,6.91-5.06,10.61c-0.32,0.91-0.64,1.93-0.23,2.8c0.53,1.13,2.11,1.41,3.26,0.93
				s1.97-1.5,2.75-2.48c2.65-3.37,5.31-6.74,7.96-10.11c1.27,0.73,1.74,2.29,2.48,3.56c0.74,1.27,2.35,2.41,3.58,1.61
				c0.97-0.63,1-2.02,0.82-3.16c-0.61-3.7-2.36-7.54-0.96-11.01c0.84-2.09,2.68-3.58,4.01-5.4c1.33-1.82,2.07-4.51,0.6-6.22
				c-0.28-0.32-0.66-0.6-1.08-0.58c-0.64,0.02-1.04,0.67-1.54,1.08c-1.15,0.95-2.96,0.57-4.09-0.4c-1.13-0.97-1.76-2.38-2.44-3.7
				c-2-3.88-4.72-7.38-7.99-10.28c-0.86-0.76-1.87-1.52-3.02-1.44S249.81,728.93,250.13,728.99z"/>
			<path class="st126" d="M272.54,736.89c4.05,4.75,7.2,10.41,8.18,16.58c0.98,6.16-0.41,12.85-4.48,17.58
				c-1.82,2.12-4.14,3.83-5.67,6.16c-1.95,2.98-2.44,6.87-1.27,10.23c2.52-0.42,4.4-2.48,6.06-4.42c3.02-3.52,6.05-7.05,9.07-10.57
				c0.52,1.61,2.07,2.83,3.75,2.97c1.68,0.14,3.41-0.8,4.19-2.3c2.01-3.82-2.26-8.33-1.4-12.56c0.37-1.8,1.62-3.27,2.72-4.75
				c1.1-1.47,2.13-3.2,1.94-5.03s-2.23-3.5-3.87-2.66c-0.9,0.46-1.36,1.45-1.98,2.24c-0.62,0.79-1.75,1.44-2.6,0.89
				c-0.3-0.19-0.5-0.5-0.68-0.81c-1.36-2.28-2.19-4.84-3.53-7.13c-1.39-2.38-3.33-4.43-5.62-5.97
				C275.8,736.31,273.41,735.63,272.54,736.89z"/>
			<path class="st126" d="M291.13,742.55c6.11,4.99,9.77,12.86,9.66,20.75c-0.02,1.26-0.13,2.52-0.45,3.73
				c-0.71,2.71-2.41,5.03-3.84,7.44c-3.06,5.17-4.97,11.02-5.53,17c-0.05,0.49-0.06,1.05,0.3,1.4c0.26,0.25,0.64,0.3,1,0.28
				c1.41-0.11,2.46-1.32,3.3-2.46c3.58-4.87,6.37-10.31,8.24-16.06c1.27-0.3,2.24,1.07,2.88,2.2s1.88,2.39,3.03,1.79
				c0.44-0.23,0.71-0.67,0.9-1.13c1.64-4.01-2.36-8.43-1.5-12.68c0.66-3.25,4.04-5.63,4.08-8.94c0.01-0.49-0.08-1.01-0.41-1.36
				c-0.8-0.88-2.28-0.19-3.1,0.67c-0.83,0.86-1.75,1.96-2.92,1.78c-0.99-3.65-2.02-7.39-4.19-10.49c-2.17-3.1-5.76-5.48-9.53-5.17
				c-0.66,0.05-1.36,0.22-1.8,0.71S290.77,743.4,291.13,742.55z"/>
			<path class="st126" d="M343.05,790.25c-0.71-2.67-0.62-5.48-0.52-8.24c0.17-4.98,0.5-10.35,3.62-14.23
				c0.38-0.46,0.79-0.91,0.93-1.49c0.24-1.11-0.68-2.15-1.66-2.71c-0.99-0.56-2.15-0.93-2.9-1.77c-1.21-1.38-0.95-3.45-0.82-5.28
				c0.17-2.38-0.04-4.9-1.34-6.9c-1.3-2.01-3.93-3.3-6.16-2.44c-0.5,0.19-0.98,0.5-1.21,0.98c-0.16,0.32-0.17,0.7-0.2,1.06
				c-0.09,1.81-0.19,3.64-0.3,5.45c-1.73-2.35-4.24-4.11-7.03-4.94c-1.62-0.48-3.33-0.66-4.95-1.09c-4.71-1.25-9.02-4.67-13.87-4.19
				c-0.66,0.07-1.52,0.58-2.09,1.15c3.74,1.29,7.72,2.75,10.07,5.93c1.13,1.54,1.79,3.38,2.43,5.18c1.01,2.85,2.01,5.69,3.03,8.54
				c0.72,2.04,1.45,4.35,0.52,6.31c-0.71,1.5-2.28,2.54-2.77,4.12c-0.27,0.89-0.16,1.85-0.47,2.71c-0.5,1.4-1.97,2.21-3.41,2.51
				c-1.45,0.3-2.94,0.2-4.4,0.4c-2.85,0.42-5.45,1.99-7.42,4.08c-0.26,0.25-0.51,0.6-0.42,0.95c0.08,0.28,0.36,0.46,0.63,0.59
				c2.87,1.3,6.26-0.17,9.37,0.32c0.62,0.11,1.32,0.36,1.49,0.97c0.12,0.4-0.04,0.83-0.23,1.21c-0.75,1.49-1.97,2.7-2.72,4.19
				c-0.75,1.49-0.9,3.52,0.34,4.63c1.68,1.52,4.5,0.13,5.61-1.84c1.13-1.97,1.29-4.36,2.35-6.36c2.99-5.72,11.4-5.97,15.76-10.72
				c0.78-0.85,2-1.89,2.86-1.14c0.55,0.48,0.42,1.37,0.23,2.08c-1.37,5.07-2.9,10.09-4.59,15.05c-0.93-1.23-1.84-2.47-2.75-3.7
				c-1.09,3.83-0.81,8.03,0.78,11.68c0.16,0.38,0.36,0.77,0.74,0.94c0.47,0.23,1.03,0,1.48-0.3c1.36-0.87,2.32-2.31,2.66-3.88
				c0.09-0.44,0.17-0.95,0.58-1.15c0.55-0.28,1.15,0.27,1.56,0.74c2.97,3.49,7.42,5.68,12.01,5.88
				C349.09,799.97,344.48,795.67,343.05,790.25z M337.97,770.95c-0.93,1.77-2.95,2.6-4.83,3.3c-0.74,0.28-1.54,0.56-2.31,0.34
				c-1.19-0.34-1.72-1.7-1.97-2.91c-0.5-2.32-0.59-4.71-0.31-7.07c-0.05,0.15-0.15-0.87,0.07-1.87c0.27-1.19,1.09-2.35,2.28-2.64
				c0.67-0.16,1.37-0.04,2.05-0.07c0.93-0.05,1.99-0.35,2.71,0.24c0.3,0.25,0.47,0.62,0.63,0.98c0.59,1.3,1.1,2.64,1.54,4
				C338.43,767.11,338.87,769.22,337.97,770.95z"/>
			<path class="st131" d="M1596.13,647.61c-27.74,36.94-57.68,72.85-94.46,100.79c-34.19,25.99-74.98,44.82-117.64,47.97
				c-3.25,0.24-6.5,0.39-9.76,0.44c-63.68-40.19-132.7-72.63-205.06-90.52c-7.25-1.79-14.52-3.44-21.84-4.93
				c-63.34-58.47-87.44-149.34-140.47-219.07c6.44-5.8,11.53-9.77,16.63-13.76c0.72-0.56,1.46-1.14,2.17-1.72
				c1.85-1.52,3.62-3.11,5.03-5.03c0-0.01,0.01-0.01,0.03-0.03c1.95-2.64,3.15-6,2.56-9.23c2.6,3.21,7.21,4.21,11.3,3.57
				c0.89-0.13,1.76-0.35,2.6-0.62c3.09-0.93,5.97-2.51,8.81-4.08c0.03-0.03,0.05-0.04,0.08-0.04c2.87-1.61,5.76-3.21,8.63-4.81
				c2.3-1.28,4.62-2.56,6.54-4.36c4.12-3.87,5.92-9.53,7.46-14.97c2.2-7.69,4.2-16.16,0.9-23.45c3.88-1.41,8.27,0.78,11.58,3.49
				c0.56,0.46,1.11,0.94,1.65,1.41c2.67,2.38,5.26,4.9,8.59,6.15c2.26,0.86,4.71,1.05,7.05,1.72c3.95,1.14,7.49,3.68,9.83,7.06
				c0.98,1.41,1.88,3.07,3.48,3.68c1.11,0.42,2.36,0.24,3.53,0.05c0.17-0.03,0.35-0.05,0.52-0.08c8.36-1.34,16.74-2.67,25.1-4
				c6.2-0.99,12.42-1.99,18.68-2.16c6.83-0.19,13.65,0.58,20.5,0.48c6.2-0.09,12.39-0.89,18.55-1.69
				c15.21-1.99,30.42-3.96,45.64-5.95c31.09,0.67,62.48-5.92,94.09-6.19c33.01-0.28,65.65,6.32,97.83,13.66
				c39.41,9.01,80.21,20.04,110.28,47.06c21.58,19.38,41.69,47.15,57.49,76.71c4.91,9.18,9.36,18.81,10.83,29.11
				C1628.72,600.99,1612.35,626.04,1596.13,647.61z"/>
			<path class="st134" d="M1176.07,676.32c8.5-18.63,17.81-37.35,32.14-51.98c14.33-14.63,34.62-24.77,54.95-22.26
				c7.52,0.93,14.73,3.51,22.14,5.07c7.92,1.67,16.04,2.15,24.13,2.63c38.21,2.27,76.42,4.54,114.63,6.81
				c18.95,1.13,38.32,2.35,55.83,9.68c15.81,6.62,29.18,17.84,43.78,26.81c14.6,8.97,31.82,15.9,50.14,15.09
				c-24.16,17.79-48.52,35.3-73.07,52.52c-30.23,21.21-63.76,42.88-100.63,40.89c-19.18-1.04-37.35-8.49-55.09-15.84
				C1288.68,722.4,1232.36,699.06,1176.07,676.32z"/>
			<path class="st133" d="M1549.34,689.58c-48.52,38.38-102.05,69.85-155.4,101.19c-3.23,1.91-6.54,3.83-9.91,5.6
				c-3.25,0.24-6.5,0.39-9.76,0.44c-63.68-40.19-132.7-72.63-205.06-90.52c-8.59-15.14-6.47-37.14,5.93-38.64
				c12.17-10.52,24.34-21.05,36.5-31.57c4.36-3.77,8.87-7.64,14.35-9.42c5.49-1.81,11.44-1.36,17.19-0.9
				c28.07,2.27,56.64,4.66,82.72,15.26c15.48,6.3,29.7,15.34,45.09,21.85c55.06,23.29,117.7,11.91,177.46,13.72
				c1.62,0.05,3.36,0.15,4.66,1.13C1556.97,680.63,1553.13,686.59,1549.34,689.58z"/>
			<path class="st133" d="M1044.64,456.09c0.89-0.13,1.76-0.35,2.6-0.62c-7.3,3.53-14.48,7.32-21.53,11.34
				c1.85-1.52,3.62-3.11,5.03-5.03c1.96-2.64,3.18-6.01,2.59-9.26C1035.94,455.73,1040.55,456.73,1044.64,456.09z"/>
			<g>
				<path class="st2" d="M1196.6,660.71c-0.56,2.91-1.45,5.73-2.51,8.5c-2.11,5.54-4.94,10.86-7.34,16.3
					c-1.56,3.52-2.95,7.22-3.88,10.98c-1.21,4.95-1.58,10.01-0.38,14.94c1.13,4.6,3.56,8.75,5.53,13.07
					c0.36,0.82,0.72,1.68,0.67,2.56c-0.09,1.23-0.95,2.27-1.79,3.19c-5.83,6.5-12.03,12.75-19.19,17.69
					c-0.75,0.52-1.53,1.02-2.31,1.52c-1.1,0.7-2.24,1.36-3.4,1.97c-0.67,0.36-1.36,0.72-2.05,1.06c-6.85,3.34-14.39,5.25-21.95,4.74
					c-2.04-0.13-4.48-0.78-4.32-0.93c-13.7-40.98-44.51-73.72-64.89-111.8c-1.91-3.56-3.76-7.29-4.01-11.32
					c-0.17-2.71,0.39-5.34,1.48-7.79c1.72-3.96,4.78-7.48,8.21-10.17c5.58-4.36,12.2-7.15,18.16-10.99
					c9.15-5.88,16.59-14.11,25.53-20.34c4.48-3.11,10.47-5.73,15.15-3.33c4.23-1.85,9.18-1.13,13.45,0.59
					c1.79,0.71,3.56,1.64,4.77,3.11c0.87,1.06,1.42,2.35,1.92,3.62c0.82,2.13,1.56,4.3,3.05,6.79c0.17-1.45,0.75-2.83,1.61-4.01
					c0.74-1.05,1.72-1.93,2.82-2.59c0.85-0.51,1.77-0.89,2.74-1.09c3.66-0.75,7.68,0.89,9.89,3.91c1.14,1.56,1.84,3.44,3.09,4.94
					c2.48,2.98,6.63,3.89,9.91,5.97c3.6,2.27,6.17,6.07,7.28,10.44C1192.97,628.48,1199.69,644.77,1196.6,660.71z"/>
				<path class="st4" d="M1087.35,636.4c-0.03,0-0.06,0-0.09-0.01c-0.37-0.05-0.63-0.39-0.58-0.75c1.07-8.03,7.01-15.78,16.29-21.26
					c4.61-2.72,9.62-4.79,14.48-6.78c3.39-1.4,6.9-2.84,10.23-4.49c1.61-0.8,3.22-1.67,4.77-2.51c2.98-1.61,6.06-3.28,9.29-4.53
					c5.89-2.3,11.19-2.74,15.77-1.32c5.78,2.59,9.85,8.73,10.43,15.68c0.03,0.37-0.24,0.69-0.61,0.72
					c-0.38,0.04-0.69-0.24-0.72-0.61c-0.54-6.47-4.3-12.17-9.57-14.54c-4.2-1.3-9.21-0.87-14.81,1.32
					c-3.15,1.23-6.19,2.87-9.14,4.46c-1.57,0.85-3.19,1.72-4.81,2.53c-3.37,1.67-6.9,3.13-10.32,4.53c-4.81,1.98-9.78,4.02-14.3,6.7
					c-8.92,5.27-14.63,12.66-15.65,20.28C1087.97,636.16,1087.68,636.4,1087.35,636.4z"/>
				<path class="st4" d="M1167.72,747.94c-0.75,0.52-1.53,1.02-2.31,1.52c-1.1,0.7-2.24,1.36-3.4,1.97
					c-0.67,0.36-1.36,0.72-2.05,1.06c-5.65-0.51-11.15-2.75-15.52-6.38c-3.48-2.89-6.19-6.56-8.81-10.25
					c-12.55-17.75-23.36-36.72-32.23-56.58c-3.01-6.72-5.81-13.6-9.7-19.85c-1.84-2.98-3.95-5.83-5.17-9.11
					c-1.49-4-1.6-8.46-3.44-12.31c-0.46-0.95-1.02-1.91-1.03-2.97c-0.01-1.02,0.51-1.97,1.05-2.83c2.83-4.5,6.77-8.3,11.93-11.66
					c-0.9,2.63-1.81,5.33-1.76,8.11c0.07,2.79,1.33,5.72,3.79,7.01c1.15,0.62,2.5,0.82,3.64,1.46c3.45,1.92,3.79,6.62,5.22,10.3
					c3.21,8.3,12.55,12.03,20.51,16.01c1.36,0.67,2.9,1.73,2.78,3.25c-0.04,0.66-0.42,1.23-0.67,1.84
					c-1.66,3.91,1.58,8.32,5.4,10.19c3.81,1.88,8.23,2.23,12.05,4.05c1.74,0.83,3.4,2.01,4.27,3.72c0.82,1.58,0.9,3.42,1.03,5.19
					c0.55,7.41,2.46,14.72,5.61,21.45c0.82,1.73,1.73,3.57,1.44,5.45c-0.3,1.88-2.47,3.56-4.11,2.56c-0.32-0.19-0.6-0.47-0.98-0.52
					c-1.23-0.15-1.07,1.89-0.34,2.89c2.39,3.17,5.42,5.87,8.86,7.87c0.9,0.52,1.85,1.03,2.44,1.89c0.64,0.93,0.72,2.12,0.79,3.25
					C1167.26,740.32,1167.49,744.13,1167.72,747.94z"/>
				<path class="st4" d="M1134.19,580.24c-5.96,7.84-14.63,13.33-22.4,18.27c-3.13,1.99-6.35,4.04-9.72,5.76
					c-2.12,1.1-4.34,2.08-6.48,3.03c-3.74,1.68-7.62,3.4-11.05,5.72c-6.11,4.16-9.69,9.97-9.56,15.53c0.01,0.38-0.28,0.68-0.66,0.68
					h-0.01c-0.36,0-0.66-0.28-0.67-0.64c-0.15-6.03,3.65-12.27,10.15-16.68c3.52-2.39,7.45-4.13,11.25-5.83
					c2.13-0.94,4.34-1.92,6.43-3.01c3.3-1.69,6.51-3.73,9.6-5.69c7.42-4.71,15.64-9.92,21.45-17.17"/>
				<path class="st5" d="M1162.01,751.43c-7.38,3.99-15.68,6.36-24,5.8c-2.04-0.13-4.48-0.78-4.32-0.93
					c-13.7-40.98-44.51-73.72-64.89-111.8c-1.91-3.56-3.76-7.29-4.01-11.32c-0.17-2.71,0.39-5.34,1.48-7.79
					c0.38,2.59,1.3,5.1,2.71,7.33c0.39,0.59,0.95,1.23,1.65,1.1c0.63-0.11,0.95-0.79,1.18-1.4c1.15-3.02,2.31-6.05,3.46-9.09
					c-0.58,4.01-0.17,8.16,1.17,11.99c0.52,1.49,1.29,3.03,2.7,3.74c2.93,1.48,6.17-1.58,7.41-4.63c1.23-3.05,1.89-6.7,4.67-8.44
					c-2.2,6.58,2.9,14.55,9.81,15.3c0.21,7.85,4.68,15.45,11.44,19.45c2.23,1.32,4.81,2.39,6.11,4.63c0.62,1.07,0.87,2.32,1.18,3.53
					c1.52,5.99,4.48,11.62,8.55,16.27c3.18,3.62,6.99,6.64,10.26,10.19c3.26,3.54,6.04,7.85,6.42,12.66
					c-3.7-2.93-7.42-5.87-11.13-8.79c-1.32-1.03-2.72-2.12-4.39-2.24c-3.44-0.28-5.88,3.85-5.23,7.23c0.66,3.38,3.29,5.99,5.87,8.27
					c5.41,4.81,11.13,9.25,17.13,13.3c1.41,0.95,2.87,1.92,3.93,3.25c0.77,0.97,1.29,2.08,1.81,3.19
					C1155.97,738.64,1158.99,745.04,1162.01,751.43z"/>
				<path class="st4" d="M1162.68,599.46c6.33,5.57,11.78,12.68,13.23,20.98c1.45,8.3-2.01,17.82-9.58,21.54
					c1.1-1.98,2.03-4.06,2.69-6.22c1.77-5.79,1.5-12.05,0.2-17.97C1167.93,611.88,1165.63,606.24,1162.68,599.46z"/>
				<path class="st4" d="M1157.98,645.69c-1.73,0-3.46-0.32-5.21-0.69c-6.85-1.44-14.46-3.69-18.96-9.51
					c-0.23-0.29-0.17-0.71,0.12-0.94c0.29-0.23,0.72-0.17,0.94,0.12c4.24,5.47,11.57,7.63,18.18,9.02c2.31,0.49,4.56,0.89,6.74,0.52
					c3.13-0.53,6.04-2.76,7.8-5.94c1.5-2.74,2.2-6.12,2.08-10.05c-0.01-0.37,0.28-0.68,0.65-0.69c0.38-0.02,0.68,0.28,0.69,0.65
					c0.13,4.18-0.62,7.79-2.25,10.74c-1.95,3.54-5.22,6.01-8.75,6.62C1159.33,645.64,1158.65,645.69,1157.98,645.69z"/>
				<path class="st4" d="M1162.94,640.07c-6.37-3.72-10.02-11.59-8.75-18.86c0.78-4.46,3.2-8.54,3.73-13.04
					c-9.3,3.66-15.47,12.81-24.55,16.98c-2.16,0.99-4.44,1.68-6.64,2.57c-4.26,1.74-8.15,4.24-12.01,6.73
					c10.92-1.18,21.52-5.12,30.56-11.36c2.04,3.49,4.1,7.02,6.82,10.02S1158.26,638.6,1162.94,640.07z"/>
				<path class="st5" d="M1170.7,630.48c-0.81-4.28-2.7-8.28-3.95-12.46c-1.25-4.18-1.83-8.82-0.06-12.8
					c1.79,3.73,3.5,7.54,4.47,11.57C1172.14,620.82,1172.36,625.1,1170.7,630.48z"/>
				<path class="st5" d="M1115.56,634.49c6.87-3.15,14.91-3.25,21.54-6.88c3.42-1.87,6.29-4.59,9.11-7.28
					c2.96-2.81,5.92-5.63,8.87-8.44c-2.52,4.24-5.43,8.28-8.96,11.71c-5.82,5.66-13.32,9.56-21.29,11.1
					C1121.69,635.31,1118.4,635.55,1115.56,634.49z"/>
				<path class="st5" d="M1142.91,625.05c2.62,3.3,5.26,6.61,8.38,9.44s6.76,5.19,10.84,6.26c-3.33-1.65-6.77-3.38-9.09-6.28
					c-1.95-2.42-2.95-5.46-3.67-8.48c-0.55-2.32-0.94-4.82-0.09-7.05C1146.96,621.32,1144.64,623.69,1142.91,625.05z"/>
				<path class="st3" d="M1185.81,611.03c-0.72,7.59-0.94,15.23-0.65,22.84c0.18,4.76,0.61,9.69,2.9,13.87
					c1.34-8.56,1.82-17.26,1.45-25.91c-0.2-4.52-0.68-9.2-3-13.09C1186,609.04,1185.95,609.56,1185.81,611.03z"/>
				<path class="st3" d="M1130.22,614.49c5.71-2.64,11.42-5.28,17.13-7.93c0.88-0.41,1.92-1.15,1.64-2.07
					c-1.29-0.26-2.61,0.22-3.84,0.71c-6.69,2.66-13.23,5.7-19.57,9.11c-0.7,0.38-1.49,1.29-0.89,1.82c0.31,0.27,0.79,0.18,1.18,0.07
					C1127.75,615.65,1129.5,614.82,1130.22,614.49z"/>
				<path class="st3" d="M1116.77,603.03c6.57-3.27,13.16-6.55,19.33-10.52c0.88-0.57,1.84-1.28,1.96-2.33
					c-8.35,2.69-16.19,6.92-23.03,12.42c-0.45,0.36-0.94,0.81-0.96,1.39C1115.24,603.97,1116.41,603.62,1116.77,603.03z"/>
				<path class="st4" d="M1194.09,669.2c-2.11,5.54-4.94,10.86-7.34,16.3c-1.56,3.52-2.95,7.22-3.88,10.98
					c-0.11,0.04-0.2,0.09-0.31,0.13c-4.26,1.85-8.6,3.74-13.23,4.13c-3.21,0.27-6.9-0.46-8.58-3.21
					c8.38-1.93,14.74-8.58,20.32-15.11C1185.07,677.73,1189.15,672.77,1194.09,669.2z"/>
				<path class="st4" d="M1166.01,596.04c-0.64,0.3-1.41,0.04-2.05-0.26c-2.36-1.1-4.42-2.9-5.84-5.1c0.74-1.05,1.72-1.93,2.82-2.59
					C1162.27,590.95,1163.99,593.62,1166.01,596.04z"/>
			</g>
			<path class="st133" d="M1125.89,427.24c-0.04,0.03-0.07,0.04-0.11,0.07c-3.53,2.16-7.64,3.11-11.65,4.09
				c-19.88,4.89-39.32,11.57-58,19.95c2.87-1.61,5.76-3.21,8.63-4.81c2.3-1.28,4.62-2.56,6.54-4.36c4.12-3.87,5.92-9.53,7.46-14.97
				c2.2-7.69,4.2-16.16,0.9-23.45c3.88-1.41,8.27,0.78,11.58,3.49c3.3,2.7,6.24,6.05,10.24,7.56c2.26,0.86,4.71,1.05,7.05,1.72
				c3.95,1.14,7.49,3.68,9.83,7.06c0.98,1.41,1.88,3.07,3.48,3.68c1.11,0.42,2.36,0.24,3.53,0.05
				C1125.54,427.3,1125.72,427.27,1125.89,427.24z"/>
			<g>
				<path class="st131" d="M1682.48,712.71c-0.03,6.75-0.68,13.49-1.95,20.17c-0.12,0.64-0.26,1.29-0.38,1.93
					c-0.25,1.21-0.52,2.43-0.82,3.64c-0.28,1.18-0.58,2.36-0.9,3.53c-0.19,0.67-0.39,1.34-0.58,2.01c-0.36,1.23-0.74,2.46-1.14,3.68
					c-0.2,0.6-0.4,1.22-0.62,1.83c-0.2,0.62-0.42,1.22-0.64,1.83c-0.44,1.25-0.91,2.5-1.41,3.73c-0.23,0.58-0.46,1.14-0.7,1.72
					c-0.63,1.54-1.3,3.07-2,4.59c-1.34,2.9-2.78,5.77-4.34,8.62c-0.62,1.13-1.25,2.24-1.91,3.36c-3.29,5.62-7.01,11.13-11.15,16.48
					c-89.93,48.99-179.87,97.97-269.8,146.97c-15.38,8.38-30.97,16.83-47.95,21.18c-16.97,4.34-35.74,4.2-52.38-4.27
					c-15.87-15.73-30.68-32.52-44.34-50.21c-8.24-10.7-16.08-21.74-24.98-31.91c-9.53-10.9-20.23-20.72-30.89-30.52
					c-4.32-3.97-8.66-7.96-13.49-11.29c-7.4-5.1-16.47-9.26-19.83-17.6c-1.03-2.59-1.42-5.4-2.43-8c-1.5-3.89-4.28-7.11-6.83-10.42
					c-9.41-12.24-15.89-26.42-22.31-40.46c-0.43-0.94-0.86-1.88-1.28-2.83c0-0.03-0.01-0.04-0.03-0.07
					c-0.21-0.5-0.42-0.98-0.62-1.48c-0.2-0.48-0.39-0.98-0.58-1.48c-0.19-0.51-0.38-1.03-0.55-1.56c-0.12-0.38-0.23-0.75-0.34-1.13
					c-0.04-0.11-0.07-0.21-0.09-0.32c-0.09-0.35-0.19-0.71-0.27-1.07c-0.07-0.32-0.15-0.66-0.2-0.99c-0.07-0.34-0.12-0.67-0.17-1.02
					c-0.78-5.49,0.63-11.26,3.7-15.89c0.31-0.4,0.62-0.81,0.75-1.18c0.59,0.99,1.18,1.99,1.74,2.98c0.08,0.12,0.15,0.26,0.21,0.38
					c0.4,0.68,0.78,1.37,1.15,2.07c0.56,1.03,1.11,2.08,1.65,3.14c0.35,0.67,0.68,1.34,1.01,2.01c0.13,0.23,0.24,0.46,0.34,0.68
					c0.58,1.14,1.11,2.3,1.62,3.46c0.42,0.94,0.82,1.88,1.21,2.83c0.32,0.77,0.63,1.53,0.93,2.31c0.26,0.64,0.5,1.29,0.74,1.93
					c0.16,0.46,0.32,0.91,0.48,1.38c0.19,0.52,0.36,1.05,0.55,1.58c0.24,0.74,0.47,1.46,0.7,2.2c5.05,0.12,10.09-0.47,14.99-1.69
					c1.95-0.48,3.88-1.07,5.77-1.76c12.05-4.34,22.75-12.52,29.69-23.32c1.57-2.43,2.99-5.21,2.56-7.97
					c-2.55-5.36-3.17-11.62-1.76-17.7c3.99,4.52,7.96,9.05,11.41,13.18c0.13,0,0.27,0,0.4,0.01c4.16,0.15,8.26,1.41,11.77,3.64
					c3.64,2.32,6.71,5.69,10.81,7.06c3.81,1.29,8.2,0.72,11.74,2.64c2.77,1.5,4.55,4.28,6.31,6.89c4.9,7.29,10.77,14.39,18.79,17.93
					c4.2,1.85,8.81,2.64,13.05,4.39c13.41,5.52,21.15,19.42,31.88,28.47c14.89,10.39,27.8,23.6,37.15,38.86
					c18.43-16.94,37.65-33.06,57.54-48.27c5.09-3.88,10.23-7.72,15.65-11.1c6.71-4.19,13.83-7.69,20.85-11.33
					c30.72-15.95,59.79-34.91,88.78-53.83c0.51-0.34,1.09-0.79,1.02-1.4c-0.01-0.09-0.05-0.17-0.12-0.24
					c8.77-7.64,17.32-15.65,26.63-25.42c13.36-28.16,24.09-57.57,32.03-87.7c0,0-24.04-115.81-23.46-117.45
					c13.88,13.03,28.9,22.87,41.5,30.24c21.26,12.43,54.55,20.55,73.49,26.54c3.09,0.98,5.79,1.89,7.99,2.77
					c-14.79,37.64-16.34,74.47-6.79,113.76c1.8,7.37,4,14.63,5.68,22.01c0.23,1.01,0.46,2,0.66,3.01c1.76,8.52,2.63,17.19,3.5,25.85
					C1681.73,697.08,1682.51,704.88,1682.48,712.71z"/>
				<path class="st134" d="M1680.16,734.81c-0.25,1.21-0.52,2.43-0.82,3.64c-0.28,1.18-0.58,2.36-0.9,3.53
					c-0.19,0.67-0.39,1.34-0.58,2.01c-0.36,1.23-0.74,2.46-1.14,3.68c-0.2,0.6-0.4,1.22-0.62,1.83c-0.2,0.62-0.42,1.22-0.64,1.83
					c-0.44,1.25-0.91,2.5-1.41,3.73c-0.23,0.58-0.46,1.14-0.7,1.72c-0.63,1.53-1.3,3.06-2,4.59c-1.34,2.9-2.78,5.77-4.34,8.62
					c-0.62,1.13-1.25,2.24-1.91,3.36c-3.29,5.62-7.01,11.13-11.15,16.48c-89.93,48.99-179.87,97.97-269.8,146.97
					c-15.38,8.38-30.97,16.83-47.95,21.18c-16.97,4.34-35.74,4.2-52.38-4.27c-15.87-15.73-30.68-32.52-44.34-50.21
					c-8.24-10.7-16.08-21.74-24.98-31.91c-9.53-10.9-20.23-20.72-30.89-30.52c-4.32-3.97-8.66-7.96-13.49-11.29
					c-7.4-5.1-16.47-9.26-19.83-17.6c-1.03-2.59-1.42-5.4-2.43-8c-1.5-3.89-4.28-7.11-6.83-10.42
					c-9.41-12.24-15.89-26.42-22.31-40.46c-0.43-0.94-0.86-1.88-1.28-2.83l-0.01-0.01c0-0.01,0-0.04-0.01-0.05
					c-0.21-0.5-0.42-0.98-0.62-1.48c-0.2-0.48-0.39-0.98-0.58-1.48c-0.19-0.51-0.38-1.03-0.55-1.56c-0.12-0.38-0.23-0.75-0.34-1.13
					c-0.04-0.11-0.07-0.21-0.09-0.32c-0.09-0.35-0.19-0.71-0.27-1.07c1.66-2.82,3.58-5.46,5.85-7.85c0.89-0.94,1.89-1.84,2.99-2.67
					c0.35,0.67,0.68,1.34,1.01,2.01c0.13,0.23,0.24,0.46,0.34,0.68c0.56,1.14,1.1,2.3,1.62,3.46c0.42,0.94,0.82,1.88,1.21,2.83
					c0.32,0.77,0.63,1.53,0.93,2.31c0.26,0.64,0.5,1.29,0.74,1.93c0.16,0.46,0.32,0.91,0.48,1.38c0.19,0.52,0.36,1.05,0.55,1.58
					c0.24,0.74,0.47,1.46,0.7,2.2c5.05,0.12,10.09-0.47,14.99-1.69c1.95-0.48,3.88-1.07,5.77-1.76c1.25,2.48,2.68,4.85,4.27,7.11
					c14.81,21.13,43.26,32.87,69.3,40.31c12.21,3.48,26.63,8.75,29.26,21.18c1.1,5.17-0.23,10.5-0.48,15.77
					c-0.7,14.72,7.14,28.81,17.79,38.99c10.64,10.19,23.92,17.1,37.01,23.88c11.09,5.75,22.19,11.49,33.28,17.25
					c2.62,1.34,5.32,2.72,8.25,2.89c7.42,0.42,13.05-7.14,14.3-14.47c4.83-28.34-31.93-49.89-30.26-78.59
					c10.05,19.38,20.94,38.35,32.62,56.81c1.62,2.55,3.52,5.3,6.43,6.07c2.5,0.66,5.1-0.31,7.49-1.3
					c95.68-39.54,165.97-132.42,267.05-154.83c10.16-2.26,22.21-3.21,29.73,3.81c0.2,0.19,0.4,0.38,0.59,0.58
					C1679.29,733.74,1679.74,734.26,1680.16,734.81z"/>
				<path class="st133" d="M1680.54,732.88c-0.12,0.64-0.26,1.29-0.38,1.93c-0.25,1.21-0.52,2.43-0.82,3.64
					c-0.28,1.18-0.59,2.35-0.9,3.53c-0.19,0.67-0.39,1.34-0.58,2.01c-0.36,1.23-0.74,2.46-1.14,3.68c-0.2,0.6-0.4,1.22-0.62,1.83
					c-0.2,0.62-0.42,1.22-0.64,1.83c-0.44,1.25-0.91,2.5-1.41,3.73c-0.23,0.58-0.46,1.14-0.7,1.72c-0.63,1.54-1.3,3.07-2,4.59
					c-1.34,2.9-2.78,5.77-4.34,8.62c-0.62,1.13-1.25,2.24-1.91,3.36c-3.29,5.62-7.01,11.13-11.15,16.48
					c-89.93,48.99-179.87,97.97-269.8,146.97c-15.38,8.38-30.97,16.83-47.95,21.18c-16.97,4.34-35.74,4.2-52.38-4.27
					c-15.87-15.73-30.68-32.52-44.34-50.21c-8.24-10.7-16.08-21.74-24.98-31.91c-9.53-10.9-20.23-20.72-30.89-30.52
					c-4.32-3.97-8.66-7.96-13.49-11.29c-7.4-5.1-16.47-9.26-19.83-17.6c-1.03-2.59-1.42-5.4-2.43-8c-1.5-3.89-4.28-7.11-6.83-10.42
					c-9.41-12.24-15.89-26.42-22.31-40.46c-0.43-0.94-0.86-1.88-1.28-2.83c0-0.03-0.01-0.04-0.03-0.07
					c-0.21-0.5-0.42-0.98-0.62-1.48c-0.2-0.48-0.39-0.98-0.58-1.48c-0.19-0.51-0.38-1.03-0.55-1.56c-0.12-0.38-0.23-0.75-0.34-1.13
					c-0.04-0.11-0.07-0.21-0.09-0.32c-0.09-0.35-0.19-0.71-0.27-1.07c-0.07-0.32-0.15-0.66-0.2-0.99c-0.07-0.34-0.12-0.67-0.17-1.02
					c-0.78-5.49,0.63-11.26,3.7-15.89c0.31-0.4,0.62-0.81,0.75-1.18c0.59,0.99,1.18,1.99,1.74,2.98c0.08,0.12,0.15,0.26,0.21,0.38
					c0.4,0.68,0.78,1.37,1.15,2.07c0.56,1.03,1.11,2.08,1.65,3.14c0.35,0.67,0.68,1.34,1.01,2.01c0.13,0.23,0.24,0.46,0.34,0.68
					c0.58,1.14,1.11,2.3,1.62,3.46c0.42,0.94,0.82,1.88,1.21,2.83c0.32,0.77,0.63,1.53,0.93,2.31c0.26,0.64,0.5,1.29,0.74,1.93
					c0.16,0.46,0.32,0.91,0.48,1.38c0.19,0.52,0.36,1.05,0.55,1.58c0.24,0.74,0.47,1.46,0.7,2.2c5.05,0.12,10.09-0.47,14.99-1.69
					c1.03,2.55,2.11,5.07,3.25,7.56c9.26,20.31,22.15,38.11,42.5,45.69c14.7,5.46,30.9,4.44,46.54,3.34
					c3.06,9.72-7.48,18.68-7.89,28.86c-0.46,10.91,10.17,18.43,18.48,25.52c13.13,11.22,22.62,25.97,33.8,39.13
					c11.18,13.15,25.14,25.3,42.15,28.2c26.24,4.46,50.36-13.8,70.83-30.81c44.64-37.05,90.52-73.76,143.33-97.79
					c35.66-16.23,74.59-26.75,105.84-50.4c9.87-7.46,21.62-16.59,32.98-16.19C1678.99,732.69,1679.77,732.76,1680.54,732.88z"/>
			</g>
			<path class="st135" d="M1671.1,638.44c1.8,7.37,4,14.63,5.68,22.01c-5.44-0.47-8.56-7.23-10.01-12.83
				c-10.16-39.18-15.11-81.8-0.04-119.36c0.87-2.17,1.88-4.4,3.18-6.35c3.09,0.98,5.79,1.89,7.99,2.77
				C1663.1,562.32,1661.56,599.15,1671.1,638.44z"/>
			<path class="st135" d="M1092.9,408.67c-0.78,14.56-3.23,29.34-13.18,39.58c-4,4.12-8.98,7.18-14.24,9.48
				c-9.85,4.28-20.83,5.91-31.5,4.66c-1.03-0.12-2.13-0.32-3.19-0.63c1.95-2.64,3.15-6,2.56-9.23c2.6,3.21,7.21,4.21,11.3,3.57
				c0.89-0.13,1.76-0.35,2.6-0.62c3.09-0.93,5.97-2.51,8.81-4.08c0.03-0.03,0.05-0.04,0.08-0.04c2.87-1.61,5.76-3.21,8.63-4.81
				c2.3-1.28,4.62-2.56,6.54-4.36c4.12-3.87,5.92-9.53,7.46-14.97c2.2-7.69,4.2-16.16,0.9-23.45c3.88-1.41,8.27,0.78,11.58,3.49
				C1091.81,407.71,1092.36,408.2,1092.9,408.67z"/>
			<path class="st132" d="M1184.91,752.6c10.33-6.84,19.34-15.67,26.39-25.87c5.65,3.97,6.15,12.72,2.6,18.65
				c-3.55,5.93-10.01,9.47-16.49,11.87c-5.21,1.93-10.94,3.29-16.29,1.82C1181.57,755.92,1183.29,753.67,1184.91,752.6z"/>
			<path class="st132" d="M1330.1,822.42c-8.52,16.1-16.33,34.02-13.21,51.97c1.82,0.03,2.99-1.86,3.72-3.52
				C1327.71,854.7,1329.26,836.73,1330.1,822.42z"/>
			<path class="st132" d="M1555.19,668.6c27.42,0.66,54.46,11.74,74.47,30.49C1602.73,690.5,1577.26,677.97,1555.19,668.6z"/>
			<path class="st132" d="M1553.35,675.84c4.69,8.74,9.38,17.47,14.07,26.21c1.43,2.66,2.88,5.36,4.96,7.55
				c2.08,2.19,4.89,3.86,7.91,3.91c0.51,0.01,1.06-0.04,1.45-0.37c0.83-0.68,0.46-2.01-0.02-2.97
				C1574.31,695.33,1558.42,686.29,1553.35,675.84z"/>
			<path class="st132" d="M1525.31,460.98c3.79,24.37,26.7,42.73,29.45,67.24c1.49,13.25-3.21,26.38-3.98,39.69
				c-0.64,11.08,1.45,22.14,1.44,33.23c-0.02,11.09-2.57,22.95-10.66,30.54c2.19-25.78,1.24-51.83-2.83-77.38
				c-1.62-10.16-3.94-20.69-10.53-28.58c-3.51-4.2-8.09-7.46-11.27-11.93c-3.17-4.45-4.74-9.81-6.11-15.09
				c-2.97-11.4-5.26-22.98-6.87-34.65c-0.63-4.58-0.6-10.33,3.48-12.5c3.39-1.8,7.64,0.15,10.32,2.89
				C1520.41,457.19,1522.27,460.71,1525.31,460.98z"/>
			<path class="st132" d="M1180.55,582.25c-0.19-15.01-0.38-30.03,0.54-45.02c0.36-5.84,0.94-11.87,3.76-16.99
				C1189.29,540.67,1187.38,562.43,1180.55,582.25z"/>
			<path class="st132" d="M1116.92,549.58c10.8,0.99,21.35,4.62,30.47,10.49c2.13,1.37,4.28,2.9,6.78,3.33
				c2.5,0.43,5.48-0.64,6.27-3.05c0.88-2.7-1.42-5.53-4.08-6.52c-2.66-0.99-5.59-0.75-8.41-1.04c-6.05-0.61-11.55-3.63-17.23-5.81
				C1125.04,544.79,1118.46,543.47,1116.92,549.58z"/>
			<path class="st132" d="M1195.49,599.07c3.12-8.16,6.98-17.13,14.99-20.63c2.64-1.15,5.53-1.6,8.38-2.03
				c1.71-0.26,3.42-0.52,5.13-0.78c0.74-0.11,1.52-0.22,2.2,0.1c1.72,0.81,1.27,3.41,0.28,5.03
				C1220.36,590.75,1206.09,592.24,1195.49,599.07z"/>
			<path class="st132" d="M1075.33,470.91c7.11-5.58,14.3-11.2,22.43-15.16c8.13-3.96,17.38-6.18,26.28-4.56
				c0.58,0.11,1.29,0.37,1.34,0.96c0.03,0.39-0.27,0.73-0.56,1c-5.14,4.92-12.1,7.35-18.83,9.65c-10.13,3.46-20.25,6.92-30.38,10.38
				C1074.07,473.72,1071.71,473.75,1075.33,470.91z"/>
		</g>
	</g>
</g>
</svg>
