<?xml version="1.0" encoding="utf-8"?>
<!-- Generator: Adobe Illustrator 27.0.0, SVG Export Plug-In . SVG Version: 6.00 Build 0)  -->
<svg version="1.1" id="Слой_1" xmlns="http://www.w3.org/2000/svg" xmlns:xlink="http://www.w3.org/1999/xlink" x="0px" y="0px"
	 viewBox="0 0 1500 916.65" style="enable-background:new 0 0 1500 916.65;" xml:space="preserve">
<style type="text/css">
	.st0{fill:#9BAFBD;}
	.st1{fill:#728694;}
	.st2{fill:#FDD5C8;}
	.st3{fill:#FEE4DB;}
	.st4{fill:#E0AFA1;}
	.st5{fill:#99685A;}
	.st6{fill:#AECCD1;}
	.st7{fill:#7A9CA1;}
	.st8{fill:#495B5E;}
	.st9{fill:url(#SVGID_1_);}
	.st10{fill:#E09F89;}
	.st11{fill:url(#SVGID_00000096054295638574389410000003612998102938536074_);}
	.st12{fill:#F6DCDD;}
	.st13{fill:#E39D9D;}
	.st14{fill:#FDACAE;}
	.st15{fill:#E2A094;}
	.st16{fill:#FEBEBE;}
	.st17{fill:#F16E2B;}
	.st18{fill:#DF523C;}
	.st19{fill:#E78B7C;}
	.st20{fill:url(#SVGID_00000101808799351143485820000000829267701963108245_);}
	.st21{fill:#E7DBE0;}
	.st22{fill:url(#SVGID_00000087392309142766015000000002818226586127648391_);}
	.st23{fill:url(#SVGID_00000078728307251219758800000006515511500430382215_);}
	.st24{fill:#E75742;}
	.st25{fill:#EEA755;}
	.st26{fill:#EEB3B2;}
	.st27{fill:#FA9DA5;}
	.st28{fill:#FABEB5;}
	.st29{fill:#F25026;}
	.st30{fill:url(#SVGID_00000136379034342560835100000004437357617190340794_);}
	.st31{fill:url(#SVGID_00000151503962174063540060000005149605871502402694_);}
	.st32{fill:url(#SVGID_00000093168068202650957860000014557977959841941150_);}
	.st33{fill:url(#SVGID_00000034082002912310703300000010092512934630894464_);}
	.st34{fill:url(#SVGID_00000180339279859996959380000018059977302708471447_);}
	.st35{fill:url(#SVGID_00000020392812905640784460000011382248335230085304_);}
	.st36{fill:url(#SVGID_00000173139037300495294990000017936541637046822031_);}
	.st37{fill:url(#SVGID_00000143609983740101198260000014159964071673707689_);}
	.st38{fill:url(#SVGID_00000179632170570534490690000009015685493816081323_);}
	.st39{fill:url(#SVGID_00000183231880534666227840000014183544104556007309_);}
	.st40{fill:url(#SVGID_00000149378661137583049370000007508755759898161557_);}
	.st41{fill:url(#SVGID_00000093888439355712736660000014131145244751124394_);}
	.st42{fill:url(#SVGID_00000029768089055994121890000003339433351077231541_);}
	.st43{fill:url(#SVGID_00000082351718460356692650000011775566589357591714_);}
	.st44{fill:url(#SVGID_00000054985719350592815720000007796713425820000410_);}
	.st45{fill:url(#SVGID_00000029734124105922087340000006123621130662043266_);}
	.st46{fill:url(#SVGID_00000146476155040274228880000006005458654550889351_);}
	.st47{fill:url(#SVGID_00000168111155732160745010000003474232686273786247_);}
	.st48{fill:url(#SVGID_00000156582939205092876790000003519339855373287837_);}
	.st49{fill:url(#SVGID_00000023245231094299350450000017288481525077465770_);}
	.st50{fill:url(#SVGID_00000005268816332403692830000002805410054856673970_);}
	.st51{fill:url(#SVGID_00000133491840112457840050000006056914366067693715_);}
	.st52{fill:url(#SVGID_00000076581301666125601250000009969869847110061737_);}
	.st53{fill:url(#SVGID_00000042701611741949859410000011229905133500468154_);}
	.st54{fill:url(#SVGID_00000155110430758004297020000010213846741714713218_);}
	.st55{fill:url(#SVGID_00000055666778768842118120000000438702020615086769_);}
	.st56{fill:url(#SVGID_00000081649849073283367860000012175204800749728651_);}
	.st57{fill:url(#SVGID_00000117637186935262169530000018072630189285869751_);}
	.st58{fill:url(#SVGID_00000083768704442031346710000012015882945163554486_);}
	.st59{fill:url(#SVGID_00000007415473655474835830000016689807887879078021_);}
	.st60{opacity:0.4;fill:url(#SVGID_00000183230144728282786040000008237222281344006566_);}
	.st61{fill:url(#SVGID_00000057123984933946591020000012407332835370377633_);}
	.st62{fill:url(#SVGID_00000072260861332289154680000015252454853046105229_);}
	.st63{fill:url(#SVGID_00000039854837343877077870000001243837422139257774_);}
	.st64{fill:url(#SVGID_00000052823943462759405250000015500368291302465440_);}
	.st65{fill:url(#SVGID_00000085938004592152003730000012831522721563827616_);}
	.st66{fill:url(#SVGID_00000155137140687647778680000017002320816211279756_);}
	.st67{fill:url(#SVGID_00000075144638935909511720000001417093563440134022_);}
	.st68{fill:url(#SVGID_00000036242187612737462100000002081717207545185427_);}
	.st69{fill:#AD0000;}
	.st70{fill:url(#SVGID_00000080189723198167247510000001152271013285947797_);}
	.st71{fill:url(#SVGID_00000112630770051244235910000001491990053500010646_);}
	.st72{fill:url(#SVGID_00000155839413317487981240000009790109501616670396_);}
	.st73{fill:url(#SVGID_00000055669394141436971820000017959649363209449127_);}
	.st74{fill:url(#SVGID_00000049934183445953867990000015807004480788993460_);}
	.st75{fill:#BF9184;}
	.st76{fill:none;stroke:#FDD5C8;stroke-miterlimit:10;}
	.st77{fill:url(#SVGID_00000166659136540228454080000010298519341390729907_);}
	.st78{fill:url(#SVGID_00000173863413103142916530000016970036664625144506_);}
	.st79{fill:url(#SVGID_00000153695170686049623750000008079250792800137910_);}
	.st80{fill:url(#SVGID_00000018216150509222784650000008627574415608570252_);}
	.st81{fill:url(#SVGID_00000179641399965215459870000002749977877545770883_);}
	.st82{fill:url(#SVGID_00000047762661229802263100000002010879040768331443_);}
	.st83{fill:url(#SVGID_00000016037027462883239750000004002690415188159653_);}
	.st84{fill:url(#SVGID_00000090991449697071777550000008944459949796770950_);}
	.st85{fill:url(#SVGID_00000039099561560485175010000004262912530260322739_);}
	.st86{fill:url(#SVGID_00000025415891694059470490000001730783714035893396_);}
	.st87{fill:none;stroke:#E0AFA1;stroke-miterlimit:10;}
	.st88{fill:#59767A;}
	.st89{fill:none;}
	.st90{fill:#314042;}
	.st91{fill:url(#SVGID_00000019671829628048904190000010080255053818695575_);}
	.st92{fill:url(#SVGID_00000181803905500212512360000009322736223486169269_);}
	.st93{fill:url(#SVGID_00000142137515862301994860000016699204340393281691_);}
	.st94{fill:url(#SVGID_00000101061774220180780920000009401551726488455865_);}
	.st95{fill:url(#SVGID_00000006666560960564097980000014293788366958717067_);}
	.st96{fill:none;stroke:#99685A;stroke-miterlimit:10;}
	.st97{fill:#F2CEC4;}
	.st98{fill:#E1AFA1;}
	.st99{fill:url(#SVGID_00000119806658557785432660000012617992945844622498_);}
	.st100{fill:url(#SVGID_00000047745510805121037170000006084921657732894650_);}
	.st101{fill:url(#SVGID_00000161612971018502972440000004277242356169188005_);}
	.st102{fill:url(#SVGID_00000035510588974077823980000006504948447383691693_);}
	.st103{fill:url(#SVGID_00000109030030310619369690000000270359822318413481_);}
	.st104{fill:url(#SVGID_00000103947735387020277600000004454914992450227886_);}
	.st105{fill:url(#SVGID_00000158010077629567206190000003046987184551829922_);}
	.st106{fill:url(#SVGID_00000107551405915611972580000005264384813448814737_);}
	.st107{fill:url(#SVGID_00000023991416217721468280000015024313512335052947_);}
	.st108{fill:url(#SVGID_00000179646507518899446720000000693334527755908283_);}
	.st109{fill:#E39F8D;}
	.st110{fill:#C2553C;}
	.st111{fill:url(#SVGID_00000147943050385410403660000015740011757453099692_);}
	.st112{fill:url(#SVGID_00000176009367179080978350000011013374338594372755_);}
	.st113{fill:url(#SVGID_00000138558463973820965090000008346958844189272254_);}
	.st114{fill:#AD4024;}
	.st115{fill:url(#SVGID_00000146472562433830491340000016563793328086345127_);}
	.st116{fill:url(#SVGID_00000109727973050860911260000002274278394621734582_);}
	.st117{fill:url(#SVGID_00000160906916778409659560000008155071884738903701_);}
	.st118{opacity:0.5608;fill:#FFFFFF;}
	.st119{fill:#FFFFFF;}
	.st120{fill:#FFF1ED;}
	.st121{fill:#E6D7D3;}
	.st122{opacity:0.4392;fill:#E0AFA1;}
	.st123{fill:#FFD3C7;}
	.st124{opacity:0.3412;fill:#AAAD66;}
	.st125{opacity:0.2314;fill:#FFFFFF;}
	.st126{fill:#23282B;}
	.st127{fill:none;stroke:#99685A;stroke-linecap:round;stroke-linejoin:round;stroke-miterlimit:10;}
	.st128{fill:#495760;}
	.st129{fill:#353A3E;}
	.st130{fill:#3A474F;}
	.st131{fill:#709EB8;}
	.st132{fill:#8BB0C5;}
	.st133{fill:#31556B;}
	.st134{fill:#4E768F;}
	.st135{fill:#263F4F;}
	.st136{fill:#576975;}
	.st137{fill:none;stroke:#3A474F;stroke-miterlimit:10;}
	.st138{fill:#2F3943;}
	.st139{fill:#C78D7D;}
	.st140{fill:#421D13;}
	.st141{fill:#5E3E35;}
	.st142{fill:#806158;}
	.st143{fill:#EFC3B6;}
	.st144{fill:#C79789;}
	.st145{fill:none;stroke:#EFC3B6;stroke-miterlimit:10;}
	.st146{fill:#69483F;}
	.st147{fill:none;stroke:#806158;stroke-width:3;stroke-linecap:round;stroke-linejoin:round;stroke-miterlimit:10;}
	.st148{fill:#E8E8E8;}
	.st149{fill:#BACAD9;}
	.st150{fill:#694034;}
	.st151{fill:#658F85;}
	.st152{fill:#407065;}
	.st153{fill:#323C42;}
	.st154{fill:#B4CADE;}
	.st155{opacity:0.3294;fill:#C75B63;}
	.st156{fill:none;stroke:#5E3E35;stroke-width:4;stroke-linecap:round;stroke-linejoin:round;stroke-miterlimit:10;}
	.st157{fill:#4C6270;}
	.st158{fill:#7A4A3D;}
	.st159{fill:#252E37;}
	.st160{fill:#3E4852;}
	.st161{fill:none;stroke:#E0AFA1;stroke-linecap:round;stroke-linejoin:round;stroke-miterlimit:10;}
	.st162{fill:#BA8677;}
	.st163{fill:#313B45;}
	.st164{fill:none;stroke:#4E768F;stroke-miterlimit:10;}
	.st165{fill:#193646;}
	.st166{opacity:0.1882;fill:#FFFFFF;}
	.st167{fill:none;stroke:#421D13;stroke-miterlimit:10;}
	.st168{opacity:0.2196;fill:#1390D4;}
	.st169{opacity:0.2392;fill:#027DCF;}
	.st170{opacity:0.3216;fill:#FFFFFF;}
	.st171{fill:#CFCFCF;}
	.st172{fill:url(#SVGID_00000061442031846898335480000017426706140489436588_);}
	.st173{fill:url(#SVGID_00000066510809476593094220000012360489386613255077_);}
	.st174{opacity:0.749;fill:url(#SVGID_00000096766839133206897210000013593321409579893674_);}
	.st175{fill:url(#SVGID_00000140736686369114505260000012639377848754462082_);}
	.st176{fill:url(#SVGID_00000166647969994012674320000007051932977219802764_);}
	.st177{fill:#821111;}
	.st178{fill:url(#SVGID_00000151544886889624665660000015652907329903705992_);}
	.st179{fill:#BC0002;}
	.st180{fill:url(#SVGID_00000070823161610745240520000002136426993667034804_);}
	.st181{fill:url(#SVGID_00000056397561559815528670000003394417256312197816_);}
	.st182{fill:url(#SVGID_00000117641856887061301680000011271520783304322216_);}
</style>
<g>
	<path class="st0" d="M0,1.21v915.44h1500V1.21H0z M1430,81.46c-2.12,0.58-4.2,1.27-6.23,2.06c-0.57,0.22-1.13,0.45-1.69,0.68
		c-0.16,0.06-0.33,0.13-0.49,0.21c-0.52,0.22-1.05,0.45-1.56,0.69c-0.01,0-0.01,0-0.01,0c-0.59,0.26-1.17,0.54-1.75,0.82
		c-1.89,0.92-3.74,1.92-5.56,3c-0.59,0.35-1.18,0.7-1.77,1.07c-2.87,1.79-5.66,3.76-8.35,5.87c-0.59,0.45-1.17,0.92-1.75,1.4"/>
	<g>
		<path class="st2" d="M1500,1.21v77.75c-8.59-0.3-17.19-0.46-25.79-0.51c-5.2-0.03-10.4-0.02-15.6,0.05
			c-9.13,0.1-18.35,0.36-27.21,2.59c-0.47,0.12-0.93,0.24-1.4,0.37c-2.12,0.58-4.2,1.27-6.23,2.06c-0.57,0.22-1.13,0.45-1.69,0.68
			c-0.16,0.06-0.33,0.13-0.49,0.21c-0.52,0.22-1.05,0.45-1.56,0.69c-0.01,0-0.01,0-0.01,0c-0.59,0.26-1.17,0.54-1.75,0.82
			c-1.89,0.92-3.74,1.92-5.56,3c-0.59,0.35-1.18,0.7-1.77,1.07c-2.87,1.79-5.66,3.76-8.35,5.87c-0.59,0.45-1.17,0.92-1.75,1.4
			c0,0,0,0-0.01,0c-8.91,7.24-16.92,15.95-24.32,24.71c-21.49,25.39-40.59,52.8-56.98,81.75c-24.37,43.04-40.39,93.29-80.81,121.79
			c-25.22,17.78-54.51,29.5-84.99,37.57c-19.16,5.07-38.8,8.71-58.19,11.5c-16.3,1.08-33.82,0.36-51.27-1.3
			c-10.69-1.03-21.43-2.41-32.12-1.37c-1.79,0.18-3.56,0.41-5.31,0.72c-2.63,0.43-5.23,1-7.8,1.66c-6.36,1.63-12.59,3.82-18.75,6.08
			c-27.58,10.15-54.63,22.06-83.21,28.91c-8.79,0.46-16.96,3.3-24.77,7.33c-8.91,4.61-17.33,10.79-25.62,16.85
			c-0.4,0.28-0.8,0.57-1.18,0.86c-1.92,1.4-3.84,2.79-5.75,4.14c-46.7,33.09-102.64,50.28-158.12,64.32
			c-58.6,14.23-121.26,16.16-176.37,41.64c-26.15,11.23-52.98,21.57-80.17,30.83c-22.75,7.74-46.75,15.32-63.63,32.45
			c-10.34,5.62-19.33,13.17-29.23,19.32c-6.67,4.16-13.75,7.63-21.1,10.41c-20.51,7.77-43.1,10.07-64.72,6.33
			c-3.86-0.44-7.71-0.49-11.56-0.26c-7.67,0.41-15.36,1.9-23.05,3.47c-0.01,0.01-0.02,0.02-0.03,0.01c0,0,0,0-0.01-0.01
			c-0.33,0.08-0.63,0.15-0.96,0.22h-0.08c-0.04,0-0.09,0.02-0.13,0.03l-2.31,0.48c-6.67,1.37-13.34,2.7-20.07,3.39
			c-9.63,0.98-19.33,0.59-29,0.22c-2.92-0.12-6.01-0.3-8.85-1c-2.77-0.69-5.31-1.86-7.26-3.92c-1.25-1.32-2.2-2.97-3.22-4.51
			c-1.31-2.01-2.71-3.85-4.91-4.64c-1.27-0.47-2.69-0.5-3.97-0.92c-0.34-0.11-0.66-0.25-0.98-0.43c-1.58-0.9-2.42-2.71-2.76-4.5
			c-0.89-4.63,1.22-9.71,5.12-12.35c1.43-0.97,2.97-1.6,4.57-1.97c0.01,0,0.02,0,0.03-0.01c5.91-1.32,12.75,0.88,19.11,2.11
			c0.33,0.07,0.67,0.13,1,0.19c1.58,0.28,3.17,0.47,4.76,0.59c4.67,0.37,9.37,0.08,14.04-0.57c6.7-0.93,13.37-2.62,19.91-4.29
			c8.73-2.25,17.49-4.51,25.84-7.89c0.01,0,0.01-0.01,0.01-0.01h0.01c0.01,0,0.01,0,0.01,0c0.49-0.2,0.96-0.38,1.45-0.59
			c0.79-0.33,1.59-0.68,2.37-1.04c0.6-0.28,1.2-0.55,1.8-0.84c-0.43-0.03-0.85-0.05-1.28-0.07c-0.14,0-0.28-0.01-0.42-0.01
			c-0.14-0.01-0.29-0.01-0.43-0.01c-0.14-0.01-0.29-0.01-0.43-0.01c-4.25-0.03-8.45,0.59-12.63,1.48h-0.01
			c-5.32,1.14-10.59,2.71-15.87,3.99c-0.01,0-0.01,0-0.02,0.01c-0.14,0.03-0.26,0.06-0.39,0.09c-1.06,0.25-2.13,0.49-3.2,0.72
			s-2.14,0.45-3.22,0.65c-1.06,0.21-2.13,0.4-3.2,0.58h-0.03c-1.07,0.19-2.15,0.36-3.24,0.52c-0.15,0.03-0.29,0.05-0.44,0.07
			c-0.17,0.03-0.35,0.05-0.52,0.07c-0.23,0.04-0.47,0.07-0.7,0.1c-0.02,0.01-0.03,0.01-0.05,0c-0.01,0.01-0.02,0-0.02,0
			c-0.48,0.07-0.96,0.14-1.44,0.2c-0.18,0.03-0.37,0.05-0.56,0.08c-0.5,0.07-1.01,0.13-1.52,0.19c-0.4,0.05-0.8,0.1-1.19,0.14
			c-0.38,0.05-0.75,0.09-1.13,0.12c-0.65,0.08-1.31,0.15-1.97,0.22c-0.66,0.07-1.32,0.13-1.99,0.19c-1.08,0.1-2.17,0.2-3.26,0.29
			c-1.6,0.14-3.21,0.26-4.81,0.37c-1.1,0.07-2.19,0.13-3.29,0.2c-1.37,0.08-2.74,0.16-4.11,0.23c-2.74,0.14-5.48,0.26-8.21,0.37
			c-1.37,0.06-2.74,0.12-4.11,0.17c-0.33,0.01-0.66,0.02-1,0.04c-2.72,0.1-5.45,0.17-8.17-0.05h-0.01
			c-0.46-0.03-0.91-0.08-1.37-0.13c-0.02,0-0.05-0.01-0.07-0.01c-6.11-0.76-11.87-3.21-17.54-5.64c-0.94-0.39-1.9-0.81-2.85-1.28
			h-0.01c-3.12-1.48-6.12-3.28-8.05-5.91c-0.57-0.79-1.06-1.65-1.41-2.6c-0.25-0.7-0.43-1.41-0.52-2.13
			c-0.66-4.83,2.27-9.97,6.5-12.65c0.53-0.33,1.06-0.64,1.62-0.92h0.01c0.59-0.29,1.2-0.56,1.82-0.78c0.29-0.11,0.59-0.21,0.88-0.31
			c0.3-0.1,0.6-0.19,0.9-0.27c0.29-0.08,0.58-0.16,0.88-0.22c0.31-0.08,0.63-0.15,0.95-0.21c0.03,0,0.05-0.01,0.08-0.01
			c0.29-0.06,0.57-0.11,0.86-0.15c0.28-0.04,0.55-0.08,0.83-0.11c0.2-0.03,0.4-0.05,0.6-0.07c0.44-0.05,0.89-0.08,1.33-0.11
			c0.04-0.01,0.08-0.01,0.12-0.01c0,0,0,0,0.01,0c0.1-0.01,0.21-0.01,0.31-0.01c0.24-0.02,0.49-0.03,0.74-0.03
			c1.58-0.05,3.17,0.01,4.73,0.14c0.28,0.02,0.54,0.05,0.82,0.08c2.39,0.24,4.78,0.56,7.18,0.49c0.15,0,0.31-0.01,0.46-0.03
			c0.08,0,0.16,0,0.24-0.01c0.1,0,0.19-0.01,0.29-0.02c0.06,0,0.12,0,0.18-0.01c0.02,0,0.04,0,0.07-0.01
			c0.01,0.01,0.01,0.01,0.02,0.01c0.01,0,0.02,0,0.02-0.01c0.11,0,0.21-0.01,0.31-0.03c0.1-0.01,0.21-0.02,0.31-0.03
			c0.19-0.02,0.37-0.05,0.55-0.08c0.03,0,0.05-0.01,0.07-0.01c0.03-0.01,0.06-0.01,0.08-0.02h0.01c0.1-0.01,0.2-0.03,0.31-0.05
			c0.25-0.04,0.5-0.09,0.74-0.15c0.55-0.11,1.09-0.25,1.63-0.39c0.23-0.06,0.46-0.12,0.69-0.18c0.48-0.13,0.96-0.26,1.44-0.4
			c0.48-0.13,0.97-0.26,1.45-0.38c0.3-0.07,0.59-0.14,0.89-0.2c0.22-0.06,0.43-0.1,0.65-0.15c0.07-0.01,0.13-0.03,0.2-0.04
			c0.29-0.06,0.59-0.11,0.88-0.17c0.03,0,0.06-0.01,0.09-0.01c0.01-0.01,0.02-0.01,0.04-0.01c0.01,0,0.02-0.01,0.02-0.01
			c0.29-0.05,0.58-0.09,0.86-0.14c0.14-0.03,0.29-0.05,0.44-0.07c0.45-0.08,0.91-0.14,1.37-0.2v0.01c0.01,0,0.01,0,0.01,0
			c0,0.01,0.01,0.01,0.01,0c0,0,0.01,0,0.01-0.01h0.08c0.31-0.04,0.61-0.08,0.92-0.11c0.19-0.03,0.37-0.05,0.56-0.07
			c1.77-0.19,3.55-0.33,5.34-0.46c0.35-0.02,0.7-0.04,1.05-0.07h0.01c0.24-0.02,0.48-0.04,0.72-0.06c4.67-0.34,9.34-0.78,14.01-1.3
			c0.27-0.03,0.54-0.06,0.81-0.09c0.22-0.02,0.46-0.05,0.69-0.09c0.01,0,0.01,0,0.02,0h0.09c1-0.11,2-0.23,3-0.35
			c0.33-0.04,0.67-0.08,1-0.13h0.01c1.07-0.13,2.13-0.27,3.19-0.41c0.78-0.11,1.55-0.22,2.33-0.33c2.29-0.31,4.58-0.65,6.87-1.02
			c0.39-0.06,0.77-0.12,1.16-0.18c0.28-0.04,0.56-0.09,0.83-0.14c2.23-0.36,4.45-0.74,6.66-1.15c1.17-0.21,2.33-0.43,3.49-0.65
			c1.14-0.22,2.28-0.44,3.42-0.67c0.02,0,0.04,0,0.06-0.01c0.01,0.01,0.01,0.01,0.01,0c1.15-0.22,2.29-0.46,3.43-0.7
			c1.54-0.32,3.07-0.65,4.6-0.99c1.43-0.31,2.86-0.64,4.3-0.97c-0.07-0.18-0.14-0.35-0.21-0.52c-0.02-0.05-0.04-0.09-0.05-0.14
			c-0.28-0.69-0.55-1.39-0.82-2.08c-0.19-0.46-0.37-0.93-0.56-1.39c-1.05,0.11-2.09,0.21-3.14,0.3c-1.05,0.1-2.09,0.19-3.14,0.27
			c-0.32,0.03-0.63,0.06-0.95,0.08c-0.29,0.03-0.58,0.06-0.87,0.08c-0.82,0.06-1.64,0.12-2.46,0.18c-0.01,0-0.01,0-0.02,0h-0.01
			c-0.05,0-0.11,0.01-0.16,0.01c-0.01,0.01-0.02,0.01-0.03,0c-0.73,0.05-1.46,0.09-2.19,0.14c-0.13,0.02-0.26,0.02-0.38,0.03
			c-0.51,0.04-1.04,0.06-1.55,0.09c-0.07,0.01-0.14,0.01-0.21,0.01c-0.73,0.04-1.46,0.08-2.19,0.11c-0.32,0.02-0.64,0.03-0.96,0.05
			c-0.86,0.03-1.72,0.07-2.59,0.11c-0.56,0.02-1.13,0.04-1.7,0.05c-0.59,0.02-1.17,0.04-1.75,0.05c-0.27,0.01-0.53,0.01-0.8,0.02
			c-0.93,0.03-1.86,0.04-2.79,0.05c-0.06,0.01-0.12,0.01-0.18,0c-0.01,0.01-0.01,0.01-0.02,0c-0.01,0.01-0.02,0.01-0.03,0
			c-0.01,0.01-0.01,0.01-0.02,0c-0.01,0.01-0.01,0.01-0.02,0h-0.01c-0.82,0.02-1.65,0.03-2.47,0.03h-0.01
			c-1.64,0.02-3.28,0.02-4.92-0.01c-0.69,0-1.37-0.01-2.07-0.02c-0.4,0-0.79,0-1.19-0.02c-0.56-0.01-1.11-0.02-1.65-0.03
			c-0.46-0.01-0.93-0.02-1.39-0.03h-0.01c-1.9-0.05-3.79-0.13-5.69-0.22h-0.01c-1.45-0.07-2.89-0.14-4.34-0.23
			c-0.35-0.02-0.7-0.04-1.05-0.07c-7.01-0.43-14.02-1.12-21.01-2.04c-0.4-0.04-0.8-0.09-1.19-0.16c-3.33-0.44-6.64-0.95-9.95-1.5
			c-0.35-0.06-0.69-0.12-1.04-0.18c-0.27-0.05-0.55-0.09-0.82-0.14c-1.43-0.25-2.88-0.52-4.31-0.84c-3.46-0.78-6.82-1.89-9.71-3.9
			c-1.62-1.13-3.06-2.62-4.11-4.3c-0.25-0.38-0.47-0.77-0.67-1.17c-0.32-0.62-0.58-1.27-0.78-1.92c-0.06-0.16-0.1-0.32-0.14-0.48
			c-0.04-0.13-0.07-0.27-0.1-0.41c-0.09-0.4-0.16-0.81-0.2-1.23c-0.02-0.14-0.03-0.29-0.04-0.44c-0.03-0.49-0.02-0.98,0.03-1.47
			c0.01-0.12,0.02-0.23,0.04-0.35c0.02-0.18,0.05-0.36,0.09-0.54c0,0,0-0.01,0-0.02c0.03-0.15,0.06-0.3,0.1-0.45
			c0.12-0.48,0.28-0.95,0.47-1.4h0.01c0.09-0.2,0.18-0.4,0.28-0.6c0.05-0.1,0.1-0.2,0.15-0.29c0-0.01,0-0.02,0.01-0.02
			c0.04-0.08,0.08-0.16,0.13-0.23c0-0.01,0.01-0.03,0.03-0.04c0.05-0.08,0.1-0.17,0.15-0.25c0.15-0.25,0.31-0.5,0.5-0.73
			c0.09-0.13,0.19-0.25,0.29-0.37c0.1-0.14,0.22-0.28,0.34-0.4c0.1-0.12,0.21-0.24,0.33-0.36c0.47-0.49,0.98-0.95,1.53-1.35
			c0.18-0.14,0.36-0.27,0.55-0.4c0.12-0.09,0.25-0.17,0.37-0.25c0.18-0.12,0.35-0.23,0.54-0.33c0.16-0.09,0.32-0.19,0.48-0.27
			c0.71-0.39,1.46-0.72,2.21-0.99c2.34-0.83,4.8-1.2,7.29-1.36c1.6-0.11,3.22-0.15,4.82-0.17c2.11-0.03,4.22-0.07,6.33-0.1
			c1.03-0.02,2.05-0.03,3.08-0.05c0.45-0.02,0.91-0.03,1.36-0.03c12.57-0.21,25.13-0.42,37.69-0.62c0.4-0.02,0.8-0.02,1.19-0.03
			c5.71-0.09,11.4-0.18,17.1-0.28h0.05c0.01,0,0.02,0,0.02,0c0.7-0.01,1.4-0.02,2.1-0.03c0.01,0,0.01,0,0.01,0
			c3.45-0.06,6.91-0.11,10.36-0.17c0.28-0.01,0.54-0.01,0.82-0.02c1.02-0.04,2.09-0.12,3.13-0.28c0.43-0.05,0.85-0.12,1.26-0.21
			c0.41-0.09,0.82-0.19,1.21-0.31c0.04-0.01,0.08-0.02,0.12-0.04h0.01c0.01-0.01,0.01-0.01,0.02-0.01h0.01
			c0.03,0,0.06-0.01,0.09-0.02c0.32-0.1,0.63-0.22,0.92-0.34c0.01-0.01,0.01-0.01,0.02-0.01c0.29-0.13,0.57-0.26,0.84-0.41
			c0.02-0.01,0.03-0.01,0.04-0.02c0.13-0.06,0.25-0.14,0.37-0.22c0.28-0.17,0.54-0.35,0.78-0.56c0.08-0.06,0.16-0.13,0.23-0.19
			c0.1-0.09,0.2-0.19,0.29-0.28c0.12-0.13,0.25-0.27,0.36-0.41c0.32-0.39,0.6-0.83,0.82-1.32c-0.39-0.03-0.79-0.06-1.17-0.09
			c-0.5-0.05-1-0.09-1.5-0.13c-2.15-0.2-4.3-0.38-6.46-0.55c-1.75-0.15-3.49-0.28-5.24-0.4c-0.79-0.06-1.58-0.12-2.37-0.16
			c-3.22-0.23-6.45-0.43-9.67-0.61h-0.01c-0.43-0.03-0.86-0.05-1.3-0.07c-6.99-0.38-13.99-0.66-20.99-0.83
			c-1.74-0.04-3.48-0.07-5.21-0.1c-0.37-0.01-0.73-0.01-1.1-0.02c-0.24,0-0.48-0.01-0.72-0.01c-0.48-0.01-0.95-0.03-1.43-0.03h-0.01
			c-0.15-0.01-0.3-0.01-0.45-0.01c-3.85-0.05-7.81-0.09-11.49-1.09h-0.01c-1.17-0.32-2.31-0.73-3.41-1.27
			c-0.37-0.17-0.71-0.37-1.06-0.59h-0.01c-4.03-2.46-6.95-7.18-5.75-11.68c0.05-0.17,0.09-0.33,0.15-0.49
			c0.11-0.33,0.23-0.64,0.37-0.94c0.06-0.13,0.13-0.27,0.2-0.4c0.16-0.3,0.34-0.59,0.53-0.87c0.12-0.17,0.25-0.34,0.39-0.5
			l-0.01-0.01h0.01c0.27-0.34,0.56-0.66,0.88-0.96c0.08-0.08,0.16-0.15,0.25-0.23c0.9-0.81,1.97-1.49,3.13-2.06
			c0.29-0.14,0.59-0.28,0.89-0.41c0.95-0.4,1.95-0.74,2.97-1.03c0.09-0.02,0.18-0.05,0.28-0.08c0.99-0.27,1.99-0.49,2.99-0.67
			c0.01,0,0.01-0.01,0.02,0c0.84-0.15,1.68-0.28,2.48-0.39c0.18-0.02,0.36-0.05,0.54-0.07h0.01c2.38-0.31,4.76-0.6,7.15-0.86
			c0.01,0,0.01,0,0.01,0h0.04c0.01,0,0.01,0,0.02,0c0.01,0,0.02,0,0.02-0.01c0.42-0.05,0.83-0.09,1.25-0.14
			c0.45-0.05,0.89-0.1,1.34-0.14c2.48-0.26,4.97-0.51,7.47-0.72h0.01c4.41-0.38,8.82-0.69,13.23-0.92c3-0.17,6.01-0.3,9.01-0.39
			c0.39-0.02,0.79-0.03,1.17-0.03c0.54-0.02,1.07-0.04,1.6-0.05c1.25-0.03,2.5-0.06,3.75-0.07c0,0,0-0.01,0.01,0
			c1.11-0.03,2.22-0.04,3.34-0.04c3.52-0.04,7.04-0.02,10.57,0.05l1.47,0.03c0.92,0.02,1.85,0.04,2.78,0.07
			c0.89,0.02,1.79,0.05,2.68,0.09c0.69,0.02,1.37,0.04,2.06,0.07c0.85,0.03,1.69,0.07,2.54,0.11c0.95,0.04,1.9,0.09,2.85,0.14
			c0.94,0.05,1.88,0.1,2.82,0.16c0.4,0.02,0.81,0.06,1.22,0.08c0.3,0.02,0.61,0.04,0.9,0.06c0.99,0.06,1.98,0.13,2.97,0.21
			c0.57,0.03,1.13,0.08,1.7,0.12c2.06-0.62,4.14-1.25,6.23-1.86c2.29-0.68,4.6-1.35,6.92-2c2.43-0.68,4.88-1.36,7.35-2
			c1.78-0.47,3.57-0.93,5.38-1.37c1.1-0.27,2.2-0.54,3.31-0.79c0.1-0.03,0.2-0.06,0.31-0.07c0.84-0.2,1.69-0.39,2.54-0.58
			c1.07-0.24,2.15-0.48,3.23-0.71s2.16-0.45,3.24-0.66c0.97-0.2,1.95-0.39,2.92-0.57c1.27-0.23,2.53-0.45,3.8-0.66
			c0.62-0.1,1.26-0.21,1.89-0.3c0.74-0.12,1.49-0.23,2.24-0.34c0.46-0.07,0.91-0.14,1.37-0.2c1.42-0.2,2.83-0.38,4.25-0.54
			c0.39-0.04,0.78-0.09,1.17-0.13c0.54-0.06,1.07-0.11,1.61-0.17c0.14-0.01,0.28-0.02,0.43-0.04c0.75-0.07,1.5-0.14,2.26-0.19
			c1.25-0.11,2.51-0.2,3.77-0.28c0.58-0.03,1.16-0.06,1.74-0.09c0.15-0.01,0.3-0.01,0.46-0.02c0.82-0.04,1.65-0.07,2.47-0.09
			c0.71-0.02,1.41-0.04,2.12-0.05c2.75-0.04,5.51,0,8.26,0.1c0.39,0.01,0.79,0.02,1.18,0.04c1.28,0.04,2.56,0.1,3.84,0.16
			c1.82,0.09,3.64,0.19,5.46,0.29c1.32,0.07,2.64,0.14,3.96,0.21c1.32,0.07,2.64,0.14,3.96,0.2c0.75,0.04,1.5,0.07,2.24,0.1
			c3.31,0.14,6.62,0.23,9.93,0.21c1.26,0,2.52-0.02,3.78-0.06c1.67-0.47,3.33-0.95,5-1.43c1.3-0.37,2.61-0.75,3.91-1.13
			c3.63-1.05,7.26-2.12,10.9-3.22c0.92-0.27,1.85-0.55,2.78-0.84c2.7-0.81,5.41-1.63,8.14-2.48c0.29-0.08,0.58-0.17,0.88-0.27
			c1.84-0.57,3.69-1.14,5.55-1.72c0.52-0.16,1.04-0.32,1.55-0.48c2.38-0.74,4.77-1.49,7.16-2.25c3.6-1.14,7.22-2.3,10.88-3.47
			c21.76-11.03,43.21-22.66,63.89-34.79c2.45-1.29,4.91-2.59,7.36-3.9c0.76-0.4,1.53-0.8,2.29-1.22c1.31-0.69,2.61-1.38,3.91-2.08
			c1.3-0.69,2.6-1.39,3.9-2.09c5.81-3.11,11.6-6.24,17.37-9.38c0,0,0.01,0.01,0.01,0c5.37-2.91,10.72-5.83,16.05-8.75
			c4.96-2.72,9.91-5.43,14.84-8.14c8.53-4.68,16.99-9.34,25.39-13.93h0.01c3.17-1.74,6.32-3.47,9.47-5.18
			c6.3-3.58,12.69-7.02,19.14-10.31c1.33-0.68,2.68-1.36,4.02-2.02c1.05-0.53,2.1-1.05,3.16-1.57c1.02-0.51,2.04-1,3.06-1.49
			c0.88-0.43,1.77-0.85,2.66-1.27c0.36-0.18,0.72-0.35,1.08-0.51c1.82-0.87,3.65-1.72,5.48-2.55c0.73-0.34,1.47-0.68,2.21-1.01
			c1.4-0.63,2.79-1.26,4.19-1.87c1.03-0.46,2.08-0.91,3.11-1.36c1.27-0.55,2.53-1.09,3.8-1.63c2.69-1.14,5.39-2.26,8.09-3.34
			c0.9-0.37,1.8-0.72,2.7-1.08c0.95-0.38,1.9-0.76,2.85-1.12c0.95-0.37,1.91-0.74,2.86-1.1c0.16-0.07,0.32-0.14,0.49-0.19
			c1.01-0.39,2.02-0.78,3.03-1.15c3.5-1.31,7-2.58,10.5-3.8c24.04-2.53,43.68-20.28,66.87-27.14c0.67-0.2,1.34-0.39,2.02-0.57
			c0.38-0.11,0.76-0.21,1.14-0.29c0.38-0.1,0.76-0.19,1.15-0.28c0.13-0.04,0.27-0.08,0.4-0.1c0.84-0.2,1.67-0.39,2.51-0.56
			c0.87-0.18,1.76-0.34,2.64-0.51c0.79-0.14,1.58-0.29,2.37-0.41c1.01-0.17,2.04-0.33,3.08-0.48c0.57-0.09,1.13-0.17,1.7-0.24
			c1.42-0.2,2.84-0.39,4.27-0.57c1.76-0.22,3.51-0.43,5.27-0.65c1.55-0.19,3.1-0.37,4.65-0.58c0.98-0.14,1.96-0.27,2.95-0.41
			c0.94-0.13,1.89-0.28,2.83-0.43c0.94-0.14,1.87-0.3,2.8-0.48c0.93-0.15,1.85-0.34,2.77-0.52c0.13-0.03,0.25-0.05,0.37-0.08
			c0.39-0.08,0.78-0.17,1.16-0.26c0.4-0.07,0.81-0.17,1.22-0.27h0.01c0.74-0.18,1.49-0.37,2.22-0.56c0.55-0.14,1.07-0.29,1.6-0.44
			c1.15-0.34,2.3-0.7,3.43-1.1c0.43-0.14,0.86-0.29,1.29-0.46c0.04-0.01,0.06-0.02,0.09-0.03c0.25-0.09,0.49-0.18,0.72-0.28
			c0.01,0,0.02,0,0.03-0.01c0.41-0.15,0.82-0.32,1.23-0.5c0.55-0.22,1.1-0.46,1.65-0.71c3.32-1.81,6.65-3.63,9.97-5.44
			c0.8-0.43,1.6-0.87,2.4-1.3c0-0.01,0.01-0.01,0.01-0.01c3.67-2.01,7.34-4.01,11-6.01c0.87-0.48,1.74-0.95,2.6-1.42
			c0.73-0.4,1.47-0.81,2.21-1.22c0.01-0.01,0.02-0.01,0.03-0.02h0.01c0.01-0.01,0.03-0.01,0.04-0.02c0.01,0,0.02,0,0.03-0.01
			c9.73-5.31,19.46-10.62,29.18-15.92c0.01-0.01,0.01-0.01,0.01-0.01c3.11-1.7,6.22-3.39,9.32-5.08h0.01c0.01,0,0.01-0.01,0.02-0.01
			c4.01-2.19,8.01-4.37,12.01-6.56c4.01-2.19,8.02-4.38,12.03-6.57c13.34-7.28,26.7-14.58,40.69-20.48
			c2.25-0.95,4.52-1.86,6.81-2.73c0.87-0.34,1.75-0.66,2.63-0.98c0.42-0.17,0.86-0.33,1.3-0.47h0.01c0.01,0,0.01-0.01,0.01-0.01
			s0-0.01,0.01,0c0.66-0.25,1.33-0.49,2-0.71c0.65-0.22,1.3-0.45,1.95-0.67c1.4-0.49,2.82-0.95,4.24-1.38
			c0.53-0.17,1.07-0.34,1.61-0.5c1.22-0.38,2.46-0.74,3.71-1.09c1.18-0.34,2.37-0.66,3.57-0.98c2.22-0.59,4.46-1.13,6.72-1.64
			c0.36-0.08,0.73-0.16,1.09-0.24c2.41-0.53,4.83-1.02,7.28-1.45c0.44-0.08,0.87-0.15,1.31-0.23h0.03c0.26-0.05,0.51-0.1,0.77-0.13
			c0.03-0.01,0.05-0.02,0.08-0.01c0.8-0.14,1.61-0.26,2.42-0.39c1.09-0.17,2.19-0.33,3.29-0.48c1.1-0.15,2.21-0.29,3.32-0.42
			c0.06-0.01,0.12-0.02,0.19-0.02c1.04-0.13,2.09-0.24,3.15-0.35c5.15-0.52,10.38-0.83,15.7-0.92c-1.95-0.34-3.9-0.68-5.85-1.05
			c-1.39-0.26-2.77-0.53-4.16-0.8h-0.01c-0.01-0.01-0.01-0.01-0.02,0c-0.02-0.01-0.02-0.01-0.03,0c-1.8-0.35-3.62-0.72-5.43-1.08
			c-1.78-0.37-3.56-0.74-5.32-1.13c-0.02,0.01-0.03,0-0.06-0.01c-0.11-0.01-0.23-0.03-0.34-0.06c-0.01,0-0.01,0-0.02-0.02
			c-1.17-0.25-2.32-0.51-3.48-0.77c-0.07,0-0.13-0.01-0.17-0.03c-0.64-0.13-1.27-0.28-1.9-0.44c-0.16-0.02-0.33-0.06-0.49-0.11
			c-1.59-0.37-3.19-0.74-4.78-1.13c-1.82-0.43-3.63-0.88-5.44-1.34h-0.01c-0.01,0.01-0.01,0.01-0.02,0
			c-0.01,0.01-0.02-0.01-0.02-0.01c-1.81-0.46-3.62-0.93-5.42-1.4c-0.13-0.04-0.27-0.07-0.4-0.11c-0.03-0.01-0.06-0.02-0.1-0.04
			h-0.03c-0.01,0.01-0.01,0-0.01,0c-1.63-0.43-3.25-0.87-4.87-1.32c-0.02,0-0.04,0-0.05-0.01c-1.66-0.47-3.32-0.94-4.98-1.41
			c-0.93-0.27-1.85-0.53-2.78-0.82c-0.92-0.28-1.82-0.54-2.73-0.82c-0.32-0.08-0.62-0.17-0.94-0.28c-1.47-0.44-2.95-0.9-4.42-1.36
			c-1.39-0.43-2.78-0.88-4.15-1.33c-0.89-0.29-1.77-0.58-2.65-0.88c-1.39-0.45-2.77-0.91-4.16-1.39c-0.22-0.06-0.45-0.14-0.67-0.23
			c-1.44-0.48-2.87-0.98-4.3-1.5c-0.11-0.03-0.21-0.06-0.32-0.11c-3.53-1.24-7.04-2.53-10.54-3.87c-0.34-0.13-0.68-0.25-1.02-0.4
			c-1.17-0.44-2.33-0.89-3.49-1.35c-0.56-0.22-1.12-0.44-1.68-0.67c-0.31-0.12-0.62-0.25-0.93-0.37c-1.12-0.44-2.23-0.88-3.34-1.34
			c-1.71-0.71-3.42-1.43-5.13-2.14c-1.14-0.48-2.27-0.96-3.4-1.46c-2.37-1.01-4.74-2.06-7.09-3.14c-0.57-0.27-1.16-0.52-1.73-0.79
			c-1.81-0.81-3.61-1.65-5.41-2.5c-0.84-0.4-1.68-0.81-2.51-1.21c-0.09-0.04-0.18-0.08-0.26-0.12c-1.48-0.72-2.96-1.44-4.44-2.18
			c-1.35-0.66-2.69-1.33-4.03-2.02c-0.91-0.46-1.83-0.92-2.74-1.41c-1.12-0.57-2.22-1.14-3.32-1.73c-0.09-0.03-0.18-0.09-0.27-0.14
			c-1.13-0.59-2.26-1.18-3.37-1.8c-0.82-0.43-1.62-0.87-2.43-1.33c-0.04-0.02-0.09-0.05-0.13-0.07c-1.11-0.61-2.23-1.23-3.34-1.84
			c-2.55-1.41-5.09-2.87-7.6-4.36c-0.66-0.37-1.31-0.76-1.96-1.15c-1.68-0.99-3.36-1.99-5.02-3.02c-1.57-0.95-3.11-1.92-4.66-2.89
			c-0.32-0.2-0.64-0.4-0.96-0.61c-1.45-0.91-2.91-1.85-4.35-2.79c-0.36,0-0.71-0.01-1.06-0.01c-16.24-0.2-32.47-0.39-48.71-0.59
			h-0.01c-1.41-0.02-2.82-0.03-4.24-0.05c-8.42-0.1-16.83-0.2-25.25-0.31h-0.04c-15.33-0.18-30.67-0.37-46.01-0.56
			c-4.82-0.06-9.66-0.12-14.49-0.33h-0.03c-1.27-0.06-2.53-0.12-3.8-0.2c-0.01,0-0.01,0-0.02,0c-2.56-0.15-5.12-0.37-7.67-0.66
			c-4.06-0.46-8.12-1.11-12.2-1.09c-3.85,0.01-7.66,0.64-11.47,1.28c-0.23,0.04-0.47,0.08-0.7,0.12
			c-6.59,1.15-13.18,2.28-19.62,3.41h-0.01c-5.17,0.89-10.23,1.79-15.12,2.67c-4.25,0.76-8.36,1.51-12.3,2.25
			c-2.17,0.41-4.26,0.8-6.3,1.2c-2.69,0.34-5.38,0.65-8.07,0.95c-0.31,0.04-0.61,0.07-0.91,0.1c-1.54,0.17-3.07,0.34-4.6,0.5
			c-1.14,0.12-2.27,0.24-3.4,0.35c-1.36,0.14-2.71,0.27-4.06,0.4c-0.15,0.02-0.3,0.04-0.45,0.05c-0.62,0.07-1.23,0.12-1.84,0.18
			c-0.22,0.02-0.45,0.04-0.67,0.06c-3.2,0.29-6.4,0.56-9.58,0.81c-0.06,0.01-0.13,0.01-0.2,0.01c-1.07,0.09-2.13,0.17-3.2,0.25
			c-0.23,0.02-0.47,0.03-0.7,0.05c-1.26,0.09-2.52,0.18-3.78,0.26c-0.12,0.01-0.24,0.02-0.37,0.03c-0.12,0.01-0.25,0.02-0.37,0.03
			c-0.24,0.01-0.48,0.03-0.71,0.04h-0.05c-0.42,0.02-0.83,0.05-1.24,0.08c-0.22,0.02-0.44,0.03-0.67,0.04
			c-0.09,0-0.17,0.01-0.25,0.01c-0.18,0.01-0.35,0.02-0.52,0.03c-0.13,0.01-0.25,0.02-0.38,0.03c-0.59,0.03-1.17,0.07-1.76,0.1
			c-0.51,0.03-1.02,0.06-1.53,0.08c-0.15,0.02-0.3,0.03-0.45,0.03c-0.15,0.01-0.3,0.02-0.45,0.02c-0.34,0.02-0.67,0.04-1.01,0.05
			c-0.49,0.03-0.98,0.05-1.46,0.07c-0.82,0.04-1.64,0.08-2.46,0.12c-0.26,0.01-0.52,0.02-0.78,0.03c-0.48,0.03-0.95,0.05-1.41,0.06
			c-0.11,0.01-0.23,0.01-0.35,0.02c-0.12,0-0.24,0.01-0.36,0.01h-0.17c-0.09,0.01-0.18,0.01-0.27,0.01
			c-0.39,0.03-0.77,0.04-1.16,0.05c-0.2,0.01-0.38,0.02-0.57,0.02c-0.34,0.01-0.67,0.02-1,0.03c-0.28,0.01-0.55,0.02-0.82,0.03
			c-0.39,0.01-0.78,0.03-1.17,0.04c-0.34,0.01-0.69,0.01-1.02,0.02c-0.75,0.03-1.49,0.04-2.24,0.06l-0.01,0.01h-0.03l-0.01-0.01
			c-0.01,0-0.01,0-0.02,0.01h-0.01c0,0,0,0-0.01-0.01c-0.06,0.01-0.12,0.01-0.18,0.01h-0.06l-0.01,0.01h-0.08
			c-0.01-0.01-0.01-0.01-0.02,0c-0.01-0.01-0.01-0.01-0.02,0c-0.01-0.01-0.01-0.01-0.02,0c-0.01-0.01-0.01-0.01-0.02,0
			c-0.03-0.01-0.05-0.01-0.08,0c-1.21,0.03-2.42,0.05-3.63,0.07c-0.4,0-0.81,0.01-1.21,0.01c-0.8,0.01-1.6,0.02-2.4,0.02
			c-2.74,0.03-5.46,0.02-8.16,0c-0.57-0.01-1.15-0.02-1.72-0.02l-1.65-0.03c-0.48-0.01-0.97-0.02-1.45-0.03
			c-1.03-0.02-2.06-0.05-3.08-0.07h-0.14c-0.01-0.01-0.01-0.01-0.02-0.01c-0.97-0.03-1.94-0.06-2.9-0.09
			c-0.35-0.01-0.7-0.02-1.05-0.04c-0.31-0.01-0.62-0.03-0.93-0.04c-1.06-0.04-2.11-0.09-3.15-0.14c-0.31-0.02-0.62-0.03-0.92-0.05
			c-0.94-0.05-1.88-0.1-2.81-0.16c-0.06,0-0.12,0-0.18-0.01c-1.34-0.08-2.67-0.17-4-0.27c-0.06,0-0.12,0-0.19-0.01
			c-1.32-0.1-2.63-0.2-3.93-0.31c-2.24,0.55-4.48,1.09-6.73,1.62c-0.02,0.01-0.03,0.01-0.05,0.01c-0.34,0.07-0.67,0.16-1,0.24
			c-1.95,0.46-3.9,0.91-5.85,1.36c-1.2,0.27-2.39,0.54-3.59,0.81c-0.27,0.06-0.54,0.12-0.81,0.18c-0.03,0-0.06,0-0.09,0.01h-0.01
			c-1.39,0.32-2.78,0.63-4.17,0.93c-0.01,0.01-0.02,0.01-0.04,0.01c-0.73,0.16-1.46,0.32-2.18,0.48c-0.74,0.16-1.49,0.32-2.23,0.48
			c-0.16,0.04-0.32,0.07-0.48,0.1c0,0-0.01,0-0.01,0.01c-0.23,0.05-0.46,0.1-0.69,0.14c-0.81,0.18-1.62,0.35-2.44,0.51
			c-0.15,0.04-0.29,0.07-0.44,0.1c-0.43,0.09-0.85,0.18-1.28,0.26c-0.65,0.14-1.31,0.28-1.97,0.41c0,0,0,0-0.01,0l-0.01,0.01
			c-0.93,0.19-1.86,0.38-2.8,0.56c-1.34,0.28-2.69,0.55-4.03,0.81l-0.93,0.18c-0.43,0.09-0.86,0.17-1.29,0.25
			c-1.41,0.28-2.81,0.55-4.22,0.82c-0.75,0.14-1.49,0.28-2.24,0.42c-0.92,0.18-1.85,0.35-2.77,0.52c-0.59,0.11-1.2,0.22-1.79,0.33
			c-0.06,0.01-0.12,0.02-0.19,0.03c-0.08,0.01-0.16,0.03-0.24,0.04c-0.02,0.01-0.04,0.01-0.06,0.01c-0.01,0-0.01,0.01-0.02,0.01
			c-0.04,0.01-0.08,0.02-0.13,0.02c-1.74,0.32-3.49,0.63-5.23,0.93c-1.26,0.23-2.52,0.45-3.79,0.66c-1.44,0.25-2.89,0.5-4.33,0.74
			c-0.08,0.01-0.17,0.03-0.26,0.04c0,0-0.01,0-0.02,0.01c-0.16,0.02-0.31,0.05-0.46,0.07c-2.14,0.36-4.27,0.7-6.41,1.04
			c-0.03,0-0.06,0.01-0.09,0.01c-0.09,0.02-0.18,0.03-0.27,0.05c-1.84,0.29-3.68,0.57-5.51,0.85c-0.08,0.02-0.16,0.03-0.25,0.03
			c-0.72,0.11-1.44,0.22-2.16,0.33c-0.04,0.01-0.07,0.02-0.1,0.02c-0.03,0.01-0.06,0.01-0.09,0.01c-0.24,0.04-0.48,0.08-0.72,0.11
			c-0.72,0.11-1.44,0.21-2.15,0.31c-0.23,0.04-0.45,0.07-0.67,0.1c-1.76,0.26-3.53,0.51-5.29,0.75c-1.29,0.19-2.57,0.37-3.85,0.54
			c-0.28,0.04-0.56,0.08-0.84,0.11c-1.25,0.17-2.51,0.34-3.76,0.49c-0.63,0.09-1.26,0.17-1.89,0.25c-0.01,0-0.01,0-0.02,0
			c-0.01,0-0.02,0-0.03,0.01c-0.04,0.01-0.08,0.01-0.11,0.01c-1.25,0.17-2.49,0.32-3.73,0.47c-1.18,0.15-2.35,0.29-3.53,0.43
			c-0.17,0.03-0.34,0.05-0.51,0.06c-1.99,0.24-3.97,0.47-5.96,0.69c-0.29,0.04-0.59,0.07-0.88,0.1c-0.06,0.01-0.11,0.02-0.17,0.02
			c-1.78,0.21-3.55,0.4-5.33,0.58c-0.05,0.01-0.11,0.01-0.17,0.02c-0.13,0.01-0.26,0.03-0.4,0.04c-0.01,0-0.03,0.01-0.04,0.01
			c-1.06,0.11-2.11,0.22-3.17,0.32c-0.5,0.06-1.01,0.11-1.51,0.15c-0.9,0.09-1.8,0.18-2.7,0.27c-0.9,0.09-1.8,0.17-2.7,0.25
			c-0.01,0.01-0.03,0.01-0.04,0.01c-0.02,0.01-0.04,0.01-0.06,0.01c-0.11,0.01-0.22,0.02-0.34,0.03c-0.17,0.02-0.34,0.04-0.5,0.05
			c-0.09,0.01-0.19,0.01-0.28,0.02c-1.03,0.1-2.06,0.2-3.1,0.29c-0.35,0.03-0.71,0.06-1.07,0.09c-1.58,0.15-3.17,0.28-4.75,0.41
			c-0.03,0-0.06,0.01-0.09,0.01c-0.17,0.01-0.35,0.03-0.52,0.04c-0.02,0.01-0.03,0.01-0.05,0.01c-0.14,0.01-0.28,0.02-0.42,0.03
			c-2.15,0.18-4.3,0.35-6.46,0.51h-0.04c-0.02,0-0.04,0-0.05,0.01h-0.06c-0.01,0.01-0.02,0.01-0.03,0.01
			c-0.03,0.01-0.05,0.01-0.07,0.01c-0.63,0.04-1.26,0.09-1.89,0.13c-0.16,0.01-0.33,0.03-0.49,0.03c-0.19,0.02-0.39,0.03-0.59,0.04
			c-0.19,0.02-0.39,0.04-0.58,0.05c-0.36,0.02-0.72,0.05-1.08,0.08c-0.16,0.01-0.32,0.02-0.48,0.03h-0.05
			c-0.53,0.04-1.05,0.07-1.58,0.11c-0.15,0.01-0.31,0.02-0.46,0.03c-0.95,0.06-1.9,0.12-2.85,0.18c-0.04,0.01-0.07,0.02-0.11,0.01
			c-0.14,0.02-0.28,0.03-0.42,0.03c-0.02,0.01-0.05,0.01-0.07,0c-0.05,0.01-0.1,0.01-0.16,0.01c-0.39,0.03-0.78,0.06-1.16,0.08
			c-0.17,0.01-0.35,0.02-0.52,0.03c-0.02,0.01-0.04,0.01-0.06,0c-0.38,0.02-0.76,0.05-1.15,0.07h-0.04c-0.02,0-0.03,0-0.05,0.01
			h-0.04c0,0-0.01,0-0.02,0c-0.07,0-0.14,0.01-0.22,0.01c-0.03,0-0.07,0-0.1,0.01c-0.01,0.01-0.01,0.01-0.02,0h-0.03
			c-0.03,0.01-0.06,0.01-0.08,0.01c-0.03,0-0.06,0-0.09,0.01c-0.82,0.05-1.64,0.09-2.46,0.14c-1.28,0.07-2.55,0.14-3.82,0.21
			c0,0,0-0.01-0.01,0c-0.01-0.01-0.02-0.01-0.04,0c-0.02,0-0.03,0-0.05,0.01c-0.31,0.01-0.61,0.03-0.91,0.04
			c-1.42,0.07-2.85,0.14-4.27,0.21c-0.48,0.02-0.96,0.04-1.43,0.06c-0.08,0.01-0.18,0.01-0.28,0.01c-0.04,0.01-0.07,0.01-0.1,0.01
			c-0.37,0.02-0.73,0.03-1.09,0.05c-0.36,0.01-0.72,0.03-1.08,0.04c-0.71,0.03-1.42,0.06-2.12,0.09c-0.5,0.03-1,0.05-1.5,0.06
			c-0.38,0.02-0.76,0.03-1.14,0.04c-0.02,0-0.04,0-0.06,0.01c-1.46,0.06-2.92,0.11-4.38,0.15c-0.15,0-0.29,0.01-0.44,0.01
			c-0.46,0.02-0.92,0.04-1.37,0.05c-0.25,0.01-0.5,0.01-0.74,0.02c-0.21,0.01-0.43,0.01-0.64,0.02c-2.14,0.07-4.28,0.12-6.42,0.17
			c-0.08,0.01-0.15,0.01-0.23,0.01c-0.23,0-0.46,0-0.7,0.01c-0.63,0.02-1.26,0.03-1.89,0.04c-0.09,0.01-0.17,0.01-0.27,0
			c-0.01,0.01-0.03,0.01-0.04,0c-0.01,0.01-0.02,0.01-0.03,0c-0.01,0.01-0.01,0.01-0.02,0c0,0-0.01,0.01-0.02,0h-0.03
			c-0.61,0.01-1.21,0.02-1.82,0.03c-0.61,0.02-1.21,0.03-1.82,0.03c-0.02,0-0.04,0.01-0.06,0.01c-1.17,0.01-2.34,0.03-3.52,0.04
			c-1,0.01-1.99,0.02-2.99,0.03h-0.77c-0.23,0.01-0.45,0.01-0.68,0.01c-0.33,0.01-0.66,0.01-0.99,0.01c-0.07,0.01-0.13,0.01-0.2,0
			c-0.13,0.01-0.21,0.01-0.33,0h-0.01c-0.01,0.01-0.02,0.01-0.03,0c-1.43,0.01-2.85,0.01-4.27,0.01h-0.37
			c-2.64,0-5.27-0.01-7.91-0.04h-0.39c-2.09-0.02-4.18-0.04-6.27-0.08c-0.11,0-0.21,0-0.31-0.01c-0.71-0.01-1.41-0.02-2.12-0.04
			c-0.24,0-0.49-0.01-0.73-0.01c-0.03,0.01-0.06,0.01-0.08,0c-0.73-0.01-1.46-0.03-2.18-0.04c-0.79-0.02-1.57-0.04-2.36-0.06
			c-0.83-0.01-1.65-0.03-2.47-0.06c-1.22-0.04-2.44-0.07-3.66-0.1c-0.18,0.01-0.38,0-0.57-0.01c-0.83-0.03-1.65-0.05-2.48-0.09
			c-0.2-0.01-0.41-0.01-0.61-0.02c-1.71-0.06-3.42-0.13-5.13-0.19c0,0.01-0.01,0.01-0.01,0.01c-0.03,0-0.07,0-0.1-0.01
			c-1.86-0.07-3.72-0.16-5.6-0.24c-1.91-0.09-3.82-0.19-5.72-0.29c-0.29-0.01-0.58-0.02-0.88-0.04c-1.02-0.05-2.04-0.1-3.07-0.17
			c-0.91-0.05-1.81-0.1-2.72-0.16h-0.01c-0.32-0.01-0.64-0.03-0.97-0.05c-1.89-0.11-3.79-0.24-5.68-0.36
			c-2.39-0.16-4.77-0.33-7.15-0.51c-0.06,0-0.12-0.01-0.18-0.01c-7.57-0.56-15.13-1.22-22.68-1.97
			C104.58,179.6,51.79,169.73,0,155.23V3.21l68.8-2h1114.19c6.75-1.59,13.87-1.63,20.47,0H1500z"/>
		<path class="st3" d="M609.29,463.09c28.14-12.68,50.32-37.96,59.21-67.52c1.61-5.35,3.17-11.35,7.89-14.34
			c3.17-2.01,7.1-2.19,10.82-2.7c21.11-2.92,38.29-17.74,54.79-31.23c16.5-13.49,35.49-26.88,56.79-26.04
			c-10.15,35.87-47.54,55.5-72.62,83.08c-14.49,15.94-25.86,35.73-44.78,46.04c-11.59,6.31-25.09,8.48-36.57,14.99
			c-8.37,4.75-15.41,11.68-24.06,15.89c-8.65,4.22-20.2,5-26.93-1.88C595.75,468.02,606.6,458.85,609.29,463.09z"/>
		<path class="st3" d="M431.82,563.12c-4.95-1.87-11.47-4.82-12.31-10.05c-2.27-14.11,21.67-18.21,32.77-27.21
			c16.5-13.39,27.25-33.75,46.05-43.67c1.65-0.87,3.42-1.67,5.29-1.67c3.15,0,5.82,2.2,8.8,3.25c8.8,3.11,17.53-4.11,24.55-10.25
			c9.2-8.05,19.22-15.16,29.85-21.19c1.42-0.81,3.18-1.6,4.61-0.81c0.92,0.51,1.41,1.55,1.71,2.57c2.13,7.16-2.39,14.65-7.82,19.78
			c-5.43,5.13-12.06,9.19-16.11,15.46c-2.84,4.4-4.23,9.62-7.13,13.98c-3.57,5.38-9.15,9.05-14.61,12.5
			c-20.1,12.69-40.76,24.46-61.42,36.23C456.01,557.74,444.38,567.87,431.82,563.12z"/>
		<path class="st3" d="M18.23,72c26.03,15.72,52.06,31.44,78.09,47.16c3.16,1.91,6.45,3.86,10.12,4.24
			c3.67,0.38,7.83-1.32,9.09-4.78c0.79-2.18,0.32-4.59-0.15-6.86c-1.61-7.67-3.22-15.34-4.82-23.01c-0.68-3.25-1.38-6.55-2.97-9.46
			c-1.93-3.53-5.04-6.27-8.39-8.5c-19.81-13.22-46.78-9.94-67.84-21.07c-3.97-2.1-8.67-4.74-12.62-2.61
			c-2.24,1.21-3.5,3.67-4.27,6.09C12.45,59.49,11.67,68.05,18.23,72z"/>
		<path class="st3" d="M678.51,477.16c31.31-4.27,61.73-14.97,88.82-31.24c13.76-8.26,29.26-18.37,44.56-13.52
			c-4.42,10.15-14.19,16.83-23.86,22.22c-40.06,22.35-85.77,31.95-130.69,41.26c-2.05,0.43-4.33,0.82-6.14-0.24
			c-2.43-1.42-2.85-4.98-1.59-7.49c1.26-2.51,3.72-4.18,6.16-5.58C665.06,477.25,675.64,474.23,678.51,477.16z"/>
		<path class="st3" d="M864.59,388.52c-6.58-4.31-6.96-14.41-2.87-21.12c4.09-6.72,11.28-10.81,18.23-14.49
			c36.97-19.53,75.81-35.25,114.57-50.93c34.39-13.91,69.02-27.9,105.38-35.25c6.99-1.41,15.8-1.85,19.61,4.18
			c4.05,6.42-1.01,14.65-6.33,20.06c-37.62,38.22-94.77,47.64-143.06,70.97c-17.18,8.3-33.49,18.53-51.39,25.13
			C900.83,393.68,879.47,398.27,864.59,388.52z"/>
		<path class="st3" d="M691.25,131.66c-19.48-12.01-39.14-25.09-51.96-44.04s-17.33-45.28-5.18-64.67c1.21-1.93,2.63-3.83,4.65-4.88
			c2.39-1.25,5.23-1.13,7.92-0.99c15.07,0.82,31.66,2.32,42.14,13.17c2.65,2.75,4.77,5.98,7.55,8.6
			c8.35,7.85,20.81,8.73,32.14,10.38c17.98,2.62,35.37,8.21,52.67,13.76c15.1,4.85,32.55,12.19,35.81,27.71
			c-13.29-5.96-28.2-8.29-42.67-6.66c-4.63,0.52-9.95,2.02-11.62,6.37c-2.33,6.09,4.13,11.58,9.28,15.58
			c7.08,5.5,13.12,12.32,17.73,20.01c1.57,2.62,2.97,5.98,1.36,8.58c-1.46,2.36-4.64,2.82-7.4,3.05
			C748.06,140.53,710.24,143.37,691.25,131.66z"/>
		<path class="st3" d="M1005.96,110.27c-38.11-12.51-72.88-35.03-99.9-64.68c-4.35-4.77-8.44-12.59-3.68-16.96
			c20.17,6.86,35.52,23.76,55.3,31.67c18.63,7.45,41.14,6.99,55.98,20.5c6.04,5.5,10.32,13.87,8.32,21.78
			C1019.98,110.5,1009.72,115.99,1005.96,110.27z"/>
		<path class="st3" d="M1264.58,118.87c-1.65-4.93-5.24-8.92-8.45-13.03c-9.87-12.63-16.76-27.57-19.97-43.28
			c-3.64-17.87-3.24-38.17-15.64-51.54c-4.61-4.97-10.58-8.21-17.06-9.82c-6.6-1.63-13.72-1.59-20.47,0
			c-5.06,1.18-9.9,3.24-14.18,6.11c-15.62,10.49-23.98,29.48-25.46,48.24s3.11,37.46,8.83,55.38c8.18,25.64,18.77,50.53,31.59,74.19
			c-8.15,3.57,6.2,20.38,22.31,21.89c16.11,1.51,31.48-8.85,40.56-22.26c9.07-13.4,13.05-29.5,16.86-45.23
			C1265.16,132.75,1266.79,125.51,1264.58,118.87z"/>
		<path class="st3" d="M234.25,628.1c6.51-4.05,14.78-3.25,22.45-3.1c19.95,0.4,40.46-4.92,56.02-17.43
			c4.91-3.95,9.38-8.7,11.84-14.5c1.63-3.85,2.34-8.06,4.07-11.87c3.19-7.02,9.56-12.07,16.19-16.02c3.03-1.81,6.32-3.48,9.85-3.57
			c3.53-0.09,7.34,1.86,8.34,5.24c0.73,2.47-0.14,5.14-1.42,7.38c-1.89,3.31-4.62,6.04-7.01,9c-9.11,11.29-13.65,26.42-25.23,35.16
			c-5.55,4.19-12.26,6.51-18.85,8.74c-9.26,3.12-18.61,6.2-28.3,7.53c-14.64,2.01-29.5-0.04-44.13-2.08
			c-1.47-0.21-3.11-0.51-3.99-1.71C233.2,629.66,234.07,627.41,234.25,628.1z"/>
		<path class="st3" d="M128.15,541.92c-3.67,0.35-7.67,0.86-10.22,3.52c-0.96,1-1.63,2.24-2.18,3.51c-0.51,1.19-0.93,2.44-0.9,3.74
			c0.03,1.29,0.56,2.62,1.63,3.35c0.85,0.58,1.92,0.72,2.91,0.99c1.92,0.52,3.65,1.57,5.55,2.14c2.48,0.74,5.11,0.62,7.69,0.5
			c1.07-0.05,2.18-0.11,3.11-0.64c0.72-0.41,1.26-1.06,1.74-1.73c2.79-3.9,3.99-8.91,3.25-13.65c-0.08-0.5-0.19-1.02-0.51-1.41
			c-0.37-0.45-0.95-0.66-1.5-0.82C134.54,540.18,129.97,540.28,128.15,541.92z"/>
		<path class="st3" d="M148.07,543.67c7-1.47,14.21-2.94,21.23-1.64c0.81,0.15,1.65,0.35,2.3,0.86c1,0.79,1.36,2.17,1.35,3.45
			c-0.01,1.28-0.31,2.54-0.33,3.82c-0.04,2.03,0.66,4.06,1.93,5.64c-5.7,5.18-13.88,6.5-21.58,6.8c-2.38,0.09-5.35-0.27-6.16-2.51
			c-0.21-0.59-0.23-1.24-0.24-1.87c-0.05-2.73-0.11-5.46-0.16-8.19c-0.03-1.54-0.05-3.15,0.63-4.54
			C147.72,544.1,149.33,543.04,148.07,543.67z"/>
		<path class="st3" d="M151.42,511.67c2.54-4.16,8.31-6,12.79-4.07c0.44,0.19,0.87,0.41,1.19,0.77c0.96,1.07,0.5,2.75-0.01,4.1
			c-0.71,1.87-1.43,3.73-2.14,5.6c-0.39,1.01-0.78,2.04-1.48,2.87c-1.76,2.11-4.89,2.38-7.61,1.98c-2.01-0.29-4.18-1.03-5.13-2.82
			c-0.91-1.72-0.38-3.88,0.65-5.53C150.7,512.92,152.17,511.6,151.42,511.67z"/>
		<path class="st3" d="M173.64,507.28c2.96,0.13,5.94-0.28,8.75-1.21c1.28-0.42,2.62-0.96,3.95-0.7c1.38,0.28,2.45,1.37,3.25,2.53
			c0.86,1.25,1.54,2.76,1.24,4.25c-0.32,1.58-1.63,2.72-2.8,3.83c-0.5,0.47-1.01,0.99-1.19,1.65c-0.26,0.92,0.13,2.03-0.45,2.79
			c-0.28,0.36-0.73,0.55-1.15,0.71c-3.92,1.51-8.09,2.39-12.29,2.6c-0.99,0.05-2.15-0.02-2.71-0.83c-0.58-0.84-0.19-1.97,0.12-2.94
			c0.5-1.56,0.75-3.2,0.73-4.84c-0.02-1.82-0.36-3.7,0.21-5.43C171.86,507.96,173.85,506.51,173.64,507.28z"/>
		<path class="st3" d="M201.41,507.76c2.99-0.85,6.15,0.22,9.26,0.36c2.78,0.13,5.59-0.53,8.03-1.86c1.16-0.63,2.27-1.43,3.56-1.71
			c1.29-0.28,2.87,0.16,3.38,1.38c0.6,1.42-0.55,2.99-1.83,3.84s-2.83,1.42-3.73,2.67c-1.45,2.03-0.65,5.08-2.13,7.09
			c-0.6,0.82-1.49,1.35-2.39,1.82c-4.66,2.45-9.92,3.74-15.19,3.71c-0.48,0-1-0.03-1.35-0.35c-0.34-0.31-0.44-0.8-0.51-1.25
			c-0.63-4.28-0.46-8.67,0.52-12.89c0.13-0.58,0.29-1.17,0.61-1.68C200.3,507.84,201.67,507.29,201.41,507.76z"/>
		<path class="st3" d="M123.96,592.28c-2.56,0.89-5.18,1.81-7.27,3.53s-3.59,4.43-3.12,7.1c0.37,2.08,1.97,3.89,3.99,4.51
			c2.38,0.73,5.02-0.13,7.43,0.49c2.32,0.6,4.59,2.55,6.81,1.65c0.88-0.36,1.53-1.11,2.05-1.9c2.61-3.98,2.46-9.58-0.37-13.41
			c-0.29-0.4-0.62-0.78-1.04-1.02c-0.51-0.3-1.12-0.36-1.72-0.42c-1.67-0.16-3.33-0.33-5-0.49
			C124.78,592.22,123.68,592.18,123.96,592.28z"/>
		<path class="st4" d="M1172.72,252.36c-1.32-7.58-6.26-13.96-11.26-19.82c-2.08-2.45-4.29-5-5.06-8.13
			c-1.5-6.04,2.7-12.11,2.59-18.33c-0.22-11.64-14.04-17.48-20.57-27.11c-9.04-13.31-4.97-35.4-19.25-42.87
			c-1.26-0.66-2.61-1.16-3.98-1.63c-2.39-0.82-4.82-1.59-6.83-3.1c-2.93-2.21-4.5-5.58-5.48-9.2c-0.5-1.8-0.84-3.65-1.15-5.46
			c-6.38-38.12-7.16-77.15-2.37-115.5h-7.29c-3.55,10.54-6.07,21.44-7.47,32.47c-1.58,12.44-1.75,25.01-1.94,37.56
			c-0.19,13.25-0.39,26.5-0.57,39.76c-8.74-11.21-20.64-19.92-33.95-24.87c-1.44,8.06-0.52,16.53,2.61,24.11
			c8.75,1.75,15.14,11.07,22.21,16.14c-6.23,0.77-8.05,6.36-5.79,9.94c1.18,1.88,3.32,2.87,5.02,4.3
			c4.43,3.76,5.31,10.07,5.39,15.99c0.01,0.62,0.01,1.22,0.01,1.83c0,0.4,0,0.78-0.01,1.18c-0.14,14.59-1.41,29.17-3.79,43.58
			c-6.34,6.31-16,8.1-24.93,7.52c-8.93-0.57-17.61-3.17-26.5-4.28c-12.62-1.58-25.47-0.14-38.08-1.73
			c-24.13-3.04-45.4-16.75-65.74-30.1c-2.28-1.5-4.67-3.11-5.88-5.56c-1.22-2.45-0.73-5.97,1.72-7.15c1.78-0.86,3.87-0.28,5.75,0.33
			c12.76,4.09,25.53,8.17,38.29,12.26c4.24,1.36,8.72,2.72,13.05,1.73c2.54-0.58,4.92-2.32,6.23-4.51c0.93-1.54,1.31-3.33,0.83-5.11
			c-0.9-3.33-4.09-5.04-7.55-6.08c-0.01-0.01-0.01,0-0.02,0c-1.32-0.41-2.67-0.71-3.96-0.96c-22.83-4.48-44.8-13.33-64.36-25.93
			c-5.61-3.62-14.17-7.06-17.87-1.5c7.24,4.36,14.02,9.44,20.22,15.17c-6.63,0.61-13.05,3.41-18.01,7.85
			c-1.61,1.44-3.13,3.1-5.16,3.84c-3.6,1.3-7.44-0.62-11.08-1.78c-13.19-4.17-27.93,1.89-41.22-1.97
			c-12.24-3.55-21.11-14.89-33.43-18.11c1.59,4.72,6.61,7.15,10.44,10.31c1.33,1.11,2.55,2.59,3.4,4.19c0.35,0,0.71,0.01,1.06,0.01
			c1.44,0.94,2.9,1.88,4.36,2.79c0.32,0.21,0.64,0.41,0.96,0.61c1.54,0.97,3.09,1.94,4.65,2.89c1.67,1.03,3.34,2.03,5.02,3.02
			c0.65,0.39,1.3,0.77,1.96,1.15c2.51,1.49,5.05,2.94,7.6,4.36c1.11,0.62,2.23,1.24,3.34,1.84c0.85,0.49,1.7,0.95,2.56,1.4
			c1.11,0.62,2.24,1.21,3.37,1.8c0.09,0.06,0.18,0.11,0.26,0.14c1.1,0.58,2.21,1.16,3.32,1.73c0.92,0.49,1.83,0.95,2.75,1.41
			c1.33,0.68,2.68,1.36,4.03,2.02c1.48,0.74,2.96,1.46,4.44,2.17c0.08,0.04,0.17,0.09,0.25,0.12c0.83,0.41,1.68,0.82,2.51,1.21
			c1.8,0.85,3.6,1.69,5.4,2.5c0.57,0.26,1.16,0.52,1.73,0.78c2.35,1.08,4.72,2.13,7.09,3.14c1.12,0.5,2.26,0.98,3.4,1.46
			c1.71,0.72,3.42,1.43,5.13,2.14c1.11,0.46,2.23,0.9,3.34,1.35c0.87,0.35,1.74,0.69,2.61,1.04c1.16,0.46,2.32,0.92,3.49,1.36
			c0.34,0.14,0.68,0.26,1.03,0.4c3.5,1.33,7,2.63,10.53,3.87c0.11,0.04,0.21,0.08,0.32,0.11c1.43,0.52,2.87,1.01,4.3,1.5
			c0.22,0.09,0.45,0.17,0.67,0.23c1.39,0.47,2.77,0.94,4.16,1.39c0.88,0.3,1.76,0.58,2.65,0.87c1.38,0.45,2.77,0.9,4.16,1.33
			c1.47,0.46,2.94,0.92,4.41,1.36c0.32,0.11,0.63,0.2,0.95,0.29c0.9,0.28,1.81,0.54,2.72,0.82c0.93,0.29,1.85,0.55,2.78,0.82
			c1.67,0.47,3.32,0.95,4.99,1.41c0.01,0.01,0.02,0.01,0.04,0.01c1.8,0.5,3.61,0.99,5.42,1.47c1.8,0.47,3.61,0.95,5.42,1.4
			c0,0,0.01,0.02,0.02,0.01c0.01,0.01,0.01,0.01,0.02,0h0.01c1.81,0.46,3.62,0.92,5.44,1.35c1.59,0.39,3.19,0.76,4.78,1.12
			c0.17,0.06,0.33,0.09,0.5,0.11c0.63,0.17,1.26,0.31,1.9,0.44c0.04,0.02,0.1,0.03,0.17,0.03c1.17,0.25,2.32,0.52,3.49,0.77
			c0.01,0.01,0.01,0.01,0.02,0.01c0.11,0.03,0.23,0.06,0.34,0.07c0.02,0.01,0.03,0.02,0.06,0.01c1.76,0.39,3.54,0.76,5.32,1.13
			c1.81,0.36,3.63,0.73,5.44,1.08c0.01-0.01,0.01-0.01,0.02,0c0.01-0.01,0.01-0.01,0.02,0h0.01c1.39,0.28,2.77,0.54,4.16,0.81
			c1.95,0.36,3.9,0.71,5.86,1.05c-5.33,0.09-10.56,0.4-15.71,0.92c-20.42,2.04-39.49,7.29-57.5,14.88
			c-14,5.9-27.35,13.2-40.69,20.48c-30.3,16.53-60.58,33.07-90.88,49.6c-0.55,0.25-1.1,0.5-1.65,0.72c-0.41,0.18-0.82,0.34-1.22,0.5
			c-0.01,0.01-0.02,0.01-0.03,0.01c-0.23,0.1-0.47,0.19-0.72,0.28c-0.03,0.01-0.06,0.02-0.09,0.03c-0.43,0.17-0.86,0.32-1.29,0.46
			c-1.14,0.4-2.28,0.76-3.43,1.09c-0.53,0.15-1.06,0.31-1.6,0.44c-0.74,0.2-1.49,0.39-2.23,0.56h-0.01c-0.41,0.1-0.82,0.2-1.21,0.28
			c-0.39,0.09-0.77,0.18-1.16,0.25c-0.12,0.03-0.24,0.06-0.38,0.08c-0.92,0.19-1.84,0.37-2.77,0.53c-0.93,0.18-1.86,0.33-2.8,0.47
			c-0.94,0.15-1.89,0.3-2.83,0.43c-0.98,0.15-1.96,0.29-2.94,0.41c-1.56,0.21-3.1,0.4-4.65,0.58c-1.75,0.22-3.51,0.43-5.26,0.65
			c-1.43,0.18-2.86,0.36-4.28,0.56c-0.56,0.08-1.13,0.15-1.7,0.24c-1.04,0.15-2.06,0.31-3.08,0.49c-0.79,0.12-1.58,0.26-2.37,0.41
			c-0.88,0.17-1.76,0.33-2.64,0.51c-0.84,0.18-1.68,0.36-2.51,0.56c-0.13,0.02-0.26,0.06-0.4,0.1c-0.39,0.09-0.77,0.18-1.15,0.28
			c-0.39,0.09-0.76,0.19-1.15,0.3c-0.67,0.18-1.35,0.36-2.02,0.56c-23.18,6.86-42.83,24.62-66.87,27.14
			c-28.03,9.78-55.93,22.33-82.42,37.37c-32.65,17.79-66.4,36.65-100.6,54.67c-20.68,12.13-42.13,23.76-63.89,34.79
			c-19.5,6.26-38.06,12.01-56.75,17.29c-14.18,0.46-28.4-1.44-42.62-1.25c-24.55,0.34-48.53,6.9-71.01,13.71
			c-1.56-0.12-3.11-0.23-4.67-0.33c-0.3-0.02-0.61-0.04-0.9-0.07c-0.37,0.5-0.75,1-1.11,1.51c-3.22,4.42-6.13,9.12-8.98,13.79
			c-1.44,2.36-2.92,4.83-3.94,7.41v0.01c-0.83,2.08-1.35,4.26-1.3,6.51c1.18-1.5,2.36-2.99,3.54-4.49
			c3.21-4.07,6.42-8.14,9.63-12.21c2.55-3.24,7.03-6.76,10.21-4.15c1.85,1.52,1.91,4.29,1.82,6.68c-0.68,19.43-0.4,38.9,0.85,58.31
			c0.1,1.54,0.76,3.61,2.31,3.44c0.33-0.04,0.63-0.19,0.9-0.39c0.17-0.11,0.33-0.24,0.47-0.38c4.93-4.4,5.46-11.79,5.65-18.39
			c0.24-8.17,0.47-16.35,0.71-24.53c0.24-8.12,1.03-17.37,7.5-22.28c0.98,2.6,4.56,3.32,7.15,2.29c2.59-1.04,4.49-3.24,6.51-5.17
			c3.97-3.78,8.78-6.68,13.97-8.43c5.11-1.71,10.5-2.28,15.85-2.86c8.89-0.95,17.79-1.9,26.68-2.85c0.18-0.01,0.35-0.01,0.53-0.02
			c6.15-0.21,13.36,1.52,19.94,4.58c8.17,4.71,19.79,4.09,29.77,0.45c9.98-3.63,18.71-9.97,27.36-16.12
			c2.31-1.64,5.42-3.32,7.78-1.75c2.12,1.41,2.08,4.65,0.84,6.87c-1.25,2.21-3.35,3.78-5.01,5.71c-1.64,1.94-2.86,4.65-1.84,6.98
			c12.47-7.86,25-16.14,39.31-18.06c2.75-0.37,5.68-0.55,7.96-2.14c2.01-1.4,3.19-3.68,4.54-5.72c6.5-9.79,17.88-14.94,28.67-19.61
			c16.74-7.22,33.47-14.46,50.22-21.69c-7.04,8.49-14.08,16.99-21.12,25.48c12.57-2.05,21.96-12.2,32.51-19.33
			c4.83-3.25,10.01-5.94,14.86-9.18c22.29-14.87,35.96-40.49,58.95-54.21c-1.31,5.47-1.38,10.03-1.44,14.58
			c-0.01,1.09-0.01,2.24,0.49,3.21c1.62,3.14,6.43,1.9,9.29-0.18c8.96-6.51,14.55-16.64,22.65-24.19
			c11.06-10.3,26.26-15.18,41.31-16.75c3.04-0.32,6.31-0.61,8.66-2.56c1.84-1.54,2.8-3.85,3.9-5.98
			c5.59-10.78,16.28-18.19,27.67-22.33c11.4-4.16,23.63-5.42,35.69-6.65c9,3.92,20.03,1.1,29.86-2.66c3.96-1.51,7.9-3.19,11.88-4.67
			c3.57-1.33,7.18-2.51,10.86-3.28c2.43-0.51,4.89-0.83,7.39-0.9c-2.06,4.83-5.06,9.28-8.78,12.99
			c16.42,4.27,30.81-14.33,47.77-14.39c-13.37,8.53-26.75,17.06-40.11,25.59c-2.36,1.5-4.81,3.13-6.69,5.15h-0.01
			c-1.31,1.39-2.36,2.98-2.93,4.83c1.67,0.92,3.57,0.93,5.48,0.58c1.25-0.23,2.49-0.62,3.67-1c11.98-3.9,23.99-7.83,35.34-13.29
			c11.56-5.56,22.33-12.66,34.01-17.94c23.32-10.53,49.85-13.65,71.61-27.12c36.14-7.65,73.5-15.44,110.86-23.23
			c10.74-2.24,22.26-4.36,32.94-3.06c0.01,0,0.01,0,0.01,0c5.53,0.67,10.83,2.25,15.67,5.19c9.03,5.5,17.63,15.79,27.76,12.76
			c1.33-0.4,2.55-1.03,3.63-1.82C1171.6,265.71,1173.8,258.56,1172.72,252.36z"/>
		<path class="st4" d="M197.08,187.92c-0.91-0.05-1.81-0.1-2.72-0.16h-0.01c-0.32-0.01-0.64-0.03-0.97-0.05
			c-4.27-0.26-8.55-0.55-12.83-0.87c-0.06,0-0.12-0.01-0.18-0.01c-7.57-0.56-15.13-1.22-22.68-1.97
			C104.58,179.6,51.79,169.73,0,155.23v-32.12c18.29,5.8,36.79,10.81,55.76,13.4c23.99,3.29,49.02,2.5,71.87-5.11
			c4.54-1.51,9-3.3,13.34-5.37c0.46-0.22,0.92-0.44,1.38-0.66h0.01c2.97-1.42,6.02-2.79,9.29-2.7c3.68,0.1,6.94,2.04,9.85,4.41h0.01
			c0.84,0.69,1.64,1.41,2.42,2.14c9.34,8.71,17.07,19.08,22.93,30.43C191.47,168.58,194.92,178.11,197.08,187.92z"/>
		<path class="st4" d="M82.29,31.08c-0.51,3.74-5.02,5.25-8.74,5.91c-17.49,3.1-35.24,4.74-53,4.94C13.7,42.01,6.84,41.87,0,41.51
			V10.6c13.23,2.72,26.51,6.26,39.92,6.37c7.18,0.07,14.36-0.86,21.51-0.17c7.13,0.68,14.5,3.26,18.93,8.9
			c0.72,0.92,1.36,1.97,1.71,3.08C82.3,29.53,82.4,30.3,82.29,31.08z"/>
		<path class="st4" d="M1112.43,250.34c10.98,2.96,21.59,11.72,21.86,23.09c0.13,5.43-2.1,10.62-4.61,15.43
			c-4.28,8.2-9.54,15.89-15.62,22.86c-4.15,4.75-8.87,9.55-10.04,15.74c15.67-6.97,30.73-15.34,44.92-24.97
			c6.72-4.57,13.38-9.54,18.03-16.21c1.78-2.56,3.28-5.48,3.29-8.59c0.01-4.88-3.58-9.01-7.41-12.02
			c-10.18-8-23.07-11.53-35.58-14.88c-3.57-0.95-7.37-1.91-10.9-0.84C1114.53,250.48,1112.41,251.51,1112.43,250.34z"/>
		<path class="st4" d="M1153.73,363.07c0.03-1.04-0.21-2.05-0.82-2.94c-1.75-2.58-5.48-2.65-8.59-2.31
			c-5.51,0.62-11,1.64-16.36,3.07c-6.18,1.64-12.23,3.83-18.52,4.96c-6.83,1.22-13.81,1.2-20.74,1.18
			c-9.88-0.03-19.75-0.08-29.64-0.11c-3.54-0.01-7.1-0.03-10.61-0.61c-3.78-0.63-7.44-1.91-11.21-2.69
			c-8.16-1.7-16.75-0.78-24.51,2.26c-5.03,1.95-9.71,4.8-13.71,8.4c2.57-0.66,5.17-1.24,7.8-1.67c1.75-0.31,3.53-0.54,5.32-0.72
			c10.69-1.04,21.43,0.34,32.12,1.37c17.45,1.67,34.97,2.38,51.28,1.3C1114.93,371.79,1134.57,368.15,1153.73,363.07z"/>
		<path class="st4" d="M872.31,416.61c-2.38-1.1-4.86-2-7.41-2.76h-0.01c-7.3-2.16-15.14-3.21-22.59-4.97
			c-12.4-2.94-25.74-9.83-28.61-22.25c-3.88-16.86,13.54-31.17,17.51-47.82c0.5-2.07,0.78-4.18,0.79-6.33
			c-1.15,0.24-2.25,0.54-3.33,0.92h-0.01c-12.6,4.25-21.2,16.54-29.33,27.46c-23.34,31.35-52.83,58.09-86.31,78.25
			c1.93,0.81-0.69,1.21-2.54,2.89c-1.84,1.68-2.27,5.1-0.21,6.47c0.86,0.57,1.94,0.67,2.97,0.75c15.03,1,30.35-2.61,43.35-10.25
			c8.53-5.01,16.46-11.83,26.22-13.36c5.15-0.81,10.41-0.04,15.57,0.73c14.15,2.1,28.29,4.2,42.43,6.3c1.37,0.2,2.75,0.41,4.12,0.58
			v0.01c0.58,0.08,1.17,0.14,1.75,0.21C854.98,427.4,863.4,421.22,872.31,416.61z"/>
		<path class="st4" d="M232.52,578.19c-0.22-1.26-0.46-2.56-1.2-3.61c-0.68-0.98-1.72-1.63-2.55-2.48
			c-2.75-2.83-2.66-7.25-3.41-11.12c-0.74-3.87-3.71-8.23-7.57-7.41c-2.38,0.51-3.88,2.79-5.83,4.22
			c-5.62,4.14-13.63,0.77-20.45,2.26c-3.71,0.81-6.95,3.04-10.58,4.14c-4.35,1.32-9.46,1.16-13.36,3.07
			c15.99,0.74,31.96,0.28,47.57-1.33c0.55,1.38,1.09,2.76,1.63,4.12c-1.43,0.33-2.87,0.66-4.3,0.97
			c-12.24,2.72-24.62,4.85-37.06,6.39c-1.53,0.19-3.08,0.36-4.61,0.53c0.42,0.39,0.13,0.55-1.36,0.33c1.05,0.46,1.95,1.07,2.78,1.78
			h0.01c0.84,0.73,1.59,1.57,2.26,2.48c3.67,5.01,5.33,12.32,10.29,16.37c3.33,2.72,7.75,3.62,11.99,4.39
			c0.05,0.01,0.12,0.02,0.18,0.03c2.6,0.49,5.21,0.96,7.81,1.43c2.45,0.45,4.9,0.9,7.33,1.35h0.01c5.02-1.07,10.07-1.74,15.19-1.38
			c-1.38,0.66-2.77,1.29-4.17,1.88c-0.49,0.21-0.96,0.4-1.44,0.6c0.12,0,0.23-0.01,0.35-0.03c5.7-0.84,9.88-6.2,11.17-11.81
			C234.5,589.73,233.51,583.87,232.52,578.19z"/>
		<path class="st4" d="M248.11,546.45c-3.12,8.47-1.66,17.86-0.17,26.76c1.64,9.75,3.27,19.51,4.91,29.26
			c0.42,2.47,1.18,5.39,3.55,6.2c1.42,0.49,2.98,0.02,4.4-0.47c11.1-3.81,23.82-9.05,33.85-2.94c3.45-6.08,9-10.94,15.48-13.56
			c-2.21,0.33-4.52,0.64-6.61-0.13c-2.09-0.78-3.81-3.04-3.16-5.18c1.45-4.8,11.54-3.23,11.35-8.24c-0.04-1.06-0.64-1.99-1.09-2.95
			c-2.17-4.6-0.94-10.01,0.33-14.93c0.97-3.75,2.07-7.73,4.95-10.32c4.68-4.2,11.9-3.09,17.99-4.68c4.83-1.26,9.35-4.73,10.63-9.55
			s-1.63-10.72-6.54-11.62c-5.63-1.02-11.69,4.21-16.71,1.49c-3.95-2.14-4.17-8.06-1.81-11.89c2.36-3.82,6.42-6.18,10.02-8.87
			c3.29-2.46,6.57-6.81,4.36-10.28c-1.36-2.14-4.18-2.71-6.69-3.04c-23.93-3.15-49.94-1.28-69.46,12.93
			c-3.71,2.7-7.24,5.97-8.95,10.23c-1.37,3.41-1.45,7.18-1.52,10.86C247.06,532.85,246.92,540.18,248.11,546.45z"/>
		<path class="st4" d="M254.29,612.73c-5.91,1.04-11.76,2.39-17.53,4.04c-7.08,2.02-14.27,4.65-19.53,9.79s-8.09,13.43-4.97,20.09
			c-0.88,0.85-2.42,0.62-3.34-0.19c-0.92-0.81-1.36-2.02-1.73-3.19c-1.79-5.78-2.3-12.53,1.21-17.45c2.56-3.59,6.79-5.54,10.83-7.31
			C230.37,613.67,242.86,609.03,254.29,612.73z"/>
		<path class="st4" d="M206.34,601.39c-0.34-2.29-3.6-2.94-5.63-1.83c-1.6,0.87-2.72,2.35-3.94,3.73c-0.34,0.39-0.67,0.75-1.04,1.09
			c-2.91,2.79-6.98,4-10.95,4.75c-4.53,0.86-9.15,1.27-13.76,1.2c-5.05-0.08-10.13-0.71-15.15-0.25c-4.9,0.44-9.92,2.06-13.26,5.63
			c0.33-0.01,0.66-0.02,0.99-0.03c17.51-0.71,35.16-1.42,52.21-5.48c0.13-0.03,0.25-0.07,0.39-0.09c0.01-0.01,0.01-0.01,0.02-0.01
			c2.76-1.24,5.37-2.76,7.76-4.68c0.26-0.21,0.52-0.43,0.77-0.66C205.74,603.82,206.54,602.67,206.34,601.39z"/>
		<path class="st4" d="M175.42,577.41c-1.53,0.19-3.08,0.36-4.61,0.53c-4.67,0.52-9.33,0.96-14.01,1.3
			c-4.75,0.35-9.53,0.63-14.15,1.76c-2.33,0.57-4.6,1.37-6.97,1.67c-3.02,0.38-6.06-0.06-9.08-0.35c-0.28-0.03-0.54-0.06-0.82-0.08
			c-5.11-0.42-10.49-0.11-15.04,2.15h-0.01c-3.33,3.69-6,7.95-7.78,12.61c-0.12,0.31-0.24,0.63-0.34,0.96
			c0.09,0.72,0.26,1.43,0.52,2.13c0.35,0.95,0.84,1.81,1.41,2.6c1.93,2.62,4.93,4.43,8.05,5.91c-1.61-5.35-2.68-11.32,0.6-15.68
			c3.21-4.27,9.18-5.05,14.49-5.49c14.27-1.19,28.53-2.38,42.79-3.56c1.08-0.09,2.19-0.19,3.15-0.69c0.33-0.18,0.62-0.39,0.87-0.64
			C175.79,581.3,175.99,579.3,175.42,577.41z"/>
		<path class="st4" d="M161.89,620.31c0-0.12-0.01-0.24-0.03-0.36c-1.59-0.12-3.18-0.31-4.76-0.6c-0.33-0.06-0.66-0.12-0.99-0.19
			c3.09,5.72,5.94,11.78,6.04,18.25C162.35,631.72,162.27,626,161.89,620.31z"/>
		<path class="st4" d="M142.55,593.14c-1.03-4.06-3.43-7.49-6.15-10.58h-0.01c-0.23,0.04-0.46,0.08-0.71,0.11
			c-0.21,0.02-0.41,0.04-0.62,0.06c2.83,3.13,5.38,6.58,6.42,10.69c1.01,4.01,0.47,8.57-1.51,12.84c-1.51,3.24-3.85,6.35-6.98,9.26
			c0.02,0,0.06,0.01,0.08,0.01c0.45,0.06,0.9,0.1,1.37,0.13h0.01c2.89-2.82,5.07-5.82,6.53-8.94
			C143.07,602.23,143.62,597.41,142.55,593.14z"/>
		
			<linearGradient id="SVGID_1_" gradientUnits="userSpaceOnUse" x1="809.9512" y1="6486.6055" x2="1159.7676" y2="6557.9038" gradientTransform="matrix(1 0 0 -1 0 6738.186)">
			<stop  offset="0" style="stop-color:#99685A"/>
			<stop  offset="0.3115" style="stop-color:#A37264"/>
			<stop  offset="0.845" style="stop-color:#BE8E80"/>
			<stop  offset="1" style="stop-color:#C79789"/>
		</linearGradient>
		<path class="st9" d="M1165.52,240.42c-11.15-11.61-15.31-28.03-22.35-42.51c-3.18-6.53-6.98-12.74-10.18-19.25
			c-3.14-6.41-5.69-13.08-8.23-19.74c-3.15-8.27-6.32-16.56-9.57-24.45c-1.25-3-2.5-5.93-3.78-8.8c-2.96-0.86-5.77-2.11-8.53-3.5
			c-4.33-2.17-8.55-4.69-13.01-6.6c-7.3-3.11-16.29-4.36-22.79,0.22c11.03,6.08,10,22.7,18.12,32.33c3.66,4.33,9.53,8.11,9.06,13.75
			c-0.19,2.34-1.53,4.53-1.38,6.87c0.13,1.94,1.28,3.66,2.42,5.24c4.73,6.58,10.01,12.86,13.46,20.21
			c3.45,7.33,4.85,16.12,1.5,23.51c-4.08,8.98-14.33,13.8-24.18,14.44c-9.84,0.64-19.54-2.12-29.12-4.47
			c-26.37-6.45-53.46-9.87-80.29-10.19h-0.01c-0.01-0.01-0.01-0.01-0.02,0c1.4,0.29,2.79,0.55,4.19,0.81
			c1.95,0.36,3.9,0.71,5.86,1.05c-5.33,0.09-10.56,0.4-15.71,0.92c-20.42,2.04-39.49,7.29-57.5,14.88
			c-14,5.9-27.35,13.2-40.69,20.48c-30.3,16.53-60.58,33.07-90.88,49.6c-0.55,0.25-1.09,0.49-1.65,0.72
			c-0.41,0.18-0.82,0.34-1.22,0.5c-0.01,0.01-0.02,0.01-0.03,0.01c-0.23,0.09-0.49,0.19-0.72,0.28c-0.03,0.01-0.06,0.02-0.09,0.03
			c-0.43,0.17-0.86,0.32-1.29,0.46c-1.14,0.4-2.28,0.76-3.43,1.09c-0.53,0.15-1.06,0.31-1.6,0.44c-0.74,0.2-1.49,0.39-2.23,0.56
			c3.56,1.22,7.18,2.06,10.83,2.56c12.36,1.74,25.17-0.22,37.76-3.63c3.64-0.99,7.27-2.11,10.86-3.28
			c4.48-1.47,8.91-3.04,13.26-4.61c31.38-11.34,62.77-22.68,94.15-34.01c-1.48-5.13-8.81-4.74-13.94-3.24
			c-30.84,9.01-61.7,18.02-92.55,27.03c-1.68,0.49-3.34,0.98-5.02,1.47c0.21-0.14,0.42-0.29,0.64-0.43
			c7.04-4.73,14.7-8.39,22.69-11.47c0.01,0,0.03-0.01,0.04-0.01c14.77-5.69,30.65-9.39,45.73-14.23
			c12.4-3.97,24.25-8.71,34.52-15.97c3.57-2.53,6.96-5.35,10.1-8.55c3-3.07,5.82-6.49,9.66-8.39c3.1-1.54,6.54-1.95,10.03-2.16
			c2.02-0.12,4.04-0.17,6.02-0.32c11.71-0.94,24.87-5.55,34.26,1.52c2.13,1.61,3.92,3.76,6.39,4.76c1.96,0.78,4.14,0.76,6.25,0.73
			c10.75-0.18,21.51-0.35,32.26-0.52c-10.43,6.73-22.28,11.26-34.53,13.24c-12.07,1.94-25.67,1.9-34.51,10.33
			c4.71,0.58,9.42,1.17,14.13,1.74c-5.39,2.17-10.46,5.18-12.08,9.56c27.29-6.23,53.51-16.47,80.76-22.84
			c27.24-6.39,56.45-8.71,82.76,0.81c8.66,3.13,16.86,7.51,26.25,14.27C1165.78,256.46,1165.2,249.26,1165.52,240.42z"/>
		<path class="st4" d="M176.23,600.67c-0.41-3.63-1-7.82-2.8-11.5c-1.43-2.92-3.54-5.42-5.59-7.83l-0.84,0.72
			c2,2.36,4.07,4.8,5.44,7.6c1.72,3.53,2.29,7.6,2.7,11.15c0.47,4.15,0.81,8.55,0.22,12.83c0.38-0.03,0.75-0.08,1.13-0.12
			C177.04,609.2,176.71,604.82,176.23,600.67z"/>
		<path class="st4" d="M144.77,551.12c-0.07-5.6-1.87-11.13-5.15-15.68c-0.45,0-0.92,0.01-1.37,0.02
			c3.43,4.48,5.36,10.03,5.42,15.67c0.03,4.78-1.26,9.53-3.69,13.63c0.4,0.07,0.79,0.12,1.19,0.15
			C143.54,560.73,144.81,555.95,144.77,551.12z"/>
		<path class="st4" d="M178.49,534.78c-0.4,0.01-0.79,0.01-1.19,0.02c2.17,4.96,3.12,10.7,2.78,16.68
			c-0.3,5.15-1.57,10.54-3.77,16.06c0.4,0.02,0.79,0.02,1.19,0.02c2.14-5.49,3.38-10.88,3.68-16.01
			C181.53,545.56,180.6,539.81,178.49,534.78z"/>
		<path class="st4" d="M311.14,637.43c-0.78-0.02-1.56-0.01-2.33,0.01c-5.27,0.13-10.53,0.55-15.75,1.27
			c-3.52,0.49-7.03,1.1-10.54,1.6c-7.27,1.01-14.61,1.52-21.96,1.5c-1.47,0-3.03-0.06-4.26-0.87c-1.06-0.72-1.7-1.9-2.58-2.82
			c-0.88-0.93-2.32-1.61-3.42-0.97c-0.66,0.39-1.01,1.14-1.51,1.72c-1.6,1.9-4.62,1.86-6.87,0.79c-2.24-1.07-3.99-2.91-6.01-4.36
			c-6.18-4.41-14.4-4.78-21.87-3.51c3.85,0.64,7.63,1.03,11.38,1.59c1.75,0.25,3.52,0.56,5.11,1.32c1.6,0.75,3.02,2.02,3.6,3.68
			c0.56,1.63,0.3,3.49,0.74,5.11c3.85-0.23,7.7-0.18,11.56,0.26C268.04,647.5,290.63,645.2,311.14,637.43z"/>
		<path class="st4" d="M168.61,505.61c-0.68-1.42-1.6-2.68-2.59-3.86c-0.45,0.04-0.89,0.09-1.33,0.14c1.14,1.29,2.19,2.66,2.93,4.19
			c1.65,3.47,1.67,7.91,0.01,12.18c-1.07,2.74-2.79,5.45-5.33,8.39c0.47,0,0.95,0.01,1.42,0.02c1.82-2.19,3.73-4.91,4.93-8.02
			C170.42,514.11,170.41,509.36,168.61,505.61z"/>
		<path class="st4" d="M196.91,499.69c-0.39,0-0.78,0.01-1.17,0.03c1.06,2.7,1.47,5.87,1.2,9.42c-0.28,3.79-1.25,7.54-2.19,11.16
			c-0.61,2.36-1.35,5.22-3,7.33c0.44,0.02,0.87,0.04,1.3,0.08h0.01c1.48-2.19,2.17-4.86,2.76-7.13c0.95-3.68,1.94-7.48,2.22-11.36
			C198.3,505.66,197.93,502.45,196.91,499.69z"/>
		<path class="st4" d="M369.25,511.33c-1.8,2.08,2.12,4.94,2.59,7.64c0.23,1.33-0.13,2.69-0.54,3.98
			c-1.64,5.09-11.32,10.18-7.61,14.02c5.1,5.28,13.05-6.56,19.81-9.42c7.3-3.09,14.21-7.1,20.52-11.9c1.15-0.88,2.31-1.81,3.06-3.05
			c1.38-2.27,1.06-5.44-0.74-7.39c-1.21-1.32-2.98-2.09-3.98-3.58c-0.99-1.49,2.22-2.49,1.41-4.09
			C401.08,492.21,376.2,503.31,369.25,511.33z"/>
		<path class="st4" d="M379.95,583.58c4.86-7.44,13.35-12.38,22.21-12.93c2.26-0.14,4.72-0.07,6.56-1.39
			c1.84-1.32,2.2-4.75,0.08-5.55c-0.73-0.28-1.54-0.17-2.32-0.06c-2.24,0.33-4.47,0.65-6.71,0.98c-0.85,0.12-1.85,0.2-2.43-0.43
			c-0.75-0.82-0.24-2.12,0.36-3.06c1.88-2.93,4.32-5.51,7.16-7.53c1.36-0.97,2.88-1.9,3.62-3.39c0.75-1.5,0.23-3.76-1.4-4.12
			c-0.9-0.19-1.8,0.23-2.61,0.65c-8.59,4.4-16.93,9.31-24.95,14.69c-1.05,0.71-2.14,1.47-2.73,2.59c-0.59,1.12-0.5,2.71,0.54,3.44
			c1.89,1.31,4.99-1.1,6.62,0.53c-1.51,2.84-4.05,5.07-5.25,8.06S378.59,583.38,379.95,583.58z"/>
		<path class="st4" d="M217.25,535.16c0.11,7.5,0.22,15.01,0.33,22.51c2.73-5.3,4.2-11.24,4.26-17.2c0.02-1.71-0.1-3.48-0.93-4.97
			S217.22,532.61,217.25,535.16z"/>
		<path class="st4" d="M224.46,568.72c2.73-0.24,5.68-0.57,7.7-2.43c1.23-1.14,1.96-2.71,2.51-4.29c3.24-9.33,1.31-19.56,1.81-29.42
			c0.04-0.74,0.28-1.7,1.02-1.76c0.33-0.03,0.64,0.14,0.89,0.35c1.56,1.24,1.72,3.52,1.7,5.51c-0.07,9.28-1.16,18.55-3.24,27.59
			c-0.39,1.72-0.91,3.56-2.31,4.62c-0.84,0.64-1.9,0.9-2.93,1.12c-2.77,0.59-5.59,0.97-8.43,1.13
			C222.84,569.65,223.24,568.01,224.46,568.72z"/>
		<path class="st4" d="M228.95,601.21c6.4-4.03,9.22-11.85,10.84-19.24c1.62-7.39,2.58-15.22,6.83-21.48
			c1.38,7.43-2.53,14.69-4.3,22.03c-0.89,3.69-1.25,7.52-2.46,11.12s-3.48,7.09-6.97,8.59C231.1,602.99,228.3,602.6,228.95,601.21z"
			/>
		<path class="st4" d="M1474.21,78.45c-5.2-0.03-10.4-0.02-15.6,0.05c-9.13,0.1-18.35,0.36-27.21,2.59
			c-0.47,0.12-0.93,0.24-1.4,0.37c-2.12,0.58-4.2,1.27-6.23,2.06c-0.57,0.22-1.13,0.45-1.69,0.68c-0.16,0.06-0.33,0.13-0.49,0.21
			c-0.52,0.22-1.05,0.45-1.56,0.69c-0.01,0-0.01,0-0.01,0c-0.59,0.27-1.17,0.54-1.75,0.82c-1.89,0.92-3.74,1.92-5.56,3
			c-0.59,0.35-1.18,0.7-1.77,1.07c-1.02,0.04-2.05,0.15-3.08,0.32c-3.78,0.63-7.47,2.14-11.18,3.01c-2.28,0.54-4.58,0.83-6.91,0.54
			c0.11-0.96,0.38-1.87,0.77-2.73c1.19-2.65,3.54-4.82,6.11-6.31c3.39-1.99,7.23-3.07,10.78-4.75c2.76-1.31,5.72-4.29,4.18-6.91
			c-1.11-1.9-3.78-1.99-5.97-1.83c-10.91,0.73-21.82,1.46-32.73,2.19c2.85-5.42,8.82-8.46,14.67-10.27
			c13.78-4.24,28.2-3.49,42.42-0.44c9.87,2.12,19.64,5.35,29.03,8.79C1464.21,73.5,1469.52,75.57,1474.21,78.45z"/>
		<path class="st4" d="M1016.22,367.59c-0.97-0.96-2.17-1.48-3.47-1.7c-2.49-0.44-5.4,0.22-7.93,0.97
			c-47.21,13.93-94.59,27.94-139.92,47h-0.01c-6.69,2.81-13.33,5.74-19.93,8.79c-1.48,0.68-3.17,1.64-3.33,3.28
			c-0.1,0.94,0.36,1.84,0.82,2.68c0.83,1.54,1.65,3.09,2.49,4.63v0.01c0.19,0.36,0.39,0.71,0.57,1.07c0.39-0.29,0.78-0.57,1.18-0.86
			c8.29-6.06,16.71-12.23,25.62-16.84c7.81-4.04,15.98-6.87,24.77-7.33c28.58-6.85,55.63-18.76,83.21-28.91
			c6.17-2.26,12.4-4.46,18.75-6.08c2.57-0.66,5.17-1.24,7.8-1.67C1009.99,370.98,1013.11,369.31,1016.22,367.59z"/>
		<path class="st4" d="M667.33,149.6c-10.07-3.47-19.54-9.04-27.78-15.83c-15.36-12.66-26.92-29.32-37.16-46.4
			c-4.82-8.04-9.45-16.41-11.28-25.62c-1.82-9.2-0.44-19.48,5.69-26.57c-16.78,1.48-33.73,1.04-50.4-1.31
			c12.96,9.72,26.38,19.97,33.49,34.53c3.41,6.96,5.18,14.59,7.86,21.87c6.76,18.42,19.49,34.6,35.8,45.52
			c4.97,3.33,10.71,6.75,12.26,12.53c0.07,0.26,0.13,0.53,0.19,0.81c3.81-0.64,7.62-1.27,11.47-1.28c4.08-0.02,8.14,0.63,12.2,1.09
			C662.21,149.23,664.77,149.45,667.33,149.6z"/>
		<path class="st4" d="M854.61,137.47c-18.81-5.34-36.74-13.76-52.85-24.83c-4.98-3.42-10.37-8.65-8.77-14.47
			c22.46,9.46,44.91,18.91,67.37,28.37c2.99,1.26,6.48,3.2,6.54,6.45c0.09,4.33-5.89,5.97-10.06,4.81
			C852.67,136.64,848.49,134.08,854.61,137.47z"/>
		<path class="st4" d="M887.18,34.61c-6.3-5.65-13.94-12.1-13.15-20.53c0.45-4.71,3.56-8.64,5.78-12.87H852.8
			c-0.61,0.57-1.28,1.09-2,1.52c-4.03,2.4-9.01,2.59-13.65,1.94c-4.3-0.62-8.43-1.88-12.46-3.46h-38.17
			c0.32,0.65,0.69,1.27,1.11,1.84c2.48,3.44,6.09,5.93,8.79,9.21c6.9,8.38,6.5,21.88-0.9,29.83c-1.54,1.65-3.51,3.75-2.61,5.83
			c0.36,0.85,1.12,1.43,1.86,1.99c22.58,16.84,43.36,36.09,61.89,57.3c-4.86-1.28,1.14,3.24,5.98,1.78
			c4.84-1.46,7.53-7.05,7.07-12.09c-0.46-5.03-3.4-9.51-6.76-13.28c-6.84-7.67-15.79-13.47-21.39-22.07
			c-5.59-8.61-6.31-21.95,2.22-27.66c8.25-5.54,19.52-0.67,27.09,5.76c7.57,6.43,14.43,14.72,24.11,16.87
			C899.45,49.35,893.46,40.25,887.18,34.61z"/>
		<path class="st4" d="M931.62,119.29c18.75,6.91,39.36,8.7,59.02,5.11c2.66-0.48,5.55-1.22,7.14-3.4
			c-5.39-6.65-14.45-8.87-22.89-10.29c-15.98-2.69-32.2-3.94-48.4-3.74c-1.65,0.02-3.44,0.1-4.73,1.14
			c-1.99,1.61-1.8,4.88-0.27,6.93c1.53,2.05,3.98,3.16,6.34,4.14C940.06,124.27,952.72,128.27,931.62,119.29z"/>
		<path class="st4" d="M965.11,169.2c35.49,8.38,73.39,6.22,107.69-6.14c2.78-1,6.15-3.37,4.98-6.08c-0.51-1.18-1.75-1.85-2.94-2.36
			c-16.71-7.21-35.68-0.33-53.63,2.68c-18.83,3.16-38.12,1.9-57.12,3.78c-1.63,0.16-3.77,0.96-3.53,2.58
			c0.1,0.65,0.59,1.16,1.07,1.61C966.11,169.41,971.75,172.29,965.11,169.2z"/>
		<path class="st5" d="M585.06,407.87c-0.52,0.51-1.03,1.01-1.54,1.52C584.18,408.97,584.7,408.45,585.06,407.87z"/>
		<path class="st5" d="M971.2,220.31c-0.08-0.02-0.15-0.04-0.23-0.06c-20.42,2.04-39.49,7.29-57.5,14.88
			c-14,5.9-27.35,13.2-40.69,20.48c-30.3,16.53-60.58,33.07-90.88,49.6c-0.55,0.25-1.09,0.49-1.65,0.72
			c-0.41,0.18-0.82,0.34-1.22,0.5c-0.01,0.01-0.02,0.01-0.03,0.01c-0.23,0.1-0.47,0.19-0.72,0.28c-0.03,0.01-0.06,0.02-0.09,0.03
			c-0.43,0.17-0.86,0.32-1.29,0.46c-1.14,0.4-2.28,0.76-3.43,1.09c-0.53,0.15-1.06,0.31-1.6,0.44c-0.74,0.2-1.49,0.39-2.23,0.56
			h-0.01c-0.41,0.1-0.82,0.2-1.21,0.28c-0.39,0.09-0.77,0.18-1.16,0.25c-0.12,0.03-0.24,0.06-0.38,0.08
			c-0.92,0.19-1.84,0.37-2.77,0.53c-0.93,0.18-1.86,0.33-2.8,0.47c-0.94,0.15-1.89,0.3-2.83,0.43c-0.98,0.15-1.96,0.29-2.94,0.41
			c-1.56,0.21-3.1,0.4-4.65,0.58c-1.75,0.22-3.51,0.43-5.26,0.65c-1.43,0.18-2.86,0.36-4.28,0.56c-0.56,0.08-1.13,0.15-1.7,0.24
			c-1.04,0.15-2.06,0.31-3.08,0.49c-0.79,0.12-1.58,0.26-2.37,0.41c-0.88,0.17-1.76,0.33-2.64,0.51c-0.84,0.18-1.68,0.36-2.51,0.56
			c-0.13,0.02-0.26,0.06-0.4,0.1c-0.39,0.09-0.77,0.18-1.15,0.28c-0.39,0.09-0.76,0.19-1.15,0.3c-0.67,0.18-1.35,0.36-2.02,0.56
			c-23.18,6.86-42.83,24.62-66.87,27.14c-28.03,9.78-55.93,22.33-82.42,37.37c-32.65,17.79-66.4,36.65-100.6,54.67
			c-20.68,12.13-42.13,23.76-63.89,34.79c-19.5,6.26-38.06,12.01-56.75,17.29c-14.18,0.46-28.4-1.44-42.62-1.25
			c-24.55,0.34-48.53,6.9-71.01,13.71c-1.56-0.12-3.11-0.23-4.67-0.33c-0.3-0.02-0.61-0.04-0.9-0.07c-0.41-0.02-0.82-0.06-1.22-0.08
			c0.07,0.53,0.1,1.06,0.11,1.59c0.08,2.15-0.21,4.31-0.86,6.38c3.31-2.39,6.98-4.29,10.84-5.62c1.08-0.38,2.28-0.71,3.36-0.32
			c2.14,0.76,2.46,3.61,2.42,5.88c-0.04,1.88-0.09,3.74-0.12,5.61c-0.08,3.2-0.15,6.4-0.22,9.6c3.51-8.22,8.47-15.82,14.59-22.32
			c0.26-0.29,0.55-0.57,0.85-0.84l0.01-0.01c0.54-0.46,1.14-0.85,1.8-0.97c0.21-0.04,0.43-0.06,0.65-0.03
			c1.79,0.17,2.68,2.27,2.71,4.06c0.04,1.79-0.37,3.66,0.36,5.29c2.59-5.97,8.22-10.18,14.28-12.5c6.07-2.33,12.63-3,19.09-3.65
			c5.79-0.58,11.64-1.17,17.47-1.59c15.1-1.08,30.23-1.09,44.81,2.68c2.79,0.73,5.57,1.59,8.45,1.68c4.22,0.11,8.28-1.47,12.15-3.17
			c6.29-2.77,12.42-5.91,18.33-9.41c6.28-3.71,13.16-8,20.31-6.56c2.93,0.58,5.67,2.12,8.65,2.25c1.99,0.09,3.94-0.45,5.8-1.15
			c14.94-5.58,24.53-20.23,36.96-27.03c10.44-7.35,21.17-14.81,33.47-18.19c4.41-1.2,8.94-1.86,13.35-3.11
			c7.61-2.15,14.63-5.99,21.56-9.81c9.83-5.4,19.64-10.81,29.47-16.21c2.83-1.56,6.11-3.15,9.15-2.05c2.47,0.89,3.52,4.59,1.86,7.15
			c15.98-15.75,32.96-30.51,50.79-44.12c2.25,3.15,3.24,7.19,2.69,11.03c17.15-14.02,35.74-28.64,57.79-30.58
			c2.14-0.19,4.39-0.28,6.24-1.38c1.72-1.01,2.85-2.77,4.04-4.37c6.11-8.29,15.36-14.21,23.56-17.63
			c16.12-5.7,33.19-7.36,50.29-8.96c12.99-1.2,26.02-2.38,38.68-5.27c36.32-8.28,68.36-30.31,104.66-38.75
			c-31.27,7.42-62.53,14.86-93.79,22.28c-1.46,0.35-2.92,0.69-4.38,1.04c-1.96,0.47-3.92,0.94-5.88,1.4
			c8.81-5.76,18.54-9.64,28.57-12.87c0.01,0,0.03-0.01,0.04-0.01c10.03-3.24,20.34-5.8,30.38-8.92c5.17-1.61,10.29-3.38,15.35-5.31
			c11.87-4.49,23.42-9.84,34.52-15.97c10.33-5.7,20.31-12.09,29.79-19.1C962.77,227.16,967.04,223.8,971.2,220.31z"/>
		<path class="st5" d="M210.6,647.21c-3.17-3.18-4.21-8.18-3.25-12.61c1.05-4.76,4.09-8.89,7.72-12.17
			c11.22-10.11,28.25-12.62,42.47-7.57c11.31-4.58,22.18-10.18,32.48-16.71c1.57-9.03,5.78-17.6,11.99-24.35
			c-1.83-6.81,2.99-13.37,6.79-19.29c3.41-5.31,12.27-12.09,8.25-17.02c-1.07-1.31-3.44-0.47-4.53-1.76
			c-0.51-0.61-0.94-1.37-1.7-1.57c-0.65-0.18-1.32,0.13-1.92,0.44c-4.39,2.25-8.64,4.75-12.73,7.5c-3.77,2.54-7.48,5.35-10.04,9.1
			c-5.11,7.47-4.9,17.4-8.97,25.49c-2.18,4.32-5.53,7.99-7.67,12.34c-1.24,2.51-2.03,5.53-0.88,8.08c1.21,2.7,4.2,4.07,6.94,5.21
			c-6.07,3.57-12.45,6.61-19.04,8.85c-9.42-1.15-19.08-1.79-28.32,0.39c-9.23,2.17-18.1,7.53-22.58,15.9
			c-2.11,3.94-3.17,8.58-2.13,12.93c0.68,2.89,2.42,5.58,4.8,7.3L210.6,647.21z"/>
		<path class="st5" d="M223.8,521.19c-1.4,0.79-2.79,1.6-4.18,2.39c-0.22,0.12-0.45,0.26-0.57,0.49c-0.2,0.35-0.07,0.78,0.03,1.18
			c0.35,1.47,0.06,3.07-0.78,4.3c0.39,0.03,0.78,0.07,1.17,0.1c-1.09,2.4-3.46,3.57-6.13,4.14c-0.4,0.4-0.79,0.81-1.19,1.21
			c1.9,0.36,3.85,0.45,5.78,0.29c0.67-0.07,1.38-0.17,1.91-0.6c0.63-0.51,0.86-1.35,1.06-2.13
			C221.86,528.77,222.83,524.99,223.8,521.19z"/>
		<path class="st5" d="M222.2,562.6c-1.21,0.2-2.64,0.33-3.51-0.54c-0.61-0.61-0.87-1.63-1.69-1.88c-0.96-0.29-1.85,0.93-1.61,1.9
			c0.23,0.98,1.16,1.63,2.08,2.04c0.29,0.12,0.62,0.28,0.71,0.57c0.12,0.39-0.23,0.75-0.54,1.01c-0.65,0.53-1.3,1.07-1.95,1.61
			c0.3,0.74,0.58,1.48,0.87,2.22c0.42,0.24,0.89,0.45,1.35,0.29c0.57-0.22,0.77-0.92,0.93-1.52
			C219.42,566.15,220.59,564.15,222.2,562.6z"/>
		<path class="st5" d="M229.89,604.1c-2.08-1.62-3.68-3.86-4.56-6.35c-0.2,2.28-0.39,4.58-0.6,6.87c0.85,0.01,1.71,0.04,2.56,0.1
			c-0.6,0.29-1.2,0.56-1.8,0.84C226.79,605.89,228.9,605.52,229.89,604.1z"/>
		<path class="st5" d="M140.61,616.87c-1.2,0.03-2.43,0.07-3.62,0.19c-0.01,0.01-0.02,0.01-0.03,0.01c-1.6,0.36-3.13,0.99-4.57,1.96
			c-3.9,2.65-6.01,7.72-5.12,12.35c0.34,1.79,1.18,3.6,2.76,4.5c0.32,0.18,0.64,0.32,0.98,0.43c-1.28-3.01-1.27-6.63-0.07-9.73
			C132.63,622.23,136.38,618.89,140.61,616.87z"/>
		<path class="st5" d="M150.63,649.92c-2.4-1.14-4.14-3.29-6.08-5.12c-1.35-1.26-2.93-2.43-4.67-2.92c1.01,1.54,1.97,3.19,3.22,4.51
			c1.95,2.06,4.49,3.23,7.26,3.92C150.47,650.18,150.56,650.05,150.63,649.92z"/>
		<path class="st5" d="M126.6,582.32c-0.28-0.03-0.54-0.06-0.82-0.08c-5.11-0.42-10.49-0.11-15.04,2.15h-0.01
			c-0.56,0.28-1.09,0.58-1.62,0.92c-4.22,2.68-7.16,7.82-6.5,12.65c0.09,0.72,0.26,1.43,0.52,2.13c0.35,0.95,0.84,1.81,1.41,2.6
			c-0.35-2.85-0.29-5.68,0.79-8.31c1.37-3.32,4.21-5.87,7.39-7.56c3.18-1.68,6.68-2.61,10.16-3.53
			C124.12,582.97,125.37,582.65,126.6,582.32z"/>
		<path class="st5" d="M213.46,572.24c-0.26-0.47-0.6-0.88-0.98-1.21c-12.24,2.72-24.62,4.85-37.06,6.39
			c-1.53,0.19-3.08,0.36-4.61,0.53c-4.67,0.52-9.33,0.96-14.01,1.3c-0.24,0.02-0.47,0.03-0.72,0.06h-0.01
			c-2.62,0.51-5.27,0.81-7.95,0.72c-0.01,0.01-0.02,0.01-0.03,0c-1.83,0.23-3.64,0.55-5.44,0.99c-0.97,0.24-1.93,0.52-2.89,0.78
			c3.43-0.23,6.88-0.08,10.27,0.44c1.07,0.17,2.15,0.38,3.23,0.26c1.33-0.13,2.58-0.74,3.87-1.15c3.96-1.27,8.5-0.61,11.94,1.75
			c0.84-1.19,1.9-2.48,3.15-3.06h0.01c0.56-0.25,1.16-0.36,1.8-0.25c1.18,0.19,2.1,1.08,3.18,1.6c2.2,1.04,4.83,0.4,7-0.67
			c2.18-1.08,4.17-2.57,6.49-3.31c2.11-0.67,4.36-0.68,6.55-0.85C202.87,576.14,208.39,574.66,213.46,572.24z"/>
		<path class="st5" d="M224.54,607.4c-0.38-0.43-0.86-0.68-1.41-0.81c-0.49,0.21-0.96,0.4-1.44,0.6c0,0,0,0-0.01,0h-0.01
			c0,0,0,0.01-0.01,0.01c-8.35,3.38-17.11,5.64-25.84,7.89c-6.54,1.68-13.21,3.36-19.91,4.29c2.59,0.22,5.18,0.43,7.78,0.65
			c1.95,0.17,3.95,0.33,5.86-0.09c2.13-0.47,4.03-1.62,5.96-2.64c4.74-2.5,9.9-4.22,15.2-5.1
			C215.61,611.39,221.17,611.07,224.54,607.4z"/>
		<path class="st5" d="M124.02,535.77c-2.49,0.17-4.95,0.53-7.29,1.37c-3.85,1.38-7.38,4.3-8.37,8.27c-0.62,2.47-0.15,5.03,1,7.31
			c0-0.76,0.07-1.52,0.21-2.26c0.92-4.8,4.33-8.83,8.4-11.54C119.87,537.66,121.91,536.64,124.02,535.77z"/>
		<path class="st5" d="M209.34,535.18c-0.06-0.34-0.2-0.64-0.4-0.9c-0.28,0.01-0.54,0.01-0.82,0.02
			c-9.88,0.17-19.75,0.32-29.64,0.49c-0.4,0.01-0.79,0.01-1.19,0.02c-12.56,0.21-25.13,0.42-37.69,0.63c-0.45,0-0.92,0.01-1.37,0.02
			c-1.03,0.02-2.05,0.03-3.08,0.06c0.53,0.94,1.44,1.68,2.45,2.1c1.42,0.6,3,0.64,4.54,0.6c8.86-0.29,17.58-3.54,26.39-2.53
			c4.54,0.52,8.96,2.16,13.53,2.24c3.26,0.04,6.49-0.72,9.69-1.29C197.57,535.57,203.46,535.09,209.34,535.18z"/>
		<path class="st5" d="M153.14,503.36c-5.68,1.04-11.59,3.29-13.03,8.65c-1.2,4.5,1.72,9.22,5.75,11.68
			c-1.46-1.78-2.54-3.79-2.81-6.06c-0.45-3.75,1.48-7.49,4.19-10.11C148.98,505.83,151.01,504.53,153.14,503.36z"/>
		<path class="st5" d="M186.73,500.1c-4.41,0.23-8.82,0.54-13.24,0.93c2.51,0.62,5.03,1.41,7.59,1.79c0.35,0.06,0.73,0.1,1.08,0
			c0.4-0.11,0.72-0.39,1.05-0.64C184.3,501.33,185.49,500.66,186.73,500.1z"/>
		<path class="st5" d="M225.17,499.84c-8.88-0.36-17.77-0.43-26.66-0.2c0.52,1.18,0.86,2.44,0.99,3.73
			c5.14-2.88,11.58-3.31,17.06-1.15c0.32,0.13,0.66,0.28,1.01,0.24c0.52-0.04,0.92-0.43,1.33-0.74
			C220.66,500.44,223.09,500.42,225.17,499.84z"/>
		<path class="st8" d="M588.24,157.57c-16.64-9.31-31.71-24-37.19-39.36c-8.34-23.36-8.85-48.65-11.8-73.28
			c-1.76-14.71-4.43-29.33-7.99-43.72H132.91c-1.84,7.86-3.25,15.52-4.04,22.38c-4.69,41.42,7.62,100.99,29.49,136.47
			c6.37,10.35,13.76,19.16,22,26.77c97.73,7.3,196.18-0.87,291.01-24.1c33.39,2.87,72.13,0.77,110.56-3.95
			C583.98,158.38,586.07,157.98,588.24,157.57z"/>
		<path class="st6" d="M544.96,162.44c-7.48-7.5-14.61-15.32-21.04-23.75c-1.6-2.1-3.14-4.22-4.64-6.4
			c-10.91-15.78-19.06-33.65-21.22-52.65c-1.82-15.95,0.62-32.06,0.3-48.11c-0.21-9.94-1.46-19.8-3.1-29.59
			c-0.04-0.24-0.08-0.49-0.12-0.73H175.39c-5.11,30.53-7.83,61.47-3.85,92.05c2.23,17.03,6.76,34.03,13.76,49.76
			c0.81,1.82,1.65,3.62,2.54,5.4c7.46,15.22,17.33,29.07,29.75,40.41c85.43,2.97,170.99-5.83,253.79-26.12
			c17.07,1.47,35.54,1.63,54.64,0.82C532.27,163.28,538.59,162.9,544.96,162.44z"/>
		<path class="st2" d="M265.45,520.78c1.1,6-2.92,11.84-4.38,17.76c-0.46,1.88-0.93,3.77-1.03,5.7c-0.12,2.31,0.27,4.61,0.28,6.92
			c0.04,7.71-4.18,15.55-1.66,22.84c1.54-1.26,2.77-2.85,3.79-4.55c5.76-9.69,4.16-21.91,6.65-32.9c0.75-3.31,1.89-6.57,2.03-9.96
			s-0.33-9.13-3.73-9.02C265.64,517.62,265.36,520.29,265.45,520.78z"/>
		<path class="st2" d="M285.82,538.81c4.42-3.98,3.42-11.04,5.18-16.72c2.75-8.83,12.33-13.85,21.49-15.11
			c0.45-0.06,0.99-0.09,1.28,0.26c0.32,0.38,0.17,0.95-0.01,1.41c-0.88,2.35-3.9,4.89-2.64,7.06c1.19,2.05,4.39-1.51,5.89-3.34
			c2.43-2.97,6.49-5.82,6.22-9.64c-0.29-4.02-7.26-2.76-11.19-1.84c-4.21,1-8.43,1.99-12.64,2.99c-3.9,0.92-7.91,1.89-11.23,4.13
			c-5.44,3.66-8.25,10.23-9.34,16.69c-0.63,3.71-0.76,7.63,0.55,11.16c0.54,1.45,1.37,2.87,2.67,3.7
			C283.36,540.39,284.5,540,285.82,538.81z"/>
		<path class="st7" d="M544.96,162.44c-7.48-7.5-14.61-15.32-21.04-23.75c-1.6-2.1-3.14-4.22-4.64-6.4
			c-10.91-15.78-19.06-33.65-21.22-52.65c-1.82-15.95,0.62-32.06,0.3-48.11c-0.21-9.94-1.46-19.8-3.1-29.59
			c-0.04-0.24-0.08-0.49-0.12-0.73H291.15c51.84,27.97,104.32,54.86,159.22,76.39c4.14,1.61,8.39,3.28,11.58,6.3
			c3.21,3.02,5.12,7.82,3.42,11.85c-1.33,3.19-4.5,5.19-7.49,6.99c-18.97,11.44-38.14,23-59.31,29.81
			c-16.33,5.26-33.5,7.58-50.57,9.49c-53.15,5.92-106.72,8.07-160.16,6.4c7.46,15.22,17.33,29.07,29.75,40.41
			c85.43,2.97,170.99-5.83,253.79-26.12c17.07,1.47,35.54,1.63,54.64,0.82C532.27,163.28,538.59,162.9,544.96,162.44z"/>
	</g>
	<g>
		
			<radialGradient id="SVGID_00000005971907135543609480000002548322204215671192_" cx="14873.9971" cy="6544.1167" r="67.4451" gradientTransform="matrix(-1.1551 0 0 -1.0542 17801.4727 7344.8315)" gradientUnits="userSpaceOnUse">
			<stop  offset="0" style="stop-color:#DB7A62"/>
			<stop  offset="0.448" style="stop-color:#DC7C64"/>
			<stop  offset="0.6093" style="stop-color:#DE826B"/>
			<stop  offset="0.7243" style="stop-color:#E28C76"/>
			<stop  offset="0.8173" style="stop-color:#E79B87"/>
			<stop  offset="0.897" style="stop-color:#EFAF9D"/>
			<stop  offset="0.9662" style="stop-color:#F8C7B8"/>
			<stop  offset="1" style="stop-color:#FDD5C8"/>
		</radialGradient>
		<path style="fill:url(#SVGID_00000005971907135543609480000002548322204215671192_);" d="M686.25,464.55
			c-1.96-4.52-0.2-9.63,1.99-14.06c2.19-4.43,4.86-8.93,4.71-13.79c-0.13-4.29-2.47-8.26-5.06-11.85
			c-3.36-4.67-7.24-9.04-11.55-13.01c-1.75-1.61-3.64-3.19-5.97-3.97c-2.2-0.73-4.61-0.68-6.94-0.97c-3.58-0.44-6.98-1.7-10.47-2.56
			c-4.2-1.03-8.54-1.47-12.87-1.91c-8.64-0.88-17.27-1.76-25.91-2.64c-3.52-0.36-7.05-0.72-10.59-0.62
			c-5.58,0.16-11.11,1.48-16.06,3.83c-8.11,3.86-14.34,10.25-20.39,16.51c-4.13,4.28-8.27,8.56-12.4,12.84
			c-2.34,2.42-4.73,4.93-5.84,8c-0.92,2.53-0.88,5.25-0.84,7.92c0.12,8.02,0.25,16.03,0.37,24.05c0.02,1.31,0.05,2.67,0.68,3.85
			c2.49,4.71,10.77,2.46,15.51,5.4c1.34,0.83,2.34,2.05,3.69,2.86c4.92,2.94,11.15-0.75,16.88-1.94c6.12-1.27,12.46,0.48,18.44,2.21
			c5.71,1.65,11.42,3.3,17.13,4.95c9.75,2.82,20.36,5.64,29.97,2.45c9.19-3.05,16-11.21,25.67-12.57c2.55-0.36,5.55-0.38,7.1-2.27
			c0.76-0.92,0.98-2.11,1.18-3.25C685.37,470.05,686.87,465.98,686.25,464.55z"/>
		<path class="st10" d="M681.43,453.23c0.91-1.96,1.32-4.08,1.65-6.19c0.84-5.41,1.14-11.02-0.56-16.26s-5.7-10.1-11.33-11.96
			c-1.78-0.59-3.7-0.88-5.34-1.73c-1.41-0.73-2.54-1.82-3.85-2.69c-1.75-1.15-3.79-1.88-5.8-2.57c-10.6-3.66-21.52-6.91-32.82-7.72
			c-8.04-0.58-16.19,0.09-23.99,1.98c-1.46,0.35-2.93,0.76-4.23,1.47c-1.34,0.73-2.46,1.76-3.62,2.72
			c-7.68,6.27-18.37,9.66-23.89,17.59c-1.85,2.66-3,5.68-4.88,8.32c-3.85,5.4-10.84,9.48-11.4,15.9c-0.23,2.61,0.7,5.17,1.62,7.65
			c0.94,2.53,1.88,5.07,2.81,7.6c0.61,1.65,1.23,3.32,2.27,4.78c2.76,3.9,8.05,5.72,13.12,6.12c5.07,0.41,10.16-0.34,15.25-0.33
			c6.49,0.02,12.98,1.28,18.91,3.7c4.96,2.02,9.72,4.88,15.13,5.25c4.26,0.29,8.91-0.94,12.58,1.03c1.57,0.84,2.77,2.2,4.39,2.96
			c4.74,2.23,10.06-1.39,14.58-3.97c4.49-2.56,9.53-4.23,13.98-6.84c4.45-2.61,8.43-6.53,9.01-11.33
			C673.86,467.3,679.09,458.27,681.43,453.23z"/>
		
			<radialGradient id="SVGID_00000083051010815342780820000004837074688121804966_" cx="14875.2656" cy="6544.542" r="47.2994" gradientTransform="matrix(-1.1551 0 0 -1.0542 17801.4727 7344.8315)" gradientUnits="userSpaceOnUse">
			<stop  offset="0" style="stop-color:#BD0002"/>
			<stop  offset="0.5039" style="stop-color:#BA0002"/>
			<stop  offset="0.8398" style="stop-color:#B10001"/>
			<stop  offset="1" style="stop-color:#AA0000"/>
		</radialGradient>
		<path style="fill:url(#SVGID_00000083051010815342780820000004837074688121804966_);" d="M677.03,454.91
			c0,0-10.31,22.18-21.36,27.86c-8.45,4.34-18.86,4.56-28.29,2.5s-18.14-6.2-26.75-10.27c-3.77-1.78-7.63-3.58-11.83-4.15
			c-4.94-0.67-9.93,0.42-14.9,0.83c-4.97,0.4-10.46-0.05-14.11-3.17c-3.51-3-4.46-7.88-3.6-12.2c0.86-4.32,3.25-8.24,5.6-12.08
			c7.86-12.78,16.97-26.56,32.14-31.36c4.24-1.34,8.75-1.89,12.92-3.42c2.56-0.94,4.96-2.24,7.57-3.05
			c5.08-1.57,10.59-1.21,15.94-0.83c3.16,0.23,6.55,0.53,8.99,2.38c1.41,1.07,2.37,2.58,3.79,3.64c2.4,1.8,5.7,2.09,8.73,2.71
			c4.58,0.95,8.85,2.82,13.07,4.69c4.86,2.15,9.87,4.46,13.19,8.34c5.54,6.49,4.93,15.99,1.02,23.39
			C677.97,452.97,677.03,454.91,677.03,454.91z"/>
		<path class="st12" d="M659.05,479.19c-3.58,2.11-8.83,5.35-13.25,8.02c-0.77,0.47-1.6,0.95-2.52,0.95c-0.92,0-1.9-0.73-1.71-1.56
			c0.11-0.5,0.58-0.85,1.02-1.16c1.01-0.71,2.02-1.43,3.02-2.14c2.26-1.6,4.51-3.2,6.77-4.8c1.6-1.13,3.23-2.28,5.11-2.96
			c1.88-0.68,5.1-1.73,5.89-0.03C664.45,477.81,659.68,478.82,659.05,479.19z"/>
		<path class="st13" d="M673.43,451.95c1.73-3.42,2.46-10.28,6.51-9.58c1.76,0.3,0.42,3.29-0.31,4.78c-1.47,3-5.25,4.91-5.91,8.14
			c-0.4,1.94,0.38,5.2-1.77,5.43C671.51,460.77,671.86,455.05,673.43,451.95z"/>
		<path class="st14" d="M677.52,435.04c-1.02-3.5-2.6-7.37-6.26-8.79c-1.04-0.4-2.19-0.58-3.12-1.15c-0.93-0.58-1.63-1.84-0.92-2.64
			c0.95-1.07,2.8-1.12,4.21-0.63c1.41,0.49,2.53,1.48,3.53,2.51c3.03,3.09,7.74,8.15,4.69,11.23
			C679.04,436.19,677.69,435.62,677.52,435.04z"/>
		<path class="st15" d="M632.27,408.54c1.73,2.9,6.1,3.06,9.47,4.24c4.66,1.64,8.04,5.71,12.88,6.82c0.85,0.2,1.84,0.27,2.52-0.23
			C657.82,418.87,642.01,408.56,632.27,408.54z"/>
		<path class="st16" d="M603.51,408.21c-1.09,0.8-2.79-0.08-4.17-0.27s-2.85-0.31-4.15,0.16c-1.3,0.47-2.37,1.7-2.13,2.96
			s2.2,2.05,3.17,1.12c-2.74,1.11-5.48,2.21-8.22,3.32c-0.64,0.26-1.41,0.87-1,1.39c0.11,0.14,0.29,0.23,0.46,0.3
			c2.53,1.02,5.44-0.04,7.96-1.09c2.18-0.91,4.37-1.82,6.55-2.73c1.07-0.45,2.17-0.91,2.99-1.68s1.31-1.94,0.9-2.95
			C605.47,407.74,604.49,407.49,603.51,408.21z"/>
		<path class="st17" d="M667.59,453.98c1.22-2.22,0.29-5.19,2.12-7.03c0.53-0.53,1.17-0.96,1.68-1.52c0.97-1.07,1.32-2.49,1.65-3.85
			c0.36-1.51,0.71-3.04,0.56-4.57c-0.14-1.41-0.71-2.75-1.4-4.02c-1.75-3.26-5.35-9.13-8.58-7c-2.6,1.72-0.27,5.89,0.57,8.72
			c0.86,2.92,2.41,5.88,1.65,8.82c-0.84,3.23-4.36,5.82-3.96,9.12c0.11,0.92,0.53,1.79,0.64,2.7
			C662.74,457.25,661.14,465.8,667.59,453.98z"/>
		<path class="st18" d="M665.32,458.18c0.79,3.04-0.06,6.4-2.23,8.82c-2.14,2.38-5.31,3.74-8.38,5.02c1.86-2.01,3.11-4.48,3.58-7.08
			c0.09-0.52,0.17-1.07,0.54-1.47c0.5-0.54,1.34-0.64,2.08-0.86C662.9,462.03,664.37,460.21,665.32,458.18z"/>
		<path class="st19" d="M643.37,480.05c1.71-0.84,3.27-1.96,4.57-3.28c-4.26-1.99-9.33,0.05-14.11,0.29
			c-4.26,0.22-8.59-1.1-11.85-3.6c-1.29-0.99-2.44-2.17-3.92-2.92c-1.76-0.89-3.83-1.09-5.78-1.55c-2.8-0.66-5.45-1.88-7.69-3.55
			c-0.7-0.52-1.51-1.12-2.39-0.94c-1.24,0.26-1.47,1.86-0.92,2.91c1.05,1.99,3.57,2.87,5.86,3.57c3.13,0.96,6.25,1.92,9.38,2.88
			c1.39,0.43,2.82,0.87,3.96,1.71c0.75,0.55,1.35,1.25,2.01,1.9C627.95,482.79,637.51,482.93,643.37,480.05z"/>
		
			<radialGradient id="SVGID_00000084492766486684387590000002450036186475253427_" cx="14875.6973" cy="6176.6816" r="24.6117" gradientTransform="matrix(-1.1551 0 0 -1.2193 17801.4727 7982.8379)" gradientUnits="userSpaceOnUse">
			<stop  offset="0" style="stop-color:#FFB86B"/>
			<stop  offset="0.1977" style="stop-color:#FAAD5D"/>
			<stop  offset="0.418" style="stop-color:#F6A552"/>
			<stop  offset="0.5102" style="stop-color:#F5A150"/>
			<stop  offset="0.6009" style="stop-color:#F0954A"/>
			<stop  offset="0.6911" style="stop-color:#EA8141"/>
			<stop  offset="0.7809" style="stop-color:#E06633"/>
			<stop  offset="0.8705" style="stop-color:#D34222"/>
			<stop  offset="0.9588" style="stop-color:#C4170D"/>
			<stop  offset="1" style="stop-color:#BC0002"/>
		</radialGradient>
		<path style="fill:url(#SVGID_00000084492766486684387590000002450036186475253427_);" d="M644.05,471.03
			c2.81-1.22,5.77-2.56,7.45-4.95c1.68-2.39,1.38-6.17-1.39-7.45c-2.22-1.02-4.86-0.1-7.31,0.29c-8.57,1.33-17.46-5.77-17.14-13.7
			c0.04-0.95,0.16-2.01-0.47-2.77c-2.02-2.48-7.14,1.9-9.47-0.34c-1.04-1-0.62-2.68,0.29-3.78c0.9-1.1,2.19-1.92,2.98-3.09
			c1.95-2.87-0.48-7.28-4.17-7.55c-6.16-0.46-9.38,8.08-15.56,8.23c-3.47,0.09-6.56-2.62-10.01-2.27c-2.37,0.24-4.42,2.1-4.69,4.27
			c-0.27,2.16,1.26,4.4,3.51,5.13c2.79,0.9,6.1-0.39,8.76,0.8c3.04,1.36,3.55,5.14,3.01,8.19c-0.5,2.8-1.03,6.55,1.83,7.66
			c3.39,1.32,6.22-3.07,9.85-3.67c3.57-0.59,6.69,3.84,4.61,6.56c-0.63,0.83-1.64,1.57-1.58,2.58c0.03,0.47,0.3,0.91,0.63,1.27
			c2.02,2.2,5.81,1.9,8.62,3.2c2.7,1.25,4.38,3.93,7.14,5.07c2.68,1.11,5.92,0.51,8.44-0.89
			C641.9,472.42,643.85,470.33,644.05,471.03z"/>
		<path class="st21" d="M611.33,451.76c1.68-0.56,3.35-1.13,5.03-1.69c0.44-0.15,0.89-0.31,1.18-0.64c0.48-0.57,0.25-1.44-0.28-1.97
			c-0.53-0.53-1.29-0.82-1.99-1.14c-1.76-0.8-3.37-1.89-4.72-3.2c-0.98-0.96-1.93-2.08-3.31-2.43c-2.21-0.56-4.44,1.24-5.03,3.26
			c-0.6,2.02-0.05,4.15,0.35,6.2c0.4,2.06-1.89,4.45-0.51,6.12C604.32,459,608.47,452.72,611.33,451.76z"/>
		
			<radialGradient id="SVGID_00000028325876395317948410000012227262519425596047_" cx="14848.5107" cy="6544.8574" r="11.1535" gradientTransform="matrix(-1.1551 0 0 -1.0542 17801.4727 7344.8315)" gradientUnits="userSpaceOnUse">
			<stop  offset="0" style="stop-color:#FECBDA"/>
			<stop  offset="1" style="stop-color:#B80001"/>
		</radialGradient>
		<path style="fill:url(#SVGID_00000028325876395317948410000012227262519425596047_);" d="M650.95,448.96
			c0.4-1.82-2.57-2.89-4.25-3.92c-0.37-0.23-0.76-0.45-0.99-0.8c-0.45-0.68-0.1-1.59,0.49-2.17c1.24-1.22,3.43-1.41,5.05-0.65
			s2.68,2.33,3.01,3.97c0.29,1.45-0.04,3.13-1.31,4.04S650.58,450.66,650.95,448.96z"/>
		
			<radialGradient id="SVGID_00000088101707560418109640000014162086984062041757_" cx="14849.8193" cy="7022.96" r="8.4404" gradientTransform="matrix(-1.1551 0 0 -0.8976 17801.4746 6737.4497)" gradientUnits="userSpaceOnUse">
			<stop  offset="0" style="stop-color:#FECBDA"/>
			<stop  offset="0.3853" style="stop-color:#FDC9D8"/>
			<stop  offset="0.5241" style="stop-color:#FBC3D1"/>
			<stop  offset="0.623" style="stop-color:#F8B8C5"/>
			<stop  offset="0.703" style="stop-color:#F3A8B5"/>
			<stop  offset="0.7716" style="stop-color:#EC939F"/>
			<stop  offset="0.8322" style="stop-color:#E47A83"/>
			<stop  offset="0.8872" style="stop-color:#DA5B63"/>
			<stop  offset="0.9376" style="stop-color:#CE383D"/>
			<stop  offset="0.9825" style="stop-color:#C21114"/>
			<stop  offset="1" style="stop-color:#BC0002"/>
		</radialGradient>
		<path style="fill:url(#SVGID_00000088101707560418109640000014162086984062041757_);" d="M641.08,433.7
			c-1.05-0.82-1.67-2.26-1.05-3.39c0.38-0.7,1.16-1.15,1.96-1.4c3.07-0.94,6.28,0.76,8.98,2.38c1.81,1.09,3.62,2.18,5.44,3.26
			c0.3,0.18,0.64,0.42,0.64,0.75c0,0.2-0.13,0.38-0.26,0.54c-1.05,1.36-2.58,2.85-4.36,2.5c-2.2-0.43-2.98-3.36-5.19-3.72
			C646.13,434.43,642.14,434.52,641.08,433.7z"/>
		<path class="st24" d="M604.37,420.47c-1.91,1.01-0.67,4.09-2.36,5.38c-1.69,1.29-4.1,1.76-6.22,1.19
			c-1.26-0.34-2.39-1.01-3.67-1.28c-5.31-1.15-9.96,4.73-15.38,4.1c1.64-4.74,7.75-7.15,13.18-6.84c2.94,0.16,6.26,0.84,8.57-0.82
			c1.72-1.24,2.66-3.65,4.84-3.85C604.39,418.25,606.29,419.46,604.37,420.47z"/>
		<path class="st25" d="M578.11,457.57c2.04-1.03,4.15-2.12,5.47-3.87c1.32-1.75,1.59-4.36-0.05-5.88
			c-0.88-0.81-2.15-1.18-3.39-1.32c-3.93-0.43-8.04,1.32-10.2,4.34c-0.52,0.72-0.93,1.54-0.94,2.4c-0.01,1.22,0.84,2.34,1.88,3.1
			C573.35,458.17,577.02,458.13,578.11,457.57z"/>
		<path class="st26" d="M595.06,451.23c0.97,1.05,0.09,2.77-0.39,4.07c-0.48,1.3-1.6,2.49-3.07,2.73c-0.92,0.15-1.89-0.08-2.77,0.19
			c-2.18,0.66-2.39,3.72-4.48,4.6c-1.39,0.59-3.05-0.05-4.56,0.18c-1.93,0.3-3.72,1.98-5.53,1.32c-1.48-0.54-1.82-2.48-0.97-3.71
			s2.49-1.81,4.07-2c1.58-0.19,3.19-0.08,4.76-0.29c1.57-0.21,3.2-0.84,4-2.1c0.42-0.67,0.57-1.45,0.91-2.16
			C588.18,451.66,592.94,448.93,595.06,451.23z"/>
		<path class="st27" d="M597.77,464.82c-1.22,4.23-7.6,5.77-12.36,5.33c-0.68-0.06-1.43-0.21-1.83-0.73
			c-0.65-0.85,0.1-2.02,1.01-2.64c1.73-1.21,4.11-1.6,6.2-1.03c0.66,0.18,1.36,0.45,2,0.23c0.38-0.13,0.66-0.41,0.91-0.7
			c1.43-1.65,0.55-4.07,1.59-5.94c0.7-1.26,3.05,0.75,3.17,2.16C598.58,462.9,597.94,464.22,597.77,464.82z"/>
		<path class="st28" d="M575.38,465.84c-2.35,0.94-4.88,1.69-7.21,0.7c-2.33-0.98-4.09-2.83-5.56-4.74
			c-0.6-0.77-1.17-1.58-1.49-2.48c-0.34-0.94-0.39-1.95-0.35-2.93c0.07-2.08,0.99-4.62,3.26-4.9c2.25-0.28,3.97,2.16,3.64,4.2
			c-0.16,1-0.64,1.93-0.79,2.93c-0.37,2.53,1.84,5.13,4.61,5.43c0.99,0.11,2.03-0.03,2.96,0.3
			C575.37,464.68,576.02,465.58,575.38,465.84z"/>
		<path class="st29" d="M634.49,421.46c-5.68-4.15-14-3.18-21.27-3.03c-1.08,0.02-2.53-0.24-2.6-1.23c-0.03-0.4,0.22-0.77,0.47-1.11
			c1.41-1.88,3.94-3.62,6.21-2.67c0.8,0.33,1.4,0.94,2.03,1.49c1.35,1.18,3,2.18,4.86,2.34c2.1,0.17,4.15-0.75,6.26-0.72
			c3.08,0.04,7.97,2.85,6.26,5.18C635.69,423.1,635.13,421.92,634.49,421.46z"/>
	</g>
</g>
</svg>
