<?xml version="1.0" encoding="utf-8"?>
<!-- Generator: Adobe Illustrator 27.0.0, SVG Export Plug-In . SVG Version: 6.00 Build 0)  -->
<svg version="1.1" id="Слой_1" xmlns="http://www.w3.org/2000/svg" xmlns:xlink="http://www.w3.org/1999/xlink" x="0px" y="0px"
	 viewBox="0 0 2000 861.54" style="enable-background:new 0 0 2000 861.54;" xml:space="preserve">
<style type="text/css">
	.st0{fill:#9BAFBD;}
	.st1{fill:#728694;}
	.st2{fill:#FDD5C8;}
	.st3{fill:#FEE4DB;}
	.st4{fill:#E0AFA1;}
	.st5{fill:#99685A;}
	.st6{fill:#AECCD1;}
	.st7{fill:#7A9CA1;}
	.st8{fill:#495B5E;}
	.st9{fill:url(#SVGID_1_);}
	.st10{fill:#E09F89;}
	.st11{fill:url(#SVGID_00000073693476310203850520000005239920306442645675_);}
	.st12{fill:#F6DCDD;}
	.st13{fill:#E39D9D;}
	.st14{fill:#FDACAE;}
	.st15{fill:#E2A094;}
	.st16{fill:#FEBEBE;}
	.st17{fill:#F16E2B;}
	.st18{fill:#DF523C;}
	.st19{fill:#E78B7C;}
	.st20{fill:url(#SVGID_00000027578809376625678800000011980529457531992755_);}
	.st21{fill:#E7DBE0;}
	.st22{fill:url(#SVGID_00000046318386089963233110000011708662995469976965_);}
	.st23{fill:url(#SVGID_00000031173166039345119280000005927536799673999244_);}
	.st24{fill:#E75742;}
	.st25{fill:#EEA755;}
	.st26{fill:#EEB3B2;}
	.st27{fill:#FA9DA5;}
	.st28{fill:#FABEB5;}
	.st29{fill:#F25026;}
	.st30{fill:url(#SVGID_00000157288203239861303390000002511720890678533530_);}
	.st31{fill:url(#SVGID_00000173856626786615082770000007248878337042092707_);}
	.st32{fill:url(#SVGID_00000036218014173963248390000010180213495813962631_);}
	.st33{fill:url(#SVGID_00000126290884517188818990000007720041503748433594_);}
	.st34{fill:url(#SVGID_00000121238363732611782730000003916859148148319147_);}
	.st35{fill:url(#SVGID_00000157280715534665831550000003039359950475654289_);}
	.st36{fill:url(#SVGID_00000131361996718597468550000017457155640275588520_);}
	.st37{fill:url(#SVGID_00000129167636399895480630000012885451774126745785_);}
	.st38{fill:url(#SVGID_00000018202849092716169070000011417021040083286706_);}
	.st39{fill:url(#SVGID_00000020374221821181494250000015082401691792068277_);}
	.st40{fill:url(#SVGID_00000068672936919134597290000005235474057098036405_);}
	.st41{fill:url(#SVGID_00000030477297404648026430000010758110532321109938_);}
	.st42{fill:url(#SVGID_00000139254619335677830650000013778756824638465167_);}
	.st43{fill:url(#SVGID_00000085948675979254669610000009214074387732134026_);}
	.st44{fill:url(#SVGID_00000118380846780357151350000002773422957667869370_);}
	.st45{fill:url(#SVGID_00000142871565812407892940000004576939575020531374_);}
	.st46{fill:url(#SVGID_00000070829812122367081360000010557804639721243529_);}
	.st47{fill:url(#SVGID_00000125596012970834603860000004822429360989923221_);}
	.st48{fill:url(#SVGID_00000023246800373782908660000013695901910939325574_);}
	.st49{fill:url(#SVGID_00000006685485069590266240000016400066190579030163_);}
	.st50{fill:url(#SVGID_00000123440274821804421260000010018175027922337697_);}
	.st51{fill:url(#SVGID_00000149359050386845249900000004603210563039860903_);}
	.st52{fill:url(#SVGID_00000081605244414319142350000007219929541001020811_);}
	.st53{fill:url(#SVGID_00000078752792147115935670000009102505713266492801_);}
	.st54{fill:url(#SVGID_00000007399017840230581060000013990991159657936782_);}
	.st55{fill:url(#SVGID_00000162345090860282836380000002718816417732227733_);}
	.st56{fill:url(#SVGID_00000011003399676503368460000001679954523309868204_);}
	.st57{fill:url(#SVGID_00000132047515063086525310000015322153753272472992_);}
	.st58{fill:url(#SVGID_00000141434375216279534710000011249960015570813845_);}
	.st59{fill:url(#SVGID_00000056427980864318288790000014127509979736705939_);}
	.st60{opacity:0.4;fill:url(#SVGID_00000041976010116128157430000009746952085395544736_);}
	.st61{fill:url(#SVGID_00000160875517935804128820000006465757629630255497_);}
	.st62{fill:url(#SVGID_00000003802374778796838410000001832921326535024313_);}
	.st63{fill:url(#SVGID_00000062164331575589355010000015135348680908271016_);}
	.st64{fill:url(#SVGID_00000118398237143916640760000004391231936250630025_);}
	.st65{fill:url(#SVGID_00000170994587585410437290000009421897493448582037_);}
	.st66{fill:url(#SVGID_00000045589888800551586430000004249550700850133912_);}
	.st67{fill:url(#SVGID_00000181064852008789222530000011679696596212660619_);}
	.st68{fill:url(#SVGID_00000088816858398626520830000015785861587525959064_);}
	.st69{fill:#AD0000;}
	.st70{fill:url(#SVGID_00000079467094522468908320000010461121296630659258_);}
	.st71{fill:url(#SVGID_00000034076201891281729220000011704513090867696551_);}
	.st72{fill:url(#SVGID_00000031891284237519292420000011814941068257735358_);}
	.st73{fill:url(#SVGID_00000095325108545058897760000000385398345250776507_);}
	.st74{fill:url(#SVGID_00000075146879098092156790000003020200078703640742_);}
	.st75{fill:#BF9184;}
	.st76{fill:none;stroke:#FDD5C8;stroke-miterlimit:10;}
	.st77{fill:url(#SVGID_00000119826731296181072070000004623116726716188852_);}
	.st78{fill:url(#SVGID_00000013179879202325454680000011000093025049312447_);}
	.st79{fill:url(#SVGID_00000039092908279706373010000015082227091684407460_);}
	.st80{fill:url(#SVGID_00000122682121356678024540000016076531633049311906_);}
	.st81{fill:url(#SVGID_00000170989914735393587340000003999600628825062071_);}
	.st82{fill:url(#SVGID_00000149360672742146226550000005371302280149380256_);}
	.st83{fill:url(#SVGID_00000045593530459397899800000001741083969305340569_);}
	.st84{fill:url(#SVGID_00000120517131729857705420000016740873421391619227_);}
	.st85{fill:url(#SVGID_00000055698194820469819440000002357950642491805099_);}
	.st86{fill:url(#SVGID_00000071522040863404347930000012191759924354343826_);}
	.st87{fill:none;stroke:#E0AFA1;stroke-miterlimit:10;}
	.st88{fill:#59767A;}
	.st89{fill:none;}
	.st90{fill:#314042;}
	.st91{fill:url(#SVGID_00000047751269348782724830000017441276132911824563_);}
	.st92{fill:url(#SVGID_00000167380870552463761430000002024926385083978407_);}
	.st93{fill:url(#SVGID_00000140706975515927355480000004732015485011806601_);}
	.st94{fill:url(#SVGID_00000140721353109977806880000018366640588159777940_);}
	.st95{fill:url(#SVGID_00000122694882138523136280000012688076072085598360_);}
	.st96{fill:none;stroke:#99685A;stroke-miterlimit:10;}
	.st97{fill:#F2CEC4;}
	.st98{fill:#E1AFA1;}
	.st99{fill:url(#SVGID_00000078045273008067681000000004334485458168903610_);}
	.st100{fill:url(#SVGID_00000181784320204312346290000002553628810741089723_);}
	.st101{fill:url(#SVGID_00000034057518506787194290000014048326967788950155_);}
	.st102{fill:url(#SVGID_00000116212554883739359060000016509094138220017834_);}
	.st103{fill:url(#SVGID_00000180365240702786747400000010819968562048570788_);}
	.st104{fill:url(#SVGID_00000031169194673951796520000008658399799442666171_);}
	.st105{fill:url(#SVGID_00000134236449421755804420000015429008746913845400_);}
	.st106{fill:url(#SVGID_00000160886709722855950760000012879308778678862220_);}
	.st107{fill:url(#SVGID_00000164497778058480752690000013831837467752209845_);}
	.st108{fill:url(#SVGID_00000010298932245187601710000014140697655752061118_);}
	.st109{fill:#E39F8D;}
	.st110{fill:#C2553C;}
	.st111{fill:url(#SVGID_00000134969997606052137520000006094254919454672557_);}
	.st112{fill:url(#SVGID_00000091008088121872241760000005207182682577838986_);}
	.st113{fill:url(#SVGID_00000022537684189613629290000011959203470228613558_);}
	.st114{fill:#AD4024;}
	.st115{fill:url(#SVGID_00000010296515787930656550000005047396668838201243_);}
	.st116{fill:url(#SVGID_00000058590491655092028480000013945940050601489302_);}
	.st117{fill:url(#SVGID_00000011715547237044636500000004461800302526949787_);}
	.st118{opacity:0.5608;fill:#FFFFFF;}
	.st119{fill:#FFFFFF;}
	.st120{fill:#FFF1ED;}
	.st121{fill:#E6D7D3;}
	.st122{opacity:0.4392;fill:#E0AFA1;}
	.st123{fill:#FFD3C7;}
	.st124{opacity:0.3412;fill:#AAAD66;}
	.st125{opacity:0.2314;fill:#FFFFFF;}
	.st126{fill:#23282B;}
	.st127{fill:none;stroke:#99685A;stroke-linecap:round;stroke-linejoin:round;stroke-miterlimit:10;}
	.st128{fill:#495760;}
	.st129{fill:#353A3E;}
	.st130{fill:#3A474F;}
	.st131{fill:#709EB8;}
	.st132{fill:#8BB0C5;}
	.st133{fill:#31556B;}
	.st134{fill:#4E768F;}
	.st135{fill:#263F4F;}
	.st136{fill:#576975;}
	.st137{fill:none;stroke:#3A474F;stroke-miterlimit:10;}
	.st138{fill:#2F3943;}
	.st139{fill:#C78D7D;}
	.st140{fill:#421D13;}
	.st141{fill:#5E3E35;}
	.st142{fill:#806158;}
	.st143{fill:#EFC3B6;}
	.st144{fill:#C79789;}
	.st145{fill:none;stroke:#EFC3B6;stroke-miterlimit:10;}
	.st146{fill:#69483F;}
	.st147{fill:none;stroke:#806158;stroke-width:3;stroke-linecap:round;stroke-linejoin:round;stroke-miterlimit:10;}
	.st148{fill:#E8E8E8;}
	.st149{fill:#BACAD9;}
	.st150{fill:#694034;}
	.st151{fill:#658F85;}
	.st152{fill:#407065;}
	.st153{fill:#323C42;}
	.st154{fill:#B4CADE;}
	.st155{opacity:0.3294;fill:#C75B63;}
	.st156{fill:none;stroke:#5E3E35;stroke-width:4;stroke-linecap:round;stroke-linejoin:round;stroke-miterlimit:10;}
	.st157{fill:#4C6270;}
	.st158{fill:#7A4A3D;}
	.st159{fill:#252E37;}
	.st160{fill:#3E4852;}
	.st161{fill:none;stroke:#E0AFA1;stroke-linecap:round;stroke-linejoin:round;stroke-miterlimit:10;}
	.st162{fill:#BA8677;}
	.st163{fill:#313B45;}
	.st164{fill:none;stroke:#4E768F;stroke-miterlimit:10;}
	.st165{fill:#193646;}
	.st166{opacity:0.1882;fill:#FFFFFF;}
	.st167{fill:none;stroke:#421D13;stroke-miterlimit:10;}
	.st168{opacity:0.2196;fill:#1390D4;}
	.st169{opacity:0.2392;fill:#027DCF;}
	.st170{opacity:0.3216;fill:#FFFFFF;}
	.st171{fill:#CFCFCF;}
	.st172{fill:url(#SVGID_00000023982967205955471230000018025766632916073381_);}
	.st173{fill:url(#SVGID_00000002352452286598292950000002134608467610359939_);}
	.st174{opacity:0.749;fill:url(#SVGID_00000103987456494662812830000008413334020213504442_);}
	.st175{fill:url(#SVGID_00000088840139763542658900000001237409465610962607_);}
	.st176{fill:url(#SVGID_00000078009503618600794860000011198746483833929638_);}
	.st177{fill:#821111;}
	.st178{fill:url(#SVGID_00000019659238631191429420000000138248557080899723_);}
	.st179{fill:#BC0002;}
	.st180{fill:url(#SVGID_00000134967728076544385070000005047692512891724711_);}
	.st181{fill:url(#SVGID_00000118392994118184196760000001949331758303413905_);}
	.st182{fill:url(#SVGID_00000142177246957381151070000015978416720325565353_);}
</style>
<g>
	<rect class="st0" width="2000" height="861.54"/>
	<path class="st1" d="M86.31,484.61c2.88,13.06,10.26,25.08,23.92,32.91c15.66,5.07,31.53,9.5,47.55,13.26l1.54,0.53l14.12,2.36
		c0,0,4.74,1.13,8.92,1.79c5.79,1.38,11.58,2.75,17.37,4.13l3.16,0.75c0,0,7.05,4.01,11.88,6.15c11.08,2.01,22.41,2.59,33.64,1.69
		l1.02-0.11l3.62,0.19l9.29,0.21l15.23,3.29l12.26,4.58c0,0,13.08,8.12,19.62,11.6c13.47,7.68,27.47,14.42,43.5,20.44
		c5.91,2.74,11.82,5.48,19.31,8.6c10.59,5.12,21.86,8.82,36.37,12.02c156.68,30.62,315.09,61.38,474.6,54.88
		c25.68-1.05,51.39-3.06,77.05-1.64c31.35,1.74,82.44,8.29,93.71,0.62c15.37-10.46-34.47-12.32-53.01-13.77
		c-38.98-3.06-77.3-14.24-112.19-38.46c6.51-8.83,18.03-12.71,29-12.92c10.96-0.21,21.71,2.69,32.44,4.94
		c117.54,24.66,259.75-19.7,346.32-15.51c6.97,0.34,12.72,3.53,27.55,4.54c8.62,1.05,17.25,2.09,28.27,3.58
		c21.7,3.89,43.4,7.77,67.65,11.23c10.68,0.87,21.35,1.74,32.03,2.62l2.38,0.53l7.7-0.68c0,0,21.82,1.17,35.49,1.35
		c106.73-33.61,222.11,1.79,333.86-4c12-0.62,26.06-3.07,31.34-13.86c-17.89-14.92-35.78-29.84-53.67-44.76
		c-4.05-3.38-8.33-7.11-9.58-12.24c-1.91-7.86,4.37-15.71,11.78-18.95c7.41-3.24,15.76-3.22,23.78-4.25
		c17.42-2.24,34.11-9.77,47.32-21.34c4.37-3.83,8.61-8.65,8.8-14.45c0.2-5.91-3.9-11.12-8.5-14.84
		c-25.2-20.43-65.24,12.01-93.74-3.48c-178.33-96.92-229.96-17.4-351.44-20.3c-30.27-5.3-61.17-7-98.8-4.69
		c-32.5,0.81-65,1.61-97.51,2.42l-408.32-39.56l-368.69-35.6L229.6,437.09l3.7-4.42l0.24,2.71L86.31,484.61z"/>
	<path class="st134" d="M259.53,458.84c16.12-27.27,27.38-57.4,33.09-88.55"/>
	<path class="st128" d="M1562.63,379.37l0.39-1.47L1562.63,379.37z"/>
	<path class="st128" d="M1562.93,378.27l-0.1,0.37L1562.93,378.27z"/>
	<g>
		<g>
			<path class="st2" d="M1625.89,409.78l-21.2,51.96c-7.75,0.12-15.5,0.31-23.24,0.56c-54.95,1.86-109.77,7.28-164,16.27
				l-42.33,2.37l-58.53,3.28l-10.74-46.68l11.62-61.2c58.39-3.07,116.48,10.12,174.95,10.68c42.21,0.41,84.46-5.84,124.75-18.42
				C1617.25,372.1,1625.89,409.78,1625.89,409.78z"/>
			<path class="st3" d="M1364.82,405.69c56.43,6,114.31,11.9,169.25-2.3c3.48-0.9,7.13-1.99,9.61-4.6
				c-18.86-6.98-39.64-5.25-59.73-4.39c-27.43,1.18-54.95,0.57-82.3-1.82c-14.98-1.31-30.84-3.01-44.41,3.47
				c-0.9,0.43-1.82,0.92-2.39,1.74c-1.27,1.8-0.26,4.47,1.54,5.74C1358.17,404.79,1360.45,405.22,1364.82,405.69z"/>
			<path class="st4" d="M1581.24,462.31c1.84-0.38,3.65-0.82,5.45-1.34c1.15-0.33,2.38-0.77,3.01-1.78
				c1.34-2.18-1.05-4.78-3.32-5.95c-15.35-7.85-33.85,0.79-51.04-0.61c-0.74-4.32,3.53-7.78,7.56-9.51
				c17.5-7.45,38.37-1.66,56.07-8.59c1.25-0.49,2.55-1.1,3.26-2.24c2.01-3.24-2.12-6.83-5.73-8.06
				c-19.7-6.78-41.75-0.49-59.72,10.04c-5.33,3.12-10.49,6.64-16.25,8.9c-10.61,4.16-22.55,3.77-33.64,1.13
				c-8.21-1.97-16.27-5.15-24.71-5.2c-9.19-0.05-17.93,3.6-26.79,6.05c-10.05,2.77-20.52,4.02-30.94,3.68
				c-1.83-0.06-3.82-0.12-5.29,0.96c-2.04,1.49-2.22,4.45-3.59,6.56c-2.06,3.18-6.35,3.89-10.13,3.99
				c-16.53,0.42-33.16-5.55-45.65-16.4c-1.14,7.35-1.61,13.93,0.09,20.13c1.69,6.21,6.01,12.09,12.19,13.86
				c2.81,0.81,5.79,0.72,8.72,0.62c12.9-0.42,25.82-0.85,38.72-1.27c13.17-0.44,26.36-0.87,39.42-2.56
				c13.39-1.73,26.61-4.79,40.05-6.06c6.75-0.65,13.51-0.83,20.29-0.91"/>
			<path class="st5" d="M1581.45,462.3c-54.95,1.86-109.77,7.28-164,16.27l-42.33,2.37c-1.93-1.86-2.92-4.52-2.02-8.3
				c23.55-10.82,49.76-15.78,75.63-14.33c9.74,0.54,19.46,1.99,29.21,1.78c20.97-0.44,42.39-8.41,62.44-2.25
				c2.49,0.77,4.97,1.75,7.59,1.82c2.43,0.05,4.8-0.71,7.16-1.27c7.26-1.73,14.95-1.67,22.18,0.18c1.65,0.43,3.52,1.17,4.02,2.8
				C1581.44,461.7,1581.47,462,1581.45,462.3z"/>
		</g>
		<path class="st3" d="M1597.44,411.94c-19.31,4.21-38.69,8.08-58.14,11.63c-0.71-1.89,1.51-3.51,3.35-4.33
			c16.83-7.46,33.65-14.92,50.48-22.37C1594.07,402.21,1595.01,407.55,1597.44,411.94z"/>
	</g>
	<g>
		<path class="st128" d="M1730.71,332.31c-4.08,16.45-12,31.7-20.93,46.11c-1.17,4.29-3.01,9.71-3.01,9.71l-0.19,0.75
			c-1.94,3.83-3.88,7.65-5.82,11.48c-10.62,21.59-18.43,43.59-23.91,66.15c-1.64,6.77-3.16,13.79-7.14,19.51
			c-9.29,13.35-29.06,15.03-44.36,9.51c-15.31-5.52-27.97-16.43-42.08-24.53c-1.84-1.07-3.96-2.5-3.88-4.63
			c0.03-0.84,0.43-1.62,0.81-2.38c13.26-26.14,14.01-58.3,1.99-85.04c-6.37,1.3-13.05,1.11-19.32-0.57
			c6.52,0.5,11.79-1.66,17.07-3.84c-1.23-6.1,6.22-9.96,12.16-11.81c27.16-8.41,53.2-20.41,77.24-35.6
			c1.9-13.55,5.53-26.86,10.76-39.51c1.21-2.93,2.61-5.96,5.14-7.87c2.36-1.76,5.39-2.33,8.31-2.77c0.56-0.08,1.13-0.16,1.69-0.25
			c2.03-0.29,4.06-0.54,6.1-0.75c5.46-0.58,10.94-0.92,16.43-1.01c1.9-0.02,3.87-0.01,5.57,0.82c2.54,1.22,3.96,3.94,5.04,6.54
			C1734.82,298.05,1734.79,315.86,1730.71,332.31z"/>
		<path class="st136" d="M1711.52,320.42c-1.92,12.28-5.69,24.27-11.13,35.45c-3.03,6.21-6.56,12.15-9.71,18.31
			c-3.06,5.96-5.76,12.1-8.46,18.25c-12.71,28.93-25.42,57.87-38.12,86.8c-1.93-0.04-3.86-0.07-5.79-0.11
			c4.55-14.49,10.81-28.45,18.61-41.49c1.91-4.23,3.54-7.74,5.16-11.25c9.42-25.69,21.92-48.93,34.08-72.22
			c3.07-5.86,6.12-11.77,7.92-18.12c2.69-9.53,2.43-19.61,1.96-29.5c-0.32-6.42-0.74-12.97-3.16-18.92
			c-1.68-4.13-4.32-7.88-7.62-10.86c2.03-0.29,4.06-0.54,6.1-0.75c0.47,0.78,0.89,1.6,1.3,2.4c4.18,8.12,8.43,16.47,9.55,25.54
			C1712.88,309.42,1712.38,314.97,1711.52,320.42z"/>
		<path class="st138" d="M1574.75,371.92c0.31,0.69,0.62,1.38,0.93,2.07c5.05-4.29,10.41-8.73,16.92-10
			c2.63-0.51,5.46-0.52,7.73-1.93c0.86-0.53,1.61-1.25,2.54-1.65c1.09-0.46,2.34-0.43,3.51-0.23c1.03,0.17,2.06,0.47,3.1,0.38
			c1.04-0.1,2.13-0.72,2.36-1.74c0.23-1.02-0.89-2.19-1.83-1.72c2.26-1.02,4.52-2.05,6.78-3.07c1.61-0.73,3.41-1.47,5.08-0.89
			c0.94,0.33,1.71,1.05,2.66,1.31c0.96,0.26,2.27-0.3,2.17-1.29c-0.09-0.95-1.31-1.28-2.26-1.36c3.06-1.77,6.5-2.89,10.02-3.26
			c2.57-0.27,5.69-0.45,6.86-2.76c0.46-0.91,0.58-2.12,1.48-2.6c0.56-0.3,1.24-0.21,1.88-0.18c2.29,0.09,4.61-0.95,6.07-2.72
			c0.64-0.78,1.14-1.7,2-2.23c0.56-0.34,1.22-0.48,1.86-0.64c2.34-0.55,4.71-1.41,6.4-3.11c0.67-0.67,1.21-1.46,1.91-2.11
			c1.74-1.61,4.19-2.16,6.31-3.22c0.45-0.23,0.92-0.5,1.18-0.94c0.78-1.32-0.98-2.93-2.49-2.69s-2.62,1.49-3.71,2.56
			c-1.52,1.48-3.24,2.73-4.96,3.98c-0.84,0.61-1.68,1.22-2.64,1.62c-1.17,0.49-2.49,0.63-3.59,1.27c-2.05,1.2-2.95,3.88-5.1,4.88
			c-1.73,0.81-3.88,0.32-5.55,1.26c-1.44,0.81-2.16,2.49-3.46,3.51c-0.88,0.68-1.97,1.02-3.04,1.34c-2.77,0.83-5.55,1.61-8.35,2.35
			c-3.04,0.8-6.1,1.55-9.08,2.56c-4.1,1.38-8.03,3.24-11.7,5.52c-1.09,0.68-2.19,1.41-3.45,1.67c-1.26,0.26-2.74-0.06-3.45-1.13
			c-1.68,1.13-3.32,2.31-4.93,3.54c0.2-1.13-0.88-2.16-2.02-2.34c-1.13-0.18-2.26,0.25-3.33,0.68c-1.69,0.67-3.74,2.11-3.04,3.79
			c0.25,0.6,0.85,1.23,0.51,1.79c-0.16,0.27-0.49,0.39-0.79,0.48c-1.65,0.53-3.29,1.05-4.94,1.58c-1.84,0.59-3.75,1.22-5.13,2.57
			C1574.8,370.19,1574.14,372.49,1574.75,371.92z"/>
	</g>
	<path class="st4" d="M256.81,365.63c10.74,9.41,24.76,15.36,39.41,16.73c-5.48,11.25-4.97,24.05-5.89,36.34
		c-0.67,9.03-2.18,18.02-4.48,26.83c-0.22,0.83-0.5,1.74-1.27,2.2c-1.24,0.74-2.77-0.17-3.87-1.04
		c-9.81-7.74-19.61-15.48-29.42-23.22c-1.67-1.32-3.43-2.76-4.02-4.77c-0.84-2.88,0.99-5.82,1.81-8.74c0.72-2.54,0.67-5.19,0.69-7.8
		C249.86,389.68,251.51,377.19,256.81,365.63z"/>
	<g>
		<path class="st2" d="M1699.12,496.53l-27.21,44.87l-8.83,14.57c-48.13-1.34-95.99,3.55-143.75,10.13
			c-35.33,4.86-70.61,10.65-105.89,15.51c-12.66,1.74-25.57,3.35-38.23,2.36c-4.05-0.33-8.08-0.91-12.06-1.86l-0.12-3.23l-0.26-7.1
			l-0.89-23.89l-2.9-77.98c34.71-1.98,69.59-0.99,104.14,2.92c14.98,1.69,29.91,3.95,44.93,5.19c54.72,4.53,109.63-4.35,163.5-14.95
			C1673.18,464.97,1699.12,496.53,1699.12,496.53z"/>
		<path class="st3" d="M1442.91,495.06c57.35,6.21,115.23,12.43,172.59,6.28c6.82-0.73,14.97-2.71,17.01-9.25
			c-17.41-3.48-35.27-3.78-53.01-4.06c-42.25-0.68-84.51-1.37-126.76-2.05c-5.18-0.08-11.08,0.14-14.45,4.08
			C1437.18,491.34,1437.38,494.46,1442.91,495.06z"/>
		<path class="st4" d="M1677.76,508.07c-1.1,2.64-3.15,4.75-5.34,6.58c-12.15,10.18-28.72,13.1-44.52,14.42
			c-15.8,1.33-32.09,1.54-46.74,7.61c-13.63,5.64-24.84,15.97-38.22,22.19c-7.51,3.51-15.48,5.61-23.61,7.23
			c-35.33,4.86-70.61,10.65-105.89,15.51c-12.66,1.74-25.57,3.35-38.23,2.36c-4.23-1.33-8.32-3.02-12.18-5.09l-0.26-7.1l-0.89-23.89
			c15.23,1.13,30.75-1.47,44.75-7.58c10.76-4.7,20.57-11.38,31.38-15.99c33.44-14.25,71.52-7.14,107.67-3.35
			c10.04,1.06,20.28,1.83,30.15-0.26c7.49-1.58,14.63-4.77,22.24-5.59c7.65-0.83,15.33,0.78,23.01,1.43
			c11.93,1.01,24.05-0.34,35.47-3.94C1663.5,510.44,1670.51,507.37,1677.76,508.07z"/>
		<path class="st5" d="M1671.91,541.4l-8.83,14.57c-83.73-2.34-166.66,14.22-249.64,25.64c-16.71,2.3-33.87,4.38-50.29,0.5
			l-0.38-10.33c58.27-2.73,115.17-19.52,173.22-26.28c26.54-3.09,53.28-4.07,79.99-5.05C1634.64,539.78,1653.42,539.1,1671.91,541.4
			z"/>
	</g>
	<path class="st131" d="M1366.27,570.77c-0.26-21.86-0.51-43.74-0.78-65.61c-0.07-6.06-0.17-12.23-1.12-18.19
		c-0.66-4.14-1.73-8.16-3.48-11.98c-2.67-5.82-6.8-10.82-10.15-16.28c-14.97-24.37-13.23-55.08-13.17-84.08
		c-25.04-3.24-50.09-6.48-75.14-9.72c-17.37-2.24-34.76-4.49-51.87-8.19c-20.89-4.52-41.23-11.19-61.81-16.96
		c-32.05-8.98-64.66-15.78-97.26-22.58c-78.46-16.36-158.43-32.81-238.17-24.77c-43.65,4.4-86.79,16.11-128.67,15
		c-16.73,1.85-33.69,2.8-50.37,0.54c-31.74-4.28-60.89-19.82-93.18-27.32c-6.88-0.95-13.75-1.89-21.43-2.14
		c-16.26-3.9-33.51-2.21-49.53,2.61c-16.03,4.82-30.98,12.64-44.28,19.58c-43.24,27.51-88.49,51.86-136.74,70.8
		c-2.96,1.17-5.95,2.31-8.93,3.42c-0.05,0.02-0.1,0.04-0.16,0.07c0.02,0.17,0.06,0.34,0.08,0.52v0.01
		c2.5,18.32-0.93,37.36-9.47,53.74v0.01c-1.51,2.88-3.16,5.67-4.98,8.36c-1.7,2.52-3.56,5.05-4.2,8.02c-0.61,2.8-0.04,5.7,0.51,8.5
		c0.53,2.63,1.06,5.28,1.61,7.92v0.01c0.92,4.41,1.89,8.82,2.98,13.11c4.71,18.86,11.38,35.57,23.97,41.58
		c2.42,7.8,4.94,15.79,8.79,22.94c1.99,3.72,4.33,7.19,7.2,10.31c0.01,0.01,0.03,0.03,0.04,0.04c3.77,4.09,8.32,7.4,12.94,10.51
		c3.7,2.51,7.49,4.93,11.57,6.74c4.64,2.05,9.58,3.31,14.49,4.54c7.55,1.89,15.11,3.8,23.06,5.64c24.14,6.29,48.7,11.02,73.45,14.14
		c6.55,0.83,13.1,1.54,19.66,2.34c6.16,0.75,12.32,1.57,18.43,2.78c5.39,1.07,10.74,2.43,16.14,3.48
		c27.16,5.24,56.03,2.23,81.17,11.98c23,5.24,46.02,10.47,69.03,15.7c6.19,1.41,12.39,2.82,18.68,3.64
		c7.51,0.97,15.1,1.11,22.64,1.76c35.69,3.12,70.96,18.04,106.28,11.97c6.66-1.15,13.2-3.03,19.92-3.76
		c7.6-0.83,15.33-0.17,22.03-0.22c1.94-0.02,3.8-0.1,5.54-0.28c1.82-0.48,3.57-1.23,5.18-2.22c1.46-0.87,2.8-1.94,3.99-3.16
		c0.56-0.56,1.07-1.16,1.55-1.78c0.08-0.11,0.16-0.22,0.25-0.33c-0.2,0.04-0.38,0.08-0.58,0.11c-1.05,0.18-2.1,0.21-3.13,0.08
		c-5.65-0.62-10.74-5.38-13.88-10.51c-0.03-0.06-0.07-0.13-0.12-0.19c-3.73-6.22-5.98-13.67-4.46-20.75
		c1.57-7.29,6.86-13.17,12.94-17.6c1.15-0.84,7.12-5.78,13.96-5.81c2.17-0.01,4.32,0.52,6.34,1.85c-0.89-0.75-1.79-1.51-2.71-2.25
		c-4.23-3.41-8.79-6.49-14.1-7.18c-3.32-0.43-6.69,0.13-10.05,0.03c-0.34-0.01-0.66-0.02-1-0.05c-3.04-0.22-6-1.15-6.44-3.17
		c-6.89-2.22-13.76-4.45-20.64-6.67c-1.7-0.56-3.4-1.1-5.11-1.66c2.33,0.2,4.67,0.38,7.01,0.55c0.35,0.03,0.69,0.05,1.04,0.07
		c1.25,0.1,2.5,0.19,3.76,0.26c1.33,0.1,2.67,0.18,4.01,0.27c0.06,0,0.12,0,0.18,0.01c3.37,0.21,6.75,0.4,10.12,0.54
		c1,0.06,2,0.11,3,0.15c0.65,0.02,1.3,0.05,1.94,0.07c1.54,0.07,3.09,0.13,4.63,0.18c1.12,0.04,2.24,0.07,3.36,0.1
		c1.42,0.05,2.84,0.08,4.26,0.11c0.58,0.02,1.17,0.03,1.76,0.04c1.79,0.04,3.57,0.07,5.35,0.09c3.1,0.04,6.19,0.06,9.29,0.06
		c30.63-0.01,61.24-1.98,91.8-3.95c53.41-3.44,106.8-6.87,160.2-10.32c12.42-0.8,24.88-1.6,37.3-0.86
		c38.41,2.25,74.38,18.92,112.01,26.95c30.29,6.47,61.45,7.31,89.31,8.19c0.05,0.01,0.18,0.03,0.38,0.06
		c0.9,0.13,1.81,0.26,2.71,0.4c3.15,0.48,6.29,0.95,9.43,1.42C1366.38,579.68,1366.33,575.23,1366.27,570.77z M706.98,554.81
		c-19.47-5.54-38.05-13.74-56.92-23.54c-2.17-1.13-4.34-2.27-6.53-3.44c40.61,13.04,82.38,22.44,124.65,28.07
		c4.91,0.66,9.82,1.26,14.74,1.81c-1.4,0.25-2.8,0.53-4.2,0.81c-1.6,0.33-3.2,0.67-4.79,0.98c-0.09,0.02-0.17,0.03-0.26,0.05
		C751.58,563.72,728.62,560.97,706.98,554.81z"/>
	<path class="st139" d="M252.75,394.67c3.14,4.48,7.8,7.72,12.79,9.97c4.99,2.25,10.33,3.59,15.18,4.93
		c-2.96,11.97-7.03,23.67-12.13,34.9c-1.06,2.33-2.5,4.93-5.02,5.43c-3.46,0.69-6.1-2.94-7.69-6.09
		c-6.39-12.66-11.77-26.46-10.82-40.61c0.15-2.17,0.48-4.45,1.8-6.18C248.18,395.29,250.76,394.35,252.75,394.67z"/>
	<path class="st135" d="M266.56,475.17c-1.09-4.29-2.06-8.7-2.97-13.11v-0.01c2.51-10.9,4.87-21.83,7.06-32.8v-0.01
		c8.54-16.38,11.97-35.43,9.47-53.74v-0.01c0.03-0.19,0.06-0.39,0.08-0.58l8.93-3.43C290.67,407.2,282.84,443.35,266.56,475.17z"/>
	<path class="st140" d="M140.23,325.02c19.29-2.91,38.96-1.11,58.35,1.09c24.46,2.77,48.85,6.16,73.14,10.17
		c9.96,1.64,19.99,3.41,29.36,7.17s18.14,9.69,23.65,18.15c0.58,0.89,1.14,1.87,1.14,2.94c-0.01,1.56-1.21,2.83-2.37,3.87
		c-9.55,8.59-21.84,13.82-34.5,15.99c-12.66,2.18-25.69,1.41-38.31-0.97c-7.91-1.49-15.7-3.62-23.27-6.35
		c-24.09-8.68-45.77-23.39-70.27-30.83c-5.26-1.6-10.85-2.97-14.93-6.65C138.12,335.93,136.31,329.01,140.23,325.02z"/>
	<path class="st139" d="M280.9,388.89c-2.39,0.46-4.86,0.63-7.29,0.69c-3.97,0.1-7.99-0.04-11.79-1.16
		c0.42-3.98,1.22-7.92,2.48-12.82c4.4,4.87,10.27,8.4,16.61,10.09"/>
	<path class="st132" d="M360.82,420.12c35.55-41.62,74.76-84.66,127.43-99.56c-13.51-6.99-29.43-8.21-44.49-6.09
		s-29.48,7.37-43.69,12.79c-6.96,2.65-13.95,5.38-20.23,9.39c-7.54,4.82-13.81,11.34-20,17.79c-4.15,4.32-8.51,9.1-9.16,15.05
		c-0.4,3.65,0.68,7.28,1.74,10.8C355.42,390.25,358.44,400.22,360.82,420.12z"/>
	<g>
		<path class="st2" d="M267.29,378.51l-7.37,15.35l-2.32,4.83l-36.87,2.27l-40.34-7.46l-42.28-9.69l-10.77-22.1l16.56-28.07
			c1.13-0.44,2.29-0.78,3.47-1.02c0,0,0,0,0.01,0c4.62-0.95,9.54-0.44,13.84,1.5c0.39,0.17,0.78,0.36,1.19,0.44
			c0.12,0.03,0.27,0.05,0.4,0.05c0.85,0.01,1.59-0.54,2.26-1.08c3.35-2.68,6.58-5.52,9.67-8.5c1.88-1.82,3.95-3.81,6.56-3.95
			c0.44-0.02,0.87,0,1.3,0.08c1.69,0.29,3.25,1.29,4.69,2.37c0.24,0.16,0.47,0.35,0.71,0.52c0.71,0.54,1.42,1.09,2.12,1.62
			c1.97,1.5,3.93,2.95,5.87,4.29c0.01,0.01,0.02,0.01,0.03,0.02c3.06,0.74,6.12-0.42,9.21-1.22c1.54-0.41,3.09-0.72,4.65-0.68
			c0.79,0.02,1.58,0.14,2.35,0.36c0.58,0.16,1.16,0.39,1.7,0.67c0.71,0.36,1.37,0.81,1.99,1.36c0.28-0.08,0.55-0.16,0.84-0.24
			c1.74-0.47,3.58-0.69,5.36-0.52c0.01,0,0.01,0,0.01,0c1.09,0.09,2.15,0.33,3.15,0.74c0.52,0.21,1.02,0.46,1.5,0.77
			c0.92,0.59,1.72,1.36,2.61,2.01c0.39,0.29,0.8,0.56,1.23,0.8c0.17,0.11,0.35,0.22,0.53,0.31c0.59,0.31,1.21,0.57,1.85,0.79
			c0.5,0.17,1.04,0.32,1.57,0.32c0.44,0.01,0.88-0.09,1.33-0.15c1.83-0.24,3.69,0.17,5.54,0.07c0.74-0.04,1.48-0.17,2.22-0.1
			c0.17,0.02,0.34,0.04,0.5,0.08c0.23,0.04,0.44,0.1,0.66,0.17c0.41,0.13,0.81,0.31,1.21,0.48c1.02,0.44,2.02,0.92,2.97,1.51
			c0.52,0.34,1.03,0.68,1.53,1.05c6.56,4.71,11.57,11.56,14.01,19.27C266.63,364.48,266.85,371.55,267.29,378.51z"/>
		<path class="st4" d="M212.22,328.45c-0.07,0.15-0.15,0.3-0.24,0.44c-2.25,3.88-4.53,7.78-5.97,12.03
			c-1.43,4.25-0.59,8.84-1.05,12.12c-0.18,1.28-0.36,2.56-0.54,3.85c-1.46,0-2.64-1.18-3.39-2.43c-2.96-4.92-1.67-11.21-0.03-16.72
			c0.74-2.48,1.55-4.97,2.9-7.18c0.39-0.63,0.83-1.23,1.32-1.79c1.54-0.41,3.09-0.72,4.65-0.68
			C210.66,328.11,211.45,328.23,212.22,328.45z"/>
		<path class="st5" d="M162.4,334.56c-0.02,0.18-0.07,0.35-0.14,0.51c-0.36,0.81-1.15,1.34-1.93,1.78
			c-3.69,2.08-8.24,3.1-12.21,1.61c0.08,0.55-1.08,0.09-1.85-0.79c-0.78-0.88-1.09-2.23-0.55-3.27c0.26-0.5,0.69-0.9,1.11-1.29
			c0.17-0.16,0.35-0.33,0.53-0.49c0,0,0,0,0.01,0c4.62-0.95,9.54-0.44,13.84,1.5C161.6,334.29,161.99,334.48,162.4,334.56z"/>
		<path class="st5" d="M155,356.79c-2.63,8.2-5.83,9.67-10.79,14.45c1.11-3.9,3.94-7.02,6.38-10.26c2.44-3.24,3.53-8.14,4.5-12.57
			C155.26,349.92,155.56,355.06,155,356.79z"/>
		<path class="st5" d="M216.75,330.24c-3.92,2.94-7.68,6.51-8.61,11.27c-0.47,2.43-0.14,4.93-0.06,7.41
			c0.05,1.24,0.02,2.53-0.52,3.65c-0.55,1.11-1.74,2-2.97,1.81c-1.11-0.17-1.94-1.17-2.26-2.25c-0.31-1.08-0.19-2.23-0.05-3.33
			c0.71-5.53,2.09-11.14,5.34-15.66c1.03-1.45,2.29-2.79,3.91-3.5c0.71-0.32,1.5-0.48,2.39-0.52c0.71,0.36,1.37,0.81,1.99,1.36
			C216.19,330.39,216.46,330.31,216.75,330.24z"/>
		<path class="st3" d="M216.81,330.59c-4.83,2.9-8.1,8.24-8.51,13.86c-0.13,1.75,0.01,3.5,0.15,5.25c0.1,1.3,0.2,2.6,0.3,3.9
			c0.05,0.63,0.23,1.42,0.85,1.55c0.76,0.15,1.19-0.84,1.29-1.61c0.47-3.49,0.29-7.05,0.75-10.54c0.46-3.49,1.67-7.08,4.34-9.38
			c1.33-1.15,3.06-2.04,3.67-3.69C218.29,329.82,216.89,330.35,216.81,330.59z"/>
		<path class="st3" d="M165.8,363.66c3.89-3.39,8.1-6.42,12.56-9.02c1.04-0.61,2.28-1.21,3.41-0.79c0.18,0.07,0.37,0.18,0.45,0.36
			c0.13,0.3-0.08,0.62-0.28,0.87c-3.96,4.92-8.99,8.98-14.64,11.8c-1.26,0.63-2.61,1.21-4.01,1.12c-0.47-0.03-1.01-0.21-1.12-0.66
			c-0.09-0.39,0.19-0.77,0.48-1.06C163.6,365.33,164.76,364.57,165.8,363.66z"/>
		<path class="st3" d="M231.19,337.77c-2.32,1.89-4.2,4.31-5.47,7.02c-1.08,2.32-1.69,5.1-0.59,7.41c0.16,0.35,0.41,0.71,0.78,0.79
			c0.64,0.14,1.1-0.59,1.32-1.21c1.2-3.32,1.69-6.98,3.81-9.81c0.47-0.62,1.01-1.2,1.38-1.89c0.37-0.69,0.54-1.54,0.22-2.25
			C232.05,337.74,231.44,337.88,231.19,337.77z"/>
		<path class="st3" d="M165.69,336.19c3.41-2.35,6.56-5.07,9.4-8.08c0.44-0.47,0.9-1.1,0.65-1.69c-0.66-0.09-1.25,0.37-1.76,0.8
			c-2.45,2.1-4.9,4.19-7.35,6.29c-1.15,0.99-2.35,2.04-2.87,3.46C164.25,337.05,164.73,336.85,165.69,336.19z"/>
		<path class="st4" d="M157.39,357.98c0.89-0.47,1.61-1.22,2.5-1.7c0.89-0.47,2.13-0.58,2.8,0.17c0.33,0.37,0.47,0.89,0.8,1.26
			c0.72,0.79,2.01,0.58,3,0.19c1.6-0.63,3.07-1.58,4.31-2.78c0.89-0.87,1.7-1.89,2.84-2.39c-1.51-0.59-3.02-1.17-4.53-1.76
			c-1.8-0.7-3.79-1.4-5.62-0.79c-1.48,0.5-2.55,1.76-3.55,2.97C158.75,354.59,157.5,356.22,157.39,357.98z"/>
		<path class="st4" d="M184.01,337.99c0.31,1.44,0.25,3.05-0.61,4.24c-0.44,0.62-1.07,1.08-1.67,1.52
			c-1.02,0.74-2.29,1.49-3.79,0.75c1.7-1.26,2.51-3.49,2.5-5.61c0-2.12-0.72-4.18-1.58-6.13c-0.58-1.34-1.26-2.7-1.38-4.16
			c-0.15-1.84,0.59-3.68,1.82-5.06c0.9-1.03,2.05-1.81,3.3-2.37c1.69,0.29,3.25,1.29,4.69,2.37c-1.45,1.03-3.36,1.49-4.4,2.93
			c-0.73,1.03-0.87,2.36-0.83,3.62c0.04,1.25,0.25,2.5,0.61,3.71C183.08,335.2,183.71,336.56,184.01,337.99z"/>
		<path class="st4" d="M231.14,334.34c-0.03,0.17-0.08,0.35-0.15,0.51c-0.41,0.97-1.38,1.56-2.24,2.17
			c-6.53,4.77-7.75,14.65-14.42,19.22c1.76-3.62,1.77-8.07,0.02-11.7c-0.41-0.83-0.9-1.64-1.11-2.54c-0.44-1.9,0.48-3.85,1.63-5.43
			c1.96-2.71,4.57-4.84,7.24-6.86c0.01,0,0.01,0,0.01,0c1.65,0.13,3.25,0.62,4.65,1.51c0.92,0.59,1.72,1.36,2.61,2.01
			C229.93,333.65,230.53,334.01,231.14,334.34z"/>
		<path class="st4" d="M249.5,347.38c-1.89,6.97-3.97,13.89-6.24,20.74c-0.92,2.77-1.89,5.56-3.33,8.1
			c-3.32,5.85-8.99,9.89-15.39,12.08c-3.59,1.23-7.42,1.88-11.18,1.92c-10.48,0.12-20.62-3.7-30.02-8.34
			c-4.08-2.01-8.17-4.26-9.96-9.24c4.83-4.05,10.47-7.13,16.5-8.98c3.16-0.97,6.58-1.61,9.75-0.66c2.8,0.85,5.08,2.85,7.6,4.33
			c3.52,2.05,7.61,3.12,11.69,3.04c1.54-0.03,3.12-0.24,4.48-0.96c2.3-1.22,3.6-3.69,4.79-6.02c3.96-7.76,8.08-15.46,12.37-23.05
			c1.02-1.78,2.08-3.62,3.58-4.98c0.23,0.04,0.44,0.1,0.66,0.17c0.41,0.13,0.81,0.31,1.21,0.48c1.02,0.44,2.02,0.92,2.97,1.51
			c0.52,0.34,1.03,0.68,1.53,1.05C251,341.42,250.27,344.51,249.5,347.38z"/>
		<path class="st5" d="M195.98,329.96c-0.01,0.4-0.16,0.79-0.5,1.03c-0.58,0.42-1.41,0.22-2.09-0.01c-0.88-0.29-1.76-0.57-2.65-0.86
			c-1.23-0.4-2.53-0.8-3.81-0.52c-1.92,0.41-3.22,2.4-3.29,4.36c-0.07,1.96,0.9,3.84,2.21,5.3c0.56,0.63,1.22,1.25,1.34,2.08
			c0.17,1.07-0.62,2.06-1.51,2.67c-1.99,1.34-4.76,1.39-6.45,0.68c1.23-0.7,2.52-1.47,3.17-2.72c1.14-2.22-0.17-4.82-1.22-7.07
			c-0.89-1.92-1.61-4-1.42-6.1c0.18-2.09,1.48-4.22,3.51-4.81c1.94-0.57,3.99,0.33,5.82,1.2c0.34,0.16,0.69,0.33,1.03,0.49
			C192.09,327.17,194.04,328.63,195.98,329.96z"/>
		<path class="st5" d="M230.61,334.04c-1.28,1.26-3.16,1.62-4.75,2.46c-1.3,0.68-2.43,1.68-3.78,2.26c-1.35,0.58-3.12,0.61-4.09-0.5
			c-0.68-0.76-0.78-1.96-0.26-2.83c0.32-0.51,0.81-0.89,1.29-1.26c1.94-1.48,3.96-2.98,6.26-3.7c0.52,0.21,1.02,0.46,1.5,0.77
			c0.92,0.59,1.72,1.36,2.61,2.01C229.77,333.52,230.18,333.8,230.61,334.04z"/>
		<path class="st5" d="M267.29,378.51l-7.37,15.35c-3.23,1.31-6.81,1.43-10.3,1.47c-5.05,0.07-10.18,0.02-15.01-1.5
			c-3.78-1.19-7.19-3.23-10.07-5.53c-1.54-1.23-2.92-2.53-4.14-3.82c10.12-9.91,17.39-22.7,20.73-36.46
			c0.95-3.93,1.6-7.97,3.26-11.66c0.12-0.28,0.27-0.56,0.42-0.84c0.41,0.13,0.81,0.31,1.21,0.48c1.02,0.44,2.02,0.92,2.97,1.51
			c0.52,0.34,1.03,0.68,1.53,1.05c6.56,4.71,11.57,11.56,14.01,19.27C266.63,364.48,266.85,371.55,267.29,378.51z"/>
	</g>
	<g>
		<path class="st128" d="M1859.26,458.52c-0.76,7.07-2.23,14.14-4.5,20.9c-3.73,11.08-9.64,21.31-18.14,29.27
			c-2.13,8.36-7.48,12.16-12.59,15.7c-18.39,12.71-36.81,25.44-56.25,36.47c-3.94,2.24-7.92,4.4-11.56,7.09
			c-3.04,2.25-5.8,4.82-8.81,7.1c-8.45,6.39-18.53,10.17-28.45,13.88c-3.61,2.99-6.18,2.35-8.61,1.83
			c-4.57-0.97-9.24-1.49-13.91-1.51c-1.48-0.01-2.99,0.03-4.4-0.41c-0.18-0.06-0.36-0.12-0.53-0.19c-0.69-0.27-1.32-0.63-1.96-0.97
			c-2.56-1.43-5.12-2.85-7.68-4.28c-0.57-0.83-1.25-1.53-2.01-2.13c-2.29-1.84-5.21-2.86-7.67-4.41c-2.07-1.3-3.86-3.01-5.77-4.51
			c-4.06-3.17-8.74-5.46-13.55-7.29c-1.34-0.51-2.71-1.01-4.05-1.54c-1.36-0.55-2.71-1.16-3.98-1.91c-2.5-1.5-4.73-3.68-5.61-6.46
			c0.76,0.79,1.08,0.07,1.08,0.07c5.87,2.55,12.97-0.53,16.95-5.55c3.97-5.01,5.49-11.49,6.67-17.77
			c1.79-9.56,2.97-19.95-1.47-28.61c-4.01-7.85-11.89-12.84-17.76-19.39c-1.85-2.06-3.59-4.55-3.41-7.31
			c0.34-5.14,6.67-7.44,9.49-11.75c26.39-9.26,55.3-9.81,82.05-18.44c17.35-5.61,33.67-14.67,47.16-26.94
			c4.58-4.18,8.84-8.72,13.08-13.25c7.06-7.52,14.1-15.05,21.15-22.56c0.15-0.04,0.3-0.09,0.45-0.12c3-0.87,5.99-1.45,8.98-1.84
			c6.11-0.81,12.22-0.82,18.25-0.82c3.26,0,7.24,0.45,8.53,3.44c3.76,5.42,4.74,11.88,5.65,18.26
			C1858.76,421.08,1861.26,439.88,1859.26,458.52z"/>
		<path class="st138" d="M1854.76,479.42c-3.73,11.08-9.64,21.31-18.14,29.27c-2.13,8.36-7.48,12.16-12.59,15.7
			c-18.39,12.71-36.81,25.44-56.25,36.47c-3.94,2.24-7.92,4.4-11.56,7.09c-3.04,2.25-5.8,4.82-8.81,7.1
			c-8.45,6.39-18.53,10.17-28.45,13.88c-3.61,2.99-6.18,2.35-8.61,1.83c-4.57-0.97-9.24-1.49-13.91-1.51
			c-1.48-0.01-2.99,0.03-4.4-0.41c-0.18-0.06-0.36-0.12-0.53-0.19c-0.69-0.27-1.32-0.63-1.96-0.97c-2.56-1.43-5.12-2.85-7.68-4.28
			c-0.57-0.83-1.25-1.53-2.01-2.13c-2.29-1.84-5.21-2.86-7.67-4.41c-2.07-1.3-3.86-3.01-5.77-4.51c-4.06-3.17-8.74-5.46-13.55-7.29
			c-1.34-0.51-2.71-1.01-4.05-1.54c5.39-0.74,10.57-3.5,15.02-6.79c5.86-4.36,10.93-9.74,17.05-13.74c0.64-0.42,1.33-0.83,2.09-0.81
			c1.21,0.05,2.07,1.19,2.71,2.24c2.56,4.19,4.69,8.7,7.73,12.56c3.06,3.87,7.28,7.14,12.17,7.67c6.4,0.69,12.26-3.31,17.54-6.99
			c6.82-4.76,13.77-9.3,20.87-13.64c7.33-4.47,14.83-8.73,22.8-11.95c7.9-3.19,16.16-5.33,24.25-8.05c1.6-0.53,3.18-1.1,4.76-1.69
			c8.08-3.05,16.01-7.17,22.02-13.27c1.1-1.11,2.13-2.29,3.09-3.53c2.34-3.05,4.2-6.47,6.79-9.31c2.84-3.11,6.44-5.39,10.06-7.56
			C1843.3,485.33,1848.97,482.26,1854.76,479.42z"/>
		<path class="st136" d="M1825.8,498.36c-2.5,2.92-4.57,5.87-6.66,8.81c-0.43,0.62-0.88,1.24-1.32,1.86
			c-3.77,5.2-8.09,10.31-14.15,12.09c0.02,0.07-0.02,0.43-0.02,0.43c-27.07,18.64-54.45,36.82-82.13,54.52
			c-6.66,4.26-13.44,8.53-20.99,10.84c-2.18,0.67-4.43,1.16-6.69,1.49c-0.76,0.11-1.54,0.18-2.32,0.24
			c-0.69-0.27-1.32-0.63-1.96-0.97c-2.56-1.43-5.12-2.85-7.68-4.28c-0.57-0.83-1.25-1.53-2.01-2.13c0.71-0.07,1.41-0.12,2.11-0.14
			c9.92,5.76,21.92-0.67,31.53-6.89c25.85-16.74,51.69-33.49,77.54-50.23c3.39-2.21,6.8-4.4,10.19-6.61
			c3.2-2.07,6.42-4.16,9.28-6.69c7.18-6.31,11.84-15.18,13.98-24.49c4.14-25.22,4.93-54.28,1.94-82.94
			c-0.49-4.74-1.15-9.63-3.63-13.7c-1.79-2.96-4.83-5.37-8.14-6.07c3-0.87,5.99-1.45,8.98-1.84c0.49,0.84,0.91,1.71,1.27,2.56
			c6.11,14.44,7.63,30.36,8.62,46.01C1834.97,453.28,1835.21,477.28,1825.8,498.36z"/>
		<path class="st138" d="M1789.86,467.62c-0.19-1.47-0.79-2.84-1.37-4.19c-1.49-3.38-2.96-6.78-4.44-10.17c0,0-0.35-0.42-1.16-2.27
			c-0.44-1.04-0.88-2.06-1.63-3.42c-1.43-7.07-4.63-13.76-9.22-19.31c-2.41,2.28-3.08,5.84-3.23,9.15c-0.14,3.32,0.06,6.75-1.1,9.86
			c-0.91-0.64-1.45-1.66-2.18-2.49c-0.73-0.82-1.93-1.47-2.92-0.98c-1.01,0.5-1.2,1.94-0.74,2.96c0.46,1.04,1.37,1.76,2.19,2.54
			c4.57,4.31,6.76,11.02,5.62,17.2c-0.03,0.16-0.08,0.35-0.22,0.44c-0.25,0.17-0.57-0.02-0.8-0.22c-1.74-1.49-3.5-2.97-5.24-4.47
			c-0.83-0.7-1.67-1.43-2.26-2.35c-0.5-0.81-0.78-1.72-1.06-2.64c-1.39-4.62-2.8-9.43-2.09-14.19c0.33-2.23,1.02-4.82-0.51-6.48
			c-0.15-0.16-0.33-0.32-0.54-0.38c-0.77-0.22-1.3,0.74-1.51,1.5c-1.17,4.31-1.87,8.74-2.07,13.19c-0.58,0.44-1.43-0.01-1.89-0.56
			c-0.47-0.56-0.84-1.28-1.52-1.53c-1.38-0.52-2.59,1.43-2.12,2.82c0.46,1.39,1.81,2.27,2.91,3.23c5.56,4.84,6.13,13.13,6.31,20.5
			c-4.29-3.68-8.21-7.78-11.67-12.25c-0.64-0.82-1.28-1.7-1.47-2.73c-0.17-0.97,0.1-1.98,0.32-2.95c0.97-4.33,0.96-8.88-0.03-13.21
			l0.21-0.17c0,0-0.43-1.23-0.43-1.43c0.02-0.01,0.03,0,0.05,0c-0.03-0.04-0.04-0.04-0.05-0.01c-1.14-0.16-2.33,0-3.38,0.46
			c-1.3,4.69-1.58,9.65-0.83,14.46c-1.53-1.69-3.3-3.45-5.57-3.68c-1.03-0.11-2.25,0.27-2.55,1.25c-0.43,1.33,1.06,2.44,2.3,3.1
			c2.45,1.28,4.95,2.87,6.13,5.36c1.2,2.53,0.82,5.48,0.71,7.84c-0.1,2.17-0.21,4.36-0.31,6.54c-1.53-4.57-6.88-6.94-8.66-11.43
			c-0.95-2.39-0.75-5.05-0.72-7.62c0.05-4.53-0.46-9.07-1.54-13.48c-1.13-0.29-1.91,1.11-2.18,2.24c-1.08,4.31-1.53,8.77-1.32,13.2
			c-1.2,0.54-2.43-0.69-3.11-1.83c-0.67-1.14-1.56-2.51-2.87-2.38c-1.49,0.15-2.73,2.28-4.01,1.49c-0.42,1.85,1.63,3.19,3.23,4.21
			c3.92,2.47,6.86,6.44,8.09,10.9c0.38,1.38,0.59,2.89,0.12,4.26c-0.48,1.36-1.83,2.51-3.25,2.35c-2.57-0.29-3.63-4.17-6.4-4.83
			c-1.66-0.44-2.91-1.89-3.56-3.49c-0.65-1.59-0.78-3.34-0.91-5.06c-0.15-2.04-0.31-4.08-0.46-6.13c-0.1-1.32-0.13-2.84,0.82-3.76
			c0.62-0.59,1.49-0.79,2.3-1.06c2.73-0.89,5.03-2.71,7.27-4.49c0.3-0.23,0.62-0.52,0.61-0.89c-0.02-0.63-0.85-0.8-1.48-0.78
			c-2.89,0.12-5.76,0.65-8.5,1.57c-0.61,0.21-1.24,0.43-1.86,0.31c-1.01-0.18-1.92-1.23-2.86-0.83c-0.48,0.21-0.74,0.73-0.98,1.19
			c-1.5,2.75-4.22,4.59-6.82,6.33c-2.5,1.66-5.02,3.33-7.52,4.99c0.16-2.16,0.3-4.47-0.74-6.39c-1.39-2.58-4.57-3.79-6.09-6.72
			c-0.77-0.77-1.61-1.47-2.49-2.08c-0.22-0.14-0.45-0.3-0.71-0.32c-0.73-0.06-1.14,0.85-1.17,1.59c-0.03,0.73,0.03,1.59-0.53,2.07
			c-0.32,0.27-0.77,0.33-1.2,0.37c-6.28,0.7-12.51,1.82-19.06,2.72c1.21,4.05,5.37,6.4,9.28,8.03c3.91,1.64,8.21,3.22,10.49,6.78
			c0.72,1.14,1.21,2.48,1.05,3.83c-0.18,1.48-1.15,2.76-2.22,3.81c-2.75,2.66-6.51,4.33-8.48,7.6c-2.74,4.54-1.07,10.34,0.45,14.59
			c4.4,1.97,9.06,3.98,13.86,3.54c1.48-0.14,2.91-0.51,4.39-0.68c2.82-0.33,5.76,0.07,8.47-0.81c2.71-0.87,5.13-3.77,4.07-6.42
			c1.22,0.77,2.44,1.53,3.66,2.3c0.42,0.27,0.88,0.54,1.37,0.48c0.72-0.09,1.17-0.87,1.15-1.59c-0.02-0.72-0.4-1.37-0.76-1.99
			c-2.83-4.72-5.99-9.22-9.47-13.49c2.53,0.16,5.04,0.62,7.47,1.33c0.49,0.15,1.01,0.32,1.33,0.71c0.42,0.48,0.46,1.18,0.51,1.82
			c0.16,2.11,1.37,4.72,3.49,4.48c1.93-0.22,2.66-2.61,3.25-5.04c2.01,0.18,4.02,0.38,6.03,0.57c0.43,0.04,0.88,0.08,1.23,0.35
			c0.34,0.25,0.51,0.66,0.68,1.05c0.88,2.02,1.97,3.95,3.22,5.76c0.74,1.06,1.62,2.13,2.84,2.54c1.23,0.41,2.86-0.18,3.11-1.46
			c0.13-0.68-0.14-1.36-0.44-1.99c-0.61-1.25-1.32-2.46-2.14-3.6c1.91-0.56,3.82-1.13,5.72-1.68c0.26-0.08,0.54-0.17,0.69-0.4
			c0.31-0.45-0.12-1.03-0.5-1.43c-2.14-2.26-3.49-5.26-3.72-8.37c3.95,4.36,7.91,8.73,11.87,13.09c0.65,0.72,1.49,1.51,2.43,1.3
			c0.93-0.21,1.41-1.31,1.31-2.26c-0.09-0.94-0.58-1.81-0.9-2.7c-1.55-4.27,0.69-9.08-0.82-14.07c2.85,2.78,4.86,6.28,7.28,9.44
			c2.41,3.16,5.45,6.12,9.3,7.1c2-3.04,1.43-7.06,0.34-10.51c-1.09-3.47-2.64-6.93-2.37-10.55c2.42,2.59,4.84,5.19,7.26,7.77
			c1.93,2.06,3.93,4.17,6.51,5.3c0.32,0.13,0.68,0.27,1.03,0.22c1.03-0.14,1.26-1.5,1.23-2.53c-0.18-5.71-0.95-11.4-2.34-17.43
			c3.68,5.01,7.85,9.82,13.18,13.02c0.28,0.16,0.58,0.33,0.9,0.27c0.26-0.04,0.46-0.24,0.64-0.44
			C1789.81,470.67,1790.05,469.09,1789.86,467.62z M1673.85,455.95c-0.27-0.3-0.56-0.68-0.43-1.07c0.06-0.18,0.23-0.33,0.39-0.45
			c1.94-1.48,4.54-1.58,6.97-1.62c0.4-0.01,0.82-0.01,1.18,0.16c0.42,0.21,0.69,0.63,0.88,1.05c1.54,3.22,0.13,7.09,0.08,10.39
			C1679.71,461.82,1676.67,458.98,1673.85,455.95z M1695.25,497.3c-0.82,0.93-2.18,1.09-3.43,1.17c-4.19,0.3-8.53,0.58-12.51-0.78
			c-1.23-0.42-2.49-1.08-3.06-2.25c-0.42-0.86-0.38-1.88-0.29-2.83c0.19-1.99,0.62-3.96,1.24-5.86c0.24-0.74,0.52-1.48,0.99-2.09
			c0.69-0.89,1.71-1.45,2.66-2.07c2.28-1.52,4.15-3.63,5.41-6.06c2.98,5.19,5.82,10.27,8.52,15.42
			C1695.69,493.64,1696.52,495.86,1695.25,497.3z M1707.75,476.01c-0.15,0.18-0.39,0.28-0.62,0.34c-1.63,0.47-3.36,0.14-5.01-0.28
			c-3.83-0.96-7.54-2.36-10.58-3.93c1.38-2.17,3.2-4.08,5.31-5.57c0.96-0.68,2.05-1.28,3.22-1.28c1.71,0,3.15,1.28,4.22,2.62
			c1.64,2.06,2.84,4.45,3.52,6.98C1707.9,475.28,1707.98,475.71,1707.75,476.01z"/>
	</g>
	<path class="st132" d="M395.05,494.19c44.7,8.05,89.39,16.1,134.09,24.15c20.41,3.68,40.85,7.36,60.84,12.87
		c22.5,6.2,44.35,14.69,67.09,19.96c23.29,5.4,47.3,7.38,70.45,13.35c1.37,0.35,2.91,0.87,3.45,2.18c1.24,3.01-3.68,4.47-6.9,3.97
		c-57.09-8.72-114.38-17.48-169.82-33.65c-23.2-6.76-46.19-14.85-70.17-17.77C464.37,516.84,444.19,517.95,395.05,494.19z"/>
	<g>
		<path class="st141" d="M291.29,531.48c-0.48,1.56-1.64,2.8-2.84,3.91c-10.39,9.62-25.58,12.68-39.65,11.08
			c-14.07-1.6-27.3-7.34-40.07-13.47c-8.57-4.11-17.21-8.48-26.58-10.09c-6.57-1.13-13.3-0.86-19.98-0.9
			c-15.44-0.1-30.86-1.93-45.91-5.42c-6.89-1.6-14.11-3.79-18.79-9.11c-3.51-3.98-5.21-9.34-8.93-13.14
			c-5.16-5.25-13.94-7.29-16.45-14.22c-0.89-2.48-0.78-5.12-0.52-7.78c0.01-0.11,0.02-0.23,0.03-0.34c0.16-1.73,0.37-3.47,0.38-5.19
			c0-0.74-0.03-1.47-0.1-2.19c-0.18-1.96-0.63-3.87-1.23-5.72c-0.73-2.26-1.72-4.46-2.83-6.64c-0.23-0.45-0.46-0.89-0.7-1.34
			c-2.8-5.24-6.14-10.38-8.16-15.9c-0.32-0.84-0.59-1.7-0.84-2.57c-0.21-0.74-0.39-1.48-0.53-2.24c-0.3-1.55-0.46-3.15-0.1-4.68
			c0.31-1.34,1.01-2.57,1.3-3.92c0.13-0.59,0.19-1.22,0.19-1.83c0.01-0.67-0.05-1.34-0.12-2.01c-0.05-0.46-0.11-0.91-0.17-1.36
			c-0.36-2.86-0.56-5.73-0.64-8.62c-0.01-0.36-0.01-0.72-0.01-1.09c-0.02-2.02,0.03-4.03,0.14-6.05c0.05-0.95,0.12-1.91,0.23-2.86
			c0.25-2.76,0.63-5.51,1.13-8.24c0.13-0.7,0.28-1.39,0.42-2.08c0.47-2.25,1.04-4.47,1.67-6.67c0.24-0.79,0.47-1.57,0.73-2.35
			c0.64-1.99,1.34-3.95,2.12-5.89c0.24-0.61,0.48-1.21,0.74-1.81c1.36-3.19,2.91-6.31,4.65-9.31c0.56-1.01,1.16-2,1.77-2.97
			c1.3-2.06,2.69-4.07,4.16-6.02c0.05-0.08,0.12-0.17,0.18-0.26c0.82-1.08,1.68-2.14,2.58-3.18c0.89-1.04,1.82-2.04,2.79-3.01
			c0.29-0.3,0.58-0.58,0.88-0.86c1.08-1.02,2.19-1.97,3.36-2.85c0.15-0.12,0.31-0.24,0.46-0.34c0.68-0.5,1.37-0.96,2.08-1.39
			c2.22-1.36,4.57-2.43,7.11-3.1c0.08-0.02,0.15-0.04,0.24-0.06c1.44-0.37,2.95-0.62,4.21-1.42c0.48-0.31,0.89-0.69,1.24-1.1
			c0.41-0.47,0.75-1.01,1.04-1.57c0.97-1.89,1.47-4.17,2.36-6.14c2.7-5.99,9.66-9.14,16.24-9.18c6.56-0.04,12.87,2.43,5.38,3.33
			c1.96,0.02,4.03,0.12,6.09,0.37c1.08,0.12,2.14,0.29,3.2,0.49c0.77,0.15,1.53,0.33,2.28,0.53c4.96,1.37,9.16,3.98,10.57,8.78
			c0.92,3.13,0.32,6.46-0.26,9.66c-1.59,8.85-2.1,19.77,5.28,24.91c3.28,2.28,7.42,2.79,11.37,3.33
			c31.79,4.33,62.58,14.02,93.19,23.67c1.37,0.43,2.84,1.04,4.21,1.78c3.66,1.99,6.63,5.02,5.3,8.64c1.39,2.1,4.45,2.9,6.69,1.74
			c2.88,6.55,0.48,14.11-1.93,20.85c-0.29,0.82-0.62,1.67-1.29,2.22c-2.23,1.75-6.61-0.97-7.92,1.54c-1.03,1.98,1.91,3.83,4.12,3.53
			c2.22-0.3,4.52-1.49,6.55-0.56c2.64,1.19,2.67,5.24,0.76,7.41c-1.91,2.16-4.91,2.91-7.73,3.56c5.01-0.66,10.26,0.71,14.31,3.71
			c-2.88,0.64-5.67,1.71-8.24,3.19c-0.99,0.57-2.03,1.28-2.42,2.37c-0.69,1.92,1.08,4,3.07,4.44c1.98,0.43,4.02-0.28,5.93-0.97
			c-0.87,4.96-5.28,9.09-10.29,9.62c10.96,18.63,18.59,39.19,22.43,60.46C291.5,528.23,291.77,529.91,291.29,531.48z"/>
		<path class="st142" d="M83.42,407.1c-8.46-2.78-16.82-5.88-25.04-9.3c0.25-2.76,0.63-5.51,1.13-8.24
			C66.19,396.94,74.36,402.96,83.42,407.1z"/>
		<path class="st142" d="M90.01,419.71c-11.51-1.63-22.61-6.15-32-12.99c-0.02-2.02,0.03-4.03,0.14-6.05
			C67.2,409.26,78.17,415.82,90.01,419.71z"/>
		<path class="st142" d="M87.7,401.46c-9.81-3.44-19.17-8.15-27.76-13.98c0.47-2.25,1.04-4.47,1.67-6.67
			C68.75,389.4,77.7,396.49,87.7,401.46z"/>
		<path class="st142" d="M58.02,407.8c13.57,13.1,30.87,22.31,49.33,26.18c-17.25-0.76-34.26-6.47-48.52-16.21
			c-0.05-0.46-0.11-0.91-0.17-1.36C58.3,413.55,58.1,410.68,58.02,407.8z"/>
		<path class="st142" d="M108.4,369.31c-10.43-6.03-20.42-12.81-29.86-20.28c0.89-1.04,1.82-2.04,2.79-3.01
			C89.5,354.72,98.59,362.54,108.4,369.31z"/>
		<path class="st142" d="M177.79,381.68c-10.64-2.53-21.27-5.07-31.9-7.6c-11.71-2.79-23.57-5.64-34.17-11.32
			c-5.16-2.76-9.91-6.13-14.43-9.86c-5.02-2.57-10.04-5.16-15.07-7.73c1.08-1.02,2.19-1.97,3.36-2.85c0.15-0.12,0.31-0.24,0.46-0.34
			c0.68-0.5,1.37-0.96,2.08-1.39c5.66,5.44,12.72,9.6,19.71,13.35c5.69,3.06,11.48,5.97,17.33,8.71c0.03,0.06,0.06,0.12,0.1,0.18
			c-0.02-0.06-0.05-0.12-0.09-0.18C142.11,370.57,159.68,377.09,177.79,381.68z"/>
		<path class="st142" d="M119.03,385.32c-16.78-7.06-32.73-16.08-47.42-26.83c1.3-2.06,2.69-4.07,4.16-6.02
			c0.52,0.48,1.05,0.95,1.56,1.42C90.3,365.36,103.92,377.16,119.03,385.32z"/>
		<path class="st142" d="M106.51,343.26c-3.61-2.21-7.39-4.08-11.27-5.77c0.08-0.02,0.15-0.04,0.24-0.06
			c1.44-0.37,2.95-0.62,4.21-1.42c0.48-0.31,0.89-0.69,1.24-1.1c8.64,6.17,16.03,14.07,21.61,23.11
			C118.48,351.98,112.74,347.07,106.51,343.26z"/>
		<path class="st142" d="M131.43,397.64c-23.17-5.88-45.53-14.94-66.24-26.86c1.36-3.19,2.91-6.31,4.65-9.31
			c7.39,8.49,17.59,14.71,27.52,20.38C108.25,388.07,119.45,394.15,131.43,397.64z"/>
		<path class="st142" d="M146.96,395.04c-9.92-1.51-19.17-5.01-27.93-9.72C128.12,389.15,137.45,392.4,146.96,395.04z"/>
		<path class="st142" d="M125.18,362.64c-0.01,0-0.01,0-0.01,0c-0.82-1.57-1.7-3.1-2.64-4.61
			C123.54,359.5,124.42,361.04,125.18,362.64z"/>
		<path class="st142" d="M95.77,442.94c-13.06-1.32-26.67-3.71-37.67-10.49c-0.21-0.74-0.39-1.48-0.53-2.24
			c-0.3-1.55-0.46-3.15-0.1-4.68c0.31-1.34,1.01-2.57,1.3-3.92c0.13-0.59,0.19-1.22,0.19-1.83c8.33,7.23,19.56,11.17,30.24,14.72
			c12.22,4.06,24.43,8.12,36.66,12.17C116.04,444.59,105.79,443.96,95.77,442.94z"/>
		<path class="st142" d="M70.63,458.9c-0.73-2.26-1.72-4.46-2.83-6.64c21.43,14.43,47.01,22.73,72.84,23.34
			C116.32,477.96,91.34,471.84,70.63,458.9z"/>
		<path class="st142" d="M139.19,399.47c-2.58-0.47-5.14-1.09-7.65-1.81C134.09,398.3,136.63,398.91,139.19,399.47z"/>
		<path class="st142" d="M142.6,336.98c-1.75-5.23-4.25-10.22-7.37-14.77c0.77,0.15,1.53,0.33,2.28,0.53
			C140,327.14,141.76,331.97,142.6,336.98z"/>
		<path class="st142" d="M113.07,406.34c-19.03-3.9-33.86-18.14-50.74-27.88c0.64-1.99,1.34-3.95,2.12-5.89
			c6.19,6.85,13.08,13.11,21.32,17.17c5.35,2.65,11.13,4.28,16.82,6.09c14.65,4.65,28.88,10.47,42.94,16.68
			c-4.58-1.67-9.27-3.02-14.1-3.81C125.35,407.71,119.12,407.58,113.07,406.34z"/>
		<path class="st142" d="M101.95,333.34c0.97-1.89,1.47-4.17,2.36-6.14c2.7-5.99,9.66-9.14,16.24-9.18
			c6.56-0.04,12.87,2.43,5.38,3.33c1.96,0.02,4.03,0.12,6.09,0.37c7.43,14.27,13.37,29.65,9.95,45.04
			c-3.55-18.04-14.95-34.39-30.66-43.97c10.34,12.38,18.91,26.22,25.37,40.98C128.7,350.3,116.31,339.53,101.95,333.34z"/>
		<path class="st142" d="M142.35,452.17c-5.5-1.83-11.01-3.65-16.5-5.49C131.55,447.89,137.1,449.6,142.35,452.17z"/>
		<path class="st142" d="M151.92,487.18c-15.31,1.51-30.86,2.17-46-0.59c-12.34-2.25-24.47-6.94-34.34-14.58
			c0.16-1.73,0.37-3.47,0.38-5.19c0-0.74-0.03-1.47-0.1-2.19c7.79,6.1,16.57,11.02,25.81,14.62
			C114.83,485.92,133.53,488.2,151.92,487.18z"/>
		<path class="st142" d="M167.12,422.29c-7.17-3.28-14.35-6.58-21.58-9.77C152.94,415.2,160.08,418.76,167.12,422.29z"/>
		<path class="st142" d="M114.97,464.02c-16.75,0.03-33.45-4.62-47.87-13.11c-2.8-5.24-6.14-10.38-8.16-15.9
			c12.81,11.45,28.97,19.14,45.97,21.69c9.24,1.38,18.69,1.31,27.87,3.05c10.85,2.05,21.06,6.56,31.15,11.04
			c11.58,5.14,23.16,10.28,34.73,15.42c-21.38-3.31-39.15-19.82-60.65-22.28C130.37,463.05,122.66,464.01,114.97,464.02z"/>
		<path class="st140" d="M291.29,531.48c-0.48,1.56-1.64,2.8-2.84,3.91c-10.39,9.62-25.58,12.68-39.65,11.08
			c-14.07-1.6-27.3-7.34-40.07-13.47c-8.57-4.11-17.21-8.48-26.58-10.09c-6.57-1.13-13.3-0.86-19.98-0.9
			c-15.44-0.1-30.86-1.93-45.91-5.42c-6.89-1.6-14.11-3.79-18.79-9.11c-3.51-3.98-5.21-9.34-8.93-13.14
			c-5.16-5.25-13.94-7.29-16.45-14.22c-0.89-2.48-0.78-5.12-0.52-7.78c10.12,12.76,24.92,21.78,40.95,24.78
			c8.96,1.67,18.21,1.54,27.14,3.35c20.3,4.12,37.18,17.79,56.12,26.15c17.61,7.76,37.24,10.9,56.39,9.02
			c-10.12-2.23-20.25-4.44-30.37-6.67c12.21,0.52,24.48-0.5,36.42-3.05c-10.01-0.15-20-2.3-29.2-6.28
			c13.3,0.67,26.71-0.77,39.56-4.26c-8.96,0.99-18.22-0.71-26.25-4.82c8.17-1.64,16.25-3.81,24.13-6.5
			c-8.45,0.07-16.9-1.34-24.87-4.16c7.1-0.41,14.11-2.21,20.54-5.24c-10.92,1.71-22.53-1.76-30.72-9.19
			c9.89-2.35,19.77-4.69,29.67-7.04c-13.91-5.67-28.5-9.65-43.35-11.82c13.85,0.64,27.83-1.49,40.87-6.19
			c-15.47,1.91-32.15,3.58-45.71-4.09c15.63,2.48,32,0.12,46.31-6.66c-12.32,4.38-26.02,4.8-38.57,1.17
			c13.45,0.45,26.99-2.59,38.97-8.74c-7.92,0.41-15.96-2.11-22.22-6.98c8.11,0.28,16.3-1.86,23.23-6.06
			c-4.66,1.29-9.68,1.3-14.34,0.01c5.96-1.06,11.73-3.19,16.95-6.26c-8.14-1.79-16.3-3.6-24.44-5.39c9.47,0.86,19.1-0.22,28.14-3.15
			c-20.06,0.13-40.13-3.96-58.55-11.91c18.33,4.52,37.36,6.17,56.19,4.88c-6.25-0.63-12.43-1.9-18.41-3.79
			c5.05,0.21,10.11-0.22,15.06-1.25c-7.25-0.68-14.39-2.63-20.97-5.73c7.24,0.08,14.48-0.45,21.63-1.59
			c3.66,1.99,6.63,5.02,5.3,8.64c1.39,2.1,4.45,2.9,6.69,1.74c2.88,6.55,0.48,14.11-1.93,20.85c-0.29,0.82-0.62,1.67-1.29,2.22
			c-2.23,1.75-6.61-0.97-7.92,1.54c-1.03,1.98,1.91,3.83,4.12,3.53c2.22-0.3,4.52-1.49,6.55-0.56c2.64,1.19,2.67,5.24,0.76,7.41
			c-1.91,2.16-4.91,2.91-7.73,3.56c5.01-0.66,10.26,0.71,14.31,3.71c-2.88,0.64-5.67,1.71-8.24,3.19c-0.99,0.57-2.03,1.28-2.42,2.37
			c-0.69,1.92,1.08,4,3.07,4.44c1.98,0.43,4.02-0.28,5.93-0.97c-0.87,4.96-5.28,9.09-10.29,9.62
			c10.96,18.63,18.59,39.19,22.43,60.46C291.5,528.23,291.77,529.91,291.29,531.48z"/>
	</g>
	<path class="st134" d="M1366.43,584.13c-3.14-0.47-6.28-0.94-9.43-1.42c-0.9-0.14-1.81-0.27-2.71-0.4
		c-0.2-0.03-0.33-0.05-0.38-0.06c-27.86-0.88-59.02-1.72-89.31-8.19c-37.63-8.03-73.6-24.7-112.01-26.95
		c-12.42-0.74-24.88,0.06-37.3,0.86c-53.4,3.45-106.79,6.88-160.2,10.32c-30.56,1.97-61.17,3.94-91.8,3.95
		c-3.1,0-6.19-0.02-9.29-0.06c-1.78-0.02-3.56-0.05-5.35-0.09c-0.59-0.01-1.18-0.02-1.76-0.04c-1.42-0.03-2.84-0.06-4.26-0.11
		c-1.12-0.03-2.24-0.06-3.36-0.1c-1.54-0.05-3.09-0.11-4.63-0.18c-0.64-0.02-1.29-0.05-1.94-0.07c-1-0.04-2-0.09-3-0.15
		c-3.37-0.15-6.75-0.33-10.12-0.54c-0.06-0.01-0.12-0.01-0.18-0.01c-1.34-0.09-2.68-0.17-4.01-0.27c-0.72-0.04-1.44-0.09-2.16-0.14
		c-0.53-0.04-1.07-0.07-1.6-0.12c-0.35-0.02-0.69-0.04-1.04-0.07c-2.34-0.17-4.68-0.35-7.01-0.55c1.71,0.56-14.89-0.12-24.86-1.22
		c-21.37-2.34-42.63-5.33-63.79-8.93c-14.95-2.54-29.9-5.4-44.25-10.28c-6.97-2.37-13.79-5.21-20.62-8.04
		c-9.34-3.87-18.68-7.72-28.45-10.29c-21.15-5.58-43.38-4.99-65.04-8.03c-41.23-5.78-79.87-24.66-121.23-29.36
		c-10.99-1.25-22.13-1.49-32.92-3.9c-7.34-1.63-14.44-4.29-21.07-7.83c-7.71-4.11-14.77-9.41-20.83-15.68
		c35.25-56.88,111.17-86.03,178.08-69.3c24.7,6.18,47.66,17.83,71.77,25.99c74.04,25.05,158.54,0.18,236.68,1.94
		c37.37,0.85,83.65,31.2,120.89,34.55l121.61,1.09c24.92,2.24,45-11.5,69.16-4.94c16.99,4.6,58.37,12.29,75.4,16.79
		c35.21,9.3,52.19,14,88.1,20.07c4.69,0.79,25,0.26,42.16,4.6c0.95,5.96,1.05,12.13,1.12,18.19
		C1365.81,531.49,1366.12,557.82,1366.43,584.13z"/>
	<path class="st134" d="M1350.43,459.3c-38.69-18.89-83.75-18.29-125.36-29.36c24.76,0.19,49.52,0.38,74.28,0.57
		c12.62,0.1,28.87-0.96,39.92-7.04C1341.49,437.12,1345.84,450.87,1350.43,459.3z"/>
	<path class="st134" d="M509.6,412.08c18.48-25.93,36.99-51.91,52.6-79.66c6.59-11.72,12.81-24.31,12.85-37.76
		c17.56,41.22,31.56,83.95,41.79,127.56c0.9,3.82,1.69,8.15-0.45,11.44c-1.91,2.95-5.61,4.13-9.06,4.8
		C573.05,445.13,537.57,421.52,509.6,412.08z"/>
	<path class="st133" d="M813.23,560.49c-3.22-0.23-6.44-0.47-9.65-0.74c1.7,0.55-14.89-0.12-24.86-1.22
		c-21.37-2.35-42.64-5.33-63.79-8.93c-14.94-2.54-29.9-5.41-44.25-10.28c-6.97-2.37-13.79-5.21-20.62-8.04
		c-9.34-3.88-18.69-7.72-28.45-10.3c-21.15-5.58-43.38-4.98-65.05-8.02c-41.23-5.78-79.87-24.67-121.23-29.36
		c-10.98-1.25-22.12-1.49-32.91-3.9c-7.34-1.63-14.44-4.3-21.08-7.84c2.13-0.74,4.26-1.62,6.31-2.68
		c8.38-4.28,15.62-11.87,16.99-21.17c0.32-2.15,0.61-4.77,2.59-5.64c1.23-0.54,2.66-0.13,3.93,0.32
		c18.5,6.56,32.79,21.62,50.67,29.73c16.55,7.5,35.15,8.64,53.21,10.57c74.93,8.05,147.14,31.76,219.42,53.1
		c34.12,10.08,69.55,19.75,104.85,15.27C830.95,555.34,822.21,558.32,813.23,560.49z"/>
	<path class="st133" d="M1366.43,584.13c-3.14-0.47-6.28-0.94-9.43-1.42c-0.9-0.14-1.81-0.27-2.71-0.4
		c-0.2-0.03-0.33-0.05-0.38-0.06c-27.86-0.88-59.02-1.72-89.31-8.19c-37.63-8.03-73.6-24.7-112.01-26.95
		c-12.42-0.74-24.88,0.06-37.3,0.86c-53.4,3.45-106.79,6.88-160.2,10.32c-30.56,1.97-61.17,3.94-91.8,3.95
		c-3.1,0-6.19-0.02-9.29-0.06c-1.78-0.02-3.56-0.05-5.35-0.09c-0.59-0.01-1.18-0.02-1.76-0.04c-1.42-0.03-2.84-0.06-4.26-0.11
		c-1.12-0.03-2.24-0.06-3.36-0.1c-1.54-0.05-3.09-0.11-4.63-0.18c-0.64-0.02-1.29-0.05-1.94-0.07c-1-0.04-2-0.09-3-0.15
		c-3.37-0.14-6.75-0.33-10.12-0.54c-0.06-0.01-0.12-0.01-0.18-0.01c-1.34-0.09-2.68-0.17-4.01-0.27c-14.93-1.12-3.81-2.8-47.21-4.72
		c-4.54-0.2-7.42-5.42-11.07-8.47c11.89,7.27,26.26,10.39,40.09,8.71c10.54-1.28,20.59-5.22,31.06-6.94
		c11.75-1.93,23.75-1.04,35.64-0.47c57.22,2.74,114.8-2.16,170.73-14.55c11.15-2.46,22.42-5.25,33.82-4.67
		c12.56,0.63,24.91,5.33,37.41,3.95c9.01-0.99,17.4-5.09,26.33-6.66c14.24-2.5,28.73,1.56,42.55,5.8
		c48.17,14.78,96.29,32.37,146.61,34.91c14.95,0.75,30.08,0.18,44.73,3.22c0.06,0.01,0.13,0.03,0.19,0.04
		C1366.33,575.23,1366.38,579.68,1366.43,584.13z"/>
	<path class="st134" d="M850.76,635.62c-2.5,2.56-5.7,4.46-9.17,5.37c-7.76,0.84-17.77-0.56-27.57,0.5
		c-6.73,0.73-13.26,2.62-19.93,3.76c-35.31,6.07-70.58-8.85-106.28-11.97c-7.54-0.66-15.13-0.79-22.64-1.76
		c-6.3-0.82-12.49-2.23-18.69-3.64c-23.01-5.23-46.02-10.46-69.03-15.7c-25.14-9.74-54.01-6.74-81.17-11.98
		c-5.41-1.05-10.75-2.41-16.14-3.48c-6.1-1.21-12.27-2.03-18.43-2.78c-6.55-0.8-13.11-1.51-19.65-2.34
		c-24.76-3.12-49.31-7.85-73.46-14.14c-7.95-1.84-15.51-3.74-23.06-5.64c-4.91-1.23-9.86-2.48-14.49-4.53
		c-4.08-1.82-7.87-4.24-11.57-6.74c-4.64-3.13-9.2-6.44-12.98-10.55c-2.86-3.12-5.21-6.59-7.2-10.31
		c29.52,12.94,64.1,14.08,100.59,21.2c37.37,2.77,74.74,5.55,112.11,8.32c16.81,1.25,33.7,2.51,50.06,6.53
		c16.7,4.1,32.54,10.99,48.67,16.94c54.55,20.13,112.39,29.49,169.81,38.74c8.97,1.45,20.16,1.97,25.04-5.71
		c1.99-3.15,2.68-7.45,5.94-9.28c2.51-1.42,5.66-0.75,8.42,0.1c5.24,1.63,10.28,3.88,15.02,6.66c5.02,2.93,9.69,6.47,13.89,10.51
		C849.51,634.33,850.15,634.97,850.76,635.62z"/>
	<g>
		<path class="st2" d="M994.98,580.07c-2.72,3.86-5.25,8.53-7.79,13.21c-1.59,2.93-3.2,5.9-5.31,8.49
			c-3.01,3.68-6.91,6.49-10.78,9.26c-5.9,4.22-11.86,8.47-18.55,11.22c-3.33,1.36-6.83,2.36-9.98,4.1
			c-5.64,3.11-9.86,8.46-15.48,11.5c-0.5,0.29-1.02,0.53-1.54,0.77c-4.05,1.78-8.47,2.12-12.94,1.88c-3.01-0.16-6.04-0.58-8.99-1.01
			c-23.24-3.28-46.64-5.51-70.08-6.67c-1.51-0.07-3.02-0.14-4.52-0.21c0.16-0.84,0.29-1.67,0.39-2.5c0.22-1.76,0.31-3.52,0.32-5.25
			c0.04-4.12-0.37-8.16-0.68-12.17c-0.18-2.35-0.34-4.69-0.35-7.02c-0.01-1.81,0.07-3.61,0.47-5.37c0.68-3.05,2.27-5.82,4.09-8.35
			c5.19-7.17,13.16-13.01,22.01-13.01c9.31,2.52,19.88,4.69,29.35,1.17c3.56-1.31,6.78-3.37,10.29-4.83
			c3.48-1.45,7.18-2.27,10.88-2.93c2.18-0.4,4.42-0.75,6.64-0.74c1.17,0.01,2.33,0.11,3.48,0.36c0.58,0.13,1.17,0.31,1.73,0.52
			c2.1,0.8,3.99,2.19,5.11,4.07c0.29,0.48,0.52,1.01,0.7,1.55c1.06,3.31-0.39,7.04-2.82,9.52c-2.44,2.48-5.72,3.95-8.98,5.16
			c-4.39,1.64-8.91,2.93-13.51,3.87c-2.39,0.5-4.81,0.89-7.24,1.19c0.26,0.18,0.52,0.36,0.79,0.52c7.51,4.98,16.91,7.69,26.23,7.34
			c0.44-0.02,0.88-0.04,1.32-0.07c0.87-0.06,1.76-0.15,2.56-0.49c1.04-0.45,1.86-1.28,2.64-2.1c2.21-2.28,4.4-4.56,6.61-6.84
			c2.73-2.83,5.52-5.71,8.95-7.63c0.32-0.61,0.27-1.24,0.1-1.89v-0.01c-0.05-0.19-0.11-0.39-0.18-0.58
			c-0.14-0.76-0.27-1.96-0.22-3.1c0.01-0.27,0.04-0.55,0.07-0.82c0-0.01,0-0.01,0-0.02c0.06-0.15,0.12-0.32,0.18-0.47
			c0.41-1.13,0.66-2.28,0.77-3.44v-0.01c0.65-6.16-2.24-12.71-1.93-19.1c0.1-2.01,0.54-4.05,1.68-5.7c0.46-0.68,1.07-1.27,1.74-1.73
			c0.77-0.52,1.65-0.87,2.57-0.96c0.25-0.02,0.49-0.03,0.75-0.01c-0.16-2.41-0.14-4.91,1.17-6.85c1.69-2.51,5.03-3.31,8.06-3.28
			h0.17c0.14,0.63,0.27,1.25,0.38,1.86c0.54,2.93,0.78,5.7,0.71,8.45c-0.02,0.91-0.07,1.84,0.13,2.73c0.28,1.15,0.96,2.15,1.54,3.18
			c0.78,1.38,1.38,2.84,1.84,4.34c1.72,5.67,1.36,12.01,0.91,18.02c-0.01,0.03-0.01,0.07-0.01,0.1c2.17-1.45,3.54-4,4.27-6.62
			c0.73-2.63,0.9-5.35,1.29-8.04c0.52-3.63,1.46-7.2,2.71-10.65c1.18-3.24,3.05-6.74,6.39-7.61c2.22-0.57,4.45,0.17,6.54,1.22
			c0.7,0.35,1.37,0.73,2.03,1.11c-1.63,4.22-3.16,8.75-3.12,13.43c0.02,1.99,0.32,3.97,0.4,5.96c0.13,3.17-0.3,6.37,0,9.53
			c0,0.09,0.01,0.17,0.02,0.27c2.25-1.82,5.05-3.17,7.93-2.97c1.19,0.08,2.38,0.49,3.38,1.15c0.55,0.36,1.06,0.8,1.48,1.29
			C994.4,578.12,994.85,579.05,994.98,580.07z"/>
		<path class="st3" d="M909.01,580.41c3.22-0.3,6.47-0.61,9.58-1.52c0.68-0.2,1.44-0.5,1.7-1.17c0.27-0.7-0.14-1.48-0.66-2.02
			s-1.16-0.99-1.5-1.65c-0.09-0.17-0.17-0.36-0.34-0.44c-0.13-0.06-0.27-0.04-0.41-0.03c-1,0.13-2.01,0.25-3.01,0.38
			c-1.21,0.15-2.45,0.31-3.56,0.83c-1.11,0.52-2.09,1.47-2.32,2.67S908.98,580.07,909.01,580.41z"/>
		<path class="st3" d="M837.58,593.7c0.94-2.36,3.19-4,5.61-4.8c2.41-0.79,5-0.85,7.54-0.85c8.73-0.02,17.49,0.5,26.16-0.46
			c8.67-0.96,17.42-3.52,24.21-9c0.21-0.17,0.44-0.37,0.5-0.63c0.11-0.45-0.32-0.89-0.77-0.97s-0.92,0.08-1.35,0.25
			c-4.05,1.53-8.1,3.06-12.15,4.58c-2.26,0.85-4.52,1.71-6.88,2.24c-9.05,2.06-18.41-0.75-27.68-1.08
			c-3.97-0.14-8.13,0.23-11.53,2.28c-2.07,1.25-3.75,3.05-5.28,4.93c-0.54,0.66-1.08,1.37-1.24,2.2c-0.17,0.84,0.15,1.83,0.93,2.17
			C836.41,594.91,837.4,594.16,837.58,593.7z"/>
		<path class="st3" d="M946.61,553.64c0.51-3.34,1.77-6.52,3.18-9.59c0.13-0.29,0.27-0.59,0.28-0.91c0.01-0.32-0.14-0.67-0.44-0.79
			c-0.42-0.17-0.86,0.18-1.16,0.51c-2.37,2.66-3.13,6.4-3.2,9.96C945.25,553.44,945.34,554.17,946.61,553.64z"/>
		<path class="st3" d="M940.76,563.89c-0.15-2.68,1-5.44,0.21-8.01c-0.04-0.14-0.11-0.29-0.24-0.34c-0.2-0.07-0.38,0.12-0.5,0.3
			c-1.5,2.31-1.46,5.29-1.07,8.01c0.06,0.41,0.15,0.88,0.5,1.11S940.82,564.9,940.76,563.89z"/>
		<path class="st3" d="M969.31,569.86c-0.69-3.29-0.22-6.75,0.88-9.92s2.82-6.1,4.66-8.92c0.3-0.46,0.61-0.95,0.63-1.5
			s-0.41-1.15-0.96-1.1c-0.28,0.02-0.51,0.2-0.73,0.37c-4.66,3.79-6.38,10.09-7.16,16.04c-0.34,2.58-0.37,5.64,1.66,7.27
			C969.07,571.5,969.4,570.29,969.31,569.86z"/>
		<path class="st3" d="M974.28,592.6c2.95-2.1,5.19-5.02,7.39-7.9c1.64-2.15,3.27-4.29,4.91-6.44c0.07-0.1,0.15-0.2,0.16-0.32
			c0.04-0.39-0.55-0.49-0.93-0.38c-2.33,0.62-4.07,2.5-5.68,4.3c-2.54,2.84-5.09,5.7-7.19,8.89c-0.37,0.57-0.75,1.23-0.58,1.88
			C972.54,593.28,973.28,593.32,974.28,592.6z"/>
		<path class="st4" d="M994.98,580.07c-2.72,3.86-5.25,8.53-7.79,13.21c-1.59,2.93-3.2,5.9-5.31,8.49
			c-3.01,3.68-6.91,6.49-10.78,9.26c-5.9,4.22-11.86,8.47-18.55,11.22c-3.33,1.36-6.83,2.36-9.98,4.1
			c-5.64,3.11-9.86,8.46-15.48,11.5c-4.76,1.12-9.61,1.97-14.48,2.65c-3.01-0.16-6.04-0.58-8.99-1.01
			c-23.24-3.28-46.64-5.51-70.08-6.67c-1.42-0.82-2.8-1.72-4.13-2.71c-0.83-0.58-1.65-1.21-2.45-1.87
			c-2.03-1.65-3.99-3.55-4.89-6.01c-0.9-2.45-0.45-5.57,1.66-7.11c0.94-0.68,2.22-2.01,2.55-1.02c0.9-0.52,1.83-1.01,2.77-1.43
			c8.75-3.94,19.34-3.66,27.81,0.9c4.06,2.19,7.95,5.39,12.56,5.39c3.24,0,6.35-1.61,9.58-1.37c7.97,0.59,11.53,11.47,19.29,13.37
			c4.55,1.11,9.2-1.22,13.09-3.85c3.88-2.62,7.73-5.71,12.37-6.38c3.09-0.44,6.22,0.25,9.33,0.27c8.75,0.08,16.63-4.95,23.91-9.83
			c11.09-7.43,22.69-15.55,28.04-27.78c0.8-1.85,1.48-3.79,2.78-5.32c1.11-1.29,2.83-2.23,4.48-2.05c0.55,0.36,1.06,0.8,1.48,1.29
			C994.4,578.12,994.85,579.05,994.98,580.07z"/>
		<path class="st4" d="M917.89,605.72c-0.09,0.06-0.17,0.12-0.27,0.17c-3.26,2.02-6.94,3.34-10.74,3.85
			c-3.6,0.48-7.69,0.05-10.11-2.67c-1.53-1.72-2.22-4.18-4.09-5.52c-2.57-1.82-6.26-0.69-8.68,1.33c-2.42,2.01-4.13,4.77-6.56,6.78
			c-5.2,4.28-13.53,4.12-18.56-0.35c-0.54-0.48-1.08-1.06-1.24-1.76c-0.37-1.57,1.12-2.91,2.47-3.78c4.19-2.73,8.73-4.93,13.47-6.55
			c3.26-1.11,6.62-1.95,9.84-3.18c3.05-1.17,5.96-2.68,8.66-4.49c4.93-3.31,9.13-7.61,13.27-11.88c0.54-0.55,1.08-1.11,1.62-1.66
			c1.64-1.68,3.33-3.41,5.46-4.39c1.17,0.01,2.33,0.11,3.48,0.36c0.58,0.13,1.17,0.31,1.73,0.52c-2.5,0.39-5.26,1.5-7.9,2.81
			c-0.55,0.28-1.13,0.57-1.45,1.11c-0.34,0.55-0.33,1.25-0.3,1.9c0.09,1.64,0.29,3.28,0.58,4.9c0.13,0.77,0.31,1.55,0.79,2.15
			c0.58,0.73,1.53,1.07,2.43,1.32c2.33,0.66,4.73,1.07,7.14,1.22c-6.27,2.1-11.01,3.76-15.74,5.42c-1.58,0.55-3.21,1.15-4.37,2.35
			c-0.28,0.29-0.51,0.63-0.7,0.98c-2.39,0.5-4.81,0.89-7.24,1.19c0.26,0.18,0.52,0.36,0.79,0.52
			C899.17,603.36,908.58,606.07,917.89,605.72z"/>
		<path class="st4" d="M967.17,592.88c-3.91,3.12-7.85,6.26-12.24,8.67c-4.39,2.41-9.29,4.07-14.3,4.01
			c5.19-0.59,10.02-3.1,14.11-6.36s7.53-7.24,10.94-11.2c2.56-2.97,5.19-6.06,6.32-9.82c1.31-4.35,0.44-9.02,0.62-13.56
			c0.22-5.47,2.03-10.87,5.15-15.37c0.42-0.61,1.12-1.28,1.79-0.96c0.74,0.35,0.56,1.43,0.36,2.22c-0.85,3.32,0.04,6.81,0.2,10.24
			c0.09,1.96-0.07,3.92-0.34,5.86C978.41,576.66,974.64,586.91,967.17,592.88z"/>
		<path class="st4" d="M930.78,603.12c1.59-1.09,3.28-2.02,5.04-2.79C934.19,601.35,932.49,602.24,930.78,603.12z"/>
		<path class="st4" d="M959.62,567.47c-0.38,7.02-2.61,13.78-4.81,20.46c-0.93,2.84-2.79,5.08-3.79,7.14
			c-1.09,2.23-4.04,2.53-6.49,2.84c-2.99,0.38-5.94,1.2-8.71,2.42c1.1-0.68,2.16-1.42,3.16-2.25c2.47-2.05,4.55-4.72,5.33-7.84
			c0.69-2.75,0.33-5.66,0.75-8.47c0.37-2.49,1.37-4.89,2.88-6.92c0.59-0.79,1.28-1.56,1.61-2.49c0.24-0.71,0.26-1.46,0.22-2.19
			c-0.16-2.96-1.35-5.77-1.83-8.7c-0.77-4.89,0.5-9.85,1.76-14.63c0.47-1.79,1.05-3.73,2.54-4.83c0.36-0.26,0.77-0.46,1.21-0.49
			c0.72-0.04,1.35,0.39,1.85,0.93c0.54,2.93,0.78,5.7,0.71,8.45c-0.02,0.91-0.07,1.84,0.13,2.73c0.28,1.15,0.96,2.15,1.54,3.18
			c0.78,1.38,1.38,2.84,1.84,4.34C959.69,563.26,959.74,565.36,959.62,567.47z"/>
		<path class="st4" d="M946.21,570.56c-0.24,0.99-0.75,1.89-1.22,2.79c-2.23,4.2-3.89,8.7-4.91,13.33
			c-0.05-0.19-0.11-0.39-0.18-0.58c-0.14-0.76-0.27-1.96-0.22-3.1c0.01-0.27,0.04-0.55,0.07-0.82c0-0.01,0-0.01,0-0.02
			c0.06-0.15,0.12-0.32,0.18-0.47c0.41-1.13,0.66-2.28,0.77-3.44v-0.01c0.42-1.31,0.89-2.62,1.18-3.97
			c0.56-2.58,0.52-5.26,0.47-7.91c-0.08-4.06-0.15-8.12-0.24-12.17c-0.01-0.83-0.03-1.66,0.08-2.48l2.57-0.96
			c0.03,5.2,0.46,10.4,1.28,15.54C946.28,567.7,946.54,569.15,946.21,570.56z"/>
		<path class="st5" d="M920.61,587.64c-2.44,2.48-5.72,3.95-8.98,5.16c-6.68,2.49-13.66,4.19-20.75,5.06
			c0.26,0.18,0.52,0.36,0.79,0.52c-4.75,1.04-9.32,2.76-12.91,5.96c-1.97,1.75-3.62,3.94-5.93,5.22c-3.62,2.03-8.56,1.27-11.43-1.73
			c9.98-7.37,21.9-12.73,34.34-14.53c5.34-0.78,10.85-0.92,15.93-2.76c5.09-1.83,9.85-5.83,10.62-11.17
			c0.14-0.89,0.22-1.91,0.45-2.79c0.29,0.48,0.52,1.01,0.7,1.55C924.49,581.43,923.04,585.15,920.61,587.64z"/>
		<path class="st5" d="M994.98,580.07c-2.72,3.86-5.25,8.53-7.79,13.21c-1.59,2.93-3.2,5.9-5.31,8.49
			c-3.01,3.68-6.91,6.49-10.78,9.26c-5.9,4.22-11.86,8.47-18.55,11.22c-3.33,1.36-6.83,2.36-9.98,4.1
			c-6.14,3.38-10.59,9.44-17.02,12.27c-6.79,2.99-14.59,1.91-21.94,0.87c-24.74-3.5-49.64-5.78-74.61-6.87
			c0.5-2.63,0.7-5.2,0.71-7.75c8.75-0.83,17.33,8.08,26.48,6.93c2.72-0.34,5.23-1.56,7.84-2.39c8.01-2.53,16.86-1.3,24.59,1.97
			c3.88,1.64,7.66,3.82,11.87,4.09c9.1,0.59,16.32-7.63,25.15-9.91c3.3-0.86,6.76-0.85,10.15-1.21c6.14-0.65,12.16-2.52,17.53-5.59
			c4.47-2.56,8.44-5.92,12.38-9.25c5.55-4.7,11.17-9.47,15.3-15.44c2.54-3.68,4.48-7.76,7.16-11.35c1.55-2.06,3.43-3.99,5.59-5.38
			C994.4,578.12,994.85,579.05,994.98,580.07z"/>
		<path class="st5" d="M980.94,577.6c-0.45,0.63-0.92,1.25-1.39,1.87c-2.18,2.87-4.36,5.75-6.54,8.64
			c-1.68,2.22-3.62,4.59-6.37,5.08c1.43-5.89,6.75-9.82,8.76-15.25c1.96-5.27,0.54-11.14,1.07-16.73c0.24-2.57,0.89-5.1,1.54-7.61
			c0.32-1.22,0.65-2.46,1.29-3.54c0.58-0.99,1.42-1.78,2.34-2.47c0.7,0.35,1.37,0.73,2.03,1.11c-1.63,4.22-3.16,8.75-3.12,13.43
			c0.02,1.99,0.32,3.97,0.4,5.96C981.07,571.25,980.64,574.45,980.94,577.6z"/>
		<path class="st5" d="M960.43,579.17c-0.95,2.17-2.15,4.25-3.34,6.31c-1.15,2-2.3,4-3.46,5.99c-0.97,1.69-1.97,3.42-3.39,4.75
			c1.77-2.01,2.86-4.5,3.03-7.07c0.09-1.51-0.11-3.03,0.08-4.52c0.33-2.49,1.74-4.71,2.4-7.14c0.5-1.84,0.55-3.76,0.62-5.66
			c0.09-3.35,0.17-6.75-0.69-9.98c-0.62-2.33-1.7-4.49-2.4-6.79c-0.96-3.17-1.17-6.56-0.57-9.83c0.22-1.19,0.54-2.39,1.16-3.44
			c0.26-0.43,0.55-0.83,0.89-1.2h0.17c0.82,3.64,1.17,6.98,1.09,10.31c-0.02,0.91-0.07,1.84,0.13,2.73
			c0.28,1.15,0.96,2.15,1.54,3.18C961.44,563.45,961,571.57,960.43,579.17z"/>
	</g>
	<path class="st135" d="M830.39,602.25c-1.52,7.09,0.73,14.53,4.46,20.75c0.04,0.06,0.08,0.13,0.11,0.19
		c3.14,5.13,8.24,9.89,13.89,10.51c1.03,0.12,2.07,0.09,3.13-0.08c0.11,0.08,0.22,0.15,0.33,0.22c-0.48,0.63-0.99,1.22-1.55,1.78
		c-2.5,2.56-5.7,4.46-9.17,5.37c-1.74,0.18-3.6,0.27-5.54,0.29c-0.8-0.54-1.55-1.14-2.27-1.76c-4.54-4.01-7.7-9.3-10.95-14.42
		c-1.6-2.5-3.25-5.02-4.26-7.82c-1.04-2.85-1.36-5.91-1.37-8.94c-0.03-6.22,1.28-12.44,3.81-18.12c1.31-3.62,2.9-6.06,4.87-8.14
		c2.34-3.04,4.51-5.52,6.69-8c1.69-1.55,2.66-2.39,3.2-2.83c0.34,0.03,0.67,0.04,1.01,0.05c3.35,0.09,6.73-0.46,10.05-0.03
		c5.3,0.69,9.87,3.76,14.09,7.18c-1.22,0.06-2.43,0.19-3.63,0.4c-4.07,0.03-8.23,1.96-11.67,4.23
		C838.61,587.66,832.15,594.07,830.39,602.25z"/>
	<path class="st133" d="M846.77,638.78c-1.61,0.99-3.36,1.74-5.18,2.22c-1.74,0.18-3.6,0.26-5.54,0.28
		c-6.7,0.05-14.43-0.61-22.03,0.22c-6.72,0.73-13.26,2.61-19.92,3.76c-35.32,6.07-70.59-8.85-106.28-11.97
		c-7.54-0.65-15.13-0.79-22.64-1.76c-6.29-0.82-12.49-2.23-18.68-3.64c-23.01-5.23-46.03-10.46-69.03-15.7
		c-25.14-9.75-54.01-6.74-81.17-11.98c-5.4-1.05-10.75-2.41-16.14-3.48c-6.11-1.21-12.27-2.03-18.43-2.78
		c-6.56-0.8-13.11-1.51-19.66-2.34c-24.75-3.12-49.31-7.85-73.45-14.14c-7.95-1.84-15.51-3.75-23.06-5.64
		c-4.91-1.23-9.85-2.49-14.49-4.54c-4.08-1.81-7.87-4.23-11.57-6.74c-4.62-3.11-9.17-6.42-12.94-10.51
		c4.32-0.29,9.19,0.89,13.35,2.28c17.1,5.72,34.2,11.45,54.1,17.9c17.44,7.29,33.09,2.83,51.22,10.58
		c31.28,3.97,39.1,7.22,63.36,11.05c37.74,5.95,75.49,11.9,113.23,17.85c19.04,3.01,38.1,6.01,56.87,10.4
		c30.18,7.06,59.85,17.73,90.81,19.27c25.72,1.28,51.37-3.82,77.13-3.67C833.33,635.73,840.56,636.42,846.77,638.78z"/>
</g>
</svg>
