<svg width="1981" height="1040" viewBox="0 0 1981 1040" fill="none" xmlns="http://www.w3.org/2000/svg">
<g clip-path="url(#clip0_101_2793)">
<path d="M2000 -78H0V1514.23H2000V-78Z" fill="#9BAFBD"/>
<path d="M2000 -78V1514.23H937.227C936.587 1515.11 935.96 1516 935.36 1516.91L926.72 1514.23H648.547C648.333 1514.79 648.12 1515.35 647.907 1515.93L642.587 1514.23L610.853 1503.97L545.4 1482.83L61.16 1326.47L32.04 1317.05L0 1306.72V-78H2000Z" fill="#728694"/>
<path d="M32.04 -78H0V1319.32H32.04V-78Z" fill="#709EB8"/>
<path d="M952.8 312.24C963.522 312.24 972.213 302.677 972.213 290.88C972.213 279.083 963.522 269.52 952.8 269.52C942.078 269.52 933.387 279.083 933.387 290.88C933.387 302.677 942.078 312.24 952.8 312.24Z" fill="#263F4F"/>
<path d="M1374.96 322.32H481.76V943.68H1374.96V322.32Z" fill="#4C6270"/>
<path d="M1662.85 324.053C1658.77 522.587 1650.59 721.027 1627.92 942.187C1662.99 917.973 1704.63 903.387 1747.15 900.4C1742.89 701.773 1746.8 502.973 1758.85 304.667C1727.01 309.893 1694.81 312.947 1662.85 324.053Z" fill="#4C6270"/>
<path d="M1927.88 1514.23H951.653L2.05273 1232.17L273.906 882.667L1885.56 1154.51L1927.88 1514.23Z" fill="#4C6270"/>
<path d="M1545.28 433.227C1534.47 433.227 1523.61 431.907 1512.96 430.614L1511.99 430.494C1440.92 421.867 1368.59 417.147 1297 416.467C1278.77 416.294 1258.12 416.094 1241.35 405.147C1218.31 390.107 1210.79 356.387 1225.25 332.987C1227.23 329.8 1231.41 328.814 1234.61 330.774C1237.8 332.747 1238.79 336.934 1236.81 340.134C1226.25 357.227 1231.95 382.787 1248.77 393.774C1262.21 402.547 1279.96 402.72 1297.13 402.88C1369.23 403.56 1442.07 408.32 1513.63 417L1514.6 417.12C1533.47 419.414 1552.97 421.787 1570.24 416.04C1584.77 411.214 1597.32 400.68 1608.72 390.04C1613.97 385.134 1618.95 380.254 1622.09 374.454C1625.75 367.734 1627.04 359.64 1628.13 351.24C1629.97 337.054 1631.28 322.654 1632.04 308.414C1632.24 304.667 1635.48 301.787 1639.19 301.987C1642.93 302.187 1645.81 305.387 1645.61 309.134C1644.84 323.707 1643.49 338.467 1641.61 352.987C1640.4 362.334 1638.81 372.187 1634.04 380.96C1629.92 388.534 1623.85 394.507 1618 399.974C1605.48 411.68 1591.53 423.294 1574.53 428.947C1564.93 432.134 1555.12 433.227 1545.28 433.227Z" fill="#821111"/>
<path d="M1337.96 597.333C1334.2 597.333 1331.16 594.28 1331.16 590.533C1331.19 560.826 1330.88 530.64 1330.24 500.827C1330.08 493.413 1329.52 485.213 1324.85 481.56C1322.47 479.693 1318.76 478.893 1315.16 478.24C1311.48 477.573 1307.6 476.946 1303.87 476.36C1283.96 473.2 1263.36 469.933 1248.12 455.56C1232 440.373 1227.43 416.866 1224.09 399.693C1223.37 396.013 1225.79 392.44 1229.47 391.72C1233.16 391 1236.72 393.413 1237.44 397.093C1241.32 417 1245.49 434.386 1257.45 445.653C1269.65 457.146 1287.32 459.947 1306.01 462.92C1309.83 463.533 1313.79 464.16 1317.63 464.853C1322.67 465.773 1328.44 467.08 1333.25 470.84C1343.39 478.773 1343.69 492.92 1343.85 500.533C1344.49 530.453 1344.8 560.733 1344.77 590.547C1344.76 594.293 1341.72 597.333 1337.96 597.333Z" fill="#821111"/>
<path d="M1098.6 526.333L1096.12 535.307L1051.27 696.92L1011.56 840H563.707L306.054 682.56L289.841 672.653L272.281 661.92L267.521 659.027L264.254 657.027L254.334 650.973L237.307 640.56L259.427 639.44L271.507 638.813L276.361 638.56L283.627 638.187L306.401 637L308.027 636.92L306.454 636.88L284.467 636.24L277.561 636.04L272.614 635.907L261.041 635.56L244.574 635.093L250.014 524.493L182.921 506.373L168.414 441.093L230.067 383.08V-78H994.001L1021.88 83.0933L1029.71 128.24L1044.51 213.773L1048.47 236.707L1056.08 280.587C1056.08 280.587 1056.08 280.587 1056.08 280.6L1059.52 300.52L1066.12 338.613L1075.49 392.813L1082.85 435.32L1082.91 435.627V435.64L1083.67 440.08L1098.6 526.333Z" fill="url(#paint0_linear_101_2793)"/>
<path d="M445.466 1149.96C443.906 1149.96 442.333 1149.43 441.053 1148.33C438.199 1145.89 437.866 1141.6 440.306 1138.75C465.759 1108.97 478.546 1066.09 478.293 1011.28C478.186 987.973 475.933 964.213 473.759 941.227C471.586 918.253 469.333 894.507 469.173 870.92C469.146 867.173 472.173 864.107 475.919 864.08C475.933 864.08 475.946 864.08 475.973 864.08C479.706 864.08 482.746 867.093 482.773 870.827C482.933 893.827 485.159 917.28 487.306 939.947C489.506 963.227 491.799 987.307 491.906 1011.23C492.173 1069.39 478.293 1115.27 450.653 1147.59C449.279 1149.16 447.373 1149.96 445.466 1149.96Z" fill="#821111"/>
<path d="M693.746 1162.01C690.319 1162.01 686.866 1160.83 683.906 1158.56C679.493 1155.17 677.133 1150.08 677.586 1144.95C677.973 1140.55 680.399 1136.55 684.186 1133.88C654.599 1102.64 628.986 1067.85 607.919 1030.28C599.959 1016.08 585.679 1005.64 569.733 1002.37C553.786 999.093 536.559 1003.05 523.639 1012.96C506.319 1026.25 497.599 1048.48 489.919 1068.09C488.546 1071.59 484.613 1073.31 481.106 1071.95C477.613 1070.57 475.893 1066.64 477.253 1063.13C485.173 1042.92 495.039 1017.76 515.359 1002.17C531.359 989.893 552.706 984.987 572.466 989.053C592.226 993.107 609.906 1006.04 619.773 1023.63C642.706 1064.53 671.186 1102.05 704.426 1135.16C708.079 1138.8 709.546 1144.21 708.346 1149.65C707.146 1155.08 703.546 1159.39 698.693 1161.15C697.093 1161.73 695.426 1162.01 693.746 1162.01ZM693.839 1144.35C693.453 1144.35 692.959 1144.45 692.439 1144.72C691.626 1145.15 691.146 1145.77 691.106 1146.15C691.079 1146.52 691.439 1147.21 692.159 1147.79C692.879 1148.36 693.666 1148.51 694.013 1148.39C694.359 1148.25 694.839 1147.64 695.039 1146.73C695.239 1145.83 695.066 1145.07 694.799 1144.8C694.733 1144.73 694.653 1144.65 694.586 1144.59C694.506 1144.55 694.439 1144.51 694.359 1144.47C694.253 1144.37 694.066 1144.35 693.839 1144.35Z" fill="#314042"/>
<path d="M1760.73 212.2L1774.77 218.68L1773.71 310.507L1761.83 320.24L1762.89 350.493L1756.23 350.4L1662.32 349L1635.31 348.587L1618.12 348.333L1616.75 348.32L1228.45 341.48H1228.44L1066.11 338.627L945.333 336.507H945.24L919.84 336.067L901.066 335.733H901.053L878.426 335.32C877.733 327.227 877.186 319.12 876.8 311.013C876.68 308.933 876.6 306.88 876.533 304.813C875.466 278.08 876.013 251.267 878.12 224.6C878.333 221.787 878.586 218.987 878.84 216.173C878.853 215.973 878.88 215.787 878.893 215.587C871.706 215.853 864.52 216.107 857.333 216.387C854.613 188.613 853.28 160.72 853.32 132.827C853.32 131.413 853.32 130.013 853.333 128.6C847.413 137.693 831.773 130.293 829.413 119.707C827.12 109.493 831.72 99.2533 833.973 88.9867C834.053 88.6133 834.133 88.2267 834.2 87.8667C837.52 71.1867 836.32 49.2 852.04 42.72C851.36 2.34666 854.08 -38.08 860.12 -78H1788.33L1788.81 -76.2667L1772.6 -43.8533L1760.73 212.2Z" fill="#9BAFBD"/>
<path d="M654.427 1197.47C651.441 1197.47 648.774 1195.51 647.907 1192.6C615.681 1083.41 596.027 970.413 589.507 856.747C589.294 853 592.161 849.787 595.907 849.573C599.681 849.36 602.867 852.227 603.081 855.973C609.201 962.68 627.001 1068.8 656.014 1171.68C656.187 1171.68 656.361 1171.69 656.534 1171.72C660.267 1172.13 662.947 1175.49 662.534 1179.23L661.174 1191.43C660.814 1194.64 658.241 1197.16 655.014 1197.44C654.827 1197.47 654.627 1197.47 654.427 1197.47Z" fill="#821111"/>
<path d="M759.561 1032.97C759.201 1032.97 758.827 1032.95 758.454 1032.88C724.494 1027.32 677.974 1019.71 648.694 988.68C627.734 966.467 620.334 937.333 617.801 916.8C614.627 891.08 616.934 865.24 619.161 840.253C619.494 836.52 622.801 833.747 626.534 834.093C630.267 834.427 633.041 837.72 632.707 841.467C630.547 865.747 628.307 890.853 631.307 915.147C633.587 933.667 640.174 959.84 658.601 979.36C682.761 1004.96 719.121 1012.68 760.667 1019.48C764.374 1020.09 766.881 1023.59 766.281 1027.28C765.721 1030.61 762.827 1032.97 759.561 1032.97Z" fill="#BC0002"/>
<path d="M751.441 1000.33C748.321 1000.33 745.521 998.173 744.814 995.013C732.094 937.867 721.841 879.453 714.348 821.4C713.868 817.68 716.494 814.267 720.214 813.787C723.934 813.28 727.348 815.933 727.828 819.653C735.281 877.307 745.454 935.307 758.081 992.053C758.894 995.72 756.588 999.347 752.921 1000.16C752.428 1000.28 751.921 1000.33 751.441 1000.33Z" fill="#821111"/>
<path d="M1885.63 1460.43C1874.13 1460.43 1862.95 1458.49 1852.88 1456.33C1819.85 1449.25 1795.87 1438.75 1777.4 1423.27C1738.57 1390.72 1726.48 1337.56 1719.79 1289.85C1712.2 1235.88 1706.27 1165.67 1727.87 1101.17C1750.31 1034.16 1802.75 983.56 1861.48 972.28C1865.16 971.573 1868.73 973.987 1869.44 977.667C1870.15 981.347 1867.73 984.92 1864.05 985.627C1810.07 996 1761.68 1043.05 1740.77 1105.49C1720.08 1167.29 1725.88 1235.48 1733.27 1287.97C1739.61 1333.12 1750.85 1383.27 1786.16 1412.87C1802.87 1426.87 1824.97 1436.47 1855.76 1443.05C1870.23 1446.15 1887.13 1448.79 1902.84 1444.88C1918.43 1441 1930.6 1430.32 1933.85 1417.67C1934.79 1414.03 1938.51 1411.84 1942.12 1412.77C1945.76 1413.71 1947.95 1417.41 1947.01 1421.04C1942.55 1438.45 1926.49 1452.99 1906.12 1458.07C1899.28 1459.76 1892.4 1460.43 1885.63 1460.43Z" fill="#4E768F"/>
<path d="M1140.64 508.04C1136.21 488.8 1131.8 469.56 1127.4 450.307C1126.59 446.76 1125.63 442.947 1122.93 440.48C1119.24 437.12 1113.63 437.36 1108.67 437.8C1104.51 438.173 1100.36 438.533 1096.2 438.92C1092.03 439.293 1087.85 439.68 1083.68 440.08C1080.2 440.387 1076.71 440.747 1073.23 441.107C1070.59 441.36 1067.95 441.653 1065.31 441.947C1062.36 442.28 1059.4 442.613 1056.45 442.96C1059.48 442.293 1062.49 441.6 1065.48 440.827C1066.28 440.627 1067.05 440.413 1067.85 440.2C1068.65 440 1069.43 439.787 1070.23 439.56C1070.73 439.427 1071.24 439.293 1071.76 439.133C1072.39 438.96 1072.99 438.787 1073.6 438.613C1074.15 438.453 1074.71 438.28 1075.27 438.107C1075.69 437.987 1076.12 437.853 1076.55 437.72C1076.72 437.667 1076.92 437.6 1077.09 437.547C1077.69 437.373 1078.32 437.173 1078.92 436.96C1079.21 436.88 1079.48 436.787 1079.77 436.693C1080.11 436.6 1080.41 436.48 1080.72 436.387C1081.39 436.173 1082.05 435.947 1082.72 435.707C1082.8 435.693 1082.85 435.667 1082.92 435.653C1083.09 435.573 1083.23 435.52 1083.4 435.453H1083.41C1083.43 435.453 1083.43 435.453 1083.43 435.453C1083.65 435.373 1083.89 435.293 1084.12 435.2H1084.13C1084.33 435.147 1084.52 435.067 1084.72 434.987C1085.45 434.733 1086.2 434.467 1086.93 434.187C1091.2 432.6 1095.4 430.853 1099.52 428.907C1100.4 428.52 1101.27 428.093 1102.15 427.64C1102.19 427.64 1102.23 427.627 1102.27 427.587C1103.36 427.067 1104.43 426.52 1105.49 425.96C1106.48 425.453 1107.48 424.933 1108.47 424.387C1109.09 424.053 1109.71 423.707 1110.31 423.36C1113.64 421.453 1116.91 419.413 1120.09 417.24C1121.33 416.387 1122.6 415.467 1123.33 414.147C1126.35 408.733 1118.67 403.8 1112.65 402.307C1103.35 399.973 1094.01 397.667 1084.69 395.24C1081.76 394.48 1078.83 393.707 1075.92 392.933C1075.79 392.893 1075.63 392.853 1075.49 392.813C1065.27 390.08 1055.07 387.16 1045.01 383.92C1043.43 383.413 1041.83 382.893 1040.24 382.36C1037.17 381.347 1034.15 380.307 1031.12 379.213C1029.88 378.773 1028.64 378.32 1027.39 377.853C1026.05 377.373 1024.71 376.867 1023.37 376.333C1020.95 375.427 1018.56 374.467 1016.17 373.493C1013.95 372.6 1011.73 371.667 1009.53 370.693C1008.65 370.32 1007.76 369.933 1006.89 369.533C1005.57 368.947 1004.27 368.373 1002.97 367.76C1000.51 366.613 998.067 365.453 995.641 364.24C994.414 363.64 993.214 363.04 991.987 362.413C990.361 361.6 988.721 360.76 987.107 359.907C985.014 358.8 982.907 357.693 980.841 356.573C977.694 354.867 974.574 353.133 971.467 351.387C968.654 349.8 965.854 348.2 963.054 346.613C961.721 345.853 960.374 345.08 959.041 344.32C958.014 343.72 956.987 343.133 955.947 342.533C952.841 340.76 949.734 338.973 946.627 337.2C946.214 336.973 945.787 336.72 945.361 336.48H945.267C943.641 335.533 942.067 334.613 940.427 333.68C938.347 332.52 936.267 331.347 934.201 330.2C932.147 329.053 930.067 327.933 927.974 326.8C926.414 325.96 924.854 325.133 923.281 324.32C920.934 323.08 918.587 321.88 916.214 320.707C915.027 320.107 913.841 319.52 912.654 318.96C911.467 318.373 910.281 317.813 909.081 317.253C906.961 316.267 904.854 315.293 902.707 314.36C901.374 313.773 900.027 313.2 898.667 312.627C897.334 312.067 895.974 311.52 894.614 310.973C893.561 310.547 892.494 310.133 891.454 309.747C890.187 309.267 888.934 308.8 887.654 308.347C886.534 307.933 885.427 307.547 884.321 307.187C884.014 307.067 883.694 306.973 883.387 306.88C882.574 306.613 881.734 306.333 880.921 306.08C880.587 305.987 880.241 305.867 879.907 305.773C878.801 305.427 877.681 305.093 876.574 304.787C875.641 304.52 874.694 304.24 873.761 304.013C872.827 303.76 871.894 303.507 870.947 303.28C869.934 303.027 868.907 302.8 867.894 302.56C866.907 302.307 865.907 302.093 864.921 301.893C864.361 301.76 863.774 301.64 863.187 301.547C861.561 301.213 859.921 300.92 858.294 300.653C854.987 300.107 851.667 299.68 848.294 299.373C834.521 298.133 820.681 299.027 806.854 298.787C791.107 298.52 775.401 296.773 759.747 295.04C738.441 292.693 717.147 290.347 695.841 287.973C689.374 287.28 682.854 286.533 676.641 284.52C667.161 281.427 658.947 275.493 650.227 270.653C649.467 270.24 648.734 269.813 647.961 269.427C630.121 259.987 609.907 255.04 589.694 255.2C589.281 254.827 588.881 254.467 588.454 254.107C568.107 236.2 544.827 224.093 520.027 218.267C514.027 216.853 507.827 215.8 501.694 216.32C499.827 216.48 497.961 216.787 496.134 217.213L495.414 217.387C495.001 217.48 494.601 217.587 494.187 217.693C490.561 218.667 487.027 220.067 483.561 221.56C469.121 227.907 455.721 236.667 444.147 247.427L444.134 247.44C443.241 248.253 442.361 249.067 441.494 249.92C436.254 251.107 431.161 253.013 426.307 255.507H426.294C418.374 259.547 411.094 265.12 404.761 271.453C396.001 280.213 388.841 290.36 381.947 300.68C380.801 302.387 379.681 304.08 378.547 305.787C375.734 306.267 373.094 307.027 370.627 308.04C349.721 316.507 339.907 342.493 333.947 365.4C310.507 455.693 296.761 550.12 261.094 635.533C260.574 636.84 260.027 638.12 259.481 639.4C257.827 643.267 256.147 647.107 254.387 650.933C248.907 662.947 242.947 674.773 236.401 686.347C232.387 702.187 221.921 715.533 208.281 725.707C201.441 730.813 193.801 735.12 185.774 738.56C162.547 748.507 134.841 752.267 118.574 771.587C109.521 782.32 105.641 796.147 100.321 809.213C98.9207 812.653 97.4274 816.053 95.7207 819.307C89.734 830.747 81.1607 840.573 72.614 850.24C59.214 865.4 45.7073 880.493 32.0673 895.48C21.4673 907.187 10.7873 918.813 0.0273438 930.413V1397.77C11.5607 1384.25 23.1207 1370.75 34.694 1357.25C43.5073 1346.96 52.3473 1336.69 61.2007 1326.41C79.294 1305.4 97.4674 1284.47 115.761 1263.61C120.814 1257.83 125.894 1252.04 130.987 1246.28C136.081 1240.51 141.187 1234.76 146.294 1229C151.401 1223.24 156.507 1217.48 161.627 1211.76C162.694 1210.53 163.787 1209.32 164.894 1208.09C169.107 1203.37 173.321 1198.65 177.574 1193.96C179.667 1191.61 181.774 1189.28 183.867 1186.97C187.574 1182.85 191.307 1178.75 195.027 1174.64C199.907 1169.24 204.801 1163.88 209.721 1158.52C212.014 1156 214.321 1153.45 216.654 1150.95C221.561 1145.59 226.481 1140.23 231.427 1134.91C234.027 1132.09 236.654 1129.28 239.267 1126.47C241.681 1123.87 244.107 1121.27 246.547 1118.67C248.987 1116.07 251.427 1113.47 253.867 1110.87C259.481 1104.85 265.147 1098.85 270.854 1092.87C275.147 1088.35 279.454 1083.81 283.761 1079.32C287.721 1075.16 291.707 1071.03 295.707 1066.89C298.521 1063.99 301.334 1061.05 304.174 1058.16C307.201 1055.01 310.254 1051.89 313.321 1048.79C315.707 1046.35 318.094 1043.89 320.507 1041.45C327.814 1034.01 335.147 1026.6 342.547 1019.23C344.894 1016.88 347.267 1014.53 349.614 1012.2C355.667 1006.15 361.747 1000.15 367.841 994.16C394.521 968 421.881 942.107 453.681 922.547C455.134 921.653 456.587 920.773 458.054 919.92C459.414 919.12 460.747 918.333 462.134 917.573C463.107 917.013 464.081 916.467 465.067 915.92C466.041 915.373 467.027 914.827 468.014 914.307C468.774 913.893 469.534 913.493 470.281 913.107C472.747 911.787 475.227 910.507 477.761 909.28C479.067 908.613 480.361 907.973 481.681 907.36C483.934 906.253 486.201 905.187 488.494 904.16C488.974 903.933 489.481 903.693 489.974 903.48C491.134 902.96 492.281 902.427 493.454 901.92C493.627 901.84 493.801 901.76 494.001 901.693C494.934 901.267 495.881 900.853 496.841 900.453C497.787 900.027 498.747 899.613 499.694 899.227C500.961 898.68 502.201 898.16 503.467 897.653C504.561 897.187 505.667 896.747 506.747 896.293C507.867 895.827 509.014 895.36 510.161 894.92C511.307 894.453 512.454 894.013 513.601 893.56C515.481 892.8 517.374 892.08 519.267 891.36C521.147 890.64 523.014 889.92 524.894 889.227C526.774 888.507 528.667 887.813 530.561 887.133C541.881 882.96 553.321 879 564.761 875C566.894 874.24 569.027 873.507 571.174 872.747C573.481 871.947 575.801 871.133 578.081 870.293C583.641 868.293 589.187 866.293 594.721 864.24C595.387 863.987 596.054 863.733 596.734 863.48C597.374 863.227 598.014 863 598.681 862.747C600.414 862.08 602.134 861.427 603.867 860.747C608.987 858.747 614.121 856.693 619.187 854.533C621.067 853.733 622.961 852.947 624.841 852.107C624.881 852.093 624.934 852.067 624.974 852.053C625.787 851.707 626.627 851.333 627.441 850.96C635.107 847.547 642.681 843.893 650.134 840.013C651.907 839.107 653.667 838.173 655.441 837.213C657.174 836.307 658.894 835.347 660.601 834.4C661.961 833.667 663.294 832.907 664.641 832.133C664.841 832.04 665.014 831.933 665.201 831.827C666.654 831.013 668.107 830.16 669.574 829.307C673.694 826.893 677.774 824.427 681.787 821.867C683.481 820.8 685.161 819.733 686.854 818.627C688.347 817.653 689.841 816.68 691.321 815.68C692.094 815.173 692.854 814.667 693.587 814.147C698.321 810.96 702.987 807.667 707.574 804.267C708.347 803.72 709.107 803.16 709.867 802.573C711.427 801.427 712.961 800.267 714.494 799.08C716.281 797.72 718.067 796.32 719.827 794.92C721.494 793.613 723.147 792.28 724.774 790.92C725.614 790.24 726.441 789.56 727.281 788.867C729.694 786.907 732.054 784.88 734.401 782.853C736.107 781.373 737.814 779.88 739.507 778.373C740.414 777.573 741.307 776.76 742.201 775.933C745.001 773.427 747.734 770.867 750.427 768.267C751.614 767.147 752.801 766.013 753.961 764.867C754.094 764.733 754.227 764.613 754.347 764.48C755.121 763.72 755.907 762.947 756.681 762.173C759.441 759.453 762.134 756.693 764.774 753.907C766.107 752.533 767.414 751.133 768.734 749.707C770.481 747.8 772.227 745.88 773.961 743.96C774.774 743.053 775.587 742.133 776.387 741.227C777.361 740.133 778.307 739.027 779.267 737.907C780.001 737.067 780.721 736.24 781.427 735.387C782.321 734.36 783.201 733.333 784.027 732.28C784.827 731.347 785.587 730.413 786.334 729.48C787.827 727.68 789.281 725.853 790.747 724C791.294 723.32 791.814 722.64 792.334 721.96C793.401 720.6 794.467 719.227 795.521 717.84C811.854 711.16 833.054 697.293 850.921 680C859.294 671.88 866.961 662.987 876.227 655.907C877.161 655.187 878.107 654.507 879.067 653.827C880.387 652.893 881.734 652 883.107 651.147C883.667 650.773 884.254 650.427 884.841 650.08C889.294 647.4 893.907 645.067 898.681 642.973C899.801 642.467 900.947 641.987 902.094 641.493C903.867 640.76 905.627 640.04 907.414 639.36C908.654 638.853 909.921 638.387 911.187 637.92C911.361 637.84 911.521 637.787 911.694 637.747C912.547 637.413 913.427 637.093 914.294 636.8C918.121 635.4 921.987 634.067 925.827 632.72C927.014 632.307 928.201 631.907 929.374 631.48C930.774 631 932.174 630.507 933.574 630C935.707 629.24 937.841 628.467 939.961 627.667C941.761 626.987 943.547 626.307 945.321 625.587C965.987 617.28 985.187 605.813 1003.92 593.467C1007.8 590.907 1011.67 588.28 1015.53 585.667C1016.87 584.76 1018.23 583.84 1019.57 582.907C1029.79 575.92 1039.95 568.827 1050.21 562.027C1052.37 560.613 1054.52 559.187 1056.69 557.8C1058.87 556.4 1061.04 555.027 1063.21 553.64C1064.95 552.547 1066.69 551.48 1068.44 550.413C1069.41 549.813 1070.4 549.227 1071.37 548.667C1073.24 547.547 1075.12 546.453 1077.03 545.36C1078.57 544.467 1080.13 543.587 1081.69 542.733C1083.49 541.76 1085.28 540.787 1087.11 539.84C1089.09 538.813 1091.09 537.787 1093.11 536.787C1094.12 536.307 1095.12 535.813 1096.13 535.333C1097.24 534.813 1098.33 534.307 1099.44 533.8C1100.55 533.293 1101.67 532.787 1102.77 532.307C1105.36 531.187 1107.96 530.093 1110.6 529.067C1112.01 528.507 1113.44 527.96 1114.87 527.453C1115.92 527.04 1117 526.68 1118.07 526.307C1118.24 526.253 1118.41 526.187 1118.59 526.133C1119.15 525.933 1119.69 525.76 1120.25 525.573C1120.8 525.373 1121.36 525.2 1121.92 525.027C1122.93 524.693 1123.96 524.36 1124.99 524.08C1125.96 523.773 1126.95 523.48 1127.93 523.2C1129.41 522.773 1130.88 522.387 1132.37 522C1135.23 521.28 1138.36 520.467 1140.07 518.08C1142.09 515.24 1141.4 511.4 1140.64 508.04ZM916.161 482.053C901.254 490.267 887.254 500.067 874.067 510.907C872.547 512.133 871.054 513.387 869.587 514.653C866.614 517.16 863.707 519.72 860.827 522.347C859.174 523.84 857.521 525.36 855.894 526.907C855.774 527 855.667 527.107 855.547 527.213C855.561 527.08 855.561 526.96 855.587 526.827C855.934 523.333 856.227 519.88 856.481 516.493C856.694 513.6 856.894 510.747 857.027 507.933C857.187 505.253 857.281 502.613 857.361 500.013C857.374 499.507 857.401 499 857.401 498.493C857.414 498.28 857.414 498.067 857.414 497.853C857.454 496.707 857.467 495.6 857.467 494.48C857.521 491.12 857.507 487.8 857.454 484.533C857.441 483.76 857.414 482.973 857.401 482.2C857.414 482.027 857.401 481.867 857.401 481.72C857.387 481.2 857.387 480.693 857.347 480.16C857.361 480.027 857.347 479.893 857.334 479.747C857.347 479.693 857.347 479.667 857.334 479.613C857.334 478.973 857.294 478.333 857.281 477.693C857.281 477.613 857.281 477.533 857.267 477.467C857.281 477.427 857.281 477.413 857.267 477.373C857.094 473.173 856.841 469.067 856.494 464.987C856.147 460.907 855.694 456.893 855.187 452.907C854.667 448.907 854.067 444.947 853.361 440.987C854.267 440.973 855.161 440.907 856.081 440.853C856.161 440.853 856.254 440.853 856.334 440.84C856.507 440.84 856.681 440.827 856.854 440.8H856.987C857.081 440.8 857.187 440.787 857.294 440.76C857.307 440.747 857.347 440.747 857.374 440.747C857.387 440.76 857.387 440.76 857.414 440.76C857.414 440.76 857.427 440.76 857.427 440.747C857.441 440.76 857.441 440.76 857.441 440.76C857.454 440.76 857.481 440.76 857.494 440.747C857.507 440.76 857.507 440.76 857.534 440.747C857.547 440.747 857.574 440.747 857.614 440.733L857.627 440.747C857.641 440.747 857.681 440.747 857.707 440.733C857.721 440.747 857.721 440.747 857.747 440.733C857.761 440.733 857.801 440.733 857.841 440.72V440.733C857.854 440.733 857.854 440.733 857.881 440.72C857.894 440.733 857.894 440.733 857.921 440.72H857.934C857.947 440.733 857.947 440.733 857.974 440.72C858.187 440.72 858.401 440.68 858.614 440.667C858.707 440.667 858.787 440.653 858.881 440.627C859.307 440.587 859.734 440.547 860.161 440.493C860.241 440.493 860.294 440.493 860.374 440.48C860.801 440.427 861.254 440.36 861.681 440.307C862.107 440.253 862.534 440.187 862.961 440.107C863.081 440.107 863.174 440.093 863.294 440.053C864.241 439.92 865.174 439.747 866.107 439.547C866.267 439.533 866.414 439.493 866.547 439.453C866.881 439.4 867.214 439.333 867.521 439.253C867.894 439.173 868.254 439.093 868.614 439C868.734 438.987 868.841 438.96 868.947 438.92C869.174 438.88 869.414 438.827 869.641 438.747C871.587 438.28 873.481 437.733 875.387 437.12C875.987 436.92 876.614 436.733 877.214 436.493C877.601 436.373 878.014 436.227 878.401 436.08C878.521 436.04 878.614 436 878.734 435.947C879.081 435.827 879.414 435.693 879.761 435.56C880.267 435.387 880.774 435.187 881.254 434.973C882.027 434.667 882.787 434.347 883.547 434.027C884.307 433.72 885.041 433.387 885.761 433.04C886.774 432.573 887.774 432.093 888.774 431.587C889.401 431.28 890.001 430.96 890.601 430.64C891.761 430.04 892.934 429.4 894.054 428.72C894.641 428.387 895.201 428.053 895.761 427.707C896.321 427.373 896.881 427.027 897.454 426.68C901.147 430.093 905.081 433.067 909.241 435.653C930.721 449.053 957.747 452.067 984.347 451.36C987.281 451.28 990.187 451.147 993.081 450.987C997.547 450.76 1001.97 450.427 1006.35 450.04C1008.81 449.827 1011.28 449.6 1013.75 449.347C1007.16 450.547 1000.63 451.907 994.134 453.4C990.267 454.293 986.441 455.24 982.614 456.253C959.521 462.267 937.161 470.48 916.161 482.053Z" fill="#FDD5C8"/>
<path d="M335.4 528.774C341.707 512.174 349.92 496.547 359.36 481.547C351.574 497.4 343.574 513.12 335.4 528.774Z" fill="#E0AFA1"/>
<path d="M496.093 217.24C497.92 216.813 499.786 216.506 501.653 216.346C507.786 215.826 513.986 216.866 519.986 218.293C544.786 224.12 568.066 236.24 588.413 254.133C566.12 259.746 545.146 271.106 526.826 285.186C501.626 304.52 480.786 328.853 460.4 353.2C444.666 371.96 429.093 390.826 413.546 409.72C394.493 432.826 375.24 456.266 359.373 481.546C385.973 427.506 410.346 372.386 432.4 316.346C446.813 279.68 462.066 240.266 494.173 217.72C494.586 217.6 494.986 217.506 495.4 217.413L496.093 217.24Z" fill="#E0AFA1"/>
<path d="M1003.91 593.413C985.174 605.76 965.96 617.213 945.307 625.533C943.534 626.253 941.747 626.933 939.947 627.613C936.454 628.933 932.92 630.173 929.36 631.413C928.174 631.84 926.987 632.253 925.814 632.653C921.974 633.986 918.107 635.333 914.28 636.733C913.4 637.026 912.534 637.36 911.68 637.68C911.507 637.72 911.347 637.773 911.174 637.853C909.907 638.32 908.654 638.786 907.4 639.293C905.614 639.973 903.84 640.693 902.08 641.426C900.934 641.893 899.787 642.4 898.667 642.906C893.894 645 889.267 647.333 884.827 650.013C884.24 650.36 883.667 650.706 883.094 651.08C881.72 651.933 880.374 652.826 879.054 653.76C878.107 654.44 877.147 655.12 876.214 655.84C866.947 662.933 859.28 671.826 850.907 679.933C833.04 697.24 811.84 711.093 795.507 717.773C794.454 719.146 793.387 720.533 792.32 721.893C791.8 722.573 791.267 723.253 790.734 723.933C789.28 725.773 787.827 727.6 786.32 729.413C785.56 730.346 784.8 731.28 784.014 732.213C783.174 733.266 782.307 734.293 781.414 735.32C780.72 736.173 780 737.013 779.254 737.84C778.307 738.96 777.347 740.066 776.374 741.16C775.574 742.066 774.76 742.986 773.947 743.893C772.214 745.813 770.467 747.733 768.72 749.64C767.4 751.053 766.094 752.453 764.76 753.84C762.12 756.64 759.427 759.4 756.667 762.107C755.894 762.88 755.107 763.666 754.334 764.413C754.214 764.546 754.08 764.666 753.947 764.8C752.787 765.946 751.6 767.067 750.414 768.2C747.72 770.8 744.974 773.36 742.187 775.867C741.294 776.707 740.4 777.52 739.494 778.306C737.8 779.826 736.094 781.32 734.387 782.787C732.04 784.827 729.667 786.84 727.267 788.8C726.427 789.493 725.6 790.173 724.76 790.853C723.134 792.213 721.48 793.546 719.814 794.853C718.04 796.253 716.254 797.653 714.48 799.013C712.947 800.2 711.414 801.36 709.854 802.506C709.094 803.093 708.334 803.653 707.56 804.2C702.974 807.6 698.32 810.893 693.574 814.08C692.84 814.6 692.08 815.107 691.307 815.613C689.827 816.627 688.334 817.6 686.84 818.56C685.147 819.666 683.467 820.733 681.774 821.8C677.76 824.36 673.68 826.826 669.56 829.24C668.107 830.093 666.654 830.946 665.187 831.76C664.987 831.88 664.814 831.973 664.627 832.066C663.294 832.84 661.947 833.6 660.587 834.333C658.88 835.28 657.147 836.24 655.427 837.146C653.654 838.093 651.894 839.027 650.12 839.947C642.667 843.827 635.094 847.48 627.427 850.893C626.614 851.266 625.774 851.626 624.96 851.986C624.92 852 624.867 852.027 624.827 852.04C622.947 852.88 621.054 853.666 619.174 854.466C614.107 856.626 608.974 858.68 603.854 860.68C602.12 861.36 600.4 862.013 598.667 862.68C598 862.933 597.36 863.16 596.72 863.413C596.04 863.666 595.36 863.92 594.707 864.173C589.174 866.226 583.614 868.226 578.067 870.226C575.774 871.066 573.467 871.88 571.16 872.68C569.027 873.44 566.894 874.173 564.747 874.933C553.307 878.933 541.867 882.893 530.547 887.066C528.64 887.746 526.76 888.44 524.88 889.16C523 889.853 521.107 890.56 519.254 891.293C517.347 892.013 515.467 892.733 513.587 893.493C512.44 893.933 511.294 894.387 510.147 894.853C509 895.293 507.854 895.76 506.734 896.226C505.64 896.68 504.534 897.12 503.454 897.586C502.187 898.093 500.947 898.613 499.68 899.16C498.734 899.546 497.774 899.96 496.827 900.386C495.88 900.8 494.92 901.2 493.987 901.626C493.787 901.706 493.614 901.787 493.44 901.853C492.28 902.36 491.134 902.88 489.96 903.413C489.48 903.626 488.974 903.853 488.48 904.093C486.187 905.12 483.92 906.186 481.667 907.293C480.347 907.92 479.04 908.56 477.747 909.213C475.227 910.44 472.734 911.72 470.267 913.04C469.507 913.427 468.747 913.84 468 914.24C467.014 914.76 466.014 915.307 465.054 915.853C464.067 916.4 463.094 916.946 462.12 917.506C460.747 918.266 459.4 919.053 458.04 919.853C456.587 920.707 455.134 921.586 453.667 922.48C421.867 942.026 394.507 967.933 367.827 994.093C361.734 1000.08 355.654 1006.08 349.6 1012.13C347.227 1014.44 344.88 1016.81 342.534 1019.16C335.134 1026.53 327.8 1033.96 320.494 1041.39C318.08 1043.83 315.694 1046.28 313.307 1048.72C310.24 1051.83 307.187 1054.95 304.16 1058.09C301.32 1060.99 298.507 1063.92 295.694 1066.83C291.694 1070.96 287.707 1075.09 283.747 1079.25C279.414 1083.76 275.107 1088.28 270.84 1092.8C265.134 1098.79 259.467 1104.79 253.854 1110.8C251.387 1113.4 248.947 1116 246.534 1118.6C244.094 1121.2 241.654 1123.8 239.254 1126.4C236.627 1129.21 234.014 1132.03 231.414 1134.84C226.467 1140.16 221.547 1145.52 216.64 1150.88C214.307 1153.39 212 1155.93 209.707 1158.45C204.774 1163.81 199.88 1169.17 195.014 1174.57C191.28 1178.67 187.56 1182.79 183.854 1186.91C181.76 1189.21 179.654 1191.55 177.56 1193.89C173.307 1198.59 169.094 1203.31 164.88 1208.03C163.774 1209.25 162.68 1210.47 161.614 1211.69C156.467 1217.43 151.347 1223.17 146.28 1228.93C141.16 1234.68 136.067 1240.45 130.974 1246.21C125.88 1251.99 120.8 1257.77 115.747 1263.55C97.4537 1284.4 79.2803 1305.33 61.187 1326.35C52.3337 1336.61 43.4937 1346.89 34.6803 1357.19C23.107 1370.68 11.5603 1384.2 0.0136719 1397.71V1028.13C10.867 1020.99 21.547 1013.59 32.0537 1005.97C147.534 922.226 242.44 810.226 306.067 682.56C314.014 666.653 321.467 650.506 328.4 634.133C333.427 622.266 338.347 610.053 346.654 600.186C355.494 589.72 367.56 582.6 379.334 575.546C416.654 553.173 456.614 524.706 464.147 481.84C466.28 469.72 465.56 457.293 466.4 445C471.16 375.386 526.48 317.413 590.187 288.906C608.854 280.56 628.187 274.266 647.934 269.453C648.707 269.84 649.454 270.266 650.2 270.68C658.92 275.52 667.134 281.453 676.614 284.546C682.827 286.56 689.347 287.306 695.814 288C717.12 290.373 738.414 292.72 759.72 295.066C775.374 296.8 791.08 298.546 806.827 298.813C820.654 299.04 834.494 298.146 848.267 299.4C851.64 299.706 854.96 300.133 858.267 300.68C859.894 300.946 861.534 301.24 863.16 301.573C863.747 301.666 864.32 301.786 864.894 301.92C865.88 302.12 866.88 302.333 867.867 302.586C868.88 302.813 869.907 303.053 870.92 303.306C871.867 303.533 872.8 303.786 873.734 304.04C874.667 304.266 875.614 304.546 876.547 304.813C877.654 305.12 878.774 305.453 879.88 305.8C881.36 306.24 882.814 306.706 884.294 307.213C885.4 307.586 886.507 307.973 887.627 308.373C888.907 308.813 890.174 309.28 891.427 309.773C892.48 310.16 893.547 310.573 894.587 311C895.947 311.546 897.307 312.093 898.64 312.653C900 313.213 901.334 313.8 902.68 314.386C908.507 321.533 914.24 328.76 919.84 336.053C928.854 347.706 937.614 359.573 946.107 371.586C963.467 396.146 979.987 421.973 992.32 449.333C992.574 449.853 992.827 450.4 993.054 450.946C990.16 451.106 987.254 451.24 984.32 451.32C957.72 452.013 930.694 449.013 909.214 435.613C905.054 433.026 901.12 430.053 897.427 426.64C896.867 426.986 896.307 427.333 895.734 427.666C895.174 428.013 894.614 428.346 894.027 428.68C892.907 429.36 891.734 430 890.574 430.6C889.974 430.933 889.374 431.24 888.747 431.546C887.76 432.053 886.747 432.533 885.734 433C885.014 433.346 884.28 433.68 883.52 433.986C882.76 434.32 882 434.626 881.227 434.933C880.747 435.146 880.24 435.346 879.734 435.52C879.387 435.653 879.054 435.786 878.707 435.906C878.587 435.96 878.494 436 878.374 436.04C877.987 436.173 877.574 436.333 877.187 436.453C876.587 436.68 875.96 436.88 875.36 437.08C873.454 437.706 871.56 438.24 869.614 438.706C869.387 438.786 869.147 438.84 868.92 438.88C868.827 438.92 868.707 438.933 868.587 438.96C868.24 439.053 867.867 439.133 867.494 439.213C867.187 439.293 866.854 439.346 866.52 439.413C866.387 439.453 866.227 439.493 866.08 439.506C865.147 439.706 864.214 439.88 863.267 440.013C863.147 440.053 863.054 440.066 862.934 440.066C862.507 440.146 862.08 440.2 861.654 440.266C861.227 440.32 860.774 440.386 860.347 440.44C860.267 440.453 860.214 440.453 860.134 440.453C859.707 440.506 859.28 440.546 858.854 440.586C858.76 440.6 858.68 440.626 858.587 440.626C858.374 440.64 858.16 440.68 857.947 440.68C857.934 440.693 857.934 440.693 857.907 440.68H857.894C857.88 440.693 857.88 440.693 857.854 440.68C857.84 440.693 857.84 440.693 857.814 440.693V440.68C857.774 440.693 857.734 440.693 857.72 440.693C857.707 440.706 857.707 440.706 857.68 440.693C857.667 440.706 857.627 440.706 857.6 440.706L857.587 440.693C857.547 440.706 857.534 440.706 857.507 440.706C857.494 440.72 857.494 440.72 857.467 440.706C857.454 440.72 857.427 440.72 857.414 440.72C857.414 440.72 857.414 440.72 857.4 440.706C857.4 440.72 857.387 440.72 857.387 440.72C857.374 440.72 857.374 440.72 857.347 440.706C857.334 440.706 857.294 440.706 857.267 440.72C857.107 440.733 856.974 440.76 856.827 440.76C856.654 440.773 856.48 440.8 856.307 440.8C856.227 440.813 856.134 440.813 856.054 440.813C855.147 440.866 854.254 440.933 853.334 440.946C854.027 444.906 854.64 448.866 855.16 452.866C855.667 456.853 856.107 460.866 856.467 464.946C856.814 469.026 857.067 473.146 857.24 477.333C857.24 477.346 857.254 477.386 857.24 477.426C857.254 477.506 857.254 477.586 857.254 477.653C857.267 478.293 857.307 478.933 857.307 479.573C857.32 479.626 857.32 479.653 857.307 479.706C857.32 479.84 857.347 479.973 857.32 480.12C857.36 480.64 857.36 481.146 857.374 481.68C857.374 481.84 857.387 481.986 857.374 482.16C857.387 482.493 857.414 482.826 857.414 483.173C857.414 483.6 857.427 484.053 857.427 484.493C857.48 487.76 857.507 491.08 857.44 494.44C857.44 495.56 857.427 496.666 857.387 497.813C857.387 498.026 857.387 498.24 857.374 498.453C857.374 498.96 857.36 499.466 857.334 499.973C857.254 502.573 857.16 505.213 857 507.893C856.867 510.706 856.667 513.56 856.454 516.453C856.2 519.826 855.907 523.293 855.56 526.786C855.547 526.92 855.547 527.04 855.52 527.173C855.64 527.053 855.747 526.96 855.867 526.866C857.494 525.32 859.147 523.8 860.8 522.306C863.68 519.68 866.587 517.12 869.56 514.613C871.04 513.346 872.534 512.093 874.04 510.866C887.227 500.026 901.227 490.226 916.134 482.013C937.147 470.44 959.494 462.226 982.587 456.173C986.414 455.16 990.24 454.213 994.107 453.32C994.454 454.12 994.787 454.893 995.12 455.693C1003 474.24 1008.87 493.493 1011.75 513.533C1015.56 540.093 1013.05 568.266 1003.91 593.413Z" fill="url(#paint1_linear_101_2793)"/>
<path d="M777.626 389.333C778.133 395.973 778.599 402.747 778.599 409.493C777.359 402.853 777.026 396.053 777.626 389.333Z" fill="#99685A"/>
<path d="M855.881 526.907C857.508 525.36 859.161 523.84 860.814 522.347C859.494 524.04 858.228 525.653 857.028 527.16C856.641 527.067 856.268 526.987 855.881 526.907Z" fill="#99685A"/>
<path d="M855.573 526.84C841.733 523.893 826.907 525.68 814.173 531.866C798 516.2 777.667 504.88 755.84 499.36C760 499.186 764.173 499.013 768.32 498.84C755.16 460.613 713.413 436.466 704.146 397.106C717.413 413.44 730.667 429.786 743.933 446.12C747.2 450.133 750.987 454.466 756.107 455.053C762.693 455.813 768.227 450.08 771.373 444.24C777.067 433.64 778.6 421.653 778.6 409.506C780.013 417.24 782.68 424.746 786.466 431.666C787.92 434.333 789.573 436.933 791.88 438.893C795.293 441.786 799.8 443.013 804.213 443.8C825.093 447.6 847.28 443.786 865.667 433.213C867.747 432.013 870.04 430.693 872.4 431.093C874.52 431.466 876.133 433.133 877.453 434.826C877.76 435.24 878.08 435.64 878.386 436.066C870.386 438.973 861.973 440.746 853.32 441C857.946 467.413 858.773 494.48 855.573 526.84Z" fill="#99685A"/>
<path d="M1123.33 414.16C1122.6 415.48 1121.33 416.387 1120.09 417.254C1116.91 419.427 1113.64 421.467 1110.31 423.373C1109.71 423.72 1109.08 424.067 1108.47 424.4C1107.48 424.947 1106.48 425.467 1105.49 425.974C1104.43 426.534 1103.36 427.08 1102.27 427.6C1102.23 427.64 1102.19 427.653 1102.15 427.653C1101.27 428.093 1100.4 428.534 1099.52 428.92C1095.4 430.867 1091.21 432.613 1086.93 434.2C1086.2 434.467 1085.45 434.747 1084.72 435C1084.52 435.08 1084.33 435.16 1084.13 435.214H1084.12C1083.89 435.307 1083.65 435.387 1083.43 435.467C1083.43 435.467 1083.43 435.467 1083.41 435.467H1083.4C1083.17 435.547 1082.97 435.64 1082.72 435.72C1082.05 435.947 1081.39 436.187 1080.72 436.4C1080.41 436.493 1080.09 436.613 1079.77 436.707C1079.48 436.8 1079.21 436.907 1078.92 436.974C1078.32 437.187 1077.69 437.387 1077.09 437.56C1076.92 437.614 1076.72 437.68 1076.55 437.733C1076.12 437.867 1075.69 438 1075.27 438.12C1074.71 438.293 1074.15 438.467 1073.6 438.627C1072.97 438.8 1072.37 438.973 1071.76 439.147C1071.24 439.307 1070.73 439.44 1070.23 439.573C1069.43 439.8 1068.65 440.014 1067.85 440.214C1067.05 440.427 1066.28 440.64 1065.48 440.84C1056.63 442.334 1047.75 443.854 1039.01 445.894C1024.47 449.267 1009.81 454.12 995.134 455.733C990.961 456.173 986.788 456.374 982.614 456.214C986.441 455.2 990.268 454.253 994.134 453.36C1000.61 451.867 1007.16 450.507 1013.75 449.307C1011.28 449.56 1008.81 449.787 1006.35 450C1001.97 450.387 997.548 450.72 993.081 450.947C990.188 451.107 987.281 451.24 984.348 451.32C957.748 452.013 930.721 449.013 909.241 435.613C914.334 419.52 918.401 403.094 918.014 386.307C917.174 349.414 892.134 314.68 858.268 300.68C873.668 303.187 888.388 308.094 902.694 314.387C936.828 329.36 968.814 352 1002.96 367.787C1037.81 383.907 1075.43 392.987 1112.67 402.307C1118.68 403.8 1126.35 408.733 1123.33 414.16Z" fill="url(#paint2_linear_101_2793)"/>
<path d="M1140.08 518.04C1138.37 520.427 1135.24 521.24 1132.39 521.96C1084.6 534.16 1045.37 566.014 1003.91 593.414C985.174 605.76 965.96 617.214 945.307 625.534C943.534 626.254 941.747 626.934 939.947 627.614C931.48 630.8 922.8 633.627 914.28 636.734C913.4 637.027 912.534 637.36 911.68 637.68C911.507 637.72 911.347 637.774 911.174 637.854C909.907 638.32 908.654 638.787 907.4 639.294C905.614 639.974 903.84 640.694 902.08 641.427C901.614 637.88 902.307 634.2 903.667 630.867C907.84 620.534 917.827 613.534 928.347 609.854C938.854 606.16 950.094 605.267 961.107 603.587C964.174 603.12 967.36 602.534 969.867 600.694C974.68 597.147 975.4 590.32 975.44 584.347C975.534 570.76 974.334 557.16 971.854 543.8C970.067 534.214 967.467 524.44 961.52 516.707C951.187 503.307 932.454 498.72 915.694 501.014C898.934 503.307 883.574 511.32 868.627 519.214C870.4 516.24 872.2 513.48 874.067 510.907C887.254 500.067 901.254 490.267 916.16 482.054C937.174 470.48 959.52 462.267 982.614 456.214C986.44 455.2 990.267 454.254 994.134 453.36C1000.61 451.867 1007.16 450.507 1013.75 449.307C1011.28 449.56 1008.81 449.787 1006.35 450C1001.97 450.387 997.547 450.72 993.08 450.947C990.187 451.107 987.28 451.24 984.347 451.32C1016.76 442.854 1050.33 438.227 1084.15 435.2C1083.92 435.294 1083.68 435.374 1083.45 435.454C1083.45 435.454 1083.45 435.454 1083.44 435.454H1083.43C1082.53 435.787 1081.64 436.094 1080.75 436.387C1080.44 436.48 1080.12 436.6 1079.8 436.694C1079.51 436.787 1079.24 436.894 1078.95 436.96C1078.35 437.174 1077.72 437.374 1077.12 437.547C1076.95 437.6 1076.75 437.667 1076.57 437.72C1076.15 437.854 1075.72 437.987 1075.29 438.107C1074.73 438.28 1074.17 438.454 1073.63 438.614C1073 438.787 1072.4 438.96 1071.79 439.134C1071.27 439.294 1070.76 439.427 1070.25 439.56C1069.45 439.787 1068.68 440 1067.88 440.2C1067.08 440.414 1066.31 440.627 1065.51 440.827C1062.52 441.6 1059.51 442.307 1056.48 442.96C1073.88 440.88 1091.37 439.334 1108.69 437.8C1113.67 437.36 1119.28 437.12 1122.96 440.48C1125.65 442.947 1126.61 446.747 1127.43 450.307C1131.84 469.547 1136.24 488.787 1140.67 508.04C1141.4 511.4 1142.09 515.24 1140.08 518.04Z" fill="url(#paint3_linear_101_2793)"/>
<path d="M351.067 858.4C329.733 868.053 305.68 871.6 282.48 868.493C267.68 866.52 252.76 861.907 238.107 864.8C225.88 867.213 215.28 874.613 205.547 882.387C179.067 903.56 155.987 928.973 137.44 957.373C132.8 964.48 128.413 973.84 133.027 980.973C138.333 989.173 150.8 987.4 159.787 983.533C180.373 974.68 198.373 959.933 211.093 941.493C220.08 928.467 227.093 913.053 240.68 904.933C254.547 896.653 271.813 898.013 287.893 896.4C309.067 894.267 329.627 886.387 346.813 873.84C349.56 871.84 352.4 869.4 352.973 866.053C353.547 862.707 350.16 858.787 351.067 858.4Z" fill="#99685A"/>
<path d="M294.426 732.56C283.186 753.413 270.013 773.227 255.133 791.653C252.266 795.2 249.16 799.227 249.586 803.773C250.226 810.667 259.066 814.2 265.64 812.067C272.213 809.933 276.853 804.173 281.08 798.693C291.48 785.253 301.893 771.813 312.293 758.36C313.2 757.187 314.12 756 314.573 754.587C315.266 752.44 314.786 750.12 314.306 747.92C313.266 743.16 312.213 738.4 311.173 733.64C310.813 732.013 310.333 730.213 308.906 729.36C307.946 728.787 306.746 728.787 305.64 728.907C300.453 729.467 295.573 732.373 294.426 732.56Z" fill="#99685A"/>
<path d="M779.746 505.24C743.306 497.147 707.999 483.96 675.186 466.16C664.213 460.213 652.799 452.92 648.279 441.293C647.493 439.267 646.959 436.893 647.999 434.987C650.173 430.973 656.239 432.68 660.226 434.907C698.759 456.533 736.466 479.627 779.746 505.24Z" fill="#99685A"/>
<path d="M444.093 247.48C432.786 269.093 419.119 289.92 417.653 314C415.999 294.84 414.679 274.16 424.773 257.787C425.239 257.027 425.746 256.293 426.253 255.56H426.266C431.12 253.053 436.213 251.147 441.453 249.973C442.333 249.107 443.2 248.293 444.093 247.48Z" fill="#E0AFA1"/>
<path d="M344.066 364.4C329.946 458.493 305.453 551.027 271.159 639.774C261.533 664.68 250.959 689.627 234.639 710.774C219.106 730.92 198.199 748 189.973 772.08C196.853 772.64 202.466 766.92 206.879 761.614C247.973 712.014 280.053 654.973 301.093 594.107C314.413 555.587 323.373 515.48 339.746 478.16C359.506 433.147 389.773 392.853 404.879 346.08C396.173 342.627 396.226 330.347 398.573 321.28C400.919 312.213 403.426 300.96 396.373 294.813C378.546 322.973 380.906 360.507 362.666 388.4C360.319 391.987 356.626 395.76 352.466 394.747C346.919 393.4 346.733 385.64 347.813 380.04C350.466 366.373 353.106 352.693 355.759 339.027C348.746 348.387 344.679 360.32 344.066 364.4Z" fill="#FEE4DB"/>
<path d="M517.8 311.24C417.733 390.107 349.053 501.547 289.013 613.92C279.253 632.2 269.6 650.694 263.586 670.52C258.76 686.454 256.333 703.014 251.893 719.054C243.946 747.774 229.453 774.654 209.826 797.067C217.52 797.694 224.053 791.734 229.106 785.894C280.973 725.987 289.933 636.48 345.88 580.36C364.28 561.894 387.08 547.907 403.626 527.774C424.013 502.974 433.186 471.16 445.346 441.44C461.173 402.787 482.799 366.507 509.279 334.214C514.626 327.72 519.746 316.974 517.8 311.24Z" fill="#FEE4DB"/>
<path d="M208.253 725.747C189.653 750.013 171.066 774.307 152.479 798.587C150.733 800.88 148.893 803.227 146.346 804.573C142.893 806.4 138.773 806.053 134.866 805.88C123.213 805.36 111.679 806.813 100.279 809.28C105.599 796.213 109.479 782.387 118.533 771.653C134.799 752.333 162.519 748.56 185.733 738.627C193.773 735.16 201.413 730.853 208.253 725.747Z" fill="#E0AFA1"/>
<path d="M155.24 827.92C118.907 880.44 77.5867 929.533 32.04 974.307C21.6 984.573 10.8933 994.64 0 1004.47V944.56C10.56 936.173 21.2267 927.827 32.04 919.44C70.44 889.653 110.693 859.653 155.24 827.92Z" fill="#E0AFA1"/>
<path d="M381.907 300.72C372.041 324.28 363.774 348.507 357.188 373.187C358.307 357.494 359.454 341.707 363.561 326.547C365.267 320.294 367.507 314.107 370.587 308.08C373.054 307.067 375.694 306.307 378.507 305.827C379.627 304.12 380.761 302.427 381.907 300.72Z" fill="#E0AFA1"/>
<path d="M1256.19 596.16C1252.65 596.16 1249.68 593.426 1249.41 589.853C1247.69 566.106 1245.55 542.08 1243 518.44C1242.25 511.44 1241.35 505.333 1237.89 501.506C1232.39 495.413 1220.97 496.373 1212.37 498.253L1209.37 498.92C1198.45 501.373 1186.07 504.173 1174.63 498.706C1168.23 495.653 1163.52 490.48 1160.53 486.853C1141.04 463.146 1134.64 428.986 1144.21 399.826C1145.39 396.266 1149.23 394.32 1152.79 395.493C1156.36 396.666 1158.29 400.506 1157.12 404.066C1148.96 428.906 1154.41 458.013 1171.03 478.226C1174.51 482.453 1177.41 484.986 1180.47 486.44C1187.67 489.866 1196.76 487.826 1206.39 485.653C1207.43 485.426 1208.45 485.186 1209.47 484.973C1227.09 481.12 1240.05 483.613 1247.99 492.4C1254.67 499.8 1255.79 510.146 1256.52 516.986C1259.08 540.786 1261.25 564.973 1262.97 588.866C1263.24 592.613 1260.43 595.866 1256.68 596.133C1256.52 596.146 1256.35 596.16 1256.19 596.16Z" fill="#821111"/>
<path d="M1041.72 316.96C1051.9 316.96 1060.16 306.961 1060.16 294.627C1060.16 282.292 1051.9 272.293 1041.72 272.293C1031.54 272.293 1023.28 282.292 1023.28 294.627C1023.28 306.961 1031.54 316.96 1041.72 316.96Z" fill="#263F4F"/>
<path d="M1138.81 605.147C1138.32 605.147 1137.83 605.093 1137.33 604.987C1133.67 604.173 1131.36 600.533 1132.17 596.88C1145.11 538.68 1138.39 476.867 1113.25 422.813C1111.67 419.413 1113.15 415.373 1116.55 413.787C1119.95 412.2 1123.99 413.68 1125.57 417.08C1151.97 473.84 1159.03 538.733 1145.44 599.84C1144.73 603 1141.92 605.147 1138.81 605.147Z" fill="#821111"/>
<path d="M1132.99 320.853C1143.17 320.853 1151.43 310.854 1151.43 298.52C1151.43 286.185 1143.17 276.187 1132.99 276.187C1122.8 276.187 1114.55 286.185 1114.55 298.52C1114.55 310.854 1122.8 320.853 1132.99 320.853Z" fill="#263F4F"/>
<path d="M1241.72 309.2C1251.9 309.2 1260.16 299.201 1260.16 286.867C1260.16 274.532 1251.9 264.533 1241.72 264.533C1231.54 264.533 1223.28 274.532 1223.28 286.867C1223.28 299.201 1231.54 309.2 1241.72 309.2Z" fill="#263F4F"/>
<path d="M1348.52 309.2C1358.7 309.2 1366.96 299.201 1366.96 286.867C1366.96 274.532 1358.7 264.533 1348.52 264.533C1338.34 264.533 1330.08 274.532 1330.08 286.867C1330.08 299.201 1338.34 309.2 1348.52 309.2Z" fill="#263F4F"/>
<path d="M1461.15 309.2C1471.33 309.2 1479.59 299.201 1479.59 286.867C1479.59 274.532 1471.33 264.533 1461.15 264.533C1450.96 264.533 1442.71 274.532 1442.71 286.867C1442.71 299.201 1450.96 309.2 1461.15 309.2Z" fill="#263F4F"/>
<path d="M1143.45 468.893C1154.25 468.28 1165 466.347 1175.57 464.453L1176.53 464.28C1247 451.627 1318.95 442.813 1390.37 438.067C1408.56 436.853 1429.17 435.493 1445.29 423.6C1467.44 407.28 1473.04 373.187 1457.25 350.64C1455.11 347.56 1450.87 346.813 1447.79 348.973C1444.71 351.12 1443.96 355.36 1446.12 358.44C1457.64 374.907 1453.4 400.747 1437.23 412.667C1424.31 422.2 1406.59 423.373 1389.47 424.507C1317.53 429.28 1245.08 438.173 1174.12 450.907L1173.16 451.08C1154.45 454.44 1135.11 457.92 1117.56 453.16C1102.77 449.16 1089.65 439.373 1077.67 429.387C1072.15 424.787 1066.91 420.2 1063.43 414.587C1059.39 408.08 1057.65 400.08 1056.08 391.747C1053.44 377.693 1051.31 363.387 1049.75 349.213C1049.33 345.48 1045.93 342.787 1042.25 343.2C1038.52 343.613 1035.83 346.973 1036.24 350.693C1037.84 365.2 1040.01 379.853 1042.72 394.253C1044.47 403.507 1046.6 413.267 1051.87 421.747C1056.41 429.08 1062.8 434.693 1068.96 439.827C1082.13 450.8 1096.71 461.6 1114 466.28C1123.77 468.92 1133.63 469.453 1143.45 468.893Z" fill="#821111"/>
<path d="M1575.71 313.08C1585.89 313.08 1594.15 303.081 1594.15 290.746C1594.15 278.412 1585.89 268.413 1575.71 268.413C1565.52 268.413 1557.27 278.412 1557.27 290.746C1557.27 303.081 1565.52 313.08 1575.71 313.08Z" fill="#263F4F"/>
<path d="M1171.25 607.853C1170.69 607.853 1170.13 607.786 1169.57 607.64C1165.93 606.706 1163.75 603.013 1164.67 599.373C1174.13 562.266 1201.73 535.066 1223.24 518.773C1243.57 503.36 1266.24 491.24 1288.17 479.507C1294.55 476.107 1301.12 472.573 1307.52 469.04C1313.57 465.693 1319.72 462.2 1325.77 458.746C1291.48 441.746 1256.21 427.346 1220.16 432.613C1218.96 432.786 1217.75 432.987 1216.55 433.187C1210.73 434.133 1204.72 435.12 1198.32 434.093C1188.03 432.453 1179.96 426.04 1174.79 421.347C1153.33 401.907 1140.32 373.013 1139.97 344.066C1139.93 340.32 1142.93 337.24 1146.69 337.187C1146.72 337.187 1146.75 337.187 1146.77 337.187C1150.49 337.187 1153.52 340.173 1153.57 343.906C1153.88 369.146 1165.23 394.333 1183.93 411.28C1190.11 416.88 1195.36 419.867 1200.47 420.68C1204.71 421.36 1209.4 420.586 1214.37 419.773C1215.65 419.56 1216.93 419.36 1218.21 419.173C1261.17 412.907 1301.24 431.04 1339.96 450.666C1382.36 426.493 1426.36 402.96 1475.55 401.333C1484.45 401.04 1496 401.4 1506.25 406.8C1518.12 413.053 1526.91 425.2 1533.12 443.906C1539.89 464.28 1542.8 486.386 1541.53 507.826C1541.29 512.013 1540.79 516.84 1538 521.173C1533.56 528.066 1525.17 531.266 1513.11 530.693C1488.76 529.546 1465.51 521.333 1445.63 513.72C1414.75 501.893 1384.12 488.32 1354.6 473.373C1351.19 471.64 1347.76 469.893 1344.31 468.133C1342.99 467.453 1341.67 466.786 1340.35 466.106C1339.67 466.506 1338.97 466.893 1338.29 467.28C1330.37 471.813 1322.19 476.506 1314.12 480.96C1307.64 484.546 1301.01 488.08 1294.61 491.507C1273.15 502.987 1250.95 514.853 1231.48 529.626C1211.71 544.613 1186.36 569.467 1177.88 602.76C1177.04 605.813 1174.28 607.853 1171.25 607.853ZM1354.44 458.04C1356.53 459.106 1358.61 460.173 1360.69 461.227C1389.8 475.96 1419.99 489.346 1450.44 501C1469.33 508.226 1491.37 516.04 1513.71 517.093C1520.39 517.4 1524.96 516.24 1526.53 513.786C1527.55 512.213 1527.79 509.453 1527.93 507C1529.09 487.266 1526.41 466.92 1520.19 448.16C1515.13 432.933 1508.49 423.333 1499.88 418.786C1492.45 414.866 1483.2 414.653 1475.97 414.88C1432.93 416.32 1392.99 436.32 1354.44 458.04Z" fill="#BC0002"/>
<path d="M1111.67 111.12L1091.71 126.613L853.32 132.827C853.32 131.413 853.32 130.013 853.333 128.6C847.413 137.693 831.773 130.293 829.413 119.707C827.12 109.493 831.72 99.2533 833.973 88.9866C841.586 88.9466 849.173 88.9999 856.773 89.1866C852.973 81.8799 853.333 72.9599 855.933 65.1333C858.533 57.3333 863.173 50.3599 867.76 43.5199C868.866 43.6133 912.44 41.5333 912.44 41.5333C905.346 54.6533 902.773 70.1599 905.2 84.8666C905.2 84.9466 944 86.5599 944 86.5599C940.88 71.1466 945.493 54.3466 956.04 42.6933C956.04 39.8399 1004.73 38.9066 1004.73 38.9066C996.933 42.3199 992.48 51.0266 991.8 59.5333C991.12 68.0133 993.546 76.4266 996.106 84.5466C999.973 83.3599 1041.72 82.5866 1041.72 82.5866C1037.56 69.6933 1040.69 54.7199 1049.67 44.5733C1051.08 40.0133 1097.57 36.2666 1097.57 36.2666C1093.19 43.8266 1088.69 51.6666 1087.65 60.3466C1086.6 69.0133 1089.87 78.8266 1097.65 82.8533C1098.67 80.1999 1111.67 111.12 1111.67 111.12Z" fill="#263F4F"/>
<path d="M1612.55 1148.25C1612.53 1149.99 1612.43 1151.69 1612.29 1153.4C1611.99 1157.15 1611.4 1160.81 1610.45 1164.35C1610.08 1165.75 1609.65 1167.11 1609.15 1168.47C1607.67 1172.6 1605.6 1176.52 1602.84 1180.12C1591.15 1195.36 1570.63 1200.03 1553.81 1209.32C1548.93 1212.01 1544.32 1215.16 1539.76 1218.39C1535.72 1221.23 1531.72 1224.13 1527.63 1226.85C1522.35 1230.39 1516.89 1233.63 1510.99 1236.04C1490.47 1244.43 1463.36 1243.92 1452.44 1265.09C1394.77 1327.77 1329.75 1383.65 1259.13 1431.32C1253.68 1435.01 1248.16 1438.65 1242.63 1442.23C1220.68 1456.48 1198.21 1469.96 1175.31 1482.57C1156.08 1493.17 1136.37 1503.31 1117.21 1514.23H937.226C936.586 1515.11 935.96 1516 935.36 1516.91L926.72 1514.23H648.546C648.333 1514.79 648.12 1515.35 647.906 1515.93L642.586 1514.23H530.68C535.32 1503.68 540.266 1493.24 545.4 1482.83C557.626 1457.85 570.706 1433.09 582.08 1407.73C587.053 1396.72 591.693 1385.6 595.813 1374.29C610.88 1332.93 618.92 1289.17 627.6 1245.73C628.666 1240.41 629.733 1235.09 630.84 1229.79C632.12 1223.53 633.44 1217.28 634.826 1211.05C638.346 1195.19 642.226 1179.44 646.84 1164C652.72 1144.29 659.826 1125.05 668.92 1106.52C670.293 1103.72 671.72 1100.93 673.186 1098.17C687.52 1071.24 706.386 1046.05 716.306 1017.51C717.893 1012.96 719.253 1008.35 720.32 1003.6C724.066 987.053 724.28 969.507 731.093 953.947C733.48 948.507 736.573 943.493 740.066 938.72C747.68 928.293 757.173 919.013 765.12 908.76C766.093 907.52 767.04 906.253 767.96 904.973C768.853 903.733 769.733 902.493 770.586 901.24C771.28 900.213 771.96 899.186 772.626 898.133C773.053 897.506 773.44 896.893 773.853 896.253C775.12 894.253 776.333 892.213 777.52 890.173C777.933 889.48 778.32 888.773 778.706 888.08C779.733 886.293 780.72 884.493 781.68 882.666C782.16 881.76 782.653 880.826 783.133 879.906C783.6 879 784.066 878.066 784.533 877.146C785 876.213 785.466 875.307 785.906 874.373C786.373 873.44 786.84 872.506 787.28 871.573C788.293 869.493 789.266 867.413 790.253 865.32C793.186 859.053 796.026 852.693 798.893 846.373C799.533 844.92 800.2 843.466 800.88 842.026C801.186 841.346 801.506 840.653 801.826 839.973C802.56 838.36 803.32 836.746 804.08 835.133C804.84 833.52 805.613 831.933 806.386 830.333C807.946 827.146 809.546 823.96 811.2 820.84C815 813.64 819.146 806.626 823.826 799.96C855.826 754.466 913.786 728.693 969.4 741.786C969.44 741.8 969.493 741.8 969.533 741.826C996.213 725.866 1023.49 710.88 1051.27 696.88C1135.17 654.653 1223.71 621.573 1314.79 598.546C1331.81 594.24 1349.91 590.293 1366.73 595.386C1384.65 600.8 1396.77 614.626 1407.07 630.026C1418.64 647.333 1427.91 666.626 1440.51 678.2C1441.01 678.68 1441.56 679.146 1442.08 679.6C1442.09 679.613 1442.12 679.64 1442.13 679.653C1442.17 679.693 1442.23 679.733 1442.27 679.773C1473.03 674.68 1507.21 670.373 1533.03 687.853C1543.87 695.186 1551.79 705.6 1557.12 717.466C1563.67 731.933 1566.43 748.573 1566.03 764.52C1565.93 768.733 1565.61 772.933 1565.12 777.08C1565.03 777.893 1564.91 778.733 1564.79 779.56C1564.67 780.4 1564.56 781.213 1564.41 782.04C1564.29 782.813 1564.16 783.6 1564.03 784.373C1563.81 785.653 1563.56 786.933 1563.29 788.213C1563.16 788.893 1563.03 789.573 1562.87 790.226C1562.71 790.92 1562.56 791.626 1562.4 792.32C1562.23 792.973 1562.07 793.64 1561.89 794.306C1561.56 795.666 1561.2 797 1560.8 798.36C1560.57 799.173 1560.33 799.987 1560.08 800.787C1559.71 802.027 1559.31 803.253 1558.89 804.48C1557.95 807.373 1556.88 810.253 1555.73 813.08C1555.65 813.28 1555.57 813.453 1555.51 813.64C1555.31 814.12 1555.12 814.613 1554.91 815.08C1554.68 815.666 1554.43 816.266 1554.15 816.853C1554.11 816.973 1554.05 817.08 1553.99 817.226C1553.85 817.56 1553.69 817.867 1553.55 818.2C1553.29 818.76 1553.04 819.346 1552.77 819.906C1552.72 820.066 1552.64 820.213 1552.56 820.373C1552.47 820.573 1552.36 820.786 1552.27 820.973C1551.97 821.613 1551.67 822.253 1551.33 822.893C1551.03 823.56 1550.69 824.213 1550.35 824.88C1550.15 825.266 1549.96 825.653 1549.75 826.066C1549.44 826.653 1549.12 827.253 1548.8 827.84C1548.57 828.293 1548.32 828.747 1548.07 829.2C1547.95 829.453 1547.81 829.706 1547.65 829.96C1547.36 830.48 1547.07 831.013 1546.76 831.533C1546.45 832.093 1546.13 832.64 1545.79 833.2C1545.44 833.827 1545.07 834.426 1544.69 835.026C1543.92 836.306 1543.12 837.586 1542.31 838.853C1542.23 838.973 1542.15 839.066 1542.09 839.186C1541.37 840.253 1540.65 841.346 1539.92 842.413C1539.32 843.293 1538.69 844.16 1538.08 845.04C1537.88 845.307 1537.71 845.56 1537.52 845.813C1537.43 845.946 1537.32 846.106 1537.21 846.24C1537.04 846.493 1536.87 846.72 1536.67 846.973C1536.55 847.133 1536.44 847.28 1536.32 847.44C1535.88 848.066 1535.41 848.666 1534.92 849.266C1534.67 849.613 1534.41 849.947 1534.15 850.28C1534.15 850.32 1534.13 850.333 1534.09 850.373C1534.01 850.493 1533.92 850.6 1533.84 850.707C1533.29 851.387 1532.75 852.04 1532.23 852.707C1532.13 852.827 1532.03 852.96 1531.92 853.08C1531.36 853.773 1530.77 854.48 1530.17 855.173C1529.49 855.986 1528.8 856.8 1528.08 857.6C1527.75 857.973 1527.4 858.36 1527.07 858.72C1526.97 858.813 1526.87 858.933 1526.77 859.026C1526.68 859.146 1526.57 859.24 1526.48 859.333C1525.71 860.213 1524.89 861.08 1524.07 861.933C1523.21 862.84 1522.33 863.733 1521.47 864.613C1521.08 864.987 1520.71 865.346 1520.35 865.72C1519.71 866.36 1519.07 866.986 1518.4 867.586C1518.36 867.626 1518.32 867.666 1518.31 867.68C1518.17 867.813 1518.04 867.933 1517.92 868.026C1517.75 868.226 1517.55 868.4 1517.37 868.546C1517.29 868.626 1517.21 868.706 1517.15 868.773C1517.05 868.853 1516.95 868.947 1516.84 869.04C1516.76 869.12 1516.68 869.173 1516.63 869.24C1516.57 869.293 1516.49 869.373 1516.41 869.44C1516.4 869.48 1516.37 869.493 1516.36 869.48C1515.81 870 1515.27 870.506 1514.71 871C1514.16 871.48 1513.6 871.987 1513.04 872.453C1512.07 873.307 1511.08 874.146 1510.09 874.96C1509.59 875.373 1509.08 875.773 1508.57 876.186C1507.81 876.786 1507.05 877.386 1506.28 877.986C1505.39 878.68 1504.48 879.36 1503.56 880.04C1503.17 880.307 1502.79 880.6 1502.4 880.893C1502.03 881.146 1501.67 881.413 1501.29 881.666C1500.28 882.386 1499.28 883.08 1498.27 883.76C1497.76 884.106 1497.25 884.453 1496.73 884.787C1495.03 885.907 1493.29 886.986 1491.57 888.026L1491.15 888.28C1490.45 888.707 1489.75 889.12 1489.03 889.52C1488.52 889.813 1488.04 890.08 1487.53 890.36C1486.91 890.706 1486.29 891.053 1485.67 891.386C1484.73 891.893 1483.79 892.4 1482.83 892.88C1481.89 893.36 1480.95 893.826 1479.97 894.293C1478.05 895.226 1476.13 896.12 1474.17 896.96C1473.29 897.333 1472.4 897.72 1471.52 898.066C1470.51 898.48 1469.51 898.88 1468.47 899.266C1467.71 899.56 1466.95 899.826 1466.2 900.106C1465.44 900.373 1464.68 900.653 1463.93 900.906C1462.67 901.333 1461.41 901.746 1460.15 902.133C1460.13 902.146 1460.13 902.146 1460.11 902.146C1460.03 902.186 1459.95 902.2 1459.88 902.226C1459.8 902.24 1459.75 902.267 1459.67 902.28C1459.51 902.333 1459.33 902.373 1459.19 902.44C1458.47 902.653 1457.73 902.866 1457.01 903.066C1456.29 903.28 1455.6 903.48 1454.88 903.653C1454.25 903.826 1453.64 903.986 1453.01 904.133C1452.57 904.253 1452.11 904.36 1451.65 904.466C1451.15 904.586 1450.64 904.693 1450.13 904.813C1449.72 904.906 1449.29 905.013 1448.89 905.08C1448.17 905.24 1447.45 905.386 1446.73 905.52C1446.35 905.613 1445.96 905.68 1445.55 905.746C1445.16 905.826 1444.75 905.906 1444.36 905.96C1443.84 906.053 1443.33 906.16 1442.8 906.226C1442 906.36 1441.19 906.493 1440.39 906.613C1427.69 908.493 1413.05 909.6 1405.41 919.933C1395.53 933.293 1404.87 953.08 1418.47 962.653C1425.27 967.453 1432.89 970.773 1440.55 974.053C1448.21 977.333 1455.92 980.573 1462.84 985.16C1494.45 1006.11 1500.08 1056.43 1476.55 1086.27C1475.4 1087.75 1474.16 1089.16 1472.85 1090.53C1496.12 1089.51 1518.05 1079.69 1541.07 1076.16C1564.08 1072.63 1591.41 1077.65 1602.99 1097.85C1606.57 1104.12 1608.27 1111.25 1609.57 1118.37C1609.75 1119.27 1609.91 1120.15 1610.05 1121.04C1610.25 1122.16 1610.44 1123.31 1610.61 1124.45C1610.77 1125.39 1610.92 1126.33 1611.05 1127.29C1611.21 1128.31 1611.35 1129.33 1611.48 1130.36C1611.49 1130.45 1611.52 1130.57 1611.52 1130.71C1611.65 1131.68 1611.77 1132.65 1611.87 1133.64C1611.99 1134.69 1612.09 1135.76 1612.17 1136.83C1612.23 1137.45 1612.29 1138.07 1612.33 1138.71C1612.37 1139.37 1612.41 1140.04 1612.45 1140.71C1612.51 1141.65 1612.55 1142.59 1612.57 1143.55C1612.56 1145.16 1612.59 1146.72 1612.55 1148.25Z" fill="#FDD5C8"/>
<path d="M892.76 823.093C892.12 823.72 891.52 824.28 890.894 824.92C890.854 824.92 890.854 824.92 890.854 824.933C888.374 827.36 885.907 829.813 883.48 832.293C880.974 834.84 878.494 837.4 876.08 840C857.88 859.306 841.307 880.08 826.534 902.08C811.387 924.626 797.854 953.493 809.774 977.906C816.574 974.16 825.187 981.48 825.68 989.213C826.187 996.946 821.467 1003.95 816.747 1010.11C784.334 1052.41 741.84 1086.44 711.134 1130.01C707.867 1134.64 704.76 1139.35 701.774 1144.15C699.52 1147.76 697.32 1151.41 695.214 1155.08C687.76 1168.01 681 1181.35 674.52 1194.83C671.707 1200.67 668.947 1206.52 666.187 1212.37C664.654 1215.65 663.12 1218.92 661.587 1222.21V1222.23C659.414 1226.91 657.254 1231.59 655.2 1236.32H655.187C648.28 1252.03 642.094 1268.01 638.027 1284.65C627.64 1326.88 631.227 1371.13 627.934 1414.52C627.76 1416.93 627.547 1419.32 627.307 1421.72C624.68 1449.63 619.147 1477.21 610.88 1503.97C609.827 1507.41 608.72 1510.83 607.56 1514.23H530.707C535.347 1503.68 540.294 1493.24 545.427 1482.83C557.654 1457.85 570.734 1433.09 582.107 1407.73C587.08 1396.72 591.72 1385.6 595.84 1374.29C610.907 1332.93 618.947 1289.17 627.627 1245.73C628.694 1240.41 629.76 1235.09 630.867 1229.79C632.147 1223.53 633.467 1217.28 634.854 1211.05C638.374 1195.19 642.254 1179.44 646.867 1164C652.747 1144.29 659.854 1125.05 668.947 1106.52C670.32 1103.72 671.747 1100.93 673.214 1098.17C687.547 1071.24 706.414 1046.05 716.334 1017.51C717.92 1012.96 719.28 1008.35 720.347 1003.6C724.094 987.053 724.307 969.506 731.12 953.946C733.507 948.506 736.6 943.493 740.094 938.72C747.707 928.293 757.2 919.013 765.147 908.76C766.12 907.52 767.067 906.253 767.987 904.973C768.88 903.733 769.76 902.493 770.614 901.24C771.307 900.213 771.987 899.186 772.654 898.133C773.08 897.506 773.467 896.893 773.88 896.253C775.147 894.253 776.36 892.213 777.547 890.173C777.96 889.48 778.347 888.773 778.734 888.08C779.76 886.293 780.747 884.493 781.707 882.666C782.187 881.76 782.68 880.826 783.16 879.906C783.627 879 784.094 878.066 784.56 877.146C785.027 876.213 785.494 875.306 785.934 874.373C786.4 873.44 786.867 872.506 787.307 871.573C788.32 869.493 789.294 867.413 790.28 865.32C793.187 859.026 796.054 852.693 798.92 846.373C799.56 844.92 800.227 843.466 800.907 842.026C801.214 841.346 801.534 840.653 801.854 839.973C802.587 838.36 803.347 836.746 804.107 835.133C804.867 833.52 805.64 831.933 806.414 830.333C807.974 827.146 809.574 823.96 811.227 820.84C828.534 813.386 846.6 807.906 865.32 805C874.08 803.64 886.694 806.24 892.587 822.56C892.64 822.733 892.694 822.906 892.76 823.093Z" fill="#E0AFA1"/>
<path d="M1442.12 679.693C1425.07 699.28 1400.71 711.693 1377.21 723.387C1351.88 735.987 1326.53 748.587 1301.2 761.187C1282.09 770.68 1262.56 780.307 1241.43 783.187C1221.99 785.827 1202.2 782.587 1182.65 784.08C1148.17 786.707 1115.17 804.773 1094.4 832.427C1104.28 867.653 1114.17 902.893 1124.05 938.12C1126.53 947 1129.07 956.24 1127.39 965.307C1125.73 974.253 1120.2 981.973 1114.83 989.307C1058.19 1066.63 1000.99 1144.57 929.373 1208.28C990.533 1077.48 1040.43 941.44 1078.32 802.12C1073.33 792.467 1120.09 763.707 1161.99 741.493C1209.36 716.347 1256.76 691.227 1304.16 666.093C1336.47 648.947 1371.32 631.373 1407.05 630.053L1442.12 679.693Z" fill="#E0AFA1"/>
<path d="M1405.36 920C1395.48 933.36 1404.81 953.146 1418.41 962.72C1425.21 967.52 1432.84 970.84 1440.49 974.12C1427.89 978.706 1414.84 981.64 1401.39 982.16C1371.83 983.32 1343.08 972.72 1313.59 970.493C1284.11 968.266 1249.67 978.04 1238.35 1005.39C1233.51 1017.08 1233.71 1030.23 1230.55 1042.49C1224 1067.93 1203.92 1087.29 1184.72 1105.21C1122.95 1162.88 1057.24 1222.73 975.027 1242.32C1018.36 1204.15 1054.77 1158.12 1081.97 1107.17C1096.53 1079.93 1108.83 1050.76 1130.17 1028.44C1143.19 1014.83 1159.03 1004.35 1173.61 992.453C1202.59 968.866 1226.55 939.786 1252.93 913.333C1338.51 827.506 1447.92 770.533 1557.13 717.506C1563.68 731.973 1566.44 748.613 1566.04 764.56C1564.37 833.253 1508.33 896.64 1440.35 906.693C1427.63 908.56 1412.99 909.666 1405.36 920Z" fill="#E0AFA1"/>
<path d="M969.399 741.826C936.879 768.093 908.212 799.186 884.679 833.746C873.692 819.4 851.439 822.626 834.372 828.546C822.999 832.506 811.812 837.013 800.879 842.066C804.146 834.906 807.546 827.813 811.212 820.88C815.012 813.68 819.159 806.666 823.839 800C855.826 754.506 913.786 728.733 969.399 741.826Z" fill="#99685A"/>
<path d="M1442.05 679.626C1402.25 724.4 1337.55 764.866 1266.87 783.4C1252.13 787.266 1234.79 789.666 1223.07 779.946C1299.76 755.48 1378.4 728.973 1440.48 678.24C1440.99 678.72 1441.53 679.186 1442.05 679.626Z" fill="#99685A"/>
<path d="M1405.36 920C1395.48 933.36 1404.81 953.146 1418.41 962.72C1425.21 967.52 1432.84 970.84 1440.49 974.12C1448.16 977.4 1455.87 980.64 1462.79 985.226C1494.4 1006.17 1500.03 1056.49 1476.49 1086.33C1457.81 1099.17 1437.51 1108.6 1414.97 1111.24C1410.13 1111.8 1405.15 1112.04 1400.49 1110.61C1388.15 1106.91 1381.6 1092.15 1383.69 1079.41C1385.79 1066.69 1394.53 1056 1404.37 1047.64C1419.4 1034.88 1439.69 1022.36 1439.17 1002.65C1438.41 973.026 1390.08 957.92 1396.08 928.88C1397.91 920.026 1404.71 913.186 1411.19 906.893C1425.56 892.973 1440 878.973 1456.41 867.493C1487.31 845.866 1524.47 833.613 1555.73 813.106C1536.33 860.946 1491.75 899.053 1440.33 906.653C1427.63 908.56 1412.99 909.666 1405.36 920Z" fill="#99685A"/>
<path d="M1760.73 212.2L1774.77 218.68L1773.71 310.507L1761.83 320.24L1762.89 350.493L1756.23 350.4L1662.32 349L1635.31 348.587L1618.12 348.333L1616.75 348.32L1620.96 338.613L1619.69 318.36L1633.6 314.573V220.987H1623.31L1581.27 220.947C1581.32 217.96 1581.4 214.96 1581.48 211.973C1583.77 115.253 1587.99 18.5599 1594.15 -77.9868H1788.35L1788.83 -76.2535L1772.61 -43.8401L1760.73 212.2Z" fill="#709EB8"/>
<path d="M862.439 216.227C1120.59 215.48 1379 199.253 1636.67 214.8C1585.57 240.973 1525.56 241.04 1468.15 240.52C1430.16 240.173 1392.17 239.827 1354.19 239.48C1223.07 238.293 1091.95 237.107 960.826 235.907C926.386 235.6 889.959 234.733 862.439 216.227Z" fill="#4E768F"/>
<path d="M2000 -78V1514.23H1858.25L1860.48 1450.93L1862.91 1382.23L1871.4 1141.65L1914.44 -78H2000Z" fill="#709EB8"/>
<path d="M1142.2 27.2269C1139.61 33.0002 1132.96 36.5602 1131.52 42.7202C1130.87 45.4669 1131.39 48.3469 1131.91 51.1336C1133.51 59.7736 1135.12 68.4136 1136.72 77.0536C1137.13 79.2536 1137.56 81.5202 1138.68 83.4536C1139.73 85.2669 1141.33 86.6802 1142.89 88.0669C1148.23 92.7869 1153.56 97.5069 1158.89 102.227C1150.21 118.24 1151.01 138.96 1160.91 154.254C1162.12 156.134 1164.69 158.094 1166.28 156.507L1218.92 156.387C1218.92 156.387 1217.95 31.1469 1216.97 34.0536C1217.13 30.3336 1217.29 26.6136 1217.45 22.8936L1142.2 27.2269Z" fill="#F16E2B"/>
</g>
<defs>
<linearGradient id="paint0_linear_101_2793" x1="244.27" y1="346.569" x2="1097.28" y2="401.509" gradientUnits="userSpaceOnUse">
<stop stop-color="#314042"/>
<stop offset="0.5256" stop-color="#324144"/>
<stop offset="0.715" stop-color="#36464B"/>
<stop offset="0.8499" stop-color="#3D4F56"/>
<stop offset="0.9583" stop-color="#475C67"/>
<stop offset="1" stop-color="#4C6270"/>
</linearGradient>
<linearGradient id="paint1_linear_101_2793" x1="519.551" y1="807.52" x2="961.302" y2="748.524" gradientUnits="userSpaceOnUse">
<stop stop-color="#E0AFA1"/>
<stop offset="0.3462" stop-color="#DEAD9F"/>
<stop offset="0.5507" stop-color="#D5A496"/>
<stop offset="0.7183" stop-color="#C79688"/>
<stop offset="0.865" stop-color="#B38274"/>
<stop offset="0.9984" stop-color="#99685A"/>
<stop offset="1" stop-color="#99685A"/>
</linearGradient>
<linearGradient id="paint2_linear_101_2793" x1="918.441" y1="378.456" x2="1117.42" y2="423.549" gradientUnits="userSpaceOnUse">
<stop stop-color="#99685A"/>
<stop offset="0.2611" stop-color="#96685B"/>
<stop offset="0.4769" stop-color="#8B675E"/>
<stop offset="0.6765" stop-color="#7A6663"/>
<stop offset="0.8653" stop-color="#62646A"/>
<stop offset="1" stop-color="#4C6270"/>
</linearGradient>
<linearGradient id="paint3_linear_101_2793" x1="973.983" y1="535.068" x2="1124.32" y2="479.237" gradientUnits="userSpaceOnUse">
<stop stop-color="#99685A"/>
<stop offset="0.3396" stop-color="#97685B"/>
<stop offset="0.5384" stop-color="#8E675D"/>
<stop offset="0.701" stop-color="#806661"/>
<stop offset="0.8439" stop-color="#6C6567"/>
<stop offset="0.9728" stop-color="#52636E"/>
<stop offset="1" stop-color="#4C6270"/>
</linearGradient>
<clipPath id="clip0_101_2793">
<rect width="1980.95" height="1040" fill="white"/>
</clipPath>
</defs>
</svg>
