<svg width="2000" height="1040" viewBox="0 0 2000 1040" fill="none" xmlns="http://www.w3.org/2000/svg">
<g clip-path="url(#clip0_101_1141)">
<path d="M2000 -127H0V1167.72H2000V-127Z" fill="#9BAFBD"/>
<path d="M1963.65 472.693C1963.45 491.133 1962.63 509.746 1958.37 527.586C1949.99 562.866 1928.97 592.546 1908.47 621.12C1901.41 630.946 1877.95 641.173 1865.2 646.4C1864.08 646.853 1863.04 647.28 1862.09 647.653L1860.65 647.213C1812.67 637.533 1764.51 628.866 1716.21 621.24C1713.91 620.866 1711.59 620.506 1709.28 620.146C1650.47 610.96 1591.44 603.28 1532.31 597.12C1532.29 597.106 1532.29 597.106 1532.28 597.12C1506.81 594.466 1481.32 592.093 1455.8 590.013C1403.64 589.64 1348.19 583.213 1292.37 571.826C1266.11 566.48 1239.75 560.04 1213.63 552.613C1211.96 552.906 1210.28 553.186 1208.6 553.453C1173.76 559.24 1138.32 563.36 1102.79 567.226C1096.23 567.933 1089.65 568.626 1083.08 569.346C1053 572.573 1022.32 575.76 992.814 568.506C943.094 546.186 885.08 539.466 827.8 532.946C781.24 527.626 734.694 522.346 688.134 517.026C686.267 516.813 684.387 516.6 682.52 516.386C681.32 516.36 680.147 516.346 678.96 516.346C651.854 516.266 624.174 521.653 597.08 529.6C576.414 540.973 549.574 545.386 523.84 544.28C498.094 543.2 472.774 537.04 447.214 533.386C412.547 528.413 377.334 528.013 342.587 532.2C313.56 536.506 281 541.88 250.027 533.346C234.174 528.986 219.174 521.093 203.134 517.773C186.16 514.253 168.547 515.96 151.627 512.253C141.654 510.066 131.52 505.24 124.2 497.826C119.067 492.64 115.334 486.186 114.014 478.493C113.574 470.693 119.4 463.826 126.08 461.28C132.747 458.746 140.027 459.613 147.027 460.72C156.294 462.2 165.494 464.093 174.614 466.373C179.96 467.706 185.267 469.186 190.534 470.8C193.36 471.666 196.174 472.573 198.987 473.506C200.427 474 202.174 474.346 203.68 474.173C204.48 474.08 205.214 473.84 205.8 473.4C206.32 473.04 206.707 472.506 206.96 471.8C207.307 470.773 207.2 469.8 206.76 468.933C206.147 467.68 204.894 466.626 203.494 465.826C202.707 465.386 201.867 465.04 201.094 464.773C196.454 463.226 191.8 461.693 187.907 460.333C178.36 458.36 168.694 457.173 159 456.826C156.16 456.733 153.32 456.706 150.52 456.2C147.827 455.706 145.2 454.8 142.627 453.813C138.894 452.413 135.214 450.88 131.56 449.2C126.934 447.08 121.88 444.12 120.587 438.773C120.107 436.813 120.227 434.733 120.48 432.72C120.867 429.76 121.6 426.786 122.987 424.213C126.68 417.32 134.494 414.24 141.707 414.573C148.92 414.92 155.76 418.093 162.054 420.653C164.694 421.96 167.32 423.266 169.947 424.573H169.96C170.614 424.893 171.267 425.226 171.92 425.546C173.854 426.506 175.814 427.48 177.92 427.84C179.64 428.12 181.374 427.973 183.107 427.906C184.094 427.866 185.094 427.84 186.08 427.84C186.08 427.84 186.08 427.84 186.094 427.84C192.347 427.84 198.6 428.72 204.654 430.426C207.574 431.253 210.494 432.266 213.494 432.053C213.614 432.04 213.76 432.026 213.88 432C214.04 431.96 214.2 431.893 214.307 431.746C214.36 431.693 214.4 431.64 214.414 431.573C214.547 431.333 214.52 431.08 214.36 430.84V430.826C214.294 430.693 214.2 430.56 214.067 430.453C213.787 430.16 213.4 429.92 213.054 429.8C208.267 428.28 203.4 427.066 198.48 426.186C189.774 424.626 180.934 424.08 172.227 422.573C171.894 422.52 171.574 422.466 171.24 422.386C171.24 422.386 171.24 422.386 171.227 422.386C169 421.986 166.774 421.506 164.56 420.92C158.48 419.32 152.587 416.973 147.32 413.28C146.014 412.373 144.734 411.36 143.774 410.013C142.414 408.093 141.854 405.64 141.44 403.24C141.08 401.12 140.787 398.973 141 396.826C141.494 391.546 144.947 387 149.187 384.56C153.44 382.106 158.374 381.533 163.147 381.8C164.56 381.88 165.987 382.04 167.467 382.4C168.52 382.653 169.6 383 170.734 383.493C170.587 383.36 170.44 383.2 170.294 383.053C167.32 379.786 166.2 374.546 167.627 370.173C169.507 364.36 175.134 360.973 180.64 359.96C182.534 359.613 184.44 359.493 186.347 359.546C189.92 359.613 193.494 360.28 197.134 361.213C199.907 361.933 202.707 362.8 205.534 363.68C205.16 363.56 204.814 363.346 204.547 363.08C204.214 362.786 203.96 362.413 203.747 362V361.986C203.08 360.64 202.947 358.746 203.04 357.12C203.214 354.293 203.654 351.386 205.027 348.986C207.134 345.28 211.08 343.413 214.92 342.426C215.6 342.253 216.28 342.106 216.96 341.986C220.054 341.386 223.214 341.173 226.36 341.12C226.854 341.106 227.347 341.106 227.854 341.106C231.84 341.093 235.854 341.28 239.774 342.106H239.787C239.907 342.133 240.054 342.16 240.174 342.186C243.014 342.813 245.787 343.786 248.654 344.346C252.174 345.04 255.787 345.106 259.36 345.293C259.587 345.306 259.8 345.32 260.027 345.333C271.4 345.96 282.72 347.813 293.254 351.12C340.734 352.48 386.2 370.986 432.334 383.466C435.587 384.346 438.854 385.186 442.147 385.88C443.774 386.213 445.387 386.506 447.027 386.746C448 386.88 448.96 387 449.934 387.093H449.947C457.467 387.866 464.987 387.533 471.947 387.16C486.8 391.16 501.867 395.16 517.147 394.773C526.827 394.533 536.4 392.533 546.08 392.413C567.814 392.133 589.014 401.36 609.774 401.053C611.04 401.04 612.307 400.986 613.574 400.906C698.187 407.133 781.427 385.653 864.96 367.346C865 367.333 865.027 367.333 865.067 367.32C895.92 360.586 926.827 354.253 957.854 349.906C989.467 349.08 1020.43 340.12 1051.93 337.04C1086.47 333.653 1121.03 337.4 1155.51 342.4C1155.52 342.4 1155.52 342.4 1155.53 342.4H1155.55C1170.08 344.506 1184.57 346.826 1199.07 348.933C1199.84 349.053 1200.64 349.173 1201.41 349.28C1222.45 352.306 1243.55 354.84 1264.67 356.84C1275.97 357.92 1287.28 358.866 1298.6 359.653C1332.81 362.066 1367.03 363.12 1401.08 362.866C1406.31 362.826 1411.52 362.76 1416.75 362.653C1465.92 352.16 1515.16 341.64 1563.37 326.706C1596.64 316.4 1629.45 303.986 1663.45 297.4C1680.37 294.133 1697.48 292.306 1714.59 290.666C1767.43 285.6 1820.41 282.24 1873.09 280.2C1877.13 281.2 1881.13 282.213 1885.17 283.226H1885.19C1894.39 285.52 1903.6 287.813 1912.8 290.12C1916.51 291.053 1920.27 292 1923.63 293.96C1928.29 296.68 1931.88 301.186 1935.03 305.866C1954.56 334.973 1959.76 372.706 1962.05 408.88C1963.33 430.066 1963.88 451.386 1963.65 472.693Z" fill="#728694"/>
<path d="M1179.39 428.013C1176.92 418.453 1168.32 412.066 1159.51 410.133C1150.69 408.2 1141.6 409.88 1132.75 411.56C1055.31 426.28 977.879 440.986 900.439 455.706C976.919 471.266 1055.35 439.906 1132.85 446.906C1142.45 447.773 1152.32 449.2 1161.57 446.253C1170.83 443.306 1181 434.266 1179.39 428.013Z" fill="#728694"/>
<path d="M1516.08 432.88C1488.51 442.427 1462.21 456.44 1438.28 474.347C1430.61 480.093 1422.65 486.44 1413.41 487.213C1404.17 487.987 1393.71 480.253 1394.61 470.053C1395.29 462.36 1401.71 457.08 1407.6 452.933C1414.45 448.093 1421.44 443.387 1429.04 440.2C1436.77 436.96 1444.97 435.373 1453.11 433.8C1466.61 431.2 1480.12 428.587 1493.63 425.987C1497.64 425.213 1501.93 424.48 1505.64 426.347C1509.35 428.213 1511.75 433.853 1516.08 432.88Z" fill="#728694"/>
<path d="M1668.32 489.24C1613.93 500.746 1559.92 514.36 1506.4 530.066C1501.32 531.56 1495.52 533.76 1493.73 539.24C1490.71 548.52 1501.63 555.733 1510.47 557.013C1546.65 562.266 1581.48 541.453 1617.65 536.133C1638.63 533.053 1659.97 535.213 1681 532.693C1691.99 531.373 1705.72 524.773 1704.52 512.613C1703.89 506.24 1699.05 501.426 1694.12 498.053C1682.53 490.146 1668.51 486.706 1668.32 489.24Z" fill="#728694"/>
<path d="M1324.47 548.12C1295.6 537.093 1267.75 522.866 1241.43 505.706C1223.61 494.093 1205 480.666 1184.35 481.64C1183.07 481.706 1181.71 481.853 1180.69 482.706C1177.65 485.28 1180.35 490.613 1183.31 493.293C1195.35 504.173 1210.77 509.013 1225.32 515.053C1259.63 529.306 1292.32 551.84 1328.93 553.68C1328.73 550.64 1326.45 547.92 1324.47 548.12Z" fill="#728694"/>
<path d="M484.68 428C463.854 423.947 443.134 434.107 423.974 444.027C410.174 451.16 396.387 458.307 382.587 465.44C378.134 467.747 373.214 470.613 371.787 475.84C384.107 481.213 397.814 474.92 409.814 468.733C420.907 463.013 431.987 457.293 443.08 451.587C448.187 448.947 453.347 446.293 458.827 444.853C467.814 442.48 477.414 443.413 486.12 440C488.8 438.947 491.614 437.147 492.307 434.093C493.054 430.76 490.76 427.32 487.907 425.947C485.067 424.547 481.827 424.72 484.68 428Z" fill="#728694"/>
<path d="M298.186 450.547C265.399 453.92 231.959 449.413 200.853 437.453C198.546 436.573 195.533 435.853 194.053 437.987C192.919 439.627 193.506 442.133 194.826 443.573C196.159 445.013 198.013 445.667 199.786 446.253C225.746 454.947 252.693 463.747 279.586 459.773C285.879 458.84 292.479 456.973 298.186 450.547Z" fill="#728694"/>
<path d="M215.707 491.04C210.201 488.92 204.694 486.787 199.187 484.667C197.481 484.013 195.694 483.347 193.921 483.68C189.494 484.52 187.934 490.587 187.494 495.533C187.361 496.973 187.281 498.547 187.974 499.773C188.547 500.773 189.534 501.36 190.494 501.88C198.107 506.013 206.427 508.533 214.867 509.267C216.641 509.427 218.641 509.4 219.894 508.013C221.201 506.573 221.161 504.24 220.787 502.24C219.761 496.893 217.067 491.573 215.707 491.04Z" fill="#728694"/>
<path d="M124.067 469.453C131.681 470.08 139.294 470.72 146.907 471.346C149.227 471.533 151.894 471.96 153.08 474.173C153.6 475.133 153.734 476.266 153.84 477.373C154.054 479.533 154.161 481.813 153.401 483.813C152.894 485.133 152.027 486.253 151.054 487.2C147.467 490.72 142.534 492.08 137.747 492.333C132.96 492.586 128.187 491.853 123.401 491.733C122.681 484.346 122.841 476.853 124.067 469.453Z" fill="#728694"/>
<path d="M144.666 427.626C144.706 430.693 144.133 433.84 142.626 436.413C141.12 438.986 138.546 440.893 135.786 441C134.213 441.066 132.666 440.56 131.173 440.013C129.346 439.36 127.373 438.48 126.52 436.586C125.853 435.133 126.013 433.4 126.24 431.786C126.613 429.106 127.133 426.453 127.8 423.84C128.12 422.546 128.546 421.173 129.56 420.44C130.333 419.88 131.293 419.813 132.2 419.786C135.453 419.653 138.933 419.826 141.626 421.88C144.306 423.906 145.666 428.453 144.666 427.626Z" fill="#728694"/>
<path d="M228.574 409.44C224.32 406.493 219.747 404.106 214.987 402.36C210.987 400.893 206.547 399.88 202.627 401.626C198.707 403.373 195.96 408.826 198.04 412.88C199.694 416.08 203.374 417.053 206.64 417.706C215.694 419.533 224.854 421.373 234.04 420.746C235.494 420.653 237.2 420.293 237.814 418.84C238.374 417.52 237.72 415.96 236.934 414.773C234.44 410.973 230.44 408.426 228.574 409.44Z" fill="#728694"/>
<path d="M251.121 386.053C246.934 383.813 242.747 381.573 238.547 379.32C234.881 377.346 231.107 375.36 227.054 374.893C224.88 374.653 222.601 374.88 220.707 376.066C218.814 377.253 217.374 379.533 217.467 381.946C217.561 384.24 219.001 386.266 220.774 387.48C222.547 388.693 224.614 389.186 226.667 389.613C233.947 391.106 241.387 391.68 248.774 391.346C249.641 391.306 250.574 391.226 251.24 390.6C252.12 389.76 252.174 388.213 251.694 387.053C251.187 385.88 250.267 385.013 251.121 386.053Z" fill="#728694"/>
<path d="M185.053 364.627C186.053 366.92 186.067 369.72 185.08 372.027C184.093 374.333 182.133 376.093 179.893 376.68C178.573 377.027 177.2 376.987 175.853 376.867C174.147 376.707 172.28 376.32 171.2 374.84C170.64 374.067 170.36 373.08 170.24 372.093C169.8 368.32 171.733 364.347 174.827 362.707C177.92 361.067 183.307 360.627 185.053 364.627Z" fill="#728694"/>
<path d="M180.747 396.84C178.721 395.147 176.054 393.373 173.814 394.693C172.774 395.307 172.094 396.48 171.481 397.6C170.267 399.787 169.027 402.04 168.707 404.573C168.281 407.827 169.814 411.56 172.654 412.507C175.747 413.533 179.041 410.893 180.294 407.6C181.547 404.307 181.267 400.6 180.747 396.84Z" fill="#728694"/>
<path d="M164.241 432.693C162.308 431.733 160.374 430.787 158.454 429.827C157.974 429.587 157.441 429.347 156.948 429.52C156.574 429.64 156.294 429.96 156.041 430.293C153.108 434.173 153.094 439.733 153.241 444.787C153.254 445.28 153.281 445.827 153.561 446.213C153.774 446.507 154.094 446.667 154.414 446.8C158.134 448.36 162.761 447.107 165.134 443.573C167.508 440.04 167.241 434.173 164.241 432.693Z" fill="#728694"/>
<path d="M315.746 366.867C308.013 366.64 300.159 366.387 292.786 363.8C287.813 362.053 283.173 359.293 278.186 357.573C268.439 354.227 257.986 355.04 247.813 355.907C246.773 357.987 249.293 359.987 251.333 360.733C270.226 367.587 289.759 372.253 309.533 374.627C312.026 374.92 314.759 375.12 316.813 373.533C318.879 371.947 319.413 366.987 315.746 366.867Z" fill="#728694"/>
<path d="M1484.75 582.347C1473.41 576.293 1460.53 574.613 1449.01 569.013C1437.49 563.413 1426.69 551.667 1427.72 537.773C1428.83 522.933 1442.21 513.587 1454.11 506.64C1480.59 491.16 1507.05 475.693 1533.53 460.213C1495.36 464.267 1458.05 477.867 1425.16 499.693C1414.04 507.08 1400.8 515.68 1389 509.733C1385.81 508.12 1383.08 505.547 1379.83 504.107C1372.91 501.04 1364.2 504.24 1360.29 511.267C1356.39 518.293 1357.75 528.347 1363.35 533.8C1357.44 537.747 1350.15 539.053 1343.4 537.387C1353.87 548.467 1364.67 559.787 1378.09 565.813C1387.08 569.84 1396.8 571.293 1406.4 572.707C1431.61 576.413 1456.81 580.12 1484.75 582.347Z" fill="#728694"/>
<path d="M1292.36 571.813C1266.09 566.467 1239.73 560.027 1213.61 552.6C1211.95 552.893 1210.27 553.173 1208.59 553.44C1208.25 553.227 1207.93 553.027 1207.6 552.827C1203.13 550.24 1198.09 549.2 1193.36 547.32C1183.6 543.44 1175.35 536.12 1166.33 530.427C1145.21 517.08 1120.53 513.027 1096.35 509.627C1095.24 509.453 1094.15 509.307 1093.04 509.16C1096.33 508.427 1099.64 507.92 1102.96 507.64C1123.41 505.947 1144.17 512.587 1163.45 521C1185.84 530.787 1207.57 543.133 1231.19 548.387C1246.35 551.787 1262.4 552.307 1276.16 560.107C1281.79 563.307 1287.04 567.72 1292.36 571.813Z" fill="#728694"/>
<path d="M1399.57 377.426C1397.71 379.426 1395.2 380.493 1392.76 381.48C1373.03 389.466 1352.73 395.733 1332.12 400.24C1331 400.493 1329.87 400.733 1328.73 400.96C1320.6 402.653 1311.93 404.32 1305.79 410.426C1303.08 413.08 1300.88 416.573 1297.55 418.093C1293.95 419.72 1289.87 418.706 1286 419.053C1276.23 419.92 1268.57 429.933 1266.73 440.6C1264.88 451.28 1267.71 462.28 1271.68 472.226C1279.89 492.826 1294.23 511.706 1313.64 518.426C1324.59 522.213 1336.43 521.92 1347.39 525.693C1352.57 527.48 1357.72 530.653 1361.64 534.853C1366.01 539.52 1368.88 545.453 1368.63 552.146C1361.52 548.12 1354.12 544.133 1346.45 540.586C1336.52 536.013 1326.13 532.2 1315.36 530.093C1309.07 528.866 1302.53 528.2 1296.8 525.08C1295.17 524.2 1293.67 523.146 1292.2 521.986L1292.19 521.973C1289.21 519.64 1286.48 516.893 1283.6 514.36L1283.59 514.346C1282.08 513.013 1280.53 511.733 1278.89 510.6C1278.56 510.373 1278.24 510.16 1277.91 509.946C1277.89 509.946 1277.89 509.946 1277.89 509.933C1272.84 506.72 1267.11 504.8 1261.48 502.746C1254.69 500.253 1248.08 497.546 1243.09 492.026C1233.13 481 1234.49 460.213 1245.8 450.893C1249.23 448.066 1253.55 445.96 1255.29 441.64C1258.48 433.76 1250.01 425.28 1242.23 425.48C1234.43 425.666 1227.63 430.92 1220.56 434.56C1213.49 438.173 1204.25 439.88 1198.59 433.946C1208.88 420.013 1220.92 407.68 1234.28 397.413C1247.84 386.986 1262.68 378.733 1277.01 369.96C1280.09 367.906 1283.27 366.093 1286.51 364.506C1290.41 362.573 1294.44 360.96 1298.55 359.626C1332.76 362.04 1366.97 363.093 1401.03 362.84C1403.12 367.733 1403.03 373.706 1399.57 377.426Z" fill="#728694"/>
<path d="M1372.31 525.986C1359.49 520.506 1347.37 513.026 1336.41 503.84C1331.76 499.946 1327 495.12 1326.27 488.706C1325.21 479.466 1332.85 471.84 1334.63 462.733C1336.97 450.626 1328.64 437.72 1332.57 426.12C1334.6 420.146 1339.96 415.746 1345.71 415.333C1351.45 414.92 1357.28 418.52 1359.99 424.146C1363.55 431.56 1361.64 440.56 1360.59 448.88C1357.93 469.853 1361.6 491.76 1370.87 510.293C1372.27 513.093 1373.83 515.986 1373.88 519.186C1373.89 522.373 1371.68 525.866 1372.31 525.986Z" fill="#728694"/>
<path d="M1102.77 567.213C1096.21 567.92 1089.64 568.613 1083.07 569.333C1052.99 572.56 1022.31 575.746 992.801 568.493C943.081 546.173 885.067 539.453 827.787 532.933C781.227 527.613 734.681 522.333 688.121 517.013C686.254 516.8 684.374 516.586 682.507 516.373C681.307 516.346 680.134 516.333 678.947 516.333C680.921 515.946 682.894 515.56 684.867 515.16C739.854 504.533 796.067 501.666 851.681 506.68C823.094 509.666 794.494 512.653 765.907 515.64C806.814 518.346 847.814 521.066 888.187 528.773C959.747 542.453 1030.29 571.84 1102.68 565.44C1102.77 566.04 1102.8 566.64 1102.77 567.213Z" fill="#728694"/>
<path d="M1264.6 356.8C1260.97 359.386 1257.23 361.72 1253.32 363.773C1253.32 363.773 1253.31 363.773 1253.29 363.773C1223.87 379.413 1187.47 381.066 1153.85 381.453C1131.84 381.706 1109.83 381.96 1087.84 382.2C1092.25 386.96 1096.67 391.72 1101.07 396.48C1060.92 407.84 1019.36 411.48 978.134 416.12C899.628 424.96 821.454 437.48 740.428 453.64C801.708 435.92 862.988 418.213 924.268 400.506C922.774 394.906 916.374 393.36 911.121 393.133C890.868 392.226 868.588 395.813 849.988 389.506C843.814 387.426 838.054 384.253 832.921 379.48C843.574 375.413 854.254 371.36 864.908 367.306C864.948 367.293 864.974 367.293 865.014 367.28C895.868 360.546 926.774 354.213 957.801 349.866C989.414 349.04 1020.37 340.08 1051.88 337C1086.41 333.613 1120.97 337.36 1155.45 342.36C1155.47 342.36 1155.47 342.36 1155.48 342.36H1155.49C1170.03 344.466 1184.52 346.786 1199.01 348.893C1199.79 349.013 1200.59 349.133 1201.36 349.24C1222.39 352.266 1243.48 354.8 1264.6 356.8Z" fill="#728694"/>
<path d="M688.121 517.013C686.254 516.8 684.374 516.586 682.508 516.373C681.308 516.346 680.134 516.333 678.948 516.333C651.841 516.253 624.161 521.64 597.067 529.586C576.401 540.96 549.561 545.373 523.827 544.266C498.081 543.186 472.761 537.026 447.201 533.373C412.534 528.4 377.321 528 342.574 532.186C313.547 536.493 280.987 541.866 250.014 533.333C234.161 528.973 219.161 521.08 203.121 517.76C186.147 514.24 168.534 515.946 151.614 512.24C141.641 510.053 131.507 505.226 124.188 497.813C157.921 513.213 199.001 505.666 234.481 518.64C242.881 521.72 251.041 525.96 259.801 527.266C265.188 528.08 270.654 527.76 276.081 527.413C311.348 525.28 346.628 523.146 380.041 519.56C403.201 514.866 427.374 510.24 449.947 517.64C461.987 521.586 473.334 528.933 485.881 529.706C499.694 530.573 513.201 523.333 526.987 524.56C535.627 525.32 543.787 529.373 552.414 530.2C563.001 531.2 573.388 527.32 583.561 523.986C602.814 517.706 622.561 513.32 642.508 510.88C656.748 509.146 672.174 508.733 684.907 515.173C685.961 515.733 687.054 516.346 688.121 517.013Z" fill="#728694"/>
<path d="M609.774 401.453C609.921 403.373 608.628 404.72 607.001 405.627C606.094 406.133 605.108 406.493 604.174 406.72C580.148 412.947 555.308 413.867 530.654 414.733C508.868 415.533 485.028 415.587 468.028 400.467C459.041 404.013 449.134 401.533 439.588 401.587C412.628 401.72 389.401 421.893 363.508 430.173C360.108 431.253 354.774 430.373 355.361 426.52C355.681 424.44 357.721 423.387 359.494 422.68C384.694 412.52 409.894 402.36 435.121 392.2C435.668 391.973 436.228 391.76 436.774 391.533C441.054 389.813 445.414 388.32 449.854 387.053H449.868C457.388 387.827 464.908 387.493 471.868 387.12C486.721 391.12 501.788 395.12 517.068 394.733C526.748 394.493 536.321 392.493 546.001 392.373C567.734 392.093 588.934 401.32 609.694 401.013C609.748 401.16 609.761 401.307 609.774 401.453Z" fill="#728694"/>
<path d="M245.973 372.84C276.373 379.8 307.066 385.133 337.92 388.813C348.44 390.067 359.333 391.08 369.346 387.333C361.866 392.453 353.293 395.627 344.533 396.547C337.333 397.307 330.08 396.547 322.866 395.8C293.92 392.787 263.626 389.24 239.52 371.253C241.053 370.867 242.04 371.933 245.973 372.84Z" fill="#728694"/>
<path d="M227.613 400.28C266.56 394.32 304.973 414.24 344.267 415.6C316.747 415.707 289.213 414.387 261.8 411.64C251.053 410.56 239.253 408.68 227.613 400.28Z" fill="#728694"/>
<path d="M214.308 430.813C214.241 430.68 214.148 430.546 214.014 430.44C223.321 429.4 232.748 431.2 242.054 432.573C259.334 435.12 276.801 436.16 294.228 435.72C268.908 446.2 239.881 445.16 213.814 431.986C213.974 431.946 214.134 431.88 214.241 431.733C214.294 431.68 214.334 431.626 214.348 431.56L214.308 430.813Z" fill="#728694"/>
<path d="M321.56 482.626C297.693 484.64 273.813 486.653 249.946 488.666C245 489.08 240 489.506 235.093 488.733C227.12 487.493 219.826 483.253 212.706 479.053C211.253 478.2 209.613 477.12 208.213 475.933C207.226 475.093 206.346 474.226 205.76 473.346C206.28 472.986 206.666 472.453 206.92 471.746C207.266 470.72 207.16 469.746 206.72 468.88C208.293 467.946 210 467.386 211.76 467.146C215.173 466.626 218.8 467.24 222.106 468.426C227.173 470.253 231.8 473.28 236.706 475.533C263.093 487.64 293.626 476.133 321.56 482.626Z" fill="#728694"/>
<path d="M220.868 353.653C221.201 350.427 220.761 346.987 219.055 344.36C218.455 343.427 217.708 342.64 216.895 341.947C219.988 341.347 223.148 341.133 226.295 341.08C224.775 348.773 222.121 356.213 218.468 362.973C219.508 359.947 220.535 356.867 220.868 353.653Z" fill="#728694"/>
<path d="M259.974 345.307C255.454 348.653 250.934 352.013 246.414 355.373C245.574 350.293 243.161 345.573 239.721 342.08C239.841 342.107 239.987 342.133 240.107 342.16C242.947 342.787 245.721 343.76 248.587 344.32C252.107 345.013 255.721 345.08 259.294 345.267C259.534 345.28 259.747 345.293 259.974 345.307Z" fill="#728694"/>
<path d="M197.095 361.186C196.868 361.426 196.601 361.64 196.361 361.866C194.895 363.186 193.841 365.013 192.841 366.813C190.255 371.4 187.681 376 185.081 380.586C184.775 375.746 188.775 371.64 188.855 366.76C188.895 364.106 187.748 361.693 186.308 359.506C189.868 359.586 193.455 360.253 197.095 361.186Z" fill="#728694"/>
<path d="M205.293 361.213C206.373 368.493 207.359 376.4 204.133 382.853C206.279 377.653 210.253 373.427 215.026 371.24C217.293 370.2 219.813 369.56 221.586 367.68C216.519 364.453 210.826 362.44 205.293 361.213Z" fill="#728694"/>
<path d="M160.561 387.653C164.627 392.453 164.667 400.773 160.641 405.613C163.547 402.88 166.281 399.427 166.707 395.227C167.121 391.04 164.214 386.28 160.561 387.653Z" fill="#728694"/>
<path d="M182.828 386.773C184.174 390.253 187.948 392.613 187.881 396.4C187.854 397.626 187.401 398.786 186.961 399.92C185.214 404.293 183.414 408.653 181.574 412.973C185.774 411.84 189.321 408.053 190.508 403.453C190.908 401.893 191.054 400.266 191.521 398.733C192.721 394.733 195.814 391.866 198.774 389.213C196.348 385.52 191.441 385.626 187.348 386.12C185.948 386.28 184.548 386.44 182.828 386.773Z" fill="#728694"/>
<path d="M171.186 422.36C168.96 421.96 166.733 421.48 164.52 420.893C166.173 420.533 168.213 420.773 169.8 421.56C170.28 421.8 170.733 422.066 171.186 422.36Z" fill="#728694"/>
<path d="M186.04 427.813C179.573 432.427 174.586 439.507 172.146 447.573C173.253 442.293 174.373 436.813 173.306 431.52C172.786 428.947 171.573 426.427 169.906 424.533C170.56 424.853 171.213 425.187 171.866 425.507C173.8 426.467 175.76 427.44 177.866 427.8C179.586 428.08 181.32 427.933 183.053 427.867C184.053 427.84 185.04 427.813 186.04 427.813Z" fill="#728694"/>
<path d="M174.815 500.28C176.801 493.973 178.828 487.52 178.868 480.84C178.895 475.667 177.521 470.253 174.588 466.347C179.935 467.68 185.241 469.16 190.508 470.773C183.321 478.947 182.241 492.267 174.815 500.28Z" fill="#728694"/>
<path d="M548.294 440.56C527.001 448.267 505.161 454.107 483.041 457.973C478.321 458.8 473.401 459.627 469.494 462.667C494.134 466.307 519.587 463.053 542.827 453.307C545.561 452.16 548.361 450.853 550.307 448.427C552.254 446.013 553.067 442.173 548.294 440.56Z" fill="#728694"/>
<path d="M1112.85 509.413C1033.37 494.68 952.174 491.453 871.947 499.827C953.974 506.987 1036.24 510.747 1112.85 509.413Z" fill="#728694"/>
<path d="M1771.07 473.973C1776.35 487.333 1777.72 503.226 1772.03 516.373C1766.24 529.746 1754.33 538.293 1742.99 546.16C1735.64 551.253 1728.29 556.346 1720.95 561.44C1717.39 563.906 1713.64 566.613 1711.96 570.88C1710.39 574.88 1710.96 579.453 1711.55 583.773C1712.33 589.52 1713.12 595.266 1713.85 601.026C1714.72 607.746 1715.52 614.48 1716.19 621.24C1713.88 620.866 1711.56 620.506 1709.25 620.146C1706.84 613.186 1704.17 606.24 1701.12 599.64C1692.85 581.773 1681.71 566.4 1664.99 559.973C1689.92 554.293 1713.71 542.426 1734.07 525.48C1743.41 517.693 1752.91 504.8 1747.79 493.133C1745.73 488.466 1741.71 485.293 1737.73 482.546C1710.95 464.04 1678.6 455.586 1647.16 458.893C1699.61 441.746 1748.39 411 1798.12 364.12C1785.97 392.333 1768.81 417.88 1747.88 438.853C1757.01 449.346 1765.8 460.613 1771.07 473.973Z" fill="#728694"/>
<path d="M1861.64 290.506C1792.33 309.8 1722.08 332.52 1663.95 378.546C1636.87 399.986 1610.65 427.226 1577.56 431.08C1571.27 431.813 1564.75 431.626 1558.81 429.186C1550.6 425.826 1544.27 418.546 1538.24 411.506C1533 405.386 1527.76 399.266 1522.52 393.146C1516.25 385.826 1509.51 376.546 1511.87 366.813C1513.44 360.346 1518.69 355.866 1523.92 352.48C1538.56 342.986 1555.23 338.186 1571.71 333.813C1665.19 308.973 1760.85 294.173 1861.64 290.506Z" fill="#728694"/>
<path d="M1865.2 646.4C1864.08 646.853 1863.04 647.28 1862.09 647.653L1860.65 647.213C1812.67 637.533 1764.51 628.866 1716.21 621.24C1713.91 620.866 1711.59 620.506 1709.28 620.146C1650.47 610.96 1591.44 603.28 1532.31 597.12C1588.13 589.973 1644.93 593.68 1701.15 599.64C1705.4 600.08 1709.64 600.56 1713.88 601.026C1714.44 601.08 1715 601.133 1715.56 601.213C1732.36 603.106 1749.17 605.12 1765.79 608.493C1800.39 615.466 1834.04 628.32 1865.2 646.4Z" fill="#728694"/>
<path d="M1436.47 575.813C1428.01 572.12 1420.23 566.56 1413.68 559.573C1409.83 555.453 1406.28 550.586 1405.21 544.773C1404.15 538.973 1405.67 532.96 1405.27 527.053C1405.2 526.106 1405.07 525.093 1404.49 524.386C1404.04 523.826 1403.4 523.546 1402.77 523.293C1397.11 521.053 1390.57 520.906 1385.27 524.053C1379.96 527.2 1376.29 533.986 1377.32 540.56C1378.36 547.24 1383.6 552.066 1388.76 555.706C1403.64 566.186 1420.73 572.093 1436.47 575.813Z" fill="#728694"/>
<path d="M1885.11 283.173C1874.67 285.853 1864.25 288.413 1853.87 290.813H1853.85C1853.84 290.813 1853.84 290.813 1853.83 290.813C1853.81 290.813 1853.81 290.813 1853.8 290.813C1790.17 305.653 1727.49 315.8 1664.6 323.72C1636.76 331.027 1603.48 340.906 1571.36 354.2C1557.39 359.986 1542.92 367.026 1534.16 380.413C1530.95 385.346 1528.27 391.293 1524.53 395.533C1522.6 397.733 1520.39 399.466 1517.65 400.36C1511.05 402.533 1504.23 398.733 1497.55 396.893C1483.52 393.053 1468.93 397.947 1454.68 400.6C1441.31 403.067 1427.63 403.52 1414.15 401.946C1407.23 401.146 1400.19 399.827 1393.43 401.64C1386.68 403.467 1380.24 409.48 1379.41 420.706C1373.39 420.893 1368.69 426.6 1365.89 432.493C1364.24 435.986 1362.93 439.733 1361.32 443.24C1360.2 445.666 1358.95 447.986 1357.29 450C1349.07 441.293 1340.71 432.347 1334.96 421.56C1334.13 420.013 1333.36 418.44 1332.65 416.813C1331.11 413.253 1329.87 409.333 1330.35 405.427C1330.59 403.56 1331.2 401.813 1332.12 400.24C1333.8 397.266 1336.51 394.866 1339.44 393.373C1343.93 391.106 1348.95 390.573 1353.85 390.066C1341.99 381.68 1326.44 387.507 1313.45 393.52C1301.44 399.093 1289.37 404.666 1278.17 412.026C1272.83 415.52 1267.6 419.453 1261.63 421.32C1255.65 423.186 1248.6 422.56 1244.16 417.773C1237.47 410.573 1239.97 397.227 1246.91 390.307C1253.84 383.387 1263.57 381.306 1272.81 379.813C1285.44 377.746 1298.15 376.306 1310.89 375.44C1319.4 374.866 1327.97 374.56 1336.43 375.813C1348.19 377.573 1361.45 381.947 1370.96 374.053C1368.21 369.72 1362.8 368.987 1358.05 368.64C1334.23 366.867 1310.36 365.093 1286.49 364.48C1284.27 364.413 1282.03 364.373 1279.8 364.333C1270.99 364.186 1262.13 364.213 1253.33 363.76C1253.33 363.76 1253.32 363.76 1253.31 363.76C1244.8 363.347 1236.31 362.506 1227.95 360.666C1217.85 358.466 1207.83 354.667 1199.01 348.88C1199.79 349 1200.59 349.12 1201.36 349.227C1222.4 352.253 1243.49 354.786 1264.61 356.786C1275.92 357.866 1287.23 358.813 1298.55 359.6C1332.76 362.013 1366.97 363.066 1401.03 362.813C1406.25 362.773 1411.47 362.707 1416.69 362.6C1465.87 352.107 1515.11 341.586 1563.32 326.653C1596.59 316.346 1629.4 303.933 1663.4 297.347C1680.32 294.08 1697.43 292.253 1714.53 290.613C1767.37 285.546 1820.36 282.186 1873.04 280.146C1877.07 281.146 1881.08 282.173 1885.11 283.173Z" fill="#728694"/>
<path d="M1302.77 524.12C1292.28 522.4 1281.95 519.507 1272 515.467C1270.44 514.84 1268.84 514.147 1267.6 512.92C1264.92 510.28 1264.39 505.68 1261.75 502.987C1258.77 499.933 1254.07 500.187 1250.6 497.867C1246.56 495.173 1244.99 489.627 1244.01 484.52C1242.83 478.28 1242.04 471.933 1241.68 465.573C1249.04 480.52 1259.99 492.907 1271.53 504.133C1279.35 511.733 1288.45 519.28 1302.77 524.12Z" fill="#728694"/>
<path d="M993.601 351.28C1009.32 352.653 1024.89 356.04 1039.93 361.32C1020.93 364.453 1001.87 367.36 982.708 368.8C961.441 370.386 940.001 370.133 918.908 373.653C906.854 375.653 895.001 378.893 883.121 381.866C872.108 384.626 861.054 387.186 849.988 389.52C787.708 402.72 724.588 409.426 663.481 410.053C644.654 408.586 625.828 407.12 607.001 405.64C580.441 403.56 553.881 401.493 527.321 399.413C496.588 397 465.854 394.613 435.134 392.213C428.654 391.706 422.188 391.2 415.708 390.693C386.174 388.386 355.921 385.88 328.961 372.36C345.988 375.306 363.028 378.28 380.054 381.226C399.414 384.6 418.988 387.96 438.521 386.226C439.721 386.12 440.894 385.986 442.094 385.853C443.721 386.186 445.334 386.48 446.974 386.72C447.948 386.853 448.908 386.973 449.881 387.066H449.894C457.414 387.84 464.934 387.506 471.894 387.133C486.748 391.133 501.814 395.133 517.094 394.746C526.774 394.506 536.348 392.506 546.028 392.386C567.761 392.106 588.961 401.333 609.721 401.026C610.988 401.013 612.254 400.96 613.521 400.88C698.134 407.106 781.374 385.626 864.908 367.32C864.948 367.306 864.974 367.306 865.014 367.293C895.868 360.56 926.774 354.226 957.801 349.88C989.414 349.053 1020.37 340.093 1051.88 337.013C1086.41 333.626 1120.97 337.373 1155.45 342.373C1101.45 344 1047.48 346.973 993.601 351.28Z" fill="#728694"/>
<path d="M204.493 363.053C204.76 363.16 205.04 363.28 205.306 363.373C209.4 364.92 213.813 365.72 217.973 366.373C218.853 366.493 219.72 366.64 220.6 366.773C226.226 367.626 232.04 368.506 237.306 370.786C238.066 371.106 238.813 371.453 239.573 371.826C240.08 372.066 240.573 372.32 241.08 372.573C242.626 373.333 244.226 374.133 245.866 374.76C248.986 375.96 252.266 376.52 255.36 377C255.36 377 249.293 374.586 246.266 373.453C244.666 372.84 243.106 372.066 241.586 371.293C241.08 371.04 240.586 370.786 240.08 370.546C239.306 370.173 238.533 369.826 237.76 369.48C232.373 367.16 226.466 366.266 220.773 365.4C219.893 365.266 219.026 365.12 218.146 364.986C214.053 364.36 209.693 363.573 205.706 362.066C205.106 361.826 204.506 361.573 203.906 361.333L203.68 361.96L204.493 363.053Z" fill="#728694"/>
<path d="M240.72 400.773C238.493 401.507 236.12 401.867 233.547 401.867C231.84 401.867 230.04 401.72 228.147 401.373C223.88 400.653 219.587 399.2 215.44 397.8C213.987 397.293 212.533 396.813 211.093 396.347C206.32 394.827 201.413 393.64 195.987 392.373L195.253 392.2C191.44 391.293 187.493 390.36 183.68 389.293C176.973 387.427 171.707 385.413 167.16 382.973L167.44 382.347C168.493 382.6 169.573 382.947 170.707 383.44C170.56 383.307 170.413 383.147 170.267 383C174.133 384.84 178.573 386.44 183.987 387.96C187.8 389.013 191.733 389.933 195.52 390.84L196.24 391.013C201.707 392.293 206.627 393.48 211.453 395.013C212.893 395.467 214.36 395.96 215.813 396.467C219.92 397.853 224.187 399.293 228.36 400.013C232.893 400.8 240.72 400.773 240.72 400.773Z" fill="#728694"/>
<path d="M214.307 430.813V430.826C218.027 431.133 221.773 431 225.467 430.413C226.013 431.453 225.56 432.893 224.693 433.626C223.827 434.36 222.667 434.546 221.573 434.52C219.133 434.466 216.72 433.453 214.347 431.573L214.307 430.813Z" fill="#728694"/>
<path d="M216.733 470.4C215.92 472.493 214.813 474.427 213.48 476.147C213.16 476.547 212.826 476.96 212.36 477.12C211.773 477.347 211.12 477.107 210.52 476.867C209.746 476.56 208.986 476.253 208.213 475.947C206.88 475.427 205.546 474.907 204.213 474.373C204.026 474.307 203.826 474.227 203.64 474.133C204.44 474.04 205.173 473.8 205.76 473.36C206.28 473 206.666 472.467 206.92 471.76C207.266 470.733 207.16 469.76 206.72 468.893C206.106 467.64 204.853 466.587 203.453 465.787C206.253 465.92 209.053 466.387 211.76 467.147C213.186 467.533 214.586 468.013 215.96 468.56C216.333 468.707 216.76 468.907 216.893 469.333C217 469.693 216.866 470.053 216.733 470.4Z" fill="#728694"/>
<path d="M2000 281.453V654.933L1956.69 656.693C1933.65 654.613 1910.56 653.36 1887.44 652.946C1884.91 652.893 1882.37 652.853 1879.85 652.84H1879.84C1878.39 652.826 1876.91 652.813 1875.45 652.8C1874.69 652.786 1873.96 652.773 1873.21 652.786C1870.32 652.76 1867.43 652.76 1864.53 652.786C1862.43 652.786 1860.29 652.813 1858.19 652.84C1858.17 652.84 1858.17 652.84 1858.17 652.84C1856.77 652.853 1855.4 652.866 1854 652.893C1852.28 652.92 1850.57 652.946 1848.84 653C1848.84 653 1848.84 653 1848.83 653C1846.17 653.053 1843.52 653.106 1840.87 653.186C1841.59 652.746 1842.29 652.28 1842.96 651.786H1842.97C1843.44 651.453 1843.91 651.12 1844.36 650.773C1844.47 650.693 1844.55 650.626 1844.65 650.533C1845.04 650.24 1845.41 649.933 1845.77 649.613C1846.05 649.373 1846.33 649.133 1846.6 648.893C1846.89 648.64 1847.16 648.373 1847.45 648.12C1847.84 647.746 1848.23 647.373 1848.6 646.986C1848.81 646.773 1849.03 646.546 1849.23 646.32C1849.59 645.946 1849.93 645.546 1850.28 645.146C1850.45 644.946 1850.63 644.746 1850.81 644.546C1851.12 644.213 1851.4 643.853 1851.68 643.493C1852.21 642.84 1852.71 642.16 1853.2 641.48C1853.51 641.066 1853.79 640.653 1854.07 640.24C1854.35 639.84 1854.61 639.44 1854.85 639.026C1855.12 638.626 1855.37 638.226 1855.61 637.813C1855.83 637.48 1856.03 637.12 1856.24 636.773C1857.01 635.44 1857.73 634.08 1858.41 632.693C1858.75 632.04 1859.05 631.36 1859.37 630.68C1859.68 630.013 1859.97 629.32 1860.27 628.626C1860.43 628.266 1860.59 627.88 1860.73 627.506C1861.52 625.573 1862.25 623.586 1862.92 621.56C1863.07 621.12 1863.23 620.68 1863.36 620.226C1863.72 619.093 1864.08 617.933 1864.4 616.786C1864.6 616.133 1864.79 615.453 1864.96 614.786C1865.29 613.546 1865.63 612.293 1865.93 611.053C1866.16 610.133 1866.39 609.213 1866.59 608.293C1867.61 603.8 1868.47 599.306 1869.25 594.946C1870.68 586.853 1872.11 578.733 1873.51 570.613C1873.85 568.573 1874.21 566.546 1874.55 564.52C1874.75 563.333 1874.95 562.16 1875.15 560.973C1875.48 559.08 1875.79 557.186 1876.11 555.293C1876.61 552.266 1877.11 549.24 1877.6 546.186C1878.04 543.533 1878.45 540.88 1878.88 538.226C1879.19 536.333 1879.48 534.426 1879.77 532.533C1880.19 529.84 1880.6 527.146 1881 524.453C1881.16 523.346 1881.33 522.253 1881.49 521.146C1882.13 516.853 1882.75 512.533 1883.35 508.24C1883.93 503.946 1884.52 499.64 1885.05 495.333C1885.24 493.906 1885.41 492.466 1885.6 491.04C1885.91 488.613 1886.19 486.186 1886.47 483.76C1886.85 480.413 1887.23 477.066 1887.57 473.706C1887.84 471.28 1888.08 468.866 1888.32 466.44C1888.48 464.746 1888.65 463.04 1888.8 461.333C1888.89 460.333 1888.99 459.306 1889.08 458.306C1889.16 457.453 1889.21 456.6 1889.29 455.746C1889.39 454.6 1889.48 453.466 1889.57 452.333C1889.67 451.306 1889.75 450.253 1889.83 449.213C1889.89 448.426 1889.95 447.64 1890 446.853C1890.28 443.053 1890.53 439.266 1890.75 435.466C1890.85 433.626 1890.95 431.813 1891.04 429.986C1891.19 427.04 1891.32 424.106 1891.41 421.146C1891.48 419.826 1891.52 418.493 1891.55 417.173C1891.6 415.6 1891.64 414.013 1891.67 412.453V412.386C1891.71 410.96 1891.73 409.56 1891.75 408.146C1891.79 406.053 1891.81 403.946 1891.81 401.84C1891.85 396.306 1891.8 390.76 1891.68 385.24C1891.51 377.786 1891.17 370.32 1890.68 362.853C1890.56 361 1890.43 359.173 1890.28 357.32C1890.17 356.08 1890.08 354.826 1889.96 353.586C1889.87 352.573 1889.79 351.546 1889.68 350.533C1889.35 347.133 1888.96 343.72 1888.49 340.32C1888.35 339.186 1888.17 338.053 1888.01 336.92C1887.87 335.92 1887.69 334.906 1887.53 333.906C1887.35 332.773 1887.16 331.626 1886.96 330.506C1886.95 330.4 1886.92 330.293 1886.89 330.173C1886.88 330.106 1886.87 330.053 1886.85 329.973C1886.72 329.186 1886.56 328.4 1886.41 327.626C1886.27 326.826 1886.09 326.026 1885.92 325.24C1885.81 324.733 1885.71 324.253 1885.59 323.746C1885.41 322.92 1885.23 322.093 1885.03 321.253C1884.84 320.426 1884.64 319.6 1884.43 318.773C1883.4 314.666 1882.2 310.626 1880.8 306.693C1880.6 306.12 1880.39 305.52 1880.16 304.946C1879.97 304.413 1879.77 303.893 1879.56 303.36C1879.33 302.76 1879.09 302.146 1878.84 301.546C1877.65 298.64 1876.35 295.813 1874.91 293.066C1874.73 292.72 1874.55 292.36 1874.36 292.013C1874.16 291.64 1873.96 291.266 1873.75 290.906C1873.57 290.586 1873.4 290.266 1873.2 289.946C1872.57 288.84 1871.92 287.76 1871.24 286.693C1870.39 285.333 1869.48 284 1868.53 282.693C1867.99 281.92 1867.43 281.173 1866.85 280.426C1866.76 280.306 1866.67 280.173 1866.56 280.053C1866.97 280.04 1867.4 280.04 1867.81 280.026C1883.6 279.706 1899.43 279.586 1915.31 279.64C1943.47 279.72 1971.71 280.386 2000 281.453Z" fill="#728694"/>
<path d="M2000 281.453V393.2C1998.52 392.533 1997.03 391.88 1995.52 391.266C1984.04 386.6 1971.96 384.306 1959.75 383.293C1953.15 382.746 1946.48 382.56 1939.87 382.6C1938.99 382.6 1938.12 382.6 1937.24 382.613C1936.72 382.613 1936.21 382.626 1935.69 382.626C1930.75 382.68 1925.56 382.653 1920.51 382.133C1910.04 381.066 1900.12 377.893 1893.93 368.946C1892.63 367.053 1891.56 364.973 1890.67 362.8C1890.55 360.946 1890.41 359.12 1890.27 357.266C1890.16 356.026 1890.07 354.773 1889.95 353.533C1889.85 352.52 1889.77 351.493 1889.67 350.48C1889.33 347.08 1888.95 343.666 1888.48 340.266C1888.33 339.133 1888.16 338 1888 336.866C1887.85 335.866 1887.68 334.853 1887.52 333.853C1887.33 332.72 1887.15 331.573 1886.95 330.453C1886.93 330.346 1886.91 330.24 1886.88 330.12C1886.87 330.053 1886.85 330 1886.84 329.92C1886.71 329.133 1886.55 328.346 1886.4 327.573C1886.25 326.773 1886.08 325.973 1885.91 325.186C1885.8 324.68 1885.69 324.2 1885.57 323.693C1885.4 322.866 1885.21 322.04 1885.01 321.2C1884.83 320.373 1884.63 319.546 1884.41 318.72C1883.39 314.613 1882.19 310.573 1880.79 306.64C1880.59 306.066 1880.37 305.466 1880.15 304.893C1879.96 304.36 1879.76 303.84 1879.55 303.306C1879.32 302.706 1879.08 302.093 1878.83 301.493C1877.64 298.586 1876.33 295.76 1874.89 293.013C1874.72 292.666 1874.53 292.306 1874.35 291.96C1874.15 291.586 1873.95 291.213 1873.73 290.853C1873.56 290.533 1873.39 290.213 1873.19 289.893C1872.56 288.786 1871.91 287.706 1871.23 286.64C1870.37 285.28 1869.47 283.946 1868.52 282.64C1868.32 281.866 1868.11 281.106 1867.91 280.333V280.32C1867.87 280.2 1867.84 280.093 1867.8 279.973C1883.59 279.653 1899.41 279.533 1915.29 279.586C1943.47 279.72 1971.71 280.386 2000 281.453Z" fill="#728694"/>
<path d="M2000 464.12V508.333C1991.11 511.586 1981.71 512.826 1974.64 506.72C1970.69 503.306 1968.28 498.16 1966.04 492.946C1965.15 490.853 1964.28 488.76 1963.32 486.746V486.72C1960.93 481.546 1958.11 476.973 1953.33 474.786C1956.71 473.106 1960.15 471.733 1963.65 470.6C1975.33 466.84 1987.71 465.666 2000 464.12Z" fill="#728694"/>
<path d="M2000 608.373V654.946L1956.69 656.706C1933.65 654.626 1910.56 653.373 1887.44 652.96C1884.91 652.906 1882.37 652.866 1879.85 652.853H1879.84C1878.39 652.84 1876.91 652.826 1875.45 652.813C1874.69 652.8 1873.96 652.786 1873.21 652.8C1870.32 652.773 1867.43 652.773 1864.53 652.8C1862.43 652.8 1860.29 652.826 1858.19 652.853C1858.17 652.853 1858.17 652.853 1858.17 652.853C1856.77 652.866 1855.4 652.88 1854 652.906C1853.67 652.08 1853.35 651.253 1853.01 650.413C1852.36 648.706 1851.72 647.013 1851.11 645.32C1851 645.066 1850.91 644.8 1850.81 644.546C1850.71 644.253 1850.6 643.973 1850.48 643.68C1850.88 643.613 1851.27 643.56 1851.68 643.493C1853.87 643.16 1856.05 642.826 1858.24 642.506H1858.25C1866.27 641.293 1874.27 640.066 1882.28 638.853C1882.31 638.853 1882.33 638.84 1882.36 638.84C1883.92 638.6 1885.48 638.373 1887.05 638.133C1887.84 638.026 1888.64 637.893 1889.43 637.786C1891.57 637.453 1893.73 637.12 1895.89 636.773C1922.53 632.626 1949.15 627.826 1974.73 618.773C1983.33 615.706 1991.75 612.213 2000 608.373Z" fill="#728694"/>
<path d="M1932.64 452.693C1928 510.693 1921.36 569.36 1901.36 623.226C1899.68 627.773 1897.87 632.333 1895.89 636.76C1893.4 642.373 1890.64 647.826 1887.44 652.96C1876.29 652.733 1865.15 652.72 1854 652.893C1849.63 652.96 1845.25 653.066 1840.88 653.186C1844.71 650.853 1847.99 647.92 1850.83 644.56C1850.72 644.266 1850.61 643.973 1850.49 643.68C1850.89 643.626 1851.28 643.56 1851.69 643.493C1862 630.6 1866.29 611.826 1869.28 594.933C1882.79 518.36 1895.87 440.546 1890.68 362.826C1890.56 360.973 1890.43 359.133 1890.28 357.293C1888.2 330.866 1883.41 303.28 1868.56 282.68C1867.93 281.786 1867.27 280.906 1866.59 280.053C1867 280.04 1867.43 280.04 1867.84 280.026C1883.63 279.706 1899.45 279.586 1915.33 279.64C1926.09 302.92 1931.91 329.013 1934.29 355.133C1935.13 364.293 1935.57 373.48 1935.72 382.666C1936.07 405.973 1934.51 429.4 1932.64 452.693Z" fill="#728694"/>
<path d="M1951.08 498.067C1950.88 514.72 1950.05 531.533 1945.8 547.64C1937.41 579.507 1916.4 606.307 1895.89 632.107C1888.84 640.987 1865.37 650.227 1852.63 654.933C1851.51 655.347 1850.47 655.72 1849.52 656.067L1848.08 655.667C1800.09 646.933 1751.93 639.093 1703.64 632.213C1701.33 631.88 1699.01 631.547 1696.71 631.227C1637.89 622.933 1578.87 615.987 1519.73 610.44C1519.72 610.427 1519.72 610.427 1519.71 610.44C1494.24 608.04 1468.75 605.907 1443.23 604.013C1391.07 603.68 1335.61 597.867 1279.8 587.587C1253.53 582.76 1227.17 576.933 1201.05 570.24C1199.39 570.507 1197.71 570.76 1196.03 571C1161.19 576.227 1125.75 579.947 1090.21 583.44C1083.65 584.08 1077.08 584.707 1070.51 585.347C1040.43 588.267 1009.75 591.147 980.239 584.587C930.519 564.427 872.506 558.36 815.226 552.467C768.666 547.667 722.119 542.893 675.559 538.08C673.693 537.893 671.813 537.693 669.946 537.507C668.746 537.48 667.573 537.467 666.386 537.467C639.279 537.387 611.599 542.253 584.506 549.44C563.839 559.707 536.999 563.693 511.266 562.707C485.519 561.72 460.199 556.173 434.639 552.867C399.973 548.373 364.759 548.013 330.013 551.8C300.986 555.68 268.426 560.533 237.453 552.827C221.599 548.893 206.599 541.76 190.559 538.76C173.586 535.573 155.973 537.12 139.053 533.773C129.079 531.8 118.946 527.44 111.626 520.747C106.493 516.053 102.759 510.24 101.439 503.293C100.999 496.253 106.826 490.04 113.506 487.747C120.173 485.453 127.453 486.24 134.453 487.24C143.719 488.573 152.919 490.28 162.039 492.347C167.386 493.56 172.693 494.88 177.959 496.347C180.786 497.12 183.599 497.947 186.413 498.787C187.853 499.227 189.599 499.547 191.106 499.387C191.906 499.293 192.639 499.08 193.226 498.68C193.746 498.347 194.133 497.88 194.386 497.24C194.733 496.307 194.626 495.427 194.186 494.653C193.573 493.52 192.319 492.56 190.919 491.853C190.133 491.453 189.293 491.133 188.519 490.893C183.879 489.493 179.226 488.12 175.333 486.88C165.786 485.093 156.119 484.027 146.426 483.707C143.586 483.613 140.746 483.6 137.946 483.147C135.253 482.707 132.626 481.88 130.053 481C126.319 479.733 122.639 478.347 118.986 476.84C114.359 474.933 109.306 472.253 108.013 467.427C107.533 465.653 107.653 463.787 107.906 461.96C108.293 459.28 109.026 456.6 110.413 454.28C114.106 448.053 121.919 445.267 129.133 445.573C136.346 445.893 143.186 448.76 149.479 451.067C152.119 452.253 154.746 453.427 157.373 454.613H157.386C158.039 454.907 158.693 455.2 159.346 455.493C161.279 456.36 163.239 457.24 165.346 457.573C167.066 457.827 168.799 457.693 170.533 457.64C171.519 457.6 172.519 457.573 173.506 457.573C173.506 457.573 173.506 457.573 173.519 457.573C179.773 457.573 186.026 458.36 192.079 459.907C194.999 460.653 197.919 461.56 200.919 461.373C201.039 461.36 201.186 461.347 201.306 461.32C201.466 461.28 201.626 461.213 201.733 461.093C201.786 461.04 201.826 460.987 201.839 460.947C201.973 460.733 201.946 460.507 201.786 460.28V460.267C201.719 460.147 201.626 460.027 201.493 459.933C201.213 459.667 200.826 459.453 200.479 459.347C195.693 457.973 190.826 456.88 185.906 456.08C177.199 454.667 168.359 454.187 159.653 452.813C159.319 452.76 158.999 452.707 158.666 452.653C158.666 452.653 158.666 452.653 158.653 452.653C156.426 452.293 154.199 451.867 151.986 451.333C145.906 449.893 140.013 447.76 134.746 444.427C133.439 443.613 132.159 442.693 131.199 441.467C129.839 439.733 129.279 437.52 128.866 435.347C128.506 433.44 128.213 431.493 128.426 429.547C128.919 424.787 132.373 420.667 136.613 418.467C140.866 416.253 145.799 415.733 150.573 415.973C151.986 416.053 153.413 416.187 154.893 416.52C155.946 416.747 157.026 417.067 158.159 417.507C158.013 417.387 157.866 417.24 157.719 417.107C154.746 414.147 153.626 409.427 155.053 405.48C156.933 400.227 162.559 397.173 168.066 396.253C169.959 395.933 171.866 395.827 173.773 395.88C177.346 395.947 180.919 396.547 184.559 397.387C187.333 398.04 190.133 398.813 192.959 399.613C192.586 399.507 192.239 399.307 191.973 399.067C191.639 398.8 191.386 398.467 191.173 398.08V398.067C190.506 396.853 190.373 395.133 190.466 393.667C190.639 391.12 191.079 388.493 192.453 386.32C194.559 382.973 198.506 381.293 202.346 380.4C203.026 380.253 203.706 380.107 204.386 380C207.479 379.453 210.639 379.267 213.786 379.227C214.279 379.213 214.773 379.213 215.279 379.213C219.266 379.2 223.279 379.36 227.199 380.12H227.213C227.333 380.147 227.479 380.173 227.599 380.2C230.439 380.76 233.213 381.64 236.079 382.147C239.599 382.773 243.213 382.84 246.786 383C247.013 383.013 247.226 383.027 247.453 383.04C258.826 383.6 270.146 385.28 280.679 388.267C328.159 389.493 373.626 406.2 419.759 417.48C423.013 418.267 426.279 419.04 429.573 419.653C431.199 419.96 432.813 420.213 434.453 420.427C435.426 420.547 436.386 420.653 437.359 420.747H437.373C444.893 421.453 452.413 421.147 459.373 420.813C474.226 424.427 489.293 428.04 504.573 427.693C514.253 427.48 523.826 425.667 533.506 425.56C555.239 425.307 576.439 433.64 597.199 433.36C598.466 433.347 599.733 433.293 600.999 433.227C685.613 438.84 768.853 419.453 852.386 402.92C852.426 402.907 852.453 402.907 852.493 402.893C883.346 396.813 914.253 391.093 945.279 387.173C976.893 386.427 1007.85 378.333 1039.36 375.56C1073.89 372.507 1108.45 375.893 1142.93 380.4C1142.95 380.4 1142.95 380.4 1142.96 380.4H1142.97C1157.51 382.293 1172 384.4 1186.49 386.293C1187.27 386.4 1188.07 386.507 1188.84 386.613C1209.88 389.347 1230.97 391.627 1252.09 393.44C1263.4 394.427 1274.71 395.28 1286.03 395.973C1320.24 398.147 1354.45 399.107 1388.51 398.88C1393.73 398.84 1398.95 398.773 1404.17 398.693C1453.35 389.213 1502.59 379.707 1550.8 366.227C1584.07 356.92 1616.88 345.707 1650.88 339.76C1667.8 336.8 1684.91 335.16 1702.01 333.68C1754.85 329.107 1807.84 326.08 1860.52 324.227C1864.56 325.133 1868.56 326.053 1872.6 326.96H1872.61C1881.81 329.04 1891.03 331.107 1900.23 333.187C1903.93 334.027 1907.69 334.88 1911.05 336.653C1915.72 339.107 1919.31 343.173 1922.45 347.4C1941.99 373.68 1947.19 407.76 1949.48 440.427C1950.76 459.573 1951.32 478.813 1951.08 498.067Z" fill="#FDD5C8"/>
<path d="M1166.81 457.707C1164.35 449.067 1155.75 443.307 1146.93 441.56C1138.12 439.813 1129.03 441.333 1120.17 442.853C1042.73 456.147 965.305 469.427 887.865 482.72C964.345 496.773 1042.77 468.453 1120.28 474.773C1129.88 475.56 1139.75 476.853 1149 474.187C1158.25 471.52 1168.43 463.36 1166.81 457.707Z" fill="#FEE4DB"/>
<path d="M1503.51 462.107C1475.93 470.734 1449.64 483.387 1425.71 499.56C1418.04 504.747 1410.08 510.48 1400.84 511.174C1391.6 511.867 1381.13 504.894 1382.04 495.667C1382.72 488.72 1389.13 483.947 1395.03 480.2C1401.88 475.84 1408.87 471.574 1416.47 468.707C1424.2 465.787 1432.4 464.347 1440.53 462.934C1454.04 460.574 1467.55 458.227 1481.05 455.867C1485.07 455.174 1489.36 454.507 1493.07 456.2C1496.77 457.907 1499.17 462.987 1503.51 462.107Z" fill="#FEE4DB"/>
<path d="M1655.76 513.013C1601.37 523.4 1547.36 535.693 1493.84 549.88C1488.76 551.227 1482.96 553.213 1481.17 558.173C1478.15 566.56 1489.07 573.067 1497.91 574.227C1534.09 578.96 1568.92 560.173 1605.09 555.373C1626.07 552.587 1647.41 554.547 1668.44 552.267C1679.43 551.08 1693.16 545.12 1691.96 534.133C1691.33 528.373 1686.49 524.027 1681.56 520.987C1669.96 513.827 1655.93 510.72 1655.76 513.013Z" fill="#FEE4DB"/>
<path d="M1311.89 566.187C1283.03 556.227 1255.17 543.374 1228.85 527.88C1211.04 517.387 1192.43 505.267 1171.77 506.147C1170.49 506.2 1169.13 506.334 1168.12 507.12C1165.08 509.44 1167.77 514.267 1170.73 516.68C1182.77 526.507 1198.2 530.88 1212.75 536.334C1247.05 549.2 1279.75 569.56 1316.36 571.213C1316.16 568.453 1313.89 566 1311.89 566.187Z" fill="#FEE4DB"/>
<path d="M472.106 457.707C451.28 454.04 430.56 463.227 411.4 472.174C397.6 478.614 383.813 485.067 370.013 491.507C365.56 493.587 360.64 496.187 359.213 500.894C371.533 505.747 385.24 500.067 397.24 494.48C408.333 489.32 419.413 484.16 430.506 478.987C435.613 476.6 440.773 474.213 446.253 472.907C455.24 470.76 464.84 471.6 473.546 468.52C476.226 467.574 479.04 465.947 479.733 463.187C480.48 460.174 478.186 457.067 475.333 455.827C472.493 454.587 469.253 454.734 472.106 457.707Z" fill="#FEE4DB"/>
<path d="M285.612 478.067C252.825 481.107 219.385 477.04 188.279 466.24C185.972 465.44 182.959 464.787 181.479 466.72C180.345 468.2 180.932 470.467 182.252 471.76C183.585 473.067 185.439 473.653 187.212 474.187C213.172 482.04 240.119 489.987 267.012 486.387C273.305 485.56 279.905 483.867 285.612 478.067Z" fill="#FEE4DB"/>
<path d="M203.133 514.64C197.626 512.72 192.12 510.8 186.613 508.88C184.906 508.293 183.12 507.68 181.346 507.987C176.92 508.747 175.36 514.227 174.92 518.693C174.786 520 174.706 521.413 175.4 522.52C175.973 523.427 176.96 523.96 177.92 524.427C185.533 528.16 193.853 530.44 202.293 531.093C204.066 531.227 206.066 531.213 207.32 529.96C208.626 528.667 208.586 526.547 208.213 524.747C207.2 519.92 204.506 515.107 203.133 514.64Z" fill="#FEE4DB"/>
<path d="M111.506 495.133C119.12 495.707 126.733 496.267 134.346 496.84C136.666 497.013 139.333 497.4 140.52 499.387C141.04 500.253 141.173 501.28 141.28 502.28C141.493 504.24 141.6 506.293 140.84 508.093C140.333 509.28 139.466 510.293 138.493 511.16C134.906 514.333 129.973 515.573 125.186 515.8C120.4 516.027 115.626 515.36 110.84 515.253C110.106 508.587 110.266 501.827 111.506 495.133Z" fill="#FEE4DB"/>
<path d="M132.092 457.36C132.132 460.134 131.559 462.974 130.052 465.294C128.545 467.614 125.972 469.334 123.212 469.44C121.639 469.494 120.092 469.04 118.599 468.56C116.772 467.974 114.799 467.174 113.945 465.467C113.279 464.147 113.439 462.587 113.665 461.134C114.039 458.707 114.559 456.32 115.225 453.96C115.545 452.8 115.972 451.547 116.985 450.894C117.759 450.4 118.719 450.334 119.625 450.294C122.879 450.174 126.359 450.334 129.052 452.174C131.732 454.014 133.092 458.12 132.092 457.36Z" fill="#FEE4DB"/>
<path d="M216.013 440.947C211.76 438.28 207.187 436.133 202.427 434.547C198.427 433.213 193.987 432.307 190.067 433.88C186.16 435.453 183.4 440.387 185.48 444.053C187.133 446.947 190.813 447.813 194.08 448.413C203.133 450.067 212.293 451.72 221.48 451.16C222.933 451.067 224.64 450.76 225.253 449.44C225.813 448.24 225.16 446.84 224.373 445.773C221.867 442.333 217.867 440.027 216.013 440.947Z" fill="#FEE4DB"/>
<path d="M238.546 419.827C234.36 417.8 230.173 415.774 225.973 413.747C222.306 411.974 218.533 410.16 214.48 409.747C212.306 409.52 210.026 409.734 208.133 410.814C206.24 411.88 204.8 413.947 204.893 416.12C204.986 418.2 206.426 420.027 208.2 421.107C209.973 422.187 212.04 422.654 214.093 423.027C221.373 424.374 228.813 424.894 236.2 424.587C237.066 424.547 238 424.48 238.666 423.907C239.546 423.16 239.6 421.747 239.12 420.694C238.613 419.667 237.693 418.88 238.546 419.827Z" fill="#FEE4DB"/>
<path d="M172.479 400.48C173.479 402.56 173.492 405.08 172.506 407.16C171.519 409.24 169.559 410.827 167.319 411.373C165.999 411.693 164.626 411.653 163.279 411.533C161.572 411.387 159.706 411.04 158.626 409.707C158.066 409.013 157.786 408.12 157.666 407.227C157.226 403.827 159.159 400.24 162.252 398.747C165.332 397.24 170.732 396.853 172.479 400.48Z" fill="#FEE4DB"/>
<path d="M168.173 429.573C166.146 428.04 163.48 426.44 161.24 427.64C160.2 428.2 159.52 429.254 158.906 430.267C157.693 432.24 156.453 434.28 156.133 436.573C155.706 439.52 157.24 442.88 160.08 443.733C163.173 444.653 166.466 442.28 167.72 439.307C168.973 436.333 168.706 432.96 168.173 429.573Z" fill="#FEE4DB"/>
<path d="M151.68 461.947C149.747 461.08 147.814 460.227 145.894 459.36C145.414 459.147 144.88 458.934 144.387 459.08C144.014 459.187 143.734 459.48 143.48 459.774C140.547 463.28 140.534 468.294 140.68 472.867C140.694 473.32 140.72 473.8 141 474.16C141.214 474.427 141.534 474.574 141.854 474.694C145.574 476.107 150.2 474.974 152.574 471.774C154.934 468.587 154.667 463.28 151.68 461.947Z" fill="#FEE4DB"/>
<path d="M303.185 402.493C295.452 402.28 287.599 402.053 280.225 399.72C275.252 398.147 270.612 395.653 265.625 394.107C255.879 391.08 245.425 391.827 235.252 392.6C234.212 394.48 236.732 396.293 238.772 396.96C257.665 403.147 277.199 407.36 296.972 409.507C299.465 409.773 302.199 409.96 304.252 408.52C306.305 407.08 306.839 402.6 303.185 402.493Z" fill="#FEE4DB"/>
<path d="M1472.17 597.094C1460.84 591.627 1447.96 590.107 1436.44 585.053C1424.92 580 1414.12 569.387 1415.15 556.84C1416.25 543.44 1429.64 535 1441.53 528.733C1468.01 514.76 1494.48 500.787 1520.96 486.813C1482.79 490.48 1445.48 502.76 1412.59 522.467C1401.47 529.134 1388.23 536.907 1376.43 531.533C1373.24 530.08 1370.51 527.747 1367.25 526.453C1360.33 523.693 1351.63 526.574 1347.72 532.92C1343.81 539.267 1345.17 548.347 1350.77 553.267C1344.87 556.827 1337.57 558.014 1330.83 556.507C1341.29 566.507 1352.09 576.734 1365.52 582.174C1374.51 585.814 1384.23 587.12 1393.83 588.4C1419.04 591.733 1444.24 595.08 1472.17 597.094Z" fill="#E0AFA1"/>
<path d="M1279.79 587.574C1253.52 582.747 1227.16 576.92 1201.04 570.227C1199.37 570.494 1197.69 570.747 1196.01 570.987C1195.68 570.8 1195.36 570.614 1195.03 570.44C1190.56 568.107 1185.52 567.16 1180.79 565.467C1171.03 561.96 1162.77 555.347 1153.76 550.2C1132.64 538.147 1107.96 534.494 1083.77 531.427C1082.67 531.28 1081.57 531.134 1080.47 531C1083.76 530.334 1087.07 529.88 1090.39 529.627C1110.84 528.094 1131.6 534.094 1150.88 541.694C1173.27 550.534 1195 561.68 1218.61 566.427C1233.77 569.494 1249.83 569.974 1263.59 577.014C1269.23 579.894 1274.48 583.88 1279.79 587.574Z" fill="#E0AFA1"/>
<path d="M1387 412.04C1385.13 413.854 1382.63 414.8 1380.19 415.694C1360.45 422.907 1340.16 428.56 1319.55 432.64C1318.43 432.867 1317.29 433.08 1316.16 433.294C1308.03 434.827 1299.36 436.32 1293.21 441.84C1290.51 444.24 1288.31 447.4 1284.97 448.76C1281.37 450.227 1277.29 449.307 1273.43 449.627C1263.65 450.4 1256 459.454 1254.16 469.08C1252.31 478.72 1255.13 488.667 1259.11 497.64C1267.32 516.24 1281.65 533.294 1301.07 539.36C1312.01 542.774 1323.85 542.52 1334.81 545.92C1340 547.534 1345.15 550.4 1349.07 554.187C1353.44 558.4 1356.31 563.76 1356.05 569.8C1348.95 566.174 1341.55 562.56 1333.88 559.36C1323.95 555.227 1313.56 551.787 1302.79 549.88C1296.49 548.774 1289.96 548.174 1284.23 545.36C1282.6 544.574 1281.09 543.614 1279.63 542.574L1279.61 542.56C1276.64 540.454 1273.91 537.974 1271.03 535.68L1271.01 535.667C1269.51 534.454 1267.96 533.307 1266.32 532.28C1265.99 532.08 1265.67 531.88 1265.33 531.694C1265.32 531.694 1265.32 531.694 1265.32 531.68C1260.27 528.774 1254.53 527.04 1248.91 525.2C1242.12 522.947 1235.51 520.494 1230.52 515.52C1220.56 505.56 1221.92 486.787 1233.23 478.374C1236.65 475.827 1240.97 473.92 1242.72 470.014C1245.91 462.894 1237.44 455.24 1229.65 455.414C1221.85 455.574 1215.05 460.334 1207.99 463.614C1200.92 466.88 1191.68 468.414 1186.01 463.067C1196.31 450.48 1208.35 439.347 1221.71 430.067C1235.27 420.654 1250.11 413.2 1264.44 405.28C1267.52 403.414 1270.69 401.787 1273.93 400.347C1277.84 398.6 1281.87 397.147 1285.97 395.934C1320.19 398.107 1354.4 399.067 1388.45 398.84C1390.55 403.267 1390.47 408.68 1387 412.04Z" fill="#E0AFA1"/>
<path d="M1359.73 546.187C1346.92 541.227 1334.8 534.48 1323.84 526.187C1319.19 522.667 1314.43 518.307 1313.69 512.52C1312.64 504.173 1320.28 497.293 1322.05 489.053C1324.4 478.12 1316.07 466.467 1320 455.987C1322.03 450.6 1327.39 446.627 1333.13 446.253C1338.88 445.88 1344.71 449.133 1347.41 454.213C1350.97 460.907 1349.07 469.04 1348.01 476.547C1345.36 495.493 1349.03 515.267 1358.29 532.013C1359.69 534.547 1361.25 537.147 1361.31 540.04C1361.32 542.933 1359.11 546.08 1359.73 546.187Z" fill="#E0AFA1"/>
<path d="M1090.2 583.427C1083.64 584.067 1077.07 584.693 1070.49 585.333C1040.41 588.253 1009.73 591.133 980.226 584.573C930.506 564.413 872.493 558.347 815.213 552.453C768.653 547.653 722.106 542.88 675.546 538.067C673.68 537.88 671.8 537.68 669.933 537.493C668.733 537.467 667.56 537.453 666.373 537.453C668.346 537.107 670.32 536.747 672.293 536.4C727.28 526.813 783.493 524.213 839.106 528.747C810.52 531.453 781.92 534.133 753.333 536.84C794.24 539.28 835.24 541.747 875.613 548.707C947.173 561.067 1017.72 587.6 1090.11 581.813C1090.21 582.373 1090.24 582.907 1090.2 583.427Z" fill="#E0AFA1"/>
<path d="M1252.03 393.4C1248.4 395.733 1244.65 397.84 1240.75 399.693C1240.75 399.693 1240.73 399.693 1240.72 399.693C1211.29 413.827 1174.89 415.307 1141.28 415.653C1119.27 415.88 1097.25 416.107 1075.27 416.333C1079.68 420.627 1084.09 424.933 1088.49 429.227C1048.35 439.48 1006.79 442.773 965.56 446.96C887.053 454.947 808.88 466.253 727.854 480.853C789.134 464.853 850.414 448.867 911.694 432.867C910.2 427.813 903.8 426.413 898.547 426.2C878.293 425.387 856.013 428.627 837.413 422.92C831.24 421.053 825.48 418.187 820.347 413.867C831 410.2 841.68 406.533 852.333 402.867C852.373 402.853 852.4 402.853 852.44 402.84C883.294 396.76 914.2 391.04 945.227 387.12C976.84 386.373 1007.8 378.28 1039.31 375.507C1073.84 372.453 1108.4 375.84 1142.88 380.347C1142.89 380.347 1142.89 380.347 1142.91 380.347H1142.92C1157.45 382.24 1171.95 384.347 1186.44 386.24C1187.21 386.347 1188.01 386.453 1188.79 386.56C1209.81 389.307 1230.91 391.6 1252.03 393.4Z" fill="#E0AFA1"/>
<path d="M675.547 538.094C673.68 537.907 671.8 537.707 669.933 537.52C668.733 537.494 667.56 537.48 666.373 537.48C639.267 537.4 611.587 542.267 584.493 549.454C563.827 559.72 536.987 563.707 511.253 562.72C485.507 561.734 460.187 556.187 434.627 552.88C399.96 548.387 364.747 548.027 330 551.814C300.973 555.694 268.413 560.547 237.44 552.84C221.587 548.907 206.587 541.774 190.547 538.774C173.573 535.587 155.96 537.134 139.04 533.787C129.067 531.814 118.933 527.454 111.613 520.76C145.347 534.667 186.427 527.854 221.907 539.56C230.307 542.334 238.467 546.174 247.227 547.36C252.613 548.094 258.08 547.8 263.507 547.494C298.773 545.574 334.053 543.64 367.467 540.4C390.627 536.16 414.8 531.974 437.373 538.667C449.413 542.24 460.76 548.867 473.307 549.56C487.12 550.334 500.627 543.8 514.413 544.907C523.053 545.6 531.213 549.254 539.84 550C550.427 550.907 560.813 547.4 570.987 544.4C590.24 538.734 609.987 534.774 629.933 532.56C644.173 530.987 659.6 530.627 672.333 536.427C673.4 536.934 674.48 537.48 675.547 538.094Z" fill="#E0AFA1"/>
<path d="M597.212 433.734C597.359 435.467 596.065 436.694 594.439 437.507C593.532 437.96 592.545 438.28 591.612 438.494C567.585 444.107 542.745 444.947 518.092 445.734C496.305 446.454 472.465 446.507 455.465 432.854C446.479 436.054 436.572 433.827 427.025 433.854C400.065 433.974 376.838 452.187 350.945 459.667C347.545 460.654 342.212 459.84 342.799 456.374C343.119 454.507 345.159 453.547 346.932 452.907C372.132 443.734 397.332 434.56 422.559 425.374C423.105 425.174 423.665 424.974 424.212 424.774C428.492 423.214 432.852 421.867 437.292 420.72H437.305C444.825 421.427 452.345 421.12 459.305 420.787C474.159 424.4 489.225 428.014 504.505 427.667C514.185 427.454 523.759 425.64 533.439 425.534C555.172 425.28 576.372 433.614 597.132 433.334C597.185 433.467 597.199 433.587 597.212 433.734Z" fill="#E0AFA1"/>
<path d="M233.399 407.88C263.799 414.16 294.492 418.974 325.345 422.294C335.865 423.427 346.759 424.347 356.772 420.96C349.292 425.587 340.719 428.454 331.959 429.28C324.759 429.96 317.505 429.28 310.292 428.6C281.345 425.88 251.052 422.68 226.945 406.427C228.479 406.107 229.465 407.067 233.399 407.88Z" fill="#E0AFA1"/>
<path d="M215.039 432.667C253.986 427.294 292.399 445.28 331.692 446.494C304.172 446.587 276.639 445.4 249.226 442.92C238.479 441.96 226.679 440.267 215.039 432.667Z" fill="#E0AFA1"/>
<path d="M201.734 460.24C201.667 460.12 201.574 460 201.44 459.906C210.747 458.96 220.174 460.6 229.48 461.827C246.76 464.133 264.227 465.067 281.654 464.667C256.334 474.133 227.307 473.187 201.24 461.293C201.4 461.253 201.56 461.186 201.667 461.066C201.72 461.013 201.76 460.96 201.774 460.92L201.734 460.24Z" fill="#E0AFA1"/>
<path d="M308.986 507.04C285.119 508.867 261.239 510.667 237.372 512.493C232.426 512.867 227.426 513.253 222.519 512.56C214.546 511.44 207.252 507.613 200.132 503.827C198.679 503.053 197.039 502.08 195.639 501.013C194.652 500.253 193.772 499.467 193.186 498.68C193.706 498.347 194.092 497.88 194.346 497.24C194.692 496.307 194.586 495.427 194.146 494.653C195.719 493.813 197.426 493.307 199.186 493.08C202.599 492.613 206.226 493.173 209.532 494.24C214.599 495.893 219.226 498.627 224.132 500.667C250.519 511.56 281.052 501.173 308.986 507.04Z" fill="#E0AFA1"/>
<path d="M208.305 390.56C208.639 387.64 208.199 384.533 206.492 382.16C205.892 381.32 205.145 380.6 204.332 379.987C207.425 379.44 210.585 379.253 213.732 379.213C212.212 386.16 209.559 392.88 205.905 398.987C206.932 396.24 207.959 393.467 208.305 390.56Z" fill="#E0AFA1"/>
<path d="M247.4 383.027C242.88 386.04 238.36 389.08 233.84 392.12C233 387.533 230.586 383.267 227.146 380.12C227.266 380.147 227.413 380.173 227.533 380.2C230.373 380.76 233.146 381.64 236.013 382.147C239.533 382.773 243.146 382.84 246.72 383C246.96 383 247.173 383.013 247.4 383.027Z" fill="#E0AFA1"/>
<path d="M184.52 397.36C184.294 397.573 184.027 397.774 183.787 397.974C182.32 399.174 181.267 400.813 180.267 402.44C177.68 406.587 175.107 410.734 172.507 414.88C172.2 410.507 176.2 406.8 176.28 402.4C176.32 400 175.174 397.827 173.734 395.854C177.307 395.92 180.88 396.52 184.52 397.36Z" fill="#E0AFA1"/>
<path d="M192.719 397.387C193.799 403.96 194.785 411.107 191.559 416.933C193.705 412.24 197.679 408.413 202.452 406.453C204.719 405.52 207.239 404.933 209.012 403.24C203.945 400.32 198.252 398.507 192.719 397.387Z" fill="#E0AFA1"/>
<path d="M147.986 421.267C152.053 425.6 152.093 433.107 148.066 437.493C150.973 435.027 153.706 431.907 154.133 428.12C154.56 424.333 151.653 420.027 147.986 421.267Z" fill="#E0AFA1"/>
<path d="M170.267 420.467C171.614 423.6 175.387 425.747 175.32 429.16C175.294 430.267 174.84 431.32 174.4 432.334C172.654 436.28 170.854 440.214 169.014 444.12C173.214 443.094 176.76 439.68 177.947 435.52C178.347 434.12 178.494 432.64 178.96 431.254C180.16 427.64 183.254 425.054 186.214 422.667C183.787 419.334 178.88 419.427 174.787 419.867C173.374 420.027 171.974 420.174 170.267 420.467Z" fill="#E0AFA1"/>
<path d="M158.612 452.614C156.385 452.254 154.159 451.827 151.945 451.294C153.599 450.96 155.639 451.187 157.225 451.894C157.705 452.107 158.159 452.347 158.612 452.614Z" fill="#E0AFA1"/>
<path d="M173.465 457.534C166.999 461.694 162.012 468.094 159.572 475.387C160.679 470.627 161.799 465.667 160.732 460.894C160.212 458.574 158.999 456.294 157.332 454.587C157.985 454.88 158.639 455.174 159.292 455.467C161.225 456.334 163.185 457.214 165.292 457.547C167.012 457.8 168.745 457.667 170.479 457.614C171.479 457.56 172.479 457.534 173.465 457.534Z" fill="#E0AFA1"/>
<path d="M162.24 522.974C164.227 517.28 166.254 511.44 166.294 505.413C166.32 500.733 164.947 495.853 162.014 492.333C167.36 493.547 172.667 494.867 177.934 496.333C170.747 503.707 169.667 515.734 162.24 522.974Z" fill="#E0AFA1"/>
<path d="M535.72 469.04C514.427 476 492.587 481.267 470.467 484.773C465.747 485.52 460.827 486.267 456.92 489.013C481.56 492.307 507.013 489.373 530.253 480.56C532.987 479.52 535.787 478.333 537.733 476.16C539.693 473.973 540.493 470.507 535.72 469.04Z" fill="#E0AFA1"/>
<path d="M1100.28 531.227C1020.8 517.92 939.6 515 859.373 522.56C941.4 529.04 1023.67 532.427 1100.28 531.227Z" fill="#E0AFA1"/>
<path d="M1758.51 499.227C1763.79 511.294 1765.16 525.654 1759.47 537.52C1753.68 549.6 1741.77 557.32 1730.43 564.427C1723.08 569.027 1715.73 573.627 1708.39 578.227C1704.83 580.454 1701.08 582.907 1699.4 586.747C1697.83 590.36 1698.4 594.494 1698.99 598.387C1699.77 603.574 1700.56 608.774 1701.29 613.974C1702.16 620.04 1702.96 626.134 1703.63 632.227C1701.32 631.894 1699 631.56 1696.69 631.24C1694.28 624.96 1691.61 618.68 1688.56 612.72C1680.29 596.574 1669.15 582.707 1652.43 576.894C1677.36 571.76 1701.15 561.04 1721.51 545.747C1730.85 538.72 1740.35 527.067 1735.23 516.534C1733.17 512.32 1729.15 509.454 1725.17 506.974C1698.39 490.254 1666.04 482.627 1634.6 485.614C1687.05 470.134 1735.83 442.36 1785.56 400.027C1773.41 425.507 1756.24 448.574 1735.32 467.52C1744.45 476.987 1753.24 487.147 1758.51 499.227Z" fill="#E0AFA1"/>
<path d="M1849.07 333.533C1779.76 350.96 1709.51 371.48 1651.37 413.04C1624.29 432.4 1598.08 457 1564.99 460.48C1558.69 461.147 1552.17 460.973 1546.24 458.773C1538.03 455.733 1531.69 449.173 1525.67 442.813C1520.43 437.28 1515.19 431.76 1509.95 426.227C1503.68 419.627 1496.93 411.24 1499.29 402.453C1500.87 396.613 1506.12 392.573 1511.35 389.507C1525.99 380.933 1542.65 376.6 1559.13 372.64C1652.63 350.213 1748.28 336.84 1849.07 333.533Z" fill="#E0AFA1"/>
<path d="M1852.63 654.934C1851.51 655.347 1850.47 655.72 1849.52 656.067L1848.08 655.667C1800.09 646.934 1751.93 639.094 1703.64 632.214C1701.33 631.88 1699.01 631.547 1696.71 631.227C1637.89 622.934 1578.87 615.987 1519.73 610.44C1575.56 603.987 1632.36 607.334 1688.57 612.72C1692.83 613.12 1697.07 613.547 1701.31 613.974C1701.87 614.027 1702.43 614.08 1702.99 614.134C1719.79 615.84 1736.6 617.667 1753.21 620.707C1787.81 627.014 1821.47 638.614 1852.63 654.934Z" fill="#E0AFA1"/>
<path d="M1423.89 591.2C1415.44 587.853 1407.65 582.84 1401.11 576.533C1397.25 572.813 1393.71 568.413 1392.64 563.173C1391.57 557.933 1393.09 552.507 1392.69 547.173C1392.63 546.32 1392.49 545.4 1391.92 544.76C1391.47 544.253 1390.83 544 1390.2 543.773C1384.53 541.747 1378 541.627 1372.69 544.453C1367.39 547.28 1363.72 553.427 1364.75 559.36C1365.79 565.4 1371.03 569.747 1376.19 573.04C1391.07 582.493 1408.16 587.84 1423.89 591.2Z" fill="#99685A"/>
<path d="M1872.53 326.907C1862.09 329.333 1851.68 331.627 1841.29 333.813H1841.28C1841.27 333.813 1841.27 333.813 1841.25 333.813C1841.24 333.813 1841.24 333.813 1841.23 333.813C1777.6 347.213 1714.92 356.373 1652.03 363.533C1624.19 370.133 1590.91 379.053 1558.79 391.067C1544.81 396.293 1530.35 402.653 1521.59 414.733C1518.37 419.187 1515.69 424.56 1511.96 428.387C1510.03 430.373 1507.81 431.947 1505.08 432.747C1498.48 434.707 1491.65 431.28 1484.97 429.613C1470.95 426.147 1456.36 430.573 1442.11 432.96C1428.73 435.187 1415.05 435.6 1401.57 434.173C1394.65 433.453 1387.61 432.267 1380.85 433.893C1374.11 435.547 1367.67 440.973 1366.84 451.12C1360.81 451.28 1356.12 456.44 1353.32 461.773C1351.67 464.933 1350.36 468.307 1348.75 471.48C1347.63 473.667 1346.37 475.76 1344.72 477.587C1336.49 469.72 1328.13 461.653 1322.39 451.907C1321.56 450.507 1320.79 449.093 1320.08 447.627C1318.53 444.413 1317.29 440.88 1317.77 437.347C1318.01 435.667 1318.63 434.08 1319.55 432.653C1321.23 429.96 1323.93 427.8 1326.87 426.453C1331.36 424.4 1336.37 423.933 1341.28 423.467C1329.41 415.893 1313.87 421.16 1300.88 426.587C1288.87 431.613 1276.8 436.653 1265.6 443.307C1260.25 446.467 1255.03 450.013 1249.05 451.707C1243.08 453.387 1236.03 452.827 1231.59 448.507C1224.89 442.013 1227.4 429.947 1234.33 423.707C1241.27 417.453 1251 415.573 1260.24 414.227C1272.87 412.36 1285.57 411.053 1298.32 410.28C1306.83 409.76 1315.4 409.493 1323.85 410.613C1335.61 412.2 1348.88 416.16 1358.39 409.027C1355.64 405.12 1350.23 404.453 1345.48 404.133C1321.65 402.533 1297.79 400.933 1273.92 400.373C1271.69 400.307 1269.45 400.267 1267.23 400.24C1258.41 400.107 1249.56 400.133 1240.76 399.72C1240.76 399.72 1240.75 399.72 1240.73 399.72C1232.23 399.347 1223.73 398.587 1215.37 396.933C1205.28 394.947 1195.25 391.52 1186.44 386.28C1187.21 386.387 1188.01 386.493 1188.79 386.6C1209.83 389.333 1230.92 391.613 1252.04 393.427C1263.35 394.413 1274.65 395.267 1285.97 395.96C1320.19 398.133 1354.4 399.093 1388.45 398.867C1393.68 398.827 1398.89 398.76 1404.12 398.68C1453.29 389.2 1502.53 379.693 1550.75 366.213C1584.01 356.907 1616.83 345.693 1650.83 339.747C1667.75 336.787 1684.85 335.147 1701.96 333.667C1754.8 329.093 1807.79 326.067 1860.47 324.213C1864.49 325.08 1868.51 326 1872.53 326.907Z" fill="#99685A"/>
<path d="M1290.2 544.507C1279.71 542.96 1269.37 540.333 1259.43 536.693C1257.87 536.12 1256.27 535.507 1255.03 534.4C1252.35 532.013 1251.81 527.867 1249.17 525.427C1246.2 522.667 1241.49 522.907 1238.03 520.8C1233.99 518.36 1232.41 513.36 1231.44 508.747C1230.25 503.107 1229.47 497.387 1229.11 491.64C1236.47 505.133 1247.41 516.32 1258.96 526.453C1266.79 533.32 1275.88 540.133 1290.2 544.507Z" fill="#99685A"/>
<path d="M981.027 388.414C996.747 389.654 1012.32 392.707 1027.36 397.48C1008.36 400.307 989.293 402.934 970.133 404.227C948.867 405.654 927.427 405.44 906.333 408.614C894.28 410.427 882.427 413.334 870.547 416.027C859.533 418.52 848.48 420.827 837.413 422.947C775.133 434.867 712.013 440.92 650.907 441.494C632.08 440.174 613.253 438.84 594.427 437.507C567.867 435.64 541.307 433.76 514.747 431.894C484.013 429.72 453.28 427.56 422.56 425.4C416.08 424.947 409.613 424.48 403.133 424.027C373.6 421.934 343.347 419.68 316.387 407.467C333.413 410.134 350.453 412.814 367.48 415.48C386.84 418.52 406.413 421.56 425.947 419.987C427.147 419.88 428.32 419.774 429.52 419.654C431.147 419.96 432.76 420.214 434.4 420.427C435.373 420.547 436.333 420.654 437.307 420.747H437.32C444.84 421.454 452.36 421.147 459.32 420.814C474.173 424.427 489.24 428.04 504.52 427.694C514.2 427.48 523.773 425.667 533.453 425.56C555.187 425.307 576.387 433.64 597.147 433.36C598.413 433.347 599.68 433.294 600.947 433.227C685.56 438.84 768.8 419.454 852.333 402.92C852.373 402.907 852.4 402.907 852.44 402.894C883.293 396.814 914.2 391.094 945.227 387.174C976.84 386.427 1007.8 378.334 1039.31 375.56C1073.84 372.507 1108.4 375.894 1142.88 380.4C1088.88 381.84 1034.92 384.534 981.027 388.414Z" fill="#99685A"/>
<path d="M191.919 399.053C192.185 399.16 192.465 399.253 192.732 399.347C196.825 400.747 201.239 401.467 205.399 402.067C206.279 402.173 207.145 402.307 208.025 402.427C213.652 403.2 219.465 404 224.732 406.053C225.492 406.347 226.239 406.653 226.999 407C227.505 407.213 227.999 407.44 228.505 407.68C230.052 408.373 231.652 409.093 233.292 409.653C236.412 410.733 239.692 411.24 242.785 411.68C242.785 411.68 236.719 409.507 233.692 408.48C232.092 407.933 230.532 407.227 229.012 406.533C228.505 406.307 228.012 406.08 227.505 405.853C226.732 405.52 225.959 405.2 225.185 404.88C219.799 402.787 213.892 401.973 208.199 401.2C207.319 401.08 206.452 400.947 205.572 400.827C201.479 400.267 197.119 399.547 193.132 398.187C192.532 397.973 191.932 397.747 191.332 397.52L191.105 398.08L191.919 399.053Z" fill="#99685A"/>
<path d="M228.146 433.12C225.919 433.787 223.546 434.107 220.972 434.107C219.266 434.107 217.466 433.973 215.572 433.667C211.306 433.013 207.012 431.707 202.866 430.44C201.412 429.987 199.959 429.547 198.519 429.134C193.746 427.76 188.839 426.694 183.412 425.547L182.666 425.4C178.852 424.587 174.906 423.747 171.092 422.773C164.386 421.093 159.119 419.267 154.572 417.067L154.852 416.507C155.906 416.734 156.986 417.053 158.119 417.493C157.972 417.373 157.826 417.227 157.679 417.094C161.546 418.747 165.986 420.2 171.399 421.573C175.212 422.533 179.146 423.36 182.932 424.174L183.652 424.32C189.119 425.48 194.039 426.547 198.866 427.934C200.306 428.347 201.772 428.787 203.226 429.24C207.332 430.493 211.599 431.787 215.772 432.44C220.332 433.133 228.146 433.12 228.146 433.12Z" fill="#99685A"/>
<path d="M201.732 460.24C205.452 460.533 209.199 460.4 212.892 459.88C213.439 460.827 212.986 462.12 212.119 462.787C211.252 463.453 210.092 463.613 208.999 463.587C206.559 463.533 204.146 462.613 201.772 460.92L201.732 460.24Z" fill="#99685A"/>
<path d="M204.159 495.987C203.346 497.867 202.239 499.613 200.906 501.173C200.586 501.533 200.252 501.907 199.786 502.053C199.199 502.253 198.546 502.04 197.946 501.827C197.172 501.547 196.412 501.28 195.639 501C194.306 500.533 192.972 500.053 191.639 499.573C191.452 499.507 191.252 499.44 191.066 499.36C191.866 499.267 192.599 499.053 193.186 498.653C193.706 498.32 194.092 497.853 194.346 497.213C194.692 496.28 194.586 495.4 194.146 494.627C193.532 493.493 192.279 492.533 190.879 491.827C193.679 491.947 196.479 492.373 199.186 493.053C200.612 493.4 202.012 493.827 203.386 494.333C203.759 494.467 204.186 494.653 204.319 495.04C204.426 495.36 204.306 495.693 204.159 495.987Z" fill="#99685A"/>
<path d="M2000 325.8V662.187L1944.12 664.24C1921.08 662.373 1897.99 661.24 1874.87 660.853C1863.72 660.653 1852.57 660.64 1841.43 660.787C1837.05 660.853 1832.68 660.933 1828.31 661.053C1830.11 660.067 1831.77 658.96 1833.35 657.733C1833.53 657.6 1833.72 657.44 1833.89 657.293C1834.48 656.827 1835.05 656.347 1835.6 655.84C1835.89 655.587 1836.16 655.32 1836.44 655.067C1836.57 654.947 1836.73 654.8 1836.87 654.667C1837.15 654.387 1837.43 654.107 1837.71 653.813C1837.89 653.64 1838.05 653.467 1838.24 653.267C1838.55 652.947 1838.83 652.64 1839.11 652.307C1839.95 651.36 1840.75 650.387 1841.49 649.36C1842.13 648.52 1842.75 647.653 1843.33 646.76C1843.63 646.32 1843.89 645.893 1844.16 645.453C1844.45 645 1844.72 644.547 1844.97 644.08C1845.61 643 1846.21 641.88 1846.8 640.747C1847.08 640.187 1847.35 639.613 1847.63 639.04C1847.91 638.467 1848.17 637.88 1848.41 637.293C1849.19 635.587 1849.87 633.84 1850.51 632.067C1850.64 631.707 1850.77 631.333 1850.88 630.987C1851.55 629.12 1852.15 627.213 1852.71 625.32C1852.93 624.56 1853.15 623.8 1853.35 623.04C1854.11 620.293 1854.76 617.533 1855.36 614.8C1855.6 613.733 1855.83 612.667 1856.04 611.613C1856.27 610.56 1856.48 609.507 1856.68 608.453C1870.19 539.307 1883.27 469.027 1878.08 398.84C1877.96 397.173 1877.83 395.507 1877.68 393.84C1877.49 391.707 1877.29 389.56 1877.05 387.387C1876.99 386.733 1876.92 386.08 1876.83 385.427C1876.67 384.013 1876.49 382.613 1876.29 381.2C1876.2 380.493 1876.11 379.787 1875.99 379.093C1875.88 378.4 1875.79 377.693 1875.67 377C1875.56 376.293 1875.44 375.587 1875.33 374.907C1874.8 371.733 1874.19 368.6 1873.47 365.467C1873.36 365 1873.25 364.533 1873.13 364.067C1873.03 363.547 1872.89 363.053 1872.76 362.533C1872.6 361.88 1872.43 361.24 1872.25 360.587C1871.67 358.32 1871 356.08 1870.27 353.893C1870.04 353.187 1869.81 352.507 1869.56 351.813C1869.37 351.267 1869.19 350.733 1868.99 350.187C1868.83 349.72 1868.65 349.28 1868.47 348.813C1867.67 346.72 1866.8 344.653 1865.85 342.64C1865.56 342.013 1865.27 341.387 1864.96 340.773C1864.65 340.173 1864.36 339.573 1864.04 338.973C1863.68 338.267 1863.29 337.56 1862.91 336.88C1862.57 336.32 1862.27 335.747 1861.92 335.187C1860.89 333.44 1859.8 331.747 1858.63 330.067C1857.77 328.853 1856.87 327.64 1855.92 326.453C1855.37 325.76 1854.81 325.08 1854.24 324.413C1854.13 324.307 1854.05 324.187 1853.95 324.08C1854.36 324.067 1854.79 324.067 1855.2 324.053C1860.83 323.947 1866.45 323.867 1872.09 323.813C1874.04 323.787 1875.99 323.773 1877.95 323.76C1880.47 323.733 1883 323.72 1885.53 323.707C1891.24 323.68 1896.96 323.68 1902.68 323.693C1911.63 323.733 1920.6 323.8 1929.59 323.933C1934.71 324.013 1939.83 324.093 1944.96 324.2C1963.32 324.56 1981.65 325.107 2000 325.8Z" fill="#AECCD1"/>
<path d="M2000 325.8V431.533C1994.29 429.28 1988.69 426.64 1982.96 424.533C1976.33 422.107 1969.52 420.387 1962.59 419.187C1957.51 418.307 1952.37 417.72 1947.19 417.32C1943.15 417.013 1939.11 416.84 1935.05 416.76C1931.59 416.693 1928.13 416.68 1924.68 416.72C1924.16 416.72 1923.65 416.733 1923.13 416.733C1912.51 416.84 1900.85 416.627 1891.68 412.413C1887.68 410.587 1884.15 408.013 1881.37 404.387C1880.07 402.68 1879 400.8 1878.11 398.84C1877.99 397.173 1877.85 395.507 1877.71 393.84C1877.52 391.707 1877.32 389.56 1877.08 387.387C1877.01 386.733 1876.95 386.08 1876.85 385.427C1876.69 384.013 1876.52 382.613 1876.32 381.2C1876.23 380.493 1876.13 379.787 1876.01 379.093C1875.91 378.4 1875.81 377.693 1875.69 377C1875.59 376.293 1875.47 375.587 1875.36 374.907C1874.83 371.733 1874.21 368.6 1873.49 365.467C1873.39 365 1873.28 364.533 1873.16 364.067C1873.05 363.547 1872.92 363.053 1872.79 362.533C1872.63 361.88 1872.45 361.24 1872.28 360.587C1871.69 358.32 1871.03 356.08 1870.29 353.893C1870.07 353.187 1869.84 352.507 1869.59 351.813C1869.4 351.267 1869.21 350.733 1869.01 350.187C1868.85 349.72 1868.68 349.28 1868.49 348.813C1867.69 346.72 1866.83 344.653 1865.88 342.64C1865.59 342.013 1865.29 341.387 1864.99 340.773C1864.68 340.173 1864.39 339.573 1864.07 338.973C1863.71 338.267 1863.32 337.56 1862.93 336.88C1862.6 336.32 1862.29 335.747 1861.95 335.187C1860.92 333.44 1859.83 331.747 1858.65 330.067C1857.8 328.853 1856.89 327.64 1855.95 326.453C1855.75 325.76 1855.53 325.067 1855.33 324.373C1855.29 324.267 1855.27 324.16 1855.23 324.04C1860.85 323.933 1866.48 323.853 1872.12 323.8C1874.07 323.773 1876.01 323.76 1877.97 323.747C1880.49 323.72 1883.03 323.707 1885.56 323.693C1891.27 323.667 1896.99 323.667 1902.71 323.68C1911.65 323.72 1920.63 323.787 1929.61 323.92C1934.73 324 1939.85 324.08 1944.99 324.187C1963.32 324.56 1981.65 325.107 2000 325.8Z" fill="#7A9CA1"/>
<path d="M2000 488.667V525.134C1998.83 525.667 1997.67 526.174 1996.49 526.694C1985.41 531.6 1971.63 536.24 1962.07 528.8C1960.85 527.854 1959.77 526.747 1958.83 525.56C1955.4 521.294 1953.32 515.734 1950.76 510.76V510.734C1948.37 506.054 1945.55 501.934 1940.77 499.96C1944.15 498.44 1947.59 497.214 1951.09 496.187C1955 495.04 1958.99 494.16 1963.03 493.44C1964.03 493.267 1965.04 493.107 1966.04 492.934C1977.25 491.174 1988.76 490.454 2000 488.667Z" fill="#7A9CA1"/>
<path d="M2000 614.974V662.187L1944.12 664.24C1921.08 662.374 1897.99 661.24 1874.87 660.854C1863.72 660.654 1852.57 660.64 1841.43 660.787C1840.41 658.494 1839.45 656.214 1838.52 653.947C1838.43 653.72 1838.33 653.48 1838.24 653.254C1838.13 652.987 1838.03 652.72 1837.91 652.467C1838.31 652.414 1838.69 652.36 1839.11 652.307C1840.4 652.134 1841.67 651.96 1842.96 651.774H1842.97C1843.88 651.654 1844.76 651.52 1845.67 651.4H1845.68C1848.12 651.067 1850.57 650.734 1853.01 650.4C1858.59 649.64 1864.15 648.88 1869.71 648.107C1869.73 648.107 1869.76 648.094 1869.79 648.094C1874.29 647.48 1878.8 646.88 1883.31 646.227C1886.19 645.827 1889.05 645.414 1891.93 645H1891.95C1915.68 641.507 1939.32 637.267 1962.15 629.974C1975.16 625.827 1987.73 620.747 2000 614.974Z" fill="#7A9CA1"/>
<path d="M1920.07 480C1915.43 532.373 1908.79 585.36 1888.79 634.013C1887.11 638.12 1885.29 642.24 1883.32 646.227C1880.83 651.293 1878.07 656.213 1874.87 660.853C1863.72 660.653 1852.57 660.64 1841.43 660.787C1837.05 660.853 1832.68 660.933 1828.31 661.053C1832.13 658.947 1835.41 656.307 1838.25 653.253C1838.15 652.987 1838.04 652.72 1837.92 652.467C1838.32 652.413 1838.71 652.36 1839.12 652.307C1849.43 640.667 1853.72 623.707 1856.71 608.453C1870.21 539.307 1883.29 469.027 1878.11 398.84C1877.99 397.173 1877.85 395.507 1877.71 393.84C1875.63 369.973 1870.84 345.053 1855.99 326.453C1855.36 325.653 1854.69 324.853 1854.01 324.08C1854.43 324.067 1854.85 324.067 1855.27 324.053C1871.05 323.76 1886.88 323.653 1902.76 323.707C1913.52 344.733 1919.33 368.293 1921.72 391.893C1922.56 400.16 1923 408.467 1923.15 416.76C1923.49 437.813 1921.93 458.973 1920.07 480Z" fill="#495B5E"/>
<path d="M1562.63 451.12C1564.48 454.347 1562.13 457.507 1559.36 460.147C1556.59 462.787 1553.28 465.427 1553.08 468.653C1552.91 471.507 1555.23 474.413 1557.84 477.107C1561.24 480.613 1565.24 483.987 1569.76 487.147C1571.59 488.427 1573.57 489.707 1576.12 490.52C1578.52 491.28 1581.21 491.547 1583.79 492.027C1587.75 492.773 1591.44 494.027 1595.28 495.027C1599.89 496.227 1604.69 497.067 1609.49 497.907C1619.05 499.573 1628.63 501.24 1638.19 502.907C1642.08 503.587 1646 504.267 1649.95 504.64C1656.17 505.24 1662.44 505.053 1668.13 504.133C1677.47 502.613 1684.89 499.173 1692.09 495.8C1697.03 493.493 1701.95 491.187 1706.88 488.88C1709.67 487.573 1712.53 486.213 1713.99 484.333C1715.2 482.773 1715.36 480.973 1715.52 479.213C1715.97 473.907 1716.44 468.6 1716.89 463.293C1716.97 462.427 1717.03 461.52 1716.43 460.667C1714 457.24 1704.6 457.693 1699.53 455.16C1698.11 454.44 1697.08 453.507 1695.63 452.813C1690.36 450.253 1683.13 451.907 1676.65 451.973C1669.73 452.04 1662.8 450.093 1656.25 448.2C1650.01 446.387 1643.76 444.587 1637.52 442.773C1626.87 439.693 1615.23 436.493 1604.28 437.387C1593.8 438.24 1585.6 442.773 1574.72 442.467C1571.85 442.387 1568.51 442.027 1566.64 443.067C1565.72 443.587 1565.39 444.333 1565.08 445.067C1564.01 447.6 1562.04 450.107 1562.63 451.12Z" fill="url(#paint0_radial_101_1141)"/>
<path d="M1567.16 459.2C1566 460.386 1565.39 461.733 1564.87 463.08C1563.53 466.546 1562.77 470.213 1564.29 473.88C1565.8 477.56 1569.89 481.253 1576.04 483.2C1577.99 483.813 1580.09 484.24 1581.87 485.013C1583.39 485.666 1584.56 486.533 1585.96 487.266C1587.83 488.253 1590.04 488.986 1592.24 489.693C1603.79 493.44 1615.72 496.96 1628.27 498.906C1637.19 500.306 1646.33 500.88 1655.16 500.613C1656.81 500.56 1658.49 500.48 1659.99 500.173C1661.53 499.853 1662.85 499.32 1664.23 498.84C1673.25 495.666 1685.43 494.773 1692.17 490.226C1694.44 488.706 1695.93 486.853 1698.23 485.346C1702.92 482.266 1711.01 480.453 1712.12 476.28C1712.57 474.586 1711.72 472.773 1710.88 471.026C1710.03 469.24 1709.16 467.44 1708.31 465.653C1707.75 464.493 1707.17 463.306 1706.13 462.213C1703.35 459.293 1697.59 457.426 1691.96 456.52C1686.33 455.613 1680.61 455.466 1674.93 454.826C1667.69 454 1660.56 452.346 1654.12 450.013C1648.75 448.053 1643.65 445.573 1637.64 444.653C1632.92 443.933 1627.64 444.16 1623.68 442.386C1621.99 441.64 1620.76 440.586 1619.01 439.88C1613.89 437.813 1607.69 439.533 1602.45 440.666C1597.27 441.786 1591.51 442.253 1586.36 443.426C1581.21 444.6 1576.47 446.68 1575.48 449.773C1576.64 450.866 1570.13 456.16 1567.16 459.2Z" fill="#E09F89"/>
<path d="M1572.19 458.64C1572.19 458.64 1585.33 445.293 1598.08 442.933C1607.83 441.133 1619.44 442.293 1629.81 444.84C1640.19 447.386 1649.57 451.213 1658.88 454.973C1662.95 456.626 1667.12 458.293 1671.77 459.2C1677.23 460.253 1682.88 460.173 1688.45 460.533C1694.03 460.893 1700.12 461.88 1703.95 464.4C1707.64 466.826 1708.33 470.16 1707.05 472.906C1705.77 475.653 1702.81 477.946 1699.91 480.173C1690.2 487.626 1679 495.573 1661.73 496.84C1656.91 497.186 1651.83 496.986 1647.08 497.48C1644.16 497.773 1641.39 498.333 1638.41 498.533C1632.64 498.933 1626.51 498 1620.57 497.08C1617.07 496.533 1613.31 495.906 1610.73 494.373C1609.24 493.493 1608.28 492.373 1606.77 491.493C1604.23 490 1600.57 489.4 1597.24 488.6C1592.21 487.4 1587.59 485.626 1583.01 483.866C1577.76 481.84 1572.33 479.68 1568.92 476.706C1563.23 471.733 1564.6 465.533 1569.52 461.133C1570.99 459.813 1572.19 458.64 1572.19 458.64Z" fill="url(#paint1_radial_101_1141)"/>
<path d="M1594.04 444.88C1598.19 443.933 1604.29 442.453 1609.41 441.253C1610.31 441.04 1611.27 440.827 1612.29 440.947C1613.32 441.067 1614.36 441.667 1614.09 442.187C1613.93 442.507 1613.39 442.68 1612.87 442.827C1611.69 443.173 1610.52 443.52 1609.33 443.867C1606.69 444.64 1604.07 445.413 1601.43 446.187C1599.56 446.733 1597.67 447.28 1595.51 447.507C1593.36 447.72 1589.69 448.013 1588.93 446.787C1587.92 445.107 1593.31 445.04 1594.04 444.88Z" fill="#F6DCDD"/>
<path d="M1575.97 461.053C1573.79 463.093 1572.47 467.533 1568 466.56C1566.07 466.133 1567.77 464.333 1568.71 463.44C1570.57 461.64 1574.92 460.853 1575.91 458.813C1576.49 457.587 1575.87 455.333 1578.28 455.453C1578.79 455.467 1577.96 459.2 1575.97 461.053Z" fill="#E39D9D"/>
<path d="M1570.16 471.693C1571.04 474.133 1572.52 476.893 1576.49 478.28C1577.63 478.68 1578.89 478.933 1579.89 479.44C1580.89 479.933 1581.57 480.866 1580.72 481.306C1579.59 481.893 1577.51 481.693 1575.97 481.186C1574.44 480.68 1573.27 479.893 1572.21 479.093C1569.07 476.666 1564.19 472.733 1567.81 471.093C1568.55 470.746 1570.01 471.293 1570.16 471.693Z" fill="#FDACAE"/>
<path d="M1618.65 494.866C1616.93 492.733 1612.08 492.08 1608.4 490.88C1603.33 489.213 1599.85 486.106 1594.55 484.76C1593.61 484.52 1592.52 484.346 1591.72 484.6C1590.92 484.84 1607.8 493.64 1618.65 494.866Z" fill="#E2A094"/>
<path d="M1650.69 498.706C1651.97 498.32 1653.8 499.106 1655.33 499.413C1656.87 499.72 1658.48 499.973 1659.97 499.826C1661.47 499.68 1662.75 499 1662.56 498.133C1662.39 497.266 1660.25 496.506 1659.11 497C1662.24 496.613 1665.39 496.226 1668.52 495.84C1669.25 495.746 1670.16 495.44 1669.75 495.04C1669.64 494.933 1669.44 494.853 1669.25 494.786C1666.51 493.8 1663.19 494.133 1660.29 494.506C1657.79 494.826 1655.29 495.16 1652.79 495.48C1651.56 495.64 1650.29 495.813 1649.32 496.213C1648.35 496.626 1647.72 497.333 1648.09 498.04C1648.48 498.773 1649.56 499.053 1650.69 498.706Z" fill="#FEBEBE"/>
<path d="M1582.64 460.44C1581.12 461.76 1581.93 463.827 1579.75 464.813C1579.12 465.093 1578.36 465.307 1577.76 465.6C1576.6 466.187 1576.09 467.08 1575.64 467.934C1575.13 468.88 1574.61 469.854 1574.68 470.88C1574.73 471.827 1575.27 472.787 1575.93 473.707C1577.65 476.08 1581.23 480.413 1584.97 479.4C1588 478.587 1585.71 475.547 1584.99 473.573C1584.24 471.533 1582.73 469.387 1583.8 467.547C1584.97 465.52 1589.09 464.253 1588.89 462.027C1588.84 461.413 1588.44 460.787 1588.39 460.16C1588.31 458.893 1590.72 453.453 1582.64 460.44Z" fill="#F16E2B"/>
<path d="M1585.49 457.96C1584.84 455.853 1586.04 453.747 1588.64 452.413C1591.2 451.107 1594.84 450.613 1598.36 450.146C1596.13 451.24 1594.56 452.72 1593.84 454.373C1593.69 454.707 1593.57 455.053 1593.13 455.28C1592.55 455.573 1591.59 455.533 1590.75 455.587C1588.47 455.72 1586.69 456.733 1585.49 457.96Z" fill="#DF523C"/>
<path d="M1611.59 446.28C1609.61 446.627 1607.8 447.16 1606.25 447.867C1610.85 449.707 1616.67 449.013 1622 449.44C1626.76 449.827 1631.49 451.24 1634.95 453.307C1636.32 454.12 1637.51 455.053 1639.09 455.733C1640.99 456.547 1643.28 456.933 1645.41 457.48C1648.49 458.267 1651.35 459.4 1653.72 460.787C1654.45 461.213 1655.32 461.72 1656.31 461.707C1657.71 461.693 1658.08 460.667 1657.55 459.907C1656.52 458.467 1653.77 457.56 1651.28 456.813C1647.87 455.787 1644.45 454.76 1641.04 453.733C1639.52 453.28 1637.96 452.8 1636.75 452.107C1635.95 451.653 1635.33 451.107 1634.65 450.6C1628.99 446.4 1618.35 445.12 1611.59 446.28Z" fill="#E78B7C"/>
<path d="M1610.16 452.147C1606.93 452.6 1603.53 453.107 1601.49 454.48C1599.44 455.853 1599.49 458.373 1602.49 459.573C1604.89 460.533 1607.91 460.254 1610.67 460.307C1620.32 460.507 1629.71 466.307 1628.76 471.507C1628.64 472.133 1628.43 472.813 1629.07 473.4C1631.13 475.293 1637.16 473.04 1639.6 474.813C1640.68 475.6 1640.09 476.654 1639 477.267C1637.91 477.88 1636.41 478.254 1635.44 478.934C1633.05 480.587 1635.44 483.8 1639.52 484.44C1646.36 485.52 1650.59 480.28 1657.49 480.96C1661.37 481.333 1664.61 483.52 1668.48 483.72C1671.13 483.854 1673.56 482.88 1674.03 481.493C1674.49 480.107 1672.95 478.427 1670.49 477.667C1667.45 476.72 1663.67 477.16 1660.79 476.04C1657.49 474.76 1657.21 472.2 1658.04 470.253C1658.8 468.467 1659.68 466.067 1656.57 464.96C1652.89 463.667 1649.4 466.2 1645.31 466.147C1641.28 466.093 1638.13 462.773 1640.65 461.24C1641.41 460.773 1642.6 460.413 1642.61 459.733C1642.63 459.413 1642.35 459.093 1642 458.813C1639.91 457.107 1635.67 456.827 1632.63 455.613C1629.71 454.453 1628.04 452.467 1625.04 451.373C1622.13 450.307 1618.48 450.294 1615.56 450.894C1612.67 451.507 1610.33 452.64 1610.16 452.147Z" fill="url(#paint2_radial_101_1141)"/>
<path d="M1645.21 468.973C1643.31 469.133 1641.39 469.293 1639.48 469.453C1638.99 469.493 1638.45 469.546 1638.12 469.733C1637.53 470.053 1637.73 470.653 1638.28 471.066C1638.84 471.48 1639.65 471.773 1640.41 472.066C1642.32 472.813 1644.03 473.733 1645.44 474.773C1646.47 475.533 1647.43 476.387 1648.95 476.8C1651.36 477.44 1653.99 476.533 1654.8 475.28C1655.61 474.026 1655.16 472.546 1654.87 471.146C1654.57 469.746 1657.31 468.44 1655.89 467.173C1653.57 465.08 1648.48 468.707 1645.21 468.973Z" fill="#E7DBE0"/>
<path d="M1600.83 465.853C1600.25 467 1603.48 468.08 1605.27 468.973C1605.65 469.173 1606.08 469.36 1606.31 469.627C1606.76 470.133 1606.31 470.693 1605.6 471C1604.12 471.653 1601.68 471.507 1599.92 470.8C1598.16 470.093 1597.11 468.933 1596.87 467.8C1596.65 466.8 1597.15 465.733 1598.63 465.293C1600.13 464.853 1601.37 464.773 1600.83 465.853Z" fill="url(#paint3_radial_101_1141)"/>
<path d="M1610.69 477.16C1611.8 477.84 1612.39 478.866 1611.61 479.533C1611.13 479.946 1610.24 480.146 1609.32 480.213C1605.83 480.453 1602.37 478.92 1599.48 477.52C1597.55 476.573 1595.6 475.626 1593.67 474.68C1593.35 474.52 1592.97 474.32 1593.01 474.106C1593.03 473.973 1593.19 473.88 1593.35 473.786C1594.61 473.026 1596.43 472.226 1598.4 472.68C1600.83 473.24 1601.47 475.266 1603.91 475.786C1605.12 476.04 1609.59 476.48 1610.69 477.16Z" fill="url(#paint4_radial_101_1141)"/>
<path d="M1650.65 490.507C1652.85 490.08 1651.71 487.893 1653.68 487.253C1655.65 486.613 1658.39 486.613 1660.71 487.253C1662.08 487.64 1663.29 488.213 1664.69 488.56C1670.53 489.987 1676.16 486.693 1682.15 487.787C1679.96 490.707 1672.97 491.533 1666.93 490.64C1663.67 490.16 1660.03 489.293 1657.32 490.107C1655.31 490.707 1654.08 492.187 1651.64 492.04C1650.47 491.973 1648.43 490.933 1650.65 490.507Z" fill="#E75742"/>
<path d="M1682.69 469.307C1680.35 469.733 1677.91 470.187 1676.31 471.173C1674.71 472.16 1674.21 473.853 1675.92 475.053C1676.84 475.707 1678.23 476.107 1679.6 476.347C1683.95 477.12 1688.67 476.48 1691.31 474.76C1691.93 474.347 1692.47 473.867 1692.53 473.293C1692.63 472.48 1691.77 471.64 1690.67 471.013C1688.04 469.52 1683.95 469.08 1682.69 469.307Z" fill="#EEA755"/>
<path d="M1663.32 471.373C1662.32 470.56 1663.43 469.533 1664.05 468.733C1664.68 467.933 1666.01 467.293 1667.68 467.32C1668.71 467.333 1669.79 467.613 1670.79 467.547C1673.27 467.387 1673.73 465.387 1676.12 465.067C1677.72 464.853 1679.51 465.48 1681.21 465.52C1683.39 465.56 1685.51 464.68 1687.48 465.347C1689.09 465.893 1689.33 467.213 1688.28 467.92C1687.24 468.627 1685.37 468.8 1683.6 468.733C1681.83 468.667 1680.04 468.387 1678.27 468.32C1676.49 468.267 1674.64 468.48 1673.65 469.2C1673.13 469.587 1672.91 470.08 1672.47 470.507C1671.03 471.947 1665.52 473.147 1663.32 471.373Z" fill="#EEB3B2"/>
<path d="M1661.31 462.066C1662.97 459.426 1670.2 459.213 1675.48 460.106C1676.24 460.24 1677.05 460.426 1677.47 460.813C1678.13 461.453 1677.2 462.133 1676.15 462.426C1674.12 463 1671.44 462.973 1669.16 462.333C1668.44 462.133 1667.68 461.866 1666.95 461.933C1666.52 461.973 1666.17 462.12 1665.88 462.28C1664.16 463.186 1664.96 464.893 1663.67 466C1662.79 466.746 1660.32 465.12 1660.29 464.173C1660.25 463.226 1661.07 462.44 1661.31 462.066Z" fill="#FA9DA5"/>
<path d="M1686.35 464.2C1689.04 463.867 1691.91 463.693 1694.44 464.64C1696.96 465.587 1698.79 467.013 1700.29 468.467C1700.91 469.053 1701.48 469.653 1701.77 470.293C1702.08 470.96 1702.05 471.627 1701.95 472.28C1701.72 473.64 1700.49 475.2 1697.95 475.107C1695.41 475.013 1693.68 473.187 1694.2 471.88C1694.45 471.24 1695.07 470.68 1695.29 470.04C1695.89 468.413 1693.63 466.427 1690.56 465.88C1689.47 465.68 1688.29 465.64 1687.28 465.307C1686.27 464.973 1685.61 464.293 1686.35 464.2Z" fill="#FABEB5"/>
<path d="M1617.13 486.067C1623.16 489.52 1632.51 489.92 1640.63 490.733C1641.84 490.853 1643.43 491.213 1643.43 491.867C1643.43 492.133 1643.13 492.347 1642.83 492.533C1641.12 493.6 1638.16 494.427 1635.69 493.52C1634.83 493.2 1634.2 492.72 1633.55 492.28C1632.13 491.333 1630.36 490.467 1628.29 490.133C1625.96 489.76 1623.61 490.107 1621.25 489.827C1617.83 489.413 1612.57 486.947 1614.67 485.627C1615.93 484.827 1616.47 485.68 1617.13 486.067Z" fill="#F25026"/>
<path d="M1617.19 442.613C1592.61 367.787 1550.2 298.893 1494.47 243.267C1478.68 227.507 1461.77 219.467 1441.8 206.52C1476.97 207.093 1512.23 253.173 1540.36 284.92C1548.92 294.92 1557.47 304.92 1566.03 314.907C1567.65 311.213 1573.35 314.973 1574.2 318.92C1575.05 322.867 1575.76 328.28 1579.79 328.653C1580.21 325.16 1582.2 321.893 1585.12 319.933C1604.23 357.867 1615.71 399.613 1617.19 442.613Z" fill="#AD0000"/>
<path d="M1558.84 345.094C1553.89 345.014 1548.95 344.48 1544.09 343.507C1542.81 343.254 1541.48 342.934 1540.49 342.08C1539.51 341.227 1539 339.667 1539.72 338.574C1540.17 337.88 1541 337.534 1541.8 337.32C1544.31 336.614 1547.05 336.787 1549.47 337.787C1553.27 339.36 1555.99 342.8 1558.84 345.094Z" fill="#AD0000"/>
<path d="M1422.25 207.107C1417.44 207.867 1412.44 207.307 1407.92 205.48C1406.51 204.907 1405 204.054 1404.63 202.574C1404.08 200.334 1406.6 198.44 1408.91 198.227C1413.17 197.827 1417 200.56 1420.75 202.64C1425.57 205.334 1430.81 205.747 1422.25 207.107Z" fill="#AD0000"/>
<path d="M1482.99 248.867C1472.69 249.027 1461.68 248.534 1450.19 247.374C1444.83 246.827 1439.13 246.107 1433.28 244.214C1427.43 242.334 1421.36 239 1419.57 235.947C1416.95 231.44 1424.93 230.04 1433.4 231.814C1441.87 233.574 1450.52 237.387 1459.03 240.6C1472.51 245.667 1485.96 248.814 1482.99 248.867Z" fill="#AD0000"/>
<path d="M1571.15 298.28C1568.51 292.68 1564.48 287.814 1561.97 282.147C1559.47 276.48 1558.79 269.334 1562.67 264.507C1563.16 263.894 1563.75 263.307 1564.49 263.054C1565.92 262.574 1567.47 263.427 1568.56 264.48C1573.28 269.04 1573.01 276.587 1572.07 283.08C1571.12 289.574 1569.95 296.787 1571.15 298.28Z" fill="#AD0000"/>
</g>
<defs>
<radialGradient id="paint0_radial_101_1141" cx="0" cy="0" r="1" gradientUnits="userSpaceOnUse" gradientTransform="translate(1634.12 471.657) rotate(6.42498) scale(87.4227 47.2265)">
<stop stop-color="#DB7A62"/>
<stop offset="0.448" stop-color="#DC7C64"/>
<stop offset="0.6093" stop-color="#DE826B"/>
<stop offset="0.7243" stop-color="#E28C76"/>
<stop offset="0.8173" stop-color="#E79B87"/>
<stop offset="0.897" stop-color="#EFAF9D"/>
<stop offset="0.9662" stop-color="#F8C7B8"/>
<stop offset="1" stop-color="#FDD5C8"/>
</radialGradient>
<radialGradient id="paint1_radial_101_1141" cx="0" cy="0" r="1" gradientUnits="userSpaceOnUse" gradientTransform="translate(1635.72 472.137) rotate(6.42497) scale(61.3099 33.1201)">
<stop stop-color="#BD0002"/>
<stop offset="0.5039" stop-color="#BA0002"/>
<stop offset="0.8398" stop-color="#B10001"/>
<stop offset="1" stop-color="#AA0000"/>
</radialGradient>
<radialGradient id="paint2_radial_101_1141" cx="0" cy="0" r="1" gradientUnits="userSpaceOnUse" gradientTransform="translate(1637.43 468.427) rotate(6.42497) scale(31.9018 19.9333)">
<stop stop-color="#FFB86B"/>
<stop offset="0.1977" stop-color="#FAAD5D"/>
<stop offset="0.418" stop-color="#F6A552"/>
<stop offset="0.5102" stop-color="#F5A150"/>
<stop offset="0.6009" stop-color="#F0954A"/>
<stop offset="0.6911" stop-color="#EA8141"/>
<stop offset="0.7809" stop-color="#E06633"/>
<stop offset="0.8705" stop-color="#D34222"/>
<stop offset="0.9588" stop-color="#C4170D"/>
<stop offset="1" stop-color="#BC0002"/>
</radialGradient>
<radialGradient id="paint3_radial_101_1141" cx="0" cy="0" r="1" gradientUnits="userSpaceOnUse" gradientTransform="translate(1601.24 468.476) rotate(6.42501) scale(14.4572 7.80997)">
<stop stop-color="#FECBDA"/>
<stop offset="1" stop-color="#B80001"/>
</radialGradient>
<radialGradient id="paint4_radial_101_1141" cx="0" cy="0" r="1" gradientUnits="userSpaceOnUse" gradientTransform="translate(1602.23 476.761) rotate(6.42499) scale(10.9406 5.03268)">
<stop stop-color="#FECBDA"/>
<stop offset="0.3853" stop-color="#FDC9D8"/>
<stop offset="0.5241" stop-color="#FBC3D1"/>
<stop offset="0.623" stop-color="#F8B8C5"/>
<stop offset="0.703" stop-color="#F3A8B5"/>
<stop offset="0.7716" stop-color="#EC939F"/>
<stop offset="0.8322" stop-color="#E47A83"/>
<stop offset="0.8872" stop-color="#DA5B63"/>
<stop offset="0.9376" stop-color="#CE383D"/>
<stop offset="0.9825" stop-color="#C21114"/>
<stop offset="1" stop-color="#BC0002"/>
</radialGradient>
<clipPath id="clip0_101_1141">
<rect width="2000" height="1040" fill="white"/>
</clipPath>
</defs>
</svg>
