<svg width="2000" height="1040" viewBox="0 0 2000 1040" fill="none" xmlns="http://www.w3.org/2000/svg">
<rect width="2000" height="1040" fill="#9BAFBD"/>
<path d="M1073.51 932.63C975.216 912.426 943.725 915.017 883.352 900.235C880.744 899.604 878.101 898.922 875.373 898.206C863.217 895.052 851.009 891.847 838.699 888.59C747.859 864.567 653.864 838.345 564.149 814.458C492.489 795.363 421 775.517 350.209 753.37C321.771 744.487 293.315 735.161 263.819 730.881C229.668 725.903 196.626 727.335 162.8 720.583C142.766 716.559 118.47 711.581 93.7996 710.626C60.8426 709.381 31.9946 705.443 5.12434 709.876C3.67512 710.098 2.20886 710.37 0.759634 710.677C-1.76372 709.637 4.45938 472.511 7.22143 371.866C7.97162 344.723 8.46613 327.52 8.46613 327.52C52.7952 324.11 97.4142 324.605 141.641 329.004C184.47 333.283 228.611 341.058 269.803 328.594C283.102 324.571 295.668 318.552 308.182 312.551C340.355 297.087 372.51 281.657 404.683 266.227C432.287 252.843 460.487 237.771 488.704 222.716C500.639 216.322 512.624 209.963 525.105 204.763C543.501 197.073 562.87 192.061 582.17 187.031C625.613 175.727 669.243 164.406 713.844 159.206C736.913 156.529 760.748 155.319 782.589 148.09C785.521 147.135 788.403 146.061 791.267 144.833C792.085 144.492 792.887 144.151 793.705 143.793C794.813 143.299 795.905 142.77 796.996 142.225C803.679 138.9 810.107 134.808 816.552 130.563C820.797 127.784 825.025 124.953 829.356 122.259C838.546 116.531 848.094 111.433 858.733 108.841C862.364 107.955 866.115 107.358 870.036 107.153C870.872 107.085 871.724 107.068 872.577 107.034C896.174 116.804 904.579 148.09 896.804 172.42C889.047 196.766 869.542 215.334 850.003 231.803C834.812 244.574 818.495 257.054 799.263 261.998C782.759 266.21 764.942 264.607 749.086 270.864C734.747 276.525 722.847 288.306 710.332 296.831C708.167 298.28 706.019 299.644 703.802 300.872C702.984 301.332 702.166 301.758 701.347 302.167C721.21 302.525 741.09 302.918 760.953 303.327C876.566 305.646 991.754 308.595 1104.15 314.222C1182.64 314.955 1261.07 322.883 1338.12 337.938C1339.26 338.142 1340.39 338.364 1341.53 338.603C1348.84 340.052 1356.14 341.552 1363.42 343.121C1366.03 343.683 1368.55 344.348 1371.01 345.116C1382.46 348.713 1392.08 354.663 1398.75 364.348C1401.27 367.979 1403.38 372.173 1405 376.964C1407.87 385.489 1407.25 402.607 1400.86 414.081C1392.15 429.699 1374.79 438.769 1357.3 442.588C1339.84 446.425 1305.47 448.709 1303.97 448.641C1121.18 440.781 1048.55 440.611 921.168 449.664C915.968 450.022 903.778 452.733 899.123 455.052C893.207 458.001 891.468 462.69 891.4 468.231C891.331 472.92 892.491 478.188 893.394 483.593C897.145 484.07 900.879 484.565 904.63 485.025L904.698 485.025C946.504 490.396 988.532 495.204 1030.61 493.499C1050.75 492.663 1070.9 490.362 1091.02 491.402C1131 493.499 1161.04 504.888 1200.13 508.536C1244.38 512.68 1297.68 512.782 1340.83 523.455C1375.75 532.065 1400.57 533.412 1422.21 538.731C1429.62 540.522 1436.65 542.823 1443.6 546.029C1443.62 546.029 1443.62 546.029 1443.62 546.029C1449.83 548.893 1455.95 552.456 1462.19 557.094C1462.85 557.571 1463.47 558.066 1464.08 558.594C1471.6 565.022 1476.29 574.331 1478.11 584.356C1480.41 596.837 1478.25 610.391 1471.5 620.774C1458.9 640.16 1438.69 656.118 1415.63 654.737C1388.14 653.084 1368.21 653.936 1344.27 652.674C1319.72 651.362 1295.46 646.622 1271.01 639.734C1190.35 644.593 1109.19 641.029 1029.26 629.112C997.534 624.355 965.975 618.319 934.177 614.04C923.18 612.539 902.823 609.01 891.962 611.227C881.801 613.273 881.784 621.797 881.17 630.68L881.119 631.55C881.068 631.908 881.051 632.249 881.033 632.624C912.541 650.219 950.05 652.129 985.718 657.721C1063.65 669.912 1138.42 701.351 1217.53 705.648C1236.35 712.416 1256.6 713.712 1276.43 716.304C1281.5 716.969 1286.61 717.736 1291.66 718.708C1306.39 721.555 1320.76 726.09 1332.87 734.734C1334.25 735.74 1335.61 736.78 1336.94 737.889C1350.99 749.84 1360.06 768.629 1355.7 786.395C1349.85 810.179 1323.49 822.864 1299.23 826.172C1272.48 829.837 1245.35 826.172 1218.62 822.489C1178.02 816.897 1137.41 811.321 1096.81 805.729C1046.16 798.773 995.13 791.731 946.862 774.903C919.532 765.373 891.877 752.585 863.609 749.926L863.592 749.926C855.254 749.107 846.832 749.192 838.375 750.522C835.221 751 831.965 751.75 829.237 753.335C828.162 753.949 827.174 754.716 826.304 755.637C824.735 757.325 823.866 759.712 823.866 761.997C823.866 763.719 824.395 765.407 825.52 766.651C825.776 766.924 826.065 767.197 826.389 767.419C827.463 768.186 828.725 768.578 829.987 768.97C886.063 786.207 942.156 803.461 998.233 820.682C1025.85 829.189 1053.61 837.714 1082.25 841.329C1099.97 843.562 1118.48 844.074 1134.31 852.292C1134.94 852.616 1135.55 852.957 1136.15 853.315C1140.72 855.923 1144.59 859.112 1147.66 862.794C1154.42 870.893 1157.41 881.413 1155.84 893.569C1154.05 907.55 1144.19 922.604 1132.72 929.1C1122.12 935.102 1078.83 933.721 1073.51 932.63Z" fill="#FEE4DB"/>
<path d="M0.760107 710.677C-1.76324 709.637 4.45996 472.51 7.22201 371.866C7.97219 344.723 8.4666 327.52 8.4666 327.52C52.7957 324.11 97.4146 324.605 141.641 329.003C184.47 333.283 228.612 341.058 269.804 328.594C283.103 324.571 295.668 318.552 308.183 312.551C340.355 297.086 372.511 281.657 404.684 266.227C432.287 252.843 460.487 237.771 488.704 222.716C500.639 216.322 512.625 209.963 525.105 204.763C543.502 197.073 562.87 192.061 582.171 187.031C625.613 175.727 669.243 164.406 713.845 159.206C736.913 156.529 760.749 155.319 782.589 148.09C785.522 147.135 788.403 146.061 791.268 144.833C792.086 144.492 792.887 144.151 793.706 143.793C794.814 143.299 795.905 142.77 796.996 142.225C803.68 138.9 810.107 134.808 816.552 130.562L829.357 122.259C834.011 123.214 838.683 124.169 843.337 125.124C845.315 125.533 847.276 125.925 849.253 126.334C854.692 127.425 860.864 129.13 863.302 133.989C863.388 134.143 863.49 134.313 863.558 134.467C864.7 137.058 864.564 139.565 863.575 141.883C861.171 147.527 853.635 152.113 847.19 154.551C809.698 168.532 770.944 182.717 730.98 180.825C720.767 180.348 710.469 178.796 700.41 180.484C687.998 182.547 676.95 189.282 665.884 195.266C645.493 206.297 623.891 215.112 601.624 221.574C595.759 223.279 589.57 224.966 585.205 229.229C563.382 223.5 538.95 228.956 521.627 243.431C554.584 244.71 587.047 256.866 612.741 277.548C612.621 278.451 612.383 279.27 611.99 279.986C609.331 285.169 600.669 285.851 594.191 285.032C559.938 280.6 525.651 276.184 491.364 271.785C538.711 299.951 596.782 309.754 653.864 310.129C657.82 310.181 661.775 310.147 665.731 310.078C667.777 310.061 669.823 310.01 671.869 309.959C701.655 309.192 731.338 306.276 760.987 303.327C876.601 305.645 991.789 308.595 1104.18 314.221C1182.68 314.955 1261.1 322.883 1338.15 337.938C1336.57 339.284 1334.67 340.342 1332.68 341.228C1330.82 342.098 1328.84 342.797 1326.95 343.428C1310.4 349.02 1292.17 354.595 1275.94 348.15C1270.14 345.849 1264.53 342.012 1258.33 342.558C1248.22 343.462 1243 354.851 1239.86 364.518C1236.31 349.429 1220.24 338.398 1204.89 340.529C1203.19 349.651 1197.87 358.005 1190.35 363.427C1195.14 355.328 1189.53 344.314 1181.19 339.983C1172.86 335.67 1162.93 336.164 1153.56 336.761C1127.42 338.449 1101.25 340.12 1075.11 341.808C1042.77 330.691 1003.64 328.441 967.032 337.085C955.933 339.728 945.004 343.308 933.666 344.519C916.054 346.377 897.811 342.183 882.79 332.788C882.091 343.717 872.714 353.453 861.802 354.544C860.506 349.616 859.193 344.672 857.864 339.745C850.566 335.397 842.86 344.655 839.245 352.344C835.614 360.034 827.379 369.036 820.405 364.194C814.626 360.187 816.91 350.674 812.614 345.115C806.868 337.682 794.899 342.456 787.704 348.508C781.413 353.811 774.866 360.051 766.648 360.426C758.447 360.818 750.263 350.537 755.787 344.45C684.162 362.983 611.428 381.943 547.713 419.554C517.484 437.422 483.146 460.252 450.24 448.01C446.217 446.51 442.193 444.344 439.942 440.713C436.26 434.797 438.51 426.664 443.233 421.549C447.956 416.451 454.622 413.655 461.05 411.029C403.337 415.667 346.135 417.764 309.939 382.591C305.233 378.038 300.919 372.855 295.14 369.786C278.294 360.801 258.602 372.872 241.467 381.295C216.455 393.588 187.846 398.361 160.226 394.883C147.2 393.23 134.174 389.785 121.097 391.115C108.02 392.445 94.3628 400.118 91.2257 412.871C89.2991 420.697 91.6178 428.846 93.3228 436.74C102.871 481.052 92.9989 526.967 83.1612 571.211C78.95 590.102 74.7045 609.129 67.0663 626.912C53.3754 658.829 29.6763 685.017 5.21004 709.927C3.67557 710.114 2.22638 710.387 0.760107 710.677Z" fill="#E0AFA1"/>
<path d="M657.614 310.471C656.37 310.419 655.091 310.317 653.812 310.113C646.583 309.038 639.559 305.697 635.45 299.729C632.739 295.757 631.562 291.119 631.136 286.294C630.778 282.288 630.932 278.127 631.119 274.138C631.614 263.362 632.637 251.445 640.479 244.079C647.657 237.276 658.62 236.322 666.787 230.763C672.431 226.927 676.488 221.062 682.336 217.55C692.771 211.293 706.291 213.952 717.783 209.997C725.949 207.184 732.837 201.114 741.294 199.443C746.256 198.471 751.336 199.102 756.383 199.034C764.72 198.915 772.904 196.869 780.917 194.482C809.783 185.838 837.13 172.181 861.392 154.296C862.688 153.324 864.035 152.318 864.87 150.903C866.558 148.09 865.671 144.475 863.574 141.85C863.08 141.219 862.483 140.622 861.852 140.145C860.573 139.173 859.175 138.457 857.675 137.945C856.993 137.689 856.294 137.468 855.561 137.28C855.544 137.263 855.51 137.263 855.493 137.263C853.805 136.837 852.1 136.53 850.395 136.24C844.104 135.166 837.795 134.126 831.504 133.052C826.525 132.216 821.547 131.364 816.568 130.529L829.373 122.225C838.562 116.497 848.11 111.399 858.749 108.807C862.381 107.921 866.132 107.324 870.053 107.119C870.889 107.051 871.741 107.034 872.593 107C896.19 116.769 904.596 148.056 896.821 172.385C889.063 196.732 869.559 215.299 850.02 231.769C834.829 244.54 818.512 257.02 799.28 261.964C782.776 266.176 764.959 264.573 749.103 270.83C734.764 276.491 722.863 288.272 710.349 296.797C713.196 296.933 716.009 297.052 718.857 297.121C713.827 298.331 708.831 299.576 703.836 300.855C696.794 302.611 689.77 304.452 682.763 306.31C677.153 307.811 671.493 309.362 665.73 310.061C663.002 310.402 660.308 310.556 657.614 310.471Z" fill="#E0AFA1"/>
<path d="M1370.99 345.099C1382.44 348.696 1392.06 354.646 1398.73 364.33L1370.99 345.099Z" fill="#FEE4DB"/>
<path d="M57.9594 376.691C41.2507 374.935 23.6043 370.758 7.21957 371.866C7.96976 344.723 8.46427 327.52 8.46427 327.52C52.7934 324.11 97.4123 324.605 141.639 329.004C184.468 333.283 228.609 341.058 269.801 328.594C283.1 324.571 295.666 318.552 308.18 312.551C340.353 297.087 372.509 281.657 404.681 266.227C432.285 252.843 460.485 237.771 488.702 222.716C500.637 216.322 512.623 209.963 525.103 204.763C543.5 197.073 562.868 192.061 582.168 187.031C625.611 175.727 669.241 164.406 713.843 159.206C736.911 156.529 760.746 155.319 782.587 148.09C785.519 147.135 788.401 146.061 791.265 144.833C792.084 144.492 792.885 144.151 793.703 143.793C804.973 146.248 816.567 146.794 827.803 145.362C835.236 144.424 842.534 142.617 849.473 139.906L849.49 139.906C851.144 139.241 852.78 138.559 854.383 137.809C854.434 137.792 854.451 137.758 854.502 137.741C854.843 137.604 855.167 137.451 855.474 137.28C855.935 137.076 856.361 136.871 856.787 136.649C856.804 136.666 856.855 136.701 856.855 136.735C857.213 137.093 857.486 137.502 857.657 137.962C858.458 139.889 857.742 142.446 856.224 144.015C854.315 145.993 851.536 146.794 848.91 147.51C807.087 158.899 764.02 165.787 720.748 168.021C709.648 168.617 698.464 168.89 687.672 171.38C671.969 175.045 657.715 183.229 642.388 188.225C630.112 192.248 617.239 194.158 604.657 197.039C588.238 200.79 572.262 206.161 556.321 211.497C537.311 217.891 517.465 224.779 503.859 239.476C500.296 243.346 497.585 250.302 502.018 253.133C503.74 254.241 505.973 254.139 508.019 254.036C532.571 252.723 557.736 254.804 580.378 264.385C591.17 268.955 601.264 275.178 611.971 279.952C614.494 281.06 617.069 282.117 619.695 283.021C623.445 284.334 627.265 285.391 631.152 286.277C636.471 287.505 641.876 288.442 647.264 289.346C660.204 291.511 673.128 293.557 686.188 294.956C694.219 295.825 702.266 296.439 710.33 296.797C713.178 296.933 715.991 297.053 718.838 297.121C713.809 298.331 708.813 299.576 703.817 300.855C702.999 301.315 702.181 301.741 701.362 302.15C721.225 302.508 741.105 302.901 760.968 303.31C876.582 305.629 991.769 308.578 1104.16 314.205C1182.66 314.938 1261.09 322.866 1338.13 337.921C1339.28 338.125 1340.4 338.347 1341.54 338.586C1338.59 339.54 1335.63 340.41 1332.66 341.228C1330.68 341.774 1328.69 342.302 1326.68 342.797C1323.39 343.615 1319.94 344.348 1316.67 343.496C1313.8 342.763 1311.4 340.887 1308.6 339.932C1300.78 337.273 1292.32 342.268 1284.1 341.484C1275.15 340.614 1267.99 333.096 1259.06 331.885C1254.28 331.22 1249.49 332.482 1244.72 333.13C1215.67 337.085 1185.59 319.354 1157.68 328.305C1093.52 336.812 1026.65 310.027 962.768 324.571C947.969 327.93 933.05 333.522 918.046 331.322C908.413 329.907 899.445 325.321 889.829 323.701C881.697 322.354 873.376 323.156 865.159 323.923C756.45 334.306 643.394 340.103 541.334 301.264C528.377 296.336 515.402 290.642 501.574 289.483C451.193 290.761 401.8 310.607 356.448 334.715C342.126 342.302 327.668 350.52 311.641 352.924C298.274 354.919 284.618 352.771 271.114 353.811C258.174 354.817 245.676 358.738 232.991 361.449C219.215 364.365 205.166 365.865 191.168 367.331C169.055 369.65 146.925 371.986 124.811 374.305C102.544 376.674 80.1751 379.01 57.9594 376.691Z" fill="#99685A"/>
<path d="M1295.92 560.845C1295.9 562.141 1295.63 563.453 1295.15 564.783C1295.27 563.419 1295.51 562.106 1295.92 560.845Z" fill="#E0AFA1"/>
<path d="M1273.38 541.118C1260.06 539.499 1243.64 545.977 1242.13 559.327C1242.88 547.614 1228.3 541.92 1216.74 539.805C1196.89 536.174 1176.52 532.525 1160.75 537.282C1142.9 530.241 1123.44 527.393 1104.33 529.047C1099.54 529.456 1094.72 530.155 1089.92 529.729C1085.03 529.303 1080.33 527.7 1075.52 526.745C1053.22 522.244 1030.23 531.161 1007.58 529.286C988.957 527.734 970.56 518.988 952.266 522.756C943.997 524.478 936.444 528.689 928.379 531.229C920.332 533.77 910.869 534.435 903.981 529.524C901.475 527.751 899.412 525.313 896.599 524.086C887 519.874 876.412 531.928 866.404 528.859C856.873 525.927 855.236 511.793 846.149 507.769C839.448 504.785 831.844 508.587 824.547 509.287C817.659 509.951 810.515 507.65 807.429 502.347C777.098 502.415 746.783 504.103 716.64 507.411C686.087 510.753 654.698 515.68 625.032 507.599C658.023 494.709 695.208 499.568 729.734 491.776C752.325 486.679 773.33 476.295 795.119 468.401C816.926 460.507 840.659 455.12 863.181 460.542C872.61 462.809 881.936 466.952 891.416 468.18C891.348 472.868 892.507 478.137 893.41 483.542C897.161 484.019 900.895 484.513 904.646 484.974L904.714 484.974C946.52 490.344 988.548 495.152 1030.63 493.447C1050.76 492.612 1070.91 490.31 1091.03 491.35C1131.01 493.447 1161.06 504.837 1200.15 508.485C1244.39 512.628 1297.69 512.731 1340.84 523.404C1375.76 532.014 1400.59 533.361 1422.22 538.68C1416.37 540.47 1410.88 543.267 1405.94 546.864C1394.94 554.843 1386.69 566.693 1383.64 579.957C1383.03 568.705 1378.78 557.708 1371.69 548.978C1362.87 557.145 1356.87 568.278 1354.89 580.128C1350.05 566.556 1341.75 552.934 1328.31 547.733C1316.12 543.045 1299.79 548.978 1295.97 560.811C1296.31 550.871 1284.24 542.414 1273.38 541.118Z" fill="#E0AFA1"/>
<path d="M1405.9 546.915C1388.77 546.08 1370.53 543.966 1352.42 541.851C1315.34 537.538 1278.24 533.19 1241.17 528.877C1204.29 524.58 1167.4 520.284 1130.88 513.72C1115.26 510.906 1099.49 507.667 1083.63 508.741C1073.01 509.474 1062.63 512.1 1052.04 513.259C1037.67 514.828 1023.17 513.651 1008.78 512.373C937.244 506.115 865.857 498.034 794.726 488.077C817.231 490.055 838.219 464.975 860.265 471.487C868.431 473.874 874.791 480.285 882.685 483.439C889.726 486.287 897.143 486.321 904.628 485.025L904.696 485.025C946.502 490.396 988.529 495.204 1030.61 493.499C1050.74 492.663 1070.9 490.361 1091.01 491.401C1131 493.499 1161.04 504.888 1200.13 508.536C1244.38 512.679 1297.67 512.782 1340.83 523.455C1375.74 532.065 1400.57 533.412 1422.2 538.731C1429.62 540.522 1436.65 542.823 1443.6 546.029C1432.08 547.512 1419.32 547.597 1405.9 546.915Z" fill="#99685A"/>
<path d="M881.122 630.68C862.094 627.066 843.05 623.57 823.971 620.195C815.787 618.745 807.263 617.347 799.232 619.632C797.067 620.246 794.987 621.201 793.077 622.445C787.877 625.787 784.058 631.226 784.331 637.295C795.311 639.614 806.512 642.018 817.39 645.207C834.934 650.373 851.626 657.55 865.18 669.622C867.635 671.821 870.108 674.242 873.313 675.009C875.512 675.538 877.814 675.197 880.065 674.941C893.108 673.424 906.304 674.31 919.364 675.504C983.283 681.352 1046.54 694.651 1107.4 714.991C1118.81 718.81 1132.52 726.567 1130.71 738.468C1144.68 730.574 1163.46 732.347 1175.72 742.714C1177.82 732.092 1187.91 723.754 1198.62 723.158C1199.83 723.089 1201.02 723.106 1202.23 723.243C1205.25 723.567 1208.15 724.539 1210.78 725.988C1218.57 730.301 1224.13 738.945 1223.94 747.948C1241.04 740.923 1259.15 736.371 1277.56 734.427C1285.83 733.541 1294.18 733.183 1302.5 733.353C1302.37 725.596 1297.71 721.333 1291.61 718.673C1286.56 717.702 1281.45 716.917 1276.38 716.27C1256.56 713.678 1236.3 712.382 1217.48 705.613C1138.37 701.317 1063.6 669.877 985.67 657.687C950.002 652.095 912.493 650.185 880.985 632.59C881.002 632.232 881.036 631.891 881.07 631.516L881.122 630.68Z" fill="#E0AFA1"/>
<path d="M1336.89 737.889C1320.59 736.934 1304.29 735.996 1287.99 735.075C1284.51 734.871 1281.03 734.666 1277.55 734.462C1255.1 733.08 1232.63 731.239 1210.77 726.022C1209.88 725.817 1208.98 725.613 1208.09 725.391C1204.96 724.59 1201.8 723.737 1198.61 723.192C1195.41 722.578 1192.15 722.288 1188.93 722.663C1182.59 723.413 1176.77 726.67 1170.43 727.386C1159.74 728.562 1149.78 722.527 1140.3 717.446C1106.07 699.186 1067.26 691.735 1029.12 684.506C1006.06 680.124 982.97 675.76 960.158 670.253C935.248 664.251 908.463 657.005 884.73 666.638C885.429 657.823 875.267 652.606 866.862 649.844C851.858 644.934 836.854 640.006 821.851 635.062C816.94 633.476 812.047 631.857 807.137 630.237C810.615 630.527 814.11 630.851 817.588 631.141L817.605 631.141C838.798 632.897 860.093 634.09 881.081 631.533C881.03 631.891 881.013 632.232 880.996 632.607C912.504 650.202 950.013 652.112 985.681 657.704C1063.61 669.894 1138.38 701.334 1217.49 705.631C1236.31 712.399 1256.57 713.695 1276.39 716.287C1281.46 716.952 1286.57 717.719 1291.62 718.691C1306.35 721.538 1320.72 726.073 1332.83 734.717C1334.21 735.74 1335.57 736.78 1336.89 737.889Z" fill="#99685A"/>
<path d="M829.201 753.353C799.347 745.578 769.51 737.786 739.656 729.977C770.874 731 802.28 732.075 832.764 738.758C843.489 741.094 854.247 744.265 863.539 749.943C855.202 749.124 846.779 749.209 838.323 750.539C835.168 751.017 831.929 751.767 829.201 753.353Z" fill="#E0AFA1"/>
<path d="M1122.63 925.264C1111.37 924.838 1100.17 923.338 1089.23 920.746C1082.07 919.058 1074.22 916.296 1071.07 909.647C1068.43 904.14 1069.84 897.661 1071.32 891.727C1071.92 889.358 1072.5 887.022 1073.08 884.652C1073.71 882.112 1074.39 879.469 1075.47 877.082C1076.29 875.292 1077.31 873.655 1078.74 872.257C1081.59 869.512 1085.54 868.25 1089.4 867.329C1104.13 863.732 1119.61 863.169 1134.56 865.624C1135.24 871.08 1135.6 876.656 1135.6 882.265C1135.6 894.762 1133.85 907.481 1130.21 919.638C1129.69 921.462 1128.99 923.389 1127.42 924.429C1126.04 925.332 1124.26 925.298 1122.63 925.264Z" fill="#F2CEC4"/>
<path d="M1059.04 853.195C1055.95 851.831 1052.97 850.246 1049.74 849.308C1039.24 846.239 1027.9 850.348 1017.09 848.626C1005.86 846.836 996.139 838.822 984.784 838.14C978.766 837.748 972.764 839.487 966.763 838.908C952.288 837.544 942.194 823.648 928.435 818.994C915.836 814.748 901.838 818.704 888.897 815.635C875.053 812.361 863.8 801.33 849.751 799.011C839.504 797.324 829.019 800.512 818.636 799.966C809.701 799.506 801.126 796.301 792.788 793.061C771.016 784.553 749.465 775.449 728.187 765.765C743.532 755.484 761.69 746.942 779.899 750.011C791.714 752.006 802.796 758.757 813.947 763.224C817.766 764.725 821.602 765.969 825.489 766.685C825.745 766.958 826.035 767.231 826.359 767.453C827.433 768.22 828.695 768.612 829.956 769.004C886.033 786.241 942.126 803.496 998.203 820.716C1025.82 829.224 1053.58 837.748 1082.22 841.363C1099.94 843.596 1118.45 844.108 1134.28 852.326C1134.91 852.65 1135.52 852.991 1136.12 853.349C1130.34 854.764 1124.52 856.06 1118.66 857.1C1098.27 860.748 1077.67 861.43 1059.04 853.195Z" fill="#E0AFA1"/>
<path d="M811.264 621.576C792.424 621.917 773.431 623.792 755.495 629.606C737.559 635.42 720.679 645.445 708.762 660.04C751.744 645.905 797.914 641.558 842.789 647.423C828.501 641.115 815.305 632.3 811.264 621.576Z" fill="#E0AFA1"/>
<path d="M1147.62 862.811C1137.86 861.533 1128.17 859.623 1118.66 857.083C1113.8 855.804 1108.99 854.372 1104.25 852.769C1098.68 850.877 1093.12 848.762 1087.29 848.012C1080.93 847.194 1074.4 848.063 1068.28 850.007C1066.72 850.502 1065.14 851.081 1063.52 850.945C1061.87 850.791 1060.38 849.871 1058.95 849.035C1046.74 842.011 1032.47 838.618 1018.39 839.402C1014.96 839.607 1011.43 840.033 1008.07 839.266C1004.73 838.516 1001.78 836.623 998.747 835.02C989.046 829.854 977.93 827.365 966.421 828.678C956.788 814.783 938.477 810.52 921.87 807.332C904.633 804.007 887.379 800.717 870.125 797.392C867.789 796.931 865.351 796.437 863.51 794.937C862.401 794.033 861.583 792.823 860.594 791.783C857.184 788.083 852.154 786.514 847.432 784.809C834.252 780.087 821.789 773.352 810.587 764.946C811.661 764.213 812.77 763.668 813.929 763.241C816.998 762.065 820.391 761.809 823.818 762.031C823.818 763.753 824.346 765.441 825.472 766.685C825.727 766.958 826.017 767.231 826.341 767.453C827.415 768.22 828.677 768.612 829.939 769.004C886.015 786.241 942.108 803.496 998.185 820.716C1025.81 829.224 1053.56 837.748 1082.21 841.363C1099.92 843.596 1118.44 844.108 1134.26 852.326C1134.89 852.65 1135.5 852.991 1136.1 853.349C1140.69 855.94 1144.56 859.129 1147.62 862.811Z" fill="#99685A"/>
<path d="M883.355 900.235C880.746 899.604 878.104 898.922 875.376 898.206C863.219 895.052 851.012 891.847 838.702 888.59C840.765 883.527 842.845 878.446 844.891 873.399C845.556 871.813 846.238 870.143 847.533 869.034C850.892 866.119 856.058 868.165 860.491 867.722C866.339 867.125 870.585 862.215 874.762 858.106C878.939 853.997 884.906 850.195 890.328 852.428C888.282 862.47 883.986 871.984 882.622 882.146C881.803 888.164 882.076 894.302 883.355 900.235Z" fill="#E1AFA1"/>
<path d="M1371.79 427.789C1358.27 427.124 1344.8 425.215 1331.64 422.078C1330.48 421.805 1329.25 421.481 1328.42 420.645C1327.67 419.912 1327.31 418.889 1326.97 417.9C1321.19 400.032 1321.58 380.238 1328.08 362.642C1328.44 361.688 1328.81 360.716 1329.25 359.778C1329.94 358.329 1330.77 356.931 1331.9 355.772C1335.72 351.833 1341.79 351.424 1347.26 351.39C1359.47 351.322 1371.69 351.952 1383.83 353.282C1388.08 357.562 1390.72 362.336 1392.27 367.331C1393.96 372.702 1394.37 378.328 1394.16 383.852C1393.77 394.508 1391.18 404.977 1388.59 415.309C1387.68 419.009 1386.59 422.964 1383.63 425.351C1380.42 427.96 1375.9 427.994 1371.79 427.789Z" fill="#F2CEC4"/>
<path d="M1436.81 634.397C1431.15 633.647 1425.48 632.897 1419.82 632.146C1409.82 630.834 1398.55 628.737 1393.09 620.263C1388.61 613.307 1389.6 604.287 1390.98 596.138C1391.98 590.204 1393.16 584.135 1396.21 578.951C1397.46 576.837 1398.99 574.911 1400.59 573.069C1401.53 572.029 1402.48 571.006 1403.44 570C1405.67 567.63 1407.96 565.175 1410.92 563.811C1413.6 562.584 1416.64 562.311 1419.59 562.158C1433.41 561.339 1455.59 558.117 1456.43 560.742C1457.98 565.653 1460.78 576.445 1461.34 582.958C1461.43 583.862 1461.48 584.714 1461.46 585.413C1461.34 589.966 1462.19 597.297 1461.32 601.781C1459.82 609.573 1459.46 615.097 1457.96 622.906C1457.35 626.094 1453.79 629.47 1451.54 631.788C1447.9 635.488 1441.94 635.079 1436.81 634.397Z" fill="#F2CEC4"/>
<path d="M1134.68 882.163C1121.19 879.418 1107.4 878.224 1093.64 878.616C1087.52 878.77 1081.07 879.162 1075.45 877.099C1076.27 875.309 1077.29 873.672 1078.72 872.274C1081.57 869.529 1085.52 868.267 1089.38 867.347C1104.11 863.749 1119.59 863.186 1134.54 865.642C1135.22 871.097 1135.58 876.673 1135.58 882.282C1135.29 882.265 1134.97 882.231 1134.68 882.163Z" fill="#E0AFA1"/>
<path d="M1282.47 806.138C1279.04 804.979 1275.58 803.598 1272.9 801.177C1266.13 795.107 1266.1 784.673 1266.83 775.602C1267.12 771.988 1267.45 768.305 1268.66 764.895C1270.57 759.524 1274.54 755.091 1279.36 752.005C1280.64 751.187 1281.97 750.454 1283.34 749.823C1289.88 746.822 1297.2 745.868 1304.39 745.816C1315.03 745.731 1325.67 747.47 1335.71 750.983C1337.76 755.978 1339.11 761.195 1339.86 766.481C1341.34 777.375 1340.2 788.713 1337.04 799.438C1335.73 803.854 1333.75 808.525 1329.66 810.622C1327.43 811.765 1324.84 811.935 1322.35 812.037C1308.81 812.498 1295.24 810.486 1282.47 806.138Z" fill="#F2CEC4"/>
<path d="M1329.25 359.778C1329.93 358.329 1330.77 356.931 1331.89 355.772C1335.71 351.833 1341.78 351.424 1347.25 351.39C1359.46 351.322 1371.69 351.952 1383.83 353.282C1388.07 357.562 1390.71 362.336 1392.27 367.331C1371.86 361.432 1350.48 358.892 1329.25 359.778Z" fill="#E0AFA1"/>
<path d="M1461.34 582.941C1442.84 576.803 1423.37 573.53 1403.9 573.308C1402.8 573.291 1401.66 573.291 1400.61 573.052C1401.54 572.012 1402.5 570.989 1403.45 569.984C1405.69 567.614 1407.97 565.158 1410.94 563.794C1413.61 562.567 1416.65 562.294 1419.6 562.141C1433.43 561.322 1455.61 558.1 1456.44 560.725C1457.96 565.653 1460.76 576.445 1461.34 582.941Z" fill="#E0AFA1"/>
<path d="M1339.84 766.498C1339.79 766.498 1339.77 766.481 1339.72 766.447C1322.52 756.097 1300.57 755.808 1280.3 752.261C1279.98 752.21 1279.64 752.142 1279.35 752.005C1280.63 751.187 1281.96 750.454 1283.32 749.823C1289.87 746.822 1297.18 745.868 1304.38 745.816C1315.02 745.731 1325.65 747.47 1335.7 750.983C1337.76 755.995 1339.09 761.195 1339.84 766.498Z" fill="#E0AFA1"/>
<path d="M1091.49 357.17C1091.68 380.391 1092.12 427.857 1092.12 427.857C1087.37 404.653 1091.49 357.17 1091.49 357.17Z" fill="#E0AFA1"/>
<path d="M1106.11 356.488C1107.2 375.055 1106.84 413.314 1106.84 413.314C1102.94 394.781 1106.11 356.488 1106.11 356.488Z" fill="#E0AFA1"/>
<path d="M1245.88 405.642C1245.88 395.412 1253.43 375.379 1253.43 375.379C1252.63 391.661 1246.17 424.72 1246.17 424.72C1245.97 418.378 1245.88 412.001 1245.88 405.642Z" fill="#E0AFA1"/>
<path d="M1093.88 613C1095.3 592.711 1107.14 553.087 1107.14 553.087C1104.26 573.035 1093.88 613 1093.88 613Z" fill="#E0AFA1"/>
<path d="M1114.19 619.035C1122.22 592.54 1130.42 537.061 1130.42 537.061C1132.24 565.482 1114.19 619.035 1114.19 619.035Z" fill="#E0AFA1"/>
<path d="M1292.66 568.449C1292.66 568.449 1292.73 597.263 1291.44 610.971C1291.44 610.988 1288.69 582.106 1292.66 568.449Z" fill="#E0AFA1"/>
<path d="M1032.18 763.957C1034.57 753.591 1045.7 724.931 1045.7 724.931C1039.15 743.822 1029.67 789.378 1029.67 789.378C1028.04 781.399 1030.76 770.163 1032.18 763.957Z" fill="#E0AFA1"/>
<path d="M1055.4 725.817C1055.4 725.817 1052.81 766.003 1049.4 785.355C1049.42 785.355 1050.41 745.015 1055.4 725.817Z" fill="#E0AFA1"/>
<path d="M1193.23 781.689C1193.16 773.488 1197.08 756.166 1197.08 756.166L1194.83 794.783C1194.85 794.766 1193.26 785.184 1193.23 781.689Z" fill="#E0AFA1"/>
<path d="M1014.24 867.057C1014.24 867.057 1016.08 892.12 1014.46 903.952C1014.46 903.952 1011.56 878.889 1014.24 867.057Z" fill="#E0AFA1"/>
<path d="M918.115 897.251C919.41 879.486 933.152 846.051 933.152 846.051C928.958 862.965 918.115 897.251 918.115 897.251Z" fill="#E0AFA1"/>
<path d="M514.603 757.598C499.735 757.223 484.237 756.711 471.825 751.63C458.202 746.055 450.291 735.808 442.926 725.988C427.53 705.443 414.453 683.347 418.545 660.108C423.967 629.419 431.52 598.78 441.17 568.347C444.767 557.026 448.689 545.688 452.457 535.015C455.884 525.552 455.321 515.851 456.907 506.269C458.475 496.67 462.857 486.457 473.513 479.825C484.186 473.193 502.463 472.238 509.573 479.944C511.585 482.127 512.54 484.752 514.194 487.088C519.002 493.84 529.317 497.693 539.905 499.5C550.492 501.307 561.711 501.427 572.521 502.705C590.184 504.786 608.052 510.992 613.832 522.722C614.258 523.591 614.616 524.478 614.906 525.381C619.083 538.373 609.467 553.428 614.224 566.488C616.321 572.285 621.146 577.264 623.55 582.975C624.42 585.055 624.965 587.152 625.238 589.301C627.062 602.804 618.725 617.467 619.731 631.345C620.43 640.774 625.408 649.639 625.17 659.119C624.505 684.54 588.138 704.71 578.249 729.739C576.544 734.052 575.606 738.536 572.657 742.577C567.61 749.499 557.193 754.103 546.622 756.097C536.068 758.109 525.225 757.871 514.603 757.598Z" fill="#E39F8D"/>
<path d="M514.433 750.966C500.964 750.556 486.932 749.994 475.662 745.152C463.301 739.849 456.089 730.165 449.372 720.907C435.34 701.504 423.388 680.653 427.002 658.812C431.776 629.947 438.494 601.15 447.104 572.575C450.309 561.936 453.805 551.28 457.18 541.255C460.249 532.372 459.687 523.233 461.085 514.214C462.466 505.195 466.387 495.596 476.02 489.39C485.67 483.201 502.209 482.382 508.687 489.662C510.512 491.725 511.398 494.198 512.899 496.397C517.28 502.774 526.641 506.439 536.24 508.195C545.839 509.952 556 510.105 565.787 511.35C581.796 513.379 598.011 519.312 603.296 530.377C603.688 531.195 604.012 532.048 604.285 532.883C608.121 545.125 599.477 559.259 603.842 571.569C605.768 577.025 610.167 581.748 612.366 587.118C613.168 589.079 613.662 591.057 613.935 593.086C615.64 605.788 608.155 619.564 609.144 632.624C609.809 641.49 614.361 649.861 614.191 658.795C613.696 682.716 580.842 701.539 571.993 725.05C570.458 729.108 569.64 733.319 566.98 737.104C562.428 743.6 553.016 747.88 543.452 749.704C533.887 751.528 524.066 751.255 514.433 750.966Z" fill="#C2553C"/>
<path d="M516.716 741.298C504.423 740.889 491.636 740.344 481.338 735.808C470.051 730.847 463.453 721.828 457.298 713.184C444.46 695.111 433.514 675.674 436.753 655.368C441.05 628.532 447.102 601.764 454.877 575.184C457.775 565.295 460.947 555.389 463.999 546.08C466.778 537.811 466.249 529.32 467.494 520.932C468.738 512.543 472.285 503.626 481.048 497.88C489.829 492.135 504.918 491.419 510.851 498.204C512.522 500.131 513.34 502.433 514.721 504.479C518.745 510.412 527.27 513.856 536.033 515.51C544.78 517.164 554.055 517.334 562.989 518.511C577.583 520.437 592.382 525.978 597.242 536.293C597.6 537.061 597.889 537.845 598.145 538.629C601.674 550.018 593.832 563.146 597.821 574.604C599.594 579.685 603.601 584.083 605.63 589.096C606.363 590.92 606.823 592.762 607.062 594.637C608.648 606.47 601.845 619.257 602.783 631.413C603.414 639.665 607.591 647.457 607.437 655.76C607.045 678.01 577.123 695.435 569.11 717.292C567.729 721.06 566.978 724.982 564.574 728.494C560.448 734.53 551.872 738.485 543.16 740.156C534.448 741.878 525.497 741.588 516.716 741.298Z" fill="url(#paint0_linear_101_1048)"/>
<path d="M473.445 652.538C477.588 642.069 481.714 631.601 485.857 621.132C486.931 618.422 488.057 615.625 490.461 613.392C493.683 610.374 498.679 608.823 503.214 607.015C510.477 604.117 517.331 600.23 525.242 598.951C543.622 595.967 559.205 608.652 562.359 622.053C565.513 635.454 560.347 649.52 558.694 663.33C557.466 673.628 558.199 683.943 555.983 694.207C553.766 704.471 548.072 715.076 536.853 721.708C531.772 724.709 525.549 726.806 519.309 726.806C508.704 726.823 500.298 721.078 494.109 715.008C488.415 709.416 483.675 703.278 480.043 696.731C477.622 692.383 475.662 687.626 476.855 682.818C477.52 680.124 479.157 677.516 479.464 674.805C480.418 666.706 470.462 660.074 473.445 652.538Z" fill="url(#paint1_radial_101_1048)"/>
<path d="M516.291 517.419C512.864 515.391 509.164 513.276 504.663 513.021C500.162 512.765 494.808 515.271 494.757 518.664C494.706 521.869 499.207 524.256 498.695 527.462C498.32 529.781 495.405 531.571 492.472 532.543C489.54 533.514 486.351 533.992 483.623 535.287C480.895 536.583 478.713 539.107 479.787 541.221C480.793 543.216 484.033 543.864 486.88 544.29C491.5 544.955 497.007 545.449 500.588 542.909C502.412 541.63 503.333 539.79 504.987 538.392C510.562 533.704 522.701 534.964 526.077 529.286C527.731 526.507 526.06 523.302 523.144 521.443C520.229 519.585 516.342 518.783 516.291 517.419Z" fill="url(#paint2_linear_101_1048)"/>
<path d="M456.944 661.302C464.002 661.523 470.055 665.786 470.703 670.986C471.01 673.39 470.277 675.862 469.254 678.232C468.862 679.153 468.401 680.09 467.498 680.806C465.793 682.153 462.911 682.307 460.814 681.557C458.717 680.806 457.302 679.323 456.228 677.789C453.329 673.68 452.375 668.752 453.551 663.978C453.841 662.904 454.813 661.233 456.944 661.302Z" fill="#AD4024"/>
<path d="M573.338 652.095C573.543 650.287 575.282 648.736 576.373 647.065C581.3 639.665 573.304 632.027 571.565 624.218C569.877 616.597 574.412 608.652 579.647 601.559C582.34 597.911 585.358 593.955 584.506 590.017C583.96 587.442 581.829 585.328 579.749 583.316C576.339 579.992 572.929 576.684 569.519 573.359C567.371 571.279 565.103 568.705 566.314 566.062C567.32 563.846 570.355 562.516 572.963 561.135C580.772 557.026 586.518 550.649 588.547 543.846C591.53 541.545 594.787 539.823 598.145 538.646C601.675 550.035 593.832 563.164 597.822 574.621C599.595 579.702 603.601 584.101 605.63 589.113C606.363 590.938 606.824 592.779 607.062 594.654C606.295 595.37 605.562 596.121 604.88 596.888C600.277 602.173 598.572 608.396 597.02 614.449C596.219 617.62 595.4 620.809 595.383 623.997C595.366 627.816 596.492 631.516 596.577 635.335C596.679 640.313 594.923 645.394 591.581 649.895C589.45 652.76 586.364 655.556 582.187 656.425C578.044 657.329 573.014 655.266 573.338 652.095Z" fill="url(#paint3_linear_101_1048)"/>
<path d="M499.382 568.977C503.371 569.097 507.446 568.449 511.436 568.585C515.425 568.722 519.637 569.915 521.188 572.592C522.723 575.235 521.205 578.44 519.227 581.117C515.17 586.607 509.219 591.261 503.15 595.677C497.574 599.718 490.448 603.963 483.218 602.821C478.683 602.122 475.393 599.394 473.023 596.513C470.67 593.665 468.914 590.426 468.897 586.965C468.897 582.31 472.136 577.707 476.586 574.161C478.308 572.797 480.508 571.467 482.929 571.552C485.844 571.671 488.453 573.854 491.181 572.882C493.909 571.91 493.84 568.654 496.483 567.528C497.319 567.886 498.171 568.244 499.382 568.977Z" fill="url(#paint4_linear_101_1048)"/>
<path d="M516.803 634.022C526.777 638.336 535.199 644.49 541.201 651.822C543.264 654.345 545.088 657.124 545.31 660.159C545.463 662.324 544.798 664.507 544.133 666.655C542.803 671.02 541.457 675.367 540.127 679.732C538.456 685.171 536.734 690.712 532.71 695.537C530.391 698.333 526.606 701.044 522.378 700.805C519.087 700.618 516.666 698.708 514.569 696.918C509.437 692.553 504.169 688.001 502.004 682.324C500.384 678.112 500.588 673.526 499.412 669.212C497.605 662.648 492.575 656.442 494.263 649.674C496.224 641.814 506.692 636.238 516.803 634.022Z" fill="url(#paint5_radial_101_1048)"/>
<defs>
<linearGradient id="paint0_linear_101_1048" x1="595.131" y1="640.066" x2="459.395" y2="568.863" gradientUnits="userSpaceOnUse">
<stop stop-color="#D15B49"/>
<stop offset="1" stop-color="#D1755E"/>
</linearGradient>
<radialGradient id="paint1_radial_101_1048" cx="0" cy="0" r="1" gradientUnits="userSpaceOnUse" gradientTransform="translate(521.549 663.329) rotate(76.1274) scale(62.6776 75.8892)">
<stop stop-color="#D38A65"/>
<stop offset="1" stop-color="#C45B4B"/>
</radialGradient>
<linearGradient id="paint2_linear_101_1048" x1="500.598" y1="513.179" x2="504.294" y2="543.449" gradientUnits="userSpaceOnUse">
<stop stop-color="#B34527"/>
<stop offset="1" stop-color="#CE7A58"/>
</linearGradient>
<linearGradient id="paint3_linear_101_1048" x1="588.374" y1="539.782" x2="591.946" y2="660.151" gradientUnits="userSpaceOnUse">
<stop stop-color="#D16C4F"/>
<stop offset="1" stop-color="#BD4E35"/>
</linearGradient>
<linearGradient id="paint4_linear_101_1048" x1="518.199" y1="568.751" x2="484.915" y2="601.394" gradientUnits="userSpaceOnUse">
<stop stop-color="#C36E59"/>
<stop offset="0.2865" stop-color="#C26952"/>
<stop offset="0.6943" stop-color="#BE5C40"/>
<stop offset="1" stop-color="#BA4E2D"/>
</linearGradient>
<radialGradient id="paint5_radial_101_1048" cx="0" cy="0" r="1" gradientUnits="userSpaceOnUse" gradientTransform="translate(522.187 666.948) rotate(76.1274) scale(33.6557 39.5511)">
<stop stop-color="#D49E7F"/>
<stop offset="0.2315" stop-color="#D09477"/>
<stop offset="0.6175" stop-color="#C57B61"/>
<stop offset="1" stop-color="#B85B46"/>
</radialGradient>
</defs>
</svg>
