<svg width="1278" height="1080" viewBox="0 0 1278 1080" fill="none" xmlns="http://www.w3.org/2000/svg">
<g clip-path="url(#clip0_86_152)">
<path d="M1278 0H0V1080H1278V0Z" fill="#9BAFBD"/>
<path d="M896.79 342.13C884.94 399.78 886.46 418.25 877.79 453.66C877.42 455.19 877.02 456.74 876.6 458.34C874.75 465.47 872.87 472.63 870.96 479.85C856.87 533.13 841.49 588.26 827.48 640.88C816.28 682.91 804.64 724.84 791.65 766.36C786.44 783.04 780.97 799.73 778.46 817.03C775.54 837.06 776.38 856.44 772.42 876.28C770.06 888.03 767.14 902.28 766.58 916.75C765.85 936.08 763.54 953 766.14 968.76C766.27 969.61 766.43 970.47 766.61 971.32C766 972.8 626.92 969.15 567.89 967.53C551.97 967.09 541.88 966.8 541.88 966.8C539.88 940.8 540.17 914.63 542.75 888.69C545.26 863.57 549.82 837.68 542.51 813.52C540.15 805.72 536.62 798.35 533.1 791.01C524.03 772.14 514.98 753.28 505.93 734.41C498.08 718.22 489.24 701.68 480.41 685.13C476.66 678.13 472.93 671.1 469.88 663.78C465.37 652.99 462.43 641.63 459.48 630.31C452.85 604.83 446.21 579.24 443.16 553.08C441.59 539.55 440.88 525.57 436.64 512.76C436.08 511.04 435.45 509.35 434.73 507.67C434.53 507.19 434.33 506.72 434.12 506.24C433.83 505.59 433.52 504.95 433.2 504.31C431.25 500.39 428.85 496.62 426.36 492.84C424.73 490.35 423.07 487.87 421.49 485.33C418.13 479.94 415.14 474.34 413.62 468.1C413.1 465.97 412.75 463.77 412.63 461.47C412.59 460.98 412.58 460.48 412.56 459.98C418.29 446.14 436.64 441.21 450.91 445.77C465.19 450.32 476.08 461.76 485.74 473.22C493.23 482.13 500.55 491.7 503.45 502.98C505.92 512.66 504.98 523.11 508.65 532.41C511.97 540.82 518.88 547.8 523.88 555.14C524.73 556.41 525.53 557.67 526.25 558.97C526.52 559.45 526.77 559.93 527.01 560.41C527.22 548.76 527.45 537.1 527.69 525.45C529.05 457.64 530.78 390.08 534.08 324.16C534.51 278.12 539.16 232.12 547.99 186.93C548.11 186.26 548.24 185.6 548.38 184.93C549.23 180.64 550.11 176.36 551.03 172.09C551.36 170.56 551.75 169.08 552.2 167.64C554.31 160.92 557.8 155.28 563.48 151.37C565.61 149.89 568.07 148.65 570.88 147.7C575.88 146.02 585.92 146.38 592.65 150.13C601.81 155.24 607.13 165.42 609.37 175.68C611.62 185.92 612.96 206.08 612.92 206.96C608.31 314.17 608.21 356.77 613.52 431.48C613.73 434.53 615.32 441.68 616.68 444.41C618.41 447.88 621.16 448.9 624.41 448.94C627.16 448.98 630.25 448.3 633.42 447.77C633.7 445.57 633.99 443.38 634.26 441.18V441.14C637.41 416.62 640.23 391.97 639.23 367.29C638.74 355.48 637.39 343.66 638 331.86C639.23 308.41 645.91 290.79 648.05 267.86C650.48 241.91 650.54 210.65 656.8 185.34C661.85 164.86 662.64 150.3 665.76 137.61C666.81 133.26 668.16 129.14 670.04 125.06C670.04 125.05 670.04 125.05 670.04 125.05C671.72 121.41 673.81 117.82 676.53 114.16C676.81 113.77 677.1 113.41 677.41 113.05C681.18 108.64 686.64 105.89 692.52 104.82C699.84 103.47 707.79 104.74 713.88 108.7C725.25 116.09 734.61 127.94 733.8 141.47C732.83 157.59 733.33 169.28 732.59 183.32C731.82 197.72 729.04 211.95 725 226.29C727.85 273.6 725.76 321.2 718.77 368.08C715.98 386.69 712.44 405.2 709.93 423.85C709.05 430.3 706.98 442.24 708.28 448.61C709.48 454.57 714.48 454.58 719.69 454.94L720.2 454.97C720.41 455 720.61 455.01 720.83 455.02C731.15 436.54 732.27 414.54 735.55 393.62C742.7 347.91 761.14 304.06 763.66 257.66C767.63 246.62 768.39 234.74 769.91 223.11C770.3 220.14 770.75 217.14 771.32 214.18C772.99 205.54 775.65 197.11 780.72 190.01C781.31 189.2 781.92 188.4 782.57 187.62C789.58 179.38 800.6 174.06 811.02 176.62C824.97 180.05 832.41 195.51 834.35 209.74C836.5 225.43 834.35 241.34 832.19 257.02C828.91 280.83 825.64 304.65 822.36 328.46C818.28 358.17 814.15 388.1 804.28 416.41C798.69 432.44 791.19 448.66 789.63 465.24V465.25C789.15 470.14 789.2 475.08 789.98 480.04C790.26 481.89 790.7 483.8 791.63 485.4C791.99 486.03 792.44 486.61 792.98 487.12C793.97 488.04 795.37 488.55 796.71 488.55C797.72 488.55 798.71 488.24 799.44 487.58C799.6 487.43 799.76 487.26 799.89 487.07C800.34 486.44 800.57 485.7 800.8 484.96C810.91 452.07 821.03 419.17 831.13 386.28C836.12 370.08 841.12 353.8 843.24 337C844.55 326.61 844.85 315.75 849.67 306.47C849.86 306.1 850.06 305.74 850.27 305.39C851.8 302.71 853.67 300.44 855.83 298.64C860.58 294.67 866.75 292.92 873.88 293.84C882.08 294.89 890.91 300.67 894.72 307.4C898.24 313.62 897.43 339.01 896.79 342.13Z" fill="#FEE4DB"/>
<path d="M766.61 971.32C766 972.8 626.92 969.15 567.89 967.53C551.97 967.09 541.88 966.8 541.88 966.8C539.88 940.8 540.17 914.63 542.75 888.69C545.26 863.57 549.82 837.68 542.51 813.52C540.15 805.72 536.62 798.35 533.1 791.01C524.03 772.14 514.98 753.28 505.93 734.41C498.08 718.22 489.24 701.68 480.41 685.13C476.66 678.13 472.93 671.1 469.88 663.78C465.37 652.99 462.43 641.63 459.48 630.31C452.85 604.83 446.21 579.24 443.16 553.08C441.59 539.55 440.88 525.57 436.64 512.76C436.08 511.04 435.45 509.35 434.73 507.67C434.53 507.19 434.33 506.72 434.12 506.24C433.83 505.59 433.52 504.95 433.2 504.31C431.25 500.39 428.85 496.62 426.36 492.84L421.49 485.33C422.05 482.6 422.61 479.86 423.17 477.13C423.41 475.97 423.64 474.82 423.88 473.66C424.52 470.47 425.52 466.85 428.37 465.42C428.46 465.37 428.56 465.31 428.65 465.27C430.17 464.6 431.64 464.68 433 465.26C436.31 466.67 439 471.09 440.43 474.87C448.63 496.86 456.95 519.59 455.84 543.03C455.56 549.02 454.65 555.06 455.64 560.96C456.85 568.24 460.8 574.72 464.31 581.21C470.78 593.17 475.95 605.84 479.74 618.9C480.74 622.34 481.73 625.97 484.23 628.53C480.87 641.33 484.07 655.66 492.56 665.82C493.31 646.49 500.44 627.45 512.57 612.38C513.1 612.45 513.58 612.59 514 612.82C517.04 614.38 517.44 619.46 516.96 623.26C514.36 643.35 511.77 663.46 509.19 683.57C525.71 655.8 531.46 621.74 531.68 588.26C531.71 585.94 531.69 583.62 531.65 581.3C531.64 580.1 531.61 578.9 531.58 577.7C531.13 560.23 529.42 542.82 527.69 525.43C529.05 457.62 530.78 390.06 534.08 324.14C534.51 278.1 539.16 232.1 547.99 186.91C548.78 187.84 549.4 188.95 549.92 190.12C550.43 191.21 550.84 192.37 551.21 193.48C554.49 203.19 557.76 213.88 553.98 223.4C552.63 226.8 550.38 230.09 550.7 233.73C551.23 239.66 557.91 242.72 563.58 244.56C554.73 246.64 548.26 256.07 549.51 265.07C554.86 266.07 559.76 269.19 562.94 273.6C558.19 270.79 551.73 274.08 549.19 278.97C546.66 283.86 546.95 289.68 547.3 295.18C548.29 310.51 549.27 325.86 550.26 341.19C543.74 360.16 542.42 383.11 547.49 404.58C549.04 411.09 551.14 417.5 551.85 424.15C552.94 434.48 550.48 445.18 544.97 453.99C551.38 454.4 557.09 459.9 557.73 466.3C554.84 467.06 551.94 467.83 549.05 468.61C546.5 472.89 551.93 477.41 556.44 479.53C560.95 481.66 566.23 486.49 563.39 490.58C561.04 493.97 555.46 492.63 552.2 495.15C547.84 498.52 550.64 505.54 554.19 509.76C557.3 513.45 560.96 517.29 561.18 522.11C561.41 526.92 555.38 531.72 551.81 528.48C562.68 570.49 573.8 613.15 595.86 650.52C606.34 668.25 619.73 688.39 612.55 707.69C611.67 710.05 610.4 712.41 608.27 713.73C604.8 715.89 600.03 714.57 597.03 711.8C594.04 709.03 592.4 705.12 590.86 701.35C593.58 735.2 594.81 768.75 574.18 789.98C571.51 792.74 568.47 795.27 566.67 798.66C561.4 808.54 568.48 820.09 573.42 830.14C580.63 844.81 583.43 861.59 581.39 877.79C580.42 885.43 578.4 893.07 579.18 900.74C579.96 908.41 584.46 916.42 591.94 918.26C596.53 919.39 601.31 918.03 605.94 917.03C631.93 911.43 658.86 917.22 684.81 922.99C695.89 925.46 707.05 927.95 717.48 932.43C736.2 940.46 751.56 954.36 766.17 968.71C766.28 969.61 766.44 970.46 766.61 971.32Z" fill="#E0AFA1"/>
<path d="M531.88 586.06C531.85 586.79 531.79 587.54 531.67 588.29C531.04 592.53 529.08 596.65 525.58 599.06C523.25 600.65 520.53 601.34 517.7 601.59C515.35 601.8 512.91 601.71 510.57 601.6C504.25 601.31 497.26 600.71 492.94 596.11C488.95 591.9 488.39 585.47 485.13 580.68C482.88 577.37 479.44 574.99 477.38 571.56C473.71 565.44 475.27 557.51 472.95 550.77C471.3 545.98 467.74 541.94 466.76 536.98C466.19 534.07 466.56 531.09 466.52 528.13C466.45 523.24 465.25 518.44 463.85 513.74C458.78 496.81 450.77 480.77 440.28 466.54C439.71 465.78 439.12 464.99 438.29 464.5C436.64 463.51 434.52 464.03 432.98 465.26C432.61 465.55 432.26 465.9 431.98 466.27C431.41 467.02 430.99 467.84 430.69 468.72C430.54 469.12 430.41 469.53 430.3 469.96C430.29 469.97 430.29 469.99 430.29 470C430.04 470.99 429.86 471.99 429.69 472.99C429.06 476.68 428.45 480.38 427.82 484.07C427.33 486.99 426.83 489.91 426.34 492.83L421.47 485.32C418.11 479.93 415.12 474.33 413.6 468.09C413.08 465.96 412.73 463.76 412.61 461.46C412.57 460.97 412.56 460.47 412.54 459.97C418.27 446.13 436.62 441.2 450.89 445.76C465.17 450.31 476.06 461.75 485.72 473.21C493.21 482.12 500.53 491.69 503.43 502.97C505.9 512.65 504.96 523.1 508.63 532.4C511.95 540.81 518.86 547.79 523.86 555.13C523.94 553.46 524.01 551.81 524.05 550.14C524.76 553.09 525.49 556.02 526.24 558.95C527.27 563.08 528.35 567.2 529.44 571.31C530.32 574.6 531.23 577.92 531.64 581.3C531.84 582.9 531.93 584.48 531.88 586.06Z" fill="#E0AFA1"/>
<path d="M552.19 167.65C554.3 160.93 557.79 155.29 563.47 151.38L552.19 167.65Z" fill="#FEE4DB"/>
<path d="M570.72 937.77C569.69 947.57 567.24 957.92 567.89 967.53C551.97 967.09 541.88 966.8 541.88 966.8C539.88 940.8 540.17 914.63 542.75 888.69C545.26 863.57 549.82 837.68 542.51 813.52C540.15 805.72 536.62 798.35 533.1 791.01C524.03 772.14 514.98 753.28 505.93 734.41C498.08 718.22 489.24 701.68 480.41 685.13C476.66 678.13 472.93 671.1 469.88 663.78C465.37 652.99 462.43 641.63 459.48 630.31C452.85 604.83 446.21 579.24 443.16 553.08C441.59 539.55 440.88 525.57 436.64 512.76C436.08 511.04 435.45 509.35 434.73 507.67C434.53 507.19 434.33 506.72 434.12 506.24C435.56 499.63 435.88 492.83 435.04 486.24C434.49 481.88 433.43 477.6 431.84 473.53V473.52C431.45 472.55 431.05 471.59 430.61 470.65C430.6 470.62 430.58 470.61 430.57 470.58C430.49 470.38 430.4 470.19 430.3 470.01C430.18 469.74 430.06 469.49 429.93 469.24C429.94 469.23 429.96 469.2 429.98 469.2C430.19 468.99 430.43 468.83 430.7 468.73C431.83 468.26 433.33 468.68 434.25 469.57C435.41 470.69 435.88 472.32 436.3 473.86C442.98 498.39 447.02 523.65 448.33 549.03C448.68 555.54 448.84 562.1 450.3 568.43C452.45 577.64 457.25 586 460.18 594.99C462.54 602.19 463.66 609.74 465.35 617.12C467.55 626.75 470.7 636.12 473.83 645.47C477.58 656.62 481.62 668.26 490.24 676.24C492.51 678.33 496.59 679.92 498.25 677.32C498.9 676.31 498.84 675 498.78 673.8C498.01 659.4 499.23 644.64 504.85 631.36C507.53 625.03 511.18 619.11 513.98 612.83C514.63 611.35 515.25 609.84 515.78 608.3C516.55 606.1 517.17 603.86 517.69 601.58C518.41 598.46 518.96 595.29 519.49 592.13C520.76 584.54 521.96 576.96 522.78 569.3C523.29 564.59 523.65 559.87 523.86 555.14C523.94 553.47 524.01 551.82 524.05 550.15C524.76 553.1 525.49 556.03 526.24 558.96C526.51 559.44 526.76 559.92 527 560.4C527.21 548.75 527.44 537.09 527.68 525.44C529.04 457.63 530.77 390.07 534.07 324.15C534.5 278.11 539.15 232.11 547.98 186.92C548.1 186.25 548.23 185.59 548.37 184.92C548.93 186.65 549.44 188.39 549.92 190.13C550.24 191.29 550.55 192.46 550.84 193.64C551.32 195.57 551.75 197.59 551.25 199.51C550.82 201.19 549.72 202.6 549.16 204.24C547.6 208.83 550.53 213.79 550.07 218.61C549.56 223.86 545.15 228.06 544.44 233.3C544.05 236.1 544.79 238.91 545.17 241.71C547.49 258.75 537.09 276.39 542.34 292.76C547.33 330.39 531.62 369.61 540.15 407.08C542.12 415.76 545.4 424.51 544.11 433.31C543.28 438.96 540.59 444.22 539.64 449.86C538.85 454.63 539.32 459.51 539.77 464.33C545.86 528.09 549.26 594.4 526.48 654.26C523.59 661.86 520.25 669.47 519.57 677.58C520.32 707.13 531.96 736.1 546.1 762.7C550.55 771.1 555.37 779.58 556.78 788.98C557.95 796.82 556.69 804.83 557.3 812.75C557.89 820.34 560.19 827.67 561.78 835.11C563.49 843.19 564.37 851.43 565.23 859.64C566.59 872.61 567.96 885.59 569.32 898.56C570.71 911.62 572.08 924.74 570.72 937.77Z" fill="#99685A"/>
<path d="M678.73 211.68C679.49 211.69 680.26 211.85 681.04 212.13C680.24 212.06 679.47 211.92 678.73 211.68Z" fill="#E0AFA1"/>
<path d="M667.16 224.9C666.21 232.71 670.01 242.34 677.84 243.23C670.97 242.79 667.63 251.34 666.39 258.12C664.26 269.76 662.12 281.71 664.91 290.96C660.78 301.43 659.11 312.84 660.08 324.05C660.32 326.86 660.73 329.69 660.48 332.5C660.23 335.37 659.29 338.13 658.73 340.95C656.09 354.03 661.32 367.51 660.22 380.8C659.31 391.72 654.18 402.51 656.39 413.24C657.4 418.09 659.87 422.52 661.36 427.25C662.85 431.97 663.24 437.52 660.36 441.56C659.32 443.03 657.89 444.24 657.17 445.89C654.7 451.52 661.77 457.73 659.97 463.6C658.25 469.19 649.96 470.15 647.6 475.48C645.85 479.41 648.08 483.87 648.49 488.15C648.88 492.19 647.53 496.38 644.42 498.19C644.46 515.98 645.45 533.76 647.39 551.44C649.35 569.36 652.24 587.77 647.5 605.17C639.94 585.82 642.79 564.01 638.22 543.76C635.23 530.51 629.14 518.19 624.51 505.41C619.88 492.62 616.72 478.7 619.9 465.49C621.23 459.96 623.66 454.49 624.38 448.93C627.13 448.97 630.22 448.29 633.39 447.76C633.67 445.56 633.96 443.37 634.23 441.17V441.13C637.38 416.61 640.2 391.96 639.2 367.28C638.71 355.47 637.36 343.65 637.97 331.85C639.2 308.4 645.88 290.78 648.02 267.85C650.45 241.9 650.51 210.64 656.77 185.33C661.82 164.85 662.61 150.29 665.73 137.6C666.78 141.03 668.42 144.25 670.53 147.15C675.21 153.6 682.16 158.44 689.94 160.23C683.34 160.59 676.89 163.08 671.77 167.24C676.56 172.41 683.09 175.93 690.04 177.09C682.08 179.93 674.09 184.8 671.04 192.68C668.29 199.83 671.77 209.41 678.71 211.65C672.88 211.45 667.92 218.53 667.16 224.9Z" fill="#E0AFA1"/>
<path d="M670.56 147.17C670.07 157.22 668.83 167.92 667.59 178.54C665.06 200.29 662.51 222.05 659.98 243.79C657.46 265.42 654.94 287.06 651.09 308.48C649.44 317.64 647.54 326.89 648.17 336.19C648.6 342.42 650.14 348.51 650.82 354.72C651.74 363.15 651.05 371.65 650.3 380.09C646.63 422.05 641.89 463.92 636.05 505.64C637.21 492.44 622.5 480.13 626.32 467.2C627.72 462.41 631.48 458.68 633.33 454.05C635 449.92 635.02 445.57 634.26 441.18V441.14C637.41 416.62 640.23 391.97 639.23 367.29C638.74 355.48 637.39 343.66 638 331.86C639.23 308.41 645.91 290.79 648.05 267.86C650.48 241.91 650.54 210.65 656.8 185.34C661.85 164.86 662.64 150.3 665.76 137.61C666.81 133.26 668.16 129.14 670.04 125.06C670.91 131.82 670.96 139.3 670.56 147.17Z" fill="#99685A"/>
<path d="M719.69 454.97C717.57 466.13 715.52 477.3 713.54 488.49C712.69 493.29 711.87 498.29 713.21 503C713.57 504.27 714.13 505.49 714.86 506.61C716.82 509.66 720.01 511.9 723.57 511.74C724.93 505.3 726.34 498.73 728.21 492.35C731.24 482.06 735.45 472.27 742.53 464.32C743.82 462.88 745.24 461.43 745.69 459.55C746 458.26 745.8 456.91 745.65 455.59C744.76 447.94 745.28 440.2 745.98 432.54C749.41 395.05 757.21 357.95 769.14 322.25C771.38 315.56 775.93 307.52 782.91 308.58C778.28 300.39 779.32 289.37 785.4 282.18C779.17 280.95 774.28 275.03 773.93 268.75C773.89 268.04 773.9 267.34 773.98 266.63C774.17 264.86 774.74 263.16 775.59 261.62C778.12 257.05 783.19 253.79 788.47 253.9C784.35 243.87 781.68 233.25 780.54 222.45C780.02 217.6 779.81 212.7 779.91 207.82C775.36 207.9 772.86 210.63 771.3 214.21C770.73 217.17 770.27 220.17 769.89 223.14C768.37 234.77 767.61 246.65 763.64 257.69C761.12 304.09 742.68 347.94 735.53 393.65C732.25 414.57 731.13 436.57 720.81 455.05C720.6 455.04 720.4 455.02 720.18 455L719.69 454.97Z" fill="#E0AFA1"/>
<path d="M782.57 187.65C782.01 197.21 781.46 206.77 780.92 216.33C780.8 218.37 780.68 220.41 780.56 222.45C779.75 235.62 778.67 248.8 775.61 261.62C775.49 262.14 775.37 262.67 775.24 263.19C774.77 265.03 774.27 266.88 773.95 268.75C773.59 270.63 773.42 272.54 773.64 274.43C774.08 278.15 775.99 281.56 776.41 285.28C777.1 291.55 773.56 297.39 770.58 302.95C759.87 323.03 755.5 345.79 751.26 368.16C748.69 381.69 746.13 395.23 742.9 408.61C739.38 423.22 735.13 438.93 740.78 452.85C735.61 452.44 732.55 458.4 730.93 463.33C728.05 472.13 725.16 480.93 722.26 489.73C721.33 492.61 720.38 495.48 719.43 498.36C719.6 496.32 719.79 494.27 719.96 492.23V492.22C720.99 479.79 721.69 467.3 720.19 454.99C720.4 455.02 720.6 455.03 720.82 455.04C731.14 436.56 732.26 414.56 735.54 393.64C742.69 347.93 761.13 304.08 763.65 257.68C767.62 246.64 768.38 234.76 769.9 223.13C770.29 220.16 770.74 217.16 771.31 214.2C772.98 205.56 775.64 197.13 780.71 190.03C781.31 189.22 781.92 188.42 782.57 187.65Z" fill="#99685A"/>
<path d="M791.64 485.42C787.08 502.93 782.51 520.43 777.93 537.94C778.53 519.63 779.16 501.21 783.08 483.33C784.45 477.04 786.31 470.73 789.64 465.28C789.16 470.17 789.21 475.11 789.99 480.07C790.27 481.92 790.71 483.82 791.64 485.42Z" fill="#E0AFA1"/>
<path d="M892.47 313.32C892.22 319.92 891.34 326.49 889.82 332.91C888.83 337.11 887.21 341.71 883.31 343.56C880.08 345.11 876.28 344.28 872.8 343.41C871.41 343.06 870.04 342.72 868.65 342.38C867.16 342.01 865.61 341.61 864.21 340.98C863.16 340.5 862.2 339.9 861.38 339.06C859.77 337.39 859.03 335.07 858.49 332.81C856.38 324.17 856.05 315.09 857.49 306.32C860.69 305.92 863.96 305.71 867.25 305.71C874.58 305.71 882.04 306.74 889.17 308.87C890.24 309.18 891.37 309.59 891.98 310.51C892.51 311.32 892.49 312.36 892.47 313.32Z" fill="#F2CEC4"/>
<path d="M850.2 350.62C849.4 352.43 848.47 354.18 847.92 356.07C846.12 362.23 848.53 368.88 847.52 375.22C846.47 381.81 841.77 387.51 841.37 394.17C841.14 397.7 842.16 401.22 841.82 404.74C841.02 413.23 832.87 419.15 830.14 427.22C827.65 434.61 829.97 442.82 828.17 450.41C826.25 458.53 819.78 465.13 818.42 473.37C817.43 479.38 819.3 485.53 818.98 491.62C818.71 496.86 816.83 501.89 814.93 506.78C809.94 519.55 804.6 532.19 798.92 544.67C792.89 535.67 787.88 525.02 789.68 514.34C790.85 507.41 794.81 500.91 797.43 494.37C798.31 492.13 799.04 489.88 799.46 487.6C799.62 487.45 799.78 487.28 799.91 487.09C800.36 486.46 800.59 485.72 800.82 484.98C810.93 452.09 821.05 419.19 831.15 386.3C836.14 370.1 841.14 353.82 843.26 337.02C844.57 326.63 844.87 315.77 849.69 306.49C849.88 306.12 850.08 305.76 850.29 305.41C851.12 308.8 851.88 312.21 852.49 315.65C854.63 327.61 855.03 339.69 850.2 350.62Z" fill="#E0AFA1"/>
<path d="M714.35 495.94C714.55 506.99 715.65 518.13 719.06 528.65C722.47 539.17 728.35 549.07 736.91 556.06C728.62 530.85 726.07 503.77 729.51 477.45C725.81 485.83 720.64 493.57 714.35 495.94Z" fill="#E0AFA1"/>
<path d="M855.84 298.66C855.09 304.39 853.97 310.07 852.48 315.65C851.73 318.5 850.89 321.32 849.95 324.1C848.84 327.37 847.6 330.63 847.16 334.05C846.68 337.78 847.19 341.61 848.33 345.2C848.62 346.11 848.96 347.04 848.88 347.99C848.79 348.96 848.25 349.83 847.76 350.67C843.64 357.83 841.65 366.2 842.11 374.46C842.23 376.47 842.48 378.54 842.03 380.51C841.59 382.47 840.48 384.2 839.54 385.98C836.51 391.67 835.05 398.19 835.82 404.94C827.67 410.59 825.17 421.33 823.3 431.07C821.35 441.18 819.42 451.3 817.47 461.42C817.2 462.79 816.91 464.22 816.03 465.3C815.5 465.95 814.79 466.43 814.18 467.01C812.01 469.01 811.09 471.96 810.09 474.73C807.32 482.46 803.37 489.77 798.44 496.34C798.01 495.71 797.69 495.06 797.44 494.38C796.75 492.58 796.6 490.59 796.73 488.58C797.74 488.58 798.73 488.27 799.46 487.61C799.62 487.46 799.78 487.29 799.91 487.1C800.36 486.47 800.59 485.73 800.82 484.99C810.93 452.1 821.05 419.2 831.15 386.31C836.14 370.11 841.14 353.83 843.26 337.03C844.57 326.64 844.87 315.78 849.69 306.5C849.88 306.13 850.08 305.77 850.29 305.42C851.81 302.73 853.68 300.46 855.84 298.66Z" fill="#99685A"/>
<path d="M877.79 453.66C877.42 455.19 877.02 456.74 876.6 458.34C874.75 465.47 872.87 472.63 870.96 479.85C867.99 478.64 865.01 477.42 862.05 476.22C861.12 475.83 860.14 475.43 859.49 474.67C857.78 472.7 858.98 469.67 858.72 467.07C858.37 463.64 855.49 461.15 853.08 458.7C850.67 456.25 848.44 452.75 849.75 449.57C855.64 450.77 861.22 453.29 867.18 454.09C870.71 454.57 874.31 454.41 877.79 453.66Z" fill="#E1AFA1"/>
<path d="M600.69 167.18C600.3 175.11 599.18 183.01 597.34 190.73C597.18 191.41 596.99 192.13 596.5 192.62C596.07 193.06 595.47 193.27 594.89 193.47C584.41 196.86 572.8 196.63 562.48 192.82C561.92 192.61 561.35 192.39 560.8 192.13C559.95 191.73 559.13 191.24 558.45 190.58C556.14 188.34 555.9 184.78 555.88 181.57C555.84 174.41 556.21 167.24 556.99 160.12C559.5 157.63 562.3 156.08 565.23 155.17C568.38 154.18 571.68 153.94 574.92 154.06C581.17 154.29 587.31 155.81 593.37 157.33C595.54 157.86 597.86 158.5 599.26 160.24C600.79 162.12 600.81 164.77 600.69 167.18Z" fill="#F2CEC4"/>
<path d="M721.87 129.05C721.43 132.37 720.99 135.69 720.55 139.01C719.78 144.88 718.55 151.49 713.58 154.69C709.5 157.32 704.21 156.74 699.43 155.93C695.95 155.34 692.39 154.65 689.35 152.86C688.11 152.13 686.98 151.23 685.9 150.29C685.29 149.74 684.69 149.18 684.1 148.62C682.71 147.31 681.27 145.97 680.47 144.23C679.75 142.66 679.59 140.88 679.5 139.15C679.02 131.04 677.13 118.03 678.67 117.54C681.55 116.63 687.88 114.99 691.7 114.66C692.23 114.61 692.73 114.58 693.14 114.59C695.81 114.66 700.11 114.16 702.74 114.67C707.31 115.55 710.55 115.76 715.13 116.64C717 117 718.98 119.09 720.34 120.41C722.51 122.54 722.27 126.04 721.87 129.05Z" fill="#F2CEC4"/>
<path d="M867.19 306.25C865.58 314.16 864.88 322.25 865.11 330.32C865.2 333.91 865.43 337.69 864.22 340.99C863.17 340.51 862.21 339.91 861.39 339.07C859.78 337.4 859.04 335.08 858.5 332.82C856.39 324.18 856.06 315.1 857.5 306.33C860.7 305.93 863.97 305.72 867.26 305.72C867.25 305.89 867.23 306.08 867.19 306.25Z" fill="#E0AFA1"/>
<path d="M822.6 219.57C821.92 221.58 821.11 223.61 819.69 225.18C816.13 229.15 810.01 229.17 804.69 228.74C802.57 228.57 800.41 228.38 798.41 227.67C795.26 226.55 792.66 224.22 790.85 221.39C790.37 220.64 789.94 219.86 789.57 219.06C787.81 215.22 787.25 210.93 787.22 206.71C787.17 200.47 788.19 194.23 790.25 188.34C793.18 187.14 796.24 186.35 799.34 185.91C805.73 185.04 812.38 185.71 818.67 187.56C821.26 188.33 824 189.49 825.23 191.89C825.9 193.2 826 194.72 826.06 196.18C826.33 204.12 825.15 212.08 822.6 219.57Z" fill="#F2CEC4"/>
<path d="M560.8 192.13C559.95 191.73 559.13 191.24 558.45 190.58C556.14 188.34 555.9 184.78 555.88 181.57C555.84 174.41 556.21 167.24 556.99 160.12C559.5 157.63 562.3 156.08 565.23 155.17C561.77 167.14 560.28 179.68 560.8 192.13Z" fill="#E0AFA1"/>
<path d="M691.69 114.66C688.09 125.51 686.17 136.93 686.04 148.35C686.03 148.99 686.03 149.66 685.89 150.28C685.28 149.73 684.68 149.17 684.09 148.61C682.7 147.3 681.26 145.96 680.46 144.22C679.74 142.65 679.58 140.87 679.49 139.14C679.01 131.03 677.12 118.02 678.66 117.53C681.55 116.64 687.88 115 691.69 114.66Z" fill="#E0AFA1"/>
<path d="M799.35 185.92C799.35 185.95 799.34 185.96 799.32 185.99C793.25 196.08 793.08 208.95 791 220.84C790.97 221.03 790.93 221.23 790.85 221.4C790.37 220.65 789.94 219.87 789.57 219.07C787.81 215.23 787.25 210.94 787.22 206.72C787.17 200.48 788.19 194.24 790.25 188.35C793.19 187.14 796.24 186.36 799.35 185.92Z" fill="#E0AFA1"/>
<path d="M559.27 331.58C572.89 331.47 600.73 331.21 600.73 331.21C587.12 334 559.27 331.58 559.27 331.58Z" fill="#E0AFA1"/>
<path d="M558.87 323.01C569.76 322.37 592.2 322.58 592.2 322.58C581.33 324.87 558.87 323.01 558.87 323.01Z" fill="#E0AFA1"/>
<path d="M587.7 241.03C581.7 241.03 569.95 236.6 569.95 236.6C579.5 237.07 598.89 240.86 598.89 240.86C595.17 240.98 591.43 241.03 587.7 241.03Z" fill="#E0AFA1"/>
<path d="M709.32 330.18C697.42 329.35 674.18 322.4 674.18 322.4C685.88 324.09 709.32 330.18 709.32 330.18Z" fill="#E0AFA1"/>
<path d="M712.86 318.27C697.32 313.56 664.78 308.75 664.78 308.75C681.45 307.68 712.86 318.27 712.86 318.27Z" fill="#E0AFA1"/>
<path d="M683.19 213.59C683.19 213.59 700.09 213.55 708.13 214.31C708.14 214.31 691.2 215.92 683.19 213.59Z" fill="#E0AFA1"/>
<path d="M797.86 366.37C791.78 364.97 774.97 358.44 774.97 358.44C786.05 362.28 812.77 367.84 812.77 367.84C808.09 368.8 801.5 367.2 797.86 366.37Z" fill="#E0AFA1"/>
<path d="M775.49 352.75C775.49 352.75 799.06 354.27 810.41 356.27C810.41 356.26 786.75 355.68 775.49 352.75Z" fill="#E0AFA1"/>
<path d="M808.26 271.91C803.45 271.95 793.29 269.65 793.29 269.65L815.94 270.97C815.93 270.96 810.31 271.89 808.26 271.91Z" fill="#E0AFA1"/>
<path d="M858.33 376.89C858.33 376.89 873.03 375.81 879.97 376.76C879.97 376.76 865.27 378.46 858.33 376.89Z" fill="#E0AFA1"/>
<path d="M876.04 433.27C865.62 432.51 846.01 424.45 846.01 424.45C855.93 426.91 876.04 433.27 876.04 433.27Z" fill="#E0AFA1"/>
<path d="M794.13 669.94C793.91 678.66 793.61 687.75 790.63 695.03C787.36 703.02 781.35 707.66 775.59 711.98C763.54 721.01 750.58 728.68 736.95 726.28C718.95 723.1 700.98 718.67 683.13 713.01C676.49 710.9 669.84 708.6 663.58 706.39C658.03 704.38 652.34 704.71 646.72 703.78C641.09 702.86 635.1 700.29 631.21 694.04C627.32 687.78 626.76 677.06 631.28 672.89C632.56 671.71 634.1 671.15 635.47 670.18C639.43 667.36 641.69 661.31 642.75 655.1C643.81 648.89 643.88 642.31 644.63 635.97C645.85 625.61 649.49 615.13 656.37 611.74C656.88 611.49 657.4 611.28 657.93 611.11C665.55 608.66 674.38 614.3 682.04 611.51C685.44 610.28 688.36 607.45 691.71 606.04C692.93 605.53 694.16 605.21 695.42 605.05C703.34 603.98 711.94 608.87 720.08 608.28C725.61 607.87 730.81 604.95 736.37 605.09C751.28 605.48 763.11 626.81 777.79 632.61C780.32 633.61 782.95 634.16 785.32 635.89C789.38 638.85 792.08 644.96 793.25 651.16C794.43 657.35 794.29 663.71 794.13 669.94Z" fill="#E39F8D"/>
<path d="M790.24 670.04C790 677.94 789.67 686.17 786.83 692.78C783.72 700.03 778.04 704.26 772.61 708.2C761.23 716.43 749 723.44 736.19 721.32C719.26 718.52 702.37 714.58 685.61 709.53C679.37 707.65 673.12 705.6 667.24 703.62C662.03 701.82 656.67 702.15 651.38 701.33C646.09 700.52 640.46 698.22 636.82 692.57C633.19 686.91 632.71 677.21 636.98 673.41C638.19 672.34 639.64 671.82 640.93 670.94C644.67 668.37 646.82 662.88 647.85 657.25C648.88 651.62 648.97 645.66 649.7 639.92C650.89 630.53 654.37 621.02 660.86 617.92C661.34 617.69 661.84 617.5 662.33 617.34C669.51 615.09 677.8 620.16 685.02 617.6C688.22 616.47 690.99 613.89 694.14 612.6C695.29 612.13 696.45 611.84 697.64 611.68C705.09 610.68 713.17 615.07 720.83 614.49C726.03 614.1 730.94 611.43 736.18 611.53C750.21 611.82 761.25 631.09 775.04 636.28C777.42 637.18 779.89 637.66 782.11 639.22C785.92 641.89 788.43 647.41 789.5 653.02C790.57 658.63 790.41 664.39 790.24 670.04Z" fill="#C2553C"/>
<path d="M784.57 668.7C784.33 675.91 784.01 683.41 781.35 689.45C778.44 696.07 773.15 699.94 768.08 703.55C757.48 711.08 746.08 717.5 734.17 715.6C718.43 713.08 702.73 709.53 687.14 704.97C681.34 703.27 675.53 701.41 670.07 699.62C665.22 697.99 660.24 698.3 655.32 697.57C650.4 696.84 645.17 694.76 641.8 689.62C638.43 684.47 638.01 675.62 641.99 672.14C643.12 671.16 644.47 670.68 645.67 669.87C649.15 667.51 651.17 662.51 652.14 657.37C653.11 652.24 653.21 646.8 653.9 641.56C655.03 633 658.28 624.32 664.33 621.47C664.78 621.26 665.24 621.09 665.7 620.94C672.38 618.87 680.08 623.47 686.8 621.13C689.78 620.09 692.36 617.74 695.3 616.55C696.37 616.12 697.45 615.85 698.55 615.71C705.49 614.78 712.99 618.77 720.12 618.22C724.96 617.85 729.53 615.4 734.4 615.49C747.45 615.72 757.67 633.27 770.49 637.97C772.7 638.78 775 639.22 777.06 640.63C780.6 643.05 782.92 648.08 783.9 653.19C784.91 658.3 784.74 663.55 784.57 668.7Z" fill="url(#paint0_linear_86_152)"/>
<path d="M732.51 694.079C726.37 691.649 720.23 689.229 714.09 686.799C712.5 686.169 710.86 685.509 709.55 684.099C707.78 682.209 706.87 679.279 705.81 676.619C704.11 672.359 701.83 668.339 701.08 663.699C699.33 652.919 706.77 643.779 714.63 641.929C722.49 640.079 730.74 643.109 738.84 644.079C744.88 644.799 750.93 644.369 756.95 645.669C762.97 646.969 769.19 650.309 773.08 656.889C774.84 659.869 776.07 663.519 776.07 667.179C776.08 673.399 772.71 678.329 769.15 681.959C765.87 685.299 762.27 688.079 758.43 690.209C755.88 691.629 753.09 692.779 750.27 692.079C748.69 691.689 747.16 690.729 745.57 690.549C740.82 689.989 736.93 695.829 732.51 694.079Z" fill="url(#paint1_radial_86_152)"/>
<path d="M653.26 668.949C652.07 670.959 650.83 673.129 650.68 675.769C650.53 678.409 652 681.549 653.99 681.579C655.87 681.609 657.27 678.969 659.15 679.269C660.51 679.489 661.56 681.199 662.13 682.919C662.7 684.639 662.98 686.509 663.74 688.109C664.5 689.709 665.98 690.989 667.22 690.359C668.39 689.769 668.77 687.869 669.02 686.199C669.41 683.489 669.7 680.259 668.21 678.159C667.46 677.089 666.381 676.549 665.561 675.579C662.811 672.309 663.55 665.189 660.22 663.209C658.59 662.239 656.71 663.219 655.62 664.929C654.53 666.639 654.06 668.919 653.26 668.949Z" fill="url(#paint2_linear_86_152)"/>
<path d="M737.65 703.76C737.78 699.62 740.28 696.07 743.33 695.69C744.74 695.51 746.19 695.94 747.58 696.54C748.12 696.77 748.67 697.04 749.09 697.57C749.88 698.57 749.97 700.26 749.53 701.49C749.09 702.72 748.22 703.55 747.32 704.18C744.91 705.88 742.02 706.44 739.22 705.75C738.59 705.58 737.61 705.01 737.65 703.76Z" fill="#AD4024"/>
<path d="M732.25 635.489C731.19 635.369 730.28 634.349 729.3 633.709C724.96 630.819 720.48 635.509 715.9 636.529C711.43 637.519 706.77 634.859 702.61 631.789C700.47 630.209 698.15 628.439 695.84 628.939C694.33 629.259 693.09 630.509 691.91 631.729C689.96 633.729 688.02 635.729 686.07 637.729C684.85 638.989 683.34 640.319 681.79 639.609C680.49 639.019 679.71 637.239 678.9 635.709C676.49 631.129 672.75 627.759 668.76 626.569C667.41 624.819 666.4 622.909 665.71 620.939C672.39 618.869 680.09 623.469 686.81 621.129C689.79 620.089 692.37 617.739 695.31 616.549C696.38 616.119 697.46 615.849 698.56 615.709C698.98 616.159 699.42 616.589 699.87 616.989C702.97 619.689 706.62 620.689 710.17 621.599C712.03 622.069 713.9 622.549 715.77 622.559C718.01 622.569 720.18 621.909 722.42 621.859C725.34 621.799 728.32 622.829 730.96 624.789C732.64 626.039 734.28 627.849 734.79 630.299C735.32 632.729 734.11 635.679 732.25 635.489Z" fill="url(#paint3_linear_86_152)"/>
<path d="M683.5 678.869C683.57 676.529 683.19 674.139 683.27 671.799C683.35 669.459 684.05 666.989 685.62 666.079C687.17 665.179 689.05 666.069 690.62 667.229C693.84 669.609 696.57 673.099 699.16 676.659C701.53 679.929 704.02 684.109 703.35 688.349C702.94 691.009 701.34 692.939 699.65 694.329C697.98 695.709 696.08 696.739 694.05 696.749C691.32 696.749 688.62 694.849 686.54 692.239C685.74 691.229 684.96 689.939 685.01 688.519C685.08 686.809 686.36 685.279 685.79 683.679C685.22 682.079 683.31 682.119 682.65 680.569C682.86 680.079 683.07 679.579 683.5 678.869Z" fill="url(#paint4_linear_86_152)"/>
<path d="M721.65 668.65C724.18 662.8 727.79 657.86 732.09 654.34C733.57 653.13 735.2 652.06 736.98 651.93C738.25 651.84 739.53 652.23 740.79 652.62C743.35 653.4 745.9 654.19 748.46 654.97C751.65 655.95 754.9 656.96 757.73 659.32C759.37 660.68 760.96 662.9 760.82 665.38C760.71 667.31 759.59 668.73 758.54 669.96C755.98 672.97 753.31 676.06 749.98 677.33C747.51 678.28 744.82 678.16 742.29 678.85C738.44 679.91 734.8 682.86 730.83 681.87C726.22 680.72 722.95 674.58 721.65 668.65Z" fill="url(#paint5_radial_86_152)"/>
</g>
<defs>
<linearGradient id="paint0_linear_86_152" x1="725.195" y1="622.708" x2="683.433" y2="702.32" gradientUnits="userSpaceOnUse">
<stop stop-color="#D15B49"/>
<stop offset="1" stop-color="#D1755E"/>
</linearGradient>
<radialGradient id="paint1_radial_86_152" cx="0" cy="0" r="1" gradientUnits="userSpaceOnUse" gradientTransform="translate(738.839 665.865) rotate(-13.8726) scale(36.7618 44.5107)">
<stop stop-color="#D38A65"/>
<stop offset="1" stop-color="#C45B4B"/>
</radialGradient>
<linearGradient id="paint2_linear_86_152" x1="650.773" y1="678.153" x2="668.527" y2="675.985" gradientUnits="userSpaceOnUse">
<stop stop-color="#B34527"/>
<stop offset="1" stop-color="#CE7A58"/>
</linearGradient>
<linearGradient id="paint3_linear_86_152" x1="666.376" y1="626.67" x2="736.975" y2="624.575" gradientUnits="userSpaceOnUse">
<stop stop-color="#D16C4F"/>
<stop offset="1" stop-color="#BD4E35"/>
</linearGradient>
<linearGradient id="paint4_linear_86_152" x1="683.367" y1="667.832" x2="702.513" y2="687.354" gradientUnits="userSpaceOnUse">
<stop stop-color="#C36E59"/>
<stop offset="0.2865" stop-color="#C26952"/>
<stop offset="0.6943" stop-color="#BE5C40"/>
<stop offset="1" stop-color="#BA4E2D"/>
</linearGradient>
<radialGradient id="paint5_radial_86_152" cx="0" cy="0" r="1" gradientUnits="userSpaceOnUse" gradientTransform="translate(740.962 665.492) rotate(-13.8726) scale(19.7398 23.1976)">
<stop stop-color="#D49E7F"/>
<stop offset="0.2315" stop-color="#D09477"/>
<stop offset="0.6175" stop-color="#C57B61"/>
<stop offset="1" stop-color="#B85B46"/>
</radialGradient>
<clipPath id="clip0_86_152">
<rect width="1278" height="1080" fill="white"/>
</clipPath>
</defs>
</svg>
