<svg width="2000" height="1040" viewBox="0 0 2000 1040" fill="none" xmlns="http://www.w3.org/2000/svg">
<g clip-path="url(#clip0_101_1531)">
<path d="M2000 0H0V1040H2000V0Z" fill="#9BAFBD"/>
<path d="M377.896 357.54C367.268 384.808 356.69 412.474 353.181 441.535C349.672 470.596 353.9 501.618 370.743 525.547C387.527 549.391 414.727 563.629 441.979 574.004C473.813 586.12 507.194 594.178 541.049 597.932C573.171 601.492 607.668 601.83 634.243 620.221C653.758 633.715 666.069 655.099 677.594 675.839C690.099 698.347 702.849 723.629 696.981 748.699C690.183 777.759 661.309 795.22 635.055 809.399C609.698 823.097 584.34 836.794 558.983 850.492C552.142 854.187 545.032 858.118 540.66 864.561C532.002 877.32 537.16 894.747 544.516 908.292C551.551 921.246 560.894 933.683 574.143 940.152C595.603 950.628 621.577 942.933 642.335 931.138C663.093 919.343 681.923 903.481 704.701 896.328C726.541 889.471 751.154 890.925 770.872 879.307C789.305 868.451 799.899 848.209 808.059 828.432C817.841 804.715 825.51 780.127 830.939 755.049C836.468 729.522 842.049 699.962 864.887 687.279C877.197 680.448 892.053 680.278 906.081 681.437C992.984 688.59 1078.88 739.186 1165.35 719.951C1197.62 724.373 1228.75 736.861 1255.12 755.97C1276.37 771.359 1294.78 791.068 1318.41 802.457C1342.04 813.838 1374.13 814.236 1390.93 794.095C1398.99 784.431 1402.23 771.68 1404.19 759.251C1415.91 684.92 1390.97 603.834 1421.64 531.837C1436.18 523.636 1428.91 499.09 1413.78 492.072C1398.64 485.054 1381.04 488.809 1364.37 489.629C1347.71 490.449 1327.92 486.001 1321.54 470.587C1314.72 454.108 1328.79 435.075 1345.78 429.672C1362.78 424.269 1381.13 428.387 1398.59 432.048C1451.91 443.235 1506.18 449.872 1560.62 451.867C1568.59 452.155 1577.13 452.197 1583.8 447.843C1595.55 440.165 1595.62 421.809 1587.55 410.327C1579.48 398.844 1565.97 392.672 1552.98 387.37C1507.87 368.963 1461.03 354.792 1413.29 345.094C1374.07 337.129 1331.9 332.479 1295.21 348.451C1256.45 365.319 1229.81 402.649 1191.73 421.006C1168.65 432.124 1142.75 435.608 1117.35 438.948C1069.3 445.255 1020.06 451.529 972.768 440.943C933.188 432.082 896.425 411.679 856.127 407.097C807.94 401.618 760.312 419.272 711.956 422.942C602.012 431.27 496.557 367.34 377.896 357.54Z" fill="#728694"/>
<path d="M654.115 892.362C663.069 901.798 672.658 910.643 682.779 918.819C683.675 919.546 684.732 920.307 685.873 920.129C687.133 919.926 687.911 918.667 688.461 917.517C694.971 903.777 692.274 886.207 681.933 875.054C680.335 873.329 678.559 871.74 676.496 870.607C672.303 868.298 667.026 868.095 662.672 870.057C658.681 871.858 655.502 875.502 654.546 879.772C653.599 884.042 655.02 888.836 654.115 892.362Z" fill="#31556B"/>
<path d="M791.031 480.133C783.734 498.887 788.562 485.367 788.74 484.877C781.223 499.378 773.546 513.971 763.103 526.527C762.816 526.874 762.528 527.212 762.241 527.55C751.35 540.326 737.053 550.862 720.717 553.83C722.949 547.167 725.181 540.504 727.414 533.833C708.042 557.381 683.953 579.407 654.039 585.325C631.463 589.79 608.219 584.548 585.796 579.331C559.745 573.277 533.686 567.214 507.627 561.152C498.732 559.08 489.752 556.983 481.5 553.052C452.989 539.464 438.75 507.03 432.054 476.159C430.202 467.636 428.739 458.927 428.883 450.235C428.917 448.367 429.027 446.507 429.213 444.646C430.464 432.572 435.283 421.166 440.661 410.284C456.735 377.765 478.372 348.003 501.116 322.975C513.875 321.817 526.601 324.92 539.047 327.997C575.159 336.943 611.272 345.88 647.384 354.817C640.392 349.085 635.792 341.018 631.345 333.138C629.789 330.365 628.165 327.219 629.002 324.142C630.668 318.029 639.504 318.231 645.38 320.599C667.668 329.595 684.511 350.894 688.13 374.645C698.666 379.186 708.423 385.536 716.836 393.34C717.834 394.261 718.84 395.225 720.091 395.766C721.537 396.401 723.161 396.401 724.733 396.443C736.131 396.73 747.461 399.597 757.633 404.754C771.068 411.569 782.534 422.57 788.951 436.2C795.377 449.83 796.493 466.089 791.031 480.133Z" fill="#FDD5C8"/>
<path d="M763.103 526.527C762.816 526.874 762.528 527.212 762.241 527.55C751.35 540.326 737.053 550.862 720.717 553.83C722.949 547.167 725.181 540.504 727.414 533.833C708.042 557.381 683.953 579.407 654.039 585.325C631.463 589.79 608.219 584.548 585.796 579.331C577.51 577.403 569.215 575.475 560.921 573.547C558.181 572.913 555.441 572.27 552.694 571.636C537.677 568.144 522.652 564.644 507.627 561.152C498.732 559.08 489.752 556.983 481.5 553.052C452.989 539.464 438.75 507.03 432.054 476.159C430.202 467.636 428.739 458.927 428.883 450.235C444.162 471.01 465.731 486.957 489.592 496.883C515.668 507.731 544.374 511.578 572.58 510.048C587.749 509.219 603.087 506.894 618.011 509.693C620.699 510.192 623.743 510.792 625.967 509.194C627.151 508.34 627.878 506.979 629.019 506.074C632.613 503.242 637.796 506.083 641.271 509.059C644.805 512.086 648.188 515.299 651.392 518.672C652.339 519.679 653.337 520.736 654.647 521.15C657.564 522.063 660.279 519.543 662.959 518.072C667.06 515.823 672.403 516.043 676.31 518.63C686.38 510.97 698.48 505.998 711.027 504.366C713.978 506.979 712.042 511.883 713.116 515.671C714.629 521.006 721.934 522.562 727.025 520.363C732.123 518.174 735.7 513.591 739.724 509.786C743.758 505.973 749.194 502.667 754.572 504.003C759.933 505.338 763.264 510.961 763.949 516.44C764.38 519.898 764.025 523.272 763.103 526.527Z" fill="#EFC3B6"/>
<path d="M608.008 513.413C603.501 510.107 600.423 504.924 599.688 499.386C599.366 496.985 599.468 494.558 599.612 492.14C600.33 479.372 602.03 466.503 606.638 454.573C608.363 450.109 610.493 445.796 612.151 441.307C614.484 434.982 615.888 428.311 616.285 421.58C608.439 424.531 602.495 431.27 598.732 438.762C594.97 446.253 593.118 454.531 591.266 462.698C587.368 479.913 582.811 498.033 570.365 510.538C569.468 511.443 568.462 512.449 568.42 513.718C568.319 516.423 572.073 517.193 574.77 516.998C583.716 516.364 592.627 515.392 608.008 513.413Z" fill="#EFC3B6"/>
<path d="M654.757 503.994C650.563 503.656 649.041 498.135 649.751 493.991C650.461 489.848 652.245 485.452 650.512 481.621C649.616 479.643 647.891 478.146 646.961 476.193C645.033 472.151 646.919 467.4 648.88 463.375C652.524 455.9 656.617 448.434 662.806 442.888C668.995 437.341 677.704 433.984 685.745 436.073C697.43 439.108 703.806 452.823 702.267 464.804C700.728 476.776 693.237 487.109 685.179 496.105C682.828 498.726 680.08 501.457 676.571 501.779C675.607 501.872 674.601 501.753 673.781 501.246C671.549 499.868 671.786 496.638 671.092 494.11C669.866 489.645 664.497 486.813 660.126 488.343C655.754 489.865 653.302 495.42 655.12 499.682C655.653 500.933 656.515 502.295 655.983 503.554C655.45 504.814 652.846 504.045 654.757 503.994Z" fill="#EFC3B6"/>
<path d="M703.131 506.252C707.494 503.14 710.479 498.16 711.172 492.85C711.442 490.779 711.392 488.622 712.161 486.678C712.922 484.733 714.85 483.008 716.913 483.372C718.689 483.685 719.906 485.46 720.168 487.236C720.43 489.011 719.948 490.812 719.466 492.546C718.401 496.376 717.344 500.206 716.279 504.036C715.772 505.871 715.264 507.824 715.797 509.651C716.981 513.684 722.493 514.656 726.451 513.236C730.653 511.731 734.043 508.501 736.588 504.831C738.322 502.328 740.326 499.251 743.37 499.361C744.807 499.411 746.126 500.24 747.098 501.305C749.525 503.986 749.931 508.078 748.823 511.519C747.724 514.961 745.323 517.852 742.693 520.33C737.223 525.471 729.943 529.36 722.485 528.531C712.296 527.415 704.687 517.379 703.131 506.252Z" fill="#EFC3B6"/>
<path d="M718.959 547.226C731.05 533.199 736.732 514.808 740.57 496.697C742.524 487.472 744.096 478.121 744.299 468.693C744.9 441.087 733.747 414.368 718.705 391.209C738.761 416.778 749.144 449.753 747.36 482.196C746.701 494.169 744.46 505.989 742.219 517.768C740.849 525.005 739.471 532.235 738.102 539.472C736.766 546.516 735.345 553.753 731.464 559.782C730.424 561.397 728.699 563.088 726.856 562.53C725.85 562.226 725.165 561.321 724.573 560.45C721.656 556.121 719.449 551.327 718.959 547.226Z" fill="#99685A"/>
<path d="M615.694 538.246C615.626 544.571 615.093 550.896 614.121 557.152C613.952 558.218 613.521 559.545 612.438 559.638C611.102 559.765 610.578 557.964 610.528 556.62C610.299 550.312 610.079 543.996 609.851 537.688C609.69 533.19 609.175 528.007 605.471 525.454C602.503 523.407 598.369 523.864 595.232 525.64C592.103 527.407 589.761 530.273 587.512 533.089C577.408 545.721 567.575 558.801 560.92 573.547C558.181 572.913 555.441 572.27 552.693 571.636C552.693 571.171 552.719 570.706 552.795 570.258C553.167 567.865 554.427 565.726 555.687 563.663C564.979 548.486 576.03 534.027 590.522 523.703C595.57 520.101 602.081 516.939 607.754 519.45C611.052 520.913 613.352 524.101 614.485 527.534C615.626 530.958 615.744 534.636 615.694 538.246Z" fill="#E0AFA1"/>
<path d="M640.046 536.454C639.936 540.724 643.986 544.63 648.247 544.368C649.465 544.292 650.691 543.911 651.596 543.1C654.707 540.318 652.441 534.797 654.64 531.237C655.739 529.461 657.76 528.498 659.129 526.925C662.131 523.484 661.26 518.275 662.148 513.794C662.934 509.803 665.192 506.243 666.147 502.286C667.103 498.329 666.198 493.34 662.486 491.666C665.632 491.455 668.27 494.465 668.726 497.585C669.183 500.705 668.024 503.817 666.739 506.7C665.454 509.583 664 512.492 663.814 515.637C663.594 519.357 665.116 523.458 663.129 526.612C662.131 528.193 660.423 529.191 659.265 530.645C657.455 532.911 657.168 535.972 656.61 538.813C656.052 541.654 654.902 544.74 652.272 545.949C649.11 547.404 645.44 545.45 642.802 543.176C640.46 541.155 638.253 537.731 640.046 536.454Z" fill="#E0AFA1"/>
<path d="M666.848 524.253C668.124 525.217 668.961 526.646 670.103 527.77C671.244 528.895 673.003 529.69 674.432 528.963C676.005 528.168 676.241 525.792 675.193 524.371C674.145 522.951 672.242 522.401 670.475 522.469C668.708 522.528 667.008 523.095 666.848 524.253Z" fill="#E0AFA1"/>
<path d="M618.391 455.875C616.962 465.954 607.83 474.502 609.149 484.598C609.378 486.356 610.012 488.174 611.432 489.231C612.709 490.178 614.392 490.347 615.973 490.322C624.496 490.178 632.418 485.316 637.973 478.84C643.52 472.371 647.004 464.406 649.971 456.416C652.533 449.525 654.613 441.264 650.369 435.261C649.295 433.739 647.604 432.395 645.752 432.64C644.087 432.868 642.827 434.365 642.303 435.963C641.778 437.561 641.821 439.286 641.728 440.968C641.482 445.492 640.197 449.965 637.999 453.93C637.466 454.886 636.857 455.85 635.927 456.433C634.219 457.498 631.97 456.991 630.161 456.12C628.351 455.249 626.643 454.032 624.656 453.702C620.953 453.102 617.106 456.374 618.391 455.875Z" fill="#E0AFA1"/>
<path d="M601.379 483.397C604.507 464.381 609.225 445.627 615.474 427.398C608.414 429.985 604.288 437.257 601.565 444.266C597.659 454.336 595.376 465.024 594.826 475.813C594.674 478.772 594.665 481.807 595.621 484.615C595.959 485.604 596.475 486.619 597.413 487.084C598.369 487.549 600.719 487.388 601.379 483.397Z" fill="#E0AFA1"/>
<path d="M739.665 530.349C749.507 502.134 749.27 471.238 744.349 441.763C743.47 436.504 742.439 431.236 740.612 426.222C736.85 415.924 729.866 407.088 725.79 396.908C725.207 395.454 724.682 393.881 725.021 392.359C725.908 388.326 731.523 387.878 735.522 388.918C743.25 390.938 750.42 395.056 756.052 400.721C762.562 407.274 766.891 415.645 770.865 423.99C774.188 430.957 777.35 438.043 779.278 445.517C783.092 460.263 781.857 476.261 775.828 490.246C769.8 504.231 759.011 516.11 739.665 530.349Z" fill="#E0AFA1"/>
<path d="M591.487 564.416C600.56 556.797 605.574 544.588 604.483 532.793C604.407 531.939 604.305 531.009 604.745 530.265C605.185 529.521 606.402 529.216 606.884 529.926C607.087 530.231 607.104 530.62 607.113 530.983C607.197 534.746 607.29 538.509 607.375 542.271C607.4 543.37 607.434 544.512 607.958 545.484C608.93 547.302 611.323 548.029 612.22 549.881C613.15 551.817 612.093 554.075 611.044 555.952C609.818 558.159 608.592 560.365 607.366 562.572C606.284 564.525 605.142 566.546 603.35 567.882C601.676 569.134 599.579 569.675 597.786 570.74C597.245 571.061 596.679 571.442 596.045 571.425C595.106 571.4 594.438 570.537 593.922 569.751C592.646 567.823 591.36 565.895 591.487 564.416Z" fill="#99685A"/>
<path d="M621.529 477.656C628.978 470.925 636.756 463.392 638.566 453.516C640.096 445.154 637.01 436.479 638.439 428.099C639.521 431.608 640.612 435.109 641.694 438.618C642.066 439.81 642.515 441.112 643.605 441.721C645.203 442.617 647.427 441.594 648.924 442.643C650.564 443.793 649.947 446.481 648.543 447.919C647.14 449.356 645.186 450.235 644.028 451.876C642.887 453.491 642.692 455.613 642.996 457.566C643.842 456.839 645.262 457.558 645.643 458.606C646.015 459.655 645.685 460.813 645.356 461.878C644.747 463.823 644.087 465.861 642.616 467.273C641.145 468.685 638.591 469.192 637.095 467.814C637.915 470.055 636.198 472.473 634.178 473.741C632.165 475.018 629.764 475.669 627.938 477.199C627.016 477.969 626.272 478.941 625.308 479.651C624.344 480.362 623.025 480.784 621.943 480.277C620.852 479.753 620.658 478.434 621.529 477.656Z" fill="#99685A"/>
<path d="M678.416 553.204C678.636 549.238 678.856 545.273 679.076 541.307C679.126 540.343 679.185 539.354 679.6 538.492C680.318 536.961 681.95 536.116 683.159 534.94C687.759 530.493 685.713 522.587 688.529 516.838C689.416 515.037 690.761 513.498 691.835 511.798C696.214 504.848 696.392 494.795 703.41 490.508C704.577 494.541 701.457 498.397 698.954 501.77C693.974 508.492 690.727 516.483 689.619 524.777C689.256 527.534 689.103 530.366 688.021 532.928C687.083 535.143 685.502 537.012 684.208 539.041C681.731 542.939 680.327 547.404 678.416 553.204Z" fill="#99685A"/>
<path d="M696.35 533.833C696.375 523.39 701.558 513.084 709.92 506.844C704.737 514.851 699.444 523.12 696.35 533.833Z" fill="#99685A"/>
<path d="M557.504 570.605C556.447 568.406 556.667 565.76 557.555 563.485C558.443 561.211 559.931 559.232 561.402 557.279C568.995 547.218 576.647 537.088 585.635 528.658C582.557 543.311 569.536 553.72 563.431 567.392C562.755 568.905 562.036 570.605 560.514 571.29C559.001 571.975 556.718 570.554 557.504 570.605Z" fill="#99685A"/>
<path d="M599.621 471.754C598.665 464.905 600.855 457.794 604.956 452.231C605.117 452.011 605.294 451.791 605.548 451.715C606.326 451.487 606.681 452.654 606.622 453.465C606.233 458.801 605.768 464.204 603.992 469.26C603.73 469.995 603.434 470.74 602.893 471.298C602.352 471.856 601.498 472.185 600.771 471.906C600.043 471.627 599.629 470.613 599.621 471.754Z" fill="#99685A"/>
<path d="M661.876 358.563C663.939 360.305 666.003 362.038 668.066 363.78C669.714 363.095 670.053 360.795 669.376 359.138C668.7 357.481 667.347 356.213 666.383 354.708C663.982 350.953 664.092 345.914 661.369 342.38C659.128 339.463 655.425 338.152 651.933 336.994C650.732 336.596 649.489 336.19 648.238 336.343C646.987 336.495 645.718 337.357 645.549 338.609C645.439 339.378 645.761 340.148 646.124 340.841C647.359 343.225 649.21 345.28 651.434 346.776C653.32 348.045 655.467 348.899 657.251 350.319C659.027 351.731 660.439 353.947 660.008 356.179C659.864 356.923 659.534 357.726 659.915 358.386C660.168 358.825 660.676 359.045 661.149 359.231C662.722 359.831 664.295 360.457 661.876 358.563Z" fill="#99685A"/>
<path d="M634.905 328.708C644.705 327.583 654.927 330.796 662.317 337.34C666.207 340.782 669.301 345.052 673.25 348.417C673.656 346.531 672.269 344.773 670.984 343.344C665.708 337.467 660.279 331.464 653.278 327.811C649.245 325.706 644.832 324.455 640.452 323.212C639.065 322.823 637.636 322.425 636.216 322.62C634.795 322.814 633.366 323.77 633.087 325.173C632.715 327.025 634.922 328.826 634.905 328.708Z" fill="#99685A"/>
<path d="M528.291 376.159C530.65 387.954 539.384 397.297 547.738 405.947C552.498 410.876 557.563 415.992 564.141 417.894C568.234 419.078 572.757 418.951 576.486 421.022C583.149 424.726 584.476 433.46 587.047 440.63C587.368 441.535 587.774 442.49 588.594 442.989C590.767 444.308 593.041 441.51 594.174 439.244C598.132 431.321 603.805 424.261 610.679 418.672C612.379 417.294 614.501 415.924 616.615 416.507C618.534 417.04 619.667 418.968 620.513 420.76C622.643 425.267 624.275 430.019 625.358 434.889C625.966 437.654 626.499 440.63 628.469 442.66C630.439 444.689 634.447 444.951 635.707 442.414C636.392 441.028 636.028 439.379 635.783 437.857C634.844 432.057 635.868 425.952 638.658 420.786C646.065 423.787 652.964 428.04 658.967 433.3C659.982 434.187 660.997 435.126 662.248 435.633C664.345 436.496 666.729 436.031 668.936 435.549C676.918 433.79 685.517 431.921 691.723 433.579C701.278 436.901 706.943 447.301 707.653 457.397C708.363 467.493 705.066 477.394 701.599 486.898C702.664 485.24 704.313 483.803 706.275 483.651C708.236 483.499 710.342 485.139 710.13 487.1C711.128 484.919 712.168 482.67 713.944 481.046C715.719 479.423 718.433 478.586 720.573 479.668C726.449 482.645 720.894 493.619 726.153 497.577C729.451 500.062 734.253 497.484 736.79 494.22C742.438 486.948 743.03 477.03 742.742 467.822C742.269 452.603 739.986 437.307 734.355 423.162C728.723 409.016 719.583 396.037 707.112 387.311C699.443 381.942 690.725 378.281 682.532 373.732C672.766 368.304 663.685 361.582 653.395 357.227C644.416 353.431 634.76 351.545 625.188 349.694C611.339 347.005 597.489 344.325 583.639 341.636C579.741 340.883 575.818 340.122 571.853 340.215C558.248 340.537 547.07 350.522 537.228 359.916C534.844 362.191 532.426 364.516 530.828 367.391C528.756 371.119 528.198 375.685 528.291 376.159Z" fill="#FEE4DB"/>
<path d="M641.271 505.093C645.736 509.617 650.792 513.566 656.271 516.795C656.863 517.142 657.531 517.497 658.199 517.345C658.715 517.235 659.121 516.838 659.433 516.423C661.226 514.039 660.786 510.674 661.75 507.85C662.477 505.719 663.991 503.952 664.896 501.897C665.809 499.843 665.952 497.12 664.27 495.632C662.832 494.364 660.634 494.507 658.791 495.057C658.41 495.175 657.996 495.319 657.776 495.649C657.48 496.072 657.59 496.646 657.717 497.145C658.199 499.073 658.85 501.009 658.757 502.996C658.664 504.983 657.616 507.089 655.73 507.723C653.058 508.619 650.513 506.302 647.96 505.085C645.499 503.918 642.565 503.766 641.271 505.093Z" fill="#FEE4DB"/>
<path d="M697.888 493.307C695.19 498.912 692.18 504.375 688.883 509.651C688.714 509.921 688.502 510.217 688.181 510.259C687.657 510.319 687.369 509.642 687.369 509.11C687.361 507.021 688.849 505.271 690.168 503.656C693.144 500.029 695.681 496.046 697.888 493.307Z" fill="#FEE4DB"/>
<path d="M704.297 504.569C704.255 499.775 704.551 494.972 705.202 490.221C705.261 489.815 705.354 489.35 705.709 489.147C706.098 488.935 706.605 489.172 706.85 489.536C707.087 489.908 707.129 490.373 707.146 490.812C707.392 495.708 706.774 500.646 704.297 504.569Z" fill="#FEE4DB"/>
<path d="M689.66 886.274C689.195 886.435 688.722 886.596 688.248 886.756C683.606 888.329 678.888 889.716 674.128 890.9C665.943 892.946 657.606 894.408 649.21 895.279C644.661 895.753 640.028 896.066 635.555 896.962H635.546C633.399 897.385 631.285 897.951 629.23 898.721C625.704 900.048 622.449 901.976 619.211 903.895C612.556 907.835 605.902 911.784 599.256 915.724C598.174 916.367 597.092 917.009 596.001 917.635C595.739 917.787 595.485 917.931 595.223 918.083C595.088 918.159 594.961 918.235 594.826 918.311C591.444 920.239 588.002 922.049 584.4 923.427C583.766 923.672 583.132 923.909 582.481 924.12C581.255 924.535 580.004 924.89 578.735 925.186C571.371 926.877 563.017 926.023 557.242 921.136C552.321 916.984 550.139 909.484 552.304 903.675C552.676 902.661 553.192 901.697 553.843 900.818C553.479 900.699 553.116 900.555 552.761 900.403C552.676 900.369 552.6 900.336 552.515 900.293C551.272 899.752 550.114 899.017 549.066 898.137C547.163 896.556 545.641 894.51 544.737 892.202C543.35 888.71 543.392 884.685 544.491 880.948C544.652 880.39 544.838 879.832 545.049 879.29C544.948 879.231 544.846 879.164 544.745 879.096C544.508 878.952 544.28 878.8 544.043 878.648V878.639C542.606 877.701 541.228 876.635 540.002 875.435C538.581 874.031 537.389 872.433 536.586 870.607C534.928 866.844 535.334 861.957 537.431 857.924C537.355 857.898 537.271 857.873 537.194 857.831C536.873 857.721 536.56 857.577 536.264 857.417C536.036 857.298 535.808 857.171 535.588 857.028C533.778 855.895 532.383 854.127 531.326 852.166C530.853 851.286 530.447 850.365 530.1 849.452C528.95 846.374 528.291 842.958 529.238 839.804C530.692 834.951 535.436 832.042 541.177 829.269C541.54 829.1 541.904 828.931 542.276 828.753C540.061 828.229 537.761 827.671 535.994 826.233C535.799 826.073 535.613 825.904 535.453 825.718C534.751 824.991 534.21 824.094 533.956 823.147C533.677 822.15 533.711 821.11 534.167 820.18C534.565 819.393 535.207 818.767 535.85 818.159C536.18 817.846 536.501 817.533 536.831 817.22C539.444 814.717 542.065 812.215 544.677 809.712C546.91 807.581 549.167 805.425 551.881 803.962C561.757 798.61 573.696 803.734 584.476 806.922C596.085 810.354 609.529 812.147 616.818 821.82C617.79 821.558 618.771 821.338 619.76 821.143C628.884 819.309 638.48 820.095 647.291 823.139C655.086 825.828 662.265 830.284 667.964 836.261C679.776 848.665 684.739 865.939 689.66 886.274Z" fill="#FDD5C8"/>
<path d="M594.387 875.934C591.596 878.276 588.079 879.519 584.68 880.829C572.944 885.361 561.462 891.331 552.761 900.403C551.425 899.845 550.183 899.076 549.066 898.137C550.081 896.674 551.358 895.364 552.618 894.087C558.08 888.54 563.779 882.833 571.067 880.102C576.521 878.047 582.583 877.794 587.825 875.249C591.994 873.236 595.376 869.905 598.302 866.328C599.147 869.871 597.185 873.6 594.387 875.934Z" fill="#EFC3B6"/>
<path d="M589.618 854.829C588.324 857.247 585.221 857.89 582.524 858.406C573.113 860.207 564.015 863.597 555.729 868.408C553.818 869.516 551.924 870.717 550.351 872.281C548.28 874.336 546.741 877.016 544.745 879.096C543.054 878.039 541.422 876.83 540.002 875.435C546.817 868.873 554.08 862.54 563.017 859.632C567.177 858.279 571.566 857.721 575.675 856.224C579.784 854.728 583.767 852.022 585.288 847.921C585.584 847.118 585.855 846.179 586.624 845.79C587.445 845.376 588.493 845.841 589.034 846.577C589.584 847.321 589.753 848.259 589.905 849.173C590.226 851.067 590.522 853.13 589.618 854.829Z" fill="#EFC3B6"/>
<path d="M575.108 836.236C575.108 836.574 575.065 836.921 574.905 837.217C574.71 837.564 574.355 837.8 574.008 838.003C571.387 839.567 568.36 840.278 565.418 841.081C554.68 844.006 543.984 848.665 536.619 857.011C536.501 857.146 536.382 857.281 536.264 857.417C534.125 856.317 532.51 854.364 531.326 852.166C539.748 849.95 547.577 845.765 555.28 841.622C558.206 840.049 561.266 838.358 563.008 835.526C563.608 834.553 564.04 833.463 564.75 832.558C566.238 830.672 568.978 829.878 571.244 830.689C573.51 831.493 575.141 833.826 575.108 836.236Z" fill="#EFC3B6"/>
<path d="M562.424 820.636C560.547 823.967 556.489 825.286 552.777 826.191C549.259 827.054 545.64 827.798 542.047 827.358C538.952 826.978 535.841 825.574 533.955 823.147C533.676 822.15 533.71 821.11 534.167 820.179C534.564 819.393 535.207 818.767 535.849 818.159C536.179 817.846 536.5 817.533 536.83 817.22C539.274 818.514 542.25 818.928 545.057 818.886C548.608 818.827 552.151 818.167 555.465 816.882C558.349 815.766 561.046 814.168 563.422 812.189C563.65 815.056 563.836 818.125 562.424 820.636Z" fill="#EFC3B6"/>
<path d="M635.555 896.962C633.399 897.385 631.285 897.951 629.231 898.721C625.705 900.048 622.45 901.976 619.211 903.895C612.557 907.835 605.903 911.784 599.257 915.724C598.174 916.367 597.092 917.009 596.001 917.635C595.215 916.587 594.623 915.361 594.234 914.109C593.372 911.336 593.321 908.385 593.042 905.502C592.374 898.712 590.362 892.058 587.14 886.046C586.641 885.116 586.1 884.135 586.168 883.078C586.337 880.643 589.305 879.713 591.461 878.58C594.606 876.94 596.847 873.659 597.228 870.133C597.608 866.599 596.12 862.921 593.389 860.646C592.332 859.759 591.072 859.04 590.396 857.831C589.685 856.537 589.804 854.964 589.745 853.485C589.491 846.695 584.671 840.303 578.212 838.198C576.005 837.479 573.392 837.022 572.234 835.018C571.786 834.241 571.633 833.319 571.228 832.516C570.441 830.96 568.843 830.03 567.33 829.184C564.725 827.738 562.13 826.293 559.525 824.838C561.656 820.196 562.789 815.089 563.423 812.324C562.578 816.73 564.548 821.591 568.294 824.086C571.819 826.445 576.783 826.986 579.023 830.579C579.497 831.332 579.818 832.186 580.435 832.812C581.095 833.497 582.016 833.835 582.913 834.148C586.574 835.433 590.421 836.726 593.059 839.567C595.401 842.087 596.483 845.495 597.49 848.784C598.555 852.259 599.62 855.725 600.686 859.201C600.956 860.097 601.235 861.018 601.21 861.957C601.168 862.972 600.779 863.927 600.483 864.891C599.113 869.355 599.477 874.784 596.01 877.921C599.468 881.979 602.098 886.748 603.704 891.83C604 892.785 604.152 894.07 603.29 894.577C602.58 895 601.675 894.561 600.965 894.121C598.834 892.819 596.703 891.508 594.564 890.206C595.503 895.017 596.661 899.786 598.039 904.487C598.267 905.265 598.58 906.127 599.324 906.44C599.882 906.685 600.525 906.533 601.108 906.364C612.269 903.168 622.086 894.654 633.687 894.916C634.541 894.933 635.614 895.195 635.75 896.032C635.801 896.353 635.691 896.666 635.555 896.962Z" fill="#EFC3B6"/>
<path d="M552.516 900.293C553.514 898.788 554.554 897.283 555.822 895.973C557.961 893.774 560.608 892.269 563.161 890.823C570.323 886.773 577.73 882.579 585.779 880.094C586.227 879.95 586.701 880.204 586.845 880.652C586.98 881.091 586.726 881.565 586.286 881.709C578.398 884.144 571.075 888.287 563.998 892.295C561.538 893.69 559.001 895.119 557.04 897.148C555.712 898.509 554.613 900.192 553.548 901.815C553.142 902.441 552.736 903.067 552.305 903.675" fill="#E0AFA1"/>
<path d="M544.043 878.639C548.448 872.577 554.756 867.487 562.484 863.783C569.772 860.283 578.101 858.008 588.712 856.613C589.177 856.554 589.6 856.875 589.668 857.34C589.727 857.805 589.397 858.228 588.932 858.287C578.507 859.657 570.339 861.889 563.22 865.305C555.187 869.152 548.753 874.539 544.491 880.948L544.043 878.639Z" fill="#E0AFA1"/>
<path d="M576.148 839.111C567.896 840.802 559.897 842.628 552.71 846.323C547.611 848.936 542.724 852.555 537.194 857.831C536.873 857.721 536.56 857.577 536.264 857.417C536.036 857.298 535.808 857.171 535.588 857.028C541.414 851.413 546.554 847.583 551.94 844.818C559.313 841.03 567.439 839.17 575.81 837.454C576.266 837.361 576.714 837.657 576.807 838.113C576.9 838.57 576.604 839.018 576.148 839.111Z" fill="#E0AFA1"/>
<path d="M572.538 833.911C572.411 833.911 572.285 833.885 572.158 833.818C571.743 833.606 571.574 833.099 571.777 832.685C575.016 826.233 578.711 819.74 585.153 817.305C585.593 817.136 586.075 817.355 586.244 817.795C586.405 818.235 586.185 818.717 585.754 818.886C579.869 821.101 576.504 827.037 573.291 833.446C573.147 833.742 572.851 833.911 572.538 833.911Z" fill="#E0AFA1"/>
<path d="M603.754 894.003C603.585 894.003 603.407 893.952 603.255 893.842C598.275 890.215 593.878 885.877 590.192 880.931C589.913 880.559 589.989 880.026 590.361 879.747C590.733 879.468 591.265 879.544 591.544 879.916C595.13 884.719 599.399 888.946 604.244 892.464C604.625 892.743 604.709 893.267 604.43 893.648C604.278 893.884 604.016 894.003 603.754 894.003Z" fill="#E0AFA1"/>
<path d="M582.48 924.12C583.841 916.959 581.212 908.994 575.471 904.419C578.388 903.625 580.882 901.409 582.015 898.611C581.871 906.922 583.884 915.132 584.399 923.427C583.765 923.672 583.131 923.909 582.48 924.12Z" fill="#E0AFA1"/>
<path d="M633.924 897.317C634.634 896.006 635.37 894.713 636.097 893.445C639.513 887.484 642.734 881.844 642.802 875.392C642.844 871.182 641.466 867.072 640.13 863.09L633.552 843.44C633.408 843 633.645 842.518 634.084 842.375C634.533 842.222 635.006 842.459 635.158 842.907L641.736 862.557C643.115 866.667 644.535 870.911 644.493 875.409C644.425 882.3 640.933 888.397 637.56 894.29C637.069 895.136 636.579 895.998 636.097 896.86" fill="#E0AFA1"/>
<path d="M600.305 870.793C599.722 877.05 594.361 882.402 588.163 883.442C593.008 894.29 595.426 906.212 595.224 918.083C595.215 918.599 595.198 919.123 595.181 919.647C595.063 919.199 594.945 918.76 594.826 918.311C592.619 909.924 590.412 901.519 588.206 893.123C587.588 890.773 586.937 888.338 585.432 886.427C583.927 884.507 581.331 883.222 579.015 883.991C582.566 877.608 593.735 878.428 596.39 871.63C597.591 868.544 596.365 864.933 594.192 862.439C592.011 859.945 589.017 858.338 586.1 856.782C589.136 853.147 587.918 847.397 584.545 844.032C581.171 840.667 576.174 839.365 571.405 839.365C572.555 836.777 571.118 833.623 568.835 831.966C566.552 830.3 563.635 829.81 560.827 829.514C554.3 828.838 547.739 828.981 541.177 829.269C541.541 829.1 541.905 828.931 542.277 828.753C540.061 828.229 537.761 827.671 535.994 826.233C535.8 826.073 535.614 825.904 535.453 825.718C537.973 826.2 540.755 826.064 543.325 825.844C547.544 825.481 551.882 825.092 555.687 823.215C559.491 821.346 562.696 817.626 562.679 813.381C563.592 817.372 563.77 821.524 563.212 825.582C566.416 826.326 569.722 827.121 572.36 829.1C574.99 831.078 576.783 834.579 575.751 837.707C580.148 836.684 584.773 838.806 588.011 841.943C590.057 843.922 591.74 846.391 592.298 849.19C592.856 851.98 592.146 855.117 590.066 857.053C596.264 858.076 600.889 864.536 600.305 870.793Z" fill="#99685A"/>
<path d="M688.256 885.674C688.273 886.038 688.264 886.401 688.248 886.756C683.606 888.329 678.888 889.716 674.127 890.899C673.975 890.325 673.806 889.75 673.62 889.183C671.574 882.791 668.014 877.007 664.497 871.3C652.735 852.25 640.044 832.313 620.174 822.014C620.022 821.727 619.887 821.431 619.76 821.143C628.883 819.309 638.48 820.095 647.29 823.139C662.315 836.549 673.146 854.905 683.335 872.619C685.677 876.695 688.087 880.981 688.256 885.674Z" fill="#99685A"/>
<path d="M633.203 868.594C629.542 858.313 625.788 847.854 619.176 839.178C616.039 835.061 612.243 831.332 610.129 826.605C616.149 828.153 621.383 832.034 625.374 836.803C629.356 841.571 632.18 847.203 634.531 852.952C636.061 856.689 637.423 860.689 636.848 864.688C636.611 866.286 635.588 868.18 633.203 868.594Z" fill="#FEE4DB"/>
<path d="M570.271 866.734C575.328 864.654 580.536 862.54 586.007 862.532C587.444 862.532 588.932 862.684 590.201 863.369C591.469 864.054 592.484 865.348 592.492 866.793C592.492 868.231 591.232 869.66 589.803 869.541C587.884 869.381 587.021 867.005 585.356 866.032C583.605 865.018 581.416 865.745 579.471 866.278C575.987 867.208 572.335 867.428 570.271 866.734Z" fill="#FEE4DB"/>
<path d="M561.545 847.668C565.561 844.852 570.55 843.465 575.445 843.795C576.756 843.888 578.134 844.125 579.123 844.996C580.113 845.858 580.493 847.524 579.614 848.496C578.853 849.333 577.517 849.342 576.443 848.97C575.378 848.598 574.422 847.93 573.34 847.592C569.096 846.272 564.538 850.432 561.545 847.668Z" fill="#FEE4DB"/>
<path d="M545.573 833.513C547.974 832.955 550.418 832.575 552.87 832.38C554.924 832.211 557.529 832.516 558.23 834.452C558.898 836.304 557.216 838.206 555.415 839.009C553.081 840.049 550.164 840.016 548.143 838.46C546.122 836.896 545.421 833.666 545.573 833.513Z" fill="#FEE4DB"/>
<path d="M1127.07 201.109C1127.02 202.174 1126.77 203.333 1126.36 204.398C1126.16 204.922 1125.91 205.421 1125.63 205.878C1124.91 207.053 1123.94 207.941 1122.77 208.144C1122.33 208.22 1121.85 208.194 1121.35 208.051C1120.13 207.696 1119.25 206.656 1118.45 205.666C1116.47 203.223 1114.5 200.788 1112.52 198.344C1111.14 196.644 1109.76 194.937 1108.38 193.237C1107.92 193.499 1107.44 193.753 1106.98 194.006C1105.67 194.734 1104.37 195.452 1103.06 196.171C1103.53 196.357 1103.99 196.551 1104.43 196.763C1108.74 198.724 1111.5 201.608 1112.53 205.244C1112.74 205.988 1112.85 206.765 1112.86 207.552C1112.97 210.976 1111.31 214.494 1108.19 215.83C1104.27 217.512 1099.68 215.407 1095.52 216.176C1095.51 216.168 1095.5 216.168 1095.49 216.176C1095.25 216.218 1095.02 216.269 1094.8 216.328C1091.55 217.208 1089.26 219.913 1086.65 222.112C1085.67 222.94 1084.64 223.701 1083.49 224.259C1080.2 225.874 1076.08 225.604 1073.02 223.617C1072.84 223.498 1072.66 223.38 1072.48 223.245C1071.49 222.509 1070.6 221.579 1069.46 221.156C1068.8 220.911 1068.1 220.843 1067.4 220.843C1066.99 220.843 1066.58 220.869 1066.17 220.894C1064.8 220.97 1063.43 221.055 1062.06 221.131C1060.03 221.249 1058 221.368 1055.97 221.486C1049.26 221.875 1042.58 222.264 1035.88 222.653C1034.45 222.729 1033.02 222.814 1031.59 222.898C1016.8 213.411 1009.16 199.976 1007.63 185.763C1007.37 183.336 1007.33 180.715 1008.62 178.643C1010.01 176.411 1012.64 175.32 1015.1 174.373C1017 173.638 1018.91 172.902 1020.81 172.158C1020.99 172.09 1021.16 172.023 1021.34 171.955C1022.76 171.405 1024.19 170.856 1025.62 170.298C1029.33 168.869 1033.04 167.431 1036.74 165.994C1049.37 161.115 1063.11 156.161 1076.13 159.856C1081.06 161.259 1085.6 163.855 1090.57 165.132C1094.11 166.053 1097.79 166.273 1101.36 167.093C1109.16 168.886 1116 173.824 1120.65 180.317H1120.66C1124.25 185.323 1126.56 191.25 1127.02 197.363C1127.05 197.803 1127.07 198.251 1127.09 198.691C1127.12 199.494 1127.11 200.297 1127.07 201.109Z" fill="#FDD5C8"/>
<path d="M1112.86 207.552C1112.97 210.976 1111.31 214.494 1108.19 215.83C1104.27 217.512 1099.68 215.407 1095.52 216.176C1095.51 216.168 1095.5 216.168 1095.49 216.176C1095.25 216.218 1095.02 216.269 1094.8 216.328C1091.55 217.208 1089.26 219.913 1086.65 222.112C1082.12 222.721 1077.57 223.228 1073.02 223.617C1072.84 223.499 1072.66 223.38 1072.48 223.245C1071.49 222.509 1070.6 221.579 1069.45 221.156C1068.8 220.911 1068.1 220.844 1067.4 220.844C1066.99 220.844 1066.58 220.869 1066.17 220.894C1064.8 220.97 1063.43 221.055 1062.06 221.131C1060.03 221.249 1058 221.368 1055.97 221.486C1052.86 219.592 1050.2 216.853 1047.79 214.079C1043.02 208.592 1038.74 202.698 1034.47 196.805C1028.92 189.162 1023.22 181.18 1021.34 171.955C1022.76 171.405 1024.19 170.856 1025.62 170.298C1026.72 172.276 1027.51 173.824 1026.15 172.386C1030.63 181.07 1036.48 189.162 1044.04 195.351C1051.6 201.54 1060.96 205.751 1070.71 206.258C1078.37 206.656 1085.93 204.821 1093.56 204.204C1100.17 203.671 1107.26 204.22 1112.86 207.552Z" fill="#EFC3B6"/>
<path d="M1127.07 201.109C1127.02 202.174 1126.77 203.333 1126.36 204.398C1124.86 203.172 1123.47 201.802 1122.07 200.466C1117.72 196.323 1113.08 192.4 1107.75 189.618C1102.42 186.845 1096.33 185.264 1090.36 186.058C1085.79 186.667 1080.45 188.426 1077.06 185.289C1077.04 184.646 1077.03 184.004 1078.27 184.241C1089.1 178.203 1102.6 177.206 1114.2 181.577C1115.54 182.084 1116.91 182.676 1117.93 183.682C1119.42 185.137 1120.03 187.234 1120.85 189.136C1121.99 191.74 1123.64 194.116 1125.67 196.103C1126.11 196.518 1126.56 196.94 1127.02 197.363C1127.05 197.803 1127.07 198.251 1127.09 198.691C1127.12 199.494 1127.11 200.297 1127.07 201.109Z" fill="#EFC3B6"/>
<path d="M1062.06 221.131C1053.32 221.638 1044.61 222.146 1035.88 222.653C1035.76 222.45 1035.64 222.239 1035.52 222.027C1030.63 213.276 1026.28 204.212 1022.52 194.92C1021.52 192.468 1020.55 189.931 1020.49 187.276C1020.43 184.621 1021.45 181.797 1024.24 179.176C1031.63 180.833 1037.11 187.022 1041.15 193.44C1045.18 199.858 1048.38 206.935 1053.76 212.27C1056.43 214.933 1059.63 217.14 1061.69 220.294C1061.86 220.556 1062.03 220.835 1062.06 221.131Z" fill="#E0AFA1"/>
<path d="M1127.07 201.109C1126.99 202.698 1126.49 204.491 1125.63 205.878C1124.91 207.053 1123.94 207.941 1122.77 208.144C1120.55 206.453 1118.63 204.339 1116.67 202.326C1115.35 200.965 1113.96 199.621 1112.52 198.344C1110.76 196.78 1108.92 195.317 1106.98 194.006C1102.31 190.844 1097.15 188.62 1091.56 188.35C1088.22 188.181 1084.89 188.73 1081.55 188.781C1078.21 188.823 1074.69 188.299 1070.77 185.822C1077.63 183.615 1084.54 181.391 1091.68 180.503C1098.84 179.616 1106.33 180.131 1112.85 183.201C1113.97 183.733 1115.08 184.351 1115.98 185.196C1116.91 186.067 1117.59 187.141 1118.29 188.189C1120.85 191.986 1123.8 195.512 1127.09 198.691C1127.12 199.494 1127.11 200.297 1127.07 201.109Z" fill="#E0AFA1"/>
<path d="M1095.49 216.176C1095.25 216.219 1095.02 216.269 1094.8 216.328C1090.32 217.546 1087.66 222.222 1083.49 224.26C1080.01 225.967 1075.59 225.562 1072.48 223.245C1071.49 222.509 1070.6 221.579 1069.46 221.156C1068.8 220.911 1068.1 220.844 1067.4 220.844C1075.54 217.969 1084.14 216.379 1092.77 216.159C1093.67 216.134 1094.58 216.126 1095.49 216.176Z" fill="#99685A"/>
<path d="M1125.63 205.878C1124.63 207.51 1123.15 208.575 1121.35 208.051C1120.13 207.696 1119.25 206.656 1118.44 205.666C1115.09 201.523 1111.74 197.38 1108.38 193.237C1106.61 194.218 1104.83 195.199 1103.06 196.171C1103.53 196.357 1103.99 196.551 1104.43 196.763C1099.18 195.046 1093.7 194.091 1088.17 193.93C1084.73 193.837 1081.21 194.032 1077.94 192.95C1074.67 191.876 1071.66 189.094 1071.59 185.653C1076.6 185.703 1081.63 185.754 1086.6 185.128C1093.09 184.308 1099.64 182.33 1106.04 183.657C1112.7 185.027 1118.44 190.185 1120.52 196.661C1121.4 199.35 1121.75 202.377 1123.7 204.423C1124.25 205.015 1124.91 205.489 1125.63 205.878Z" fill="#99685A"/>
<path d="M1068.82 191.208C1072.28 194.835 1077.43 196.349 1082.43 196.814C1090.05 197.515 1098.18 196.188 1105.06 199.545C1105.63 199.824 1106.24 200.187 1106.42 200.796C1106.66 201.582 1106.03 202.428 1105.27 202.724C1104.5 203.02 1103.65 202.918 1102.83 202.808C1095.65 201.87 1088.46 200.931 1081.28 200.001C1078.28 199.612 1075.2 199.19 1072.53 197.752C1069.86 196.306 1067.66 193.584 1068.82 191.208Z" fill="#FEE4DB"/>
<path d="M1120.65 180.317C1115.74 177.662 1111.5 173.595 1106.25 171.608C1098.85 168.801 1090.63 170.475 1082.72 171.05C1075.95 171.541 1069.13 171.186 1062.34 171.482C1050.88 171.972 1039.5 174.331 1028.79 178.423C1024.41 177.468 1021.78 174.948 1020.81 172.158C1026.12 170.112 1031.43 168.057 1036.74 165.994C1049.37 161.115 1063.11 156.161 1076.13 159.856C1081.06 161.259 1085.61 163.855 1090.57 165.132C1094.11 166.053 1097.79 166.273 1101.36 167.093C1109.16 168.886 1116 173.824 1120.65 180.317Z" fill="#FEE4DB"/>
<path d="M1594.21 497.636C1594.09 498.27 1593.95 498.887 1593.82 499.504C1593.69 500.105 1593.56 500.697 1593.41 501.305C1592.02 507.376 1590.16 513.608 1585.5 517.666C1581.9 520.786 1577.14 522.148 1572.5 523.264C1553.97 527.711 1534.82 529.647 1516.64 535.355C1501.57 540.081 1486.78 547.919 1476.79 559.884C1474.71 562.353 1472.85 565.007 1471.22 567.848C1448.96 570.613 1427.16 564.34 1405.81 555.732C1401.59 554.041 1397.39 552.248 1393.22 550.422C1393.67 548.401 1394.14 546.38 1394.57 544.343C1396.34 536.057 1397.65 527.652 1396.66 519.281C1395.58 510.141 1391.77 501.035 1393.64 492.021C1396.48 478.273 1411.79 470.317 1425.84 470.063H1425.87C1436.01 469.894 1445.93 472.65 1455.82 474.925C1462.89 476.548 1470.05 477.935 1477.26 478.561C1480.69 478.865 1484.13 478.992 1487.57 478.89C1490.62 478.797 1493.67 478.535 1496.72 478.163C1510.14 476.514 1523.46 472.845 1536.79 473.547C1538.43 473.631 1540.07 473.783 1541.7 474.012C1548.29 474.942 1554.93 477.259 1559.67 481.951C1563.83 478.434 1569.69 478.518 1575.27 478.654C1580.72 478.78 1586.97 479.372 1590.95 482.645C1591.97 483.473 1592.83 484.471 1593.5 485.68C1595.47 489.265 1595.03 493.56 1594.21 497.636Z" fill="#FDD5C8"/>
<path d="M1593.82 499.504C1592.36 506.125 1590.61 513.21 1585.5 517.666C1581.9 520.786 1577.13 522.148 1572.5 523.264C1553.97 527.711 1534.82 529.647 1516.64 535.355C1501.57 540.081 1486.78 547.919 1476.79 559.884C1478.06 555.352 1478.37 550.549 1477.67 545.89C1477.4 543.971 1476.95 542.034 1477.21 540.115C1477.66 536.911 1480 534.332 1482.28 532.032C1488.62 525.648 1495.45 519.594 1503.46 515.493C1511.46 511.401 1520.81 509.389 1529.57 511.426C1531.93 511.967 1534.28 512.813 1536.71 512.728C1539.14 512.652 1541.75 511.35 1542.41 509.017C1542.8 507.647 1542.46 506.184 1542.48 504.755C1542.54 500.299 1546.21 496.57 1550.31 494.837C1554.43 493.095 1558.99 492.875 1563.41 492.275C1573.11 490.948 1582.53 487.65 1590.95 482.645C1591.97 483.473 1592.83 484.471 1593.5 485.68C1595.78 489.815 1594.83 494.896 1593.82 499.504Z" fill="#E0AFA1"/>
<path d="M1455.82 474.925C1462.89 476.548 1470.05 477.935 1477.26 478.561C1473.75 479.034 1470.24 479.618 1466.71 479.541C1464.05 479.491 1461.31 479.085 1458.82 479.998C1456.88 480.7 1455.31 482.12 1453.79 483.515C1448.22 488.631 1442.15 494.947 1442.99 502.464C1443.15 503.943 1443.56 505.584 1442.71 506.81C1442.1 507.723 1440.95 508.112 1439.89 508.382C1433.72 509.947 1426.54 509.668 1422.01 514.14C1435.29 516.144 1448.57 518.157 1461.85 520.169C1455.24 519.772 1448.64 519.374 1442.04 518.977C1437.46 518.706 1432.76 518.444 1428.38 519.806C1423.99 521.175 1419.93 524.549 1419.11 529.064C1418.29 533.579 1421.89 538.779 1426.47 538.492C1415.72 546.262 1404.25 547.429 1394.57 544.343C1396.34 536.057 1397.65 527.652 1396.66 519.281C1395.58 510.141 1391.77 501.035 1393.64 492.021C1396.48 478.265 1411.82 470.3 1425.87 470.063C1436.01 469.894 1445.93 472.65 1455.82 474.925Z" fill="#E0AFA1"/>
<path d="M1536.79 473.547C1536.65 473.623 1536.51 473.69 1536.36 473.758C1532.35 475.686 1528.07 477.064 1523.68 477.859C1514.8 479.474 1505.76 478.662 1496.72 478.163C1510.14 476.514 1523.46 472.845 1536.79 473.547Z" fill="#E0AFA1"/>
<path d="M1425.84 470.063C1421.67 471.881 1418.01 474.316 1415.5 478.172C1412.09 483.406 1411.83 490.034 1412.01 496.274C1412.51 512.492 1415.27 529.275 1409.86 544.571C1408.97 547.074 1407.86 551.301 1405.81 555.732C1401.59 554.041 1397.39 552.248 1393.22 550.422C1393.67 548.401 1394.14 546.38 1394.57 544.343C1396.34 536.057 1397.65 527.652 1396.66 519.281C1395.58 510.141 1391.77 501.035 1393.64 492.021C1396.48 478.273 1411.79 470.317 1425.84 470.063Z" fill="#99685A"/>
<path d="M1594.21 497.636C1594.09 498.27 1593.95 498.887 1593.82 499.504C1593.69 500.105 1593.55 500.697 1593.41 501.305C1590.34 502.54 1586.85 502.421 1583.53 502.861C1580.08 503.318 1576.71 504.425 1573.65 506.099C1570.77 507.681 1568.15 509.769 1565.09 510.944C1562.02 512.12 1558.22 512.187 1555.79 509.972C1560.54 510.014 1565.68 508.619 1570.23 506.133C1572.97 504.637 1575.52 502.734 1578.5 501.813C1581.36 500.916 1584.44 500.984 1587.38 500.35C1589.81 499.834 1592.07 498.853 1594.21 497.636Z" fill="#99685A"/>
<path d="M1442.82 532.1C1448.17 533.681 1453.61 535.304 1458.16 538.509C1459.79 539.659 1461.3 541.003 1463.08 541.899C1464.87 542.795 1467.05 543.184 1468.84 542.322C1467.84 540.758 1466.84 539.194 1465.84 537.638C1468.65 537.976 1471.5 537.968 1474.31 537.621C1473.86 535.059 1471.4 533.3 1468.92 532.497C1466.45 531.694 1463.78 531.558 1461.32 530.704C1458.08 529.571 1455.4 527.255 1452.4 525.555C1449.41 523.856 1445.65 522.799 1442.58 524.355C1444.04 526.587 1442.1 530.113 1439.43 530.07C1441.67 531.11 1444.07 531.795 1442.82 532.1Z" fill="#FEE4DB"/>
<path d="M1452.17 506.066C1459.66 510.395 1467.87 514.885 1476.44 513.76C1483.37 512.847 1489.27 508.391 1495.8 505.914C1500.88 503.986 1506.36 503.267 1511.78 503.368C1517.08 503.47 1523.04 504.138 1527.05 500.671C1520.35 501.441 1513.45 500.443 1507.24 497.805C1505.79 497.188 1504.27 496.368 1503.65 494.922C1503.07 493.577 1503.36 491.835 1502.31 490.812C1501.75 490.263 1500.93 490.077 1500.15 489.95C1494.42 489.037 1488.4 490.161 1483.38 493.061C1480.29 494.854 1477.55 497.298 1474.24 498.659C1467.26 501.5 1458.07 499.471 1452.17 506.066Z" fill="#FEE4DB"/>
<path d="M651.138 357.32C642.463 354.978 635.352 348.561 626.719 346.041C619.245 343.859 611.212 344.773 603.569 343.327C594.353 341.585 586.041 336.495 576.833 334.694C567.634 332.901 556.101 336.013 553.336 344.967C552.846 346.548 552.617 348.315 551.459 349.491C548.753 352.256 544.204 349.516 541.431 346.827C541.211 350.294 540.991 353.761 540.78 357.236C538.844 356.585 536.916 355.934 534.988 355.291C535.081 360.144 535.183 365.006 535.284 369.859C532.807 369.259 530.464 368.109 528.477 366.52C528.139 372.438 527.97 378.365 527.987 384.284C526.288 383.718 524.58 383.143 522.88 382.576C520.631 388.165 519.819 394.321 520.546 400.307C516.86 398.117 512.937 396.35 508.861 395.039C506.874 394.397 504.355 394.008 503.01 395.597C501.996 396.798 502.173 398.565 502.401 400.121C505.581 421.538 508.76 442.964 511.947 464.381C509.132 463.865 506.604 462.022 505.234 459.511C506.815 466.444 507.238 473.631 506.468 480.7C505.073 479.279 502.545 481.224 502.503 483.219C502.469 485.215 503.729 486.982 504.304 488.893C504.879 490.804 504.278 493.484 502.3 493.763C501.167 493.915 500.102 493.197 498.969 493.104C495.231 492.808 494.487 498.312 495.333 501.965C496.17 505.609 495.865 511.046 492.12 511.173C492.001 511.595 491.883 512.01 491.765 512.432C491.207 514.445 490.665 516.457 490.141 518.478C489.558 520.761 489 523.052 488.476 525.352C487.943 527.635 487.444 529.926 486.97 532.226C486.784 533.156 486.598 534.086 486.412 535.025C485.499 539.726 484.704 544.461 484.028 549.204C482.1 541.07 478.295 533.385 472.994 526.916C475.023 530.527 476.511 534.45 477.382 538.5C474.93 536.454 472.487 534.399 470.043 532.345C468.014 534.56 468.132 538.399 470.297 540.479C468.36 539.481 466.433 538.475 464.496 537.477C466.247 540.022 467.997 542.567 469.756 545.112C468.453 544.275 467.16 543.438 465.866 542.609C469.739 548.52 477.086 550.912 483.867 552.891C504.853 559.038 525.839 565.177 544.543 571.932C521.197 568.542 497.852 565.143 474.507 561.752C470.719 561.203 466.931 560.653 463.144 560.103C462.991 560.078 462.839 560.07 462.678 560.078C461.317 560.112 459.736 561.033 459.567 561.871C459.499 562.183 459.635 562.488 460.057 562.725C454.435 559.799 448.812 556.865 443.189 553.931C440.204 552.375 437.228 550.828 434.243 549.272C435.74 550.845 436.771 552.866 437.152 555.005C432.417 551.437 427.674 547.877 422.939 544.317C421.56 543.277 419.218 542.745 417.849 543.21C417.815 543.218 417.789 543.227 417.764 543.235C417.054 543.506 416.631 544.055 416.783 544.96C411.372 540.563 405.969 536.166 400.557 531.77C400.566 532.04 400.464 532.302 400.185 532.412C399.348 532.742 398.503 532.023 397.894 531.355C395.053 528.261 392.212 525.158 389.371 522.046C389.126 521.776 388.881 521.505 388.636 521.234C388.619 521.336 388.593 521.437 388.559 521.53C388.458 521.826 388.238 522.063 387.883 522.122C386.488 522.351 385.456 520.905 384.805 519.645C384.704 519.45 384.602 519.256 384.509 519.053C370.313 491.083 364.538 458.919 368.115 427.753C369.806 413.015 373.534 398.489 373.898 383.658C374.16 373.487 372.858 363.07 375.733 353.312C378.422 344.181 384.594 336.427 391.637 330.01C399.653 322.713 408.97 316.836 419.015 312.752C424.604 310.478 430.717 308.559 434.598 303.934C437.828 300.086 439.24 294.658 443.4 291.843C447.543 289.044 452.997 289.763 457.977 289.314C462.924 288.875 467.659 287.201 472.419 285.772C486.218 281.612 500.617 279.439 515.034 279.337C553.471 279.067 590.353 293.314 625.739 308.584C629.197 327.245 639.039 344.663 651.138 357.32Z" fill="#806158"/>
<path d="M489.312 501.322C488.585 500.324 487.85 499.335 487.123 498.337C486.438 495.767 485.829 493.18 485.305 490.567C487.013 494 488.357 497.61 489.312 501.322Z" fill="#5E3E35"/>
<path d="M483.867 552.891C477.086 550.912 469.738 548.52 465.865 542.609C467.159 543.438 468.453 544.275 469.755 545.112C467.996 542.567 466.246 540.022 464.496 537.477C466.432 538.475 468.36 539.481 470.296 540.479C468.131 538.399 468.013 534.56 470.042 532.345C472.486 534.399 474.93 536.454 477.382 538.5C476.511 534.45 475.023 530.527 472.993 526.916C478.295 533.385 482.1 541.07 484.027 549.204C484.704 544.461 485.499 539.726 486.412 535.025C481.651 530.637 477.424 525.75 474.152 520.152C478.422 524.168 482.7 528.193 486.97 532.226C490.191 535.253 493.413 538.289 496.634 541.324C493.54 536.209 490.809 530.865 488.475 525.352C485.921 519.366 483.833 513.176 482.235 506.869C484.442 511.012 487.097 514.91 490.141 518.478C492.618 521.387 495.366 524.075 498.317 526.494C495.856 521.945 493.658 517.244 491.764 512.432C489.938 507.833 488.39 503.123 487.122 498.338C483.182 492.968 479.25 487.591 475.31 482.222C473.298 494.685 473.348 507.478 475.471 519.924C471.235 512.585 467.007 505.245 462.771 497.915C463.287 506.683 463.794 515.451 464.301 524.219C460.285 520.076 456.26 515.933 452.244 511.79C453.58 517.362 454.924 522.925 456.26 528.489C449.995 523.686 445.387 516.77 443.349 509.135C445.7 519.687 448.05 530.239 450.392 540.783C440.144 529.639 427.419 520.778 413.4 515.037C418.186 522.046 422.989 529.064 427.774 536.073L425.398 534.763C410.509 520.609 395.627 506.446 380.746 492.283C389.996 511.257 402.62 528.591 417.848 543.21C419.218 542.745 421.56 543.277 422.938 544.317C427.673 547.877 432.416 551.437 437.151 555.005C436.771 552.866 435.739 550.845 434.243 549.272C437.227 550.828 440.204 552.375 443.188 553.931C448.811 556.865 454.434 559.799 460.057 562.725C459.634 562.488 459.499 562.183 459.566 561.871C459.735 561.033 461.316 560.112 462.678 560.078C462.838 560.07 462.991 560.078 463.143 560.103C466.931 560.653 470.719 561.203 474.507 561.752C497.852 565.143 521.197 568.542 544.542 571.932C525.839 565.177 504.853 559.038 483.867 552.891ZM397.893 531.355C398.502 532.023 399.348 532.742 400.185 532.412C400.464 532.302 400.565 532.04 400.557 531.77C405.968 536.166 411.371 540.563 416.783 544.96C416.63 544.055 417.053 543.506 417.763 543.235C408.868 535.439 399.365 528.345 389.37 522.046C392.211 525.158 395.052 528.261 397.893 531.355ZM384.805 519.645C385.456 520.905 386.487 522.351 387.882 522.122C388.237 522.063 388.457 521.826 388.559 521.53C387.214 520.685 385.87 519.865 384.509 519.053C384.602 519.256 384.703 519.45 384.805 519.645ZM386.842 426.222C385.101 446.6 387.781 467.34 394.655 486.602C391.467 473.64 391.357 459.925 394.334 446.912C395.653 466.554 402.654 485.781 414.271 501.669C411.836 493.687 409.41 485.714 406.974 477.732C412.479 493.138 422.016 507.089 434.378 517.81C428.417 503.943 422.938 489.874 417.958 475.627C424.426 489.967 431.419 504.958 444.127 514.225C432.949 496.342 425.686 476.032 422.98 455.114C427.555 469.877 434.327 483.964 443.002 496.748C426.616 471.035 418.423 441.087 410.45 411.645C410.948 421.673 411.439 431.71 411.938 441.738C409.511 433.604 407.761 425.275 406.704 416.862C405.782 426.298 404.852 435.735 403.93 445.179C400.286 428.319 396.27 411.544 391.882 394.862C390.182 409.244 389.717 423.77 390.478 438.229C388.398 428.083 387.764 417.649 388.61 407.325C387.037 414.732 387.164 422.434 386.842 426.222ZM443.349 397.204C440.812 419.517 441.633 442.211 445.784 464.28C445.446 455.782 446.317 447.234 448.38 438.99C450.384 450.819 454.18 462.343 459.583 473.056C457.309 465.852 456.463 458.2 457.106 450.675C459.355 460.17 464.276 469.023 471.158 475.948C464.732 458.775 461.054 440.579 460.319 422.265C464.876 438.567 470.288 455.909 483.529 466.453C467.844 439.362 457.478 409.21 453.191 378.196C452.286 388.123 452.329 398.142 453.309 408.06C451.069 397.753 448.837 387.446 446.596 377.139C444.736 388.436 444.017 399.91 443.349 397.204ZM418.905 330.678C430.463 329.232 442.115 328.513 453.766 328.522C447.915 330.898 441.21 330.399 435.207 328.445C429.203 326.492 423.75 323.161 418.364 319.872C427.521 322.434 437.109 323.457 446.596 322.89C438.377 320.506 430.903 315.61 425.449 309.015C433 308.762 438.978 316.008 446.503 316.718C441.168 311.45 437.194 304.813 435.063 297.617C441.726 300.746 443.019 310.224 449.242 314.164C447.238 305.658 447.238 296.687 449.251 288.181C451.128 297.262 453.512 306.242 456.379 315.061C455.854 310.3 455.998 305.464 456.818 300.737C458.738 307.316 459.659 314.181 459.532 321.03C452.844 319.694 445.564 321.884 440.719 326.678C443.645 327.194 446.57 327.71 449.496 328.234C447.205 329.409 445.243 331.236 443.924 333.443C447.196 333.206 450.468 332.961 453.741 332.724M538.505 300.01C569.62 306.445 599.603 318.333 626.668 334.964C613.723 329.046 601.361 321.867 589.803 313.564C598.487 315.644 607.17 317.733 615.854 319.813C592.052 304.779 562.712 302.243 538.505 300.01Z" fill="#5E3E35"/>
<path d="M1638.61 273.638C1638.25 280.944 1630.56 285.696 1628.14 292.604C1626.58 297.076 1627.38 302.023 1626.45 306.665C1625.05 313.666 1619.93 319.229 1615.29 324.658C1611.29 329.333 1607.49 334.237 1604.49 339.581C1603.56 341.23 1602.71 342.921 1601.95 344.654C1597.61 354.615 1596.53 365.666 1595.26 376.607V376.615C1595.18 377.359 1595.09 378.103 1595 378.847C1594.82 380.327 1594.64 381.815 1594.44 383.286C1594.27 384.597 1594.07 385.899 1593.86 387.193C1593.78 387.692 1593.69 388.191 1593.61 388.689C1593.45 389.611 1593.28 390.524 1593.09 391.429C1592.98 391.962 1592.87 392.494 1592.74 393.027C1592.59 393.771 1592.41 394.498 1592.23 395.234C1592.15 395.53 1592.08 395.834 1592 396.13C1591.97 396.232 1591.95 396.341 1591.92 396.443C1591.83 396.773 1591.74 397.111 1591.64 397.441C1591.6 397.559 1591.57 397.677 1591.53 397.787C1591.37 398.337 1591.21 398.886 1591.04 399.428C1590.93 399.757 1590.82 400.087 1590.71 400.417C1590.64 400.62 1590.56 400.831 1590.49 401.043C1590.33 401.482 1590.17 401.922 1590 402.362C1589.89 402.641 1589.78 402.92 1589.67 403.199C1589.4 403.884 1589.11 404.56 1588.8 405.236C1588.52 405.871 1588.21 406.496 1587.9 407.113C1587.58 407.731 1587.25 408.348 1586.9 408.957C1586.65 409.422 1586.37 409.878 1586.09 410.335C1578.01 423.407 1560.99 431.422 1546.54 426.206C1540.26 423.94 1534.99 419.534 1528.94 416.727C1524.06 414.453 1518.76 413.26 1513.51 412.077C1502.02 409.498 1490.53 406.919 1479.04 404.34C1477.01 403.884 1474.98 403.427 1472.95 402.97C1477.33 378.112 1484.36 356.103 1492.9 334.694C1494.97 335.1 1497.04 335.404 1499.13 335.607C1501.05 335.793 1503 335.895 1504.94 335.903C1512.49 335.962 1520.05 334.711 1527.16 332.2C1529.07 331.523 1530.96 330.754 1532.64 329.621C1534.97 328.065 1536.8 325.892 1538.59 323.744C1550.75 309.227 1562.9 294.717 1575.06 280.2C1578.8 275.735 1582.54 271.271 1586.28 266.806C1588.91 263.653 1591.62 260.448 1595.09 258.267C1601.02 254.555 1608 254.377 1615.01 255.662L1615.25 255.713L1617.18 256.111C1621.3 257.041 1625.39 258.402 1629.25 259.78C1634.13 262.799 1638.91 267.66 1638.61 273.638Z" fill="#FDD5C8"/>
<path d="M1595.26 376.615C1595.18 377.359 1595.09 378.103 1595 378.847C1594.82 380.327 1594.64 381.815 1594.44 383.287C1594.27 384.597 1594.07 385.899 1593.86 387.193C1593.78 387.692 1593.69 388.191 1593.61 388.689C1593.45 389.611 1593.28 390.524 1593.09 391.429C1592.98 391.962 1592.87 392.494 1592.74 393.027C1592.59 393.771 1592.41 394.498 1592.23 395.234C1592.15 395.53 1592.08 395.834 1592 396.13C1591.97 396.232 1591.95 396.341 1591.92 396.443C1591.83 396.773 1591.74 397.111 1591.64 397.441C1591.6 397.559 1591.57 397.677 1591.53 397.787C1591.37 398.337 1591.21 398.887 1591.04 399.428C1590.93 399.757 1590.82 400.087 1590.71 400.417C1590.64 400.62 1590.56 400.831 1590.49 401.043C1590.33 401.482 1590.17 401.922 1590 402.362C1589.89 402.641 1589.78 402.92 1589.67 403.199C1589.4 403.884 1589.11 404.56 1588.8 405.236C1588.52 405.871 1588.21 406.496 1587.9 407.114C1587.58 407.731 1587.25 408.348 1586.9 408.957C1586.65 409.422 1586.37 409.878 1586.09 410.335C1578.01 423.407 1560.99 431.422 1546.54 426.206C1540.26 423.94 1534.99 419.534 1528.94 416.727C1524.06 414.453 1518.76 413.26 1513.51 412.077C1502.02 409.498 1490.53 406.919 1479.04 404.34C1480.92 399.664 1483.41 395.166 1485.61 390.617C1493.92 373.495 1498.54 354.623 1499.13 335.607C1501.05 335.793 1503 335.895 1504.94 335.903C1508.32 340.638 1509.81 347.106 1510.91 353.017C1512.81 363.239 1514.71 373.74 1512.82 383.971C1512.38 386.398 1511.87 389.324 1513.7 390.972C1514.36 391.564 1515.23 391.869 1516.09 392.097C1527.11 394.997 1538.46 386.094 1542.4 375.389C1546.34 364.693 1544.81 352.856 1543.22 341.56C1550.12 354.107 1550.03 369.361 1547.52 383.456C1546.27 390.474 1545.17 399.309 1551.11 403.258C1555.3 406.04 1560.93 404.712 1565.54 402.742C1577.88 397.474 1588.4 388.123 1595.26 376.615Z" fill="#E0AFA1"/>
<path d="M1638.61 273.638C1638.25 280.944 1630.56 285.696 1628.14 292.604C1626.58 297.076 1627.39 302.023 1626.46 306.665C1625.05 313.666 1619.93 319.229 1615.29 324.658C1611.3 329.333 1607.49 334.237 1604.49 339.581C1603.71 334.829 1603.22 330.044 1603.56 325.258C1604.06 318.122 1606.56 310.867 1611.78 305.971C1613.08 304.754 1614.54 303.68 1615.59 302.234C1619 297.558 1617.02 290.836 1619.06 285.408C1620.42 281.755 1623.52 278.948 1624.84 275.27C1626.16 271.601 1624.14 266.206 1620.26 266.629C1618.9 266.773 1617.7 267.635 1616.76 268.633C1612.52 273.097 1611.66 280.715 1606.1 283.353C1599.64 286.423 1592.51 280.318 1585.35 280.081C1581.91 279.971 1578.24 281.206 1575.06 280.2C1578.8 275.735 1582.54 271.271 1586.28 266.806C1588.91 263.653 1591.62 260.448 1595.1 258.267C1605.11 251.993 1618.13 255.806 1629.25 259.78C1634.13 262.799 1638.91 267.66 1638.61 273.638Z" fill="#E0AFA1"/>
<path d="M1586.9 408.957C1586.65 409.422 1586.37 409.878 1586.09 410.335C1578.01 423.407 1560.99 431.422 1546.54 426.206C1540.26 423.94 1534.99 419.534 1528.94 416.727C1524.06 414.453 1518.76 413.261 1513.51 412.077C1502.79 409.667 1492.07 407.266 1481.35 404.856C1481.35 404.391 1481.43 403.926 1481.61 403.503C1482.5 401.415 1485.29 401.102 1487.55 401.161C1503.9 401.601 1520.16 404.848 1535.43 410.715C1540.61 412.711 1545.71 415.019 1551.12 416.296C1563.35 419.196 1576.76 416.313 1586.9 408.957Z" fill="#99685A"/>
<path d="M1511.65 341.695C1516.94 345.762 1522.51 350.201 1524.66 356.517C1525.14 357.938 1525.48 359.493 1526.53 360.576C1527.86 361.945 1530.05 362.174 1531.87 361.624C1533.7 361.074 1535.26 359.882 1536.76 358.707C1539.47 356.585 1542.37 354.065 1542.76 350.641C1543.03 348.155 1541.88 345.745 1540.66 343.555C1539.14 340.841 1537.34 338.093 1534.61 336.605C1530.46 334.347 1525.2 335.582 1521.12 337.975C1518.59 339.471 1515.55 341.424 1511.65 341.695Z" fill="#FEE4DB"/>
<path d="M1546.64 329.773C1552.85 320.362 1559.07 310.951 1565.28 301.532C1566.06 300.349 1566.86 299.131 1567.17 297.744C1567.58 295.96 1567.14 294.041 1567.73 292.316C1568.43 290.295 1570.36 288.968 1572.32 288.088C1579 285.07 1588.21 286.389 1591.74 292.806C1594.88 298.531 1592.51 305.582 1590.11 311.653C1585.68 322.78 1581.27 333.908 1576.85 345.035C1576.48 345.982 1576.07 346.963 1575.31 347.631C1573.6 349.136 1570.95 348.459 1568.81 347.707C1563.1 345.703 1557.31 343.657 1552.39 340.122C1547.48 336.588 1543.52 331.286 1546.64 329.773Z" fill="#FEE4DB"/>
<path d="M1504.26 369.217C1501.82 381.198 1496.52 392.367 1490.03 402.793V402.801C1488.32 405.566 1486.52 408.263 1484.67 410.918C1480.55 416.837 1475.71 422.874 1468.83 425.039C1459.26 428.057 1449.35 422.713 1440.06 418.942C1420.21 410.901 1397.59 409.439 1379.39 398.345C1378.75 397.956 1378.12 397.551 1377.48 397.136C1372.71 400.425 1367.94 403.723 1363.17 407.012C1361.95 407.858 1360.7 408.745 1359.5 409.692C1357.47 411.265 1355.56 413.007 1354.09 414.968C1352.55 416.998 1351.49 419.264 1351.24 421.834C1346.14 426.273 1347.79 435.777 1349.87 443.59C1352.83 454.725 1355.79 465.852 1358.76 476.988C1359.93 481.385 1361.1 485.815 1361.31 490.347C1361.49 494.237 1361 498.337 1362.67 501.855C1363.9 504.468 1366.18 506.438 1367.61 508.949C1370.9 514.732 1369.04 521.902 1368.68 528.54C1368.14 538.382 1371.25 548.384 1377.28 556.189C1377.46 555.8 1377.65 555.419 1377.85 555.047C1380.98 549.086 1385.73 544.377 1391.32 540.944C1399.3 536.023 1409.02 533.714 1418.24 534.095C1434.34 534.746 1449.38 541.848 1463.89 548.824C1468.07 550.828 1472.4 552.95 1475.25 556.603C1479.62 562.2 1479.51 569.962 1479.2 577.056C1478.89 584.362 1478.56 591.659 1478.25 598.964C1476.96 628.549 1475.67 658.142 1473.13 687.643C1472.81 691.321 1472.45 695.05 1471.97 698.77C1470.08 713.381 1466.39 727.89 1456.46 738.434C1451.84 743.346 1446.1 747.084 1440.13 750.229C1418.11 761.821 1392.08 765.618 1367.66 760.79C1358.7 759.022 1350 756.139 1341.33 753.264C1302.71 740.472 1264.1 727.67 1225.48 714.869C1211.33 709.846 1195.32 704.706 1183.21 693.866C1181.91 692.699 1180.59 691.431 1178.92 690.907C1177.28 690.391 1175.51 690.653 1173.82 690.915C1160.65 692.911 1145.92 693.841 1135.21 686.138C1134.91 685.918 1134.6 685.698 1134.31 685.461C1127.65 695.067 1119.77 704.503 1110.58 712.417C1109.12 713.685 1107.49 714.962 1105.56 715.148C1104.09 715.283 1102.63 714.759 1101.26 714.209C1084.73 707.538 1070.45 695.726 1053.37 690.619C1051.85 690.163 1050.31 689.765 1048.77 689.41C1036.86 686.679 1024.39 686.671 1012.35 684.379C996.681 681.403 981.909 674.596 966.174 672.009C945.416 668.602 924.269 672.686 903.267 673.751C876.539 675.104 849.575 671.485 824.15 663.131C824.167 663.283 824.176 663.427 824.193 663.579C826.653 691.879 832.014 720.17 832.927 748.665C833.84 777.303 829.663 807.53 812.474 830.461C790.591 859.649 752.872 871.021 722.053 890.536C709.226 898.653 697.406 908.368 686.955 919.377C690.692 902.711 686.236 887.627 678.508 875.266C670.78 862.904 660.008 852.792 649.371 842.831C638.988 833.108 628.605 823.392 618.23 813.677C639.462 815.774 661.471 807.97 676.64 792.962C678.745 790.882 680.8 788.371 681.696 785.64C682.136 784.287 682.288 782.875 682.017 781.437C683.624 782.587 685.425 783.179 687.293 783.331H687.302C692.426 783.754 698.082 780.862 701.794 776.914C706.216 772.213 709.108 766.26 713.226 761.322C713.657 760.806 714.105 760.299 714.578 759.809C714.748 759.614 714.934 759.42 715.12 759.234C716.642 757.695 718.375 756.274 719.398 754.355C722.662 748.191 717.284 741.867 713.082 735.491C712.634 734.806 712.194 734.113 711.78 733.42C709.387 729.446 707.882 725.455 709.624 721.473C710.444 719.587 711.974 717.955 712.177 715.909C712.363 713.964 711.298 712.146 710.224 710.514C697.406 691.008 677.747 675.467 670.628 653.238C669.563 649.907 668.81 646.508 668.345 643.067C666.688 631.052 668.438 618.546 671.989 606.878C673.021 603.504 674.204 600.114 674.204 596.588C674.213 588.014 668.666 586.518 673.232 579.255C684.613 573.268 691.107 569.286 701.684 560.695C709.243 554.557 719.06 543.548 726.517 535.05C735.311 530.155 741.804 523.078 746.7 514.758C751.528 506.581 754.817 497.213 757.244 487.523C758.571 482.247 759.67 476.903 760.271 471.5C763.086 446.371 754.251 419.56 735.023 403.148C732.411 400.924 729.308 399.351 726.593 398.286C722.932 396.832 719.998 396.299 719.998 396.299C719.998 396.299 700.813 379.659 690.075 375.212C689.348 365.42 694.294 356.39 696.459 346.946C697.566 342.473 698.776 338.127 700.61 334.153C701.329 332.58 702.149 331.067 703.105 329.621C707.67 322.704 714.824 318.003 721.774 313.505C760.465 288.444 799.148 263.382 837.831 238.321C844.198 234.194 850.59 230.06 857.532 226.991C861.683 225.156 866.004 223.727 870.282 222.196C918.824 204.829 961.921 175.058 1009.21 154.52C1015.46 158.79 1018.75 165.935 1021.51 172.513C1024.99 180.799 1028.46 189.085 1031.95 197.372C1035.23 205.201 1038.57 213.242 1038.88 221.723C1038.99 224.716 1038.72 227.718 1038.08 230.643C1037.37 233.848 1036.23 236.959 1034.66 239.851C1019.08 245.457 1002.65 255.113 987.025 265.555C967.823 278.382 949.432 292.578 928.903 303.139C908.771 313.497 886.373 320.531 869.488 335.573C869.226 335.793 868.972 336.03 868.718 336.258C895.572 334.094 918.714 345.83 942.364 353.076C968.448 361.066 995.827 363.679 1022.98 366.249C1046.75 368.498 1071.25 370.68 1094.09 363.746C1097.79 362.63 1101.42 361.277 1105.21 360.584C1117.24 358.411 1129.32 363.104 1140.63 367.712C1140.73 367.619 1140.83 367.517 1140.93 367.424C1182.96 326.112 1233.36 295.461 1288.01 277.722C1289.59 277.206 1291.19 276.708 1292.78 276.217C1317.16 268.76 1343.43 264.431 1367.5 272.412C1376.71 275.465 1385.25 280.225 1393.86 284.706C1426.51 301.71 1461.02 315.162 1496.57 324.751C1505.46 337.4 1507.35 354.057 1504.26 369.217Z" fill="#709EB8"/>
<path d="M1147.87 665.219C1115.06 636.252 1082.25 607.284 1049.43 578.324C1088.82 597.061 1132.62 603.978 1175.71 610.683C1166.16 626.427 1158.67 643.422 1147.87 665.219Z" fill="#4E768F"/>
<path d="M742.861 558.877C740.798 560.095 738.321 560.332 736.046 561.067C730.998 562.708 727.092 566.749 724.006 571.078C715.923 582.425 712.151 596.774 713.606 610.641C701.532 609.888 690.734 618.039 682.566 626.959C677.755 632.219 673.316 637.968 668.345 643.067C666.687 631.052 668.438 618.546 671.989 606.878C673.02 603.504 674.204 600.114 674.204 596.588C674.213 588.014 668.666 586.518 673.232 579.255C684.613 573.268 691.106 569.286 701.684 560.695C709.243 554.557 719.059 543.548 726.517 535.05C735.311 530.155 741.804 523.078 746.7 514.758C747.123 524.185 747.545 533.613 747.977 543.049C748.239 548.892 747.9 555.91 742.861 558.877Z" fill="#31556B"/>
<path d="M1048.77 689.41C1036.86 686.679 1024.39 686.67 1012.35 684.379C996.681 681.403 981.91 674.596 966.175 672.009C945.417 668.602 924.27 672.685 903.267 673.751C876.54 675.104 849.576 671.485 824.151 663.131C824.168 663.283 824.177 663.427 824.194 663.579C824.16 663.528 824.126 663.478 824.092 663.427C823.669 662.784 823.23 662.091 823.264 661.322C823.331 660.07 824.591 659.284 825.716 658.734C832.953 655.191 840.681 652.63 848.604 651.15C854.709 650.008 861.05 649.51 867.087 650.947C870.985 651.869 874.68 653.585 878.62 654.371C883.245 655.293 888.023 654.912 892.724 654.49C909.135 653.035 925.911 651.268 941.891 655.251C955.005 658.523 967.147 665.575 980.583 667.088C985.301 667.621 990.103 667.452 994.745 668.424C1001.41 669.811 1007.37 673.446 1013.81 675.628C1020.69 677.953 1028.09 678.604 1034.84 681.301C1039.84 683.305 1044.33 686.375 1048.77 689.41Z" fill="#31556B"/>
<path d="M1471.97 698.77C1470.08 713.381 1466.39 727.89 1456.46 738.434C1451.84 743.346 1446.09 747.083 1440.13 750.229C1418.11 761.821 1392.07 765.618 1367.66 760.79C1358.7 759.022 1350 756.139 1341.33 753.264C1302.71 740.471 1264.09 727.67 1225.48 714.869C1211.33 709.846 1195.32 704.706 1183.21 693.866C1181.91 692.699 1180.59 691.431 1178.92 690.907C1177.28 690.391 1175.51 690.653 1173.82 690.915C1160.65 692.911 1145.92 693.841 1135.21 686.138C1145.64 660.451 1155.66 634.527 1161.87 607.529C1168.42 579.052 1170.63 549.788 1172.82 520.651C1174.63 531.161 1176.43 541.671 1178.24 552.181C1180.4 564.711 1182.92 578.012 1191.6 587.304C1197.87 594.034 1206.62 597.805 1214.03 603.251C1229.79 614.843 1238.94 633.58 1254.16 645.874C1260.01 650.592 1266.62 654.253 1273.06 658.125C1294.29 670.884 1313.96 686.18 1335.81 697.857C1357.65 709.534 1382.52 717.541 1407.04 714.066C1422.99 711.8 1438.2 704.63 1450.09 693.764C1453.24 690.881 1456.75 687.516 1461.01 687.837C1465.78 688.192 1468.82 692.927 1471.09 697.13C1471.38 697.671 1471.67 698.22 1471.97 698.77Z" fill="#31556B"/>
<path d="M1390.9 591.084C1387.76 578.68 1383.38 566.58 1377.85 555.047C1380.98 549.086 1385.73 544.377 1391.32 540.944C1392.74 544.715 1394.12 548.511 1395.45 552.325C1398.81 564.957 1391.92 578.037 1390.9 591.084Z" fill="#31556B"/>
<path d="M1401.08 608.442C1412.64 618.107 1424.21 627.771 1435.76 637.444C1436.47 638.036 1437.4 638.661 1438.25 638.281C1439.64 637.638 1438.77 635.524 1437.7 634.434C1424.97 621.43 1405.45 615.942 1394.69 601.264C1394.28 600.714 1393.67 600.08 1393.04 600.325C1392.4 600.57 1393.2 601.856 1401.08 608.442Z" fill="#31556B"/>
<path d="M1399.14 618.538C1402.14 634.966 1407.57 650.955 1415.22 665.803C1417.24 669.735 1419.51 673.7 1423 676.414C1416.75 657.331 1409.31 638.636 1399.14 618.538Z" fill="#31556B"/>
<path d="M1490.03 402.801C1488.32 405.566 1486.52 408.263 1484.67 410.918C1480.55 416.837 1475.71 422.874 1468.83 425.039C1459.26 428.057 1449.35 422.713 1440.06 418.942C1420.21 410.901 1397.59 409.439 1379.39 398.345C1394.99 389.002 1409.15 377.258 1421.19 363.636C1421.3 370.037 1426.36 375.144 1431.22 379.312C1440.68 387.43 1450.89 394.963 1462.53 399.411C1471.24 402.734 1480.88 404.213 1490.03 402.801Z" fill="#31556B"/>
<path d="M752.373 337.831C741.618 347.419 732.063 358.352 723.997 370.291C720.767 375.076 717.799 381.629 721.283 386.237C723.794 389.56 729.417 391.691 728.402 395.733C728.14 396.773 727.447 397.61 726.593 398.286C722.931 396.832 719.997 396.299 719.997 396.299C719.997 396.299 700.812 379.659 690.074 375.212C689.347 365.421 694.293 356.39 696.458 346.946C697.566 342.473 698.775 338.127 700.61 334.153C716.176 330.551 732.097 328.496 748.077 328.014C751.13 327.93 755.036 328.505 755.78 331.464C756.397 333.933 754.267 336.14 752.373 337.831Z" fill="#31556B"/>
<path d="M1038.08 230.643C1037.37 233.848 1036.23 236.959 1034.66 239.851C1019.08 245.457 1002.65 255.113 987.025 265.555C967.823 278.382 949.432 292.578 928.903 303.139C908.771 313.497 886.373 320.531 869.488 335.573C863.544 334.897 857.507 333.087 851.833 331.253C845.618 329.249 839.412 327.236 833.198 325.232C831.566 324.708 829.866 324.133 828.683 322.899C827.769 321.943 827.262 320.684 826.772 319.466C823.694 311.805 820.625 304.153 817.547 296.493C833.477 301.955 849.914 305.912 866.579 308.305C869.369 308.702 872.422 309.007 874.806 307.502C877.089 306.056 878.146 303.308 878.839 300.695C880.488 294.472 880.869 287.919 879.955 281.544C887.083 287.361 894.668 292.612 902.616 297.237C904.763 298.48 907.3 299.714 909.616 298.852C911.231 298.252 912.339 296.747 913.075 295.199C916.558 287.928 913.819 279.253 910.234 272.04C906.936 265.403 902.928 259.121 898.312 253.32C909.363 259.932 920.414 266.536 931.465 273.148C933.359 274.281 935.278 275.422 937.392 276.031C945.357 278.339 953.263 272.742 959.528 267.322C975.914 253.143 992.707 237.044 1014.13 233.873C1018.53 233.222 1022.98 233.154 1027.38 232.546C1030.97 232.055 1034.51 231.21 1038.08 230.643Z" fill="#4E768F"/>
<path d="M1250.46 354.048C1254.63 375.288 1264.9 395.284 1279.71 411.062C1259.96 392.511 1245.25 369.31 1227.46 348.865C1226.5 347.774 1225.45 346.633 1224.03 346.328C1220.08 345.457 1218.29 350.903 1216.84 354.674C1214.26 361.362 1207.55 365.936 1200.48 367.044C1193.4 368.16 1186.1 366.164 1179.86 362.656C1195.46 380.006 1219.81 387.607 1235.13 405.211C1236.03 406.243 1236.94 407.714 1236.21 408.881C1235.74 409.65 1234.74 409.895 1233.84 410.022C1228.18 410.834 1222.43 409.692 1216.82 408.568C1201.69 405.507 1186.55 402.455 1171.41 399.394C1188.5 413.176 1205.64 427 1220.77 442.888C1225.65 448.012 1230.58 454.015 1230.62 461.084C1215.45 456.661 1202.74 446.447 1190.48 436.47C1181.88 429.461 1173.01 422.138 1168.11 412.178C1164.58 405 1163.33 396.866 1159.9 389.645C1155.68 380.767 1148.46 373.833 1140.93 367.424C1182.96 326.112 1233.36 295.461 1288.01 277.722C1289.59 277.206 1291.19 276.708 1292.78 276.217C1294.58 279.295 1295.71 282.694 1295.91 286.338C1296.53 297.313 1288.91 306.859 1281.55 315.01C1277.96 318.976 1274.19 323 1269.33 325.216C1264.75 327.296 1259.36 327.701 1255.38 330.771C1248.74 335.878 1248.84 345.838 1250.46 354.048Z" fill="#4E768F"/>
<path d="M1354.09 414.968C1355.06 391.201 1356.02 367.433 1356.99 343.665C1363.07 365.657 1364.45 388.918 1359.5 409.692L1354.09 414.968Z" fill="#4E768F"/>
<path d="M751.079 852.665C748.898 855.184 744.882 852.698 742.616 850.246C720.7 826.589 698.775 802.922 681.695 785.64C682.135 784.287 682.287 782.875 682.017 781.437C683.623 782.587 685.424 783.179 687.293 783.331H687.301C692.459 785.75 697.177 789.47 701.506 793.241C721.046 810.253 737.847 830.393 751.079 852.665Z" fill="#4E768F"/>
<path d="M798.708 794.112C796.543 798.306 790.269 796.927 785.982 794.94C761.724 783.737 737.483 772.525 713.225 761.322C713.656 760.806 714.104 760.299 714.577 759.809C719.152 759.572 724.842 758.447 730.059 756.807C739.91 753.704 749.565 749.011 759.898 749.011C763.009 749.011 766.172 749.443 769.207 748.775C772.378 748.073 775.151 746.238 778.111 744.919C784.477 742.07 791.893 741.647 798.538 743.752C796.594 746.306 793.305 747.354 790.227 748.267C778.609 751.692 766.992 755.116 755.374 758.54C762.866 761.855 771.718 761.965 779.286 758.836C771.186 762.853 762.248 765.161 753.218 765.575C763.542 769.025 775.718 763.597 785.399 768.56C770.382 772.01 754.41 771.24 739.791 766.362C743.342 770.099 748.695 771.359 753.666 772.72C769.782 777.134 785.103 784.414 798.708 794.112Z" fill="#4E768F"/>
<path d="M786.862 707.555C789.128 707.606 791.428 707.775 793.719 707.851C765.538 712.417 738.134 721.802 713.081 735.491C712.633 734.806 712.194 734.113 711.779 733.42C717.656 722.259 740.739 715.072 762.9 710.455C770.789 708.815 778.796 707.386 786.862 707.555Z" fill="#4E768F"/>
<path d="M805.482 706.228C801.804 707.834 797.779 707.986 793.721 707.851C797.627 707.217 801.55 706.676 805.482 706.228Z" fill="#4E768F"/>
</g>
<defs>
<clipPath id="clip0_101_1531">
<rect width="2000" height="1040" fill="white"/>
</clipPath>
</defs>
</svg>
