<?xml version="1.0" encoding="utf-8"?>
<!-- Generator: Adobe Illustrator 27.0.0, SVG Export Plug-In . SVG Version: 6.00 Build 0)  -->
<svg version="1.1" id="Слой_1" xmlns="http://www.w3.org/2000/svg" xmlns:xlink="http://www.w3.org/1999/xlink" x="0px" y="0px"
	 viewBox="0 0 2000 1477.27" style="enable-background:new 0 0 2000 1477.27;" xml:space="preserve">
<style type="text/css">
	.st0{fill:#9BAFBD;}
	.st1{fill:#728694;}
	.st2{fill:#FDD5C8;}
	.st3{fill:#FEE4DB;}
	.st4{fill:#E0AFA1;}
	.st5{fill:#99685A;}
	.st6{fill:#AECCD1;}
	.st7{fill:#7A9CA1;}
	.st8{fill:#495B5E;}
	.st9{fill:url(#SVGID_1_);}
	.st10{fill:#E09F89;}
	.st11{fill:url(#SVGID_00000036938420499323866350000000480462405330700177_);}
	.st12{fill:#F6DCDD;}
	.st13{fill:#E39D9D;}
	.st14{fill:#FDACAE;}
	.st15{fill:#E2A094;}
	.st16{fill:#FEBEBE;}
	.st17{fill:#F16E2B;}
	.st18{fill:#DF523C;}
	.st19{fill:#E78B7C;}
	.st20{fill:url(#SVGID_00000134223658145132471360000017888630466425241021_);}
	.st21{fill:#E7DBE0;}
	.st22{fill:url(#SVGID_00000034087096558493602650000002524775349040153730_);}
	.st23{fill:url(#SVGID_00000150808790927233561050000005819941501803246986_);}
	.st24{fill:#E75742;}
	.st25{fill:#EEA755;}
	.st26{fill:#EEB3B2;}
	.st27{fill:#FA9DA5;}
	.st28{fill:#FABEB5;}
	.st29{fill:#F25026;}
	.st30{fill:url(#SVGID_00000129182922502974956300000012687717702655801744_);}
	.st31{fill:url(#SVGID_00000178919159558306064220000010900586729460821632_);}
	.st32{fill:url(#SVGID_00000033351409407548464460000001626829984420216971_);}
	.st33{fill:url(#SVGID_00000096056153191959972940000000340216379615162772_);}
	.st34{fill:url(#SVGID_00000114770577267732190150000009692803672917383063_);}
	.st35{fill:url(#SVGID_00000021823297826936216940000004320410703094411690_);}
	.st36{fill:url(#SVGID_00000008850758020326667920000006756806458471553162_);}
	.st37{fill:url(#SVGID_00000150793411653525431290000012370084803487213748_);}
	.st38{fill:url(#SVGID_00000127731257300263504270000000347718548491605135_);}
	.st39{fill:url(#SVGID_00000065792067635647349190000016698980827897137298_);}
	.st40{fill:url(#SVGID_00000094608691505795128200000004614641406316164016_);}
	.st41{fill:url(#SVGID_00000003807928792593609950000006132713509043595669_);}
	.st42{fill:url(#SVGID_00000083795711827615283450000002768257826495924352_);}
	.st43{fill:url(#SVGID_00000073679321521936799560000016985432586361793982_);}
	.st44{fill:url(#SVGID_00000075139624235177076960000015813245020317849268_);}
	.st45{fill:url(#SVGID_00000005264217626896250170000017381598942581852817_);}
	.st46{fill:url(#SVGID_00000045612210351769412240000016411429724351504018_);}
	.st47{fill:url(#SVGID_00000008123589244351883840000016184656380303666579_);}
	.st48{fill:url(#SVGID_00000158001572592261860420000012598271984908693438_);}
	.st49{fill:url(#SVGID_00000108289970968473508570000010432976815953796227_);}
	.st50{fill:url(#SVGID_00000064353629009160322160000014412010701318289310_);}
	.st51{fill:url(#SVGID_00000135659517889611806260000017147936391911086774_);}
	.st52{fill:url(#SVGID_00000089571633047767742370000015382922110532406698_);}
	.st53{fill:url(#SVGID_00000093138551982660427600000012145655405605041582_);}
	.st54{fill:url(#SVGID_00000075152670228205684510000003780013868210059413_);}
	.st55{fill:url(#SVGID_00000009561940451913246120000000413284502735516547_);}
	.st56{fill:url(#SVGID_00000096031800096866253270000000428946096128439197_);}
	.st57{fill:url(#SVGID_00000088095954688345515670000012017956398426015625_);}
	.st58{fill:url(#SVGID_00000147185028661363316170000007359954140199144383_);}
	.st59{fill:url(#SVGID_00000062191222823833550880000000993144882576784061_);}
	.st60{opacity:0.4;fill:url(#SVGID_00000155845457657068466900000008026307587504121270_);}
	.st61{fill:url(#SVGID_00000063600220035013577490000012305631695246933166_);}
	.st62{fill:url(#SVGID_00000101804076262235042700000001148899871865356223_);}
	.st63{fill:url(#SVGID_00000009591522138753178400000013380458343610917810_);}
	.st64{fill:url(#SVGID_00000076572503590900627710000016555272776438771640_);}
	.st65{fill:url(#SVGID_00000034803228921422890060000016411513949641611137_);}
	.st66{fill:url(#SVGID_00000144330593816351759770000017021336622458268570_);}
	.st67{fill:url(#SVGID_00000078047163180943763400000005771404195075701676_);}
	.st68{fill:url(#SVGID_00000090252295747440881360000016962668078313975947_);}
	.st69{fill:#AD0000;}
	.st70{fill:url(#SVGID_00000161592374699952040170000003884709642401364354_);}
	.st71{fill:url(#SVGID_00000128476370357488220460000006968823719926478767_);}
	.st72{fill:url(#SVGID_00000142896468517427648570000006683066628154732203_);}
	.st73{fill:url(#SVGID_00000121238002789908300490000001187633001442642574_);}
	.st74{fill:url(#SVGID_00000173876864738622422940000015353415823186378137_);}
	.st75{fill:#BF9184;}
	.st76{fill:none;stroke:#FDD5C8;stroke-miterlimit:10;}
	.st77{fill:url(#SVGID_00000118367228902504498200000007904343383384268164_);}
	.st78{fill:url(#SVGID_00000041984812239271934550000015842162488592056241_);}
	.st79{fill:url(#SVGID_00000166666856390382405760000000868004728793021610_);}
	.st80{fill:url(#SVGID_00000024723725517496243520000016449957753266637722_);}
	.st81{fill:url(#SVGID_00000117635852504522211850000013786475230845690519_);}
	.st82{fill:url(#SVGID_00000160183352135922788980000011768573582004080270_);}
	.st83{fill:url(#SVGID_00000051371597815484263480000017393103636788592795_);}
	.st84{fill:url(#SVGID_00000021099104215627522370000017554900034201698961_);}
	.st85{fill:url(#SVGID_00000032644847270875188230000002868440159430794391_);}
	.st86{fill:url(#SVGID_00000111155480119817181960000008644436544210456250_);}
	.st87{fill:none;stroke:#E0AFA1;stroke-miterlimit:10;}
	.st88{fill:#59767A;}
	.st89{fill:none;}
	.st90{fill:#314042;}
	.st91{fill:url(#SVGID_00000146484735998521047490000006103569522875137443_);}
	.st92{fill:url(#SVGID_00000101094190541066549830000005105895230314890419_);}
	.st93{fill:url(#SVGID_00000122696315627122383440000016231896739560175797_);}
	.st94{fill:url(#SVGID_00000006700751283376842510000017814401165544980897_);}
	.st95{fill:url(#SVGID_00000066513756755165704130000016927782079239550343_);}
	.st96{fill:none;stroke:#99685A;stroke-miterlimit:10;}
	.st97{fill:#F2CEC4;}
	.st98{fill:#E1AFA1;}
	.st99{fill:url(#SVGID_00000001629203237896916920000003566340112129737106_);}
	.st100{fill:url(#SVGID_00000070815664984812823080000015186123498557241782_);}
	.st101{fill:url(#SVGID_00000165219482731685914620000011301482976025377186_);}
	.st102{fill:url(#SVGID_00000001651453922040439040000009665897337312365209_);}
	.st103{fill:url(#SVGID_00000160869901522436433790000007953848802567246252_);}
	.st104{fill:url(#SVGID_00000003073913404360174660000010393228907604223126_);}
	.st105{fill:url(#SVGID_00000079478901941823670420000002111781752763912861_);}
	.st106{fill:url(#SVGID_00000059278353803064863210000002559883789784349365_);}
	.st107{fill:url(#SVGID_00000015316855645515399020000014166545859831542196_);}
	.st108{fill:url(#SVGID_00000002372901882908960420000001757935122281169852_);}
	.st109{fill:#E39F8D;}
	.st110{fill:#C2553C;}
	.st111{fill:url(#SVGID_00000116949864553327047140000009521731449602261911_);}
	.st112{fill:url(#SVGID_00000016038589035641323180000017653360153199468975_);}
	.st113{fill:url(#SVGID_00000162344219926256513220000001583548979989202567_);}
	.st114{fill:#AD4024;}
	.st115{fill:url(#SVGID_00000129185579234611754990000008071741676040050312_);}
	.st116{fill:url(#SVGID_00000023968167601374180550000016152186179572899768_);}
	.st117{fill:url(#SVGID_00000068672530483841355310000000757064286436095652_);}
	.st118{opacity:0.5608;fill:#FFFFFF;}
	.st119{fill:#FFFFFF;}
	.st120{fill:#FFF1ED;}
	.st121{fill:#E6D7D3;}
	.st122{opacity:0.4392;fill:#E0AFA1;}
	.st123{fill:#FFD3C7;}
	.st124{opacity:0.3412;fill:#AAAD66;}
	.st125{opacity:0.2314;fill:#FFFFFF;}
	.st126{fill:#23282B;}
	.st127{fill:none;stroke:#99685A;stroke-linecap:round;stroke-linejoin:round;stroke-miterlimit:10;}
	.st128{fill:#495760;}
	.st129{fill:#353A3E;}
	.st130{fill:#3A474F;}
	.st131{fill:#709EB8;}
	.st132{fill:#8BB0C5;}
	.st133{fill:#31556B;}
	.st134{fill:#4E768F;}
	.st135{fill:#263F4F;}
	.st136{fill:#576975;}
	.st137{fill:none;stroke:#3A474F;stroke-miterlimit:10;}
	.st138{fill:#2F3943;}
	.st139{fill:#C78D7D;}
	.st140{fill:#421D13;}
	.st141{fill:#5E3E35;}
	.st142{fill:#806158;}
	.st143{fill:#EFC3B6;}
	.st144{fill:#C79789;}
	.st145{fill:none;stroke:#EFC3B6;stroke-miterlimit:10;}
	.st146{fill:#69483F;}
	.st147{fill:none;stroke:#806158;stroke-width:3;stroke-linecap:round;stroke-linejoin:round;stroke-miterlimit:10;}
	.st148{fill:#E8E8E8;}
	.st149{fill:#BACAD9;}
	.st150{fill:#694034;}
	.st151{fill:#658F85;}
	.st152{fill:#407065;}
	.st153{fill:#323C42;}
	.st154{fill:#B4CADE;}
	.st155{opacity:0.3294;fill:#C75B63;}
	.st156{fill:none;stroke:#5E3E35;stroke-width:4;stroke-linecap:round;stroke-linejoin:round;stroke-miterlimit:10;}
	.st157{fill:#4C6270;}
	.st158{fill:#7A4A3D;}
	.st159{fill:#252E37;}
	.st160{fill:#3E4852;}
	.st161{fill:none;stroke:#E0AFA1;stroke-linecap:round;stroke-linejoin:round;stroke-miterlimit:10;}
	.st162{fill:#BA8677;}
	.st163{fill:#313B45;}
	.st164{fill:none;stroke:#4E768F;stroke-miterlimit:10;}
	.st165{fill:#193646;}
	.st166{opacity:0.1882;fill:#FFFFFF;}
	.st167{fill:none;stroke:#421D13;stroke-miterlimit:10;}
	.st168{opacity:0.2196;fill:#1390D4;}
	.st169{opacity:0.2392;fill:#027DCF;}
	.st170{opacity:0.3216;fill:#FFFFFF;}
	.st171{fill:#CFCFCF;}
	.st172{fill:url(#SVGID_00000029757330768821625320000012311903603291806135_);}
	.st173{fill:url(#SVGID_00000040571110665324474510000000709592942798398627_);}
	.st174{opacity:0.749;fill:url(#SVGID_00000076575024494377200480000006430589081855327625_);}
	.st175{fill:url(#SVGID_00000132067591381214613360000011825684396171693981_);}
	.st176{fill:url(#SVGID_00000110470883253491183500000010235055144828587959_);}
	.st177{fill:#821111;}
	.st178{fill:url(#SVGID_00000086679383226247254630000004711533275544405381_);}
	.st179{fill:#BC0002;}
	.st180{fill:url(#SVGID_00000174599810259686408570000004865412442414123404_);}
	.st181{fill:url(#SVGID_00000106142475598956670980000010298782498173638079_);}
	.st182{fill:url(#SVGID_00000170252103608137723350000008144696809817829797_);}
</style>
<g>
	<g>
		<linearGradient id="SVGID_1_" gradientUnits="userSpaceOnUse" x1="1000" y1="53.4232" x2="1000" y2="1471.2676">
			<stop  offset="0" style="stop-color:#9BAFBD"/>
			<stop  offset="0.1969" style="stop-color:#90A3B1"/>
			<stop  offset="0.5548" style="stop-color:#748591"/>
			<stop  offset="1" style="stop-color:#495760"/>
		</linearGradient>
		<rect class="st9" width="2000" height="1477.27"/>
		<path class="st128" d="M1141.31,971.27c16.52-6.98,33.58-12.68,50.97-17.04c8.02-2.01,21.03,2.41,16.67,9.43
			c-3.41-17.6,23.22-31.44,35.66-18.54c17.46-27.13,49.47-44.24,81.73-43.68c4.05,2.41,8.1,4.83,12.15,7.24
			c9.31-8.66,19.37-17.7,31.9-19.85c12.53-2.15,27.66,6.11,27.7,18.82c10.89-9.89,25.82-15.19,40.51-14.38
			c18.08,19.74,26.47,49.75,15.72,74.27c-10.76,24.51-43.32,38.67-66.54,25.34c-1.6,9.66-3.2,19.31-4.8,28.97
			c-6.03-15.27-26.6-22.66-40.97-14.72s-19.07,29.28-9.36,42.51c-10.18-8.41-27.59-5.47-34.45,5.82s-1.42,28.1,10.74,33.24
			c-9.11-9.32-25.36-10.42-35.65-2.42c-10.29,8-13.22,24.03-6.42,35.15c-10.02,4.07-20.61,9.67-24.6,19.72
			c-4,10.05,3.85,24.41,14.44,22.21c-21.99-12.33-54.07,2.82-58.52,27.63c-28.63-19.99-62.29-32.72-96.98-36.69
			c-13.7-1.57-31.86,1.48-34.15,15.07c2.67,7.2,13.43-0.01,15.83-7.3c13.73-41.65-7.64-91.86-47.18-110.83
			c25.49,4.78,49.91-25.82,39.6-49.62C1104.34,1013.71,1141.92,992.04,1141.31,971.27z"/>
		<path class="st128" d="M1237,719.3c5.8,2.07,6.55,10.23,4.25,15.91c-2.32,5.7-6.59,10.7-7.41,16.8
			c-0.68,4.82,0.93,9.66,1.11,14.52c0.89,22.73-28.3,42.32-19.27,63.2c8.16,4.27,6.55,16.27,3.73,25.05
			c-8.43,26.39-16.86,52.75-25.27,79.14c3.91,0.43,7.84,0.89,11.77,1.34c0.3,6.82-1.84,13.09-5.27,18.89
			c-4.82,8.11-12.23,15.3-19.3,21.73c-16.64,15.09-33.27,30.2-49.91,45.32c-2.09,1.91-4.64,3.95-7.43,3.48
			c-1.59-0.25-2.68-1.89-2.84-3.41c-11.86,20.77-23.75,41.59-35.61,62.36c-2.32,4.05-4.68,8.16-7.45,11.91
			c-2.25,3.02-4.77,5.82-7.77,8.14c-7.66,5.95-17.45,8.11-26.61,11.3c-25.95,9.02-48.61,27.14-75.61,32.3
			c-17.61,3.39-35.75,0.95-53.5-1.48c-3.61-0.5-7.23-1-10.86-1.5c-3.57-2.8-6.16-6.86-6.77-11.39c-0.8-5.95,1.95-12.09,6.55-15.93
			c-14.5,5.73-32.05,3.73-44.55-5.7c-14.64-11.02-21.41-31.45-16.3-49.05c-19.16,10.66-45.95,4.36-58.39-13.73
			c-9.61-2.09-19.61-0.23-29.43-0.61c-9.84-0.39-20.73-3.95-24.95-12.86c-1.82-3.84-1.32-8.5,0.61-12.27
			c-14.43,4.89-31.27,3.14-45.61-2.8c-16.05-6.64-29.66-17.75-42.68-29.36c3.82,2.09,7.36,4.68,10.5,7.73
			c4.86-15.68,12.34-31.8,26.45-40.18c14.11-8.39,36.09-4.73,41.84,10.66c10.95-27.23,49.66-38.39,73.43-21.2
			c4.89-11.23,10.3-23.07,20.48-29.86c10.18-6.8,26.61-5.66,31.98,5.36c-1.7-11.02,4.39-22.8,14.39-27.75
			c9.98-4.95,23.05-2.7,30.8,5.32c9.41-20.16,41.52-24.07,55.48-6.73c6.93-12.45,27.77-13.25,35.61-1.34
			c1.43-11.98,10.43-22.73,22-26.23c11.55-3.5,25,0.43,32.84,9.61c9.3-18.25,33.14-27.59,52.36-20.48
			c-1.48-16.02,10.52-32.18,26.3-35.41c-16.55-19.64-4.07-55.34,21.11-60.39c-11.05-17.34,5.57-44.3,26.02-42.18
			c4.25-11.8,8.68-23.95,17.27-33.09c8.59-9.11,22.5-14.48,33.95-9.43c0.84-9.57,3.09-20.25,11.18-25.43
			c8.07-5.18,22.18,1.66,19.25,10.82c-3.84-0.02-7.68-0.05-11.55-0.07c12.73,3.18,22.68,15.27,23.36,28.36
			C1257.95,701.75,1249.32,714.82,1237,719.3z"/>
		<g>
			<path d="M397.01,630.78c-26.35,4.98-46.34-21.55-67.15-38.46c-43.92-35.69-106.39-31.76-162.84-35.73
				c-43.13-3.03-85.86-11.75-127.2-24.4c20.6-18.8,46.36-30.87,72.1-41.6c66.85-27.86,139.69-48.87,211.17-37.19
				c38.63,6.31,78.34,24.64,96.33,59.41c8.72,16.85,11.57,36.02,14.29,54.79c0.56,3.87,1.12,7.84,0.23,11.65
				c-0.78,3.34-2.63,6.33-4.51,9.2C420.13,602.69,409.44,616.01,397.01,630.78z"/>
			<path class="st131" d="M990.34,192.43c-13.09,47.14-26.18,94.27-39.25,141.41c-8,28.84-16.91,59.07-33.41,83.41
				c-6.32,9.32-13.75,17.75-22.66,24.93c-32.16,25.91-76.36,29.34-117.61,31.7c-51.48,2.93-102.93,5.84-154.41,8.77
				c-3.32,0.18-6.66,0.39-9.98,0.57l-10.84,1.05l-1.05,0.09l-93.68,8.98h-0.02l-61.57,5.89h-0.02l-6.57,0.64l-26.25,2.52
				l-53.05,5.07l-71.91,6.89l-233,22.32L0,541.93V0h959.52l-11.3,74.89c0,0,0.5,1.43,1.43,3.98c6.16,17.39,30.82,86.73,38.45,107.64
				C989.36,189.91,990.16,192.02,990.34,192.43z"/>
			<path class="st134" d="M917.68,417.25c-6.32,9.32-13.75,17.75-22.66,24.93c-32.16,25.91-76.36,29.34-117.61,31.7
				c-51.48,2.93-102.93,5.84-154.41,8.77c-3.32,0.18-6.66,0.39-9.98,0.57l-10.84,1.05l-1.05,0.09l-93.68,8.98h-0.02l-61.57,5.89
				h-0.02l-6.57,0.64l-26.25,2.52l-53.05,5.07l-71.91,6.89l-233,22.32L0,541.93V403.82c30.73-1.05,61.41-2.09,92.14-3.14
				c101.66-3.48,203.39-6.93,305.11-8.5h0.02c25.82-0.41,51.64-0.68,77.45-0.8c6.52-0.02,13.02-0.05,19.52-0.05
				c9.41-0.02,18.8-0.02,28.18,0c1.75,0.02,3.52,0.02,5.3,0.02c36.45,0.16,72.91,0.66,109.34,1.59c62.45,1.59,124.86,4.5,187.2,9.11
				C855.55,404.39,888.07,407.64,917.68,417.25z"/>
			
				<linearGradient id="SVGID_00000084506307220756820730000013942920951847496065_" gradientUnits="userSpaceOnUse" x1="605.7024" y1="352.9358" x2="367.8969" y2="553.1321">
				<stop  offset="0" style="stop-color:#263F4F"/>
				<stop  offset="1" style="stop-color:#000000"/>
			</linearGradient>
			<path style="fill:url(#SVGID_00000084506307220756820730000013942920951847496065_);" d="M635.98,416.73
				c-2.73,22.27-8.95,44-12.98,65.93c-3.32,0.18-6.66,0.39-9.98,0.57l-324.95,31.11c24.84-17.45,46.59-41.25,65.3-65.25
				c35.5-45.59,68.39-96.89,120-122.86c18.73-9.41,39.27-15.05,60.11-17.41c26.39-3,55.23-0.09,75.64,16.93
				C634.43,346.89,639.98,383.98,635.98,416.73z"/>
			
				<linearGradient id="SVGID_00000085944383969987176930000002154078903889254020_" gradientUnits="userSpaceOnUse" x1="465.3785" y1="478.5093" x2="422.6296" y2="423.3494">
				<stop  offset="0" style="stop-color:#709EB8"/>
				<stop  offset="1" style="stop-color:#263F4F"/>
			</linearGradient>
			<path style="opacity:0.749;fill:url(#SVGID_00000085944383969987176930000002154078903889254020_);" d="M403.17,550.82
				c-16.62-12.56-31.43-27.5-43.85-44.22c-5.09-6.86-10-15.3-7.52-23.47c1.42-4.68,5.05-8.31,8.59-11.68
				c26.23-24.97,55-47.27,85.73-66.45c25.59-15.97,67.04-26.32,73.2-21.66c4.88,3.69,3.96,26.02,3.74,30.33
				c-0.69,13.48-1.86,26.94-3.52,40.34c-1.55,12.57-3.65,25.44-10.14,36.31c-5.28,8.85-13.17,15.82-21.18,22.31
				C460.07,535.42,428.6,554.13,403.17,550.82z"/>
			<path class="st132" d="M0,270.02c256.57-17.93,513.16-35.86,769.7-53.8c61.89-4.34,123.95-8.68,184.75-21.02
				c11.34-2.32,22.73-4.93,33.66-8.7c-7.64-20.91-32.3-90.25-38.45-107.64c-21.27,17.77-51.43,21.36-78.8,23.48
				C580.84,124.95,290.52,143.91,0,159.18V270.02z"/>
			
				<linearGradient id="SVGID_00000069389708841393846850000015945385870704018584_" gradientUnits="userSpaceOnUse" x1="505.3363" y1="490.1889" x2="464.6784" y2="410.7462">
				<stop  offset="0" style="stop-color:#8BB0C5"/>
				<stop  offset="1" style="stop-color:#4E768F"/>
			</linearGradient>
			<path style="fill:url(#SVGID_00000069389708841393846850000015945385870704018584_);" d="M519.55,382.91
				c21.45,22.19,42.9,44.38,64.36,66.56c10.22,10.57,21.28,24.58,16.3,38.41c-4.68,13.01-20.47,17.27-33.72,21.23
				c-39.54,11.82-75.78,36.96-116.33,41.1c-5.56,0.96-11.12,1.92-16.67,2.87c-4.69-19.78-1.48-41.32,8.77-58.88
				c4.72-8.08,10.83-15.29,15.47-23.41c3.1-5.42,5.51-11.19,7.92-16.95c6.08-14.54,12.16-29.07,18.24-43.61
				c3.09-7.39,6.31-14.98,11.96-20.65C501.48,383.9,510.22,380.53,519.55,382.91z"/>
			
				<radialGradient id="SVGID_00000096753196942253912240000002851642244888066959_" cx="487.2045" cy="4443.6138" r="122.0689" gradientTransform="matrix(1 0 0 0.4948 0 -1651.9624)" gradientUnits="userSpaceOnUse">
				<stop  offset="0" style="stop-color:#000000"/>
				<stop  offset="0.2237" style="stop-color:#020304"/>
				<stop  offset="0.4543" style="stop-color:#080D11"/>
				<stop  offset="0.6882" style="stop-color:#121E25"/>
				<stop  offset="0.9229" style="stop-color:#203542"/>
				<stop  offset="1" style="stop-color:#253E4D"/>
			</radialGradient>
			<path style="fill:url(#SVGID_00000096753196942253912240000002851642244888066959_);" d="M377.08,621.07
				c-19.34-28.59,14.29-85.12,75.11-126.26s125.81-51.31,145.14-22.72c19.34,28.59-14.29,85.12-75.11,126.26
				C461.4,639.49,396.42,649.66,377.08,621.07z"/>
		</g>
		<path class="st128" d="M2000,900.59v153.45c-3.11,6.34-5.55,13.34-7.95,19.75c-6.07,16.18-20.93,34.11-37.11,28
			c-3.45-1.3-6.45-3.61-9.95-4.84c-14.23-4.98-27.57,9.98-32.64,24.18c-5.09,14.18-7.93,31-20.55,39.23
			c-13.59,8.86-31.8,3.36-47.55,7.11c-17.39,4.11-30.91,20.93-31.2,38.77c-5.68,4.93-13.68,6.02-22.05,6.09
			c-16.82,0.09-35.11-3.95-38.98,10.61c-1.39,5.27,0.48,10.91-0.43,16.27c-2.14,12.43-17.25,17.5-29.84,18.25
			c-12.61,0.75-26.98,0.36-35.57,9.61c-4.25,4.57-6.2,10.75-9.5,16.05c-10.18,16.45-31.8,22.3-51.09,20.8
			c-19.3-1.5-37.64-8.77-56.61-12.57c-4.77-0.95-9.93-1.64-14.34,0.41c-4.5,2.09-7.3,6.59-10.59,10.34
			c-20.59,23.39-58.89,15.52-86.5,1.07c-6.66-3.48-13.55-7.32-21.05-7.23c-6.52,0.07-12.59,3.11-18.64,5.57
			c-29.43,11.93-64.16,10.05-86.55,10.43c-5.55-12.68-10.57-25.61-15.02-38.73c-9.16-26.75-16.07-54.27-20.64-82.18
			c7.41-7.32,15.45-15,25.7-16.91c4.73-0.89,9.93,0.14,14.14,2.48c0.32-1.77,0.95-3.48,1.89-4.89
			c11.23-16.98,33.55-25.77,53.34-21.02c4.7-25.59,35.59-42.64,59.73-33c6.43-18.91,33.43-26.89,49.11-14.5
			c4.84-15.18,19.66-26.59,35.55-27.43c15.91-0.82,31.82,9,38.2,23.59c-1.39-15.64,11.07-31.23,26.61-33.36
			c15.57-2.11,31.73,9.59,34.57,25.02c16.8-25.68,60.98-25.52,77.59,0.25c11.52-18.16,40.05,0.25,61-4.57
			c8-1.84,14.73-7.27,22.5-9.89c7.8-2.61,18.41-0.95,21.11,6.8c0.45-30.39,39.34-52.57,65.73-37.5c-0.52-29.14,34.95-52.25,61.41-40
			c-6.75-14-2.98-32.27,8.73-42.5c11.7-10.2,30.32-11.45,43.3-2.89c-12.27-11.59-15.68-31.5-7.93-46.5
			C1990.75,908.75,1994.98,904.11,2000,900.59z"/>
		<path class="st136" d="M2000,752.2v725.07h-741.14c6.02-13.18,14.55-25.2,25.2-35.05c-22.45-8.93-44.89-17.89-67.34-26.82
			c-1.82-15.32,0.39-31.09,6.3-45.34c-5.52-1.86-11.05-3.73-16.57-5.61c-3.91-1.32-7.82-2.64-11.73-3.95
			c1.43-33.34-13.86-66.98-39.89-87.84c1.59,11.14-13.07,18.98-23.59,15.07c-6.41-2.39-11.23-7.3-14.95-13.14
			c-2.41-3.75-4.36-7.89-6.02-11.95c-4.23-10.43-7.59-21.7-15.59-29.59c-10.68,35.8-54.57,57.57-89.55,44.36
			c-7.61-2.86-13.75-15.64-5.68-16.84c-11.57,1.93-23.93,3.43-34.59-1.45c-10.64-4.91-18-18.7-11.95-28.75
			c-12.11,7.2-26.55,11.82-40.34,8.91c-13.77-2.91-26.16-15.05-25.89-29.14c0.25-13.02,14.34-24.48,26.41-21.07
			c-15.11-7.43-14.66-35.52,2.16-40.93c-4.16,0.2-8.27-1.3-11.52-3.86c-3.57-2.8-6.16-6.86-6.77-11.39
			c-0.8-5.95,1.95-12.09,6.55-15.93c-14.5,5.73-32.05,3.73-44.55-5.7c-14.64-11.02-21.41-31.45-16.3-49.05
			c-19.16,10.66-45.95,4.36-58.39-13.73c-9.61-2.09-19.61-0.23-29.43-0.61c-9.84-0.39-20.73-3.95-24.95-12.86
			c-1.82-3.84-1.32-8.5,0.61-12.27c-14.43,4.89-31.27,3.14-45.61-2.8c-16.05-6.64-29.66-17.75-42.68-29.36
			c-2.27-2.02-4.55-4.07-6.8-6.11c-0.36-0.32-0.7-0.64-1.07-0.95c-7.41-6.77-14.93-14.41-16.3-24.27
			c-1.43-10.32,8.5-22.25,18.2-18.39c-8.11-18.14,18.93-38.98,34.41-26.5c6-7.3,13-15.18,22.41-16.07c3.73-0.36,7.5,1.25,10.32,3.77
			c0.68-7.48,4.5-14.73,10.73-19c9.75-6.68,24.18-5.14,32.52,3.18c-5.11-6.61-0.09-18.27,7.82-20.11c-2.11,0.02-4.23-0.02-6.36-0.09
			h-0.02c-25.64-1.05-50.93-9.34-72.11-23.89c-16.66,9.7-39.09,8.34-54.45-3.27c-0.09-2.09,0.43-4.16,1.41-5.98
			c0.75-1.43,1.77-2.73,2.98-3.82c-2.98,1.11-6.02,2.07-9.09,2.86c-9.84,2.59-20.11,3.57-30.27,2.86c-6.7-0.48-13.95-1.98-18.3-7.14
			c-1.07-1.25-1.82-2.8-2.25-4.41c-1.3-5,0.45-10.89,5.3-12.39c-11.27,3.09-23.86,6.07-34.23,0.66c-10.39-5.41-13.61-23.3-2.91-28
			c-9.16-2.75-19.05-6.02-24.36-13.98c-5.32-7.95-2.02-21.73,7.5-22.64c-11.34,1.14-21.93-5.89-27.73-15.57
			c-4.57-7.66-6.14-17-2.7-25.32c-9.89-3.5-15.07-14.34-14.61-24.64c0.27-6.3,2.66-12.36,7.39-16.45
			c-8.45,5.75-21.23,4.52-28.16-3.09c-1.52-8.39,1.48-17.2,7.16-23.48c2.14-2.36,4.66-4.36,7.48-5.86
			c-11.45,3.39-25.68-3.93-28.48-15.84c-3.14-13.34,9.09-27.93,22.77-27.16c-11.52-6.23-23.07-12.43-34.59-18.66
			c1.55-7.2,10-12.05,17-9.73c-19.32-8.52-11.09-42.36,7.84-57.68c20.16-16.32,43.25-28.98,67.84-37.23
			c4.25-1.45,8.57-2.77,12.91-3.93c19.77-5.3,43.05-7.05,58.59,6.23c8,6.84,12.75,16.75,20.2,24.14
			c7.48,7.41,20.23,11.77,28.25,4.98c5-4.2,6.73-11.61,12.2-15.16c7.68-4.95,18.18,0.52,23.57,7.93
			c5.36,7.41,8.07,16.64,14.14,23.45c7.82,8.77,21,12.3,32.16,8.59c13.7-4.55,22.2-17.95,33.68-26.7
			c11.48-8.77,32.07-10.27,37.02,3.3c2.89,7.93,0.48,20.02,8.59,22.3c7.18,2.02,15.68-7.39,21.25-2.41
			c1.73,1.57,2.27,4.02,2.93,6.25c6.16,20.61,28.2,31.41,48.02,39.8c6.95-3.18,15.45-2.7,22,1.25c4.39-9.14,9.09-18.66,17.36-24.5
			c8.27-5.84,21.25-6.32,27.43,1.7c11.3,14.7-8.41,41.68,6.59,52.57c11.48,8.34,26.25-5.84,31.07-19.18
			c4.82-13.32,9.5-30.25,23.41-32.95c6.61-1.3,13.3,1.34,19.5,3.93c14.7,6.14,32.25,17.09,29.39,32.75
			c-1.55,8.43-9.11,15.57-8.09,24.07c1.36,11.2,17.95,14.77,26.7,7.66c8.75-7.11,10.68-19.77,9.73-31.02
			c-0.98-11.7-4.25-24.02,0.48-34.77c4.73-10.73,22.68-15.39,27.45-4.66c-0.84-10.55,0.86-21.91,7.82-29.91
			c6.93-7.98,20.14-11,28.36-4.36c4.68-10.25,18.57-15.05,28.59-9.91c10.02,5.16,14.18,19.23,8.57,29
			c11.84,1.89,18.7,15.61,17.41,27.52c-1.3,11.89-8.43,22.25-15.36,32.02c7.11-7.61,21.18-2.09,25.27,7.5
			c4.09,9.59,1.36,20.59-1.73,30.55c16.27-3.11,30.09-16.52,33.73-32.68c1.07-4.77,1.39-9.89,4.11-13.95
			c2.7-4.05,9.09-6.2,12.45-2.66c5.95-9.86,22.34-10.77,29.32-1.61c2.8-8.59,12.93-14.05,21.64-11.61
			c8.73,2.41,14.59,12.3,12.57,21.09c7.98-8.41,22.2-9.93,31.77-3.39c9.59,6.55,13.34,20.34,8.41,30.84
			c18.02-5.5,37.98,15.02,31.95,32.86c15.75,3.43,23.43,25.7,13.16,38.11c5.86-5.91,16.64-5.8,22.39,0.25
			c5.73,6.02,5.3,16.8,1.77,22.36c23.48,9.3,36.11,39.45,26.27,62.7c12.18,4.18,21.73,15.27,24.05,27.93
			c0.82,4.57,0.86,9.52,3.55,13.32c7.8,11,33.11,7.45,31.11,20.77c15.07-10.14,34.25-13.95,52.05-10.36
			c-0.36-11.95,12.43-22.36,24.05-19.59c-1.59-27.64,29.48-51.68,55.84-43.2c34.41-38.14,88.14-57.82,139.05-50.98
			c19-0.05,19.75,32.75,37.5,39.59c15.3-15.64,47.25-4.93,50,16.77c8.98-7.39,22.52-6.77,32.95-1.61
			c10.41,5.18,18.39,14.07,26.11,22.75c0.59-12.39,15.48-18.02,27.61-20.61C1971.59,758.27,1985.8,755.23,2000,752.2z"/>
		<path class="st128" d="M987.02,749.59c2.43,5.23,0.39,11.34-1.66,16.75c-2.66,6.98-5.32,13.98-7.98,20.98
			c-1.91,13.73-12.3,25.7-25.25,30.39c-2.93,9.36-9.7,17.5-18.32,22.18c0.43,0.07,0.84,0.16,1.25,0.27
			c-2.18,13.68-15.91,24.48-29.73,23.36c3.84-5.8,0.57-14.3-5.41-17.86c-5.95-3.57-13.57-3.18-20.23-1.23
			c-5.64,1.66-10.95,4.34-15.61,7.86c-9.55,7.23-16.86,18.2-28.36,21.5c-11.5,3.32-26.52-10.23-18.55-19.16
			c-23.27,9.89-53.43-10.75-52.66-36.02c-10.91,7.14-20.91,15.98-33.07,20.73c-17.59,6.84-37.25,4.18-55.93,1.45
			c-17.55-2.57-35.09-5.16-52.61-7.91c-2.05-0.3-4.07-0.61-6.11-0.95c-16.98-2.68-33.93-5.52-50.82-8.68
			c-1.3-5,0.45-10.89,5.3-12.39c-11.27,3.09-23.86,6.07-34.23,0.66c-10.39-5.41-13.61-23.3-2.91-28
			c-9.16-2.75-19.05-6.02-24.36-13.98c-5.32-7.95-2.02-21.73,7.5-22.64c-11.34,1.14-21.93-5.89-27.73-15.57
			c-4.57-7.66-6.14-17-2.7-25.32c-9.89-3.5-15.07-14.34-14.61-24.64c6.8,0.23,13.14,3.59,14.68,10.14
			c-5.07-19.77,19.36-39.84,37.77-31.07c3.84-6.41,9.39-12.86,16.82-13.39c5.52-0.39,10.89,4.8,11.18,9.73
			c7.43-14.36,33.16-16.68,41.16-1.59c3.5-10.91,17.05-17.34,27.7-13.14c6.93,2.75,11.7,9.61,12.84,16.91
			c2.86-7.36,9.14-13.5,16.82-15.5c11.52-3,24.75,3.64,29.25,14.66c5.32-10.48,11.48-21.77,22.32-26.32
			c8.57-3.61,20.3,0.39,24.02,7.95c0.34-7.82,5.93-15.52,13.68-17.3c10-2.3,21.07,5.86,21.82,16.11
			c1.59-9.77,11.05-17.59,20.93-17.34c9.89,0.27,18.93,8.61,19.98,18.45c3.11-6.27,11.5-9.25,17.86-6.34
			c6.34,2.91,9.57,11.23,6.84,17.66c5.93-7.68,15.2-12.68,24.89-13.36c3.59,6.02,5.86,12.84,6.57,19.84
			c2.89-7.52,7.3-15.34,14.89-18c4.59-1.61,10.2,0.05,13.52,3.34c-1.57-13.48,8.75-28.48,22.73-29.57c-4.34-4.5-1.18-13.5,5-14.34
			c6.2-0.82,11.61,7.05,8.59,12.52c9.3-3.2,20.5,0.48,26.07,8.57c5.55,8.09,4.95,19.89-1.39,27.39c6.8-7.32,16.91-11.43,26.89-10.93
			c0.41,12.64-0.41,25.3-2.45,37.75c8.43-5.75,20.41,3.68,21.02,13.86c0.61,10.16-5.8,19.27-11.89,27.43
			c8.27,7.7,6.27,22.55-2.05,29.52C983.05,745.41,985.84,747.05,987.02,749.59z"/>
		<path class="st130" d="M912.82,789.82c-32.09,32.73-75,54.64-120.34,61.43c-6.84,1.02-13.77,1.7-20.41,3.7
			c-8.09,2.41-15.5,6.64-22.98,10.55c-0.34,0.18-0.66,0.34-1,0.52h-0.02c-25.64-1.05-50.93-9.34-72.11-23.89
			c-16.66,9.7-39.09,8.34-54.45-3.27c-0.16-3.73,1.61-7.34,4.39-9.8c-12.52,4.66-26.02,6.66-39.36,5.73
			c-6.7-0.48-13.95-1.98-18.3-7.14c-4.34-5.14-3.36-14.8,3.05-16.8c-11.27,3.09-23.86,6.07-34.23,0.66
			c-10.39-5.41-13.61-23.3-2.91-28c-9.16-2.75-19.05-6.02-24.36-13.98c-5.32-7.95-2.02-21.73,7.5-22.64
			c-11.34,1.14-21.93-5.89-27.73-15.57c12.86-23.75,25.8-55.8,48.64-50.02c14.91,3.75,11.48,28.52,17.23,42.8
			c4.45-14.27,13.18-28.68,27.39-33.25c12.68-4.09,28.95,4.48,30.66,16.82c2.16-15.66,23.68-25.48,39.14-18.95
			c16.95,7.16,25.86,26.09,29.09,44.2c4.32-11,20.98-11.84,30.14-4.34c9.16,7.5,12.66,19.73,15.68,31.16
			c28.34-15.7,41.64-61.93,74.05-62.09c6.59-0.05,8.41,10.14,12.61,15.23c18.66,0.45,35.45,17.14,36.07,35.8
			c10.14-6.41,26.3-19.18,34.09-10.05c8.05,9.41,8.27,25.02,20.66,25.61c3.98,0.18,8.3-0.64,11.75,1.32
			C925.02,770.27,919.48,783.02,912.82,789.82z"/>
		<path class="st130" d="M1288.02,1247.39c-4.27,12.39-13.16,22.75-23.41,30.93c-14.11,11.3-32.68,19.16-50.23,14.7
			c-17.52-4.45-31.05-25.05-23.23-41.36c-11.52,9.18-23.93,18.73-38.57,20.14c-14.18,1.36-30.39-8.66-30.55-22.66
			c-0.16,8.91-2.23,17.45-5.75,25.45c-2.41-3.75-4.36-7.89-6.02-11.95c-4.23-10.43-7.59-21.7-15.59-29.59
			c-10.68,35.8-54.57,57.57-89.55,44.36c-7.61-2.86-13.75-15.64-5.68-16.84c-11.57,1.93-23.93,3.43-34.59-1.45
			c-10.64-4.91-18-18.7-11.95-28.75c-12.11,7.2-26.55,11.82-40.34,8.91c-13.77-2.91-26.16-15.05-25.89-29.14
			c0.25-13.02,14.34-24.48,26.41-21.07c-15.11-7.43-14.66-35.52,2.16-40.93c-8.73,0.43-17.14-6.61-18.3-15.25
			c-0.8-5.95,1.95-12.09,6.55-15.93c-14.5,5.73-32.05,3.73-44.55-5.7c-14.64-11.02-21.41-31.45-16.3-49.05
			c-19.16,10.66-45.95,4.36-58.39-13.73c-9.61-2.09-19.61-0.23-29.43-0.61c-9.84-0.39-20.73-3.95-24.95-12.86
			c-1.82-3.84-1.32-8.5,0.61-12.27c-14.43,4.89-31.27,3.14-45.61-2.8c-18.84-7.8-34.36-21.77-49.48-35.48
			c-0.36-0.32-0.7-0.64-1.07-0.95c0.23-1,0.48-2,0.75-3c6.61-23.5,44.41-35.2,54.93-13.18c0.16-22.14,30.16-37.34,48.11-24.39
			c8.14-29,55.34-35.09,70.59-9.11c2.91-11.45,18.09-15.86,29.14-11.64c11.05,4.23,18.73,14.14,25.82,23.61
			c17.07,22.8,43.77-40.75,71.66-22.52c63.02,41.2,19.25,130.95,31.68,156.07c19.18-20.48,38.36-40.98,57.52-61.48
			c-7.36-13.84-14.86-28.18-16.18-43.8c-1.32-15.64,5.2-33.02,19.41-39.7c13.8-6.48,33.43,17.52,34.5,18.84
			c-0.82-1.5-16.18-29.66-4.89-39.95c11.64-10.59,39.41,8.66,39.41,8.66s26.66-10.48,40.89-7.52c31.89,6.61,64.98,25.57,72.75,57.2
			c7.77,31.64-27.09,69.16-55.73,53.64c5.73,18.73-1.14,40.27-15.59,53.25c8.07-1.16,17.77,2.84,22.27,10.16
			c7.09,11.55,5,26.34,2,39.55c11.27-12.75,26.16-24.93,43.14-23.77c16.98,1.14,31.09,23.61,19.3,35.91
			c13.86-11.66,36.55-4.68,47.64,9.64c11.09,14.32,13.68,33.25,15.91,51.23C1291.25,1216.61,1293.09,1232.68,1288.02,1247.39z"/>
		<path class="st130" d="M2000,1470.68v6.59h-741.14c6.02-13.18,14.55-25.2,25.2-35.05c-22.45-8.93-44.89-17.89-67.34-26.82
			c-1.82-15.32,0.39-31.09,6.3-45.34c-5.52-1.86-11.05-3.73-16.57-5.61c14.32-28.77,30.8-54.52,59.36-57.7
			c19.16-2.14,34.25,18.27,53.36,20.66c-13.59-14.2-12.82-36.89-2.89-54.18c3.11-5.48,7.16-10.43,11.95-14.39
			c19.98-16.45,48.11-19.14,73.8-15.98c25.68,3.18,50.57,11.41,76.32,14.09c16.61-35.73,80.16-30.68,90.89,7.23
			c2.14-32.23,55.32-43.61,70.48-15.09c-0.34-26.18,34.91-44.77,56.34-29.7c6.86-21,20.43-55.09,41.77-49.34
			c7.48,2,8.25,13.09,12.39,19.66c9.11-20.23,25.84-50.59,47.16-44.5c22.93,6.57,5.39,44.57-6.39,67.14c-0.52,1.02-1.07,2.05-1.57,3
			c-15.55,29.36-31.09,58.73-46.64,88.09c7.5,0.14,16.98-4.61,22.52,0.43c20.3,18.5-10.32,55.11-35.16,69.39
			c6.39-3.16,15.32-5.3,18.55,0.25c7.16,12.18-2.18,28.18-3.3,42.27c20.64-8.59,46.5-2.34,60.93,14.7
			c4.7,5.59,8.59,12.41,15.23,15.48c22.36,10.3,46.7-40.98,65.64-25.25c11.02,9.14,11.14,26.39,16.68,39.59
			c22.11-4.7,47.18-26.14,66.34-14.14C1981.36,1453.14,1990.27,1464.23,2000,1470.68z"/>
		<path class="st128" d="M540.98,594.39c2.82,15.57-7.66,32.43-22.86,36.77c0.68-1.84-1.89-3.45-3.75-2.86
			c-1.86,0.57-3.11,2.27-4.5,3.64c-3.55,3.43-9.39,4.77-13.57,2.16c-4.2-2.61-5.2-9.55-1.3-12.55c-5.59,0.32-11.27-1.73-15.39-5.52
			c-2.89,11-10.05,24.77-21,22.34c2.14-2.36,4.66-4.36,7.48-5.86c-11.45,3.39-25.68-3.93-28.48-15.84
			c-3.14-13.34,9.09-27.93,22.77-27.16c-11.52-6.23-23.07-12.43-34.59-18.66c1.55-7.2,10-12.05,17-9.73
			c-19.32-8.52-11.09-42.36,7.84-57.68c20.16-16.32,43.25-28.98,67.84-37.23c-2.18,13.82-2.77,30.61,8.86,38.14
			c3.2,2.09,7.02,3.14,10.2,5.25c8.66,5.82,9.86,20.02,2.3,27.2c11.43,1.45,16.3,19.07,7.25,26.18
			C556.7,571.5,553.09,590.09,540.98,594.39z"/>
	</g>
</g>
</svg>
