<svg width="1987" height="1040" viewBox="0 0 1987 1040" fill="none" xmlns="http://www.w3.org/2000/svg">
<g clip-path="url(#clip0_101_1427)">
<rect width="1986.63" height="1040" fill="#9BAFBD"/>
<path d="M995.83 899.83C986.06 897.81 976.19 897.71 966.35 898.85C950.39 900.7 934.52 905.83 919.31 911.29C909.85 914.68 900.44 918.22 891.28 922.33C854.28 938.96 822.51 964.44 793.77 993.36C777.47 1009.74 762.14 1027.24 747.38 1044.85C734.68 1060.02 721.46 1077.84 722.82 1098.13C732.62 1101.08 741.54 1106.8 748.44 1114.36C751.49 1117.71 754.15 1121.43 756.3 1125.41C734.78 1120.93 714.95 1110.48 697.73 1096.67C694.22 1093.87 690.83 1090.92 687.54 1087.85C684.31 1084.84 681.18 1081.71 678.18 1078.48C673.15 1073.07 668.41 1067.41 663.95 1061.55C663.69 1061.22 663.43 1060.88 663.17 1060.54L602.94 918.37C601.85 912.29 600.83 906.2 599.81 900.12C598.05 889.5 596.32 878.93 594.39 868.54C586.1 824.04 574.25 782.69 588.81 739.82C602.54 699.41 628.28 663.45 660.87 635.9C676.04 623.07 692.97 611.87 711.89 605.81C735.01 598.4 759.84 598.99 784.09 599.91C798.57 600.45 813.6 601.23 826.41 608.02C833.6 611.83 839.74 617.38 845.31 623.31C860.26 639.19 871.78 658.29 876.2 677.02C897.3 718.79 918.41 760.54 939.51 802.31C947.85 818.82 956.2 835.34 965.49 851.32C966.33 852.77 967.18 854.21 968.04 855.65C968.11 855.79 968.19 855.92 968.27 856.06C974.98 867.31 982.21 878.26 989.15 889.17C991.41 892.71 993.65 896.27 995.83 899.83Z" fill="#709EB8"/>
<path d="M1743 -11H243V1705.87H1743V-11Z" fill="#9BAFBD"/>
<path d="M1474.55 351.25C1474.41 359.43 1475.46 367.86 1472.83 375.6C1470.94 381.17 1467.44 385.68 1463.28 389.77C1462.49 390.55 1461.68 391.31 1460.85 392.07L1460.84 392.08C1457.83 394.81 1454.6 397.4 1451.44 400.08C1450.42 400.96 1449.4 401.83 1448.4 402.73C1446.48 404.46 1444.62 406.25 1442.92 408.15C1442.19 408.97 1441.48 409.8 1440.81 410.67C1437.79 414.55 1435.44 418.97 1432.15 422.61C1431.71 423.1 1431.25 423.57 1430.77 424.02C1429.52 425.21 1428.15 426.25 1426.74 427.25C1424.26 429 1421.64 430.59 1419.32 432.56C1419.15 432.7 1418.99 432.85 1418.82 433C1410.17 440.66 1406.75 452.56 1403.68 462.67C1401.07 472.15 1402.63 482.2 1402.68 492.04C1402.69 492.18 1402.69 492.34 1402.69 492.48C1402.7 502.46 1400.42 513.5 1392.37 519.41C1390.47 520.8 1388.39 521.82 1386.19 522.58C1382 524.03 1377.4 524.56 1372.94 525.03C1372.02 525.13 1371.09 525.23 1370.17 525.33C1369.99 525.35 1369.8 525.37 1369.62 525.38C1367.24 525.63 1364.86 525.89 1362.48 526.15C1361.54 526.25 1360.5 526.39 1359.89 527.12C1359.39 527.7 1359.3 528.52 1359.23 529.29C1358.96 532.31 1358.68 535.34 1358.34 538.3C1358.01 541.24 1357.62 544.11 1357.1 546.88C1356.68 547.72 1356.21 548.52 1355.7 549.28C1355.09 550.19 1354.4 551.05 1353.66 551.86C1353.43 552.12 1353.17 552.38 1352.92 552.64C1350.32 555.32 1347.15 557.56 1344.07 559.72C1342.67 560.7 1341.28 561.67 1339.88 562.66C1334.12 566.67 1328.37 570.7 1322.6 574.73C1321.85 575.25 1321.1 575.78 1320.35 576.3C1319.81 576.68 1319.27 577.05 1318.73 577.43C1318.18 577.81 1317.6 578.23 1317.34 578.85C1317.14 579.33 1317.15 579.86 1317.16 580.38C1317.22 585.87 1316.26 591.32 1315.28 596.73C1315.24 596.92 1315.21 597.11 1315.18 597.3C1314.27 602.33 1313.27 607.42 1310.9 611.93C1308.43 616.62 1304.22 620.69 1299.01 621.61C1298.25 623.36 1297.17 624.97 1295.84 626.36C1294.5 627.77 1292.93 628.95 1291.2 629.84C1289.49 630.72 1287.62 631.31 1285.71 631.55C1284.08 631.75 1282.36 631.73 1280.97 632.59C1279.9 633.23 1279.19 634.31 1278.66 635.1C1278.32 635.47 1277.98 635.85 1277.64 636.22C1275.06 639.04 1272.36 641.83 1269.49 644.35C1264.86 648.43 1259.76 651.8 1253.86 653.4C1253.44 653.51 1253.02 653.62 1252.59 653.71C1252.14 653.81 1251.7 653.9 1251.23 653.97C1248.75 654.4 1246.23 654.54 1243.71 654.43C1243.03 654.4 1242.35 654.36 1241.69 654.29C1240.17 654.15 1238.65 653.94 1237.16 653.65C1225.77 651.49 1215.34 645.67 1206.28 638.43C1197.23 631.2 1189.41 622.55 1181.65 613.96C1166.34 597.01 1151.04 580.06 1134.67 562.75C1134.01 563.64 1133.34 564.54 1132.68 565.43C1128.65 570.88 1124.62 576.33 1120.58 581.78C1111.04 594.67 1101.49 607.57 1091.94 620.46C1075.29 642.94 1058.27 665.8 1035.63 682.23C996.66 656.96 961.81 625.37 932.86 589.06C924.03 577.99 915.75 566.48 906.53 555.73C901.33 549.67 895.68 543.51 892.17 536.47C890.77 533.66 889.71 530.71 889.17 527.58C887.95 520.54 892.39 514.29 898.02 510.93C931.66 490.84 961.98 465.2 987.49 435.45C998.04 423.14 1007.77 410.14 1016.57 396.53C1026.88 380.58 1036 363.67 1041.28 345.42C1043.43 338.03 1044.91 330.54 1045.96 322.97C1047.44 312.26 1048.03 301.41 1048.34 290.49C1048.73 276.59 1048.67 262.6 1049.38 248.7C1049.66 243.05 1050.08 237.41 1050.71 231.81C1056.78 177.71 1083.57 126.2 1124.39 90.16C1144.07 72.79 1166.91 59.09 1191.3 49.56C1191.3 49.56 1191.31 49.56 1191.32 49.55C1198.92 46.59 1206.67 44.02 1214.52 41.87C1233.72 36.62 1253.52 33.88 1273.2 33.86C1276.62 34.27 1280.05 34.75 1283.46 35.31H1283.47C1350.98 46.27 1413.71 84.93 1454.22 139.23C1460.91 151.59 1470.56 162.17 1477.06 174.63C1484.03 187.97 1487.14 202.94 1488.73 218.05C1492.82 246.57 1491.62 275.84 1485.02 304.09C1479.94 319.43 1474.83 335.08 1474.55 351.25Z" fill="#FDD5C8"/>
<path d="M1096.43 231.97C1083.98 237.51 1073.92 248.22 1069.16 260.99C1064.4 273.76 1065 288.44 1070.78 300.78C1068.83 289.63 1068.66 278.03 1071.64 267.11C1074.62 256.19 1080.91 245.98 1090.14 239.44C1092.99 237.42 1096.23 235.62 1097.89 232.55C1097.27 232.26 1096.64 231.87 1096.43 231.97Z" fill="#FEE4DB"/>
<path d="M1100.01 217.95C1109.03 223.36 1115.89 232.26 1118.82 242.36C1119.77 245.63 1120.66 249.46 1123.74 250.92C1122.41 236.89 1114.12 223.7 1102.07 216.39C1101.3 215.92 1100.47 215.46 1099.57 215.41C1098.67 215.35 1097.67 215.81 1097.39 216.67C1098.01 217.5 1098.64 218.33 1100.01 217.95Z" fill="#FEE4DB"/>
<path d="M1284.01 303.87C1310.46 304.85 1335.68 316.16 1357.28 331.46C1365.46 337.26 1373.31 343.69 1382.37 348C1391.43 352.31 1402.14 354.3 1411.52 350.74C1395.97 349.32 1381.6 341.96 1368.41 333.61C1355.22 325.25 1342.68 315.72 1328.53 309.13C1314.36 302.53 1298 299.05 1284.01 303.87Z" fill="#FEE4DB"/>
<path d="M1312.77 373.84C1317.38 377.24 1322.31 380.31 1327.75 382.1C1333.19 383.88 1339.22 384.3 1344.62 382.41C1345.21 382.2 1345.83 381.94 1346.16 381.4C1346.7 380.52 1346.17 379.38 1345.56 378.54C1341.97 373.6 1335.78 371.44 1329.98 369.54C1327.18 368.63 1324.39 367.72 1321.59 366.81C1317.7 365.54 1313.22 364.33 1309.72 366.46C1309.28 366.73 1308.85 367.07 1308.67 367.55C1308.53 367.92 1308.56 368.33 1308.61 368.73C1308.93 370.83 1310.48 372.15 1312.77 373.84Z" fill="#FEE4DB"/>
<path d="M1442.92 408.14C1442.19 408.96 1441.48 409.79 1440.81 410.66C1437.79 414.54 1435.44 418.96 1432.15 422.6C1430.31 421.51 1428.52 420.33 1426.78 419.08C1425.42 418.1 1424.01 416.88 1423.82 415.23C1423.67 413.83 1424.44 412.5 1425.4 411.48C1427.8 408.92 1431.37 407.72 1434.87 407.5C1437.57 407.33 1440.25 407.67 1442.92 408.14Z" fill="#FEE4DB"/>
<path d="M1396.18 402.06C1385.95 432.92 1380.86 465.47 1381.17 497.97C1381.19 500.15 1381.29 502.48 1382.59 504.23C1385.15 507.65 1390.96 506.54 1393.63 503.22C1396.3 499.89 1396.72 495.35 1397.07 491.1C1399.13 466.06 1402.63 441.14 1407.55 416.5C1408.32 412.65 1409.09 408.5 1407.44 404.94C1405.8 401.36 1400.6 399.28 1396.18 402.06Z" fill="#FEE4DB"/>
<path d="M1254.55 465.88C1243.1 484.66 1233.4 504.51 1225.62 525.09C1224.23 528.78 1222.96 533.16 1225.15 536.44C1225.55 537.04 1226.11 537.6 1226.82 537.72C1227.91 537.9 1228.87 537.02 1229.61 536.2C1243.33 521.04 1253.71 502.66 1269.84 490.1C1273.51 487.25 1277.67 484.42 1279.12 480C1281.01 474.26 1277.21 467.75 1271.79 465.1C1266.37 462.43 1259.88 462.93 1254.55 465.88Z" fill="#FEE4DB"/>
<path d="M1204.33 350.06C1211.17 358.97 1218.05 367.94 1223.18 377.94C1226.26 383.95 1228.69 390.29 1231.78 396.3C1240.03 412.31 1253.12 425.79 1268.89 434.51C1274.09 437.39 1279.7 439.79 1285.63 440.25C1289.03 440.51 1293.03 439.77 1294.62 436.76C1296.22 433.72 1294.57 430.04 1292.85 427.07C1288.11 418.9 1282.65 411.14 1276.57 403.91C1270.45 396.63 1263.65 389.85 1258.6 381.79C1253.63 373.86 1250.47 364.89 1245.43 357.01C1240.38 349.13 1232.68 342.08 1223.35 341.34C1214.24 340.62 1205.23 346.01 1204.33 350.06Z" fill="#FEE4DB"/>
<path d="M1071.53 335.77C1073.45 340.81 1076.61 345.38 1080.66 348.95C1084.26 352.12 1089.22 354.58 1093.75 353.02C1096.08 352.22 1098.15 349.4 1096.69 347.41C1096.08 346.59 1095.06 346.2 1094.09 345.87C1087.89 343.77 1081.07 341.76 1077.27 336.42C1076.49 335.33 1075.73 334.02 1074.42 333.73C1073.12 333.44 1071.71 335.34 1071.53 335.77Z" fill="#FEE4DB"/>
<path d="M1121.17 292.45C1117.18 295.08 1113.58 298.5 1111.46 302.78C1109.34 307.07 1108.85 312.31 1110.87 316.64C1111.11 317.16 1111.4 317.68 1111.86 318.03C1113.42 319.2 1115.73 317.51 1116.09 315.59C1116.44 313.67 1115.65 311.76 1115.33 309.84C1114.68 305.85 1116.26 301.58 1119.35 298.98C1120.63 297.91 1122.2 297.03 1122.87 295.51C1123.56 293.99 1122.45 291.61 1121.17 292.45Z" fill="#FEE4DB"/>
<path d="M1418.38 339.74C1419.39 324.27 1411.89 308.72 1415.28 293.6C1415.63 292.03 1416.23 290.32 1417.66 289.59C1419.28 288.76 1421.37 289.6 1422.51 291.03C1423.65 292.46 1424.07 294.31 1424.44 296.1C1426.02 303.66 1427.31 311.27 1428.32 318.92C1428.93 323.51 1429.41 328.29 1427.94 332.69C1426.46 337.07 1422.49 340.96 1418.38 339.74Z" fill="#FEE4DB"/>
<path d="M1464.25 316.79C1456.24 326.71 1449.5 337.65 1444.25 349.27C1443.5 350.93 1443.28 353.6 1445.07 353.87C1445.62 353.95 1446.17 353.73 1446.67 353.47C1449.46 352.04 1451.63 349.65 1453.73 347.31C1461.74 338.37 1469.82 329.35 1475.81 318.95C1476.51 317.73 1477.21 316.44 1477.3 315.03C1477.4 313.62 1476.73 312.06 1475.42 311.55C1474.46 311.18 1473.38 311.41 1472.41 311.75C1469.59 312.73 1466.52 313.97 1464.25 316.79Z" fill="#FEE4DB"/>
<path d="M1241.67 654.26C1240.15 654.12 1238.63 653.91 1237.14 653.62C1225.75 651.46 1215.32 645.64 1206.26 638.4C1197.21 631.17 1189.39 622.52 1181.63 613.93C1166.32 596.98 1151.02 580.03 1134.65 562.72C1129.95 569.06 1125.26 575.41 1120.56 581.75C1108.97 569.62 1098.15 556.85 1089.03 542.79C1071.84 516.29 1061.04 484.34 1065.59 453.1C1068.76 431.31 1079.21 410.54 1078.02 388.47C1077.95 387.2 1077.6 385.95 1076.94 384.86C1075.2 381.98 1072.9 382.47 1070.83 383.05C1063.09 385.27 1055.55 389.24 1050.76 395.72C1047.15 400.6 1045.34 406.54 1043.59 412.35C1029.76 458.3 1015.94 504.25 1002.11 550.2C997.731 564.75 990.751 581.75 975.801 584.44C964.431 586.49 953.011 578.3 948.331 567.74C943.641 557.18 944.451 544.96 947.091 533.71C949.731 522.46 954.081 511.65 956.321 500.31C957.421 494.75 957.941 488.71 955.381 483.65C933.851 500.7 912.751 518.3 892.131 536.46C890.731 533.65 889.671 530.7 889.131 527.57C887.911 520.53 892.351 514.28 897.981 510.92C931.621 490.83 961.941 465.19 987.451 435.44C998.001 423.13 1007.73 410.13 1016.53 396.52C1026.84 380.57 1035.96 363.66 1041.24 345.41C1043.39 338.02 1044.87 330.53 1045.92 322.96C1048.69 322.83 1051.45 323.13 1054.1 324.02C1059.01 325.66 1065.54 341.97 1069.24 345.6C1077.6 353.79 1089.2 360.35 1096.61 360.93C1099.11 361.13 1101.07 363.14 1101.03 365.66C1100.81 378 1098.07 387.26 1095.65 400.77C1090.19 431.25 1090.73 463.29 1101.19 492.43C1106.05 505.98 1112.96 518.72 1120.54 530.96C1135.9 555.8 1154.05 578.82 1173.11 600.94C1188.93 619.32 1205.98 637.55 1227.83 648.05C1232.36 650.2 1237.12 652.09 1241.67 654.26Z" fill="#E0AFA1"/>
<path d="M1283.44 35.28C1259.26 43.69 1237.04 58.78 1219.32 77.44C1189.93 108.39 1171.58 148.23 1158.39 188.81C1148.45 219.36 1141.09 251.15 1141.59 283.28C1135.12 273.61 1131.87 262.22 1128.32 251.14C1124.77 240.06 1120.65 228.8 1112.9 220.13C1105.16 211.46 1092.92 205.83 1081.73 208.99C1077.94 178.31 1087.82 150.37 1103.62 127.46C1119.43 104.54 1140.86 86.08 1163.07 69.3C1172.21 62.4 1181.59 55.69 1191.29 49.53C1191.29 49.53 1191.3 49.53 1191.31 49.52C1198.91 46.56 1206.66 43.99 1214.51 41.84C1233.71 36.59 1253.51 33.85 1273.19 33.83C1276.61 34.24 1280.03 34.73 1283.44 35.28Z" fill="#E0AFA1"/>
<path d="M1051.36 278.38C1052.93 292.67 1058.35 306.53 1066.88 318.1C1069.74 321.98 1073.99 325.98 1078.68 324.88C1072.61 314 1066.48 302.96 1063.42 290.88C1060.37 278.8 1060.7 265.35 1067.07 254.64C1068.94 251.49 1071.29 248.64 1073.73 245.9C1077.18 242.02 1080.85 238.33 1084.69 234.85C1086.31 233.38 1088.03 231.86 1088.77 229.8C1089.51 227.74 1088.83 224.99 1086.78 224.23C1084.97 223.56 1083.01 224.65 1081.42 225.76C1066.21 236.33 1054.49 252.59 1051.66 270.9C1050.86 276.14 1050.84 281.82 1051.36 278.38Z" fill="#E0AFA1"/>
<path d="M1077.38 304.23C1083.05 307.06 1087.84 311.63 1090.92 317.17C1092.15 319.38 1093.12 321.73 1094.54 323.82C1095.96 325.91 1097.98 327.74 1100.45 328.26C1100.99 328.37 1101.58 328.42 1102.06 328.15C1102.5 327.9 1102.77 327.44 1103 326.98C1104.03 324.91 1104.61 322.62 1104.69 320.3C1104.72 319.42 1104.67 318.49 1104.23 317.72C1103.84 317.03 1103.17 316.54 1102.5 316.11C1099.8 314.4 1096.7 313.4 1094.01 311.69C1090.29 309.33 1087.55 305.74 1084.79 302.3C1083.82 301.1 1082.81 299.87 1081.46 299.13C1080.11 298.39 1078.31 298.24 1077.08 299.17C1075.34 300.49 1075.57 303.34 1076.96 305.02C1078.37 306.71 1080.53 307.51 1077.38 304.23Z" fill="#E0AFA1"/>
<path d="M1251.22 653.93C1248.74 654.36 1246.22 654.5 1243.7 654.39C1241.24 653.66 1238.79 652.94 1236.34 652.2C1230.39 650.44 1224.41 648.67 1218.9 645.81C1209 640.69 1201.15 632.38 1193.6 624.17C1163.19 591.12 1133.67 556.47 1113.89 516.15C1094.12 475.82 1084.74 428.87 1096.31 385.48C1097.39 381.41 1098.67 377.31 1098.54 373.1C1098.4 368.9 1096.55 364.46 1092.84 362.49C1091 361.51 1088.85 361.21 1087.04 360.18C1085.23 359.14 1083.79 356.88 1087.84 355.52C1092.18 357.05 1097.05 355.26 1100.77 352.56C1104.49 349.87 1107.52 346.29 1111.22 343.54C1112.11 342.88 1113.09 342.25 1114.2 342.17C1118.11 341.89 1118.99 347.56 1118.39 351.44C1112.69 388.33 1109.72 426.15 1116.46 462.86C1123.18 499.57 1140.44 535.36 1169.49 558.8C1172.52 561.24 1176.02 563.65 1179.89 563.38C1184.8 563.04 1188.3 558.6 1190.75 554.34C1204.74 530.03 1204.95 500.48 1204.77 472.43C1204.71 461.6 1204.63 450.66 1202.24 440.1C1196.87 416.26 1180.43 396.65 1163.97 378.6C1155.99 369.83 1147.67 360.87 1143.62 349.72C1139.56 338.58 1140.92 324.54 1150.07 317C1152.03 315.39 1154.45 314.08 1156.97 314.3C1159.79 314.54 1162.08 316.59 1164.09 318.57C1189.24 343.29 1206.48 374.76 1223.35 405.72C1228.55 415.24 1233.8 424.95 1235.98 435.58C1238.75 449.05 1236.35 463.04 1232.94 476.37C1229.45 490.03 1224.9 503.42 1219.33 516.37C1215.35 525.64 1210.82 534.77 1208.5 544.59C1205.92 555.47 1206.16 566.78 1206.4 577.96C1206.65 589.63 1206.95 601.51 1210.79 612.53C1217.34 631.27 1233.23 644.91 1251.22 653.93Z" fill="#E0AFA1"/>
<path d="M1373.63 378.07C1367.08 375.77 1359.98 373.02 1356.58 366.97C1355.86 365.68 1355.33 364.24 1355.38 362.77C1355.44 361.19 1356.15 359.72 1356.57 358.2C1358.12 352.51 1355.27 346.33 1350.86 342.42C1346.45 338.51 1340.7 336.49 1335.03 334.88C1316.61 329.63 1297.22 327.76 1278.09 329.83C1274.8 330.31 1271.4 329.98 1268.26 328.88C1267.53 328.62 1266.77 328.28 1266.39 327.61C1265.47 325.98 1267.43 324.25 1269.15 323.52C1276.95 320.19 1285.66 319.78 1294.14 319.85C1314.44 320.02 1335.16 322.83 1353.24 332.08C1358.04 334.54 1362.84 337.66 1365.31 342.46C1366.56 344.88 1367.19 347.68 1369.05 349.67C1371.35 352.13 1374.95 352.75 1378.27 353.33C1384.26 354.37 1390.2 355.72 1396.06 357.35C1398.53 358.04 1401.09 358.84 1402.94 360.62C1405.07 362.67 1405.95 365.73 1408.03 367.83C1410.07 369.89 1412.98 370.77 1415.4 372.36C1417.82 373.95 1419.85 377 1418.64 379.63C1417.99 381.05 1416.57 381.94 1415.16 382.61C1408.86 385.63 1401.29 385.89 1394.8 383.31C1395.73 385.32 1395.71 387.75 1394.75 389.74C1393.1 388.77 1391.36 387.77 1389.45 387.72C1387.54 387.67 1385.45 388.97 1385.33 390.87C1385.24 392.24 1385.88 394.14 1384.6 394.62C1383.28 393.14 1380.8 392.87 1379.2 394.04C1378.71 394.4 1378.29 394.87 1377.72 395.07C1377.2 395.26 1376.62 395.2 1376.08 395.06C1372.18 394.06 1370.21 389.72 1366.85 387.5C1364.91 386.21 1362.56 385.69 1360.51 384.58C1353.15 380.61 1351.46 370.54 1345.05 365.17C1342.03 362.64 1338.2 361.35 1334.46 360.12C1326.02 357.33 1317.43 354.52 1308.54 354.4C1304.68 354.35 1300.8 354.81 1296.96 354.42C1293.76 354.1 1290.66 353.2 1287.57 352.29C1284.97 351.53 1282.27 350.69 1280.34 348.79C1278.42 346.89 1277.6 343.57 1279.3 341.46C1281.49 340.27 1284.27 341.33 1286.19 342.93C1288.11 344.53 1289.59 346.64 1291.68 348C1294.39 349.76 1297.77 350.06 1300.99 350.24C1309.32 350.7 1317.7 350.71 1325.93 352.08C1334.16 353.45 1342.35 356.31 1348.65 361.77C1351.35 364.11 1353.65 366.88 1356.38 369.19C1361.71 373.71 1368.43 376.24 1373.63 378.07Z" fill="#E0AFA1"/>
<path d="M1291.24 363.87C1287.06 363.4 1282.73 366.02 1281.2 369.94C1280.86 370.83 1280.63 371.79 1280.05 372.54C1279.17 373.68 1277.66 374.12 1276.22 374.23C1271.08 374.6 1266.01 371.12 1264.15 366.31C1262.46 361.94 1263.21 356.97 1261.85 352.49C1259.77 345.61 1253.21 341.1 1249.74 334.81C1248.91 333.3 1248.25 331.6 1248.48 329.89C1248.71 328.18 1250.1 326.54 1251.82 326.54C1252.33 326.54 1252.83 326.68 1253.32 326.82C1258.01 328.14 1262.71 329.46 1267.4 330.77C1270.71 331.7 1274.14 332.69 1276.72 334.97C1280.81 338.6 1282.03 344.87 1286.53 347.97C1288.14 349.08 1290.09 349.72 1291.46 351.12C1294.77 354.48 1293.03 360.27 1291.24 363.87Z" fill="#E0AFA1"/>
<path d="M1352.92 390.04C1341.27 394.62 1327.77 393.62 1316.44 388.28C1305.11 382.94 1291.68 362.23 1290.01 362.5C1287.75 362.86 1298.83 380.62 1305.89 387.94C1295.04 390.76 1286.8 366.27 1285.21 367.12C1282.02 368.82 1293.33 387.45 1302.44 392.64C1309.16 396.47 1317.29 396.66 1325.02 396.51C1335.15 396.31 1346.15 395.32 1352.92 390.04Z" fill="#99685A"/>
<path d="M1402.69 492.47C1402.7 502.45 1400.42 513.49 1392.37 519.4C1386.88 523.44 1379.74 524.3 1372.94 525.02C1369.77 525.35 1366.6 525.7 1363.42 526.04C1363.42 525.78 1363.41 525.51 1363.41 525.24C1363.36 522.01 1363.27 518.62 1361.6 515.86C1360.17 513.51 1360.47 508.33 1358.15 506.84C1353.76 504.04 1349.36 503.04 1344.97 500.24C1339.1 496.49 1331.33 497.02 1322.89 495.84C1319.84 495.41 1317.2 498.12 1314.59 499.76C1292.23 513.85 1270.16 530.6 1257.24 553.36C1256.7 553.48 1256.14 553.53 1255.58 553.52C1253.53 553.47 1251.6 552.52 1249.57 552.29C1244.18 551.68 1238 555.99 1233.76 552.6C1241.37 544.15 1249.87 536.5 1248.55 538.95C1270.94 516.25 1295.61 495.8 1322.08 478C1322.9 477.45 1323.81 476.88 1324.8 476.95C1326.49 477.07 1327.47 479.01 1327.52 480.71C1327.57 482.41 1327.04 484.11 1327.29 485.79C1328.09 491.12 1335.07 492.28 1340.42 492.99C1351.18 494.44 1361.44 499.48 1369.15 507.13C1371.41 509.37 1373.6 511.93 1376.64 512.9C1383.18 515.02 1389.29 509 1393.55 503.59C1396.6 499.73 1399.64 495.86 1402.68 492.01C1402.69 492.17 1402.69 492.32 1402.69 492.47Z" fill="#E0AFA1"/>
<path d="M1257.24 553.37C1258.56 553.13 1259.83 552.61 1261.09 552.11C1290.48 540.52 1324.21 540.43 1353.66 551.84C1355.02 550.34 1356.2 548.7 1357.1 546.85C1358.13 541.29 1358.68 535.27 1359.22 529.27C1359.29 528.5 1359.38 527.68 1359.88 527.1C1360.49 526.38 1361.53 526.23 1362.47 526.13C1362.79 526.09 1363.1 526.06 1363.42 526.03" fill="#E0AFA1"/>
<path d="M1322.6 574.7C1321.85 575.22 1321.1 575.75 1320.35 576.27C1319.81 576.65 1319.27 577.02 1318.73 577.4C1318.18 577.78 1317.6 578.2 1317.34 578.82C1317.14 579.3 1317.15 579.83 1317.16 580.35C1317.22 585.84 1316.26 591.29 1315.28 596.7C1315.24 596.89 1315.21 597.08 1315.18 597.27C1314.8 597.03 1314.42 596.79 1314.02 596.58C1310.86 594.94 1307.05 595.4 1303.54 594.79C1296.18 593.52 1289.52 587.5 1282.21 589.06C1280.76 589.38 1279.33 590.02 1278.3 591.1C1275.36 594.18 1276.66 599.21 1278.36 603.11C1280.66 608.36 1283.42 613.42 1286.57 618.22C1279.29 615.46 1273.36 609.32 1270.87 601.95C1269.65 598.32 1265.44 590.09 1261.59 581.74C1258.54 575.13 1255.49 567.46 1258.57 560.88C1259.34 559.24 1260.49 557.76 1261.99 556.75C1263.08 556.02 1264.33 555.55 1265.6 555.17C1275.06 552.32 1285.2 553.99 1295.08 554.22C1298.1 554.29 1301.16 554.23 1304.08 554.98C1306.56 555.61 1308.87 556.81 1311.11 558.07C1313.43 559.39 1315.75 560.82 1317.51 562.83C1319.74 565.4 1320.91 568.69 1321.86 571.96C1322.12 572.86 1322.38 573.78 1322.6 574.7Z" fill="#E0AFA1"/>
<path d="M1295.84 626.33C1293.18 629.14 1289.56 631.05 1285.71 631.52C1284.08 631.72 1282.36 631.7 1280.97 632.56C1279.9 633.2 1279.19 634.28 1278.66 635.07C1275.77 638.26 1272.74 641.47 1269.49 644.32C1269.07 641.22 1267.7 638.19 1265.97 635.55C1263.36 631.6 1259.95 628.25 1257.11 624.46C1251.44 616.88 1248.19 607.53 1247.93 598.07C1261.56 610.27 1277.58 619.78 1294.81 625.93C1295.14 626.06 1295.49 626.18 1295.84 626.33Z" fill="#E0AFA1"/>
<path d="M1053.02 323.17C1053.12 329.23 1052.21 335.28 1051.06 341.23C1044.79 373.89 1031.48 405.17 1012.3 432.33C1005.74 441.63 998.5 450.44 992.22 459.93C977.3 482.47 968.02 508.7 965.45 535.61C963.17 501.19 974.88 467.72 987.49 435.42C998.04 423.11 1007.77 410.11 1016.57 396.5C1026.88 380.55 1036 363.64 1041.28 345.39C1046.46 327.55 1047.81 309.09 1048.34 290.46C1049.26 295.92 1050.18 301.37 1051.11 306.82C1052.02 312.24 1052.93 317.68 1053.02 323.17Z" fill="#99685A"/>
<path d="M1350.77 367.98C1354.18 372.64 1357.73 377.42 1362.71 380.34C1366.67 382.66 1371.25 383.63 1375.76 384.49C1376.52 384.63 1377.36 384.76 1378.01 384.34C1379.69 383.26 1378.01 380.62 1378.46 378.67C1378.81 377.17 1380.48 376.31 1382.02 376.33C1383.56 376.35 1385 377.01 1386.42 377.59C1391.22 379.53 1396.4 380.52 1401.57 380.49C1399.27 377.57 1398.62 373.43 1399.93 369.94C1400.14 369.38 1400.4 368.76 1400.18 368.21C1400.02 367.8 1399.64 367.52 1399.27 367.28C1394.72 364.23 1389.51 362.18 1384.1 361.31C1383.04 361.14 1381.94 361.02 1380.91 361.32C1379.98 361.6 1379.18 362.2 1378.41 362.8C1375.95 364.7 1373.49 366.59 1371.02 368.49C1369.78 369.45 1368.52 370.41 1367.1 371.07C1361.46 373.67 1354.9 370.9 1350.77 367.98Z" fill="#99685A"/>
<path d="M1297.3 355.27C1293.96 355.09 1290.64 354.49 1287.45 353.5C1285.04 352.75 1282.26 351.1 1282.52 348.6C1288.32 349.09 1292.74 354.43 1297.3 355.27Z" fill="#99685A"/>
<path d="M1463.28 389.77C1463.55 388.43 1462.41 387.15 1461.11 386.76C1459.81 386.38 1458.41 386.66 1457.08 386.95C1446.25 389.32 1435.53 392.25 1424.98 395.72C1433.3 394.95 1441.86 397.54 1448.4 402.72C1449.39 401.83 1450.42 400.95 1451.44 400.07C1449.84 398.59 1447.38 397.97 1445.33 396.98C1444.6 396.63 1443.78 395.8 1444.25 395.13C1444.46 394.84 1444.83 394.73 1445.17 394.65C1450.28 393.46 1455.77 394.02 1460.67 392.14C1460.72 392.12 1460.78 392.09 1460.83 392.08L1460.84 392.07L1463.28 389.77Z" fill="#99685A"/>
<path d="M1328.53 496.29C1327.78 495.92 1327.1 495.42 1326.52 494.75C1323.67 491.45 1325.29 486.4 1327.04 482.41C1325.08 488.13 1326.03 492.95 1328.53 496.29Z" fill="#99685A"/>
<path d="M1386.19 522.57C1382 524.02 1377.4 524.55 1372.94 525.02C1372.02 525.12 1371.09 525.22 1370.17 525.32C1369.99 525.34 1369.8 525.36 1369.62 525.37C1365.95 522.53 1363.23 518.54 1360.53 514.63C1360 513.86 1359.46 513.09 1358.92 512.34C1355.09 507.02 1350 501.76 1343.47 501.22C1341.55 501.06 1339.63 501.32 1337.7 501.21C1334.08 500.99 1330.71 499.22 1328.53 496.29C1331.11 497.58 1334.56 497.37 1337.6 497.37C1348.8 497.36 1360.21 502.86 1365.97 512.48C1367.76 515.47 1369.16 518.96 1372.11 520.79C1375.13 522.66 1378.93 522.32 1382.47 522.29C1383.7 522.29 1384.97 522.35 1386.19 522.57Z" fill="#99685A"/>
<path d="M1355.7 549.26C1355.09 550.17 1354.4 551.03 1353.66 551.84C1353.43 552.1 1353.17 552.36 1352.92 552.62C1350.05 554.24 1347.42 556.4 1344.85 558.51C1343.2 559.88 1341.53 561.26 1339.88 562.63C1333.37 567.17 1326.87 571.72 1320.35 576.27C1319.77 576.4 1319.18 576.48 1318.57 576.51C1314.87 576.71 1311.35 575.05 1307.68 574.57C1304.01 574.08 1299.48 575.47 1298.65 579.08C1294.49 567 1282.11 558.25 1269.34 558.37C1265.88 558.4 1262.01 559.29 1260.18 562.23C1258.24 565.35 1259.38 569.4 1260.64 572.87C1265.68 586.65 1271.87 600.01 1278.63 613.85C1267.35 603.15 1259 589.38 1254.73 574.43C1252.76 567.54 1251.73 559.78 1255.15 553.48C1259.46 545.55 1269.21 542.58 1278.06 540.78C1291.54 538.02 1305.35 536.27 1319.07 537.36C1332.01 538.39 1344.92 542.07 1355.7 549.26Z" fill="#99685A"/>
<path d="M1073.31 321.27C1064.64 310.65 1056.93 298.72 1054.34 285.25C1051.75 271.78 1055.17 256.52 1065.66 247.7C1058.85 258.78 1057.8 272.67 1060.27 285.43C1062.74 298.2 1068.43 310.09 1073.31 321.27Z" fill="#99685A"/>
<path d="M1049.51 306.1C1049.87 306.7 1050.21 307.34 1050.52 308.02C1050.19 307.38 1049.86 306.74 1049.51 306.1Z" fill="#99685A"/>
<path d="M1252.57 653.67C1249.01 654.46 1245.32 654.59 1241.67 654.26C1240.15 654.12 1238.63 653.91 1237.14 653.62C1225.75 651.46 1215.32 645.64 1206.26 638.4C1197.21 631.17 1189.39 622.52 1181.63 613.93C1166.32 596.98 1154.12 585.31 1135.33 567.69C1134.52 566.93 1132.66 565.4 1132.66 565.4C1132.66 565.4 1118.03 542.1 1110.69 529.17C1106.21 521.27 1096.62 505.48 1093.52 496.95C1082.56 466.81 1084.09 437.6 1090.05 404.36C1092.55 390.42 1097.7 372.28 1093.17 361.1C1075.87 359.7 1065.4 349.36 1056.75 327.72C1054.39 321.82 1053.17 313.7 1050.51 308C1054.99 316.65 1058.46 324.96 1063.11 333.66C1065.23 337.63 1068.75 343.46 1071.84 346.73C1077.96 353.2 1086.64 356.7 1095.56 356.84C1097.68 356.87 1103.3 358.2 1103.3 358.2C1103.3 358.2 1105.43 371.54 1104.73 378.03C1102.63 397.22 1101.77 415.51 1099.41 434.68C1098.46 442.36 1097.49 450.1 1098.07 457.81C1099.29 474.07 1107.26 496.62 1114.42 509.91C1131.49 541.61 1147.34 561.2 1165.64 588.43C1171.78 597.57 1187.28 612.99 1195.18 620.65C1211.3 636.29 1221.83 649.55 1252.57 653.67Z" fill="#99685A"/>
<path d="M1291.2 629.81C1289.49 630.69 1287.62 631.28 1285.71 631.52C1284.08 631.72 1282.36 631.7 1280.97 632.56C1279.9 633.2 1279.19 634.28 1278.66 635.07C1278.32 635.44 1277.98 635.82 1277.64 636.19C1273.23 631.9 1269.52 626.9 1266.69 621.43C1265.75 619.62 1264.89 617.62 1265.2 615.6C1271.61 621.25 1279.19 625.57 1287.31 628.2C1288.64 628.63 1290.05 629.06 1291.2 629.81Z" fill="#99685A"/>
<path d="M1370.29 525.11C1370.25 525.18 1370.22 525.25 1370.17 525.31C1369.99 525.33 1369.8 525.35 1369.62 525.36C1367.24 525.61 1364.86 525.87 1362.48 526.13C1361.54 526.23 1360.5 526.37 1359.89 527.1C1359.39 527.68 1359.3 528.5 1359.23 529.27C1358.96 532.29 1358.68 535.32 1358.34 538.28C1357.81 539.62 1357.4 541 1357.14 542.41C1355.32 539.71 1352.76 537.51 1349.81 536.13C1347.21 534.9 1344.36 534.31 1341.55 533.74C1335.88 532.57 1330.23 531.42 1324.57 530.25C1330.79 530.86 1337.01 531.48 1343.23 532.08C1344.62 527.73 1345.82 523.14 1348.8 519.7C1351.68 516.36 1356.13 514.45 1360.53 514.61C1360.95 514.62 1361.35 514.65 1361.77 514.7C1361.89 512.61 1365.71 516.97 1369.04 521.03C1369.99 522.21 1370.99 523.79 1370.29 525.11Z" fill="#99685A"/>
<path d="M1426.74 427.23C1424.26 428.98 1421.64 430.57 1419.32 432.54C1419.15 432.68 1418.99 432.83 1418.82 432.98C1415.43 430.47 1412.4 427.49 1409.83 424.12C1411 423.4 1410.84 421.42 1410.68 419.44C1415.84 422.43 1421.21 425.04 1426.74 427.23Z" fill="#99685A"/>
<path d="M1115.23 263.51C1115.31 253.48 1114.22 242.99 1108.78 234.56C1103.35 226.13 1092.52 220.49 1083.04 223.78C1078.7 225.29 1075.13 228.43 1071.85 231.66C1067.75 235.7 1063.91 240.01 1059.51 244.46C1063.55 236.43 1069.77 229.51 1077.32 224.63C1081.93 221.65 1087.29 219.38 1092.76 219.79C1099.04 220.27 1104.61 224.24 1108.62 229.09C1116.11 238.15 1119.1 250.33 1118.63 262.08C1118.16 273.83 1114.48 285.22 1109.86 296.03C1108.65 298.87 1107.35 301.72 1106.89 304.76C1106.26 308.89 1107.18 313.09 1107.12 317.27C1107.06 321.45 1105.63 326.08 1101.92 327.99C1103.52 324.81 1104.44 321.28 1104.6 317.72C1104.83 312.36 1103.35 306.94 1104.35 301.67C1105.06 297.9 1107 294.4 1107.26 290.57C1107.52 286.75 1105.04 282.23 1101.21 282.39C1104.44 279.18 1107.67 275.96 1110.91 272.75C1112.63 271.04 1114.4 268.18 1112.66 266.48C1112.17 266 1111.49 265.77 1110.84 265.56C1103.92 263.39 1096.08 262.84 1089.65 266.2C1083.13 269.61 1079.17 276.37 1075.55 282.78C1077.38 275.66 1081.17 269.06 1086.38 263.88C1087.96 262.32 1089.71 260.85 1091.8 260.11C1094.87 259.02 1098.25 259.6 1101.45 260.2C1106.04 261.03 1110.62 261.88 1115.23 263.51Z" fill="#99685A"/>
<path d="M1214.5 41.84C1205.12 47.04 1196.17 53.11 1187.68 59.62C1144.53 92.76 1111.1 138.4 1092.52 189.54C1090.38 195.43 1088.44 202 1090.77 207.82C1072.03 214.77 1056.74 230.15 1049.37 248.66C1049.65 243.01 1050.07 237.37 1050.7 231.77C1056.77 177.67 1083.56 126.16 1124.38 90.12C1150.19 67.34 1181.46 50.88 1214.5 41.84Z" fill="#99685A"/>
<path d="M1287.8 1107.24C1287.11 1113.07 1286.25 1118.91 1285.07 1124.67C1283.82 1130.76 1282.21 1136.76 1280.03 1142.56C1280.02 1142.6 1280.01 1142.62 1279.99 1142.66H1279.98C1279.99 1142.67 1279.99 1142.67 1279.98 1142.68C1279.33 1144.41 1278.62 1146.13 1277.86 1147.82C1268.44 1168.69 1251.21 1184.8 1235.9 1201.81C1191.42 1251.22 1160.54 1312.73 1147.45 1377.9C1145.19 1389.16 1143.41 1400.67 1138.67 1411.13C1131.83 1426.18 1119.4 1437.92 1110.58 1451.91C1099.11 1470.11 1094.02 1492.25 1096.38 1513.63C1097.16 1520.59 1098.68 1527.53 1098.3 1534.51C1097.54 1548.12 1088.9 1561 1075.87 1565.48C1068.56 1585.2 1071.94 1607.16 1076.85 1627.61C1082.26 1650.12 1089.48 1672.69 1088.53 1695.82C1088.43 1698.27 1088.23 1700.72 1087.94 1703.15H417.539C417.139 1699.81 416.669 1696.47 416.219 1693.17C411.659 1659.48 410.839 1623.04 428.439 1593.95C434.859 1583.33 443.959 1572.33 441.519 1560.17C440.789 1556.51 438.989 1552.96 439.379 1549.25C440.059 1542.78 446.669 1539 451.549 1534.72C461.379 1526.1 465.549 1512.83 468.489 1500.08C478.009 1458.82 479.139 1415.65 471.819 1373.94C470.739 1367.8 469.589 1361.06 472.779 1355.71C477.359 1348.01 490.199 1343.88 488.079 1335.17C486.559 1328.92 478.169 1327.37 474.269 1322.25C469.909 1316.52 472.339 1308.42 474.149 1301.47C478.259 1285.74 478.239 1269.26 478.209 1253C478.089 1208.73 477.979 1164.46 472.899 1115.62C473.129 1113.19 473.359 1110.77 473.599 1108.34C473.939 1104.82 474.289 1101.29 474.639 1097.76C474.779 1096.42 474.909 1095.09 475.049 1093.74C475.289 1091.31 475.539 1088.87 475.789 1086.43C476.239 1081.99 476.699 1077.55 477.179 1073.1C477.789 1067.38 478.419 1061.65 479.059 1055.92C479.569 1051.48 480.079 1047.06 480.599 1042.62C480.609 1042.57 480.619 1042.53 480.619 1042.48C481.139 1038.09 481.679 1033.7 482.219 1029.31C482.579 1026.36 482.959 1023.43 483.339 1020.48C483.659 1018.03 483.969 1015.59 484.299 1013.15C484.629 1010.7 484.949 1008.26 485.279 1005.82C485.579 1003.62 485.889 1001.41 486.189 999.21C486.239 998.8 486.299 998.41 486.359 998.01C486.679 995.72 487.009 993.45 487.339 991.17C487.629 989.17 487.929 987.18 488.219 985.18C489.019 979.86 489.829 974.54 490.679 969.24C491.449 964.38 492.239 959.51 493.069 954.66C493.489 952.23 493.899 949.81 494.329 947.39C494.719 945.15 495.119 942.91 495.519 940.67C495.579 940.29 495.659 939.91 495.729 939.53C496.139 937.31 496.539 935.08 496.959 932.86C497.409 930.45 497.859 928.03 498.329 925.61C498.789 923.2 499.269 920.79 499.749 918.38C500.229 915.98 500.719 913.56 501.199 911.16C501.699 908.76 502.199 906.36 502.709 903.96C502.729 903.87 502.749 903.78 502.759 903.69C503.259 901.39 503.749 899.07 504.259 896.78C504.779 894.39 505.319 891.99 505.859 889.61C506.299 887.62 506.759 885.64 507.229 883.66C507.679 881.67 508.149 879.68 508.629 877.7C509.239 875.14 509.859 872.59 510.489 870.03C510.919 868.28 511.369 866.53 511.809 864.79C513.019 860.02 514.269 855.26 515.549 850.5C515.989 848.86 516.439 847.23 516.889 845.6C516.899 845.55 516.919 845.51 516.929 845.46C517.399 843.77 517.869 842.08 518.359 840.4C520.089 834.28 521.879 828.19 523.749 822.13C524.069 821.08 524.389 820.03 524.719 818.99C525.079 817.83 525.439 816.68 525.809 815.52C526.119 814.54 526.419 813.57 526.739 812.59C527.909 808.95 529.109 805.32 530.329 801.69C530.719 800.54 531.109 799.4 531.499 798.26C531.889 797.11 532.289 795.97 532.679 794.83C533.079 793.68 533.479 792.53 533.889 791.38C534.509 789.62 535.149 787.86 535.779 786.1C536.779 783.32 537.799 780.55 538.849 777.79C539.209 776.83 539.569 775.88 539.929 774.93C541.739 770.2 543.589 765.48 545.509 760.79C546.219 759.04 546.939 757.29 547.669 755.55C547.979 754.8 548.279 754.06 548.599 753.32C548.929 752.52 549.269 751.73 549.609 750.93C550.079 749.82 550.559 748.72 551.039 747.6C551.459 746.61 551.899 745.61 552.329 744.62C552.859 743.4 553.409 742.18 553.949 740.97C554.399 739.96 554.849 738.95 555.309 737.94C555.829 736.76 556.379 735.58 556.919 734.41C557.389 733.38 557.869 732.36 558.349 731.34C559.489 728.86 560.659 726.41 561.849 723.96C562.269 723.09 562.689 722.23 563.109 721.37C565.019 717.46 566.969 713.57 568.969 709.7C569.739 708.22 570.509 706.74 571.279 705.26C571.369 705.1 571.449 704.94 571.529 704.78C572.119 703.68 572.699 702.58 573.289 701.48C573.749 700.62 574.219 699.75 574.689 698.89C575.739 696.97 576.799 695.03 577.869 693.12C579.239 690.65 580.639 688.19 582.059 685.74C582.759 684.52 583.479 683.29 584.199 682.07C585.229 680.32 586.279 678.56 587.339 676.82C588.159 675.46 588.979 674.1 589.819 672.74C590.859 671.05 591.909 669.36 592.969 667.68C592.969 667.68 592.979 667.68 592.979 667.67C599.469 657.4 606.319 647.32 613.569 637.45C634.049 609.57 657.659 583.61 685.989 563.8C743.519 523.57 815.219 511.72 887.129 501.22C892.809 500.39 898.499 499.57 904.179 498.74C904.979 501.03 905.819 503.3 906.679 505.56C907.129 506.73 907.589 507.91 908.069 509.08C908.399 509.88 908.719 510.69 909.049 511.49C909.079 511.57 909.11 511.66 909.15 511.74C909.36 512.25 909.569 512.76 909.799 513.28C909.819 513.34 909.839 513.4 909.869 513.45C910.099 514.01 910.339 514.57 910.579 515.13C911.139 516.43 911.709 517.72 912.309 519.02C912.839 520.23 913.399 521.43 913.969 522.63C914.509 523.78 915.059 524.93 915.619 526.07C916.189 527.24 916.769 528.39 917.349 529.55C919.689 534.18 922.179 538.73 924.799 543.21C925.449 544.33 926.109 545.44 926.779 546.55C927.289 547.39 927.789 548.23 928.319 549.06C928.389 549.18 928.459 549.29 928.539 549.41C929.129 550.37 929.719 551.32 930.329 552.26C930.779 552.98 931.239 553.7 931.709 554.41C931.729 554.45 931.749 554.48 931.779 554.52C932.009 554.88 932.249 555.25 932.489 555.61C932.499 555.65 932.529 555.68 932.549 555.71C933.029 556.44 933.509 557.16 933.999 557.89V557.9L934.009 557.91C934.239 558.28 934.499 558.66 934.759 559.03C934.809 559.1 934.859 559.18 934.909 559.26C935.439 560.06 935.989 560.83 936.529 561.62C937.469 562.98 938.429 564.34 939.389 565.69C939.399 565.7 939.399 565.7 939.399 565.7C941.589 568.75 943.839 571.75 946.149 574.72C946.479 575.15 946.809 575.58 947.139 576C947.469 576.43 947.819 576.86 948.159 577.28V577.29C948.259 577.42 948.359 577.54 948.469 577.67C948.939 578.26 949.409 578.84 949.889 579.43C951.149 580.99 952.429 582.55 953.729 584.08C954.139 584.56 954.539 585.04 954.949 585.52C955.709 586.41 956.469 587.29 957.239 588.17C961.089 592.59 965.069 596.92 969.189 601.13C969.789 601.74 970.379 602.36 970.979 602.96C971.409 603.39 971.839 603.83 972.269 604.25C972.869 604.86 973.469 605.45 974.079 606.05C975.399 607.35 976.729 608.64 978.059 609.92C978.629 610.46 979.199 611 979.769 611.54C980.689 612.42 981.619 613.28 982.559 614.13C983.769 615.26 984.989 616.37 986.219 617.46C987.019 618.17 987.799 618.88 988.609 619.57C989.889 620.72 991.189 621.84 992.499 622.95C993.199 623.56 993.919 624.15 994.619 624.75C996.849 626.63 999.109 628.48 1001.4 630.31C1002.01 630.81 1002.64 631.29 1003.25 631.78C1006.16 634.08 1009.11 636.34 1012.09 638.56C1014.16 640.1 1016.25 641.61 1018.34 643.11C1021.92 645.67 1025.52 648.15 1029.19 650.56C1029.19 650.57 1029.2 650.57 1029.21 650.58C1036.21 655.22 1043.36 659.63 1050.61 663.79C1051.9 664.53 1053.19 665.26 1054.5 665.99C1063.98 671.31 1073.65 676.27 1083.47 680.91C1083.48 680.92 1083.49 680.92 1083.5 680.93C1090.97 684.45 1098.55 687.79 1106.2 690.96C1156.48 711.77 1210.31 725.13 1265.27 735.63C1272.21 788.85 1277.85 842.24 1282.19 895.74C1282.9 904.54 1283.58 913.34 1284.22 922.14C1284.46 925.47 1284.71 928.79 1284.93 932.12C1284.95 932.27 1284.96 932.43 1284.96 932.57V932.58C1285.12 934.83 1285.28 937.07 1285.42 939.32C1285.85 945.57 1286.26 951.84 1286.65 958.09C1286.81 960.6 1286.97 963.12 1287.11 965.64C1287.33 969.27 1287.53 972.9 1287.74 976.54C1287.75 976.58 1287.75 976.62 1287.75 976.67C1288.19 984.38 1288.6 992.09 1288.98 999.81C1288.98 999.81 1288.98 999.81 1288.98 999.82C1289.01 1000.37 1289.03 1000.92 1289.06 1001.47C1289.14 1003.18 1289.22 1004.89 1289.3 1006.6V1006.61C1289.33 1007.08 1289.35 1007.55 1289.37 1008.01C1289.47 1010.19 1289.57 1012.37 1289.66 1014.55C1289.85 1018.94 1290.02 1023.34 1290.17 1027.73C1291.08 1054.28 1290.95 1080.87 1287.8 1107.24Z" fill="#709EB8"/>
<path d="M516.26 1446.8C536.04 1470 569.25 1480.85 598.91 1473.79C573.78 1495.73 548.66 1517.67 523.53 1539.61C510.41 1551.06 496.44 1564.01 493.88 1581.24C491.52 1597.16 499.6 1612.77 500.36 1628.84C501.12 1644.85 494.63 1660.22 488.26 1674.94C484.18 1684.35 480.12 1693.74 476.05 1703.15H417.53C417.13 1699.81 416.66 1696.47 416.21 1693.17C411.65 1659.48 410.83 1623.04 428.43 1593.95C434.85 1583.33 443.95 1572.33 441.51 1560.17C440.78 1556.51 438.98 1552.96 439.37 1549.25C440.05 1542.78 446.66 1539 451.54 1534.72C461.37 1526.1 465.54 1512.83 468.48 1500.08C478 1458.82 479.13 1415.65 471.81 1373.94C470.73 1367.8 469.58 1361.06 472.77 1355.71C477.35 1348.01 490.19 1343.88 488.07 1335.17C486.55 1328.92 478.16 1327.37 474.26 1322.25C469.9 1316.52 472.33 1308.42 474.14 1301.47C478.25 1285.74 478.23 1269.26 478.2 1253C478.08 1208.73 477.97 1164.46 472.89 1115.62C473.12 1113.19 473.35 1110.77 473.59 1108.34C473.93 1104.82 474.28 1101.29 474.63 1097.76C474.77 1096.42 474.9 1095.09 475.04 1093.74C475.28 1091.31 475.53 1088.87 475.78 1086.43C476.23 1081.99 476.69 1077.55 477.17 1073.1C477.78 1067.38 478.41 1061.65 479.05 1055.92C479.56 1051.48 480.07 1047.06 480.59 1042.62C480.6 1042.57 480.61 1042.53 480.61 1042.48C481.13 1038.09 481.67 1033.7 482.21 1029.31C482.57 1026.36 482.95 1023.43 483.33 1020.48C483.65 1018.03 483.96 1015.59 484.29 1013.15C484.62 1010.7 484.94 1008.26 485.27 1005.82C485.57 1003.62 485.88 1001.41 486.18 999.21C486.23 998.8 486.29 998.41 486.35 998.01C486.67 995.72 487 993.45 487.33 991.17C487.62 989.17 487.92 987.18 488.21 985.18C489.01 979.86 489.82 974.54 490.67 969.24C491.44 964.38 492.23 959.51 493.06 954.66C493.48 952.23 493.89 949.81 494.32 947.39C494.71 945.15 495.11 942.91 495.51 940.67C495.57 940.29 495.65 939.91 495.72 939.53C496.13 937.31 496.53 935.08 496.95 932.86C497.4 930.45 497.85 928.03 498.32 925.61C498.78 923.2 499.26 920.79 499.74 918.38C500.22 915.98 500.71 913.56 501.19 911.16C501.69 908.76 502.19 906.36 502.7 903.96C502.72 903.87 502.74 903.78 502.75 903.69C503.25 901.39 503.74 899.07 504.25 896.78C504.77 894.39 505.31 891.99 505.85 889.61C506.29 887.62 506.75 885.64 507.22 883.66C507.67 881.67 508.14 879.68 508.62 877.7C509.23 875.14 509.85 872.59 510.48 870.03C510.91 868.28 511.36 866.53 511.8 864.79C513.01 860.02 514.26 855.26 515.54 850.5C515.98 848.86 516.43 847.23 516.88 845.6C516.89 845.55 516.91 845.51 516.92 845.46C517.39 843.77 517.86 842.08 518.35 840.4C520.08 834.28 521.87 828.19 523.74 822.13C524.06 821.08 524.38 820.03 524.71 818.99C525.07 817.83 525.43 816.68 525.8 815.52C526.11 814.54 526.41 813.57 526.73 812.59C527.9 808.95 529.1 805.32 530.32 801.69C530.71 800.54 531.1 799.4 531.49 798.26C531.88 797.11 532.28 795.97 532.67 794.83C533.07 793.68 533.47 792.53 533.88 791.38C534.5 789.62 535.14 787.86 535.77 786.1C536.77 783.32 537.79 780.55 538.84 777.79C539.2 776.83 539.56 775.88 539.92 774.93C541.73 770.2 543.58 765.48 545.5 760.79C546.21 759.04 546.93 757.29 547.66 755.55C547.97 754.8 548.27 754.06 548.59 753.32C548.92 752.52 549.26 751.73 549.6 750.93C550.07 749.82 550.55 748.72 551.03 747.6C551.45 746.61 551.89 745.61 552.32 744.62C552.85 743.4 553.4 742.18 553.94 740.97C554.39 739.96 554.84 738.95 555.3 737.94C555.82 736.76 556.37 735.58 556.91 734.41C557.38 733.38 557.86 732.36 558.34 731.34C559.48 728.86 560.65 726.41 561.84 723.96C562.26 723.09 562.68 722.23 563.1 721.37C565.01 717.46 566.96 713.57 568.96 709.7C569.73 708.22 570.5 706.74 571.27 705.26C571.36 705.1 571.44 704.94 571.52 704.78L579.59 771.73C580.49 774.21 581.3 776.69 581.99 779.19V779.21C584.18 787.11 585.35 795.1 585.73 803.18C586.04 809.17 585.89 815.21 585.4 821.26V821.27C585.4 821.28 585.4 821.28 585.4 821.29C583.02 851.49 572.25 882.36 564.67 912.16C557.6 939.91 553.31 968.27 549.03 996.59C544.15 1028.89 539.26 1061.19 534.38 1093.49C525.54 1151.94 516.71 1211.59 526.81 1269.83C538.6 1337.83 584.56 1406.07 652.59 1417.65C605.65 1415.03 558.05 1425.2 516.26 1446.8Z" fill="#4E768F"/>
<path d="M1287.8 1107.24C1287.11 1113.07 1286.25 1118.91 1285.07 1124.67C1283.82 1130.76 1282.21 1136.76 1280.03 1142.56C1280.02 1142.6 1280.01 1142.62 1279.99 1142.66H1279.98C1279.99 1142.67 1279.99 1142.67 1279.98 1142.68C1279.33 1144.41 1278.62 1146.13 1277.86 1147.82C1268.44 1168.69 1251.21 1184.8 1235.9 1201.81C1191.42 1251.22 1160.54 1312.73 1147.45 1377.9C1145.19 1389.16 1143.41 1400.67 1138.67 1411.13C1131.83 1426.18 1119.4 1437.92 1110.58 1451.91C1099.11 1470.11 1094.02 1492.25 1096.38 1513.63C1097.16 1520.59 1098.68 1527.53 1098.3 1534.51C1097.54 1548.12 1088.9 1561 1075.87 1565.48C1068.56 1585.2 1071.94 1607.16 1076.85 1627.61C1082.26 1650.12 1089.48 1672.69 1088.53 1695.82C1088.43 1698.27 1088.23 1700.72 1087.94 1703.15H989.539C999.429 1665.74 1005.46 1627.38 1013.79 1589.57C1025.84 1534.88 1042.8 1481.28 1064.3 1429.57C1065.74 1426.1 1067.2 1422.64 1068.68 1419.19C1068.79 1418.93 1068.9 1418.67 1069.01 1418.42C1093.31 1361.99 1123.06 1307.9 1157.78 1257.22C1160.46 1253.31 1163.17 1249.41 1165.89 1245.53C1165.89 1245.52 1165.9 1245.52 1165.9 1245.52C1184 1219.69 1202.73 1194.24 1217.23 1166.26C1238.84 1124.54 1250.4 1077.71 1251.01 1030.74C1251.18 1018.09 1250.55 1005.43 1249.1 992.86C1254.73 994.21 1265.68 1001.41 1276.79 1012.41C1276.8 1012.41 1276.8 1012.42 1276.8 1012.42C1281.35 1016.92 1285.94 1022.06 1290.19 1027.7C1291.08 1054.28 1290.95 1080.87 1287.8 1107.24Z" fill="#4E768F"/>
<path d="M601 917.41C607.95 1061.48 697.22 1189.57 718.66 1332.2C721.07 1348.26 722.85 1365.12 731.8 1378.66C737.23 1386.89 744.95 1393.29 752.55 1399.57C777.84 1420.46 803.13 1441.35 828.42 1462.24C834.58 1467.33 841.05 1472.57 848.83 1474.4C865.81 1478.38 882.2 1464.57 890.27 1449.11C898.34 1433.65 901.43 1415.85 910.36 1400.87C923.76 1378.39 948.6 1364.97 963.68 1343.59C983.25 1315.85 983.51 1277.91 971.9 1246C960.29 1214.1 938.32 1187.13 915.47 1162.01C821.87 1059.1 708.01 976.89 601 917.41Z" fill="#4E768F"/>
<path d="M595.16 892.08C632.54 956.78 669.92 1021.48 707.3 1086.18C712.87 1095.82 719.07 1106.04 729.24 1110.57C738.92 1114.88 750.37 1113.14 760.25 1116.95C766.76 1119.46 772.12 1124.21 777.32 1128.85C841.93 1186.54 907.72 1245.67 950.24 1321.13C953.15 1326.29 955.98 1331.63 956.94 1337.47C958.01 1344 956.66 1350.67 954.87 1357.04C943.95 1395.89 915.57 1429.48 879.08 1446.72C874.84 1448.72 870.3 1450.55 865.62 1450.25C857.87 1449.75 851.61 1443.5 847.97 1436.64C838.02 1417.89 842.65 1395.08 846.34 1373.49C838.59 1377.29 830.83 1381.09 823.08 1384.9C819.32 1367.29 820.83 1348.59 827.37 1331.81C830.22 1324.5 833.4 1314.74 827.12 1310.03C822.24 1306.38 814.91 1308.93 809.51 1306.11C799.18 1300.7 805.86 1285.44 808.72 1274.13C813.11 1256.79 804.33 1238.86 793.77 1224.42C785.92 1213.69 776.17 1203.3 763.32 1199.86C750.47 1196.41 734.29 1202.77 731.31 1215.73C730.61 1218.77 730.64 1222.01 729.3 1224.82C726.63 1230.42 719.05 1232.37 713.22 1230.23C707.4 1228.09 703.22 1222.85 700.47 1217.29C692.4 1200.94 694.57 1181.71 693.98 1163.5C693.39 1145.28 688.05 1124.65 671.77 1116.46C665.38 1113.25 656.26 1109.94 657.27 1102.86C657.83 1098.91 661.62 1096.36 663.87 1093.07C667.13 1088.28 667.04 1082.01 666.32 1076.26C662.72 1047.52 646.96 1022.03 634.03 996.12C616.54 961.05 603.74 923.64 595.16 892.08Z" fill="#31556B"/>
<path d="M883.68 642.46C919.13 689.93 944.08 745.21 956.22 803.21C962.12 831.42 965.26 860.91 978.97 886.26C982.26 888.99 987.67 886.52 989.43 882.63C991.19 878.74 990.4 874.22 989.55 870.04C970.53 777.4 930.15 689.23 883.68 642.46Z" fill="#31556B"/>
<path d="M978.929 853.53C983.809 866.16 988.689 878.79 993.569 891.42C995.479 896.37 997.419 901.42 997.709 906.72C997.999 912.02 996.389 917.7 992.289 921.07C986.789 911.32 981.299 901.57 975.799 891.83C975.049 890.5 974.289 889.13 974.069 887.62C973.809 885.81 974.349 884 974.889 882.26C976.969 875.45 979.049 868.66 978.929 853.53Z" fill="#31556B"/>
<path d="M592.97 667.65C592.06 690.34 591.14 713.03 590.23 735.72C589.53 753.18 588.83 770.64 588.12 788.08C587.93 792.89 587.19 798.24 585.73 803.15C585.15 805.13 584.45 807.04 583.62 808.81C580.55 815.39 575.71 820.15 568.56 819.87C533.59 852.61 535.72 906.82 532.91 953.26C527.4 1044.21 490.88 1132.33 494.99 1223.35C496.9 1265.51 507.68 1307.24 526.43 1345.06C517.48 1346.94 509.76 1353.88 506.94 1362.59C528.16 1372.37 550.65 1379.38 573.65 1383.39C560.96 1394.49 547.95 1405.78 532.32 1412.11C516.69 1418.44 497.68 1418.98 483.92 1409.22C503.24 1443.57 519.62 1479.57 532.83 1516.7C520.08 1501.61 498.96 1485.25 483.1 1497.02C495.57 1516.93 469.52 1539.36 466.66 1562.69C463.14 1591.48 495.98 1615.85 491.23 1644.47C475.8 1633.99 457.84 1627.25 439.32 1624.99C431.44 1650.01 435.37 1676.79 435.53 1703.17H417.53C417.13 1699.83 416.66 1696.49 416.21 1693.19C411.65 1659.5 410.83 1623.06 428.43 1593.97C434.85 1583.35 443.95 1572.35 441.51 1560.19C440.78 1556.53 438.98 1552.98 439.37 1549.27C440.05 1542.8 446.66 1539.02 451.54 1534.74C461.37 1526.12 465.54 1512.85 468.48 1500.1C478 1458.84 479.13 1415.67 471.81 1373.96C470.73 1367.82 469.58 1361.08 472.77 1355.73C477.35 1348.03 490.19 1343.9 488.07 1335.19C486.55 1328.94 478.16 1327.39 474.26 1322.27C469.9 1316.54 472.33 1308.44 474.14 1301.49C478.25 1285.76 478.23 1269.28 478.2 1253.02C478.08 1208.75 477.97 1164.48 472.89 1115.64C473.12 1113.21 473.35 1110.79 473.59 1108.36C473.93 1104.84 474.28 1101.31 474.63 1097.78C474.77 1096.44 474.9 1095.11 475.04 1093.76C475.28 1091.33 475.53 1088.89 475.78 1086.45C476.23 1082.01 476.69 1077.57 477.17 1073.12C477.78 1067.4 478.41 1061.67 479.05 1055.94C479.56 1051.5 480.07 1047.08 480.59 1042.64C480.6 1042.59 480.61 1042.55 480.61 1042.5C481.13 1038.11 481.67 1033.72 482.21 1029.33C482.57 1026.38 482.95 1023.45 483.33 1020.5C483.65 1018.05 483.96 1015.61 484.29 1013.17C484.62 1010.72 484.94 1008.28 485.27 1005.84C485.57 1003.64 485.88 1001.43 486.18 999.23C486.23 998.82 486.29 998.43 486.35 998.03C486.67 995.74 487 993.47 487.33 991.19C487.62 989.19 487.92 987.2 488.21 985.2C489.01 979.88 489.82 974.56 490.67 969.26C491.45 964.39 492.24 959.53 493.06 954.68C493.48 952.25 493.89 949.83 494.32 947.41C494.71 945.17 495.11 942.93 495.51 940.69C495.57 940.31 495.65 939.93 495.72 939.55C496.13 937.33 496.53 935.1 496.95 932.88C497.4 930.47 497.85 928.05 498.32 925.63C498.78 923.22 499.26 920.81 499.74 918.4C500.22 916 500.71 913.58 501.19 911.18C501.69 908.78 502.19 906.38 502.7 903.98C502.72 903.89 502.74 903.8 502.75 903.71C503.25 901.41 503.74 899.09 504.25 896.8C504.77 894.41 505.31 892.01 505.85 889.63C506.29 887.64 506.75 885.66 507.22 883.68C507.67 881.69 508.14 879.7 508.62 877.72C509.23 875.16 509.85 872.61 510.48 870.05C510.91 868.3 511.36 866.55 511.8 864.81C513.01 860.04 514.26 855.28 515.54 850.52C515.98 848.88 516.43 847.25 516.88 845.62C516.89 845.57 516.91 845.53 516.92 845.48C517.39 843.79 517.86 842.1 518.35 840.42C520.08 834.3 521.87 828.21 523.74 822.15C524.06 821.1 524.38 820.05 524.71 819.01C525.07 817.85 525.43 816.7 525.8 815.54C526.11 814.56 526.41 813.59 526.73 812.61C527.9 808.97 529.1 805.34 530.32 801.71C530.71 800.56 531.1 799.42 531.49 798.28C531.88 797.13 532.28 795.99 532.67 794.85C533.07 793.7 533.47 792.55 533.88 791.4C534.5 789.64 535.14 787.88 535.77 786.12C536.77 783.34 537.79 780.57 538.84 777.81C539.2 776.85 539.56 775.9 539.92 774.95C541.73 770.22 543.58 765.5 545.5 760.81C546.21 759.06 546.93 757.31 547.66 755.57C547.97 754.82 548.27 754.08 548.59 753.34C548.92 752.54 549.26 751.75 549.6 750.95C550.07 749.84 550.55 748.74 551.03 747.62C551.45 746.63 551.89 745.63 552.32 744.64C552.85 743.42 553.4 742.2 553.94 740.99C554.39 739.98 554.84 738.97 555.3 737.96C555.82 736.78 556.37 735.6 556.91 734.43C557.38 733.4 557.86 732.38 558.34 731.36C559.48 728.88 560.65 726.43 561.84 723.98C562.26 723.11 562.68 722.25 563.1 721.39C565.01 717.48 566.96 713.59 568.96 709.72C569.73 708.24 570.5 706.76 571.27 705.28C571.36 705.12 571.44 704.96 571.52 704.8C572.11 703.7 572.69 702.6 573.28 701.5C573.74 700.64 574.21 699.77 574.68 698.91C575.73 696.99 576.79 695.05 577.86 693.14C579.23 690.67 580.63 688.21 582.05 685.76C582.75 684.54 583.47 683.31 584.19 682.09C585.22 680.34 586.27 678.58 587.33 676.84C588.15 675.48 588.97 674.12 589.81 672.76C590.86 671.02 591.9 669.33 592.97 667.65Z" fill="#31556B"/>
<path d="M1287.8 1107.24C1287.11 1113.07 1286.25 1118.91 1285.07 1124.67C1281.41 1107 1276.71 1089.6 1270.3 1072.7C1260.72 1047.45 1247.48 1023.79 1234.3 1000.22C1221.03 976.5 1207.75 952.78 1194.48 929.05C1181.03 905 1167.15 880.44 1146.26 862.45C1145.02 856.97 1144.64 850.89 1144.99 844.42C1145.77 829.85 1150.29 813.33 1157.19 797.29C1158.79 793.57 1160.52 789.88 1162.35 786.25C1163.67 783.64 1165.16 780.93 1167.67 779.45C1174.03 775.68 1181.55 781.73 1186.44 787.27C1218.36 823.41 1250.28 859.57 1282.21 895.71C1285.07 930.91 1287.36 966.16 1289.09 1001.43C1290.83 1036.7 1291.99 1072.17 1287.8 1107.24Z" fill="#31556B"/>
<path d="M1158.1 813.58C1156.75 824.46 1151.69 834.8 1145.01 844.44V844.45C1138.88 853.29 1131.39 861.55 1124.13 869.14C1121.46 871.91 1118.36 874.9 1114.52 874.91C1108.74 874.96 1105.31 868.64 1103.1 863.3C1080.74 809.37 1048 759.76 1007.2 718.01C976 686.08 939.35 657.61 919.77 617.49C913.95 605.56 909.74 592.48 910.4 579.22C910.72 572.97 912.25 566.67 914.97 561.01C917.72 555.28 921.68 550.22 926.82 546.54C948.38 582.34 978.15 613.3 1012.13 638.54C1014.2 640.08 1016.29 641.59 1018.38 643.09C1040.55 671.9 1071.18 693.72 1097.85 718.82C1114.29 734.28 1129.4 751.18 1142.64 769.44C1148.83 777.98 1154.74 787.11 1157.21 797.3C1157.21 797.31 1157.21 797.31 1157.21 797.31C1157.45 798.29 1157.65 799.28 1157.82 800.27C1158.05 801.62 1158.22 802.95 1158.33 804.28C1158.57 807.42 1158.48 810.51 1158.1 813.58Z" fill="#31556B"/>
<path d="M1194.64 827.92C1182.05 823.97 1169.88 819.15 1158.1 813.57C1156.08 812.62 1154.07 811.64 1152.07 810.64C1086.25 777.69 1032.61 721.29 985.951 663.2C960.011 630.9 935.161 597.09 914.961 561C904.191 541.75 894.731 521.86 887.141 501.19C892.821 500.36 898.511 499.54 904.191 498.71C910.061 515.47 917.711 531.43 926.811 546.53C948.371 582.33 978.141 613.29 1012.12 638.53C1045.06 685.78 1081 730.69 1121.82 771.37C1132.51 782.02 1143.57 792.41 1155.32 801.88C1156.31 802.69 1157.32 803.49 1158.33 804.27C1169.71 813.25 1181.74 821.32 1194.64 827.92Z" fill="#263F4F"/>
<path d="M1193.92 848.87C1173.2 908.84 1164.02 972.79 1167.15 1036.16C1169.21 1077.97 1176.54 1119.54 1175.7 1161.38C1175.32 1180.55 1173.22 1199.59 1170.39 1218.56C1168.15 1233.45 1165.46 1248.29 1162.76 1263.1C1157.28 1293.21 1151.81 1323.33 1146.34 1353.43C1142.73 1373.26 1138.37 1394.54 1123.63 1408.3C1123.37 1408.54 1123.11 1408.78 1122.84 1409C1114.76 1416.23 1104.66 1420.4 1094.07 1423.34C1088.25 1424.95 1082.3 1426.18 1076.43 1427.33C1052.82 1432 1026.85 1436 1005.87 1424.2C995.25 1418.24 987.1 1408.8 979.33 1399.44C956.24 1371.61 934.49 1342.67 914.19 1312.75C903.95 1296.87 889.84 1275.34 876.33 1253.43C805.23 1201.6 745.15 1126.63 708.65 1041.41C712.52 1035.7 716.7 1030.06 721.17 1024.53C731.12 1012.2 742.48 1000.36 754.89 989.19C758.81 985.65 762.83 982.19 766.95 978.81C783.5 965.17 801.55 952.71 820.37 941.81C865.35 915.75 914.74 898.15 964.67 883.64C966.38 883.14 968.28 882.66 969.89 883.41C971.36 884.08 972.22 885.6 972.99 887.02C978.6 897.44 984.21 907.87 989.83 918.29C998.09 933.63 1006.35 948.97 1014.62 964.31C1014.66 964.25 1014.69 964.18 1014.74 964.12C1016.76 960.77 1018.77 957.45 1020.79 954.15C1037.83 926.22 1054.72 899.89 1068.45 871.93C1080.5 847.37 1090.16 820.89 1092.5 793.84C1092.77 790.74 1092.94 787.64 1093.02 784.53C1093.12 780.15 1093.01 775.76 1092.68 771.36L1204.81 820.25C1200.88 829.67 1197.24 839.22 1193.92 848.87Z" fill="#FDD5C8"/>
<path d="M844.661 1000.11C874.081 1022.27 894.261 1056.54 927.411 1072.58C929.461 1066.75 924.471 1061.02 919.911 1056.84C905.921 1044.01 891.941 1031.19 877.951 1018.36C870.541 1011.56 863.121 1004.76 855.251 998.49C848.451 993.07 840.961 987.9 832.351 986.65C831.921 989.34 833.061 991.37 844.661 1000.11Z" fill="#FEE4DB"/>
<path d="M949.881 978.24C963.211 985.18 973.611 996.7 982.151 1009.06C990.691 1021.42 997.661 1034.8 1006.02 1047.28C1007.05 1048.81 1008.78 1050.54 1010.44 1049.73C1011.29 1049.31 1011.72 1048.35 1011.96 1047.43C1013.59 1041.18 1009.51 1035 1005.64 1029.82C998.221 1019.88 990.801 1009.94 983.381 1000C976.221 990.41 968.221 980.23 956.671 977.09C954.271 976.44 951.701 976.08 949.661 974.66C947.621 973.24 946.361 970.25 949.881 978.24Z" fill="#FEE4DB"/>
<path d="M1158.15 883.07C1154.12 934.97 1150.09 986.87 1146.06 1038.77C1145.87 1041.26 1145.18 1044.36 1142.74 1044.9C1138.27 1036.25 1138.87 1025.96 1139.62 1016.25C1141.89 986.7 1144.45 957.17 1147.01 927.64C1148.51 910.3 1150.2 892.32 1158.15 883.07Z" fill="#FEE4DB"/>
<path d="M1094.07 1423.35C1088.25 1424.96 1082.3 1426.19 1076.43 1427.34C1052.82 1432.01 1026.85 1436.01 1005.87 1424.21C995.25 1418.25 987.1 1408.81 979.33 1399.45C956.24 1371.62 934.49 1342.68 914.19 1312.76C903.95 1296.88 889.84 1275.35 876.33 1253.44C805.23 1201.61 745.15 1126.64 708.65 1041.42C712.52 1035.71 716.7 1030.07 721.17 1024.54C731.12 1012.21 742.48 1000.37 754.89 989.2C758.81 985.66 762.83 982.2 766.95 978.82C768.98 984.4 770.46 990.05 769.61 995.91C767.17 1012.75 766.61 1029.82 767.83 1046.77C771.87 1103.41 795.65 1158.72 835.01 1199.73C837.31 1202.13 840.27 1204.68 843.53 1204.04C848.03 1203.15 849.12 1197.28 849.2 1192.69C849.57 1171.32 849.64 1149.95 849.43 1128.58C849.33 1117.93 849.12 1107.1 846.01 1096.92C842.72 1086.19 836.38 1076.71 830.95 1066.87C820.59 1048.13 813.37 1027.65 809.7 1006.55C832.06 1036.72 858.17 1064.1 887.25 1087.87C889.73 1089.9 892.37 1092.08 893.37 1095.14C894.37 1098.19 892.84 1102.3 889.66 1102.73C888.29 1102.91 886.92 1102.4 885.63 1101.91C879.79 1099.66 873.96 1097.41 868.12 1095.16C867.53 1118.98 866.95 1142.8 866.36 1166.63C866.21 1172.72 866.07 1178.91 867.56 1184.82C869.47 1192.35 873.89 1198.94 878.25 1205.38L943.17 1301.32C968.41 1338.6 995.22 1377.34 1035 1398.4C1032.03 1398.72 1029.05 1399.03 1026.09 1399.34C1046.51 1412.28 1069.86 1420.54 1093.88 1423.33C1093.93 1423.33 1094.01 1423.34 1094.07 1423.35Z" fill="#E0AFA1"/>
<path d="M1122.69 853.16C1121.02 862.27 1113.36 868.84 1106.56 875.11C1092.64 887.92 1080.42 902.59 1070.31 918.58C1073.26 917.97 1075.54 921.77 1074.8 924.7C1074.06 927.63 1071.57 929.72 1069.36 931.78C1054.48 945.67 1047.42 967.45 1051.35 987.42C1052.43 992.93 1055.71 999.37 1061.33 999.24C1065.84 999.14 1070.89 994.77 1074.18 997.86C1077.87 1001.31 1072.48 1006.64 1068.41 1009.65C1057.21 1017.93 1053.02 1034.43 1058.92 1047.05C1061.07 1051.63 1064.4 1055.82 1065.08 1060.84C1065.65 1065.01 1064.28 1069.16 1063.13 1073.21C1056.5 1096.23 1055.72 1120.46 1055 1144.41C1054.82 1150.24 1054.69 1156.31 1057.11 1161.61C1059.12 1165.99 1062.7 1169.48 1064.84 1173.8C1069.37 1182.95 1067.86 1196.19 1076.82 1201.09C1078.97 1202.26 1081.55 1202.77 1083.24 1204.53C1084.97 1206.33 1085.37 1208.99 1085.69 1211.48C1086.82 1220.41 1087.95 1229.33 1089.08 1238.25C1064.31 1201.85 1039.37 1159.15 1043.47 1113.55C1045.13 1095.01 1051.62 1077 1051.76 1058.38C1051.97 1030.29 1037.86 1004.33 1024.15 979.82C1020.12 972.63 1020.18 963.56 1020.79 954.15C1037.83 926.22 1054.72 899.89 1068.45 871.93C1080.5 847.37 1090.16 820.89 1092.5 793.84C1093.47 791.9 1094.57 790.02 1096.18 788.58C1103.62 781.95 1115.68 788.93 1120.54 797.63C1129.96 814.46 1125.69 837.73 1110.9 850.12C1113.85 853.22 1118.61 854.45 1122.69 853.16Z" fill="#E0AFA1"/>
<path d="M1167.14 1036.16C1169.2 1077.97 1176.53 1119.54 1175.69 1161.38C1175.31 1180.55 1173.21 1199.59 1170.38 1218.56C1168.18 1194.36 1167.86 1169.84 1165.94 1145.59C1165.01 1133.86 1163.71 1122.18 1162.7 1110.46C1157.58 1051.5 1159.72 991.91 1169.06 933.46C1171.78 916.41 1175.13 899.19 1173.6 881.99C1172.07 864.79 1164.85 847.18 1150.57 837.48C1154.35 837.67 1161.58 835.47 1168.16 836.09C1174.76 836.7 1180.88 839.67 1186.71 842.8C1188.38 843.7 1190.06 844.63 1191.47 845.9C1192.45 846.79 1193.26 847.78 1193.92 848.86C1173.2 908.84 1164.02 972.79 1167.14 1036.16Z" fill="#E0AFA1"/>
<path d="M989.84 918.29C958.76 921.85 928.39 931.3 898.74 941.59C885.94 946.03 873.18 950.65 861.1 956.79C822.13 976.63 793.35 1010.63 767.83 1046.77C760.7 1056.86 753.82 1067.13 747.06 1077.29C736.19 1052.76 740.64 1019.86 754.89 989.21C758.81 985.67 762.83 982.21 766.95 978.83C783.5 965.19 801.55 952.73 820.37 941.83C865.35 915.77 914.74 898.17 964.67 883.66C966.38 883.16 968.28 882.68 969.89 883.43C971.36 884.1 972.22 885.62 972.99 887.04C978.61 897.44 984.22 907.87 989.84 918.29Z" fill="#E0AFA1"/>
<path d="M1122.84 1409.01C1110.32 1420.21 1092.96 1424.08 1076.43 1427.34C1052.82 1432.01 1026.85 1436.01 1005.87 1424.21C995.25 1418.25 987.1 1408.81 979.33 1399.45C956.24 1371.62 934.49 1342.68 914.19 1312.76C903.95 1296.88 889.84 1275.35 876.33 1253.44C805.23 1201.61 745.15 1126.64 708.65 1041.42C712.52 1035.71 716.7 1030.07 721.17 1024.54C739.08 1089.3 773.55 1149.45 820.47 1197.56C826.5 1203.75 832.9 1209.86 840.79 1213.36C843.67 1214.63 846.78 1215.59 849.17 1217.64C855.01 1222.66 855.57 1233.29 862.94 1235.49C867.53 1236.86 872.47 1233.98 877.17 1234.9C881.72 1235.79 884.79 1239.93 887.4 1243.76C904.56 1268.86 921.71 1293.96 938.87 1319.08C959.61 1349.43 982.95 1381.77 1018.06 1392.66C998.51 1388.96 979.68 1381.43 962.98 1370.62C975.21 1381.13 983.84 1395.19 995.19 1406.66C1006.54 1418.13 1022.52 1427.26 1038.25 1423.71C1043.23 1422.58 1047.89 1420.24 1052.91 1419.29C1062.58 1417.46 1072.78 1420.95 1082.29 1418.44C1090.64 1416.24 1097.2 1409.75 1105.26 1406.67C1110.98 1404.48 1118.61 1405.28 1122.84 1409.01Z" fill="#99685A"/>
<path d="M1093.44 813.7C1092.1 834.75 1090.7 856.11 1083.64 875.98C1069.65 915.4 1034.3 946.62 1029.33 988.16C1023.44 980.83 1018.52 972.72 1014.74 964.11C1033.81 932.41 1053.11 903.19 1068.45 871.92C1081.89 844.55 1092.34 814.8 1093.02 784.52C1094.62 794.03 1094.05 804.01 1093.44 813.7Z" fill="#99685A"/>
<path d="M1633.02 1184.27C1629.41 1207.47 1627.74 1230.97 1628.04 1254.44C1628.16 1263.96 1628.58 1273.65 1626.03 1282.82C1625.23 1285.7 1624.15 1288.47 1622.81 1291.11C1616.48 1303.68 1604.54 1313.26 1591.19 1318.58C1589.37 1319.31 1587.53 1319.95 1585.68 1320.51C1567.3 1326.09 1547.53 1324.76 1528.58 1321.59C1514.9 1319.3 1501.11 1315.98 1489.3 1308.71C1471.88 1297.99 1460.57 1279.92 1449.88 1262.49C1429.38 1255.89 1412.05 1238.5 1391.09 1227.15C1380.35 1221.32 1368.78 1217.17 1357.75 1211.91C1335.57 1201.33 1315.85 1186.43 1296.8 1170.79C1292.09 1166.92 1287.42 1163.01 1282.76 1159.11C1281.48 1158.03 1280.15 1156.91 1279.39 1155.41C1278.08 1152.85 1278.65 1149.78 1279.2 1146.97C1279.49 1145.49 1279.76 1144.02 1280.01 1142.53C1289.71 1087.29 1280.17 1030.48 1270.62 975.12C1264.39 965.76 1258.48 956.63 1253.31 947.09C1237.03 924.98 1217.36 901.9 1196.48 879.98C1188.21 871.31 1179.73 862.78 1170.21 855.51C1155.32 844.12 1138.2 836.02 1122.7 825.5C1092.18 804.81 1068.76 775.47 1045.84 746.59C1017.15 717.36 988.971 687.41 962.681 655.84C955.881 647.67 948.791 637.47 951.231 627.35C951.341 626.92 951.461 626.49 951.601 626.06C953.681 619.6 960.221 615.34 967.001 614.5C968.821 614.27 970.641 614.29 972.401 614.58C973.631 614.78 974.821 615.1 975.951 615.57C976.331 615.72 976.701 615.9 977.061 616.08C966.711 604.8 956.371 593.52 946.021 582.24C940.291 575.98 934.221 568.96 933.921 560.47C933.851 558.51 934.121 556.56 934.701 554.69C934.701 554.69 934.701 554.68 934.701 554.67C935.861 550.89 938.221 547.48 941.431 545.17C945.111 542.54 949.811 541.43 954.261 542.25C955.271 542.43 956.271 542.71 957.241 543.11C957.581 543.25 957.931 543.4 958.271 543.56C954.261 539.85 950.211 536.09 946.991 531.69C946.461 530.97 945.951 530.22 945.461 529.46C942.061 524.07 940.071 517.51 941.411 511.28C941.581 510.5 941.811 509.74 942.091 509.01C943.181 506.06 945.121 503.45 947.551 501.41C951.741 497.88 957.411 496.04 962.811 497.05C971.111 498.6 977.231 505.48 984.141 510.22C984.241 510.3 984.371 510.37 984.481 510.45C985.361 511.05 986.251 511.61 987.161 512.1C987.131 512.02 987.101 511.94 987.071 511.86C985.461 507.25 987.611 502.38 991.351 499.06C993.551 497.11 996.321 495.69 999.181 495.18C1006.96 493.81 1014.74 497.1 1021.9 500.44C1054.52 515.65 1083.47 537.63 1115.62 553.81C1131.11 561.61 1140.28 574.29 1152.35 583.83C1158.38 588.59 1161.17 594.37 1166.61 599.79C1182.97 616.08 1198.11 633.49 1216.28 647.74C1231.89 656.35 1228.16 650.5 1247.12 663.57C1255.99 669.69 1262.54 684.24 1265.63 694.65C1273.44 720.92 1281.73 747.01 1297.34 769.31C1307.87 784.35 1321.33 797.05 1333.39 810.89C1367.32 849.81 1389.95 897.56 1424.1 936.28C1451.33 967.16 1485.14 991.45 1514.73 1020.07C1536.26 1040.9 1555.5 1063.95 1574.69 1086.96C1592.77 1104.51 1610.57 1126.48 1625.97 1150.03C1629.39 1155.26 1632.77 1160.74 1633.88 1166.89C1634.94 1172.61 1633.92 1178.51 1633.02 1184.27Z" fill="#FDD5C8"/>
<path d="M949.771 549.87C953.761 554.05 957.741 558.24 961.731 562.42C962.261 560.44 965.101 559.16 964.501 557.2C964.331 556.65 963.911 556.23 963.481 555.84C959.651 552.32 954.761 549.97 949.771 549.87Z" fill="#FEE4DB"/>
<path d="M957.201 502.36C960.731 506.16 964.251 509.96 967.781 513.75C968.931 513.34 970.121 512.89 970.961 512.02C971.801 511.15 972.191 509.69 971.491 508.69C971.131 508.18 970.561 507.86 970.001 507.57C964.911 504.84 959.821 502.12 957.201 502.36Z" fill="#FEE4DB"/>
<path d="M999.941 499.42C1004.88 503.2 1009.59 507.27 1014.04 511.61C1014.71 509.76 1015.37 507.9 1016.04 506.05C1016.17 505.69 1016.3 505.31 1016.22 504.93C1016.12 504.47 1015.74 504.14 1015.36 503.86C1010.66 500.48 1004.04 500.96 999.941 499.42Z" fill="#FEE4DB"/>
<path d="M968.432 622.24C971.492 625.94 974.562 629.64 977.622 633.34C978.132 632.03 978.642 630.72 979.142 629.42C979.342 628.92 979.532 628.37 979.402 627.85C979.292 627.42 978.982 627.07 978.642 626.79C975.672 624.2 970.342 624.72 968.432 622.24Z" fill="#FEE4DB"/>
<path d="M1081.19 751.59C1082.78 754.7 1084.36 757.81 1085.95 760.91C1089.94 760.82 1093.92 762.78 1096.29 765.99C1097.78 768.01 1098.64 770.44 1100.11 772.48C1101.58 774.52 1104.02 776.21 1106.48 775.65C1108.9 775.1 1110.4 772.51 1110.55 770.03C1110.7 767.55 1109.84 765.14 1109.08 762.78C1106.75 755.56 1105.29 748.06 1104.74 740.49C1104.64 739.12 1104.55 737.69 1103.84 736.52C1103.24 735.54 1102.26 734.86 1101.31 734.21C1099.4 732.9 1097.49 731.6 1095.57 730.29C1093.74 729.04 1091.63 727.73 1089.47 728.18C1086.93 728.71 1085.52 731.39 1084.64 733.84C1082.24 740.52 1079.41 748.11 1081.19 751.59Z" fill="#FEE4DB"/>
<path d="M1074.89 604.13C1096.53 622.08 1118.17 640.02 1139.81 657.97C1142.46 660.16 1145.58 662.5 1148.97 661.93C1146.19 651.54 1137.29 644.13 1128.88 637.44C1111.51 623.63 1094.09 609.77 1074.89 604.13Z" fill="#FEE4DB"/>
<path d="M1106.91 566.2C1124.74 583.03 1142.56 599.86 1160.39 616.69C1162.95 619.1 1165.67 621.61 1169.08 622.43C1170.34 618.61 1167.39 614.8 1164.66 611.85C1147.66 593.53 1130.14 574.81 1106.91 566.2Z" fill="#FEE4DB"/>
<path d="M1052.92 651.05C1069.57 670.23 1089.07 686.94 1110.58 700.45C1112.54 701.68 1115.65 702.62 1116.72 700.57C1097.79 682.7 1077.67 666.06 1052.92 651.05Z" fill="#FEE4DB"/>
<path d="M1313.83 934.96C1334.65 948.64 1355.47 962.33 1376.29 976.01C1383.57 980.8 1390.97 985.64 1399.26 988.31C1382.96 968.66 1361.86 953.04 1338.32 943.18C1327.33 938.59 1314.76 934.31 1313.83 934.96Z" fill="#FEE4DB"/>
<path d="M1149.21 777.57C1168.91 788.05 1184.6 805.53 1205.36 813.7C1197.29 803.1 1185.59 795.99 1174.33 788.88C1164.74 782.81 1155.27 776.57 1149.21 777.57Z" fill="#FEE4DB"/>
<path d="M1622.82 1291.11C1616.49 1303.68 1604.55 1313.26 1591.2 1318.58C1589.38 1319.31 1587.54 1319.95 1585.69 1320.51C1567.31 1326.09 1547.54 1324.76 1528.59 1321.59C1514.91 1319.3 1501.12 1315.98 1489.31 1308.71C1471.89 1297.99 1460.58 1279.92 1449.89 1262.49C1429.39 1255.89 1412.06 1238.5 1391.1 1227.15C1380.36 1221.32 1368.79 1217.17 1357.76 1211.91C1335.58 1201.33 1315.86 1186.43 1296.81 1170.79C1291.23 1161.37 1285.66 1151.93 1280.02 1142.53C1289.72 1087.29 1280.18 1030.48 1270.63 975.12C1264.4 965.76 1258.49 956.63 1253.32 947.09C1237.04 924.98 1217.37 901.9 1196.49 879.98C1188.22 871.31 1179.74 862.78 1170.22 855.51C1155.33 844.12 1138.21 836.02 1122.71 825.5C1092.19 804.81 1068.77 775.47 1045.85 746.59C1017.16 717.36 988.982 687.41 962.692 655.84C955.892 647.67 948.802 637.47 951.242 627.35C951.352 626.92 951.471 626.49 951.611 626.06C953.691 619.6 960.232 615.34 967.012 614.5L968.541 615.23C959.891 615.67 955.171 626.67 957.611 634.97C960.041 643.28 966.991 649.33 973.351 655.19C1017.82 696.15 1049.62 751.28 1100.93 783.22C1118 793.85 1136.79 801.58 1153.41 812.89C1166.03 821.48 1177.2 832 1188.32 842.47C1224.96 877.01 1261.59 911.53 1298.62 944.86C1313.74 955.4 1326.99 968.59 1337.59 983.65C1331.33 981.15 1324.35 980.45 1317.71 981.66C1329.54 989.82 1341.37 997.97 1353.2 1006.12C1342.23 1007.64 1329.03 1011 1326.07 1021.67C1324.52 1027.31 1326.52 1033.29 1329.01 1038.59C1336.15 1053.8 1347.5 1067.01 1361.47 1076.35C1372.24 1083.54 1385.06 1089.04 1391.61 1100.21C1396.76 1108.98 1397.03 1119.69 1399.95 1129.44C1410.48 1164.59 1451.84 1180.32 1471.95 1211.02C1480.03 1223.35 1484.37 1237.69 1490.94 1250.9C1497.5 1264.09 1507.25 1276.87 1521.27 1281.42C1536.49 1286.36 1552.81 1280.59 1568.23 1276.35C1583.65 1272.1 1601.91 1269.95 1614.11 1280.3C1617.66 1283.32 1620.35 1287.14 1622.82 1291.11Z" fill="#E0AFA1"/>
<path d="M1324.17 993.67C1382.04 1010.01 1432.75 1050.29 1461.77 1102.96C1428.66 1067.5 1394.02 1031.15 1349.21 1012.56C1336.03 1007.08 1320.45 1001.62 1324.17 993.67Z" fill="#E0AFA1"/>
<path d="M956.131 623.23C958.591 630.7 963.131 637.46 969.101 642.57C968.171 643.64 966.501 643.77 965.181 643.26C963.861 642.75 962.821 641.73 961.821 640.74C958.651 637.57 955.411 634.09 954.461 629.71C954.011 627.63 954.351 625.05 956.131 623.23Z" fill="#E0AFA1"/>
<path d="M1116.36 723.63C1112.09 725.78 1106.97 724.08 1102.51 722.36C1088.55 716.99 1074.4 711.52 1062.34 702.65C1056.02 698.01 1050.4 692.53 1044.8 687.06C1033.97 676.5 1023.13 665.93 1012.31 655.36C1006.45 649.65 1000.6 643.94 994.962 638C987.522 630.17 980.352 621.84 972.412 614.56C974.052 614.82 975.622 615.32 977.072 616.06C966.722 604.78 956.382 593.5 946.032 582.22C940.302 575.96 934.232 568.94 933.932 560.45C933.712 554.53 936.632 548.59 941.442 545.15C945.962 541.92 952.012 540.98 957.252 543.09C950.052 542.96 942.972 547.57 940.182 554.22C937.372 560.95 939.132 569.33 944.412 574.36C950.382 580.04 960.092 581.62 964.152 588.78C965.382 590.96 966.002 593.54 967.762 595.32C968.932 596.5 970.492 597.21 971.972 597.98C979.902 602.1 986.282 608.62 992.582 614.96C1015.89 638.48 1039.97 661.27 1065.5 682.37C1079.2 693.69 1093.31 704.52 1107.8 714.82C1111.18 717.23 1114.74 719.81 1116.36 723.63Z" fill="#E0AFA1"/>
<path d="M1129.99 670.76C1123.47 672.22 1117.73 666.25 1111.19 664.82C1107.57 664.02 1103.79 664.67 1100.1 664.3C1091.37 663.43 1084.25 657.13 1078.11 650.87C1069.51 642.11 1061.45 632.75 1051.79 625.19C1045.65 620.38 1038.94 616.36 1032.58 611.86C1016.31 600.34 1002.48 585.76 988.881 571.19C983.881 565.83 978.871 560.44 973.151 555.85C968.151 551.85 962.671 548.5 957.511 544.72C956.421 543.92 955.341 543.09 954.281 542.24C955.291 542.42 956.291 542.7 957.261 543.1C957.601 543.24 957.951 543.39 958.291 543.55C953.621 539.22 948.891 534.83 945.491 529.44C942.091 524.05 940.101 517.49 941.441 511.26C942.281 507.37 944.541 503.94 947.581 501.39C945.631 505.19 944.691 509.51 944.951 513.79C945.171 517.4 946.261 521.04 948.511 523.88C950.031 525.8 952.021 527.29 953.991 528.75C967.071 538.5 980.161 548.27 994.071 556.8C1000.39 560.67 1006.89 564.31 1012.51 569.11C1015.98 572.07 1019.07 575.44 1022.18 578.78C1034.13 591.58 1046.53 603.95 1059.75 615.42C1078.05 631.29 1097.88 645.39 1118.88 657.47C1124.14 660.52 1130.23 664.67 1129.99 670.76Z" fill="#E0AFA1"/>
<path d="M938.772 562.28C941.742 564.11 943.812 567.08 946.512 569.29C949.212 571.5 953.222 572.89 956.132 570.96C952.212 570.59 948.872 568 946.142 565.17C943.412 562.34 941.002 559.13 937.752 556.9C937.082 558.29 936.622 560.96 938.772 562.28Z" fill="#E0AFA1"/>
<path d="M943.35 513.11C946.45 517.33 950.71 520.7 955.54 522.72C956.74 523.23 958.1 523.65 959.34 523.25C960.58 522.85 961.47 521.23 960.71 520.17C960.36 519.68 959.76 519.43 959.21 519.18C953.99 516.79 950.28 512.09 946.55 507.73C945.75 506.79 944.23 505.84 943.46 506.81C943.26 507.06 943.19 507.38 943.13 507.7C942.84 509.15 941.85 511.07 943.35 513.11Z" fill="#E0AFA1"/>
<path d="M985.762 511.04C998.132 516.98 1010.57 522.95 1021.8 530.83C1026.24 533.94 1030.47 537.34 1034.69 540.73C1050.3 553.26 1065.91 565.8 1080.77 578.53C1095.8 594.7 1111.76 610 1128.56 624.33C1129.26 624.92 1130.03 625.55 1130.95 625.58C1132.2 625.62 1133.16 624.57 1134.17 623.84C1137.44 621.45 1142.04 622.15 1145.79 623.68C1149.54 625.21 1153.08 627.47 1157.1 628.01C1153.55 623.37 1149.95 618.69 1145.38 615.04C1140.82 611.39 1135.12 608.83 1129.29 609.15C1127.21 609.26 1125.1 609.74 1123.06 609.32C1120.99 608.9 1119.22 607.62 1117.52 606.36C1113.46 603.38 1109.27 600.23 1106.96 595.76C1106.08 594.05 1105.5 592.19 1104.43 590.59C1102.42 587.6 1098.99 585.96 1095.86 584.18C1083.01 576.87 1073.15 565.27 1060.91 556.98C1056.13 553.74 1050.98 551.01 1046.46 547.42C1042.21 544.04 1038.57 539.96 1034.45 536.42C1029.38 532.06 1023.64 528.56 1017.81 525.3C1006.67 519.08 995.092 513.66 985.762 511.04Z" fill="#E0AFA1"/>
<path d="M993.471 515.31C991.351 514.15 989.221 513 987.101 511.84C985.491 507.23 987.641 502.36 991.381 499.04C991.241 499.49 991.121 499.95 991.011 500.41C989.871 505.45 990.781 510.91 993.471 515.31Z" fill="#E0AFA1"/>
<path d="M1265.66 694.63C1263.05 691.21 1260.56 687.71 1258.19 684.12C1254.86 679.1 1251.65 673.78 1246.73 670.29C1243.62 668.08 1240.01 666.72 1236.52 665.18C1206.76 651.98 1186.37 624.56 1163.93 600.98C1156.66 593.34 1149.06 586.01 1141.46 578.68C1132.86 570.38 1124.26 562.08 1115.65 553.79C1130.24 561.07 1139.86 572.02 1151.93 581.55C1157.96 586.31 1163.46 594.8 1168.9 600.22C1185.26 616.51 1198.14 631.67 1216.31 645.92C1226.24 649.96 1241.24 654.51 1250.76 665.37C1255.74 671.03 1262.57 684.22 1265.66 694.63Z" fill="#E0AFA1"/>
<path d="M1068.23 695.6C1067.04 698.46 1065.84 701.33 1064.65 704.19C1042.83 682.08 1020.49 660.46 997.681 639.36C993.351 635.36 988.991 631.36 985.161 626.88C981.991 623.19 979.191 619.19 975.951 615.56C976.331 615.71 976.701 615.89 977.061 616.07C966.711 604.79 956.371 593.51 946.021 582.23C940.291 575.97 934.221 568.95 933.921 560.46C933.851 558.5 934.121 556.55 934.701 554.68C934.501 557.83 935.081 561.1 936.231 564.05C938.431 569.73 942.451 574.5 946.491 579.06C982.961 620.35 1026.28 654.87 1067.38 691.55C1067.91 692.02 1068.46 692.53 1068.65 693.22C1068.87 694.02 1068.55 694.84 1068.23 695.6Z" fill="#99685A"/>
<path d="M1098.59 657.94C1094.89 659.81 1090.25 658.6 1086.9 656.15C1083.56 653.7 1081.16 650.2 1078.61 646.92C1060.96 624.23 1034.15 610.78 1012.98 591.34C1002.48 581.69 993.371 570.56 982.341 561.52C977.251 557.35 971.791 553.65 966.591 549.63C959.571 544.21 953.011 538.2 947.011 531.68C946.481 530.96 945.971 530.21 945.481 529.45C942.081 524.06 940.091 517.5 941.431 511.27C941.601 510.49 941.831 509.73 942.111 509C942.491 517.86 946.971 526.45 953.001 533.13C960.121 541.02 969.231 546.77 978.001 552.75C1003.04 569.83 1026.21 589.66 1046.94 611.77C1055.44 620.84 1063.66 630.38 1073.89 637.43C1081.91 642.94 1090.94 646.77 1099.18 651.94C1099.82 652.35 1100.49 652.79 1100.85 653.46C1101.72 655.12 1100.25 657.11 1098.59 657.94Z" fill="#99685A"/>
<path d="M1074.07 571.57C1087.9 585.03 1101.23 599.01 1114.01 613.47C1117.87 617.84 1123.1 622.7 1128.68 621.03C1109.73 603.76 1090.78 586.5 1074.07 571.57Z" fill="#99685A"/>
<path d="M1591.2 1318.58C1589.38 1319.31 1587.54 1319.95 1585.69 1320.51C1567.31 1326.09 1547.54 1324.76 1528.59 1321.59C1514.91 1319.3 1501.12 1315.98 1489.31 1308.71C1474.67 1299.71 1464.35 1285.51 1455.08 1270.87C1455.08 1270.86 1455.07 1270.85 1455.07 1270.84C1453.31 1268.07 1451.59 1265.27 1449.88 1262.49C1448.68 1262.1 1447.49 1261.68 1446.31 1261.22C1427.33 1253.87 1410.82 1237.83 1391.09 1227.14C1380.35 1221.31 1368.78 1217.16 1357.75 1211.9C1330.08 1198.7 1306.26 1178.79 1282.76 1159.09C1281.48 1158.01 1280.15 1156.89 1279.39 1155.39C1278.08 1152.83 1278.65 1149.76 1279.2 1146.95C1289.89 1092.08 1281.02 1035.57 1271.54 980.4C1271.23 978.63 1270.93 976.86 1270.63 975.1C1270.33 974.65 1270.02 974.2 1269.73 973.74V973.73C1263.82 964.84 1258.24 956.14 1253.32 947.06C1237.04 924.95 1217.37 901.87 1196.49 879.95C1188.22 871.28 1179.74 862.75 1170.22 855.48C1155.33 844.09 1138.21 835.99 1122.71 825.47C1092.19 804.78 1068.77 775.44 1045.85 746.56C1017.16 717.33 988.982 687.38 962.692 655.81C955.892 647.64 948.802 637.44 951.242 627.32C953.112 639.25 962.001 649.82 970.411 659.06C974.961 664.06 979.512 669.05 984.062 674.05C1025.87 719.97 1067.73 765.97 1110.55 805.29C1127.91 820.54 1146.92 833.92 1167.14 845.09C1177.4 850.76 1188.08 855.94 1196.86 863.69C1205.34 871.17 1211.72 880.76 1219.84 888.63C1229.07 897.58 1240.33 904.11 1251.52 910.46C1254.32 912.05 1257.17 913.68 1259.36 916.04C1262.01 918.89 1263.51 922.59 1264.97 926.2C1280.72 964.84 1299.75 1002.14 1320.5 1034.69C1345.27 1085.61 1384.6 1128.57 1407.65 1180.29C1411.57 1189.09 1415.03 1198.16 1420.22 1206.28C1430.11 1221.79 1445.62 1232.83 1457.03 1247.25C1469.01 1262.42 1476.33 1281.15 1490.01 1294.82C1514.39 1319.15 1552.77 1321.77 1587.08 1318.76C1588.4 1318.64 1589.79 1318.57 1591.2 1318.58Z" fill="#99685A"/>
<path d="M1455.07 1270.84C1453.31 1268.07 1451.59 1265.27 1449.88 1262.49C1448.68 1262.1 1447.49 1261.68 1446.31 1261.22C1427.55 1229.31 1401.34 1200.99 1379.99 1170.17C1342.17 1115.56 1319.14 1051.98 1282.86 996.35C1279.34 990.95 1275.68 985.61 1271.53 980.41L1269.71 973.75C1281.34 985.79 1290.13 1001.21 1298.31 1016.06C1315.6 1047.43 1332.88 1078.82 1350.18 1110.2C1358.54 1125.38 1366.91 1140.58 1376.5 1155.02C1392.64 1179.32 1412.08 1201.27 1428.87 1225.13C1439.03 1239.57 1448.29 1254.95 1455.07 1270.84Z" fill="#E0AFA1"/>
<path d="M995.829 899.83C986.059 897.81 976.189 897.71 966.349 898.85C950.389 900.7 934.519 905.83 919.309 911.29C909.849 914.68 900.439 918.22 891.279 922.33C854.279 938.96 822.509 964.44 793.769 993.36C777.469 1009.74 762.139 1027.24 747.379 1044.85C734.679 1060.02 722.759 1092.97 725.529 1099.03C728.409 1105.33 746.629 1113.9 746.629 1113.9C746.629 1113.9 751.439 1120.97 753.589 1124.95C732.069 1120.47 714.949 1110.47 697.729 1096.66C694.219 1093.86 690.829 1090.91 687.539 1087.84C684.309 1084.83 681.179 1081.7 678.179 1078.47C673.149 1073.06 668.409 1067.4 663.949 1061.54C681.459 1016.05 712.849 976.18 750.659 945.16C794.199 909.44 845.959 884.82 899.389 867.05C920.629 859.99 943.069 854.05 965.489 851.29C966.329 852.74 967.179 854.18 968.039 855.62C968.109 855.76 968.189 855.89 968.269 856.03C974.979 867.28 982.209 878.23 989.149 889.14C991.409 892.71 993.649 896.27 995.829 899.83Z" fill="#263F4F"/>
</g>
<defs>
<clipPath id="clip0_101_1427">
<rect width="1986.63" height="1040" fill="white"/>
</clipPath>
</defs>
</svg>
