<?xml version="1.0" encoding="utf-8"?>
<!-- Generator: Adobe Illustrator 27.0.0, SVG Export Plug-In . SVG Version: 6.00 Build 0)  -->
<svg version="1.1" id="Слой_1" xmlns="http://www.w3.org/2000/svg" xmlns:xlink="http://www.w3.org/1999/xlink" x="0px" y="0px"
	 viewBox="0 0 2000 947.37" style="enable-background:new 0 0 2000 947.37;" xml:space="preserve">
<style type="text/css">
	.st0{fill:#9BAFBD;}
	.st1{fill:#728694;}
	.st2{fill:#FDD5C8;}
	.st3{fill:#FEE4DB;}
	.st4{fill:#E0AFA1;}
	.st5{fill:#99685A;}
	.st6{fill:#AECCD1;}
	.st7{fill:#7A9CA1;}
	.st8{fill:#495B5E;}
	.st9{fill:url(#SVGID_1_);}
	.st10{fill:#E09F89;}
	.st11{fill:url(#SVGID_00000136374051760289584300000016914268615855226786_);}
	.st12{fill:#F6DCDD;}
	.st13{fill:#E39D9D;}
	.st14{fill:#FDACAE;}
	.st15{fill:#E2A094;}
	.st16{fill:#FEBEBE;}
	.st17{fill:#F16E2B;}
	.st18{fill:#DF523C;}
	.st19{fill:#E78B7C;}
	.st20{fill:url(#SVGID_00000116918851380303947580000017368987581172120994_);}
	.st21{fill:#E7DBE0;}
	.st22{fill:url(#SVGID_00000141432227358598730730000002962051846851723449_);}
	.st23{fill:url(#SVGID_00000006682995848636009150000012866389771459867014_);}
	.st24{fill:#E75742;}
	.st25{fill:#EEA755;}
	.st26{fill:#EEB3B2;}
	.st27{fill:#FA9DA5;}
	.st28{fill:#FABEB5;}
	.st29{fill:#F25026;}
	.st30{fill:url(#SVGID_00000079476798631004488930000000450700935075906239_);}
	.st31{fill:url(#SVGID_00000042012891000162908190000014669809815057615522_);}
	.st32{fill:url(#SVGID_00000010286284311226050380000002329804631680935818_);}
	.st33{fill:url(#SVGID_00000162318765317689735580000010673857637561034643_);}
	.st34{fill:url(#SVGID_00000142876535232084318780000005651036542322879378_);}
	.st35{fill:url(#SVGID_00000087390744206129877790000000246369859152133283_);}
	.st36{fill:url(#SVGID_00000090262437059913097080000006533785610592082590_);}
	.st37{fill:url(#SVGID_00000065774005303371436850000004274148453329052859_);}
	.st38{fill:url(#SVGID_00000110443517047346022580000015236098994849601447_);}
	.st39{fill:url(#SVGID_00000076591391803337226090000002528620604635632555_);}
	.st40{fill:url(#SVGID_00000035493315588504354150000016341457857323971992_);}
	.st41{fill:url(#SVGID_00000142173269552128323200000017388447746764952222_);}
	.st42{fill:url(#SVGID_00000108288202997741498770000000682777647979394482_);}
	.st43{fill:url(#SVGID_00000119827319130342426970000014321698601091803538_);}
	.st44{fill:url(#SVGID_00000147218595787970696610000004384352643887882423_);}
	.st45{fill:url(#SVGID_00000177452792971963663940000010820795607316955061_);}
	.st46{fill:url(#SVGID_00000072267608958699762620000001617877302471972533_);}
	.st47{fill:url(#SVGID_00000022556471507501953360000012327364554675436420_);}
	.st48{fill:url(#SVGID_00000147926753716662914510000005974759397142247351_);}
	.st49{fill:url(#SVGID_00000003815054577623758580000017087000711853940381_);}
	.st50{fill:url(#SVGID_00000171714343662455770730000001702852646379947421_);}
	.st51{fill:url(#SVGID_00000137133396756134821510000015239645424017240229_);}
	.st52{fill:url(#SVGID_00000011004237141317234790000003842669943868772009_);}
	.st53{fill:url(#SVGID_00000002367019112726363330000013331161714619671211_);}
	.st54{fill:url(#SVGID_00000177477527534850310330000012378983690255598260_);}
	.st55{fill:url(#SVGID_00000154403958634869197410000006332741320257155495_);}
	.st56{fill:url(#SVGID_00000178918651008651857460000014348818529356309416_);}
	.st57{fill:url(#SVGID_00000011738695683082367970000004391526781121080757_);}
	.st58{fill:url(#SVGID_00000043446480216212646460000000725534079235143832_);}
	.st59{fill:url(#SVGID_00000088817141930383347800000006331560216188793521_);}
	.st60{opacity:0.4;fill:url(#SVGID_00000043419064773969867470000009402470697123842483_);}
	.st61{fill:url(#SVGID_00000033364269159448372920000001117135500657921930_);}
	.st62{fill:url(#SVGID_00000082330408594607632470000007139234075812944805_);}
	.st63{fill:url(#SVGID_00000016778772100557367640000009998915627181951127_);}
	.st64{fill:url(#SVGID_00000057120386491265852330000006640250252115818892_);}
	.st65{fill:url(#SVGID_00000084500731969014645420000002839080767745333170_);}
	.st66{fill:url(#SVGID_00000142896364732286305940000007873143632704643506_);}
	.st67{fill:url(#SVGID_00000118382117353242527810000008697873061109444787_);}
	.st68{fill:url(#SVGID_00000023242263502323084810000011767199179482339223_);}
	.st69{fill:#AD0000;}
	.st70{fill:url(#SVGID_00000085953468969423578790000011540596952496756386_);}
	.st71{fill:url(#SVGID_00000022543358384997761880000001584179599616478371_);}
	.st72{fill:url(#SVGID_00000124145335403257560970000002067207892950832002_);}
	.st73{fill:url(#SVGID_00000139995676206739571570000003827455949527822493_);}
	.st74{fill:url(#SVGID_00000073703349416236631340000005873426352225352865_);}
	.st75{fill:#BF9184;}
	.st76{fill:none;stroke:#FDD5C8;stroke-miterlimit:10;}
	.st77{fill:url(#SVGID_00000067221605904531472960000004666256020103507616_);}
	.st78{fill:url(#SVGID_00000062186371546021590300000015530814123495457926_);}
	.st79{fill:url(#SVGID_00000147209641868643680770000012890410724629788300_);}
	.st80{fill:url(#SVGID_00000160895603556326588030000005748398564208194747_);}
	.st81{fill:url(#SVGID_00000071554702665231600960000007076188824960327605_);}
	.st82{fill:url(#SVGID_00000133530405978522971620000002150144175127690914_);}
	.st83{fill:url(#SVGID_00000143576651848210117980000006923670499735801777_);}
	.st84{fill:url(#SVGID_00000109009963909744720140000002330465191355696057_);}
	.st85{fill:url(#SVGID_00000024002651824507277010000002364371714726439605_);}
	.st86{fill:url(#SVGID_00000063605944642006573390000005112592618203465656_);}
	.st87{fill:none;stroke:#E0AFA1;stroke-miterlimit:10;}
	.st88{fill:#59767A;}
	.st89{fill:none;}
	.st90{fill:#314042;}
	.st91{fill:url(#SVGID_00000142156732974560961570000000162699431104122550_);}
	.st92{fill:url(#SVGID_00000143587956031671352440000011977230054933872822_);}
	.st93{fill:url(#SVGID_00000054262534566027776150000000498824906264746431_);}
	.st94{fill:url(#SVGID_00000128445985331048169130000007089788707957740687_);}
	.st95{fill:url(#SVGID_00000136412610848468147020000000166320511194778792_);}
	.st96{fill:none;stroke:#99685A;stroke-miterlimit:10;}
	.st97{fill:#F2CEC4;}
	.st98{fill:#E1AFA1;}
	.st99{fill:url(#SVGID_00000071545859066633684000000005186249847633517703_);}
	.st100{fill:url(#SVGID_00000156551093482273288340000008615985030181467050_);}
	.st101{fill:url(#SVGID_00000139263647994529368080000007068720623982647482_);}
	.st102{fill:url(#SVGID_00000109718341818814025190000011448040341126647947_);}
	.st103{fill:url(#SVGID_00000096051396858226016430000012012832416084381080_);}
	.st104{fill:url(#SVGID_00000055702421039309004370000017012928478334359702_);}
	.st105{fill:url(#SVGID_00000066495697126354434410000007212041263344405650_);}
	.st106{fill:url(#SVGID_00000121974317072100908400000011426009609663853489_);}
	.st107{fill:url(#SVGID_00000178884208041194737980000002119289547282522538_);}
	.st108{fill:url(#SVGID_00000072981941119990731670000001876798787625297593_);}
	.st109{fill:#E39F8D;}
	.st110{fill:#C2553C;}
	.st111{fill:url(#SVGID_00000083071693411338924090000009116243451337587893_);}
	.st112{fill:url(#SVGID_00000138556922884364992000000013468255278466357397_);}
	.st113{fill:url(#SVGID_00000083787947177427825480000011980047266186819761_);}
	.st114{fill:#AD4024;}
	.st115{fill:url(#SVGID_00000103233515641488494200000004243368030592010422_);}
	.st116{fill:url(#SVGID_00000171718969852861837950000017757373762727102603_);}
	.st117{fill:url(#SVGID_00000097486747279603748020000018276926868913041086_);}
	.st118{opacity:0.5608;fill:#FFFFFF;}
	.st119{fill:#FFFFFF;}
	.st120{fill:#FFF1ED;}
	.st121{fill:#E6D7D3;}
	.st122{opacity:0.4392;fill:#E0AFA1;}
	.st123{fill:#FFD3C7;}
	.st124{opacity:0.3412;fill:#AAAD66;}
	.st125{opacity:0.2314;fill:#FFFFFF;}
	.st126{fill:#23282B;}
	.st127{fill:none;stroke:#99685A;stroke-linecap:round;stroke-linejoin:round;stroke-miterlimit:10;}
	.st128{fill:#495760;}
	.st129{fill:#353A3E;}
	.st130{fill:#3A474F;}
	.st131{fill:#709EB8;}
	.st132{fill:#8BB0C5;}
	.st133{fill:#31556B;}
	.st134{fill:#4E768F;}
	.st135{fill:#263F4F;}
	.st136{fill:#576975;}
	.st137{fill:none;stroke:#3A474F;stroke-miterlimit:10;}
	.st138{fill:#2F3943;}
	.st139{fill:#C78D7D;}
	.st140{fill:#421D13;}
	.st141{fill:#5E3E35;}
	.st142{fill:#806158;}
	.st143{fill:#EFC3B6;}
	.st144{fill:#C79789;}
	.st145{fill:none;stroke:#EFC3B6;stroke-miterlimit:10;}
	.st146{fill:#69483F;}
	.st147{fill:none;stroke:#806158;stroke-width:3;stroke-linecap:round;stroke-linejoin:round;stroke-miterlimit:10;}
	.st148{fill:#E8E8E8;}
	.st149{fill:#BACAD9;}
	.st150{fill:#694034;}
	.st151{fill:#658F85;}
	.st152{fill:#407065;}
	.st153{fill:#323C42;}
	.st154{fill:#B4CADE;}
	.st155{opacity:0.3294;fill:#C75B63;}
	.st156{fill:none;stroke:#5E3E35;stroke-width:4;stroke-linecap:round;stroke-linejoin:round;stroke-miterlimit:10;}
	.st157{fill:#4C6270;}
	.st158{fill:#7A4A3D;}
	.st159{fill:#252E37;}
	.st160{fill:#3E4852;}
	.st161{fill:none;stroke:#E0AFA1;stroke-linecap:round;stroke-linejoin:round;stroke-miterlimit:10;}
	.st162{fill:#BA8677;}
	.st163{fill:#313B45;}
	.st164{fill:none;stroke:#4E768F;stroke-miterlimit:10;}
	.st165{fill:#193646;}
	.st166{opacity:0.1882;fill:#FFFFFF;}
	.st167{fill:none;stroke:#421D13;stroke-miterlimit:10;}
	.st168{opacity:0.2196;fill:#1390D4;}
	.st169{opacity:0.2392;fill:#027DCF;}
	.st170{opacity:0.3216;fill:#FFFFFF;}
	.st171{fill:#CFCFCF;}
	.st172{fill:url(#SVGID_00000116217972879757731890000004386647905036666556_);}
	.st173{fill:url(#SVGID_00000047739455590609838390000007082344435087976592_);}
	.st174{opacity:0.749;fill:url(#SVGID_00000024691182391389098390000005088048789478986682_);}
	.st175{fill:url(#SVGID_00000044149782906467267400000007369773554814485646_);}
	.st176{fill:url(#SVGID_00000118396114400739633870000009059771059920615325_);}
	.st177{fill:#821111;}
	.st178{fill:url(#SVGID_00000003818501122652765480000000910978712172444569_);}
	.st179{fill:#BC0002;}
	.st180{fill:url(#SVGID_00000045578170919944029300000011610647145359362743_);}
	.st181{fill:url(#SVGID_00000032636661725611428980000016022641376196969356_);}
	.st182{fill:url(#SVGID_00000129927860044307714900000005248411185070027195_);}
</style>
<g>
	<g>
		<rect class="st0" width="2000" height="947.37"/>
		<path class="st1" d="M110.05,527.29c25.34,27.77,66.62,39.85,102.94,30.12c17.39-4.66,34.81-13.95,52.38-10.02
			c24.86,5.56,36.14,33.5,52.29,53.2c32.76,39.95,89.76,47.79,141.12,53.36c158.03,17.14,315.46,39.87,471.89,68.14
			c37.11,6.71,75.89,13.65,111.96,2.67c-37.94-16.33-80.5-16.77-121.25-23.51c-40.75-6.74-83.88-22.73-104.64-58.44
			c-4.2-7.23-6.13-18.64,1.47-22.13c2.31-1.06,4.96-1,7.5-0.92c132.54,4.21,265.08,8.41,406.87,16.23
			c113.6,35.13,234.48,36.56,353.38,37.69c48.1,0.46,96.2,0.92,144.3,1.38c56.5,0.54,116.04,0.33,165.11-27.69
			c-21.13-13.71-42.27-27.42-63.4-41.13c21.9-12.09,47.42-32.71,39.34-56.38c-9.11-26.66-46.99-22.84-75.03-20.07
			c-22.83,2.26-45.85,0.19-68.7-1.89c-232.34-21.23-464.5-45-695.61-76.88c-249.38-34.4-508.29-77.58-748.59-2.55
			c-57.56,17.97-113.05,42.56-165.03,73.11C114.25,523.98,110.01,526.59,110.05,527.29z"/>
		<g>
			<path class="st126" d="M1873.8,524.78c-2.22,19.18-12.43,36.54-24.18,51.88c-25.15,32.88-57.85,59.06-90.2,84.9
				c-4.75,3.79-9.58,7.64-15.19,9.99c-13.96,5.87-29.88,1.58-44.4-2.76c-7.38-2.21-14.95-4.5-21.06-9.19
				c-5.84-4.46-9.98-10.82-15.73-15.39c-5.75-4.56-14.47-6.97-20.27-2.48c-2.13-26.9-1.49-54,4.7-77.88c1.03-4,2.22-7.89,3.58-11.7
				c3.57-0.44,7.13-0.89,10.71-1.35c-3.67-0.08-5.96-4.57-5.08-8.14c0.89-3.56,3.87-6.18,6.89-8.27c3.2-2.22,6.75-4.15,10.62-4.58
				c5.47-0.61,10.76,1.85,16.13,3.04c12.7,2.83,25.79-1.38,38.12-5.54c30.39-10.27,62.85-22.04,81.23-48.33
				c2.63-3.75,5.05-7.87,7.77-11.64c2.56-3.58,5.4-6.83,8.94-9.16c1.09-0.73,2.23-1.36,3.47-1.88c8.11-3.46,17.38-1.35,25.93,0.82
				c2.55,0.65,5.19,1.35,7.2,3.04c1.77,1.47,2.87,3.58,3.78,5.68c3.71,8.56,4.85,17.95,5.87,27.24c0,0,0,0,0,0.01
				c0.05,0.37,0.09,0.75,0.13,1.12C1873.87,504.37,1874.98,514.63,1873.8,524.78z"/>
			<path class="st126" d="M1815.41,453.52c-5.31,16.81-13.78,32.97-23.53,47.61c-14.47,21.73-32.41,41.87-55.43,54.18
				c-10.14,5.42-21.12,9.23-32.43,11.25c-7.54,1.35-15.38,1.89-22.81,0.02c-10.74-2.7-19.91-10.25-30.81-12.14
				c-10.29-1.79-23.86,0.16-28.37-9.25c-1.19-2.49-1.39-5.32-1.57-8.07c-1.08-17.26-2.15-34.53-2.94-51.12
				c4.99-0.97,9.81-2.8,14.19-5.36c-0.32-1.27-0.97-2.43-1.86-3.39c-1.72-1.87-4.3-2.97-6.84-2.69c0.85-3.89,5.6-5.24,9.52-5.93
				c32.66-5.71,64.55-15.78,94.56-29.84c10.71-5.03,21.7-11.01,27.98-21.03c4.16-6.67,5.92-14.61,10.04-21.3
				c8.4-13.63,27.06-19.86,41.96-14c3.33,1.31,6.55,3.23,8.67,6.12c1.88,2.57,2.76,5.73,3.44,8.84
				C1823.25,416.14,1821.2,435.21,1815.41,453.52z"/>
			<g>
				<path class="st3" d="M170.09,371.58c7.17-6.6,14.97-12.52,23.26-17.66c0.55,0.96,0.14,2.23-0.62,3.03
					c-0.76,0.8-1.81,1.26-2.79,1.77C182.74,362.5,177.9,370.19,170.09,371.58z"/>
				<path class="st2" d="M327.08,419.83l-32.51,90.23l-4.71,13.08c-14.56-3.88-35.02-4.34-49.11,5.2
					c-13.27,8.98-30.15,16.98-47.02,19.29c-2.49,0.34-5.16,0.67-7.92,0.91c-7.44,0.69-15.47,0.9-22.14-0.33
					c-21.12-3.87-42.14-11.94-55.32-28.73c-0.4-0.49-0.77-0.99-1.15-1.5c-12-16.3-20.07-35.37-22.47-55.64
					c-1.19-9.95-1.01-20.21,0.75-30.56c2.84-16.78,12.55-35.58,26.69-45.04c11.64-7.78,22.02-9.86,34.11-16.91
					c2.06-1.2,7.61-3.19,9.98-3.57c1.47-0.23,3.1,0.08,4.77,0.55c2.95,0.84,6.02,2.19,8.58,1.93c0.77-0.08,1.51-0.3,2.18-0.73
					c2.05-1.31,5.91-4.48,8.71-7.17c3.36-3.2,6.53-5.68,9.89-7.74c3.12-1.92,6.29-1.17,9.25,0.85c0.02,0.01,0.04,0.02,0.06,0.05
					c3.02,2.12,5.06,7.42,7.26,9.29c0.44,0.39,1.01,0.61,1.66,0.7c0.04,0,0.07,0.01,0.12,0.01c0.01,0.01,0.04,0.01,0.06,0.01
					c4.06,0.46,11.22-3.64,14.83-3.51c4.42,0.18,3.96,1.56,9.05,0.91c11.74-1.49,5.25,1.75,14.75,2.19
					c3.56,0.15,12.54-4.37,21.7-1.81c0.61,0.16,1.19,0.39,1.77,0.64c0.01,0,0.02,0,0.02,0c1.72,0.81,3.24,1.99,4.54,3.39
					c1.03,1.1,1.93,2.32,2.71,3.59c1.98,3.2,3.19,6.71,3.8,9.19c2.34,9.75,4.69,18.34,7.04,28.09c0.27,1.12,1.74,5.52,2.58,6.32
					c0.39,0.36,1.16,0.67,2,0.91c0.9,0.28,1.87,0.48,2.42,0.6C306.96,416.9,316.15,417.48,327.08,419.83z"/>
				<path class="st4" d="M196.79,541.74c-2.94,3.29-6.78,5.42-10.98,6.81c-7.44,0.69-15.47,0.9-22.14-0.33
					c-21.12-3.87-42.14-11.94-55.32-28.73c-0.4-0.49-0.77-0.99-1.15-1.5c-12-16.3-20.07-35.37-22.47-55.64
					c7.16,8.89,17.17,15.52,27.72,20.14c13.51,5.91,28.07,8.91,42.36,12.54c0.8,0.2,1.65,0.44,2.13,1.11
					c0.61,0.85,0.34,2.02,0.19,3.06c-0.88,6.07,3.36,11.98,8.76,14.88s11.74,3.4,17.87,3.64c4.13,0.14,8.51,0.27,11.99,2.51
					C202.61,524.66,202.22,535.66,196.79,541.74z"/>
				<path class="st4" d="M208.54,482.59c2.36,3.79,4.73,7.58,7.09,11.36c0.71,1.14,1.46,2.32,2.58,3.06
					c1.52,1.01,3.46,1.05,5.29,1.02c25.24-0.39,50.32-8.09,71.43-21.93c-2.88,8.36-5.81,17.08-4.71,25.85
					c0.18,1.42,0.45,2.94-0.18,4.23c-0.38,0.78-1.05,1.38-1.75,1.91c-4.26,3.25-9.7,4.46-14.98,5.38
					c-8.55,1.49-17.18,2.45-25.81,3.4c-9.42,1.04-18.88,2.08-28.35,1.75c-5.87-0.21-12.55-1.44-15.6-6.46
					c-2.62-4.32-1.54-9.9,0.27-14.62S208.16,488.19,208.54,482.59z"/>
				<path class="st5" d="M294.57,510.07l-4.71,13.08c-14.56-3.88-35.02-4.34-49.11,5.2c-13.27,8.98-30.15,16.98-47.02,19.29
					c-9.2,1.25-20.92,2.27-30.06,0.58c-21.12-3.87-42.14-11.94-55.32-28.73c3.4,2.47,6.96,4.69,10.71,6.55
					c13.81,6.88,30.12,8.61,45.08,4.8c14.96-3.81,28.44-13.13,37.3-25.78c1.26-1.81,3.61-3.92,5.31-2.49
					c1.35,1.12,0.65,3.36,1.43,4.94c1.24,2.55,5.01,1.87,7.66,0.89c22.64-8.29,48.05-8.82,71.01-1.49
					C289.48,507.75,292.14,508.72,294.57,510.07z"/>
				<path class="st3" d="M136.56,381.96c-4.18,6-6.81,13.07-7.58,20.34c-0.35,3.26-0.17,6.96,2.19,9.23
					c-1.99-8.08,0.83-16.48,3.61-24.33C135.36,385.57,135.94,383.93,136.56,381.96z"/>
				<path class="st3" d="M146.69,404.75c-0.45-1.34-0.71-2.78-0.47-4.17c0.25-1.39,1.07-2.73,2.34-3.35
					c0.05,0.92-0.47,1.77-0.81,2.63c-1.08,2.75-0.29,5.9,1.07,8.52C147.52,407.24,146.98,405.59,146.69,404.75z"/>
				<path class="st3" d="M149.67,402.53c1.15-0.05,2.3,0.01,3.44,0.15c0.28,0.04,0.6,0.1,0.74,0.35c0.1,0.16,0.09,0.36,0.08,0.55
					c-0.05,1.03-0.09,2.06-0.14,3.09c-0.02,0.43-0.1,0.95-0.5,1.11c-0.45,0.18-0.89-0.27-1.18-0.66c-0.68-0.93-1.36-1.85-2.03-2.78
					C149.67,403.77,149.24,403.15,149.67,402.53z"/>
				<path class="st3" d="M172.15,392.92c5.8-2.22,11.68-4.25,17.62-6.07c1.74-0.53,3.69-1.03,5.3-0.18c0.19,0.1,0.38,0.23,0.45,0.44
					c0.08,0.24-0.05,0.5-0.18,0.72c-4.59,8.05-12.07,14.41-20.75,17.65c-0.31,0.11-0.65,0.23-0.95,0.11
					c-0.28-0.1-0.47-0.36-0.62-0.62c-1.17-1.99-1.27-4.42-1.25-6.73C171.77,396.22,171.92,394.01,172.15,392.92z"/>
				<path class="st3" d="M182.97,518.71c-6.24,1.98-13.19,1.65-19.21-0.91c-2.75-1.17-5.4-2.88-6.96-5.43
					c-1.46-2.4-1.83-5.36-1.4-8.13c0.43-2.77,1.61-5.38,3.06-7.79c1.38-2.29,3.12-4.53,5.6-5.53c2.11-0.86,4.46-0.71,6.72-1.03
					c9.32-1.31,16.56-10.46,25.98-10.26c1.64,0.03,3.33,0.39,4.61,1.42c2.67,2.16,2.52,6.23,1.95,9.62
					c-0.61,3.64-1.43,7.26-2.85,10.67C197.26,509.05,191.22,516.09,182.97,518.71z"/>
				<path class="st3" d="M243.08,478.4c19.94-2.37,39.4-8.69,56.91-18.51c-7.75-2.7-16.28-0.54-24.1,1.95
					c-12.87,4.11-25.46,9.12-37.63,14.99C239.24,478.37,241.12,478.64,243.08,478.4z"/>
				<path class="st3" d="M155.67,415.95c1.41-7.49,4.26-14.7,8.34-21.14C162.04,402.67,159.48,410.37,155.67,415.95z"/>
				<path class="st3" d="M215.72,376.66c-0.18-5.82,2.47-11.66,6.98-15.34c-3.07,1.06-5.52,3.61-6.77,6.61
					C214.68,370.94,214.58,374.35,215.72,376.66z"/>
				<path class="st3" d="M228.24,372.99c2.15-3.03,4.31-6.06,6.46-9.09c0.23-0.33,0.44-0.84,0.11-1.07
					c-0.28-0.19-0.65,0.05-0.9,0.28c-2.44,2.29-4.46,5.02-5.94,8.03C227.6,371.92,227.26,372.87,228.24,372.99z"/>
				<path class="st3" d="M254.23,378.83c0.59-4.45,2.45-8.73,5.29-12.2c0.8-0.98,1.69-1.91,2.27-3.03c0.1-0.19,0.2-0.41,0.15-0.63
					c-0.13-0.52-0.88-0.49-1.39-0.29c-5.19,1.97-8.7,7.17-9.76,12.62c-0.19,0.97-0.31,1.99,0,2.93c0.31,0.94,1.15,1.77,2.14,1.76
					C253.92,379.98,254.82,378.86,254.23,378.83z"/>
				<path class="st5" d="M166.63,515.8c-2.23-1.28-4.64-2.78-5.4-5.24c-0.21-0.66-0.28-1.36-0.28-2.06c0-3.24,1.52-6.36,3.74-8.72
					s5.07-4.04,8.04-5.34c-2.4-0.9-5.15-0.41-7.4,0.81s-4.06,3.11-5.68,5.1c-1.18,1.45-2.33,3.15-2.17,5.01
					c0.08,0.89,0.46,1.73,0.87,2.53C160.14,511.26,162.8,514.16,166.63,515.8z"/>
				<path class="st4" d="M179.17,515.52c-3.13,0.38-6.35,0.1-9.37-0.81c-1.66-0.5-3.39-1.31-4.15-2.86
					c-0.06-0.12-0.11-0.24-0.11-0.37c0-0.45,0.58-0.63,1.03-0.65c1.38-0.06,2.75,0.17,4.1,0.43c2.56,0.48,5.16,1.08,7.39,2.44
					c0.25,0.15,0.5,0.33,0.64,0.59C178.83,514.54,178.8,514.91,179.17,515.52z"/>
				<path class="st4" d="M180.48,512.59c5.43-3.61,9.54-9.17,11.41-15.42c0.26-0.86,0.5-1.78,1.13-2.42c0.63-0.64,1.8-0.85,2.4-0.17
					c0.46,0.53,0.38,1.31,0.53,1.99c0.15,0.72,0.57,1.36,0.67,2.09c0.22,1.55-0.98,2.9-2.11,3.97
					C190.38,506.51,185.91,510.01,180.48,512.59z"/>
				<path class="st5" d="M194.39,502.38c-0.96,3.62-2.63,7.15-5.38,9.7c-2.75,2.55-6.69,3.98-10.34,3.11
					c-0.45-0.11-0.91-0.26-1.25-0.58c-0.34-0.32-0.51-0.85-0.3-1.27c3.07,0.16,6.19-1.01,8.39-3.15c1.32-1.29,2.31-2.88,3.59-4.2
					C190.48,504.58,192.19,503.49,194.39,502.38z"/>
				<path class="st4" d="M182.92,505.46c-4.29,0.26-8.6-2.48-10.17-6.48c-0.28-0.71-0.46-1.58-0.02-2.2c0.21-0.3,0.55-0.5,0.88-0.65
					c1.08-0.5,2.33-0.63,3.49-0.39c0.98,0.21,1.9,0.68,2.88,0.89c0.58,0.12,1.19,0.16,1.71,0.44c0.52,0.28,0.93,0.91,0.71,1.46
					c-0.07,0.18-0.2,0.33-0.32,0.47c-0.87,1.02-1.71,2.29-1.39,3.59C180.97,503.79,182.11,504.53,182.92,505.46z"/>
				<path class="st4" d="M203.47,481.51c-4.27-3.01-10.17-3.54-14.91-1.34c4.62-2.1,6.22-7.82,9.73-11.49
					c5.53-5.78,14.7-5.62,21.97-8.95c6.11-2.8,10.77-8.08,14.3-13.8c3.66-5.91,6.29-12.39,8.9-18.83
					c2.31-5.68,4.61-11.37,6.92-17.05c3-7.41,6.47-15.36,13.42-19.3c0.55-0.32,1.17-0.61,1.8-0.53c1.24,0.15,1.85,1.59,2.08,2.82
					c0.78,4.15,0.02,8.43-1.06,12.51c-1.87,7.05-4.71,13.79-7.55,20.5c-2.96,6.97-5.95,13.95-9.89,20.42
					C238.88,463.37,222.01,476.16,203.47,481.51z"/>
				<path class="st4" d="M161.89,485.59c10.41-4.88,21.66-10.58,26.27-21.11c4.37-9.97,1.66-22.05,6.45-31.82
					c4.68-9.55,15.24-14.48,25.07-18.56c9.83-4.08,20.45-8.64,25.66-17.92c-2.75,4.63-8.93,5.52-14.26,6.24
					c-9.46,1.29-18.9,3.63-27.22,8.31c-8.32,4.68-15.46,11.91-18.7,20.88c-3.12,8.63-2.52,18.31-5.95,26.82
					c-1.72,4.27-4.39,8.07-7.03,11.84C168.1,476.07,164.04,481.85,161.89,485.59z"/>
				<path class="st4" d="M160.03,440.06c-1.01,4.37-5.28,7.75-9.77,7.74c-6.46-0.01-11.22-5.95-17.25-8.28
					c-4.79-1.85-10.26-1.31-15.07,0.5s-9.08,4.79-13.21,7.84c3.62-5.33,7.24-10.66,10.86-15.99c2.14-3.15,4.49-6.47,8.03-7.87
					c4.57-1.81,9.8,0.14,13.8,2.99c4,2.85,7.34,6.61,11.57,9.09C152.38,438.09,156.22,439.19,160.03,440.06z"/>
				<path class="st4" d="M160.84,394.75c2.31,0.8,1.95-5.45,3.4-7.42c0.22-0.3,0.45-0.7,0.26-1.02c-0.12-0.2-0.37-0.29-0.6-0.35
					c-1.62-0.44-3.34-0.48-4.95-0.96c-1.61-0.48-3.21-1.58-3.58-3.22c-0.19-0.83-0.2-1.93-1-2.19c-0.3-0.1-0.62-0.03-0.94-0.03
					c-1.25,0.01-2.33-1-3.58-1.03c-0.89-0.03-1.71,0.45-2.48,0.91c-3.94,2.36-8.12,4.96-10.01,9.15c-0.28,0.63-0.41,1.55,0.22,1.84
					c0.25,0.11,0.53,0.07,0.8,0.03c1.69-0.28,3.37-0.55,5.06-0.83c0.82-0.13,1.67-0.27,2.47-0.02c0.79,0.24,1.5,0.98,1.42,1.8
					c-0.07,0.76-0.77,1.41-0.67,2.16C146.81,394.59,157.47,393.59,160.84,394.75z"/>
				<path class="st4" d="M169.61,368.76c-1.02,1.6-2.42,2.98-4.16,3.73c-1.87,0.82-4.18,0.8-5.88-0.34
					c-0.42-0.28-0.82-0.64-0.99-1.13c-0.37-1.06,0.48-2.13,1.26-2.94c0.4-0.42,0.8-0.83,1.19-1.25
					C163.97,367.67,167.05,369.02,169.61,368.76z"/>
				<path class="st4" d="M208.63,364.01c-1.66,0.96-3.47,1.93-5.38,1.73c-1.05-0.11-2.05-0.56-3.08-0.82
					c-1.15-0.29-2.34-0.35-3.49-0.65c-1.13-0.29-2.28-0.91-2.8-1.98c-0.42-0.84-0.36-1.89,0.14-2.69c0.97-1.52,3.35-2.07,3.61-3.85
					c0.05-0.29,0.01-0.61,0.12-0.89c0.18-0.53,0.74-0.84,1.29-0.89c0.22-0.02,0.43,0,0.65,0.05c3.02,2.12,5.06,7.42,7.26,9.29
					C207.41,363.69,207.97,363.92,208.63,364.01z"/>
				<path class="st4" d="M197.07,382.83c1.18-0.75,2.31-1.58,3.38-2.49c0.63-0.54,1.29-1.23,1.23-2.06
					c-0.06-0.86-0.92-1.48-1.77-1.57s-1.69,0.21-2.49,0.52c-1.49,0.58-2.96,1.2-4.42,1.86c-0.37,0.17-0.75,0.35-0.96,0.7
					c-0.24,0.41-0.17,0.93,0,1.38c0.45,1.19,1.55,2.1,2.79,2.34C196.08,383.74,197.43,383.29,197.07,382.83z"/>
				<path class="st4" d="M240.31,361.47c-1.08,0.55-1.91,1.51-2.62,2.49c-2.7,3.71-4.2,8.14-5.65,12.5
					c2.94-5.15,6.92-9.7,11.64-13.3"/>
				<path class="st4" d="M231.54,361.55c-0.23,0.26-0.49,0.54-0.75,0.84c-4.25,5.01-6.81,11.44-7.15,18
					c-0.11,1.88-0.02,3.79-0.3,5.66c-0.11,0.75-0.56,1.71-1.31,1.54c-0.27-0.06-0.49-0.26-0.68-0.47c-1.36-1.47-2.12-3.5-2.07-5.5
					c0.04-1.49,0.48-2.92,0.71-4.39c0.21-1.37,0.22-2.76,0.46-4.12c0.53-3.01,2.09-5.75,4.06-8.09c1.11-1.33,2.35-2.54,3.65-3.68"/>
				<path class="st4" d="M278.17,369.44c-0.16,3.45-3.36,6.04-5.45,8.88c-4.32,5.91-4.5,14.57-10.15,19.2
					c-0.98,0.8-2.15,1.46-3.42,1.43c-1.25-0.02-2.55-0.95-2.91-0.61c2.71-9.89,2.14-20.48,5.01-30.34c0.35-1.19,0.76-2.4,1.59-3.32
					c1.08-1.2,2.7-1.74,4.29-2.02c1.24-0.22,2.51-0.3,3.77-0.2c0.01,0,0.02,0,0.02,0c1.72,0.81,3.24,1.99,4.54,3.39
					C276.49,366.94,277.39,368.16,278.17,369.44z"/>
				<path class="st4" d="M150.42,414.11c1.95,4.38,2.29,9.46,0.94,14.06c-0.12,0.42-0.34,0.91-0.78,0.94
					c-0.51,0.05-0.81-0.56-0.94-1.06c-0.85-3.07-1.55-6.19-2.66-9.18c-1.9-5.14-5.03-10.19-4.44-15.64
					c0.12-1.09,0.53-2.32,1.56-2.67c0.96,2.98,1.93,6,3.63,8.64C149.44,411.85,151.96,414.51,150.42,414.11z"/>
				<path class="st5" d="M154.1,414.33c-0.01,0-0.03,0-0.04,0c-0.28-0.02-0.48-0.26-0.46-0.54c0.56-6.84,3.43-13.39,8.06-18.45
					c0.19-0.2,0.5-0.22,0.71-0.03c0.2,0.19,0.22,0.5,0.03,0.71c-4.48,4.9-7.25,11.24-7.8,17.86
					C154.57,414.13,154.35,414.33,154.1,414.33z"/>
				<path class="st4" d="M185.82,362.99c-1.04,3.07-1.09,6.47-0.14,9.57c0.17,0.56,0.39,1.13,0.82,1.51
					c0.43,0.39,1.15,0.52,1.6,0.15c0.28-0.23,0.41-0.6,0.51-0.96c0.93-3.19,1.22-6.56,0.87-9.86c-0.07-0.62-0.2-1.32-0.74-1.65
					c-0.75-0.46-1.71,0.12-2.3,0.77C185.53,363.55,184.86,364.8,185.82,362.99z"/>
				<path class="st4" d="M158.83,382.13c2.67-2.61,5.52-5.32,9.13-6.27c0.57-0.15,1.27-0.21,1.64,0.24c0.16,0.19,0.23,0.45,0.29,0.7
					c0.64,2.59,1.27,5.19,1.91,7.78c0.2,0.81,0.37,1.74-0.15,2.39c-0.65,0.82-1.93,0.64-2.95,0.37
					C164.93,386.36,160.83,385.16,158.83,382.13z"/>
				<path class="st5" d="M172.5,496.77c2.54-0.41,5.17-0.27,7.65,0.41c0.71,0.2,1.43,0.44,2.17,0.38s1.5-0.51,1.65-1.23
					c0.14-0.65-0.28-1.32-0.83-1.69s-1.23-0.5-1.89-0.62c-1.49-0.28-2.97-0.56-4.46-0.84c1.12-0.42,2.34-0.42,3.52-0.58
					c3.91-0.53,7.35-2.73,10.66-4.88c0.47-0.31,0.99-0.69,1.05-1.25c0.07-0.66-0.59-1.22-1.25-1.29c-0.66-0.07-1.31,0.21-1.91,0.5
					c-2.67,1.26-5.32,2.74-8.25,3.12c-1.7,0.22-3.53,0.09-5,0.97c-1.41,0.84-2.18,2.41-2.88,3.9
					C172.33,494.51,171.95,495.57,172.5,496.77z"/>
				<path class="st5" d="M293.6,413.95c-1.43,0.37-3.03-0.97-4.5-1.7c-3.32-1.64-7.5,0.23-9.73,3.18
					c-2.25,2.96-3.03,6.73-3.89,10.33c-1.49,6.13-3.79,12.76-9.29,15.85c-1.73,0.98-3.72,1.54-5.24,2.83
					c-3.75,3.17-3.17,9.03-4.84,13.65c-2.47,6.81-9.65,10.49-16.21,13.53c-7.42,3.45-14.83,6.89-22.25,10.33
					c-2.36,1.09-4.78,2.23-6.56,4.13c-2.49,2.67-3.36,6.4-4.68,9.8c-2.61,6.7-7.37,12.55-13.79,16.87
					c7.79-7.74,12.07-18.9,11.43-29.86c-0.13-2.04-0.4-4.09,0.01-6.09c0.81-3.92,4.16-6.87,7.78-8.6c3.61-1.72,7.6-2.51,11.34-3.94
					c4.29-1.64,8.27-4.12,11.61-7.26c7.65-7.17,11.72-17.3,15.16-27.19c4.88-14.05,8.98-28.35,12.27-42.84
					c1.19-5.26,2.34-10.71,5.42-15.15c1.89-2.73,4.71-4.97,7.82-5.96c3.61,3.85,5.67,9.32,6.51,12.78
					c2.34,9.75,4.69,18.34,7.04,28.09c0.27,1.12,1.74,5.52,2.58,6.32C291.99,413.4,292.76,413.71,293.6,413.95z"/>
				<path class="st5" d="M233.53,361.33l-0.88,0.74c-1.72,1.42-3.49,2.89-4.83,4.67c-3.78,5.02-3.89,11.82-3.68,18.95
					c0.01,0.32-0.23,0.58-0.56,0.6c-0.01,0-0.01,0-0.02,0c-0.3,0-0.57-0.25-0.58-0.56c-0.22-7.35-0.09-14.37,3.92-19.68
					c1.3-1.72,2.92-3.13,4.54-4.47"/>
				<path class="st5" d="M205.81,362.65c-1.23,0.36-2.45,0.71-3.68,1.07c-1.12,0.33-2.31,0.69-3.08,1.57
					c-1.2,1.36-0.97,3.44-0.52,5.2s1.04,3.65,0.37,5.33c-0.56-0.11-0.92-0.65-1.2-1.14c-0.78-1.35-1.51-2.74-2.18-4.16
					c-0.93-1.97-1.76-4.13-1.39-6.28c0.37-2.15,2.38-4.15,4.52-3.74c1.67,0.32,2.87,1.93,4.55,2.21
					C204.31,362.89,205.51,362.4,205.81,362.65z"/>
				<path class="st5" d="M152.33,394.25c0.31-0.77,0.49-1.58,0.55-2.41c0.02-0.24,0.02-0.5-0.1-0.71c-0.26-0.47-0.95-0.46-1.46-0.28
					c-1.17,0.4-2.1,1.27-3,2.12c-1.12,1.07-2.26,2.16-3,3.52c-0.74,1.36-1.01,3.07-0.34,4.46c0.41-1.53,1.19-2.96,2.18-4.2
					c0.51-0.64,1.09-1.24,1.81-1.64C150.11,394.48,151.54,394.36,152.33,394.25z"/>
				<path class="st127" d="M150.91,414.83c-3.4-2.84-5.55-7.15-5.77-11.58"/>
			</g>
			<path class="st128" d="M1652.1,602.13c-0.29,2.22-0.44,4.48-0.56,6.75c-0.44,9.4,0.01,19.02-4.51,27.12
				c-5.6,10.06-24.23,12.33-26.6,1.05c-3.24,14.89-18.39,24.66-33.45,26.99c-15.05,2.34-30.32-1.06-45.37-3.42
				c-31.11-4.87-62.91-5.27-94.14-1.22c-13.23,1.72-26.53,4.25-39.8,2.96c-20.39-1.98-38.8-12.7-58.55-18.06
				c-26.39-7.15-55.54-4.84-79.71-17.61c-9.63-5.09-18.9-12.64-29.78-12.26c-7.98,0.28-15.57,4.94-23.5,4
				c-5.66-0.68-10.55-4.09-15.78-6.35c-10.19-4.41-21.67-4.36-32.77-4.23c-80.05,0.87-160.08,1.73-240.13,2.6
				c-42.49,0.47-87.09,0.43-124.5-19.73c-4.05-12.05-16.83-46.56-19.27-80.39c-0.47-6.49-0.6-12.98-0.46-19.46
				c0.58-27.3,6-54.49,11.39-81.37c3.31-16.48,7.26-34.11,18.25-46.4v-0.01c1.36-1.53,2.83-2.98,4.43-4.34
				c9.71-8.23,22.15-11.49,35.02-12.9c6.2-0.68,12.49-0.94,18.62-1.12c42.84-1.3,85.92-2,128.35,4.04
				c42.97,6.12,84.63,19.06,126.25,31.44c74.56,22.2,149.61,42.76,225.09,61.66c29.1,7.3,58.27,14.35,87.5,21.15
				c20.92,4.87,42.74,9.61,63.68,4.83c7.5-1.72,14.9-4.66,22.57-4.25c13.44,0.7,25.54,11.51,38.82,9.36
				c10.29-1.67,22.15-10.46,29.44-3.01c3.04,3.11,3.99,8.43,8.06,9.96c5.4,2.04,10.89-4.57,16.5-3.7c0.16,0.01,0.33,0.05,0.49,0.08
				c4.92,1.16,6.42,7.31,6.98,12.33c0.78,6.98,1.57,13.96,2.36,20.95c1.25,11.24,2.51,22.48,3.79,33.72c0.15,1.36,0.3,2.7,0.46,4.06
				c1.95-1.88,4.2-2.88,6.55-3.15c1.13-0.13,2.29-0.09,3.46,0.09c8.18,1.29,16.53,9.87,17.59,19.01
				C1660.39,576.42,1653.83,589.04,1652.1,602.13z"/>
			<path class="st129" d="M1872.63,493.09c0,0,0,0,0,0.01c-4.02,6.25-9.88,10.91-17.23,12.08c-1.4,0.22-2.96,0.37-3.94,1.42
				c-0.74,0.77-0.98,1.87-1.11,2.94c-1.04,8.16,1.85,18.5-4.92,23.18c0.37-4.95,0.75-9.91,1.12-14.85c0.14-1.95,0.07-4.35-1.64-5.31
				c-1.24-0.7-2.8-0.28-4.14,0.19c-37.57,12.91-67.01,44.43-105.36,54.78c-12.34,3.33-25.2,4.34-37.57,7.58
				c-9.33,2.46-19.86,8.22-20.12,17.86c-0.27,10.14-5.94,21.84-11.86,32.8c-1.86,3.45-4.47,7.19-8.36,7.5
				c0.03-8.82,5.26-16.65,7.99-25.04c3.05-9.36,2.91-19.71-0.39-28.98c-0.61-1.72-1.35-3.44-2.64-4.71
				c-1.4-1.38-3.29-2.09-5.05-2.95c-3.8-1.85-7.2-4.5-9.94-7.72c1.03-4,2.22-7.89,3.58-11.7c3.57-0.44,7.13-0.89,10.71-1.35
				c-3.67-0.08-5.96-4.57-5.08-8.14c0.89-3.56,3.87-6.18,6.89-8.27c3.2-2.22,6.75-4.15,10.62-4.58c5.47-0.61,10.76,1.85,16.13,3.04
				c12.7,2.83,25.79-1.38,38.12-5.54c30.39-10.27,62.85-22.04,81.23-48.33c2.63-3.75,5.05-7.87,7.77-11.64
				c3.26-2.71,6.32-5.66,8.87-9.06c0.02-0.04,0.05-0.06,0.07-0.09c1.09-0.73,2.23-1.36,3.47-1.88c8.11-3.46,17.38-1.35,25.93,0.82
				c2.55,0.65,5.19,1.35,7.2,3.04c1.77,1.47,2.87,3.58,3.78,5.68C1870.46,474.41,1871.61,483.8,1872.63,493.09z"/>
			<path class="st129" d="M1815.41,453.52c-0.19,0.12-0.39,0.22-0.58,0.33c-5.7,2.96-12.41-0.99-17.57-4.83
				c-10.49,16.46-22.69,31.82-36.33,45.78c-2.22,2.28-5.17,4.7-8.21,3.79c7.5-7.87,14.98-15.74,22.48-23.61
				c5.98-6.29,12.34-13.45,12.48-22.13c-9.36,6.82-18.7,13.64-28.05,20.46c-2.89,2.11-6,4.3-9.57,4.54
				c-3.13,0.2-6.13-1.13-9.18-1.85c-12.16-2.84-24.28,4.14-36.67,5.84c-7.08,0.96-14.26,0.18-21.38,0.62
				c-7.12,0.46-14.61,2.41-19.42,7.68c-8.6,9.42-5.34,25.03-12.2,35.78c0.82-11.39,1.63-22.77,2.43-34.16
				c0.23-3.32-0.99-8.07-4.26-7.45c-2.09,0.4-2.94,2.89-3.29,4.98c-2.84,16.98,0.98,35.49-6.83,50.82
				c1.67-16.4,1.66-32.97-0.04-49.37c-0.21-2.05-0.46-4.13-1.25-6.02c-1.5-3.54-4.57-5.84-8.14-7.45c-1.72-1.87-4.3-2.97-6.84-2.69
				c0.85-3.89,5.6-5.24,9.52-5.93c32.66-5.71,64.55-15.78,94.56-29.84c10.71-5.03,21.7-11.01,27.98-21.03
				c4.16-6.67,5.92-14.61,10.04-21.3c8.4-13.63,27.06-19.86,41.96-14c3.33,1.31,6.55,3.23,8.67,6.12c1.88,2.57,2.76,5.73,3.44,8.84
				C1823.25,416.14,1821.2,435.21,1815.41,453.52z"/>
			<path class="st130" d="M833.32,534.8c-24.73,1.37-39.67-15.88-44.73-34.56c-5.04-18.69-2.11-38.53,1.8-57.47
				c5.57-27.04,13.09-53.68,22.47-79.66v-0.01c1.36-1.53,2.83-2.98,4.43-4.34c9.71-8.23,22.15-11.49,35.02-12.9
				c-7.71,32.85-21.1,64.49-26.16,97.91C821.54,474.13,824.02,505.54,833.32,534.8z"/>
			<path class="st130" d="M1651.54,608.87c-0.44,9.4,0.01,19.02-4.51,27.12c-5.6,10.06-24.23,12.33-26.6,1.05
				c-3.24,14.89-18.39,24.66-33.45,26.99c-15.05,2.34-30.32-1.06-45.37-3.42c-31.11-4.87-62.91-5.27-94.14-1.22
				c-13.23,1.72-26.53,4.25-39.8,2.96c-20.39-1.98-38.8-12.7-58.55-18.06c-26.39-7.15-55.54-4.84-79.71-17.61
				c-9.63-5.09-18.9-12.64-29.78-12.26c-7.98,0.28-15.57,4.94-23.5,4c-5.66-0.68-10.55-4.09-15.78-6.35
				c-10.19-4.41-21.67-4.36-32.77-4.23c-80.05,0.87-160.08,1.73-240.13,2.6c-42.49,0.47-87.09,0.43-124.5-19.73
				c-4.05-12.05-16.83-46.56-19.27-80.39c-0.47-6.49-0.6-12.98-0.46-19.46c1.66-3.25,3.59-5.93,5.73-7.93
				c22.99,22.12,56.29,29.46,88.04,32.64c83.56,8.39,170.89-5.05,249.66,24.04c27.58,10.19,54.33,25.6,83.73,26
				c10.37,0.13,22.95-0.64,28.67,8c1.79,2.71,2.61,6.06,4.81,8.44c8.2,8.88,21.61-3.54,33.52-5.66
				c13.73-2.46,25.08,9.75,37.27,16.54c8.67,4.82,18.51,7.02,28.29,8.68c80.87,13.81,165.81-4.82,244.84,17.22
				c14.54,4.06,31.6,9.02,43.47-0.29c5.29-4.15,9.66-11.11,16.36-10.75C1649.01,607.87,1650.31,608.27,1651.54,608.87z"/>
			<g>
				<path class="st2" d="M1067.32,627.86c-0.05,0.08-0.11,0.15-0.15,0.22c-0.69,0.97-1.71,1.65-2.71,2.32
					c-6.32,2.48-9.61,10.56-14.9,16.15c-2.85,3.04-6.36,5.37-9.84,7.67c-7.1,4.71-14.3,9.49-22.36,12.27
					c-8.68,3.01-18.08,3.6-26.65,6.88c-4.14,1.58-8.05,3.77-12.23,5.19c-7.22,2.44-14.98,2.56-22.6,2.63
					c-31.94,0.29-63.88,0.29-95.82,0l0.62-8.23l2.69-35.82c3.71-0.09,7.42-0.19,11.12-0.28c1.75-0.04,3.57-0.09,5.17-0.83
					c1.32-0.61,2.4-1.65,3.53-2.56c2.06-1.64,4.37-2.92,6.68-4.2c5.39-2.97,10.89-5.99,16.9-7.3c4.07-0.88,8.3-0.96,12.33-2.05
					c11.86-3.2,20.18-14.6,32.04-17.81c4.78-1.3,6.91-2.33,11.86-1.94c3.61,0.29,7.92,0.07,9.12,3.49c0.06,0.16,0.12,0.35,0.18,0.54
					c0.92,2.73,2.15,7.38,0.74,9.56c-1.12,1.73-2.34,3.43-3.79,4.9c-8.53,8.68-23.53,8.48-31.78,17.26v0.01
					c-0.04,0.02-0.05,0.04-0.06,0.06c-0.21,0.21-0.4,0.42-0.58,0.64c0.05,0.02,0.09,0.05,0.14,0.07c7.74,4,15.74,6.8,23.99,7.86
					c9.06,1.19,18.28,0.3,27.27-1.32c3.91-0.7,7.81-1.56,11.51-2.99c3.71-1.44,7.16-3.45,10.55-5.53
					c5.79-3.57,12.58-7.54,18.96-5.17c4.94-4.26,11.75-6.81,18.51-6.53c5.6-3.01,12.67-3.06,18.07,0.04
					c0.73,0.42,1.46,0.92,1.84,1.67C1068.15,625.69,1067.91,626.91,1067.32,627.86z"/>
				<path class="st3" d="M873.22,647.38c8.14-2.18,14.95-7.6,22.17-11.95c8.4-5.06,17.54-8.78,26.82-11.95
					c4.82-1.65,9.73-3.18,14.13-5.74c3.15-1.84,5.99-4.18,9.13-6.05c5.78-3.44,12.4-5.18,18.91-6.88c-3.67-1.8-8.08-1.08-11.93,0.31
					c-8.27,2.97-15.27,8.65-23.15,12.53c-7.24,3.56-15.13,5.57-22.66,8.45C894.09,630.9,882.5,638.18,873.22,647.38z"/>
				<path class="st5" d="M973.01,613.74c-1.12,1.73-2.34,3.43-3.79,4.9c-8.53,8.68-23.53,8.48-31.78,17.26v0.01
					c-0.01,0-0.01,0-0.02,0c-0.01,0.02-0.02,0.04-0.04,0.06c-0.14,0.25-0.29,0.48-0.44,0.71c-4.08,6.37-10.4,11.3-17.58,13.71
					c-2.82,0.95-6.4,1.32-8.35-0.92c2.23-4.19,6.04-7.35,10.11-9.8c4.06-2.46,8.46-4.33,12.6-6.65c3.32-1.87,6.5-4.05,10.06-5.44
					c2.43-0.95,5.01-1.51,7.51-2.27c3.73-1.13,7.33-2.74,10.68-4.75c1.33-0.8,2.68-1.72,3.34-3.11c-2.04,0.07-4.07,0.13-6.11,0.2
					c2.85-1.57,5.73-3.15,8.15-5.31c2.42-2.15,4.39-4.97,4.92-8.15C973.2,606.91,974.43,611.56,973.01,613.74z"/>
				<path class="st3" d="M1055.11,625.56c2.63-0.39,5.26-0.79,7.89-1.18c-3.27-2.38-8.05-2.45-11.38-0.16
					C1052.3,625.22,1053.56,625.79,1055.11,625.56z"/>
				<path class="st3" d="M1005.6,644.28c2.86-3.68,7.15-5.91,11.29-8.03c6.69-3.42,13.38-6.84,20.07-10.25
					c2.32-1.18,4.94-2.4,7.42-1.63c-1.6,2.46-4.53,3.61-7.24,4.74c-9.68,4.02-18.77,9.42-26.93,15.99c-0.82,0.66-1.71,1.36-2.76,1.4
					C1006.4,646.55,1004.82,645.28,1005.6,644.28z"/>
				<path class="st5" d="M1067.32,627.86c-0.05,0.08-0.11,0.15-0.15,0.22c-0.69,0.97-1.71,1.65-2.71,2.32
					c-6.32,2.48-9.61,10.56-14.9,16.15c-2.85,3.04-6.36,5.37-9.84,7.67c-7.1,4.71-14.3,9.49-22.36,12.27
					c-8.68,3.01-18.08,3.6-26.65,6.88c-4.14,1.58-8.05,3.77-12.23,5.19c-7.22,2.44-14.98,2.56-22.6,2.63
					c-31.94,0.29-63.88,0.29-95.82,0l0.62-8.23l0.65,0.08c3.98,0.23,7.95,0.46,11.93,0.68c1.81,0.11,4.39-0.6,4.04-2.37
					c4.48,1.61,8.95,3.23,13.43,4.85c2.29,0.82,5.1,1.57,6.95-0.02c-2.13-1.77-3.38-4.55-3.3-7.31c0.01-0.35,0.06-0.74,0.32-0.97
					c0.22-0.2,0.54-0.23,0.82-0.26c6.36-0.61,12.74-0.98,19.11-1.13c1.11-0.02,2.32-0.01,3.16,0.71c0.6,0.5,0.9,1.29,1.43,1.87
					c1.19,1.31,3.22,1.36,4.98,1.2c5.99-0.5,12.44-1.89,17.66,1.05c1.59,0.89,2.97,2.15,4.69,2.77c1.95,0.7,4.11,0.47,6.18,0.22
					c3.1-0.36,6.2-0.73,9.23-1.47c3.18-0.78,6.25-1.98,9.35-3.06c6.76-2.37,13.68-4.26,20.6-6.13c5.66-1.53,11.32-3.08,16.39-4.05
					c3.39-2.25,6.53-4.85,9.33-7.8c0.74-0.76,1.46-1.57,2.41-2.02c1.11-0.55,2.39-0.57,3.58-0.89c1.39-0.35,2.67-1.09,3.87-1.87
					c5.09-3.25,9.54-7.37,14.07-11.36c1.74-1.54,3.54-3.08,5.65-4.06c2.11-0.97,4.62-1.33,6.76-0.44c0.41,0.16,0.85,0.57,0.66,0.95
					c-0.08,0.14-0.23,0.23-0.37,0.3c-1.99,1.06-3.96,2.14-5.95,3.2c-1.37,0.74-2.75,1.49-4.02,2.37c-1.12,0.8-2.16,1.71-3.19,2.62
					c-3.98,3.47-7.94,6.96-11.93,10.5c-5.03,1.87-9.7,4.68-13.72,8.22c-1.1,0.96-2.2,2.01-3.63,2.81
					c-10.68,2.76-21.37,5.53-31.8,9.1c-3.31,1.13-6.73,2.42-9.15,4.95c1.26,0.74,2.87,0.71,4.28,0.3c1.4-0.4,2.69-1.16,3.99-1.86
					c3.84-2.06,7.92-3.6,11.99-5.15c5.95-2.25,12.01-4.51,18.35-4.94c2.21-0.15,4.44-0.07,6.62-0.53
					c7.11-1.51,11.81-8.29,18.36-11.46c2.35-1.13,4.94-1.8,7.12-3.24c1.85-1.22,3.31-2.94,4.67-4.25
					c3.66-4.51,7.32-9.03,10.98-13.54c0.7-0.88,1.42-1.75,2.34-2.39c1.71-1.17,3.89-1.33,5.95-1.46
					C1066.09,627.67,1066.76,627.65,1067.32,627.86z"/>
			</g>
			<g>
				<path class="st131" d="M863.1,660.8c-0.65,7.1-0.26,14.94,2.64,21.24c1.47,3.19,3.58,5.99,6.5,8.09
					c-6.15,1.7-12.4,3.04-18.69,4.04c-23.98,3.81-48.73,2.55-72.04-3.93c-9.85-2.75-19.43-6.39-29.18-9.46
					c-9.47-2.98-19.12-5.42-28.75-7.84c-51.03-12.88-102.88-25.84-155.46-23.96c-12.82,0.46-25.66,1.79-38.44,0.75
					c-14.85-1.23-29.24-5.64-43.92-8.23c-30.01-5.31-60.94-2.97-91.04-7.75c-30.09-4.77-61.37-18.88-74.75-46.25
					c0-0.01-0.01-0.01-0.01-0.02c-5.22-10.67-7.33-22.61-12-33.52c-1.3-3.05-2.89-6.07-4.75-8.88c-0.05-0.07-0.09-0.13-0.14-0.2
					c-4.81-7.19-11.43-13.04-19.77-14.67c1.23-10.82,5.19-19.75,8.96-28.43c0.26-0.61,0.51-1.2,0.77-1.8
					c13.58-31.64,22.62-65.22,26.76-99.39c6.11,3.61,12.78,4.9,19.38,4.33c2.78-0.25,5.56-0.81,8.27-1.67
					c9.37-2.98,17.3-9.19,24.98-15.32c38.7-30.9,77.27-62.98,122.25-83.72c18.73-12.14,43.46,0.67,66.01,0.33
					c16.04-0.23,31.81-7.38,47.66-4.9c11.11,1.74,20.9,8.04,31.39,12.05c44.81,17.17,100.92-7.05,140.53,20.04
					c3.88,2.65,7.64,5.82,12.22,6.89c3.6,0.84,7.36,0.29,11.04-0.05c13.47-1.23,27.22,0.61,39.91,5.32
					c-19.11,39.71-32.94,81.25-38.23,124.16c-0.05,0.3-0.08,0.6-0.12,0.9c-4.36,36.14-2.49,73.33,7.47,108.28c0,0.01,0,0.01,0,0.02
					c1.94,6.83,4.2,13.56,6.78,20.2c-4.44-1.52-8.61-3.06-12.58-4.63c-8.71-3.42-16.5-6.89-24.28-10.36
					c-0.13-0.06-0.26-0.12-0.39-0.18c-9.67-4.32-19.45-8.67-29.86-10.62c-8.21-1.53-16.7-1.54-24.73-3.82
					c-16.63-4.74-30.36-18.92-47.64-19.43c-6.12-0.19-12.12,1.42-18.09,2.75c-15.57,3.47-31.52,5.19-47.47,5.11
					c0.95,0.36,1.91,0.7,2.87,1.02c24.69,8.27,52.12,4.05,77.75,9.32c21.3,4.39,40.97,15.25,62.48,18.37
					c13.42,5.53,26.74,11.58,40.06,17.63c2.19,1.01,4.46,2.01,6.87,2.09c2.44,0.07,4.8-0.83,7.22-1.2
					c10.39-1.64,19.86,6.37,25.79,15.08c2.98-2.15,7.25-0.68,10.11,1.63c2.87,2.29,5.19,5.38,8.55,6.87
					c0.69,0.3,1.39,0.53,2.12,0.69c3.02,0.71,6.28,0.37,9.43,0.35c3.89-0.02,8.26,0.71,10.56,3.85c-3.6-0.27-6.51,1.1-8.3,3.2
					c-1.79,2.11-2.67,4.82-3.39,7.49C864.77,648.58,863.66,654.66,863.1,660.8z"/>
				<path class="st132" d="M413.65,541.4c17.85-1.95,35.79-3.9,53.71-2.86c16.04,0.93,31.84,4.23,47.56,7.52
					c20.5,4.29,40.99,8.59,61.49,12.88c-26.87-3.34-54.64-6.61-80.62,1.04c-8.87,2.61-17.34,6.45-26.18,9.13
					c-21.69,6.59-45.51,5.95-66.82-1.79c-1.29-0.47-2.68-1.05-3.31-2.27c-0.81-1.54-0.07-3.42,0.78-4.94
					C403.93,553.58,409.9,548.39,413.65,541.4z"/>
				<path class="st132" d="M613.74,574.29c-3.07,3.35-7.47,5.24-10.57,8.57s-4.23,9.43-0.46,11.98c6.75-8.09,15.21-14.75,24.66-19.4
					c-2.95,11.42-2.92,23.59,0.08,34.99c4.28,0.27,6.52-4.89,7.52-9.06c2.09-8.76,4.18-17.52,6.27-26.28
					c-4.85-2.25-9.84-4.54-15.18-4.82C620.73,569.98,615.37,572.51,613.74,574.29z"/>
				<path class="st132" d="M806.03,611.88c0.66,15.65,1.49,31.96,9.14,45.63c0.37,0.67,0.8,1.36,1.48,1.72
					c2.15,1.13,4.13-1.8,4.72-4.16c2.31-9.22,2.68-18.93,1.08-28.3c-0.86-5.04-2.45-10.26-6.23-13.71S805.89,608.74,806.03,611.88z"
					/>
				<path class="st132" d="M399.02,380.38c23.36-27.39,59.58-39.71,94.45-48.65c16.74-4.29,34.93-8,50.89-1.36
					c-37.03,13.35-79.85,14.14-110.69,38.6c-11.2,8.88-21.55,21.14-35.81,22.12C396.7,384.4,399.27,377.2,399.02,380.38z"/>
				<path class="st132" d="M662.45,359.18c13.23,1.4,26.78-0.3,39.25-4.92c5.67-2.1,11.11-4.79,16.75-6.97
					c15.6-6.02,32.45-8,49.14-9.08c-5.65,4.16-12.52,6.27-19.27,8.2C719.14,354.72,689.35,360.89,662.45,359.18z"/>
				<path class="st132" d="M756.37,404.57c5.81-26.75,22.01-51.11,44.44-66.79c2.66,4.5,2,10.11,2.3,15.33
					c0.3,5.22,2.49,11.26,7.56,12.51c1.72,0.42,3.54,0.21,5.28,0.56c1.74,0.35,3.55,1.55,3.65,3.32c0.07,1.3-0.79,2.44-1.63,3.44
					c-11.83,14-28.03,24.23-37.91,39.68c-1.69,2.65-3.23,5.48-5.63,7.51s-5.98,3.06-8.73,1.54
					C760.76,418.89,762.33,411.05,756.37,404.57z"/>
				<path class="st133" d="M819.34,597.44c-4.44-1.52-8.61-3.06-12.58-4.63c-8.71-3.42-16.5-6.89-24.28-10.36
					c-0.13-0.06-0.26-0.12-0.39-0.18c-9.67-4.32-19.45-8.67-29.86-10.62c-8.21-1.53-16.7-1.54-24.73-3.82
					c-16.63-4.74-30.36-18.92-47.64-19.43c-6.12-0.19-12.12,1.42-18.09,2.75c-15.57,3.47-31.52,5.19-47.47,5.11
					c0.95,0.36,1.91,0.7,2.87,1.02c-1.53,0.04-3.06,0.06-4.58,0.09c-46.36-14.78-93.7-24.4-141.5-29.84
					c-5.13-0.58-11.85-6.27-16.2-12.57c-4.36-6.29-7.43-13.58-12.89-18.96c-6.3-6.21-15.92-10.18-18.14-18.74
					c9.42-1.72,19.4-0.13,27.84,4.42c-3.38-2.82-6.76-5.65-10.14-8.47c34.44,1.36,68.82,4.63,102.9,9.79
					c6.39,0.95,12.76,1.98,19.12,3.08c3.25-3.32-1.31-8.44-5.38-10.68c-24.21-13.22-50.18-23.22-76.99-29.63
					c12.97-9.24,30.51-7.92,46.21-5.2c15.7,2.73,32.26,6.4,47.17,0.78l-16.21-14.91c17.65,2.16,33.38,11.67,49.32,19.56
					c27.02,13.38,55.91,22.5,84.67,31.57c2.8,0.89,5.77,1.78,8.61,1.05c2.91-0.74,5.13-3.03,7.56-4.81
					c20.87-15.38,54.05,7.03,75.27-7.85c2.12-1.49,4.05-3.32,6.47-4.22c4.68-1.75,10.12,0.51,13.4,4.27
					c0.56,0.64,1.06,1.32,1.53,2.02c-0.05,0.3-0.08,0.6-0.12,0.9c-3.58,29.66-2.96,60.02,2.89,89.27c1.27,6.4,2.8,12.74,4.58,19.01
					c0,0.01,0,0.01,0,0.02C814.5,584.07,816.76,590.79,819.34,597.44z"/>
				<path class="st133" d="M872.24,690.14c-29.58,8.14-61.29,8.29-90.73,0.11c-9.85-2.75-19.43-6.39-29.18-9.46
					c-9.47-2.98-19.12-5.42-28.75-7.84c-51.03-12.88-102.88-25.84-155.46-23.96c-12.82,0.46-25.66,1.79-38.44,0.75
					c-14.85-1.23-29.24-5.64-43.92-8.23c-30.01-5.31-60.94-2.97-91.04-7.75c-30.09-4.77-61.37-18.88-74.75-46.25
					c0-0.01-0.01-0.01-0.01-0.02c15.65,10.91,34.99,16.63,54.13,18.95c24.61,2.97,49.52,0.97,74.3,1.26
					c39.7,0.46,79.08,6.77,118.27,13.06c16.23,2.61,32.47,5.22,48.69,7.82c32.44,5.22,65.46,10.61,94.83,25.35
					c13.17,6.62,30.22,14.69,41.04,4.69c1.35-1.23,2.53-2.73,4.21-3.42c5.65-2.29,9.77,5.37,14.7,8.95
					c11.05,8.01,31.36-3.99,38.35,7.75c1.74,2.92,1.88,6.61,3.65,9.52c3.29,5.43,11.25,6.28,16.98,3.56
					c5.73-2.72,9.73-8.02,13.5-13.12c7.71,3.4,15.42,6.8,23.12,10.2C867.21,685.24,869.32,688.03,872.24,690.14z"/>
				<path class="st133" d="M303.21,545.07c-4.82-7.29-11.49-13.23-19.91-14.87c1.23-10.82,5.19-19.75,8.96-28.43
					c5.56,4.83,12.25,8.39,19.37,10.29C305.72,521.95,302.78,533.58,303.21,545.07z"/>
				<path class="st134" d="M807.97,558.21c-32.89-19.25-65.47-41.95-103.24-44.11c-13.37-0.76-27.25,1.08-39.78-3.63
					c-12.85-4.82-25.95-16.36-38.33-10.42c-5.24,2.5-8.97,7.87-14.6,9.31c-5.23,1.34-10.61-1.08-15.49-3.39
					c-17.15-8.14-34.53-15.81-52.09-22.97c6.39,0.95,12.76,1.98,19.12,3.08c3.25-3.32-1.31-8.44-5.38-10.68
					c-24.21-13.22-50.18-23.22-76.99-29.63c12.97-9.24,30.51-7.92,46.21-5.2c15.7,2.73,32.26,6.4,47.17,0.78l-16.21-14.91
					c17.65,2.16,33.38,11.67,49.32,19.56c27.02,13.38,55.91,22.5,84.67,31.57c2.8,0.89,5.77,1.78,8.61,1.05
					c2.91-0.74,5.13-3.03,7.56-4.81c20.87-15.38,54.05,7.03,75.27-7.85c2.12-1.49,4.05-3.32,6.47-4.22
					c4.68-1.75,10.12,0.51,13.4,4.27c0.56,0.64,1.06,1.32,1.53,2.02c-0.05,0.3-0.08,0.6-0.12,0.9
					C801.51,498.59,802.13,528.96,807.97,558.21z"/>
				<path class="st135" d="M339.18,404.91c-0.3,8.58-1.56,17.13-3.74,25.44c-2.65,10.07-6.64,19.73-10.16,29.52
					c-9.92,27.58-16.11,56.33-22.2,85.01c-4.81-7.19-11.43-13.04-19.77-14.67c1.23-10.82,5.19-19.75,8.96-28.43
					c0.26-0.61,0.51-1.2,0.77-1.8c13.58-31.64,22.62-65.22,26.76-99.39C325.9,404.2,332.58,405.48,339.18,404.91z"/>
				<path class="st135" d="M863.1,660.8c-0.65,7.1-0.26,14.94,2.64,21.24c1.47,3.19,3.58,5.99,6.5,8.09
					c-6.15,1.7-12.4,3.04-18.69,4.04c-1.19-2.3-2.18-4.7-2.94-7.15c-4.14-13.36-2.56-27.82,0.69-41.43
					c1.49-6.19,3.45-12.53,6.8-17.86c3.02,0.71,6.28,0.37,9.43,0.35c3.89-0.02,8.26,0.71,10.56,3.85c-3.6-0.27-6.51,1.1-8.3,3.2
					c-1.79,2.11-2.67,4.82-3.39,7.49C864.77,648.58,863.66,654.66,863.1,660.8z"/>
			</g>
			<path class="st136" d="M910.08,411.69c227.79,1.36,439.99,120.05,666.91,139.95c21.37,1.87,36.36,3.3,54.16-8.68
				c-80.26,0.11-152.33-12.75-229.06-36.3c-39.09-12-77.24-26.97-116.5-38.41c-23.91-6.97-48.18-12.61-72.44-18.25
				c-45.43-10.56-90.87-21.12-136.3-31.68c-22.32-5.19-44.69-10.38-67.44-13.09C976.88,401.37,943.74,402.67,910.08,411.69z"/>
			<path class="st136" d="M1622.76,481.13c-1.72,6.02-9.45,9.44-15.05,6.65c-4.28-2.12-6.76-6.87-10.97-9.12
				c-10.64-5.72-22.21,7.37-34.28,7.64c-11.4,0.26-20.12-10.85-31.37-12.65c-5.99-0.97-12.02,0.81-18.01,1.74
				c-13.35,2.11-26.96,0.07-40.27-2.27c-43.09-7.57-85.64-18.3-127.17-32.09c1.66,0.3,3.32,0.58,4.98,0.84
				c29.1,7.3,58.27,14.35,87.5,21.15c20.92,4.87,42.74,9.61,63.68,4.83c7.5-1.72,14.9-4.66,22.57-4.25
				c13.44,0.7,25.54,11.51,38.82,9.36c10.29-1.67,22.15-10.46,29.44-3.01c3.04,3.11,3.99,8.43,8.06,9.96
				c5.4,2.04,10.89-4.57,16.5-3.7C1619.08,477.79,1620.94,479.42,1622.76,481.13z"/>
			<path class="st126" d="M1649.82,463.17c-0.27,2.06,1.04,4.09,2.79,5.21c1.75,1.13,3.86,1.52,5.93,1.79
				c5.96,0.76,12.15,0.63,17.77-1.49c2.08-0.78,4.42-2.7,3.57-4.75c-0.73-1.78-3.61-2.55-3.31-4.45c0.14-0.88,0.97-1.47,1.77-1.88
				c3.75-1.89,8.42-1.84,12.13,0.12c3.31,1.75,6.65,5.01,10.15,3.69c-1.52-1.69-3.27-3.19-5.18-4.42c3.63-0.89,7.4-1.22,11.12-0.97
				c-1.1-1.21-2.2-2.42-3.3-3.64c2.26-0.57,4.76-0.06,6.61,1.35c1.14,0.87,2.05,2.05,3.35,2.65c1.3,0.6,3.22,0.24,3.57-1.15
				c-1.05-2.08-2.99-3.68-5.23-4.3c-0.17-2.08,1.99-3.75,4.08-3.86c2.09-0.11,4.06,0.87,5.93,1.8c1.87,0.93,3.88,1.86,5.96,1.63
				c0.57-0.06,1.21-0.27,1.44-0.8c0.3-0.67-0.22-1.41-0.76-1.92c-2.24-2.12-5.37-3.27-8.46-3.11c3.78-0.2,7.92-0.54,10.65-3.16
				c0.83-0.8,1.67-1.86,2.82-1.8c0.53,0.02,1.01,0.29,1.47,0.56c3.06,1.79,6.83,3.9,9.87,2.08c-2.56-2.34-5.83-3.88-9.27-4.36
				c1.32-1.32,3.46-1.12,5.32-0.95c1.86,0.16,4.12-0.04,4.99-1.69c0.58-1.11,0.48-2.79,1.66-3.24c1.04-0.4,2.03,0.61,2.81,1.4
				c1.07,1.09,2.36,1.97,3.77,2.57c0.44,0.19,0.94,0.35,1.4,0.21c0.73-0.22,1.06-1.08,1.06-1.84c-0.01-1.87-1.46-3.5-3.16-4.29
				c-1.7-0.79-3.62-0.92-5.49-1.03c-2.03-0.12-4.05-0.24-6.08-0.36c-0.26-0.02-0.53-0.03-0.75,0.11c-0.68,0.42-0.06,1.42,0.15,2.2
				c0.54,2-2.23,3.25-4.29,3.05c-2.06-0.2-4.47-0.84-5.95,0.61c-1.48,1.45-1.16,4.38-3.83,5.87c-2.32-0.44-4.68-0.89-7.02-0.61
				s-4.71,1.38-5.93,3.39c-0.74,1.23-1.02,2.72-1.91,3.85c-1.15,1.48-3.14,2.08-5.01,2.11c-1.87,0.03-3.72-0.42-5.58-0.64
				c-0.39-0.05-0.81-0.08-1.17,0.09c-1.53,0.73,0.12,3.22-0.62,4.75c-0.75,1.54-3.03,0.92-4.64,0.35
				c-4.14-1.47-8.92-0.99-12.68,1.28c-1.51,0.91-2.95,2.13-4.71,2.29c-1.89,0.17-3.69-0.94-5.59-0.92c-1.4,0.01-2.72,0.63-4.08,0.93
				c-2.56,0.57-5.21,0.02-7.82-0.22c-5.1-0.47-10.31,0.25-15.09,2.09c-1.11,0.43-2.38,1.18-2.35,2.37c0.03,1.02,1.1,1.76,2.11,1.81
				s1.99-0.39,2.93-0.78c7.03-2.96,14.87-3.98,22.43-2.89c1.05,0.15,2.14,0.36,3,0.98c0.86,0.62,1.44,1.77,1.08,2.77
				c-0.33,0.93-1.3,1.44-2.19,1.86c-1.97,0.94-4.01,1.89-6.19,2.02c-2.18,0.13-4.57-0.76-5.57-2.7c-0.26-0.5-0.43-1.07-0.81-1.49
				c-0.38-0.41-0.93-0.63-1.46-0.82c-1.54-0.58-3.13-1.16-4.77-1.04S1649.9,462.58,1649.82,463.17z"/>
			<path class="st130" d="M1627.03,509.58c1.25,11.24,2.51,22.48,3.79,33.72c-9.13-0.81-18.41-0.16-27.34,1.93
				c-3.92,0.92-7.8,2.12-11.81,2.37c-4.05,0.26-8.07-0.44-12.06-1.13c-23.19-4.07-46.37-8.14-69.56-12.2
				c-20.51-3.6-41.04-7.2-61.38-11.7c-25.81-5.7-51.3-12.82-76.77-19.94c-62.85-17.57-125.71-35.15-188.56-52.71
				c-74.61-20.85-150.36-41.88-227.84-41.7c16.6-11.36,35.82-13.12,54.92-12.19c30.06,1.49,59.5,9.63,89.56,11.1
				c19.51,0.96,39.2-0.89,58.49,2.2c23.1,3.71,44.41,14.3,65.93,23.5c56.36,24.11,116.51,39.33,177.57,44.96
				c25.16,2.32,52.3,3.68,72.01,19.5c5.33,4.28,10.7,9.82,17.54,9.72c3.3-0.05,6.41-1.46,9.4-2.87
				c11.59-5.43,24.66-11.15,36.73-6.91c15.5,5.44,23.4,25.49,39.63,28C1594.75,527.94,1609.59,508.28,1627.03,509.58z"/>
			<path class="st137" d="M1641.28,544.3c-0.14,0.16-0.28,0.32-0.43,0.48c-1.01-0.21-2.01-0.4-3.03-0.57
				C1638.96,544.08,1640.11,544.11,1641.28,544.3z"/>
			<path class="st126" d="M1725.14,542.13c-3.57,0.62-7.22,0.68-10.78,0.18c-1.05-0.14-2.18-0.37-2.89-1.16
				c-0.84-0.91-0.88-2.34-0.48-3.51c0.4-1.17,1.16-2.19,1.79-3.25c0.01,0.56,1.2-0.87,2.63-2.04c2.35-1.95,5.22-3.15,8.05-4.32
				c0.74-0.3,1.71-0.56,2.23,0.04c0.32,0.36,0.33,0.89,0.32,1.36c-0.06,3.93-0.11,7.86-0.16,11.78 M1803.87,525.31
				c-0.95-1.46-2.48-2.42-3.78-3.6c-3.47-3.15-5.26-7.89-5.31-12.58c-0.02-2.3,0.33-4.71-0.57-6.83c-0.89-2.13-3.73-3.65-5.54-2.22
				c-0.25,1.46,0.42,2.89,0.71,4.33c0.29,1.44,0.01,3.27-1.35,3.84c-0.97,0.41-2.11-0.01-3.13,0.18c-2.08,0.39-3.11,2.98-5.15,3.53
				c-0.35,0.09-0.74,0.12-1.08-0.04c-1.1-0.53-0.56-2.15-0.48-3.38c0.11-1.74-1.36-3.43-3.09-3.58c-0.43,2.29-0.87,4.58-1.3,6.88
				c-0.12,0.58-0.23,1.18-0.57,1.67c-0.47,0.65-1.26,0.97-2,1.26c-2.73,1.05-5.44,2.12-8.15,3.17c0.02-1.22,0.04-2.48-0.48-3.58
				c-0.51-1.1-1.73-1.98-2.91-1.71c-1.53,0.36-2.08,2.26-2.08,3.84c0,1.57,0.22,3.31-0.76,4.55c-1.89,2.41-6.32,0.6-8.53,2.73
				c-1.19-1.58,0.39-4.76-1.5-5.4c-0.96-0.33-1.93,0.56-2.27,1.51c-0.34,0.96-0.32,2.01-0.67,2.96c-0.96,2.5-4.08,3.23-6.75,3.59
				c-2.27,0.32-4.55,0.63-6.83,0.94c0.65-2.21,3.46-2.77,5.74-3.04c2.29-0.27,5.11-1.17,5.36-3.46c-9.99,0.33-19.87,3.24-28.44,8.37
				c-0.91,0.54-2.09,1.1-2.94,0.47c-0.44-0.34-0.63-0.9-0.82-1.42c-0.85-2.26-2.43-4.23-4.44-5.54c-8.25,1.02-16.48,2.04-24.71,3.06
				c-1.78,0.21-3.91,0.71-4.44,2.42c6.46,2.51,13.32,3.94,20.25,4.2c2.14,0.08,4.34,0.07,6.35,0.81c2.01,0.74,3.84,2.43,3.33,3.46
				c-2.88,1.51-5.3,3.87-6.87,6.71c-1.31,2.36-2.13,5.15-4.3,6.74c-1.26,0.92-2.85,1.32-4.15,2.2c-1.91,1.26-3.06,3.56-2.97,5.84
				c0.05,1.06,0.36,2.15,1.11,2.92c1.02,1.04,2.6,1.27,4.05,1.45c4.7,0.57,9.42,1.13,14.12,1.71c2.71,0.33,5.6,0.63,8.05-0.6
				c2.43-1.23,3.96-4.62,2.3-6.78c1.12,0.12,1.91,1.13,2.68,1.96c0.77,0.83,1.99,1.58,2.98,1.02c1.38-0.8,0.62-2.91-0.3-4.22
				c-2.2-3.13-4.39-6.27-6.58-9.42c2.94,0.15,6.37,0.58,7.85,3.12c0.4,0.7,0.62,1.5,1.12,2.13c0.49,0.62,1.45,1.02,2.11,0.55
				c1.06-0.78,0.15-2.83,1.19-3.65c0.35-0.28,0.83-0.32,1.27-0.34c2-0.12,4.04-0.23,5.98,0.26c1.94,0.48,3.8,1.67,4.61,3.51
				c0.47,1.09,0.6,2.41,1.51,3.16c0.97,0.78,2.53,0.51,3.38-0.4c0.84-0.91,1.05-2.29,0.81-3.51c-0.09-0.4-0.21-0.84-0.04-1.2
				c0.14-0.29,0.44-0.47,0.75-0.57c1.27-0.41,2.61,0.23,3.92,0.5c1.31,0.28,3.06-0.15,3.23-1.47c0.09-0.85-0.57-1.63-1.36-1.95
				c-0.78-0.34-1.66-0.33-2.5-0.36c-1.95-0.07-3.89-0.36-5.78-0.88c-3.63-0.98-6.98-2.74-10.3-4.48c-0.9-0.47-1.8-0.95-2.54-1.64
				c-0.95-0.9-1.56-2.13-1.86-3.4c-0.43-1.79-0.22-3.86,1.04-5.18c1.61-1.7,4.34-1.66,6.58-0.99c5.81,1.72,10.08,6.57,14.01,11.2
				c3.11,3.66,6.22,7.32,9.32,10.98c0.57,0.67,1.39,1.39,2.19,1.05c0.34-0.14,0.57-0.44,0.74-0.77c0.98-2.07-0.75-4.35-2.36-5.98
				c-2.39-2.43-4.78-4.87-7.65-7.02c-1.02-2.05-3.05-3.39-4.48-5.19c-1.42-1.8-2.05-4.75-0.26-6.19c1.24-1.02,3.04-0.8,4.62-0.53
				c1.25,0.22,2.54,0.44,3.61,1.13c1.84,1.18,2.64,3.53,2.56,5.72c-0.08,2.19-0.92,4.27-1.74,6.3c2.98,1.52,7.11-1.6,6.44-4.89
				c3.12,0.07,5.57,2.67,7.36,5.23c1.8,2.56,3.54,5.44,6.42,6.64c1.66-1.04,1.88-3.5,1.01-5.24c-0.87-1.75-2.54-2.95-4.16-4.04
				c-3.09-2.07-6.3-4.08-8.74-6.89c-2.44-2.82-4.02-6.67-3.17-10.29c3.63-1.18,7.89-0.16,10.58,2.55c2.69,2.71,3.68,6.98,2.47,10.6
				c2.57,0.6,5.17-2.44,4.18-4.89c1.77-0.8,3.88-0.12,5.43,1.04c1.54,1.17,2.69,2.76,4.07,4.12c1.06,1.05,2.37,2,3.87,2.05
				c1.5,0.03,3.09-1.2,2.9-2.69c-2.98-2.01-5.95-4.02-8.92-6.02c-4-2.7-8.4-6.06-8.71-10.87c-0.05-0.8,0.05-1.67,0.61-2.25
				c0.7-0.74,1.87-0.71,2.89-0.6c2.07,0.25,4.16,0.67,5.93,1.77c1.77,1.09,3.17,2.95,3.25,5.03c0.06,1.37-0.46,2.69-0.57,4.06
				c-0.13,1.37,0.32,2.97,1.59,3.49c1.19,0.49,2.61-0.27,3.27-1.37c0.68-1.09,0.8-2.43,0.85-3.72c0.02-0.53,0.05-1.09,0.37-1.49
				c0.99-1.23,2.84,0.33,3.58,1.73c1.2,2.29,2.42,4.58,3.63,6.88C1804.98,528.99,1804.83,526.77,1803.87,525.31z M1692.62,528.58
				c-0.88-0.19-1.79-0.41-2.44-1.02c-0.66-0.62-0.9-1.75-0.27-2.4c0.82-0.83,2.19-0.2,3.36-0.09c1.25,0.11,2.44-0.47,3.7-0.61
				c0.99-0.13,2.01,0.04,3.01,0.2c1.47,0.23,2.95,0.47,4.42,0.7c0.32,0.05,0.64,0.11,0.87,0.33c0.25,0.22,0.32,0.58,0.39,0.92
				c0.2,1.19,0.41,2.39,0.62,3.57c0.13,0.74-0.09,1.06-0.25,1.39C1701.54,530.58,1697.07,529.58,1692.62,528.58z M1712.53,560.09
				c-0.98,1.2-2.61,1.72-4.16,1.86c-2.64,0.23-5.31-0.41-7.77-1.43c-0.42-0.18-0.84-0.37-1.16-0.7c-0.28-0.3-0.44-0.7-0.58-1.11
				c-1.05-3.12-0.57-6.67,0.95-9.6c1.51-2.92,4-5.29,6.82-7.02c2.29,3.38,3.79,6.51,5.3,9.65c0.63,1.33,1.27,2.69,1.52,4.14
				C1713.69,557.34,1713.47,558.94,1712.53,560.09z"/>
		</g>
	</g>
</g>
</svg>
