<svg width="2000" height="1040" viewBox="0 0 2000 1040" fill="none" xmlns="http://www.w3.org/2000/svg">
<rect width="2000" height="1040" fill="#9BAFBD"/>
<path d="M1073.51 932.63C975.216 912.426 943.725 915.018 883.352 900.235C880.744 899.605 878.103 898.923 875.375 898.207C863.218 895.052 851.011 891.847 838.701 888.591C747.86 864.568 653.864 838.345 564.149 814.459C492.489 795.363 421.001 775.517 350.211 753.37C321.772 744.487 293.315 735.161 263.819 730.881C229.668 725.903 196.626 727.335 162.8 720.583C142.766 716.559 118.47 711.581 93.7996 710.626C60.8426 709.382 31.9946 705.443 5.12434 709.876C3.67512 710.098 2.20886 710.37 0.759634 710.677C-1.76372 709.637 4.45938 472.511 7.22143 371.866C7.97162 344.723 8.46779 327.52 8.46779 327.52C52.7969 324.11 97.4142 324.605 141.641 329.004C184.47 333.283 228.611 341.058 269.803 328.594C283.102 324.571 295.668 318.552 308.182 312.551C340.355 297.087 372.512 281.657 404.685 266.227C432.288 252.843 460.487 237.771 488.704 222.716C500.639 216.322 512.624 209.963 525.105 204.763C543.501 197.073 562.872 192.061 582.172 187.031C625.614 175.727 669.243 164.406 713.845 159.206C736.913 156.529 760.748 155.319 782.589 148.09C785.521 147.135 788.404 146.061 791.269 144.833C792.087 144.492 792.888 144.151 793.707 143.793C794.815 143.299 795.906 142.77 796.997 142.225C803.681 138.9 810.107 134.808 816.552 130.563C820.797 127.784 825.025 124.953 829.356 122.26C838.546 116.531 848.095 111.433 858.734 108.841C862.366 107.955 866.115 107.358 870.036 107.154C870.872 107.085 871.724 107.068 872.577 107.034C896.174 116.804 904.581 148.09 896.806 172.42C889.049 196.767 869.544 215.334 850.005 231.804C834.814 244.574 818.497 257.054 799.265 261.999C782.761 266.21 764.944 264.607 749.088 270.864C734.749 276.525 722.847 288.306 710.332 296.831C708.167 298.28 706.02 299.644 703.804 300.872C702.986 301.332 702.167 301.758 701.349 302.168C721.212 302.526 741.09 302.918 760.953 303.327C876.566 305.646 991.754 308.595 1104.15 314.222C1182.64 314.955 1261.07 322.883 1338.12 337.938C1339.26 338.142 1340.39 338.364 1341.53 338.603C1348.84 340.052 1356.14 341.552 1363.42 343.121C1366.03 343.683 1368.55 344.348 1371.01 345.116C1382.46 348.713 1392.08 354.663 1398.75 364.348C1401.27 367.979 1403.38 372.173 1405 376.964C1407.87 385.489 1407.25 402.607 1400.86 414.081C1392.15 429.699 1374.79 438.769 1357.3 442.589C1339.84 446.425 1305.47 448.709 1303.97 448.641C1121.18 440.781 1048.55 440.611 921.168 449.664C915.968 450.022 903.778 452.733 899.123 455.052C893.207 458.001 891.468 462.69 891.4 468.231C891.332 472.92 892.493 478.188 893.396 483.593C897.147 484.07 900.881 484.565 904.632 485.025L904.698 485.025C946.504 490.396 988.532 495.204 1030.61 493.499C1050.75 492.663 1070.9 490.362 1091.02 491.402C1131 493.499 1161.04 504.888 1200.13 508.537C1244.38 512.68 1297.68 512.782 1340.83 523.455C1375.75 532.065 1400.57 533.412 1422.21 538.732C1429.62 540.522 1436.65 542.823 1443.6 546.029C1443.62 546.029 1443.62 546.029 1443.62 546.029C1449.83 548.893 1455.95 552.457 1462.19 557.094C1462.85 557.571 1463.47 558.066 1464.08 558.594C1471.6 565.022 1476.29 574.331 1478.11 584.356C1480.41 596.837 1478.25 610.391 1471.5 620.775C1458.9 640.16 1438.69 656.118 1415.63 654.737C1388.14 653.084 1368.21 653.936 1344.27 652.674C1319.72 651.362 1295.46 646.622 1271.01 639.734C1190.35 644.593 1109.19 641.029 1029.26 629.112C997.536 624.355 965.975 618.319 934.177 614.04C923.18 612.54 902.825 609.01 891.964 611.227C881.802 613.273 881.784 621.798 881.17 630.68L881.119 631.55C881.068 631.908 881.052 632.249 881.035 632.624C912.543 650.219 950.052 652.129 985.72 657.721C1063.65 669.912 1138.42 701.351 1217.53 705.648C1236.35 712.416 1256.61 713.712 1276.43 716.304C1281.5 716.969 1286.61 717.736 1291.66 718.708C1306.39 721.555 1320.76 726.09 1332.87 734.734C1334.25 735.74 1335.61 736.78 1336.94 737.889C1350.99 749.841 1360.06 768.629 1355.7 786.395C1349.85 810.179 1323.49 822.864 1299.23 826.172C1272.48 829.837 1245.35 826.172 1218.62 822.489C1178.02 816.897 1137.41 811.322 1096.81 805.729C1046.16 798.773 995.13 791.731 946.862 774.903C919.532 765.373 891.879 752.585 863.61 749.926L863.592 749.926C855.254 749.107 846.834 749.193 838.377 750.522C835.223 751 831.965 751.75 829.237 753.336C828.162 753.949 827.175 754.717 826.306 755.637C824.737 757.325 823.868 759.712 823.868 761.997C823.868 763.719 824.395 765.407 825.52 766.651C825.776 766.924 826.065 767.197 826.389 767.419C827.463 768.186 828.725 768.578 829.987 768.97C886.063 786.207 942.158 803.462 998.235 820.682C1025.85 829.19 1053.61 837.714 1082.25 841.329C1099.97 843.562 1118.48 844.074 1134.31 852.292C1134.94 852.616 1135.55 852.957 1136.15 853.315C1140.72 855.923 1144.59 859.112 1147.66 862.794C1154.42 870.893 1157.41 881.413 1155.84 893.569C1154.05 907.55 1144.19 922.605 1132.72 929.101C1122.12 935.102 1078.83 933.721 1073.51 932.63Z" fill="#FEE4DB"/>
<path d="M0.761966 710.694C-1.76138 709.654 4.46182 472.527 7.22387 371.883C7.97405 344.74 8.46846 327.537 8.46846 327.537C52.7976 324.127 97.4165 324.622 141.643 329.02C184.472 333.3 228.614 341.075 269.806 328.611C283.104 324.588 295.67 318.569 308.184 312.568C340.357 297.104 372.513 281.674 404.685 266.244C432.289 252.86 460.489 237.788 488.706 222.733C500.641 216.339 512.627 209.98 525.107 204.78C543.504 197.09 562.872 192.078 582.172 187.048C625.615 175.744 669.245 164.423 713.847 159.223C736.915 156.546 760.751 155.336 782.591 148.107C785.524 147.152 788.405 146.078 791.269 144.85C792.088 144.509 792.889 144.168 793.708 143.81C794.816 143.316 795.907 142.787 796.998 142.242C803.682 138.917 810.109 134.825 816.554 130.58L829.358 122.276C834.013 123.231 838.685 124.186 843.339 125.141C845.317 125.55 847.278 125.942 849.255 126.351C854.694 127.442 860.866 129.147 863.304 134.007C863.389 134.16 863.492 134.33 863.56 134.484C864.702 137.075 864.566 139.582 863.577 141.901C861.173 147.544 853.637 152.13 847.192 154.568C809.7 168.549 770.946 182.734 730.982 180.842C720.769 180.365 710.471 178.813 700.412 180.501C688 182.564 676.952 189.299 665.886 195.283C645.495 206.314 623.893 215.129 601.626 221.591C595.761 223.296 589.572 224.984 585.207 229.246C563.384 223.517 538.952 228.973 521.629 243.448C554.586 244.727 587.049 256.883 612.742 277.565C612.623 278.468 612.384 279.287 611.992 280.003C609.332 285.186 600.671 285.868 594.192 285.049C559.94 280.617 525.653 276.201 491.366 271.802C538.713 299.968 596.784 309.771 653.866 310.147C657.822 310.198 661.777 310.164 665.733 310.095C667.779 310.078 669.825 310.027 671.871 309.976C701.656 309.209 731.34 306.293 760.989 303.344C876.603 305.662 991.79 308.612 1104.18 314.238C1182.68 314.972 1261.11 322.9 1338.15 337.955C1336.57 339.302 1334.68 340.359 1332.68 341.245C1330.82 342.115 1328.85 342.814 1326.95 343.445C1310.4 349.037 1292.17 354.612 1275.94 348.167C1270.14 345.866 1264.53 342.029 1258.33 342.575C1248.22 343.479 1243 354.868 1239.86 364.535C1236.32 349.446 1220.24 338.415 1204.89 340.546C1203.19 349.668 1197.87 358.022 1190.35 363.444C1195.14 355.345 1189.53 344.331 1181.2 340C1172.86 335.687 1162.93 336.181 1153.56 336.778C1127.42 338.466 1101.25 340.137 1075.11 341.825C1042.77 330.708 1003.64 328.458 967.034 337.102C955.935 339.745 945.006 343.325 933.668 344.536C916.056 346.394 897.813 342.2 882.792 332.806C882.093 343.734 872.716 353.47 861.804 354.561C860.508 349.634 859.195 344.689 857.865 339.762C850.568 335.414 842.862 344.672 839.247 352.361C835.616 360.051 827.381 369.053 820.407 364.211C814.628 360.204 816.912 350.691 812.616 345.132C806.87 337.699 794.901 342.473 787.706 348.525C781.415 353.828 774.868 360.068 766.65 360.443C758.449 360.835 750.265 350.554 755.789 344.468C684.163 363.001 611.43 381.96 547.715 419.571C517.486 437.439 483.148 460.269 450.242 448.027C446.218 446.527 442.195 444.361 439.944 440.73C436.261 434.814 438.512 426.681 443.235 421.566C447.957 416.468 454.624 413.672 461.052 411.046C403.339 415.684 346.137 417.781 309.941 382.608C305.235 378.055 300.921 372.872 295.141 369.803C278.296 360.818 258.604 372.889 241.469 381.312C216.457 393.605 187.848 398.378 160.227 394.9C147.202 393.247 134.176 389.803 121.098 391.132C108.021 392.462 94.3646 400.135 91.2275 412.888C89.3009 420.714 91.6197 428.863 93.3246 436.757C102.872 481.069 93.0007 526.984 83.163 571.228C78.9517 590.119 74.7064 609.146 67.0681 626.929C53.3772 658.846 29.6783 685.034 5.21201 709.944C3.67754 710.114 2.22824 710.387 0.761966 710.694Z" fill="#E0AFA1"/>
<path d="M657.617 310.471C656.373 310.42 655.094 310.317 653.815 310.113C646.586 309.038 639.562 305.697 635.453 299.729C632.742 295.757 631.565 291.119 631.139 286.294C630.781 282.288 630.935 278.127 631.122 274.138C631.617 263.362 632.639 251.445 640.482 244.079C647.66 237.276 658.623 236.322 666.79 230.763C672.433 226.927 676.491 221.062 682.339 217.55C692.774 211.293 706.294 213.953 717.786 209.997C725.952 207.184 732.84 201.114 741.297 199.443C746.258 198.471 751.339 199.102 756.386 199.034C764.723 198.915 772.907 196.869 780.92 194.482C809.785 185.838 837.133 172.181 861.395 154.296C862.691 153.324 864.037 152.318 864.873 150.903C866.561 148.09 865.674 144.475 863.577 141.85C863.083 141.219 862.486 140.622 861.855 140.145C860.576 139.173 859.178 138.457 857.678 137.945C856.996 137.689 856.297 137.468 855.564 137.28C855.547 137.263 855.513 137.263 855.496 137.263C853.808 136.837 852.103 136.53 850.398 136.24C844.106 135.166 837.798 134.126 831.507 133.052C826.528 132.216 821.55 131.364 816.571 130.529L829.376 122.225C838.565 116.497 848.113 111.399 858.752 108.807C862.384 107.921 866.135 107.324 870.056 107.119C870.891 107.051 871.744 107.034 872.596 107C896.193 116.769 904.599 148.056 896.824 172.385C889.066 196.732 869.562 215.299 850.023 231.769C834.831 244.54 818.515 257.02 799.283 261.964C782.779 266.176 764.962 264.573 749.106 270.83C734.767 276.491 722.866 288.272 710.352 296.797C713.199 296.933 716.012 297.053 718.86 297.121C713.83 298.331 708.834 299.576 703.839 300.855C696.797 302.611 689.773 304.452 682.765 306.311C677.156 307.811 671.496 309.362 665.733 310.061C663.005 310.402 660.311 310.573 657.617 310.471Z" fill="#E0AFA1"/>
<path d="M1370.99 345.098C1382.45 348.696 1392.06 354.646 1398.73 364.33L1370.99 345.098Z" fill="#FEE4DB"/>
<path d="M57.9623 376.691C41.2536 374.935 23.6072 370.758 7.22251 371.866C7.9727 344.723 8.46711 327.52 8.46711 327.52C52.7962 324.11 97.4152 324.605 141.642 329.004C184.471 333.283 228.612 341.058 269.804 328.594C283.103 324.571 295.669 318.552 308.183 312.551C340.356 297.087 372.511 281.657 404.684 266.227C432.288 252.843 460.488 237.771 488.705 222.716C500.64 216.322 512.626 209.963 525.106 204.763C543.502 197.073 562.871 192.061 582.171 187.031C625.614 175.727 669.244 164.406 713.846 159.206C736.914 156.529 760.749 155.319 782.59 148.09C785.522 147.135 788.404 146.061 791.268 144.833C792.087 144.492 792.888 144.151 793.706 143.793C804.976 146.248 816.57 146.794 827.806 145.362C835.239 144.424 842.536 142.617 849.476 139.906L849.493 139.906C851.147 139.241 852.783 138.559 854.386 137.809C854.437 137.792 854.454 137.758 854.505 137.741C854.846 137.604 855.17 137.451 855.477 137.28C855.938 137.076 856.364 136.871 856.79 136.649C856.807 136.666 856.858 136.701 856.858 136.735C857.216 137.093 857.489 137.502 857.66 137.962C858.461 139.889 857.745 142.446 856.227 144.015C854.318 145.993 851.539 146.794 848.913 147.51C807.09 158.899 764.023 165.787 720.751 168.021C709.651 168.617 698.467 168.89 687.674 171.38C671.972 175.045 657.718 183.229 642.391 188.225C630.115 192.248 617.242 194.158 604.66 197.039C588.241 200.79 572.265 206.161 556.324 211.497C537.313 217.891 517.468 224.779 503.862 239.476C500.299 243.346 497.588 250.302 502.021 253.133C503.743 254.241 505.976 254.139 508.022 254.036C532.574 252.723 557.739 254.803 580.381 264.385C591.173 268.955 601.267 275.178 611.974 279.952C614.497 281.06 617.072 282.117 619.697 283.021C623.448 284.333 627.267 285.391 631.155 286.277C636.474 287.505 641.879 288.442 647.267 289.346C660.207 291.511 673.131 293.557 686.191 294.955C694.222 295.825 702.269 296.439 710.333 296.797C713.181 296.933 715.994 297.053 718.841 297.121C713.812 298.331 708.816 299.576 703.82 300.855C703.002 301.315 702.184 301.741 701.365 302.15C721.228 302.508 741.108 302.901 760.971 303.31C876.585 305.629 991.772 308.578 1104.16 314.205C1182.66 314.938 1261.09 322.866 1338.14 337.921C1339.28 338.125 1340.4 338.347 1341.55 338.586C1338.6 339.54 1335.63 340.41 1332.66 341.228C1330.69 341.774 1328.69 342.302 1326.68 342.797C1323.39 343.615 1319.94 344.348 1316.67 343.496C1313.81 342.763 1311.4 340.887 1308.61 339.932C1300.78 337.273 1292.32 342.268 1284.11 341.484C1275.15 340.615 1267.99 333.096 1259.06 331.885C1254.29 331.22 1249.49 332.482 1244.72 333.13C1215.67 337.085 1185.59 319.354 1157.68 328.305C1093.52 336.812 1026.66 310.027 962.771 324.571C947.972 327.929 933.053 333.522 918.049 331.322C908.416 329.907 899.448 325.321 889.832 323.701C881.7 322.354 873.379 323.156 865.161 323.923C756.453 334.306 643.396 340.103 541.337 301.264C528.379 296.336 515.405 290.642 501.577 289.482C451.196 290.761 401.803 310.607 356.451 334.715C342.129 342.302 327.671 350.52 311.644 352.924C298.277 354.919 284.621 352.771 271.117 353.811C258.177 354.817 245.679 358.738 232.994 361.449C219.218 364.365 205.169 365.865 191.171 367.331C169.058 369.65 146.927 371.986 124.814 374.305C102.547 376.674 80.178 379.01 57.9623 376.691Z" fill="#99685A"/>
<path d="M1295.92 560.862C1295.9 562.158 1295.63 563.471 1295.15 564.801C1295.27 563.42 1295.51 562.107 1295.92 560.862Z" fill="#E0AFA1"/>
<path d="M1273.38 541.118C1260.07 539.498 1243.65 545.977 1242.13 559.327C1242.88 547.614 1228.3 541.919 1216.74 539.805C1196.9 536.174 1176.52 532.525 1160.75 537.282C1142.9 530.24 1123.45 527.393 1104.33 529.047C1099.54 529.456 1094.72 530.155 1089.93 529.729C1085.03 529.303 1080.33 527.7 1075.52 526.745C1053.22 522.244 1030.24 531.161 1007.58 529.286C988.959 527.734 970.562 518.988 952.268 522.756C943.999 524.478 936.446 528.689 928.381 531.229C920.334 533.77 910.871 534.435 903.983 529.524C901.477 527.751 899.414 525.313 896.601 524.085C887.002 519.874 876.414 531.928 866.406 528.859C856.875 525.927 855.238 511.793 846.151 507.769C839.45 504.785 831.846 508.587 824.549 509.286C817.661 509.951 810.517 507.65 807.431 502.347C777.1 502.415 746.785 504.103 716.641 507.411C686.088 510.753 654.7 515.68 625.034 507.598C658.025 494.709 695.21 499.568 729.736 491.776C752.326 486.679 773.332 476.295 795.121 468.401C816.928 460.507 840.661 455.12 863.183 460.541C872.612 462.809 881.938 466.952 891.418 468.18C891.349 472.868 892.509 478.137 893.412 483.541C897.163 484.019 900.897 484.513 904.648 484.974L904.716 484.974C946.522 490.344 988.549 495.152 1030.63 493.447C1050.76 492.612 1070.92 490.31 1091.03 491.35C1131.02 493.447 1161.06 504.836 1200.15 508.485C1244.4 512.628 1297.69 512.73 1340.85 523.403C1375.76 532.014 1400.59 533.361 1422.22 538.68C1416.38 540.47 1410.89 543.266 1405.94 546.864C1394.95 554.843 1386.69 566.693 1383.64 579.957C1383.03 568.705 1378.78 557.707 1371.69 548.978C1362.87 557.145 1356.87 568.278 1354.9 580.128C1350.05 566.556 1341.75 552.934 1328.32 547.733C1316.12 543.045 1299.79 548.978 1295.97 560.81C1296.31 550.87 1284.24 542.414 1273.38 541.118Z" fill="#E0AFA1"/>
<path d="M1405.91 546.915C1388.77 546.08 1370.53 543.966 1352.42 541.851C1315.34 537.538 1278.24 533.19 1241.17 528.877C1204.29 524.58 1167.4 520.284 1130.88 513.719C1115.26 510.906 1099.49 507.667 1083.63 508.741C1073.01 509.474 1062.63 512.1 1052.04 513.259C1037.67 514.828 1023.18 513.651 1008.79 512.373C937.246 506.115 865.859 498.034 794.728 488.077C817.233 490.055 838.221 464.975 860.266 471.487C868.433 473.874 874.793 480.285 882.687 483.439C889.728 486.287 897.145 486.321 904.63 485.025L904.698 485.025C946.504 490.395 988.531 495.204 1030.61 493.499C1050.75 492.663 1070.9 490.361 1091.02 491.401C1131 493.499 1161.04 504.888 1200.13 508.536C1244.38 512.679 1297.68 512.782 1340.83 523.455C1375.75 532.065 1400.57 533.412 1422.21 538.731C1429.62 540.521 1436.65 542.823 1443.6 546.029C1432.08 547.512 1419.32 547.597 1405.91 546.915Z" fill="#99685A"/>
<path d="M881.119 630.697C862.091 627.082 843.048 623.587 823.97 620.212C815.786 618.762 807.26 617.364 799.229 619.649C797.064 620.263 794.986 621.217 793.076 622.462C787.876 625.804 784.057 631.243 784.329 637.312C795.309 639.631 806.511 642.035 817.389 645.223C834.933 650.389 851.623 657.567 865.177 669.638C867.632 671.838 870.106 674.259 873.312 675.026C875.511 675.555 877.813 675.214 880.063 674.958C893.106 673.441 906.301 674.327 919.361 675.521C983.28 681.369 1046.53 694.667 1107.4 715.008C1118.81 718.827 1132.52 726.584 1130.71 738.485C1144.67 730.591 1163.46 732.364 1175.72 742.73C1177.82 732.108 1187.91 723.771 1198.62 723.174C1199.83 723.106 1201.02 723.123 1202.23 723.26C1205.25 723.584 1208.15 724.555 1210.78 726.005C1218.57 730.318 1224.13 738.962 1223.94 747.965C1241.04 740.94 1259.14 736.388 1277.56 734.444C1285.83 733.558 1294.18 733.2 1302.5 733.37C1302.36 725.613 1297.71 721.35 1291.61 718.69C1286.56 717.719 1281.44 716.934 1276.38 716.286C1256.55 713.695 1236.3 712.399 1217.47 705.63C1138.36 701.334 1063.6 669.894 985.669 657.704C950.001 652.111 912.492 650.202 880.984 632.607C881.001 632.249 881.033 631.908 881.068 631.533L881.119 630.697Z" fill="#E0AFA1"/>
<path d="M1336.89 737.905C1320.59 736.951 1304.29 736.013 1287.99 735.092C1284.51 734.888 1281.03 734.683 1277.56 734.478C1255.1 733.097 1232.63 731.256 1210.77 726.039C1209.89 725.834 1208.98 725.63 1208.1 725.408C1204.96 724.607 1201.81 723.754 1198.62 723.209C1195.41 722.595 1192.16 722.305 1188.93 722.68C1182.59 723.43 1176.78 726.687 1170.43 727.403C1159.74 728.579 1149.79 722.544 1140.31 717.463C1106.07 699.203 1067.27 691.752 1029.13 684.523C1006.06 680.141 982.973 675.776 960.16 670.269C935.251 664.268 908.466 657.022 884.733 666.655C885.432 657.84 875.27 652.623 866.865 649.861C851.861 644.951 836.857 640.023 821.854 635.079C816.943 633.493 812.05 631.874 807.14 630.254C810.618 630.544 814.113 630.868 817.591 631.157L817.608 631.157C838.801 632.914 860.096 634.107 881.084 631.55C881.033 631.908 881.016 632.249 880.999 632.624C912.507 650.219 950.016 652.129 985.684 657.721C1063.62 669.911 1138.38 701.351 1217.49 705.647C1236.31 712.416 1256.57 713.712 1276.4 716.303C1281.46 716.968 1286.58 717.736 1291.62 718.708C1306.35 721.555 1320.73 726.09 1332.83 734.734C1334.21 735.74 1335.58 736.78 1336.89 737.905Z" fill="#99685A"/>
<path d="M829.204 753.353C799.35 745.578 769.513 737.786 739.659 729.978C770.877 731.001 802.283 732.075 832.767 738.758C843.492 741.094 854.25 744.265 863.542 749.943C855.205 749.124 846.782 749.21 838.326 750.539C835.171 751.017 831.932 751.767 829.204 753.353Z" fill="#E0AFA1"/>
<path d="M1122.63 925.264C1111.37 924.838 1100.17 923.337 1089.23 920.746C1082.07 919.058 1074.22 916.296 1071.07 909.647C1068.43 904.14 1069.84 897.661 1071.33 891.727C1071.92 889.357 1072.5 887.022 1073.08 884.652C1073.71 882.111 1074.39 879.469 1075.47 877.082C1076.29 875.291 1077.31 873.655 1078.74 872.257C1081.59 869.512 1085.54 868.25 1089.4 867.329C1104.13 863.732 1119.61 863.169 1134.56 865.624C1135.24 871.08 1135.6 876.655 1135.6 882.265C1135.6 894.762 1133.85 907.481 1130.21 919.638C1129.69 921.462 1128.99 923.389 1127.42 924.429C1126.04 925.332 1124.26 925.315 1122.63 925.264Z" fill="#F2CEC4"/>
<path d="M1059.03 853.195C1055.95 851.831 1052.96 850.246 1049.74 849.308C1039.24 846.239 1027.9 850.348 1017.09 848.626C1005.86 846.836 996.138 838.822 984.782 838.14C978.764 837.748 972.762 839.487 966.761 838.908C952.286 837.544 942.192 823.648 928.433 818.994C915.834 814.748 901.836 818.704 888.895 815.635C875.051 812.361 863.798 801.33 849.749 799.011C839.502 797.324 829.017 800.512 818.634 799.966C809.699 799.506 801.124 796.301 792.786 793.061C771.014 784.553 749.463 775.449 728.185 765.765C743.53 755.484 761.688 746.942 779.897 750.011C791.712 752.006 802.794 758.757 813.945 763.224C817.764 764.725 821.6 765.969 825.488 766.685C825.743 766.958 826.033 767.231 826.357 767.453C827.431 768.22 828.693 768.612 829.955 769.004C886.031 786.241 942.124 803.495 998.201 820.716C1025.82 829.223 1053.58 837.748 1082.22 841.363C1099.94 843.596 1118.45 844.108 1134.27 852.326C1134.9 852.65 1135.52 852.991 1136.12 853.349C1130.34 854.764 1124.52 856.06 1118.66 857.1C1098.26 860.748 1077.67 861.43 1059.03 853.195Z" fill="#E0AFA1"/>
<path d="M811.268 621.576C792.428 621.917 773.435 623.792 755.499 629.606C737.58 635.437 720.683 645.445 708.766 660.04C751.748 645.906 797.918 641.558 842.793 647.423C828.505 641.115 815.309 632.3 811.268 621.576Z" fill="#E0AFA1"/>
<path d="M1147.62 862.811C1137.85 861.533 1128.17 859.623 1118.66 857.083C1113.8 855.804 1108.99 854.372 1104.25 852.769C1098.67 850.877 1093.12 848.762 1087.29 848.012C1080.93 847.194 1074.4 848.063 1068.27 850.007C1066.72 850.501 1065.14 851.081 1063.52 850.945C1061.86 850.791 1060.38 849.871 1058.95 849.035C1046.74 842.011 1032.47 838.618 1018.39 839.402C1014.96 839.607 1011.43 840.033 1008.07 839.266C1004.73 838.516 1001.78 836.623 998.746 835.02C989.045 829.854 977.929 827.365 966.42 828.678C956.787 814.783 938.476 810.52 921.869 807.332C904.632 804.007 887.378 800.717 870.124 797.392C867.788 796.931 865.35 796.437 863.508 794.937C862.4 794.033 861.582 792.823 860.593 791.783C857.183 788.083 852.153 786.514 847.431 784.809C834.251 780.086 821.788 773.352 810.586 764.946C811.66 764.213 812.769 763.668 813.928 763.241C816.997 762.065 820.39 761.809 823.817 762.031C823.817 763.753 824.345 765.441 825.471 766.685C825.726 766.958 826.016 767.231 826.34 767.453C827.414 768.22 828.676 768.612 829.938 769.004C886.014 786.241 942.107 803.496 998.184 820.716C1025.8 829.224 1053.56 837.748 1082.2 841.363C1099.92 843.596 1118.43 844.108 1134.26 852.326C1134.89 852.65 1135.5 852.991 1136.1 853.349C1140.68 855.957 1144.56 859.129 1147.62 862.811Z" fill="#99685A"/>
<path d="M883.352 900.235C880.743 899.605 878.102 898.923 875.374 898.206C863.218 895.052 851.01 891.847 838.701 888.59C840.764 883.527 842.844 878.446 844.89 873.399C845.554 871.814 846.236 870.143 847.532 869.034C850.891 866.119 856.055 868.165 860.488 867.722C866.336 867.125 870.582 862.215 874.759 858.106C878.936 853.997 884.903 850.195 890.325 852.428C888.279 862.47 883.984 871.984 882.62 882.146C881.802 888.164 882.073 894.302 883.352 900.235Z" fill="#E1AFA1"/>
<path d="M1371.79 427.806C1358.27 427.141 1344.8 425.232 1331.64 422.095C1330.48 421.822 1329.25 421.498 1328.42 420.663C1327.67 419.929 1327.31 418.906 1326.97 417.918C1321.19 400.05 1321.58 380.255 1328.08 362.66C1328.44 361.705 1328.81 360.733 1329.25 359.795C1329.94 358.346 1330.77 356.948 1331.9 355.789C1335.72 351.85 1341.78 351.441 1347.26 351.407C1359.47 351.339 1371.69 351.97 1383.83 353.299C1388.07 357.579 1390.72 362.353 1392.27 367.348C1393.96 372.719 1394.37 378.345 1394.16 383.869C1393.77 394.525 1391.18 404.994 1388.59 415.326C1387.68 419.026 1386.59 422.981 1383.62 425.368C1380.42 427.96 1375.9 428.011 1371.79 427.806Z" fill="#F2CEC4"/>
<path d="M1436.8 634.398C1431.14 633.648 1425.48 632.897 1419.82 632.147C1409.81 630.834 1398.54 628.737 1393.09 620.263C1388.6 613.307 1389.59 604.288 1390.97 596.138C1391.98 590.205 1393.15 584.135 1396.21 578.952C1397.45 576.838 1398.98 574.911 1400.59 573.07C1401.53 572.03 1402.48 571.007 1403.43 570.001C1405.67 567.631 1407.95 565.176 1410.92 563.812C1413.6 562.585 1416.63 562.312 1419.58 562.158C1433.41 561.34 1455.59 558.118 1456.42 560.743C1457.98 565.653 1460.77 576.446 1461.34 582.959C1461.42 583.862 1461.47 584.715 1461.45 585.414C1461.34 589.966 1462.19 597.298 1461.32 601.782C1459.82 609.573 1459.46 615.098 1457.96 622.906C1457.35 626.095 1453.78 629.47 1451.53 631.789C1447.9 635.489 1441.93 635.08 1436.8 634.398Z" fill="#F2CEC4"/>
<path d="M1134.68 882.163C1121.2 879.418 1107.4 878.224 1093.64 878.616C1087.52 878.77 1081.08 879.162 1075.45 877.099C1076.27 875.309 1077.29 873.672 1078.73 872.274C1081.57 869.529 1085.53 868.267 1089.38 867.346C1104.11 863.749 1119.59 863.186 1134.55 865.641C1135.23 871.097 1135.59 876.672 1135.59 882.282C1135.3 882.282 1134.97 882.231 1134.68 882.163Z" fill="#E0AFA1"/>
<path d="M1282.47 806.138C1279.04 804.979 1275.58 803.598 1272.9 801.177C1266.13 795.107 1266.1 784.673 1266.83 775.602C1267.12 771.988 1267.45 768.305 1268.66 764.895C1270.57 759.524 1274.54 755.091 1279.36 752.005C1280.64 751.187 1281.97 750.454 1283.34 749.823C1289.88 746.822 1297.2 745.868 1304.39 745.816C1315.03 745.731 1325.67 747.47 1335.71 750.983C1337.76 755.978 1339.11 761.195 1339.86 766.481C1341.34 777.375 1340.2 788.713 1337.04 799.438C1335.73 803.854 1333.75 808.525 1329.66 810.622C1327.43 811.765 1324.84 811.935 1322.35 812.037C1308.81 812.515 1295.24 810.486 1282.47 806.138Z" fill="#F2CEC4"/>
<path d="M1329.25 359.778C1329.94 358.329 1330.77 356.931 1331.9 355.771C1335.71 351.833 1341.78 351.424 1347.26 351.39C1359.47 351.322 1371.69 351.952 1383.83 353.282C1388.07 357.562 1390.72 362.336 1392.27 367.331C1371.86 361.449 1350.48 358.892 1329.25 359.778Z" fill="#E0AFA1"/>
<path d="M1461.34 582.959C1442.84 576.821 1423.37 573.547 1403.9 573.326C1402.81 573.309 1401.66 573.309 1400.61 573.07C1401.54 572.03 1402.5 571.007 1403.45 570.001C1405.69 567.631 1407.97 565.176 1410.94 563.812C1413.62 562.585 1416.65 562.312 1419.6 562.158C1433.43 561.34 1455.61 558.118 1456.44 560.743C1457.96 565.653 1460.76 576.446 1461.34 582.959Z" fill="#E0AFA1"/>
<path d="M1339.84 766.498C1339.79 766.498 1339.77 766.481 1339.72 766.447C1322.52 756.097 1300.58 755.808 1280.3 752.261C1279.98 752.21 1279.64 752.142 1279.35 752.005C1280.63 751.187 1281.96 750.454 1283.32 749.823C1289.87 746.822 1297.18 745.868 1304.38 745.816C1315.02 745.731 1325.66 747.47 1335.7 750.983C1337.76 755.995 1339.09 761.195 1339.84 766.498Z" fill="#E0AFA1"/>
<path d="M1091.5 357.186C1091.68 380.408 1092.13 427.874 1092.13 427.874C1087.37 404.669 1091.5 357.186 1091.5 357.186Z" fill="#E0AFA1"/>
<path d="M1106.11 356.488C1107.2 375.055 1106.84 413.314 1106.84 413.314C1102.93 394.781 1106.11 356.488 1106.11 356.488Z" fill="#E0AFA1"/>
<path d="M1245.88 405.642C1245.88 395.412 1253.43 375.379 1253.43 375.379C1252.63 391.661 1246.17 424.721 1246.17 424.721C1245.97 418.378 1245.88 412.019 1245.88 405.642Z" fill="#E0AFA1"/>
<path d="M1093.88 613C1095.3 592.711 1107.15 553.087 1107.15 553.087C1104.26 573.053 1093.88 613 1093.88 613Z" fill="#E0AFA1"/>
<path d="M1114.19 619.035C1122.22 592.54 1130.42 537.06 1130.42 537.06C1132.24 565.499 1114.19 619.035 1114.19 619.035Z" fill="#E0AFA1"/>
<path d="M1292.67 568.466C1292.67 568.466 1292.73 597.28 1291.44 610.988C1291.44 610.988 1288.69 582.106 1292.67 568.466Z" fill="#E0AFA1"/>
<path d="M1032.18 763.958C1034.57 753.592 1045.7 724.931 1045.7 724.931C1039.15 743.822 1029.67 789.379 1029.67 789.379C1028.04 781.4 1030.76 770.164 1032.18 763.958Z" fill="#E0AFA1"/>
<path d="M1055.4 725.834C1055.4 725.834 1052.81 766.02 1049.4 785.372C1049.42 785.372 1050.41 745.015 1055.4 725.834Z" fill="#E0AFA1"/>
<path d="M1193.23 781.689C1193.16 773.488 1197.08 756.166 1197.08 756.166L1194.83 794.783C1194.85 794.783 1193.26 785.184 1193.23 781.689Z" fill="#E0AFA1"/>
<path d="M1014.24 867.057C1014.24 867.057 1016.09 892.12 1014.47 903.952C1014.47 903.952 1011.57 878.889 1014.24 867.057Z" fill="#E0AFA1"/>
<path d="M918.118 897.251C919.414 879.486 933.156 846.051 933.156 846.051C928.962 862.965 918.118 897.251 918.118 897.251Z" fill="#E0AFA1"/>
<path d="M367.5 688.973C353.537 672.776 339.095 655.829 331.645 638.984C323.478 620.502 324.893 604.884 326.462 590.17C329.769 559.379 336.674 529.951 361.073 518.17C393.33 502.603 427.583 489.373 463.66 478.512C477.078 474.489 490.837 470.772 503.863 467.396C515.491 464.48 523.488 457.115 533.462 452.136C543.419 447.141 556.632 444.72 572.727 451.506C588.839 458.325 607.236 477.251 607.27 490.242C607.27 493.908 605.889 496.772 605.428 500.165C604.098 510.02 610.611 523.745 619.187 536.345C627.763 548.944 638.436 561.05 647.694 573.513C662.834 593.887 674.53 617.348 669.757 631.72C669.399 632.795 668.955 633.783 668.444 634.721C661.01 648.242 638.505 648.429 631.565 662.614C628.479 668.906 628.718 677.533 626.007 684.08C625.018 686.45 623.688 688.513 622.052 690.303C611.907 701.658 590.987 702.937 579.717 713.695C572.079 720.992 569.061 732.518 560.468 738.878C537.434 755.876 484.717 730.949 453.158 737.786C447.719 738.963 442.877 741.077 436.466 740.736C425.503 740.139 411.454 732.194 399.554 722.254C387.704 712.331 377.491 700.55 367.5 688.973Z" fill="url(#paint0_radial_101_1094)"/>
<path d="M355.616 695.52C340.646 678.164 325.165 659.989 317.186 641.916C308.423 622.105 309.957 605.362 311.628 589.574C315.174 556.549 322.591 525.007 348.745 512.373C383.322 495.681 420.047 481.479 458.733 469.834C473.122 465.504 487.87 461.531 501.851 457.916C514.314 454.796 522.89 446.885 533.598 441.549C544.271 436.195 558.439 433.587 575.693 440.867C592.964 448.181 612.691 468.453 612.725 482.383C612.725 486.321 611.242 489.39 610.747 493.022C609.332 503.592 616.305 518.306 625.495 531.81C634.685 545.313 646.125 558.288 656.065 571.655C672.297 593.495 684.828 618.661 679.696 634.056C679.321 635.199 678.826 636.273 678.281 637.279C670.319 651.771 646.176 651.993 638.726 667.184C635.418 673.936 635.674 683.194 632.758 690.201C631.701 692.741 630.269 694.958 628.53 696.867C617.652 709.041 595.215 710.422 583.144 721.947C574.96 729.773 571.704 742.134 562.497 748.937C537.792 767.163 481.289 740.446 447.446 747.778C441.615 749.039 436.414 751.307 429.56 750.949C417.813 750.318 402.741 741.793 389.971 731.137C377.269 720.566 366.323 707.933 355.616 695.52Z" fill="url(#paint1_radial_101_1094)"/>
<path d="M373.194 684.182C360.612 669.451 347.603 654.038 341.056 638.591C333.861 621.644 335.446 607.186 337.151 593.529C340.749 564.988 347.654 537.657 370.364 526.319C400.371 511.333 432.203 498.477 465.655 487.787C478.101 483.814 490.854 480.132 502.925 476.773C513.701 473.857 521.202 466.918 530.494 462.127C539.769 457.336 551.994 454.847 566.708 460.832C581.439 466.85 598.062 484.019 597.858 496.022C597.789 499.415 596.46 502.092 595.965 505.229C594.567 514.367 600.313 526.95 608.002 538.442C615.675 549.933 625.308 560.93 633.611 572.302C647.199 590.869 657.565 612.369 652.894 625.736C652.553 626.725 652.11 627.662 651.632 628.532C644.54 641.166 623.773 641.762 617.124 654.993C614.174 660.858 614.225 668.854 611.6 674.958C610.645 677.175 609.383 679.101 607.849 680.789C598.284 691.462 578.967 693.031 568.396 703.192C561.218 710.08 558.234 720.788 550.187 726.823C528.636 742.952 480.505 720.873 451.265 727.761C446.235 728.954 441.717 731 435.835 730.796C425.741 730.455 412.92 723.345 402.128 714.377C391.386 705.409 382.196 694.702 373.194 684.182Z" fill="url(#paint2_radial_101_1094)"/>
<path d="M383.902 679.885C372.462 666.433 360.646 652.333 354.747 638.165C348.285 622.615 349.871 609.266 351.576 596.666C355.156 570.324 361.771 545.056 382.777 534.4C410.533 520.3 439.944 508.161 470.838 497.982C482.33 494.197 494.111 490.702 505.244 487.48C515.184 484.701 522.158 478.222 530.751 473.721C539.327 469.203 550.596 466.799 564.083 472.186C577.569 477.591 592.709 493.26 592.419 504.342C592.334 507.462 591.089 509.951 590.595 512.85C589.231 521.289 594.397 532.832 601.353 543.352C608.309 553.871 617.056 563.931 624.609 574.314C636.936 591.295 646.279 611.022 641.846 623.383C641.522 624.303 641.113 625.156 640.653 625.974C634.003 637.687 614.891 638.42 608.651 650.696C605.871 656.135 605.854 663.501 603.382 669.144C602.479 671.19 601.302 672.98 599.87 674.549C590.97 684.489 573.187 686.108 563.35 695.571C556.683 701.999 553.819 711.887 546.368 717.531C526.386 732.603 482.278 712.689 455.323 719.321C450.668 720.463 446.508 722.39 441.086 722.254C431.794 722.032 420.064 715.604 410.227 707.437C400.44 699.288 392.086 689.501 383.902 679.885Z" fill="url(#paint3_radial_101_1094)"/>
<path d="M420.522 571.705C433.718 568.841 446.915 565.994 460.128 563.13C463.538 562.396 467.085 561.646 471.381 562.669C477.144 564.033 483.299 568.278 489.249 571.893C498.78 577.656 508.788 582.293 517.534 589.88C537.807 607.493 541.626 633.033 532.845 645.752C524.065 658.471 506.708 662.717 492.949 670.576C482.702 676.424 474.314 684.404 463.146 689.178C451.979 693.952 437.162 695.23 420.539 687.831C413.02 684.489 405.194 679.272 399.176 672.588C388.963 661.233 385.962 648.224 385.349 637.364C384.803 627.373 385.672 618.012 387.94 609.573C389.44 603.946 391.759 598.542 397.147 596.462C400.165 595.302 404.018 595.234 406.712 593.682C414.742 589.062 411.025 573.768 420.522 571.705Z" fill="url(#paint4_radial_101_1094)"/>
<path d="M580.74 523.523C579.24 518.425 577.552 513.003 573.443 508.008C569.334 503.012 561.986 499.023 558.951 501.325C556.069 503.507 558.303 509.986 554.978 511.674C552.574 512.884 548.209 511.009 544.527 508.554C540.861 506.098 537.366 503.012 533.615 500.983C529.864 498.955 525.533 498.375 524.698 501.001C523.897 503.473 526.454 507.394 528.824 510.736C532.677 516.158 537.536 522.381 543.214 524.461C546.095 525.518 548.585 525.228 551.415 526.029C560.911 528.74 571.465 542.619 579.7 542.278C583.741 542.107 584.951 538.084 583.792 533.668C582.616 529.235 579.581 524.512 580.74 523.523Z" fill="url(#paint5_radial_101_1094)"/>
<path d="M396.942 560.146C403.524 567.853 405.587 577.298 401.631 581.629C399.807 583.623 396.925 584.578 393.856 585.141C392.663 585.363 391.401 585.516 389.901 585.056C387.088 584.169 384.174 581.185 382.827 578.423C381.48 575.661 381.427 573.121 381.734 570.904C382.587 564.937 386.015 560.487 391.335 558.424C392.545 557.947 394.965 557.81 396.942 560.146Z" fill="url(#paint6_radial_101_1094)"/>
<path d="M516.906 678.437C518.696 677.397 521.731 678.181 524.254 678.198C535.49 678.318 534.552 664.422 539.77 657.142C544.867 650.015 556.223 649.35 567.492 650.015C573.289 650.356 579.683 650.834 582.343 647.185C584.065 644.798 583.894 641.047 583.672 637.415C583.331 631.465 582.973 625.498 582.615 619.513C582.377 615.762 582.479 611.551 585.957 610.988C588.873 610.528 592.965 612.847 596.681 614.671C607.815 620.178 618.931 621.883 626.893 619.326C631.787 620.911 636.424 623.213 640.687 625.992C634.037 637.705 614.924 638.438 608.684 650.714C605.905 656.153 605.888 663.518 603.416 669.162C602.512 671.208 601.336 672.998 599.904 674.567C598.54 674.243 597.176 673.987 595.846 673.799C586.776 672.555 579.649 675.061 572.829 677.618C569.266 678.965 565.668 680.329 562.838 682.529C559.462 685.171 557.28 688.974 553.989 691.702C549.71 695.282 543.538 696.936 536.377 696.492C531.807 696.203 526.386 694.839 521.612 690.985C516.821 687.115 513.803 680.295 516.906 678.437Z" fill="url(#paint7_linear_101_1094)"/>
<path d="M519.069 541.289C522.803 545.654 527.287 549.558 531.004 553.923C534.72 558.305 537.721 563.641 536.852 567.153C535.999 570.632 531.703 571.245 527.457 570.99C518.711 570.461 508.907 567.341 499.189 563.914C490.272 560.76 479.684 556.071 473.734 547.546C470 542.21 469.233 536.788 469.488 532.219C469.744 527.718 470.903 523.557 473.938 521.153C478.047 517.897 485.208 518.187 492.591 520.472C495.455 521.358 498.746 522.79 500.979 525.45C503.69 528.655 504.253 532.969 507.731 535.219C511.209 537.47 514.005 535.117 517.534 537.18C518.029 538.34 518.54 539.482 519.069 541.289Z" fill="url(#paint8_radial_101_1094)"/>
<path d="M478.511 605.276C484.29 618.967 486.967 632.282 486.268 643.808C486.029 647.781 485.33 651.668 482.858 654.004C481.102 655.675 478.545 656.476 476.021 657.277C470.889 658.88 465.774 660.483 460.642 662.085C454.266 664.08 447.702 666.092 439.586 665.154C434.897 664.609 428.862 662.443 425.009 657.755C422.008 654.106 421.377 650.185 420.934 646.672C419.86 638.131 418.803 629.333 421.718 623.042C423.883 618.37 428.112 615.403 430.771 611.141C434.812 604.628 435.443 594.927 443.047 592.028C451.862 588.652 466.849 595.984 478.511 605.276Z" fill="url(#paint9_radial_101_1094)"/>
<defs>
<radialGradient id="paint0_radial_101_1094" cx="0" cy="0" r="1" gradientUnits="userSpaceOnUse" gradientTransform="translate(498.159 594.607) rotate(125.036) scale(177.891 201.798)">
<stop stop-color="#C27059"/>
<stop offset="0.138" stop-color="#C67761"/>
<stop offset="0.3477" stop-color="#CF8A76"/>
<stop offset="0.6028" stop-color="#DFA898"/>
<stop offset="0.8913" stop-color="#F5D2C7"/>
<stop offset="1" stop-color="#FEE4DB"/>
</radialGradient>
<radialGradient id="paint1_radial_101_1094" cx="0" cy="0" r="1" gradientUnits="userSpaceOnUse" gradientTransform="translate(495.365 594.515) rotate(125.038) scale(198.64 186.24)">
<stop stop-color="#DD9583"/>
<stop offset="0.3428" stop-color="#DE9785"/>
<stop offset="0.5308" stop-color="#E19E8D"/>
<stop offset="0.6812" stop-color="#E6AB9B"/>
<stop offset="0.8118" stop-color="#EDBCAF"/>
<stop offset="0.9284" stop-color="#F7D2C7"/>
<stop offset="1" stop-color="#FEE4DB"/>
</radialGradient>
<radialGradient id="paint2_radial_101_1094" cx="0" cy="0" r="1" gradientUnits="userSpaceOnUse" gradientTransform="translate(495.413 594.557) rotate(125.036) scale(161.112 177.143)">
<stop stop-color="#C2553C"/>
<stop offset="0.2311" stop-color="#C8644D"/>
<stop offset="0.6853" stop-color="#D98B78"/>
<stop offset="1" stop-color="#E6A99A"/>
</radialGradient>
<radialGradient id="paint3_radial_101_1094" cx="0" cy="0" r="1" gradientUnits="userSpaceOnUse" gradientTransform="translate(501.522 605.779) rotate(125.036) scale(158.817 155.941)">
<stop stop-color="#C44129"/>
<stop offset="0.2921" stop-color="#C5432C"/>
<stop offset="0.4736" stop-color="#C84B34"/>
<stop offset="0.6249" stop-color="#CE5943"/>
<stop offset="0.7596" stop-color="#D66D57"/>
<stop offset="0.8821" stop-color="#E08572"/>
<stop offset="0.9963" stop-color="#EDA492"/>
<stop offset="1" stop-color="#EDA593"/>
</radialGradient>
<radialGradient id="paint4_radial_101_1094" cx="0" cy="0" r="1" gradientUnits="userSpaceOnUse" gradientTransform="translate(457.825 630.189) rotate(123.813) scale(70.3803 109.012)">
<stop stop-color="#D38A65"/>
<stop offset="1" stop-color="#C45B4B"/>
</radialGradient>
<radialGradient id="paint5_radial_101_1094" cx="0" cy="0" r="1" gradientUnits="userSpaceOnUse" gradientTransform="translate(554.496 520.749) rotate(90) scale(35.7516 20.3283)">
<stop stop-color="#B34527"/>
<stop offset="1" stop-color="#CE7A58"/>
</radialGradient>
<radialGradient id="paint6_radial_101_1094" cx="0" cy="0" r="1" gradientUnits="userSpaceOnUse" gradientTransform="translate(392.748 571.745) rotate(90) scale(14.9935 12.2106)">
<stop stop-color="#C76450"/>
<stop offset="1" stop-color="#C4422A"/>
</radialGradient>
<linearGradient id="paint7_linear_101_1094" x1="629.666" y1="617.012" x2="531.412" y2="709.321" gradientUnits="userSpaceOnUse">
<stop stop-color="#D16C4F"/>
<stop offset="1" stop-color="#BD4E35"/>
</linearGradient>
<radialGradient id="paint8_radial_101_1094" cx="0" cy="0" r="1" gradientUnits="userSpaceOnUse" gradientTransform="translate(503.015 544.895) rotate(90) scale(39.1824 27.651)">
<stop stop-color="#C36E59"/>
<stop offset="0.2865" stop-color="#C26952"/>
<stop offset="0.6943" stop-color="#BE5C40"/>
<stop offset="1" stop-color="#BA4E2D"/>
</radialGradient>
<radialGradient id="paint9_radial_101_1094" cx="0" cy="0" r="1" gradientUnits="userSpaceOnUse" gradientTransform="translate(455.098 633.653) rotate(123.813) scale(37.7918 56.8178)">
<stop stop-color="#D49E7F"/>
<stop offset="0.2315" stop-color="#D09477"/>
<stop offset="0.6175" stop-color="#C57B61"/>
<stop offset="1" stop-color="#B85B46"/>
</radialGradient>
</defs>
</svg>
