<?xml version="1.0" encoding="utf-8"?>
<!-- Generator: Adobe Illustrator 27.0.0, SVG Export Plug-In . SVG Version: 6.00 Build 0)  -->
<svg version="1.1" id="Слой_1" xmlns="http://www.w3.org/2000/svg" xmlns:xlink="http://www.w3.org/1999/xlink" x="0px" y="0px"
	 viewBox="0 0 1500 1453.12" style="enable-background:new 0 0 1500 1453.12;" xml:space="preserve">
<style type="text/css">
	.st0{fill:#9BAFBD;}
	.st1{fill:#728694;}
	.st2{fill:#FDD5C8;}
	.st3{fill:#FEE4DB;}
	.st4{fill:#E0AFA1;}
	.st5{fill:#99685A;}
	.st6{fill:#AECCD1;}
	.st7{fill:#7A9CA1;}
	.st8{fill:#495B5E;}
	.st9{fill:url(#SVGID_1_);}
	.st10{fill:#E09F89;}
	.st11{fill:url(#SVGID_00000114056464044754691220000011663787421623718807_);}
	.st12{fill:#F6DCDD;}
	.st13{fill:#E39D9D;}
	.st14{fill:#FDACAE;}
	.st15{fill:#E2A094;}
	.st16{fill:#FEBEBE;}
	.st17{fill:#F16E2B;}
	.st18{fill:#DF523C;}
	.st19{fill:#E78B7C;}
	.st20{fill:url(#SVGID_00000176002564217766177680000011382856901291830922_);}
	.st21{fill:#E7DBE0;}
	.st22{fill:url(#SVGID_00000058559276119630613890000004136198613514260902_);}
	.st23{fill:url(#SVGID_00000124138797528414830970000010791481240366504094_);}
	.st24{fill:#E75742;}
	.st25{fill:#EEA755;}
	.st26{fill:#EEB3B2;}
	.st27{fill:#FA9DA5;}
	.st28{fill:#FABEB5;}
	.st29{fill:#F25026;}
	.st30{fill:url(#SVGID_00000013159876060617920300000010546032534347337092_);}
	.st31{fill:url(#SVGID_00000058557419119163267340000000149027118782344095_);}
	.st32{fill:url(#SVGID_00000062875944776685392110000013542247673929458050_);}
	.st33{fill:url(#SVGID_00000179645792768535983690000001286131948011178421_);}
	.st34{fill:url(#SVGID_00000150805858921326383680000016711097899909565574_);}
	.st35{fill:url(#SVGID_00000013180238447345190740000014870444160718076818_);}
	.st36{fill:url(#SVGID_00000040541641656634699950000011542842689218445237_);}
	.st37{fill:url(#SVGID_00000011733224493473677040000003588962879833552533_);}
	.st38{fill:url(#SVGID_00000067223317944027912080000004930648437618348436_);}
	.st39{fill:url(#SVGID_00000077290651037199882510000001431056623232847772_);}
	.st40{fill:url(#SVGID_00000090987724712633583860000013872395466795417261_);}
	.st41{fill:url(#SVGID_00000150786425270029796480000010988168901565809547_);}
	.st42{fill:url(#SVGID_00000040532985757814048890000008633843482316810625_);}
	.st43{fill:url(#SVGID_00000033332434604929346910000003230643202919993262_);}
	.st44{fill:url(#SVGID_00000094592054057567224780000014008523949238624950_);}
	.st45{fill:url(#SVGID_00000084489312401295378750000006015893400671945392_);}
	.st46{fill:url(#SVGID_00000116235096190258238730000010384707111812648331_);}
	.st47{fill:url(#SVGID_00000133489552318405145150000009950201295166991511_);}
	.st48{fill:url(#SVGID_00000096752817480274773020000018069944768238419601_);}
	.st49{fill:url(#SVGID_00000150063603924958106150000005673472135177365644_);}
	.st50{fill:url(#SVGID_00000013875668777131806730000004470261110063749258_);}
	.st51{fill:url(#SVGID_00000177478984641476187390000012467668984255898009_);}
	.st52{fill:url(#SVGID_00000158740748062727858780000000267243358480266632_);}
	.st53{fill:url(#SVGID_00000060005239440045037110000011551175874212114850_);}
	.st54{fill:url(#SVGID_00000042706377450591919820000001255948784737188764_);}
	.st55{fill:url(#SVGID_00000016045247098740125490000006541683715189262501_);}
	.st56{fill:url(#SVGID_00000104665944035050453690000014590766551559799978_);}
	.st57{fill:url(#SVGID_00000137847583161473620450000016764157463885838470_);}
	.st58{fill:url(#SVGID_00000165944476989420835850000017399830954086091690_);}
	.st59{fill:url(#SVGID_00000029731332936090894080000008034302937696893858_);}
	.st60{opacity:0.4;fill:url(#SVGID_00000015342489559267413820000012408261601403852195_);}
	.st61{fill:url(#SVGID_00000102514816637834656750000011435902449179751102_);}
	.st62{fill:url(#SVGID_00000114772557353939922200000005386092306226439055_);}
	.st63{fill:url(#SVGID_00000143607953617883841220000004763336802729907598_);}
	.st64{fill:url(#SVGID_00000077296217847149605220000015090734081648001193_);}
	.st65{fill:url(#SVGID_00000164478012199259344950000010756417666696801689_);}
	.st66{fill:url(#SVGID_00000109005459159206248490000015474737902900977085_);}
	.st67{fill:url(#SVGID_00000106106859449684817990000008116704202140171949_);}
	.st68{fill:url(#SVGID_00000116925761173522298350000012217263214243671936_);}
	.st69{fill:#AD0000;}
	.st70{fill:url(#SVGID_00000151538485222891626460000007472510248382846137_);}
	.st71{fill:url(#SVGID_00000030456199061080023810000016667611069602472349_);}
	.st72{fill:url(#SVGID_00000052078600982061640010000004709207544368063124_);}
	.st73{fill:url(#SVGID_00000103966954109312187450000008863157423556109222_);}
	.st74{fill:url(#SVGID_00000113344824947350544510000010205143259140327334_);}
	.st75{fill:#BF9184;}
	.st76{fill:none;stroke:#FDD5C8;stroke-miterlimit:10;}
	.st77{fill:url(#SVGID_00000106125775703152107460000007832797461610216373_);}
	.st78{fill:url(#SVGID_00000176730549682374535420000005248435859596605868_);}
	.st79{fill:url(#SVGID_00000012431866209066712310000006837492434055818379_);}
	.st80{fill:url(#SVGID_00000060000054010216747400000005564135701643396238_);}
	.st81{fill:url(#SVGID_00000012441751307151490430000012891445546679038080_);}
	.st82{fill:url(#SVGID_00000003791210063246575330000015129756905651549070_);}
	.st83{fill:url(#SVGID_00000031199527880196401750000017605493157174675890_);}
	.st84{fill:url(#SVGID_00000014633464398307813660000006296665332087494068_);}
	.st85{fill:url(#SVGID_00000143597309704712359580000002351915747084166561_);}
	.st86{fill:url(#SVGID_00000023250392597285107120000007338663719769029274_);}
	.st87{fill:none;stroke:#E0AFA1;stroke-miterlimit:10;}
	.st88{fill:#59767A;}
	.st89{fill:none;}
	.st90{fill:#314042;}
	.st91{fill:url(#SVGID_00000072997365535704584740000009516782639596162968_);}
	.st92{fill:url(#SVGID_00000126323886433340842120000006566409538127167132_);}
	.st93{fill:url(#SVGID_00000180361453061226889410000006416982160823163805_);}
	.st94{fill:url(#SVGID_00000013187027730002397440000007238477513567666844_);}
	.st95{fill:url(#SVGID_00000064348002442510348250000003735713765670358155_);}
	.st96{fill:none;stroke:#99685A;stroke-miterlimit:10;}
	.st97{fill:#F2CEC4;}
	.st98{fill:#E1AFA1;}
	.st99{fill:url(#SVGID_00000157270160622424397880000001817536248125114289_);}
	.st100{fill:url(#SVGID_00000054975972513739597700000002912624697515114634_);}
	.st101{fill:url(#SVGID_00000174601905630244544540000013763691632124495003_);}
	.st102{fill:url(#SVGID_00000129201864181546223330000006605031587344809655_);}
	.st103{fill:url(#SVGID_00000131331151860725091460000010350371826202888870_);}
	.st104{fill:url(#SVGID_00000034077881440880763660000014588648030965455519_);}
	.st105{fill:url(#SVGID_00000121972576305995255630000004627299970829801904_);}
	.st106{fill:url(#SVGID_00000176740235215729451210000007760971445449920940_);}
	.st107{fill:url(#SVGID_00000045576728404822165960000014062478201741731005_);}
	.st108{fill:url(#SVGID_00000124854227500140051280000001283041803633203891_);}
	.st109{fill:#E39F8D;}
	.st110{fill:#C2553C;}
	.st111{fill:url(#SVGID_00000081607153783905948680000002122175523903501979_);}
	.st112{fill:url(#SVGID_00000041272958262529584190000005197819787553404038_);}
	.st113{fill:url(#SVGID_00000147921748356078085860000007724455102622844863_);}
	.st114{fill:#AD4024;}
	.st115{fill:url(#SVGID_00000147923574523442128100000000500388635394986162_);}
	.st116{fill:url(#SVGID_00000064330872690065206520000004040060892298957961_);}
	.st117{fill:url(#SVGID_00000129917997648999879270000000620297786570875795_);}
	.st118{opacity:0.5608;fill:#FFFFFF;}
	.st119{fill:#FFFFFF;}
	.st120{fill:#FFF1ED;}
	.st121{fill:#E6D7D3;}
	.st122{opacity:0.4392;fill:#E0AFA1;}
	.st123{fill:#FFD3C7;}
	.st124{opacity:0.3412;fill:#AAAD66;}
	.st125{opacity:0.2314;fill:#FFFFFF;}
	.st126{fill:#23282B;}
	.st127{fill:none;stroke:#99685A;stroke-linecap:round;stroke-linejoin:round;stroke-miterlimit:10;}
	.st128{fill:#495760;}
	.st129{fill:#353A3E;}
	.st130{fill:#3A474F;}
	.st131{fill:#709EB8;}
	.st132{fill:#8BB0C5;}
	.st133{fill:#31556B;}
	.st134{fill:#4E768F;}
	.st135{fill:#263F4F;}
	.st136{fill:#576975;}
	.st137{fill:none;stroke:#3A474F;stroke-miterlimit:10;}
	.st138{fill:#2F3943;}
	.st139{fill:#C78D7D;}
	.st140{fill:#421D13;}
	.st141{fill:#5E3E35;}
	.st142{fill:#806158;}
	.st143{fill:#EFC3B6;}
	.st144{fill:#C79789;}
	.st145{fill:none;stroke:#EFC3B6;stroke-miterlimit:10;}
	.st146{fill:#69483F;}
	.st147{fill:none;stroke:#806158;stroke-width:3;stroke-linecap:round;stroke-linejoin:round;stroke-miterlimit:10;}
	.st148{fill:#E8E8E8;}
	.st149{fill:#BACAD9;}
	.st150{fill:#694034;}
	.st151{fill:#658F85;}
	.st152{fill:#407065;}
	.st153{fill:#323C42;}
	.st154{fill:#B4CADE;}
	.st155{opacity:0.3294;fill:#C75B63;}
	.st156{fill:none;stroke:#5E3E35;stroke-width:4;stroke-linecap:round;stroke-linejoin:round;stroke-miterlimit:10;}
	.st157{fill:#4C6270;}
	.st158{fill:#7A4A3D;}
	.st159{fill:#252E37;}
	.st160{fill:#3E4852;}
	.st161{fill:none;stroke:#E0AFA1;stroke-linecap:round;stroke-linejoin:round;stroke-miterlimit:10;}
	.st162{fill:#BA8677;}
	.st163{fill:#313B45;}
	.st164{fill:none;stroke:#4E768F;stroke-miterlimit:10;}
	.st165{fill:#193646;}
	.st166{opacity:0.1882;fill:#FFFFFF;}
	.st167{fill:none;stroke:#421D13;stroke-miterlimit:10;}
	.st168{opacity:0.2196;fill:#1390D4;}
	.st169{opacity:0.2392;fill:#027DCF;}
	.st170{opacity:0.3216;fill:#FFFFFF;}
	.st171{fill:#CFCFCF;}
	.st172{fill:url(#SVGID_00000140696854646504463410000003300755509955811482_);}
	.st173{fill:url(#SVGID_00000160186141450509588700000004942151651287152262_);}
	.st174{opacity:0.749;fill:url(#SVGID_00000029753702931130677780000012395354377793707658_);}
	.st175{fill:url(#SVGID_00000083767406573235931720000010751983278057246611_);}
	.st176{fill:url(#SVGID_00000010286629136646995950000006437948610030617015_);}
	.st177{fill:#821111;}
	.st178{fill:url(#SVGID_00000169543049425755044690000014392834002337528752_);}
	.st179{fill:#BC0002;}
	.st180{fill:url(#SVGID_00000096759700427065397970000012817478187616950953_);}
	.st181{fill:url(#SVGID_00000119797602468396690710000000447957638080305838_);}
	.st182{fill:url(#SVGID_00000129903692098473463390000006137848954656884912_);}
</style>
<g>
	<rect class="st0" width="1500" height="1453.12"/>
	<g>
		<g>
			<path class="st2" d="M1500,1334.51v101.18c-17.64,2.72-36.48,0.94-53.58-4.71c-36.95-12.2-67.03-39.32-93-68.29
				c-14.33-16.01-27.82-32.84-39.35-50.96c-11.11-17.45-20.31-35.91-28.57-54.84c-3.35-7.68-6.56-15.43-9.67-23.25
				c-4.08-10.2-8-20.48-11.93-30.76c-5.25-13.75-10.5-27.48-16.1-41.04c-21.7-52.51-48.89-102.55-76.02-152.47
				c-21.05-38.73-42.25-77.71-69.89-112.03c-22.29-27.69-48.47-51.97-74.54-76.15c-42.15-39.07-84.29-78.15-126.45-117.22
				c-22.97-21.29-46.02-42.68-67.62-65.33c-6.75-7.08-13.36-14.27-19.77-21.64c-7.77-8.89-15.26-18.02-22.38-27.46
				c-19.99-26.44-37.64-55.64-59.4-80.34c-11.47-13.02-24.09-24.79-38.8-34.24c-6.56-4.21-13.52-7.95-19.64-12.7
				c-1.83-1.42-3.57-2.92-5.21-4.56c-12.82-12.77-18.4-32.53-27.68-47.81c-5.18-8.52-11.51-15.66-20.88-19.41
				c-1.59-2.5-3.16-4.98-4.69-7.48c-0.6-0.96-1.17-1.92-1.75-2.88c-0.27-0.43-0.53-0.87-0.79-1.31c-0.66-1.09-1.29-2.19-1.92-3.28
				c-0.66-1.14-1.3-2.27-1.92-3.41c-1.29-2.32-2.53-4.63-3.7-6.95c0-0.01-0.01-0.02-0.02-0.05c-0.33-0.63-0.63-1.25-0.94-1.89
				c-0.36-0.73-0.71-1.45-1.05-2.18c-0.35-0.73-0.69-1.45-1.02-2.18c-0.47-1-0.93-2-1.35-3.01c-0.09-0.19-0.18-0.38-0.25-0.56
				c-0.22-0.52-0.45-1.03-0.66-1.55c-0.13-0.32-0.26-0.63-0.39-0.95c-0.04-0.08-0.07-0.18-0.11-0.26c-0.11-0.27-0.22-0.55-0.33-0.83
				c-0.05-0.08-0.08-0.18-0.11-0.27c-0.02-0.05-0.05-0.11-0.07-0.15c-0.04-0.09-0.07-0.19-0.12-0.29c-0.16-0.43-0.33-0.87-0.49-1.31
				c-0.05-0.12-0.09-0.25-0.14-0.38c-0.12-0.29-0.22-0.59-0.33-0.89c-0.02-0.05-0.05-0.11-0.06-0.16c-0.11-0.28-0.21-0.55-0.29-0.82
				c-0.22-0.63-0.45-1.28-0.67-1.91c-0.19-0.55-0.36-1.09-0.55-1.64c-0.27-0.83-0.53-1.66-0.77-2.5c-0.14-0.52-0.29-1.04-0.43-1.56
				c-0.02-0.02-0.02-0.05-0.02-0.07c-0.09-0.29-0.18-0.59-0.25-0.88c-0.16-0.6-0.32-1.18-0.47-1.78c-0.06-0.25-0.13-0.49-0.19-0.74
				c-0.01-0.06-0.02-0.11-0.04-0.16c-0.25-1.03-0.48-2.07-0.7-3.11c-0.06-0.28-0.12-0.55-0.16-0.83c-0.15-0.8-0.29-1.61-0.4-2.43
				c-0.02-0.07-0.02-0.15-0.04-0.22c-0.06-0.5-0.12-1.02-0.15-1.53c-0.01-0.05-0.01-0.09-0.01-0.13c-0.07-0.96-0.08-1.91-0.02-2.86
				c0.02-0.4,0.07-0.8,0.12-1.2c0.01-0.15,0.04-0.3,0.06-0.46c0-0.01,0-0.01,0-0.01c0.27-1.56,0.79-3.06,1.64-4.42
				c2.02-3.16,5.43-4.88,9.12-5.93c1.87-0.54,3.82-0.91,5.7-1.24c125.09-21.43,253.18-3.32,378.79,14.8
				c16.99,2.46,34.38,5.03,49.56,13.07c17.57,9.3,30.62,25.07,43.65,40.08c56.16,64.71,120.35,122.44,190.65,171.41
				c2.27,1.58,4.56,3.18,6.87,4.79c1.16,0.81,2.31,1.62,3.46,2.44c3.06,2.16,6.11,4.36,9.13,6.61c0.79,0.59,1.57,1.17,2.36,1.77
				c3.8,2.87,7.51,5.82,11.1,8.88c0.67,0.57,1.32,1.14,1.97,1.71c0.74,0.64,1.46,1.3,2.19,1.96c0.09,0.08,0.2,0.18,0.29,0.27
				c0.7,0.63,1.39,1.28,2.07,1.92c0.76,0.73,1.51,1.45,2.26,2.19l1.41,1.41c1.62,1.64,3.18,3.32,4.69,5.03
				c0.71,0.82,1.42,1.64,2.11,2.47c0.47,0.57,0.94,1.15,1.41,1.73v0.01c0.45,0.55,0.88,1.11,1.31,1.68
				c0.09,0.13,0.19,0.26,0.29,0.39c0.28,0.39,0.56,0.76,0.84,1.15c0.14,0.19,0.28,0.39,0.42,0.57c0.09,0.14,0.2,0.28,0.29,0.42
				c0.05,0.06,0.08,0.12,0.12,0.18c0.34,0.47,0.67,0.94,0.98,1.42c0.45,0.64,0.88,1.3,1.3,1.97c0.41,0.64,0.82,1.3,1.22,1.96
				c0.4,0.67,0.8,1.36,1.18,2.04c0.36,0.64,0.71,1.3,1.05,1.96c0.13,0.25,0.26,0.48,0.38,0.73c0.29,0.55,0.56,1.11,0.83,1.68
				c0.15,0.29,0.29,0.59,0.42,0.88c0.11,0.22,0.2,0.43,0.29,0.66c0.23,0.52,0.47,1.03,0.69,1.56c0.01,0.01,0.01,0.02,0.02,0.05
				c0.12,0.27,0.23,0.53,0.34,0.8c0.02,0.07,0.06,0.14,0.08,0.21c0.06,0.14,0.12,0.28,0.16,0.43c0.26,0.63,0.5,1.28,0.75,1.93
				c0.25,0.66,0.47,1.31,0.69,1.97c0.04,0.11,0.06,0.21,0.11,0.32c0.22,0.7,0.45,1.42,0.64,2.12c0.21,0.71,0.41,1.43,0.6,2.16
				c0.05,0.2,0.09,0.39,0.14,0.59c0.35,1.44,0.67,2.91,0.94,4.39c0.61,0.3,1.21,0.62,1.78,0.95c0.13,0.06,0.25,0.13,0.36,0.2
				c0.61,0.34,1.18,0.68,1.77,1.07c0.04,0,0.06,0.02,0.09,0.06c0.05,0.01,0.09,0.03,0.14,0.08c0.52,0.32,1.03,0.66,1.52,1.01
				c0.04,0.02,0.06,0.05,0.09,0.07c0.26,0.16,0.5,0.35,0.75,0.54c0.45,0.32,0.88,0.64,1.31,0.98s0.86,0.69,1.28,1.07
				c0.08,0.05,0.15,0.11,0.22,0.19c0.16,0.14,0.33,0.28,0.49,0.42c0.26,0.21,0.49,0.43,0.74,0.68c0.08,0.06,0.16,0.13,0.25,0.22
				c0.25,0.21,0.48,0.45,0.71,0.67c0.06,0.06,0.13,0.12,0.19,0.19c0.47,0.45,0.91,0.91,1.36,1.39c0.09,0.09,0.19,0.19,0.26,0.29
				c0.43,0.46,0.84,0.91,1.24,1.38c0.48,0.55,0.95,1.12,1.42,1.71c0.32,0.41,0.64,0.83,0.95,1.27c0.16,0.21,0.33,0.42,0.49,0.66
				c0.33,0.46,0.64,0.91,0.95,1.38c0.08,0.11,0.16,0.21,0.23,0.33c0.39,0.57,0.75,1.15,1.11,1.73c0.42,0.68,0.83,1.38,1.24,2.09
				c0.35,0.64,0.7,1.28,1.04,1.93c1.68,3.16,3.12,6.5,4.38,9.98c0.15,0.41,0.3,0.83,0.46,1.25c0.22,0.62,0.43,1.24,0.63,1.88
				c0.01,0.01,0.01,0.03,0.02,0.06c0.2,0.62,0.41,1.25,0.59,1.9c0.2,0.62,0.4,1.27,0.57,1.91c0.22,0.75,0.43,1.5,0.63,2.26
				c0.19,0.69,0.38,1.39,0.54,2.1c0.29,1.17,0.57,2.36,0.84,3.55c0.25,1.14,0.49,2.27,0.71,3.43c0.26,1.27,0.49,2.55,0.71,3.83
				c0.29,1.64,0.55,3.29,0.81,4.95c0.23,1.59,0.46,3.2,0.66,4.79c0.45,3.41,0.81,6.79,1.12,10.11
				c11.65,122.71,14.03,246.52,35.19,367.93c0.33,1.9,0.67,3.81,1.02,5.71c0.41,2.3,0.83,4.59,1.25,6.89
				c0.43,2.29,0.87,4.58,1.31,6.88c0.36,1.91,0.74,3.81,1.12,5.72c0.01,0.11,0.02,0.2,0.06,0.29c0.05,0.31,0.11,0.61,0.18,0.91
				c0.01,0.12,0.04,0.22,0.07,0.33c0.25,1.25,0.5,2.51,0.76,3.76c0.64,3.2,1.31,6.4,2,9.6c0.4,1.84,0.79,3.68,1.2,5.51
				c0.09,0.48,0.21,0.97,0.32,1.45c0.49,2.26,1.01,4.5,1.52,6.76c0.52,2.23,1.03,4.45,1.56,6.69c0.04,0.19,0.08,0.37,0.14,0.57
				c0.41,1.73,0.83,3.47,1.25,5.22c0.15,0.69,0.33,1.39,0.5,2.09c0.48,1.98,0.98,3.95,1.48,5.93c0.49,1.96,1,3.91,1.51,5.88
				c0,0.07,0.02,0.13,0.05,0.19c0.12,0.48,0.23,0.95,0.36,1.42c0.59,2.26,1.18,4.52,1.8,6.79c0.52,1.93,1.05,3.86,1.58,5.79
				c2.78,10.07,5.75,20.07,8.91,30c0.36,1.15,0.74,2.31,1.11,3.46c0.76,2.4,1.55,4.78,2.34,7.16c0.62,1.89,1.25,3.76,1.9,5.62
				c0.35,1.04,0.7,2.09,1.08,3.12c0.45,1.34,0.91,2.66,1.38,3.98c0.19,0.55,0.39,1.1,0.59,1.64c0.61,1.73,1.23,3.47,1.86,5.19
				c0.52,1.43,1.04,2.86,1.57,4.29c0.53,1.43,1.07,2.85,1.61,4.27c1.41,3.76,2.86,7.5,4.34,11.23c1.24,3.12,2.5,6.23,3.79,9.33
				c1.12,2.73,2.27,5.45,3.43,8.16c0.61,1.43,1.23,2.86,1.86,4.28c0.21,0.5,0.42,1,0.64,1.49c0.53,1.22,1.07,2.43,1.62,3.63
				c0.71,1.63,1.45,3.25,2.19,4.86c0.05,0.09,0.08,0.19,0.13,0.28c0.94,2.04,1.88,4.07,2.84,6.09c0.06,0.13,0.12,0.27,0.19,0.41
				c1,2.12,2.02,4.24,3.04,6.35C1483.54,1305.35,1491.45,1320.13,1500,1334.51z"/>
			<path class="st2" d="M1500,1358.33v94.79h-244.97c-29.85-37.92-63.9-72.53-101.39-102.89c-18-14.59-36.77-28.2-56.26-40.72
				c9.76-4.72,19.36-9.5,28.79-14.37c48.79-25.14,93.19-52.58,131.55-86.84c2.02-1.79,4.08-3.63,6.18-5.44
				c4.07-3.48,8.32-6.81,12.86-9.38c4.88-2.78,10.09-4.66,15.75-4.89c8.07-0.32,15.84,2.87,23.14,6.33
				c4.02,1.91,7.98,3.91,11.88,6.01C1396.11,1237.62,1445.81,1300.59,1500,1358.33z"/>
			<path class="st4" d="M1104.81,699.53c-11.57-18.21-20.85-26.03-28.63-46.16c-2.24-5.78-4.18-11.77-7.75-16.83
				c-7.83-11.11-21.71-15.73-34.23-20.99c-64.34-27.06-112.9-86.8-180.52-104.06c-53.96-13.78-113.95-40.59-171.27-72.62
				c-14.88-8.32-28.71-18.32-42.02-29c-5.18-8.52-11.51-15.66-20.88-19.41c-3.2-4.99-6.27-9.96-9.14-14.95
				c-7.37-12.81-13.39-25.7-16.69-39.16c0.02,0,0.05,0.01,0.07,0.01c50.87,11.18,101.73,22.35,152.59,33.52
				c22.72,4.99,45.5,10.01,67.38,17.88c15.11,5.44,29.73,12.23,45.16,16.66c20.94,6.01,43.22,7.63,63.15,16.42
				c57.79,25.48,77.66,101.2,132.33,132.83c11.63,6.73,26.99,16.28,22.85,29.05c-1.35,4.18-4.72,7.45-6.18,11.59
				c-3.79,10.71,6.06,20.78,11.95,30.49c5,8.23,7.39,17.75,9.71,27.11C1097.53,671.3,1099.99,680.14,1104.81,699.53z"/>
			<path class="st5" d="M1074.59,585.36c-27.26-3.53-44.57-29.68-62.67-50.37c-51.3-58.61-129.95-84.47-205.8-102.13
				c-66.35-15.46-135.22-27.2-195.74-57.36c-7.97-13.84-14.36-27.77-17.43-42.43c-0.66-3.15-1.12-6.54-0.61-9.66
				c1.7,3.32,3.11,6.84,4.85,10.15c13.98,26.44,46.91,35.25,76.18,41.39c27.94,5.86,56.04,11.72,84.56,12.96
				c8.32,0.36,16.75,0.35,24.8,2.48c10.34,2.73,19.38,8.84,28.66,14.14c17.94,10.27,37.42,17.85,57.57,22.42
				c27.89,6.32,58.28,7.39,81.67,23.85c5.11,3.6,9.91,8.1,12.08,13.97c1.57,4.23,1.65,8.91,3.27,13.11
				c1.59,4.2,4.58,7.66,7.55,11.03C1004.36,523.9,1038.21,556.21,1074.59,585.36z"/>
			<path class="st3" d="M645.8,325.64c43.14,15.67,91.12,7,136.44,14.22c19.18,3.05,37.76,8.94,56.48,14.11
				c37.25,10.29,75.37,17.83,111.54,31.44c36.17,13.61,70.97,34.03,94.1,65c8.64,11.57,15.48,24.38,23.88,36.11
				c24.58,34.34,61.67,58.46,84.79,93.79c28.69,43.84,31.79,103.2,7.83,149.8c-10.66,20.72-26.75,41.88-21.97,64.68
				c16.14,2.12,31.98-7.75,41.53-20.93c9.55-13.18,14.03-29.27,18.27-44.99c7.9-29.31,15.62-58.95,17.06-89.27
				s-3.84-61.75-20.21-87.32c-11.59-18.11-28.1-32.42-44.38-46.47c-39.21-33.84-78.41-67.68-117.62-101.51
				c-17.5-15.11-35.3-30.4-56.24-40.2c-17.12-8.01-35.78-12.06-54.25-16.05c-29.77-6.43-59.53-12.87-89.3-19.3
				c-21.43-4.63-43.13-9.29-65.04-8.39c-14.59,0.6-29.09,3.67-43.68,2.92c-28.38-1.46-59.46-16.66-83.21-1.04
				C644.7,327.67,651.72,330.51,645.8,325.64z"/>
			<path class="st4" d="M1500,1334.51v118.62h-61.49c-33.74-32-69.29-72.81-85.09-90.43c-14.33-16.01-27.82-32.84-39.35-50.96
				c-11.11-17.45-20.31-35.91-28.57-54.84c0.54-1.23,1.14-2.45,1.8-3.63c6.26-11.14,17.31-18.63,25.76-28.22
				c6.27-7.11,11-15.3,14.47-24.08c5.2-13.16,7.57-27.67,7.98-41.88c0.7-23.7-3.43-47.24-5.67-70.83
				c-5.52-58.15,0.47-116.85-3.38-175.12c-6.73-102.35-43.62-204.21-26.25-305.3c-17.91-22.88-37.82-39.96-57.3-57.01
				c-66.67-58.34-131.06-119.29-192.98-182.64c-4.85-4.97-9.79-10.02-15.81-13.49c-5.53-3.19-11.79-4.91-17.98-6.48
				c-39.86-10.08-80.75-15.28-121.54-20.45c-61.82-7.84-123.81-15.69-186.12-16.11c-35.99-0.23-71.93,2-107.84,4.24l2.44-2.82
				c1.87-0.54,3.82-0.91,5.7-1.24c125.09-21.43,253.18-3.32,378.79,14.8c16.99,2.46,34.38,5.03,49.56,13.07
				c17.57,9.3,30.62,25.07,43.65,40.08c56.16,64.71,120.35,122.44,190.65,171.41c2.27,1.58,4.56,3.18,6.87,4.79
				c1.16,0.81,2.31,1.62,3.46,2.44c3.06,2.16,6.11,4.36,9.13,6.61c0.79,0.59,1.57,1.17,2.36,1.77c3.8,2.87,7.51,5.82,11.1,8.88
				c0.67,0.57,1.32,1.14,1.97,1.71c0.74,0.64,1.46,1.3,2.19,1.96c0.09,0.08,0.2,0.18,0.29,0.27c0.7,0.63,1.39,1.28,2.07,1.92
				c0.76,0.73,1.51,1.45,2.26,2.19l1.41,1.41c1.62,1.64,3.18,3.32,4.69,5.03c0.71,0.82,1.42,1.64,2.11,2.47
				c0.47,0.57,0.94,1.15,1.41,1.73v0.01c0.45,0.55,0.88,1.11,1.31,1.68c0.09,0.13,0.19,0.26,0.29,0.39
				c0.28,0.39,0.56,0.76,0.84,1.15c0.14,0.19,0.28,0.39,0.42,0.57c0.09,0.14,0.2,0.28,0.29,0.42c0.05,0.06,0.08,0.12,0.12,0.18
				c0.34,0.47,0.67,0.94,0.98,1.42c0.45,0.64,0.88,1.3,1.3,1.97c0.41,0.64,0.82,1.3,1.22,1.96c0.4,0.67,0.8,1.36,1.18,2.04
				c0.36,0.64,0.71,1.3,1.05,1.96c0.13,0.25,0.26,0.48,0.38,0.73c0.29,0.55,0.56,1.11,0.83,1.68c0.15,0.29,0.29,0.59,0.42,0.88
				c0.11,0.22,0.2,0.43,0.29,0.66c0.23,0.52,0.47,1.03,0.69,1.56c0.01,0.01,0.01,0.02,0.02,0.05c0.12,0.27,0.23,0.53,0.34,0.8
				c0.02,0.07,0.06,0.14,0.08,0.21c0.06,0.14,0.12,0.28,0.16,0.43c0.26,0.63,0.5,1.28,0.75,1.93c0.25,0.66,0.47,1.31,0.69,1.97
				c0.04,0.11,0.06,0.21,0.11,0.32c0.22,0.7,0.45,1.42,0.64,2.12c0.21,0.71,0.41,1.43,0.6,2.16c0.05,0.2,0.09,0.39,0.14,0.59
				c0.35,1.44,0.67,2.91,0.94,4.39c0.61,0.3,1.21,0.62,1.78,0.95c0.13,0.06,0.25,0.13,0.36,0.2c0.61,0.34,1.18,0.68,1.77,1.07
				c0.04,0,0.06,0.02,0.09,0.06c0.05,0.01,0.09,0.03,0.14,0.08c0.52,0.32,1.03,0.66,1.52,1.01c0.04,0.02,0.06,0.05,0.09,0.07
				c0.26,0.16,0.5,0.35,0.75,0.54c0.45,0.32,0.88,0.64,1.31,0.98s0.86,0.69,1.28,1.07c0.08,0.05,0.15,0.11,0.22,0.19
				c0.16,0.14,0.33,0.28,0.49,0.42c0.26,0.21,0.49,0.43,0.74,0.68c0.08,0.06,0.16,0.13,0.25,0.22c0.25,0.21,0.48,0.45,0.71,0.67
				c0.06,0.06,0.13,0.12,0.19,0.19c0.47,0.45,0.91,0.91,1.36,1.39c0.09,0.09,0.19,0.19,0.26,0.29c0.43,0.46,0.84,0.91,1.24,1.38
				c0.48,0.55,0.95,1.12,1.42,1.71c0.32,0.41,0.64,0.83,0.95,1.27c0.16,0.21,0.33,0.42,0.49,0.66c0.33,0.46,0.64,0.91,0.95,1.38
				c0.08,0.11,0.16,0.21,0.23,0.33c0.39,0.57,0.75,1.15,1.11,1.73c0.42,0.68,0.83,1.38,1.24,2.09c0.35,0.64,0.7,1.28,1.04,1.93
				c1.68,3.16,3.12,6.5,4.38,9.98c0.15,0.41,0.3,0.83,0.46,1.25c0.22,0.62,0.43,1.24,0.63,1.88c0.01,0.01,0.01,0.03,0.02,0.06
				c0.2,0.62,0.41,1.25,0.59,1.9c0.2,0.62,0.4,1.27,0.57,1.91c0.22,0.75,0.43,1.5,0.63,2.26c0.19,0.69,0.38,1.39,0.54,2.1
				c0.29,1.17,0.57,2.36,0.84,3.55c0.25,1.14,0.49,2.27,0.71,3.43c0.26,1.27,0.49,2.55,0.71,3.83c0.29,1.64,0.55,3.29,0.81,4.95
				c0.23,1.59,0.46,3.2,0.66,4.79c0.45,3.41,0.81,6.79,1.12,10.11c11.65,122.71,14.03,246.52,35.19,367.93
				c0.33,1.9,0.67,3.81,1.02,5.71c0.41,2.3,0.83,4.59,1.25,6.89c0.43,2.29,0.87,4.58,1.31,6.88c0.36,1.91,0.74,3.81,1.12,5.72
				c0.01,0.11,0.02,0.2,0.06,0.29c0.05,0.31,0.11,0.61,0.18,0.91c0.01,0.12,0.04,0.22,0.07,0.33c0.25,1.25,0.5,2.51,0.76,3.76
				c0.64,3.2,1.31,6.4,2,9.6c0.4,1.84,0.79,3.68,1.2,5.51c0.09,0.48,0.21,0.97,0.32,1.45c0.49,2.26,1.01,4.5,1.52,6.76
				c0.52,2.23,1.03,4.45,1.56,6.69c0.04,0.19,0.08,0.37,0.14,0.57c0.41,1.73,0.83,3.47,1.25,5.22c0.15,0.69,0.33,1.39,0.5,2.09
				c0.48,1.98,0.98,3.95,1.48,5.93c0.49,1.96,1,3.91,1.51,5.88c0,0.07,0.02,0.13,0.05,0.19c0.12,0.48,0.23,0.95,0.36,1.42
				c0.59,2.26,1.18,4.52,1.8,6.79c0.52,1.93,1.05,3.86,1.58,5.79c2.78,10.07,5.75,20.07,8.91,30c0.36,1.15,0.74,2.31,1.11,3.46
				c0.76,2.4,1.55,4.78,2.34,7.16c0.62,1.89,1.25,3.76,1.9,5.62c0.35,1.04,0.7,2.09,1.08,3.12c0.45,1.34,0.91,2.66,1.38,3.98
				c0.19,0.55,0.39,1.1,0.59,1.64c0.61,1.73,1.23,3.47,1.86,5.19c0.52,1.43,1.04,2.86,1.57,4.29c0.53,1.43,1.07,2.85,1.61,4.27
				c1.41,3.76,2.86,7.5,4.34,11.23c1.24,3.12,2.5,6.23,3.79,9.33c1.12,2.73,2.27,5.45,3.43,8.16c0.61,1.43,1.23,2.86,1.86,4.28
				c0.21,0.5,0.42,1,0.64,1.49c0.53,1.22,1.07,2.43,1.62,3.63c0.71,1.63,1.45,3.25,2.19,4.86c0.05,0.09,0.08,0.19,0.13,0.28
				c0.94,2.04,1.88,4.07,2.84,6.09c0.06,0.13,0.12,0.27,0.19,0.41c1,2.12,2.02,4.24,3.04,6.35
				C1483.54,1305.35,1491.45,1320.13,1500,1334.51z"/>
			<path class="st4" d="M867.86,592.64c25.29,24.45,55.22,44.07,87.73,57.5c24.59,10.16,52.4,18.1,67.77,39.81
				c4.67,6.59,7.88,14.12,12.45,20.77c9.95,14.49,25.58,23.88,40.72,32.82c-22.15,8.99-40.95,26-52.1,47.14
				c-49.88-35.04-95.42-76.27-135.23-122.44c-21.28-24.67-41.91-53.6-41.02-86.16C860.05,583.4,871.3,589.68,867.86,592.64z"/>
			<path class="st4" d="M882.79,550.81c49.67,13.56,84.89,59.4,133.69,75.8c8.2,2.76,17.19,4.94,22.98,11.37s5.54,18.92-2.63,21.79
				c8.46-1.96,10.1-9.79,15.15-14.69c1.27-1.23,2.62-2.51,4.31-3.03c5.95-1.82,9.9,5.9,11.74,11.84
				c6.19,19.95,18.44,37.97,34.71,51.07c-8.96-48.16-39.06-90.94-78.07-120.56c-39.01-29.63-86.38-46.85-134.62-55.37
				c-9.92-1.75-24.21,0.21-24.31,10.29C865.66,548.33,877.58,549.39,882.79,550.81z"/>
			<path class="st4" d="M1079.21,735.16c24.08-28.44,44.66-59.64,65.18-90.75C1112.66,669.57,1088.59,704.26,1079.21,735.16z"/>
			<path class="st5" d="M802.2,511.57c49.1,14.45,98.8,29.17,142.69,55.49c41.06,24.62,79.89,60.23,127.76,61.08
				c-41.3-11.98-80.33-31.71-114.45-57.88c-3.63-2.79-7.44-5.99-8.47-10.45c-1.59-6.89,4.08-13.82,2.85-20.79
				c-1.85-10.52-15.85-12.09-26.22-14.64c-6.35-1.56-12.32-4.37-18.45-6.64c-14.99-5.53-30.96-7.78-46.79-9.99
				c-18.59-2.6-37.18-5.19-55.78-7.79c-3.4-0.47-7.4-0.74-9.69,1.8C793.36,504.32,796.42,509.87,802.2,511.57z"/>
			<path class="st5" d="M1476.21,1290.26c-49.42-57.26-84.5-126.89-100.56-200.81c-8.27-38.11-11.6-77.09-15.56-115.89
				c-6.05-59.27-13.61-118.42-24.27-177.04c-6.75-37.04-14.75-74.02-16.7-111.61c-1.57-30.2,0.8-60.43,3.62-90.56
				c6.73,8.47,11.98,17.84,14.81,28.44c0.52,1.88,0.95,3.8,1.3,5.75c22.7,11.32,30.26,38.55,33.57,64.45
				c0.45,3.41,0.81,6.79,1.12,10.11c11.65,122.71,14.03,246.52,35.19,367.93C1421.89,1146.41,1442.93,1221.66,1476.21,1290.26z"/>
			<path class="st4" d="M933.24,437.8l-0.58-3.47c22.95-3.84,49.79-45.64,49.79-45.64C978.32,413.06,957.63,433.72,933.24,437.8z"/>
			<path class="st4" d="M794.71,388.4l-3.34-1.09c5.78-17.66,16.59-53.71,16.59-53.71C805.01,352.12,800.55,370.56,794.71,388.4z"/>
			<polygon class="st4" points="1067.22,577.71 1066.05,574.39 1108.74,563.06 			"/>
			<path class="st4" d="M1372.43,693c-3.16,19.22-9.26,37.9-15.32,56.45c-8.26-41.93-14.79-84.19-19.56-126.66
				c0.52,1.88,0.95,3.8,1.3,5.75C1361.55,639.87,1369.11,667.1,1372.43,693z"/>
			<path class="st87" d="M970.6,721.54c8.3-15.58,19.08-29.83,31.82-42.05"/>
		</g>
		<g>
			
				<rect x="58.05" y="252.25" transform="matrix(0.9301 0.3673 -0.3673 0.9301 112.0503 -35.1139)" class="st7" width="180.47" height="49.22"/>
			
				<ellipse transform="matrix(0.3732 -0.9278 0.9278 0.3732 -53.3546 810.6168)" class="st8" cx="573.21" cy="444.79" rx="119.53" ry="434.77"/>
			
				<ellipse transform="matrix(0.3732 -0.9278 0.9278 0.3732 -53.3546 810.6168)" class="st7" cx="573.21" cy="444.79" rx="105.58" ry="384"/>
			
				<ellipse transform="matrix(0.4196 -0.9077 0.9077 0.4196 -10.1746 1073.0956)" class="st8" cx="834.04" cy="544.5" rx="42.19" ry="83.2"/>
			<path class="st88" d="M901.21,577.04c-8.72,18.86-45.6,20.4-82.78,3.64c-0.43-0.19-0.88-0.4-1.32-0.6
				c-0.09-0.05-0.19-0.08-0.28-0.13c-0.53-0.25-1.05-0.49-1.58-0.75c-36.53-17.5-58.98-46.39-50.31-65.17
				c8.59-18.57,44.53-20.36,81.15-4.37c0.54,0.23,1.08,0.47,1.62,0.71c0.45,0.2,0.89,0.4,1.34,0.61c0.08,0.04,0.18,0.08,0.26,0.12
				v0.01C886.77,528.53,910,558.01,901.21,577.04z"/>
			<g>
				<path class="st89" d="M847.7,510.39c-10.29,23.19-20.58,46.38-30.88,69.57"/>
				<path class="st8" d="M849.29,511.11v0.01l-30.87,69.56c-0.43-0.19-0.88-0.4-1.32-0.6c-0.09-0.05-0.19-0.08-0.28-0.13
					c-0.53-0.25-1.05-0.49-1.58-0.75l30.84-69.54c0.54,0.23,1.08,0.47,1.62,0.71c0.45,0.2,0.89,0.4,1.34,0.61
					C849.12,511.03,849.21,511.08,849.29,511.11z"/>
			</g>
			<path class="st6" d="M388.36,444.28l53.37-129.43c1.05-2.55,3.98-3.77,6.53-2.72l307.1,126.64c2.55,1.05,3.77,3.98,2.72,6.53
				L704.7,574.73c-1.05,2.55-3.98,3.77-6.53,2.72l-307.1-126.64C388.52,449.76,387.3,446.84,388.36,444.28z"/>
			<polygon class="st7" points="798.73,543.28 796.74,518.19 818.28,527.44 			"/>
			<polygon class="st7" points="869.35,545.92 851.13,563.27 873.34,570.77 			"/>
			<g>
				<path class="st90" d="M489.96,400.38l-9.33,3.72l3.67,9.44l-12.39,28.82l-9.33,3.72l-17.07-7.34l-3.72-9.33l7.01-16.31
					l10.44,4.49l-5.14,11.96l1.24,3.11l4.89,2.1l3.11-1.24l10.47-24.36l-1.24-3.11l-9.24-3.97l3.93-9.13l9.24,3.97l3.11-1.24
					l9.91-23.05l-1.24-3.11l-5-2.15l-3.11,1.24l-5.14,11.96l-10.44-4.49l7.01-16.31l9.33-3.72l17.18,7.39l3.72,9.33L489.96,400.38z"
					/>
				<path class="st90" d="M475.21,451.5l5.14-11.96l10.87,4.67l-5.14,11.96L475.21,451.5z"/>
				<path class="st90" d="M508.56,419.46l9.33-3.72l9.57,4.11l3.11-1.24l10.19-23.71l-1.24-3.11l-3.26-1.4l-3.11,1.24l-4.3,10
					l-10.44-4.49l6.26-14.57l9.33-3.72l15.44,6.64l3.72,9.33l-14.21,33.06l-9.33,3.72l-9.57-4.11l-3.11,1.24l-10.94,25.45
					l17.83,7.67l-3.83,8.92l-28.27-12.15L508.56,419.46z"/>
			</g>
		</g>
		<g>
			<path class="st2" d="M1271.31,1256.64c-12.34,45.67-54.94,96.81-96.89,97.63c-7.49,0.16-14.95-1.29-22.22-4.66
				c-52.98-24.54-96.06-66.97-129.79-114.63c-33.73-47.66-58.87-100.73-83.86-153.5c-15.28-32.26-30.57-64.56-43.66-97.78
				c-17.43-44.19-31.11-90.32-55.77-130.92c-19.71-32.47-45.86-60.45-71.19-88.76c-61.43-68.68-119.75-141.87-151.38-217.58
				c-2.86-4.84-4.69-10.1-5.55-15.54c-3.19-19.52,5.77-41.24,21.7-53.74c20.38-16,49.04-18.46,73.97-11.47
				c24.94,7,46.7,22.35,66.3,39.27c82.52,71.27,134.24,172.97,216.76,244.24c28.55,24.66,60.36,45.28,89.14,69.67
				c83.66,70.84,138.32,170.66,174.47,274.15C1271.73,1145.61,1285.86,1202.84,1271.31,1256.64z"/>
			<path class="st3" d="M824.35,744.99c37.49,35.05,67.41,78.15,87.14,125.53c4.97,11.94,9.39,24.31,16.94,34.82
				c9.62,13.39,23.62,22.83,37.14,32.25c42.92,29.9,84.28,62.76,118.08,102.68c33.8,39.92,59.89,87.44,68.8,138.99
				c3.69,21.34,4.9,44.41,17.91,61.73c14.77-2.15,19.78-20.65,21.19-35.5c4.81-50.57,5.09-105.84-24.93-146.82
				c-9.88-13.49-22.55-24.64-35.41-35.33c-20.7-17.21-42.15-33.51-64.28-48.85c-23.64-16.38-48.16-31.76-69.27-51.29
				c-60.37-55.86-90.5-143.32-162.14-183.73c-3.43-1.94-7.51-3.79-11.18-2.36C820.68,738.55,819.7,745.02,824.35,744.99z"/>
			<path class="st4" d="M1174.42,1354.27c-7.49,0.16-14.95-1.29-22.22-4.66c-52.98-24.54-96.06-66.97-129.79-114.63
				c-33.73-47.66-58.87-100.73-83.86-153.5c-15.28-32.26-30.57-64.56-43.66-97.78c-17.43-44.19-31.11-90.32-55.77-130.92
				c-19.71-32.47-45.86-60.45-71.19-88.76c-61.43-68.68-119.75-141.87-151.38-217.58c-2.86-4.84-4.69-10.1-5.55-15.54
				c13.89,21.25,28.77,41.84,44.59,61.7c3.15,3.95,6.48,7.99,11.03,10.21c10.97,5.37,23.93-1.89,32.72-10.36
				c-7.01,33.53,5.77,68.61,25.79,96.41c20.02,27.79,46.8,49.82,72.19,72.81c25.38,23,50.14,48.01,64.28,79.21
				c12.67,27.98,16.63,60.54,36.19,84.22c10.32,12.49,24.21,21.45,37.21,32.13c-8.27,0.75-16.36,3.52-23.36,8
				c7.93,7.58,15.86,15.18,23.79,22.76c-7.1,4.42-14.16,10.66-14.98,18.98c-0.6,6.08,2.3,11.88,5.11,17.31
				c21.29,41.09,43.49,83.32,79,113.03c5.57,4.65,11.71,9.36,14.06,16.22c1.32,3.84,1.3,7.99,1.68,12.05
				c2.52,26.81,22.21,48.41,40.86,67.85c23.26,24.22,46.52,48.45,72.67,67.52C1142.21,1322.59,1156.92,1339.43,1174.42,1354.27z"/>
			<path class="st3" d="M647.27,489.13c16.32,23.18,34.34,45.17,53.87,65.72c1.98,2.08,4.04,4.2,6.66,5.4
				c6.69,3.06,15.12-1.35,18.14-8.06c3.01-6.71,1.55-14.73-1.88-21.24c-3.43-6.51-8.61-11.89-13.45-17.44
				c-11.63-13.34-21.91-28.39-36.78-37.98c-4.39-2.83-9.34-5.19-14.56-5.2c-5.23-0.02-10.73,2.83-12.5,7.75
				C644.36,484.78,649.38,491.67,647.27,489.13z"/>
			<path class="st4" d="M765.98,718.01c34.7-31.61,47.73-36.2,68.71-77.38L765.98,718.01z"/>
			<path class="st4" d="M739.29,709.08c9.44-25.5,27.1-47.86,49.73-62.95L739.29,709.08z"/>
		</g>
	</g>
</g>
</svg>
