<?xml version="1.0" encoding="utf-8"?>
<!-- Generator: Adobe Illustrator 27.0.0, SVG Export Plug-In . SVG Version: 6.00 Build 0)  -->
<svg version="1.1" id="Слой_1" xmlns="http://www.w3.org/2000/svg" xmlns:xlink="http://www.w3.org/1999/xlink" x="0px" y="0px"
	 viewBox="0 0 2000 1721.52" style="enable-background:new 0 0 2000 1721.52;" xml:space="preserve">
<style type="text/css">
	.st0{fill:#9BAFBD;}
	.st1{fill:#728694;}
	.st2{fill:#FDD5C8;}
	.st3{fill:#FEE4DB;}
	.st4{fill:#E0AFA1;}
	.st5{fill:#99685A;}
	.st6{fill:#AECCD1;}
	.st7{fill:#7A9CA1;}
	.st8{fill:#495B5E;}
	.st9{fill:url(#SVGID_1_);}
	.st10{fill:#E09F89;}
	.st11{fill:url(#SVGID_00000046337066153484716480000014696246254244960951_);}
	.st12{fill:#F6DCDD;}
	.st13{fill:#E39D9D;}
	.st14{fill:#FDACAE;}
	.st15{fill:#E2A094;}
	.st16{fill:#FEBEBE;}
	.st17{fill:#F16E2B;}
	.st18{fill:#DF523C;}
	.st19{fill:#E78B7C;}
	.st20{fill:url(#SVGID_00000001648908697283128790000000403384017392129714_);}
	.st21{fill:#E7DBE0;}
	.st22{fill:url(#SVGID_00000061435175826974338780000001362133033954671233_);}
	.st23{fill:url(#SVGID_00000178913366414480548570000010641487843395638146_);}
	.st24{fill:#E75742;}
	.st25{fill:#EEA755;}
	.st26{fill:#EEB3B2;}
	.st27{fill:#FA9DA5;}
	.st28{fill:#FABEB5;}
	.st29{fill:#F25026;}
	.st30{fill:url(#SVGID_00000157296659453586849550000000256238328275327628_);}
	.st31{fill:url(#SVGID_00000033354246474449480310000013983737864791218566_);}
	.st32{fill:url(#SVGID_00000174593913974459086040000014500819140422181767_);}
	.st33{fill:url(#SVGID_00000122710824415202857270000003475742339879270846_);}
	.st34{fill:url(#SVGID_00000020382358428659122420000013032851216977982350_);}
	.st35{fill:url(#SVGID_00000136369400522979240280000007901989608083353728_);}
	.st36{fill:url(#SVGID_00000065781583786205336590000000756053983876567202_);}
	.st37{fill:url(#SVGID_00000171678662529934299340000015388127314082561975_);}
	.st38{fill:url(#SVGID_00000167363398428360790540000011936765275876455829_);}
	.st39{fill:url(#SVGID_00000076572322269010771530000000818579502767839165_);}
	.st40{fill:url(#SVGID_00000154390053875693517060000009551653536248141443_);}
	.st41{fill:url(#SVGID_00000119085147512436186610000010665981233331864221_);}
	.st42{fill:url(#SVGID_00000124871940261900416380000016386864069956343180_);}
	.st43{fill:url(#SVGID_00000041277244844576933280000014826402047957372582_);}
	.st44{fill:url(#SVGID_00000084497718428539885700000012923100022004141973_);}
	.st45{fill:url(#SVGID_00000178203534304233418890000003984323014798508479_);}
	.st46{fill:url(#SVGID_00000070082320887120057850000004973007534309488828_);}
	.st47{fill:url(#SVGID_00000009552922156297499790000012367271500866259601_);}
	.st48{fill:url(#SVGID_00000170263024853783404530000004286470537508915896_);}
	.st49{fill:url(#SVGID_00000091729498253952256190000005337677995864382631_);}
	.st50{fill:url(#SVGID_00000108274911486763467270000007077850603047543689_);}
	.st51{fill:url(#SVGID_00000103968905525508186620000004782240298504795060_);}
	.st52{fill:url(#SVGID_00000060031016912319691080000003933770031317741750_);}
	.st53{fill:url(#SVGID_00000024002680834560143120000012127793785102553736_);}
	.st54{fill:url(#SVGID_00000014594533629628180500000007463874381408879510_);}
	.st55{fill:url(#SVGID_00000155145905914945653580000010468659721629378969_);}
	.st56{fill:url(#SVGID_00000131348803862713246110000003890008990916382623_);}
	.st57{fill:url(#SVGID_00000124122292710520041040000005696475481324242073_);}
	.st58{fill:url(#SVGID_00000141443851788850749820000010559228179730283697_);}
	.st59{fill:url(#SVGID_00000107551582269632555000000017543856029391127231_);}
	.st60{opacity:0.4;fill:url(#SVGID_00000078005215048433024000000011656947801685086634_);}
	.st61{fill:url(#SVGID_00000010995486388024007080000017528771036821234366_);}
	.st62{fill:url(#SVGID_00000091007842308044271980000018185156530274737030_);}
	.st63{fill:url(#SVGID_00000053509501213357848550000017863807627513965719_);}
	.st64{fill:url(#SVGID_00000163060147943678388250000007242797234259710379_);}
	.st65{fill:url(#SVGID_00000166650845596024169060000016993154947493373085_);}
	.st66{fill:url(#SVGID_00000036247346667389387900000003294107400333079995_);}
	.st67{fill:url(#SVGID_00000024700158504560762780000006985841710662850438_);}
	.st68{fill:url(#SVGID_00000143613608696505676230000004088433207991807387_);}
	.st69{fill:#AD0000;}
	.st70{fill:url(#SVGID_00000071524814682934738590000004284307340164096932_);}
	.st71{fill:url(#SVGID_00000135659708550571357540000000835345306131926919_);}
	.st72{fill:url(#SVGID_00000064331638253359223820000012952276987715029409_);}
	.st73{fill:url(#SVGID_00000024717025059351156260000013144191603968480676_);}
	.st74{fill:url(#SVGID_00000163778829578188786510000017408564748328571534_);}
	.st75{fill:#BF9184;}
	.st76{fill:none;stroke:#FDD5C8;stroke-miterlimit:10;}
	.st77{fill:url(#SVGID_00000061459290101033154830000005244943292141162896_);}
	.st78{fill:url(#SVGID_00000022535265802724257060000016351851193635175043_);}
	.st79{fill:url(#SVGID_00000173126397150280923910000016533033200846091908_);}
	.st80{fill:url(#SVGID_00000072991309500816390010000012328533453066111922_);}
	.st81{fill:url(#SVGID_00000103264483882674724930000004416164277167669439_);}
	.st82{fill:url(#SVGID_00000018219966859742529000000008632247629033011343_);}
	.st83{fill:url(#SVGID_00000123436077636532325730000000674672173047377796_);}
	.st84{fill:url(#SVGID_00000171695732573835897590000003421570348977085089_);}
	.st85{fill:url(#SVGID_00000018212784564316477120000015752472437692870029_);}
	.st86{fill:url(#SVGID_00000108989842689235794300000005161774814278635180_);}
	.st87{fill:none;stroke:#E0AFA1;stroke-miterlimit:10;}
	.st88{fill:#59767A;}
	.st89{fill:none;}
	.st90{fill:#314042;}
	.st91{fill:url(#SVGID_00000106857936418504393740000004555867344364427919_);}
	.st92{fill:url(#SVGID_00000106851164032432410420000011667600513681619391_);}
	.st93{fill:url(#SVGID_00000148639890812027926040000018227092673052213926_);}
	.st94{fill:url(#SVGID_00000124143419577284307830000007494245299090144686_);}
	.st95{fill:url(#SVGID_00000024724462284797541030000003004574057799402891_);}
	.st96{fill:none;stroke:#99685A;stroke-miterlimit:10;}
	.st97{fill:#F2CEC4;}
	.st98{fill:#E1AFA1;}
	.st99{fill:url(#SVGID_00000164500116485510333230000008314205004872107419_);}
	.st100{fill:url(#SVGID_00000045610093986694575450000014497152805140716434_);}
	.st101{fill:url(#SVGID_00000098921576507712105440000000187596692710571930_);}
	.st102{fill:url(#SVGID_00000158014585984555423130000010583166311987933598_);}
	.st103{fill:url(#SVGID_00000093148441934790334570000008032645908949544839_);}
	.st104{fill:url(#SVGID_00000114769153069586342800000014727788334436444842_);}
	.st105{fill:url(#SVGID_00000014626853986165334550000009131109112189028022_);}
	.st106{fill:url(#SVGID_00000064350982445974204710000009809368986598390952_);}
	.st107{fill:url(#SVGID_00000047739825505400000160000000280648466353249411_);}
	.st108{fill:url(#SVGID_00000141448015401404669120000003916426182936904064_);}
	.st109{fill:#E39F8D;}
	.st110{fill:#C2553C;}
	.st111{fill:url(#SVGID_00000003093088041458715770000014502741444464874889_);}
	.st112{fill:url(#SVGID_00000163040434051397215750000013478870647020871845_);}
	.st113{fill:url(#SVGID_00000039845734810216978460000009115904602936856448_);}
	.st114{fill:#AD4024;}
	.st115{fill:url(#SVGID_00000134222104119152523630000008292439153688638875_);}
	.st116{fill:url(#SVGID_00000072279388314142863480000010253748241390895232_);}
	.st117{fill:url(#SVGID_00000044162090181126700280000018179194939669654692_);}
	.st118{opacity:0.5608;fill:#FFFFFF;}
	.st119{fill:#FFFFFF;}
	.st120{fill:#FFF1ED;}
	.st121{fill:#E6D7D3;}
	.st122{opacity:0.4392;fill:#E0AFA1;}
	.st123{fill:#FFD3C7;}
	.st124{opacity:0.3412;fill:#AAAD66;}
	.st125{opacity:0.2314;fill:#FFFFFF;}
	.st126{fill:#23282B;}
	.st127{fill:none;stroke:#99685A;stroke-linecap:round;stroke-linejoin:round;stroke-miterlimit:10;}
	.st128{fill:#495760;}
	.st129{fill:#353A3E;}
	.st130{fill:#3A474F;}
	.st131{fill:#709EB8;}
	.st132{fill:#8BB0C5;}
	.st133{fill:#31556B;}
	.st134{fill:#4E768F;}
	.st135{fill:#263F4F;}
	.st136{fill:#576975;}
	.st137{fill:none;stroke:#3A474F;stroke-miterlimit:10;}
	.st138{fill:#2F3943;}
	.st139{fill:#C78D7D;}
	.st140{fill:#421D13;}
	.st141{fill:#5E3E35;}
	.st142{fill:#806158;}
	.st143{fill:#EFC3B6;}
	.st144{fill:#C79789;}
	.st145{fill:none;stroke:#EFC3B6;stroke-miterlimit:10;}
	.st146{fill:#69483F;}
	.st147{fill:none;stroke:#806158;stroke-width:3;stroke-linecap:round;stroke-linejoin:round;stroke-miterlimit:10;}
	.st148{fill:#E8E8E8;}
	.st149{fill:#BACAD9;}
	.st150{fill:#694034;}
	.st151{fill:#658F85;}
	.st152{fill:#407065;}
	.st153{fill:#323C42;}
	.st154{fill:#B4CADE;}
	.st155{opacity:0.3294;fill:#C75B63;}
	.st156{fill:none;stroke:#5E3E35;stroke-width:4;stroke-linecap:round;stroke-linejoin:round;stroke-miterlimit:10;}
	.st157{fill:#4C6270;}
	.st158{fill:#7A4A3D;}
	.st159{fill:#252E37;}
	.st160{fill:#3E4852;}
	.st161{fill:none;stroke:#E0AFA1;stroke-linecap:round;stroke-linejoin:round;stroke-miterlimit:10;}
	.st162{fill:#BA8677;}
	.st163{fill:#313B45;}
	.st164{fill:none;stroke:#4E768F;stroke-miterlimit:10;}
	.st165{fill:#193646;}
	.st166{opacity:0.1882;fill:#FFFFFF;}
	.st167{fill:none;stroke:#421D13;stroke-miterlimit:10;}
	.st168{opacity:0.2196;fill:#1390D4;}
	.st169{opacity:0.2392;fill:#027DCF;}
	.st170{opacity:0.3216;fill:#FFFFFF;}
	.st171{fill:#CFCFCF;}
	.st172{fill:url(#SVGID_00000139292020051826196560000008319560141222782387_);}
	.st173{fill:url(#SVGID_00000122709635665960390650000016043426100412570509_);}
	.st174{opacity:0.749;fill:url(#SVGID_00000176763103063716169990000018256271272252650901_);}
	.st175{fill:url(#SVGID_00000101795241396714545290000017780540391636345483_);}
	.st176{fill:url(#SVGID_00000165210171995523925800000004666107554625198005_);}
	.st177{fill:#821111;}
	.st178{fill:url(#SVGID_00000076599566819923018350000000473139722312187303_);}
	.st179{fill:#BC0002;}
	.st180{fill:url(#SVGID_00000041274478923643420030000000073083490874340997_);}
	.st181{fill:url(#SVGID_00000057855222332826599040000009058643544898388367_);}
	.st182{fill:url(#SVGID_00000146478071933399758200000007012998048579231374_);}
</style>
<g>
	<g>
		<rect class="st0" width="2000" height="1721.52"/>
		<path class="st131" d="M2000,1317.22v404.3H0v-112c30.89-93.49,61.75-186.99,92.63-280.48c16.13-48.84,32.43-98.08,58.46-142.43
			c41.39-70.51,107.24-126.33,183.57-155.59c32.76-12.56,67.01-20.3,101.62-26.91c0.51-0.1,0.99-0.2,1.49-0.28c0,0,0.03-0.03,0.03,0
			c57.85-10.99,116.53-18.94,170.56-41.06c4.15-1.7,8.28-3.49,12.38-5.37c16.71,1.27,33.04,1.9,48.99,1.95c2.94,0,5.85,0,8.73-0.03
			c56.89-0.51,109.34-7.87,159.32-17.01c4.51-0.81,9.01-1.65,13.47-2.51c18.86-3.57,37.39-7.32,55.67-10.96
			c2.68-0.56,5.34-1.09,8-1.62c23.52-4.68,46.66-9.11,69.7-12.73c4.56-0.71,9.11-1.39,13.67-2.03c4.81-0.68,9.57-1.34,14.35-1.92
			c7.75-0.96,15.49-1.8,23.27-2.46c6.03-0.56,12.05-0.99,18.08-1.34c61.59-3.54,122.38,3.27,182.84,14.63
			c6.08,1.14,12.13,2.33,18.2,3.54c8.76,1.77,17.52,3.65,26.25,5.57c0.23,0.03,0.46,0.08,0.68,0.15c3.82,0.84,7.62,1.67,11.44,2.53
			c6.53,1.49,13.04,2.99,19.57,4.53c2.51,0.58,5.01,1.19,7.52,1.8c5.59,1.34,11.19,2.68,16.81,4.05c5.59,1.34,11.19,2.73,16.79,4.1
			c9.32,2.28,18.63,4.58,27.97,6.91c5.77,1.44,11.52,2.86,17.29,4.28c5.75,1.42,11.52,2.84,17.29,4.25
			c11.52,2.84,23.06,5.59,34.61,8.28c8.68,2.03,17.42,4,26.13,5.92c2.86,0.63,5.72,1.24,8.56,1.85c2.89,0.63,5.8,1.24,8.68,1.85
			c2.91,0.61,5.8,1.22,8.71,1.8c12.86,2.61,25.77,5.04,38.71,7.24c2,0.35,4.03,0.68,6.05,1.01c5.65,0.94,11.34,1.82,17.01,2.66
			c2.84,0.43,5.67,0.84,8.51,1.22c5.67,0.78,11.37,1.52,17.06,2.2c45.9,5.42,92.61,7.19,137.11,19.67
			c37.34,10.51,71.72,28.25,102.68,51.16c54.35,40.15,98.3,96.18,129.77,156.53C1975.85,1254.43,1988.81,1285.47,2000,1317.22z"/>
		<path class="st134" d="M1701.44,1202.68c-32.63,76.13-33.72,162.3-22.73,244.38c1.01,7.49,2.1,14.96,3.27,22.41
			c1.95,12.33,4.1,24.61,6.41,36.86c0,0,0.03,0.03,0,0.03c2,10.68,4.13,21.32,6.3,31.97c0.25,1.29,0.53,2.61,0.78,3.9
			c2.68,13.04,5.44,26.05,8.2,39.09v0.03c0.43,1.97,0.84,3.9,1.24,5.87c1.67,7.82,3.32,15.67,4.96,23.52
			c0.05,0.23,0.1,0.48,0.13,0.71c5.49,26.51,10.68,53.04,14.84,79.75c1.54,9.95,2.91,20.15,3.59,30.33h-86.76
			c-15.14-22.84-29.49-46.18-43.01-70v-0.03c-8.51-14.94-16.66-30.03-24.48-45.32c-22.13-43.22-42.33-88.86-77.06-122.81
			c-11.29-11.04-23.95-20.68-37.27-29.62c-26.2-17.62-54.94-32.51-80.63-49.92c-0.25-0.18-0.51-0.33-0.73-0.48
			c-3.97-2.73-7.87-5.49-11.7-8.33c-3.11-2.35-6.15-4.73-9.11-7.19l-0.03-0.03c-16.43-13.49-30.56-28.99-40.56-48.28
			c-7.11-13.72-11.57-28.53-14.84-43.67c-0.99-4.51-1.85-8.99-2.63-13.52v-0.03c-0.05-0.3-0.1-0.61-0.18-0.91v-0.03
			c-0.48-2.86-0.96-5.72-1.42-8.58c-0.99-6.18-1.9-12.35-2.73-18.56c-0.58-4.23-1.11-8.48-1.62-12.71
			c-0.94-7.77-1.77-15.57-2.48-23.37c-1.22-13.09-2.1-26.2-2.68-39.32c-0.1-1.97-0.18-3.97-0.25-5.95
			c-1.75-46.58,0.35-93.32,6.3-139.54c3.16-24.78,7.44-49.42,12.84-73.82c1.62-7.22,3.34-14.53,5.52-21.67
			c0.03-0.05,0.03-0.1,0.05-0.15c2.51,0.58,5.01,1.19,7.52,1.8c5.59,1.34,11.19,2.68,16.81,4.05c5.59,1.34,11.19,2.73,16.79,4.1
			c9.32,2.28,18.63,4.58,27.97,6.91c5.77,1.44,11.52,2.86,17.29,4.28c5.75,1.42,11.52,2.84,17.29,4.25
			c11.52,2.84,23.06,5.59,34.61,8.28c8.68,2.03,17.42,4,26.13,5.92c2.86,0.63,5.72,1.24,8.56,1.85c2.89,0.63,5.8,1.24,8.68,1.85
			c2.91,0.61,5.8,1.22,8.71,1.8c12.86,2.61,25.77,5.04,38.71,7.24c2,0.35,4.03,0.68,6.05,1.01c5.65,0.94,11.34,1.82,17.01,2.66
			c2.84,0.43,5.67,0.84,8.51,1.22c5.67,0.78,11.37,1.52,17.06,2.2c45.9,5.42,92.61,7.19,137.11,19.67
			c37.34,10.51,71.72,28.25,102.68,51.16C1772.99,1092.86,1726.48,1144.25,1701.44,1202.68z"/>
		<path class="st134" d="M416.43,1520.8c-57.73-70.37-111.4-144.07-160.68-220.59c-14.74-22.89-29.28-46.49-36.14-72.84
			C303.9,1316.06,375.7,1416.6,416.43,1520.8z"/>
		<path class="st134" d="M608.01,1188.02c-62.48-57.2-120.43-119.34-173.14-185.64c40.08,19.22,70.68,53.5,98.35,88.29
			C559.49,1123.7,584.15,1158.01,608.01,1188.02z"/>
		<path class="st134" d="M369.14,1581.97c-58.25-32.65-115.23-67.57-170.77-104.65c-20.24-13.51-41.93-27.84-66.26-27.82
			c9.54-1.96,19.41-1.51,29.08-0.39C247.91,1459.15,319.42,1519.32,369.14,1581.97z"/>
		<path class="st134" d="M427.14,1489.97c-19.85-55.67-45.63-109.16-63.73-165.43c-18.1-56.27-28.34-116.75-15.96-174.55
			C363.96,1260.28,429.92,1361.41,427.14,1489.97z"/>
		<path class="st134" d="M1660.2,1545.28c16.83-78.11,49.7-152.73,95.96-217.88c8.78-12.36,18.21-24.56,30.45-33.51
			c6.3,8.94,2.46,21.22-1.72,31.33C1753.41,1401.55,1714.27,1474.71,1660.2,1545.28z"/>
		<path class="st134" d="M1676.85,1560.82c36.6-47.83,78.21-91.82,123.92-131.02c22.06-18.92,46.44-37.34,75.13-41.96
			c3.4,14.93-8.19,28.77-19.27,39.33c-37.74,35.95-80.05,67.09-125.6,92.43C1713.81,1529.19,1695.8,1538.17,1676.85,1560.82z"/>
		<path class="st134" d="M1687.8,1594.95c65.73-59.07,147.7-99.89,234.46-116.75C1857.95,1515.71,1790.82,1548.39,1687.8,1594.95z"
			/>
		<path class="st134" d="M1689.1,1618.15c50.13-20.47,105.53-23.26,159.68-23.73c20.75-0.18,41.73-0.04,61.9,4.86
			c20.17,4.9,39.71,15.03,52.25,31.57c-56.67-28.16-127.88,9.6-187.12-12.66C1757.5,1611.31,1740.42,1598.73,1689.1,1618.15z"/>
		<path class="st134" d="M1516.71,1721.52H759.47c3.49-13.54,12.43-25.11,21.14-36.15c36.96-46.78,74.99-93.62,122.53-129.54
			c54.94-41.52,119.75-66.3,187.47-80.71c29.09-6.2,58.73-10.48,88.35-13.34c11.42-1.11,22.84-2.03,34.2-2.73
			c27.16-1.7,54.84-2.46,81.19,4.41c7.09,1.85,13.97,4.2,20.68,7.01c30.56,12.76,57.27,34.53,81.97,56.99
			c46.15,42,89.49,89.75,111.77,148.03C1514.4,1690.15,1518.66,1706.03,1516.71,1721.52z"/>
		<path class="st133" d="M1345.72,1075.8c0.03,6.35-0.13,12.71-0.46,19.06c-1.54,31.39-6.96,62.43-12.38,93.39
			c-0.63,3.62-1.27,7.27-1.92,10.89c-0.56,3.16-1.14,6.35-1.72,9.52c-2.05,10.84-4.28,21.7-6.96,32.38
			c-1.24,4.94-2.56,9.8-4.03,14.63v0.03c-0.13,0.46-0.25,0.89-0.4,1.32c-3.24,10.71-7.06,21.14-11.77,31.14
			c0,0.05-0.03,0.08-0.05,0.1c-1.19,2.56-2.46,5.09-3.77,7.59c-3.85,7.32-8.23,14.35-13.24,21.06
			c-11.7,15.7-26.43,28.89-39.72,43.29c-0.2,0.23-0.4,0.46-0.61,0.68c-0.15,0.13-0.28,0.28-0.4,0.43
			c-20.35,22.3-37.54,47.62-53.6,73.92c-0.66,1.06-1.32,2.15-1.97,3.24c-0.33,0.56-0.66,1.11-0.99,1.67
			c-0.28,0.46-0.56,0.91-0.84,1.39c-4.03,6.68-8,13.44-11.92,20.23c-11.8,20.33-23.32,40.84-35.47,60.58
			c-6.13,10-12.43,19.77-18.99,29.27c-24.38,35.19-52.53,66.15-90.35,86.86c-25.42,13.95-53.59,22.05-79.9,34.28
			c-27.97,13.04-53.49,30.56-78.48,48.76H402.51c6.1-30.94,14.94-61.49,32.48-87.47c17.72-26.2,43.11-45.97,67.11-66.58
			c56.3-48.3,106.84-103.34,150.25-163.52c3.39-4.71,6.73-9.44,10.03-14.2c4.38-6.3,8.68-12.66,12.91-19.06
			c1.44-2.2,2.89-4.43,4.33-6.66c0.33-0.51,0.63-0.99,0.96-1.49c0.1-0.18,0.23-0.35,0.33-0.53c2.38-3.67,4.71-7.34,7.04-11.04
			c14.18-22.53,28.13-45.27,45.44-65.44c2.33-2.71,4.68-5.34,7.14-7.95c0.78-0.86,1.59-1.72,2.4-2.56
			c9.49-9.95,19.72-19.16,30.38-27.9c1.9-1.59,3.85-3.16,5.8-4.68c0.78-0.63,1.57-1.27,2.38-1.85c0.03-0.05,0.03-0.05,0.05-0.03
			c15.54-12.28,31.9-23.7,48.13-35.04c0.51-0.35,0.99-0.71,1.49-1.06c0.03,0.03,0.03,0,0.03,0c3.44-2.41,6.86-4.81,10.3-7.19
			l0.03-0.03c0.03,0,0.05-0.03,0.08-0.05l69.34-48.38c0.94-0.66,1.9-1.32,2.84-1.97c27.47-19.16,54.91-38.33,82.38-57.52
			c0.1-0.05,0.2-0.13,0.3-0.2c2.76-1.92,5.47-3.85,8.23-5.75h0.03c12.35-8.63,24.71-17.27,37.06-25.87
			c3.57-2.51,7.16-4.99,10.73-7.49c1.62-1.14,3.22-2.25,4.84-3.39c15.06-10.51,30.13-21.01,45.19-31.54h0.03
			c2.05-1.44,4.13-2.89,6.18-4.3c15.27-10.66,30.56-21.32,45.82-32c2.53-1.77,5.09-3.54,7.62-5.32
			c15.06-10.51,30.13-21.01,45.19-31.52c8.13-5.67,16.23-11.34,24.35-16.99c1.7-1.19,3.39-2.38,5.09-3.57l18.18,3.95l26.2,5.67
			l0.73,0.15l11.06,2.41l19.92,4.3l7.57,1.65C1337.11,982.89,1345.7,1029.34,1345.72,1075.8z"/>
		<path class="st133" d="M1692.66,1721.52h-124.48c-73.09-100.1-141.54-203.57-189.34-317.34c-0.13-0.28-0.23-0.56-0.35-0.84
			c-1.97-4.71-3.9-9.42-5.77-14.15c-0.23-0.48-0.4-0.99-0.61-1.47c-3.16-7.95-6.23-16-9.06-24.25
			c-12.86-37.19-21.16-77.97-13.72-127.32c0,0,0-0.03,0-0.08c0.56-3.7,1.22-7.44,1.95-11.24c0.35-0.05,0.68-0.13,1.04-0.18
			c4.43-0.73,8.84-1.06,13.22-1.01c42.94,0.53,81.32,37.44,98.94,78.25c19.54,45.27,21.95,95.95,35.95,143.22
			C1532.28,1552.68,1620.38,1633.85,1692.66,1721.52z"/>
		<g>
			<path class="st2" d="M1332.41,784.18c-6.84,36.51-13.67,73.01-20.48,109.52c-2.1,11.22-4.41,22.86-11.37,31.87
				c-4.61,5.95-11.01,10.38-15.42,16.48c-1.52,2.1-2.76,4.35-3.77,6.71c-3.47,7.8-4.58,16.71-5.72,25.27
				c-1.52,11.57-3.32,23.09-5.39,34.56h-0.03c-0.03,0.23-0.05,0.48-0.13,0.71c-1.85,10.33-3.92,20.63-6.25,30.89
				c-19.16,85.49-53.14,167.7-100.1,241.7c-7.97,12.58-16.02,25.01-24.46,36.78c-28.96,40.58-62.38,73.72-113.24,80.76
				c-48.25,6.68-145.92-9.49-169.27-39.11c-23.27-29.57-43.59-59.82-62-90.68c-37.01-61.95-66.41-126.41-96.96-192.94
				c-0.03,0-0.03,0-0.03,0c-7.87-17.14-15.82-34.43-24.03-51.87c-4.2-9.01-8.51-18.05-12.89-27.14c-2.23-4.61-4.66-9.47-8.96-12.23
				c-4.38-2.78-9.87-2.89-14.99-3.87c-21.49-4.23-35.97-24.99-42.48-45.9c-6.53-20.91-7.47-43.29-14.38-64.08
				c-9.77-29.34-31.16-54.78-34.94-85.49c-2.18-17.72,2-36.15,11.62-51.19c10.96-17.16,34.96-29.85,50.3-16.35
				c4.23-4.66,7.16-10.05,9.21-15.85c4.15-11.62,4.81-24.94,5.19-37.49c1.72-59.77,3.87-121.82,31.06-175.09
				c33.9-66.43,102.56-109.27,173.95-130.84c71.39-21.6,146.76-25.01,220.96-32.38c12.63-1.27,25.57-2.61,37.82,0.63
				c9.16,2.43,17.47,7.32,25.62,12.15c39.27,23.24,79.82,47.7,105.34,85.52c20.89,30.94,29.9,68.41,34.71,105.47
				c5.06,38.99,5.9,78.56,2.48,117.72c-1.65,18.96-3.22,40.96,10.71,53.95c0.51-0.15,1.01-0.3,1.49-0.51
				c0.18-0.05,0.35-0.1,0.53-0.18c18.13-6.99,25.09-35.77,44.79-35.97c14.23-0.13,23.09,15.47,26.1,29.37
				C1343.39,724.33,1337.9,754.73,1332.41,784.18z"/>
			<path class="st143" d="M999.18,857.36c-12.33,20.99-17.13,46.3-13.34,70.35c0.34,2.17,0.82,4.47,2.35,6.05
				c1.66,1.72,4.18,2.22,6.53,2.58c13.38,2.07,27,2.55,40.49,1.43c1.22-0.1,2.52-0.25,3.47-1.02c0.81-0.66,1.23-1.66,1.55-2.65
				c2.03-6.28,0.99-13.19-1.33-19.36c-2.32-6.17-5.84-11.81-8.96-17.62c-4.95-9.22-8.9-18.98-11.76-29.05
				c-1.25-4.41-2.44-9.13-5.74-12.3S1002.47,851.75,999.18,857.36z"/>
			<path class="st143" d="M863.76,827.36c7.28-5.93,14.46-11.97,21.56-18.11c-0.93,11.02-1.25,22.09-0.96,33.14
				C878,835.9,870.34,830.67,863.76,827.36z"/>
			<path class="st5" d="M576.52,835.56c-6.45-15.09-11.35-30.85-14.59-46.94c-2.51-12.45-3.85-26.08,2.26-37.21
				c1.53-2.79,3.73-5.5,6.81-6.29c3.43-0.89,6.99,0.83,9.85,2.94c8.01,5.9,13.32,15.34,14.2,25.25c-4.35-0.13-7.38-4.91-11.7-5.36
				c-2.96-0.31-5.81,1.59-7.44,4.09s-2.26,5.49-2.76,8.43C569.66,800.95,571.28,822.29,576.52,835.56z"/>
			<path class="st143" d="M1019.8,808.36c-19-4.49-34.34-19.05-53.23-23.95c12.4,12.75,23.64,26.63,33.53,41.41
				c2.11-3.08,3.79-6.46,6.14-9.36C1009.85,811.99,1015.04,808.83,1019.8,808.36z"/>
			<path class="st143" d="M915.96,840.66c3.69-1.65,7.38-3.3,11.08-4.95c-4.36,12.4-11.6,23.78-20.99,32.97
				c-7.93,7.76-17.27,13.91-26.54,20.01c-9.06,5.96-18.15,11.93-27.83,16.8c-40.67,20.45-89.04,19.98-133.53,10.33
				c24.54-6.9,50.2-8.44,75.45-11.94c25.25-3.49,50.9-9.24,72.12-23.36C885.61,867.29,900.68,847.48,915.96,840.66z"/>
			<path class="st143" d="M1157.5,878.87c14.51,0.97,29.14,0.14,43.44-2.49c-20.37-9.26-44.83,1.28-66.36-4.81
				c10.18-7.94,23.67-10.13,36.57-10.65c12.9-0.52,25.99,0.35,38.57-2.58c-17.21-6.48-35.71-9.48-54.09-8.77
				c18.13-5.5,36.02-11.79,53.59-18.86c5.33-2.14,11.24-5,12.9-10.5c-12.85-3.77-26.65-0.29-39.31,4.09
				c-12.66,4.38-25.37,9.74-38.77,9.76c24.31-10.88,49.61-22.51,66.11-43.42c3.13-3.97,6.01-9.2,4.02-13.85
				c-0.88-2.05-2.61-3.62-4.49-4.83c-8.67-5.61-20.3-4.21-29.65,0.15s-17.23,11.3-25.9,16.91c-9.17,5.94-19.21,10.4-29.2,14.84
				c-16.39,7.27-32.81,14.55-49.86,20.08c-9.89,3.2-20.02,5.83-29.38,10.34c-3.79,1.83-7.71,4.27-9.1,8.24
				c-1.94,5.52,1.81,11.38,5.98,15.48c10.6,10.42,24.94,16.37,39.53,19.18c14.59,2.81,29.57,2.68,44.43,2.41
				C1136.8,879.38,1147.48,878.19,1157.5,878.87z"/>
			<path class="st5" d="M605.12,877c-1.78-10.05-3.33-20.27-2.39-30.44c0.94-10.17,4.61-20.4,11.95-27.5
				c0.56-0.54,1.19-1.09,1.96-1.19c0.83-0.11,1.64,0.31,2.33,0.8c4.53,3.25,6.01,9.53,5.15,15.04c-0.86,5.51-3.63,10.51-6.15,15.49
				c-3.19,6.3-6.06,12.75-8.59,19.34C607.37,873.76,605.55,879.46,605.12,877z"/>
			<path class="st4" d="M1186.34,872.25c-22.96,9.59-46.45,18.67-71.12,21.85s-50.94-0.01-71.86-13.46
				c-12.55-8.07-25.57-20.22-40.01-16.48c-8.9,2.31-16.25,10.57-25.42,9.8c-1.72-5.96,4.37-11.89,3.27-17.99
				c-0.41-2.25-1.76-4.2-3.07-6.07c-9.57-13.61-19.14-27.22-28.71-40.83c13.75,7.19,22.03,23.37,36.94,27.68
				c1.48,0.43,3.05,0.73,4.56,0.43c3.84-0.75,5.96-4.98,6.48-8.85c0.52-3.87,0.06-7.92,1.36-11.61c1.98-5.58,7.61-9.07,13.29-10.73
				c5.68-1.66,11.68-1.92,17.4-3.44c20.29-5.4,34-25.63,54.24-31.23c19-5.26,39.7,3.49,58.79-1.4c8.44-2.16,16.04-6.88,24.46-9.12
				s18.76-1.24,23.84,5.83c6.26,8.72,1.06,21.12-6.1,29.12c-14.94,16.7-37.02,25.18-58.85,30.22c-21.84,5.04-44.37,7.28-65.63,14.39
				c-1.42,0.47-2.92,1.04-3.77,2.27c-2.5,3.64,2.78,7.62,7.06,8.7c41.3,10.41,84.4-4.54,123.77-20.79c2.25-0.93,4.63-1.88,7.04-1.54
				c2.41,0.34,4.74,2.51,4.33,4.91c-0.21,1.19-1.02,2.18-1.86,3.05c-7.37,7.66-18.22,10.54-28.11,14.41
				c-9.9,3.87-20.22,10.14-22.88,20.43c14.5-0.54,28.94-2.85,42.89-6.86C1190.89,868.13,1187.37,873.32,1186.34,872.25z"/>
			<path class="st4" d="M923.23,837.82c-25.18,26.23-51.21,53.08-84.36,68.03c-39.27,17.72-85.45,16.66-126.15,2.52
				c11.69,0.63,23.47-0.54,34.81-3.44c1.48-0.38,3.15-0.97,3.65-2.41c0.52-1.51-0.57-3.09-1.72-4.21c-5.13-5-12.32-7.07-18.98-9.7
				s-13.55-6.54-16.12-13.22c41,5.52,84.06,3.71,121.77-13.32c-14.74,1.65-29.57,2.48-44.4,2.48c-16.67,0-33.91-1.19-48.72-8.84
				c-9.34-4.83-17.27-12.01-26.49-17.07c-9.51-5.22-21.47-9.36-24.71-19.71c2.82,0.57,3.62-3.9,2.41-6.51
				c-1.2-2.61-2.92-6-0.83-7.98c0.68-0.64,1.63-0.92,2.54-1.12c7.93-1.76,16.14,0.31,24.11,1.9c14.65,2.93,29.62,4.27,44.56,3.99
				c15.15-0.28,30.33-2.23,45.43-0.91c23.37,2.04,45.39,11.79,65.82,23.32c2.52,1.42,5.11,2.95,6.71,5.36
				c1.14,1.72,1.71,3.8,3.09,5.33c2.18,2.43,5.83,2.87,9.08,2.64c6.23-0.44,12.32-2.76,17.25-6.59c2.16-1.68,4.32-3.73,7.04-3.98
				S924.39,836.61,923.23,837.82z"/>
			<path class="st4" d="M1332.41,784.18c-6.84,36.51-13.67,73.01-20.48,109.52c-2.1,11.22-4.41,22.86-11.37,31.87
				c-4.61,5.95-11.01,10.38-15.42,16.48c-1.52,2.1-2.76,4.35-3.77,6.71c-0.23-6.13,0.18-12.3,0.61-18.43
				c2.3-32.61,4.86-65.37,2.13-97.95c-3.65-43.37-16.58-85.67-18.46-129.11c-0.03-0.46-0.03-0.91-0.03-1.42
				c0.18-0.05,0.35-0.1,0.53-0.18c18.13-6.99,25.09-35.77,44.79-35.97c14.23-0.13,23.09,15.47,26.1,29.37
				C1343.39,724.33,1337.9,754.73,1332.41,784.18z"/>
			<path class="st5" d="M739.56,883.13c4.69,0.8,9.07,3.31,12.12,6.96c0.92,1.1,1.75,2.32,2.92,3.16c1.51,1.08,3.41,1.4,5.24,1.69
				c23.03,3.64,47.5,6.92,68.96-2.22c22.67-9.65,39.53-32.28,63.54-37.52c-33.39-0.46-61.31,26.08-94.2,31.8
				C778.46,890.43,758.35,886.18,739.56,883.13z"/>
			<path class="st5" d="M768.14,853.18c12.63,3.16,25.88,1.21,38.85,0.11c17.45-1.47,35.04-1.34,52.47,0.4
				c12.59,1.26,25.51,3.32,37.72-0.02c-7.76-2.3-14.27-7.5-20.9-12.16c-12.05-8.47-25.06-15.46-38.04-22.42
				c-3.43-1.84-6.96-3.72-10.83-4.21c-10.9-1.39-19.69,8.06-27.75,15.53C789.62,839.71,777.77,847.04,768.14,853.18z"/>
			<path class="st5" d="M1012.41,849.73c14.12-0.52,26.38,8.86,39.39,14.37c13.2,5.59,27.69,7.29,41.99,8.18
				c9.93,0.62,19.98,0.87,29.75-1.04c16.99-3.32,31.99-12.92,46.52-22.33c-15.64-3.48-30.74,6.28-46.08,10.91
				c-17.69,5.34-36.73,3.84-54.93,0.66S1032.85,852.49,1012.41,849.73z"/>
			<path class="st5" d="M1003.51,850.57c4.32-3.93,7.45-9.15,8.9-14.81c26.97,0.14,54.21-2.38,80.17-10.24
				c-9.11-10.48-11.03-25.2-12.57-39c-25.56,5.04-45.73,25.95-71.23,31.33C1005.36,829.11,1001.94,840.37,1003.51,850.57z"/>
			<path class="st143" d="M911.09,853.68c15.71-0.93,31.45-1.49,47.18-1.68c8.63-0.1,17.99,0.14,24.78,5.47
				C960.26,863.02,936.25,863.55,911.09,853.68z"/>
			<path class="st143" d="M887.27,882.75c5.78,9.84,8.69,21.06,12.76,31.73c4.07,10.67,9.72,21.33,19.21,27.68
				C913.61,918.11,902.08,895.46,887.27,882.75z"/>
			<path class="st143" d="M869.19,889.36c-16.62,24.91-33.51,50.43-41.03,79.41c4.5,2.33,9.08-2.9,11.48-7.36
				c3-5.57,6-11.15,9.01-16.72C859.19,925.09,870.04,904.29,869.19,889.36z"/>
			<path class="st3" d="M644.88,848.03c-1.25,21.53-2.1,43.35,2.23,64.48c4.34,21.13,14.4,41.79,31.47,54.98
				c1.47-16.86-8.02-32.42-14.47-48.07c-9.5-23.04-12.74-48.63-9.28-73.31c0.35-2.51,0.76-5.15-0.15-7.52
				c-0.91-2.37-3.69-4.22-6-3.17C645.79,836.72,645.3,840.76,644.88,848.03z"/>
			<path class="st3" d="M938.67,872.66c-2.53,14.3-2.05,29.13,1.39,43.23c0.49,2.01,1.41,4.36,3.44,4.72
				c3.05,0.55,4.49-3.61,4.68-6.7c0.63-10.13,1.26-20.27,1.88-30.4c0.21-3.33,0.39-6.81-0.95-9.87
				C947.78,870.58,944.42,868.13,938.67,872.66z"/>
			<path class="st3" d="M898.28,818.61c1.56-5.11,1.43-10.69,3.53-15.59c1.83-4.27,5.2-7.65,8.48-10.93
				c2.8-2.79,5.89-5.73,9.81-6.25c0.8-0.11,1.67-0.09,2.34,0.36c1.45,0.97,1.11,3.16,0.58,4.83c-1.18,3.76-2.48,7.65-5.22,10.49
				c-2.8,2.89-6.86,4.43-9.33,7.61c-3.43,4.42-2.89,10.73-5.19,15.82c-0.38,0.83-1.06,1.76-1.96,1.62
				c-0.46-0.07-0.84-0.41-1.15-0.76C896.95,822.16,897.31,816.62,898.28,818.61z"/>
			<path class="st3" d="M928.64,812.54c0.13,4.06,0.71,8.1,1.72,12.03c3.1,0.95,6.22,1.91,9.44,2.28c2.27,0.26,5.19-0.2,5.79-2.41
				c0.21-0.76,0.06-1.58-0.15-2.34c-1.84-6.65-9.15-11.28-15.95-10.1C928.95,813.21,928.76,814.57,928.64,812.54z"/>
			<path class="st3" d="M1015.6,724.84c0.81,4.51-0.72,9.07-2.07,13.45s-2.54,9.13-1.08,13.48c1.46,4.34,6.68,7.7,10.74,5.57
				c2.16-1.13,3.42-3.43,4.34-5.69c2.64-6.5,3.43-13.75,2.24-20.67C1029.01,726.58,1025.27,721.28,1015.6,724.84z"/>
			<path class="st3" d="M1265.32,804.59c2.84,32.96-3.77,65.89-8.01,98.7c-4.24,32.81-5.94,67.18,6.11,97.99
				c21.41-56.69,26.45-119.45,14.36-178.83C1275.64,811.93,1271.18,799.66,1265.32,804.59z"/>
			<path class="st3" d="M663.89,709.12c-1.63,26.65,17.87,50.08,21.62,76.51c1.38,9.74-0.07,21.03-7.9,27
				c-1.28,0.98-2.84,1.81-4.44,1.58c-2.95-0.43-4.18-3.95-4.77-6.88c-1.56-7.73-2.96-15.5-4.18-23.29
				c-0.71,8.15-1.41,16.3-2.12,24.44c-0.09,1.04-0.23,2.19-0.99,2.91c-2.45,2.33-5.3-2.47-5.3-5.84
				c-0.01-20.78-0.03-41.57-0.04-62.35c-0.02-23.42-0.02-46.97,3.82-70.08c1.51-9.11,5.45-19.94,14.58-21.33
				c4.99,11.07-1.71,23.48-5.51,35.01C665.04,697.84,664.09,709.76,663.89,709.12z"/>
			<path class="st3" d="M571.45,734.09c13.2,1.1,25.31,10.67,29.43,23.27c2.71,8.29,2.46,18.05,8.34,24.49
				c3.54-4.77,2.16-11.43,0.62-17.17c-2.61-9.76-5.44-19.91-12.2-27.41C590.89,729.76,578.92,725.9,571.45,734.09z"/>
			<path class="st3" d="M1320.06,687.37c-11.62,7.79-22.29,17.01-31.7,27.37c-4.1,4.51-8.2,10.09-7.2,16.11
				c2.6,0.65,4.95-1.57,6.71-3.59c10.18-11.66,20.35-23.32,30.53-34.98c1.3-1.49,2.69-3.36,2.1-5.25
				C1318.75,686.84,1317,686.65,1320.06,687.37z"/>
			<path class="st3" d="M691.38,835.48c16.3,5.9,31.19,15.67,43.1,28.27c-6.81,4.31-15.4-1.25-21.48-6.54
				C704.25,849.59,695.5,841.97,691.38,835.48z"/>
			<path class="st3" d="M688.06,873.47c9.37,2.42,18.89,4.9,27.19,9.87c2.13,1.27,4.41,3.2,4.18,5.67
				c-0.41,4.26-6.69,4.13-10.72,2.7c2.54,1.93,5.8,2.88,8.97,2.62c0.19,5.53-6.38,9.38-11.81,8.31s-9.57-5.45-12.76-9.97
				c-3.19-4.52-5.92-9.52-10.23-12.99c-3.03-2.43-6.7-3.99-9.57-6.61c-2.87-2.62-4.82-6.94-3.04-10.39
				C678.6,864.65,686.32,869.13,688.06,873.47z"/>
			<path class="st4" d="M1003.69,860.77c-0.68,22.88-7.63,45.59-5.01,68.32c4.56-1.23,9.62-0.5,13.64,1.98
				c0.37-24.94,0.74-49.89,1.11-74.83C1009.33,855.6,1003.81,856.91,1003.69,860.77z"/>
			<path class="st4" d="M1144.21,991.62c16.86,1.78,34.41-5.39,45.21-18.46c10.03-12.14,14.13-28.36,24.31-40.37
				c4.72-5.57,12.27-10.36,18.99-7.5c2.37,1.01,4.28,2.85,5.95,4.81c8.79,10.31,12.08,24.09,15.09,37.3
				c1.93,8.46,3.86,16.91,5.78,25.37c1.06,4.64,2.11,9.52,0.76,14.08c-3.16,10.67-16.84,13.51-27.97,13.43
				c-29.23-0.2-58.39-7.45-84.31-20.97C1147.76,998.24,1147.51,997.19,1144.21,991.62z"/>
			<path class="st4" d="M644.41,777.65c0.1-0.81,0.18-1.65,0.28-2.46c0.15-0.3,0.3-0.61,0.38-0.86
				C644.89,775.04,644.66,776.13,644.41,777.65z"/>
			<path class="st4" d="M645.44,773.14c0,0.1-0.1,0.56-0.38,1.19C645.27,773.57,645.39,773.19,645.44,773.14z"/>
			<path class="st4" d="M1274.68,797.19c-5.32,5.44-13.85-1.85-17.62-8.46c-29.87-52.53-48.56-111.39-54.41-171.54
				c-2-20.63-2.56-41.67-9.11-61.34c-12.23-36.61-46.23-65.01-84.43-70.48c-40.2-5.75-79.57,11.95-119.52,19.16
				c-69.97,12.68-141.16-6.96-211.67-16.28c-26.94-3.54-56.84-4.84-78.48,11.57c-24.13,18.33-29.39,51.85-32.81,81.95
				c-7.32,64.48-14.63,128.94-21.95,193.42c-1.39,2.81-4.94,7.14-12.18,4.46c-3.97-1.49-4.46-24.99-7.16-28.28
				c-10.43-12.66-10.33-30.33-9.06-48.66c4.15-11.62,4.81-24.94,5.19-37.49c1.72-59.77,3.87-121.82,31.06-175.09
				c33.9-66.43,102.56-109.27,173.95-130.84c71.39-21.6,146.76-25.01,220.96-32.38c12.63-1.27,25.57-2.61,37.82,0.63
				c9.16,2.43,17.47,7.32,25.62,12.15c39.27,23.24,79.82,47.7,105.34,85.52c20.89,30.94,29.9,68.41,34.71,105.47
				c5.06,38.99,5.9,78.56,2.48,117.72c-1.65,18.96-3.22,40.96,10.71,53.95c0.68-0.2,1.37-0.43,2.03-0.68
				c5.37,24.13,11.47,44.43,3.52,72.51C1269.11,776.08,1276.08,795.77,1274.68,797.19z"/>
			<path class="st5" d="M1139.29,1318.66c-28.96,40.58-62.38,73.72-113.24,80.76c-48.25,6.68-145.92-9.49-169.27-39.11
				c-23.27-29.57-43.59-59.82-62-90.68c16.35-23.72,50.15-30.1,79.42-27.47c30.78,2.76,61.44,12.51,92.05,8.1
				c20.73-2.96,40.73-12.4,61.65-11.04c12.18,0.81,23.82,5.29,34.76,10.71c24.58,12.18,46.66,29.39,64.48,50.28
				C1131.9,1305.8,1136.48,1311.92,1139.29,1318.66z"/>
			<path class="st4" d="M1270.25,1008.58l-0.15,0.71l-6.25,30.89c-81.85,7.8-164.3,9.34-246.38,4.66
				c-66.86-3.82-135.72-11.54-199.44,9.14c-25.7,8.33-50.18,21.22-76.94,24.91c-13.27,1.85-26.84,1.34-39.95-1.44
				c-1.11-0.23-2.23-0.48-3.32-0.76c-0.03,0-0.03,0-0.03,0c-7.87-17.14-15.82-34.43-24.03-51.87
				c29.29-19.52,60.08-36.84,91.97-51.67c7.27-3.37,15.37-6.68,23.01-4.38c5.29,1.59,9.49,5.67,14.66,7.62
				c6.76,2.56,14.3,1.24,21.29-0.53c36-9.11,68.38-28.86,103.42-41.11c49.14-17.14,103.49-19.01,153.67-5.27
				c5.7,1.54,12.58,5.14,11.77,10.99c-0.28,2.03-1.54,3.92-1.22,5.95c0.41,2.35,2.79,3.75,4.91,4.84
				c40.18,20.46,81.11,41.19,125.54,48.66c15.9,2.68,32.23,3.67,47.42,8.68H1270.25z"/>
			<path class="st5" d="M1291.74,842.35c0.79-10.89,1.53-22.18-2.27-32.42c-2.54-6.86-7-12.88-9.51-19.74
				c-2.61-7.14-3.01-15.07-1.12-22.43c1.19-4.64,4.05-9.66,8.81-10.25c3.21-0.4,6.38,1.47,8.35,4.04c1.96,2.57,2.92,5.76,3.69,8.9
				c1.47,6.03,2.36,12.2,4.17,18.13c2.24,7.33,5.86,14.24,7.29,21.77c2.02,10.64-0.69,22.09-7.27,30.7
				c-1.43,1.87-3.11,3.66-5.29,4.51c-2.79,1.09-6.2,0.36-8.31-1.77C1288.16,841.64,1287.48,838.22,1291.74,842.35z"/>
			<path class="st5" d="M1325.69,772.04c-5.85-10.31-11.7-20.61-17.55-30.92c-2.54-4.48-5.16-9.21-5.19-14.36
				c-0.04-7.49,5.29-13.8,10.32-19.35c3.24-3.58,6.49-7.16,9.73-10.74c1.01-1.11,2.4-2.33,3.81-1.83c0.81,0.29,1.33,1.08,1.72,1.84
				c1.97,3.84,2.37,8.26,2.65,12.57c0.97,15.13,0.87,30.32-0.29,45.44C1330.36,761.71,1329.11,769.57,1325.69,772.04z"/>
		</g>
		<g>
			<path class="st141" d="M1303.42,592.33c-4.15,19.52-11.87,38.13-15.92,57.67c-4.46,21.65-4.3,43.92-4.94,66.03
				c-0.84,29.59-3.16,59.16-6.94,88.53c-4.61-2.58-8.35-6.1-11.37-10.23c-7.9-10.73-10.91-25.67-11.7-39.42
				c-1.11-19.01,0.1-39.24-9.27-55.82c-8.2-14.48-23.7-24.46-29.27-40.13c-5.14-14.53-0.58-30.48-0.35-45.9
				c0.38-26.66-12.23-51.54-24.53-75.19c-15.37-29.52-33.29-61.39-64.4-73.22c-7.54-2.86-15.14-4.35-22.76-4.73
				c-50-2.61-101.29,41.01-154.25,37.49c-10.53-0.68-21.11-3.27-31.49-1.34c-5.97,1.14-11.87,3.77-17.92,3.09
				c-9.49-1.09-16.71-11.65-14.25-20.89c-10.3,4.48-21.27,9.09-32.4,7.59c-11.16-1.49-21.95-11.62-19.82-22.66
				c-15.6,3.57-31.19,7.14-46.76,10.68c-0.15-10.18-0.28-20.33-0.41-30.51c-18.91,13.29-41.95,20.61-65.06,20.68
				c-8.3,0.03-17.01-0.78-24.53,2.76c-0.81,0.38-1.57,0.78-2.3,1.27c-9.67,5.9-14.13,18.08-17.16,29.27
				c-32.78,120.94-7.37,252.61-44.78,372.18c-0.94-8.66-1.92-17.22-3.01-25.72v-0.08c-5.19-41.11-12.33-80.41-24-118.33
				c-14.53-47.14-36.08-92.33-44.73-140.89c-15.65-87.87,15.16-182.71,79.52-244.61c17.52-16.89,37.22-31.32,56.84-45.7
				c39.95-29.27,80.53-58.89,126.76-76.68c32.96-12.68,67.97-19.01,102.73-25.27c20.66-3.72,41.49-7.47,62.48-6.84
				c23.75,0.71,46.99,6.99,69.37,14.96c45.7,16.28,89.16,40.03,124.68,73.06c19.11,17.77,35.72,38.05,52.28,58.23
				c19.97,24.35,40.25,49.24,51.82,78.53c8.99,22.78,12.35,47.34,15.65,71.6C1306.18,518.53,1311.11,556.1,1303.42,592.33z"/>
			<path class="st140" d="M692.76,468.1c-9.67,5.9-14.13,18.08-17.16,29.27c-32.78,120.94-7.37,252.61-44.78,372.18
				c-0.94-8.66-1.92-17.22-3.01-25.72v-0.08c0.51-11.22,0.99-22.41,1.49-33.62c1.24-27.97,2.46-55.92,4.23-83.87
				c2.15-34.08,4.96-69.24-6.13-101.52c-1.95-5.65-4.3-11.24-4.66-17.19c-1.14-20.35,20.73-34.48,26.48-54.05
				c9.77-33.16-29.24-65.54-21.21-99.19c3.59-15.09,15.92-26.28,27.77-36.28c9.72,4.2,18.84,9.82,26.99,16.58
				c4.51-2.84,9.09,13.19,9.85,28.43C692.68,464.71,692.73,466.4,692.76,468.1z"/>
			<path class="st140" d="M709.77,323.28c28.83,7.24,60.73,1.15,84.87-16.2c-6.22,9.15-11.52,18.91-15.81,29.1
				c11.57-6.08,23.14-12.17,34.71-18.25c-3.98,7.25-7.97,14.51-11.95,21.76c32.87-32.62,74.25-56.6,118.9-68.9
				c-44.71,26.2-85.49,59.08-120.57,97.21c-10.12,9.87-20.05,19.94-29.77,30.19c-1.37,1.44-2.84,3.4-2.04,5.22
				c0.8,1.82,4.54,0.3,3.15-1.12c-13.98,11.77-26.46,25.32-37.04,40.23c2.27-16.27,7.7-32.09,15.89-46.32
				c-14.06,7.26-29.28,12.26-44.91,14.78c8.71-9.26,18-17.99,27.79-26.1c-14.12-2.49-28.23-4.98-42.35-7.47
				c-3.16-0.56-6.49-1.19-8.91-3.3c-7.38-6.42-3.05-22.85-12.62-24.85c19.91,0.13,39.83,0.26,59.74,0.39
				c-14.01-3.04-27.4-8.92-39.13-17.18C701.94,329.13,714.61,327.48,709.77,323.28z"/>
			<path class="st140" d="M806.71,392.22c27.66-23.26,59.33-41.75,93.18-54.4C877.28,368.31,833.66,375.65,806.71,392.22z"/>
			<path class="st140" d="M817.14,436.45c17.34-26.45,39.7-49.59,65.54-67.83c-16.87,14.39-29.62,33.56-36.35,54.69
				c15.94-16.78,32.62-34.07,54.21-42.42c-5.86,12.31-13.43,23.8-22.43,34.04c20.23-20.17,43.34-41.66,71.89-42.62
				c-26.8,26.37-51.98,54.38-75.35,83.84c0.64-7.56,2.61-15,5.81-21.87c-11.31,11.2-24.66,20.33-39.21,26.79
				c-0.01-4.63-0.03-9.25-0.04-13.88c-11.88,7.3-23.77,14.6-35.65,21.9c-0.34-14.9,13.49-26.03,18.53-40.05
				c0.33-0.9,0.5-2.14-0.33-2.62S822.33,427.92,817.14,436.45z"/>
			<path class="st140" d="M912.04,439.33c18.64-25.02,38.44-51.01,66.7-64.22c11.19-5.23,23.42-8.28,33.95-14.74
				c8.02-4.92,16.24-12.05,25.48-10.27c-19.11,12.1-37.11,25.97-52.64,48.43c12.05-12.22,27.71-20.83,44.49-24.44
				c-13.89,8.43-25.93,19.9-35.01,33.37c11.59-6.33,23.17-12.66,34.76-18.99c8.21-4.48,16.86-9.09,26.21-9.1
				c-8.28,6.66-15.85,14.21-22.51,22.49c6.47,0.18,12.97-0.74,19.13-2.69c-16.26,8.39-32.51,16.77-48.77,25.16
				c-8.75,4.52-17.6,9.09-25.02,15.57c-5.18,4.53-9.56,9.89-14.36,14.82c-7.1,7.29-15.16,13.64-23.9,18.85
				c3.43-8.89,7.91-17.38,13.32-25.23c-14.51,8.91-29.41,17.21-44.62,24.87c2.73-8.91,6.87-17.38,12.21-25.02
				c-10.1-1.97-21.13,1.77-27.95,9.48C898.73,449.09,904.21,440.66,912.04,439.33z"/>
			<path class="st140" d="M1054.09,322.28c-43.89-11.61-88.12,25.21-133.14,19.42c4.53-2.81,9.06-5.62,13.6-8.42
				c-9.97-2.16-19.94-4.32-29.91-6.48c-1.23-0.27-2.54-0.58-3.4-1.5c-2.69-2.89,1.54-7.02,5.14-8.63
				c7.35-3.29,14.69-6.59,22.04-9.88c-5.8-4.63-12.95-7.57-20.34-8.35c11.28-1,22.44-3.25,33.22-6.7c1.21-0.39,2.64-1.06,2.71-2.34
				s-2.54-1.4-2.08-0.21c6.95-1.09,14.14-0.58,20.87,1.47c-5.77,3.81-11.53,7.63-17.3,11.44c9.64,0.99,19.29,1.98,28.93,2.97
				c-3.27,2.33-6.54,4.66-9.81,6.99C997.72,304.86,1033.06,308.38,1054.09,322.28z"/>
			<path class="st140" d="M1027.6,226.68c-24.24-17.26-54.67-25.62-84.33-23.17C970.71,212.17,998.14,220.84,1027.6,226.68z"/>
			<path class="st140" d="M944.92,238.24c-26.83-2.43-56.16-4.24-78.31,11.1c29.02-2.2,58.34-0.45,86.89,5.2
				c-3.9,3.16-7.79,6.33-11.69,9.49c20.53-3.12,41.68-2.15,61.85,2.84c10.33,2.55,21.4,6.12,31.26,2.11
				c-6.74-5.1-15.23-7.15-23.46-9.07c-16.44-3.86-32.88-7.71-49.31-11.57c8.27,0.58,16.53,1.17,24.8,1.75
				C965.71,237.64,941.07,231.07,944.92,238.24z"/>
			<path class="st140" d="M819.83,246.85c-20.44,8.64-40.88,17.29-61.32,25.93c12.61-3.66,25.47-6.49,38.45-8.48
				c-7.3,6.71-14.6,13.42-21.9,20.13c13.29-2.27,26.34-5.94,38.86-10.92c-0.65,2.37-2.96,4.17-5.41,4.22
				c15.24-14.36,31.11-28.07,47.55-41.05C835.23,237.03,815.99,247.2,819.83,246.85z"/>
			<path class="st140" d="M1134.11,269.45c-19.45-6.67-38.91-13.33-58.36-20c12.49,7.12,24.36,15.33,35.42,24.52
				c-21.24-7.62-42.98-13.82-65.04-18.55c11.82,6.11,23.01,13.43,33.35,21.81c-13.01,0.55-26.02,1.09-39.02,1.64
				c24.87,10.25,50.1,20.71,71.23,37.35c-20.74-10.33-42.91-17.79-65.67-22.1c39.52,5.7,73.58,30.89,112.23,40.92
				c-10.06-12.54-20.91-24.45-32.46-35.63c11.41,0.81,22.69,3.57,33.17,8.14c-7.73-8.22-15.87-16.05-24.39-23.46
				c9.4,3.77,19.14,6.69,29.07,8.69C1146.45,282.89,1129.26,273,1134.11,269.45z"/>
			<path class="st142" d="M878.35,296.01c-17.02,8.2-32.23,20.12-44.28,34.67c7.41-3.09,14.82-6.18,22.23-9.27
				c-9.58,9.78-19.16,19.57-28.75,29.35c7.79-4.56,16.09-8.24,24.69-10.94c-8.03,6.4-15.15,13.95-21.06,22.35
				c12.15-5.07,24.75-9.07,37.59-11.95c-9.27,6.81-17.44,15.11-24.09,24.5c11.62-7.76,25.1-12.72,38.97-14.36
				c-10.13,9.49-19.06,20.27-26.51,31.99c11.34-7.2,23.67-12.84,36.54-16.7c-8.93,7.77-16.12,17.51-20.91,28.33
				c13.05-5.3,26.11-10.59,39.16-15.89c-8.68,9.61-16.1,20.35-22.01,31.86c9.68-8.45,21.89-13.96,34.63-15.64
				c-6.95,7.85-11.99,17.38-14.56,27.54c10.53-6.08,21.05-12.17,31.58-18.25c2.2-1.27,5.43-2.36,6.92-0.3
				c1.05,1.46,0.35,3.49-0.42,5.12c-3.8,8.01-8.6,15.55-14.26,22.37c20.77-16.82,41.53-33.65,62.3-50.47
				c-6.58,2.1-13.15,4.19-19.73,6.29c3.38-4.85,6.76-9.69,10.15-14.54c1.04-1.48,2.12-3.33,1.38-4.99
				c-0.76-1.72-2.98-2.12-4.85-2.25c-10.12-0.7-20.31-0.33-30.36,1.12c2.36-3.42,4.72-6.84,7.08-10.25
				c-13.24-1.3-26.48-2.61-39.73-3.91c4.9-5.02,9.8-10.04,14.7-15.06c-10.88,1.28-21.76,2.56-32.64,3.83
				c7.53-5.85,14.44-12.49,20.58-19.78c-12.93-1.31-25.99-1.41-38.94-0.29c5.6-5.81,11.2-11.61,16.8-17.42
				c-6.84-5.69-16.49-7.81-25.08-5.51c5.09-4.82,10.18-9.64,15.27-14.47C880.23,297.07,869.7,301.04,878.35,296.01z"/>
			<path class="st142" d="M965.09,263.82c22.92-0.86,45.97,2.15,67.9,8.87c-16.24,3.34-32.48,6.68-48.73,10.02
				c10.05,1.94,20.09,3.89,30.14,5.83c-11.58,3.01-22.79,7.43-33.3,13.13c12.22,1.56,24.48,2.74,36.77,3.53
				c-4.68,3.62-10.97,5.06-16.76,3.84c4.52-0.73,9.04-1.46,13.57-2.19c-31.32-2.06-62.64-4.11-93.95-6.17
				c8.86-5.55,18.2-10.35,27.87-14.31c-16.1-2.7-32.34-4.61-48.62-5.74c6.51-7.55,16.69-10.62,26.35-13.06
				C945.1,262.83,964.13,259.09,965.09,263.82z"/>
			<path class="st142" d="M999.09,190.93c35.13,6.47,69.62,16.49,102.75,29.86c-16.09-1.73-32.35-1.79-48.45-0.17
				c34.66,9.29,70.1,18.92,99.57,39.39c-38.49-8.91-77.67-14.86-117.07-17.76c4.75,4.97,10.95,8.53,17.63,10.15
				c-23.86-4.42-48.01-7.27-72.25-8.51c2.9-0.42,5.8-0.83,8.7-1.25c-26.74-6.44-54.52-8.54-81.92-6.18
				c7.16-1.94,14.32-3.88,21.48-5.82c-28.22,1.71-56.5,2.46-84.76,2.26c15.99-10.45,35.64-13.2,54.57-15.7
				c-14.6-0.08-29.19-0.17-43.79-0.25c25.27-10.49,52.08-17.24,79.3-19.98c-7.21-0.05-14.41-0.1-21.62-0.15
				C944.48,190.11,976.8,186.82,999.09,190.93z"/>
			<path class="st142" d="M1187.11,296.34c31.35,17.5,57.62,43.96,74.88,75.44c2.9,5.29,5.62,11.45,3.71,17.17
				c-21.52-10.25-41.56-23.62-59.29-39.54c12.96,11.05,24.27,24.04,33.43,38.4c-14.56-6.38-29.34-12.24-44.31-17.59
				c6.39,6.63,12.79,13.26,19.18,19.88c-14.08-19.21-39.65-28.01-52.04-48.35c5.25,2.35,10.99,3.6,16.74,3.64
				c-5.9-18.45-17.49-35.04-32.79-46.93c11.31,4.89,23.01,8.89,34.95,11.93c-6.96-10.21-13.91-20.42-20.87-30.63
				C1179.02,287.41,1195.81,298.68,1187.11,296.34z"/>
			<path class="st142" d="M642.59,347.12c-41.85,36.17-69.77,88.07-76.9,142.92c6.32-16.26,14.52-32.56,28.36-43.17
				c-13.63,19.29-23.54,41.2-29.02,64.18c4.11-7.65,8.22-15.31,12.33-22.96c-2.73,11.3-3.63,23.03-2.65,34.61
				c13.05-42.19,31.44-82.72,54.59-120.32c-2.08,9.21-5.98,18-11.4,25.73c6.85-16.85,18.29-31.81,32.75-42.85
				c-9.96,11.8-18.51,24.79-25.41,38.6c7.48-15.42,21.31-26.83,30.17-41.5c8.79-14.55,12.29-31.59,15.64-48.25
				C651.54,345.04,633.46,358.51,642.59,347.12z"/>
			<path class="st142" d="M577.18,557.75c-3.46,17.68-6.38,36.12-1.75,53.53c3.29,12.38,10.18,23.42,15.9,34.88
				c9.09,18.19,15.33,37.64,21.53,57.01c-2.62-17.38-5.24-34.75-7.86-52.13c2.79,5.52,5.57,11.05,8.36,16.57
				c-2.62-21.89-4-43.93-4.14-65.98c1.97,6.65,3.93,13.3,5.9,19.95c-0.53-22.58,1.8-45.22,6.93-67.22
				c0.16,3.83,0.32,7.65,0.48,11.48c2.85-21.35,5.19-42.76,7.01-64.22c-3.47,4.04-6.93,8.07-10.4,12.11
				c1.59-10.23,1.82-20.66,0.67-30.95c-7.83,14.17-15.67,28.34-23.5,42.52c-1.19-3.18-2.38-6.36-3.58-9.53
				c-5.18,9.33-9.28,19.25-12.22,29.51c-1.97-10.21-3.95-20.42-5.92-30.63c-5.3,13.17-6.87,27.81-4.49,41.81
				c-0.73-5.83-1.47-11.66-2.2-17.49C566.81,552.42,568.76,566.09,577.18,557.75z"/>
			<path class="st140" d="M1083.54,344.05c31.87,7.11,62.66,19.03,91,35.24c-22.52-5.77-45.67-9.08-68.91-9.85
				c8.79,2.73,17.24,6.54,25.1,11.33c-10.92-0.27-21.84-0.55-32.76-0.82c2.09,1.17,4.18,2.33,6.27,3.5
				c-14.06-3.96-27.77-9.2-40.89-15.62c3.81,0.3,7.73-0.92,10.69-3.34c-9.1-5.91-18.19-11.82-27.29-17.72
				C1065.44,348.66,1084.27,349.04,1083.54,344.05z"/>
			<path class="st140" d="M1239.98,418.85c20.56,31.85,41.8,65.71,43.41,103.59c-14.49-21.6-29.83-42.63-45.98-63.03
				c4.08,16.7,8.17,33.4,12.25,50.1c-7.52-11.11-15.05-22.22-22.57-33.33c-1.59,11.5-1.98,23.17-1.15,34.76
				c-10.15-16.13-18.48-33.4-24.81-51.37c1.55,4.7,3.1,9.4,4.65,14.09c-4.34-18.93-11.87-37.12-22.19-53.58
				c9.01,4.54,17.53,10.05,25.36,16.41c-4.34-12.47-8.68-24.93-13.02-37.4c10.7,5.62,21.73,10.62,33.01,14.97
				c0.03-1.5,0.06-3,0.08-4.5C1234.02,414.83,1238.53,420.56,1239.98,418.85z"/>
			<path class="st140" d="M998.74,464.19c16.92-24.27,39.06-44.89,64.47-60.05c9.07-5.41,18.72-10.19,29.11-12.06
				c10.39-1.87,21.69-0.57,30.42,5.38c-7.77,0.39-15.32,3.99-20.52,9.77c9.43-1.74,19.19-1.7,28.61,0.11
				c-12.52,4.95-25.03,9.9-37.55,14.86c3.23,0.35,6.46,0.7,9.69,1.05c-22.24,3.15-45.75,6.86-62.93,21.33
				c-6.09,5.13-11.12,11.43-17.27,16.48C1016.54,466.16,1009.31,469.87,998.74,464.19z"/>
			<path class="st140" d="M1264.25,794.33c-7.9-10.73-10.91-25.67-11.7-39.42c-1.11-19.01,0.1-39.24-9.27-55.82
				c-8.2-14.48-23.7-24.46-29.27-40.13c-5.14-14.53-0.58-30.48-0.35-45.9c0.38-26.66-12.23-51.54-24.53-75.19
				c-15.37-29.52-33.29-61.39-64.4-73.22c-7.54-2.86-15.14-4.35-22.76-4.73c19.72-15.42,49.14-17.82,70.81-5.04
				c16.58,9.77,27.8,26.66,35.72,44.2c8.51,18.89,13.85,39.01,19.14,59.04c3.82,14.38,7.67,29.11,6.43,43.95
				c-0.89,10.78-4.43,21.27-4.71,32.1c-0.89,35.57,32.73,63.39,37.77,98.61C1270,752.96,1263.32,774.46,1264.25,794.33z"/>
		</g>
		<g>
			<g>
				<path class="st119" d="M1405.65,1125.52c-26.25,29.87-45.22,66.13-54.81,104.73c-1.52,6.08-2.94,12.48-6.96,17.29
					c-4.84,5.8-12.68,8.23-20.2,9.06c-32.18,3.59-61.67-16.13-89.44-32.81c-6.56-3.92-13.47-7.85-21.09-8.56
					c-14.46-1.39-27.09,8.66-39.92,15.44c-25.7,13.59-57.65,14.66-84.2,2.81c-11.82-5.29-24.46-13.16-36.76-9.11
					c-7.39,2.43-12.73,8.76-17.7,14.76c-7.72,9.39-15.7,18.86-24.05,27.97c-19.39,21.22-40.78,40.56-65.72,52.48c0,0,0,0,0,0.03
					c-8.63,4.13-17.67,7.37-27.22,9.49c-1.49,0.33-3.09,0.63-4.66,0.76c-2.86,0.25-5.72-0.05-8.05-1.62
					c-3.24-2.18-4.61-6.15-5.7-9.9c-8.35-28.81-11.49-59.49-25.22-86.18c-13.75-26.68-42.84-49.04-72.05-42.25
					c-15.14,3.52-27.49,14.08-39.44,24c-30.38,25.16-64.05,49.04-103.01,55.27c-11.04,1.77-22.84,1.97-32.91-2.89
					c-25.27-12.25-26.73-47.06-18-37.39c-4.86-10.46-9.72-20.89-14.58-31.34c-14.2-30.48-28.38-60.96-42.56-91.44
					c75.54-38.61,149.59-80.13,221.95-124.43c12.76,11.57,25.54,23.14,38.3,34.71c53.16-47.19,120.53-77.95,190.81-88.13h0.03
					c14.25-2.08,28.58-3.32,42.96-3.65c5.57-0.13,11.17-0.13,16.73,0c0.38,12.56,0.73,25.09,1.11,37.65
					c23.11-11.67,47.16-21.54,71.82-28.05c21.34,9.14,20.46,44.08,41.54,53.8c12.15,5.59,26.28,0.18,39.67,0.13
					c22.58-0.08,41.97,15.11,59.34,29.52C1318.99,1053.62,1362.33,1089.57,1405.65,1125.52z"/>
				<path class="st171" d="M1016.28,1156.99c-1.97,15.01,1.87,30.08,3.14,45.16c1.9,22.23-1.8,43.97-8.91,64.96
					c-19.39,21.22-40.78,40.56-65.72,52.48c0.63-7.14,2.33-14.05,5.92-20.3c3.95-6.91,9.87-12.43,14.91-18.58
					c19.67-24.1,24.78-58.61,15.14-88.18c-2.08-6.33-4.76-12.48-5.77-19.06c-2.48-15.85,5.01-31.37,11.7-45.95
					c14.48-31.67,26.1-64.66,34.66-98.43c4.28-16.89,8.63-35.34,22.25-46.2c-9.01,11.85-10.76,28.81-4.35,42.25
					c3.19,6.68,8.13,12.38,11.19,19.11c8.38,18.46,0.96,40.18-8.94,57.87C1031.59,1119.82,1018.94,1136.89,1016.28,1156.99z"/>
				<path class="st171" d="M974.03,1227.32c-4.53,11.77-15.8,19.27-24.66,28.25c-19.62,19.87-27.67,47.37-36.46,74.3
					c-2.86,0.25-5.72-0.05-8.05-1.62c-3.24-2.18-4.61-6.15-5.7-9.9c-8.35-28.81-11.49-59.49-25.22-86.18
					c-13.75-26.68-42.84-49.04-72.05-42.25c-15.14,3.52-27.49,14.08-39.44,24c-30.38,25.16-64.05,49.04-103.01,55.27
					c-11.04,1.77-22.84,1.97-32.91-2.89c-25.27-12.25-26.73-47.06-18-37.39c-4.86-10.46-9.72-20.89-14.58-31.34
					c25.06-10.63,51.09-18.99,77.67-24.89c11.49-2.56,23.6-4.89,32.78-12.28c4.35-3.54,7.82-8.05,12.13-11.65
					c9.01-7.52,20.86-10.48,32.25-13.22c40.58-9.77,81.14-19.52,121.7-29.27c14.4-3.44,33.54-4.89,40.13,8.41
					c5.27,10.68-1.75,24.84,4.53,34.94c2.23,3.57,5.8,6.05,9.34,8.3c13.06,8.38,27.14,15.62,37.8,26.91
					C972.94,1196.1,979.62,1212.86,974.03,1227.32z"/>
				<path class="st171" d="M1045.44,924.63c-4.53,5.92-10.86,10.51-16.05,15.97c-21.62,22.73-24.1,60.35-49.19,79.19
					c-0.96,0.73-2.03,1.44-3.21,1.59c-2.53,0.3-4.71-2.1-5.14-4.61c-0.41-2.51,0.48-5.01,1.34-7.39
					c9.75-26.99,19.47-53.97,29.22-80.96c0.03-0.05,0.03-0.1,0.05-0.15h0.03C1016.73,926.2,1031.06,924.96,1045.44,924.63z"/>
			</g>
			<path class="st171" d="M1198.68,1147.7c-34.42-43.92-67.16-89.15-98.13-135.57c4.96-4.91,13.07,0.3,17.88,5.35
				c39.27,41.19,77.96,82.92,116.65,124.65c15.22,16.42,30.45,32.84,45.67,49.25C1247.39,1187.04,1216.13,1169.96,1198.68,1147.7z"
				/>
		</g>
		<g>
			<path class="st2" d="M981.72,1219.65v0.03c-0.15,0.94-0.35,1.87-0.61,2.81c-3.01,10.99-12.23,18.46-22.38,24.35
				c-2.78,1.62-5.62,3.11-8.43,4.53h-0.03c-0.51,0.25-1.01,0.51-1.52,0.76c-1.8,0.89-3.57,1.8-5.37,2.68
				c-0.03,0-0.05,0.03-0.08,0.03c-4.38,2.18-8.71,4.35-13.09,6.53c-0.13,0.08-0.25,0.13-0.38,0.18c-3.32,1.67-6.66,3.32-9.97,4.99
				c-9.9,4.94-19.77,9.87-29.67,14.84c-8.56,4.25-17.11,8.53-25.67,12.81c0.25,0.46,0.51,0.94,0.76,1.39
				c5.57,10.46,10.96,22.1,7.95,33.47c-0.08,0.33-0.18,0.66-0.3,0.99c-0.25,0.86-0.56,1.7-0.91,2.51c-0.15,0.35-0.3,0.73-0.48,1.09
				c-0.05,0.15-0.1,0.3-0.2,0.43c-0.25,0.53-0.53,1.06-0.81,1.57c-0.33,0.58-0.68,1.16-1.04,1.75c-0.35,0.58-0.73,1.14-1.11,1.7
				c-0.4,0.58-0.81,1.11-1.22,1.67c-0.3,0.41-0.61,0.78-0.91,1.16c-0.43,0.56-0.89,1.11-1.34,1.67c-3.62,4.38-7.7,8.53-10.94,13.14
				c-0.03,0.05-0.08,0.1-0.1,0.15c-0.68,0.99-1.34,2-1.92,3.04c-0.28,0.43-0.53,0.89-0.78,1.32c-0.43,0.76-0.81,1.49-1.19,2.25
				c-0.38,0.76-0.76,1.54-1.11,2.3c0,0-0.03,0-0.03,0.03c-1.19,2.56-2.25,5.19-3.22,7.85c-0.3,0.81-0.58,1.65-0.84,2.48l-0.18,0.43
				c-0.76,2.23-1.47,4.48-2.2,6.71c-1.27,3.92-2.53,7.87-3.97,11.7c-22.58,59.9-89.49,93.65-114.28,152.66
				c-7.7,18.25-10.96,38.23-19.75,55.97c-22.68,45.85-75.85,66.84-111.85,103.19c-4.63,4.68-8.96,9.59-13.04,14.73H222.78
				c47.39-47.65,100.61-90.94,141.09-142.51v-0.03c0.46-0.58,0.94-1.19,1.39-1.8c16.38-21.11,30.58-43.62,41.37-68.41v-0.03
				c0.84-1.92,1.67-3.87,2.46-5.85v-0.03c0.1-0.23,0.18-0.41,0.28-0.63c4.18-10.35,7.67-20.89,10.63-31.57
				c2.13-7.59,3.97-15.24,5.62-22.96v-0.03c10.3-47.67,13.24-97.42,24.43-145.11c2.73-11.57,6.05-23.29,13.09-32.89
				c10.05-13.7,26.23-21.24,41.8-28.08c30.35-13.29,60.99-25.95,91.9-37.85c45.47-17.49,91.54-33.34,138.23-47.14
				c32.99-9.77,66.28-18.51,99.85-26.08c19.47-4.38,40.71-8.2,58.73,0.35c7.52,3.6,13.7,10.28,17.29,17.9
				c1.42,2.96,2.43,6.08,2.99,9.19c1.34,7.42,0.05,14.91-4.86,20.66c-0.41,0.48-0.81,0.94-1.27,1.37
				c16.68-2.63,34.38-4.18,49.95,2.38c1.44,0.61,2.84,1.29,4.2,2.1h0.03c5.14,2.94,9.72,6.99,13.22,11.72c0,0.03,0,0.03,0,0.03
				C980.28,1203.14,983.01,1211.42,981.72,1219.65z"/>
			<path class="st4" d="M842.41,1383.27c-1.27,3.92-2.53,7.87-3.97,11.7c-22.58,59.9-89.49,93.65-114.28,152.66
				c-7.7,18.25-10.96,38.23-19.75,55.97c-22.68,45.85-75.85,66.84-111.85,103.19c-4.63,4.68-8.96,9.59-13.04,14.73h-9.6
				c16.51-25.47,36.76-48.84,60-68.71c16.66-14.25,34.86-26.78,49.7-42.91c14.81-16.13,26.23-36.89,25.37-58.78
				c-0.15-4.2-0.73-8.58,0.91-12.46c1.57-3.59,4.78-6.1,7.8-8.58c18.25-15.04,32.84-34.51,42.18-56.23c1.59-3.72,3.06-7.7,2.48-11.7
				c-1.39-9.75-13.54-13.62-23.44-12.63c-0.03,0.03-0.03,0-0.03,0c-0.3,0.03-0.58,0.05-0.86,0.1c-12.89,1.67-24.68,7.9-36.15,14.03
				c49.04-32.53,92.28-56.99,135.24-76.28C836.2,1385.97,839.32,1384.61,842.41,1383.27z"/>
			<path class="st4" d="M839.52,1135.38c-3.63,12.58,0.67,27.09,10.57,35.66c1,0.87,2.15,1.71,3.47,1.79
				c1.32,0.08,2.78-0.97,2.65-2.29c-0.09-0.88-0.81-1.54-1.46-2.14C845.35,1159.78,840.41,1146.55,839.52,1135.38z"/>
			<path class="st4" d="M933.34,1182.56c-6.85,1.53-13.81,3.1-19.92,6.55s-11.35,9.13-12.55,16.05c-0.81,4.71,0.29,9.55,1.83,14.08
				c1.71,5.06,3.97,9.93,6.71,14.52c2.82,4.72,7.16,9.62,12.64,9.21c1.08-2.43-2.22-4.27-4.54-5.57
				c-6.94-3.89-8.72-12.93-9.57-20.84c-0.49-4.6-0.88-9.4,0.78-13.71c1.34-3.47,3.9-6.33,6.69-8.79
				C921.44,1188.72,928.77,1184.86,933.34,1182.56z"/>
			<path class="st4" d="M710.22,1205.66c1.61,6.8,1.55,14.27-1.7,20.46c-3.26,6.19-10.18,10.7-17.11,9.74
				c-2.32-0.32-4.65-1.31-6.03-3.19c-1.38-1.89-1.51-4.78,0.14-6.44c5.89,2.18,12.91,0.96,17.72-3.07
				C708.05,1219.12,710.49,1212.43,710.22,1205.66z"/>
			<path class="st4" d="M696.21,1277.14c-1.48,6.52-2.89,13.69,0.18,19.62c2.5,4.82,7.45,7.79,12.15,10.5
				c1.24-5.41-3.04-10.36-6.79-14.46S694.28,1283.02,696.21,1277.14z"/>
			<path class="st4" d="M688.45,1243.65c-21.93,14.01-44.69,26.71-68.13,38.02c-10.63,5.13-21.49,10.01-33,12.66
				c-15.62,3.6-31.87,2.97-47.89,2.32c4.19,9.41,15.49,13.97,25.77,13.39c10.28-0.58,19.84-5.23,29.08-9.79
				c20.93-10.34,41.86-20.67,62.79-31.01C671.71,1262.02,686.7,1254.53,688.45,1243.65z"/>
			<path class="st4" d="M910.13,1241.35c-5.56,10.5-17.11,16.11-27.92,21.04c-81.6,37.2-163.2,74.4-244.8,111.6
				c-12.73,5.81-25.57,11.65-39.18,14.89c-16.73,3.98-34.24,3.94-50.92,8.14c21.54,4.49,43.77-1.58,64.69-8.37
				c101.63-33,196.46-84.23,297.32-119.49c15.66-5.47,31.93-10.83,44.34-21.83C937.2,1250.2,920.03,1248.97,910.13,1241.35z"/>
			<path class="st4" d="M873.24,1329.04c-2.91,11.01-12.86,18.48-19.37,27.82c-3.59,5.16-6.1,10.89-8.25,16.78
				c-9.54,6.35-19.67,11.92-29.75,17.44c-27.85,15.27-55.67,30.53-83.52,45.8c-31.95,17.54-64.3,35.24-99.47,44.73
				c24.89-20.41,54.91-33.24,83.87-47.32c28.94-14.08,57.95-30.23,78.28-55.19c3.9-4.76,7.49-9.97,9.01-15.95
				c1.49-5.97,0.53-12.86-3.77-17.27c-3.27-3.37-7.98-4.86-12.58-5.8c-12.76-2.53-26.25-1.42-38.43,3.24
				c34.43-21.29,60.73-33.19,88-42.18c9.09-2.99,18.53-5.67,28.03-5.59C870.86,1306.03,876.25,1317.67,873.24,1329.04z"/>
			<path class="st5" d="M909.06,1178.66c-81.04,27.22-162.41,53.44-244.1,78.66c71.34-34.1,151.87-45.34,223.42-78.99
				c10.03-4.73,20.56-10.63,25.54-20.33C915.27,1165.42,913.97,1172.91,909.06,1178.66z"/>
			<path class="st5" d="M848.86,1365.77c-69.95,49.44-146.23,89.9-226.41,120.08c81.95-18.25,163.39-51.14,222.15-109.29
				L848.86,1365.77z"/>
			<path class="st5" d="M865.29,1295.57c5.57,10.46,10.96,22.1,7.95,33.47c-0.08,0.33-0.18,0.66-0.3,0.99
				c-10.3-6.18-24.35-7.72-36.86-7.24c-17.47,0.68-34.89,3.39-51.75,8.05c-13.22,3.67-26.1,8.53-38.94,13.37
				c-32.84,12.41-65.7,24.81-98.53,37.22c-12.84,4.86-25.8,9.75-37.22,17.34c11.57-10.66,26.25-17.19,40.66-23.49
				c88.73-38.73,178.41-75.32,268.91-109.67c0.23,0.3,0.46,0.63,0.66,0.94c-18.46,9.22-36.89,18.43-55.34,27.65
				C864.79,1294.63,865.04,1295.11,865.29,1295.57z"/>
			<path class="st4" d="M855.16,1224.44c-0.33,10.48,0.11,22.65,8.46,29c2.5-4.39,0.72-9.98-1.88-14.32
				C859.15,1234.79,855.71,1230.75,855.16,1224.44z"/>
			<path class="st4" d="M784.92,1161.16c0.15,10.18,3.66,20.27,9.86,28.35c0.84-3.96,0.03-8.25-2.19-11.63
				c-1.88-2.88-4.69-5.07-6.47-8.02C784.34,1166.91,783.98,1162.57,784.92,1161.16z"/>
			<path class="st4" d="M735.96,1268.56c4.14,3.57,8.34,7.22,11.23,11.86s4.31,10.51,2.45,15.65
				C744.92,1286.42,740.19,1276.78,735.96,1268.56z"/>
			<path class="st3" d="M548.11,1268.24c30.36-16.93,62.86-30.01,96.48-38.83c6.32-1.66,14.53-2.48,17.99,3.07
				c-30.22,16.57-61.24,31.67-92.92,45.24c-11.62,4.97-24.32,9.83-36.58,6.78C540.04,1275.76,548.72,1268.41,548.11,1268.24z"/>
			<path class="st3" d="M617.58,1350.41c17.22-8.23,34.7-15.92,52.39-23.05c8.26-3.33,17.54-6.56,25.83-3.3
				c-34.83,21.08-72.21,37.95-111.06,50.13C595.09,1362.71,608.68,1354.66,617.58,1350.41z"/>
			<path class="st3" d="M548.33,1499.97c5.6-8.79,12.47-16.77,20.33-23.62c3.21-2.8,6.78-5.7,7.86-9.82
				c1.08-4.12-2.13-9.49-6.3-8.62c-2.89,0.6-4.51,3.66-6.98,5.28c-5.63,3.7-15.09-0.28-18.85,5.31c-1.65,2.46-1.24,5.72-0.77,8.65
				C544.89,1484.91,546.15,1492.68,548.33,1499.97z"/>
			<path class="st3" d="M618.47,1417.07c19.31-12.35,38.64-24.71,58.73-35.74c14.06-7.73,29.07-14.95,45.11-15.37
				c-5.93,6.96-14.33,11.22-22.51,15.3C673.77,1394.27,647.74,1407.28,618.47,1417.07z"/>
			<path class="st3" d="M768.72,1246.87c20.46-10.64,41.98-19.26,64.14-25.67c3.24-0.94,7.21-1.65,9.56,0.76
				C819.31,1237.88,792.97,1249.11,768.72,1246.87z"/>
			<path class="st3" d="M482.07,1401.84c7.16-6.51,14.51-13.15,23.46-16.83c6.39-2.63,13.88-3.98,18.18-9.39
				c-3.7-3.89-10.16-1.04-14.62,1.95C500.08,1383.64,491.07,1389.7,482.07,1401.84z"/>
		</g>
		<g>
			<path class="st2" d="M1668.68,1721.52h-374c-19.09-23.67-43.37-43.14-70.84-56.15c-6.99-3.34-14.25-6.28-21.34-9.47
				c-2.91-1.29-5.8-2.63-8.63-4.08c-4.23-2.1-8.33-4.41-12.25-7.06c-24.58-16.53-39.29-44.2-49.7-71.95
				c-0.71-1.9-1.42-3.82-2.1-5.75c-0.56-1.59-1.14-3.19-1.7-4.81c-1.24-3.54-2.46-7.09-3.62-10.63c-2.66-7.82-5.24-15.67-8-23.42
				c-0.68-1.9-1.37-3.8-2.08-5.7c-0.81-2.18-1.65-4.33-2.48-6.51c-0.48-1.19-0.96-2.38-1.44-3.57c-0.41-0.96-0.81-1.92-1.22-2.86
				c-0.58-1.39-1.16-2.73-1.77-4.1c-2.33-5.27-4.86-10.43-7.67-15.47c-2.84-5.11-5.95-10.05-9.24-14.89
				c-15.27-22.41-34.51-42.18-50.41-64.28c-1.42-1.95-2.78-3.95-4.15-5.97c-0.68-1.04-1.39-2.1-2.08-3.19
				c-0.68-1.06-1.37-2.13-2.03-3.22c-1.06-1.72-2.1-3.49-3.09-5.27c-0.38-0.66-0.76-1.32-1.11-2c-2-3.59-3.85-7.29-5.52-11.04
				c-0.51-1.11-0.99-2.23-1.44-3.34c-0.38-0.89-0.73-1.77-1.09-2.68c-0.2-0.51-0.41-1.01-0.58-1.52c-0.46-1.19-0.89-2.38-1.29-3.57
				c-0.43-1.27-0.86-2.56-1.24-3.85c-0.35-1.09-0.66-2.2-0.96-3.32c-0.1-0.43-0.23-0.86-0.33-1.29c-0.25-0.99-0.51-1.95-0.71-2.91
				c-0.05-0.18-0.08-0.35-0.1-0.51c-0.23-0.96-0.43-1.92-0.61-2.89c-0.08-0.38-0.15-0.73-0.2-1.11c-0.05-0.2-0.08-0.38-0.1-0.58
				c-0.15-0.78-0.28-1.59-0.38-2.38c-0.18-1.27-0.35-2.53-0.48-3.82c-0.05-0.51-0.1-1.04-0.13-1.54c-0.1-1.11-0.18-2.23-0.23-3.37
				c-0.08-1.27-0.1-2.51-0.1-3.77c0-6.56,0.81-13.14,2.53-19.7l-0.15-0.15c-2.1-2.1-4.23-4.23-6.28-6.38
				c-1.04-1.09-2.08-2.18-3.09-3.29c-0.15-0.15-0.28-0.3-0.43-0.46c-0.86-0.96-1.72-1.92-2.56-2.89c-0.25-0.28-0.48-0.56-0.73-0.86
				c-0.23-0.28-0.48-0.56-0.71-0.86c-0.53-0.63-1.06-1.27-1.57-1.92c-0.33-0.41-0.63-0.78-0.91-1.19c-0.28-0.35-0.56-0.71-0.81-1.06
				c-0.3-0.38-0.58-0.78-0.86-1.16c-0.63-0.89-1.24-1.77-1.82-2.68c-0.48-0.73-0.96-1.49-1.42-2.25c-0.13-0.18-0.23-0.38-0.33-0.56
				c-0.28-0.46-0.53-0.91-0.78-1.39c-0.1-0.18-0.2-0.35-0.3-0.53c-0.05-0.05-0.08-0.1-0.1-0.18c-0.51-0.91-0.99-1.85-1.39-2.81
				h-0.03c-0.89-1.87-1.65-3.77-2.3-5.75c-3.42-10.35-2.41-22.81,4.81-31.29c2.84-3.29,6.61-6,11.42-7.72
				c-0.53-0.28-1.06-0.56-1.59-0.86c-0.86-0.48-1.72-0.99-2.56-1.52c-0.2-0.13-0.41-0.25-0.61-0.41h-0.03
				c-0.28-0.18-0.53-0.35-0.81-0.56c-0.41-0.28-0.81-0.56-1.19-0.86c-0.43-0.28-0.84-0.61-1.24-0.94c-0.2-0.15-0.41-0.3-0.61-0.48
				c-0.35-0.28-0.71-0.56-1.06-0.89c-0.15-0.1-0.3-0.25-0.46-0.38c-0.28-0.23-0.56-0.48-0.84-0.76c-0.43-0.38-0.86-0.76-1.27-1.19
				c-0.1-0.08-0.2-0.2-0.3-0.3c-0.53-0.51-1.06-1.04-1.54-1.59c-0.25-0.28-0.51-0.56-0.76-0.84c-0.58-0.63-1.14-1.29-1.65-1.95
				c-0.3-0.33-0.56-0.68-0.81-1.01c-0.56-0.73-1.11-1.47-1.65-2.23c0,0-0.03-0.03-0.03-0.05c0,0-0.03,0,0-0.03c0,0-0.03,0-0.03-0.03
				c-0.66-0.91-1.27-1.85-1.85-2.81s-1.14-1.95-1.67-2.94c-0.08-0.1-0.13-0.2-0.18-0.33v-0.03c-0.48-0.91-0.94-1.82-1.37-2.78
				c-0.1-0.2-0.2-0.38-0.25-0.58c-0.41-0.89-0.78-1.77-1.14-2.68c-2.15-5.54-3.44-11.42-3.77-17.34c0,0,0,0,0-0.03V1196
				c-0.05-0.91-0.08-1.77-0.08-2.68c0-0.03,0-0.05,0-0.05c0-0.78,0.03-1.57,0.05-2.35c0.03-0.66,0.08-1.29,0.13-1.95
				c0.03-0.35,0.05-0.68,0.1-1.01c0.23-2.46,0.66-4.91,1.29-7.29c0.2-0.81,0.43-1.62,0.68-2.43c0.08-0.28,0.15-0.53,0.25-0.81
				c1.85-5.57,4.71-10.94,9.16-14.73c6.61-5.59,15.75-7.01,24.38-7.62c1.8-0.13,3.62-0.23,5.44-0.28
				c20.4-0.84,40.94,1.62,60.58,7.24c-0.84-0.23-1.7-0.48-2.53-0.76c-0.1-0.03-0.2-0.05-0.3-0.08c-8.86-2.68-17.49-6.25-25.7-10.63
				c-1.32-0.68-2.63-1.42-3.92-2.15c-0.56-0.33-1.14-0.66-1.7-0.99l-0.05-0.03c0-0.03-0.03-0.03-0.03-0.03h-0.03
				c-1.29-0.76-2.56-1.52-3.82-2.33c-1.24-0.76-2.46-1.57-3.67-2.38c-2.13-1.42-4.2-2.89-6.23-4.43c-0.81-0.61-1.62-1.22-2.41-1.85
				c-0.3-0.23-0.61-0.46-0.91-0.73c-0.76-0.61-1.52-1.24-2.28-1.87c-1.85-1.49-3.67-3.09-5.44-4.76c-0.51-0.43-0.99-0.89-1.47-1.37
				c-1.14-1.04-2.25-2.15-3.37-3.27c-0.84-0.86-1.67-1.72-2.51-2.63c-0.63-0.71-1.27-1.42-1.87-2.15c-1.37-1.54-2.66-3.16-3.85-4.84
				c-0.43-0.53-0.81-1.11-1.19-1.67c-0.46-0.66-0.91-1.34-1.32-2.03c-0.78-1.24-1.52-2.53-2.18-3.82c-0.2-0.38-0.41-0.78-0.58-1.19
				c-0.25-0.51-0.51-1.04-0.73-1.57c-0.23-0.53-0.46-1.06-0.63-1.59c-0.2-0.53-0.41-1.06-0.58-1.59c-0.15-0.41-0.28-0.84-0.41-1.27
				c-0.15-0.43-0.25-0.86-0.35-1.32c-0.13-0.41-0.23-0.81-0.3-1.24c-0.3-1.39-0.53-2.84-0.63-4.28c-0.08-0.76-0.1-1.52-0.1-2.28
				c0-0.53,0.03-1.04,0.05-1.59c0-0.13,0.03-0.28,0.03-0.41c0.03-0.53,0.08-1.06,0.15-1.59c1.47-11.34,9.54-20.51,16.86-29.29
				l0.03-0.03c0.1-0.15,0.23-0.3,0.35-0.46c9.32-2.66,18.81-2.2,28.2-0.05c4.13,0.91,8.2,2.15,12.28,3.62
				c7.57,2.71,15.01,6.13,22.18,9.47c32.23,15.11,64.96,29.59,97.47,44.58c12.4,5.7,24.76,11.49,37.04,17.39
				c7.42,3.57,14.81,7.19,22.18,10.86c2.1,1.06,4.2,2.1,6.33,3.19c3.14,1.59,6.28,3.19,9.42,4.81c1.16,0.58,2.3,1.19,3.44,1.77
				c3.01,1.57,6.03,3.16,9.04,4.76c1.27,0.68,2.56,1.37,3.82,2.05c2.86,1.52,5.72,3.06,8.56,4.63c1.14,0.63,2.28,1.27,3.42,1.87
				c3.7,2.05,7.37,4.13,11.01,6.2c0.1,0.08,0.2,0.13,0.3,0.18c0.1,0.05,0.18,0.1,0.25,0.15c3.54,2.03,7.09,4.08,10.58,6.18
				c3.47,2.03,6.91,4.1,10.33,6.2c0.33,0.2,0.66,0.4,0.96,0.58c3.37,2.08,6.73,4.2,10.08,6.33c3.52,2.23,7.04,4.51,10.51,6.81
				c1.72,1.11,3.42,2.25,5.11,3.42c2.46,1.62,4.89,3.29,7.32,4.99c1.87,1.32,3.75,2.63,5.62,3.95c1.97,1.39,3.95,2.81,5.92,4.25
				c1.77,1.29,3.54,2.58,5.32,3.92c1.7,1.27,3.39,2.53,5.06,3.82c0.08,0.05,0.15,0.1,0.2,0.15c3.29,2.48,6.53,5.01,9.75,7.62
				c2.61,2.05,5.16,4.15,7.72,6.28c2.68,2.2,5.34,4.46,7.97,6.73c0.43,0.35,0.89,0.73,1.32,1.11c2.56,2.23,5.11,4.51,7.65,6.78
				c6.76,6.13,13.49,12.66,19.27,19.44c7.9,9.22,14.1,18.91,16.41,28.63c9.72,40.56,12.23,83.32,18.78,124.56
				c1.54,9.75,3.32,19.42,5.47,28.94c5.11,22.84,12.41,44.89,23.85,65.52c11.8,21.27,27.59,40.05,43.82,58.18
				c15.04,16.78,42.1,44.71,71.14,74.05v0.03C1622.58,1675.7,1647.8,1700.84,1668.68,1721.52z"/>
			<path class="st4" d="M1668.68,1721.52h-374c-19.09-23.67-43.37-43.14-70.84-56.15c-6.99-3.34-14.25-6.28-21.34-9.47
				c-1.77-41.72-3.57-83.44-5.34-125.14c-0.13-2.58-0.2-5.27,0.91-7.59c2.4-4.91,8.81-5.92,14.25-6.53
				c36.51-4.18,71.67-19.49,99.57-43.42c1.06-0.91,2.1-1.82,3.14-2.76c22.84-20.43,40.99-46.03,63.8-66.28
				c0.13-0.1,0.25-0.23,0.38-0.35c4.53-3.97,9.21-7.75,14.18-11.24c16.58,16.08,40.05,22.13,60.99,32.23
				c1.54,9.75,3.32,19.42,5.47,28.94c5.11,22.84,12.41,44.89,23.85,65.52c11.8,21.27,27.59,40.05,43.82,58.18
				c15.04,16.78,42.1,44.71,71.14,74.05v0.03C1622.58,1675.7,1647.8,1700.84,1668.68,1721.52z"/>
			<path class="st4" d="M1307.9,1290.03c-50.33-47.8-109.42-86.33-173.47-113.09l-85.77-26.38c-13.01-6.86-24.96-15.7-35.32-26.18
				c-9.52-9.65-18.1-22.1-17.16-35.47c20.68,14.15,35.95,36.99,58.33,48.96c9.01,4.81,18.89,7.7,28.61,10.81
				C1168.23,1176.15,1246.25,1225.24,1307.9,1290.03z"/>
			<path class="st4" d="M1249.54,1362.1c-49.75-30.71-99.49-61.42-149.24-92.13c-29.72-18.33-63.34-37.44-97.54-30.28
				c-0.81,0.18-1.65,0.35-2.48,0.53c-19.87-12.68-30-39.42-22.91-62c2.3,10.51,8.78,20.51,17.04,27.7
				c13.14,11.47,29.97,17.52,46.08,24.2c57.85,23.95,110.66,58.33,163.09,92.53C1220.61,1333.75,1238.1,1345.29,1249.54,1362.1z"/>
			<path class="st4" d="M1025.06,1340.81c-0.78,19.82,7.75,38.73,11.01,58.3c0.3,1.82,0.38,3.92-0.03,5.75
				c-17.19-25.75-29.27-56.61-21.27-86.86c-10.73-10.71-21.82-21.97-26.58-36.38c-3.42-10.35-2.41-22.81,4.81-31.29
				c-1.54,11.09,1.9,22.76,7.77,32.43c6.81,11.22,16.63,20.23,26.46,28.94c46.81,41.39,97.01,78.91,149.95,112.1
				c14.15,8.89,28.99,17.87,38.2,31.82c-53.22-34.13-104.68-70.99-154.1-110.38c-8.4-6.71-17.82-13.85-28.56-13.24
				c-1.92,0.1-3.95,0.51-5.37,1.82C1025.52,1335.54,1025.14,1338.3,1025.06,1340.81z"/>
			<path class="st4" d="M1419.19,1271.62c-11.32-5.32-21.54-12.78-31.67-20.2c-28.68-21.06-57.39-42.1-86.08-63.14
				c-15.16-11.14-30.38-22.28-46.56-31.9c-14.3-8.51-29.47-15.85-44.15-23.82c67.97,32.68,133.49,69.24,189.19,119.62
				C1406.68,1258.3,1413.42,1264.84,1419.19,1271.62z"/>
			<path class="st4" d="M1183.73,1225.55c-3.76,11.07-10.97,20.94-20.37,27.9c0.47,1.84,3.26,1.18,4.78,0.04
				C1178.37,1245.75,1184.84,1233.23,1183.73,1225.55z"/>
			<path class="st4" d="M1205.22,1140.35c-5.46,3.9-10.93,8.05-14.69,13.61c-3.77,5.56-5.61,12.82-3.23,19.1
				c4.23-4.97,5.48-11.71,7.42-17.94C1196.66,1148.89,1200.03,1142.33,1205.22,1140.35z"/>
			<path class="st4" d="M1136.92,1305.39c-1.75,9.55-4.56,18.91-8.37,27.84c-1.71,4.02-4.74,8.61-9.07,8.11
				C1125.12,1328.89,1130.77,1316.44,1136.92,1305.39z"/>
			<path class="st5" d="M1240.4,1359.97c-12.25-2.28-22.56-10.2-32.4-17.85c-32.35-25.16-65.27-50-101.49-69.22
				c-33.19-17.59-69.49-30.38-106.86-33.09c-7.47-4.94-13.52-11.87-17.75-19.82c7.85,1.97,16,8.76,24.51,10.28
				c6.25,1.11,12.61-0.78,18.96-0.84c7.47-0.05,14.68,2.46,21.65,5.14C1119.01,1262.35,1180.35,1311.54,1240.4,1359.97z"/>
			<path class="st5" d="M1213.44,1452.33c-48.58-21.82-94.05-50.63-134.48-85.29c-20.56-17.59-40.43-37.11-64.33-49.19
				c-8.41-8.41-17.04-17.14-22.61-27.49c8.91,3.72,17.01,10.23,24.58,16.48C1079.54,1358.81,1145.29,1407.39,1213.44,1452.33z"/>
			<path class="st4" d="M1110.05,1102.69c-2.28,11.49-5.72,24.55-16.27,29.64C1098.41,1122.18,1103.91,1112.42,1110.05,1102.69z"/>
			<path class="st3" d="M1121.84,1132.8c16.48,9.59,33.62,19.41,52.6,21.31c-12.03-15.64-30.29-26.36-49.82-29.23
				C1122.31,1124.54,1118.78,1125.98,1121.84,1132.8z"/>
			<path class="st3" d="M1254.56,1210.59c25.47,21.76,52.13,44.17,84.54,52.64c-7.53-14.28-19.38-25.92-32.53-35.29
				s-27.66-16.61-42.11-23.82c-1.28-0.64-2.68-1.3-4.09-1.04C1258.96,1203.35,1257.76,1205.02,1254.56,1210.59z"/>
			<path class="st3" d="M1066.84,1201.95c14.3,11.09,32.28,17.36,50.38,17.54c2.27,0.02,5.26-0.72,5.31-2.99
				c0.03-1.19-0.87-2.18-1.74-3c-8.94-8.4-20.94-12.56-32.55-16.5c-6.98-2.37-14.48-4.76-21.58-2.8
				C1065.05,1194.66,1062.15,1198.32,1066.84,1201.95z"/>
			<path class="st3" d="M1338.91,1351.25c7.33,14.31,14.67,28.62,22,42.93c0.48,0.94,1.05,1.96,2.05,2.3
				c1.31,0.45,2.66-0.48,3.71-1.38c6.68-5.73,12.23-12.77,16.23-20.61c0.58-1.14,1.14-2.35,1.1-3.63
				c-0.14-4.34-6.04-5.32-10.37-5.57C1362.58,1364.67,1351.81,1359.94,1338.91,1351.25z"/>
			<path class="st3" d="M1193.87,1651.82c-4.23-2.1-8.33-4.41-12.25-7.06c-24.58-16.53-39.29-44.2-49.7-71.95
				c-8.38-22.35-14.71-45.62-24.41-67.34c15.97,7.49,31.92,14.99,47.9,22.48c-4.25,0.89-8.51,1.75-12.78,2.61
				c-2.03,0.43-4.46,1.19-4.89,3.22c-0.38,1.77,1.04,3.37,2.41,4.53c14.96,12.73,39.72,13.65,48.99,30.96
				c-0.08,4.1-5.06,6.13-9.16,6.46c-4.1,0.3-8.89,0.3-11.34,3.59c-2,2.66-1.52,6.35-0.96,9.62c1.14,6.66,2.28,13.34,3.44,20
				c1.09,6.33,2.38,13.09,6.91,17.65c2.71,2.71,6.28,4.35,9.21,6.81C1192.51,1637.82,1194.66,1645.04,1193.87,1651.82z"/>
			<path class="st4" d="M1028.56,1110.88c9.77,1.9,20.35-0.23,28.33-6.18c7.97-5.95,13.09-15.73,12.9-25.68
				c-0.03-1.38-0.15-2.78-0.74-4.03c-1.27-2.72-4.41-4.11-6-6.66c2.12,4.75,3.89,9.87,3.45,15.06c-0.73,8.64-7.6,15.79-15.5,19.37
				S1034.24,1106.99,1028.56,1110.88z"/>
			<path class="st5" d="M1042.94,1147.37c17.09,4.81,34.15,9.59,51.24,14.38c20.15,5.67,40.68,11.49,58.08,23.14
				c-24.99-10.43-51.29-17.01-77.59-23.62c-0.1-0.03-0.2-0.05-0.3-0.08L1042.94,1147.37z"/>
		</g>
	</g>
</g>
</svg>
