<svg width="2000" height="1040" viewBox="0 0 2000 1040" fill="none" xmlns="http://www.w3.org/2000/svg">
<rect width="2000" height="1040" fill="#9BAFBD"/>
<path d="M172.714 715.4C160.564 729.29 148.424 743.17 136.274 757.06C133.264 760.5 130.094 764.33 129.934 768.9C129.594 778.93 142.264 782.96 151.564 786.75C196.094 804.89 199.874 873.19 242.854 894.74C258.044 902.36 275.814 902.68 292.754 901.36C388.144 893.93 473.734 840.67 567.094 819.77C653.464 800.44 743.834 809.45 830.454 827.67C917.064 845.9 1001.59 873.17 1088.35 890.72C1127.29 898.6 1166.95 904.52 1206.63 902.5C1251.83 900.21 1295.84 887.7 1339.06 874.24C1380.72 861.26 1422.08 847.32 1463.09 832.42C1499.23 819.3 1537.59 803.46 1558.01 770.89C1563.54 762.07 1567.6 751.65 1565.87 741.38C1564.1 730.92 1556.71 722.41 1549.37 714.75C1463.6 625.2 1342.7 570.22 1218.84 564.44C1152.07 561.33 1085.54 571.9 1018.96 577.82C772.964 599.73 514.364 559.99 286.334 654.84C250.324 669.82 214.234 689.21 191.954 721.22C185.374 730.68 176.384 742.65 172.714 715.4Z" fill="#728694"/>
<path d="M1644.03 677.98C1698.29 696.44 1758.99 704.67 1812.31 683.63C1828.19 677.36 1844.5 666.8 1848.39 650.17C1822.66 646.58 1796.68 642.58 1772.71 632.59C1748.74 622.6 1726.62 605.9 1715.12 582.61C1710.53 573.31 1707.36 562.7 1699.34 556.13C1693.6 551.44 1686.13 549.5 1678.86 548.06C1662.76 544.87 1644.78 543.81 1631.17 552.99C1620.96 559.88 1614.88 571.56 1611.67 583.45C1604.77 609.02 1609.87 637.55 1625.18 659.16C1640.48 680.76 1665.72 695.01 1644.03 677.98Z" fill="#728694"/>
<path d="M465.875 756.24C463.595 766.33 456.235 775.66 448.745 783.35C424.835 807.86 396.425 827.55 367.095 845.2C354.625 852.7 339.755 860.09 325.775 853.99C289.585 827.8 253.395 801.6 217.215 775.4C174.115 744.21 128.935 710.38 109.185 660.98C104.325 648.82 101.145 635.46 103.745 622.63C104.295 619.91 104.895 617.56 105.675 615.44V615.4C108.525 607.59 113.745 602.92 128.065 593.87C128.015 593.82 127.955 593.76 127.905 593.71C118.965 584.68 109.935 575.52 101.675 565.83C91.8847 554.37 83.1647 542.15 76.8947 528.47C71.2847 516.23 67.9547 501.26 74.9647 490.08C78.1347 486.15 82.2547 483.11 86.3247 480.12C89.9747 477.44 93.6447 474.74 97.3047 472.05C102.405 468.29 107.725 464.45 114.165 464.04C139.095 465.87 162.315 477.37 183.345 490.85C204.395 504.34 224.055 520.04 246.095 531.84C267.165 543.14 290.185 550.73 310.575 563.22C317.565 567.5 324.375 572.52 328.785 579.42C331.175 583.16 332.785 587.35 334.515 591.46C340.245 604.99 347.505 617.86 356.135 629.76L466.105 744.93C466.875 748.78 466.715 752.56 465.875 756.24Z" fill="#353A3E"/>
<path d="M149.205 647.76C159.835 672.7 177.045 694.39 196.635 713.13C216.225 731.87 238.245 747.85 260.205 763.73C273.615 773.43 287.035 783.11 300.465 792.78C303.955 795.29 307.645 797.88 311.915 798.35C283.305 774 252.475 752.38 223.545 728.42C194.615 704.47 167.295 677.81 149.205 647.76Z" fill="#23282B"/>
<path d="M1924.51 587.73C1923.15 591.77 1921.56 595.72 1919.92 599.58C1918.63 602.6 1917.32 605.55 1916.04 608.44C1914.81 610.63 1913.48 612.75 1912.07 614.82C1904.27 626.27 1894 635.95 1882.89 644.39C1880.97 645.85 1879.01 647.28 1877.05 648.66C1862.51 658.98 1846.7 667.81 1829.55 672.66C1827.81 673.16 1826.04 673.61 1824.27 674.02C1808.63 677.58 1792.22 677.6 1778.55 672.34C1756 668.43 1734.89 656.58 1719.8 639.37C1704.71 622.16 1695.74 599.69 1694.8 576.83C1694.63 572.37 1694.48 567.34 1691.14 564.4C1688.37 561.98 1683.99 561.65 1681.85 558.64C1681.85 558.64 1680.92 533.63 1679.17 525.5C1672.77 495.76 1684.42 431.59 1684.42 431.59C1696.7 432.82 1713.37 434.72 1725.66 435.95C1726.21 436 1726.75 436.06 1727.3 436.11C1731.19 436.49 1735.13 436.77 1738.99 436.28C1741.5 435.97 1743.92 435.35 1746.28 434.51C1752.19 432.43 1757.69 428.97 1763.02 425.58C1769.42 421.5 1775.83 417.42 1782.23 413.35C1791.56 407.4 1801.56 401.26 1812.63 401.19C1814.99 401.18 1817.39 401.57 1819.67 402.32C1820.92 402.72 1822.12 403.22 1823.28 403.82C1829.92 407.27 1834.61 413.85 1832.68 421.77C1832.8 421.78 1832.93 421.8 1833.05 421.81C1834.71 422.04 1836.39 422.25 1838.04 422.58C1840.32 423.01 1842.55 423.61 1844.64 424.61C1848.36 426.37 1851.61 429.6 1852.32 433.67C1852.4 433.68 1852.48 433.7 1852.56 433.72C1853 433.8 1853.44 433.92 1853.87 434.06C1858.96 435.6 1863.19 439.79 1864.69 444.91C1864.86 445.51 1865.03 446.13 1865.17 446.78C1865.83 449.49 1866.47 452.32 1868.8 453.61C1869.46 453.97 1870.17 454.16 1870.91 454.23C1872.39 454.36 1873.95 454.03 1875.44 453.73C1879.21 452.96 1883.22 452.51 1886.9 453.66C1890.58 454.83 1893.87 458 1894.67 461.28C1893.95 471.43 1894.35 481.66 1895.85 491.72C1895.98 492.69 1896.14 493.64 1896.3 494.59C1901.94 494.01 1907.37 497.54 1910.63 502.17C1910.86 502.49 1911.09 502.83 1911.3 503.16C1914.12 507.58 1915.54 512.77 1916.91 517.84C1918.57 524.01 1920.24 530.18 1923.26 535.97C1924.05 543.42 1927.05 550.47 1928.19 557.86C1929.76 568.05 1927.77 578.11 1924.51 587.73Z" fill="#FDD5C8"/>
<path d="M1780 477.68C1777.36 487.32 1775.52 497.57 1777.97 507.26C1779.42 513 1782.35 518.41 1782.75 524.32C1783.23 531.29 1780.13 537.96 1776.94 544.17C1774.67 548.57 1772.31 552.94 1769.85 557.24C1766.84 562.53 1763.51 567.95 1758.32 571.13C1753.68 573.99 1748.08 574.71 1742.66 575.34C1733.37 576.43 1723.25 577.25 1715.33 572.27C1711.14 569.65 1708.03 565.65 1705.33 561.52C1699.06 551.91 1694.62 541.12 1692.3 529.9C1691.74 527.12 1691.64 523.54 1694.17 522.24C1695.24 521.69 1696.53 521.74 1697.74 521.86C1705.16 522.56 1712.41 524.95 1718.81 528.76C1722.69 531.08 1726.85 534.05 1731.28 533.12C1732.18 532.93 1733.09 532.53 1733.62 531.78C1734.18 530.96 1734.18 529.87 1734.13 528.88C1733.86 523.44 1732.95 518.03 1731.45 512.81C1730.11 508.14 1728.26 503.28 1729.37 498.55C1730.15 495.26 1732.26 492.47 1734.2 489.7C1741.96 478.69 1747.77 466.32 1751.3 453.31C1752.43 449.15 1753.31 444.68 1751.96 440.57C1751.07 437.87 1748.87 435.48 1746.3 434.5C1752.21 432.42 1757.71 428.96 1763.04 425.57C1769.44 421.49 1775.85 417.41 1782.25 413.34C1791.58 407.39 1801.58 401.25 1812.65 401.18C1815.01 401.17 1817.42 401.56 1819.7 402.31C1819.36 405.42 1817.12 408.18 1815.06 410.66C1798.78 430.19 1786.74 453.19 1780 477.68Z" fill="#EFC3B6"/>
<path d="M1759.01 566.43C1762.04 560.91 1760.76 553.37 1756.06 549.17C1753.64 547 1750.2 545.23 1749.88 542C1749.77 540.92 1750.07 539.83 1750.04 538.74C1749.9 533.63 1743.04 530.42 1743.37 525.31C1743.5 523.2 1744.91 521.27 1744.81 519.16C1744.75 518.02 1744.27 516.77 1744.88 515.81C1745.22 515.26 1745.84 514.96 1746.4 514.63C1748.98 513.12 1750.91 510.55 1751.63 507.65C1754.28 514.23 1757.15 521.12 1762.71 525.51C1764.42 526.86 1766.38 527.96 1767.75 529.66C1769.15 531.39 1769.81 533.57 1770.45 535.7C1771.65 539.7 1772.85 543.7 1774.05 547.7C1774.59 549.49 1775.1 551.52 1774.16 553.13C1773.68 553.95 1772.9 554.53 1772.13 555.08C1769.49 557 1766.85 558.91 1764.21 560.83C1761.82 562.56 1759.29 564.49 1759.01 566.43Z" stroke="#99685A" stroke-miterlimit="10"/>
<path d="M1823.27 403.84C1816.8 405.05 1811.53 410.66 1807.4 416.11C1793.35 434.71 1783.04 455.81 1772.82 476.77C1769.91 482.74 1767.01 488.72 1764.1 494.68C1769.09 479.97 1774.09 465.26 1779.08 450.55C1780.34 446.85 1781.56 442.6 1779.66 439.18C1779.42 438.74 1779.1 438.29 1778.61 438.15C1777.89 437.94 1777.17 438.45 1776.6 438.93C1771.16 443.41 1765.74 447.9 1760.3 452.39C1763.52 446.16 1766.73 439.93 1769.94 433.72C1757.34 436.5 1744.41 437.87 1731.48 437.79C1729.9 437.79 1728 437.56 1727.29 436.14C1731.18 436.52 1735.12 436.8 1738.98 436.31C1747.76 435.22 1755.54 430.35 1763.01 425.61C1769.41 421.53 1775.82 417.45 1782.22 413.38C1791.55 407.43 1801.55 401.29 1812.62 401.22C1816.28 401.18 1820.01 402.13 1823.27 403.84Z" fill="#E0AFA1"/>
<path d="M1868.41 544.58C1862.78 547.29 1857.44 550.59 1852.49 554.4C1851.34 555.29 1850.08 556.53 1850.4 557.95C1850.7 559.25 1852.14 559.87 1853.41 560.3C1855.14 560.89 1857.03 561.47 1858.76 560.87C1859.66 560.56 1860.42 559.95 1861.14 559.33C1863.25 557.54 1865.21 555.57 1867 553.46C1867.8 552.52 1868.59 551.51 1868.84 550.3C1869.27 548.2 1868.11 545.66 1868.41 544.58Z" fill="#FEE4DB"/>
<path d="M1761.43 594.8C1761.55 598.49 1762.14 602.23 1763.77 605.54C1765.4 608.85 1768.15 611.72 1771.64 612.93C1772.02 613.06 1772.45 613.17 1772.82 613.01C1773.4 612.75 1773.5 611.91 1773.19 611.35C1772.88 610.79 1772.31 610.45 1771.77 610.1C1766.76 606.86 1763.16 601.5 1761.43 594.8Z" fill="#FEE4DB"/>
<path d="M1760.17 571.42C1761.43 568.87 1763.19 566.58 1765.34 564.71C1766.1 564.05 1766.96 563.41 1767.96 563.27C1768.96 563.12 1770.13 563.62 1770.42 564.59C1770.71 565.56 1770.02 566.58 1769.17 567.11C1768.31 567.64 1767.3 567.84 1766.36 568.2C1764.2 569.03 1762.43 570.82 1761.61 572.98C1761.4 573.53 1760.96 574.25 1760.42 574C1760.05 572.78 1760.46 571.36 1760.17 571.42Z" fill="#FEE4DB"/>
<path d="M1777.96 607.5C1778.87 608.79 1780.64 609.37 1781.31 610.8C1781.84 611.92 1781.54 613.26 1781.12 614.43C1779.96 617.7 1777.99 620.68 1775.42 623.01C1776.02 623.54 1776.97 623.5 1777.68 623.12C1778.39 622.74 1778.89 622.08 1779.35 621.41C1780.67 619.48 1781.73 617.37 1782.47 615.16C1783.17 613.09 1783.48 610.5 1781.91 608.98C1780.81 607.9 1778.89 607.51 1777.96 607.5Z" fill="#FEE4DB"/>
<path d="M1862.31 471.33C1862.01 469.94 1861.72 468.47 1862.19 467.13C1862.65 465.79 1864.18 464.71 1865.49 465.26C1866.45 465.66 1866.94 466.79 1866.89 467.83C1866.84 468.87 1866.34 469.83 1865.8 470.71C1865.34 471.46 1864.76 472.25 1863.9 472.44C1863.04 472.64 1861.98 471.81 1862.31 471.33Z" fill="#FEE4DB"/>
<path d="M1924.51 587.73C1923.15 591.77 1921.56 595.72 1919.92 599.58C1918.63 602.6 1917.32 605.55 1916.04 608.44C1914.81 610.63 1913.49 612.75 1912.08 614.82C1910.78 615.84 1909.46 616.86 1908.16 617.85C1902.24 622.39 1896.19 626.87 1889.42 630.01C1881.86 633.53 1873.65 635.29 1865.5 637.02C1854.64 639.32 1843.77 641.6 1832.76 642.98C1828.52 643.52 1824.01 643.87 1820.18 641.96C1814.37 639.06 1811.99 631.89 1806.77 628C1805.13 626.78 1803.23 625.88 1801.9 624.32C1797.83 619.54 1801.34 611.41 1797.64 606.32C1796.7 605.03 1795.34 604.05 1794.49 602.7C1793.35 600.9 1793.2 598.65 1792.46 596.62C1790.78 591.98 1786.15 588.93 1784.27 584.36C1782.54 580.13 1783.33 575.03 1780.89 571.18C1778.65 567.64 1774.27 566.11 1771.37 563.09C1768.08 559.65 1767.03 554.24 1768.81 549.84C1769.86 547.21 1771.84 544.74 1771.51 541.93C1771.38 540.79 1770.87 539.66 1771.12 538.53C1771.46 537.03 1773.04 536.17 1774.49 535.64C1787.99 530.67 1803.19 536.45 1814.89 544.81C1819.79 548.33 1824.38 552.3 1829.64 555.24C1836.53 559.09 1845.64 566.42 1853.37 567.96C1859.33 569.15 1863.32 568.79 1869.3 569.77C1875.84 570.83 1883.47 567.82 1889.53 565.15C1896.9 561.9 1901.13 553.98 1907.74 548.44C1903.07 556.87 1897.51 564.96 1890.2 571.23C1882.9 577.51 1873.66 581.89 1864.03 582.09C1859.98 582.18 1855.95 581.54 1851.9 581.39C1845.97 581.18 1839.75 582.13 1834.92 585.58C1830.07 589.04 1827.04 595.43 1828.8 601.1C1831.12 608.55 1839.99 611.58 1847.74 612.38C1862.13 613.84 1876.91 611.21 1889.91 604.86C1895 602.38 1899.82 599.34 1904.93 596.89C1910.22 594.35 1915.8 592.45 1921 589.72C1922.2 589.1 1923.37 588.44 1924.51 587.73Z" fill="#EFC3B6"/>
<path d="M1844.56 557.47C1844.69 557.59 1844.82 557.71 1844.95 557.83C1844.7 558.9 1845.67 559.93 1846.62 560.66C1851.7 564.6 1858.28 566.22 1864.7 566.27C1871.12 566.33 1877.47 564.93 1883.7 563.38C1888.17 562.26 1892.69 561.03 1896.62 558.64C1904.96 553.57 1909.45 544.17 1913.59 535.63C1910.14 542.47 1906.58 549.34 1901.68 555.22C1896.77 561.1 1890.36 566 1882.9 567.78C1881.15 568.2 1879.33 568.45 1877.76 569.33C1876.19 570.21 1874.91 571.92 1875.2 573.69C1875.32 574.4 1875.67 575.06 1875.75 575.78C1875.94 577.58 1874.24 579.12 1872.46 579.44C1870.68 579.75 1868.88 579.17 1867.17 578.59C1859.46 575.98 1851.74 573.38 1844.03 570.77C1839.86 569.36 1835.29 567.95 1831.15 569.46C1829.37 570.11 1827.83 571.26 1826.34 572.42C1820.3 577.13 1814.49 582.48 1807.25 584.99C1806.6 585.22 1805.83 585.41 1805.25 585.03C1804.9 584.81 1804.7 584.42 1804.51 584.05C1801.32 577.88 1798.13 571.71 1794.95 565.53C1794.58 564.81 1794.19 564.03 1794.31 563.23C1794.65 560.77 1799.16 559.9 1798.45 557.52C1798.3 557.03 1797.94 556.65 1797.58 556.29C1793.04 551.84 1786.89 549.26 1782.52 544.65C1777.23 539.07 1775.14 531.18 1770.65 524.94C1767.12 520.05 1762.21 516.3 1758.58 511.49C1758.08 510.83 1757.6 510.12 1757.49 509.3C1757.19 507.08 1759.7 505.5 1761.92 505.19C1766.91 504.48 1771.75 506.91 1776.15 509.36C1788.66 516.34 1800.71 524.13 1812.21 532.67C1814.41 534.3 1816.62 535.98 1819.15 537.01C1821.62 538.01 1824.3 538.37 1826.94 538.67C1830.46 539.07 1834.05 539.43 1837.27 540.9C1840.49 542.37 1843.33 545.19 1843.79 548.7C1844.04 550.64 1843.56 552.59 1843.61 554.55C1843.67 556.51 1844.49 558.69 1844.56 557.47Z" fill="#E0AFA1"/>
<path d="M1695 466.54C1705.01 476.2 1715.12 485.99 1722.5 497.78C1724.54 501.05 1726.4 505.17 1724.64 508.6C1724.43 509.01 1724.12 509.43 1723.66 509.51C1723.07 509.6 1722.59 509.08 1722.22 508.61C1713.34 497.21 1704.46 485.8 1695.58 474.4C1694.59 473.13 1693.57 471.81 1693.13 470.26C1692.69 468.71 1692.94 466.84 1695 466.54Z" fill="#FEE4DB"/>
<path d="M1919.92 599.58C1918.63 602.6 1917.32 605.55 1916.04 608.44C1907.97 622.74 1896 634.41 1882.89 644.39C1880.97 645.85 1879.01 647.28 1877.05 648.66C1862.51 658.98 1846.7 667.81 1829.55 672.66C1827.81 673.16 1826.04 673.61 1824.27 674.02C1822.28 673.64 1820.29 673.23 1818.33 672.74C1796.72 667.46 1777.08 656 1759.35 642.59C1723.48 615.44 1692.87 573.34 1681.55 533.46C1680.27 528.95 1673.12 517.26 1677.16 512.24C1693.98 524.35 1721.22 544.79 1734.2 560.95C1737.61 565.21 1742.3 570.09 1747.55 568.6C1751.99 567.32 1753.95 561.74 1752.91 557.24C1751.85 552.73 1748.66 549.09 1745.67 545.58C1744.72 544.45 1743.75 543.28 1743.2 541.92C1742.7 540.64 1742.6 539.26 1742.42 537.91C1741.64 531.86 1739.51 525.98 1736.22 520.82C1734.74 518.52 1733.02 516.3 1732.42 513.63C1731.8 510.97 1732.76 507.7 1735.31 506.72C1736.38 506.3 1737.59 506.36 1738.67 505.95C1740.99 505.1 1742.09 502.55 1743.33 500.42C1745.6 496.47 1749.06 493.21 1753.13 491.19C1753.87 490.83 1754.7 490.49 1755.48 490.76C1756.19 491.02 1756.64 491.7 1757.02 492.36C1758.95 495.84 1760.18 499.69 1760.61 503.65C1761.05 507.77 1760.7 512.15 1762.65 515.81C1765.19 520.6 1770.84 522.67 1774.94 526.24C1779.41 530.13 1782.01 536.08 1781.84 542C1781.65 547.93 1778.71 553.72 1774.01 557.33C1772.17 558.75 1770.09 559.84 1768.13 561.09C1753.75 570.23 1746.07 588.81 1749.81 605.43C1751.85 614.5 1757.45 623.19 1765.97 626.93C1772.84 629.94 1781.35 629.28 1787.33 624.76C1793.32 620.22 1796.29 611.85 1794.79 603.44C1804.96 617.86 1822.17 627.04 1839.8 627.48C1848.01 627.68 1856.15 626.11 1864.21 624.54C1873.61 622.71 1883.05 620.88 1892.02 617.52C1902.43 613.6 1912.17 607.57 1919.92 599.58Z" fill="#E0AFA1"/>
<path d="M1821.14 471.94C1821.65 476.85 1825.68 480.94 1830.38 482.44C1830.95 482.62 1831.65 482.91 1831.68 483.52C1831.71 484.05 1831.17 484.42 1830.7 484.66C1827.41 486.35 1823.15 487.35 1820.22 485.1C1819.01 484.17 1818.21 482.81 1817.54 481.44C1815.81 477.9 1814.94 473.17 1817.74 470.41C1818.4 469.76 1820.81 468.78 1821.14 471.94Z" fill="#E0AFA1"/>
<path d="M1838.04 422.59C1833.89 429.02 1827.72 434.15 1820.62 437.02C1825.8 432.93 1830.07 427.7 1833.05 421.83C1834.71 422.05 1836.39 422.27 1838.04 422.59Z" fill="#E0AFA1"/>
<path d="M1870.91 454.23C1866.49 460.03 1862.06 465.83 1857.63 471.63C1857.47 471.86 1857.28 472.1 1857.01 472.19C1856 472.57 1855.57 471 1855.48 469.93C1855.14 466.16 1850.74 463.37 1847.18 464.65C1849.29 463.21 1851.41 461.78 1853.52 460.34C1856.35 458.43 1859.21 456.49 1861.41 453.88C1863.15 451.81 1864.44 449.37 1865.17 446.77C1865.83 449.48 1866.46 452.31 1868.79 453.6C1869.46 453.97 1870.17 454.16 1870.91 454.23Z" fill="#E0AFA1"/>
<path d="M1887.9 465.53C1881.83 471.65 1872.76 474.65 1864.23 473.36C1862.97 473.17 1861.47 472.96 1860.61 473.91C1859.49 475.14 1860.47 477.12 1861.67 478.27C1863.67 480.19 1866.25 481.49 1868.98 481.96C1870.3 482.19 1871.73 482.21 1872.93 481.61C1874.64 480.76 1875.58 478.84 1877.22 477.87C1880.19 476.11 1883.86 478.06 1887.24 478.8C1887.8 478.92 1888.38 479.01 1888.94 478.9C1890 478.7 1890.82 477.85 1891.35 476.91C1893.43 473.18 1891.55 468.56 1889.67 464.72C1887.97 465.27 1886.57 466.67 1887.9 465.53Z" fill="#E0AFA1"/>
<path d="M1882.88 644.39C1880.96 645.85 1879.01 647.28 1877.05 648.66C1862.51 658.98 1846.7 667.81 1829.55 672.66C1812.4 677.51 1793.76 678.19 1778.54 672.34C1755.99 668.43 1734.89 656.58 1719.8 639.37C1704.71 622.16 1695.73 599.69 1694.79 576.83C1694.62 572.37 1694.47 567.34 1691.13 564.4C1688.36 561.98 1683.98 561.65 1681.84 558.64L1679.5 525.5C1688.94 532.09 1702.41 541.03 1711.85 547.62C1723.65 555.86 1736.64 566.18 1737.14 580.57C1737.33 585.67 1735.82 590.76 1736.27 595.85C1737.05 604.92 1743.71 612.27 1750.31 618.53C1771.02 638.15 1796.42 655.12 1824.91 656.84C1844.86 658.04 1864.08 651.73 1882.88 644.39Z" fill="#99685A"/>
<path d="M1877.55 466.49C1879.2 464.55 1880.61 462.4 1881.75 460.12C1882.18 459.26 1882.54 458.15 1881.94 457.39C1881.69 457.07 1881.3 456.89 1880.93 456.73C1879.01 455.93 1876.81 455.54 1874.86 456.25C1872.91 456.96 1871.35 459.01 1871.72 461.05C1871.96 462.38 1872.9 463.45 1873.62 464.6C1874.33 465.75 1874.84 467.24 1877.55 466.49Z" fill="#E0AFA1"/>
<path d="M1890.71 499.82C1890.95 502.9 1891.64 505.94 1892.78 508.81C1890.67 508.4 1888.37 509.23 1887.01 510.89C1886.35 511.7 1885.81 512.75 1884.8 513.05C1883.53 513.42 1882.33 512.39 1881.18 511.74C1879.61 510.85 1877.74 510.61 1876.13 509.78C1874.52 508.95 1873.15 507.1 1873.81 505.41C1874.18 504.47 1875.09 503.86 1876 503.4C1877.91 502.44 1880.02 501.88 1882.16 501.79C1883.72 501.72 1885.33 501.89 1886.79 501.35C1888.25 500.8 1889.49 499.2 1888.95 497.73C1889.86 498.48 1890.68 499.46 1890.71 499.82Z" fill="#E0AFA1"/>
<path d="M1757.61 592.88C1759.19 589.97 1760.77 587.05 1762.35 584.14C1762.67 583.55 1763 582.93 1763.06 582.25C1763.12 581.58 1762.83 580.82 1762.21 580.55C1761.83 580.38 1761.38 580.42 1760.97 580.48C1757.78 581 1754.95 583.3 1753.78 586.31C1753.59 586.8 1753.52 587.5 1754 587.72C1755.06 586.77 1756.13 585.82 1757.19 584.88C1757.4 584.69 1757.65 584.49 1757.93 584.53C1758.48 584.6 1758.5 585.39 1758.32 585.92C1757.87 587.25 1757.14 588.47 1756.74 589.82C1756.34 591.17 1756.33 592.75 1757.61 592.88Z" fill="#E0AFA1"/>
<path d="M1776.72 602.68C1773.82 602.39 1770.99 601.32 1768.63 599.61C1767.55 598.83 1766.49 597.88 1765.18 597.63C1764.77 597.55 1764.27 597.58 1764.02 597.91C1763.79 598.22 1763.87 598.65 1764 599.01C1764.54 600.48 1765.84 601.58 1767.26 602.23C1768.69 602.88 1770.25 603.15 1771.8 603.41C1773.25 603.65 1774.7 603.9 1776.14 604.14C1776.44 604.19 1776.78 604.23 1777.03 604.05C1777.28 603.87 1777.26 603.38 1776.72 602.68Z" fill="#E0AFA1"/>
<path d="M1770.63 579.02C1769.98 581.82 1769.18 584.87 1766.85 586.55C1766.11 587.09 1765.24 587.45 1764.59 588.09C1763.53 589.11 1763.17 590.8 1763.72 592.17C1762.44 591.47 1762.39 589.63 1762.85 588.24C1763.42 586.5 1764.53 584.95 1765.99 583.84C1767.02 583.06 1768.28 582.41 1768.75 581.21C1768.94 580.74 1768.98 580.22 1769.2 579.76C1769.42 579.31 1769.92 578.92 1770.63 579.02Z" fill="#E0AFA1"/>
<path d="M1868.64 541.6C1868.46 541.6 1868.27 541.52 1868.14 541.38C1867.89 541.1 1867.91 540.68 1868.18 540.43C1873.56 535.61 1877.21 528.74 1878.17 521.57C1878.22 521.2 1878.56 520.95 1878.92 520.99C1879.29 521.04 1879.55 521.38 1879.5 521.74C1878.5 529.21 1874.69 536.39 1869.07 541.42C1868.95 541.55 1868.8 541.6 1868.64 541.6Z" fill="#E0AFA1"/>
<path d="M1872.53 541.51C1871.84 541.51 1871.15 541.47 1870.47 541.39C1870.1 541.35 1869.84 541.02 1869.88 540.65C1869.92 540.28 1870.27 540.02 1870.62 540.06C1875.77 540.64 1881.25 538.73 1884.92 535.08C1885.18 534.82 1885.61 534.82 1885.87 535.08C1886.13 535.34 1886.13 535.77 1885.87 536.03C1882.34 539.54 1877.47 541.51 1872.53 541.51Z" fill="#E0AFA1"/>
<path d="M1877.26 543.65C1874.84 543.65 1872.45 543.28 1870.35 542.96C1869.98 542.9 1869.74 542.56 1869.8 542.19C1869.86 541.82 1870.2 541.57 1870.56 541.63C1874.38 542.22 1878.72 542.89 1882.55 541.47C1885.46 540.39 1887.84 538.2 1890.22 535.86C1890.49 535.6 1890.91 535.61 1891.17 535.87C1891.43 536.13 1891.44 536.56 1891.17 536.82C1888.68 539.27 1886.17 541.56 1883 542.73C1881.15 543.41 1879.19 543.65 1877.26 543.65Z" fill="#E0AFA1"/>
<path d="M1892.87 529.99C1892.51 529 1892.67 527.9 1892.61 526.85C1892.54 525.8 1892.12 524.62 1891.12 524.26C1889.96 523.84 1888.66 524.91 1888.49 526.13C1888.31 527.35 1888.97 528.55 1889.82 529.44C1890.31 529.96 1890.9 530.43 1892.87 529.99Z" fill="#E0AFA1"/>
<path d="M1853.87 434.07C1853.36 436.22 1852.62 438.31 1851.7 440.34C1848.33 447.71 1842.64 453.55 1837.14 459.17C1837.01 459.3 1836.83 459.37 1836.66 459.37C1836.5 459.37 1836.32 459.32 1836.2 459.18C1835.93 458.92 1835.92 458.5 1836.19 458.24C1841.6 452.68 1847.21 446.94 1850.49 439.78C1851.39 437.82 1852.09 435.79 1852.58 433.73C1853.01 433.81 1853.44 433.93 1853.87 434.07Z" fill="#E0AFA1"/>
<path d="M1755.86 592.32C1754.32 597.08 1752.77 602.16 1754.01 607.01C1754.92 610.54 1757.28 613.6 1760.21 615.77C1763.14 617.94 1766.62 619.28 1770.16 620.12C1770.94 620.31 1771.85 620.45 1772.48 619.94C1773.25 619.33 1773.15 618.09 1772.69 617.22C1771.26 614.49 1767.76 613.82 1765.03 612.4C1759.88 609.72 1757.03 603.45 1757.91 597.71C1758.2 595.8 1758.86 593.84 1758.35 591.98C1757.2 591.81 1755.98 592.27 1755.86 592.32Z" fill="#99685A"/>
<path d="M1770.91 578.71C1773.02 578.37 1775.29 579.42 1776.4 581.25C1776.93 582.13 1777.2 583.15 1777.41 584.16C1777.76 585.83 1777.96 587.6 1777.42 589.22C1777.26 589.7 1777.03 590.19 1777.11 590.7C1777.16 591.07 1777.38 591.4 1777.6 591.7C1778.52 592.94 1779.72 593.97 1781.09 594.69C1781.83 595.08 1782.7 595.38 1783.48 595.08C1784.09 594.85 1784.52 594.27 1784.72 593.65C1785.2 592.15 1784.43 590.52 1783.4 589.32C1782.37 588.12 1781.08 587.16 1780.19 585.86C1778.8 583.84 1778.55 581.24 1778.62 578.79C1778.64 578.21 1778.67 577.61 1778.47 577.06C1778.02 575.81 1776.5 575.22 1775.18 575.4C1773.86 575.58 1772.71 576.36 1770.91 578.71Z" fill="#99685A"/>
<path d="M1769.24 593.83C1772.71 595.78 1776.17 597.73 1779.64 599.69C1780.37 600.1 1781.11 600.52 1781.75 601.07C1782.63 601.83 1783.28 602.82 1783.81 603.86C1785.31 606.79 1785.9 610.19 1785.36 613.43C1784.71 617.38 1782.49 620.88 1780.33 624.25C1784.59 621.81 1787.62 617.34 1788.3 612.48C1788.98 607.62 1787.31 602.48 1783.89 598.97C1780.84 595.83 1776.68 594.07 1772.6 592.48C1771.81 592.17 1770.85 591.88 1770.17 592.39C1769.5 592.9 1770.07 594.37 1769.24 593.83Z" fill="#99685A"/>
<path d="M1775.17 629.09C1766.56 629.09 1758.14 624.05 1753.56 617.26C1750.58 612.84 1748.93 607.12 1748.66 600.28C1747.71 575.77 1760.24 567.57 1759.82 568.14C1753.04 577.38 1749.56 588.78 1750 600.23C1750.26 606.82 1751.83 612.29 1754.67 616.51C1760.17 624.66 1771.54 628.6 1781.71 625.89C1784.03 625.27 1785.86 624.45 1787.31 623.36C1792.66 619.35 1795.11 609.12 1795.11 609.12C1795.11 609.12 1794.75 619.23 1788.11 624.77C1786.59 626.04 1784.54 627.2 1782.06 627.86C1779.79 628.46 1777.47 629.09 1775.17 629.09Z" fill="#99685A"/>
<path d="M1871.68 468.88C1874.84 468.4 1877.69 466.24 1878.99 463.32C1879.43 462.34 1879.7 461.26 1879.51 460.21C1879.32 459.16 1878.61 458.16 1877.58 457.86C1876.56 457.56 1875.29 458.15 1875.05 459.2C1874.75 460.53 1876.05 461.67 1876.37 463C1876.65 464.15 1876.15 465.37 1875.36 466.25C1874.57 467.13 1873.52 467.72 1871.68 468.88Z" fill="#99685A"/>
<path d="M1863.68 474.41C1863 475 1862.72 475.96 1862.81 476.85C1862.9 477.74 1863.31 478.58 1863.84 479.3C1864.66 480.44 1865.81 481.38 1867.17 481.73C1868.53 482.08 1870.1 481.75 1871.04 480.72C1871.11 480.65 1871.17 480.57 1871.18 480.47C1871.2 480.28 1871.02 480.13 1870.85 480.05C1869.86 479.55 1868.67 479.69 1867.63 479.33C1865.57 478.62 1864.64 476.29 1863.68 474.41Z" fill="#99685A"/>
<path d="M1890.45 535.89C1890.95 534.66 1890.53 533.28 1890.22 531.99C1889.91 530.7 1889.76 529.19 1890.64 528.2C1890.76 528.06 1890.91 527.94 1891.08 527.87C1891.46 527.72 1891.89 527.88 1892.2 528.13C1893.32 529.03 1893.19 530.77 1892.76 532.15C1892.32 533.58 1891.66 534.94 1890.45 535.89Z" fill="#99685A"/>
<path d="M1888.88 537.98L1889.83 535.64C1890.2 534.72 1889.92 533.59 1889.65 532.49L1889.57 532.15C1889.09 530.16 1889.28 528.73 1890.14 527.75C1890.35 527.51 1890.58 527.34 1890.83 527.24C1891.39 527.02 1892.06 527.16 1892.62 527.61C1893.77 528.54 1894.05 530.26 1893.4 532.35C1892.81 534.22 1892.01 535.52 1890.86 536.42L1888.88 537.98ZM1891.39 528.48C1891.37 528.48 1891.34 528.48 1891.33 528.49C1891.3 528.5 1891.24 528.53 1891.15 528.64C1890.6 529.26 1890.51 530.3 1890.88 531.83L1890.96 532.16C1891.09 532.7 1891.24 533.28 1891.31 533.87C1891.63 533.33 1891.9 532.69 1892.13 531.94C1892.31 531.38 1892.8 529.47 1891.78 528.65C1891.63 528.54 1891.48 528.48 1891.39 528.48Z" fill="#99685A"/>
<path d="M1885.69 536.37L1884.78 535.39C1885.65 534.42 1885.99 532.98 1885.63 531.72C1885.56 531.47 1885.46 531.21 1885.37 530.96C1885.02 529.99 1884.58 528.79 1885.27 527.73L1885.74 527.02L1886.32 527.64C1887.44 528.82 1888 530.48 1887.88 532.18C1887.75 533.87 1886.97 535.36 1885.69 536.37Z" fill="#99685A"/>
<path d="M1911.3 503.18C1910.98 503.17 1910.66 503.21 1910.33 503.29C1909.52 503.5 1908.84 503.99 1908.1 504.38C1904.84 506.1 1900.56 505.64 1897.71 503.28C1897.71 502.06 1897.39 500.86 1897.07 499.67C1896.65 498.11 1896.22 496.56 1895.81 495C1895.57 494.11 1895.33 493.16 1895.6 492.29C1895.65 492.09 1895.75 491.91 1895.86 491.74C1895.99 492.71 1896.16 493.66 1896.32 494.61C1901.96 494.03 1907.38 497.56 1910.64 502.19C1910.86 502.51 1911.09 502.84 1911.3 503.18Z" fill="#EFC3B6"/>
<path d="M1906.07 534.11C1907.67 530.95 1908.04 527.18 1907.08 523.77C1906.12 520.36 1903.84 517.34 1900.83 515.47C1900.3 515.14 1899.66 514.84 1899.08 515.05C1898.75 515.17 1898.5 515.44 1898.29 515.72C1897.01 517.44 1897.04 519.87 1897.82 521.87C1898.6 523.87 1900.01 525.56 1901.35 527.23C1902.67 528.92 1903.99 530.68 1906.07 534.11Z" fill="#EFC3B6"/>
<path d="M1176.47 671.7C1176.31 672.59 1176.13 673.46 1175.96 674.34C1172.66 691.45 1168.7 709.06 1157.77 722.57C1145.96 737.19 1127.74 744.8 1110.2 751.52C1098.19 756.11 1086.04 760.58 1073.42 763.08C1040.48 769.59 1005.33 762.03 979.085 743.68C943.285 719.96 915.095 686.65 887.745 653.55C834.005 588.53 781.445 522.52 730.975 454.38C723.525 486.9 706.775 516.72 686.345 543.1C665.915 569.48 641.795 592.74 617.785 615.91C605.985 627.28 594.185 638.66 582.385 650.03C574.825 657.32 567.155 664.78 562.315 674.08C556.195 685.88 554.915 700.12 546.695 710.55C541.715 716.86 534.625 721.14 527.395 724.67C517.185 729.65 506.365 733.39 495.245 735.8C492.575 736.38 489.745 736.94 487.675 738.75C485.375 740.79 484.505 743.98 482.685 746.47C478.065 752.7 468.965 752.81 461.225 752.32C446.665 751.41 431.075 750.12 422.255 743.33C406.055 732.44 390.715 720.31 376.385 707.05C372.175 703.16 367.985 699.06 365.415 693.92C361.265 685.58 362.005 675.87 361.835 666.4C361.705 660.12 361.175 653.94 358.515 648.35C355.975 642.99 351.705 638.69 347.695 634.34C339.055 624.94 331.225 614.8 324.335 604.04C320.605 598.19 317.075 592 315.935 585.15C314.795 578.3 316.445 570.64 321.675 566.08C323.805 564.23 326.525 562.86 327.845 560.36C330.505 555.41 326.315 549.61 326.005 544C325.645 537.25 331.105 531.46 337.145 528.43C343.185 525.41 350.005 524.27 356.195 521.56C362.385 518.85 368.305 513.79 368.975 507.06C369.415 502.62 367.485 498.19 367.955 493.76C368.725 486.59 375.255 481.67 381.215 477.64C385.725 474.59 390.245 471.53 394.385 469.44C431.605 415.53 468.825 361.63 506.045 307.72C512.795 297.95 519.575 288.12 524.975 277.53C534.515 258.82 539.615 238.01 549.985 219.74C563.515 195.85 585.485 177.53 609.785 164.75C634.085 151.98 660.765 144.4 686.065 138C708.965 139.56 731.705 143.41 753.855 149.45C763.235 152.01 772.535 154.98 781.435 158.9C790.495 162.89 799.095 167.84 807.485 173.09C867.065 210.37 915.835 262.23 963.885 313.48C975.735 326.12 987.585 338.77 999.445 351.41C1009.12 361.73 1019.27 372.98 1021.29 386.99C1025.88 380.78 1031.89 375.61 1037.4 372.44C1079 466.96 1137.2 553.58 1175.45 646.67C1179.56 654.15 1178.07 663.31 1176.47 671.7Z" fill="#495760"/>
<path d="M774.975 240.45C765.015 244.21 753.785 249.84 751.875 260.31C750.255 269.23 756.265 277.57 761.935 284.64C810.995 345.79 861.155 406.8 921.505 456.84C935.235 468.22 951.315 479.59 969.085 478.1C973.445 477.73 978.505 475.83 979.415 471.55C979.905 469.24 979.015 466.88 978.015 464.74C972.575 453.15 963.645 443.61 954.595 434.55C912.185 392.05 863.285 354.09 834.145 301.59C824.315 283.89 816.915 264.79 805.425 248.12C802.615 244.05 799.415 240 794.975 237.82C787.285 234.04 778.115 236.77 774.975 240.45Z" fill="#576975"/>
<path d="M365.785 664.25C365.945 651.58 371.715 639.07 381.255 630.72C384.915 627.52 389.135 624.86 392.075 620.99C395.035 617.09 396.475 612.26 398.885 608C404.705 597.69 415.575 591.51 424.945 584.29C452.075 563.38 468.355 531.75 483.785 501.17C498.515 471.97 513.255 442.77 527.985 413.57C538.645 392.44 549.345 371.2 556.525 348.66C561.975 331.54 565.405 313.66 573.205 297.47C582.305 278.62 596.865 263.05 611.245 247.84C616.525 242.26 621.865 236.63 628.245 232.33C652.255 216.16 685.955 221.79 710.425 206.33C712.835 204.81 715.405 202.42 714.815 199.63C714.415 197.74 712.675 196.48 710.975 195.55C694.505 186.59 674.265 193.97 657.145 201.62C635.455 211.32 613.475 221.65 596.405 238.18C582.065 252.06 571.915 269.6 561.955 286.9C520.745 358.48 479.535 430.06 438.335 501.65C425.915 523.23 413.445 544.87 398.315 564.64C381.395 586.74 360.705 607.3 352.815 634C350.895 640.48 349.815 647.5 351.885 653.93C353.975 660.34 359.955 665.88 365.785 664.25Z" fill="#576975"/>
<path d="M694.785 209.36C755.835 212.35 816.745 228.96 868.505 261.48C884.505 271.53 899.545 283.02 914.555 294.49C923.605 301.4 932.665 308.33 940.975 316.11C955.245 329.47 967.165 345.25 982.055 357.92C992.765 367.04 1004.85 374.4 1017.08 381.33C974.735 349.51 940.235 308.56 900.995 272.98C861.755 237.4 815.175 206.2 762.495 200.75C752.325 199.7 742.085 199.63 731.905 198.67C718.015 197.37 702.275 194.93 691.585 203.9C692.945 204.91 694.305 205.91 694.785 209.36Z" fill="#576975"/>
<path d="M702.425 362.58C685.085 354.98 667.465 347.2 653.095 334.88C656.825 332.47 661.755 333.61 665.905 335.17C680.675 340.75 693.685 350.9 702.425 362.58Z" fill="#576975"/>
<path d="M349.375 524.04C358.165 538.95 363.884 555.68 365.924 572.86C361.294 575.05 356.115 571.32 352.585 567.6C343.175 557.72 335.614 546.08 330.354 533.49" fill="#576975"/>
<path d="M1175.96 674.35C1172.66 691.46 1168.71 709.07 1157.78 722.58C1145.97 737.2 1127.74 744.81 1110.2 751.53C1098.19 756.12 1086.04 760.59 1073.42 763.09C1040.48 769.6 1005.33 762.04 979.085 743.69C943.285 719.97 915.095 686.66 887.745 653.56C834.005 588.54 781.445 522.53 730.975 454.39C723.525 486.91 706.775 516.73 686.345 543.11C665.915 569.49 641.795 592.75 617.785 615.92C605.985 627.29 594.185 638.67 582.385 650.04C574.825 657.33 567.155 664.79 562.315 674.09C556.195 685.89 554.915 700.13 546.695 710.56C541.715 716.87 534.625 721.15 527.395 724.68C517.185 729.66 506.365 733.4 495.245 735.81C492.575 736.39 489.745 736.95 487.675 738.76C485.375 740.8 484.505 743.99 482.685 746.48C478.065 752.71 468.965 752.82 461.225 752.33C446.665 751.42 431.075 750.13 422.255 743.34C406.055 732.45 390.715 720.32 376.385 707.06C372.175 703.17 367.985 699.07 365.415 693.93C361.265 685.59 362.005 675.88 361.835 666.41C384.705 683.55 407.595 700.68 430.465 717.81C439.905 724.88 453.355 731.98 462.435 724.48C469.295 718.83 467.725 706.09 459.725 702.27C469.885 702.18 480.045 702.08 490.205 701.99C493.155 695.02 488.675 687.04 483.055 681.96C477.435 676.9 470.465 673.15 466.145 666.93C461.835 660.72 461.715 650.5 468.445 647.02C476.785 642.7 485.235 651.84 492.885 657.29C505.405 666.22 522.845 665.63 536.955 659.5C551.065 653.38 562.525 642.55 573.355 631.61C613.485 591.07 649.275 546.21 679.895 498.07C699.505 467.24 717.595 432.12 712.705 395.91C709.775 374.29 698.895 354.68 688.635 331.8C751.845 356.26 794.705 414.44 832.975 470.38C871.255 526.3 911.565 585.55 972.935 614.29C996.895 625.52 1022.92 631.46 1048.73 637.32C1084.52 645.44 1125.44 652.64 1155.16 631.09C1162.47 645.33 1169.4 659.74 1175.96 674.35Z" fill="#3A474F"/>
<path d="M360.775 655.22C361.235 655.27 361.685 655.33 362.155 655.35C360.115 639.01 367.455 621.85 380.675 612.03C385.065 608.77 390.255 606.04 392.765 601.17C394.955 596.93 394.685 591.79 396.695 587.48C400.385 579.56 410.055 576.97 417.955 573.28C437.905 563.94 450.255 543.87 461.085 524.69C500.895 454.29 536.095 381.27 566.385 306.26C571.295 294.09 576.125 281.78 583.175 270.7C600.305 243.81 629.285 226.38 656.165 215.92C683.735 201.71 716.715 203.11 747.215 208.74C816.695 221.55 882.245 254.86 933.565 303.41C962.155 330.47 986.815 362.43 1020.28 383.17C981.535 341.36 942.785 299.55 902.235 259.48C882.945 240.41 863.135 221.64 840.555 206.61C803.385 181.86 758.795 167.84 714.155 169.03C669.525 170.21 625.105 186.96 592.185 217.12C576.135 231.83 562.975 249.38 550.055 266.91C536.915 284.71 523.885 302.61 511.935 321.25C479.025 372.55 454.595 429.05 437.075 487.41C432.085 504.03 424.525 523.79 407.425 526.69C394.955 528.81 380.165 520.96 370.485 529.11C386.295 546.39 385.355 576.29 368.515 592.55C362.725 580.54 350.625 571.81 337.385 570.13C340.885 582.06 343.515 594.25 345.265 606.56C339.075 609.11 333.295 602.71 328.445 598.1C325.985 595.76 322.125 594.15 318.755 594.03" fill="#3A474F"/>
<path d="M1208.73 617.48C1205.95 629.21 1201.7 640.93 1192.57 648.58C1189.24 651.37 1185.4 653.49 1181.52 655.47C1177.99 657.27 1174.39 658.99 1170.69 660.4C1168.48 661.26 1166.21 662 1163.9 662.6C1163.13 662.79 1162.37 662.98 1161.6 663.14C1154.62 664.62 1147.16 664.55 1140.54 661.88C1137.24 660.55 1134.18 658.52 1131.71 655.96L1131.7 655.95C1131.7 655.94 1131.7 655.91 1131.69 655.9C1131.48 655.4 1131.27 654.92 1131.07 654.42C1130.87 653.94 1130.68 653.44 1130.49 652.94C1130.3 652.43 1130.11 651.91 1129.94 651.38C1129.82 651 1129.71 650.63 1129.6 650.25C1129.56 650.14 1129.53 650.04 1129.51 649.93C1129.42 649.58 1129.32 649.22 1129.24 648.86C1129.17 648.54 1129.09 648.2 1129.04 647.87C1128.97 647.53 1128.92 647.2 1128.87 646.85C1128.09 641.36 1129.5 635.59 1132.57 630.96C1132.88 630.56 1133.19 630.15 1133.32 629.78C1133.91 630.77 1134.5 631.77 1135.06 632.76C1135.14 632.88 1135.21 633.02 1135.27 633.14C1135.67 633.82 1136.05 634.51 1136.42 635.21C1136.98 636.24 1137.53 637.29 1138.07 638.35C1138.42 639.02 1138.75 639.69 1139.08 640.36C1139.21 640.59 1139.32 640.82 1139.42 641.04C1140 642.18 1140.53 643.34 1141.04 644.5C1141.46 645.44 1141.86 646.38 1142.25 647.33C1142.57 648.1 1142.88 648.86 1143.18 649.64C1143.44 650.28 1143.68 650.93 1143.92 651.57C1144.08 652.03 1144.24 652.48 1144.4 652.95C1144.59 653.47 1144.76 654 1144.95 654.53C1145.19 655.27 1145.42 655.99 1145.65 656.73C1150.7 656.85 1155.74 656.26 1160.64 655.04C1162.59 654.56 1164.52 653.97 1166.41 653.28C1178.46 648.94 1189.16 640.76 1196.1 629.96C1197.67 627.53 1199.09 624.75 1198.66 621.99C1196.11 616.63 1195.49 610.37 1196.9 604.29C1200.89 608.81 1204.86 613.34 1208.31 617.47C1208.46 617.46 1208.59 617.46 1208.73 617.48Z" fill="#263F4F"/>
<path d="M1100.55 333.82C1098.55 339.35 1096.11 344.73 1093.25 349.87C1089.17 357.19 1083.93 364.31 1076.38 367.92C1068.84 371.54 1059.52 369.79 1056.15 366.22C1055.55 365.58 1054.93 364.96 1054.3 364.37C1046.6 357.04 1036.6 352.45 1026.61 348.63C1015.8 344.5 1004.62 341.03 994.784 334.97C991.554 332.97 988.404 330.63 986.354 327.45C985.494 326.11 984.854 324.58 984.514 323.01C984.164 321.37 984.154 319.68 984.564 318.08C984.694 317.58 984.874 317.09 985.104 316.6C985.454 315.85 985.924 315.12 986.434 314.43C987.484 312.97 988.704 311.58 989.464 310.07C989.984 309.08 990.314 308.03 990.244 306.88C990.234 306.56 990.174 306.25 990.094 305.95C990.014 305.6 989.904 305.27 989.784 304.93C989.734 304.76 989.664 304.59 989.584 304.43C989.314 303.77 988.994 303.14 988.694 302.5C988.614 302.33 988.544 302.14 988.464 301.96C987.784 300.31 987.454 298.54 987.484 296.75V296.74C987.484 296.62 987.484 296.49 987.494 296.36C987.494 296.13 987.504 295.9 987.534 295.68C987.624 294.61 987.844 293.55 988.164 292.51C988.554 291.28 989.114 290.08 989.844 289.01C990.484 288.02 991.284 287.12 992.184 286.34C992.524 286.06 992.864 285.78 993.204 285.51L993.214 285.5C993.934 284.91 994.634 284.32 995.144 283.54C995.584 282.86 995.844 282.13 995.954 281.37C996.074 280.56 996.034 279.73 995.914 278.89C995.634 276.7 994.824 274.41 994.774 272.19V272.18C994.744 271.46 994.804 270.74 994.974 270.05C995.104 269.51 995.314 269.02 995.554 268.56C996.114 267.51 996.924 266.63 997.894 265.84C999.734 264.34 1002.05 263.17 1004.15 261.83C1004.15 261.83 1004.16 261.82 1004.18 261.82C1006.37 260.41 1008.26 258.79 1008.93 256.37C1009.05 255.93 1009.12 255.47 1009.16 255.01C1009.29 253.41 1009.04 251.76 1009.09 250.15C1009.1 249.65 1009.16 249.18 1009.26 248.7V248.69C1009.26 248.61 1009.29 248.53 1009.3 248.45C1009.57 247.31 1010.11 246.34 1010.8 245.52C1012.02 244.14 1013.77 243.16 1015.71 242.54C1017.79 241.84 1020.11 241.55 1022.25 241.51C1033.02 241.32 1043.82 243.87 1053.35 248.85C1057.38 250.94 1061.38 253.71 1063.15 257.88C1063.77 259.34 1064.13 260.99 1065.31 262.05C1066.08 262.73 1067.08 263.04 1068.12 263.07C1068.99 263.12 1069.88 262.96 1070.7 262.68C1072.49 262.06 1074.06 260.92 1075.76 260.12C1076.31 259.85 1076.85 259.6 1077.37 259.34C1081.32 257.43 1084.4 256.23 1089.96 259.14C1092.16 260.29 1094.86 263.17 1095.37 265.61C1095.72 267.33 1096.67 271.29 1096.66 273.21C1096.65 276.82 1095.04 282.75 1094.74 287.53C1094.23 295.46 1091.85 302.03 1094.04 309.87C1095.23 314.11 1100.03 316.51 1101.66 320.59C1103.37 324.78 1102.09 329.56 1100.55 333.82Z" fill="#FDD5C8"/>
<path d="M1045.18 334.67C1042.84 336.74 1039.61 337.45 1036.5 337.6C1024.58 338.16 1013.56 331.68 1001.9 329.17C997.825 328.28 993.605 327.88 989.745 326.32C987.835 325.55 986.005 324.43 984.525 323C984.175 321.36 984.165 319.67 984.575 318.07C984.705 317.57 984.885 317.08 985.115 316.59C985.465 315.84 985.935 315.11 986.445 314.42C993.335 319.64 1003.38 320.51 1010.96 316.26C1011.54 321.07 1015.73 324.57 1019.91 327.01C1027.58 331.48 1036.31 334.13 1045.18 334.67Z" fill="#E0AFA1"/>
<path d="M1010.74 312.21C1009.34 311.81 1007.95 311.4 1006.54 311.03C1003.94 310.33 1001.31 309.75 998.654 309.47C995.594 309.15 992.444 309.26 989.474 310.06C989.994 309.07 990.324 308.02 990.254 306.87C990.244 306.55 990.184 306.24 990.104 305.94C990.024 305.59 989.914 305.26 989.794 304.92C989.744 304.75 989.674 304.58 989.594 304.42C989.324 303.76 989.004 303.13 988.704 302.49C988.914 302.52 989.134 302.56 989.334 302.6C997.064 304.13 1004.44 307.45 1010.74 312.21Z" fill="#E0AFA1"/>
<path d="M1061.28 317.93C1060.94 318.43 1060.57 318.88 1060.14 319.3C1058.34 321.06 1055.83 322.11 1053.31 322.41C1050.2 322.81 1047.03 322.22 1043.99 321.39C1039.52 320.18 1035.18 318.44 1031.1 316.24C1025.27 313.09 1020.01 308.99 1014.43 305.45C1012.2 304.03 1009.87 302.67 1007.28 302.11C1003.98 301.4 1000.54 302.03 997.164 301.77C993.674 301.53 990.094 300.19 987.954 297.41C987.794 297.2 987.644 296.98 987.494 296.75V296.74C987.494 296.62 987.494 296.49 987.504 296.36C987.504 296.13 987.514 295.9 987.544 295.68C987.634 294.61 987.854 293.55 988.174 292.51C988.564 291.28 989.124 290.08 989.854 289.01C992.984 291.92 996.994 293.9 1001.21 294.59C1005.95 295.38 1011.05 294.66 1015.33 296.82C1017.93 298.12 1019.95 300.36 1022.48 301.79C1024.71 303.05 1027.26 303.63 1029.63 304.61C1033.31 306.14 1036.49 308.62 1039.63 311.07C1042.78 313.51 1045.97 316 1049.64 317.53C1053.33 319.03 1057.62 319.53 1061.28 317.93Z" fill="#E0AFA1"/>
<path d="M1069.24 343.82C1066.34 351.9 1061.48 358.83 1055.09 363.82C1054.83 364.02 1054.57 364.21 1054.3 364.37C1046.6 357.04 1036.6 352.45 1026.61 348.63C1015.8 344.5 1004.62 341.03 994.784 334.97C991.554 332.97 988.404 330.63 986.354 327.45C984.584 324.7 983.754 321.2 984.564 318.08C986.604 320.07 988.284 322.56 990.914 323.61C994.744 325.11 998.914 322.95 1002.84 321.73C1004.45 321.23 1006.44 320.98 1007.65 322.16C1008.23 322.74 1008.5 323.54 1008.86 324.27C1010.42 327.4 1013.69 329.25 1016.83 330.77C1021.35 332.97 1026.04 334.92 1030.99 335.82C1035.93 336.73 1041.16 336.53 1045.8 334.56C1043.6 338.51 1038.47 339.9 1033.97 339.42C1029.49 338.95 1025.29 337.04 1020.91 335.98C1017.29 335.09 1013.51 334.8 1009.8 335.09C1011.88 338.03 1015.77 338.89 1019.28 339.75C1027.19 341.67 1034.82 344.64 1041.95 348.56C1044.43 349.92 1046.9 351.42 1049.65 352.1C1056.91 353.92 1064.51 349.64 1069.24 343.82Z" fill="#99685A"/>
<path d="M1018.59 287.78C1014.12 286.36 1009.61 284.91 1004.95 284.36C1001 283.9 996.915 284.13 993.225 285.49C993.945 284.9 994.645 284.31 995.155 283.53C995.595 282.85 995.855 282.12 995.965 281.36C996.085 280.55 996.045 279.72 995.925 278.88C1000.04 278.28 1004.27 279.16 1008.07 280.84C1011.92 282.55 1015.36 285.07 1018.59 287.78Z" fill="#E0AFA1"/>
<path d="M1051.06 297.86C1050.42 297.83 1049.81 297.52 1049.25 297.22C1043.36 294.08 1037.64 290.62 1031.99 287.06C1029.75 285.65 1027.52 284.23 1025.06 283.22C1018.78 280.64 1011.61 281.05 1005.21 278.76C1003 277.97 1000.89 276.87 998.905 275.61C997.385 274.66 995.885 273.57 994.785 272.17C994.775 272.16 994.785 272.16 994.785 272.16C994.755 271.44 994.815 270.72 994.985 270.03C995.115 269.49 995.325 269 995.565 268.54C996.125 267.49 996.935 266.61 997.905 265.82C1000.61 269.38 1005.11 271.36 1009.54 272.41C1011.24 272.81 1012.99 273.12 1014.73 273.31C1018.81 273.74 1022.94 273.58 1027 274.21C1031.05 274.83 1035.17 276.36 1037.81 279.51C1038.6 280.45 1039.23 281.52 1040.01 282.48C1042.76 285.9 1046.99 287.69 1050.52 290.29C1051.9 291.3 1053.24 292.56 1053.59 294.22C1053.93 295.88 1052.77 297.93 1051.06 297.86Z" fill="#E0AFA1"/>
<path d="M1029.79 265.7C1029.71 265.85 1029.58 265.96 1029.43 266.04C1027.56 267.18 1025.16 267.07 1023.07 266.43C1020.98 265.79 1019.08 264.66 1017.07 263.77C1013.04 262.03 1008.55 261.34 1004.18 261.78C1006.37 260.37 1008.26 258.75 1008.93 256.33C1009.05 255.89 1009.12 255.43 1009.16 254.97C1009.29 253.37 1009.04 251.72 1009.09 250.11C1009.88 250.39 1010.65 250.83 1011.32 251.29C1011.4 251.34 1011.49 251.4 1011.58 251.45C1012.14 251.84 1012.72 252.22 1013.28 252.59C1013.31 252.6 1013.32 252.62 1013.35 252.63C1016.41 254.66 1019.46 256.68 1022.52 258.72C1025.1 260.42 1027.73 262.2 1029.55 264.71C1029.75 265.01 1029.96 265.39 1029.79 265.7Z" fill="#E0AFA1"/>
<path d="M1061.06 318.87C1059.11 322.57 1054.86 324.64 1050.67 324.91C1046.5 325.18 1042.37 323.9 1038.5 322.33C1035.6 321.16 1032.77 319.82 1030.04 318.33C1027.97 317.19 1025.95 315.97 1023.76 315.11C1021.52 314.24 1019.13 313.77 1016.71 313.71C1015.18 313.68 1013.62 313.83 1012.11 313.54C1010.19 313.15 1008.49 312.08 1006.75 311.14C1006.68 311.1 1006.6 311.06 1006.54 311.03C1001.45 308.28 995.844 306.55 990.104 305.94C990.024 305.59 989.914 305.26 989.794 304.92C989.744 304.75 989.674 304.58 989.594 304.42C989.324 303.76 989.004 303.13 988.704 302.49C988.624 302.32 988.554 302.13 988.474 301.95C987.794 300.3 987.464 298.53 987.494 296.74V296.73C987.494 296.61 987.494 296.48 987.504 296.35C987.504 296.12 987.514 295.89 987.544 295.67C987.634 294.6 987.854 293.54 988.174 292.5C990.494 294.66 993.024 296.61 995.694 298.29C996.484 298.79 997.294 299.26 998.204 299.46C999.294 299.72 1000.43 299.54 1001.54 299.38C1006.77 298.64 1012.47 298.32 1017.03 301C1019.34 302.36 1021.24 304.42 1023.78 305.31C1024.85 305.69 1025.98 305.82 1027.08 306.14C1028.68 306.62 1030.15 307.47 1031.56 308.37C1034.49 310.21 1037.29 312.24 1039.95 314.45C1043.67 317.54 1047.53 321.15 1052.37 321.34C1055.07 321.45 1057.66 320.43 1060.13 319.3C1060.44 319.15 1060.75 319.02 1061.06 318.87Z" fill="#99685A"/>
<path d="M1063.89 273.19C1063.43 275.19 1062.25 276.64 1061.42 277.63C1060.98 278.17 1058.56 276.07 1057.27 275.04C1053.06 271.66 1047.75 270.03 1042.84 267.79C1034.56 264 1027.2 258.35 1018.76 254.96C1016.93 254.22 1015.04 253.59 1013.34 252.64C1013.31 252.63 1013.3 252.61 1013.27 252.6C1012.72 252.3 1012.2 251.97 1011.7 251.58C1011.66 251.54 1011.61 251.51 1011.57 251.46C1011.56 251.46 1011.54 251.45 1011.53 251.43C1010.6 250.69 1009.8 249.73 1009.26 248.66V248.65C1009.26 248.57 1009.29 248.49 1009.3 248.41C1009.57 247.27 1010.11 246.3 1010.8 245.48C1012.02 244.1 1013.77 243.12 1015.71 242.5C1016.03 243.83 1016.52 245.1 1017.51 246C1018.02 246.46 1018.64 246.79 1019.24 247.11C1020.68 247.88 1022.14 248.61 1023.68 249.15C1028.36 250.77 1033.52 250.43 1038.31 251.67C1039.56 251.99 1040.81 252.44 1041.8 253.27C1042.67 253.99 1043.29 254.99 1043.95 255.91C1045.12 257.6 1046.45 259.2 1047.91 260.66C1049.59 262.35 1051.44 263.87 1053.29 265.37C1056.38 267.89 1059.45 270.42 1062.75 272.65C1063.72 273.3 1064.15 272.08 1063.89 273.19Z" fill="#E0AFA1"/>
<path d="M1056.89 302.56C1056.7 303.16 1056.38 303.7 1056.1 304.47C1053.76 305.64 1051.01 304.21 1048.92 302.67C1045.73 300.31 1042.81 297.57 1039.59 295.23C1036.36 292.91 1032.7 290.99 1028.76 290.56C1025.7 290.24 1022.56 290.82 1019.57 290.1C1013.93 288.77 1010.04 283.19 1004.38 281.95C1002.12 281.47 999.784 281.72 997.474 281.55C996.974 281.51 996.484 281.46 995.984 281.35C996.494 277.85 994.074 273.69 995.004 270.02C995.134 269.48 995.344 268.99 995.584 268.53C996.224 269.15 996.774 269.97 997.314 270.68C999.394 273.45 1002.64 275.19 1006.01 276C1009.38 276.82 1012.9 276.77 1016.35 276.51C1021.63 276.11 1027.48 275.36 1031.71 278.54C1034.02 280.27 1035.41 282.9 1037.13 285.22C1040.18 289.35 1044.39 292.64 1049.14 294.6C1051.05 295.39 1053.06 295.98 1054.68 297.23C1056.3 298.47 1057.48 300.6 1056.89 302.56Z" fill="#99685A"/>
<path d="M1060.99 275.72C1061 275.85 1060.91 275.96 1060.83 276.07C1059.53 277.6 1058.21 279.14 1056.91 280.67C1054.53 277.68 1051.61 274.6 1048.21 272.12C1044.8 269.65 1040.84 267.78 1036.65 267.41C1034.13 267.18 1031.58 267.5 1029.07 267.21C1024.69 266.7 1020.59 264.27 1018.05 260.67C1016.86 258.95 1015.9 256.93 1014.06 255.92C1012.58 255.13 1010.81 255.17 1009.15 254.98C1009.34 252.82 1008.79 250.55 1009.3 248.42C1009.57 247.28 1010.11 246.31 1010.8 245.49C1012.05 246.86 1013.06 248.43 1014.3 249.81C1015.62 251.26 1017.35 252.51 1019.31 252.63C1020.34 252.68 1021.43 252.43 1022.42 252.76C1023.43 253.08 1024.14 253.97 1025 254.6C1028.48 257.18 1033.71 255.5 1037.46 257.66C1039.61 258.92 1040.9 261.23 1042.68 262.98C1043.79 264.09 1045.12 264.98 1046.44 265.85C1051.21 269.04 1055.96 272.23 1060.72 275.41C1060.85 275.49 1060.97 275.58 1060.99 275.72Z" fill="#99685A"/>
<path d="M1071.88 304.13C1069.42 306.04 1065.85 305.59 1062.98 304.38C1059.93 303.09 1057.19 301.06 1055.08 298.5C1054.27 297.52 1053.37 296.37 1052.1 296.31C1051.79 296.3 1051.44 296.38 1051.28 296.64C1051.2 296.78 1051.18 296.94 1051.17 297.1C1051.06 298.88 1051.78 300.63 1052.87 302.05C1053.95 303.46 1055.38 304.58 1056.82 305.62C1057.77 306.3 1058.75 306.97 1059.84 307.38C1061.79 308.11 1063.99 307.96 1065.96 307.31C1067.95 306.65 1069.74 305.52 1071.88 304.13Z" fill="#99685A"/>
<path d="M1085.15 288.6C1087.15 288.12 1089.21 287.51 1090.7 286.1C1091.08 285.75 1091.42 285.33 1091.56 284.83C1091.69 284.33 1091.57 283.73 1091.16 283.43C1090.83 283.19 1090.39 283.16 1089.98 283.15C1089.21 283.13 1088.38 283.14 1087.73 283.55C1087.14 283.93 1086.78 284.57 1086.47 285.2C1085.81 286.56 1085.24 287.97 1085.15 288.6Z" fill="#99685A"/>
<path d="M1077.37 259.31C1074.39 261.98 1071.65 264.89 1069.2 268.05C1068.85 266.44 1068.5 264.82 1068.15 263.19C1068.14 263.14 1068.14 263.1 1068.12 263.04C1068.99 263.09 1069.88 262.93 1070.7 262.65C1072.49 262.03 1074.06 260.89 1075.76 260.09C1076.31 259.82 1076.85 259.57 1077.37 259.31Z" fill="#E0AFA1"/>
<path d="M1091.46 310.71C1090.85 316.23 1088.1 321.31 1084.8 325.77C1081.5 330.24 1077.61 334.24 1074.24 338.65C1077.95 331.8 1082.16 325.22 1086.84 318.99C1088.72 316.5 1090.75 313.85 1091.46 310.71Z" fill="#E0AFA1"/>
<path d="M1069.3 305.56C1076.13 301.14 1081.68 294.75 1085.11 287.37C1085.63 286.25 1086.12 285.09 1086.95 284.18C1087.78 283.27 1089.07 282.66 1090.26 282.99C1091.64 283.38 1092.75 284.94 1094.14 284.59C1094.44 282.62 1092.29 280.94 1090.3 281.03C1088.31 281.12 1086.59 282.45 1085.2 283.88C1081.69 287.51 1079.42 292.13 1076.83 296.47C1074.24 300.81 1071.09 305.1 1069.3 305.56Z" fill="#E0AFA1"/>
<path d="M1052.65 298.52C1051.68 296.45 1051.6 294.04 1052.07 291.8C1052.54 289.56 1053.52 287.46 1054.6 285.44C1058.68 277.81 1064.3 271.01 1071.01 265.56C1072.24 264.56 1073.54 263.59 1075.04 263.07C1073.45 264.58 1071.85 266.09 1070.26 267.6C1068.1 269.65 1065.93 271.71 1064.02 273.99C1060.67 277.99 1058.17 282.63 1056 287.38C1055.05 289.46 1054.16 291.6 1053.82 293.86C1053.48 296.12 1053.74 298.55 1054.97 300.48C1053.64 300.15 1052.54 299.06 1052.65 298.52Z" fill="#E0AFA1"/>
<path d="M1053.33 295.44C1055.38 295.33 1057.36 296.18 1059.18 297.13C1062.48 298.85 1065.81 301.27 1066.77 304.86C1066.84 305.13 1066.88 305.46 1066.66 305.63C1066.51 305.75 1066.3 305.73 1066.11 305.7C1063.27 305.32 1060.34 304.88 1057.93 303.34C1056.43 302.38 1055.21 301.03 1054.06 299.68C1053.46 298.98 1052.85 298.23 1052.64 297.33C1052.43 296.42 1052.73 295.47 1053.33 295.44Z" fill="#E0AFA1"/>
<path d="M1066.2 303.68C1068.83 299.91 1072.62 296.95 1076.92 295.32C1077.25 295.19 1077.73 295.13 1077.87 295.46C1077.94 295.63 1077.87 295.82 1077.8 295.99C1076.31 299.45 1073.66 302.28 1070.73 304.65C1069.89 305.33 1068.94 306.01 1067.87 306C1066.8 306.01 1065.41 304.81 1066.2 303.68Z" fill="#E0AFA1"/>
<path d="M1533.95 601.19C1533.6 601.5 1533.25 601.79 1532.9 602.1C1532.82 601.03 1533.64 600.86 1533.95 601.19Z" fill="#709EB8"/>
<path d="M203.035 509.49C200.295 514.41 197.855 519.5 195.715 524.72C195.415 525.45 195.135 526.3 195.515 526.98C196.495 528.74 200.385 527.31 200.625 529.31C199.895 530.37 198.695 530.97 197.565 531.58C196.435 532.19 195.265 532.89 194.695 534.04C194.125 535.19 194.465 536.87 195.675 537.29C196.405 537.54 197.195 537.27 197.915 537C203.645 534.85 209.175 532.18 214.425 529.03C216.445 530.54 213.485 534.22 215.075 536.18C215.495 536.7 216.155 536.96 216.795 537.19C218.405 537.78 220.405 538.31 221.685 537.17C222.775 536.2 222.745 534.47 222.285 533.08C221.825 531.69 221.025 530.41 220.825 528.96C220.765 528.54 220.765 528.08 220.975 527.71C221.515 526.76 222.915 526.98 223.945 526.61C225.005 526.23 225.725 525.05 225.555 523.93C225.395 522.81 224.375 521.88 223.245 521.82C221.875 521.75 220.185 522.7 219.305 521.64C219.085 521.38 218.985 521.04 218.895 520.71C217.475 516.01 215.155 511.58 212.075 507.74C211.135 506.57 209.565 505.35 208.305 506.16C207.395 506.74 207.315 508.1 207.785 509.08C208.255 510.06 209.105 510.78 209.835 511.58C211.975 513.95 212.985 517.1 213.945 520.15C214.255 521.15 214.565 522.28 214.075 523.21C213.555 524.2 212.355 524.58 211.275 524.86C209.415 525.35 207.555 525.83 205.705 526.32C204.625 524.54 205.375 522.23 206.375 520.41C207.375 518.59 208.675 516.75 208.625 514.67C208.585 512.97 207.565 511.33 206.055 510.56C204.545 509.78 202.615 509.9 203.035 509.49Z" fill="#23282B"/>
<path d="M227.405 519.94C230.265 524.19 232.495 528.86 233.995 533.76C228.065 536.22 222.735 540.12 218.605 545.04C217.545 546.3 216.525 548.1 217.415 549.49C218.015 550.42 219.285 550.72 220.375 550.49C221.465 550.26 222.395 549.61 223.305 548.97C224.975 547.8 226.635 546.62 228.305 545.45C230.555 543.86 233.455 542.22 235.885 543.52C237.845 544.57 238.945 547.35 241.165 547.33C242.375 547.32 243.435 546.34 243.775 545.18C244.115 544.02 243.815 542.75 243.225 541.7C242.545 540.5 241.555 538.81 242.675 538.01C243.145 537.67 243.775 537.73 244.355 537.63C245.735 537.39 246.775 536.15 247.195 534.82C247.615 533.48 247.535 532.05 247.455 530.65C246.905 530.08 245.915 530.35 245.315 530.86C244.705 531.37 244.245 532.07 243.535 532.41C242.045 533.13 240.265 531.85 239.635 530.33C239.005 528.8 239.105 527.08 238.795 525.46C238.115 521.84 235.245 518.75 231.715 517.7C230.395 517.31 228.805 517.23 227.785 518.16C226.735 519.06 227.005 521.2 227.405 519.94Z" fill="#23282B"/>
<path d="M250.435 532.69C252.165 536.38 253.885 540.06 255.615 543.75C250.165 544.65 245.785 548.58 241.735 552.34C240.695 553.3 239.605 554.36 239.325 555.75C239.045 557.14 240.055 558.85 241.465 558.71C242.015 558.66 242.495 558.35 242.955 558.05C248.065 554.69 253.175 551.34 258.295 547.98C258.435 549.84 258.575 551.7 258.725 553.56C258.755 554.02 258.795 554.49 259.015 554.89C259.765 556.32 262.175 555.82 262.935 554.39C263.695 552.96 263.355 551.22 262.985 549.65C264.985 550.73 266.975 551.82 268.975 552.9C264.085 556.8 260.025 561.73 257.125 567.27C256.905 567.7 256.695 568.24 256.985 568.63C257.195 568.91 257.595 568.97 257.945 568.96C261.185 568.9 263.175 565.55 265.285 563.09C267.085 560.99 269.375 559.32 271.915 558.26C272.915 557.84 274.035 557.51 275.075 557.82C276.115 558.13 276.955 559.31 276.535 560.31C275.595 562.54 271.415 560.21 270.675 561.5C270.125 562.43 269.585 563.36 269.035 564.28C270.765 566.02 273.585 565.66 276.025 565.75C278.475 565.83 281.495 567.29 281.165 569.72C280.885 571.79 278.175 573.16 278.495 575.23C278.785 577.15 281.605 577.61 283.205 576.51C284.805 575.41 285.575 573.49 286.595 571.84C287.615 570.19 289.335 568.6 291.245 568.94C292.185 569.11 292.975 569.71 293.725 570.3C294.895 571.21 296.095 572.16 296.835 573.45C297.575 574.74 297.755 576.46 296.875 577.66C296.225 578.54 295.025 579.18 295.005 580.27C294.985 581.47 296.395 582.12 297.085 583.11C297.955 584.37 297.595 586.06 297.535 587.59C297.475 589.12 298.185 591.04 299.715 591.09C300.245 591.11 300.755 590.88 301.195 590.58C304.605 588.25 303.395 583.05 304.305 579.02C305.245 574.82 309.155 571.48 313.445 571.19C314.305 571.13 315.285 571.13 315.855 570.48C316.915 569.26 315.325 567.47 313.805 566.92C313.285 565.52 315.175 564.38 316.655 564.49C318.135 564.6 319.675 565.27 321.055 564.71C323.275 563.81 323.065 560.2 321.095 558.83C319.125 557.46 316.425 557.84 314.205 558.75C311.985 559.66 309.945 561.04 307.615 561.59C305.285 562.15 302.415 561.59 301.265 559.48C300.835 558.69 300.695 557.78 300.345 556.95C298.805 553.29 293.845 552.51 290.005 553.52C290.635 557.31 287.595 561.3 283.775 561.69C282.135 557.12 280.015 552.71 277.465 548.58C275.955 546.14 273.695 543.5 270.845 543.88C269.645 544.8 270.435 546.68 271.235 547.96C272.035 549.24 272.525 551.33 271.135 551.92C268.065 545.6 259.215 543.54 256.605 537.01C256.135 535.83 255.885 534.53 255.175 533.48C254.465 532.43 253.035 531.68 251.905 532.27C250.755 532.85 250.975 535.04 250.435 532.69Z" fill="#23282B"/>
<path d="M220.115 607.93C219.655 608.17 219.125 608.09 218.615 608C213.165 606.94 207.945 604.63 207.845 603.77C193.805 595.6 177.915 591.3 162.235 587.09C159.205 586.28 156.155 585.47 153.125 584.65C151.465 584.21 149.785 583.75 148.065 583.67C140.445 583.32 134.575 589.94 127.915 593.72C118.975 584.69 109.945 575.53 101.685 565.84C107.135 559.83 112.585 553.83 118.035 547.83C119.095 546.65 120.345 545.39 121.925 545.33C123.185 545.29 124.325 546.03 125.325 546.81C135.365 554.74 139.455 569.09 150.705 575.2C151.425 575.59 152.315 575.95 153.055 575.58C154.025 575.08 154.045 573.73 153.805 572.67C152.315 566.05 145.915 561.73 143.025 555.6C142.765 555.04 142.525 554.41 142.715 553.81C142.915 553.17 143.575 552.78 144.205 552.53C147.825 551.15 151.855 552.83 155.225 554.76C174.095 565.63 186.645 585.22 205.275 596.52C209.745 599.23 214.525 601.45 218.895 604.29C219.555 604.71 220.235 605.18 220.575 605.89C220.935 606.58 220.795 607.57 220.115 607.93Z" fill="#23282B"/>
<path d="M465.875 756.24C463.595 766.33 456.235 775.66 448.745 783.35C424.835 807.86 396.425 827.55 367.095 845.2C354.625 852.7 339.755 860.09 325.775 853.99C289.585 827.8 253.395 801.6 217.215 775.4C174.115 744.21 128.935 710.38 109.185 660.98C104.325 648.82 101.145 635.46 103.745 622.63C104.295 619.91 104.895 617.56 105.675 615.44C103.705 636.02 109.415 657.09 119.365 675.35C130.625 695.99 146.985 713.42 164.375 729.27C187.945 750.77 213.735 769.85 241.185 786.12C247.615 789.92 254.315 793.64 261.685 794.86C269.055 796.09 277.325 794.38 282.245 788.75C292.835 796.2 303.415 803.65 314.005 811.1C317.465 813.54 324.085 814.6 324.265 810.38C311.455 804.45 300.255 795.12 292.075 783.61C313.675 788.01 335.575 792.43 357.565 791.01C379.565 789.59 402.035 781.61 416.415 764.9C419.695 761.09 422.265 754.71 418.305 751.62C434.155 753.17 450.015 754.7 465.875 756.24Z" fill="#23282B"/>
<path d="M239.085 629.71C237.105 638.99 236.275 648.5 236.605 657.98C236.655 659.28 237.115 660.98 238.415 660.99C239.515 660.99 240.655 659.65 241.495 660.36C241.835 660.64 241.895 661.13 241.915 661.56C241.965 662.8 241.835 664.09 241.205 665.15C240.445 666.44 239.065 667.22 238.035 668.3C236.995 669.38 236.335 671.17 237.275 672.33C237.975 673.19 239.295 673.31 240.325 672.9C241.355 672.49 242.165 671.68 242.935 670.89C245.495 668.27 248.055 665.66 250.605 663.04C250.885 662.76 251.175 662.46 251.555 662.34C252.795 661.93 253.715 663.44 254.485 664.5C255.625 666.08 257.585 667.09 259.515 666.87C261.445 666.65 263.205 665.06 263.405 663.13C263.765 659.72 259.735 657.06 259.975 653.65C260.235 649.88 265.485 647.74 265.315 643.97C265.215 641.79 262.835 640.01 260.715 640.54C259.235 640.91 257.835 642.19 256.395 641.68C254.885 641.15 254.685 639.17 254.335 637.61C253.735 634.87 252.005 632.54 250.325 630.3C248.905 628.41 247.485 626.52 246.065 624.63C245.245 623.55 244.145 622.34 242.805 622.56C241.285 622.81 240.695 624.85 241.265 626.28C241.835 627.71 243.115 628.71 244.195 629.8C246.445 632.07 247.975 634.94 249.465 637.76C251.095 640.85 252.775 644.16 252.465 647.64C252.265 649.91 251.215 652.01 250.045 653.96C248.805 656.03 247.285 658.09 245.095 659.1C244.835 659.22 244.525 659.33 244.255 659.23C243.985 659.13 243.815 658.86 243.695 658.6C242.725 656.49 243.225 654.03 243.725 651.76C245.085 645.52 246.205 638.9 244.095 632.87C243.595 631.45 242.825 629.98 241.455 629.34C240.085 628.7 238.055 629.42 239.085 629.71Z" fill="#23282B"/>
<path d="M264.365 634.47C267.375 638.5 270.435 642.61 272.115 647.36C273.805 652.1 273.935 657.66 271.275 661.93C270.105 663.8 268.475 665.32 267.145 667.07C264.765 670.2 263.405 673.98 262.085 677.68C261.765 678.59 261.445 679.61 261.855 680.48C262.385 681.61 263.965 681.89 265.115 681.41C266.265 680.93 267.085 679.91 267.865 678.93C270.515 675.56 273.175 672.19 275.825 668.82C277.095 669.55 277.565 671.11 278.305 672.38C279.045 673.65 280.655 674.79 281.885 673.99C282.855 673.36 282.885 671.97 282.705 670.83C282.095 667.13 280.345 663.29 281.745 659.82C282.585 657.73 284.425 656.24 285.755 654.42C287.085 652.6 287.825 649.91 286.355 648.2C286.075 647.88 285.695 647.6 285.275 647.62C284.635 647.64 284.235 648.29 283.735 648.7C282.585 649.65 280.775 649.27 279.645 648.3C278.515 647.33 277.885 645.92 277.205 644.6C275.205 640.72 272.485 637.22 269.215 634.32C268.355 633.56 267.345 632.8 266.195 632.88C265.045 632.96 264.045 634.41 264.365 634.47Z" fill="#23282B"/>
<path d="M286.775 642.37C290.825 647.12 293.975 652.78 294.955 658.95C295.935 665.11 294.545 671.8 290.475 676.53C288.655 678.65 286.335 680.36 284.805 682.69C282.855 685.67 282.365 689.56 283.535 692.92C286.055 692.5 287.935 690.44 289.595 688.5C292.615 684.98 295.645 681.45 298.665 677.93C299.185 679.54 300.735 680.76 302.415 680.9C304.095 681.04 305.825 680.1 306.605 678.6C308.615 674.78 304.345 670.27 305.205 666.04C305.575 664.24 306.825 662.77 307.925 661.29C309.025 659.82 310.055 658.09 309.865 656.26C309.675 654.43 307.635 652.76 305.995 653.6C305.095 654.06 304.635 655.05 304.015 655.84C303.395 656.63 302.265 657.28 301.415 656.73C301.115 656.54 300.915 656.23 300.735 655.92C299.375 653.64 298.545 651.08 297.205 648.79C295.815 646.41 293.875 644.36 291.585 642.82C290.035 641.79 287.645 641.11 286.775 642.37Z" fill="#23282B"/>
<path d="M305.365 648.03C311.475 653.02 315.135 660.89 315.025 668.78C315.005 670.04 314.895 671.3 314.575 672.51C313.865 675.22 312.165 677.54 310.735 679.95C307.675 685.12 305.765 690.97 305.205 696.95C305.155 697.44 305.145 698 305.505 698.35C305.765 698.6 306.145 698.65 306.505 698.63C307.915 698.52 308.965 697.31 309.805 696.17C313.385 691.3 316.175 685.86 318.045 680.11C319.315 679.81 320.285 681.18 320.925 682.31C321.565 683.44 322.805 684.7 323.955 684.1C324.395 683.87 324.665 683.43 324.855 682.97C326.495 678.96 322.495 674.54 323.355 670.29C324.015 667.04 327.395 664.66 327.435 661.35C327.445 660.86 327.355 660.34 327.025 659.99C326.225 659.11 324.745 659.8 323.925 660.66C323.095 661.52 322.175 662.62 321.005 662.44C320.015 658.79 318.985 655.05 316.815 651.95C314.645 648.85 311.055 646.47 307.285 646.78C306.625 646.83 305.925 647 305.485 647.49C305.045 647.98 305.005 648.88 305.365 648.03Z" fill="#23282B"/>
<path d="M357.284 695.73C356.574 693.06 356.665 690.25 356.765 687.49C356.935 682.51 357.265 677.14 360.385 673.26C360.765 672.8 361.174 672.35 361.314 671.77C361.554 670.66 360.635 669.62 359.655 669.06C358.665 668.5 357.504 668.13 356.754 667.29C355.544 665.91 355.805 663.84 355.935 662.01C356.105 659.63 355.894 657.11 354.594 655.11C353.294 653.1 350.665 651.81 348.435 652.67C347.935 652.86 347.454 653.17 347.224 653.65C347.064 653.97 347.055 654.35 347.025 654.71C346.935 656.52 346.834 658.35 346.724 660.16C344.994 657.81 342.484 656.05 339.694 655.22C338.074 654.74 336.365 654.56 334.745 654.13C330.035 652.88 325.725 649.46 320.875 649.94C320.215 650.01 319.354 650.52 318.784 651.09C322.524 652.38 326.505 653.84 328.855 657.02C329.985 658.56 330.644 660.4 331.284 662.2C332.294 665.05 333.294 667.89 334.314 670.74C335.034 672.78 335.765 675.09 334.835 677.05C334.125 678.55 332.554 679.59 332.064 681.17C331.794 682.06 331.904 683.02 331.594 683.88C331.094 685.28 329.625 686.09 328.185 686.39C326.735 686.69 325.244 686.59 323.784 686.79C320.934 687.21 318.335 688.78 316.365 690.87C316.105 691.12 315.854 691.47 315.944 691.82C316.024 692.1 316.305 692.28 316.575 692.41C319.445 693.71 322.834 692.24 325.944 692.73C326.564 692.84 327.265 693.09 327.435 693.7C327.555 694.1 327.395 694.53 327.205 694.91C326.455 696.4 325.235 697.61 324.485 699.1C323.735 700.59 323.585 702.62 324.825 703.73C326.505 705.25 329.325 703.86 330.435 701.89C331.565 699.92 331.724 697.53 332.784 695.53C335.774 689.81 344.185 689.56 348.545 684.81C349.325 683.96 350.545 682.92 351.405 683.67C351.955 684.15 351.825 685.04 351.635 685.75C350.265 690.82 348.735 695.84 347.045 700.8C346.115 699.57 345.205 698.33 344.295 697.1C343.205 700.93 343.485 705.13 345.075 708.78C345.235 709.16 345.434 709.55 345.814 709.72C346.284 709.95 346.845 709.72 347.295 709.42C348.655 708.55 349.615 707.11 349.955 705.54C350.045 705.1 350.124 704.59 350.534 704.39C351.084 704.11 351.684 704.66 352.094 705.13C355.064 708.62 359.515 710.81 364.105 711.01C363.325 705.45 358.714 701.15 357.284 695.73ZM352.205 676.43C351.275 678.2 349.255 679.03 347.375 679.73C346.635 680.01 345.834 680.29 345.064 680.07C343.874 679.73 343.344 678.37 343.094 677.16C342.594 674.84 342.504 672.45 342.784 670.09C342.734 670.24 342.635 669.22 342.855 668.22C343.125 667.03 343.945 665.87 345.135 665.58C345.805 665.42 346.505 665.54 347.185 665.51C348.115 665.46 349.175 665.16 349.895 665.75C350.195 666 350.365 666.37 350.525 666.73C351.115 668.03 351.624 669.37 352.064 670.73C352.664 672.59 353.105 674.7 352.205 676.43Z" fill="#23282B"/>
<path d="M1610.36 553.09C1582.62 590.03 1552.68 625.94 1515.9 653.88C1481.71 679.87 1440.92 698.7 1398.26 701.85C1395.01 702.09 1391.76 702.24 1388.5 702.29C1324.82 662.1 1255.8 629.66 1183.44 611.77C1176.19 609.98 1168.92 608.33 1161.6 606.84C1098.26 548.37 1074.16 457.5 1021.13 387.77C1027.57 381.97 1032.66 378 1037.76 374.01C1038.48 373.45 1039.22 372.87 1039.93 372.29C1041.78 370.77 1043.55 369.18 1044.96 367.26C1044.96 367.25 1044.97 367.25 1044.99 367.23C1046.94 364.59 1048.14 361.23 1047.55 358C1050.15 361.21 1054.76 362.21 1058.85 361.57C1059.74 361.44 1060.61 361.22 1061.45 360.95C1064.54 360.02 1067.42 358.44 1070.26 356.87C1070.29 356.84 1070.31 356.83 1070.34 356.83C1073.21 355.22 1076.1 353.62 1078.97 352.02C1081.27 350.74 1083.59 349.46 1085.51 347.66C1089.63 343.79 1091.43 338.13 1092.97 332.69C1095.17 325 1097.17 316.53 1093.87 309.24C1097.75 307.83 1102.14 310.02 1105.45 312.73C1106.01 313.19 1106.56 313.67 1107.1 314.14C1109.77 316.52 1112.36 319.04 1115.69 320.29C1117.95 321.15 1120.4 321.34 1122.74 322.01C1126.69 323.15 1130.23 325.69 1132.57 329.07C1133.55 330.48 1134.45 332.14 1136.05 332.75C1137.16 333.17 1138.41 332.99 1139.58 332.8C1139.75 332.77 1139.93 332.75 1140.1 332.72C1148.46 331.38 1156.84 330.05 1165.2 328.72C1171.4 327.73 1177.62 326.73 1183.88 326.56C1190.71 326.37 1197.53 327.14 1204.38 327.04C1210.58 326.95 1216.77 326.15 1222.93 325.35C1238.14 323.36 1253.35 321.39 1268.57 319.4C1299.66 320.07 1331.05 313.48 1362.66 313.21C1395.67 312.93 1428.31 319.53 1460.49 326.87C1499.9 335.88 1540.7 346.91 1570.77 373.93C1592.35 393.31 1612.46 421.08 1628.26 450.64C1633.17 459.82 1637.62 469.45 1639.09 479.75C1642.95 506.47 1626.58 531.52 1610.36 553.09Z" fill="#709EB8"/>
<path d="M1190.3 581.8C1198.8 563.17 1208.11 544.45 1222.44 529.82C1236.77 515.19 1257.06 505.05 1277.39 507.56C1284.91 508.49 1292.12 511.07 1299.53 512.63C1307.45 514.3 1315.57 514.78 1323.66 515.26C1361.87 517.53 1400.08 519.8 1438.29 522.07C1457.24 523.2 1476.61 524.42 1494.12 531.75C1509.93 538.37 1523.3 549.59 1537.9 558.56C1552.5 567.53 1569.72 574.46 1588.04 573.65C1563.88 591.44 1539.52 608.95 1514.97 626.17C1484.74 647.38 1451.21 669.05 1414.34 667.06C1395.16 666.02 1376.99 658.57 1359.25 651.22C1302.91 627.88 1246.59 604.54 1190.3 581.8Z" fill="#4E768F"/>
<path d="M1563.57 595.06C1515.05 633.44 1461.52 664.91 1408.17 696.25C1404.94 698.16 1401.63 700.08 1398.26 701.85C1395.01 702.09 1391.76 702.24 1388.5 702.29C1324.82 662.1 1255.8 629.66 1183.44 611.77C1174.85 596.63 1176.97 574.63 1189.37 573.13C1201.54 562.61 1213.71 552.08 1225.87 541.56C1230.23 537.79 1234.74 533.92 1240.22 532.14C1245.71 530.33 1251.66 530.78 1257.41 531.24C1285.48 533.51 1314.05 535.9 1340.13 546.5C1355.61 552.8 1369.83 561.84 1385.22 568.35C1440.28 591.64 1502.92 580.26 1562.68 582.07C1564.3 582.12 1566.04 582.22 1567.34 583.2C1571.2 586.11 1567.36 592.07 1563.57 595.06Z" fill="#31556B"/>
<path d="M1058.87 361.57C1059.76 361.44 1060.63 361.22 1061.47 360.95C1054.17 364.48 1046.99 368.27 1039.94 372.29C1041.79 370.77 1043.56 369.18 1044.97 367.26C1046.93 364.62 1048.15 361.25 1047.56 358C1050.17 361.21 1054.78 362.21 1058.87 361.57Z" fill="#31556B"/>
<path d="M1210.83 566.19C1210.27 569.1 1209.38 571.92 1208.32 574.69C1206.21 580.23 1203.38 585.55 1200.98 590.99C1199.42 594.51 1198.03 598.21 1197.1 601.97C1195.89 606.92 1195.52 611.98 1196.72 616.91C1197.85 621.51 1200.28 625.66 1202.25 629.98C1202.61 630.8 1202.97 631.66 1202.92 632.54C1202.83 633.77 1201.97 634.81 1201.13 635.73C1195.3 642.23 1189.1 648.48 1181.94 653.42C1181.19 653.94 1180.41 654.44 1179.63 654.94C1178.53 655.64 1177.39 656.3 1176.23 656.91C1175.56 657.27 1174.87 657.63 1174.18 657.97C1167.33 661.31 1159.79 663.22 1152.23 662.71C1150.19 662.58 1147.75 661.93 1147.91 661.78C1134.21 620.8 1103.4 588.06 1083.02 549.98C1081.11 546.42 1079.26 542.69 1079.01 538.66C1078.84 535.95 1079.4 533.32 1080.49 530.87C1082.21 526.91 1085.27 523.39 1088.7 520.7C1094.28 516.34 1100.9 513.55 1106.86 509.71C1116.01 503.83 1123.45 495.6 1132.39 489.37C1136.87 486.26 1142.86 483.64 1147.54 486.04C1151.77 484.19 1156.72 484.91 1160.99 486.63C1162.78 487.34 1164.55 488.27 1165.76 489.74C1166.63 490.8 1167.18 492.09 1167.68 493.36C1168.5 495.49 1169.24 497.66 1170.73 500.15C1170.9 498.7 1171.48 497.32 1172.34 496.14C1173.08 495.09 1174.06 494.21 1175.16 493.55C1176.01 493.04 1176.93 492.66 1177.9 492.46C1181.56 491.71 1185.58 493.35 1187.79 496.37C1188.93 497.93 1189.63 499.81 1190.88 501.31C1193.36 504.29 1197.51 505.2 1200.79 507.28C1204.39 509.55 1206.96 513.35 1208.07 517.72C1207.2 533.96 1213.92 550.25 1210.83 566.19Z" fill="#FDD5C8"/>
<path d="M1101.58 541.88C1101.55 541.88 1101.52 541.88 1101.49 541.87C1101.12 541.82 1100.86 541.48 1100.91 541.12C1101.98 533.09 1107.92 525.34 1117.2 519.86C1121.81 517.14 1126.82 515.07 1131.68 513.08C1135.07 511.68 1138.58 510.24 1141.91 508.59C1143.52 507.79 1145.13 506.92 1146.68 506.08C1149.66 504.47 1152.74 502.8 1155.97 501.55C1161.86 499.25 1167.16 498.81 1171.74 500.23C1177.52 502.82 1181.59 508.96 1182.17 515.91C1182.2 516.28 1181.93 516.6 1181.56 516.63C1181.18 516.67 1180.87 516.39 1180.84 516.02C1180.3 509.55 1176.54 503.85 1171.27 501.48C1167.07 500.18 1162.06 500.61 1156.46 502.8C1153.31 504.03 1150.27 505.67 1147.32 507.26C1145.75 508.11 1144.13 508.98 1142.51 509.79C1139.14 511.46 1135.61 512.92 1132.19 514.32C1127.38 516.3 1122.41 518.34 1117.89 521.02C1108.97 526.29 1103.26 533.68 1102.24 541.3C1102.2 541.64 1101.91 541.88 1101.58 541.88Z" fill="#E0AFA1"/>
<path d="M1181.95 653.42C1181.2 653.94 1180.42 654.44 1179.64 654.94C1178.54 655.64 1177.4 656.3 1176.24 656.91C1175.57 657.27 1174.88 657.63 1174.19 657.97C1168.54 657.46 1163.04 655.22 1158.67 651.59C1155.19 648.7 1152.48 645.03 1149.86 641.34C1137.31 623.59 1126.5 604.62 1117.63 584.76C1114.62 578.04 1111.82 571.16 1107.93 564.91C1106.09 561.93 1103.98 559.08 1102.76 555.8C1101.27 551.8 1101.16 547.34 1099.32 543.49C1098.86 542.54 1098.3 541.58 1098.29 540.52C1098.28 539.5 1098.8 538.55 1099.34 537.69C1102.17 533.19 1106.11 529.39 1111.27 526.03C1110.37 528.66 1109.46 531.36 1109.51 534.14C1109.58 536.93 1110.84 539.86 1113.3 541.15C1114.45 541.77 1115.8 541.97 1116.94 542.61C1120.39 544.53 1120.73 549.23 1122.16 552.91C1125.37 561.21 1134.71 564.94 1142.67 568.92C1144.03 569.59 1145.57 570.65 1145.45 572.17C1145.41 572.83 1145.03 573.4 1144.78 574.01C1143.12 577.92 1146.36 582.33 1150.18 584.2C1153.99 586.08 1158.41 586.43 1162.23 588.25C1163.97 589.08 1165.63 590.26 1166.5 591.97C1167.32 593.55 1167.4 595.39 1167.53 597.16C1168.08 604.57 1169.99 611.88 1173.14 618.61C1173.96 620.34 1174.87 622.18 1174.58 624.06C1174.28 625.94 1172.11 627.62 1170.47 626.62C1170.15 626.43 1169.87 626.15 1169.49 626.1C1168.26 625.95 1168.42 627.99 1169.15 628.99C1171.54 632.16 1174.57 634.86 1178.01 636.86C1178.91 637.38 1179.86 637.89 1180.45 638.75C1181.09 639.68 1181.17 640.87 1181.24 642C1181.49 645.8 1181.72 649.61 1181.95 653.42Z" fill="#E0AFA1"/>
<path d="M1148.42 485.72C1142.46 493.56 1133.79 499.05 1126.02 503.99C1122.89 505.98 1119.67 508.03 1116.3 509.75C1114.18 510.85 1111.96 511.83 1109.82 512.78C1106.08 514.46 1102.2 516.18 1098.77 518.5C1092.66 522.66 1089.08 528.47 1089.21 534.03C1089.22 534.41 1088.93 534.71 1088.55 534.71H1088.54C1088.18 534.71 1087.88 534.43 1087.87 534.07C1087.72 528.04 1091.52 521.8 1098.02 517.39C1101.54 515 1105.47 513.26 1109.27 511.56C1111.4 510.62 1113.61 509.64 1115.7 508.55C1119 506.86 1122.21 504.82 1125.3 502.86C1132.72 498.15 1140.94 492.94 1146.75 485.69" fill="#E0AFA1"/>
<path d="M1176.24 656.91C1168.86 660.9 1160.56 663.27 1152.24 662.71C1150.2 662.58 1147.76 661.93 1147.92 661.78C1134.22 620.8 1103.41 588.06 1083.03 549.98C1081.12 546.42 1079.27 542.69 1079.02 538.66C1078.85 535.95 1079.41 533.32 1080.5 530.87C1080.88 533.46 1081.8 535.97 1083.21 538.2C1083.6 538.79 1084.16 539.43 1084.86 539.3C1085.49 539.19 1085.81 538.51 1086.04 537.9C1087.19 534.88 1088.35 531.85 1089.5 528.81C1088.92 532.82 1089.33 536.97 1090.67 540.8C1091.19 542.29 1091.96 543.83 1093.37 544.54C1096.3 546.02 1099.54 542.96 1100.78 539.91C1102.01 536.86 1102.67 533.21 1105.45 531.47C1103.25 538.05 1108.35 546.02 1115.26 546.77C1115.47 554.62 1119.94 562.22 1126.7 566.22C1128.93 567.54 1131.51 568.61 1132.81 570.85C1133.43 571.92 1133.68 573.17 1133.99 574.38C1135.51 580.37 1138.47 586 1142.54 590.65C1145.72 594.27 1149.53 597.29 1152.8 600.84C1156.06 604.38 1158.84 608.69 1159.22 613.5C1155.52 610.57 1151.8 607.63 1148.09 604.71C1146.77 603.68 1145.37 602.59 1143.7 602.47C1140.26 602.19 1137.82 606.32 1138.47 609.7C1139.13 613.08 1141.76 615.69 1144.34 617.97C1149.75 622.78 1155.47 627.22 1161.47 631.27C1162.88 632.22 1164.34 633.19 1165.4 634.52C1166.17 635.49 1166.69 636.6 1167.21 637.71C1170.2 644.12 1173.22 650.52 1176.24 656.91Z" fill="#99685A"/>
<path d="M1176.91 504.94C1183.24 510.51 1188.69 517.62 1190.14 525.92C1191.59 534.22 1188.13 543.74 1180.56 547.46C1181.66 545.48 1182.59 543.4 1183.25 541.24C1185.02 535.45 1184.75 529.19 1183.45 523.27C1182.16 517.36 1179.86 511.72 1176.91 504.94Z" fill="#E0AFA1"/>
<path d="M1172.21 551.17C1170.48 551.17 1168.75 550.85 1167 550.48C1160.15 549.04 1152.54 546.79 1148.04 540.97C1147.81 540.68 1147.87 540.26 1148.16 540.03C1148.45 539.8 1148.88 539.86 1149.1 540.15C1153.34 545.62 1160.67 547.78 1167.28 549.17C1169.59 549.66 1171.84 550.06 1174.02 549.69C1177.15 549.16 1180.06 546.93 1181.82 543.75C1183.32 541.01 1184.02 537.63 1183.9 533.7C1183.89 533.33 1184.18 533.02 1184.55 533.01C1184.93 532.99 1185.23 533.29 1185.24 533.66C1185.37 537.84 1184.62 541.45 1182.99 544.4C1181.04 547.94 1177.77 550.41 1174.24 551.02C1173.56 551.12 1172.88 551.17 1172.21 551.17Z" fill="#E0AFA1"/>
<path d="M1177.17 545.55C1170.8 541.83 1167.15 533.96 1168.42 526.69C1169.2 522.23 1171.62 518.15 1172.15 513.65C1162.85 517.31 1156.68 526.46 1147.6 530.63C1145.44 531.62 1143.16 532.31 1140.96 533.2C1136.7 534.94 1132.81 537.44 1128.95 539.93C1139.87 538.75 1150.47 534.81 1159.51 528.57C1161.55 532.06 1163.61 535.59 1166.33 538.59C1169.05 541.59 1172.49 544.08 1177.17 545.55Z" fill="#E0AFA1"/>
<path d="M1184.93 535.96C1184.12 531.68 1182.23 527.68 1180.98 523.5C1179.73 519.32 1179.15 514.68 1180.92 510.7C1182.71 514.43 1184.42 518.24 1185.39 522.27C1186.37 526.3 1186.59 530.58 1184.93 535.96Z" fill="#99685A"/>
<path d="M1129.79 539.97C1136.66 536.82 1144.7 536.72 1151.33 533.09C1154.75 531.22 1157.62 528.5 1160.44 525.81C1163.4 523 1166.36 520.18 1169.31 517.37C1166.79 521.61 1163.88 525.65 1160.35 529.08C1154.53 534.74 1147.03 538.64 1139.06 540.18C1135.92 540.79 1132.63 541.03 1129.79 539.97Z" fill="#99685A"/>
<path d="M1157.14 530.53C1159.76 533.83 1162.4 537.14 1165.52 539.97C1168.64 542.8 1172.28 545.16 1176.36 546.23C1173.03 544.58 1169.59 542.85 1167.27 539.95C1165.32 537.53 1164.32 534.49 1163.6 531.47C1163.05 529.15 1162.66 526.65 1163.51 524.42C1161.19 526.8 1158.87 529.17 1157.14 530.53Z" fill="#99685A"/>
<path d="M1200.04 516.51C1199.32 524.1 1199.1 531.74 1199.39 539.35C1199.57 544.11 1200 549.04 1202.29 553.22C1203.63 544.66 1204.11 535.96 1203.74 527.31C1203.54 522.79 1203.06 518.11 1200.74 514.22C1200.23 514.52 1200.18 515.04 1200.04 516.51Z" fill="#FEE4DB"/>
<path d="M1144.45 519.97C1150.16 517.33 1155.87 514.69 1161.58 512.04C1162.46 511.63 1163.5 510.89 1163.22 509.97C1161.93 509.71 1160.61 510.19 1159.38 510.68C1152.69 513.34 1146.15 516.38 1139.81 519.79C1139.11 520.17 1138.32 521.08 1138.92 521.61C1139.23 521.88 1139.71 521.79 1140.1 521.68C1141.98 521.13 1143.73 520.3 1144.45 519.97Z" fill="#FEE4DB"/>
<path d="M1131 508.51C1137.57 505.24 1144.16 501.96 1150.33 497.99C1151.21 497.42 1152.17 496.71 1152.29 495.66C1143.94 498.35 1136.1 502.58 1129.26 508.08C1128.81 508.44 1128.32 508.89 1128.3 509.47C1129.47 509.45 1130.64 509.1 1131 508.51Z" fill="#FEE4DB"/>
<path d="M1208.32 574.68C1206.21 580.22 1203.38 585.54 1200.98 590.98C1199.42 594.5 1198.03 598.2 1197.1 601.96C1196.99 602 1196.9 602.05 1196.79 602.09C1192.53 603.94 1188.19 605.83 1183.56 606.22C1180.35 606.49 1176.66 605.76 1174.98 603.01C1183.36 601.08 1189.72 594.43 1195.3 587.9C1199.3 583.21 1203.38 578.25 1208.32 574.68Z" fill="#E0AFA1"/>
<path d="M1180.24 501.52C1179.6 501.82 1178.83 501.56 1178.19 501.26C1175.83 500.16 1173.77 498.36 1172.35 496.16C1173.09 495.11 1174.07 494.23 1175.17 493.57C1176.5 496.43 1178.22 499.1 1180.24 501.52Z" fill="#E0AFA1"/>
<path d="M1140.13 332.72C1140.09 332.75 1140.06 332.76 1140.02 332.79C1136.49 334.95 1132.38 335.9 1128.37 336.88C1108.49 341.77 1089.05 348.45 1070.37 356.83C1073.24 355.22 1076.13 353.62 1079 352.02C1081.3 350.74 1083.62 349.46 1085.54 347.66C1089.66 343.79 1091.46 338.13 1093 332.69C1095.2 325 1097.2 316.53 1093.9 309.24C1097.78 307.83 1102.17 310.02 1105.48 312.73C1108.78 315.43 1111.72 318.78 1115.72 320.29C1117.98 321.15 1120.43 321.34 1122.77 322.01C1126.72 323.15 1130.26 325.69 1132.6 329.07C1133.58 330.48 1134.48 332.14 1136.08 332.75C1137.19 333.17 1138.44 332.99 1139.61 332.8C1139.78 332.78 1139.96 332.75 1140.13 332.72Z" fill="#31556B"/>
<path d="M1696.71 618.19C1696.68 624.94 1696.04 631.68 1694.77 638.36C1694.65 639 1694.51 639.65 1694.39 640.29C1694.14 641.5 1693.86 642.72 1693.56 643.93C1693.28 645.11 1692.99 646.29 1692.67 647.46C1692.48 648.13 1692.27 648.8 1692.08 649.47C1691.72 650.7 1691.34 651.93 1690.94 653.15C1690.74 653.75 1690.54 654.37 1690.32 654.98C1690.12 655.6 1689.9 656.2 1689.68 656.81C1689.24 658.06 1688.78 659.31 1688.28 660.54C1688.05 661.12 1687.81 661.68 1687.57 662.26C1686.94 663.8 1686.27 665.33 1685.57 666.85C1684.23 669.75 1682.79 672.62 1681.23 675.47C1680.61 676.6 1679.98 677.71 1679.32 678.83C1676.03 684.45 1672.31 689.96 1668.17 695.31C1578.24 744.3 1488.31 793.28 1398.38 842.28C1383 850.66 1367.4 859.11 1350.42 863.46C1333.45 867.8 1314.69 867.66 1298.05 859.19C1282.18 843.46 1267.36 826.67 1253.7 808.98C1245.46 798.28 1237.62 787.24 1228.72 777.07C1219.19 766.17 1208.49 756.35 1197.83 746.55C1193.51 742.58 1189.17 738.59 1184.34 735.26C1176.94 730.16 1167.88 726 1164.52 717.66C1163.49 715.07 1163.09 712.26 1162.08 709.66C1160.58 705.77 1157.81 702.55 1155.26 699.24C1145.85 687 1139.36 672.82 1132.94 658.78C1132.51 657.84 1132.09 656.9 1131.67 655.95C1131.67 655.92 1131.66 655.91 1131.64 655.88C1131.43 655.38 1131.22 654.9 1131.02 654.4C1130.82 653.92 1130.62 653.42 1130.43 652.92C1130.24 652.41 1130.06 651.89 1129.89 651.36C1129.77 650.98 1129.66 650.61 1129.55 650.23C1129.51 650.12 1129.47 650.02 1129.45 649.91C1129.36 649.56 1129.26 649.2 1129.18 648.84C1129.11 648.52 1129.04 648.18 1128.99 647.85C1128.92 647.51 1128.86 647.18 1128.81 646.83C1128.03 641.34 1129.45 635.57 1132.52 630.94C1132.83 630.54 1133.14 630.13 1133.27 629.76C1133.86 630.75 1134.45 631.75 1135.01 632.74C1135.09 632.86 1135.15 633 1135.21 633.12C1135.61 633.8 1136 634.49 1136.37 635.19C1136.93 636.22 1137.48 637.27 1138.02 638.33C1138.37 639 1138.7 639.67 1139.03 640.34C1139.16 640.57 1139.27 640.8 1139.37 641.02C1139.95 642.16 1140.48 643.32 1140.99 644.48C1141.41 645.42 1141.8 646.36 1142.19 647.31C1142.51 648.08 1142.83 648.84 1143.13 649.62C1143.39 650.26 1143.63 650.91 1143.87 651.55C1144.03 652.01 1144.18 652.46 1144.34 652.93C1144.53 653.45 1144.71 653.98 1144.9 654.51C1145.14 655.25 1145.36 655.97 1145.59 656.71C1150.64 656.83 1155.68 656.24 1160.58 655.02C1162.53 654.54 1164.46 653.95 1166.35 653.26C1178.4 648.92 1189.11 640.74 1196.05 629.94C1197.62 627.51 1199.03 624.73 1198.6 621.97C1196.05 616.61 1195.43 610.35 1196.84 604.27C1200.83 608.79 1204.81 613.32 1208.26 617.45C1208.39 617.45 1208.53 617.45 1208.66 617.46C1212.82 617.61 1216.91 618.87 1220.42 621.1C1224.06 623.42 1227.14 626.79 1231.24 628.16C1235.05 629.45 1239.43 628.88 1242.97 630.8C1245.74 632.3 1247.53 635.08 1249.29 637.69C1254.19 644.98 1260.05 652.08 1268.07 655.62C1272.27 657.47 1276.89 658.26 1281.13 660.01C1294.54 665.53 1302.28 679.43 1313.01 688.48C1327.9 698.87 1340.81 712.08 1350.16 727.34C1368.59 710.4 1387.8 694.28 1407.69 679.07C1412.78 675.19 1417.93 671.35 1423.35 667.97C1430.06 663.78 1437.17 660.28 1444.19 656.64C1474.91 640.69 1503.99 621.73 1532.98 602.81C1533.49 602.47 1534.07 602.02 1534 601.41C1533.99 601.32 1533.95 601.24 1533.88 601.17C1542.65 593.53 1551.2 585.52 1560.51 575.75C1573.87 547.59 1584.6 518.18 1592.54 488.05C1592.54 488.05 1568.49 372.24 1569.07 370.6C1582.95 383.63 1597.97 393.47 1610.57 400.84C1631.83 413.27 1665.12 421.39 1684.06 427.38C1687.15 428.36 1689.85 429.27 1692.05 430.15C1677.26 467.79 1675.72 504.62 1685.27 543.91C1687.07 551.28 1689.26 558.54 1690.94 565.92C1691.17 566.93 1691.4 567.92 1691.6 568.93C1693.36 577.45 1694.23 586.12 1695.1 594.78C1695.96 602.56 1696.74 610.36 1696.71 618.19Z" fill="#709EB8"/>
<path d="M1694.4 640.29C1694.15 641.5 1693.88 642.72 1693.58 643.93C1693.3 645.11 1693 646.29 1692.68 647.46C1692.49 648.13 1692.29 648.8 1692.1 649.47C1691.74 650.7 1691.36 651.93 1690.96 653.15C1690.76 653.75 1690.56 654.37 1690.34 654.98C1690.14 655.6 1689.92 656.2 1689.7 656.81C1689.26 658.06 1688.79 659.31 1688.29 660.54C1688.06 661.12 1687.83 661.68 1687.59 662.26C1686.96 663.79 1686.29 665.32 1685.59 666.85C1684.25 669.75 1682.81 672.62 1681.25 675.47C1680.63 676.6 1680 677.71 1679.34 678.83C1676.05 684.45 1672.33 689.96 1668.19 695.31C1578.26 744.3 1488.32 793.28 1398.39 842.28C1383.01 850.66 1367.42 859.11 1350.44 863.46C1333.47 867.8 1314.7 867.66 1298.06 859.19C1282.19 843.46 1267.38 826.67 1253.72 808.98C1245.48 798.28 1237.64 787.24 1228.74 777.07C1219.21 766.17 1208.51 756.35 1197.85 746.55C1193.53 742.58 1189.19 738.59 1184.36 735.26C1176.96 730.16 1167.89 726 1164.53 717.66C1163.5 715.07 1163.11 712.26 1162.1 709.66C1160.6 705.77 1157.82 702.55 1155.27 699.24C1145.86 687 1139.38 672.82 1132.96 658.78C1132.53 657.84 1132.1 656.9 1131.68 655.95L1131.67 655.94C1131.67 655.93 1131.67 655.9 1131.66 655.89C1131.45 655.39 1131.24 654.91 1131.04 654.41C1130.84 653.93 1130.65 653.43 1130.46 652.93C1130.27 652.42 1130.08 651.9 1129.91 651.37C1129.79 650.99 1129.68 650.62 1129.57 650.24C1129.53 650.13 1129.5 650.03 1129.48 649.92C1129.39 649.57 1129.29 649.21 1129.21 648.85C1130.87 646.03 1132.79 643.39 1135.06 641C1135.95 640.06 1136.95 639.16 1138.05 638.33C1138.4 639 1138.73 639.67 1139.06 640.34C1139.19 640.57 1139.3 640.8 1139.4 641.02C1139.96 642.16 1140.5 643.32 1141.02 644.48C1141.44 645.42 1141.84 646.36 1142.23 647.31C1142.55 648.08 1142.86 648.84 1143.16 649.62C1143.42 650.26 1143.66 650.91 1143.9 651.55C1144.06 652.01 1144.22 652.46 1144.38 652.93C1144.57 653.45 1144.74 653.98 1144.93 654.51C1145.17 655.25 1145.4 655.97 1145.63 656.71C1150.68 656.83 1155.72 656.24 1160.62 655.02C1162.57 654.54 1164.5 653.95 1166.39 653.26C1167.64 655.74 1169.07 658.11 1170.66 660.37C1185.47 681.5 1213.92 693.24 1239.96 700.68C1252.17 704.16 1266.59 709.43 1269.22 721.86C1270.32 727.03 1268.99 732.36 1268.74 737.63C1268.04 752.35 1275.88 766.44 1286.53 776.62C1297.17 786.81 1310.45 793.72 1323.54 800.5C1334.63 806.25 1345.73 811.99 1356.82 817.75C1359.44 819.09 1362.14 820.47 1365.07 820.64C1372.49 821.06 1378.12 813.5 1379.37 806.17C1384.2 777.83 1347.44 756.28 1349.11 727.58C1359.16 746.96 1370.05 765.93 1381.73 784.39C1383.35 786.94 1385.25 789.69 1388.16 790.46C1390.66 791.12 1393.26 790.15 1395.65 789.16C1491.33 749.62 1561.62 656.74 1662.7 634.33C1672.86 632.07 1684.91 631.12 1692.43 638.14C1692.63 638.33 1692.83 638.52 1693.02 638.72C1693.53 639.22 1693.98 639.74 1694.4 640.29Z" fill="#4E768F"/>
<path d="M1694.77 638.36C1694.65 639 1694.51 639.65 1694.39 640.29C1694.14 641.5 1693.87 642.72 1693.57 643.93C1693.29 645.11 1692.98 646.28 1692.67 647.46C1692.48 648.13 1692.28 648.8 1692.09 649.47C1691.73 650.7 1691.35 651.93 1690.95 653.15C1690.75 653.75 1690.55 654.37 1690.33 654.98C1690.13 655.6 1689.91 656.2 1689.69 656.81C1689.25 658.06 1688.78 659.31 1688.28 660.54C1688.05 661.12 1687.82 661.68 1687.58 662.26C1686.95 663.8 1686.28 665.33 1685.58 666.85C1684.24 669.75 1682.8 672.62 1681.24 675.47C1680.62 676.6 1679.99 677.71 1679.33 678.83C1676.04 684.45 1672.32 689.96 1668.18 695.31C1578.25 744.3 1488.31 793.28 1398.38 842.28C1383 850.66 1367.41 859.11 1350.43 863.46C1333.46 867.8 1314.69 867.66 1298.05 859.19C1282.18 843.46 1267.37 826.67 1253.71 808.98C1245.47 798.28 1237.63 787.24 1228.73 777.07C1219.2 766.17 1208.5 756.35 1197.84 746.55C1193.52 742.58 1189.18 738.59 1184.35 735.26C1176.95 730.16 1167.88 726 1164.52 717.66C1163.49 715.07 1163.1 712.26 1162.09 709.66C1160.59 705.77 1157.81 702.55 1155.26 699.24C1145.85 687 1139.37 672.82 1132.95 658.78C1132.52 657.84 1132.09 656.9 1131.67 655.95C1131.67 655.92 1131.66 655.91 1131.64 655.88C1131.43 655.38 1131.22 654.9 1131.02 654.4C1130.82 653.92 1130.63 653.42 1130.44 652.92C1130.25 652.41 1130.06 651.89 1129.89 651.36C1129.77 650.98 1129.66 650.61 1129.55 650.23C1129.51 650.12 1129.48 650.02 1129.46 649.91C1129.37 649.56 1129.27 649.2 1129.19 648.84C1129.12 648.52 1129.04 648.18 1128.99 647.85C1128.92 647.51 1128.87 647.18 1128.82 646.83C1128.04 641.34 1129.45 635.57 1132.52 630.94C1132.83 630.54 1133.14 630.13 1133.27 629.76C1133.86 630.75 1134.45 631.75 1135.01 632.74C1135.09 632.86 1135.16 633 1135.22 633.12C1135.62 633.8 1136 634.49 1136.37 635.19C1136.93 636.22 1137.48 637.27 1138.02 638.33C1138.37 639 1138.7 639.67 1139.03 640.34C1139.16 640.57 1139.27 640.8 1139.37 641.02C1139.95 642.16 1140.48 643.32 1140.99 644.48C1141.41 645.42 1141.81 646.36 1142.2 647.31C1142.52 648.08 1142.83 648.84 1143.13 649.62C1143.39 650.26 1143.63 650.91 1143.87 651.55C1144.03 652.01 1144.19 652.46 1144.35 652.93C1144.54 653.45 1144.71 653.98 1144.9 654.51C1145.14 655.25 1145.37 655.97 1145.6 656.71C1150.65 656.83 1155.69 656.24 1160.59 655.02C1161.62 657.57 1162.7 660.09 1163.84 662.58C1173.1 682.89 1185.99 700.69 1206.34 708.27C1221.04 713.73 1237.24 712.71 1252.88 711.61C1255.94 721.33 1245.4 730.29 1244.99 740.47C1244.53 751.38 1255.16 758.9 1263.47 765.99C1276.6 777.21 1286.09 791.96 1297.27 805.12C1308.45 818.27 1322.41 830.42 1339.42 833.32C1365.66 837.78 1389.78 819.52 1410.25 802.51C1454.89 765.46 1500.77 728.75 1553.58 704.72C1589.24 688.49 1628.17 677.97 1659.42 654.32C1669.29 646.86 1681.04 637.73 1692.4 638.13C1693.22 638.17 1694 638.24 1694.77 638.36Z" fill="#31556B"/>
<path d="M1685.33 543.92C1687.13 551.29 1689.33 558.55 1691.01 565.93C1685.57 565.46 1682.45 558.7 1681 553.1C1670.84 513.92 1665.89 471.3 1680.96 433.74C1681.83 431.57 1682.84 429.34 1684.14 427.39C1687.23 428.37 1689.93 429.28 1692.13 430.16C1677.33 467.8 1675.79 504.63 1685.33 543.92Z" fill="#263F4F"/>
<path d="M1107.13 314.15C1106.35 328.71 1103.9 343.49 1093.95 353.73C1089.95 357.85 1084.97 360.91 1079.71 363.21C1069.86 367.49 1058.88 369.12 1048.21 367.87C1047.18 367.75 1046.08 367.55 1045.02 367.24C1046.97 364.6 1048.17 361.24 1047.58 358.01C1050.18 361.22 1054.79 362.22 1058.88 361.58C1059.77 361.45 1060.64 361.23 1061.48 360.96C1064.57 360.03 1067.45 358.45 1070.29 356.88C1070.32 356.85 1070.34 356.84 1070.37 356.84C1073.24 355.23 1076.13 353.63 1079 352.03C1081.3 350.75 1083.62 349.47 1085.54 347.67C1089.66 343.8 1091.46 338.14 1093 332.7C1095.2 325.01 1097.2 316.54 1093.9 309.25C1097.78 307.84 1102.17 310.03 1105.48 312.74C1106.04 313.19 1106.59 313.68 1107.13 314.15Z" fill="#263F4F"/>
<path d="M1199.14 658.08C1209.47 651.24 1218.48 642.41 1225.53 632.21C1231.18 636.18 1231.68 644.93 1228.13 650.86C1224.58 656.79 1218.12 660.33 1211.64 662.73C1206.43 664.66 1200.7 666.02 1195.35 664.55C1195.8 661.4 1197.52 659.15 1199.14 658.08Z" fill="#8BB0C5"/>
<path d="M1344.33 727.9C1335.81 744 1328 761.92 1331.12 779.87C1332.94 779.9 1334.11 778.01 1334.84 776.35C1341.94 760.18 1343.49 742.21 1344.33 727.9Z" fill="#8BB0C5"/>
<path d="M1569.42 574.08C1596.84 574.74 1623.88 585.82 1643.89 604.57C1616.96 595.98 1591.49 583.45 1569.42 574.08Z" fill="#8BB0C5"/>
<path d="M1567.58 581.32C1572.27 590.06 1576.97 598.79 1581.66 607.53C1583.09 610.19 1584.53 612.89 1586.61 615.08C1588.69 617.27 1591.51 618.94 1594.53 618.99C1595.04 619 1595.58 618.95 1595.97 618.62C1596.8 617.94 1596.43 616.61 1595.95 615.65C1588.54 600.81 1572.65 591.77 1567.58 581.32Z" fill="#8BB0C5"/>
<path d="M1539.54 366.46C1543.33 390.83 1566.24 409.19 1568.99 433.7C1570.48 446.95 1565.78 460.08 1565.01 473.39C1564.37 484.47 1566.46 495.53 1566.45 506.62C1566.43 517.71 1563.88 529.57 1555.79 537.16C1557.98 511.38 1557.03 485.33 1552.96 459.78C1551.34 449.62 1549.02 439.09 1542.43 431.2C1538.92 427 1534.34 423.74 1531.16 419.27C1527.99 414.82 1526.42 409.46 1525.05 404.18C1522.08 392.78 1519.79 381.2 1518.18 369.53C1517.55 364.95 1517.58 359.2 1521.66 357.03C1525.05 355.23 1529.3 357.18 1531.98 359.92C1534.64 362.67 1536.5 366.19 1539.54 366.46Z" fill="#8BB0C5"/>
<path d="M1194.79 487.73C1194.6 472.72 1194.41 457.7 1195.33 442.71C1195.69 436.87 1196.27 430.84 1199.09 425.72C1203.53 446.15 1201.62 467.91 1194.79 487.73Z" fill="#8BB0C5"/>
<path d="M1131.15 455.06C1141.95 456.05 1152.5 459.68 1161.62 465.55C1163.75 466.92 1165.9 468.45 1168.4 468.88C1170.9 469.31 1173.88 468.24 1174.67 465.83C1175.55 463.13 1173.25 460.3 1170.59 459.31C1167.93 458.32 1165 458.56 1162.18 458.27C1156.13 457.66 1150.63 454.64 1144.95 452.46C1139.27 450.27 1132.69 448.95 1131.15 455.06Z" fill="#8BB0C5"/>
<path d="M1209.72 504.55C1212.84 496.39 1216.7 487.42 1224.71 483.92C1227.35 482.77 1230.24 482.32 1233.09 481.89C1234.8 481.63 1236.51 481.37 1238.22 481.11C1238.96 481 1239.74 480.89 1240.42 481.21C1242.14 482.02 1241.69 484.62 1240.7 486.24C1234.59 496.23 1220.32 497.72 1209.72 504.55Z" fill="#8BB0C5"/>
<path d="M1089.56 376.39C1096.67 370.81 1103.86 365.19 1111.99 361.23C1120.12 357.27 1129.37 355.05 1138.27 356.67C1138.85 356.78 1139.56 357.04 1139.61 357.63C1139.64 358.02 1139.34 358.36 1139.05 358.63C1133.91 363.55 1126.95 365.98 1120.22 368.28C1110.09 371.74 1099.97 375.2 1089.84 378.66C1088.3 379.2 1085.94 379.23 1089.56 376.39Z" fill="#8BB0C5"/>
</svg>
