<svg width="2000" height="1040" viewBox="0 0 2000 1040" fill="none" xmlns="http://www.w3.org/2000/svg">
<g clip-path="url(#clip0_101_2284)">
<path d="M2000 1.61334H0V1222.2H2000V1.61334Z" fill="#9BAFBD"/>
<path d="M2000 105.267V1.6133H1604.6C1595.8 -0.560036 1586.31 -0.506703 1577.31 1.6133H91.72L0 4.26663V206.96C78.8667 229.053 159.48 243.067 240.48 249.093C247.907 249.653 255.333 250.133 262.76 250.547C263.64 250.587 264.507 250.653 265.387 250.693C266.267 250.747 267.147 250.8 268.013 250.827C270.56 250.96 273.107 251.093 275.64 251.213C278.133 251.333 280.627 251.453 283.107 251.533C283.147 251.547 283.213 251.547 283.253 251.533C285.533 251.627 287.813 251.707 290.093 251.787C290.36 251.8 290.64 251.8 290.907 251.813C292.013 251.867 293.107 251.907 294.213 251.933C294.467 251.947 294.733 251.96 294.973 251.947C296.587 251.987 298.227 252.04 299.84 252.08C300.64 252.107 301.427 252.12 302.227 252.133C303.573 252.173 304.933 252.213 306.28 252.24C307.6 252.267 308.933 252.293 310.267 252.32C311.64 252.347 313 252.373 314.373 252.4C317.067 252.44 319.76 252.48 322.467 252.507C330.133 252.56 337.8 252.56 345.48 252.493C347.04 252.48 348.6 252.467 350.16 252.44C350.693 252.453 351.213 252.44 351.733 252.427C351.787 252.427 351.853 252.427 351.907 252.413C353.52 252.4 355.147 252.373 356.76 252.333C357.787 252.32 358.8 252.307 359.84 252.28C360.147 252.267 360.453 252.267 360.773 252.267C361.747 252.24 362.72 252.213 363.693 252.187C365.68 252.133 367.667 252.08 369.64 252.027C370.867 251.987 372.08 251.947 373.307 251.907C373.92 251.893 374.547 251.867 375.147 251.853C377.347 251.773 379.573 251.693 381.773 251.613C383.24 251.56 384.693 251.493 386.16 251.427C387.12 251.4 388.08 251.347 389.053 251.307C389.093 251.307 389.147 251.307 389.187 251.293C389.32 251.293 389.453 251.293 389.573 251.28C390.627 251.24 391.693 251.187 392.747 251.133C394.667 251.04 396.587 250.947 398.507 250.853C401.307 250.707 404.08 250.547 406.88 250.387C407.08 250.373 407.28 250.36 407.48 250.347C407.587 250.347 407.707 250.347 407.8 250.333C409.467 250.227 411.107 250.133 412.76 250.027C413.28 250 413.787 249.947 414.32 249.92C415.747 249.827 417.173 249.733 418.613 249.64C419.027 249.613 419.467 249.587 419.893 249.547C420.853 249.467 421.813 249.4 422.787 249.347C422.813 249.347 422.84 249.333 422.893 249.333C423.947 249.253 425.013 249.187 426.067 249.107C426.173 249.093 426.293 249.08 426.4 249.08C429.173 248.853 431.96 248.64 434.733 248.413C439.267 248.04 443.813 247.653 448.333 247.227C448.787 247.187 449.227 247.147 449.68 247.093C449.773 247.093 449.867 247.093 449.96 247.067C452.36 246.84 454.76 246.613 457.147 246.373C457.827 246.32 458.48 246.24 459.16 246.173C459.627 246.133 460.08 246.08 460.547 246.027C462.373 245.853 464.213 245.653 466.027 245.453C466.547 245.413 467.053 245.347 467.573 245.293C468.893 245.16 470.227 245.013 471.547 244.853C471.547 244.853 471.56 244.853 471.573 244.853C471.92 244.827 472.293 244.773 472.667 244.733C472.693 244.733 472.72 244.733 472.76 244.72C475.027 244.467 477.28 244.2 479.533 243.947C479.92 243.907 480.28 243.853 480.667 243.813C481.107 243.76 481.56 243.707 482 243.653C482.587 243.573 483.187 243.507 483.8 243.427C486.147 243.147 488.52 242.853 490.88 242.547C491 242.533 491.133 242.52 491.253 242.507C493.853 242.173 496.44 241.827 499.027 241.48C499.48 241.427 499.947 241.36 500.413 241.307C501.96 241.107 503.493 240.88 505.027 240.653C507.373 240.333 509.733 239.987 512.08 239.653C513.387 239.467 514.693 239.267 516 239.08C516.347 239.027 516.707 238.973 517.04 238.92C518 238.773 518.96 238.627 519.92 238.48C520.147 238.467 520.36 238.427 520.573 238.387C522.907 238.04 525.267 237.667 527.6 237.293C527.787 237.267 527.973 237.24 528.147 237.2C529.84 236.933 531.533 236.653 533.2 236.373C534.907 236.093 536.6 235.813 538.307 235.533C540 235.24 541.707 234.96 543.4 234.667C545.093 234.387 546.773 234.093 548.44 233.8C549.427 233.64 550.4 233.467 551.387 233.267C552.12 233.147 552.84 233.013 553.573 232.88C554.253 232.76 554.92 232.64 555.6 232.507C555.827 232.48 556.04 232.427 556.267 232.387C557.067 232.24 557.867 232.093 558.667 231.947C563.747 231 568.827 230.053 573.907 229.04C574.453 228.933 575 228.84 575.533 228.72C578.053 228.227 580.547 227.72 583.067 227.2C584.333 226.933 585.6 226.667 586.867 226.4C590.84 225.573 594.787 224.733 598.747 223.853C600.6 223.453 602.453 223.04 604.307 222.613C604.32 222.627 604.32 222.613 604.32 222.613C605.373 222.387 606.44 222.16 607.493 221.907C607.72 221.867 607.933 221.813 608.16 221.76C608.893 221.6 609.627 221.427 610.347 221.253C613.373 220.56 616.4 219.853 619.44 219.133C619.48 219.133 619.533 219.12 619.587 219.107C622.56 218.4 625.507 217.68 628.48 216.96C642.373 218.147 656.96 218.693 672.027 218.693C674.4 218.693 676.787 218.68 679.187 218.653C679.893 218.653 680.6 218.64 681.307 218.627C682.68 218.613 684.04 218.587 685.427 218.547C685.8 218.547 686.147 218.547 686.52 218.533H686.72C686.867 218.52 687.013 218.52 687.16 218.507C687.213 218.52 687.267 218.52 687.32 218.507C688.053 218.493 688.787 218.48 689.52 218.453C690.92 218.427 692.32 218.4 693.707 218.333C693.88 218.333 694.08 218.333 694.267 218.32C694.707 218.307 695.147 218.293 695.6 218.28C695.853 218.28 696.093 218.267 696.36 218.253C696.88 218.24 697.387 218.227 697.907 218.2C698.027 218.2 698.147 218.2 698.253 218.187H698.493C698.8 218.173 699.12 218.16 699.44 218.147C700.053 218.133 700.693 218.107 701.32 218.067C701.667 218.053 702.013 218.04 702.36 218.027C704.533 217.92 706.733 217.827 708.933 217.707C709.333 217.693 709.733 217.68 710.12 217.653C711.747 217.56 713.387 217.48 715.013 217.373C715.533 217.347 716.04 217.32 716.573 217.28C716.853 217.267 717.133 217.24 717.427 217.227C718.147 217.187 718.867 217.133 719.6 217.093C719.92 217.067 720.267 217.053 720.587 217.013C722.267 216.907 723.933 216.787 725.627 216.667C725.933 216.653 726.24 216.64 726.56 216.613C732.6 216.173 738.68 215.653 744.76 215.093C747.32 214.853 749.893 214.613 752.467 214.347C755.853 214.013 759.24 213.653 762.627 213.267C767.04 212.787 771.453 212.267 775.867 211.72C778.587 211.187 781.387 210.667 784.267 210.12C803.093 206.587 825.04 202.813 847 199.013C847.307 198.96 847.627 198.907 847.947 198.853C853.027 198 858.107 197.16 863.24 197.147C868.68 197.12 874.093 197.987 879.507 198.6C882.907 198.987 886.32 199.28 889.733 199.48C889.747 199.48 889.747 199.48 889.76 199.48C897.88 199.987 906.053 200.08 914.187 200.187C969.427 200.867 1024.64 201.52 1079.87 202.2C1080.33 202.2 1080.81 202.213 1081.28 202.213C1083.2 203.467 1085.15 204.72 1087.09 205.933C1087.52 206.213 1087.95 206.48 1088.37 206.747C1090.43 208.04 1092.49 209.333 1094.57 210.6C1096.8 211.973 1099.03 213.307 1101.27 214.627C1102.13 215.147 1103 215.653 1103.88 216.16C1107.23 218.147 1110.61 220.08 1114.01 221.973C1115.49 222.8 1116.99 223.627 1118.47 224.427C1119.6 225.08 1120.73 225.693 1121.88 226.293C1123.36 227.12 1124.87 227.907 1126.37 228.693C1126.49 228.773 1126.61 228.84 1126.72 228.88C1128.19 229.653 1129.67 230.427 1131.15 231.187C1132.37 231.84 1133.59 232.453 1134.81 233.067C1136.59 233.973 1138.39 234.88 1140.19 235.76C1142.16 236.747 1144.13 237.707 1146.11 238.653C1146.21 238.707 1146.33 238.773 1146.44 238.813C1147.55 239.36 1148.68 239.907 1149.79 240.427C1152.19 241.56 1154.59 242.68 1156.99 243.76C1157.75 244.107 1158.53 244.453 1159.29 244.8C1162.43 246.24 1165.59 247.64 1168.75 248.987C1170.24 249.653 1171.76 250.293 1173.28 250.933C1175.56 251.893 1177.84 252.84 1180.12 253.787C1181.6 254.4 1183.09 254.987 1184.57 255.587C1185.73 256.053 1186.89 256.507 1188.05 256.973C1189.6 257.587 1191.15 258.2 1192.71 258.787C1193.16 258.973 1193.61 259.133 1194.08 259.32C1198.75 261.093 1203.41 262.827 1208.12 264.48C1208.27 264.533 1208.4 264.587 1208.55 264.627C1210.45 265.32 1212.37 265.973 1214.28 266.627C1214.57 266.747 1214.88 266.853 1215.17 266.933C1217.03 267.56 1218.87 268.187 1220.72 268.787C1221.89 269.187 1223.07 269.56 1224.25 269.947C1226.09 270.547 1227.95 271.147 1229.8 271.72C1231.76 272.333 1233.72 272.947 1235.68 273.533C1236.11 273.68 1236.52 273.8 1236.95 273.92C1238.15 274.293 1239.36 274.64 1240.57 275.013C1241.81 275.4 1243.04 275.747 1244.28 276.107C1246.51 276.733 1248.71 277.373 1250.93 277.987C1250.95 278 1250.96 278 1250.99 278C1253.39 278.667 1255.8 279.32 1258.21 279.96C1260.61 280.587 1263.03 281.227 1265.44 281.827C1265.44 281.827 1265.45 281.853 1265.47 281.84C1265.48 281.853 1265.48 281.853 1265.49 281.84H1265.51C1267.92 282.453 1270.33 283.067 1272.76 283.64C1274.88 284.16 1277.01 284.653 1279.13 285.133C1279.36 285.213 1279.57 285.253 1279.8 285.28C1280.64 285.507 1281.48 285.693 1282.33 285.867C1282.39 285.893 1282.47 285.907 1282.56 285.907C1284.12 286.24 1285.65 286.6 1287.21 286.933C1287.23 286.947 1287.23 286.947 1287.24 286.947C1287.39 286.987 1287.55 287.027 1287.69 287.04C1287.72 287.053 1287.73 287.067 1287.77 287.053C1290.12 287.573 1292.49 288.067 1294.87 288.56C1297.28 289.04 1299.71 289.533 1302.12 290C1302.13 289.987 1302.13 289.987 1302.15 290C1302.16 289.987 1302.16 289.987 1302.17 290H1302.19C1304.04 290.373 1305.88 290.72 1307.73 291.08C1310.33 291.56 1312.93 292.027 1315.55 292.48C1308.44 292.6 1301.47 293.013 1294.6 293.707C1267.37 296.427 1241.95 303.427 1217.93 313.547C1199.27 321.413 1181.47 331.147 1163.68 340.853C1123.28 362.893 1082.91 384.947 1042.51 406.987C1041.77 407.32 1041.04 407.653 1040.31 407.947C1039.76 408.187 1039.21 408.4 1038.68 408.613C1038.67 408.627 1038.65 408.627 1038.64 408.627C1038.33 408.76 1038.01 408.88 1037.68 409C1037.64 409.013 1037.6 409.027 1037.56 409.04C1036.99 409.267 1036.41 409.467 1035.84 409.653C1034.32 410.187 1032.8 410.667 1031.27 411.107C1030.56 411.307 1029.85 411.52 1029.13 411.693C1028.15 411.96 1027.15 412.213 1026.16 412.44H1026.15C1025.6 412.573 1025.05 412.707 1024.53 412.813C1024.01 412.933 1023.51 413.053 1022.99 413.147C1022.83 413.187 1022.67 413.227 1022.49 413.253C1021.25 413.507 1020.04 413.733 1018.8 413.96C1017.56 414.2 1016.32 414.4 1015.07 414.587C1013.81 414.787 1012.55 414.987 1011.29 415.16C1009.99 415.347 1008.68 415.533 1007.37 415.707C1005.29 415.987 1003.24 416.24 1001.17 416.48C998.84 416.773 996.493 417.053 994.16 417.347C992.253 417.587 990.347 417.827 988.453 418.093C987.707 418.2 986.96 418.293 986.187 418.413C984.8 418.613 983.44 418.827 982.08 419.067C981.027 419.227 979.973 419.413 978.92 419.613C977.747 419.84 976.573 420.053 975.4 420.293C974.28 420.533 973.16 420.773 972.053 421.04C971.88 421.067 971.707 421.12 971.52 421.173C971 421.293 970.493 421.413 969.987 421.547C969.467 421.667 968.973 421.8 968.453 421.947C967.56 422.187 966.653 422.427 965.76 422.693C934.853 431.84 908.653 455.52 876.6 458.88C839.227 471.92 802.027 488.653 766.707 508.707C723.173 532.427 678.173 557.573 632.573 581.6C605 597.773 576.4 613.28 547.387 627.987C521.387 636.333 496.64 644 471.72 651.04C452.813 651.653 433.853 649.12 414.893 649.373C382.16 649.827 350.187 658.573 320.213 667.653C318.133 667.493 316.067 667.347 313.987 667.213C313.587 667.187 313.173 667.16 312.787 667.12C312.24 667.093 311.693 667.04 311.16 667.013C307.507 666.787 303.867 666.613 300.213 666.467C288.373 665.987 276.52 665.893 264.667 666.2C263.96 666.213 263.253 666.227 262.533 666.253C262.013 666.253 261.493 666.267 260.973 666.293C256.973 666.413 252.96 666.587 248.96 666.813C243.08 667.12 237.2 667.533 231.307 668.053H231.293C227.973 668.333 224.64 668.653 221.333 669.013C220.733 669.067 220.147 669.133 219.56 669.2C215.533 669.627 211.52 670.107 207.507 670.64C206.427 670.787 205.32 670.947 204.2 671.16C204.187 671.147 204.187 671.16 204.173 671.16C196.6 672.547 188.72 675.547 186.8 682.693C185.2 688.693 189.093 694.987 194.467 698.267H194.48C194.947 698.56 195.4 698.827 195.893 699.067C201.973 702.053 209.013 702.12 215.773 702.213C215.973 702.213 216.173 702.213 216.373 702.227H216.387C217.013 702.227 217.653 702.24 218.28 702.253C230.733 702.427 243.213 702.853 255.653 703.533C256.24 703.56 256.813 703.587 257.387 703.64H257.4C268.64 704.253 279.853 705.067 291.053 706.093C291.573 706.133 292.093 706.187 292.613 706.227C291.16 709.427 288 710.987 284.44 711.747C282.547 712.147 280.52 712.32 278.587 712.4C278.213 712.413 277.867 712.413 277.493 712.427C264.32 712.653 251.16 712.853 237.973 713.08C237.44 713.093 236.92 713.093 236.387 713.107C219.64 713.387 202.88 713.667 186.133 713.947C185.533 713.947 184.907 713.96 184.307 713.973C182.933 714 181.573 714.013 180.2 714.053C177.387 714.093 174.573 714.147 171.76 714.187C169.627 714.213 167.467 714.267 165.333 714.413C162.013 714.64 158.733 715.12 155.613 716.24C150.48 718.08 145.773 721.973 144.453 727.267C143.627 730.56 144.253 733.973 145.787 737.013C147.227 739.893 149.507 742.453 152.16 744.307C157.6 748.107 164.32 749.48 170.853 750.627C176.093 751.533 181.333 752.36 186.6 753.053C187.133 753.147 187.653 753.213 188.187 753.253C199.893 754.813 211.64 755.84 223.387 756.387H223.4C227.28 756.56 231.16 756.693 235.053 756.76C235.587 756.787 236.107 756.787 236.64 756.787C237.56 756.8 238.48 756.813 239.4 756.813C242.867 756.84 246.347 756.827 249.8 756.787C252.893 756.747 255.96 756.667 259.027 756.547C260.187 756.507 261.333 756.44 262.48 756.4C262.907 756.387 263.333 756.373 263.76 756.347C264.52 756.307 265.293 756.267 266.053 756.227C266.36 756.213 266.653 756.2 266.96 756.187C267.693 756.147 268.427 756.107 269.16 756.053C269.28 756.053 269.413 756.04 269.533 756.027C270.507 755.973 271.48 755.907 272.44 755.84C272.453 755.853 272.467 755.853 272.48 755.84C272.96 755.827 273.44 755.787 273.907 755.733C273.92 755.747 273.92 755.733 273.92 755.733C274.613 755.693 275.307 755.64 276 755.587C276.4 755.56 276.8 755.533 277.173 755.48C280.4 755.227 283.613 754.933 286.827 754.613C287.08 755.227 287.32 755.853 287.56 756.467C287.96 757.453 288.333 758.44 288.72 759.427C288.827 759.667 288.907 759.88 289 760.12C287.093 760.56 285.173 761 283.267 761.413C266.947 765.04 250.44 767.88 233.853 769.933C231.813 770.187 229.747 770.413 227.707 770.64C221.48 771.333 215.267 771.92 209.027 772.373C208.707 772.4 208.4 772.413 208.067 772.453H208.053C205.427 772.64 202.787 772.84 200.173 773.107C199.307 773.2 198.427 773.293 197.56 773.413H197.453C197.44 773.427 197.44 773.427 197.427 773.427C197.427 773.427 197.427 773.413 197.413 773.413C196.547 773.52 195.68 773.653 194.827 773.8C194.053 773.933 193.267 774.067 192.493 774.227C192.4 774.24 192.307 774.253 192.2 774.28C191.867 774.36 191.52 774.427 191.2 774.507C190.867 774.587 190.507 774.653 190.173 774.747C189.52 774.907 188.88 775.08 188.253 775.267C187.6 775.44 186.973 775.613 186.333 775.8C185.107 776.12 183.893 776.453 182.653 776.68C182.387 776.733 182.107 776.787 181.84 776.827H181.827C181.52 776.88 181.213 776.933 180.88 776.973C180.6 777 180.333 777.027 180.053 777.053C180.04 777.067 180.013 777.067 180 777.053C179.973 777.067 179.947 777.067 179.907 777.067C179.747 777.093 179.587 777.107 179.427 777.107H179.32C179.2 777.12 179.08 777.12 178.973 777.12C178.493 777.16 178 777.16 177.52 777.16C177.093 777.16 176.667 777.147 176.24 777.133C175.533 777.12 174.813 777.08 174.093 777.013C173.587 776.987 173.093 776.933 172.587 776.88C172.107 776.84 171.613 776.787 171.133 776.733C170.333 776.653 169.56 776.573 168.787 776.493C168.413 776.453 168.067 776.413 167.693 776.387C160.88 775.827 153.707 776.24 147.64 779.253H147.627C146.88 779.627 146.173 780.027 145.467 780.48C139.84 784.053 135.92 790.907 136.8 797.347C136.92 798.307 137.147 799.253 137.493 800.187C137.96 801.453 138.613 802.6 139.373 803.653C141.947 807.16 145.947 809.56 150.107 811.533H150.12C151.387 812.147 152.667 812.707 153.92 813.24C161.48 816.48 169.16 819.747 177.307 820.76C177.333 820.76 177.387 820.773 177.413 820.773C178.013 820.853 178.613 820.907 179.24 820.947H179.253C182.867 821.24 186.52 821.133 190.147 821C190.587 820.987 191.027 820.973 191.467 820.96C198.76 820.667 206.08 820.373 213.373 819.933C216.52 819.747 219.667 819.533 222.8 819.28C223.253 819.253 223.707 819.227 224.173 819.16C225.627 819.04 227.08 818.907 228.52 818.773C230.28 818.613 232.053 818.427 233.8 818.227C234.307 818.187 234.8 818.12 235.307 818.067C236.76 817.907 238.213 817.733 239.68 817.52C240.88 817.36 242.107 817.2 243.307 817.027C244.96 816.773 246.613 816.52 248.267 816.253C249.693 816 251.12 815.747 252.533 815.48C255.4 814.933 258.253 814.333 261.093 813.653C261.267 813.613 261.427 813.56 261.613 813.533C261.627 813.52 261.627 813.52 261.64 813.52C268.68 811.813 275.707 809.707 282.8 808.2H282.813C288.387 807.013 293.987 806.187 299.653 806.227C300.04 806.227 300.413 806.24 300.8 806.253C300.987 806.253 301.173 806.267 301.36 806.267C301.933 806.28 302.507 806.307 303.067 806.36C302.267 806.747 301.467 807.107 300.667 807.48C300.32 807.64 299.973 807.8 299.627 807.947C298.92 808.253 298.213 808.56 297.507 808.853C296.853 809.133 296.227 809.387 295.587 809.653C295.587 809.653 295.587 809.653 295.573 809.653H295.56C295.56 809.653 295.56 809.667 295.547 809.667C284.413 814.173 272.733 817.187 261.093 820.187C252.373 822.427 243.48 824.667 234.547 825.907C228.307 826.773 222.04 827.16 215.827 826.667C213.707 826.507 211.587 826.253 209.48 825.867C209.04 825.787 208.6 825.707 208.16 825.613C199.68 823.987 190.56 821.04 182.68 822.8C182.667 822.813 182.653 822.813 182.64 822.813C180.507 823.293 178.467 824.133 176.547 825.427C171.347 828.96 168.533 835.72 169.72 841.893C170.173 844.28 171.293 846.693 173.4 847.893C173.827 848.133 174.253 848.32 174.707 848.467C176.413 849.027 178.307 849.067 180 849.693C182.933 850.747 184.8 853.213 186.547 855.88C187.893 857.933 189.173 860.133 190.84 861.893C193.44 864.64 196.827 866.2 200.52 867.12C204.32 868.067 208.427 868.293 212.333 868.453C225.213 868.96 238.16 869.467 251 868.16C259.973 867.253 268.88 865.467 277.76 863.64L280.827 862.987C280.88 862.973 280.947 862.96 281 862.96H281.093C281.533 862.853 281.947 862.773 282.387 862.667C282.4 862.68 282.413 862.68 282.413 862.667C292.68 860.56 302.933 858.573 313.173 858.04C318.307 857.733 323.44 857.8 328.587 858.387C357.413 863.373 387.533 860.293 414.88 849.947C424.68 846.24 434.12 841.613 443.013 836.067C456.2 827.867 468.187 817.8 481.987 810.307C504.493 787.467 536.493 777.36 566.827 767.04C603.08 754.693 638.853 740.907 673.72 725.933C747.187 691.96 830.747 689.387 908.88 670.4C982.853 651.68 1057.44 628.773 1119.71 584.653C1122.25 582.84 1124.81 580.987 1127.37 579.12C1127.89 578.733 1128.41 578.36 1128.95 577.973C1140 569.893 1151.23 561.667 1163.11 555.52C1173.52 550.133 1184.41 546.36 1196.13 545.747C1234.24 536.613 1270.31 520.733 1307.08 507.2C1315.31 504.187 1323.61 501.253 1332.08 499.093C1335.51 498.213 1338.97 497.44 1342.48 496.867C1344.81 496.453 1347.19 496.147 1349.57 495.907C1363.83 494.52 1378.15 496.36 1392.4 497.733C1415.67 499.96 1439.03 500.907 1460.77 499.467C1486.63 495.747 1512.8 490.893 1538.35 484.133C1579 473.387 1618.05 457.747 1651.67 434.04C1705.56 396.04 1726.92 329.04 1759.41 271.653C1781.27 233.053 1806.73 196.507 1835.39 162.653C1848.85 146.707 1863.8 130.92 1881.29 120C1889.75 114.72 1898.79 110.587 1908.57 108.133C1920.39 105.16 1932.68 104.813 1944.85 104.68C1951.77 104.587 1958.72 104.573 1965.65 104.627C1977.08 104.653 1988.55 104.88 2000 105.267Z" fill="#FDD5C8"/>
<path d="M812.387 617.453C849.907 600.547 879.48 566.84 891.333 527.427C893.48 520.293 895.56 512.293 901.853 508.307C906.08 505.627 911.32 505.387 916.28 504.707C944.427 500.813 967.333 481.053 989.333 463.067C1011.33 445.08 1036.65 427.227 1065.05 428.347C1051.52 476.173 1001.67 502.347 968.227 539.12C948.907 560.373 933.747 586.76 908.52 600.507C893.067 608.92 875.067 611.813 859.76 620.493C848.6 626.827 839.213 636.067 827.68 641.68C816.147 647.307 800.747 648.347 791.773 639.173C794.333 624.027 808.8 611.8 812.387 617.453Z" fill="#FEE4DB"/>
<path d="M575.747 750.827C569.147 748.333 560.454 744.4 559.334 737.427C556.307 718.613 588.227 713.147 603.027 701.147C625.027 683.293 639.361 656.147 664.427 642.92C666.627 641.76 668.987 640.693 671.481 640.693C675.681 640.693 679.24 643.627 683.214 645.027C694.947 649.173 706.587 639.547 715.947 631.36C728.214 620.627 741.574 611.147 755.747 603.107C757.641 602.027 759.987 600.973 761.894 602.027C763.121 602.707 763.774 604.093 764.174 605.453C767.014 615 760.987 624.987 753.747 631.827C746.507 638.667 737.667 644.08 732.267 652.44C728.481 658.307 726.627 665.267 722.761 671.08C718.001 678.253 710.561 683.147 703.281 687.733C676.481 704.653 648.934 720.347 621.387 736.04C608.014 743.653 592.494 757.16 575.747 750.827Z" fill="#FEE4DB"/>
<path d="M24.2934 96C59 116.96 93.7067 137.92 128.413 158.88C132.627 161.427 137.013 164.027 141.907 164.533C146.8 165.04 152.347 162.773 154.027 158.16C155.08 155.253 154.453 152.04 153.827 149.013C151.68 138.787 149.533 128.56 147.4 118.333C146.493 114 145.56 109.6 143.44 105.72C140.867 101.013 136.72 97.36 132.253 94.3867C105.84 76.76 69.88 81.1333 41.8 66.2933C36.5067 63.4933 30.24 59.9733 24.9734 62.8133C21.9867 64.4267 20.3067 67.7067 19.28 70.9333C16.6 79.32 15.56 90.72 24.2934 96Z" fill="#FEE4DB"/>
<path d="M904.667 636.213C946.414 630.52 986.974 616.253 1023.09 594.56C1041.44 583.547 1062.11 570.067 1082.51 576.533C1076.61 590.067 1063.59 598.973 1050.69 606.16C997.281 635.96 936.334 648.76 876.441 661.173C873.707 661.747 870.667 662.267 868.254 660.853C865.014 658.96 864.454 654.213 866.134 650.867C867.814 647.52 871.094 645.293 874.347 643.427C886.734 636.333 900.854 632.307 904.667 636.213Z" fill="#FEE4DB"/>
<path d="M1152.79 518.013C1144.01 512.267 1143.51 498.8 1148.96 489.853C1154.41 480.893 1164 475.44 1173.27 470.533C1222.56 444.493 1274.35 423.533 1326.03 402.627C1371.88 384.08 1418.05 365.427 1466.53 355.627C1475.85 353.747 1487.6 353.16 1492.68 361.2C1498.08 369.76 1491.33 380.733 1484.24 387.947C1434.08 438.907 1357.88 451.467 1293.49 482.573C1270.59 493.64 1248.84 507.28 1224.97 516.08C1201.09 524.893 1172.63 531.013 1152.79 518.013Z" fill="#FEE4DB"/>
<path d="M921.653 175.547C895.68 159.533 869.467 142.093 852.373 116.827C835.28 91.56 829.267 56.4533 845.467 30.6C847.08 28.0266 848.973 25.4933 851.667 24.0933C854.853 22.4266 858.64 22.5866 862.227 22.7733C882.32 23.8666 904.44 25.8666 918.413 40.3333C921.947 44 924.773 48.3066 928.48 51.8C939.613 62.2666 956.227 63.44 971.333 65.64C995.307 69.1333 1018.49 76.5866 1041.56 83.9866C1061.69 90.4533 1084.96 100.24 1089.31 120.933C1071.59 112.987 1051.71 109.88 1032.41 112.053C1026.24 112.747 1019.15 114.747 1016.92 120.547C1013.81 128.667 1022.43 135.987 1029.29 141.32C1038.73 148.653 1046.79 157.747 1052.93 168C1055.03 171.493 1056.89 175.973 1054.75 179.44C1052.8 182.587 1048.57 183.2 1044.88 183.507C997.4 187.373 946.973 191.16 921.653 175.547Z" fill="#FEE4DB"/>
<path d="M1341.27 147.027C1290.45 130.347 1244.09 100.32 1208.07 60.7867C1202.27 54.4267 1196.81 44 1203.16 38.1733C1230.05 47.32 1250.52 69.8533 1276.89 80.4C1301.73 90.3333 1331.75 89.72 1351.53 107.733C1359.59 115.067 1365.29 126.227 1362.63 136.773C1359.96 147.32 1346.29 154.653 1341.27 147.027Z" fill="#FEE4DB"/>
<path d="M1686.11 158.493C1683.91 151.92 1679.12 146.6 1674.84 141.12C1661.68 124.28 1652.49 104.36 1648.21 83.4133C1643.36 59.5867 1643.89 32.52 1627.36 14.6933C1621.21 8.06666 1613.25 3.74666 1604.61 1.59999C1595.81 -0.573342 1586.32 -0.520009 1577.32 1.59999C1570.57 3.17332 1564.12 5.91999 1558.41 9.74666C1537.59 23.7333 1526.44 49.0533 1524.47 74.0667C1522.49 99.08 1528.61 124.013 1536.24 147.907C1547.15 182.093 1561.27 215.28 1578.36 246.827C1567.49 251.587 1586.63 274 1608.11 276.013C1629.59 278.027 1650.08 264.213 1662.19 246.333C1674.28 228.467 1679.59 207 1684.67 186.027C1686.87 176.987 1689.04 167.347 1686.11 158.493Z" fill="#FEE4DB"/>
<path d="M312.319 837.467C320.999 832.067 332.026 833.133 342.252 833.333C368.852 833.867 396.199 826.773 416.946 810.093C423.492 804.827 429.452 798.493 432.732 790.76C434.906 785.627 435.852 780.013 438.159 774.933C442.412 765.573 450.906 758.84 459.746 753.573C463.786 751.173 468.172 748.933 472.879 748.813C477.586 748.693 482.666 751.293 483.999 755.8C484.972 759.093 483.812 762.653 482.106 765.64C479.586 770.053 475.946 773.693 472.759 777.64C460.612 792.693 454.559 812.867 439.119 824.52C431.719 830.107 422.772 833.2 413.986 836.173C401.639 840.333 389.172 844.44 376.252 846.213C356.732 848.893 336.919 846.16 317.412 843.44C315.452 843.16 313.266 842.76 312.092 841.16C310.919 839.547 312.079 836.547 312.319 837.467Z" fill="#FEE4DB"/>
<path d="M170.866 722.56C165.973 723.027 160.64 723.707 157.24 727.253C155.96 728.587 155.066 730.24 154.333 731.933C153.653 733.52 153.093 735.187 153.133 736.92C153.173 738.64 153.88 740.413 155.306 741.387C156.44 742.16 157.866 742.347 159.186 742.707C161.746 743.4 164.053 744.8 166.586 745.56C169.893 746.547 173.4 746.387 176.84 746.227C178.266 746.16 179.746 746.08 180.986 745.373C181.946 744.827 182.666 743.96 183.306 743.067C187.026 737.867 188.626 731.187 187.64 724.867C187.533 724.2 187.386 723.507 186.96 722.987C186.466 722.387 185.693 722.107 184.96 721.893C179.373 720.24 173.28 720.36 170.866 722.56Z" fill="#FEE4DB"/>
<path d="M197.414 724.893C206.747 722.933 216.361 720.973 225.721 722.707C226.801 722.907 227.921 723.173 228.787 723.853C230.121 724.907 230.601 726.747 230.587 728.453C230.574 730.16 230.174 731.84 230.147 733.547C230.094 736.253 231.027 738.96 232.721 741.067C225.121 747.973 214.214 749.733 203.947 750.133C200.774 750.253 196.814 749.773 195.734 746.787C195.454 746 195.427 745.133 195.414 744.293C195.347 740.653 195.267 737.013 195.201 733.373C195.161 731.32 195.134 729.173 196.041 727.32C196.947 725.467 199.107 724.053 197.414 724.893Z" fill="#FEE4DB"/>
<path d="M201.893 682.227C205.28 676.68 212.973 674.227 218.946 676.8C219.533 677.053 220.106 677.347 220.533 677.827C221.813 679.253 221.2 681.493 220.52 683.293C219.573 685.787 218.613 688.267 217.666 690.76C217.146 692.107 216.626 693.48 215.693 694.587C213.346 697.4 209.173 697.76 205.546 697.227C202.866 696.84 199.973 695.853 198.706 693.467C197.493 691.173 198.2 688.293 199.573 686.093C200.933 683.893 202.893 682.12 201.893 682.227Z" fill="#FEE4DB"/>
<path d="M231.506 676.36C235.452 676.533 239.426 675.987 243.172 674.747C244.879 674.187 246.666 673.467 248.439 673.813C250.279 674.187 251.706 675.64 252.772 677.187C253.919 678.853 254.826 680.867 254.426 682.853C253.999 684.96 252.252 686.48 250.692 687.96C250.026 688.587 249.346 689.28 249.106 690.16C248.759 691.387 249.279 692.867 248.506 693.88C248.132 694.36 247.532 694.613 246.972 694.827C241.746 696.84 236.186 698.013 230.586 698.293C229.266 698.36 227.719 698.267 226.972 697.187C226.199 696.067 226.719 694.56 227.132 693.267C227.799 691.187 228.132 689 228.106 686.813C228.079 684.387 227.626 681.88 228.386 679.573C229.146 677.28 231.786 675.347 231.506 676.36Z" fill="#FEE4DB"/>
<path d="M268.534 677C272.521 675.867 276.734 677.293 280.881 677.48C284.587 677.653 288.334 676.773 291.587 675C293.134 674.16 294.614 673.093 296.334 672.72C298.054 672.347 300.161 672.933 300.841 674.56C301.641 676.453 300.107 678.547 298.401 679.68C296.694 680.813 294.627 681.573 293.427 683.24C291.494 685.947 292.561 690.013 290.587 692.693C289.787 693.787 288.601 694.493 287.401 695.12C281.187 698.387 274.174 700.107 267.147 700.067C266.507 700.067 265.814 700.027 265.347 699.6C264.894 699.187 264.761 698.533 264.667 697.933C263.827 692.227 264.054 686.373 265.361 680.747C265.534 679.973 265.747 679.187 266.174 678.507C267.054 677.12 268.894 676.387 268.534 677Z" fill="#FEE4DB"/>
<path d="M165.268 789.707C161.854 790.893 158.361 792.12 155.574 794.413C152.788 796.707 150.788 800.32 151.414 803.88C151.908 806.653 154.041 809.067 156.734 809.893C159.908 810.867 163.428 809.72 166.641 810.547C169.734 811.347 172.761 813.947 175.721 812.747C176.894 812.267 177.761 811.267 178.454 810.213C181.934 804.907 181.734 797.44 177.961 792.333C177.574 791.8 177.134 791.293 176.574 790.973C175.894 790.573 175.081 790.493 174.281 790.413C172.054 790.2 169.841 789.973 167.614 789.76C166.361 789.613 164.908 789.573 165.268 789.707Z" fill="#FEE4DB"/>
<path d="M1563.61 336.48C1561.85 326.373 1555.27 317.867 1548.6 310.053C1545.83 306.787 1542.88 303.387 1541.85 299.213C1539.85 291.16 1545.45 283.067 1545.31 274.773C1545.01 259.253 1526.59 251.467 1517.88 238.627C1505.83 220.88 1511.25 191.427 1492.21 181.467C1490.53 180.587 1488.73 179.92 1486.91 179.293C1483.72 178.2 1480.48 177.173 1477.8 175.16C1473.89 172.213 1471.8 167.72 1470.49 162.893C1469.83 160.493 1469.37 158.027 1468.96 155.613C1460.45 104.787 1459.41 52.7467 1465.8 1.61334H1456.08C1451.35 15.6667 1447.99 30.2 1446.12 44.9067C1444.01 61.4933 1443.79 78.2533 1443.53 94.9867C1443.28 112.653 1443.01 130.32 1442.77 148C1431.12 133.053 1415.25 121.44 1397.51 114.84C1395.59 125.587 1396.81 136.88 1400.99 146.987C1412.65 149.32 1421.17 161.747 1430.6 168.507C1422.29 169.533 1419.87 176.987 1422.88 181.76C1424.45 184.267 1427.31 185.587 1429.57 187.493C1435.48 192.507 1436.65 200.92 1436.76 208.813C1436.77 209.64 1436.77 210.44 1436.77 211.253C1436.77 211.787 1436.77 212.293 1436.76 212.827C1436.57 232.28 1434.88 251.72 1431.71 270.933C1423.25 279.347 1410.37 281.733 1398.47 280.96C1386.56 280.2 1374.99 276.733 1363.13 275.253C1346.31 273.147 1329.17 275.067 1312.36 272.947C1280.19 268.893 1251.83 250.613 1224.71 232.813C1221.67 230.813 1218.48 228.667 1216.87 225.4C1215.24 222.133 1215.89 217.44 1219.16 215.867C1221.53 214.72 1224.32 215.493 1226.83 216.307C1243.84 221.76 1260.87 227.2 1277.88 232.653C1283.53 234.467 1289.51 236.28 1295.28 234.96C1298.67 234.187 1301.84 231.867 1303.59 228.947C1304.83 226.893 1305.33 224.507 1304.69 222.133C1303.49 217.693 1299.24 215.413 1294.63 214.027C1294.61 214.013 1294.61 214.027 1294.6 214.027C1292.84 213.48 1291.04 213.08 1289.32 212.747C1258.88 206.773 1229.59 194.973 1203.51 178.173C1196.03 173.347 1184.61 168.76 1179.68 176.173C1189.33 181.987 1198.37 188.76 1206.64 196.4C1197.8 197.213 1189.24 200.947 1182.63 206.867C1180.48 208.787 1178.45 211 1175.75 211.987C1170.95 213.72 1165.83 211.16 1160.97 209.613C1143.39 204.053 1123.73 212.133 1106.01 206.987C1089.69 202.253 1077.87 187.133 1061.44 182.84C1063.56 189.133 1070.25 192.373 1075.36 196.587C1077.13 198.067 1078.76 200.04 1079.89 202.173C1080.36 202.173 1080.84 202.187 1081.31 202.187C1083.23 203.44 1085.17 204.693 1087.12 205.907C1087.55 206.187 1087.97 206.453 1088.4 206.72C1090.45 208.013 1092.52 209.307 1094.6 210.573C1096.83 211.947 1099.05 213.28 1101.29 214.6C1102.16 215.12 1103.03 215.627 1103.91 216.133C1107.25 218.12 1110.64 220.053 1114.04 221.947C1115.52 222.773 1117.01 223.6 1118.49 224.4C1119.63 225.053 1120.76 225.667 1121.91 226.267C1123.39 227.093 1124.89 227.88 1126.4 228.667C1126.52 228.747 1126.64 228.813 1126.75 228.853C1128.21 229.627 1129.69 230.4 1131.17 231.16C1132.4 231.813 1133.61 232.427 1134.84 233.04C1136.61 233.947 1138.41 234.853 1140.21 235.733C1142.19 236.72 1144.16 237.68 1146.13 238.627C1146.24 238.68 1146.36 238.747 1146.47 238.787C1147.57 239.333 1148.71 239.88 1149.81 240.4C1152.21 241.533 1154.61 242.653 1157.01 243.733C1157.77 244.08 1158.56 244.427 1159.32 244.773C1162.45 246.213 1165.61 247.613 1168.77 248.96C1170.27 249.627 1171.79 250.267 1173.31 250.907C1175.59 251.867 1177.87 252.813 1180.15 253.76C1181.63 254.373 1183.12 254.96 1184.6 255.56C1185.76 256.027 1186.92 256.48 1188.08 256.947C1189.63 257.56 1191.17 258.173 1192.73 258.76C1193.19 258.947 1193.64 259.107 1194.11 259.293C1198.77 261.067 1203.44 262.8 1208.15 264.453C1208.29 264.507 1208.43 264.56 1208.57 264.6C1210.48 265.293 1212.4 265.947 1214.31 266.6C1214.6 266.72 1214.91 266.827 1215.2 266.907C1217.05 267.533 1218.89 268.16 1220.75 268.76C1221.92 269.16 1223.09 269.533 1224.28 269.92C1226.12 270.52 1227.97 271.12 1229.83 271.693C1231.79 272.307 1233.75 272.92 1235.71 273.507C1236.13 273.653 1236.55 273.773 1236.97 273.893C1238.17 274.267 1239.39 274.613 1240.6 274.987C1241.84 275.373 1243.07 275.72 1244.31 276.08C1246.53 276.707 1248.73 277.347 1250.96 277.96C1250.97 277.973 1250.99 277.973 1251.01 277.973C1253.41 278.64 1255.83 279.293 1258.24 279.933C1260.64 280.56 1263.05 281.2 1265.47 281.8C1265.47 281.8 1265.48 281.827 1265.49 281.813C1265.51 281.827 1265.51 281.827 1265.52 281.813H1265.53C1267.95 282.427 1270.36 283.04 1272.79 283.613C1274.91 284.133 1277.04 284.627 1279.16 285.107C1279.39 285.187 1279.6 285.227 1279.83 285.253C1280.67 285.48 1281.51 285.667 1282.36 285.84C1282.41 285.867 1282.49 285.88 1282.59 285.88C1284.15 286.213 1285.68 286.573 1287.24 286.907C1287.25 286.92 1287.25 286.92 1287.27 286.92C1287.41 286.96 1287.57 287 1287.72 287.013C1287.75 287.027 1287.76 287.04 1287.8 287.027C1290.15 287.547 1292.52 288.04 1294.89 288.533C1297.31 289.013 1299.73 289.507 1302.15 289.973C1302.16 289.96 1302.16 289.96 1302.17 289.973C1302.19 289.96 1302.19 289.96 1302.2 289.973H1302.21C1304.07 290.347 1305.91 290.693 1307.76 291.053C1310.36 291.533 1312.96 292 1315.57 292.453C1308.47 292.573 1301.49 292.987 1294.63 293.68C1267.4 296.4 1241.97 303.4 1217.96 313.52C1199.29 321.387 1181.49 331.12 1163.71 340.827C1123.31 362.867 1082.93 384.92 1042.53 406.96C1041.8 407.293 1041.07 407.627 1040.33 407.92C1039.79 408.16 1039.24 408.373 1038.71 408.587C1038.69 408.6 1038.68 408.6 1038.67 408.6C1038.36 408.733 1038.04 408.853 1037.71 408.973C1037.67 408.987 1037.63 409 1037.59 409.013C1037.01 409.24 1036.44 409.44 1035.87 409.627C1034.35 410.16 1032.83 410.64 1031.29 411.08C1030.59 411.28 1029.88 411.493 1029.16 411.667C1028.17 411.933 1027.17 412.187 1026.19 412.413H1026.17C1025.63 412.547 1025.08 412.68 1024.56 412.787C1024.04 412.907 1023.53 413.027 1023.01 413.12C1022.85 413.16 1022.69 413.2 1022.52 413.227C1021.29 413.48 1020.07 413.72 1018.83 413.933C1017.59 414.173 1016.35 414.373 1015.09 414.56C1013.84 414.76 1012.57 414.96 1011.32 415.133C1010.01 415.333 1008.71 415.52 1007.4 415.68C1005.32 415.96 1003.27 416.213 1001.2 416.453C998.867 416.747 996.52 417.027 994.187 417.32C992.28 417.56 990.374 417.8 988.48 418.067C987.734 418.173 986.987 418.267 986.214 418.387C984.827 418.587 983.467 418.8 982.107 419.04C981.054 419.2 980 419.387 978.947 419.587C977.774 419.813 976.6 420.027 975.427 420.267C974.307 420.507 973.187 420.747 972.08 421.013C971.907 421.04 971.734 421.093 971.547 421.147C971.027 421.267 970.52 421.387 970.014 421.52C969.494 421.64 969 421.773 968.48 421.92C967.587 422.16 966.68 422.4 965.787 422.667C934.88 431.813 908.68 455.493 876.627 458.853C839.254 471.893 802.054 488.627 766.734 508.68C723.2 532.4 678.2 557.547 632.6 581.573C605.027 597.747 576.427 613.253 547.414 627.96C521.414 636.307 496.667 643.973 471.747 651.013C452.84 651.627 433.88 649.093 414.92 649.347C382.187 649.8 350.214 658.547 320.24 667.627C318.16 667.467 316.094 667.32 314.014 667.187C313.614 667.16 313.2 667.133 312.814 667.093C312.32 667.76 311.814 668.427 311.334 669.107C307.04 675 303.16 681.267 299.36 687.493C297.44 690.64 295.467 693.933 294.107 697.373V697.387C293 700.16 292.307 703.067 292.374 706.067C293.947 704.067 295.52 702.08 297.094 700.08C301.374 694.653 305.654 689.227 309.934 683.8C313.334 679.48 319.307 674.787 323.547 678.267C326.014 680.293 326.094 683.987 325.974 687.173C325.067 713.08 325.44 739.04 327.107 764.92C327.24 766.973 328.12 769.733 330.187 769.507C330.627 769.453 331.027 769.253 331.387 768.987C331.614 768.84 331.827 768.667 332.014 768.48C338.587 762.613 339.294 752.76 339.547 743.96C339.867 733.067 340.174 722.16 340.494 711.253C340.814 700.427 341.867 688.093 350.494 681.547C351.8 685.013 356.56 685.973 360.027 684.6C363.48 683.213 366.014 680.28 368.707 677.707C374 672.667 380.414 668.8 387.334 666.467C394.147 664.187 401.334 663.427 408.467 662.653C420.32 661.387 432.187 660.12 444.04 658.853C444.28 658.84 444.507 658.84 444.747 658.827C452.947 658.547 462.56 660.853 471.334 664.933C482.227 671.213 497.72 670.387 511.027 665.533C524.334 660.693 535.974 652.24 547.507 644.04C550.587 641.853 554.734 639.613 557.88 641.707C560.707 643.587 560.654 647.907 559 650.867C557.334 653.813 554.534 655.907 552.32 658.48C550.134 661.067 548.507 664.68 549.867 667.787C566.494 657.307 583.2 646.267 602.28 643.707C605.947 643.213 609.854 642.973 612.894 640.853C615.574 638.987 617.147 635.947 618.947 633.227C627.614 620.173 642.787 613.307 657.174 607.08C679.494 597.453 701.8 587.8 724.134 578.16C714.747 589.48 705.36 600.813 695.974 612.133C712.734 609.4 725.254 595.867 739.32 586.36C745.76 582.027 752.667 578.44 759.134 574.12C788.854 554.293 807.08 520.133 837.734 501.84C835.987 509.133 835.894 515.213 835.814 521.28C835.8 522.733 835.8 524.267 836.467 525.56C838.627 529.747 845.04 528.093 848.854 525.32C860.8 516.64 868.254 503.133 879.054 493.067C893.8 479.333 914.067 472.827 934.134 470.733C938.187 470.307 942.547 469.92 945.68 467.32C948.134 465.267 949.414 462.187 950.88 459.347C958.334 444.973 972.587 435.093 987.774 429.573C1002.97 424.027 1019.28 422.347 1035.36 420.707C1047.36 425.933 1062.07 422.173 1075.17 417.16C1080.45 415.147 1085.71 412.907 1091.01 410.933C1095.77 409.16 1100.59 407.587 1105.49 406.56C1108.73 405.88 1112.01 405.453 1115.35 405.36C1112.6 411.8 1108.6 417.733 1103.64 422.68C1125.53 428.373 1144.72 403.573 1167.33 403.493C1149.51 414.867 1131.67 426.24 1113.85 437.613C1110.71 439.613 1107.44 441.787 1104.93 444.48H1104.92C1103.17 446.333 1101.77 448.453 1101.01 450.92C1103.24 452.147 1105.77 452.16 1108.32 451.693C1109.99 451.387 1111.64 450.867 1113.21 450.36C1129.19 445.16 1145.2 439.92 1160.33 432.64C1175.75 425.227 1190.11 415.76 1205.68 408.72C1236.77 394.68 1272.15 390.52 1301.16 372.56C1349.35 362.36 1399.16 351.973 1448.97 341.587C1463.29 338.6 1478.65 335.773 1492.89 337.507C1492.91 337.507 1492.91 337.507 1492.91 337.507C1500.28 338.4 1507.35 340.507 1513.8 344.427C1525.84 351.76 1537.31 365.48 1550.81 361.44C1552.59 360.907 1554.21 360.067 1555.65 359.013C1562.13 354.267 1565.05 344.747 1563.61 336.48Z" fill="#E0AFA1"/>
<path d="M262.76 250.547C256.213 220.84 240.813 193.053 218.573 172.28C213.947 167.96 208.52 163.72 202.187 163.547C197.84 163.427 193.76 165.253 189.8 167.147C189.187 167.44 188.56 167.733 187.947 168.027C153.027 184.707 112.68 187.253 74.3333 182C49.04 178.547 24.3733 171.867 0 164.133V206.96C78.8667 229.053 159.48 243.067 240.48 249.093C247.907 249.653 255.333 250.133 262.76 250.547Z" fill="#E0AFA1"/>
<path d="M107.147 34.2533C101.24 26.7333 91.4133 23.2933 81.8933 22.3867C72.36 21.48 62.7867 22.7067 53.2133 22.6267C35.3333 22.48 17.6267 17.76 0 14.12V55.3467C32.7733 57.0533 65.7467 55.04 98.0533 49.32C103.013 48.44 109.027 46.4267 109.72 41.44C110.08 38.84 108.747 36.32 107.147 34.2533Z" fill="#E0AFA1"/>
<path d="M1483.24 333.773C1497.88 337.72 1512.03 349.4 1512.39 364.56C1512.56 371.8 1509.59 378.72 1506.24 385.133C1500.53 396.067 1493.52 406.32 1485.41 415.613C1479.88 421.947 1473.59 428.347 1472.03 436.6C1492.92 427.307 1513 416.147 1531.92 403.307C1540.88 397.213 1549.76 390.587 1555.96 381.693C1558.33 378.28 1560.33 374.387 1560.35 370.24C1560.36 363.733 1555.57 358.227 1550.47 354.213C1536.89 343.547 1519.71 338.84 1503.03 334.373C1498.27 333.107 1493.2 331.827 1488.49 333.253C1486.04 333.973 1483.2 335.333 1483.24 333.773Z" fill="#E0AFA1"/>
<path d="M1538.29 484.093C1538.33 482.707 1538.01 481.36 1537.2 480.173C1534.87 476.733 1529.89 476.64 1525.75 477.093C1518.4 477.92 1511.08 479.28 1503.93 481.187C1495.69 483.373 1487.63 486.293 1479.24 487.8C1470.13 489.427 1460.83 489.4 1451.59 489.373C1438.41 489.333 1425.25 489.267 1412.07 489.227C1407.35 489.213 1402.6 489.187 1397.92 488.413C1392.88 487.573 1388 485.867 1382.97 484.827C1372.09 482.56 1360.64 483.787 1350.29 487.84C1343.59 490.44 1337.35 494.24 1332.01 499.04C1335.44 498.16 1338.91 497.387 1342.41 496.813C1344.75 496.4 1347.12 496.093 1349.51 495.853C1363.76 494.467 1378.08 496.307 1392.33 497.68C1415.6 499.907 1438.96 500.853 1460.71 499.413C1486.57 495.72 1512.75 490.867 1538.29 484.093Z" fill="#E0AFA1"/>
<path d="M1163.08 555.48C1159.91 554.013 1156.6 552.813 1153.2 551.8H1153.19C1143.45 548.92 1133 547.52 1123.07 545.173C1106.53 541.253 1088.75 532.067 1084.92 515.507C1079.75 493.027 1102.97 473.947 1108.27 451.747C1108.93 448.987 1109.31 446.173 1109.32 443.307C1107.79 443.627 1106.32 444.027 1104.88 444.533H1104.87C1088.07 450.2 1076.6 466.587 1065.76 481.147C1034.64 522.947 995.319 558.6 950.679 585.48C953.253 586.56 949.759 587.093 947.292 589.333C944.839 591.573 944.266 596.133 947.013 597.96C948.159 598.72 949.599 598.853 950.972 598.96C971.012 600.293 991.439 595.48 1008.77 585.293C1020.15 578.613 1030.72 569.52 1043.73 567.48C1050.6 566.4 1057.61 567.427 1064.49 568.453C1083.36 571.253 1102.21 574.053 1121.07 576.853C1122.89 577.12 1124.73 577.4 1126.56 577.627V577.64C1127.33 577.747 1128.12 577.827 1128.89 577.92C1139.97 569.867 1151.19 561.627 1163.08 555.48Z" fill="#E0AFA1"/>
<path d="M310.014 770.92C309.721 769.24 309.401 767.507 308.414 766.107C307.507 764.8 306.121 763.933 305.014 762.8C301.347 759.027 301.467 753.133 300.467 747.973C299.481 742.813 295.521 737 290.374 738.093C287.201 738.773 285.201 741.813 282.601 743.72C275.107 749.24 264.427 744.747 255.334 746.733C250.387 747.813 246.067 750.787 241.227 752.253C235.427 754.013 228.614 753.8 223.414 756.347C244.734 757.333 266.027 756.72 286.841 754.573C287.574 756.413 288.294 758.253 289.014 760.067C287.107 760.507 285.187 760.947 283.281 761.36C266.961 764.987 250.454 767.827 233.867 769.88C231.827 770.133 229.761 770.36 227.721 770.587C228.281 771.107 227.894 771.32 225.907 771.027C227.307 771.64 228.507 772.453 229.614 773.4H229.627C230.747 774.373 231.747 775.493 232.641 776.707C237.534 783.387 239.747 793.133 246.361 798.533C250.801 802.16 256.694 803.36 262.347 804.387C262.414 804.4 262.507 804.413 262.587 804.427C266.054 805.08 269.534 805.707 273.001 806.333C276.267 806.933 279.534 807.533 282.774 808.133H282.787C289.481 806.707 296.214 805.813 303.041 806.293C301.201 807.173 299.347 808.013 297.481 808.8C296.827 809.08 296.201 809.333 295.561 809.6C295.721 809.6 295.867 809.587 296.027 809.56C303.627 808.44 309.201 801.293 310.921 793.813C312.667 786.307 311.334 778.493 310.014 770.92Z" fill="#E0AFA1"/>
<path d="M330.799 728.6C326.639 739.893 328.586 752.413 330.573 764.28C332.759 777.28 334.933 790.293 337.119 803.293C337.679 806.587 338.693 810.48 341.853 811.56C343.746 812.213 345.826 811.587 347.719 810.933C362.519 805.853 379.479 798.867 392.853 807.013C397.453 798.907 404.853 792.427 413.493 788.933C410.546 789.373 407.466 789.787 404.679 788.76C401.893 787.72 399.599 784.707 400.466 781.853C402.399 775.453 415.853 777.547 415.599 770.867C415.546 769.453 414.746 768.213 414.146 766.933C411.253 760.8 412.893 753.587 414.586 747.027C415.879 742.027 417.346 736.72 421.186 733.267C427.426 727.667 437.053 729.147 445.173 727.027C451.613 725.347 457.639 720.72 459.346 714.293C461.066 707.867 457.173 700 450.626 698.8C443.119 697.44 435.039 704.413 428.346 700.787C423.079 697.933 422.786 690.04 425.933 684.933C429.079 679.84 434.493 676.693 439.293 673.107C443.679 669.827 448.053 664.027 445.106 659.4C443.293 656.547 439.533 655.787 436.186 655.347C404.279 651.147 369.599 653.64 343.573 672.587C338.626 676.187 333.919 680.547 331.639 686.227C329.813 690.773 329.706 695.8 329.613 700.707C329.399 710.467 329.213 720.227 330.799 728.6Z" fill="#E0AFA1"/>
<path d="M339.04 816.973C331.16 818.36 323.36 820.16 315.666 822.36C306.226 825.053 296.64 828.56 289.626 835.413C282.613 842.267 278.84 853.32 283 862.2C281.826 863.333 279.773 863.027 278.546 861.947C277.32 860.867 276.733 859.253 276.24 857.693C273.853 849.987 273.173 840.987 277.853 834.427C281.266 829.64 286.906 827.04 292.293 824.68C307.16 818.227 323.8 812.04 339.04 816.973Z" fill="#E0AFA1"/>
<path d="M275.12 801.84C274.666 798.787 270.32 797.92 267.613 799.4C265.48 800.56 263.986 802.533 262.36 804.373C261.906 804.893 261.466 805.373 260.973 805.827C257.093 809.547 251.666 811.16 246.373 812.16C240.333 813.307 234.173 813.853 228.026 813.76C221.293 813.653 214.52 812.813 207.826 813.427C201.293 814.013 194.6 816.173 190.146 820.92C190.586 820.907 191.026 820.893 191.466 820.88C214.813 819.933 238.346 818.987 261.08 813.573C261.253 813.533 261.413 813.48 261.6 813.453C261.613 813.44 261.613 813.44 261.626 813.44C265.306 811.787 268.786 809.76 271.973 807.2C272.32 806.92 272.666 806.627 273 806.32C274.306 805.093 275.386 803.547 275.12 801.84Z" fill="#E0AFA1"/>
<path d="M233.881 769.88C231.841 770.133 229.774 770.36 227.734 770.587C221.507 771.28 215.294 771.867 209.054 772.32C202.721 772.787 196.347 773.16 190.187 774.667C187.081 775.427 184.054 776.493 180.894 776.893C176.867 777.387 172.814 776.813 168.787 776.427C168.414 776.387 168.067 776.347 167.694 776.32C160.881 775.76 153.707 776.173 147.641 779.187H147.627C143.187 784.107 139.627 789.787 137.254 796C137.094 796.413 136.934 796.84 136.801 797.28C136.921 798.24 137.147 799.187 137.494 800.12C137.961 801.387 138.614 802.533 139.374 803.587C141.947 807.093 145.947 809.493 150.107 811.467C147.961 804.333 146.534 796.373 150.907 790.56C155.187 784.867 163.147 783.827 170.227 783.24C189.254 781.653 208.267 780.067 227.281 778.493C228.721 778.373 230.201 778.24 231.481 777.573C231.921 777.333 232.307 777.053 232.641 776.72C234.387 775.067 234.654 772.387 233.881 769.88Z" fill="#E0AFA1"/>
<path d="M215.853 827.08C215.853 826.92 215.84 826.76 215.813 826.6C213.693 826.44 211.573 826.187 209.466 825.8C209.026 825.72 208.586 825.64 208.146 825.547C212.266 833.173 216.066 841.253 216.2 849.88C216.453 842.293 216.346 834.667 215.853 827.08Z" fill="#E0AFA1"/>
<path d="M190.053 790.84C188.68 785.427 185.48 780.853 181.853 776.733H181.84C181.533 776.787 181.227 776.84 180.893 776.88C180.613 776.907 180.347 776.933 180.067 776.96C183.84 781.133 187.24 785.733 188.627 791.213C189.973 796.56 189.253 802.64 186.613 808.333C184.6 812.653 181.48 816.8 177.307 820.68C177.333 820.68 177.387 820.693 177.413 820.693C178.013 820.773 178.613 820.827 179.24 820.867H179.253C183.107 817.107 186.013 813.107 187.96 808.947C190.747 802.96 191.48 796.533 190.053 790.84Z" fill="#E0AFA1"/>
<path d="M1554.01 320.547C1539.15 305.067 1533.6 283.173 1524.21 263.867C1519.97 255.16 1514.91 246.88 1510.64 238.2C1506.45 229.653 1503.05 220.76 1499.67 211.88C1495.47 200.853 1491.24 189.8 1486.91 179.28C1485.24 175.28 1483.57 171.373 1481.87 167.547C1477.92 166.4 1474.17 164.733 1470.49 162.88C1464.72 159.987 1459.09 156.627 1453.15 154.08C1443.41 149.933 1431.43 148.267 1422.76 154.373C1437.47 162.48 1436.09 184.64 1446.92 197.48C1451.8 203.253 1459.63 208.293 1459 215.813C1458.75 218.933 1456.96 221.853 1457.16 224.973C1457.33 227.56 1458.87 229.853 1460.39 231.96C1466.69 240.733 1473.73 249.107 1478.33 258.907C1482.93 268.68 1484.8 280.4 1480.33 290.253C1474.89 302.227 1461.23 308.653 1448.09 309.507C1434.97 310.36 1422.04 306.68 1409.27 303.547C1374.11 294.947 1337.99 290.387 1302.21 289.96H1302.2C1302.19 289.947 1302.19 289.947 1302.17 289.96C1304.04 290.347 1305.89 290.693 1307.76 291.04C1310.36 291.52 1312.96 291.987 1315.57 292.44C1308.47 292.56 1301.49 292.973 1294.63 293.667C1267.4 296.387 1241.97 303.387 1217.96 313.507C1199.29 321.373 1181.49 331.107 1163.71 340.813C1123.31 362.853 1082.93 384.907 1042.53 406.947C1041.8 407.28 1041.08 407.6 1040.33 407.907C1039.79 408.147 1039.24 408.36 1038.71 408.573C1038.69 408.587 1038.68 408.587 1038.67 408.587C1038.36 408.707 1038.01 408.84 1037.71 408.96C1037.67 408.973 1037.63 408.987 1037.59 409C1037.01 409.227 1036.44 409.427 1035.87 409.613C1034.35 410.147 1032.83 410.627 1031.29 411.067C1030.59 411.267 1029.88 411.48 1029.16 411.653C1028.17 411.92 1027.17 412.173 1026.19 412.4C1030.93 414.027 1035.76 415.147 1040.63 415.813C1057.11 418.133 1074.19 415.52 1090.97 410.973C1095.83 409.653 1100.67 408.16 1105.45 406.6C1111.43 404.64 1117.33 402.547 1123.13 400.453C1164.97 385.333 1206.83 370.213 1248.67 355.107C1246.69 348.267 1236.92 348.787 1230.08 350.787C1188.96 362.8 1147.81 374.813 1106.68 386.827C1104.44 387.48 1102.23 388.133 1099.99 388.787C1100.27 388.6 1100.55 388.4 1100.84 388.213C1110.23 381.907 1120.44 377.027 1131.09 372.92C1131.11 372.92 1131.13 372.907 1131.15 372.907C1150.84 365.32 1172.01 360.387 1192.12 353.933C1208.65 348.64 1224.45 342.32 1238.15 332.64C1242.91 329.267 1247.43 325.507 1251.61 321.24C1255.61 317.147 1259.37 312.587 1264.49 310.053C1268.63 308 1273.21 307.453 1277.87 307.173C1280.56 307.013 1283.25 306.947 1285.89 306.747C1301.51 305.493 1319.05 299.347 1331.57 308.773C1334.41 310.92 1336.8 313.787 1340.09 315.12C1342.71 316.16 1345.61 316.133 1348.43 316.093C1362.76 315.853 1377.11 315.627 1391.44 315.4C1377.53 324.373 1361.73 330.413 1345.4 333.053C1329.31 335.64 1311.17 335.587 1299.39 346.827C1305.67 347.6 1311.95 348.387 1318.23 349.147C1311.04 352.04 1304.28 356.053 1302.12 361.893C1338.51 353.587 1373.47 339.933 1409.8 331.44C1446.12 322.92 1485.07 319.827 1520.15 332.52C1531.69 336.693 1542.63 342.533 1555.15 351.547C1554.37 341.947 1553.59 332.347 1554.01 320.547Z" fill="url(#paint0_linear_101_2284)"/>
<path d="M234.973 800.893C234.426 796.053 233.639 790.467 231.239 785.56C229.333 781.667 226.519 778.333 223.786 775.12L222.666 776.08C225.333 779.227 228.093 782.48 229.919 786.213C232.213 790.92 232.973 796.347 233.519 801.08C234.146 806.613 234.599 812.48 233.813 818.187C234.319 818.147 234.813 818.08 235.319 818.027C236.039 812.253 235.599 806.413 234.973 800.893Z" fill="#E0AFA1"/>
<path d="M193.014 734.813C192.92 727.347 190.52 719.973 186.147 713.907C185.547 713.907 184.92 713.92 184.32 713.933C188.894 719.907 191.467 727.307 191.547 734.827C191.587 741.2 189.867 747.533 186.627 753C187.16 753.093 187.68 753.16 188.214 753.2C191.387 747.64 193.08 741.253 193.014 734.813Z" fill="#E0AFA1"/>
<path d="M237.987 713.04C237.453 713.053 236.933 713.053 236.4 713.067C239.293 719.68 240.56 727.333 240.107 735.307C239.707 742.173 238.013 749.36 235.08 756.72C235.613 756.747 236.133 756.747 236.667 756.747C239.52 749.427 241.173 742.24 241.573 735.4C242.027 727.4 240.8 719.747 237.987 713.04Z" fill="#E0AFA1"/>
<path d="M414.853 849.907C413.813 849.88 412.773 849.893 411.747 849.92C404.72 850.093 397.707 850.653 390.747 851.613C386.053 852.267 381.373 853.08 376.693 853.747C367 855.093 357.213 855.773 347.413 855.747C345.453 855.747 343.373 855.667 341.733 854.587C340.32 853.627 339.467 852.053 338.293 850.827C337.12 849.587 335.2 848.68 333.733 849.533C332.853 850.053 332.387 851.053 331.72 851.827C329.587 854.36 325.56 854.307 322.56 852.88C319.573 851.453 317.24 849 314.547 847.067C306.307 841.187 295.347 840.693 285.387 842.387C290.52 843.24 295.56 843.76 300.56 844.507C302.893 844.84 305.253 845.253 307.373 846.267C309.507 847.267 311.4 848.96 312.173 851.173C312.92 853.347 312.573 855.827 313.16 857.987C318.293 857.68 323.427 857.747 328.573 858.333C357.387 863.333 387.493 860.253 414.853 849.907Z" fill="#E0AFA1"/>
<path d="M224.814 674.133C223.907 672.24 222.68 670.56 221.36 668.987C220.76 669.04 220.174 669.107 219.587 669.173C221.107 670.893 222.507 672.72 223.494 674.76C225.694 679.387 225.72 685.307 223.507 691C222.08 694.653 219.787 698.267 216.4 702.187C217.027 702.187 217.667 702.2 218.294 702.213C220.72 699.293 223.267 695.667 224.867 691.52C227.227 685.48 227.2 679.133 224.814 674.133Z" fill="#E0AFA1"/>
<path d="M262.546 666.24C262.026 666.24 261.506 666.253 260.986 666.28C262.399 669.88 262.946 674.107 262.586 678.84C262.213 683.893 260.919 688.893 259.666 693.72C258.853 696.867 257.866 700.68 255.666 703.493C256.253 703.52 256.826 703.547 257.399 703.6H257.413C259.386 700.68 260.306 697.12 261.093 694.107C262.359 689.2 263.679 684.133 264.053 678.96C264.399 674.213 263.893 669.933 262.546 666.24Z" fill="#E0AFA1"/>
<path d="M492.321 681.76C489.921 684.533 495.147 688.347 495.774 691.947C496.081 693.72 495.601 695.533 495.054 697.253C492.867 704.04 479.961 710.827 484.907 715.947C491.707 722.987 502.307 707.2 511.321 703.387C521.054 699.267 530.268 693.92 538.681 687.52C540.214 686.347 541.761 685.107 542.761 683.453C544.601 680.427 544.174 676.2 541.774 673.6C540.161 671.84 537.801 670.813 536.467 668.827C535.147 666.84 539.428 665.507 538.348 663.373C534.761 656.267 501.601 671.08 492.321 681.76Z" fill="#E0AFA1"/>
<path d="M506.586 778.107C513.066 768.187 524.386 761.6 536.199 760.867C539.212 760.68 542.492 760.773 544.946 759.013C547.399 757.253 547.879 752.68 545.052 751.613C544.079 751.24 542.986 751.387 541.959 751.533C538.972 751.973 535.999 752.4 533.012 752.84C531.879 753 530.546 753.107 529.772 752.267C528.772 751.173 529.452 749.44 530.252 748.187C532.759 744.28 536.012 740.84 539.799 738.147C541.612 736.853 543.639 735.613 544.626 733.627C545.626 731.627 544.932 728.613 542.759 728.133C541.559 727.88 540.359 728.44 539.279 729C527.826 734.867 516.706 741.413 506.012 748.587C504.612 749.533 503.159 750.547 502.372 752.04C501.586 753.533 501.706 755.653 503.092 756.627C505.612 758.373 509.746 755.16 511.919 757.333C509.906 761.12 506.519 764.093 504.919 768.08C503.319 772.067 504.786 777.827 506.586 778.107Z" fill="#E0AFA1"/>
<path d="M289.667 713.547C289.813 723.547 289.96 733.56 290.107 743.56C293.747 736.493 295.707 728.573 295.787 720.627C295.813 718.347 295.653 715.987 294.547 714C293.44 712.013 289.613 710.147 289.667 713.547Z" fill="#E0AFA1"/>
<path d="M299.28 758.293C302.92 757.973 306.853 757.533 309.546 755.053C311.186 753.533 312.16 751.44 312.893 749.333C317.213 736.893 314.64 723.253 315.306 710.107C315.36 709.12 315.68 707.84 316.666 707.76C317.106 707.72 317.52 707.947 317.853 708.227C319.933 709.88 320.146 712.92 320.12 715.573C320.026 727.947 318.573 740.307 315.8 752.36C315.28 754.653 314.586 757.107 312.72 758.52C311.6 759.373 310.186 759.72 308.813 760.013C305.12 760.8 301.36 761.307 297.573 761.52C297.12 759.533 297.653 757.347 299.28 758.293Z" fill="#E0AFA1"/>
<path d="M305.266 801.613C313.8 796.24 317.56 785.813 319.72 775.96C321.88 766.107 323.16 755.667 328.826 747.32C330.666 757.227 325.453 766.907 323.093 776.693C321.906 781.613 321.426 786.72 319.813 791.52C318.2 796.32 315.173 800.973 310.52 802.973C308.12 803.987 304.386 803.467 305.266 801.613Z" fill="#E0AFA1"/>
<path d="M1965.6 104.6C1959.35 100.76 1952.28 98 1945.36 95.4667C1914.79 84.28 1881.21 74.7467 1850.09 84.3333C1842.28 86.7467 1834.33 90.7867 1830.53 98.0267C1845.08 97.0533 1859.63 96.0667 1874.16 95.1067C1877.08 94.9067 1880.64 95.0134 1882.13 97.5467C1884.17 101.053 1880.24 105.013 1876.56 106.773C1871.83 109.013 1866.71 110.453 1862.17 113.093C1857.64 115.72 1853.6 119.947 1853 125.147C1861.19 126.173 1868.99 121.76 1877.13 120.413C1878.51 120.187 1879.87 120.04 1881.24 119.987C1889.69 114.707 1898.73 110.573 1908.52 108.12C1920.33 105.147 1932.63 104.8 1944.8 104.667C1951.73 104.56 1958.68 104.547 1965.6 104.6Z" fill="#E0AFA1"/>
<path d="M1354.96 490.107C1353.67 488.827 1352.07 488.133 1350.33 487.84C1347.01 487.253 1343.13 488.133 1339.76 489.133C1276.81 507.707 1213.64 526.387 1153.2 551.8H1153.19C1144.27 555.547 1135.41 559.453 1126.61 563.52C1124.64 564.427 1122.39 565.707 1122.17 567.893C1122.04 569.147 1122.65 570.347 1123.27 571.467C1124.37 573.52 1125.47 575.587 1126.59 577.64V577.653C1126.84 578.133 1127.11 578.6 1127.35 579.08C1127.87 578.693 1128.39 578.32 1128.92 577.933C1139.97 569.853 1151.2 561.627 1163.08 555.48C1173.49 550.093 1184.39 546.32 1196.11 545.707C1234.21 536.573 1270.28 520.693 1307.05 507.16C1315.28 504.147 1323.59 501.213 1332.05 499.053C1335.48 498.173 1338.95 497.4 1342.45 496.827C1346.65 494.64 1350.81 492.4 1354.96 490.107Z" fill="#E0AFA1"/>
<path d="M889.76 199.467C876.333 194.84 863.706 187.413 852.719 178.36C832.239 161.48 816.826 139.267 803.173 116.493C796.746 105.773 790.573 94.6133 788.133 82.3333C785.706 70.0666 787.546 56.36 795.719 46.9066C773.346 48.88 750.746 48.2933 728.52 45.16C745.8 58.12 763.693 71.7866 773.173 91.2C777.72 100.48 780.08 110.653 783.653 120.36C792.666 144.92 809.639 166.493 831.386 181.053C838.013 185.493 845.666 190.053 847.733 197.76C847.826 198.107 847.906 198.467 847.986 198.84C853.066 197.987 858.146 197.147 863.28 197.133C868.72 197.107 874.133 197.973 879.546 198.587C882.946 198.96 886.346 199.253 889.76 199.467Z" fill="#E0AFA1"/>
<path d="M1139.47 183.293C1114.39 176.173 1090.48 164.947 1069 150.187C1062.36 145.627 1055.17 138.653 1057.31 130.893C1087.25 143.507 1117.19 156.107 1147.13 168.72C1151.12 170.4 1155.77 172.987 1155.85 177.32C1155.97 183.093 1148 185.28 1142.44 183.733C1136.89 182.173 1131.32 178.76 1139.47 183.293Z" fill="#E0AFA1"/>
<path d="M1182.89 46.1333C1174.49 38.6 1164.31 30 1165.36 18.76C1165.96 12.48 1170.11 7.23998 1173.07 1.59998H1137.05C1136.24 2.35998 1135.35 3.05331 1134.39 3.62664C1129.01 6.82664 1122.37 7.07998 1116.19 6.21331C1110.45 5.38664 1104.95 3.70664 1099.57 1.59998H1048.68C1049.11 2.46664 1049.6 3.29331 1050.16 4.05331C1053.47 8.63998 1058.28 11.96 1061.88 16.3333C1071.08 27.5066 1070.55 45.5066 1060.68 56.1066C1058.63 58.3066 1056 61.1066 1057.2 63.88C1057.68 65.0133 1058.71 65.7866 1059.68 66.5333C1089.79 88.9866 1117.49 114.653 1142.2 142.933C1135.72 141.227 1143.72 147.253 1150.17 145.307C1156.63 143.36 1160.21 135.907 1159.6 129.187C1158.99 122.48 1155.07 116.507 1150.59 111.48C1141.47 101.253 1129.53 93.52 1122.07 82.0533C1114.61 70.5733 1113.65 52.7866 1125.03 45.1733C1136.03 37.7866 1151.05 44.28 1161.15 52.8533C1171.24 61.4266 1180.39 72.48 1193.29 75.3466C1199.27 65.8 1191.28 53.6666 1182.89 46.1333Z" fill="#E0AFA1"/>
<path d="M1242.16 159.053C1267.16 168.267 1294.64 170.653 1320.85 165.867C1324.4 165.227 1328.25 164.24 1330.37 161.333C1323.19 152.467 1311.11 149.507 1299.85 147.613C1278.55 144.027 1256.92 142.36 1235.32 142.627C1233.12 142.653 1230.73 142.76 1229.01 144.147C1226.36 146.293 1226.61 150.653 1228.65 153.387C1230.69 156.12 1233.96 157.6 1237.11 158.907C1253.4 165.693 1270.29 171.013 1242.16 159.053Z" fill="#E0AFA1"/>
<path d="M1286.81 225.6C1334.13 236.773 1384.67 233.893 1430.4 217.413C1434.11 216.08 1438.6 212.92 1437.04 209.307C1436.36 207.733 1434.71 206.84 1433.12 206.16C1410.84 196.547 1385.55 205.72 1361.61 209.733C1336.51 213.947 1310.79 212.267 1285.45 214.773C1283.28 214.987 1280.43 216.053 1280.75 218.213C1280.88 219.08 1281.53 219.76 1282.17 220.36C1288.15 225.88 1295.65 229.72 1286.81 225.6Z" fill="#E0AFA1"/>
<path d="M780.081 543.813C779.387 544.493 778.707 545.16 778.027 545.84C778.894 545.293 779.587 544.6 780.081 543.813Z" fill="#99685A"/>
<path d="M1294.92 293.747C1294.81 293.72 1294.72 293.693 1294.61 293.667C1267.39 296.387 1241.96 303.387 1217.95 313.507C1199.28 321.373 1181.48 331.107 1163.69 340.813C1123.29 362.853 1082.92 384.907 1042.52 406.947C1041.79 407.28 1041.07 407.6 1040.32 407.907C1039.77 408.147 1039.23 408.36 1038.69 408.573C1038.68 408.587 1038.67 408.587 1038.65 408.587C1038.35 408.72 1038.03 408.84 1037.69 408.96C1037.65 408.973 1037.61 408.987 1037.57 409C1037 409.227 1036.43 409.427 1035.85 409.613C1034.33 410.147 1032.81 410.627 1031.28 411.067C1030.57 411.267 1029.87 411.48 1029.15 411.653C1028.16 411.92 1027.16 412.173 1026.17 412.4H1026.16C1025.61 412.533 1025.07 412.667 1024.55 412.773C1024.03 412.893 1023.52 413.013 1023 413.107C1022.84 413.147 1022.68 413.187 1022.51 413.213C1021.28 413.467 1020.05 413.707 1018.81 413.92C1017.57 414.16 1016.33 414.36 1015.08 414.547C1013.83 414.747 1012.56 414.947 1011.31 415.12C1010 415.32 1008.69 415.507 1007.39 415.667C1005.31 415.947 1003.25 416.2 1001.19 416.44C998.854 416.733 996.507 417.013 994.174 417.307C992.267 417.547 990.36 417.787 988.467 418.053C987.72 418.16 986.974 418.253 986.2 418.373C984.814 418.573 983.454 418.787 982.094 419.027C981.04 419.187 979.987 419.373 978.934 419.573C977.76 419.8 976.587 420.013 975.414 420.253C974.294 420.493 973.174 420.733 972.067 421C971.894 421.027 971.72 421.08 971.534 421.133C971.014 421.253 970.507 421.373 970 421.507C969.48 421.627 968.987 421.76 968.467 421.907C967.574 422.147 966.667 422.387 965.774 422.653C934.867 431.8 908.667 455.48 876.614 458.84C839.24 471.88 802.04 488.613 766.72 508.667C723.187 532.387 678.187 557.533 632.587 581.56C605.014 597.733 576.414 613.24 547.4 627.947C521.4 636.293 496.654 643.96 471.734 651C452.827 651.613 433.867 649.08 414.907 649.333C382.174 649.787 350.2 658.533 320.227 667.613C318.147 667.453 316.08 667.307 314 667.173C313.6 667.147 313.187 667.12 312.8 667.08C312.254 667.053 311.707 667 311.174 666.973C311.267 667.68 311.307 668.387 311.32 669.093C311.427 671.96 311.04 674.84 310.174 677.6C314.587 674.413 319.48 671.88 324.627 670.107C326.067 669.6 327.667 669.16 329.107 669.68C331.96 670.693 332.387 674.493 332.334 677.52C332.28 680.027 332.214 682.507 332.174 685C332.067 689.267 331.974 693.533 331.88 697.8C336.56 686.84 343.174 676.707 351.334 668.04C351.68 667.653 352.067 667.28 352.467 666.92L352.48 666.907C353.2 666.293 354 665.773 354.88 665.613C355.16 665.56 355.454 665.533 355.747 665.573C358.134 665.8 359.32 668.6 359.36 670.987C359.414 673.373 358.867 675.867 359.84 678.04C363.294 670.08 370.8 664.467 378.88 661.373C386.974 658.267 395.72 657.373 404.334 656.507C412.054 655.733 419.854 654.947 427.627 654.387C447.76 652.947 467.934 652.933 487.374 657.96C491.094 658.933 494.8 660.08 498.64 660.2C504.267 660.347 509.68 658.24 514.84 655.973C523.227 652.28 531.4 648.093 539.28 643.427C547.654 638.48 556.827 632.76 566.36 634.68C570.267 635.453 573.92 637.507 577.894 637.68C580.547 637.8 583.147 637.08 585.627 636.147C605.547 628.707 618.334 609.173 634.907 600.107C648.827 590.307 663.134 580.36 679.534 575.853C685.414 574.253 691.454 573.373 697.334 571.707C707.48 568.84 716.827 563.72 726.08 558.627C739.187 551.427 752.267 544.213 765.374 537.013C769.147 534.933 773.52 532.813 777.574 534.28C780.867 535.467 782.267 540.4 780.054 543.813C801.36 522.813 824 503.133 847.774 484.987C850.774 489.187 852.094 494.573 851.36 499.693C874.227 481 899.014 461.507 928.414 458.92C931.267 458.667 934.267 458.547 936.734 457.08C939.027 455.733 940.534 453.387 942.12 451.253C950.267 440.2 962.6 432.307 973.534 427.747C995.027 420.147 1017.79 417.933 1040.59 415.8C1057.91 414.2 1075.28 412.627 1092.16 408.773C1140.59 397.733 1183.31 368.36 1231.71 357.107C1190.01 367 1148.33 376.92 1106.65 386.813C1104.71 387.28 1102.76 387.733 1100.81 388.2C1098.2 388.827 1095.59 389.453 1092.97 390.067C1104.72 382.387 1117.69 377.213 1131.07 372.907C1131.08 372.907 1131.11 372.893 1131.12 372.893C1144.49 368.573 1158.24 365.16 1171.63 361C1178.52 358.853 1185.35 356.493 1192.09 353.92C1207.92 347.933 1223.32 340.8 1238.12 332.627C1251.89 325.027 1265.2 316.507 1277.84 307.16C1283.69 302.88 1289.39 298.387 1294.92 293.747Z" fill="#99685A"/>
<path d="M280.799 862.947C276.573 858.707 275.186 852.04 276.466 846.133C277.866 839.787 281.919 834.28 286.759 829.907C301.719 816.427 324.426 813.08 343.386 819.813C358.466 813.707 372.959 806.24 386.693 797.533C388.786 785.493 394.399 774.067 402.679 765.067C400.239 755.987 406.666 747.24 411.733 739.347C416.279 732.267 428.093 723.227 422.733 716.653C421.306 714.907 418.146 716.027 416.693 714.307C416.013 713.493 415.439 712.48 414.426 712.213C413.559 711.973 412.666 712.387 411.866 712.8C406.013 715.8 400.346 719.133 394.893 722.8C389.866 726.187 384.919 729.933 381.506 734.933C374.693 744.893 374.973 758.133 369.546 768.92C366.639 774.68 362.173 779.573 359.319 785.373C357.666 788.72 356.613 792.747 358.146 796.147C359.759 799.747 363.746 801.573 367.399 803.093C359.306 807.853 350.799 811.907 342.013 814.893C329.453 813.36 316.573 812.507 304.253 815.413C291.946 818.307 280.119 825.453 274.146 836.613C271.333 841.867 269.919 848.053 271.306 853.853C272.213 857.707 274.533 861.293 277.706 863.587L280.799 862.947Z" fill="#99685A"/>
<path d="M298.401 694.92C296.534 695.973 294.681 697.053 292.827 698.107C292.534 698.267 292.227 698.453 292.067 698.76C291.801 699.227 291.974 699.8 292.107 700.333C292.574 702.293 292.187 704.427 291.067 706.067C291.587 706.107 292.107 706.16 292.627 706.2C291.174 709.4 288.014 710.96 284.454 711.72C283.921 712.253 283.401 712.8 282.867 713.333C285.401 713.813 288.001 713.933 290.574 713.72C291.467 713.627 292.414 713.493 293.121 712.92C293.961 712.24 294.267 711.12 294.534 710.08C295.814 705.027 297.107 699.973 298.401 694.92Z" fill="#99685A"/>
<path d="M296.268 750.12C294.654 750.387 292.748 750.56 291.588 749.4C290.774 748.587 290.428 747.227 289.334 746.893C288.054 746.507 286.868 748.133 287.188 749.427C287.494 750.733 288.734 751.6 289.961 752.147C290.348 752.307 290.788 752.52 290.908 752.907C291.068 753.427 290.601 753.907 290.188 754.253C289.321 754.96 288.454 755.68 287.588 756.4C287.988 757.387 288.361 758.373 288.748 759.36C289.308 759.68 289.934 759.96 290.548 759.747C291.308 759.453 291.574 758.52 291.788 757.72C292.561 754.867 294.121 752.2 296.268 750.12Z" fill="#99685A"/>
<path d="M306.521 805.467C303.747 803.307 301.614 800.32 300.441 797C300.174 800.04 299.921 803.107 299.641 806.16C300.774 806.173 301.921 806.213 303.054 806.293C302.254 806.68 301.454 807.04 300.654 807.413C302.387 807.84 305.187 807.36 306.521 805.467Z" fill="#99685A"/>
<path d="M187.466 822.493C185.866 822.533 184.226 822.587 182.64 822.747C182.626 822.76 182.613 822.76 182.6 822.76C180.466 823.24 178.426 824.08 176.506 825.373C171.306 828.907 168.493 835.667 169.68 841.84C170.133 844.227 171.253 846.64 173.36 847.84C173.786 848.08 174.213 848.267 174.666 848.413C172.96 844.4 172.973 839.573 174.573 835.44C176.84 829.64 181.84 825.187 187.466 822.493Z" fill="#99685A"/>
<path d="M200.839 866.547C197.639 865.027 195.319 862.16 192.733 859.72C190.933 858.04 188.826 856.48 186.506 855.827C187.853 857.88 189.133 860.08 190.799 861.84C193.399 864.587 196.786 866.147 200.479 867.067C200.613 866.907 200.733 866.733 200.839 866.547Z" fill="#99685A"/>
<path d="M168.8 776.413C168.426 776.373 168.08 776.333 167.706 776.307C160.893 775.747 153.72 776.16 147.653 779.173H147.64C146.893 779.547 146.186 779.947 145.48 780.4C139.853 783.973 135.933 790.827 136.813 797.267C136.933 798.227 137.16 799.173 137.506 800.107C137.973 801.373 138.626 802.52 139.386 803.573C138.92 799.773 139 796 140.44 792.493C142.266 788.067 146.053 784.667 150.293 782.413C154.533 780.173 159.2 778.933 163.84 777.707C165.48 777.293 167.146 776.867 168.8 776.413Z" fill="#99685A"/>
<path d="M284.601 762.973C284.254 762.347 283.801 761.8 283.294 761.36C266.974 764.987 250.467 767.827 233.881 769.88C231.841 770.133 229.774 770.36 227.734 770.587C221.507 771.28 215.294 771.867 209.054 772.32C208.734 772.347 208.427 772.36 208.094 772.4H208.081C204.587 773.08 201.054 773.48 197.481 773.36C197.467 773.373 197.454 773.373 197.441 773.36C195.001 773.667 192.587 774.093 190.187 774.68C188.894 775 187.614 775.373 186.334 775.72C190.907 775.413 195.507 775.613 200.027 776.307C201.454 776.533 202.894 776.813 204.334 776.653C206.107 776.48 207.774 775.667 209.494 775.12C214.774 773.427 220.827 774.307 225.414 777.453C226.534 775.867 227.947 774.147 229.614 773.373H229.627C230.374 773.04 231.174 772.893 232.027 773.04C233.601 773.293 234.827 774.48 236.267 775.173C239.201 776.56 242.707 775.707 245.601 774.28C248.507 772.84 251.161 770.853 254.254 769.867C257.067 768.973 260.067 768.96 262.987 768.733C270.481 768.187 277.854 766.213 284.601 762.973Z" fill="#99685A"/>
<path d="M299.387 809.867C298.88 809.293 298.24 808.96 297.507 808.787C296.854 809.067 296.227 809.32 295.587 809.587C295.587 809.587 295.587 809.587 295.574 809.587H295.56C295.56 809.587 295.56 809.6 295.547 809.6C284.414 814.107 272.734 817.12 261.094 820.12C252.374 822.36 243.48 824.6 234.547 825.84C238 826.133 241.454 826.413 244.92 826.707C247.52 826.933 250.187 827.147 252.734 826.587C255.574 825.96 258.107 824.427 260.68 823.067C267 819.733 273.88 817.44 280.947 816.267C287.467 815.187 294.88 814.76 299.387 809.867Z" fill="#99685A"/>
<path d="M165.346 714.36C162.026 714.587 158.746 715.067 155.626 716.187C150.493 718.027 145.786 721.92 144.466 727.213C143.639 730.507 144.266 733.92 145.799 736.96C145.799 735.947 145.893 734.933 146.079 733.947C147.306 727.547 151.853 722.173 157.279 718.56C159.826 716.88 162.546 715.52 165.346 714.36Z" fill="#99685A"/>
<path d="M279.119 713.56C279.039 713.107 278.853 712.707 278.586 712.36C278.213 712.373 277.866 712.373 277.493 712.387C264.319 712.613 251.159 712.813 237.973 713.04C237.439 713.053 236.919 713.053 236.386 713.067C219.639 713.347 202.879 713.627 186.133 713.907C185.533 713.907 184.906 713.92 184.306 713.933C182.933 713.96 181.573 713.973 180.199 714.013C180.906 715.267 182.119 716.253 183.466 716.813C185.359 717.613 187.466 717.667 189.519 717.613C201.333 717.227 212.959 712.893 224.706 714.24C230.759 714.933 236.653 717.12 242.746 717.227C247.093 717.28 251.399 716.267 255.666 715.507C263.426 714.093 271.279 713.453 279.119 713.56Z" fill="#99685A"/>
<path d="M204.174 671.133C196.601 672.52 188.721 675.52 186.801 682.667C185.201 688.667 189.094 694.96 194.467 698.24C192.521 695.867 191.081 693.187 190.721 690.16C190.121 685.16 192.694 680.173 196.307 676.68C198.627 674.44 201.334 672.693 204.174 671.133Z" fill="#99685A"/>
<path d="M248.974 666.8C243.094 667.107 237.214 667.52 231.32 668.04C234.667 668.867 238.027 669.92 241.44 670.427C241.907 670.507 242.414 670.56 242.88 670.427C243.414 670.28 243.84 669.907 244.28 669.573C245.72 668.44 247.307 667.533 248.974 666.8Z" fill="#99685A"/>
<path d="M300.226 666.453C288.386 665.973 276.533 665.88 264.68 666.187C265.373 667.76 265.826 669.44 266 671.16C272.853 667.32 281.44 666.747 288.746 669.627C289.173 669.8 289.626 670 290.093 669.947C290.786 669.893 291.32 669.373 291.866 668.96C294.2 667.24 297.44 667.227 300.226 666.453Z" fill="#99685A"/>
<path d="M784.307 210.093C762.12 197.68 742.027 178.093 734.72 157.613C723.6 126.467 722.92 92.7467 718.987 59.9067C716.64 40.2933 713.08 20.8 708.333 1.61334H177.2C174.747 12.0933 172.867 22.3067 171.813 31.4533C165.56 86.68 181.973 166.107 211.133 213.413C219.627 227.213 229.48 238.96 240.467 249.107C370.773 258.84 502.04 247.947 628.48 216.973C673 220.8 724.653 218 775.893 211.707C778.627 211.173 781.427 210.64 784.307 210.093Z" fill="#495B5E"/>
<path d="M726.6 216.587C716.626 206.587 707.119 196.16 698.546 184.92C696.413 182.12 694.36 179.293 692.36 176.387C677.813 155.347 666.946 131.52 664.066 106.187C661.639 84.92 664.893 63.44 664.466 42.04C664.186 28.7867 662.519 15.64 660.333 2.58668C660.279 2.26668 660.226 1.93334 660.173 1.61334H233.853C227.039 42.32 223.413 83.5733 228.719 124.347C231.693 147.053 237.733 169.72 247.066 190.693C248.146 193.12 249.266 195.52 250.453 197.893C260.399 218.187 273.559 236.653 290.119 251.773C404.026 255.733 518.106 244 628.506 216.947C651.266 218.907 675.893 219.12 701.36 218.04C709.693 217.693 718.12 217.2 726.6 216.587Z" fill="#AECCD1"/>
<path d="M353.921 694.373C355.388 702.373 350.028 710.16 348.081 718.053C347.468 720.56 346.841 723.08 346.708 725.653C346.548 728.733 347.068 731.8 347.081 734.88C347.134 745.16 341.508 755.613 344.868 765.333C346.921 763.653 348.561 761.533 349.921 759.267C357.601 746.347 355.468 730.053 358.788 715.4C359.788 710.987 361.308 706.64 361.494 702.12C361.681 697.6 361.054 689.947 356.521 690.093C354.188 690.16 353.801 693.72 353.921 694.373Z" fill="#FDD5C8"/>
<path d="M381.079 718.413C386.973 713.107 385.639 703.693 387.986 696.12C391.653 684.347 404.426 677.653 416.639 675.973C417.239 675.893 417.959 675.853 418.346 676.32C418.773 676.827 418.573 677.587 418.333 678.2C417.159 681.333 413.133 684.72 414.813 687.613C416.399 690.347 420.666 685.6 422.666 683.16C425.906 679.2 431.319 675.4 430.959 670.307C430.573 664.947 421.279 666.627 416.039 667.853C410.426 669.187 404.799 670.507 399.186 671.84C393.986 673.067 388.639 674.36 384.213 677.347C376.959 682.227 373.213 690.987 371.759 699.6C370.919 704.547 370.746 709.773 372.493 714.48C373.213 716.413 374.319 718.307 376.053 719.413C377.813 720.52 379.319 720 381.079 718.413Z" fill="#FDD5C8"/>
<path d="M726.599 216.587C716.626 206.587 707.119 196.16 698.546 184.92C696.413 182.12 694.359 179.293 692.359 176.387C677.813 155.347 666.946 131.52 664.066 106.187C661.639 84.92 664.893 63.44 664.466 42.04C664.186 28.7867 662.519 15.64 660.333 2.58668C660.279 2.26668 660.226 1.93334 660.173 1.61334H388.186C457.306 38.9067 527.279 74.76 600.479 103.467C605.999 105.613 611.666 107.84 615.919 111.867C620.199 115.893 622.746 122.293 620.479 127.667C618.706 131.92 614.479 134.587 610.493 136.987C585.199 152.24 559.639 167.653 531.413 176.733C509.639 183.747 486.746 186.84 463.986 189.387C393.119 197.28 321.693 200.147 250.439 197.92C260.386 218.213 273.546 236.68 290.106 251.8C404.013 255.76 518.093 244.027 628.493 216.973C651.253 218.933 675.879 219.147 701.346 218.067C709.693 217.693 718.119 217.2 726.599 216.587Z" fill="#7A9CA1"/>
<path d="M1393.29 340.4C1385.59 343.613 1376.21 343.653 1367.99 343.107C1359.76 342.56 1351.33 341.587 1342.72 343.28C1335.11 344.773 1328.44 348.147 1322.48 351.627C1314.72 356.147 1307.59 361.027 1301.24 366.187C1298.67 368.28 1296.16 370.48 1295.16 372.827C1294.21 375.04 1294.69 377.2 1294.56 379.387C1294.35 382.76 1292.67 386.213 1291.72 389.627C1290.57 393.733 1290.49 397.787 1290.41 401.827C1290.25 409.88 1290.08 417.933 1289.92 425.987C1289.85 429.267 1289.79 432.56 1290.55 435.72C1291.73 440.693 1294.97 445.24 1299.96 448.947C1308.12 455.013 1320.51 458.573 1332.61 462.013C1340.89 464.36 1349.16 466.72 1357.44 469.067C1362.12 470.4 1366.97 471.747 1372.6 471.773C1377.24 471.787 1382.08 470.893 1386.81 470C1401.04 467.32 1415.27 464.653 1429.49 461.973C1431.81 461.533 1434.23 461.067 1436.23 460.133C1444.2 456.387 1438.85 449.653 1443.31 444.44C1444.56 442.973 1446.57 441.68 1447.79 440.2C1452.21 434.827 1444.64 430.4 1441.6 425.627C1438.35 420.52 1440.43 414.267 1442.53 408.32C1444.55 402.653 1446.56 396.987 1448.56 391.32C1451.99 381.64 1455.28 371.187 1448.05 363.56C1441.15 356.253 1425.53 352.747 1421.55 344.48C1420.49 342.293 1419.96 339.613 1416.36 338.813C1414.6 338.427 1412.44 338.613 1410.39 338.787C1403.2 339.427 1395.72 339.387 1393.29 340.4Z" fill="url(#paint1_radial_101_2284)"/>
<path d="M1373.95 348.36C1370.32 348.173 1366.48 348.48 1362.68 348.853C1352.92 349.827 1342.91 351.36 1333.87 354.56C1324.83 357.773 1316.84 362.92 1314.45 368.587C1313.69 370.373 1313.49 372.2 1312.25 373.947C1311.19 375.44 1309.43 376.813 1308.11 378.267C1306.33 380.213 1305.39 382.28 1304.47 384.32C1299.68 395.04 1295.68 405.893 1296.05 416.333C1296.32 423.76 1298.84 430.88 1303.45 437.293C1304.32 438.493 1305.28 439.693 1306.75 440.64C1308.27 441.613 1310.28 442.28 1312.16 443.027C1324.55 447.933 1332.31 456.467 1347.29 458.907C1352.32 459.72 1357.88 459.787 1362.87 460.64C1373.09 462.373 1381.48 467.36 1392.99 465.813C1397.67 465.187 1402.07 463.52 1406.32 461.907C1410.67 460.253 1415.03 458.6 1419.37 456.947C1422.21 455.867 1425.08 454.773 1427.51 453.373C1433.99 449.64 1436.36 444.293 1436.27 439.613C1436.17 434.92 1434.01 430.573 1433.21 426C1432.19 420.147 1433.39 413.907 1436.72 407.8C1439.51 402.693 1443.81 397.493 1443.59 392.507C1443.41 388.587 1440.47 384.787 1443.39 380.853C1444.63 379.173 1446.84 377.667 1447.93 375.96C1451.12 370.973 1443.84 367.347 1438.52 364.107C1433.25 360.893 1429.47 356.88 1424.09 353.72C1418.73 350.56 1411.11 348.213 1402.49 349.24C1400.17 350.667 1383.28 348.853 1373.95 348.36Z" fill="#E09F89"/>
<path d="M1377.65 351.773C1377.65 351.773 1418.76 353.96 1430.64 362.093C1439.72 368.307 1441.8 377.6 1439.67 386.76C1437.53 395.907 1431.59 405.067 1425.75 414.12C1423.2 418.08 1420.63 422.133 1420.29 426.093C1419.91 430.747 1422.65 434.893 1424.17 439.24C1425.69 443.587 1425.77 448.68 1420.83 452.947C1416.05 457.067 1407.55 459.48 1399.72 460.093C1391.89 460.707 1384.53 459.813 1377.35 458.907C1353.36 455.92 1327.4 452.12 1316.4 440.013C1313.33 436.627 1311.61 432.747 1308.23 429.48C1306.15 427.48 1303.45 425.733 1301.59 423.64C1297.97 419.573 1297.72 414.493 1297.53 409.56C1297.43 406.64 1297.41 403.493 1300.32 400.707C1302 399.093 1304.52 397.747 1306.17 396.133C1308.99 393.4 1308.96 390.333 1309.59 387.413C1310.53 382.987 1313.16 378.547 1315.8 374.147C1318.84 369.093 1322.12 363.84 1328.49 359.613C1339.12 352.547 1356.11 350.053 1369.91 351.213C1374.03 351.56 1377.65 351.773 1377.65 351.773Z" fill="url(#paint2_radial_101_2284)"/>
<path d="M1423.72 360.2C1428.05 362.747 1434.65 366.44 1440.13 369.56C1441.08 370.107 1442.08 370.693 1442.23 371.52C1442.37 372.347 1441.23 373.467 1439.73 373.56C1438.83 373.613 1438.13 373.307 1437.51 373.013C1436.08 372.333 1434.64 371.653 1433.21 370.973C1430 369.453 1426.8 367.933 1423.59 366.413C1421.32 365.333 1419.01 364.24 1417.49 362.76C1415.97 361.293 1413.59 358.72 1416.48 357.467C1420.39 355.787 1422.95 359.747 1423.72 360.2Z" fill="#F6DCDD"/>
<path d="M1372.96 355.96C1366.6 355.493 1354.29 357.04 1354.88 353.16C1355.13 351.48 1360.65 351.733 1363.43 351.907C1369 352.267 1373 355.053 1378.85 354.613C1382.37 354.347 1388.03 352.6 1388.8 354.467C1388.96 354.88 1378.72 356.387 1372.96 355.96Z" fill="#E39D9D"/>
<path d="M1342.24 357.693C1336.17 359.733 1329.56 362.4 1327.64 366.133C1327.09 367.2 1326.97 368.293 1326.09 369.32C1325.21 370.347 1323.08 371.373 1321.55 371C1319.49 370.493 1319.11 368.84 1319.75 367.413C1320.39 365.987 1321.97 364.667 1323.63 363.427C1328.63 359.707 1336.87 353.853 1342.83 355.613C1344.04 355.96 1343.25 357.36 1342.24 357.693Z" fill="#FDACAE"/>
<path d="M1302.48 406.907C1307.35 404.427 1306.92 400.44 1308.48 397.027C1310.64 392.307 1317.32 387.96 1318.52 383.253C1318.73 382.427 1318.69 381.52 1317.71 381.053C1316.69 380.6 1300.93 398.133 1302.48 406.907Z" fill="#E2A094"/>
<path d="M1306.55 432.893C1308.15 433.613 1306.87 435.427 1306.75 436.733C1306.63 438.04 1306.65 439.4 1307.71 440.413C1308.76 441.44 1311.12 442 1313.32 441.387C1315.52 440.76 1316.6 438.747 1314.8 438.173C1317.21 440.28 1319.61 442.4 1322.03 444.507C1322.59 445 1323.8 445.493 1324.67 444.96C1324.91 444.813 1325.03 444.627 1325.12 444.453C1326.52 441.84 1324.16 439.573 1321.89 437.64C1319.92 435.96 1317.96 434.293 1315.99 432.613C1315.01 431.787 1314.01 430.947 1312.51 430.453C1311 429.96 1308.85 429.893 1307.12 430.587C1305.39 431.28 1305.11 432.24 1306.55 432.893Z" fill="#FEBEBE"/>
<path d="M1377.52 360.573C1373.37 360.187 1368.24 361.973 1364.68 360.92C1363.65 360.613 1362.77 360.173 1361.71 359.893C1359.64 359.36 1357.07 359.493 1354.59 359.64C1351.85 359.8 1349.07 359.973 1346.37 360.6C1343.89 361.173 1341.6 362.12 1339.45 363.147C1333.93 365.773 1324.08 370.893 1328.4 373.107C1331.88 374.893 1338.91 371.467 1343.8 369.813C1348.84 368.107 1353.87 365.76 1359.21 365.507C1365.09 365.227 1370.27 367.573 1376.07 366.16C1377.68 365.773 1379.16 365.107 1380.77 364.72C1384.12 363.893 1399.57 362.6 1377.52 360.573Z" fill="#F16E2B"/>
<path d="M1385.36 361.28C1390.64 359.6 1396.75 359.28 1401.4 360.467C1405.97 361.627 1408.91 364.053 1411.68 366.4C1407.81 365.373 1403.21 365.04 1398.52 365.44C1397.59 365.52 1396.6 365.627 1395.83 365.427C1394.79 365.16 1394.48 364.427 1393.97 363.827C1392.59 362.213 1389.11 361.48 1385.36 361.28Z" fill="#DF523C"/>
<path d="M1427.77 374.04C1426 372.76 1423.77 371.72 1421.21 370.973C1418.37 375.44 1422.8 379.36 1424.01 383.573C1425.09 387.333 1423.45 391.653 1419.53 395.387C1417.97 396.867 1416.07 398.28 1414.97 399.853C1413.67 401.72 1413.65 403.64 1413.15 405.547C1412.44 408.28 1410.69 411.053 1408.08 413.6C1407.27 414.387 1406.33 415.32 1406.79 416.053C1407.44 417.093 1410.33 416.787 1412.11 415.947C1415.47 414.36 1416.63 411.813 1417.51 409.533C1418.71 406.413 1419.91 403.293 1421.11 400.173C1421.64 398.787 1422.2 397.36 1423.51 396.053C1424.36 395.2 1425.52 394.44 1426.55 393.64C1435.15 387.04 1433.84 378.387 1427.77 374.04Z" fill="#E78B7C"/>
<path d="M1411.63 376.307C1409 374.173 1406.15 371.933 1401.63 371.187C1397.11 370.44 1390.44 371.92 1388.61 374.827C1387.15 377.16 1389.23 379.227 1390.31 381.32C1394.07 388.6 1382.88 398.88 1368.73 401.133C1367.03 401.4 1365.15 401.627 1363.88 402.44C1359.8 405.053 1368.41 408.253 1364.81 411.067C1363.21 412.32 1360.15 412.48 1358.05 412.013C1355.95 411.56 1354.29 410.653 1352.08 410.32C1346.67 409.48 1339.23 413.08 1339.33 416.493C1339.51 422.187 1355.21 422.347 1356.49 427.867C1357.21 430.96 1352.89 434.6 1354.08 437.6C1354.89 439.653 1358.53 440.907 1362.43 440.453C1366.32 440 1370.04 437.907 1370.97 435.653C1372.12 432.853 1369.29 430.293 1370.97 427.52C1372.89 424.347 1379.53 422.68 1385.05 422.187C1390.11 421.747 1396.85 421.013 1398.37 418.093C1400.17 414.613 1391.91 413.48 1390.25 410.4C1388.63 407.373 1395.99 403.147 1401.16 404.147C1402.73 404.453 1404.21 405.12 1406 404.747C1406.84 404.573 1407.56 404.187 1408.16 403.773C1411.75 401.253 1410.6 397.933 1412.45 394.987C1414.23 392.16 1418.73 389.787 1420.31 386.933C1421.84 384.16 1420.25 381.44 1417.36 379.613C1414.45 377.8 1410.43 376.72 1411.63 376.307Z" fill="url(#paint3_radial_101_2284)"/>
<path d="M1382.68 411.92C1381.41 410.587 1380.13 409.267 1378.87 407.933C1378.53 407.587 1378.17 407.227 1377.53 407.08C1376.44 406.827 1374.93 407.32 1374.07 407.96C1373.2 408.613 1372.81 409.387 1372.36 410.12C1371.23 411.96 1369.55 413.76 1367.44 415.387C1365.91 416.573 1364.05 417.787 1363.65 419.147C1363.01 421.307 1366.57 422.747 1370.27 422.64C1373.95 422.533 1377.64 421.36 1381.24 420.333C1384.84 419.307 1389.47 420.613 1392.2 418.84C1396.68 415.92 1384.85 414.187 1382.68 411.92Z" fill="#E7DBE0"/>
<path d="M1371.29 377.16C1368 377.387 1366.57 380.4 1365 382.24C1364.65 382.64 1364.32 383.067 1363.75 383.387C1362.61 384.013 1360.93 383.987 1359.81 383.64C1357.44 382.907 1356.75 381.013 1357.84 379.307C1358.93 377.6 1361.55 376.147 1364.4 375.333C1366.93 374.613 1369.97 374.36 1371.8 375.227C1373.63 376.093 1374.37 376.947 1371.29 377.16Z" fill="url(#paint4_radial_101_2284)"/>
<path d="M1345.76 390.92C1344.47 392.133 1342.01 393.147 1339.89 392.947C1338.6 392.827 1337.65 392.28 1337.08 391.627C1334.92 389.173 1337.4 385.733 1339.85 382.773C1341.49 380.8 1343.13 378.813 1344.77 376.84C1345.05 376.507 1345.41 376.12 1346.01 376.027C1346.37 375.96 1346.71 376.027 1347.01 376.093C1349.6 376.6 1352.49 377.507 1352.16 379.213C1351.76 381.333 1346.68 382.96 1346.39 385.08C1346.24 386.147 1347.05 389.707 1345.76 390.92Z" fill="url(#paint5_radial_101_2284)"/>
<path d="M1328.2 428.2C1330.29 429.6 1335.57 427.493 1338.15 428.6C1340.72 429.707 1341.93 431.733 1341.27 433.813C1340.87 435.053 1339.87 436.293 1339.59 437.52C1338.41 442.667 1349.6 444.973 1349.37 450.053C1340.68 450.093 1335.41 445.373 1335.08 440.373C1334.89 437.667 1335.57 434.467 1332.23 432.92C1329.75 431.76 1325.31 431.693 1324.59 429.8C1324.24 428.893 1326.08 426.787 1328.2 428.2Z" fill="#E75742"/>
<path d="M1398.4 439.96C1396.24 438.453 1393.96 436.907 1390.64 436.267C1387.32 435.627 1382.63 436.24 1380.2 438.187C1378.89 439.24 1378.45 440.493 1378.4 441.667C1378.27 445.333 1382.05 448.48 1387.77 449.467C1389.13 449.693 1390.65 449.813 1392.19 449.547C1394.36 449.16 1396.2 448.053 1397.4 446.867C1400.23 444.053 1399.56 440.76 1398.4 439.96Z" fill="#EEA755"/>
<path d="M1384.37 426.747C1386.08 425.547 1389.28 425.773 1391.67 425.8C1394.05 425.813 1396.35 426.44 1397.01 427.693C1397.43 428.467 1397.19 429.413 1397.8 430.12C1399.33 431.867 1404.8 431.08 1406.71 432.68C1407.97 433.747 1407.12 435.44 1407.77 436.72C1408.61 438.36 1411.89 439.44 1411.01 441.28C1410.29 442.787 1406.89 443.72 1404.57 443.347C1402.25 442.973 1400.96 441.68 1400.36 440.32C1399.76 438.96 1399.71 437.48 1399.08 436.133C1398.44 434.787 1397.07 433.52 1394.71 433.213C1393.45 433.04 1392.04 433.16 1390.72 433.08C1386.27 432.787 1380.64 429.387 1384.37 426.747Z" fill="#EEB3B2"/>
<path d="M1408.09 419.947C1415.8 419.693 1419.57 424.933 1419.56 429.36C1419.56 430 1419.41 430.72 1418.56 431.24C1417.16 432.093 1414.96 431.787 1413.69 431.187C1411.27 430.013 1410.17 428 1410.85 425.933C1411.07 425.28 1411.43 424.573 1410.93 424.067C1410.64 423.773 1410.11 423.6 1409.55 423.467C1406.39 422.707 1402.23 424.28 1398.73 423.933C1396.39 423.707 1399.57 420.947 1402.05 420.4C1404.55 419.827 1407 419.987 1408.09 419.947Z" fill="#FA9DA5"/>
<path d="M1413.52 439.773C1415.57 441.587 1417.31 443.627 1415.93 446.04C1414.56 448.453 1411.57 450.627 1408.41 452.56C1407.13 453.347 1405.8 454.12 1404.25 454.693C1402.64 455.293 1400.85 455.667 1399.09 455.947C1395.39 456.547 1390.72 456.533 1389.85 454.587C1388.99 452.653 1393.04 450.32 1396.73 449.973C1398.53 449.8 1400.27 449.933 1402.07 449.747C1406.61 449.267 1410.88 446.453 1410.97 443.853C1411.01 442.933 1410.59 442.04 1411.03 441.093C1411.48 440.16 1412.97 439.28 1413.52 439.773Z" fill="#FABEB5"/>
<path d="M1325.07 400.773C1318.61 407.213 1321.68 414.387 1323.12 420.893C1323.33 421.867 1323.11 423.253 1321.36 423.627C1320.65 423.773 1319.95 423.68 1319.32 423.56C1315.75 422.893 1312.25 421.173 1313.56 418.827C1314.01 418 1315.01 417.267 1315.89 416.52C1317.77 414.933 1319.28 413.12 1319.25 411.4C1319.23 409.453 1317.25 407.907 1316.96 406C1316.53 403.213 1320.73 397.92 1325.16 398.707C1327.8 399.173 1325.79 400.053 1325.07 400.773Z" fill="#F25026"/>
</g>
<defs>
<linearGradient id="paint0_linear_101_2284" x1="1079.93" y1="335.437" x2="1546.35" y2="240.372" gradientUnits="userSpaceOnUse">
<stop stop-color="#99685A"/>
<stop offset="0.3115" stop-color="#A37264"/>
<stop offset="0.845" stop-color="#BE8E80"/>
<stop offset="1" stop-color="#C79789"/>
</linearGradient>
<radialGradient id="paint1_radial_101_2284" cx="0" cy="0" r="1" gradientUnits="userSpaceOnUse" gradientTransform="translate(1371.75 405.147) rotate(79.7959) scale(71.2453 128.401)">
<stop stop-color="#DB7A62"/>
<stop offset="0.448" stop-color="#DC7C64"/>
<stop offset="0.6093" stop-color="#DE826B"/>
<stop offset="0.7243" stop-color="#E28C76"/>
<stop offset="0.8173" stop-color="#E79B87"/>
<stop offset="0.897" stop-color="#EFAF9D"/>
<stop offset="0.9662" stop-color="#F8C7B8"/>
<stop offset="1" stop-color="#FDD5C8"/>
</radialGradient>
<radialGradient id="paint2_radial_101_2284" cx="0" cy="0" r="1" gradientUnits="userSpaceOnUse" gradientTransform="translate(1371.19 406.609) rotate(79.7959) scale(49.9645 90.0479)">
<stop stop-color="#BD0002"/>
<stop offset="0.5039" stop-color="#BA0002"/>
<stop offset="0.8398" stop-color="#B10001"/>
<stop offset="1" stop-color="#AA0000"/>
</radialGradient>
<radialGradient id="paint3_radial_101_2284" cx="0" cy="0" r="1" gradientUnits="userSpaceOnUse" gradientTransform="translate(1381.56 405.293) rotate(79.7959) scale(25.9985 54.1954)">
<stop stop-color="#FFB86B"/>
<stop offset="0.1977" stop-color="#FAAD5D"/>
<stop offset="0.418" stop-color="#F6A552"/>
<stop offset="0.5102" stop-color="#F5A150"/>
<stop offset="0.6009" stop-color="#F0954A"/>
<stop offset="0.6911" stop-color="#EA8141"/>
<stop offset="0.7809" stop-color="#E06633"/>
<stop offset="0.8705" stop-color="#D34222"/>
<stop offset="0.9588" stop-color="#C4170D"/>
<stop offset="1" stop-color="#BC0002"/>
</radialGradient>
<radialGradient id="paint4_radial_101_2284" cx="0" cy="0" r="1" gradientUnits="userSpaceOnUse" gradientTransform="translate(1365.6 378.901) rotate(79.7959) scale(11.782 21.2338)">
<stop stop-color="#FECBDA"/>
<stop offset="1" stop-color="#B80001"/>
</radialGradient>
<radialGradient id="paint5_radial_101_2284" cx="0" cy="0" r="1" gradientUnits="userSpaceOnUse" gradientTransform="translate(1344.83 384.132) rotate(79.7959) scale(8.91606 13.6823)">
<stop stop-color="#FECBDA"/>
<stop offset="0.3853" stop-color="#FDC9D8"/>
<stop offset="0.5241" stop-color="#FBC3D1"/>
<stop offset="0.623" stop-color="#F8B8C5"/>
<stop offset="0.703" stop-color="#F3A8B5"/>
<stop offset="0.7716" stop-color="#EC939F"/>
<stop offset="0.8322" stop-color="#E47A83"/>
<stop offset="0.8872" stop-color="#DA5B63"/>
<stop offset="0.9376" stop-color="#CE383D"/>
<stop offset="0.9825" stop-color="#C21114"/>
<stop offset="1" stop-color="#BC0002"/>
</radialGradient>
<clipPath id="clip0_101_2284">
<rect width="2000" height="1040" fill="white"/>
</clipPath>
</defs>
</svg>
