<svg width="2000" height="1040" viewBox="0 0 2000 1040" fill="none" xmlns="http://www.w3.org/2000/svg">
<rect width="2000" height="1040" fill="#9BAFBD"/>
<path d="M1963.23 521.119C1963.03 539.559 1962.2 558.172 1957.95 576.012C1949.56 611.292 1928.55 640.972 1908.04 669.545C1900.99 679.372 1877.52 689.598 1864.78 694.825C1863.66 695.278 1862.62 695.705 1861.67 696.078L1860.23 695.638C1812.24 685.958 1764.09 677.292 1715.79 669.665C1713.49 669.292 1711.17 668.932 1708.86 668.572C1650.05 659.385 1591.02 651.705 1531.89 645.545C1531.87 645.532 1531.87 645.532 1531.86 645.545C1506.39 642.892 1480.9 640.519 1455.38 638.439C1403.22 638.065 1347.77 631.639 1291.95 620.252C1265.69 614.905 1239.33 608.465 1213.21 601.039C1211.54 601.332 1209.86 601.612 1208.18 601.879C1173.34 607.665 1137.9 611.785 1102.37 615.652C1095.81 616.359 1089.23 617.052 1082.66 617.772C1052.58 620.999 1021.9 624.185 992.393 616.932C942.673 594.612 884.66 587.892 827.38 581.372C780.82 576.052 734.274 570.772 687.714 565.452C685.847 565.239 683.967 565.025 682.1 564.812C680.9 564.785 679.727 564.772 678.54 564.772C651.434 564.692 623.754 570.079 596.66 578.025C575.994 589.399 549.154 593.812 523.421 592.705C497.674 591.625 472.354 585.465 446.794 581.812C412.127 576.839 376.914 576.439 342.168 580.625C313.141 584.932 280.581 590.305 249.608 581.772C233.754 577.412 218.755 569.519 202.715 566.199C185.741 562.679 168.128 564.385 151.208 560.679C141.235 558.492 131.101 553.665 123.781 546.252C118.648 541.065 114.915 534.612 113.595 526.919C113.155 519.119 118.981 512.252 125.661 509.705C132.328 507.172 139.608 508.039 146.608 509.145C155.875 510.625 165.075 512.519 174.195 514.799C179.541 516.132 184.848 517.612 190.115 519.225C192.941 520.092 195.755 520.999 198.568 521.932C200.008 522.425 201.755 522.772 203.261 522.599C204.061 522.505 204.795 522.265 205.381 521.825C205.901 521.465 206.288 520.932 206.541 520.225C206.888 519.199 206.781 518.225 206.341 517.359C205.728 516.105 204.475 515.052 203.075 514.252C202.288 513.812 201.448 513.465 200.675 513.199C196.035 511.652 191.381 510.119 187.488 508.759C177.941 506.785 168.275 505.599 158.581 505.252C155.741 505.159 152.901 505.132 150.101 504.625C147.408 504.132 144.781 503.225 142.208 502.239C138.475 500.839 134.795 499.305 131.141 497.625C126.515 495.505 121.461 492.545 120.168 487.199C119.688 485.239 119.808 483.159 120.061 481.145C120.448 478.185 121.181 475.212 122.568 472.639C126.261 465.746 134.075 462.665 141.288 462.999C148.501 463.345 155.341 466.519 161.635 469.079C164.275 470.385 166.901 471.692 169.528 472.999H169.541C170.195 473.319 170.848 473.652 171.501 473.972C173.435 474.932 175.395 475.905 177.501 476.265C179.221 476.545 180.955 476.399 182.688 476.332C183.675 476.292 184.675 476.265 185.661 476.265C185.661 476.265 185.661 476.265 185.675 476.265C191.928 476.265 198.181 477.145 204.235 478.852C207.155 479.679 210.075 480.692 213.075 480.479C213.195 480.465 213.341 480.452 213.461 480.425C213.621 480.385 213.781 480.319 213.888 480.172C213.941 480.119 213.981 480.065 213.995 479.999C214.128 479.759 214.101 479.505 213.941 479.265V479.252C213.875 479.119 213.781 478.985 213.648 478.879C213.368 478.585 212.981 478.345 212.635 478.225C207.848 476.705 202.981 475.492 198.061 474.612C189.355 473.052 180.515 472.505 171.808 470.999C171.475 470.945 171.155 470.892 170.821 470.812C170.821 470.812 170.821 470.812 170.808 470.812C168.581 470.412 166.355 469.932 164.141 469.345C158.061 467.745 152.168 465.399 146.901 461.705C145.595 460.799 144.315 459.786 143.355 458.439C141.995 456.519 141.435 454.066 141.021 451.666C140.661 449.546 140.368 447.399 140.581 445.252C141.075 439.972 144.528 435.426 148.768 432.986C153.021 430.532 157.955 429.959 162.728 430.226C164.141 430.306 165.568 430.466 167.048 430.826C168.101 431.079 169.181 431.426 170.315 431.919C170.168 431.786 170.021 431.626 169.875 431.479C166.901 428.212 165.781 422.972 167.208 418.599C169.088 412.786 174.715 409.399 180.221 408.386C182.115 408.039 184.021 407.919 185.928 407.972C189.501 408.039 193.075 408.706 196.715 409.639C199.488 410.359 202.288 411.226 205.115 412.106C204.741 411.986 204.395 411.772 204.128 411.506C203.795 411.212 203.541 410.839 203.328 410.426V410.412C202.661 409.066 202.528 407.172 202.621 405.546C202.795 402.719 203.235 399.812 204.608 397.412C206.715 393.706 210.661 391.839 214.501 390.852C215.181 390.679 215.861 390.532 216.541 390.412C219.634 389.812 222.794 389.599 225.941 389.546C226.434 389.532 226.928 389.532 227.434 389.532C231.421 389.519 235.434 389.706 239.354 390.532H239.368C239.488 390.559 239.634 390.586 239.754 390.612C242.594 391.239 245.368 392.212 248.234 392.772C251.754 393.466 255.368 393.532 258.941 393.719C259.168 393.732 259.381 393.746 259.608 393.759C270.981 394.386 282.301 396.239 292.834 399.546C340.314 400.906 385.781 419.412 431.914 431.892C435.167 432.772 438.434 433.612 441.727 434.306C443.354 434.639 444.967 434.932 446.607 435.172C447.581 435.306 448.541 435.426 449.514 435.519H449.527C457.047 436.292 464.567 435.959 471.527 435.586C486.381 439.586 501.447 443.586 516.727 443.199C526.407 442.959 535.981 440.959 545.661 440.839C567.394 440.559 588.594 449.786 609.354 449.479C610.62 449.466 611.887 449.412 613.154 449.332C697.767 455.559 781.007 434.079 864.54 415.772C864.58 415.759 864.607 415.759 864.647 415.746C895.5 409.012 926.407 402.679 957.433 398.332C989.046 397.506 1020.01 388.546 1051.51 385.466C1086.05 382.079 1120.61 385.826 1155.09 390.826C1155.1 390.826 1155.1 390.826 1155.11 390.826H1155.13C1169.66 392.932 1184.15 395.252 1198.65 397.359C1199.42 397.479 1200.22 397.599 1200.99 397.706C1222.03 400.732 1243.13 403.266 1264.25 405.266C1275.55 406.346 1286.86 407.292 1298.18 408.079C1332.39 410.492 1366.61 411.546 1400.66 411.292C1405.89 411.252 1411.1 411.186 1416.33 411.079C1465.5 400.586 1514.74 390.066 1562.95 375.132C1596.22 364.826 1629.03 352.412 1663.03 345.826C1679.95 342.559 1697.06 340.732 1714.17 339.092C1767 334.026 1819.99 330.666 1872.67 328.626C1876.71 329.626 1880.71 330.639 1884.75 331.652H1884.76C1893.96 333.946 1903.18 336.239 1912.38 338.546C1916.08 339.479 1919.84 340.426 1923.2 342.386C1927.87 345.106 1931.46 349.612 1934.6 354.292C1954.14 383.399 1959.34 421.132 1961.63 457.306C1962.91 478.492 1963.46 499.812 1963.23 521.119Z" fill="#728694"/>
<path d="M1178.97 476.439C1176.5 466.879 1167.9 460.492 1159.09 458.559C1150.27 456.626 1141.18 458.306 1132.33 459.986C1054.89 474.706 977.459 489.412 900.02 504.132C976.499 519.692 1054.93 488.332 1132.43 495.332C1142.03 496.199 1151.9 497.626 1161.15 494.679C1170.41 491.732 1180.58 482.692 1178.97 476.439Z" fill="#728694"/>
<path d="M1515.66 481.306C1488.09 490.852 1461.79 504.866 1437.86 522.772C1430.19 528.519 1422.23 534.865 1412.99 535.639C1403.75 536.412 1393.29 528.679 1394.19 518.479C1394.87 510.786 1401.29 505.506 1407.18 501.359C1414.03 496.519 1421.02 491.812 1428.62 488.626C1436.35 485.386 1444.55 483.799 1452.68 482.226C1466.19 479.626 1479.7 477.012 1493.2 474.412C1497.22 473.639 1501.51 472.906 1505.22 474.772C1508.92 476.639 1511.33 482.279 1515.66 481.306Z" fill="#728694"/>
<path d="M1667.9 537.665C1613.51 549.172 1559.5 562.785 1505.98 578.492C1500.9 579.985 1495.1 582.185 1493.31 587.665C1490.29 596.945 1501.21 604.159 1510.05 605.439C1546.23 610.692 1581.06 589.879 1617.23 584.559C1638.21 581.479 1659.55 583.639 1680.58 581.119C1691.57 579.799 1705.3 573.199 1704.1 561.039C1703.47 554.665 1698.63 549.852 1693.7 546.479C1682.11 538.572 1668.09 535.132 1667.9 537.665Z" fill="#728694"/>
<path d="M1324.05 596.545C1295.18 585.519 1267.33 571.292 1241.01 554.132C1223.19 542.519 1204.58 529.092 1183.93 530.065C1182.65 530.132 1181.29 530.279 1180.27 531.132C1177.23 533.705 1179.93 539.039 1182.89 541.719C1194.93 552.599 1210.35 557.439 1224.9 563.479C1259.21 577.732 1291.9 600.265 1328.51 602.105C1328.31 599.065 1326.03 596.345 1324.05 596.545Z" fill="#728694"/>
<path d="M484.261 476.426C463.435 472.372 442.715 482.532 423.555 492.452C409.755 499.586 395.968 506.732 382.168 513.866C377.715 516.172 372.795 519.039 371.368 524.266C383.688 529.639 397.395 523.346 409.395 517.159C420.488 511.439 431.568 505.719 442.661 500.012C447.768 497.372 452.928 494.719 458.408 493.279C467.395 490.906 476.995 491.839 485.701 488.426C488.381 487.372 491.195 485.572 491.888 482.519C492.635 479.186 490.341 475.746 487.488 474.372C484.648 472.972 481.408 473.146 484.261 476.426Z" fill="#728694"/>
<path d="M297.769 498.972C264.982 502.346 231.542 497.839 200.436 485.879C198.129 484.999 195.116 484.279 193.636 486.412C192.502 488.052 193.089 490.559 194.409 491.999C195.742 493.439 197.596 494.092 199.369 494.679C225.329 503.372 252.276 512.172 279.169 508.199C285.462 507.266 292.062 505.399 297.769 498.972Z" fill="#728694"/>
<path d="M215.288 539.465C209.782 537.345 204.275 535.212 198.768 533.092C197.062 532.439 195.275 531.772 193.502 532.105C189.075 532.945 187.515 539.012 187.075 543.959C186.942 545.399 186.862 546.972 187.555 548.199C188.128 549.199 189.115 549.785 190.075 550.305C197.688 554.439 206.008 556.959 214.448 557.692C216.222 557.852 218.222 557.825 219.475 556.439C220.782 554.999 220.742 552.665 220.368 550.665C219.342 545.319 216.648 539.999 215.288 539.465Z" fill="#728694"/>
<path d="M123.648 517.879C131.262 518.505 138.875 519.145 146.488 519.772C148.808 519.959 151.475 520.385 152.661 522.599C153.181 523.559 153.315 524.692 153.421 525.799C153.635 527.959 153.742 530.239 152.982 532.239C152.475 533.559 151.608 534.679 150.635 535.625C147.048 539.145 142.115 540.505 137.328 540.759C132.542 541.012 127.768 540.279 122.982 540.159C122.262 532.772 122.422 525.279 123.648 517.879Z" fill="#728694"/>
<path d="M144.248 476.052C144.288 479.119 143.715 482.266 142.208 484.839C140.702 487.412 138.128 489.319 135.368 489.426C133.795 489.492 132.248 488.986 130.755 488.439C128.928 487.786 126.955 486.906 126.102 485.012C125.435 483.559 125.595 481.826 125.822 480.212C126.195 477.532 126.715 474.879 127.382 472.266C127.702 470.972 128.128 469.599 129.142 468.866C129.915 468.306 130.875 468.239 131.782 468.212C135.035 468.079 138.515 468.252 141.208 470.306C143.888 472.332 145.248 476.879 144.248 476.052Z" fill="#728694"/>
<path d="M228.155 457.865C223.901 454.919 219.328 452.532 214.568 450.785C210.568 449.319 206.128 448.305 202.208 450.052C198.288 451.799 195.541 457.252 197.621 461.305C199.275 464.505 202.955 465.479 206.221 466.132C215.275 467.959 224.435 469.799 233.621 469.172C235.075 469.079 236.781 468.719 237.395 467.265C237.955 465.945 237.301 464.385 236.515 463.199C234.021 459.399 230.021 456.852 228.155 457.865Z" fill="#728694"/>
<path d="M250.701 434.479C246.515 432.239 242.328 429.999 238.128 427.745C234.462 425.772 230.688 423.785 226.635 423.319C224.462 423.079 222.182 423.305 220.288 424.492C218.395 425.679 216.955 427.959 217.048 430.372C217.142 432.665 218.582 434.692 220.355 435.905C222.128 437.119 224.195 437.612 226.248 438.039C233.528 439.532 240.968 440.105 248.355 439.772C249.222 439.732 250.155 439.652 250.821 439.025C251.701 438.185 251.755 436.639 251.275 435.479C250.768 434.305 249.848 433.439 250.701 434.479Z" fill="#728694"/>
<path d="M184.634 413.052C185.634 415.345 185.648 418.145 184.661 420.452C183.674 422.759 181.714 424.519 179.474 425.105C178.154 425.452 176.781 425.412 175.434 425.292C173.728 425.132 171.861 424.745 170.781 423.265C170.221 422.492 169.941 421.505 169.821 420.519C169.381 416.745 171.314 412.772 174.408 411.132C177.501 409.492 182.888 409.052 184.634 413.052Z" fill="#728694"/>
<path d="M180.326 445.265C178.3 443.572 175.633 441.799 173.393 443.119C172.353 443.732 171.673 444.905 171.06 446.025C169.846 448.212 168.606 450.465 168.286 452.999C167.86 456.252 169.393 459.985 172.233 460.932C175.326 461.959 178.62 459.319 179.873 456.025C181.126 452.732 180.846 449.025 180.326 445.265Z" fill="#728694"/>
<path d="M163.822 481.119C161.889 480.159 159.955 479.212 158.035 478.252C157.555 478.012 157.022 477.772 156.529 477.946C156.155 478.066 155.875 478.386 155.622 478.719C152.689 482.599 152.675 488.159 152.822 493.212C152.835 493.706 152.862 494.252 153.142 494.639C153.355 494.932 153.675 495.092 153.995 495.226C157.715 496.786 162.342 495.532 164.715 491.999C167.089 488.466 166.822 482.599 163.822 481.119Z" fill="#728694"/>
<path d="M315.329 415.293C307.596 415.066 299.742 414.813 292.369 412.226C287.396 410.479 282.756 407.719 277.769 405.999C268.022 402.653 257.569 403.466 247.396 404.333C246.356 406.413 248.876 408.413 250.916 409.159C269.809 416.013 289.342 420.679 309.116 423.053C311.609 423.346 314.342 423.546 316.396 421.959C318.462 420.373 318.996 415.413 315.329 415.293Z" fill="#728694"/>
<path d="M1484.33 630.772C1472.99 624.718 1460.11 623.038 1448.59 617.438C1437.07 611.838 1426.27 600.092 1427.3 586.199C1428.41 571.359 1441.79 562.012 1453.69 555.065C1480.17 539.585 1506.63 524.119 1533.11 508.639C1494.94 512.692 1457.63 526.292 1424.74 548.119C1413.62 555.505 1400.38 564.105 1388.58 558.159C1385.39 556.545 1382.66 553.972 1379.41 552.532C1372.49 549.465 1363.78 552.665 1359.87 559.692C1355.97 566.719 1357.33 576.772 1362.93 582.225C1357.02 586.172 1349.73 587.479 1342.98 585.812C1353.45 596.892 1364.25 608.212 1377.67 614.238C1386.66 618.265 1396.38 619.719 1405.98 621.132C1431.19 624.839 1456.39 628.545 1484.33 630.772Z" fill="#728694"/>
<path d="M1291.94 620.239C1265.67 614.892 1239.31 608.452 1213.19 601.025C1211.53 601.319 1209.85 601.599 1208.17 601.865C1207.83 601.652 1207.51 601.452 1207.18 601.252C1202.71 598.665 1197.67 597.625 1192.94 595.745C1183.18 591.865 1174.93 584.545 1165.91 578.852C1144.79 565.505 1120.11 561.452 1095.93 558.052C1094.82 557.879 1093.73 557.732 1092.62 557.585C1095.91 556.852 1099.22 556.345 1102.54 556.065C1122.99 554.372 1143.75 561.012 1163.03 569.425C1185.42 579.212 1207.15 591.559 1230.77 596.812C1245.93 600.212 1261.98 600.732 1275.74 608.532C1281.37 611.732 1286.62 616.145 1291.94 620.239Z" fill="#728694"/>
<path d="M1399.15 425.852C1397.29 427.852 1394.78 428.919 1392.34 429.906C1372.61 437.892 1352.31 444.159 1331.7 448.666C1330.58 448.919 1329.45 449.159 1328.31 449.386C1320.18 451.079 1311.51 452.746 1305.37 458.852C1302.66 461.506 1300.46 464.999 1297.13 466.519C1293.53 468.146 1289.45 467.132 1285.58 467.479C1275.81 468.346 1268.15 478.359 1266.31 489.026C1264.46 499.706 1267.29 510.706 1271.26 520.652C1279.47 541.252 1293.81 560.132 1313.22 566.852C1324.17 570.639 1336.01 570.346 1346.97 574.119C1352.15 575.905 1357.3 579.079 1361.22 583.279C1365.59 587.946 1368.46 593.879 1368.21 600.572C1361.1 596.545 1353.7 592.559 1346.03 589.012C1336.1 584.439 1325.71 580.626 1314.94 578.519C1308.65 577.292 1302.11 576.626 1296.38 573.506C1294.75 572.626 1293.25 571.572 1291.78 570.412L1291.77 570.399C1288.79 568.066 1286.06 565.319 1283.18 562.786L1283.17 562.772C1281.66 561.439 1280.11 560.159 1278.47 559.026C1278.14 558.799 1277.82 558.586 1277.49 558.372C1277.47 558.372 1277.47 558.372 1277.47 558.359C1272.42 555.146 1266.69 553.226 1261.06 551.172C1254.27 548.679 1247.66 545.972 1242.67 540.452C1232.71 529.426 1234.07 508.639 1245.38 499.319C1248.81 496.492 1253.13 494.386 1254.87 490.066C1258.06 482.186 1249.59 473.706 1241.81 473.906C1234.01 474.092 1227.21 479.346 1220.14 482.986C1213.07 486.599 1203.83 488.306 1198.17 482.372C1208.46 468.439 1220.5 456.106 1233.86 445.839C1247.42 435.412 1262.26 427.159 1276.59 418.386C1279.67 416.332 1282.85 414.519 1286.09 412.932C1289.99 410.999 1294.02 409.386 1298.13 408.052C1332.34 410.466 1366.55 411.519 1400.61 411.266C1402.7 416.159 1402.61 422.132 1399.15 425.852Z" fill="#728694"/>
<path d="M1371.89 574.412C1359.07 568.932 1346.95 561.452 1335.99 552.266C1331.34 548.372 1326.58 543.546 1325.85 537.132C1324.79 527.892 1332.43 520.266 1334.21 511.159C1336.55 499.052 1328.22 486.146 1332.15 474.546C1334.18 468.572 1339.54 464.172 1345.29 463.759C1351.03 463.346 1356.86 466.946 1359.57 472.572C1363.13 479.986 1361.22 488.986 1360.17 497.306C1357.51 518.279 1361.18 540.186 1370.45 558.719C1371.85 561.519 1373.41 564.412 1373.46 567.612C1373.47 570.799 1371.26 574.292 1371.89 574.412Z" fill="#728694"/>
<path d="M1102.35 615.638C1095.79 616.345 1089.22 617.038 1082.65 617.758C1052.57 620.985 1021.89 624.172 992.381 616.918C942.661 594.598 884.648 587.879 827.368 581.359C780.808 576.039 734.262 570.759 687.702 565.439C685.835 565.225 683.955 565.012 682.088 564.799C680.888 564.772 679.715 564.759 678.528 564.759C680.502 564.372 682.475 563.985 684.448 563.585C739.435 552.959 795.648 550.092 851.261 555.105C822.675 558.092 794.075 561.079 765.488 564.065C806.395 566.772 847.395 569.492 887.768 577.199C959.328 590.878 1029.87 620.265 1102.26 613.865C1102.35 614.465 1102.38 615.065 1102.35 615.638Z" fill="#728694"/>
<path d="M1264.18 405.226C1260.55 407.812 1256.81 410.146 1252.9 412.199C1252.9 412.199 1252.89 412.199 1252.87 412.199C1223.45 427.839 1187.05 429.492 1153.43 429.879C1131.42 430.132 1109.41 430.386 1087.42 430.626C1091.83 435.386 1096.25 440.146 1100.65 444.906C1060.5 456.266 1018.94 459.906 977.713 464.546C899.206 473.385 821.033 485.905 740.007 502.065C801.287 484.345 862.567 466.639 923.847 448.932C922.353 443.332 915.953 441.786 910.7 441.559C890.447 440.652 868.167 444.239 849.567 437.932C843.393 435.852 837.633 432.679 832.5 427.906C843.153 423.839 853.833 419.786 864.487 415.732C864.527 415.719 864.553 415.719 864.593 415.706C895.447 408.972 926.353 402.639 957.38 398.292C988.993 397.466 1019.95 388.506 1051.46 385.426C1085.99 382.039 1120.55 385.786 1155.03 390.786C1155.05 390.786 1155.05 390.786 1155.06 390.786H1155.07C1169.61 392.892 1184.1 395.212 1198.59 397.319C1199.37 397.439 1200.17 397.559 1200.94 397.666C1221.97 400.692 1243.06 403.226 1264.18 405.226Z" fill="#728694"/>
<path d="M687.7 565.439C685.833 565.225 683.953 565.012 682.087 564.799C680.887 564.772 679.713 564.759 678.527 564.759C651.42 564.679 623.74 570.065 596.647 578.012C575.98 589.385 549.14 593.799 523.407 592.692C497.66 591.612 472.34 585.452 446.78 581.799C412.114 576.825 376.9 576.425 342.154 580.612C313.127 584.919 280.567 590.292 249.594 581.759C233.741 577.399 218.741 569.505 202.701 566.185C185.727 562.665 168.114 564.372 151.194 560.665C141.221 558.479 131.088 553.652 123.768 546.239C157.501 561.639 198.581 554.092 234.061 567.065C242.461 570.145 250.621 574.385 259.381 575.692C264.767 576.505 270.234 576.185 275.661 575.839C310.927 573.705 346.207 571.572 379.62 567.985C402.78 563.292 426.954 558.665 449.527 566.065C461.567 570.012 472.914 577.359 485.46 578.132C499.274 578.999 512.78 571.759 526.567 572.985C535.207 573.745 543.367 577.799 551.993 578.625C562.58 579.625 572.967 575.745 583.14 572.412C602.393 566.132 622.14 561.745 642.087 559.305C656.327 557.572 671.753 557.159 684.487 563.599C685.54 564.159 686.633 564.772 687.7 565.439Z" fill="#728694"/>
<path d="M609.354 449.879C609.501 451.799 608.207 453.146 606.581 454.052C605.674 454.559 604.687 454.919 603.754 455.146C579.727 461.372 554.887 462.292 530.234 463.159C508.447 463.959 484.608 464.012 467.608 448.892C458.621 452.439 448.714 449.959 439.168 450.012C412.208 450.146 388.981 470.319 363.088 478.599C359.688 479.679 354.354 478.799 354.941 474.946C355.261 472.866 357.301 471.812 359.074 471.106C384.274 460.946 409.474 450.786 434.701 440.626C435.248 440.399 435.808 440.186 436.354 439.959C440.634 438.239 444.994 436.746 449.434 435.479H449.448C456.968 436.252 464.488 435.919 471.448 435.546C486.301 439.546 501.367 443.546 516.647 443.159C526.327 442.919 535.901 440.919 545.581 440.799C567.314 440.519 588.514 449.746 609.274 449.439C609.327 449.586 609.341 449.732 609.354 449.879Z" fill="#728694"/>
<path d="M245.555 421.266C275.955 428.226 306.648 433.559 337.501 437.239C348.021 438.493 358.915 439.506 368.928 435.759C361.448 440.879 352.875 444.053 344.115 444.973C336.915 445.733 329.661 444.973 322.448 444.226C293.501 441.213 263.208 437.666 239.102 419.679C240.635 419.293 241.622 420.359 245.555 421.266Z" fill="#728694"/>
<path d="M227.194 448.705C266.141 442.745 304.554 462.665 343.847 464.025C316.328 464.132 288.794 462.812 261.381 460.065C250.634 458.985 238.834 457.105 227.194 448.705Z" fill="#728694"/>
<path d="M213.887 479.239C213.82 479.106 213.727 478.972 213.594 478.866C222.9 477.826 232.327 479.626 241.633 480.999C258.913 483.546 276.38 484.586 293.807 484.146C268.487 494.626 239.46 493.586 213.394 480.412C213.554 480.372 213.714 480.306 213.82 480.159C213.874 480.106 213.914 480.052 213.927 479.986L213.887 479.239Z" fill="#728694"/>
<path d="M321.141 531.052C297.274 533.065 273.394 535.079 249.527 537.092C244.581 537.505 239.581 537.932 234.674 537.159C226.701 535.919 219.407 531.679 212.287 527.479C210.834 526.625 209.194 525.545 207.794 524.359C206.807 523.519 205.927 522.652 205.341 521.772C205.861 521.412 206.247 520.879 206.501 520.172C206.847 519.145 206.741 518.172 206.301 517.305C207.874 516.372 209.581 515.812 211.341 515.572C214.754 515.052 218.381 515.665 221.687 516.852C226.754 518.679 231.381 521.705 236.287 523.959C262.674 536.065 293.207 524.559 321.141 531.052Z" fill="#728694"/>
<path d="M220.448 402.079C220.781 398.852 220.341 395.412 218.635 392.785C218.035 391.852 217.288 391.065 216.475 390.372C219.568 389.772 222.728 389.559 225.875 389.505C224.355 397.199 221.701 404.639 218.048 411.399C219.088 408.372 220.115 405.292 220.448 402.079Z" fill="#728694"/>
<path d="M259.555 393.732C255.035 397.079 250.515 400.439 245.995 403.799C245.155 398.719 242.742 393.999 239.302 390.506C239.422 390.532 239.568 390.559 239.688 390.586C242.528 391.212 245.302 392.186 248.168 392.746C251.688 393.439 255.302 393.506 258.875 393.692C259.115 393.706 259.328 393.719 259.555 393.732Z" fill="#728694"/>
<path d="M196.675 409.613C196.448 409.853 196.181 410.066 195.941 410.293C194.475 411.613 193.421 413.439 192.421 415.239C189.835 419.826 187.261 424.426 184.661 429.013C184.355 424.173 188.355 420.066 188.435 415.186C188.475 412.533 187.328 410.119 185.888 407.933C189.448 408.013 193.035 408.679 196.675 409.613Z" fill="#728694"/>
<path d="M204.874 409.639C205.954 416.919 206.941 424.826 203.714 431.279C205.861 426.079 209.834 421.852 214.607 419.666C216.874 418.626 219.394 417.986 221.167 416.106C216.101 412.879 210.407 410.866 204.874 409.639Z" fill="#728694"/>
<path d="M160.142 436.079C164.208 440.879 164.248 449.199 160.222 454.039C163.128 451.306 165.862 447.853 166.288 443.653C166.702 439.466 163.795 434.706 160.142 436.079Z" fill="#728694"/>
<path d="M182.408 435.199C183.754 438.679 187.528 441.039 187.461 444.825C187.434 446.052 186.981 447.212 186.541 448.345C184.794 452.719 182.994 457.079 181.154 461.399C185.354 460.265 188.901 456.479 190.088 451.879C190.488 450.319 190.634 448.692 191.101 447.159C192.301 443.159 195.394 440.292 198.354 437.639C195.928 433.945 191.021 434.052 186.928 434.545C185.528 434.705 184.128 434.865 182.408 435.199Z" fill="#728694"/>
<path d="M170.768 470.786C168.542 470.386 166.315 469.906 164.102 469.319C165.755 468.959 167.795 469.199 169.382 469.986C169.862 470.226 170.315 470.493 170.768 470.786Z" fill="#728694"/>
<path d="M185.622 476.239C179.155 480.852 174.168 487.932 171.728 495.999C172.835 490.719 173.955 485.239 172.888 479.946C172.368 477.372 171.155 474.852 169.488 472.959C170.142 473.279 170.795 473.612 171.448 473.932C173.382 474.892 175.342 475.866 177.448 476.226C179.168 476.506 180.902 476.359 182.635 476.292C183.635 476.266 184.622 476.239 185.622 476.239Z" fill="#728694"/>
<path d="M174.394 548.705C176.38 542.399 178.407 535.945 178.447 529.265C178.474 524.092 177.1 518.679 174.167 514.772C179.514 516.105 184.82 517.585 190.087 519.199C182.9 527.372 181.82 540.692 174.394 548.705Z" fill="#728694"/>
<path d="M547.875 488.986C526.582 496.692 504.742 502.532 482.622 506.399C477.902 507.226 472.982 508.052 469.075 511.092C493.715 514.732 519.168 511.479 542.408 501.732C545.142 500.586 547.942 499.279 549.888 496.852C551.835 494.439 552.648 490.599 547.875 488.986Z" fill="#728694"/>
<path d="M1112.43 557.839C1032.95 543.105 951.754 539.879 871.527 548.252C953.554 555.412 1035.82 559.172 1112.43 557.839Z" fill="#728694"/>
<path d="M1770.64 522.399C1775.92 535.759 1777.3 551.652 1771.6 564.799C1765.82 578.172 1753.91 586.719 1742.56 594.585C1735.22 599.679 1727.87 604.772 1720.52 609.865C1716.96 612.332 1713.22 615.038 1711.54 619.305C1709.96 623.305 1710.54 627.878 1711.12 632.198C1711.91 637.945 1712.7 643.692 1713.43 649.452C1714.3 656.172 1715.1 662.905 1715.76 669.665C1713.46 669.292 1711.14 668.932 1708.83 668.572C1706.42 661.612 1703.75 654.665 1700.7 648.065C1692.43 630.198 1681.28 614.825 1664.56 608.398C1689.5 602.718 1713.28 590.852 1733.64 573.905C1742.99 566.119 1752.48 553.225 1747.36 541.559C1745.31 536.892 1741.28 533.719 1737.31 530.972C1710.52 512.465 1678.18 504.012 1646.74 507.319C1699.19 490.172 1747.96 459.425 1797.7 412.546C1785.55 440.759 1768.39 466.305 1747.46 487.279C1756.59 497.772 1765.38 509.039 1770.64 522.399Z" fill="#728694"/>
<path d="M1861.22 338.932C1791.91 358.226 1721.66 380.946 1663.53 426.972C1636.45 448.412 1610.23 475.652 1577.14 479.506C1570.85 480.239 1564.33 480.052 1558.39 477.612C1550.18 474.252 1543.85 466.972 1537.82 459.932C1532.58 453.812 1527.34 447.692 1522.1 441.572C1515.83 434.252 1509.09 424.972 1511.45 415.239C1513.02 408.772 1518.27 404.292 1523.5 400.906C1538.14 391.412 1554.81 386.612 1571.29 382.239C1664.77 357.399 1760.43 342.599 1861.22 338.932Z" fill="#728694"/>
<path d="M1864.78 694.825C1863.66 695.278 1862.62 695.705 1861.67 696.078L1860.23 695.638C1812.24 685.958 1764.08 677.292 1715.79 669.665C1713.48 669.292 1711.16 668.932 1708.86 668.572C1650.04 659.385 1591.02 651.705 1531.88 645.545C1587.71 638.399 1644.51 642.105 1700.72 648.065C1704.98 648.505 1709.22 648.985 1713.46 649.452C1714.02 649.505 1714.58 649.559 1715.14 649.639C1731.94 651.532 1748.75 653.545 1765.36 656.919C1799.96 663.892 1833.62 676.745 1864.78 694.825Z" fill="#728694"/>
<path d="M1436.05 624.238C1427.59 620.545 1419.81 614.985 1413.26 607.999C1409.41 603.879 1405.86 599.012 1404.79 593.199C1403.73 587.399 1405.25 581.385 1404.85 575.479C1404.78 574.532 1404.65 573.519 1404.07 572.812C1403.62 572.252 1402.98 571.972 1402.35 571.719C1396.69 569.479 1390.15 569.332 1384.85 572.479C1379.54 575.625 1375.87 582.412 1376.9 588.985C1377.94 595.665 1383.18 600.492 1388.34 604.132C1403.22 614.612 1420.31 620.518 1436.05 624.238Z" fill="#728694"/>
<path d="M1884.69 331.599C1874.25 334.279 1863.83 336.839 1853.45 339.239H1853.43C1853.42 339.239 1853.42 339.239 1853.41 339.239C1853.39 339.239 1853.39 339.239 1853.38 339.239C1789.75 354.079 1727.07 364.226 1664.18 372.146C1636.34 379.452 1603.06 389.332 1570.94 402.626C1556.97 408.412 1542.5 415.452 1533.74 428.839C1530.53 433.772 1527.85 439.719 1524.11 443.959C1522.18 446.159 1519.97 447.892 1517.23 448.786C1510.63 450.959 1503.81 447.159 1497.13 445.319C1483.1 441.479 1468.51 446.372 1454.26 449.026C1440.89 451.492 1427.21 451.946 1413.73 450.372C1406.81 449.572 1399.77 448.252 1393.01 450.066C1386.26 451.892 1379.82 457.906 1378.99 469.132C1372.97 469.319 1368.27 475.026 1365.47 480.919C1363.82 484.412 1362.51 488.159 1360.9 491.666C1359.78 494.092 1358.53 496.412 1356.87 498.426C1348.65 489.719 1340.29 480.772 1334.54 469.986C1333.71 468.439 1332.94 466.866 1332.23 465.239C1330.69 461.679 1329.45 457.759 1329.93 453.852C1330.17 451.986 1330.78 450.239 1331.7 448.666C1333.38 445.692 1336.09 443.292 1339.02 441.799C1343.51 439.532 1348.53 438.999 1353.43 438.492C1341.57 430.106 1326.02 435.932 1313.03 441.946C1301.02 447.519 1288.95 453.092 1277.75 460.452C1272.41 463.946 1267.18 467.879 1261.21 469.746C1255.23 471.612 1248.18 470.986 1243.74 466.199C1237.05 458.999 1239.55 445.652 1246.49 438.732C1253.42 431.812 1263.15 429.732 1272.39 428.239C1285.02 426.172 1297.73 424.732 1310.47 423.866C1318.98 423.292 1327.55 422.986 1336.01 424.239C1347.77 425.999 1361.03 430.372 1370.54 422.479C1367.79 418.146 1362.38 417.412 1357.63 417.066C1333.81 415.292 1309.94 413.519 1286.07 412.906C1283.85 412.839 1281.61 412.799 1279.38 412.759C1270.57 412.612 1261.71 412.639 1252.91 412.186C1252.91 412.186 1252.9 412.186 1252.89 412.186C1244.38 411.772 1235.89 410.932 1227.53 409.092C1217.43 406.892 1207.41 403.092 1198.59 397.306C1199.37 397.426 1200.17 397.546 1200.94 397.652C1221.98 400.679 1243.07 403.212 1264.19 405.212C1275.5 406.292 1286.81 407.239 1298.13 408.026C1332.34 410.439 1366.55 411.492 1400.61 411.239C1405.83 411.199 1411.05 411.132 1416.27 411.026C1465.45 400.532 1514.69 390.012 1562.9 375.079C1596.17 364.772 1628.98 352.359 1662.98 345.773C1679.9 342.506 1697.01 340.679 1714.11 339.039C1766.95 333.973 1819.94 330.613 1872.62 328.573C1876.65 329.573 1880.66 330.599 1884.69 331.599Z" fill="#728694"/>
<path d="M1302.35 572.545C1291.86 570.825 1281.53 567.932 1271.58 563.892C1270.02 563.265 1268.42 562.572 1267.18 561.345C1264.5 558.705 1263.97 554.105 1261.33 551.412C1258.35 548.359 1253.65 548.612 1250.18 546.292C1246.14 543.599 1244.57 538.052 1243.59 532.945C1242.41 526.705 1241.62 520.359 1241.26 513.999C1248.62 528.945 1259.57 541.332 1271.11 552.559C1278.93 560.159 1288.03 567.705 1302.35 572.545Z" fill="#728694"/>
<path d="M993.179 399.706C1008.9 401.079 1024.47 404.466 1039.51 409.746C1020.51 412.879 1001.45 415.786 982.286 417.226C961.019 418.812 939.579 418.559 918.486 422.079C906.432 424.079 894.579 427.319 882.699 430.292C871.686 433.052 860.632 435.612 849.566 437.946C787.286 451.146 724.166 457.852 663.059 458.479C644.233 457.012 625.406 455.546 606.58 454.066C580.02 451.986 553.46 449.919 526.9 447.839C496.166 445.426 465.433 443.039 434.713 440.639C428.233 440.132 421.767 439.626 415.287 439.119C385.753 436.812 355.5 434.306 328.54 420.786C345.567 423.732 362.607 426.706 379.633 429.652C398.993 433.026 418.567 436.386 438.1 434.652C439.3 434.546 440.473 434.412 441.673 434.279C443.3 434.612 444.913 434.906 446.553 435.146C447.526 435.279 448.486 435.399 449.46 435.492H449.473C456.993 436.266 464.513 435.932 471.473 435.559C486.326 439.559 501.393 443.559 516.673 443.172C526.353 442.932 535.926 440.932 545.606 440.812C567.34 440.532 588.54 449.759 609.3 449.452C610.566 449.439 611.833 449.386 613.1 449.306C697.713 455.532 780.953 434.052 864.486 415.746C864.526 415.732 864.552 415.732 864.592 415.719C895.446 408.986 926.352 402.652 957.379 398.306C988.992 397.479 1019.95 388.519 1051.46 385.439C1085.99 382.052 1120.55 385.799 1155.03 390.799C1101.03 392.426 1047.06 395.399 993.179 399.706Z" fill="#728694"/>
<path d="M204.075 411.479C204.342 411.586 204.622 411.706 204.888 411.799C208.982 413.346 213.395 414.146 217.555 414.799C218.435 414.919 219.302 415.066 220.182 415.199C225.808 416.053 231.622 416.933 236.888 419.213C237.648 419.533 238.395 419.879 239.155 420.253C239.662 420.493 240.155 420.746 240.662 420.999C242.208 421.759 243.808 422.559 245.448 423.186C248.568 424.386 251.848 424.946 254.942 425.426C254.942 425.426 248.875 423.013 245.848 421.879C244.248 421.266 242.688 420.493 241.168 419.719C240.662 419.466 240.168 419.213 239.662 418.973C238.888 418.599 238.115 418.253 237.342 417.906C231.955 415.586 226.048 414.693 220.355 413.826C219.475 413.693 218.608 413.546 217.728 413.413C213.635 412.786 209.275 411.999 205.288 410.493C204.688 410.253 204.088 409.999 203.488 409.759L203.262 410.386L204.075 411.479Z" fill="#728694"/>
<path d="M240.302 449.199C238.075 449.932 235.702 450.292 233.129 450.292C231.422 450.292 229.622 450.145 227.729 449.799C223.462 449.079 219.169 447.626 215.022 446.226C213.569 445.719 212.115 445.239 210.675 444.772C205.902 443.252 200.995 442.066 195.569 440.799L194.835 440.626C191.022 439.719 187.075 438.786 183.262 437.719C176.555 435.852 171.289 433.839 166.742 431.399L167.022 430.772C168.076 431.026 169.156 431.372 170.289 431.866C170.142 431.732 169.996 431.572 169.849 431.426C173.716 433.266 178.156 434.866 183.569 436.386C187.382 437.439 191.315 438.359 195.102 439.266L195.822 439.439C201.289 440.719 206.209 441.906 211.035 443.439C212.475 443.892 213.942 444.386 215.395 444.892C219.502 446.279 223.769 447.719 227.942 448.439C232.475 449.226 240.302 449.199 240.302 449.199Z" fill="#728694"/>
<path d="M213.886 479.239V479.252C217.606 479.559 221.352 479.425 225.046 478.839C225.592 479.879 225.139 481.319 224.272 482.052C223.406 482.785 222.246 482.972 221.152 482.945C218.712 482.892 216.299 481.879 213.926 479.999L213.886 479.239Z" fill="#728694"/>
<path d="M216.315 518.825C215.502 520.919 214.395 522.852 213.062 524.572C212.742 524.972 212.408 525.385 211.942 525.545C211.355 525.772 210.702 525.532 210.102 525.292C209.328 524.985 208.568 524.679 207.795 524.372C206.462 523.852 205.128 523.332 203.795 522.799C203.608 522.732 203.408 522.652 203.222 522.559C204.022 522.465 204.755 522.225 205.342 521.785C205.862 521.425 206.248 520.892 206.502 520.185C206.848 519.159 206.742 518.185 206.302 517.319C205.688 516.065 204.435 515.012 203.035 514.212C205.835 514.345 208.635 514.812 211.342 515.572C212.768 515.959 214.168 516.439 215.542 516.985C215.915 517.132 216.342 517.332 216.475 517.759C216.582 518.119 216.448 518.479 216.315 518.825Z" fill="#728694"/>
<path d="M1999.58 329.879V703.358L1956.27 705.118C1933.23 703.038 1910.14 701.785 1887.02 701.371C1884.48 701.318 1881.95 701.278 1879.43 701.265H1879.42C1877.96 701.251 1876.48 701.238 1875.03 701.225C1874.27 701.211 1873.54 701.198 1872.79 701.211C1869.9 701.185 1867 701.185 1864.11 701.211C1862 701.211 1859.87 701.238 1857.76 701.265C1857.75 701.265 1857.75 701.265 1857.75 701.265C1856.35 701.278 1854.98 701.291 1853.58 701.318C1851.86 701.345 1850.15 701.371 1848.42 701.425C1848.42 701.425 1848.42 701.425 1848.4 701.425C1845.75 701.478 1843.1 701.531 1840.44 701.611C1841.16 701.171 1841.87 700.705 1842.54 700.211H1842.55C1843.02 699.878 1843.48 699.545 1843.94 699.198C1844.04 699.118 1844.12 699.051 1844.23 698.958C1844.62 698.665 1844.99 698.358 1845.35 698.038C1845.63 697.798 1845.91 697.558 1846.18 697.318C1846.47 697.065 1846.74 696.798 1847.03 696.545C1847.42 696.171 1847.8 695.798 1848.18 695.411C1848.39 695.198 1848.6 694.971 1848.8 694.745C1849.16 694.371 1849.51 693.971 1849.86 693.571C1850.03 693.371 1850.2 693.171 1850.39 692.971C1850.7 692.638 1850.98 692.278 1851.26 691.918C1851.79 691.265 1852.28 690.585 1852.78 689.905C1853.08 689.491 1853.36 689.078 1853.64 688.665C1853.92 688.265 1854.19 687.865 1854.43 687.451C1854.7 687.051 1854.95 686.651 1855.19 686.238C1855.4 685.905 1855.6 685.545 1855.82 685.198C1856.59 683.865 1857.31 682.505 1857.99 681.118C1858.32 680.465 1858.63 679.785 1858.95 679.105C1859.26 678.438 1859.55 677.745 1859.84 677.051C1860 676.691 1860.16 676.305 1860.31 675.931C1861.1 673.998 1861.83 672.011 1862.5 669.985C1862.64 669.545 1862.8 669.105 1862.94 668.651C1863.3 667.518 1863.66 666.358 1863.98 665.212C1864.18 664.558 1864.36 663.878 1864.54 663.212C1864.87 661.972 1865.2 660.718 1865.51 659.478C1865.74 658.558 1865.96 657.638 1866.16 656.718C1867.19 652.225 1868.04 647.732 1868.83 643.372C1870.26 635.278 1871.68 627.158 1873.08 619.038C1873.43 616.998 1873.79 614.972 1874.12 612.945C1874.32 611.758 1874.52 610.585 1874.72 609.398C1875.06 607.505 1875.36 605.612 1875.68 603.718C1876.19 600.692 1876.68 597.665 1877.18 594.612C1877.62 591.958 1878.03 589.305 1878.46 586.652C1878.76 584.758 1879.06 582.852 1879.35 580.958C1879.76 578.265 1880.18 575.572 1880.58 572.878C1880.74 571.772 1880.91 570.678 1881.07 569.572C1881.71 565.278 1882.32 560.958 1882.92 556.665C1883.51 552.372 1884.1 548.065 1884.63 543.758C1884.82 542.332 1884.99 540.892 1885.18 539.465C1885.48 537.038 1885.76 534.612 1886.04 532.185C1886.43 528.838 1886.8 525.492 1887.15 522.132C1887.42 519.705 1887.66 517.292 1887.9 514.865C1888.06 513.172 1888.23 511.465 1888.38 509.758C1888.47 508.758 1888.56 507.732 1888.66 506.732C1888.74 505.878 1888.79 505.025 1888.87 504.172C1888.96 503.025 1889.06 501.892 1889.15 500.758C1889.24 499.732 1889.32 498.678 1889.4 497.638C1889.47 496.852 1889.52 496.065 1889.58 495.278C1889.86 491.478 1890.11 487.692 1890.32 483.892C1890.43 482.052 1890.52 480.238 1890.62 478.412C1890.76 475.465 1890.9 472.532 1890.99 469.572C1891.06 468.252 1891.1 466.919 1891.12 465.599C1891.18 464.025 1891.22 462.439 1891.24 460.879V460.812C1891.28 459.385 1891.31 457.985 1891.32 456.572C1891.36 454.479 1891.39 452.372 1891.39 450.265C1891.43 444.732 1891.38 439.185 1891.26 433.665C1891.08 426.212 1890.75 418.745 1890.26 411.279C1890.14 409.425 1890 407.599 1889.86 405.745C1889.75 404.505 1889.66 403.252 1889.54 402.012C1889.44 400.999 1889.36 399.972 1889.26 398.959C1888.92 395.559 1888.54 392.145 1888.07 388.745C1887.92 387.612 1887.75 386.479 1887.59 385.345C1887.44 384.345 1887.27 383.332 1887.11 382.332C1886.92 381.199 1886.74 380.052 1886.54 378.932C1886.52 378.825 1886.5 378.719 1886.47 378.599C1886.46 378.532 1886.44 378.479 1886.43 378.399C1886.3 377.612 1886.14 376.825 1885.99 376.052C1885.84 375.252 1885.67 374.452 1885.5 373.665C1885.39 373.159 1885.28 372.679 1885.16 372.172C1884.99 371.345 1884.8 370.519 1884.6 369.679C1884.42 368.852 1884.22 368.025 1884 367.199C1882.98 363.092 1881.78 359.052 1880.38 355.119C1880.18 354.545 1879.96 353.945 1879.74 353.372C1879.55 352.839 1879.35 352.319 1879.14 351.785C1878.91 351.185 1878.67 350.572 1878.42 349.972C1877.23 347.065 1875.92 344.239 1874.48 341.492C1874.31 341.145 1874.12 340.785 1873.94 340.439C1873.74 340.065 1873.54 339.692 1873.32 339.332C1873.15 339.012 1872.98 338.692 1872.78 338.372C1872.15 337.265 1871.5 336.185 1870.82 335.119C1869.96 333.759 1869.06 332.425 1868.11 331.119C1867.56 330.345 1867 329.599 1866.43 328.852C1866.34 328.732 1866.24 328.599 1866.14 328.479C1866.55 328.465 1866.98 328.465 1867.39 328.452C1883.18 328.132 1899 328.012 1914.88 328.065C1943.04 328.145 1971.28 328.812 1999.58 329.879Z" fill="#728694"/>
<path d="M1999.58 329.879V441.625C1998.1 440.959 1996.61 440.305 1995.1 439.692C1983.62 435.025 1971.54 432.732 1959.33 431.719C1952.73 431.172 1946.06 430.985 1939.45 431.025C1938.57 431.025 1937.7 431.025 1936.82 431.039C1936.3 431.039 1935.79 431.052 1935.27 431.052C1930.33 431.105 1925.14 431.079 1920.09 430.559C1909.62 429.492 1899.7 426.319 1893.51 417.372C1892.21 415.479 1891.14 413.399 1890.25 411.225C1890.13 409.372 1889.99 407.545 1889.85 405.692C1889.74 404.452 1889.65 403.199 1889.53 401.959C1889.43 400.945 1889.35 399.919 1889.25 398.905C1888.91 395.505 1888.53 392.092 1888.06 388.692C1887.91 387.559 1887.74 386.425 1887.58 385.292C1887.43 384.292 1887.26 383.279 1887.1 382.279C1886.91 381.145 1886.73 379.999 1886.53 378.879C1886.51 378.772 1886.49 378.665 1886.46 378.545C1886.45 378.479 1886.43 378.425 1886.42 378.345C1886.29 377.559 1886.13 376.772 1885.98 375.999C1885.83 375.199 1885.66 374.399 1885.49 373.612C1885.38 373.105 1885.27 372.625 1885.15 372.119C1884.98 371.292 1884.79 370.465 1884.59 369.625C1884.41 368.799 1884.21 367.972 1883.99 367.145C1882.97 363.039 1881.77 358.999 1880.37 355.066C1880.17 354.492 1879.95 353.892 1879.73 353.319C1879.54 352.786 1879.34 352.266 1879.13 351.732C1878.9 351.132 1878.66 350.519 1878.41 349.919C1877.22 347.012 1875.91 344.186 1874.47 341.439C1874.3 341.092 1874.11 340.732 1873.93 340.386C1873.73 340.012 1873.53 339.639 1873.31 339.279C1873.14 338.959 1872.97 338.639 1872.77 338.319C1872.14 337.212 1871.49 336.132 1870.81 335.066C1869.95 333.706 1869.05 332.372 1868.1 331.066C1867.9 330.292 1867.69 329.532 1867.49 328.759V328.746C1867.45 328.626 1867.42 328.519 1867.38 328.399C1883.17 328.079 1898.99 327.959 1914.87 328.012C1943.05 328.146 1971.29 328.812 1999.58 329.879Z" fill="#728694"/>
<path d="M1999.57 512.545V556.758C1990.68 560.012 1981.28 561.252 1974.21 555.145C1970.27 551.732 1967.85 546.585 1965.61 541.372C1964.72 539.278 1963.85 537.185 1962.89 535.172V535.145C1960.51 529.972 1957.68 525.398 1952.91 523.212C1956.28 521.532 1959.72 520.159 1963.23 519.025C1974.91 515.265 1987.28 514.092 1999.57 512.545Z" fill="#728694"/>
<path d="M1999.58 656.798V703.372L1956.27 705.132C1933.23 703.052 1910.14 701.798 1887.02 701.385C1884.49 701.332 1881.95 701.292 1879.43 701.278H1879.42C1877.97 701.265 1876.49 701.252 1875.03 701.238C1874.27 701.225 1873.54 701.212 1872.79 701.225C1869.9 701.198 1867.01 701.198 1864.11 701.225C1862.01 701.225 1859.87 701.252 1857.77 701.278C1857.75 701.278 1857.75 701.278 1857.75 701.278C1856.35 701.292 1854.98 701.305 1853.58 701.332C1853.25 700.505 1852.93 699.678 1852.59 698.838C1851.94 697.132 1851.3 695.438 1850.69 693.745C1850.58 693.492 1850.49 693.225 1850.39 692.972C1850.29 692.678 1850.18 692.398 1850.06 692.105C1850.46 692.038 1850.85 691.985 1851.26 691.918C1853.45 691.585 1855.63 691.252 1857.82 690.932H1857.83C1865.85 689.718 1873.85 688.492 1881.86 687.278C1881.89 687.278 1881.91 687.265 1881.94 687.265C1883.5 687.025 1885.06 686.798 1886.63 686.558C1887.42 686.452 1888.22 686.318 1889.01 686.212C1891.15 685.878 1893.31 685.545 1895.47 685.198C1922.11 681.052 1948.73 676.252 1974.31 667.198C1982.91 664.132 1991.33 660.638 1999.58 656.798Z" fill="#728694"/>
<path d="M1932.22 501.118C1927.58 559.118 1920.94 617.785 1900.94 671.651C1899.26 676.198 1897.44 680.758 1895.47 685.185C1892.98 690.798 1890.22 696.251 1887.02 701.385C1875.87 701.158 1864.72 701.145 1853.58 701.318C1849.2 701.385 1844.83 701.491 1840.46 701.611C1844.28 699.278 1847.56 696.345 1850.4 692.985C1850.3 692.691 1850.19 692.398 1850.07 692.105C1850.47 692.051 1850.86 691.985 1851.27 691.918C1861.58 679.025 1865.87 660.251 1868.86 643.358C1882.36 566.785 1895.44 488.972 1890.26 411.252C1890.14 409.399 1890 407.559 1889.86 405.719C1887.78 379.292 1882.99 351.705 1868.14 331.105C1867.51 330.212 1866.84 329.332 1866.16 328.479C1866.58 328.465 1867 328.465 1867.42 328.452C1883.2 328.132 1899.03 328.012 1914.91 328.065C1925.67 351.345 1931.48 377.439 1933.87 403.559C1934.71 412.719 1935.15 421.905 1935.3 431.092C1935.64 454.399 1934.08 477.825 1932.22 501.118Z" fill="#728694"/>
<path d="M1950.66 546.492C1950.46 563.145 1949.63 579.959 1945.38 596.065C1936.99 627.932 1915.98 654.732 1895.47 680.532C1888.42 689.412 1864.95 698.652 1852.21 703.358C1851.09 703.772 1850.05 704.145 1849.1 704.492L1847.66 704.092C1799.67 695.358 1751.51 687.518 1703.22 680.638C1700.91 680.305 1698.59 679.972 1696.29 679.652C1637.47 671.358 1578.45 664.412 1519.31 658.865C1519.3 658.852 1519.3 658.852 1519.29 658.865C1493.82 656.465 1468.33 654.332 1442.81 652.438C1390.65 652.105 1335.19 646.292 1279.38 636.012C1253.11 631.185 1226.75 625.358 1200.63 618.665C1198.97 618.932 1197.29 619.185 1195.61 619.425C1160.77 624.652 1125.33 628.372 1089.79 631.865C1083.23 632.505 1076.66 633.132 1070.09 633.772C1040.01 636.692 1009.33 639.572 979.822 633.012C930.102 612.852 872.089 606.785 814.809 600.892C768.249 596.092 721.702 591.318 675.142 586.505C673.276 586.318 671.396 586.118 669.529 585.932C668.329 585.905 667.156 585.892 665.969 585.892C638.862 585.812 611.182 590.678 584.089 597.865C563.423 608.132 536.583 612.118 510.849 611.132C485.103 610.145 459.783 604.598 434.223 601.292C399.556 596.798 364.343 596.438 329.596 600.225C300.57 604.105 268.01 608.958 237.036 601.252C221.183 597.318 206.183 590.185 190.143 587.185C173.17 583.998 155.557 585.545 138.637 582.198C128.663 580.225 118.53 575.865 111.21 569.172C106.077 564.479 102.343 558.665 101.023 551.719C100.583 544.679 106.41 538.465 113.09 536.172C119.757 533.879 127.037 534.665 134.037 535.665C143.303 536.999 152.503 538.705 161.623 540.772C166.97 541.985 172.277 543.305 177.543 544.772C180.37 545.545 183.183 546.372 185.997 547.212C187.437 547.652 189.183 547.972 190.69 547.812C191.49 547.719 192.223 547.505 192.81 547.105C193.33 546.772 193.717 546.305 193.97 545.665C194.317 544.732 194.21 543.852 193.77 543.079C193.157 541.945 191.903 540.985 190.503 540.279C189.717 539.879 188.877 539.559 188.103 539.319C183.463 537.919 178.81 536.545 174.917 535.305C165.37 533.519 155.703 532.452 146.01 532.132C143.17 532.039 140.33 532.025 137.53 531.572C134.837 531.132 132.21 530.305 129.637 529.425C125.903 528.159 122.223 526.772 118.57 525.265C113.943 523.359 108.89 520.679 107.597 515.852C107.117 514.079 107.237 512.212 107.49 510.385C107.877 507.705 108.61 505.025 109.997 502.705C113.69 496.479 121.503 493.692 128.717 493.999C135.93 494.319 142.77 497.185 149.063 499.492C151.703 500.679 154.33 501.852 156.957 503.039H156.97C157.623 503.332 158.277 503.625 158.93 503.919C160.863 504.785 162.823 505.665 164.93 505.999C166.65 506.252 168.383 506.119 170.117 506.065C171.103 506.025 172.103 505.999 173.09 505.999C173.09 505.999 173.09 505.999 173.103 505.999C179.357 505.999 185.61 506.785 191.663 508.332C194.583 509.079 197.503 509.985 200.503 509.799C200.623 509.785 200.77 509.772 200.89 509.745C201.05 509.705 201.21 509.639 201.317 509.519C201.37 509.465 201.41 509.412 201.423 509.372C201.557 509.159 201.53 508.932 201.37 508.705V508.692C201.303 508.572 201.21 508.452 201.077 508.359C200.797 508.092 200.41 507.879 200.063 507.772C195.277 506.399 190.41 505.305 185.49 504.505C176.783 503.092 167.943 502.612 159.237 501.239C158.903 501.185 158.583 501.132 158.25 501.079C158.25 501.079 158.25 501.079 158.237 501.079C156.01 500.719 153.783 500.292 151.57 499.759C145.49 498.319 139.597 496.185 134.33 492.852C133.023 492.039 131.743 491.119 130.783 489.892C129.423 488.159 128.863 485.945 128.45 483.772C128.09 481.865 127.797 479.919 128.01 477.972C128.503 473.212 131.957 469.092 136.197 466.892C140.45 464.679 145.383 464.159 150.157 464.399C151.57 464.479 152.997 464.612 154.477 464.945C155.53 465.172 156.61 465.492 157.743 465.932C157.597 465.812 157.45 465.665 157.303 465.532C154.33 462.572 153.21 457.852 154.637 453.905C156.517 448.652 162.143 445.599 167.65 444.679C169.543 444.359 171.45 444.252 173.357 444.305C176.93 444.372 180.503 444.972 184.143 445.812C186.917 446.465 189.717 447.239 192.543 448.039C192.17 447.932 191.823 447.732 191.557 447.492C191.223 447.225 190.97 446.892 190.757 446.505V446.492C190.09 445.279 189.957 443.559 190.05 442.092C190.223 439.545 190.663 436.919 192.037 434.745C194.143 431.399 198.09 429.719 201.93 428.825C202.61 428.679 203.29 428.532 203.97 428.425C207.063 427.879 210.223 427.692 213.37 427.652C213.863 427.639 214.357 427.639 214.863 427.639C218.85 427.625 222.863 427.785 226.783 428.545H226.797C226.917 428.572 227.063 428.599 227.183 428.625C230.023 429.185 232.796 430.065 235.663 430.572C239.183 431.199 242.796 431.265 246.37 431.425C246.596 431.439 246.81 431.452 247.036 431.465C258.41 432.025 269.73 433.705 280.263 436.692C327.743 437.919 373.21 454.625 419.343 465.905C422.596 466.692 425.863 467.465 429.156 468.079C430.783 468.385 432.396 468.639 434.036 468.852C435.009 468.972 435.969 469.079 436.943 469.172H436.956C444.476 469.879 451.996 469.572 458.956 469.239C473.809 472.852 488.876 476.465 504.156 476.119C513.836 475.905 523.409 474.092 533.089 473.985C554.823 473.732 576.023 482.065 596.782 481.785C598.049 481.772 599.316 481.719 600.582 481.652C685.196 487.265 768.435 467.879 851.969 451.345C852.009 451.332 852.035 451.332 852.075 451.319C882.929 445.239 913.835 439.519 944.862 435.599C976.475 434.852 1007.44 426.759 1038.94 423.985C1073.47 420.932 1108.03 424.319 1142.51 428.825C1142.53 428.825 1142.53 428.825 1142.54 428.825H1142.55C1157.09 430.719 1171.58 432.825 1186.07 434.719C1186.85 434.825 1187.65 434.932 1188.42 435.039C1209.46 437.772 1230.55 440.052 1251.67 441.865C1262.98 442.852 1274.29 443.705 1285.61 444.399C1319.82 446.572 1354.03 447.532 1388.09 447.305C1393.31 447.265 1398.53 447.199 1403.75 447.119C1452.93 437.639 1502.17 428.132 1550.38 414.652C1583.65 405.345 1616.46 394.132 1650.46 388.186C1667.38 385.226 1684.49 383.586 1701.59 382.106C1754.43 377.532 1807.42 374.506 1860.1 372.652C1864.14 373.559 1868.14 374.479 1872.18 375.386H1872.19C1881.39 377.466 1890.61 379.532 1899.81 381.612C1903.51 382.452 1907.27 383.306 1910.63 385.079C1915.3 387.532 1918.89 391.599 1922.03 395.825C1941.57 422.105 1946.77 456.185 1949.06 488.852C1950.34 507.999 1950.9 527.239 1950.66 546.492Z" fill="#FDD5C8"/>
<path d="M1166.4 506.132C1163.93 497.492 1155.33 491.732 1146.52 489.985C1137.7 488.239 1128.61 489.759 1119.76 491.279C1042.32 504.572 964.889 517.852 887.449 531.145C963.929 545.199 1042.36 516.879 1119.86 523.199C1129.46 523.985 1139.33 525.279 1148.58 522.612C1157.84 519.945 1168.01 511.785 1166.4 506.132Z" fill="#FEE4DB"/>
<path d="M1503.09 510.532C1475.52 519.158 1449.22 531.812 1425.29 547.985C1417.62 553.172 1409.66 558.905 1400.42 559.598C1391.18 560.292 1380.72 553.318 1381.62 544.092C1382.3 537.145 1388.72 532.372 1394.61 528.625C1401.46 524.265 1408.45 519.998 1416.05 517.132C1423.78 514.212 1431.98 512.772 1440.12 511.358C1453.62 508.998 1467.13 506.652 1480.64 504.292C1484.65 503.598 1488.94 502.932 1492.65 504.625C1496.36 506.332 1498.76 511.412 1503.09 510.532Z" fill="#FEE4DB"/>
<path d="M1655.34 561.439C1600.96 571.825 1546.94 584.119 1493.42 598.305C1488.34 599.652 1482.54 601.639 1480.76 606.599C1477.73 614.985 1488.65 621.492 1497.49 622.652C1533.68 627.385 1568.5 608.599 1604.68 603.799C1625.65 601.012 1647 602.972 1668.02 600.692C1679.01 599.505 1692.74 593.545 1691.54 582.559C1690.92 576.799 1686.08 572.452 1681.14 569.412C1669.54 562.252 1655.52 559.145 1655.34 561.439Z" fill="#FEE4DB"/>
<path d="M1311.48 614.612C1282.61 604.652 1254.76 591.799 1228.44 576.305C1210.62 565.812 1192.01 553.692 1171.36 554.572C1170.08 554.625 1168.72 554.759 1167.7 555.545C1164.66 557.865 1167.36 562.692 1170.32 565.105C1182.36 574.932 1197.78 579.305 1212.33 584.759C1246.64 597.625 1279.33 617.985 1315.94 619.639C1315.74 616.879 1313.48 614.425 1311.48 614.612Z" fill="#FEE4DB"/>
<path d="M471.69 506.132C450.863 502.465 430.143 511.652 410.983 520.599C397.183 527.039 383.397 533.492 369.597 539.932C365.144 542.012 360.224 544.612 358.797 549.319C371.117 554.172 384.823 548.492 396.823 542.905C407.917 537.745 418.997 532.585 430.09 527.412C435.197 525.025 440.357 522.639 445.837 521.332C454.823 519.185 464.423 520.025 473.13 516.945C475.81 515.999 478.623 514.372 479.317 511.612C480.063 508.599 477.77 505.492 474.917 504.252C472.077 503.012 468.837 503.159 471.69 506.132Z" fill="#FEE4DB"/>
<path d="M285.198 526.492C252.411 529.532 218.971 525.465 187.864 514.665C185.558 513.865 182.544 513.212 181.064 515.145C179.931 516.625 180.518 518.892 181.838 520.185C183.171 521.492 185.024 522.079 186.798 522.612C212.758 530.465 239.704 538.412 266.598 534.812C272.891 533.985 279.491 532.292 285.198 526.492Z" fill="#FEE4DB"/>
<path d="M202.717 563.065C197.21 561.145 191.704 559.225 186.197 557.305C184.49 556.718 182.704 556.105 180.93 556.412C176.504 557.172 174.944 562.652 174.504 567.118C174.37 568.425 174.29 569.838 174.984 570.945C175.557 571.852 176.544 572.385 177.504 572.852C185.117 576.585 193.437 578.865 201.877 579.518C203.65 579.652 205.65 579.638 206.904 578.385C208.21 577.092 208.17 574.972 207.797 573.172C206.784 568.345 204.09 563.532 202.717 563.065Z" fill="#FEE4DB"/>
<path d="M111.089 543.559C118.703 544.132 126.316 544.692 133.929 545.265C136.249 545.439 138.916 545.825 140.103 547.812C140.623 548.679 140.756 549.705 140.863 550.705C141.076 552.665 141.183 554.719 140.423 556.519C139.916 557.705 139.049 558.719 138.076 559.585C134.489 562.759 129.556 563.999 124.769 564.225C119.983 564.452 115.209 563.785 110.423 563.679C109.689 557.012 109.849 550.252 111.089 543.559Z" fill="#FEE4DB"/>
<path d="M131.677 505.786C131.717 508.559 131.144 511.399 129.637 513.719C128.13 516.039 125.557 517.759 122.797 517.865C121.224 517.919 119.677 517.466 118.184 516.986C116.357 516.399 114.384 515.599 113.53 513.892C112.864 512.572 113.024 511.012 113.25 509.559C113.624 507.132 114.144 504.746 114.81 502.386C115.13 501.226 115.557 499.972 116.57 499.319C117.344 498.826 118.304 498.759 119.21 498.719C122.464 498.599 125.944 498.759 128.637 500.599C131.317 502.439 132.677 506.546 131.677 505.786Z" fill="#FEE4DB"/>
<path d="M215.597 489.372C211.344 486.706 206.771 484.559 202.011 482.972C198.011 481.639 193.571 480.732 189.651 482.306C185.744 483.879 182.984 488.812 185.064 492.479C186.717 495.372 190.397 496.239 193.664 496.839C202.717 498.492 211.877 500.145 221.064 499.585C222.517 499.492 224.224 499.185 224.837 497.865C225.397 496.665 224.744 495.265 223.957 494.199C221.451 490.759 217.451 488.452 215.597 489.372Z" fill="#FEE4DB"/>
<path d="M238.13 468.252C233.944 466.225 229.757 464.199 225.557 462.172C221.89 460.399 218.117 458.585 214.064 458.172C211.89 457.945 209.61 458.159 207.717 459.239C205.824 460.305 204.384 462.372 204.477 464.545C204.57 466.625 206.01 468.452 207.784 469.532C209.557 470.612 211.624 471.079 213.677 471.452C220.957 472.799 228.397 473.319 235.784 473.012C236.65 472.972 237.584 472.905 238.25 472.332C239.13 471.585 239.184 470.172 238.704 469.119C238.197 468.092 237.277 467.305 238.13 468.252Z" fill="#FEE4DB"/>
<path d="M172.063 448.906C173.063 450.986 173.076 453.506 172.09 455.586C171.103 457.666 169.143 459.252 166.903 459.799C165.583 460.119 164.21 460.079 162.863 459.959C161.156 459.812 159.29 459.466 158.21 458.132C157.65 457.439 157.37 456.546 157.25 455.652C156.81 452.252 158.743 448.666 161.836 447.172C164.916 445.666 170.316 445.279 172.063 448.906Z" fill="#FEE4DB"/>
<path d="M167.755 477.999C165.728 476.465 163.062 474.865 160.822 476.065C159.782 476.625 159.102 477.679 158.488 478.692C157.275 480.665 156.035 482.705 155.715 484.999C155.288 487.945 156.822 491.305 159.662 492.159C162.755 493.079 166.048 490.705 167.302 487.732C168.555 484.759 168.288 481.385 167.755 477.999Z" fill="#FEE4DB"/>
<path d="M151.263 510.372C149.33 509.505 147.397 508.652 145.477 507.785C144.997 507.572 144.463 507.359 143.97 507.505C143.597 507.612 143.317 507.905 143.063 508.199C140.13 511.705 140.117 516.719 140.263 521.292C140.277 521.745 140.303 522.225 140.583 522.585C140.797 522.852 141.117 522.999 141.437 523.119C145.157 524.532 149.783 523.399 152.157 520.199C154.517 517.012 154.25 511.705 151.263 510.372Z" fill="#FEE4DB"/>
<path d="M302.769 450.919C295.036 450.705 287.183 450.479 279.809 448.145C274.836 446.572 270.196 444.079 265.209 442.532C255.463 439.505 245.009 440.252 234.836 441.025C233.796 442.905 236.316 444.719 238.356 445.385C257.249 451.572 276.783 455.785 296.556 457.932C299.049 458.199 301.783 458.385 303.836 456.945C305.889 455.505 306.423 451.025 302.769 450.919Z" fill="#FEE4DB"/>
<path d="M1471.76 645.519C1460.42 640.052 1447.54 638.532 1436.02 633.479C1424.5 628.425 1413.7 617.812 1414.73 605.265C1415.84 591.865 1429.22 583.425 1441.12 577.159C1467.6 563.186 1494.06 549.212 1520.54 535.239C1482.37 538.906 1445.06 551.186 1412.17 570.892C1401.05 577.559 1387.81 585.332 1376.01 579.959C1372.82 578.505 1370.09 576.172 1366.84 574.879C1359.92 572.119 1351.21 574.999 1347.3 581.345C1343.4 587.692 1344.76 596.772 1350.36 601.692C1344.45 605.252 1337.16 606.439 1330.41 604.932C1340.88 614.932 1351.68 625.159 1365.1 630.599C1374.09 634.239 1383.81 635.545 1393.41 636.825C1418.62 640.159 1443.82 643.505 1471.76 645.519Z" fill="#E0AFA1"/>
<path d="M1279.37 635.998C1253.1 631.172 1226.74 625.345 1200.62 618.652C1198.95 618.918 1197.27 619.172 1195.59 619.412C1195.26 619.225 1194.94 619.039 1194.61 618.865C1190.14 616.532 1185.1 615.585 1180.37 613.892C1170.61 610.385 1162.35 603.772 1153.34 598.625C1132.22 586.572 1107.54 582.919 1083.35 579.852C1082.25 579.705 1081.15 579.559 1080.05 579.425C1083.34 578.759 1086.65 578.305 1089.97 578.052C1110.42 576.519 1131.18 582.519 1150.46 590.119C1172.85 598.959 1194.58 610.105 1218.19 614.852C1233.35 617.918 1249.41 618.398 1263.17 625.438C1268.81 628.318 1274.06 632.305 1279.37 635.998Z" fill="#E0AFA1"/>
<path d="M1386.58 460.465C1384.71 462.279 1382.21 463.225 1379.77 464.119C1360.03 471.332 1339.74 476.985 1319.13 481.065C1318.01 481.292 1316.87 481.505 1315.74 481.719C1307.61 483.252 1298.94 484.745 1292.79 490.265C1290.09 492.665 1287.89 495.825 1284.55 497.185C1280.95 498.652 1276.87 497.732 1273.01 498.052C1263.23 498.825 1255.58 507.879 1253.74 517.505C1251.89 527.145 1254.71 537.092 1258.69 546.065C1266.9 564.665 1281.23 581.718 1300.65 587.785C1311.59 591.198 1323.43 590.945 1334.39 594.345C1339.58 595.958 1344.73 598.825 1348.65 602.612C1353.02 606.825 1355.89 612.185 1355.63 618.225C1348.53 614.598 1341.13 610.985 1333.46 607.785C1323.53 603.652 1313.14 600.212 1302.37 598.305C1296.07 597.198 1289.54 596.598 1283.81 593.785C1282.18 592.998 1280.67 592.038 1279.21 590.998L1279.19 590.985C1276.22 588.878 1273.49 586.398 1270.61 584.105L1270.59 584.092C1269.09 582.878 1267.54 581.732 1265.9 580.705C1265.57 580.505 1265.25 580.305 1264.91 580.118C1264.9 580.118 1264.9 580.119 1264.9 580.105C1259.85 577.199 1254.11 575.465 1248.49 573.625C1241.7 571.372 1235.09 568.919 1230.1 563.945C1220.14 553.985 1221.5 535.212 1232.81 526.799C1236.23 524.252 1240.55 522.345 1242.3 518.439C1245.49 511.319 1237.02 503.665 1229.23 503.839C1221.43 503.999 1214.63 508.759 1207.57 512.039C1200.5 515.305 1191.26 516.839 1185.59 511.492C1195.89 498.905 1207.93 487.772 1221.29 478.492C1234.85 469.079 1249.69 461.625 1264.02 453.705C1267.1 451.839 1270.27 450.212 1273.51 448.772C1277.42 447.025 1281.45 445.572 1285.55 444.359C1319.77 446.532 1353.98 447.492 1388.03 447.265C1390.13 451.692 1390.05 457.105 1386.58 460.465Z" fill="#E0AFA1"/>
<path d="M1359.31 594.612C1346.5 589.652 1334.38 582.905 1323.42 574.612C1318.77 571.092 1314.01 566.732 1313.28 560.946C1312.22 552.599 1319.86 545.719 1321.63 537.479C1323.98 526.546 1315.65 514.892 1319.58 504.412C1321.61 499.026 1326.97 495.052 1332.71 494.679C1338.46 494.306 1344.29 497.559 1346.99 502.639C1350.55 509.332 1348.65 517.466 1347.59 524.972C1344.94 543.919 1348.61 563.692 1357.87 580.439C1359.27 582.972 1360.83 585.572 1360.89 588.465C1360.9 591.359 1358.69 594.505 1359.31 594.612Z" fill="#E0AFA1"/>
<path d="M1089.78 631.852C1083.22 632.492 1076.65 633.119 1070.08 633.759C1040 636.679 1009.32 639.558 979.809 632.999C930.089 612.839 872.076 606.772 814.796 600.879C768.236 596.079 721.689 591.305 675.129 586.492C673.263 586.305 671.383 586.105 669.516 585.919C668.316 585.892 667.143 585.879 665.956 585.879C667.929 585.532 669.903 585.172 671.876 584.825C726.863 575.239 783.076 572.639 838.689 577.172C810.102 579.879 781.503 582.559 752.916 585.265C793.822 587.705 834.822 590.172 875.196 597.132C946.756 609.492 1017.3 636.025 1089.69 630.239C1089.8 630.799 1089.82 631.332 1089.78 631.852Z" fill="#E0AFA1"/>
<path d="M1251.61 441.825C1247.98 444.159 1244.23 446.265 1240.33 448.119C1240.33 448.119 1240.31 448.119 1240.3 448.119C1210.87 462.252 1174.47 463.732 1140.86 464.079C1118.85 464.305 1096.83 464.532 1074.85 464.759C1079.26 469.052 1083.67 473.359 1088.07 477.652C1047.93 487.905 1006.37 491.199 965.141 495.385C886.634 503.372 808.461 514.679 727.435 529.279C788.714 513.279 849.994 497.292 911.274 481.292C909.781 476.239 903.381 474.839 898.128 474.625C877.874 473.812 855.594 477.052 836.994 471.345C830.821 469.479 825.061 466.612 819.928 462.292C830.581 458.625 841.261 454.959 851.914 451.292C851.954 451.279 851.981 451.279 852.021 451.265C882.874 445.185 913.781 439.465 944.807 435.545C976.421 434.799 1007.38 426.705 1038.89 423.932C1073.42 420.879 1107.98 424.265 1142.46 428.772C1142.47 428.772 1142.47 428.772 1142.49 428.772H1142.5C1157.03 430.665 1171.53 432.772 1186.02 434.665C1186.79 434.772 1187.59 434.879 1188.37 434.985C1209.39 437.732 1230.49 440.025 1251.61 441.825Z" fill="#E0AFA1"/>
<path d="M675.129 586.518C673.262 586.332 671.382 586.132 669.515 585.945C668.315 585.918 667.142 585.905 665.955 585.905C638.849 585.825 611.169 590.692 584.075 597.878C563.409 608.145 536.569 612.132 510.836 611.145C485.089 610.158 459.769 604.612 434.209 601.305C399.542 596.812 364.329 596.452 329.583 600.238C300.556 604.118 267.996 608.972 237.023 601.265C221.169 597.332 206.169 590.198 190.129 587.198C173.156 584.012 155.543 585.558 138.623 582.212C128.65 580.238 118.516 575.879 111.196 569.185C144.93 583.092 186.009 576.279 221.489 587.985C229.889 590.758 238.049 594.598 246.809 595.785C252.196 596.518 257.663 596.225 263.089 595.918C298.356 593.998 333.636 592.065 367.049 588.825C390.209 584.585 414.382 580.398 436.956 587.092C448.996 590.665 460.342 597.292 472.889 597.985C486.702 598.758 500.209 592.225 513.996 593.332C522.636 594.025 530.796 597.678 539.422 598.425C550.009 599.332 560.395 595.825 570.569 592.825C589.822 587.158 609.569 583.198 629.515 580.985C643.755 579.412 659.182 579.052 671.915 584.852C672.982 585.358 674.062 585.905 675.129 586.518Z" fill="#E0AFA1"/>
<path d="M596.796 482.159C596.943 483.892 595.65 485.119 594.023 485.932C593.116 486.385 592.13 486.705 591.196 486.919C567.17 492.532 542.33 493.372 517.676 494.159C495.89 494.879 472.05 494.932 455.05 481.279C446.063 484.479 436.157 482.252 426.61 482.279C399.65 482.399 376.423 500.612 350.53 508.092C347.13 509.079 341.797 508.265 342.383 504.799C342.703 502.932 344.743 501.972 346.517 501.332C371.717 492.159 396.917 482.985 422.143 473.799C422.69 473.599 423.25 473.399 423.797 473.199C428.077 471.639 432.437 470.292 436.877 469.146H436.89C444.41 469.852 451.93 469.545 458.89 469.212C473.743 472.825 488.81 476.439 504.09 476.092C513.77 475.879 523.343 474.065 533.023 473.959C554.756 473.705 575.956 482.039 596.716 481.759C596.77 481.892 596.783 482.012 596.796 482.159Z" fill="#E0AFA1"/>
<path d="M232.984 456.306C263.384 462.586 294.077 467.399 324.93 470.719C335.45 471.852 346.343 472.772 356.357 469.385C348.877 474.012 340.303 476.879 331.543 477.705C324.343 478.385 317.09 477.705 309.877 477.025C280.93 474.305 250.637 471.105 226.53 454.852C228.064 454.532 229.05 455.492 232.984 456.306Z" fill="#E0AFA1"/>
<path d="M214.623 481.092C253.57 475.719 291.983 493.705 331.276 494.919C303.756 495.012 276.223 493.825 248.81 491.345C238.063 490.385 226.263 488.692 214.623 481.092Z" fill="#E0AFA1"/>
<path d="M201.316 508.665C201.249 508.545 201.156 508.425 201.022 508.332C210.329 507.385 219.756 509.025 229.062 510.252C246.342 512.559 263.809 513.492 281.235 513.092C255.916 522.559 226.889 521.612 200.822 509.719C200.982 509.679 201.142 509.612 201.249 509.492C201.302 509.439 201.342 509.385 201.356 509.345L201.316 508.665Z" fill="#E0AFA1"/>
<path d="M308.569 555.465C284.703 557.292 260.823 559.092 236.956 560.919C232.009 561.292 227.009 561.679 222.103 560.985C214.129 559.865 206.836 556.039 199.716 552.252C198.263 551.479 196.623 550.505 195.223 549.439C194.236 548.679 193.356 547.892 192.77 547.105C193.29 546.772 193.676 546.305 193.93 545.665C194.276 544.732 194.17 543.852 193.73 543.079C195.303 542.239 197.01 541.732 198.77 541.505C202.183 541.039 205.81 541.599 209.116 542.665C214.183 544.319 218.809 547.052 223.716 549.092C250.103 559.985 280.636 549.599 308.569 555.465Z" fill="#E0AFA1"/>
<path d="M207.889 438.985C208.223 436.065 207.783 432.959 206.076 430.585C205.476 429.745 204.729 429.025 203.916 428.412C207.009 427.865 210.169 427.679 213.316 427.639C211.796 434.585 209.143 441.305 205.489 447.412C206.516 444.665 207.543 441.892 207.889 438.985Z" fill="#E0AFA1"/>
<path d="M246.984 431.452C242.464 434.465 237.944 437.505 233.424 440.545C232.584 435.958 230.17 431.692 226.73 428.545C226.85 428.572 226.997 428.598 227.117 428.625C229.957 429.185 232.73 430.065 235.597 430.572C239.117 431.198 242.73 431.265 246.304 431.425C246.544 431.425 246.757 431.438 246.984 431.452Z" fill="#E0AFA1"/>
<path d="M184.103 445.785C183.877 445.999 183.61 446.199 183.37 446.399C181.903 447.599 180.85 449.239 179.85 450.865C177.263 455.012 174.69 459.159 172.09 463.305C171.783 458.932 175.783 455.225 175.863 450.825C175.903 448.425 174.757 446.252 173.317 444.279C176.89 444.345 180.463 444.945 184.103 445.785Z" fill="#E0AFA1"/>
<path d="M192.303 445.812C193.383 452.385 194.369 459.532 191.143 465.359C193.289 460.665 197.263 456.839 202.036 454.879C204.303 453.945 206.823 453.359 208.596 451.665C203.529 448.745 197.836 446.932 192.303 445.812Z" fill="#E0AFA1"/>
<path d="M147.57 469.692C151.637 474.025 151.677 481.532 147.65 485.919C150.557 483.452 153.29 480.332 153.717 476.545C154.144 472.759 151.237 468.452 147.57 469.692Z" fill="#E0AFA1"/>
<path d="M169.85 468.892C171.197 472.026 174.97 474.172 174.903 477.586C174.877 478.692 174.423 479.746 173.983 480.759C172.237 484.706 170.437 488.639 168.597 492.546C172.797 491.519 176.343 488.106 177.53 483.946C177.93 482.546 178.077 481.066 178.543 479.679C179.743 476.066 182.837 473.479 185.797 471.092C183.37 467.759 178.463 467.852 174.37 468.292C172.957 468.452 171.557 468.599 169.85 468.892Z" fill="#E0AFA1"/>
<path d="M158.197 501.039C155.97 500.679 153.744 500.252 151.53 499.719C153.184 499.385 155.224 499.612 156.81 500.319C157.29 500.532 157.744 500.772 158.197 501.039Z" fill="#E0AFA1"/>
<path d="M173.05 505.959C166.584 510.119 161.597 516.519 159.157 523.812C160.264 519.052 161.384 514.092 160.317 509.319C159.797 506.999 158.584 504.719 156.917 503.012C157.57 503.305 158.224 503.599 158.877 503.892C160.81 504.759 162.77 505.639 164.877 505.972C166.597 506.225 168.33 506.092 170.064 506.039C171.064 505.985 172.064 505.959 173.05 505.959Z" fill="#E0AFA1"/>
<path d="M161.822 571.399C163.809 565.706 165.836 559.866 165.876 553.839C165.902 549.159 164.529 544.279 161.596 540.759C166.942 541.972 172.249 543.292 177.516 544.759C170.329 552.132 169.249 564.159 161.822 571.399Z" fill="#E0AFA1"/>
<path d="M535.304 517.466C514.01 524.426 492.171 529.692 470.051 533.199C465.331 533.946 460.411 534.692 456.504 537.439C481.144 540.732 506.597 537.799 529.837 528.986C532.57 527.946 535.37 526.759 537.317 524.586C539.277 522.399 540.077 518.932 535.304 517.466Z" fill="#E0AFA1"/>
<path d="M1099.86 579.652C1020.38 566.345 939.182 563.425 858.955 570.985C940.982 577.465 1023.25 580.852 1099.86 579.652Z" fill="#E0AFA1"/>
<path d="M1758.09 547.652C1763.37 559.719 1764.74 574.079 1759.05 585.945C1753.26 598.025 1741.35 605.745 1730.01 612.852C1722.66 617.452 1715.31 622.052 1707.97 626.652C1704.41 628.878 1700.66 631.332 1698.98 635.172C1697.41 638.785 1697.98 642.918 1698.57 646.812C1699.35 651.998 1700.14 657.198 1700.87 662.398C1701.74 668.465 1702.54 674.558 1703.21 680.652C1700.9 680.318 1698.58 679.985 1696.27 679.665C1693.86 673.385 1691.19 667.105 1688.14 661.145C1679.88 644.998 1668.73 631.132 1652.01 625.318C1676.94 620.185 1700.73 609.465 1721.09 594.172C1730.43 587.145 1739.93 575.492 1734.81 564.959C1732.75 560.745 1728.73 557.879 1724.75 555.399C1697.97 538.679 1665.62 531.052 1634.18 534.039C1686.63 518.559 1735.41 490.785 1785.14 448.452C1772.99 473.932 1755.82 496.999 1734.9 515.945C1744.03 525.412 1752.82 535.572 1758.09 547.652Z" fill="#E0AFA1"/>
<path d="M1848.65 381.959C1779.34 399.385 1709.09 419.905 1650.96 461.465C1623.88 480.825 1597.66 505.425 1564.57 508.905C1558.28 509.572 1551.76 509.399 1545.82 507.199C1537.61 504.159 1531.28 497.599 1525.25 491.239C1520.01 485.705 1514.77 480.185 1509.53 474.652C1503.26 468.052 1496.52 459.665 1498.88 450.879C1500.45 445.039 1505.7 440.999 1510.93 437.932C1525.57 429.359 1542.24 425.025 1558.72 421.065C1652.21 398.639 1747.86 385.266 1848.65 381.959Z" fill="#E0AFA1"/>
<path d="M1852.21 703.358C1851.09 703.772 1850.05 704.145 1849.1 704.492L1847.66 704.092C1799.67 695.358 1751.51 687.518 1703.22 680.638C1700.91 680.305 1698.59 679.972 1696.29 679.652C1637.47 671.358 1578.45 664.412 1519.31 658.865C1575.14 652.412 1631.94 655.758 1688.15 661.145C1692.41 661.545 1696.65 661.972 1700.89 662.398C1701.45 662.452 1702.01 662.505 1702.57 662.558C1719.37 664.265 1736.18 666.092 1752.79 669.132C1787.39 675.438 1821.05 687.038 1852.21 703.358Z" fill="#E0AFA1"/>
<path d="M1423.48 639.625C1415.02 636.279 1407.24 631.265 1400.69 624.959C1396.84 621.239 1393.29 616.839 1392.22 611.599C1391.16 606.359 1392.68 600.932 1392.28 595.599C1392.21 594.745 1392.08 593.825 1391.5 593.185C1391.05 592.679 1390.41 592.425 1389.78 592.199C1384.12 590.172 1377.58 590.052 1372.28 592.879C1366.97 595.705 1363.3 601.852 1364.33 607.785C1365.37 613.825 1370.61 618.172 1375.77 621.465C1390.65 630.919 1407.74 636.265 1423.48 639.625Z" fill="#99685A"/>
<path d="M1872.11 375.332C1861.67 377.759 1851.26 380.052 1840.87 382.239H1840.86C1840.85 382.239 1840.85 382.239 1840.83 382.239C1840.82 382.239 1840.82 382.239 1840.81 382.239C1777.18 395.639 1714.5 404.799 1651.61 411.959C1623.77 418.559 1590.49 427.479 1558.37 439.492C1544.39 444.719 1529.93 451.079 1521.17 463.159C1517.95 467.612 1515.27 472.986 1511.54 476.812C1509.61 478.799 1507.39 480.372 1504.66 481.172C1498.06 483.132 1491.23 479.705 1484.55 478.039C1470.53 474.572 1455.94 478.999 1441.69 481.385C1428.31 483.612 1414.63 484.025 1401.15 482.599C1394.23 481.879 1387.19 480.692 1380.43 482.319C1373.69 483.972 1367.25 489.399 1366.42 499.545C1360.39 499.705 1355.7 504.865 1352.9 510.199C1351.25 513.359 1349.94 516.732 1348.33 519.905C1347.21 522.092 1345.95 524.185 1344.3 526.012C1336.07 518.145 1327.71 510.079 1321.97 500.332C1321.14 498.932 1320.37 497.519 1319.66 496.052C1318.11 492.839 1316.87 489.305 1317.35 485.772C1317.59 484.092 1318.21 482.505 1319.13 481.079C1320.81 478.385 1323.51 476.225 1326.45 474.879C1330.94 472.826 1335.95 472.359 1340.86 471.892C1328.99 464.319 1313.45 469.586 1300.46 475.012C1288.45 480.039 1276.38 485.079 1265.18 491.732C1259.83 494.892 1254.61 498.439 1248.63 500.132C1242.66 501.812 1235.61 501.252 1231.17 496.932C1224.47 490.439 1226.98 478.372 1233.91 472.132C1240.85 465.879 1250.58 463.999 1259.82 462.652C1272.45 460.786 1285.15 459.479 1297.9 458.706C1306.41 458.186 1314.98 457.919 1323.43 459.039C1335.19 460.626 1348.46 464.586 1357.97 457.452C1355.22 453.546 1349.81 452.879 1345.06 452.559C1321.23 450.959 1297.37 449.359 1273.5 448.799C1271.27 448.732 1269.03 448.692 1266.81 448.666C1257.99 448.532 1249.14 448.559 1240.34 448.146C1240.34 448.146 1240.33 448.146 1240.31 448.146C1231.81 447.772 1223.31 447.012 1214.95 445.359C1204.86 443.372 1194.83 439.946 1186.02 434.706C1186.79 434.812 1187.59 434.919 1188.37 435.026C1209.41 437.759 1230.5 440.039 1251.62 441.852C1262.93 442.839 1274.23 443.692 1285.55 444.386C1319.77 446.559 1353.98 447.519 1388.03 447.292C1393.26 447.252 1398.47 447.186 1403.7 447.106C1452.87 437.626 1502.11 428.119 1550.33 414.639C1583.59 405.332 1616.41 394.119 1650.41 388.172C1667.33 385.212 1684.43 383.572 1701.54 382.092C1754.38 377.519 1807.37 374.492 1860.05 372.639C1864.07 373.506 1868.09 374.426 1872.11 375.332Z" fill="#99685A"/>
<path d="M1289.78 592.932C1279.29 591.385 1268.96 588.759 1259.01 585.119C1257.45 584.545 1255.85 583.932 1254.61 582.825C1251.93 580.439 1251.4 576.292 1248.76 573.852C1245.78 571.092 1241.08 571.332 1237.61 569.225C1233.57 566.785 1232 561.785 1231.02 557.172C1229.84 551.532 1229.05 545.812 1228.69 540.065C1236.05 553.559 1247 564.745 1258.54 574.879C1266.37 581.745 1275.46 588.559 1289.78 592.932Z" fill="#99685A"/>
<path d="M980.608 436.839C996.328 438.079 1011.9 441.132 1026.94 445.905C1007.94 448.732 988.874 451.359 969.714 452.652C948.448 454.079 927.008 453.865 905.914 457.039C893.861 458.852 882.008 461.759 870.128 464.452C859.114 466.945 848.061 469.252 836.994 471.372C774.715 483.292 711.595 489.345 650.488 489.919C631.661 488.599 612.835 487.265 594.008 485.932C567.448 484.065 540.888 482.185 514.328 480.319C483.595 478.145 452.862 475.985 422.142 473.825C415.662 473.372 409.195 472.905 402.715 472.452C373.182 470.359 342.929 468.105 315.969 455.892C332.995 458.559 350.035 461.239 367.062 463.905C386.422 466.945 405.995 469.985 425.529 468.412C426.729 468.305 427.902 468.199 429.102 468.079C430.729 468.385 432.342 468.639 433.982 468.852C434.955 468.972 435.915 469.079 436.889 469.172H436.902C444.422 469.879 451.942 469.572 458.902 469.239C473.755 472.852 488.822 476.465 504.102 476.119C513.782 475.905 523.355 474.092 533.035 473.985C554.768 473.732 575.968 482.065 596.728 481.785C597.995 481.772 599.262 481.719 600.528 481.652C685.141 487.265 768.381 467.879 851.914 451.345C851.954 451.332 851.981 451.332 852.021 451.319C882.874 445.239 913.781 439.519 944.808 435.599C976.421 434.852 1007.38 426.759 1038.89 423.985C1073.42 420.932 1107.98 424.319 1142.46 428.825C1088.46 430.265 1034.5 432.959 980.608 436.839Z" fill="#99685A"/>
<path d="M191.504 447.479C191.77 447.585 192.05 447.679 192.317 447.772C196.41 449.172 200.824 449.892 204.984 450.492C205.864 450.599 206.73 450.732 207.61 450.852C213.237 451.625 219.05 452.425 224.317 454.479C225.077 454.772 225.824 455.079 226.584 455.425C227.09 455.639 227.584 455.865 228.09 456.105C229.637 456.799 231.237 457.519 232.877 458.079C235.997 459.159 239.277 459.665 242.37 460.105C242.37 460.105 236.304 457.932 233.277 456.905C231.677 456.359 230.117 455.652 228.597 454.959C228.09 454.732 227.597 454.505 227.09 454.279C226.317 453.945 225.544 453.625 224.77 453.305C219.384 451.212 213.477 450.399 207.784 449.625C206.904 449.505 206.037 449.372 205.157 449.252C201.064 448.692 196.704 447.972 192.717 446.612C192.117 446.399 191.517 446.172 190.917 445.945L190.69 446.505L191.504 447.479Z" fill="#99685A"/>
<path d="M227.729 481.545C225.503 482.212 223.129 482.532 220.556 482.532C218.849 482.532 217.049 482.399 215.156 482.092C210.889 481.439 206.596 480.132 202.449 478.865C200.996 478.412 199.543 477.972 198.103 477.559C193.33 476.185 188.423 475.119 182.996 473.972L182.25 473.825C178.436 473.012 174.49 472.172 170.676 471.199C163.97 469.519 158.703 467.692 154.156 465.492L154.436 464.932C155.49 465.159 156.57 465.479 157.703 465.919C157.556 465.799 157.41 465.652 157.263 465.519C161.13 467.172 165.57 468.625 170.983 469.999C174.796 470.959 178.73 471.785 182.516 472.599L183.236 472.745C188.703 473.905 193.623 474.972 198.449 476.359C199.889 476.772 201.356 477.212 202.809 477.665C206.916 478.919 211.183 480.212 215.356 480.865C219.916 481.559 227.729 481.545 227.729 481.545Z" fill="#99685A"/>
<path d="M201.314 508.666C205.034 508.959 208.781 508.826 212.474 508.306C213.021 509.252 212.568 510.546 211.701 511.212C210.834 511.879 209.674 512.039 208.581 512.012C206.141 511.959 203.728 511.039 201.354 509.346L201.314 508.666Z" fill="#99685A"/>
<path d="M203.744 544.412C202.93 546.292 201.824 548.039 200.491 549.599C200.171 549.959 199.837 550.332 199.371 550.479C198.784 550.679 198.131 550.465 197.531 550.252C196.757 549.972 195.997 549.705 195.224 549.425C193.891 548.959 192.557 548.479 191.224 547.999C191.037 547.932 190.837 547.865 190.651 547.785C191.451 547.692 192.184 547.479 192.771 547.079C193.291 546.745 193.677 546.279 193.931 545.639C194.277 544.705 194.171 543.825 193.731 543.052C193.117 541.919 191.864 540.959 190.464 540.252C193.264 540.372 196.064 540.799 198.771 541.479C200.197 541.825 201.597 542.252 202.97 542.759C203.344 542.892 203.771 543.079 203.904 543.465C204.011 543.785 203.89 544.119 203.744 544.412Z" fill="#99685A"/>
<path d="M1999.58 374.226V710.612L1943.7 712.665C1920.66 710.798 1897.57 709.665 1874.45 709.278C1863.3 709.078 1852.15 709.065 1841.01 709.212C1836.63 709.278 1832.26 709.358 1827.89 709.478C1829.69 708.492 1831.35 707.385 1832.93 706.158C1833.11 706.025 1833.3 705.865 1833.47 705.718C1834.06 705.252 1834.63 704.772 1835.18 704.265C1835.47 704.012 1835.74 703.745 1836.02 703.492C1836.15 703.372 1836.31 703.225 1836.45 703.092C1836.73 702.812 1837.01 702.532 1837.29 702.238C1837.47 702.065 1837.63 701.892 1837.82 701.692C1838.13 701.372 1838.41 701.065 1838.69 700.732C1839.53 699.785 1840.33 698.812 1841.07 697.785C1841.71 696.945 1842.33 696.078 1842.91 695.185C1843.21 694.745 1843.47 694.318 1843.74 693.878C1844.03 693.425 1844.3 692.972 1844.55 692.505C1845.19 691.425 1845.79 690.305 1846.38 689.172C1846.66 688.612 1846.93 688.038 1847.21 687.465C1847.49 686.892 1847.75 686.305 1847.99 685.718C1848.77 684.012 1849.45 682.265 1850.09 680.492C1850.22 680.132 1850.35 679.758 1850.46 679.412C1851.13 677.545 1851.73 675.638 1852.29 673.745C1852.51 672.985 1852.73 672.225 1852.93 671.465C1853.69 668.718 1854.34 665.958 1854.94 663.225C1855.18 662.158 1855.41 661.092 1855.62 660.038C1855.85 658.985 1856.06 657.932 1856.26 656.878C1869.77 587.732 1882.85 517.452 1877.66 447.265C1877.54 445.599 1877.41 443.932 1877.26 442.265C1877.07 440.132 1876.87 437.985 1876.63 435.812C1876.57 435.159 1876.5 434.505 1876.41 433.852C1876.25 432.439 1876.07 431.039 1875.87 429.625C1875.78 428.919 1875.69 428.212 1875.57 427.519C1875.46 426.825 1875.37 426.119 1875.25 425.425C1875.14 424.719 1875.02 424.012 1874.91 423.332C1874.38 420.159 1873.77 417.025 1873.05 413.892C1872.94 413.425 1872.83 412.959 1872.71 412.492C1872.61 411.972 1872.47 411.479 1872.34 410.959C1872.18 410.305 1872.01 409.665 1871.83 409.012C1871.25 406.745 1870.58 404.506 1869.85 402.319C1869.62 401.612 1869.39 400.932 1869.14 400.239C1868.95 399.692 1868.77 399.159 1868.57 398.612C1868.41 398.146 1868.23 397.705 1868.05 397.239C1867.25 395.145 1866.38 393.079 1865.43 391.066C1865.14 390.439 1864.85 389.812 1864.54 389.199C1864.23 388.599 1863.94 387.999 1863.62 387.399C1863.26 386.692 1862.87 385.986 1862.49 385.306C1862.15 384.746 1861.85 384.172 1861.5 383.612C1860.47 381.866 1859.38 380.172 1858.21 378.492C1857.35 377.279 1856.45 376.066 1855.5 374.879C1854.95 374.186 1854.39 373.506 1853.82 372.839C1853.71 372.732 1853.63 372.612 1853.53 372.506C1853.94 372.492 1854.37 372.492 1854.78 372.479C1860.41 372.372 1866.03 372.292 1871.67 372.239C1873.62 372.212 1875.57 372.199 1877.53 372.186C1880.05 372.159 1882.58 372.146 1885.11 372.132C1890.82 372.106 1896.54 372.106 1902.26 372.119C1911.21 372.159 1920.18 372.226 1929.17 372.359C1934.29 372.439 1939.41 372.519 1944.54 372.626C1962.9 372.986 1981.23 373.532 1999.58 374.226Z" fill="#AECCD1"/>
<path d="M1999.58 374.226V479.959C1993.87 477.705 1988.27 475.065 1982.54 472.959C1975.91 470.532 1969.1 468.812 1962.17 467.612C1957.09 466.732 1951.96 466.145 1946.77 465.745C1942.73 465.439 1938.69 465.265 1934.64 465.185C1931.17 465.119 1927.72 465.105 1924.26 465.145C1923.74 465.145 1923.24 465.159 1922.72 465.159C1912.09 465.265 1900.44 465.052 1891.26 460.839C1887.26 459.012 1883.73 456.439 1880.96 452.812C1879.65 451.105 1878.58 449.225 1877.69 447.265C1877.57 445.599 1877.44 443.932 1877.29 442.265C1877.1 440.132 1876.9 437.985 1876.66 435.812C1876.6 435.159 1876.53 434.505 1876.44 433.852C1876.28 432.439 1876.1 431.039 1875.9 429.625C1875.81 428.919 1875.72 428.212 1875.6 427.519C1875.49 426.825 1875.4 426.119 1875.28 425.425C1875.17 424.719 1875.05 424.012 1874.94 423.332C1874.41 420.159 1873.8 417.025 1873.08 413.892C1872.97 413.425 1872.86 412.959 1872.74 412.492C1872.64 411.972 1872.5 411.479 1872.37 410.959C1872.21 410.305 1872.04 409.665 1871.86 409.012C1871.28 406.745 1870.61 404.506 1869.88 402.319C1869.65 401.612 1869.42 400.932 1869.17 400.239C1868.98 399.692 1868.8 399.159 1868.6 398.612C1868.44 398.146 1868.26 397.705 1868.08 397.239C1867.28 395.145 1866.41 393.079 1865.46 391.066C1865.17 390.439 1864.88 389.812 1864.57 389.199C1864.26 388.599 1863.97 387.999 1863.65 387.399C1863.29 386.692 1862.9 385.986 1862.52 385.306C1862.18 384.746 1861.88 384.172 1861.53 383.612C1860.5 381.866 1859.41 380.172 1858.24 378.492C1857.38 377.279 1856.48 376.066 1855.53 374.879C1855.33 374.186 1855.12 373.492 1854.92 372.799C1854.88 372.692 1854.85 372.586 1854.81 372.466C1860.44 372.359 1866.06 372.279 1871.7 372.226C1873.65 372.199 1875.6 372.186 1877.56 372.172C1880.08 372.146 1882.61 372.132 1885.14 372.119C1890.85 372.092 1896.57 372.092 1902.29 372.106C1911.24 372.146 1920.21 372.212 1929.2 372.346C1934.32 372.426 1939.44 372.506 1944.57 372.612C1962.9 372.986 1981.23 373.532 1999.58 374.226Z" fill="#7A9CA1"/>
<path d="M1999.58 537.092V573.558C1998.4 574.092 1997.24 574.598 1996.07 575.118C1984.99 580.025 1971.2 584.665 1961.64 577.225C1960.43 576.278 1959.35 575.172 1958.4 573.985C1954.98 569.718 1952.9 564.158 1950.34 559.185V559.158C1947.95 554.478 1945.12 550.358 1940.35 548.385C1943.72 546.865 1947.16 545.638 1950.67 544.612C1954.58 543.465 1958.56 542.585 1962.6 541.865C1963.6 541.692 1964.62 541.532 1965.62 541.358C1976.83 539.598 1988.34 538.878 1999.58 537.092Z" fill="#7A9CA1"/>
<path d="M1999.58 663.398V710.612L1943.7 712.665C1920.66 710.798 1897.57 709.665 1874.45 709.278C1863.3 709.078 1852.15 709.065 1841.01 709.212C1839.99 706.918 1839.03 704.638 1838.1 702.372C1838.01 702.145 1837.91 701.905 1837.82 701.678C1837.71 701.412 1837.61 701.145 1837.49 700.892C1837.89 700.838 1838.27 700.785 1838.69 700.732C1839.98 700.558 1841.25 700.385 1842.54 700.198H1842.55C1843.46 700.078 1844.34 699.945 1845.25 699.825H1845.26C1847.7 699.492 1850.15 699.158 1852.59 698.825C1858.17 698.065 1863.73 697.305 1869.29 696.532C1869.31 696.532 1869.34 696.518 1869.37 696.518C1873.87 695.905 1878.38 695.305 1882.89 694.652C1885.77 694.252 1888.63 693.838 1891.51 693.425H1891.53C1915.26 689.932 1938.9 685.692 1961.73 678.398C1974.74 674.252 1987.31 669.172 1999.58 663.398Z" fill="#7A9CA1"/>
<path d="M1919.65 528.425C1915.01 580.798 1908.37 633.785 1888.37 682.438C1886.69 686.545 1884.87 690.665 1882.9 694.651C1880.41 699.718 1877.65 704.638 1874.45 709.278C1863.3 709.078 1852.15 709.065 1841.01 709.211C1836.63 709.278 1832.26 709.358 1827.89 709.478C1831.71 707.371 1834.99 704.731 1837.83 701.678C1837.73 701.411 1837.62 701.145 1837.5 700.891C1837.9 700.838 1838.29 700.785 1838.7 700.731C1849.01 689.091 1853.3 672.131 1856.29 656.878C1869.79 587.732 1882.87 517.452 1877.69 447.265C1877.57 445.599 1877.43 443.932 1877.29 442.265C1875.21 418.399 1870.42 393.479 1855.57 374.879C1854.94 374.079 1854.27 373.279 1853.59 372.505C1854.01 372.492 1854.43 372.492 1854.85 372.479C1870.63 372.185 1886.46 372.079 1902.34 372.132C1913.1 393.159 1918.91 416.719 1921.3 440.319C1922.14 448.585 1922.58 456.892 1922.73 465.185C1923.07 486.238 1921.51 507.398 1919.65 528.425Z" fill="#495B5E"/>
<path d="M971.059 477.438C973.259 482.998 971.285 489.278 968.832 494.732C966.379 500.185 963.379 505.705 963.552 511.678C963.699 516.958 966.325 521.838 969.219 526.252C972.992 531.998 977.339 537.372 982.179 542.252C984.139 544.225 986.259 546.172 988.872 547.132C991.352 548.038 994.045 547.972 996.659 548.332C1000.69 548.878 1004.49 550.425 1008.41 551.478C1013.13 552.745 1017.99 553.292 1022.85 553.825C1032.54 554.905 1042.23 555.985 1051.93 557.065C1055.87 557.505 1059.85 557.945 1063.81 557.825C1070.06 557.625 1076.27 555.998 1081.82 553.118C1090.91 548.372 1097.91 540.505 1104.7 532.812C1109.34 527.545 1113.98 522.292 1118.62 517.025C1121.25 514.052 1123.94 510.958 1125.18 507.198C1126.21 504.092 1126.17 500.745 1126.13 497.465C1125.98 487.612 1125.85 477.745 1125.7 467.892C1125.67 466.278 1125.65 464.612 1124.94 463.158C1122.14 457.358 1112.86 460.132 1107.53 456.518C1106.02 455.505 1104.9 453.998 1103.39 452.998C1097.87 449.385 1090.89 453.918 1084.45 455.385C1077.58 456.945 1070.47 454.798 1063.75 452.665C1057.34 450.638 1050.94 448.598 1044.53 446.572C1033.59 443.105 1021.67 439.638 1010.89 443.558C1000.57 447.305 992.925 457.345 982.085 459.012C979.219 459.452 975.859 459.478 974.125 461.798C973.272 462.932 973.032 464.398 972.805 465.798C972.032 470.692 970.365 475.692 971.059 477.438Z" fill="url(#paint0_radial_102_2891)"/>
<path d="M976.458 491.371C975.444 493.785 974.978 496.385 974.604 498.985C973.671 505.638 973.324 512.545 975.244 518.985C977.164 525.425 981.644 531.398 987.964 533.691C989.964 534.411 992.111 534.771 993.964 535.811C995.538 536.705 996.804 538.051 998.284 539.118C1000.24 540.531 1002.54 541.425 1004.79 542.278C1016.68 546.771 1028.94 550.771 1041.62 551.771C1050.64 552.491 1059.79 551.665 1068.54 549.331C1070.18 548.891 1071.83 548.398 1073.28 547.531C1074.79 546.625 1076.04 545.358 1077.35 544.198C1085.96 536.491 1097.96 532.318 1104.16 522.571C1106.24 519.305 1107.52 515.585 1109.64 512.345C1113.96 505.705 1121.8 500.678 1122.43 492.785C1122.68 489.571 1121.64 486.425 1120.62 483.371C1119.56 480.251 1118.51 477.145 1117.46 474.025C1116.78 471.998 1116.07 469.945 1114.91 468.145C1111.82 463.345 1105.87 461.118 1100.19 460.612C1094.51 460.105 1088.79 461.025 1083.08 461.011C1075.79 460.998 1068.52 459.438 1061.87 456.465C1056.31 453.985 1050.96 450.465 1044.88 450.012C1040.11 449.652 1034.88 451.171 1030.76 448.745C1029 447.705 1027.66 446.052 1025.84 445.105C1020.52 442.358 1014.56 446.812 1009.48 449.985C1004.44 453.132 998.791 455.185 993.804 458.398C988.818 461.612 984.338 466.438 983.698 472.331C984.951 474.065 979.084 485.158 976.458 491.371Z" fill="#E09F89"/>
<path d="M981.39 489.291C981.39 489.291 992.964 462.012 1005.36 455.038C1014.84 449.705 1026.52 449.438 1037.11 451.958C1047.7 454.492 1057.46 459.585 1067.14 464.585C1071.36 466.772 1075.7 468.985 1080.42 469.678C1085.96 470.492 1091.56 469.158 1097.14 468.665C1102.71 468.172 1108.87 468.732 1112.96 472.558C1116.91 476.252 1117.96 482.238 1117 487.558C1116.04 492.878 1113.36 497.691 1110.71 502.411C1101.9 518.131 1091.66 535.065 1074.64 540.971C1069.88 542.625 1064.82 543.305 1060.15 545.171C1057.27 546.331 1054.59 547.918 1051.66 548.918C1045.96 550.851 1039.76 550.411 1033.78 549.931C1030.23 549.651 1026.43 549.278 1023.7 546.998C1022.11 545.678 1021.03 543.825 1019.44 542.518C1016.75 540.305 1013.04 539.958 1009.64 539.185C1004.51 538.025 999.71 535.718 994.977 533.425C989.524 530.771 983.897 527.945 980.177 523.171C973.964 515.198 974.644 503.518 979.031 494.398C980.337 491.692 981.39 489.291 981.39 489.291Z" fill="url(#paint1_radial_102_2891)"/>
<path d="M1001.58 459.439C1005.59 456.839 1011.5 452.865 1016.45 449.572C1017.31 448.999 1018.23 448.412 1019.27 448.412C1020.31 448.412 1021.41 449.319 1021.19 450.332C1021.07 450.945 1020.54 451.372 1020.05 451.759C1018.91 452.639 1017.78 453.519 1016.66 454.385C1014.13 456.345 1011.59 458.319 1009.06 460.279C1007.26 461.665 1005.45 463.079 1003.33 463.919C1001.21 464.759 997.605 466.052 996.712 463.959C995.512 461.145 1000.86 459.905 1001.58 459.439Z" fill="#F6DCDD"/>
<path d="M985.432 492.945C983.485 497.145 982.672 505.585 978.125 504.718C976.152 504.345 977.659 500.678 978.472 498.838C980.125 495.145 984.365 492.798 985.099 488.825C985.552 486.438 984.672 482.439 987.085 482.145C987.592 482.092 987.192 489.132 985.432 492.945Z" fill="#E39D9D"/>
<path d="M980.844 513.732C981.991 518.038 983.764 522.798 987.871 524.532C989.031 525.025 990.324 525.238 991.377 525.945C992.417 526.652 993.204 528.212 992.417 529.198C991.351 530.518 989.271 530.572 987.697 529.972C986.124 529.372 984.857 528.145 983.724 526.892C980.324 523.092 975.031 516.865 978.457 513.078C979.137 512.318 980.657 513.012 980.844 513.732Z" fill="#FDACAE"/>
<path d="M1031.63 546.318C1029.69 542.758 1024.79 542.558 1021.01 541.105C1015.78 539.092 1011.98 534.092 1006.55 532.718C1005.59 532.478 1004.49 532.385 1003.73 532.998C1002.95 533.612 1020.7 546.292 1031.63 546.318Z" fill="#E2A094"/>
<path d="M1063.9 546.731C1065.13 545.745 1067.03 546.825 1068.58 547.065C1070.13 547.305 1071.78 547.451 1073.23 546.865C1074.7 546.278 1075.9 544.771 1075.62 543.225C1075.34 541.678 1073.14 540.705 1072.06 541.851C1075.14 540.491 1078.21 539.131 1081.29 537.771C1082.01 537.451 1082.87 536.705 1082.41 536.051C1082.29 535.878 1082.09 535.771 1081.89 535.678C1079.05 534.425 1075.78 535.731 1072.95 537.011C1070.5 538.131 1068.05 539.251 1065.61 540.358C1064.41 540.905 1063.17 541.478 1062.25 542.425C1061.33 543.371 1060.78 544.811 1061.23 546.051C1061.7 547.305 1062.81 547.611 1063.9 546.731Z" fill="#FEBEBE"/>
<path d="M991.992 490.438C990.632 493.172 991.672 496.825 989.618 499.092C989.018 499.745 988.298 500.278 987.738 500.958C986.645 502.278 986.258 504.025 985.885 505.692C985.485 507.545 985.085 509.425 985.258 511.318C985.418 513.052 986.058 514.705 986.832 516.265C988.805 520.278 992.845 527.492 996.458 524.865C999.378 522.745 996.765 517.625 995.818 514.145C994.845 510.558 993.112 506.905 993.965 503.292C994.898 499.318 998.858 496.132 998.405 492.078C998.285 490.945 997.805 489.878 997.685 488.758C997.432 486.412 999.232 475.905 991.992 490.438Z" fill="#F16E2B"/>
<path d="M994.539 485.278C993.646 481.532 994.606 477.398 997.046 474.438C999.446 471.518 1003.01 469.838 1006.45 468.265C1004.37 470.732 1002.95 473.772 1002.43 476.972C1002.33 477.612 1002.25 478.278 1001.83 478.772C1001.27 479.438 1000.33 479.558 999.499 479.825C997.246 480.545 995.606 482.785 994.539 485.278Z" fill="#DF523C"/>
<path d="M1019.16 458.399C1017.24 459.439 1015.5 460.799 1014.04 462.425C1018.82 464.865 1024.51 462.372 1029.87 462.065C1034.64 461.799 1039.51 463.412 1043.16 466.492C1044.62 467.719 1045.9 469.159 1047.56 470.092C1049.54 471.185 1051.86 471.439 1054.04 471.999C1057.19 472.812 1060.15 474.305 1062.67 476.372C1063.46 477.012 1064.36 477.758 1065.35 477.532C1066.75 477.212 1067 475.239 1066.38 473.959C1065.19 471.519 1062.36 470.439 1059.8 469.572C1056.3 468.385 1052.79 467.212 1049.28 466.025C1047.72 465.492 1046.12 464.959 1044.83 463.919C1043.99 463.239 1043.31 462.385 1042.58 461.585C1036.47 455.012 1025.75 454.852 1019.16 458.399Z" fill="#E78B7C"/>
<path d="M1018.4 469.478C1015.24 470.985 1011.94 472.625 1010.04 475.558C1008.15 478.492 1008.5 483.145 1011.6 484.718C1014.1 485.985 1017.06 484.838 1019.8 484.372C1029.42 482.732 1039.39 491.465 1039.04 501.212C1039 502.385 1038.87 503.678 1039.56 504.625C1041.83 507.678 1047.58 502.292 1050.19 505.038C1051.35 506.265 1050.88 508.332 1049.87 509.692C1048.86 511.052 1047.42 512.052 1046.52 513.492C1044.34 517.025 1047.06 522.438 1051.2 522.785C1058.12 523.358 1061.74 512.852 1068.67 512.665C1072.56 512.558 1076.03 515.892 1079.9 515.465C1082.55 515.172 1084.86 512.878 1085.16 510.225C1085.47 507.572 1083.75 504.812 1081.23 503.918C1078.1 502.812 1074.39 504.398 1071.4 502.945C1067.99 501.278 1067.42 496.625 1068.03 492.865C1068.59 489.425 1069.19 484.812 1065.98 483.438C1062.18 481.812 1058.99 487.212 1054.92 487.945C1050.91 488.665 1047.42 483.225 1049.75 479.878C1050.46 478.865 1051.59 477.945 1051.52 476.705C1051.5 476.118 1051.19 475.585 1050.82 475.145C1048.55 472.438 1044.3 472.798 1041.15 471.212C1038.11 469.678 1036.23 466.385 1033.14 464.972C1030.12 463.612 1026.5 464.345 1023.66 466.065C1020.82 467.772 1018.63 470.345 1018.4 469.478Z" fill="url(#paint2_radial_102_2891)"/>
<path d="M1055.12 493.172C1053.24 493.865 1051.36 494.558 1049.48 495.252C1048.99 495.425 1048.48 495.625 1048.16 496.038C1047.62 496.745 1047.88 497.812 1048.48 498.465C1049.08 499.118 1049.92 499.478 1050.72 499.865C1052.71 500.852 1054.51 502.185 1056.02 503.798C1057.12 504.972 1058.18 506.358 1059.74 506.785C1062.22 507.478 1064.71 505.265 1065.39 502.785C1066.07 500.305 1065.44 497.692 1064.99 495.158C1064.54 492.625 1067.11 489.678 1065.56 487.638C1062.99 484.278 1058.32 491.998 1055.12 493.172Z" fill="#E7DBE0"/>
<path d="M1010.66 496.625C1010.22 498.851 1013.54 500.171 1015.43 501.451C1015.85 501.731 1016.29 502.011 1016.54 502.425C1017.05 503.265 1016.66 504.385 1015.99 505.091C1014.59 506.585 1012.15 506.825 1010.33 505.891C1008.5 504.958 1007.31 503.025 1006.95 501.011C1006.63 499.225 1006.99 497.158 1008.43 496.038C1009.86 494.931 1011.09 494.531 1010.66 496.625Z" fill="url(#paint3_radial_102_2891)"/>
<path d="M1021.74 515.385C1022.92 516.398 1023.61 518.171 1022.91 519.558C1022.49 520.411 1021.62 520.971 1020.71 521.278C1017.27 522.438 1013.66 520.345 1010.63 518.358C1008.6 517.025 1006.56 515.678 1004.54 514.345C1004.19 514.118 1003.82 513.825 1003.82 513.411C1003.82 513.171 1003.97 512.945 1004.11 512.745C1005.29 511.078 1007.01 509.238 1009.01 509.665C1011.47 510.185 1012.34 513.798 1014.83 514.238C1016.07 514.478 1020.55 514.371 1021.74 515.385Z" fill="url(#paint4_radial_102_2891)"/>
<path d="M1062.94 531.652C1065.09 530.412 1063.69 526.625 1065.58 525.025C1067.47 523.438 1070.18 522.865 1072.55 523.558C1073.97 523.972 1075.23 524.798 1076.67 525.132C1082.63 526.545 1087.86 519.318 1093.93 520.092C1092.09 525.918 1085.23 528.878 1079.13 528.505C1075.82 528.305 1072.11 527.465 1069.51 529.518C1067.58 531.038 1066.53 534.012 1064.09 534.252C1062.91 534.385 1060.78 532.892 1062.94 531.652Z" fill="#E75742"/>
<path d="M1092.4 486.025C1090.11 487.292 1087.75 488.625 1086.26 490.785C1084.78 492.932 1084.48 496.145 1086.31 498.012C1087.3 499.012 1088.72 499.465 1090.11 499.638C1094.51 500.172 1099.14 498.012 1101.56 494.305C1102.14 493.412 1102.62 492.412 1102.62 491.358C1102.62 489.852 1101.68 488.478 1100.51 487.545C1097.74 485.292 1093.62 485.345 1092.4 486.025Z" fill="#EEA755"/>
<path d="M1073.39 493.825C1072.31 492.532 1073.29 490.412 1073.83 488.825C1074.37 487.225 1075.62 485.772 1077.29 485.478C1078.31 485.292 1079.41 485.572 1080.39 485.238C1082.85 484.425 1083.07 480.665 1085.42 479.585C1086.98 478.865 1088.83 479.638 1090.54 479.358C1092.7 478.998 1094.71 476.932 1096.75 477.745C1098.41 478.412 1098.79 480.798 1097.85 482.305C1096.89 483.812 1095.05 484.532 1093.29 484.758C1091.51 484.998 1089.71 484.852 1087.94 485.118C1086.18 485.385 1084.35 486.158 1083.46 487.705C1082.98 488.532 1082.82 489.492 1082.43 490.358C1081.1 493.292 1075.77 496.652 1073.39 493.825Z" fill="#EEB3B2"/>
<path d="M1070.34 477.119C1071.7 471.919 1078.86 470.025 1084.21 470.572C1084.97 470.652 1085.81 470.839 1086.26 471.465C1086.99 472.505 1086.14 473.945 1085.13 474.719C1083.18 476.199 1080.51 476.692 1078.17 475.985C1077.43 475.759 1076.65 475.439 1075.93 475.705C1075.5 475.865 1075.18 476.212 1074.9 476.559C1073.29 478.585 1074.29 481.559 1073.11 483.865C1072.33 485.412 1069.7 482.945 1069.57 481.212C1069.43 479.479 1070.15 477.852 1070.34 477.119Z" fill="#FA9DA5"/>
<path d="M1095.46 475.865C1098.1 474.705 1100.94 473.785 1103.55 474.998C1106.16 476.212 1108.14 478.478 1109.79 480.825C1110.46 481.772 1111.1 482.772 1111.46 483.878C1111.83 485.038 1111.9 486.265 1111.86 487.492C1111.78 490.052 1110.74 493.172 1108.2 493.518C1105.68 493.865 1103.75 490.865 1104.12 488.345C1104.31 487.118 1104.84 485.972 1105 484.745C1105.42 481.638 1102.94 478.438 1099.83 478.065C1098.72 477.932 1097.55 478.105 1096.51 477.705C1095.48 477.292 1094.75 476.185 1095.46 475.865Z" fill="#FABEB5"/>
<path d="M1029.14 530.438C1035.51 535.545 1044.85 534.345 1053.01 534.172C1054.22 534.145 1055.85 534.465 1055.93 535.678C1055.95 536.172 1055.69 536.625 1055.41 537.038C1053.83 539.345 1050.98 541.492 1048.43 540.332C1047.54 539.932 1046.86 539.172 1046.15 538.492C1044.65 537.038 1042.78 535.812 1040.7 535.625C1038.34 535.412 1036.05 536.545 1033.67 536.518C1030.22 536.465 1024.73 533.012 1026.66 530.145C1027.79 528.412 1028.42 529.865 1029.14 530.438Z" fill="#F25026"/>
<defs>
<radialGradient id="paint0_radial_102_2891" cx="0" cy="0" r="1" gradientUnits="userSpaceOnUse" gradientTransform="translate(1044.84 499.829) scale(87.4242 87.4242)">
<stop stop-color="#DB7A62"/>
<stop offset="0.448" stop-color="#DC7C64"/>
<stop offset="0.6093" stop-color="#DE826B"/>
<stop offset="0.7243" stop-color="#E28C76"/>
<stop offset="0.8173" stop-color="#E79B87"/>
<stop offset="0.897" stop-color="#EFAF9D"/>
<stop offset="0.9662" stop-color="#F8C7B8"/>
<stop offset="1" stop-color="#FDD5C8"/>
</radialGradient>
<radialGradient id="paint1_radial_102_2891" cx="0" cy="0" r="1" gradientUnits="userSpaceOnUse" gradientTransform="translate(1046.48 500.379) scale(61.3109 61.311)">
<stop stop-color="#BD0002"/>
<stop offset="0.5039" stop-color="#BA0002"/>
<stop offset="0.8398" stop-color="#B10001"/>
<stop offset="1" stop-color="#AA0000"/>
</radialGradient>
<radialGradient id="paint2_radial_102_2891" cx="0" cy="0" r="1" gradientUnits="userSpaceOnUse" gradientTransform="translate(1047.04 493.55) scale(31.9024 36.9014)">
<stop stop-color="#FFB86B"/>
<stop offset="0.1977" stop-color="#FAAD5D"/>
<stop offset="0.418" stop-color="#F6A552"/>
<stop offset="0.5102" stop-color="#F5A150"/>
<stop offset="0.6009" stop-color="#F0954A"/>
<stop offset="0.6911" stop-color="#EA8141"/>
<stop offset="0.7809" stop-color="#E06633"/>
<stop offset="0.8705" stop-color="#D34222"/>
<stop offset="0.9588" stop-color="#C4170D"/>
<stop offset="1" stop-color="#BC0002"/>
</radialGradient>
<radialGradient id="paint3_radial_102_2891" cx="0" cy="0" r="1" gradientUnits="userSpaceOnUse" gradientTransform="translate(1011.81 500.789) scale(14.4575 14.4576)">
<stop stop-color="#FECBDA"/>
<stop offset="1" stop-color="#B80001"/>
</radialGradient>
<radialGradient id="paint4_radial_102_2891" cx="0" cy="0" r="1" gradientUnits="userSpaceOnUse" gradientTransform="translate(1013.5 515.62) scale(10.9408 9.3161)">
<stop stop-color="#FECBDA"/>
<stop offset="0.3853" stop-color="#FDC9D8"/>
<stop offset="0.5241" stop-color="#FBC3D1"/>
<stop offset="0.623" stop-color="#F8B8C5"/>
<stop offset="0.703" stop-color="#F3A8B5"/>
<stop offset="0.7716" stop-color="#EC939F"/>
<stop offset="0.8322" stop-color="#E47A83"/>
<stop offset="0.8872" stop-color="#DA5B63"/>
<stop offset="0.9376" stop-color="#CE383D"/>
<stop offset="0.9825" stop-color="#C21114"/>
<stop offset="1" stop-color="#BC0002"/>
</radialGradient>
</defs>
</svg>
