<svg width="1278" height="1080" viewBox="0 0 1278 1080" fill="none" xmlns="http://www.w3.org/2000/svg">
<g clip-path="url(#clip0_86_287)">
<path d="M1278 0H0V1080H1278V0Z" fill="#9BAFBD"/>
<path d="M881.25 343.831C869.4 401.481 870.92 419.951 862.25 455.361C861.88 456.891 861.48 458.44 861.06 460.04C859.21 467.17 857.33 474.33 855.42 481.55C841.33 534.83 825.95 589.961 811.94 642.581C800.74 684.611 789.1 726.54 776.11 768.06C770.9 784.74 765.43 801.431 762.92 818.731C760 838.761 760.84 858.141 756.88 877.981C754.52 889.731 751.6 903.981 751.04 918.451C750.31 937.781 748 954.701 750.6 970.461C750.73 971.311 750.89 972.171 751.07 973.021C750.46 974.501 611.38 970.851 552.35 969.231C536.43 968.791 526.34 968.5 526.34 968.5C524.34 942.5 524.63 916.331 527.21 890.391C529.72 865.271 534.28 839.381 526.97 815.221C524.61 807.421 521.08 800.051 517.56 792.711C508.49 773.841 499.44 754.98 490.39 736.11C482.54 719.92 473.7 703.381 464.87 686.831C461.12 679.831 457.39 672.801 454.34 665.481C449.83 654.691 446.89 643.33 443.94 632.01C437.31 606.53 430.67 580.941 427.62 554.781C426.05 541.251 425.34 527.271 421.1 514.461C420.54 512.741 419.91 511.05 419.19 509.37C418.99 508.89 418.79 508.42 418.58 507.94C418.29 507.29 417.98 506.65 417.66 506.01C415.71 502.09 413.31 498.321 410.82 494.541C409.19 492.051 407.53 489.571 405.95 487.031C402.59 481.641 399.6 476.04 398.08 469.8C397.56 467.67 397.21 465.471 397.09 463.171C397.05 462.681 397.04 462.181 397.02 461.681C402.75 447.841 421.1 442.91 435.37 447.47C449.65 452.02 460.54 463.46 470.2 474.92C477.69 483.83 485.01 493.4 487.91 504.68C490.38 514.36 489.44 524.81 493.11 534.11C496.43 542.52 503.34 549.501 508.34 556.841C509.19 558.111 509.99 559.37 510.71 560.67C510.98 561.15 511.23 561.63 511.47 562.11C511.68 550.46 511.91 538.801 512.15 527.151C513.51 459.341 515.24 391.781 518.54 325.861C518.97 279.821 523.62 233.82 532.45 188.631C532.57 187.961 532.7 187.301 532.84 186.631C533.69 182.341 534.57 178.061 535.49 173.791C535.82 172.261 536.21 170.781 536.66 169.341C538.77 162.621 542.26 156.981 547.94 153.071C550.07 151.591 552.53 150.351 555.34 149.401C560.34 147.721 570.38 148.081 577.11 151.831C586.27 156.941 591.59 167.121 593.83 177.381C596.08 187.621 597.42 207.781 597.38 208.661C592.77 315.871 592.67 358.471 597.98 433.181C598.19 436.231 599.78 443.381 601.14 446.111C602.87 449.581 605.62 450.601 608.87 450.641C611.62 450.681 614.71 450 617.88 449.47C618.16 447.27 618.45 445.08 618.72 442.88V442.841C621.87 418.321 624.69 393.671 623.69 368.991C623.2 357.181 621.85 345.361 622.46 333.561C623.69 310.111 630.37 292.491 632.51 269.561C634.94 243.611 635 212.351 641.26 187.041C646.31 166.561 647.1 152.001 650.22 139.311C651.27 134.961 652.62 130.841 654.5 126.761C654.5 126.751 654.5 126.751 654.5 126.751C656.18 123.111 658.27 119.521 660.99 115.861C661.27 115.471 661.56 115.111 661.87 114.751C665.64 110.341 671.1 107.591 676.98 106.521C684.3 105.171 692.25 106.441 698.34 110.401C709.71 117.791 719.07 129.641 718.26 143.171C717.29 159.291 717.79 170.981 717.05 185.021C716.28 199.421 713.5 213.651 709.46 227.991C712.31 275.301 710.22 322.9 703.23 369.78C700.44 388.39 696.9 406.901 694.39 425.551C693.51 432.001 691.44 443.94 692.74 450.31C693.94 456.27 698.94 456.281 704.15 456.641L704.66 456.671C704.87 456.701 705.07 456.71 705.29 456.72C715.61 438.24 716.73 416.24 720.01 395.32C727.16 349.61 745.6 305.761 748.12 259.361C752.09 248.321 752.85 236.44 754.37 224.81C754.76 221.84 755.21 218.841 755.78 215.881C757.45 207.241 760.11 198.811 765.18 191.711C765.77 190.901 766.38 190.101 767.03 189.321C774.04 181.081 785.06 175.761 795.48 178.321C809.43 181.751 816.87 197.21 818.81 211.44C820.96 227.13 818.81 243.041 816.65 258.721C813.37 282.531 810.1 306.351 806.82 330.161C802.74 359.871 798.61 389.801 788.74 418.111C783.15 434.141 775.65 450.36 774.09 466.94V466.951C773.61 471.841 773.66 476.78 774.44 481.74C774.72 483.59 775.16 485.501 776.09 487.101C776.45 487.731 776.9 488.31 777.44 488.82C778.43 489.74 779.83 490.25 781.17 490.25C782.18 490.25 783.17 489.941 783.9 489.281C784.06 489.131 784.22 488.961 784.35 488.771C784.8 488.141 785.03 487.401 785.26 486.661C795.37 453.771 805.49 420.87 815.59 387.98C820.58 371.78 825.58 355.501 827.7 338.701C829.01 328.311 829.31 317.451 834.13 308.171C834.32 307.801 834.52 307.441 834.73 307.091C836.26 304.411 838.13 302.141 840.29 300.341C845.04 296.371 851.21 294.621 858.34 295.541C866.54 296.591 875.37 302.371 879.18 309.101C882.7 315.321 881.89 340.711 881.25 343.831Z" fill="#FEE4DB"/>
<path d="M751.08 973.02C750.47 974.5 611.39 970.85 552.36 969.23C536.44 968.79 526.35 968.5 526.35 968.5C524.35 942.5 524.64 916.33 527.22 890.39C529.73 865.27 534.29 839.38 526.98 815.22C524.62 807.42 521.09 800.05 517.57 792.71C508.5 773.84 499.45 754.98 490.4 736.11C482.55 719.92 473.71 703.38 464.88 686.83C461.13 679.83 457.4 672.8 454.35 665.48C449.84 654.69 446.9 643.33 443.95 632.01C437.32 606.53 430.68 580.94 427.63 554.78C426.06 541.25 425.35 527.27 421.11 514.46C420.55 512.74 419.92 511.05 419.2 509.37C419 508.89 418.8 508.42 418.59 507.94C418.3 507.29 417.99 506.65 417.67 506.01C415.72 502.09 413.32 498.32 410.83 494.54L405.96 487.03C406.52 484.3 407.08 481.56 407.64 478.83C407.88 477.67 408.11 476.52 408.35 475.36C408.99 472.17 409.99 468.55 412.84 467.12C412.93 467.07 413.03 467.01 413.12 466.97C414.64 466.3 416.11 466.38 417.47 466.96C420.78 468.37 423.47 472.79 424.9 476.57C433.1 498.56 441.42 521.29 440.31 544.73C440.03 550.72 439.12 556.76 440.11 562.66C441.32 569.94 445.27 576.42 448.78 582.91C455.25 594.87 460.42 607.54 464.21 620.6C465.21 624.04 466.2 627.67 468.7 630.23C465.34 643.03 468.54 657.36 477.03 667.52C477.78 648.19 484.91 629.15 497.04 614.08C497.57 614.15 498.05 614.29 498.47 614.52C501.51 616.08 501.91 621.16 501.43 624.96C498.83 645.05 496.24 665.16 493.66 685.27C510.18 657.5 515.93 623.44 516.15 589.96C516.18 587.64 516.16 585.32 516.12 583C516.11 581.8 516.08 580.6 516.05 579.4C515.6 561.93 513.89 544.52 512.16 527.13C513.52 459.32 515.25 391.76 518.55 325.84C518.98 279.8 523.63 233.8 532.46 188.61C533.25 189.54 533.87 190.65 534.39 191.82C534.9 192.91 535.31 194.07 535.68 195.18C538.96 204.89 542.23 215.58 538.45 225.1C537.1 228.5 534.85 231.79 535.17 235.43C535.7 241.36 542.38 244.42 548.05 246.26C539.2 248.34 532.73 257.77 533.98 266.77C539.33 267.77 544.23 270.89 547.41 275.3C542.66 272.49 536.2 275.78 533.66 280.67C531.13 285.56 531.42 291.38 531.77 296.88C532.76 312.21 533.74 327.56 534.73 342.89C528.21 361.86 526.89 384.81 531.96 406.28C533.51 412.79 535.61 419.2 536.32 425.85C537.41 436.18 534.95 446.88 529.44 455.69C535.85 456.1 541.56 461.6 542.2 468C539.31 468.76 536.41 469.53 533.52 470.31C530.97 474.59 536.4 479.11 540.91 481.23C545.42 483.36 550.7 488.19 547.86 492.28C545.51 495.67 539.93 494.33 536.67 496.85C532.31 500.22 535.11 507.24 538.66 511.46C541.77 515.15 545.43 518.99 545.65 523.81C545.88 528.62 539.85 533.42 536.28 530.18C547.15 572.19 558.27 614.85 580.33 652.22C590.81 669.95 604.2 690.09 597.02 709.39C596.14 711.75 594.87 714.11 592.74 715.43C589.27 717.59 584.5 716.27 581.5 713.5C578.51 710.73 576.87 706.82 575.33 703.05C578.05 736.9 579.28 770.45 558.65 791.68C555.98 794.44 552.94 796.97 551.14 800.36C545.87 810.24 552.95 821.79 557.89 831.84C565.1 846.51 567.9 863.29 565.86 879.49C564.89 887.13 562.87 894.77 563.65 902.44C564.43 910.11 568.93 918.12 576.41 919.96C581 921.09 585.78 919.73 590.41 918.73C616.4 913.13 643.33 918.92 669.28 924.69C680.36 927.16 691.52 929.65 701.95 934.13C720.67 942.16 736.03 956.06 750.64 970.41C750.74 971.31 750.9 972.16 751.08 973.02Z" fill="#E0AFA1"/>
<path d="M516.34 587.76C516.31 588.49 516.25 589.24 516.13 589.99C515.5 594.23 513.54 598.35 510.04 600.76C507.71 602.35 504.99 603.04 502.16 603.29C499.81 603.5 497.37 603.41 495.03 603.3C488.71 603.01 481.72 602.41 477.4 597.81C473.41 593.6 472.85 587.17 469.59 582.38C467.34 579.07 463.9 576.69 461.84 573.26C458.17 567.14 459.73 559.21 457.41 552.47C455.76 547.68 452.2 543.64 451.22 538.68C450.65 535.77 451.02 532.79 450.98 529.83C450.91 524.94 449.71 520.14 448.31 515.44C443.24 498.51 435.23 482.47 424.74 468.24C424.17 467.48 423.58 466.69 422.75 466.2C421.1 465.21 418.98 465.73 417.44 466.96C417.07 467.25 416.72 467.6 416.44 467.97C415.87 468.72 415.45 469.54 415.15 470.42C415 470.82 414.87 471.23 414.76 471.66C414.75 471.67 414.75 471.69 414.75 471.7C414.5 472.69 414.32 473.69 414.15 474.69C413.52 478.38 412.91 482.08 412.28 485.77C411.79 488.69 411.29 491.61 410.8 494.53L405.93 487.02C402.57 481.63 399.58 476.03 398.06 469.79C397.54 467.66 397.19 465.46 397.07 463.16C397.03 462.67 397.02 462.17 397 461.67C402.73 447.83 421.08 442.9 435.35 447.46C449.63 452.01 460.52 463.45 470.18 474.91C477.67 483.82 484.99 493.39 487.89 504.67C490.36 514.35 489.42 524.8 493.09 534.1C496.41 542.51 503.32 549.49 508.32 556.83C508.4 555.16 508.47 553.51 508.51 551.84C509.22 554.79 509.95 557.72 510.7 560.65C511.73 564.78 512.81 568.9 513.9 573.01C514.78 576.3 515.69 579.62 516.1 583C516.3 584.6 516.4 586.18 516.34 587.76Z" fill="#E0AFA1"/>
<path d="M536.65 169.351C538.76 162.631 542.25 156.991 547.93 153.081L536.65 169.351Z" fill="#FEE4DB"/>
<path d="M555.18 939.471C554.15 949.271 551.7 959.621 552.35 969.231C536.43 968.791 526.34 968.501 526.34 968.501C524.34 942.501 524.63 916.331 527.21 890.391C529.72 865.271 534.28 839.381 526.97 815.221C524.61 807.421 521.08 800.051 517.56 792.711C508.49 773.841 499.44 754.981 490.39 736.111C482.54 719.921 473.7 703.381 464.87 686.831C461.12 679.831 457.39 672.801 454.34 665.481C449.83 654.691 446.89 643.331 443.94 632.011C437.31 606.531 430.67 580.941 427.62 554.781C426.05 541.251 425.34 527.271 421.1 514.461C420.54 512.741 419.91 511.051 419.19 509.371C418.99 508.891 418.79 508.421 418.58 507.941C420.02 501.331 420.34 494.531 419.5 487.941C418.95 483.581 417.89 479.301 416.3 475.231V475.221C415.91 474.251 415.51 473.291 415.07 472.351C415.06 472.321 415.04 472.311 415.03 472.281C414.95 472.081 414.86 471.891 414.76 471.711C414.64 471.441 414.52 471.191 414.39 470.941C414.4 470.931 414.42 470.901 414.44 470.901C414.65 470.691 414.89 470.531 415.16 470.431C416.29 469.961 417.79 470.381 418.71 471.271C419.87 472.391 420.34 474.021 420.76 475.561C427.44 500.091 431.48 525.351 432.79 550.731C433.14 557.241 433.3 563.801 434.76 570.131C436.91 579.341 441.71 587.701 444.64 596.691C447 603.891 448.12 611.441 449.81 618.821C452.01 628.451 455.16 637.821 458.29 647.171C462.04 658.321 466.08 669.961 474.7 677.941C476.97 680.031 481.05 681.621 482.71 679.021C483.36 678.011 483.3 676.701 483.24 675.501C482.47 661.101 483.69 646.341 489.31 633.061C491.99 626.731 495.64 620.811 498.44 614.531C499.09 613.051 499.71 611.541 500.24 610.001C501.01 607.801 501.63 605.561 502.15 603.281C502.87 600.161 503.42 596.991 503.95 593.831C505.22 586.241 506.42 578.661 507.24 571.001C507.75 566.291 508.11 561.571 508.32 556.841C508.4 555.171 508.47 553.521 508.51 551.851C509.22 554.801 509.95 557.731 510.7 560.661C510.97 561.141 511.22 561.621 511.46 562.101C511.67 550.451 511.9 538.791 512.14 527.141C513.5 459.331 515.23 391.771 518.53 325.851C518.96 279.811 523.61 233.811 532.44 188.621C532.56 187.951 532.69 187.291 532.83 186.621C533.39 188.351 533.9 190.091 534.38 191.831C534.7 192.991 535.01 194.161 535.3 195.341C535.78 197.271 536.21 199.291 535.71 201.211C535.28 202.891 534.18 204.301 533.62 205.941C532.06 210.531 534.99 215.491 534.53 220.311C534.02 225.561 529.61 229.761 528.9 235.001C528.51 237.801 529.25 240.611 529.63 243.411C531.95 260.451 521.55 278.091 526.8 294.461C531.79 332.091 516.08 371.311 524.61 408.781C526.58 417.461 529.86 426.211 528.57 435.011C527.74 440.661 525.05 445.921 524.1 451.561C523.31 456.331 523.78 461.211 524.23 466.031C530.32 529.791 533.72 596.101 510.94 655.961C508.05 663.561 504.71 671.171 504.03 679.281C504.78 708.831 516.42 737.801 530.56 764.401C535.01 772.801 539.83 781.281 541.24 790.681C542.41 798.521 541.15 806.531 541.76 814.451C542.35 822.041 544.65 829.371 546.24 836.811C547.95 844.891 548.83 853.131 549.69 861.341C551.05 874.311 552.42 887.291 553.78 900.261C555.17 913.321 556.54 926.441 555.18 939.471Z" fill="#99685A"/>
<path d="M663.2 213.38C663.96 213.39 664.73 213.55 665.51 213.83C664.7 213.76 663.93 213.62 663.2 213.38Z" fill="#E0AFA1"/>
<path d="M651.62 226.6C650.67 234.41 654.47 244.04 662.3 244.93C655.43 244.49 652.09 253.04 650.85 259.82C648.72 271.46 646.58 283.41 649.37 292.66C645.24 303.13 643.57 314.54 644.54 325.75C644.78 328.56 645.19 331.39 644.94 334.2C644.69 337.07 643.75 339.83 643.19 342.65C640.55 355.73 645.78 369.21 644.68 382.5C643.77 393.42 638.64 404.21 640.85 414.94C641.86 419.79 644.33 424.22 645.82 428.95C647.31 433.67 647.7 439.22 644.82 443.26C643.78 444.73 642.35 445.94 641.63 447.59C639.16 453.22 646.23 459.43 644.43 465.3C642.71 470.89 634.42 471.85 632.06 477.18C630.31 481.11 632.54 485.57 632.95 489.85C633.34 493.89 631.99 498.08 628.88 499.89C628.92 517.68 629.91 535.46 631.85 553.14C633.81 571.06 636.7 589.47 631.96 606.87C624.4 587.52 627.25 565.71 622.68 545.46C619.69 532.21 613.6 519.89 608.97 507.11C604.34 494.32 601.18 480.4 604.36 467.19C605.69 461.66 608.12 456.19 608.84 450.63C611.59 450.67 614.68 449.99 617.85 449.46C618.13 447.26 618.42 445.07 618.69 442.87V442.83C621.84 418.31 624.66 393.66 623.66 368.98C623.17 357.17 621.82 345.35 622.43 333.55C623.66 310.1 630.34 292.48 632.48 269.55C634.91 243.6 634.97 212.34 641.23 187.03C646.28 166.55 647.07 151.99 650.19 139.3C651.24 142.73 652.88 145.95 654.99 148.85C659.67 155.3 666.62 160.14 674.4 161.93C667.8 162.29 661.35 164.78 656.23 168.94C661.02 174.11 667.55 177.63 674.5 178.79C666.54 181.63 658.55 186.5 655.5 194.38C652.75 201.53 656.23 211.11 663.17 213.35C657.34 213.15 652.38 220.23 651.62 226.6Z" fill="#E0AFA1"/>
<path d="M655.02 148.871C654.53 158.921 653.29 169.621 652.05 180.241C649.52 201.991 646.97 223.751 644.44 245.491C641.92 267.121 639.4 288.761 635.55 310.181C633.9 319.341 632 328.591 632.63 337.891C633.06 344.121 634.6 350.211 635.28 356.421C636.2 364.851 635.51 373.351 634.76 381.791C631.09 423.751 626.35 465.621 620.51 507.341C621.67 494.141 606.96 481.831 610.78 468.901C612.18 464.111 615.94 460.381 617.79 455.751C619.46 451.621 619.48 447.271 618.72 442.881V442.841C621.87 418.321 624.69 393.671 623.69 368.991C623.2 357.181 621.85 345.361 622.46 333.561C623.69 310.111 630.37 292.491 632.51 269.561C634.94 243.611 635 212.351 641.26 187.041C646.31 166.561 647.1 152.001 650.22 139.311C651.27 134.961 652.62 130.841 654.5 126.761C655.37 133.521 655.42 141.001 655.02 148.871Z" fill="#99685A"/>
<path d="M704.16 456.671C702.04 467.831 699.99 479 698.01 490.19C697.16 494.99 696.34 499.991 697.68 504.701C698.04 505.971 698.6 507.19 699.33 508.31C701.29 511.36 704.48 513.6 708.04 513.44C709.4 507 710.81 500.43 712.68 494.05C715.71 483.76 719.92 473.971 727 466.021C728.29 464.581 729.71 463.13 730.16 461.25C730.47 459.96 730.27 458.61 730.12 457.29C729.23 449.64 729.75 441.901 730.45 434.241C733.88 396.751 741.68 359.651 753.61 323.951C755.85 317.261 760.4 309.22 767.38 310.28C762.75 302.09 763.79 291.07 769.87 283.88C763.64 282.65 758.75 276.731 758.4 270.451C758.36 269.741 758.37 269.041 758.45 268.331C758.64 266.561 759.21 264.86 760.06 263.32C762.59 258.75 767.66 255.49 772.94 255.6C768.82 245.57 766.15 234.951 765.01 224.151C764.49 219.301 764.28 214.401 764.38 209.521C759.83 209.601 757.33 212.33 755.77 215.91C755.2 218.87 754.74 221.871 754.36 224.841C752.84 236.471 752.08 248.351 748.11 259.391C745.59 305.791 727.15 349.64 720 395.35C716.72 416.27 715.6 438.27 705.28 456.75C705.07 456.74 704.87 456.721 704.65 456.701L704.16 456.671Z" fill="#E0AFA1"/>
<path d="M767.04 189.351C766.48 198.911 765.93 208.471 765.39 218.031C765.27 220.071 765.15 222.111 765.03 224.151C764.22 237.321 763.14 250.501 760.08 263.321C759.96 263.841 759.84 264.371 759.71 264.891C759.24 266.731 758.74 268.581 758.42 270.451C758.06 272.331 757.89 274.241 758.11 276.131C758.55 279.851 760.46 283.261 760.88 286.981C761.57 293.251 758.03 299.091 755.05 304.651C744.34 324.731 739.97 347.491 735.73 369.861C733.16 383.391 730.6 396.931 727.37 410.311C723.85 424.921 719.6 440.631 725.25 454.551C720.08 454.141 717.02 460.101 715.4 465.031C712.52 473.831 709.63 482.631 706.73 491.431C705.8 494.311 704.85 497.181 703.9 500.061C704.07 498.021 704.26 495.971 704.43 493.931V493.921C705.46 481.491 706.16 469.001 704.66 456.691C704.87 456.721 705.07 456.731 705.29 456.741C715.61 438.261 716.73 416.261 720.01 395.341C727.16 349.631 745.6 305.781 748.12 259.381C752.09 248.341 752.85 236.461 754.37 224.831C754.76 221.861 755.21 218.861 755.78 215.901C757.45 207.261 760.11 198.831 765.18 191.731C765.77 190.921 766.38 190.121 767.04 189.351Z" fill="#99685A"/>
<path d="M776.1 487.12C771.54 504.63 766.97 522.13 762.39 539.64C762.99 521.33 763.62 502.91 767.54 485.03C768.91 478.74 770.77 472.43 774.1 466.98C773.62 471.87 773.67 476.81 774.45 481.77C774.73 483.62 775.17 485.52 776.1 487.12Z" fill="#E0AFA1"/>
<path d="M876.93 315.021C876.68 321.621 875.8 328.191 874.28 334.611C873.29 338.811 871.67 343.411 867.77 345.261C864.54 346.811 860.74 345.981 857.26 345.111C855.87 344.761 854.5 344.421 853.11 344.081C851.62 343.711 850.07 343.311 848.67 342.681C847.62 342.201 846.66 341.601 845.84 340.761C844.23 339.091 843.49 336.771 842.95 334.511C840.84 325.871 840.51 316.791 841.95 308.021C845.15 307.621 848.42 307.411 851.71 307.411C859.04 307.411 866.5 308.441 873.63 310.571C874.7 310.881 875.83 311.291 876.44 312.211C876.97 313.021 876.96 314.061 876.93 315.021Z" fill="#F2CEC4"/>
<path d="M834.66 352.32C833.86 354.13 832.93 355.88 832.38 357.77C830.58 363.93 832.99 370.58 831.98 376.92C830.93 383.51 826.23 389.21 825.83 395.87C825.6 399.4 826.62 402.92 826.28 406.44C825.48 414.93 817.33 420.85 814.6 428.92C812.11 436.31 814.43 444.52 812.63 452.11C810.71 460.23 804.24 466.83 802.88 475.07C801.89 481.08 803.76 487.23 803.44 493.32C803.17 498.56 801.29 503.59 799.39 508.48C794.4 521.25 789.06 533.89 783.38 546.37C777.35 537.37 772.34 526.72 774.14 516.04C775.31 509.11 779.27 502.61 781.89 496.07C782.77 493.83 783.5 491.58 783.92 489.3C784.08 489.15 784.24 488.98 784.37 488.79C784.82 488.16 785.05 487.42 785.28 486.68C795.39 453.79 805.51 420.89 815.61 388C820.6 371.8 825.6 355.52 827.72 338.72C829.03 328.33 829.33 317.47 834.15 308.19C834.34 307.82 834.54 307.46 834.75 307.11C835.58 310.5 836.34 313.91 836.95 317.35C839.09 329.31 839.49 341.39 834.66 352.32Z" fill="#E0AFA1"/>
<path d="M698.81 497.64C699.01 508.69 700.11 519.83 703.52 530.35C706.94 540.86 712.81 550.77 721.37 557.76C713.08 532.55 710.53 505.47 713.97 479.15C710.27 487.53 705.1 495.27 698.81 497.64Z" fill="#E0AFA1"/>
<path d="M840.3 300.36C839.55 306.09 838.43 311.77 836.94 317.35C836.19 320.2 835.35 323.02 834.41 325.8C833.3 329.07 832.06 332.33 831.62 335.75C831.14 339.48 831.65 343.31 832.79 346.9C833.08 347.81 833.42 348.74 833.34 349.69C833.25 350.66 832.71 351.53 832.22 352.37C828.1 359.53 826.11 367.9 826.57 376.16C826.69 378.17 826.94 380.24 826.49 382.21C826.05 384.17 824.94 385.9 824 387.68C820.97 393.37 819.51 399.89 820.28 406.64C812.13 412.29 809.63 423.03 807.76 432.77C805.81 442.88 803.88 453 801.93 463.12C801.66 464.49 801.37 465.92 800.49 467C799.96 467.65 799.25 468.13 798.64 468.71C796.47 470.71 795.55 473.66 794.55 476.43C791.78 484.16 787.83 491.47 782.9 498.04C782.47 497.41 782.15 496.76 781.9 496.08C781.21 494.28 781.06 492.29 781.19 490.28C782.2 490.28 783.19 489.97 783.92 489.31C784.08 489.16 784.24 488.99 784.37 488.8C784.82 488.17 785.05 487.43 785.28 486.69C795.39 453.8 805.51 420.9 815.61 388.01C820.6 371.81 825.6 355.53 827.72 338.73C829.03 328.34 829.33 317.48 834.15 308.2C834.34 307.83 834.54 307.47 834.75 307.12C836.28 304.43 838.14 302.16 840.3 300.36Z" fill="#99685A"/>
<path d="M862.25 455.361C861.88 456.891 861.48 458.44 861.06 460.04C859.21 467.17 857.33 474.33 855.42 481.55C852.45 480.34 849.47 479.12 846.51 477.92C845.58 477.53 844.6 477.13 843.95 476.37C842.24 474.4 843.44 471.371 843.18 468.771C842.83 465.341 839.95 462.851 837.54 460.401C835.13 457.951 832.9 454.451 834.21 451.271C840.1 452.471 845.68 454.99 851.64 455.79C855.17 456.27 858.77 456.111 862.25 455.361Z" fill="#E1AFA1"/>
<path d="M585.16 168.88C584.77 176.81 583.65 184.71 581.81 192.43C581.65 193.11 581.46 193.83 580.97 194.32C580.54 194.76 579.94 194.97 579.36 195.17C568.88 198.56 557.27 198.33 546.95 194.52C546.39 194.31 545.82 194.09 545.27 193.83C544.42 193.43 543.6 192.94 542.92 192.28C540.61 190.04 540.37 186.48 540.35 183.27C540.31 176.11 540.68 168.94 541.46 161.82C543.97 159.33 546.77 157.78 549.7 156.87C552.85 155.88 556.15 155.64 559.39 155.76C565.64 155.99 571.78 157.51 577.84 159.03C580.01 159.56 582.33 160.2 583.73 161.94C585.25 163.82 585.28 166.47 585.16 168.88Z" fill="#F2CEC4"/>
<path d="M706.33 130.751C705.89 134.071 705.45 137.391 705.01 140.711C704.24 146.581 703.01 153.191 698.04 156.391C693.96 159.021 688.67 158.441 683.89 157.631C680.41 157.041 676.85 156.351 673.81 154.561C672.57 153.831 671.44 152.931 670.36 151.991C669.75 151.441 669.15 150.881 668.56 150.321C667.17 149.011 665.73 147.671 664.93 145.931C664.21 144.361 664.05 142.581 663.96 140.851C663.48 132.741 661.59 119.731 663.13 119.241C666.01 118.331 672.34 116.691 676.16 116.361C676.69 116.311 677.19 116.281 677.6 116.291C680.27 116.361 684.57 115.861 687.2 116.371C691.77 117.251 695.01 117.461 699.59 118.341C701.46 118.701 703.44 120.791 704.8 122.111C706.97 124.241 706.73 127.741 706.33 130.751Z" fill="#F2CEC4"/>
<path d="M851.65 307.95C850.04 315.86 849.34 323.95 849.57 332.02C849.66 335.61 849.89 339.39 848.68 342.69C847.63 342.21 846.67 341.61 845.85 340.77C844.24 339.1 843.5 336.78 842.96 334.52C840.85 325.88 840.52 316.8 841.96 308.03C845.16 307.63 848.43 307.42 851.72 307.42C851.72 307.59 851.69 307.78 851.65 307.95Z" fill="#E0AFA1"/>
<path d="M807.06 221.271C806.38 223.281 805.57 225.311 804.15 226.881C800.59 230.851 794.47 230.871 789.15 230.441C787.03 230.271 784.87 230.081 782.87 229.371C779.72 228.251 777.12 225.921 775.31 223.091C774.83 222.341 774.4 221.561 774.03 220.761C772.27 216.921 771.71 212.631 771.68 208.411C771.63 202.171 772.65 195.931 774.71 190.041C777.64 188.841 780.7 188.051 783.8 187.611C790.19 186.741 796.84 187.411 803.13 189.261C805.72 190.031 808.46 191.191 809.69 193.591C810.36 194.901 810.46 196.421 810.52 197.881C810.8 205.821 809.61 213.781 807.06 221.271Z" fill="#F2CEC4"/>
<path d="M545.26 193.831C544.41 193.431 543.59 192.941 542.91 192.281C540.6 190.041 540.36 186.481 540.34 183.271C540.3 176.111 540.67 168.941 541.45 161.821C543.96 159.331 546.76 157.781 549.69 156.871C546.24 168.841 544.74 181.381 545.26 193.831Z" fill="#E0AFA1"/>
<path d="M676.16 116.36C672.56 127.21 670.64 138.63 670.51 150.05C670.5 150.69 670.5 151.36 670.36 151.98C669.75 151.43 669.15 150.87 668.56 150.31C667.17 149 665.73 147.66 664.93 145.92C664.21 144.35 664.05 142.57 663.96 140.84C663.48 132.73 661.59 119.72 663.13 119.23C666.01 118.34 672.34 116.7 676.16 116.36Z" fill="#E0AFA1"/>
<path d="M783.81 187.621C783.81 187.651 783.8 187.661 783.78 187.691C777.71 197.781 777.54 210.651 775.46 222.541C775.43 222.731 775.39 222.931 775.31 223.101C774.83 222.351 774.4 221.571 774.03 220.771C772.27 216.931 771.71 212.641 771.68 208.421C771.63 202.181 772.65 195.941 774.71 190.051C777.65 188.841 780.7 188.061 783.81 187.621Z" fill="#E0AFA1"/>
<path d="M543.74 333.281C557.36 333.171 585.2 332.911 585.2 332.911C571.59 335.701 543.74 333.281 543.74 333.281Z" fill="#E0AFA1"/>
<path d="M543.33 324.711C554.22 324.071 576.66 324.281 576.66 324.281C565.79 326.571 543.33 324.711 543.33 324.711Z" fill="#E0AFA1"/>
<path d="M572.16 242.73C566.16 242.73 554.41 238.3 554.41 238.3C563.96 238.77 583.35 242.56 583.35 242.56C579.63 242.68 575.9 242.73 572.16 242.73Z" fill="#E0AFA1"/>
<path d="M693.78 331.881C681.88 331.051 658.64 324.101 658.64 324.101C670.35 325.791 693.78 331.881 693.78 331.881Z" fill="#E0AFA1"/>
<path d="M697.32 319.97C681.78 315.26 649.24 310.45 649.24 310.45C665.92 309.38 697.32 319.97 697.32 319.97Z" fill="#E0AFA1"/>
<path d="M667.66 215.29C667.66 215.29 684.56 215.25 692.6 216.01C692.6 216.01 675.66 217.62 667.66 215.29Z" fill="#E0AFA1"/>
<path d="M782.32 368.071C776.24 366.671 759.43 360.141 759.43 360.141C770.51 363.981 797.23 369.541 797.23 369.541C792.55 370.501 785.96 368.901 782.32 368.071Z" fill="#E0AFA1"/>
<path d="M759.96 354.45C759.96 354.45 783.53 355.97 794.88 357.97C794.88 357.96 771.21 357.38 759.96 354.45Z" fill="#E0AFA1"/>
<path d="M792.72 273.611C787.91 273.651 777.75 271.351 777.75 271.351L800.4 272.671C800.4 272.661 794.77 273.591 792.72 273.611Z" fill="#E0AFA1"/>
<path d="M842.79 378.59C842.79 378.59 857.49 377.51 864.43 378.46C864.43 378.46 849.73 380.16 842.79 378.59Z" fill="#E0AFA1"/>
<path d="M860.5 434.97C850.08 434.21 830.47 426.15 830.47 426.15C840.39 428.61 860.5 434.97 860.5 434.97Z" fill="#E0AFA1"/>
<path d="M738.34 757.92C728.84 766.11 718.9 774.58 709.02 778.95C698.18 783.74 689.02 782.91 680.39 781.99C662.33 780.05 645.07 776 638.16 761.69C629.03 742.77 621.27 722.68 614.9 701.52C612.54 693.65 610.36 685.58 608.38 677.94C606.67 671.12 602.35 666.43 599.43 660.58C596.5 654.74 595.08 646.99 599.06 637.55C603.06 628.1 614.16 617.31 621.78 617.29C623.93 617.29 625.61 618.1 627.6 618.37C633.38 619.15 641.43 615.33 648.82 610.3C656.21 605.27 663.31 599.01 670.62 593.58C682.57 584.7 696.33 577.84 704.76 580.64C705.39 580.85 705.97 581.11 706.52 581.41C714.45 585.77 714.56 598.97 722.88 603.04C726.57 604.85 731.63 604.71 735.47 606.3C736.86 606.88 738.07 607.66 739.12 608.62C745.78 614.57 746.53 626.84 752.84 633.45C757.12 637.93 763.88 639.7 767.61 644.74C777.58 658.25 762.96 689.17 766.97 707.68C767.66 710.87 768.9 713.71 768.7 717.47C768.35 723.9 763.69 732.14 757.86 739.12C752.04 746.07 745.13 752.06 738.34 757.92Z" fill="url(#paint0_radial_86_287)"/>
<path d="M742.18 764.89C732 773.67 721.34 782.75 710.74 787.43C699.12 792.57 689.3 791.67 680.04 790.69C660.67 788.61 642.17 784.26 634.76 768.92C624.97 748.64 616.64 727.1 609.81 704.41C607.27 695.97 604.94 687.32 602.82 679.12C600.99 671.81 596.35 666.78 593.22 660.5C590.08 654.24 588.55 645.93 592.82 635.81C597.11 625.68 609 614.11 617.17 614.09C619.48 614.09 621.28 614.96 623.41 615.25C629.61 616.08 638.24 611.99 646.16 606.6C654.08 601.21 661.69 594.5 669.53 588.67C682.34 579.15 697.1 571.8 706.13 574.81C706.8 575.03 707.43 575.32 708.02 575.64C716.52 580.31 716.65 594.47 725.56 598.84C729.52 600.78 734.95 600.63 739.06 602.34C740.55 602.96 741.85 603.8 742.97 604.82C750.11 611.2 750.92 624.36 757.68 631.44C762.27 636.24 769.52 638.15 773.51 643.55C784.2 658.04 768.53 691.18 772.83 711.03C773.57 714.45 774.9 717.5 774.69 721.52C774.32 728.41 769.32 737.25 763.07 744.74C756.87 752.19 749.46 758.61 742.18 764.89Z" fill="url(#paint1_radial_86_287)"/>
<path d="M735.53 754.58C726.89 761.96 717.85 769.59 708.79 773.43C698.85 777.65 690.37 776.72 682.36 775.72C665.62 773.61 649.59 769.56 642.94 756.24C634.15 738.64 626.61 719.97 620.34 700.35C618.01 693.05 615.85 685.57 613.88 678.49C612.17 672.17 608.1 667.77 605.29 662.32C602.48 656.88 601.02 649.71 604.53 641.08C608.06 632.44 618.13 622.69 625.17 622.81C627.16 622.85 628.73 623.63 630.57 623.92C635.93 624.74 643.31 621.37 650.05 616.86C656.79 612.36 663.24 606.71 669.91 601.84C680.8 593.87 693.41 587.79 701.25 590.53C701.83 590.73 702.38 590.99 702.89 591.27C710.3 595.43 710.65 607.61 718.41 611.51C721.85 613.24 726.54 613.21 730.12 614.75C731.42 615.31 732.55 616.05 733.54 616.95C739.8 622.56 740.72 633.89 746.68 640.09C750.72 644.3 757 646.05 760.54 650.77C770 663.41 757.05 691.64 761.09 708.79C761.79 711.74 762.99 714.39 762.87 717.84C762.67 723.76 758.5 731.28 753.24 737.61C747.98 743.91 741.7 749.3 735.53 754.58Z" fill="url(#paint2_radial_86_287)"/>
<path d="M733.01 748.3C725.12 755.01 716.85 761.94 708.54 765.4C699.42 769.19 691.59 768.26 684.2 767.26C668.75 765.16 653.93 761.28 647.68 748.96C639.41 732.68 632.29 715.43 626.32 697.31C624.1 690.57 622.05 683.66 620.16 677.13C618.53 671.3 614.73 667.21 612.09 662.17C609.44 657.14 608.03 650.53 611.19 642.62C614.36 634.71 623.55 625.83 630.05 626C631.88 626.05 633.34 626.78 635.04 627.07C639.99 627.87 646.76 624.84 652.93 620.76C659.1 616.68 665 611.55 671.09 607.12C681.05 599.89 692.62 594.41 699.87 597.01C700.41 597.2 700.91 597.44 701.39 597.71C708.26 601.61 708.69 612.82 715.89 616.48C719.08 618.11 723.4 618.12 726.71 619.57C727.91 620.1 728.96 620.79 729.88 621.63C735.71 626.85 736.66 637.28 742.21 643.05C745.98 646.96 751.78 648.64 755.09 653.01C763.93 664.73 752.25 690.6 756.14 706.41C756.81 709.14 757.94 711.58 757.86 714.76C757.73 720.21 753.96 727.09 749.17 732.86C744.39 738.6 738.65 743.5 733.01 748.3Z" fill="url(#paint3_radial_86_287)"/>
<path d="M669.56 726.821C667.88 719.081 666.21 711.341 664.53 703.591C664.1 701.591 663.66 699.511 664.26 696.991C665.06 693.611 667.55 690.001 669.67 686.511C673.05 680.921 675.77 675.051 680.22 669.921C690.55 658.031 705.53 655.791 712.99 660.941C720.45 666.091 722.94 676.271 727.55 684.341C730.98 690.351 735.66 695.271 738.46 701.821C741.26 708.371 742.01 717.061 737.67 726.811C735.71 731.221 732.65 735.811 728.73 739.341C722.07 745.331 714.44 747.091 708.07 747.451C702.21 747.771 696.72 747.261 691.77 745.931C688.47 745.051 685.3 743.691 684.08 740.531C683.4 738.761 683.36 736.501 682.45 734.921C679.74 730.211 670.77 732.391 669.56 726.821Z" fill="url(#paint4_radial_86_287)"/>
<path d="M641.3 632.85C638.31 633.73 635.13 634.72 632.2 637.13C629.27 639.54 626.93 643.85 628.28 645.63C629.56 647.32 633.36 646.01 634.35 647.96C635.06 649.37 633.96 651.93 632.52 654.09C631.08 656.24 629.27 658.29 628.08 660.49C626.89 662.69 626.55 665.23 628.09 665.72C629.54 666.19 631.84 664.69 633.8 663.3C636.98 661.04 640.63 658.19 641.85 654.86C642.47 653.17 642.3 651.71 642.77 650.05C644.36 644.48 652.5 638.29 652.3 633.46C652.2 631.09 649.84 630.38 647.25 631.06C644.65 631.75 641.88 633.53 641.3 632.85Z" fill="url(#paint5_radial_86_287)"/>
<path d="M662.78 740.651C667.3 736.791 672.84 735.581 675.38 737.901C676.55 738.971 677.11 740.661 677.44 742.461C677.57 743.161 677.66 743.901 677.39 744.781C676.87 746.431 675.12 748.14 673.5 748.93C671.88 749.72 670.39 749.751 669.09 749.571C665.59 749.071 662.98 747.06 661.77 743.94C661.49 743.23 661.41 741.811 662.78 740.651Z" fill="url(#paint6_radial_86_287)"/>
<path d="M732.16 670.29C731.55 669.24 732.01 667.46 732.02 665.98C732.09 659.39 723.94 659.94 719.67 656.88C715.49 653.89 715.1 647.23 715.49 640.62C715.69 637.22 715.97 633.47 713.83 631.91C712.43 630.9 710.23 631 708.1 631.13C704.61 631.33 701.11 631.54 697.6 631.75C695.4 631.89 692.93 631.83 692.6 629.79C692.33 628.08 693.69 625.68 694.76 623.5C697.99 616.97 698.99 610.45 697.49 605.78C698.42 602.91 699.77 600.19 701.4 597.69C708.27 601.59 708.7 612.8 715.9 616.46C719.09 618.09 723.41 618.1 726.72 619.55C727.92 620.08 728.97 620.77 729.89 621.61C729.7 622.41 729.55 623.21 729.44 623.99C728.71 629.31 730.18 633.49 731.68 637.49C732.47 639.58 733.27 641.69 734.56 643.35C736.11 645.33 738.34 646.61 739.94 648.54C742.04 651.05 743.01 654.67 742.75 658.87C742.58 661.55 741.78 664.73 739.52 667.53C737.25 670.34 733.25 672.11 732.16 670.29Z" fill="url(#paint7_linear_86_287)"/>
<path d="M651.72 669.021C654.28 666.831 656.57 664.201 659.13 662.021C661.7 659.841 664.83 658.081 666.89 658.591C668.93 659.091 669.29 661.611 669.14 664.101C668.83 669.231 667 674.981 664.99 680.681C663.14 685.911 660.39 692.121 655.39 695.611C652.26 697.801 649.08 698.251 646.4 698.101C643.76 697.951 641.32 697.271 639.91 695.491C638 693.081 638.17 688.881 639.51 684.551C640.03 682.871 640.87 680.941 642.43 679.631C644.31 678.041 646.84 677.711 648.16 675.671C649.48 673.631 648.1 671.991 649.31 669.921C649.99 669.631 650.66 669.331 651.72 669.021Z" fill="url(#paint8_radial_86_287)"/>
<path d="M689.25 692.81C697.28 689.42 705.09 687.85 711.85 688.26C714.18 688.4 716.46 688.81 717.83 690.26C718.81 691.29 719.28 692.79 719.75 694.27C720.69 697.28 721.63 700.28 722.57 703.29C723.74 707.03 724.92 710.88 724.37 715.64C724.05 718.39 722.78 721.93 720.03 724.19C717.89 725.95 715.59 726.32 713.53 726.58C708.52 727.21 703.36 727.83 699.67 726.12C696.93 724.85 695.19 722.37 692.69 720.81C688.87 718.44 683.18 718.07 681.48 713.61C679.5 708.44 683.8 699.65 689.25 692.81Z" fill="url(#paint9_radial_86_287)"/>
</g>
<defs>
<radialGradient id="paint0_radial_86_287" cx="0" cy="0" r="1" gradientUnits="userSpaceOnUse" gradientTransform="translate(682.992 681.286) rotate(35.036) scale(104.337 118.359)">
<stop stop-color="#C27059"/>
<stop offset="0.138" stop-color="#C67761"/>
<stop offset="0.3477" stop-color="#CF8A76"/>
<stop offset="0.6028" stop-color="#DFA898"/>
<stop offset="0.8913" stop-color="#F5D2C7"/>
<stop offset="1" stop-color="#FEE4DB"/>
</radialGradient>
<radialGradient id="paint1_radial_86_287" cx="0" cy="0" r="1" gradientUnits="userSpaceOnUse" gradientTransform="translate(682.938 682.924) rotate(35.0384) scale(116.507 109.234)">
<stop stop-color="#DD9583"/>
<stop offset="0.3428" stop-color="#DE9785"/>
<stop offset="0.5308" stop-color="#E19E8D"/>
<stop offset="0.6812" stop-color="#E6AB9B"/>
<stop offset="0.8118" stop-color="#EDBCAF"/>
<stop offset="0.9284" stop-color="#F7D2C7"/>
<stop offset="1" stop-color="#FEE4DB"/>
</radialGradient>
<radialGradient id="paint2_radial_86_287" cx="0" cy="0" r="1" gradientUnits="userSpaceOnUse" gradientTransform="translate(682.963 682.896) rotate(35.036) scale(94.4957 103.898)">
<stop stop-color="#C2553C"/>
<stop offset="0.2311" stop-color="#C8644D"/>
<stop offset="0.6853" stop-color="#D98B78"/>
<stop offset="1" stop-color="#E6A99A"/>
</radialGradient>
<radialGradient id="paint3_radial_86_287" cx="0" cy="0" r="1" gradientUnits="userSpaceOnUse" gradientTransform="translate(689.545 679.313) rotate(35.036) scale(93.1494 91.4627)">
<stop stop-color="#C44129"/>
<stop offset="0.2921" stop-color="#C5432C"/>
<stop offset="0.4736" stop-color="#C84B34"/>
<stop offset="0.6249" stop-color="#CE5943"/>
<stop offset="0.7596" stop-color="#D66D57"/>
<stop offset="0.8821" stop-color="#E08572"/>
<stop offset="0.9963" stop-color="#EDA492"/>
<stop offset="1" stop-color="#EDA593"/>
</radialGradient>
<radialGradient id="paint4_radial_86_287" cx="0" cy="0" r="1" gradientUnits="userSpaceOnUse" gradientTransform="translate(703.862 704.942) rotate(33.8126) scale(41.2796 63.9382)">
<stop stop-color="#D38A65"/>
<stop offset="1" stop-color="#C45B4B"/>
</radialGradient>
<radialGradient id="paint5_radial_86_287" cx="0" cy="0" r="1" gradientUnits="userSpaceOnUse" gradientTransform="translate(639.673 648.243) scale(20.9691 11.923)">
<stop stop-color="#B34527"/>
<stop offset="1" stop-color="#CE7A58"/>
</radialGradient>
<radialGradient id="paint6_radial_86_287" cx="0" cy="0" r="1" gradientUnits="userSpaceOnUse" gradientTransform="translate(669.583 743.111) scale(8.79401 7.16182)">
<stop stop-color="#C76450"/>
<stop offset="1" stop-color="#C4422A"/>
</radialGradient>
<linearGradient id="paint7_linear_86_287" x1="696.133" y1="604.154" x2="750.274" y2="661.782" gradientUnits="userSpaceOnUse">
<stop stop-color="#D16C4F"/>
<stop offset="1" stop-color="#BD4E35"/>
</linearGradient>
<radialGradient id="paint8_radial_86_287" cx="0" cy="0" r="1" gradientUnits="userSpaceOnUse" gradientTransform="translate(653.835 678.437) scale(22.9813 16.2179)">
<stop stop-color="#C36E59"/>
<stop offset="0.2865" stop-color="#C26952"/>
<stop offset="0.6943" stop-color="#BE5C40"/>
<stop offset="1" stop-color="#BA4E2D"/>
</radialGradient>
<radialGradient id="paint9_radial_86_287" cx="0" cy="0" r="1" gradientUnits="userSpaceOnUse" gradientTransform="translate(705.894 706.542) rotate(33.8126) scale(22.1657 33.3249)">
<stop stop-color="#D49E7F"/>
<stop offset="0.2315" stop-color="#D09477"/>
<stop offset="0.6175" stop-color="#C57B61"/>
<stop offset="1" stop-color="#B85B46"/>
</radialGradient>
<clipPath id="clip0_86_287">
<rect width="1278" height="1080" fill="white"/>
</clipPath>
</defs>
</svg>
