<svg width="2000" height="1040" viewBox="0 0 2000 1040" fill="none" xmlns="http://www.w3.org/2000/svg">
<g clip-path="url(#clip0_101_1630)">
<path d="M2000 0H0V1051.12H2000V0Z" fill="#9BAFBD"/>
<path d="M86.3105 539.645C89.1905 552.705 96.5706 564.725 110.231 572.555C125.891 577.625 141.761 582.055 157.781 585.815L159.321 586.345L173.441 588.705C173.441 588.705 178.181 589.835 182.361 590.495C188.151 591.875 193.941 593.245 199.731 594.625L202.891 595.375C202.891 595.375 209.941 599.385 214.771 601.525C225.851 603.535 237.181 604.115 248.411 603.215L249.431 603.105L253.051 603.295L262.341 603.505L277.571 606.795L289.831 611.375C289.831 611.375 302.911 619.495 309.451 622.975C322.921 630.655 336.921 637.395 352.951 643.415C358.861 646.155 364.771 648.895 372.261 652.015C382.851 657.135 394.121 660.835 408.631 664.035C565.311 694.655 723.721 725.415 883.231 718.915C908.911 717.865 934.621 715.855 960.281 717.275C991.631 719.015 1042.72 725.565 1053.99 717.895C1069.36 707.435 1019.52 705.575 1000.98 704.125C962.001 701.065 923.681 689.885 888.791 665.665C895.301 656.835 906.821 652.955 917.791 652.745C928.751 652.535 939.501 655.435 950.231 657.685C1067.77 682.345 1209.98 637.985 1296.55 642.175C1303.52 642.515 1309.27 645.705 1324.1 646.715C1332.72 647.765 1341.35 648.805 1352.37 650.295C1374.07 654.185 1395.77 658.065 1420.02 661.525C1430.7 662.395 1441.37 663.265 1452.05 664.145L1454.43 664.675L1462.13 663.995C1462.13 663.995 1483.95 665.165 1497.62 665.345C1604.35 631.735 1719.73 667.135 1831.48 661.345C1843.48 660.725 1857.54 658.275 1862.82 647.485C1844.93 632.565 1827.04 617.645 1809.15 602.725C1805.1 599.345 1800.82 595.615 1799.57 590.485C1797.66 582.625 1803.94 574.775 1811.35 571.535C1818.76 568.295 1827.11 568.315 1835.13 567.285C1852.55 565.045 1869.24 557.515 1882.45 545.945C1886.82 542.115 1891.06 537.295 1891.25 531.495C1891.45 525.585 1887.35 520.375 1882.75 516.655C1857.55 496.225 1817.51 528.665 1789.01 513.175C1610.68 416.255 1559.05 495.775 1437.57 492.875C1407.3 487.575 1376.4 485.875 1338.77 488.185C1306.27 488.995 1273.77 489.795 1241.26 490.605L832.941 451.045L464.251 415.445L229.601 492.125L233.301 487.705L233.541 490.415L86.3105 539.645Z" fill="#728694"/>
<path d="M259.529 513.875C275.649 486.605 286.909 456.475 292.619 425.325Z" fill="#4E768F"/>
<path d="M1562.63 434.405L1563.02 432.935L1562.63 434.405Z" fill="#495760"/>
<path d="M1562.93 433.305L1562.83 433.675L1562.93 433.305Z" fill="#495760"/>
<path d="M1625.89 464.815L1604.69 516.775C1596.94 516.895 1589.19 517.085 1581.45 517.335C1526.5 519.195 1471.68 524.615 1417.45 533.605L1375.12 535.975L1316.59 539.255L1305.85 492.575L1317.47 431.375C1375.86 428.305 1433.95 441.495 1492.42 442.055C1534.63 442.465 1576.88 436.215 1617.17 423.635C1617.25 427.135 1625.89 464.815 1625.89 464.815Z" fill="#FDD5C8"/>
<path d="M1364.82 460.725C1421.25 466.725 1479.13 472.625 1534.07 458.425C1537.55 457.525 1541.2 456.435 1543.68 453.825C1524.82 446.845 1504.04 448.574 1483.95 449.434C1456.52 450.614 1429 450.004 1401.65 447.614C1386.67 446.304 1370.81 444.604 1357.24 451.084C1356.34 451.514 1355.42 452.005 1354.85 452.825C1353.58 454.625 1354.59 457.294 1356.39 458.564C1358.17 459.824 1360.45 460.255 1364.82 460.725Z" fill="#FEE4DB"/>
<path d="M1581.24 517.345C1583.08 516.965 1584.89 516.525 1586.69 516.005C1587.84 515.675 1589.07 515.235 1589.7 514.225C1591.04 512.045 1588.65 509.444 1586.38 508.274C1571.03 500.424 1552.53 509.065 1535.34 507.665C1534.6 503.345 1538.87 499.884 1542.9 498.154C1560.4 490.704 1581.27 496.495 1598.97 489.565C1600.22 489.075 1601.52 488.465 1602.23 487.325C1604.24 484.085 1600.11 480.495 1596.5 479.265C1576.8 472.485 1554.75 478.774 1536.78 489.304C1531.45 492.424 1526.29 495.945 1520.53 498.205C1509.92 502.365 1497.98 501.974 1486.89 499.334C1478.68 497.364 1470.62 494.185 1462.18 494.135C1452.99 494.085 1444.25 497.734 1435.39 500.184C1425.34 502.954 1414.87 504.204 1404.45 503.864C1402.62 503.804 1400.63 503.745 1399.16 504.825C1397.12 506.315 1396.94 509.275 1395.57 511.385C1393.51 514.565 1389.22 515.275 1385.44 515.375C1368.91 515.795 1352.28 509.825 1339.79 498.975C1338.65 506.325 1338.18 512.905 1339.88 519.105C1341.57 525.315 1345.89 531.194 1352.07 532.964C1354.88 533.774 1357.86 533.684 1360.79 533.584C1373.69 533.164 1386.61 532.735 1399.51 532.315C1412.68 531.875 1425.87 531.445 1438.93 529.755C1452.32 528.025 1465.54 524.965 1478.98 523.695C1485.73 523.045 1492.49 522.865 1499.27 522.785" fill="#E0AFA1"/>
<path d="M1581.45 517.335C1526.5 519.195 1471.68 524.615 1417.45 533.605L1375.12 535.975C1373.19 534.115 1372.2 531.455 1373.1 527.675C1396.65 516.855 1422.86 511.895 1448.73 513.345C1458.47 513.885 1468.19 515.335 1477.94 515.125C1498.91 514.685 1520.33 506.715 1540.38 512.875C1542.87 513.645 1545.35 514.625 1547.97 514.695C1550.4 514.745 1552.77 513.985 1555.13 513.425C1562.39 511.695 1570.08 511.755 1577.31 513.605C1578.96 514.035 1580.83 514.775 1581.33 516.405C1581.44 516.735 1581.47 517.035 1581.45 517.335Z" fill="#99685A"/>
<path d="M1597.44 466.975C1578.13 471.185 1558.75 475.055 1539.3 478.605C1538.59 476.715 1540.81 475.095 1542.65 474.275C1559.48 466.815 1576.3 459.355 1593.13 451.905C1594.07 457.245 1595.01 462.585 1597.44 466.975Z" fill="#FEE4DB"/>
<path d="M1730.71 387.345C1726.63 403.795 1718.71 419.045 1709.78 433.455C1708.61 437.745 1706.77 443.165 1706.77 443.165L1706.58 443.915C1704.64 447.745 1702.7 451.565 1700.76 455.395C1690.14 476.985 1682.33 498.985 1676.85 521.545C1675.21 528.315 1673.69 535.335 1669.71 541.055C1660.42 554.405 1640.65 556.085 1625.35 550.565C1610.04 545.045 1597.38 534.135 1583.27 526.035C1581.43 524.965 1579.31 523.535 1579.39 521.405C1579.42 520.565 1579.82 519.785 1580.2 519.025C1593.46 492.885 1594.21 460.725 1582.19 433.985C1575.82 435.285 1569.14 435.095 1562.87 433.415C1569.39 433.915 1574.66 431.755 1579.94 429.575C1578.71 423.475 1586.16 419.615 1592.1 417.765C1619.26 409.355 1645.3 397.355 1669.34 382.165C1671.24 368.615 1674.87 355.305 1680.1 342.655C1681.31 339.725 1682.71 336.695 1685.24 334.785C1687.6 333.025 1690.63 332.455 1693.55 332.015C1694.11 331.935 1694.68 331.855 1695.24 331.765C1697.27 331.475 1699.3 331.225 1701.34 331.015C1706.8 330.435 1712.28 330.095 1717.77 330.005C1719.67 329.985 1721.64 329.995 1723.34 330.825C1725.88 332.045 1727.3 334.765 1728.38 337.365C1734.82 353.085 1734.79 370.895 1730.71 387.345Z" fill="#495760"/>
<path d="M1711.52 375.455C1709.6 387.735 1705.83 399.725 1700.39 410.905C1697.36 417.115 1693.83 423.055 1690.68 429.215C1687.62 435.175 1684.92 441.315 1682.22 447.465C1669.51 476.395 1656.8 505.335 1644.1 534.265C1642.17 534.225 1640.24 534.195 1638.31 534.155C1642.86 519.665 1649.12 505.705 1656.92 492.665C1658.83 488.435 1660.46 484.925 1662.08 481.415C1671.5 455.725 1684 432.485 1696.16 409.195C1699.23 403.335 1702.28 397.425 1704.08 391.075C1706.77 381.545 1706.51 371.465 1706.04 361.575C1705.72 355.155 1705.3 348.605 1702.88 342.655C1701.2 338.525 1698.56 334.775 1695.26 331.795C1697.29 331.505 1699.32 331.255 1701.36 331.045C1701.83 331.825 1702.25 332.645 1702.66 333.445C1706.84 341.565 1711.09 349.915 1712.21 358.985C1712.88 364.455 1712.38 370.005 1711.52 375.455Z" fill="#576975"/>
<path d="M1574.75 426.955C1575.06 427.645 1575.37 428.335 1575.68 429.025C1580.73 424.735 1586.09 420.295 1592.6 419.025C1595.23 418.515 1598.06 418.505 1600.33 417.095C1601.19 416.565 1601.94 415.845 1602.87 415.445C1603.96 414.985 1605.21 415.015 1606.38 415.215C1607.41 415.385 1608.44 415.685 1609.48 415.595C1610.52 415.495 1611.61 414.875 1611.84 413.855C1612.07 412.835 1610.95 411.665 1610.01 412.135C1612.27 411.115 1614.53 410.085 1616.79 409.065C1618.4 408.335 1620.2 407.595 1621.87 408.175C1622.81 408.505 1623.58 409.225 1624.53 409.485C1625.49 409.745 1626.8 409.185 1626.7 408.195C1626.61 407.245 1625.39 406.915 1624.44 406.835C1627.5 405.065 1630.94 403.945 1634.46 403.575C1637.03 403.305 1640.15 403.125 1641.32 400.815C1641.78 399.905 1641.9 398.695 1642.8 398.215C1643.36 397.915 1644.04 398.005 1644.68 398.035C1646.97 398.125 1649.29 397.085 1650.75 395.315C1651.39 394.535 1651.89 393.615 1652.75 393.085C1653.31 392.745 1653.97 392.605 1654.61 392.445C1656.95 391.895 1659.32 391.035 1661.01 389.335C1661.68 388.665 1662.22 387.875 1662.92 387.225C1664.66 385.615 1667.11 385.065 1669.23 384.005C1669.68 383.775 1670.15 383.505 1670.41 383.065C1671.19 381.745 1669.43 380.135 1667.92 380.375C1666.41 380.615 1665.3 381.865 1664.21 382.935C1662.69 384.415 1660.97 385.665 1659.25 386.915C1658.41 387.525 1657.57 388.135 1656.61 388.535C1655.44 389.025 1654.12 389.165 1653.02 389.805C1650.97 391.005 1650.07 393.685 1647.92 394.685C1646.19 395.495 1644.04 395.005 1642.37 395.945C1640.93 396.755 1640.21 398.435 1638.91 399.455C1638.03 400.135 1636.94 400.475 1635.87 400.795C1633.1 401.625 1630.32 402.405 1627.52 403.145C1624.48 403.945 1621.42 404.695 1618.44 405.705C1614.34 407.085 1610.41 408.945 1606.74 411.225C1605.65 411.905 1604.55 412.635 1603.29 412.895C1602.03 413.155 1600.55 412.835 1599.84 411.765C1598.16 412.895 1596.52 414.075 1594.91 415.305C1595.11 414.175 1594.03 413.145 1592.89 412.965C1591.76 412.785 1590.63 413.215 1589.56 413.645C1587.87 414.315 1585.82 415.755 1586.52 417.435C1586.77 418.035 1587.37 418.665 1587.03 419.225C1586.87 419.495 1586.54 419.615 1586.24 419.705C1584.59 420.235 1582.95 420.755 1581.3 421.285C1579.46 421.875 1577.55 422.505 1576.17 423.855C1574.8 425.225 1574.14 427.525 1574.75 426.955Z" fill="#2F3943"/>
<path d="M256.81 420.665C267.55 430.075 281.57 436.025 296.22 437.395C290.74 448.645 291.25 461.445 290.33 473.735C289.66 482.765 288.15 491.755 285.85 500.565C285.63 501.395 285.35 502.305 284.58 502.765C283.34 503.505 281.81 502.595 280.71 501.725C270.9 493.985 261.1 486.245 251.29 478.505C249.62 477.185 247.86 475.745 247.27 473.735C246.43 470.855 248.26 467.915 249.08 464.995C249.8 462.455 249.75 459.805 249.77 457.195C249.86 444.715 251.51 432.225 256.81 420.665Z" fill="#E0AFA1"/>
<path d="M1699.12 551.565L1671.91 596.435L1663.08 611.005C1614.95 609.665 1567.09 614.555 1519.33 621.135C1484 625.995 1448.72 631.785 1413.44 636.645C1400.78 638.385 1387.87 639.995 1375.21 639.005C1371.16 638.675 1367.13 638.095 1363.15 637.145L1363.03 633.915L1362.77 626.815L1361.88 602.925L1358.98 524.945C1393.69 522.965 1428.57 523.955 1463.12 527.865C1478.1 529.555 1493.03 531.815 1508.05 533.055C1562.77 537.585 1617.68 528.705 1671.55 518.105C1673.18 520.005 1699.12 551.565 1699.12 551.565Z" fill="#FDD5C8"/>
<path d="M1442.91 550.095C1500.26 556.305 1558.14 562.525 1615.5 556.375C1622.32 555.645 1630.47 553.665 1632.51 547.125C1615.1 543.645 1597.24 543.345 1579.5 543.065C1537.25 542.385 1494.99 541.695 1452.74 541.015C1447.56 540.935 1441.66 541.155 1438.29 545.095C1437.18 546.375 1437.38 549.495 1442.91 550.095Z" fill="#FEE4DB"/>
<path d="M1677.76 563.105C1676.66 565.745 1674.61 567.855 1672.42 569.685C1660.27 579.865 1643.7 582.785 1627.9 584.105C1612.1 585.435 1595.81 585.644 1581.16 591.714C1567.53 597.354 1556.32 607.684 1542.94 613.904C1535.43 617.414 1527.46 619.514 1519.33 621.134C1484 625.994 1448.72 631.784 1413.44 636.644C1400.78 638.384 1387.87 639.994 1375.21 639.004C1370.98 637.674 1366.89 635.985 1363.03 633.915L1362.77 626.815L1361.88 602.925C1377.11 604.055 1392.63 601.455 1406.63 595.345C1417.39 590.645 1427.2 583.965 1438.01 579.355C1471.45 565.105 1509.53 572.214 1545.68 576.004C1555.72 577.064 1565.96 577.835 1575.83 575.745C1583.32 574.165 1590.46 570.975 1598.07 570.155C1605.72 569.325 1613.4 570.934 1621.08 571.584C1633.01 572.594 1645.13 571.244 1656.55 567.644C1663.5 565.474 1670.51 562.405 1677.76 563.105Z" fill="#E0AFA1"/>
<path d="M1671.91 596.435L1663.08 611.005C1579.35 608.665 1496.42 625.225 1413.44 636.645C1396.73 638.945 1379.57 641.025 1363.15 637.145L1362.77 626.815C1421.04 624.085 1477.94 607.295 1535.99 600.535C1562.53 597.445 1589.27 596.465 1615.98 595.485C1634.64 594.815 1653.42 594.135 1671.91 596.435Z" fill="#99685A"/>
<path d="M1366.27 625.805C1366.01 603.945 1365.76 582.065 1365.49 560.195C1365.42 554.135 1365.32 547.965 1364.37 542.005C1363.71 537.865 1362.64 533.845 1360.89 530.025C1358.22 524.205 1354.09 519.205 1350.74 513.745C1335.77 489.375 1337.51 458.665 1337.57 429.665C1312.53 426.425 1287.48 423.185 1262.43 419.945C1245.06 417.705 1227.67 415.455 1210.56 411.755C1189.67 407.235 1169.33 400.565 1148.75 394.795C1116.7 385.815 1084.09 379.015 1051.49 372.215C973.03 355.855 893.06 339.405 813.32 347.445C769.67 351.845 726.53 363.555 684.65 362.445C667.92 364.295 650.96 365.245 634.28 362.985C602.54 358.705 573.39 343.165 541.1 335.665C534.22 334.715 527.35 333.775 519.67 333.525C503.41 329.625 486.16 331.315 470.14 336.135C454.11 340.955 439.16 348.775 425.86 355.715C382.62 383.225 337.37 407.575 289.12 426.515C286.16 427.685 283.17 428.825 280.19 429.935C280.14 429.955 280.09 429.975 280.03 430.005C280.05 430.175 280.09 430.345 280.11 430.525V430.535C282.61 448.855 279.18 467.895 270.64 484.275V484.285C269.13 487.165 267.48 489.955 265.66 492.645C263.96 495.165 262.1 497.695 261.46 500.665C260.85 503.465 261.42 506.365 261.97 509.165C262.5 511.795 263.03 514.445 263.58 517.085V517.095C264.5 521.505 265.47 525.915 266.56 530.205C271.27 549.065 277.94 565.775 290.53 571.785C292.95 579.585 295.47 587.575 299.32 594.725C301.31 598.445 303.65 601.915 306.52 605.035C306.53 605.045 306.55 605.064 306.56 605.074C310.33 609.164 314.88 612.475 319.5 615.585C323.2 618.095 326.99 620.514 331.07 622.324C335.71 624.374 340.65 625.635 345.56 626.865C353.11 628.755 360.67 630.664 368.62 632.504C392.76 638.794 417.32 643.525 442.07 646.645C448.62 647.475 455.17 648.185 461.73 648.985C467.89 649.735 474.05 650.554 480.16 651.764C485.55 652.834 490.9 654.195 496.3 655.245C523.46 660.485 552.33 657.475 577.47 667.225C600.47 672.465 623.49 677.695 646.5 682.925C652.69 684.335 658.89 685.745 665.18 686.565C672.69 687.535 680.28 687.674 687.82 688.324C723.51 691.444 758.78 706.365 794.1 700.295C800.76 699.145 807.3 697.265 814.02 696.535C821.62 695.705 829.35 696.365 836.05 696.315C837.99 696.295 839.85 696.215 841.59 696.035C843.41 695.555 845.16 694.805 846.77 693.815C848.23 692.945 849.57 691.875 850.76 690.655C851.32 690.095 851.83 689.495 852.31 688.875C852.39 688.765 852.47 688.655 852.56 688.545C852.36 688.585 852.18 688.625 851.98 688.655C850.93 688.835 849.88 688.865 848.85 688.735C843.2 688.115 838.11 683.355 834.97 678.225C834.94 678.165 834.9 678.095 834.85 678.035C831.12 671.815 828.87 664.365 830.39 657.285C831.96 649.995 837.25 644.115 843.33 639.685C844.48 638.845 850.45 633.905 857.29 633.875C859.46 633.865 861.61 634.395 863.63 635.725C862.74 634.975 861.84 634.215 860.92 633.475C856.69 630.065 852.13 626.985 846.82 626.295C843.5 625.865 840.13 626.424 836.77 626.324C836.43 626.314 836.11 626.305 835.77 626.275C832.73 626.055 829.77 625.125 829.33 623.105C822.44 620.885 815.57 618.655 808.69 616.435C806.99 615.875 805.29 615.335 803.58 614.775C805.91 614.975 808.25 615.154 810.59 615.324C810.94 615.354 811.28 615.375 811.63 615.395C812.88 615.495 814.13 615.585 815.39 615.655C816.72 615.755 818.06 615.835 819.4 615.925C819.46 615.925 819.52 615.925 819.58 615.935C822.95 616.145 826.33 616.335 829.7 616.475C830.7 616.535 831.7 616.585 832.7 616.625C833.35 616.645 834 616.674 834.64 616.694C836.18 616.764 837.73 616.825 839.27 616.875C840.39 616.915 841.51 616.945 842.63 616.975C844.05 617.025 845.47 617.055 846.89 617.085C847.47 617.105 848.06 617.115 848.65 617.125C850.44 617.165 852.22 617.195 854 617.215C857.1 617.255 860.19 617.275 863.29 617.275C893.92 617.265 924.53 615.294 955.09 613.324C1008.5 609.884 1061.89 606.454 1115.29 603.004C1127.71 602.204 1140.17 601.405 1152.59 602.145C1191 604.395 1226.97 621.065 1264.6 629.095C1294.89 635.565 1326.05 636.405 1353.91 637.285C1353.96 637.295 1354.09 637.315 1354.29 637.345C1355.19 637.475 1356.1 637.605 1357 637.745C1360.15 638.225 1363.29 638.695 1366.43 639.165C1366.38 634.715 1366.33 630.265 1366.27 625.805ZM706.98 609.845C687.51 604.305 668.93 596.105 650.06 586.305C647.89 585.175 645.72 584.035 643.53 582.865C684.14 595.905 725.91 605.305 768.18 610.935C773.09 611.595 778 612.195 782.92 612.745C781.52 612.995 780.12 613.275 778.72 613.555C777.12 613.885 775.52 614.225 773.93 614.535C773.84 614.555 773.76 614.565 773.67 614.585C751.58 618.755 728.62 616.005 706.98 609.845Z" fill="#709EB8"/>
<path d="M252.75 449.705C255.89 454.185 260.55 457.425 265.54 459.675C270.53 461.925 275.87 463.265 280.72 464.605C277.76 476.575 273.69 488.275 268.59 499.505C267.53 501.835 266.09 504.435 263.57 504.935C260.11 505.625 257.47 501.995 255.88 498.845C249.49 486.185 244.11 472.385 245.06 458.235C245.21 456.065 245.54 453.785 246.86 452.055C248.18 450.325 250.76 449.385 252.75 449.705Z" fill="#C78D7D"/>
<path d="M266.56 530.205C265.47 525.915 264.5 521.505 263.59 517.095V517.085C266.1 506.185 268.46 495.255 270.65 484.285V484.275C279.19 467.895 282.62 448.845 280.12 430.535V430.525C280.15 430.335 280.18 430.135 280.2 429.945L289.13 426.515C290.67 462.235 282.84 498.385 266.56 530.205Z" fill="#263F4F"/>
<path d="M140.231 380.055C159.521 377.145 179.191 378.945 198.581 381.145C223.041 383.915 247.431 387.305 271.721 391.315C281.681 392.955 291.711 394.725 301.081 398.485C310.451 402.245 319.221 408.175 324.731 416.635C325.311 417.525 325.871 418.505 325.871 419.575C325.861 421.135 324.661 422.405 323.501 423.445C313.951 432.035 301.661 437.265 289.001 439.435C276.341 441.615 263.311 440.845 250.691 438.465C242.781 436.975 234.991 434.845 227.421 432.115C203.331 423.435 181.651 408.725 157.151 401.285C151.891 399.685 146.301 398.315 142.221 394.635C138.121 390.965 136.311 384.045 140.231 380.055Z" fill="#421D13"/>
<path d="M280.9 443.925C278.51 444.385 276.04 444.555 273.61 444.615C269.64 444.715 265.62 444.575 261.82 443.455C262.24 439.475 263.04 435.535 264.3 430.635C268.7 435.505 274.57 439.035 280.91 440.725" fill="#C78D7D"/>
<path d="M360.821 475.155C396.371 433.535 435.581 390.495 488.251 375.595C474.741 368.605 458.821 367.385 443.761 369.505C428.701 371.625 414.281 376.875 400.071 382.295C393.111 384.945 386.121 387.675 379.841 391.685C372.301 396.505 366.031 403.025 359.841 409.475C355.691 413.795 351.331 418.575 350.681 424.525C350.281 428.175 351.361 431.805 352.421 435.325C355.421 445.285 358.441 455.255 360.821 475.155Z" fill="#8BB0C5"/>
<path d="M267.29 433.545L259.92 448.895L257.6 453.725L220.73 455.995L180.39 448.535L138.11 438.845L127.34 416.745L143.9 388.675C145.03 388.235 146.19 387.895 147.37 387.655C147.37 387.655 147.37 387.655 147.38 387.655C152 386.705 156.92 387.215 161.22 389.155C161.61 389.325 162 389.515 162.41 389.595C162.53 389.625 162.68 389.645 162.81 389.645C163.66 389.655 164.4 389.105 165.07 388.565C168.42 385.885 171.65 383.045 174.74 380.065C176.62 378.245 178.69 376.255 181.3 376.115C181.74 376.095 182.17 376.115 182.6 376.195C184.29 376.485 185.85 377.485 187.29 378.565C187.53 378.725 187.76 378.915 188 379.085C188.71 379.625 189.42 380.175 190.12 380.705C192.09 382.205 194.05 383.655 195.99 384.995C196 385.005 196.01 385.005 196.02 385.015C199.08 385.755 202.14 384.595 205.23 383.795C206.77 383.385 208.32 383.075 209.88 383.115C210.67 383.135 211.46 383.255 212.23 383.475C212.81 383.635 213.39 383.865 213.93 384.145C214.64 384.505 215.3 384.955 215.92 385.505C216.2 385.425 216.47 385.345 216.76 385.265C218.5 384.795 220.34 384.575 222.12 384.745C222.13 384.745 222.13 384.745 222.13 384.745C223.22 384.835 224.28 385.075 225.28 385.485C225.8 385.695 226.3 385.945 226.78 386.255C227.7 386.845 228.5 387.615 229.39 388.265C229.78 388.555 230.19 388.825 230.62 389.065C230.79 389.175 230.97 389.285 231.15 389.375C231.74 389.685 232.36 389.945 233 390.165C233.5 390.335 234.04 390.485 234.57 390.485C235.01 390.495 235.45 390.395 235.9 390.335C237.73 390.095 239.59 390.505 241.44 390.405C242.18 390.365 242.92 390.235 243.66 390.305C243.83 390.325 244 390.345 244.16 390.385C244.39 390.425 244.6 390.485 244.82 390.555C245.23 390.685 245.63 390.865 246.03 391.035C247.05 391.475 248.05 391.955 249 392.545C249.52 392.885 250.03 393.225 250.53 393.595C257.09 398.305 262.1 405.155 264.54 412.865C266.63 419.515 266.85 426.585 267.29 433.545Z" fill="#FDD5C8"/>
<path d="M212.219 383.485C212.149 383.635 212.069 383.785 211.979 383.925C209.729 387.805 207.449 391.705 206.009 395.955C204.579 400.205 205.419 404.795 204.959 408.075C204.779 409.355 204.599 410.635 204.419 411.925C202.959 411.925 201.779 410.745 201.029 409.495C198.069 404.575 199.359 398.285 200.999 392.775C201.739 390.295 202.549 387.805 203.899 385.595C204.289 384.965 204.729 384.365 205.219 383.805C206.759 383.395 208.309 383.085 209.869 383.125C210.659 383.145 211.449 383.265 212.219 383.485Z" fill="#E0AFA1"/>
<path d="M162.4 389.594C162.38 389.774 162.33 389.944 162.26 390.104C161.9 390.914 161.11 391.444 160.33 391.884C156.64 393.964 152.09 394.984 148.12 393.494C148.2 394.044 147.04 393.584 146.27 392.704C145.49 391.824 145.18 390.474 145.72 389.434C145.98 388.934 146.41 388.534 146.83 388.144C147 387.984 147.18 387.814 147.36 387.654C147.36 387.654 147.36 387.654 147.37 387.654C151.99 386.704 156.91 387.214 161.21 389.154C161.6 389.324 161.99 389.514 162.4 389.594Z" fill="#99685A"/>
<path d="M154.999 411.825C152.369 420.025 149.169 421.495 144.209 426.275C145.319 422.375 148.149 419.255 150.589 416.015C153.029 412.775 154.119 407.875 155.089 403.445C155.259 404.955 155.559 410.095 154.999 411.825Z" fill="#99685A"/>
<path d="M216.75 385.275C212.83 388.215 209.07 391.785 208.14 396.545C207.67 398.975 208 401.475 208.08 403.955C208.13 405.195 208.1 406.485 207.56 407.605C207.01 408.715 205.82 409.605 204.59 409.415C203.48 409.245 202.65 408.245 202.33 407.165C202.02 406.085 202.14 404.935 202.28 403.835C202.99 398.305 204.37 392.695 207.62 388.175C208.65 386.725 209.91 385.385 211.53 384.675C212.24 384.355 213.03 384.195 213.92 384.155C214.63 384.515 215.29 384.965 215.91 385.515C216.19 385.425 216.46 385.345 216.75 385.275Z" fill="#99685A"/>
<path d="M216.81 385.625C211.98 388.525 208.71 393.865 208.3 399.485C208.17 401.235 208.31 402.985 208.45 404.735C208.55 406.035 208.65 407.335 208.75 408.635C208.8 409.265 208.98 410.055 209.6 410.185C210.36 410.335 210.79 409.345 210.89 408.575C211.36 405.085 211.18 401.525 211.64 398.035C212.1 394.545 213.31 390.955 215.98 388.655C217.31 387.505 219.04 386.615 219.65 384.965C218.29 384.855 216.89 385.385 216.81 385.625Z" fill="#FEE4DB"/>
<path d="M165.799 418.694C169.689 415.304 173.899 412.275 178.359 409.675C179.399 409.065 180.639 408.464 181.769 408.884C181.949 408.954 182.139 409.064 182.219 409.244C182.349 409.544 182.139 409.864 181.939 410.114C177.979 415.034 172.949 419.094 167.299 421.914C166.039 422.544 164.689 423.124 163.289 423.034C162.819 423.004 162.279 422.824 162.169 422.374C162.079 421.984 162.359 421.604 162.649 421.314C163.599 420.364 164.759 419.604 165.799 418.694Z" fill="#FEE4DB"/>
<path d="M231.19 392.804C228.87 394.694 226.99 397.114 225.72 399.824C224.64 402.144 224.03 404.924 225.13 407.234C225.29 407.584 225.54 407.944 225.91 408.024C226.55 408.164 227.01 407.434 227.23 406.814C228.43 403.494 228.92 399.834 231.04 397.004C231.51 396.384 232.05 395.804 232.42 395.114C232.79 394.424 232.96 393.574 232.64 392.864C232.05 392.774 231.44 392.914 231.19 392.804Z" fill="#FEE4DB"/>
<path d="M165.69 391.224C169.1 388.874 172.25 386.154 175.09 383.144C175.53 382.674 175.99 382.045 175.74 381.455C175.08 381.365 174.49 381.824 173.98 382.254C171.53 384.354 169.08 386.444 166.63 388.544C165.48 389.534 164.28 390.584 163.76 392.004C164.25 392.084 164.73 391.884 165.69 391.224Z" fill="#FEE4DB"/>
<path d="M157.391 413.014C158.281 412.544 159.001 411.794 159.891 411.314C160.781 410.844 162.021 410.734 162.691 411.484C163.021 411.854 163.161 412.374 163.491 412.744C164.211 413.534 165.501 413.324 166.491 412.934C168.091 412.304 169.561 411.354 170.801 410.154C171.691 409.284 172.501 408.264 173.641 407.764C172.131 407.174 170.621 406.594 169.111 406.004C167.311 405.304 165.321 404.604 163.491 405.214C162.011 405.714 160.941 406.974 159.941 408.184C158.751 409.624 157.501 411.254 157.391 413.014Z" fill="#E0AFA1"/>
<path d="M184.01 393.025C184.32 394.465 184.26 396.075 183.4 397.265C182.96 397.885 182.33 398.345 181.73 398.785C180.71 399.525 179.44 400.275 177.94 399.535C179.64 398.275 180.45 396.045 180.44 393.925C180.44 391.805 179.72 389.745 178.86 387.795C178.28 386.455 177.6 385.095 177.48 383.635C177.33 381.795 178.07 379.955 179.3 378.575C180.2 377.545 181.35 376.765 182.6 376.205C184.29 376.495 185.85 377.495 187.29 378.575C185.84 379.605 183.93 380.065 182.89 381.505C182.16 382.535 182.02 383.865 182.06 385.125C182.1 386.375 182.31 387.625 182.67 388.835C183.08 390.235 183.71 391.595 184.01 393.025Z" fill="#E0AFA1"/>
<path d="M231.139 389.375C231.109 389.545 231.059 389.725 230.989 389.885C230.579 390.855 229.609 391.445 228.749 392.055C222.219 396.825 220.999 406.705 214.329 411.275C216.089 407.655 216.099 403.205 214.349 399.575C213.939 398.745 213.449 397.935 213.239 397.035C212.799 395.135 213.719 393.185 214.869 391.605C216.829 388.895 219.439 386.765 222.109 384.745C222.119 384.745 222.119 384.745 222.119 384.745C223.769 384.875 225.369 385.365 226.769 386.255C227.689 386.845 228.489 387.615 229.379 388.265C229.929 388.685 230.529 389.045 231.139 389.375Z" fill="#E0AFA1"/>
<path d="M249.499 402.415C247.609 409.385 245.529 416.305 243.259 423.155C242.339 425.925 241.369 428.715 239.929 431.255C236.609 437.105 230.939 441.145 224.539 443.335C220.949 444.565 217.119 445.215 213.359 445.255C202.879 445.375 192.739 441.555 183.339 436.915C179.259 434.905 175.169 432.655 173.379 427.675C178.209 423.625 183.849 420.545 189.879 418.695C193.039 417.725 196.459 417.085 199.629 418.035C202.429 418.885 204.709 420.885 207.229 422.365C210.749 424.415 214.839 425.485 218.919 425.405C220.459 425.375 222.039 425.165 223.399 424.445C225.699 423.225 226.999 420.755 228.189 418.425C232.149 410.665 236.269 402.965 240.559 395.375C241.579 393.595 242.639 391.755 244.139 390.395C244.369 390.435 244.579 390.495 244.799 390.565C245.209 390.695 245.609 390.875 246.009 391.045C247.029 391.485 248.029 391.965 248.979 392.555C249.499 392.895 250.009 393.235 250.509 393.605C250.999 396.455 250.269 399.545 249.499 402.415Z" fill="#E0AFA1"/>
<path d="M195.98 384.994C195.97 385.394 195.82 385.784 195.48 386.024C194.9 386.444 194.07 386.244 193.39 386.014C192.51 385.724 191.63 385.444 190.74 385.154C189.51 384.754 188.21 384.354 186.93 384.634C185.01 385.044 183.71 387.034 183.64 388.994C183.57 390.954 184.54 392.834 185.85 394.294C186.41 394.924 187.07 395.544 187.19 396.374C187.36 397.444 186.57 398.434 185.68 399.044C183.69 400.384 180.92 400.434 179.23 399.724C180.46 399.024 181.75 398.254 182.4 397.004C183.54 394.784 182.23 392.184 181.18 389.934C180.29 388.014 179.57 385.934 179.76 383.834C179.94 381.744 181.24 379.614 183.27 379.024C185.21 378.454 187.26 379.354 189.09 380.224C189.43 380.384 189.78 380.554 190.12 380.714C192.09 382.204 194.04 383.664 195.98 384.994Z" fill="#99685A"/>
<path d="M230.611 389.075C229.331 390.335 227.451 390.695 225.861 391.535C224.561 392.215 223.431 393.215 222.081 393.795C220.731 394.375 218.961 394.405 217.991 393.295C217.311 392.535 217.21 391.335 217.73 390.465C218.05 389.955 218.541 389.575 219.021 389.205C220.961 387.725 222.98 386.225 225.28 385.505C225.8 385.715 226.3 385.965 226.78 386.275C227.7 386.865 228.5 387.635 229.39 388.285C229.77 388.555 230.181 388.835 230.611 389.075Z" fill="#99685A"/>
<path d="M267.29 433.544L259.92 448.894C256.69 450.204 253.11 450.324 249.62 450.364C244.57 450.434 239.44 450.384 234.61 448.864C230.83 447.674 227.42 445.634 224.54 443.334C223 442.104 221.62 440.804 220.4 439.514C230.52 429.604 237.79 416.814 241.13 403.054C242.08 399.124 242.73 395.084 244.39 391.394C244.51 391.114 244.66 390.834 244.81 390.554C245.22 390.684 245.62 390.864 246.02 391.034C247.04 391.474 248.04 391.954 248.99 392.544C249.51 392.884 250.02 393.224 250.52 393.594C257.08 398.304 262.09 405.154 264.53 412.864C266.63 419.514 266.85 426.584 267.29 433.544Z" fill="#99685A"/>
<path d="M1859.26 513.555C1858.5 520.625 1857.03 527.695 1854.76 534.455C1851.03 545.535 1845.12 555.765 1836.62 563.725C1834.49 572.085 1829.14 575.885 1824.03 579.425C1805.64 592.135 1787.22 604.865 1767.78 615.895C1763.84 618.135 1759.86 620.295 1756.22 622.985C1753.18 625.235 1750.42 627.805 1747.41 630.085C1738.96 636.475 1728.88 640.255 1718.96 643.965C1715.35 646.955 1712.78 646.315 1710.35 645.795C1705.78 644.825 1701.11 644.305 1696.44 644.285C1694.96 644.275 1693.45 644.315 1692.04 643.875C1691.86 643.815 1691.68 643.755 1691.51 643.685C1690.82 643.415 1690.19 643.055 1689.55 642.715C1686.99 641.285 1684.43 639.865 1681.87 638.435C1681.3 637.605 1680.62 636.905 1679.86 636.305C1677.57 634.465 1674.65 633.445 1672.19 631.895C1670.12 630.595 1668.33 628.885 1666.42 627.385C1662.36 624.215 1657.68 621.925 1652.87 620.095C1651.53 619.585 1650.16 619.085 1648.82 618.555C1647.46 618.005 1646.11 617.395 1644.84 616.645C1642.34 615.145 1640.11 612.965 1639.23 610.185C1639.99 610.975 1640.31 610.255 1640.31 610.255C1646.18 612.805 1653.28 609.725 1657.26 604.705C1661.23 599.695 1662.75 593.215 1663.93 586.935C1665.72 577.375 1666.9 566.985 1662.46 558.325C1658.45 550.475 1650.57 545.485 1644.7 538.935C1642.85 536.875 1641.11 534.385 1641.29 531.625C1641.63 526.485 1647.96 524.185 1650.78 519.875C1677.17 510.615 1706.08 510.065 1732.83 501.435C1750.18 495.825 1766.5 486.765 1779.99 474.495C1784.57 470.315 1788.83 465.775 1793.07 461.245C1800.13 453.725 1807.17 446.195 1814.22 438.685C1814.37 438.645 1814.52 438.595 1814.67 438.565C1817.67 437.695 1820.66 437.115 1823.65 436.725C1829.76 435.915 1835.87 435.905 1841.9 435.905C1845.16 435.905 1849.14 436.355 1850.43 439.345C1854.19 444.765 1855.17 451.225 1856.08 457.605C1858.76 476.115 1861.26 494.915 1859.26 513.555Z" fill="#495760"/>
<path d="M1854.76 534.455C1851.03 545.535 1845.12 555.765 1836.62 563.725C1834.49 572.085 1829.14 575.885 1824.03 579.425C1805.64 592.135 1787.22 604.865 1767.78 615.895C1763.84 618.135 1759.86 620.295 1756.22 622.985C1753.18 625.235 1750.42 627.805 1747.41 630.085C1738.96 636.475 1728.88 640.255 1718.96 643.965C1715.35 646.955 1712.78 646.315 1710.35 645.795C1705.78 644.825 1701.11 644.305 1696.44 644.285C1694.96 644.275 1693.45 644.315 1692.04 643.875C1691.86 643.815 1691.68 643.755 1691.51 643.685C1690.82 643.415 1690.19 643.055 1689.55 642.715C1686.99 641.285 1684.43 639.865 1681.87 638.435C1681.3 637.605 1680.62 636.905 1679.86 636.305C1677.57 634.465 1674.65 633.445 1672.19 631.895C1670.12 630.595 1668.33 628.885 1666.42 627.385C1662.36 624.215 1657.68 621.925 1652.87 620.095C1651.53 619.585 1650.16 619.085 1648.82 618.555C1654.21 617.815 1659.39 615.055 1663.84 611.765C1669.7 607.405 1674.77 602.025 1680.89 598.025C1681.53 597.605 1682.22 597.195 1682.98 597.215C1684.19 597.265 1685.05 598.405 1685.69 599.455C1688.25 603.645 1690.38 608.155 1693.42 612.015C1696.48 615.885 1700.7 619.155 1705.59 619.685C1711.99 620.375 1717.85 616.375 1723.13 612.695C1729.95 607.935 1736.9 603.395 1744 599.055C1751.33 594.585 1758.83 590.325 1766.8 587.105C1774.7 583.915 1782.96 581.775 1791.05 579.055C1792.65 578.525 1794.23 577.955 1795.81 577.365C1803.89 574.315 1811.82 570.195 1817.83 564.095C1818.93 562.985 1819.96 561.805 1820.92 560.565C1823.26 557.515 1825.12 554.095 1827.71 551.255C1830.55 548.145 1834.15 545.865 1837.77 543.695C1843.3 540.365 1848.97 537.295 1854.76 534.455Z" fill="#2F3943"/>
<path d="M1825.8 553.395C1823.3 556.315 1821.23 559.265 1819.14 562.205C1818.71 562.825 1818.26 563.445 1817.82 564.065C1814.05 569.265 1809.73 574.375 1803.67 576.155C1803.69 576.225 1803.65 576.585 1803.65 576.585C1776.58 595.225 1749.2 613.405 1721.52 631.105C1714.86 635.365 1708.08 639.635 1700.53 641.945C1698.35 642.615 1696.1 643.105 1693.84 643.435C1693.08 643.545 1692.3 643.615 1691.52 643.675C1690.83 643.405 1690.2 643.045 1689.56 642.705C1687 641.275 1684.44 639.855 1681.88 638.425C1681.31 637.595 1680.63 636.895 1679.87 636.295C1680.58 636.225 1681.28 636.175 1681.98 636.155C1691.9 641.915 1703.9 635.485 1713.51 629.265C1739.36 612.525 1765.2 595.775 1791.05 579.035C1794.44 576.825 1797.85 574.635 1801.24 572.425C1804.44 570.355 1807.66 568.265 1810.52 565.735C1817.7 559.425 1822.36 550.555 1824.5 541.245C1828.64 516.025 1829.43 486.965 1826.44 458.305C1825.95 453.565 1825.29 448.675 1822.81 444.605C1821.02 441.645 1817.98 439.235 1814.67 438.535C1817.67 437.665 1820.66 437.085 1823.65 436.695C1824.14 437.535 1824.56 438.405 1824.92 439.255C1831.03 453.695 1832.55 469.615 1833.54 485.265C1834.97 508.315 1835.21 532.315 1825.8 553.395Z" fill="#576975"/>
<path d="M1789.86 522.655C1789.67 521.185 1789.07 519.815 1788.49 518.465C1787 515.085 1785.53 511.685 1784.05 508.295C1784.05 508.295 1783.7 507.875 1782.89 506.025C1782.45 504.985 1782.01 503.965 1781.26 502.605C1779.83 495.535 1776.63 488.845 1772.04 483.295C1769.63 485.575 1768.96 489.135 1768.81 492.445C1768.67 495.765 1768.87 499.195 1767.71 502.305C1766.8 501.665 1766.26 500.645 1765.53 499.815C1764.8 498.995 1763.6 498.345 1762.61 498.835C1761.6 499.335 1761.41 500.775 1761.87 501.795C1762.33 502.835 1763.24 503.555 1764.06 504.335C1768.63 508.645 1770.82 515.355 1769.68 521.535C1769.65 521.695 1769.6 521.885 1769.46 521.975C1769.21 522.145 1768.89 521.955 1768.66 521.755C1766.92 520.265 1765.16 518.785 1763.42 517.285C1762.59 516.585 1761.75 515.855 1761.16 514.935C1760.66 514.125 1760.38 513.215 1760.1 512.295C1758.71 507.675 1757.3 502.865 1758.01 498.105C1758.34 495.875 1759.03 493.285 1757.5 491.625C1757.35 491.465 1757.17 491.305 1756.96 491.245C1756.19 491.025 1755.66 491.985 1755.45 492.745C1754.28 497.055 1753.58 501.485 1753.38 505.935C1752.8 506.375 1751.95 505.925 1751.49 505.375C1751.02 504.815 1750.65 504.095 1749.97 503.845C1748.59 503.325 1747.38 505.275 1747.85 506.665C1748.31 508.055 1749.66 508.935 1750.76 509.895C1756.32 514.735 1756.89 523.025 1757.07 530.395C1752.78 526.715 1748.86 522.615 1745.4 518.145C1744.76 517.325 1744.12 516.445 1743.93 515.415C1743.76 514.445 1744.03 513.435 1744.25 512.465C1745.22 508.135 1745.21 503.585 1744.22 499.255L1744.43 499.085C1744.43 499.085 1744 497.855 1744 497.655C1744.02 497.645 1744.03 497.655 1744.05 497.655C1744.02 497.615 1744.01 497.615 1744 497.645C1742.86 497.485 1741.67 497.645 1740.62 498.105C1739.32 502.795 1739.04 507.755 1739.79 512.565C1738.26 510.875 1736.49 509.115 1734.22 508.885C1733.19 508.775 1731.97 509.155 1731.67 510.135C1731.24 511.465 1732.73 512.575 1733.97 513.235C1736.42 514.515 1738.92 516.105 1740.1 518.595C1741.3 521.125 1740.92 524.075 1740.81 526.435C1740.71 528.605 1740.6 530.795 1740.5 532.975C1738.97 528.405 1733.62 526.035 1731.84 521.545C1730.89 519.155 1731.09 516.495 1731.12 513.925C1731.17 509.395 1730.66 504.855 1729.58 500.445C1728.45 500.155 1727.67 501.555 1727.4 502.685C1726.32 506.995 1725.87 511.455 1726.08 515.885C1724.88 516.425 1723.65 515.195 1722.97 514.055C1722.3 512.915 1721.41 511.545 1720.1 511.675C1718.61 511.825 1717.37 513.955 1716.09 513.165C1715.67 515.015 1717.72 516.355 1719.32 517.375C1723.24 519.845 1726.18 523.815 1727.41 528.275C1727.79 529.655 1728 531.165 1727.53 532.535C1727.05 533.895 1725.7 535.045 1724.28 534.885C1721.71 534.595 1720.65 530.715 1717.88 530.055C1716.22 529.615 1714.97 528.165 1714.32 526.565C1713.67 524.975 1713.54 523.225 1713.41 521.505C1713.26 519.465 1713.1 517.425 1712.95 515.375C1712.85 514.055 1712.82 512.535 1713.77 511.615C1714.39 511.025 1715.26 510.825 1716.07 510.555C1718.8 509.665 1721.1 507.845 1723.34 506.065C1723.64 505.835 1723.96 505.545 1723.95 505.175C1723.93 504.545 1723.1 504.375 1722.47 504.395C1719.58 504.515 1716.71 505.045 1713.97 505.965C1713.36 506.175 1712.73 506.395 1712.11 506.275C1711.1 506.095 1710.19 505.045 1709.25 505.445C1708.77 505.655 1708.51 506.175 1708.27 506.635C1706.77 509.385 1704.05 511.225 1701.45 512.965C1698.95 514.625 1696.43 516.295 1693.93 517.955C1694.09 515.795 1694.23 513.485 1693.19 511.565C1691.8 508.985 1688.62 507.775 1687.1 504.845C1686.33 504.075 1685.49 503.375 1684.61 502.765C1684.39 502.625 1684.16 502.465 1683.9 502.445C1683.17 502.385 1682.76 503.295 1682.73 504.035C1682.7 504.765 1682.76 505.625 1682.2 506.105C1681.88 506.375 1681.43 506.435 1681 506.475C1674.72 507.175 1668.49 508.295 1661.94 509.195C1663.15 513.245 1667.31 515.595 1671.22 517.225C1675.13 518.865 1679.43 520.445 1681.71 524.005C1682.43 525.145 1682.92 526.485 1682.76 527.835C1682.58 529.315 1681.61 530.595 1680.54 531.645C1677.79 534.305 1674.03 535.975 1672.06 539.245C1669.32 543.785 1670.99 549.585 1672.51 553.835C1676.91 555.805 1681.57 557.815 1686.37 557.375C1687.85 557.235 1689.28 556.865 1690.76 556.695C1693.58 556.365 1696.52 556.765 1699.23 555.885C1701.94 555.015 1704.36 552.115 1703.3 549.465C1704.52 550.235 1705.74 550.995 1706.96 551.765C1707.38 552.035 1707.84 552.305 1708.33 552.245C1709.05 552.155 1709.5 551.375 1709.48 550.655C1709.46 549.935 1709.08 549.285 1708.72 548.665C1705.89 543.945 1702.73 539.445 1699.25 535.175C1701.78 535.335 1704.29 535.795 1706.72 536.505C1707.21 536.655 1707.73 536.825 1708.05 537.215C1708.47 537.695 1708.51 538.395 1708.56 539.035C1708.72 541.145 1709.93 543.755 1712.05 543.515C1713.98 543.295 1714.71 540.905 1715.3 538.475C1717.31 538.655 1719.32 538.855 1721.33 539.045C1721.76 539.085 1722.21 539.125 1722.56 539.395C1722.9 539.645 1723.07 540.055 1723.24 540.445C1724.12 542.465 1725.21 544.395 1726.46 546.205C1727.2 547.265 1728.08 548.335 1729.3 548.745C1730.53 549.155 1732.16 548.565 1732.41 547.285C1732.54 546.605 1732.27 545.925 1731.97 545.295C1731.36 544.045 1730.65 542.835 1729.83 541.695C1731.74 541.135 1733.65 540.565 1735.55 540.015C1735.81 539.935 1736.09 539.845 1736.24 539.615C1736.55 539.165 1736.12 538.585 1735.74 538.185C1733.6 535.925 1732.25 532.925 1732.02 529.815C1735.97 534.175 1739.93 538.545 1743.89 542.905C1744.54 543.625 1745.38 544.415 1746.32 544.205C1747.25 543.995 1747.73 542.895 1747.63 541.945C1747.54 541.005 1747.05 540.135 1746.73 539.245C1745.18 534.975 1747.42 530.165 1745.91 525.175C1748.76 527.955 1750.77 531.455 1753.19 534.615C1755.6 537.775 1758.64 540.735 1762.49 541.715C1764.49 538.675 1763.92 534.655 1762.83 531.205C1761.74 527.735 1760.19 524.275 1760.46 520.655C1762.88 523.245 1765.3 525.845 1767.72 528.425C1769.65 530.485 1771.65 532.595 1774.23 533.725C1774.55 533.855 1774.91 533.995 1775.26 533.945C1776.29 533.805 1776.52 532.445 1776.49 531.415C1776.31 525.705 1775.54 520.015 1774.15 513.985C1777.83 518.995 1782 523.805 1787.33 527.005C1787.61 527.165 1787.91 527.335 1788.23 527.275C1788.49 527.235 1788.69 527.035 1788.87 526.835C1789.81 525.705 1790.05 524.125 1789.86 522.655ZM1673.85 510.985C1673.58 510.685 1673.29 510.305 1673.42 509.915C1673.48 509.735 1673.65 509.585 1673.81 509.465C1675.75 507.985 1678.35 507.885 1680.78 507.845C1681.18 507.835 1681.6 507.835 1681.96 508.005C1682.38 508.215 1682.65 508.635 1682.84 509.055C1684.38 512.275 1682.97 516.145 1682.92 519.445C1679.71 516.855 1676.67 514.015 1673.85 510.985ZM1695.25 552.335C1694.43 553.265 1693.07 553.425 1691.82 553.505C1687.63 553.805 1683.29 554.085 1679.31 552.725C1678.08 552.305 1676.82 551.645 1676.25 550.475C1675.83 549.615 1675.87 548.595 1675.96 547.645C1676.15 545.655 1676.58 543.685 1677.2 541.785C1677.44 541.045 1677.72 540.305 1678.19 539.695C1678.88 538.805 1679.9 538.245 1680.85 537.625C1683.13 536.105 1685 533.995 1686.26 531.565C1689.24 536.755 1692.08 541.835 1694.78 546.985C1695.69 548.675 1696.52 550.895 1695.25 552.335ZM1707.75 531.045C1707.6 531.225 1707.36 531.325 1707.13 531.385C1705.5 531.855 1703.77 531.525 1702.12 531.105C1698.29 530.145 1694.58 528.745 1691.54 527.175C1692.92 525.005 1694.74 523.095 1696.85 521.605C1697.81 520.925 1698.9 520.325 1700.07 520.325C1701.78 520.325 1703.22 521.605 1704.29 522.945C1705.93 525.005 1707.13 527.395 1707.81 529.925C1707.9 530.315 1707.98 530.745 1707.75 531.045Z" fill="#2F3943"/>
<path d="M395.051 549.225C439.751 557.275 484.441 565.325 529.141 573.375C549.551 577.055 569.991 580.735 589.981 586.245C612.481 592.445 634.331 600.935 657.071 606.205C680.361 611.605 704.371 613.585 727.521 619.555C728.891 619.905 730.431 620.425 730.971 621.735C732.211 624.745 727.291 626.205 724.071 625.705C666.981 616.985 609.691 608.225 554.251 592.055C531.051 585.295 508.061 577.205 484.081 574.285C464.371 571.875 444.191 572.985 395.051 549.225Z" fill="#8BB0C5"/>
<path d="M291.29 586.515C290.81 588.075 289.65 589.315 288.45 590.425C278.06 600.045 262.87 603.105 248.8 601.505C234.73 599.905 221.5 594.165 208.73 588.035C200.16 583.925 191.52 579.555 182.15 577.945C175.58 576.815 168.85 577.085 162.17 577.045C146.73 576.945 131.31 575.115 116.26 571.625C109.37 570.025 102.15 567.835 97.47 562.515C93.96 558.535 92.26 553.175 88.54 549.375C83.38 544.125 74.6 542.085 72.09 535.155C71.2 532.675 71.31 530.035 71.57 527.375C71.58 527.265 71.59 527.145 71.6 527.035C71.76 525.305 71.97 523.565 71.98 521.845C71.98 521.105 71.95 520.375 71.88 519.655C71.7 517.695 71.25 515.785 70.65 513.935C69.92 511.675 68.93 509.475 67.82 507.295C67.59 506.845 67.36 506.405 67.12 505.955C64.32 500.715 60.98 495.575 58.96 490.055C58.64 489.215 58.37 488.355 58.12 487.485C57.91 486.745 57.73 486.005 57.59 485.245C57.29 483.695 57.13 482.095 57.49 480.565C57.8 479.225 58.5 477.995 58.79 476.645C58.92 476.055 58.98 475.425 58.98 474.815C58.99 474.145 58.93 473.475 58.86 472.805C58.81 472.345 58.75 471.895 58.69 471.445C58.33 468.585 58.13 465.715 58.05 462.825C58.04 462.465 58.04 462.105 58.04 461.735C58.02 459.715 58.07 457.705 58.18 455.685C58.23 454.735 58.3 453.775 58.41 452.825C58.66 450.065 59.04 447.315 59.54 444.585C59.67 443.885 59.82 443.195 59.96 442.505C60.43 440.255 61 438.035 61.63 435.835C61.87 435.045 62.1 434.265 62.36 433.485C63 431.495 63.7 429.535 64.48 427.595C64.72 426.985 64.96 426.385 65.22 425.785C66.58 422.595 68.13 419.475 69.87 416.475C70.43 415.465 71.03 414.475 71.64 413.505C72.94 411.445 74.33 409.435 75.8 407.485C75.85 407.405 75.92 407.315 75.98 407.225C76.8 406.145 77.66 405.085 78.56 404.045C79.45 403.005 80.38 402.005 81.35 401.035C81.64 400.735 81.93 400.455 82.23 400.175C83.31 399.155 84.42 398.205 85.59 397.325C85.74 397.205 85.9 397.085 86.05 396.985C86.73 396.485 87.42 396.025 88.13 395.595C90.35 394.235 92.7 393.165 95.24 392.495C95.32 392.475 95.39 392.455 95.48 392.435C96.92 392.065 98.43 391.815 99.69 391.015C100.17 390.705 100.58 390.325 100.93 389.915C101.34 389.445 101.68 388.905 101.97 388.345C102.94 386.455 103.44 384.175 104.33 382.205C107.03 376.215 113.99 373.065 120.57 373.025C127.13 372.985 133.44 375.455 125.95 376.355C127.91 376.375 129.98 376.475 132.04 376.725C133.12 376.845 134.18 377.015 135.24 377.215C136.01 377.365 136.77 377.545 137.52 377.745C142.48 379.115 146.68 381.725 148.09 386.525C149.01 389.655 148.41 392.985 147.83 396.185C146.24 405.035 145.73 415.955 153.11 421.095C156.39 423.375 160.53 423.885 164.48 424.425C196.27 428.755 227.06 438.445 257.67 448.095C259.04 448.525 260.51 449.135 261.88 449.875C265.54 451.865 268.51 454.895 267.18 458.515C268.57 460.615 271.63 461.415 273.87 460.255C276.75 466.805 274.35 474.365 271.94 481.105C271.65 481.925 271.32 482.775 270.65 483.325C268.42 485.075 264.04 482.355 262.73 484.865C261.7 486.845 264.64 488.695 266.85 488.395C269.07 488.095 271.37 486.905 273.4 487.835C276.04 489.025 276.07 493.075 274.16 495.245C272.25 497.405 269.25 498.155 266.43 498.805C271.44 498.145 276.69 499.515 280.74 502.515C277.86 503.155 275.07 504.225 272.5 505.705C271.51 506.275 270.47 506.985 270.08 508.075C269.39 509.995 271.16 512.075 273.15 512.515C275.13 512.945 277.17 512.235 279.08 511.545C278.21 516.505 273.8 520.635 268.79 521.165C279.75 539.795 287.38 560.355 291.22 581.625C291.5 583.265 291.77 584.945 291.29 586.515Z" fill="#5E3E35"/>
<path d="M83.4209 462.134C74.9609 459.354 66.6009 456.254 58.3809 452.834C58.6309 450.074 59.0109 447.324 59.5109 444.594C66.1909 451.974 74.3609 457.994 83.4209 462.134Z" fill="#806158"/>
<path d="M90.0102 474.745C78.5002 473.115 67.4002 468.595 58.0102 461.755C57.9902 459.735 58.0402 457.725 58.1502 455.705C67.2002 464.295 78.1702 470.855 90.0102 474.745Z" fill="#806158"/>
<path d="M87.7014 456.494C77.8914 453.054 68.5314 448.344 59.9414 442.514C60.4114 440.264 60.9814 438.044 61.6114 435.844C68.7514 444.434 77.7014 451.524 87.7014 456.494Z" fill="#806158"/>
<path d="M58.0195 462.834C71.5895 475.934 88.8895 485.144 107.35 489.014C90.0995 488.254 73.0895 482.544 58.8295 472.804C58.7795 472.344 58.7195 471.894 58.6595 471.444C58.2995 468.584 58.0995 465.714 58.0195 462.834Z" fill="#806158"/>
<path d="M108.401 424.345C97.971 418.315 87.981 411.535 78.541 404.065C79.431 403.025 80.361 402.025 81.331 401.055C89.501 409.755 98.591 417.575 108.401 424.345Z" fill="#806158"/>
<path d="M177.791 436.715C167.151 434.185 156.521 431.645 145.891 429.115C134.181 426.325 122.321 423.475 111.721 417.795C106.561 415.035 101.811 411.665 97.2907 407.935C92.2707 405.365 87.2507 402.775 82.2207 400.205C83.3007 399.185 84.4107 398.235 85.5807 397.355C85.7307 397.235 85.8907 397.115 86.0407 397.015C86.7207 396.515 87.4107 396.055 88.1207 395.625C93.7807 401.065 100.841 405.225 107.831 408.975C113.521 412.035 119.311 414.945 125.161 417.685C125.191 417.745 125.221 417.805 125.261 417.865C125.241 417.805 125.211 417.745 125.171 417.685C142.111 425.605 159.681 432.125 177.791 436.715Z" fill="#806158"/>
<path d="M119.031 440.355C102.251 433.295 86.3013 424.275 71.6113 413.525C72.9113 411.465 74.3013 409.455 75.7713 407.505C76.2913 407.985 76.8213 408.455 77.3313 408.925C90.3013 420.395 103.921 432.195 119.031 440.355Z" fill="#806158"/>
<path d="M106.51 398.295C102.9 396.085 99.1202 394.215 95.2402 392.525C95.3202 392.505 95.3902 392.485 95.4802 392.465C96.9202 392.095 98.4302 391.845 99.6902 391.045C100.17 390.735 100.58 390.355 100.93 389.945C109.57 396.115 116.96 404.015 122.54 413.055C118.48 407.015 112.74 402.105 106.51 398.295Z" fill="#806158"/>
<path d="M131.431 452.675C108.261 446.795 85.9014 437.735 65.1914 425.815C66.5514 422.625 68.1014 419.505 69.8414 416.505C77.2314 424.995 87.4314 431.215 97.3614 436.885C108.251 443.105 119.451 449.185 131.431 452.675Z" fill="#806158"/>
<path d="M146.961 450.074C137.041 448.564 127.791 445.064 119.031 440.354C128.121 444.184 137.451 447.434 146.961 450.074Z" fill="#806158"/>
<path d="M125.181 417.675C125.171 417.675 125.171 417.675 125.171 417.675C124.351 416.105 123.471 414.575 122.531 413.065C123.541 414.535 124.421 416.075 125.181 417.675Z" fill="#806158"/>
<path d="M95.7704 497.975C82.7104 496.655 69.1004 494.265 58.1004 487.485C57.8904 486.745 57.7104 486.005 57.5704 485.245C57.2704 483.695 57.1104 482.095 57.4704 480.565C57.7804 479.225 58.4804 477.995 58.7704 476.645C58.9004 476.055 58.9604 475.425 58.9604 474.815C67.2904 482.045 78.5204 485.985 89.2004 489.535C101.42 493.595 113.63 497.655 125.86 501.705C116.04 499.625 105.79 498.995 95.7704 497.975Z" fill="#806158"/>
<path d="M70.6308 513.935C69.9008 511.675 68.9108 509.475 67.8008 507.295C89.2308 521.725 114.811 530.025 140.641 530.635C116.321 532.995 91.3408 526.875 70.6308 513.935Z" fill="#806158"/>
<path d="M139.191 454.505C136.611 454.035 134.051 453.415 131.541 452.695C134.091 453.335 136.631 453.945 139.191 454.505Z" fill="#806158"/>
<path d="M142.6 392.015C140.85 386.785 138.35 381.795 135.23 377.245C136 377.395 136.76 377.575 137.51 377.775C140 382.175 141.76 387.005 142.6 392.015Z" fill="#806158"/>
<path d="M113.07 461.374C94.0401 457.474 79.2101 443.234 62.3301 433.494C62.9701 431.504 63.6701 429.544 64.4501 427.604C70.6401 434.454 77.5301 440.714 85.7701 444.774C91.1201 447.424 96.9001 449.054 102.59 450.864C117.24 455.514 131.47 461.334 145.53 467.544C140.95 465.874 136.26 464.524 131.43 463.734C125.35 462.744 119.12 462.614 113.07 461.374Z" fill="#806158"/>
<path d="M101.951 388.375C102.921 386.485 103.421 384.205 104.311 382.235C107.011 376.245 113.971 373.095 120.551 373.055C127.111 373.015 133.421 375.485 125.931 376.385C127.891 376.405 129.961 376.505 132.021 376.755C139.451 391.025 145.391 406.405 141.971 421.795C138.421 403.755 127.021 387.405 111.311 377.825C121.651 390.205 130.221 404.045 136.681 418.805C128.701 405.335 116.311 394.565 101.951 388.375Z" fill="#806158"/>
<path d="M142.35 507.205C136.85 505.375 131.34 503.555 125.85 501.715C131.55 502.925 137.1 504.635 142.35 507.205Z" fill="#806158"/>
<path d="M151.92 542.215C136.61 543.725 121.06 544.385 105.92 541.625C93.5801 539.375 81.4501 534.685 71.5801 527.045C71.7401 525.315 71.9501 523.575 71.9601 521.855C71.9601 521.115 71.9301 520.385 71.8601 519.665C79.6501 525.765 88.4301 530.685 97.6701 534.285C114.83 540.955 133.53 543.235 151.92 542.215Z" fill="#806158"/>
<path d="M167.121 477.325C159.951 474.045 152.771 470.745 145.541 467.555C152.941 470.235 160.081 473.795 167.121 477.325Z" fill="#806158"/>
<path d="M114.971 519.055C98.2214 519.085 81.5214 514.435 67.1014 505.945C64.3014 500.705 60.9614 495.565 58.9414 490.045C71.7514 501.495 87.9114 509.185 104.911 511.735C114.151 513.115 123.601 513.045 132.781 514.785C143.631 516.835 153.841 521.345 163.931 525.825C175.511 530.965 187.091 536.105 198.661 541.245C177.281 537.935 159.511 521.425 138.011 518.965C130.371 518.085 122.661 519.045 114.971 519.055Z" fill="#806158"/>
<path d="M291.29 586.515C290.81 588.075 289.65 589.315 288.45 590.425C278.06 600.045 262.87 603.105 248.8 601.505C234.73 599.905 221.5 594.165 208.73 588.035C200.16 583.925 191.52 579.555 182.15 577.945C175.58 576.815 168.85 577.085 162.17 577.045C146.73 576.945 131.31 575.115 116.26 571.625C109.37 570.025 102.15 567.835 97.4704 562.515C93.9604 558.535 92.2604 553.175 88.5404 549.375C83.3804 544.125 74.6004 542.085 72.0904 535.155C71.2004 532.675 71.3104 530.035 71.5704 527.375C81.6904 540.135 96.4904 549.155 112.52 552.155C121.48 553.825 130.73 553.695 139.66 555.505C159.96 559.625 176.84 573.295 195.78 581.655C213.39 589.415 233.02 592.555 252.17 590.675C242.05 588.445 231.92 586.235 221.8 584.005C234.01 584.525 246.28 583.505 258.22 580.955C248.21 580.805 238.22 578.655 229.02 574.675C242.32 575.345 255.73 573.905 268.58 570.415C259.62 571.405 250.36 569.705 242.33 565.595C250.5 563.955 258.58 561.785 266.46 559.095C258.01 559.165 249.56 557.755 241.59 554.935C248.69 554.525 255.7 552.725 262.13 549.695C251.21 551.405 239.6 547.935 231.41 540.505C241.3 538.155 251.18 535.815 261.08 533.465C247.17 527.795 232.58 523.815 217.73 521.645C231.58 522.285 245.56 520.155 258.6 515.455C243.13 517.365 226.45 519.035 212.89 511.365C228.52 513.845 244.89 511.485 259.2 504.705C246.88 509.085 233.18 509.505 220.63 505.875C234.08 506.325 247.62 503.285 259.6 497.135C251.68 497.545 243.64 495.025 237.38 490.155C245.49 490.435 253.68 488.295 260.61 484.095C255.95 485.385 250.93 485.395 246.27 484.105C252.23 483.045 258 480.915 263.22 477.845C255.08 476.055 246.92 474.245 238.78 472.455C248.25 473.315 257.88 472.235 266.92 469.305C246.86 469.435 226.79 465.345 208.37 457.395C226.7 461.915 245.73 463.565 264.56 462.275C258.31 461.645 252.13 460.375 246.15 458.485C251.2 458.695 256.26 458.265 261.21 457.235C253.96 456.555 246.82 454.605 240.24 451.505C247.48 451.585 254.72 451.055 261.87 449.915C265.53 451.905 268.5 454.935 267.17 458.555C268.56 460.655 271.62 461.455 273.86 460.295C276.74 466.845 274.34 474.405 271.93 481.145C271.64 481.965 271.31 482.815 270.64 483.365C268.41 485.115 264.03 482.395 262.72 484.905C261.69 486.885 264.63 488.735 266.84 488.435C269.06 488.135 271.36 486.945 273.39 487.875C276.03 489.065 276.06 493.115 274.15 495.285C272.24 497.445 269.24 498.195 266.42 498.845C271.43 498.185 276.68 499.555 280.73 502.555C277.85 503.195 275.06 504.265 272.49 505.745C271.5 506.315 270.46 507.025 270.07 508.115C269.38 510.035 271.15 512.115 273.14 512.555C275.12 512.985 277.16 512.275 279.07 511.585C278.2 516.545 273.79 520.675 268.78 521.205C279.74 539.835 287.37 560.395 291.21 581.665C291.5 583.265 291.77 584.945 291.29 586.515Z" fill="#421D13"/>
<path d="M1366.43 639.164C1363.29 638.694 1360.15 638.225 1357 637.745C1356.1 637.605 1355.19 637.474 1354.29 637.344C1354.09 637.314 1353.96 637.294 1353.91 637.284C1326.05 636.404 1294.89 635.564 1264.6 629.094C1226.97 621.064 1191 604.394 1152.59 602.144C1140.17 601.404 1127.71 602.204 1115.29 603.004C1061.89 606.454 1008.5 609.884 955.09 613.324C924.53 615.294 893.92 617.264 863.29 617.274C860.19 617.274 857.1 617.254 854 617.214C852.22 617.194 850.44 617.165 848.65 617.125C848.06 617.115 847.47 617.104 846.89 617.084C845.47 617.054 844.05 617.024 842.63 616.974C841.51 616.944 840.39 616.915 839.27 616.875C837.73 616.825 836.18 616.764 834.64 616.694C834 616.674 833.35 616.645 832.7 616.625C831.7 616.585 830.7 616.534 829.7 616.474C826.33 616.324 822.95 616.145 819.58 615.935C819.52 615.925 819.46 615.924 819.4 615.924C818.06 615.834 816.72 615.754 815.39 615.654C814.67 615.614 813.95 615.564 813.23 615.514C812.7 615.474 812.16 615.444 811.63 615.394C811.28 615.374 810.94 615.354 810.59 615.324C808.25 615.154 805.91 614.974 803.58 614.774C805.29 615.334 788.69 614.655 778.72 613.555C757.35 611.215 736.09 608.225 714.93 604.625C699.98 602.085 685.03 599.224 670.68 594.344C663.71 591.974 656.89 589.135 650.06 586.305C640.72 582.435 631.38 578.584 621.61 576.014C600.46 570.434 578.23 571.024 556.57 567.984C515.34 562.204 476.7 543.324 435.34 538.624C424.35 537.374 413.21 537.134 402.42 534.724C395.08 533.094 387.98 530.434 381.35 526.894C373.64 522.784 366.58 517.484 360.52 511.214C395.77 454.334 471.69 425.184 538.6 441.914C563.3 448.094 586.26 459.744 610.37 467.904C684.41 492.954 768.91 468.084 847.05 469.844C884.42 470.694 930.7 501.044 967.94 504.394L1089.55 505.484C1114.47 507.724 1134.55 493.984 1158.71 500.544C1175.7 505.144 1217.08 512.834 1234.11 517.334C1269.32 526.634 1286.3 531.334 1322.21 537.404C1326.9 538.194 1347.21 537.664 1364.37 542.004C1365.32 547.964 1365.42 554.134 1365.49 560.194C1365.81 586.524 1366.12 612.854 1366.43 639.164Z" fill="#4E768F"/>
<path d="M1350.43 514.335C1311.74 495.445 1266.68 496.045 1225.07 484.975C1249.83 485.165 1274.59 485.355 1299.35 485.545C1311.97 485.645 1328.22 484.585 1339.27 478.505C1341.49 492.155 1345.84 505.905 1350.43 514.335Z" fill="#4E768F"/>
<path d="M509.6 467.115C528.08 441.185 546.59 415.205 562.2 387.455C568.79 375.735 575.01 363.145 575.05 349.695C592.61 390.915 606.61 433.645 616.84 477.255C617.74 481.075 618.53 485.405 616.39 488.695C614.48 491.645 610.78 492.825 607.33 493.495C573.05 500.165 537.57 476.555 509.6 467.115Z" fill="#4E768F"/>
<path d="M813.23 615.525C810.01 615.295 806.79 615.055 803.58 614.785C805.28 615.335 788.69 614.665 778.72 613.565C757.35 611.215 736.08 608.235 714.93 604.635C699.99 602.095 685.03 599.225 670.68 594.355C663.71 591.985 656.89 589.145 650.06 586.315C640.72 582.435 631.37 578.595 621.61 576.015C600.46 570.435 578.23 571.035 556.56 567.995C515.33 562.215 476.69 543.325 435.33 538.635C424.35 537.385 413.21 537.145 402.42 534.735C395.08 533.105 387.98 530.435 381.34 526.895C383.47 526.155 385.6 525.275 387.65 524.215C396.03 519.935 403.27 512.345 404.64 503.045C404.96 500.895 405.25 498.275 407.23 497.405C408.46 496.865 409.89 497.275 411.16 497.725C429.66 504.285 443.95 519.345 461.83 527.455C478.38 534.955 496.98 536.095 515.04 538.025C589.97 546.075 662.18 569.785 734.46 591.125C768.58 601.205 804.01 610.875 839.31 606.395C830.95 610.375 822.21 613.355 813.23 615.525Z" fill="#31556B"/>
<path d="M1366.43 639.165C1363.29 638.695 1360.15 638.225 1357 637.745C1356.1 637.605 1355.19 637.475 1354.29 637.345C1354.09 637.315 1353.96 637.295 1353.91 637.285C1326.05 636.405 1294.89 635.565 1264.6 629.095C1226.97 621.065 1191 604.395 1152.59 602.145C1140.17 601.405 1127.71 602.205 1115.29 603.005C1061.89 606.455 1008.5 609.885 955.089 613.325C924.529 615.295 893.919 617.265 863.289 617.275C860.189 617.275 857.099 617.255 853.999 617.215C852.219 617.195 850.439 617.165 848.649 617.125C848.059 617.115 847.469 617.105 846.889 617.085C845.469 617.055 844.049 617.025 842.629 616.975C841.509 616.945 840.389 616.915 839.269 616.875C837.729 616.825 836.179 616.765 834.639 616.695C833.999 616.675 833.349 616.645 832.699 616.625C831.699 616.585 830.699 616.535 829.699 616.475C826.329 616.335 822.949 616.145 819.579 615.935C819.519 615.925 819.459 615.925 819.399 615.925C818.059 615.835 816.719 615.755 815.389 615.655C800.459 614.535 811.579 612.855 768.179 610.935C763.639 610.735 760.759 605.515 757.109 602.465C768.999 609.735 783.369 612.855 797.199 611.175C807.739 609.895 817.789 605.955 828.259 604.235C840.009 602.305 852.009 603.195 863.899 603.765C921.119 606.505 978.699 601.605 1034.63 589.215C1045.78 586.755 1057.05 583.965 1068.45 584.545C1081.01 585.175 1093.36 589.875 1105.86 588.495C1114.87 587.505 1123.26 583.405 1132.19 581.835C1146.43 579.335 1160.92 583.395 1174.74 587.635C1222.91 602.415 1271.03 620.005 1321.35 622.545C1336.3 623.295 1351.43 622.725 1366.08 625.765C1366.14 625.775 1366.21 625.795 1366.27 625.805C1366.33 630.265 1366.38 634.715 1366.43 639.165Z" fill="#31556B"/>
<path d="M850.761 690.655C848.261 693.215 845.061 695.115 841.591 696.025C833.831 696.865 823.821 695.465 814.021 696.525C807.291 697.255 800.761 699.145 794.091 700.285C758.781 706.355 723.511 691.435 687.811 688.315C680.271 687.655 672.681 687.525 665.171 686.555C658.871 685.735 652.681 684.325 646.481 682.915C623.471 677.685 600.461 672.455 577.451 667.215C552.311 657.475 523.441 660.475 496.281 655.235C490.871 654.185 485.531 652.825 480.141 651.755C474.041 650.545 467.871 649.725 461.711 648.975C455.161 648.175 448.601 647.465 442.061 646.635C417.301 643.515 392.751 638.785 368.601 632.495C360.651 630.655 353.091 628.755 345.541 626.855C340.631 625.625 335.681 624.375 331.051 622.325C326.971 620.505 323.181 618.085 319.481 615.585C314.841 612.455 310.281 609.145 306.501 605.035C303.641 601.915 301.291 598.445 299.301 594.725C328.821 607.665 363.401 608.805 399.891 615.925C437.261 618.695 474.631 621.475 512.001 624.245C528.811 625.495 545.701 626.755 562.061 630.775C578.761 634.875 594.601 641.765 610.731 647.715C665.281 667.845 723.121 677.205 780.541 686.455C789.511 687.905 800.701 688.425 805.581 680.745C807.571 677.595 808.261 673.295 811.521 671.465C814.031 670.045 817.181 670.715 819.941 671.565C825.181 673.195 830.221 675.445 834.961 678.225C839.981 681.155 844.651 684.695 848.851 688.735C849.511 689.365 850.151 690.005 850.761 690.655Z" fill="#4E768F"/>
<path d="M994.98 635.105C992.26 638.965 989.73 643.635 987.19 648.315C985.6 651.245 983.99 654.215 981.88 656.805C978.87 660.485 974.97 663.295 971.1 666.065C965.2 670.285 959.24 674.535 952.55 677.285C949.22 678.645 945.72 679.645 942.57 681.385C936.93 684.495 932.71 689.845 927.09 692.885C926.59 693.175 926.07 693.415 925.55 693.655C921.5 695.435 917.08 695.775 912.61 695.535C909.6 695.375 906.57 694.955 903.62 694.525C880.38 691.245 856.98 689.015 833.54 687.855C832.03 687.785 830.52 687.715 829.02 687.645C829.18 686.805 829.31 685.975 829.41 685.145C829.63 683.385 829.72 681.625 829.73 679.895C829.77 675.775 829.36 671.735 829.05 667.725C828.87 665.375 828.71 663.035 828.7 660.705C828.69 658.895 828.77 657.095 829.17 655.335C829.85 652.285 831.44 649.515 833.26 646.985C838.45 639.815 846.42 633.975 855.27 633.975C864.58 636.495 875.15 638.665 884.62 635.145C888.18 633.835 891.4 631.775 894.91 630.315C898.39 628.865 902.09 628.045 905.79 627.385C907.97 626.985 910.21 626.635 912.43 626.645C913.6 626.655 914.76 626.755 915.91 627.005C916.49 627.135 917.08 627.315 917.64 627.525C919.74 628.325 921.63 629.715 922.75 631.595C923.04 632.075 923.27 632.605 923.45 633.145C924.51 636.455 923.06 640.185 920.63 642.665C918.19 645.145 914.91 646.615 911.65 647.825C907.26 649.465 902.74 650.755 898.14 651.695C895.75 652.195 893.33 652.585 890.9 652.885C891.16 653.065 891.42 653.245 891.69 653.405C899.2 658.385 908.6 661.095 917.92 660.745C918.36 660.725 918.8 660.705 919.24 660.675C920.11 660.615 921 660.525 921.8 660.185C922.84 659.735 923.66 658.905 924.44 658.085C926.65 655.805 928.84 653.525 931.05 651.245C933.78 648.415 936.57 645.535 940 643.615C940.32 643.005 940.27 642.375 940.1 641.725V641.715C940.05 641.525 939.99 641.325 939.92 641.135C939.78 640.375 939.65 639.175 939.7 638.035C939.71 637.765 939.74 637.485 939.77 637.215C939.77 637.205 939.77 637.205 939.77 637.195C939.83 637.045 939.89 636.875 939.95 636.725C940.36 635.595 940.61 634.445 940.72 633.285V633.275C941.37 627.115 938.48 620.565 938.79 614.175C938.89 612.165 939.33 610.125 940.47 608.475C940.93 607.795 941.54 607.205 942.21 606.745C942.98 606.225 943.86 605.875 944.78 605.785C945.03 605.765 945.27 605.755 945.53 605.775C945.37 603.365 945.39 600.865 946.7 598.925C948.39 596.415 951.73 595.615 954.76 595.645H954.93C955.07 596.275 955.2 596.895 955.31 597.505C955.85 600.435 956.09 603.205 956.02 605.955C956 606.865 955.95 607.795 956.15 608.685C956.43 609.835 957.11 610.835 957.69 611.865C958.47 613.245 959.07 614.705 959.53 616.205C961.25 621.875 960.89 628.215 960.44 634.225C960.43 634.255 960.43 634.295 960.43 634.325C962.6 632.875 963.97 630.325 964.7 627.705C965.43 625.075 965.6 622.355 965.99 619.665C966.51 616.035 967.45 612.465 968.7 609.015C969.88 605.775 971.75 602.275 975.09 601.405C977.31 600.835 979.54 601.575 981.63 602.625C982.33 602.975 983 603.355 983.66 603.735C982.03 607.955 980.5 612.485 980.54 617.165C980.56 619.155 980.86 621.135 980.94 623.125C981.07 626.295 980.64 629.495 980.94 632.655C980.94 632.745 980.95 632.825 980.96 632.925C983.21 631.105 986.01 629.755 988.89 629.955C990.08 630.035 991.27 630.445 992.27 631.105C992.82 631.465 993.33 631.905 993.75 632.395C994.4 633.155 994.85 634.085 994.98 635.105Z" fill="#FDD5C8"/>
<path d="M909.011 635.445C912.231 635.145 915.481 634.835 918.591 633.925C919.271 633.725 920.031 633.425 920.291 632.755C920.561 632.055 920.151 631.275 919.631 630.735C919.111 630.195 918.471 629.745 918.131 629.085C918.041 628.915 917.961 628.725 917.791 628.645C917.661 628.585 917.521 628.605 917.381 628.615C916.381 628.745 915.371 628.865 914.371 628.995C913.161 629.145 911.921 629.305 910.811 629.825C909.701 630.345 908.721 631.295 908.491 632.495C908.261 633.695 908.981 635.105 909.011 635.445Z" fill="#FEE4DB"/>
<path d="M837.58 648.735C838.52 646.375 840.77 644.735 843.19 643.935C845.6 643.145 848.19 643.085 850.73 643.085C859.46 643.065 868.22 643.585 876.89 642.625C885.56 641.665 894.31 639.105 901.1 633.625C901.31 633.455 901.54 633.255 901.6 632.995C901.71 632.545 901.28 632.105 900.83 632.025C900.38 631.945 899.91 632.105 899.48 632.275C895.43 633.805 891.38 635.335 887.33 636.855C885.07 637.705 882.81 638.565 880.45 639.095C871.4 641.155 862.04 638.345 852.77 638.015C848.8 637.875 844.64 638.245 841.24 640.295C839.17 641.545 837.49 643.345 835.96 645.225C835.42 645.885 834.88 646.595 834.72 647.425C834.55 648.265 834.87 649.255 835.65 649.595C836.41 649.945 837.4 649.195 837.58 648.735Z" fill="#FEE4DB"/>
<path d="M946.61 608.675C947.12 605.335 948.38 602.155 949.79 599.085C949.92 598.795 950.06 598.495 950.07 598.175C950.08 597.855 949.93 597.504 949.63 597.384C949.21 597.214 948.77 597.565 948.47 597.895C946.1 600.555 945.34 604.295 945.27 607.855C945.25 608.475 945.34 609.205 946.61 608.675Z" fill="#FEE4DB"/>
<path d="M940.76 618.925C940.61 616.245 941.76 613.485 940.97 610.915C940.93 610.775 940.86 610.625 940.73 610.575C940.53 610.505 940.35 610.695 940.23 610.875C938.73 613.185 938.77 616.164 939.16 618.884C939.22 619.294 939.31 619.765 939.66 619.995C940.01 620.225 940.82 619.935 940.76 618.925Z" fill="#FEE4DB"/>
<path d="M969.31 624.895C968.62 621.605 969.09 618.145 970.19 614.975C971.29 611.805 973.01 608.875 974.85 606.055C975.15 605.595 975.46 605.105 975.48 604.555C975.5 604.005 975.07 603.405 974.52 603.455C974.24 603.475 974.01 603.655 973.79 603.825C969.13 607.615 967.41 613.915 966.63 619.865C966.29 622.445 966.26 625.505 968.29 627.135C969.07 626.535 969.4 625.325 969.31 624.895Z" fill="#FEE4DB"/>
<path d="M974.28 647.635C977.23 645.535 979.47 642.615 981.67 639.735C983.31 637.585 984.94 635.445 986.58 633.295C986.65 633.195 986.73 633.095 986.74 632.975C986.78 632.585 986.19 632.485 985.81 632.595C983.48 633.215 981.74 635.095 980.13 636.895C977.59 639.735 975.04 642.595 972.94 645.785C972.57 646.355 972.19 647.015 972.36 647.665C972.54 648.315 973.28 648.355 974.28 647.635Z" fill="#FEE4DB"/>
<path d="M994.98 635.105C992.26 638.965 989.73 643.635 987.19 648.315C985.6 651.245 983.99 654.215 981.88 656.805C978.87 660.485 974.97 663.295 971.1 666.065C965.2 670.285 959.24 674.535 952.55 677.285C949.22 678.645 945.72 679.645 942.57 681.385C936.93 684.495 932.71 689.845 927.09 692.885C922.33 694.005 917.48 694.855 912.61 695.535C909.6 695.375 906.57 694.955 903.62 694.525C880.38 691.245 856.98 689.015 833.54 687.855C832.12 687.035 830.74 686.135 829.41 685.145C828.58 684.565 827.76 683.935 826.96 683.275C824.93 681.625 822.97 679.725 822.07 677.265C821.17 674.815 821.62 671.695 823.73 670.155C824.67 669.475 825.95 668.145 826.28 669.135C827.18 668.615 828.11 668.125 829.05 667.705C837.8 663.765 848.39 664.045 856.86 668.605C860.92 670.795 864.81 673.995 869.42 673.995C872.66 673.995 875.77 672.385 879 672.625C886.97 673.215 890.53 684.095 898.29 685.995C902.84 687.105 907.49 684.775 911.38 682.145C915.26 679.525 919.11 676.435 923.75 675.765C926.84 675.325 929.97 676.015 933.08 676.035C941.83 676.115 949.71 671.085 956.99 666.205C968.08 658.775 979.68 650.655 985.03 638.425C985.83 636.575 986.51 634.635 987.81 633.105C988.92 631.815 990.64 630.875 992.29 631.055C992.84 631.415 993.35 631.855 993.77 632.345C994.4 633.155 994.85 634.085 994.98 635.105Z" fill="#E0AFA1"/>
<path d="M917.889 660.755C917.799 660.815 917.719 660.875 917.619 660.925C914.359 662.945 910.679 664.265 906.879 664.775C903.279 665.255 899.189 664.825 896.769 662.105C895.239 660.385 894.549 657.925 892.679 656.585C890.109 654.765 886.419 655.895 883.999 657.915C881.579 659.925 879.869 662.685 877.439 664.695C872.239 668.975 863.909 668.815 858.879 664.345C858.339 663.865 857.799 663.285 857.639 662.585C857.269 661.015 858.759 659.675 860.109 658.805C864.299 656.075 868.839 653.875 873.579 652.255C876.839 651.145 880.199 650.305 883.419 649.075C886.469 647.905 889.379 646.395 892.079 644.585C897.009 641.275 901.209 636.975 905.349 632.705C905.889 632.155 906.429 631.595 906.969 631.045C908.609 629.365 910.299 627.635 912.429 626.655C913.599 626.665 914.759 626.765 915.909 627.015C916.489 627.145 917.079 627.325 917.639 627.535C915.139 627.925 912.379 629.035 909.739 630.345C909.189 630.625 908.609 630.915 908.289 631.455C907.949 632.005 907.959 632.705 907.989 633.355C908.079 634.995 908.279 636.635 908.569 638.255C908.699 639.025 908.879 639.805 909.359 640.405C909.939 641.135 910.889 641.475 911.789 641.725C914.119 642.385 916.519 642.795 918.929 642.945C912.659 645.045 907.919 646.705 903.189 648.365C901.609 648.915 899.979 649.515 898.819 650.715C898.539 651.005 898.309 651.345 898.119 651.695C895.729 652.195 893.309 652.585 890.879 652.885C891.139 653.065 891.399 653.245 891.669 653.405C899.169 658.395 908.579 661.105 917.889 660.755Z" fill="#E0AFA1"/>
<path d="M967.171 647.915C963.261 651.035 959.321 654.175 954.931 656.585C950.541 658.995 945.641 660.655 940.631 660.595C945.821 660.005 950.651 657.495 954.741 654.235C958.831 650.975 962.271 646.995 965.681 643.035C968.241 640.065 970.871 636.975 972.001 633.215C973.311 628.865 972.441 624.195 972.621 619.655C972.841 614.185 974.651 608.785 977.771 604.285C978.191 603.675 978.891 603.005 979.561 603.325C980.301 603.675 980.121 604.755 979.921 605.545C979.071 608.865 979.961 612.355 980.121 615.785C980.211 617.745 980.051 619.705 979.781 621.645C978.411 631.695 974.641 641.945 967.171 647.915Z" fill="#E0AFA1"/>
<path d="M930.779 658.155C932.369 657.065 934.059 656.135 935.819 655.365C934.189 656.385 932.489 657.275 930.779 658.155Z" fill="#E0AFA1"/>
<path d="M959.62 622.505C959.24 629.525 957.01 636.285 954.81 642.965C953.88 645.805 952.02 648.045 951.02 650.105C949.93 652.335 946.98 652.635 944.53 652.945C941.54 653.325 938.59 654.145 935.82 655.365C936.92 654.685 937.98 653.945 938.98 653.115C941.45 651.065 943.53 648.395 944.31 645.275C945 642.525 944.64 639.615 945.06 636.805C945.43 634.315 946.43 631.915 947.94 629.885C948.53 629.095 949.22 628.325 949.55 627.395C949.79 626.685 949.81 625.935 949.77 625.205C949.61 622.245 948.42 619.435 947.94 616.505C947.17 611.615 948.44 606.655 949.7 601.875C950.17 600.085 950.75 598.145 952.24 597.045C952.6 596.785 953.01 596.585 953.45 596.555C954.17 596.515 954.8 596.945 955.3 597.485C955.84 600.415 956.08 603.185 956.01 605.935C955.99 606.845 955.94 607.775 956.14 608.665C956.42 609.815 957.1 610.815 957.68 611.845C958.46 613.225 959.06 614.685 959.52 616.185C959.69 618.295 959.74 620.395 959.62 622.505Z" fill="#E0AFA1"/>
<path d="M946.211 625.595C945.971 626.585 945.461 627.485 944.991 628.385C942.761 632.585 941.101 637.085 940.081 641.715C940.031 641.525 939.971 641.325 939.901 641.135C939.761 640.375 939.631 639.175 939.681 638.035C939.691 637.765 939.721 637.485 939.751 637.215C939.751 637.205 939.751 637.205 939.751 637.195C939.811 637.045 939.871 636.875 939.931 636.725C940.341 635.595 940.591 634.445 940.701 633.285V633.275C941.121 631.965 941.591 630.655 941.881 629.305C942.441 626.725 942.401 624.045 942.351 621.395C942.271 617.335 942.201 613.275 942.111 609.225C942.101 608.395 942.081 607.565 942.191 606.745L944.761 605.785C944.791 610.985 945.221 616.185 946.041 621.325C946.281 622.735 946.541 624.185 946.211 625.595Z" fill="#E0AFA1"/>
<path d="M920.61 642.675C918.17 645.155 914.89 646.625 911.63 647.835C904.95 650.325 897.97 652.025 890.88 652.895C891.14 653.075 891.4 653.255 891.67 653.415C886.92 654.455 882.35 656.175 878.76 659.375C876.79 661.125 875.14 663.315 872.83 664.595C869.21 666.625 864.27 665.865 861.4 662.865C871.38 655.495 883.3 650.135 895.74 648.335C901.08 647.555 906.59 647.415 911.67 645.575C916.76 643.745 921.52 639.745 922.29 634.405C922.43 633.515 922.51 632.495 922.74 631.615C923.03 632.095 923.26 632.625 923.44 633.165C924.49 636.465 923.04 640.185 920.61 642.675Z" fill="#99685A"/>
<path d="M994.98 635.105C992.26 638.965 989.73 643.635 987.19 648.315C985.6 651.245 983.99 654.215 981.88 656.805C978.87 660.485 974.97 663.295 971.1 666.065C965.2 670.285 959.24 674.535 952.55 677.285C949.22 678.645 945.72 679.645 942.57 681.385C936.43 684.765 931.98 690.825 925.55 693.655C918.76 696.645 910.96 695.565 903.61 694.525C878.87 691.025 853.97 688.745 829 687.655C829.5 685.025 829.7 682.455 829.71 679.905C838.46 679.075 847.04 687.985 856.19 686.835C858.91 686.495 861.42 685.275 864.03 684.445C872.04 681.915 880.89 683.145 888.62 686.415C892.5 688.055 896.28 690.235 900.49 690.505C909.59 691.095 916.81 682.875 925.64 680.595C928.94 679.735 932.4 679.745 935.79 679.385C941.93 678.735 947.95 676.865 953.32 673.795C957.79 671.235 961.76 667.875 965.7 664.545C971.25 659.845 976.87 655.075 981 649.105C983.54 645.425 985.48 641.345 988.16 637.755C989.71 635.695 991.59 633.765 993.75 632.375C994.4 633.155 994.85 634.085 994.98 635.105Z" fill="#99685A"/>
<path d="M980.941 632.635C980.491 633.265 980.021 633.885 979.551 634.505C977.371 637.375 975.191 640.255 973.011 643.145C971.331 645.365 969.391 647.735 966.641 648.225C968.071 642.335 973.391 638.405 975.401 632.975C977.361 627.705 975.941 621.835 976.471 616.245C976.711 613.675 977.361 611.145 978.011 608.635C978.331 607.415 978.661 606.175 979.301 605.095C979.881 604.105 980.721 603.315 981.641 602.625C982.341 602.975 983.011 603.355 983.671 603.735C982.041 607.955 980.511 612.485 980.551 617.165C980.571 619.155 980.871 621.135 980.951 623.125C981.071 626.285 980.641 629.485 980.941 632.635Z" fill="#99685A"/>
<path d="M960.43 634.205C959.48 636.375 958.28 638.455 957.09 640.515C955.94 642.515 954.79 644.515 953.63 646.505C952.66 648.195 951.66 649.925 950.24 651.255C952.01 649.245 953.1 646.755 953.27 644.185C953.36 642.675 953.16 641.155 953.35 639.665C953.68 637.175 955.09 634.955 955.75 632.525C956.25 630.685 956.3 628.765 956.37 626.865C956.46 623.515 956.54 620.115 955.68 616.885C955.06 614.555 953.98 612.395 953.28 610.095C952.32 606.925 952.11 603.535 952.71 600.265C952.93 599.075 953.25 597.875 953.87 596.825C954.13 596.395 954.42 595.995 954.76 595.625H954.93C955.75 599.265 956.1 602.605 956.02 605.935C956 606.845 955.95 607.775 956.15 608.665C956.43 609.815 957.11 610.815 957.69 611.845C961.44 618.485 961 626.605 960.43 634.205Z" fill="#99685A"/>
<path d="M830.39 657.285C828.87 664.375 831.12 671.815 834.85 678.035C834.89 678.095 834.93 678.165 834.96 678.225C838.1 683.355 843.2 688.115 848.85 688.735C849.88 688.855 850.92 688.825 851.98 688.655C852.09 688.735 852.2 688.805 852.31 688.875C851.83 689.505 851.32 690.095 850.76 690.655C848.26 693.215 845.06 695.115 841.59 696.025C839.85 696.205 837.99 696.295 836.05 696.315C835.25 695.775 834.5 695.175 833.78 694.555C829.24 690.545 826.08 685.255 822.83 680.135C821.23 677.635 819.58 675.115 818.57 672.315C817.53 669.465 817.21 666.405 817.2 663.375C817.17 657.155 818.48 650.935 821.01 645.255C822.32 641.635 823.91 639.195 825.88 637.115C828.22 634.075 830.39 631.595 832.57 629.115C834.26 627.565 835.23 626.725 835.77 626.285C836.11 626.315 836.44 626.325 836.78 626.335C840.13 626.425 843.51 625.875 846.83 626.305C852.13 626.995 856.7 630.065 860.92 633.485C859.7 633.545 858.49 633.675 857.29 633.885C853.22 633.915 849.06 635.845 845.62 638.115C838.61 642.695 832.15 649.105 830.39 657.285Z" fill="#263F4F"/>
<path d="M846.771 693.815C845.161 694.805 843.411 695.555 841.591 696.035C839.851 696.215 837.991 696.295 836.051 696.315C829.351 696.365 821.621 695.705 814.021 696.535C807.301 697.265 800.761 699.145 794.101 700.295C758.781 706.365 723.511 691.445 687.821 688.325C680.281 687.675 672.691 687.535 665.181 686.565C658.891 685.745 652.691 684.335 646.501 682.925C623.491 677.695 600.471 672.465 577.471 667.225C552.331 657.475 523.461 660.485 496.301 655.245C490.901 654.195 485.551 652.835 480.161 651.765C474.051 650.555 467.891 649.735 461.731 648.985C455.171 648.185 448.621 647.475 442.071 646.645C417.321 643.525 392.761 638.795 368.621 632.505C360.671 630.665 353.111 628.755 345.561 626.865C340.651 625.635 335.711 624.375 331.071 622.325C326.991 620.515 323.201 618.095 319.501 615.585C314.881 612.475 310.331 609.165 306.561 605.075C310.881 604.785 315.751 605.965 319.911 607.355C337.011 613.075 354.111 618.805 374.011 625.255C391.451 632.545 407.101 628.085 425.231 635.835C456.511 639.805 464.331 643.055 488.591 646.885C526.331 652.835 564.081 658.785 601.821 664.735C620.861 667.745 639.921 670.745 658.691 675.135C688.871 682.195 718.541 692.865 749.501 694.405C775.221 695.685 800.871 690.585 826.631 690.735C833.331 690.765 840.561 691.455 846.771 693.815Z" fill="#31556B"/>
</g>
<defs>
<clipPath id="clip0_101_1630">
<rect width="2000" height="1040" fill="white"/>
</clipPath>
</defs>
</svg>
