<?xml version="1.0" encoding="utf-8"?>
<!-- Generator: Adobe Illustrator 27.0.0, SVG Export Plug-In . SVG Version: 6.00 Build 0)  -->
<svg version="1.1" id="Слой_1" xmlns="http://www.w3.org/2000/svg" xmlns:xlink="http://www.w3.org/1999/xlink" x="0px" y="0px"
	 viewBox="0 0 1500 1196.18" style="enable-background:new 0 0 1500 1196.18;" xml:space="preserve">
<style type="text/css">
	.st0{fill:#9BAFBD;}
	.st1{fill:#728694;}
	.st2{fill:#FDD5C8;}
	.st3{fill:#FEE4DB;}
	.st4{fill:#E0AFA1;}
	.st5{fill:#99685A;}
	.st6{fill:#AECCD1;}
	.st7{fill:#7A9CA1;}
	.st8{fill:#495B5E;}
	.st9{fill:url(#SVGID_1_);}
	.st10{fill:#E09F89;}
	.st11{fill:url(#SVGID_00000166652732269252127210000004892630801354844820_);}
	.st12{fill:#F6DCDD;}
	.st13{fill:#E39D9D;}
	.st14{fill:#FDACAE;}
	.st15{fill:#E2A094;}
	.st16{fill:#FEBEBE;}
	.st17{fill:#F16E2B;}
	.st18{fill:#DF523C;}
	.st19{fill:#E78B7C;}
	.st20{fill:url(#SVGID_00000088820263814921122710000014134347457101089470_);}
	.st21{fill:#E7DBE0;}
	.st22{fill:url(#SVGID_00000107547908636760407290000016099440863631528589_);}
	.st23{fill:url(#SVGID_00000116927804991219094710000015076354278506576282_);}
	.st24{fill:#E75742;}
	.st25{fill:#EEA755;}
	.st26{fill:#EEB3B2;}
	.st27{fill:#FA9DA5;}
	.st28{fill:#FABEB5;}
	.st29{fill:#F25026;}
	.st30{fill:url(#SVGID_00000122719445752521725550000017831492089604452249_);}
	.st31{fill:url(#SVGID_00000096038314029128548170000015032787155127641238_);}
	.st32{fill:url(#SVGID_00000096040860413932471190000014902443030123548856_);}
	.st33{fill:url(#SVGID_00000023277081698214019740000004234634592729352114_);}
	.st34{fill:url(#SVGID_00000053525976430418718350000000602042369731703207_);}
	.st35{fill:url(#SVGID_00000001648610188446988870000004076786238944016023_);}
	.st36{fill:url(#SVGID_00000104692713805147697530000018356875268501492409_);}
	.st37{fill:url(#SVGID_00000054979004124089530640000000700288482525331590_);}
	.st38{fill:url(#SVGID_00000062159305127171334700000008787184528605319834_);}
	.st39{fill:url(#SVGID_00000075150557274642532180000011349881278214159521_);}
	.st40{fill:url(#SVGID_00000036245430565554215170000015928758083866632354_);}
	.st41{fill:url(#SVGID_00000152945481878825205180000015151243938313982615_);}
	.st42{fill:url(#SVGID_00000031198282156722799950000008096944685835147683_);}
	.st43{fill:url(#SVGID_00000180350888090915994910000010697175763227267458_);}
	.st44{fill:url(#SVGID_00000147201106826473797920000005461667441670369434_);}
	.st45{fill:url(#SVGID_00000155839580497126747630000005746078478191255722_);}
	.st46{fill:url(#SVGID_00000049940542603929093600000014705089799332610460_);}
	.st47{fill:url(#SVGID_00000052074556268366168350000015301565895083309224_);}
	.st48{fill:url(#SVGID_00000181052959836385117910000003132801973330474407_);}
	.st49{fill:url(#SVGID_00000098214221691168146790000005874368840440361608_);}
	.st50{fill:url(#SVGID_00000013159363520800485640000015178779292071249315_);}
	.st51{fill:url(#SVGID_00000056407165970800634040000001845905241709878718_);}
	.st52{fill:url(#SVGID_00000066504944027025653500000001780152708671731129_);}
	.st53{fill:url(#SVGID_00000089535621906095136620000008821852680543046546_);}
	.st54{fill:url(#SVGID_00000132808263809009621520000010419110197244932231_);}
	.st55{fill:url(#SVGID_00000078010233640853142270000006930933085359518648_);}
	.st56{fill:url(#SVGID_00000145030492857003675330000007448948959270641558_);}
	.st57{fill:url(#SVGID_00000046322491784312775520000014254897322271426690_);}
	.st58{fill:url(#SVGID_00000054965129818109736050000004766962347112459659_);}
	.st59{fill:url(#SVGID_00000084505048646006928270000012221911594437628040_);}
	.st60{opacity:0.4;fill:url(#SVGID_00000152965617742841127150000003557385008116313485_);}
	.st61{fill:url(#SVGID_00000156550958104265177090000017231568570106604188_);}
	.st62{fill:url(#SVGID_00000088843591375766863250000018177931248006359174_);}
	.st63{fill:url(#SVGID_00000147188687403166246900000001282137699432994204_);}
	.st64{fill:url(#SVGID_00000102524481102563752630000004380865969681928115_);}
	.st65{fill:url(#SVGID_00000062897837786302004650000000554164385227103621_);}
	.st66{fill:url(#SVGID_00000062179012682407937900000010542932475419711904_);}
	.st67{fill:url(#SVGID_00000017516937561286151340000015389215702654720407_);}
	.st68{fill:url(#SVGID_00000011024591109367654980000003139752144711060667_);}
	.st69{fill:#AD0000;}
	.st70{fill:url(#SVGID_00000162314051874890958600000016213830329763725984_);}
	.st71{fill:url(#SVGID_00000126320116525727572090000003187617216414052755_);}
	.st72{fill:url(#SVGID_00000117638140019770590350000013451210019901750170_);}
	.st73{fill:url(#SVGID_00000015326244667305074440000008524857680072429203_);}
	.st74{fill:url(#SVGID_00000028297894055879929960000009269242564883325064_);}
	.st75{fill:#BF9184;}
	.st76{fill:none;stroke:#FDD5C8;stroke-miterlimit:10;}
	.st77{fill:url(#SVGID_00000077304224661551353890000005823591828312541335_);}
	.st78{fill:url(#SVGID_00000145038724255570704570000011240429171876940453_);}
	.st79{fill:url(#SVGID_00000168104842703898310600000007529282934468990867_);}
	.st80{fill:url(#SVGID_00000026873983322651591710000017021439935108130444_);}
	.st81{fill:url(#SVGID_00000125561826605761409280000004383308709618745517_);}
	.st82{fill:url(#SVGID_00000168100794675918804430000005717837374485819052_);}
	.st83{fill:url(#SVGID_00000005963137866935209160000014752447076854550968_);}
	.st84{fill:url(#SVGID_00000036237270659339962410000015709640334440614072_);}
	.st85{fill:url(#SVGID_00000043434187501290694220000016750921008156152962_);}
	.st86{fill:url(#SVGID_00000054952630884264776280000007269348263029809577_);}
	.st87{fill:none;stroke:#E0AFA1;stroke-miterlimit:10;}
	.st88{fill:#59767A;}
	.st89{fill:none;}
	.st90{fill:#314042;}
	.st91{fill:url(#SVGID_00000131363023683011164550000003433852441137503901_);}
	.st92{fill:url(#SVGID_00000031175623013663254240000004594987456708566433_);}
	.st93{fill:url(#SVGID_00000079483659418742986000000011482613357468507047_);}
	.st94{fill:url(#SVGID_00000112614168750959220920000007967314093538038682_);}
	.st95{fill:url(#SVGID_00000054242358862101709370000015087384745522672788_);}
	.st96{fill:none;stroke:#99685A;stroke-miterlimit:10;}
	.st97{fill:#F2CEC4;}
	.st98{fill:#E1AFA1;}
	.st99{fill:url(#SVGID_00000178188715730972318130000003350845617294397618_);}
	.st100{fill:url(#SVGID_00000035527531367769519620000007405223241918665626_);}
	.st101{fill:url(#SVGID_00000088128999038087410330000012351175940437238461_);}
	.st102{fill:url(#SVGID_00000122710996365755776780000005734609542276070320_);}
	.st103{fill:url(#SVGID_00000010301108062123280100000005303964890734828975_);}
	.st104{fill:url(#SVGID_00000103257302532206587220000009322566384614687915_);}
	.st105{fill:url(#SVGID_00000012468749309591718690000016030957534944454051_);}
	.st106{fill:url(#SVGID_00000098935888219496323010000006021469056230296196_);}
	.st107{fill:url(#SVGID_00000121255328881859150810000017973737637318313137_);}
	.st108{fill:url(#SVGID_00000031166164581872596040000017928628158804190892_);}
	.st109{fill:#E39F8D;}
	.st110{fill:#C2553C;}
	.st111{fill:url(#SVGID_00000109727710542535813640000009588707048087734446_);}
	.st112{fill:url(#SVGID_00000062168882082937661100000013087165497050792872_);}
	.st113{fill:url(#SVGID_00000142871653393945454790000004675416342155380116_);}
	.st114{fill:#AD4024;}
	.st115{fill:url(#SVGID_00000121995884300026945150000008832278514323234195_);}
	.st116{fill:url(#SVGID_00000111894161087460120020000003932332687630069917_);}
	.st117{fill:url(#SVGID_00000100344219920714583670000013937330528862787749_);}
	.st118{opacity:0.5608;fill:#FFFFFF;}
	.st119{fill:#FFFFFF;}
	.st120{fill:#FFF1ED;}
	.st121{fill:#E6D7D3;}
	.st122{opacity:0.4392;fill:#E0AFA1;}
	.st123{fill:#FFD3C7;}
	.st124{opacity:0.3412;fill:#AAAD66;}
	.st125{opacity:0.2314;fill:#FFFFFF;}
	.st126{fill:#23282B;}
	.st127{fill:none;stroke:#99685A;stroke-linecap:round;stroke-linejoin:round;stroke-miterlimit:10;}
	.st128{fill:#495760;}
	.st129{fill:#353A3E;}
	.st130{fill:#3A474F;}
	.st131{fill:#709EB8;}
	.st132{fill:#8BB0C5;}
	.st133{fill:#31556B;}
	.st134{fill:#4E768F;}
	.st135{fill:#263F4F;}
	.st136{fill:#576975;}
	.st137{fill:none;stroke:#3A474F;stroke-miterlimit:10;}
	.st138{fill:#2F3943;}
	.st139{fill:#C78D7D;}
	.st140{fill:#421D13;}
	.st141{fill:#5E3E35;}
	.st142{fill:#806158;}
	.st143{fill:#EFC3B6;}
	.st144{fill:#C79789;}
	.st145{fill:none;stroke:#EFC3B6;stroke-miterlimit:10;}
	.st146{fill:#69483F;}
	.st147{fill:none;stroke:#806158;stroke-width:3;stroke-linecap:round;stroke-linejoin:round;stroke-miterlimit:10;}
	.st148{fill:#E8E8E8;}
	.st149{fill:#BACAD9;}
	.st150{fill:#694034;}
	.st151{fill:#658F85;}
	.st152{fill:#407065;}
	.st153{fill:#323C42;}
	.st154{fill:#B4CADE;}
	.st155{opacity:0.3294;fill:#C75B63;}
	.st156{fill:none;stroke:#5E3E35;stroke-width:4;stroke-linecap:round;stroke-linejoin:round;stroke-miterlimit:10;}
	.st157{fill:#4C6270;}
	.st158{fill:#7A4A3D;}
	.st159{fill:#252E37;}
	.st160{fill:#3E4852;}
	.st161{fill:none;stroke:#E0AFA1;stroke-linecap:round;stroke-linejoin:round;stroke-miterlimit:10;}
	.st162{fill:#BA8677;}
	.st163{fill:#313B45;}
	.st164{fill:none;stroke:#4E768F;stroke-miterlimit:10;}
	.st165{fill:#193646;}
	.st166{opacity:0.1882;fill:#FFFFFF;}
	.st167{fill:none;stroke:#421D13;stroke-miterlimit:10;}
	.st168{opacity:0.2196;fill:#1390D4;}
	.st169{opacity:0.2392;fill:#027DCF;}
	.st170{opacity:0.3216;fill:#FFFFFF;}
	.st171{fill:#CFCFCF;}
	.st172{fill:url(#SVGID_00000169519474761804217720000015012668219812071838_);}
	.st173{fill:url(#SVGID_00000093158558166817354150000009003498081256644997_);}
	.st174{opacity:0.749;fill:url(#SVGID_00000069381214703474050650000017300463543325569460_);}
	.st175{fill:url(#SVGID_00000174588703723223540270000002640319574197321364_);}
	.st176{fill:url(#SVGID_00000140729580854886234530000012377513720562090925_);}
	.st177{fill:#821111;}
	.st178{fill:url(#SVGID_00000159469007138662903980000018044574988406609574_);}
	.st179{fill:#BC0002;}
	.st180{fill:url(#SVGID_00000121279057276805912450000016571354914230760596_);}
	.st181{fill:url(#SVGID_00000077322378902303777060000008696647900661250979_);}
	.st182{fill:url(#SVGID_00000107589959726291709100000006736014768395694757_);}
</style>
<g>
	<rect class="st0" width="1500" height="1194.17"/>
	<path class="st1" d="M1500,0v1194.17H702.92c-0.48,0.66-0.95,1.33-1.4,2.01l-6.48-2.01H486.41c-0.16,0.42-0.32,0.84-0.48,1.28
		l-3.99-1.28l-23.8-7.69l-49.09-15.86L45.87,1053.35l-21.84-7.06L0,1038.54V0H1500z"/>
	<rect class="st131" width="24.03" height="1047.99"/>
	<ellipse class="st135" cx="714.6" cy="276.66" rx="14.56" ry="16.02"/>
	<rect x="361.32" y="300.24" class="st157" width="669.9" height="466.02"/>
	<path class="st157" d="M1247.14,301.54c-3.06,148.9-9.2,297.73-26.2,463.6c26.3-18.16,57.53-29.1,89.42-31.34
		c-3.19-148.97-0.26-298.07,8.78-446.8C1295.26,290.92,1271.11,293.21,1247.14,301.54z"/>
	<polygon class="st157" points="1445.91,1194.17 713.74,1194.17 1.54,982.63 205.43,720.5 1414.17,924.38 	"/>
	<path class="st177" d="M1158.96,383.42c-8.11,0-16.25-0.99-24.24-1.96l-0.73-0.09c-53.3-6.47-107.55-10.01-161.24-10.52
		c-13.67-0.13-29.16-0.28-41.74-8.49c-17.28-11.28-22.92-36.57-12.07-54.12c1.48-2.39,4.62-3.13,7.02-1.66
		c2.39,1.48,3.13,4.62,1.65,7.02c-7.92,12.82-3.65,31.99,8.97,40.23c10.08,6.58,23.39,6.71,36.27,6.83
		c54.07,0.51,108.7,4.08,162.37,10.59l0.73,0.09c14.15,1.72,28.78,3.5,41.73-0.81c10.9-3.62,20.31-11.52,28.86-19.5
		c3.94-3.68,7.67-7.34,10.03-11.69c2.74-5.04,3.71-11.11,4.53-17.41c1.38-10.64,2.36-21.44,2.93-32.12
		c0.15-2.81,2.58-4.97,5.36-4.82c2.81,0.15,4.97,2.55,4.82,5.36c-0.58,10.93-1.59,22-3,32.89c-0.91,7.01-2.1,14.4-5.68,20.98
		c-3.09,5.68-7.64,10.16-12.03,14.26c-9.39,8.78-19.85,17.49-32.6,21.73C1173.7,382.6,1166.34,383.42,1158.96,383.42z"/>
	<path class="st177" d="M1003.47,506.5C1003.47,506.5,1003.47,506.5,1003.47,506.5c-2.82,0-5.1-2.29-5.1-5.1
		c0.02-22.28-0.21-44.92-0.69-67.28c-0.12-5.56-0.54-11.71-4.04-14.45c-1.79-1.4-4.57-2-7.27-2.49c-2.76-0.5-5.67-0.97-8.47-1.41
		c-14.93-2.37-30.38-4.82-41.81-15.6c-12.09-11.39-15.52-29.02-18.02-41.9c-0.54-2.76,1.27-5.44,4.03-5.98
		c2.77-0.54,5.44,1.27,5.98,4.03c2.91,14.93,6.04,27.97,15.01,36.42c9.15,8.62,22.4,10.72,36.42,12.95
		c2.86,0.46,5.83,0.93,8.71,1.45c3.78,0.69,8.11,1.67,11.72,4.49c7.6,5.95,7.83,16.56,7.95,22.27c0.48,22.44,0.71,45.15,0.69,67.51
		C1008.57,504.22,1006.29,506.5,1003.47,506.5z"/>
	<linearGradient id="SVGID_1_" gradientUnits="userSpaceOnUse" x1="183.2019" y1="318.4264" x2="822.9608" y2="359.6318">
		<stop  offset="0" style="stop-color:#314042"/>
		<stop  offset="0.5256" style="stop-color:#324144"/>
		<stop  offset="0.715" style="stop-color:#36464B"/>
		<stop  offset="0.8499" style="stop-color:#3D4F56"/>
		<stop  offset="0.9583" style="stop-color:#475C67"/>
		<stop  offset="1" style="stop-color:#4C6270"/>
	</linearGradient>
	<path class="st9" d="M823.95,453.25l-1.86,6.73l-33.64,121.21L758.67,688.5H422.78L229.54,570.42l-12.16-7.43l-13.17-8.05
		l-3.57-2.17l-2.45-1.5l-7.44-4.54l-12.77-7.81l16.59-0.84l9.06-0.47l3.64-0.19l5.45-0.28l17.08-0.89l1.22-0.06l-1.18-0.03
		l-16.49-0.48l-5.18-0.15l-3.71-0.1l-8.68-0.26l-12.35-0.35l4.08-82.95l-50.32-13.59l-10.88-48.96l46.24-43.51V0H745.5l20.91,120.82
		l5.87,33.86l11.1,64.15l2.97,17.2l5.71,32.91c0,0,0,0,0,0.01l2.58,14.94l4.95,28.57l7.03,40.65l5.52,31.88l0.04,0.23v0.01
		l0.57,3.33L823.95,453.25z"/>
	<path class="st177" d="M334.1,920.97c-1.17,0-2.35-0.4-3.31-1.22c-2.14-1.83-2.39-5.05-0.56-7.19
		c19.09-22.33,28.68-54.49,28.49-95.6c-0.08-17.48-1.77-35.3-3.4-52.54c-1.63-17.23-3.32-35.04-3.44-52.73
		c-0.02-2.81,2.25-5.11,5.06-5.13c0.01,0,0.02,0,0.04,0c2.8,0,5.08,2.26,5.1,5.06c0.12,17.25,1.79,34.84,3.4,51.84
		c1.65,17.46,3.37,35.52,3.45,53.46c0.2,43.62-10.21,78.03-30.94,102.27C336.96,920.37,335.53,920.97,334.1,920.97z"/>
	<path class="st90" d="M520.31,930.01c-2.57,0-5.16-0.89-7.38-2.59c-3.31-2.54-5.08-6.36-4.74-10.21c0.29-3.3,2.11-6.3,4.95-8.3
		c-22.19-23.43-41.4-49.52-57.2-77.7c-5.97-10.65-16.68-18.48-28.64-20.93c-11.96-2.46-24.88,0.51-34.57,7.94
		c-12.99,9.97-19.53,26.64-25.29,41.35c-1.03,2.62-3.98,3.91-6.61,2.89c-2.62-1.03-3.91-3.98-2.89-6.61
		c5.94-15.16,13.34-34.03,28.58-45.72c12-9.21,28.01-12.89,42.83-9.84c14.82,3.04,28.08,12.74,35.48,25.93
		c17.2,30.68,38.56,58.82,63.49,83.65c2.74,2.73,3.84,6.79,2.94,10.87c-0.9,4.07-3.6,7.3-7.24,8.62
		C522.82,929.8,521.57,930.01,520.31,930.01z M520.38,916.76c-0.29,0-0.66,0.08-1.05,0.28c-0.61,0.32-0.97,0.79-1,1.07
		c-0.02,0.28,0.25,0.8,0.79,1.23s1.13,0.54,1.39,0.45c0.26-0.1,0.62-0.56,0.77-1.24c0.15-0.68,0.02-1.25-0.18-1.45
		c-0.05-0.05-0.11-0.11-0.16-0.16c-0.06-0.03-0.11-0.06-0.17-0.09C520.69,916.78,520.55,916.76,520.38,916.76z"/>
	<path class="st0" d="M1320.55,217.65l10.53,4.86l-0.8,68.87l-8.91,7.3l0.8,22.69l-5-0.07l-70.43-1.05l-20.26-0.31l-12.89-0.19
		l-1.03-0.01l-291.22-5.13h-0.01l-121.75-2.14L709,310.88h-0.07l-19.05-0.33l-14.08-0.25h-0.01l-16.97-0.31
		c-0.52-6.07-0.93-12.15-1.22-18.23c-0.09-1.56-0.15-3.1-0.2-4.65c-0.8-20.05-0.39-40.16,1.19-60.16c0.16-2.11,0.35-4.21,0.54-6.32
		c0.01-0.15,0.03-0.29,0.04-0.44c-5.39,0.2-10.78,0.39-16.17,0.6c-2.04-20.83-3.04-41.75-3.01-62.67c0-1.06,0-2.11,0.01-3.17
		c-4.44,6.82-16.17,1.27-17.94-6.67c-1.72-7.66,1.73-15.34,3.42-23.04c0.06-0.28,0.12-0.57,0.17-0.84
		c2.49-12.51,1.59-29,13.38-33.86c-0.51-30.28,1.53-60.6,6.06-90.54h696.16l0.36,1.3l-12.16,24.31L1320.55,217.65z"/>
	<path class="st177" d="M490.82,956.6c-2.24,0-4.24-1.47-4.89-3.65c-24.17-81.89-38.91-166.64-43.8-251.89
		c-0.16-2.81,1.99-5.22,4.8-5.38c2.83-0.16,5.22,1.99,5.38,4.8c4.59,80.03,17.94,159.62,39.7,236.78c0.13,0,0.26,0.01,0.39,0.03
		c2.8,0.31,4.81,2.83,4.5,5.63l-1.02,9.15c-0.27,2.41-2.2,4.3-4.62,4.51C491.12,956.6,490.97,956.6,490.82,956.6z"/>
	<path class="st179" d="M569.67,833.23c-0.27,0-0.55-0.02-0.83-0.07c-25.47-4.17-60.36-9.88-82.32-33.15
		c-15.72-16.66-21.27-38.51-23.17-53.91c-2.38-19.29-0.65-38.67,1.02-57.41c0.25-2.8,2.73-4.88,5.53-4.62
		c2.8,0.25,4.88,2.72,4.63,5.53c-1.62,18.21-3.3,37.04-1.05,55.26c1.71,13.89,6.65,33.52,20.47,48.16
		c18.12,19.2,45.39,24.99,76.55,30.09c2.78,0.46,4.66,3.08,4.21,5.85C574.29,831.46,572.12,833.23,569.67,833.23z"/>
	<path class="st177" d="M563.58,808.75c-2.34,0-4.44-1.62-4.97-3.99c-9.54-42.86-17.23-86.67-22.85-130.21
		c-0.36-2.79,1.61-5.35,4.4-5.71c2.79-0.38,5.35,1.61,5.71,4.4c5.59,43.24,13.22,86.74,22.69,129.3c0.61,2.75-1.12,5.47-3.87,6.08
		C564.32,808.71,563.94,808.75,563.58,808.75z"/>
	<path class="st90" d="M379.65,1131.55c-0.2,0-0.41-0.01-0.61-0.04c-2.8-0.33-4.79-2.87-4.46-5.67
		c4.98-41.75,22.22-79.52,48.55-106.36c29.37-29.94,69.93-45.61,108.49-41.92c2.8,0.27,4.86,2.76,4.59,5.56
		c-0.27,2.8-2.74,4.86-5.56,4.59c-35.53-3.41-73,11.14-100.24,38.91c-24.76,25.24-40.99,60.9-45.71,100.43
		C384.39,1129.64,382.19,1131.55,379.65,1131.55z"/>
	<path class="st90" d="M352.6,1110.27c-0.61,0-1.22-0.11-1.82-0.34c-2.63-1.01-3.94-3.96-2.93-6.58
		c12.17-31.7,27.49-67.6,55.5-92.43c30.31-26.87,71.34-37.24,107.47-43.83c2.77-0.5,5.42,1.33,5.93,4.1c0.5,2.77-1.33,5.42-4.1,5.93
		c-34.75,6.34-74.11,16.22-102.54,41.43c-26.29,23.31-41.01,57.88-52.74,88.45C356.58,1109.02,354.65,1110.27,352.6,1110.27z"/>
	<path class="st90" d="M190.42,1072.06c-1.48,0-2.95-0.64-3.96-1.89c-1.77-2.19-1.44-5.4,0.75-7.17
		c50.95-41.31,116.31-56.32,179.53-70.83c24-5.51,48.82-11.21,72.38-18.26c34.04-10.18,67.21-23.79,98.58-40.45
		c2.49-1.32,5.57-0.37,6.89,2.11c1.32,2.49,0.37,5.57-2.11,6.89c-31.97,16.97-65.76,30.84-100.44,41.22
		c-23.88,7.14-48.86,12.88-73.02,18.43c-62.08,14.25-126.27,28.99-175.39,68.81C192.68,1071.69,191.55,1072.06,190.42,1072.06z"/>
	<path class="st128" d="M1192.13,1003.76c-34.44,0-67.04-28.79-70.67-63.16c-0.3-2.8,1.73-5.31,4.53-5.6
		c2.8-0.31,5.31,1.73,5.6,4.53c3.2,30.28,32.64,55.51,63.11,53.98c17.03-0.86,32.49-8.58,48.85-16.76
		c7.61-3.8,15.47-7.73,23.51-10.91c9.89-3.91,20.19-6.72,30.15-9.44c4.05-1.11,8.24-2.25,12.31-3.44
		c42.94-12.6,83.92-34.26,118.51-62.65c2.18-1.78,5.39-1.47,7.17,0.71c1.78,2.18,1.47,5.39-0.71,7.17
		c-35.64,29.25-77.87,51.57-122.11,64.55c-4.16,1.22-8.4,2.38-12.5,3.5c-9.69,2.65-19.72,5.39-29.09,9.09
		c-7.63,3.02-15.29,6.84-22.71,10.55c-16.58,8.29-33.73,16.85-52.89,17.82C1194.19,1003.74,1193.16,1003.76,1192.13,1003.76z"/>
	<path class="st128" d="M1370.45,1028.56c-13.85,25.92-32.53,49.21-54.04,67.33c-16.54,13.95-34.6,24.79-53.65,32.21
		c-0.07,0.03-0.15,0.06-0.22,0.07c-3.55,1.4-7.3,2.71-11.11,3.9c-6.36,1.98-12.89,3.63-19.19,5.2c-12.28,3.09-23.87,5.99-34.63,11.3
		c-7.85,3.87-14.97,9.44-20.04,15.64c-6.03,7.37-9.12,15.48-8.93,23.45c0.03,1.79,0.25,3.63,0.64,5.46c0.07,0.35,0.1,0.7,0.1,1.05
		h-10.28c-0.39-2.11-0.61-4.22-0.66-6.29c-0.25-10.41,3.64-20.84,11.23-30.12c6.06-7.41,14.16-13.75,23.42-18.34
		c11.74-5.78,24.41-8.97,36.67-12.04c6.16-1.54,12.54-3.15,18.63-5.04c3.67-1.15,7.25-2.42,10.66-3.74c0.06-0.03,0.13-0.06,0.2-0.07
		c17.94-7.02,34.95-17.26,50.58-30.45c20.53-17.29,38.39-39.52,51.63-64.33c8.33-15.61,25.6-54.95,5.96-82.97
		c-0.68-0.98-1.4-1.91-2.13-2.78c-12.55-15.1-36.03-21.48-55.81-15.17c-5.16,1.63-10.14,4.06-14.81,7.22
		c-13.38,9.04-23.56,23.55-27.93,39.82c-0.47,1.76-0.89,3.55-1.24,5.33c-2.99,15.12-1.92,30.64-0.82,47.07
		c0.42,6.19,0.86,12.6,1.05,18.92c0.98,32.93-7.12,56.84-24.07,71.04c-6.16,5.17-13.28,8.91-21.17,11.14
		c-0.06,0.01-0.13,0.03-0.19,0.04c-17.36,4.89-38.78,2.72-65.5-6.61c-5.99-2.07-12.44-4.57-19.75-7.67
		c-2.59-1.09-3.8-4.09-2.69-6.68c1.09-2.59,4.08-3.8,6.68-2.69c7.08,3,13.34,5.43,19.11,7.43c24.77,8.67,44.26,10.75,59.55,6.38
		c0.07-0.01,0.13-0.03,0.2-0.04c6.42-1.83,12.22-4.89,17.21-9.09c14.45-12.1,21.32-33.28,20.43-62.94
		c-0.17-6.12-0.61-12.42-1.02-18.51c-1.11-16.37-2.26-33.29,0.99-49.76c0.39-1.98,0.86-3.98,1.37-5.96
		c5.01-18.63,16.69-35.26,32.08-45.64c5.49-3.7,11.34-6.55,17.43-8.49c23.94-7.63,51.38-0.07,66.71,18.35
		c0.9,1.08,1.81,2.24,2.65,3.47C1398.64,967.59,1379.67,1011.29,1370.45,1028.56z"/>
	<path class="st134" d="M1414.22,1153.82c-8.62,0-17.01-1.45-24.56-3.07c-24.77-5.31-42.76-13.19-56.61-24.8
		c-29.12-24.41-38.19-64.28-43.21-100.06c-5.69-40.48-10.14-93.14,6.06-141.51c16.83-50.26,56.16-88.21,100.21-96.67
		c2.76-0.53,5.44,1.28,5.97,4.04c0.53,2.76-1.28,5.44-4.04,5.97c-40.49,7.78-76.78,43.07-92.46,89.9
		c-15.52,46.35-11.17,97.49-5.63,136.86c4.76,33.86,13.19,71.47,39.67,93.67c12.53,10.5,29.11,17.7,52.2,22.64
		c10.85,2.32,23.53,4.3,35.31,1.37c11.69-2.91,20.82-10.92,23.26-20.41c0.7-2.73,3.49-4.37,6.2-3.67c2.73,0.7,4.37,3.48,3.67,6.2
		c-3.35,13.06-15.39,23.96-30.67,27.77C1424.46,1153.32,1419.3,1153.82,1414.22,1153.82z"/>
	<path class="st134" d="M1215.1,1091.1c-0.31,0-0.63-0.03-0.94-0.09c-2.77-0.52-4.59-3.18-4.07-5.95
		c6.61-35.3,11.86-71.32,15.59-107.05c0.53-5.07,0.1-11.32-2.85-12.23c-2.69-0.84-4.19-3.69-3.36-6.38
		c0.84-2.69,3.69-4.19,6.38-3.36c4.48,1.39,11.72,6.23,9.97,23.03c-3.76,36.01-9.05,72.3-15.71,107.87
		C1219.64,1089.39,1217.5,1091.1,1215.1,1091.1z"/>
	<path class="st128" d="M1159.29,1066.18c-2.7,0-4.95-2.12-5.09-4.84l-4.55-89.83c-0.14-2.81,2.02-5.21,4.83-5.35
		c2.76-0.18,5.2,2.02,5.35,4.83l4.55,89.83c0.14,2.81-2.02,5.21-4.83,5.35C1159.47,1066.17,1159.38,1066.18,1159.29,1066.18z"/>
	<path class="st131" d="M695.04,1194.17H486.41c-0.16,0.42-0.32,0.84-0.48,1.28l-3.99-1.28l-23.8-7.69l-49.09-15.86L45.87,1053.35
		l-21.84-7.06L0,1038.54v-59.11l24.03,7.43l62.77,19.4l132.38,40.89c0-0.01,0.01,0,0.01,0l139.34,43.06l26.5,8.18l51.52,15.92
		l33.9,10.49l11.26,3.47l15.29,4.73l22.63,6.99l63.92,19.75l1.82,0.55L695.04,1194.17z"/>
	<path class="st90" d="M1118.27,1120.72c-51.83,20.65-107.33,25.83-174.64,16.33c-2.84-0.41-5.68-0.83-8.49-1.28
		c0.35,0.52,0.7,1.03,1.05,1.56c11.8,17.48,24.61,36.07,38.27,53.74c0.71,0.93,1.06,2.02,1.06,3.12h-11.5
		c-12.96-16.94-25.06-34.56-36.28-51.15c-2.43-3.58-4.85-7.16-7.27-10.75l-0.44-0.66c-1.15-1.7-1.17-3.92-0.04-5.64
		c1.12-1.72,3.15-2.61,5.17-2.24c6.47,1.17,13.17,2.24,19.89,3.2c60.26,8.52,110.66,4.97,157.37-11.21c0.12-2.71,2.36-4.88,5.1-4.88
		c0.01,0,0.01,0,0.03,0l8.85,0.03c2.43,0.01,4.53,1.75,4.98,4.15S1120.53,1119.82,1118.27,1120.72z"/>
	<path class="st90" d="M1406.27,1092.44c-2.9-0.89-5.46-1.6-7.82-2.2c-15.92-4.09-32.34-5.87-48.82-5.27
		c-2.18,0.09-4.08,1.54-4.7,3.64c-1.89,6.44-8.1,11.69-19.53,16.56c-0.68,0.29-1.37,0.58-2.13,0.87
		c-19.4,7.91-40.98,12.13-62.42,12.22c-13.78,0.03-27.38-1.53-40.59-4.75c-5.46-1.33-10.91-2.96-16.22-4.86l-0.54-0.19
		c-15.47-5.52-36.66-13.08-50.42-0.29c-0.19,0.17-0.41,0.36-0.55,0.51c-8.24,8.02-10.18,21.87-4.73,33.67
		c4.05,8.77,11.81,16.49,23.1,22.97c0,0.01,0,0.01,0.01,0.01c0.04,0.03,0.1,0.07,0.16,0.1c27.84,15.9,60.17,17.27,91.46,18.6
		c20.62,0.87,41.96,1.78,61.62,6.87c3.45,0.89,7.06,1.97,10.98,3.28h20c0-2.04-1.24-3.96-3.25-4.75c-9.79-3.82-17.78-6.48-25.17-8.4
		c-20.72-5.37-42.6-6.29-63.76-7.19c-31.43-1.33-61.12-2.58-86.81-17.26c0,0,0,0-0.01,0c-0.04-0.03-0.09-0.06-0.15-0.09
		c0,0,0,0-0.01,0c-9.41-5.42-15.76-11.61-18.9-18.42c-3.1-6.7-3.22-16.44,2.62-22.12l0.23-0.22c9.34-8.67,25.72-2.83,40.17,2.33
		l0.52,0.19c5.65,2.02,11.46,3.77,17.26,5.17c14.01,3.42,28.53,5.13,43.03,5.04c22.73-0.09,45.63-4.57,66.16-12.95
		c0.79-0.32,1.59-0.64,2.36-0.98c8.17-3.48,19.12-9.17,23.94-19.46c14.37-0.25,28.66,1.46,42.58,5.04c2.21,0.57,4.62,1.24,7.35,2.08
		c2.69,0.82,5.53-0.7,6.36-3.39C1410.48,1096.11,1408.97,1093.27,1406.27,1092.44z"/>
	<g>
		<path class="st2" d="M855.48,439.53c-3.32-14.43-6.63-28.86-9.93-43.3c-0.61-2.66-1.33-5.52-3.35-7.37
			c-2.77-2.52-6.98-2.34-10.7-2.01c-3.12,0.28-6.23,0.55-9.35,0.84c-3.13,0.28-6.26,0.57-9.39,0.87c-2.61,0.23-5.23,0.5-7.84,0.77
			c-1.98,0.19-3.96,0.41-5.94,0.63c-2.21,0.25-4.43,0.5-6.64,0.76c2.27-0.5,4.53-1.02,6.77-1.6c0.6-0.15,1.18-0.31,1.78-0.47
			c0.6-0.15,1.18-0.31,1.78-0.48c0.38-0.1,0.76-0.2,1.15-0.32c0.47-0.13,0.92-0.26,1.38-0.39c0.41-0.12,0.83-0.25,1.25-0.38
			c0.32-0.09,0.64-0.19,0.96-0.29c0.13-0.04,0.28-0.09,0.41-0.13c0.45-0.13,0.92-0.28,1.37-0.44c0.22-0.06,0.42-0.13,0.64-0.2
			c0.25-0.07,0.48-0.16,0.71-0.23c0.5-0.16,1-0.33,1.5-0.51c0.06-0.01,0.1-0.03,0.15-0.04c0.13-0.06,0.23-0.1,0.36-0.15h0.01
			c0.01,0,0.01,0,0.01,0c0.17-0.06,0.35-0.12,0.52-0.19h0.01c0.15-0.04,0.29-0.1,0.44-0.16c0.55-0.19,1.11-0.39,1.66-0.6
			c3.2-1.19,6.35-2.5,9.44-3.96c0.66-0.29,1.31-0.61,1.97-0.95c0.03,0,0.06-0.01,0.09-0.04c0.82-0.39,1.62-0.8,2.42-1.22
			c0.74-0.38,1.49-0.77,2.23-1.18c0.47-0.25,0.93-0.51,1.38-0.77c2.5-1.43,4.95-2.96,7.34-4.59c0.93-0.64,1.88-1.33,2.43-2.32
			c2.26-4.06-3.5-7.76-8.01-8.88c-6.98-1.75-13.98-3.48-20.97-5.3c-2.2-0.57-4.4-1.15-6.58-1.73c-0.1-0.03-0.22-0.06-0.32-0.09
			c-7.67-2.05-15.32-4.24-22.86-6.67c-1.19-0.38-2.39-0.77-3.58-1.17c-2.3-0.76-4.57-1.54-6.84-2.36c-0.93-0.33-1.86-0.67-2.8-1.02
			c-1-0.36-2.01-0.74-3.01-1.14c-1.82-0.68-3.61-1.4-5.4-2.13c-1.67-0.67-3.33-1.37-4.98-2.1c-0.66-0.28-1.33-0.57-1.98-0.87
			c-0.99-0.44-1.97-0.87-2.94-1.33c-1.85-0.86-3.68-1.73-5.5-2.64c-0.92-0.45-1.82-0.9-2.74-1.37c-1.22-0.61-2.45-1.24-3.66-1.88
			c-1.57-0.83-3.15-1.66-4.7-2.5c-2.36-1.28-4.7-2.58-7.03-3.89c-2.11-1.19-4.21-2.39-6.31-3.58c-1-0.57-2.01-1.15-3.01-1.72
			c-0.77-0.45-1.54-0.89-2.32-1.34c-2.33-1.33-4.66-2.67-6.99-4c-0.31-0.17-0.63-0.36-0.95-0.54h-0.07c-1.22-0.71-2.4-1.4-3.63-2.1
			c-1.56-0.87-3.12-1.75-4.67-2.61c-1.54-0.86-3.1-1.7-4.67-2.55c-1.17-0.63-2.34-1.25-3.52-1.86c-1.76-0.93-3.52-1.83-5.3-2.71
			c-0.89-0.45-1.78-0.89-2.67-1.31c-0.89-0.44-1.78-0.86-2.68-1.28c-1.59-0.74-3.17-1.47-4.78-2.17c-1-0.44-2.01-0.87-3.03-1.3
			c-1-0.42-2.02-0.83-3.04-1.24c-0.79-0.32-1.59-0.63-2.37-0.92c-0.95-0.36-1.89-0.71-2.85-1.05c-0.84-0.31-1.67-0.6-2.5-0.87
			c-0.23-0.09-0.47-0.16-0.7-0.23c-0.61-0.2-1.24-0.41-1.85-0.6c-0.25-0.07-0.51-0.16-0.76-0.23c-0.83-0.26-1.67-0.51-2.5-0.74
			c-0.7-0.2-1.41-0.41-2.11-0.58c-0.7-0.19-1.4-0.38-2.11-0.55c-0.76-0.19-1.53-0.36-2.29-0.54c-0.74-0.19-1.49-0.35-2.23-0.5
			c-0.42-0.1-0.86-0.19-1.3-0.26c-1.22-0.25-2.45-0.47-3.67-0.67c-2.48-0.41-4.97-0.73-7.5-0.96c-10.33-0.93-20.71-0.26-31.08-0.44
			c-11.81-0.2-23.59-1.51-35.33-2.81c-15.98-1.76-31.95-3.52-47.93-5.3c-4.85-0.52-9.74-1.08-14.4-2.59
			c-7.11-2.32-13.27-6.77-19.81-10.4c-0.57-0.31-1.12-0.63-1.7-0.92c-13.38-7.08-28.54-10.79-43.7-10.67
			c-0.31-0.28-0.61-0.55-0.93-0.82c-15.26-13.43-32.72-22.51-51.32-26.88c-4.5-1.06-9.15-1.85-13.75-1.46
			c-1.4,0.12-2.8,0.35-4.17,0.67l-0.54,0.13c-0.31,0.07-0.61,0.15-0.92,0.23c-2.72,0.73-5.37,1.78-7.97,2.9
			c-10.83,4.76-20.88,11.33-29.56,19.4l-0.01,0.01c-0.67,0.61-1.33,1.22-1.98,1.86c-3.93,0.89-7.75,2.32-11.39,4.19h-0.01
			c-5.94,3.03-11.4,7.21-16.15,11.96c-6.57,6.57-11.94,14.18-17.11,21.92c-0.86,1.28-1.7,2.55-2.55,3.83
			c-2.11,0.36-4.09,0.93-5.94,1.69c-15.68,6.35-23.04,25.84-27.51,43.02c-17.58,67.72-27.89,138.54-54.64,202.6
			c-0.39,0.98-0.8,1.94-1.21,2.9c-1.24,2.9-2.5,5.78-3.82,8.65c-4.11,9.01-8.58,17.88-13.49,26.56
			c-3.01,11.88-10.86,21.89-21.09,29.52c-5.13,3.83-10.86,7.06-16.88,9.64c-17.42,7.46-38.2,10.28-50.4,24.77
			c-6.79,8.05-9.7,18.42-13.69,28.22c-1.05,2.58-2.17,5.13-3.45,7.57c-4.49,8.58-10.92,15.95-17.33,23.2
			c-10.05,11.37-20.18,22.69-30.41,33.93c-7.95,8.78-15.96,17.5-24.03,26.2v350.52c8.65-10.14,17.32-20.27,26-30.39
			c6.61-7.72,13.24-15.42,19.88-23.13c13.57-15.76,27.2-31.46,40.92-47.1c3.79-4.34,7.6-8.68,11.42-13
			c3.82-4.33,7.65-8.64,11.48-12.96s7.66-8.64,11.5-12.93c0.8-0.92,1.62-1.83,2.45-2.75c3.16-3.54,6.32-7.08,9.51-10.6
			c1.57-1.76,3.15-3.51,4.72-5.24c2.78-3.09,5.58-6.17,8.37-9.25c3.66-4.05,7.33-8.07,11.02-12.09c1.72-1.89,3.45-3.8,5.2-5.68
			c3.68-4.02,7.37-8.04,11.08-12.03c1.95-2.11,3.92-4.22,5.88-6.33c1.81-1.95,3.63-3.9,5.46-5.85c1.83-1.95,3.66-3.9,5.49-5.85
			c4.21-4.51,8.46-9.01,12.74-13.5c3.22-3.39,6.45-6.79,9.68-10.16c2.97-3.12,5.96-6.22,8.96-9.32c2.11-2.18,4.22-4.38,6.35-6.55
			c2.27-2.36,4.56-4.7,6.86-7.03c1.79-1.83,3.58-3.67,5.39-5.5c5.48-5.58,10.98-11.14,16.53-16.67c1.76-1.76,3.54-3.52,5.3-5.27
			c4.54-4.54,9.1-9.04,13.67-13.53c20.01-19.62,40.53-39.04,64.38-53.71c1.09-0.67,2.18-1.33,3.28-1.97
			c1.02-0.6,2.02-1.19,3.06-1.76c0.73-0.42,1.46-0.83,2.2-1.24c0.73-0.41,1.47-0.82,2.21-1.21c0.57-0.31,1.14-0.61,1.7-0.9
			c1.85-0.99,3.71-1.95,5.61-2.87c0.98-0.5,1.95-0.98,2.94-1.44c1.69-0.83,3.39-1.63,5.11-2.4c0.36-0.17,0.74-0.35,1.11-0.51
			c0.87-0.39,1.73-0.79,2.61-1.17c0.13-0.06,0.26-0.12,0.41-0.17c0.7-0.32,1.41-0.63,2.13-0.93c0.71-0.32,1.43-0.63,2.14-0.92
			c0.95-0.41,1.88-0.8,2.83-1.18c0.82-0.35,1.65-0.68,2.46-1.02c0.84-0.35,1.7-0.7,2.56-1.03c0.86-0.35,1.72-0.68,2.58-1.02
			c1.41-0.57,2.83-1.11,4.25-1.65c1.41-0.54,2.81-1.08,4.22-1.6c1.41-0.54,2.83-1.06,4.25-1.57c8.49-3.13,17.07-6.1,25.65-9.1
			c1.6-0.57,3.2-1.12,4.81-1.69c1.73-0.6,3.47-1.21,5.18-1.84c4.17-1.5,8.33-3,12.48-4.54c0.5-0.19,1-0.38,1.51-0.57
			c0.48-0.19,0.96-0.36,1.46-0.55c1.3-0.5,2.59-0.99,3.89-1.5c3.84-1.5,7.69-3.04,11.49-4.66c1.41-0.6,2.83-1.19,4.24-1.82
			c0.03-0.01,0.07-0.03,0.1-0.04c0.61-0.26,1.24-0.54,1.85-0.82c5.75-2.56,11.43-5.3,17.02-8.21c1.33-0.68,2.65-1.38,3.98-2.1
			c1.3-0.68,2.59-1.4,3.87-2.11c1.02-0.55,2.02-1.12,3.03-1.7c0.15-0.07,0.28-0.15,0.42-0.23c1.09-0.61,2.18-1.25,3.28-1.89
			c3.09-1.81,6.15-3.66,9.16-5.58c1.27-0.8,2.53-1.6,3.8-2.43c1.12-0.73,2.24-1.46,3.35-2.21c0.58-0.38,1.15-0.76,1.7-1.15
			c3.55-2.39,7.05-4.86,10.49-7.41c0.58-0.41,1.15-0.83,1.72-1.27c1.17-0.86,2.32-1.73,3.47-2.62c1.34-1.02,2.68-2.07,4-3.12
			c1.25-0.98,2.49-1.98,3.71-3c0.63-0.51,1.25-1.02,1.88-1.54c1.81-1.47,3.58-2.99,5.34-4.51c1.28-1.11,2.56-2.23,3.83-3.36
			c0.68-0.6,1.35-1.21,2.02-1.83c2.1-1.88,4.15-3.8,6.17-5.75c0.89-0.84,1.78-1.69,2.65-2.55c0.1-0.1,0.2-0.19,0.29-0.29
			c0.58-0.57,1.17-1.15,1.75-1.73c2.07-2.04,4.09-4.11,6.07-6.2c1-1.03,1.98-2.08,2.97-3.15c1.31-1.43,2.62-2.87,3.92-4.31
			c0.61-0.68,1.22-1.37,1.82-2.05c0.73-0.82,1.44-1.65,2.16-2.49c0.55-0.63,1.09-1.25,1.62-1.89c0.67-0.77,1.33-1.54,1.95-2.33
			c0.6-0.7,1.17-1.4,1.73-2.1c1.12-1.35,2.21-2.72,3.31-4.11c0.41-0.51,0.8-1.02,1.19-1.53c0.8-1.02,1.6-2.05,2.39-3.09
			c12.25-5.01,28.15-15.41,41.55-28.38c6.28-6.09,12.03-12.76,18.98-18.07c0.7-0.54,1.41-1.05,2.13-1.56c0.99-0.7,2-1.37,3.03-2.01
			c0.42-0.28,0.86-0.54,1.3-0.8c3.34-2.01,6.8-3.76,10.38-5.33c0.84-0.38,1.7-0.74,2.56-1.11c1.33-0.55,2.65-1.09,3.99-1.6
			c0.93-0.38,1.88-0.73,2.83-1.08c0.13-0.06,0.25-0.1,0.38-0.13c0.64-0.25,1.3-0.49,1.95-0.71c2.87-1.05,5.77-2.05,8.65-3.06
			c0.89-0.31,1.78-0.61,2.66-0.93c1.05-0.36,2.1-0.73,3.15-1.11c1.6-0.57,3.2-1.15,4.79-1.75c1.35-0.51,2.69-1.02,4.02-1.56
			c15.5-6.23,29.9-14.83,43.95-24.09c2.91-1.92,5.81-3.89,8.71-5.85c1-0.68,2.02-1.37,3.03-2.07c7.66-5.24,15.28-10.56,22.98-15.66
			c1.62-1.06,3.23-2.13,4.86-3.17c1.63-1.05,3.26-2.08,4.89-3.12c1.3-0.82,2.61-1.62,3.92-2.42c0.73-0.45,1.47-0.89,2.2-1.31
			c1.4-0.84,2.81-1.66,4.24-2.48c1.16-0.67,2.33-1.33,3.5-1.97c1.35-0.73,2.69-1.46,4.06-2.17c1.49-0.77,2.99-1.54,4.5-2.29
			c0.76-0.36,1.51-0.73,2.27-1.09c0.83-0.39,1.65-0.77,2.48-1.15c0.83-0.38,1.67-0.76,2.5-1.12c1.94-0.84,3.89-1.66,5.87-2.43
			c1.06-0.42,2.13-0.83,3.2-1.21c0.79-0.31,1.6-0.58,2.4-0.86c0.13-0.04,0.26-0.09,0.39-0.13c0.42-0.15,0.83-0.28,1.25-0.42
			c0.41-0.15,0.83-0.28,1.25-0.41c0.76-0.25,1.53-0.5,2.3-0.71c0.73-0.23,1.47-0.45,2.21-0.66c1.11-0.32,2.21-0.61,3.33-0.9
			c2.14-0.54,4.49-1.15,5.77-2.94C856.57,444.93,856.05,442.05,855.48,439.53z M687.12,420.04c-11.18,6.16-21.68,13.51-31.57,21.64
			c-1.14,0.92-2.26,1.86-3.36,2.81c-2.23,1.88-4.41,3.8-6.57,5.77c-1.24,1.12-2.48,2.26-3.7,3.42c-0.09,0.07-0.17,0.15-0.26,0.23
			c0.01-0.1,0.01-0.19,0.03-0.29c0.26-2.62,0.48-5.21,0.67-7.75c0.16-2.17,0.31-4.31,0.41-6.42c0.12-2.01,0.19-3.99,0.25-5.94
			c0.01-0.38,0.03-0.76,0.03-1.14c0.01-0.16,0.01-0.32,0.01-0.48c0.03-0.86,0.04-1.69,0.04-2.53c0.04-2.52,0.03-5.01-0.01-7.46
			c-0.01-0.58-0.03-1.17-0.04-1.75c0.01-0.13,0-0.25,0-0.36c-0.01-0.39-0.01-0.77-0.04-1.17c0.01-0.1,0-0.2-0.01-0.31
			c0.01-0.04,0.01-0.06,0-0.1c0-0.48-0.03-0.96-0.04-1.44c0-0.06,0-0.12-0.01-0.17c0.01-0.03,0.01-0.04,0-0.07
			c-0.13-3.15-0.32-6.23-0.58-9.29c-0.26-3.06-0.6-6.07-0.98-9.06c-0.39-3-0.84-5.97-1.37-8.94c0.68-0.01,1.35-0.06,2.04-0.1
			c0.06,0,0.13,0,0.19-0.01c0.13,0,0.26-0.01,0.39-0.03h0.1c0.07,0,0.15-0.01,0.23-0.03c0.01-0.01,0.04-0.01,0.06-0.01
			c0.01,0.01,0.01,0.01,0.03,0.01c0,0,0.01,0,0.01-0.01c0.01,0.01,0.01,0.01,0.01,0.01c0.01,0,0.03,0,0.04-0.01
			c0.01,0.01,0.01,0.01,0.03,0c0.01,0,0.03,0,0.06-0.01l0.01,0.01c0.01,0,0.04,0,0.06-0.01c0.01,0.01,0.01,0.01,0.03,0
			c0.01,0,0.04,0,0.07-0.01v0.01c0.01,0,0.01,0,0.03-0.01c0.01,0.01,0.01,0.01,0.03,0h0.01c0.01,0.01,0.01,0.01,0.03,0
			c0.16,0,0.32-0.03,0.48-0.04c0.07,0,0.13-0.01,0.2-0.03c0.32-0.03,0.64-0.06,0.96-0.1c0.06,0,0.1,0,0.16-0.01
			c0.32-0.04,0.66-0.09,0.98-0.13c0.32-0.04,0.64-0.09,0.96-0.15c0.09,0,0.16-0.01,0.25-0.04c0.71-0.1,1.41-0.23,2.11-0.38
			c0.12-0.01,0.23-0.04,0.33-0.07c0.25-0.04,0.5-0.09,0.73-0.15c0.28-0.06,0.55-0.12,0.82-0.19c0.09-0.01,0.17-0.03,0.25-0.06
			c0.17-0.03,0.35-0.07,0.52-0.13c1.46-0.35,2.88-0.76,4.31-1.22c0.45-0.15,0.92-0.29,1.37-0.47c0.29-0.09,0.6-0.2,0.89-0.31
			c0.09-0.03,0.16-0.06,0.25-0.1c0.26-0.09,0.51-0.19,0.77-0.29c0.38-0.13,0.76-0.28,1.12-0.44c0.58-0.23,1.15-0.47,1.72-0.71
			c0.57-0.23,1.12-0.48,1.66-0.74c0.76-0.35,1.51-0.71,2.26-1.09c0.47-0.23,0.92-0.47,1.37-0.71c0.87-0.45,1.75-0.93,2.59-1.44
			c0.44-0.25,0.86-0.5,1.28-0.76c0.42-0.25,0.84-0.51,1.27-0.77c2.77,2.56,5.72,4.79,8.84,6.73c16.11,10.05,36.38,12.31,56.33,11.78
			c2.2-0.06,4.38-0.16,6.55-0.28c3.35-0.17,6.67-0.42,9.95-0.71c1.85-0.16,3.7-0.33,5.55-0.52c-4.94,0.9-9.84,1.92-14.71,3.04
			c-2.9,0.67-5.77,1.38-8.64,2.14C719.64,405.2,702.87,411.36,687.12,420.04z"/>
		<path class="st4" d="M251.55,455.08c4.73-12.45,10.89-24.17,17.97-35.42C263.68,431.55,257.68,443.34,251.55,455.08z"/>
		<path class="st4" d="M372.07,221.43c1.37-0.32,2.77-0.55,4.17-0.67c4.6-0.39,9.25,0.39,13.75,1.46
			c18.6,4.37,36.06,13.46,51.32,26.88c-16.72,4.21-32.45,12.73-46.19,23.29c-18.9,14.5-34.53,32.75-49.82,51.01
			c-11.8,14.07-23.48,28.22-35.14,42.39c-14.29,17.33-28.73,34.91-40.63,53.87c19.95-40.53,38.23-81.87,54.77-123.9
			c10.81-27.5,22.25-57.06,46.33-73.97c0.31-0.09,0.61-0.16,0.92-0.23L372.07,221.43z"/>
		
			<linearGradient id="SVGID_00000128472468241504630270000015817005987699116432_" gradientUnits="userSpaceOnUse" x1="389.6631" y1="664.1398" x2="720.9759" y2="619.8928">
			<stop  offset="0" style="stop-color:#E0AFA1"/>
			<stop  offset="0.3462" style="stop-color:#DEAD9F"/>
			<stop  offset="0.5507" style="stop-color:#D5A496"/>
			<stop  offset="0.7183" style="stop-color:#C79688"/>
			<stop  offset="0.865" style="stop-color:#B38274"/>
			<stop  offset="0.9984" style="stop-color:#99685A"/>
			<stop  offset="1" style="stop-color:#99685A"/>
		</linearGradient>
		<path style="fill:url(#SVGID_00000128472468241504630270000015817005987699116432_);" d="M752.93,503.56
			c-14.05,9.26-28.46,17.85-43.95,24.09c-1.33,0.54-2.67,1.05-4.02,1.56c-2.62,0.99-5.27,1.92-7.94,2.85
			c-0.89,0.32-1.78,0.63-2.66,0.93c-2.88,1-5.78,2.01-8.65,3.06c-0.66,0.22-1.31,0.47-1.95,0.71c-0.13,0.03-0.25,0.07-0.38,0.13
			c-0.95,0.35-1.89,0.7-2.83,1.08c-1.34,0.51-2.67,1.05-3.99,1.6c-0.86,0.35-1.72,0.73-2.56,1.11c-3.58,1.57-7.05,3.32-10.38,5.33
			c-0.44,0.26-0.87,0.52-1.3,0.8c-1.03,0.64-2.04,1.31-3.03,2.01c-0.71,0.51-1.43,1.02-2.13,1.56c-6.95,5.32-12.7,11.99-18.98,18.07
			c-13.4,12.98-29.3,23.37-41.55,28.38c-0.79,1.03-1.59,2.07-2.39,3.09c-0.39,0.51-0.79,1.02-1.19,1.53
			c-1.09,1.38-2.18,2.75-3.31,4.11c-0.57,0.7-1.14,1.4-1.73,2.1c-0.63,0.79-1.28,1.56-1.95,2.33c-0.52,0.64-1.06,1.27-1.62,1.89
			c-0.71,0.84-1.43,1.67-2.16,2.49c-0.6,0.68-1.21,1.37-1.82,2.05c-1.3,1.44-2.61,2.88-3.92,4.31c-0.99,1.06-1.97,2.11-2.97,3.15
			c-1.98,2.1-4,4.17-6.07,6.2c-0.58,0.58-1.17,1.17-1.75,1.73c-0.09,0.1-0.19,0.19-0.29,0.29c-0.87,0.86-1.76,1.7-2.65,2.55
			c-2.02,1.95-4.08,3.87-6.17,5.75c-0.67,0.63-1.34,1.24-2.02,1.83c-1.27,1.14-2.55,2.26-3.83,3.36c-1.76,1.53-3.54,3.04-5.34,4.51
			c-0.63,0.52-1.25,1.03-1.88,1.54c-1.22,1.02-2.46,2.02-3.71,3c-1.33,1.05-2.67,2.1-4,3.12c-1.15,0.89-2.3,1.76-3.47,2.62
			c-0.57,0.44-1.14,0.86-1.72,1.27c-3.44,2.55-6.93,5.02-10.49,7.41c-0.55,0.39-1.12,0.77-1.7,1.15c-1.11,0.76-2.23,1.49-3.35,2.21
			c-1.27,0.83-2.53,1.63-3.8,2.43c-3.01,1.92-6.07,3.77-9.16,5.58c-1.09,0.64-2.18,1.28-3.28,1.89c-0.15,0.09-0.28,0.16-0.42,0.23
			c-1,0.58-2.01,1.15-3.03,1.7c-1.28,0.71-2.58,1.43-3.87,2.11c-1.33,0.71-2.65,1.41-3.98,2.1c-5.59,2.91-11.27,5.65-17.02,8.21
			c-0.61,0.28-1.24,0.55-1.85,0.82c-0.03,0.01-0.07,0.03-0.1,0.04c-1.41,0.63-2.83,1.22-4.24,1.82c-3.8,1.62-7.65,3.16-11.49,4.66
			c-1.3,0.51-2.59,1-3.89,1.5c-0.5,0.19-0.98,0.36-1.46,0.55c-0.51,0.19-1.02,0.38-1.51,0.57c-4.15,1.54-8.32,3.04-12.48,4.54
			c-1.72,0.63-3.45,1.24-5.18,1.84c-1.6,0.57-3.2,1.12-4.81,1.69c-8.58,3-17.16,5.97-25.65,9.1c-1.43,0.51-2.84,1.03-4.25,1.57
			c-1.41,0.52-2.83,1.05-4.22,1.6c-1.43,0.54-2.84,1.08-4.25,1.65c-0.86,0.33-1.72,0.67-2.58,1.02c-0.86,0.33-1.72,0.68-2.56,1.03
			c-0.82,0.34-1.65,0.67-2.46,1.02c-0.95,0.38-1.88,0.77-2.83,1.18c-0.71,0.29-1.43,0.6-2.14,0.92c-0.71,0.31-1.43,0.61-2.13,0.93
			c-0.15,0.06-0.28,0.12-0.41,0.17c-0.87,0.38-1.73,0.77-2.61,1.17c-0.36,0.16-0.74,0.33-1.11,0.51c-1.72,0.77-3.42,1.57-5.11,2.4
			c-0.99,0.47-1.97,0.95-2.94,1.44c-1.89,0.92-3.76,1.88-5.61,2.87c-0.57,0.29-1.14,0.6-1.7,0.9c-0.74,0.39-1.49,0.8-2.21,1.21
			c-0.74,0.41-1.47,0.82-2.2,1.24c-1.03,0.57-2.04,1.16-3.06,1.76c-1.09,0.64-2.18,1.3-3.28,1.97
			c-23.85,14.66-44.37,34.09-64.38,53.71c-4.57,4.49-9.13,8.99-13.67,13.53c-1.78,1.73-3.54,3.51-5.3,5.27
			c-5.55,5.53-11.05,11.1-16.53,16.67c-1.81,1.83-3.6,3.67-5.39,5.5c-2.3,2.33-4.59,4.67-6.86,7.03c-2.13,2.17-4.24,4.37-6.35,6.55
			c-3,3.1-5.99,6.2-8.96,9.32c-3.25,3.38-6.48,6.77-9.68,10.16c-4.28,4.49-8.53,8.99-12.74,13.5c-1.85,1.95-3.68,3.9-5.49,5.85
			c-1.83,1.95-3.66,3.9-5.46,5.85c-1.97,2.11-3.93,4.22-5.88,6.33c-3.71,3.99-7.4,8.01-11.08,12.03c-1.75,1.88-3.48,3.79-5.2,5.68
			c-3.7,4.02-7.37,8.04-11.02,12.09c-2.8,3.07-5.59,6.16-8.37,9.25c-1.57,1.73-3.15,3.48-4.72,5.24c-3.19,3.52-6.35,7.06-9.51,10.6
			c-0.83,0.92-1.65,1.83-2.45,2.75c-3.86,4.3-7.7,8.61-11.5,12.93c-3.84,4.31-7.66,8.64-11.48,12.96c-3.82,4.33-7.63,8.67-11.42,13
			c-13.72,15.64-27.35,31.34-40.92,47.1c-6.64,7.7-13.27,15.41-19.88,23.13c-8.68,10.12-17.34,20.26-26,30.39V829.6
			c8.14-5.36,16.15-10.91,24.03-16.62c86.61-62.81,157.79-146.81,205.51-242.56c5.96-11.93,11.55-24.04,16.75-36.32
			c3.77-8.9,7.46-18.06,13.69-25.46c6.63-7.85,15.68-13.19,24.51-18.48c27.99-16.78,57.96-38.13,63.61-70.28
			c1.6-9.09,1.06-18.41,1.69-27.63c3.57-52.21,45.06-95.69,92.84-117.07c14-6.26,28.5-10.98,43.31-14.59
			c0.58,0.29,1.14,0.61,1.7,0.92c6.54,3.63,12.7,8.08,19.81,10.4c4.66,1.51,9.55,2.07,14.4,2.59c15.98,1.78,31.95,3.54,47.93,5.3
			c11.74,1.3,23.52,2.61,35.33,2.81c10.37,0.17,20.75-0.5,31.08,0.44c2.53,0.23,5.02,0.55,7.5,0.96c1.22,0.2,2.45,0.42,3.67,0.67
			c0.44,0.07,0.87,0.16,1.3,0.26c0.74,0.15,1.49,0.31,2.23,0.5c0.76,0.17,1.53,0.35,2.29,0.54c0.71,0.17,1.41,0.36,2.11,0.55
			c0.7,0.17,1.41,0.38,2.11,0.58c0.83,0.23,1.67,0.48,2.5,0.74c1.11,0.33,2.2,0.68,3.31,1.06c0.83,0.28,1.66,0.57,2.5,0.87
			c0.96,0.33,1.91,0.68,2.85,1.05c0.79,0.29,1.59,0.6,2.37,0.92c1.02,0.41,2.04,0.82,3.04,1.24c1.02,0.42,2.02,0.86,3.03,1.3
			c4.37,5.36,8.67,10.78,12.87,16.25c6.76,8.74,13.33,17.64,19.7,26.65c13.02,18.42,25.41,37.79,34.66,58.31
			c0.19,0.39,0.38,0.8,0.55,1.21c-2.17,0.12-4.35,0.22-6.55,0.28c-19.95,0.52-40.22-1.73-56.33-11.78
			c-3.12-1.94-6.07-4.17-8.84-6.73c-0.42,0.26-0.84,0.52-1.27,0.77c-0.42,0.26-0.84,0.51-1.28,0.76c-0.84,0.51-1.72,0.99-2.59,1.44
			c-0.45,0.25-0.9,0.48-1.37,0.71c-0.74,0.38-1.5,0.74-2.26,1.09c-0.54,0.26-1.09,0.51-1.66,0.74c-0.57,0.25-1.14,0.48-1.72,0.71
			c-0.36,0.16-0.74,0.31-1.12,0.44c-0.26,0.1-0.51,0.2-0.77,0.29c-0.09,0.04-0.16,0.07-0.25,0.1c-0.29,0.1-0.6,0.22-0.89,0.31
			c-0.45,0.17-0.92,0.32-1.37,0.47c-1.43,0.47-2.85,0.87-4.31,1.22c-0.17,0.06-0.35,0.1-0.52,0.13c-0.07,0.03-0.16,0.04-0.25,0.06
			c-0.26,0.07-0.54,0.13-0.82,0.19c-0.23,0.06-0.48,0.1-0.73,0.15c-0.1,0.03-0.22,0.06-0.33,0.07c-0.7,0.15-1.4,0.28-2.11,0.38
			c-0.09,0.03-0.16,0.04-0.25,0.04c-0.32,0.06-0.64,0.1-0.96,0.15c-0.32,0.04-0.66,0.09-0.98,0.13c-0.06,0.01-0.1,0.01-0.16,0.01
			c-0.32,0.04-0.64,0.07-0.96,0.1c-0.07,0.01-0.13,0.03-0.2,0.03c-0.16,0.01-0.32,0.04-0.48,0.04c-0.01,0.01-0.01,0.01-0.03,0h-0.01
			c-0.01,0.01-0.01,0.01-0.03,0c-0.01,0.01-0.01,0.01-0.03,0.01v-0.01c-0.03,0.01-0.06,0.01-0.07,0.01c-0.01,0.01-0.01,0.01-0.03,0
			c-0.01,0.01-0.04,0.01-0.06,0.01l-0.01-0.01c-0.03,0.01-0.04,0.01-0.06,0.01c-0.01,0.01-0.01,0.01-0.03,0
			c-0.01,0.01-0.03,0.01-0.04,0.01c0,0,0,0-0.01-0.01c0,0.01-0.01,0.01-0.01,0.01c-0.01,0-0.01,0-0.03-0.01
			c-0.01,0-0.04,0-0.06,0.01c-0.12,0.01-0.22,0.03-0.33,0.03c-0.13,0.01-0.26,0.03-0.39,0.03c-0.06,0.01-0.13,0.01-0.19,0.01
			c-0.68,0.04-1.35,0.09-2.04,0.1c0.52,2.97,0.98,5.94,1.37,8.94c0.38,2.99,0.71,6,0.98,9.06c0.26,3.06,0.45,6.15,0.58,9.29
			c0,0.01,0.01,0.04,0,0.07c0.01,0.06,0.01,0.12,0.01,0.17c0.01,0.48,0.04,0.96,0.04,1.44c0.01,0.04,0.01,0.06,0,0.1
			c0.01,0.1,0.03,0.2,0.01,0.31c0.03,0.39,0.03,0.77,0.04,1.17c0,0.12,0.01,0.23,0,0.36c0.01,0.25,0.03,0.5,0.03,0.76
			c0,0.32,0.01,0.66,0.01,0.99c0.04,2.45,0.06,4.94,0.01,7.46c0,0.84-0.01,1.67-0.04,2.53c0,0.16,0,0.32-0.01,0.48
			c0,0.38-0.01,0.76-0.03,1.14c-0.06,1.95-0.13,3.93-0.25,5.94c-0.1,2.11-0.25,4.25-0.41,6.42c-0.19,2.53-0.41,5.13-0.67,7.75
			c-0.01,0.1-0.01,0.19-0.03,0.29c0.09-0.09,0.17-0.16,0.26-0.23c1.22-1.16,2.46-2.3,3.7-3.42c2.16-1.97,4.34-3.89,6.57-5.77
			c1.11-0.95,2.23-1.89,3.36-2.81c9.89-8.13,20.39-15.48,31.57-21.64c15.76-8.68,32.52-14.84,49.84-19.38
			c2.87-0.76,5.74-1.47,8.64-2.14c0.26,0.6,0.51,1.18,0.76,1.78c5.91,13.91,10.31,28.35,12.47,43.38
			C761.67,463.57,759.79,484.7,752.93,503.56z"/>
		<path class="st5" d="M583.22,350.5c0.38,4.98,0.73,10.06,0.73,15.12C583.02,360.64,582.77,355.54,583.22,350.5z"/>
		<path class="st5" d="M641.91,453.68c1.22-1.16,2.46-2.3,3.7-3.42c-0.99,1.27-1.94,2.48-2.84,3.61
			C642.48,453.8,642.2,453.74,641.91,453.68z"/>
		<path class="st5" d="M641.68,453.63c-10.38-2.21-21.5-0.87-31.05,3.77c-12.13-11.75-27.38-20.24-43.75-24.38
			c3.12-0.13,6.25-0.26,9.36-0.39c-9.87-28.67-41.18-46.78-48.13-76.3c9.95,12.25,19.89,24.51,29.84,36.76
			c2.45,3.01,5.29,6.26,9.13,6.7c4.94,0.57,9.09-3.73,11.45-8.11c4.27-7.95,5.42-16.94,5.42-26.05c1.06,5.8,3.06,11.43,5.9,16.62
			c1.09,2,2.33,3.95,4.06,5.42c2.56,2.17,5.94,3.09,9.25,3.68c15.66,2.85,32.3-0.01,46.09-7.94c1.56-0.9,3.28-1.89,5.05-1.59
			c1.59,0.28,2.8,1.53,3.79,2.8c0.23,0.31,0.47,0.61,0.7,0.93c-6,2.18-12.31,3.51-18.8,3.7
			C643.46,409.06,644.08,429.36,641.68,453.63z"/>
		
			<linearGradient id="SVGID_00000129202201600830502660000007953071933524651670_" gradientUnits="userSpaceOnUse" x1="688.8299" y1="342.3416" x2="838.0677" y2="376.1617">
			<stop  offset="0" style="stop-color:#99685A"/>
			<stop  offset="0.2611" style="stop-color:#96685B"/>
			<stop  offset="0.4769" style="stop-color:#8B675E"/>
			<stop  offset="0.6765" style="stop-color:#7A6663"/>
			<stop  offset="0.8653" style="stop-color:#62646A"/>
			<stop  offset="1" style="stop-color:#4C6270"/>
		</linearGradient>
		<path style="fill:url(#SVGID_00000129202201600830502660000007953071933524651670_);" d="M842.5,369.12
			c-0.55,0.99-1.5,1.67-2.43,2.32c-2.39,1.63-4.84,3.16-7.34,4.59c-0.45,0.26-0.92,0.52-1.38,0.77c-0.74,0.41-1.49,0.8-2.23,1.18
			c-0.8,0.42-1.6,0.83-2.42,1.22c-0.03,0.03-0.06,0.04-0.09,0.04c-0.66,0.33-1.31,0.66-1.97,0.95c-3.09,1.46-6.23,2.77-9.44,3.96
			c-0.55,0.2-1.11,0.41-1.66,0.6c-0.15,0.06-0.29,0.12-0.44,0.16h-0.01c-0.17,0.07-0.35,0.13-0.52,0.19c0,0,0,0-0.01,0h-0.01
			c-0.17,0.06-0.32,0.13-0.51,0.19c-0.5,0.17-1,0.35-1.5,0.51c-0.23,0.07-0.47,0.16-0.71,0.23c-0.22,0.07-0.42,0.15-0.64,0.2
			c-0.45,0.16-0.92,0.31-1.37,0.44c-0.13,0.04-0.28,0.09-0.41,0.13c-0.32,0.1-0.64,0.2-0.96,0.29c-0.42,0.13-0.84,0.26-1.25,0.38
			c-0.47,0.13-0.92,0.26-1.38,0.39c-0.39,0.12-0.77,0.22-1.15,0.32c-0.6,0.17-1.18,0.33-1.78,0.48c-0.6,0.16-1.18,0.32-1.78,0.47
			c-6.64,1.12-13.3,2.26-19.85,3.79c-10.91,2.53-21.9,6.17-32.91,7.38c-3.13,0.33-6.26,0.48-9.39,0.36
			c2.87-0.76,5.74-1.47,8.64-2.14c4.86-1.12,9.77-2.14,14.71-3.04c-1.85,0.19-3.7,0.36-5.55,0.52c-3.28,0.29-6.6,0.54-9.95,0.71
			c-2.17,0.12-4.35,0.22-6.55,0.28c-19.95,0.52-40.22-1.73-56.33-11.78c3.82-12.07,6.87-24.39,6.58-36.98
			c-0.63-27.67-19.41-53.72-44.81-64.22c11.55,1.88,22.59,5.56,33.32,10.28c25.6,11.23,49.59,28.21,75.2,40.05
			c26.14,12.09,54.35,18.9,82.28,25.89C839.01,361.35,844.76,365.05,842.5,369.12z"/>
		
			<linearGradient id="SVGID_00000135650857526761055890000004593630046983533722_" gradientUnits="userSpaceOnUse" x1="730.4871" y1="459.8008" x2="843.2391" y2="417.9276">
			<stop  offset="0" style="stop-color:#99685A"/>
			<stop  offset="0.3396" style="stop-color:#97685B"/>
			<stop  offset="0.5384" style="stop-color:#8E675D"/>
			<stop  offset="0.701" style="stop-color:#806661"/>
			<stop  offset="0.8439" style="stop-color:#6C6567"/>
			<stop  offset="0.9728" style="stop-color:#52636E"/>
			<stop  offset="1" style="stop-color:#4C6270"/>
		</linearGradient>
		<path style="fill:url(#SVGID_00000135650857526761055890000004593630046983533722_);" d="M855.06,447.03
			c-1.28,1.79-3.63,2.4-5.77,2.94c-35.84,9.15-65.26,33.04-96.36,53.59c-14.05,9.26-28.46,17.85-43.95,24.09
			c-1.33,0.54-2.67,1.05-4.02,1.56c-6.35,2.39-12.86,4.51-19.25,6.84c-0.66,0.22-1.31,0.47-1.95,0.71
			c-0.13,0.03-0.25,0.07-0.38,0.13c-0.95,0.35-1.89,0.7-2.83,1.08c-1.34,0.51-2.67,1.05-3.99,1.6c-0.35-2.66,0.17-5.42,1.19-7.92
			c3.13-7.75,10.62-13,18.51-15.76c7.88-2.77,16.31-3.44,24.57-4.7c2.3-0.35,4.69-0.79,6.57-2.17c3.61-2.66,4.15-7.78,4.18-12.26
			c0.07-10.19-0.83-20.39-2.69-30.41c-1.34-7.19-3.29-14.52-7.75-20.32c-7.75-10.05-21.8-13.49-34.37-11.77
			c-12.57,1.72-24.09,7.73-35.3,13.65c1.33-2.23,2.68-4.3,4.08-6.23c9.89-8.13,20.39-15.48,31.57-21.64
			c15.76-8.68,32.52-14.84,49.84-19.38c2.87-0.76,5.74-1.47,8.64-2.14c4.86-1.12,9.77-2.14,14.71-3.04
			c-1.85,0.19-3.7,0.36-5.55,0.52c-3.28,0.29-6.6,0.54-9.95,0.71c-2.17,0.12-4.35,0.22-6.55,0.28c24.31-6.35,49.49-9.82,74.85-12.09
			c-0.17,0.07-0.35,0.13-0.52,0.19c0,0,0,0-0.01,0h-0.01c-0.67,0.25-1.34,0.48-2.01,0.7c-0.23,0.07-0.47,0.16-0.71,0.23
			c-0.22,0.07-0.42,0.15-0.64,0.2c-0.45,0.16-0.92,0.31-1.37,0.44c-0.13,0.04-0.28,0.09-0.41,0.13c-0.32,0.1-0.64,0.2-0.96,0.29
			c-0.42,0.13-0.84,0.26-1.25,0.38c-0.47,0.13-0.92,0.26-1.38,0.39c-0.39,0.12-0.77,0.22-1.15,0.32c-0.6,0.17-1.18,0.33-1.78,0.48
			c-0.6,0.16-1.18,0.32-1.78,0.47c-2.24,0.58-4.5,1.11-6.77,1.6c13.05-1.56,26.17-2.72,39.16-3.87c3.73-0.33,7.94-0.51,10.7,2.01
			c2.02,1.85,2.74,4.7,3.35,7.37c3.31,14.43,6.61,28.86,9.93,43.3C856.05,442.05,856.57,444.93,855.06,447.03z"/>
		<path class="st5" d="M263.3,702.3c-16,7.24-34.04,9.9-51.44,7.57c-11.1-1.48-22.29-4.94-33.28-2.77
			c-9.17,1.81-17.12,7.36-24.42,13.19c-19.86,15.88-37.17,34.94-51.08,56.24c-3.48,5.33-6.77,12.35-3.31,17.7
			c3.98,6.15,13.33,4.82,20.07,1.92c15.44-6.64,28.94-17.7,38.48-31.53c6.74-9.77,12-21.33,22.19-27.42
			c10.4-6.21,23.35-5.19,35.41-6.4c15.88-1.6,31.3-7.51,44.19-16.92c2.06-1.5,4.19-3.33,4.62-5.84S262.62,702.59,263.3,702.3z"/>
		<path class="st5" d="M220.82,607.92c-8.43,15.64-18.31,30.5-29.47,44.32c-2.15,2.66-4.48,5.68-4.16,9.09
			c0.48,5.17,7.11,7.82,12.04,6.22c4.93-1.6,8.41-5.92,11.58-10.03c7.8-10.08,15.61-20.16,23.41-30.25
			c0.68-0.88,1.37-1.77,1.71-2.83c0.52-1.61,0.16-3.35-0.2-5c-0.78-3.57-1.57-7.14-2.35-10.71c-0.27-1.22-0.63-2.57-1.7-3.21
			c-0.72-0.43-1.62-0.43-2.45-0.34C225.34,605.6,221.68,607.78,220.82,607.92z"/>
		<path class="st5" d="M584.81,437.43c-27.33-6.07-53.81-15.96-78.42-29.31c-8.23-4.46-16.79-9.93-20.18-18.65
			c-0.59-1.52-0.99-3.3-0.21-4.73c1.63-3.01,6.18-1.73,9.17-0.06C524.07,400.9,552.35,418.22,584.81,437.43z"/>
		<path class="st4" d="M333.07,244.11c-8.48,16.21-18.73,31.83-19.83,49.89c-1.24-14.37-2.23-29.88,5.34-42.16
			c0.35-0.57,0.73-1.12,1.11-1.67h0.01c3.64-1.88,7.46-3.31,11.39-4.19C331.75,245.33,332.4,244.72,333.07,244.11z"/>
		<path class="st3" d="M258.05,331.8c-10.59,70.57-28.96,139.97-54.68,206.53c-7.22,18.68-15.15,37.39-27.39,53.25
			c-11.65,15.11-27.33,27.92-33.5,45.98c5.16,0.42,9.37-3.87,12.68-7.85c30.82-37.2,54.88-79.98,70.66-125.63
			c9.99-28.89,16.71-58.97,28.99-86.96c14.82-33.76,37.52-63.98,48.85-99.06c-6.53-2.59-6.49-11.8-4.73-18.6
			c1.76-6.8,3.64-15.24-1.65-19.85c-13.37,21.12-11.6,49.27-25.28,70.19c-1.76,2.69-4.53,5.52-7.65,4.76
			c-4.16-1.01-4.3-6.83-3.49-11.03c1.99-10.25,3.97-20.51,5.96-30.76C261.56,319.79,258.51,328.74,258.05,331.8z"/>
		<path class="st3" d="M388.35,291.93c-75.05,59.15-126.56,142.73-171.59,227.01c-7.32,13.71-14.56,27.58-19.07,42.45
			c-3.62,11.95-5.44,24.37-8.77,36.4c-5.96,21.54-16.83,41.7-31.55,58.51c5.77,0.47,10.67-4,14.46-8.38
			c38.9-44.93,45.62-112.06,87.58-154.15c13.8-13.85,30.9-24.34,43.31-39.44c15.29-18.6,22.17-42.46,31.29-64.75
			c11.87-28.99,28.09-56.2,47.95-80.42C385.97,304.29,389.81,296.23,388.35,291.93z"/>
		<path class="st4" d="M156.19,602.81c-13.95,18.2-27.89,36.42-41.83,54.63c-1.31,1.72-2.69,3.48-4.6,4.49
			c-2.59,1.37-5.68,1.11-8.61,0.98c-8.74-0.39-17.39,0.7-25.94,2.55c3.99-9.8,6.9-20.17,13.69-28.22
			c12.2-14.49,32.99-17.32,50.4-24.77C145.33,609.87,151.06,606.64,156.19,602.81z"/>
		<path class="st4" d="M116.43,679.44c-27.25,39.39-58.24,76.21-92.4,109.79c-7.83,7.7-15.86,15.25-24.03,22.62v-44.93
			c7.92-6.29,15.92-12.55,24.03-18.84C52.83,725.74,83.02,703.24,116.43,679.44z"/>
		<path class="st4" d="M286.43,284.04c-7.4,17.67-13.6,35.84-18.54,54.35c0.84-11.77,1.7-23.61,4.78-34.98
			c1.28-4.69,2.96-9.33,5.27-13.85c1.85-0.76,3.83-1.33,5.94-1.69C284.72,286.59,285.57,285.32,286.43,284.04z"/>
	</g>
	<path class="st134" d="M1292.36,1077.74c-0.51,0-1.03-0.08-1.55-0.24c-2.68-0.85-4.16-3.72-3.31-6.4
		c9.36-29.39,24.87-56.43,39.86-82.57c11.28-19.67,22.95-40.02,31.79-61.05c1.09-2.59,4.07-3.82,6.67-2.72
		c2.6,1.09,3.82,4.08,2.72,6.67c-9.08,21.62-20.9,42.23-32.34,62.18c-14.73,25.68-29.96,52.24-38.99,80.6
		C1296.52,1076.35,1294.52,1077.74,1292.36,1077.74z"/>
	<path class="st177" d="M942.14,505.62c-2.65,0-4.88-2.05-5.08-4.73c-1.29-17.81-2.9-35.83-4.81-53.56
		c-0.56-5.25-1.24-9.83-3.83-12.7c-4.13-4.57-12.69-3.85-19.14-2.44l-2.25,0.5c-8.19,1.84-17.48,3.94-26.06-0.16
		c-4.8-2.29-8.33-6.17-10.57-8.89c-14.62-17.78-19.42-43.4-12.24-65.27c0.88-2.67,3.76-4.13,6.43-3.25
		c2.68,0.88,4.13,3.76,3.25,6.43c-6.12,18.63-2.03,40.46,10.43,55.62c2.61,3.17,4.79,5.07,7.08,6.16c5.4,2.57,12.22,1.04,19.44-0.59
		c0.78-0.17,1.55-0.35,2.31-0.51c13.22-2.89,22.94-1.02,28.89,5.57c5.01,5.55,5.85,13.31,6.4,18.44
		c1.92,17.85,3.55,35.99,4.84,53.91c0.2,2.81-1.91,5.25-4.72,5.45C942.39,505.61,942.26,505.62,942.14,505.62z"/>
	<ellipse class="st135" cx="781.29" cy="279.47" rx="13.83" ry="16.75"/>
	<path class="st177" d="M854.11,512.36c-0.37,0-0.74-0.04-1.11-0.12c-2.75-0.61-4.48-3.34-3.87-6.08
		c9.7-43.65,4.66-90.01-14.19-130.55c-1.19-2.55-0.08-5.58,2.47-6.77c2.55-1.19,5.58-0.08,6.77,2.47
		c19.8,42.57,25.09,91.24,14.9,137.07C858.55,510.75,856.44,512.36,854.11,512.36z"/>
	<ellipse class="st135" cx="849.74" cy="282.39" rx="13.83" ry="16.75"/>
	<ellipse class="st135" cx="931.29" cy="273.65" rx="13.83" ry="16.75"/>
	<ellipse class="st135" cx="1011.39" cy="273.65" rx="13.83" ry="16.75"/>
	<ellipse class="st135" cx="1095.86" cy="273.65" rx="13.83" ry="16.75"/>
	<path class="st177" d="M857.59,410.17c8.1-0.46,16.16-1.91,24.09-3.33l0.72-0.13c52.85-9.49,106.81-16.1,160.38-19.66
		c13.64-0.91,29.1-1.93,41.19-10.85c16.61-12.24,20.81-37.81,8.97-54.72c-1.61-2.31-4.79-2.87-7.1-1.25
		c-2.31,1.61-2.87,4.79-1.25,7.1c8.64,12.35,5.46,31.73-6.67,40.67c-9.69,7.15-22.98,8.03-35.82,8.88
		c-53.95,3.58-108.29,10.25-161.51,19.8l-0.72,0.13c-14.03,2.52-28.54,5.13-41.7,1.56c-11.09-3-20.93-10.34-29.92-17.83
		c-4.14-3.45-8.07-6.89-10.68-11.1c-3.03-4.88-4.33-10.88-5.51-17.13c-1.98-10.54-3.58-21.27-4.75-31.9
		c-0.31-2.8-2.86-4.82-5.62-4.51c-2.8,0.31-4.82,2.83-4.51,5.62c1.2,10.88,2.83,21.87,4.86,32.67c1.31,6.94,2.91,14.26,6.86,20.62
		c3.41,5.5,8.2,9.71,12.82,13.56c9.88,8.23,20.81,16.33,33.78,19.84C842.83,410.19,850.22,410.59,857.59,410.17z"/>
	<ellipse class="st135" cx="1181.78" cy="276.56" rx="13.83" ry="16.75"/>
	<path class="st179" d="M878.44,514.39c-0.42,0-0.84-0.05-1.26-0.16c-2.73-0.7-4.37-3.47-3.68-6.2c7.1-27.83,27.8-48.23,43.93-60.45
		c15.25-11.56,32.25-20.65,48.7-29.45c4.78-2.55,9.71-5.2,14.51-7.85c4.54-2.51,9.15-5.13,13.69-7.72
		c-25.72-12.75-52.17-23.55-79.21-19.6c-0.9,0.13-1.81,0.28-2.71,0.43c-4.36,0.71-8.87,1.45-13.67,0.68
		c-7.72-1.23-13.77-6.04-17.65-9.56c-16.09-14.58-25.85-36.25-26.11-57.96c-0.03-2.81,2.22-5.12,5.04-5.16c0.02,0,0.04,0,0.06,0
		c2.79,0,5.06,2.24,5.1,5.04c0.23,18.93,8.74,37.82,22.77,50.53c4.63,4.2,8.57,6.44,12.4,7.05c3.18,0.51,6.7-0.07,10.43-0.68
		c0.96-0.16,1.92-0.31,2.88-0.45c32.22-4.7,62.27,8.9,91.31,23.62c31.8-18.13,64.8-35.78,101.69-37c6.68-0.22,15.34,0.05,23.03,4.1
		c8.9,4.69,15.49,13.8,20.15,27.83c5.08,15.28,7.26,31.86,6.31,47.94c-0.18,3.14-0.56,6.76-2.65,10.01
		c-3.33,5.17-9.62,7.57-18.67,7.14c-18.26-0.86-35.7-7.02-50.61-12.73c-23.16-8.87-46.13-19.05-68.27-30.26
		c-2.56-1.3-5.13-2.61-7.72-3.93c-0.99-0.51-1.98-1.01-2.97-1.52c-0.51,0.3-1.03,0.59-1.54,0.88c-5.94,3.4-12.08,6.92-18.13,10.26
		c-4.86,2.69-9.83,5.34-14.63,7.91c-16.1,8.61-32.75,17.51-47.35,28.59c-14.83,11.24-33.84,29.88-40.2,54.85
		C882.78,512.86,880.71,514.39,878.44,514.39z M1015.83,402.03c1.57,0.8,3.13,1.6,4.69,2.39c21.83,11.05,44.47,21.09,67.31,29.83
		c14.17,5.42,30.7,11.28,47.45,12.07c5.01,0.23,8.44-0.64,9.62-2.48c0.76-1.18,0.94-3.25,1.05-5.09c0.87-14.8-1.14-30.06-5.81-44.13
		c-3.79-11.42-8.77-18.62-15.23-22.03c-5.57-2.94-12.51-3.1-17.93-2.93C1074.7,370.74,1044.74,385.74,1015.83,402.03z"/>
	<path class="st135" d="M833.75,141.84l-14.97,11.62l-178.79,4.66c0-1.06,0-2.11,0.01-3.17c-4.44,6.82-16.17,1.27-17.94-6.67
		c-1.72-7.66,1.73-15.34,3.42-23.04c5.71-0.03,11.4,0.01,17.1,0.15c-2.85-5.48-2.58-12.17-0.63-18.04
		c1.95-5.85,5.43-11.08,8.87-16.21c0.83,0.07,33.51-1.49,33.51-1.49c-5.32,9.84-7.25,21.47-5.43,32.5c0,0.06,29.1,1.27,29.1,1.27
		c-2.34-11.56,1.12-24.16,9.03-32.9c0-2.14,36.52-2.84,36.52-2.84c-5.85,2.56-9.19,9.09-9.7,15.47c-0.51,6.36,1.31,12.67,3.23,18.76
		c2.9-0.89,34.21-1.47,34.21-1.47c-3.12-9.67-0.77-20.9,5.96-28.51c1.06-3.42,35.93-6.23,35.93-6.23
		c-3.29,5.67-6.66,11.55-7.44,18.06c-0.79,6.5,1.66,13.86,7.5,16.88C824,118.65,833.75,141.84,833.75,141.84z"/>
	<g>
		<path class="st2" d="M1209.41,919.69c-0.01,1.3-0.09,2.58-0.19,3.86c-0.23,2.81-0.67,5.56-1.38,8.21
			c-0.28,1.05-0.6,2.07-0.98,3.09c-1.11,3.1-2.66,6.04-4.73,8.74c-8.77,11.43-24.16,14.93-36.77,21.9
			c-3.66,2.02-7.12,4.38-10.54,6.8c-3.03,2.13-6.03,4.31-9.1,6.35c-3.96,2.65-8.05,5.08-12.48,6.89
			c-15.39,6.29-35.72,5.91-43.91,21.79c-43.25,47.01-92.02,88.92-144.98,124.67c-4.09,2.77-8.23,5.5-12.38,8.18
			c-16.46,10.69-33.31,20.8-50.49,30.26c-14.42,7.95-29.2,15.55-43.57,23.74H702.92c-0.48,0.66-0.95,1.33-1.4,2.01l-6.48-2.01
			H486.41c-0.16,0.42-0.32,0.84-0.48,1.28l-3.99-1.28h-83.93c3.48-7.91,7.19-15.74,11.04-23.55c9.17-18.73,18.98-37.3,27.51-56.32
			c3.73-8.26,7.21-16.6,10.3-25.08c11.3-31.02,17.33-63.84,23.84-96.42c0.8-3.99,1.6-7.98,2.43-11.96
			c0.96-4.69,1.95-9.38,2.99-14.05c2.64-11.9,5.55-23.71,9.01-35.29c4.41-14.78,9.74-29.21,16.56-43.11c1.03-2.1,2.1-4.19,3.2-6.26
			c10.75-20.2,24.9-39.09,32.34-60.5c1.19-3.41,2.21-6.87,3.01-10.43c2.81-12.41,2.97-25.57,8.08-37.24
			c1.79-4.08,4.11-7.84,6.73-11.42c5.71-7.82,12.83-14.78,18.79-22.47c0.73-0.93,1.44-1.88,2.13-2.84c0.67-0.93,1.33-1.86,1.97-2.8
			c0.52-0.77,1.03-1.54,1.53-2.33c0.32-0.47,0.61-0.93,0.92-1.41c0.95-1.5,1.86-3.03,2.75-4.56c0.31-0.52,0.6-1.05,0.89-1.57
			c0.77-1.34,1.51-2.69,2.23-4.06c0.36-0.68,0.73-1.38,1.09-2.07c0.35-0.68,0.7-1.38,1.05-2.07c0.35-0.7,0.7-1.38,1.03-2.08
			c0.35-0.7,0.7-1.4,1.03-2.1c0.76-1.56,1.49-3.12,2.23-4.69c2.2-4.7,4.33-9.47,6.48-14.21c0.48-1.09,0.98-2.18,1.49-3.26
			c0.23-0.51,0.47-1.03,0.71-1.54c0.55-1.21,1.12-2.42,1.69-3.63c0.57-1.21,1.15-2.4,1.73-3.6c1.17-2.39,2.37-4.78,3.61-7.12
			c2.85-5.4,5.96-10.66,9.47-15.66c24-34.12,67.47-53.45,109.18-43.63c0.03,0.01,0.07,0.01,0.1,0.03
			c20.01-11.97,40.47-23.21,61.3-33.71c62.93-31.67,129.33-56.48,197.64-73.75c12.77-3.23,26.34-6.19,38.96-2.37
			c13.44,4.06,22.53,14.43,30.25,25.98c8.68,12.98,15.63,27.45,25.08,36.13c0.38,0.36,0.79,0.71,1.18,1.05
			c0.01,0.01,0.03,0.03,0.04,0.04c0.03,0.03,0.07,0.06,0.1,0.09c23.07-3.82,48.71-7.05,68.07,6.06c8.13,5.5,14.07,13.31,18.07,22.21
			c4.91,10.85,6.98,23.33,6.68,35.29c-0.07,3.16-0.31,6.31-0.68,9.42c-0.07,0.61-0.16,1.24-0.25,1.86
			c-0.09,0.63-0.17,1.24-0.28,1.86c-0.09,0.58-0.19,1.17-0.29,1.75c-0.16,0.96-0.35,1.92-0.55,2.88c-0.1,0.51-0.2,1.02-0.32,1.51
			c-0.12,0.52-0.23,1.05-0.35,1.57c-0.13,0.49-0.25,0.99-0.38,1.49c-0.25,1.02-0.52,2.02-0.82,3.04c-0.17,0.61-0.35,1.22-0.54,1.82
			c-0.28,0.93-0.58,1.85-0.89,2.77c-0.71,2.17-1.51,4.33-2.37,6.45c-0.06,0.15-0.12,0.28-0.17,0.42c-0.15,0.36-0.29,0.73-0.45,1.08
			c-0.17,0.44-0.36,0.89-0.57,1.33c-0.03,0.09-0.07,0.17-0.12,0.28c-0.1,0.25-0.22,0.48-0.33,0.73c-0.19,0.42-0.38,0.86-0.58,1.28
			c-0.04,0.12-0.1,0.23-0.16,0.35c-0.07,0.15-0.15,0.31-0.22,0.45c-0.22,0.48-0.45,0.96-0.7,1.44c-0.23,0.5-0.48,0.99-0.74,1.49
			c-0.15,0.29-0.29,0.58-0.45,0.89c-0.23,0.44-0.47,0.89-0.71,1.33c-0.17,0.34-0.36,0.68-0.55,1.02c-0.09,0.19-0.19,0.38-0.31,0.57
			c-0.22,0.39-0.44,0.79-0.67,1.18c-0.23,0.42-0.47,0.83-0.73,1.25c-0.26,0.47-0.54,0.92-0.82,1.37c-0.58,0.96-1.18,1.92-1.79,2.87
			c-0.06,0.09-0.12,0.16-0.16,0.25c-0.54,0.8-1.08,1.62-1.63,2.42c-0.45,0.66-0.92,1.31-1.38,1.97c-0.15,0.2-0.28,0.39-0.42,0.58
			c-0.07,0.1-0.15,0.22-0.23,0.32c-0.13,0.19-0.26,0.36-0.41,0.55c-0.09,0.12-0.17,0.23-0.26,0.35c-0.33,0.47-0.68,0.92-1.05,1.37
			c-0.19,0.26-0.38,0.51-0.58,0.76c0,0.03-0.01,0.04-0.04,0.07c-0.06,0.09-0.13,0.17-0.19,0.25c-0.41,0.51-0.82,1-1.21,1.5
			c-0.07,0.09-0.15,0.19-0.23,0.28c-0.42,0.52-0.86,1.05-1.31,1.57c-0.51,0.61-1.03,1.22-1.57,1.82c-0.25,0.28-0.51,0.57-0.76,0.84
			c-0.07,0.07-0.15,0.16-0.22,0.23c-0.07,0.09-0.15,0.16-0.22,0.23c-0.58,0.66-1.19,1.31-1.81,1.95c-0.64,0.68-1.3,1.35-1.95,2.01
			c-0.29,0.28-0.57,0.55-0.84,0.83c-0.48,0.48-0.96,0.95-1.46,1.4c-0.03,0.03-0.06,0.06-0.07,0.07c-0.1,0.1-0.2,0.19-0.29,0.26
			c-0.13,0.15-0.28,0.28-0.41,0.39c-0.06,0.06-0.12,0.12-0.17,0.17c-0.07,0.06-0.15,0.13-0.23,0.2c-0.06,0.06-0.12,0.1-0.16,0.15
			c-0.04,0.04-0.1,0.1-0.16,0.15c-0.01,0.03-0.03,0.04-0.04,0.03c-0.41,0.39-0.82,0.77-1.24,1.14c-0.41,0.36-0.83,0.74-1.25,1.09
			c-0.73,0.64-1.47,1.27-2.21,1.88c-0.38,0.31-0.76,0.61-1.14,0.92c-0.57,0.45-1.14,0.9-1.72,1.35c-0.67,0.52-1.35,1.03-2.04,1.54
			c-0.29,0.2-0.58,0.42-0.87,0.64c-0.28,0.19-0.55,0.39-0.83,0.58c-0.76,0.54-1.51,1.06-2.27,1.57c-0.38,0.26-0.76,0.52-1.15,0.77
			c-1.28,0.84-2.58,1.65-3.87,2.43l-0.32,0.19c-0.52,0.32-1.05,0.63-1.59,0.93c-0.38,0.22-0.74,0.42-1.12,0.63
			c-0.47,0.26-0.93,0.52-1.4,0.77c-0.7,0.38-1.41,0.76-2.13,1.12c-0.7,0.36-1.41,0.71-2.14,1.06c-1.44,0.7-2.88,1.37-4.35,2
			c-0.66,0.28-1.33,0.57-1.99,0.83c-0.76,0.31-1.51,0.61-2.29,0.9c-0.57,0.22-1.14,0.42-1.7,0.63c-0.57,0.2-1.14,0.41-1.7,0.6
			c-0.95,0.32-1.89,0.63-2.84,0.92c-0.01,0.01-0.01,0.01-0.03,0.01c-0.06,0.03-0.12,0.04-0.17,0.06c-0.06,0.01-0.1,0.03-0.16,0.04
			c-0.12,0.04-0.25,0.07-0.36,0.12c-0.54,0.16-1.09,0.32-1.63,0.47c-0.54,0.16-1.06,0.31-1.6,0.44c-0.47,0.13-0.93,0.25-1.4,0.36
			c-0.33,0.09-0.68,0.17-1.02,0.25c-0.38,0.09-0.76,0.17-1.14,0.26c-0.31,0.07-0.63,0.15-0.93,0.2c-0.54,0.12-1.08,0.23-1.62,0.33
			c-0.29,0.07-0.58,0.12-0.89,0.17c-0.29,0.06-0.6,0.12-0.89,0.16c-0.39,0.07-0.77,0.15-1.17,0.2c-0.6,0.1-1.21,0.2-1.81,0.29
			c-9.52,1.41-20.5,2.24-26.23,9.99c-7.41,10.02-0.41,24.86,9.79,32.04c5.1,3.6,10.82,6.09,16.56,8.55
			c5.75,2.46,11.53,4.89,16.72,8.33c23.71,15.71,27.93,53.45,10.28,75.83c-0.86,1.11-1.79,2.17-2.77,3.2
			c17.45-0.77,33.9-8.13,51.16-10.78c17.26-2.65,37.76,1.12,46.44,16.27c2.69,4.7,3.96,10.05,4.94,15.39c0.13,0.67,0.25,1.33,0.36,2
			c0.15,0.84,0.29,1.7,0.42,2.56c0.12,0.7,0.23,1.41,0.33,2.13c0.12,0.76,0.22,1.53,0.32,2.3c0.01,0.07,0.03,0.16,0.03,0.26
			c0.1,0.73,0.19,1.46,0.26,2.2c0.09,0.79,0.17,1.59,0.23,2.39c0.04,0.47,0.09,0.93,0.12,1.41c0.03,0.5,0.06,1,0.09,1.5
			c0.04,0.71,0.07,1.41,0.09,2.13C1209.42,917.37,1209.44,918.54,1209.41,919.69z"/>
		<path class="st3" d="M565.28,986.32c-23.92,26.8-42.17,58.65-53.21,92.83c-1.13,3.49-3.51,7.83-7.08,6.98
			c-2.64-0.63-3.68-3.76-4.27-6.42c-2.62-11.9-5.25-23.79-7.87-35.69c-2.68,7.36-3.56,15.23-4.41,23.02
			c-2.83,25.75-5.66,51.5-8.49,77.25c-0.26,2.35,0.02,5.51,2.34,6.01c1.73,0.37,3.23-1.15,4.33-2.54
			c29.72-37.78,40.84-86.9,66.01-127.86C559.47,1008.78,567.67,997.07,565.28,986.32z"/>
		<path class="st3" d="M746.28,942.61c21.35-30.63,43.85-60.45,67.45-89.38c1.57-1.92,5.02-3.66,5.97-1.37
			c-15.78,39.33-43.18,73.93-77.85,98.29C744.48,945.42,747.12,940.7,746.28,942.61z"/>
		<path class="st4" d="M669.57,675.82c-0.48,0.47-0.93,0.89-1.4,1.37c-0.03,0-0.03,0-0.03,0.01c-1.86,1.82-3.71,3.66-5.53,5.52
			c-1.88,1.91-3.74,3.83-5.55,5.78c-13.65,14.48-26.08,30.06-37.16,46.56c-11.36,16.91-21.51,38.56-12.57,56.87
			c5.1-2.81,11.56,2.68,11.93,8.48c0.38,5.8-3.16,11.05-6.7,15.67c-24.31,31.73-56.18,57.25-79.21,89.93
			c-2.45,3.47-4.78,7-7.02,10.6c-1.69,2.71-3.34,5.45-4.92,8.2c-5.59,9.7-10.66,19.7-15.52,29.81c-2.11,4.38-4.18,8.77-6.25,13.16
			c-1.15,2.46-2.3,4.91-3.45,7.38v0.01c-1.63,3.51-3.25,7.02-4.79,10.57h-0.01c-5.18,11.78-9.82,23.77-12.87,36.25
			c-7.79,31.67-5.1,64.86-7.57,97.4c-0.13,1.81-0.29,3.6-0.47,5.4c-1.97,20.93-6.12,41.62-12.32,61.69
			c-0.79,2.58-1.62,5.14-2.49,7.69h-57.64c3.48-7.91,7.19-15.74,11.04-23.55c9.17-18.73,18.98-37.3,27.51-56.32
			c3.73-8.26,7.21-16.6,10.3-25.08c11.3-31.02,17.33-63.84,23.84-96.42c0.8-3.99,1.6-7.98,2.43-11.96
			c0.96-4.69,1.95-9.38,2.99-14.05c2.64-11.9,5.55-23.71,9.01-35.29c4.41-14.78,9.74-29.21,16.56-43.11c1.03-2.1,2.1-4.19,3.2-6.26
			c10.75-20.2,24.9-39.09,32.34-60.5c1.19-3.41,2.21-6.87,3.01-10.43c2.81-12.41,2.97-25.57,8.08-37.24
			c1.79-4.08,4.11-7.84,6.73-11.42c5.71-7.82,12.83-14.78,18.79-22.47c0.73-0.93,1.44-1.88,2.13-2.84c0.67-0.93,1.33-1.86,1.97-2.8
			c0.52-0.77,1.03-1.54,1.53-2.33c0.32-0.47,0.61-0.93,0.92-1.41c0.95-1.5,1.86-3.03,2.75-4.56c0.31-0.52,0.6-1.05,0.89-1.57
			c0.77-1.34,1.51-2.69,2.23-4.06c0.36-0.68,0.73-1.38,1.09-2.07c0.35-0.68,0.7-1.38,1.05-2.07c0.35-0.7,0.7-1.38,1.03-2.08
			c0.35-0.7,0.7-1.4,1.03-2.1c0.76-1.56,1.49-3.12,2.23-4.69c2.18-4.72,4.33-9.47,6.48-14.21c0.48-1.09,0.98-2.18,1.49-3.26
			c0.23-0.51,0.47-1.03,0.71-1.54c0.55-1.21,1.12-2.42,1.69-3.63c0.57-1.21,1.15-2.4,1.73-3.6c1.17-2.39,2.37-4.78,3.61-7.12
			c12.98-5.59,26.53-9.7,40.57-11.88c6.57-1.02,16.03,0.93,20.45,13.17C669.48,675.55,669.52,675.68,669.57,675.82z"/>
		<path class="st4" d="M544.97,918.27c-6.74,26.04-19.56,50.04-29.25,75.14c-9.69,25.09-16.3,52.68-9.93,78.82
			c10.28-28.43,25.04-55.22,43.58-79.1c18.29-23.56,40.13-44.17,58.66-67.54c18.53-23.37,34.02-50.56,36.47-80.28
			c-26.92,31.99-53.84,63.97-80.76,95.96c-1.24,1.47-2.64,3.04-4.54,3.36c-4.26,0.71-6.5-4.81-7.15-9.08
			C550.89,927.96,549.74,920.38,544.97,918.27z"/>
		<path class="st4" d="M1081.59,568.27c-12.79,14.69-31.06,24-48.68,32.77c-19,9.45-38.01,18.9-57.01,28.35
			c-14.33,7.12-28.98,14.34-44.83,16.5c-14.58,1.98-29.42-0.45-44.08,0.67c-25.86,1.97-50.61,15.52-66.19,36.26
			c7.41,26.42,14.83,52.85,22.24,79.27c1.86,6.66,3.76,13.59,2.5,20.39c-1.24,6.71-5.39,12.5-9.42,18
			c-42.48,57.99-85.38,116.45-139.09,164.23c45.87-98.1,83.29-200.13,111.71-304.62c-3.74-7.24,31.33-28.81,62.75-45.47
			c35.53-18.86,71.08-37.7,106.63-56.55c24.23-12.86,50.37-26.04,77.17-27.03L1081.59,568.27z"/>
		<path class="st4" d="M1054.02,748.5c-7.41,10.02-0.41,24.86,9.79,32.04c5.1,3.6,10.82,6.09,16.56,8.55
			c-9.45,3.44-19.24,5.64-29.33,6.03c-22.17,0.87-43.73-7.08-65.85-8.75c-22.11-1.67-47.94,5.66-56.43,26.17
			c-3.63,8.77-3.48,18.63-5.85,27.83c-4.91,19.08-19.97,33.6-34.37,47.04c-46.33,43.25-95.61,88.14-157.27,102.83
			c32.5-28.63,59.81-63.15,80.21-101.36c10.92-20.43,20.14-42.31,36.15-59.05c9.76-10.21,21.64-18.07,32.58-26.99
			c21.73-17.69,39.7-39.5,59.49-59.34c64.18-64.37,146.24-107.1,228.15-146.87c4.91,10.85,6.98,23.33,6.68,35.29
			c-1.25,51.52-43.28,99.06-94.27,106.6C1070.72,739.92,1059.74,740.75,1054.02,748.5z"/>
		<path class="st4" d="M1209.41,919.69c-0.01,1.3-0.09,2.58-0.19,3.86c-0.23,2.81-0.67,5.56-1.38,8.21
			c-0.28,1.05-0.6,2.07-0.98,3.09c-1.11,3.1-2.66,6.04-4.73,8.74c-8.77,11.43-24.16,14.93-36.77,21.9
			c-3.66,2.02-7.12,4.38-10.54,6.8c-3.03,2.13-6.03,4.31-9.1,6.35c-3.96,2.65-8.05,5.08-12.48,6.89
			c-15.39,6.29-35.72,5.91-43.91,21.79c-43.25,47.01-92.02,88.92-144.98,124.67c-4.09,2.77-8.23,5.5-12.38,8.18
			c-16.46,10.69-33.31,20.8-50.49,30.26c-14.42,7.95-29.2,15.55-43.57,23.74H702.92c-0.48,0.66-0.95,1.33-1.4,2.01l-6.48-2.01
			H552.83c1.49-12.82,7.11-25.79,18.6-31.18c3.82-1.78,7.95-2.58,12.13-3.26c0.64-0.12,1.3-0.22,1.95-0.33
			c2.85-0.47,5.71-0.95,8.46-1.73c23.65-6.73,35.18-32.53,51.66-50.77c13.86-15.33,32.16-25.84,50.4-35.53
			c73.27-39,152.87-70.78,211.01-130.03c13.21-13.47,25.33-28.35,41.1-38.71c5.16-3.38,10.85-6.2,16.78-8.18h0.01
			c0.68-0.25,1.38-0.47,2.08-0.67c11.61-3.47,23.94-3.66,34.73,1.51c2.75,1.31,5.58,3.23,6.35,6.19c0.61,2.3-0.17,4.73-1,6.96
			c-15.15,40.73-48.74,71.69-83.65,97.57c-34.91,25.89-72.67,48.71-102.01,80.77c69.77-19.02,122.11-75.03,182.08-115.43
			c60.49-40.78,131.08-66.41,203.64-74.01c0.13,0.67,0.25,1.33,0.36,2c0.15,0.84,0.29,1.7,0.42,2.56c0.12,0.7,0.23,1.41,0.33,2.13
			c0.12,0.76,0.22,1.53,0.32,2.3c0.01,0.07,0.03,0.16,0.03,0.26c0.1,0.73,0.19,1.46,0.26,2.2c0.09,0.79,0.17,1.59,0.23,2.39
			c0.04,0.47,0.09,0.93,0.12,1.41c0.03,0.5,0.06,1,0.09,1.5c0.04,0.71,0.07,1.41,0.09,2.13
			C1209.44,917.37,1209.45,918.54,1209.41,919.69z"/>
		<path class="st5" d="M727.05,614.87c-24.39,19.7-45.89,43.02-63.54,68.94c-8.24-10.76-24.93-8.34-37.73-3.9
			c-8.53,2.97-16.92,6.35-25.12,10.14c2.45-5.37,5-10.69,7.75-15.89c2.85-5.4,5.96-10.66,9.47-15.66
			C641.87,624.38,685.34,605.05,727.05,614.87z"/>
		<path class="st5" d="M1081.54,568.22c-29.85,33.58-78.38,63.93-131.39,77.83c-11.05,2.9-24.06,4.7-32.85-2.59
			c57.52-18.35,116.5-38.23,163.06-76.28C1080.74,567.54,1081.15,567.89,1081.54,568.22z"/>
		<path class="st5" d="M1054.02,748.5c-7.41,10.02-0.41,24.86,9.79,32.04c5.1,3.6,10.82,6.09,16.56,8.55
			c5.75,2.46,11.53,4.89,16.72,8.33c23.71,15.71,27.93,53.45,10.28,75.83c-14.01,9.63-29.24,16.7-46.14,18.68
			c-3.63,0.42-7.37,0.6-10.86-0.47c-9.26-2.78-14.17-13.85-12.6-23.4c1.57-9.54,8.13-17.56,15.51-23.83
			c11.27-9.57,26.49-18.96,26.1-33.74c-0.57-22.22-36.82-33.55-32.32-55.33c1.37-6.64,6.47-11.77,11.33-16.49
			c10.78-10.44,21.61-20.94,33.92-29.55c23.17-16.22,51.04-25.41,74.49-40.79c-14.55,35.88-47.99,64.46-86.55,70.16
			C1070.72,739.92,1059.74,740.75,1054.02,748.5z"/>
		<path class="st5" d="M1209.41,919.69c-0.01,1.3-0.09,2.58-0.19,3.86c-0.23,2.81-0.67,5.56-1.38,8.21
			c-0.28,1.05-0.6,2.07-0.98,3.09c-1.11,3.1-2.66,6.04-4.73,8.74c-8.77,11.43-24.16,14.93-36.77,21.9
			c-3.66,2.02-7.12,4.38-10.54,6.8c-3.03,2.13-6.03,4.31-9.1,6.35c-3.96,2.65-8.05,5.08-12.48,6.89
			c-15.39,6.29-35.72,5.91-43.91,21.79c-43.25,47.01-92.02,88.92-144.98,124.67c-4.09,2.77-8.23,5.5-12.38,8.18
			c-16.46,10.69-33.31,20.8-50.49,30.26c-14.42,7.95-29.2,15.55-43.57,23.74H702.92c15.58-22.21,35.5-41.29,58.91-54.92
			c18.38-10.72,38.53-17.97,58.17-26.21c57.66-24.2,111.47-57.54,158.81-98.39c18.51-15.95,36.7-33.45,59.64-41.85
			c21.45-7.85,44.94-6.95,67.57-9.92c8.53-1.12,16.98-2.83,25.28-5.08c28.69-7.79,55.59-22.16,78.1-41.59
			C1209.42,917.37,1209.44,918.54,1209.41,919.69z"/>
		<path class="st5" d="M610.43,967.33c-0.44,40.6-18.12,79.15-21.83,119.58c-1.98,21.63,0.06,43.49-2.13,65.08
			c-0.25,2.46-0.57,4.94-0.96,7.41c-0.03,0.29-0.09,0.58-0.13,0.89c-1.95,11.93-5.61,23.74-11.69,33.89h-87.28
			c2.26-5.75,5.17-11.17,9.15-15.93c3.36-3.99,7.4-7.37,10.78-11.34c6.55-7.72,10.3-17.16,13.31-26.91c1.6-5.2,3-10.49,4.51-15.66
			C540.99,1066.73,575.71,1016.26,610.43,967.33z"/>
		<path class="st5" d="M661.76,1114.35c101.03-77.57,227.99-124.64,306.92-224.61c-15.3,37.01-31.86,74.65-59.9,103.23
			c-41.5,42.29-102.25,59.07-150.33,93.7c-11.35,8.18-22.01,17.36-33.96,24.62c-16.35,9.93-34.99,16.08-54.04,17.84
			c-3.69,0.34-7.82,0.38-10.59-2.07C657.07,1124.61,656.87,1118.11,661.76,1114.35z"/>
	</g>
	<path class="st131" d="M1320.55,217.65l10.53,4.86l-0.8,68.87l-8.91,7.3l0.8,22.69l-5-0.07l-70.43-1.05l-20.26-0.31l-12.89-0.19
		l-1.03-0.01l3.16-7.28l-0.95-15.19l10.43-2.84v-70.19h-7.72l-31.53-0.03c0.04-2.24,0.1-4.49,0.16-6.73
		c1.72-72.54,4.88-145.06,9.5-217.47h145.65l0.36,1.3l-12.16,24.31L1320.55,217.65z"/>
	<path class="st134" d="M646.83,220.67c193.61-0.56,387.42-12.73,580.67-1.07c-38.32,19.63-83.33,19.68-126.39,19.29
		c-28.49-0.26-56.98-0.52-85.47-0.78c-98.34-0.89-196.68-1.78-295.02-2.68C694.79,235.2,667.47,234.55,646.83,220.67z"/>
	<polygon class="st131" points="1500,0 1500,1194.17 1393.69,1194.17 1395.36,1146.7 1397.18,1095.17 1403.55,914.74 1435.83,0 	"/>
	<path class="st17" d="M856.65,78.92c-1.94,4.33-6.93,7-8.01,11.62c-0.49,2.06-0.1,4.22,0.29,6.31c1.2,6.48,2.41,12.96,3.61,19.44
		c0.31,1.65,0.63,3.35,1.47,4.8c0.79,1.36,1.99,2.42,3.16,3.46c4,3.54,8,7.08,12,10.62c-6.51,12.01-5.91,27.55,1.51,39.02
		c0.91,1.41,2.84,2.88,4.03,1.69l39.48-0.09c0,0-0.73-93.93-1.46-91.75c0.12-2.79,0.24-5.58,0.36-8.37L856.65,78.92z"/>
</g>
</svg>
