<svg width="2000" height="1040" viewBox="0 0 2000 1040" fill="none" xmlns="http://www.w3.org/2000/svg">
<g clip-path="url(#clip0_101_2195)">
<path d="M2000 0H0V1040H2000V0Z" fill="#9BAFBD"/>
<path d="M110.049 527.29C135.389 555.06 176.669 567.14 212.989 557.41C230.379 552.75 247.799 543.46 265.369 547.39C290.229 552.95 301.509 580.89 317.659 600.59C350.419 640.54 407.419 648.38 458.779 653.95C616.809 671.09 774.239 693.82 930.669 722.09C967.779 728.8 1006.56 735.74 1042.63 724.76C1004.69 708.43 962.129 707.99 921.379 701.25C880.629 694.51 837.499 678.52 816.739 642.81C812.539 635.58 810.609 624.17 818.209 620.68C820.519 619.62 823.169 619.68 825.709 619.76C958.249 623.97 1090.79 628.17 1232.58 635.99C1346.18 671.12 1467.06 672.55 1585.96 673.68C1634.06 674.14 1682.16 674.6 1730.26 675.06C1786.76 675.6 1846.3 675.39 1895.37 647.37C1874.24 633.66 1853.1 619.95 1831.97 606.24C1853.87 594.15 1879.39 573.53 1871.31 549.86C1862.2 523.2 1824.32 527.02 1796.28 529.79C1773.45 532.05 1750.43 529.98 1727.58 527.9C1495.24 506.67 1263.08 482.9 1031.97 451.02C782.589 416.62 523.679 373.44 283.379 448.47C225.819 466.44 170.329 491.03 118.349 521.58C114.249 523.98 110.009 526.59 110.049 527.29Z" fill="#728694"/>
<path d="M1873.8 524.78C1871.58 543.96 1861.37 561.32 1849.63 576.66C1824.48 609.54 1791.78 635.73 1759.43 661.56C1754.68 665.35 1749.85 669.2 1744.23 671.55C1730.27 677.42 1714.35 673.13 1699.84 668.79C1692.46 666.58 1684.89 664.29 1678.77 659.6C1672.94 655.14 1668.79 648.78 1663.04 644.21C1657.29 639.64 1648.57 637.24 1642.77 641.73C1642.74 641.41 1642.72 641.1 1642.7 640.78C1641.89 630.28 1641.51 619.76 1641.73 609.41C1642.06 593.56 1643.78 578.13 1647.47 563.84C1648.3 560.63 1649.23 557.5 1650.28 554.42C1650.52 553.66 1650.78 552.9 1651.05 552.15C1651.9 552.04 1652.76 551.94 1653.61 551.83C1656.33 551.49 1659.04 551.15 1661.77 550.8C1658.09 550.72 1655.8 546.23 1656.69 542.66C1657.58 539.11 1660.56 536.49 1663.58 534.39C1666.78 532.17 1670.33 530.24 1674.2 529.81C1679.67 529.2 1684.96 531.66 1690.33 532.85C1694.55 533.79 1698.81 533.95 1703.07 533.59C1708 533.19 1712.93 532.09 1717.79 530.7C1720.48 529.94 1723.15 529.08 1725.79 528.2C1726.68 527.9 1727.56 527.61 1728.44 527.31C1729.19 527.06 1729.94 526.8 1730.69 526.55C1735.15 525.03 1739.66 523.48 1744.15 521.84C1745.38 521.39 1746.61 520.94 1747.84 520.47C1751.12 519.24 1754.38 517.96 1757.61 516.61C1759.3 515.91 1760.98 515.18 1762.65 514.44C1766.66 512.65 1770.58 510.75 1774.4 508.7C1775.55 508.09 1776.68 507.46 1777.81 506.82C1784.66 502.91 1791.09 498.47 1796.87 493.31C1801.63 489.06 1805.94 484.32 1809.67 478.98C1812.3 475.22 1814.72 471.11 1817.44 467.34C1820 463.76 1822.84 460.51 1826.37 458.18C1827.46 457.46 1828.61 456.83 1829.85 456.3C1837.95 452.84 1847.23 454.95 1855.78 457.12C1858.33 457.77 1860.97 458.46 1862.98 460.16C1864.75 461.63 1865.85 463.74 1866.76 465.84C1870.47 474.4 1871.61 483.8 1872.63 493.08C1872.63 493.08 1872.63 493.08 1872.63 493.09C1872.68 493.47 1872.72 493.84 1872.76 494.22C1873.87 504.37 1874.98 514.63 1873.8 524.78Z" fill="#23282B"/>
<path d="M1815.41 453.52C1811.03 467.38 1804.5 480.81 1796.87 493.31C1795.44 495.65 1793.98 497.96 1792.47 500.23C1792.28 500.53 1792.08 500.83 1791.88 501.13C1791.08 502.34 1790.26 503.54 1789.44 504.74C1788.58 505.97 1787.72 507.2 1786.85 508.42C1785.53 510.25 1784.2 512.06 1782.83 513.85C1781.5 515.59 1780.14 517.32 1778.75 519.02C1777.22 520.9 1775.65 522.75 1774.05 524.58C1771.72 527.23 1769.31 529.81 1766.82 532.3C1765.83 533.3 1764.82 534.28 1763.8 535.25C1763.75 535.3 1763.7 535.35 1763.65 535.39C1761.83 537.12 1759.97 538.8 1758.06 540.43C1757.51 540.9 1756.95 541.37 1756.39 541.83C1755.47 542.6 1754.54 543.35 1753.59 544.08C1752.73 544.76 1751.86 545.42 1750.98 546.07C1749.55 547.14 1748.11 548.16 1746.63 549.16H1746.62C1746.21 549.44 1745.8 549.72 1745.39 549.99C1743.71 551.1 1742 552.16 1740.26 553.17C1739.01 553.91 1737.74 554.62 1736.46 555.31C1726.32 560.72 1715.33 564.53 1704.02 566.56C1696.48 567.9 1688.64 568.45 1681.22 566.58C1672.55 564.4 1664.9 559.05 1656.53 556.08C1654.54 555.38 1652.51 554.81 1650.41 554.44C1650.37 554.43 1650.32 554.43 1650.28 554.42C1640.92 552.82 1628.89 554.25 1623.43 547.42C1622.9 546.76 1622.43 546.02 1622.03 545.19C1621.69 544.48 1621.44 543.75 1621.24 542.99C1621.23 542.96 1621.22 542.93 1621.21 542.9C1620.72 541.03 1620.59 539.06 1620.47 537.12C1619.91 528.18 1619.35 519.23 1618.84 510.38C1618.38 502.6 1617.96 494.89 1617.6 487.32C1617.57 486.88 1617.55 486.44 1617.53 486C1618.43 485.82 1619.32 485.62 1620.2 485.38C1621.45 485.07 1622.69 484.69 1623.91 484.25C1626.62 483.3 1629.24 482.09 1631.72 480.64C1631.4 479.36 1630.75 478.21 1629.86 477.25C1628.14 475.38 1625.56 474.28 1623.02 474.56C1623.87 470.66 1628.62 469.32 1632.54 468.63C1638.39 467.61 1644.22 466.45 1650.02 465.14C1653.07 464.46 1656.11 463.74 1659.14 462.98C1662.97 462.01 1666.79 460.99 1670.58 459.91C1670.58 459.91 1670.58 459.91 1670.59 459.91C1673.18 459.17 1675.75 458.41 1678.32 457.61C1678.33 457.61 1678.33 457.6 1678.34 457.6C1679.67 457.2 1680.99 456.79 1682.31 456.36C1685.5 455.34 1688.68 454.28 1691.84 453.16C1694.45 452.26 1697.05 451.32 1699.64 450.35C1699.64 450.35 1699.64 450.35 1699.64 450.34C1700.85 449.89 1702.06 449.43 1703.26 448.97C1706.61 447.67 1709.93 446.33 1713.24 444.95C1716.93 443.4 1720.59 441.79 1724.22 440.13C1725.18 439.68 1726.14 439.24 1727.1 438.79C1727.81 438.46 1728.53 438.12 1729.24 437.78C1731.64 436.62 1734.04 435.4 1736.38 434.08C1737.97 433.21 1739.52 432.28 1741.03 431.3C1742.19 430.55 1743.33 429.76 1744.43 428.94C1748.61 425.82 1752.31 422.19 1755.08 417.76C1759.24 411.09 1760.99 403.15 1765.11 396.46C1773.51 382.84 1792.17 376.6 1807.08 382.46C1810.41 383.77 1813.63 385.69 1815.74 388.58C1817.63 391.15 1818.5 394.31 1819.18 397.42C1823.25 416.14 1821.2 435.21 1815.41 453.52Z" fill="#23282B"/>
<path d="M170.09 371.58C177.26 364.98 185.06 359.06 193.35 353.92C193.9 354.88 193.49 356.15 192.73 356.95C191.97 357.75 190.92 358.21 189.94 358.72C182.74 362.5 177.9 370.19 170.09 371.58Z" fill="#FEE4DB"/>
<path d="M327.08 419.83L294.57 510.06L289.86 523.14C275.3 519.26 254.84 518.8 240.75 528.34C227.48 537.32 210.6 545.32 193.73 547.63C191.24 547.97 188.57 548.3 185.81 548.54C178.37 549.23 170.34 549.44 163.67 548.21C142.55 544.34 121.53 536.27 108.35 519.48C107.95 518.99 107.58 518.49 107.2 517.98C95.1995 501.68 87.1295 482.61 84.7295 462.34C83.5395 452.39 83.7195 442.13 85.4795 431.78C88.3195 415 98.0295 396.2 112.17 386.74C123.81 378.96 134.19 376.88 146.28 369.83C148.34 368.63 153.89 366.64 156.26 366.26C157.73 366.03 159.36 366.34 161.03 366.81C163.98 367.65 167.05 369 169.61 368.74C170.38 368.66 171.12 368.44 171.79 368.01C173.84 366.7 177.7 363.53 180.5 360.84C183.86 357.64 187.03 355.16 190.39 353.1C193.51 351.18 196.68 351.93 199.64 353.95C199.66 353.96 199.68 353.97 199.7 354C202.72 356.12 204.76 361.42 206.96 363.29C207.4 363.68 207.97 363.9 208.62 363.99C208.66 363.99 208.69 364 208.74 364C208.75 364.01 208.78 364.01 208.8 364.01C212.86 364.47 220.02 360.37 223.63 360.5C228.05 360.68 227.59 362.06 232.68 361.41C244.42 359.92 237.93 363.16 247.43 363.6C250.99 363.75 259.97 359.23 269.13 361.79C269.74 361.95 270.32 362.18 270.9 362.43C270.91 362.43 270.92 362.43 270.92 362.43C272.64 363.24 274.16 364.42 275.46 365.82C276.49 366.92 277.39 368.14 278.17 369.41C280.15 372.61 281.36 376.12 281.97 378.6C284.31 388.35 286.66 396.94 289.01 406.69C289.28 407.81 290.75 412.21 291.59 413.01C291.98 413.37 292.75 413.68 293.59 413.92C294.49 414.2 295.46 414.4 296.01 414.52C306.96 416.9 316.15 417.48 327.08 419.83Z" fill="#FDD5C8"/>
<path d="M196.79 541.74C193.85 545.03 190.01 547.16 185.81 548.55C178.37 549.24 170.34 549.45 163.67 548.22C142.55 544.35 121.53 536.28 108.35 519.49C107.95 519 107.58 518.5 107.2 517.99C95.2005 501.69 87.1305 482.62 84.7305 462.35C91.8905 471.24 101.9 477.87 112.45 482.49C125.96 488.4 140.52 491.4 154.81 495.03C155.61 495.23 156.46 495.47 156.94 496.14C157.55 496.99 157.28 498.16 157.13 499.2C156.25 505.27 160.49 511.18 165.89 514.08C171.29 516.98 177.63 517.48 183.76 517.72C187.89 517.86 192.27 517.99 195.75 520.23C202.61 524.66 202.22 535.66 196.79 541.74Z" fill="#E0AFA1"/>
<path d="M208.54 482.59C210.9 486.38 213.27 490.17 215.63 493.95C216.34 495.09 217.09 496.27 218.21 497.01C219.73 498.02 221.67 498.06 223.5 498.03C248.74 497.64 273.82 489.94 294.93 476.1C292.05 484.46 289.12 493.18 290.22 501.95C290.4 503.37 290.67 504.89 290.04 506.18C289.66 506.96 288.99 507.56 288.29 508.09C284.03 511.34 278.59 512.55 273.31 513.47C264.76 514.96 256.13 515.92 247.5 516.87C238.08 517.91 228.62 518.95 219.15 518.62C213.28 518.41 206.6 517.18 203.55 512.16C200.93 507.84 202.01 502.26 203.82 497.54C205.63 492.82 208.16 488.19 208.54 482.59Z" fill="#E0AFA1"/>
<path d="M294.57 510.07L289.86 523.15C275.3 519.27 254.84 518.81 240.75 528.35C227.48 537.33 210.6 545.33 193.73 547.64C184.53 548.89 172.81 549.91 163.67 548.22C142.55 544.35 121.53 536.28 108.35 519.49C111.75 521.96 115.31 524.18 119.06 526.04C132.87 532.92 149.18 534.65 164.14 530.84C179.1 527.03 192.58 517.71 201.44 505.06C202.7 503.25 205.05 501.14 206.75 502.57C208.1 503.69 207.4 505.93 208.18 507.51C209.42 510.06 213.19 509.38 215.84 508.4C238.48 500.11 263.89 499.58 286.85 506.91C289.48 507.75 292.14 508.72 294.57 510.07Z" fill="#99685A"/>
<path d="M136.559 381.96C132.379 387.96 129.749 395.03 128.979 402.3C128.629 405.56 128.809 409.26 131.169 411.53C129.179 403.45 131.999 395.05 134.779 387.2C135.359 385.57 135.939 383.93 136.559 381.96Z" fill="#FEE4DB"/>
<path d="M146.69 404.75C146.24 403.41 145.98 401.97 146.22 400.58C146.47 399.19 147.29 397.85 148.56 397.23C148.61 398.15 148.09 399 147.75 399.86C146.67 402.61 147.46 405.76 148.82 408.38C147.52 407.24 146.98 405.59 146.69 404.75Z" fill="#FEE4DB"/>
<path d="M149.669 402.53C150.819 402.48 151.969 402.54 153.109 402.68C153.389 402.72 153.709 402.78 153.849 403.03C153.949 403.19 153.939 403.39 153.929 403.58C153.879 404.61 153.839 405.64 153.789 406.67C153.769 407.1 153.689 407.62 153.289 407.78C152.839 407.96 152.399 407.51 152.109 407.12C151.429 406.19 150.749 405.27 150.079 404.34C149.669 403.77 149.239 403.15 149.669 402.53Z" fill="#FEE4DB"/>
<path d="M172.15 392.92C177.95 390.7 183.83 388.67 189.77 386.85C191.51 386.32 193.46 385.82 195.07 386.67C195.26 386.77 195.45 386.9 195.52 387.11C195.6 387.35 195.47 387.61 195.34 387.83C190.75 395.88 183.27 402.24 174.59 405.48C174.28 405.59 173.94 405.71 173.64 405.59C173.36 405.49 173.17 405.23 173.02 404.97C171.85 402.98 171.75 400.55 171.77 398.24C171.77 396.22 171.92 394.01 172.15 392.92Z" fill="#FEE4DB"/>
<path d="M182.969 518.71C176.729 520.69 169.779 520.36 163.759 517.8C161.009 516.63 158.359 514.92 156.799 512.37C155.339 509.97 154.969 507.01 155.399 504.24C155.829 501.47 157.009 498.86 158.459 496.45C159.839 494.16 161.579 491.92 164.059 490.92C166.169 490.06 168.519 490.21 170.779 489.89C180.099 488.58 187.339 479.43 196.759 479.63C198.399 479.66 200.089 480.02 201.369 481.05C204.039 483.21 203.889 487.28 203.319 490.67C202.709 494.31 201.889 497.93 200.469 501.34C197.259 509.05 191.219 516.09 182.969 518.71Z" fill="#FEE4DB"/>
<path d="M243.08 478.4C263.02 476.03 282.48 469.71 299.99 459.89C292.24 457.19 283.71 459.35 275.89 461.84C263.02 465.95 250.43 470.96 238.26 476.83C239.24 478.37 241.12 478.64 243.08 478.4Z" fill="#FEE4DB"/>
<path d="M155.67 415.95C157.08 408.46 159.93 401.25 164.01 394.81C162.04 402.67 159.48 410.37 155.67 415.95Z" fill="#FEE4DB"/>
<path d="M215.719 376.66C215.539 370.84 218.189 365 222.699 361.32C219.629 362.38 217.179 364.93 215.929 367.93C214.679 370.94 214.579 374.35 215.719 376.66Z" fill="#FEE4DB"/>
<path d="M228.239 372.99C230.389 369.96 232.549 366.93 234.699 363.9C234.929 363.57 235.139 363.06 234.809 362.83C234.529 362.64 234.159 362.88 233.909 363.11C231.469 365.4 229.449 368.13 227.969 371.14C227.599 371.92 227.259 372.87 228.239 372.99Z" fill="#FEE4DB"/>
<path d="M254.23 378.83C254.82 374.38 256.68 370.1 259.52 366.63C260.32 365.65 261.21 364.72 261.79 363.6C261.89 363.41 261.99 363.19 261.94 362.97C261.81 362.45 261.06 362.48 260.55 362.68C255.36 364.65 251.85 369.85 250.79 375.3C250.6 376.27 250.48 377.29 250.79 378.23C251.1 379.17 251.94 380 252.93 379.99C253.92 379.98 254.82 378.86 254.23 378.83Z" fill="#FEE4DB"/>
<path d="M166.63 515.8C164.4 514.52 161.99 513.02 161.23 510.56C161.02 509.9 160.95 509.2 160.95 508.5C160.95 505.26 162.47 502.14 164.69 499.78C166.91 497.42 169.76 495.74 172.73 494.44C170.33 493.54 167.58 494.03 165.33 495.25C163.08 496.47 161.27 498.36 159.65 500.35C158.47 501.8 157.32 503.5 157.48 505.36C157.56 506.25 157.94 507.09 158.35 507.89C160.14 511.26 162.8 514.16 166.63 515.8Z" fill="#99685A"/>
<path d="M179.169 515.52C176.039 515.9 172.819 515.62 169.799 514.71C168.139 514.21 166.409 513.4 165.649 511.85C165.589 511.73 165.539 511.61 165.539 511.48C165.539 511.03 166.119 510.85 166.569 510.83C167.949 510.77 169.319 511 170.669 511.26C173.229 511.74 175.829 512.34 178.059 513.7C178.309 513.85 178.559 514.03 178.699 514.29C178.829 514.54 178.799 514.91 179.169 515.52Z" fill="#E0AFA1"/>
<path d="M180.48 512.59C185.91 508.98 190.02 503.42 191.89 497.17C192.15 496.31 192.39 495.39 193.02 494.75C193.65 494.11 194.82 493.9 195.42 494.58C195.88 495.11 195.8 495.89 195.95 496.57C196.1 497.29 196.52 497.93 196.62 498.66C196.84 500.21 195.64 501.56 194.51 502.63C190.38 506.51 185.91 510.01 180.48 512.59Z" fill="#E0AFA1"/>
<path d="M194.389 502.38C193.429 506 191.759 509.53 189.009 512.08C186.259 514.63 182.319 516.06 178.669 515.19C178.219 515.08 177.759 514.93 177.419 514.61C177.079 514.29 176.909 513.76 177.119 513.34C180.189 513.5 183.309 512.33 185.509 510.19C186.829 508.9 187.819 507.31 189.099 505.99C190.479 504.58 192.189 503.49 194.389 502.38Z" fill="#99685A"/>
<path d="M182.92 505.46C178.63 505.72 174.32 502.98 172.75 498.98C172.47 498.27 172.29 497.4 172.73 496.78C172.94 496.48 173.28 496.28 173.61 496.13C174.69 495.63 175.94 495.5 177.1 495.74C178.08 495.95 179 496.42 179.98 496.63C180.56 496.75 181.17 496.79 181.69 497.07C182.21 497.35 182.62 497.98 182.4 498.53C182.33 498.71 182.2 498.86 182.08 499C181.21 500.02 180.37 501.29 180.69 502.59C180.97 503.79 182.11 504.53 182.92 505.46Z" fill="#E0AFA1"/>
<path d="M203.469 481.51C199.199 478.5 193.299 477.97 188.559 480.17C193.179 478.07 194.779 472.35 198.289 468.68C203.819 462.9 212.989 463.06 220.259 459.73C226.369 456.93 231.029 451.65 234.559 445.93C238.219 440.02 240.849 433.54 243.459 427.1C245.769 421.42 248.069 415.73 250.379 410.05C253.379 402.64 256.849 394.69 263.799 390.75C264.349 390.43 264.969 390.14 265.599 390.22C266.839 390.37 267.449 391.81 267.679 393.04C268.459 397.19 267.699 401.47 266.619 405.55C264.749 412.6 261.909 419.34 259.069 426.05C256.109 433.02 253.119 440 249.179 446.47C238.879 463.37 222.009 476.16 203.469 481.51Z" fill="#E0AFA1"/>
<path d="M161.889 485.59C172.299 480.71 183.549 475.01 188.159 464.48C192.529 454.51 189.819 442.43 194.609 432.66C199.289 423.11 209.849 418.18 219.679 414.1C229.509 410.02 240.129 405.46 245.339 396.18C242.589 400.81 236.409 401.7 231.079 402.42C221.619 403.71 212.179 406.05 203.859 410.73C195.539 415.41 188.399 422.64 185.159 431.61C182.039 440.24 182.639 449.92 179.209 458.43C177.489 462.7 174.819 466.5 172.179 470.27C168.099 476.07 164.039 481.85 161.889 485.59Z" fill="#E0AFA1"/>
<path d="M160.03 440.06C159.02 444.43 154.75 447.81 150.26 447.8C143.8 447.79 139.04 441.85 133.01 439.52C128.22 437.67 122.75 438.21 117.94 440.02C113.13 441.83 108.86 444.81 104.73 447.86C108.35 442.53 111.97 437.2 115.59 431.87C117.73 428.72 120.08 425.4 123.62 424C128.19 422.19 133.42 424.14 137.42 426.99C141.42 429.84 144.76 433.6 148.99 436.08C152.38 438.09 156.22 439.19 160.03 440.06Z" fill="#E0AFA1"/>
<path d="M160.839 394.75C163.149 395.55 162.789 389.3 164.239 387.33C164.459 387.03 164.689 386.63 164.499 386.31C164.379 386.11 164.129 386.02 163.899 385.96C162.279 385.52 160.559 385.48 158.949 385C157.339 384.52 155.739 383.42 155.369 381.78C155.179 380.95 155.169 379.85 154.369 379.59C154.069 379.49 153.749 379.56 153.429 379.56C152.179 379.57 151.099 378.56 149.849 378.53C148.959 378.5 148.139 378.98 147.369 379.44C143.429 381.8 139.249 384.4 137.359 388.59C137.079 389.22 136.949 390.14 137.579 390.43C137.829 390.54 138.109 390.5 138.379 390.46C140.069 390.18 141.749 389.91 143.439 389.63C144.259 389.5 145.109 389.36 145.909 389.61C146.699 389.85 147.409 390.59 147.329 391.41C147.259 392.17 146.559 392.82 146.659 393.57C146.809 394.59 157.469 393.59 160.839 394.75Z" fill="#E0AFA1"/>
<path d="M169.61 368.76C168.59 370.36 167.19 371.74 165.45 372.49C163.58 373.31 161.27 373.29 159.57 372.15C159.15 371.87 158.75 371.51 158.58 371.02C158.21 369.96 159.06 368.89 159.84 368.08C160.24 367.66 160.64 367.25 161.03 366.83C163.97 367.67 167.05 369.02 169.61 368.76Z" fill="#E0AFA1"/>
<path d="M208.629 364.01C206.969 364.97 205.159 365.94 203.249 365.74C202.199 365.63 201.199 365.18 200.169 364.92C199.019 364.63 197.829 364.57 196.679 364.27C195.549 363.98 194.399 363.36 193.879 362.29C193.459 361.45 193.519 360.4 194.019 359.6C194.989 358.08 197.369 357.53 197.629 355.75C197.679 355.46 197.639 355.14 197.749 354.86C197.929 354.33 198.489 354.02 199.039 353.97C199.259 353.95 199.469 353.97 199.689 354.02C202.709 356.14 204.749 361.44 206.949 363.31C207.409 363.69 207.969 363.92 208.629 364.01Z" fill="#E0AFA1"/>
<path d="M197.07 382.83C198.25 382.08 199.38 381.25 200.45 380.34C201.08 379.8 201.74 379.11 201.68 378.28C201.62 377.42 200.76 376.8 199.91 376.71C199.06 376.62 198.22 376.92 197.42 377.23C195.93 377.81 194.46 378.43 193 379.09C192.63 379.26 192.25 379.44 192.04 379.79C191.8 380.2 191.87 380.72 192.04 381.17C192.49 382.36 193.59 383.27 194.83 383.51C196.08 383.74 197.43 383.29 197.07 382.83Z" fill="#E0AFA1"/>
<path d="M240.309 361.47C239.229 362.02 238.399 362.98 237.689 363.96C234.989 367.67 233.489 372.1 232.039 376.46C234.979 371.31 238.959 366.76 243.679 363.16L240.309 361.47Z" fill="#E0AFA1"/>
<path d="M231.54 361.55C231.31 361.81 231.05 362.09 230.79 362.39C226.54 367.4 223.98 373.83 223.64 380.39C223.53 382.27 223.62 384.18 223.34 386.05C223.23 386.8 222.78 387.76 222.03 387.59C221.76 387.53 221.54 387.33 221.35 387.12C219.99 385.65 219.23 383.62 219.28 381.62C219.32 380.13 219.76 378.7 219.99 377.23C220.2 375.86 220.21 374.47 220.45 373.11C220.98 370.1 222.54 367.36 224.51 365.02C225.62 363.69 226.86 362.48 228.16 361.34L231.54 361.55Z" fill="#E0AFA1"/>
<path d="M278.17 369.44C278.01 372.89 274.81 375.48 272.72 378.32C268.4 384.23 268.22 392.89 262.57 397.52C261.59 398.32 260.42 398.98 259.15 398.95C257.9 398.93 256.6 398 256.24 398.34C258.95 388.45 258.38 377.86 261.25 368C261.6 366.81 262.01 365.6 262.84 364.68C263.92 363.48 265.54 362.94 267.13 362.66C268.37 362.44 269.64 362.36 270.9 362.46C270.91 362.46 270.92 362.46 270.92 362.46C272.64 363.27 274.16 364.45 275.46 365.85C276.49 366.94 277.39 368.16 278.17 369.44Z" fill="#E0AFA1"/>
<path d="M150.42 414.11C152.37 418.49 152.71 423.57 151.36 428.17C151.24 428.59 151.02 429.08 150.58 429.11C150.07 429.16 149.77 428.55 149.64 428.05C148.79 424.98 148.09 421.86 146.98 418.87C145.08 413.73 141.95 408.68 142.54 403.23C142.66 402.14 143.07 400.91 144.1 400.56C145.06 403.54 146.03 406.56 147.73 409.2C149.44 411.85 151.96 414.51 150.42 414.11Z" fill="#E0AFA1"/>
<path d="M154.099 414.33C154.089 414.33 154.069 414.33 154.059 414.33C153.779 414.31 153.579 414.07 153.599 413.79C154.159 406.95 157.029 400.4 161.659 395.34C161.849 395.14 162.159 395.12 162.369 395.31C162.569 395.5 162.589 395.81 162.399 396.02C157.919 400.92 155.149 407.26 154.599 413.88C154.569 414.13 154.349 414.33 154.099 414.33Z" fill="#99685A"/>
<path d="M185.82 362.99C184.78 366.06 184.73 369.46 185.68 372.56C185.85 373.12 186.07 373.69 186.5 374.07C186.93 374.46 187.65 374.59 188.1 374.22C188.38 373.99 188.51 373.62 188.61 373.26C189.54 370.07 189.83 366.7 189.48 363.4C189.41 362.78 189.28 362.08 188.74 361.75C187.99 361.29 187.03 361.87 186.44 362.52C185.53 363.55 184.86 364.8 185.82 362.99Z" fill="#E0AFA1"/>
<path d="M158.83 382.13C161.5 379.52 164.35 376.81 167.96 375.86C168.53 375.71 169.23 375.65 169.6 376.1C169.76 376.29 169.83 376.55 169.89 376.8C170.53 379.39 171.16 381.99 171.8 384.58C172 385.39 172.17 386.32 171.65 386.97C171 387.79 169.72 387.61 168.7 387.34C164.93 386.36 160.83 385.16 158.83 382.13Z" fill="#E0AFA1"/>
<path d="M172.499 496.77C175.039 496.36 177.669 496.5 180.149 497.18C180.859 497.38 181.579 497.62 182.319 497.56C183.059 497.5 183.819 497.05 183.969 496.33C184.109 495.68 183.689 495.01 183.139 494.64C182.589 494.27 181.909 494.14 181.249 494.02C179.759 493.74 178.279 493.46 176.789 493.18C177.909 492.76 179.129 492.76 180.309 492.6C184.219 492.07 187.659 489.87 190.969 487.72C191.439 487.41 191.959 487.03 192.019 486.47C192.089 485.81 191.429 485.25 190.769 485.18C190.109 485.11 189.459 485.39 188.859 485.68C186.189 486.94 183.539 488.42 180.609 488.8C178.909 489.02 177.079 488.89 175.609 489.77C174.199 490.61 173.429 492.18 172.729 493.67C172.329 494.51 171.949 495.57 172.499 496.77Z" fill="#99685A"/>
<path d="M293.599 413.95C292.169 414.32 290.569 412.98 289.099 412.25C285.779 410.61 281.599 412.48 279.369 415.43C277.119 418.39 276.339 422.16 275.479 425.76C273.989 431.89 271.689 438.52 266.189 441.61C264.459 442.59 262.469 443.15 260.949 444.44C257.199 447.61 257.779 453.47 256.109 458.09C253.639 464.9 246.459 468.58 239.899 471.62C232.479 475.07 225.069 478.51 217.649 481.95C215.289 483.04 212.869 484.18 211.089 486.08C208.599 488.75 207.729 492.48 206.409 495.88C203.799 502.58 199.039 508.43 192.619 512.75C200.409 505.01 204.689 493.85 204.049 482.89C203.919 480.85 203.649 478.8 204.059 476.8C204.869 472.88 208.219 469.93 211.839 468.2C215.449 466.48 219.439 465.69 223.179 464.26C227.469 462.62 231.449 460.14 234.789 457C242.439 449.83 246.509 439.7 249.949 429.81C254.829 415.76 258.929 401.46 262.219 386.97C263.409 381.71 264.559 376.26 267.639 371.82C269.529 369.09 272.349 366.85 275.459 365.86C279.069 369.71 281.129 375.18 281.969 378.64C284.309 388.39 286.659 396.98 289.009 406.73C289.279 407.85 290.749 412.25 291.589 413.05C291.989 413.4 292.759 413.71 293.599 413.95Z" fill="#99685A"/>
<path d="M233.529 361.33L232.649 362.07C230.929 363.49 229.159 364.96 227.819 366.74C224.039 371.76 223.929 378.56 224.139 385.69C224.149 386.01 223.909 386.27 223.579 386.29C223.569 386.29 223.569 386.29 223.559 386.29C223.259 386.29 222.989 386.04 222.979 385.73C222.759 378.38 222.889 371.36 226.899 366.05C228.199 364.33 229.819 362.92 231.439 361.58L233.529 361.33Z" fill="#99685A"/>
<path d="M205.809 362.65C204.579 363.01 203.359 363.36 202.129 363.72C201.009 364.05 199.819 364.41 199.049 365.29C197.849 366.65 198.079 368.73 198.529 370.49C198.979 372.25 199.569 374.14 198.899 375.82C198.339 375.71 197.979 375.17 197.699 374.68C196.919 373.33 196.189 371.94 195.519 370.52C194.589 368.55 193.759 366.39 194.129 364.24C194.499 362.09 196.509 360.09 198.649 360.5C200.319 360.82 201.519 362.43 203.199 362.71C204.309 362.89 205.509 362.4 205.809 362.65Z" fill="#99685A"/>
<path d="M152.329 394.25C152.639 393.48 152.819 392.67 152.879 391.84C152.899 391.6 152.899 391.34 152.779 391.13C152.519 390.66 151.829 390.67 151.319 390.85C150.149 391.25 149.219 392.12 148.319 392.97C147.199 394.04 146.059 395.13 145.319 396.49C144.579 397.85 144.309 399.56 144.979 400.95C145.389 399.42 146.169 397.99 147.159 396.75C147.669 396.11 148.249 395.51 148.969 395.11C150.109 394.48 151.539 394.36 152.329 394.25Z" fill="#99685A"/>
<path d="M150.909 414.83C147.509 411.99 145.359 407.68 145.139 403.25" stroke="#99685A" stroke-miterlimit="10" stroke-linecap="round" stroke-linejoin="round"/>
<path d="M1658.81 572.22C1657.66 582.21 1653.44 592.03 1652.1 602.12C1651.81 604.35 1651.66 606.6 1651.54 608.87C1651.1 618.28 1651.56 627.89 1647.03 636C1645.98 637.88 1644.47 639.49 1642.7 640.78C1635.02 646.43 1622.35 646.21 1620.43 637.05C1617.19 651.94 1602.05 661.7 1586.98 664.04C1571.93 666.38 1556.67 662.98 1541.61 660.63C1510.5 655.76 1478.7 655.35 1447.47 659.41C1434.25 661.13 1420.95 663.66 1407.67 662.37C1387.29 660.39 1368.88 649.67 1349.12 644.31C1322.74 637.17 1293.58 639.47 1269.41 626.7C1259.79 621.61 1250.51 614.05 1239.64 614.44C1231.66 614.72 1224.07 619.38 1216.14 618.44C1210.48 617.76 1205.59 614.35 1200.36 612.09C1190.17 607.68 1178.69 607.73 1167.59 607.86C1103.54 608.55 1039.51 609.24 975.469 609.93C974.849 609.94 974.239 609.95 973.619 609.95C972.269 609.97 970.919 609.98 969.569 610C962.429 610.07 955.299 610.15 948.159 610.23C946.089 610.25 944.039 610.27 941.969 610.29C941.959 610.29 941.959 610.29 941.959 610.29C939.979 610.32 937.999 610.34 936.019 610.36C933.689 610.38 931.359 610.41 929.029 610.43C928.509 610.44 927.979 610.44 927.459 610.45C886.859 610.9 844.339 610.88 807.999 593.29C807.989 593.28 807.989 593.28 807.979 593.28C806.289 592.46 804.609 591.62 802.959 590.72C800.419 583.17 794.459 566.82 789.759 547.34C786.949 535.71 784.599 522.98 783.679 510.33C783.219 503.84 783.089 497.35 783.229 490.87C783.409 482.24 784.079 473.62 785.079 465.02V465.01C787.229 446.4 790.929 427.88 794.619 409.5C795.789 403.68 797.039 397.73 798.649 391.91C801.289 382.34 804.919 373.16 810.779 365.63C811.439 364.77 812.139 363.93 812.869 363.11V363.09C814.219 361.56 815.699 360.11 817.299 358.76C824.299 352.82 832.709 349.48 841.689 347.55C845.169 346.79 848.729 346.26 852.319 345.86C858.509 345.18 864.809 344.92 870.939 344.73C913.779 343.43 956.849 342.73 999.289 348.77C1042.26 354.88 1083.92 367.83 1125.53 380.21C1200.09 402.4 1275.15 422.97 1350.62 441.87C1379.72 449.16 1408.89 456.22 1438.12 463.01C1459.04 467.88 1480.85 472.63 1501.8 467.84C1509.3 466.12 1516.7 463.19 1524.37 463.6C1537.81 464.3 1549.92 475.11 1563.19 472.95C1573.48 471.28 1585.34 462.5 1592.63 469.95C1595.67 473.06 1596.62 478.38 1600.69 479.91C1606.09 481.95 1611.58 475.34 1617.19 476.22C1617.36 476.23 1617.52 476.26 1617.68 476.3C1621.22 477.13 1622.99 480.54 1623.91 484.25C1624.28 485.71 1624.51 487.21 1624.67 488.63C1625.45 495.61 1626.23 502.59 1627.03 509.57C1628.17 519.81 1629.32 530.04 1630.48 540.28C1630.58 541.17 1630.68 542.07 1630.78 542.96C1630.79 543.04 1630.8 543.11 1630.81 543.19C1630.81 543.22 1630.82 543.26 1630.82 543.29C1630.97 544.65 1631.12 546 1631.27 547.35C1633.23 545.47 1635.47 544.47 1637.82 544.21C1638.96 544.08 1640.12 544.11 1641.29 544.3C1645.75 545 1650.26 547.88 1653.61 551.83C1654.72 553.14 1655.71 554.57 1656.53 556.08C1657.75 558.36 1658.59 560.81 1658.88 563.31C1659.23 566.3 1659.15 569.27 1658.81 572.22Z" fill="#495760"/>
<path d="M1872.63 493.08C1872.63 493.08 1872.63 493.08 1872.63 493.09C1868.61 499.34 1862.75 504.01 1855.4 505.18C1854 505.4 1852.44 505.55 1851.46 506.59C1850.72 507.36 1850.48 508.46 1850.35 509.53C1849.31 517.69 1852.2 528.03 1845.43 532.71C1845.8 527.76 1846.17 522.8 1846.55 517.86C1846.69 515.9 1846.62 513.5 1844.91 512.55C1843.67 511.84 1842.12 512.26 1840.77 512.73C1803.2 525.64 1773.77 557.17 1735.41 567.52C1723.08 570.85 1710.21 571.86 1697.85 575.09C1688.51 577.55 1677.99 583.32 1677.73 592.95C1677.46 603.09 1671.79 614.79 1665.87 625.75C1664.01 629.2 1661.4 632.94 1657.51 633.25C1657.54 624.43 1662.77 616.59 1665.5 608.21C1668.55 598.85 1668.41 588.5 1665.11 579.22C1664.5 577.5 1663.77 575.78 1662.47 574.51C1661.43 573.49 1660.13 572.84 1658.81 572.22C1658.34 572 1657.87 571.78 1657.41 571.56C1653.61 569.71 1650.21 567.06 1647.47 563.84C1648.3 560.63 1649.23 557.5 1650.28 554.42C1650.52 553.66 1650.78 552.9 1651.05 552.15C1651.9 552.04 1652.76 551.94 1653.61 551.83C1656.33 551.49 1659.04 551.15 1661.77 550.8C1658.09 550.72 1655.8 546.23 1656.69 542.66C1657.58 539.11 1660.56 536.49 1663.58 534.39C1666.78 532.17 1670.33 530.24 1674.2 529.81C1679.67 529.2 1684.96 531.66 1690.33 532.85C1694.55 533.79 1698.81 533.95 1703.07 533.59C1708 533.19 1712.93 532.09 1717.79 530.7C1720.48 529.94 1723.15 529.08 1725.79 528.2C1726.68 527.9 1727.56 527.61 1728.44 527.31C1729.19 527.06 1729.94 526.8 1730.69 526.55C1735.15 525.03 1739.66 523.48 1744.15 521.84C1745.38 521.39 1746.61 520.94 1747.84 520.47C1751.12 519.24 1754.38 517.96 1757.61 516.61C1759.3 515.91 1760.98 515.18 1762.65 514.44C1766.66 512.65 1770.58 510.75 1774.4 508.7C1775.55 508.09 1776.68 507.46 1777.81 506.82C1784.66 502.91 1791.09 498.47 1796.87 493.31C1801.63 489.06 1805.94 484.32 1809.67 478.98C1812.3 475.22 1814.72 471.11 1817.44 467.34C1820.7 464.63 1823.75 461.68 1826.3 458.28C1826.33 458.24 1826.35 458.22 1826.37 458.18C1827.46 457.46 1828.61 456.83 1829.85 456.3C1837.95 452.84 1847.23 454.95 1855.78 457.12C1858.33 457.77 1860.97 458.46 1862.98 460.16C1864.75 461.63 1865.85 463.74 1866.76 465.84C1870.47 474.4 1871.61 483.8 1872.63 493.08Z" fill="#353A3E"/>
<path d="M1815.41 453.52C1815.23 453.63 1815.03 453.74 1814.83 453.84C1809.13 456.8 1802.42 452.85 1797.26 449.01C1786.77 465.47 1774.57 480.84 1760.94 494.79C1758.71 497.07 1755.77 499.49 1752.72 498.58C1760.22 490.71 1767.71 482.84 1775.2 474.97C1781.18 468.67 1787.54 461.52 1787.68 452.84C1778.33 459.66 1768.98 466.47 1759.64 473.29C1756.75 475.4 1753.64 477.6 1750.07 477.83C1746.94 478.03 1743.94 476.7 1740.89 475.98C1728.72 473.14 1716.61 480.12 1704.22 481.82C1697.15 482.78 1689.96 482 1682.84 482.44C1675.72 482.9 1668.23 484.85 1663.43 490.12C1654.83 499.54 1658.08 515.15 1651.23 525.9C1652.05 514.51 1652.85 503.13 1653.66 491.74C1653.89 488.42 1652.67 483.67 1649.4 484.29C1647.31 484.69 1646.47 487.18 1646.12 489.27C1643.27 506.25 1647.1 524.76 1639.29 540.09C1640.96 523.69 1640.95 507.12 1639.25 490.72C1639.04 488.67 1638.79 486.59 1638 484.7C1636.5 481.15 1633.43 478.86 1629.86 477.25C1628.14 475.38 1625.56 474.28 1623.02 474.56C1623.87 470.66 1628.62 469.32 1632.54 468.63C1638.39 467.61 1644.22 466.45 1650.02 465.14C1653.07 464.46 1656.11 463.74 1659.14 462.98C1662.97 462.01 1666.79 460.99 1670.58 459.91C1670.58 459.91 1670.58 459.91 1670.59 459.91C1673.18 459.17 1675.75 458.41 1678.32 457.61C1678.33 457.61 1678.33 457.6 1678.34 457.6C1679.67 457.2 1680.99 456.79 1682.31 456.36C1685.5 455.34 1688.68 454.28 1691.84 453.16C1694.45 452.26 1697.05 451.32 1699.64 450.35C1699.64 450.35 1699.64 450.35 1699.64 450.34C1700.85 449.89 1702.06 449.43 1703.26 448.97C1706.61 447.67 1709.93 446.33 1713.24 444.95C1716.93 443.4 1720.59 441.79 1724.22 440.13C1725.18 439.68 1726.14 439.24 1727.1 438.79C1727.81 438.46 1728.53 438.12 1729.24 437.78C1731.64 436.62 1734.04 435.4 1736.38 434.08C1737.97 433.21 1739.52 432.28 1741.03 431.3C1742.19 430.55 1743.33 429.76 1744.43 428.94C1748.61 425.82 1752.31 422.19 1755.08 417.76C1759.24 411.09 1760.99 403.15 1765.11 396.46C1773.51 382.84 1792.17 376.6 1807.08 382.46C1810.41 383.77 1813.63 385.69 1815.74 388.58C1817.63 391.15 1818.5 394.31 1819.18 397.42C1823.25 416.14 1821.2 435.21 1815.41 453.52Z" fill="#353A3E"/>
<path d="M826.35 505.21C827.92 515.23 830.25 525.13 833.32 534.8C820.95 535.49 811.02 531.51 803.56 525.03V525.02C796.11 518.54 791.12 509.57 788.6 500.24C787.34 495.57 786.58 490.83 786.21 486.05C785.63 478.65 785.98 471.15 786.87 463.67C787.69 456.65 788.98 449.65 790.4 442.77C794.34 423.6 799.27 404.62 805.16 385.95C807.28 379.2 809.53 372.49 811.9 365.82C812.22 364.91 812.54 364.01 812.87 363.11V363.09C814.22 361.56 815.7 360.11 817.3 358.76C824.3 352.82 832.71 349.48 841.69 347.55C845.17 346.79 848.73 346.26 852.32 345.86C844.61 378.71 831.22 410.35 826.15 443.76C823.06 464.09 823.16 484.9 826.35 505.21Z" fill="#3A474F"/>
<path d="M1651.54 608.87C1651.1 618.28 1651.56 627.89 1647.03 636C1645.98 637.88 1644.47 639.49 1642.7 640.78C1635.02 646.43 1622.35 646.21 1620.43 637.05C1617.19 651.94 1602.05 661.7 1586.98 664.04C1571.93 666.38 1556.67 662.98 1541.61 660.63C1510.5 655.76 1478.7 655.35 1447.47 659.41C1434.25 661.13 1420.95 663.66 1407.67 662.37C1387.29 660.39 1368.88 649.67 1349.12 644.31C1322.74 637.17 1293.58 639.47 1269.41 626.7C1259.79 621.61 1250.51 614.05 1239.64 614.44C1231.66 614.72 1224.07 619.38 1216.14 618.44C1210.48 617.76 1205.59 614.35 1200.36 612.09C1190.17 607.68 1178.69 607.73 1167.59 607.86C1103.54 608.55 1039.51 609.24 975.469 609.93C974.849 609.94 974.239 609.95 973.619 609.95C972.269 609.97 970.919 609.98 969.569 610C962.429 610.07 955.299 610.15 948.159 610.23C946.089 610.25 944.039 610.27 941.969 610.29C941.959 610.29 941.959 610.29 941.959 610.29C939.979 610.32 937.999 610.34 936.019 610.36C933.689 610.38 931.359 610.41 929.029 610.43C928.509 610.44 927.979 610.44 927.459 610.45C886.859 610.9 844.339 610.88 807.999 593.29C807.989 593.28 807.989 593.28 807.979 593.28C806.289 592.46 804.609 591.62 802.959 590.72C800.419 583.17 794.459 566.82 789.759 547.34C786.949 535.71 784.599 522.98 783.679 510.33C783.219 503.84 783.089 497.35 783.229 490.87C784.139 489.09 785.129 487.47 786.209 486.05C787.069 484.88 787.999 483.84 788.959 482.94C793.329 487.14 798.069 490.81 803.099 494.01V494.02C810.329 498.63 818.159 502.29 826.349 505.21C842.459 510.97 859.949 513.88 876.989 515.59C960.549 523.97 1047.88 510.53 1126.65 539.62C1154.23 549.81 1180.98 565.22 1210.39 565.62C1220.76 565.75 1233.33 564.98 1239.05 573.62C1240.84 576.33 1241.66 579.68 1243.86 582.07C1252.06 590.94 1265.47 578.52 1277.38 576.4C1291.11 573.95 1302.46 586.16 1314.65 592.94C1323.32 597.76 1333.17 599.96 1342.95 601.62C1423.81 615.43 1508.76 596.8 1587.79 618.84C1602.33 622.9 1619.39 627.86 1631.26 618.55C1634.83 615.74 1637.99 611.65 1641.73 609.41C1643.53 608.33 1645.45 607.68 1647.63 607.8C1649.02 607.87 1650.32 608.26 1651.54 608.87Z" fill="#3A474F"/>
<path d="M1067.32 627.86C1067.27 627.94 1067.22 628.01 1067.17 628.08C1066.48 629.05 1065.46 629.73 1064.46 630.39C1058.14 632.87 1054.84 640.95 1049.56 646.55C1046.7 649.59 1043.19 651.91 1039.72 654.22C1032.62 658.93 1025.41 663.7 1017.36 666.49C1008.68 669.49 999.269 670.09 990.699 673.36C986.559 674.94 982.649 677.13 978.469 678.56C971.249 681 963.479 681.12 955.869 681.19C943.959 681.29 932.049 681.37 920.139 681.4C908.849 681.42 897.559 681.41 886.279 681.37C882.869 681.35 879.459 681.33 876.049 681.31C872.499 681.29 868.939 681.26 865.389 681.23C864.889 681.23 864.389 681.23 863.889 681.22C862.609 681.21 861.329 681.2 860.049 681.19L860.169 679.58L860.669 672.95L863.359 637.13C865.079 637.09 866.799 637.04 868.519 637C870.499 636.95 872.489 636.9 874.479 636.85C876.229 636.81 878.049 636.76 879.649 636.02C880.969 635.41 882.049 634.37 883.179 633.46C885.239 631.82 887.559 630.53 889.859 629.26C895.249 626.29 900.749 623.27 906.759 621.96C910.829 621.08 915.059 621 919.089 619.91C925.379 618.21 930.659 614.22 936.019 610.36C940.759 606.93 945.549 603.61 951.119 602.1C955.909 600.8 958.029 599.77 962.979 600.16C966.599 600.45 970.899 600.23 972.099 603.64C972.159 603.81 972.219 604 972.279 604.18C972.349 604.38 972.409 604.58 972.479 604.8C972.729 605.59 972.989 606.49 973.199 607.43C973.239 607.57 973.269 607.72 973.299 607.87C973.439 608.56 973.549 609.27 973.619 609.95C973.659 610.46 973.669 610.96 973.649 611.43C973.639 611.63 973.619 611.83 973.589 612.02L973.559 612.23C973.529 612.44 973.479 612.64 973.429 612.82C973.329 613.16 973.199 613.47 973.019 613.74C971.889 615.47 970.679 617.16 969.229 618.64C960.699 627.32 945.699 627.12 937.449 635.9V635.91C937.429 635.93 937.419 635.94 937.409 635.94C937.399 635.95 937.399 635.96 937.389 635.97C937.179 636.18 936.989 636.39 936.809 636.62C936.849 636.64 936.899 636.66 936.949 636.69C944.689 640.69 952.689 643.48 960.939 644.55C969.999 645.74 979.219 644.85 988.209 643.22C992.119 642.52 996.019 641.67 999.719 640.23C1003.43 638.79 1006.88 636.78 1010.27 634.7C1016.06 631.13 1022.85 627.15 1029.23 629.53C1034.16 625.27 1040.98 622.72 1047.74 623C1053.34 620 1060.41 619.94 1065.81 623.04C1066.54 623.46 1067.27 623.96 1067.65 624.71C1068.15 625.69 1067.92 626.91 1067.32 627.86Z" fill="#FDD5C8"/>
<path d="M873.219 647.38C881.359 645.2 888.169 639.78 895.389 635.43C903.789 630.37 912.929 626.65 922.209 623.48C927.029 621.83 931.939 620.3 936.339 617.74C939.489 615.9 942.329 613.56 945.469 611.69C951.249 608.25 957.869 606.51 964.379 604.81C960.709 603.01 956.299 603.73 952.449 605.12C944.179 608.09 937.179 613.77 929.299 617.65C922.059 621.21 914.169 623.22 906.639 626.1C894.089 630.9 882.499 638.18 873.219 647.38Z" fill="#FEE4DB"/>
<path d="M973.01 613.74C971.89 615.47 970.67 617.17 969.22 618.64C960.69 627.32 945.69 627.12 937.44 635.9V635.91C937.43 635.91 937.43 635.91 937.42 635.91C937.41 635.93 937.4 635.95 937.38 635.97C937.24 636.22 937.09 636.45 936.94 636.68C932.86 643.05 926.54 647.98 919.36 650.39C916.54 651.34 912.96 651.71 911.01 649.47C913.24 645.28 917.05 642.12 921.12 639.67C925.18 637.21 929.58 635.34 933.72 633.02C937.04 631.15 940.22 628.97 943.78 627.58C946.21 626.63 948.79 626.07 951.29 625.31C955.02 624.18 958.62 622.57 961.97 620.56C963.3 619.76 964.65 618.84 965.31 617.45C963.27 617.52 961.24 617.58 959.2 617.65C962.05 616.08 964.93 614.5 967.35 612.34C969.77 610.19 971.74 607.37 972.27 604.19C973.2 606.91 974.43 611.56 973.01 613.74Z" fill="#99685A"/>
<path d="M1055.11 625.56C1057.74 625.17 1060.37 624.77 1063 624.38C1059.73 622 1054.95 621.93 1051.62 624.22C1052.3 625.22 1053.56 625.79 1055.11 625.56Z" fill="#FEE4DB"/>
<path d="M1005.6 644.28C1008.46 640.6 1012.75 638.37 1016.89 636.25C1023.58 632.83 1030.27 629.41 1036.96 626C1039.28 624.82 1041.9 623.6 1044.38 624.37C1042.78 626.83 1039.85 627.98 1037.14 629.11C1027.46 633.13 1018.37 638.53 1010.21 645.1C1009.39 645.76 1008.5 646.46 1007.45 646.5C1006.4 646.55 1004.82 645.28 1005.6 644.28Z" fill="#FEE4DB"/>
<path d="M1067.32 627.86C1067.27 627.94 1067.21 628.01 1067.17 628.08C1066.48 629.05 1065.46 629.73 1064.46 630.4C1058.14 632.88 1054.85 640.96 1049.56 646.55C1046.71 649.59 1043.2 651.92 1039.72 654.22C1032.62 658.93 1025.42 663.71 1017.36 666.49C1008.68 669.5 999.279 670.09 990.709 673.37C986.569 674.95 982.659 677.14 978.479 678.56C971.259 681 963.499 681.12 955.879 681.19C923.939 681.48 891.999 681.48 860.059 681.19L860.679 672.96L861.329 673.04C865.309 673.27 869.279 673.5 873.259 673.72C875.069 673.83 877.649 673.12 877.299 671.35C881.779 672.96 886.249 674.58 890.729 676.2C893.019 677.02 895.829 677.77 897.679 676.18C895.549 674.41 894.299 671.63 894.379 668.87C894.389 668.52 894.439 668.13 894.699 667.9C894.919 667.7 895.239 667.67 895.519 667.64C901.879 667.03 908.259 666.66 914.629 666.51C915.739 666.49 916.949 666.5 917.789 667.22C918.389 667.72 918.689 668.51 919.219 669.09C920.409 670.4 922.439 670.45 924.199 670.29C930.189 669.79 936.639 668.4 941.859 671.34C943.449 672.23 944.829 673.49 946.549 674.11C948.499 674.81 950.659 674.58 952.729 674.33C955.829 673.97 958.929 673.6 961.959 672.86C965.139 672.08 968.209 670.88 971.309 669.8C978.069 667.43 984.989 665.54 991.909 663.67C997.569 662.14 1003.23 660.59 1008.3 659.62C1011.69 657.37 1014.83 654.77 1017.63 651.82C1018.37 651.06 1019.09 650.25 1020.04 649.8C1021.15 649.25 1022.43 649.23 1023.62 648.91C1025.01 648.56 1026.29 647.82 1027.49 647.04C1032.58 643.79 1037.03 639.67 1041.56 635.68C1043.3 634.14 1045.1 632.6 1047.21 631.62C1049.32 630.65 1051.83 630.29 1053.97 631.18C1054.38 631.34 1054.82 631.75 1054.63 632.13C1054.55 632.27 1054.4 632.36 1054.26 632.43C1052.27 633.49 1050.3 634.57 1048.31 635.63C1046.94 636.37 1045.56 637.12 1044.29 638C1043.17 638.8 1042.13 639.71 1041.1 640.62C1037.12 644.09 1033.16 647.58 1029.17 651.12C1024.14 652.99 1019.47 655.8 1015.45 659.34C1014.35 660.3 1013.25 661.35 1011.82 662.15C1001.14 664.91 990.449 667.68 980.019 671.25C976.709 672.38 973.289 673.67 970.869 676.2C972.129 676.94 973.739 676.91 975.149 676.5C976.549 676.1 977.839 675.34 979.139 674.64C982.979 672.58 987.059 671.04 991.129 669.49C997.079 667.24 1003.14 664.98 1009.48 664.55C1011.69 664.4 1013.92 664.48 1016.1 664.02C1023.21 662.51 1027.91 655.73 1034.46 652.56C1036.81 651.43 1039.4 650.76 1041.58 649.32C1043.43 648.1 1044.89 646.38 1046.25 645.07C1049.91 640.56 1053.57 636.04 1057.23 631.53C1057.93 630.65 1058.65 629.78 1059.57 629.14C1061.28 627.97 1063.46 627.81 1065.52 627.68C1066.09 627.67 1066.76 627.65 1067.32 627.86Z" fill="#99685A"/>
<path d="M863.099 660.8C862.929 662.67 862.829 664.6 862.829 666.54C862.829 667.09 862.839 667.64 862.859 668.19C862.869 668.57 862.879 668.95 862.909 669.32C862.909 669.41 862.909 669.49 862.919 669.57C862.929 669.88 862.949 670.18 862.979 670.48C862.999 670.86 863.039 671.23 863.079 671.61C863.129 672.12 863.199 672.64 863.269 673.15C863.309 673.51 863.359 673.86 863.429 674.21C863.479 674.56 863.549 674.91 863.619 675.25C863.679 675.6 863.749 675.94 863.829 676.28C863.909 676.62 863.989 676.96 864.079 677.3C864.169 677.64 864.259 677.98 864.359 678.31C864.449 678.64 864.549 678.97 864.669 679.3C864.769 679.62 864.879 679.94 864.999 680.26C865.119 680.59 865.249 680.91 865.389 681.23C865.499 681.5 865.619 681.77 865.739 682.04C867.219 685.24 869.319 688.03 872.249 690.14C871.319 690.4 870.389 690.64 869.449 690.88C869.269 690.93 869.089 690.98 868.909 691.02C868.479 691.13 868.049 691.24 867.619 691.34C867.039 691.49 866.459 691.62 865.879 691.76C865.429 691.86 864.979 691.97 864.529 692.07C864.119 692.16 863.719 692.25 863.309 692.34C862.779 692.46 862.239 692.57 861.699 692.68L860.979 692.83C860.529 692.92 860.089 693.01 859.639 693.1C859.399 693.15 859.149 693.19 858.909 693.24C858.699 693.28 858.479 693.32 858.269 693.36C857.539 693.5 856.809 693.63 856.079 693.75C855.959 693.77 855.849 693.79 855.739 693.81C855.579 693.84 855.429 693.86 855.279 693.89C854.709 693.99 854.129 694.08 853.559 694.17C853.509 694.19 853.459 694.19 853.409 694.19C852.919 694.27 852.419 694.35 851.929 694.42C851.319 694.52 850.719 694.61 850.109 694.68C849.009 694.83 847.919 694.97 846.819 695.1C846.559 695.14 846.309 695.17 846.049 695.19C845.529 695.26 845.019 695.31 844.499 695.36C844.149 695.4 843.789 695.44 843.439 695.47C842.099 695.61 840.749 695.73 839.399 695.82C838.799 695.87 838.189 695.91 837.579 695.95C837.519 695.96 837.459 695.96 837.399 695.96C836.849 696 836.289 696.03 835.729 696.06C835.349 696.09 834.959 696.11 834.569 696.11C833.809 696.16 833.049 696.19 832.279 696.21C832.279 696.21 832.269 696.21 832.259 696.21C831.449 696.24 830.629 696.26 829.809 696.28H829.669C828.609 696.3 827.539 696.31 826.479 696.31C818.889 696.31 811.299 695.81 803.779 694.8C800.959 694.42 798.159 693.97 795.359 693.45C790.699 692.58 786.079 691.51 781.519 690.24C771.669 687.49 762.089 683.86 752.339 680.78C742.869 677.8 733.219 675.36 723.589 672.94C672.559 660.07 620.709 647.11 568.129 648.98C555.309 649.43 542.469 650.77 529.679 649.73C514.829 648.5 500.439 644.09 485.769 641.49C455.749 636.18 424.829 638.52 394.719 633.74C364.629 628.97 333.359 614.86 319.979 587.49C319.969 587.48 319.969 587.47 319.959 587.47C314.749 576.8 312.629 564.86 307.959 553.95C306.669 550.9 305.079 547.88 303.219 545.07C303.179 545 303.129 544.94 303.079 544.87C302.889 544.59 302.689 544.3 302.499 544.02C302.359 543.83 302.219 543.63 302.079 543.44C301.779 543.02 301.469 542.61 301.159 542.2C300.839 541.79 300.519 541.39 300.189 540.99C299.839 540.57 299.479 540.15 299.109 539.75C298.749 539.34 298.369 538.94 297.989 538.56C297.769 538.33 297.549 538.1 297.319 537.89C297.179 537.75 297.049 537.63 296.909 537.5C296.529 537.14 296.139 536.79 295.739 536.45C295.699 536.42 295.669 536.39 295.629 536.35C295.369 536.12 295.099 535.9 294.829 535.7C294.729 535.61 294.619 535.53 294.519 535.45C294.139 535.15 293.749 534.86 293.349 534.58C293.319 534.56 293.289 534.54 293.259 534.52C293.079 534.39 292.889 534.26 292.699 534.13C292.529 534.02 292.349 533.91 292.179 533.81C292.049 533.72 291.919 533.64 291.799 533.57C291.649 533.48 291.509 533.39 291.369 533.3C291.349 533.29 291.319 533.28 291.299 533.26C291.069 533.13 290.849 533.01 290.619 532.88C288.809 531.88 286.879 531.1 284.849 530.56C284.349 530.43 283.829 530.31 283.309 530.21C283.579 527.85 283.979 525.58 284.479 523.39C284.579 522.92 284.689 522.45 284.809 521.99C284.969 521.36 285.129 520.74 285.299 520.13C285.469 519.51 285.639 518.9 285.829 518.3C286.009 517.71 286.189 517.13 286.389 516.55C286.819 515.2 287.299 513.87 287.789 512.56C287.949 512.12 288.119 511.69 288.289 511.26C288.509 510.69 288.739 510.12 288.969 509.55C289.189 508.99 289.429 508.43 289.659 507.87C290.089 506.84 290.529 505.82 290.959 504.8C291.399 503.79 291.839 502.78 292.269 501.77C292.529 501.17 292.779 500.57 293.039 499.97C304.299 473.74 312.439 446.18 317.249 418.04C318.239 412.24 319.089 406.42 319.799 400.58C322.819 402.37 325.979 403.58 329.199 404.29C332.489 405.01 335.839 405.2 339.179 404.91C341.959 404.66 344.739 404.1 347.449 403.24C356.819 400.25 364.749 394.04 372.429 387.91C411.129 357.01 449.709 324.93 494.679 304.19C513.399 292.05 538.139 304.86 560.689 304.52C576.719 304.29 592.499 297.14 608.349 299.62C619.459 301.36 629.249 307.66 639.739 311.67C684.549 328.84 740.669 304.62 780.269 331.7C784.149 334.36 787.909 337.53 792.489 338.59C794.689 339.1 796.939 339.1 799.199 338.94C799.909 338.89 800.629 338.83 801.339 338.76C802.069 338.69 802.799 338.61 803.529 338.55C817.009 337.32 830.749 339.15 843.439 343.87C842.849 345.09 842.269 346.32 841.689 347.55C823.489 386.13 810.339 426.44 805.199 468.03C805.159 468.33 805.119 468.63 805.089 468.93C804.909 470.4 804.749 471.86 804.589 473.33C804.319 475.85 804.089 478.37 803.889 480.89C803.829 481.54 803.779 482.19 803.729 482.84C803.709 483.02 803.699 483.2 803.689 483.38C803.659 483.86 803.619 484.33 803.589 484.8C803.529 485.67 803.469 486.54 803.419 487.41C803.329 488.73 803.259 490.05 803.209 491.37C803.189 491.75 803.169 492.13 803.159 492.51C803.129 493.01 803.119 493.51 803.099 494.01V494.02C803.059 494.97 803.019 495.92 802.999 496.87C802.859 501.33 802.829 505.8 802.919 510.27C802.919 510.27 802.919 510.28 802.919 510.29C802.929 510.88 802.939 511.47 802.959 512.06C802.979 513.13 803.009 514.21 803.049 515.28C803.089 516.39 803.129 517.5 803.189 518.61C803.229 519.54 803.269 520.47 803.329 521.4C803.399 522.61 803.469 523.81 803.559 525.02V525.03C803.569 525.11 803.569 525.18 803.579 525.26C803.649 526.37 803.729 527.47 803.829 528.58C804.009 530.79 804.219 533 804.459 535.21C804.579 536.31 804.699 537.41 804.839 538.51C805.359 542.91 805.999 547.3 806.759 551.67C807.129 553.85 807.529 556.03 807.969 558.2C808.289 559.8 808.619 561.4 808.979 562.99C809.149 563.79 809.329 564.58 809.519 565.38C809.699 566.17 809.879 566.96 810.079 567.76C810.489 569.49 810.929 571.22 811.389 572.94C811.569 573.64 811.759 574.33 811.949 575.02C812.149 575.75 812.349 576.48 812.559 577.21C812.559 577.22 812.559 577.22 812.559 577.24C814.499 584.07 816.759 590.79 819.339 597.43C818.509 597.14 817.679 596.86 816.869 596.57C816.059 596.29 815.259 596 814.459 595.71C812.239 594.91 810.099 594.1 807.999 593.29C807.989 593.28 807.989 593.28 807.979 593.28C807.569 593.12 807.159 592.96 806.759 592.8C798.049 589.39 790.259 585.91 782.479 582.44C782.349 582.38 782.219 582.32 782.089 582.26C772.419 577.95 762.639 573.6 752.229 571.64C744.019 570.11 735.529 570.1 727.509 567.82C710.879 563.08 697.149 548.9 679.869 548.39C673.749 548.21 667.749 549.81 661.779 551.14C646.209 554.62 630.259 556.33 614.299 556.25C615.249 556.62 616.209 556.95 617.169 557.27C641.859 565.54 669.289 561.32 694.919 566.59C716.219 570.98 735.889 581.84 757.399 584.97C770.819 590.5 784.139 596.55 797.459 602.59C799.649 603.6 801.919 604.6 804.329 604.69C806.769 604.76 809.119 603.86 811.539 603.48C821.929 601.84 831.399 609.85 837.329 618.56C840.319 616.4 844.579 617.88 847.439 620.18C850.299 622.47 852.629 625.56 855.989 627.05C856.679 627.35 857.379 627.57 858.099 627.74C861.119 628.45 864.389 628.11 867.529 628.09H867.679C867.989 628.09 868.299 628.1 868.619 628.11C868.979 628.12 869.349 628.14 869.709 628.17C869.909 628.19 870.119 628.21 870.319 628.23C870.769 628.27 871.219 628.33 871.659 628.42C872.019 628.48 872.369 628.56 872.719 628.64C872.909 628.69 873.099 628.74 873.289 628.8C873.449 628.85 873.599 628.89 873.749 628.95C873.999 629.02 874.239 629.11 874.469 629.22C874.629 629.28 874.789 629.35 874.949 629.43C875.129 629.51 875.299 629.6 875.469 629.69C875.809 629.87 876.149 630.08 876.459 630.32C876.569 630.4 876.679 630.48 876.789 630.58C876.859 630.63 876.929 630.69 876.999 630.75C877.089 630.83 877.179 630.91 877.259 630.99C877.559 631.28 877.839 631.59 878.089 631.94C874.489 631.67 871.579 633.04 869.789 635.14C869.299 635.72 868.879 636.34 868.519 637C868.269 637.43 868.049 637.88 867.839 638.34C867.759 638.51 867.689 638.68 867.619 638.86C867.509 639.11 867.409 639.38 867.319 639.65C867.219 639.91 867.129 640.18 867.039 640.45C866.799 641.17 866.599 641.9 866.399 642.63C864.769 648.58 863.659 654.66 863.099 660.8Z" fill="#709EB8"/>
<path d="M413.648 541.4C431.498 539.45 449.438 537.5 467.358 538.54C483.398 539.47 499.198 542.77 514.918 546.06C535.418 550.35 555.908 554.65 576.408 558.94C549.538 555.6 521.768 552.33 495.788 559.98C486.918 562.59 478.448 566.43 469.608 569.11C447.918 575.7 424.098 575.06 402.788 567.32C401.498 566.85 400.108 566.27 399.478 565.05C398.668 563.51 399.408 561.63 400.258 560.11C403.928 553.58 409.898 548.39 413.648 541.4Z" fill="#8BB0C5"/>
<path d="M613.738 574.29C610.668 577.64 606.268 579.53 603.168 582.86C600.068 586.19 598.938 592.29 602.708 594.84C609.458 586.75 617.918 580.09 627.368 575.44C624.418 586.86 624.448 599.03 627.448 610.43C631.728 610.7 633.968 605.54 634.968 601.37C637.058 592.61 639.148 583.85 641.238 575.09C636.388 572.84 631.398 570.55 626.058 570.27C620.728 569.98 615.368 572.51 613.738 574.29Z" fill="#8BB0C5"/>
<path d="M806.03 611.88C806.69 627.53 807.52 643.84 815.17 657.51C815.54 658.18 815.97 658.87 816.65 659.23C818.8 660.36 820.78 657.43 821.37 655.07C823.68 645.85 824.05 636.14 822.45 626.77C821.59 621.73 819.999 616.51 816.219 613.06C812.439 609.61 805.89 608.74 806.03 611.88Z" fill="#8BB0C5"/>
<path d="M399.019 380.38C422.379 352.99 458.599 340.67 493.469 331.73C510.209 327.44 528.399 323.73 544.359 330.37C507.329 343.72 464.509 344.51 433.669 368.97C422.469 377.85 412.119 390.11 397.859 391.09C396.699 384.4 399.269 377.2 399.019 380.38Z" fill="#8BB0C5"/>
<path d="M662.449 359.18C675.679 360.58 689.229 358.88 701.699 354.26C707.369 352.16 712.809 349.47 718.449 347.29C734.049 341.27 750.899 339.29 767.589 338.21C761.939 342.37 755.069 344.48 748.319 346.41C719.139 354.72 689.349 360.89 662.449 359.18Z" fill="#8BB0C5"/>
<path d="M819.619 369.49C819.689 370.79 818.829 371.93 817.989 372.93C814.059 377.57 809.659 381.8 805.159 385.95C802.999 387.94 800.809 389.92 798.649 391.91C791.759 398.24 785.109 404.75 780.079 412.6C778.379 415.25 776.839 418.09 774.439 420.11C772.039 422.14 768.459 423.18 765.719 421.65C760.759 418.89 762.329 411.05 756.379 404.57C762.039 378.47 777.609 354.64 799.199 338.94C799.739 338.54 800.279 338.15 800.819 337.77C801.009 338.09 801.179 338.42 801.339 338.76C803.389 343.08 802.849 348.25 803.129 353.1C803.429 358.32 805.609 364.36 810.689 365.61C810.719 365.62 810.749 365.62 810.779 365.63C811.149 365.72 811.519 365.77 811.899 365.82C813.249 365.96 814.629 365.9 815.969 366.17C817.709 366.51 819.519 367.72 819.619 369.49Z" fill="#8BB0C5"/>
<path d="M819.339 597.43C818.509 597.14 817.679 596.86 816.869 596.57C816.059 596.29 815.259 596 814.459 595.71C812.239 594.91 810.099 594.1 807.999 593.29C807.989 593.28 807.989 593.28 807.979 593.28C807.569 593.12 807.159 592.96 806.759 592.8C798.049 589.39 790.259 585.91 782.479 582.44C782.349 582.38 782.219 582.32 782.089 582.26C772.419 577.95 762.639 573.6 752.229 571.64C744.019 570.11 735.529 570.1 727.509 567.82C710.879 563.08 697.149 548.9 679.869 548.39C673.749 548.21 667.749 549.81 661.779 551.14C646.209 554.62 630.259 556.33 614.299 556.25C615.249 556.62 616.209 556.95 617.169 557.27C615.639 557.31 614.099 557.33 612.579 557.36C566.219 542.58 518.889 532.97 471.089 527.53C465.949 526.94 459.239 521.26 454.889 514.95C450.529 508.66 447.459 501.38 441.999 496C435.699 489.78 426.079 485.82 423.859 477.26C433.269 475.54 443.259 477.13 451.699 481.68C448.319 478.86 444.939 476.03 441.559 473.21C475.999 474.57 510.369 477.84 544.459 483C550.839 483.95 557.219 484.98 563.579 486.08C566.829 482.76 562.269 477.63 558.199 475.4C533.989 462.18 508.019 452.18 481.199 445.77C494.169 436.53 511.719 437.86 527.409 440.57C543.109 443.29 559.669 446.97 574.579 441.35L558.369 426.44C576.019 428.6 591.749 438.11 607.699 446C634.709 459.38 663.599 468.5 692.359 477.56C695.159 478.45 698.129 479.34 700.969 478.62C703.879 477.88 706.099 475.59 708.529 473.81C729.389 458.43 762.569 480.84 783.799 465.96C784.229 465.66 784.659 465.34 785.079 465.02V465.01C785.179 464.94 785.269 464.87 785.359 464.8C785.859 464.42 786.359 464.03 786.869 463.67C787.939 462.89 789.039 462.2 790.269 461.74C794.949 459.98 800.389 462.25 803.669 466.01C804.229 466.65 804.739 467.33 805.199 468.03C805.159 468.33 805.119 468.63 805.089 468.93C804.909 470.4 804.749 471.86 804.589 473.33C804.319 475.85 804.089 478.37 803.889 480.89C803.829 481.54 803.779 482.19 803.729 482.84C803.709 483.02 803.699 483.2 803.689 483.38C803.649 483.85 803.619 484.33 803.589 484.8C803.529 485.67 803.469 486.54 803.419 487.41C803.339 488.73 803.269 490.05 803.209 491.37C803.189 491.75 803.169 492.13 803.159 492.51C803.129 493.01 803.119 493.51 803.099 494.01V494.02C803.059 494.97 803.019 495.92 802.999 496.87C802.949 498.4 802.939 499.93 802.909 501.46C802.889 502.61 802.879 503.76 802.879 504.91C802.879 506.7 802.879 508.48 802.919 510.27C802.919 510.27 802.919 510.28 802.919 510.29C802.929 510.82 802.939 511.36 802.959 511.9C802.949 511.95 802.949 512 802.959 512.06C802.979 513.13 803.009 514.2 803.049 515.28C803.089 516.39 803.129 517.5 803.189 518.61C803.229 519.54 803.279 520.47 803.329 521.4C803.399 522.61 803.469 523.81 803.559 525.02V525.03L803.569 525.04C803.569 525.11 803.569 525.19 803.579 525.26C803.649 526.37 803.739 527.47 803.829 528.58C804.009 530.79 804.219 533 804.459 535.21C804.579 536.31 804.699 537.41 804.839 538.51C805.369 542.92 806.009 547.31 806.759 551.67C807.139 553.86 807.549 556.04 807.979 558.21C808.299 559.81 808.629 561.4 808.979 562.99C809.149 563.79 809.329 564.58 809.519 565.38C809.699 566.17 809.879 566.96 810.079 567.76C810.489 569.49 810.929 571.22 811.389 572.94C811.569 573.64 811.759 574.33 811.949 575.02C812.149 575.75 812.349 576.48 812.559 577.21C812.559 577.22 812.559 577.22 812.559 577.24C814.499 584.07 816.759 590.79 819.339 597.43Z" fill="#31556B"/>
<path d="M872.249 690.14C871.319 690.4 870.388 690.64 869.448 690.88C869.268 690.93 869.088 690.98 868.908 691.02C868.478 691.13 868.049 691.24 867.619 691.34C867.039 691.49 866.459 691.62 865.879 691.76C865.429 691.87 864.979 691.97 864.529 692.07C864.119 692.16 863.718 692.25 863.308 692.34C862.778 692.46 862.238 692.57 861.698 692.68L860.979 692.83C860.529 692.92 860.089 693.01 859.639 693.1C859.399 693.15 859.148 693.19 858.908 693.24C858.698 693.28 858.479 693.32 858.269 693.36C857.539 693.5 856.808 693.63 856.078 693.75C855.958 693.77 855.849 693.79 855.739 693.81C855.579 693.84 855.429 693.86 855.279 693.89C854.709 693.99 854.128 694.08 853.558 694.17C853.508 694.19 853.458 694.19 853.408 694.19C852.918 694.27 852.418 694.35 851.928 694.42C851.318 694.52 850.719 694.61 850.109 694.68C849.009 694.83 847.918 694.97 846.818 695.1C846.558 695.14 846.308 695.17 846.048 695.19C845.528 695.26 845.019 695.31 844.499 695.36C844.149 695.4 843.788 695.44 843.438 695.47C842.098 695.61 840.749 695.73 839.399 695.82C838.799 695.87 838.188 695.91 837.578 695.95C837.518 695.96 837.459 695.96 837.399 695.96C836.849 696 836.289 696.03 835.729 696.06C835.349 696.09 834.958 696.11 834.568 696.11C833.808 696.16 833.049 696.19 832.279 696.21C832.279 696.21 832.269 696.21 832.259 696.21C831.449 696.24 830.629 696.26 829.809 696.28H829.668C828.608 696.3 827.538 696.31 826.478 696.31C818.888 696.31 811.299 695.81 803.779 694.8C800.959 694.42 798.158 693.97 795.358 693.45C790.698 692.58 786.079 691.51 781.519 690.24C771.669 687.49 762.089 683.86 752.339 680.78C742.869 677.8 733.219 675.36 723.589 672.94C672.559 660.07 620.709 647.11 568.129 648.98C555.309 649.43 542.468 650.77 529.678 649.73C514.828 648.5 500.438 644.09 485.768 641.49C455.748 636.18 424.829 638.52 394.719 633.74C364.629 628.97 333.359 614.86 319.979 587.49C335.629 598.38 354.969 604.1 374.089 606.42C398.699 609.39 423.608 607.39 448.398 607.68C488.088 608.14 527.468 614.45 566.668 620.74C582.898 623.35 599.128 625.96 615.358 628.57C647.798 633.78 680.819 639.18 710.189 653.91C723.359 660.53 740.408 668.6 751.228 658.6C752.568 657.38 753.749 655.88 755.439 655.19C761.089 652.9 765.199 660.56 770.139 664.14C781.189 672.15 801.498 660.15 808.488 671.89C810.228 674.81 810.369 678.5 812.139 681.41C815.429 686.84 823.388 687.69 829.118 684.97C834.848 682.24 838.849 676.94 842.619 671.84C844.509 672.68 846.408 673.51 848.298 674.35C850.448 675.3 852.589 676.24 854.739 677.19C856.549 677.99 858.358 678.79 860.168 679.58C861.408 680.13 862.649 680.68 863.889 681.22C864.509 681.5 865.119 681.77 865.739 682.04C867.219 685.24 869.319 688.03 872.249 690.14Z" fill="#31556B"/>
<path d="M309.299 516.4C305.059 525.04 302.949 534.7 303.199 544.31C303.199 544.57 303.209 544.82 303.219 545.07C303.179 545 303.129 544.94 303.079 544.87C302.889 544.59 302.689 544.3 302.499 544.02C302.369 543.82 302.229 543.63 302.079 543.44C301.789 543.02 301.479 542.6 301.159 542.2C300.849 541.79 300.529 541.39 300.189 540.99C299.849 540.57 299.489 540.16 299.109 539.75C298.749 539.34 298.369 538.94 297.989 538.56C297.769 538.33 297.549 538.1 297.319 537.89C297.179 537.75 297.049 537.62 296.909 537.5C296.529 537.13 296.139 536.78 295.739 536.45C295.699 536.42 295.669 536.39 295.629 536.35C295.369 536.12 295.099 535.9 294.829 535.7C294.729 535.61 294.619 535.53 294.519 535.45C294.139 535.15 293.749 534.86 293.349 534.58C293.319 534.56 293.289 534.54 293.259 534.52C293.079 534.39 292.889 534.26 292.699 534.13C292.529 534.02 292.359 533.91 292.179 533.8C292.049 533.72 291.929 533.64 291.799 533.57C291.649 533.48 291.509 533.39 291.369 533.3C291.349 533.29 291.319 533.28 291.299 533.26C291.069 533.13 290.849 533 290.619 532.88C288.809 531.88 286.879 531.1 284.849 530.56C284.349 530.43 283.829 530.31 283.309 530.21C283.579 527.85 283.979 525.58 284.479 523.39C284.579 522.92 284.689 522.45 284.809 521.99C284.969 521.36 285.129 520.74 285.299 520.13C285.469 519.51 285.639 518.9 285.829 518.3C286.009 517.71 286.189 517.13 286.389 516.55C286.819 515.2 287.299 513.87 287.789 512.56C287.949 512.12 288.119 511.69 288.289 511.26C288.509 510.69 288.739 510.12 288.969 509.55C289.189 508.99 289.429 508.43 289.659 507.87C290.089 506.84 290.529 505.82 290.959 504.8C291.399 503.79 291.839 502.78 292.269 501.77C293.589 502.92 294.969 503.99 296.399 504.98C298.049 506.13 299.769 507.18 301.549 508.12C304.369 509.6 307.339 510.81 310.389 511.71C310.799 511.84 311.219 511.96 311.639 512.07C310.799 513.48 310.009 514.92 309.299 516.4Z" fill="#31556B"/>
<path d="M807.969 558.21C775.079 538.96 742.499 516.26 704.729 514.1C691.359 513.34 677.479 515.18 664.949 510.47C652.099 505.65 638.999 494.11 626.619 500.05C621.379 502.55 617.649 507.92 612.019 509.36C606.789 510.7 601.409 508.28 596.529 505.97C579.379 497.83 561.999 490.16 544.439 483C550.829 483.95 557.199 484.98 563.559 486.08C566.809 482.76 562.249 477.64 558.179 475.4C533.969 462.18 507.999 452.18 481.189 445.77C494.159 436.53 511.699 437.85 527.399 440.57C543.099 443.3 559.659 446.97 574.569 441.35L558.359 426.44C576.009 428.6 591.739 438.11 607.679 446C634.699 459.38 663.589 468.5 692.349 477.57C695.149 478.46 698.119 479.35 700.959 478.62C703.869 477.88 706.089 475.59 708.519 473.81C729.389 458.43 762.569 480.84 783.789 465.96C785.909 464.47 787.839 462.64 790.259 461.74C794.939 459.99 800.379 462.25 803.659 466.01C804.219 466.65 804.719 467.33 805.189 468.03C805.139 468.33 805.109 468.63 805.069 468.93C801.509 498.59 802.129 528.96 807.969 558.21Z" fill="#4E768F"/>
<path d="M339.179 404.91C338.879 413.49 337.629 422.04 335.439 430.35C332.779 440.42 328.789 450.08 325.269 459.87C319.189 476.8 314.499 494.18 310.389 511.71C310.019 513.27 309.659 514.84 309.299 516.4C307.169 525.68 305.179 535 303.199 544.31C303.159 544.5 303.119 544.68 303.079 544.87C302.889 544.59 302.689 544.3 302.499 544.02C302.359 543.83 302.219 543.63 302.079 543.44C301.779 543.02 301.469 542.61 301.159 542.2C300.839 541.79 300.519 541.39 300.189 540.99C299.839 540.57 299.479 540.15 299.109 539.75C298.739 539.34 298.369 538.95 297.989 538.56C297.769 538.33 297.549 538.1 297.319 537.89C297.179 537.75 297.049 537.63 296.909 537.5C296.529 537.14 296.139 536.79 295.739 536.45C295.699 536.42 295.669 536.39 295.629 536.35C295.369 536.12 295.099 535.9 294.829 535.7C294.729 535.61 294.619 535.53 294.519 535.45C294.139 535.15 293.749 534.86 293.349 534.58C293.319 534.56 293.289 534.54 293.259 534.52C293.079 534.39 292.889 534.26 292.699 534.13C292.529 534.02 292.349 533.91 292.179 533.81C292.049 533.72 291.919 533.64 291.799 533.57C291.649 533.48 291.509 533.39 291.369 533.3C291.349 533.29 291.319 533.28 291.299 533.26C291.069 533.13 290.849 533.01 290.619 532.88C288.809 531.88 286.879 531.1 284.849 530.56C284.349 530.43 283.829 530.31 283.309 530.21C283.579 527.85 283.979 525.58 284.479 523.39C284.579 522.92 284.689 522.45 284.809 521.99C284.969 521.36 285.129 520.74 285.299 520.13C285.469 519.51 285.639 518.9 285.829 518.3C286.009 517.71 286.189 517.13 286.389 516.55C286.819 515.2 287.299 513.87 287.789 512.56C287.949 512.12 288.119 511.69 288.289 511.26C288.509 510.69 288.739 510.12 288.969 509.55C289.189 508.99 289.429 508.43 289.659 507.87C290.089 506.84 290.529 505.82 290.959 504.8C291.399 503.79 291.839 502.78 292.269 501.77C292.529 501.17 292.779 500.57 293.039 499.97C304.299 473.74 312.439 446.18 317.249 418.04C318.239 412.24 319.089 406.42 319.799 400.58C322.819 402.37 325.979 403.58 329.199 404.29C332.489 405.01 335.839 405.2 339.179 404.91Z" fill="#263F4F"/>
<path d="M863.098 660.8C862.928 662.67 862.828 664.6 862.828 666.54C862.828 667.09 862.838 667.64 862.858 668.19C862.868 668.57 862.878 668.95 862.908 669.32C862.908 669.41 862.908 669.49 862.918 669.57C862.928 669.88 862.948 670.18 862.978 670.48C862.998 670.86 863.038 671.23 863.078 671.61C863.128 672.13 863.188 672.64 863.268 673.15C863.308 673.51 863.358 673.86 863.428 674.21C863.478 674.56 863.548 674.91 863.618 675.25C863.678 675.6 863.748 675.94 863.828 676.28C863.908 676.62 863.988 676.96 864.078 677.3C864.158 677.64 864.258 677.98 864.358 678.31C864.448 678.64 864.548 678.97 864.668 679.3C864.768 679.62 864.878 679.94 864.998 680.26C865.118 680.59 865.248 680.91 865.388 681.23C865.498 681.5 865.618 681.77 865.738 682.04C867.218 685.24 869.318 688.03 872.248 690.14C871.318 690.4 870.388 690.64 869.448 690.88C869.268 690.93 869.088 690.98 868.908 691.02C868.478 691.13 868.048 691.24 867.618 691.34C867.038 691.49 866.458 691.62 865.878 691.76C865.428 691.86 864.978 691.97 864.528 692.07C864.118 692.16 863.718 692.25 863.308 692.34C862.778 692.46 862.238 692.57 861.698 692.68L860.978 692.83C860.528 692.92 860.088 693.01 859.638 693.1C859.398 693.15 859.148 693.19 858.908 693.24C858.698 693.28 858.478 693.32 858.268 693.36C857.538 693.5 856.808 693.63 856.078 693.75C855.958 693.77 855.848 693.79 855.738 693.81C855.578 693.84 855.428 693.86 855.278 693.89C854.708 693.99 854.128 694.08 853.558 694.17C852.358 691.87 851.378 689.47 850.618 687.02C849.338 682.88 848.608 678.64 848.298 674.35C847.618 664.79 849.068 654.99 851.308 645.6C852.788 639.41 854.758 633.07 858.098 627.74C861.118 628.45 864.388 628.11 867.528 628.09H867.678C867.988 628.09 868.298 628.1 868.618 628.11C868.978 628.12 869.348 628.14 869.708 628.17C869.908 628.19 870.118 628.21 870.318 628.23C870.768 628.27 871.218 628.33 871.658 628.42C872.018 628.48 872.368 628.56 872.718 628.64C872.908 628.69 873.098 628.74 873.288 628.8C873.448 628.85 873.598 628.89 873.748 628.95C873.998 629.02 874.238 629.11 874.468 629.22C874.628 629.28 874.788 629.35 874.948 629.43C875.128 629.51 875.298 629.6 875.468 629.69C875.808 629.87 876.148 630.08 876.458 630.32C876.568 630.4 876.678 630.48 876.788 630.58C876.858 630.63 876.928 630.69 876.998 630.75C877.088 630.83 877.178 630.91 877.258 630.99C877.558 631.28 877.838 631.59 878.088 631.94C874.488 631.67 871.578 633.04 869.788 635.14C869.298 635.72 868.878 636.34 868.518 637C868.268 637.43 868.038 637.88 867.838 638.34C867.758 638.51 867.688 638.68 867.618 638.86C867.508 639.11 867.408 639.38 867.318 639.65C867.218 639.91 867.128 640.18 867.038 640.45C866.798 641.17 866.598 641.9 866.398 642.63C864.768 648.58 863.658 654.66 863.098 660.8Z" fill="#263F4F"/>
<path d="M910.08 411.69C1137.87 413.05 1350.07 531.74 1576.99 551.64C1598.36 553.51 1613.35 554.94 1631.15 542.96C1550.89 543.07 1478.82 530.21 1402.09 506.66C1363 494.66 1324.85 479.69 1285.59 468.25C1261.68 461.28 1237.41 455.64 1213.15 450C1167.72 439.44 1122.28 428.88 1076.85 418.32C1054.53 413.13 1032.16 407.94 1009.41 405.23C976.88 401.37 943.74 402.67 910.08 411.69Z" fill="#576975"/>
<path d="M1622.76 481.13C1622.3 482.76 1621.39 484.2 1620.2 485.38C1619.44 486.14 1618.56 486.79 1617.6 487.32C1614.58 488.96 1610.82 489.33 1607.71 487.78C1603.43 485.67 1600.95 480.92 1596.74 478.66C1586.09 472.94 1574.53 486.03 1562.46 486.3C1551.05 486.56 1542.34 475.45 1531.09 473.64C1525.1 472.67 1519.06 474.45 1513.08 475.39C1499.73 477.49 1486.12 475.46 1472.81 473.12C1429.72 465.55 1387.17 454.81 1345.64 441.02C1347.3 441.33 1348.96 441.61 1350.62 441.87C1379.72 449.16 1408.89 456.22 1438.12 463.01C1459.04 467.88 1480.85 472.63 1501.8 467.84C1509.3 466.12 1516.7 463.19 1524.37 463.6C1537.81 464.3 1549.92 475.11 1563.19 472.95C1573.48 471.28 1585.34 462.5 1592.63 469.95C1595.67 473.06 1596.62 478.38 1600.69 479.91C1606.09 481.95 1611.58 475.34 1617.19 476.22C1619.09 477.78 1620.95 479.42 1622.76 481.13Z" fill="#576975"/>
<path d="M1756.32 434.45C1756.33 435.21 1755.99 436.07 1755.26 436.29C1754.8 436.42 1754.31 436.26 1753.86 436.07C1752.45 435.48 1751.16 434.6 1750.09 433.51C1749.31 432.71 1748.32 431.71 1747.28 432.1C1746.1 432.55 1746.2 434.23 1745.62 435.34C1744.76 436.99 1742.49 437.19 1740.63 437.03C1738.77 436.87 1736.63 436.66 1735.31 437.99C1738.74 438.47 1742.02 440.01 1744.58 442.35C1741.54 444.17 1737.76 442.07 1734.71 440.27C1734.25 440 1733.77 439.73 1733.24 439.71C1732.09 439.66 1731.25 440.72 1730.42 441.51C1727.68 444.13 1723.55 444.47 1719.76 444.67C1722.85 444.51 1725.98 445.66 1728.22 447.78C1728.76 448.29 1729.28 449.03 1728.98 449.7C1728.74 450.23 1728.11 450.43 1727.54 450.5C1725.46 450.72 1723.45 449.8 1721.58 448.87C1719.71 447.94 1717.74 446.96 1715.65 447.07C1713.56 447.18 1711.4 448.85 1711.57 450.93C1713.81 451.55 1715.76 453.16 1716.81 455.23C1716.46 456.62 1714.53 456.98 1713.23 456.38C1711.94 455.78 1711.02 454.59 1709.89 453.73C1708.03 452.32 1705.53 451.81 1703.27 452.38C1704.37 453.59 1705.47 454.8 1706.57 456.01C1702.84 455.76 1699.08 456.09 1695.45 456.98C1697.36 458.22 1699.1 459.71 1700.63 461.4C1697.13 462.72 1693.78 459.46 1690.48 457.72C1687.99 456.4 1685.09 455.95 1682.31 456.36C1680.93 456.56 1679.59 456.97 1678.34 457.6C1678.33 457.6 1678.33 457.61 1678.32 457.61C1677.53 458.01 1676.71 458.6 1676.57 459.47C1676.28 461.37 1679.15 462.15 1679.88 463.92C1680.73 465.98 1678.39 467.89 1676.31 468.68C1670.7 470.8 1664.5 470.94 1658.54 470.17C1656.48 469.91 1654.36 469.51 1652.61 468.39C1651.43 467.63 1650.44 466.45 1650.02 465.14C1649.81 464.51 1649.73 463.84 1649.82 463.17C1649.9 462.58 1651.64 461.55 1653.28 461.42C1654.91 461.3 1656.51 461.89 1658.05 462.46C1658.42 462.6 1658.81 462.75 1659.14 462.98C1659.27 463.07 1659.4 463.17 1659.51 463.29C1659.89 463.7 1660.06 464.27 1660.32 464.77C1661.32 466.71 1663.71 467.6 1665.89 467.48C1668.07 467.35 1670.11 466.39 1672.08 465.46C1672.97 465.04 1673.94 464.53 1674.27 463.6C1674.63 462.6 1674.06 461.45 1673.19 460.83C1672.44 460.29 1671.51 460.06 1670.59 459.91C1670.58 459.91 1670.58 459.91 1670.58 459.91C1670.45 459.89 1670.32 459.87 1670.19 459.85C1662.64 458.77 1654.8 459.78 1647.77 462.74C1646.83 463.14 1645.85 463.58 1644.84 463.53C1643.82 463.48 1642.75 462.74 1642.72 461.72C1642.69 460.53 1643.96 459.78 1645.07 459.35C1649.86 457.51 1655.06 456.79 1660.16 457.26C1662.77 457.5 1665.43 458.05 1667.99 457.48C1669.35 457.17 1670.67 456.56 1672.07 456.55C1673.97 456.53 1675.77 457.64 1677.66 457.47C1679.41 457.31 1680.86 456.09 1682.37 455.18C1685.19 453.48 1688.58 452.78 1691.84 453.16C1692.93 453.29 1694.01 453.53 1695.05 453.9C1696.66 454.48 1698.94 455.09 1699.69 453.55C1700.13 452.64 1699.71 451.38 1699.64 450.35C1699.64 450.35 1699.64 450.35 1699.64 450.34C1699.59 449.67 1699.69 449.09 1700.3 448.8C1700.66 448.63 1701.08 448.66 1701.48 448.71C1702.08 448.78 1702.67 448.88 1703.26 448.97C1704.52 449.16 1705.78 449.36 1707.06 449.35C1708.93 449.32 1710.92 448.72 1712.07 447.24C1712.6 446.56 1712.91 445.75 1713.24 444.95C1713.45 444.41 1713.68 443.88 1713.98 443.38C1715.2 441.36 1717.56 440.26 1719.9 439.99C1721.34 439.82 1722.79 439.93 1724.22 440.13C1725.13 440.26 1726.03 440.43 1726.92 440.6C1728.21 439.89 1728.81 438.83 1729.24 437.78C1729.71 436.64 1729.99 435.49 1730.75 434.74C1732.15 433.35 1734.4 433.86 1736.38 434.08C1736.49 434.1 1736.59 434.11 1736.7 434.12C1738.68 434.31 1741.3 433.17 1741.03 431.3C1741.02 431.23 1741 431.15 1740.98 431.07C1740.78 430.3 1740.16 429.3 1740.84 428.88C1741.06 428.74 1741.33 428.75 1741.59 428.77C1742.54 428.83 1743.48 428.88 1744.43 428.94C1745.51 429 1746.59 429.07 1747.67 429.13C1749.54 429.24 1751.46 429.37 1753.16 430.16C1754.86 430.95 1756.31 432.57 1756.32 434.45Z" fill="#23282B"/>
<path d="M1627.03 509.58C1628.28 520.82 1629.54 532.06 1630.82 543.3C1621.69 542.49 1612.41 543.14 1603.48 545.23C1599.56 546.15 1595.68 547.35 1591.67 547.6C1587.62 547.86 1583.6 547.16 1579.61 546.47C1556.42 542.4 1533.24 538.33 1510.05 534.27C1489.54 530.67 1469.01 527.07 1448.67 522.57C1422.86 516.87 1397.37 509.75 1371.9 502.63C1309.05 485.06 1246.19 467.48 1183.34 449.92C1108.73 429.07 1032.98 408.04 955.5 408.22C972.1 396.86 991.32 395.1 1010.42 396.03C1040.48 397.52 1069.92 405.66 1099.98 407.13C1119.49 408.09 1139.18 406.24 1158.47 409.33C1181.57 413.04 1202.88 423.63 1224.4 432.83C1280.76 456.94 1340.91 472.16 1401.97 477.79C1427.13 480.11 1454.27 481.47 1473.98 497.29C1479.31 501.57 1484.68 507.11 1491.52 507.01C1494.82 506.96 1497.93 505.55 1500.92 504.14C1512.51 498.71 1525.58 492.99 1537.65 497.23C1553.15 502.67 1561.05 522.72 1577.28 525.23C1594.75 527.94 1609.59 508.28 1627.03 509.58Z" fill="#3A474F"/>
<path d="M1641.28 544.3C1641.14 544.46 1641 544.62 1640.85 544.78C1639.84 544.57 1638.84 544.38 1637.82 544.21C1638.96 544.08 1640.11 544.11 1641.28 544.3Z" stroke="#3A474F" stroke-miterlimit="10"/>
<path d="M1803.87 525.31C1802.92 523.84 1801.39 522.88 1800.09 521.7C1796.62 518.56 1794.83 513.81 1794.78 509.12C1794.76 506.81 1795.11 504.4 1794.21 502.29C1793.86 501.46 1793.23 500.73 1792.47 500.23C1791.27 499.42 1789.78 499.19 1788.67 500.07C1788.42 501.53 1789.09 502.95 1789.38 504.39C1789.4 504.5 1789.42 504.62 1789.44 504.74C1789.62 506.11 1789.28 507.71 1788.03 508.23C1787.66 508.39 1787.26 508.42 1786.85 508.42C1786.2 508.41 1785.53 508.29 1784.9 508.4C1782.82 508.79 1781.79 511.39 1779.75 511.94C1779.4 512.03 1779.02 512.05 1778.68 511.9C1777.58 511.38 1778.12 509.75 1778.2 508.52C1778.23 507.93 1778.09 507.34 1777.81 506.82C1777.27 505.81 1776.25 505.04 1775.11 504.94C1774.88 506.2 1774.64 507.45 1774.4 508.7C1774.21 509.74 1774.01 510.78 1773.81 511.82C1773.7 512.4 1773.58 513 1773.24 513.49C1772.77 514.15 1771.98 514.46 1771.24 514.76C1768.51 515.81 1765.8 516.87 1763.09 517.93C1763.11 516.74 1763.12 515.52 1762.65 514.44C1762.64 514.41 1762.62 514.38 1762.61 514.35C1762.09 513.25 1760.88 512.37 1759.7 512.64C1758.16 513 1757.61 514.9 1757.61 516.47V516.61C1757.62 518.14 1757.81 519.82 1756.85 521.02C1754.96 523.43 1750.54 521.62 1748.33 523.75C1747.69 522.9 1747.84 521.6 1747.84 520.47C1747.83 519.49 1747.7 518.64 1746.83 518.35C1745.87 518.02 1744.9 518.91 1744.56 519.86C1744.33 520.49 1744.27 521.18 1744.15 521.84C1744.09 522.17 1744.01 522.5 1743.89 522.81C1742.94 525.32 1739.81 526.04 1737.15 526.4C1734.88 526.72 1732.6 527.04 1730.32 527.34C1730.41 527.05 1730.53 526.78 1730.69 526.55C1731.71 524.99 1734.08 524.53 1736.06 524.3C1738.35 524.03 1741.17 523.13 1741.41 520.84C1731.43 521.16 1721.54 524.08 1712.97 529.21C1712.06 529.75 1710.88 530.31 1710.03 529.68C1709.59 529.34 1709.4 528.78 1709.22 528.26C1708.36 526.01 1706.78 524.03 1704.77 522.72C1696.53 523.74 1688.29 524.76 1680.06 525.78C1678.28 526 1676.15 526.5 1675.61 528.21C1682.07 530.72 1688.94 532.15 1695.86 532.4C1698 532.49 1700.2 532.47 1702.21 533.21C1702.5 533.32 1702.79 533.44 1703.07 533.59C1704.7 534.43 1705.98 535.79 1705.54 536.67C1702.67 538.18 1700.25 540.55 1698.68 543.39C1697.37 545.75 1696.55 548.53 1694.37 550.12C1693.11 551.05 1691.52 551.45 1690.22 552.32C1688.32 553.59 1687.16 555.88 1687.25 558.16C1687.3 559.22 1687.61 560.31 1688.36 561.08C1689.38 562.12 1690.96 562.36 1692.41 562.53C1697.11 563.11 1701.82 563.67 1706.53 564.24C1709.24 564.57 1712.13 564.87 1714.57 563.64C1717.01 562.42 1718.54 559.02 1716.88 556.86C1718 556.98 1718.78 558 1719.56 558.83C1720.33 559.66 1721.54 560.4 1722.54 559.84C1723.92 559.05 1723.16 556.93 1722.23 555.62C1720.03 552.49 1717.85 549.35 1715.65 546.21C1718.58 546.36 1722.02 546.79 1723.5 549.33C1723.89 550.03 1724.12 550.83 1724.62 551.46C1725.11 552.08 1726.07 552.47 1726.72 552.01C1727.79 551.22 1726.88 549.18 1727.92 548.36C1728.27 548.08 1728.75 548.04 1729.19 548.02C1731.19 547.9 1733.23 547.78 1735.17 548.28C1737.11 548.76 1738.97 549.95 1739.78 551.78C1739.97 552.22 1740.1 552.71 1740.26 553.17C1740.48 553.85 1740.74 554.5 1741.29 554.94C1742.26 555.73 1743.81 555.46 1744.67 554.55C1745.51 553.63 1745.72 552.25 1745.47 551.04C1745.39 550.7 1745.29 550.31 1745.39 549.99C1745.4 549.93 1745.41 549.88 1745.44 549.83C1745.58 549.54 1745.88 549.36 1746.19 549.26C1746.33 549.22 1746.48 549.18 1746.62 549.16H1746.63C1747.77 548.99 1748.94 549.52 1750.1 549.76C1751.41 550.04 1753.17 549.61 1753.33 548.29C1753.43 547.43 1752.76 546.66 1751.98 546.33C1751.66 546.2 1751.32 546.12 1750.98 546.07C1750.48 546 1749.97 545.99 1749.47 545.97C1747.52 545.9 1745.58 545.61 1743.7 545.09C1740.07 544.11 1736.71 542.36 1733.39 540.62C1732.49 540.15 1731.59 539.67 1730.85 538.98C1729.91 538.08 1729.3 536.85 1728.99 535.57C1728.56 533.78 1728.77 531.71 1730.03 530.39C1731.65 528.7 1734.37 528.73 1736.62 529.4C1742.43 531.12 1746.7 535.97 1750.63 540.6C1751.61 541.76 1752.6 542.92 1753.59 544.08C1755.71 546.58 1757.83 549.09 1759.95 551.59C1760.53 552.25 1761.34 552.98 1762.14 552.64C1762.48 552.5 1762.71 552.19 1762.88 551.87C1763.86 549.8 1762.13 547.52 1760.51 545.89C1759.17 544.52 1757.82 543.15 1756.39 541.83C1755.28 540.8 1754.12 539.81 1752.87 538.87C1751.85 536.83 1749.81 535.48 1748.39 533.68C1746.97 531.88 1746.34 528.93 1748.13 527.49C1749.37 526.47 1751.17 526.7 1752.75 526.97C1754 527.19 1755.29 527.41 1756.36 528.1C1758.2 529.28 1759.01 531.63 1758.92 533.82C1758.84 536.01 1758 538.09 1757.18 540.12C1757.46 540.26 1757.76 540.37 1758.06 540.43C1760.85 541.04 1764.12 538.3 1763.65 535.39C1763.65 535.34 1763.64 535.29 1763.63 535.24C1763.69 535.24 1763.74 535.24 1763.8 535.25C1766.84 535.4 1769.22 537.95 1770.98 540.46C1772.78 543.02 1774.53 545.9 1777.4 547.11C1779.06 546.07 1779.29 543.61 1778.41 541.87C1777.54 540.11 1775.87 538.92 1774.25 537.83C1771.69 536.11 1769.04 534.44 1766.82 532.3C1766.36 531.88 1765.93 531.42 1765.51 530.94C1763.06 528.12 1761.48 524.28 1762.34 520.65C1765.96 519.47 1770.23 520.49 1772.92 523.2C1773.34 523.62 1773.72 524.09 1774.05 524.58C1775.87 527.23 1776.42 530.75 1775.39 533.8C1777.96 534.39 1780.56 531.35 1779.57 528.91C1781.33 528.11 1783.45 528.79 1784.99 529.95C1786.54 531.12 1787.68 532.71 1789.06 534.07C1790.13 535.12 1791.44 536.07 1792.94 536.11C1794.43 536.15 1796.02 534.91 1795.84 533.42C1792.85 531.41 1789.88 529.4 1786.91 527.4C1783.64 525.19 1780.1 522.54 1778.75 519.02C1778.45 518.24 1778.26 517.41 1778.2 516.53C1778.15 515.74 1778.25 514.86 1778.81 514.29C1779.51 513.55 1780.68 513.57 1781.7 513.69C1782.08 513.74 1782.45 513.79 1782.83 513.85C1784.52 514.12 1786.18 514.56 1787.63 515.46C1789.39 516.55 1790.79 518.4 1790.88 520.49C1790.94 521.86 1790.42 523.18 1790.3 524.55C1790.17 525.91 1790.62 527.52 1791.89 528.03C1793.09 528.52 1794.5 527.76 1795.17 526.66C1795.85 525.57 1795.96 524.23 1796.02 522.94C1796.05 522.42 1796.07 521.86 1796.4 521.46C1797.39 520.23 1799.24 521.78 1799.98 523.19C1801.18 525.48 1802.4 527.77 1803.6 530.07C1804.98 528.99 1804.83 526.77 1803.87 525.31ZM1692.62 528.58C1691.74 528.39 1690.83 528.17 1690.17 527.56C1689.52 526.94 1689.27 525.81 1689.91 525.16C1690.72 524.33 1692.09 524.97 1693.26 525.07C1694.51 525.18 1695.71 524.6 1696.96 524.46C1697.95 524.33 1698.97 524.5 1699.96 524.66C1701.44 524.9 1702.91 525.13 1704.39 525.36C1704.7 525.41 1705.03 525.47 1705.25 525.69C1705.5 525.91 1705.57 526.28 1705.64 526.62C1705.84 527.81 1706.05 529 1706.26 530.18C1706.39 530.92 1706.16 531.25 1706.01 531.57C1701.54 530.58 1697.08 529.57 1692.62 528.58ZM1712.54 560.09C1711.56 561.29 1709.93 561.81 1708.37 561.95C1705.73 562.18 1703.06 561.54 1700.61 560.52C1700.19 560.35 1699.77 560.15 1699.45 559.82C1699.17 559.52 1699.01 559.12 1698.86 558.71C1697.81 555.59 1698.29 552.04 1699.81 549.11C1701.32 546.18 1703.81 543.82 1706.63 542.09C1708.92 545.47 1710.42 548.6 1711.93 551.74C1712.56 553.07 1713.2 554.43 1713.45 555.88C1713.7 557.34 1713.47 558.94 1712.54 560.09ZM1726.01 529.42C1725.95 533.35 1725.91 537.28 1725.85 541.2C1725.84 541.47 1725.82 541.77 1725.63 541.95C1725.48 542.07 1725.31 542.1 1725.15 542.12C1721.58 542.74 1717.93 542.8 1714.36 542.3C1713.31 542.16 1712.19 541.93 1711.47 541.14C1710.63 540.23 1710.6 538.8 1710.99 537.63C1711.39 536.46 1712.15 535.45 1712.78 534.38C1712.79 534.94 1713.99 533.52 1715.41 532.35C1716.16 531.73 1716.96 531.18 1717.79 530.7C1719.58 529.64 1721.53 528.83 1723.46 528.03C1724.2 527.73 1725.17 527.47 1725.7 528.07C1725.74 528.11 1725.77 528.16 1725.79 528.2C1726.01 528.55 1726.02 529.01 1726.01 529.42Z" fill="#23282B"/>
<path opacity="0.2196" d="M1873.8 524.78C1871.58 543.96 1861.37 561.32 1849.63 576.66C1824.48 609.54 1791.78 635.73 1759.43 661.56C1754.68 665.35 1749.85 669.2 1744.23 671.55C1730.27 677.42 1714.35 673.13 1699.84 668.79C1692.46 666.58 1684.89 664.29 1678.77 659.6C1672.94 655.14 1668.79 648.78 1663.04 644.21C1657.29 639.64 1648.57 637.24 1642.77 641.73C1642.74 641.41 1642.72 641.1 1642.7 640.78C1635.02 646.43 1622.35 646.21 1620.43 637.05C1617.19 651.94 1602.05 661.7 1586.98 664.04C1571.93 666.38 1556.67 662.98 1541.61 660.63C1510.5 655.76 1478.7 655.35 1447.47 659.41C1434.25 661.13 1420.95 663.66 1407.67 662.37C1387.29 660.39 1368.88 649.67 1349.12 644.31C1322.74 637.17 1293.58 639.47 1269.41 626.7C1259.79 621.61 1250.51 614.05 1239.64 614.44C1231.66 614.72 1224.07 619.38 1216.14 618.44C1210.48 617.76 1205.59 614.35 1200.36 612.09C1190.17 607.68 1178.69 607.73 1167.59 607.86C1103.54 608.55 1039.51 609.24 975.47 609.93C976.41 607.58 977.34 605.23 978.27 602.89C963.67 593.38 945.95 603.91 929.03 610.43C928.51 610.44 927.98 610.44 927.46 610.45C886.86 610.9 844.34 610.88 808 593.29C807.99 593.28 807.99 593.28 807.98 593.28C807.57 593.12 807.16 592.96 806.76 592.8C798.05 589.39 790.26 585.91 782.48 582.44C782.35 582.38 782.22 582.32 782.09 582.26C772.42 577.95 762.64 573.6 752.23 571.64C744.02 570.11 735.53 570.1 727.51 567.82C710.88 563.08 697.15 548.9 679.87 548.39C673.75 548.21 667.75 549.81 661.78 551.14C646.21 554.62 630.26 556.33 614.3 556.25C615.25 556.62 616.21 556.95 617.17 557.27C641.86 565.54 669.29 561.32 694.92 566.59C716.22 570.98 735.89 581.84 757.4 584.97C770.82 590.5 784.14 596.55 797.46 602.59C799.65 603.6 801.92 604.6 804.33 604.69C806.77 604.76 809.12 603.86 811.54 603.48C821.93 601.84 831.4 609.85 837.33 618.56C840.32 616.4 844.58 617.88 847.44 620.18C850.3 622.47 852.63 625.56 855.99 627.05C856.68 627.35 857.38 627.57 858.1 627.74C861.12 628.45 864.39 628.11 867.53 628.09H867.68C867.99 628.09 868.3 628.1 868.62 628.11C868.98 628.12 869.35 628.14 869.71 628.17C857.03 639.14 852.22 658.04 854.42 675C854.51 675.73 854.62 676.46 854.74 677.19C855.61 682.67 857.06 688.02 858.91 693.24C858.7 693.28 858.48 693.32 858.27 693.36C857.54 693.5 856.81 693.63 856.08 693.75C855.96 693.77 855.85 693.79 855.74 693.81C855.58 693.84 855.43 693.86 855.28 693.89C854.71 693.99 854.13 694.08 853.56 694.17C853.51 694.19 853.46 694.19 853.41 694.19C852.92 694.27 852.42 694.35 851.93 694.42C851.32 694.52 850.72 694.61 850.11 694.68C849.01 694.83 847.92 694.97 846.82 695.1C846.56 695.14 846.31 695.17 846.05 695.19C845.53 695.26 845.02 695.31 844.5 695.36C844.15 695.4 843.79 695.44 843.44 695.47C842.1 695.61 840.75 695.73 839.4 695.82C838.8 695.87 838.19 695.91 837.58 695.95C837.52 695.96 837.46 695.96 837.4 695.96C836.85 696 836.29 696.03 835.73 696.06C835.35 696.09 834.96 696.11 834.57 696.11C833.81 696.16 833.05 696.19 832.28 696.21C832.28 696.21 832.27 696.21 832.26 696.21C831.45 696.24 830.63 696.26 829.81 696.28H829.67C828.61 696.3 827.54 696.31 826.48 696.31C818.89 696.31 811.3 695.81 803.78 694.8C800.96 694.42 798.16 693.97 795.36 693.45C790.7 692.58 786.08 691.51 781.52 690.24C771.67 687.49 762.09 683.86 752.34 680.78C742.87 677.8 733.22 675.36 723.59 672.94C672.56 660.07 620.71 647.11 568.13 648.98C555.31 649.43 542.47 650.77 529.68 649.73C514.83 648.5 500.44 644.09 485.77 641.49C455.75 636.18 424.83 638.52 394.72 633.74C364.63 628.97 333.36 614.86 319.98 587.49C319.97 587.48 319.97 587.47 319.96 587.47C314.75 576.8 312.63 564.86 307.96 553.95C306.67 550.9 305.08 547.88 303.22 545.07C303.18 545 303.13 544.94 303.08 544.87C302.89 544.59 302.69 544.3 302.5 544.02C302.36 543.83 302.22 543.63 302.08 543.44C301.78 543.02 301.47 542.61 301.16 542.2C300.84 541.79 300.52 541.39 300.19 540.99C299.84 540.57 299.48 540.15 299.11 539.75C298.75 539.34 298.37 538.94 297.99 538.56C297.77 538.33 297.55 538.1 297.32 537.89C297.18 537.75 297.05 537.63 296.91 537.5C296.53 537.14 296.14 536.79 295.74 536.45C295.7 536.42 295.67 536.39 295.63 536.35C295.37 536.12 295.1 535.9 294.83 535.7C294.73 535.61 294.62 535.53 294.52 535.45C294.14 535.15 293.75 534.86 293.35 534.58C293.32 534.56 293.29 534.54 293.26 534.52C293.08 534.39 292.89 534.26 292.7 534.13C292.53 534.02 292.35 533.91 292.18 533.81C292.18 533.81 292.18 533.81 292.18 533.8C295.51 525.56 298.61 516.97 301.55 508.12C309.38 484.51 315.99 459.03 322.26 433.24V433.23C323.37 428.67 324.47 424.09 325.56 419.51C326.78 414.44 327.99 409.36 329.2 404.29C332.49 405.01 335.84 405.2 339.18 404.91C341.96 404.66 344.74 404.1 347.45 403.24C356.82 400.25 364.75 394.04 372.43 387.91C411.13 357.01 449.71 324.93 494.68 304.19C513.4 292.05 538.14 304.86 560.69 304.52C576.72 304.29 592.5 297.14 608.35 299.62C619.46 301.36 629.25 307.66 639.74 311.67C684.55 328.84 740.67 304.62 780.27 331.7C784.15 334.36 787.91 337.53 792.49 338.59C794.69 339.1 796.94 339.1 799.2 338.94C799.74 338.54 800.28 338.15 800.82 337.77C801.01 338.09 801.18 338.42 801.34 338.76C802.07 338.69 802.8 338.61 803.53 338.55C817.01 337.32 830.75 339.15 843.44 343.87C842.85 345.09 842.27 346.32 841.69 347.55C845.17 346.79 848.73 346.26 852.32 345.86C858.51 345.18 864.81 344.92 870.94 344.73C913.78 343.43 956.85 342.73 999.29 348.77C1042.26 354.88 1083.92 367.83 1125.53 380.21C1200.09 402.4 1275.15 422.97 1350.62 441.87C1379.72 449.16 1408.89 456.22 1438.12 463.01C1459.04 467.88 1480.85 472.63 1501.8 467.84C1509.3 466.12 1516.7 463.19 1524.37 463.6C1537.81 464.3 1549.92 475.11 1563.19 472.95C1573.48 471.28 1585.34 462.5 1592.63 469.95C1595.67 473.06 1596.62 478.38 1600.69 479.91C1606.09 481.95 1611.58 475.34 1617.19 476.22C1617.36 476.23 1617.52 476.26 1617.68 476.3C1621.22 477.13 1622.99 480.54 1623.91 484.25C1626.62 483.3 1629.24 482.09 1631.72 480.64C1631.4 479.36 1630.75 478.21 1629.86 477.25C1628.14 475.38 1625.56 474.28 1623.02 474.56C1623.87 470.66 1628.62 469.32 1632.54 468.63C1638.39 467.61 1644.22 466.45 1650.02 465.14C1649.81 464.51 1649.73 463.84 1649.82 463.17C1649.9 462.58 1651.64 461.55 1653.28 461.42C1654.91 461.3 1656.51 461.89 1658.05 462.46C1658.42 462.6 1658.81 462.75 1659.14 462.98C1662.97 462.01 1666.79 460.99 1670.58 459.91C1670.45 459.89 1670.32 459.87 1670.19 459.85C1662.64 458.77 1654.8 459.78 1647.77 462.74C1646.83 463.14 1645.85 463.58 1644.84 463.53C1643.82 463.48 1642.75 462.74 1642.72 461.72C1642.69 460.53 1643.96 459.78 1645.07 459.35C1649.86 457.51 1655.06 456.79 1660.16 457.26C1662.77 457.5 1665.43 458.05 1667.99 457.48C1669.35 457.17 1670.67 456.56 1672.07 456.55C1673.97 456.53 1675.77 457.64 1677.66 457.47C1679.41 457.31 1680.86 456.09 1682.37 455.18C1685.19 453.48 1688.58 452.78 1691.84 453.16C1694.45 452.26 1697.05 451.32 1699.64 450.35C1699.64 450.35 1699.64 450.35 1699.64 450.34C1699.59 449.67 1699.69 449.09 1700.3 448.8C1700.66 448.63 1701.08 448.66 1701.48 448.71C1702.08 448.78 1702.67 448.88 1703.26 448.97C1706.61 447.67 1709.93 446.33 1713.24 444.95C1713.45 444.41 1713.68 443.88 1713.98 443.38C1715.2 441.36 1717.56 440.26 1719.9 439.99C1721.34 439.82 1722.79 439.93 1724.22 440.13C1725.18 439.68 1726.14 439.24 1727.1 438.79C1727.81 438.46 1728.53 438.12 1729.24 437.78C1729.71 436.64 1729.99 435.49 1730.75 434.74C1732.15 433.35 1734.4 433.86 1736.38 434.08C1737.97 433.21 1739.52 432.28 1741.03 431.3C1741.02 431.23 1741 431.15 1740.98 431.07C1740.78 430.3 1740.16 429.3 1740.84 428.88C1741.06 428.74 1741.33 428.75 1741.59 428.77C1742.54 428.83 1743.48 428.88 1744.43 428.94C1748.61 425.82 1752.31 422.19 1755.08 417.76C1759.24 411.09 1760.99 403.15 1765.11 396.46C1773.51 382.84 1792.17 376.6 1807.08 382.46C1810.41 383.77 1813.63 385.69 1815.74 388.58C1817.63 391.15 1818.5 394.31 1819.18 397.42C1823.25 416.14 1821.2 435.21 1815.41 453.52C1811.03 467.38 1804.5 480.81 1796.87 493.31C1801.63 489.06 1805.94 484.32 1809.67 478.98C1812.3 475.22 1814.72 471.11 1817.44 467.34C1820 463.76 1822.84 460.51 1826.37 458.18C1827.46 457.46 1828.61 456.83 1829.85 456.3C1837.95 452.84 1847.23 454.95 1855.78 457.12C1858.33 457.77 1860.97 458.46 1862.98 460.16C1864.75 461.63 1865.85 463.74 1866.76 465.84C1870.47 474.4 1871.61 483.8 1872.63 493.08C1872.63 493.08 1872.63 493.08 1872.63 493.09C1872.68 493.47 1872.72 493.84 1872.76 494.22C1873.87 504.37 1874.98 514.63 1873.8 524.78Z" fill="#1390D4"/>
<path opacity="0.2392" d="M370.51 673.68C355.88 677.87 339.94 674.99 325.29 679.13C310.64 683.27 297.37 700.38 305.8 713.05C311.29 721.3 322.61 722.71 332.5 723.34C347.74 724.31 362.98 725.28 378.22 726.25C385.32 726.7 392.75 727.25 398.79 731.01C414.31 740.67 412.27 764.86 424.66 778.3C436.54 791.18 456.88 789.88 474.25 787.59C515.98 782.07 563.22 773.15 585.36 737.35C587.12 734.51 588.72 731.25 588.12 727.97C587.49 724.58 584.68 722.07 581.91 720.02C565.25 707.66 543.86 701.85 523.23 704.09C510.66 705.45 498.35 709.67 485.72 709.12C463.1 708.14 444.31 692.47 424.79 681C405.26 669.53 378.5 662.57 370.51 673.68Z" fill="#027DCF"/>
<path opacity="0.2392" d="M762.15 762.67C783.39 762.35 802.22 748.55 822.6 742.55C827.6 741.08 832.93 739.64 837.95 741.04C843.31 742.53 847.26 746.93 851.65 750.34C870.76 765.18 898.19 761.27 921.21 753.8C929.42 751.13 937.68 748.08 946.31 747.76C955.07 747.43 963.68 749.94 971.96 752.82C991.66 759.67 1013.71 773.66 1012.44 794.48C1011.38 811.77 993.25 823.89 975.96 824.89C958.66 825.89 942.07 818.83 925.89 812.64C909.71 806.44 892.14 800.92 875.31 805.02C852.89 810.49 835.29 832.28 812.22 831.53C805.48 831.31 798.99 829.1 792.61 826.92C767.74 818.4 742.86 809.89 717.99 801.37C710.63 798.85 702.98 796.15 697.52 790.61C692.06 785.06 689.58 775.75 694.06 769.39C697.07 765.12 702.35 763.16 707.38 761.72C723.52 757.09 739.29 763.01 762.15 762.67Z" fill="#027DCF"/>
<path opacity="0.2392" d="M1168.46 692.91C1187.2 629.31 1299.59 677.33 1365.65 683.09C1396.58 685.79 1427.83 688.55 1457.38 698.07C1472.83 703.05 1487.88 709.88 1503.99 711.85C1537.63 715.96 1571.38 698.4 1604.83 703.78C1620.72 706.33 1635.9 714.01 1651.97 713.32C1666.82 712.68 1680.3 705.01 1694.06 699.4C1724.68 686.92 1768.39 668.44 1791.37 692.22C1804.67 705.98 1771.01 721.78 1752.12 724.8C1658.52 739.75 1563.25 744.24 1468.66 738.17C1426.71 735.48 1384.66 730.67 1344.28 719.01C1322.55 712.73 1300.36 704.39 1277.96 707.55C1258.05 710.36 1240.47 721.98 1220.98 726.91C1201.49 731.85 1167.64 727.61 1169.72 707.61C1170.18 703.26 1165.87 701.69 1168.46 692.91Z" fill="#027DCF"/>
<path opacity="0.2392" d="M143.469 671.11C129.579 661.84 107.799 662.07 101.189 646.74C96.4193 635.68 103.839 622.25 114.599 616.84C125.359 611.43 138.189 612.27 149.969 614.74C155.659 615.93 161.519 617.47 167.219 616.29C176.459 614.37 182.699 605.95 190.709 600.96C200.899 594.6 213.879 594.03 225.569 596.78C237.269 599.53 247.999 605.28 258.579 610.97C264.219 614 270.109 617.27 273.439 622.74C279.949 633.42 271.299 649.68 258.799 650.25C249.199 650.69 239.999 643.54 230.619 645.66C219.519 648.16 215.369 661.34 208.599 670.48C201.269 680.37 189.019 686.4 176.719 686.18C164.419 685.96 153.639 677.9 143.469 671.11Z" fill="#027DCF"/>
<path opacity="0.2392" d="M223.57 383.97C217.54 388.5 210.99 393.96 210.39 401.47C210.16 404.4 210.89 407.31 211.4 410.21C212.64 417.35 212.47 424.73 210.9 431.8C209.6 437.63 207.36 443.3 207.05 449.26C206.72 455.67 208.62 462.31 206.58 468.4C206.38 469.01 206.13 469.66 206.32 470.27C206.79 471.79 209.11 471.41 210.37 470.44C216.1 466.01 216.02 457.5 215.42 450.29C215.09 446.32 214.75 442.35 214.42 438.38C214.13 434.92 213.85 431.37 214.83 428.04C215.67 425.19 217.4 422.66 218.29 419.82C220.57 412.56 217.13 404.36 219.69 397.19C221.32 392.54 225.43 387.93 223.57 383.97Z" fill="#027DCF"/>
<path opacity="0.2392" d="M159.4 562.12C170.84 563.96 181.94 559.59 193.51 558.78C200.2 558.31 206.71 556.29 213.41 555.92C219.88 555.57 226.33 556.77 232.7 557.97C237.41 558.86 242.37 559.86 245.98 563.01C249.6 566.16 251.14 572.22 247.92 575.77C246.5 577.33 244.46 578.14 242.49 578.87C229.85 583.57 216.88 587.36 203.7 590.19C200.07 590.97 196.34 591.68 192.65 591.24C189.34 590.85 186.18 589.53 182.86 589.2C178.27 588.74 173.73 590.18 169.27 591.39C159.99 593.92 150.46 595.52 140.87 596.17C131.91 596.78 122.27 596.37 114.92 591.21C107.88 586.26 104.15 577.65 103.07 569.12C102.27 562.79 103.04 555.64 107.72 551.31C114.03 545.47 124 547.38 132.29 549.65C143.05 552.6 151.1 560.78 159.4 562.12Z" fill="#027DCF"/>
<path opacity="0.2392" d="M210.23 498.43C209.2 501.87 208.17 505.35 208.04 508.94C207.91 512.53 208.78 516.29 211.16 518.97C211.48 519.33 211.9 519.7 212.38 519.67C212.75 519.64 213.06 519.38 213.3 519.1C214.84 517.32 214.67 514.66 214.31 512.33C213.6 507.68 212.52 503.09 210.23 498.43Z" fill="#027DCF"/>
<path opacity="0.2392" d="M200.91 536.12C199.49 540.97 199.19 546.14 200.03 551.12C200.17 551.93 200.36 552.78 200.91 553.39C201.47 554 202.51 554.24 203.11 553.69C203.53 553.31 203.62 552.7 203.68 552.14C204.27 546.71 203.97 541.19 200.91 536.12Z" fill="#027DCF"/>
</g>
<defs>
<clipPath id="clip0_101_2195">
<rect width="2000" height="1040" fill="white"/>
</clipPath>
</defs>
</svg>
