<svg width="2000" height="1040" viewBox="0 0 2000 1040" fill="none" xmlns="http://www.w3.org/2000/svg">
<g clip-path="url(#clip0_101_300)">
<path d="M2000 0H0V1040H2000V0Z" fill="#9BAFBD"/>
<path d="M110.049 527.29C135.389 555.06 176.669 567.14 212.989 557.41C230.379 552.75 247.799 543.46 265.369 547.39C290.229 552.95 301.509 580.89 317.659 600.59C350.419 640.54 407.419 648.38 458.779 653.95C616.809 671.09 774.239 693.82 930.669 722.09C967.779 728.8 1006.56 735.74 1042.63 724.76C1004.69 708.43 962.129 707.99 921.379 701.25C880.629 694.51 837.499 678.52 816.739 642.81C812.539 635.58 810.609 624.17 818.209 620.68C820.519 619.62 823.169 619.68 825.709 619.76C958.249 623.97 1090.79 628.17 1232.58 635.99C1346.18 671.12 1467.06 672.55 1585.96 673.68C1634.06 674.14 1682.16 674.6 1730.26 675.06C1786.76 675.6 1846.3 675.39 1895.37 647.37C1874.24 633.66 1853.1 619.95 1831.97 606.24C1853.87 594.15 1879.39 573.53 1871.31 549.86C1862.2 523.2 1824.32 527.02 1796.28 529.79C1773.45 532.05 1750.43 529.98 1727.58 527.9C1495.24 506.67 1263.08 482.9 1031.97 451.02C782.589 416.62 523.679 373.44 283.379 448.47C225.819 466.44 170.329 491.03 118.349 521.58C114.249 523.98 110.009 526.59 110.049 527.29Z" fill="#728694"/>
<path d="M1873.8 546.809C1871.58 565.989 1861.37 583.349 1849.62 598.689C1824.47 631.569 1791.77 657.749 1759.42 683.589C1754.67 687.379 1749.84 691.229 1744.23 693.579C1730.27 699.449 1714.35 695.159 1699.83 690.819C1692.45 688.609 1684.88 686.319 1678.77 681.629C1672.93 677.169 1668.79 670.809 1663.04 666.239C1657.29 661.679 1648.57 659.269 1642.77 663.759C1640.64 636.859 1641.28 609.759 1647.47 585.879C1648.5 581.879 1649.69 577.989 1651.05 574.179C1654.62 573.739 1658.18 573.289 1661.76 572.829C1658.09 572.749 1655.8 568.259 1656.68 564.689C1657.57 561.129 1660.55 558.509 1663.57 556.419C1666.77 554.199 1670.32 552.269 1674.19 551.839C1679.66 551.229 1684.95 553.689 1690.32 554.879C1703.02 557.709 1716.11 553.499 1728.44 549.339C1758.83 539.069 1791.29 527.299 1809.67 501.009C1812.3 497.259 1814.72 493.139 1817.44 489.369C1820 485.789 1822.84 482.539 1826.38 480.209C1827.47 479.479 1828.61 478.849 1829.85 478.329C1837.96 474.869 1847.23 476.979 1855.78 479.149C1858.33 479.799 1860.97 480.499 1862.98 482.189C1864.75 483.659 1865.85 485.769 1866.76 487.869C1870.47 496.429 1871.61 505.819 1872.63 515.109C1872.63 515.109 1872.63 515.109 1872.63 515.119C1872.68 515.489 1872.72 515.869 1872.76 516.239C1873.87 526.399 1874.98 536.659 1873.8 546.809Z" fill="#23282B"/>
<path d="M1815.41 475.549C1810.1 492.359 1801.63 508.519 1791.88 523.159C1777.41 544.889 1759.47 565.029 1736.45 577.339C1726.31 582.759 1715.33 586.569 1704.02 588.589C1696.48 589.939 1688.64 590.479 1681.21 588.609C1670.47 585.909 1661.3 578.359 1650.4 576.469C1640.11 574.679 1626.54 576.629 1622.03 567.219C1620.84 564.729 1620.64 561.899 1620.46 559.149C1619.38 541.889 1618.31 524.619 1617.52 508.029C1622.51 507.059 1627.33 505.229 1631.71 502.669C1631.39 501.399 1630.74 500.239 1629.85 499.279C1628.13 497.409 1625.55 496.309 1623.01 496.589C1623.86 492.699 1628.61 491.349 1632.53 490.659C1665.19 484.949 1697.08 474.879 1727.09 460.819C1737.8 455.789 1748.79 449.809 1755.07 439.789C1759.23 433.119 1760.99 425.179 1765.11 418.489C1773.51 404.859 1792.17 398.629 1807.07 404.489C1810.4 405.799 1813.62 407.719 1815.74 410.609C1817.62 413.179 1818.5 416.339 1819.18 419.449C1823.25 438.169 1821.2 457.239 1815.41 475.549Z" fill="#23282B"/>
<path d="M170.09 393.608C177.26 387.008 185.06 381.088 193.35 375.948C193.9 376.908 193.49 378.178 192.73 378.978C191.97 379.778 190.92 380.238 189.94 380.748C182.74 384.528 177.9 392.218 170.09 393.608Z" fill="#FEE4DB"/>
<path d="M327.08 441.858L294.57 532.088L289.86 545.169C275.3 541.289 254.84 540.829 240.75 550.369C227.48 559.349 210.6 567.348 193.73 569.658C191.24 569.998 188.57 570.328 185.81 570.568C178.37 571.258 170.34 571.469 163.67 570.239C142.55 566.369 121.53 558.298 108.35 541.508C107.95 541.018 107.58 540.518 107.2 540.008C95.1995 523.708 87.1295 504.638 84.7295 484.368C83.5395 474.418 83.7195 464.158 85.4795 453.808C88.3195 437.028 98.0295 418.228 112.17 408.768C123.81 400.988 134.19 398.908 146.28 391.858C148.34 390.658 153.89 388.669 156.26 388.289C157.73 388.059 159.36 388.368 161.03 388.838C163.98 389.678 167.05 391.028 169.61 390.768C170.38 390.688 171.12 390.469 171.79 390.039C173.84 388.729 177.7 385.558 180.5 382.868C183.86 379.668 187.03 377.189 190.39 375.129C193.51 373.209 196.68 373.959 199.64 375.979C199.66 375.989 199.68 375.998 199.7 376.028C202.72 378.148 204.76 383.449 206.96 385.319C207.4 385.709 207.97 385.928 208.62 386.018C208.66 386.018 208.69 386.028 208.74 386.028C208.75 386.038 208.78 386.039 208.8 386.039C212.86 386.499 220.02 382.398 223.63 382.528C228.05 382.708 227.59 384.088 232.68 383.438C244.42 381.948 237.93 385.188 247.43 385.628C250.99 385.778 259.97 381.259 269.13 383.819C269.74 383.979 270.32 384.208 270.9 384.458C270.91 384.458 270.92 384.458 270.92 384.458C272.64 385.268 274.16 386.449 275.46 387.849C276.49 388.949 277.39 390.168 278.17 391.438C280.15 394.638 281.36 398.148 281.97 400.628C284.31 410.378 286.66 418.968 289.01 428.718C289.28 429.838 290.75 434.239 291.59 435.039C291.98 435.399 292.75 435.709 293.59 435.949C294.49 436.229 295.46 436.428 296.01 436.548C306.96 438.928 316.15 439.508 327.08 441.858Z" fill="#FDD5C8"/>
<path d="M196.79 563.769C193.85 567.059 190.01 569.189 185.81 570.579C178.37 571.269 170.34 571.479 163.67 570.249C142.55 566.379 121.53 558.309 108.35 541.519C107.95 541.029 107.58 540.529 107.2 540.019C95.2005 523.719 87.1305 504.649 84.7305 484.379C91.8905 493.269 101.9 499.899 112.45 504.519C125.96 510.429 140.52 513.429 154.81 517.059C155.61 517.259 156.46 517.499 156.94 518.169C157.55 519.019 157.28 520.189 157.13 521.229C156.25 527.299 160.49 533.209 165.89 536.109C171.29 539.009 177.63 539.509 183.76 539.749C187.89 539.889 192.27 540.019 195.75 542.259C202.61 546.689 202.22 557.689 196.79 563.769Z" fill="#E0AFA1"/>
<path d="M208.54 504.619C210.9 508.409 213.27 512.199 215.63 515.979C216.34 517.119 217.09 518.299 218.21 519.039C219.73 520.049 221.67 520.089 223.5 520.059C248.74 519.669 273.82 511.969 294.93 498.129C292.05 506.489 289.12 515.209 290.22 523.979C290.4 525.399 290.67 526.919 290.04 528.209C289.66 528.989 288.99 529.589 288.29 530.119C284.03 533.369 278.59 534.579 273.31 535.499C264.76 536.989 256.13 537.949 247.5 538.899C238.08 539.939 228.62 540.979 219.15 540.649C213.28 540.439 206.6 539.209 203.55 534.189C200.93 529.869 202.01 524.289 203.82 519.569C205.63 514.849 208.16 510.219 208.54 504.619Z" fill="#E0AFA1"/>
<path d="M294.57 532.099L289.86 545.179C275.3 541.299 254.84 540.838 240.75 550.378C227.48 559.358 210.6 567.359 193.73 569.669C184.53 570.919 172.81 571.938 163.67 570.248C142.55 566.378 121.53 558.308 108.35 541.518C111.75 543.988 115.31 546.208 119.06 548.068C132.87 554.948 149.18 556.679 164.14 552.869C179.1 549.059 192.58 539.738 201.44 527.088C202.7 525.278 205.05 523.169 206.75 524.599C208.1 525.719 207.4 527.959 208.18 529.539C209.42 532.089 213.19 531.408 215.84 530.428C238.48 522.138 263.89 521.609 286.85 528.939C289.48 529.779 292.14 530.749 294.57 532.099Z" fill="#99685A"/>
<path d="M136.559 403.989C132.379 409.989 129.749 417.059 128.979 424.329C128.629 427.589 128.809 431.289 131.169 433.559C129.179 425.479 131.999 417.079 134.779 409.229C135.359 407.599 135.939 405.959 136.559 403.989Z" fill="#FEE4DB"/>
<path d="M146.69 426.779C146.24 425.439 145.98 423.999 146.22 422.609C146.47 421.219 147.29 419.879 148.56 419.259C148.61 420.179 148.09 421.029 147.75 421.889C146.67 424.639 147.46 427.789 148.82 430.409C147.52 429.269 146.98 427.619 146.69 426.779Z" fill="#FEE4DB"/>
<path d="M149.669 424.558C150.819 424.508 151.969 424.568 153.109 424.708C153.389 424.748 153.709 424.808 153.849 425.058C153.949 425.218 153.939 425.418 153.929 425.608C153.879 426.638 153.839 427.668 153.789 428.698C153.769 429.128 153.689 429.648 153.289 429.808C152.839 429.988 152.399 429.538 152.109 429.148C151.429 428.218 150.749 427.298 150.079 426.368C149.669 425.798 149.239 425.178 149.669 424.558Z" fill="#FEE4DB"/>
<path d="M172.15 414.949C177.95 412.729 183.83 410.698 189.77 408.878C191.51 408.348 193.46 407.849 195.07 408.699C195.26 408.799 195.45 408.928 195.52 409.138C195.6 409.378 195.47 409.638 195.34 409.858C190.75 417.908 183.27 424.268 174.59 427.508C174.28 427.618 173.94 427.738 173.64 427.618C173.36 427.518 173.17 427.258 173.02 426.998C171.85 425.008 171.75 422.578 171.77 420.268C171.77 418.248 171.92 416.039 172.15 414.949Z" fill="#FEE4DB"/>
<path d="M182.969 540.739C176.729 542.719 169.779 542.388 163.759 539.828C161.009 538.658 158.359 536.948 156.799 534.398C155.339 531.998 154.969 529.038 155.399 526.268C155.829 523.498 157.009 520.889 158.459 518.479C159.839 516.189 161.579 513.949 164.059 512.949C166.169 512.089 168.519 512.239 170.779 511.919C180.099 510.609 187.339 501.459 196.759 501.659C198.399 501.689 200.089 502.048 201.369 503.078C204.039 505.238 203.889 509.309 203.319 512.699C202.709 516.339 201.889 519.958 200.469 523.368C197.259 531.078 191.219 538.119 182.969 540.739Z" fill="#FEE4DB"/>
<path d="M243.08 500.428C263.02 498.058 282.48 491.738 299.99 481.918C292.24 479.218 283.71 481.378 275.89 483.868C263.02 487.978 250.43 492.988 238.26 498.858C239.24 500.398 241.12 500.668 243.08 500.428Z" fill="#FEE4DB"/>
<path d="M155.67 437.979C157.08 430.489 159.93 423.279 164.01 416.839C162.04 424.699 159.48 432.399 155.67 437.979Z" fill="#FEE4DB"/>
<path d="M215.719 398.689C215.539 392.869 218.189 387.029 222.699 383.349C219.629 384.409 217.179 386.958 215.929 389.958C214.679 392.968 214.579 396.379 215.719 398.689Z" fill="#FEE4DB"/>
<path d="M228.239 395.019C230.389 391.989 232.549 388.959 234.699 385.929C234.929 385.599 235.139 385.089 234.809 384.859C234.529 384.669 234.159 384.909 233.909 385.139C231.469 387.429 229.449 390.159 227.969 393.169C227.599 393.949 227.259 394.899 228.239 395.019Z" fill="#FEE4DB"/>
<path d="M254.23 400.859C254.82 396.409 256.68 392.129 259.52 388.659C260.32 387.679 261.21 386.749 261.79 385.629C261.89 385.439 261.99 385.219 261.94 384.999C261.81 384.479 261.06 384.509 260.55 384.709C255.36 386.679 251.85 391.879 250.79 397.329C250.6 398.299 250.48 399.319 250.79 400.259C251.1 401.199 251.94 402.029 252.93 402.019C253.92 402.009 254.82 400.889 254.23 400.859Z" fill="#FEE4DB"/>
<path d="M166.63 537.828C164.4 536.548 161.99 535.048 161.23 532.588C161.02 531.928 160.95 531.228 160.95 530.528C160.95 527.288 162.47 524.168 164.69 521.808C166.91 519.448 169.76 517.768 172.73 516.468C170.33 515.568 167.58 516.058 165.33 517.278C163.08 518.498 161.27 520.388 159.65 522.378C158.47 523.828 157.32 525.528 157.48 527.388C157.56 528.278 157.94 529.119 158.35 529.919C160.14 533.289 162.8 536.188 166.63 537.828Z" fill="#99685A"/>
<path d="M179.169 537.549C176.039 537.929 172.819 537.649 169.799 536.739C168.139 536.239 166.409 535.429 165.649 533.879C165.589 533.759 165.539 533.639 165.539 533.509C165.539 533.059 166.119 532.878 166.569 532.858C167.949 532.798 169.319 533.029 170.669 533.289C173.229 533.769 175.829 534.369 178.059 535.729C178.309 535.879 178.559 536.058 178.699 536.318C178.829 536.568 178.799 536.939 179.169 537.549Z" fill="#E0AFA1"/>
<path d="M180.48 534.619C185.91 531.009 190.02 525.449 191.89 519.199C192.15 518.339 192.39 517.419 193.02 516.779C193.65 516.139 194.82 515.929 195.42 516.609C195.88 517.139 195.8 517.919 195.95 518.599C196.1 519.319 196.52 519.959 196.62 520.689C196.84 522.239 195.64 523.589 194.51 524.659C190.38 528.539 185.91 532.039 180.48 534.619Z" fill="#E0AFA1"/>
<path d="M194.389 524.409C193.429 528.029 191.759 531.559 189.009 534.109C186.259 536.659 182.319 538.089 178.669 537.219C178.219 537.109 177.759 536.958 177.419 536.638C177.079 536.318 176.909 535.789 177.119 535.369C180.189 535.529 183.309 534.359 185.509 532.219C186.829 530.929 187.819 529.338 189.099 528.018C190.479 526.608 192.189 525.519 194.389 524.409Z" fill="#99685A"/>
<path d="M182.92 527.488C178.63 527.748 174.32 525.009 172.75 521.009C172.47 520.299 172.29 519.428 172.73 518.808C172.94 518.508 173.28 518.309 173.61 518.159C174.69 517.659 175.94 517.528 177.1 517.768C178.08 517.978 179 518.449 179.98 518.659C180.56 518.779 181.17 518.819 181.69 519.099C182.21 519.379 182.62 520.008 182.4 520.558C182.33 520.738 182.2 520.888 182.08 521.028C181.21 522.048 180.37 523.318 180.69 524.618C180.97 525.818 182.11 526.558 182.92 527.488Z" fill="#E0AFA1"/>
<path d="M203.469 503.539C199.199 500.529 193.299 499.999 188.559 502.199C193.179 500.099 194.779 494.379 198.289 490.709C203.819 484.929 212.989 485.089 220.259 481.759C226.369 478.959 231.029 473.679 234.559 467.959C238.219 462.049 240.849 455.569 243.459 449.129C245.769 443.449 248.069 437.759 250.379 432.079C253.379 424.669 256.849 416.719 263.799 412.779C264.349 412.459 264.969 412.169 265.599 412.249C266.839 412.399 267.449 413.839 267.679 415.069C268.459 419.219 267.699 423.499 266.619 427.579C264.749 434.629 261.909 441.369 259.069 448.079C256.109 455.049 253.119 462.029 249.179 468.499C238.879 485.399 222.009 498.189 203.469 503.539Z" fill="#E0AFA1"/>
<path d="M161.889 507.618C172.299 502.738 183.549 497.039 188.159 486.509C192.529 476.539 189.819 464.459 194.609 454.689C199.289 445.139 209.849 440.209 219.679 436.129C229.509 432.049 240.129 427.488 245.339 418.208C242.589 422.838 236.409 423.729 231.079 424.449C221.619 425.739 212.179 428.079 203.859 432.759C195.539 437.439 188.399 444.668 185.159 453.638C182.039 462.268 182.639 471.948 179.209 480.458C177.489 484.728 174.819 488.528 172.179 492.298C168.099 498.098 164.039 503.878 161.889 507.618Z" fill="#E0AFA1"/>
<path d="M160.03 462.088C159.02 466.458 154.75 469.838 150.26 469.828C143.8 469.818 139.04 463.878 133.01 461.548C128.22 459.698 122.75 460.238 117.94 462.048C113.13 463.858 108.86 466.838 104.73 469.888C108.35 464.558 111.97 459.228 115.59 453.898C117.73 450.748 120.08 447.428 123.62 446.028C128.19 444.218 133.42 446.168 137.42 449.018C141.42 451.868 144.76 455.628 148.99 458.108C152.38 460.118 156.22 461.218 160.03 462.088Z" fill="#E0AFA1"/>
<path d="M160.839 416.778C163.149 417.578 162.789 411.328 164.239 409.358C164.459 409.058 164.689 408.658 164.499 408.338C164.379 408.138 164.129 408.048 163.899 407.988C162.279 407.548 160.559 407.508 158.949 407.028C157.339 406.548 155.739 405.448 155.369 403.808C155.179 402.978 155.169 401.878 154.369 401.618C154.069 401.518 153.749 401.588 153.429 401.588C152.179 401.598 151.099 400.588 149.849 400.558C148.959 400.528 148.139 401.008 147.369 401.468C143.429 403.828 139.249 406.428 137.359 410.618C137.079 411.248 136.949 412.168 137.579 412.458C137.829 412.568 138.109 412.528 138.379 412.488C140.069 412.208 141.749 411.938 143.439 411.658C144.259 411.528 145.109 411.388 145.909 411.638C146.699 411.878 147.409 412.618 147.329 413.438C147.259 414.198 146.559 414.848 146.659 415.598C146.809 416.618 157.469 415.618 160.839 416.778Z" fill="#E0AFA1"/>
<path d="M169.61 390.789C168.59 392.389 167.19 393.769 165.45 394.519C163.58 395.339 161.27 395.319 159.57 394.179C159.15 393.899 158.75 393.539 158.58 393.049C158.21 391.989 159.06 390.919 159.84 390.109C160.24 389.689 160.64 389.279 161.03 388.859C163.97 389.699 167.05 391.049 169.61 390.789Z" fill="#E0AFA1"/>
<path d="M208.629 386.039C206.969 386.999 205.159 387.968 203.249 387.768C202.199 387.658 201.199 387.209 200.169 386.949C199.019 386.659 197.829 386.598 196.679 386.298C195.549 386.008 194.399 385.389 193.879 384.319C193.459 383.479 193.519 382.429 194.019 381.629C194.989 380.109 197.369 379.559 197.629 377.779C197.679 377.489 197.639 377.168 197.749 376.888C197.929 376.358 198.489 376.049 199.039 375.999C199.259 375.979 199.469 375.998 199.689 376.048C202.709 378.168 204.749 383.469 206.949 385.339C207.409 385.719 207.969 385.949 208.629 386.039Z" fill="#E0AFA1"/>
<path d="M197.07 404.859C198.25 404.109 199.38 403.279 200.45 402.369C201.08 401.829 201.74 401.139 201.68 400.309C201.62 399.449 200.76 398.829 199.91 398.739C199.06 398.649 198.22 398.949 197.42 399.259C195.93 399.839 194.46 400.459 193 401.119C192.63 401.289 192.25 401.469 192.04 401.819C191.8 402.229 191.87 402.749 192.04 403.199C192.49 404.389 193.59 405.299 194.83 405.539C196.08 405.769 197.43 405.319 197.07 404.859Z" fill="#E0AFA1"/>
<path d="M240.309 383.499C239.229 384.049 238.399 385.009 237.689 385.989C234.989 389.699 233.489 394.129 232.039 398.489C234.979 393.339 238.959 388.789 243.679 385.189" fill="#E0AFA1"/>
<path d="M231.54 383.579C231.31 383.839 231.05 384.119 230.79 384.419C226.54 389.429 223.98 395.859 223.64 402.419C223.53 404.299 223.62 406.209 223.34 408.079C223.23 408.829 222.78 409.789 222.03 409.619C221.76 409.559 221.54 409.359 221.35 409.149C219.99 407.679 219.23 405.649 219.28 403.649C219.32 402.159 219.76 400.729 219.99 399.259C220.2 397.889 220.21 396.499 220.45 395.139C220.98 392.129 222.54 389.389 224.51 387.049C225.62 385.719 226.86 384.509 228.16 383.369" fill="#E0AFA1"/>
<path d="M278.17 391.468C278.01 394.918 274.81 397.509 272.72 400.349C268.4 406.259 268.22 414.918 262.57 419.548C261.59 420.348 260.42 421.009 259.15 420.979C257.9 420.959 256.6 420.028 256.24 420.368C258.95 410.478 258.38 399.888 261.25 390.028C261.6 388.838 262.01 387.628 262.84 386.708C263.92 385.508 265.54 384.968 267.13 384.688C268.37 384.468 269.64 384.388 270.9 384.488C270.91 384.488 270.92 384.488 270.92 384.488C272.64 385.298 274.16 386.479 275.46 387.879C276.49 388.969 277.39 390.188 278.17 391.468Z" fill="#E0AFA1"/>
<path d="M150.42 436.138C152.37 440.518 152.71 445.599 151.36 450.199C151.24 450.619 151.02 451.108 150.58 451.138C150.07 451.188 149.77 450.578 149.64 450.078C148.79 447.008 148.09 443.888 146.98 440.898C145.08 435.758 141.95 430.709 142.54 425.259C142.66 424.169 143.07 422.939 144.1 422.589C145.06 425.569 146.03 428.589 147.73 431.229C149.44 433.879 151.96 436.538 150.42 436.138Z" fill="#E0AFA1"/>
<path d="M154.099 436.359C154.089 436.359 154.069 436.359 154.059 436.359C153.779 436.339 153.579 436.099 153.599 435.819C154.159 428.979 157.029 422.429 161.659 417.369C161.849 417.169 162.159 417.149 162.369 417.339C162.569 417.529 162.589 417.839 162.399 418.049C157.919 422.949 155.149 429.289 154.599 435.909C154.569 436.159 154.349 436.359 154.099 436.359Z" fill="#99685A"/>
<path d="M185.82 385.018C184.78 388.088 184.73 391.488 185.68 394.588C185.85 395.148 186.07 395.718 186.5 396.098C186.93 396.488 187.65 396.618 188.1 396.248C188.38 396.018 188.51 395.648 188.61 395.288C189.54 392.098 189.83 388.728 189.48 385.428C189.41 384.808 189.28 384.108 188.74 383.778C187.99 383.318 187.03 383.898 186.44 384.548C185.53 385.578 184.86 386.828 185.82 385.018Z" fill="#E0AFA1"/>
<path d="M158.83 404.158C161.5 401.548 164.35 398.838 167.96 397.888C168.53 397.738 169.23 397.678 169.6 398.128C169.76 398.318 169.83 398.578 169.89 398.828C170.53 401.418 171.16 404.018 171.8 406.608C172 407.418 172.17 408.348 171.65 408.998C171 409.818 169.72 409.638 168.7 409.368C164.93 408.388 160.83 407.188 158.83 404.158Z" fill="#E0AFA1"/>
<path d="M172.499 518.798C175.039 518.388 177.669 518.528 180.149 519.208C180.859 519.408 181.579 519.649 182.319 519.589C183.059 519.529 183.819 519.078 183.969 518.358C184.109 517.708 183.689 517.039 183.139 516.669C182.589 516.299 181.909 516.168 181.249 516.048C179.759 515.768 178.279 515.488 176.789 515.208C177.909 514.788 179.129 514.789 180.309 514.629C184.219 514.099 187.659 511.899 190.969 509.749C191.439 509.439 191.959 509.059 192.019 508.499C192.089 507.839 191.429 507.278 190.769 507.208C190.109 507.138 189.459 507.418 188.859 507.708C186.189 508.968 183.539 510.448 180.609 510.828C178.909 511.048 177.079 510.918 175.609 511.798C174.199 512.638 173.429 514.209 172.729 515.699C172.329 516.539 171.949 517.598 172.499 518.798Z" fill="#99685A"/>
<path d="M293.599 435.978C292.169 436.348 290.569 435.008 289.099 434.278C285.779 432.638 281.599 434.508 279.369 437.458C277.119 440.418 276.339 444.188 275.479 447.788C273.989 453.918 271.689 460.548 266.189 463.638C264.459 464.618 262.469 465.178 260.949 466.468C257.199 469.638 257.779 475.498 256.109 480.118C253.639 486.928 246.459 490.608 239.899 493.648C232.479 497.098 225.069 500.538 217.649 503.978C215.289 505.068 212.869 506.208 211.089 508.108C208.599 510.778 207.729 514.508 206.409 517.908C203.799 524.608 199.039 530.458 192.619 534.778C200.409 527.038 204.689 515.878 204.049 504.918C203.919 502.878 203.649 500.828 204.059 498.828C204.869 494.908 208.219 491.958 211.839 490.228C215.449 488.508 219.439 487.718 223.179 486.288C227.469 484.648 231.449 482.168 234.789 479.028C242.439 471.858 246.509 461.728 249.949 451.838C254.829 437.788 258.929 423.488 262.219 408.998C263.409 403.738 264.559 398.288 267.639 393.848C269.529 391.118 272.349 388.878 275.459 387.888C279.069 391.738 281.129 397.208 281.969 400.668C284.309 410.418 286.659 419.008 289.009 428.758C289.279 429.878 290.749 434.278 291.589 435.078C291.989 435.428 292.759 435.738 293.599 435.978Z" fill="#99685A"/>
<path d="M233.529 383.359L232.649 384.099C230.929 385.519 229.159 386.989 227.819 388.769C224.039 393.789 223.929 400.589 224.139 407.719C224.149 408.039 223.909 408.299 223.579 408.319C223.569 408.319 223.569 408.319 223.559 408.319C223.259 408.319 222.989 408.069 222.979 407.759C222.759 400.409 222.889 393.389 226.899 388.079C228.199 386.359 229.819 384.949 231.439 383.609" fill="#99685A"/>
<path d="M205.809 384.679C204.579 385.039 203.359 385.389 202.129 385.749C201.009 386.079 199.819 386.439 199.049 387.319C197.849 388.679 198.079 390.759 198.529 392.519C198.979 394.279 199.569 396.169 198.899 397.849C198.339 397.739 197.979 397.199 197.699 396.709C196.919 395.359 196.189 393.969 195.519 392.549C194.589 390.579 193.759 388.419 194.129 386.269C194.499 384.119 196.509 382.119 198.649 382.529C200.319 382.849 201.519 384.459 203.199 384.739C204.309 384.919 205.509 384.429 205.809 384.679Z" fill="#99685A"/>
<path d="M152.329 416.279C152.639 415.509 152.819 414.699 152.879 413.869C152.899 413.629 152.899 413.369 152.779 413.159C152.519 412.689 151.829 412.699 151.319 412.879C150.149 413.279 149.219 414.149 148.319 414.999C147.199 416.069 146.059 417.159 145.319 418.519C144.579 419.879 144.309 421.589 144.979 422.979C145.389 421.449 146.169 420.019 147.159 418.779C147.669 418.139 148.249 417.539 148.969 417.139C150.109 416.509 151.539 416.389 152.329 416.279Z" fill="#99685A"/>
<path d="M150.909 436.859C147.509 434.019 145.359 429.709 145.139 425.279" stroke="#99685A" stroke-miterlimit="10" stroke-linecap="round" stroke-linejoin="round"/>
<path d="M1652.1 624.159C1651.81 626.379 1651.66 628.639 1651.54 630.909C1651.1 640.309 1651.55 649.929 1647.03 658.029C1641.43 668.089 1622.8 670.359 1620.43 659.079C1617.19 673.969 1602.04 683.739 1586.98 686.069C1571.93 688.409 1556.66 685.009 1541.61 682.649C1510.5 677.779 1478.7 677.379 1447.47 681.429C1434.24 683.149 1420.94 685.679 1407.67 684.389C1387.28 682.409 1368.87 671.689 1349.12 666.329C1322.73 659.179 1293.58 661.489 1269.41 648.719C1259.78 643.629 1250.51 636.079 1239.63 636.459C1231.65 636.739 1224.06 641.399 1216.13 640.459C1210.47 639.779 1205.58 636.369 1200.35 634.109C1190.16 629.699 1178.68 629.749 1167.58 629.879C1087.53 630.749 1007.5 631.609 927.449 632.479C884.959 632.949 840.359 632.909 802.949 612.749C798.899 600.699 786.119 566.189 783.679 532.359C783.209 525.869 783.079 519.379 783.219 512.899C783.799 485.599 789.219 458.409 794.609 431.529C797.919 415.049 801.869 397.419 812.859 385.129V385.119C814.219 383.589 815.689 382.139 817.289 380.779C826.999 372.549 839.439 369.289 852.309 367.879C858.509 367.199 864.799 366.939 870.929 366.759C913.769 365.459 956.849 364.759 999.279 370.799C1042.25 376.919 1083.91 389.859 1125.53 402.239C1200.09 424.439 1275.14 444.999 1350.62 463.899C1379.72 471.199 1408.89 478.249 1438.12 485.049C1459.04 489.919 1480.86 494.659 1501.8 489.879C1509.3 488.159 1516.7 485.219 1524.37 485.629C1537.81 486.329 1549.91 497.139 1563.19 494.989C1573.48 493.319 1585.34 484.529 1592.63 491.979C1595.67 495.089 1596.62 500.409 1600.69 501.939C1606.09 503.979 1611.58 497.369 1617.19 498.239C1617.35 498.249 1617.52 498.289 1617.68 498.319C1622.6 499.479 1624.1 505.629 1624.66 510.649C1625.44 517.629 1626.23 524.609 1627.02 531.599C1628.27 542.839 1629.53 554.079 1630.81 565.319C1630.96 566.679 1631.11 568.019 1631.27 569.379C1633.22 567.499 1635.47 566.499 1637.82 566.229C1638.95 566.099 1640.11 566.139 1641.28 566.319C1649.46 567.609 1657.81 576.189 1658.87 585.329C1660.39 598.449 1653.83 611.069 1652.1 624.159Z" fill="#495760"/>
<path d="M1872.63 515.119C1872.63 515.119 1872.63 515.119 1872.63 515.129C1868.61 521.379 1862.75 526.039 1855.4 527.209C1854 527.429 1852.44 527.579 1851.46 528.629C1850.72 529.399 1850.48 530.499 1850.35 531.569C1849.31 539.729 1852.2 550.069 1845.43 554.749C1845.8 549.799 1846.18 544.839 1846.55 539.899C1846.69 537.949 1846.62 535.549 1844.91 534.589C1843.67 533.889 1842.11 534.309 1840.77 534.779C1803.2 547.689 1773.76 579.209 1735.41 589.559C1723.07 592.889 1710.21 593.899 1697.84 597.139C1688.51 599.599 1677.98 605.359 1677.72 614.999C1677.45 625.139 1671.78 636.839 1665.86 647.799C1664 651.249 1661.39 654.989 1657.5 655.299C1657.53 646.479 1662.76 638.649 1665.49 630.259C1668.54 620.899 1668.4 610.549 1665.1 601.279C1664.49 599.559 1663.75 597.839 1662.46 596.569C1661.06 595.189 1659.17 594.479 1657.41 593.619C1653.61 591.769 1650.21 589.119 1647.47 585.899C1648.5 581.899 1649.69 578.009 1651.05 574.199C1654.62 573.759 1658.18 573.309 1661.76 572.849C1658.09 572.769 1655.8 568.279 1656.68 564.709C1657.57 561.149 1660.55 558.529 1663.57 556.439C1666.77 554.219 1670.32 552.289 1674.19 551.859C1679.66 551.249 1684.95 553.709 1690.32 554.899C1703.02 557.729 1716.11 553.519 1728.44 549.359C1758.83 539.089 1791.29 527.319 1809.67 501.029C1812.3 497.279 1814.72 493.159 1817.44 489.389C1820.7 486.679 1823.76 483.729 1826.31 480.329C1826.33 480.289 1826.36 480.269 1826.38 480.239C1827.47 479.509 1828.61 478.879 1829.85 478.359C1837.96 474.899 1847.23 477.009 1855.78 479.179C1858.33 479.829 1860.97 480.529 1862.98 482.219C1864.75 483.689 1865.85 485.799 1866.76 487.899C1870.46 496.439 1871.61 505.829 1872.63 515.119Z" fill="#353A3E"/>
<path d="M1815.41 475.549C1815.22 475.669 1815.02 475.769 1814.83 475.879C1809.13 478.839 1802.42 474.889 1797.26 471.049C1786.77 487.509 1774.57 502.869 1760.93 516.829C1758.71 519.109 1755.76 521.529 1752.72 520.619C1760.22 512.749 1767.7 504.879 1775.2 497.009C1781.18 490.719 1787.54 483.559 1787.68 474.879C1778.32 481.699 1768.98 488.519 1759.63 495.339C1756.74 497.449 1753.63 499.639 1750.06 499.879C1746.93 500.079 1743.93 498.749 1740.88 498.029C1728.72 495.189 1716.6 502.169 1704.21 503.869C1697.13 504.829 1689.95 504.049 1682.83 504.489C1675.71 504.949 1668.22 506.899 1663.41 512.169C1654.81 521.589 1658.07 537.199 1651.21 547.949C1652.03 536.559 1652.84 525.179 1653.64 513.789C1653.87 510.469 1652.65 505.719 1649.38 506.339C1647.29 506.739 1646.44 509.229 1646.09 511.319C1643.25 528.299 1647.07 546.809 1639.26 562.139C1640.93 545.739 1640.92 529.169 1639.22 512.769C1639.01 510.719 1638.76 508.639 1637.97 506.749C1636.47 503.209 1633.4 500.909 1629.83 499.299C1628.11 497.429 1625.53 496.329 1622.99 496.609C1623.84 492.719 1628.59 491.369 1632.51 490.679C1665.17 484.969 1697.06 474.899 1727.07 460.839C1737.78 455.809 1748.77 449.829 1755.05 439.809C1759.21 433.139 1760.97 425.199 1765.09 418.509C1773.49 404.879 1792.15 398.649 1807.05 404.509C1810.38 405.819 1813.6 407.739 1815.72 410.629C1817.6 413.199 1818.48 416.359 1819.16 419.469C1823.25 438.169 1821.2 457.239 1815.41 475.549Z" fill="#353A3E"/>
<path d="M833.319 556.829C808.589 558.199 793.649 540.949 788.589 522.269C783.549 503.579 786.479 483.739 790.389 464.799C795.959 437.759 803.479 411.119 812.859 385.139V385.129C814.219 383.599 815.689 382.149 817.289 380.789C826.999 372.559 839.439 369.299 852.309 367.889C844.599 400.739 831.209 432.379 826.149 465.799C821.539 496.159 824.019 527.569 833.319 556.829Z" fill="#3A474F"/>
<path d="M1651.54 630.898C1651.1 640.298 1651.55 649.918 1647.03 658.018C1641.43 668.078 1622.8 670.348 1620.43 659.068C1617.19 673.958 1602.04 683.729 1586.98 686.059C1571.93 688.399 1556.66 684.998 1541.61 682.638C1510.5 677.768 1478.7 677.369 1447.47 681.419C1434.24 683.139 1420.94 685.668 1407.67 684.378C1387.28 682.398 1368.87 671.678 1349.12 666.318C1322.73 659.168 1293.58 661.478 1269.41 648.708C1259.78 643.618 1250.51 636.068 1239.63 636.448C1231.65 636.728 1224.06 641.388 1216.13 640.448C1210.47 639.768 1205.58 636.359 1200.35 634.099C1190.16 629.689 1178.68 629.739 1167.58 629.869C1087.53 630.739 1007.5 631.599 927.449 632.469C884.959 632.939 840.359 632.899 802.949 612.739C798.899 600.689 786.119 566.179 783.679 532.349C783.209 525.859 783.079 519.368 783.219 512.888C784.879 509.638 786.809 506.958 788.949 504.958C811.939 527.078 845.239 534.419 876.989 537.599C960.549 545.989 1047.88 532.548 1126.65 561.638C1154.23 571.828 1180.98 587.238 1210.38 587.638C1220.75 587.768 1233.33 586.998 1239.05 595.638C1240.84 598.348 1241.66 601.698 1243.86 604.078C1252.06 612.958 1265.47 600.539 1277.38 598.419C1291.11 595.959 1302.46 608.168 1314.65 614.958C1323.32 619.778 1333.16 621.978 1342.94 623.638C1423.81 637.448 1508.75 618.819 1587.78 640.859C1602.32 644.919 1619.38 649.878 1631.25 640.568C1636.54 636.418 1640.91 629.458 1647.61 629.818C1649.01 629.898 1650.31 630.298 1651.54 630.898Z" fill="#3A474F"/>
<path d="M1067.32 649.888C1067.27 649.968 1067.21 650.038 1067.17 650.108C1066.48 651.078 1065.46 651.759 1064.46 652.429C1058.14 654.909 1054.85 662.988 1049.56 668.578C1046.71 671.618 1043.2 673.948 1039.72 676.248C1032.62 680.958 1025.42 685.738 1017.36 688.518C1008.68 691.528 999.279 692.118 990.709 695.398C986.569 696.978 982.659 699.168 978.479 700.588C971.259 703.028 963.499 703.148 955.879 703.218C923.939 703.508 891.999 703.508 860.059 703.218L860.679 694.989L863.369 659.168C867.079 659.078 870.789 658.978 874.489 658.888C876.239 658.848 878.059 658.799 879.659 658.059C880.979 657.449 882.059 656.408 883.189 655.498C885.249 653.858 887.559 652.578 889.869 651.298C895.259 648.328 900.759 645.308 906.769 643.998C910.839 643.118 915.069 643.038 919.099 641.948C930.959 638.748 939.279 627.348 951.139 624.138C955.919 622.838 958.049 621.808 962.999 622.198C966.609 622.488 970.919 622.268 972.119 625.688C972.179 625.848 972.239 626.038 972.299 626.228C973.219 628.958 974.449 633.608 973.039 635.788C971.919 637.518 970.699 639.218 969.249 640.688C960.719 649.368 945.719 649.168 937.469 657.948V657.958C937.429 657.978 937.419 657.998 937.409 658.018C937.199 658.228 937.009 658.438 936.829 658.658C936.879 658.678 936.919 658.708 936.969 658.728C944.709 662.728 952.709 665.528 960.959 666.588C970.019 667.778 979.239 666.888 988.229 665.268C992.139 664.568 996.039 663.708 999.739 662.278C1003.45 660.838 1006.9 658.828 1010.29 656.748C1016.08 653.178 1022.87 649.208 1029.25 651.578C1034.19 647.318 1041 644.768 1047.76 645.048C1053.36 642.038 1060.43 641.988 1065.83 645.088C1066.56 645.508 1067.29 646.008 1067.67 646.758C1068.15 647.718 1067.91 648.938 1067.32 649.888Z" fill="#FDD5C8"/>
<path d="M873.219 669.408C881.359 667.228 888.169 661.808 895.389 657.458C903.789 652.398 912.929 648.678 922.209 645.508C927.029 643.858 931.939 642.328 936.339 639.768C939.489 637.928 942.329 635.588 945.469 633.718C951.249 630.278 957.869 628.538 964.379 626.838C960.709 625.038 956.299 625.758 952.449 627.148C944.179 630.118 937.179 635.799 929.299 639.679C922.059 643.239 914.169 645.248 906.639 648.128C894.089 652.928 882.499 660.208 873.219 669.408Z" fill="#FEE4DB"/>
<path d="M973.008 635.768C971.888 637.498 970.668 639.199 969.218 640.669C960.688 649.349 945.688 649.149 937.438 657.929V657.938C937.428 657.938 937.428 657.938 937.418 657.938C937.408 657.958 937.398 657.978 937.378 657.998C937.238 658.248 937.088 658.478 936.938 658.708C932.858 665.078 926.538 670.009 919.358 672.419C916.538 673.369 912.958 673.738 911.008 671.498C913.238 667.308 917.048 664.148 921.118 661.698C925.178 659.238 929.578 657.369 933.718 655.049C937.038 653.179 940.218 650.999 943.778 649.609C946.208 648.659 948.788 648.099 951.288 647.339C955.018 646.209 958.618 644.599 961.968 642.589C963.298 641.789 964.648 640.869 965.308 639.479C963.268 639.549 961.238 639.609 959.198 639.679C962.048 638.109 964.928 636.529 967.348 634.369C969.768 632.219 971.738 629.399 972.268 626.219C973.198 628.939 974.428 633.588 973.008 635.768Z" fill="#99685A"/>
<path d="M1055.11 647.588C1057.74 647.198 1060.37 646.799 1063 646.409C1059.73 644.029 1054.95 643.958 1051.62 646.248C1052.3 647.248 1053.56 647.818 1055.11 647.588Z" fill="#FEE4DB"/>
<path d="M1005.6 666.309C1008.46 662.629 1012.75 660.398 1016.89 658.278C1023.58 654.858 1030.27 651.438 1036.96 648.028C1039.28 646.848 1041.9 645.628 1044.38 646.398C1042.78 648.858 1039.85 650.008 1037.14 651.138C1027.46 655.158 1018.37 660.558 1010.21 667.128C1009.39 667.788 1008.5 668.488 1007.45 668.528C1006.4 668.578 1004.82 667.309 1005.6 666.309Z" fill="#FEE4DB"/>
<path d="M1067.32 649.888C1067.27 649.968 1067.21 650.039 1067.17 650.109C1066.48 651.079 1065.46 651.759 1064.46 652.429C1058.14 654.909 1054.85 662.989 1049.56 668.579C1046.71 671.619 1043.2 673.948 1039.72 676.248C1032.62 680.958 1025.42 685.739 1017.36 688.519C1008.68 691.529 999.279 692.119 990.709 695.399C986.569 696.979 982.659 699.169 978.479 700.589C971.259 703.029 963.499 703.149 955.879 703.219C923.939 703.509 891.999 703.509 860.059 703.219L860.679 694.989L861.329 695.068C865.309 695.298 869.279 695.528 873.259 695.748C875.069 695.858 877.649 695.148 877.299 693.378C881.779 694.988 886.249 696.609 890.729 698.229C893.019 699.049 895.829 699.799 897.679 698.209C895.549 696.439 894.299 693.659 894.379 690.899C894.389 690.549 894.439 690.159 894.699 689.929C894.919 689.729 895.239 689.699 895.519 689.669C901.879 689.059 908.259 688.689 914.629 688.539C915.739 688.519 916.949 688.528 917.789 689.248C918.389 689.748 918.689 690.539 919.219 691.119C920.409 692.429 922.439 692.478 924.199 692.318C930.189 691.818 936.639 690.429 941.859 693.369C943.449 694.259 944.829 695.519 946.549 696.139C948.499 696.839 950.659 696.609 952.729 696.359C955.829 695.999 958.929 695.629 961.959 694.889C965.139 694.109 968.209 692.909 971.309 691.829C978.069 689.459 984.989 687.568 991.909 685.698C997.569 684.168 1003.23 682.619 1008.3 681.649C1011.69 679.399 1014.83 676.799 1017.63 673.849C1018.37 673.089 1019.09 672.279 1020.04 671.829C1021.15 671.279 1022.43 671.258 1023.62 670.938C1025.01 670.588 1026.29 669.848 1027.49 669.068C1032.58 665.818 1037.03 661.699 1041.56 657.709C1043.3 656.169 1045.1 654.629 1047.21 653.649C1049.32 652.679 1051.83 652.319 1053.97 653.209C1054.38 653.369 1054.82 653.779 1054.63 654.159C1054.55 654.299 1054.4 654.389 1054.26 654.459C1052.27 655.519 1050.3 656.599 1048.31 657.659C1046.94 658.399 1045.56 659.149 1044.29 660.029C1043.17 660.829 1042.13 661.739 1041.1 662.649C1037.12 666.119 1033.16 669.609 1029.17 673.149C1024.14 675.019 1019.47 677.829 1015.45 681.369C1014.35 682.329 1013.25 683.379 1011.82 684.179C1001.14 686.939 990.449 689.709 980.019 693.279C976.709 694.409 973.289 695.699 970.869 698.229C972.129 698.969 973.739 698.939 975.149 698.529C976.549 698.129 977.839 697.369 979.139 696.669C982.979 694.609 987.059 693.069 991.129 691.519C997.079 689.269 1003.14 687.009 1009.48 686.579C1011.69 686.429 1013.92 686.509 1016.1 686.049C1023.21 684.539 1027.91 677.759 1034.46 674.589C1036.81 673.459 1039.4 672.789 1041.58 671.349C1043.43 670.129 1044.89 668.409 1046.25 667.099C1049.91 662.589 1053.57 658.069 1057.23 653.559C1057.93 652.679 1058.65 651.809 1059.57 651.169C1061.28 649.999 1063.46 649.839 1065.52 649.709C1066.09 649.699 1066.76 649.678 1067.32 649.888Z" fill="#99685A"/>
<path d="M863.099 682.829C862.449 689.929 862.839 697.769 865.739 704.069C867.209 707.259 869.319 710.059 872.239 712.159C866.089 713.859 859.839 715.199 853.549 716.199C829.569 720.009 804.819 718.749 781.509 712.269C771.659 709.519 762.079 705.879 752.329 702.809C742.859 699.829 733.209 697.389 723.579 694.969C672.549 682.089 620.699 669.129 568.119 671.009C555.299 671.469 542.459 672.799 529.679 671.759C514.829 670.529 500.439 666.119 485.759 663.529C455.749 658.219 424.819 660.559 394.719 655.779C364.629 651.009 333.349 636.899 319.969 609.529C319.969 609.519 319.959 609.519 319.959 609.509C314.739 598.839 312.629 586.899 307.959 575.989C306.659 572.939 305.069 569.919 303.209 567.109C303.159 567.039 303.119 566.979 303.069 566.909C298.259 559.719 291.639 553.869 283.299 552.239C284.529 541.419 288.489 532.489 292.259 523.809C292.519 523.199 292.769 522.609 293.029 522.009C306.609 490.369 315.649 456.789 319.789 422.619C325.899 426.229 332.569 427.519 339.169 426.949C341.949 426.699 344.729 426.139 347.439 425.279C356.809 422.299 364.739 416.089 372.419 409.959C411.119 379.059 449.689 346.979 494.669 326.239C513.399 314.099 538.129 326.909 560.679 326.569C576.719 326.339 592.489 319.189 608.339 321.669C619.449 323.409 629.239 329.709 639.729 333.719C684.539 350.889 740.649 326.669 780.259 353.759C784.139 356.409 787.899 359.579 792.479 360.649C796.079 361.489 799.839 360.939 803.519 360.599C816.989 359.369 830.739 361.209 843.429 365.919C824.319 405.629 810.489 447.169 805.199 490.079C805.149 490.379 805.119 490.679 805.079 490.979C800.719 527.119 802.589 564.309 812.549 599.259C812.549 599.269 812.549 599.269 812.549 599.279C814.489 606.109 816.749 612.839 819.329 619.479C814.889 617.959 810.719 616.419 806.749 614.849C798.039 611.429 790.249 607.959 782.469 604.489C782.339 604.429 782.209 604.369 782.079 604.309C772.409 599.989 762.629 595.639 752.219 593.689C744.009 592.159 735.519 592.149 727.489 589.869C710.859 585.129 697.129 570.949 679.849 570.439C673.729 570.249 667.729 571.859 661.759 573.189C646.189 576.659 630.239 578.379 614.289 578.299C615.239 578.659 616.199 578.999 617.159 579.319C641.849 587.589 669.279 583.369 694.909 588.639C716.209 593.029 735.879 603.889 757.389 607.009C770.809 612.539 784.129 618.589 797.449 624.639C799.639 625.649 801.909 626.649 804.319 626.729C806.759 626.799 809.119 625.899 811.539 625.529C821.929 623.889 831.399 631.899 837.329 640.609C840.309 638.459 844.579 639.929 847.439 642.239C850.309 644.529 852.629 647.619 855.989 649.109C856.679 649.409 857.379 649.639 858.109 649.799C861.129 650.509 864.389 650.169 867.539 650.149C871.429 650.129 875.799 650.859 878.099 653.999C874.499 653.729 871.589 655.099 869.799 657.199C868.009 659.309 867.129 662.019 866.409 664.689C864.769 670.609 863.659 676.689 863.099 682.829Z" fill="#709EB8"/>
<path d="M413.648 563.429C431.498 561.479 449.438 559.528 467.358 560.568C483.398 561.498 499.198 564.798 514.918 568.088C535.418 572.378 555.908 576.678 576.408 580.968C549.538 577.628 521.768 574.358 495.788 582.008C486.918 584.618 478.448 588.458 469.608 591.138C447.918 597.728 424.098 597.088 402.788 589.348C401.498 588.878 400.108 588.298 399.478 587.078C398.668 585.538 399.408 583.658 400.258 582.138C403.928 575.608 409.898 570.419 413.648 563.429Z" fill="#8BB0C5"/>
<path d="M613.738 596.318C610.668 599.668 606.268 601.558 603.168 604.888C600.068 608.218 598.938 614.319 602.708 616.869C609.458 608.779 617.918 602.118 627.368 597.468C624.418 608.888 624.448 621.058 627.448 632.458C631.728 632.728 633.968 627.568 634.968 623.398C637.058 614.638 639.148 605.879 641.238 597.119C636.388 594.869 631.398 592.579 626.058 592.299C620.728 592.009 615.368 594.538 613.738 596.318Z" fill="#8BB0C5"/>
<path d="M806.03 633.909C806.69 649.559 807.52 665.869 815.17 679.539C815.54 680.209 815.97 680.898 816.65 681.258C818.8 682.388 820.78 679.459 821.37 677.099C823.68 667.879 824.05 658.169 822.45 648.799C821.59 643.759 819.999 638.539 816.219 635.089C812.439 631.639 805.89 630.769 806.03 633.909Z" fill="#8BB0C5"/>
<path d="M399.019 402.409C422.379 375.019 458.599 362.699 493.469 353.759C510.209 349.469 528.399 345.759 544.359 352.399C507.329 365.749 464.509 366.539 433.669 390.999C422.469 399.879 412.119 412.139 397.859 413.119C396.699 406.429 399.269 399.229 399.019 402.409Z" fill="#8BB0C5"/>
<path d="M662.449 381.209C675.679 382.609 689.229 380.909 701.699 376.289C707.369 374.189 712.809 371.499 718.449 369.319C734.049 363.299 750.899 361.319 767.589 360.239C761.939 364.399 755.069 366.509 748.319 368.439C719.139 376.749 689.349 382.919 662.449 381.209Z" fill="#8BB0C5"/>
<path d="M756.369 426.599C762.179 399.849 778.379 375.489 800.809 359.809C803.469 364.309 802.809 369.919 803.109 375.139C803.409 380.359 805.599 386.399 810.669 387.649C812.389 388.069 814.209 387.859 815.949 388.209C817.689 388.559 819.499 389.759 819.599 391.529C819.669 392.829 818.809 393.969 817.969 394.969C806.139 408.969 789.939 419.199 780.059 434.649C778.369 437.299 776.829 440.129 774.429 442.159C772.029 444.189 768.449 445.219 765.699 443.699C760.759 440.919 762.329 433.079 756.369 426.599Z" fill="#8BB0C5"/>
<path d="M819.339 619.469C814.899 617.949 810.729 616.409 806.759 614.839C798.049 611.419 790.259 607.949 782.479 604.479C782.349 604.419 782.219 604.359 782.089 604.299C772.419 599.979 762.639 595.629 752.229 593.679C744.019 592.149 735.529 592.139 727.499 589.859C710.869 585.119 697.139 570.939 679.859 570.429C673.739 570.239 667.739 571.849 661.769 573.179C646.199 576.649 630.249 578.369 614.299 578.289C615.249 578.649 616.209 578.989 617.169 579.309C615.639 579.349 614.109 579.368 612.589 579.398C566.229 564.618 518.889 554.999 471.089 549.559C465.959 548.979 459.239 543.289 454.889 536.989C450.529 530.699 447.459 523.409 441.999 518.029C435.699 511.819 426.079 507.849 423.859 499.289C433.279 497.569 443.259 499.158 451.699 503.708C448.319 500.888 444.939 498.058 441.559 495.238C475.999 496.598 510.379 499.869 544.459 505.029C550.849 505.979 557.219 507.008 563.579 508.108C566.829 504.788 562.269 499.668 558.199 497.428C533.989 484.208 508.019 474.208 481.209 467.798C494.179 458.558 511.719 459.879 527.419 462.599C543.119 465.329 559.679 468.999 574.589 463.379L558.379 448.469C576.029 450.629 591.759 460.139 607.699 468.029C634.719 481.409 663.609 490.529 692.369 499.599C695.169 500.489 698.139 501.378 700.979 500.648C703.889 499.908 706.109 497.619 708.539 495.839C729.409 480.459 762.589 502.868 783.809 487.988C785.929 486.498 787.859 484.668 790.279 483.768C794.959 482.018 800.399 484.279 803.679 488.039C804.239 488.679 804.739 489.359 805.209 490.059C805.159 490.359 805.129 490.658 805.089 490.958C801.509 520.618 802.129 550.979 807.979 580.229C809.249 586.629 810.779 592.969 812.559 599.239C812.559 599.249 812.559 599.248 812.559 599.258C814.499 606.098 816.759 612.819 819.339 619.469Z" fill="#31556B"/>
<path d="M872.239 712.169C842.659 720.309 810.949 720.459 781.509 712.279C771.659 709.529 762.079 705.889 752.329 702.819C742.859 699.839 733.209 697.399 723.579 694.979C672.549 682.099 620.699 669.139 568.119 671.019C555.299 671.479 542.459 672.809 529.679 671.769C514.829 670.539 500.439 666.129 485.759 663.539C455.749 658.229 424.819 660.569 394.719 655.789C364.629 651.019 333.349 636.909 319.969 609.539C319.969 609.529 319.959 609.529 319.959 609.519C335.609 620.429 354.949 626.149 374.089 628.469C398.699 631.439 423.609 629.439 448.389 629.729C488.089 630.189 527.469 636.499 566.659 642.789C582.889 645.399 599.129 648.009 615.349 650.609C647.789 655.829 680.809 661.219 710.179 675.959C723.349 682.579 740.399 690.649 751.219 680.649C752.569 679.419 753.749 677.919 755.429 677.229C761.079 674.939 765.199 682.599 770.129 686.179C781.179 694.189 801.489 682.189 808.479 693.929C810.219 696.849 810.359 700.539 812.129 703.449C815.419 708.879 823.379 709.729 829.109 707.009C834.839 704.289 838.839 698.989 842.609 693.889C850.319 697.289 858.029 700.689 865.729 704.089C867.209 707.269 869.319 710.059 872.239 712.169Z" fill="#31556B"/>
<path d="M303.209 567.099C298.389 559.809 291.719 553.869 283.299 552.229C284.529 541.409 288.489 532.479 292.259 523.799C297.819 528.629 304.509 532.189 311.629 534.089C305.719 543.979 302.779 555.609 303.209 567.099Z" fill="#31556B"/>
<path d="M807.969 580.239C775.079 560.989 742.499 538.288 704.729 536.128C691.359 535.368 677.479 537.209 664.949 532.499C652.099 527.679 638.999 516.138 626.619 522.078C621.379 524.578 617.649 529.948 612.019 531.388C606.789 532.728 601.409 530.309 596.529 527.999C579.379 519.859 561.999 512.189 544.439 505.029C550.829 505.979 557.199 507.008 563.559 508.108C566.809 504.788 562.249 499.668 558.179 497.428C533.969 484.208 507.999 474.208 481.189 467.798C494.159 458.558 511.699 459.879 527.399 462.599C543.099 465.329 559.659 468.999 574.569 463.379L558.359 448.469C576.009 450.629 591.739 460.139 607.679 468.029C634.699 481.409 663.589 490.529 692.349 499.599C695.149 500.489 698.119 501.378 700.959 500.648C703.869 499.908 706.089 497.619 708.519 495.839C729.389 480.459 762.569 502.868 783.789 487.988C785.909 486.498 787.839 484.668 790.259 483.768C794.939 482.018 800.379 484.279 803.659 488.039C804.219 488.679 804.719 489.359 805.189 490.059C805.139 490.359 805.109 490.658 805.069 490.958C801.509 520.618 802.129 550.989 807.969 580.239Z" fill="#4E768F"/>
<path d="M339.179 426.939C338.879 435.519 337.619 444.069 335.439 452.379C332.789 462.449 328.799 472.109 325.279 481.899C315.359 509.479 309.169 538.229 303.079 566.909C298.269 559.719 291.649 553.869 283.309 552.239C284.539 541.419 288.499 532.489 292.269 523.809C292.529 523.199 292.779 522.609 293.039 522.009C306.619 490.369 315.659 456.789 319.799 422.619C325.899 426.229 332.579 427.509 339.179 426.939Z" fill="#263F4F"/>
<path d="M863.099 682.829C862.449 689.929 862.839 697.769 865.739 704.069C867.209 707.259 869.319 710.059 872.239 712.159C866.089 713.859 859.839 715.199 853.549 716.199C852.359 713.899 851.369 711.499 850.609 709.049C846.469 695.689 848.049 681.229 851.299 667.619C852.789 661.429 854.749 655.089 858.099 649.759C861.119 650.469 864.379 650.129 867.529 650.109C871.419 650.089 875.789 650.819 878.089 653.959C874.489 653.689 871.579 655.059 869.789 657.159C867.999 659.269 867.119 661.979 866.399 664.649C864.769 670.609 863.659 676.689 863.099 682.829Z" fill="#263F4F"/>
<path d="M910.08 433.719C1137.87 435.079 1350.07 553.769 1576.99 573.669C1598.36 575.539 1613.35 576.969 1631.15 564.989C1550.89 565.099 1478.82 552.239 1402.09 528.689C1363 516.689 1324.85 501.719 1285.59 490.279C1261.68 483.309 1237.41 477.669 1213.15 472.029C1167.72 461.469 1122.28 450.909 1076.85 440.349C1054.53 435.159 1032.16 429.969 1009.41 427.259C976.88 423.399 943.74 424.699 910.08 433.719Z" fill="#576975"/>
<path d="M1622.76 503.159C1621.04 509.179 1613.31 512.599 1607.71 509.809C1603.43 507.689 1600.95 502.939 1596.74 500.689C1586.1 494.969 1574.53 508.059 1562.46 508.329C1551.06 508.589 1542.34 497.479 1531.09 495.679C1525.1 494.709 1519.07 496.489 1513.08 497.419C1499.73 499.529 1486.12 497.489 1472.81 495.149C1429.72 487.579 1387.17 476.849 1345.64 463.059C1347.3 463.359 1348.96 463.639 1350.62 463.899C1379.72 471.199 1408.89 478.249 1438.12 485.049C1459.04 489.919 1480.86 494.659 1501.8 489.879C1509.3 488.159 1516.7 485.219 1524.37 485.629C1537.81 486.329 1549.91 497.139 1563.19 494.989C1573.48 493.319 1585.34 484.529 1592.63 491.979C1595.67 495.089 1596.62 500.409 1600.69 501.939C1606.09 503.979 1611.58 497.369 1617.19 498.239C1619.08 499.819 1620.94 501.449 1622.76 503.159Z" fill="#576975"/>
<path d="M1649.82 485.199C1649.55 487.259 1650.86 489.289 1652.61 490.409C1654.36 491.539 1656.47 491.929 1658.54 492.199C1664.5 492.959 1670.69 492.829 1676.31 490.709C1678.39 489.929 1680.73 488.009 1679.88 485.959C1679.15 484.179 1676.27 483.409 1676.57 481.509C1676.71 480.629 1677.54 480.039 1678.34 479.629C1682.09 477.739 1686.76 477.789 1690.47 479.749C1693.78 481.499 1697.12 484.759 1700.62 483.439C1699.1 481.749 1697.35 480.249 1695.44 479.019C1699.07 478.129 1702.84 477.799 1706.56 478.049C1705.46 476.839 1704.36 475.629 1703.26 474.409C1705.52 473.839 1708.02 474.349 1709.87 475.759C1711.01 476.629 1711.92 477.809 1713.22 478.409C1714.52 479.009 1716.44 478.649 1716.79 477.259C1715.74 475.179 1713.8 473.579 1711.56 472.959C1711.39 470.879 1713.55 469.209 1715.64 469.099C1717.73 468.989 1719.7 469.969 1721.57 470.899C1723.44 471.829 1725.45 472.759 1727.53 472.529C1728.1 472.469 1728.74 472.259 1728.97 471.729C1729.27 471.059 1728.75 470.319 1728.21 469.809C1725.97 467.689 1722.84 466.539 1719.75 466.699C1723.53 466.499 1727.67 466.159 1730.4 463.539C1731.23 462.739 1732.07 461.679 1733.22 461.739C1733.75 461.759 1734.23 462.029 1734.69 462.299C1737.75 464.089 1741.52 466.199 1744.56 464.379C1742 462.039 1738.73 460.499 1735.29 460.019C1736.61 458.699 1738.75 458.899 1740.61 459.069C1742.47 459.229 1744.73 459.029 1745.6 457.379C1746.18 456.269 1746.08 454.589 1747.26 454.139C1748.3 453.739 1749.29 454.749 1750.07 455.539C1751.14 456.629 1752.43 457.509 1753.84 458.109C1754.28 458.299 1754.78 458.459 1755.24 458.319C1755.97 458.099 1756.3 457.239 1756.3 456.479C1756.29 454.609 1754.84 452.979 1753.14 452.189C1751.44 451.399 1749.52 451.269 1747.65 451.159C1745.62 451.039 1743.6 450.919 1741.57 450.799C1741.31 450.779 1741.04 450.769 1740.82 450.909C1740.14 451.329 1740.76 452.329 1740.97 453.109C1741.51 455.109 1738.74 456.359 1736.68 456.159C1734.62 455.959 1732.21 455.319 1730.73 456.769C1729.25 458.219 1729.57 461.149 1726.9 462.639C1724.58 462.199 1722.22 461.749 1719.88 462.029C1717.54 462.309 1715.17 463.409 1713.95 465.419C1713.21 466.649 1712.93 468.139 1712.04 469.269C1710.89 470.749 1708.9 471.349 1707.03 471.379C1705.16 471.409 1703.31 470.959 1701.45 470.739C1701.06 470.689 1700.64 470.659 1700.28 470.829C1698.75 471.559 1700.4 474.049 1699.66 475.579C1698.91 477.119 1696.63 476.499 1695.02 475.929C1690.88 474.459 1686.1 474.939 1682.34 477.209C1680.83 478.119 1679.39 479.339 1677.63 479.499C1675.74 479.669 1673.94 478.559 1672.04 478.579C1670.64 478.589 1669.32 479.209 1667.96 479.509C1665.4 480.079 1662.75 479.529 1660.14 479.289C1655.04 478.819 1649.83 479.539 1645.05 481.379C1643.94 481.809 1642.67 482.559 1642.7 483.749C1642.73 484.769 1643.8 485.509 1644.81 485.559C1645.82 485.609 1646.8 485.169 1647.74 484.779C1654.77 481.819 1662.61 480.799 1670.17 481.889C1671.22 482.039 1672.31 482.249 1673.17 482.869C1674.03 483.489 1674.61 484.639 1674.25 485.639C1673.92 486.569 1672.95 487.079 1672.06 487.499C1670.09 488.439 1668.05 489.389 1665.87 489.519C1663.69 489.649 1661.3 488.759 1660.3 486.819C1660.04 486.319 1659.87 485.749 1659.49 485.329C1659.11 484.919 1658.56 484.699 1658.03 484.509C1656.49 483.929 1654.9 483.349 1653.26 483.469C1651.62 483.589 1649.9 484.609 1649.82 485.199Z" fill="#23282B"/>
<path d="M1627.03 531.609C1628.28 542.849 1629.54 554.089 1630.82 565.329C1621.69 564.519 1612.41 565.169 1603.48 567.259C1599.56 568.179 1595.68 569.379 1591.67 569.629C1587.62 569.889 1583.6 569.189 1579.61 568.499C1556.42 564.429 1533.24 560.359 1510.05 556.299C1489.54 552.699 1469.01 549.099 1448.67 544.599C1422.86 538.899 1397.37 531.779 1371.9 524.659C1309.05 507.089 1246.19 489.509 1183.34 471.949C1108.73 451.099 1032.98 430.069 955.5 430.249C972.1 418.889 991.32 417.129 1010.42 418.059C1040.48 419.549 1069.92 427.689 1099.98 429.159C1119.49 430.119 1139.18 428.269 1158.47 431.359C1181.57 435.069 1202.88 445.659 1224.4 454.859C1280.76 478.969 1340.91 494.189 1401.97 499.819C1427.13 502.139 1454.27 503.499 1473.98 519.319C1479.31 523.599 1484.68 529.139 1491.52 529.039C1494.82 528.989 1497.93 527.579 1500.92 526.169C1512.51 520.739 1525.58 515.019 1537.65 519.259C1553.15 524.699 1561.05 544.749 1577.28 547.259C1594.75 549.969 1609.59 530.309 1627.03 531.609Z" fill="#3A474F"/>
<path d="M1641.28 566.328C1641.14 566.488 1641 566.649 1640.85 566.809C1639.84 566.599 1638.84 566.409 1637.82 566.239C1638.96 566.109 1640.11 566.138 1641.28 566.328Z" stroke="#3A474F" stroke-miterlimit="10"/>
<path d="M1725.14 564.159C1721.57 564.779 1717.92 564.839 1714.36 564.339C1713.31 564.199 1712.18 563.969 1711.47 563.179C1710.63 562.269 1710.59 560.839 1710.99 559.669C1711.39 558.499 1712.15 557.479 1712.78 556.419C1712.79 556.979 1713.98 555.549 1715.41 554.379C1717.76 552.429 1720.63 551.229 1723.46 550.059C1724.2 549.759 1725.17 549.499 1725.69 550.099C1726.01 550.459 1726.02 550.989 1726.01 551.459C1725.95 555.389 1725.9 559.319 1725.85 563.239M1803.87 547.339C1802.92 545.879 1801.39 544.919 1800.09 543.739C1796.62 540.589 1794.83 535.849 1794.78 531.159C1794.76 528.859 1795.11 526.449 1794.21 524.329C1793.32 522.199 1790.48 520.679 1788.67 522.109C1788.42 523.569 1789.09 524.999 1789.38 526.439C1789.67 527.879 1789.39 529.709 1788.03 530.279C1787.06 530.689 1785.92 530.269 1784.9 530.459C1782.82 530.849 1781.79 533.439 1779.75 533.989C1779.4 534.079 1779.01 534.109 1778.67 533.949C1777.57 533.419 1778.11 531.799 1778.19 530.569C1778.3 528.829 1776.83 527.139 1775.1 526.989C1774.67 529.279 1774.23 531.569 1773.8 533.869C1773.68 534.449 1773.57 535.049 1773.23 535.539C1772.76 536.189 1771.97 536.509 1771.23 536.799C1768.5 537.849 1765.79 538.919 1763.08 539.969C1763.1 538.749 1763.12 537.489 1762.6 536.389C1762.09 535.289 1760.87 534.409 1759.69 534.679C1758.16 535.039 1757.61 536.939 1757.61 538.519C1757.61 540.089 1757.83 541.829 1756.85 543.069C1754.96 545.479 1750.53 543.669 1748.32 545.799C1747.13 544.219 1748.71 541.039 1746.82 540.399C1745.86 540.069 1744.89 540.959 1744.55 541.909C1744.21 542.869 1744.23 543.919 1743.88 544.869C1742.92 547.369 1739.8 548.099 1737.13 548.459C1734.86 548.779 1732.58 549.089 1730.3 549.399C1730.95 547.189 1733.76 546.629 1736.04 546.359C1738.33 546.089 1741.15 545.189 1741.4 542.899C1731.41 543.229 1721.53 546.139 1712.96 551.269C1712.05 551.809 1710.87 552.369 1710.02 551.739C1709.58 551.399 1709.39 550.839 1709.2 550.319C1708.35 548.059 1706.77 546.089 1704.76 544.779C1696.51 545.799 1688.28 546.819 1680.05 547.839C1678.27 548.049 1676.14 548.549 1675.61 550.259C1682.07 552.769 1688.93 554.199 1695.86 554.459C1698 554.539 1700.2 554.529 1702.21 555.269C1704.22 556.009 1706.05 557.699 1705.54 558.729C1702.66 560.239 1700.24 562.599 1698.67 565.439C1697.36 567.799 1696.54 570.589 1694.37 572.179C1693.11 573.099 1691.52 573.499 1690.22 574.379C1688.31 575.639 1687.16 577.939 1687.25 580.219C1687.3 581.279 1687.61 582.369 1688.36 583.139C1689.38 584.179 1690.96 584.409 1692.41 584.589C1697.11 585.159 1701.83 585.719 1706.53 586.299C1709.24 586.629 1712.13 586.929 1714.58 585.699C1717.01 584.469 1718.54 581.079 1716.88 578.919C1718 579.039 1718.79 580.049 1719.56 580.879C1720.33 581.709 1721.55 582.459 1722.54 581.899C1723.92 581.099 1723.16 578.989 1722.24 577.679C1720.04 574.549 1717.85 571.409 1715.66 568.259C1718.6 568.409 1722.03 568.839 1723.51 571.379C1723.91 572.079 1724.13 572.879 1724.63 573.509C1725.12 574.129 1726.08 574.529 1726.74 574.059C1727.8 573.279 1726.89 571.229 1727.93 570.409C1728.28 570.129 1728.76 570.089 1729.2 570.069C1731.2 569.949 1733.24 569.839 1735.18 570.329C1737.12 570.809 1738.98 571.999 1739.79 573.839C1740.26 574.929 1740.39 576.249 1741.3 576.999C1742.27 577.779 1743.83 577.509 1744.68 576.599C1745.52 575.689 1745.73 574.309 1745.49 573.089C1745.4 572.689 1745.28 572.249 1745.45 571.889C1745.59 571.599 1745.89 571.419 1746.2 571.319C1747.47 570.909 1748.81 571.549 1750.12 571.819C1751.43 572.099 1753.18 571.669 1753.35 570.349C1753.44 569.499 1752.78 568.719 1751.99 568.399C1751.21 568.059 1750.33 568.069 1749.49 568.039C1747.54 567.969 1745.6 567.679 1743.71 567.159C1740.08 566.179 1736.73 564.419 1733.41 562.679C1732.51 562.209 1731.61 561.729 1730.87 561.039C1729.92 560.139 1729.31 558.909 1729.01 557.639C1728.58 555.849 1728.79 553.779 1730.05 552.459C1731.66 550.759 1734.39 550.799 1736.63 551.469C1742.44 553.189 1746.71 558.039 1750.64 562.669C1753.75 566.329 1756.86 569.989 1759.96 573.649C1760.53 574.319 1761.35 575.039 1762.15 574.699C1762.49 574.559 1762.72 574.259 1762.89 573.929C1763.87 571.859 1762.14 569.579 1760.53 567.949C1758.14 565.519 1755.75 563.079 1752.88 560.929C1751.86 558.879 1749.83 557.539 1748.4 555.739C1746.98 553.939 1746.35 550.989 1748.14 549.549C1749.38 548.529 1751.18 548.749 1752.76 549.019C1754.01 549.239 1755.3 549.459 1756.37 550.149C1758.21 551.329 1759.01 553.679 1758.93 555.869C1758.85 558.059 1758.01 560.139 1757.19 562.169C1760.17 563.689 1764.3 560.569 1763.63 557.279C1766.75 557.349 1769.2 559.949 1770.99 562.509C1772.79 565.069 1774.53 567.949 1777.41 569.149C1779.07 568.109 1779.29 565.649 1778.42 563.909C1777.55 562.159 1775.88 560.959 1774.26 559.869C1771.17 557.799 1767.96 555.789 1765.52 552.979C1763.08 550.159 1761.5 546.309 1762.35 542.689C1765.98 541.509 1770.24 542.529 1772.93 545.239C1775.62 547.949 1776.61 552.219 1775.4 555.839C1777.97 556.439 1780.57 553.399 1779.58 550.949C1781.35 550.149 1783.46 550.829 1785.01 551.989C1786.55 553.159 1787.7 554.749 1789.08 556.109C1790.14 557.159 1791.45 558.109 1792.95 558.159C1794.45 558.189 1796.04 556.959 1795.85 555.469C1792.87 553.459 1789.9 551.449 1786.93 549.449C1782.93 546.749 1778.53 543.389 1778.22 538.579C1778.17 537.779 1778.27 536.909 1778.83 536.329C1779.53 535.589 1780.7 535.619 1781.72 535.729C1783.79 535.979 1785.88 536.399 1787.65 537.499C1789.42 538.589 1790.82 540.449 1790.9 542.529C1790.96 543.899 1790.44 545.219 1790.33 546.589C1790.2 547.959 1790.65 549.559 1791.92 550.079C1793.11 550.569 1794.53 549.809 1795.19 548.709C1795.87 547.619 1795.99 546.279 1796.04 544.989C1796.06 544.459 1796.09 543.899 1796.41 543.499C1797.4 542.269 1799.25 543.829 1799.99 545.229C1801.19 547.519 1802.41 549.809 1803.62 552.109C1804.98 551.019 1804.83 548.799 1803.87 547.339ZM1692.62 550.609C1691.74 550.419 1690.83 550.199 1690.18 549.589C1689.52 548.969 1689.28 547.839 1689.91 547.189C1690.73 546.359 1692.1 546.989 1693.27 547.099C1694.52 547.209 1695.71 546.629 1696.97 546.489C1697.96 546.359 1698.98 546.529 1699.98 546.689C1701.45 546.919 1702.93 547.159 1704.4 547.389C1704.72 547.439 1705.04 547.499 1705.27 547.719C1705.52 547.939 1705.59 548.299 1705.66 548.639C1705.86 549.829 1706.07 551.029 1706.28 552.209C1706.41 552.949 1706.19 553.269 1706.03 553.599C1701.54 552.609 1697.07 551.609 1692.62 550.609ZM1712.53 582.119C1711.55 583.319 1709.92 583.839 1708.37 583.979C1705.73 584.209 1703.06 583.569 1700.6 582.549C1700.18 582.369 1699.76 582.179 1699.44 581.849C1699.16 581.549 1699 581.149 1698.86 580.739C1697.81 577.619 1698.29 574.069 1699.81 571.139C1701.32 568.219 1703.81 565.849 1706.63 564.119C1708.92 567.499 1710.42 570.629 1711.93 573.769C1712.56 575.099 1713.2 576.459 1713.45 577.909C1713.69 579.369 1713.47 580.969 1712.53 582.119Z" fill="#23282B"/>
</g>
<defs>
<clipPath id="clip0_101_300">
<rect width="2000" height="1040" fill="white"/>
</clipPath>
</defs>
</svg>
