<svg width="2000" height="1040" viewBox="0 0 2000 1040" fill="none" xmlns="http://www.w3.org/2000/svg">
<g clip-path="url(#clip0_102_3035)">
<rect width="2000" height="1040" fill="#9BAFBD"/>
<path d="M1261.42 706.152L1265.13 710.655C1265.09 710.14 1265.1 709.612 1265.12 709.119C1265.16 708.673 1265.22 708.252 1265.31 707.841C1264 707.267 1262.71 706.71 1261.42 706.152ZM1243.27 684.117L1243.27 684.098L1231.57 669.9L1231.56 669.881L1225.35 662.324L1221.24 657.351L1218.35 653.839L1212 646.128C1209.3 651.945 1208.79 658.877 1210.36 665.123C1212.79 674.834 1219.6 682.971 1227.6 688.915C1235.63 694.894 1244.87 698.926 1254.02 702.914C1256.5 703.995 1258.95 705.059 1261.4 706.146L1261.4 706.127L1243.27 684.117ZM1366.67 602.598C1360.1 600.478 1353.21 598.188 1346.33 595.916C1343.64 595.026 1340.9 594.129 1338.07 593.834C1337.81 593.806 1337.53 593.784 1337.27 593.775C1337.11 593.766 1336.94 593.769 1336.78 593.76C1336.74 593.754 1336.71 593.741 1336.68 593.751C1336.27 593.732 1335.87 593.727 1335.46 593.75C1335.25 593.756 1335.04 593.776 1334.83 593.782C1334.44 593.795 1334.04 593.834 1333.65 593.901C1333.39 593.927 1333.14 593.956 1332.89 594.001C1332.76 594.023 1332.63 594.045 1332.48 594.074C1331.92 594.189 1331.37 594.31 1330.81 594.453C1330.75 594.453 1330.72 594.463 1330.66 594.482C1330.15 594.634 1329.62 594.809 1329.12 595C1328.98 595.048 1328.86 595.108 1328.73 595.171C1328.56 595.229 1328.39 595.308 1328.22 595.384C1328.06 595.46 1327.87 595.546 1327.7 595.622C1327.5 595.711 1327.3 595.819 1327.1 595.92C1326.88 596.035 1326.68 596.133 1326.49 596.241L1326.46 596.228C1326.44 596.235 1326.45 596.253 1326.45 596.253C1325.7 596.641 1324.98 597.094 1324.28 597.601C1324.17 597.68 1324.06 597.75 1323.94 597.855C1323.83 597.934 1323.7 598.029 1323.6 598.127C1323.58 598.134 1323.54 598.146 1323.52 598.175C1323.5 598.181 1323.48 598.188 1323.47 598.213C1323.28 598.349 1323.1 598.514 1322.91 598.672C1322.91 598.672 1322.91 598.672 1322.89 598.679C1322.61 598.932 1322.33 599.186 1322.06 599.423C1320.52 600.877 1319.22 602.559 1318.24 604.426C1318.2 604.502 1318.19 604.559 1318.13 604.622L1318.05 604.626C1299.87 603.888 1282.34 600.715 1265.51 595.431C1245.22 589.587 1224.82 582.44 1204.65 574.676C1198.29 572.233 1191.71 569.543 1186.33 565.505C1184.49 564.139 1182.82 562.589 1181.3 560.862C1180.8 560.312 1180.34 559.719 1179.89 559.1C1189.91 553.03 1201.14 549.15 1212.28 545.342C1230.51 546.728 1250.65 541.653 1267.85 531.489C1275.78 527.427 1284.53 521.964 1289.08 513.31C1290.3 510.971 1291.18 508.472 1291.83 505.944C1292.24 504.362 1292.55 502.758 1292.77 501.126C1293.63 495.047 1293.16 488.802 1290.89 483.107C1288.01 475.89 1282.1 469.771 1274.66 467.548C1270.4 466.268 1265.35 466.442 1261.98 469.363C1251.86 476.132 1240.16 482.1 1227.53 484.553C1219.67 486.1 1211.61 486.259 1203.61 486.665C1163.33 488.735 1123.37 497.215 1085.74 511.718C1065.02 521.256 1042.6 532.16 1020.18 543.07C1017.35 544.45 1014.33 545.834 1011.27 546.744C1010.1 547.093 1008.91 547.377 1007.72 547.543C1004.76 548.029 1001.85 547.876 999.074 546.676C996.815 546.104 994.591 545.51 992.357 544.951C921.004 526.693 847.932 510.889 774.442 497.303C732.036 486.111 685.8 467.143 642.035 443.529C601.347 427.869 558.007 412.445 514.152 398.722C469.912 391.942 424.896 383.66 379.858 373.931C357.239 369.068 334.658 363.812 312.111 358.219L312.086 358.206C311.079 357.942 310.042 357.678 309.017 357.421C307.814 356.632 306.646 355.853 305.439 355.055C305.414 355.043 305.414 355.043 305.414 355.043C304.357 354.342 303.29 353.645 302.213 352.92C295.413 348.397 288.581 343.874 281.702 339.335C224.058 301.283 164.773 262.706 105.49 224.17C95.9958 217.998 86.4256 211.756 78.4178 203.788C77.2838 202.671 76.175 201.502 75.0947 200.325C64.386 188.484 56.8795 174.052 48.6373 160.288C17.0417 107.535 -27.5784 62.7757 -79.8426 30.4829C-99.2478 18.4993 -119.722 8.23456 -140.98 -0.090332L22.7685 488.384C48.8597 500.932 77.4837 509.614 106.776 513.495C108.486 514.599 110.186 515.706 111.933 516.797C112.205 516.98 112.481 517.141 112.753 517.324C114.203 518.219 115.653 519.115 117.141 519.998C117.267 520.093 117.413 520.181 117.584 520.282C118.397 520.789 119.23 521.291 120.066 521.77C121.249 522.502 122.437 523.211 123.658 523.898C124.586 524.463 125.526 525.002 126.488 525.544C129.682 527.395 132.911 529.192 136.187 530.942L138.114 531.972C139.573 532.77 141.055 533.539 142.536 534.308C144.017 535.077 145.527 535.837 147.008 536.606C148.084 537.142 149.167 537.696 150.243 538.232C151.325 538.787 152.42 539.316 153.509 539.827C155.262 540.684 157 541.525 158.753 542.351C161.636 543.747 164.535 545.064 167.447 546.387C168.39 546.809 169.323 547.234 170.263 547.647C171.545 548.23 172.824 548.772 174.143 549.342C175.419 549.906 176.741 550.454 178.039 551.021C180.817 552.23 183.608 553.383 186.403 554.513C187.96 555.162 189.539 555.782 191.115 556.425C193.203 557.243 195.292 558.062 197.364 558.865C197.44 558.903 197.504 558.934 197.589 558.969C199.019 559.523 200.494 560.083 201.943 560.631C204.158 561.481 206.389 562.315 208.623 563.127C230.159 571.243 253.501 579.429 271.304 595.504C277.23 600.847 282.423 606.996 288.737 611.893C297.134 618.412 307.178 622.449 317.02 626.416C326.117 633.513 337.951 635.842 349.471 637.612C361.102 639.398 372.786 640.745 384.491 641.651C408.386 647.489 431.399 659.634 456.421 662.7C461.545 663.324 466.858 663.6 471.511 665.868C499.386 669.518 526.879 673.474 554.332 677.719C579.845 677.404 605.723 677.925 631.566 678.438C670.82 680.635 709.992 683.282 749.119 686.672C788.456 691.604 828.255 698.038 867.882 705.469C900.238 711.159 932.127 726.309 966.181 729.48C967.518 730.73 968.886 731.98 970.273 733.192C971.429 734.249 972.588 735.285 973.798 736.314L973.817 736.307C975.28 737.589 976.756 738.845 978.219 740.094C979.695 741.351 981.18 742.603 982.712 743.809C984.166 744.998 985.629 746.185 987.139 747.356C987.146 747.375 987.165 747.368 987.171 747.387C987.257 747.454 987.358 747.536 987.431 747.596C988.229 748.246 989.074 748.88 989.907 749.508L991.876 751.009C993.415 752.171 994.979 753.344 996.531 754.48C997.693 755.335 998.852 756.181 1000.03 757.01C1000.56 757.379 1001.08 757.764 1001.62 758.133C1001.85 758.288 1002.05 758.452 1002.3 758.591C1003.71 759.613 1005.18 760.61 1006.64 761.616L1006.65 761.635C1008.43 762.83 1010.21 764.026 1012.03 765.19C1013.63 766.246 1015.25 767.306 1016.88 768.322C1018.63 769.432 1020.38 770.523 1022.14 771.589C1023.03 772.122 1023.92 772.648 1024.79 773.178C1025.66 773.708 1026.54 774.225 1027.43 774.729C1028.29 775.262 1029.15 775.745 1030.02 776.233C1031.5 777.097 1032.99 777.949 1034.5 778.762C1035.88 779.522 1037.27 780.291 1038.66 781.025C1039.76 781.618 1040.82 782.189 1041.91 782.743C1042.04 782.857 1042.22 782.913 1042.38 782.995C1043.42 783.544 1044.47 784.089 1045.51 784.638C1045.95 784.858 1046.42 785.091 1046.89 785.325C1048.39 786.106 1049.94 786.875 1051.47 787.625C1076.77 801.651 1101.96 815.589 1127.12 829.523C1129.64 830.705 1132.2 832.051 1134.79 833.397C1136.66 834.383 1138.59 835.382 1140.54 836.344C1140.65 836.4 1140.75 836.451 1140.86 836.489C1141.4 836.772 1141.96 837.037 1142.51 837.295C1144.25 838.115 1146.02 838.905 1147.82 839.588C1152.51 841.389 1157.37 842.64 1162.05 844.542C1163.16 844.992 1164.25 845.48 1165.35 846.01C1165.85 846.23 1166.34 846.479 1166.83 846.734C1168.93 847.762 1170.96 848.875 1172.99 850.006C1174.83 851.025 1176.68 852.084 1178.53 853.077C1180.21 853.988 1181.94 854.877 1183.68 855.696C1187.69 857.59 1191.98 859.145 1196.37 859.795C1200 860.393 1203.69 860.323 1207.26 859.381C1214.38 858.417 1220.94 853.065 1224.86 846.329C1225.39 845.436 1225.87 844.515 1226.3 843.569C1229.16 837.486 1230.25 830.635 1230.19 823.893C1229.01 819.417 1225.96 815.587 1222.91 811.936C1220.37 808.895 1217.74 805.854 1215.06 802.915C1214.03 801.762 1212.99 800.645 1211.95 799.537C1210.66 798.125 1209.34 796.752 1208 795.366L1207.77 795.094C1212.42 794.201 1217.21 795.749 1221.27 798.028C1223.31 799.179 1225.26 800.529 1227.21 801.835C1229.12 803.125 1231.04 804.412 1233.1 805.452C1237.93 807.945 1243.33 809.131 1248.65 810.333C1254.8 811.604 1261.9 812.841 1268.67 811.14C1275.42 809.459 1281.11 805.041 1286.35 800.479C1289.72 796.523 1291.27 791.856 1291.8 787.112C1291.88 786.698 1291.91 786.255 1291.94 785.822C1292.29 781.517 1291.84 777.163 1291.15 772.892C1289.46 766.403 1285.08 760.14 1279.18 755.979C1276.61 754.174 1273.81 752.772 1271.02 751.331C1257.5 744.274 1244.55 736.087 1232.33 726.871C1233.41 727.343 1234.51 727.797 1235.62 728.247C1235.87 728.354 1236.12 728.448 1236.39 728.559C1236.46 728.577 1236.5 728.615 1236.57 728.634C1255.1 736.24 1274.37 741.836 1294.04 745.451C1294.83 745.599 1295.61 745.746 1296.41 745.881L1296.43 745.874C1302.39 746.933 1308.36 747.802 1314.39 748.481C1320.05 748.301 1326 748.151 1331.34 745.897C1335.74 744.055 1339.4 740.855 1342.98 737.725C1345.5 734.467 1347.45 730.773 1348.82 726.783C1351.19 719.942 1351.83 712.304 1350.58 704.97C1350.33 703.462 1350 701.948 1349.33 700.538C1348.68 699.164 1347.74 697.938 1346.78 696.719C1340.03 688.016 1333.17 679.284 1325.42 671.461L1325.26 671.262C1324.93 670.927 1324.61 670.624 1324.28 670.28C1323.87 669.851 1323.46 669.45 1323.03 669.023C1323.16 669.055 1323.28 669.077 1323.43 669.102C1324.46 669.303 1325.52 669.475 1326.57 669.631C1327.33 669.766 1328.09 669.859 1328.84 669.956C1329.78 670.103 1330.72 670.221 1331.66 670.34C1332.39 670.412 1333.13 670.489 1333.85 670.555C1334.57 670.639 1335.28 670.717 1336 670.75C1336.17 670.769 1336.33 670.797 1336.5 670.794C1336.8 670.809 1337.09 670.827 1337.39 670.843C1337.47 670.858 1337.56 670.861 1337.63 670.858C1338.15 670.895 1338.68 670.916 1339.21 670.928C1340.05 670.965 1340.89 670.989 1341.73 671.003C1343.61 671.038 1345.49 670.987 1347.36 670.867C1351.38 670.594 1355.43 669.974 1359.34 668.876C1359.72 668.746 1360.11 668.638 1360.51 668.527C1364.02 667.423 1367.39 665.944 1370.49 664.01C1370.88 663.784 1371.28 663.512 1371.64 663.255C1374.28 661.492 1376.73 659.439 1379.17 657.398C1383.28 654.637 1386.15 650.458 1387.84 645.822C1388.65 643.544 1389.18 641.184 1389.44 638.799C1390.17 631.518 1388.59 624.2 1386.32 617.241C1382.06 610.506 1374.86 604.937 1366.67 602.598Z" fill="#FDD5C8"/>
<path d="M335.701 413.74C336.247 423.861 333.408 433.799 330.322 443.44C326.029 456.902 319.543 471.912 306.07 476.176C294.565 479.8 280.294 474.607 271.045 482.348C266.113 486.48 264.205 493.216 259.918 497.985C251.886 506.933 237.469 506.872 226.497 501.986C215.559 497.077 206.814 488.418 197.068 481.433C195.894 480.604 194.729 479.803 193.516 479.017C193.51 478.998 193.51 478.998 193.51 478.998C185.801 473.904 177.572 469.807 169.091 466.122C150.473 458.061 130.705 452.106 112.636 442.849C79.593 425.892 52.7959 398.087 18.858 383.023C7.2088 377.847 -5.26315 374.181 -17.0981 369.458L-39.0801 303.884C-21.7567 311.577 -4.2402 319.342 10.5036 331.201C23.5088 341.649 34.1475 355.106 48.4556 363.683C67.4486 375.003 90.6463 376.371 111.527 383.694C127.006 389.126 141.09 397.788 155.043 406.379C171.017 416.243 186.975 426.092 202.961 435.931C216.469 444.259 231.172 452.915 247.01 451.835C258.807 451.002 269.602 444.789 278.605 437.099C284.226 432.251 289.393 426.68 292.762 420.055C299.012 407.708 298.433 393.021 295.801 379.443C293.093 365.48 288.32 351.966 281.724 339.369C288.6 343.899 295.436 348.431 302.236 352.954C303.312 353.68 304.389 354.374 305.437 355.077C305.437 355.077 305.437 355.077 305.462 355.09C312.749 363.521 319.254 372.636 324.798 382.316C330.38 391.983 335.107 402.559 335.701 413.74Z" fill="#E0AFA1"/>
<path d="M1007.73 547.54C1007.61 547.875 1007.49 548.211 1007.37 548.546C1000.53 567.323 995.211 586.593 996.026 606.391C996.474 617.136 998.461 628.915 992.383 637.777C990.471 640.537 987.926 642.762 985.688 645.273C978.571 653.238 974.898 663.709 972.731 674.17C969.792 688.497 969.368 703.278 971.531 717.751C971.531 717.751 971.528 717.774 971.543 717.789C971.729 719.067 971.93 720.36 972.179 721.637C973.044 726.451 974.169 731.474 973.814 736.266C972.607 735.247 971.435 734.205 970.283 733.157C968.911 731.929 967.537 730.692 966.187 729.436C932.14 726.252 900.257 711.121 867.898 705.421C828.28 697.987 788.469 691.547 749.147 686.63C710.024 683.25 670.836 680.588 631.594 678.397C605.742 677.887 579.877 677.372 554.345 677.693C526.899 673.436 499.412 669.499 471.533 665.84C466.874 663.583 461.552 663.311 456.437 662.684C431.409 659.631 408.411 647.47 384.516 641.632C372.805 640.738 361.118 639.382 349.5 637.603C337.958 635.829 326.143 633.494 317.045 626.397C307.185 622.436 297.163 618.402 288.756 611.886C282.442 606.989 277.236 600.835 271.31 595.491C253.524 579.431 230.188 571.233 208.642 563.121C206.408 562.309 204.168 561.478 201.943 560.631C200.494 560.083 199.042 559.526 197.599 558.965C197.507 558.943 197.434 558.915 197.368 558.874C195.286 558.074 193.197 557.256 191.115 556.425L164.755 529.011C164.755 529.011 164.761 528.904 164.764 528.724C164.778 527.886 164.84 525.302 164.954 521.551C165.362 508.863 166.463 482.76 169.066 466.141C170.01 459.96 171.175 455.098 172.565 452.702C179.098 454.224 185.659 455.548 192.257 456.7L192.28 456.703C209.307 459.707 226.561 461.496 243.862 462.108C253.669 462.449 263.659 462.359 273.052 459.548C281.251 457.074 288.732 452.615 295.395 447.259C300.584 443.104 305.385 438.362 308.965 432.743C317.408 419.577 318.442 402.714 315.171 387.42C312.621 375.376 307.656 364.026 302.204 352.955C303.277 353.671 304.347 354.377 305.414 355.074C305.414 355.074 305.414 355.074 305.43 355.09C306.636 355.888 307.814 356.664 309.008 357.455C310.042 357.71 311.08 357.974 312.083 358.228L312.098 358.244C326.712 373.268 341.608 389.168 347.638 409.201C353.909 429.953 349.275 453.697 335.665 470.579C322.036 487.466 299.831 497.019 278.211 495.292C272.445 494.83 264.448 495.138 263.525 500.879C263.231 502.676 263.873 504.465 264.518 506.168C271.108 523.249 281.093 539.002 293.736 552.24C294.839 553.389 296.074 554.589 297.643 554.801C299.756 555.095 301.654 553.552 303.22 552.088C315.439 540.873 327.651 529.67 339.867 518.445C342.535 515.99 345.399 513.427 348.936 512.652C355.255 511.272 361.313 515.971 365.091 521.201C368.892 526.434 371.615 532.609 376.657 536.635C384.614 543.007 396.171 542.275 405.83 539.059C415.482 535.855 424.457 530.536 434.433 528.489C437.791 527.807 441.465 527.535 444.509 529.13C447.953 530.939 449.835 534.696 451.333 538.286C459.405 557.644 462.585 579.022 457.969 596.274C473.51 604.627 492.929 599.225 508.436 590.768C523.935 582.323 538.194 570.867 555.329 566.579C569.895 562.93 585.222 564.826 600.132 566.736C621.011 569.43 642.115 572.164 661.876 579.419C637.265 580.603 612.776 584.098 588.835 589.824C628.13 612.153 680.612 595.888 720.357 617.422C708.335 621.453 695.892 624.168 683.287 625.514C708.145 630.797 733.013 636.109 757.871 641.392C763.518 642.6 769.964 643.645 774.597 640.193C771.464 636.919 773.311 631.069 777.057 628.527C780.809 626.003 785.619 625.846 790.134 625.756C807.801 625.476 825.469 625.197 844.252 624.753C855.093 634.788 854.03 654.709 842.18 663.533C858.154 667.892 875.057 666.181 891.6 666.858C908.146 667.544 925.918 671.448 936.742 683.977C937.658 685.042 938.555 686.302 938.453 687.696C938.256 691.074 933.377 691.37 930.084 690.576C913.501 686.695 896.917 682.783 880.337 678.881C899.901 689.324 920.767 697.296 942.282 702.581C946.085 703.511 950.418 704.262 953.605 702.034C961.483 696.524 954.753 679.342 964.078 677.05C959.791 670.429 955.539 663.817 951.268 657.212C949.607 654.647 947.781 651.937 944.993 650.731C942.265 649.547 939.141 650.014 936.166 650.199C919.155 651.335 901.863 641.817 893.707 626.832C904.854 630.668 916.527 632.925 928.282 633.541C932.153 633.73 937.492 632.32 937.131 628.444C936.967 626.695 935.551 625.367 934.164 624.249C927.688 619.027 920.061 615.213 911.978 613.124C912.586 608.174 919.51 607.435 924.404 608.442C935.128 610.669 945.953 614.644 956.736 612.77C967.532 610.902 977.765 599.835 973.691 589.663C969.946 580.287 956.469 576.768 954.621 566.851C960.534 562.812 968.11 569.554 975.291 569.456C982.599 569.327 987.763 562.111 989.886 555.135C990.424 553.372 990.864 551.569 991.243 549.744C991.617 548.153 991.952 546.542 992.329 544.961C994.563 545.52 996.796 546.11 999.046 546.685C1001.87 547.857 1004.8 548.016 1007.73 547.54Z" fill="#E0AFA1"/>
<path d="M1143.05 827.033C1142.88 830.442 1142.71 833.845 1142.53 837.235C1141.98 836.977 1141.42 836.712 1140.88 836.429C1140.77 836.391 1140.67 836.34 1140.56 836.284C1138.62 835.319 1136.69 834.333 1134.81 833.337C1132.22 831.981 1129.66 830.645 1127.15 829.463C1101.98 815.529 1076.79 801.594 1051.5 787.565C1049.96 786.815 1048.41 786.046 1046.91 785.265C1046.44 785.032 1045.97 784.798 1045.53 784.578C1044.49 784.029 1043.44 783.484 1042.4 782.935C1042.24 782.854 1042.06 782.797 1041.93 782.683C1040.85 782.129 1039.78 781.558 1038.68 780.965C1037.28 780.221 1035.9 779.462 1034.52 778.702C1033.02 777.876 1031.52 777.037 1030.04 776.173C1029.17 775.685 1028.31 775.193 1027.45 774.669C1026.56 774.165 1025.68 773.648 1024.81 773.118C1023.93 772.591 1023.06 772.071 1022.16 771.529C1020.4 770.463 1018.65 769.372 1016.9 768.262C1015.27 767.246 1013.65 766.196 1012.05 765.13C1010.24 763.966 1008.45 762.77 1006.67 761.575L1006.66 761.556C1005.2 760.55 1003.74 759.553 1002.32 758.531C1002.08 758.398 1001.87 758.237 1001.64 758.073C1001.1 757.704 1000.58 757.319 1000.05 756.95C998.872 756.121 997.714 755.275 996.552 754.42C995 753.284 993.436 752.111 991.897 750.95L989.928 749.448C989.092 748.81 988.256 748.173 987.451 747.536C987.372 747.488 987.271 747.406 987.192 747.327C987.185 747.308 987.167 747.315 987.16 747.296C985.659 746.122 984.187 744.939 982.733 743.749C981.201 742.543 979.706 741.294 978.24 740.034C976.77 738.797 975.291 737.532 973.838 736.247L973.819 736.254C972.615 735.212 971.447 734.18 970.294 733.132C968.916 731.917 967.538 730.67 966.202 729.42C932.154 726.237 900.269 711.096 867.902 705.409C828.276 697.978 788.477 691.544 749.139 686.612C710.013 683.222 670.84 680.575 631.586 678.378C605.734 677.869 579.866 677.343 554.353 677.659C526.9 673.414 499.41 669.467 471.531 665.808C466.882 663.549 461.556 663.267 456.442 662.64C431.41 659.577 408.406 647.429 384.512 641.591C372.807 640.685 361.113 639.342 349.492 637.552C337.972 635.782 326.138 633.453 317.041 626.356C307.199 622.389 297.155 618.352 288.758 611.833C282.444 606.936 277.241 600.791 271.325 595.444C253.525 579.378 230.189 571.18 208.644 563.067C206.4 562.259 204.182 561.431 201.964 560.571C200.515 560.023 199.04 559.463 197.61 558.909C197.524 558.874 197.452 558.846 197.385 558.805C195.303 558.005 193.214 557.187 191.135 556.365C189.559 555.722 187.98 555.102 186.424 554.453C183.629 553.323 180.851 552.176 178.06 550.961C176.765 550.403 175.452 549.852 174.164 549.282C172.844 548.711 171.566 548.17 170.284 547.587C169.347 547.184 168.411 546.749 167.468 546.327C164.547 545.007 161.654 543.677 158.774 542.291C157.017 541.456 155.27 540.618 153.53 539.767C152.441 539.256 151.346 538.727 150.264 538.172C149.187 537.636 148.105 537.082 147.029 536.546C145.548 535.777 144.038 535.017 142.557 534.248C141.075 533.479 139.585 532.713 138.135 531.912L136.207 530.882C132.932 529.132 129.703 527.335 126.509 525.484C125.55 524.952 124.607 524.403 123.679 523.838C122.461 523.161 121.261 522.445 120.086 521.71C119.241 521.234 118.418 520.729 117.605 520.222C117.434 520.121 117.288 520.032 117.161 519.938C115.674 519.055 114.224 518.159 112.774 517.264C112.502 517.081 112.226 516.92 111.954 516.737C110.207 515.646 108.507 514.539 106.797 513.435C77.4825 509.614 48.8585 500.932 22.7673 488.384L-27.2324 339.231C-12.5412 351.783 2.94494 363.213 20.8711 370.156C32.3957 374.614 44.7772 377.129 55.6118 383.116C68.792 390.405 78.84 402.414 91.6861 410.342C104.187 418.059 118.743 421.553 132.504 426.738C147.291 432.307 161.237 439.867 175.135 447.379C180.845 450.474 186.568 453.576 192.278 456.672L192.303 456.684C205.065 463.607 217.859 470.561 230.64 477.478C233.761 479.174 237.047 481.015 238.798 484.13C240.523 487.232 239.848 491.983 236.549 493.279C233.961 494.336 231.1 492.944 228.606 491.67C217.515 485.959 205.672 481.682 193.518 478.995C193.511 478.976 193.511 478.977 193.511 478.977C192.126 478.682 190.74 478.387 189.348 478.136C195.971 487.665 205.044 495.477 219.367 503.532C215.37 503.817 211.393 504.096 207.399 504.39C207.751 517.867 220.27 527.213 230.891 535.518C245.571 546.997 258.758 560.411 270.038 575.277C274.586 581.293 278.993 587.705 285.403 591.758C291.105 595.394 298.112 596.884 303.425 601.125C308.09 604.877 311.831 610.911 317.825 611.359C320.962 611.594 323.945 610.141 326.903 609.023C335.606 605.694 345.345 605.045 355.036 608.377C380.567 607.297 406.509 606.278 431.352 612.21C436.373 613.406 441.337 614.906 446.464 615.444C454.07 616.269 462.515 615.189 468.686 619.723C471.042 621.465 472.848 623.896 475.223 625.632C486.967 634.204 503.427 621.609 517.647 624.604C522.866 625.702 527.625 628.917 532.94 628.949C538.553 628.955 543.541 625.459 548.987 624.276C561.578 621.5 573.105 630.936 584.531 636.893C606.291 648.224 632.113 647.415 656.593 646.349C665.848 645.957 675.088 645.549 680.362 644.952C727.902 666.71 780.305 677.831 832.595 677.23C840.725 677.13 849 676.772 856.862 678.893C861.472 680.153 865.795 682.226 870.14 684.208C900.534 698.045 932.894 707.553 966.37 711.487C968.085 713.58 969.799 715.674 971.57 717.748C971.57 717.748 971.558 717.774 971.583 717.786C983.006 731.476 995.163 744.771 1010.73 753.295C1021.6 759.26 1033.71 762.636 1044.69 768.404C1059.3 776.111 1071.57 787.955 1086.75 794.405C1098.29 799.322 1111.61 801.27 1120.64 809.969C1124.93 814.102 1130.14 820.126 1135.46 817.467C1136.77 820.551 1138.96 823.236 1141.46 825.594C1141.95 826.092 1142.5 826.572 1143.05 827.033Z" fill="#99685A"/>
<path d="M109.795 494.026C123.964 502.628 136.001 514.53 150.592 522.379C159.366 527.095 168.874 530.257 178.328 533.384C159.24 514.417 135.3 500.358 109.795 494.026Z" fill="#BF9184"/>
<path d="M48.6401 160.297C56.8823 174.061 64.392 188.503 75.107 200.331C55.299 193.218 36.0717 185.414 21.2979 170.792C10.1605 159.749 2.61358 145.731 -5.31513 132.21C-26.5896 95.8671 -51.617 61.7634 -79.8398 30.4922C-27.5724 62.7945 17.0508 107.563 48.6401 160.297Z" fill="#E0AFA1"/>
<path d="M200.469 350.63C194.683 358.76 182.141 356.52 172.837 352.9C157.971 347.094 143.631 339.93 130.063 331.548C115.232 322.418 101.218 311.76 85.2331 304.821C73.7392 299.825 61.4708 296.892 49.5142 293.127C23.6075 284.937 -4.67456 278.344 -22.1135 262.253C-31.3714 253.702 -44.0203 250.137 -55.7349 245.49C-56.8773 245.039 -58.0197 244.557 -59.1621 244.044L-75.2195 196.144C-73.1279 195.052 -70.7825 194.498 -68.2397 194.658C-64.2801 194.892 -60.6024 196.739 -57.0608 198.526C22.663 239.079 102.374 279.626 182.098 320.18C188.133 323.24 194.372 326.464 198.577 331.805C202.811 337.104 204.412 345.12 200.469 350.63Z" fill="#FEE4DB"/>
<path d="M377.07 467.678C380.142 457.272 383.242 446.699 383.306 435.845C383.373 425.002 380.008 413.642 371.957 406.364C383.667 409.927 395.373 413.48 407.083 417.043C440.962 427.339 474.841 437.634 508.441 448.794C502.878 455.985 493.572 460.096 484.52 459.365C478.362 458.866 472.539 456.315 466.435 455.408C457.145 454.029 447.754 456.503 438.682 458.953C431.643 460.859 424.601 462.756 417.561 464.662C403.736 468.411 389.455 472.185 377.07 467.678Z" fill="#FEE4DB"/>
<path d="M1011.3 546.734C1010.07 547.473 1008.76 548.07 1007.36 548.537C1002.56 550.117 996.85 550.269 991.277 549.722C988.452 549.445 985.678 549.004 983.059 548.49C876.489 527.398 769.422 506.147 667.356 468.917C624.055 443.101 577.347 423.385 529.241 408.06C513.842 403.15 498.254 398.683 482.305 396.098C447.602 390.455 408.21 392.344 379.863 373.918C424.904 383.657 469.924 391.948 514.16 398.719C558.022 412.429 601.353 427.856 642.043 443.526C685.796 467.134 732.051 486.095 774.448 497.29C847.937 510.877 921.019 526.677 992.369 544.926C994.603 545.485 996.836 546.076 999.085 546.65C1001.87 547.838 1004.79 547.997 1007.73 547.518C1008.92 547.371 1010.12 547.087 1011.3 546.734Z" fill="#E0AFA1"/>
<path d="M1368.88 639.574C1367.66 646.72 1362.99 652.812 1357.85 657.918C1352.41 663.329 1346.05 668.118 1338.68 670.243C1337.96 670.44 1337.26 670.634 1336.53 670.771C1332.89 671.571 1329.18 671.73 1325.46 671.416C1317.97 670.835 1310.47 668.457 1303.35 665.863C1265.84 652.155 1230.83 632.242 1198.18 609.225C1190.1 603.515 1181.72 597.056 1178.5 587.714C1175.7 579.573 1178.97 568.92 1186.35 565.499C1191.73 569.537 1198.3 572.227 1204.67 574.67C1224.84 582.43 1245.24 589.59 1265.52 595.424C1282.37 600.715 1299.89 603.869 1318.08 604.616L1318.16 604.622C1318.2 604.556 1318.22 604.496 1318.26 604.429C1319.24 602.562 1320.54 600.871 1322.08 599.427C1324.5 597.149 1327.48 595.433 1330.69 594.504C1338.04 597.926 1345.04 602.022 1351.52 607.013C1361.77 614.905 1371.06 626.82 1368.88 639.574Z" fill="#E0AFA1"/>
<path d="M1386.34 617.235C1388.62 624.181 1390.2 631.509 1389.46 638.78C1389.21 641.165 1388.67 643.528 1387.87 645.81C1386.18 650.448 1383.32 654.634 1379.2 657.386C1376.77 659.426 1374.32 661.489 1371.68 663.252C1362.31 664.567 1352.5 662.75 1343.64 658.762C1343.62 658.778 1343.62 658.778 1343.61 658.759C1339.26 656.802 1335.11 654.333 1331.36 651.456C1330.95 651.15 1330.55 650.818 1330.13 650.496C1330.08 650.471 1330.03 650.414 1329.98 650.357C1327.19 648.127 1324.58 645.607 1322.3 642.86C1322.28 642.844 1322.28 642.844 1322.27 642.838C1319.42 639.383 1317.13 635.523 1315.7 631.297C1315.69 631.26 1315.67 631.222 1315.67 631.19C1315.66 631.152 1315.65 631.114 1315.64 631.073C1315.5 630.646 1315.38 630.232 1315.26 629.821C1314.89 628.573 1314.61 627.305 1314.47 626.047C1313.5 619.285 1314.88 612.344 1317.95 606.093C1318.06 605.878 1318.17 605.641 1318.3 605.429C1319.37 603.33 1320.64 601.301 1322.07 599.42C1326.29 595.419 1332.25 593.211 1338.06 593.818C1340.88 594.117 1343.63 595.02 1346.31 595.913C1353.2 598.181 1360.08 600.462 1366.66 602.579C1374.86 604.937 1382.06 610.516 1386.34 617.235Z" fill="#FDD5C8"/>
<path d="M1292.79 501.116C1292.58 502.739 1292.27 504.352 1291.85 505.925C1291.2 508.475 1290.33 510.962 1289.11 513.301C1284.56 521.945 1275.82 527.405 1267.88 531.469C1250.68 541.643 1230.54 546.709 1212.3 545.333C1201.18 549.146 1189.94 553.02 1179.91 559.102C1180.35 559.725 1180.83 560.312 1181.33 560.852C1179.4 560.836 1177.5 560.985 1175.75 561.69C1168.47 564.646 1167.49 575.745 1160.28 578.856C1157.78 574.632 1151.91 572.833 1147.5 574.884C1145 571.352 1142.5 567.815 1140.01 564.284C1139.44 563.463 1138.82 562.54 1138.91 561.541C1139.07 559.662 1141.33 558.883 1143.15 558.441C1162.4 553.804 1178.66 538.354 1184.26 519.38C1191.03 526.781 1202.38 527.988 1212.25 526.261C1222.12 524.533 1231.49 520.422 1241.41 518.954C1251.56 517.482 1264.07 517.663 1269.16 508.756C1269.21 511.311 1272.31 512.877 1274.83 512.379C1277.34 511.866 1279.32 510.041 1281.25 508.349C1284.68 505.387 1288.58 502.613 1292.79 501.116Z" fill="#99685A"/>
<path d="M1156.99 571.133C1161.31 586.589 1157.25 604.131 1146.56 616.109C1145.5 617.296 1144.35 618.484 1143.92 620.009C1143.52 621.43 1143.82 622.934 1143.9 624.405C1144.14 628.531 1142.72 632.73 1140.02 635.862C1134.42 642.348 1124.91 643.322 1116.36 643.982C1107.82 644.642 1098.24 646.018 1093.12 652.882C1091.62 654.893 1090.53 657.345 1088.41 658.677C1085.74 660.377 1082.28 659.785 1079.12 660.031C1073.3 660.486 1068.04 663.926 1062.22 664.474C1057.65 664.909 1053.13 663.512 1048.76 662.141C1041.12 659.744 1033.41 657.329 1026.47 653.34C1020.25 649.762 1014.7 644.964 1008.09 642.193C1001.18 639.299 993.284 638.708 987 634.624C989.106 630.648 991.221 626.669 993.327 622.694C1012.61 630.763 1034.09 633.509 1054.78 630.549C1065.12 629.067 1075.19 626.217 1085.24 623.366C1089.46 622.173 1093.66 620.974 1097.88 619.781C1100.89 618.931 1104.17 617.873 1105.81 615.214C1107.26 612.862 1107.12 609.68 1108.99 607.65C1110.42 606.108 1112.63 605.652 1114.67 605.218C1123.23 603.395 1131.55 600.509 1139.4 596.625C1142.29 595.191 1145.56 592.798 1145.05 589.614C1144.71 587.471 1142.75 586.02 1141.67 584.146C1139.66 580.643 1141.07 575.982 1143.87 573.081C1146.68 570.179 1150.55 568.617 1154.31 567.137C1156.07 567.77 1156.64 569.897 1156.99 571.133Z" fill="#E0AFA1"/>
<path d="M1296.43 745.843C1295.64 745.717 1294.85 745.561 1294.07 745.42C1274.4 741.804 1255.13 736.198 1236.59 728.596C1236.52 728.577 1236.47 728.552 1236.43 728.524C1234.59 727.676 1232.72 726.784 1230.8 725.855C1230.03 721.284 1228.75 716.808 1226.99 712.535C1227.36 710.944 1227.74 709.384 1228.1 707.796C1233.16 711.016 1239.04 714.349 1244.81 712.742C1245.65 712.491 1246.56 712.145 1247.41 712.431C1248.22 712.686 1248.73 713.454 1249.23 714.139C1251.36 717.022 1254.3 719.424 1257.72 720.5C1259.34 721.003 1261 721.237 1262.63 721.607C1265.19 722.172 1267.65 723.111 1269.95 724.334C1273.52 726.279 1276.64 728.936 1279.75 731.574C1280.9 732.568 1282.07 733.547 1283.23 734.55L1283.27 734.591C1287.64 738.338 1292.02 742.077 1296.43 745.843Z" fill="#99685A"/>
<path d="M1387.87 645.812C1386.17 650.451 1383.31 654.637 1379.19 657.389C1376.76 659.429 1374.32 661.492 1371.67 663.255C1371.3 663.515 1370.91 663.771 1370.53 663.997C1367.42 665.944 1364.05 667.423 1360.54 668.514C1360.51 668.45 1360.5 668.359 1360.49 668.267C1357.72 666.95 1354.9 665.617 1352.13 664.215C1352.12 664.199 1352.11 664.211 1352.09 664.196C1344.3 660.3 1336.65 655.978 1330.13 650.496C1330.08 650.471 1330.03 650.414 1329.98 650.357C1327.64 648.388 1325.44 646.279 1323.45 643.961L1323.41 643.92C1322.13 642.44 1320.92 640.864 1319.8 639.215C1318.13 636.735 1316.68 634.006 1315.69 631.196C1315.67 631.158 1315.66 631.12 1315.66 631.079C1315.51 630.652 1315.4 630.238 1315.27 629.827C1314.9 628.579 1314.63 627.311 1314.48 626.053C1314.21 623.919 1314.26 621.781 1314.7 619.652C1315.34 616.495 1317.7 617.358 1318.68 620.847C1320.24 626.451 1324.39 631.716 1330.08 632.857C1333.07 633.478 1336.35 632.938 1339.08 634.322C1344.42 637.004 1346.24 646.067 1352.2 645.513C1353.56 645.393 1354.88 644.699 1356.24 644.813C1358.57 645.012 1359.98 647.324 1361.69 648.912C1366.71 653.463 1374.73 651.628 1380.71 648.453C1382.95 647.25 1385.43 645.88 1387.87 645.812Z" fill="#99685A"/>
<path d="M1362.73 613.411C1364.6 617.55 1364.24 622.439 1362.65 626.705C1362.04 628.312 1361.29 629.841 1360.42 631.326C1359 633.773 1357.28 636.059 1355.55 638.294C1354.79 639.288 1353.92 640.327 1352.74 640.661C1351.82 640.916 1350.83 640.718 1349.89 640.476C1345.55 639.389 1341.37 637.635 1337.35 635.134C1340.77 632.257 1343.81 628.751 1345.88 624.808C1347.08 622.551 1347.96 620.133 1348.45 617.619C1349.77 610.688 1347.73 602.925 1342.36 598.377C1349.43 603.21 1359.15 605.593 1362.73 613.411Z" fill="#E0AFA1"/>
<path d="M1291.18 772.861C1291.87 777.132 1292.31 781.479 1291.96 785.774C1291.93 786.214 1291.9 786.647 1291.84 787.077C1291.31 791.812 1289.74 796.482 1286.38 800.438C1281.15 805.007 1275.45 809.428 1268.7 811.099C1261.93 812.8 1254.81 811.556 1248.66 810.286C1243.36 809.1 1237.96 807.894 1233.11 805.404C1231.05 804.355 1229.14 803.078 1227.23 801.797C1222.39 789.741 1211.33 780.475 1200.03 773.433C1191.21 767.921 1181.84 763.193 1173.68 756.731C1165.49 750.268 1158.41 741.758 1156.2 731.595C1154.36 723.171 1156.57 713.604 1162.49 707.63C1163.73 706.35 1165.13 705.251 1166.7 704.344C1172.73 700.899 1180.23 700.788 1186.96 702.573C1193.69 704.336 1199.81 707.829 1205.87 711.253C1215.78 716.893 1225.7 722.543 1235.62 728.193C1234.52 727.752 1233.43 727.292 1232.35 726.823C1244.54 736.036 1257.5 744.22 1271.03 751.278C1273.81 752.718 1276.62 754.127 1279.19 755.934C1285.1 760.111 1289.48 766.365 1291.18 772.861Z" fill="#E0AFA1"/>
<path d="M1360.4 631.319C1358.99 633.766 1357.27 636.052 1355.54 638.288C1354.77 639.282 1353.91 640.321 1352.72 640.655C1351.81 640.909 1350.82 640.712 1349.88 640.47C1345.54 639.383 1341.36 637.629 1337.34 635.128C1340.76 632.251 1343.79 628.745 1345.87 624.801C1350.27 627.82 1355.22 630.031 1360.4 631.319Z" fill="#99685A"/>
<path d="M1352.12 664.218C1354.53 665.773 1356.95 667.315 1359.35 668.87C1355.46 669.974 1351.4 670.597 1347.38 670.86C1339.39 671.364 1331.39 670.515 1323.44 669.086C1323.31 669.055 1323.19 669.045 1323.05 669.017C1323.47 669.434 1323.89 669.841 1324.31 670.27C1324.64 670.605 1324.95 670.911 1325.27 671.246C1313.96 666.737 1302.55 661.567 1292.06 652.224C1299.44 653.622 1306.83 655.017 1314.22 656.399C1315.69 656.675 1317.39 656.909 1318.59 656.009C1319.73 655.175 1320.05 653.632 1320.23 652.243C1320.69 648.523 1320.79 644.789 1320.49 641.061C1321.06 641.661 1321.67 642.27 1322.27 642.838C1322.28 642.854 1322.28 642.854 1322.3 642.86C1322.67 643.22 1323.05 643.577 1323.41 643.921L1323.45 643.962C1329.55 649.615 1336.56 654.245 1343.61 658.762C1343.62 658.778 1343.62 658.778 1343.63 658.765C1344.12 659.083 1344.61 659.396 1345.1 659.727C1347.44 661.222 1349.75 662.714 1352.09 664.209C1352.1 664.215 1352.11 664.202 1352.12 664.218Z" fill="#99685A"/>
<path d="M1323.44 669.086C1323.75 669.478 1324.05 669.863 1324.31 670.261C1327.35 674.503 1329.26 679.37 1329.27 684.641C1329.27 685.609 1329.21 686.548 1329.1 687.472C1328.17 695.113 1323.49 701.806 1318.09 707.805C1316.33 709.775 1314.48 711.663 1312.66 713.506C1309.97 716.211 1307.19 718.989 1303.68 720.513C1300.18 722.025 1295.72 722.01 1296.49 721.449C1286.11 716.913 1275.69 712.377 1265.31 707.841C1261.55 706.203 1257.8 704.568 1254.03 702.921C1244.89 698.93 1235.64 694.891 1227.62 688.919C1219.6 682.962 1212.81 674.827 1210.37 665.13C1208.79 658.868 1209.32 651.938 1211.99 646.128C1213.45 642.951 1215.55 640.104 1218.31 637.892C1226.33 631.462 1237.88 631.439 1247.73 634.348C1257.59 637.266 1266.49 642.699 1276.08 646.402C1287.02 650.636 1298.82 652.608 1309.32 657.853C1314.68 660.528 1319.74 664.39 1323.44 669.086Z" fill="url(#paint0_linear_102_3035)"/>
<path d="M1328.16 713.796C1328.22 715.155 1327.64 716.469 1327.07 717.703C1324.41 723.447 1321 729.853 1314.83 731.35C1310.66 732.36 1306.32 730.754 1302.5 728.765C1294.83 724.734 1288.12 718.999 1280.27 715.367C1275.45 713.114 1270.35 711.712 1265.13 710.646C1265.08 710.134 1265.08 709.605 1265.11 709.099C1265.15 708.666 1265.2 708.236 1265.3 707.825C1261.53 706.187 1257.79 704.552 1254.02 702.905C1244.88 698.914 1235.62 694.875 1227.61 688.903C1219.58 682.946 1212.79 674.811 1210.35 665.114C1208.77 658.852 1209.31 651.922 1211.98 646.112C1214.25 658.662 1218.14 671.637 1228.87 677.975C1233.09 680.485 1237.96 681.637 1242.42 683.675C1247.59 686.032 1252.2 689.635 1255.76 694.063C1257.8 696.605 1259.57 699.515 1262.38 701.145C1264.82 702.554 1267.69 702.856 1270.46 703.129C1272.2 703.297 1273.92 703.459 1275.64 703.642C1275.66 703.646 1275.66 703.646 1275.69 703.646C1289.82 705.003 1303.96 706.393 1318.07 707.779C1318.29 707.801 1318.54 707.823 1318.76 707.854C1322.81 708.268 1327.96 709.748 1328.16 713.796Z" fill="#99685A"/>
<path d="M1223.85 667.032C1230.4 669.614 1237.07 671.883 1243.83 673.844C1245.64 674.366 1247.59 674.863 1249.37 674.224C1250.79 673.706 1251.86 672.534 1252.85 671.372C1255.8 667.86 1258.53 664.013 1259.79 659.593C1261.05 655.174 1260.66 650.086 1257.83 646.467C1256.26 644.471 1254.1 643.055 1251.94 641.743C1246.6 638.473 1241.03 635.538 1235.31 632.964C1233.47 635.384 1233.94 638.76 1233.44 641.765C1232.97 644.571 1231.6 647.138 1230.38 649.711C1227.58 655.563 1225.42 661.729 1223.85 667.032Z" fill="url(#paint1_linear_102_3035)"/>
<path d="M1348.01 727.296C1348.29 727.116 1348.56 726.941 1348.84 726.764C1347.46 730.738 1345.52 734.438 1343.02 737.702C1339.41 740.83 1335.76 744.017 1331.37 745.868C1326.03 748.132 1320.07 748.263 1314.41 748.452C1308.39 747.77 1302.42 746.901 1296.46 745.842L1296.44 745.839C1295.65 745.714 1294.85 745.557 1294.08 745.416C1291.98 743.557 1290.01 741.527 1288.06 739.523C1286.46 737.868 1284.86 736.22 1283.27 734.582L1283.23 734.541C1279.91 731.118 1276.59 727.696 1273.27 724.274C1269.51 720.397 1265.5 715.888 1265.15 710.649C1265.1 710.137 1265.11 709.609 1265.14 709.103C1265.17 708.669 1265.23 708.239 1265.32 707.828C1265.51 707.132 1265.8 706.486 1266.32 705.995C1267 705.324 1267.95 705.006 1268.87 704.77C1271.11 704.178 1273.37 703.842 1275.66 703.655C1275.68 703.658 1275.68 703.658 1275.72 703.658C1281.82 703.142 1288.11 703.817 1294.28 703.962C1302.79 704.159 1311.98 703.103 1318.34 697.479C1322.04 694.216 1324.76 689.465 1329.11 687.468C1329.58 687.268 1330.05 687.077 1330.56 686.95C1329.99 693.617 1329.42 700.262 1328.85 706.929C1328.5 711.098 1328.15 715.339 1329.13 719.416C1330.11 723.478 1332.66 727.398 1336.55 728.932C1340.26 730.377 1344.59 729.393 1348.01 727.296Z" fill="#99685A"/>
<path d="M1179.63 747.828C1184.93 753.973 1193.93 756.63 1201.71 754.368C1202.83 754.047 1204.02 753.627 1205.12 753.986C1206.59 754.464 1207.28 756.088 1207.98 757.456C1211.84 764.979 1220.3 768.766 1228.23 771.731C1235.39 774.404 1243.37 776.866 1250.5 774.147C1254.53 772.607 1258.92 769.478 1262.68 771.616C1266.11 773.577 1265.97 779.013 1263.28 781.908C1260.59 784.803 1256.4 785.711 1252.46 786.072C1229.56 788.17 1207.57 777.107 1188.31 764.513C1181.67 760.16 1175.07 755.504 1169.95 749.416C1164.83 743.328 1161.28 735.586 1161.63 727.642C1164.56 730.426 1168.33 732.305 1172.32 732.962C1173.82 733.215 1175.49 733.352 1176.57 734.438C1177.7 735.577 1177.76 737.348 1177.99 738.938C1178.7 743.795 1181.59 748.289 1179.63 747.828Z" fill="#E0AFA1"/>
<path d="M1291.96 785.784C1291.94 786.223 1291.9 786.656 1291.85 787.087C1291.31 791.821 1289.75 796.492 1286.38 800.447C1281.15 805.016 1275.45 809.437 1268.7 811.109C1261.93 812.809 1254.82 811.566 1248.66 810.295C1243.36 809.109 1237.96 807.904 1233.12 805.414C1231.06 804.364 1229.14 803.087 1227.24 801.806C1222.39 789.75 1211.33 780.485 1200.03 773.443C1191.21 767.93 1181.84 763.203 1173.68 756.74C1165.5 750.278 1158.41 741.767 1156.2 731.604C1154.37 723.18 1156.57 713.613 1162.5 707.639C1157.49 718.232 1160.93 731.391 1168.1 740.723C1175.39 750.198 1185.89 756.583 1196.13 762.748C1200.2 765.211 1204.27 767.655 1208.33 770.102C1216.69 775.144 1225.27 780.265 1234.83 782.184C1244.41 784.109 1255.34 782.219 1261.89 774.982C1267.91 768.343 1269.02 757.71 1264.48 749.97C1270.81 756.603 1273.28 766.702 1270.71 775.514C1269.89 778.342 1268.58 781.314 1269.43 784.127C1269.9 785.647 1270.95 786.92 1272.03 788.075C1274.96 791.229 1278.68 794.189 1282.97 794.207C1287.29 794.225 1291.6 789.765 1289.93 785.79C1290.61 785.675 1291.29 785.68 1291.96 785.784Z" fill="#99685A"/>
<path d="M1173.34 739.01C1178.29 742.129 1183.43 744.941 1188.74 747.411C1190.36 748.164 1192.07 748.901 1193.85 748.851C1197.15 748.756 1199.73 746.08 1201.9 743.6C1204.67 740.446 1207.54 737.089 1208.41 732.98C1209.57 727.52 1206.81 721.832 1202.75 718.003C1198.69 714.174 1193.47 711.853 1188.37 709.597C1187.19 715.857 1184.23 721.627 1181.31 727.28C1179.11 731.518 1176.93 735.75 1173.34 739.01Z" fill="#FDD5C8"/>
<path d="M1171.64 840.006C1173.51 844.547 1175.82 848.92 1178.56 853.023C1173.1 850.076 1167.8 846.812 1162.08 844.478C1157.41 842.586 1152.53 841.329 1147.85 839.525C1146.05 838.842 1144.28 838.051 1142.54 837.245C1141.97 836.98 1141.43 836.709 1140.87 836.432C1140.24 834.409 1139.81 832.307 1139.43 830.271C1139.1 828.567 1138.79 826.857 1138.59 825.238C1143.7 826.677 1149.66 823.571 1151.41 818.544C1153.74 828.586 1161.77 837.095 1171.64 840.006Z" fill="#99685A"/>
<path d="M1211.97 799.489C1213 800.597 1214.04 801.728 1215.05 802.874C1217.74 805.823 1220.37 808.845 1222.93 811.898C1225.98 815.549 1229.02 819.37 1230.2 823.849C1230.26 830.588 1229.18 837.448 1226.31 843.534C1225.89 844.468 1225.4 845.389 1224.87 846.294C1220.96 853.018 1214.41 858.389 1207.27 859.337C1203.7 860.279 1200.01 860.345 1196.38 859.76C1192 859.097 1187.7 857.555 1183.68 855.652C1181.95 854.842 1180.23 853.95 1178.55 853.039C1176.68 852.04 1174.85 850.987 1173 849.972C1168.04 843.798 1164.9 835.92 1165.92 828.183C1165.93 827.841 1165.99 827.516 1166.04 827.193C1162.64 824.071 1159.35 820.779 1156.22 817.375C1151.75 812.503 1147.57 807.334 1143.76 801.945C1142.34 799.943 1140.95 797.89 1139.76 795.745C1138.78 794.039 1137.95 792.25 1137.29 790.373C1136.37 787.687 1135.92 784.832 1135.9 781.989C1135.89 775.908 1137.96 769.845 1142.05 765.364C1148.04 758.776 1158.33 756.245 1166.44 759.909C1170.13 761.572 1173.2 764.286 1176.21 766.988C1186.81 776.428 1197.41 785.891 1208.01 795.322C1209.35 796.695 1210.66 798.081 1211.97 799.489Z" fill="#E0AFA1"/>
<path d="M1150.17 791.084C1154.25 795.372 1158.6 799.374 1163.22 803.069C1164.6 804.187 1166.09 805.303 1167.83 805.667C1169.01 805.915 1170.23 805.793 1171.41 805.566C1176.7 804.52 1181.46 801.078 1184.12 796.39C1185.98 793.085 1186.79 788.976 1185.35 785.462C1184.37 783.089 1182.5 781.23 1180.67 779.436C1177.56 776.387 1174.45 773.338 1171.34 770.288C1170.08 774.094 1166.08 776.153 1163.46 779.184C1162.3 780.533 1161.4 782.078 1160.29 783.475C1158.5 785.71 1156.19 787.476 1153.9 789.203C1152.95 789.91 1152.01 790.626 1150.17 791.084Z" fill="#FDD5C8"/>
<path d="M1213.66 800.346C1214.17 801.155 1214.64 801.998 1215.06 802.87C1218.65 810.242 1218.88 819.289 1215.36 826.733C1214.68 828.207 1213.86 829.632 1213.59 831.229C1212.94 835.202 1216.06 838.903 1219.59 840.829C1221.72 841.983 1224.04 842.722 1226.32 843.521C1225.89 844.455 1225.41 845.376 1224.88 846.281C1220.96 853.005 1214.41 858.376 1207.27 859.324C1203.71 860.266 1200.02 860.333 1196.38 859.747C1194.15 857.933 1192.09 855.808 1190.14 853.74C1185.65 849.011 1181.13 844.272 1176.65 839.542C1173.06 835.766 1169.46 831.994 1165.93 828.17C1165.94 827.829 1166 827.503 1166.05 827.18C1162.65 824.058 1159.35 820.766 1156.23 817.362C1151.46 811.83 1146.89 806.127 1142.66 800.151C1141.67 798.733 1140.68 797.261 1139.76 795.725C1138.77 794.019 1137.94 792.231 1137.28 790.354C1136.36 787.667 1135.91 784.813 1135.89 781.97C1142.51 793.643 1149.5 805.211 1159.14 814.498C1169.69 824.672 1183.96 831.912 1198.55 830.765C1201.01 830.574 1203.57 830.095 1205.38 828.444C1206.81 827.111 1207.59 825.225 1208.23 823.377C1210.88 815.735 1212.16 807.565 1211.94 799.486C1211.94 799.264 1211.94 799.043 1211.93 798.815L1213.66 800.346Z" fill="#99685A"/>
<path d="M994.474 692.342C994.919 705.06 996.447 709.051 1001.79 715.477C1007.13 721.903 1014.2 726.597 1021.24 731.085C1050.11 749.513 1080.13 766.155 1111.06 780.867C1112.21 781.419 1113.41 781.976 1114.69 782.075C1118.9 782.403 1121.94 777.354 1121.12 773.201C1120.3 769.047 1116.96 765.906 1113.58 763.357C1087.62 743.7 1050.01 741.519 1028.33 717.222C1018.37 706.07 1012.79 691.169 1001.25 681.664C1000.2 680.802 998.924 679.944 997.597 680.231C995.621 680.661 995.056 683.192 995.101 685.213C995.185 690.152 994.361 688.984 994.474 692.342Z" fill="#FEE4DB"/>
<path d="M1056.54 608.603C1060.96 609.576 1066.03 610.273 1069.68 607.572C1076.05 602.862 1073.01 592.451 1076.75 585.468C1083.59 572.757 1106.28 579.577 1114.71 567.872C1118.56 562.518 1117.9 555.031 1121.1 549.245C1123.86 544.237 1129.08 541.199 1134.07 538.398C1148.11 530.507 1162.16 522.624 1176.2 514.733C1177.54 513.975 1178.98 513.112 1179.58 511.688C1181.31 507.546 1174.96 504.884 1170.5 505.262C1136.26 508.135 1112.92 540.648 1082.13 555.905C1073.61 560.122 1064.15 563.253 1057.72 570.249C1054.9 573.312 1052.74 577.063 1049.29 579.371C1044.97 582.262 1039.46 582.392 1034.33 583.204C1029.19 584.019 1023.56 586.16 1021.65 590.989C1019.72 595.821 1045.6 606.193 1056.54 608.603Z" fill="#FEE4DB"/>
<path d="M1208.21 507.585C1223.23 506.623 1238.12 503.825 1252.47 499.278C1260.05 496.875 1267.75 493.807 1273.17 487.992C1274.17 486.931 1275.12 485.674 1275.21 484.219C1275.45 480.49 1270.38 478.908 1266.71 479.591C1260.92 480.676 1255.92 484.116 1250.62 486.702C1235.24 494.223 1217.42 494.436 1200.76 498.449C1198.59 498.968 1196.3 499.63 1194.77 501.271C1193.24 502.911 1192.87 505.831 1194.6 507.267C1195.62 508.125 1197.06 508.233 1198.4 508.269C1203.37 508.374 1208.35 507.92 1208.21 507.585Z" fill="#FEE4DB"/>
<path d="M1255.03 677.832C1258.97 674.594 1262.99 671.25 1265.51 666.822C1268.02 662.394 1268.73 656.565 1265.93 652.303C1264.36 660.563 1262.3 669.607 1255.53 674.587C1253.86 675.81 1251.74 677.123 1251.77 679.191C1254.06 678.589 1256.22 677.539 1255.03 677.832Z" fill="#FEE4DB"/>
<path d="M1222.77 655.953C1225.04 651.858 1226.89 647.516 1228.24 643.023C1228.94 640.723 1229.08 637.51 1226.83 636.682C1221.99 640.488 1220.15 646.885 1218.59 652.839C1218.21 654.285 1217.89 655.965 1218.82 657.13C1219.74 658.299 1221.94 657.432 1222.77 655.953Z" fill="#FDD5C8"/>
<path d="M1176.93 723.917C1179.49 719.842 1180.76 714.964 1180.53 710.158C1180.49 709.108 1180.33 707.97 1179.59 707.215C1178.06 705.649 1175.43 706.764 1173.64 708.029C1170.99 709.899 1168.38 712.019 1166.82 714.871C1165.27 717.723 1164.96 721.454 1166.82 724.12C1169.44 727.863 1174.97 727.041 1176.93 723.917Z" fill="#FDD5C8"/>
<path d="M1149.33 780.587C1151.11 778.715 1153.55 777.645 1155.83 776.459C1158.12 775.269 1160.43 773.798 1161.6 771.497C1162.77 769.196 1162.3 765.892 1160.01 764.71C1157.26 763.301 1154.11 765.558 1151.86 767.665C1149.98 769.41 1148.12 771.153 1146.25 772.899C1145.28 773.801 1144.28 774.761 1143.94 776.036C1143.19 778.849 1147.68 782.332 1149.33 780.587Z" fill="#FDD5C8"/>
<path d="M547.484 494.442C570.138 387.717 618.266 286.48 686.724 201.526C706.122 177.463 728.19 163.853 753.769 143.033C705.412 149.076 663.743 217.825 629.732 265.751C619.442 280.802 609.152 295.853 598.86 310.894C596.062 306.042 588.78 312.069 588.201 317.642C587.623 323.215 587.455 330.77 581.968 331.892C580.862 327.147 577.63 322.947 573.325 320.678C552.674 375.768 543.098 434.982 547.484 494.442Z" fill="#AD0000"/>
<path d="M613.268 351.394C620.072 350.548 626.802 349.072 633.341 346.996C635.067 346.449 636.846 345.811 638.08 344.49C639.315 343.169 639.769 340.939 638.619 339.553C637.881 338.672 636.697 338.319 635.568 338.129C632.007 337.54 628.244 338.179 625.082 339.914C620.106 342.658 616.864 347.805 613.268 351.394Z" fill="#AD0000"/>
<path d="M780.797 140.912C787.53 141.239 794.348 139.713 800.297 136.537C802.158 135.544 804.11 134.131 804.388 132.034C804.809 128.855 801.043 126.648 797.839 126.688C791.907 126.768 787.041 131.099 782.202 134.535C775.949 138.973 768.798 140.326 780.797 140.912Z" fill="#AD0000"/>
<path d="M703.367 207.506C717.576 206.192 732.656 203.858 748.326 200.545C755.635 199.002 763.354 197.142 771.133 193.67C778.913 190.197 786.775 184.703 788.766 180.228C791.711 173.63 780.506 172.893 769.099 176.591C757.693 180.288 746.361 186.818 735.11 192.52C717.341 201.525 699.285 207.883 703.367 207.506Z" fill="#AD0000"/>
<path d="M589.347 288.749C592.135 280.643 596.97 273.327 599.578 265.154C602.186 256.981 602.058 247.036 595.992 240.959C595.225 240.183 594.332 239.469 593.263 239.237C591.223 238.782 589.217 240.193 587.879 241.802C582.06 248.794 583.554 259.135 585.83 267.938C588.109 276.751 590.766 286.502 589.347 288.749Z" fill="#AD0000"/>
<path d="M615.459 497.368C597.436 496.902 579.188 497.366 561.212 498.741L560.678 498.783C556.925 499.071 553.049 499.368 548.959 498.936C545.021 498.516 541.275 497.44 537.982 496.488L485.629 467.927L541.556 484.057C544.615 484.941 547.501 485.777 550.31 486.069C553.219 486.381 556.353 486.132 559.663 485.876L560.207 485.831C578.628 484.434 615.459 497.368 615.459 497.368Z" fill="#AD0000"/>
</g>
<defs>
<linearGradient id="paint0_linear_102_3035" x1="1258.54" y1="698.731" x2="1277.55" y2="649.429" gradientUnits="userSpaceOnUse">
<stop stop-color="#E0AFA1"/>
<stop offset="1" stop-color="#FDD5C8"/>
</linearGradient>
<linearGradient id="paint1_linear_102_3035" x1="1238.16" y1="671.202" x2="1249.39" y2="640.831" gradientUnits="userSpaceOnUse">
<stop stop-color="#FDD5C8"/>
<stop offset="0.4832" stop-color="#FBD3C6"/>
<stop offset="0.7027" stop-color="#F6CCBF"/>
<stop offset="0.8685" stop-color="#EDBFB2"/>
<stop offset="1" stop-color="#E0AFA1"/>
</linearGradient>
<clipPath id="clip0_102_3035">
<rect width="2000" height="1040" fill="white"/>
</clipPath>
</defs>
</svg>
