<?xml version="1.0" encoding="utf-8"?>
<!-- Generator: Adobe Illustrator 27.0.0, SVG Export Plug-In . SVG Version: 6.00 Build 0)  -->
<svg version="1.1" id="Слой_1" xmlns="http://www.w3.org/2000/svg" xmlns:xlink="http://www.w3.org/1999/xlink" x="0px" y="0px"
	 viewBox="0 0 1500 971.04" style="enable-background:new 0 0 1500 971.04;" xml:space="preserve">
<style type="text/css">
	.st0{fill:#9BAFBD;}
	.st1{fill:#728694;}
	.st2{fill:#FDD5C8;}
	.st3{fill:#FEE4DB;}
	.st4{fill:#E0AFA1;}
	.st5{fill:#99685A;}
	.st6{fill:#AECCD1;}
	.st7{fill:#7A9CA1;}
	.st8{fill:#495B5E;}
	.st9{fill:url(#SVGID_1_);}
	.st10{fill:#E09F89;}
	.st11{fill:url(#SVGID_00000104695511647341294590000009365243963811500724_);}
	.st12{fill:#F6DCDD;}
	.st13{fill:#E39D9D;}
	.st14{fill:#FDACAE;}
	.st15{fill:#E2A094;}
	.st16{fill:#FEBEBE;}
	.st17{fill:#F16E2B;}
	.st18{fill:#DF523C;}
	.st19{fill:#E78B7C;}
	.st20{fill:url(#SVGID_00000096047179293963300830000008879585894284545720_);}
	.st21{fill:#E7DBE0;}
	.st22{fill:url(#SVGID_00000043430280056371836730000002726085317508310938_);}
	.st23{fill:url(#SVGID_00000071530136133262052170000015009294273781523382_);}
	.st24{fill:#E75742;}
	.st25{fill:#EEA755;}
	.st26{fill:#EEB3B2;}
	.st27{fill:#FA9DA5;}
	.st28{fill:#FABEB5;}
	.st29{fill:#F25026;}
	.st30{fill:url(#SVGID_00000043427270391671764460000002130855780889865374_);}
	.st31{fill:url(#SVGID_00000062189591652289044640000017331429300272853418_);}
	.st32{fill:url(#SVGID_00000055686866676912699660000004512165658015009941_);}
	.st33{fill:url(#SVGID_00000078725532897015640740000008780206902789027775_);}
	.st34{fill:url(#SVGID_00000068667772279830032610000000006117106955197111_);}
	.st35{fill:url(#SVGID_00000183970274976658925090000000182872771033243286_);}
	.st36{fill:url(#SVGID_00000029745638489794621470000000147368689976563382_);}
	.st37{fill:url(#SVGID_00000068638459445482048910000013732510104621159562_);}
	.st38{fill:url(#SVGID_00000150080080557133849930000004795616357624938139_);}
	.st39{fill:url(#SVGID_00000031184431241583569660000007158080704979985822_);}
	.st40{fill:url(#SVGID_00000030458270912605471470000000081260142799182242_);}
	.st41{fill:url(#SVGID_00000155836913408482938870000015265658905863689112_);}
	.st42{fill:url(#SVGID_00000080894419944498850610000013057383492453146764_);}
	.st43{fill:url(#SVGID_00000072243446867912761780000002615652804697913218_);}
	.st44{fill:url(#SVGID_00000016774328274095796530000000990993470348772282_);}
	.st45{fill:url(#SVGID_00000003792300816435228360000011056341977556727170_);}
	.st46{fill:url(#SVGID_00000012439670483084202660000017940677241402176685_);}
	.st47{fill:url(#SVGID_00000135657235064066710560000016030633230518607536_);}
	.st48{fill:url(#SVGID_00000038385025772012053260000007015888160371915911_);}
	.st49{fill:url(#SVGID_00000173860750511724941820000010685349495062514616_);}
	.st50{fill:url(#SVGID_00000159430475320674689110000013342933006395674282_);}
	.st51{fill:url(#SVGID_00000018213934527976727100000005258502808038631597_);}
	.st52{fill:url(#SVGID_00000111167756609830938950000000259271392719038617_);}
	.st53{fill:url(#SVGID_00000030486522244958306360000016852043645260104590_);}
	.st54{fill:url(#SVGID_00000075845576665225966450000000468538038914734001_);}
	.st55{fill:url(#SVGID_00000173141141197631413330000006045690791750458529_);}
	.st56{fill:url(#SVGID_00000168108157562574775830000014138863689336495778_);}
	.st57{fill:url(#SVGID_00000097466079860870525480000013660952091622097586_);}
	.st58{fill:url(#SVGID_00000157285622302098632670000012461999570855095698_);}
	.st59{fill:url(#SVGID_00000049216657539985911710000000328197562061572231_);}
	.st60{opacity:0.4;fill:url(#SVGID_00000074438156447553557790000008061099359976772755_);}
	.st61{fill:url(#SVGID_00000036211564112382495850000011745216379035714701_);}
	.st62{fill:url(#SVGID_00000033359896145779873420000006790621500383198136_);}
	.st63{fill:url(#SVGID_00000032645016932043820070000013176299215715999658_);}
	.st64{fill:url(#SVGID_00000031193401777769264970000000774245897271639705_);}
	.st65{fill:url(#SVGID_00000155834143868309482610000000604819436426045603_);}
	.st66{fill:url(#SVGID_00000026124168701118927110000014376151488829215395_);}
	.st67{fill:url(#SVGID_00000155858677229322713030000008944539574652426631_);}
	.st68{fill:url(#SVGID_00000021116481206292370150000016930264833180439203_);}
	.st69{fill:#AD0000;}
	.st70{fill:url(#SVGID_00000026145428818310354180000007116128394326562709_);}
	.st71{fill:url(#SVGID_00000042713304891283749950000018244502174148153791_);}
	.st72{fill:url(#SVGID_00000163036586188276348130000008630901308455711907_);}
	.st73{fill:url(#SVGID_00000114784263604403738110000018097955354983891875_);}
	.st74{fill:url(#SVGID_00000071533176334742338090000009148050656018389940_);}
	.st75{fill:#BF9184;}
	.st76{fill:none;stroke:#FDD5C8;stroke-miterlimit:10;}
	.st77{fill:url(#SVGID_00000012433154396423904510000016207379666902586021_);}
	.st78{fill:url(#SVGID_00000062889585301716161600000013944940873233182858_);}
	.st79{fill:url(#SVGID_00000158719833294192103250000015986284707473008316_);}
	.st80{fill:url(#SVGID_00000024708760262288777210000006264124199221233577_);}
	.st81{fill:url(#SVGID_00000070107597237395742840000007049919790401957563_);}
	.st82{fill:url(#SVGID_00000088834396880309683590000012671063387819838133_);}
	.st83{fill:url(#SVGID_00000043454857544936136410000011952535957346518168_);}
	.st84{fill:url(#SVGID_00000109707882277569881330000012068460582627468189_);}
	.st85{fill:url(#SVGID_00000170989281917490198850000015233180560901628549_);}
	.st86{fill:url(#SVGID_00000124849314710230160850000006759495786769114767_);}
	.st87{fill:none;stroke:#E0AFA1;stroke-miterlimit:10;}
	.st88{fill:#59767A;}
	.st89{fill:none;}
	.st90{fill:#314042;}
	.st91{fill:url(#SVGID_00000008151106255146983030000012543090918849875132_);}
	.st92{fill:url(#SVGID_00000096046829896966194350000008571380909138560399_);}
	.st93{fill:url(#SVGID_00000159450045080769129960000011784598890448243849_);}
	.st94{fill:url(#SVGID_00000067215801134158490080000008848645975597192075_);}
	.st95{fill:url(#SVGID_00000138566900176740816680000006840497247174860687_);}
	.st96{fill:none;stroke:#99685A;stroke-miterlimit:10;}
	.st97{fill:#F2CEC4;}
	.st98{fill:#E1AFA1;}
	.st99{fill:url(#SVGID_00000039135108410606321310000018111566224676995213_);}
	.st100{fill:url(#SVGID_00000103948072383260038640000017139995233659445176_);}
	.st101{fill:url(#SVGID_00000062913376449342652400000008886262334010401414_);}
	.st102{fill:url(#SVGID_00000182512524494682338160000013390214516146090417_);}
	.st103{fill:url(#SVGID_00000008108019203763222550000016765288229877270963_);}
	.st104{fill:url(#SVGID_00000032639242289453957820000000566401535259630756_);}
	.st105{fill:url(#SVGID_00000072277124149222425720000015575738527264822192_);}
	.st106{fill:url(#SVGID_00000047037777439254459300000005526319293935422120_);}
	.st107{fill:url(#SVGID_00000075858666303797127490000014880946825204390559_);}
	.st108{fill:url(#SVGID_00000167377655583752611130000018079284646421385145_);}
	.st109{fill:#E39F8D;}
	.st110{fill:#C2553C;}
	.st111{fill:url(#SVGID_00000147908869150051105640000001737920555573624498_);}
	.st112{fill:url(#SVGID_00000050659282859696380420000001712486528159171723_);}
	.st113{fill:url(#SVGID_00000104668720947884050400000002410665977256294302_);}
	.st114{fill:#AD4024;}
	.st115{fill:url(#SVGID_00000183219885550984137410000010487713695943287976_);}
	.st116{fill:url(#SVGID_00000080887874162644645260000012926129045149543556_);}
	.st117{fill:url(#SVGID_00000085968824928098022210000013776579765258254734_);}
	.st118{opacity:0.5608;fill:#FFFFFF;}
	.st119{fill:#FFFFFF;}
	.st120{fill:#FFF1ED;}
	.st121{fill:#E6D7D3;}
	.st122{opacity:0.4392;fill:#E0AFA1;}
	.st123{fill:#FFD3C7;}
	.st124{opacity:0.3412;fill:#AAAD66;}
	.st125{opacity:0.2314;fill:#FFFFFF;}
	.st126{fill:#23282B;}
	.st127{fill:none;stroke:#99685A;stroke-linecap:round;stroke-linejoin:round;stroke-miterlimit:10;}
	.st128{fill:#495760;}
	.st129{fill:#353A3E;}
	.st130{fill:#3A474F;}
	.st131{fill:#709EB8;}
	.st132{fill:#8BB0C5;}
	.st133{fill:#31556B;}
	.st134{fill:#4E768F;}
	.st135{fill:#263F4F;}
	.st136{fill:#576975;}
	.st137{fill:none;stroke:#3A474F;stroke-miterlimit:10;}
	.st138{fill:#2F3943;}
	.st139{fill:#C78D7D;}
	.st140{fill:#421D13;}
	.st141{fill:#5E3E35;}
	.st142{fill:#806158;}
	.st143{fill:#EFC3B6;}
	.st144{fill:#C79789;}
	.st145{fill:none;stroke:#EFC3B6;stroke-miterlimit:10;}
	.st146{fill:#69483F;}
	.st147{fill:none;stroke:#806158;stroke-width:3;stroke-linecap:round;stroke-linejoin:round;stroke-miterlimit:10;}
	.st148{fill:#E8E8E8;}
	.st149{fill:#BACAD9;}
	.st150{fill:#694034;}
	.st151{fill:#658F85;}
	.st152{fill:#407065;}
	.st153{fill:#323C42;}
	.st154{fill:#B4CADE;}
	.st155{opacity:0.3294;fill:#C75B63;}
	.st156{fill:none;stroke:#5E3E35;stroke-width:4;stroke-linecap:round;stroke-linejoin:round;stroke-miterlimit:10;}
	.st157{fill:#4C6270;}
	.st158{fill:#7A4A3D;}
	.st159{fill:#252E37;}
	.st160{fill:#3E4852;}
	.st161{fill:none;stroke:#E0AFA1;stroke-linecap:round;stroke-linejoin:round;stroke-miterlimit:10;}
	.st162{fill:#BA8677;}
	.st163{fill:#313B45;}
	.st164{fill:none;stroke:#4E768F;stroke-miterlimit:10;}
	.st165{fill:#193646;}
	.st166{opacity:0.1882;fill:#FFFFFF;}
	.st167{fill:none;stroke:#421D13;stroke-miterlimit:10;}
	.st168{opacity:0.2196;fill:#1390D4;}
	.st169{opacity:0.2392;fill:#027DCF;}
	.st170{opacity:0.3216;fill:#FFFFFF;}
	.st171{fill:#CFCFCF;}
	.st172{fill:url(#SVGID_00000152236239403244363140000014599441772810683035_);}
	.st173{fill:url(#SVGID_00000046299425287587525150000015327659929630183564_);}
	.st174{opacity:0.749;fill:url(#SVGID_00000047758249698237745180000009944996023063326853_);}
	.st175{fill:url(#SVGID_00000063623762490889081030000013426964826710314401_);}
	.st176{fill:url(#SVGID_00000162317735651354123170000007964645810641029547_);}
	.st177{fill:#821111;}
	.st178{fill:url(#SVGID_00000012451704919055761150000016064583955044429470_);}
	.st179{fill:#BC0002;}
	.st180{fill:url(#SVGID_00000032644260742710989940000005099502486534570888_);}
	.st181{fill:url(#SVGID_00000129920967679581878310000015684463182972698522_);}
	.st182{fill:url(#SVGID_00000037688719227238752600000012449557629503960990_);}
</style>
<g>
	<rect class="st0" width="1500" height="971.04"/>
	<g>
		<g>
			<path class="st1" d="M1472.74,449.77c-0.15,13.83-0.77,27.79-3.96,41.17c-6.29,26.46-22.05,48.72-37.43,70.15
				c-5.29,7.37-22.89,15.04-32.45,18.96c-0.84,0.34-1.62,0.66-2.33,0.94l-1.08-0.33c-35.99-7.26-72.11-13.76-108.33-19.48
				c-1.73-0.28-3.47-0.55-5.2-0.82c-44.11-6.89-88.38-12.65-132.73-17.27c-0.01-0.01-0.01-0.01-0.02,0
				c-19.1-1.99-38.22-3.77-57.36-5.33c-39.12-0.28-80.71-5.1-122.57-13.64c-19.7-4.01-39.47-8.84-59.06-14.41
				c-1.25,0.22-2.51,0.43-3.77,0.63c-26.13,4.34-52.71,7.43-79.36,10.33c-4.92,0.53-9.85,1.05-14.78,1.59
				c-22.56,2.42-45.57,4.81-67.7-0.63c-37.29-16.74-80.8-21.78-123.76-26.67c-34.92-3.99-69.83-7.95-104.75-11.94
				c-1.4-0.16-2.81-0.32-4.21-0.48c-0.9-0.02-1.78-0.03-2.67-0.03c-20.33-0.06-41.09,3.98-61.41,9.94
				c-15.5,8.53-35.63,11.84-54.93,11.01c-19.31-0.81-38.3-5.43-57.47-8.17c-26-3.73-52.41-4.03-78.47-0.89
				c-21.77,3.23-46.19,7.26-69.42,0.86c-11.89-3.27-23.14-9.19-35.17-11.68c-12.73-2.64-25.94-1.36-38.63-4.14
				c-7.48-1.64-15.08-5.26-20.57-10.82c-3.85-3.89-6.65-8.73-7.64-14.5c-0.33-5.85,4.04-11,9.05-12.91c5-1.9,10.46-1.25,15.71-0.42
				c6.95,1.11,13.85,2.53,20.69,4.24c4.01,1,7.99,2.11,11.94,3.32c2.12,0.65,4.23,1.33,6.34,2.03c1.08,0.37,2.39,0.63,3.52,0.5
				c0.6-0.07,1.15-0.25,1.59-0.58c0.39-0.27,0.68-0.67,0.87-1.2c0.26-0.77,0.18-1.5-0.15-2.15c-0.46-0.94-1.4-1.73-2.45-2.33
				c-0.59-0.33-1.22-0.59-1.8-0.79c-3.48-1.16-6.97-2.31-9.89-3.33c-7.16-1.48-14.41-2.37-21.68-2.63
				c-2.13-0.07-4.26-0.09-6.36-0.47c-2.02-0.37-3.99-1.05-5.92-1.79c-2.8-1.05-5.56-2.2-8.3-3.46c-3.47-1.59-7.26-3.81-8.23-7.82
				c-0.36-1.47-0.27-3.03-0.08-4.54c0.29-2.22,0.84-4.45,1.88-6.38c2.77-5.17,8.63-7.48,14.04-7.23c5.41,0.26,10.54,2.64,15.26,4.56
				c1.98,0.98,3.95,1.96,5.92,2.94h0.01c0.49,0.24,0.98,0.49,1.47,0.73c1.45,0.72,2.92,1.45,4.5,1.72c1.29,0.21,2.59,0.1,3.89,0.05
				c0.74-0.03,1.49-0.05,2.23-0.05c0,0,0,0,0.01,0c4.69,0,9.38,0.66,13.92,1.94c2.19,0.62,4.38,1.38,6.63,1.22
				c0.09-0.01,0.2-0.02,0.29-0.04c0.12-0.03,0.24-0.08,0.32-0.19c0.04-0.04,0.07-0.08,0.08-0.13c0.1-0.18,0.08-0.37-0.04-0.55v-0.01
				c-0.05-0.1-0.12-0.2-0.22-0.28c-0.21-0.22-0.5-0.4-0.76-0.49c-3.59-1.14-7.24-2.05-10.93-2.71c-6.53-1.17-13.16-1.58-19.69-2.71
				c-0.25-0.04-0.49-0.08-0.74-0.14c0,0,0,0-0.01,0c-1.67-0.3-3.34-0.66-5-1.1c-4.56-1.2-8.98-2.96-12.93-5.73
				c-0.98-0.68-1.94-1.44-2.66-2.45c-1.02-1.44-1.44-3.28-1.75-5.08c-0.27-1.59-0.49-3.2-0.33-4.81c0.37-3.96,2.96-7.37,6.14-9.2
				c3.19-1.84,6.89-2.27,10.47-2.07c1.06,0.06,2.13,0.18,3.24,0.45c0.79,0.19,1.6,0.45,2.45,0.82c-0.11-0.1-0.22-0.22-0.33-0.33
				c-2.23-2.45-3.07-6.38-2-9.66c1.41-4.36,5.63-6.9,9.76-7.66c1.42-0.26,2.85-0.35,4.28-0.31c2.68,0.05,5.36,0.55,8.09,1.25
				c2.08,0.54,4.18,1.19,6.3,1.85c-0.28-0.09-0.54-0.25-0.74-0.45c-0.25-0.22-0.44-0.5-0.6-0.81v-0.01c-0.5-1.01-0.6-2.43-0.53-3.65
				c0.13-2.12,0.46-4.3,1.49-6.1c1.58-2.78,4.54-4.18,7.42-4.92c0.51-0.13,1.02-0.24,1.53-0.33c2.32-0.45,4.69-0.61,7.05-0.65
				c0.37-0.01,0.74-0.01,1.12-0.01c2.99-0.01,6,0.13,8.94,0.75h0.01c0.09,0.02,0.2,0.04,0.29,0.06c2.13,0.47,4.21,1.2,6.36,1.62
				c2.64,0.52,5.35,0.57,8.03,0.71c0.17,0.01,0.33,0.02,0.5,0.03c8.53,0.47,17.02,1.86,24.92,4.34
				c35.61,1.02,69.71,14.9,104.31,24.26c2.44,0.66,4.89,1.29,7.36,1.81c1.22,0.25,2.43,0.47,3.66,0.65c0.73,0.1,1.45,0.19,2.18,0.26
				h0.01c5.64,0.58,11.28,0.33,16.5,0.05c11.14,3,22.44,6,33.9,5.71c7.26-0.18,14.44-1.68,21.7-1.77c16.3-0.21,32.2,6.71,47.77,6.48
				c0.95-0.01,1.9-0.05,2.85-0.11c63.46,4.67,125.89-11.44,188.54-25.17c0.03-0.01,0.05-0.01,0.08-0.02
				c23.14-5.05,46.32-9.8,69.59-13.06c23.71-0.62,46.93-7.34,70.56-9.65c25.9-2.54,51.82,0.27,77.68,4.02c0.01,0,0.01,0,0.02,0h0.01
				c10.9,1.58,21.77,3.32,32.64,4.9c0.58,0.09,1.18,0.18,1.76,0.26c15.78,2.27,31.6,4.17,47.44,5.67
				c8.48,0.81,16.96,1.52,25.45,2.11c25.66,1.81,51.32,2.6,76.86,2.41c3.92-0.03,7.83-0.08,11.75-0.16
				c36.88-7.87,73.81-15.76,109.97-26.96c24.95-7.73,49.56-17.04,75.06-21.98c12.69-2.45,25.52-3.82,38.35-5.05
				c39.63-3.8,79.37-6.32,118.88-7.85c3.03,0.75,6.03,1.51,9.06,2.27h0.01c6.9,1.72,13.81,3.44,20.71,5.17
				c2.78,0.7,5.6,1.41,8.12,2.88c3.5,2.04,6.19,5.42,8.55,8.93c14.65,21.83,18.55,50.13,20.27,77.26
				C1472.5,417.8,1472.91,433.79,1472.74,449.77z"/>
			<path class="st1" d="M884.54,416.26c-1.85-7.17-8.3-11.96-14.91-13.41s-13.43-0.19-20.07,1.07
				c-58.08,11.04-116.15,22.07-174.23,33.11c57.36,11.67,116.18-11.85,174.31-6.6c7.2,0.65,14.6,1.72,21.54-0.49
				C878.12,427.73,885.75,420.95,884.54,416.26z"/>
			<path class="st1" d="M1137.06,419.91c-20.68,7.16-40.4,17.67-58.35,31.1c-5.75,4.31-11.72,9.07-18.65,9.65
				c-6.93,0.58-14.78-5.22-14.1-12.87c0.51-5.77,5.32-9.73,9.74-12.84c5.14-3.63,10.38-7.16,16.08-9.55
				c5.8-2.43,11.95-3.62,18.05-4.8c10.13-1.95,20.26-3.91,30.39-5.86c3.01-0.58,6.23-1.13,9.01,0.27S1133.81,420.64,1137.06,419.91z
				"/>
			<path class="st1" d="M1251.24,462.18c-40.79,8.63-81.3,18.84-121.44,30.62c-3.81,1.12-8.16,2.77-9.5,6.88
				c-2.27,6.96,5.92,12.37,12.55,13.33c27.14,3.94,53.26-11.67,80.39-15.66c15.73-2.31,31.74-0.69,47.51-2.58
				c8.24-0.99,18.54-5.94,17.64-15.06c-0.47-4.78-4.1-8.39-7.8-10.92C1261.9,462.86,1251.38,460.28,1251.24,462.18z"/>
			<path class="st1" d="M993.35,506.34c-21.65-8.27-42.54-18.94-62.28-31.81c-13.36-8.71-27.32-18.78-42.81-18.05
				c-0.96,0.05-1.98,0.16-2.74,0.8c-2.28,1.93-0.26,5.93,1.96,7.94c9.03,8.16,20.6,11.79,31.51,16.32
				c25.73,10.69,50.25,27.59,77.71,28.97C996.55,508.23,994.84,506.19,993.35,506.34z"/>
			<path class="st1" d="M363.51,416.25c-15.62-3.04-31.16,4.58-45.53,12.02c-10.35,5.35-20.69,10.71-31.04,16.06
				c-3.34,1.73-7.03,3.88-8.1,7.8c9.24,4.03,19.52-0.69,28.52-5.33c8.32-4.29,16.63-8.58,24.95-12.86c3.83-1.98,7.7-3.97,11.81-5.05
				c6.74-1.78,13.94-1.08,20.47-3.64c2.01-0.79,4.12-2.14,4.64-4.43c0.56-2.5-1.16-5.08-3.3-6.11
				C363.8,413.66,361.37,413.79,363.51,416.25z"/>
			<path class="st1" d="M223.64,433.16c-24.59,2.53-49.67-0.85-73-9.82c-1.73-0.66-3.99-1.2-5.1,0.4c-0.85,1.23-0.41,3.11,0.58,4.19
				c1,1.08,2.39,1.57,3.72,2.01c19.47,6.52,39.68,13.12,59.85,10.14C214.41,439.38,219.36,437.98,223.64,433.16z"/>
			<path class="st1" d="M161.78,463.53c-4.13-1.59-8.26-3.19-12.39-4.78c-1.28-0.49-2.62-0.99-3.95-0.74
				c-3.32,0.63-4.49,5.18-4.82,8.89c-0.1,1.08-0.16,2.26,0.36,3.18c0.43,0.75,1.17,1.19,1.89,1.58c5.71,3.1,11.95,4.99,18.28,5.54
				c1.33,0.12,2.83,0.1,3.77-0.94c0.98-1.08,0.95-2.83,0.67-4.33C164.82,467.92,162.8,463.93,161.78,463.53z"/>
			<path class="st1" d="M93.05,447.34c5.71,0.47,11.42,0.95,17.13,1.42c1.74,0.14,3.74,0.46,4.63,2.12c0.39,0.72,0.49,1.57,0.57,2.4
				c0.16,1.62,0.24,3.33-0.33,4.83c-0.38,0.99-1.03,1.83-1.76,2.54c-2.69,2.64-6.39,3.66-9.98,3.85c-3.59,0.19-7.17-0.36-10.76-0.45
				C92.01,458.51,92.13,452.89,93.05,447.34z"/>
			<path class="st1" d="M108.5,415.97c0.03,2.3-0.4,4.66-1.53,6.59s-3.06,3.36-5.13,3.44c-1.18,0.05-2.34-0.33-3.46-0.74
				c-1.37-0.49-2.85-1.15-3.49-2.57c-0.5-1.09-0.38-2.39-0.21-3.6c0.28-2.01,0.67-4,1.17-5.96c0.24-0.97,0.56-2,1.32-2.55
				c0.58-0.42,1.3-0.47,1.98-0.49c2.44-0.1,5.05,0.03,7.07,1.57C108.23,413.18,109.25,416.59,108.5,415.97z"/>
			<path class="st1" d="M171.43,402.33c-3.19-2.21-6.62-4-10.19-5.31c-3-1.1-6.33-1.86-9.27-0.55s-5,5.4-3.44,8.44
				c1.24,2.4,4,3.13,6.45,3.62c6.79,1.37,13.66,2.75,20.55,2.28c1.09-0.07,2.37-0.34,2.83-1.43c0.42-0.99-0.07-2.16-0.66-3.05
				C175.83,403.48,172.83,401.57,171.43,402.33z"/>
			<path class="st1" d="M188.34,384.79c-3.14-1.68-6.28-3.36-9.43-5.05c-2.75-1.48-5.58-2.97-8.62-3.32
				c-1.63-0.18-3.34-0.01-4.76,0.88c-1.42,0.89-2.5,2.6-2.43,4.41c0.07,1.72,1.15,3.24,2.48,4.15s2.88,1.28,4.42,1.6
				c5.46,1.12,11.04,1.55,16.58,1.3c0.65-0.03,1.35-0.09,1.85-0.56c0.66-0.63,0.7-1.79,0.34-2.66
				C188.39,384.66,187.7,384.01,188.34,384.79z"/>
			<path class="st1" d="M138.79,368.72c0.75,1.72,0.76,3.82,0.02,5.55s-2.21,3.05-3.89,3.49c-0.99,0.26-2.02,0.23-3.03,0.14
				c-1.28-0.12-2.68-0.41-3.49-1.52c-0.42-0.58-0.63-1.32-0.72-2.06c-0.33-2.83,1.12-5.81,3.44-7.04S137.48,365.72,138.79,368.72z"
				/>
			<path class="st1" d="M135.56,392.88c-1.52-1.27-3.52-2.6-5.2-1.61c-0.78,0.46-1.29,1.34-1.75,2.18
				c-0.91,1.64-1.84,3.33-2.08,5.23c-0.32,2.44,0.83,5.24,2.96,5.95c2.32,0.77,4.79-1.21,5.73-3.68S135.95,395.7,135.56,392.88z"/>
			<path class="st1" d="M123.18,419.77c-1.45-0.72-2.9-1.43-4.34-2.15c-0.36-0.18-0.76-0.36-1.13-0.23
				c-0.28,0.09-0.49,0.33-0.68,0.58c-2.2,2.91-2.21,7.08-2.1,10.87c0.01,0.37,0.03,0.78,0.24,1.07c0.16,0.22,0.4,0.34,0.64,0.44
				c2.79,1.17,6.26,0.23,8.04-2.42C125.63,425.28,125.43,420.88,123.18,419.77z"/>
			<path class="st1" d="M236.81,370.4c-5.8-0.17-11.69-0.36-17.22-2.3c-3.73-1.31-7.21-3.38-10.95-4.67
				c-7.31-2.51-15.15-1.9-22.78-1.25c-0.78,1.56,1.11,3.06,2.64,3.62c14.17,5.14,28.82,8.64,43.65,10.42
				c1.87,0.22,3.92,0.37,5.46-0.82C239.16,374.21,239.56,370.49,236.81,370.4z"/>
			<path class="st1" d="M1113.56,532.01c-8.5-4.54-18.16-5.8-26.8-10c-8.64-4.2-16.74-13.01-15.97-23.43
				c0.83-11.13,10.87-18.14,19.79-23.35c19.86-11.61,39.71-23.21,59.57-34.82c-28.63,3.04-56.61,13.24-81.28,29.61
				c-8.34,5.54-18.27,11.99-27.12,7.53c-2.39-1.21-4.44-3.14-6.88-4.22c-5.19-2.3-11.72,0.1-14.65,5.37
				c-2.93,5.27-1.91,12.81,2.29,16.9c-4.43,2.96-9.9,3.94-14.96,2.69c7.85,8.31,15.95,16.8,26.02,21.32
				c6.74,3.02,14.03,4.11,21.23,5.17C1073.71,527.56,1092.61,530.34,1113.56,532.01z"/>
			<path class="st1" d="M969.27,524.11c-19.7-4.01-39.47-8.84-59.06-14.41c-1.25,0.22-2.51,0.43-3.77,0.63
				c-0.25-0.16-0.49-0.31-0.74-0.46c-3.35-1.94-7.13-2.72-10.68-4.13c-7.32-2.91-13.51-8.4-20.27-12.67
				c-15.84-10.01-34.35-13.05-52.49-15.6c-0.83-0.13-1.65-0.24-2.48-0.35c2.47-0.55,4.95-0.93,7.44-1.14
				c15.34-1.27,30.91,3.71,45.37,10.02c16.79,7.34,33.09,16.6,50.8,20.54c11.37,2.55,23.41,2.94,33.73,8.79
				C961.34,517.73,965.28,521.04,969.27,524.11z"/>
			<path class="st1" d="M1049.68,378.32c-1.4,1.5-3.28,2.3-5.11,3.04c-14.8,5.99-30.02,10.69-45.48,14.07
				c-0.84,0.19-1.69,0.37-2.54,0.54c-6.1,1.27-12.6,2.52-17.21,7.1c-2.03,1.99-3.68,4.61-6.18,5.75c-2.7,1.22-5.76,0.46-8.66,0.72
				c-7.33,0.65-13.07,8.16-14.45,16.16c-1.39,8.01,0.73,16.26,3.71,23.72c6.16,15.45,16.91,29.61,31.47,34.65
				c8.21,2.84,17.09,2.62,25.31,5.45c3.89,1.34,7.75,3.72,10.69,6.87c3.28,3.5,5.43,7.95,5.24,12.97
				c-5.33-3.02-10.88-6.01-16.63-8.67c-7.45-3.43-15.24-6.29-23.32-7.87c-4.72-0.92-9.62-1.42-13.92-3.76
				c-1.22-0.66-2.35-1.45-3.45-2.32l-0.01-0.01c-2.23-1.75-4.28-3.81-6.44-5.71l-0.01-0.01c-1.13-1-2.29-1.96-3.52-2.81
				c-0.25-0.17-0.49-0.33-0.74-0.49c-0.01,0-0.01,0-0.01-0.01c-3.79-2.41-8.09-3.85-12.31-5.39c-5.09-1.87-10.05-3.9-13.79-8.04
				c-7.47-8.27-6.45-23.86,2.03-30.85c2.57-2.12,5.81-3.7,7.12-6.94c2.39-5.91-3.96-12.27-9.8-12.12
				c-5.85,0.14-10.95,4.08-16.25,6.81c-5.3,2.71-12.23,3.99-16.48-0.46c7.72-10.45,16.75-19.7,26.77-27.4
				c10.17-7.82,21.3-14.01,32.05-20.59c2.31-1.54,4.69-2.9,7.12-4.09c2.93-1.45,5.95-2.66,9.03-3.66
				c25.66,1.81,51.32,2.6,76.86,2.41C1052.34,371.05,1052.27,375.53,1049.68,378.32z"/>
			<path class="st1" d="M1029.23,489.74c-9.61-4.11-18.7-9.72-26.92-16.61c-3.49-2.92-7.06-6.54-7.61-11.35
				c-0.79-6.93,4.94-12.65,6.27-19.48c1.76-9.08-4.49-18.76-1.54-27.46c1.52-4.48,5.54-7.78,9.85-8.09
				c4.31-0.31,8.68,2.39,10.71,6.61c2.67,5.56,1.24,12.31,0.45,18.55c-1.99,15.73,0.76,32.16,7.71,46.06
				c1.05,2.1,2.22,4.27,2.26,6.67C1030.42,487.03,1028.76,489.65,1029.23,489.74z"/>
			<path class="st1" d="M827.08,520.66c-4.92,0.53-9.85,1.05-14.78,1.59c-22.56,2.42-45.57,4.81-67.7-0.63
				c-37.29-16.74-80.8-21.78-123.76-26.67c-34.92-3.99-69.83-7.95-104.75-11.94c-1.4-0.16-2.81-0.32-4.21-0.48
				c-0.9-0.02-1.78-0.03-2.67-0.03c1.48-0.29,2.96-0.58,4.44-0.88c41.24-7.97,83.4-10.12,125.11-6.36
				c-21.44,2.24-42.89,4.48-64.33,6.72c30.68,2.03,61.43,4.07,91.71,9.85c53.67,10.26,106.58,32.3,160.87,27.5
				C827.08,519.78,827.1,520.23,827.08,520.66z"/>
			<path class="st1" d="M948.45,362.85c-2.72,1.94-5.53,3.69-8.46,5.23c0,0-0.01,0-0.02,0c-22.07,11.73-49.37,12.97-74.58,13.26
				c-16.51,0.19-33.02,0.38-49.51,0.56c3.31,3.57,6.62,7.14,9.92,10.71c-30.11,8.52-61.28,11.25-92.2,14.73
				c-58.88,6.63-117.51,16.02-178.28,28.14c45.96-13.29,91.92-26.57,137.88-39.85c-1.12-4.2-5.92-5.36-9.86-5.53
				c-15.19-0.68-31.9,2.01-45.85-2.72c-4.63-1.56-8.95-3.94-12.8-7.52c7.99-3.05,16-6.09,23.99-9.13c0.03-0.01,0.05-0.01,0.08-0.02
				c23.14-5.05,46.32-9.8,69.59-13.06c23.71-0.62,46.93-7.34,70.56-9.65c25.9-2.54,51.82,0.27,77.68,4.02c0.01,0,0.01,0,0.02,0h0.01
				c10.9,1.58,21.77,3.32,32.64,4.9c0.58,0.09,1.18,0.18,1.76,0.26C916.79,359.45,932.61,361.35,948.45,362.85z"/>
			<path class="st1" d="M516.09,483.01c-1.4-0.16-2.81-0.32-4.21-0.48c-0.9-0.02-1.78-0.03-2.67-0.03
				c-20.33-0.06-41.09,3.98-61.41,9.94c-15.5,8.53-35.63,11.84-54.93,11.01c-19.31-0.81-38.3-5.43-57.47-8.17
				c-26-3.73-52.41-4.03-78.47-0.89c-21.77,3.23-46.19,7.26-69.42,0.86c-11.89-3.27-23.14-9.19-35.17-11.68
				c-12.73-2.64-25.94-1.36-38.63-4.14c-7.48-1.64-15.08-5.26-20.57-10.82c25.3,11.55,56.11,5.89,82.72,15.62
				c6.3,2.31,12.42,5.49,18.99,6.47c4.04,0.61,8.14,0.37,12.21,0.11c26.45-1.6,52.91-3.2,77.97-5.89
				c17.37-3.52,35.5-6.99,52.43-1.44c9.03,2.96,17.54,8.47,26.95,9.05c10.36,0.65,20.49-4.78,30.83-3.86
				c6.48,0.57,12.6,3.61,19.07,4.23c7.94,0.75,15.73-2.16,23.36-4.66c14.44-4.71,29.25-8,44.21-9.83c10.68-1.3,22.25-1.61,31.8,3.22
				C514.47,482.05,515.29,482.51,516.09,483.01z"/>
			<path class="st1" d="M457.33,396.34c0.11,1.44-0.86,2.45-2.08,3.13c-0.68,0.38-1.42,0.65-2.12,0.82
				c-18.02,4.67-36.65,5.36-55.14,6.01c-16.34,0.6-34.22,0.64-46.97-10.7c-6.74,2.66-14.17,0.8-21.33,0.84
				c-20.22,0.1-37.64,15.23-57.06,21.44c-2.55,0.81-6.55,0.15-6.11-2.74c0.24-1.56,1.77-2.35,3.1-2.88
				c18.9-7.62,37.8-15.24,56.72-22.86c0.41-0.17,0.83-0.33,1.24-0.5c3.21-1.29,6.48-2.41,9.81-3.36h0.01
				c5.64,0.58,11.28,0.33,16.5,0.05c11.14,3,22.44,6,33.9,5.71c7.26-0.18,14.44-1.68,21.7-1.77c16.3-0.21,32.2,6.71,47.77,6.48
				C457.31,396.12,457.32,396.23,457.33,396.34z"/>
			<path class="st1" d="M184.48,374.88c22.8,5.22,45.82,9.22,68.96,11.98c7.89,0.94,16.06,1.7,23.57-1.11
				c-5.61,3.84-12.04,6.22-18.61,6.91c-5.4,0.57-10.84,0-16.25-0.56c-21.71-2.26-44.43-4.92-62.51-18.41
				C180.79,373.4,181.53,374.2,184.48,374.88z"/>
			<path class="st1" d="M170.71,395.46c29.21-4.47,58.02,10.47,87.49,11.49c-20.64,0.08-41.29-0.91-61.85-2.97
				C188.29,403.17,179.44,401.76,170.71,395.46z"/>
			<path class="st1" d="M160.73,418.36c-0.05-0.1-0.12-0.2-0.22-0.28c6.98-0.78,14.05,0.57,21.03,1.6
				c12.96,1.91,26.06,2.69,39.13,2.36c-18.99,7.86-40.76,7.08-60.31-2.8c0.12-0.03,0.24-0.08,0.32-0.19
				c0.04-0.04,0.07-0.08,0.08-0.13L160.73,418.36z"/>
			<path class="st1" d="M241.17,457.22c-17.9,1.51-35.81,3.02-53.71,4.53c-3.71,0.31-7.46,0.63-11.14,0.05
				c-5.98-0.93-11.45-4.11-16.79-7.26c-1.09-0.64-2.32-1.45-3.37-2.34c-0.74-0.63-1.4-1.28-1.84-1.94c0.39-0.27,0.68-0.67,0.87-1.2
				c0.26-0.77,0.18-1.5-0.15-2.15c1.18-0.7,2.46-1.12,3.78-1.3c2.56-0.39,5.28,0.07,7.76,0.96c3.8,1.37,7.27,3.64,10.95,5.33
				C197.32,460.98,220.22,452.35,241.17,457.22z"/>
			<path class="st1" d="M165.65,360.49c0.25-2.42-0.08-5-1.36-6.97c-0.45-0.7-1.01-1.29-1.62-1.81c2.32-0.45,4.69-0.61,7.05-0.65
				c-1.14,5.77-3.13,11.35-5.87,16.42C164.63,365.21,165.4,362.9,165.65,360.49z"/>
			<path class="st1" d="M194.98,354.23c-3.39,2.51-6.78,5.03-10.17,7.55c-0.63-3.81-2.44-7.35-5.02-9.97
				c0.09,0.02,0.2,0.04,0.29,0.06c2.13,0.47,4.21,1.2,6.36,1.62c2.64,0.52,5.35,0.57,8.03,0.71
				C194.65,354.21,194.81,354.22,194.98,354.23z"/>
			<path class="st1" d="M147.82,366.14c-0.17,0.18-0.37,0.34-0.55,0.51c-1.1,0.99-1.89,2.36-2.64,3.71
				c-1.94,3.44-3.87,6.89-5.82,10.33c-0.23-3.63,2.77-6.71,2.83-10.37c0.03-1.99-0.83-3.8-1.91-5.44
				C142.4,364.94,145.09,365.44,147.82,366.14z"/>
			<path class="st1" d="M153.97,366.16c0.81,5.46,1.55,11.39-0.87,16.23c1.61-3.9,4.59-7.07,8.17-8.71c1.7-0.78,3.59-1.26,4.92-2.67
				C162.39,368.59,158.12,367.08,153.97,366.16z"/>
			<path class="st1" d="M120.42,385.99c3.05,3.6,3.08,9.84,0.06,13.47c2.18-2.05,4.23-4.64,4.55-7.79
				C125.34,388.53,123.16,384.96,120.42,385.99z"/>
			<path class="st1" d="M137.12,385.33c1.01,2.61,3.84,4.38,3.79,7.22c-0.02,0.92-0.36,1.79-0.69,2.64
				c-1.31,3.28-2.66,6.55-4.04,9.79c3.15-0.85,5.81-3.69,6.7-7.14c0.3-1.17,0.41-2.39,0.76-3.54c0.9-3,3.22-5.15,5.44-7.14
				c-1.82-2.77-5.5-2.69-8.57-2.32C139.46,384.96,138.41,385.08,137.12,385.33z"/>
			<path class="st1" d="M128.39,412.02c-1.67-0.3-3.34-0.66-5-1.1c1.24-0.27,2.77-0.09,3.96,0.5
				C127.71,411.6,128.05,411.8,128.39,412.02z"/>
			<path class="st1" d="M139.53,416.11c-4.85,3.46-8.59,8.77-10.42,14.82c0.83-3.96,1.67-8.07,0.87-12.04
				c-0.39-1.93-1.3-3.82-2.55-5.24c0.49,0.24,0.98,0.49,1.47,0.73c1.45,0.72,2.92,1.45,4.5,1.72c1.29,0.21,2.59,0.1,3.89,0.05
				C138.04,416.13,138.78,416.11,139.53,416.11z"/>
			<path class="st1" d="M131.11,470.46c1.49-4.73,3.01-9.57,3.04-14.58c0.02-3.88-1.01-7.94-3.21-10.87c4.01,1,7.99,2.11,11.94,3.32
				C137.49,454.46,136.68,464.45,131.11,470.46z"/>
			<path class="st1" d="M411.22,425.67c-15.97,5.78-32.35,10.16-48.94,13.06c-3.54,0.62-7.23,1.24-10.16,3.52
				c18.48,2.73,37.57,0.29,55-7.02c2.05-0.86,4.15-1.84,5.61-3.66C414.19,429.76,414.8,426.88,411.22,425.67z"/>
			<path class="st1" d="M834.64,477.31c-59.61-11.05-120.51-13.47-180.68-7.19C715.48,475.49,777.18,478.31,834.64,477.31z"/>
			<path class="st1" d="M1328.3,450.73c3.96,10.02,4.99,21.94,0.72,31.8c-4.34,10.03-13.27,16.44-21.78,22.34
				c-5.51,3.82-11.02,7.64-16.53,11.46c-2.67,1.85-5.48,3.88-6.74,7.08c-1.18,3-0.75,6.43-0.31,9.67c0.59,4.31,1.18,8.62,1.73,12.94
				c0.65,5.04,1.25,10.09,1.75,15.16c-1.73-0.28-3.47-0.55-5.2-0.82c-1.81-5.22-3.81-10.43-6.1-15.38
				c-6.2-13.4-14.56-24.93-27.1-29.75c18.7-4.26,36.54-13.16,51.81-25.87c7.01-5.84,14.13-15.51,10.29-24.26
				c-1.54-3.5-4.56-5.88-7.54-7.94c-20.09-13.88-44.35-20.22-67.93-17.74c39.34-12.86,75.92-35.92,113.22-71.08
				c-9.11,21.16-21.98,40.32-37.68,56.05C1317.76,432.26,1324.35,440.71,1328.3,450.73z"/>
			<path class="st1" d="M1396.23,313.13c-51.98,14.47-104.67,31.51-148.27,66.03c-20.31,16.08-39.97,36.51-64.79,39.4
				c-4.72,0.55-9.61,0.41-14.06-1.42c-6.16-2.52-10.91-7.98-15.43-13.26c-3.93-4.59-7.86-9.18-11.79-13.77
				c-4.7-5.49-9.76-12.45-7.99-19.75c1.18-4.85,5.12-8.21,9.04-10.75c10.98-7.12,23.48-10.72,35.84-14
				C1248.89,326.98,1320.64,315.88,1396.23,313.13z"/>
			<path class="st1" d="M1398.9,580.05c-0.84,0.34-1.62,0.66-2.33,0.94l-1.08-0.33c-35.99-7.26-72.11-13.76-108.33-19.48
				c-1.73-0.28-3.47-0.55-5.2-0.82c-44.11-6.89-88.38-12.65-132.73-17.27c41.87-5.36,84.47-2.58,126.63,1.89
				c3.19,0.33,6.37,0.69,9.55,1.04c0.42,0.04,0.84,0.08,1.26,0.14c12.6,1.42,25.21,2.93,37.67,5.46
				C1350.29,556.85,1375.53,566.49,1398.9,580.05z"/>
			<path class="st1" d="M1077.35,527.11c-6.34-2.77-12.18-6.94-17.09-12.18c-2.89-3.09-5.55-6.74-6.35-11.1
				c-0.8-4.35,0.34-8.86,0.04-13.29c-0.05-0.71-0.15-1.47-0.58-2c-0.34-0.42-0.82-0.63-1.29-0.82c-4.25-1.68-9.15-1.79-13.13,0.57
				s-6.73,7.45-5.96,12.38c0.78,5.01,4.71,8.63,8.58,11.36C1052.73,519.89,1065.55,524.32,1077.35,527.11z"/>
			<path class="st1" d="M1413.83,307.63c-7.83,2.01-15.64,3.93-23.43,5.73h-0.01c-0.01,0-0.01,0-0.02,0s-0.01,0-0.02,0
				c-47.72,11.13-94.73,18.74-141.9,24.68c-20.88,5.48-45.84,12.89-69.93,22.86c-10.48,4.34-21.33,9.62-27.9,19.66
				c-2.41,3.7-4.42,8.16-7.22,11.34c-1.45,1.65-3.11,2.95-5.16,3.62c-4.95,1.63-10.07-1.22-15.08-2.6
				c-10.52-2.88-21.46,0.79-32.15,2.78c-10.03,1.85-20.29,2.19-30.4,1.01c-5.19-0.6-10.47-1.59-15.54-0.23
				c-5.06,1.37-9.89,5.88-10.51,14.3c-4.52,0.14-8.04,4.42-10.14,8.84c-1.24,2.62-2.22,5.43-3.43,8.06
				c-0.84,1.82-1.78,3.56-3.02,5.07c-6.17-6.53-12.44-13.24-16.75-21.33c-0.62-1.16-1.2-2.34-1.73-3.56
				c-1.16-2.67-2.09-5.61-1.73-8.54c0.18-1.4,0.64-2.71,1.33-3.89c1.26-2.23,3.29-4.03,5.49-5.15c3.37-1.7,7.13-2.1,10.81-2.48
				c-8.9-6.29-20.56-1.92-30.3,2.59c-9.01,4.18-18.06,8.36-26.46,13.88c-4.01,2.62-7.93,5.57-12.41,6.97
				c-4.48,1.4-9.77,0.93-13.1-2.66c-5.02-5.4-3.14-15.41,2.06-20.6c5.2-5.19,12.5-6.75,19.43-7.87c9.47-1.55,19-2.63,28.56-3.28
				c6.38-0.43,12.81-0.66,19.15,0.28c8.82,1.32,18.77,4.6,25.9-1.32c-2.06-3.25-6.12-3.8-9.68-4.06
				c-17.87-1.33-35.77-2.66-53.67-3.12c-1.67-0.05-3.35-0.08-5.02-0.11c-6.61-0.11-13.25-0.09-19.85-0.43c0,0-0.01,0-0.02,0
				c-6.38-0.31-12.75-0.94-19.02-2.32c-7.57-1.65-15.09-4.5-21.7-8.84c0.58,0.09,1.18,0.18,1.76,0.26
				c15.78,2.27,31.6,4.17,47.44,5.67c8.48,0.81,16.96,1.52,25.45,2.11c25.66,1.81,51.32,2.6,76.86,2.41
				c3.92-0.03,7.83-0.08,11.75-0.16c36.88-7.87,73.81-15.76,109.97-26.96c24.95-7.73,49.56-17.04,75.06-21.98
				c12.69-2.45,25.52-3.82,38.35-5.05c39.63-3.8,79.37-6.32,118.88-7.85C1407.8,306.11,1410.81,306.88,1413.83,307.63z"/>
			<path class="st1" d="M977.08,488.34c-7.87-1.29-15.62-3.46-23.08-6.49c-1.17-0.47-2.37-0.99-3.3-1.91
				c-2.01-1.98-2.41-5.43-4.39-7.45c-2.23-2.29-5.76-2.1-8.36-3.84c-3.03-2.02-4.21-6.18-4.94-10.01
				c-0.89-4.68-1.48-9.44-1.75-14.21c5.52,11.21,13.73,20.5,22.39,28.92C959.51,479.05,966.34,484.71,977.08,488.34z"/>
			<path class="st1" d="M745.2,358.71c11.79,1.03,23.47,3.57,34.75,7.53c-14.25,2.35-28.55,4.53-42.92,5.61
				c-15.95,1.19-32.03,1-47.85,3.64c-9.04,1.5-17.93,3.93-26.84,6.16c-8.26,2.07-16.55,3.99-24.85,5.74
				c-46.71,9.9-94.05,14.93-139.88,15.4c-14.12-1.1-28.24-2.2-42.36-3.31c-19.92-1.56-39.84-3.11-59.76-4.67
				c-23.05-1.81-46.1-3.6-69.14-5.4c-4.86-0.38-9.71-0.76-14.57-1.14c-22.15-1.73-44.84-3.61-65.06-13.75
				c12.77,2.21,25.55,4.44,38.32,6.65c14.52,2.53,29.2,5.05,43.85,3.75c0.9-0.08,1.78-0.18,2.68-0.28c1.22,0.25,2.43,0.47,3.66,0.65
				c0.73,0.1,1.45,0.19,2.18,0.26h0.01c5.64,0.58,11.28,0.33,16.5,0.05c11.14,3,22.44,6,33.9,5.71c7.26-0.18,14.44-1.68,21.7-1.77
				c16.3-0.21,32.2,6.71,47.77,6.48c0.95-0.01,1.9-0.05,2.85-0.11c63.46,4.67,125.89-11.44,188.54-25.17
				c0.03-0.01,0.05-0.01,0.08-0.02c23.14-5.05,46.32-9.8,69.59-13.06c23.71-0.62,46.93-7.34,70.56-9.65
				c25.9-2.54,51.82,0.27,77.68,4.02C826.09,353.25,785.61,355.48,745.2,358.71z"/>
			<path class="st1" d="M153.37,367.54c0.2,0.08,0.41,0.17,0.61,0.24c3.07,1.16,6.38,1.76,9.5,2.25c0.66,0.09,1.31,0.2,1.97,0.3
				c4.22,0.64,8.58,1.3,12.53,3.01c0.57,0.24,1.13,0.5,1.7,0.78c0.38,0.18,0.75,0.37,1.13,0.56c1.16,0.57,2.36,1.17,3.59,1.64
				c2.34,0.9,4.8,1.32,7.12,1.68c0,0-4.55-1.81-6.82-2.66c-1.2-0.46-2.37-1.04-3.51-1.62c-0.38-0.19-0.75-0.38-1.13-0.56
				c-0.58-0.28-1.16-0.54-1.74-0.8c-4.04-1.74-8.47-2.41-12.74-3.06c-0.66-0.1-1.31-0.21-1.97-0.31c-3.07-0.47-6.34-1.06-9.33-2.19
				c-0.45-0.18-0.9-0.37-1.35-0.55l-0.17,0.47L153.37,367.54z"/>
			<path class="st1" d="M180.54,395.83c-1.67,0.55-3.45,0.82-5.38,0.82c-1.28,0-2.63-0.11-4.05-0.37c-3.2-0.54-6.42-1.63-9.53-2.68
				c-1.09-0.38-2.18-0.74-3.26-1.09c-3.58-1.14-7.26-2.03-11.33-2.98l-0.55-0.13c-2.86-0.68-5.82-1.38-8.68-2.18
				c-5.03-1.4-8.98-2.91-12.39-4.74l0.21-0.47c0.79,0.19,1.6,0.45,2.45,0.82c-0.11-0.1-0.22-0.22-0.33-0.33
				c2.9,1.38,6.23,2.58,10.29,3.72c2.86,0.79,5.81,1.48,8.65,2.16l0.54,0.13c4.1,0.96,7.79,1.85,11.41,3
				c1.08,0.34,2.18,0.71,3.27,1.09c3.08,1.04,6.28,2.12,9.41,2.66C174.67,395.85,180.54,395.83,180.54,395.83z"/>
			<path class="st1" d="M160.73,418.36v0.01c2.79,0.23,5.6,0.13,8.37-0.31c0.41,0.78,0.07,1.86-0.58,2.41
				c-0.65,0.55-1.52,0.69-2.34,0.67c-1.83-0.04-3.64-0.8-5.42-2.21L160.73,418.36z"/>
			<path class="st1" d="M162.55,448.05c-0.61,1.57-1.44,3.02-2.44,4.31c-0.24,0.3-0.49,0.61-0.84,0.73
				c-0.44,0.17-0.93-0.01-1.38-0.19c-0.58-0.23-1.15-0.46-1.73-0.69c-1-0.39-2-0.78-3-1.18c-0.14-0.05-0.29-0.11-0.43-0.18
				c0.6-0.07,1.15-0.25,1.59-0.58c0.39-0.27,0.68-0.67,0.87-1.2c0.26-0.77,0.18-1.5-0.15-2.15c-0.46-0.94-1.4-1.73-2.45-2.33
				c2.1,0.1,4.2,0.45,6.23,1.02c1.07,0.29,2.12,0.65,3.15,1.06c0.28,0.11,0.6,0.26,0.7,0.58
				C162.75,447.52,162.65,447.79,162.55,448.05z"/>
		</g>
		<g>
			<path class="st1" d="M1500,306.34v280.11l-32.48,1.32c-17.28-1.56-34.6-2.5-51.94-2.81c-1.9-0.04-3.8-0.07-5.69-0.08h-0.01
				c-1.09-0.01-2.2-0.02-3.29-0.03c-0.57-0.01-1.12-0.02-1.68-0.01c-2.17-0.02-4.34-0.02-6.51,0c-1.58,0-3.18,0.02-4.76,0.04
				c-0.01,0-0.01,0-0.01,0c-1.05,0.01-2.08,0.02-3.13,0.04c-1.29,0.02-2.57,0.04-3.87,0.08c0,0,0,0-0.01,0
				c-1.99,0.04-3.98,0.08-5.97,0.14c0.54-0.33,1.07-0.68,1.57-1.05h0.01c0.35-0.25,0.7-0.5,1.04-0.76c0.08-0.06,0.14-0.11,0.22-0.18
				c0.29-0.22,0.57-0.45,0.84-0.69c0.21-0.18,0.42-0.36,0.62-0.54c0.22-0.19,0.42-0.39,0.64-0.58c0.29-0.28,0.58-0.56,0.86-0.85
				c0.16-0.16,0.32-0.33,0.47-0.5c0.27-0.28,0.53-0.58,0.79-0.88c0.13-0.15,0.26-0.3,0.4-0.45c0.23-0.25,0.44-0.52,0.65-0.79
				c0.4-0.49,0.77-1,1.14-1.51c0.23-0.31,0.44-0.62,0.65-0.93c0.21-0.3,0.41-0.6,0.59-0.91c0.2-0.3,0.39-0.6,0.57-0.91
				c0.16-0.25,0.31-0.52,0.47-0.78c0.58-1,1.12-2.02,1.63-3.06c0.25-0.49,0.48-1,0.72-1.51c0.23-0.5,0.45-1.02,0.67-1.54
				c0.12-0.27,0.24-0.56,0.35-0.84c0.59-1.45,1.14-2.94,1.64-4.46c0.11-0.33,0.23-0.66,0.33-1c0.27-0.85,0.54-1.72,0.78-2.58
				c0.15-0.49,0.29-1,0.42-1.5c0.25-0.93,0.5-1.87,0.73-2.8c0.17-0.69,0.34-1.38,0.49-2.07c0.77-3.37,1.41-6.74,2-10.01
				c1.07-6.07,2.14-12.16,3.19-18.25c0.26-1.53,0.53-3.05,0.78-4.57c0.15-0.89,0.3-1.77,0.45-2.66c0.25-1.42,0.48-2.84,0.72-4.26
				c0.38-2.27,0.75-4.54,1.12-6.83c0.33-1.99,0.64-3.98,0.96-5.97c0.23-1.42,0.45-2.85,0.67-4.27c0.31-2.02,0.62-4.04,0.92-6.06
				c0.12-0.83,0.25-1.65,0.37-2.48c0.48-3.22,0.94-6.46,1.39-9.68c0.44-3.22,0.88-6.45,1.28-9.68c0.14-1.07,0.27-2.15,0.41-3.22
				c0.23-1.82,0.44-3.64,0.65-5.46c0.29-2.51,0.57-5.02,0.83-7.54c0.2-1.82,0.38-3.63,0.56-5.45c0.12-1.27,0.25-2.55,0.36-3.83
				c0.07-0.75,0.14-1.52,0.21-2.27c0.06-0.64,0.1-1.28,0.16-1.92c0.07-0.86,0.14-1.71,0.21-2.56c0.07-0.77,0.13-1.56,0.19-2.34
				c0.05-0.59,0.09-1.18,0.13-1.77c0.21-2.85,0.4-5.69,0.56-8.54c0.08-1.38,0.15-2.74,0.22-4.11c0.11-2.21,0.21-4.41,0.28-6.63
				c0.05-0.99,0.08-1.99,0.1-2.98c0.04-1.18,0.07-2.37,0.09-3.54v-0.05c0.03-1.07,0.05-2.12,0.06-3.18
				c0.03-1.57,0.05-3.15,0.05-4.73c0.03-4.15-0.01-8.31-0.1-12.45c-0.13-5.59-0.38-11.19-0.75-16.79c-0.09-1.39-0.19-2.76-0.3-4.15
				c-0.08-0.93-0.15-1.87-0.24-2.8c-0.07-0.76-0.13-1.53-0.21-2.29c-0.25-2.55-0.54-5.11-0.89-7.66c-0.11-0.85-0.24-1.7-0.36-2.55
				c-0.11-0.75-0.24-1.51-0.36-2.26c-0.14-0.85-0.28-1.71-0.43-2.55c-0.01-0.08-0.03-0.16-0.05-0.25c-0.01-0.05-0.02-0.09-0.03-0.15
				c-0.1-0.59-0.22-1.18-0.33-1.76c-0.11-0.6-0.24-1.2-0.37-1.79c-0.08-0.38-0.16-0.74-0.25-1.12c-0.13-0.62-0.27-1.24-0.42-1.87
				c-0.14-0.62-0.29-1.24-0.45-1.86c-0.77-3.08-1.67-6.11-2.72-9.06c-0.15-0.43-0.31-0.88-0.48-1.31c-0.14-0.4-0.29-0.79-0.45-1.19
				c-0.17-0.45-0.35-0.91-0.54-1.36c-0.89-2.18-1.87-4.3-2.95-6.36c-0.13-0.26-0.27-0.53-0.41-0.79c-0.15-0.28-0.3-0.56-0.46-0.83
				c-0.13-0.24-0.26-0.48-0.41-0.72c-0.47-0.83-0.96-1.64-1.47-2.44c-0.64-1.02-1.32-2.02-2.03-3c-0.41-0.58-0.83-1.14-1.26-1.7
				c-0.07-0.09-0.14-0.19-0.22-0.28c0.31-0.01,0.63-0.01,0.94-0.02c11.84-0.24,23.71-0.33,35.62-0.29
				C1457.6,305.04,1478.78,305.54,1500,306.34z"/>
			<path class="st1" d="M1500,306.34v83.81c-1.11-0.5-2.23-0.99-3.36-1.45c-8.61-3.5-17.67-5.22-26.83-5.98
				c-4.95-0.41-9.95-0.55-14.91-0.52c-0.66,0-1.31,0-1.97,0.01c-0.39,0-0.77,0.01-1.16,0.01c-3.71,0.04-7.6,0.02-11.39-0.37
				c-7.85-0.8-15.29-3.18-19.93-9.89c-0.98-1.42-1.78-2.98-2.45-4.61c-0.09-1.39-0.19-2.76-0.3-4.15c-0.08-0.93-0.15-1.87-0.24-2.8
				c-0.07-0.76-0.13-1.53-0.21-2.29c-0.25-2.55-0.54-5.11-0.89-7.66c-0.11-0.85-0.24-1.7-0.36-2.55c-0.11-0.75-0.24-1.51-0.36-2.26
				c-0.14-0.85-0.28-1.71-0.43-2.55c-0.01-0.08-0.03-0.16-0.05-0.25c-0.01-0.05-0.02-0.09-0.03-0.15c-0.1-0.59-0.22-1.18-0.33-1.76
				c-0.11-0.6-0.24-1.2-0.37-1.79c-0.08-0.38-0.16-0.74-0.25-1.12c-0.13-0.62-0.27-1.24-0.42-1.87c-0.14-0.62-0.29-1.24-0.45-1.86
				c-0.77-3.08-1.67-6.11-2.72-9.06c-0.15-0.43-0.31-0.88-0.48-1.31c-0.14-0.4-0.29-0.79-0.45-1.19c-0.17-0.45-0.35-0.91-0.54-1.36
				c-0.89-2.18-1.87-4.3-2.95-6.36c-0.13-0.26-0.27-0.53-0.41-0.79c-0.15-0.28-0.3-0.56-0.46-0.83c-0.13-0.24-0.26-0.48-0.41-0.72
				c-0.47-0.83-0.96-1.64-1.47-2.44c-0.64-1.02-1.32-2.02-2.03-3c-0.15-0.58-0.31-1.15-0.46-1.73v-0.01
				c-0.03-0.09-0.05-0.17-0.08-0.26c11.84-0.24,23.71-0.33,35.62-0.29C1457.6,305.04,1478.78,305.54,1500,306.34z"/>
			<path class="st1" d="M1500,443.34v33.16c-6.67,2.44-13.72,3.37-19.02-1.21c-2.96-2.56-4.77-6.42-6.45-10.33
				c-0.67-1.57-1.32-3.14-2.04-4.65v-0.02c-1.79-3.88-3.91-7.31-7.49-8.95c2.53-1.26,5.11-2.29,7.74-3.14
				C1481.5,445.38,1490.78,444.5,1500,443.34z"/>
			<path class="st1" d="M1500,551.53v34.93l-32.48,1.32c-17.28-1.56-34.6-2.5-51.94-2.81c-1.9-0.04-3.8-0.07-5.69-0.08h-0.01
				c-1.09-0.01-2.2-0.02-3.29-0.03c-0.57-0.01-1.12-0.02-1.68-0.01c-2.17-0.02-4.34-0.02-6.51,0c-1.58,0-3.18,0.02-4.76,0.04
				c-0.01,0-0.01,0-0.01,0c-1.05,0.01-2.08,0.02-3.13,0.04c-0.25-0.62-0.49-1.24-0.74-1.87c-0.49-1.28-0.97-2.55-1.43-3.82
				c-0.08-0.19-0.15-0.39-0.22-0.58c-0.08-0.22-0.16-0.43-0.25-0.65c0.3-0.05,0.59-0.09,0.9-0.14c1.64-0.25,3.28-0.5,4.92-0.74h0.01
				c6.01-0.91,12.01-1.83,18.02-2.74c0.02,0,0.04-0.01,0.06-0.01c1.17-0.18,2.34-0.35,3.52-0.53c0.59-0.08,1.19-0.18,1.78-0.26
				c1.61-0.25,3.23-0.5,4.85-0.76c19.98-3.11,39.94-6.71,59.13-13.5C1487.5,557.03,1493.81,554.41,1500,551.53z"/>
			<path class="st1" d="M1449.48,434.77c-3.48,43.5-8.46,87.5-23.46,127.9c-1.26,3.41-2.62,6.83-4.1,10.15
				c-1.87,4.21-3.94,8.3-6.34,12.15c-8.36-0.17-16.72-0.18-25.08-0.05c-3.28,0.05-6.56,0.13-9.84,0.22
				c2.87-1.75,5.33-3.95,7.46-6.47c-0.08-0.22-0.16-0.44-0.25-0.66c0.3-0.04,0.59-0.09,0.9-0.14c7.73-9.67,10.95-23.75,13.19-36.42
				c10.13-57.43,19.94-115.79,16.05-174.08c-0.09-1.39-0.19-2.77-0.3-4.15c-1.56-19.82-5.15-40.51-16.29-55.96
				c-0.47-0.67-0.97-1.33-1.48-1.97c0.31-0.01,0.63-0.01,0.94-0.02c11.84-0.24,23.71-0.33,35.62-0.29
				c8.07,17.46,12.43,37.03,14.22,56.62c0.63,6.87,0.96,13.76,1.07,20.65C1452.05,399.73,1450.88,417.3,1449.48,434.77z"/>
		</g>
	</g>
	<g>
		<path class="st2" d="M1463.31,468.8c-0.15,12.49-0.77,25.1-3.96,37.18c-6.29,23.9-22.05,44-37.43,63.35
			c-5.29,6.66-22.89,13.59-32.45,17.12c-0.84,0.31-1.62,0.59-2.33,0.85l-1.08-0.3c-35.99-6.55-72.11-12.43-108.33-17.59
			c-1.73-0.25-3.47-0.5-5.2-0.74c-44.11-6.22-88.38-11.43-132.73-15.59c-0.01-0.01-0.01-0.01-0.02,0c-19.1-1.8-38.22-3.4-57.36-4.82
			c-39.12-0.25-80.71-4.61-122.57-12.32c-19.7-3.62-39.47-7.99-59.06-13.01c-1.25,0.2-2.51,0.39-3.77,0.57
			c-26.13,3.92-52.71,6.71-79.36,9.33c-4.92,0.48-9.85,0.95-14.78,1.43c-22.56,2.19-45.57,4.35-67.7-0.57
			c-37.29-15.12-80.8-19.67-123.76-24.09c-34.92-3.6-69.83-7.18-104.75-10.79c-1.4-0.14-2.81-0.29-4.21-0.43
			c-0.9-0.02-1.78-0.03-2.67-0.03c-20.33-0.06-41.09,3.59-61.41,8.98c-15.5,7.7-35.63,10.69-54.93,9.95
			c-19.31-0.74-38.3-4.9-57.47-7.38c-26-3.37-52.41-3.64-78.47-0.8c-21.77,2.91-46.19,6.55-69.42,0.77
			c-11.89-2.95-23.14-8.3-35.17-10.55c-12.73-2.39-25.94-1.23-38.63-3.74c-7.48-1.48-15.08-4.75-20.57-9.77
			c-3.85-3.52-6.65-7.88-7.64-13.09c-0.33-5.28,4.04-9.94,9.05-11.66c5-1.72,10.46-1.13,15.71-0.38c6.95,1,13.85,2.28,20.69,3.83
			c4.01,0.91,7.99,1.9,11.94,3c2.12,0.58,4.23,1.2,6.34,1.83c1.08,0.33,2.39,0.57,3.52,0.45c0.6-0.07,1.15-0.23,1.59-0.53
			c0.39-0.25,0.68-0.6,0.87-1.08c0.26-0.7,0.18-1.36-0.15-1.94c-0.46-0.85-1.4-1.57-2.45-2.1c-0.59-0.3-1.22-0.54-1.8-0.72
			c-3.48-1.05-6.97-2.08-9.89-3.01c-7.16-1.34-14.41-2.14-21.68-2.38c-2.13-0.07-4.26-0.08-6.36-0.42
			c-2.02-0.33-3.99-0.95-5.92-1.61c-2.8-0.95-5.56-1.99-8.3-3.12c-3.47-1.43-7.26-3.44-8.23-7.06c-0.36-1.33-0.27-2.73-0.08-4.1
			c0.29-2.01,0.84-4.02,1.88-5.76c2.77-4.67,8.63-6.76,14.04-6.53c5.41,0.24,10.54,2.39,15.26,4.12c1.98,0.89,3.95,1.77,5.92,2.66
			h0.01c0.49,0.22,0.98,0.44,1.47,0.66c1.45,0.65,2.92,1.31,4.5,1.56c1.29,0.19,2.59,0.09,3.89,0.05c0.74-0.03,1.49-0.05,2.23-0.05
			c0,0,0,0,0.01,0c4.69,0,9.38,0.59,13.92,1.75c2.19,0.56,4.38,1.24,6.63,1.1c0.09-0.01,0.2-0.02,0.29-0.04
			c0.12-0.03,0.24-0.08,0.32-0.17c0.04-0.04,0.07-0.08,0.08-0.11c0.1-0.16,0.08-0.33-0.04-0.5v-0.01c-0.05-0.09-0.12-0.18-0.22-0.25
			c-0.21-0.2-0.5-0.36-0.76-0.44c-3.59-1.03-7.24-1.85-10.93-2.45c-6.53-1.06-13.16-1.42-19.69-2.45c-0.25-0.04-0.49-0.08-0.74-0.12
			c0,0,0,0-0.01,0c-1.67-0.27-3.34-0.59-5-0.99c-4.56-1.08-8.98-2.68-12.93-5.18c-0.98-0.61-1.94-1.3-2.66-2.22
			c-1.02-1.3-1.44-2.96-1.75-4.59c-0.27-1.43-0.49-2.89-0.33-4.35c0.37-3.57,2.96-6.66,6.14-8.31c3.19-1.66,6.89-2.05,10.47-1.87
			c1.06,0.06,2.13,0.16,3.24,0.41c0.79,0.17,1.6,0.41,2.45,0.74c-0.11-0.09-0.22-0.2-0.33-0.3c-2.23-2.22-3.07-5.76-2-8.72
			c1.41-3.94,5.63-6.23,9.76-6.92c1.42-0.24,2.85-0.32,4.28-0.28c2.68,0.05,5.36,0.5,8.09,1.13c2.08,0.49,4.18,1.07,6.3,1.67
			c-0.28-0.08-0.54-0.23-0.74-0.41c-0.25-0.2-0.44-0.45-0.6-0.74v-0.01c-0.5-0.91-0.6-2.2-0.53-3.3c0.13-1.91,0.46-3.88,1.49-5.51
			c1.58-2.51,4.54-3.77,7.42-4.44c0.51-0.11,1.02-0.22,1.53-0.3c2.32-0.41,4.69-0.55,7.05-0.58c0.37-0.01,0.74-0.01,1.12-0.01
			c2.99-0.01,6,0.11,8.94,0.68h0.01c0.09,0.02,0.2,0.04,0.29,0.06c2.13,0.42,4.21,1.08,6.36,1.46c2.64,0.47,5.35,0.52,8.03,0.64
			c0.17,0.01,0.33,0.02,0.5,0.03c8.53,0.42,17.02,1.68,24.92,3.92c35.61,0.92,69.71,13.45,104.31,21.91
			c2.44,0.59,4.89,1.17,7.36,1.63c1.22,0.23,2.43,0.42,3.66,0.58c0.73,0.09,1.45,0.17,2.18,0.24h0.01c5.64,0.53,11.28,0.3,16.5,0.05
			c11.14,2.71,22.44,5.42,33.9,5.16c7.26-0.16,14.44-1.52,21.7-1.6c16.3-0.19,32.2,6.06,47.77,5.85c0.95-0.01,1.9-0.05,2.85-0.1
			c63.46,4.21,125.89-10.33,188.54-22.73c0.03-0.01,0.05-0.01,0.08-0.02c23.14-4.56,46.32-8.85,69.59-11.79
			c23.71-0.56,46.93-6.63,70.56-8.71c25.9-2.29,51.82,0.25,77.68,3.63c0.01,0,0.01,0,0.02,0h0.01c10.9,1.42,21.77,3,32.64,4.42
			c0.58,0.08,1.18,0.16,1.76,0.24c15.78,2.05,31.6,3.76,47.44,5.12c8.48,0.74,16.96,1.38,25.45,1.9
			c25.66,1.63,51.32,2.35,76.86,2.18c3.92-0.03,7.83-0.08,11.75-0.14c36.88-7.11,73.81-14.24,109.97-24.35
			c24.95-6.98,49.56-15.39,75.06-19.85c12.69-2.22,25.52-3.45,38.35-4.56c39.63-3.43,79.37-5.7,118.88-7.09
			c3.03,0.68,6.03,1.37,9.06,2.05h0.01c6.9,1.56,13.81,3.11,20.71,4.67c2.78,0.63,5.6,1.27,8.12,2.6c3.5,1.84,6.19,4.89,8.55,8.06
			c14.65,19.71,18.55,45.27,20.27,69.77C1463.07,439.93,1463.49,454.36,1463.31,468.8z"/>
		<path class="st3" d="M1127.63,441.83c-20.68,6.47-40.4,15.96-58.35,28.09c-5.75,3.89-11.72,8.19-18.65,8.71
			c-6.93,0.52-14.78-4.71-14.1-11.63c0.51-5.21,5.32-8.79,9.74-11.6c5.14-3.27,10.38-6.47,16.08-8.62
			c5.8-2.19,11.95-3.27,18.05-4.33c10.13-1.77,20.26-3.53,30.39-5.3c3.01-0.52,6.23-1.02,9.01,0.25
			C1122.58,438.68,1124.38,442.49,1127.63,441.83z"/>
		<path class="st3" d="M1241.82,480.01c-40.79,7.79-81.3,17.01-121.44,27.65c-3.81,1.01-8.16,2.5-9.5,6.22
			c-2.27,6.29,5.92,11.17,12.55,12.04c27.14,3.55,53.26-10.54,80.39-14.14c15.73-2.09,31.74-0.62,47.51-2.33
			c8.24-0.89,18.54-5.36,17.64-13.6c-0.47-4.32-4.1-7.58-7.8-9.86C1252.47,480.62,1241.95,478.29,1241.82,480.01z"/>
		<path class="st3" d="M983.92,519.89c-21.65-7.47-42.54-17.11-62.28-28.73c-13.36-7.87-27.32-16.96-42.81-16.3
			c-0.96,0.04-1.98,0.14-2.74,0.73c-2.28,1.74-0.26,5.36,1.96,7.17c9.03,7.37,20.6,10.65,31.51,14.74
			c25.73,9.65,50.25,24.92,77.71,26.16C987.12,521.59,985.42,519.75,983.92,519.89z"/>
		<path class="st3" d="M354.08,438.53c-15.62-2.75-31.16,4.14-45.53,10.85c-10.35,4.83-20.69,9.67-31.04,14.5
			c-3.34,1.56-7.03,3.51-8.1,7.04c9.24,3.64,19.52-0.62,28.52-4.81c8.32-3.87,16.63-7.74,24.95-11.62c3.83-1.79,7.7-3.58,11.81-4.56
			c6.74-1.61,13.94-0.98,20.47-3.29c2.01-0.71,4.12-1.93,4.64-4c0.56-2.26-1.16-4.59-3.3-5.52
			C354.37,436.19,351.94,436.3,354.08,438.53z"/>
		<path class="st3" d="M214.21,453.8c-24.59,2.28-49.67-0.77-73-8.87c-1.73-0.6-3.99-1.09-5.1,0.36c-0.85,1.11-0.41,2.81,0.58,3.78
			c1,0.98,2.39,1.42,3.72,1.82c19.47,5.89,39.68,11.85,59.85,9.15C204.98,459.42,209.93,458.15,214.21,453.8z"/>
		<path class="st3" d="M152.35,481.23c-4.13-1.44-8.26-2.88-12.39-4.32c-1.28-0.44-2.62-0.9-3.95-0.67
			c-3.32,0.57-4.49,4.68-4.82,8.03c-0.1,0.98-0.16,2.04,0.36,2.87c0.43,0.68,1.17,1.08,1.89,1.43c5.71,2.8,11.95,4.51,18.28,5
			c1.33,0.1,2.83,0.09,3.77-0.85c0.98-0.97,0.95-2.56,0.67-3.91C155.4,485.19,153.38,481.58,152.35,481.23z"/>
		<path class="st3" d="M83.63,466.6c5.71,0.43,11.42,0.85,17.13,1.28c1.74,0.13,3.74,0.42,4.63,1.91c0.39,0.65,0.49,1.42,0.57,2.17
			c0.16,1.47,0.24,3.01-0.33,4.36c-0.38,0.89-1.03,1.65-1.76,2.3c-2.69,2.38-6.39,3.31-9.98,3.48c-3.59,0.17-7.17-0.33-10.76-0.41
			C82.58,476.69,82.7,471.62,83.63,466.6z"/>
		<path class="st3" d="M99.07,438.27c0.03,2.08-0.4,4.21-1.53,5.95s-3.06,3.03-5.13,3.11c-1.18,0.04-2.34-0.3-3.46-0.66
			c-1.37-0.44-2.85-1.04-3.49-2.32c-0.5-0.99-0.38-2.16-0.21-3.25c0.28-1.82,0.67-3.61,1.17-5.38c0.24-0.87,0.56-1.81,1.32-2.3
			c0.58-0.37,1.3-0.42,1.98-0.45c2.44-0.09,5.05,0.03,7.07,1.41C98.8,435.76,99.82,438.84,99.07,438.27z"/>
		<path class="st3" d="M162.01,425.96c-3.19-2-6.62-3.61-10.19-4.8c-3-1-6.33-1.68-9.27-0.5c-2.93,1.18-5,4.88-3.44,7.63
			c1.24,2.17,4,2.82,6.45,3.27c6.79,1.24,13.66,2.48,20.55,2.06c1.09-0.07,2.37-0.3,2.83-1.29c0.42-0.9-0.07-1.95-0.66-2.75
			C166.4,427,163.4,425.27,162.01,425.96z"/>
		<path class="st3" d="M178.91,410.12c-3.14-1.52-6.28-3.04-9.43-4.56c-2.75-1.33-5.58-2.69-8.62-3c-1.63-0.17-3.34-0.01-4.76,0.8
			c-1.42,0.8-2.5,2.35-2.43,3.98c0.07,1.56,1.15,2.93,2.48,3.74s2.88,1.16,4.42,1.44c5.46,1.01,11.04,1.4,16.58,1.17
			c0.65-0.03,1.35-0.08,1.85-0.51c0.66-0.56,0.7-1.62,0.34-2.41C178.96,410,178.27,409.41,178.91,410.12z"/>
		<path class="st3" d="M129.36,395.61c0.75,1.56,0.76,3.45,0.02,5.01c-0.74,1.56-2.21,2.75-3.89,3.16
			c-0.99,0.24-2.02,0.21-3.03,0.12c-1.28-0.11-2.68-0.37-3.49-1.37c-0.42-0.52-0.63-1.19-0.72-1.86c-0.33-2.55,1.12-5.24,3.44-6.36
			C124,393.18,128.05,392.89,129.36,395.61z"/>
		<path class="st3" d="M126.13,417.43c-1.52-1.15-3.52-2.35-5.2-1.45c-0.78,0.42-1.29,1.21-1.75,1.97
			c-0.91,1.48-1.84,3.01-2.08,4.73c-0.32,2.21,0.83,4.73,2.96,5.37c2.32,0.69,4.79-1.09,5.73-3.32
			C126.73,422.5,126.53,419.97,126.13,417.43z"/>
		<path class="st3" d="M113.76,441.71c-1.45-0.65-2.9-1.29-4.34-1.94c-0.36-0.16-0.76-0.32-1.13-0.21c-0.28,0.08-0.49,0.3-0.68,0.52
			c-2.2,2.63-2.21,6.39-2.1,9.82c0.01,0.34,0.03,0.7,0.24,0.97c0.16,0.2,0.4,0.31,0.64,0.4c2.79,1.06,6.26,0.21,8.04-2.19
			C116.2,446.69,116,442.71,113.76,441.71z"/>
		<path class="st3" d="M227.39,397.12c-5.8-0.16-11.69-0.33-17.22-2.08c-3.73-1.18-7.21-3.05-10.95-4.21
			c-7.31-2.27-15.15-1.71-22.78-1.13c-0.78,1.41,1.11,2.77,2.64,3.27c14.17,4.64,28.82,7.8,43.65,9.41c1.87,0.2,3.92,0.34,5.46-0.74
			S230.13,397.2,227.39,397.12z"/>
		<path class="st4" d="M1104.13,543.07c-8.5-4.1-18.16-5.24-26.8-9.03c-8.64-3.79-16.74-11.75-15.97-21.16
			c0.83-10.05,10.87-16.38,19.79-21.08c19.86-10.48,39.71-20.96,59.57-31.44c-28.63,2.75-56.61,11.96-81.28,26.74
			c-8.34,5-18.27,10.83-27.12,6.8c-2.39-1.09-4.44-2.84-6.88-3.81c-5.19-2.07-11.72,0.09-14.65,4.85
			c-2.93,4.76-1.91,11.57,2.29,15.26c-4.43,2.67-9.9,3.56-14.96,2.43c7.85,7.5,15.95,15.17,26.02,19.25
			c6.74,2.73,14.03,3.71,21.23,4.67C1064.28,539.05,1083.18,541.56,1104.13,543.07z"/>
		<path class="st4" d="M959.84,535.93c-19.7-3.62-39.47-7.99-59.06-13.01c-1.25,0.2-2.51,0.39-3.77,0.57
			c-0.25-0.14-0.49-0.28-0.74-0.41c-3.35-1.75-7.13-2.46-10.68-3.73c-7.32-2.63-13.51-7.59-20.27-11.45
			c-15.84-9.04-34.35-11.78-52.49-14.08c-0.83-0.11-1.65-0.22-2.48-0.32c2.47-0.5,4.95-0.84,7.44-1.03
			c15.34-1.15,30.91,3.35,45.37,9.05c16.79,6.63,33.09,14.99,50.8,18.55c11.37,2.3,23.41,2.66,33.73,7.94
			C951.92,530.17,955.86,533.16,959.84,535.93z"/>
		<path class="st4" d="M1040.25,404.28c-1.4,1.36-3.28,2.07-5.11,2.74c-14.8,5.41-30.02,9.65-45.48,12.71
			c-0.84,0.17-1.69,0.33-2.54,0.49c-6.1,1.15-12.6,2.27-17.21,6.41c-2.03,1.8-3.68,4.17-6.18,5.19c-2.7,1.1-5.76,0.41-8.66,0.65
			c-7.33,0.58-13.07,7.37-14.45,14.59c-1.39,7.23,0.73,14.69,3.71,21.42c6.16,13.95,16.91,26.74,31.47,31.29
			c8.21,2.56,17.09,2.37,25.31,4.92c3.89,1.21,7.75,3.36,10.69,6.2c3.28,3.16,5.43,7.18,5.24,11.71
			c-5.33-2.72-10.88-5.43-16.63-7.83c-7.45-3.1-15.24-5.68-23.32-7.11c-4.72-0.83-9.62-1.28-13.92-3.39
			c-1.22-0.59-2.35-1.31-3.45-2.09l-0.01-0.01c-2.23-1.58-4.28-3.44-6.44-5.16l-0.01-0.01c-1.13-0.91-2.29-1.77-3.52-2.54
			c-0.25-0.15-0.49-0.3-0.74-0.44c-0.01,0-0.01,0-0.01-0.01c-3.79-2.18-8.09-3.48-12.31-4.86c-5.09-1.69-10.05-3.53-13.79-7.26
			c-7.47-7.47-6.45-21.55,2.03-27.86c2.57-1.91,5.81-3.34,7.12-6.27c2.39-5.34-3.96-11.08-9.8-10.95
			c-5.85,0.12-10.95,3.69-16.25,6.15c-5.3,2.45-12.23,3.6-16.48-0.41c7.72-9.44,16.75-17.79,26.77-24.75
			c10.17-7.06,21.3-12.65,32.05-18.59c2.31-1.4,4.69-2.62,7.12-3.7c2.93-1.31,5.95-2.4,9.03-3.31c25.66,1.63,51.32,2.35,76.86,2.18
			C1042.91,397.7,1042.85,401.76,1040.25,404.28z"/>
		<path class="st4" d="M1019.8,504.89c-9.61-3.72-18.7-8.78-26.92-15c-3.49-2.64-7.06-5.91-7.61-10.25
			c-0.79-6.26,4.94-11.42,6.27-17.6c1.76-8.2-4.49-16.94-1.54-24.8c1.52-4.04,5.54-7.02,9.85-7.3c4.31-0.28,8.68,2.16,10.71,5.97
			c2.67,5.02,1.24,11.12,0.45,16.75c-1.99,14.21,0.76,29.04,7.71,41.6c1.05,1.9,2.22,3.85,2.26,6.02
			C1020.99,502.45,1019.33,504.81,1019.8,504.89z"/>
		<path class="st4" d="M817.65,532.82c-4.92,0.48-9.85,0.95-14.78,1.43c-22.56,2.19-45.57,4.35-67.7-0.57
			c-37.29-15.12-80.8-19.67-123.76-24.09c-34.92-3.6-69.83-7.18-104.75-10.79c-1.4-0.14-2.81-0.29-4.21-0.43
			c-0.9-0.02-1.78-0.03-2.67-0.03c1.48-0.26,2.96-0.53,4.44-0.79c41.24-7.19,83.4-9.14,125.11-5.74
			c-21.44,2.03-42.89,4.04-64.33,6.07c30.68,1.83,61.43,3.68,91.71,8.9c53.67,9.27,106.58,29.17,160.87,24.83
			C817.66,532.03,817.68,532.43,817.65,532.82z"/>
		<path class="st4" d="M939.02,390.3c-2.72,1.75-5.53,3.33-8.46,4.72c0,0-0.01,0-0.02,0c-22.07,10.6-49.37,11.71-74.58,11.97
			c-16.51,0.17-33.02,0.34-49.51,0.51c3.31,3.22,6.62,6.45,9.92,9.67c-30.11,7.69-61.28,10.16-92.2,13.3
			c-58.88,5.99-117.51,14.47-178.28,25.42c45.96-12,91.92-23.99,137.88-35.99c-1.12-3.79-5.92-4.84-9.86-5
			c-15.19-0.61-31.9,1.82-45.85-2.46c-4.63-1.4-8.95-3.55-12.8-6.79c7.99-2.75,16-5.5,23.99-8.25c0.03-0.01,0.05-0.01,0.08-0.02
			c23.14-4.56,46.32-8.85,69.59-11.79c23.71-0.56,46.93-6.63,70.56-8.71c25.9-2.29,51.82,0.25,77.68,3.63c0.01,0,0.01,0,0.02,0h0.01
			c10.9,1.42,21.77,3,32.64,4.42c0.58,0.08,1.18,0.16,1.76,0.24C907.36,387.23,923.18,388.95,939.02,390.3z"/>
		<path class="st4" d="M506.66,498.82c-1.4-0.14-2.81-0.29-4.21-0.43c-0.9-0.02-1.78-0.03-2.67-0.03
			c-20.33-0.06-41.09,3.59-61.41,8.98c-15.5,7.7-35.63,10.69-54.93,9.95c-19.31-0.74-38.3-4.9-57.47-7.38
			c-26-3.37-52.41-3.64-78.47-0.8c-21.77,2.91-46.19,6.55-69.42,0.77c-11.89-2.95-23.14-8.3-35.17-10.55
			c-12.73-2.39-25.94-1.23-38.63-3.74c-7.48-1.48-15.08-4.75-20.57-9.77c25.3,10.43,56.11,5.32,82.72,14.1
			c6.3,2.08,12.42,4.96,18.99,5.85c4.04,0.55,8.14,0.33,12.21,0.1c26.45-1.44,52.91-2.89,77.97-5.32c17.37-3.18,35.5-6.32,52.43-1.3
			c9.03,2.68,17.54,7.65,26.95,8.17c10.36,0.58,20.49-4.32,30.83-3.49c6.48,0.52,12.6,3.26,19.07,3.82
			c7.94,0.68,15.73-1.95,23.36-4.2c14.44-4.25,29.25-7.22,44.21-8.88c10.68-1.18,22.25-1.45,31.8,2.9
			C505.05,497.95,505.86,498.36,506.66,498.82z"/>
		<path class="st4" d="M447.91,420.55c0.11,1.3-0.86,2.22-2.08,2.83c-0.68,0.34-1.42,0.58-2.12,0.74
			c-18.02,4.21-36.65,4.84-55.14,5.43c-16.34,0.54-34.22,0.58-46.97-9.66c-6.74,2.4-14.17,0.73-21.33,0.75
			c-20.22,0.09-37.64,13.75-57.06,19.36c-2.55,0.74-6.55,0.13-6.11-2.47c0.24-1.4,1.77-2.12,3.1-2.6
			c18.9-6.88,37.8-13.76,56.72-20.65c0.41-0.15,0.83-0.3,1.24-0.45c3.21-1.17,6.48-2.18,9.81-3.04h0.01
			c5.64,0.53,11.28,0.3,16.5,0.05c11.14,2.71,22.44,5.42,33.9,5.16c7.26-0.16,14.44-1.52,21.7-1.6c16.3-0.19,32.2,6.06,47.77,5.85
			C447.89,420.35,447.9,420.44,447.91,420.55z"/>
		<path class="st4" d="M175.05,401.16c22.8,4.71,45.82,8.32,68.96,10.81c7.89,0.85,16.06,1.54,23.57-1
			c-5.61,3.47-12.04,5.62-18.61,6.24c-5.4,0.51-10.84,0-16.25-0.51c-21.71-2.04-44.43-4.44-62.51-16.63
			C171.36,399.83,172.1,400.55,175.05,401.16z"/>
		<path class="st4" d="M161.28,419.75c29.21-4.03,58.02,9.46,87.49,10.37c-20.64,0.07-41.29-0.82-61.85-2.68
			C178.86,426.72,170.01,425.45,161.28,419.75z"/>
		<path class="st4" d="M151.3,440.43c-0.05-0.09-0.12-0.18-0.22-0.25c6.98-0.71,14.05,0.52,21.03,1.44
			c12.96,1.73,26.06,2.43,39.13,2.13c-18.99,7.1-40.76,6.39-60.31-2.53c0.12-0.03,0.24-0.08,0.32-0.17
			c0.04-0.04,0.07-0.08,0.08-0.11L151.3,440.43z"/>
		<path class="st4" d="M231.74,475.53c-17.9,1.37-35.81,2.72-53.71,4.09c-3.71,0.28-7.46,0.57-11.14,0.05
			c-5.98-0.84-11.45-3.71-16.79-6.55c-1.09-0.58-2.32-1.31-3.37-2.11c-0.74-0.57-1.4-1.16-1.84-1.75c0.39-0.25,0.68-0.6,0.87-1.08
			c0.26-0.7,0.18-1.36-0.15-1.94c1.18-0.63,2.46-1.01,3.78-1.18c2.56-0.35,5.28,0.07,7.76,0.87c3.8,1.24,7.27,3.29,10.95,4.82
			C187.89,478.92,210.79,471.13,231.74,475.53z"/>
		<path class="st4" d="M156.23,388.17c0.25-2.19-0.08-4.52-1.36-6.3c-0.45-0.63-1.01-1.17-1.62-1.63c2.32-0.41,4.69-0.55,7.05-0.58
			c-1.14,5.21-3.13,10.25-5.87,14.83C155.2,392.43,155.97,390.35,156.23,388.17z"/>
		<path class="st4" d="M185.55,382.52c-3.39,2.26-6.78,4.54-10.17,6.82c-0.63-3.44-2.44-6.64-5.02-9c0.09,0.02,0.2,0.04,0.29,0.06
			c2.13,0.42,4.21,1.08,6.36,1.46c2.64,0.47,5.35,0.52,8.03,0.64C185.22,382.5,185.38,382.51,185.55,382.52z"/>
		<path class="st4" d="M138.39,393.27c-0.17,0.16-0.37,0.31-0.55,0.46c-1.1,0.9-1.89,2.13-2.64,3.35c-1.94,3.11-3.87,6.22-5.82,9.33
			c-0.23-3.28,2.77-6.06,2.83-9.36c0.03-1.8-0.83-3.43-1.91-4.91C132.98,392.19,135.66,392.64,138.39,393.27z"/>
		<path class="st4" d="M144.54,393.29c0.81,4.93,1.55,10.29-0.87,14.66c1.61-3.52,4.59-6.39,8.17-7.86c1.7-0.7,3.59-1.14,4.92-2.41
			C152.96,395.49,148.69,394.13,144.54,393.29z"/>
		<path class="st4" d="M110.99,411.2c3.05,3.25,3.08,8.88,0.06,12.17c2.18-1.85,4.23-4.19,4.55-7.03S113.74,410.27,110.99,411.2z"/>
		<path class="st4" d="M127.7,410.6c1.01,2.35,3.84,3.96,3.79,6.52c-0.02,0.83-0.36,1.62-0.69,2.38c-1.31,2.96-2.66,5.91-4.04,8.84
			c3.15-0.77,5.81-3.33,6.7-6.45c0.3-1.05,0.41-2.16,0.76-3.2c0.9-2.71,3.22-4.65,5.44-6.44c-1.82-2.5-5.5-2.43-8.57-2.1
			C130.03,410.27,128.98,410.38,127.7,410.6z"/>
		<path class="st4" d="M118.96,434.71c-1.67-0.27-3.34-0.59-5-0.99c1.24-0.25,2.77-0.08,3.96,0.45
			C118.28,434.33,118.62,434.51,118.96,434.71z"/>
		<path class="st4" d="M130.1,438.4c-4.85,3.12-8.59,7.92-10.42,13.39c0.83-3.57,1.67-7.29,0.87-10.87
			c-0.39-1.74-1.3-3.45-2.55-4.73c0.49,0.22,0.98,0.44,1.47,0.66c1.45,0.65,2.92,1.31,4.5,1.56c1.29,0.19,2.59,0.09,3.89,0.05
			C128.61,438.42,129.36,438.4,130.1,438.4z"/>
		<path class="st4" d="M121.68,487.48c1.49-4.27,3.01-8.65,3.04-13.17c0.02-3.51-1.01-7.17-3.21-9.81c4.01,0.91,7.99,1.9,11.94,3
			C128.06,473.03,127.25,482.05,121.68,487.48z"/>
		<path class="st4" d="M401.79,447.03c-15.97,5.22-32.35,9.17-48.94,11.8c-3.54,0.56-7.23,1.12-10.16,3.18
			c18.48,2.47,37.57,0.27,55-6.34c2.05-0.78,4.15-1.67,5.61-3.3C404.77,450.73,405.37,448.13,401.79,447.03z"/>
		<path class="st4" d="M1318.88,469.67c3.96,9.05,4.99,19.82,0.72,28.72c-4.34,9.06-13.27,14.85-21.78,20.18
			c-5.51,3.45-11.02,6.9-16.53,10.35c-2.67,1.67-5.48,3.51-6.74,6.39c-1.18,2.71-0.75,5.81-0.31,8.73
			c0.59,3.89,1.18,7.79,1.73,11.69c0.65,4.55,1.25,9.12,1.75,13.69c-1.73-0.25-3.47-0.5-5.2-0.74c-1.81-4.71-3.81-9.42-6.1-13.89
			c-6.2-12.11-14.56-22.51-27.1-26.87c18.7-3.85,36.54-11.89,51.81-23.36c7.01-5.27,14.13-14.01,10.29-21.91
			c-1.54-3.16-4.56-5.31-7.54-7.17c-20.09-12.54-44.35-18.26-67.93-16.02c39.34-11.61,75.92-32.44,113.22-64.19
			c-9.11,19.11-21.99,36.41-37.68,50.62C1308.34,452.99,1314.93,460.61,1318.88,469.67z"/>
		<path class="st4" d="M1386.8,345.4c-51.98,13.07-104.67,28.46-148.27,59.63c-20.31,14.52-39.97,32.97-64.79,35.58
			c-4.72,0.5-9.61,0.37-14.06-1.28c-6.16-2.28-10.91-7.2-15.43-11.97c-3.93-4.15-7.86-8.29-11.79-12.44
			c-4.7-4.95-9.76-11.24-7.99-17.83c1.18-4.38,5.12-7.41,9.04-9.71c10.98-6.43,23.48-9.68,35.84-12.65
			C1239.47,357.91,1311.21,347.88,1386.8,345.4z"/>
		<path class="st4" d="M1389.47,586.45c-0.84,0.31-1.62,0.59-2.33,0.85l-1.08-0.3c-35.99-6.55-72.11-12.43-108.33-17.59
			c-1.73-0.25-3.47-0.5-5.2-0.74c-44.11-6.22-88.38-11.43-132.73-15.59c41.87-4.84,84.47-2.33,126.63,1.71
			c3.19,0.3,6.37,0.62,9.55,0.94c0.42,0.04,0.84,0.08,1.26,0.12c12.6,1.28,25.21,2.65,37.67,4.93
			C1340.86,565.51,1366.1,574.21,1389.47,586.45z"/>
		<path class="st5" d="M1067.92,538.65c-6.34-2.51-12.18-6.27-17.09-11c-2.89-2.79-5.55-6.09-6.35-10.02c-0.8-3.93,0.34-8,0.04-12
			c-0.05-0.64-0.15-1.33-0.58-1.81c-0.34-0.38-0.82-0.57-1.29-0.74c-4.25-1.52-9.15-1.61-13.13,0.51s-6.73,6.73-5.96,11.18
			c0.78,4.53,4.71,7.79,8.58,10.26C1043.3,532.12,1056.12,536.13,1067.92,538.65z"/>
		<path class="st5" d="M967.65,503.63c-7.87-1.16-15.62-3.13-23.08-5.86c-1.17-0.43-2.37-0.89-3.3-1.72
			c-2.01-1.79-2.41-4.9-4.39-6.73c-2.23-2.07-5.76-1.89-8.36-3.47c-3.03-1.83-4.21-5.58-4.94-9.04c-0.89-4.23-1.48-8.52-1.75-12.83
			c5.52,10.12,13.73,18.51,22.39,26.11C950.09,495.24,956.91,500.35,967.65,503.63z"/>
		<path class="st5" d="M735.77,386.56c11.79,0.93,23.47,3.22,34.75,6.8c-14.25,2.12-28.55,4.09-42.92,5.06
			c-15.95,1.07-32.03,0.91-47.85,3.29c-9.04,1.36-17.93,3.54-26.84,5.56c-8.26,1.87-16.55,3.6-24.85,5.19
			c-46.71,8.94-94.05,13.48-139.88,13.91c-14.12-0.99-28.24-1.99-42.36-2.99c-19.92-1.4-39.84-2.81-59.76-4.21
			c-23.05-1.63-46.1-3.25-69.14-4.87c-4.86-0.34-9.71-0.69-14.57-1.03c-22.15-1.57-44.84-3.26-65.06-12.42
			c12.77,2,25.55,4.01,38.32,6.01c14.52,2.28,29.2,4.56,43.85,3.38c0.9-0.08,1.78-0.16,2.68-0.25c1.22,0.23,2.43,0.42,3.66,0.58
			c0.73,0.09,1.45,0.17,2.18,0.24h0.01c5.64,0.53,11.28,0.3,16.5,0.05c11.14,2.71,22.44,5.42,33.9,5.16
			c7.26-0.16,14.44-1.52,21.7-1.6c16.3-0.19,32.2,6.06,47.77,5.85c0.95-0.01,1.9-0.05,2.85-0.1
			c63.46,4.21,125.89-10.33,188.54-22.73c0.03-0.01,0.05-0.01,0.08-0.02c23.14-4.56,46.32-8.85,69.59-11.79
			c23.71-0.56,46.93-6.63,70.56-8.71c25.9-2.29,51.82,0.25,77.68,3.63C816.66,381.63,776.19,383.65,735.77,386.56z"/>
		<path class="st5" d="M143.94,394.54c0.2,0.08,0.41,0.15,0.61,0.22c3.07,1.05,6.38,1.59,9.5,2.04c0.66,0.08,1.31,0.18,1.97,0.27
			c4.22,0.58,8.58,1.18,12.53,2.72c0.57,0.22,1.13,0.45,1.7,0.71c0.38,0.16,0.75,0.33,1.13,0.51c1.16,0.52,2.36,1.06,3.59,1.48
			c2.34,0.81,4.8,1.19,7.12,1.52c0,0-4.55-1.63-6.82-2.4c-1.2-0.41-2.37-0.94-3.51-1.46c-0.38-0.17-0.75-0.34-1.13-0.51
			c-0.58-0.25-1.16-0.49-1.74-0.73c-4.04-1.57-8.47-2.18-12.74-2.76c-0.66-0.09-1.31-0.19-1.97-0.28c-3.07-0.42-6.34-0.96-9.33-1.98
			c-0.45-0.16-0.9-0.33-1.35-0.5l-0.17,0.42L143.94,394.54z"/>
		<path class="st5" d="M171.11,420.09c-1.67,0.5-3.45,0.74-5.38,0.74c-1.28,0-2.63-0.1-4.05-0.33c-3.2-0.49-6.42-1.47-9.53-2.42
			c-1.09-0.34-2.18-0.67-3.26-0.98c-3.58-1.03-7.26-1.83-11.33-2.69L137,414.3c-2.86-0.61-5.82-1.24-8.68-1.97
			c-5.03-1.26-8.98-2.63-12.39-4.28l0.21-0.42c0.79,0.17,1.6,0.41,2.45,0.74c-0.11-0.09-0.22-0.2-0.33-0.3
			c2.9,1.24,6.23,2.33,10.29,3.36c2.86,0.72,5.81,1.34,8.65,1.95l0.54,0.11c4.1,0.87,7.79,1.67,11.41,2.71
			c1.08,0.31,2.18,0.64,3.27,0.98c3.08,0.94,6.28,1.91,9.41,2.4C165.25,420.1,171.11,420.09,171.11,420.09z"/>
		<path class="st5" d="M151.3,440.43L151.3,440.43c2.79,0.22,5.6,0.12,8.37-0.27c0.41,0.71,0.07,1.68-0.58,2.18
			c-0.65,0.5-1.52,0.62-2.34,0.6c-1.83-0.04-3.64-0.73-5.42-2L151.3,440.43z"/>
		<path class="st5" d="M153.12,467.24c-0.61,1.41-1.44,2.72-2.44,3.89c-0.24,0.27-0.49,0.55-0.84,0.66
			c-0.44,0.15-0.93-0.01-1.38-0.17c-0.58-0.21-1.15-0.41-1.73-0.62c-1-0.35-2-0.71-3-1.07c-0.14-0.05-0.29-0.1-0.43-0.16
			c0.6-0.07,1.15-0.23,1.59-0.53c0.39-0.25,0.68-0.6,0.87-1.08c0.26-0.7,0.18-1.36-0.15-1.94c-0.46-0.85-1.4-1.57-2.45-2.1
			c2.1,0.09,4.2,0.41,6.23,0.92c1.07,0.26,2.12,0.58,3.15,0.96c0.28,0.1,0.6,0.24,0.7,0.53
			C153.32,466.77,153.23,467.02,153.12,467.24z"/>
		<path class="st5" d="M1404.4,340.43c-7.83,1.82-15.64,3.54-23.43,5.18h-0.01c-0.01,0-0.01,0-0.02,0s-0.01,0-0.02,0
			c-47.72,10.05-94.73,16.92-141.9,22.29c-20.88,4.95-45.84,11.64-69.93,20.65c-10.48,3.92-21.33,8.69-27.9,17.75
			c-2.41,3.34-4.42,7.37-7.22,10.24c-1.45,1.49-3.11,2.67-5.16,3.27c-4.95,1.47-10.07-1.1-15.08-2.35
			c-10.52-2.6-21.46,0.72-32.15,2.51c-10.03,1.67-20.29,1.98-30.4,0.91c-5.19-0.54-10.47-1.43-15.54-0.21
			c-5.06,1.24-9.89,5.31-10.51,12.92c-4.52,0.12-8.04,3.99-10.14,7.99c-1.24,2.37-2.22,4.9-3.43,7.28
			c-0.84,1.64-1.78,3.21-3.02,4.58c-6.17-5.9-12.44-11.95-16.75-19.26c-0.62-1.05-1.2-2.11-1.73-3.21
			c-1.16-2.41-2.09-5.06-1.73-7.71c0.18-1.26,0.64-2.45,1.33-3.52c1.26-2.02,3.29-3.64,5.49-4.65c3.37-1.54,7.13-1.89,10.81-2.24
			c-8.9-5.68-20.56-1.73-30.3,2.34c-9.01,3.77-18.06,7.55-26.46,12.54c-4.01,2.37-7.93,5.03-12.41,6.3
			c-4.48,1.26-9.77,0.84-13.1-2.4c-5.02-4.87-3.14-13.92,2.06-18.6c5.2-4.69,12.5-6.1,19.43-7.11c9.47-1.4,19-2.38,28.56-2.96
			c6.38-0.39,12.81-0.59,19.15,0.25c8.82,1.19,18.77,4.16,25.9-1.19c-2.06-2.93-6.12-3.43-9.68-3.67
			c-17.87-1.2-35.77-2.4-53.67-2.82c-1.67-0.05-3.35-0.08-5.02-0.1c-6.61-0.1-13.25-0.08-19.85-0.39c0,0-0.01,0-0.02,0
			c-6.38-0.28-12.75-0.85-19.02-2.09c-7.57-1.49-15.09-4.06-21.7-7.99c0.58,0.08,1.18,0.16,1.76,0.24
			c15.78,2.05,31.6,3.76,47.44,5.12c8.48,0.74,16.96,1.38,25.45,1.9c25.66,1.63,51.32,2.35,76.86,2.18
			c3.92-0.03,7.83-0.08,11.75-0.14c36.88-7.11,73.81-14.24,109.97-24.35c24.95-6.98,49.56-15.39,75.06-19.85
			c12.69-2.22,25.52-3.45,38.35-4.56c39.63-3.43,79.37-5.7,118.88-7.09C1398.37,339.06,1401.38,339.75,1404.4,340.43z"/>
		<g>
			<path class="st6" d="M1500,339.6v252.29l-41.91,1.54c-17.28-1.4-34.6-2.25-51.94-2.54c-8.36-0.15-16.72-0.16-25.08-0.05
				c-3.28,0.05-6.56,0.11-9.84,0.2c1.35-0.74,2.6-1.57,3.78-2.49c0.14-0.1,0.28-0.22,0.41-0.33c0.44-0.35,0.87-0.71,1.28-1.09
				c0.22-0.19,0.42-0.39,0.63-0.58c0.1-0.09,0.22-0.2,0.32-0.3c0.21-0.21,0.42-0.42,0.63-0.64c0.14-0.13,0.26-0.26,0.4-0.41
				c0.23-0.24,0.44-0.47,0.65-0.72c0.63-0.71,1.23-1.44,1.79-2.21c0.48-0.63,0.94-1.28,1.38-1.95c0.22-0.33,0.42-0.65,0.62-0.98
				c0.22-0.34,0.42-0.68,0.61-1.03c0.48-0.81,0.93-1.65,1.37-2.5c0.21-0.42,0.41-0.85,0.62-1.28c0.21-0.43,0.41-0.87,0.59-1.31
				c0.58-1.28,1.09-2.59,1.57-3.92c0.1-0.27,0.2-0.55,0.28-0.81c0.5-1.4,0.95-2.83,1.37-4.25c0.17-0.57,0.33-1.14,0.48-1.71
				c0.57-2.06,1.06-4.13,1.51-6.18c0.18-0.8,0.35-1.6,0.51-2.39c0.17-0.79,0.33-1.58,0.48-2.37
				c10.13-51.86,19.94-104.57,16.05-157.21c-0.09-1.25-0.19-2.5-0.3-3.75c-0.14-1.6-0.29-3.21-0.47-4.84
				c-0.05-0.49-0.1-0.98-0.17-1.47c-0.12-1.06-0.25-2.11-0.4-3.17c-0.07-0.53-0.14-1.06-0.23-1.58c-0.08-0.52-0.15-1.05-0.24-1.57
				c-0.08-0.53-0.17-1.06-0.25-1.57c-0.4-2.38-0.86-4.73-1.4-7.08c-0.08-0.35-0.16-0.7-0.25-1.05c-0.08-0.39-0.18-0.76-0.28-1.15
				c-0.12-0.49-0.25-0.97-0.38-1.46c-0.44-1.7-0.94-3.38-1.49-5.02c-0.17-0.53-0.34-1.04-0.53-1.56c-0.14-0.41-0.28-0.81-0.43-1.22
				c-0.12-0.35-0.25-0.68-0.39-1.03c-0.6-1.57-1.25-3.12-1.96-4.63c-0.22-0.47-0.44-0.94-0.67-1.4c-0.23-0.45-0.45-0.9-0.69-1.35
				c-0.27-0.53-0.56-1.06-0.85-1.57c-0.25-0.42-0.48-0.85-0.74-1.27c-0.77-1.31-1.59-2.58-2.47-3.84c-0.64-0.91-1.32-1.82-2.03-2.71
				c-0.41-0.52-0.83-1.03-1.26-1.53c-0.08-0.08-0.14-0.17-0.22-0.25c0.31-0.01,0.63-0.01,0.94-0.02c4.22-0.08,8.44-0.14,12.67-0.18
				c1.46-0.02,2.92-0.03,4.39-0.04c1.89-0.02,3.79-0.03,5.69-0.04c4.28-0.02,8.57-0.02,12.86-0.01c6.71,0.03,13.44,0.08,20.18,0.18
				c3.84,0.06,7.68,0.12,11.53,0.2C1472.49,338.67,1486.24,339.08,1500,339.6z"/>
			<path class="st7" d="M1500,339.6v79.3c-4.28-1.69-8.48-3.67-12.78-5.25c-4.97-1.82-10.08-3.11-15.28-4.01
				c-3.81-0.66-7.66-1.1-11.55-1.4c-3.03-0.23-6.06-0.36-9.1-0.42c-2.6-0.05-5.19-0.06-7.78-0.03c-0.39,0-0.77,0.01-1.16,0.01
				c-7.97,0.08-16.71-0.08-23.59-3.24c-3-1.37-5.65-3.3-7.73-6.02c-0.98-1.28-1.78-2.69-2.45-4.16c-0.09-1.25-0.19-2.5-0.3-3.75
				c-0.14-1.6-0.29-3.21-0.47-4.84c-0.05-0.49-0.1-0.98-0.17-1.47c-0.12-1.06-0.25-2.11-0.4-3.17c-0.07-0.53-0.14-1.06-0.23-1.58
				c-0.08-0.52-0.15-1.05-0.24-1.57c-0.08-0.53-0.17-1.06-0.25-1.57c-0.4-2.38-0.86-4.73-1.4-7.08c-0.08-0.35-0.16-0.7-0.25-1.05
				c-0.08-0.39-0.18-0.76-0.28-1.15c-0.12-0.49-0.25-0.97-0.38-1.46c-0.44-1.7-0.94-3.38-1.49-5.02c-0.17-0.53-0.34-1.04-0.53-1.56
				c-0.14-0.41-0.28-0.81-0.43-1.22c-0.12-0.35-0.25-0.68-0.39-1.03c-0.6-1.57-1.25-3.12-1.96-4.63c-0.22-0.47-0.44-0.94-0.67-1.4
				c-0.23-0.45-0.45-0.9-0.69-1.35c-0.27-0.53-0.56-1.06-0.85-1.57c-0.25-0.42-0.48-0.85-0.74-1.27c-0.77-1.31-1.59-2.58-2.47-3.84
				c-0.64-0.91-1.32-1.82-2.03-2.71c-0.15-0.52-0.31-1.04-0.46-1.56c-0.03-0.08-0.05-0.16-0.08-0.25c4.22-0.08,8.44-0.14,12.67-0.18
				c1.46-0.02,2.92-0.03,4.39-0.04c1.89-0.02,3.79-0.03,5.69-0.04c4.28-0.02,8.57-0.02,12.86-0.01c6.71,0.03,13.44,0.08,20.18,0.18
				c3.84,0.06,7.68,0.12,11.53,0.2C1472.49,338.67,1486.24,339.08,1500,339.6z"/>
			<path class="st7" d="M1500,461.75v27.35c-0.88,0.4-1.75,0.78-2.63,1.17c-8.31,3.68-18.65,7.16-25.82,1.58
				c-0.91-0.71-1.72-1.54-2.43-2.43c-2.57-3.2-4.13-7.37-6.05-11.1v-0.02c-1.79-3.51-3.91-6.6-7.49-8.08
				c2.53-1.14,5.11-2.06,7.74-2.83c2.93-0.86,5.92-1.52,8.95-2.06c0.75-0.13,1.51-0.25,2.26-0.38
				C1482.94,463.63,1491.57,463.09,1500,461.75z"/>
			<path class="st7" d="M1500,556.48v35.41l-41.91,1.54c-17.28-1.4-34.6-2.25-51.94-2.54c-8.36-0.15-16.72-0.16-25.08-0.05
				c-0.76-1.72-1.48-3.43-2.18-5.13c-0.07-0.17-0.14-0.35-0.21-0.52c-0.08-0.2-0.16-0.4-0.25-0.59c0.3-0.04,0.59-0.08,0.9-0.12
				c0.97-0.13,1.92-0.26,2.89-0.4h0.01c0.68-0.09,1.34-0.19,2.02-0.28h0.01c1.83-0.25,3.67-0.5,5.5-0.75
				c4.18-0.57,8.35-1.14,12.52-1.72c0.02,0,0.04-0.01,0.06-0.01c3.38-0.46,6.76-0.91,10.14-1.4c2.16-0.3,4.31-0.61,6.47-0.92h0.01
				c17.8-2.62,35.53-5.8,52.65-11.27C1481.37,564.62,1490.8,560.81,1500,556.48z"/>
			<path class="st8" d="M1440.05,455.25c-3.48,39.28-8.46,79.02-23.46,115.51c-1.26,3.08-2.62,6.17-4.1,9.16
				c-1.87,3.8-3.94,7.49-6.34,10.97c-8.36-0.15-16.72-0.16-25.08-0.05c-3.28,0.05-6.56,0.11-9.84,0.2c2.87-1.58,5.33-3.56,7.46-5.85
				c-0.08-0.2-0.16-0.4-0.25-0.59c0.3-0.04,0.59-0.08,0.9-0.12c7.73-8.73,10.95-21.45,13.19-32.89
				c10.13-51.86,19.94-104.57,16.05-157.21c-0.09-1.25-0.19-2.5-0.3-3.75c-1.56-17.9-5.15-36.59-16.29-50.54
				c-0.47-0.6-0.97-1.2-1.48-1.78c0.31-0.01,0.63-0.01,0.94-0.02c11.84-0.22,23.71-0.3,35.62-0.26
				c8.07,15.77,12.43,33.44,14.22,51.14c0.63,6.2,0.96,12.43,1.07,18.65C1442.62,423.61,1441.45,439.48,1440.05,455.25z"/>
		</g>
	</g>
	<g>
		<path class="st3" d="M875.11,438.53c-1.85-6.48-8.3-10.8-14.91-12.11c-6.61-1.31-13.43-0.17-20.07,0.97
			c-58.08,9.97-116.15,19.93-174.23,29.9c57.36,10.54,116.18-10.7,174.31-5.96c7.2,0.59,14.6,1.56,21.54-0.44
			C868.69,448.89,876.32,442.77,875.11,438.53z"/>
		<path class="st4" d="M825.21,493.67c-59.61-9.98-120.51-12.17-180.68-6.5C706.05,492.03,767.75,494.57,825.21,493.67z"/>
		
			<radialGradient id="SVGID_1_" cx="12627.6182" cy="1899.3833" r="65.3329" gradientTransform="matrix(-1.9395 0 0 -1.4136 25257.2539 3140.2852)" gradientUnits="userSpaceOnUse">
			<stop  offset="0" style="stop-color:#DB7A62"/>
			<stop  offset="0.448" style="stop-color:#DC7C64"/>
			<stop  offset="0.6093" style="stop-color:#DE826B"/>
			<stop  offset="0.7243" style="stop-color:#E28C76"/>
			<stop  offset="0.8173" style="stop-color:#E79B87"/>
			<stop  offset="0.897" style="stop-color:#EFAF9D"/>
			<stop  offset="0.9662" style="stop-color:#F8C7B8"/>
			<stop  offset="1" style="stop-color:#FDD5C8"/>
		</radialGradient>
		<path class="st9" d="M873.37,478.92c-3.19-5.87-0.32-12.51,3.23-18.26c3.55-5.76,7.9-11.6,7.66-17.91
			c-0.21-5.58-4.02-10.73-8.22-15.4c-5.47-6.07-11.77-11.74-18.79-16.9c-2.84-2.09-5.91-4.14-9.71-5.15
			c-3.59-0.95-7.5-0.89-11.28-1.26c-5.83-0.58-11.35-2.21-17.03-3.32c-6.83-1.33-13.9-1.91-20.93-2.48
			c-14.05-1.14-28.09-2.29-42.14-3.43c-5.72-0.47-11.47-0.93-17.23-0.8c-9.07,0.21-18.07,1.92-26.11,4.98
			c-13.19,5.01-23.33,13.32-33.16,21.45c-6.72,5.56-13.45,11.12-20.17,16.68c-3.8,3.14-7.7,6.41-9.5,10.39
			c-1.49,3.29-1.44,6.82-1.37,10.29c0.2,10.41,0.41,20.83,0.61,31.24c0.03,1.7,0.09,3.47,1.1,5c4.05,6.12,17.51,3.2,25.23,7.01
			c2.17,1.07,3.8,2.66,6,3.71c8,3.82,18.14-0.98,27.46-2.53c9.96-1.65,20.26,0.62,30,2.87c9.29,2.15,18.57,4.29,27.86,6.44
			c15.85,3.66,33.12,7.32,48.75,3.18c14.96-3.96,26.02-14.56,41.75-16.33c4.15-0.47,9.02-0.5,11.54-2.95
			c1.23-1.2,1.59-2.75,1.92-4.23C871.94,486.06,874.37,480.77,873.37,478.92z"/>
		<path class="st10" d="M865.53,464.21c1.48-2.55,2.15-5.3,2.68-8.04c1.36-7.03,1.85-14.32-0.92-21.13
			c-2.77-6.81-9.27-13.11-18.43-15.53c-2.9-0.76-6.01-1.14-8.69-2.24c-2.29-0.94-4.12-2.37-6.25-3.49c-2.84-1.5-6.16-2.44-9.44-3.34
			c-17.25-4.75-35-8.97-53.38-10.03c-13.08-0.75-26.34,0.12-39.02,2.57c-2.38,0.46-4.77,0.98-6.89,1.91
			c-2.19,0.95-3.99,2.29-5.89,3.53c-12.49,8.14-29.87,12.55-38.86,22.85c-3.01,3.45-4.88,7.38-7.93,10.81
			c-6.26,7.01-17.63,12.32-18.54,20.66c-0.37,3.39,1.14,6.72,2.64,9.94c1.53,3.29,3.05,6.58,4.58,9.87c0.99,2.14,2,4.31,3.69,6.21
			c4.49,5.06,13.09,7.42,21.34,7.95c8.24,0.53,16.52-0.44,24.8-0.43c10.56,0.02,21.11,1.67,30.76,4.81
			c8.06,2.62,15.8,6.34,24.61,6.81c6.92,0.38,14.48-1.22,20.47,1.34c2.55,1.09,4.5,2.85,7.13,3.84c7.71,2.9,16.35-1.8,23.71-5.15
			c7.3-3.32,15.5-5.49,22.73-8.89s13.72-8.49,14.65-14.72C853.23,482.49,861.73,470.76,865.53,464.21z"/>
		
			<radialGradient id="SVGID_00000133525697156857524290000009970908178210501775_" cx="764.0403" cy="454.6903" r="81.6537" gradientUnits="userSpaceOnUse">
			<stop  offset="0" style="stop-color:#BD0002"/>
			<stop  offset="0.5039" style="stop-color:#BA0002"/>
			<stop  offset="0.8398" style="stop-color:#B10001"/>
			<stop  offset="1" style="stop-color:#AA0000"/>
		</radialGradient>
		<path style="fill:url(#SVGID_00000133525697156857524290000009970908178210501775_);" d="M865.75,452.54
			c-0.84,2.93-2.19,5.8-3.94,8.46c-1.89,2.87-3.43,5.4-3.43,5.4s-3.96,6.81-10.1,14.64c-6.49,8.31-15.41,17.76-24.65,21.55
			c-13.75,5.64-30.67,5.92-46.01,3.24c-15.35-2.67-29.5-8.05-43.52-13.33c-6.13-2.32-12.41-4.65-19.24-5.38
			c-8.03-0.87-16.15,0.55-24.24,1.07c-8.09,0.53-17.02-0.07-22.94-4.11c-5.72-3.9-7.26-10.24-5.86-15.85
			c1.4-5.62,5.28-10.71,9.12-15.69c0.08-0.11,0.18-0.23,0.26-0.34c7.71-10.02,16.2-20.48,27.15-28.52
			c7.1-5.23,15.24-9.45,24.86-11.88c6.89-1.74,14.24-2.46,21-4.44c4.17-1.23,8.07-2.9,12.31-3.96c8.26-2.05,17.23-1.57,25.93-1.07
			c5.15,0.29,10.65,0.69,14.61,3.09c2.3,1.4,3.86,3.35,6.17,4.73c3.9,2.34,9.28,2.72,14.2,3.53c7.45,1.24,14.4,3.66,21.26,6.09
			c7.9,2.8,16.06,5.79,21.45,10.84C866.67,436.71,867.95,444.86,865.75,452.54z"/>
		<path class="st12" d="M829.13,497.94c-5.82,2.74-14.37,6.95-21.55,10.42c-1.25,0.6-2.6,1.23-4.1,1.23c-1.5,0-3.09-0.95-2.79-2.02
			c0.18-0.65,0.94-1.1,1.66-1.51c1.64-0.93,3.28-1.85,4.92-2.78c3.67-2.08,7.34-4.15,11.01-6.23c2.6-1.47,5.25-2.96,8.3-3.85
			c3.06-0.89,8.3-2.25,9.59-0.04C837.91,496.15,830.16,497.45,829.13,497.94z"/>
		<path class="st13" d="M852.53,462.55c2.82-4.44,4-13.35,10.59-12.44c2.85,0.4,0.68,4.27-0.51,6.21c-2.39,3.9-8.53,6.38-9.61,10.58
			c-0.65,2.53,0.62,6.75-2.88,7.06C849.39,474.01,849.97,466.57,852.53,462.55z"/>
		<path class="st14" d="M859.18,440.59c-1.66-4.55-4.23-9.58-10.18-11.42c-1.69-0.52-3.57-0.75-5.08-1.5
			c-1.52-0.75-2.65-2.4-1.5-3.43c1.54-1.39,4.56-1.45,6.85-0.81c2.29,0.64,4.12,1.92,5.75,3.26c4.93,4.02,12.59,10.59,7.63,14.59
			C861.65,442.08,859.45,441.34,859.18,440.59z"/>
		<path class="st15" d="M785.57,406.16c2.82,3.76,9.92,3.97,15.41,5.51c7.57,2.13,13.08,7.41,20.95,8.86
			c1.38,0.25,2.99,0.35,4.1-0.3S801.41,406.18,785.57,406.16z"/>
		<path class="st16" d="M738.8,405.73c-1.77,1.04-4.54-0.1-6.79-0.35s-4.63-0.4-6.75,0.21c-2.12,0.61-3.86,2.21-3.46,3.85
			c0.4,1.64,3.58,2.66,5.16,1.46c-4.46,1.44-8.91,2.87-13.37,4.31c-1.04,0.34-2.29,1.13-1.63,1.81c0.18,0.19,0.47,0.3,0.75,0.39
			c4.12,1.32,8.85-0.05,12.94-1.41c3.55-1.18,7.1-2.36,10.66-3.54c1.75-0.58,3.53-1.18,4.87-2.19c1.33-1,2.13-2.52,1.46-3.83
			C741.99,405.12,740.38,404.8,738.8,405.73z"/>
		<path class="st17" d="M843.03,465.19c1.98-2.89,0.47-6.74,3.45-9.14c0.86-0.69,1.91-1.25,2.73-1.97c1.58-1.39,2.15-3.24,2.68-5
			c0.58-1.96,1.16-3.95,0.91-5.94c-0.23-1.83-1.16-3.58-2.27-5.22c-2.85-4.24-8.71-11.87-13.95-9.09
			c-4.23,2.24-0.44,7.65,0.92,11.32c1.4,3.79,3.92,7.64,2.68,11.46c-1.36,4.2-7.09,7.56-6.44,11.85c0.18,1.19,0.86,2.32,1.04,3.51
			C835.13,469.44,832.53,480.54,843.03,465.19z"/>
		<path class="st18" d="M839.33,470.65c1.29,3.95-0.1,8.32-3.63,11.46c-3.48,3.09-8.64,4.86-13.62,6.53
			c3.02-2.61,5.06-5.82,5.83-9.19c0.15-0.67,0.28-1.39,0.88-1.91c0.81-0.7,2.19-0.83,3.38-1.11
			C835.4,475.65,837.79,473.28,839.33,470.65z"/>
		<path class="st19" d="M803.63,499.05c2.79-1.09,5.31-2.54,7.43-4.26c-6.93-2.58-15.18,0.06-22.94,0.38
			c-6.92,0.29-13.97-1.42-19.28-4.68c-2.1-1.29-3.97-2.82-6.37-3.8c-2.86-1.16-6.22-1.42-9.4-2.01c-4.56-0.85-8.86-2.44-12.5-4.61
			c-1.13-0.68-2.45-1.46-3.88-1.22c-2.02,0.33-2.39,2.42-1.49,3.78c1.71,2.58,5.81,3.72,9.53,4.64c5.09,1.25,10.17,2.5,15.26,3.75
			c2.27,0.56,4.58,1.13,6.45,2.23c1.22,0.72,2.19,1.63,3.26,2.46C778.55,502.62,794.09,502.79,803.63,499.05z"/>
		
			<radialGradient id="SVGID_00000003794020024475227970000014417946274898554285_" cx="12629.2656" cy="1762.8923" r="23.8409" gradientTransform="matrix(-1.9395 0 0 -1.6351 25257.2539 3344.4675)" gradientUnits="userSpaceOnUse">
			<stop  offset="0" style="stop-color:#FFB86B"/>
			<stop  offset="0.1977" style="stop-color:#FAAD5D"/>
			<stop  offset="0.418" style="stop-color:#F6A552"/>
			<stop  offset="0.5102" style="stop-color:#F5A150"/>
			<stop  offset="0.6009" style="stop-color:#F0954A"/>
			<stop  offset="0.6911" style="stop-color:#EA8141"/>
			<stop  offset="0.7809" style="stop-color:#E06633"/>
			<stop  offset="0.8705" style="stop-color:#D34222"/>
			<stop  offset="0.9588" style="stop-color:#C4170D"/>
			<stop  offset="1" style="stop-color:#BC0002"/>
		</radialGradient>
		<path style="fill:url(#SVGID_00000003794020024475227970000014417946274898554285_);" d="M804.74,487.33
			c4.57-1.59,9.38-3.32,12.11-6.43c2.73-3.11,2.25-8.01-2.27-9.68c-3.61-1.33-7.9-0.13-11.89,0.37c-13.94,1.73-28.4-7.5-27.88-17.8
			c0.06-1.24,0.26-2.61-0.76-3.6c-3.29-3.22-11.61,2.47-15.41-0.44c-1.69-1.29-1-3.48,0.47-4.91c1.47-1.43,3.56-2.49,4.85-4.01
			c3.17-3.73-0.78-9.45-6.78-9.81c-10.03-0.6-15.26,10.49-25.32,10.7c-5.65,0.11-10.66-3.41-16.28-2.95
			c-3.85,0.31-7.19,2.73-7.63,5.54c-0.44,2.81,2.05,5.72,5.7,6.66c4.54,1.17,9.92-0.51,14.24,1.03c4.95,1.76,5.78,6.68,4.89,10.64
			c-0.81,3.64-1.67,8.5,2.97,9.95c5.51,1.72,10.12-3.99,16.03-4.77c5.81-0.77,10.88,4.98,7.51,8.52c-1.03,1.08-2.66,2.04-2.57,3.35
			c0.04,0.61,0.48,1.18,1.02,1.65c3.29,2.86,9.45,2.47,14.02,4.16c4.4,1.62,7.12,5.11,11.61,6.59c4.37,1.44,9.63,0.66,13.73-1.15
			C801.23,489.14,804.41,486.42,804.74,487.33z"/>
		<path class="st21" d="M751.51,462.3c2.73-0.73,5.45-1.46,8.18-2.19c0.71-0.19,1.46-0.4,1.92-0.84c0.79-0.74,0.41-1.87-0.46-2.56
			c-0.87-0.69-2.09-1.07-3.24-1.49c-2.87-1.04-5.48-2.45-7.68-4.15c-1.6-1.24-3.13-2.7-5.38-3.16c-3.59-0.73-7.22,1.61-8.19,4.23
			s-0.08,5.39,0.57,8.06c0.66,2.67-3.08,5.79-0.83,7.95C740.11,471.71,746.87,463.55,751.51,462.3z"/>
		
			<radialGradient id="SVGID_00000032609055917225757340000014913336819240108953_" cx="12602.9297" cy="1900.101" r="10.8042" gradientTransform="matrix(-1.9395 0 0 -1.4136 25257.2539 3140.2852)" gradientUnits="userSpaceOnUse">
			<stop  offset="0" style="stop-color:#FECBDA"/>
			<stop  offset="1" style="stop-color:#B80001"/>
		</radialGradient>
		<path style="fill:url(#SVGID_00000032609055917225757340000014913336819240108953_);" d="M815.95,458.66
			c0.64-2.36-4.18-3.75-6.91-5.1c-0.6-0.29-1.23-0.59-1.6-1.03c-0.73-0.88-0.17-2.07,0.8-2.82c2.02-1.58,5.57-1.83,8.21-0.84
			c2.64,0.99,4.36,3.02,4.89,5.15c0.47,1.89-0.06,4.07-2.14,5.25C817.12,460.45,815.35,460.88,815.95,458.66z"/>
		
			<radialGradient id="SVGID_00000158005272426047301400000013892836932593729982_" cx="12604.1973" cy="2080.6448" r="8.1761" gradientTransform="matrix(-1.9395 0 0 -1.2037 25257.2539 2943.0957)" gradientUnits="userSpaceOnUse">
			<stop  offset="0" style="stop-color:#FECBDA"/>
			<stop  offset="0.3853" style="stop-color:#FDC9D8"/>
			<stop  offset="0.5241" style="stop-color:#FBC3D1"/>
			<stop  offset="0.623" style="stop-color:#F8B8C5"/>
			<stop  offset="0.703" style="stop-color:#F3A8B5"/>
			<stop  offset="0.7716" style="stop-color:#EC939F"/>
			<stop  offset="0.8322" style="stop-color:#E47A83"/>
			<stop  offset="0.8872" style="stop-color:#DA5B63"/>
			<stop  offset="0.9376" style="stop-color:#CE383D"/>
			<stop  offset="0.9825" style="stop-color:#C21114"/>
			<stop  offset="1" style="stop-color:#BC0002"/>
		</radialGradient>
		<path style="fill:url(#SVGID_00000158005272426047301400000013892836932593729982_);" d="M799.91,438.84
			c-1.71-1.07-2.71-2.94-1.7-4.41c0.62-0.9,1.88-1.5,3.19-1.82c4.99-1.22,10.22,0.98,14.61,3.09c2.95,1.41,5.89,2.83,8.84,4.24
			c0.5,0.24,1.05,0.55,1.04,0.98c0,0.26-0.22,0.49-0.42,0.7c-1.71,1.77-4.19,3.7-7.09,3.25c-3.58-0.56-4.84-4.36-8.44-4.84
			C808.11,439.79,801.62,439.91,799.91,438.84z"/>
		<path class="st24" d="M740.19,421.66c-3.11,1.31-1.09,5.31-3.83,6.99s-6.67,2.28-10.11,1.54c-2.04-0.44-3.89-1.31-5.96-1.66
			c-8.64-1.49-16.2,6.14-25.01,5.33c2.67-6.16,12.6-9.28,21.44-8.89c4.79,0.21,10.17,1.1,13.94-1.07c2.8-1.61,4.32-4.75,7.87-5.01
			C740.23,418.77,743.32,420.34,740.19,421.66z"/>
		<path class="st25" d="M697.49,469.86c3.31-1.34,6.75-2.75,8.9-5.02s2.58-5.67-0.08-7.64c-1.43-1.06-3.49-1.53-5.52-1.71
			c-6.38-0.56-13.08,1.71-16.6,5.64c-0.84,0.94-1.52,2-1.53,3.12c-0.01,1.59,1.36,3.04,3.06,4.03
			C689.75,470.63,695.72,470.57,697.49,469.86z"/>
		<path class="st26" d="M725.05,461.61c1.57,1.36,0.15,3.6-0.63,5.29c-0.78,1.69-2.6,3.23-5,3.54c-1.49,0.19-3.07-0.1-4.51,0.25
			c-3.55,0.86-3.89,4.83-7.29,5.98c-2.27,0.76-4.95-0.06-7.42,0.24c-3.14,0.39-6.05,2.57-9,1.71c-2.4-0.7-2.97-3.23-1.58-4.82
			c1.39-1.59,4.05-2.35,6.62-2.6c2.56-0.25,5.18-0.1,7.74-0.38c2.56-0.28,5.2-1.09,6.5-2.73c0.69-0.87,0.93-1.89,1.49-2.8
			C713.86,462.18,721.6,458.63,725.05,461.61z"/>
		<path class="st27" d="M729.46,479.27c-1.98,5.49-12.35,7.49-20.1,6.92c-1.11-0.08-2.33-0.28-2.97-0.94
			c-1.06-1.1,0.17-2.62,1.64-3.44c2.82-1.57,6.68-2.08,10.08-1.34c1.07,0.23,2.21,0.58,3.25,0.3c0.61-0.17,1.08-0.53,1.49-0.9
			c2.33-2.14,0.89-5.28,2.59-7.72c1.14-1.64,4.95,0.97,5.15,2.8C730.79,476.77,729.74,478.49,729.46,479.27z"/>
		<path class="st28" d="M693.05,480.59c-3.82,1.23-7.94,2.19-11.73,0.91c-3.79-1.28-6.64-3.67-9.05-6.16c-0.97-1-1.9-2.05-2.42-3.22
			c-0.55-1.22-0.63-2.53-0.57-3.81c0.11-2.71,1.62-6,5.29-6.37c3.66-0.36,6.46,2.8,5.91,5.46c-0.26,1.29-1.05,2.51-1.29,3.81
			c-0.6,3.28,2.99,6.66,7.5,7.06c1.61,0.14,3.3-0.04,4.81,0.39C693.03,479.09,694.09,480.26,693.05,480.59z"/>
		<path class="st29" d="M789.19,422.94c-9.24-5.39-22.77-4.13-34.6-3.94c-1.76,0.03-4.12-0.31-4.23-1.6
			c-0.04-0.52,0.35-1.01,0.76-1.44c2.29-2.44,6.41-4.7,10.11-3.47c1.29,0.43,2.28,1.22,3.3,1.94c2.19,1.53,4.88,2.83,7.91,3.03
			c3.42,0.23,6.75-0.97,10.19-0.94c5,0.05,12.96,3.7,10.17,6.73C791.13,425.07,790.22,423.54,789.19,422.94z"/>
		
			<linearGradient id="SVGID_00000138533987599736399050000017162183567668108170_" gradientUnits="userSpaceOnUse" x1="670.8476" y1="452.3285" x2="670.8826" y2="452.1828">
			<stop  offset="0" style="stop-color:#FEE4DB"/>
			<stop  offset="0.5" style="stop-color:#FAF1DB"/>
			<stop  offset="0.6135" style="stop-color:#F7E8D3"/>
			<stop  offset="0.7953" style="stop-color:#EDD1BF"/>
			<stop  offset="1" style="stop-color:#E0AFA1"/>
		</linearGradient>
		<path style="fill:url(#SVGID_00000138533987599736399050000017162183567668108170_);" d="M670.83,452.16
			c0.02,0.06,0.05,0.11,0.08,0.16c-0.04,0.01-0.07,0.03-0.1,0.04C670.81,452.29,670.82,452.22,670.83,452.16z"/>
		
			<linearGradient id="SVGID_00000093872347402117248370000016807604530806723493_" gradientUnits="userSpaceOnUse" x1="725.9714" y1="458.1946" x2="732.5319" y2="430.8632">
			<stop  offset="0" style="stop-color:#FEE4DB"/>
			<stop  offset="0.5" style="stop-color:#FAF1DB"/>
			<stop  offset="0.6135" style="stop-color:#F7E8D3"/>
			<stop  offset="0.7953" style="stop-color:#EDD1BF"/>
			<stop  offset="1" style="stop-color:#E0AFA1"/>
		</linearGradient>
		<path style="fill:url(#SVGID_00000093872347402117248370000016807604530806723493_);" d="M781.45,453.52
			c-3.98,0.65-7.89,1.7-11.65,3.12c1.38,2.02,2.75,4.03,4.14,6.04c-2.65,0.45-5.3,0.91-7.94,1.38c1.02,1.1,2.04,2.21,3.05,3.3
			c-23.47-5.68-47.18-10.46-71.02-14.33c-6.95-1.13-13.91-2.19-20.88-3.16c-2.83,1.35-4.48,1.77-5.95,2.34
			c7.71-10.02,16.2-20.48,27.15-28.52c3.26,0.63,6.51,1.25,9.77,1.88c24.08,4.64,48.06,9.27,71.94,14.35
			c-1.62,0.68-3.24,1.36-4.87,2.05c2.77,2.39,6.16,4.06,9.74,4.81c-2.19,0.4-4.32,1.14-6.28,2.2
			C779.14,450.7,780.12,452.29,781.45,453.52z"/>
		
			<linearGradient id="SVGID_00000090255720492003671010000003294206403442949551_" gradientUnits="userSpaceOnUse" x1="682.3495" y1="436.8873" x2="702.263" y2="442.3273">
			<stop  offset="0" style="stop-color:#99685A"/>
			<stop  offset="0.4573" style="stop-color:#CAAD9B"/>
			<stop  offset="0.8206" style="stop-color:#EDDEC9"/>
			<stop  offset="1" style="stop-color:#FAF1DB"/>
		</linearGradient>
		<path style="opacity:0.4;fill:url(#SVGID_00000090255720492003671010000003294206403442949551_);" d="M708.12,425.56
			c-1.93,2.22-3.23,5.16-3.96,8.04c-1.25,5.02-1.37,10.36-3.46,15.08c-0.69,1.56-1.58,3.02-2.67,4.34
			c-6.95-1.13-13.91-2.19-20.88-3.16c-2.83,1.35-4.48,1.77-5.95,2.34c7.71-10.02,16.2-20.48,27.15-28.52
			C701.61,424.32,704.87,424.94,708.12,425.56z"/>
		
			<linearGradient id="SVGID_00000057862635563455487780000011909622017050568879_" gradientUnits="userSpaceOnUse" x1="11984.2236" y1="-7876.8159" x2="12012.3828" y2="-7866.9268" gradientTransform="matrix(-0.7063 0.1465 -0.1806 -0.8704 7833.7432 -8186.4238)">
			<stop  offset="0" style="stop-color:#F9EFDA"/>
			<stop  offset="0.2924" style="stop-color:#F0D8C6"/>
			<stop  offset="0.7442" style="stop-color:#E4BAAB"/>
			<stop  offset="1" style="stop-color:#E0AFA1"/>
		</linearGradient>
		<path style="fill:url(#SVGID_00000057862635563455487780000011909622017050568879_);" d="M774.77,408.13
			c0,0,20.32,12.09,30.05,19.18c-2.79-0.61-8.78-1.12-8.78-1.12s2.22,3.73,3.1,6.21c-2.42-0.92-7.26-2.77-7.26-2.77l3.18,6.28
			l-5.35-0.82l2,5.15c0,0-18.73-8.72-28.22-12.58c3.24,1.03,9.35,1.06,9.35,1.06l-5.34-7.6l8.34,1.26l-6.02-8.85l9.37,2.38
			L774.77,408.13z"/>
		<g>
			
				<linearGradient id="SVGID_00000054966265647568606870000008640794699621107114_" gradientUnits="userSpaceOnUse" x1="829.2145" y1="478.3378" x2="836.4666" y2="448.1248">
				<stop  offset="0" style="stop-color:#FEE4DB"/>
				<stop  offset="0.5" style="stop-color:#FAF1DB"/>
				<stop  offset="0.6135" style="stop-color:#F7E8D3"/>
				<stop  offset="0.7953" style="stop-color:#EDD1BF"/>
				<stop  offset="1" style="stop-color:#E0AFA1"/>
			</linearGradient>
			<path style="fill:url(#SVGID_00000054966265647568606870000008640794699621107114_);" d="M865.75,452.54
				c-0.84,2.93-2.19,5.8-3.94,8.46c-1.89,2.87-3.43,5.4-3.43,5.4s-3.96,6.81-10.1,14.64c-14.18-0.04-28.33-0.15-42.48-0.41
				c1.46-0.97,2.92-1.95,4.39-2.93c-3.18-1.83-6.82-2.82-10.47-2.88c2.07-0.8,4.03-1.94,5.75-3.35c-0.81-1.61-2.07-2.99-3.61-3.94
				c3.78-1.4,7.42-3.17,10.84-5.27c-1.73-1.73-3.46-3.43-5.2-5.16c2.52-0.94,5.02-1.89,7.53-2.86c-1.21-0.89-2.42-1.77-3.63-2.66
				C829.5,452.43,847.63,452.75,865.75,452.54z"/>
			
				<linearGradient id="SVGID_00000115507379363998390520000009518509547237155990_" gradientUnits="userSpaceOnUse" x1="910.6605" y1="447.8278" x2="910.694" y2="447.6886">
				<stop  offset="0" style="stop-color:#FEE4DB"/>
				<stop  offset="0.5" style="stop-color:#FAF1DB"/>
				<stop  offset="0.6135" style="stop-color:#F7E8D3"/>
				<stop  offset="0.7953" style="stop-color:#EDD1BF"/>
				<stop  offset="1" style="stop-color:#E0AFA1"/>
			</linearGradient>
			<path style="fill:url(#SVGID_00000115507379363998390520000009518509547237155990_);" d="M910.72,447.88
				c-0.03-0.06-0.07-0.1-0.1-0.14c0.03-0.02,0.06-0.05,0.09-0.06C910.71,447.75,910.71,447.81,910.72,447.88z"/>
		</g>
	</g>
</g>
</svg>
