<svg width="2000" height="1040" viewBox="0 0 2000 1040" fill="none" xmlns="http://www.w3.org/2000/svg">
<g clip-path="url(#clip0_101_1004)">
<path d="M2000 -146H0V1791.49H2000V-146Z" fill="#9BAFBD"/>
<path d="M2000 1633.35V1768.25C1976.48 1771.88 1951.36 1769.51 1928.56 1761.97C1879.29 1745.71 1839.19 1709.55 1804.56 1670.92C1785.45 1649.57 1767.47 1627.13 1752.09 1602.97C1737.28 1579.71 1725.01 1555.09 1714 1529.85C1709.53 1519.61 1705.25 1509.28 1701.11 1498.85C1695.67 1485.25 1690.44 1471.55 1685.2 1457.84C1678.2 1439.51 1671.2 1421.2 1663.73 1403.12C1634.8 1333.11 1598.55 1266.39 1562.37 1199.83C1534.31 1148.19 1506.04 1096.21 1469.19 1050.45C1439.47 1013.53 1404.56 981.16 1369.8 948.92C1313.6 896.826 1257.41 844.72 1201.2 792.626C1170.57 764.24 1139.84 735.72 1111.04 705.52C1102.04 696.08 1093.23 686.493 1084.68 676.666C1074.32 664.813 1064.33 652.64 1054.84 640.053C1028.19 604.8 1004.65 565.866 975.64 532.933C960.346 515.573 943.52 499.88 923.906 487.28C915.16 481.666 905.88 476.68 897.72 470.346C895.28 468.453 892.96 466.453 890.773 464.266C873.68 447.24 866.24 420.893 853.866 400.52C846.96 389.16 838.52 379.64 826.026 374.64C823.906 371.306 821.813 368 819.773 364.666C818.973 363.386 818.213 362.106 817.44 360.826C817.08 360.253 816.733 359.666 816.386 359.08C815.506 357.626 814.666 356.16 813.826 354.706C812.946 353.186 812.093 351.68 811.266 350.16C809.546 347.066 807.893 343.986 806.333 340.893C806.333 340.88 806.32 340.866 806.306 340.826C805.866 339.986 805.466 339.16 805.053 338.306C804.573 337.333 804.106 336.373 803.653 335.4C803.186 334.426 802.733 333.466 802.293 332.493C801.666 331.16 801.053 329.826 800.493 328.48C800.373 328.226 800.253 327.973 800.16 327.733C799.866 327.04 799.56 326.36 799.28 325.666C799.106 325.24 798.933 324.826 798.76 324.4C798.706 324.293 798.666 324.16 798.613 324.053C798.466 323.693 798.32 323.32 798.173 322.946C798.106 322.84 798.066 322.706 798.026 322.586C798 322.52 797.96 322.44 797.933 322.386C797.88 322.266 797.84 322.133 797.773 322C797.56 321.426 797.333 320.84 797.12 320.253C797.053 320.093 797 319.92 796.933 319.746C796.773 319.36 796.64 318.96 796.493 318.56C796.466 318.493 796.426 318.413 796.413 318.346C796.266 317.973 796.133 317.613 796.026 317.253C795.733 316.413 795.426 315.546 795.133 314.706C794.88 313.973 794.653 313.253 794.4 312.52C794.04 311.413 793.693 310.306 793.373 309.186C793.186 308.493 792.986 307.8 792.8 307.106C792.773 307.08 792.773 307.04 792.773 307.013C792.653 306.626 792.533 306.226 792.44 305.84C792.226 305.04 792.013 304.266 791.813 303.466C791.733 303.133 791.64 302.813 791.56 302.48C791.546 302.4 791.533 302.333 791.506 302.266C791.173 300.893 790.866 299.506 790.573 298.12C790.493 297.746 790.413 297.386 790.36 297.013C790.16 295.946 789.973 294.866 789.826 293.773C789.8 293.68 789.8 293.573 789.773 293.48C789.693 292.813 789.613 292.12 789.573 291.44C789.56 291.373 789.56 291.32 789.56 291.266C789.466 289.986 789.453 288.72 789.533 287.453C789.56 286.92 789.626 286.386 789.693 285.853C789.706 285.653 789.746 285.453 789.773 285.24C789.773 285.226 789.773 285.226 789.773 285.226C790.133 283.146 790.826 281.146 791.96 279.333C794.653 275.12 799.2 272.826 804.12 271.426C806.613 270.706 809.213 270.213 811.72 269.773C978.506 241.2 1149.29 265.346 1316.77 289.506C1339.43 292.786 1362.61 296.213 1382.85 306.933C1406.28 319.333 1423.68 340.36 1441.05 360.373C1515.93 446.653 1601.52 523.626 1695.25 588.92C1698.28 591.026 1701.33 593.16 1704.41 595.306C1705.96 596.386 1707.49 597.466 1709.03 598.56C1713.11 601.44 1717.17 604.373 1721.2 607.373C1722.25 608.16 1723.29 608.933 1724.35 609.733C1729.41 613.56 1734.36 617.493 1739.15 621.573C1740.04 622.333 1740.91 623.093 1741.77 623.853C1742.76 624.706 1743.72 625.586 1744.69 626.466C1744.81 626.573 1744.96 626.706 1745.08 626.826C1746.01 627.666 1746.93 628.533 1747.84 629.386C1748.85 630.36 1749.85 631.32 1750.85 632.306L1752.73 634.186C1754.89 636.373 1756.97 638.613 1758.99 640.893C1759.93 641.986 1760.88 643.08 1761.8 644.186C1762.43 644.946 1763.05 645.72 1763.68 646.493V646.506C1764.28 647.24 1764.85 647.986 1765.43 648.746C1765.55 648.92 1765.68 649.093 1765.81 649.266C1766.19 649.786 1766.56 650.28 1766.93 650.8C1767.12 651.053 1767.31 651.32 1767.49 651.56C1767.61 651.746 1767.76 651.933 1767.88 652.12C1767.95 652.2 1767.99 652.28 1768.04 652.36C1768.49 652.986 1768.93 653.613 1769.35 654.253C1769.95 655.106 1770.52 655.986 1771.08 656.88C1771.63 657.733 1772.17 658.613 1772.71 659.493C1773.24 660.386 1773.77 661.306 1774.28 662.213C1774.76 663.066 1775.23 663.946 1775.68 664.826C1775.85 665.16 1776.03 665.466 1776.19 665.8C1776.57 666.533 1776.93 667.28 1777.29 668.04C1777.49 668.426 1777.68 668.826 1777.85 669.213C1778 669.506 1778.12 669.786 1778.24 670.093C1778.55 670.786 1778.87 671.466 1779.16 672.173C1779.17 672.186 1779.17 672.2 1779.19 672.24C1779.35 672.6 1779.49 672.946 1779.64 673.306C1779.67 673.4 1779.72 673.493 1779.75 673.586C1779.83 673.773 1779.91 673.96 1779.96 674.16C1780.31 675 1780.63 675.866 1780.96 676.733C1781.29 677.613 1781.59 678.48 1781.88 679.36C1781.93 679.506 1781.96 679.64 1782.03 679.786C1782.32 680.72 1782.63 681.68 1782.88 682.613C1783.16 683.56 1783.43 684.52 1783.68 685.493C1783.75 685.76 1783.8 686.013 1783.87 686.28C1784.33 688.2 1784.76 690.16 1785.12 692.133C1785.93 692.533 1786.73 692.96 1787.49 693.4C1787.67 693.48 1787.83 693.573 1787.97 693.666C1788.79 694.12 1789.55 694.573 1790.33 695.093C1790.39 695.093 1790.41 695.12 1790.45 695.173C1790.52 695.186 1790.57 695.213 1790.64 695.28C1791.33 695.706 1792.01 696.16 1792.67 696.626C1792.72 696.653 1792.75 696.693 1792.79 696.72C1793.13 696.933 1793.45 697.186 1793.79 697.44C1794.39 697.866 1794.96 698.293 1795.53 698.746C1796.11 699.2 1796.68 699.666 1797.24 700.173C1797.35 700.24 1797.44 700.32 1797.53 700.426C1797.75 700.613 1797.97 700.8 1798.19 700.986C1798.53 701.266 1798.84 701.56 1799.17 701.893C1799.28 701.973 1799.39 702.066 1799.51 702.186C1799.84 702.466 1800.15 702.786 1800.45 703.08C1800.53 703.16 1800.63 703.24 1800.71 703.333C1801.33 703.933 1801.92 704.546 1802.52 705.186C1802.64 705.306 1802.77 705.44 1802.87 705.573C1803.44 706.186 1803.99 706.786 1804.52 707.413C1805.16 708.146 1805.79 708.906 1806.41 709.693C1806.84 710.24 1807.27 710.8 1807.68 711.386C1807.89 711.666 1808.12 711.946 1808.33 712.266C1808.77 712.88 1809.19 713.48 1809.6 714.106C1809.71 714.253 1809.81 714.386 1809.91 714.546C1810.43 715.306 1810.91 716.08 1811.39 716.853C1811.95 717.76 1812.49 718.693 1813.04 719.64C1813.51 720.493 1813.97 721.346 1814.43 722.213C1816.67 726.426 1818.59 730.88 1820.27 735.52C1820.47 736.066 1820.67 736.626 1820.88 737.186C1821.17 738.013 1821.45 738.84 1821.72 739.693C1821.73 739.706 1821.73 739.733 1821.75 739.773C1822.01 740.6 1822.29 741.44 1822.53 742.306C1822.8 743.133 1823.07 744 1823.29 744.853C1823.59 745.853 1823.87 746.853 1824.13 747.866C1824.39 748.786 1824.64 749.72 1824.85 750.666C1825.24 752.226 1825.61 753.813 1825.97 755.4C1826.31 756.92 1826.63 758.426 1826.92 759.973C1827.27 761.666 1827.57 763.373 1827.87 765.08C1828.25 767.266 1828.6 769.466 1828.95 771.68C1829.25 773.8 1829.56 775.946 1829.83 778.066C1830.43 782.613 1830.91 787.12 1831.32 791.546C1846.85 955.16 1850.03 1120.24 1878.24 1282.12C1878.68 1284.65 1879.13 1287.2 1879.6 1289.73C1880.15 1292.8 1880.71 1295.85 1881.27 1298.92C1881.84 1301.97 1882.43 1305.03 1883.01 1308.09C1883.49 1310.64 1884 1313.17 1884.51 1315.72C1884.52 1315.87 1884.53 1315.99 1884.59 1316.11C1884.65 1316.52 1884.73 1316.92 1884.83 1317.32C1884.84 1317.48 1884.88 1317.61 1884.92 1317.76C1885.25 1319.43 1885.59 1321.11 1885.93 1322.77C1886.79 1327.04 1887.68 1331.31 1888.6 1335.57C1889.13 1338.03 1889.65 1340.48 1890.2 1342.92C1890.32 1343.56 1890.48 1344.21 1890.63 1344.85C1891.28 1347.87 1891.97 1350.85 1892.65 1353.87C1893.35 1356.84 1894.03 1359.8 1894.73 1362.79C1894.79 1363.04 1894.84 1363.28 1894.92 1363.55C1895.47 1365.85 1896.03 1368.17 1896.59 1370.51C1896.79 1371.43 1897.03 1372.36 1897.25 1373.29C1897.89 1375.93 1898.56 1378.56 1899.23 1381.2C1899.88 1383.81 1900.56 1386.41 1901.24 1389.04C1901.24 1389.13 1901.27 1389.21 1901.31 1389.29C1901.47 1389.93 1901.61 1390.56 1901.79 1391.19C1902.57 1394.2 1903.36 1397.21 1904.19 1400.24C1904.88 1402.81 1905.59 1405.39 1906.29 1407.96C1910 1421.39 1913.96 1434.72 1918.17 1447.96C1918.65 1449.49 1919.16 1451.04 1919.65 1452.57C1920.67 1455.77 1921.72 1458.95 1922.77 1462.12C1923.6 1464.64 1924.44 1467.13 1925.31 1469.61C1925.77 1471 1926.24 1472.4 1926.75 1473.77C1927.35 1475.56 1927.96 1477.32 1928.59 1479.08C1928.84 1479.81 1929.11 1480.55 1929.37 1481.27C1930.19 1483.57 1931.01 1485.89 1931.85 1488.19C1932.55 1490.09 1933.24 1492 1933.95 1493.91C1934.65 1495.81 1935.37 1497.71 1936.09 1499.6C1937.97 1504.61 1939.91 1509.6 1941.88 1514.57C1943.53 1518.73 1945.21 1522.88 1946.93 1527.01C1948.43 1530.65 1949.96 1534.28 1951.51 1537.89C1952.32 1539.8 1953.15 1541.71 1953.99 1543.6C1954.27 1544.27 1954.55 1544.93 1954.84 1545.59C1955.55 1547.21 1956.27 1548.83 1957 1550.43C1957.95 1552.6 1958.93 1554.76 1959.92 1556.91C1959.99 1557.03 1960.03 1557.16 1960.09 1557.28C1961.35 1560 1962.6 1562.71 1963.88 1565.4C1963.96 1565.57 1964.04 1565.76 1964.13 1565.95C1965.47 1568.77 1966.83 1571.6 1968.19 1574.41C1978.05 1594.47 1988.6 1614.17 2000 1633.35Z" fill="#FDD5C8"/>
<path d="M1473.08 786.706C1457.65 762.426 1445.28 752 1434.91 725.16C1431.92 717.453 1429.33 709.466 1424.57 702.72C1414.13 687.906 1395.63 681.746 1378.93 674.733C1293.15 638.653 1228.4 559 1138.24 535.986C1066.29 517.613 986.306 481.866 909.879 439.16C890.039 428.066 871.599 414.733 853.852 400.493C846.946 389.133 838.506 379.613 826.012 374.613C821.746 367.96 817.652 361.333 813.826 354.68C803.999 337.6 795.972 320.413 791.572 302.466C791.599 302.466 791.639 302.48 791.666 302.48C859.492 317.386 927.306 332.28 995.119 347.173C1025.41 353.826 1055.79 360.52 1084.96 371.013C1105.11 378.266 1124.6 387.32 1145.17 393.226C1173.09 401.24 1202.8 403.4 1229.37 415.12C1306.43 449.093 1332.92 550.053 1405.81 592.226C1421.32 601.2 1441.8 613.933 1436.28 630.96C1434.48 636.533 1429.99 640.893 1428.04 646.413C1422.99 660.693 1436.12 674.12 1443.97 687.066C1450.64 698.04 1453.83 710.733 1456.92 723.213C1463.37 749.066 1466.65 760.853 1473.08 786.706Z" fill="#E0AFA1"/>
<path d="M1432.79 634.48C1396.44 629.773 1373.36 594.906 1349.23 567.32C1280.83 489.173 1175.96 454.693 1074.83 431.146C986.36 410.533 894.533 394.88 813.84 354.666C803.213 336.213 794.693 317.64 790.6 298.093C789.72 293.893 789.107 289.373 789.787 285.213C792.053 289.64 793.933 294.333 796.253 298.746C814.893 334 858.8 345.746 897.827 353.933C935.08 361.746 972.547 369.56 1010.57 371.213C1021.67 371.693 1032.91 371.68 1043.64 374.52C1057.43 378.16 1069.48 386.306 1081.85 393.373C1105.77 407.066 1131.75 417.173 1158.61 423.266C1195.8 431.693 1236.32 433.12 1267.51 455.066C1274.32 459.866 1280.72 465.866 1283.61 473.693C1285.71 479.333 1285.81 485.573 1287.97 491.173C1290.09 496.773 1294.08 501.386 1298.04 505.88C1339.15 552.533 1384.28 595.613 1432.79 634.48Z" fill="#99685A"/>
<path d="M861.066 288.187C918.586 309.08 982.56 297.52 1042.99 307.146C1068.56 311.213 1093.33 319.066 1118.29 325.96C1167.96 339.68 1218.79 349.733 1267.01 367.88C1315.24 386.026 1361.64 413.253 1392.48 454.546C1404 469.973 1413.12 487.053 1424.32 502.693C1457.09 548.48 1506.55 580.64 1537.37 627.746C1575.63 686.2 1579.76 765.346 1547.81 827.48C1533.6 855.106 1512.15 883.32 1518.52 913.72C1540.04 916.546 1561.16 903.386 1573.89 885.813C1586.63 868.24 1592.6 846.786 1598.25 825.826C1608.79 786.746 1619.08 747.226 1621 706.8C1622.92 666.373 1615.88 624.467 1594.05 590.373C1578.6 566.227 1556.59 547.146 1534.88 528.413C1482.6 483.293 1430.33 438.173 1378.05 393.066C1354.72 372.92 1330.99 352.533 1303.07 339.466C1280.24 328.786 1255.36 323.386 1230.73 318.066C1191.04 309.493 1151.36 300.906 1111.67 292.333C1083.09 286.16 1054.16 279.946 1024.95 281.146C1005.49 281.946 986.16 286.04 966.706 285.04C928.866 283.093 887.426 262.826 855.76 283.653C859.6 290.893 868.96 294.68 861.066 288.187Z" fill="#FEE4DB"/>
<path d="M2000 1633.35V1791.51H1918.01C1873.03 1748.84 1825.63 1694.43 1804.56 1670.93C1785.45 1649.59 1767.47 1627.15 1752.09 1602.99C1737.28 1579.72 1725.01 1555.11 1714 1529.87C1714.72 1528.23 1715.52 1526.6 1716.4 1525.03C1724.75 1510.17 1739.48 1500.19 1750.75 1487.4C1759.11 1477.92 1765.41 1467 1770.04 1455.29C1776.97 1437.75 1780.13 1418.4 1780.68 1399.45C1781.61 1367.85 1776.11 1336.47 1773.12 1305.01C1765.76 1227.48 1773.75 1149.21 1768.61 1071.52C1759.64 935.053 1710.45 799.24 1733.61 664.453C1709.73 633.946 1683.19 611.173 1657.21 588.44C1568.32 510.653 1482.47 429.386 1399.91 344.92C1393.44 338.293 1386.85 331.56 1378.83 326.933C1371.45 322.68 1363.11 320.386 1354.85 318.293C1301.71 304.853 1247.19 297.92 1192.8 291.026C1110.37 280.573 1027.72 270.106 944.64 269.546C896.653 269.24 848.734 272.213 800.854 275.2L804.107 271.44C806.6 270.72 809.2 270.226 811.707 269.786C978.494 241.213 1149.28 265.36 1316.76 289.52C1339.41 292.8 1362.6 296.226 1382.84 306.946C1406.27 319.346 1423.67 340.373 1441.04 360.386C1515.92 446.666 1601.51 523.64 1695.24 588.933C1698.27 591.04 1701.32 593.173 1704.4 595.32C1705.95 596.4 1707.48 597.48 1709.01 598.573C1713.09 601.453 1717.16 604.386 1721.19 607.386C1722.24 608.173 1723.28 608.946 1724.33 609.746C1729.4 613.573 1734.35 617.506 1739.13 621.586C1740.03 622.346 1740.89 623.106 1741.76 623.866C1742.75 624.72 1743.71 625.6 1744.68 626.48C1744.8 626.586 1744.95 626.72 1745.07 626.84C1746 627.68 1746.92 628.546 1747.83 629.4C1748.84 630.373 1749.84 631.333 1750.84 632.32L1752.72 634.2C1754.88 636.386 1756.96 638.626 1758.97 640.906C1759.92 642 1760.87 643.093 1761.79 644.2C1762.41 644.96 1763.04 645.733 1763.67 646.506V646.52C1764.27 647.253 1764.84 648 1765.41 648.76C1765.53 648.933 1765.67 649.106 1765.8 649.28C1766.17 649.8 1766.55 650.293 1766.92 650.813C1767.11 651.066 1767.29 651.333 1767.48 651.573C1767.6 651.76 1767.75 651.946 1767.87 652.133C1767.93 652.213 1767.97 652.293 1768.03 652.373C1768.48 653 1768.92 653.626 1769.33 654.266C1769.93 655.12 1770.51 656 1771.07 656.893C1771.61 657.746 1772.16 658.626 1772.69 659.506C1773.23 660.4 1773.76 661.32 1774.27 662.226C1774.75 663.08 1775.21 663.96 1775.67 664.84C1775.84 665.173 1776.01 665.48 1776.17 665.813C1776.56 666.546 1776.92 667.293 1777.28 668.053C1777.48 668.44 1777.67 668.84 1777.84 669.226C1777.99 669.52 1778.11 669.8 1778.23 670.106C1778.53 670.8 1778.85 671.48 1779.15 672.186C1779.16 672.2 1779.16 672.213 1779.17 672.253C1779.33 672.613 1779.48 672.96 1779.63 673.32C1779.65 673.413 1779.71 673.506 1779.73 673.6C1779.81 673.786 1779.89 673.973 1779.95 674.173C1780.29 675.013 1780.61 675.88 1780.95 676.746C1781.28 677.626 1781.57 678.493 1781.87 679.373C1781.92 679.52 1781.95 679.653 1782.01 679.8C1782.31 680.733 1782.61 681.693 1782.87 682.626C1783.15 683.573 1783.41 684.533 1783.67 685.506C1783.73 685.773 1783.79 686.026 1783.85 686.293C1784.32 688.213 1784.75 690.173 1785.11 692.146C1785.92 692.546 1786.72 692.973 1787.48 693.413C1787.65 693.493 1787.81 693.586 1787.96 693.68C1788.77 694.133 1789.53 694.586 1790.32 695.106C1790.37 695.106 1790.4 695.133 1790.44 695.186C1790.51 695.2 1790.56 695.226 1790.63 695.293C1791.32 695.72 1792 696.173 1792.65 696.64C1792.71 696.666 1792.73 696.706 1792.77 696.733C1793.12 696.946 1793.44 697.2 1793.77 697.453C1794.37 697.88 1794.95 698.306 1795.52 698.76C1796.09 699.213 1796.67 699.68 1797.23 700.186C1797.33 700.253 1797.43 700.333 1797.52 700.44C1797.73 700.626 1797.96 700.813 1798.17 701C1798.52 701.28 1798.83 701.573 1799.16 701.906C1799.27 701.986 1799.37 702.08 1799.49 702.2C1799.83 702.48 1800.13 702.8 1800.44 703.093C1800.52 703.173 1800.61 703.253 1800.69 703.346C1801.32 703.946 1801.91 704.56 1802.51 705.2C1802.63 705.32 1802.76 705.453 1802.85 705.586C1803.43 706.2 1803.97 706.8 1804.51 707.426C1805.15 708.16 1805.77 708.92 1806.4 709.706C1806.83 710.253 1807.25 710.813 1807.67 711.4C1807.88 711.68 1808.11 711.96 1808.32 712.28C1808.76 712.893 1809.17 713.493 1809.59 714.12C1809.69 714.266 1809.8 714.4 1809.89 714.56C1810.41 715.32 1810.89 716.093 1811.37 716.866C1811.93 717.773 1812.48 718.706 1813.03 719.653C1813.49 720.506 1813.96 721.36 1814.41 722.226C1816.65 726.44 1818.57 730.893 1820.25 735.533C1820.45 736.08 1820.65 736.64 1820.87 737.2C1821.16 738.026 1821.44 738.853 1821.71 739.706C1821.72 739.72 1821.72 739.746 1821.73 739.786C1822 740.613 1822.28 741.453 1822.52 742.32C1822.79 743.146 1823.05 744.013 1823.28 744.866C1823.57 745.866 1823.85 746.866 1824.12 747.88C1824.37 748.8 1824.63 749.733 1824.84 750.68C1825.23 752.24 1825.6 753.826 1825.96 755.413C1826.29 756.933 1826.61 758.44 1826.91 759.986C1827.25 761.68 1827.56 763.386 1827.85 765.093C1828.24 767.28 1828.59 769.48 1828.93 771.693C1829.24 773.813 1829.55 775.96 1829.81 778.08C1830.41 782.626 1830.89 787.133 1831.31 791.56C1846.84 955.173 1850.01 1120.25 1878.23 1282.13C1878.67 1284.67 1879.12 1287.21 1879.59 1289.75C1880.13 1292.81 1880.69 1295.87 1881.25 1298.93C1881.83 1301.99 1882.41 1305.04 1883 1308.11C1883.48 1310.65 1883.99 1313.19 1884.49 1315.73C1884.51 1315.88 1884.52 1316 1884.57 1316.12C1884.64 1316.53 1884.72 1316.93 1884.81 1317.33C1884.83 1317.49 1884.87 1317.63 1884.91 1317.77C1885.24 1319.44 1885.57 1321.12 1885.92 1322.79C1886.77 1327.05 1887.67 1331.32 1888.59 1335.59C1889.12 1338.04 1889.64 1340.49 1890.19 1342.93C1890.31 1343.57 1890.47 1344.23 1890.61 1344.87C1891.27 1347.88 1891.96 1350.87 1892.64 1353.88C1893.33 1356.85 1894.01 1359.81 1894.72 1362.8C1894.77 1363.05 1894.83 1363.29 1894.91 1363.56C1895.45 1365.87 1896.01 1368.19 1896.57 1370.52C1896.77 1371.44 1897.01 1372.37 1897.24 1373.31C1897.88 1375.95 1898.55 1378.57 1899.21 1381.21C1899.87 1383.83 1900.55 1386.43 1901.23 1389.05C1901.23 1389.15 1901.25 1389.23 1901.29 1389.31C1901.45 1389.95 1901.6 1390.57 1901.77 1391.2C1902.56 1394.21 1903.35 1397.23 1904.17 1400.25C1904.87 1402.83 1905.57 1405.4 1906.28 1407.97C1909.99 1421.4 1913.95 1434.73 1918.16 1447.97C1918.64 1449.51 1919.15 1451.05 1919.64 1452.59C1920.65 1455.79 1921.71 1458.96 1922.76 1462.13C1923.59 1464.65 1924.43 1467.15 1925.29 1469.63C1925.76 1471.01 1926.23 1472.41 1926.73 1473.79C1927.33 1475.57 1927.95 1477.33 1928.57 1479.09C1928.83 1479.83 1929.09 1480.56 1929.36 1481.28C1930.17 1483.59 1931 1485.91 1931.84 1488.2C1932.53 1490.11 1933.23 1492.01 1933.93 1493.92C1934.64 1495.83 1935.36 1497.72 1936.08 1499.61C1937.96 1504.63 1939.89 1509.61 1941.87 1514.59C1943.52 1518.75 1945.2 1522.89 1946.92 1527.03C1948.41 1530.67 1949.95 1534.29 1951.49 1537.91C1952.31 1539.81 1953.13 1541.72 1953.97 1543.61C1954.25 1544.28 1954.53 1544.95 1954.83 1545.6C1955.53 1547.23 1956.25 1548.84 1956.99 1550.44C1957.93 1552.61 1958.92 1554.77 1959.91 1556.92C1959.97 1557.04 1960.01 1557.17 1960.08 1557.29C1961.33 1560.01 1962.59 1562.72 1963.87 1565.41C1963.95 1565.59 1964.03 1565.77 1964.12 1565.96C1965.45 1568.79 1966.81 1571.61 1968.17 1574.43C1978.05 1594.47 1988.6 1614.17 2000 1633.35Z" fill="#E0AFA1"/>
<path d="M1157.15 644.186C1190.87 676.786 1230.77 702.946 1274.12 720.853C1306.91 734.4 1343.99 744.986 1364.48 773.933C1370.71 782.72 1374.99 792.76 1381.08 801.626C1394.35 820.946 1415.19 833.466 1435.37 845.386C1405.84 857.373 1380.77 880.053 1365.91 908.24C1299.4 861.52 1238.68 806.546 1185.6 744.986C1157.23 712.093 1129.72 673.52 1130.91 630.106C1146.73 631.866 1161.73 640.24 1157.15 644.186Z" fill="#E0AFA1"/>
<path d="M1177.05 588.413C1243.28 606.493 1290.24 667.613 1355.31 689.48C1366.24 693.16 1378.23 696.067 1385.95 704.64C1393.67 713.213 1393.33 729.867 1382.44 733.693C1393.72 731.08 1395.91 720.64 1402.64 714.107C1404.33 712.467 1406.13 710.76 1408.39 710.067C1416.32 707.64 1421.59 717.933 1424.04 725.853C1432.29 752.453 1448.63 776.48 1470.32 793.947C1458.37 729.733 1418.24 672.693 1366.23 633.2C1314.21 593.693 1251.05 570.733 1186.73 559.373C1173.51 557.04 1154.45 559.653 1154.32 573.093C1154.21 585.107 1170.11 586.52 1177.05 588.413Z" fill="#E0AFA1"/>
<path d="M1438.95 834.213C1471.05 796.293 1498.49 754.693 1525.85 713.213C1483.55 746.76 1451.45 793.013 1438.95 834.213Z" fill="#E0AFA1"/>
<path d="M1069.6 536.093C1135.07 555.36 1201.33 574.986 1259.85 610.08C1314.6 642.906 1366.37 690.386 1430.2 691.52C1375.13 675.546 1323.09 649.24 1277.6 614.346C1272.76 610.626 1267.68 606.36 1266.31 600.413C1264.19 591.226 1271.75 581.986 1270.11 572.693C1267.64 558.666 1248.97 556.573 1235.15 553.173C1226.68 551.093 1218.72 547.346 1210.55 544.32C1190.56 536.946 1169.27 533.946 1148.16 531C1123.37 527.533 1098.59 524.08 1073.79 520.613C1069.25 519.986 1063.92 519.626 1060.87 523.013C1057.81 526.426 1061.89 533.826 1069.6 536.093Z" fill="#99685A"/>
<path d="M1968.28 1574.35C1902.38 1498 1855.61 1405.16 1834.2 1306.6C1823.17 1255.79 1818.73 1203.81 1813.45 1152.08C1805.38 1073.05 1795.3 994.186 1781.09 916.026C1772.09 866.64 1761.42 817.333 1758.82 767.213C1756.73 726.946 1759.89 686.64 1763.65 646.466C1772.62 657.76 1779.62 670.253 1783.4 684.386C1784.09 686.893 1784.66 689.453 1785.13 692.053C1815.4 707.146 1825.48 743.453 1829.89 777.986C1830.49 782.533 1830.97 787.04 1831.38 791.466C1846.92 955.08 1850.09 1120.16 1878.3 1282.04C1895.85 1382.55 1923.9 1482.88 1968.28 1574.35Z" fill="#99685A"/>
<path d="M1244.32 437.733L1243.55 433.106C1274.15 427.986 1309.93 372.253 1309.93 372.253C1304.43 404.746 1276.84 432.293 1244.32 437.733Z" fill="#E0AFA1"/>
<path d="M1059.61 371.866L1055.16 370.413C1062.87 346.866 1077.28 298.8 1077.28 298.8C1073.35 323.493 1067.4 348.08 1059.61 371.866Z" fill="#E0AFA1"/>
<path d="M1422.96 624.28L1421.4 619.853L1478.32 604.747L1422.96 624.28Z" fill="#E0AFA1"/>
<path d="M1829.91 778C1825.69 803.626 1817.56 828.533 1809.48 853.266C1798.47 797.36 1789.76 741.013 1783.4 684.386C1784.09 686.893 1784.67 689.453 1785.13 692.053C1815.4 707.16 1825.48 743.466 1829.91 778Z" fill="#E0AFA1"/>
<path d="M1294.13 816.053C1305.2 795.28 1319.57 776.28 1336.56 759.986" stroke="#E0AFA1" stroke-miterlimit="10"/>
<path d="M321.662 236.816L97.8555 148.434L73.7508 209.473L297.558 297.856L321.662 236.816Z" fill="#7A9CA1"/>
<path d="M1302.16 663.392C1335.01 581.728 1120.84 418.666 823.804 299.184C526.763 179.702 259.335 149.045 226.486 230.709C193.637 312.374 407.807 475.435 704.847 594.917C1001.89 714.399 1269.32 745.057 1302.16 663.392Z" fill="#495B5E"/>
<path d="M1239.36 638.129C1268.37 565.996 1079.21 421.971 816.861 316.441C554.507 210.912 318.306 183.839 289.291 255.973C260.275 328.106 449.434 472.131 711.788 577.66C974.141 683.19 1210.34 710.263 1239.36 638.129Z" fill="#7A9CA1"/>
<path d="M1212.73 626.56C1225.77 598.36 1191.26 554.659 1135.64 528.952C1080.03 503.244 1024.38 505.265 1011.35 533.465C998.31 561.666 1032.82 605.366 1088.44 631.074C1144.05 656.782 1199.7 654.761 1212.73 626.56Z" fill="#495B5E"/>
<path d="M1201.61 623.387C1189.98 648.533 1140.81 650.587 1091.24 628.24C1090.66 627.987 1090.06 627.707 1089.48 627.44C1089.36 627.373 1089.22 627.333 1089.1 627.267C1088.4 626.933 1087.7 626.613 1087 626.267C1038.29 602.933 1008.36 564.413 1019.92 539.373C1031.37 514.613 1079.29 512.227 1128.12 533.547C1128.84 533.853 1129.56 534.173 1130.28 534.493C1130.88 534.76 1131.46 535.027 1132.06 535.307C1132.17 535.36 1132.3 535.413 1132.41 535.467V535.48C1182.36 558.707 1213.33 598.013 1201.61 623.387Z" fill="#59767A"/>
<path d="M1132.39 535.48V535.494L1091.23 628.24C1090.65 627.987 1090.05 627.707 1089.47 627.44C1089.35 627.374 1089.21 627.334 1089.09 627.267C1088.39 626.934 1087.69 626.614 1086.99 626.267L1128.11 533.547C1128.83 533.854 1129.55 534.174 1130.27 534.494C1130.87 534.76 1131.45 535.027 1132.05 535.307C1132.16 535.374 1132.28 535.44 1132.39 535.48Z" fill="#495B5E"/>
<path d="M517.813 446.373L588.973 273.8C590.373 270.4 594.279 268.773 597.679 270.173L1007.15 439.027C1010.55 440.427 1012.17 444.333 1010.77 447.733L939.599 620.307C938.199 623.707 934.293 625.333 930.893 623.933L521.426 455.08C518.026 453.68 516.399 449.787 517.813 446.373Z" fill="#AECCD1"/>
<path d="M1064.97 578.373L1062.32 544.92L1091.04 557.253L1064.97 578.373Z" fill="#7A9CA1"/>
<path d="M1159.13 581.893L1134.84 605.026L1164.45 615.026L1159.13 581.893Z" fill="#7A9CA1"/>
<path d="M653.279 387.84L640.839 392.8L645.733 405.387L629.213 443.813L616.773 448.773L594.013 438.987L589.053 426.547L598.399 404.8L612.319 410.787L605.466 426.733L607.119 430.88L613.639 433.68L617.786 432.027L631.746 399.547L630.093 395.4L617.773 390.107L623.013 377.933L635.333 383.227L639.479 381.573L652.693 350.84L651.039 346.693L644.373 343.827L640.226 345.48L633.373 361.427L619.453 355.44L628.799 333.693L641.239 328.733L664.146 338.587L669.106 351.027L653.279 387.84Z" fill="#314042"/>
<path d="M633.613 456L640.467 440.053L654.96 446.28L648.107 462.227L633.613 456Z" fill="#314042"/>
<path d="M678.079 413.28L690.519 408.32L703.279 413.8L707.425 412.147L721.012 380.533L719.359 376.387L715.012 374.52L710.865 376.173L705.132 389.507L691.212 383.52L699.559 364.093L711.999 359.133L732.585 367.987L737.545 380.427L718.599 424.507L706.159 429.467L693.399 423.987L689.252 425.64L674.665 459.573L698.439 469.8L693.332 481.693L655.639 465.493L678.079 413.28Z" fill="#314042"/>
<path d="M1695.08 1529.52C1678.63 1590.41 1621.83 1658.6 1565.89 1659.69C1555.91 1659.91 1545.96 1657.97 1536.27 1653.48C1465.63 1620.76 1408.19 1564.19 1363.21 1500.64C1318.24 1437.09 1284.72 1366.33 1251.4 1295.97C1231.03 1252.96 1210.64 1209.89 1193.19 1165.6C1169.95 1106.68 1151.71 1045.17 1118.83 991.04C1092.55 947.747 1057.68 910.44 1023.91 872.694C942 781.12 864.24 683.534 822.066 582.587C818.253 576.134 815.813 569.12 814.666 561.867C810.413 535.84 822.36 506.88 843.6 490.214C870.773 468.88 908.986 465.6 942.226 474.92C975.48 484.254 1004.49 504.72 1030.63 527.28C1140.65 622.307 1209.61 757.907 1319.64 852.934C1357.71 885.814 1400.12 913.307 1438.49 945.827C1550.04 1040.28 1622.92 1173.37 1671.12 1311.36C1695.64 1381.48 1714.48 1457.79 1695.08 1529.52Z" fill="#FDD5C8"/>
<path d="M1099.13 847.32C1149.12 894.054 1189.01 951.52 1215.32 1014.69C1221.95 1030.61 1227.84 1047.11 1237.91 1061.12C1250.73 1078.97 1269.4 1091.56 1287.43 1104.12C1344.65 1143.99 1399.8 1187.8 1444.87 1241.03C1489.93 1294.25 1524.72 1357.61 1536.6 1426.35C1541.52 1454.8 1543.13 1485.56 1560.48 1508.65C1580.17 1505.79 1586.85 1481.12 1588.73 1461.32C1595.15 1393.89 1595.52 1320.2 1555.49 1265.56C1542.32 1247.57 1525.43 1232.71 1508.28 1218.45C1480.68 1195.51 1452.08 1173.77 1422.57 1153.32C1391.05 1131.48 1358.36 1110.97 1330.21 1084.93C1249.72 1010.45 1209.55 893.84 1114.03 839.96C1109.45 837.374 1104.01 834.907 1099.12 836.814C1094.24 838.734 1092.93 847.36 1099.13 847.32Z" fill="#FEE4DB"/>
<path d="M1565.89 1659.69C1555.91 1659.91 1545.96 1657.97 1536.27 1653.48C1465.63 1620.76 1408.19 1564.19 1363.21 1500.64C1318.24 1437.09 1284.72 1366.33 1251.4 1295.97C1231.03 1252.96 1210.64 1209.89 1193.19 1165.6C1169.95 1106.68 1151.71 1045.17 1118.83 991.04C1092.55 947.747 1057.68 910.44 1023.91 872.693C941.999 781.12 864.239 683.533 822.066 582.587C818.253 576.133 815.813 569.12 814.666 561.867C833.186 590.2 853.026 617.653 874.119 644.133C878.319 649.4 882.759 654.787 888.826 657.747C903.453 664.907 920.733 655.227 932.453 643.933C923.106 688.64 940.146 735.413 966.839 772.48C993.533 809.533 1029.24 838.907 1063.09 869.56C1096.93 900.227 1129.95 933.573 1148.8 975.173C1165.69 1012.48 1170.97 1055.89 1197.05 1087.47C1210.81 1104.12 1229.33 1116.07 1246.67 1130.31C1235.64 1131.31 1224.85 1135 1215.52 1140.97C1226.09 1151.08 1236.67 1161.21 1247.24 1171.32C1237.77 1177.21 1228.36 1185.53 1227.27 1196.63C1226.47 1204.73 1230.33 1212.47 1234.08 1219.71C1262.47 1274.49 1292.07 1330.8 1339.41 1370.41C1346.84 1376.61 1355.03 1382.89 1358.16 1392.04C1359.92 1397.16 1359.89 1402.69 1360.4 1408.11C1363.76 1443.85 1390.01 1472.65 1414.88 1498.57C1445.89 1530.87 1476.91 1563.17 1511.77 1588.6C1522.95 1617.45 1542.56 1639.91 1565.89 1659.69Z" fill="#E0AFA1"/>
<path d="M863.026 506.174C884.786 537.08 908.813 566.4 934.853 593.8C937.493 596.574 940.239 599.4 943.733 601C952.653 605.08 963.893 599.2 967.919 590.254C971.933 581.307 969.986 570.614 965.413 561.934C960.839 553.254 953.933 546.08 947.479 538.68C931.973 520.894 918.266 500.827 898.439 488.04C892.586 484.267 885.986 481.12 879.026 481.107C872.053 481.08 864.719 484.88 862.359 491.44C859.146 500.374 865.839 509.56 863.026 506.174Z" fill="#FEE4DB"/>
<path d="M1021.3 811.347C1067.57 769.2 1084.94 763.08 1112.92 708.173L1021.3 811.347Z" fill="#E0AFA1"/>
<path d="M985.719 799.44C998.305 765.44 1021.85 735.627 1052.03 715.507L985.719 799.44Z" fill="#E0AFA1"/>
</g>
<defs>
<clipPath id="clip0_101_1004">
<rect width="2000" height="1040" fill="white"/>
</clipPath>
</defs>
</svg>
