<?xml version="1.0" encoding="utf-8"?>
<!-- Generator: Adobe Illustrator 27.0.0, SVG Export Plug-In . SVG Version: 6.00 Build 0)  -->
<svg version="1.1" id="Слой_1" xmlns="http://www.w3.org/2000/svg" xmlns:xlink="http://www.w3.org/1999/xlink" x="0px" y="0px"
	 viewBox="0 0 1500 1164.3" style="enable-background:new 0 0 1500 1164.3;" xml:space="preserve">
<style type="text/css">
	.st0{fill:#9BAFBD;}
	.st1{fill:#728694;}
	.st2{fill:#FDD5C8;}
	.st3{fill:#FEE4DB;}
	.st4{fill:#E0AFA1;}
	.st5{fill:#99685A;}
	.st6{fill:#AECCD1;}
	.st7{fill:#7A9CA1;}
	.st8{fill:#495B5E;}
	.st9{fill:url(#SVGID_1_);}
	.st10{fill:#E09F89;}
	.st11{fill:url(#SVGID_00000146487653518067394970000012586499093609641099_);}
	.st12{fill:#F6DCDD;}
	.st13{fill:#E39D9D;}
	.st14{fill:#FDACAE;}
	.st15{fill:#E2A094;}
	.st16{fill:#FEBEBE;}
	.st17{fill:#F16E2B;}
	.st18{fill:#DF523C;}
	.st19{fill:#E78B7C;}
	.st20{fill:url(#SVGID_00000158750321533279199930000017022430846486198154_);}
	.st21{fill:#E7DBE0;}
	.st22{fill:url(#SVGID_00000052084711796335128770000013530865917495441815_);}
	.st23{fill:url(#SVGID_00000133529124369371748540000001808886622655165102_);}
	.st24{fill:#E75742;}
	.st25{fill:#EEA755;}
	.st26{fill:#EEB3B2;}
	.st27{fill:#FA9DA5;}
	.st28{fill:#FABEB5;}
	.st29{fill:#F25026;}
	.st30{fill:url(#SVGID_00000091728679785214364110000010414968064615494579_);}
	.st31{fill:url(#SVGID_00000151545443414243132410000001842441097950735269_);}
	.st32{fill:url(#SVGID_00000118357664764432262270000002403696605910316190_);}
	.st33{fill:url(#SVGID_00000080912979443708601230000001644271569405915794_);}
	.st34{fill:url(#SVGID_00000139994641520457485080000006301262519393436291_);}
	.st35{fill:url(#SVGID_00000014629745738817791780000012371330431553203859_);}
	.st36{fill:url(#SVGID_00000017493211770476271500000008843073268488320390_);}
	.st37{fill:url(#SVGID_00000064352342338092776800000003282189057671430305_);}
	.st38{fill:url(#SVGID_00000095298581003441385500000004337453714258501809_);}
	.st39{fill:url(#SVGID_00000182518572560250919490000005240116132380619942_);}
	.st40{fill:url(#SVGID_00000042010485073504532600000002448732860594274477_);}
	.st41{fill:url(#SVGID_00000103223371780469796750000006668189329408971947_);}
	.st42{fill:url(#SVGID_00000054957631386306787140000010441760099032644240_);}
	.st43{fill:url(#SVGID_00000007422405486704424570000010466641717919759804_);}
	.st44{fill:url(#SVGID_00000170963634577444716030000008907342314909498283_);}
	.st45{fill:url(#SVGID_00000079470432768069472370000013352181195035456901_);}
	.st46{fill:url(#SVGID_00000172400797747675277880000006678265878267253160_);}
	.st47{fill:url(#SVGID_00000016069377072551684070000011501227222279285404_);}
	.st48{fill:url(#SVGID_00000173145965683770835970000004947017938664038273_);}
	.st49{fill:url(#SVGID_00000178178315463377940970000008632379309073150120_);}
	.st50{fill:url(#SVGID_00000006705165065786620200000018304241842873875879_);}
	.st51{fill:url(#SVGID_00000016776985401581573150000013935909636785176759_);}
	.st52{fill:url(#SVGID_00000133512313730605826530000017280095260193245887_);}
	.st53{fill:url(#SVGID_00000170972770183759773610000012200794816897896335_);}
	.st54{fill:url(#SVGID_00000022546448747302894190000010208547286170663575_);}
	.st55{fill:url(#SVGID_00000137093948647369191980000011476844075752081538_);}
	.st56{fill:url(#SVGID_00000000939516956677818360000002101011174508862089_);}
	.st57{fill:url(#SVGID_00000000932899533530846940000012591754817783049381_);}
	.st58{fill:url(#SVGID_00000009578838211867871620000005153816120922676102_);}
	.st59{fill:url(#SVGID_00000102532530598975606240000009812654906920960394_);}
	.st60{opacity:0.4;fill:url(#SVGID_00000111158385296255422480000004921510081365911696_);}
	.st61{fill:url(#SVGID_00000054263438559690104490000018191089008887903654_);}
	.st62{fill:url(#SVGID_00000048500713346654068310000013325361371551103649_);}
	.st63{fill:url(#SVGID_00000124861317864933723240000006275597781392961967_);}
	.st64{fill:url(#SVGID_00000172416704710750422410000006744966652203057041_);}
	.st65{fill:url(#SVGID_00000142136909846716282680000003532125416476127629_);}
	.st66{fill:url(#SVGID_00000147199810937091186630000007711558305018334905_);}
	.st67{fill:url(#SVGID_00000129913136076609427830000007176617035599408062_);}
	.st68{fill:url(#SVGID_00000139271846120934169870000010108151009076514965_);}
	.st69{fill:#AD0000;}
	.st70{fill:url(#SVGID_00000010286925960646803020000001394097073565986202_);}
	.st71{fill:url(#SVGID_00000137095393771401329290000013489137939179347082_);}
	.st72{fill:url(#SVGID_00000100355503840613562950000015236481384658118813_);}
	.st73{fill:url(#SVGID_00000058578837574940483880000008528666450279283887_);}
	.st74{fill:url(#SVGID_00000050657039751173305290000006902552446640308619_);}
	.st75{fill:#BF9184;}
	.st76{fill:none;stroke:#FDD5C8;stroke-miterlimit:10;}
	.st77{fill:url(#SVGID_00000133493609894965466430000014230778541035902085_);}
	.st78{fill:url(#SVGID_00000040574371695740425870000006150904664798109610_);}
	.st79{fill:url(#SVGID_00000163052531190120935030000011881455327548243099_);}
	.st80{fill:url(#SVGID_00000156554771701504958520000010721894111194955142_);}
	.st81{fill:url(#SVGID_00000171706316309212177840000000723997725428441245_);}
	.st82{fill:url(#SVGID_00000094618400137565101590000014110885859403567279_);}
	.st83{fill:url(#SVGID_00000106860149597107717560000013647627836327288212_);}
	.st84{fill:url(#SVGID_00000082329820998541904490000001991490359330166412_);}
	.st85{fill:url(#SVGID_00000042736663971302141120000004127308981314674604_);}
	.st86{fill:url(#SVGID_00000052104248869567613710000002982967178988729772_);}
	.st87{fill:none;stroke:#E0AFA1;stroke-miterlimit:10;}
	.st88{fill:#59767A;}
	.st89{fill:none;}
	.st90{fill:#314042;}
	.st91{fill:url(#SVGID_00000020373370828447345860000010602308695860670849_);}
	.st92{fill:url(#SVGID_00000039825134563646473620000003412970705484590509_);}
	.st93{fill:url(#SVGID_00000124853464292869006450000001167126110782711437_);}
	.st94{fill:url(#SVGID_00000005239571717467559740000013228535858451349674_);}
	.st95{fill:url(#SVGID_00000086651475212907552710000012702084408980221349_);}
	.st96{fill:none;stroke:#99685A;stroke-miterlimit:10;}
	.st97{fill:#F2CEC4;}
	.st98{fill:#E1AFA1;}
	.st99{fill:url(#SVGID_00000018200371351201226790000016843785526942851242_);}
	.st100{fill:url(#SVGID_00000140708451702520377800000001952384213769793202_);}
	.st101{fill:url(#SVGID_00000174591527925161041030000016676365314896113080_);}
	.st102{fill:url(#SVGID_00000036948866483099709580000006367864468601728158_);}
	.st103{fill:url(#SVGID_00000171719369603351086100000004845974424652124086_);}
	.st104{fill:url(#SVGID_00000120524635196084645720000011363025225412729992_);}
	.st105{fill:url(#SVGID_00000109027414804064593860000008516452539957396897_);}
	.st106{fill:url(#SVGID_00000070092780774143309250000003595242484425587358_);}
	.st107{fill:url(#SVGID_00000139987092736929614900000012689643946535764358_);}
	.st108{fill:url(#SVGID_00000124842907230376615280000005511419393380977302_);}
	.st109{fill:#E39F8D;}
	.st110{fill:#C2553C;}
	.st111{fill:url(#SVGID_00000101097968487326813840000016216869294122024581_);}
	.st112{fill:url(#SVGID_00000183943480315297156990000017618628148224601016_);}
	.st113{fill:url(#SVGID_00000065753886747307624920000003322747127692126135_);}
	.st114{fill:#AD4024;}
	.st115{fill:url(#SVGID_00000034076666793330405070000017711880848674023065_);}
	.st116{fill:url(#SVGID_00000013895201435227491910000010676180682324811675_);}
	.st117{fill:url(#SVGID_00000147902261127736172820000017905014529648904621_);}
	.st118{opacity:0.5608;fill:#FFFFFF;}
	.st119{fill:#FFFFFF;}
	.st120{fill:#FFF1ED;}
	.st121{fill:#E6D7D3;}
	.st122{opacity:0.4392;fill:#E0AFA1;}
	.st123{fill:#FFD3C7;}
	.st124{opacity:0.3412;fill:#AAAD66;}
	.st125{opacity:0.2314;fill:#FFFFFF;}
	.st126{fill:#23282B;}
	.st127{fill:none;stroke:#99685A;stroke-linecap:round;stroke-linejoin:round;stroke-miterlimit:10;}
	.st128{fill:#495760;}
	.st129{fill:#353A3E;}
	.st130{fill:#3A474F;}
	.st131{fill:#709EB8;}
	.st132{fill:#8BB0C5;}
	.st133{fill:#31556B;}
	.st134{fill:#4E768F;}
	.st135{fill:#263F4F;}
	.st136{fill:#576975;}
	.st137{fill:none;stroke:#3A474F;stroke-miterlimit:10;}
	.st138{fill:#2F3943;}
	.st139{fill:#C78D7D;}
	.st140{fill:#421D13;}
	.st141{fill:#5E3E35;}
	.st142{fill:#806158;}
	.st143{fill:#EFC3B6;}
	.st144{fill:#C79789;}
	.st145{fill:none;stroke:#EFC3B6;stroke-miterlimit:10;}
	.st146{fill:#69483F;}
	.st147{fill:none;stroke:#806158;stroke-width:3;stroke-linecap:round;stroke-linejoin:round;stroke-miterlimit:10;}
	.st148{fill:#E8E8E8;}
	.st149{fill:#BACAD9;}
	.st150{fill:#694034;}
	.st151{fill:#658F85;}
	.st152{fill:#407065;}
	.st153{fill:#323C42;}
	.st154{fill:#B4CADE;}
	.st155{opacity:0.3294;fill:#C75B63;}
	.st156{fill:none;stroke:#5E3E35;stroke-width:4;stroke-linecap:round;stroke-linejoin:round;stroke-miterlimit:10;}
	.st157{fill:#4C6270;}
	.st158{fill:#7A4A3D;}
	.st159{fill:#252E37;}
	.st160{fill:#3E4852;}
	.st161{fill:none;stroke:#E0AFA1;stroke-linecap:round;stroke-linejoin:round;stroke-miterlimit:10;}
	.st162{fill:#BA8677;}
	.st163{fill:#313B45;}
	.st164{fill:none;stroke:#4E768F;stroke-miterlimit:10;}
	.st165{fill:#193646;}
	.st166{opacity:0.1882;fill:#FFFFFF;}
	.st167{fill:none;stroke:#421D13;stroke-miterlimit:10;}
	.st168{opacity:0.2196;fill:#1390D4;}
	.st169{opacity:0.2392;fill:#027DCF;}
	.st170{opacity:0.3216;fill:#FFFFFF;}
	.st171{fill:#CFCFCF;}
	.st172{fill:url(#SVGID_00000132773433070618022170000002779416193322652046_);}
	.st173{fill:url(#SVGID_00000142861742856811875150000004975197715903188370_);}
	.st174{opacity:0.749;fill:url(#SVGID_00000103944274037825386470000001622251321422554513_);}
	.st175{fill:url(#SVGID_00000008840038287260604130000017528451201895722407_);}
	.st176{fill:url(#SVGID_00000101091296937124629060000011136951426334101920_);}
	.st177{fill:#821111;}
	.st178{fill:url(#SVGID_00000012435312742460645170000010520429825943309754_);}
	.st179{fill:#BC0002;}
	.st180{fill:url(#SVGID_00000163773976796045650170000008128826990192251525_);}
	.st181{fill:url(#SVGID_00000158009211121833878010000010273791734149190554_);}
	.st182{fill:url(#SVGID_00000043455380933621569360000010965454220631187854_);}
</style>
<g>
	<rect class="st0" width="1500" height="1164.3"/>
	<g>
		<path class="st2" d="M1114.8,940.83c-4.07,62.56-20.9,124.81-53.14,178.57c-9.49,15.83-20.36,30.9-32.45,44.89H679.83
			c-4.94-10.44-9.25-21.2-12.95-32.14c-2.7-7.98-5.07-16.05-7.13-24.16c-0.41-1.62-0.81-3.24-1.19-4.86
			c-0.86-3.62-1.68-7.24-2.43-10.88c-0.5-2.42-0.99-4.84-1.45-7.28c-1.6-8.51-2.93-17.06-4.01-25.65c-0.31-2.45-0.6-4.91-0.87-7.36
			c-0.27-2.46-0.51-4.93-0.76-7.39c-0.34-3.61-0.64-7.22-0.91-10.84c-0.55-7.5-0.95-15.02-1.22-22.56
			c-0.09-2.45-0.16-4.89-0.22-7.34c-0.16-6.25-0.22-12.5-0.22-18.75c0-2.19,0.01-4.4,0.03-6.59c0.01-1.9,0.03-3.79,0.06-5.7v-0.24
			c0.01-0.8,0.03-1.58,0.04-2.38c0.03-1.62,0.06-3.25,0.1-4.88c0.09-4.32,0.21-8.64,0.35-12.97c0.01-0.26,0.02-0.53,0.03-0.81
			c0.02-0.53,0.04-1.07,0.06-1.61c0.02-0.51,0.03-1.03,0.06-1.54c0.06-1.65,0.12-3.29,0.18-4.93c0.01-0.33,0.02-0.66,0.04-0.99
			c0.05-1.16,0.1-2.34,0.15-3.5c0.09-2.19,0.18-4.39,0.29-6.58c0.04-0.98,0.09-1.95,0.14-2.93c1.4-0.61,2.78-1.21,4.18-1.82
			c0.32-0.14,0.63-0.28,0.95-0.42c7.19-3.13,14.37-6.28,21.56-9.41c1.79-0.78,3.56-1.55,5.35-2.34c4.2-1.83,8.41-3.67,12.62-5.51
			c9.55-4.17,19.09-8.34,28.65-12.51c2.8-1.23,5.62-2.45,8.43-3.69c1.88-0.82,3.76-1.64,5.65-2.46c8.59-3.75,17.19-7.47,25.85-11.06
			c6.34-2.63,12.7-5.18,19.11-7.63c1.64-0.63,3.29-1.24,4.94-1.85c6.3-2.34,12.64-4.55,19.05-6.6c0.58-0.19,1.17-0.38,1.76-0.56
			c1.25-0.4,2.49-0.78,3.75-1.15c2.66-0.81,5.33-1.6,8-2.35c42.96-12.13,87.65-17.37,132.04-22.54c12.77-1.48,28.43-3.34,42.02-1.58
			c12.28,1.58,22.88,6.12,28.13,16.53c2.9,5.74,6.36,11.06,10.27,16.01c0.98,1.25,2,2.48,3.04,3.69
			c18.42,21.29,45.19,35.68,70.42,49.42c2.2,1.19,4.47,2.47,6.37,4.09c1.4,1.17,2.6,2.55,3.42,4.2
			C1115.2,933.23,1115.04,937.13,1114.8,940.83z"/>
		<path class="st4" d="M942.76,1164.3H692.4c-0.64-2.15-1.28-4.29-1.98-6.29c-2.78-7.87-7.86-14.84-14.34-20.07
			c-2.82-2.28-5.92-4.23-9.2-5.78c-2.7-7.98-5.07-16.05-7.13-24.16c-0.41-1.62-0.81-3.24-1.19-4.86c-0.86-3.62-1.68-7.24-2.43-10.88
			c-0.5-2.42-0.99-4.84-1.45-7.28c-1.6-8.51-2.93-17.06-4.01-25.65c-0.31-2.45-0.6-4.91-0.87-7.36c-0.27-2.46-0.51-4.93-0.76-7.39
			c-0.34-3.61-0.64-7.22-0.91-10.84c-0.55-7.5-0.95-15.02-1.22-22.56c-0.09-2.45-0.16-4.89-0.22-7.34
			c-0.16-6.25-0.22-12.5-0.22-18.75c0-2.19,0.01-4.4,0.03-6.59c0.01-1.9,0.03-3.79,0.06-5.7v-0.24c0.01-0.8,0.03-1.58,0.04-2.38
			c0.03-1.62,0.06-3.25,0.1-4.88c0.09-4.32,0.21-8.64,0.35-12.97c0.01-0.26,0.02-0.53,0.03-0.81c0.02-0.53,0.04-1.07,0.06-1.61
			c0.02-0.51,0.03-1.03,0.06-1.54c0.06-1.65,0.12-3.29,0.18-4.93c0.01-0.33,0.02-0.66,0.04-0.99c0.05-1.16,0.1-2.34,0.15-3.5
			c0.09-2.19,0.18-4.39,0.29-6.58c0.04-0.98,0.09-1.95,0.14-2.93c1.4-0.61,2.78-1.21,4.18-1.82c0.32-0.14,0.63-0.28,0.95-0.42
			c7.19-3.13,14.37-6.28,21.56-9.41c1.33,0.65,2.6,1.38,3.83,2.15c7.43,4.72,13.58,10.98,19.48,17.58c1.39,1.56,2.77,3.14,4.14,4.72
			c2.12,2.44,4.25,4.89,6.41,7.28c0.82,0.91,1.66,1.8,2.49,2.7c14.56,15.43,32.49,27.54,52.07,35.68c1.47,0.61,2.95,1.2,4.44,1.77
			c3.67,1.41,7.39,2.66,11.16,3.77h0.01c17.7,5.26,36.3,7.37,54.71,5.93c11.25-0.88,22.48-3.02,33.74-2.14
			c11.25,0.87,22.94,5.37,29.12,14.81c4.51,6.89,4.75,16.65,0.67,23.44v0.01c-0.31,0.51-0.65,1.02-1.02,1.49l-0.01,0.02
			c-1.39,1.85-3.16,3.42-5.31,4.53c-0.23,0.13-0.49,0.24-0.73,0.37c0,0-0.01,0.01-0.02,0.01c-1.73,0.83-3.56,1.65-4.35,3.36
			c-0.11,0.22-0.18,0.46-0.24,0.69v0.01c-0.39,1.51,0.09,3.18,0.57,4.72c0.09,0.26,0.16,0.52,0.24,0.79
			c7.33,23.19,14.64,46.37,21.96,69.56c2.31,7.34,5.86,15.83,13.4,17.35c5.93,1.18,13.23-2.34,17.52,1.92
			c2.12,2.11,2.49,5.34,2.76,8.31C942.18,1153.73,942.57,1159.01,942.76,1164.3z"/>
		<path class="st5" d="M840.99,1069.38c-0.04,0.29-0.09,0.59-0.13,0.88c-0.08,0.42-0.15,0.83-0.22,1.24
			c-0.04,0.2-0.08,0.41-0.13,0.61c-0.02,0.13-0.05,0.24-0.07,0.36c-2.05,10.23-4.1,20.45-6.16,30.68
			c-12.1-2.72-25.49,6.68-27.06,18.98c-11.45-12.5-22.3-25.55-32.49-39.09c-9.98,25.94-0.29,53.77,7.15,81.26h-34
			c-4.76-5.87-10.92-10.31-18.23-10.01c-9.07,0.37-20.05,7.47-25.79,0.44c-2.37-2.91-2.32-7.02-2.34-10.78
			c-0.07-12.56-2.26-25.12-6.46-36.97c-1.42-3.98-3.17-8.04-6.39-10.77c-5.27-4.44-13.32-4.15-19.52-1.13
			c-1.88,0.92-3.64,2.05-5.3,3.32c-1.87,1.43-3.62,3.04-5.3,4.73c-0.86-3.62-1.68-7.24-2.43-10.88c-0.5-2.42-0.99-4.84-1.45-7.28
			c-1.6-8.51-2.93-17.06-4.01-25.65c-0.31-2.45-0.6-4.91-0.87-7.36c-0.27-2.46-0.51-4.93-0.76-7.39c-0.34-3.61-0.64-7.22-0.91-10.84
			c-0.55-7.5-0.95-15.02-1.22-22.56c-0.09-2.45-0.16-4.89-0.22-7.34c-0.16-6.25-0.22-12.5-0.22-18.75c0-2.19,0.01-4.4,0.03-6.59
			c0.01-1.9,0.03-3.79,0.06-5.7v-0.24c0.01-0.8,0.03-1.58,0.04-2.38c0.03-1.62,0.06-3.25,0.1-4.88c0.09-4.32,0.21-8.64,0.35-12.97
			c0.01-0.26,0.02-0.53,0.03-0.81c0.02-0.53,0.04-1.07,0.06-1.61c0.02-0.51,0.03-1.03,0.06-1.54c0.06-1.65,0.12-3.29,0.18-4.93
			c0.01-0.33,0.02-0.66,0.04-0.99c0.05-1.16,0.1-2.34,0.15-3.5c0.09-2.19,0.18-4.39,0.29-6.58c1.48-0.49,3.03-0.83,4.6-1.04
			c2.2-0.3,4.46-0.33,6.67-0.08c1.37,0.15,2.72,0.4,4.03,0.76c6.33,1.73,11.87,5.27,16.94,9.5l0.01,0.01
			c3.02,2.51,5.86,5.26,8.61,8.02c1.9,1.91,3.78,3.84,5.65,5.79c4.58,4.76,9.06,9.62,13.52,14.5c11.53,12.57,22.93,25.27,35.38,36.8
			c4.07,3.77,8.26,7.42,12.59,10.91c0.12,0.09,0.22,0.18,0.34,0.27c5.53,4.42,11.29,8.55,17.26,12.36c0.01,0,0.01,0.01,0.01,0.01
			c17.71,11.3,37.15,19.87,57.47,25.24c2.63,0.69,5.41,1.42,7.42,3.18c0.25,0.22,0.49,0.47,0.72,0.72
			C841.4,1061.98,841.49,1065.73,840.99,1069.38z"/>
	</g>
	<g>
		<path class="st131" d="M1500,1065.25v99.04H990.51c59.91-65.49,101.38-148.35,119.6-238.59c0.63-3.09,1.22-6.18,1.79-9.29
			c9.31,4.07,18.69,7.99,28.11,11.8c61.8,24.97,125.84,44.44,191.1,58.07c35.51,7.42,71.95,13.3,104.4,29.52
			c9.89,4.94,19.22,10.75,28.08,17.22C1476.64,1042.55,1488.68,1053.5,1500,1065.25z"/>
		<g>
			<path class="st132" d="M1148.2,966.82c49.91,30.51,106.18,50.55,164.14,58.44c26.89,3.66,54.39,4.8,80.16,13.31
				c31.41,10.37,59.05,31.81,76.91,59.66c-20.68,2.12-40.03-9.14-58.5-18.7c-47.38-24.53-99.37-40.12-152.43-45.73
				c-27.91-2.95-56.52-3.24-83.03-12.45c-26.51-9.21-51.33-29.86-55.72-57.57C1126.02,961.82,1135.13,958.83,1148.2,966.82z"/>
			<path class="st131" d="M687.71,1164.3H136.08c36.19-57.63,75.84-113.12,118.81-166.04c3.29-4.06,6.6-8.09,9.93-12.12
				c0.29-0.36,0.59-0.73,0.89-1.09c5.78-6.47,12.25-11.91,19.26-16.5c12.42-8.13,26.52-13.58,41.46-17.33
				c3.9-0.99,7.87-1.85,11.88-2.62c22.07-4.24,45.44-5.49,67.58-6.76c71.06-4.07,141.81-13.59,211.42-28.46
				c1.79-0.38,3.57-0.77,5.36-1.16c3.26-0.7,6.51-1.42,9.76-2.15c10.88,10.65,14.59,28.94,16.65,44.96c0.1,0.78,0.19,1.55,0.29,2.33
				c0.91,36.19,2.4,72.47,7.99,108.1c1.56,9.93,3.44,19.8,5.71,29.61c0.26,1.12,0.52,2.22,0.8,3.34
				c3.24,13.37,7.29,26.63,12.23,39.54C679.51,1146.93,683.38,1155.74,687.71,1164.3z"/>
			<path class="st134" d="M657.34,1065.45c-0.68,34.43-5.84,68.03-19.5,98.85H381.12c-10.94-23.53-21.85-47.06-35.43-69.13
				c-22.03-35.79-52.72-68.45-92.6-81.75c6.9-0.63,1.48-7.15,1.62-13.24c0.02-0.64,0.08-1.28,0.17-1.91
				c3.29-4.06,6.6-8.09,9.93-12.12c0.29-0.36,0.59-0.73,0.89-1.09c5.78-6.47,12.25-11.91,19.26-16.5
				c12.42-8.13,26.52-13.58,41.46-17.33c3.9-0.99,7.87-1.85,11.88-2.62c22.07-4.24,45.44-5.49,67.58-6.76
				c71.06-4.07,141.81-13.59,211.42-28.46c5.05-1.08,10.09-2.18,15.12-3.32c10.88,10.65,14.59,28.94,16.65,44.96
				c0.1,0.78,0.19,1.55,0.29,2.33C650.26,993.54,651.74,1029.82,657.34,1065.45z"/>
			<path class="st135" d="M687.71,1164.3h-31.29c-14.25-30.54-23.14-63.79-28.15-97.21c-7.66-51.16-6.72-103.15-5.63-154.87
				c3.26-0.7,6.51-1.42,9.76-2.15c10.88,10.65,14.59,28.94,16.65,44.96c0.1,0.78,0.19,1.55,0.29,2.33
				c0.91,36.19,2.4,72.47,7.99,108.1c1.56,9.93,3.44,19.8,5.71,29.61c0.26,1.12,0.52,2.22,0.8,3.34
				c3.24,13.37,7.29,26.63,12.23,39.54C679.51,1146.93,683.38,1155.74,687.71,1164.3z"/>
			<path class="st135" d="M1140.02,928.21c-13.45,47.77-27.71,95.54-50.03,139.81c-18.21,36.13-42.3,70.1-72.87,96.27h-26.61
				c59.91-65.49,101.38-148.35,119.6-238.59c0.63-3.09,1.22-6.18,1.79-9.29C1121.23,920.48,1130.6,924.41,1140.02,928.21z"/>
		</g>
	</g>
	<g>
		<path class="st141" d="M651.11,919.91c3.32,18.17,11.68,41.39,15.01,59.56c-9.33,5.24-31.64,16.34-42.91,21.09
			c-7.58-10.7-18.77-18.36-18.77-18.36s3.9,12.16,8.94,22.47c-6.11,4.14-19.83,28.66-30.46,33.99c-10.78-12.97-7.4-3.29-18.08-19.38
			c0.1,6.07-2.44,14.4-2.44,14.4l-26.35,14.7c0,0-4.38,14.48-14.84,3.66c3.63,13.68-18.15,35.62-18.15,35.62
			S376.9,876.91,370.84,704.04c-5.5-156.82,75.95-269.17,152.28-370.7L651.11,919.91z"/>
		<path class="st140" d="M502.75,596.84c-42.2,23.11-65.45,76.24-53.79,122.93c5.56-25.08,15.53-49.17,29.31-70.85
			c4.94,25.45,12.94,50.31,23.75,73.87c1.05-8.59,2.11-17.17,3.16-25.76c2.81,18.33,8.36,36.23,16.39,52.94
			C522.27,698.31,514.02,646.54,502.75,596.84z"/>
		<path class="st140" d="M645.04,965.21c-51.87-64.73-103.1-134.05-119.97-215.27c20.08,47.58,43.55,93.72,70.19,137.96
			c-25.77-43.63-48.75-89.82-58.18-139.61c8.58,45.86,31.39,87.84,57.46,126.53C614.4,904.3,636.33,932.37,645.04,965.21z"/>
		<path class="st146" d="M396.87,826.25c23.81,73.91,56.16,145.06,96.2,211.58C472.94,977.09,457.63,914.75,396.87,826.25z"/>
		<path class="st146" d="M434.17,657.56c-17.15,85.65,11.41,173.19,40.86,255.42c15.17,42.37,32.22,86.8,67.39,114.87
			C491.38,910.39,455.77,786.24,434.17,657.56z"/>
		<path class="st146" d="M459.66,647.69c-7.8,131.76,39.43,265.93,128.04,363.76C530.51,894.32,472.43,774.24,459.66,647.69z"/>
		<path class="st146" d="M387.5,680.31c-4.7,60.68,13.71,120.5,31.91,178.57c15.51,49.49,32.15,100.93,68.28,138.14
			c-8.51-119.96-44.02-236.15-79.3-351.12C392.39,664.95,384.52,690.63,387.5,680.31z"/>
		<path class="st140" d="M376.82,779.48c2.22,14.98,8.29,29.38,17.46,41.43c-1.49-29,0.91-58.2,7.12-86.57
			c-0.96,12.29,1.34,24.82,6.6,35.97c1.02-9.16,2.05-18.31,3.07-27.47c4.52,18.99,10.75,37.58,18.57,55.46
			c-10.87-58.01-21.77-117.49-11.84-175.67L376.82,779.48z"/>
		<path class="st140" d="M567.94,950.51c4.52,22.01,14.05,42.98,27.65,60.87c-1.14-7.52-2.28-15.05-3.42-22.57
			c2.27,5.72,5.87,10.9,10.45,15.01c-9.68-24.92-21.55-48.99-35.43-71.83C567.34,940.54,569.15,949.07,567.94,950.51z"/>
		<path class="st140" d="M531.72,979.3c4.21,16.16,9.71,31.99,16.42,47.29c-0.47-8.77-0.95-17.55-1.42-26.32
			c2.56,6.9,5.96,13.49,10.09,19.58c-6.85-16.86-11.51-34.61-13.84-52.66c-0.75-5.81-1.48-12.14-5.6-16.3
			C528.41,965.4,533.89,984.12,531.72,979.3z"/>
		<path class="st140" d="M489.33,995.47c0.93,19.57,4.89,38.98,11.71,57.35c-0.22-9.19-0.43-18.39-0.65-27.58
			c2.7,5.41,5.4,10.82,8.1,16.23c-0.51-7.58-1.03-15.16-1.54-22.73c-0.05-0.75,0.02-1.71,0.73-1.97c0.71-0.26,1.02,1.33,0.31,1.05
			c-2.87-14.39-8.46-28.24-16.39-40.59C490.36,982.22,488.95,987.38,489.33,995.47z"/>
		<path class="st142" d="M446.61,937.36c7.88,22.54,20,43.59,35.54,61.72c-0.87-15.38-1.29-30.79-1.27-46.19
			c7.62,5.05,13.83,12.21,17.74,20.48c3.43-37.03-14.83-72.22-32.55-104.92c-3.31-1-5.39,3.49-5.86,6.92
			c-2.92,21.26-3.55,42.83-1.88,64.22c-3.21-1.59-6.42-3.19-9.63-4.78C446.41,935.84,445.32,938.92,446.61,937.36z"/>
		<path class="st142" d="M494.87,892c3.87,29.43,16.95,57.59,36.94,79.53c-2.16-12.35-4.33-24.7-6.49-37.05
			c9.1,4.03,16.68,11.41,20.95,20.41c-6.49-39.83-20.97-78.22-41.27-113.1c1.38,21.5,4,42.92,7.84,64.12
			c-16.74-3.85-11.49-33.23-26.46-41.66C483.63,876.4,486.62,889.73,494.87,892z"/>
		<path class="st142" d="M542.36,885.7c6.39,19.59,15.38,38.34,26.65,55.59c-2.15-9.93-3.09-20.13-2.79-30.29
			c7.2,6.65,13.54,14.23,18.81,22.49c0.01-6.12,0.02-12.24,0.03-18.36c4.86,3.95,9.71,7.9,14.57,11.85
			c-2-6.05-4.01-12.11-6.01-18.16c2.46,3.1,4.93,6.19,7.39,9.29c-16.74-35.05-35.91-68.94-57.33-101.34
			c2.73,25.24,9.19,50.06,19.12,73.43c-16.49-13.03-28.02-31.17-39.22-48.95C529.84,863.25,539,884.41,542.36,885.7z"/>
	</g>
	<g>
		<path class="st141" d="M973.2,938.1c-3.64,18.68-7.27,37.37-10.91,56.05c8.56-3.35,18.45-0.26,23.5,7.61
			c2.56-10.32,3.91-3.96,12.9-6.29c-1.75,11.31,2.99,7.68,1.24,18.99c10.46,4.21,19.32,13,24.5,24.28
			c1.85-9.79,4.59-1.94,11.85-7.61c-0.64,12.45,2.88,8.04,5.32,20c9.41-3.88,14.93,14.96,24.35,11.08
			c-3.57,15.59,25,39.5,38.09,44.7c93.1-93.02,117.45-243.71,124.76-374.09c7.31-130.39-69.54-299.46-133.03-403.02L973.2,938.1z"/>
		<path class="st140" d="M1127.99,577.14c19.28,10.6,41.96,14.91,63.79,12.12c-19.51,47.83-19.49,101.04-19.18,152.7
			c-4.55-29.25-9.09-58.49-13.64-87.74c-20.35,39.63-38.68,80.3-54.91,121.79c4.23-17.55,8.46-35.09,12.69-52.64
			c-5.13,14.92-10.26,29.83-15.39,44.75c-3.19-14.62-6.39-29.24-9.58-43.86c-1.82,27.51-6.33,54.84-13.47,81.47
			c-4.15-6.55-4.59-14.7-4.91-22.44c-2.18-52.78-4.37-105.57-6.55-158.35c-0.09-2.07-0.16-4.22,0.67-6.12
			c0.71-1.63,2.02-2.91,3.3-4.15c12.54-12.15,25.07-24.3,37.61-36.44C1113.68,573.13,1118.14,571.72,1127.99,577.14z"/>
		<path class="st140" d="M984.23,932.21c-4.26,17.25-8.51,34.51-12.77,51.76c6.81-8.81,14.47-16.96,22.84-24.29
			c-2.89,6.62-4.7,13.71-5.35,20.91c27.95-44.64,55.91-89.28,83.86-133.92C1035.12,868.59,993.31,895.4,984.23,932.21z"/>
		<path class="st146" d="M1010.15,927.18c18.28-7.27,34.7-19.15,47.31-34.24c-0.23,21.54-0.47,43.08-0.7,64.62
			c32.27-44.81,50.69-99.44,52.16-154.64c3.15,58.64,6.29,117.28,9.44,175.93c28.78-117.97,39.5-240.33,31.67-361.5
			c6.93,41.9,13.87,83.81,20.8,125.71c4.83-41.35,9.65-82.69,14.48-124.04c3.88,64.19,6.23,128.48,7.05,192.78
			c0.66,51.32,0.29,103.16-11.25,153.17s-35.21,98.63-74.36,131.68c3.32-27.15,6.64-54.31,9.96-81.46
			c-9.73,13.57-21.81,25.46-35.54,34.97c5.48-14.11,7.34-29.62,5.34-44.62c-13.66,6.87-25.92,16.48-35.97,28.01
			c1.04-17.08-4.2-34.47-14.5-48.13c-4.74,6.47-15.09,7.83-21.34,2.8c3.31-8.51,5.41-17.49,6.2-26.59
			c-13.82,2.22-27.64,4.44-41.46,6.65C984.88,952.4,992.35,934.25,1010.15,927.18z"/>
		<path class="st140" d="M1088.32,1066.22c8.67-10.21,17.34-20.43,26.01-30.64c-8.63,14.69-14.77,30.84-18.08,47.55
			c2.64,2.64,3.27,7.07,1.46,10.34c4.12-4.85,8.24-9.71,12.36-14.56c-0.71,3.11-1.43,6.22-2.14,9.33
			c12.41-26.65,24.81-53.31,37.22-79.96c-1.84-2.94-6.3-0.25-8.45,2.47c-8.42,10.63-16.84,21.27-25.25,31.9
			c7.87-15.96,15.74-31.92,23.61-47.88C1121.16,1013.54,1108.9,1033.53,1088.32,1066.22z"/>
		<path class="st140" d="M1117.17,909.64c9.51-33.99,19.01-67.99,28.52-101.98c-5,18.56-8.54,37.52-10.56,56.63
			c8.84-22.93,17.68-45.87,26.52-68.8c-13.1,47.27-26.21,94.54-39.31,141.81c-3.47-12.81,0.02-26.36,3.51-39.17
			C1118.57,910.5,1113.24,923.68,1117.17,909.64z"/>
		<path class="st140" d="M1073.27,872.56c16.29-29.03,32.57-58.05,48.86-87.08c-8.42,20.26-13.87,41.75-16.12,63.57
			c5.09-13.84,11.69-27.12,19.64-39.53c-9.46,20.22-14.43,42.18-21.1,63.48s-15.46,42.61-30.93,58.7
			c2.64-21.15,9.67-41.74,20.52-60.08c-12.61,14.59-23.84,30.37-33.5,47.06C1066.44,899.55,1074.4,881.09,1073.27,872.56z"/>
		<path class="st147" d="M1173.54,685.42c30.7,134.26,9.01,276.48-61.01,400.08"/>
		<path class="st147" d="M1147.5,692.37c-1.04,108.59-34.72,216.82-96.77,310.98"/>
		<path class="st147" d="M1110.08,770.69c-6.37,25.61-12.81,51.41-25.53,75.69c-15.56,29.69-40.3,56.69-51.88,87.37"/>
		<path class="st142" d="M1146.94,908.76c3.94-32.76,10.73-65.17,20.27-96.76c0.98-3.26,2.78-7.14,6.18-7.24
			c1.02,8.14,2.03,16.27,3.05,24.41c14.42-5.85,13.32-29.81,27.52-36.16c3.15,43.15-4.41,87.03-21.81,126.64
			c0.77-18.06,1.53-36.12,2.3-54.18c0.22-5.18-0.87-12.06-6.01-12.76C1165.43,873.24,1155.06,895.44,1146.94,908.76z"/>
		<path class="st142" d="M1090.65,953.42c-4.37,10.43-7.69,21.3-9.9,32.39c-0.35,1.76-0.67,3.64-0.03,5.32
			c2.02,5.32,10.41,3.28,14.03-1.11s6.13-10.5,11.6-12.06c0.19,16.1-1.06,32.23-3.73,48.11c22.8-28.43,46.46-58.76,51.54-94.85
			c-9.08,15.18-22.43,27.77-38.11,35.95c0.71-14.62,1.42-29.23,2.14-43.85c-11.15,0.63-18.93,11.38-22.88,21.82
			S1089.26,967.2,1090.65,953.42z"/>
		<path class="st142" d="M1029.02,941.71c-4.77,14.17-7.7,28.95-8.71,43.86c6.83-7.84,14.57-14.88,23.01-20.95
			c0.14,10.51,0.28,21.03,0.42,31.54c14.09-27.11,26.54-55.07,37.27-83.68c-1.98-1.63-4.84,0.34-6.61,2.2
			c-9.53,10.03-19.05,20.05-28.58,30.08c-1.2-12.2-2.4-24.39-3.6-36.59C1033.46,919.52,1031.58,934.1,1029.02,941.71z"/>
		<path class="st142" d="M984.09,951.23c1.03,7.92,2.06,15.84,3.09,23.77c4.61-5.48,9.23-10.95,13.84-16.43
			c1.5-1.78,3.16-3.67,5.43-4.2c2.27-0.54,5.15,1.11,4.89,3.43c5.52-12.5,11.05-24.99,16.57-37.49
			C1011.5,929.42,996.87,941.73,984.09,951.23z"/>
		<path class="st140" d="M1098.23,560.72c32.36,18.41,69.8,25.33,106.44,31.96c-10.09,12.84-13.08,30.13-11.58,46.38
			c1.5,16.26,7.06,31.83,12.57,47.2C1183.92,634.82,1145.91,590.39,1098.23,560.72z"/>
	</g>
	<g>
		<path class="st5" d="M524.58,715.28c-29.6-60.71-25.1-131.59-33.9-198.56c-5.29-40.21-15.34-82.5-0.3-120.17
			c3.23-8.08,7.74-15.93,14.63-21.24c-1.42,43.48-0.54,87.03,2.65,130.42c2.67,36.3,6.95,72.53,7.24,108.93
			C515.16,647.73,512.35,682.19,524.58,715.28z"/>
		<g>
			<g>
				<path class="st2" d="M1114.67,652.7c-2.35,9.35-4.82,18.98-9.62,27.23c-1.14,1.97-2.43,3.85-3.86,5.65
					c-7.41,9.25-20.41,15.12-31.39,10.69c-0.09-0.03-0.17-0.06-0.25-0.1c-11.85-57.29-20.6-117.54-10.72-176.42
					c1.42-8.44,3.56-17.45,10.05-23.04c6.51-5.62,15.78-6.39,24.36-6.91c7.37-0.44,15.42-0.7,21.4,3.64c5,3.63,7.47,9.73,9.29,15.63
					C1138.29,555.52,1126.5,605.55,1114.67,652.7z"/>
				<path class="st4" d="M1105.04,679.94c-1.14,1.97-2.43,3.85-3.86,5.65c-7.41,9.25-20.41,15.12-31.39,10.69
					c0.03-2.86,0.54-5.33,2.04-5.34C1083.69,690.9,1095.46,686.9,1105.04,679.94z"/>
				<path class="st4" d="M1075.3,639.76c1.39,3.06,2.78,6.13,4.17,9.19c0.41,0.9,0.88,1.86,1.77,2.27c0.86,0.4,1.88,0.16,2.78-0.13
					c3.84-1.25,7.29-3.45,10.69-5.62c4.68-2.99,9.54-6.15,12.33-10.95c2.62-4.5,3.13-9.96,5.53-14.58c1.23-2.37,2.95-4.51,3.79-7.04
					c0.82-2.47,0.74-5.13,0.55-7.73c-0.37-5.29-1.14-10.55-2.28-15.73c-0.41-1.84-0.9-3.75-2.15-5.16
					c-1.25-1.41-3.48-2.14-5.07-1.12c-2.13,1.36-1.77,4.5-1.34,6.98c3.08,18-5.05,37.44-20.03,47.9c-1.72,1.2-4.69,1.94-5.41-0.02
					c-0.14-0.37-0.14-0.78-0.15-1.17c-0.19-10.49-0.37-20.98-0.56-31.47c-0.04-2.21-0.28-4.8-2.16-5.97
					c-1.91-1.18-4.57-0.08-5.82,1.78s-1.44,4.22-1.5,6.47C1070.04,621.83,1073.51,635.83,1075.3,639.76z"/>
				<path class="st4" d="M1066.57,520.61c2.92-3.39,6.35-6.52,10.56-8.05s9.32-1.15,12.64,1.86c2.49,2.26,3.63,5.61,4.68,8.8
					c4.73,14.43,9.47,28.91,12.23,43.84c1.18,6.37,1.93,13.25-0.91,19.07c-2.84,5.82-10.58,9.66-16.06,6.21
					c-2.76-1.74-4.32-4.82-5.76-7.75c-5.51-11.26-11.05-22.61-14.41-34.69C1066.19,537.83,1063.65,523.99,1066.57,520.61z"/>
				<path class="st4" d="M1103.74,507.32c1.91-4.27,8.32-4.65,12.08-1.87c3.76,2.79,5.47,7.49,6.89,11.95
					c4.15,12.95,7.54,27.29,2.31,39.84c-0.43,1.04-1.23,2.24-2.35,2.07c-0.53-0.08-0.96-0.46-1.33-0.84
					c-6.07-6.17-6.71-15.72-10.29-23.61c-2.09-4.62-5.24-8.72-7.07-13.44c-1.74-4.47-2.58-9.83-6.57-12.49
					C1099.11,506.98,1102.1,506.28,1103.74,507.32z"/>
				<path class="st5" d="M1072.41,543.06c10.26,11.59,19.72,24.15,25.64,38.45c5.92,14.3,8.09,30.56,3.6,45.38
					c-8.77-5.51-15.77-13.35-22.65-21.09c-4.1-4.62-8.33-9.45-9.98-15.4c-1.12-4.05-0.97-8.32-0.75-12.52
					C1068.82,567.11,1069.7,556.37,1072.41,543.06z"/>
				<path class="st5" d="M1103.16,511.89c0.43-1.83,2.15-3.2,4-3.53c1.85-0.33,3.78,0.25,5.37,1.27c1.43,0.91,2.62,2.16,3.65,3.52
					c5.73,7.55,6.19,17.72,6.42,27.2c-3.71-5.67-3.26-13.38-7.21-18.89c-2.13-2.97-5.47-5.05-9.08-5.64c-1.03-0.17-2.16-0.26-2.9-1
					C1102.18,513.58,1102.88,511.49,1103.16,511.89z"/>
			</g>
			<path class="st2" d="M1075.53,665.78c-0.15,10.59-0.22,21.36-0.09,32.4c0.19,16.12-0.43,33.37-2.28,50.91
				c-2.18,20.81-6.1,42.03-12.44,62.2c-2.09,6.65-4.43,13.19-7.07,19.55c-0.24,0.58-0.49,1.17-0.74,1.76
				c-4.87,11.49-10.66,22.57-16.46,33.63c-15.22,29.09-26.98,51.63-46.6,77.95c-4.98,6.69-11.01,14.85-17.3,23.21
				c-5.84,7.77-11.9,15.7-17.54,22.69c-11.68,14.56-27.83,30.11-42.72,42.04c-0.9,0.72-1.79,1.43-2.68,2.12
				c-9.4,7.34-16.87,13.31-26.53,19.08c-1.54,0.92-3.13,1.83-4.8,2.75c-2.23,1.22-4.66,2.45-7.21,3.65
				c-8.91,4.2-19.23,8.16-27.68,10.95c-20.16,6.68-49.43,5.7-68.33-3.99c-16.37-8.39-29.29-17.1-41.02-26.77
				c-25.17-20.76-44.8-46-81.02-82.2c-33.37-33.35-58.35-79.85-79.75-121.88c-24.17-47.46-48.62-95.71-58.76-147.99
				c-6.81-35.13-6.98-71.18-10.77-106.76c-6.55-61.26-23.82-123.77-8.24-183.38l23.64-35.19l63.13-93.95l134.95-66.17l184.71,11.99
				l119.13,106.35c0,0,23.88,108.28,35,143.5C1080.3,541.08,1076.46,600.1,1075.53,665.78z"/>
			<path class="st143" d="M671.42,358.71c-6.92,25.51-12.63,51.94-9.69,78.21c3.48,31.08,18.73,59.43,33.69,86.9
				c3.4,6.24,6.86,12.57,11.84,17.65c5.64,5.76,12.94,9.62,20.43,12.59c21.41,8.5,46.55,10.11,67.01-0.48
				c4.53,13.62,8.29,30.71-2.09,40.62c-5.84,5.58-14.45,6.87-22.47,7.9c-16.03,2.04-32.69,4.03-48.04-1
				c-8.81-2.89-16.73-7.97-24.38-13.22c-24.38-16.73-47.51-35.98-74.9-47.11c-9.31-3.79-19.17-6.67-27.37-12.49
				c-18.53-13.17-24.19-37.71-28.48-60.04c-3.38-17.6-6.78-35.4-5.96-53.3c0.83-17.9,6.3-36.19,18.58-49.25
				c9.87-10.49,23.34-16.86,37.01-21.4c9.91-3.3,20.46-5.78,30.76-4.03C657.65,342,667.66,348.82,671.42,358.71z"/>
			<path class="st143" d="M602.38,700.61c12.09-5.52,24.19-11.04,36.28-16.56c11.8-5.39,23.74-10.86,33.85-18.99
				c10.11-8.13,18.35-19.34,20.23-32.18c6.91,21.78,9.2,45.01,6.67,67.72c-1.28,11.49-3.78,22.98-2.82,34.5
				c0.68,8.12,3.05,15.98,5.42,23.78c6.46,21.31,12.92,42.62,19.38,63.94c5.14,16.95,10.32,34.89,6.16,52.11
				c-4.16,17.22-21.4,32.61-38.52,28.06c-16.48-4.38-23.65-23.01-32.27-37.72c-12.58-21.45-32.18-37.69-48.81-56.18
				c-16.63-18.49-31.04-41.6-29.23-66.4C580.17,722.67,593.37,704.72,602.38,700.61z"/>
			<path class="st4" d="M563.52,667.6c10.7,8.44,23.03,15.27,36.49,17.48c16.01,2.63,32.28-1.41,47.84-4.2
				c-9.16,11.64-23.62,17.45-36.32,25.07s-25.1,19.52-24.84,34.33c0.19,11.35,7.88,21.2,16.41,28.69
				c8.52,7.49,18.34,13.7,25.32,22.65c7.17,9.2,10.79,20.58,15.13,31.41c8.68,21.63,20.75,41.9,35.65,59.82
				c4.17,5.02,9.21,10.19,15.71,10.74c5.53,0.47,10.74-2.59,15.03-6.11c9.83-8.07,17.07-19.25,20.42-31.52
				c12.98,28.53,2.59,65.7-23.31,83.37c-3.42,2.33-7.16,4.38-11.26,4.92c-3.6,0.47-7.25-0.25-10.75-1.21
				c-20.27-5.55-37.56-18.82-52.71-33.39c-37.25-35.84-64.89-81.39-80.47-130.67c-5.8-18.34-9.99-37.44-9.28-56.65
				C543.28,703.1,549.24,683.65,563.52,667.6z"/>
			<path class="st143" d="M714.68,908.89c12.64-18.47,17.96-41.81,14.58-63.94c-0.75-4.94-1.92-9.95-1.05-14.87
				c0.88-4.92,4.52-9.79,9.5-10.16c3.05-0.23,5.95,1.23,8.65,2.66c7.02,3.71,14.01,7.48,20.97,11.32c4.09,2.26,8.35,4.71,10.75,8.72
				c2.54,4.25,2.55,9.5,2.48,14.46c-0.17,12.08-0.34,24.16-0.51,36.25c-0.1,6.7-0.26,13.69-3.35,19.64
				c-4.88,9.41-16.33,14.76-19.21,24.96c-2.77,9.82,3.62,19.8,10.6,27.24c1.89,2.01,3.97,4.23,4.11,6.99
				c0.11,2.17-1.03,4.18-2.18,6.02c-5.2,8.29-11.56,15.86-18.84,22.41c-5.17,4.66-11.17,8.96-18.1,9.72
				c-7.26,0.79-14.45-2.5-20.08-7.15c-14.21-11.71-19.86-31.46-18.56-49.84C695.75,934.94,706.49,920.85,714.68,908.89z"/>
			<path class="st4" d="M587.81,372.9c-7.69,31.58-7.54,65.04,0.42,96.55c6.7,26.5,20.2,53.04,43.96,66.57
				c13.82,7.87,29.99,10.71,44.15,17.96c20.42,10.45,35.38,29.51,45.13,50.28c9.75,20.76,14.8,43.36,19.79,65.75
				c0.76,3.41,1.5,7.06,0.24,10.31c-0.91,2.33-2.78,4.22-3.47,6.63c-1.01,3.51,0.7,7.15,2.04,10.55
				c14.36,36.17-9.38,81.07,10.33,114.63c8.39,14.28,23.14,23.4,37.32,31.94c-12.69,4.36-22.75,15.63-25.64,28.73
				s1.49,27.56,9.13,36.37c5.91,1.46,11.81,2.92,17.72,4.39c1.03,0.26,2.15,0.57,2.77,1.44c0.66,0.93,0.53,2.17,0.49,3.31
				c-0.17,4.14,1.16,8.33,3.68,11.61c-10.56-1.57-21.03,3.81-31.7,3.47c-4.89-0.15-9.68-1.51-14.57-1.77
				c-9.23-0.5-18.3,2.9-27.54,2.77c-7.83-0.11-15.37-2.73-24.09,0.06c-8.01-3.23-12.67-13.92-8.1-21.24
				c1.79-2.87,4.63-4.91,7.45-6.78c6.68-4.42,13.72-8.37,19.72-13.67s11.01-12.23,12.09-20.16c1.85-13.44-7.5-25.44-13.77-37.47
				c-3.98-7.64-6.83-15.8-9.67-23.93c-1.58-4.52-3.17-9.12-3.46-13.9c-0.21-3.46,0.28-6.93,0.14-10.39
				c-0.47-11.41-7.54-21.35-14.5-30.4c-9.21-11.96-19.32-26.48-14.71-40.86c2.19-6.83,7.4-12.17,11.4-18.13
				c12.72-18.96,12.2-45.86-0.58-63.67c-37.12-18.17-79.45-21.78-119.27-32.86c-8.76-2.44-18.04-5.69-23.29-13.12
				c-2.24-3.17-3.56-6.89-4.85-10.55c-6.25-17.69-12.5-35.38-21.2-48.24c-9.23-43.45-15.15-87.61-17.68-131.95
				c-0.75-13.24-1.19-26.67,1.74-39.6c3.08-13.55,10.53-26.86,22.84-33.31c14.61-7.65,33.51-3.74,46.1,6.9
				C580.98,341.74,591.34,358.41,587.81,372.9z"/>
			<path class="st4" d="M912.28,1032.12c-0.9,0.72-1.79,1.43-2.68,2.12c-9.4,7.34-16.87,13.31-26.53,19.08
				c-1.54,0.92-3.13,1.83-4.8,2.75c-2.23,1.22-4.66,2.45-7.21,3.65c-8.91,4.2-19.23,8.16-27.68,10.95
				c-20.16,6.68-49.43,5.7-68.33-3.99c-16.37-8.39-29.29-17.1-41.02-26.77c-6.25-10.38-11.36-21.65-15.83-32.82
				c-8.87-22.18-16-47.74-5.78-69.32c14.65-0.69,29.31-1.39,45.65-2.5c-3.39,9.18,1.95,19.74,9.89,25.48
				c7.93,5.73,17.87,7.76,27.49,9.62c36.99,7.17,74.69,14.17,112.11,9.88c-10.32,4.92-21.35,8.4-32.63,10.3
				c-23.17,3.92-46.87,1.18-70.34-0.06c-7.72-0.41-15.66-0.63-23,1.82c-7.34,2.45-14.07,8.14-15.65,15.72
				c-2.1,10.05,5.02,19.47,11.69,27.28c7.37,8.64,15.17,17.59,25.73,21.78c9.34,3.72,19.77,3.26,29.76,2.15
				c25.06-2.76,50.98-9.88,66.87-25.97C903.85,1031.71,908.19,1031.33,912.28,1032.12z"/>
			<path class="st4" d="M748.99,815.09c3.78,5.89,10.78,9.22,17.76,9.78s13.95-1.35,20.39-4.1c4.34-1.86,8.55-4.11,13.12-5.32
				c5.32-1.41,10.9-1.34,16.39-1.09c4.74,0.22,9.48,0.57,14.2,1.05c4.59,0.47,10.19,1.95,11.14,6.46c0.28,1.34-0.1,2.98-1.35,3.54
				c-1.08,0.48-2.32-0.03-3.4-0.51c-5.16-2.3-10.56-4.06-16.09-5.23c-2.96-0.63-6.07-1.08-8.98-0.26c-3.21,0.9-5.79,3.23-8.24,5.49
				c-5.91,5.44-11.82,10.88-17.73,16.32c-1,0.92-2.15,1.9-3.51,1.87c-1.09-0.02-2.05-0.7-2.92-1.35
				C769.02,833.78,758.4,825.64,748.99,815.09z"/>
			<path class="st4" d="M780.79,915.16c18.39,4.84,37.47-8.54,56.22-5.43c19.64,3.26,32.36,23.2,51.14,29.81
				c14.88,5.24,44.72,10.16,43.09,16.51c-1.13,4.4-15.79-0.57-18.16-1c-2.4-0.44-6.96-2.41-10.32-3.44
				c-12.85-3.92-25.71-7.85-38.56-11.77c-18.36-5.6-37.2-11.27-56.36-10.1c-5.83,0.36-11.85,1.32-17.39-0.52
				C784.91,927.38,780.15,921.44,780.79,915.16z"/>
			<path class="st4" d="M784.39,844.06c6.93,5.57,13.91,11.3,18.96,18.61c5.05,7.32,7.99,16.56,5.91,25.2
				c-1.16,4.83-3.87,9.27-7.62,12.51c-0.83,0.72-1.81,1.41-2.9,1.36c-1.26-0.06-2.24-1.07-3.03-2.05
				c-6.88-8.6-8.93-19.98-10.76-30.84c-1.09-6.52-2.19-13.03-3.28-19.55C781.27,846.89,780.95,844.11,784.39,844.06z"/>
			<path class="st5" d="M914.26,955.5c-11.17-0.03-26.17-6.39-37.61-10.55c-10.73-3.9-21.73-7.07-32.04-8.62
				c-11.36-2.16-22.79-4.33-34.36-4.39c-8.54-0.05-17.04,1.06-25.5,2.16c-17.21,2.25-34.41,4.5-51.05,5.36
				c8.61,12.23,17.77,24.95,31.21,31.53c24.01,11.74,54.12,0.44,78.76,10.78c1.78,0.75,3.83,2.2,3.39,4.08
				c-13.53-2.88-27.33-4.52-41.17-4.89c-10.02-0.26-20.3,0.18-29.62,3.87c-9.32,3.69-17.64,11.12-20.13,20.84
				c-2.88,11.24,2.41,23,9.24,32.39c14.29,19.59,37.33,33.83,61.57,33.14c15.26-0.43,29.58-6.49,44.12-11.51
				c-8.91,4.2-19.23,8.16-27.68,10.95c-20.16,6.68-49.43,5.7-68.33-3.99c-51.49-26.4-68.95-55.91-122.04-108.97
				c-33.37-33.35-58.35-79.85-79.75-121.88c-24.17-47.46-48.62-95.71-58.76-147.99c-6.81-35.13-6.98-71.18-10.77-106.76
				c-6.55-61.26-23.82-123.77-8.24-183.38l23.64-35.19c-1.55,39.76,0.23,79.65,5.29,119.12c1.99,15.49,4.53,31.11,10.6,45.49
				c6.06,14.4,16.01,27.63,30.98,33.66c-7.96,5.28-12.94,14.76-12.79,24.3c0.15,9.55,5.43,18.86,15.08,22.84
				c-5.04,4.31-6.5,12.25-2.93,17.54c-5.89,6.2-9.6,14.45-11.17,23.15c9.83,20.32,30.54,36.02,45.01,42.36
				c4.33,1.9,14.32,3.07,20.98,3.88c-17.44,2.51-36.21-0.22-51.9,7.79c-1.89,0.97-3.78,2.16-4.87,4c-0.85,1.46-1.12,3.18-1.36,4.87
				c-1.37,9.54-2.75,19.08-4.44,28.91c4.33,9.46,8.65,18.91,12.98,28.36c2.18,4.77,4.38,9.57,7.03,14.09
				c2.98,5.07,6.53,9.78,10.07,14.48c9.42,12.51,18.85,25,28.28,37.51c22.72,30.14,45.5,60.34,71.64,89.1
				c9.7,0.7,17.65-9.61,27.35-8.87c9.72,0.74,15.19,11.8,24.14,15.67c4.25,1.84,9.03,1.94,13.67,1.93
				c17.13-0.02,34.26-0.97,51.28-2.66c21.35-1.31,42.96,1.89,63.01,9.33c7.78,2.88,15.73,5.08,23.65,7.5
				C898.74,949.31,907.75,952.4,914.26,955.5z"/>
			<path class="st5" d="M482.1,432.97c1.27-26.23,21.56-50.39,47.18-56.18c16.65-3.76,34.04-0.35,50.49,4.16
				c25.36,6.96,50.14,16.61,76.22,20.01c26.08,3.4,54.56-0.32,74.63-17.32c6.86-5.81,12.69-13.1,20.75-17.07
				c12.21-6.02,26.96-3.23,40-7.13c11.8-3.53,21.34-12.25,32.7-16.98c22.16-9.24,48.12-2.31,71.05-9.41
				c12.65-3.92,24.88-12.12,37.95-10c6.72,1.09,12.68,4.84,18.34,8.61c28.08,18.7,54.34,40.14,78.28,63.91
				c8.1-11.51,6.24-27.8-0.93-39.91c-7.16-12.11-18.69-20.92-30.09-29.17c-22.64-16.39-46.2-31.97-72.29-41.98
				c-26.09-10.01-55.11-14.17-82.19-7.27c-41.09,10.47-72.52,44.49-112.79,57.76c-19.19,6.33-39.61,7.67-59.77,8.97
				c-29.19,1.88-58.38,3.76-87.58,5.64c-24.63,1.59-50.15,3.42-71.81,15.26C490.61,376.7,473.97,401.55,482.1,432.97z"/>
			<path class="st5" d="M977.61,348.17c25.72,28.85,23.42,73.28,42.38,106.97c5.64,10.02,13.06,18.89,20.44,27.7
				c12.02,14.36,24.05,28.72,36.07,43.08c1.77-16.1-3.04-32.31-10.19-46.85c-7.15-14.54-16.61-27.8-24.94-41.69
				c-9.88-16.46-18.21-33.85-24.85-51.87c-4.67-12.67-8.94-26.33-19.16-35.15C991.56,345.36,981.14,343.18,977.61,348.17z"/>
			<path class="st5" d="M732.4,714.61c-0.27-10.51-2.02-20.98-5.17-31.01c-0.94-2.99-2.02-6.03-1.9-9.16
				c0.07-1.91,0.6-3.78,0.78-5.68c0.2-2.12-0.02-4.26-0.26-6.37c-2.07-18.6-5.53-38.3-18.17-52.1
				c-7.64-8.34-17.92-13.69-27.98-18.86c-7.33-3.77-14.69-7.56-22.52-10.14c-5.03-1.66-10.2-2.81-15.37-3.96
				c-27.08-6.02-54.46-12.06-82.2-11.54c25.13,1.5,49.22,9.21,72.78,17.45c3.7,1.29,7.42,2.61,10.86,4.5
				c3.19,1.75,6.1,3.97,8.97,6.23c4.32,3.4,8.57,6.9,12.74,10.48c10.03,8.62,19.69,17.88,27.02,28.89c2.7,4.06,5.1,8.41,6.23,13.15
				c1.04,4.4,0.96,8.98,0.86,13.5c-0.2,9.59-0.39,19.17-0.68,28.61c0.03,24.09,1.54,48.18,4.51,72.09c0.35,2.81,0.73,5.67,1.88,8.26
				c0.99,2.24,2.51,4.19,3.67,6.35c2.54,4.71,3.25,10.15,3.93,15.46c0.74,5.81,1.47,11.61,2.21,17.42c0.6,4.75,1.21,9.53,2.7,14.08
				c3.24,9.89,10.61,18.73,11.4,28.48c4.56-4,9.56-9.06,8.75-15.07c-2.7,0.35-5.95,0.39-7.53-1.82c-1.97-2.76,0.61-6.85,3.88-7.75
				c4.92-1.36,9.81,1.93,13.86,5.03c3.77,2.89,7.54,5.77,11.31,8.66c1.52,1.17,3.08,2.36,4.12,3.97c1.04,1.61,1.49,3.74,0.65,5.46
				c7.43,2.46,15.5,2.95,23.75-0.58c-12.41-6.55-24.98-13.2-35.3-22.71c-10.32-9.51-18.31-22.37-18.98-36.38
				c-0.36-7.51,1.36-14.94,2.5-22.37C738.46,749.23,732.84,731.63,732.4,714.61z"/>
			<path class="st5" d="M878.11,595c12.52-1.42,25.46-0.28,37.46,0.35c-2.49-1.79-5.75-2.24-8.82-2.38
				c-5.88-0.28-11.33-1.77-17.15-0.94C883.87,592.84,876,594.41,878.11,595z"/>
			<path class="st3" d="M751.77,636.11c7.19,46.56,14.4,93.47,12.61,140.55c-0.32,8.45-0.91,17.07,1.33,25.22
				c0.52,1.88,1.52,4.02,3.45,4.29c1.77,0.25,3.29-1.25,4.26-2.75c3.7-5.68,4.17-12.81,4.36-19.59
				C779.21,733.09,771.44,682.09,751.77,636.11z"/>
			<path class="st5" d="M561.07,615.74c8-6.37,19.2-6.25,29.42-5.83c7.36,0.31,14.74,0.61,22.04,1.61
				c30.73,4.22,58.62,20.48,89.06,26.49c-1.74-4.93-3.63-9.8-5.68-14.61c-1.69-3.96-3.8-8.19-7.73-9.93c-2.94-1.3-6.3-0.93-9.5-0.64
				c-30.84,2.76-61.62-4.82-92.55-6.17c-10.81-0.47-22.92,0.35-30.31,8.25C556.63,616.27,558.92,617.45,561.07,615.74z"/>
			<path class="st143" d="M1075.44,698.18c0.19,16.12-0.43,33.37-2.28,50.91c-0.62,3.38-1.25,6.76-1.87,10.14
				c-3.21,17.4-6.44,34.85-10.57,52.06c-2.09,6.65-4.43,13.19-7.07,19.55c-5.02,12.12-11.11,23.76-17.2,35.38
				c-15.22,29.09-26.98,51.63-46.6,77.95c-4.98,6.69-11.01,14.85-17.3,23.21c2.22-34.08-1.07-68.32,7.1-94.78
				c22.47-72.84,54.82-142.61,95.88-206.82C1075.38,676.37,1075.3,687.14,1075.44,698.18z"/>
			<path class="st143" d="M842.9,637.35c8.96,10.71,17.92,21.43,26.88,32.14c3.79,4.53,8.34,9.44,14.24,9.51
				c2.52,0.03,4.95-0.86,7.31-1.76c19.52-7.4,38.68-15.79,57.36-25.11c8.84-4.41,18.51-10.2,20.59-19.86
				c-31.52,19.81-73.01,22.73-107,7.53C855.96,636.98,848.47,633.59,842.9,637.35z"/>
			<path class="st143" d="M882.86,591.59c-8.95-3.47-19.16-0.83-27.75,3.45c-5.58,2.78-10.94,6.35-14.57,11.42
				c-3.63,5.07-5.28,11.85-3.1,17.69c4.58-3.89,9.52-6.11,14.37-7.15c0.32-6.29,4.33-11.93,9.37-15.69s11.07-5.93,17.03-7.96
				C880.2,592.67,882.34,592,882.86,591.59z"/>
			<path class="st143" d="M894.77,635.22c12.32,1.42,24.84,2.84,37.06,0.72c12.22-2.12,24.31-8.3,30.69-18.93
				C945.22,634.3,918.22,641.13,894.77,635.22z"/>
			<path class="st148" d="M567.33,630.76c-3.57,11.41,1.46,24.42,10.59,32.14c9.13,7.72,21.62,10.62,33.55,9.98s23.46-4.53,34.5-9.1
				c9.24-3.82,18.29-8.16,26.73-13.5c-24.63-18.94-55.74-29.3-86.81-28.92c-4.22,0.05-8.56,0.33-12.36,2.15
				C569.73,625.33,566.56,629.05,567.33,630.76z"/>
			<path class="st148" d="M853.91,623.62c16.7,8.1,34.99,13.4,53.54,13.42c18.56,0.02,37.4-5.51,51.82-17.18
				c1.62-1.31,3.35-3.37,2.43-5.24c-0.28-0.58-0.78-1.02-1.27-1.43c-17.94-15.09-42.95-17.97-66.38-18.83
				c-6.12-0.22-12.34-0.34-18.25,1.25c-8.96,2.42-16.76,8.95-20.56,17.42c-1.21,2.69-2.03,5.7-1.41,8.58
				C854.44,624.48,856.85,627.12,853.91,623.62z"/>
			<path class="st143" d="M607.56,672.06c20.59,1.72,41.75-4.97,57.62-18.21C647.29,664.7,626.5,670.73,607.56,672.06z"/>
			<path class="st143" d="M962.6,594.76c4.78-1.5,9.92-1.8,14.5-3.85c2.7-1.21,5.1-2.98,7.41-4.82c7.8-6.22,14.83-13.41,20.97-21.28
				c4.82,4.43,6.64,11.15,8.24,17.49c0.65,2.57,1.3,5.24,0.79,7.84c-1.2,6.15-8,9.21-13.91,11.29c-4.18,1.47-8.35,2.94-12.53,4.4
				c-1.85,0.65-3.73,1.31-5.69,1.44c-1.88,0.13-3.77-0.24-5.56-0.81C970.38,604.43,964.84,599.7,962.6,594.76z"/>
			<path class="st119" d="M636.92,659.87c3.11-7.71,6.28-16.13,4.04-24.14c2.45,4.82,4.9,9.64,7.35,14.46
				c0.46,0.9,0.93,1.89,0.73,2.88c-0.25,1.23-1.44,2.01-2.53,2.64C643.28,657.61,640.05,659.51,636.92,659.87z"/>
			<path class="st4" d="M839.94,778.63c4.34,7.92,7.84,16.77,6.99,25.77c-0.84,9-7.12,17.99-16.05,19.4
				c3.32,3.53,9.42,1.84,13.04-1.38c6.58-5.84,8.96-15.47,7.45-24.14C849.86,789.62,844.9,781.87,839.94,778.63z"/>
			<path class="st119" d="M927.46,603.29c2.91,9.04,2.12,19.21-2.15,27.7c7.35-1.94,14.28-5.48,20.16-10.31
				c0.91-0.75,1.86-1.64,2.01-2.81c0.18-1.45-0.91-2.72-1.98-3.7C940.39,609.47,933.89,606.29,927.46,603.29z"/>
			<path class="st5" d="M787.16,839.05c8-12.95,23.32-21.02,38.53-20.28c2.19,0.11,4.46,0.42,6.26,1.66c1.8,1.25,2.94,3.68,2.09,5.7
				c-2.71,0.15-5.49,0.03-8.01-0.96c-2.52-0.99-4.77-2.96-5.57-5.56c-12.44,1.47-24.19,8.1-31.89,17.98
				C788.19,838.08,787.8,838.6,787.16,839.05z"/>
			<path class="st149" d="M610.11,669.99c-6.57-0.23-10.27,2.44-16.69,0.91c-6.42-1.53-12.71-4.45-17.46-9.41
				c-7.22-7.55-15.73-27.52-5.42-36.83c3.42-3.09,16.68-2.7,16.68-2.7s-10.01,15.99-6.77,24.09
				C586.5,661.2,597.66,669.21,610.11,669.99z"/>
			<path class="st4" d="M1052.91,832.6c-4.87,11.49-10.66,22.57-16.46,33.63c-15.22,29.09-26.98,51.63-46.6,77.95
				c-4.98,6.69-11.01,14.85-17.3,23.21c-5.84,7.77-11.9,15.7-17.54,22.69c-12.39,15.44-29.79,31.98-45.4,44.16
				c-9.4,7.34-16.87,13.31-26.53,19.08c-1.58-0.18-3.11-0.68-4.51-1.62C950.36,991.37,1003.31,912.58,1052.91,832.6z"/>
			<path class="st4" d="M816.92,568.48c1.13,4.98-2.84,9.53-6.5,13.1c-6.86,6.7-13.72,13.39-20.58,20.09
				c9.08-3.17,18.16-6.33,27.23-9.5c-2.03,2.89-4.07,5.77-6.1,8.66c-0.38,0.54-0.78,1.16-0.65,1.81c0.08,0.38,0.34,0.7,0.6,0.99
				c2.7,2.87,7.12,3.52,10.98,2.71c3.86-0.81,7.32-2.84,10.79-4.71c16.59-8.94,34.71-14.62,52.7-20.25
				c-10.41-2.86-20.82-5.71-31.24-8.57c-2.65-0.73-5.82-2.03-6.08-4.77c-0.09-0.95,0.22-1.93,0.01-2.86
				c-0.52-2.24-3.45-2.76-5.75-2.65C832.65,562.96,823.1,566.14,816.92,568.48z"/>
			<path class="st5" d="M826.81,580.68c57.54-21.74,120.97-19.39,182.42-16.74c-64.35-19.29-135.19-16.19-197.61,8.65
				C816.66,576.51,822.38,579.56,826.81,580.68z"/>
			<path class="st150" d="M682.37,599.99c-51.67-29.25-104.02-33.47-163.04-39.95c64.26-9.02,122.86,1.5,178.73,34.43
				C692.67,597.49,686.77,599.57,682.37,599.99z"/>
			<path class="st149" d="M867.39,601.33c-2.1,4.84-0.52,10.52,2.03,15.13c5.89,10.64,17.1,18.16,29.18,19.59
				c-14.91,0.13-29.58-4.18-42.51-10.21c-2.17-1.88-4.49-4.02-4.87-6.87c-0.38-2.81,1.25-5.46,2.84-7.81
				c1.91-2.83,3.89-5.66,6.4-7.98s5.63-4.11,9.03-4.49C868.17,600.16,866.84,601.62,867.39,601.33z"/>
			<path class="st4" d="M854.25,633.24c10.72,9.01,24.37,14.16,38.26,15.94c13.89,1.78,28.05,0.33,41.71-2.75
				c9.75-2.2,19.46-5.3,27.76-10.86c-8.86,8.92-21.31,13.06-33.27,16.91c-11.42,3.68-22.83,7.35-34.25,11.03
				c-1.48,0.48-3.01,0.96-4.56,0.83c-1.71-0.14-3.26-1-4.73-1.88C872.67,655.01,861.64,645.14,854.25,633.24z"/>
			<path class="st5" d="M844.46,592.91c4.02-5.59,11.51-7.23,18.35-7.92c22.23-2.24,45,1.15,65.62,9.78
				c-2.5-3.09-6.49-4.49-10.3-5.6c-24.91-7.28-51.56-8.5-77.03-3.52C844.27,586.36,846.27,590.26,844.46,592.91z"/>
			<path class="st5" d="M885.4,593.4c-3.57,0.6-7.08,1.51-10.5,2.79c-4.55,1.69-8.91,4.03-12.98,7.13c3.62-4.49,8.61-7.1,14.17-8.54
				C879.07,594.02,882.22,593.6,885.4,593.4z"/>
			<path class="st3" d="M858.38,698.21c28.19,10.56,59.43,12.82,88.84,6.44c9.96-2.16,19.81-5.3,30-5.68
				c1.82-0.07,3.74-0.02,5.33,0.89c2.85,1.63,3.59,5.39,3.55,8.67c-0.26,18.74-15.76,33.24-30.07,45.34
				c-9.08,7.68-18.24,15.42-28.63,21.22c-4.52,2.52-9.57,4.72-14.71,4.09c-6.81-0.84-11.97-6.33-16.48-11.49
				C879,747.97,861.54,726.53,858.38,698.21z"/>
			<path class="st3" d="M803.11,840.43c4.45,14.59,8.9,29.19,13.36,43.78c0.65,2.14,1.36,4.37,2.92,5.97
				c1.24,1.27,2.91,2.02,4.57,2.67c11.57,4.55,24.56,5.73,35.04,12.43c4.31,2.76,8.02,6.35,12.13,9.4
				c13.74,10.19,32.1,13.87,48.7,9.75c-23.36-10.24-46.72-20.48-70.08-30.72c-6.44-2.82-13.03-5.74-18.12-10.6
				C819.13,871.16,817.62,849.54,803.11,840.43z"/>
			<path class="st3" d="M793.51,943.3c30.28-2.22,61.01,1.75,89.74,11.59c4.77,1.64,9.69,3.56,13.07,7.31
				c-2.05,2.55-5.95,2.23-9.18,1.68c-27.49-4.69-54.97-9.38-82.46-14.07C801.12,949.2,796.66,947.58,793.51,943.3z"/>
			<path class="st3" d="M799.59,1032.39c24.61,7.6,52.15,5.19,75.07-6.56c6.67-3.42,13.16-7.82,16.96-14.28
				c-12.99-1.41-25.02,6.28-37.63,9.71c-7.83,2.13-16.11,2.62-24.14,1.43c-7.81-1.16-15.54-3.89-23.39-3.07
				c-3.77,0.4-7.83,1.93-9.5,5.34C795.27,1028.36,797.76,1033.53,799.59,1032.39z"/>
			<path class="st3" d="M586.39,677.26c14.16,5.65,30.01,5.99,45.05,3.49c8.28-1.38,16.92-3.88,22.49-10.17
				c-5.58-1.04-11.17,1.14-16.63,2.68c-9.13,2.58-18.74,3.45-28.18,2.55c-7.25-0.69-14.4-2.41-21.67-2.53
				c-1.65-0.03-3.98,1.09-3.17,2.53c0.25,0.43,0.73,0.67,1.18,0.88C586.62,677.24,587.78,677.78,586.39,677.26z"/>
			<path class="st3" d="M599.71,616.48c14.79,1.7,29.34,5.45,43.11,11.11c5.56,2.29,11.07,4.9,17,5.91
				c-3.47-6.25-10.86-9.03-17.71-11.1c-8.46-2.55-17.01-4.76-25.61-6.8c-3.77-0.89-7.58-1.76-11.46-1.75
				C602.76,613.85,600.15,614.38,599.71,616.48z"/>
			<path class="st3" d="M875.95,639.88c20.1,7.63,42.79,8.24,63.26,1.69c1.62-0.52,3.47-1.33,3.86-2.99
				c-4.83-1.45-10.01-0.5-15.01,0.18c-15.52,2.11-31.42,1.45-46.72-1.93c-1.74-0.39-3.76-0.75-5.15,0.37
				C874.8,638.32,875.63,641.35,875.95,639.88z"/>
			<path class="st3" d="M840.62,634.84c1.61-2.19,3.27-4.45,5.59-5.86s5.49-1.81,7.69-0.21c-0.87-2.82-2.87-5.28-5.46-6.7
				c-1-0.55-2.22-0.95-3.27-0.5c-2.37,1.03-1.59,5.07-3.72,6.54c-1.45,1-3.83,0.44-4.81,1.9c-0.72,1.08-0.07,2.64,1.03,3.32
				S840.16,634.02,840.62,634.84z"/>
			<path class="st3" d="M887.12,590.08c12.29-0.37,24.62,0.92,36.61,3.83c7.97,1.93,15.87,4.59,24.03,4.96
				C927.64,589.18,905.04,585.43,887.12,590.08z"/>
			<path class="st3" d="M845.09,387.07c-3.11,31.12-6.23,62.24-9.34,93.37c-1.21,12.13-2.15,25.44,4.81,35.45
				c5.18,7.46,14.02,11.72,22.97,13.3c8.94,1.58,18.12,0.78,27.16-0.03c22.84-2.03,45.68-4.06,68.52-6.09
				c2-0.18,4.14-0.41,5.66-1.73c1.7-1.48,2.15-3.9,2.45-6.14c3.86-28.58,0.58-57.58-2.7-86.23c-1.04-9.11-2.11-18.34-5.49-26.86
				c-10.3-25.99-40.29-39.65-68.24-39.7c-10.54-0.02-21.39,1.62-30.44,7.03C851.4,374.84,845.34,384.49,845.09,387.07z"/>
			<path class="st3" d="M844.18,830.32c13.78-11.79,16.71-34.31,6.42-49.24c4.78,4.67,9.49,9.52,12.86,15.3
				c3.37,5.77,5.31,12.61,4.14,19.19C865.53,827.23,852.59,835.71,844.18,830.32z"/>
			<g>
				<path class="st151" d="M638.28,641.45c0,14.46-10.54,26.49-24.46,29.07c-1.82,0.35-3.7,0.52-5.62,0.52
					c-16.61,0-30.08-13.24-30.08-29.59c0-5.99,1.81-11.57,4.94-16.22c0.57-0.88,1.21-1.74,1.89-2.55
					c12.49-0.68,25.03,0.79,37.24,3.8c2.44,0.6,4.86,1.26,7.26,1.98c2.27,0.68,4.52,1.41,6.76,2.18
					C637.54,633.99,638.28,637.64,638.28,641.45z"/>
				<path class="st5" d="M677.57,653.58c-0.48,1.14-1.82,1.6-3.05,1.79c-2.65,0.45-5.4,0.28-7.99-0.48
					c0.83-4.05-1.06-8.3-3.95-11.25c-2.89-2.96-6.68-4.85-10.44-6.58c-5.18-2.38-10.51-4.54-15.94-6.42c-4.61-1.6-9.29-3-14.02-4.16
					c-12.21-3.02-24.75-4.48-37.24-3.8c-6.74,0.37-13.47,1.37-20.1,3.08c6.79-2.11,13.79-3.4,20.87-3.96
					c11.65-0.91,23.52,0.16,34.94,2.81c0.55,0.13,1.12,0.26,1.67,0.4c4.44,1.1,8.83,2.43,13.14,3.95
					c13.95,4.95,27.16,12,39.52,20.18C676.53,650.16,678.3,651.85,677.57,653.58z"/>
				<path class="st152" d="M638.28,641.45c0,14.46-10.54,26.49-24.46,29.07c7.49-8.43,14.45-18.01,14.01-29.06
					c-0.22-5.42-2.33-10.63-5.64-14.98c4.73,1.16,9.41,2.56,14.02,4.16C637.54,633.99,638.28,637.64,638.28,641.45z"/>
				<path class="st152" d="M633.75,635.14c-13.04-7.98-28.53-11.86-43.8-10.97c-2.32,0.14-4.67,0.39-6.89,1.06
					c0.57-0.88,1.21-1.74,1.89-2.55c12.49-0.68,25.03,0.79,37.24,3.8c2.44,0.6,4.86,1.26,7.26,1.98
					C631.12,630.5,632.48,632.81,633.75,635.14z"/>
				<circle class="st153" cx="607.51" cy="644.97" r="12.49"/>
				<path class="st125" d="M594.75,661.6c-6.12-4.58-10.36-11.61-11.55-19.16c-0.57-3.63-0.45-7.42,0.83-10.86
					c1.28-3.44,3.82-6.49,7.18-7.96c-2.06,6.17-3.33,12.67-3.03,19.16C588.49,649.28,590.42,655.79,594.75,661.6z"/>
			</g>
			<g>
				<path class="st5" d="M969.12,614.76c-2.3,1.05-4.84,1.53-7.36,1.41c-1.07-3.28-4.07-5.51-7.01-7.32
					c-11.11-6.83-23.65-10.7-36.57-12.93c-1.53-0.26-3.07-0.5-4.61-0.72c-1.17-0.78-2.44-1.43-3.74-1.97
					c2.33,0.3,4.65,0.67,6.95,1.1c10.95,2.03,21.68,5.39,32.27,8.9C956.5,605.68,964.37,608.52,969.12,614.76z"/>
				<path class="st151" d="M924.11,612.67c0,10.68-6.31,19.91-15.45,24.29l-4.87-0.09l-24.08-2.94
					c-6.4-4.94-10.52-12.62-10.52-21.26c0-5.76,1.83-11.11,4.98-15.49c0.23-0.33,0.48-0.66,0.73-0.98c3.42-1.28,6.93-2.19,10.5-2.79
					c3.94-0.25,7.94-0.15,11.76,0.11c2.51,0.16,5.04,0.37,7.55,0.61c2.97,0.29,5.93,0.64,8.87,1.08c1.54,0.21,3.08,0.46,4.61,0.72
					C921.89,600.52,924.11,606.35,924.11,612.67z"/>
				<path class="st152" d="M924.11,612.67c0,10.68-6.31,19.91-15.45,24.29l-4.87-0.09c6.03-7.11,11.14-15.11,10.77-24.19
					c-0.25-6.35-3.34-12.35-7.89-16.8c-0.63-0.62-1.29-1.2-1.97-1.76c2.97,0.29,5.93,0.64,8.87,1.08c1.54,0.21,3.08,0.46,4.61,0.72
					C921.89,600.52,924.11,606.35,924.11,612.67z"/>
				<circle class="st153" cx="896.02" cy="615.89" r="11.4"/>
				<path class="st125" d="M884.38,631.07c-5.59-4.18-9.45-10.6-10.54-17.49c-0.52-3.31-0.41-6.77,0.76-9.91s3.48-5.92,6.56-7.27
					c-1.88,5.63-3.04,11.56-2.77,17.49C878.66,619.82,880.43,625.76,884.38,631.07z"/>
			</g>
			<path class="st154" d="M961.4,618.27c5.44,3.44,7.93,10.09,8.95,16.44c1.02,6.35,0.96,12.92,2.96,19.04
				c0.6,1.84,1.71,3.88,3.63,4.14c1.77,0.24,3.4-1.29,3.91-3.01c0.51-1.72,0.19-3.56-0.14-5.32c-1.24-6.7-2.51-13.5-5.58-19.59
				S966.89,618.53,961.4,618.27z"/>
			<path class="st152" d="M919.08,600.72c-3.66-2.69-7.93-4.11-12.41-4.84c-4.63-0.76-9.5-0.77-14.18-0.64
				c-6.15,0.16-12.35,0.49-18.32,1.94c0.23-0.33,0.48-0.66,0.73-0.98c3.42-1.28,6.93-2.19,10.5-2.79c3.94-0.25,7.94-0.15,11.76,0.11
				c2.51,0.16,5.04,0.37,7.55,0.61c2.97,0.29,5.93,0.64,8.87,1.08C915.79,596.63,917.72,598.48,919.08,600.72z"/>
			<path class="st140" d="M668.33,648.42c0,0-0.67-0.11-0.94-0.35c-55.67-47.68-117.09-11.83-117.09-11.83s12.32-21.11,60.41-14.57
				c22.55,3.07,45.37,11.36,58.08,25.16c0.54,0.59,0.65,1.08,0.65,1.08L668.33,648.42z"/>
			<path class="st140" d="M850.88,617.43c0,0,3.34-17.51,26.17-23.08c10.33-2.52,21.92-3.57,35.8-1.82
				c20.82,2.62,58.19,20.41,58.19,20.41l-1.47,3.7c0,0-30.06-17.82-57.08-21.22c-13.47-1.7-24.59-0.25-34.63,1.73
				C857.25,601.21,850.88,617.43,850.88,617.43z"/>
			<path class="st4" d="M816.39,1076.3c-25.98,0-48.88-11-63.84-20.52c-20.67-13.16-38.05-30.52-54.08-47.16
				c-25.76-26.75-49.57-52.19-72.15-82.41c0,0,46.7,54.28,74.24,80.39c16.65,15.78,33.15,33.73,53.55,46.73
				c15.46,9.85,39.58,21.3,66.64,19.96c16-0.79,29.51-5.46,44.44-10.44c0,0-27.9,12.53-44.3,13.34
				C819.39,1076.26,817.88,1076.3,816.39,1076.3z"/>
			<path class="st155" d="M727.11,930.76c13.36-8.2,25.12-15.39,40.8-14.97c5.82,0.16,11.56,1.56,17.38,1.65
				c15.14,0.25,29.5-8.29,44.61-7.41c16.19,0.94,30.01,11.52,43.42,20.64c13.14,8.94,25.34,15.82,37.64,24.24
				c-21.61,7.34-27.84,8.27-45.84,12.58c-14.12,3.38-27.57,8.26-42.09,8.29c-14.49,0.03-34.4,1.69-48.5-1.63
				C750.72,968.54,740.38,948.5,727.11,930.76z"/>
		</g>
	</g>
	<g>
		<path class="st147" d="M834.87,383.96c59.6,102.67,183.78,163.77,301.49,148.34"/>
		<g>
			<path class="st141" d="M459.74,711.81c-11.52-54.41,28.02-107.66,74.78-137.78s96.59-57.66,140.41-91.91
				c70.35-54.99,105.35-86.07,135.15-144.6c21.99-43.19,3.3-63.21-4.2-111.95c-7.65-49.68-3.46-96.96-109.06-112.02
				c-91.85-13.1-203.27,82.27-234.46,121.84c-48.88,62.02-92.01,144.02-110.46,224.76c-15.98,69.94,3.36,99,5.06,170.72
				c1.69,71.72,71,170.14,115.38,226.51c-18.36-43.88-31.91-89.77-40.33-136.58c12.89,21.34,25.77,42.68,38.66,64.02
				C466.43,758.61,464.03,732.09,459.74,711.81z"/>
			<path class="st141" d="M1205.21,639.22c0,0-91.73-76.37-112.39-80.93c-73.52-16.25-158.66-23.82-209.41-79.44
				c-60.66-66.48-79.59-153.25-131.8-276.07c-11.59-27.27,39.47-66.45,68.55-75.08c96.17-28.52,213.81,51.82,257.42,93.52
				c30.78,29.44,57.52,86.12,74.35,125.25C1222.89,511.45,1205.21,639.22,1205.21,639.22z"/>
			<path class="st146" d="M843.95,349.57c27.44,45.22,60.5,87.99,103.38,118.97s96.56,49.31,154.44,44.24
				c-6.8-17.05-14.66-33.68-23.52-49.76c19.2,14.34,38.4,28.67,57.6,43.01c-4.53-22.32-9.06-44.65-13.6-66.97
				c12.65,13.9,25.3,27.8,39.21,39.62c-17.81-83.89-65.05-158.75-119.23-225.22c-16.58-20.33-34.12-40.29-55.63-55.3
				c-30.62-21.37-67.46-31.52-112.25-40.24c26.86,31.93,53.71,63.85,80.57,95.78c-39.4-9.62-77.92-22.89-114.88-39.59
				c19.99,40.92,46.07,78.85,77.12,112.16c-20.1-14.03-43.37-23.48-67.55-27.44c18.44,24.43,36.89,48.86,55.33,73.29
				C882.43,365.31,859.94,358.52,843.95,349.57z"/>
			<path class="st142" d="M893.34,401.46c36.47,53.35,97.55,89.11,161.06,95.59c-46.86-32.35-89.78-70.39-127.52-113.02
				c5.05,16.35,12.45,31.97,21.91,46.24c-27.86-14.3-54.39-31.18-79.16-50.33C883.02,393.41,896.42,406.88,893.34,401.46z"/>
			<path class="st142" d="M937.81,351.11c28.91,43.14,67.2,79.96,111.44,107.15c-12.02-18.21-24.04-36.43-36.07-54.64
				c8.97,4.06,17.94,8.13,26.92,12.19c-22.6-36.21-45.2-72.43-67.81-108.64c-7.07-11.32-15.85-23.79-29.1-25.44
				c-6.09-0.76-13.11,1.68-15.52,7.32c-2.44,5.72,0.55,12.2,3.77,17.52c6.51,10.74,14.24,20.73,23,29.73
				c4.85,4.98,8.77,15.32,1.99,16.83c-2.67,0.6-5.26-1.14-7.45-2.78c-15.19-11.38-30.38-22.75-45.56-34.13
				C919.76,333.93,936.1,351.63,937.81,351.11z"/>
			<path class="st142" d="M969.55,260.62c35.03,51.96,78.04,98.06,122.82,141.9c-12.82-15.95-18.03-37.75-13.81-57.77
				c8.42,6.39,18.53,10.55,29.01,11.93c-21.05-29.77-42.1-59.53-63.14-89.3c-15.13-21.4-31.4-43.76-55.34-54.43
				c8.34,23.87,17.94,47.31,28.72,70.19C993.83,282.15,978.67,246.03,969.55,260.62z"/>
			<path class="st156" d="M648.16,124c-70.75,1.58-137.52,39.29-184.87,91.88s-77.04,118.92-97.15,186.77
				c-14.43,48.67-24.35,99.75-17.99,150.12c10.39,82.31,63.11,155.31,69.89,237.99"/>
			<path class="st146" d="M739.7,164.25c-39.72-28.2-93.99-30.21-139.9-13.95s-84.47,48.7-117.12,84.85
				c-71.11,78.73-118.77,178.39-135.43,283.16c18.8-25.68,42.49-47.76,69.43-64.71c-24.87,30.5-45.64,64.34-61.56,100.33
				c32.35-14.57,64.71-29.13,97.06-43.7c-23.58,22.26-45.11,46.7-64.22,72.89c81.12-23.41,160.95-54.98,229.27-104.59
				s124.71-118.68,147.88-199.87c-28.89,33.64-62.5,63.23-99.53,87.63c33.35-48.48,72.25-93.12,115.71-132.79
				c-51.51,10.54-102.04,25.89-150.71,45.78c29.35-43.6,83.98-68.75,136.19-62.71c-37.7-20.81-78.29-36.36-120.24-46.08
				c35.63,2.75,71.27,5.5,106.9,8.26C749.87,169.89,741.5,163.13,739.7,164.25z"/>
			<path class="st147" d="M778.8,225.15c-81.13-13.7-165.93,16.82-228.46,70.3S445.86,423.33,419.62,501.32"/>
			<path class="st147" d="M448.35,542.24c80.51-42.75,157.27-92.56,229.11-148.67c31.43-24.54,63.31-52.28,75.97-90.09"/>
			<path class="st140" d="M580.55,244.4c-45.8,41.94-88.38,87.39-127.26,135.82c-6.05-23.31,11.77-51.39-2.87-70.51
				c6.87-5.66,14.89-9.74,22.83-13.76C507.35,278.66,541.44,261.38,580.55,244.4z"/>
			<path class="st140" d="M594.09,352.56C505.7,403.41,438.18,489.37,409.7,587.28c-10.65-4.89-22-10.4-27.72-20.64
				c-7.62-13.62-2.7-30.6,2.91-45.17c16.06-41.72,37.02-82.21,67.44-114.96c30.42-32.75,71.13-57.34,115.55-62.34
				c6.77-0.76,13.98-0.99,19.98,2.24C585.92,349.44,583.98,352.47,594.09,352.56z"/>
			<path class="st140" d="M611.6,517.41c-104.2,38.63-191.32,121.17-235.51,223.14c-0.58-14.58,3.86-28.86,8.68-42.64
				c18.19-52.01,43.35-103.07,83.54-140.77C508.5,519.44,565.92,496.93,611.6,517.41z"/>
			<path class="st147" d="M753.93,277.98c-75.22,33.91-152.23,69.05-210.46,127.5c-42.61,42.77-72.98,95.93-102.84,148.4"/>
			<path class="st147" d="M771.7,184.83c-48.33-30.74-110.44-38.79-165.01-21.39c-50.51,16.11-92.72,52.27-125,94.33
				s-55.65,90.13-78.8,137.82"/>
			<path class="st156" d="M1138.77,549.26c-76.48,20.46-161.9,15.63-229.83-25.05c-67.92-40.67-124.2-160.77-82.1-253.82
				c-22.46,205.25-237.55,312.93-415.81,331.39"/>
			<path class="st156" d="M864.83,123.19c100.64-9.3,199.88,47.53,259.63,129.05c59.75,81.52,84.39,184.24,89.68,285.17
				c3.16,60.37-26.82,133.88-9.21,191.71"/>
			<path class="st147" d="M806.47,314.85c75.75,100.74,186.91,174.28,309.25,204.59"/>
			<path class="st147" d="M819.8,253.27c116.39,72.42,225.11,157.17,323.76,252.36"/>
			<path class="st147" d="M837.74,197.09c136.62,52.71,254.1,153.6,326.85,280.69"/>
			<path class="st147" d="M834.8,149.89c86.7,0.77,168.1,48.24,226.38,112.43c58.28,64.2,96.32,144,128.75,224.41"/>
			<path class="st142" d="M639.36,335.95c13.31-7.67,27.61-13.61,42.43-17.63c-11.43,12.21-22.86,24.41-34.3,36.62
				c20.86-6.85,42.78-10.44,64.73-10.6c-11.95,11.95-23.89,23.9-35.84,35.86c7.89-0.5,15.78-1,23.67-1.5
				c-17.11,11.73-35.08,22.19-53.74,31.25c-8.43,4.1-18.44,7.92-26.83,3.76c10.11-19.27,24.12-36.48,40.94-50.29
				c-7.89-2.54-15.77-5.09-23.66-7.63c-3.78-1.22-7.79-2.59-10.26-5.71c-3.98-5.03-2.18-12.84,2.23-17.5
				C633.15,327.91,639.45,325.64,639.36,335.95z"/>
			<path class="st142" d="M627.02,245.45c24.32-8.35,50.16-12.26,75.87-11.48c-18.91,6.94-36.57,17.25-51.91,30.3
				c19.33,0.25,38.64,1.35,57.87,3.29c-33.02,13.06-66.89,23.98-101.33,32.65c-2.73,0.69-6.04,1.22-8.02-0.79
				c-2.31-2.34-1.09-6.26,0.44-9.17c6.24-11.82,15.57-22,26.8-29.25c-12.61-2.86-25.21-5.73-37.82-8.59
				C611.44,229.3,645.71,218.25,627.02,245.45z"/>
			<path class="st142" d="M635.62,149.72c21.11,0.21,42.21,0.41,63.32,0.62c-20.62,10.34-43.19,16.8-66.16,18.92
				c21.05,4.93,42.11,9.86,63.16,14.79c-12.52,15.14-36.25,10.62-55.49,14.64c-9.3,1.94-18.2,6.19-27.7,6.44
				s-20.32-5.53-20.97-15.02c-0.46-6.72,4.49-12.86,10.5-15.9s12.91-3.62,19.62-4.15c-13.15-3.17-26.3-6.33-39.45-9.5
				C601.77,149.23,623.79,142.55,635.62,149.72z"/>
			<path class="st140" d="M648.7,135c43.52-18.23,97.35-8.46,130.91,28.28c43.93-21.59,100.03-15.65,138.01,15.23
				c-36.66-9.97-76.57-7.58-111.78,6.69c29.75,3.47,58.67,13.86,83.83,30.12c-20.05-5.37-40.86-7.93-61.62-7.57
				c21.18,18.78,39.14,41.16,52.89,65.9c-20.47-17.11-43.53-31.12-67.89-41.49c18.58,27.75,35.76,56.44,51.46,85.91
				c-16.6-10.59-33.21-21.18-49.81-31.77c21.64,65.27,65.88,122.81,123.39,160.5c-57.34-33.05-101.92-83.87-146.45-134.43
				c-27.27,56.01-70.53,104.12-123.33,137.17c39.13-46.98,68.3-102.22,85.03-161.03c-8.3,14.59-22.65,25.62-38.88,29.88
				c12.95-23.02,25.89-46.04,38.84-69.06c-16.46,8.78-34.8,14.03-53.42,15.27c16.25-14.37,34.13-35.18,25.39-55.04
				c-5.85-13.29-22.18-19.33-36.62-17.74s-27.44,9.11-39.96,16.47c22.35-21.6,53.86-33.38,84.9-31.75
				c-34.46-22.72-79.86-27.92-118.56-13.57C631.42,143.79,656.83,132.67,648.7,135z"/>
		</g>
	</g>
	<g>
		<path class="st2" d="M626.59,518.42c-0.81,1.66-1.8,3.2-2.94,4.63c-1.14,1.45-2.44,2.78-3.85,3.99c-1.06,0.92-2.19,1.78-3.37,2.55
			c-0.76,0.51-1.54,0.99-2.35,1.45c-0.47,0.26-0.93,0.51-1.41,0.76s-0.96,0.48-1.45,0.7c-0.68,0.32-1.37,0.62-2.07,0.89
			c-0.29,0.12-0.58,0.23-0.87,0.34c-0.58,0.22-1.17,0.43-1.77,0.62c-0.18,0.07-0.38,0.13-0.56,0.18c-8.56,2.68-17.65,3.01-26.6,3.31
			c-11.04,0.38-22.07,0.75-33.11,1.12c-0.85,0.03-1.71,0.06-2.56,0.12c-0.33,0.02-0.66,0.04-0.99,0.07c-0.04,0-0.08,0-0.12,0.01
			c-0.2,0.02-0.41,0.04-0.61,0.06c-0.2,0.01-0.41,0.04-0.61,0.07c-0.21,0.02-0.43,0.05-0.63,0.08c-0.28,0.04-0.57,0.09-0.85,0.14
			c-0.1,0.02-0.2,0.04-0.31,0.07c-0.31,0.06-0.62,0.13-0.92,0.2c-0.2,0.05-0.41,0.11-0.61,0.16c-0.16,0.04-0.29,0.09-0.44,0.14
			c-0.15,0.05-0.29,0.1-0.44,0.15c-0.12,0.04-0.23,0.08-0.34,0.12c-0.19,0.08-0.39,0.16-0.58,0.24c-2.62,1.14-4.79,3.06-7,4.87
			c-0.6,0.49-1.2,0.98-1.8,1.47c-0.6,0.49-1.21,0.96-1.83,1.43c-0.37,0.29-0.75,0.57-1.12,0.85c-0.61,0.46-1.22,0.91-1.83,1.35
			c-0.52,0.38-1.05,0.75-1.58,1.12c-0.64,0.45-1.28,0.88-1.92,1.32c-0.56,0.39-1.14,0.76-1.71,1.14c-0.81,0.52-1.63,1.05-2.46,1.55
			c-0.59,0.37-1.19,0.74-1.79,1.09c-0.03,0.02-0.06,0.04-0.1,0.06c-0.33,0.19-0.67,0.4-1.01,0.59c-0.04,0.03-0.08,0.05-0.13,0.08
			c-1.35,0.79-2.72,1.54-4.1,2.27c-0.69,0.37-1.39,0.73-2.09,1.08c-0.7,0.36-1.4,0.7-2.11,1.04c-0.71,0.35-1.42,0.69-2.13,1.02
			c-0.4,0.18-0.79,0.37-1.18,0.54c-0.13,0.06-0.25,0.12-0.38,0.16c-0.34,0.16-0.68,0.3-1.03,0.46c-0.43,0.18-0.85,0.37-1.28,0.54
			c-0.34,0.15-0.68,0.29-1.02,0.43c-0.42,0.17-0.83,0.34-1.25,0.5c-1.44,0.57-2.89,1.13-4.35,1.64c-0.82,0.3-1.66,0.58-2.49,0.86
			c-1.68,0.56-3.39,1.09-5.05,1.72c-0.23,0.09-0.47,0.18-0.71,0.27c-0.01,0-0.02,0-0.03,0.01c-0.15,0.06-0.29,0.12-0.43,0.17
			c-0.37,0.16-0.73,0.31-1.1,0.48c-0.09,0.04-0.17,0.08-0.25,0.12c-0.2,0.1-0.41,0.19-0.61,0.3c-0.12,0.05-0.23,0.11-0.34,0.17
			c-0.16,0.09-0.32,0.16-0.48,0.25c-0.16,0.08-0.31,0.16-0.47,0.26c-0.2,0.12-0.42,0.24-0.61,0.38c-0.21,0.13-0.41,0.26-0.61,0.4
			c-4.26,2.96-6.96,7.62-9.63,12.06c-0.61,1.02-1.24,2.04-1.87,3.06c-0.46,0.74-0.91,1.47-1.38,2.2c-1.2,1.93-2.44,3.85-3.7,5.76
			c-0.26,0.42-0.53,0.82-0.82,1.23c-0.64,0.97-1.29,1.94-1.95,2.9c-0.37,0.54-0.74,1.09-1.12,1.63c-0.45,0.65-0.89,1.3-1.36,1.95
			c-0.46,0.65-0.91,1.3-1.37,1.95c-0.46,0.65-0.92,1.3-1.4,1.94c-0.46,0.64-0.92,1.28-1.4,1.92c-1.35,1.85-2.73,3.7-4.13,5.52
			c-0.53,0.71-1.08,1.42-1.63,2.12c-0.44,0.57-0.87,1.14-1.34,1.71c-0.45,0.57-0.89,1.14-1.35,1.71c-0.65,0.82-1.31,1.64-1.98,2.45
			c-0.28,0.36-0.57,0.71-0.87,1.07c-0.13,0.16-0.25,0.32-0.39,0.48c-0.4,0.49-0.81,0.99-1.23,1.48c0,0.01-0.01,0.02-0.03,0.03
			c-0.03,0.06-0.08,0.12-0.15,0.17c0.01,0.01,0,0.01-0.02,0.02c-0.52,0.63-1.05,1.26-1.58,1.88c-0.69,0.82-1.4,1.64-2.11,2.45
			c-0.95,1.1-1.9,2.18-2.86,3.26c-0.73,0.82-1.46,1.62-2.18,2.43c-0.28,0.32-0.58,0.65-0.88,0.97c-0.93,1.01-1.86,2.02-2.8,3.02
			c-0.11,0.14-0.23,0.26-0.37,0.4c-0.46,0.49-0.91,0.97-1.38,1.46c-0.9,0.96-1.82,1.91-2.75,2.85c-3.26,3.34-6.68,6.76-8.21,11.17
			c-1.39,4.04-1.01,8.42-1.2,12.69c-0.02,0.38-0.04,0.77-0.07,1.14c-0.01,0.07-0.01,0.15-0.02,0.21c-0.03,0.49-0.08,0.97-0.14,1.46
			c-0.03,0.34-0.07,0.68-0.12,1.02c-0.05,0.46-0.12,0.91-0.19,1.37c-0.02,0.1-0.03,0.19-0.05,0.29c-0.04,0.21-0.07,0.42-0.11,0.63
			c-0.1,0.58-0.2,1.16-0.32,1.74c-0.08,0.37-0.16,0.74-0.24,1.11c-0.04,0.2-0.1,0.42-0.15,0.63c-0.11,0.46-0.22,0.91-0.34,1.36
			c-0.4,1.51-0.85,3.02-1.36,4.51c-0.17,0.52-0.36,1.04-0.54,1.55c-0.15,0.4-0.29,0.79-0.45,1.18c-0.05,0.16-0.11,0.31-0.17,0.47
			c-0.2,0.52-0.41,1.06-0.62,1.57c-0.15,0.36-0.29,0.73-0.45,1.09c-0.38,0.91-0.77,1.81-1.17,2.73c-0.2,0.45-0.41,0.9-0.61,1.35
			c-0.2,0.45-0.42,0.9-0.63,1.36c0,0.01-0.01,0.02-0.02,0.03c-0.01,0.02-0.02,0.05-0.03,0.07c-0.01,0.02-0.02,0.05-0.03,0.07
			c-0.35,0.74-0.71,1.48-1.07,2.23c-0.26,0.52-0.51,1.04-0.77,1.56c-0.26,0.51-0.52,1.04-0.78,1.55c-0.62,1.21-1.23,2.44-1.85,3.66
			c-0.08,0.16-0.16,0.33-0.25,0.49c-0.09,0.18-0.17,0.36-0.26,0.53c-0.26,0.51-0.52,1.03-0.79,1.53c-0.17,0.34-0.34,0.67-0.5,1.01
			c-0.01,0.01-0.02,0.02-0.02,0.03c-0.17,0.35-0.35,0.69-0.52,1.04c-0.25,0.49-0.49,0.99-0.74,1.48c-0.1,0.18-0.18,0.37-0.27,0.54
			c-0.34,0.67-0.67,1.35-0.99,2.02c-0.02,0.04-0.04,0.08-0.06,0.12c-0.17,0.35-0.34,0.7-0.49,1.05c-0.17,0.35-0.34,0.7-0.49,1.05
			c-0.49,1.05-0.97,2.1-1.43,3.15c-0.12,0.26-0.23,0.52-0.34,0.79c-0.42,0.96-0.82,1.93-1.19,2.91c-0.35,0.87-0.68,1.76-0.99,2.63
			c-0.01,0.02-0.02,0.05-0.03,0.07c-0.12,0.32-0.22,0.64-0.33,0.96l-0.32,0.96c-0.11,0.32-0.21,0.64-0.31,0.97
			c-0.03,0.06-0.05,0.13-0.06,0.18c-0.02,0.06-0.04,0.12-0.06,0.17c-0.07,0.22-0.14,0.45-0.2,0.68c-0.14,0.45-0.26,0.89-0.38,1.35
			c-0.13,0.45-0.24,0.9-0.36,1.35c-0.12,0.46-0.22,0.9-0.32,1.36c-0.11,0.46-0.2,0.91-0.29,1.37c-0.1,0.46-0.18,0.92-0.26,1.38
			c-0.08,0.47-0.16,0.92-0.22,1.39c-0.04,0.24-0.08,0.48-0.11,0.72c-0.48,3.61-0.57,7.26-0.51,10.86c0.21,11.6,2.09,22.7-1.89,30.41
			c-0.07,26.67-1.71,53.33-4.91,79.81v0.01c-0.04,0.39-0.09,0.77-0.14,1.15c-0.06,0.53-0.13,1.06-0.19,1.59
			c-1.25,9.98-2.76,20.08-6.9,29.24c-3.29,7.29-8.12,13.71-12.83,20.19c-1.42,1.95-2.82,3.9-4.17,5.89
			c-6.83,10.03-12.27,20.9-17.73,31.77c-5.21,10.4-10.44,20.79-16.89,30.44c-12.27,18.37-28.64,33.58-42.57,50.73
			c-10.43,12.85-19.46,26.75-28.48,40.62c-11.64,17.91-23.28,35.82-33.93,53.18c-7.38,13.47-14.57,27.04-21.57,40.72H8.91L0,1160.02
			v-99.92c5.98-6.45,11.95-12.9,17.93-19.36c32.28-34.85,64.57-69.7,96.86-104.56c6.31-6.81,12.62-13.62,18.93-20.43
			c7.35-7.94,14.84-15.98,23.11-22.98c5.3-4.48,10.91-8.54,17-11.87c1.85-1.02,3.75-1.96,5.71-2.83c0.43-1.32,0.85-2.64,1.27-3.97
			c0.99-3.03,1.95-6.06,2.9-9.1c0.02-0.04,0.04-0.09,0.05-0.13c0.96-3.05,1.91-6.09,2.85-9.15c0.95-3.07,1.89-6.13,2.82-9.21
			c0.82-2.69,1.63-5.38,2.43-8.07c1.04-3.46,2.06-6.94,3.07-10.4c0.9-3.09,1.79-6.18,2.67-9.27c1.09-3.78,2.14-7.57,3.19-11.34
			c0.67-2.41,1.33-4.81,1.99-7.22c1.36-4.96,2.69-9.92,3.99-14.87c0.68-2.58,1.36-5.15,2.02-7.73c0.51-1.97,1.02-3.95,1.52-5.93
			c0.12-0.45,0.23-0.9,0.34-1.36c0.29-1.14,0.58-2.28,0.86-3.42c0.52-2.07,1.05-4.13,1.55-6.2c0.7-2.78,1.38-5.58,2.06-8.37
			c0.01-0.03,0.02-0.07,0.02-0.1c0.65-2.65,1.28-5.31,1.91-7.97c0.09-0.37,0.17-0.74,0.26-1.1c0.49-2.07,0.98-4.14,1.46-6.21
			c0.89-3.81,1.77-7.63,2.62-11.44c0.55-2.43,1.09-4.85,1.63-7.28c1.25-5.68,2.48-11.36,3.68-17.05c0.59-2.84,1.18-5.69,1.78-8.54
			c0.04-0.21,0.09-0.44,0.14-0.65c0.53-2.63,1.07-5.26,1.59-7.9c0.57-2.85,1.14-5.71,1.69-8.56c0.55-2.85,1.11-5.71,1.64-8.56
			c0.54-2.86,1.08-5.71,1.6-8.58c0.49-2.64,0.97-5.29,1.45-7.93c0.56-3.13,1.12-6.28,1.66-9.41c0.49-2.8,0.97-5.62,1.44-8.43
			c0.43-2.5,0.84-5.01,1.25-7.51c0.06-0.37,0.12-0.73,0.17-1.09c0.47-2.84,0.92-5.69,1.38-8.53c0-0.05,0.01-0.09,0.02-0.14
			c0.45-2.85,0.89-5.71,1.33-8.57c1.91-12.48,3.76-25.18,6.01-37.79c0.14-0.82,0.29-1.65,0.45-2.47c0.24-1.37,0.49-2.75,0.77-4.11
			c0-0.02,0-0.03,0.01-0.05c0.09-0.5,0.19-1.02,0.29-1.52c0.2-1.14,0.43-2.27,0.67-3.41c0.16-0.85,0.34-1.72,0.52-2.57
			c0.2-1.03,0.43-2.06,0.64-3.09c0.45-2.09,0.91-4.15,1.4-6.22c0.02-0.08,0.04-0.16,0.06-0.24c0.1-0.41,0.19-0.82,0.29-1.23
			c0-0.03,0-0.06,0.02-0.09c0.14-0.6,0.28-1.2,0.44-1.79c0.31-1.31,0.64-2.63,0.98-3.94c0.31-1.22,0.63-2.45,0.97-3.66
			c0.21-0.81,0.44-1.62,0.67-2.43c0.29-1.04,0.59-2.06,0.89-3.09c0.54-1.87,1.13-3.75,1.73-5.61c0.22-0.71,0.46-1.42,0.69-2.12
			c1.65-4.96,3.45-9.83,5.47-14.58c0.5-1.18,1.02-2.37,1.54-3.53c0.26-0.59,0.52-1.17,0.8-1.76c0.27-0.58,0.54-1.16,0.81-1.74
			c0.32-0.69,0.65-1.38,1-2.06c0.22-0.47,0.46-0.93,0.7-1.4c0.56-1.14,1.15-2.28,1.78-3.4c0.26-0.49,0.52-0.98,0.79-1.47
			c0.06-0.11,0.12-0.21,0.18-0.32c0.29-0.52,0.59-1.05,0.88-1.57c0.32-0.55,0.64-1.11,0.97-1.66c0.32-0.54,0.65-1.1,0.98-1.64
			c0.42-0.69,0.84-1.37,1.27-2.05c0.39-0.61,0.78-1.22,1.17-1.82c0.96-1.48,1.96-2.95,3-4.39c0.43-0.6,0.85-1.19,1.29-1.78
			c0.36-0.49,0.72-0.96,1.09-1.44c0.16-0.22,0.33-0.45,0.5-0.66c0.45-0.59,0.91-1.17,1.38-1.76c0.5-0.64,1.02-1.26,1.54-1.89
			c5.22-21.78,10.43-43.55,15.65-65.34c7.13-29.79,15.08-61.11,36.36-83.14c7.09-7.34,15.41-13.35,23.07-20.09
			c16.35-14.4,30.05-32.36,46.67-46.1c1.61-1.33,3.25-2.62,4.92-3.87c4.97-3.7,10.22-6.99,15.88-9.67
			c23.12-10.95,50.38-10.4,73.59-21.14c4.27-1.97,8.47-4.35,13.13-4.98c2.25-0.3,4.68-0.08,6.83,0.81c1.15,0.46,2.23,1.11,3.15,1.96
			c0.09,0.09,0.17,0.16,0.26,0.25c0.65,0.64,1.21,1.39,1.67,2.24c0.12,0.2,0.22,0.42,0.32,0.64c0.16-0.07,0.32-0.15,0.49-0.21
			c3.01-1.32,6.02-2.64,9.02-3.95c1.68-0.74,3.36-1.47,5.03-2.21c0.49-0.21,0.99-0.43,1.49-0.64c0.38-0.16,0.76-0.32,1.14-0.48
			c1.37-0.56,2.77-1.09,4.2-1.55c0.31-0.11,0.63-0.2,0.94-0.3c0.25-0.08,0.5-0.16,0.76-0.22c0.34-0.1,0.68-0.18,1.02-0.27
			c0.46-0.12,0.91-0.23,1.37-0.33c1.73-0.36,3.44-0.58,5.13-0.58c0.72,0,1.43,0.05,2.13,0.13c0.35,0.05,0.7,0.1,1.05,0.16
			c0.34,0.07,0.69,0.15,1.03,0.23c0.17,0.04,0.34,0.09,0.51,0.15c0.43,0.14,0.84,0.28,1.25,0.45c0.41,0.17,0.82,0.36,1.21,0.57
			c0.32,0.16,0.64,0.35,0.95,0.55c0.4,0.25,0.79,0.53,1.14,0.81c4.83,3.87,6.52,10.71,7.28,16.97c0.47,3.77,0.73,7.65-0.18,11.33
			c-0.81,3.25-2.48,6.2-4.44,8.94c-0.5,0.72-1.03,1.43-1.57,2.12c-0.45,0.57-0.89,1.14-1.36,1.7c-3.86,4.76-8.17,9.12-12.76,13.19
			c-0.41,0.37-0.82,0.73-1.24,1.09c-0.04,0.04-0.08,0.08-0.13,0.11c-0.03,0.03-0.07,0.07-0.11,0.1c-0.91,0.79-1.83,1.56-2.77,2.33
			c-0.08,0.07-0.16,0.13-0.23,0.19c-0.86,0.7-1.73,1.39-2.6,2.08c-0.49,0.39-0.97,0.77-1.46,1.14c-0.49,0.38-0.98,0.75-1.47,1.12
			c-0.74,0.56-1.48,1.12-2.24,1.67c-0.85,0.63-1.72,1.25-2.58,1.85c-0.49,0.36-0.99,0.71-1.49,1.06c-0.9,0.64-1.81,1.27-2.73,1.89
			c-2.04,1.39-4.08,2.76-6.15,4.1c-1.08,0.71-2.15,1.41-3.25,2.1c-0.52,0.33-1.05,0.66-1.57,0.98c-0.26,0.16-0.52,0.33-0.79,0.49
			c-0.26,0.16-0.52,0.32-0.8,0.48c-2.1,1.25-4.23,2.43-6.42,3.48c-0.59,0.29-1.19,0.56-1.79,0.82c-0.27,0.13-0.55,0.24-0.83,0.36
			c-0.27,0.13-0.55,0.23-0.83,0.35c-11.86,4.76-25.71,5.36-35.63,13.42c-0.43,0.34-0.83,0.7-1.24,1.07
			c-0.04,0.03-0.08,0.07-0.13,0.12c-0.28,0.24-0.54,0.49-0.81,0.77c-0.26,0.24-0.51,0.49-0.76,0.76c-0.31,0.32-0.62,0.64-0.92,0.98
			c-0.06,0.06-0.12,0.12-0.16,0.18l-0.01,0.01c-0.24,0.26-0.48,0.52-0.7,0.8c-0.19,0.23-0.4,0.48-0.59,0.71
			c-1.38,1.65-2.66,3.38-3.92,5.1c-0.98,1.34-1.95,2.69-2.92,4.03c-4.78,6.62-9.55,13.23-15.01,19.33c0.06-0.03,0.13-0.06,0.18-0.09
			c0.05-0.03,0.1-0.05,0.15-0.07c0.08-0.05,0.16-0.08,0.23-0.11c0.01,0,0.02-0.01,0.03-0.01c0.12-0.07,0.24-0.13,0.37-0.17
			c0-0.01,0.01-0.01,0.02-0.01c1.06-0.49,2.13-0.94,3.21-1.35c0.23-0.1,0.47-0.18,0.7-0.26c0.72-0.26,1.43-0.5,2.15-0.74
			c1.16-0.38,2.34-0.72,3.52-1.02c0.01-0.01,0.03-0.01,0.05-0.01c1.83-0.49,3.7-0.87,5.57-1.19c0.02-0.01,0.04-0.01,0.06-0.01
			c0.8-0.15,1.6-0.26,2.41-0.38c11.91-1.7,24.46-0.92,36.86-0.92c1.39,0,2.77-0.01,4.15-0.04c9.01-0.16,17.9-0.93,26.34-3.58
			c1.14-0.35,2.26-0.74,3.38-1.16c5.76-2.18,11.14-5.31,16.8-7.73c1.32-0.57,2.67-1.1,4.03-1.57c7.19-2.48,15.61-3.12,22.01,0.98
			c1.79,1.14,3.28,2.58,4.47,4.23c1.74,2.38,2.86,5.19,3.41,8.2v0.01c0.76,4.03,0.49,8.38-0.69,12.46c-0.71,2.45-1.74,4.8-3.08,6.92
			c-0.5,0.8-1.03,1.56-1.59,2.3c-0.33,0.46-0.67,0.88-1.03,1.32l-0.01,0.01c-0.71,0.87-1.47,1.72-2.25,2.52
			c-0.8,0.82-1.62,1.6-2.47,2.36c-0.41,0.36-0.82,0.72-1.23,1.06c-0.65,0.54-1.31,1.07-1.98,1.58c-0.01,0.01-0.02,0.02-0.04,0.03
			c-0.42,0.32-0.84,0.63-1.28,0.94c-0.38,0.28-0.77,0.55-1.15,0.81c-0.03,0.03-0.07,0.05-0.1,0.07l-1.08,0.73
			c-2.38,1.58-4.85,3.05-7.34,4.44h-0.01c-0.29,0.16-0.58,0.32-0.87,0.49c-0.5,0.27-1.01,0.55-1.5,0.81
			c-0.6,0.32-1.2,0.64-1.79,0.96c-0.27,0.15-0.53,0.29-0.81,0.44h-0.01c-0.43,0.23-0.85,0.46-1.28,0.68
			c-13.45,7.09-27.07,14.25-41.86,17.81c-0.17,0.04-0.34,0.08-0.51,0.12c-0.58,0.14-1.17,0.27-1.76,0.41
			c-1.12,0.24-2.24,0.47-3.37,0.69c-0.91,0.17-1.82,0.35-2.74,0.51c-2.11,0.39-4.21,0.75-6.28,1.14c-1.18,0.22-2.36,0.45-3.51,0.69
			c-0.49,0.1-0.99,0.2-1.48,0.32c-0.54,0.12-1.09,0.24-1.62,0.37c-0.14,0.03-0.27,0.07-0.41,0.1c-0.38,0.1-0.76,0.18-1.14,0.29
			c-0.5,0.13-1.01,0.26-1.5,0.41c-0.34,0.1-0.66,0.19-0.99,0.29h-0.01c-1.26,0.39-2.49,0.82-3.67,1.3l-0.49,0.2
			c-0.23,0.09-0.46,0.18-0.68,0.29c-0.08,0.03-0.16,0.06-0.22,0.1c-0.22,0.1-0.45,0.2-0.67,0.31c-0.19,0.1-0.4,0.19-0.59,0.29
			c-1.04,0.82-2.06,1.65-3.07,2.51c-0.4,0.33-0.79,0.67-1.18,1.01c-0.9,0.78-1.8,1.57-2.69,2.39h-0.01
			c-0.72,0.66-1.43,1.32-2.13,1.99s-1.41,1.35-2.11,2.03c-0.83,0.81-1.65,1.63-2.46,2.46c-0.31,0.31-0.62,0.62-0.92,0.94
			c-1.91,1.96-3.79,3.95-5.64,5.97c-0.73,0.79-1.46,1.58-2.17,2.38c-1.66,1.81-3.3,3.64-4.93,5.46c-0.07,0.08-0.14,0.15-0.2,0.22
			c-0.75,0.83-1.49,1.67-2.24,2.49c-1.44,1.6-2.87,3.2-4.29,4.79c-3.76,4.19-7.48,8.35-11.1,12.41c-1.41,1.57-2.79,3.13-4.15,4.68
			c-1.4,1.57-2.77,3.13-4.12,4.67c-0.68,0.77-1.36,1.53-2.02,2.28c-1.99,2.27-3.92,4.48-5.78,6.63c-0.38,0.58-0.75,1.15-1.11,1.75
			c-0.1,0.16-0.19,0.32-0.29,0.49c-0.1,0.16-0.19,0.32-0.29,0.49c-0.27,0.47-0.54,0.92-0.81,1.4c-0.19,0.34-0.39,0.69-0.57,1.04
			c-0.37,0.67-0.72,1.33-1.06,2.01c-0.16,0.29-0.3,0.59-0.45,0.89c-0.25,0.52-0.5,1.04-0.75,1.56c-0.35,0.74-0.68,1.48-1,2.23
			c-0.02,0.04-0.03,0.07-0.04,0.1c-0.23,0.53-0.46,1.07-0.67,1.6c-0.04,0.07-0.07,0.15-0.09,0.22c-0.16,0.39-0.32,0.78-0.47,1.17
			c-0.6,1.51-1.15,3.04-1.67,4.58c-0.18,0.54-0.36,1.08-0.53,1.62c-0.07,0.19-0.13,0.4-0.18,0.59c-0.22,0.68-0.43,1.38-0.63,2.07
			c-0.21,0.7-0.41,1.39-0.6,2.09c-0.2,0.75-0.41,1.5-0.6,2.26c-0.15,0.54-0.28,1.09-0.42,1.63c-0.13,0.49-0.24,0.98-0.36,1.47
			c-0.16,0.6-0.29,1.2-0.43,1.8c-0.16,0.7-0.32,1.4-0.47,2.1c-0.2,0.92-0.4,1.84-0.59,2.77c-0.14,0.66-0.27,1.33-0.4,1.99
			c-0.16,0.82-0.32,1.64-0.48,2.45c-0.18,0.97-0.37,1.94-0.54,2.9c-0.16,0.82-0.3,1.64-0.45,2.45c-0.73,4.09-1.43,8.19-2.16,12.24
			c-0.15,0.82-0.29,1.62-0.45,2.44c-0.15,0.81-0.3,1.61-0.46,2.42c-0.14,0.73-0.28,1.45-0.43,2.16c-0.17,0.88-0.36,1.77-0.55,2.65
			c-0.16,0.8-0.34,1.59-0.51,2.39c-0.18,0.8-0.37,1.58-0.55,2.37c-0.18,0.79-0.38,1.57-0.58,2.36c-0.4,1.55-0.82,3.1-1.27,4.64
			c-0.16,0.56-0.33,1.13-0.5,1.68c-0.07,0.23-0.14,0.47-0.22,0.7c0.01,0.01,0.01,0.01-0.01,0.02c0.01,0.01,0.01,0.01,0,0.02
			l-0.01,0.01c-0.22,0.71-0.46,1.42-0.7,2.12c-0.18,0.57-0.38,1.14-0.58,1.7c-0.79,0.14-0.49,1.51,0.29,1.67h0.01
			c0.33,0.06,0.65-0.01,0.95-0.15c0.42-0.19,0.81-0.52,1.14-0.83c6.03-5.48,12.34-10.57,18.89-15.33c1.93-1.41,3.89-2.79,5.86-4.14
			c0.83-0.57,1.68-1.14,2.52-1.71c1.15-0.79,2.31-1.55,3.48-2.31c0.66-0.43,1.32-0.85,1.99-1.28c1.35-0.86,2.7-1.72,4.07-2.55
			c0.81-0.5,1.62-1,2.43-1.48c3.49-2.12,7.01-4.17,10.59-6.17c0.88-0.5,1.78-1,2.68-1.49c0.83-0.46,1.67-0.92,2.51-1.38
			c1.13-0.61,2.25-1.21,3.38-1.81c0.74-0.4,1.47-0.79,2.21-1.17c1.7-0.89,3.41-1.79,5.12-2.67c0.03-0.01,0.06-0.02,0.09-0.04
			c5.12-2.63,10.28-5.18,15.48-7.68c1.27-0.61,2.55-1.22,3.82-1.83c0.61-0.29,1.22-0.58,1.83-0.87c0.06-0.03,0.12-0.06,0.18-0.09
			c0.65-0.32,1.3-0.62,1.95-0.93c2.35-1.12,4.71-2.22,7.05-3.32c2.36-1.11,4.71-2.2,7.05-3.3c0.54-0.25,1.08-0.5,1.62-0.76
			c0.07-0.03,0.14-0.06,0.2-0.1c0.69-0.32,1.38-0.64,2.08-0.96c4.7-2.16,9.46-4.23,14.45-5.49c0.82-0.21,1.62-0.4,2.45-0.55
			c9.32-1.81,18.93-0.43,28.38,0.53c5.17,0.52,10.36,0.91,15.55,1.18c7.67,0.39,15.37,0.49,23.04,0.3c1.2-0.03,2.4-0.06,3.59-0.11
			c8.35-0.29,17.55-0.67,24.06,4.58C629.33,499.51,630.55,510.37,626.59,518.42z"/>
		<path class="st4" d="M510.83,493.44c-0.54,0.98-1.13,1.93-1.76,2.85c-0.59,0.89-1.22,1.77-1.89,2.61
			c-3.62,4.61-8.17,8.52-13.2,11.86c-0.49,0.33-0.99,0.65-1.48,0.97c-0.07,0.04-0.13,0.08-0.19,0.12c-0.7,0.45-1.41,0.87-2.12,1.3
			c-4.36,2.56-8.97,4.75-13.57,6.66c-1.76,0.73-3.52,1.43-5.31,2.12c-0.03,0.01-0.05,0.02-0.08,0.04
			c-13.27,5.11-27.01,9.45-38.4,17.88c-6.32,4.68-11.7,10.47-17.06,16.22c-31.44,33.81-62.88,67.64-94.32,101.45
			c-31.86,34.27,8.98,15.39-39.94,51.27c-2.77,2.03-3.84,5.58-4.76,8.89c-15.95,57.24,13.81,32.83-30.61,108.3
			c-6.48,11.01-12.66,11.99-17.89,22.49c-34.89,70.09-76.94,98.04-114,149.19c-13.9,19.18-27.8,38.29-43.81,55.74
			c-13.01,14.18-26.01,28.35-39.01,42.52c-4.49,4.89-8.97,9.79-13.5,14.67c-5.93,6.41-11.89,12.8-17.93,19.1v-69.57
			c5.98-6.45,11.95-12.9,17.93-19.36c32.28-34.85,64.57-69.7,96.86-104.56c6.64-6.16,13.09-12.54,19.45-18.99
			c7.78-7.88,15.49-15.91,22.59-24.42c5.3-4.48,10.91-8.54,17-11.87c1.85-1.02,3.75-1.96,5.71-2.83c0.43-1.32,0.85-2.64,1.27-3.97
			c0.99-3.03,1.95-6.06,2.9-9.1c0.02-0.04,0.04-0.09,0.05-0.13c0.96-3.05,1.91-6.09,2.85-9.15c0.95-3.07,1.89-6.13,2.82-9.21
			c0.82-2.69,1.63-5.38,2.43-8.07c1.04-3.46,2.06-6.94,3.07-10.4c0.9-3.09,1.79-6.18,2.67-9.27c1.09-3.78,2.14-7.57,3.19-11.34
			c0.67-2.41,1.33-4.81,1.99-7.22c8.09-21.38,16.16-42.79,22.84-66.1c1.99-1.63,3.97-3.28,5.92-4.95
			c5.92-5.07,11.66-10.36,17.2-15.85c5.19-5.13,10.22-10.46,15.05-15.93c12.45-14.11,23.68-29.28,33.51-45.32
			c1.85-3.02,3.71-6.12,6.42-8.38c3.47-2.9,8-4.13,11.92-6.38c0.99-0.57,1.93-1.19,2.83-1.87c0.01-0.02,0.02-0.03,0.04-0.03
			c2.16-1.63,4.09-3.53,5.92-5.57c0,0,0-0.01,0.01-0.01c3.59-3.99,6.78-8.48,10.51-12.34c6.78-7.03,15.37-12.02,23.46-17.56
			c5.06-3.46,9.94-7.15,14.04-11.68c3.59-3.97,6.51-8.5,9.49-12.97c0.01,0,0.01-0.02,0.01-0.02c2.12-3.17,4.26-6.31,6.69-9.22
			c0.01,0,0.01-0.01,0.01-0.01c0.57-0.69,1.17-1.37,1.79-2.03c3.42-3.67,7.36-6.71,11.5-9.55c-0.18,0.57-0.38,1.14-0.58,1.7
			c-0.79,0.14-0.49,1.51,0.29,1.67h0.01c0.33,0.06,0.65-0.01,0.95-0.15c0.42-0.19,0.81-0.52,1.14-0.83
			c6.03-5.48,12.34-10.57,18.89-15.33c1.93-1.41,3.89-2.79,5.86-4.14c0.83-0.57,1.68-1.14,2.52-1.71c1.15-0.79,2.31-1.55,3.48-2.31
			c0.66-0.43,1.32-0.85,1.99-1.28c1.35-0.86,2.7-1.72,4.07-2.55c0.81-0.5,1.62-1,2.43-1.48c3.49-2.12,7.01-4.17,10.59-6.17
			c0.88-0.5,1.78-1,2.68-1.49c0.83-0.46,1.67-0.92,2.51-1.38c1.13-0.61,2.25-1.21,3.38-1.81c0.74-0.4,1.47-0.79,2.21-1.17
			c1.7-0.89,3.41-1.79,5.12-2.67c0.03-0.01,0.06-0.02,0.09-0.04c5.12-2.63,10.28-5.18,15.48-7.68c1.27-0.61,2.55-1.22,3.82-1.83
			c0.61-0.29,1.22-0.58,1.83-0.87c0.06-0.03,0.12-0.06,0.18-0.09c0.65-0.32,1.3-0.62,1.95-0.93c2.35-1.12,4.71-2.22,7.05-3.32
			c2.36-1.11,4.71-2.2,7.05-3.3c0.54-0.25,1.08-0.5,1.62-0.76c0.07-0.03,0.14-0.06,0.2-0.1
			C509.45,494.08,510.14,493.76,510.83,493.44z"/>
		<path class="st3" d="M378.34,350.44c21.67-25.28,43.38-50.59,66.9-74.15c4.65-4.66,9.46-9.31,15.33-12.29
			c7.23-3.67,15.52-4.51,23.6-5.29c13.2-1.28,26.39-2.55,39.59-3.83c2.66-0.26,6.51,0.65,6.05,3.29c-0.16,0.89-0.84,1.59-1.53,2.16
			c-7.33,6.03-18,4.24-27.49,4.54c-25.93,0.83-47.71,19.37-64.93,38.77c-17.22,19.4-33.04,41.32-56.13,53.15
			C377.5,354.8,377.65,351.25,378.34,350.44z"/>
		<path class="st3" d="M530.43,221.87c-0.42,1.86-1.19,3.57-2.59,4.86c-1.21,1.12-2.76,1.79-4.26,2.44
			c-3.76,1.63-7.53,3.25-11.29,4.88c5.86-4.08,10.22-10.24,12.25-17.07c2.29,0.91,4.27,2.57,5.4,5.09
			C530.11,222.01,530.27,221.93,530.43,221.87z"/>
		<path class="st3" d="M492.67,355.87c22.48-1.04,45.44-2.17,66.38-10.42c4.44-1.75,8.75-3.8,13.08-5.79
			c1.37-0.63,2.95-1.25,4.32-0.64c2.39,1.07,1.92,4.62,0.74,6.96c-4.04,7.98-11.7,13.65-19.96,17.07
			c-8.26,3.42-17.19,4.85-26.02,6.24c-14.09,2.23-28.76,4.42-42.39,0.21c-2.06-0.63-4.24-1.56-5.22-3.48
			c-1.4-2.75,0.54-6.26,3.3-7.65C489.66,356.99,492.91,357.14,492.67,355.87z"/>
		<path class="st3" d="M542.03,499.3c18.39,6.43,38.21,11.25,57.23,7.07c5.72-1.26,11.34-3.32,17.2-3.36
			c1.32-0.01,2.78,0.15,3.71,1.08c2.22,2.23-0.48,5.86-3.15,7.53c-11.06,6.92-24.66,8.95-37.66,7.75
			c-12.99-1.19-25.51-5.4-37.64-10.2c-1.85-0.73-3.81-1.58-4.85-3.27c-1.52-2.47-0.38-5.88,1.79-7.82S543.74,495.33,542.03,499.3z"
			/>
		<path class="st4" d="M415.11,251.97c-9.38,12.59-15.61,28-23.99,41.54c-10.32,16.68-24.24,30.84-35.4,46.97
			c-29.59,42.72-38.35,96.56-63.87,141.83c-1.98,3.5-4.75,7.38-8.78,7.42c-2.39,0.03-4.5-1.44-5.86-3.44
			c3.34-5.5,7.07-10.77,11.25-15.78c5.22-21.78,10.43-43.55,15.65-65.34c7.13-29.79,15.08-61.11,36.36-83.14
			c7.09-7.34,15.41-13.35,23.07-20.09c16.35-14.4,30.05-32.36,46.67-46.1C411.8,254.51,413.44,253.22,415.11,251.97z"/>
		<path class="st4" d="M569.82,214.39c-19.74,13.47-42.8,22.04-66.54,24.72c-8.64,0.98-17.4,1.19-25.89,3.1
			c-25.7,5.76-45.34,25.89-63.38,45.08c-13.35,14.19-26.7,28.4-40.05,42.59c-8.84,9.41-17.74,18.88-24.75,29.73
			c-12.01,18.59-17.95,40.31-25.06,61.27c-10.47,30.86-23.78,60.68-37.06,90.45c-5.8,12.99-11.6,25.99-18.31,38.55
			c-7.58,14.2-16.49,28.42-17.97,44.46c-4.67-27.42,5.79-60.86,15.25-79.11c22.31-43.01,40.96-74.32,55.72-120.47
			c4.42-13.83,8.55-27.89,15.79-40.48c8.4-14.64,20.65-26.63,32.74-38.43c12.27-11.98,24.56-23.97,36.83-35.95
			c12.6-12.29,25.58-24.84,41.7-31.88c22.23-9.7,48.24-7.97,70.24-18.2c7.14-3.32,13.64-7.81,20.38-11.89
			c1.68-0.74,3.36-1.47,5.03-2.21c7.74-3.4,17.08-6.7,24.19-2.13C569.07,213.82,569.46,214.1,569.82,214.39z"/>
		<path class="st5" d="M410.19,255.84c-1.95,2.91-4.17,5.69-6.36,8.38c-8.23,10.14-16.48,20.31-25.86,29.4
			c-10.91,10.59-23.25,19.62-34.08,30.27c-10.84,10.66-20.35,23.41-23.64,38.26c-5.06,27.61-12.53,56.91-21.99,85.58
			c-3.7,11.2-7.71,22.33-13.14,32.79c-4.34,8.35-9.54,16.24-13.75,24.65c-9.4,18.75-13.65,39.62-17.36,60.27
			c-1.69,9.43-3.18,19.63,1.1,28.2c14.21-17.89,29.16-35.21,44.77-51.89c-19.7,24.92-27.99,56.46-35.37,86.34
			c-5.16,20.93-10.33,41.85-15.49,62.77c4.74,0.07,9.49,0.14,14.22,0.21c0.21,2.1,0.39,4.2,0.52,6.3
			c2.54,39.7-8.8,80.2-31.72,112.72c-38.44,54.56-48.58,112.35-58.23,70.8c1.85-1.02,3.75-1.96,5.71-2.83
			c0.43-1.32,0.85-2.64,1.27-3.97c0.99-3.03,1.95-6.06,2.9-9.1c0.02-0.04,0.04-0.09,0.05-0.13c0.96-3.05,1.91-6.09,2.85-9.15
			c0.96-3.07,1.9-6.13,2.82-9.21c0.82-2.69,1.63-5.38,2.43-8.07c1.04-3.46,2.06-6.94,3.07-10.4c0.9-3.09,1.79-6.18,2.67-9.27
			c1.09-3.78,2.14-7.57,3.19-11.34c0.67-2.41,1.33-4.81,1.99-7.22c1.36-4.96,2.69-9.92,3.99-14.87c0.68-2.58,1.36-5.15,2.02-7.73
			c0.51-1.97,1.02-3.95,1.52-5.93c0.12-0.45,0.23-0.9,0.34-1.36c0.29-1.14,0.58-2.28,0.86-3.42c0.52-2.07,1.05-4.13,1.55-6.2
			c0.7-2.78,1.38-5.58,2.06-8.37c0.01-0.03,0.02-0.07,0.02-0.1c0.65-2.65,1.28-5.31,1.91-7.97c0.09-0.37,0.17-0.74,0.26-1.1
			c0.49-2.07,0.98-4.14,1.46-6.21c0.89-3.81,1.77-7.63,2.62-11.44c0.55-2.43,1.09-4.85,1.63-7.28c1.25-5.68,2.47-11.36,3.68-17.05
			c0.59-2.84,1.18-5.69,1.78-8.54c0.04-0.21,0.09-0.44,0.14-0.65c0.53-2.63,1.07-5.26,1.59-7.9c0.57-2.85,1.14-5.71,1.69-8.56
			c0.55-2.85,1.11-5.71,1.64-8.56c0.54-2.86,1.08-5.71,1.6-8.58c0.49-2.64,0.97-5.29,1.45-7.93c0.56-3.13,1.12-6.28,1.66-9.41
			c0.49-2.8,0.97-5.62,1.44-8.43c0.43-2.5,0.84-5.01,1.25-7.51c0.06-0.37,0.12-0.73,0.17-1.09c0.47-2.84,0.92-5.69,1.38-8.53
			c0-0.05,0.01-0.09,0.02-0.14c0.45-2.85,0.89-5.71,1.33-8.57c1.91-12.48,3.76-25.18,6.01-37.79c0.14-0.82,0.29-1.65,0.45-2.47
			c0.34-1.89,0.69-3.79,1.07-5.69c0.2-1.14,0.43-2.27,0.67-3.41c0.16-0.85,0.34-1.72,0.52-2.57c0.2-1.03,0.43-2.06,0.64-3.09
			c0.55-2.58,1.14-5.14,1.75-7.69c0-0.03,0-0.06,0.02-0.09c0.14-0.6,0.28-1.2,0.44-1.79c0.31-1.31,0.64-2.63,0.98-3.94
			c0.31-1.22,0.63-2.45,0.97-3.66c0.21-0.81,0.44-1.62,0.67-2.43c0.29-1.03,0.58-2.06,0.89-3.09c0.54-1.87,1.13-3.75,1.73-5.61
			c0.22-0.71,0.46-1.42,0.69-2.12c1.65-4.96,3.45-9.83,5.47-14.58c0.5-1.18,1.02-2.37,1.54-3.53c0.26-0.59,0.52-1.17,0.8-1.76
			c0.27-0.58,0.54-1.16,0.81-1.74c0.32-0.69,0.65-1.38,1-2.06c0.22-0.47,0.46-0.93,0.7-1.4c0.56-1.14,1.15-2.28,1.78-3.4
			c0.26-0.49,0.52-0.98,0.79-1.47c0.06-0.11,0.12-0.21,0.18-0.32c0.29-0.52,0.59-1.05,0.88-1.57c0.32-0.55,0.64-1.11,0.97-1.66
			c0.32-0.54,0.65-1.1,0.98-1.64c0.42-0.69,0.84-1.37,1.27-2.05c0.39-0.61,0.78-1.22,1.17-1.82c0.96-1.48,1.96-2.95,3-4.39
			c0.43-0.6,0.85-1.19,1.29-1.78c0.36-0.49,0.72-0.96,1.09-1.44c0.61-0.81,1.24-1.62,1.88-2.42c0.5-0.64,1.02-1.26,1.54-1.89
			c5.22-21.78,10.43-43.55,15.65-65.34c7.13-29.79,15.08-61.11,36.36-83.14c7.09-7.34,15.41-13.35,23.07-20.09
			C379.87,287.54,393.57,269.58,410.19,255.84z"/>
		<path class="st4" d="M471.14,338.24c-23.01,14.53-44.86,30.91-65.27,48.93c-7.57,6.68-15.15,13.86-19.13,23.13
			c-2.73,6.33-3.62,13.27-5.21,19.98c-2.4,10.07-6.43,19.74-11.9,28.53c-2.77,4.44-6.2,8.89-11.14,10.61
			c-2.73,0.96-5.81,1.04-8.2,2.66c-1.79,1.21-2.95,3.14-4.04,5.03c-12.88,22.37-22.52,46.52-35.89,68.62
			c-6.57,10.86-14.04,21.21-19.54,32.65c-3.82,7.96-6.66,16.35-9.47,24.72c-4.16,12.34-8.32,24.68-12.48,37.02
			c-1.34,3.97-1.47,10.07,2.71,10.56c2.19,0.25,4.06-1.51,5.56-3.13c23.38-25.22,49.78-51.39,83.76-56.66
			c0.7,8.44-7.03,14.88-13.79,20.01c-26.19,19.88-49.29,43.8-68.25,70.64c-13.18,18.67-25.82,39.97-47.1,48.28
			c-8.2-19.6,3.12-41.2,9.49-61.47c4.44-14.18,6.46-29.01,10.55-43.3c13.78-48.17,49.75-86.69,70.4-132.34
			c7.11-15.74,12.41-32.33,20.91-47.36c14.6-25.83,37.8-45.57,61.17-63.84c18.01-14.08,30.13-25.21,48.93-38.21
			C457.01,342.05,464.85,338.53,471.14,338.24z"/>
		<path class="st4" d="M426.35,639.91L426.35,639.91c-1.47,1.59-2.98,3.15-4.49,4.71c-3.26,3.34-6.68,6.76-8.21,11.17
			c-1.39,4.04-1.01,8.42-1.2,12.69c-0.09,1.84-0.28,3.67-0.57,5.47l-0.01,0.02c-0.18,0.15-0.38,0.28-0.57,0.41
			c-4.96,3.14-11.44-0.49-15.56-4.68c-6.19-6.27-10.83-14.05-17.47-24.39C394.08,650.4,412.03,648.33,426.35,639.91z"/>
		<path class="st4" d="M404.71,695.22c-6.43,13.67-14.85,26.9-17.04,41.74c-0.04,0.24-0.08,0.48-0.11,0.72
			c-0.48,3.61-0.57,7.26-0.51,10.86c-1.17,0.62-2.48,0.96-3.79,1.19c-7.31,1.27-15.15-0.94-20.7-5.85
			c-5.56-4.92-8.72-12.42-8.36-19.83c0.07-1.27,0.26-2.63,1.13-3.57c0.81-0.89,2.07-1.23,3.24-1.52c7.52-1.87,15.04-3.75,22.55-5.62
			c3.3-0.81,6.64-1.66,9.62-3.28C396.77,706.79,400.6,700.82,404.71,695.22z"/>
		<path class="st4" d="M360.19,910.94c-1.42,1.95-2.82,3.9-4.17,5.89c-6.83,10.03-12.27,20.9-17.73,31.77
			c-5.21,10.4-10.44,20.79-16.89,30.44c-12.27,18.37-28.64,33.58-42.57,50.73c-10.43,12.85-19.46,26.75-28.48,40.62
			c-11.64,17.91-23.28,35.82-33.93,53.18c-7.38,13.47-14.57,27.04-21.57,40.72h-4.76c33.48-60.63,67.95-121.02,111.77-174.57
			c9.7-11.87,20.15-23.97,24.56-38.51c0.37-1.16,0.8-2.32,0.95-3.54C329.64,929.13,357.26,912.9,360.19,910.94z"/>
		<path class="st5" d="M248.61,586.75c4.62-25.84,9.66-52.68,25.17-73.86c3.77-5.15,8.11-9.88,11.6-15.22
			c4.83-7.39,7.92-15.75,10.96-24.03c14.88-40.49,29.56-81.05,43.63-120.63c17.65-31.37,56.57-47.92,75.12-77.55
			c7.85-12.84,23.47-19.85,35.44-27.94c-24.19,6.37-42.27,29.45-59.77,47.33c-18,18.4-41.21,32.45-53.76,54.92
			c-4.05,7.25-6.82,15.12-9.57,22.95c-10.4,29.6-20.81,59.2-31.21,88.8c-3.06,8.72-6.14,17.46-10.27,25.73
			c-9.18,18.39-23.62,34.65-27.52,54.82L248.61,586.75z"/>
		<path class="st5" d="M398.58,387.92c-9.63,7.88-19.22,15.88-27.64,25.04c-43.61,47.4-51.61,120.35-97.46,165.57
			c17.38-23.48,32.07-52.85,45.3-82.85c13.54-30.68,26.08-62.82,49.19-87.13c11.42-12.01,25.04-21.67,38.58-31.23
			c16.71-11.84,29.79-22.21,46.5-34.03C453.28,343.21,417.89,372.12,398.58,387.92z"/>
		<path class="st5" d="M422.64,541.49c-15.3,16.92-30.91,33.57-47.67,49.04c-24.96,23.03-52.79,43.8-71.63,72.06
			c-16.2,24.3-25.52,53.79-47.22,73.33c-3.8-5.17-7.75-10.77-8.01-17.18c-0.29-7.15,4.06-13.56,8.23-19.39
			c26.91-37.66,55.01-76.44,94.92-99.91c4.58-2.7,9.29-5.18,13.57-8.33c4.32-3.17,8.12-6.98,11.9-10.77
			c8.29-8.31,24.14-22.68,24.93-22.54c0.33,0.06,0.65-0.01,0.95-0.15c0.42-0.19,0.81-0.52,1.14-0.83
			C409.77,551.34,416.09,546.26,422.64,541.49z"/>
		<path class="st5" d="M583.94,362.17c-6.35,6.53-14.8,11.09-22.96,15.4c-13.45,7.09-27.07,14.25-41.86,17.81
			c-11.04,2.67-22.9,3.4-31.64,7.82c-10.09,7.96-18.74,17.57-27.31,27.14c-12,13.37-23.99,26.74-33.91,38.17
			c-2.03,3.1-3.78,6.32-5.32,9.62c-4.65-2.12-9.29-4.26-13.93-6.38c9.29-2.03,16.4-9.3,22.91-16.24
			c14.93-15.89,29.86-31.79,44.79-47.7c4.89-5.2,9.95-10.53,16.46-13.46c5.89-2.66,12.49-3.12,18.9-3.93
			C536.48,387.1,562.04,377.3,583.94,362.17z"/>
		<path class="st5" d="M556.78,268.62c-7.81,6.93-16.45,13-25.2,18.72c-5.2,3.41-10.52,6.73-16.29,9.05
			c-11.86,4.76-25.71,5.36-35.63,13.42c-3.63,2.94-6.48,6.71-9.24,10.49c-0.98,1.34-1.95,2.69-2.92,4.03
			c3.14-8.81,7.33-17.58,15.4-21.93c2.98-1.6,6.28-2.47,9.53-3.41C515.33,292.43,537.14,282.11,556.78,268.62z"/>
		<path class="st5" d="M623.65,523.05l-7.22,6.54c-3.21,2.14-6.8,3.79-10.47,4.94c-8.56,2.68-17.65,3.01-26.6,3.31
			c-11.04,0.38-22.07,0.75-33.11,1.12c-3.41,0.12-6.9,0.25-10.01,1.61c-2.62,1.14-4.79,3.06-7,4.87
			c-12.02,9.95-25.9,17.65-40.7,22.58c-3.68,1.22-7.48,2.32-10.67,4.53c-4.26,2.96-6.96,7.62-9.63,12.06
			c-13.08,21.7-28.67,41.89-46.38,60.01c-3.26,3.34-6.68,6.76-8.21,11.17c-1.39,4.04-1.01,8.42-1.2,12.69
			c-1.14,24.41-21.22,44.34-24.77,68.49c-1.64,1.4-3.41,2.69-5.29,3.86c-5.65-5.18,0.04-14.13,4.52-20.36
			c14.88-20.66,14.54-48.7,26.08-71.39c10.23-20.12,29.08-34.68,40.11-54.36c3.48-6.2,6.2-12.93,10.85-18.3
			c12.23-14.13,33.82-15,49.56-25.07c5.8-3.72,10.8-8.68,16.93-11.82c11.19-5.72,24.44-4.63,37-5.19
			C586.57,533.47,605.23,528.42,623.65,523.05z"/>
		<path class="st5" d="M183.63,894.7c-27.64,16.86-51.82,39.38-70.56,65.79c-5.89,8.31-21.79,31.84-83.14,109.9
			c-4.13,5.26-8.07,10.67-12,16.1c-5.81,8.01-11.59,16.06-17.93,23.64v-50.04c5.98-6.45,11.95-12.9,17.93-19.36
			c32.28-34.85,64.57-69.7,96.86-104.56c6.31-6.81,12.62-13.62,18.93-20.43c7.35-7.94,14.84-15.98,23.11-22.98
			c5.3-4.48,10.91-8.54,17-11.87c1.85-1.02,3.75-1.96,5.71-2.83c0.43-1.32,0.85-2.64,1.27-3.97
			C185.97,875.82,186.55,892.93,183.63,894.7z"/>
	</g>
</g>
</svg>
