<?xml version="1.0" encoding="utf-8"?>
<!-- Generator: Adobe Illustrator 27.0.0, SVG Export Plug-In . SVG Version: 6.00 Build 0)  -->
<svg version="1.1" id="Слой_1" xmlns="http://www.w3.org/2000/svg" xmlns:xlink="http://www.w3.org/1999/xlink" x="0px" y="0px"
	 viewBox="0 0 1500 1716.87" style="enable-background:new 0 0 1500 1716.87;" xml:space="preserve">
<style type="text/css">
	.st0{fill:#9BAFBD;}
	.st1{fill:#728694;}
	.st2{fill:#FDD5C8;}
	.st3{fill:#FEE4DB;}
	.st4{fill:#E0AFA1;}
	.st5{fill:#99685A;}
	.st6{fill:#AECCD1;}
	.st7{fill:#7A9CA1;}
	.st8{fill:#495B5E;}
	.st9{fill:url(#SVGID_1_);}
	.st10{fill:#E09F89;}
	.st11{fill:url(#SVGID_00000053538087311526958710000015669385754817062272_);}
	.st12{fill:#F6DCDD;}
	.st13{fill:#E39D9D;}
	.st14{fill:#FDACAE;}
	.st15{fill:#E2A094;}
	.st16{fill:#FEBEBE;}
	.st17{fill:#F16E2B;}
	.st18{fill:#DF523C;}
	.st19{fill:#E78B7C;}
	.st20{fill:url(#SVGID_00000183245301841307718770000018346978994706006449_);}
	.st21{fill:#E7DBE0;}
	.st22{fill:url(#SVGID_00000150804116206102604640000006200747973678899389_);}
	.st23{fill:url(#SVGID_00000164473029912661821680000002633864746806176649_);}
	.st24{fill:#E75742;}
	.st25{fill:#EEA755;}
	.st26{fill:#EEB3B2;}
	.st27{fill:#FA9DA5;}
	.st28{fill:#FABEB5;}
	.st29{fill:#F25026;}
	.st30{fill:url(#SVGID_00000142874865254010448530000018092460050048721295_);}
	.st31{fill:url(#SVGID_00000158742584257561004240000014024656574161518508_);}
	.st32{fill:url(#SVGID_00000026126731986852867530000011525560712554410376_);}
	.st33{fill:url(#SVGID_00000134248216383180671630000004786771931394715800_);}
	.st34{fill:url(#SVGID_00000111149406105880700180000008044721804210949536_);}
	.st35{fill:url(#SVGID_00000088835979002414899570000006217843874540671922_);}
	.st36{fill:url(#SVGID_00000137127819974277642650000003468111256718263469_);}
	.st37{fill:url(#SVGID_00000125561581308495511640000001918626166904247706_);}
	.st38{fill:url(#SVGID_00000093141187639962947360000011462876201641094826_);}
	.st39{fill:url(#SVGID_00000047763942622140013280000009898716018269148581_);}
	.st40{fill:url(#SVGID_00000122707451214913156920000000943627532123983030_);}
	.st41{fill:url(#SVGID_00000034794808156425348680000015273932117292059569_);}
	.st42{fill:url(#SVGID_00000088109689252315173410000014161839626143243163_);}
	.st43{fill:url(#SVGID_00000072262551207252051320000002580861597348635297_);}
	.st44{fill:url(#SVGID_00000145768247784821904570000012813791713105477039_);}
	.st45{fill:url(#SVGID_00000113329758878444085050000005525933832812472979_);}
	.st46{fill:url(#SVGID_00000021799239525902797270000000123501166765595554_);}
	.st47{fill:url(#SVGID_00000085961087121908622700000010072122244480685482_);}
	.st48{fill:url(#SVGID_00000044898640214435994340000007894406426714795711_);}
	.st49{fill:url(#SVGID_00000096749059246939491390000004566640806427125917_);}
	.st50{fill:url(#SVGID_00000086670212938073338750000014813086495159977394_);}
	.st51{fill:url(#SVGID_00000116943372812003195290000001582670552765148597_);}
	.st52{fill:url(#SVGID_00000048477995054256563200000016003052749270560130_);}
	.st53{fill:url(#SVGID_00000110472984352735027950000014950216581961323433_);}
	.st54{fill:url(#SVGID_00000165225160971037273810000016933793313682277249_);}
	.st55{fill:url(#SVGID_00000026161828784275748440000007055927609173200828_);}
	.st56{fill:url(#SVGID_00000109025045316896008300000014332723930766032563_);}
	.st57{fill:url(#SVGID_00000088835341983214724150000008602516939949441445_);}
	.st58{fill:url(#SVGID_00000070806710674866572860000008071272270865004711_);}
	.st59{fill:url(#SVGID_00000035510269278991152170000011953802970768357248_);}
	.st60{opacity:0.4;fill:url(#SVGID_00000056409698285255606970000003122841671290569903_);}
	.st61{fill:url(#SVGID_00000109710477794205841440000001717013724726043056_);}
	.st62{fill:url(#SVGID_00000084512631788720749880000008483378929695325596_);}
	.st63{fill:url(#SVGID_00000023271352436133419790000010660390932129147804_);}
	.st64{fill:url(#SVGID_00000098192820117534247470000016410269348774453417_);}
	.st65{fill:url(#SVGID_00000078741727908937778320000007158594376101257106_);}
	.st66{fill:url(#SVGID_00000174561024777145345280000010335899123429623991_);}
	.st67{fill:url(#SVGID_00000124139540466617599010000015987702340043577504_);}
	.st68{fill:url(#SVGID_00000072967854268181416180000003956013243274004914_);}
	.st69{fill:#AD0000;}
	.st70{fill:url(#SVGID_00000123419431475355969570000015513598773898166923_);}
	.st71{fill:url(#SVGID_00000036225497942827955200000004109932637463601041_);}
	.st72{fill:url(#SVGID_00000161615266152764572410000007909780115938717375_);}
	.st73{fill:url(#SVGID_00000164474953320133244340000001560544232038827439_);}
	.st74{fill:url(#SVGID_00000179612348677297315430000004422043712576610221_);}
	.st75{fill:#BF9184;}
	.st76{fill:none;stroke:#FDD5C8;stroke-miterlimit:10;}
	.st77{fill:url(#SVGID_00000089537513058976695410000016985866563307844030_);}
	.st78{fill:url(#SVGID_00000117651593760812658030000011035527697868226977_);}
	.st79{fill:url(#SVGID_00000026122067892245565520000012515317522966825130_);}
	.st80{fill:url(#SVGID_00000077303357457260362420000005435463205604815548_);}
	.st81{fill:url(#SVGID_00000034774399164331528630000013842854538091803289_);}
	.st82{fill:url(#SVGID_00000121988855741787035150000002047449208946032025_);}
	.st83{fill:url(#SVGID_00000151514067745253838810000011848547097365118139_);}
	.st84{fill:url(#SVGID_00000096058842607795193930000015818913381131019436_);}
	.st85{fill:url(#SVGID_00000147915022951644762900000007704102780483991708_);}
	.st86{fill:url(#SVGID_00000175290381600850515210000009430817622868106384_);}
	.st87{fill:none;stroke:#E0AFA1;stroke-miterlimit:10;}
	.st88{fill:#59767A;}
	.st89{fill:none;}
	.st90{fill:#314042;}
	.st91{fill:url(#SVGID_00000004522776554064706360000005191763787003289751_);}
	.st92{fill:url(#SVGID_00000124852084744094208890000008588049547783956627_);}
	.st93{fill:url(#SVGID_00000062914222760602008300000014021376633297490823_);}
	.st94{fill:url(#SVGID_00000121989841310072416010000018123894548731214743_);}
	.st95{fill:url(#SVGID_00000086673716015703859380000007903620612609376384_);}
	.st96{fill:none;stroke:#99685A;stroke-miterlimit:10;}
	.st97{fill:#F2CEC4;}
	.st98{fill:#E1AFA1;}
	.st99{fill:url(#SVGID_00000028320092805890039220000007696731483975867011_);}
	.st100{fill:url(#SVGID_00000151539253216199809690000012781348178112954291_);}
	.st101{fill:url(#SVGID_00000075154333027550194390000012546991086093582742_);}
	.st102{fill:url(#SVGID_00000101070899977177275510000013772595635272672681_);}
	.st103{fill:url(#SVGID_00000066474260621969312390000008668197524956259515_);}
	.st104{fill:url(#SVGID_00000127733950911904744440000013333455958492462508_);}
	.st105{fill:url(#SVGID_00000033351195343972056590000011936440779048026796_);}
	.st106{fill:url(#SVGID_00000110468533477369126470000008712188148124666240_);}
	.st107{fill:url(#SVGID_00000109737991191802191860000001528935416495820216_);}
	.st108{fill:url(#SVGID_00000016040601527101705870000003701789344327734163_);}
	.st109{fill:#E39F8D;}
	.st110{fill:#C2553C;}
	.st111{fill:url(#SVGID_00000176732279558458567170000016869995957242376618_);}
	.st112{fill:url(#SVGID_00000067955057369006581840000013748511826628909444_);}
	.st113{fill:url(#SVGID_00000059304684189275943550000005137062021645296795_);}
	.st114{fill:#AD4024;}
	.st115{fill:url(#SVGID_00000054247602652986727020000005994202892394670995_);}
	.st116{fill:url(#SVGID_00000102531558617721858010000002991110966386900412_);}
	.st117{fill:url(#SVGID_00000055672702089940058540000010568682148931166364_);}
	.st118{opacity:0.5608;fill:#FFFFFF;}
	.st119{fill:#FFFFFF;}
	.st120{fill:#FFF1ED;}
	.st121{fill:#E6D7D3;}
	.st122{opacity:0.4392;fill:#E0AFA1;}
	.st123{fill:#FFD3C7;}
	.st124{opacity:0.3412;fill:#AAAD66;}
	.st125{opacity:0.2314;fill:#FFFFFF;}
	.st126{fill:#23282B;}
	.st127{fill:none;stroke:#99685A;stroke-linecap:round;stroke-linejoin:round;stroke-miterlimit:10;}
	.st128{fill:#495760;}
	.st129{fill:#353A3E;}
	.st130{fill:#3A474F;}
	.st131{fill:#709EB8;}
	.st132{fill:#8BB0C5;}
	.st133{fill:#31556B;}
	.st134{fill:#4E768F;}
	.st135{fill:#263F4F;}
	.st136{fill:#576975;}
	.st137{fill:none;stroke:#3A474F;stroke-miterlimit:10;}
	.st138{fill:#2F3943;}
	.st139{fill:#C78D7D;}
	.st140{fill:#421D13;}
	.st141{fill:#5E3E35;}
	.st142{fill:#806158;}
	.st143{fill:#EFC3B6;}
	.st144{fill:#C79789;}
	.st145{fill:none;stroke:#EFC3B6;stroke-miterlimit:10;}
	.st146{fill:#69483F;}
	.st147{fill:none;stroke:#806158;stroke-width:3;stroke-linecap:round;stroke-linejoin:round;stroke-miterlimit:10;}
	.st148{fill:#E8E8E8;}
	.st149{fill:#BACAD9;}
	.st150{fill:#694034;}
	.st151{fill:#658F85;}
	.st152{fill:#407065;}
	.st153{fill:#323C42;}
	.st154{fill:#B4CADE;}
	.st155{opacity:0.3294;fill:#C75B63;}
	.st156{fill:none;stroke:#5E3E35;stroke-width:4;stroke-linecap:round;stroke-linejoin:round;stroke-miterlimit:10;}
	.st157{fill:#4C6270;}
	.st158{fill:#7A4A3D;}
	.st159{fill:#252E37;}
	.st160{fill:#3E4852;}
	.st161{fill:none;stroke:#E0AFA1;stroke-linecap:round;stroke-linejoin:round;stroke-miterlimit:10;}
	.st162{fill:#BA8677;}
	.st163{fill:#313B45;}
	.st164{fill:none;stroke:#4E768F;stroke-miterlimit:10;}
	.st165{fill:#193646;}
	.st166{opacity:0.1882;fill:#FFFFFF;}
	.st167{fill:none;stroke:#421D13;stroke-miterlimit:10;}
	.st168{opacity:0.2196;fill:#1390D4;}
	.st169{opacity:0.2392;fill:#027DCF;}
	.st170{opacity:0.3216;fill:#FFFFFF;}
	.st171{fill:#CFCFCF;}
	.st172{fill:url(#SVGID_00000091002694949370201170000006272239285106150842_);}
	.st173{fill:url(#SVGID_00000028318184569779942970000004358022646204484486_);}
	.st174{opacity:0.749;fill:url(#SVGID_00000021097019604279408490000015683238845779946133_);}
	.st175{fill:url(#SVGID_00000052811751022319635640000016590235173368843958_);}
	.st176{fill:url(#SVGID_00000129886124250663479010000006421187073847054503_);}
	.st177{fill:#821111;}
	.st178{fill:url(#SVGID_00000067205410810834093860000005593013254316023201_);}
	.st179{fill:#BC0002;}
	.st180{fill:url(#SVGID_00000166649142910517464490000010471759276434431618_);}
	.st181{fill:url(#SVGID_00000140735000811189771400000000661920177213162661_);}
	.st182{fill:url(#SVGID_00000025418417521955617170000011927383765205866915_);}
</style>
<g>
	<g>
		<path class="st131" d="M752.83,910.83c-9.77-2.02-19.64-2.12-29.48-0.98c-15.96,1.85-31.83,6.98-47.04,12.44
			c-9.46,3.39-18.87,6.93-28.03,11.04c-37,16.63-68.77,42.11-97.51,71.03c-16.3,16.38-31.63,33.88-46.39,51.49
			c-12.7,15.17-25.92,32.99-24.56,53.28c9.8,2.95,18.72,8.67,25.62,16.23c3.05,3.35,5.71,7.07,7.86,11.05
			c-21.52-4.48-41.35-14.93-58.57-28.74c-3.51-2.8-6.9-5.75-10.19-8.82c-3.23-3.01-6.36-6.14-9.36-9.37
			c-5.03-5.41-9.77-11.07-14.23-16.93c-0.26-0.33-0.52-0.67-0.78-1.01l-60.23-142.17c-1.09-6.08-2.11-12.17-3.13-18.25
			c-1.76-10.62-3.49-21.19-5.42-31.58c-8.29-44.5-20.14-85.85-5.58-128.72c13.73-40.41,39.47-76.37,72.06-103.92
			c15.17-12.83,32.1-24.03,51.02-30.09c23.12-7.41,47.95-6.82,72.2-5.9c14.48,0.54,29.51,1.32,42.32,8.11
			c7.19,3.81,13.33,9.36,18.9,15.29c14.95,15.88,26.47,34.98,30.89,53.71c21.1,41.77,42.21,83.52,63.31,125.29
			c8.34,16.51,16.69,33.03,25.98,49.01c0.84,1.45,1.69,2.89,2.55,4.33c0.07,0.14,0.15,0.27,0.23,0.41
			c6.71,11.25,13.94,22.2,20.88,33.11C748.41,903.71,750.65,907.27,752.83,910.83z"/>
		<rect class="st0" width="1500" height="1716.87"/>
		<g>
			<path class="st2" d="M1231.55,362.25c-0.14,8.18,0.91,16.61-1.72,24.35c-1.89,5.57-5.39,10.08-9.55,14.17
				c-0.79,0.78-1.6,1.54-2.43,2.3l-0.01,0.01c-3.01,2.73-6.24,5.32-9.4,8c-1.02,0.88-2.04,1.75-3.04,2.65
				c-1.92,1.73-3.78,3.52-5.48,5.42c-0.73,0.82-1.44,1.65-2.11,2.52c-3.02,3.88-5.37,8.3-8.66,11.94c-0.44,0.49-0.9,0.96-1.38,1.41
				c-1.25,1.19-2.62,2.23-4.03,3.23c-2.48,1.75-5.1,3.34-7.42,5.31c-0.17,0.14-0.33,0.29-0.5,0.44
				c-8.65,7.66-12.07,19.56-15.14,29.67c-2.61,9.48-1.05,19.53-1,29.37c0.01,0.14,0.01,0.3,0.01,0.44
				c0.01,9.98-2.27,21.02-10.32,26.93c-1.9,1.39-3.98,2.41-6.18,3.17c-4.19,1.45-8.79,1.98-13.25,2.45c-0.92,0.1-1.85,0.2-2.77,0.3
				c-0.18,0.02-0.37,0.04-0.55,0.05c-2.38,0.25-4.76,0.51-7.14,0.77c-0.94,0.1-1.98,0.24-2.59,0.97c-0.5,0.58-0.59,1.4-0.66,2.17
				c-0.27,3.02-0.55,6.05-0.89,9.01c-0.33,2.94-0.72,5.81-1.24,8.58c-0.42,0.84-0.89,1.64-1.4,2.4c-0.61,0.91-1.3,1.77-2.04,2.58
				c-0.23,0.26-0.49,0.52-0.74,0.78c-2.6,2.68-5.77,4.92-8.85,7.08c-1.4,0.98-2.79,1.95-4.19,2.94
				c-5.76,4.01-11.51,8.04-17.28,12.07c-0.75,0.52-1.5,1.05-2.25,1.57c-0.54,0.38-1.08,0.75-1.62,1.13
				c-0.55,0.38-1.13,0.8-1.39,1.42c-0.2,0.48-0.19,1.01-0.18,1.53c0.06,5.49-0.9,10.94-1.88,16.35c-0.04,0.19-0.07,0.38-0.1,0.57
				c-0.91,5.03-1.91,10.12-4.28,14.63c-2.47,4.69-6.68,8.76-11.89,9.68c-0.76,1.75-1.84,3.36-3.17,4.75
				c-1.34,1.41-2.91,2.59-4.64,3.48c-1.71,0.88-3.58,1.47-5.49,1.71c-1.63,0.2-3.35,0.18-4.74,1.04c-1.07,0.64-1.78,1.72-2.31,2.51
				c-0.34,0.37-0.68,0.75-1.02,1.12c-2.58,2.82-5.28,5.61-8.15,8.13c-4.63,4.08-9.73,7.45-15.63,9.05
				c-0.42,0.11-0.84,0.22-1.27,0.31c-0.45,0.1-0.89,0.19-1.36,0.26c-2.48,0.43-5,0.57-7.52,0.46c-0.68-0.03-1.36-0.07-2.02-0.14
				c-1.52-0.14-3.04-0.35-4.53-0.64c-11.39-2.16-21.82-7.98-30.88-15.22c-9.05-7.23-16.87-15.88-24.63-24.47
				c-15.31-16.95-30.61-33.9-46.98-51.21c-0.66,0.89-1.33,1.79-1.99,2.68c-4.03,5.45-8.06,10.9-12.1,16.35
				c-9.54,12.89-19.09,25.79-28.64,38.68c-16.65,22.48-33.67,45.34-56.31,61.77c-38.97-25.27-73.82-56.86-102.77-93.17
				c-8.83-11.07-17.11-22.58-26.33-33.33c-5.2-6.06-10.85-12.22-14.36-19.26c-1.4-2.81-2.46-5.76-3-8.89
				c-1.22-7.04,3.22-13.29,8.85-16.65c33.64-20.09,63.96-45.73,89.47-75.48c10.55-12.31,20.28-25.31,29.08-38.92
				c10.31-15.95,19.43-32.86,24.71-51.11c2.15-7.39,3.63-14.88,4.68-22.45c1.48-10.71,2.07-21.56,2.38-32.48
				c0.39-13.9,0.33-27.89,1.04-41.79c0.28-5.65,0.7-11.29,1.33-16.89c6.07-54.1,32.86-105.61,73.68-141.65
				c19.68-17.37,42.52-31.07,66.91-40.6c0,0,0.01,0,0.02-0.01c7.6-2.96,15.35-5.53,23.2-7.68c19.2-5.25,39-7.99,58.68-8.01
				c3.42,0.41,6.85,0.89,10.26,1.45h0.01c67.51,10.96,130.24,49.62,170.75,103.92c6.69,12.36,16.34,22.94,22.84,35.4
				c6.97,13.34,10.08,28.31,11.67,43.42c4.09,28.52,2.89,57.79-3.71,86.04C1236.94,330.43,1231.83,346.08,1231.55,362.25z"/>
			<path class="st3" d="M853.43,242.97c-12.45,5.54-22.51,16.25-27.27,29.02s-4.16,27.45,1.62,39.79
				c-1.95-11.15-2.12-22.75,0.86-33.67c2.98-10.92,9.27-21.13,18.5-27.67c2.85-2.02,6.09-3.82,7.75-6.89
				C854.27,243.26,853.64,242.87,853.43,242.97z"/>
			<path class="st3" d="M857.01,228.95c9.02,5.41,15.88,14.31,18.81,24.41c0.95,3.27,1.84,7.1,4.92,8.56
				c-1.33-14.03-9.62-27.22-21.67-34.53c-0.77-0.47-1.6-0.93-2.5-0.98c-0.9-0.06-1.9,0.4-2.18,1.26
				C855.01,228.5,855.64,229.33,857.01,228.95z"/>
			<path class="st3" d="M1041.01,314.87c26.45,0.98,51.67,12.29,73.27,27.59c8.18,5.8,16.03,12.23,25.09,16.54s19.77,6.3,29.15,2.74
				c-15.55-1.42-29.92-8.78-43.11-17.13c-13.19-8.36-25.73-17.89-39.88-24.48C1071.36,313.53,1055,310.05,1041.01,314.87z"/>
			<path class="st3" d="M1069.77,384.84c4.61,3.4,9.54,6.47,14.98,8.26c5.44,1.78,11.47,2.2,16.87,0.31
				c0.59-0.21,1.21-0.47,1.54-1.01c0.54-0.88,0.01-2.02-0.6-2.86c-3.59-4.94-9.78-7.1-15.58-9c-2.8-0.91-5.59-1.82-8.39-2.73
				c-3.89-1.27-8.37-2.48-11.87-0.35c-0.44,0.27-0.87,0.61-1.05,1.09c-0.14,0.37-0.11,0.78-0.06,1.18
				C1065.93,381.83,1067.48,383.15,1069.77,384.84z"/>
			<path class="st3" d="M1199.92,419.14c-0.73,0.82-1.44,1.65-2.11,2.52c-3.02,3.88-5.37,8.3-8.66,11.94
				c-1.84-1.09-3.63-2.27-5.37-3.52c-1.36-0.98-2.77-2.2-2.96-3.85c-0.15-1.4,0.62-2.73,1.58-3.75c2.4-2.56,5.97-3.76,9.47-3.98
				C1194.57,418.33,1197.25,418.67,1199.92,419.14z"/>
			<path class="st3" d="M1153.18,413.06c-10.23,30.86-15.32,63.41-15.01,95.91c0.02,2.18,0.12,4.51,1.42,6.26
				c2.56,3.42,8.37,2.31,11.04-1.01c2.67-3.33,3.09-7.87,3.44-12.12c2.06-25.04,5.56-49.96,10.48-74.6c0.77-3.85,1.54-8-0.11-11.56
				C1162.8,412.36,1157.6,410.28,1153.18,413.06z"/>
			<path class="st3" d="M1011.55,476.88c-11.45,18.78-21.15,38.63-28.93,59.21c-1.39,3.69-2.66,8.07-0.47,11.35
				c0.4,0.6,0.96,1.16,1.67,1.28c1.09,0.18,2.05-0.7,2.79-1.52c13.72-15.16,24.1-33.54,40.23-46.1c3.67-2.85,7.83-5.68,9.28-10.1
				c1.89-5.74-1.91-12.25-7.33-14.9C1023.37,473.43,1016.88,473.93,1011.55,476.88z"/>
			<path class="st3" d="M961.33,361.06c6.84,8.91,13.72,17.88,18.85,27.88c3.08,6.01,5.51,12.35,8.6,18.36
				c8.25,16.01,21.34,29.49,37.11,38.21c5.2,2.88,10.81,5.28,16.74,5.74c3.4,0.26,7.4-0.48,8.99-3.49c1.6-3.04-0.05-6.72-1.77-9.69
				c-4.74-8.17-10.2-15.93-16.28-23.16c-6.12-7.28-12.92-14.06-17.97-22.12c-4.97-7.93-8.13-16.9-13.17-24.78
				c-5.05-7.88-12.75-14.93-22.08-15.67C971.24,351.62,962.23,357.01,961.33,361.06z"/>
			<path class="st3" d="M828.53,346.77c1.92,5.04,5.08,9.61,9.13,13.18c3.6,3.17,8.56,5.63,13.09,4.07c2.33-0.8,4.4-3.62,2.94-5.61
				c-0.61-0.82-1.63-1.21-2.6-1.54c-6.2-2.1-13.02-4.11-16.82-9.45c-0.78-1.09-1.54-2.4-2.85-2.69
				C830.12,344.44,828.71,346.34,828.53,346.77z"/>
			<path class="st3" d="M878.17,303.45c-3.99,2.63-7.59,6.05-9.71,10.33c-2.12,4.29-2.61,9.53-0.59,13.86
				c0.24,0.52,0.53,1.04,0.99,1.39c1.56,1.17,3.87-0.52,4.23-2.44c0.35-1.92-0.44-3.83-0.76-5.75c-0.65-3.99,0.93-8.26,4.02-10.86
				c1.28-1.07,2.85-1.95,3.52-3.47C880.56,304.99,879.45,302.61,878.17,303.45z"/>
			<path class="st3" d="M1175.38,350.74c1.01-15.47-6.49-31.02-3.1-46.14c0.35-1.57,0.95-3.28,2.38-4.01
				c1.62-0.83,3.71,0.01,4.85,1.44s1.56,3.28,1.93,5.07c1.58,7.56,2.87,15.17,3.88,22.82c0.61,4.59,1.09,9.37-0.38,13.77
				C1183.46,348.07,1179.49,351.96,1175.38,350.74z"/>
			<path class="st3" d="M1221.25,327.79c-8.01,9.92-14.75,20.86-20,32.48c-0.75,1.66-0.97,4.33,0.82,4.6c0.55,0.08,1.1-0.14,1.6-0.4
				c2.79-1.43,4.96-3.82,7.06-6.16c8.01-8.94,16.09-17.96,22.08-28.36c0.7-1.22,1.4-2.51,1.49-3.92c0.1-1.41-0.57-2.97-1.88-3.48
				c-0.96-0.37-2.04-0.14-3.01,0.2C1226.59,323.73,1223.52,324.97,1221.25,327.79z"/>
			<path class="st4" d="M998.67,665.26c-1.52-0.14-3.04-0.35-4.53-0.64c-11.39-2.16-21.82-7.98-30.88-15.22
				c-9.05-7.23-16.87-15.88-24.63-24.47c-15.31-16.95-30.61-33.9-46.98-51.21c-4.7,6.34-9.39,12.69-14.09,19.03
				c-11.59-12.13-22.41-24.9-31.53-38.96c-17.19-26.5-27.99-58.45-23.44-89.69c3.17-21.79,13.62-42.56,12.43-64.63
				c-0.07-1.27-0.42-2.52-1.08-3.61c-1.74-2.88-4.04-2.39-6.11-1.81c-7.74,2.22-15.28,6.19-20.07,12.67
				c-3.61,4.88-5.42,10.82-7.17,16.63c-13.83,45.95-27.65,91.9-41.48,137.85c-4.38,14.55-11.36,31.55-26.31,34.24
				c-11.37,2.05-22.79-6.14-27.47-16.7c-4.69-10.56-3.88-22.78-1.24-34.03c2.64-11.25,6.99-22.06,9.23-33.4
				c1.1-5.56,1.62-11.6-0.94-16.66c-21.53,17.05-42.63,34.65-63.25,52.81c-1.4-2.81-2.46-5.76-3-8.89
				c-1.22-7.04,3.22-13.29,8.85-16.65c33.64-20.09,63.96-45.73,89.47-75.48c10.55-12.31,20.28-25.31,29.08-38.92
				c10.31-15.95,19.43-32.86,24.71-51.11c2.15-7.39,3.63-14.88,4.68-22.45c2.77-0.13,5.53,0.17,8.18,1.06
				c4.91,1.64,11.44,17.95,15.14,21.58c8.36,8.19,19.96,14.75,27.37,15.33c2.5,0.2,4.46,2.21,4.42,4.73
				c-0.22,12.34-2.96,21.6-5.38,35.11c-5.46,30.48-4.92,62.52,5.54,91.66c4.86,13.55,11.77,26.29,19.35,38.53
				c15.36,24.84,33.51,47.86,52.57,69.98c15.82,18.38,32.87,36.61,54.72,47.11C989.36,661.2,994.12,663.09,998.67,665.26z"/>
			<path class="st4" d="M1040.44,46.28c-24.18,8.41-46.4,23.5-64.12,42.16c-29.39,30.95-47.74,70.79-60.93,111.37
				c-9.94,30.55-17.3,62.34-16.8,94.47c-6.47-9.67-9.72-21.06-13.27-32.14c-3.55-11.08-7.67-22.34-15.42-31.01
				c-7.74-8.67-19.98-14.3-31.17-11.14c-3.79-30.68,6.09-58.62,21.89-81.53c15.81-22.92,37.24-41.38,59.45-58.16
				c9.14-6.9,18.52-13.61,28.22-19.77c0,0,0.01,0,0.02-0.01c7.6-2.96,15.35-5.53,23.2-7.68c19.2-5.25,39-7.99,58.68-8.01
				C1033.61,45.24,1037.03,45.73,1040.44,46.28z"/>
			<path class="st4" d="M808.36,289.38c1.57,14.29,6.99,28.15,15.52,39.72c2.86,3.88,7.11,7.88,11.8,6.78
				c-6.07-10.88-12.2-21.92-15.26-34c-3.05-12.08-2.72-25.53,3.65-36.24c1.87-3.15,4.22-6,6.66-8.74
				c3.45-3.88,7.12-7.57,10.96-11.05c1.62-1.47,3.34-2.99,4.08-5.05s0.06-4.81-1.99-5.57c-1.81-0.67-3.77,0.42-5.36,1.53
				c-15.21,10.57-26.93,26.83-29.76,45.14C807.86,287.14,807.84,292.82,808.36,289.38z"/>
			<path class="st4" d="M834.38,315.23c5.67,2.83,10.46,7.4,13.54,12.94c1.23,2.21,2.2,4.56,3.62,6.65s3.44,3.92,5.91,4.44
				c0.54,0.11,1.13,0.16,1.61-0.11c0.44-0.25,0.71-0.71,0.94-1.17c1.03-2.07,1.61-4.36,1.69-6.68c0.03-0.88-0.02-1.81-0.46-2.58
				c-0.39-0.69-1.06-1.18-1.73-1.61c-2.7-1.71-5.8-2.71-8.49-4.42c-3.72-2.36-6.46-5.95-9.22-9.39c-0.97-1.2-1.98-2.43-3.33-3.17
				c-1.35-0.74-3.15-0.89-4.38,0.04c-1.74,1.32-1.51,4.17-0.12,5.85C835.37,317.71,837.53,318.51,834.38,315.23z"/>
			<path class="st4" d="M1008.22,664.93c-2.48,0.43-5,0.57-7.52,0.46c-2.46-0.73-4.91-1.45-7.36-2.19
				c-5.95-1.76-11.93-3.53-17.44-6.39c-9.9-5.12-17.75-13.43-25.3-21.64c-30.41-33.05-59.93-67.7-79.71-108.02
				c-19.77-40.33-29.15-87.28-17.58-130.67c1.08-4.07,2.36-8.17,2.23-12.38c-0.14-4.2-1.99-8.64-5.7-10.61
				c-1.84-0.98-3.99-1.28-5.8-2.31c-1.81-1.04-3.25-3.3,0.8-4.66c4.34,1.53,9.21-0.26,12.93-2.96c3.72-2.69,6.75-6.27,10.45-9.02
				c0.89-0.66,1.87-1.29,2.98-1.37c3.91-0.28,4.79,5.39,4.19,9.27c-5.7,36.89-8.67,74.71-1.93,111.42
				c6.72,36.71,23.98,72.5,53.03,95.94c3.03,2.44,6.53,4.85,10.4,4.58c4.91-0.34,8.41-4.78,10.86-9.04
				c13.99-24.31,14.2-53.86,14.02-81.91c-0.06-10.83-0.14-21.77-2.53-32.33c-5.37-23.84-21.81-43.45-38.27-61.5
				c-7.98-8.77-16.3-17.73-20.35-28.88c-4.06-11.14-2.7-25.18,6.45-32.72c1.96-1.61,4.38-2.92,6.9-2.7
				c2.82,0.24,5.11,2.29,7.12,4.27c25.15,24.72,42.39,56.19,59.26,87.15c5.2,9.52,10.45,19.23,12.63,29.86
				c2.77,13.47,0.37,27.46-3.04,40.79c-3.49,13.66-8.04,27.05-13.61,40c-3.98,9.27-8.51,18.4-10.83,28.22
				c-2.58,10.88-2.34,22.19-2.1,33.37c0.25,11.67,0.55,23.55,4.39,34.57C974.34,642.27,990.23,655.91,1008.22,664.93z"/>
			<path class="st4" d="M1130.63,389.07c-6.55-2.3-13.65-5.05-17.05-11.1c-0.72-1.29-1.25-2.73-1.2-4.2
				c0.06-1.58,0.77-3.05,1.19-4.57c1.55-5.69-1.3-11.87-5.71-15.78s-10.16-5.93-15.83-7.54c-18.42-5.25-37.81-7.12-56.94-5.05
				c-3.29,0.48-6.69,0.15-9.83-0.95c-0.73-0.26-1.49-0.6-1.87-1.27c-0.92-1.63,1.04-3.36,2.76-4.09c7.8-3.33,16.51-3.74,24.99-3.67
				c20.3,0.17,41.02,2.98,59.1,12.23c4.8,2.46,9.6,5.58,12.07,10.38c1.25,2.42,1.88,5.22,3.74,7.21c2.3,2.46,5.9,3.08,9.22,3.66
				c5.99,1.04,11.93,2.39,17.79,4.02c2.47,0.69,5.03,1.49,6.88,3.27c2.13,2.05,3.01,5.11,5.09,7.21c2.04,2.06,4.95,2.94,7.37,4.53
				s4.45,4.64,3.24,7.27c-0.65,1.42-2.07,2.31-3.48,2.98c-6.3,3.02-13.87,3.28-20.36,0.7c0.93,2.01,0.91,4.44-0.05,6.43
				c-1.65-0.97-3.39-1.97-5.3-2.02s-4,1.25-4.12,3.15c-0.09,1.37,0.55,3.27-0.73,3.75c-1.32-1.48-3.8-1.75-5.4-0.58
				c-0.49,0.36-0.91,0.83-1.48,1.03c-0.52,0.19-1.1,0.13-1.64-0.01c-3.9-1-5.87-5.34-9.23-7.56c-1.94-1.29-4.29-1.81-6.34-2.92
				c-7.36-3.97-9.05-14.04-15.46-19.41c-3.02-2.53-6.85-3.82-10.59-5.05c-8.44-2.79-17.03-5.6-25.92-5.72
				c-3.86-0.05-7.74,0.41-11.58,0.02c-3.2-0.32-6.3-1.22-9.39-2.13c-2.6-0.76-5.3-1.6-7.23-3.5c-1.92-1.9-2.74-5.22-1.04-7.33
				c2.19-1.19,4.97-0.13,6.89,1.47c1.92,1.6,3.4,3.71,5.49,5.07c2.71,1.76,6.09,2.06,9.31,2.24c8.33,0.46,16.71,0.47,24.94,1.84
				s16.42,4.23,22.72,9.69c2.7,2.34,5,5.11,7.73,7.42C1118.71,384.71,1125.43,387.24,1130.63,389.07z"/>
			<path class="st4" d="M1048.24,374.87c-4.18-0.47-8.51,2.15-10.04,6.07c-0.34,0.89-0.57,1.85-1.15,2.6
				c-0.88,1.14-2.39,1.58-3.83,1.69c-5.14,0.37-10.21-3.11-12.07-7.92c-1.69-4.37-0.94-9.34-2.3-13.82
				c-2.08-6.88-8.64-11.39-12.11-17.68c-0.83-1.51-1.49-3.21-1.26-4.92c0.23-1.71,1.62-3.35,3.34-3.35c0.51,0,1.01,0.14,1.5,0.28
				c4.69,1.32,9.39,2.64,14.08,3.95c3.31,0.93,6.74,1.92,9.32,4.2c4.09,3.63,5.31,9.9,9.81,13c1.61,1.11,3.56,1.75,4.93,3.15
				C1051.77,365.48,1050.03,371.27,1048.24,374.87z"/>
			<path class="st5" d="M1109.92,401.04c-11.65,4.58-25.15,3.58-36.48-1.76s-24.76-26.05-26.43-25.78
				c-2.26,0.36,8.82,18.12,15.88,25.44c-10.85,2.82-19.09-21.67-20.68-20.82c-3.19,1.7,8.12,20.33,17.23,25.52
				c6.72,3.83,14.85,4.02,22.58,3.87C1092.15,407.31,1103.15,406.32,1109.92,401.04z"/>
			<path class="st4" d="M1159.69,503.47c0.01,9.98-2.27,21.02-10.32,26.93c-5.49,4.04-12.63,4.9-19.43,5.62
				c-3.17,0.33-6.34,0.68-9.52,1.02c0-0.26-0.01-0.53-0.01-0.8c-0.05-3.23-0.14-6.62-1.81-9.38c-1.43-2.35-1.13-7.53-3.45-9.02
				c-4.39-2.8-8.79-3.8-13.18-6.6c-5.87-3.75-13.64-3.22-22.08-4.4c-3.05-0.43-5.69,2.28-8.3,3.92
				c-22.36,14.09-44.43,30.84-57.35,53.6c-0.54,0.12-1.1,0.17-1.66,0.16c-2.05-0.05-3.98-1-6.01-1.23
				c-5.39-0.61-11.57,3.7-15.81,0.31c7.61-8.45,16.11-16.1,14.79-13.65c22.39-22.7,47.06-43.15,73.53-60.95
				c0.82-0.55,1.73-1.12,2.72-1.05c1.69,0.12,2.67,2.06,2.72,3.76c0.05,1.7-0.48,3.4-0.23,5.08c0.8,5.33,7.78,6.49,13.13,7.2
				c10.76,1.45,21.02,6.49,28.73,14.14c2.26,2.24,4.45,4.8,7.49,5.77c6.54,2.12,12.65-3.9,16.91-9.31
				c3.05-3.86,6.09-7.73,9.13-11.58C1159.69,503.17,1159.69,503.32,1159.69,503.47z"/>
			<path class="st4" d="M1014.24,564.37c1.32-0.24,2.59-0.76,3.85-1.26c29.39-11.59,63.12-11.68,92.57-0.27
				c1.36-1.5,2.54-3.14,3.44-4.99c1.03-5.56,1.58-11.58,2.12-17.58c0.07-0.77,0.16-1.59,0.66-2.17c0.61-0.72,1.65-0.87,2.59-0.97
				c0.32-0.04,0.63-0.07,0.95-0.1"/>
			<path class="st4" d="M1079.6,585.7c-0.75,0.52-1.5,1.05-2.25,1.57c-0.54,0.38-1.08,0.75-1.62,1.13c-0.55,0.38-1.13,0.8-1.39,1.42
				c-0.2,0.48-0.19,1.01-0.18,1.53c0.06,5.49-0.9,10.94-1.88,16.35c-0.04,0.19-0.07,0.38-0.1,0.57c-0.38-0.24-0.76-0.48-1.16-0.69
				c-3.16-1.64-6.97-1.18-10.48-1.79c-7.36-1.27-14.02-7.29-21.33-5.73c-1.45,0.32-2.88,0.96-3.91,2.04
				c-2.94,3.08-1.64,8.11,0.06,12.01c2.3,5.25,5.06,10.31,8.21,15.11c-7.28-2.76-13.21-8.9-15.7-16.27
				c-1.22-3.63-5.43-11.86-9.28-20.21c-3.05-6.61-6.1-14.28-3.02-20.86c0.77-1.64,1.92-3.12,3.42-4.13c1.09-0.73,2.34-1.2,3.61-1.58
				c9.46-2.85,19.6-1.18,29.48-0.95c3.02,0.07,6.08,0.01,9,0.76c2.48,0.63,4.79,1.83,7.03,3.09c2.32,1.32,4.64,2.75,6.4,4.76
				c2.23,2.57,3.4,5.86,4.35,9.13C1079.12,583.86,1079.38,584.78,1079.6,585.7z"/>
			<path class="st4" d="M1052.84,637.33c-2.66,2.81-6.28,4.72-10.13,5.19c-1.63,0.2-3.35,0.18-4.74,1.04
				c-1.07,0.64-1.78,1.72-2.31,2.51c-2.89,3.19-5.92,6.4-9.17,9.25c-0.42-3.1-1.79-6.13-3.52-8.77c-2.61-3.95-6.02-7.3-8.86-11.09
				c-5.67-7.58-8.92-16.93-9.18-26.39c13.63,12.2,29.65,21.71,46.88,27.86C1052.14,637.06,1052.49,637.18,1052.84,637.33z"/>
			<path class="st5" d="M810.02,334.17c0.1,6.06-0.81,12.11-1.96,18.06c-6.27,32.66-19.58,63.94-38.76,91.1
				c-6.56,9.3-13.8,18.11-20.08,27.6c-14.92,22.54-24.2,48.77-26.77,75.68c-2.28-34.42,9.43-67.89,22.04-100.19
				c10.55-12.31,20.28-25.31,29.08-38.92c10.31-15.95,19.43-32.86,24.71-51.11c5.18-17.84,6.53-36.3,7.06-54.93
				c0.92,5.46,1.84,10.91,2.77,16.36C809.02,323.24,809.93,328.68,810.02,334.17z"/>
			<path class="st5" d="M1107.77,378.98c3.41,4.66,6.96,9.44,11.94,12.36c3.96,2.32,8.54,3.29,13.05,4.15
				c0.76,0.14,1.6,0.27,2.25-0.15c1.68-1.08,0-3.72,0.45-5.67c0.35-1.5,2.02-2.36,3.56-2.34c1.54,0.02,2.98,0.68,4.4,1.26
				c4.8,1.94,9.98,2.93,15.15,2.9c-2.3-2.92-2.95-7.06-1.64-10.55c0.21-0.56,0.47-1.18,0.25-1.73c-0.16-0.41-0.54-0.69-0.91-0.93
				c-4.55-3.05-9.76-5.1-15.17-5.97c-1.06-0.17-2.16-0.29-3.19,0.01c-0.93,0.28-1.73,0.88-2.5,1.48c-2.46,1.9-4.92,3.79-7.39,5.69
				c-1.24,0.96-2.5,1.92-3.92,2.58C1118.46,384.67,1111.9,381.9,1107.77,378.98z"/>
			<path class="st5" d="M1054.3,366.27c-3.34-0.18-6.66-0.78-9.85-1.77c-2.41-0.75-5.19-2.4-4.93-4.9
				C1045.32,360.09,1049.74,365.43,1054.3,366.27z"/>
			<path class="st5" d="M1220.28,400.77c0.27-1.34-0.87-2.62-2.17-3.01c-1.3-0.38-2.7-0.1-4.03,0.19
				c-10.83,2.37-21.55,5.3-32.1,8.77c8.32-0.77,16.88,1.82,23.42,7c0.99-0.89,2.02-1.77,3.04-2.65c-1.6-1.48-4.06-2.1-6.11-3.09
				c-0.73-0.35-1.55-1.18-1.08-1.85c0.21-0.29,0.58-0.4,0.92-0.48c5.11-1.19,10.6-0.63,15.5-2.51c0.05-0.02,0.11-0.05,0.16-0.06
				l0.01-0.01L1220.28,400.77z"/>
			<path class="st5" d="M1085.53,507.29c-0.75-0.37-1.43-0.87-2.01-1.54c-2.85-3.3-1.23-8.35,0.52-12.34
				C1082.08,499.13,1083.03,503.95,1085.53,507.29z"/>
			<path class="st5" d="M1143.19,533.57c-4.19,1.45-8.79,1.98-13.25,2.45c-0.92,0.1-1.85,0.2-2.77,0.3
				c-0.18,0.02-0.37,0.04-0.55,0.05c-3.67-2.84-6.39-6.83-9.09-10.74c-0.53-0.77-1.07-1.54-1.61-2.29
				c-3.83-5.32-8.92-10.58-15.45-11.12c-1.92-0.16-3.84,0.1-5.77-0.01c-3.62-0.22-6.99-1.99-9.17-4.92
				c2.58,1.29,6.03,1.08,9.07,1.08c11.2-0.01,22.61,5.49,28.37,15.11c1.79,2.99,3.19,6.48,6.14,8.31c3.02,1.87,6.82,1.53,10.36,1.5
				C1140.7,533.29,1141.97,533.35,1143.19,533.57z"/>
			<path class="st5" d="M1112.7,560.26c-0.61,0.91-1.3,1.77-2.04,2.58c-0.23,0.26-0.49,0.52-0.74,0.78
				c-2.87,1.62-5.5,3.78-8.07,5.89c-1.65,1.37-3.32,2.75-4.97,4.12c-6.51,4.54-13.01,9.09-19.53,13.64
				c-0.58,0.13-1.17,0.21-1.78,0.24c-3.7,0.2-7.22-1.46-10.89-1.94c-3.67-0.49-8.2,0.9-9.03,4.51
				c-4.16-12.08-16.54-20.83-29.31-20.71c-3.46,0.03-7.33,0.92-9.16,3.86c-1.94,3.12-0.8,7.17,0.46,10.64
				c5.04,13.78,11.23,27.14,17.99,40.98c-11.28-10.7-19.63-24.47-23.9-39.42c-1.97-6.89-3-14.65,0.42-20.95
				c4.31-7.93,14.06-10.9,22.91-12.7c13.48-2.76,27.29-4.51,41.01-3.42C1089.01,549.39,1101.92,553.07,1112.7,560.26z"/>
			<path class="st5" d="M830.31,332.27c-8.67-10.62-16.38-22.55-18.97-36.02c-2.59-13.47,0.83-28.73,11.32-37.55
				c-6.81,11.08-7.86,24.97-5.39,37.73C819.74,309.2,825.43,321.09,830.31,332.27z"/>
			<path class="st5" d="M806.51,317.1c0.36,0.6,0.7,1.24,1.01,1.92C807.19,318.38,806.86,317.74,806.51,317.1z"/>
			<path class="st5" d="M1009.57,664.67c-3.56,0.79-7.25,0.92-10.9,0.59c-1.52-0.14-3.04-0.35-4.53-0.64
				c-11.39-2.16-21.82-7.98-30.88-15.22c-9.05-7.23-16.87-15.88-24.63-24.47c-15.31-16.95-27.51-28.62-46.3-46.24
				c-0.81-0.76-2.67-2.29-2.67-2.29s-14.63-23.3-21.97-36.23c-4.48-7.9-14.07-23.69-17.17-32.22c-10.96-30.14-9.43-59.35-3.47-92.59
				c2.5-13.94,7.65-32.08,3.12-43.26c-17.3-1.4-27.77-11.74-36.42-33.38c-2.36-5.9-3.58-14.02-6.24-19.72
				c4.48,8.65,7.95,16.96,12.6,25.66c2.12,3.97,5.64,9.8,8.73,13.07c6.12,6.47,14.8,9.97,23.72,10.11c2.12,0.03,7.74,1.36,7.74,1.36
				s2.13,13.34,1.43,19.83c-2.1,19.19-2.96,37.48-5.32,56.65c-0.95,7.68-1.92,15.42-1.34,23.13c1.22,16.26,9.19,38.81,16.35,52.1
				c17.07,31.7,32.92,51.29,51.22,78.52c6.14,9.14,21.64,24.56,29.54,32.22C968.3,647.29,978.83,660.55,1009.57,664.67z"/>
			<path class="st5" d="M1048.2,640.81c-1.71,0.88-3.58,1.47-5.49,1.71c-1.63,0.2-3.35,0.18-4.74,1.04
				c-1.07,0.64-1.78,1.72-2.31,2.51c-0.34,0.37-0.68,0.75-1.02,1.12c-4.41-4.29-8.12-9.29-10.95-14.76
				c-0.94-1.81-1.8-3.81-1.49-5.83c6.41,5.65,13.99,9.97,22.11,12.6C1045.64,639.63,1047.05,640.06,1048.2,640.81z"/>
			<path class="st5" d="M1127.29,536.11c-0.04,0.07-0.07,0.14-0.12,0.2c-0.18,0.02-0.37,0.04-0.55,0.05
				c-2.38,0.25-4.76,0.51-7.14,0.77c-0.94,0.1-1.98,0.24-2.59,0.97c-0.5,0.58-0.59,1.4-0.66,2.17c-0.27,3.02-0.55,6.05-0.89,9.01
				c-0.53,1.34-0.94,2.72-1.2,4.13c-1.82-2.7-4.38-4.9-7.33-6.28c-2.6-1.23-5.45-1.82-8.26-2.39c-5.67-1.17-11.32-2.32-16.98-3.49
				c6.22,0.61,12.44,1.23,18.66,1.83c1.39-4.35,2.59-8.94,5.57-12.38c2.88-3.34,7.33-5.25,11.73-5.09c0.42,0.01,0.82,0.04,1.24,0.09
				c0.12-2.09,3.94,2.27,7.27,6.33C1126.99,533.21,1127.99,534.79,1127.29,536.11z"/>
			<path class="st5" d="M1183.74,438.23c-2.48,1.75-5.1,3.34-7.42,5.31c-0.17,0.14-0.33,0.29-0.5,0.44
				c-3.39-2.51-6.42-5.49-8.99-8.86c1.17-0.72,1.01-2.7,0.85-4.68C1172.84,433.43,1178.21,436.04,1183.74,438.23z"/>
			<path class="st5" d="M872.23,274.51c0.08-10.03-1.01-20.52-6.45-28.95c-5.43-8.43-16.26-14.07-25.74-10.78
				c-4.34,1.51-7.91,4.65-11.19,7.88c-4.1,4.04-7.94,8.35-12.34,12.8c4.04-8.03,10.26-14.95,17.81-19.83
				c4.61-2.98,9.97-5.25,15.44-4.84c6.28,0.48,11.85,4.45,15.86,9.3c7.49,9.06,10.48,21.24,10.01,32.99s-4.15,23.14-8.77,33.95
				c-1.21,2.84-2.51,5.69-2.97,8.73c-0.63,4.13,0.29,8.33,0.23,12.51s-1.49,8.81-5.2,10.72c1.6-3.18,2.52-6.71,2.68-10.27
				c0.23-5.36-1.25-10.78-0.25-16.05c0.71-3.77,2.65-7.27,2.91-11.1c0.26-3.82-2.22-8.34-6.05-8.18c3.23-3.21,6.46-6.43,9.7-9.64
				c1.72-1.71,3.49-4.57,1.75-6.27c-0.49-0.48-1.17-0.71-1.82-0.92c-6.92-2.17-14.76-2.72-21.19,0.64
				c-6.52,3.41-10.48,10.17-14.1,16.58c1.83-7.12,5.62-13.72,10.83-18.9c1.58-1.56,3.33-3.03,5.42-3.77
				c3.07-1.09,6.45-0.51,9.65,0.09C863.04,272.03,867.62,272.88,872.23,274.51z"/>
			<path class="st5" d="M971.5,52.84c-9.38,5.2-18.33,11.27-26.82,17.78c-43.15,33.14-76.58,78.78-95.16,129.92
				c-2.14,5.89-4.08,12.46-1.75,18.28c-18.74,6.95-34.03,22.33-41.4,40.84c0.28-5.65,0.7-11.29,1.33-16.89
				c6.07-54.1,32.86-105.61,73.68-141.65C907.19,78.34,938.46,61.88,971.5,52.84z"/>
		</g>
		<path class="st131" d="M1044.8,1118.24c-0.69,5.83-1.55,11.67-2.73,17.43c-1.25,6.09-2.86,12.09-5.04,17.89
			c-0.01,0.04-0.02,0.06-0.04,0.1h-0.01c0.01,0.01,0.01,0.01,0,0.02c-0.65,1.73-1.36,3.45-2.12,5.14
			c-9.42,20.87-26.65,36.98-41.96,53.99c-44.48,49.41-75.36,110.92-88.45,176.09c-2.26,11.26-4.04,22.77-8.78,33.23
			c-6.84,15.05-19.27,26.79-28.09,40.78c-11.47,18.2-16.56,40.34-14.2,61.72c0.78,6.96,2.3,13.9,1.92,20.88
			c-0.76,13.61-9.4,26.49-22.43,30.97c-7.31,19.72-3.93,41.68,0.98,62.13c5.41,22.51,12.63,45.08,11.68,68.21
			c-0.1,2.45-0.3,4.9-0.59,7.33H174.54c-0.4-3.34-0.87-6.68-1.32-9.98c-4.56-33.69-5.38-70.13,12.22-99.22
			c6.42-10.62,15.52-21.62,13.08-33.78c-0.73-3.66-2.53-7.21-2.14-10.92c0.68-6.47,7.29-10.25,12.17-14.53
			c9.83-8.62,14-21.89,16.94-34.64c9.52-41.26,10.65-84.43,3.33-126.14c-1.08-6.14-2.23-12.88,0.96-18.23
			c4.58-7.7,17.42-11.83,15.3-20.54c-1.52-6.25-9.91-7.8-13.81-12.92c-4.36-5.73-1.93-13.83-0.12-20.78
			c4.11-15.73,4.09-32.21,4.06-48.47c-0.12-44.27-0.23-88.54-5.31-137.38c0.23-2.43,0.46-4.85,0.7-7.28
			c0.34-3.52,0.69-7.05,1.04-10.58c0.14-1.34,0.27-2.67,0.41-4.02c0.24-2.43,0.49-4.87,0.74-7.31c0.45-4.44,0.91-8.88,1.39-13.33
			c0.61-5.72,1.24-11.45,1.88-17.18c0.51-4.44,1.02-8.86,1.54-13.3c0.01-0.05,0.02-0.09,0.02-0.14c0.52-4.39,1.06-8.78,1.6-13.17
			c0.36-2.95,0.74-5.88,1.12-8.83c0.32-2.45,0.63-4.89,0.96-7.33c0.33-2.45,0.65-4.89,0.98-7.33c0.3-2.2,0.61-4.41,0.91-6.61
			c0.05-0.41,0.11-0.8,0.17-1.2c0.32-2.29,0.65-4.56,0.98-6.84c0.29-2,0.59-3.99,0.88-5.99c0.8-5.32,1.61-10.64,2.46-15.94
			c0.77-4.86,1.56-9.73,2.39-14.58c0.42-2.43,0.83-4.85,1.26-7.27c0.39-2.24,0.79-4.48,1.19-6.72c0.06-0.38,0.14-0.76,0.21-1.14
			c0.41-2.22,0.81-4.45,1.23-6.67c0.45-2.41,0.9-4.83,1.37-7.25c0.46-2.41,0.94-4.82,1.42-7.23c0.48-2.4,0.97-4.82,1.45-7.22
			c0.5-2.4,1-4.8,1.51-7.2c0.02-0.09,0.04-0.18,0.05-0.27c0.5-2.3,0.99-4.62,1.5-6.91c0.52-2.39,1.06-4.79,1.6-7.17
			c0.44-1.99,0.9-3.97,1.37-5.95c0.45-1.99,0.92-3.98,1.4-5.96c0.61-2.56,1.23-5.11,1.86-7.67c0.43-1.75,0.88-3.5,1.32-5.24
			c1.21-4.77,2.46-9.53,3.74-14.29c0.44-1.64,0.89-3.27,1.34-4.9c0.01-0.05,0.03-0.09,0.04-0.14c0.47-1.69,0.94-3.38,1.43-5.06
			c1.73-6.12,3.52-12.21,5.39-18.27c0.32-1.05,0.64-2.1,0.97-3.14c0.36-1.16,0.72-2.31,1.09-3.47c0.31-0.98,0.61-1.95,0.93-2.93
			c1.17-3.64,2.37-7.27,3.59-10.9c0.39-1.15,0.78-2.29,1.17-3.43c0.39-1.15,0.79-2.29,1.18-3.43c0.4-1.15,0.8-2.3,1.21-3.45
			c0.62-1.76,1.26-3.52,1.89-5.28c1-2.78,2.02-5.55,3.07-8.31c0.36-0.96,0.72-1.91,1.08-2.86c1.81-4.73,3.66-9.45,5.58-14.14
			c0.71-1.75,1.43-3.5,2.16-5.24c0.31-0.75,0.61-1.49,0.93-2.23c0.33-0.8,0.67-1.59,1.01-2.39c0.47-1.11,0.95-2.21,1.43-3.33
			c0.42-0.99,0.86-1.99,1.29-2.98c0.53-1.22,1.08-2.44,1.62-3.65c0.45-1.01,0.9-2.02,1.36-3.03c0.52-1.18,1.07-2.36,1.61-3.53
			c0.47-1.03,0.95-2.05,1.43-3.07c1.14-2.48,2.31-4.93,3.5-7.38c0.42-0.87,0.84-1.73,1.26-2.59c1.91-3.91,3.86-7.8,5.86-11.67
			c0.77-1.48,1.54-2.96,2.31-4.44c0.09-0.16,0.17-0.32,0.25-0.48c0.59-1.1,1.17-2.2,1.76-3.3c0.46-0.86,0.93-1.73,1.4-2.59
			c1.05-1.92,2.11-3.86,3.18-5.77c1.37-2.47,2.77-4.93,4.19-7.38c0.7-1.22,1.42-2.45,2.14-3.67c1.03-1.75,2.08-3.51,3.14-5.25
			c0.82-1.36,1.64-2.72,2.48-4.08c1.04-1.69,2.09-3.38,3.15-5.06c0,0,0.01,0,0.01-0.01c6.49-10.27,13.34-20.35,20.59-30.22
			c20.48-27.88,44.09-53.84,72.42-73.65c57.53-40.23,129.23-52.08,201.14-62.58c5.68-0.83,11.37-1.65,17.05-2.48
			c0.8,2.29,1.64,4.56,2.5,6.82c0.45,1.17,0.91,2.35,1.39,3.52c0.33,0.8,0.65,1.61,0.98,2.41c0.03,0.08,0.06,0.17,0.1,0.25
			c0.21,0.51,0.42,1.02,0.65,1.54c0.02,0.06,0.04,0.12,0.07,0.17c0.23,0.56,0.47,1.12,0.71,1.68c0.56,1.3,1.13,2.59,1.73,3.89
			c0.53,1.21,1.09,2.41,1.66,3.61c0.54,1.15,1.09,2.3,1.65,3.44c0.57,1.17,1.15,2.32,1.73,3.48c2.34,4.63,4.83,9.18,7.45,13.66
			c0.65,1.12,1.31,2.23,1.98,3.34c0.51,0.84,1.01,1.68,1.54,2.51c0.07,0.12,0.14,0.23,0.22,0.35c0.59,0.96,1.18,1.91,1.79,2.85
			c0.45,0.72,0.91,1.44,1.38,2.15c0.02,0.04,0.04,0.07,0.07,0.11c0.23,0.36,0.47,0.73,0.71,1.09c0.01,0.04,0.04,0.07,0.06,0.1
			c0.48,0.73,0.96,1.45,1.45,2.18v0.01l0.01,0.01c0.23,0.37,0.49,0.75,0.75,1.12c0.05,0.07,0.1,0.15,0.15,0.23
			c0.53,0.8,1.08,1.57,1.62,2.36c0.94,1.36,1.9,2.72,2.86,4.07c0.01,0.01,0.01,0.01,0.01,0.01c2.19,3.05,4.44,6.05,6.75,9.02
			c0.33,0.43,0.66,0.86,0.99,1.28c0.33,0.43,0.68,0.86,1.02,1.28v0.01c0.1,0.13,0.2,0.25,0.31,0.38c0.47,0.59,0.94,1.17,1.42,1.76
			c1.26,1.56,2.54,3.12,3.84,4.65c0.41,0.48,0.81,0.96,1.22,1.44c0.76,0.89,1.52,1.77,2.29,2.65c3.85,4.42,7.83,8.75,11.95,12.96
			c0.6,0.61,1.19,1.23,1.79,1.83c0.43,0.43,0.86,0.87,1.29,1.29c0.6,0.61,1.2,1.2,1.81,1.8c1.32,1.3,2.65,2.59,3.98,3.87
			c0.57,0.54,1.14,1.08,1.71,1.62c0.92,0.88,1.85,1.74,2.79,2.59c1.21,1.13,2.43,2.24,3.66,3.33c0.8,0.71,1.58,1.42,2.39,2.11
			c1.28,1.15,2.58,2.27,3.89,3.38c0.7,0.61,1.42,1.2,2.12,1.8c2.23,1.88,4.49,3.73,6.78,5.56c0.61,0.5,1.24,0.98,1.85,1.47
			c2.91,2.3,5.86,4.56,8.84,6.78c2.07,1.54,4.16,3.05,6.25,4.55c3.58,2.56,7.18,5.04,10.85,7.45c0,0.01,0.01,0.01,0.02,0.02
			c7,4.64,14.15,9.05,21.4,13.21c1.29,0.74,2.58,1.47,3.89,2.2c9.48,5.32,19.15,10.28,28.97,14.92c0.01,0.01,0.02,0.01,0.03,0.02
			c7.47,3.52,15.05,6.86,22.7,10.03c50.28,20.81,104.11,34.17,159.07,44.67c6.94,53.22,12.58,106.61,16.92,160.11
			c0.71,8.8,1.39,17.6,2.03,26.4c0.24,3.33,0.49,6.65,0.71,9.98c0.02,0.15,0.03,0.31,0.03,0.45v0.01c0.16,2.25,0.32,4.49,0.46,6.74
			c0.43,6.25,0.84,12.52,1.23,18.77c0.16,2.51,0.32,5.03,0.46,7.55c0.22,3.63,0.42,7.26,0.63,10.9c0.01,0.04,0.01,0.08,0.01,0.13
			c0.44,7.71,0.85,15.42,1.23,23.14c0,0,0,0,0,0.01c0.03,0.55,0.05,1.1,0.08,1.65c0.08,1.71,0.16,3.42,0.24,5.13v0.01
			c0.03,0.47,0.05,0.94,0.07,1.4c0.1,2.18,0.2,4.36,0.29,6.54c0.19,4.39,0.36,8.79,0.51,13.18
			C1048.08,1065.28,1047.95,1091.87,1044.8,1118.24z"/>
		<path class="st134" d="M273.26,1457.8c19.78,23.2,52.99,34.05,82.65,26.99c-25.13,21.94-50.25,43.88-75.38,65.82
			c-13.12,11.45-27.09,24.4-29.65,41.63c-2.36,15.92,5.72,31.53,6.48,47.6c0.76,16.01-5.73,31.38-12.1,46.1
			c-4.08,9.41-8.14,18.8-12.21,28.21h-58.52c-0.4-3.34-0.87-6.68-1.32-9.98c-4.56-33.69-5.38-70.13,12.22-99.22
			c6.42-10.62,15.52-21.62,13.08-33.78c-0.73-3.66-2.53-7.21-2.14-10.92c0.68-6.47,7.29-10.25,12.17-14.53
			c9.83-8.62,14-21.89,16.94-34.64c9.52-41.26,10.65-84.43,3.33-126.14c-1.08-6.14-2.23-12.88,0.96-18.23
			c4.58-7.7,17.42-11.83,15.3-20.54c-1.52-6.25-9.91-7.8-13.81-12.92c-4.36-5.73-1.93-13.83-0.12-20.78
			c4.11-15.73,4.09-32.21,4.06-48.47c-0.12-44.27-0.23-88.54-5.31-137.38c0.23-2.43,0.46-4.85,0.7-7.28
			c0.34-3.52,0.69-7.05,1.04-10.58c0.14-1.34,0.27-2.67,0.41-4.02c0.24-2.43,0.49-4.87,0.74-7.31c0.45-4.44,0.91-8.88,1.39-13.33
			c0.61-5.72,1.24-11.45,1.88-17.18c0.51-4.44,1.02-8.86,1.54-13.3c0.01-0.05,0.02-0.09,0.02-0.14c0.52-4.39,1.06-8.78,1.6-13.17
			c0.36-2.95,0.74-5.88,1.12-8.83c0.32-2.45,0.63-4.89,0.96-7.33c0.33-2.45,0.65-4.89,0.98-7.33c0.3-2.2,0.61-4.41,0.91-6.61
			c0.05-0.41,0.11-0.8,0.17-1.2c0.32-2.29,0.65-4.56,0.98-6.84c0.29-2,0.59-3.99,0.88-5.99c0.8-5.32,1.61-10.64,2.46-15.94
			c0.77-4.86,1.56-9.73,2.39-14.58c0.42-2.43,0.83-4.85,1.26-7.27c0.39-2.24,0.79-4.48,1.19-6.72c0.06-0.38,0.14-0.76,0.21-1.14
			c0.41-2.22,0.81-4.45,1.23-6.67c0.45-2.41,0.9-4.83,1.37-7.25c0.46-2.41,0.94-4.82,1.42-7.23c0.48-2.4,0.97-4.82,1.45-7.22
			c0.5-2.4,1-4.8,1.51-7.2c0.02-0.09,0.04-0.18,0.05-0.27c0.5-2.3,0.99-4.62,1.5-6.91c0.52-2.39,1.06-4.79,1.6-7.17
			c0.44-1.99,0.9-3.97,1.37-5.95c0.45-1.99,0.92-3.98,1.4-5.96c0.61-2.56,1.23-5.11,1.86-7.67c0.43-1.75,0.88-3.5,1.32-5.24
			c1.21-4.77,2.46-9.53,3.74-14.29c0.44-1.64,0.89-3.27,1.34-4.9c0.01-0.05,0.03-0.09,0.04-0.14c0.47-1.69,0.94-3.38,1.43-5.06
			c1.73-6.12,3.52-12.21,5.39-18.27c0.32-1.05,0.64-2.1,0.97-3.14c0.36-1.16,0.72-2.31,1.09-3.47c0.31-0.98,0.61-1.95,0.93-2.93
			c1.17-3.64,2.37-7.27,3.59-10.9c0.39-1.15,0.78-2.29,1.17-3.43c0.39-1.15,0.79-2.29,1.18-3.43c0.4-1.15,0.8-2.3,1.21-3.45
			c0.62-1.76,1.26-3.52,1.89-5.28c1-2.78,2.02-5.55,3.07-8.31c0.36-0.96,0.72-1.91,1.08-2.86c1.81-4.73,3.66-9.45,5.58-14.14
			c0.71-1.75,1.43-3.5,2.16-5.24c0.31-0.75,0.61-1.49,0.93-2.23c0.33-0.8,0.67-1.59,1.01-2.39c0.47-1.11,0.95-2.21,1.43-3.33
			c0.42-0.99,0.86-1.99,1.29-2.98c0.53-1.22,1.08-2.44,1.62-3.65c0.45-1.01,0.9-2.02,1.36-3.03c0.52-1.18,1.07-2.36,1.61-3.53
			c0.47-1.03,0.95-2.05,1.43-3.07c1.14-2.48,2.31-4.93,3.5-7.38c0.42-0.87,0.84-1.73,1.26-2.59c1.91-3.91,3.86-7.8,5.86-11.67
			c0.77-1.48,1.54-2.96,2.31-4.44c0.09-0.16,0.17-0.32,0.25-0.48l8.07,66.95c0.9,2.48,1.71,4.96,2.4,7.46v0.02
			c2.19,7.9,3.36,15.89,3.74,23.97c0.31,5.99,0.16,12.03-0.33,18.08v0.01c0,0.01,0,0.01,0,0.02c-2.38,30.2-13.15,61.07-20.73,90.87
			c-7.07,27.75-11.36,56.11-15.64,84.43c-4.88,32.3-9.77,64.6-14.65,96.9c-8.84,58.45-17.67,118.1-7.57,176.34
			c11.79,68,57.75,136.24,125.78,147.82C362.65,1426.03,315.05,1436.2,273.26,1457.8z"/>
		<path class="st134" d="M1044.8,1118.24c-0.69,5.83-1.55,11.67-2.73,17.43c-1.25,6.09-2.86,12.09-5.04,17.89
			c-0.01,0.04-0.02,0.06-0.04,0.1h-0.01c0.01,0.01,0.01,0.01,0,0.02c-0.65,1.73-1.36,3.45-2.12,5.14
			c-9.42,20.87-26.65,36.98-41.96,53.99c-44.48,49.41-75.36,110.92-88.45,176.09c-2.26,11.26-4.04,22.77-8.78,33.23
			c-6.84,15.05-19.27,26.79-28.09,40.78c-11.47,18.2-16.56,40.34-14.2,61.72c0.78,6.96,2.3,13.9,1.92,20.88
			c-0.76,13.61-9.4,26.49-22.43,30.97c-7.31,19.72-3.93,41.68,0.98,62.13c5.41,22.51,12.63,45.08,11.68,68.21
			c-0.1,2.45-0.3,4.9-0.59,7.33h-98.4c9.89-37.41,15.92-75.77,24.25-113.58c12.05-54.69,29.01-108.29,50.51-160
			c1.44-3.47,2.9-6.93,4.38-10.38c0.11-0.26,0.22-0.52,0.33-0.77c24.3-56.43,54.05-110.52,88.77-161.2
			c2.68-3.91,5.39-7.81,8.11-11.69c0-0.01,0.01-0.01,0.01-0.01c18.1-25.83,36.83-51.28,51.33-79.26
			c21.61-41.72,33.17-88.55,33.78-135.52c0.17-12.65-0.46-25.31-1.91-37.88c5.63,1.35,16.58,8.55,27.69,19.55
			c0.01,0,0.01,0.01,0.01,0.01c4.55,4.5,9.14,9.64,13.39,15.28C1048.08,1065.28,1047.95,1091.87,1044.8,1118.24z"/>
		<path class="st134" d="M358,928.41c6.95,144.07,96.22,272.16,117.66,414.79c2.41,16.06,4.19,32.92,13.14,46.46
			c5.43,8.23,13.15,14.63,20.75,20.91c25.29,20.89,50.58,41.78,75.87,62.67c6.16,5.09,12.63,10.33,20.41,12.16
			c16.98,3.98,33.37-9.83,41.44-25.29c8.07-15.46,11.16-33.26,20.09-48.24c13.4-22.48,38.24-35.9,53.32-57.28
			c19.57-27.74,19.83-65.68,8.22-97.59c-11.61-31.9-33.58-58.87-56.43-83.99C578.87,1070.1,465.01,987.89,358,928.41z"/>
		<path class="st133" d="M352.16,903.08c37.38,64.7,74.76,129.4,112.14,194.1c5.57,9.64,11.77,19.86,21.94,24.39
			c9.68,4.31,21.13,2.57,31.01,6.38c6.51,2.51,11.87,7.26,17.07,11.9c64.61,57.69,130.4,116.82,172.92,192.28
			c2.91,5.16,5.74,10.5,6.7,16.34c1.07,6.53-0.28,13.2-2.07,19.57c-10.92,38.85-39.3,72.44-75.79,89.68
			c-4.24,2-8.78,3.83-13.46,3.53c-7.75-0.5-14.01-6.75-17.65-13.61c-9.95-18.75-5.32-41.56-1.63-63.15
			c-7.75,3.8-15.51,7.6-23.26,11.41c-3.76-17.61-2.25-36.31,4.29-53.09c2.85-7.31,6.03-17.07-0.25-21.78
			c-4.88-3.65-12.21-1.1-17.61-3.92c-10.33-5.41-3.65-20.67-0.79-31.98c4.39-17.34-4.39-35.27-14.95-49.71
			c-7.85-10.73-17.6-21.12-30.45-24.56c-12.85-3.45-29.03,2.91-32.01,15.87c-0.7,3.04-0.67,6.28-2.01,9.09
			c-2.67,5.6-10.25,7.55-16.08,5.41c-5.82-2.14-10-7.38-12.75-12.94c-8.07-16.35-5.9-35.58-6.49-53.79
			c-0.59-18.22-5.93-38.85-22.21-47.04c-6.39-3.21-15.51-6.52-14.5-13.6c0.56-3.95,4.35-6.5,6.6-9.79
			c3.26-4.79,3.17-11.06,2.45-16.81c-3.6-28.74-19.36-54.23-32.29-80.14C373.54,972.05,360.74,934.64,352.16,903.08z"/>
		<path class="st133" d="M640.68,653.46c35.45,47.47,60.4,102.75,72.54,160.75c5.9,28.21,9.04,57.7,22.75,83.05
			c3.29,2.73,8.7,0.26,10.46-3.63s0.97-8.41,0.12-12.59C727.53,788.4,687.15,700.23,640.68,653.46z"/>
		<path class="st133" d="M735.93,864.53c4.88,12.63,9.76,25.26,14.64,37.89c1.91,4.95,3.85,10,4.14,15.3s-1.32,10.98-5.42,14.35
			c-5.5-9.75-10.99-19.5-16.49-29.24c-0.75-1.33-1.51-2.7-1.73-4.21c-0.26-1.81,0.28-3.62,0.82-5.36
			C733.97,886.45,736.05,879.66,735.93,864.53z"/>
		<path class="st133" d="M481.51,1087.18c8.23,13.99,16.47,27.98,24.7,41.97c-10.52-1.06-19.55-7.62-28.02-13.94
			c-1.14-0.85-2.31-1.74-2.98-2.98c-0.51-0.95-0.7-2.03-0.85-3.1C473.18,1100.48,474.22,1091.55,481.51,1087.18z"/>
		<path class="st133" d="M349.97,678.65c-0.91,22.69-1.83,45.38-2.74,68.07c-0.7,17.46-1.4,34.92-2.11,52.36
			c-0.19,4.81-0.93,10.16-2.39,15.07c-0.58,1.98-1.28,3.89-2.11,5.66c-3.07,6.58-7.91,11.34-15.06,11.06
			c-34.97,32.74-32.84,86.95-35.65,133.39c-5.51,90.95-42.03,179.07-37.92,270.09c1.91,42.16,12.69,83.89,31.44,121.71
			c-8.95,1.88-16.67,8.82-19.49,17.53c21.22,9.78,43.71,16.79,66.71,20.8c-12.69,11.1-25.7,22.39-41.33,28.72
			c-15.63,6.33-34.64,6.87-48.4-2.89c19.32,34.35,35.7,70.35,48.91,107.48c-12.75-15.09-33.87-31.45-49.73-19.68
			c12.47,19.91-13.58,42.34-16.44,65.67c-3.52,28.79,29.32,53.16,24.57,81.78c-15.43-10.48-33.39-17.22-51.91-19.48
			c-7.88,25.02-3.95,51.8-3.79,78.18h-18c-0.4-3.34-0.87-6.68-1.32-9.98c-4.56-33.69-5.38-70.13,12.22-99.22
			c6.42-10.62,15.52-21.62,13.08-33.78c-0.73-3.66-2.53-7.21-2.14-10.92c0.68-6.47,7.29-10.25,12.17-14.53
			c9.83-8.62,14-21.89,16.94-34.64c9.52-41.26,10.65-84.43,3.33-126.14c-1.08-6.14-2.23-12.88,0.96-18.23
			c4.58-7.7,17.42-11.83,15.3-20.54c-1.52-6.25-9.91-7.8-13.81-12.92c-4.36-5.73-1.93-13.83-0.12-20.78
			c4.11-15.73,4.09-32.21,4.06-48.47c-0.12-44.27-0.23-88.54-5.31-137.38c0.23-2.43,0.46-4.85,0.7-7.28
			c0.34-3.52,0.69-7.05,1.04-10.58c0.14-1.34,0.27-2.67,0.41-4.02c0.24-2.43,0.49-4.87,0.74-7.31c0.45-4.44,0.91-8.88,1.39-13.33
			c0.61-5.72,1.24-11.45,1.88-17.18c0.51-4.44,1.02-8.86,1.54-13.3c0.01-0.05,0.02-0.09,0.02-0.14c0.52-4.39,1.06-8.78,1.6-13.17
			c0.36-2.95,0.74-5.88,1.12-8.83c0.32-2.45,0.63-4.89,0.96-7.33c0.33-2.45,0.65-4.89,0.98-7.33c0.3-2.2,0.61-4.41,0.91-6.61
			c0.05-0.41,0.11-0.8,0.17-1.2c0.32-2.29,0.65-4.56,0.98-6.84c0.29-2,0.59-3.99,0.88-5.99c0.8-5.32,1.61-10.64,2.46-15.94
			c0.78-4.87,1.57-9.73,2.39-14.58c0.42-2.43,0.83-4.85,1.26-7.27c0.39-2.24,0.79-4.48,1.19-6.72c0.06-0.38,0.14-0.76,0.21-1.14
			c0.41-2.22,0.81-4.45,1.23-6.67c0.45-2.41,0.9-4.83,1.37-7.25c0.46-2.41,0.94-4.82,1.42-7.23c0.48-2.4,0.97-4.82,1.45-7.22
			c0.5-2.4,1-4.8,1.51-7.2c0.02-0.09,0.04-0.18,0.05-0.27c0.5-2.3,0.99-4.62,1.5-6.91c0.52-2.39,1.06-4.79,1.6-7.17
			c0.44-1.99,0.9-3.97,1.37-5.95c0.45-1.99,0.92-3.98,1.4-5.96c0.61-2.56,1.23-5.11,1.86-7.67c0.43-1.75,0.88-3.5,1.32-5.24
			c1.21-4.77,2.46-9.53,3.74-14.29c0.44-1.64,0.89-3.27,1.34-4.9c0.01-0.05,0.03-0.09,0.04-0.14c0.47-1.69,0.94-3.38,1.43-5.06
			c1.73-6.12,3.52-12.21,5.39-18.27c0.32-1.05,0.64-2.1,0.97-3.14c0.36-1.16,0.72-2.31,1.09-3.47c0.31-0.98,0.61-1.95,0.93-2.93
			c1.17-3.64,2.37-7.27,3.59-10.9c0.39-1.15,0.78-2.29,1.17-3.43c0.39-1.15,0.79-2.29,1.18-3.43c0.4-1.15,0.8-2.3,1.21-3.45
			c0.62-1.76,1.26-3.52,1.89-5.28c1-2.78,2.02-5.55,3.07-8.31c0.36-0.96,0.72-1.91,1.08-2.86c1.81-4.73,3.66-9.45,5.58-14.14
			c0.71-1.75,1.43-3.5,2.16-5.24c0.31-0.75,0.61-1.49,0.93-2.23c0.33-0.8,0.67-1.59,1.01-2.39c0.47-1.11,0.95-2.21,1.43-3.33
			c0.42-0.99,0.86-1.99,1.29-2.98c0.53-1.22,1.08-2.44,1.62-3.65c0.45-1.01,0.9-2.02,1.36-3.03c0.52-1.18,1.07-2.36,1.61-3.53
			c0.47-1.03,0.95-2.05,1.43-3.07c1.14-2.48,2.31-4.93,3.5-7.38c0.42-0.87,0.84-1.73,1.26-2.59c1.91-3.91,3.86-7.8,5.86-11.67
			c0.77-1.48,1.54-2.96,2.31-4.44c0.09-0.16,0.17-0.32,0.25-0.48c0.59-1.1,1.17-2.2,1.76-3.3c0.46-0.86,0.93-1.73,1.4-2.59
			c1.05-1.92,2.11-3.86,3.18-5.77c1.37-2.47,2.77-4.93,4.19-7.38c0.7-1.22,1.42-2.45,2.14-3.67c1.03-1.75,2.08-3.51,3.14-5.25
			c0.82-1.36,1.64-2.72,2.48-4.08C347.86,682.02,348.9,680.33,349.97,678.65z"/>
		<path class="st133" d="M1044.8,1118.24c-0.69,5.83-1.55,11.67-2.73,17.43c-3.66-17.67-8.36-35.07-14.77-51.97
			c-9.58-25.25-22.82-48.91-36-72.48c-13.27-23.72-26.55-47.44-39.82-71.17c-13.45-24.05-27.33-48.61-48.22-66.6
			c-1.24-5.48-1.62-11.56-1.27-18.03c0.78-14.57,5.3-31.09,12.2-47.13c1.6-3.72,3.33-7.41,5.16-11.04c1.32-2.61,2.81-5.32,5.32-6.8
			c6.36-3.77,13.88,2.28,18.77,7.82c31.92,36.14,63.84,72.3,95.77,108.44c2.86,35.2,5.15,70.45,6.88,105.72
			C1047.83,1047.7,1048.99,1083.17,1044.8,1118.24z"/>
		<path class="st133" d="M915.1,824.58c-1.35,10.88-6.41,21.22-13.09,30.86v0.01c-6.13,8.84-13.62,17.1-20.88,24.69
			c-2.67,2.77-5.77,5.76-9.61,5.77c-5.78,0.05-9.21-6.27-11.42-11.61c-22.36-53.93-55.1-103.54-95.9-145.29
			c-31.2-31.93-67.85-60.4-87.43-100.52c-5.82-11.93-10.03-25.01-9.37-38.27c0.32-6.25,1.85-12.55,4.57-18.21
			c2.75-5.73,6.71-10.79,11.85-14.47c21.56,35.8,51.33,66.76,85.31,92c2.07,1.54,4.16,3.05,6.25,4.55
			c22.17,28.81,52.8,50.63,79.47,75.73c16.44,15.46,31.55,32.36,44.79,50.62c6.19,8.54,12.1,17.67,14.57,27.86c0,0.01,0,0.01,0,0.01
			c0.24,0.98,0.44,1.97,0.61,2.96c0.23,1.35,0.4,2.68,0.51,4.01C915.57,818.42,915.48,821.51,915.1,824.58z"/>
		<path class="st135" d="M951.64,838.92c-12.59-3.95-24.76-8.77-36.54-14.35c-2.02-0.95-4.03-1.93-6.03-2.93
			c-65.82-32.95-119.46-89.35-166.12-147.44c-25.94-32.3-50.79-66.11-70.99-102.2c-10.77-19.25-20.23-39.14-27.82-59.81
			c5.68-0.83,11.37-1.65,17.05-2.48c5.87,16.76,13.52,32.72,22.62,47.82c21.56,35.8,51.33,66.76,85.31,92
			c32.94,47.25,68.88,92.16,109.7,132.84c10.69,10.65,21.75,21.04,33.5,30.51c0.99,0.81,2,1.61,3.01,2.39
			C926.71,824.25,938.74,832.32,951.64,838.92z"/>
		<g>
			<path class="st2" d="M950.92,859.87c-20.72,59.97-29.9,123.92-26.77,187.29c2.06,41.81,9.39,83.38,8.55,125.22
				c-0.38,19.17-2.48,38.21-5.31,57.18c-2.24,14.89-4.93,29.73-7.63,44.54c-5.48,30.11-10.95,60.23-16.42,90.33
				c-3.61,19.83-7.97,41.11-22.71,54.87c-0.26,0.24-0.52,0.48-0.79,0.7c-8.08,7.23-18.18,11.4-28.77,14.34
				c-5.82,1.61-11.77,2.84-17.64,3.99c-23.61,4.67-49.58,8.67-70.56-3.13c-10.62-5.96-18.77-15.4-26.54-24.76
				c-23.09-27.83-44.84-56.77-65.14-86.69c-10.24-15.88-24.35-37.41-37.86-59.32c-71.1-51.83-131.18-126.8-167.68-212.02
				c3.87-5.71,8.05-11.35,12.52-16.88c9.95-12.33,21.31-24.17,33.72-35.34c3.92-3.54,7.94-7,12.06-10.38
				c16.55-13.64,34.6-26.1,53.42-37c44.98-26.06,94.37-43.66,144.3-58.17c1.71-0.5,3.61-0.98,5.22-0.23
				c1.47,0.67,2.33,2.19,3.1,3.61c5.61,10.42,11.22,20.85,16.84,31.27c8.26,15.34,16.52,30.68,24.79,46.02
				c0.04-0.06,0.07-0.13,0.12-0.19c2.02-3.35,4.03-6.67,6.05-9.97c17.04-27.93,33.93-54.26,47.66-82.22
				c12.05-24.56,21.71-51.04,24.05-78.09c0.27-3.1,0.44-6.2,0.52-9.31c0.1-4.38-0.01-8.77-0.34-13.17l112.13,48.89
				C957.88,840.67,954.24,850.22,950.92,859.87z"/>
			<path class="st3" d="M729.29,1137.31c22.54,18.09,30.44,48.41,36.75,76.61s13.52,58.53,35.34,77.47
				c-2.78-30.39-20.86-57.11-28.9-86.55c-2.85-10.44-4.43-21.2-7.63-31.53c-7.67-24.76-24.89-46.44-47.28-59.51
				c-3.9,3.59-1.49,10.26,2.28,13.99C723.62,1131.52,728.66,1134.39,729.29,1137.31z"/>
			<path class="st3" d="M862.33,1239.19c-3.08,11.43-6.16,22.86-9.23,34.3c-0.96,3.57-1.76,7.89,0.8,10.57
				c3.62,3.79,10.39,0.38,12.6-4.38c2.21-4.75,1.98-10.34,4.07-15.15c3.32-7.67,12.13-12.54,13.57-20.77
				c0.93-5.33-1.54-10.6-3.94-15.45c-1.21-2.45-3-5.26-5.73-5.19c-1.34,0.03-2.54,0.8-3.6,1.62
				C863.09,1230.8,859.7,1240.77,862.33,1239.19z"/>
			<path class="st3" d="M601.66,1011.11c29.42,22.16,49.6,56.43,82.75,72.47c2.05-5.83-2.94-11.56-7.5-15.74
				c-13.99-12.83-27.97-25.65-41.96-38.48c-7.41-6.8-14.83-13.6-22.7-19.87c-6.8-5.42-14.29-10.59-22.9-11.84
				C588.92,1000.34,590.06,1002.37,601.66,1011.11z"/>
			<path class="st3" d="M567.89,1068.6c4.09,16.62,8.21,33.45,8.04,50.56c-0.13,12.91-2.45,26.94,4.49,37.82
				c7-17.35,8.9-36.72,5.4-55.1c-1.1-5.76-2.73-11.47-5.53-16.61C575.92,1077.24,568.95,1071.01,567.89,1068.6z"/>
			<path class="st3" d="M651.69,1143.22c14.78,3.86,29.03,9.73,42.23,17.4c13.78,8,26.55,18.09,36,30.92
				c9.45,12.82,15.42,28.54,14.95,44.47c-6.48-8.98-9.26-20.1-14.74-29.72c-7.74-13.59-20.53-23.59-33.96-31.6
				c-13.43-8.01-27.81-14.39-40.97-22.83C649.37,1148.11,643.24,1141.02,651.69,1143.22z"/>
			<path class="st3" d="M706.88,989.24c13.33,6.94,23.73,18.46,32.27,30.82s15.51,25.74,23.87,38.22c1.03,1.53,2.76,3.26,4.42,2.45
				c0.85-0.42,1.28-1.38,1.52-2.3c1.63-6.25-2.45-12.43-6.32-17.61c-7.42-9.94-14.84-19.88-22.26-29.82
				c-7.16-9.59-15.16-19.77-26.71-22.91c-2.4-0.65-4.97-1.01-7.01-2.43C704.62,984.24,703.36,981.25,706.88,989.24z"/>
			<path class="st3" d="M915.15,894.07c-4.03,51.9-8.06,103.8-12.09,155.7c-0.19,2.49-0.88,5.59-3.32,6.13
				c-4.47-8.65-3.87-18.94-3.12-28.65c2.27-29.55,4.83-59.08,7.39-88.61C905.51,921.3,907.2,903.32,915.15,894.07z"/>
			<path class="st4" d="M851.07,1434.35c-5.82,1.61-11.77,2.84-17.64,3.99c-23.61,4.67-49.58,8.67-70.56-3.13
				c-10.62-5.96-18.77-15.4-26.54-24.76c-23.09-27.83-44.84-56.77-65.14-86.69c-10.24-15.88-24.35-37.41-37.86-59.32
				c-71.1-51.83-131.18-126.8-167.68-212.02c3.87-5.71,8.05-11.35,12.52-16.88c9.95-12.33,21.31-24.17,33.72-35.34
				c3.92-3.54,7.94-7,12.06-10.38c2.03,5.58,3.51,11.23,2.66,17.09c-2.44,16.84-3,33.91-1.78,50.86
				c4.04,56.64,27.82,111.95,67.18,152.96c2.3,2.4,5.26,4.95,8.52,4.31c4.5-0.89,5.59-6.76,5.67-11.35
				c0.37-21.37,0.44-42.74,0.23-64.11c-0.1-10.65-0.31-21.48-3.42-31.66c-3.29-10.73-9.63-20.21-15.06-30.05
				c-10.36-18.74-17.58-39.22-21.25-60.32c22.36,30.17,48.47,57.55,77.55,81.32c2.48,2.03,5.12,4.21,6.12,7.27
				c1,3.05-0.53,7.16-3.71,7.59c-1.37,0.18-2.74-0.33-4.03-0.82c-5.84-2.25-11.67-4.5-17.51-6.75c-0.59,23.82-1.17,47.64-1.76,71.47
				c-0.15,6.09-0.29,12.28,1.2,18.19c1.91,7.53,6.33,14.12,10.69,20.56l64.92,95.94c25.24,37.28,52.05,76.02,91.83,97.08
				c-2.97,0.32-5.95,0.63-8.91,0.94c20.42,12.94,43.77,21.2,67.79,23.99C850.93,1434.33,851.01,1434.34,851.07,1434.35z"/>
			<path class="st4" d="M879.69,864.16c-1.67,9.11-9.33,15.68-16.13,21.95c-13.92,12.81-26.14,27.48-36.25,43.47
				c2.95-0.61,5.23,3.19,4.49,6.12c-0.74,2.93-3.23,5.02-5.44,7.08c-14.88,13.89-21.94,35.67-18.01,55.64
				c1.08,5.51,4.36,11.95,9.98,11.82c4.51-0.1,9.56-4.47,12.85-1.38c3.69,3.45-1.7,8.78-5.77,11.79
				c-11.2,8.28-15.39,24.78-9.49,37.4c2.15,4.58,5.48,8.77,6.16,13.79c0.57,4.17-0.8,8.32-1.95,12.37
				c-6.63,23.02-7.41,47.25-8.13,71.2c-0.18,5.83-0.31,11.9,2.11,17.2c2.01,4.38,5.59,7.87,7.73,12.19
				c4.53,9.15,3.02,22.39,11.98,27.29c2.15,1.17,4.73,1.68,6.42,3.44c1.73,1.8,2.13,4.46,2.45,6.95c1.13,8.93,2.26,17.85,3.39,26.77
				c-24.77-36.4-49.71-79.1-45.61-124.7c1.66-18.54,8.15-36.55,8.29-55.17c0.21-28.09-13.9-54.05-27.61-78.56
				c-4.03-7.19-3.97-16.26-3.36-25.67c17.04-27.93,33.93-54.26,47.66-82.22c12.05-24.56,21.71-51.04,24.05-78.09
				c0.97-1.94,2.07-3.82,3.68-5.26c7.44-6.63,19.5,0.35,24.36,9.05c9.42,16.83,5.15,40.1-9.64,52.49
				C870.85,864.22,875.61,865.45,879.69,864.16z"/>
			<path class="st4" d="M836.21,1250.91c-6.88,1.69-13.43,4.71-19.19,8.82c-0.28,14.29,16.66,23.34,19.52,37.34
				c1.16,5.7-0.16,11.61,0.29,17.41c0.45,5.8,3.71,12.24,9.47,13.05c2.5,0.35,5.01-0.44,7.37-1.33
				c24.18-9.16,43.17-30.96,48.92-56.17c2.36-10.33,2.61-21.03,4.44-31.47c2.1-11.97,6.24-23.51,8.27-35.5s1.71-24.98-4.54-35.4
				c-15.25,33.63-8.08,74.23-23.7,107.68c-4.26,9.11-10.14,17.46-17.29,24.53c-2.88,2.85-6.29,5.64-10.34,5.91
				c-9.28,0.63-13.86-11.42-13.1-20.69c0.75-9.27,3.55-19.64-1.97-27.11C839.71,1251.7,830.38,1249.64,836.21,1250.91z"/>
			<path class="st4" d="M924.14,1047.16c2.06,41.81,9.39,83.38,8.55,125.22c-0.38,19.17-2.48,38.21-5.31,57.18
				c-2.2-24.2-2.52-48.72-4.44-72.97c-0.93-11.73-2.23-23.41-3.24-35.13c-5.12-58.96-2.98-118.55,6.36-177
				c2.72-17.05,6.07-34.27,4.54-51.47c-1.53-17.2-8.75-34.81-23.03-44.51c3.78,0.19,11.01-2.01,17.59-1.39
				c6.6,0.61,12.72,3.58,18.55,6.71c1.67,0.9,3.35,1.83,4.76,3.1c0.98,0.89,1.79,1.88,2.45,2.96
				C930.2,919.84,921.02,983.79,924.14,1047.16z"/>
			<path class="st4" d="M746.84,929.29c-31.08,3.56-61.45,13.01-91.1,23.3c-12.8,4.44-25.56,9.06-37.64,15.2
				c-38.97,19.84-67.75,53.84-93.27,89.98c-7.13,10.09-14.01,20.36-20.77,30.52c-10.87-24.53-6.42-57.43,7.83-88.08
				c3.92-3.54,7.94-7,12.06-10.38c16.55-13.64,34.6-26.1,53.42-37c44.98-26.06,94.37-43.66,144.3-58.17
				c1.71-0.5,3.61-0.98,5.22-0.23c1.47,0.67,2.33,2.19,3.1,3.61C735.61,908.44,741.22,918.87,746.84,929.29z"/>
			<path class="st5" d="M879.84,1420.01c-12.52,11.2-29.88,15.07-46.41,18.33c-23.61,4.67-49.58,8.67-70.56-3.13
				c-10.62-5.96-18.77-15.4-26.54-24.76c-23.09-27.83-44.84-56.77-65.14-86.69c-10.24-15.88-24.35-37.41-37.86-59.32
				c-71.1-51.83-131.18-126.8-167.68-212.02c3.87-5.71,8.05-11.35,12.52-16.88c17.91,64.76,52.38,124.91,99.3,173.02
				c6.03,6.19,12.43,12.3,20.32,15.8c2.88,1.27,5.99,2.23,8.38,4.28c5.84,5.02,6.4,15.65,13.77,17.85
				c4.59,1.37,9.53-1.51,14.23-0.59c4.55,0.89,7.62,5.03,10.23,8.86c17.16,25.1,34.31,50.2,51.47,75.32
				c20.74,30.35,44.08,62.69,79.19,73.58c-19.55-3.7-38.38-11.23-55.08-22.04c12.23,10.51,20.86,24.57,32.21,36.04
				c11.35,11.47,27.33,20.6,43.06,17.05c4.98-1.13,9.64-3.47,14.66-4.42c9.67-1.83,19.87,1.66,29.38-0.85
				c8.35-2.2,14.91-8.69,22.97-11.77C867.98,1415.48,875.61,1416.28,879.84,1420.01z"/>
			<path class="st5" d="M850.44,824.7c-1.34,21.05-2.74,42.41-9.8,62.28c-13.99,39.42-49.34,70.64-54.31,112.18
				c-5.89-7.33-10.81-15.44-14.59-24.05c19.07-31.7,38.37-60.92,53.71-92.19c13.44-27.37,23.89-57.12,24.57-87.4
				C851.62,805.03,851.05,815.01,850.44,824.7z"/>
		</g>
		<g>
			<path class="st2" d="M1390.02,1195.27c-3.61,23.2-5.28,46.7-4.98,70.17c0.12,9.52,0.54,19.21-2.01,28.38
				c-0.8,2.88-1.88,5.65-3.22,8.29c-6.33,12.57-18.27,22.15-31.62,27.47c-1.82,0.73-3.66,1.37-5.51,1.93
				c-18.38,5.58-38.15,4.25-57.1,1.08c-13.68-2.29-27.47-5.61-39.28-12.88c-17.42-10.72-28.73-28.79-39.42-46.22
				c-20.5-6.6-37.83-23.99-58.79-35.34c-10.74-5.83-22.31-9.98-33.34-15.24c-22.18-10.58-41.9-25.48-60.95-41.12
				c-4.71-3.87-9.38-7.78-14.04-11.68c-1.28-1.08-2.61-2.2-3.37-3.7c-1.31-2.56-0.74-5.63-0.19-8.44c0.29-1.48,0.56-2.95,0.81-4.44
				c9.7-55.24,0.16-112.05-9.39-167.41c-6.23-9.36-12.14-18.49-17.31-28.03c-16.28-22.11-35.95-45.19-56.83-67.11
				c-8.27-8.67-16.75-17.2-26.27-24.47c-14.89-11.39-32.01-19.49-47.51-30.01c-30.52-20.69-53.94-50.03-76.86-78.91
				c-28.69-29.23-56.87-59.18-83.16-90.75c-6.8-8.17-13.89-18.37-11.45-28.49c0.11-0.43,0.23-0.86,0.37-1.29
				c2.08-6.46,8.62-10.72,15.4-11.56c1.82-0.23,3.64-0.21,5.4,0.08c1.23,0.2,2.42,0.52,3.55,0.99c0.38,0.15,0.75,0.33,1.11,0.51
				c-10.35-11.28-20.69-22.56-31.04-33.84c-5.73-6.26-11.8-13.28-12.1-21.77c-0.07-1.96,0.2-3.91,0.78-5.78c0,0,0-0.01,0-0.02
				c1.16-3.78,3.52-7.19,6.73-9.5c3.68-2.63,8.38-3.74,12.83-2.92c1.01,0.18,2.01,0.46,2.98,0.86c0.34,0.14,0.69,0.29,1.03,0.45
				c-4.01-3.71-8.06-7.47-11.28-11.87c-0.53-0.72-1.04-1.47-1.53-2.23c-3.4-5.39-5.39-11.95-4.05-18.18
				c0.17-0.78,0.4-1.54,0.68-2.27c1.09-2.95,3.03-5.56,5.46-7.6c4.19-3.53,9.86-5.37,15.26-4.36c8.3,1.55,14.42,8.43,21.33,13.17
				c0.1,0.08,0.23,0.15,0.34,0.23c0.88,0.6,1.77,1.16,2.68,1.65c-0.03-0.08-0.06-0.16-0.09-0.24c-1.61-4.61,0.54-9.48,4.28-12.8
				c2.2-1.95,4.97-3.37,7.83-3.88c7.78-1.37,15.56,1.92,22.72,5.26c32.62,15.21,61.57,37.19,93.72,53.37
				c15.49,7.8,24.66,20.48,36.73,30.02c6.03,4.76,8.82,10.54,14.26,15.96c16.36,16.29,31.5,33.7,49.67,47.95
				c15.61,8.61,11.88,2.76,30.84,15.83c8.87,6.12,15.42,20.67,18.51,31.08c7.81,26.27,16.1,52.36,31.71,74.66
				c10.53,15.04,23.99,27.74,36.05,41.58c33.93,38.92,56.56,86.67,90.71,125.39c27.23,30.88,61.04,55.17,90.63,83.79
				c21.53,20.83,40.77,43.88,59.96,66.89c18.08,17.55,35.88,39.52,51.28,63.07c3.42,5.23,6.8,10.71,7.91,16.86
				C1391.94,1183.61,1390.92,1189.51,1390.02,1195.27z"/>
			<path class="st3" d="M706.77,560.87c3.99,4.18,7.97,8.37,11.96,12.55c0.53-1.98,3.37-3.26,2.77-5.22
				c-0.17-0.55-0.59-0.97-1.02-1.36C716.65,563.32,711.76,560.97,706.77,560.87z"/>
			<path class="st3" d="M714.2,513.36c3.53,3.8,7.05,7.6,10.58,11.39c1.15-0.41,2.34-0.86,3.18-1.73s1.23-2.33,0.53-3.33
				c-0.36-0.51-0.93-0.83-1.49-1.12C721.91,515.84,716.82,513.12,714.2,513.36z"/>
			<path class="st3" d="M756.94,510.42c4.94,3.78,9.65,7.85,14.1,12.19c0.67-1.85,1.33-3.71,2-5.56c0.13-0.36,0.26-0.74,0.18-1.12
				c-0.1-0.46-0.48-0.79-0.86-1.07C767.66,511.48,761.04,511.96,756.94,510.42z"/>
			<path class="st3" d="M725.43,633.24c3.06,3.7,6.13,7.4,9.19,11.1c0.51-1.31,1.02-2.62,1.52-3.92c0.2-0.5,0.39-1.05,0.26-1.57
				c-0.11-0.43-0.42-0.78-0.76-1.06C732.67,635.2,727.34,635.72,725.43,633.24z"/>
			<path class="st3" d="M838.19,762.59c1.59,3.11,3.17,6.22,4.76,9.32c3.99-0.09,7.97,1.87,10.34,5.08
				c1.49,2.02,2.35,4.45,3.82,6.49c1.47,2.04,3.91,3.73,6.37,3.17c2.42-0.55,3.92-3.14,4.07-5.62s-0.71-4.89-1.47-7.25
				c-2.33-7.22-3.79-14.72-4.34-22.29c-0.1-1.37-0.19-2.8-0.9-3.97c-0.6-0.98-1.58-1.66-2.53-2.31c-1.91-1.31-3.82-2.61-5.74-3.92
				c-1.83-1.25-3.94-2.56-6.1-2.11c-2.54,0.53-3.95,3.21-4.83,5.66C839.24,751.52,836.41,759.11,838.19,762.59z"/>
			<path class="st3" d="M831.89,615.13c21.64,17.95,43.28,35.89,64.92,53.84c2.65,2.19,5.77,4.53,9.16,3.96
				c-2.78-10.39-11.68-17.8-20.09-24.49C868.51,634.63,851.09,620.77,831.89,615.13z"/>
			<path class="st3" d="M863.91,577.2c17.83,16.83,35.65,33.66,53.48,50.49c2.56,2.41,5.28,4.92,8.69,5.74
				c1.26-3.82-1.69-7.63-4.42-10.58C904.66,604.53,887.14,585.81,863.91,577.2z"/>
			<path class="st3" d="M809.92,662.05c16.65,19.18,36.15,35.89,57.66,49.4c1.96,1.23,5.07,2.17,6.14,0.12
				C854.79,693.7,834.67,677.06,809.92,662.05z"/>
			<path class="st3" d="M1070.83,945.96c20.82,13.68,41.64,27.37,62.46,41.05c7.28,4.79,14.68,9.63,22.97,12.3
				c-16.3-19.65-37.4-35.27-60.94-45.13C1084.33,949.59,1071.76,945.31,1070.83,945.96z"/>
			<path class="st3" d="M1264.44,1240.96c17.6,15.15,36.29,30.85,59.06,35.43C1305.45,1257.71,1284.21,1242.13,1264.44,1240.96z"/>
			<path class="st3" d="M1262.13,1066.42c40.69,29.46,78.52,67.06,92.9,115.2C1327.76,1139.77,1295.83,1100.95,1262.13,1066.42z"/>
			<path class="st3" d="M906.21,788.57c19.7,10.48,35.39,27.96,56.15,36.13c-8.07-10.6-19.77-17.71-31.03-24.82
				C921.74,793.81,912.27,787.57,906.21,788.57z"/>
			<path class="st4" d="M1379.82,1302.11c-6.33,12.57-18.27,22.15-31.62,27.47c-1.82,0.73-3.66,1.37-5.51,1.93
				c-18.38,5.58-38.15,4.25-57.1,1.08c-13.68-2.29-27.47-5.61-39.28-12.88c-17.42-10.72-28.73-28.79-39.42-46.22
				c-20.5-6.6-37.83-23.99-58.79-35.34c-10.74-5.83-22.31-9.98-33.34-15.24c-22.18-10.58-41.9-25.48-60.95-41.12
				c-5.58-9.42-11.15-18.86-16.79-28.26c9.7-55.24,0.16-112.05-9.39-167.41c-6.23-9.36-12.14-18.49-17.31-28.03
				c-16.28-22.11-35.95-45.19-56.83-67.11c-8.27-8.67-16.75-17.2-26.27-24.47c-14.89-11.39-32.01-19.49-47.51-30.01
				c-30.52-20.69-53.94-50.03-76.86-78.91c-28.69-29.23-56.87-59.18-83.16-90.75c-6.8-8.17-13.89-18.37-11.45-28.49
				c0.11-0.43,0.23-0.86,0.37-1.29c2.08-6.46,8.62-10.72,15.4-11.56l1.53,0.73c-8.65,0.44-13.37,11.44-10.93,19.74
				c2.43,8.31,9.38,14.36,15.74,20.22c44.47,40.96,76.27,96.09,127.58,128.03c17.07,10.63,35.86,18.36,52.48,29.67
				c12.62,8.59,23.79,19.11,34.91,29.58c36.64,34.54,73.27,69.06,110.3,102.39c15.12,10.54,28.37,23.73,38.97,38.79
				c-6.26-2.5-13.24-3.2-19.88-1.99c11.83,8.16,23.66,16.31,35.49,24.46c-10.97,1.52-24.17,4.88-27.13,15.55
				c-1.55,5.64,0.45,11.62,2.94,16.92c7.14,15.21,18.49,28.42,32.46,37.76c10.77,7.19,23.59,12.69,30.14,23.86
				c5.15,8.77,5.42,19.48,8.34,29.23c10.53,35.15,51.89,50.88,72,81.58c8.08,12.33,12.42,26.67,18.99,39.88
				c6.56,13.19,16.31,25.97,30.33,30.52c15.22,4.94,31.54-0.83,46.96-5.07c15.42-4.25,33.68-6.4,45.88,3.95
				C1374.66,1294.32,1377.35,1298.14,1379.82,1302.11z"/>
			<path class="st4" d="M1081.17,1004.67c57.87,16.34,108.58,56.62,137.6,109.29c-33.11-35.46-67.75-71.81-112.56-90.4
				C1093.03,1018.08,1077.45,1012.62,1081.17,1004.67z"/>
			<path class="st4" d="M713.13,634.23c2.46,7.47,7,14.23,12.97,19.34c-0.93,1.07-2.6,1.2-3.92,0.69c-1.32-0.51-2.36-1.53-3.36-2.52
				c-3.17-3.17-6.41-6.65-7.36-11.03C711.01,638.63,711.35,636.05,713.13,634.23z"/>
			<path class="st4" d="M873.36,734.63c-4.27,2.15-9.39,0.45-13.85-1.27c-13.96-5.37-28.11-10.84-40.17-19.71
				c-6.32-4.64-11.94-10.12-17.54-15.59c-10.83-10.56-21.67-21.13-32.49-31.7c-5.86-5.71-11.71-11.42-17.35-17.36
				c-7.44-7.83-14.61-16.16-22.55-23.44c1.64,0.26,3.21,0.76,4.66,1.5c-10.35-11.28-20.69-22.56-31.04-33.84
				c-5.73-6.26-11.8-13.28-12.1-21.77c-0.22-5.92,2.7-11.86,7.51-15.3c4.52-3.23,10.57-4.17,15.81-2.06
				c-7.2-0.13-14.28,4.48-17.07,11.13c-2.81,6.73-1.05,15.11,4.23,20.14c5.97,5.68,15.68,7.26,19.74,14.42
				c1.23,2.18,1.85,4.76,3.61,6.54c1.17,1.18,2.73,1.89,4.21,2.66c7.93,4.12,14.31,10.64,20.61,16.98
				c23.31,23.52,47.39,46.31,72.92,67.41c13.7,11.32,27.81,22.15,42.3,32.45C868.18,728.23,871.74,730.81,873.36,734.63z"/>
			<path class="st4" d="M886.99,681.76c-6.52,1.46-12.26-4.51-18.8-5.94c-3.62-0.8-7.4-0.15-11.09-0.52
				c-8.73-0.87-15.85-7.17-21.99-13.43c-8.6-8.76-16.66-18.12-26.32-25.68c-6.14-4.81-12.85-8.83-19.21-13.33
				c-16.27-11.52-30.1-26.1-43.7-40.67c-5-5.36-10.01-10.75-15.73-15.34c-5-4-10.48-7.35-15.64-11.13c-1.09-0.8-2.17-1.63-3.23-2.48
				c1.01,0.18,2.01,0.46,2.98,0.86c0.34,0.14,0.69,0.29,1.03,0.45c-4.67-4.33-9.4-8.72-12.8-14.11c-3.4-5.39-5.39-11.95-4.05-18.18
				c0.84-3.89,3.1-7.32,6.14-9.87c-1.95,3.8-2.89,8.12-2.63,12.4c0.22,3.61,1.31,7.25,3.56,10.09c1.52,1.92,3.51,3.41,5.48,4.87
				c13.08,9.75,26.17,19.52,40.08,28.05c6.32,3.87,12.82,7.51,18.44,12.31c3.47,2.96,6.56,6.33,9.67,9.67
				c11.95,12.8,24.35,25.17,37.57,36.64c18.3,15.87,38.13,29.97,59.13,42.05C881.14,671.52,887.23,675.67,886.99,681.76z"/>
			<path class="st4" d="M695.77,573.28c2.97,1.83,5.04,4.8,7.74,7.01c2.7,2.21,6.71,3.6,9.62,1.67c-3.92-0.37-7.26-2.96-9.99-5.79
				c-2.73-2.83-5.14-6.04-8.39-8.27C694.08,569.29,693.62,571.96,695.77,573.28z"/>
			<path class="st4" d="M700.35,524.11c3.1,4.22,7.36,7.59,12.19,9.61c1.2,0.51,2.56,0.93,3.8,0.53s2.13-2.02,1.37-3.08
				c-0.35-0.49-0.95-0.74-1.5-0.99c-5.22-2.39-8.93-7.09-12.66-11.45c-0.8-0.94-2.32-1.89-3.09-0.92c-0.2,0.25-0.27,0.57-0.33,0.89
				C699.84,520.15,698.85,522.07,700.35,524.11z"/>
			<path class="st4" d="M742.76,522.04c12.37,5.94,24.81,11.91,36.04,19.79c4.44,3.11,8.67,6.51,12.89,9.9
				c15.61,12.53,31.22,25.07,46.08,37.8c15.03,16.17,30.99,31.47,47.79,45.8c0.7,0.59,1.47,1.22,2.39,1.25
				c1.25,0.04,2.21-1.01,3.22-1.74c3.27-2.39,7.87-1.69,11.62-0.16c3.75,1.53,7.29,3.79,11.31,4.33
				c-3.55-4.64-7.15-9.32-11.72-12.97c-4.56-3.65-10.26-6.21-16.09-5.89c-2.08,0.11-4.19,0.59-6.23,0.17
				c-2.07-0.42-3.84-1.7-5.54-2.96c-4.06-2.98-8.25-6.13-10.56-10.6c-0.88-1.71-1.46-3.57-2.53-5.17c-2.01-2.99-5.44-4.63-8.57-6.41
				c-12.85-7.31-22.71-18.91-34.95-27.2c-4.78-3.24-9.93-5.97-14.45-9.56c-4.25-3.38-7.89-7.46-12.01-11
				c-5.07-4.36-10.81-7.86-16.64-11.12C763.67,530.08,752.09,524.66,742.76,522.04z"/>
			<path class="st4" d="M750.47,526.31c-2.12-1.16-4.25-2.31-6.37-3.47c-1.61-4.61,0.54-9.48,4.28-12.8
				c-0.14,0.45-0.26,0.91-0.37,1.37C746.87,516.45,747.78,521.91,750.47,526.31z"/>
			<path class="st4" d="M1022.66,705.63c-2.61-3.42-5.1-6.92-7.47-10.51c-3.33-5.02-6.54-10.34-11.46-13.83
				c-3.11-2.21-6.72-3.57-10.21-5.11c-29.76-13.2-50.15-40.62-72.59-64.2c-7.27-7.64-14.87-14.97-22.47-22.3
				c-8.6-8.3-17.2-16.6-25.81-24.89c14.59,7.28,24.21,18.23,36.28,27.76c6.03,4.76,11.53,13.25,16.97,18.67
				c16.36,16.29,29.24,31.45,47.41,45.7c9.93,4.04,24.93,8.59,34.45,19.45C1012.74,682.03,1019.57,695.22,1022.66,705.63z"/>
			<path class="st5" d="M825.23,706.6c-1.19,2.86-2.39,5.73-3.58,8.59c-21.82-22.11-44.16-43.73-66.97-64.83
				c-4.33-4-8.69-8-12.52-12.48c-3.17-3.69-5.97-7.69-9.21-11.32c0.38,0.15,0.75,0.33,1.11,0.51
				c-10.35-11.28-20.69-22.56-31.04-33.84c-5.73-6.26-11.8-13.28-12.1-21.77c-0.07-1.96,0.2-3.91,0.78-5.78
				c-0.2,3.15,0.38,6.42,1.53,9.37c2.2,5.68,6.22,10.45,10.26,15.01c36.47,41.29,79.79,75.81,120.89,112.49
				c0.53,0.47,1.08,0.98,1.27,1.67C825.87,705.02,825.55,705.84,825.23,706.6z"/>
			<path class="st5" d="M855.59,668.94c-3.7,1.87-8.34,0.66-11.69-1.79c-3.34-2.45-5.74-5.95-8.29-9.23
				c-17.65-22.69-44.46-36.14-65.63-55.58c-10.5-9.65-19.61-20.78-30.64-29.82c-5.09-4.17-10.55-7.87-15.75-11.89
				c-7.02-5.42-13.58-11.43-19.58-17.95c-0.53-0.72-1.04-1.47-1.53-2.23c-3.4-5.39-5.39-11.95-4.05-18.18
				c0.17-0.78,0.4-1.54,0.68-2.27c0.38,8.86,4.86,17.45,10.89,24.13c7.12,7.89,16.23,13.64,25,19.62
				c25.04,17.08,48.21,36.91,68.94,59.02c8.5,9.07,16.72,18.61,26.95,25.66c8.02,5.51,17.05,9.34,25.29,14.51
				c0.64,0.41,1.31,0.85,1.67,1.52C858.72,666.12,857.25,668.11,855.59,668.94z"/>
			<path class="st5" d="M831.07,582.57c13.83,13.46,27.16,27.44,39.94,41.9c3.86,4.37,9.09,9.23,14.67,7.56
				C866.73,614.76,847.78,597.5,831.07,582.57z"/>
			<path class="st5" d="M1348.2,1329.58c-1.82,0.73-3.66,1.37-5.51,1.93c-18.38,5.58-38.15,4.25-57.1,1.08
				c-13.68-2.29-27.47-5.61-39.28-12.88c-14.64-9-24.96-23.2-34.23-37.84c0-0.01-0.01-0.02-0.01-0.03
				c-1.76-2.77-3.48-5.57-5.19-8.35c-1.2-0.39-2.39-0.81-3.57-1.27c-18.98-7.35-35.49-23.39-55.22-34.08
				c-10.74-5.83-22.31-9.98-33.34-15.24c-27.67-13.2-51.49-33.11-74.99-52.81c-1.28-1.08-2.61-2.2-3.37-3.7
				c-1.31-2.56-0.74-5.63-0.19-8.44c10.69-54.87,1.82-111.38-7.66-166.55c-0.31-1.77-0.61-3.54-0.91-5.3
				c-0.3-0.45-0.61-0.9-0.9-1.36v-0.01c-5.91-8.89-11.49-17.59-16.41-26.67c-16.28-22.11-35.95-45.19-56.83-67.11
				c-8.27-8.67-16.75-17.2-26.27-24.47c-14.89-11.39-32.01-19.49-47.51-30.01c-30.52-20.69-53.94-50.03-76.86-78.91
				c-28.69-29.23-56.87-59.18-83.16-90.75c-6.8-8.17-13.89-18.37-11.45-28.49c1.87,11.93,10.76,22.5,19.17,31.74
				c4.55,5,9.1,9.99,13.65,14.99c41.81,45.92,83.67,91.92,126.49,131.24c17.36,15.25,36.37,28.63,56.59,39.8
				c10.26,5.67,20.94,10.85,29.72,18.6c8.48,7.48,14.86,17.07,22.98,24.94c9.23,8.95,20.49,15.48,31.68,21.83
				c2.8,1.59,5.65,3.22,7.84,5.58c2.65,2.85,4.15,6.55,5.61,10.16c15.75,38.64,34.78,75.94,55.53,108.49
				c24.77,50.92,64.1,93.88,87.15,145.6c3.92,8.8,7.38,17.87,12.57,25.99c9.89,15.51,25.4,26.55,36.81,40.97
				c11.98,15.17,19.3,33.9,32.98,47.57c24.38,24.33,62.76,26.95,97.07,23.94C1345.4,1329.64,1346.79,1329.57,1348.2,1329.58z"/>
			<path class="st4" d="M1212.07,1281.84c-1.76-2.77-3.48-5.57-5.19-8.35c-1.2-0.39-2.39-0.81-3.57-1.27
				c-18.76-31.91-44.97-60.23-66.32-91.05c-37.82-54.61-60.85-118.19-97.13-173.82c-3.52-5.4-7.18-10.74-11.33-15.94l-1.82-6.66
				c11.63,12.04,20.42,27.46,28.6,42.31c17.29,31.37,34.57,62.76,51.87,94.14c8.36,15.18,16.73,30.38,26.32,44.82
				c16.14,24.3,35.58,46.25,52.37,70.11C1196.03,1250.57,1205.29,1265.95,1212.07,1281.84z"/>
		</g>
		<path class="st135" d="M752.83,910.83c-9.77-2.02-19.64-2.12-29.48-0.98c-15.96,1.85-31.83,6.98-47.04,12.44
			c-9.46,3.39-18.87,6.93-28.03,11.04c-37,16.63-68.77,42.11-97.51,71.03c-16.3,16.38-31.63,33.88-46.39,51.49
			c-12.7,15.17-24.62,48.12-21.85,54.18c2.88,6.3,21.1,14.87,21.1,14.87s4.81,7.07,6.96,11.05c-21.52-4.48-38.64-14.48-55.86-28.29
			c-3.51-2.8-6.9-5.75-10.19-8.82c-3.23-3.01-6.36-6.14-9.36-9.37c-5.03-5.41-9.77-11.07-14.23-16.93
			c17.51-45.49,48.9-85.36,86.71-116.38c43.54-35.72,95.3-60.34,148.73-78.11c21.24-7.06,43.68-13,66.1-15.76
			c0.84,1.45,1.69,2.89,2.55,4.33c0.07,0.14,0.15,0.27,0.23,0.41c6.71,11.25,13.94,22.2,20.88,33.11
			C748.41,903.71,750.65,907.27,752.83,910.83z"/>
	</g>
</g>
</svg>
