<?xml version="1.0" encoding="utf-8"?>
<!-- Generator: Adobe Illustrator 27.0.0, SVG Export Plug-In . SVG Version: 6.00 Build 0)  -->
<svg version="1.1" id="Слой_1" xmlns="http://www.w3.org/2000/svg" xmlns:xlink="http://www.w3.org/1999/xlink" x="0px" y="0px"
	 viewBox="0 0 1500 1793.79" style="enable-background:new 0 0 1500 1793.79;" xml:space="preserve">
<style type="text/css">
	.st0{fill:#9BAFBD;}
	.st1{fill:#728694;}
	.st2{fill:#FDD5C8;}
	.st3{fill:#FEE4DB;}
	.st4{fill:#E0AFA1;}
	.st5{fill:#99685A;}
	.st6{fill:#AECCD1;}
	.st7{fill:#7A9CA1;}
	.st8{fill:#495B5E;}
	.st9{fill:url(#SVGID_1_);}
	.st10{fill:#E09F89;}
	.st11{fill:url(#SVGID_00000151533818829992869800000013361897373992891043_);}
	.st12{fill:#F6DCDD;}
	.st13{fill:#E39D9D;}
	.st14{fill:#FDACAE;}
	.st15{fill:#E2A094;}
	.st16{fill:#FEBEBE;}
	.st17{fill:#F16E2B;}
	.st18{fill:#DF523C;}
	.st19{fill:#E78B7C;}
	.st20{fill:url(#SVGID_00000049184701013164171890000015136169427125794690_);}
	.st21{fill:#E7DBE0;}
	.st22{fill:url(#SVGID_00000009587024963762789610000007762936895221869962_);}
	.st23{fill:url(#SVGID_00000093160147309070222100000013819570305225944448_);}
	.st24{fill:#E75742;}
	.st25{fill:#EEA755;}
	.st26{fill:#EEB3B2;}
	.st27{fill:#FA9DA5;}
	.st28{fill:#FABEB5;}
	.st29{fill:#F25026;}
	.st30{fill:url(#SVGID_00000005945518465445622900000003470348475590967708_);}
	.st31{fill:url(#SVGID_00000017496208930420255520000011344239045028813466_);}
	.st32{fill:url(#SVGID_00000077299943003532303900000006681419520194551479_);}
	.st33{fill:url(#SVGID_00000116936353259621582010000014132090620794316203_);}
	.st34{fill:url(#SVGID_00000042008683058222716950000001823185236383817870_);}
	.st35{fill:url(#SVGID_00000170261260830570424400000018254621106253603979_);}
	.st36{fill:url(#SVGID_00000183213430447573678390000003430767037983951772_);}
	.st37{fill:url(#SVGID_00000127759809937476701320000005393416945679614609_);}
	.st38{fill:url(#SVGID_00000021111724352854040610000013801142261543261105_);}
	.st39{fill:url(#SVGID_00000061473114243977909240000007953231656204615561_);}
	.st40{fill:url(#SVGID_00000134943902165168849290000007924863641150044059_);}
	.st41{fill:url(#SVGID_00000095328088776111986280000005513626026743767199_);}
	.st42{fill:url(#SVGID_00000024716135882132699100000001271468098320845732_);}
	.st43{fill:url(#SVGID_00000123409988070683600370000014890321555374634150_);}
	.st44{fill:url(#SVGID_00000033342697775763430550000007418900878235022239_);}
	.st45{fill:url(#SVGID_00000176034953391712506250000014707424660591050118_);}
	.st46{fill:url(#SVGID_00000181078090458877467830000002422808834450281651_);}
	.st47{fill:url(#SVGID_00000135652044751931528170000000517884551891750820_);}
	.st48{fill:url(#SVGID_00000070814302079032532870000012990719882098139522_);}
	.st49{fill:url(#SVGID_00000046340057447705082680000016656685737828806027_);}
	.st50{fill:url(#SVGID_00000152984299074536909750000014743944556917397382_);}
	.st51{fill:url(#SVGID_00000004520384707750478540000009912994436789870999_);}
	.st52{fill:url(#SVGID_00000141427902620262411310000006467743085868375450_);}
	.st53{fill:url(#SVGID_00000031892354419477958140000008980266036696728218_);}
	.st54{fill:url(#SVGID_00000111175268325489986410000009270573841525978280_);}
	.st55{fill:url(#SVGID_00000111168471321655052940000008703347992677102779_);}
	.st56{fill:url(#SVGID_00000013175771792311781620000014660849389474557319_);}
	.st57{fill:url(#SVGID_00000114759518736355533600000006677522253864056977_);}
	.st58{fill:url(#SVGID_00000032626906203789249870000002399708802378051005_);}
	.st59{fill:url(#SVGID_00000128469056123185543610000009246057799750681237_);}
	.st60{opacity:0.4;fill:url(#SVGID_00000180352388248245476690000012791120569034537108_);}
	.st61{fill:url(#SVGID_00000165213696646608794040000010033169582608758711_);}
	.st62{fill:url(#SVGID_00000092445832250309984670000001114295072136981915_);}
	.st63{fill:url(#SVGID_00000148663772629209001680000005913841300862934931_);}
	.st64{fill:url(#SVGID_00000182524444042682500580000017208516917662369185_);}
	.st65{fill:url(#SVGID_00000143581935418436512040000005423172672961324206_);}
	.st66{fill:url(#SVGID_00000027590841765976139680000003190599582763624616_);}
	.st67{fill:url(#SVGID_00000056425622070412752020000013484880815421658522_);}
	.st68{fill:url(#SVGID_00000112591627847486229570000002688399024013332362_);}
	.st69{fill:#AD0000;}
	.st70{fill:url(#SVGID_00000018215281228507012610000016547953872630258358_);}
	.st71{fill:url(#SVGID_00000172399204263514021490000013882445501182421637_);}
	.st72{fill:url(#SVGID_00000144317815552109345600000002140891766554158481_);}
	.st73{fill:url(#SVGID_00000020372113387490778720000015027437813181781918_);}
	.st74{fill:url(#SVGID_00000103228777373582610310000005021548503128575393_);}
	.st75{fill:#BF9184;}
	.st76{fill:none;stroke:#FDD5C8;stroke-miterlimit:10;}
	.st77{fill:url(#SVGID_00000012456862090333730830000007444014246539663015_);}
	.st78{fill:url(#SVGID_00000140010734598389709120000000688341285667855262_);}
	.st79{fill:url(#SVGID_00000178197842980002159270000012343479616279595438_);}
	.st80{fill:url(#SVGID_00000011010173044328724310000011879139078080745125_);}
	.st81{fill:url(#SVGID_00000078029560197318756660000013190668410815860362_);}
	.st82{fill:url(#SVGID_00000176034683258504487960000004134650304962880441_);}
	.st83{fill:url(#SVGID_00000066509120955075161590000006809041377083459740_);}
	.st84{fill:url(#SVGID_00000017515222138766609360000007291963961269118337_);}
	.st85{fill:url(#SVGID_00000124878961151836918350000010687370783207370918_);}
	.st86{fill:url(#SVGID_00000044167857032602313500000018136473841096571523_);}
	.st87{fill:none;stroke:#E0AFA1;stroke-miterlimit:10;}
	.st88{fill:#59767A;}
	.st89{fill:none;}
	.st90{fill:#314042;}
	.st91{fill:url(#SVGID_00000147212034167634653400000011544401874260949659_);}
	.st92{fill:url(#SVGID_00000137121948140353103840000005186976437880912774_);}
	.st93{fill:url(#SVGID_00000130618612280824586360000012882269418626254522_);}
	.st94{fill:url(#SVGID_00000162340520647662320580000004271132885011826599_);}
	.st95{fill:url(#SVGID_00000156572126352910186610000008354203803982153137_);}
	.st96{fill:none;stroke:#99685A;stroke-miterlimit:10;}
	.st97{fill:#F2CEC4;}
	.st98{fill:#E1AFA1;}
	.st99{fill:url(#SVGID_00000018956622637108863100000004979246666611002499_);}
	.st100{fill:url(#SVGID_00000054233173731314277490000009566394083322533535_);}
	.st101{fill:url(#SVGID_00000058589168692170481590000010253883051311180726_);}
	.st102{fill:url(#SVGID_00000091732535316384397440000014721654136406952876_);}
	.st103{fill:url(#SVGID_00000058578414195526915890000008101630056006213768_);}
	.st104{fill:url(#SVGID_00000170273185129020079020000000169603903067393688_);}
	.st105{fill:url(#SVGID_00000004533050403465624780000009167665566531859631_);}
	.st106{fill:url(#SVGID_00000037692628214903642680000001236908532512814247_);}
	.st107{fill:url(#SVGID_00000134972015788637407080000013752779800490571423_);}
	.st108{fill:url(#SVGID_00000147194857193831316470000003093572633124892297_);}
	.st109{fill:#E39F8D;}
	.st110{fill:#C2553C;}
	.st111{fill:url(#SVGID_00000074416258291844517240000011476949601735431830_);}
	.st112{fill:url(#SVGID_00000012460319015654473970000009952916168662223248_);}
	.st113{fill:url(#SVGID_00000033326813089373107670000016983051300109021581_);}
	.st114{fill:#AD4024;}
	.st115{fill:url(#SVGID_00000099640313947080790550000014506304245377020036_);}
	.st116{fill:url(#SVGID_00000166648322947369409840000006245466317721830542_);}
	.st117{fill:url(#SVGID_00000027605294867819652840000016860710373969949344_);}
	.st118{opacity:0.5608;fill:#FFFFFF;}
	.st119{fill:#FFFFFF;}
	.st120{fill:#FFF1ED;}
	.st121{fill:#E6D7D3;}
	.st122{opacity:0.4392;fill:#E0AFA1;}
	.st123{fill:#FFD3C7;}
	.st124{opacity:0.3412;fill:#AAAD66;}
	.st125{opacity:0.2314;fill:#FFFFFF;}
	.st126{fill:#23282B;}
	.st127{fill:none;stroke:#99685A;stroke-linecap:round;stroke-linejoin:round;stroke-miterlimit:10;}
	.st128{fill:#495760;}
	.st129{fill:#353A3E;}
	.st130{fill:#3A474F;}
	.st131{fill:#709EB8;}
	.st132{fill:#8BB0C5;}
	.st133{fill:#31556B;}
	.st134{fill:#4E768F;}
	.st135{fill:#263F4F;}
	.st136{fill:#576975;}
	.st137{fill:none;stroke:#3A474F;stroke-miterlimit:10;}
	.st138{fill:#2F3943;}
	.st139{fill:#C78D7D;}
	.st140{fill:#421D13;}
	.st141{fill:#5E3E35;}
	.st142{fill:#806158;}
	.st143{fill:#EFC3B6;}
	.st144{fill:#C79789;}
	.st145{fill:none;stroke:#EFC3B6;stroke-miterlimit:10;}
	.st146{fill:#69483F;}
	.st147{fill:none;stroke:#806158;stroke-width:3;stroke-linecap:round;stroke-linejoin:round;stroke-miterlimit:10;}
	.st148{fill:#E8E8E8;}
	.st149{fill:#BACAD9;}
	.st150{fill:#694034;}
	.st151{fill:#658F85;}
	.st152{fill:#407065;}
	.st153{fill:#323C42;}
	.st154{fill:#B4CADE;}
	.st155{opacity:0.3294;fill:#C75B63;}
	.st156{fill:none;stroke:#5E3E35;stroke-width:4;stroke-linecap:round;stroke-linejoin:round;stroke-miterlimit:10;}
	.st157{fill:#4C6270;}
	.st158{fill:#7A4A3D;}
	.st159{fill:#252E37;}
	.st160{fill:#3E4852;}
	.st161{fill:none;stroke:#E0AFA1;stroke-linecap:round;stroke-linejoin:round;stroke-miterlimit:10;}
	.st162{fill:#BA8677;}
	.st163{fill:#313B45;}
	.st164{fill:none;stroke:#4E768F;stroke-miterlimit:10;}
	.st165{fill:#193646;}
	.st166{opacity:0.1882;fill:#FFFFFF;}
	.st167{fill:none;stroke:#421D13;stroke-miterlimit:10;}
	.st168{opacity:0.2196;fill:#1390D4;}
	.st169{opacity:0.2392;fill:#027DCF;}
	.st170{opacity:0.3216;fill:#FFFFFF;}
	.st171{fill:#CFCFCF;}
	.st172{fill:url(#SVGID_00000065034255935989333650000007119933544997979802_);}
	.st173{fill:url(#SVGID_00000145046558814330516410000002090357117581531292_);}
	.st174{opacity:0.749;fill:url(#SVGID_00000112630612038993447180000007429276237105955509_);}
	.st175{fill:url(#SVGID_00000142168848128036229590000003276860691057724295_);}
	.st176{fill:url(#SVGID_00000048480009332982808600000014108504043441826966_);}
	.st177{fill:#821111;}
	.st178{fill:url(#SVGID_00000028323517968610690290000001521407967677723269_);}
	.st179{fill:#BC0002;}
	.st180{fill:url(#SVGID_00000103952505962128309110000018289402752247418519_);}
	.st181{fill:url(#SVGID_00000083068747656494862020000013522440451020917136_);}
	.st182{fill:url(#SVGID_00000062154294099689098960000013691258577644722612_);}
</style>
<g>
	<rect class="st0" width="1500" height="1793.79"/>
	<g>
		<path class="st2" d="M1105.2,1295.47l2.09,5.45c0.13-0.5,0.3-1,0.48-1.46c0.18-0.41,0.37-0.79,0.59-1.15
			C1107.3,1297.35,1106.25,1296.41,1105.2,1295.47z M1095,1268.81v-0.02l-6.58-17.18v-0.02l-3.49-9.14l-2.31-6.02l-1.63-4.25
			l-3.57-9.33c-4.4,4.66-7.09,11.07-7.59,17.49c-0.78,9.98,3.09,19.86,8.79,28.04c5.71,8.22,13.19,14.98,20.6,21.67
			c2,1.81,3.99,3.6,5.97,5.41v-0.02L1095,1268.81z M1237.91,1230.74c-5.56-4.1-11.36-8.46-17.16-12.8c-2.27-1.7-4.58-3.42-7.17-4.6
			c-0.24-0.11-0.5-0.22-0.74-0.31c-0.15-0.06-0.31-0.11-0.46-0.17c-0.04-0.02-0.06-0.04-0.09-0.04c-0.39-0.15-0.76-0.28-1.16-0.39
			c-0.2-0.06-0.41-0.11-0.61-0.17c-0.37-0.11-0.76-0.2-1.15-0.26c-0.26-0.06-0.5-0.11-0.76-0.15c-0.13-0.02-0.26-0.04-0.41-0.06
			c-0.57-0.07-1.13-0.13-1.7-0.17c-0.06-0.02-0.09-0.02-0.15-0.02c-0.54-0.02-1.09-0.02-1.63,0c-0.15,0-0.28,0.02-0.42,0.04
			c-0.18,0-0.37,0.02-0.55,0.04c-0.18,0.02-0.39,0.04-0.57,0.06c-0.22,0.02-0.44,0.06-0.67,0.09c-0.24,0.04-0.46,0.07-0.68,0.11
			l-0.02-0.02c-0.02,0-0.02,0.02-0.02,0.02c-0.83,0.13-1.66,0.33-2.48,0.59c-0.13,0.04-0.26,0.07-0.41,0.13
			c-0.13,0.04-0.28,0.09-0.41,0.15c-0.02,0-0.06,0-0.09,0.02c-0.02,0-0.04,0-0.06,0.02c-0.22,0.07-0.44,0.17-0.67,0.26
			c0,0,0,0-0.02,0c-0.35,0.15-0.7,0.3-1.03,0.44c-1.92,0.89-3.69,2.07-5.21,3.53c-0.06,0.06-0.09,0.11-0.17,0.15l-0.07-0.02
			c-17.01-6.48-32.62-15.06-46.9-25.42c-17.38-11.99-34.45-25.25-51.1-39.02c-5.26-4.34-10.64-8.98-14.46-14.52
			c-1.31-1.88-2.4-3.88-3.29-6c-0.3-0.68-0.55-1.39-0.78-2.12c11.43-2.57,23.31-2.68,35.08-2.75c16.85,7.11,37.56,8.7,57.1,4.53
			c8.81-1.33,18.84-3.73,25.9-10.49c1.9-1.83,3.53-3.92,4.95-6.11c0.89-1.37,1.7-2.79,2.42-4.27c2.75-5.49,4.29-11.56,3.95-17.68
			c-0.44-7.76-4.1-15.44-10.44-19.91c-3.64-2.57-8.48-4.01-12.6-2.31c-11.75,3.2-24.74,5.14-37.5,3.45
			c-7.94-1.03-15.63-3.44-23.35-5.6c-38.85-10.84-79.43-15.5-119.72-13.71c-22.67,2.46-47.4,5.67-72.12,8.89
			c-3.12,0.41-6.43,0.76-9.62,0.65c-1.22-0.04-2.44-0.15-3.62-0.37c-2.96-0.48-5.67-1.55-7.92-3.57c-1.96-1.26-3.88-2.53-5.82-3.77
			c-61.85-39.99-126.11-78.2-191.47-114.44c-36.65-24.09-74.46-56.77-108.45-93.07c-33.6-27.78-69.79-56.18-107.01-83.13
			c-39.79-20.49-79.84-42.65-119.45-66.19c-19.9-11.8-39.64-23.96-59.24-36.43l-0.02-0.02c-0.87-0.57-1.77-1.15-2.66-1.72
			c-0.89-1.13-1.75-2.24-2.64-3.38c-0.02-0.02-0.02-0.02-0.02-0.02c-0.78-1-1.57-2-2.36-3.03c-5.01-6.45-10.05-12.91-15.13-19.4
			c-42.56-54.4-86.51-109.82-130.47-165.2c-7.04-8.87-14.13-17.83-19.19-27.93c-0.72-1.42-1.4-2.88-2.05-4.34
			c-6.39-14.63-8.92-30.7-12.36-46.37c-13.19-60.06-41.27-116.68-80.56-163.91C33.66,211,17.51,194.76,0,180.11V695.3
			c20.75,20.19,45.13,37.52,71.67,50.51c1.27,1.59,2.53,3.18,3.84,4.77c0.2,0.26,0.41,0.5,0.61,0.76c1.09,1.31,2.18,2.62,3.31,3.93
			c0.09,0.13,0.2,0.26,0.33,0.41c0.61,0.74,1.24,1.48,1.88,2.2c0.89,1.07,1.79,2.12,2.73,3.16c0.7,0.83,1.42,1.64,2.16,2.46
			c2.44,2.77,4.93,5.5,7.48,8.2l1.5,1.59c1.13,1.22,2.29,2.42,3.45,3.62c1.16,1.2,2.35,2.4,3.51,3.6c0.85,0.85,1.7,1.72,2.55,2.57
			c0.85,0.87,1.72,1.72,2.59,2.55c1.39,1.37,2.77,2.72,4.17,4.06c2.29,2.24,4.62,4.41,6.96,6.59c0.76,0.7,1.51,1.4,2.27,2.09
			c1.03,0.96,2.07,1.88,3.14,2.84c1.03,0.94,2.11,1.88,3.16,2.83c2.25,2.03,4.53,4.01,6.82,5.97c1.27,1.11,2.57,2.2,3.86,3.31
			c1.72,1.44,3.44,2.88,5.15,4.3c0.06,0.06,0.11,0.11,0.18,0.17c1.18,0.98,2.4,1.98,3.6,2.96c1.83,1.51,3.68,3.01,5.54,4.49
			c17.84,14.54,37.37,29.72,49.14,50.62c3.92,6.95,6.89,14.43,11.32,21.08c5.89,8.85,14.13,15.87,22.2,22.76
			c6.37,9.62,16.85,15.59,27.21,20.93c10.46,5.39,21.11,10.38,31.92,14.96c20.8,13.13,38.76,31.96,61.51,42.82
			c4.66,2.22,9.61,4.17,13.3,7.8c25.27,12.32,50.08,24.81,74.76,37.56c24.29,7.81,48.66,16.53,73,25.23
			c36.52,14.56,72.82,29.52,108.84,45.17c35.73,17.18,71.42,35.93,106.63,55.57c28.87,15.68,54.29,40.18,85.57,54.01
			c0.87,1.61,1.77,3.23,2.7,4.82c0.76,1.37,1.53,2.72,2.35,4.08h0.02c0.98,1.68,1.98,3.34,2.97,4.99c1,1.66,2.01,3.32,3.08,4.95
			c1,1.59,2.01,3.18,3.07,4.77c0,0.02,0.02,0.02,0.02,0.04c0.06,0.09,0.13,0.2,0.18,0.28c0.55,0.87,1.15,1.74,1.74,2.6l1.39,2.05
			c1.09,1.59,2.2,3.2,3.31,4.77c0.83,1.18,1.66,2.35,2.51,3.51c0.39,0.52,0.76,1.05,1.15,1.57c0.17,0.22,0.31,0.44,0.5,0.65
			c1.02,1.42,2.09,2.83,3.16,4.25v0.02c1.31,1.7,2.62,3.4,3.97,5.08c1.18,1.51,2.38,3.03,3.6,4.51c1.31,1.61,2.62,3.2,3.95,4.77
			c0.68,0.79,1.35,1.57,2.01,2.35c0.66,0.78,1.33,1.55,2.01,2.31c0.65,0.78,1.31,1.51,1.98,2.25c1.13,1.29,2.27,2.57,3.44,3.82
			c1.07,1.16,2.14,2.33,3.23,3.47c0.85,0.91,1.68,1.79,2.53,2.66c0.09,0.15,0.24,0.26,0.37,0.39c0.81,0.85,1.63,1.7,2.44,2.55
			c0.35,0.35,0.72,0.72,1.09,1.09c1.18,1.22,2.4,2.44,3.62,3.64c19.53,21.34,38.98,42.56,58.41,63.77c2.01,1.92,4.01,4.01,6.04,6.11
			c1.46,1.53,2.97,3.09,4.51,4.62c0.09,0.09,0.17,0.17,0.26,0.24c0.42,0.44,0.87,0.87,1.31,1.29c1.39,1.33,2.81,2.64,4.3,3.86
			c3.88,3.2,8.09,5.93,11.92,9.22c0.91,0.78,1.79,1.59,2.66,2.44c0.41,0.37,0.79,0.76,1.18,1.16c1.66,1.64,3.23,3.34,4.8,5.06
			c1.42,1.55,2.83,3.14,4.27,4.67c1.31,1.4,2.66,2.79,4.05,4.12c3.2,3.07,6.78,5.91,10.73,7.92c3.25,1.72,6.78,2.83,10.46,3.07
			c7.06,1.35,14.98-1.64,20.84-6.78c0.78-0.68,1.53-1.4,2.24-2.16c4.64-4.86,7.85-11.01,9.94-17.42c0.3-4.62-1.37-9.22-3.1-13.65
			c-1.44-3.69-2.97-7.41-4.58-11.05c-0.61-1.42-1.24-2.81-1.87-4.19c-0.78-1.75-1.59-3.47-2.42-5.21l-0.13-0.33
			c4.69,0.63,8.74,3.62,11.86,7.07c1.57,1.74,2.99,3.64,4.43,5.5c1.4,1.83,2.81,3.66,4.43,5.3c3.79,3.9,8.53,6.74,13.19,9.57
			c5.43,3.16,11.77,6.59,18.73,7.13c6.93,0.55,13.73-1.83,20.15-4.49c4.45-2.68,7.41-6.61,9.42-10.94c0.2-0.37,0.37-0.78,0.54-1.18
			c1.7-3.97,2.66-8.24,3.36-12.51c0.46-6.69-1.7-14.02-5.97-19.84c-1.87-2.53-4.08-4.75-6.26-7
			c-10.58-10.99-20.26-22.87-28.91-35.49c0.87,0.79,1.77,1.57,2.68,2.35c0.2,0.18,0.41,0.35,0.63,0.54
			c0.06,0.04,0.09,0.09,0.15,0.13c15.15,13.1,31.64,24.53,49.14,34.21c0.7,0.39,1.4,0.78,2.11,1.16h0.02
			c5.32,2.9,10.7,5.62,16.2,8.18c5.43,1.63,11.12,3.38,16.9,2.94c4.75-0.35,9.24-2.22,13.63-4.05c3.42-2.29,6.45-5.17,9.01-8.52
			c4.43-5.73,7.46-12.77,8.61-20.12c0.24-1.51,0.41-3.05,0.22-4.6c-0.18-1.51-0.68-2.97-1.2-4.43c-3.64-10.4-7.37-20.86-12.23-30.74
			l-0.09-0.24c-0.2-0.42-0.41-0.81-0.61-1.24c-0.26-0.54-0.52-1.05-0.79-1.59c0.11,0.07,0.22,0.13,0.35,0.2
			c0.92,0.52,1.87,1.02,2.81,1.5c0.68,0.37,1.37,0.7,2.05,1.03c0.85,0.44,1.7,0.85,2.55,1.26c0.67,0.3,1.35,0.61,2.01,0.9
			c0.66,0.31,1.31,0.61,1.98,0.87c0.15,0.07,0.3,0.15,0.46,0.2c0.28,0.11,0.55,0.22,0.83,0.33c0.07,0.04,0.15,0.07,0.22,0.09
			c0.48,0.2,0.98,0.39,1.48,0.57c0.78,0.3,1.57,0.59,2.36,0.87c1.77,0.63,3.57,1.18,5.38,1.66c3.9,1.02,7.94,1.72,11.99,1.92
			c0.41,0,0.81,0.02,1.22,0.04c3.68,0.07,7.35-0.26,10.9-1.11c0.44-0.09,0.91-0.22,1.33-0.35c3.07-0.83,6.04-2,9-3.16
			c4.78-1.31,8.83-4.36,11.9-8.22c1.5-1.9,2.75-3.97,3.75-6.15c3.01-6.67,3.84-14.11,3.9-21.43
			C1249.99,1243.13,1244.93,1235.56,1237.91,1230.74z"/>
		<path class="st4" d="M320.43,723.99c-2.7,9.77-8.55,18.29-14.54,26.45c-8.35,11.4-19.27,23.57-33.4,23.33
			c-12.06-0.22-23.94-9.68-35.17-5.28c-5.99,2.35-9.94,8.13-15.52,11.29c-10.46,5.93-24.11,1.29-32.96-6.83
			c-8.81-8.13-14.35-19.12-21.37-28.84c-0.85-1.16-1.7-2.29-2.6-3.42c0-0.02,0-0.02,0-0.02c-5.69-7.28-12.19-13.78-19.06-19.97
			c-15.09-13.56-31.94-25.49-46.13-40.01c-25.94-26.58-42.51-61.46-69.9-86.53c-9.4-8.61-20.06-16.05-29.78-24.29v-69.16
			c13.98,12.8,28.12,25.73,38.33,41.66c9.01,14.04,14.82,30.18,25.66,42.86c14.41,16.77,35.97,25.44,53.44,39.02
			c12.95,10.07,23.55,22.76,34.05,35.34c12.01,14.43,24.01,28.84,36.04,43.25c10.16,12.19,21.35,25.07,36.71,29.08
			c11.45,2.96,23.66,0.5,34.64-3.93c6.87-2.81,13.54-6.45,18.84-11.66c9.85-9.72,13.97-23.83,15.79-37.54
			c1.87-14.1,1.64-28.43-0.61-42.47c5.08,6.48,10.12,12.95,15.13,19.4c0.79,1.03,1.59,2.03,2.36,3.03c0,0,0,0,0.02,0.02
			c4.23,10.31,7.5,21.02,9.68,31.96C322.3,701.67,323.42,713.2,320.43,723.99z"/>
		<path class="st4" d="M915.08,1064.45c-0.22,0.28-0.44,0.56-0.66,0.84c-12.45,15.63-23.62,32.21-29.14,51.24
			c-2.99,10.33-4.85,22.13-13.43,28.6c-2.69,2.01-5.81,3.31-8.73,4.98c-9.28,5.29-16.09,14.05-21.47,23.28
			c-7.34,12.65-12.44,26.53-14.99,40.94c0,0-0.01,0.02,0,0.04c-0.23,1.27-0.45,2.56-0.62,3.85c-0.71,4.84-1.24,9.96-3.1,14.39
			c-0.82-1.35-1.6-2.71-2.36-4.07c-0.91-1.6-1.82-3.21-2.7-4.83c-31.27-13.84-56.69-38.32-85.56-54.01
			c-35.2-19.64-70.9-38.4-106.62-55.56c-36.02-15.64-72.33-30.62-108.84-45.17c-24.35-8.7-48.71-17.41-73.02-25.22
			c-24.67-12.76-49.48-25.23-74.75-37.56c-3.7-3.62-8.66-5.57-13.31-7.79c-22.76-10.85-40.7-29.69-61.5-42.82
			c-10.82-4.57-21.47-9.57-31.92-14.95c-10.38-5.35-20.84-11.32-27.21-20.94c-8.09-6.89-16.31-13.9-22.21-22.75
			c-4.43-6.65-7.41-14.14-11.33-21.09c-11.76-20.88-31.28-36.07-49.13-50.61c-1.86-1.48-3.72-2.98-5.56-4.49
			c-1.2-0.98-2.4-1.97-3.59-2.96c-0.08-0.05-0.14-0.1-0.19-0.16c-1.72-1.42-3.44-2.86-5.15-4.31l-16.28-34.37c0,0,0.04-0.1,0.1-0.27
			c0.28-0.79,1.16-3.22,2.46-6.74c4.42-11.9,13.76-36.3,21.51-51.23c2.86-5.56,5.51-9.8,7.59-11.63c5.71,3.52,11.51,6.86,17.4,10.05
			l0.02,0.01c15.19,8.26,30.98,15.44,47.19,21.52c9.19,3.44,18.69,6.53,28.49,6.85c8.56,0.26,17.07-1.59,25.09-4.55
			c6.24-2.29,12.3-5.26,17.48-9.45c12.19-9.8,18.53-25.46,20.29-41c1.41-12.23,0.31-24.57-1.34-36.8c0.79,1.02,1.58,2.03,2.37,3.03
			c0,0,0,0,0.01,0.02c0.89,1.14,1.76,2.25,2.64,3.38c0.9,0.57,1.8,1.15,2.67,1.71l0.01,0.02c9.08,18.89,18.15,38.7,17.5,59.61
			c-0.65,21.67-12.59,42.71-30.86,54.39c-18.29,11.68-42.38,13.68-62.33,5.17c-5.32-2.27-13-4.52-15.7,0.63
			c-0.85,1.61-0.81,3.51-0.74,5.33c0.82,18.29,5.28,36.4,13.06,52.97c0.68,1.44,1.47,2.97,2.89,3.67c1.91,0.95,4.2,0.09,6.15-0.8
			c15.15-6.75,30.29-13.49,45.44-20.25c3.31-1.48,6.84-3,10.44-2.61c6.43,0.7,10.68,7.08,12.6,13.24
			c1.94,6.17,2.56,12.89,6.06,18.31c5.52,8.57,16.71,11.55,26.89,11.57c10.17,0.03,20.37-2.16,30.48-0.93
			c3.4,0.42,6.97,1.33,9.35,3.81c2.69,2.81,3.28,6.97,3.56,10.85c1.5,20.92-2.28,42.2-12.14,57.09
			c12.08,12.86,32.21,13.91,49.6,10.82c17.38-3.08,34.54-9.41,52.15-8.03c14.97,1.17,28.9,7.84,42.43,14.39
			c18.94,9.19,38.08,18.49,54.51,31.65c-23.71-6.7-48.04-11.17-72.56-13.35c30.16,33.66,85.09,34.92,115.93,67.97
			c-12.68,0-25.34-1.38-37.72-4.11c21.89,12.91,43.78,25.85,65.67,38.76c4.97,2.94,10.75,5.98,16.24,4.18
			c-1.93-4.1,1.68-9.06,6.04-10.28c4.36-1.2,8.97,0.18,13.28,1.53c16.84,5.35,33.68,10.7,51.63,16.25
			c7.09,12.96-0.25,31.51-14.29,36.11c13.76,9.21,30.33,12.96,45.8,18.86c15.47,5.91,31.08,15.26,37.36,30.58
			c0.53,1.3,0.98,2.78,0.44,4.07c-1.26,3.14-5.98,1.87-8.85,0.07c-14.49-8.95-28.97-17.93-43.45-26.9
			c15.23,16.12,32.48,30.31,51.2,42.16c3.31,2.09,7.18,4.18,10.91,3.08c9.22-2.72,8.3-21.15,17.87-20.36
			c-1.96-7.64-3.89-15.26-5.84-22.88c-0.76-2.96-1.63-6.11-3.89-8.14c-2.21-1.99-5.32-2.54-8.2-3.31
			c-16.49-4.33-29.86-18.85-32.83-35.65c9.35,7.18,19.7,13.03,30.65,17.35c3.61,1.41,9.12,1.77,10.01-2.02
			c0.4-1.71-0.52-3.42-1.48-4.92c-4.48-7.01-10.5-13.05-17.5-17.6c2.15-4.5,8.95-3,13.27-0.49c9.46,5.52,18.46,12.73,29.28,14.38
			c10.83,1.66,24.05-5.58,23.42-16.52c-0.57-10.08-12.23-17.7-10.83-27.69c6.89-1.95,11.93,6.85,18.77,9.04
			c6.97,2.2,14.16-3,18.39-8.94c1.07-1.5,2.06-3.07,3-4.68c0.86-1.39,1.69-2.81,2.55-4.19c1.94,1.24,3.87,2.51,5.82,3.77
			C909.43,1062.89,912.15,1063.97,915.08,1064.45z"/>
		<path class="st5" d="M954.55,1372.46c-1.24,3.18-2.49,6.35-3.73,9.51c-0.44-0.42-0.89-0.85-1.31-1.29
			c-0.09-0.07-0.17-0.15-0.26-0.24c-1.53-1.53-3.05-3.08-4.51-4.62c-2.03-2.11-4.03-4.19-6.04-6.11
			c-19.43-21.21-38.89-42.43-58.41-63.77c-1.22-1.2-2.44-2.42-3.62-3.64c-0.37-0.37-0.74-0.74-1.09-1.09
			c-0.81-0.85-1.63-1.7-2.44-2.55c-0.13-0.13-0.28-0.24-0.37-0.39c-0.85-0.87-1.68-1.75-2.53-2.66c-1.09-1.15-2.16-2.31-3.23-3.47
			c-1.16-1.26-2.31-2.53-3.44-3.82c-0.67-0.74-1.33-1.48-1.98-2.25c-0.68-0.76-1.35-1.53-2.01-2.31c-0.67-0.78-1.33-1.55-2.01-2.35
			c-1.33-1.57-2.64-3.16-3.95-4.77c-1.22-1.48-2.42-2.99-3.6-4.51c-1.35-1.68-2.66-3.38-3.97-5.08v-0.02
			c-1.07-1.42-2.14-2.83-3.16-4.25c-0.18-0.2-0.33-0.42-0.5-0.65c-0.39-0.52-0.76-1.05-1.15-1.57c-0.85-1.16-1.68-2.33-2.51-3.51
			c-1.11-1.57-2.22-3.18-3.31-4.77l-1.39-2.05c-0.59-0.87-1.18-1.74-1.74-2.6c-0.06-0.07-0.13-0.18-0.18-0.28
			c0-0.02-0.02-0.02-0.02-0.04c-1.05-1.59-2.07-3.18-3.07-4.77c-1.07-1.63-2.09-3.29-3.08-4.95c-1-1.64-2-3.31-2.97-4.99h-0.02
			c-0.81-1.37-1.59-2.72-2.35-4.08c-0.92-1.59-1.83-3.21-2.7-4.82c-31.27-13.84-56.69-38.33-85.57-54.01
			c-35.21-19.64-70.9-38.39-106.63-55.57c-36.02-15.65-72.32-30.61-108.84-45.17c-24.35-8.7-48.71-17.42-73-25.23
			c-24.68-12.75-49.49-25.23-74.76-37.56c-3.69-3.62-8.65-5.58-13.3-7.8c-22.76-10.86-40.71-29.69-61.51-42.82
			c-10.81-4.58-21.47-9.57-31.92-14.96c-10.36-5.34-20.84-11.31-27.21-20.93c-8.07-6.89-16.31-13.91-22.2-22.76
			c-4.43-6.65-7.41-14.13-11.32-21.08c-11.77-20.89-31.29-36.08-49.14-50.62c-1.87-1.48-3.71-2.97-5.54-4.49
			c-1.2-0.98-2.42-1.98-3.6-2.96c-0.07-0.06-0.13-0.11-0.18-0.17c-1.72-1.42-3.44-2.86-5.15-4.3c-1.29-1.11-2.59-2.2-3.86-3.31
			c-2.29-1.96-4.56-3.93-6.82-5.97c-1.05-0.94-2.12-1.88-3.16-2.83c-1.07-0.96-2.11-1.88-3.14-2.84c-0.76-0.68-1.51-1.39-2.27-2.09
			c-2.35-2.18-4.67-4.36-6.96-6.59c-1.4-1.35-2.79-2.7-4.17-4.06c-0.87-0.83-1.74-1.68-2.59-2.55c-0.85-0.85-1.7-1.72-2.55-2.57
			c-1.16-1.2-2.35-2.4-3.51-3.6c-1.16-1.2-2.33-2.4-3.45-3.62l-1.5-1.59c-2.55-2.7-5.04-5.43-7.48-8.2
			c-0.74-0.81-1.46-1.63-2.16-2.46c-0.94-1.03-1.85-2.09-2.73-3.16c-0.65-0.72-1.27-1.46-1.88-2.2c-0.13-0.15-0.24-0.28-0.33-0.41
			c-1.13-1.31-2.22-2.62-3.31-3.93c-0.2-0.26-0.41-0.5-0.61-0.76c-1.31-1.59-2.57-3.18-3.84-4.77C45.13,732.82,20.75,715.49,0,695.3
			V537.99c9.94,16.57,20.99,32.33,35.78,44.61c9.51,7.89,20.45,14.21,28.82,23.33c10.18,11.1,15.89,25.68,25.55,37.28
			c9.4,11.29,22.09,19.23,33.49,28.52c12.25,9.98,23.07,21.58,33.86,33.12c4.43,4.75,8.87,9.51,13.3,14.26l0.02,0.02
			c9.9,10.62,19.82,21.28,29.74,31.9c2.42,2.6,4.95,5.39,5.62,8.9c0.65,3.49-1.5,7.78-5.04,7.96c-2.79,0.18-5.06-2.05-7.02-4.05
			c-8.7-8.94-18.57-16.76-29.24-23.17c0-0.02,0-0.02,0-0.02c-1.22-0.72-2.44-1.44-3.68-2.12c3.25,11.14,9.37,21.43,20.39,33.62
			c-3.88-1-7.74-2-11.62-2.99c-3.95,12.89,4.95,25.73,12.38,36.98c10.27,15.55,18.51,32.46,24.48,50.14
			c2.4,7.15,4.54,14.63,9.33,20.51c4.25,5.26,10.42,8.9,14.11,14.61c3.23,5.04,4.86,11.95,10.4,14.28c2.9,1.22,6.19,0.79,9.35,0.67
			c9.31-0.39,18.75,2.09,26.88,8.33c24.55,7.09,49.47,14.37,71.14,27.89c4.38,2.73,8.61,5.73,13.3,7.87
			c6.95,3.2,15.3,4.86,19.71,11.12c1.68,2.4,2.62,5.28,4.32,7.68c8.41,11.86,28.02,5.15,40.55,12.51c4.6,2.7,8.09,7.26,13.12,8.98
			c5.32,1.79,11.16,0.06,16.7,0.67c12.82,1.37,20.75,13.98,29.69,23.26c17.03,17.66,41.77,25.1,65.32,31.87
			c8.9,2.57,17.79,5.12,22.98,6.23c38.16,35.74,84.31,62.94,134.08,78.99c7.74,2.49,15.7,4.78,22.48,9.29
			c3.97,2.66,7.41,6,10.9,9.26c24.42,22.78,52.08,42.08,82.57,56.45c0.96,2.53,1.92,5.06,2.94,7.59c0,0-0.02,0.02,0,0.04
			c6.48,16.61,13.78,33.08,25.83,46.11c8.41,9.11,18.82,16.16,27.4,25.12c11.4,11.95,19.27,27.08,31.61,38.02
			c9.38,8.33,21.39,14.41,27.19,25.53c2.75,5.28,5.78,12.65,11.67,11.82c0.26,3.34,1.48,6.58,3.1,9.61
			C953.81,1371.22,954.18,1371.85,954.55,1372.46z"/>
		<path class="st75" d="M80.72,728.31c10.7,12.66,18.33,27.77,29.67,39.85c6.82,7.26,14.83,13.28,22.8,19.25
			C121.12,763.36,102.89,742.42,80.72,728.31z"/>
		<path class="st4" d="M128.81,392.45c3.44,15.67,5.97,31.75,12.37,46.37c-16.52-13.04-32.27-26.55-41.63-45.11
			c-7.05-14.01-9.75-29.7-12.97-45.04c-8.62-41.22-21.51-81.51-38.33-120.13C87.54,275.78,115.62,332.41,128.81,392.45z"/>
		<path class="st3" d="M212.27,621.17c-8.07,5.87-19.25-0.24-26.92-6.63c-12.25-10.23-23.57-21.58-33.77-33.84
			c-11.16-13.37-21.06-27.93-34.01-39.59c-9.31-8.39-20.01-15.07-30.15-22.44c-21.96-16-46.68-31.24-58.1-52.04
			c-6.06-11.05-16.92-18.45-26.55-26.58c-0.94-0.79-1.87-1.61-2.79-2.46v-50.52c2.33-0.37,4.73-0.15,7.09,0.81
			c3.68,1.48,6.58,4.4,9.37,7.22c62.7,63.79,125.39,127.57,188.09,191.36c4.75,4.82,9.64,9.86,11.93,16.26
			C218.79,609.09,217.76,617.2,212.27,621.17z"/>
		<path class="st3" d="M342.51,788.28c6.22-8.89,12.52-17.93,16.03-28.2c3.51-10.26,3.93-22.1-1.39-31.56
			c9.97,7.1,19.94,14.19,29.91,21.29c28.85,20.53,57.7,41.06,86.01,62.32c-7.56,5.05-17.69,5.99-26.04,2.42
			c-5.68-2.43-10.39-6.7-15.89-9.5c-8.37-4.26-18.06-4.9-27.44-5.46c-7.28-0.43-14.56-0.87-21.84-1.3
			C367.56,797.45,352.82,796.49,342.51,788.28z"/>
		<path class="st4" d="M918.72,1064.82c-1.4,0.31-2.83,0.46-4.3,0.46c-5.06-0.03-10.52-1.7-15.63-3.99
			c-2.59-1.16-5.08-2.46-7.4-3.78c-94.34-53.87-189.1-108.05-274.04-175.79c-32.85-38.24-70.87-71.78-111.61-101.6
			c-13.04-9.55-26.4-18.74-40.7-26.26c-31.11-16.38-69.06-27.11-90.08-53.59c39.61,23.55,79.66,45.72,119.45,66.2
			c37.23,26.94,73.41,55.34,107.01,83.13c33.98,36.29,71.81,68.97,108.45,93.06c65.36,36.24,129.63,74.45,191.48,114.43
			c1.94,1.24,3.87,2.51,5.82,3.77c2.26,2.01,4.98,3.09,7.92,3.57C916.27,1064.67,917.49,1064.78,918.72,1064.82z"/>
		<path class="st4" d="M1228.25,1266.5c-3.42,6.39-9.79,10.68-16.28,13.89c-6.88,3.4-14.43,5.92-22.1,5.59
			c-0.74-0.04-1.47-0.08-2.2-0.18c-3.71-0.4-7.28-1.43-10.71-2.91c-6.91-2.93-13.27-7.57-19.19-12.29
			c-31.21-24.92-58.08-54.93-81.72-87.13c-5.84-7.98-11.74-16.77-11.82-26.65c-0.07-8.61,6.42-17.67,14.5-18.57
			c3.82,5.54,9.2,10.18,14.46,14.52c16.66,13.77,33.72,27.04,51.1,39.02c14.29,10.37,29.9,18.93,46.91,25.42l0.07,0.03
			c0.06-0.05,0.1-0.1,0.16-0.15c1.52-1.46,3.29-2.65,5.21-3.53c3.02-1.39,6.39-2.07,9.73-1.93c5.88,5.58,11.22,11.69,15.77,18.48
			C1229.35,1240.85,1234.37,1255.1,1228.25,1266.5z"/>
		<path class="st2" d="M1251.91,1250.87c-0.05,7.31-0.88,14.76-3.89,21.42c-1,2.18-2.26,4.25-3.74,6.16
			c-3.08,3.86-7.12,6.92-11.9,8.22c-2.96,1.16-5.93,2.34-9,3.17c-9.3-1.73-18.02-6.57-25.16-13.17c-0.02,0.01-0.02,0.01-0.02-0.01
			c-3.51-3.24-6.66-6.9-9.3-10.82c-0.29-0.42-0.56-0.86-0.86-1.3c-0.04-0.04-0.07-0.11-0.1-0.18c-1.93-3-3.61-6.22-4.9-9.55
			c-0.01-0.02-0.01-0.02-0.02-0.03c-1.6-4.18-2.55-8.57-2.56-13.03c0-0.04,0-0.08,0.01-0.11c0-0.04,0-0.08,0.01-0.12
			c0-0.45,0.02-0.88,0.03-1.31c0.05-1.3,0.19-2.59,0.45-3.83c1.23-6.72,4.75-12.86,9.65-17.81c0.17-0.17,0.35-0.36,0.54-0.52
			c1.68-1.65,3.53-3.17,5.48-4.5c5.28-2.45,11.63-2.65,16.94-0.23c2.58,1.18,4.9,2.91,7.16,4.61c5.81,4.34,11.61,8.69,17.18,12.79
			C1244.93,1235.56,1249.99,1243.14,1251.91,1250.87z"/>
		<path class="st5" d="M1200.12,1111.04c-0.72,1.47-1.53,2.9-2.42,4.26c-1.43,2.21-3.05,4.29-4.95,6.12
			c-7.06,6.75-17.08,9.15-25.9,10.48c-19.54,4.18-40.25,2.58-57.1-4.52c-11.76,0.08-23.65,0.18-35.09,2.76
			c0.22,0.73,0.49,1.44,0.79,2.11c-1.83-0.63-3.67-1.09-5.56-0.98c-7.84,0.49-12.3,10.7-20.12,11.36c-1.03-4.8-6.02-8.37-10.86-7.83
			c-1.24-4.14-2.49-8.29-3.73-12.43c-0.28-0.96-0.57-2.03-0.17-2.95c0.75-1.73,3.14-1.75,5.01-1.59
			c19.72,1.72,40.05-7.76,51.39-23.97c4.07,9.17,14.44,13.92,24.35,15.42c9.91,1.5,20.1,0.58,29.97,2.34
			c10.09,1.83,21.9,5.98,29.55-0.85c-0.76,2.44,1.68,4.91,4.23,5.24c2.54,0.31,5-0.79,7.37-1.78
			C1191.07,1112.51,1195.65,1111.12,1200.12,1111.04z"/>
		<path class="st4" d="M1049.1,1134.26c-0.81,16.03-10.24,31.37-24.18,39.33c-1.38,0.79-2.85,1.55-3.74,2.86
			c-0.83,1.22-1.03,2.74-1.42,4.16c-1.08,3.99-3.76,7.52-7.32,9.63c-7.37,4.37-16.7,2.27-25.01,0.18
			c-8.31-2.09-17.83-3.83-24.87,1.05c-2.06,1.43-3.87,3.41-6.3,4c-3.08,0.76-6.17-0.9-9.24-1.67c-5.67-1.42-11.75,0.17-17.44-1.16
			c-4.47-1.04-8.31-3.8-12.02-6.49c-6.48-4.7-13.02-9.44-18.34-15.43c-4.76-5.37-8.49-11.68-13.88-16.41
			c-5.63-4.94-12.93-8.01-17.59-13.88c3.26-3.1,6.53-6.2,9.79-9.3c15.72,13.78,35.21,23.21,55.77,26.98
			c10.27,1.88,20.73,2.38,31.16,2.87c4.38,0.21,8.75,0.41,13.13,0.62c3.12,0.15,6.57,0.19,8.97-1.81c2.12-1.77,3-4.83,5.42-6.16
			c1.84-1.01,4.08-0.74,6.16-0.5c8.69,0.99,17.5,0.9,26.17-0.29c3.2-0.44,7.06-1.67,7.59-4.85c0.36-2.14-1.04-4.14-1.47-6.26
			c-0.79-3.96,2.03-7.93,5.61-9.79s7.75-2.11,11.78-2.32C1049.3,1130.78,1049.17,1132.98,1049.1,1134.26z"/>
		<path class="st5" d="M1125.78,1344.23c-0.71-0.37-1.41-0.77-2.1-1.15c-17.5-9.68-33.99-21.12-49.15-34.22
			c-0.06-0.04-0.1-0.08-0.13-0.12c-1.48-1.39-2.97-2.83-4.49-4.32c0.72-4.58,0.93-9.23,0.62-13.84c0.86-1.39,1.71-2.75,2.56-4.14
			c3.77,4.66,8.29,9.69,14.27,10c0.88,0.03,1.85-0.01,2.56,0.53c0.69,0.5,0.93,1.39,1.19,2.2c1.1,3.41,3.12,6.62,6.03,8.73
			c1.37,0.99,2.87,1.74,4.3,2.61c2.25,1.35,4.28,3.02,6.07,4.91c2.77,2.98,4.88,6.49,6.99,9.98c0.78,1.31,1.58,2.61,2.36,3.93
			l0.02,0.05C1119.83,1334.32,1122.8,1339.26,1125.78,1344.23z"/>
		<path class="st5" d="M1244.27,1278.45c-3.08,3.86-7.12,6.92-11.9,8.22c-2.96,1.16-5.93,2.34-9,3.17
			c-0.43,0.13-0.88,0.25-1.32,0.34c-3.56,0.86-7.23,1.19-10.9,1.11c-0.01-0.07,0.01-0.16,0.03-0.25c-2.21-2.13-4.46-4.29-6.64-6.5
			c-0.01-0.02-0.02-0.01-0.03-0.03c-6.15-6.17-12.03-12.7-16.47-19.97c-0.04-0.04-0.07-0.11-0.1-0.18
			c-1.59-2.61-3.01-5.31-4.16-8.14l-0.02-0.05c-0.74-1.81-1.39-3.69-1.93-5.61c-0.79-2.88-1.3-5.93-1.35-8.91
			c0-0.04,0-0.08,0.01-0.12c0-0.45,0.02-0.88,0.03-1.31c0.05-1.3,0.19-2.59,0.45-3.83c0.42-2.11,1.15-4.12,2.24-6
			c1.61-2.79,3.58-1.22,3.4,2.4c-0.3,5.81,1.96,12.12,6.99,15.01c2.64,1.54,5.92,2.07,8.07,4.25c4.21,4.24,3.05,13.41,8.88,14.78
			c1.33,0.32,2.8,0.08,4.05,0.62c2.15,0.93,2.75,3.57,3.87,5.62c3.31,5.91,11.5,6.72,18.18,5.61
			C1239.15,1278.25,1241.94,1277.74,1244.27,1278.45z"/>
		<path class="st4" d="M1230.74,1239.74c0.46,4.52-1.44,9.04-4.3,12.58c-1.09,1.33-2.29,2.54-3.59,3.67
			c-2.12,1.87-4.48,3.49-6.83,5.06c-1.04,0.7-2.19,1.41-3.42,1.35c-0.95-0.05-1.82-0.55-2.64-1.08c-3.77-2.41-7.17-5.4-10.19-9.05
			c4.16-1.64,8.15-4,11.37-7.08c1.85-1.76,3.46-3.77,4.72-6c3.46-6.15,3.99-14.16,0.34-20.18
			C1221.37,1225.84,1229.83,1231.19,1230.74,1239.74z"/>
		<path class="st4" d="M1112.22,1368.18c-0.7,4.27-1.67,8.53-3.37,12.49c-0.16,0.41-0.33,0.81-0.52,1.2
			c-2.01,4.32-4.98,8.25-9.43,10.93c-6.41,2.67-13.22,5.05-20.15,4.49c-6.96-0.54-13.31-3.98-18.74-7.14
			c-4.65-2.81-9.39-5.67-13.19-9.57c-1.62-1.65-3.03-3.47-4.43-5.29c-0.76-12.97-8.3-25.27-16.78-35.54
			c-6.61-8.03-13.99-15.49-19.67-24.21c-5.71-8.73-9.72-19.05-8.59-29.39c0.94-8.57,6.07-16.94,13.59-20.72
			c1.58-0.82,3.25-1.42,5.03-1.78c6.81-1.35,13.96,0.93,19.77,4.76c5.82,3.81,10.52,9.07,15.17,14.24
			c7.61,8.5,15.22,17.01,22.83,25.52c-0.91-0.77-1.79-1.55-2.67-2.34c8.63,12.61,18.32,24.49,28.9,35.48
			c2.18,2.25,4.4,4.48,6.26,7.01C1110.51,1354.16,1112.67,1361.48,1112.22,1368.18z"/>
		<path class="st5" d="M1222.84,1255.98c-2.12,1.87-4.48,3.49-6.83,5.06c-1.04,0.7-2.19,1.41-3.42,1.35
			c-0.95-0.05-1.82-0.55-2.64-1.08c-3.77-2.41-7.17-5.4-10.19-9.05c4.16-1.64,8.15-4,11.37-7.08
			C1214.34,1249.44,1218.33,1253.11,1222.84,1255.98z"/>
		<path class="st5" d="M1204.53,1284.54c1.79,2.24,3.59,4.47,5.38,6.71c-4.04-0.19-8.09-0.89-11.99-1.92
			c-7.73-2.06-15.05-5.41-22.13-9.29c-0.11-0.07-0.23-0.12-0.35-0.19c0.27,0.53,0.54,1.05,0.8,1.59c0.2,0.42,0.4,0.81,0.6,1.23
			c-9.29-7.87-18.47-16.4-25.44-28.59c6.55,3.67,13.11,7.34,19.68,11c1.31,0.73,2.84,1.49,4.27,1.02c1.34-0.43,2.14-1.79,2.75-3.05
			c1.62-3.38,2.9-6.89,3.8-10.52c0.35,0.75,0.73,1.52,1.12,2.25c0.01,0.02,0.01,0.02,0.02,0.03c0.24,0.46,0.49,0.92,0.72,1.36
			l0.02,0.05c3.99,7.3,9.17,13.92,14.41,20.44c0.01,0.02,0.01,0.02,0.02,0.01c0.37,0.46,0.73,0.91,1.09,1.38
			c1.74,2.16,3.46,4.31,5.2,6.47C1204.51,1284.53,1204.52,1284.52,1204.53,1284.54z"/>
		
			<linearGradient id="SVGID_1_" gradientUnits="userSpaceOnUse" x1="-2241.8184" y1="-1156.6287" x2="-2194.5549" y2="-1180.2604" gradientTransform="matrix(0.9149 -0.4037 0.4037 0.9149 3622.7993 1440.6954)">
			<stop  offset="0" style="stop-color:#E0AFA1"/>
			<stop  offset="1" style="stop-color:#FDD5C8"/>
		</linearGradient>
		<path class="st9" d="M1175.79,1280.04c0.17,0.47,0.33,0.93,0.45,1.39c1.54,4.99,1.8,10.21,0.13,15.21
			c-0.3,0.92-0.66,1.79-1.06,2.63c-3.31,6.95-9.87,11.81-16.9,15.78c-2.29,1.31-4.65,2.51-6.96,3.68
			c-3.41,1.71-6.93,3.46-10.74,3.79c-3.8,0.32-8.02-1.11-7.12-1.4c-8.4-7.6-16.83-15.21-25.23-22.81c-3.05-2.75-6.08-5.49-9.13-8.25
			c-7.4-6.69-14.89-13.46-20.59-21.67c-5.72-8.2-9.57-18.07-8.8-28.04c0.49-6.44,3.2-12.84,7.58-17.5c2.39-2.55,5.29-4.58,8.61-5.8
			c9.64-3.55,20.6,0.1,29.02,5.99c8.42,5.9,15.13,13.88,23.05,20.44c9.02,7.49,19.58,13.11,27.87,21.42
			C1170.2,1269.14,1173.77,1274.41,1175.79,1280.04z"/>
		<path class="st5" d="M1166.05,1323.93c-0.37,1.31-1.34,2.37-2.27,3.36c-4.35,4.6-9.62,9.59-15.94,9.05
			c-4.28-0.37-7.88-3.27-10.87-6.37c-5.99-6.26-10.53-13.83-16.82-19.77c-3.86-3.67-8.25-6.62-12.86-9.29c0.12-0.5,0.29-1,0.48-1.47
			c0.17-0.4,0.36-0.79,0.58-1.15c-3.05-2.75-6.08-5.49-9.13-8.25c-7.4-6.69-14.89-13.46-20.59-21.67c-5.72-8.2-9.57-18.07-8.8-28.04
			c0.49-6.44,3.2-12.84,7.58-17.5c-1.84,12.62-2.27,26.16,5.89,35.58c3.2,3.72,7.45,6.36,11.03,9.71c4.16,3.88,7.38,8.76,9.35,14.09
			c1.13,3.06,1.88,6.38,4.03,8.82c1.86,2.11,4.49,3.31,7.03,4.45c1.59,0.71,3.17,1.41,4.74,2.13c0.02,0.01,0.02,0.01,0.05,0.02
			c12.97,5.78,25.93,11.59,38.87,17.39c0.2,0.09,0.43,0.19,0.63,0.29C1162.74,1316.99,1167.15,1320.03,1166.05,1323.93z"/>
		
			<linearGradient id="SVGID_00000067212134209075597760000008666161580417118349_" gradientUnits="userSpaceOnUse" x1="-2238.3347" y1="-1190.6982" x2="-2209.5828" y2="-1205.5868" gradientTransform="matrix(0.9149 -0.4037 0.4037 0.9149 3622.7993 1440.6954)">
			<stop  offset="0" style="stop-color:#FDD5C8"/>
			<stop  offset="0.4832" style="stop-color:#FBD3C6"/>
			<stop  offset="0.7027" style="stop-color:#F6CCBF"/>
			<stop  offset="0.8685" style="stop-color:#EDBFB2"/>
			<stop  offset="1" style="stop-color:#E0AFA1"/>
		</linearGradient>
		<path style="fill:url(#SVGID_00000067212134209075597760000008666161580417118349_);" d="M1082.02,1246.44
			c5.39,4.53,10.99,8.8,16.78,12.81c1.55,1.07,3.24,2.16,5.13,2.12c1.51-0.04,2.9-0.81,4.2-1.6c3.92-2.39,7.73-5.17,10.33-8.96
			s3.84-8.74,2.31-13.07c-0.85-2.39-2.45-4.42-4.08-6.35c-4.03-4.8-8.37-9.35-12.98-13.61c-2.51,1.71-3.14,5.06-4.57,7.75
			c-1.34,2.51-3.45,4.51-5.43,6.56C1089.2,1236.75,1085.19,1241.91,1082.02,1246.44z"/>
		<path class="st5" d="M1180.58,1343.04c0.33-0.08,0.64-0.16,0.96-0.24c-2.57,3.33-5.59,6.22-9,8.52
			c-4.41,1.82-8.89,3.68-13.64,4.04c-5.78,0.45-11.47-1.32-16.9-2.94c-5.49-2.56-10.87-5.28-16.19-8.18l-0.02-0.01
			c-0.71-0.37-1.41-0.77-2.1-1.15c-1.4-2.43-2.62-4.98-3.83-7.5c-1-2.08-1.99-4.15-2.98-6.21l-0.02-0.05
			c-2.06-4.3-4.12-8.6-6.18-12.9c-2.33-4.87-4.7-10.42-3.37-15.5c0.12-0.5,0.29-1,0.48-1.47c0.17-0.4,0.36-0.79,0.58-1.15
			c0.4-0.6,0.88-1.12,1.53-1.42c0.86-0.42,1.86-0.42,2.81-0.35c2.31,0.15,4.56,0.55,6.79,1.1c0.02,0.01,0.02,0.01,0.05,0.02
			c5.95,1.45,11.7,4.09,17.51,6.19c8,2.89,17.05,4.81,24.87,1.5c4.54-1.92,8.63-5.56,13.39-6.07c0.51-0.04,1.02-0.07,1.54-0.03
			c-2.66,6.14-5.31,12.26-7.97,18.4c-1.66,3.84-3.34,7.75-3.7,11.93c-0.37,4.16,0.81,8.69,4.01,11.38
			C1172.26,1343.5,1176.67,1343.94,1180.58,1343.04z"/>
		<path class="st4" d="M1014.41,1308.99c3.07,7.51,10.76,12.89,18.86,13.22c1.16,0.05,2.42,0.03,3.35,0.72
			c1.24,0.92,1.38,2.68,1.61,4.2c1.27,8.36,8.09,14.64,14.66,19.97c5.94,4.81,12.72,9.68,20.35,9.37c4.31-0.18,9.47-1.75,12.35,1.47
			c2.63,2.95,0.77,8.06-2.7,9.95c-3.47,1.89-7.73,1.42-11.58,0.51c-22.38-5.29-39.72-22.77-53.97-40.83
			c-4.92-6.24-9.69-12.75-12.61-20.15c-2.92-7.4-3.83-15.87-0.97-23.29c1.89,3.57,4.87,6.55,8.44,8.44
			c1.35,0.72,2.89,1.38,3.56,2.75c0.71,1.44,0.21,3.14-0.08,4.72C1014.81,1304.87,1016.12,1310.05,1014.41,1308.99z"/>
		<path class="st5" d="M1108.85,1380.68c-0.16,0.41-0.33,0.81-0.52,1.2c-2.01,4.32-4.98,8.25-9.43,10.93
			c-6.41,2.67-13.22,5.05-20.15,4.49c-6.96-0.54-13.31-3.98-18.74-7.14c-4.65-2.81-9.39-5.67-13.19-9.57
			c-1.62-1.65-3.03-3.47-4.43-5.29c-0.76-12.97-8.3-25.27-16.78-35.54c-6.61-8.03-13.99-15.49-19.67-24.21
			c-5.71-8.73-9.72-19.05-8.59-29.39c0.94-8.57,6.07-16.94,13.59-20.72c-8.12,8.45-9.04,22.02-5.2,33.15
			c3.9,11.3,11.82,20.69,19.57,29.79c3.08,3.63,6.16,7.24,9.23,10.85c6.33,7.44,12.83,15.02,21.29,19.88
			c8.47,4.87,19.43,6.55,27.94,1.77c7.82-4.38,12.25-14.11,10.41-22.89c3.89,8.3,3.02,18.66-2.21,26.2
			c-1.68,2.42-3.87,4.82-3.95,7.76c-0.04,1.59,0.55,3.13,1.21,4.57c1.77,3.92,4.36,7.91,8.42,9.29c4.09,1.39,9.59-1.47,9.27-5.77
			C1107.61,1380.15,1108.25,1380.37,1108.85,1380.68z"/>
		<path class="st2" d="M1011.25,1298.63c3.7,4.53,7.68,8.83,11.93,12.86c1.3,1.23,2.68,2.47,4.39,2.99c3.16,0.96,6.45-0.76,9.3-2.42
			c3.63-2.11,7.42-4.38,9.55-8c2.83-4.81,2.02-11.08-0.61-16c-2.63-4.92-6.84-8.78-10.96-12.54c-3.11,5.56-7.75,10.09-12.32,14.52
			C1019.1,1293.36,1015.69,1296.68,1011.25,1298.63z"/>
		<path class="st5" d="M977.54,1393.85c0.33,4.9,1.13,9.78,2.42,14.54c-4.24-4.53-8.23-9.31-12.91-13.34
			c-3.83-3.28-8.05-6.02-11.92-9.22c-1.49-1.22-2.91-2.53-4.31-3.85c-0.45-0.43-0.88-0.86-1.32-1.3c0.04-2.12,0.3-4.25,0.59-6.3
			c0.23-1.72,0.48-3.44,0.8-5.04c4.39,2.99,11.03,1.94,14.29-2.27C964.19,1377.33,969.1,1387.95,977.54,1393.85z"/>
		<path class="st4" d="M1028.65,1368.25c0.63,1.38,1.25,2.78,1.85,4.19c1.61,3.65,3.14,7.35,4.6,11.06
			c1.73,4.43,3.4,9.02,3.09,13.64c-2.08,6.41-5.29,12.57-9.94,17.43c-0.7,0.75-1.45,1.47-2.24,2.16
			c-5.85,5.13-13.77,8.14-20.84,6.77c-3.68-0.24-7.2-1.35-10.46-3.06c-3.94-2.02-7.53-4.85-10.73-7.93
			c-1.39-1.32-2.73-2.71-4.04-4.11c-1.45-1.54-2.85-3.12-4.28-4.67c-2.74-7.43-3.22-15.9,0.21-22.91c0.12-0.32,0.28-0.61,0.43-0.9
			c-2.23-4.04-4.31-8.21-6.19-12.43c-2.69-6.04-5.01-12.27-6.91-18.59c-0.71-2.35-1.38-4.74-1.82-7.15
			c-0.39-1.93-0.61-3.89-0.64-5.88c-0.02-2.84,0.46-5.69,1.35-8.39c1.92-5.77,5.81-10.86,11.11-13.81
			c7.78-4.34,18.34-3.47,24.86,2.58c2.97,2.75,5.02,6.3,7.02,9.82c7.05,12.32,14.09,24.66,21.14,36.97
			C1027.06,1364.77,1027.86,1366.5,1028.65,1368.25z"/>
		<path class="st2" d="M972.73,1340.64c2.5,5.36,5.36,10.54,8.56,15.51c0.96,1.5,2.01,3.03,3.55,3.93c1.04,0.61,2.23,0.88,3.42,1.04
			c5.35,0.69,10.96-1.06,14.97-4.66c2.82-2.54,4.89-6.18,4.64-9.97c-0.17-2.56-1.36-4.92-2.52-7.2c-1.98-3.88-3.96-7.76-5.94-11.64
			c-2.4,3.21-6.85,3.89-10.3,5.93c-1.53,0.91-2.87,2.09-4.37,3.06c-2.41,1.55-5.16,2.49-7.88,3.4
			C975.74,1340.41,974.62,1340.79,972.73,1340.64z"/>
		<path class="st5" d="M1029.98,1369.6c0.23,0.93,0.41,1.88,0.53,2.84c1.06,8.13-1.6,16.78-7.3,22.72c-1.12,1.18-2.35,2.27-3.11,3.7
			c-1.88,3.56-0.1,8.06,2.64,11.01c1.65,1.77,3.62,3.21,5.52,4.69c-0.7,0.75-1.45,1.47-2.24,2.16c-5.85,5.13-13.77,8.14-20.84,6.77
			c-3.68-0.24-7.2-1.35-10.46-3.06c-1.54-2.43-2.82-5.1-4.01-7.68c-2.75-5.91-5.53-11.84-8.28-17.75c-2.2-4.72-4.41-9.44-6.55-14.19
			c0.12-0.32,0.28-0.61,0.43-0.9c-2.23-4.04-4.31-8.21-6.19-12.43c-2.76-6.76-5.28-13.62-7.39-20.63c-0.49-1.66-0.96-3.37-1.35-5.12
			c-0.39-1.93-0.61-3.89-0.64-5.88c-0.02-2.84,0.46-5.69,1.35-8.39c2.56,13.17,5.51,26.36,11.7,38.23c6.77,13,18,24.4,32.2,27.95
			c2.39,0.6,4.97,0.96,7.21-0.03c1.78-0.81,3.12-2.35,4.31-3.9c4.95-6.4,8.76-13.74,11.12-21.47c0.07-0.21,0.14-0.42,0.2-0.64
			L1029.98,1369.6z"/>
		<path class="st3" d="M856.49,1197.53c-3.62,12.2-3.44,16.47-0.42,24.26s8.24,14.49,13.48,20.98
			c21.52,26.65,44.69,51.97,69.34,75.75c0.92,0.89,1.88,1.8,3.06,2.3c3.89,1.65,8.38-2.17,8.92-6.37s-1.63-8.24-4.02-11.73
			c-18.37-26.89-53.33-40.91-66.17-70.84c-5.9-13.74-6.45-29.64-14.37-42.32c-0.72-1.15-1.66-2.37-3.01-2.52
			c-2.01-0.22-3.35,2-3.95,3.93C857.86,1195.68,857.45,1194.31,856.49,1197.53z"/>
		<path class="st3" d="M941.95,1137.86c3.89,2.33,8.47,4.6,12.79,3.2c7.54-2.44,7.96-13.28,13.73-18.71
			c10.52-9.88,29.87,3.8,41.58-4.62c5.36-3.85,7.11-11.16,11.98-15.63c4.21-3.87,10.13-5.09,15.75-6.16
			c15.82-3.02,31.64-6.03,47.46-9.05c1.52-0.29,3.16-0.65,4.18-1.81c2.95-3.38-2.22-7.92-6.57-8.98
			c-33.38-8.16-65.84,15.25-99.88,19.93c-9.42,1.29-19.39,1.25-27.71,5.84c-3.64,2.01-6.88,4.88-10.89,5.97
			c-5.01,1.37-10.28-0.26-15.4-1.12c-5.13-0.86-11.15-0.62-14.5,3.35C911.11,1114.04,932.35,1132.1,941.95,1137.86z"/>
		<path class="st3" d="M1117.87,1090.29c14.54,3.86,29.55,5.94,44.6,6.19c7.95,0.13,16.23-0.33,23.22-4.12
			c1.28-0.69,2.58-1.58,3.13-2.93c1.41-3.46-2.89-6.57-6.59-7.09c-5.83-0.81-11.67,0.86-17.51,1.63
			c-16.98,2.24-33.94-3.22-51.01-4.71c-2.23-0.2-4.61-0.3-6.58,0.77c-1.97,1.07-3.25,3.72-2.07,5.63c0.7,1.14,2.03,1.7,3.29,2.16
			C1113.03,1089.5,1117.89,1090.65,1117.87,1090.29z"/>
		<path class="st3" d="M1108.15,1266.59c4.76-1.82,9.64-3.71,13.43-7.11c3.79-3.4,6.32-8.7,5.02-13.63
			c-4.12,7.33-8.95,15.25-16.95,17.82c-1.97,0.63-4.4,1.2-5.03,3.17C1106.99,1267,1109.37,1266.69,1108.15,1266.59z"/>
		<path class="st2" d="M1084.51,1235.59c3.46-3.16,6.59-6.69,9.3-10.52c1.39-1.96,2.55-4.96,0.68-6.46
			c-5.8,2.07-9.58,7.55-12.95,12.7c-0.82,1.25-1.66,2.74-1.15,4.14C1080.89,1236.85,1083.26,1236.73,1084.51,1235.59z"/>
		<path class="st2" d="M1019.45,1285.46c3.72-3.05,6.48-7.27,7.79-11.9c0.29-1.01,0.5-2.14,0.04-3.09c-0.95-1.97-3.8-1.75-5.9-1.12
			c-3.11,0.93-6.26,2.11-8.64,4.32c-2.38,2.21-3.86,5.65-2.94,8.77C1011.09,1286.82,1016.6,1287.8,1019.45,1285.46z"/>
		<path class="st2" d="M975.27,1330.42c2.28-1.21,4.93-1.45,7.47-1.85c2.55-0.4,5.21-1.06,7.05-2.87c1.84-1.81,2.45-5.09,0.65-6.94
			c-2.16-2.21-5.86-1.07-8.67,0.21c-2.33,1.06-4.65,2.12-6.98,3.18c-1.2,0.55-2.46,1.14-3.19,2.24
			C970,1326.82,973.15,1331.55,975.27,1330.42z"/>
	</g>
	<g>
		<g>
			<path class="st69" d="M495.58,867.82c55.4-93.99,133.21-174.68,225.12-233.47c26.04-16.65,51.29-22.54,82.16-34.15
				c-47.77-9.64-109.13,42.3-156.61,76.93c-14.54,11-29.08,22-43.62,32.99c-1.11-5.49-9.93-2.09-12.25,3.01
				c-2.32,5.1-4.88,12.21-10.44,11.53c0.46-4.85-1.27-9.86-4.63-13.38C538.22,756.95,510.32,810.05,495.58,867.82z"/>
			<path class="st69" d="M603.42,753.1c6.72,1.36,13.57,2.1,20.43,2.21c1.81,0.03,3.7-0.01,5.29-0.87c1.59-0.86,2.73-2.83,2.08-4.51
				c-0.42-1.07-1.43-1.78-2.44-2.32c-3.19-1.69-6.96-2.28-10.51-1.64C612.68,746.99,607.97,750.84,603.42,753.1z"/>
			<path class="st69" d="M829.16,606.78c6.28,2.45,13.23,3.17,19.88,2.05c2.08-0.35,4.38-1.07,5.31-2.97
				c1.41-2.88-1.46-6.17-4.51-7.15c-5.65-1.81-11.64,0.75-17.32,2.47C825.18,603.4,817.97,602.41,829.16,606.78z"/>
			<path class="st69" d="M734.58,645.31c13.89,3.27,28.93,5.85,44.84,7.69c7.42,0.86,15.33,1.55,23.81,0.73
				c8.48-0.82,17.68-3.53,20.99-7.14c4.89-5.32-5.5-9.58-17.49-9.7c-11.99-0.12-24.81,2.47-37.29,4.3
				C749.73,644.08,730.59,644.37,734.58,645.31z"/>
			<path class="st69" d="M600.65,686.1c5.22-6.8,12.13-12.2,17.2-19.12c5.07-6.92,8.11-16.39,4.29-24.08
				c-0.48-0.98-1.1-1.94-2.04-2.5c-1.79-1.08-4.14-0.38-5.92,0.72c-7.74,4.78-9.61,15.06-10.25,24.13
				C603.29,674.33,602.71,684.42,600.65,686.1z"/>
		</g>
		<path class="st69" d="M559.1,892.2c-16.94-6.17-34.39-11.53-51.87-15.94l-0.52-0.13c-3.65-0.92-7.42-1.87-11.16-3.58
			c-3.6-1.65-6.81-3.86-9.63-5.81l-40.56-43.72l47.9,33.07c2.62,1.81,5.09,3.52,7.66,4.69c2.66,1.22,5.71,1.98,8.93,2.79l0.53,0.13
			C528.29,868.23,559.1,892.2,559.1,892.2z"/>
	</g>
</g>
</svg>
