<svg width="2000" height="1040" viewBox="0 0 2000 1040" fill="none" xmlns="http://www.w3.org/2000/svg">
<g clip-path="url(#clip0_101_1386)">
<rect width="2000" height="1040" fill="#9BAFBD"/>
<path d="M1073.33 900.452C975.044 881.794 943.553 884.187 883.179 870.536C880.572 869.954 877.929 869.325 875.2 868.664C863.045 865.75 850.837 862.79 838.526 859.782C747.686 837.598 653.691 813.382 563.975 791.324C492.315 773.688 420.828 755.361 350.036 734.909C321.598 726.706 293.141 718.094 263.646 714.141C229.496 709.544 196.452 710.866 162.627 704.632C142.593 700.915 118.297 696.318 93.6263 695.436C60.6696 694.286 31.8215 690.65 4.94313 694.743C3.50391 694.947 2.03125 695.2 0.592026 695.483C-1.93499 694.522 4.29049 475.541 7.0518 382.598C7.80488 357.532 8.29019 341.646 8.29019 341.646C52.6217 338.496 97.2411 338.953 141.467 343.015C184.298 346.968 228.438 354.147 269.63 342.637C282.93 338.921 295.495 333.364 308.009 327.821C340.183 313.541 372.338 299.291 404.511 285.042C432.114 272.682 460.314 258.763 488.532 244.861C500.465 238.957 512.451 233.083 524.932 228.282C543.329 221.179 562.697 216.55 581.998 211.906C625.44 201.467 669.071 191.012 713.672 186.211C736.74 183.738 760.575 182.62 782.417 175.944C785.349 175.062 788.23 174.071 791.095 172.937C791.914 172.622 792.714 172.307 793.532 171.976C794.642 171.521 795.733 171.032 796.824 170.529C803.506 167.458 809.934 163.679 816.379 159.759C820.625 157.192 824.854 154.578 829.183 152.091C838.374 146.8 847.921 142.092 858.56 139.699C862.192 138.881 865.942 138.33 869.865 138.141C870.7 138.077 871.552 138.062 872.405 138.03C896.002 147.052 904.406 175.944 896.633 198.413C888.874 220.896 869.369 238.043 849.831 253.252C834.639 265.046 818.324 276.571 799.092 281.136C782.587 285.026 764.769 283.546 748.914 289.325C734.576 294.551 722.674 305.433 710.159 313.305C707.995 314.642 705.846 315.902 703.631 317.035C702.811 317.46 701.992 317.855 701.174 318.232C721.037 318.563 740.917 318.924 760.78 319.303C874.86 321.428 988.512 324.106 1099.47 329.143C1100.97 329.207 1102.47 329.285 1103.97 329.349C1182.47 330.025 1260.9 337.347 1337.95 351.25C1339.09 351.439 1340.21 351.643 1341.36 351.864C1348.67 353.202 1355.97 354.587 1363.25 356.036C1365.86 356.555 1368.38 357.169 1370.83 357.879C1382.29 361.201 1391.91 366.695 1398.57 375.638C1401.1 378.992 1403.21 382.866 1404.83 387.289C1407.7 395.163 1407.08 410.971 1400.69 421.566C1391.98 435.989 1374.62 444.366 1357.13 447.893C1339.67 451.435 1305.3 453.546 1303.79 453.482C1241.96 451.025 1192.75 449.374 1149.75 448.617C1065.59 447.106 1005.29 448.917 920.996 454.428C915.796 454.757 903.606 457.261 898.95 459.403C893.034 462.126 891.296 466.457 891.227 471.573C891.158 475.904 892.318 480.769 893.222 485.759C896.972 486.201 900.708 486.656 904.458 487.083L904.527 487.083C946.331 492.042 988.36 496.481 1030.44 494.907C1050.57 494.135 1070.73 492.01 1090.84 492.97C1130.83 494.907 1160.87 505.425 1199.96 508.795C1244.21 512.621 1297.5 512.715 1340.66 522.572C1375.57 530.523 1400.4 531.766 1422.04 536.679C1429.45 538.333 1436.48 540.458 1443.43 543.419C1443.45 543.419 1443.45 543.419 1443.45 543.419C1449.66 546.063 1455.78 549.355 1462.02 553.637C1462.68 554.077 1463.29 554.534 1463.91 555.023C1471.43 560.957 1476.12 569.554 1477.94 578.814C1480.24 590.337 1478.08 602.855 1471.33 612.445C1458.73 630.346 1438.52 645.083 1415.45 643.808C1387.97 642.28 1368.04 643.068 1344.1 641.904C1323.56 640.879 1303.2 637.668 1282.77 632.897C1278.8 631.968 1274.81 630.992 1270.84 629.953C1221.92 632.676 1172.82 632.535 1123.89 629.56C1092.17 627.622 1060.53 624.474 1029.09 620.16C997.362 615.767 965.802 610.192 934.006 606.241C923.007 604.855 902.65 601.595 891.789 603.642C881.628 605.531 881.611 613.405 880.997 621.607L880.947 622.41C880.895 622.742 880.878 623.056 880.861 623.403C912.369 639.651 949.879 641.415 985.547 646.579C990.525 647.287 995.502 648.091 1000.46 648.957C1003.45 649.461 1006.4 650.012 1009.35 650.579C1010.15 650.705 1010.97 650.847 1011.75 651.019C1013.51 651.334 1015.25 651.697 1016.99 652.043C1018.26 652.279 1019.53 652.53 1020.82 652.798C1025.94 653.822 1031.05 654.924 1036.15 656.058C1037.79 656.42 1039.44 656.766 1041.08 657.144C1053.97 660.041 1066.8 663.144 1079.66 666.277C1082.75 667.031 1085.82 667.788 1088.92 668.528C1093.15 669.552 1097.39 670.591 1101.65 671.598C1108.39 673.22 1115.11 674.795 1121.86 676.306C1124.06 676.81 1126.27 677.314 1128.47 677.802C1134.53 679.109 1140.56 680.384 1146.61 681.581C1148.71 681.974 1150.79 682.399 1152.89 682.778C1154.81 683.156 1156.76 683.485 1158.67 683.849C1159.21 683.927 1159.76 684.036 1160.29 684.146C1162.01 684.446 1163.75 684.729 1165.47 685.029C1165.97 685.107 1166.49 685.203 1166.99 685.281C1168.4 685.517 1169.8 685.738 1171.22 685.957C1172.84 686.21 1174.44 686.461 1176.08 686.697C1177.85 686.965 1179.64 687.217 1181.45 687.453C1182.95 687.658 1184.46 687.879 1186 688.036C1186.19 688.083 1186.39 688.099 1186.56 688.114C1186.7 688.131 1186.82 688.161 1186.95 688.161C1188.8 688.399 1190.65 688.618 1192.5 688.807C1193.45 688.933 1194.41 689.043 1195.36 689.122C1197.06 689.311 1198.77 689.485 1200.47 689.626C1201.09 689.704 1201.72 689.753 1202.33 689.815C1203.61 689.925 1204.87 690.021 1206.13 690.114C1207.57 690.257 1209 690.367 1210.43 690.446C1212.75 690.618 1215.05 690.76 1217.37 690.871C1236.19 697.121 1256.45 698.318 1276.28 700.711C1281.34 701.325 1286.46 702.033 1291.5 702.93C1306.23 705.561 1320.61 709.748 1332.71 717.731C1334.09 718.659 1335.46 719.62 1336.79 720.644C1350.84 731.681 1359.91 749.032 1355.54 765.439C1349.69 787.403 1323.33 799.117 1299.07 802.171C1272.32 805.557 1245.19 802.171 1218.46 798.771C1202.01 796.677 1185.52 794.599 1169.07 792.488C1144.93 789.418 1120.8 786.363 1096.66 783.294C1086.09 781.97 1075.52 780.633 1064.96 779.184C1041.52 776.034 1018.16 772.445 995.144 767.548C978.76 764.084 962.562 759.944 946.708 754.826C919.376 746.025 891.722 734.216 863.453 731.76L863.437 731.76C855.099 731.005 846.676 731.084 838.22 732.31C835.065 732.752 831.809 733.445 829.081 734.909C828.007 735.477 827.017 736.185 826.149 737.035C824.581 738.593 823.711 740.797 823.711 742.907C823.711 744.497 824.239 746.057 825.364 747.206C825.62 747.457 825.91 747.71 826.234 747.914C827.309 748.622 828.57 748.985 829.831 749.347C885.907 765.265 942.002 781.199 998.078 797.102C1025.7 804.958 1053.45 812.832 1082.1 816.169C1099.81 818.232 1118.33 818.704 1134.15 826.294C1134.78 826.593 1135.4 826.908 1135.99 827.237C1140.56 829.647 1144.43 832.591 1147.5 835.992C1154.27 843.471 1157.25 853.185 1155.68 864.411C1153.89 877.322 1144.04 891.226 1132.57 897.224C1121.94 902.735 1078.65 901.46 1073.33 900.452Z" fill="#FEE4DB"/>
<path d="M0.596792 695.498C-1.93022 694.538 4.29525 475.556 7.05656 382.614C7.80965 357.548 8.29495 341.661 8.29495 341.661C52.6265 338.512 97.2458 338.968 141.474 343.03C184.302 346.983 228.443 354.162 269.635 342.652C282.934 338.937 295.499 333.379 308.014 327.836C340.187 313.556 372.342 299.306 404.516 285.058C432.119 272.697 460.319 258.778 488.536 244.877C500.47 238.971 512.458 233.098 524.937 228.297C543.334 221.195 562.702 216.566 582.002 211.922C625.445 201.482 669.076 191.028 713.676 186.226C736.746 183.753 760.58 182.635 782.421 175.959C785.353 175.077 788.235 174.087 791.1 172.952C791.918 172.637 792.72 172.323 793.538 171.991C794.646 171.536 795.738 171.048 796.829 170.544C803.513 167.473 809.939 163.694 816.384 159.775L829.189 152.107C833.843 152.989 838.514 153.869 843.17 154.751C845.146 155.129 847.108 155.491 849.086 155.869C854.525 156.876 860.697 158.451 863.135 162.939C863.22 163.08 863.323 163.237 863.391 163.379C864.532 165.773 864.397 168.087 863.408 170.229C861.003 175.441 853.467 179.676 847.022 181.927C809.531 194.838 770.777 207.939 730.812 206.19C720.6 205.75 710.301 204.317 700.241 205.875C687.831 207.781 676.782 214 665.717 219.526C645.325 229.713 623.723 237.854 601.457 243.821C595.591 245.395 589.403 246.955 585.038 250.891C563.214 245.599 538.782 250.638 521.459 264.007C554.416 265.186 586.879 276.414 612.573 295.512C612.454 296.346 612.214 297.102 611.823 297.763C609.162 302.549 600.501 303.18 594.023 302.424C559.77 298.33 525.483 294.252 491.196 290.19C538.543 316.2 596.614 325.254 653.696 325.6C657.652 325.647 661.608 325.617 665.563 325.554C667.61 325.538 669.655 325.49 671.701 325.443C701.487 324.735 731.17 322.042 760.819 319.318C874.898 321.443 988.552 324.121 1099.51 329.158C1101.01 329.222 1102.51 329.301 1104.01 329.364C1182.51 330.04 1260.94 337.362 1337.98 351.265C1336.4 352.509 1334.51 353.485 1332.51 354.305C1330.65 355.106 1328.68 355.752 1326.78 356.335C1310.23 361.499 1292 366.648 1275.77 360.696C1269.97 358.57 1264.36 355.028 1258.16 355.531C1248.05 356.366 1242.83 366.884 1239.69 375.811C1236.15 361.877 1220.07 351.691 1204.73 353.659C1203.02 362.081 1197.7 369.796 1190.18 374.803C1194.97 367.325 1189.36 357.153 1181.03 353.155C1172.69 349.17 1162.77 349.627 1153.39 350.179C1143.57 350.762 1133.76 351.359 1123.94 351.927C1107.59 352.919 1091.26 353.879 1074.93 354.838C1042.58 344.573 1003.45 342.495 966.848 350.477C955.748 352.919 944.82 356.224 933.481 357.342C915.869 359.059 897.626 355.185 882.605 346.509C881.907 356.602 872.529 365.592 861.617 366.6C860.322 362.05 859.008 357.484 857.679 352.934C850.381 348.919 842.675 357.469 839.06 364.57C835.428 371.671 827.195 379.985 820.221 375.513C814.441 371.813 816.725 363.027 812.429 357.894C806.684 351.029 794.715 355.438 787.519 361.027C781.228 365.924 774.681 371.686 766.463 372.032C758.262 372.395 750.079 362.901 755.603 357.28C683.977 374.395 611.242 391.904 547.528 426.636C517.299 443.137 482.96 464.22 450.055 452.915C446.031 451.529 442.007 449.529 439.757 446.176C436.075 440.713 438.326 433.203 443.048 428.478C447.771 423.771 454.437 421.188 460.865 418.763C403.152 423.046 345.949 424.984 309.753 392.501C305.048 388.297 300.734 383.511 294.954 380.678C278.11 372.379 258.417 383.526 241.282 391.304C216.27 402.658 187.661 407.066 160.04 403.854C147.015 402.326 133.988 399.147 120.911 400.373C107.834 401.587 94.1765 408.687 91.0404 420.464C89.1141 427.692 91.4321 435.217 93.1374 442.507C102.685 483.428 92.8127 525.83 82.9757 566.689C78.7651 584.134 74.5193 601.706 66.8814 618.128C53.1903 647.602 29.4918 671.786 5.03166 694.79C3.50876 694.963 2.05275 695.215 0.596792 695.498Z" fill="#E0AFA1"/>
<path d="M657.44 325.901C656.196 325.854 654.916 325.759 653.638 325.571C646.41 324.579 639.384 321.493 635.276 315.982C632.565 312.314 631.388 308.031 630.962 303.575C630.603 299.874 630.757 296.032 630.945 292.349C631.44 282.398 632.463 271.391 640.305 264.59C647.483 258.308 658.446 257.426 666.612 252.293C672.257 248.75 676.314 243.335 682.163 240.091C692.597 234.313 706.118 236.769 717.608 233.116C725.775 230.517 732.663 224.913 741.121 223.37C746.081 222.473 751.162 223.055 756.209 222.991C764.547 222.881 772.73 220.991 780.743 218.787C809.608 210.805 836.957 198.193 861.218 181.677C862.515 180.778 863.86 179.85 864.697 178.543C866.384 175.945 865.497 172.608 863.4 170.183C862.906 169.601 862.309 169.049 861.678 168.609C860.399 167.712 859.002 167.049 857.501 166.577C856.82 166.341 856.12 166.137 855.387 165.963C855.37 165.948 855.335 165.948 855.318 165.948C853.632 165.555 851.926 165.27 850.221 165.002C843.93 164.012 837.621 163.051 831.33 162.059C826.352 161.287 821.373 160.5 816.394 159.729L829.198 152.061C838.389 146.769 847.937 142.062 858.575 139.669C862.207 138.85 865.957 138.3 869.88 138.11C870.715 138.047 871.567 138.032 872.42 138C896.017 147.022 904.421 175.914 896.648 198.382C888.889 220.866 869.384 238.013 849.846 253.222C834.654 265.015 818.339 276.541 799.107 281.106C782.602 284.995 764.784 283.516 748.929 289.294C734.591 294.521 722.689 305.4 710.174 313.274C713.023 313.4 715.836 313.51 718.682 313.572C713.653 314.69 708.658 315.84 703.663 317.021C696.62 318.643 689.597 320.343 682.588 322.059C676.98 323.444 671.318 324.878 665.557 325.523C662.829 325.837 660.134 325.996 657.44 325.901Z" fill="#E0AFA1"/>
<path d="M1398.55 375.641L1385.46 367.265L1382.44 365.327L1370.83 357.88C1382.27 361.202 1391.89 366.697 1398.55 375.641Z" fill="#FEE4DB"/>
<path d="M57.7871 387.056C41.0787 385.434 23.4314 381.577 7.051 382.601C7.80408 357.535 8.28939 341.648 8.28939 341.648C52.6209 338.499 97.2403 338.956 141.466 343.017C184.295 346.97 228.438 354.15 269.63 342.639C282.927 338.924 295.494 333.366 308.008 327.824C340.18 313.543 372.337 299.293 404.508 285.045C432.113 272.684 460.312 258.766 488.529 244.864C500.465 238.96 512.45 233.086 524.931 228.284C543.327 221.182 562.696 216.553 581.997 211.909C625.438 201.47 669.068 191.015 713.671 186.214C736.739 183.74 760.575 182.622 782.416 175.947C785.348 175.065 788.23 174.074 791.093 172.939C791.911 172.625 792.713 172.31 793.531 171.979C804.801 174.246 816.395 174.75 827.631 173.428C835.065 172.563 842.361 170.893 849.301 168.389L849.318 168.389C850.971 167.775 852.608 167.146 854.211 166.453C854.262 166.438 854.28 166.406 854.33 166.389C854.672 166.264 854.995 166.123 855.303 165.964C855.763 165.777 856.189 165.588 856.615 165.382C856.633 165.399 856.683 165.43 856.683 165.46C857.041 165.792 857.314 166.17 857.485 166.595C858.286 168.374 857.57 170.735 856.052 172.185C854.143 174.01 851.363 174.75 848.739 175.411C806.916 185.929 763.848 192.29 720.576 194.354C709.477 194.904 698.291 195.157 687.499 197.455C671.796 200.84 657.543 208.398 642.215 213.012C629.94 216.727 617.067 218.491 604.484 221.152C588.065 224.614 572.09 229.575 556.149 234.503C537.138 240.407 517.292 246.768 503.686 260.341C500.123 263.915 497.412 270.338 501.845 272.952C503.567 273.976 505.801 273.881 507.847 273.787C532.399 272.574 557.563 274.495 580.206 283.345C590.999 287.564 601.092 293.311 611.799 297.719C614.323 298.743 616.896 299.718 619.522 300.554C623.274 301.765 627.093 302.743 630.979 303.561C636.299 304.694 641.705 305.561 647.092 306.394C660.033 308.394 672.956 310.283 686.016 311.575C694.047 312.379 702.094 312.944 710.158 313.276C713.007 313.401 715.82 313.512 718.666 313.575C713.636 314.693 708.64 315.841 703.645 317.023C702.827 317.448 702.008 317.841 701.19 318.219C721.053 318.551 740.933 318.912 760.796 319.29C874.876 321.416 988.528 324.092 1099.49 329.131C1100.99 329.194 1102.49 329.273 1103.99 329.335C1182.49 330.013 1260.91 337.334 1337.96 351.236C1339.1 351.425 1340.23 351.631 1341.37 351.85C1338.42 352.732 1335.46 353.536 1332.49 354.292C1330.51 354.796 1328.52 355.283 1326.5 355.74C1323.21 356.496 1319.77 357.172 1316.5 356.386C1313.63 355.708 1311.23 353.976 1308.43 353.095C1300.61 350.639 1292.15 355.251 1283.93 354.528C1274.98 353.725 1267.82 346.781 1258.89 345.663C1254.11 345.049 1249.32 346.214 1244.55 346.813C1215.49 350.465 1185.42 334.091 1157.51 342.356C1143.17 344.12 1128.68 344.246 1114.12 343.506C1063.58 341.049 1012.18 328.47 962.595 338.909C947.796 342.01 932.879 347.175 917.875 345.143C908.241 343.836 899.274 339.602 889.658 338.106C881.525 336.862 873.204 337.602 864.987 338.31C756.279 347.899 643.221 353.253 541.161 317.384C528.205 312.834 515.23 307.576 501.402 306.505C451.02 307.686 401.628 326.013 356.276 348.277C341.954 355.283 327.496 362.872 311.469 365.093C298.103 366.934 284.445 364.951 270.942 365.911C258.002 366.84 245.504 370.461 232.819 372.965C219.042 375.658 204.993 377.043 190.996 378.397C168.882 380.538 146.751 382.695 124.639 384.837C102.371 387.041 80.0031 389.198 57.7871 387.056Z" fill="#99685A"/>
<path opacity="0.5608" d="M1270.79 629.969C1221.87 632.694 1172.77 632.552 1123.84 629.576C1123.24 624.679 1124.06 619.373 1125 614.476C1128.97 593.552 1132.96 572.61 1136.93 551.686C1137.87 546.821 1138.86 541.782 1141.89 537.688C1148.73 528.414 1162.83 527.359 1174.97 527.217C1215 526.713 1256.11 526.399 1296.35 541.639C1297.01 569.02 1293.57 596.496 1286.17 623.011C1285.21 626.365 1284.21 629.749 1282.74 632.913C1278.75 631.984 1274.78 631.009 1270.79 629.969Z" fill="white"/>
<path d="M1295.75 557.132C1295.73 558.329 1295.45 559.542 1294.98 560.771C1295.1 559.494 1295.34 558.282 1295.75 557.132Z" fill="#E0AFA1"/>
<path d="M1273.21 538.901C1259.89 537.407 1243.47 543.39 1241.96 555.718C1242.7 544.901 1228.13 539.643 1216.57 537.69C1196.72 534.336 1176.35 530.967 1160.58 535.36C1142.73 528.857 1123.27 526.228 1104.16 527.754C1099.37 528.132 1094.54 528.778 1089.75 528.385C1084.86 527.99 1080.15 526.511 1075.34 525.629C1053.04 521.472 1030.06 529.707 1007.4 527.975C988.783 526.542 970.388 518.464 952.093 521.945C943.824 523.535 936.272 527.424 928.207 529.771C920.159 532.115 910.697 532.729 903.809 528.196C901.302 526.557 899.238 524.306 896.425 523.173C886.828 519.284 876.239 530.415 866.232 527.582C856.701 524.874 855.064 511.82 845.975 508.105C839.276 505.349 831.672 508.86 824.374 509.506C817.485 510.12 810.343 507.995 807.257 503.098C776.924 503.162 746.61 504.72 716.467 507.774C685.913 510.86 654.525 515.41 624.858 507.948C657.85 496.044 695.036 500.531 729.56 493.336C752.151 488.629 773.157 479.039 794.946 471.75C816.752 464.46 840.486 459.484 863.008 464.492C872.437 466.585 881.764 470.411 891.242 471.545C891.175 475.875 892.334 480.74 893.237 485.732C896.989 486.172 900.723 486.629 904.473 487.054L904.542 487.054C946.348 492.013 988.375 496.454 1030.45 494.879C1050.59 494.108 1070.74 491.983 1090.86 492.943C1130.84 494.879 1160.88 505.397 1199.98 508.766C1244.22 512.592 1297.52 512.687 1340.67 522.543C1375.59 530.494 1400.41 531.739 1422.05 536.65C1416.2 538.304 1410.71 540.886 1405.77 544.208C1394.77 551.577 1386.52 562.52 1383.47 574.77C1382.85 564.377 1378.61 554.222 1371.52 546.161C1362.7 553.702 1356.7 563.984 1354.72 574.927C1349.88 562.394 1341.58 549.813 1328.14 545.011C1315.95 540.682 1299.62 546.161 1295.8 557.087C1296.14 547.908 1284.07 540.099 1273.21 538.901Z" fill="#E0AFA1"/>
<path d="M1405.73 544.254C1388.6 543.482 1370.36 541.531 1352.25 539.578C1315.16 535.595 1278.06 531.578 1241 527.595C1204.12 523.627 1167.23 519.66 1130.7 513.598C1115.09 511.001 1099.32 508.009 1083.46 509.001C1072.84 509.677 1062.45 512.102 1051.87 513.173C1037.49 514.622 1023 513.534 1008.61 512.355C937.071 506.576 865.684 499.112 794.553 489.918C817.058 491.744 838.048 468.584 860.093 474.598C868.26 476.802 874.619 482.722 882.513 485.635C889.554 488.264 896.971 488.296 904.456 487.1L904.523 487.1C946.329 492.06 988.356 496.5 1030.44 494.925C1050.57 494.153 1070.72 492.028 1090.84 492.989C1130.82 494.925 1160.87 505.443 1199.96 508.812C1244.2 512.637 1297.5 512.733 1340.65 522.588C1375.57 530.539 1400.4 531.784 1422.03 536.696C1429.45 538.349 1436.47 540.475 1443.43 543.435C1431.9 544.804 1419.15 544.885 1405.73 544.254Z" fill="#99685A"/>
<path d="M1175.54 725.1C1163.28 715.528 1144.5 713.889 1130.53 721.179C1132.36 710.174 1118.65 703.025 1107.23 699.499C1093.31 695.216 1079.26 691.248 1065.1 687.659C1048.73 683.455 1032.21 679.738 1015.58 676.495C983.785 670.276 951.561 665.772 919.167 663.033C906.09 661.915 892.911 661.097 879.868 662.514C877.617 662.75 875.316 663.065 873.117 662.576C869.91 661.868 867.439 659.632 864.984 657.601C851.43 646.453 834.755 639.825 817.193 635.055C806.333 632.11 795.114 629.89 784.134 627.748C783.861 622.144 787.68 617.12 792.88 614.034C794.789 612.886 796.886 612.004 799.035 611.437C807.066 609.343 815.591 610.618 823.775 611.957C842.853 615.058 861.898 618.301 880.925 621.64L880.874 622.442C880.822 622.773 880.805 623.088 880.788 623.434C912.296 639.684 949.806 641.446 985.474 646.611C990.452 647.32 995.431 648.122 1000.39 648.989C1003.38 649.492 1006.33 650.043 1009.27 650.61C1010.08 650.736 1010.89 650.878 1011.68 651.05C1013.43 651.367 1015.17 651.728 1016.91 652.075C1018.19 652.311 1019.45 652.563 1020.75 652.831C1025.86 653.854 1030.98 654.956 1036.08 656.089C1037.71 656.453 1039.37 656.797 1041 657.175C1053.89 660.072 1066.73 663.175 1079.59 666.308C1082.67 667.064 1085.74 667.819 1088.85 668.561C1093.09 669.583 1097.32 670.622 1101.58 671.63C1108.32 673.251 1115.03 674.826 1121.78 676.337C1123.99 676.841 1126.2 677.33 1128.4 677.833C1134.45 679.14 1140.49 680.416 1146.54 681.612C1148.64 682.037 1150.72 682.431 1152.82 682.809C1154.74 683.187 1156.69 683.549 1158.6 683.88C1159.14 683.959 1159.69 684.069 1160.22 684.179C1161.94 684.477 1163.68 684.762 1165.4 685.06C1165.89 685.138 1166.42 685.234 1166.92 685.312C1168.33 685.548 1169.73 685.769 1171.14 685.99C1172.76 686.241 1174.37 686.494 1176 686.73C1177.78 686.998 1179.57 687.249 1181.37 687.485C1182.89 687.721 1184.39 687.91 1185.93 688.067C1186.11 688.116 1186.32 688.131 1186.49 688.146C1186.63 688.162 1186.74 688.194 1186.88 688.194C1188.72 688.445 1190.56 688.651 1192.42 688.839C1193.38 688.966 1194.33 689.076 1195.29 689.155C1196.99 689.344 1198.7 689.531 1200.4 689.659C1201.02 689.737 1201.65 689.784 1202.26 689.848C1203.54 689.973 1204.78 690.084 1206.06 690.146C1207.49 690.288 1208.93 690.398 1210.36 690.477C1212.68 690.649 1214.98 690.792 1217.3 690.902C1236.12 697.153 1256.38 698.349 1276.2 700.742C1281.27 701.356 1286.38 702.064 1291.43 702.963C1297.52 705.418 1302.19 709.371 1302.32 716.519C1294 716.346 1285.67 716.693 1277.38 717.511C1258.97 719.322 1240.84 723.511 1223.76 729.997C1223.95 721.683 1218.39 713.7 1210.6 709.717C1207.95 708.378 1205.07 707.466 1202.06 707.182C1200.85 707.056 1199.65 707.04 1198.44 707.103C1193.41 707.356 1188.55 709.182 1184.55 712.079C1184.55 712.079 1184.55 712.079 1184.55 712.095C1180.01 715.275 1176.65 719.889 1175.54 725.1Z" fill="#E0AFA1"/>
<path d="M1336.72 720.629C1320.42 719.747 1304.12 718.882 1287.82 718.032C1284.34 717.843 1280.86 717.654 1277.39 717.464C1254.93 716.189 1232.46 714.489 1210.6 709.671C1209.72 709.482 1208.81 709.293 1207.92 709.088C1204.79 708.349 1201.63 707.561 1198.45 707.057C1195.24 706.491 1191.98 706.223 1188.76 706.57C1187.48 706.71 1186.24 706.946 1184.99 707.246C1180.07 708.381 1175.33 710.395 1170.26 710.946C1159.57 712.032 1149.62 706.459 1140.14 701.767C1117.58 690.666 1093.08 683.88 1068.05 678.669C1055.09 675.944 1041.98 673.63 1028.96 671.347C1023.07 670.325 1017.16 669.269 1011.27 668.246C994.106 665.175 976.971 661.964 959.99 658.185C935.079 652.642 908.295 645.952 884.561 654.846C885.26 646.706 875.099 641.888 866.694 639.338C851.69 634.803 836.686 630.252 821.682 625.687C816.771 624.223 811.878 622.726 806.968 621.23C810.447 621.498 813.942 621.798 817.419 622.065L817.438 622.065C838.629 623.687 859.925 624.79 880.912 622.429C880.862 622.758 880.844 623.073 880.827 623.419C912.336 639.669 949.845 641.431 985.512 646.596C990.491 647.306 995.47 648.107 1000.43 648.974C1003.41 649.478 1006.36 650.028 1009.31 650.596C1010.11 650.721 1010.93 650.863 1011.72 651.036C1013.47 651.352 1015.21 651.713 1016.95 652.06C1018.23 652.296 1019.49 652.549 1020.79 652.816C1025.9 653.839 1031.02 654.942 1036.12 656.075C1037.75 656.438 1039.41 656.784 1041.04 657.161C1053.93 660.058 1066.77 663.16 1079.63 666.293C1082.71 667.05 1085.78 667.804 1088.88 668.546C1093.13 669.568 1097.36 670.607 1101.62 671.615C1108.36 673.237 1115.07 674.811 1121.82 676.323C1124.02 676.826 1126.24 677.315 1128.44 677.819C1134.49 679.126 1140.53 680.401 1146.58 681.598C1148.68 682.023 1150.76 682.416 1152.86 682.794C1154.78 683.172 1156.73 683.534 1158.63 683.865C1159.18 683.944 1159.73 684.054 1160.25 684.165C1161.98 684.463 1163.72 684.747 1165.44 685.045C1165.93 685.125 1166.46 685.219 1166.96 685.298C1168.37 685.534 1169.77 685.755 1171.18 685.976C1172.8 686.227 1174.41 686.479 1176.04 686.715C1177.82 686.983 1179.61 687.234 1181.41 687.47C1182.93 687.706 1184.43 687.895 1185.96 688.052C1186.15 688.101 1186.36 688.116 1186.53 688.131C1186.66 688.148 1186.78 688.179 1186.92 688.179C1188.76 688.43 1190.6 688.636 1192.46 688.824C1193.42 688.951 1194.37 689.061 1195.33 689.14C1197.03 689.329 1198.74 689.517 1200.44 689.644C1201.05 689.722 1201.69 689.769 1202.3 689.833C1203.58 689.958 1204.82 690.069 1206.1 690.131C1207.53 690.273 1208.97 690.384 1210.4 690.462C1212.72 690.635 1215.02 690.777 1217.34 690.887C1236.16 697.138 1256.41 698.334 1276.24 700.728C1281.31 701.342 1286.42 702.05 1291.47 702.948C1306.2 705.577 1320.57 709.766 1332.68 717.749C1334.04 718.629 1335.41 719.59 1336.72 720.629Z" fill="#99685A"/>
<path d="M829.032 734.894C799.178 727.715 769.341 720.521 739.487 713.308C770.705 714.253 802.11 715.246 832.595 721.418C843.319 723.575 854.078 726.503 863.369 731.747C855.032 730.99 846.611 731.069 838.153 732.297C835 732.737 831.76 733.43 829.032 734.894Z" fill="#E0AFA1"/>
<path d="M1122.46 893.652C1111.21 893.259 1100 891.873 1089.06 889.48C1081.9 887.92 1074.05 885.37 1070.9 879.229C1068.26 874.144 1069.67 868.161 1071.16 862.682C1071.75 860.493 1072.33 858.336 1072.91 856.147C1073.54 853.8 1074.22 851.36 1075.3 849.156C1076.12 847.503 1077.14 845.992 1078.57 844.7C1081.42 842.164 1085.38 841 1089.23 840.149C1103.96 836.828 1119.44 836.309 1134.39 838.575C1135.08 843.614 1135.43 848.763 1135.43 853.943C1135.43 865.483 1133.68 877.23 1130.04 888.456C1129.52 890.141 1128.82 891.92 1127.25 892.88C1125.87 893.714 1124.1 893.699 1122.46 893.652Z" fill="#F2CEC4"/>
<path d="M1058.86 827.096C1055.77 825.837 1052.79 824.373 1049.57 823.506C1039.06 820.673 1027.73 824.467 1016.92 822.877C1005.68 821.224 995.963 813.823 984.607 813.194C978.589 812.831 972.587 814.437 966.586 813.902C952.11 812.642 942.017 799.811 928.257 795.512C915.658 791.591 901.66 795.244 888.721 792.411C874.876 789.386 863.623 779.2 849.574 777.059C839.327 775.5 828.842 778.445 818.458 777.94C809.525 777.515 800.948 774.556 792.61 771.563C770.838 763.706 749.288 755.299 728.009 746.355C743.354 736.861 761.511 728.974 779.721 731.807C791.536 733.65 802.62 739.885 813.769 744.011C817.589 745.395 821.425 746.544 825.313 747.205C825.569 747.458 825.858 747.709 826.181 747.915C827.256 748.623 828.517 748.986 829.779 749.348C885.856 765.266 941.949 781.2 998.025 797.101C1025.65 804.959 1053.4 812.831 1082.05 816.17C1099.76 818.231 1118.28 818.705 1134.1 826.294C1134.73 826.592 1135.34 826.907 1135.94 827.238C1130.16 828.545 1124.35 829.742 1118.48 830.702C1098.09 834.071 1077.49 834.702 1058.86 827.096Z" fill="#E0AFA1"/>
<path d="M811.093 613.199C792.253 613.514 773.26 615.246 755.323 620.615C737.405 626 720.509 635.243 708.59 648.72C751.573 635.668 797.743 631.653 842.617 637.069C828.33 631.243 815.133 623.103 811.093 613.199Z" fill="#E0AFA1"/>
<path d="M1147.45 835.978C1137.68 834.796 1127.99 833.032 1118.48 830.686C1113.62 829.506 1108.81 828.182 1104.07 826.703C1098.5 824.956 1092.94 823.003 1087.11 822.31C1080.75 821.555 1074.22 822.357 1068.1 824.152C1066.55 824.609 1064.96 825.145 1063.34 825.018C1061.69 824.877 1060.21 824.027 1058.77 823.255C1046.56 816.767 1032.29 813.634 1018.21 814.359C1014.78 814.548 1011.25 814.941 1007.9 814.234C1004.55 813.541 1001.61 811.792 998.569 810.313C988.868 805.541 977.752 803.244 966.244 804.455C956.611 791.623 938.299 787.686 921.693 784.743C904.456 781.672 887.202 778.633 869.948 775.564C867.612 775.138 865.173 774.682 863.332 773.296C862.224 772.461 861.406 771.343 860.417 770.382C857.006 766.967 851.977 765.517 847.255 763.943C834.074 759.581 821.612 753.363 810.411 745.601C811.483 744.923 812.593 744.419 813.751 744.026C816.82 742.94 820.214 742.704 823.64 742.908C823.64 744.498 824.169 746.058 825.295 747.206C825.549 747.458 825.84 747.709 826.163 747.915C827.238 748.623 828.5 748.986 829.762 749.348C885.838 765.266 941.931 781.2 998.007 797.102C1025.63 804.959 1053.39 812.831 1082.03 816.17C1099.74 818.232 1118.26 818.705 1134.08 826.293C1134.71 826.592 1135.33 826.907 1135.92 827.238C1140.51 829.647 1144.38 832.575 1147.45 835.978Z" fill="#99685A"/>
<path d="M883.179 870.539C880.571 869.957 877.927 869.326 875.199 868.665C863.043 865.753 850.836 862.792 838.526 859.785C840.589 855.109 842.67 850.417 844.715 845.756C845.381 844.292 846.062 842.749 847.359 841.726C850.718 839.033 855.882 840.923 860.315 840.513C866.164 839.962 870.41 835.427 874.587 831.633C878.764 827.837 884.73 824.326 890.152 826.39C888.107 835.663 883.81 844.449 882.446 853.834C881.627 859.392 881.9 865.06 883.179 870.539Z" fill="#E1AFA1"/>
<path d="M1371.62 434.259C1358.1 433.645 1344.63 431.883 1331.47 428.984C1330.31 428.733 1329.08 428.434 1328.25 427.662C1327.5 426.986 1327.14 426.041 1326.8 425.127C1321.02 408.626 1321.41 390.346 1327.91 374.098C1328.26 373.216 1328.64 372.319 1329.08 371.452C1329.76 370.115 1330.6 368.823 1331.72 367.752C1335.54 364.115 1341.61 363.737 1347.09 363.705C1359.29 363.643 1371.52 364.226 1383.66 365.454C1387.9 369.405 1390.55 373.815 1392.1 378.427C1393.79 383.388 1394.2 388.584 1393.99 393.685C1393.6 403.525 1391.01 413.193 1388.41 422.734C1387.51 426.151 1386.42 429.804 1383.45 432.008C1380.25 434.402 1375.73 434.448 1371.62 434.259Z" fill="white"/>
<path d="M1436.63 625.04C1430.97 624.347 1425.31 623.654 1419.65 622.961C1409.64 621.749 1398.37 619.813 1392.92 611.988C1388.43 605.563 1389.42 597.234 1390.8 589.708C1391.81 584.229 1392.99 578.623 1396.04 573.837C1397.28 571.885 1398.82 570.106 1400.42 568.404C1401.36 567.445 1402.31 566.5 1403.27 565.571C1405.5 563.382 1407.79 561.114 1410.75 559.856C1413.43 558.721 1416.46 558.47 1419.41 558.328C1433.24 557.572 1455.42 554.596 1456.26 557.021C1457.81 561.556 1460.61 571.522 1461.17 577.537C1461.25 578.372 1461.3 579.158 1461.29 579.804C1461.17 584.008 1462.02 590.779 1461.15 594.92C1459.65 602.116 1459.29 607.217 1457.79 614.428C1457.18 617.371 1453.62 620.489 1451.36 622.631C1447.73 626.047 1441.76 625.67 1436.63 625.04Z" fill="#FFF1ED"/>
<path d="M1134.51 853.849C1121.02 851.315 1107.23 850.212 1093.47 850.574C1087.35 850.716 1080.91 851.078 1075.28 849.173C1076.1 847.52 1077.12 846.009 1078.55 844.717C1081.4 842.183 1085.36 841.018 1089.21 840.166C1103.94 836.844 1119.42 836.326 1134.37 838.593C1135.06 843.63 1135.41 848.78 1135.41 853.959C1135.12 853.959 1134.8 853.913 1134.51 853.849Z" fill="#E0AFA1"/>
<path d="M1282.3 783.64C1278.87 782.569 1275.41 781.293 1272.73 779.058C1265.96 773.453 1265.93 763.817 1266.66 755.441C1266.95 752.102 1267.28 748.702 1268.49 745.552C1270.39 740.593 1274.37 736.5 1279.19 733.65C1280.47 732.894 1281.8 732.216 1283.17 731.633C1289.71 728.864 1297.03 727.982 1304.22 727.933C1314.86 727.855 1325.5 729.461 1335.54 732.705C1337.59 737.318 1338.94 742.136 1339.69 747.016C1341.17 757.078 1340.03 767.549 1336.87 777.453C1335.56 781.529 1333.58 785.844 1329.49 787.782C1327.26 788.836 1324.66 788.993 1322.18 789.087C1308.64 789.529 1295.07 787.654 1282.3 783.64Z" fill="white"/>
<path d="M1329.08 371.435C1329.76 370.096 1330.6 368.806 1331.72 367.735C1335.54 364.099 1341.61 363.72 1347.08 363.689C1359.29 363.627 1371.52 364.209 1383.65 365.437C1387.9 369.389 1390.54 373.797 1392.09 378.41C1371.69 372.978 1350.31 370.617 1329.08 371.435Z" fill="#E6D7D3"/>
<path opacity="0.4392" d="M1461.16 577.537C1442.66 571.868 1423.19 568.846 1403.72 568.642C1402.63 568.625 1401.49 568.625 1400.43 568.404C1401.37 567.445 1402.32 566.5 1403.28 565.571C1405.51 563.382 1407.8 561.114 1410.76 559.856C1413.44 558.721 1416.48 558.47 1419.43 558.328C1433.25 557.572 1455.44 554.596 1456.27 557.021C1457.79 561.556 1460.58 571.522 1461.16 577.537Z" fill="#E0AFA1"/>
<path d="M1339.67 747.033C1339.62 747.033 1339.6 747.016 1339.55 746.986C1322.35 737.429 1300.4 737.161 1280.13 733.886C1279.81 733.839 1279.46 733.776 1279.18 733.65C1280.45 732.894 1281.78 732.216 1283.15 731.633C1289.7 728.864 1297.01 727.982 1304.2 727.933C1314.84 727.855 1325.48 729.461 1335.52 732.705C1337.59 737.333 1338.92 742.136 1339.67 747.033Z" fill="#FFD3C7"/>
<path d="M1091.32 369.044C1091.51 390.488 1091.95 434.323 1091.95 434.323C1087.19 412.893 1091.32 369.044 1091.32 369.044Z" fill="#E0AFA1"/>
<path d="M1105.93 368.395C1107.02 385.542 1106.66 420.874 1106.66 420.874C1102.76 403.759 1105.93 368.395 1105.93 368.395Z" fill="#E0AFA1"/>
<path d="M1245.71 413.788C1245.71 404.341 1253.26 385.842 1253.26 385.842C1252.46 400.879 1246 431.407 1246 431.407C1245.79 425.551 1245.71 419.677 1245.71 413.788Z" fill="#E0AFA1"/>
<path d="M1093.71 605.282C1095.12 586.545 1106.97 549.953 1106.97 549.953C1104.09 568.391 1093.71 605.282 1093.71 605.282Z" fill="#E0AFA1"/>
<path d="M1114.02 610.858C1122.05 586.389 1130.25 535.154 1130.25 535.154C1132.07 561.418 1114.02 610.858 1114.02 610.858Z" fill="#E0AFA1"/>
<path d="M1292.5 564.155C1292.5 564.155 1292.56 590.766 1291.27 603.424C1291.27 603.424 1288.52 576.752 1292.5 564.155Z" fill="#E0AFA1"/>
<path d="M1032.01 744.688C1034.4 735.114 1045.53 708.647 1045.53 708.647C1038.98 726.092 1029.5 768.163 1029.5 768.163C1027.86 760.794 1030.59 750.418 1032.01 744.688Z" fill="#E0AFA1"/>
<path d="M1055.23 709.482C1055.23 709.482 1052.64 746.593 1049.23 764.464C1049.24 764.464 1050.23 727.195 1055.23 709.482Z" fill="#E0AFA1"/>
<path d="M1193.06 761.062C1192.99 753.489 1196.91 737.492 1196.91 737.492L1194.66 773.155C1194.68 773.155 1193.09 764.29 1193.06 761.062Z" fill="#E0AFA1"/>
<path d="M1014.07 839.898C1014.07 839.898 1015.91 863.043 1014.29 873.969C1014.29 873.969 1011.39 850.825 1014.07 839.898Z" fill="#E0AFA1"/>
<path d="M917.946 867.782C919.241 851.376 932.982 820.5 932.982 820.5C928.789 836.119 917.946 867.782 917.946 867.782Z" fill="#E0AFA1"/>
<path opacity="0.3412" d="M1303.78 453.483C1241.94 451.026 1192.73 449.373 1149.74 448.618C1151.7 436.336 1161.26 424.245 1163.12 411.396C1166.6 387.575 1144.96 369.703 1123.85 351.927C1120.53 349.141 1117.22 346.337 1114.03 343.534C1108.7 338.827 1103.67 334.072 1099.44 329.161C1100.94 329.222 1102.44 329.301 1103.94 329.365C1182.44 330.041 1260.87 337.362 1337.91 351.266C1339.06 351.455 1340.18 351.659 1341.32 351.88C1348.64 353.219 1355.93 354.603 1363.21 356.052C1365.82 356.571 1368.35 357.185 1370.8 357.895C1382.26 361.217 1391.88 366.711 1398.54 375.654C1401.06 379.008 1403.18 382.882 1404.8 387.307C1407.66 395.179 1407.05 410.987 1400.66 421.584C1391.94 436.006 1374.59 444.382 1357.09 447.908C1339.65 451.451 1305.28 453.545 1303.78 453.483Z" fill="#AAAD66"/>
<path opacity="0.3412" d="M1218.4 798.755C1177.8 793.59 1137.19 788.441 1096.59 783.278C1062.61 778.979 1028.46 774.633 995.096 767.532C995.369 764.006 998.318 761.124 1000.94 758.463C1022.14 736.719 1027.49 703.371 1015.61 676.463C1014.36 673.644 1012.9 670.873 1011.26 668.212C1010.37 666.748 1009.42 665.315 1008.41 663.915C1005.07 659.269 1001 654.232 1000.41 648.942C1073.03 661.426 1143.27 687.106 1217.3 690.823C1236.13 697.074 1256.38 698.27 1276.21 700.663C1281.27 701.277 1286.39 701.985 1291.44 702.884C1306.17 705.513 1320.54 709.7 1332.65 717.683C1334.03 718.612 1335.39 719.572 1336.72 720.597C1350.77 731.633 1359.84 748.984 1355.48 765.392C1349.63 787.355 1323.27 799.07 1299.01 802.124C1272.26 805.541 1245.13 802.156 1218.4 798.755Z" fill="#AAAD66"/>
<path opacity="0.2314" d="M1174.71 730.739C1162.06 733.43 1148.54 732.58 1136.4 728.298C1123.78 723.858 1112.95 715.954 1100.76 710.585C1091.35 706.428 1079.37 704.067 1071.05 709.892C1061.87 716.332 1062.09 728.912 1063.2 739.509C1063.89 746.012 1064.57 752.514 1065.25 759.017C1065.39 760.292 1065.54 761.631 1066.24 762.732C1067.19 764.245 1069.02 765.095 1070.76 765.788C1087.79 772.526 1107.09 772.1 1124.94 776.667C1135.77 779.439 1146.05 784.051 1157.15 785.689C1160.57 786.193 1164.17 786.397 1167.46 785.39C1174.91 783.09 1178.61 775.454 1180.61 768.432C1183.51 758.182 1184.55 747.491 1183.71 736.926C1183.52 734.548 1183.17 732.03 1181.46 730.251C1179.75 728.472 1176.24 728.015 1174.71 730.739Z" fill="white"/>
</g>
<defs>
<clipPath id="clip0_101_1386">
<rect width="2000" height="1040" fill="white"/>
</clipPath>
</defs>
</svg>
