<?xml version="1.0" encoding="UTF-8"?> <!-- Generator: Adobe Illustrator 24.1.2, SVG Export Plug-In . SVG Version: 6.00 Build 0) --> <svg xmlns="http://www.w3.org/2000/svg" xmlns:xlink="http://www.w3.org/1999/xlink" id="Слой_1" x="0px" y="0px" viewBox="0 0 2905.9 1065.05" style="enable-background:new 0 0 2905.9 1065.05;" xml:space="preserve"> <style type="text/css"> .st0{fill:#274470;} .st1{fill:#008CCA;} .st2{fill:#22AAE2;} .st3{fill:#0072A4;} .st4{fill:#DC0C15;} </style> <g> <g> <path class="st0" d="M1645.35,805.3V617.69c0-18.5-0.33-34.11-1-46.82c-0.67-12.71-2.68-23.07-6.02-31.1s-8.53-13.88-15.55-17.56 c-7.02-3.68-16.89-5.52-29.6-5.52c-8.92,0-17.72,1.95-26.42,5.85c-8.7,3.9-18.17,9.42-28.43,16.55V805.3h-117.71V617.69 c0-18.28-0.39-33.83-1.17-46.65c-0.78-12.82-2.84-23.24-6.19-31.27c-3.34-8.03-8.53-13.88-15.55-17.56 c-7.02-3.68-16.78-5.52-29.26-5.52c-9.59,0-18.95,2.23-28.09,6.69c-9.14,4.46-18.06,9.7-26.75,15.72V805.3h-117.05V429.75h117.05 v41.47c19.17-16.27,37.23-28.98,54.17-38.12c16.94-9.14,36-13.71,57.19-13.71c22.96,0,43.14,5.47,60.53,16.39 c17.39,10.93,30.65,27.2,39.79,48.82c22.52-20.95,43.75-37.06,63.71-48.32c19.95-11.26,40.18-16.89,60.7-16.89 c17.39,0,32.99,2.79,46.82,8.36c13.82,5.58,25.53,13.94,35.11,25.08c10.48,12.04,18.34,26.37,23.58,42.97 c5.24,16.61,7.86,38.29,7.86,65.04V805.3H1645.35z"></path> <path class="st0" d="M2222.49,464.53c0,23.19-3.68,45.26-11.04,66.21c-7.36,20.96-17.95,38.46-31.77,52.5 c-8.48,8.69-17.78,16.72-27.92,24.08c-10.15,7.36-21.35,13.6-33.61,18.73c-12.26,5.13-25.58,9.14-39.96,12.04 c-14.38,2.9-30.49,4.35-48.32,4.35h-65.55V805.3h-125.07V307.35h193.29c28.76,0,53.56,2.62,74.41,7.86 c20.84,5.24,39.74,13.54,56.68,24.91c18.73,12.49,33.22,29.15,43.47,50C2217.36,410.97,2222.49,435.77,2222.49,464.53z M2094.07,467.54c0-14.05-3.34-26.14-10.03-36.28c-6.69-10.14-14.71-17.11-24.08-20.9c-11.82-5.13-23.13-8.08-33.94-8.86 c-10.82-0.78-25.47-1.17-43.98-1.17h-17.72v149.15h8.69c11.81,0,22.96-0.11,33.44-0.33c10.48-0.22,19.62-1,27.42-2.34 c6.69-1.11,13.76-3.29,21.24-6.52c7.47-3.23,13.21-6.86,17.22-10.87c8.47-8.25,14.21-16.83,17.22-25.75 C2092.57,494.74,2094.07,482.7,2094.07,467.54z"></path> <path class="st0" d="M2517.71,540.44h-9.7c-4.46-1.56-10.93-2.73-19.4-3.51c-8.48-0.78-17.84-1.17-28.09-1.17 c-12.26,0-25.14,1.79-38.63,5.35c-13.49,3.57-26.59,7.81-39.29,12.71V805.3h-117.05V429.75h117.05v53.84 c5.35-4.9,12.76-11.09,22.24-18.56c9.47-7.47,18.11-13.43,25.92-17.89c8.47-5.13,18.34-9.53,29.6-13.21 c11.26-3.68,21.9-5.52,31.94-5.52c3.79,0,8.03,0.12,12.71,0.33c4.68,0.22,8.91,0.56,12.71,1V540.44z"></path> <path class="st0" d="M2905.9,617.69c0,61.76-16.89,110.42-50.66,145.97c-33.78,35.56-81.54,53.34-143.3,53.34 c-61.31,0-108.97-17.78-142.96-53.34c-34-35.56-51-84.21-51-145.97c0-62.42,17-111.3,51-146.64c34-35.33,81.65-53,142.96-53 c61.53,0,109.24,17.78,143.13,53.34C2888.95,506.95,2905.9,555.71,2905.9,617.69z M2785.84,618.36c0-22.29-1.84-40.85-5.52-55.68 c-3.68-14.82-8.75-26.7-15.22-35.62c-6.91-9.36-14.71-15.88-23.41-19.56c-8.69-3.68-18.62-5.52-29.76-5.52 c-10.48,0-19.96,1.62-28.43,4.85c-8.47,3.23-16.28,9.42-23.41,18.56c-6.69,8.69-12.04,20.62-16.05,35.78 c-4.01,15.16-6.02,34.23-6.02,57.18c0,22.96,1.89,41.53,5.69,55.68c3.79,14.16,8.69,25.47,14.71,33.94 c6.24,8.69,14.05,15.05,23.41,19.06c9.36,4.01,19.73,6.02,31.1,6.02c9.36,0,18.89-2.01,28.59-6.02 c9.7-4.01,17.44-10.03,23.24-18.06c6.91-9.58,12.15-21.12,15.72-34.61C2784.06,660.89,2785.84,642.22,2785.84,618.36z"></path> </g> <g> <path class="st0" d="M1096.18,1037.5h-23.01v-47.15l-15.25,31.3h-9.9l-15.25-31.3v47.15h-22.34v-75.11h25.48l17.39,34.78 l17.39-34.78h25.48V1037.5z"></path> <path class="st0" d="M1149.13,1039.5c-14.18,0-25.05-3.39-32.61-10.17c-7.56-6.78-11.34-16.43-11.34-28.96 c0-12.26,3.52-22.05,10.57-29.36c7.04-7.31,16.9-10.97,29.56-10.97c11.5,0,20.15,3.1,25.95,9.3c5.8,6.2,8.69,15.07,8.69,26.62 v8.43h-51.3c0.22,3.48,0.96,6.39,2.21,8.73c1.25,2.34,2.9,4.2,4.95,5.58c2.01,1.38,4.35,2.37,7.02,2.98c2.68,0.6,5.6,0.9,8.76,0.9 c2.72,0,5.39-0.3,8.03-0.9c2.63-0.6,5.04-1.39,7.22-2.38c1.92-0.85,3.69-1.76,5.32-2.74c1.63-0.98,2.95-1.85,3.98-2.61h2.47v19.33 c-1.92,0.76-3.67,1.46-5.25,2.11c-1.58,0.65-3.76,1.3-6.52,1.97c-2.54,0.67-5.16,1.19-7.86,1.57 C1156.3,1039.31,1153.01,1039.5,1149.13,1039.5z M1156.89,990.28c-0.13-4.95-1.28-8.72-3.44-11.3c-2.16-2.59-5.47-3.88-9.93-3.88 c-4.55,0-8.1,1.36-10.67,4.08c-2.56,2.72-3.98,6.42-4.25,11.1H1156.89z"></path> <path class="st0" d="M1265.3,1056.09h-20.8v-18.86h-43.47v18.86h-20.8v-35.45h5.42c3.39-7.04,6.1-15.65,8.13-25.82 c2.03-10.17,3.04-20.98,3.04-32.44h61.06v58.25h7.42V1056.09z M1234.6,1020.64v-41.74h-16.52c-0.76,8.34-2.04,16.06-3.85,23.17 c-1.81,7.11-3.98,13.3-6.52,18.56H1234.6z"></path> <path class="st0" d="M1345.14,1037.5h-23.01v-45.61l-28.76,45.61h-19.6v-75.11h23.01v40.8l26.35-40.8h22V1037.5z"></path> <path class="st0" d="M1437.56,1056.09h-20.8v-18.59h-57.12v-75.11h23.41v58.59h23.68v-58.59h23.41v58.59h7.42V1056.09z"></path> <path class="st0" d="M1517.41,1037.5h-23.01v-45.61l-28.76,45.61h-19.6v-75.11h23.01v40.8l26.35-40.8h22V1037.5z"></path> <path class="st0" d="M1602.94,1037.5h-23.41v-32.17h-24.21v32.17h-23.41v-75.11h23.41v26.02h24.21v-26.02h23.41V1037.5z"></path> <path class="st0" d="M1658.84,1029.54c-1.61,1.34-3.04,2.54-4.31,3.61s-2.98,2.14-5.12,3.21c-2.1,1.03-4.14,1.81-6.12,2.34 c-1.98,0.54-4.76,0.8-8.33,0.8c-6.64,0-12.16-2.23-16.55-6.69c-4.39-4.46-6.59-10.08-6.59-16.85c0-5.57,1.11-10.08,3.34-13.51 c2.23-3.43,5.44-6.15,9.63-8.16c4.24-2.05,9.3-3.48,15.18-4.28s12.22-1.43,19-1.87v-0.4c0-4.15-1.53-7.01-4.58-8.59 c-3.05-1.58-7.64-2.37-13.74-2.37c-2.77,0-6,0.5-9.7,1.5c-3.7,1-7.31,2.29-10.83,3.85h-2.01v-18.13 c2.32-0.67,6.06-1.46,11.24-2.37c5.17-0.91,10.39-1.37,15.65-1.37c12.93,0,22.35,2.15,28.26,6.45c5.91,4.3,8.86,10.87,8.86,19.7 v51.1h-23.28V1029.54z M1658.84,1017.9v-15.65c-3.97,0.4-7.18,0.75-9.63,1.04c-2.45,0.29-4.86,0.86-7.22,1.71 c-2.05,0.71-3.65,1.79-4.78,3.24c-1.14,1.45-1.71,3.38-1.71,5.79c0,3.52,0.95,5.94,2.84,7.26c1.89,1.32,4.69,1.97,8.39,1.97 c2.05,0,4.15-0.47,6.29-1.4C1655.16,1020.91,1657.1,1019.6,1658.84,1017.9z"></path> <path class="st0" d="M1803.34,1037.5h-23.41v-58.52h-23.81v58.52h-23.41v-75.11h70.63V1037.5z"></path> <path class="st0" d="M1891.48,998.91c0,12-3.04,21.67-9.13,29.03c-6.09,7.36-13.59,11.04-22.51,11.04c-3.75,0-7-0.42-9.76-1.27 c-2.77-0.85-5.71-2.16-8.83-3.95v31.3h-23.41V962.39h23.41v7.83c3.43-2.94,6.93-5.33,10.5-7.16c3.57-1.83,7.69-2.74,12.37-2.74 c8.7,0,15.43,3.46,20.2,10.37C1889.1,977.59,1891.48,987,1891.48,998.91z M1867.54,999.37c0-7.31-1.13-12.62-3.38-15.92 c-2.25-3.3-5.76-4.95-10.53-4.95c-2.1,0-4.18,0.33-6.25,1s-4.11,1.67-6.12,3.01v37.79c1.25,0.53,2.62,0.91,4.11,1.14 c1.49,0.22,3.27,0.33,5.32,0.33c5.71,0,9.94-1.86,12.71-5.58C1866.16,1012.47,1867.54,1006.86,1867.54,999.37z"></path> <path class="st0" d="M1972.73,999.98c0,12.35-3.38,22.08-10.13,29.19c-6.76,7.11-16.31,10.67-28.66,10.67 c-12.26,0-21.79-3.55-28.59-10.67c-6.8-7.11-10.2-16.84-10.2-29.19c0-12.48,3.4-22.26,10.2-29.33c6.8-7.07,16.33-10.6,28.59-10.6 c12.31,0,21.85,3.56,28.63,10.67C1969.34,977.83,1972.73,987.58,1972.73,999.98z M1948.72,1000.11c0-4.46-0.37-8.17-1.1-11.14 c-0.74-2.96-1.75-5.34-3.04-7.12c-1.38-1.87-2.94-3.18-4.68-3.91c-1.74-0.74-3.72-1.1-5.95-1.1c-2.1,0-3.99,0.32-5.69,0.97 c-1.7,0.65-3.25,1.88-4.68,3.71c-1.34,1.74-2.41,4.13-3.21,7.16c-0.8,3.03-1.2,6.84-1.2,11.44c0,4.59,0.38,8.3,1.14,11.14 c0.76,2.83,1.74,5.09,2.94,6.79c1.25,1.74,2.81,3.01,4.68,3.81c1.87,0.8,3.95,1.2,6.22,1.2c1.87,0,3.78-0.4,5.72-1.2 s3.49-2.01,4.65-3.61c1.38-1.92,2.43-4.22,3.14-6.92C1948.36,1008.62,1948.72,1004.88,1948.72,1000.11z"></path> <path class="st0" d="M2090.77,998.24c0,12.57-2.87,22.43-8.59,29.56c-5.73,7.13-13.37,10.7-22.91,10.7 c-3.39,0-6.21-0.42-8.46-1.27c-2.25-0.85-4.14-1.67-5.65-2.47v30.3h-23.14v-30.37c-2.01,1.2-4.17,2.14-6.49,2.81 c-2.32,0.67-5.26,1-8.83,1c-9.5,0-16.92-3.35-22.27-10.07c-5.35-6.71-8.03-16.04-8.03-27.99c0-11.9,2.91-21.45,8.73-28.63 c5.82-7.18,13.3-10.77,22.44-10.77c3.43,0,6.3,0.41,8.59,1.24c2.3,0.83,4.25,1.73,5.85,2.71v-31.57h23.14v31.5 c1.78-0.94,4.08-1.82,6.89-2.64c2.81-0.82,5.86-1.24,9.16-1.24c9.54,0,16.85,3.23,21.94,9.7 C2088.23,977.21,2090.77,986.38,2090.77,998.24z M2022.01,1021.04v-42.47c-0.8-0.18-1.74-0.31-2.81-0.4 c-1.07-0.09-2.01-0.13-2.81-0.13c-5.62,0-9.76,1.83-12.44,5.48c-2.68,3.66-4.01,9.19-4.01,16.59c0,7.4,1.35,12.83,4.05,16.29 c2.7,3.46,6.88,5.18,12.54,5.18c0.8,0,1.75-0.06,2.84-0.17C2020.46,1021.3,2021.34,1021.18,2022.01,1021.04z M2067.22,999.51 c0-7.4-1.33-12.83-3.98-16.29c-2.65-3.46-6.81-5.18-12.47-5.18c-1.07,0-2.04,0.04-2.91,0.13c-0.87,0.09-1.77,0.25-2.71,0.47v42.4 c0.94,0.18,1.84,0.31,2.71,0.4c0.87,0.09,1.79,0.13,2.78,0.13c5.62,0,9.79-1.83,12.51-5.48 C2065.86,1012.44,2067.22,1006.91,2067.22,999.51z"></path> <path class="st0" d="M2138.37,1039.5c-14.18,0-25.05-3.39-32.61-10.17c-7.56-6.78-11.34-16.43-11.34-28.96 c0-12.26,3.52-22.05,10.57-29.36c7.04-7.31,16.9-10.97,29.56-10.97c11.5,0,20.15,3.1,25.95,9.3c5.8,6.2,8.69,15.07,8.69,26.62 v8.43h-51.3c0.22,3.48,0.96,6.39,2.21,8.73c1.25,2.34,2.9,4.2,4.95,5.58c2.01,1.38,4.35,2.37,7.02,2.98c2.68,0.6,5.6,0.9,8.76,0.9 c2.72,0,5.39-0.3,8.03-0.9c2.63-0.6,5.04-1.39,7.22-2.38c1.92-0.85,3.69-1.76,5.32-2.74c1.63-0.98,2.95-1.85,3.98-2.61h2.48v19.33 c-1.92,0.76-3.67,1.46-5.25,2.11c-1.58,0.65-3.76,1.3-6.52,1.97c-2.54,0.67-5.16,1.19-7.86,1.57 C2145.54,1039.31,2142.25,1039.5,2138.37,1039.5z M2146.13,990.28c-0.13-4.95-1.28-8.72-3.44-11.3c-2.16-2.59-5.47-3.88-9.93-3.88 c-4.55,0-8.1,1.36-10.67,4.08c-2.56,2.72-3.98,6.42-4.25,11.1H2146.13z"></path> <path class="st0" d="M2214.67,1039.5c-6.2,0-11.87-0.78-17.02-2.34c-5.15-1.56-9.62-3.97-13.41-7.22 c-3.75-3.25-6.67-7.35-8.76-12.27c-2.1-4.93-3.14-10.73-3.14-17.42c0-7.18,1.14-13.29,3.41-18.33c2.27-5.04,5.35-9.18,9.23-12.44 c3.75-3.12,8.15-5.43,13.21-6.92c5.06-1.49,10.33-2.24,15.82-2.24c4.15,0,8.29,0.48,12.44,1.44c4.15,0.96,8.32,2.49,12.51,4.58 v20.07h-3.01c-0.94-0.89-2.08-1.87-3.44-2.94c-1.36-1.07-2.84-2.05-4.45-2.94c-1.7-0.94-3.61-1.73-5.75-2.37 c-2.14-0.65-4.53-0.97-7.16-0.97c-5.98,0-10.6,2.08-13.88,6.25c-3.28,4.17-4.92,9.78-4.92,16.82c0,7.54,1.75,13.15,5.25,16.85 c3.5,3.7,8.15,5.55,13.95,5.55c2.94,0,5.53-0.33,7.76-1s4.15-1.47,5.75-2.41c1.56-0.94,2.9-1.91,4.01-2.91 c1.11-1,2.07-1.91,2.88-2.71h3.01v20.06c-1.34,0.58-2.89,1.25-4.65,2.01c-1.76,0.76-3.56,1.38-5.38,1.87 c-2.27,0.62-4.4,1.1-6.39,1.44C2220.55,1039.34,2217.93,1039.5,2214.67,1039.5z"></path> <path class="st0" d="M2283.48,1039.5c-6.2,0-11.87-0.78-17.02-2.34c-5.15-1.56-9.62-3.97-13.41-7.22 c-3.75-3.25-6.67-7.35-8.76-12.27c-2.1-4.93-3.14-10.73-3.14-17.42c0-7.18,1.14-13.29,3.41-18.33c2.27-5.04,5.35-9.18,9.23-12.44 c3.75-3.12,8.15-5.43,13.21-6.92c5.06-1.49,10.33-2.24,15.82-2.24c4.15,0,8.29,0.48,12.44,1.44c4.15,0.96,8.32,2.49,12.51,4.58 v20.07h-3.01c-0.94-0.89-2.08-1.87-3.44-2.94c-1.36-1.07-2.84-2.05-4.45-2.94c-1.7-0.94-3.61-1.73-5.75-2.37 c-2.14-0.65-4.53-0.97-7.16-0.97c-5.98,0-10.6,2.08-13.88,6.25c-3.28,4.17-4.92,9.78-4.92,16.82c0,7.54,1.75,13.15,5.25,16.85 c3.5,3.7,8.15,5.55,13.95,5.55c2.94,0,5.53-0.33,7.76-1s4.15-1.47,5.75-2.41c1.56-0.94,2.9-1.91,4.01-2.91 c1.11-1,2.07-1.91,2.88-2.71h3.01v20.06c-1.34,0.58-2.89,1.25-4.65,2.01c-1.76,0.76-3.56,1.38-5.38,1.87 c-2.27,0.62-4.4,1.1-6.39,1.44C2289.36,1039.34,2286.74,1039.5,2283.48,1039.5z"></path> <path class="st0" d="M2386.8,1037.5h-23.01v-45.61l-28.76,45.61h-19.6v-75.11h23.01v40.8l26.35-40.8h22V1037.5z"></path> <path class="st0" d="M2473.41,999.98c0,12.35-3.38,22.08-10.13,29.19c-6.76,7.11-16.31,10.67-28.66,10.67 c-12.26,0-21.79-3.55-28.59-10.67c-6.8-7.11-10.2-16.84-10.2-29.19c0-12.48,3.4-22.26,10.2-29.33c6.8-7.07,16.33-10.6,28.59-10.6 c12.31,0,21.85,3.56,28.63,10.67C2470.02,977.83,2473.41,987.58,2473.41,999.98z M2449.39,1000.11c0-4.46-0.37-8.17-1.1-11.14 c-0.74-2.96-1.75-5.34-3.04-7.12c-1.38-1.87-2.94-3.18-4.68-3.91c-1.74-0.74-3.72-1.1-5.95-1.1c-2.1,0-3.99,0.32-5.69,0.97 c-1.7,0.65-3.25,1.88-4.68,3.71c-1.34,1.74-2.41,4.13-3.21,7.16c-0.8,3.03-1.2,6.84-1.2,11.44c0,4.59,0.38,8.3,1.14,11.14 c0.76,2.83,1.74,5.09,2.94,6.79c1.25,1.74,2.81,3.01,4.68,3.81c1.87,0.8,3.95,1.2,6.22,1.2c1.87,0,3.78-0.4,5.72-1.2 s3.49-2.01,4.65-3.61c1.38-1.92,2.43-4.22,3.14-6.92C2449.04,1008.62,2449.39,1004.88,2449.39,1000.11z"></path> <path class="st0" d="M2553.45,1037.5h-23.41v-32.17h-24.21v32.17h-23.41v-75.11h23.41v26.02h24.21v-26.02h23.41V1037.5z"></path> <path class="st0" d="M2609.35,1029.54c-1.61,1.34-3.04,2.54-4.31,3.61s-2.98,2.14-5.12,3.21c-2.1,1.03-4.14,1.81-6.12,2.34 c-1.98,0.54-4.76,0.8-8.33,0.8c-6.64,0-12.16-2.23-16.55-6.69c-4.39-4.46-6.59-10.08-6.59-16.85c0-5.57,1.11-10.08,3.34-13.51 c2.23-3.43,5.44-6.15,9.63-8.16c4.24-2.05,9.3-3.48,15.18-4.28s12.22-1.43,19-1.87v-0.4c0-4.15-1.53-7.01-4.58-8.59 c-3.05-1.58-7.64-2.37-13.74-2.37c-2.77,0-6,0.5-9.7,1.5c-3.7,1-7.31,2.29-10.83,3.85h-2.01v-18.13 c2.32-0.67,6.06-1.46,11.24-2.37c5.17-0.91,10.39-1.37,15.65-1.37c12.93,0,22.35,2.15,28.26,6.45c5.91,4.3,8.86,10.87,8.86,19.7 v51.1h-23.28V1029.54z M2609.35,1017.9v-15.65c-3.97,0.4-7.18,0.75-9.63,1.04c-2.45,0.29-4.86,0.86-7.22,1.71 c-2.05,0.71-3.65,1.79-4.78,3.24c-1.14,1.45-1.71,3.38-1.71,5.79c0,3.52,0.95,5.94,2.84,7.26c1.89,1.32,4.69,1.97,8.39,1.97 c2.05,0,4.15-0.47,6.29-1.4C2605.67,1020.91,2607.61,1019.6,2609.35,1017.9z"></path> <path class="st0" d="M2718.16,1037.5h-23.41v-58.59h-18.39c-0.13,3.21-0.23,5.8-0.3,7.76c-0.07,1.96-0.15,4.17-0.23,6.62 c-0.31,7.18-0.91,13.03-1.81,17.56c-0.89,4.53-2.03,8.24-3.41,11.14c-1.34,2.9-2.71,5.16-4.11,6.79c-1.4,1.63-2.93,3.16-4.58,4.58 c-1.56,1.34-3.77,2.44-6.62,3.31s-5.46,1.3-7.83,1.3c-2.01,0-4-0.08-5.99-0.23c-1.99-0.16-3.18-0.23-3.58-0.23v-19h0.67 c0.18,0,0.48,0.02,0.9,0.07c0.42,0.04,0.84,0.07,1.24,0.07c1.07,0,2.18-0.12,3.34-0.37s2.12-0.75,2.88-1.5 c3.08-3.12,5.05-7.29,5.92-12.51c0.87-5.22,1.46-11.06,1.77-17.52c0.18-3.52,0.36-7.46,0.53-11.8c0.18-4.35,0.31-8.53,0.4-12.54 h62.6V1037.5z"></path> <path class="st0" d="M2804.76,999.98c0,12.35-3.38,22.08-10.13,29.19c-6.76,7.11-16.31,10.67-28.66,10.67 c-12.26,0-21.79-3.55-28.59-10.67c-6.8-7.11-10.2-16.84-10.2-29.19c0-12.48,3.4-22.26,10.2-29.33c6.8-7.07,16.33-10.6,28.59-10.6 c12.31,0,21.85,3.56,28.63,10.67C2801.37,977.83,2804.76,987.58,2804.76,999.98z M2780.75,1000.11c0-4.46-0.37-8.17-1.1-11.14 c-0.74-2.96-1.75-5.34-3.04-7.12c-1.38-1.87-2.94-3.18-4.68-3.91c-1.74-0.74-3.72-1.1-5.95-1.1c-2.1,0-3.99,0.32-5.69,0.97 c-1.7,0.65-3.25,1.88-4.68,3.71c-1.34,1.74-2.41,4.13-3.21,7.16c-0.8,3.03-1.2,6.84-1.2,11.44c0,4.59,0.38,8.3,1.14,11.14 c0.76,2.83,1.74,5.09,2.94,6.79c1.25,1.74,2.81,3.01,4.68,3.81c1.87,0.8,3.95,1.2,6.22,1.2c1.87,0,3.78-0.4,5.72-1.2 s3.49-2.01,4.65-3.61c1.38-1.92,2.43-4.22,3.14-6.92C2780.39,1008.62,2780.75,1004.88,2780.75,1000.11z"></path> <path class="st0" d="M2884.4,1014.82c0,3.61-0.71,6.82-2.14,9.63c-1.43,2.81-3.34,5.15-5.75,7.02c-3.03,2.36-6.23,3.96-9.6,4.78 c-3.37,0.83-7.37,1.24-12,1.24h-41.13v-75.11h39.19c5.48,0,9.52,0.18,12.11,0.54c2.58,0.36,5.13,1.23,7.63,2.61 c2.63,1.43,4.59,3.32,5.89,5.68c1.29,2.36,1.94,5.17,1.94,8.43c0,3.75-1,7-3.01,9.76c-2.01,2.76-4.53,4.88-7.56,6.35v0.74 c4.15,1.03,7.59,3.09,10.33,6.19C2883.03,1005.78,2884.4,1009.83,2884.4,1014.82z M2857.18,985.06c0-2.9-0.84-4.9-2.51-6.02 c-1.67-1.11-4.34-1.67-7.99-1.67h-9.7v14.98h10.1c3.25,0,5.75-0.65,7.49-1.94C2856.31,989.12,2857.18,987.34,2857.18,985.06z M2860.52,1014.09c0-3.25-0.92-5.54-2.74-6.86c-1.83-1.31-4.55-1.97-8.16-1.97h-12.64v17.19h13.04c3.3,0,5.87-0.75,7.72-2.24 C2859.6,1018.72,2860.52,1016.68,2860.52,1014.09z"></path> </g> <g> <path class="st0" d="M990.4,294.92L759.43,428.27c13.05,31.4,20.26,65.83,20.26,101.95c0,36.12-7.21,70.55-20.26,101.95 c-8.92,21.46-20.57,41.5-34.52,59.68c-14.22,18.54-30.84,35.16-49.38,49.38c-18.18,13.95-38.22,25.6-59.68,34.52 c-21.24,8.83-43.88,14.99-67.48,18.04c-11.28,1.47-22.79,2.22-34.47,2.22s-23.19-0.75-34.47-2.22 c-23.6-3.05-46.24-9.21-67.48-18.04c-21.46-8.92-41.5-20.57-59.68-34.52c-18.54-14.22-35.16-30.84-49.38-49.38L71.92,825.19 c38.86,58.12,88.89,108.15,147.01,147.01c19.06,12.75,38.98,24.29,59.67,34.52c61.2,30.29,129.08,49.12,200.83,53.72 c11.39,0.73,22.89,1.1,34.47,1.1c11.58,0,23.08-0.37,34.47-1.1c71.75-4.6,139.63-23.43,200.83-53.72 c20.69-10.23,40.61-21.77,59.67-34.52c58.12-38.86,108.15-88.89,147.01-147.01c12.75-19.06,24.29-38.98,34.52-59.67 c35.1-70.92,54.82-150.81,54.82-235.3S1025.5,365.84,990.4,294.92z"></path> <path class="st0" d="M548.37,0v266.65c23.6,3.05,46.24,9.21,67.48,18.04L749.2,53.72C688,23.43,620.12,4.6,548.37,0z"></path> <path class="st1" d="M218.93,88.24c-58.12,38.86-108.15,88.89-147.01,147.01l230.97,133.34c14.22-18.54,30.84-35.16,49.38-49.38 L218.93,88.24z"></path> <path class="st2" d="M0,394.79l256.83,67.69c3.08-11.74,6.94-23.16,11.54-34.21L37.4,294.92C21.74,326.55,9.15,359.97,0,394.79z"></path> <path class="st3" d="M278.6,53.72l133.35,230.97c21.24-8.83,43.88-14.99,67.48-18.04V0C407.68,4.6,339.8,23.43,278.6,53.72z"></path> <path class="st0" d="M808.87,88.24L675.53,319.21c18.54,14.22,35.16,30.84,49.38,49.38l230.97-133.34 C917.02,177.13,866.99,127.1,808.87,88.24z"></path> <circle class="st4" cx="513.9" cy="530.77" r="205.46"></circle> </g> </g> </svg> 