<svg width="620" height="1074" viewBox="0 0 620 1074" fill="none" xmlns="http://www.w3.org/2000/svg">
<path d="M398.9 313.01C399.17 312.98 399.42 312.95 399.69 312.91C418.25 310.52 433.78 303.46 443.56 297.94C443.78 297.81 443.99 297.69 444.2 297.57C444.64 297.47 445.09 297.43 445.53 297.46C446.98 297.57 448.34 298.36 449.1 299.71C450.33 301.86 449.58 304.61 447.43 305.83L445.86 306.73C436.33 312.04 421.2 318.86 403.15 321.3C402.53 321.37 401.95 321.45 401.35 321.52C398.89 321.8 396.67 320.03 396.39 317.56C396.17 315.61 397.23 313.82 398.9 313.02V313.01Z" fill="#9FA7C4"/>
<path d="M394.84 305.02C395.1 305.03 395.38 305.02 395.65 304.99H395.76C396.29 304.91 396.82 304.85 397.32 304.77C415.6 302.23 430.8 295.26 440.34 289.84L440.58 289.7C441.03 289.44 441.47 289.2 441.89 288.94C441.99 288.88 442.08 288.82 442.17 288.75C442.47 288.71 442.78 288.7 443.07 288.72C444.49 288.82 445.83 289.59 446.61 290.9C447.87 293.03 447.18 295.79 445.05 297.06C444.77 297.23 444.49 297.38 444.2 297.56C444 297.68 443.78 297.8 443.56 297.93C433.78 303.45 418.26 310.52 399.69 312.9C399.42 312.94 399.17 312.97 398.9 313C398.59 313.04 398.29 313.07 397.97 313.11C395.51 313.4 393.28 311.64 393 309.17C392.81 307.49 393.56 305.92 394.84 305.01V305.02Z" fill="#9FA7C4"/>
<path d="M394.54 296.09L394.66 296.07C395.13 296.01 395.61 295.95 396.08 295.88C412.97 293.54 427.06 287.06 435.91 282.04L436.16 281.9C436.52 281.7 436.88 281.49 437.22 281.29C438.05 280.78 438.98 280.58 439.88 280.64C441.27 280.74 442.6 281.48 443.38 282.77C444.62 284.78 444.07 287.39 442.18 288.74C442.09 288.81 442 288.87 441.9 288.93C441.48 289.19 441.05 289.44 440.59 289.69L440.35 289.83C430.81 295.25 415.61 302.23 397.33 304.76C396.83 304.83 396.3 304.9 395.77 304.97H395.66C395.39 305.01 395.11 305.02 394.85 305C392.73 304.88 390.92 303.27 390.65 301.08C390.35 298.62 392.09 296.38 394.54 296.07V296.09Z" fill="#9FA7C4"/>
<path d="M447.81 305.58C447.69 305.67 447.56 305.76 447.43 305.83L446.03 306.63C438.73 294.64 424.86 289.02 423.1 288.34C428.09 286.25 432.41 284.04 435.91 282.05L436.16 281.91C436.52 281.71 436.88 281.5 437.21 281.3C437.6 281.06 438.01 280.89 438.42 280.79C438.9 280.66 439.39 280.62 439.88 280.65C441.27 280.75 442.6 281.5 443.38 282.79C444.61 284.8 444.07 287.41 442.17 288.76C442.47 288.72 442.78 288.71 443.08 288.73C444.5 288.83 445.83 289.6 446.61 290.91C447.85 292.99 447.21 295.68 445.19 296.97C445.25 297.13 445.31 297.29 445.36 297.45C445.42 297.45 445.47 297.45 445.53 297.46C446.98 297.56 448.34 298.36 449.11 299.71C450.25 301.73 449.67 304.27 447.81 305.58V305.58Z" fill="#848BA3"/>
<path d="M408.57 320.42C406.8 320.76 405 321.05 403.16 321.3C402.59 321.36 402.04 321.44 401.49 321.49C401.49 321.31 401.5 321.13 401.51 320.95C401.51 320.95 401.48 321.14 401.43 321.5C401.41 321.5 401.38 321.5 401.36 321.5C398.9 321.78 396.67 320.01 396.39 317.54C396.17 315.6 397.24 313.81 398.9 313C398.59 313.04 398.29 313.08 397.98 313.11C395.52 313.4 393.29 311.64 393 309.17C392.81 307.49 393.57 305.92 394.85 305.02C392.72 304.89 390.92 303.28 390.65 301.1C390.34 298.64 392.09 296.39 394.54 296.09L394.66 296.07C395.13 296.01 395.61 295.95 396.08 295.89C398.79 295.51 401.43 295.03 403.99 294.46C403.93 295.8 403.79 297.15 403.59 298.48C402.81 303.66 405.07 311.73 408.57 320.41V320.42Z" fill="#848BA3"/>
<path d="M400.84 322.04C399.72 322.04 398.64 321.66 397.74 320.95C396.7 320.12 396.04 318.93 395.89 317.61C395.65 315.51 396.77 313.48 398.68 312.56L398.84 312.51C399.1 312.48 399.35 312.45 399.62 312.41C418.12 310.03 433.59 302.99 443.31 297.49L444.08 297.07C444.57 296.96 445.07 296.92 445.56 296.95C447.22 297.07 448.71 298.01 449.53 299.45C450.89 301.84 450.06 304.9 447.67 306.26L446.1 307.16C436.54 312.48 421.35 319.34 403.21 321.79L402.53 321.87C402.15 321.92 401.78 321.96 401.4 322.01C401.21 322.03 401.02 322.04 400.83 322.04H400.84ZM399.05 313.5C397.57 314.25 396.7 315.85 396.89 317.5C397.01 318.56 397.53 319.51 398.37 320.18C399.2 320.84 400.24 321.14 401.3 321.02C401.68 320.98 402.05 320.93 402.42 320.89L403.09 320.81C421.06 318.39 436.13 311.58 445.61 306.3L447.17 305.41C449.08 304.32 449.75 301.88 448.66 299.97C448 298.82 446.81 298.07 445.48 297.97C445.11 297.94 444.73 297.97 444.37 298.05L443.8 298.38C434 303.92 418.4 311.02 399.75 313.42C399.52 313.45 399.28 313.48 399.04 313.51L399.05 313.5Z" fill="#676D80"/>
<path d="M397.44 313.65C396.32 313.65 395.25 313.28 394.36 312.57C393.32 311.74 392.66 310.56 392.5 309.23C392.29 307.42 393.08 305.65 394.55 304.61L394.69 304.51H394.86C395.1 304.53 395.35 304.52 395.59 304.49L396.26 304.41C396.59 304.37 396.92 304.32 397.24 304.28C415.47 301.75 430.6 294.8 440.09 289.41L440.33 289.27C440.78 289.02 441.21 288.77 441.62 288.52C441.7 288.47 441.78 288.42 441.85 288.36L441.96 288.28L442.1 288.26C442.44 288.22 442.78 288.21 443.1 288.23C444.73 288.35 446.2 289.25 447.03 290.65C448.43 293.02 447.65 296.09 445.29 297.49C445.13 297.58 444.97 297.68 444.81 297.77L443.8 298.36C434 303.9 418.4 311 399.75 313.4C399.49 313.44 399.23 313.47 398.96 313.5L398.03 313.61C397.83 313.63 397.64 313.64 397.44 313.64V313.65ZM395 305.52C393.91 306.36 393.34 307.73 393.5 309.12C393.62 310.18 394.15 311.13 394.98 311.79C395.81 312.45 396.85 312.75 397.91 312.62L398.83 312.51C399.09 312.48 399.34 312.45 399.61 312.41C418.11 310.03 433.58 302.99 443.3 297.49L444.31 296.9C444.47 296.81 444.62 296.72 444.78 296.63C446.67 295.5 447.29 293.05 446.17 291.16C445.5 290.04 444.33 289.32 443.03 289.22C442.81 289.2 442.59 289.21 442.35 289.23C442.28 289.28 442.22 289.32 442.15 289.37C441.72 289.63 441.28 289.88 440.83 290.14L440.59 290.28C431.03 295.71 415.77 302.72 397.39 305.27C397.07 305.32 396.74 305.36 396.39 305.4L395.68 305.49C395.45 305.51 395.23 305.53 394.99 305.52H395Z" fill="#676D80"/>
<path d="M395.09 305.53C395 305.53 394.91 305.53 394.83 305.53C392.42 305.39 390.45 303.56 390.15 301.17C389.81 298.44 391.75 295.94 394.47 295.6L394.77 295.56C395.18 295.51 395.6 295.46 396 295.4C412.81 293.07 426.84 286.62 435.66 281.62L435.91 281.48C436.27 281.28 436.62 281.08 436.96 280.87C437.85 280.33 438.87 280.07 439.92 280.15C441.53 280.27 442.98 281.15 443.81 282.52C445.17 284.73 444.58 287.65 442.47 289.16C442.38 289.23 442.28 289.3 442.17 289.37C441.74 289.63 441.3 289.88 440.85 290.14L440.61 290.28C431.05 295.71 415.79 302.72 397.41 305.27C397.09 305.32 396.76 305.36 396.41 305.4L395.7 305.49C395.5 305.51 395.3 305.52 395.09 305.52V305.53ZM439.54 281.14C438.81 281.14 438.1 281.34 437.47 281.72C437.12 281.93 436.76 282.14 436.4 282.34L436.16 282.48C427.27 287.53 413.11 294.03 396.15 296.38C395.74 296.44 395.32 296.49 394.9 296.55L394.61 296.59C392.43 296.86 390.88 298.86 391.15 301.04C391.39 302.95 392.96 304.41 394.88 304.52C395.11 304.52 395.36 304.52 395.61 304.5L396.28 304.42C396.61 304.38 396.94 304.33 397.26 304.29C415.49 301.76 430.62 294.81 440.11 289.42L440.35 289.28C440.8 289.03 441.23 288.78 441.64 288.53C441.72 288.48 441.8 288.43 441.87 288.37C443.57 287.16 444.04 284.83 442.95 283.06C442.28 281.95 441.14 281.26 439.84 281.16C439.74 281.16 439.64 281.15 439.54 281.15V281.14Z" fill="#676D80"/>
</svg>
