<svg width="620" height="1074" viewBox="0 0 620 1074" fill="none" xmlns="http://www.w3.org/2000/svg">
<path d="M337.08 831.49L402.6 832.031C403.58 824.831 404.25 817.81 404.25 811.97C404.25 808.55 404.03 804.75 403.67 800.76L338.83 800.23C338.4 802.53 338.08 805.171 337.8 808.401C337.3 814.151 336.99 823.12 337.09 831.5L337.08 831.49Z" fill="#F3EFF5"/>
<path d="M337.08 831.5C337.13 835.71 337.28 839.78 337.57 843.19C337.7 844.73 337.86 846.14 338.04 847.37C338.6 851.05 339.92 854.831 341.46 859.211C341.87 860.361 342.28 861.56 342.72 862.82L397.07 863.271C398.31 857.231 399.89 849.28 401.25 841.01C401.74 838.05 402.2 835.03 402.61 832.05L337.09 831.51L337.08 831.5Z" fill="#F3EFF5"/>
<path d="M342.71 862.831C345.05 869.671 347.62 878.221 349.25 890.731C349.41 891.911 349.56 893.061 349.72 894.181L361.36 894.281L391.45 894.521C393 885.261 394.5 876.271 395.17 872.671C395.17 872.621 395.19 872.561 395.2 872.521C395.42 871.311 395.8 869.441 396.3 867.061C396.54 865.911 396.8 864.641 397.07 863.281L342.72 862.831H342.71Z" fill="#F3EFF5"/>
<path d="M351.09 903.7C352.45 912.89 353.43 919.55 353.18 925.49L386.19 925.76C386.36 924.71 386.54 923.68 386.71 922.7C386.74 922.52 386.77 922.36 386.8 922.19C386.91 921.53 387.03 920.88 387.14 920.27L387.29 919.46C387.77 916.76 388.98 909.49 390.37 901.06C390.73 898.91 391.09 896.71 391.45 894.52L361.36 894.28L349.72 894.19C350.2 897.66 350.66 900.83 351.09 903.71V903.7Z" fill="#F3EFF5"/>
<path d="M369.65 800.48C369.53 802.88 369.3 805.42 368.95 808.1C368.95 808.1 367.16 804.57 364.66 800.44L369.65 800.48Z" fill="#C4A996"/>
<path d="M360.21 925.55L353.42 925.49C353.78 916.86 351.61 906.82 349.44 890.23C346.29 866.14 339.57 856.1 338.12 846.48C336.69 836.97 337.05 817.501 337.87 807.701C337.88 807.541 337.89 807.38 337.91 807.22C338.16 804.52 338.45 802.24 338.83 800.23L349.07 800.31C347.71 817.77 349.38 848.081 353.97 856.781C358.8 865.931 360.97 904.09 360.21 925.55V925.55Z" fill="#C4A996"/>
<path d="M402.93 810.911C402.93 819.861 401.35 831.621 399.49 842.511C397.64 853.411 395.5 863.451 394.37 868.951C394.37 868.951 398.14 832.721 395.78 800.701L402.44 800.751C402.75 804.371 402.93 807.811 402.93 810.911V810.911Z" fill="#C4A996"/>
<path d="M353.97 856.781C358.8 865.931 360.97 904.09 360.21 925.55L353.42 925.49H353.18C353.43 919.55 352.45 912.891 351.09 903.701C350.8 901.741 350.49 899.62 350.17 897.38L350.15 897.19C350.01 896.21 349.87 895.22 349.73 894.19L343.06 863.841C342.94 863.501 342.83 863.161 342.72 862.831C342.28 861.561 341.86 860.361 341.46 859.211C339.92 854.841 338.59 851.06 338.04 847.38C337.86 846.15 337.7 844.73 337.57 843.19C337.34 840.41 337.2 837.18 337.13 833.8L337.07 833.641V831.04C337 822.79 337.31 814.041 337.8 808.401C337.82 808.161 337.84 807.931 337.87 807.701C337.88 807.541 337.89 807.38 337.91 807.22C338.16 804.52 338.45 802.24 338.83 800.23L349.07 800.31C347.71 817.77 349.38 848.081 353.97 856.781V856.781Z" fill="#DCDCDC"/>
<path d="M364.66 800.44L369.65 800.48C369.53 802.88 369.3 805.42 368.95 808.1C368.95 808.1 367.16 804.57 364.66 800.44Z" fill="#DCDCDC"/>
<path d="M402.93 810.911C402.93 819.861 401.35 831.621 399.49 842.511C397.64 853.411 395.5 863.451 394.37 868.951C394.37 868.951 398.14 832.721 395.78 800.701L402.44 800.751C402.75 804.371 402.93 807.811 402.93 810.911V810.911Z" fill="#DCDCDC"/>
<path d="M350.78 894.6C350.7 894.05 350.63 893.51 350.56 892.95C350.64 893.54 350.71 894.09 350.78 894.6Z" fill="#C4A996"/>
<path d="M403.48 833.04L336.1 832.49V831.51C335.99 823.56 336.28 814.46 336.81 808.32C337.1 804.97 337.43 802.35 337.85 800.06L338 799.24L404.58 799.78L404.66 800.68C405.05 804.93 405.25 808.74 405.25 811.98C405.25 817.33 404.69 824.13 403.6 832.18L403.48 833.05V833.04ZM338.07 830.51L401.73 831.03C402.74 823.45 403.25 817.04 403.25 811.97C403.25 809.01 403.08 805.58 402.75 801.75L339.66 801.24C339.32 803.27 339.04 805.6 338.79 808.49C338.29 814.32 338.01 822.86 338.07 830.51V830.51Z" fill="#D4D1D6"/>
<path d="M397.88 864.27L342 863.81L341.77 863.14C341.33 861.88 340.92 860.69 340.51 859.54C338.96 855.12 337.62 851.31 337.04 847.52C336.86 846.26 336.7 844.83 336.57 843.27C336.3 840.06 336.13 836.1 336.08 831.51V830.49L403.75 831.04L403.6 832.17C403.23 834.87 402.79 837.81 402.24 841.16C400.81 849.84 399.16 858.04 398.05 863.46L397.88 864.27V864.27ZM343.43 861.82L396.25 862.25C397.35 856.86 398.9 849.05 400.26 840.83C400.73 837.96 401.12 835.39 401.46 833.02L338.1 832.5C338.16 836.61 338.32 840.17 338.57 843.1C338.7 844.62 338.85 846 339.03 847.22C339.57 850.82 340.88 854.55 342.4 858.87C342.73 859.82 343.08 860.8 343.43 861.82V861.82Z" fill="#D4D1D6"/>
<path d="M392.29 895.52L348.85 895.17L348.73 894.32C348.62 893.54 348.51 892.75 348.41 891.94L348.27 890.86C346.65 878.44 344.07 869.88 341.77 863.15L341.31 861.81L398.29 862.28L397.27 867.25C396.8 869.5 396.39 871.46 396.17 872.69L395.16 872.66L396.14 872.84C395.48 876.43 394.01 885.21 392.43 894.67L392.29 895.51V895.52ZM350.59 893.18L390.6 893.5C392.13 884.36 393.53 875.97 394.18 872.48L394.22 872.27C394.43 871.08 394.84 869.11 395.31 866.84L395.84 864.26L344.11 863.84C346.32 870.45 348.7 878.81 350.25 890.59L350.39 891.67C350.46 892.18 350.52 892.68 350.59 893.18V893.18Z" fill="#D4D1D6"/>
<path d="M387.04 926.76L352.14 926.48L352.18 925.45C352.42 919.59 351.45 912.99 350.1 903.85C349.67 900.97 349.21 897.8 348.73 894.32L348.57 893.18L392.62 893.53L392.43 894.68C392.15 896.4 391.86 898.13 391.58 899.84L391.35 901.22C389.94 909.7 388.74 916.93 388.27 919.63L388.03 920.93C387.95 921.39 387.86 921.87 387.78 922.35L387.64 923.14C387.49 924.04 387.33 924.97 387.17 925.92L387.03 926.77L387.04 926.76ZM354.21 924.49L385.34 924.74C385.45 924.08 385.56 923.42 385.67 922.79L385.81 922.01C385.89 921.53 385.98 921.04 386.06 920.57L386.3 919.27C386.77 916.59 387.97 909.36 389.38 900.89L389.61 899.51C389.83 898.18 390.05 896.85 390.27 895.51L350.87 895.2C351.29 898.22 351.7 901.01 352.08 903.56C353.37 912.28 354.32 918.72 354.21 924.5V924.49Z" fill="#D4D1D6"/>
</svg>
