<svg width="620" height="1074" viewBox="0 0 620 1074" fill="none" xmlns="http://www.w3.org/2000/svg">
<path d="M308.84 49.63C349.01 49.63 347.9 83.84 347.9 83.84V104.01C347.9 104.01 350.71 101.97 353.26 103.16C355.81 104.35 355.81 110.65 354.88 114.14C353.94 117.63 353.52 120.44 352.75 126.48C351.98 132.52 344.15 133.29 344.15 133.29C344.15 133.29 342.87 140.1 343.04 142.4C343.21 144.7 339.72 152.27 339.72 155.76V162.48C341.95 173.29 358.68 185.63 371.61 188.86C384.55 192.09 393.31 201.97 403.87 205.54C414.42 209.11 424.98 216.09 432.98 238.9C440.98 261.71 438.17 283.16 438.17 283.16C451.19 301.54 451.21 331.33 451.21 331.33C452.49 344.86 457.17 351.24 462.1 356.52C467.04 361.8 478.01 380.69 482.01 392.43C486.01 404.17 486.61 429.54 487.63 437.45C488.65 445.36 497.54 472.09 497.54 472.09C497.54 472.09 504.29 494.54 505.1 499.09C505.86 503.36 509.29 506.31 514.87 507.98C520.45 509.65 530.5 516.87 534.25 521.78C538 526.69 548.29 539.57 548.29 539.57C548.29 539.57 553.99 543.64 551.48 548.22C548.97 552.8 543.82 549.34 543.82 549.34C543.82 549.34 536.2 543.84 533.93 540.09C531.66 536.34 529.98 533.87 527.99 533.87C526 533.87 526.83 536.94 527.35 538.7C527.87 540.45 529.98 549.23 529.98 549.23C529.98 549.23 538.75 564.06 542.34 570.01C545.93 575.95 547.48 581.18 544.93 583.49C542.38 585.8 538.47 582.93 538.47 582.93L534.08 577.11L519.6 556.89L528.65 583.01C528.65 583.01 534.47 594.61 529.25 596.69C524.03 598.76 521.63 593.78 521.63 593.78L515.09 578.63L507.01 559.49C507.07 565.83 510.84 581.2 511.97 588.8C513.11 596.4 511.91 599.03 507.96 599.03C504.01 599.03 503.05 593.17 501.74 589.22C500.42 585.27 497.85 574.8 496.95 568.94C496.05 563.08 492.4 557.93 492.4 557.93L492.76 579.34C492.76 579.34 493.78 588.07 488.33 588.07C482.88 588.07 483.01 581.61 483.01 581.61C483.01 581.61 482.77 568.33 482.59 559.3C482.41 550.27 479.42 543.87 479.42 543.87C479.42 543.87 472.6 521.44 472.24 506.12C471.97 494.77 462.75 477.5 457.99 469.31C455.69 465.35 453.52 461.33 451.48 457.23C444.51 443.25 429.82 413.71 425.59 404.56C419.97 392.43 425.33 384.03 421.25 375.33C416.42 365.03 400.25 346.14 401.44 320.95C401.44 320.95 400.1 330.91 397.4 337.93C393.61 347.79 389.61 349.55 386.8 359.38C383.99 369.21 377.99 381.08 379.91 385.93C381.83 390.78 385.4 432.65 385.4 432.65C385.4 432.65 388.32 438.65 390.87 452.05C393.42 465.45 397.13 473.5 399.68 491.75C402.23 510.01 401.72 518.3 406.45 538.22C411.17 558.13 408.24 595.79 408.24 595.79C408.24 595.79 405.69 625.28 405.69 639.58C405.69 653.88 400.58 670.35 394.97 683.49C389.35 696.64 393.69 704.55 395.23 711.58C396.76 718.6 394.72 739.54 395.1 748.73C395.48 757.92 402.89 791.11 402.89 810.9C402.89 830.69 395.17 864.26 393.76 871.79C392.36 879.32 386.93 912.7 385.78 919.15C384.63 925.6 382.78 935.3 384.57 939.19C386.36 943.08 388.78 952.47 388.78 956.36C388.78 960.25 384.89 964.4 384.89 970.21C384.89 976.02 390 981.76 397.27 989.61C404.55 997.46 404.67 1003.84 404.67 1008.38C404.67 1012.92 398.03 1015.4 398.03 1015.4C396.31 1018.53 391.9 1017.51 391.9 1017.51C388.77 1021.02 383.47 1018.6 383.47 1018.6C383.47 1018.6 382.58 1022.24 378.17 1022.24C373.76 1022.24 373 1016.62 373 1016.62C373 1016.62 372.11 1023.96 364.19 1023.96C356.27 1023.96 352.87 1016.94 349.72 1012.77C346.57 1008.6 345.98 1001.71 348.44 998.47C350.91 995.24 352.01 992.85 348.95 987.24C345.89 981.62 347.93 978.81 347.93 971.41C347.93 964.01 344.87 968.01 344.87 957.28C344.87 946.55 346.49 948.94 351.08 936.77C355.68 924.6 352.53 914.3 349.38 890.22C346.23 866.13 339.51 856.09 338.06 846.48C336.61 836.86 337 817.1 337.83 807.39C338.66 797.69 340 793.41 342.55 787.73C345.1 782.05 343.7 774.07 343.83 766.22C343.96 758.37 339.23 749.05 336.62 741.71C334 734.37 333.88 731.94 333.88 731.94C333.88 731.94 334.65 707.56 332.6 704.56C330.56 701.56 328.58 688.47 328.58 675.84C328.58 663.21 317.6 624.52 315.3 608.31C313 592.1 313.53 562.76 313.53 559.76C313.53 558.16 312.18 548.92 310.91 540.62C310.53 538.14 306.96 538.14 306.58 540.62C305.31 548.92 303.96 558.17 303.96 559.76C303.96 562.76 304.49 592.1 302.19 608.31C299.89 624.52 288.91 663.2 288.91 675.84C288.91 688.48 286.93 701.56 284.89 704.56C282.85 707.56 283.61 731.94 283.61 731.94C283.61 731.94 283.48 734.37 280.87 741.71C278.25 749.05 273.53 758.37 273.66 766.22C273.79 774.07 272.38 782.05 274.94 787.73C277.49 793.41 278.83 797.69 279.66 807.39C280.49 817.09 280.87 836.86 279.43 846.48C277.98 856.1 271.26 866.14 268.11 890.22C264.96 914.31 261.81 924.6 266.41 936.77C271.01 948.94 272.62 946.56 272.62 957.28C272.62 968 269.56 964 269.56 971.41C269.56 978.82 271.6 981.62 268.54 987.24C265.48 992.86 266.58 995.24 269.05 998.47C271.52 1001.7 270.92 1008.6 267.77 1012.77C264.62 1016.94 261.22 1023.96 253.3 1023.96C245.38 1023.96 244.49 1016.62 244.49 1016.62C244.49 1016.62 243.72 1022.24 239.32 1022.24C234.92 1022.24 234.02 1018.6 234.02 1018.6C234.02 1018.6 228.72 1021.03 225.59 1017.51C225.59 1017.51 221.19 1018.53 219.46 1015.4C219.46 1015.4 212.82 1012.91 212.82 1008.38C212.82 1003.85 212.95 997.47 220.22 989.61C227.49 981.75 232.6 976.01 232.6 970.21C232.6 964.41 228.71 960.25 228.71 956.36C228.71 952.47 231.14 943.08 232.92 939.19C234.71 935.3 232.86 925.59 231.71 919.15C230.56 912.7 225.14 879.32 223.73 871.79C222.33 864.26 214.6 830.68 214.6 810.9C214.6 791.12 222 757.92 222.39 748.73C222.77 739.54 220.73 718.6 222.26 711.58C223.79 704.56 228.13 696.64 222.52 683.49C216.9 670.34 211.8 653.87 211.8 639.58C211.8 625.29 209.25 595.79 209.25 595.79C209.25 595.79 206.31 558.13 211.04 538.22C215.76 518.31 215.25 510.01 217.81 491.75C220.36 473.49 224.07 465.45 226.62 452.05C229.17 438.65 232.09 432.65 232.09 432.65C232.09 432.65 235.66 390.78 237.58 385.93C239.5 381.08 233.49 369.21 230.69 359.38C227.88 349.55 223.89 347.79 220.09 337.93C217.39 330.91 216.05 320.95 216.05 320.95C217.24 346.14 201.07 365.04 196.24 375.33C192.16 384.03 197.52 392.44 191.9 404.56C186.28 416.68 162.28 464.69 162.28 464.69C162.28 464.69 146.25 492.27 145.89 507.38C145.54 522.49 138.81 544.63 138.81 544.63C138.81 544.63 135.86 550.95 135.68 559.86C135.5 568.78 135.27 581.88 135.27 581.88C135.27 581.88 135.39 588.26 130.02 588.26C124.65 588.26 125.65 579.64 125.65 579.64L126 558.5C126 558.5 122.4 563.58 121.51 569.36C120.62 575.14 118.09 585.48 116.79 589.37C115.49 593.27 114.55 599.05 110.65 599.05C106.75 599.05 105.57 596.45 106.69 588.95C107.81 581.45 111.53 566.28 111.59 560.02L103.62 578.91L97.1597 593.87C97.1597 593.87 94.7997 598.79 89.6397 596.74C84.4797 594.69 90.2297 583.24 90.2297 583.24L99.1597 557.46L84.8697 577.42L80.5397 583.17C80.5397 583.17 76.6797 586 74.1597 583.72C71.6397 581.44 73.1797 576.28 76.7197 570.42C80.2597 564.56 88.9197 549.91 88.9197 549.91C88.9197 549.91 91.0097 541.25 91.5197 539.52C92.0297 537.79 92.8597 534.76 90.8897 534.76C88.9197 534.76 87.2697 537.2 85.0297 540.9C82.7897 544.6 75.2697 550.03 75.2697 550.03C75.2697 550.03 70.1897 553.45 67.7097 548.93C65.2297 544.4 70.8597 540.39 70.8597 540.39C70.8597 540.39 81.0097 527.68 84.7097 522.84C88.4097 518 98.3297 510.87 103.84 509.22C109.35 507.57 112.74 504.65 113.48 500.44C114.23 496.23 119.96 472.08 119.96 472.08C119.96 472.08 128.85 445.36 129.87 437.44C130.89 429.53 131.49 404.16 135.49 392.42C139.49 380.68 150.47 361.78 155.4 356.51C160.34 351.23 165.02 344.85 166.29 331.32C166.29 331.32 166.31 301.53 179.33 283.15C179.33 283.15 176.52 261.7 184.52 238.89C192.52 216.08 203.07 209.1 213.63 205.53C224.18 201.96 232.95 192.08 245.89 188.85C258.83 185.62 275.55 173.28 277.78 162.47V155.75C277.78 152.26 274.29 144.69 274.46 142.39C274.63 140.09 273.35 133.28 273.35 133.28C273.35 133.28 265.52 132.51 264.75 126.47C263.98 120.43 263.56 117.62 262.62 114.13C261.68 110.64 261.68 104.34 264.24 103.15C266.8 101.96 269.6 104 269.6 104V83.83C269.6 83.83 268.49 49.62 308.66 49.62" fill="#F6D3BD"/>
<path d="M514.9 507.99C509.32 506.32 505.889 503.36 505.129 499.1L503.619 495.22C501.339 486.12 497.569 472.1 497.569 472.1C497.569 472.1 488.679 445.38 487.659 437.46C486.639 429.55 486.039 404.18 482.039 392.44C478.039 380.7 467.059 361.8 462.129 356.53C457.189 351.25 452.509 344.87 451.239 331.34C451.239 331.34 454.149 357.72 445.729 366.15C445.729 366.15 471.259 376.87 474.579 395.51C477.899 414.15 482.749 444.79 486.319 453.72L493.199 471.35C496.989 484.22 500.719 499.44 499.369 503.49L497.539 512.58C497.539 512.58 503.319 506.93 522.379 511.73C519.639 509.99 516.969 508.62 514.909 508L514.9 507.99Z" fill="#C4A996"/>
<path d="M489.87 513.69C482.51 513.48 476.57 509.33 472.24 504.81C472.27 505.25 472.29 505.69 472.3 506.11C472.66 521.42 479.48 543.86 479.48 543.86C479.48 543.86 482.47 550.26 482.65 559.29C482.83 568.32 483.07 581.6 483.07 581.6C483.07 581.6 482.99 586.93 487.06 587.89C483.21 580.62 484.91 570.41 485.86 560.3C486.83 549.89 483.09 545.7 481.89 531.57C480.69 517.43 489.87 513.68 489.87 513.68V513.69Z" fill="#C4A996"/>
<path d="M527.38 538.7C526.86 536.95 526.02 533.87 528.02 533.87C530.02 533.87 531.69 536.34 533.96 540.09C536.23 543.84 543.85 549.34 543.85 549.34C543.85 549.34 545.6 550.51 547.56 550.59C539.28 541.96 528.2 525.38 528.2 525.38C522.1 539.14 503.2 529.69 503.2 529.69C507.5 539.36 522.81 541.61 528.27 542.11C527.89 540.59 527.55 539.27 527.38 538.7V538.7Z" fill="#C4A996"/>
<path d="M544.43 583.88C536.14 580.93 529.83 566.89 526.48 561.31C523.13 555.73 519.64 556.88 519.64 556.88L534.12 577.1L538.51 582.92C538.51 582.92 541.91 585.41 544.43 583.88V583.88Z" fill="#C4A996"/>
<path d="M528.29 597C521.41 590.21 511.99 565.63 511.48 562.9C510.92 559.87 507.05 559.47 507.05 559.47L515.13 578.61L521.67 593.76C521.67 593.76 523.76 598.1 528.29 596.99V597Z" fill="#C4A996"/>
<path d="M506.6 598.72C503.54 589.71 498.52 567.36 497.77 562.83C496.89 557.57 492.47 557.92 492.47 557.92C492.47 557.92 496.12 563.06 497.02 568.93C497.92 574.79 500.49 585.26 501.81 589.21C502.95 592.64 503.83 597.5 506.62 598.72H506.6Z" fill="#C4A996"/>
<path d="M176.55 372.52L188.21 369.38L187.36 374.06L176.55 372.52Z" fill="#C4A996"/>
<path d="M155.48 356.52C150.54 361.8 139.57 380.69 135.57 392.43C131.96 403.02 131.12 424.7 130.24 434.65C131.9 431.59 134.01 426.29 136.11 420.51C142.71 402.36 153.31 385.92 167.25 372.54L167.28 372.51C163.7 370.05 162.17 349.27 165.34 338.09C163.36 347.15 159.51 352.2 155.48 356.51V356.52Z" fill="#C4A996"/>
<path d="M317.86 50.28C315.11 49.86 312.12 49.63 308.84 49.63H308.75C268.58 49.63 269.69 83.84 269.69 83.84V104.01C269.69 104.01 266.88 101.97 264.33 103.16C261.78 104.35 261.78 110.65 262.71 114.14C263.65 117.63 264.07 120.44 264.84 126.48C265.61 132.52 273.44 133.29 273.44 133.29C273.44 133.29 274.72 140.1 274.55 142.4C274.38 144.7 277.87 152.27 277.87 155.76V162.48C275.64 173.29 258.91 185.63 245.98 188.86C233.04 192.09 224.28 201.97 213.72 205.54C203.17 209.11 192.61 216.09 184.61 238.9C176.61 261.71 179.35 284.24 179.35 284.24L190.33 278.05C190.33 278.05 189.06 247.11 197.88 227.84C206.71 208.56 235.5 203.84 244.52 209.46C253.54 215.08 257.29 211.33 273.63 211.33C289.97 211.33 307.16 216.95 307.16 216.95C307.16 216.95 288.44 197.38 287.07 185.63C285.71 173.89 291.54 165.03 308.79 165.03C308.79 165.03 283.45 160.48 283.19 152.18C282.93 143.88 299.53 133.61 305.66 134.75C311.79 135.9 312.68 134.66 312.68 134.66C312.68 134.66 314.53 133.6 316.73 135.07C318.93 136.54 323.66 139.51 323.66 139.51C323.66 139.51 323.4 135.65 320.09 133.8C316.78 131.95 313.32 131.37 310.98 132.91C308.64 134.44 306.98 132.23 304.64 132.1C302.3 131.97 298.09 133.12 298.09 133.12C298.09 133.12 283.2 130.99 282.81 119.38C282.42 107.77 294.04 109.55 294.04 109.55C294.04 109.55 284.68 107.08 283.83 105.04C282.98 103 287.66 91.68 303.32 101.21C303.32 101.21 286.51 63.53 317.85 50.28H317.86Z" fill="#C4A996"/>
<path d="M308.8 122.57C304.01 122.57 300.91 125.29 300.91 125.29C302.82 125.55 305.04 127.29 306.48 128.23C307.62 128.97 308.8 128.87 308.8 128.87C308.8 128.87 310.45 128.8 311.12 128.23C312.44 127.12 314.78 125.55 316.69 125.29C316.69 125.29 313.58 122.57 308.8 122.57Z" fill="#C4A996"/>
<path d="M339.95 73.55C337.49 81.06 335.79 88.31 336.44 94.74C336.44 94.74 318.8 88.78 313.8 101.8C313.8 101.8 320.01 96.18 326.91 96.18C333.81 96.18 336.76 103.41 336.76 103.41C336.76 103.41 339.82 107.69 339.95 101.88C340.08 96.07 338.99 82.79 339.95 73.54V73.55Z" fill="#C4A996"/>
<path d="M350.86 106.67C352.39 106.35 354.93 105.37 354.65 115.02C354.72 114.73 354.8 114.44 354.88 114.14C355.82 110.65 355.82 104.35 353.26 103.16C350.71 101.97 347.9 104.01 347.9 104.01L343.13 114.52C343.13 114.52 349.32 106.99 350.85 106.67H350.86Z" fill="#C4A996"/>
<path d="M343.14 127.61C343.14 127.61 343.04 130.75 344.13 133.46C344.15 133.36 344.16 133.29 344.16 133.29C344.16 133.29 348.71 132.84 351.21 129.94C348.45 130.96 343.37 132.19 343.14 127.6V127.61Z" fill="#C4A996"/>
<path d="M450.27 318.79C448.95 308.48 445.78 293.89 438.18 283.16C438.18 283.16 440.99 261.71 432.99 238.9C424.99 216.09 414.44 209.11 403.88 205.54C393.33 201.97 384.56 192.09 371.62 188.86C358.68 185.63 341.96 173.29 339.73 162.48V155.76C339.73 154.84 339.98 153.63 340.33 152.31C333.85 163.15 321.37 164.28 321.37 164.28C321.37 164.28 336.77 163.68 336.77 171.34C336.77 179 329.62 185.13 329.62 185.13C329.62 185.13 342.9 178.49 350.73 185.13C358.56 191.77 354.64 205.56 341.71 205.56C341.71 205.56 353.88 206.92 366.05 204.79C378.22 202.66 395.07 210.07 398.82 211.43C402.56 212.79 415.93 219 422.91 231.77C429.89 244.54 422.91 288.28 422.91 288.28C422.91 288.28 447.73 297.26 450.28 318.8L450.27 318.79Z" fill="#C4A996"/>
<path d="M276.86 310.16C211.84 306.93 224.61 260.36 224.61 260.36C224.61 260.36 208.78 282.66 211.59 302.07C213.26 313.62 213.58 329.74 213.56 340.89C215.37 334.79 216.44 328.13 216.1 320.96C216.1 320.96 217.44 330.92 220.14 337.94C223.93 347.8 227.93 349.56 230.74 359.39C233.55 369.22 239.55 381.09 237.63 385.94C235.72 390.79 232.14 432.66 232.14 432.66C232.14 432.66 229.23 438.66 226.67 452.06C224.12 465.46 220.41 473.51 217.86 491.76C215.31 510.02 215.82 518.31 211.09 538.23C206.37 558.14 209.3 595.8 209.3 595.8C209.3 595.8 211.85 625.29 211.85 639.59C211.85 653.89 216.96 670.36 222.57 683.5C228.19 696.65 223.85 704.56 222.31 711.59C220.78 718.61 222.82 739.55 222.44 748.74C222.06 757.93 214.65 791.12 214.65 810.91C214.65 830.7 222.37 864.27 223.78 871.8C225.18 879.33 230.61 912.71 231.76 919.16C232.44 923 233.37 928 233.64 932.23C238.15 913.91 233.05 891.32 230.34 872.31C227.53 852.65 228.81 796.22 229.32 778.74C229.83 761.25 244.06 752.44 244.06 752.44C227.53 744.27 231.87 721.29 235.7 714.53C239.53 707.76 244.38 703.04 245.4 695.25C246.42 687.46 242.21 676.61 242.21 676.61C220.76 643.93 220.76 488.32 229.95 474.4C239.14 460.48 257.95 465.29 257.95 465.29C240.59 451.33 246.04 417.97 244.05 403.33C242.07 388.69 245.52 382.39 245.52 382.39C238.03 376.94 239.05 365.53 237.35 359.07C235.65 352.6 243.31 344.43 243.31 344.43C232.59 332.52 236.67 327.92 236.67 327.92L246.54 335.24C246.54 335.24 238.54 328.09 238.54 318.56C238.54 309.03 276.83 310.15 276.83 310.15L276.86 310.16Z" fill="#C4A996"/>
<path d="M237.5 976.35C238.52 970.09 230.56 962.21 230.56 962.21L230.2 961.38C231.31 963.94 232.67 966.79 232.67 970.22C232.67 976.03 227.56 981.77 220.29 989.62C218.18 991.89 216.69 994.04 215.61 996.05C225.73 988.51 236.81 980.58 237.5 976.34V976.35Z" fill="#C4A996"/>
<path d="M234.08 1018.61C234.08 1018.61 234.97 1022.25 239.38 1022.25C243.79 1022.25 244.55 1016.63 244.55 1016.63C244.55 1016.63 245.44 1023.97 253.36 1023.97C255.17 1023.97 256.73 1023.59 258.12 1022.97C244.32 1020.88 253.85 1007.05 253.85 1007.05C243 1018.86 234.38 1015.92 234.38 1015.92C230.74 1017.77 226.61 1014.39 226.61 1014.39C224.2 1014.9 221.04 1012.22 221.04 1012.22C219 1012.86 212.9 1007.89 212.89 1007.88C212.89 1008.05 212.89 1008.22 212.89 1008.39C212.89 1012.92 219.53 1015.41 219.53 1015.41C221.25 1018.54 225.66 1017.52 225.66 1017.52C228.79 1021.03 234.09 1018.61 234.09 1018.61H234.08Z" fill="#C4A996"/>
<path d="M266.46 936.78C265.64 934.61 265.07 932.5 264.7 930.36C269.32 962.19 264.43 962.97 263.93 970.61C263.42 978.4 264.31 975.46 264.57 980.7C264.83 985.93 258.31 989.38 261.89 995.38C264.35 999.52 267.43 1004.81 269.64 1009.4C271.08 1005.52 270.98 1000.94 269.1 998.48C266.63 995.25 265.53 992.86 268.59 987.25C271.65 981.63 269.61 978.82 269.61 971.42C269.61 964.02 272.67 968.02 272.67 957.29C272.67 946.56 271.05 948.95 266.46 936.78Z" fill="#C4A996"/>
<path d="M308.799 300.35C308.799 300.35 305.629 309.2 296.439 309.71C296.439 309.71 302.949 312.6 308.799 312.6V300.34V300.35Z" fill="#C4A996"/>
<path d="M306.819 323.63C306.819 323.63 288.439 313.67 270.439 332.31C270.439 332.31 286.909 323.76 306.819 323.63Z" fill="#C4A996"/>
<path d="M272.95 361.8C272.95 361.8 280.35 358.48 285.72 357.54C291.08 356.6 301.55 359.75 304.19 358.65C306.83 357.55 307.34 349.29 307.34 349.29C307.34 349.29 312.28 364.44 295.08 362.4C277.89 360.36 272.95 361.8 272.95 361.8V361.8Z" fill="#C4A996"/>
<path d="M267.759 371.38C267.759 371.38 266.479 395.76 278.359 401.12C290.229 406.48 305.549 393.84 305.549 393.84C305.549 393.84 307.339 407.12 298.149 407.12C288.959 407.12 266.239 413.25 267.769 371.38H267.759Z" fill="#C4A996"/>
<path d="M262.91 477.72C262.91 477.72 268.7 475.17 268.7 470.91C268.7 470.91 277.04 491.34 281.13 495.76C281.13 495.76 269.04 481.29 262.92 477.72H262.91Z" fill="#C4A996"/>
<path d="M354.31 1009.4C354.13 999.66 364.01 1001.29 364.01 1001.29C364.01 1001.29 361.29 992.27 361.8 984.44C362.31 976.61 372.86 971.33 372.86 971.33C368.26 969.12 361.97 972.18 357.88 969.88C353.79 967.58 354.65 946.31 358.39 939.84C362.13 933.37 360.43 869.03 353.96 856.78C347.49 844.52 346.81 789.38 352.26 787.67C357.71 785.97 368.94 808.1 368.94 808.1C374.39 765.89 350.56 758.74 347.83 745.8C345.11 732.86 355.32 731.84 354.3 723.33C353.28 714.82 342.73 707.67 342.73 707.67C342.73 707.67 347.16 672.78 338.47 644.69C329.78 616.6 326.73 558.9 326.73 558.9C322.39 533.88 344.26 492.18 344.26 492.18C342.56 489.46 342.39 480.27 342.39 480.27L321.45 492.36C321.45 492.36 331.32 495.25 326.05 501.72C320.77 508.19 284.86 509.55 284.86 509.55C300.78 538.38 291.41 658.72 291.41 658.72C294.78 641.99 300.64 619.66 302.25 608.31C304.55 592.1 304.02 562.76 304.02 559.76C304.02 558.16 305.37 548.92 306.64 540.62C307.02 538.14 310.59 538.14 310.97 540.62C312.24 548.92 313.59 558.16 313.59 559.76C313.59 562.76 313.06 592.1 315.36 608.31C317.66 624.52 328.64 663.2 328.64 675.84C328.64 688.48 330.62 701.56 332.66 704.56C334.7 707.56 333.94 731.94 333.94 731.94C333.94 731.94 334.07 734.37 336.68 741.71C339.3 749.05 344.02 758.37 343.89 766.22C343.76 774.07 345.17 782.05 342.61 787.73C340.06 793.41 338.72 797.69 337.89 807.39C337.06 817.09 336.68 836.86 338.12 846.48C339.57 856.1 346.29 866.14 349.44 890.22C352.59 914.31 355.74 924.6 351.14 936.77C346.54 948.94 344.93 946.56 344.93 957.28C344.93 968 347.99 964 347.99 971.41C347.99 978.82 345.95 981.62 349.01 987.24C352.07 992.86 350.97 995.24 348.5 998.47C346.03 1001.7 346.63 1008.6 349.78 1012.77C352.93 1016.94 356.33 1023.96 364.25 1023.96C372.17 1023.96 373.06 1016.62 373.06 1016.62C368.49 1019.02 354.49 1019.13 354.32 1009.39L354.31 1009.4Z" fill="#C4A996"/>
<path d="M267.619 894.27C267.799 892.97 267.979 891.62 268.169 890.23C271.319 866.14 278.039 856.1 279.489 846.49C280.939 836.87 280.549 817.11 279.719 807.4C278.889 797.7 277.549 793.42 274.999 787.74C272.449 782.06 273.849 774.08 273.719 766.23C273.589 758.38 278.319 749.06 280.929 741.72C283.549 734.38 283.669 731.95 283.669 731.95C283.669 731.95 282.899 707.57 284.949 704.57C286.669 702.04 288.349 692.32 288.829 681.75C288.829 681.76 288.829 681.77 288.829 681.78C288.149 694.05 281.289 703.77 281.289 703.77C279.419 717.39 265.119 728.88 265.119 728.88C269.029 747.52 252.689 766.92 252.689 766.92C278.759 797.04 270.069 875.85 267.609 894.28L267.619 894.27Z" fill="#C4A996"/>
<path d="M393.63 1016.18C390.82 1015.92 390.31 1014.9 387.08 1014.64C383.85 1014.37 383.08 1014.82 379.34 1014.65C375.6 1014.48 373.06 1016.18 373.06 1016.18L373.15 1017.08C373.44 1018.41 374.59 1022.24 378.23 1022.24C382.63 1022.24 383.53 1018.6 383.53 1018.6C383.53 1018.6 388.83 1021.03 391.96 1017.51C391.96 1017.51 394.72 1018.14 396.72 1016.86C395.32 1016.48 394.21 1016.22 393.64 1016.17L393.63 1016.18Z" fill="#C4A996"/>
<path d="M395.269 711.59C394.859 709.71 394.249 707.76 393.679 705.67C395.429 728.17 385.459 759.42 385.459 759.42C403.159 784.27 394.369 868.95 394.369 868.95C396.619 857.96 402.929 828.8 402.929 810.91C402.929 791.12 395.529 757.93 395.139 748.74C394.759 739.55 396.799 718.61 395.269 711.59V711.59Z" fill="#C4A996"/>
<path d="M403.589 298.48C406.139 281.63 397.549 263.42 397.549 263.42C396.529 297.13 361.459 308.95 361.459 308.95C386.739 307.67 383.249 343.59 381.889 359.08C380.529 374.57 364.529 395.85 364.529 395.85C403.339 431.94 366.699 473.64 366.699 473.64C377.809 470.96 384.319 477.73 389.929 485.9C395.549 494.07 392.359 514.62 396.819 525.35C401.289 536.07 409.149 574.72 409.159 574.75C409.309 562.8 408.879 548.27 406.499 538.24C401.779 518.33 402.289 510.03 399.729 491.77C397.179 473.51 393.469 465.47 390.919 452.07C388.369 438.67 385.449 432.67 385.449 432.67C385.449 432.67 381.879 390.8 379.959 385.95C378.049 381.1 384.049 369.23 386.849 359.4C389.659 349.57 393.649 347.81 397.449 337.95C400.149 330.93 401.489 320.97 401.489 320.97C400.299 346.16 416.469 365.06 421.299 375.35C425.379 384.05 420.019 392.46 425.639 404.58C427.739 409.12 432.419 418.69 437.459 428.89C432.699 398.54 430.639 362.6 430.639 362.6C430.639 362.6 401.019 315.35 403.579 298.5L403.589 298.48Z" fill="#C4A996"/>
<path d="M350.35 483.33L351.76 488.06L364.14 476.57L350.35 483.33Z" fill="#C4A996"/>
<path d="M314.989 322.74C314.989 322.74 329.669 319.17 345.879 331.29L347.279 325.16C347.279 325.16 328.639 316.99 314.979 322.73L314.989 322.74Z" fill="#C4A996"/>
<path d="M316.27 362.14C316.27 362.14 327.55 362.23 331.14 364.01C334.74 365.8 349.88 366.65 351.59 354.73C351.59 354.73 347.33 360.37 338.74 359.89C330.14 359.41 326.31 358.14 316.27 362.14V362.14Z" fill="#C4A996"/>
<path d="M315.76 394.14C315.76 394.14 319.33 403.5 327.5 403.5C335.67 403.5 351.5 397.29 351.59 369.29C351.59 369.29 353.21 394.06 348.87 398.31C344.53 402.57 337.04 406.82 326.49 406.82C315.94 406.82 315.17 397.37 315.77 394.14H315.76Z" fill="#C4A996"/>
<path d="M268.219 410.78C268.219 410.78 269.749 445.08 275.709 451.04L270.089 455.13C270.089 455.13 264.129 420.07 268.219 409.85" fill="#C4A996"/>
<path d="M348.92 410.78C348.92 410.78 347.39 445.08 341.43 451.04L347.05 455.13C347.05 455.13 353.01 420.07 348.92 409.85" fill="#C4A996"/>
<path d="M308.69 143.67C304.95 143.67 301.29 142.31 301.29 142.31C302.41 144.28 305.9 145.19 307.66 145.53C308.35 145.66 309.04 145.66 309.72 145.53C311.48 145.19 314.97 144.28 316.09 142.31C316.09 142.31 312.43 143.67 308.69 143.67V143.67Z" fill="#C4A996"/>
<path d="M88.6299 535.81L90.0399 534.39H94.3199L88.6299 535.81Z" fill="#ED1C24"/>
<path d="M104.79 532.52C102.79 532.81 93.3098 534.38 90.8398 534.79C90.8798 534.79 90.9098 534.79 90.9498 534.79C92.9198 534.79 92.0898 537.82 91.5798 539.55C91.5098 539.77 91.4198 540.11 91.3098 540.52C105.36 539.24 104.78 532.52 104.78 532.52H104.79Z" fill="#C4A996"/>
<path d="M144.21 499.79C141.38 503.88 140.98 510.02 139.49 512.39C137.99 514.75 128.78 515.26 128.78 515.26C133.27 518.09 132.44 519.27 133.62 529.9C134.8 540.53 131.14 549.38 131.38 552.93C131.56 555.64 132.89 577.22 133.51 587.22C135.22 585.34 135.16 582.33 135.16 582.33C135.16 582.33 135.4 569.22 135.57 560.31C135.75 551.39 138.7 545.08 138.7 545.08C138.7 545.08 145.43 522.94 145.78 507.83C145.86 504.41 146.61 500.42 147.72 496.28C146.47 497.2 145.19 498.37 144.2 499.8L144.21 499.79Z" fill="#C4A996"/>
<path d="M112.88 502.66C111.49 505.71 108.41 507.89 103.92 509.24C102.73 509.6 101.33 510.22 99.8398 511C105.15 510.69 114.32 510.86 120.86 515.47C120.86 515.47 115.8 508.57 112.88 502.65V502.66Z" fill="#C4A996"/>
<path d="M127.43 509.07L124.25 508.33L125.84 491.03L127.43 509.07Z" fill="#C4A996"/>
<path d="M117.76 573.28C115 581.76 112.33 594.3 111.37 599.02C114.71 598.39 115.61 593.06 116.84 589.4C118.14 585.5 120.68 575.17 121.56 569.39C122.45 563.6 126.05 558.53 126.05 558.53C121.98 559.36 121.23 562.66 117.76 573.29V573.28Z" fill="#C4A996"/>
<path d="M88.3197 568.79C85.6197 573.94 80.5897 581.28 78.4897 584.28C79.6997 583.85 80.5997 583.2 80.5997 583.2L84.9297 577.45L99.2197 557.49C97.3697 555.09 91.7797 562.17 88.3197 568.79V568.79Z" fill="#C4A996"/>
<path d="M101.55 578.77C99.9999 583.4 95.9498 591.85 93.3398 597.12C95.9798 596.47 97.2198 593.91 97.2198 593.91L103.68 578.95L111.65 560.06C106.08 562.82 103.92 571.71 101.55 578.77Z" fill="#C4A996"/>
<path d="M364.25 1024.97C357.04 1024.97 353.39 1019.69 350.46 1015.45C349.95 1014.72 349.47 1014.01 348.99 1013.38C345.58 1008.86 344.97 1001.47 347.72 997.87C349.88 995.04 351.05 993.04 348.15 987.72C345.92 983.63 346.23 980.81 346.62 977.24C346.8 975.59 347.01 973.72 347.01 971.41C347.01 968.34 346.49 967.51 345.84 966.46C344.95 965.04 343.94 963.42 343.94 957.28C343.94 950.01 344.69 948.5 346.52 944.84C347.42 943.03 348.66 940.55 350.22 936.41C353.79 926.95 352.56 918.59 350.31 903.43C349.74 899.59 349.1 895.23 348.46 890.34C346.51 875.42 343.23 866.07 340.59 858.55C339.04 854.13 337.7 850.32 337.14 846.61C335.72 837.14 336.04 817.33 336.9 807.29C337.73 797.53 339.11 793.07 341.71 787.3C343.44 783.44 343.25 778.31 343.03 772.88C342.95 770.69 342.86 768.43 342.89 766.18C342.98 760.38 340.26 753.56 337.86 747.54C337.09 745.6 336.36 743.77 335.73 742.02C333.09 734.63 332.93 732.08 332.93 731.97C333.22 722.58 333.18 707.09 331.83 705.1C329.56 701.76 327.63 688.35 327.63 675.81C327.63 668.51 323.89 652.32 320.28 636.67C317.73 625.61 315.32 615.16 314.36 608.42C312.98 598.65 312.37 582.79 312.57 561.28C312.57 560.54 312.58 560.01 312.58 559.73C312.58 559.03 312.24 555.62 309.97 540.74C309.86 539.99 309.29 539.73 308.79 539.73C308.3 539.73 307.73 540 307.62 540.74C305.35 555.61 305.01 559.02 305.01 559.73C305.01 560.02 305.01 560.55 305.02 561.28C305.22 582.79 304.62 598.65 303.23 608.42C302.27 615.16 299.86 625.61 297.31 636.67C293.7 652.32 289.96 668.51 289.96 675.81C289.96 688.35 288.04 701.76 285.76 705.1C284.41 707.09 284.36 722.59 284.66 731.89C284.66 732.08 284.49 734.63 281.86 742.02C281.24 743.77 280.51 745.6 279.73 747.54C277.33 753.56 274.61 760.38 274.7 766.18C274.74 768.43 274.65 770.69 274.56 772.87C274.35 778.3 274.15 783.43 275.89 787.29C278.48 793.06 279.86 797.52 280.7 807.28C281.56 817.32 281.88 837.14 280.46 846.6C279.9 850.31 278.56 854.12 277.01 858.54C274.37 866.05 271.09 875.4 269.14 890.33C268.5 895.22 267.86 899.58 267.29 903.43C265.05 918.59 263.81 926.94 267.38 936.4C268.94 940.54 270.18 943.02 271.08 944.83C272.9 948.48 273.66 950 273.66 957.27C273.66 963.41 272.65 965.03 271.77 966.45C271.12 967.5 270.6 968.32 270.6 971.4C270.6 973.71 270.81 975.58 270.99 977.23C271.38 980.8 271.69 983.61 269.46 987.71C266.56 993.03 267.73 995.03 269.89 997.86C272.64 1001.46 272.03 1008.85 268.62 1013.37C268.14 1014 267.66 1014.71 267.15 1015.44C264.22 1019.68 260.57 1024.96 253.36 1024.96C248.22 1024.96 245.74 1022.12 244.56 1019.78C243.63 1021.57 241.99 1023.23 239.38 1023.23C236.1 1023.23 234.29 1021.39 233.51 1019.87C231.75 1020.43 228.02 1021.17 225.3 1018.58C223.94 1018.76 220.58 1018.91 218.84 1016.2C217.39 1015.59 211.89 1012.96 211.89 1008.38C211.89 1003.8 211.89 997.21 219.56 988.93C227.1 980.8 231.68 975.48 231.68 970.21C231.68 967.23 230.59 964.72 229.53 962.3C228.64 960.25 227.79 958.32 227.79 956.36C227.79 952.29 230.29 942.69 232.09 938.77C233.67 935.33 232.04 926.22 230.96 920.2L230.8 919.32C230.32 916.62 229.11 909.36 227.72 900.95C225.81 889.41 223.64 876.34 222.82 871.96C222.59 870.75 222.2 868.86 221.71 866.46C219.1 853.84 213.68 827.58 213.68 810.88C213.68 798.35 216.57 780.84 218.89 766.76C220.2 758.85 221.32 752.01 221.46 748.66C221.61 745.09 221.39 739.72 221.15 734.03C220.78 725.03 220.39 715.73 221.35 711.34C221.64 710.03 222.01 708.71 222.41 707.32C224.15 701.21 226.12 694.28 221.67 683.86C217.64 674.41 210.87 656.1 210.87 639.55C210.87 625.46 208.35 596.14 208.32 595.85C208.29 595.46 205.42 557.8 210.13 537.96C213.25 524.79 214.07 516.76 215.02 507.46C215.51 502.68 216.02 497.73 216.87 491.59C218.41 480.57 220.36 473.3 222.24 466.26C223.49 461.58 224.67 457.16 225.69 451.84C228.03 439.54 230.66 433.46 231.16 432.36C231.45 428.99 234.8 390.35 236.7 385.53C237.88 382.55 235.42 375.79 233.04 369.25C231.87 366.04 230.67 362.73 229.78 359.62C228.3 354.43 226.46 351.52 224.51 348.44C222.78 345.7 220.99 342.87 219.21 338.26C218.22 335.69 217.42 332.76 216.79 330.06C215.01 345.71 207.24 358.58 201.81 367.58C199.91 370.73 198.26 373.46 197.2 375.73C195.42 379.52 195.54 383.21 195.67 387.49C195.82 392.51 196 398.2 192.86 404.96C187.3 416.96 163.47 464.63 163.23 465.12C163.04 465.45 147.29 492.71 146.95 507.39C146.6 522.47 139.89 544.69 139.82 544.91L139.77 545.04C139.74 545.1 136.9 551.29 136.73 559.87C136.55 568.79 136.32 581.89 136.32 581.89C136.32 582 136.36 585.45 134.26 587.6C133.19 588.69 131.78 589.25 130.07 589.25C128.61 589.25 127.4 588.73 126.48 587.7C124.09 585.02 124.68 579.74 124.7 579.52L124.98 562.31C124.02 564.22 122.96 566.8 122.54 569.52C121.66 575.29 119.14 585.61 117.78 589.7C117.57 590.33 117.37 591 117.17 591.7C116.07 595.43 114.7 600.07 110.7 600.07C108.9 600.07 107.6 599.57 106.7 598.53C105.27 596.87 104.98 593.96 105.75 588.83C106.16 586.1 106.91 582.38 107.7 578.44C108.48 574.54 109.32 570.35 109.91 566.74L104.6 579.33L98.1399 594.29C97.1699 596.32 94.0999 599.59 89.3399 597.7C88.2099 597.25 87.4099 596.43 86.9599 595.26C85.3999 591.16 88.8399 583.96 89.3699 582.88L96.0199 563.68L85.7499 578.02L81.1999 583.99C81.0199 584.13 76.6499 587.28 73.5599 584.48C70.8499 582.02 71.6699 576.98 75.9299 569.92C79.2499 564.42 87.1899 551.01 88.0499 549.55C88.3399 548.37 90.1399 540.89 90.6299 539.26C91.4499 536.47 91.1999 535.9 91.0999 535.79C91.0999 535.79 91.0499 535.78 90.9599 535.78C89.4999 535.78 87.8299 538.34 85.9499 541.44C83.6299 545.27 76.2299 550.64 75.9199 550.86C75.7799 550.96 72.9799 552.81 70.2299 552.14C68.8199 551.8 67.6999 550.88 66.8999 549.42C64.6399 545.3 68.0299 541.29 70.2299 539.67C71.2199 538.43 80.5099 526.78 83.9899 522.24C87.8799 517.15 97.9799 509.97 103.63 508.27C108.9 506.69 111.92 504 112.58 500.28C113.32 496.09 118.84 472.85 119.08 471.86C119.19 471.51 127.98 445.05 128.98 437.32C129.26 435.17 129.51 431.61 129.8 427.5C130.6 416.2 131.7 400.73 134.64 392.11C138.64 380.38 149.54 361.42 154.77 355.83C159.24 351.05 164.12 344.82 165.4 331.23C165.4 330.1 165.57 301.33 178.4 282.89C178.07 279.84 176.29 259.65 183.69 238.57C192.08 214.66 203.42 207.98 213.42 204.59C217.98 203.05 222.22 200.28 226.71 197.35C232.46 193.6 238.4 189.72 245.76 187.88C258.07 184.8 274.66 172.75 276.9 162.36V155.74C276.9 154.06 275.94 151.11 275.09 148.51C274.23 145.87 273.49 143.59 273.58 142.31C273.7 140.72 273.01 136.39 272.62 134.16C270.49 133.78 264.6 132.23 263.89 126.59C263.1 120.37 262.69 117.73 261.79 114.38C260.89 111.04 260.59 103.8 263.95 102.24C265.7 101.42 267.5 101.82 268.74 102.33V83.83C268.72 83.29 268.4 69.73 278.31 59.5C285.3 52.28 295.56 48.62 308.8 48.62V50.62C296.13 50.62 286.36 54.07 279.76 60.87C270.44 70.48 270.73 83.67 270.73 83.8V105.97L269.14 104.81C269.14 104.81 266.77 103.13 264.79 104.06C263.09 104.85 262.75 110.26 263.72 113.87C264.65 117.33 265.07 120.02 265.87 126.34C266.53 131.53 273.5 132.27 273.57 132.28L274.32 132.35L274.46 133.09C274.51 133.37 275.76 140.05 275.58 142.46C275.51 143.35 276.3 145.76 276.99 147.89C277.93 150.77 278.9 153.75 278.9 155.74L278.88 162.67C276.55 173.95 259.42 186.53 246.25 189.82C239.22 191.58 233.42 195.36 227.81 199.02C223.22 202.02 218.87 204.85 214.07 206.48C204.53 209.71 193.69 216.13 185.59 239.23C177.77 261.53 180.42 282.81 180.45 283.02L180.5 283.41L180.27 283.73C167.59 301.64 167.41 331.03 167.41 331.32C166.07 345.63 160.94 352.17 156.25 357.19C151.26 362.53 140.4 381.44 136.55 392.74C133.7 401.12 132.61 416.44 131.81 427.63C131.52 431.78 131.26 435.35 130.98 437.57C129.96 445.49 121.39 471.3 121.02 472.4C120.99 472.56 115.31 496.48 114.57 500.62C113.77 505.15 110.29 508.36 104.23 510.18C98.9799 511.75 89.2399 518.7 85.6099 523.45C81.9499 528.24 71.8399 540.89 71.7399 541.02L71.5399 541.21C71.3399 541.35 66.6699 544.77 68.6899 548.46C69.2199 549.42 69.8899 549.99 70.7399 550.19C72.6099 550.64 74.7899 549.22 74.8099 549.21C74.8599 549.18 82.1599 543.87 84.2799 540.39C86.7099 536.39 88.4799 533.77 90.9999 533.77C91.9399 533.77 92.4699 534.22 92.7499 534.59C93.6699 535.82 93.1499 537.93 92.5899 539.82C92.0899 541.51 90.0299 550.07 90.0099 550.16L89.8999 550.43C89.8099 550.58 81.1999 565.14 77.6899 570.94C74.0899 576.91 73.0899 581.3 74.9499 582.99C76.6299 584.52 79.3699 582.84 79.9499 582.45L84.1799 576.83L102.47 551.28L91.2199 583.7C90.1999 585.75 87.7699 591.68 88.8599 594.53C89.1099 595.17 89.4999 595.58 90.1099 595.82C94.3499 597.51 96.2799 593.61 96.3599 593.44L102.8 578.52L112.74 554.97L112.69 560.04C112.65 564.13 111.09 571.93 109.71 578.82C108.92 582.73 108.18 586.43 107.78 589.11C107.13 593.43 107.29 596.08 108.27 597.21C108.58 597.57 109.18 598.06 110.75 598.06C113.08 598.06 114.11 595.19 115.31 591.13C115.52 590.41 115.73 589.71 115.94 589.06C117.27 585.08 119.78 574.74 120.62 569.21C121.53 563.26 125.13 558.13 125.28 557.92L127.15 555.28L126.74 579.65C126.59 581.03 126.53 584.71 128.02 586.37C128.55 586.96 129.23 587.25 130.11 587.25C131.27 587.25 132.17 586.91 132.87 586.21C134.39 584.67 134.37 581.92 134.37 581.89C134.37 581.86 134.61 568.75 134.78 559.83C134.95 551.2 137.63 545.02 137.97 544.26C138.37 542.94 144.65 521.74 144.99 507.34C145.35 492.14 160.85 465.3 161.51 464.17C161.72 463.75 185.54 416.1 191.08 404.13C194.01 397.8 193.85 392.59 193.7 387.56C193.57 383.22 193.44 379.11 195.42 374.89C196.53 372.52 198.2 369.76 200.13 366.56C206.85 355.43 216.04 340.19 215.13 320.98L217.12 320.8C217.13 320.9 218.48 330.72 221.1 337.55C222.8 341.98 224.54 344.72 226.22 347.38C228.25 350.59 230.16 353.62 231.72 359.08C232.59 362.13 233.78 365.41 234.94 368.58C237.68 376.1 240.04 382.59 238.58 386.27C237.11 390 234.39 418.28 233.16 432.71L233.14 432.89L233.06 433.06C233.03 433.12 230.17 439.14 227.68 452.22C226.65 457.61 225.46 462.07 224.2 466.78C222.33 473.76 220.4 480.97 218.88 491.87C218.03 497.98 217.52 502.91 217.04 507.67C216.08 517.04 215.25 525.14 212.1 538.43C207.47 557.96 210.31 595.32 210.34 595.7C210.36 595.99 212.9 625.39 212.9 639.57C212.9 655.76 219.57 673.79 223.54 683.09C228.27 694.17 226.11 701.77 224.37 707.88C223.98 709.24 223.62 710.53 223.34 711.78C222.44 715.92 222.83 725.5 223.18 733.96C223.42 739.69 223.64 745.1 223.49 748.76C223.35 752.23 222.26 758.79 220.89 767.1C218.58 781.1 215.7 798.52 215.7 810.89C215.7 827.38 221.1 853.51 223.69 866.06C224.19 868.48 224.58 870.38 224.81 871.6C225.63 875.99 227.8 889.08 229.71 900.63C231.1 909.03 232.31 916.28 232.79 918.97L232.95 919.84C234.14 926.49 235.77 935.59 233.93 939.6C232.23 943.31 229.81 952.6 229.81 956.35C229.81 957.89 230.54 959.56 231.38 961.49C232.47 963.98 233.7 966.8 233.7 970.2C233.7 976.2 228.92 981.79 221.05 990.28C213.91 997.98 213.91 1004.23 213.91 1008.37C213.91 1012.15 219.84 1014.43 219.9 1014.45L220.24 1014.58L220.42 1014.9C221.75 1017.32 225.41 1016.52 225.45 1016.51L226.03 1016.38L226.43 1016.82C229.02 1019.73 233.65 1017.68 233.69 1017.66L234.79 1017.16L235.08 1018.33C235.11 1018.44 235.88 1021.21 239.41 1021.21C242.94 1021.21 243.58 1016.5 243.59 1016.46L244.64 1008.78L245.58 1016.47C245.61 1016.73 246.49 1022.93 253.4 1022.93C259.57 1022.93 262.74 1018.33 265.55 1014.27C266.07 1013.51 266.58 1012.79 267.07 1012.13C269.95 1008.31 270.57 1001.95 268.35 999.04C265.85 995.77 264.35 992.97 267.76 986.72C269.69 983.18 269.44 980.89 269.06 977.42C268.87 975.72 268.66 973.8 268.66 971.37C268.66 967.72 269.41 966.52 270.13 965.36C270.91 964.11 271.72 962.81 271.72 957.24C271.72 950.44 271.08 949.15 269.35 945.7C268.43 943.85 267.17 941.32 265.57 937.09C261.81 927.14 263.08 918.61 265.37 903.12C265.94 899.28 266.58 894.93 267.22 890.06C269.2 874.93 272.52 865.47 275.19 857.87C276.77 853.37 278.02 849.82 278.55 846.29C279.95 836.97 279.63 817.38 278.78 807.44C277.96 797.92 276.69 793.78 274.14 788.11C272.21 783.82 272.42 778.46 272.64 772.79C272.72 770.63 272.81 768.4 272.77 766.21C272.67 760.01 275.47 752.99 277.94 746.8C278.71 744.88 279.43 743.07 280.04 741.35C282.54 734.34 282.73 731.89 282.73 731.86C282.6 727.82 282.06 707.09 284.18 703.97C286 701.3 288.03 688.69 288.03 675.81C288.03 668.28 291.79 651.98 295.43 636.22C297.97 625.2 300.38 614.79 301.32 608.14C302.69 598.47 303.29 582.71 303.09 561.3C303.09 560.55 303.08 560.02 303.08 559.73C303.08 558.37 303.97 551.88 305.71 540.44C305.95 538.85 307.25 537.73 308.86 537.73C310.47 537.73 311.77 538.84 312.01 540.44C313.76 551.89 314.64 558.38 314.64 559.73C314.64 560.02 314.64 560.56 314.63 561.3C314.43 582.71 315.03 598.47 316.4 608.14C317.34 614.79 319.74 625.2 322.29 636.22C325.93 651.98 329.69 668.28 329.69 675.81C329.69 688.69 331.72 701.3 333.54 703.97C335.66 707.08 335.12 727.82 334.99 731.95C334.99 731.95 335.21 734.43 337.68 741.35C338.29 743.06 339.01 744.88 339.78 746.8C342.25 753 345.05 760.02 344.95 766.22C344.91 768.42 345 770.65 345.08 772.81C345.3 778.48 345.51 783.84 343.58 788.13C341.03 793.8 339.76 797.94 338.94 807.46C338.09 817.4 337.76 836.99 339.17 846.31C339.7 849.83 340.95 853.39 342.53 857.88C345.2 865.48 348.52 874.94 350.5 890.07C351.14 894.94 351.78 899.29 352.35 903.13C354.64 918.63 355.9 927.16 352.15 937.11C350.55 941.35 349.29 943.88 348.37 945.72C346.65 949.17 346 950.47 346 957.26C346 962.83 346.81 964.13 347.59 965.38C348.31 966.54 349.06 967.74 349.06 971.39C349.06 973.81 348.85 975.74 348.66 977.44C348.28 980.91 348.03 983.2 349.96 986.74C353.37 992.99 351.86 995.79 349.37 999.06C347.15 1001.97 347.77 1008.33 350.65 1012.15C351.15 1012.81 351.65 1013.53 352.17 1014.29C354.97 1018.35 358.15 1022.95 364.32 1022.95C371.23 1022.95 372.1 1016.75 372.14 1016.49L373.1 1009L374.12 1016.48C374.15 1016.67 374.83 1021.23 378.3 1021.23C381.77 1021.23 382.6 1018.46 382.63 1018.35L382.93 1017.2L384.01 1017.69C384.01 1017.69 388.68 1019.76 391.27 1016.85L391.67 1016.41L392.25 1016.54C392.25 1016.54 395.94 1017.34 397.28 1014.93L397.46 1014.61L397.81 1014.48C397.87 1014.46 403.8 1012.18 403.8 1008.4C403.8 1004.26 403.8 998.02 396.66 990.31C388.79 981.82 384.01 976.23 384.01 970.23C384.01 966.83 385.24 964.01 386.33 961.52C387.17 959.59 387.9 957.92 387.9 956.38C387.9 952.63 385.48 943.34 383.78 939.63C381.94 935.62 383.57 926.52 384.76 919.87L384.92 919C385.4 916.31 386.6 909.06 388 900.66C389.92 889.11 392.09 876.02 392.91 871.63C393.14 870.41 393.53 868.51 394.03 866.09C396.62 853.53 402.02 827.41 402.02 810.92C402.02 798.55 399.14 781.13 396.83 767.13C395.46 758.82 394.38 752.26 394.23 748.79C394.08 745.14 394.3 739.73 394.54 734C394.89 725.54 395.29 715.95 394.38 711.82C394.11 710.57 393.74 709.28 393.35 707.92C391.61 701.81 389.45 694.2 394.18 683.13C398.15 673.82 404.82 655.8 404.82 639.61C404.82 625.43 407.35 596.03 407.38 595.74C407.41 595.37 410.25 558.01 405.62 538.48C402.47 525.19 401.64 517.1 400.68 507.73C400.19 502.96 399.69 498.04 398.83 491.93C397.31 481.03 395.38 473.82 393.51 466.84C392.25 462.12 391.06 457.67 390.03 452.28C387.54 439.2 384.67 433.18 384.65 433.12L384.57 432.95L384.55 432.77C383.32 418.34 380.6 390.06 379.13 386.33C377.68 382.65 380.04 376.15 382.77 368.64C383.92 365.47 385.12 362.19 385.99 359.14C387.55 353.68 389.47 350.65 391.49 347.44C393.17 344.78 394.91 342.03 396.61 337.61C399.24 330.78 400.58 320.96 400.6 320.86L402.59 321.04C401.68 340.25 410.88 355.49 417.59 366.62C419.52 369.82 421.19 372.59 422.3 374.95C424.28 379.17 424.15 383.28 424.02 387.62C423.87 392.65 423.71 397.86 426.64 404.19C430.92 413.43 446.16 444.08 452.52 456.83C454.56 460.93 456.74 464.97 459 468.85C464.26 477.89 473.12 494.76 473.39 506.14C473.73 520.74 480.1 542.22 480.51 543.55C480.85 544.31 483.57 550.57 483.74 559.32C483.92 568.35 484.16 581.63 484.16 581.63C484.16 581.69 484.14 584.48 485.68 586.05C486.38 586.76 487.3 587.11 488.48 587.11C489.37 587.11 490.07 586.82 490.61 586.21C492.12 584.52 492.07 580.78 491.92 579.49L491.5 554.75L493.37 557.39C493.53 557.61 497.17 562.8 498.09 568.82C498.95 574.42 501.49 584.89 502.84 588.93C503.06 589.59 503.27 590.29 503.48 591.02C504.69 595.14 505.74 598.06 508.11 598.06C509.71 598.06 510.32 597.57 510.63 597.2C511.63 596.04 511.79 593.42 511.12 588.98C510.71 586.26 509.96 582.52 509.17 578.55C507.77 571.58 506.19 563.68 506.15 559.53L506.1 554.46L516.14 578.27L522.68 593.42C522.87 593.8 524.81 597.46 529.01 595.8C529.63 595.56 530.03 595.14 530.28 594.48C531.38 591.59 528.93 585.57 527.89 583.5L527.84 583.38L516.53 550.74L535.02 576.57L539.29 582.24C539.87 582.63 542.67 584.34 544.38 582.79C546.27 581.08 545.26 576.62 541.6 570.57C538.05 564.69 529.32 549.93 529.23 549.79L529.12 549.52C529.1 549.43 527.01 540.75 526.5 539.04C525.94 537.13 525.41 535 526.34 533.76C526.62 533.38 527.15 532.94 528.1 532.94C530.64 532.94 532.44 535.59 534.9 539.64C537.04 543.17 544.44 548.55 544.52 548.6C544.52 548.6 546.73 550.04 548.64 549.58C549.5 549.37 550.18 548.79 550.72 547.82C552.77 544.07 548.03 540.61 547.82 540.46L547.62 540.27C547.52 540.14 537.28 527.32 533.57 522.47C529.89 517.66 520.01 510.62 514.7 509.02C508.57 507.18 505.05 503.93 504.23 499.34C503.44 494.9 496.76 472.68 496.7 472.46C496.34 471.39 487.77 445.58 486.75 437.66C486.46 435.45 486.21 431.87 485.92 427.72C485.13 416.53 484.04 401.21 481.18 392.83C477.33 381.52 466.47 362.61 461.48 357.28C456.78 352.26 451.66 345.72 450.32 331.5C450.32 331.11 450.14 301.72 437.46 283.81L437.23 283.49L437.28 283.1C437.31 282.89 439.96 261.61 432.14 239.31C424.04 216.21 413.19 209.8 403.66 206.56C398.86 204.93 394.52 202.1 389.92 199.1C384.31 195.44 378.51 191.66 371.48 189.9C358.3 186.61 341.18 174.03 338.85 162.75L338.83 162.55V155.83C338.83 153.83 339.8 150.86 340.74 147.98C341.43 145.85 342.22 143.44 342.15 142.55C341.97 140.15 343.22 133.47 343.27 133.18L343.41 132.44L344.16 132.36C344.23 132.36 351.21 131.59 351.86 126.42C352.66 120.1 353.08 117.41 354.01 113.95C354.99 110.3 354.68 104.95 352.94 104.14C350.98 103.22 348.61 104.88 348.59 104.89L347 106.05V83.92C347 83.76 347.3 70.57 337.97 60.96C331.37 54.16 321.6 50.71 308.93 50.71V48.71C322.17 48.71 332.43 52.37 339.42 59.59C349.33 69.83 349.01 83.38 348.99 83.96V102.43C350.23 101.92 352.03 101.52 353.77 102.34C357.13 103.91 356.83 111.14 355.93 114.48C355.03 117.83 354.62 120.47 353.83 126.69C353.12 132.33 347.23 133.88 345.1 134.26C344.7 136.49 344.02 140.82 344.14 142.41C344.23 143.69 343.49 145.97 342.63 148.61C341.78 151.21 340.82 154.17 340.82 155.84V162.46C343.06 172.85 359.64 184.9 371.96 187.98C379.32 189.82 385.26 193.7 391.01 197.45C395.5 200.38 399.73 203.14 404.3 204.69C414.3 208.08 425.64 214.76 434.03 238.67C441.43 259.75 439.64 279.95 439.32 282.99C452.16 301.43 452.32 330.2 452.32 331.42C453.6 344.92 458.47 351.15 462.94 355.93C468.17 361.52 479.08 380.47 483.07 392.21C486.01 400.84 487.11 416.31 487.91 427.6C488.2 431.71 488.45 435.27 488.73 437.42C489.73 445.15 498.51 471.6 498.6 471.87C498.89 472.82 505.39 494.45 506.19 499.01C506.86 502.79 509.91 505.52 515.26 507.12C520.98 508.84 531.21 516.11 535.15 521.27C538.67 525.88 548.1 537.69 549.09 538.93C551.32 540.57 554.74 544.62 552.46 548.79C551.65 550.27 550.52 551.19 549.09 551.54C546.31 552.21 543.48 550.34 543.36 550.26C543.02 550.01 535.53 544.58 533.17 540.7C531.27 537.56 529.57 534.96 528.08 534.96C527.96 534.96 527.92 534.98 527.92 534.98C527.82 535.08 527.56 535.65 528.4 538.5C528.89 540.16 530.72 547.74 531.01 548.93C531.88 550.4 539.92 563.99 543.29 569.57C547.61 576.72 548.44 581.82 545.7 584.31C542.58 587.14 538.16 583.95 537.98 583.82L537.77 583.62L533.38 577.8L522.91 563.17L529.68 582.71C530.22 583.8 533.7 591.09 532.12 595.24C531.67 596.42 530.86 597.25 529.72 597.71C524.9 599.62 521.8 596.32 520.83 594.3L514.27 579.11L508.84 566.25C509.43 569.93 510.29 574.22 511.09 578.21C511.89 582.2 512.65 585.97 513.06 588.74C513.84 593.94 513.55 596.88 512.1 598.56C511.2 599.61 509.88 600.12 508.06 600.12C504.01 600.12 502.62 595.42 501.51 591.65C501.3 590.95 501.1 590.26 500.89 589.63C499.51 585.48 496.96 575.02 496.06 569.19C495.64 566.41 494.55 563.78 493.57 561.83L493.86 579.43C493.88 579.56 494.47 584.9 492.06 587.61C491.13 588.65 489.91 589.18 488.44 589.18C486.71 589.18 485.29 588.62 484.2 587.51C482.07 585.34 482.11 581.85 482.11 581.7C482.11 581.7 481.87 568.44 481.69 559.43C481.52 550.74 478.64 544.46 478.61 544.4L478.56 544.27C478.49 544.04 471.7 521.53 471.34 506.26C471.08 494.93 461.38 477.08 457.22 469.93C454.95 466.02 452.75 461.94 450.68 457.8C442.78 441.96 428.91 414.04 424.77 405.11C421.64 398.35 421.81 392.66 421.97 387.64C422.1 383.36 422.21 379.67 420.44 375.88C419.37 373.61 417.73 370.88 415.83 367.73C410.4 358.73 402.63 345.86 400.85 330.21C400.22 332.91 399.42 335.84 398.43 338.41C396.66 343.02 394.86 345.85 393.13 348.59C391.18 351.67 389.34 354.58 387.86 359.77C386.97 362.89 385.76 366.2 384.6 369.4C382.22 375.94 379.76 382.7 380.94 385.68C382.84 390.5 386.19 429.14 386.48 432.51C386.98 433.61 389.61 439.69 391.95 451.99C392.96 457.31 394.15 461.73 395.4 466.41C397.28 473.44 399.23 480.72 400.77 491.74C401.63 497.89 402.14 502.84 402.63 507.62C403.58 516.92 404.4 524.95 407.52 538.12C412.23 557.96 409.36 595.62 409.33 596C409.3 596.3 406.78 625.62 406.78 639.71C406.78 656.25 400.01 674.57 395.98 684.02C391.53 694.44 393.5 701.37 395.24 707.48C395.64 708.87 396.01 710.19 396.3 711.5C397.26 715.89 396.87 725.19 396.5 734.19C396.27 739.88 396.04 745.25 396.19 748.82C396.33 752.17 397.46 759 398.76 766.92C401.08 780.99 403.97 798.5 403.97 811.04C403.97 827.73 398.55 854 395.94 866.62C395.44 869.02 395.05 870.91 394.83 872.12C394.01 876.49 391.84 889.57 389.93 901.11C388.54 909.51 387.33 916.77 386.85 919.47L386.69 920.35C385.61 926.38 383.98 935.49 385.56 938.92C387.36 942.84 389.86 952.43 389.86 956.51C389.86 958.47 389.01 960.41 388.12 962.45C387.06 964.87 385.97 967.37 385.97 970.36C385.97 975.63 390.55 980.95 398.09 989.08C405.76 997.36 405.76 1004.08 405.76 1008.53C405.76 1012.98 400.25 1015.74 398.81 1016.35C397.07 1019.06 393.7 1018.91 392.35 1018.73C389.63 1021.32 385.9 1020.58 384.14 1020.02C383.36 1021.54 381.56 1023.38 378.27 1023.38C375.66 1023.38 374.02 1021.72 373.09 1019.93C371.91 1022.27 369.43 1025.11 364.29 1025.11L364.25 1024.97Z" fill="#998475"/>
<path d="M364.25 1024.97C357.03 1024.97 353.39 1019.69 350.46 1015.46C349.95 1014.73 349.47 1014.02 348.99 1013.39C345.57 1008.87 344.97 1001.48 347.71 997.89C349.93 994.97 351.05 993.07 348.14 987.74C345.91 983.64 346.22 980.83 346.61 977.26C346.79 975.61 347 973.74 347 971.43C347 968.36 346.49 967.53 345.83 966.49C344.94 965.07 343.94 963.45 343.94 957.3C343.94 950.04 344.69 948.52 346.51 944.87C347.41 943.06 348.65 940.58 350.21 936.44C353.79 926.98 352.55 918.63 350.31 903.47C349.74 899.62 349.1 895.27 348.46 890.38C346.51 875.45 343.22 866.1 340.59 858.58C339.04 854.17 337.71 850.36 337.15 846.66C335.73 837.21 336.05 817.39 336.91 807.33C337.74 797.58 339.12 793.12 341.71 787.35C343.44 783.49 343.25 778.36 343.04 772.93C342.96 770.74 342.87 768.48 342.91 766.23C343 760.43 340.27 753.6 337.87 747.57C337.1 745.64 336.37 743.81 335.75 742.07C333.12 734.68 332.96 732.12 332.95 732.02C333.24 722.63 333.19 707.14 331.84 705.15C329.57 701.81 327.65 688.4 327.65 675.87C327.65 668.56 323.91 652.37 320.3 636.71C317.75 625.65 315.34 615.21 314.38 608.48C313 598.7 312.4 582.84 312.6 561.33C312.6 560.59 312.61 560.06 312.61 559.78C312.61 558.93 312.16 554.94 309.99 540.79C309.88 540.04 309.32 539.78 308.82 539.78C308.33 539.78 307.76 540.05 307.64 540.79C305.48 554.94 305.02 558.92 305.02 559.78C305.02 560.07 305.02 560.6 305.03 561.35C305.23 582.85 304.63 598.71 303.25 608.48C302.29 615.21 299.88 625.66 297.33 636.71C293.72 652.37 289.98 668.56 289.98 675.87C289.98 688.4 288.06 701.81 285.79 705.15C284.44 707.14 284.39 722.64 284.68 731.94C284.68 732.13 284.52 734.68 281.88 742.08C281.26 743.82 280.53 745.64 279.76 747.57C277.35 753.6 274.63 760.43 274.73 766.24C274.76 768.48 274.68 770.73 274.59 772.91C274.38 778.35 274.18 783.49 275.91 787.36C278.51 793.12 279.89 797.58 280.72 807.34C281.58 817.38 281.9 837.19 280.47 846.67C279.91 850.37 278.57 854.18 277.03 858.59C274.39 866.1 271.11 875.46 269.16 890.39C268.52 895.28 267.88 899.64 267.31 903.49C265.07 918.65 263.83 927 267.41 936.46C268.97 940.6 270.21 943.07 271.11 944.88C272.93 948.54 273.69 950.05 273.69 957.32C273.69 963.47 272.68 965.08 271.8 966.51C271.15 967.56 270.63 968.38 270.63 971.45C270.63 973.77 270.84 975.64 271.02 977.28C271.41 980.84 271.72 983.66 269.49 987.75C266.58 993.08 267.69 994.99 269.92 997.91C272.67 1001.5 272.06 1008.89 268.64 1013.41C268.16 1014.05 267.67 1014.75 267.17 1015.48C264.24 1019.72 260.59 1024.99 253.38 1024.99C248.25 1024.99 245.76 1022.15 244.59 1019.81C243.66 1021.6 242.02 1023.27 239.41 1023.27C236.12 1023.27 234.32 1021.43 233.54 1019.91C231.78 1020.47 228.05 1021.21 225.33 1018.62C223.98 1018.8 220.61 1018.95 218.87 1016.24C217.43 1015.63 211.93 1013 211.93 1008.42C211.93 1003.84 211.93 997.25 219.6 988.97C227.14 980.84 231.71 975.53 231.71 970.25C231.71 967.26 230.62 964.76 229.56 962.34C228.67 960.29 227.82 958.36 227.82 956.4C227.82 952.31 230.32 942.72 232.12 938.81C233.7 935.37 232.07 926.23 230.98 920.18L230.83 919.36C230.34 916.64 229.13 909.3 227.72 900.8C225.82 889.34 223.66 876.35 222.85 872C222.62 870.78 222.23 868.87 221.73 866.44C219.13 853.83 213.71 827.6 213.71 810.93C213.71 798.4 216.6 780.9 218.92 766.83C220.23 758.91 221.36 752.07 221.5 748.72C221.65 745.15 221.43 739.79 221.19 734.11C220.82 725.1 220.43 715.79 221.39 711.4C221.68 710.09 222.05 708.77 222.45 707.37C224.19 701.26 226.16 694.34 221.71 683.92C217.67 674.47 210.9 656.15 210.9 639.61C210.9 625.52 208.38 596.2 208.35 595.91C208.32 595.52 205.46 557.86 210.16 538.02C213.28 524.85 214.1 516.82 215.05 507.51C215.54 502.73 216.04 497.79 216.9 491.64C218.44 480.63 220.39 473.37 222.27 466.34C223.52 461.65 224.71 457.22 225.72 451.89C228.07 439.59 230.69 433.51 231.19 432.41C231.48 429.05 234.83 390.39 236.73 385.58C237.91 382.6 235.45 375.84 233.07 369.3C231.9 366.1 230.7 362.79 229.81 359.67C228.33 354.49 226.49 351.58 224.54 348.49C222.81 345.75 221.01 342.91 219.24 338.3C218.25 335.73 217.45 332.81 216.82 330.11C215.04 345.76 207.27 358.63 201.84 367.63C199.94 370.78 198.29 373.51 197.23 375.78C195.45 379.57 195.57 383.26 195.7 387.53C195.85 392.55 196.03 398.24 192.89 405C187.33 417.01 163.5 464.68 163.26 465.16C163.07 465.49 147.32 492.75 146.97 507.43C146.62 522.51 139.91 544.73 139.85 544.96L139.8 545.09C139.77 545.15 136.94 551.34 136.76 559.92C136.58 568.83 136.35 581.94 136.35 581.94C136.35 582.05 136.39 585.51 134.29 587.65C133.22 588.75 131.8 589.3 130.09 589.3C128.63 589.3 127.42 588.78 126.51 587.75C124.12 585.07 124.7 579.79 124.73 579.57L125.02 562.36C124.06 564.27 123 566.85 122.58 569.56C121.71 575.3 119.19 585.63 117.82 589.74C117.61 590.36 117.41 591.04 117.21 591.73C116.11 595.46 114.74 600.1 110.73 600.1C108.93 600.1 107.62 599.6 106.73 598.56C105.3 596.9 105.01 594 105.78 588.86C106.19 586.12 106.94 582.39 107.73 578.44C108.51 574.55 109.35 570.37 109.93 566.78L104.62 579.36L98.1698 594.33C97.1898 596.36 94.1198 599.63 89.3598 597.73C88.2298 597.28 87.4298 596.46 86.9798 595.28C85.4198 591.18 88.8598 583.99 89.3898 582.91L96.0398 563.71L85.7798 578.05L81.2298 584.02C81.0498 584.15 76.6798 587.3 73.5898 584.5C70.8698 582.04 71.6998 577.01 75.9698 569.94C79.2898 564.43 87.2198 551.03 88.0898 549.57C88.3798 548.39 90.1898 540.91 90.6698 539.28C91.4898 536.49 91.2398 535.92 91.1398 535.82C91.1398 535.82 91.0898 535.81 90.9998 535.81C89.5398 535.81 87.9298 538.26 85.9798 541.47C83.6598 545.3 76.2698 550.66 75.9498 550.89C75.7998 550.99 72.9998 552.85 70.2598 552.17C68.8498 551.83 67.7298 550.92 66.9398 549.46C64.6798 545.34 68.0598 541.33 70.2598 539.7C71.2398 538.47 80.5498 526.82 84.0198 522.27C87.9198 517.17 98.0098 509.99 103.66 508.3C108.93 506.72 111.94 504.03 112.6 500.3C113.35 496.11 118.86 472.87 119.09 471.88C119.2 471.53 128 445.08 128.99 437.34C129.27 435.19 129.52 431.64 129.81 427.54C130.61 416.24 131.71 400.76 134.65 392.13C138.65 380.4 149.55 361.44 154.78 355.86C159.25 351.08 164.13 344.85 165.42 331.26C165.42 330.13 165.58 301.36 178.42 282.92C178.09 279.87 176.31 259.68 183.7 238.59C192.09 214.67 203.44 207.99 213.43 204.61C217.49 203.23 221.26 200.9 224.77 198.64L226.6 197.45C230.94 194.61 235.43 191.68 240.57 189.61C240.82 189.51 241.08 189.4 241.35 189.31C241.44 189.27 241.61 189.2 241.78 189.14L241.99 189.06C243.35 188.58 244.58 188.2 245.77 187.91C258.08 184.83 274.67 172.78 276.9 162.4V155.77C276.9 154.09 275.94 151.14 275.1 148.54C274.24 145.9 273.5 143.62 273.6 142.34C273.72 140.75 273.03 136.42 272.63 134.19C270.5 133.81 264.61 132.27 263.89 126.63C263.13 120.55 262.7 117.79 261.8 114.41C260.9 111.07 260.59 103.85 263.95 102.28C265.7 101.46 267.5 101.86 268.73 102.37V83.87C268.71 83.33 268.39 69.77 278.31 59.53C285.3 52.31 295.56 48.65 308.8 48.65V50.65C296.13 50.65 286.36 54.1 279.76 60.9C270.43 70.52 270.72 83.7 270.73 83.84V106.01L269.14 104.84C269.12 104.82 266.78 103.16 264.8 104.09C263.1 104.88 262.76 110.29 263.73 113.89C264.66 117.38 265.1 120.2 265.88 126.38C266.54 131.54 273.51 132.3 273.59 132.31L274.33 132.38L274.47 133.12C274.52 133.4 275.77 140.08 275.59 142.49C275.52 143.38 276.31 145.8 277 147.93C277.93 150.81 278.9 153.78 278.9 155.78L278.88 162.71C276.55 173.98 259.43 186.56 246.25 189.86C245.12 190.14 243.96 190.49 242.69 190.94L242.48 191.02C242.34 191.07 242.2 191.12 242.06 191.19C241.76 191.3 241.54 191.39 241.32 191.48C236.34 193.48 231.94 196.36 227.68 199.14L225.85 200.33C222.38 202.57 218.33 205.07 214.06 206.52C204.52 209.75 193.68 216.16 185.57 239.26C177.75 261.56 180.4 282.85 180.43 283.06L180.48 283.45L180.25 283.77C167.56 301.68 167.39 331.07 167.39 331.36C166.04 345.67 160.92 352.21 156.22 357.23C151.23 362.56 140.38 381.47 136.53 392.78C133.67 401.17 132.58 416.5 131.79 427.69C131.5 431.83 131.24 435.4 130.96 437.61C129.94 445.53 121.36 471.34 121 472.44C120.97 472.6 115.29 496.52 114.56 500.66C113.75 505.19 110.28 508.41 104.22 510.22C98.9798 511.79 89.2298 518.73 85.5998 523.49C81.9398 528.28 71.8298 540.93 71.7298 541.06L71.5298 541.25C71.3298 541.39 66.6598 544.82 68.6798 548.51C69.1998 549.47 69.8698 550.03 70.7098 550.24C72.5998 550.7 74.7698 549.28 74.7898 549.26C74.8298 549.23 82.1398 543.93 84.2498 540.44C86.6798 536.44 88.4598 533.82 90.9798 533.82C91.9198 533.82 92.4498 534.26 92.7298 534.64C93.6498 535.86 93.1298 537.98 92.5698 539.86C92.0698 541.55 89.9998 550.12 89.9798 550.2L89.8698 550.47C89.7798 550.62 81.1698 565.18 77.6698 570.99C74.0598 576.96 73.0598 581.35 74.9198 583.03C76.5998 584.55 79.3398 582.88 79.9298 582.49L84.1598 576.87L102.44 551.33L91.1998 583.75C90.1798 585.79 87.7498 591.72 88.8398 594.58C89.0898 595.22 89.4798 595.64 90.0898 595.88C94.2198 597.53 96.1398 593.92 96.3398 593.5L102.77 578.58L112.71 555.03L112.66 560.1C112.62 564.18 111.06 571.97 109.68 578.85C108.89 582.78 108.15 586.48 107.75 589.17C107.1 593.49 107.26 596.14 108.24 597.27C108.55 597.63 109.15 598.12 110.72 598.12C113.05 598.12 114.08 595.24 115.28 591.18C115.49 590.47 115.7 589.77 115.91 589.12C117.24 585.12 119.75 574.77 120.59 569.27C121.51 563.32 125.1 558.2 125.25 557.98L127.12 555.34L126.7 579.72C126.55 581.1 126.49 584.78 127.98 586.44C128.51 587.03 129.19 587.32 130.07 587.32C131.24 587.32 132.14 586.98 132.83 586.28C134.35 584.74 134.33 581.99 134.33 581.96C134.33 581.93 134.56 568.81 134.74 559.9C134.91 551.27 137.59 545.09 137.93 544.34C138.33 543.02 144.61 521.82 144.95 507.41C145.31 492.22 160.82 465.38 161.48 464.24C161.69 463.82 185.51 416.17 191.06 404.19C193.99 397.85 193.84 392.65 193.68 387.62C193.55 383.28 193.42 379.18 195.4 374.96C196.51 372.59 198.18 369.83 200.11 366.63C206.83 355.5 216.02 340.26 215.11 321.05L217.1 320.87C217.11 320.97 218.46 330.8 221.08 337.62C222.78 342.05 224.52 344.8 226.2 347.46C228.23 350.67 230.14 353.69 231.7 359.15C232.57 362.19 233.76 365.47 234.92 368.64C237.66 376.16 240.02 382.66 238.56 386.34C237.09 390.07 234.37 418.35 233.14 432.79L233.12 432.97L233.04 433.14C233.01 433.2 230.15 439.22 227.65 452.29C226.62 457.69 225.43 462.15 224.17 466.88C222.31 473.85 220.38 481.06 218.85 491.94C218 498.05 217.49 502.97 217.01 507.74C216.05 517.12 215.23 525.21 212.07 538.5C207.44 558.03 210.28 595.39 210.3 595.76C210.32 596.05 212.85 625.45 212.85 639.63C212.85 655.82 219.52 673.85 223.5 683.16C228.22 694.23 226.06 701.83 224.32 707.94C223.93 709.3 223.57 710.59 223.29 711.84C222.39 715.98 222.78 725.57 223.13 734.04C223.37 739.76 223.59 745.17 223.44 748.82C223.3 752.29 222.21 758.86 220.84 767.18C218.53 781.17 215.65 798.59 215.65 810.95C215.65 827.41 221.04 853.51 223.63 866.05C224.13 868.5 224.53 870.42 224.76 871.65C225.57 876.02 227.73 889.02 229.63 900.49C231.04 908.98 232.26 916.32 232.74 919.03L232.89 919.85C234.09 926.52 235.72 935.65 233.88 939.67C232.18 943.37 229.76 952.66 229.76 956.42C229.76 957.96 230.49 959.63 231.33 961.56C232.42 964.05 233.65 966.87 233.65 970.27C233.65 976.28 228.87 981.86 221 990.35C213.87 998.05 213.87 1004.3 213.87 1008.44C213.87 1012.22 219.79 1014.5 219.85 1014.52L220.19 1014.65L220.37 1014.97C221.71 1017.39 225.36 1016.59 225.4 1016.59L225.98 1016.46L226.37 1016.9C228.96 1019.81 233.59 1017.76 233.64 1017.73L234.74 1017.23L235.03 1018.4C235.06 1018.51 235.82 1021.28 239.36 1021.28C242.9 1021.28 243.51 1016.72 243.54 1016.52L244.61 1008.99L245.53 1016.54C245.56 1016.8 246.44 1023 253.34 1023C259.51 1023 262.69 1018.4 265.49 1014.35C266.01 1013.59 266.52 1012.87 267.01 1012.21C269.89 1008.39 270.52 1002.04 268.29 999.13C265.79 995.85 264.29 993.05 267.7 986.8C269.63 983.26 269.38 980.97 269 977.5C268.81 975.8 268.6 973.87 268.6 971.45C268.6 967.81 269.35 966.61 270.07 965.45C270.85 964.2 271.66 962.9 271.66 957.32C271.66 950.52 271.02 949.23 269.29 945.77C268.37 943.92 267.11 941.39 265.51 937.16C261.75 927.21 263.01 918.68 265.3 903.19C265.87 899.35 266.51 895 267.15 890.13C269.13 874.99 272.45 865.53 275.12 857.93C276.7 853.44 277.94 849.89 278.47 846.37C279.88 837.04 279.55 817.45 278.7 807.51C277.88 797.97 276.61 793.84 274.05 788.18C272.12 783.89 272.33 778.52 272.55 772.84C272.63 770.69 272.72 768.46 272.69 766.28C272.59 760.08 275.39 753.04 277.87 746.84C278.63 744.93 279.35 743.12 279.96 741.42C282.46 734.41 282.64 731.95 282.64 731.93C282.51 727.89 281.98 707.15 284.09 704.04C285.91 701.37 287.94 688.76 287.94 675.88C287.94 668.34 291.7 652.04 295.34 636.28C297.88 625.27 300.28 614.86 301.23 608.21C302.6 598.54 303.19 582.79 302.99 561.38C302.99 560.63 302.98 560.08 302.98 559.79C302.98 559.29 302.98 557.77 305.62 540.5C305.86 538.9 307.16 537.79 308.77 537.79C310.38 537.79 311.67 538.91 311.91 540.5C314.55 557.76 314.55 559.29 314.55 559.79C314.55 560.08 314.55 560.62 314.54 561.36C314.34 582.77 314.94 598.53 316.3 608.21C317.24 614.86 319.64 625.26 322.19 636.28C325.83 652.05 329.59 668.35 329.59 675.88C329.59 688.76 331.62 701.37 333.44 704.04C335.56 707.15 335.02 727.89 334.89 732.01C334.89 732.01 335.11 734.49 337.57 741.42C338.18 743.13 338.9 744.94 339.67 746.85C342.14 753.05 344.95 760.08 344.85 766.28C344.81 768.48 344.9 770.71 344.98 772.87C345.2 778.54 345.4 783.9 343.48 788.19C340.93 793.86 339.66 798 338.84 807.52C337.99 817.48 337.66 837.07 339.06 846.38C339.59 849.9 340.84 853.45 342.41 857.94C345.08 865.54 348.4 875 350.38 890.14C351.02 895.02 351.66 899.36 352.23 903.2C354.52 918.69 355.78 927.23 352.03 937.17C350.43 941.41 349.17 943.94 348.25 945.79C346.53 949.24 345.89 950.54 345.89 957.33C345.89 962.91 346.7 964.2 347.48 965.46C348.2 966.62 348.95 967.82 348.95 971.46C348.95 973.89 348.74 975.81 348.55 977.51C348.17 980.98 347.92 983.27 349.85 986.81C353.26 993.05 351.76 995.86 349.26 999.14C347.04 1002.05 347.66 1008.4 350.54 1012.22C351.04 1012.88 351.54 1013.6 352.06 1014.36C354.86 1018.41 358.04 1023.01 364.21 1023.01C371.11 1023.01 371.99 1016.81 372.03 1016.55L373 1009.05L374.01 1016.54C374.04 1016.73 374.71 1021.29 378.19 1021.29C381.67 1021.29 382.48 1018.52 382.51 1018.4L382.81 1017.25L383.89 1017.74C383.89 1017.74 388.56 1019.81 391.16 1016.9L391.55 1016.46L392.13 1016.59C392.13 1016.59 395.82 1017.39 397.16 1014.97L397.34 1014.65L397.68 1014.52C397.74 1014.5 403.67 1012.21 403.67 1008.44C403.67 1004.31 403.67 998.06 396.53 990.35C388.66 981.86 383.88 976.28 383.88 970.27C383.88 966.87 385.11 964.05 386.2 961.56C387.04 959.63 387.77 957.97 387.77 956.42C387.77 952.65 385.35 943.36 383.65 939.67C381.8 935.66 383.44 926.53 384.63 919.87L384.78 919.04C385.27 916.32 386.55 908.59 387.9 900.42C389.8 888.99 391.95 876.03 392.76 871.67C392.99 870.44 393.39 868.51 393.89 866.07C396.48 853.53 401.87 827.43 401.87 810.97C401.87 798.61 398.99 781.19 396.68 767.2C395.31 758.88 394.22 752.32 394.08 748.84C393.93 745.19 394.15 739.79 394.39 734.06C394.74 725.6 395.14 716 394.23 711.86C393.96 710.61 393.59 709.32 393.2 707.96C391.46 701.85 389.3 694.25 394.02 683.18C398 673.87 404.67 655.84 404.67 639.65C404.67 625.47 407.2 596.07 407.22 595.77C407.25 595.4 410.09 558.04 405.45 538.52C402.3 525.23 401.47 517.13 400.51 507.76C400.02 503 399.52 498.07 398.67 491.96C397.14 481.07 395.22 473.87 393.35 466.89C392.09 462.17 390.89 457.7 389.87 452.3C387.38 439.23 384.51 433.21 384.48 433.15L384.4 432.98L384.38 432.79C383.15 418.35 380.43 390.07 378.96 386.34C377.51 382.66 379.87 376.18 382.59 368.68C383.75 365.5 384.94 362.21 385.81 359.15C387.37 353.69 389.29 350.66 391.31 347.46C392.99 344.8 394.73 342.05 396.43 337.62C399.06 330.79 400.4 320.96 400.41 320.87L402.4 321.05C401.49 340.26 410.69 355.51 417.4 366.63C419.33 369.83 421 372.6 422.11 374.96C424.09 379.18 423.96 383.28 423.83 387.62C423.68 392.65 423.52 397.86 426.45 404.19C430.89 413.78 447.03 446.19 452.33 456.84C454.41 460.99 456.59 465.03 458.81 468.85C464.07 477.9 472.94 494.78 473.21 506.14C473.54 520.74 479.92 542.23 480.32 543.56C480.67 544.32 483.38 550.58 483.55 559.32C483.73 568.35 483.97 581.63 483.97 581.63C483.97 581.69 483.95 584.48 485.49 586.05C486.2 586.76 487.11 587.11 488.3 587.11C489.19 587.11 489.89 586.82 490.42 586.21C491.93 584.52 491.87 580.79 491.72 579.49L491.3 554.74L493.17 557.38C493.33 557.6 496.97 562.79 497.89 568.82C498.75 574.45 501.3 584.92 502.64 588.94C502.86 589.59 503.06 590.3 503.28 591.02C504.25 594.32 505.36 598.07 507.91 598.07C509.51 598.07 510.12 597.58 510.43 597.21C511.43 596.05 511.59 593.44 510.92 588.99C510.51 586.25 509.76 582.48 508.96 578.49C507.5 571.2 505.99 563.67 505.95 559.54L505.9 554.48L515.95 578.29L522.49 593.43C522.68 593.81 524.62 597.48 528.81 595.81C529.43 595.56 529.83 595.15 530.08 594.49C531.18 591.6 528.72 585.59 527.68 583.52L527.63 583.4L516.32 550.77L534.81 576.58L539.08 582.26C539.67 582.65 542.45 584.36 544.16 582.8C546.06 581.09 545.04 576.64 541.39 570.59C537.84 564.7 529.11 549.95 529.02 549.8L528.91 549.53C528.89 549.44 526.8 540.77 526.29 539.05C525.72 537.15 525.2 535.02 526.13 533.77C526.41 533.39 526.95 532.94 527.89 532.94C530.44 532.94 532.23 535.59 534.69 539.64C536.83 543.18 544.23 548.54 544.31 548.6C544.31 548.6 546.51 550.05 548.42 549.57C549.29 549.36 549.96 548.78 550.5 547.81C552.56 544.07 547.81 540.6 547.6 540.45L547.4 540.26C547.3 540.13 537.07 527.32 533.36 522.45C529.68 517.64 519.8 510.6 514.49 509C508.35 507.16 504.83 503.91 504.02 499.32C503.23 494.88 496.55 472.66 496.49 472.44C496.13 471.37 487.56 445.56 486.54 437.64C486.26 435.43 486 431.86 485.71 427.73C484.91 416.54 483.82 401.21 480.97 392.82C477.11 381.49 466.26 362.59 461.28 357.27C456.58 352.25 451.46 345.7 450.12 331.49C450.12 331.1 449.93 301.71 437.25 283.8L437.02 283.48L437.07 283.09C437.1 282.88 439.75 261.6 431.93 239.29C423.83 216.19 412.99 209.77 403.45 206.55C402.79 206.33 402.12 206.08 401.47 205.81L400.75 205.5C400.51 205.39 400.28 205.28 400.04 205.17C396.54 203.55 393.23 201.39 389.73 199.11C388.43 198.26 387.11 197.4 385.77 196.56C385.6 196.45 385.46 196.36 385.31 196.27L385.13 196.16C384.93 196.03 384.74 195.92 384.55 195.8C379.53 192.74 375.46 190.93 371.27 189.89C358.09 186.59 340.97 174.01 338.64 162.74L338.62 162.54V155.81C338.62 153.81 339.59 150.84 340.53 147.96C341.22 145.83 342.01 143.42 341.95 142.52C341.77 140.12 343.01 133.44 343.06 133.15L343.2 132.41L343.95 132.33C344.02 132.33 351 131.56 351.66 126.4C352.44 120.21 352.88 117.4 353.82 113.92C354.78 110.31 354.44 104.91 352.74 104.12C350.78 103.19 348.42 104.85 348.39 104.87L346.8 106.03V83.89C346.8 83.73 347.09 70.54 337.77 60.92C331.17 54.12 321.4 50.67 308.73 50.67V48.67C321.97 48.67 332.23 52.33 339.22 59.55C349.14 69.79 348.82 83.35 348.8 83.92V102.39C350.04 101.88 351.84 101.48 353.59 102.3C356.94 103.86 356.64 111.09 355.75 114.43C354.84 117.8 354.41 120.56 353.65 126.65C352.93 132.28 347.05 133.83 344.91 134.21C344.52 136.44 343.83 140.77 343.95 142.36C344.04 143.65 343.3 145.92 342.44 148.56C341.59 151.16 340.63 154.11 340.63 155.79V162.42C342.86 172.8 359.45 184.85 371.76 187.93C377.39 189.34 382.08 191.93 385.53 194.04C385.79 194.19 386 194.32 386.2 194.45L386.36 194.55C386.53 194.65 386.7 194.76 386.86 194.87C388.19 195.7 389.51 196.56 390.83 197.42C394.27 199.66 397.52 201.78 400.92 203.35C401.16 203.47 401.37 203.56 401.57 203.66L402.26 203.95C402.85 204.2 403.48 204.43 404.1 204.64C414.09 208.02 425.44 214.7 433.82 238.62C441.22 259.7 439.43 279.9 439.1 282.95C451.93 301.39 452.11 330.16 452.11 331.38C453.38 344.87 458.26 351.11 462.73 355.89C467.94 361.46 478.85 380.41 482.85 392.16C485.79 400.8 486.89 416.27 487.69 427.58C487.98 431.68 488.23 435.23 488.51 437.38C489.51 445.11 498.3 471.57 498.39 471.83C498.68 472.78 505.17 494.42 505.99 498.97C506.65 502.75 509.71 505.48 515.06 507.08C520.78 508.8 531 516.08 534.95 521.23C538.47 525.84 547.89 537.65 548.88 538.9C551.11 540.54 554.54 544.59 552.25 548.76C551.44 550.24 550.31 551.16 548.88 551.51C546.11 552.19 543.28 550.31 543.16 550.23C542.82 549.98 535.32 544.55 532.97 540.67C531.07 537.53 529.38 534.93 527.89 534.93C527.77 534.93 527.73 534.95 527.73 534.95C527.63 535.05 527.36 535.62 528.21 538.46C528.7 540.12 530.53 547.7 530.82 548.89C531.69 550.36 539.73 563.95 543.1 569.53C547.42 576.68 548.25 581.78 545.5 584.26C542.38 587.1 537.96 583.91 537.78 583.77L537.57 583.56L533.19 577.73L522.71 563.1L529.48 582.65C530.02 583.74 533.51 591.03 531.93 595.17C531.48 596.35 530.67 597.18 529.53 597.64C524.72 599.56 521.62 596.25 520.65 594.23L514.09 579.05L508.66 566.19C509.25 569.85 510.1 574.12 510.9 578.08C511.7 582.1 512.47 585.89 512.88 588.68C513.66 593.88 513.38 596.82 511.93 598.5C511.03 599.55 509.71 600.06 507.89 600.06C503.84 600.06 502.45 595.36 501.34 591.58C501.13 590.88 500.93 590.2 500.72 589.57C499.34 585.45 496.79 575 495.89 569.13C495.46 566.35 494.38 563.72 493.39 561.77L493.69 579.37C493.71 579.5 494.3 584.84 491.89 587.55C490.96 588.59 489.75 589.12 488.27 589.12C486.54 589.12 485.11 588.56 484.03 587.45C481.9 585.28 481.94 581.79 481.94 581.64C481.94 581.64 481.7 568.39 481.52 559.37C481.35 550.68 478.47 544.41 478.44 544.34L478.39 544.21C478.32 543.98 471.53 521.46 471.18 506.19C470.92 495.28 462.22 478.75 457.06 469.86C454.82 466 452.62 461.92 450.52 457.74C445.21 447.08 429.07 414.66 424.62 405.04C421.49 398.27 421.66 392.58 421.81 387.57C421.94 383.3 422.05 379.6 420.28 375.82C419.21 373.55 417.57 370.82 415.67 367.67C410.24 358.67 402.47 345.8 400.69 330.15C400.06 332.85 399.26 335.78 398.27 338.35C396.5 342.96 394.7 345.8 392.97 348.54C391.02 351.62 389.18 354.53 387.7 359.71C386.81 362.83 385.6 366.16 384.43 369.38C382.06 375.9 379.61 382.65 380.78 385.62C382.69 390.43 386.03 429.08 386.32 432.45C386.82 433.55 389.45 439.63 391.79 451.93C392.8 457.26 393.99 461.68 395.24 466.37C397.12 473.4 399.06 480.67 400.61 491.67C401.47 497.82 401.97 502.76 402.46 507.55C403.41 516.85 404.23 524.89 407.35 538.05C412.06 557.88 409.19 595.55 409.16 595.93C409.13 596.23 406.61 625.55 406.61 639.64C406.61 656.19 399.84 674.51 395.8 683.95C391.35 694.37 393.32 701.29 395.06 707.4C395.46 708.79 395.83 710.11 396.12 711.42C397.08 715.81 396.69 725.12 396.32 734.13C396.09 739.81 395.86 745.18 396.01 748.74C396.15 752.09 397.28 758.93 398.59 766.85C400.91 780.92 403.8 798.42 403.8 810.95C403.8 827.62 398.38 853.85 395.78 866.46C395.28 868.89 394.88 870.8 394.66 872.02C393.85 876.36 391.7 889.31 389.81 900.74C388.39 909.28 387.17 916.65 386.68 919.39L386.53 920.23C385.45 926.27 383.81 935.4 385.39 938.84C387.19 942.75 389.69 952.34 389.69 956.43C389.69 958.39 388.85 960.32 387.95 962.37C386.89 964.79 385.8 967.3 385.8 970.28C385.8 975.56 390.38 980.87 397.91 989C405.59 997.29 405.59 1004 405.59 1008.45C405.59 1012.9 400.08 1015.66 398.64 1016.27C396.89 1018.98 393.53 1018.84 392.18 1018.65C389.46 1021.24 385.73 1020.5 383.97 1019.94C383.19 1021.46 381.39 1023.3 378.11 1023.3C375.49 1023.3 373.86 1021.64 372.93 1019.84C371.75 1022.18 369.27 1025.02 364.14 1025.02L364.25 1024.97Z" fill="#998475"/>
<path style="mix-blend-mode:multiply" d="M432.747 340.048C445.767 335.053 452.993 322.325 448.886 311.621C444.779 300.916 430.895 296.288 417.875 301.283C404.855 306.278 397.63 319.005 401.737 329.71C405.844 340.415 419.728 345.043 432.747 340.048Z" fill="url(#paint0_radial_1_1196)"/>
<defs>
<radialGradient id="paint0_radial_1_1196" cx="0" cy="0" r="1" gradientUnits="userSpaceOnUse" gradientTransform="translate(437.538 328.191) rotate(-20.99) scale(25.22 20.8065)">
<stop stop-color="#A41907"/>
<stop offset="0.2" stop-color="#A51D0B" stop-opacity="0.98"/>
<stop offset="0.36" stop-color="#AB2B1A" stop-opacity="0.92"/>
<stop offset="0.5" stop-color="#B44233" stop-opacity="0.82"/>
<stop offset="0.63" stop-color="#C16256" stop-opacity="0.68"/>
<stop offset="0.76" stop-color="#D18C83" stop-opacity="0.5"/>
<stop offset="0.88" stop-color="#E6C0BB" stop-opacity="0.27"/>
<stop offset="1" stop-color="white" stop-opacity="0"/>
</radialGradient>
</defs>
</svg>
