<svg width="620" height="1074" viewBox="0 0 620 1074" fill="none" xmlns="http://www.w3.org/2000/svg">
<path d="M297.44 579.27C249.5 581.07 218.89 570.24 218.89 570.24C218.89 570.24 214.3 608.39 220.34 636.24C220.34 636.24 252.46 656.39 293.86 640.37C292.55 619.65 294.01 600.08 297.43 579.27H297.44Z" fill="#9FA7C4"/>
<path d="M288.33 635.52C261.38 645.96 239.06 638.32 230.13 634.2C227.49 616.77 225.8 596.37 224.91 576.08C227.33 576.9 252.71 585.13 291.36 583.69C288.46 601.34 287.22 617.94 288.33 635.52V635.52Z" fill="#F3EFF5"/>
<path d="M231.28 641.27C224.32 638.73 220.35 636.24 220.35 636.24C214.3 608.4 218.89 570.24 218.89 570.24C218.89 570.24 220.91 570.96 224.74 571.99C225.69 596.43 227.78 621.31 231.28 641.27V641.27Z" fill="#848BA3"/>
<path d="M293.78 611.651C294.07 601.431 294.23 590.38 294.11 579.37C295.21 579.35 296.32 579.311 297.44 579.271C295.63 590.291 294.37 600.971 293.78 611.651V611.651Z" fill="#848BA3"/>
<path d="M230.13 634.201C227.43 632.951 225.95 632.021 225.95 632.021C220.82 608.401 224.72 576.021 224.72 576.021C224.72 576.021 224.78 576.041 224.91 576.081C225.8 596.371 227.49 616.771 230.13 634.201Z" fill="#C4C2C6"/>
<path d="M231.28 641.27C224.32 638.73 220.35 636.24 220.35 636.24C214.3 608.4 218.89 570.24 218.89 570.24C218.89 570.24 220.91 570.96 224.74 571.99C224.79 573.35 224.85 574.71 224.91 576.08C224.78 576.04 224.72 576.02 224.72 576.02C224.72 576.02 220.82 608.4 225.95 632.02C225.95 632.02 227.43 632.95 230.13 634.2C230.49 636.62 230.88 638.98 231.28 641.27V641.27Z" fill="#848BA3"/>
</svg>
