<svg width="620" height="1074" viewBox="0 0 620 1074" fill="none" xmlns="http://www.w3.org/2000/svg">
<path d="M288.3 42.96C288.57 41.94 289.72 41.18 291.72 40.69C296.53 39.51 314.88 39.56 321.07 41.11C326.76 42.53 338.36 47.2 345.77 55.66C353.21 64.15 359.89 81.04 362.94 93.14C365.42 102.96 366.49 120.75 367.12 131.38C367.29 134.23 367.43 136.48 367.55 137.81C367.61 138.53 367.68 139.51 367.75 140.7C368.34 149.86 369.71 171.3 378.99 190.61C385.19 203.51 388.71 207.63 390.41 209.61C391.59 210.99 391.98 211.45 391.44 213.09L391.41 213.16C391.38 213.23 391.04 213.82 390.03 214C389.85 214.03 389.65 214.05 389.43 214.05C387.15 214.05 382.64 212.13 373.84 203.98C358.73 189.99 353.14 158.07 352.26 146.95C352.15 145.57 352.04 144.06 351.91 142.45C350.97 130.27 349.56 111.87 347.16 98.66C344.79 85.61 339.68 67.84 322.78 64.16C306.57 60.63 301.51 59.81 301.37 59.78C301.25 59.74 298.29 58.63 296.27 54.49C294.37 50.61 289.05 45.14 289.01 45.1C288.97 45.06 288 44.11 288.31 42.95L288.3 42.96ZM291.15 41.9C293.92 43.83 296.88 48.55 298.71 51.5C299.13 52.17 299.49 52.75 299.76 53.15C301.18 55.26 304.68 55.61 304.71 55.61C304.74 55.61 305.01 55.64 305.72 55.75C305.01 53.35 302.41 45.63 297.37 41.03C295.02 41.16 293.09 41.37 291.95 41.65C291.65 41.72 291.39 41.8 291.14 41.89L291.15 41.9ZM298.75 40.97C303.94 46.18 306.34 54.16 306.82 55.93C308.07 56.14 310.03 56.48 312.98 57.05C312.95 53.53 310.99 43.98 307.21 40.91L307.23 40.88C304.29 40.82 301.33 40.85 298.75 40.96V40.97ZM320.76 59.91C318.87 59.33 317.03 58.86 315.3 58.52C314.81 58.42 314.35 58.33 313.9 58.25C313.74 59.69 313.46 60.58 313.19 61.11C314.91 61.47 316.85 61.88 319.04 62.35C319.44 62.08 320.55 61.2 320.76 59.91ZM320.79 58.87C320.63 55.78 319.35 46.46 317.04 41.45C314.63 41.18 311.68 41 308.65 40.91C312.17 44.78 314.03 53.68 313.97 57.23C314.45 57.32 314.96 57.42 315.49 57.53C317.18 57.86 318.96 58.31 320.79 58.86V58.87ZM312.91 58.05C310.15 57.52 308.25 57.18 306.98 56.97C307.1 58.34 306.86 59.22 306.58 59.76C308.05 60.05 309.88 60.42 312.15 60.89C312.35 60.59 312.73 59.79 312.91 58.05ZM320.82 42.07C320.1 41.89 319.21 41.73 318.2 41.59C320.49 47.04 321.73 56.51 321.8 59.19C324.14 59.95 326.53 60.89 328.87 62.03C328.92 59.2 328.95 49.14 326.95 44.12C324.58 43.16 322.45 42.47 320.82 42.06V42.07ZM335.97 48.74C333.34 47.07 330.67 45.72 328.21 44.65C330.08 50.4 329.92 60.37 329.86 62.52C331.88 63.55 333.85 64.73 335.69 66.06C336.33 63.78 338.26 55.82 335.97 48.75V48.74ZM329.66 63.53C329.39 64.23 328.96 64.73 328.59 65.07C330.84 66.12 332.83 67.45 334.6 68.99C334.84 68.6 335.18 67.94 335.4 67.09C333.59 65.76 331.66 64.57 329.66 63.53ZM337.26 49.58C339.26 57.19 337.03 65.17 336.55 66.7C338.54 68.22 340.36 69.92 341.92 71.8C342.86 70.4 345.36 65.57 343.98 55.18C341.94 53.05 339.64 51.18 337.26 49.57V49.58ZM351.03 94.05C352.93 92.43 358.53 87.54 359.59 85.23C358.75 82.67 357.8 80.05 356.76 77.44C354.68 82.07 350.4 86.31 349.39 87.27C350.05 89.57 350.59 91.86 351.03 94.05ZM356.23 76.11C354.98 73.06 353.6 70.07 352.15 67.27C351.52 73.56 347.6 78.58 346.67 79.68C347.61 81.79 348.41 83.98 349.08 86.18C350.58 84.69 354.63 80.41 356.23 76.11ZM345.91 80.42C345.08 81.05 344.03 81.44 343.39 81.64C344.32 83.78 345.09 85.98 345.75 88.18C346.53 88.1 347.81 87.81 348.3 87.04C347.64 84.8 346.86 82.56 345.91 80.41V80.42ZM345.48 79.48C344.52 77.43 343.42 75.47 342.13 73.7C341.66 74.71 340.84 75.24 340.12 75.47C341.2 77.14 342.14 78.91 342.98 80.72C343.58 80.54 344.74 80.12 345.48 79.48ZM345.14 56.45C346.24 66.83 343.49 71.44 342.58 72.64C342.68 72.77 342.78 72.89 342.88 73.02C344.16 74.76 345.25 76.67 346.21 78.67C347.55 76.96 351.26 71.67 351.24 65.57C349.31 62.05 347.26 58.9 345.14 56.46V56.45ZM360.01 86.5C358 89.45 352.44 94.19 351.26 95.18C351.78 97.93 352.18 100.49 352.5 102.66C354.45 101.43 360.4 97.48 362.16 94.09C362.11 93.86 362.05 93.61 362 93.39C361.45 91.22 360.79 88.9 360.02 86.5H360.01ZM350.97 119.63C351.4 119.65 352.3 119.56 353.25 118.8C353.03 116.36 352.81 114 352.58 111.79C351.61 112.2 350.72 112.38 350.18 112.46C350.46 114.83 350.72 117.23 350.96 119.63H350.97ZM351.75 127.88C352.22 127.97 353.17 128.02 353.99 127.32C353.79 124.87 353.57 122.38 353.36 119.95C352.48 120.49 351.65 120.63 351.07 120.63C351.31 123.07 351.54 125.5 351.75 127.88ZM352.92 142.39C353.01 143.52 353.09 144.57 353.17 145.59C353.93 145.66 355.05 145.64 355.52 145.26C355.39 144.08 355.27 142.89 355.17 141.66C355.05 140.25 354.92 138.72 354.79 137.14C354.02 137.41 353.12 137.49 352.54 137.51C352.67 139.23 352.8 140.87 352.92 142.41V142.39ZM362.46 184.43C362.76 184.56 363.57 184.71 364.82 183.37C363.78 180.65 362.76 177.62 361.74 174.22C361.65 173.93 361.57 173.65 361.49 173.36C360.74 173.99 359.6 174.33 358.88 174.48C359.91 177.81 361.1 181.18 362.46 184.43ZM364.8 112.64C359.82 117.11 355.57 118.89 354.31 119.36C354.53 121.82 354.74 124.33 354.95 126.82C357 125.97 363.66 123.01 365.38 119.68C365.21 117.38 365.02 115.01 364.8 112.64ZM353.43 110.24C355.79 109 361.75 105.79 363.72 102.95C363.35 100.25 362.94 97.71 362.47 95.48C359.94 99.14 354.01 102.91 352.65 103.74C352.91 105.57 353.17 107.78 353.43 110.24ZM353.61 111.28L353.54 111.32C353.77 113.52 353.99 115.89 354.21 118.33C355.71 117.74 359.93 115.81 364.68 111.41C364.45 109 364.19 106.62 363.9 104.33C361.27 107.26 355.6 110.24 353.61 111.29V111.28ZM355.04 127.87C355.22 130 355.39 132.09 355.55 134.09C355.59 134.61 355.63 135.13 355.68 135.64C357.46 134.87 362.66 132.44 366.01 129.11C365.86 126.72 365.7 124.07 365.5 121.29C362.8 124.61 356.6 127.25 355.04 127.87ZM355.76 136.69C355.9 138.4 356.04 140.05 356.16 141.56C356.25 142.63 356.35 143.66 356.46 144.69C358.33 143.78 363.98 140.88 366.55 137.69C366.43 136.33 366.3 134.16 366.14 131.44C366.12 131.11 366.1 130.75 366.08 130.41C362.35 133.8 357.13 136.11 355.76 136.68V136.69ZM356.58 145.75C356.79 147.58 357.03 149.35 357.3 151.08C358.98 150.45 364.09 148.36 367.08 145.22C366.95 143.53 366.85 142.03 366.77 140.77C366.73 140.14 366.69 139.58 366.66 139.08C363.55 142.35 358 145.08 356.58 145.75ZM358.51 157.78C360.29 156.82 365.7 153.81 367.66 151.57C367.46 149.77 367.31 148.08 367.18 146.53C363.84 149.64 358.84 151.59 357.46 152.09C357.78 154.03 358.13 155.92 358.52 157.78H358.51ZM367.8 152.85C365.26 155.26 360.11 158.06 358.72 158.8C359.12 160.67 359.56 162.52 360.03 164.37C361.42 164 365.73 162.59 368.59 158.72C368.28 156.67 368.02 154.71 367.8 152.86V152.85ZM360.28 165.34C360.83 167.44 361.41 169.55 362.03 171.69C363.34 171.37 367.38 170.17 370.08 166.86C369.58 164.53 369.16 162.25 368.81 160.06C365.78 163.65 361.71 164.97 360.28 165.34ZM362.32 172.65C362.44 173.07 362.57 173.49 362.7 173.92C363.69 177.25 364.69 180.21 365.7 182.87C366.93 182.49 370.62 181.09 372.89 177.64C371.88 174.4 371.05 171.19 370.36 168.08C367.52 171.16 363.73 172.31 362.33 172.65H362.32ZM366.06 183.81C367.11 186.47 368.18 188.82 369.31 190.92C370.4 190.52 373.64 189.07 375.63 185.4C374.76 183.22 373.98 181.03 373.27 178.85C370.84 182.07 367.39 183.4 366.06 183.82V183.81ZM368.94 192.32C368.12 193.02 367.44 193.33 366.92 193.45C368.32 195.84 369.85 198.06 371.52 200.05C371.92 199.84 372.63 199.4 373.42 198.68C372.7 197.86 372.09 197.12 371.65 196.53C370.71 195.24 369.81 193.85 368.94 192.31V192.32ZM366.39 192.51C366.7 192.51 367.42 192.35 368.45 191.41C367.33 189.32 366.26 187 365.21 184.37C364.44 185.09 363.68 185.48 362.94 185.5C362.94 185.5 362.93 185.5 362.92 185.5C363.97 187.93 365.12 190.28 366.38 192.5L366.39 192.51ZM361.16 172.23C360.51 170.02 359.91 167.85 359.35 165.68C358.22 166.19 357.27 166.44 356.69 166.56C357.25 168.83 357.88 171.16 358.59 173.52C359.58 173.32 360.83 172.87 361.16 172.23ZM359.09 164.69C358.63 162.88 358.2 161.06 357.8 159.22C357.06 159.49 356.36 159.58 355.79 159.58C355.54 159.58 355.33 159.56 355.13 159.54C355.51 161.46 355.94 163.48 356.44 165.57C356.98 165.46 357.94 165.21 359.08 164.68L359.09 164.69ZM354.94 158.5C355.43 158.59 356.46 158.67 357.59 158.22C357.19 156.31 356.83 154.38 356.5 152.4C355.62 152.64 354.6 152.69 353.96 152.69C354.22 154.45 354.54 156.4 354.94 158.49V158.5ZM352.48 110.72C352.22 108.28 351.97 106.07 351.71 104.23C350.82 104.6 349.96 104.71 349.35 104.71C349.28 104.71 349.22 104.71 349.16 104.71C349.48 106.9 349.78 109.16 350.06 111.47C350.59 111.39 351.52 111.19 352.47 110.74L352.48 110.72ZM378.11 191.05C377.4 189.57 376.73 188.07 376.11 186.57C374.03 189.91 371.06 191.33 369.8 191.81C370.65 193.31 371.53 194.68 372.46 195.95C372.89 196.53 373.5 197.27 374.24 198.1C375.13 197.65 377.67 196.18 379.36 193.59C378.96 192.78 378.55 191.94 378.12 191.05H378.11ZM377.51 205.9C379.22 207.37 380.72 208.56 382.02 209.5C382.36 209.34 382.84 209.06 383.11 208.68C381.8 207.39 380.37 205.97 378.96 204.55C378.42 205.21 377.91 205.64 377.51 205.9ZM385.87 205.19C385.1 204.02 384.23 202.62 383.26 200.92C382.39 202.18 380.66 203.33 379.73 203.89C381.09 205.27 382.47 206.64 383.74 207.89C384.42 207.25 385.49 206.1 385.87 205.19ZM383.83 209.38C383.57 209.7 383.25 209.95 382.94 210.14C384.61 211.28 385.93 212 386.97 212.44C386.15 211.65 385.05 210.59 383.82 209.39L383.83 209.38ZM379.01 203.15C380.13 202.49 382.22 201.07 382.68 199.88C381.82 198.35 380.89 196.6 379.88 194.59C378.21 196.91 376 198.28 374.94 198.85C376.12 200.15 377.54 201.64 379.02 203.15H379.01ZM389.79 213.03C390.28 212.97 390.48 212.78 390.54 212.71C390.88 211.67 390.79 211.57 389.68 210.26C388.97 209.42 387.92 208.2 386.51 206.14C385.93 207.12 384.99 208.08 384.46 208.59C386.7 210.78 388.49 212.5 389.04 213.03C389.34 213.06 389.59 213.06 389.79 213.03ZM374.55 203.24C375.31 203.95 376.03 204.59 376.73 205.2C377.05 205.03 377.64 204.62 378.27 203.82C376.75 202.27 375.3 200.75 374.09 199.41C373.35 200.09 372.66 200.54 372.2 200.81C372.96 201.67 373.74 202.49 374.55 203.24ZM353.82 151.68C354.41 151.68 355.49 151.65 356.35 151.4C356.09 149.74 355.85 148.04 355.65 146.29C355.1 146.52 354.45 146.6 353.88 146.6C353.65 146.6 353.44 146.59 353.26 146.57C353.26 146.66 353.28 146.77 353.28 146.86C353.38 148.15 353.56 149.78 353.82 151.68ZM352.47 136.46C353.11 136.44 354.08 136.35 354.71 136.05C354.66 135.42 354.61 134.78 354.55 134.14C354.4 132.3 354.24 130.39 354.08 128.45C353.47 128.79 352.85 128.9 352.33 128.9C352.15 128.9 351.98 128.89 351.83 128.87C352.06 131.5 352.27 134.05 352.46 136.46H352.47ZM349.02 103.67C349.54 103.7 350.56 103.67 351.57 103.18C351.57 103.16 351.57 103.13 351.56 103.1C351.25 101.02 350.88 98.56 350.39 95.91C349.59 96.42 348.5 96.67 347.85 96.78C347.96 97.35 348.07 97.91 348.17 98.47C348.47 100.13 348.76 101.87 349.03 103.67H349.02ZM347.65 95.8C348.54 95.65 349.7 95.32 350.18 94.81C349.76 92.66 349.25 90.42 348.63 88.15C347.85 88.79 346.74 89.03 346.04 89.12C346.68 91.38 347.21 93.63 347.65 95.8ZM339.54 74.56C340.02 74.47 341.07 74.1 341.4 72.73C339.92 70.88 338.19 69.21 336.28 67.72C336 68.61 335.62 69.28 335.37 69.66C336.94 71.14 338.32 72.79 339.54 74.56ZM323.01 63.18C324.64 63.54 326.17 64.02 327.6 64.61C327.91 64.39 328.51 63.87 328.78 63.08C326.45 61.93 324.07 60.98 321.74 60.21C321.52 61.27 320.87 62.08 320.31 62.6C321.17 62.79 322.07 62.98 323.01 63.18ZM289.73 44.38C289.95 44.61 295.21 50.02 297.18 54.04C299 57.76 301.66 58.8 301.63 58.8C301.67 58.8 302.79 58.99 305.56 59.53C305.78 59.24 306.19 58.43 305.99 56.78C305 56.62 304.65 56.59 304.64 56.59C304.48 56.58 300.64 56.2 298.95 53.69C298.67 53.27 298.31 52.69 297.88 52.01C296.07 49.12 292.76 43.81 290.05 42.37C289.63 42.62 289.36 42.9 289.28 43.2C289.12 43.79 289.7 44.37 289.72 44.39L289.73 44.38Z" fill="#676D80"/>
<path d="M360.27 165.35C361.7 164.98 365.76 163.67 368.8 160.07C369.16 162.26 369.58 164.53 370.07 166.87C367.37 170.17 363.33 171.38 362.02 171.7C361.4 169.56 360.81 167.45 360.27 165.35Z" fill="white"/>
<path d="M355.53 134.09C355.37 132.09 355.2 129.99 355.02 127.87C356.57 127.25 362.78 124.61 365.48 121.29C365.68 124.07 365.84 126.72 365.99 129.11C362.64 132.44 357.44 134.87 355.66 135.64C355.62 135.13 355.58 134.61 355.53 134.09Z" fill="white"/>
<path d="M366.13 131.45C366.29 134.17 366.42 136.34 366.54 137.7C363.97 140.89 358.33 143.79 356.45 144.7C356.34 143.67 356.24 142.63 356.15 141.57C356.02 140.05 355.89 138.41 355.75 136.7C357.13 136.13 362.35 133.82 366.07 130.43C366.09 130.77 366.11 131.13 366.13 131.46V131.45Z" fill="white"/>
<path d="M375.61 185.4C373.62 189.07 370.38 190.52 369.29 190.92C368.16 188.82 367.09 186.48 366.04 183.81C367.37 183.39 370.83 182.06 373.25 178.84C373.95 181.02 374.73 183.21 375.61 185.39V185.4Z" fill="white"/>
<path d="M307.23 40.89L307.21 40.92C310.99 43.98 312.95 53.54 312.98 57.06C310.04 56.49 308.08 56.15 306.82 55.94C306.34 54.17 303.93 46.19 298.75 40.98C301.33 40.87 304.29 40.84 307.23 40.9V40.89Z" fill="white"/>
<path d="M305.73 55.7598C305.01 55.6498 304.74 55.6198 304.72 55.6198C304.69 55.6198 301.19 55.2698 299.77 53.1598C299.5 52.7498 299.14 52.1798 298.72 51.5098C296.88 48.5598 293.92 43.8398 291.16 41.9098C291.41 41.8298 291.68 41.7498 291.97 41.6698C293.12 41.3898 295.04 41.1798 297.39 41.0498C302.43 45.6398 305.02 53.3598 305.74 55.7698L305.73 55.7598Z" fill="white"/>
<path d="M317.05 41.4602C319.36 46.4702 320.64 55.7902 320.8 58.8802C318.97 58.3202 317.18 57.8802 315.5 57.5502C314.97 57.4502 314.46 57.3502 313.98 57.2502C314.04 53.7002 312.18 44.8002 308.66 40.9302C311.7 41.0202 314.64 41.1902 317.05 41.4702V41.4602Z" fill="white"/>
<path d="M389.01 213.04C388.46 212.52 386.66 210.8 384.43 208.6C384.97 208.09 385.9 207.13 386.48 206.15C387.89 208.21 388.94 209.44 389.65 210.27C390.77 211.57 390.85 211.68 390.51 212.72C390.45 212.79 390.25 212.98 389.76 213.04C389.56 213.06 389.31 213.07 389.01 213.04Z" fill="white"/>
<path d="M372.87 177.65C370.6 181.1 366.91 182.5 365.68 182.88C364.67 180.22 363.68 177.26 362.68 173.93C362.55 173.5 362.43 173.08 362.3 172.66C363.7 172.32 367.49 171.17 370.33 168.09C371.02 171.2 371.86 174.41 372.86 177.65H372.87Z" fill="white"/>
<path d="M364.78 112.64C365 115 365.19 117.37 365.36 119.68C363.64 123.01 356.98 125.97 354.93 126.82C354.72 124.33 354.51 121.82 354.29 119.36C355.55 118.89 359.8 117.11 364.78 112.64Z" fill="white"/>
<path d="M341.91 71.8201C340.35 69.9301 338.53 68.2301 336.54 66.7201C337.02 65.1901 339.25 57.2001 337.25 49.6001C339.63 51.2101 341.92 53.0801 343.97 55.2101C345.35 65.6101 342.85 70.4401 341.91 71.8301V71.8201Z" fill="white"/>
<path d="M328.87 62.0401C326.53 60.9001 324.14 59.9601 321.8 59.2001C321.72 56.5201 320.49 47.0501 318.2 41.6001C319.21 41.7401 320.1 41.9001 320.82 42.0801C322.45 42.4901 324.58 43.1701 326.95 44.1401C328.95 49.1601 328.92 59.2101 328.87 62.0501V62.0401Z" fill="white"/>
<path d="M335.97 48.7499C338.26 55.8199 336.33 63.7899 335.69 66.0599C333.85 64.7299 331.88 63.5499 329.86 62.5199C329.92 60.3799 330.08 50.4099 328.21 44.6499C330.68 45.7199 333.34 47.0799 335.97 48.7399V48.7499Z" fill="white"/>
<path d="M379.71 203.9C380.63 203.34 382.37 202.19 383.24 200.93C384.22 202.63 385.08 204.03 385.85 205.2C385.48 206.11 384.4 207.26 383.72 207.9C382.45 206.65 381.07 205.28 379.71 203.9Z" fill="white"/>
<path d="M374.21 198.1C373.47 197.27 372.86 196.53 372.43 195.95C371.5 194.69 370.62 193.32 369.77 191.81C371.04 191.33 374.01 189.91 376.08 186.57C376.7 188.07 377.37 189.57 378.08 191.05C378.51 191.94 378.92 192.78 379.32 193.59C377.63 196.18 375.09 197.64 374.2 198.1H374.21Z" fill="white"/>
<path d="M367.65 151.57C365.69 153.81 360.28 156.82 358.5 157.78C358.11 155.92 357.76 154.03 357.44 152.09C358.83 151.59 363.82 149.64 367.16 146.53C367.29 148.08 367.44 149.77 367.64 151.57H367.65Z" fill="white"/>
<path d="M368.58 158.72C365.72 162.59 361.4 164.01 360.02 164.37C359.55 162.52 359.12 160.67 358.71 158.8C360.09 158.07 365.24 155.26 367.79 152.85C368.01 154.7 368.26 156.66 368.58 158.71V158.72Z" fill="white"/>
<path d="M379.85 194.61C380.86 196.61 381.8 198.37 382.65 199.9C382.19 201.08 380.1 202.51 378.98 203.17C377.5 201.66 376.09 200.18 374.9 198.87C375.96 198.31 378.17 196.93 379.84 194.61H379.85Z" fill="white"/>
<path d="M356.75 77.4399C357.79 80.0499 358.74 82.6699 359.58 85.2299C358.52 87.5499 352.92 92.4299 351.02 94.0499C350.58 91.8599 350.04 89.5699 349.38 87.2699C350.38 86.3199 354.67 82.0799 356.75 77.4399Z" fill="white"/>
<path d="M359.99 86.5C360.75 88.9 361.42 91.22 361.97 93.39C362.03 93.61 362.08 93.86 362.13 94.09C360.37 97.48 354.43 101.43 352.47 102.66C352.14 100.48 351.75 97.93 351.23 95.18C352.42 94.19 357.98 89.45 359.98 86.5H359.99Z" fill="white"/>
<path d="M356.56 145.75C357.99 145.08 363.53 142.35 366.64 139.08C366.67 139.58 366.71 140.14 366.75 140.77C366.83 142.03 366.93 143.53 367.06 145.22C364.07 148.35 358.96 150.45 357.28 151.08C357.01 149.35 356.77 147.57 356.56 145.75Z" fill="white"/>
<path d="M353.52 111.31L353.59 111.27C355.59 110.22 361.25 107.24 363.88 104.31C364.17 106.6 364.43 108.98 364.66 111.39C359.91 115.8 355.69 117.72 354.19 118.31C353.97 115.87 353.74 113.5 353.52 111.3V111.31Z" fill="white"/>
<path d="M353.41 110.24C353.15 107.78 352.89 105.57 352.63 103.74C353.99 102.91 359.92 99.14 362.45 95.48C362.92 97.71 363.33 100.25 363.7 102.95C361.73 105.79 355.77 109 353.41 110.24Z" fill="white"/>
<path d="M351.22 65.5599C351.23 71.6599 347.52 76.9499 346.19 78.6599C345.23 76.6599 344.14 74.7499 342.86 73.0099C342.77 72.8799 342.66 72.7599 342.56 72.6299C343.47 71.4299 346.22 66.8199 345.12 56.4399C347.24 58.8899 349.3 62.0299 351.22 65.5499V65.5599Z" fill="white"/>
<path d="M346.66 79.68C347.59 78.58 351.51 73.57 352.14 67.27C353.59 70.07 354.97 73.06 356.22 76.11C354.62 80.41 350.57 84.69 349.07 86.18C348.4 83.98 347.6 81.79 346.66 79.68Z" fill="white"/>
<path d="M362.9 185.51C362.9 185.51 362.91 185.51 362.92 185.51C363.66 185.49 364.42 185.1 365.19 184.38C366.23 187.01 367.3 189.33 368.43 191.42C367.4 192.36 366.68 192.51 366.37 192.52C365.11 190.29 363.96 187.94 362.91 185.52L362.9 185.51Z" fill="#DCDCDC"/>
<path d="M362.44 184.43C361.08 181.18 359.89 177.81 358.86 174.48C359.58 174.33 360.72 173.99 361.47 173.36C361.55 173.65 361.64 173.93 361.72 174.22C362.74 177.63 363.75 180.65 364.8 183.37C363.55 184.7 362.74 184.56 362.44 184.43Z" fill="#DCDCDC"/>
<path d="M356.67 166.56C357.25 166.44 358.2 166.19 359.33 165.68C359.89 167.85 360.5 170.02 361.14 172.23C360.81 172.87 359.56 173.32 358.57 173.52C357.86 171.16 357.23 168.83 356.67 166.56Z" fill="#DCDCDC"/>
<path d="M290.04 42.3899C292.74 43.8299 296.06 49.1399 297.87 52.0299C298.3 52.7199 298.66 53.2999 298.94 53.7099C300.63 56.2199 304.47 56.5999 304.63 56.6099C304.63 56.6099 304.98 56.6499 305.98 56.7999C306.18 58.4499 305.78 59.2599 305.55 59.5499C302.77 59.0099 301.66 58.8299 301.62 58.8199C301.65 58.8199 298.99 57.7799 297.17 54.0599C295.2 50.0299 289.94 44.6299 289.72 44.3999C289.7 44.3899 289.12 43.7999 289.28 43.2099C289.36 42.9199 289.63 42.6399 290.05 42.3799L290.04 42.3899Z" fill="#DCDCDC"/>
<path d="M373.39 198.69C372.61 199.41 371.89 199.84 371.49 200.06C369.83 198.07 368.3 195.85 366.89 193.46C367.4 193.34 368.09 193.04 368.91 192.33C369.78 193.86 370.68 195.26 371.62 196.55C372.05 197.14 372.66 197.87 373.39 198.7V198.69Z" fill="#DCDCDC"/>
<path d="M355.12 159.55C355.31 159.57 355.53 159.59 355.78 159.59C356.35 159.59 357.05 159.5 357.79 159.23C358.19 161.07 358.62 162.88 359.08 164.7C357.93 165.23 356.97 165.48 356.44 165.59C355.94 163.5 355.51 161.48 355.13 159.56L355.12 159.55Z" fill="#DCDCDC"/>
<path d="M353.25 146.89C353.25 146.8 353.23 146.69 353.23 146.6C353.42 146.61 353.62 146.63 353.85 146.63C354.42 146.63 355.07 146.55 355.62 146.32C355.83 148.07 356.06 149.77 356.32 151.43C355.46 151.68 354.38 151.72 353.79 151.71C353.53 149.81 353.35 148.18 353.25 146.89Z" fill="#DCDCDC"/>
<path d="M352.9 142.39C352.78 140.85 352.66 139.21 352.52 137.49C353.1 137.47 354 137.39 354.77 137.12C354.9 138.71 355.03 140.23 355.15 141.64C355.25 142.87 355.37 144.06 355.5 145.24C355.02 145.62 353.91 145.64 353.15 145.57C353.07 144.55 352.99 143.5 352.9 142.37V142.39Z" fill="#DCDCDC"/>
<path d="M353.94 152.71C354.58 152.71 355.6 152.65 356.48 152.42C356.81 154.4 357.17 156.34 357.57 158.24C356.43 158.69 355.41 158.61 354.92 158.52C354.52 156.42 354.2 154.47 353.94 152.72V152.71Z" fill="#DCDCDC"/>
<path d="M312.91 58.06C312.73 59.8 312.35 60.6 312.15 60.9C309.88 60.43 308.05 60.06 306.58 59.77C306.86 59.23 307.1 58.34 306.98 56.98C308.25 57.19 310.15 57.53 312.91 58.06Z" fill="#DCDCDC"/>
<path d="M320.76 59.91C320.55 61.19 319.44 62.07 319.04 62.35C316.85 61.88 314.9 61.47 313.19 61.11C313.46 60.58 313.75 59.69 313.9 58.25C314.35 58.34 314.81 58.43 315.3 58.52C317.03 58.86 318.88 59.33 320.76 59.91Z" fill="#DCDCDC"/>
<path d="M328.59 65.08C328.96 64.74 329.39 64.23 329.66 63.54C331.66 64.58 333.59 65.77 335.4 67.1C335.17 67.95 334.84 68.61 334.6 69C332.83 67.46 330.84 66.13 328.59 65.08Z" fill="#DCDCDC"/>
<path d="M382 209.51C380.7 208.57 379.2 207.38 377.49 205.91C377.89 205.65 378.41 205.22 378.94 204.56C380.34 205.98 381.77 207.4 383.09 208.69C382.82 209.07 382.34 209.35 382 209.51Z" fill="#DCDCDC"/>
<path d="M382.92 210.15C383.22 209.97 383.55 209.71 383.81 209.39C385.04 210.6 386.13 211.65 386.96 212.44C385.92 212 384.6 211.28 382.93 210.14L382.92 210.15Z" fill="#DCDCDC"/>
<path d="M372.16 200.83C372.63 200.56 373.32 200.11 374.05 199.43C375.26 200.77 376.71 202.29 378.23 203.84C377.61 204.64 377.01 205.05 376.69 205.22C375.99 204.61 375.28 203.97 374.51 203.26C373.7 202.51 372.91 201.69 372.16 200.83Z" fill="#DCDCDC"/>
<path d="M336.26 67.7397C338.17 69.2297 339.9 70.8997 341.38 72.7497C341.05 74.1197 340 74.4897 339.52 74.5798C338.3 72.8098 336.92 71.1597 335.35 69.6797C335.6 69.2997 335.98 68.6297 336.26 67.7397Z" fill="#DCDCDC"/>
<path d="M321.72 60.2197C324.05 60.9897 326.44 61.9497 328.76 63.0897C328.48 63.8797 327.88 64.3997 327.58 64.6197C326.15 64.0297 324.62 63.5497 322.99 63.1897C322.05 62.9897 321.16 62.7897 320.29 62.6097C320.86 62.0897 321.5 61.2797 321.72 60.2197Z" fill="#DCDCDC"/>
<path d="M352.32 128.93C352.84 128.93 353.46 128.82 354.07 128.48C354.23 130.42 354.39 132.34 354.54 134.17C354.59 134.82 354.64 135.45 354.7 136.08C354.07 136.37 353.1 136.47 352.46 136.49C352.27 134.07 352.06 131.53 351.83 128.9C351.98 128.92 352.15 128.93 352.33 128.93H352.32Z" fill="#DCDCDC"/>
<path d="M348.6 88.1797C349.23 90.4397 349.73 92.6897 350.15 94.8397C349.67 95.3397 348.51 95.6797 347.62 95.8297C347.18 93.6697 346.65 91.4197 346.01 89.1497C346.71 89.0597 347.81 88.8297 348.6 88.1797Z" fill="#DCDCDC"/>
<path d="M349.15 104.7C349.21 104.7 349.27 104.7 349.34 104.7C349.95 104.7 350.81 104.6 351.7 104.22C351.95 106.06 352.21 108.27 352.47 110.71C351.52 111.16 350.59 111.36 350.06 111.44C349.78 109.13 349.48 106.87 349.16 104.68L349.15 104.7Z" fill="#DCDCDC"/>
<path d="M348.14 98.4897C348.04 97.9397 347.93 97.3697 347.82 96.7997C348.48 96.6897 349.56 96.4397 350.36 95.9297C350.85 98.5797 351.22 101.04 351.53 103.12C351.53 103.14 351.53 103.17 351.54 103.2C350.53 103.7 349.51 103.73 348.99 103.69C348.72 101.89 348.43 100.15 348.13 98.4897H348.14Z" fill="#DCDCDC"/>
<path d="M351.73 127.88C351.52 125.5 351.3 123.08 351.05 120.63C351.63 120.63 352.46 120.48 353.34 119.95C353.56 122.38 353.77 124.87 353.97 127.32C353.15 128.02 352.2 127.97 351.73 127.88Z" fill="#DCDCDC"/>
<path d="M350.17 112.45C350.71 112.37 351.6 112.19 352.57 111.78C352.79 113.98 353.02 116.35 353.24 118.79C352.28 119.55 351.39 119.64 350.96 119.62C350.72 117.22 350.46 114.82 350.18 112.45H350.17Z" fill="#DCDCDC"/>
<path d="M345.73 88.1799C345.07 85.9799 344.29 83.7799 343.37 81.6399C344.01 81.4399 345.07 81.0499 345.89 80.4199C346.83 82.5699 347.62 84.7999 348.28 87.0499C347.79 87.8199 346.51 88.1099 345.73 88.1899V88.1799Z" fill="#DCDCDC"/>
<path d="M340.1 75.4599C340.81 75.2299 341.64 74.6899 342.11 73.6899C343.4 75.4599 344.5 77.4199 345.46 79.4699C344.72 80.1199 343.56 80.5299 342.96 80.7099C342.13 78.8899 341.18 77.1299 340.1 75.4599Z" fill="#DCDCDC"/>
</svg>
