<svg width="620" height="1074" viewBox="0 0 620 1074" fill="none" xmlns="http://www.w3.org/2000/svg">
<path d="M331.6 42.96C331.33 41.94 330.18 41.18 328.18 40.69C323.37 39.51 305.02 39.56 298.83 41.11C293.14 42.53 281.54 47.2 274.13 55.66C266.69 64.15 260.01 81.04 256.96 93.14C254.48 102.96 253.41 120.75 252.78 131.38C252.61 134.23 252.47 136.48 252.35 137.81C252.29 138.53 252.22 139.51 252.15 140.7C251.56 149.86 250.19 171.3 240.91 190.61C234.71 203.51 231.19 207.63 229.49 209.61C228.31 210.99 227.92 211.45 228.46 213.09L228.49 213.16C228.52 213.23 228.86 213.82 229.87 214C230.05 214.03 230.25 214.05 230.47 214.05C232.75 214.05 237.26 212.13 246.06 203.98C261.17 189.99 266.76 158.07 267.64 146.95C267.75 145.57 267.86 144.06 267.99 142.45C268.93 130.27 270.34 111.87 272.74 98.66C275.11 85.61 280.22 67.84 297.12 64.16C313.33 60.63 318.39 59.81 318.53 59.78C318.65 59.74 321.61 58.63 323.63 54.49C325.53 50.61 330.85 45.14 330.89 45.1C330.93 45.06 331.9 44.11 331.59 42.95L331.6 42.96ZM328.75 41.9C325.98 43.83 323.02 48.55 321.19 51.5C320.77 52.17 320.41 52.75 320.14 53.15C318.72 55.26 315.22 55.61 315.19 55.61C315.16 55.61 314.89 55.64 314.18 55.75C314.89 53.35 317.49 45.63 322.53 41.03C324.88 41.16 326.81 41.37 327.95 41.65C328.25 41.72 328.51 41.8 328.76 41.89L328.75 41.9ZM321.15 40.97C315.96 46.18 313.56 54.16 313.08 55.93C311.83 56.14 309.87 56.48 306.92 57.05C306.95 53.53 308.91 43.98 312.69 40.91L312.67 40.88C315.61 40.82 318.57 40.85 321.15 40.96V40.97ZM299.14 59.91C301.03 59.33 302.87 58.86 304.6 58.52C305.09 58.42 305.55 58.33 306 58.25C306.16 59.69 306.44 60.58 306.71 61.11C304.99 61.47 303.05 61.88 300.86 62.35C300.46 62.08 299.35 61.2 299.14 59.91ZM299.11 58.87C299.27 55.78 300.55 46.46 302.86 41.45C305.27 41.18 308.22 41 311.25 40.91C307.73 44.78 305.87 53.68 305.93 57.23C305.45 57.32 304.94 57.42 304.41 57.53C302.72 57.86 300.94 58.31 299.11 58.86V58.87ZM306.99 58.05C309.75 57.52 311.65 57.18 312.92 56.97C312.8 58.34 313.04 59.22 313.32 59.76C311.85 60.05 310.02 60.42 307.75 60.89C307.55 60.59 307.17 59.79 306.99 58.05ZM299.08 42.07C299.8 41.89 300.69 41.73 301.7 41.59C299.41 47.04 298.17 56.51 298.1 59.19C295.76 59.95 293.37 60.89 291.03 62.03C290.98 59.2 290.95 49.14 292.95 44.12C295.32 43.16 297.45 42.47 299.08 42.06V42.07ZM283.93 48.74C286.56 47.07 289.23 45.72 291.69 44.65C289.82 50.4 289.98 60.37 290.04 62.52C288.02 63.55 286.05 64.73 284.21 66.06C283.57 63.78 281.64 55.82 283.93 48.75V48.74ZM290.24 63.53C290.51 64.23 290.94 64.73 291.31 65.07C289.06 66.12 287.07 67.45 285.3 68.99C285.06 68.6 284.72 67.94 284.5 67.09C286.31 65.76 288.24 64.57 290.24 63.53ZM282.64 49.58C280.64 57.19 282.87 65.17 283.35 66.7C281.36 68.22 279.54 69.92 277.98 71.8C277.04 70.4 274.54 65.57 275.92 55.18C277.96 53.05 280.26 51.18 282.64 49.57V49.58ZM268.87 94.05C266.97 92.43 261.37 87.54 260.31 85.23C261.15 82.67 262.1 80.05 263.14 77.44C265.22 82.07 269.5 86.31 270.51 87.27C269.85 89.57 269.31 91.86 268.87 94.05ZM263.67 76.11C264.92 73.06 266.3 70.07 267.75 67.27C268.38 73.56 272.3 78.58 273.23 79.68C272.29 81.79 271.49 83.98 270.82 86.18C269.32 84.69 265.27 80.41 263.67 76.11ZM273.99 80.42C274.82 81.05 275.87 81.44 276.51 81.64C275.58 83.78 274.81 85.98 274.15 88.18C273.37 88.1 272.09 87.81 271.6 87.04C272.26 84.8 273.04 82.56 273.99 80.41V80.42ZM274.42 79.48C275.38 77.43 276.48 75.47 277.77 73.7C278.24 74.71 279.06 75.24 279.78 75.47C278.7 77.14 277.76 78.91 276.92 80.72C276.32 80.54 275.16 80.12 274.42 79.48ZM274.76 56.45C273.66 66.83 276.41 71.44 277.32 72.64C277.22 72.77 277.12 72.89 277.02 73.02C275.74 74.76 274.65 76.67 273.69 78.67C272.35 76.96 268.64 71.67 268.66 65.57C270.59 62.05 272.64 58.9 274.76 56.46V56.45ZM259.89 86.5C261.9 89.45 267.46 94.19 268.64 95.18C268.12 97.93 267.72 100.49 267.4 102.66C265.45 101.43 259.5 97.48 257.74 94.09C257.79 93.86 257.85 93.61 257.9 93.39C258.45 91.22 259.11 88.9 259.88 86.5H259.89ZM268.93 119.63C268.5 119.65 267.6 119.56 266.65 118.8C266.87 116.36 267.09 114 267.32 111.79C268.29 112.2 269.18 112.38 269.72 112.46C269.44 114.83 269.18 117.23 268.94 119.63H268.93ZM268.15 127.88C267.68 127.97 266.73 128.02 265.91 127.32C266.11 124.87 266.33 122.38 266.54 119.95C267.42 120.49 268.25 120.63 268.83 120.63C268.59 123.07 268.36 125.5 268.15 127.88ZM266.98 142.39C266.89 143.52 266.81 144.57 266.73 145.59C265.97 145.66 264.85 145.64 264.38 145.26C264.51 144.08 264.63 142.89 264.73 141.66C264.85 140.25 264.98 138.72 265.11 137.14C265.88 137.41 266.78 137.49 267.36 137.51C267.23 139.23 267.1 140.87 266.98 142.41V142.39ZM257.44 184.43C257.14 184.56 256.33 184.71 255.08 183.37C256.12 180.65 257.14 177.62 258.16 174.22C258.25 173.93 258.33 173.65 258.41 173.36C259.16 173.99 260.3 174.33 261.02 174.48C259.99 177.81 258.8 181.18 257.44 184.43ZM255.1 112.64C260.08 117.11 264.33 118.89 265.59 119.36C265.37 121.82 265.16 124.33 264.95 126.82C262.9 125.97 256.24 123.01 254.52 119.68C254.69 117.38 254.88 115.01 255.1 112.64ZM266.47 110.24C264.11 109 258.15 105.79 256.18 102.95C256.55 100.25 256.96 97.71 257.43 95.48C259.96 99.14 265.89 102.91 267.25 103.74C266.99 105.57 266.73 107.78 266.47 110.24ZM266.29 111.28L266.36 111.32C266.13 113.52 265.91 115.89 265.69 118.33C264.19 117.74 259.97 115.81 255.22 111.41C255.45 109 255.71 106.62 256 104.33C258.63 107.26 264.3 110.24 266.29 111.29V111.28ZM264.86 127.87C264.68 130 264.51 132.09 264.35 134.09C264.31 134.61 264.27 135.13 264.22 135.64C262.44 134.87 257.24 132.44 253.89 129.11C254.04 126.72 254.2 124.07 254.4 121.29C257.1 124.61 263.3 127.25 264.86 127.87ZM264.14 136.69C264 138.4 263.86 140.05 263.74 141.56C263.65 142.63 263.55 143.66 263.44 144.69C261.57 143.78 255.92 140.88 253.35 137.69C253.47 136.33 253.6 134.16 253.76 131.44C253.78 131.11 253.8 130.75 253.82 130.41C257.55 133.8 262.77 136.11 264.14 136.68V136.69ZM263.32 145.75C263.11 147.58 262.87 149.35 262.6 151.08C260.92 150.45 255.81 148.36 252.82 145.22C252.95 143.53 253.05 142.03 253.13 140.77C253.17 140.14 253.21 139.58 253.24 139.08C256.35 142.35 261.9 145.08 263.32 145.75ZM261.39 157.78C259.61 156.82 254.2 153.81 252.24 151.57C252.44 149.77 252.59 148.08 252.72 146.53C256.06 149.64 261.06 151.59 262.44 152.09C262.12 154.03 261.77 155.92 261.38 157.78H261.39ZM252.1 152.85C254.64 155.26 259.79 158.06 261.18 158.8C260.78 160.67 260.34 162.52 259.87 164.37C258.48 164 254.17 162.59 251.31 158.72C251.62 156.67 251.88 154.71 252.1 152.86V152.85ZM259.62 165.34C259.07 167.44 258.49 169.55 257.87 171.69C256.56 171.37 252.52 170.17 249.82 166.86C250.32 164.53 250.74 162.25 251.09 160.06C254.12 163.65 258.19 164.97 259.62 165.34ZM257.58 172.65C257.46 173.07 257.33 173.49 257.2 173.92C256.21 177.25 255.21 180.21 254.2 182.87C252.97 182.49 249.28 181.09 247.01 177.64C248.02 174.4 248.85 171.19 249.54 168.08C252.38 171.16 256.17 172.31 257.57 172.65H257.58ZM253.84 183.81C252.79 186.47 251.72 188.82 250.59 190.92C249.5 190.52 246.26 189.07 244.27 185.4C245.14 183.22 245.92 181.03 246.63 178.85C249.06 182.07 252.51 183.4 253.84 183.82V183.81ZM250.96 192.32C251.78 193.02 252.46 193.33 252.98 193.45C251.58 195.84 250.05 198.06 248.38 200.05C247.98 199.84 247.27 199.4 246.48 198.68C247.2 197.86 247.81 197.12 248.25 196.53C249.19 195.24 250.09 193.85 250.96 192.31V192.32ZM253.51 192.51C253.2 192.51 252.48 192.35 251.45 191.41C252.57 189.32 253.64 187 254.69 184.37C255.46 185.09 256.22 185.48 256.96 185.5C256.96 185.5 256.97 185.5 256.98 185.5C255.93 187.93 254.78 190.28 253.52 192.5L253.51 192.51ZM258.74 172.23C259.39 170.02 259.99 167.85 260.55 165.68C261.68 166.19 262.63 166.44 263.21 166.56C262.65 168.83 262.02 171.16 261.31 173.52C260.32 173.32 259.07 172.87 258.74 172.23ZM260.81 164.69C261.27 162.88 261.7 161.06 262.1 159.22C262.84 159.49 263.54 159.58 264.11 159.58C264.36 159.58 264.57 159.56 264.77 159.54C264.39 161.46 263.96 163.48 263.46 165.57C262.92 165.46 261.96 165.21 260.82 164.68L260.81 164.69ZM264.96 158.5C264.47 158.59 263.44 158.67 262.31 158.22C262.71 156.31 263.07 154.38 263.4 152.4C264.28 152.64 265.3 152.69 265.94 152.69C265.68 154.45 265.36 156.4 264.96 158.49V158.5ZM267.42 110.72C267.68 108.28 267.93 106.07 268.19 104.23C269.08 104.6 269.94 104.71 270.55 104.71C270.62 104.71 270.68 104.71 270.74 104.71C270.42 106.9 270.12 109.16 269.84 111.47C269.31 111.39 268.38 111.19 267.43 110.74L267.42 110.72ZM241.79 191.05C242.5 189.57 243.17 188.07 243.79 186.57C245.87 189.91 248.84 191.33 250.1 191.81C249.25 193.31 248.37 194.68 247.44 195.95C247.01 196.53 246.4 197.27 245.66 198.1C244.77 197.65 242.23 196.18 240.54 193.59C240.94 192.78 241.35 191.94 241.78 191.05H241.79ZM242.39 205.9C240.68 207.37 239.18 208.56 237.88 209.5C237.54 209.34 237.06 209.06 236.79 208.68C238.1 207.39 239.53 205.97 240.94 204.55C241.48 205.21 241.99 205.64 242.39 205.9ZM234.03 205.19C234.8 204.02 235.67 202.62 236.64 200.92C237.51 202.18 239.24 203.33 240.17 203.89C238.81 205.27 237.43 206.64 236.16 207.89C235.48 207.25 234.41 206.1 234.03 205.19ZM236.07 209.38C236.33 209.7 236.65 209.95 236.96 210.14C235.29 211.28 233.97 212 232.93 212.44C233.75 211.65 234.85 210.59 236.08 209.39L236.07 209.38ZM240.89 203.15C239.77 202.49 237.68 201.07 237.22 199.88C238.08 198.35 239.01 196.6 240.02 194.59C241.69 196.91 243.9 198.28 244.96 198.85C243.78 200.15 242.36 201.64 240.88 203.15H240.89ZM230.11 213.03C229.62 212.97 229.42 212.78 229.36 212.71C229.02 211.67 229.11 211.57 230.22 210.26C230.93 209.42 231.98 208.2 233.39 206.14C233.97 207.12 234.91 208.08 235.44 208.59C233.2 210.78 231.41 212.5 230.86 213.03C230.56 213.06 230.31 213.06 230.11 213.03ZM245.35 203.24C244.59 203.95 243.87 204.59 243.17 205.2C242.85 205.03 242.26 204.62 241.63 203.82C243.15 202.27 244.6 200.75 245.81 199.41C246.55 200.09 247.24 200.54 247.7 200.81C246.94 201.67 246.16 202.49 245.35 203.24ZM266.08 151.68C265.49 151.68 264.41 151.65 263.55 151.4C263.81 149.74 264.05 148.04 264.25 146.29C264.8 146.52 265.45 146.6 266.02 146.6C266.25 146.6 266.46 146.59 266.64 146.57C266.64 146.66 266.62 146.77 266.62 146.86C266.52 148.15 266.34 149.78 266.08 151.68ZM267.43 136.46C266.79 136.44 265.82 136.35 265.19 136.05C265.24 135.42 265.29 134.78 265.35 134.14C265.5 132.3 265.66 130.39 265.82 128.45C266.43 128.79 267.05 128.9 267.57 128.9C267.75 128.9 267.92 128.89 268.07 128.87C267.84 131.5 267.63 134.05 267.44 136.46H267.43ZM270.88 103.67C270.36 103.7 269.34 103.67 268.33 103.18C268.33 103.16 268.33 103.13 268.34 103.1C268.65 101.02 269.02 98.56 269.51 95.91C270.31 96.42 271.4 96.67 272.05 96.78C271.94 97.35 271.83 97.91 271.73 98.47C271.43 100.13 271.14 101.87 270.87 103.67H270.88ZM272.25 95.8C271.36 95.65 270.2 95.32 269.72 94.81C270.14 92.66 270.65 90.42 271.27 88.15C272.05 88.79 273.16 89.03 273.86 89.12C273.22 91.38 272.69 93.63 272.25 95.8ZM280.36 74.56C279.88 74.47 278.83 74.1 278.5 72.73C279.98 70.88 281.71 69.21 283.62 67.72C283.9 68.61 284.28 69.28 284.53 69.66C282.96 71.14 281.58 72.79 280.36 74.56ZM296.89 63.18C295.26 63.54 293.73 64.02 292.3 64.61C291.99 64.39 291.39 63.87 291.12 63.08C293.45 61.93 295.83 60.98 298.16 60.21C298.38 61.27 299.03 62.08 299.59 62.6C298.73 62.79 297.83 62.98 296.89 63.18ZM330.17 44.38C329.95 44.61 324.69 50.02 322.72 54.04C320.9 57.76 318.24 58.8 318.27 58.8C318.23 58.8 317.11 58.99 314.34 59.53C314.12 59.24 313.71 58.43 313.91 56.78C314.9 56.62 315.25 56.59 315.26 56.59C315.42 56.58 319.26 56.2 320.95 53.69C321.23 53.27 321.59 52.69 322.02 52.01C323.83 49.12 327.14 43.81 329.85 42.37C330.27 42.62 330.54 42.9 330.62 43.2C330.78 43.79 330.2 44.37 330.18 44.39L330.17 44.38Z" fill="#676D80"/>
<path d="M259.63 165.35C258.2 164.98 254.14 163.67 251.1 160.07C250.74 162.26 250.32 164.53 249.83 166.87C252.53 170.17 256.57 171.38 257.88 171.7C258.5 169.56 259.09 167.45 259.63 165.35Z" fill="white"/>
<path d="M264.37 134.09C264.53 132.09 264.7 129.99 264.88 127.87C263.33 127.25 257.12 124.61 254.42 121.29C254.22 124.07 254.06 126.72 253.91 129.11C257.26 132.44 262.46 134.87 264.24 135.64C264.28 135.13 264.32 134.61 264.37 134.09Z" fill="white"/>
<path d="M253.77 131.45C253.61 134.17 253.48 136.34 253.36 137.7C255.93 140.89 261.57 143.79 263.45 144.7C263.56 143.67 263.66 142.63 263.75 141.57C263.88 140.05 264.01 138.41 264.15 136.7C262.77 136.13 257.55 133.82 253.83 130.43C253.81 130.77 253.79 131.13 253.77 131.46V131.45Z" fill="white"/>
<path d="M244.29 185.4C246.28 189.07 249.52 190.52 250.61 190.92C251.74 188.82 252.81 186.48 253.86 183.81C252.53 183.39 249.07 182.06 246.65 178.84C245.95 181.02 245.17 183.21 244.29 185.39V185.4Z" fill="white"/>
<path d="M312.67 40.89L312.69 40.92C308.91 43.98 306.95 53.54 306.92 57.06C309.86 56.49 311.82 56.15 313.08 55.94C313.56 54.17 315.97 46.19 321.15 40.98C318.57 40.87 315.61 40.84 312.67 40.9V40.89Z" fill="white"/>
<path d="M314.17 55.7598C314.89 55.6498 315.16 55.6198 315.18 55.6198C315.21 55.6198 318.71 55.2698 320.13 53.1598C320.4 52.7498 320.76 52.1798 321.18 51.5098C323.02 48.5598 325.98 43.8398 328.74 41.9098C328.49 41.8298 328.22 41.7498 327.93 41.6698C326.78 41.3898 324.86 41.1798 322.51 41.0498C317.47 45.6398 314.88 53.3598 314.16 55.7698L314.17 55.7598Z" fill="white"/>
<path d="M302.85 41.4602C300.54 46.4702 299.26 55.7902 299.1 58.8802C300.93 58.3202 302.72 57.8802 304.4 57.5502C304.93 57.4502 305.44 57.3502 305.92 57.2502C305.86 53.7002 307.72 44.8002 311.24 40.9302C308.2 41.0202 305.26 41.1902 302.85 41.4702V41.4602Z" fill="white"/>
<path d="M230.89 213.04C231.44 212.52 233.24 210.8 235.47 208.6C234.93 208.09 234 207.13 233.42 206.15C232.01 208.21 230.96 209.44 230.25 210.27C229.13 211.57 229.05 211.68 229.39 212.72C229.45 212.79 229.65 212.98 230.14 213.04C230.34 213.06 230.59 213.07 230.89 213.04Z" fill="white"/>
<path d="M247.03 177.65C249.3 181.1 252.99 182.5 254.22 182.88C255.23 180.22 256.22 177.26 257.22 173.93C257.35 173.5 257.47 173.08 257.6 172.66C256.2 172.32 252.41 171.17 249.57 168.09C248.88 171.2 248.04 174.41 247.04 177.65H247.03Z" fill="white"/>
<path d="M255.12 112.64C254.9 115 254.71 117.37 254.54 119.68C256.26 123.01 262.92 125.97 264.97 126.82C265.18 124.33 265.39 121.82 265.61 119.36C264.35 118.89 260.1 117.11 255.12 112.64Z" fill="white"/>
<path d="M277.99 71.8201C279.55 69.9301 281.37 68.2301 283.36 66.7201C282.88 65.1901 280.65 57.2001 282.65 49.6001C280.27 51.2101 277.98 53.0801 275.93 55.2101C274.55 65.6101 277.05 70.4401 277.99 71.8301V71.8201Z" fill="white"/>
<path d="M291.03 62.0401C293.37 60.9001 295.76 59.9601 298.1 59.2001C298.18 56.5201 299.41 47.0501 301.7 41.6001C300.69 41.7401 299.8 41.9001 299.08 42.0801C297.45 42.4901 295.32 43.1701 292.95 44.1401C290.95 49.1601 290.98 59.2101 291.03 62.0501V62.0401Z" fill="white"/>
<path d="M283.93 48.7499C281.64 55.8199 283.57 63.7899 284.21 66.0599C286.05 64.7299 288.02 63.5499 290.04 62.5199C289.98 60.3799 289.82 50.4099 291.69 44.6499C289.22 45.7199 286.56 47.0799 283.93 48.7399V48.7499Z" fill="white"/>
<path d="M240.19 203.9C239.27 203.34 237.53 202.19 236.66 200.93C235.68 202.63 234.82 204.03 234.05 205.2C234.42 206.11 235.5 207.26 236.18 207.9C237.45 206.65 238.83 205.28 240.19 203.9Z" fill="white"/>
<path d="M245.69 198.1C246.43 197.27 247.04 196.53 247.47 195.95C248.4 194.69 249.28 193.32 250.13 191.81C248.86 191.33 245.89 189.91 243.82 186.57C243.2 188.07 242.53 189.57 241.82 191.05C241.39 191.94 240.98 192.78 240.58 193.59C242.27 196.18 244.81 197.64 245.7 198.1H245.69Z" fill="white"/>
<path d="M252.25 151.57C254.21 153.81 259.62 156.82 261.4 157.78C261.79 155.92 262.14 154.03 262.46 152.09C261.07 151.59 256.08 149.64 252.74 146.53C252.61 148.08 252.46 149.77 252.26 151.57H252.25Z" fill="white"/>
<path d="M251.32 158.72C254.18 162.59 258.5 164.01 259.88 164.37C260.35 162.52 260.78 160.67 261.19 158.8C259.81 158.07 254.66 155.26 252.11 152.85C251.89 154.7 251.64 156.66 251.32 158.71V158.72Z" fill="white"/>
<path d="M240.05 194.61C239.04 196.61 238.1 198.37 237.25 199.9C237.71 201.08 239.8 202.51 240.92 203.17C242.4 201.66 243.81 200.18 245 198.87C243.94 198.31 241.73 196.93 240.06 194.61H240.05Z" fill="white"/>
<path d="M263.15 77.4399C262.11 80.0499 261.16 82.6699 260.32 85.2299C261.38 87.5499 266.98 92.4299 268.88 94.0499C269.32 91.8599 269.86 89.5699 270.52 87.2699C269.52 86.3199 265.23 82.0799 263.15 77.4399Z" fill="white"/>
<path d="M259.91 86.5C259.15 88.9 258.48 91.22 257.93 93.39C257.87 93.61 257.82 93.86 257.77 94.09C259.53 97.48 265.47 101.43 267.43 102.66C267.76 100.48 268.15 97.93 268.67 95.18C267.48 94.19 261.92 89.45 259.92 86.5H259.91Z" fill="white"/>
<path d="M263.33 145.75C261.9 145.08 256.36 142.35 253.25 139.08C253.22 139.58 253.18 140.14 253.14 140.77C253.06 142.03 252.96 143.53 252.83 145.22C255.82 148.35 260.93 150.45 262.61 151.08C262.88 149.35 263.12 147.57 263.33 145.75Z" fill="white"/>
<path d="M266.37 111.31L266.3 111.27C264.3 110.22 258.64 107.24 256.01 104.31C255.72 106.6 255.46 108.98 255.23 111.39C259.98 115.8 264.2 117.72 265.7 118.31C265.92 115.87 266.15 113.5 266.37 111.3V111.31Z" fill="white"/>
<path d="M266.49 110.24C266.75 107.78 267.01 105.57 267.27 103.74C265.91 102.91 259.98 99.14 257.45 95.48C256.98 97.71 256.57 100.25 256.2 102.95C258.17 105.79 264.13 109 266.49 110.24Z" fill="white"/>
<path d="M268.67 65.5599C268.66 71.6599 272.37 76.9499 273.7 78.6599C274.66 76.6599 275.75 74.7499 277.03 73.0099C277.12 72.8799 277.23 72.7599 277.33 72.6299C276.42 71.4299 273.67 66.8199 274.77 56.4399C272.65 58.8899 270.59 62.0299 268.67 65.5499V65.5599Z" fill="white"/>
<path d="M273.24 79.68C272.31 78.58 268.39 73.57 267.76 67.27C266.31 70.07 264.93 73.06 263.68 76.11C265.28 80.41 269.33 84.69 270.83 86.18C271.5 83.98 272.3 81.79 273.24 79.68Z" fill="white"/>
<path d="M257 185.51C257 185.51 256.99 185.51 256.98 185.51C256.24 185.49 255.48 185.1 254.71 184.38C253.67 187.01 252.6 189.33 251.47 191.42C252.5 192.36 253.22 192.51 253.53 192.52C254.79 190.29 255.94 187.94 256.99 185.52L257 185.51Z" fill="#DCDCDC"/>
<path d="M257.46 184.43C258.82 181.18 260.01 177.81 261.04 174.48C260.32 174.33 259.18 173.99 258.43 173.36C258.35 173.65 258.26 173.93 258.18 174.22C257.16 177.63 256.15 180.65 255.1 183.37C256.35 184.7 257.16 184.56 257.46 184.43Z" fill="#DCDCDC"/>
<path d="M263.23 166.56C262.65 166.44 261.7 166.19 260.57 165.68C260.01 167.85 259.4 170.02 258.76 172.23C259.09 172.87 260.34 173.32 261.33 173.52C262.04 171.16 262.67 168.83 263.23 166.56Z" fill="#DCDCDC"/>
<path d="M329.86 42.3899C327.16 43.8299 323.84 49.1399 322.03 52.0299C321.6 52.7199 321.24 53.2999 320.96 53.7099C319.27 56.2199 315.43 56.5999 315.27 56.6099C315.27 56.6099 314.92 56.6499 313.92 56.7999C313.72 58.4499 314.12 59.2599 314.35 59.5499C317.13 59.0099 318.24 58.8299 318.28 58.8199C318.25 58.8199 320.91 57.7799 322.73 54.0599C324.7 50.0299 329.96 44.6299 330.18 44.3999C330.2 44.3899 330.78 43.7999 330.62 43.2099C330.54 42.9199 330.27 42.6399 329.85 42.3799L329.86 42.3899Z" fill="#DCDCDC"/>
<path d="M246.51 198.69C247.29 199.41 248.01 199.84 248.41 200.06C250.07 198.07 251.6 195.85 253.01 193.46C252.5 193.34 251.81 193.04 250.99 192.33C250.12 193.86 249.22 195.26 248.28 196.55C247.85 197.14 247.24 197.87 246.51 198.7V198.69Z" fill="#DCDCDC"/>
<path d="M264.78 159.55C264.59 159.57 264.37 159.59 264.12 159.59C263.55 159.59 262.85 159.5 262.11 159.23C261.71 161.07 261.28 162.88 260.82 164.7C261.97 165.23 262.93 165.48 263.46 165.59C263.96 163.5 264.39 161.48 264.77 159.56L264.78 159.55Z" fill="#DCDCDC"/>
<path d="M266.65 146.89C266.65 146.8 266.67 146.69 266.67 146.6C266.48 146.61 266.28 146.63 266.05 146.63C265.48 146.63 264.83 146.55 264.28 146.32C264.07 148.07 263.84 149.77 263.58 151.43C264.44 151.68 265.52 151.72 266.11 151.71C266.37 149.81 266.55 148.18 266.65 146.89Z" fill="#DCDCDC"/>
<path d="M266.99 142.39C267.11 140.85 267.23 139.21 267.37 137.49C266.79 137.47 265.89 137.39 265.12 137.12C264.99 138.71 264.86 140.23 264.74 141.64C264.64 142.87 264.52 144.06 264.39 145.24C264.87 145.62 265.98 145.64 266.74 145.57C266.82 144.55 266.9 143.5 266.99 142.37V142.39Z" fill="#DCDCDC"/>
<path d="M265.96 152.71C265.32 152.71 264.3 152.65 263.42 152.42C263.09 154.4 262.73 156.34 262.33 158.24C263.47 158.69 264.49 158.61 264.98 158.52C265.38 156.42 265.7 154.47 265.96 152.72V152.71Z" fill="#DCDCDC"/>
<path d="M306.98 58.06C307.16 59.8 307.54 60.6 307.74 60.9C310.01 60.43 311.84 60.06 313.31 59.77C313.03 59.23 312.79 58.34 312.91 56.98C311.64 57.19 309.74 57.53 306.98 58.06Z" fill="#DCDCDC"/>
<path d="M299.14 59.91C299.35 61.19 300.46 62.07 300.86 62.35C303.05 61.88 305 61.47 306.71 61.11C306.44 60.58 306.15 59.69 306 58.25C305.55 58.34 305.09 58.43 304.6 58.52C302.87 58.86 301.02 59.33 299.14 59.91Z" fill="#DCDCDC"/>
<path d="M291.31 65.08C290.94 64.74 290.51 64.23 290.24 63.54C288.24 64.58 286.31 65.77 284.5 67.1C284.73 67.95 285.06 68.61 285.3 69C287.07 67.46 289.06 66.13 291.31 65.08Z" fill="#DCDCDC"/>
<path d="M237.9 209.51C239.2 208.57 240.7 207.38 242.41 205.91C242.01 205.65 241.49 205.22 240.96 204.56C239.56 205.98 238.13 207.4 236.81 208.69C237.08 209.07 237.56 209.35 237.9 209.51Z" fill="#DCDCDC"/>
<path d="M236.98 210.15C236.68 209.97 236.35 209.71 236.09 209.39C234.86 210.6 233.77 211.65 232.94 212.44C233.98 212 235.3 211.28 236.97 210.14L236.98 210.15Z" fill="#DCDCDC"/>
<path d="M247.73 200.83C247.26 200.56 246.57 200.11 245.84 199.43C244.63 200.77 243.18 202.29 241.66 203.84C242.28 204.64 242.88 205.05 243.2 205.22C243.9 204.61 244.61 203.97 245.38 203.26C246.19 202.51 246.98 201.69 247.73 200.83Z" fill="#DCDCDC"/>
<path d="M283.64 67.7397C281.73 69.2297 280 70.8997 278.52 72.7497C278.85 74.1197 279.9 74.4897 280.38 74.5798C281.6 72.8098 282.98 71.1597 284.55 69.6797C284.3 69.2997 283.92 68.6297 283.64 67.7397Z" fill="#DCDCDC"/>
<path d="M298.18 60.2197C295.85 60.9897 293.46 61.9497 291.14 63.0897C291.42 63.8797 292.02 64.3997 292.32 64.6197C293.75 64.0297 295.28 63.5497 296.91 63.1897C297.85 62.9897 298.74 62.7897 299.61 62.6097C299.04 62.0897 298.4 61.2797 298.18 60.2197Z" fill="#DCDCDC"/>
<path d="M267.58 128.93C267.06 128.93 266.44 128.82 265.83 128.48C265.67 130.42 265.51 132.34 265.36 134.17C265.31 134.82 265.26 135.45 265.2 136.08C265.83 136.37 266.8 136.47 267.44 136.49C267.63 134.07 267.84 131.53 268.07 128.9C267.92 128.92 267.75 128.93 267.57 128.93H267.58Z" fill="#DCDCDC"/>
<path d="M271.3 88.1797C270.67 90.4397 270.17 92.6897 269.75 94.8397C270.23 95.3397 271.39 95.6797 272.28 95.8297C272.72 93.6697 273.25 91.4197 273.89 89.1497C273.19 89.0597 272.09 88.8297 271.3 88.1797Z" fill="#DCDCDC"/>
<path d="M270.75 104.7C270.69 104.7 270.63 104.7 270.56 104.7C269.95 104.7 269.09 104.6 268.2 104.22C267.95 106.06 267.69 108.27 267.43 110.71C268.38 111.16 269.31 111.36 269.84 111.44C270.12 109.13 270.42 106.87 270.74 104.68L270.75 104.7Z" fill="#DCDCDC"/>
<path d="M271.76 98.4897C271.86 97.9397 271.97 97.3697 272.08 96.7997C271.42 96.6897 270.34 96.4397 269.54 95.9297C269.05 98.5797 268.68 101.04 268.37 103.12C268.37 103.14 268.37 103.17 268.36 103.2C269.37 103.7 270.39 103.73 270.91 103.69C271.18 101.89 271.47 100.15 271.77 98.4897H271.76Z" fill="#DCDCDC"/>
<path d="M268.17 127.88C268.38 125.5 268.6 123.08 268.85 120.63C268.27 120.63 267.44 120.48 266.56 119.95C266.34 122.38 266.13 124.87 265.93 127.32C266.75 128.02 267.7 127.97 268.17 127.88Z" fill="#DCDCDC"/>
<path d="M269.73 112.45C269.19 112.37 268.3 112.19 267.33 111.78C267.11 113.98 266.88 116.35 266.66 118.79C267.62 119.55 268.51 119.64 268.94 119.62C269.18 117.22 269.44 114.82 269.72 112.45H269.73Z" fill="#DCDCDC"/>
<path d="M274.17 88.1799C274.83 85.9799 275.61 83.7799 276.53 81.6399C275.89 81.4399 274.83 81.0499 274.01 80.4199C273.07 82.5699 272.28 84.7999 271.62 87.0499C272.11 87.8199 273.39 88.1099 274.17 88.1899V88.1799Z" fill="#DCDCDC"/>
<path d="M279.79 75.4599C279.08 75.2299 278.25 74.6899 277.78 73.6899C276.49 75.4599 275.39 77.4199 274.43 79.4699C275.17 80.1199 276.33 80.5299 276.93 80.7099C277.76 78.8899 278.71 77.1299 279.79 75.4599Z" fill="#DCDCDC"/>
</svg>
