<svg width="620" height="1074" viewBox="0 0 620 1074" fill="none" xmlns="http://www.w3.org/2000/svg">
<path d="M487.82 427.51C487.02 416.21 485.92 400.74 482.98 392.12C481.89 388.92 480.28 385.18 478.41 381.32C460.75 390.04 437.27 399.17 424.32 404.03C424.46 404.35 424.59 404.67 424.74 405C425.37 406.36 426.24 408.18 427.27 410.32C427.32 410.41 427.36 410.51 427.41 410.6C427.53 410.85 427.65 411.1 427.78 411.36C427.96 411.73 428.14 412.11 428.33 412.49C428.33 412.5 428.34 412.51 428.35 412.53C431.78 419.61 436.59 429.36 441.26 438.79C442.92 442.14 444.51 445.35 445.95 448.25C461.33 444.47 477.14 436 487.96 429.36C487.92 428.76 487.87 428.15 487.83 427.52L487.82 427.51Z" fill="#9FA7C4"/>
<path d="M433.81 400.42C434.78 409.63 436 419.52 437.47 428.88C432.43 418.68 427.75 409.11 425.65 404.57C425.51 404.27 425.38 403.98 425.26 403.68C427.79 402.73 430.67 401.63 433.81 400.42V400.42Z" fill="#848BA3"/>
<path d="M487.95 429.35C487.63 429.54 487.32 429.74 486.99 429.94C485.21 431.01 483.31 432.14 481.31 433.28C478.91 421.01 476.49 406.27 474.57 395.51C473.9 391.75 472.32 388.31 470.23 385.21C472.73 384.06 475.17 382.91 477.51 381.76C477.81 381.61 478.11 381.47 478.41 381.32C480.28 385.18 481.89 388.92 482.98 392.12C485.92 400.75 487.02 416.22 487.82 427.52C487.86 428.14 487.91 428.75 487.95 429.35V429.35Z" fill="#848BA3"/>
<path d="M430.68 406.13L446.85 442.83C446.85 442.83 479.68 433.06 484.04 425.92C484.04 425.92 479.27 394.2 475.44 388.07L430.67 406.14L430.68 406.13Z" fill="#F3EFF5"/>
<path d="M435.89 417.95L430.68 406.13L434.28 404.68C434.76 409.04 435.3 413.5 435.89 417.95V417.95Z" fill="#C4C2C6"/>
<path d="M484.04 425.92C483.41 426.96 482.17 428.06 480.52 429.17C478.39 417.83 476.28 405.09 474.57 395.51C474.18 393.31 473.47 391.22 472.53 389.24L475.44 388.07C479.27 394.19 484.04 425.92 484.04 425.92V425.92Z" fill="#C4C2C6"/>
<path d="M435.89 417.95L430.68 406.13L434.28 404.68C434.76 409.04 435.3 413.5 435.89 417.95V417.95Z" fill="#C4C2C6"/>
<path d="M484.04 425.92C483.41 426.96 482.17 428.06 480.52 429.17C478.39 417.83 476.28 405.09 474.57 395.51C474.18 393.31 473.47 391.22 472.53 389.24L475.44 388.07C479.27 394.19 484.04 425.92 484.04 425.92V425.92Z" fill="#C4C2C6"/>
</svg>
