<?xml version="1.0" encoding="UTF-8" standalone="no"?>
<!-- Generator: Adobe Illustrator 26.0.3, SVG Export Plug-In . SVG Version: 6.00 Build 0)  -->

<svg
   version="1.1"
   id="Слой_1"
   x="0px"
   y="0px"
   viewBox="0 0 486.98 987.15"
   style="enable-background:new 0 0 486.98 987.15;"
   xml:space="preserve"
   sodipodi:docname="М-09.svg"
   inkscape:version="1.1.1 (3bf5ae0d25, 2021-09-20)"
   xmlns:inkscape="http://www.inkscape.org/namespaces/inkscape"
   xmlns:sodipodi="http://sodipodi.sourceforge.net/DTD/sodipodi-0.dtd"
   xmlns="http://www.w3.org/2000/svg"
   xmlns:svg="http://www.w3.org/2000/svg"><defs
   id="defs23724">
	
	
</defs><sodipodi:namedview
   id="namedview23722"
   pagecolor="#ffffff"
   bordercolor="#666666"
   borderopacity="1.0"
   inkscape:pageshadow="2"
   inkscape:pageopacity="0.0"
   inkscape:pagecheckerboard="0"
   showgrid="false"
   inkscape:zoom="0.84283035"
   inkscape:cx="243.82131"
   inkscape:cy="494.16825"
   inkscape:window-width="1920"
   inkscape:window-height="1017"
   inkscape:window-x="-8"
   inkscape:window-y="-8"
   inkscape:window-maximized="1"
   inkscape:current-layer="Слой_1" />
<style
   type="text/css"
   id="style23581">
	.st0{fill:#F6D3BD;}
	.st1{fill:#C4A996;}
	.st2{fill:#ED1C24;}
	.st3{fill:#998475;}
	.st4{fill:#BDB7B2;}
	.st5{fill:#E7E3E0;}
	.st6{fill:#4F5260;}
	.st7{fill:#555968;}
	.st8{fill:url(#SVGID_1_);}
	.st9{fill:url(#SVGID_00000098210105775915098980000012738387977113828225_);}
	.st10{fill:url(#SVGID_00000002367723682191496080000012974780446493580724_);}
	.st11{fill:url(#SVGID_00000165203055771862030710000003054511281474418564_);}
	.st12{fill:#63687A;}
	.st13{fill:#AEA89F;}
	.st14{fill:none;stroke:#998475;stroke-width:2;stroke-miterlimit:10;}
	.st15{fill:#FFFFFF;}
	.st16{fill:#1D1D1B;}
	.st17{fill:#E6E6E6;}
	.st18{fill:#333333;}
	.st19{fill:#4D4D4D;}
	.st20{fill:#1A1A1A;}
	.st21{fill:#A8A199;}
	.st22{fill:#E2D6CE;}
	.st23{fill:url(#SVGID_00000017515257250401794380000001030522349513370247_);}
	.st24{fill:url(#SVGID_00000093895443459378411980000002599615131938418619_);}
	.st25{fill:url(#SVGID_00000083071387285627388390000007121246438388129440_);}
	.st26{fill:url(#SVGID_00000015333811527151062000000011734331646673352861_);}
	.st27{fill:#555451;}
	.st28{fill:#578BAA;}
	.st29{fill:#6BABD1;}
	.st30{fill:#A6A6A6;}
	.st31{fill:#F3EFF5;}
	.st32{fill:#D4D1D6;}
	.st33{fill:#848BA3;}
	.st34{fill:#676D80;}
	.st35{fill:#9FA7C4;}
	.st36{fill:#BEBBBF;}
	.st37{fill:url(#SVGID_00000052799591721668849670000013529763746856526009_);}
	.st38{fill:url(#SVGID_00000116207451012378560550000015972012972331049914_);}
	.st39{fill:url(#SVGID_00000157301882026220772630000011971027364012679871_);}
	.st40{fill:url(#SVGID_00000162346762317279428990000003581355377201911958_);}
	.st41{fill:url(#SVGID_00000016785199370282122950000000085825797604536707_);}
	.st42{fill:url(#SVGID_00000121974282605027332480000009674635350757403839_);}
	.st43{fill:url(#SVGID_00000098217671485006957520000014616654081343870120_);}
	.st44{fill:url(#SVGID_00000147213653716477075820000017373232430604530346_);}
	.st45{fill:url(#SVGID_00000172417482296115372830000012799259543298001848_);}
	.st46{fill:url(#SVGID_00000153693600378318888120000011747105053416956067_);}
	.st47{fill:url(#SVGID_00000075845447497435011270000003817911387087982765_);}
	.st48{fill:url(#SVGID_00000083789460890739692280000013579135805654395559_);}
	.st49{fill:url(#SVGID_00000046306506124398012370000012837833578171525768_);}
	.st50{fill:url(#SVGID_00000176004757463809187300000012833458657475962556_);}
</style>
<g
   id="g23717">
		<g
   id="g23693">
			<path
   class="st27"
   d="m 340.51,745.79 v 70.67 c -3.73,0.39 -7.41,0.72 -11.03,0.99 -1.41,0.11 -2.82,0.21 -4.21,0.3 -1.38,0.09 -2.77,0.17 -4.14,0.25 -1.38,0.08 -2.73,0.15 -4.08,0.2 -2.7,0.13 -5.34,0.22 -7.93,0.28 -1.29,0.04 -2.58,0.07 -3.84,0.08 -1.27,0.02 -2.52,0.04 -3.75,0.05 -2.88,0.03 -5.67,0.02 -8.36,-0.01 -1.54,-0.02 -3.04,-0.04 -4.5,-0.07 -1.48,-0.04 -2.91,-0.07 -4.31,-0.11 -0.97,-0.03 -1.94,-0.07 -2.88,-0.1 -1.08,-0.04 -2.13,-0.08 -3.15,-0.13 -2.68,-0.12 -5.2,-0.26 -7.5,-0.4 -0.78,-0.05 -1.53,-0.1 -2.27,-0.15 -0.73,-0.05 -1.44,-0.1 -2.13,-0.15 -5.07,-0.38 -8.84,-0.76 -11.02,-1 v -70.7 H 244.3 V 987.15 H 351.6 V 745.79 Z m 0,230.81 h -85.1 V 893 c 6.08,0.66 21.88,2.12 42.64,2.12 12.66,0 27.17,-0.56 42.46,-2.15 z m 0,-87.5 c -3.73,0.39 -7.41,0.72 -11.03,1 -0.09,0.01 -0.19,0.01 -0.29,0.02 -0.93,0.07 -1.86,0.13 -2.78,0.19 -0.92,0.07 -1.82,0.13 -2.74,0.18 -0.91,0.06 -1.82,0.11 -2.71,0.16 -1.81,0.1 -3.59,0.18 -5.35,0.25 -0.52,0.03 -1.05,0.05 -1.56,0.06 -0.36,0.02 -0.71,0.03 -1.06,0.04 -0.88,0.03 -1.74,0.06 -2.6,0.08 -0.61,0.02 -1.22,0.04 -1.82,0.05 -0.59,0.02 -1.19,0.03 -1.78,0.04 l -1.38,0.03 h -0.09 c -1.67,0.03 -3.31,0.04 -4.92,0.05 -1.7,0.01 -3.38,0.01 -5.02,0 -0.19,0 -0.38,0 -0.58,-0.01 -2.06,-0.01 -4.07,-0.03 -6.03,-0.08 -0.53,-0.01 -1.05,-0.02 -1.57,-0.04 -0.17,0 -0.33,0 -0.51,-0.01 -0.4,0 -0.81,-0.02 -1.21,-0.03 -0.35,-0.01 -0.69,-0.02 -1.03,-0.03 -1.57,-0.05 -3.11,-0.1 -4.58,-0.16 -0.55,-0.02 -1.08,-0.05 -1.61,-0.07 -0.22,-0.01 -0.43,-0.02 -0.64,-0.03 -0.78,-0.04 -1.53,-0.08 -2.28,-0.11 -0.84,-0.05 -1.67,-0.09 -2.48,-0.14 -0.21,-0.01 -0.42,-0.02 -0.62,-0.04 -0.11,0 -0.21,-0.01 -0.31,-0.01 -0.25,-0.02 -0.49,-0.03 -0.74,-0.05 -0.11,0 -0.23,-0.01 -0.34,-0.02 -0.79,-0.05 -1.54,-0.1 -2.28,-0.15 -0.73,-0.05 -1.45,-0.1 -2.14,-0.15 -2.54,-0.19 -4.74,-0.38 -6.59,-0.55 -0.38,-0.04 -0.74,-0.07 -1.09,-0.11 -0.38,-0.03 -0.73,-0.07 -1.07,-0.1 -0.3,-0.03 -0.6,-0.06 -0.87,-0.09 -0.52,-0.05 -0.99,-0.1 -1.4,-0.15 V 873.2 c 1.17,0.12 2.69,0.28 4.54,0.44 0.46,0.05 0.94,0.09 1.44,0.13 l 0.33,0.03 c 0.33,0.03 0.67,0.06 1.02,0.09 1.14,0.1 2.38,0.19 3.69,0.29 0.29,0.02 0.58,0.04 0.88,0.06 0.05,0.01 0.12,0.01 0.18,0.01 0.15,0.02 0.3,0.03 0.46,0.04 0.7,0.05 1.41,0.09 2.15,0.14 0.18,0.01 0.37,0.03 0.56,0.03 0.1,0.01 0.2,0.02 0.3,0.02 0.09,0.01 0.17,0.02 0.26,0.02 0.55,0.04 1.12,0.07 1.68,0.1 0.39,0.02 0.76,0.04 1.14,0.06 0.81,0.05 1.64,0.09 2.49,0.13 0.17,0.01 0.33,0.02 0.51,0.02 1.01,0.05 2.06,0.1 3.15,0.14 0.07,0 0.14,0.01 0.21,0.01 1.01,0.04 2.03,0.08 3.08,0.11 1.72,0.06 3.51,0.11 5.34,0.14 1.16,0.03 2.33,0.05 3.52,0.06 0.64,0.01 1.27,0.02 1.92,0.02 0.29,0.01 0.6,0.01 0.9,0.01 0.96,0.01 1.92,0.01 2.89,0.01 2.21,0 4.48,-0.02 6.8,-0.05 0.18,-0.01 0.34,-0.01 0.52,-0.01 0.65,-0.01 1.3,-0.03 1.95,-0.04 0.34,-0.01 0.69,-0.02 1.03,-0.03 0.15,0 0.3,0 0.45,-0.01 0.15,0 0.29,0 0.45,-0.01 0.39,-0.01 0.78,-0.02 1.18,-0.03 0.5,-0.01 1,-0.03 1.51,-0.05 0.4,-0.01 0.81,-0.03 1.21,-0.04 1.31,-0.04 2.63,-0.09 3.98,-0.16 0.31,-0.01 0.6,-0.02 0.91,-0.04 0.33,-0.01 0.65,-0.03 1,-0.05 0.41,-0.01 0.81,-0.04 1.23,-0.06 0.4,-0.02 0.81,-0.04 1.22,-0.07 1.01,-0.05 2.02,-0.11 3.05,-0.18 0.63,-0.03 1.26,-0.07 1.89,-0.12 1.01,-0.06 2.03,-0.13 3.05,-0.21 3.62,-0.28 7.3,-0.6 11.03,-0.99 z m 0,-19.81 c -40.91,4.31 -76.28,1 -85.1,0.03 v -48.97 c 6.08,0.66 21.88,2.11 42.64,2.11 12.66,0 27.17,-0.55 42.46,-2.14 z"
   id="path23691" />
		</g>
		<g
   id="g23715">
			<path
   class="st27"
   d="m 267.49,874.25 c -0.06,0 -0.13,0 -0.18,-0.01 -0.3,-0.02 -0.59,-0.04 -0.88,-0.06 0.38,0.03 0.78,0.06 1.18,0.09 0.11,0 0.23,0.01 0.34,0.02 -0.16,0 -0.31,-0.02 -0.46,-0.04 z m -12.08,-78.69 v 3.88 c 2.33,0.25 6.09,0.62 11.02,0.98 4.15,0.3 9.12,0.6 14.76,0.81 0.58,0.02 1.16,0.04 1.75,0.06 1.2,0.05 2.44,0.08 3.7,0.11 0.72,0.02 1.44,0.04 2.18,0.05 1.15,0.03 2.33,0.05 3.52,0.06 1.86,0.03 3.76,0.04 5.71,0.04 1.59,0 3.19,-0.01 4.83,-0.03 0.41,0 0.82,-0.01 1.24,-0.01 1.05,-0.02 2.12,-0.04 3.2,-0.06 0.26,0 0.54,-0.01 0.8,-0.02 0.77,-0.01 1.53,-0.03 2.31,-0.06 0.25,0 0.5,-0.01 0.76,-0.02 1.59,-0.05 3.21,-0.11 4.85,-0.18 0.74,-0.03 1.49,-0.06 2.26,-0.1 0.66,-0.03 1.31,-0.06 1.99,-0.1 0.66,-0.03 1.33,-0.07 2,-0.11 1.37,-0.07 2.74,-0.16 4.14,-0.26 4.6,-0.31 9.3,-0.71 14.08,-1.2 v -3.87 c -40.91,4.3 -76.28,0.99 -85.1,0.03 z"
   id="path23695" />
			<g
   id="g23703">
				<g
   id="g23701">
					<path
   class="st36"
   d="m 340.51,873.17 v 15.94 c -3.73,0.39 -7.4,0.72 -11.02,1 -0.1,0.01 -0.2,0.01 -0.3,0.02 -0.93,0.07 -1.86,0.13 -2.78,0.19 -0.92,0.07 -1.83,0.13 -2.74,0.18 -0.91,0.06 -1.81,0.11 -2.71,0.16 -1.8,0.09 -3.59,0.18 -5.35,0.25 -0.52,0.03 -1.05,0.05 -1.56,0.06 -0.36,0.02 -0.71,0.03 -1.06,0.04 -0.87,0.03 -1.74,0.06 -2.59,0.08 -0.61,0.02 -1.22,0.04 -1.83,0.05 -0.59,0.02 -1.19,0.03 -1.78,0.04 l -1.38,0.03 h -0.09 c -1.67,0.03 -3.31,0.04 -4.92,0.05 -1.71,0.01 -3.38,0.01 -5.02,0 -0.2,0 -0.38,0 -0.58,-0.01 -2.07,-0.01 -4.08,-0.03 -6.04,-0.08 -0.52,-0.01 -1.05,-0.02 -1.56,-0.04 -0.18,0 -0.34,0 -0.51,-0.01 -0.4,0 -0.81,-0.02 -1.21,-0.03 -0.35,-0.01 -0.69,-0.02 -1.03,-0.03 -1.57,-0.05 -3.11,-0.1 -4.58,-0.16 -0.55,-0.02 -1.08,-0.05 -1.61,-0.07 -0.22,-0.01 -0.43,-0.02 -0.64,-0.03 -0.78,-0.04 -1.53,-0.08 -2.27,-0.11 -0.84,-0.05 -1.67,-0.09 -2.48,-0.14 -0.21,-0.01 -0.42,-0.02 -0.62,-0.04 -0.35,-0.02 -0.7,-0.04 -1.05,-0.06 -0.11,0 -0.23,-0.01 -0.34,-0.02 -0.79,-0.05 -1.54,-0.1 -2.27,-0.15 -0.73,-0.05 -1.45,-0.1 -2.14,-0.15 -2.54,-0.19 -4.75,-0.38 -6.59,-0.55 -0.38,-0.04 -0.74,-0.07 -1.09,-0.11 -0.37,-0.03 -0.72,-0.07 -1.06,-0.1 -0.31,-0.03 -0.6,-0.06 -0.87,-0.09 -0.52,-0.05 -0.99,-0.1 -1.4,-0.15 v -15.92 c 1.17,0.12 2.69,0.28 4.54,0.44 0.46,0.05 0.94,0.09 1.44,0.13 0.11,0.01 0.22,0.02 0.33,0.03 0.33,0.03 0.67,0.06 1.02,0.09 1.15,0.1 2.38,0.19 3.7,0.29 0.28,0.02 0.58,0.04 0.87,0.06 0.22,0.02 0.43,0.03 0.65,0.05 0.7,0.05 1.41,0.09 2.15,0.14 0.18,0.01 0.36,0.03 0.56,0.03 0.1,0.01 0.2,0.02 0.3,0.02 0.09,0.01 0.17,0.02 0.26,0.02 0.55,0.04 1.12,0.07 1.68,0.1 0.38,0.02 0.75,0.04 1.14,0.06 0.81,0.05 1.64,0.09 2.49,0.13 0.16,0.01 0.33,0.02 0.5,0.02 1.02,0.05 2.07,0.1 3.15,0.14 0.08,0 0.14,0.01 0.22,0.01 1.01,0.04 2.02,0.08 3.07,0.11 1.73,0.06 3.51,0.11 5.35,0.14 1.16,0.03 2.33,0.05 3.52,0.06 0.63,0.01 1.27,0.02 1.91,0.02 0.3,0.01 0.6,0.01 0.91,0.01 0.95,0.01 1.91,0.01 2.89,0.01 2.21,0 4.48,-0.02 6.8,-0.05 0.17,-0.01 0.34,-0.01 0.51,-0.01 0.66,-0.01 1.3,-0.03 1.96,-0.04 0.19,-0.01 0.37,-0.01 0.56,-0.01 0.45,-0.01 0.91,-0.02 1.37,-0.04 0.39,-0.01 0.79,-0.02 1.18,-0.03 0.5,-0.01 1.01,-0.03 1.51,-0.05 0.4,-0.01 0.81,-0.03 1.21,-0.04 1.31,-0.04 2.63,-0.09 3.98,-0.16 0.31,-0.01 0.6,-0.02 0.91,-0.04 0.33,-0.01 0.66,-0.03 1.01,-0.05 0.4,-0.01 0.81,-0.04 1.22,-0.06 0.4,-0.02 0.81,-0.04 1.22,-0.07 1.01,-0.05 2.02,-0.11 3.05,-0.18 0.62,-0.03 1.26,-0.07 1.89,-0.12 1.01,-0.06 2.02,-0.13 3.05,-0.21 3.58,-0.28 7.26,-0.6 10.99,-0.99 z"
   id="path23697" />
					<path
   class="st36"
   d="m 340.51,799.4 v 17.06 c -3.73,0.39 -7.4,0.72 -11.02,0.99 -1.41,0.11 -2.82,0.21 -4.21,0.3 -1.39,0.09 -2.78,0.17 -4.14,0.25 -1.38,0.07 -2.73,0.14 -4.08,0.2 -2.7,0.13 -5.35,0.22 -7.94,0.28 -1.29,0.03 -2.57,0.06 -3.84,0.08 -1.27,0.02 -2.51,0.04 -3.75,0.05 -2.88,0.03 -5.66,0.02 -8.35,-0.01 -1.54,-0.02 -3.04,-0.04 -4.5,-0.07 -1.48,-0.03 -2.91,-0.07 -4.31,-0.11 -0.97,-0.03 -1.95,-0.07 -2.89,-0.1 -1.07,-0.04 -2.12,-0.08 -3.15,-0.13 -2.68,-0.12 -5.19,-0.26 -7.5,-0.4 -0.78,-0.05 -1.53,-0.1 -2.26,-0.15 -0.73,-0.05 -1.44,-0.1 -2.13,-0.15 -5.07,-0.38 -8.85,-0.76 -11.02,-1 v -17.05 c 2.33,0.25 6.09,0.62 11.02,0.98 4.14,0.3 9.12,0.6 14.76,0.81 0.58,0.02 1.16,0.04 1.75,0.06 1.2,0.05 2.44,0.08 3.7,0.11 0.72,0.02 1.44,0.04 2.19,0.05 1.15,0.03 2.33,0.05 3.52,0.06 1.86,0.03 3.76,0.04 5.71,0.04 1.59,0 3.19,-0.01 4.83,-0.03 0.4,0 0.82,-0.01 1.24,-0.01 1.05,-0.02 2.12,-0.04 3.2,-0.06 0.26,0 0.54,-0.01 0.8,-0.02 0.77,-0.01 1.53,-0.03 2.31,-0.06 0.25,0 0.5,-0.01 0.77,-0.02 1.59,-0.05 3.2,-0.11 4.84,-0.18 0.74,-0.03 1.5,-0.06 2.26,-0.1 0.66,-0.03 1.31,-0.06 1.99,-0.1 0.66,-0.03 1.33,-0.07 2,-0.11 1.37,-0.07 2.74,-0.16 4.14,-0.26 4.58,-0.31 9.28,-0.71 14.06,-1.2 z"
   id="path23699" />
				</g>
			</g>
			<path
   class="st31"
   d="m 329.49,800.39 v 17.06 c -1.41,0.11 -2.82,0.21 -4.21,0.3 -1.39,0.09 -2.78,0.17 -4.14,0.25 -1.38,0.07 -2.73,0.14 -4.08,0.2 -2.7,0.12 -5.35,0.21 -7.94,0.28 -1.29,0.03 -2.57,0.06 -3.84,0.08 -1.27,0.02 -2.51,0.04 -3.75,0.05 -2.88,0.02 -5.66,0.02 -8.35,-0.01 -1.54,-0.02 -3.04,-0.04 -4.5,-0.07 -1.48,-0.04 -2.91,-0.07 -4.31,-0.11 -0.97,-0.03 -1.95,-0.07 -2.89,-0.1 -1.07,-0.04 -2.12,-0.08 -3.15,-0.13 -2.68,-0.12 -5.19,-0.26 -7.5,-0.4 -0.78,-0.05 -1.53,-0.1 -2.26,-0.15 -0.73,-0.05 -1.44,-0.1 -2.13,-0.15 v -17.07 c 4.14,0.3 9.12,0.6 14.76,0.81 0.58,0.02 1.16,0.04 1.75,0.06 1.2,0.05 2.44,0.08 3.7,0.11 0.72,0.02 1.44,0.04 2.19,0.05 1.15,0.03 2.33,0.05 3.52,0.06 1.86,0.03 3.76,0.04 5.71,0.04 1.59,0 3.19,-0.01 4.83,-0.03 0.4,0 0.82,-0.01 1.24,-0.01 1.05,-0.02 2.12,-0.04 3.2,-0.06 0.26,0 0.54,-0.01 0.8,-0.02 0.77,-0.01 1.53,-0.03 2.31,-0.06 0.25,0 0.5,-0.01 0.77,-0.02 1.59,-0.05 3.2,-0.11 4.84,-0.18 0.74,-0.03 1.5,-0.06 2.26,-0.1 0.66,-0.03 1.31,-0.06 1.99,-0.1 0.66,-0.03 1.33,-0.07 2,-0.11 1.37,-0.07 2.74,-0.16 4.14,-0.26 1,-0.06 2.02,-0.13 3.04,-0.21 z"
   id="path23705" />
			<path
   class="st31"
   d="m 329.49,874.16 v 15.95 c -0.1,0.01 -0.2,0.01 -0.3,0.02 -0.93,0.07 -1.86,0.13 -2.78,0.19 -0.92,0.07 -1.83,0.13 -2.74,0.18 -0.91,0.06 -1.81,0.11 -2.71,0.16 -1.8,0.09 -3.59,0.18 -5.35,0.25 -0.52,0.03 -1.05,0.05 -1.56,0.06 -0.36,0.02 -0.71,0.03 -1.06,0.04 -0.87,0.03 -1.74,0.06 -2.59,0.08 -0.61,0.02 -1.22,0.04 -1.83,0.05 -0.59,0.02 -1.19,0.03 -1.78,0.04 l -1.38,0.03 h -0.09 c -1.67,0.03 -3.31,0.04 -4.92,0.05 -1.71,0.01 -3.38,0.01 -5.02,0 -0.2,0 -0.38,0 -0.58,-0.01 -2.07,-0.01 -4.08,-0.03 -6.04,-0.08 -0.52,-0.01 -1.05,-0.02 -1.56,-0.04 -0.18,0 -0.34,0 -0.51,-0.01 -0.4,0 -0.81,-0.02 -1.21,-0.03 -0.35,-0.01 -0.69,-0.02 -1.03,-0.03 -1.57,-0.05 -3.11,-0.1 -4.58,-0.16 -0.55,-0.02 -1.08,-0.05 -1.61,-0.07 -0.22,-0.01 -0.43,-0.02 -0.64,-0.03 -0.78,-0.04 -1.53,-0.08 -2.27,-0.11 -0.84,-0.05 -1.67,-0.09 -2.48,-0.14 -0.21,-0.01 -0.42,-0.02 -0.62,-0.04 -0.11,0 -0.21,-0.01 -0.31,-0.01 -0.25,-0.02 -0.49,-0.03 -0.74,-0.05 -0.11,0 -0.23,-0.01 -0.34,-0.02 -0.79,-0.05 -1.54,-0.1 -2.27,-0.15 -0.73,-0.05 -1.45,-0.1 -2.14,-0.15 v -15.94 c 0.28,0.02 0.58,0.04 0.87,0.06 0.1,0.01 0.21,0.02 0.31,0.03 0.11,0 0.23,0.01 0.34,0.02 0.7,0.05 1.41,0.09 2.15,0.14 0.18,0.01 0.36,0.03 0.56,0.03 0.1,0.01 0.2,0.02 0.3,0.02 0.09,0.01 0.17,0.02 0.26,0.02 0.55,0.04 1.12,0.07 1.68,0.1 0.38,0.02 0.75,0.04 1.14,0.06 0.81,0.05 1.64,0.09 2.49,0.13 0.16,0.01 0.33,0.02 0.5,0.02 1.02,0.05 2.07,0.1 3.15,0.14 0.08,0 0.14,0.01 0.22,0.01 1.01,0.04 2.02,0.08 3.07,0.11 1.73,0.06 3.51,0.11 5.35,0.14 1.16,0.03 2.33,0.05 3.52,0.06 0.63,0.01 1.27,0.02 1.91,0.02 0.3,0.01 0.6,0.01 0.91,0.01 0.95,0.01 1.91,0.01 2.89,0.01 2.21,0 4.48,-0.02 6.8,-0.05 0.17,-0.01 0.34,-0.01 0.51,-0.01 0.66,-0.01 1.3,-0.03 1.96,-0.04 0.19,-0.01 0.37,-0.01 0.56,-0.01 0.15,-0.01 0.31,-0.01 0.47,-0.02 0.3,0 0.59,-0.01 0.9,-0.02 0.39,-0.01 0.79,-0.02 1.18,-0.03 0.5,-0.01 1.01,-0.03 1.51,-0.05 0.4,-0.01 0.81,-0.03 1.21,-0.04 1.31,-0.04 2.63,-0.09 3.98,-0.16 0.31,-0.01 0.6,-0.02 0.91,-0.04 0.33,-0.01 0.66,-0.03 1.01,-0.05 0.4,-0.01 0.81,-0.04 1.22,-0.06 0.4,-0.02 0.81,-0.04 1.22,-0.07 1.01,-0.05 2.02,-0.11 3.05,-0.18 0.62,-0.03 1.26,-0.07 1.89,-0.12 0.99,-0.06 2.01,-0.13 3.04,-0.21 z"
   id="path23707" />
			<g
   id="g23713">
				<path
   class="st31"
   d="m 329.49,874.16 v 15.95 c -0.1,0.01 -0.2,0.01 -0.3,0.02 -0.93,0.07 -1.86,0.13 -2.78,0.19 -0.92,0.07 -1.83,0.13 -2.74,0.18 -0.91,0.06 -1.81,0.11 -2.71,0.16 -1.8,0.09 -3.59,0.18 -5.35,0.25 -0.52,0.03 -1.05,0.05 -1.56,0.06 -0.36,0.02 -0.71,0.03 -1.06,0.04 -0.87,0.03 -1.74,0.06 -2.59,0.08 -0.61,0.02 -1.22,0.04 -1.83,0.05 -0.59,0.02 -1.19,0.03 -1.78,0.04 l -1.38,0.03 h -0.09 c -1.67,0.03 -3.31,0.04 -4.92,0.05 -1.71,0.01 -3.38,0.01 -5.02,0 -0.2,0 -0.38,0 -0.58,-0.01 -2.07,-0.01 -4.08,-0.03 -6.04,-0.08 -0.52,-0.01 -1.05,-0.02 -1.56,-0.04 -0.18,0 -0.34,0 -0.51,-0.01 -0.4,0 -0.81,-0.02 -1.21,-0.03 -0.35,-0.01 -0.69,-0.02 -1.03,-0.03 -1.57,-0.05 -3.11,-0.1 -4.58,-0.16 -0.55,-0.02 -1.08,-0.05 -1.61,-0.07 -0.22,-0.01 -0.43,-0.02 -0.64,-0.03 -0.78,-0.04 -1.53,-0.08 -2.27,-0.11 -0.84,-0.05 -1.67,-0.09 -2.48,-0.14 -0.21,-0.01 -0.42,-0.02 -0.62,-0.04 -0.11,0 -0.21,-0.01 -0.31,-0.01 -0.25,-0.02 -0.49,-0.03 -0.74,-0.05 -0.11,0 -0.23,-0.01 -0.34,-0.02 -0.79,-0.05 -1.54,-0.1 -2.27,-0.15 -0.73,-0.05 -1.45,-0.1 -2.14,-0.15 v -15.94 c 0.28,0.02 0.58,0.04 0.87,0.06 0.1,0.01 0.21,0.02 0.31,0.03 0.11,0 0.23,0.01 0.34,0.02 0.7,0.05 1.41,0.09 2.15,0.14 0.18,0.01 0.36,0.03 0.56,0.03 0.1,0.01 0.2,0.02 0.3,0.02 0.09,0.01 0.17,0.02 0.26,0.02 0.55,0.04 1.12,0.07 1.68,0.1 0.38,0.02 0.75,0.04 1.14,0.06 0.81,0.05 1.64,0.09 2.49,0.13 0.16,0.01 0.33,0.02 0.5,0.02 1.02,0.05 2.07,0.1 3.15,0.14 0.08,0 0.14,0.01 0.22,0.01 1.01,0.04 2.02,0.08 3.07,0.11 1.73,0.06 3.51,0.11 5.35,0.14 1.16,0.03 2.33,0.05 3.52,0.06 0.63,0.01 1.27,0.02 1.91,0.02 0.3,0.01 0.6,0.01 0.91,0.01 0.95,0.01 1.91,0.01 2.89,0.01 2.21,0 4.48,-0.02 6.8,-0.05 0.17,-0.01 0.34,-0.01 0.51,-0.01 0.66,-0.01 1.3,-0.03 1.96,-0.04 0.19,-0.01 0.37,-0.01 0.56,-0.01 0.15,-0.01 0.31,-0.01 0.47,-0.02 0.3,0 0.59,-0.01 0.9,-0.02 0.39,-0.01 0.79,-0.02 1.18,-0.03 0.5,-0.01 1.01,-0.03 1.51,-0.05 0.4,-0.01 0.81,-0.03 1.21,-0.04 1.31,-0.04 2.63,-0.09 3.98,-0.16 0.31,-0.01 0.6,-0.02 0.91,-0.04 0.33,-0.01 0.66,-0.03 1.01,-0.05 0.4,-0.01 0.81,-0.04 1.22,-0.06 0.4,-0.02 0.81,-0.04 1.22,-0.07 1.01,-0.05 2.02,-0.11 3.05,-0.18 0.62,-0.03 1.26,-0.07 1.89,-0.12 0.99,-0.06 2.01,-0.13 3.04,-0.21 z"
   id="path23709" />
				<path
   class="st31"
   d="m 329.49,800.39 v 17.06 c -1.41,0.11 -2.82,0.21 -4.21,0.3 -1.39,0.09 -2.78,0.17 -4.14,0.25 -1.38,0.07 -2.73,0.14 -4.08,0.2 -2.7,0.12 -5.35,0.21 -7.94,0.28 -1.29,0.03 -2.57,0.06 -3.84,0.08 -1.27,0.02 -2.51,0.04 -3.75,0.05 -2.88,0.02 -5.66,0.02 -8.35,-0.01 -1.54,-0.02 -3.04,-0.04 -4.5,-0.07 -1.48,-0.04 -2.91,-0.07 -4.31,-0.11 -0.97,-0.03 -1.95,-0.07 -2.89,-0.1 -1.07,-0.04 -2.12,-0.08 -3.15,-0.13 -2.68,-0.12 -5.19,-0.26 -7.5,-0.4 -0.78,-0.05 -1.53,-0.1 -2.26,-0.15 -0.73,-0.05 -1.44,-0.1 -2.13,-0.15 v -17.07 c 4.14,0.3 9.12,0.6 14.76,0.81 0.58,0.02 1.16,0.04 1.75,0.06 1.2,0.05 2.44,0.08 3.7,0.11 0.72,0.02 1.44,0.04 2.19,0.05 1.15,0.03 2.33,0.05 3.52,0.06 1.86,0.03 3.76,0.04 5.71,0.04 1.59,0 3.19,-0.01 4.83,-0.03 0.4,0 0.82,-0.01 1.24,-0.01 1.05,-0.02 2.12,-0.04 3.2,-0.06 0.26,0 0.54,-0.01 0.8,-0.02 0.77,-0.01 1.53,-0.03 2.31,-0.06 0.25,0 0.5,-0.01 0.77,-0.02 1.59,-0.05 3.2,-0.11 4.84,-0.18 0.74,-0.03 1.5,-0.06 2.26,-0.1 0.66,-0.03 1.31,-0.06 1.99,-0.1 0.66,-0.03 1.33,-0.07 2,-0.11 1.37,-0.07 2.74,-0.16 4.14,-0.26 1,-0.06 2.02,-0.13 3.04,-0.21 z"
   id="path23711" />
			</g>
		</g>
	</g>
</svg>
