<?xml version="1.0" encoding="UTF-8" standalone="no"?>
<!-- Generator: Adobe Illustrator 26.0.3, SVG Export Plug-In . SVG Version: 6.00 Build 0)  -->

<svg
   version="1.1"
   id="Слой_1"
   x="0px"
   y="0px"
   viewBox="0 0 486.98 987.15"
   style="enable-background:new 0 0 486.98 987.15;"
   xml:space="preserve"
   sodipodi:docname="М-10.svg"
   inkscape:version="1.1.1 (3bf5ae0d25, 2021-09-20)"
   xmlns:inkscape="http://www.inkscape.org/namespaces/inkscape"
   xmlns:sodipodi="http://sodipodi.sourceforge.net/DTD/sodipodi-0.dtd"
   xmlns="http://www.w3.org/2000/svg"
   xmlns:svg="http://www.w3.org/2000/svg"><defs
   id="defs24111">
	
	
</defs><sodipodi:namedview
   id="namedview24109"
   pagecolor="#ffffff"
   bordercolor="#666666"
   borderopacity="1.0"
   inkscape:pageshadow="2"
   inkscape:pageopacity="0.0"
   inkscape:pagecheckerboard="0"
   showgrid="false"
   inkscape:zoom="0.84283035"
   inkscape:cx="243.82131"
   inkscape:cy="684.00479"
   inkscape:window-width="1920"
   inkscape:window-height="1017"
   inkscape:window-x="-8"
   inkscape:window-y="-8"
   inkscape:window-maximized="1"
   inkscape:current-layer="Слой_1" />
<style
   type="text/css"
   id="style23948">
	.st0{fill:#F6D3BD;}
	.st1{fill:#C4A996;}
	.st2{fill:#ED1C24;}
	.st3{fill:#998475;}
	.st4{fill:#BDB7B2;}
	.st5{fill:#E7E3E0;}
	.st6{fill:#4F5260;}
	.st7{fill:#555968;}
	.st8{fill:url(#SVGID_1_);}
	.st9{fill:url(#SVGID_00000026149995150921339510000002675060839805708185_);}
	.st10{fill:url(#SVGID_00000129196377637938005650000004618888343845181367_);}
	.st11{fill:url(#SVGID_00000149379050847061380260000005589604793178676627_);}
	.st12{fill:#63687A;}
	.st13{fill:#AEA89F;}
	.st14{fill:none;stroke:#998475;stroke-width:2;stroke-miterlimit:10;}
	.st15{fill:#FFFFFF;}
	.st16{fill:#1D1D1B;}
	.st17{fill:#E6E6E6;}
	.st18{fill:#333333;}
	.st19{fill:#4D4D4D;}
	.st20{fill:#1A1A1A;}
	.st21{fill:#A8A199;}
	.st22{fill:#E2D6CE;}
	.st23{fill:url(#SVGID_00000045594766028781171740000017381177472696715941_);}
	.st24{fill:url(#SVGID_00000126301592466152970550000002158192109799756734_);}
	.st25{fill:url(#SVGID_00000173123111525531446000000014349875508443201433_);}
	.st26{fill:url(#SVGID_00000029032178860694201390000003078111688555188157_);}
	.st27{fill:#555451;}
	.st28{fill:#578BAA;}
	.st29{fill:#6BABD1;}
	.st30{fill:#A6A6A6;}
	.st31{fill:#F3EFF5;}
	.st32{fill:#D4D1D6;}
	.st33{fill:#848BA3;}
	.st34{fill:#676D80;}
	.st35{fill:#9FA7C4;}
	.st36{fill:#BEBBBF;}
	.st37{fill:url(#SVGID_00000005266684168414044590000012725444533711200447_);}
	.st38{fill:url(#SVGID_00000180363800466404461950000000265392961130597308_);}
	.st39{fill:url(#SVGID_00000088830705710672979630000016435142532881641613_);}
	.st40{fill:url(#SVGID_00000005984752540965632030000006188260715561289646_);}
	.st41{fill:url(#SVGID_00000112622177149939917980000005326338561498512062_);}
	.st42{fill:url(#SVGID_00000150090220767555122670000002206062010637442717_);}
	.st43{fill:url(#SVGID_00000066498955760071206140000003952298228558365095_);}
	.st44{fill:url(#SVGID_00000171690975415289038400000009659095440294393246_);}
	.st45{fill:url(#SVGID_00000152956875696339115380000014292550820066403202_);}
	.st46{fill:url(#SVGID_00000141413684385716436460000005501801785002378649_);}
	.st47{fill:url(#SVGID_00000117653916993564298100000009359051420765536411_);}
	.st48{fill:url(#SVGID_00000166644669843080671940000003955800230300613784_);}
	.st49{fill:url(#SVGID_00000052066332836532966840000000367278140022357937_);}
	.st50{fill:url(#SVGID_00000157306031268968594400000015889859993490975891_);}
</style>
<g
   id="g24104">
		<g
   id="g24080">
			<path
   class="st27"
   d="m 280.36,733.64 c 1.48,0.06 3,0.12 4.57,0.16 -1.56,-0.05 -3.09,-0.1 -4.57,-0.16 z"
   id="path24058" />
			<path
   class="st27"
   d="m 340.51,586.34 v 51.91 c -40.9,4.32 -76.27,1 -85.09,0.03 V 586.34 H 244.3 V 987.15 H 351.6 V 586.34 Z m -85.1,55.82 c 2.33,0.25 6.09,0.62 11.02,0.98 0.69,0.05 1.4,0.1 2.13,0.15 0.77,0.05 1.54,0.1 2.35,0.15 1.76,0.11 3.64,0.22 5.62,0.31 0.62,0.03 1.26,0.06 1.9,0.09 1.64,0.07 3.33,0.14 5.09,0.19 1.02,0.04 2.06,0.07 3.11,0.09 0.72,0.02 1.44,0.04 2.19,0.05 1.15,0.03 2.33,0.05 3.52,0.06 1.86,0.03 3.76,0.04 5.71,0.04 1.59,0 3.19,-0.01 4.83,-0.03 0.82,-0.01 1.65,-0.02 2.48,-0.03 0.91,-0.02 1.83,-0.04 2.76,-0.06 0.77,-0.01 1.53,-0.03 2.31,-0.06 1.73,-0.05 3.48,-0.11 5.26,-0.18 0.86,-0.04 1.74,-0.07 2.61,-0.12 1.63,-0.08 3.27,-0.17 4.93,-0.26 0.32,-0.02 0.63,-0.04 0.95,-0.06 0.74,-0.04 1.5,-0.09 2.25,-0.15 4.59,-0.31 9.29,-0.71 14.07,-1.2 v 17.06 c -3.73,0.39 -7.4,0.72 -11.02,0.99 -1.41,0.11 -2.82,0.21 -4.21,0.3 -2.79,0.19 -5.53,0.34 -8.22,0.45 -2.7,0.13 -5.35,0.22 -7.94,0.28 -1.94,0.06 -3.85,0.09 -5.72,0.11 -0.63,0.01 -1.25,0.01 -1.87,0.02 -2.88,0.03 -5.66,0.02 -8.35,-0.01 -1.54,-0.02 -3.04,-0.04 -4.5,-0.07 -1.48,-0.03 -2.91,-0.07 -4.31,-0.11 -0.97,-0.03 -1.95,-0.07 -2.89,-0.1 -1.07,-0.04 -2.12,-0.08 -3.15,-0.13 -2.68,-0.12 -5.19,-0.26 -7.5,-0.4 -1.56,-0.1 -3.03,-0.2 -4.4,-0.3 -5.07,-0.38 -8.85,-0.76 -11.02,-1 v -17.05 z m 0,20.93 c 6.08,0.65 21.88,2.11 42.64,2.11 12.66,0 27.17,-0.55 42.45,-2.15 v 48.97 c -40.9,4.32 -76.27,1.01 -85.09,0.03 z m 0,52.84 c 2.33,0.25 6.09,0.62 11.02,0.98 0.69,0.05 1.4,0.1 2.13,0.15 0.77,0.05 1.54,0.1 2.35,0.15 1.76,0.11 3.64,0.22 5.62,0.31 0.62,0.03 1.26,0.06 1.9,0.09 1.64,0.07 3.33,0.14 5.09,0.19 1.02,0.04 2.06,0.07 3.11,0.09 0.72,0.02 1.44,0.04 2.19,0.05 1.15,0.03 2.33,0.05 3.52,0.06 1.86,0.03 3.76,0.04 5.71,0.04 4.42,0 9.06,-0.07 13.89,-0.23 0.4,-0.01 0.81,-0.03 1.21,-0.04 1.31,-0.04 2.65,-0.1 3.98,-0.16 1.27,-0.05 2.56,-0.12 3.86,-0.19 0.16,0 0.33,-0.01 0.5,-0.03 1.01,-0.05 2.02,-0.11 3.05,-0.18 0.62,-0.03 1.26,-0.07 1.89,-0.12 1.01,-0.06 2.02,-0.13 3.05,-0.21 3.62,-0.27 7.29,-0.6 11.02,-0.99 v 15.94 c -3.73,0.39 -7.4,0.72 -11.02,1 -1.4,0.11 -2.8,0.2 -4.18,0.29 -0.7,0.05 -1.39,0.09 -2.08,0.13 -0.75,0.05 -1.52,0.09 -2.27,0.13 -0.87,0.05 -1.75,0.09 -2.61,0.14 -0.4,0.02 -0.81,0.04 -1.21,0.05 -2.28,0.11 -4.53,0.19 -6.73,0.25 -0.38,0.01 -0.77,0.02 -1.15,0.03 -7.33,0.19 -14.19,0.18 -20.45,0.05 -0.11,0 -0.21,0 -0.31,-0.01 -1.2,-0.03 -2.39,-0.06 -3.56,-0.09 -1.57,-0.04 -3.09,-0.1 -4.57,-0.16 -0.71,-0.03 -1.41,-0.06 -2.1,-0.09 -0.97,-0.05 -1.94,-0.09 -2.85,-0.14 -1.6,-0.08 -3.12,-0.17 -4.56,-0.26 -1.56,-0.1 -3.04,-0.2 -4.42,-0.3 -5.07,-0.38 -8.86,-0.76 -11.02,-1 z m 0,19.8 c 6.08,0.67 21.88,2.12 42.64,2.12 12.66,0 27.17,-0.56 42.45,-2.15 v 80.76 c -3.73,0.39 -7.4,0.72 -11.02,0.99 -1.41,0.11 -2.82,0.21 -4.21,0.3 -1.39,0.09 -2.78,0.17 -4.14,0.25 -1.38,0.08 -2.73,0.15 -4.08,0.2 -2.7,0.13 -5.35,0.22 -7.94,0.28 -1.29,0.04 -2.58,0.07 -3.84,0.08 -1.27,0.02 -2.51,0.04 -3.75,0.05 -2.88,0.03 -5.66,0.02 -8.35,-0.01 -1.54,-0.02 -3.04,-0.04 -4.5,-0.07 -1.48,-0.03 -2.91,-0.07 -4.31,-0.11 -0.97,-0.03 -1.95,-0.07 -2.89,-0.1 -1.07,-0.04 -2.12,-0.08 -3.15,-0.13 -2.68,-0.12 -5.19,-0.26 -7.5,-0.4 -0.78,-0.05 -1.53,-0.1 -2.26,-0.15 -0.73,-0.05 -1.44,-0.1 -2.13,-0.15 -5.07,-0.38 -8.85,-0.76 -11.02,-1 z m 0,84.63 c 6.08,0.66 21.88,2.11 42.64,2.11 12.66,0 27.17,-0.55 42.45,-2.14 v 48.97 c -40.9,4.31 -76.27,1 -85.09,0.03 z m 0,52.85 c 1.17,0.12 2.69,0.28 4.54,0.44 0.46,0.04 0.94,0.09 1.44,0.13 0.11,0.01 0.22,0.02 0.33,0.03 0.33,0.03 0.67,0.06 1.02,0.09 1.15,0.1 2.38,0.19 3.7,0.29 0.28,0.02 0.58,0.04 0.87,0.06 0.22,0.02 0.43,0.03 0.65,0.05 0.7,0.05 1.41,0.09 2.15,0.14 0.18,0.01 0.36,0.03 0.56,0.03 0.1,0.01 0.2,0.02 0.3,0.02 0.09,0.01 0.17,0.02 0.26,0.02 0.55,0.04 1.12,0.07 1.68,0.1 0.38,0.02 0.75,0.04 1.14,0.06 0.81,0.04 1.64,0.09 2.49,0.13 0.16,0.01 0.33,0.02 0.5,0.02 1.02,0.05 2.07,0.1 3.15,0.14 0.08,0 0.14,0.01 0.22,0.01 1.01,0.04 2.02,0.08 3.07,0.11 1.73,0.06 3.51,0.11 5.35,0.14 1.16,0.03 2.33,0.05 3.52,0.06 0.63,0.01 1.27,0.02 1.91,0.02 0.3,0.01 0.6,0.01 0.91,0.01 0.95,0.01 1.91,0.01 2.89,0.01 2.21,0 4.48,-0.02 6.8,-0.05 0.17,-0.01 0.34,-0.01 0.51,-0.01 0.66,-0.01 1.3,-0.03 1.96,-0.04 0.34,-0.01 0.69,-0.02 1.03,-0.03 0.3,0 0.59,-0.01 0.9,-0.02 0.39,-0.01 0.79,-0.02 1.18,-0.03 0.5,-0.01 1.01,-0.03 1.51,-0.05 0.4,-0.01 0.81,-0.03 1.21,-0.04 1.31,-0.04 2.63,-0.09 3.98,-0.16 0.31,-0.01 0.6,-0.02 0.91,-0.04 0.33,-0.01 0.66,-0.03 1.01,-0.05 0.4,-0.01 0.81,-0.04 1.22,-0.06 0.4,-0.02 0.81,-0.04 1.22,-0.07 1.01,-0.05 2.02,-0.11 3.05,-0.18 0.62,-0.03 1.26,-0.07 1.89,-0.12 1.01,-0.06 2.02,-0.13 3.05,-0.21 3.62,-0.28 7.29,-0.6 11.02,-0.99 v 15.94 c -3.73,0.39 -7.4,0.72 -11.02,1 -0.1,0.01 -0.2,0.01 -0.3,0.02 -0.93,0.07 -1.86,0.13 -2.78,0.19 -0.92,0.07 -1.83,0.13 -2.74,0.18 -0.91,0.06 -1.81,0.11 -2.71,0.16 -1.8,0.1 -3.59,0.18 -5.35,0.25 -0.52,0.03 -1.05,0.05 -1.56,0.06 -0.36,0.02 -0.71,0.03 -1.06,0.04 -0.87,0.03 -1.74,0.06 -2.59,0.08 -0.61,0.02 -1.22,0.04 -1.83,0.05 -0.59,0.02 -1.19,0.03 -1.78,0.04 l -1.38,0.03 h -0.09 c -1.67,0.03 -3.31,0.04 -4.92,0.05 -1.71,0.01 -3.38,0.01 -5.02,0 -0.2,0 -0.38,0 -0.58,-0.01 -2.07,-0.01 -4.08,-0.03 -6.04,-0.08 -0.52,-0.01 -1.05,-0.02 -1.56,-0.04 -0.18,0 -0.34,0 -0.51,-0.01 -0.4,0 -0.81,-0.02 -1.21,-0.03 -0.35,-0.01 -0.69,-0.02 -1.03,-0.03 -1.57,-0.05 -3.11,-0.1 -4.58,-0.16 -0.55,-0.02 -1.08,-0.05 -1.61,-0.07 -0.22,-0.01 -0.43,-0.02 -0.64,-0.03 -0.78,-0.04 -1.53,-0.07 -2.27,-0.11 -0.84,-0.05 -1.67,-0.09 -2.48,-0.14 -0.32,-0.02 -0.62,-0.03 -0.93,-0.05 -0.25,-0.02 -0.49,-0.03 -0.74,-0.05 -0.11,0 -0.23,-0.01 -0.34,-0.02 -0.79,-0.05 -1.54,-0.1 -2.27,-0.15 -0.73,-0.05 -1.45,-0.1 -2.14,-0.15 -2.54,-0.19 -4.75,-0.38 -6.59,-0.55 -0.38,-0.04 -0.74,-0.07 -1.09,-0.11 -0.37,-0.03 -0.72,-0.07 -1.06,-0.1 -0.31,-0.03 -0.6,-0.06 -0.87,-0.09 -0.52,-0.05 -0.99,-0.1 -1.4,-0.15 v -15.92 z m 0,103.39 v -83.59 c 6.08,0.66 21.88,2.12 42.64,2.12 12.66,0 27.17,-0.56 42.45,-2.15 v 83.62 z"
   id="path24060" />
			<g
   id="g24068">
				<g
   id="g24066">
					<path
   class="st36"
   d="m 340.51,715.89 v 15.94 c -3.73,0.39 -7.4,0.72 -11.02,1 -1.4,0.11 -2.8,0.2 -4.18,0.29 -0.7,0.05 -1.39,0.09 -2.08,0.13 -0.75,0.05 -1.52,0.09 -2.27,0.13 -0.87,0.05 -1.75,0.09 -2.61,0.14 -0.4,0.02 -0.81,0.04 -1.21,0.05 -2.28,0.11 -4.53,0.19 -6.73,0.25 -0.38,0.01 -0.77,0.02 -1.15,0.03 -7.33,0.19 -14.19,0.18 -20.45,0.05 -0.11,0 -0.21,0 -0.31,-0.01 -1.2,-0.03 -2.39,-0.06 -3.56,-0.09 -1.56,-0.05 -3.09,-0.1 -4.57,-0.16 -0.71,-0.03 -1.41,-0.06 -2.1,-0.09 -0.97,-0.05 -1.94,-0.09 -2.85,-0.14 -1.6,-0.08 -3.12,-0.17 -4.56,-0.26 -1.56,-0.1 -3.04,-0.2 -4.42,-0.3 -5.07,-0.38 -8.86,-0.76 -11.02,-1 v -15.92 c 2.33,0.25 6.09,0.62 11.02,0.98 0.69,0.05 1.4,0.1 2.13,0.15 0.77,0.05 1.54,0.1 2.35,0.15 1.76,0.11 3.64,0.22 5.62,0.31 0.62,0.03 1.26,0.06 1.9,0.09 1.64,0.07 3.33,0.14 5.09,0.19 1.02,0.04 2.06,0.07 3.11,0.09 0.72,0.02 1.44,0.04 2.19,0.05 1.15,0.03 2.33,0.05 3.52,0.06 1.86,0.03 3.76,0.04 5.71,0.04 4.42,0 9.06,-0.07 13.89,-0.23 0.4,-0.01 0.81,-0.03 1.21,-0.04 1.31,-0.04 2.65,-0.1 3.98,-0.16 1.28,-0.05 2.56,-0.11 3.86,-0.19 0.16,0 0.33,-0.01 0.5,-0.03 1.01,-0.05 2.02,-0.11 3.05,-0.18 0.62,-0.03 1.26,-0.07 1.89,-0.12 1.01,-0.06 2.02,-0.13 3.05,-0.21 3.61,-0.27 7.29,-0.6 11.02,-0.99 z"
   id="path24062" />
					<path
   class="st36"
   d="m 340.51,642.12 v 17.06 c -3.73,0.39 -7.4,0.72 -11.02,0.99 -1.41,0.11 -2.82,0.21 -4.21,0.3 -2.79,0.19 -5.53,0.34 -8.22,0.45 -2.7,0.13 -5.35,0.22 -7.94,0.28 -1.94,0.06 -3.85,0.09 -5.72,0.11 -0.63,0.01 -1.25,0.01 -1.87,0.02 -2.88,0.03 -5.66,0.02 -8.35,-0.01 -1.54,-0.02 -3.04,-0.04 -4.5,-0.07 -1.48,-0.03 -2.91,-0.07 -4.31,-0.11 -0.97,-0.03 -1.95,-0.07 -2.89,-0.1 -1.07,-0.04 -2.12,-0.08 -3.15,-0.13 -2.68,-0.12 -5.19,-0.26 -7.5,-0.4 -1.56,-0.1 -3.03,-0.2 -4.4,-0.3 -5.07,-0.38 -8.85,-0.76 -11.02,-1 v -17.05 c 2.33,0.25 6.09,0.62 11.02,0.98 0.69,0.05 1.4,0.1 2.13,0.15 0.77,0.05 1.54,0.1 2.35,0.15 1.76,0.11 3.64,0.22 5.62,0.31 0.62,0.03 1.26,0.06 1.9,0.09 1.64,0.07 3.33,0.14 5.09,0.19 1.02,0.04 2.06,0.07 3.11,0.09 0.72,0.02 1.44,0.04 2.19,0.05 1.15,0.03 2.33,0.05 3.52,0.06 1.86,0.03 3.76,0.04 5.71,0.04 1.59,0 3.19,-0.01 4.83,-0.03 0.82,-0.01 1.65,-0.02 2.48,-0.03 0.91,-0.02 1.83,-0.04 2.76,-0.06 0.77,-0.01 1.53,-0.03 2.31,-0.06 1.73,-0.05 3.48,-0.11 5.26,-0.18 0.86,-0.04 1.74,-0.07 2.61,-0.12 1.62,-0.07 3.27,-0.16 4.93,-0.26 0.32,-0.02 0.63,-0.04 0.95,-0.06 0.74,-0.04 1.5,-0.09 2.25,-0.15 4.6,-0.31 9.3,-0.71 14.08,-1.2 z"
   id="path24064" />
				</g>
			</g>
			<path
   class="st31"
   d="m 329.49,643.11 v 17.06 c -1.41,0.11 -2.82,0.21 -4.21,0.3 -2.79,0.18 -5.53,0.33 -8.22,0.45 -2.7,0.12 -5.35,0.21 -7.94,0.28 -1.94,0.05 -3.85,0.08 -5.72,0.11 -0.63,0.01 -1.25,0.01 -1.87,0.02 -2.88,0.02 -5.66,0.02 -8.35,-0.01 -1.54,-0.02 -3.04,-0.04 -4.5,-0.07 -1.48,-0.04 -2.91,-0.07 -4.31,-0.11 -0.97,-0.03 -1.95,-0.07 -2.89,-0.1 -1.07,-0.04 -2.12,-0.08 -3.15,-0.13 -2.68,-0.12 -5.19,-0.26 -7.5,-0.4 -1.56,-0.1 -3.03,-0.2 -4.4,-0.3 v -17.07 c 0.69,0.05 1.4,0.1 2.13,0.15 0.77,0.05 1.54,0.1 2.35,0.15 1.76,0.11 3.64,0.22 5.62,0.31 0.62,0.03 1.26,0.06 1.9,0.09 1.64,0.07 3.33,0.14 5.09,0.19 1.02,0.04 2.06,0.07 3.11,0.09 0.72,0.02 1.44,0.04 2.19,0.05 1.15,0.03 2.33,0.05 3.52,0.06 1.86,0.03 3.76,0.04 5.71,0.04 1.59,0 3.19,-0.01 4.83,-0.03 0.82,-0.01 1.65,-0.02 2.48,-0.03 0.91,-0.02 1.83,-0.04 2.76,-0.06 0.77,-0.01 1.53,-0.03 2.31,-0.06 1.73,-0.05 3.48,-0.11 5.26,-0.18 0.86,-0.04 1.74,-0.07 2.61,-0.12 1.62,-0.07 3.27,-0.16 4.93,-0.26 0.32,-0.02 0.63,-0.04 0.95,-0.06 0.74,-0.04 1.5,-0.09 2.25,-0.15 1.02,-0.06 2.04,-0.13 3.06,-0.21 z"
   id="path24070" />
			<path
   class="st31"
   d="m 329.49,716.88 v 15.95 c -1.4,0.11 -2.8,0.2 -4.18,0.29 -0.7,0.05 -1.39,0.09 -2.08,0.13 -0.75,0.05 -1.52,0.09 -2.27,0.13 -0.87,0.05 -1.75,0.09 -2.61,0.14 -0.4,0.02 -0.81,0.04 -1.21,0.05 -2.28,0.11 -4.53,0.19 -6.73,0.25 -0.38,0.01 -0.77,0.02 -1.15,0.03 -7.33,0.19 -14.19,0.18 -20.45,0.05 -0.11,0 -0.21,0 -0.31,-0.01 -1.2,-0.03 -2.39,-0.06 -3.56,-0.09 -1.57,-0.04 -3.09,-0.1 -4.57,-0.16 -0.71,-0.03 -1.41,-0.06 -2.1,-0.09 -0.97,-0.05 -1.94,-0.09 -2.85,-0.14 -1.6,-0.08 -3.12,-0.17 -4.56,-0.26 -1.56,-0.1 -3.04,-0.2 -4.42,-0.3 v -15.94 c 0.69,0.05 1.4,0.1 2.13,0.15 0.77,0.05 1.54,0.1 2.35,0.15 1.76,0.11 3.64,0.22 5.62,0.31 0.62,0.03 1.26,0.06 1.9,0.09 1.64,0.07 3.33,0.14 5.09,0.19 1.02,0.04 2.06,0.07 3.11,0.09 0.72,0.02 1.44,0.04 2.19,0.05 1.15,0.03 2.33,0.05 3.52,0.06 1.86,0.03 3.76,0.04 5.71,0.04 4.42,0 9.06,-0.07 13.89,-0.23 0.4,-0.01 0.81,-0.03 1.21,-0.04 1.31,-0.04 2.65,-0.1 3.98,-0.16 1.28,-0.05 2.56,-0.11 3.86,-0.19 0.16,0 0.33,-0.01 0.5,-0.03 1.01,-0.05 2.02,-0.11 3.05,-0.18 0.62,-0.03 1.26,-0.07 1.89,-0.12 1,-0.06 2.02,-0.13 3.05,-0.21 z"
   id="path24072" />
			<g
   id="g24078">
				<path
   class="st31"
   d="m 329.49,716.88 v 15.95 c -1.4,0.11 -2.8,0.2 -4.18,0.29 -0.7,0.05 -1.39,0.09 -2.08,0.13 -0.75,0.05 -1.52,0.09 -2.27,0.13 -0.87,0.05 -1.75,0.09 -2.61,0.14 -0.4,0.02 -0.81,0.04 -1.21,0.05 -2.28,0.11 -4.53,0.19 -6.73,0.25 -0.38,0.01 -0.77,0.02 -1.15,0.03 -7.33,0.19 -14.19,0.18 -20.45,0.05 -0.11,0 -0.21,0 -0.31,-0.01 -1.2,-0.03 -2.39,-0.06 -3.56,-0.09 -1.57,-0.04 -3.09,-0.1 -4.57,-0.16 -0.71,-0.03 -1.41,-0.06 -2.1,-0.09 -0.97,-0.05 -1.94,-0.09 -2.85,-0.14 -1.6,-0.08 -3.12,-0.17 -4.56,-0.26 -1.56,-0.1 -3.04,-0.2 -4.42,-0.3 v -15.94 c 0.69,0.05 1.4,0.1 2.13,0.15 0.77,0.05 1.54,0.1 2.35,0.15 1.76,0.11 3.64,0.22 5.62,0.31 0.62,0.03 1.26,0.06 1.9,0.09 1.64,0.07 3.33,0.14 5.09,0.19 1.02,0.04 2.06,0.07 3.11,0.09 0.72,0.02 1.44,0.04 2.19,0.05 1.15,0.03 2.33,0.05 3.52,0.06 1.86,0.03 3.76,0.04 5.71,0.04 4.42,0 9.06,-0.07 13.89,-0.23 0.4,-0.01 0.81,-0.03 1.21,-0.04 1.31,-0.04 2.65,-0.1 3.98,-0.16 1.28,-0.05 2.56,-0.11 3.86,-0.19 0.16,0 0.33,-0.01 0.5,-0.03 1.01,-0.05 2.02,-0.11 3.05,-0.18 0.62,-0.03 1.26,-0.07 1.89,-0.12 1,-0.06 2.02,-0.13 3.05,-0.21 z"
   id="path24074" />
				<path
   class="st31"
   d="m 329.49,643.11 v 17.06 c -1.41,0.11 -2.82,0.21 -4.21,0.3 -2.79,0.18 -5.53,0.33 -8.22,0.45 -2.7,0.12 -5.35,0.21 -7.94,0.28 -1.94,0.05 -3.85,0.08 -5.72,0.11 -0.63,0.01 -1.25,0.01 -1.87,0.02 -2.88,0.02 -5.66,0.02 -8.35,-0.01 -1.54,-0.02 -3.04,-0.04 -4.5,-0.07 -1.48,-0.04 -2.91,-0.07 -4.31,-0.11 -0.97,-0.03 -1.95,-0.07 -2.89,-0.1 -1.07,-0.04 -2.12,-0.08 -3.15,-0.13 -2.68,-0.12 -5.19,-0.26 -7.5,-0.4 -1.56,-0.1 -3.03,-0.2 -4.4,-0.3 v -17.07 c 0.69,0.05 1.4,0.1 2.13,0.15 0.77,0.05 1.54,0.1 2.35,0.15 1.76,0.11 3.64,0.22 5.62,0.31 0.62,0.03 1.26,0.06 1.9,0.09 1.64,0.07 3.33,0.14 5.09,0.19 1.02,0.04 2.06,0.07 3.11,0.09 0.72,0.02 1.44,0.04 2.19,0.05 1.15,0.03 2.33,0.05 3.52,0.06 1.86,0.03 3.76,0.04 5.71,0.04 1.59,0 3.19,-0.01 4.83,-0.03 0.82,-0.01 1.65,-0.02 2.48,-0.03 0.91,-0.02 1.83,-0.04 2.76,-0.06 0.77,-0.01 1.53,-0.03 2.31,-0.06 1.73,-0.05 3.48,-0.11 5.26,-0.18 0.86,-0.04 1.74,-0.07 2.61,-0.12 1.62,-0.07 3.27,-0.16 4.93,-0.26 0.32,-0.02 0.63,-0.04 0.95,-0.06 0.74,-0.04 1.5,-0.09 2.25,-0.15 1.02,-0.06 2.04,-0.13 3.06,-0.21 z"
   id="path24076" />
			</g>
		</g>
		<g
   id="g24102">
			<path
   class="st27"
   d="m 267.31,874.25 c -0.29,-0.02 -0.59,-0.04 -0.87,-0.06 0.38,0.03 0.78,0.06 1.18,0.09 0.11,0 0.23,0.01 0.34,0.02 -0.23,-0.02 -0.43,-0.03 -0.65,-0.05 z m -11.9,-78.69 v 3.88 c 2.33,0.25 6.09,0.62 11.02,0.98 4.14,0.3 9.12,0.6 14.76,0.81 0.58,0.02 1.16,0.04 1.75,0.06 1.2,0.05 2.44,0.08 3.7,0.11 0.72,0.02 1.44,0.04 2.19,0.05 1.15,0.03 2.33,0.05 3.52,0.06 1.86,0.03 3.76,0.04 5.71,0.04 1.59,0 3.19,-0.01 4.83,-0.03 0.4,0 0.82,-0.01 1.24,-0.01 1.05,-0.02 2.12,-0.04 3.2,-0.06 0.26,0 0.54,-0.01 0.8,-0.02 0.77,-0.01 1.53,-0.03 2.31,-0.06 0.25,0 0.5,-0.01 0.77,-0.02 1.59,-0.05 3.2,-0.11 4.84,-0.18 0.74,-0.03 1.5,-0.06 2.26,-0.1 0.66,-0.03 1.31,-0.06 1.99,-0.1 0.66,-0.03 1.33,-0.07 2,-0.11 1.37,-0.07 2.74,-0.16 4.14,-0.26 4.59,-0.31 9.29,-0.71 14.07,-1.2 v -3.87 c -40.91,4.31 -76.27,1 -85.1,0.03 z"
   id="path24082" />
			<g
   id="g24090">
				<g
   id="g24088">
					<path
   class="st36"
   d="m 340.51,873.17 v 15.94 c -3.73,0.39 -7.4,0.72 -11.02,1 -0.1,0.01 -0.2,0.01 -0.3,0.02 -0.93,0.07 -1.86,0.13 -2.78,0.19 -0.92,0.07 -1.83,0.13 -2.74,0.18 -0.91,0.06 -1.81,0.11 -2.71,0.16 -1.8,0.09 -3.59,0.18 -5.35,0.25 -0.52,0.03 -1.05,0.05 -1.56,0.06 -0.36,0.02 -0.71,0.03 -1.06,0.04 -0.87,0.03 -1.74,0.06 -2.59,0.08 -0.61,0.02 -1.22,0.04 -1.83,0.05 -0.59,0.02 -1.19,0.03 -1.78,0.04 l -1.38,0.03 h -0.09 c -1.67,0.03 -3.31,0.04 -4.92,0.05 -1.71,0.01 -3.38,0.01 -5.02,0 -0.2,0 -0.38,0 -0.58,-0.01 -2.07,-0.01 -4.08,-0.03 -6.04,-0.08 -0.52,-0.01 -1.05,-0.02 -1.56,-0.04 -0.18,0 -0.34,0 -0.51,-0.01 -0.4,0 -0.81,-0.02 -1.21,-0.03 -0.35,-0.01 -0.69,-0.02 -1.03,-0.03 -1.57,-0.05 -3.11,-0.1 -4.58,-0.16 -0.55,-0.02 -1.08,-0.05 -1.61,-0.07 -0.22,-0.01 -0.43,-0.02 -0.64,-0.03 -0.78,-0.04 -1.53,-0.08 -2.27,-0.11 -0.84,-0.05 -1.67,-0.09 -2.48,-0.14 -0.21,-0.01 -0.42,-0.02 -0.62,-0.04 -0.35,-0.02 -0.7,-0.04 -1.05,-0.06 -0.11,0 -0.23,-0.01 -0.34,-0.02 -0.79,-0.05 -1.54,-0.1 -2.27,-0.15 -0.73,-0.05 -1.45,-0.1 -2.14,-0.15 -2.54,-0.19 -4.75,-0.38 -6.59,-0.55 -0.38,-0.04 -0.74,-0.07 -1.09,-0.11 -0.37,-0.03 -0.72,-0.07 -1.06,-0.1 -0.31,-0.03 -0.6,-0.06 -0.87,-0.09 -0.52,-0.05 -0.99,-0.1 -1.4,-0.15 v -15.92 c 1.17,0.12 2.69,0.28 4.54,0.44 0.46,0.05 0.94,0.09 1.44,0.13 0.11,0.01 0.22,0.02 0.33,0.03 0.33,0.03 0.67,0.06 1.02,0.09 1.15,0.1 2.38,0.19 3.7,0.29 0.28,0.02 0.58,0.04 0.87,0.06 0.22,0.02 0.43,0.03 0.65,0.05 0.7,0.05 1.41,0.09 2.15,0.14 0.18,0.01 0.36,0.03 0.56,0.03 0.1,0.01 0.2,0.02 0.3,0.02 0.09,0.01 0.17,0.02 0.26,0.02 0.55,0.04 1.12,0.07 1.68,0.1 0.38,0.02 0.75,0.04 1.14,0.06 0.81,0.05 1.64,0.09 2.49,0.13 0.16,0.01 0.33,0.02 0.5,0.02 1.02,0.05 2.07,0.1 3.15,0.14 0.08,0 0.14,0.01 0.22,0.01 1.01,0.04 2.02,0.08 3.07,0.11 1.73,0.06 3.51,0.11 5.35,0.14 1.16,0.03 2.33,0.05 3.52,0.06 0.63,0.01 1.27,0.02 1.91,0.02 0.3,0.01 0.6,0.01 0.91,0.01 0.95,0.01 1.91,0.01 2.89,0.01 2.21,0 4.48,-0.02 6.8,-0.05 0.17,-0.01 0.34,-0.01 0.51,-0.01 0.66,-0.01 1.3,-0.03 1.96,-0.04 0.19,-0.01 0.37,-0.01 0.56,-0.01 0.45,-0.01 0.91,-0.02 1.37,-0.04 0.39,-0.01 0.79,-0.02 1.18,-0.03 0.5,-0.01 1.01,-0.03 1.51,-0.05 0.4,-0.01 0.81,-0.03 1.21,-0.04 1.31,-0.04 2.63,-0.09 3.98,-0.16 0.31,-0.01 0.6,-0.02 0.91,-0.04 0.33,-0.01 0.66,-0.03 1.01,-0.05 0.4,-0.01 0.81,-0.04 1.22,-0.06 0.4,-0.02 0.81,-0.04 1.22,-0.07 1.01,-0.05 2.02,-0.11 3.05,-0.18 0.62,-0.03 1.26,-0.07 1.89,-0.12 1.01,-0.06 2.02,-0.13 3.05,-0.21 3.58,-0.28 7.26,-0.6 10.99,-0.99 z"
   id="path24084" />
					<path
   class="st36"
   d="m 340.51,799.4 v 17.06 c -3.73,0.39 -7.4,0.72 -11.02,0.99 -1.41,0.11 -2.82,0.21 -4.21,0.3 -1.39,0.09 -2.78,0.17 -4.14,0.25 -1.38,0.07 -2.73,0.14 -4.08,0.2 -2.7,0.13 -5.35,0.22 -7.94,0.28 -1.29,0.03 -2.57,0.06 -3.84,0.08 -1.27,0.02 -2.51,0.04 -3.75,0.05 -2.88,0.03 -5.66,0.02 -8.35,-0.01 -1.54,-0.02 -3.04,-0.04 -4.5,-0.07 -1.48,-0.03 -2.91,-0.07 -4.31,-0.11 -0.97,-0.03 -1.95,-0.07 -2.89,-0.1 -1.07,-0.04 -2.12,-0.08 -3.15,-0.13 -2.68,-0.12 -5.19,-0.26 -7.5,-0.4 -0.78,-0.05 -1.53,-0.1 -2.26,-0.15 -0.73,-0.05 -1.44,-0.1 -2.13,-0.15 -5.07,-0.38 -8.85,-0.76 -11.02,-1 v -17.05 c 2.33,0.25 6.09,0.62 11.02,0.98 4.14,0.3 9.12,0.6 14.76,0.81 0.58,0.02 1.16,0.04 1.75,0.06 1.2,0.05 2.44,0.08 3.7,0.11 0.72,0.02 1.44,0.04 2.19,0.05 1.15,0.03 2.33,0.05 3.52,0.06 1.86,0.03 3.76,0.04 5.71,0.04 1.59,0 3.19,-0.01 4.83,-0.03 0.4,0 0.82,-0.01 1.24,-0.01 1.05,-0.02 2.12,-0.04 3.2,-0.06 0.26,0 0.54,-0.01 0.8,-0.02 0.77,-0.01 1.53,-0.03 2.31,-0.06 0.25,0 0.5,-0.01 0.77,-0.02 1.59,-0.05 3.2,-0.11 4.84,-0.18 0.74,-0.03 1.5,-0.06 2.26,-0.1 0.66,-0.03 1.31,-0.06 1.99,-0.1 0.66,-0.03 1.33,-0.07 2,-0.11 1.37,-0.07 2.74,-0.16 4.14,-0.26 4.58,-0.31 9.28,-0.71 14.06,-1.2 z"
   id="path24086" />
				</g>
			</g>
			<path
   class="st31"
   d="m 329.49,800.39 v 17.06 c -1.41,0.11 -2.82,0.21 -4.21,0.3 -1.39,0.09 -2.78,0.17 -4.14,0.25 -1.38,0.07 -2.73,0.14 -4.08,0.2 -2.7,0.12 -5.35,0.21 -7.94,0.28 -1.29,0.03 -2.57,0.06 -3.84,0.08 -1.27,0.02 -2.51,0.04 -3.75,0.05 -2.88,0.02 -5.66,0.02 -8.35,-0.01 -1.54,-0.02 -3.04,-0.04 -4.5,-0.07 -1.48,-0.04 -2.91,-0.07 -4.31,-0.11 -0.97,-0.03 -1.95,-0.07 -2.89,-0.1 -1.07,-0.04 -2.12,-0.08 -3.15,-0.13 -2.68,-0.12 -5.19,-0.26 -7.5,-0.4 -0.78,-0.05 -1.53,-0.1 -2.26,-0.15 -0.73,-0.05 -1.44,-0.1 -2.13,-0.15 v -17.07 c 4.14,0.3 9.12,0.6 14.76,0.81 0.58,0.02 1.16,0.04 1.75,0.06 1.2,0.05 2.44,0.08 3.7,0.11 0.72,0.02 1.44,0.04 2.19,0.05 1.15,0.03 2.33,0.05 3.52,0.06 1.86,0.03 3.76,0.04 5.71,0.04 1.59,0 3.19,-0.01 4.83,-0.03 0.4,0 0.82,-0.01 1.24,-0.01 1.05,-0.02 2.12,-0.04 3.2,-0.06 0.26,0 0.54,-0.01 0.8,-0.02 0.77,-0.01 1.53,-0.03 2.31,-0.06 0.25,0 0.5,-0.01 0.77,-0.02 1.59,-0.05 3.2,-0.11 4.84,-0.18 0.74,-0.03 1.5,-0.06 2.26,-0.1 0.66,-0.03 1.31,-0.06 1.99,-0.1 0.66,-0.03 1.33,-0.07 2,-0.11 1.37,-0.07 2.74,-0.16 4.14,-0.26 1,-0.06 2.02,-0.13 3.04,-0.21 z"
   id="path24092" />
			<path
   class="st31"
   d="m 329.49,874.16 v 15.95 c -0.1,0.01 -0.2,0.01 -0.3,0.02 -0.93,0.07 -1.86,0.13 -2.78,0.19 -0.92,0.07 -1.83,0.13 -2.74,0.18 -0.91,0.06 -1.81,0.11 -2.71,0.16 -1.8,0.09 -3.59,0.18 -5.35,0.25 -0.52,0.03 -1.05,0.05 -1.56,0.06 -0.36,0.02 -0.71,0.03 -1.06,0.04 -0.87,0.03 -1.74,0.06 -2.59,0.08 -0.61,0.02 -1.22,0.04 -1.83,0.05 -0.59,0.02 -1.19,0.03 -1.78,0.04 l -1.38,0.03 h -0.09 c -1.67,0.03 -3.31,0.04 -4.92,0.05 -1.71,0.01 -3.38,0.01 -5.02,0 -0.2,0 -0.38,0 -0.58,-0.01 -2.07,-0.01 -4.08,-0.03 -6.04,-0.08 -0.52,-0.01 -1.05,-0.02 -1.56,-0.04 -0.18,0 -0.34,0 -0.51,-0.01 -0.4,0 -0.81,-0.02 -1.21,-0.03 -0.35,-0.01 -0.69,-0.02 -1.03,-0.03 -1.57,-0.05 -3.11,-0.1 -4.58,-0.16 -0.55,-0.02 -1.08,-0.05 -1.61,-0.07 -0.22,-0.01 -0.43,-0.02 -0.64,-0.03 -0.78,-0.04 -1.53,-0.08 -2.27,-0.11 -0.84,-0.05 -1.67,-0.09 -2.48,-0.14 -0.21,-0.01 -0.42,-0.02 -0.62,-0.04 -0.11,0 -0.21,-0.01 -0.31,-0.01 -0.25,-0.02 -0.49,-0.03 -0.74,-0.05 -0.11,0 -0.23,-0.01 -0.34,-0.02 -0.79,-0.05 -1.54,-0.1 -2.27,-0.15 -0.73,-0.05 -1.45,-0.1 -2.14,-0.15 v -15.94 c 0.28,0.02 0.58,0.04 0.87,0.06 0.1,0.01 0.21,0.02 0.31,0.03 0.11,0 0.23,0.01 0.34,0.02 0.7,0.05 1.41,0.09 2.15,0.14 0.18,0.01 0.36,0.03 0.56,0.03 0.1,0.01 0.2,0.02 0.3,0.02 0.09,0.01 0.17,0.02 0.26,0.02 0.55,0.04 1.12,0.07 1.68,0.1 0.38,0.02 0.75,0.04 1.14,0.06 0.81,0.05 1.64,0.09 2.49,0.13 0.16,0.01 0.33,0.02 0.5,0.02 1.02,0.05 2.07,0.1 3.15,0.14 0.08,0 0.14,0.01 0.22,0.01 1.01,0.04 2.02,0.08 3.07,0.11 1.73,0.06 3.51,0.11 5.35,0.14 1.16,0.03 2.33,0.05 3.52,0.06 0.63,0.01 1.27,0.02 1.91,0.02 0.3,0.01 0.6,0.01 0.91,0.01 0.95,0.01 1.91,0.01 2.89,0.01 2.21,0 4.48,-0.02 6.8,-0.05 0.17,-0.01 0.34,-0.01 0.51,-0.01 0.66,-0.01 1.3,-0.03 1.96,-0.04 0.19,-0.01 0.37,-0.01 0.56,-0.01 0.15,-0.01 0.31,-0.01 0.47,-0.02 0.3,0 0.59,-0.01 0.9,-0.02 0.39,-0.01 0.79,-0.02 1.18,-0.03 0.5,-0.01 1.01,-0.03 1.51,-0.05 0.4,-0.01 0.81,-0.03 1.21,-0.04 1.31,-0.04 2.63,-0.09 3.98,-0.16 0.31,-0.01 0.6,-0.02 0.91,-0.04 0.33,-0.01 0.66,-0.03 1.01,-0.05 0.4,-0.01 0.81,-0.04 1.22,-0.06 0.4,-0.02 0.81,-0.04 1.22,-0.07 1.01,-0.05 2.02,-0.11 3.05,-0.18 0.62,-0.03 1.26,-0.07 1.89,-0.12 0.99,-0.06 2.01,-0.13 3.04,-0.21 z"
   id="path24094" />
			<g
   id="g24100">
				<path
   class="st31"
   d="m 329.49,874.16 v 15.95 c -0.1,0.01 -0.2,0.01 -0.3,0.02 -0.93,0.07 -1.86,0.13 -2.78,0.19 -0.92,0.07 -1.83,0.13 -2.74,0.18 -0.91,0.06 -1.81,0.11 -2.71,0.16 -1.8,0.09 -3.59,0.18 -5.35,0.25 -0.52,0.03 -1.05,0.05 -1.56,0.06 -0.36,0.02 -0.71,0.03 -1.06,0.04 -0.87,0.03 -1.74,0.06 -2.59,0.08 -0.61,0.02 -1.22,0.04 -1.83,0.05 -0.59,0.02 -1.19,0.03 -1.78,0.04 l -1.38,0.03 h -0.09 c -1.67,0.03 -3.31,0.04 -4.92,0.05 -1.71,0.01 -3.38,0.01 -5.02,0 -0.2,0 -0.38,0 -0.58,-0.01 -2.07,-0.01 -4.08,-0.03 -6.04,-0.08 -0.52,-0.01 -1.05,-0.02 -1.56,-0.04 -0.18,0 -0.34,0 -0.51,-0.01 -0.4,0 -0.81,-0.02 -1.21,-0.03 -0.35,-0.01 -0.69,-0.02 -1.03,-0.03 -1.57,-0.05 -3.11,-0.1 -4.58,-0.16 -0.55,-0.02 -1.08,-0.05 -1.61,-0.07 -0.22,-0.01 -0.43,-0.02 -0.64,-0.03 -0.78,-0.04 -1.53,-0.08 -2.27,-0.11 -0.84,-0.05 -1.67,-0.09 -2.48,-0.14 -0.21,-0.01 -0.42,-0.02 -0.62,-0.04 -0.11,0 -0.21,-0.01 -0.31,-0.01 -0.25,-0.02 -0.49,-0.03 -0.74,-0.05 -0.11,0 -0.23,-0.01 -0.34,-0.02 -0.79,-0.05 -1.54,-0.1 -2.27,-0.15 -0.73,-0.05 -1.45,-0.1 -2.14,-0.15 v -15.94 c 0.28,0.02 0.58,0.04 0.87,0.06 0.1,0.01 0.21,0.02 0.31,0.03 0.11,0 0.23,0.01 0.34,0.02 0.7,0.05 1.41,0.09 2.15,0.14 0.18,0.01 0.36,0.03 0.56,0.03 0.1,0.01 0.2,0.02 0.3,0.02 0.09,0.01 0.17,0.02 0.26,0.02 0.55,0.04 1.12,0.07 1.68,0.1 0.38,0.02 0.75,0.04 1.14,0.06 0.81,0.05 1.64,0.09 2.49,0.13 0.16,0.01 0.33,0.02 0.5,0.02 1.02,0.05 2.07,0.1 3.15,0.14 0.08,0 0.14,0.01 0.22,0.01 1.01,0.04 2.02,0.08 3.07,0.11 1.73,0.06 3.51,0.11 5.35,0.14 1.16,0.03 2.33,0.05 3.52,0.06 0.63,0.01 1.27,0.02 1.91,0.02 0.3,0.01 0.6,0.01 0.91,0.01 0.95,0.01 1.91,0.01 2.89,0.01 2.21,0 4.48,-0.02 6.8,-0.05 0.17,-0.01 0.34,-0.01 0.51,-0.01 0.66,-0.01 1.3,-0.03 1.96,-0.04 0.19,-0.01 0.37,-0.01 0.56,-0.01 0.15,-0.01 0.31,-0.01 0.47,-0.02 0.3,0 0.59,-0.01 0.9,-0.02 0.39,-0.01 0.79,-0.02 1.18,-0.03 0.5,-0.01 1.01,-0.03 1.51,-0.05 0.4,-0.01 0.81,-0.03 1.21,-0.04 1.31,-0.04 2.63,-0.09 3.98,-0.16 0.31,-0.01 0.6,-0.02 0.91,-0.04 0.33,-0.01 0.66,-0.03 1.01,-0.05 0.4,-0.01 0.81,-0.04 1.22,-0.06 0.4,-0.02 0.81,-0.04 1.22,-0.07 1.01,-0.05 2.02,-0.11 3.05,-0.18 0.62,-0.03 1.26,-0.07 1.89,-0.12 0.99,-0.06 2.01,-0.13 3.04,-0.21 z"
   id="path24096" />
				<path
   class="st31"
   d="m 329.49,800.39 v 17.06 c -1.41,0.11 -2.82,0.21 -4.21,0.3 -1.39,0.09 -2.78,0.17 -4.14,0.25 -1.38,0.07 -2.73,0.14 -4.08,0.2 -2.7,0.12 -5.35,0.21 -7.94,0.28 -1.29,0.03 -2.57,0.06 -3.84,0.08 -1.27,0.02 -2.51,0.04 -3.75,0.05 -2.88,0.02 -5.66,0.02 -8.35,-0.01 -1.54,-0.02 -3.04,-0.04 -4.5,-0.07 -1.48,-0.04 -2.91,-0.07 -4.31,-0.11 -0.97,-0.03 -1.95,-0.07 -2.89,-0.1 -1.07,-0.04 -2.12,-0.08 -3.15,-0.13 -2.68,-0.12 -5.19,-0.26 -7.5,-0.4 -0.78,-0.05 -1.53,-0.1 -2.26,-0.15 -0.73,-0.05 -1.44,-0.1 -2.13,-0.15 v -17.07 c 4.14,0.3 9.12,0.6 14.76,0.81 0.58,0.02 1.16,0.04 1.75,0.06 1.2,0.05 2.44,0.08 3.7,0.11 0.72,0.02 1.44,0.04 2.19,0.05 1.15,0.03 2.33,0.05 3.52,0.06 1.86,0.03 3.76,0.04 5.71,0.04 1.59,0 3.19,-0.01 4.83,-0.03 0.4,0 0.82,-0.01 1.24,-0.01 1.05,-0.02 2.12,-0.04 3.2,-0.06 0.26,0 0.54,-0.01 0.8,-0.02 0.77,-0.01 1.53,-0.03 2.31,-0.06 0.25,0 0.5,-0.01 0.77,-0.02 1.59,-0.05 3.2,-0.11 4.84,-0.18 0.74,-0.03 1.5,-0.06 2.26,-0.1 0.66,-0.03 1.31,-0.06 1.99,-0.1 0.66,-0.03 1.33,-0.07 2,-0.11 1.37,-0.07 2.74,-0.16 4.14,-0.26 1,-0.06 2.02,-0.13 3.04,-0.21 z"
   id="path24098" />
			</g>
		</g>
	</g>
</svg>
