<svg width="620" height="1074" viewBox="0 0 620 1074" fill="none" xmlns="http://www.w3.org/2000/svg">
<path d="M214.7 826.03C215.24 830.67 215.93 835.48 216.71 840.2C218.39 850.44 220.4 860.17 221.71 866.49C222.21 868.89 222.6 870.78 222.82 871.99C222.82 872.03 222.84 872.09 222.85 872.14C223.54 875.88 225.13 885.39 226.73 895.02C240.86 896.23 256.21 896.12 268.44 895.68C268.68 893.98 268.92 892.22 269.16 890.37C271.11 875.45 274.39 866.1 277.03 858.58C278.58 854.16 279.92 850.35 280.48 846.64C280.67 845.4 280.82 843.97 280.95 842.41C281.27 838.52 281.43 833.79 281.45 828.95C257.42 828.48 231.27 827.06 214.7 826.03V826.03Z" fill="#9FA7C4"/>
<path d="M280.46 828.93C280.42 835.61 280.14 842.1 279.48 846.48C278.04 856.1 271.31 866.14 268.16 890.23C268.06 891.04 267.95 891.83 267.84 892.61C269.25 881.5 272.02 855.28 270.59 828.68C273.9 828.78 277.2 828.86 280.46 828.93Z" fill="#848BA3"/>
<path d="M233.88 895.51C231.83 895.4 229.78 895.26 227.76 895.09C227.41 895.07 227.07 895.04 226.73 895.01C225.13 885.39 223.54 875.88 222.85 872.14C222.85 872.09 222.83 872.03 222.82 871.99C222.59 870.77 222.2 868.88 221.71 866.48C220.4 860.17 218.39 850.44 216.71 840.2C215.93 835.49 215.24 830.67 214.7 826.03C215.03 826.05 215.37 826.07 215.71 826.09C219.57 826.33 223.91 826.59 228.6 826.84C228.6 844.89 229 862.86 230.36 872.31C231.41 879.66 232.81 887.54 233.88 895.51V895.51Z" fill="#848BA3"/>
<path d="M219.97 831.56C220.42 835.47 221.01 839.52 221.66 843.49C223.08 852.11 224.77 860.31 225.87 865.62C226.29 867.64 226.62 869.23 226.81 870.25C226.81 870.29 226.83 870.34 226.83 870.38C227.41 873.53 228.75 881.54 230.1 889.64C242 890.66 254.92 890.57 265.22 890.19C265.42 888.76 265.63 887.28 265.83 885.72C267.47 873.15 270.24 865.28 272.46 858.96C273.76 855.24 274.89 852.03 275.36 848.91C275.52 847.86 275.65 846.66 275.76 845.35C276.03 842.07 276.16 838.09 276.18 834.02C255.95 833.63 233.93 832.43 219.98 831.56H219.97Z" fill="#F3EFF5"/>
<path d="M276.18 834.01C276.16 838.09 276.03 842.07 275.75 845.34C275.64 846.65 275.51 847.85 275.36 848.9C274.88 852.03 273.76 855.24 272.45 858.96C271.79 860.85 271.07 862.88 270.36 865.14C270.91 855.66 271.19 844.89 270.81 833.89C272.61 833.94 274.4 833.98 276.18 834.01V834.01Z" fill="#848BA3"/>
<path d="M233.08 889.87C232.08 889.8 231.09 889.72 230.1 889.64C228.75 881.54 227.41 873.53 226.83 870.38C226.83 870.34 226.82 870.29 226.81 870.25C226.62 869.23 226.29 867.64 225.87 865.62C224.77 860.3 223.08 852.11 221.66 843.48C221.01 839.52 220.42 835.47 219.97 831.56C222.59 831.72 225.49 831.89 228.61 832.07C228.69 848.29 229.13 863.77 230.36 872.31C231.16 877.92 232.17 883.84 233.08 889.87Z" fill="#848BA3"/>
<path d="M230.36 872.31C231.16 877.92 232.17 883.84 233.08 889.87C232.08 889.8 231.09 889.72 230.1 889.64C228.75 881.54 227.41 873.53 226.83 870.38C226.83 870.34 226.82 870.29 226.81 870.25C226.62 869.23 226.29 867.64 225.87 865.62C224.77 860.3 223.08 852.11 221.66 843.48C221.01 839.52 220.42 835.47 219.97 831.56C222.59 831.72 225.49 831.89 228.61 832.07C228.69 848.29 229.13 863.77 230.36 872.31Z" fill="#C4C2C6"/>
<path d="M276.18 834.01C276.16 838.09 276.03 842.07 275.75 845.34C275.64 846.65 275.51 847.85 275.36 848.9C274.88 852.03 273.76 855.24 272.45 858.96C271.79 860.85 271.07 862.88 270.36 865.14C270.91 855.66 271.19 844.89 270.81 833.89C272.61 833.94 274.4 833.98 276.18 834.01V834.01Z" fill="#C4C2C6"/>
</svg>
