<svg width="620" height="1074" viewBox="0 0 620 1074" fill="none" xmlns="http://www.w3.org/2000/svg">
<path d="M227.07 914.88C227.32 914.97 227.58 915.05 227.84 915.1C249.9 919.61 265.65 915.86 266.31 915.69C266.33 915.69 266.36 915.69 266.37 915.67C266.75 915.7 267.13 915.8 267.48 915.93C268.93 916.47 270.07 917.71 270.42 919.33C270.94 921.83 269.34 924.29 266.83 924.81C266.12 924.97 249.33 928.39 227.34 923.89C224.84 923.38 223.22 920.92 223.73 918.42C224.09 916.64 225.42 915.31 227.06 914.88H227.07Z" fill="#9FA7C4"/>
<path d="M228.69 905.94C250.63 910.38 265.7 907 266.33 906.86C266.41 906.85 266.49 906.82 266.58 906.79C266.66 906.81 266.73 906.83 266.81 906.86C268.21 907.38 269.33 908.56 269.7 910.11C270.31 912.57 268.82 915.05 266.37 915.69C266.35 915.71 266.33 915.71 266.31 915.71C265.66 915.87 249.91 919.63 227.84 915.12C227.57 915.07 227.32 914.99 227.07 914.9C225 914.1 223.77 911.89 224.23 909.65C224.67 907.48 226.56 905.99 228.69 905.95V905.94Z" fill="#9FA7C4"/>
<path d="M230.37 896.81C250.29 900.89 264.11 897.85 264.24 897.82C265.15 897.61 266.07 897.69 266.89 897.99C268.3 898.51 269.44 899.72 269.79 901.3C270.35 903.71 268.92 906.11 266.58 906.78C266.49 906.81 266.42 906.84 266.33 906.85C265.69 907 250.62 910.38 228.69 905.93C228.63 905.92 228.57 905.91 228.51 905.89C226 905.37 224.38 902.93 224.89 900.41C225.4 897.89 227.85 896.28 230.37 896.79V896.81Z" fill="#9FA7C4"/>
<path d="M234.92 925.18C234.21 925.09 233.49 924.98 232.76 924.87C231 924.6 229.19 924.28 227.35 923.9C224.85 923.39 223.23 920.93 223.74 918.43C224.11 916.65 225.44 915.32 227.07 914.88C225 914.08 223.77 911.88 224.23 909.63C224.67 907.47 226.56 905.97 228.69 905.94C228.63 905.92 228.57 905.91 228.51 905.9C225.99 905.38 224.38 902.94 224.89 900.42C225.24 898.71 226.49 897.41 228.05 896.92C228.78 896.7 229.57 896.65 230.37 896.81C231.65 897.07 232.9 897.31 234.13 897.51C235.33 906.92 235.97 916.39 234.92 925.18V925.18Z" fill="#848BA3"/>
<path d="M250.19 926.71C243.79 926.71 235.92 926.16 227.25 924.39C225.91 924.12 224.75 923.33 224 922.19C223.25 921.04 222.98 919.67 223.25 918.33C223.64 916.41 225.06 914.91 226.94 914.4L227.09 914.36L227.24 914.42C227.47 914.5 227.7 914.57 227.94 914.62C249.53 919.04 264.8 915.55 266.11 915.24L266.18 915.17L266.4 915.19C266.81 915.22 267.21 915.32 267.64 915.48C269.31 916.1 270.52 917.51 270.89 919.24C271.47 922.01 269.69 924.74 266.92 925.32C266.82 925.34 260.35 926.72 250.17 926.72L250.19 926.71ZM227.05 915.41C225.61 915.85 224.53 917.03 224.23 918.53C224.01 919.61 224.23 920.71 224.83 921.64C225.44 922.56 226.37 923.19 227.45 923.41C249.69 927.96 266.57 924.37 266.73 924.33C268.96 923.86 270.4 921.67 269.93 919.44C269.63 918.04 268.65 916.91 267.31 916.41C267 916.29 266.71 916.22 266.42 916.19H266.37C265.77 916.35 250.07 920.17 227.74 915.6C227.51 915.55 227.28 915.49 227.05 915.41V915.41Z" fill="#676D80"/>
<path d="M249.47 917.83C243.44 917.83 236.05 917.29 227.75 915.59C227.46 915.53 227.18 915.45 226.9 915.35C224.56 914.44 223.24 912 223.74 909.53C224.23 907.16 226.26 905.47 228.68 905.44H228.73L228.78 905.45C250.63 909.88 265.59 906.51 266.21 906.37C266.29 906.36 266.34 906.34 266.4 906.31L266.54 906.26L266.69 906.29C266.79 906.31 266.88 906.34 266.98 906.38C268.59 906.98 269.79 908.33 270.18 909.98C270.84 912.63 269.25 915.36 266.62 916.12L266.59 916.15L266.37 916.19C265.99 916.29 259.66 917.83 249.46 917.83H249.47ZM228.65 906.43C226.72 906.48 225.11 907.83 224.72 909.72C224.31 911.71 225.38 913.68 227.25 914.41C227.47 914.49 227.7 914.56 227.94 914.61C249.53 919.03 264.8 915.54 266.11 915.23L266.23 915.19C268.41 914.62 269.74 912.39 269.2 910.22C268.88 908.88 267.92 907.8 266.62 907.32C266.61 907.32 266.59 907.31 266.58 907.3C266.52 907.32 266.47 907.33 266.41 907.34C265.81 907.48 250.67 910.89 228.64 906.43H228.65Z" fill="#676D80"/>
<path d="M250.93 908.72C244.86 908.72 237.26 908.18 228.6 906.43L228.41 906.39C225.63 905.82 223.84 903.1 224.41 900.32C224.69 898.97 225.47 897.82 226.61 897.06C227.75 896.3 229.13 896.04 230.47 896.32C249.95 900.31 263.56 897.45 264.13 897.33C265.11 897.11 266.12 897.17 267.06 897.52C268.69 898.13 269.9 899.5 270.28 901.19C270.89 903.84 269.33 906.51 266.72 907.26C266.63 907.29 266.53 907.33 266.42 907.35C266.05 907.44 260.32 908.73 250.93 908.73V908.72ZM229.43 897.21C228.63 897.21 227.84 897.44 227.16 897.9C226.24 898.51 225.61 899.44 225.39 900.53C224.93 902.76 226.38 904.96 228.62 905.42L228.8 905.46C250.65 909.89 265.61 906.52 266.23 906.38C266.31 906.37 266.36 906.35 266.42 906.32C268.55 905.71 269.81 903.56 269.32 901.42C269.01 900.06 268.04 898.95 266.73 898.47C265.97 898.19 265.15 898.14 264.36 898.32C263.77 898.45 249.96 901.34 230.28 897.31C230 897.25 229.72 897.22 229.44 897.22L229.43 897.21Z" fill="#676D80"/>
</svg>
