<svg width="620" height="1074" viewBox="0 0 620 1074" fill="none" xmlns="http://www.w3.org/2000/svg">
<path d="M420.62 346.34C421.67 346.03 422.76 345.71 423.88 345.36C422.77 345.7 421.68 346.03 420.62 346.34Z" fill="#555451"/>
<path d="M458.55 319L462.5 330.59C459.97 331.77 457.47 332.89 454.99 333.96C454.03 334.38 453.07 334.78 452.12 335.17C451.64 335.37 451.17 335.57 450.69 335.76C450.17 335.98 449.64 336.19 449.12 336.4C448.52 336.65 447.91 336.89 447.32 337.13C447.04 337.24 446.76 337.35 446.48 337.46C444.9 338.09 443.34 338.68 441.8 339.26C441.53 339.36 441.27 339.46 441 339.56C435.89 341.46 431.06 343.1 426.62 344.5C426.54 344.53 426.47 344.55 426.4 344.57C425.55 344.84 424.7 345.1 423.87 345.36C422.76 345.7 421.67 346.03 420.61 346.34C420.1 346.49 419.6 346.63 419.11 346.78C418.41 346.98 417.73 347.18 417.07 347.36C415.93 347.68 414.83 347.98 413.8 348.26C412.67 348.56 411.61 348.84 410.62 349.1C406.95 350.04 404.2 350.67 402.61 351.02L398.66 339.44C400.36 339.06 403.1 338.43 406.66 337.51C407.16 337.38 407.67 337.25 408.2 337.11C408.75 336.96 409.31 336.81 409.89 336.66C411.16 336.32 412.51 335.95 413.92 335.54C414.37 335.41 414.82 335.28 415.28 335.15C416.45 334.81 417.66 334.45 418.91 334.07C419.64 333.86 420.37 333.63 421.12 333.39C421.63 333.23 422.15 333.07 422.67 332.9C423.49 332.65 424.32 332.38 425.16 332.1C426.48 331.68 427.82 331.23 429.19 330.76C432.3 329.7 435.55 328.53 438.91 327.26C439.19 327.16 439.47 327.04 439.75 326.94C440.66 326.6 441.59 326.23 442.51 325.87C443.4 325.53 444.28 325.18 445.18 324.81C445.3 324.77 445.41 324.72 445.53 324.67C446.23 324.39 446.93 324.1 447.63 323.81C448.06 323.64 448.5 323.46 448.93 323.27C449.62 322.98 450.32 322.69 451.03 322.39C453.51 321.33 456.01 320.2 458.54 319.03L458.55 319Z" fill="#BEBBBF"/>
<path d="M451.04 322.36L454.99 333.96C454.03 334.38 453.07 334.78 452.12 335.17C451.64 335.37 451.17 335.57 450.69 335.76C450.17 335.98 449.64 336.19 449.12 336.4C448.52 336.65 447.91 336.89 447.32 337.13C447.04 337.24 446.76 337.35 446.48 337.46C444.9 338.09 443.34 338.68 441.8 339.26C441.53 339.36 441.27 339.46 441 339.56C435.89 341.46 431.06 343.1 426.62 344.5C426.54 344.53 426.47 344.55 426.4 344.57C425.55 344.84 424.7 345.1 423.87 345.36C422.75 345.71 421.67 346.03 420.61 346.34C420.1 346.49 419.6 346.63 419.11 346.78C418.41 346.98 417.73 347.18 417.07 347.36C415.93 347.68 414.83 347.98 413.8 348.26C412.67 348.56 411.61 348.84 410.62 349.1L406.67 337.51C407.17 337.38 407.68 337.25 408.21 337.11C408.76 336.96 409.32 336.81 409.9 336.66C411.17 336.32 412.52 335.95 413.93 335.54C414.38 335.41 414.83 335.28 415.29 335.15C416.46 334.81 417.67 334.45 418.92 334.07C419.65 333.86 420.38 333.63 421.13 333.39C421.64 333.23 422.16 333.07 422.68 332.9C423.5 332.65 424.33 332.38 425.17 332.1C426.49 331.68 427.83 331.23 429.2 330.76C432.31 329.7 435.56 328.53 438.92 327.26C439.2 327.16 439.48 327.04 439.76 326.94C440.67 326.6 441.6 326.23 442.52 325.87C443.41 325.53 444.29 325.18 445.19 324.81C445.31 324.77 445.42 324.72 445.54 324.67C446.24 324.39 446.94 324.1 447.64 323.81C448.07 323.64 448.51 323.46 448.94 323.27C449.63 322.98 450.33 322.69 451.04 322.39V322.36Z" fill="#F3EFF5"/>
<path d="M451.04 322.36L454.99 333.96C454.03 334.38 453.07 334.78 452.12 335.17C451.64 335.37 451.17 335.57 450.69 335.76C450.17 335.98 449.64 336.19 449.12 336.4C448.52 336.65 447.91 336.89 447.32 337.13C447.04 337.24 446.76 337.35 446.48 337.46C444.9 338.09 443.34 338.68 441.8 339.26C441.53 339.36 441.27 339.46 441 339.56C435.89 341.46 431.06 343.1 426.62 344.5C426.54 344.53 426.47 344.55 426.4 344.57C425.55 344.84 424.7 345.1 423.87 345.36C422.75 345.71 421.67 346.03 420.61 346.34C420.1 346.49 419.6 346.63 419.11 346.78C418.41 346.98 417.73 347.18 417.07 347.36C415.93 347.68 414.83 347.98 413.8 348.26C412.67 348.56 411.61 348.84 410.62 349.1L406.67 337.51C407.17 337.38 407.68 337.25 408.21 337.11C408.76 336.96 409.32 336.81 409.9 336.66C411.17 336.32 412.52 335.95 413.93 335.54C414.38 335.41 414.83 335.28 415.29 335.15C416.46 334.81 417.67 334.45 418.92 334.07C419.65 333.86 420.38 333.63 421.13 333.39C421.64 333.23 422.16 333.07 422.68 332.9C423.5 332.65 424.33 332.38 425.17 332.1C426.49 331.68 427.83 331.23 429.2 330.76C432.31 329.7 435.56 328.53 438.92 327.26C439.2 327.16 439.48 327.04 439.76 326.94C440.67 326.6 441.6 326.23 442.52 325.87C443.41 325.53 444.29 325.18 445.19 324.81C445.31 324.77 445.42 324.72 445.54 324.67C446.24 324.39 446.94 324.1 447.64 323.81C448.07 323.64 448.51 323.46 448.94 323.27C449.63 322.98 450.33 322.69 451.04 322.39V322.36Z" fill="#F3EFF5"/>
<path d="M454.99 333.96C457.47 332.89 459.97 331.76 462.5 330.59L463.46 333.4C453.1 338.22 443.02 342.11 434.11 345.15C419.5 350.13 408.02 352.87 403.57 353.84L402.61 351.02C404.19 350.67 406.95 350.04 410.62 349.1C411.62 348.84 412.68 348.56 413.8 348.26C414.84 347.98 415.93 347.68 417.07 347.35C417.73 347.17 418.42 346.96 419.11 346.77C419.6 346.63 420.1 346.48 420.61 346.33C421.66 346.02 422.75 345.7 423.87 345.35C424.7 345.09 425.55 344.83 426.4 344.56C426.47 344.54 426.54 344.52 426.61 344.49C431.04 343.08 435.88 341.44 440.99 339.55C441.26 339.44 441.52 339.35 441.79 339.25C443.33 338.68 444.88 338.08 446.46 337.46C446.75 337.35 447.03 337.24 447.3 337.13C447.9 336.89 448.5 336.65 449.11 336.4C449.64 336.19 450.16 335.98 450.68 335.76C451.15 335.57 451.63 335.37 452.11 335.17C453.06 334.77 454.02 334.37 454.98 333.95L454.99 333.96Z" fill="#555451"/>
<path d="M457.59 316.18L458.55 319C456.02 320.17 453.52 321.3 451.04 322.36C450.34 322.67 449.64 322.96 448.94 323.25C448.51 323.43 448.07 323.62 447.64 323.79C446.94 324.09 446.24 324.37 445.54 324.65C445.42 324.71 445.31 324.75 445.19 324.79C444.29 325.16 443.4 325.51 442.52 325.86C441.59 326.22 440.68 326.58 439.76 326.93C439.48 327.03 439.2 327.15 438.92 327.25C435.57 328.52 432.31 329.69 429.2 330.75C427.83 331.22 426.49 331.67 425.18 332.09C424.33 332.36 423.5 332.63 422.69 332.89C422.16 333.06 421.65 333.22 421.13 333.38C420.39 333.62 419.65 333.85 418.93 334.06C417.67 334.44 416.47 334.8 415.29 335.14C414.83 335.27 414.37 335.4 413.93 335.53C412.52 335.94 411.16 336.31 409.9 336.65C409.32 336.81 408.76 336.96 408.21 337.11C407.68 337.25 407.17 337.38 406.67 337.51C403.11 338.44 400.37 339.06 398.67 339.44L397.71 336.62C404.16 335.21 429.88 329.13 457.6 316.17L457.59 316.18Z" fill="#555451"/>
<path d="M402.1 292.02C403.15 291.71 404.24 291.39 405.36 291.04C404.25 291.38 403.16 291.71 402.1 292.02Z" fill="#555451"/>
<path d="M440.04 264.68L443.99 276.27C441.46 277.45 438.96 278.57 436.48 279.64C435.52 280.06 434.56 280.46 433.61 280.85C433.13 281.05 432.66 281.25 432.18 281.44C431.66 281.66 431.13 281.87 430.61 282.08C430.01 282.33 429.4 282.57 428.81 282.81C428.53 282.92 428.25 283.03 427.97 283.14C426.39 283.77 424.83 284.36 423.29 284.94C423.02 285.04 422.76 285.14 422.49 285.24C417.38 287.14 412.55 288.78 408.11 290.18C408.03 290.21 407.96 290.23 407.89 290.25C407.04 290.52 406.19 290.78 405.36 291.04C404.25 291.38 403.16 291.71 402.1 292.02C401.59 292.17 401.09 292.31 400.6 292.46C399.9 292.66 399.22 292.86 398.56 293.04C397.42 293.36 396.32 293.66 395.29 293.94C394.16 294.24 393.1 294.52 392.11 294.78C388.44 295.72 385.69 296.35 384.1 296.7L380.15 285.12C381.85 284.74 384.59 284.11 388.15 283.19C388.65 283.06 389.16 282.93 389.69 282.79C390.24 282.64 390.8 282.49 391.38 282.34C392.65 282 394 281.63 395.41 281.22C395.86 281.09 396.31 280.96 396.77 280.83C397.94 280.49 399.15 280.13 400.4 279.75C401.13 279.54 401.86 279.31 402.61 279.07C403.12 278.91 403.64 278.75 404.16 278.58C404.98 278.33 405.81 278.06 406.65 277.78C407.97 277.36 409.31 276.91 410.68 276.44C413.79 275.38 417.04 274.21 420.4 272.94C420.68 272.84 420.96 272.72 421.24 272.62C422.15 272.28 423.08 271.91 424 271.55C424.89 271.21 425.77 270.86 426.67 270.49C426.79 270.45 426.9 270.4 427.02 270.35C427.72 270.07 428.42 269.78 429.12 269.49C429.55 269.32 429.99 269.14 430.42 268.95C431.11 268.66 431.81 268.37 432.52 268.07C435 267.01 437.5 265.88 440.03 264.71L440.04 264.68Z" fill="#BEBBBF"/>
<path d="M432.53 268.05L436.48 279.65C435.52 280.07 434.56 280.47 433.61 280.86C433.13 281.06 432.66 281.26 432.18 281.45C431.66 281.67 431.13 281.88 430.61 282.09C430.01 282.34 429.4 282.58 428.81 282.82C428.53 282.93 428.25 283.04 427.97 283.15C426.39 283.78 424.83 284.37 423.29 284.95C423.02 285.05 422.76 285.15 422.49 285.25C417.38 287.15 412.55 288.79 408.11 290.19C408.03 290.22 407.96 290.24 407.89 290.26C407.04 290.53 406.19 290.79 405.36 291.05C404.24 291.4 403.16 291.72 402.1 292.03C401.59 292.18 401.09 292.32 400.6 292.47C399.9 292.67 399.22 292.87 398.56 293.05C397.42 293.37 396.32 293.67 395.29 293.95C394.16 294.25 393.1 294.53 392.11 294.79L388.16 283.2C388.66 283.07 389.17 282.94 389.7 282.8C390.25 282.65 390.81 282.5 391.39 282.35C392.66 282.01 394.01 281.64 395.42 281.23C395.87 281.1 396.32 280.97 396.78 280.84C397.95 280.5 399.16 280.14 400.41 279.76C401.14 279.55 401.87 279.32 402.62 279.08C403.13 278.92 403.65 278.76 404.17 278.59C404.99 278.34 405.82 278.07 406.66 277.79C407.98 277.37 409.32 276.92 410.69 276.45C413.8 275.39 417.05 274.22 420.41 272.95C420.69 272.85 420.97 272.73 421.25 272.63C422.16 272.29 423.09 271.92 424.01 271.56C424.9 271.22 425.78 270.87 426.68 270.5C426.8 270.46 426.91 270.41 427.03 270.36C427.73 270.08 428.43 269.79 429.13 269.5C429.56 269.33 430 269.15 430.43 268.96C431.12 268.67 431.82 268.38 432.53 268.08V268.05Z" fill="#F3EFF5"/>
<path d="M432.53 268.05L436.48 279.65C435.52 280.07 434.56 280.47 433.61 280.86C433.13 281.06 432.66 281.26 432.18 281.45C431.66 281.67 431.13 281.88 430.61 282.09C430.01 282.34 429.4 282.58 428.81 282.82C428.53 282.93 428.25 283.04 427.97 283.15C426.39 283.78 424.83 284.37 423.29 284.95C423.02 285.05 422.76 285.15 422.49 285.25C417.38 287.15 412.55 288.79 408.11 290.19C408.03 290.22 407.96 290.24 407.89 290.26C407.04 290.53 406.19 290.79 405.36 291.05C404.24 291.4 403.16 291.72 402.1 292.03C401.59 292.18 401.09 292.32 400.6 292.47C399.9 292.67 399.22 292.87 398.56 293.05C397.42 293.37 396.32 293.67 395.29 293.95C394.16 294.25 393.1 294.53 392.11 294.79L388.16 283.2C388.66 283.07 389.17 282.94 389.7 282.8C390.25 282.65 390.81 282.5 391.39 282.35C392.66 282.01 394.01 281.64 395.42 281.23C395.87 281.1 396.32 280.97 396.78 280.84C397.95 280.5 399.16 280.14 400.41 279.76C401.14 279.55 401.87 279.32 402.62 279.08C403.13 278.92 403.65 278.76 404.17 278.59C404.99 278.34 405.82 278.07 406.66 277.79C407.98 277.37 409.32 276.92 410.69 276.45C413.8 275.39 417.05 274.22 420.41 272.95C420.69 272.85 420.97 272.73 421.25 272.63C422.16 272.29 423.09 271.92 424.01 271.56C424.9 271.22 425.78 270.87 426.68 270.5C426.8 270.46 426.91 270.41 427.03 270.36C427.73 270.08 428.43 269.79 429.13 269.5C429.56 269.33 430 269.15 430.43 268.96C431.12 268.67 431.82 268.38 432.53 268.08V268.05Z" fill="#F3EFF5"/>
<path d="M436.48 279.64C438.96 278.57 441.46 277.44 443.99 276.27L444.95 279.08C434.59 283.9 424.51 287.79 415.6 290.83C400.99 295.81 389.51 298.55 385.06 299.52L384.1 296.7C385.68 296.35 388.44 295.72 392.11 294.78C393.11 294.52 394.17 294.24 395.29 293.94C396.33 293.66 397.42 293.36 398.56 293.03C399.22 292.85 399.91 292.64 400.6 292.45C401.09 292.31 401.59 292.16 402.1 292.01C403.15 291.7 404.24 291.38 405.36 291.03C406.19 290.77 407.04 290.51 407.89 290.24C407.96 290.22 408.03 290.2 408.1 290.17C412.53 288.76 417.37 287.12 422.48 285.23C422.75 285.12 423.01 285.03 423.28 284.93C424.82 284.36 426.37 283.76 427.95 283.14C428.24 283.03 428.52 282.92 428.79 282.81C429.39 282.57 429.99 282.33 430.6 282.08C431.13 281.87 431.65 281.66 432.17 281.44C432.64 281.25 433.12 281.05 433.6 280.85C434.55 280.45 435.51 280.05 436.47 279.63L436.48 279.64Z" fill="#555451"/>
<path d="M439.08 261.87L440.04 264.69C437.51 265.86 435.01 266.99 432.53 268.05C431.83 268.36 431.13 268.65 430.43 268.94C430 269.12 429.56 269.31 429.13 269.48C428.43 269.78 427.73 270.06 427.03 270.34C426.91 270.4 426.8 270.44 426.68 270.48C425.78 270.85 424.89 271.2 424.01 271.55C423.08 271.91 422.17 272.27 421.25 272.62C420.97 272.72 420.69 272.84 420.41 272.94C417.06 274.21 413.8 275.38 410.69 276.44C409.32 276.91 407.98 277.36 406.67 277.78C405.82 278.05 404.99 278.32 404.18 278.58C403.65 278.75 403.14 278.91 402.62 279.07C401.88 279.31 401.14 279.54 400.42 279.75C399.16 280.13 397.96 280.49 396.78 280.83C396.32 280.96 395.86 281.09 395.42 281.22C394.01 281.63 392.65 282 391.39 282.34C390.81 282.5 390.25 282.65 389.7 282.8C389.17 282.94 388.66 283.07 388.16 283.2C384.6 284.13 381.86 284.75 380.16 285.13L379.2 282.31C385.65 280.9 411.37 274.82 439.09 261.86L439.08 261.87Z" fill="#555451"/>
<path d="M437.96 397.21C439.01 396.9 440.1 396.58 441.22 396.23C440.11 396.57 439.02 396.9 437.96 397.21Z" fill="#555451"/>
<path d="M475.89 369.87L479.84 381.46C477.31 382.64 474.81 383.76 472.33 384.83C471.37 385.25 470.41 385.65 469.46 386.04C468.98 386.24 468.51 386.44 468.03 386.63C467.51 386.85 466.98 387.06 466.46 387.27C465.86 387.52 465.25 387.76 464.66 388C464.38 388.11 464.1 388.22 463.82 388.33C462.24 388.96 460.68 389.55 459.14 390.13C458.87 390.23 458.61 390.33 458.34 390.43C453.23 392.33 448.4 393.97 443.96 395.37C443.88 395.4 443.81 395.42 443.74 395.44C442.89 395.71 442.04 395.97 441.21 396.23C440.1 396.57 439.01 396.9 437.95 397.21C437.44 397.36 436.94 397.5 436.45 397.65C435.75 397.85 435.07 398.05 434.41 398.23C433.27 398.55 432.17 398.85 431.14 399.13C430.01 399.43 428.95 399.71 427.96 399.97C424.29 400.91 421.54 401.54 419.95 401.89L416 390.31C417.7 389.93 420.44 389.3 424 388.38C424.5 388.25 425.01 388.12 425.54 387.98C426.09 387.83 426.65 387.68 427.23 387.53C428.5 387.19 429.85 386.82 431.26 386.41C431.71 386.28 432.16 386.15 432.62 386.02C433.79 385.68 435 385.32 436.25 384.94C436.98 384.73 437.71 384.5 438.46 384.26C438.97 384.1 439.49 383.94 440.01 383.77C440.83 383.52 441.66 383.25 442.5 382.97C443.82 382.55 445.16 382.1 446.53 381.63C449.64 380.57 452.89 379.4 456.25 378.13C456.53 378.03 456.81 377.91 457.09 377.81C458 377.47 458.93 377.1 459.85 376.74C460.74 376.4 461.62 376.05 462.52 375.68C462.64 375.64 462.75 375.59 462.87 375.54C463.57 375.26 464.27 374.97 464.97 374.68C465.4 374.51 465.84 374.33 466.27 374.14C466.96 373.85 467.66 373.56 468.37 373.26C470.85 372.2 473.35 371.07 475.88 369.9L475.89 369.87Z" fill="#BEBBBF"/>
<path d="M468.38 373.23L472.33 384.83C471.37 385.25 470.41 385.65 469.46 386.04C468.98 386.24 468.51 386.44 468.03 386.63C467.51 386.85 466.98 387.06 466.46 387.27C465.86 387.52 465.25 387.76 464.66 388C464.38 388.11 464.1 388.22 463.82 388.33C462.24 388.96 460.68 389.55 459.14 390.13C458.87 390.23 458.61 390.33 458.34 390.43C453.23 392.33 448.4 393.97 443.96 395.37C443.88 395.4 443.81 395.42 443.74 395.44C442.89 395.71 442.04 395.97 441.21 396.23C440.09 396.58 439.01 396.9 437.95 397.21C437.44 397.36 436.94 397.5 436.45 397.65C435.75 397.85 435.07 398.05 434.41 398.23C433.27 398.55 432.17 398.85 431.14 399.13C430.01 399.43 428.95 399.71 427.96 399.97L424.01 388.38C424.51 388.25 425.02 388.12 425.55 387.98C426.1 387.83 426.66 387.68 427.24 387.53C428.51 387.19 429.86 386.82 431.27 386.41C431.72 386.28 432.17 386.15 432.63 386.02C433.8 385.68 435.01 385.32 436.26 384.94C436.99 384.73 437.72 384.5 438.47 384.26C438.98 384.1 439.5 383.94 440.02 383.77C440.84 383.52 441.67 383.25 442.51 382.97C443.83 382.55 445.17 382.1 446.54 381.63C449.65 380.57 452.9 379.4 456.26 378.13C456.54 378.03 456.82 377.91 457.1 377.81C458.01 377.47 458.94 377.1 459.86 376.74C460.75 376.4 461.63 376.05 462.53 375.68C462.65 375.64 462.76 375.59 462.88 375.54C463.58 375.26 464.28 374.97 464.98 374.68C465.41 374.51 465.85 374.33 466.28 374.14C466.97 373.85 467.67 373.56 468.38 373.26V373.23Z" fill="#F3EFF5"/>
<path d="M468.38 373.23L472.33 384.83C471.37 385.25 470.41 385.65 469.46 386.04C468.98 386.24 468.51 386.44 468.03 386.63C467.51 386.85 466.98 387.06 466.46 387.27C465.86 387.52 465.25 387.76 464.66 388C464.38 388.11 464.1 388.22 463.82 388.33C462.24 388.96 460.68 389.55 459.14 390.13C458.87 390.23 458.61 390.33 458.34 390.43C453.23 392.33 448.4 393.97 443.96 395.37C443.88 395.4 443.81 395.42 443.74 395.44C442.89 395.71 442.04 395.97 441.21 396.23C440.09 396.58 439.01 396.9 437.95 397.21C437.44 397.36 436.94 397.5 436.45 397.65C435.75 397.85 435.07 398.05 434.41 398.23C433.27 398.55 432.17 398.85 431.14 399.13C430.01 399.43 428.95 399.71 427.96 399.97L424.01 388.38C424.51 388.25 425.02 388.12 425.55 387.98C426.1 387.83 426.66 387.68 427.24 387.53C428.51 387.19 429.86 386.82 431.27 386.41C431.72 386.28 432.17 386.15 432.63 386.02C433.8 385.68 435.01 385.32 436.26 384.94C436.99 384.73 437.72 384.5 438.47 384.26C438.98 384.1 439.5 383.94 440.02 383.77C440.84 383.52 441.67 383.25 442.51 382.97C443.83 382.55 445.17 382.1 446.54 381.63C449.65 380.57 452.9 379.4 456.26 378.13C456.54 378.03 456.82 377.91 457.1 377.81C458.01 377.47 458.94 377.1 459.86 376.74C460.75 376.4 461.63 376.05 462.53 375.68C462.65 375.64 462.76 375.59 462.88 375.54C463.58 375.26 464.28 374.97 464.98 374.68C465.41 374.51 465.85 374.33 466.28 374.14C466.97 373.85 467.67 373.56 468.38 373.26V373.23Z" fill="#F3EFF5"/>
<path d="M472.33 384.83C474.81 383.76 477.31 382.63 479.84 381.46L480.8 384.27C470.44 389.09 460.36 392.98 451.45 396.02C436.84 401 425.36 403.74 420.91 404.71L419.95 401.89C421.53 401.54 424.29 400.91 427.96 399.97C428.96 399.71 430.02 399.43 431.14 399.13C432.18 398.85 433.27 398.55 434.41 398.22C435.07 398.04 435.76 397.83 436.45 397.64C436.94 397.5 437.44 397.35 437.95 397.2C439 396.89 440.09 396.57 441.21 396.22C442.04 395.96 442.89 395.7 443.74 395.43C443.81 395.41 443.88 395.39 443.95 395.36C448.38 393.95 453.22 392.31 458.33 390.42C458.6 390.31 458.86 390.22 459.13 390.12C460.67 389.55 462.22 388.95 463.8 388.33C464.09 388.22 464.37 388.11 464.64 388C465.24 387.76 465.84 387.52 466.45 387.27C466.98 387.06 467.5 386.85 468.02 386.63C468.49 386.44 468.97 386.24 469.45 386.04C470.4 385.64 471.36 385.24 472.32 384.82L472.33 384.83Z" fill="#555451"/>
<path d="M474.93 367.05L475.89 369.87C473.36 371.04 470.86 372.17 468.38 373.23C467.68 373.54 466.98 373.83 466.28 374.12C465.85 374.3 465.41 374.49 464.98 374.66C464.28 374.96 463.58 375.24 462.88 375.52C462.76 375.58 462.65 375.62 462.53 375.66C461.63 376.03 460.74 376.38 459.86 376.73C458.93 377.09 458.02 377.45 457.1 377.8C456.82 377.9 456.54 378.02 456.26 378.12C452.91 379.39 449.65 380.56 446.54 381.62C445.17 382.09 443.83 382.54 442.52 382.96C441.67 383.23 440.84 383.5 440.03 383.76C439.5 383.93 438.99 384.09 438.47 384.25C437.73 384.49 436.99 384.72 436.27 384.93C435.01 385.31 433.81 385.67 432.63 386.01C432.17 386.14 431.71 386.27 431.27 386.4C429.86 386.81 428.5 387.18 427.24 387.52C426.66 387.68 426.1 387.83 425.55 387.98C425.02 388.12 424.51 388.25 424.01 388.38C420.45 389.31 417.71 389.93 416.01 390.31L415.05 387.49C421.5 386.08 447.22 380 474.94 367.04L474.93 367.05Z" fill="#555451"/>
<path d="M375.245 270.798L367.427 273.462L418.474 423.242L426.293 420.578L375.245 270.798Z" fill="#555451"/>
<path d="M442.966 247.706L435.147 250.371L486.195 400.151L494.013 397.486L442.966 247.706Z" fill="#555451"/>
</svg>
