<svg width="620" height="1074" viewBox="0 0 620 1074" fill="none" xmlns="http://www.w3.org/2000/svg">
<path d="M215.92 810.25C216.26 810.32 216.59 810.39 216.94 810.45C240.88 815.28 263.03 813.06 277.42 810.34C277.75 810.27 278.06 810.22 278.36 810.15C278.95 810.21 279.52 810.35 280.05 810.58C281.79 811.32 283.14 812.87 283.52 814.86C284.13 818.04 282.06 821.11 278.89 821.73L276.57 822.18C262.56 824.74 241.02 826.83 217.69 822.27C216.9 822.1 216.14 821.95 215.37 821.78C212.21 821.09 210.21 817.97 210.9 814.81C211.44 812.31 213.51 810.55 215.9 810.25H215.92Z" fill="#9FA7C4"/>
<path d="M214.26 798.68C214.58 798.8 214.92 798.91 215.27 798.99L215.41 799.03C216.1 799.16 216.78 799.31 217.43 799.43C241.08 803.96 262.79 801.71 276.85 799.02L277.2 798.95C277.87 798.82 278.51 798.7 279.13 798.55C279.28 798.52 279.41 798.48 279.55 798.43C279.94 798.51 280.32 798.62 280.68 798.77C282.39 799.49 283.72 801 284.14 802.95C284.81 806.11 282.79 809.23 279.63 809.9C279.22 809.99 278.8 810.07 278.37 810.16C278.07 810.22 277.75 810.28 277.43 810.35C263.03 813.07 240.89 815.29 216.95 810.46C216.6 810.4 216.27 810.33 215.93 810.26C215.53 810.18 215.15 810.1 214.74 810.01C211.58 809.33 209.57 806.23 210.25 803.05C210.72 800.89 212.3 799.27 214.27 798.69L214.26 798.68Z" fill="#9FA7C4"/>
<path d="M217.62 787.52L217.78 787.55C218.39 787.68 219.01 787.8 219.61 787.91C241.46 792.1 261.59 790 274.63 787.51L275 787.44C275.53 787.34 276.06 787.24 276.56 787.13C277.8 786.85 279.03 786.99 280.12 787.45C281.8 788.16 283.12 789.63 283.55 791.55C284.24 794.55 282.46 797.55 279.56 798.42C279.42 798.47 279.28 798.51 279.14 798.54C278.51 798.68 277.87 798.81 277.21 798.94L276.86 799.01C262.8 801.71 241.09 803.95 217.44 799.42C216.79 799.3 216.11 799.16 215.42 799.02L215.28 798.98C214.93 798.9 214.59 798.8 214.27 798.67C211.7 797.63 210.14 794.88 210.72 792.07C211.38 788.9 214.47 786.86 217.63 787.51L217.62 787.52Z" fill="#9FA7C4"/>
<path d="M267.61 894.27C267.69 893.72 267.76 893.17 267.83 892.61C267.75 893.21 267.68 893.76 267.61 894.27Z" fill="#848BA3"/>
<path d="M229.05 789.57C228.84 798.98 228.62 811.48 228.59 824.16C224.74 823.74 220.81 823.16 216.83 822.38C216.3 822.27 215.78 822.16 215.27 822.05C215.02 822 214.77 821.95 214.52 821.89C211.36 821.21 209.36 818.09 210.05 814.92C210.56 812.56 212.44 810.84 214.68 810.42C214.67 810.37 214.67 810.33 214.68 810.28C214.41 810.23 214.14 810.17 213.86 810.11C210.7 809.44 208.69 806.33 209.37 803.16C209.84 801 211.42 799.38 213.39 798.79C210.81 797.75 209.26 795.01 209.84 792.19C210.49 789.05 213.53 787.02 216.66 787.62C216.69 787.62 216.72 787.62 216.75 787.62L216.91 787.65C217.52 787.78 218.13 787.91 218.73 788.02C222.22 788.69 225.67 789.2 229.05 789.56V789.57Z" fill="#848BA3"/>
<path d="M282.66 814.97C283.1 817.28 282.14 819.53 280.36 820.82C279.69 821.32 278.9 821.67 278.03 821.84L275.71 822.29C273.99 822.6 272.16 822.91 270.23 823.2C269.32 811.27 267.49 799.48 264.23 789.14C267.71 788.7 270.91 788.17 273.76 787.62L274.13 787.55C274.37 787.5 274.61 787.46 274.85 787.41C275.13 787.36 275.41 787.3 275.69 787.24C276.92 786.96 278.16 787.1 279.25 787.56C280.93 788.27 282.25 789.74 282.68 791.66C283.36 794.66 281.59 797.66 278.69 798.53C279.08 798.61 279.46 798.73 279.82 798.88C281.53 799.6 282.86 801.11 283.27 803.06C283.86 805.82 282.39 808.55 279.89 809.65C279.91 810.12 279.95 810.61 279.98 811.11C281.33 811.93 282.34 813.3 282.66 814.97V814.97Z" fill="#848BA3"/>
<path d="M245.35 825.57C236.44 825.57 226.75 824.83 216.74 822.88L215.89 822.7C215.4 822.6 214.91 822.5 214.42 822.39C212.76 822.03 211.34 821.04 210.43 819.62C209.51 818.19 209.21 816.49 209.57 814.83C210.14 812.2 212.32 810.21 215 809.88H215.08H215.16C215.5 809.95 215.82 810.02 216.16 810.08C240.04 814.9 262.13 812.679 276.46 809.969L277.47 809.77H277.55C278.19 809.84 278.8 810 279.39 810.24C281.35 811.07 282.76 812.8 283.16 814.88C283.83 818.32 281.57 821.67 278.13 822.33L275.82 822.78C267.79 824.25 257.28 825.57 245.36 825.57H245.35ZM215.03 810.87C212.81 811.18 211.01 812.84 210.54 815.03C210.23 816.43 210.49 817.86 211.27 819.07C212.04 820.27 213.24 821.099 214.63 821.409C215.12 821.519 215.6 821.619 216.09 821.719L216.94 821.9C240.19 826.45 261.69 824.359 275.63 821.799L277.94 821.349C280.84 820.789 282.74 817.97 282.18 815.07C281.84 813.32 280.65 811.859 279 811.159C278.53 810.959 278.04 810.83 277.53 810.78L276.66 810.95C262.24 813.68 240.01 815.91 215.98 811.06C215.67 811 215.36 810.94 215.04 810.87H215.03Z" fill="#676D80"/>
<path d="M245.32 813.91C236.18 813.91 226.24 813.13 215.97 811.06C215.63 811 215.29 810.93 214.95 810.86L213.76 810.61C212.1 810.26 210.68 809.27 209.76 807.85C208.84 806.42 208.53 804.72 208.89 803.06C209.38 800.79 211.05 798.98 213.26 798.32L213.42 798.27L213.58 798.33C213.9 798.45 214.21 798.55 214.52 798.62L215.39 798.8C215.82 798.89 216.25 798.97 216.66 799.05C240.27 803.57 261.91 801.32 275.9 798.64L276.25 798.57C276.91 798.45 277.54 798.32 278.16 798.18C278.29 798.15 278.41 798.12 278.53 798.07L278.66 798.03L278.79 798.06C279.22 798.15 279.63 798.27 280.01 798.43C281.92 799.24 283.33 800.93 283.76 802.96C284.48 806.39 282.28 809.77 278.86 810.51C278.63 810.56 278.39 810.61 278.16 810.66L276.65 810.96C268.39 812.52 257.57 813.92 245.32 813.92V813.91ZM213.38 799.32C211.61 799.91 210.27 801.41 209.86 803.26C209.56 804.66 209.82 806.09 210.6 807.3C211.38 808.5 212.57 809.33 213.97 809.62L215.16 809.87C215.5 809.94 215.82 810.01 216.16 810.07C240.04 814.89 262.13 812.67 276.46 809.96L277.96 809.66C278.19 809.61 278.42 809.57 278.65 809.52C281.54 808.9 283.39 806.05 282.78 803.16C282.41 801.45 281.23 800.02 279.62 799.34C279.34 799.22 279.04 799.13 278.71 799.05C278.6 799.08 278.49 799.11 278.37 799.14C277.74 799.29 277.09 799.41 276.42 799.54L276.07 799.61C261.99 802.31 240.22 804.57 216.46 800.02C216.05 799.95 215.61 799.86 215.18 799.77L214.28 799.58C213.99 799.52 213.69 799.43 213.38 799.32V799.32Z" fill="#676D80"/>
<path d="M244.56 802.62C235.81 802.62 226.31 801.9 216.47 800.02C216.06 799.95 215.62 799.86 215.19 799.77L214.29 799.58C213.95 799.51 213.59 799.39 213.22 799.25C210.37 798.1 208.75 795.08 209.36 792.08C210.07 788.65 213.43 786.43 216.86 787.13L217.18 787.19C217.73 787.3 218.29 787.42 218.83 787.52C240.6 791.69 260.67 789.6 273.67 787.12L274.03 787.05C274.56 786.95 275.08 786.85 275.58 786.74C276.87 786.45 278.21 786.56 279.45 787.09C281.34 787.89 282.73 789.56 283.17 791.55C283.91 794.78 282 798.06 278.84 799.01C278.7 799.06 278.55 799.1 278.39 799.14C277.76 799.29 277.11 799.41 276.44 799.54L276.09 799.61C267.84 801.19 256.95 802.62 244.57 802.62H244.56ZM215.58 788.01C213.1 788.01 210.86 789.76 210.34 792.29C209.82 794.82 211.18 797.36 213.58 798.33C213.89 798.45 214.21 798.55 214.51 798.61L215.38 798.79C215.81 798.88 216.24 798.96 216.65 799.04C240.26 803.56 261.9 801.31 275.89 798.63L276.24 798.56C276.9 798.44 277.53 798.31 278.15 798.17C278.28 798.14 278.4 798.11 278.52 798.06C281.21 797.25 282.81 794.49 282.18 791.77C281.81 790.09 280.64 788.69 279.04 788.02C278 787.58 276.88 787.48 275.78 787.73C275.27 787.84 274.74 787.95 274.2 788.05L273.84 788.12C260.75 790.62 240.55 792.73 218.63 788.52C218.08 788.42 217.52 788.3 216.96 788.19L216.64 788.13C216.28 788.06 215.92 788.02 215.56 788.02L215.58 788.01Z" fill="#676D80"/>
</svg>
