<svg width="620" height="1074" viewBox="0 0 620 1074" fill="none" xmlns="http://www.w3.org/2000/svg">
<path d="M301.81 600.56C301.19 600.56 300.56 600.49 299.93 600.33L298.05 599.86C255.06 589.39 222.92 593.06 214 594.45L212.17 594.76C207.93 595.48 203.9 592.63 203.18 588.38C202.46 584.13 205.31 580.11 209.56 579.39L211.54 579.05C223.79 577.13 257.12 573.83 301.78 584.71L303.68 585.18C307.86 586.22 310.41 590.44 309.37 594.62C308.49 598.17 305.31 600.54 301.81 600.54V600.56Z" fill="#9FA7C4"/>
<path d="M301.76 616.21C301.09 616.21 300.4 616.12 299.72 615.94C299.26 615.81 298.79 615.7 298.32 615.59L298.09 615.54C254.68 604.97 222.51 608.76 213.68 610.17C213.02 610.28 212.42 610.39 211.94 610.47C207.69 611.22 203.66 608.39 202.91 604.15C202.16 599.91 204.99 595.87 209.23 595.12C209.74 595.03 210.38 594.92 211.15 594.79C223.47 592.82 256.8 589.44 301.74 600.39L301.92 600.43C302.54 600.58 303.17 600.73 303.79 600.89C307.95 602.01 310.41 606.29 309.28 610.45C308.34 613.93 305.19 616.22 301.76 616.22V616.21Z" fill="#9FA7C4"/>
<path d="M301.29 631.71C300.69 631.71 300.09 631.64 299.48 631.5L297.64 631.05C254.79 620.7 222.84 624.36 214.07 625.74C213.35 625.85 212.78 625.94 212.32 626.02C208.07 626.75 204.04 623.9 203.31 619.66C202.58 615.42 205.43 611.38 209.67 610.65C210.23 610.55 210.92 610.44 211.72 610.32C223.82 608.43 256.89 605.16 301.25 615.88L303.07 616.32C307.26 617.32 309.85 621.52 308.85 625.71C308 629.29 304.8 631.71 301.27 631.71H301.29Z" fill="#9FA7C4"/>
<path d="M309.28 610.45C308.42 613.66 305.66 615.83 302.55 616.14C302.49 616.14 302.44 616.16 302.38 616.16L302.55 616.2L303.1 616.34C307.29 617.33 309.87 621.53 308.88 625.72C308.06 629.19 305.04 631.56 301.65 631.69C301.54 631.71 301.43 631.71 301.31 631.71C300.71 631.71 300.1 631.64 299.5 631.5L297.66 631.06C296.1 630.68 294.56 630.33 293.03 629.99C293.3 614.41 293.19 597.63 292.2 582.56C295.33 583.21 298.53 583.93 301.79 584.72L303.27 585.09L303.69 585.2C307.87 586.23 310.41 590.46 309.38 594.64C308.59 597.86 305.9 600.1 302.8 600.49C302.67 600.51 302.54 600.53 302.4 600.54C302.54 600.57 302.66 600.61 302.8 600.64C303.13 600.72 303.46 600.81 303.79 600.89C307.95 602.01 310.41 606.29 309.29 610.45H309.28Z" fill="#848BA3"/>
<path d="M226.73 624.4C220.85 624.78 216.55 625.35 214.07 625.74C213.35 625.85 212.78 625.94 212.32 626.02C211.74 626.12 211.15 626.16 210.58 626.12C207.02 625.94 203.95 623.32 203.32 619.67C202.59 615.42 205.43 611.4 209.68 610.67C209.7 610.67 209.72 610.67 209.75 610.67C209.89 610.64 210.05 610.62 210.21 610.59C210.05 610.59 209.9 610.57 209.74 610.55C206.38 610.18 203.52 607.65 202.91 604.16C202.16 599.92 204.99 595.88 209.23 595.13C209.36 595.11 209.49 595.08 209.64 595.06C209.92 595.01 210.25 594.95 210.6 594.89C210.28 594.89 209.97 594.85 209.65 594.79C206.44 594.28 203.75 591.79 203.18 588.41C202.46 584.16 205.31 580.14 209.56 579.41L210.52 579.24L211.54 579.06C214.68 578.56 219.21 577.99 224.95 577.58C225.07 592.72 225.64 608.83 226.74 624.41L226.73 624.4Z" fill="#848BA3"/>
<path d="M301.81 601.06C301.14 601.06 300.47 600.98 299.81 600.81L297.93 600.34C255 589.88 222.9 593.57 214.08 594.94L212.26 595.25C210.07 595.62 207.88 595.12 206.07 593.84C204.26 592.56 203.06 590.65 202.69 588.46C202.32 586.28 202.82 584.08 204.1 582.27C205.38 580.46 207.29 579.26 209.48 578.89L211.46 578.55C223.75 576.62 257.15 573.32 301.91 584.22L303.81 584.69C308.25 585.79 310.97 590.3 309.87 594.74C308.95 598.45 305.64 601.04 301.82 601.04L301.81 601.06ZM239.96 592.19C254.92 592.19 274.98 593.73 298.17 599.38L300.05 599.85C300.63 599.99 301.22 600.07 301.81 600.07C305.17 600.07 308.08 597.79 308.89 594.53C309.86 590.62 307.47 586.66 303.56 585.69L301.66 585.22C257.08 574.36 223.84 577.65 211.62 579.57L209.65 579.91C207.73 580.24 206.05 581.29 204.92 582.88C203.79 584.47 203.35 586.4 203.68 588.33C204.01 590.25 205.06 591.93 206.65 593.06C208.24 594.19 210.17 594.63 212.09 594.3L213.92 593.99C218.02 593.35 227.11 592.22 239.96 592.22V592.19Z" fill="#676D80"/>
<path d="M301.76 616.71C301.03 616.71 300.3 616.61 299.59 616.42C299.15 616.3 298.71 616.2 298.28 616.09L297.98 616.02C254.66 605.47 222.57 609.25 213.77 610.65C213.12 610.76 212.51 610.86 212.03 610.95C207.52 611.75 203.21 608.73 202.42 604.22C201.62 599.72 204.64 595.4 209.15 594.61C209.66 594.52 210.31 594.41 211.08 594.28C223.38 592.31 256.85 588.92 301.87 599.89L302.04 599.93C302.67 600.08 303.3 600.23 303.93 600.4C308.35 601.59 310.97 606.16 309.78 610.57C308.81 614.18 305.51 616.71 301.78 616.71H301.76ZM239.94 607.84C254.91 607.84 274.95 609.39 298.21 615.05L298.44 615.1C298.96 615.22 299.41 615.33 299.86 615.45C300.48 615.62 301.13 615.7 301.77 615.7C305.06 615.7 307.95 613.48 308.81 610.3C309.86 606.42 307.55 602.4 303.67 601.35C303.06 601.18 302.43 601.04 301.82 600.89L301.64 600.85C256.79 589.93 223.48 593.3 211.24 595.26C210.48 595.39 209.83 595.5 209.32 595.59C205.36 596.29 202.71 600.08 203.4 604.05C204.1 608.01 207.91 610.67 211.86 609.96C212.34 609.88 212.95 609.77 213.61 609.66C217.73 609 226.92 607.83 239.95 607.83L239.94 607.84Z" fill="#676D80"/>
<path d="M301.29 632.21C300.65 632.21 300 632.13 299.37 631.98L297.53 631.53C254.76 621.19 222.9 624.86 214.15 626.22C213.43 626.33 212.87 626.42 212.41 626.5C207.91 627.28 203.6 624.24 202.83 619.73C202.05 615.22 205.09 610.92 209.6 610.15C210.17 610.05 210.86 609.93 211.67 609.82C223.84 607.92 256.94 604.65 301.39 615.39L303.21 615.83C307.66 616.89 310.42 621.37 309.36 625.82C308.47 629.58 305.15 632.2 301.29 632.2V632.21ZM239.95 623.47C254.8 623.47 274.71 624.99 297.76 630.56L299.6 631.01C300.15 631.14 300.72 631.21 301.29 631.21C304.68 631.21 307.6 628.9 308.38 625.6C309.31 621.69 306.88 617.74 302.97 616.81L301.15 616.37C256.87 605.67 223.92 608.92 211.81 610.82C211.01 610.94 210.32 611.05 209.76 611.15C205.8 611.83 203.13 615.61 203.81 619.58C204.49 623.54 208.27 626.21 212.24 625.53C212.71 625.45 213.27 625.35 214 625.25C218.07 624.61 227.13 623.48 239.95 623.48V623.47Z" fill="#676D80"/>
</svg>
