<svg width="620" height="1074" viewBox="0 0 620 1074" fill="none" xmlns="http://www.w3.org/2000/svg">
<path d="M411.01 361.51C411.28 361.48 411.53 361.45 411.8 361.41C430.36 359.02 445.89 351.96 455.67 346.44C455.89 346.31 456.1 346.19 456.31 346.07C456.75 345.97 457.2 345.93 457.64 345.96C459.09 346.07 460.45 346.86 461.21 348.21C462.44 350.36 461.69 353.11 459.54 354.33L457.97 355.23C448.44 360.54 433.31 367.36 415.26 369.8C414.64 369.87 414.06 369.95 413.46 370.02C411 370.3 408.78 368.53 408.5 366.06C408.28 364.11 409.34 362.32 411.01 361.52V361.51Z" fill="#9FA7C4"/>
<path d="M406.96 353.52C407.22 353.53 407.5 353.52 407.77 353.49H407.88C408.41 353.41 408.94 353.35 409.44 353.27C427.72 350.73 442.92 343.76 452.46 338.34L452.7 338.2C453.15 337.94 453.59 337.7 454.01 337.44C454.11 337.38 454.2 337.32 454.29 337.25C454.59 337.21 454.9 337.2 455.19 337.22C456.61 337.32 457.95 338.09 458.73 339.4C459.99 341.53 459.3 344.29 457.17 345.56C456.89 345.73 456.61 345.88 456.32 346.06C456.12 346.18 455.9 346.3 455.68 346.43C445.9 351.95 430.38 359.02 411.81 361.4C411.54 361.44 411.29 361.47 411.02 361.5C410.71 361.54 410.41 361.57 410.09 361.61C407.63 361.9 405.4 360.14 405.12 357.67C404.93 355.99 405.68 354.42 406.96 353.51V353.52Z" fill="#9FA7C4"/>
<path d="M406.65 344.59L406.77 344.57C407.24 344.51 407.72 344.45 408.19 344.38C425.08 342.04 439.17 335.56 448.02 330.54L448.27 330.4C448.63 330.2 448.99 329.99 449.33 329.79C450.16 329.28 451.09 329.08 451.99 329.14C453.38 329.24 454.71 329.98 455.49 331.27C456.73 333.28 456.18 335.89 454.29 337.24C454.2 337.31 454.11 337.37 454.01 337.43C453.59 337.69 453.16 337.94 452.7 338.19L452.46 338.33C442.92 343.75 427.72 350.73 409.44 353.26C408.94 353.33 408.41 353.4 407.88 353.47H407.77C407.5 353.51 407.22 353.52 406.96 353.5C404.84 353.38 403.03 351.77 402.76 349.58C402.46 347.12 404.2 344.88 406.65 344.57V344.59Z" fill="#9FA7C4"/>
<path d="M430.9 366.51C426.83 367.67 422.53 368.66 418.02 369.39C417.11 369.54 416.2 369.67 415.27 369.8C414.65 369.87 414.07 369.95 413.47 370.01C411.01 370.29 408.78 368.52 408.5 366.06C408.28 364.11 409.35 362.32 411.01 361.52C410.7 361.55 410.4 361.59 410.09 361.63C407.63 361.91 405.4 360.15 405.12 357.68C404.92 356 405.68 354.44 406.96 353.53C404.83 353.41 403.03 351.8 402.76 349.61C402.51 347.6 403.63 345.73 405.38 344.95C405.77 344.78 406.2 344.66 406.65 344.6L406.77 344.58C407.24 344.52 407.72 344.46 408.19 344.4C411.94 343.88 415.54 343.16 418.99 342.29C425.09 353.72 430.65 362.59 430.65 362.59C430.65 362.59 430.73 364 430.9 366.51V366.51Z" fill="#848BA3"/>
<path d="M459.94 354.08C459.81 354.17 459.68 354.26 459.54 354.34L457.97 355.23C456.11 356.27 454.03 357.36 451.76 358.47C451.39 358.65 451 358.84 450.61 359.02C450.23 359.21 449.83 359.4 449.43 359.58C450.42 356.62 451 352.79 451.33 348.78C451.61 345.42 451.71 341.94 451.71 338.77C451.71 334.8 451.56 331.31 451.42 329.15C451.44 329.15 451.47 329.15 451.5 329.15C451.66 329.15 451.83 329.15 451.99 329.15C453.38 329.26 454.71 330 455.49 331.29C456.72 333.3 456.18 335.91 454.28 337.26C454.58 337.22 454.89 337.21 455.19 337.23C456.61 337.34 457.94 338.11 458.72 339.41C459.99 341.54 459.29 344.3 457.16 345.57C456.88 345.74 456.6 345.89 456.31 346.07C456.75 345.96 457.2 345.93 457.64 345.96C459.09 346.07 460.45 346.86 461.22 348.21C462.36 350.23 461.79 352.76 459.94 354.08V354.08Z" fill="#848BA3"/>
<path d="M412.95 370.54C411.83 370.54 410.75 370.16 409.85 369.45C408.81 368.62 408.15 367.43 408 366.11C407.76 364.01 408.88 361.98 410.79 361.06L410.95 361.01C411.21 360.98 411.46 360.95 411.72 360.91C430.22 358.53 445.69 351.49 455.42 345.99L456.19 345.57C456.68 345.46 457.18 345.42 457.67 345.45C459.33 345.57 460.82 346.51 461.64 347.95C463 350.34 462.17 353.4 459.78 354.76L458.21 355.66C448.65 360.98 433.46 367.84 415.32 370.29L414.64 370.37C414.26 370.42 413.89 370.46 413.5 370.51C413.31 370.53 413.12 370.54 412.93 370.54H412.95ZM411.16 362C409.68 362.75 408.81 364.35 409 366C409.12 367.06 409.64 368.01 410.48 368.68C411.31 369.34 412.35 369.64 413.41 369.52C413.79 369.48 414.16 369.43 414.54 369.39L415.21 369.31C433.18 366.89 448.25 360.08 457.73 354.8L459.29 353.91C461.2 352.82 461.87 350.38 460.78 348.47C460.12 347.32 458.93 346.57 457.6 346.47C457.23 346.44 456.85 346.47 456.49 346.55L455.92 346.88C446.12 352.42 430.52 359.52 411.87 361.92C411.64 361.96 411.4 361.98 411.16 362.01V362Z" fill="#676D80"/>
<path d="M409.56 362.15C408.44 362.15 407.37 361.78 406.48 361.07C405.44 360.24 404.78 359.06 404.62 357.73C404.41 355.92 405.2 354.15 406.67 353.11L406.81 353.01H406.98C407.22 353.03 407.46 353.02 407.71 352.99L408.38 352.91C408.71 352.87 409.04 352.82 409.36 352.78C427.59 350.25 442.72 343.3 452.21 337.91L452.45 337.77C452.9 337.52 453.33 337.27 453.74 337.02C453.82 336.97 453.9 336.92 453.97 336.86L454.08 336.78L454.22 336.76C454.56 336.72 454.9 336.71 455.22 336.73C456.85 336.85 458.32 337.75 459.15 339.15C460.55 341.52 459.77 344.59 457.41 345.99C457.26 346.08 457.09 346.18 456.93 346.27L455.91 346.86C446.11 352.4 430.51 359.5 411.86 361.9C411.6 361.94 411.34 361.97 411.07 362L410.14 362.11C409.94 362.13 409.75 362.14 409.55 362.14L409.56 362.15ZM407.12 354.02C406.03 354.86 405.46 356.23 405.62 357.62C405.74 358.68 406.27 359.63 407.1 360.29C407.93 360.95 408.97 361.25 410.03 361.12L410.95 361.01C411.21 360.98 411.46 360.95 411.72 360.91C430.22 358.53 445.69 351.49 455.42 345.99L456.43 345.4C456.59 345.31 456.74 345.22 456.89 345.13C458.78 344 459.4 341.55 458.28 339.66C457.61 338.54 456.44 337.82 455.14 337.72C454.92 337.7 454.7 337.71 454.46 337.73C454.39 337.78 454.33 337.82 454.26 337.87C453.84 338.13 453.39 338.38 452.94 338.64L452.7 338.78C443.14 344.21 427.88 351.22 409.5 353.77C409.18 353.82 408.85 353.86 408.5 353.9L407.79 353.99C407.58 354.01 407.34 354.03 407.1 354.02H407.12Z" fill="#676D80"/>
<path d="M407.2 354.03C407.11 354.03 407.02 354.03 406.93 354.03C404.52 353.89 402.55 352.06 402.25 349.67C401.91 346.94 403.85 344.44 406.57 344.1L406.87 344.06C407.28 344.01 407.7 343.96 408.1 343.9C424.91 341.57 438.94 335.12 447.76 330.12L448.01 329.98C448.37 329.78 448.72 329.58 449.06 329.37C449.95 328.83 450.97 328.57 452.02 328.65C453.63 328.77 455.08 329.65 455.91 331.02C457.27 333.23 456.69 336.15 454.57 337.66C454.48 337.73 454.38 337.8 454.27 337.87C453.85 338.13 453.4 338.38 452.95 338.64L452.71 338.78C443.15 344.21 427.89 351.22 409.51 353.77C409.19 353.82 408.86 353.86 408.51 353.9L407.8 353.99C407.61 354.01 407.41 354.02 407.2 354.02V354.03ZM451.65 329.64C450.92 329.64 450.21 329.84 449.58 330.22C449.23 330.43 448.87 330.64 448.51 330.84L448.27 330.98C439.37 336.03 425.22 342.53 408.26 344.88C407.85 344.94 407.43 344.99 407.01 345.04L406.71 345.08C404.53 345.35 402.98 347.35 403.25 349.53C403.49 351.44 405.06 352.9 406.98 353.01C407.21 353.01 407.46 353.01 407.71 352.99L408.38 352.91C408.71 352.87 409.04 352.82 409.36 352.78C427.59 350.25 442.72 343.3 452.21 337.91L452.45 337.77C452.9 337.52 453.33 337.27 453.74 337.02C453.82 336.97 453.9 336.92 453.97 336.86C455.67 335.65 456.14 333.32 455.05 331.55C454.38 330.44 453.24 329.75 451.94 329.65C451.84 329.65 451.74 329.64 451.64 329.64H451.65Z" fill="#676D80"/>
</svg>
