<?xml version="1.0" encoding="UTF-8" standalone="no"?>
<!-- Generator: Adobe Illustrator 26.0.3, SVG Export Plug-In . SVG Version: 6.00 Build 0)  -->

<svg
   version="1.1"
   id="Слой_1"
   x="0px"
   y="0px"
   viewBox="0 0 486.98 976.34"
   style="enable-background:new 0 0 486.98 976.34;"
   xml:space="preserve"
   sodipodi:docname="М-02.svg"
   inkscape:version="1.1.1 (3bf5ae0d25, 2021-09-20)"
   xmlns:inkscape="http://www.inkscape.org/namespaces/inkscape"
   xmlns:sodipodi="http://sodipodi.sourceforge.net/DTD/sodipodi-0.dtd"
   xmlns="http://www.w3.org/2000/svg"
   xmlns:svg="http://www.w3.org/2000/svg"><defs
   id="defs10180">
	
	
</defs><sodipodi:namedview
   id="namedview10178"
   pagecolor="#ffffff"
   bordercolor="#666666"
   borderopacity="1.0"
   inkscape:pageshadow="2"
   inkscape:pageopacity="0.0"
   inkscape:pagecheckerboard="0"
   showgrid="false"
   inkscape:zoom="0.85216213"
   inkscape:cx="243.49826"
   inkscape:cy="394.87791"
   inkscape:window-width="1920"
   inkscape:window-height="1017"
   inkscape:window-x="-8"
   inkscape:window-y="-8"
   inkscape:window-maximized="1"
   inkscape:current-layer="Слой_1" />
<style
   type="text/css"
   id="style10037">
	.st0{fill:#F6D3BD;}
	.st1{fill:#C4A996;}
	.st2{fill:#ED1C24;}
	.st3{fill:#998475;}
	.st4{fill:#BDB7B2;}
	.st5{fill:#E7E3E0;}
	.st6{fill:#4F5260;}
	.st7{fill:#555968;}
	.st8{fill:url(#SVGID_1_);}
	.st9{fill:url(#SVGID_00000012455100762571679020000000538860201698687659_);}
	.st10{fill:url(#SVGID_00000011720738468599988870000012803005128554227350_);}
	.st11{fill:url(#SVGID_00000163060532042085610020000012438111441578988706_);}
	.st12{fill:#63687A;}
	.st13{fill:#AEA89F;}
	.st14{fill:none;stroke:#998475;stroke-width:2;stroke-miterlimit:10;}
	.st15{fill:#FFFFFF;}
	.st16{fill:#1D1D1B;}
	.st17{fill:#E6E6E6;}
	.st18{fill:#333333;}
	.st19{fill:#4D4D4D;}
	.st20{fill:#1A1A1A;}
	.st21{fill:#A8A199;}
	.st22{fill:#E2D6CE;}
	.st23{fill:url(#SVGID_00000103251563291744267200000001585840876860710048_);}
	.st24{fill:url(#SVGID_00000137831824750518766070000010687461173484178580_);}
	.st25{fill:url(#SVGID_00000176018447489253409890000003394257893342849953_);}
	.st26{fill:url(#SVGID_00000143591133265726782400000017027332097794303385_);}
	.st27{fill:#555451;}
	.st28{fill:#578BAA;}
	.st29{fill:#6BABD1;}
	.st30{fill:#A6A6A6;}
	.st31{fill:#F3EFF5;}
	.st32{fill:#D4D1D6;}
	.st33{fill:#848BA3;}
	.st34{fill:#676D80;}
	.st35{fill:#9FA7C4;}
	.st36{fill:#BEBBBF;}
	.st37{fill:url(#SVGID_00000062908467025166774120000016137556247259053484_);}
	.st38{fill:url(#SVGID_00000032642667352685600520000010194684050946679686_);}
	.st39{fill:url(#SVGID_00000073698528896133243160000009211907716969214088_);}
	.st40{fill:url(#SVGID_00000143615936055071357300000010214178980331302320_);}
	.st41{fill:url(#SVGID_00000149377567377729471210000010376999932550532276_);}
	.st42{fill:url(#SVGID_00000161593330974339704230000012161517951247392686_);}
	.st43{fill:url(#SVGID_00000099649823531504872820000011836584214621317507_);}
	.st44{fill:url(#SVGID_00000000196423614109906190000006308157471748408450_);}
	.st45{fill:url(#SVGID_00000145744504787941885610000006983920466085203347_);}
	.st46{fill:url(#SVGID_00000016069271590598929020000005499726180489200772_);}
	.st47{fill:url(#SVGID_00000026872650386058407610000014353057154091303600_);}
	.st48{fill:url(#SVGID_00000084508168771156110100000014878447601736901287_);}
	.st49{fill:url(#SVGID_00000181051119136472154200000012917704120141481883_);}
	.st50{fill:url(#SVGID_00000013892990211082694260000006023632352600403865_);}
</style>
<g
   id="g10173">
		<g
   id="g10153">
			<path
   class="st35"
   d="m 322.07,862.23 c -5.92,0.61 -11.93,0.92 -18.01,0.92 -6.23,0 -12.53,-0.32 -18.91,-0.96 -6.38,-6.79 -1.59,-11.23 -1.59,-11.23 13.87,1.59 27.35,1.59 40.36,0 4.5,5.83 -1.57,11.03 -1.85,11.27 z"
   id="path10147" />
			<path
   class="st35"
   d="m 320.21,873.13 c -5.32,0.49 -10.7,0.74 -16.15,0.74 -5.85,0 -11.76,-0.28 -17.75,-0.85 -6.51,-4.22 -1.16,-10.83 -1.16,-10.83 6.38,0.64 12.68,0.96 18.91,0.96 6.08,0 12.09,-0.31 18.01,-0.92 -0.01,0.01 -0.01,0.01 -0.01,0.01 3.29,6.62 -1.85,10.89 -1.85,10.89 z"
   id="path10149" />
			<path
   class="st35"
   d="m 318.79,883.86 c -4.85,0.41 -9.76,0.61 -14.72,0.61 -6.16,0 -12.4,-0.31 -18.72,-0.94 -4.57,-6.41 0.96,-10.51 0.96,-10.51 5.99,0.57 11.9,0.85 17.75,0.85 5.45,0 10.83,-0.25 16.15,-0.74 4.86,4.69 -1.42,10.73 -1.42,10.73 z"
   id="path10151" />
		</g>
		<path
   class="st34"
   d="m 294.11,873.6 c -0.03,4.5 -0.16,8.5 -0.47,10.57 -2.75,-0.15 -5.51,-0.36 -8.29,-0.64 -4.57,-6.41 0.96,-10.51 0.96,-10.51 -6.51,-4.22 -1.16,-10.83 -1.16,-10.83 -6.38,-6.79 -1.59,-11.23 -1.59,-11.23 3.45,0.4 6.89,0.7 10.3,0.9 0.01,0.29 0.14,5.11 0.22,11.02 0.04,3.43 0.06,7.23 0.03,10.72 z"
   id="path10155" />
		<g
   id="g10163">
			<path
   class="st33"
   d="m 294.08,862.88 c -2.96,-0.16 -5.94,-0.39 -8.93,-0.69 -6.38,-6.79 -1.59,-11.23 -1.59,-11.23 3.45,0.4 6.89,0.7 10.3,0.9 0.01,0.29 0.14,5.11 0.22,11.02 z"
   id="path10157" />
			<path
   class="st33"
   d="m 294.11,873.6 c -2.59,-0.14 -5.19,-0.33 -7.8,-0.58 -6.51,-4.22 -1.16,-10.83 -1.16,-10.83 2.99,0.3 5.97,0.53 8.93,0.69 0.04,3.43 0.06,7.23 0.03,10.72 z"
   id="path10159" />
			<path
   class="st33"
   d="m 294.11,873.6 c -0.03,4.5 -0.16,8.5 -0.47,10.57 -2.75,-0.15 -5.51,-0.36 -8.29,-0.64 -4.57,-6.41 0.96,-10.51 0.96,-10.51 2.61,0.25 5.21,0.44 7.8,0.58 z"
   id="path10161" />
		</g>
		<g
   id="g10171">
			<path
   class="st34"
   d="m 304.06,863.65 c -6.21,0 -12.59,-0.32 -18.96,-0.96 l -0.19,-0.02 -0.13,-0.14 c -2.37,-2.52 -3.53,-5.04 -3.45,-7.47 0.1,-2.79 1.81,-4.4 1.88,-4.47 l 0.17,-0.16 0.23,0.03 c 13.78,1.58 27.32,1.58 40.24,0 l 0.28,-0.04 0.17,0.23 c 4.66,6.03 -1.23,11.37 -1.92,11.96 l -0.12,0.1 -0.16,0.02 c -5.93,0.61 -12.01,0.92 -18.04,0.92 z m -18.68,-1.94 c 12.37,1.23 24.58,1.25 36.47,0.04 0.96,-0.86 5.43,-5.3 1.83,-10.26 -12.84,1.55 -26.27,1.54 -39.95,-0.01 -0.72,0.82 -3.53,4.6 1.65,10.23 z"
   id="path10165" />
			<path
   class="st34"
   d="m 304.06,874.37 c -5.87,0 -11.86,-0.29 -17.8,-0.85 l -0.12,-0.01 -0.1,-0.07 c -1.94,-1.26 -3.08,-2.85 -3.38,-4.73 -0.56,-3.5 1.99,-6.7 2.1,-6.83 l 0.17,-0.21 0.27,0.03 c 6.33,0.64 12.68,0.96 18.86,0.96 6,0 12.05,-0.31 17.96,-0.92 l 1.4,-0.14 -0.75,0.75 c 3.1,6.71 -2.08,11.13 -2.13,11.17 l -0.12,0.1 -0.15,0.01 c -5.37,0.49 -10.82,0.74 -16.21,0.74 z m -17.58,-1.84 c 11.24,1.06 22.5,1.12 33.52,0.11 0.71,-0.65 4.32,-4.34 1.75,-9.88 -5.83,0.59 -11.78,0.89 -17.7,0.89 -6.12,0 -12.4,-0.31 -18.68,-0.94 -0.52,0.73 -2.15,3.25 -1.73,5.84 0.26,1.56 1.21,2.9 2.84,3.98 z"
   id="path10167" />
			<path
   class="st34"
   d="m 304.07,884.97 c -6.19,0 -12.5,-0.32 -18.77,-0.94 l -0.23,-0.02 -0.13,-0.18 c -4.8,-6.73 1.01,-11.16 1.07,-11.2 l 0.15,-0.11 0.19,0.02 c 11.33,1.08 22.7,1.13 33.81,0.11 l 0.23,-0.02 0.17,0.16 c 1.33,1.28 2,2.78 2,4.45 0,3.68 -3.28,6.87 -3.42,7 l -0.13,0.12 -0.18,0.01 c -4.8,0.39 -9.77,0.6 -14.76,0.6 z m -18.44,-1.92 c 11.13,1.1 22.37,1.2 32.94,0.32 0.57,-0.6 2.99,-3.29 2.99,-6.17 0,-1.32 -0.51,-2.52 -1.53,-3.56 -11.03,1 -22.31,0.95 -33.56,-0.11 -0.82,0.68 -4.49,4.2 -0.84,9.52 z"
   id="path10169" />
		</g>
	</g>
</svg>
