<svg width="620" height="1074" viewBox="0 0 620 1074" fill="none" xmlns="http://www.w3.org/2000/svg">
<path d="M499.53 472.79C499.29 472.79 499.05 472.81 498.81 472.85C478.88 475.94 466.83 484 466.33 484.35C466.31 484.35 466.29 484.37 466.28 484.39C465.95 484.48 465.61 484.52 465.27 484.52C463.89 484.52 462.54 483.84 461.75 482.58C460.53 480.64 461.11 478.08 463.05 476.86C463.59 476.51 476.62 468.4 496.49 465.32C498.75 464.97 500.87 466.53 501.22 468.79C501.47 470.4 500.77 471.93 499.53 472.8V472.79Z" fill="#9FA7C4"/>
<path d="M500.96 480.8C481.16 483.91 469.56 491.45 469.07 491.77C469.01 491.81 468.95 491.85 468.89 491.91C468.82 491.91 468.75 491.91 468.68 491.91C467.34 491.91 466.03 491.27 465.24 490.08C463.96 488.21 464.44 485.66 466.29 484.36C466.29 484.34 466.32 484.33 466.34 484.32C466.84 483.98 478.89 475.91 498.82 472.82C499.06 472.78 499.3 472.76 499.54 472.76C501.52 472.79 503.25 474.25 503.56 476.28C503.86 478.24 502.75 480.08 500.97 480.77L500.96 480.8Z" fill="#9FA7C4"/>
<path d="M502.4 488.99C484.41 491.78 473.75 498.64 473.65 498.71C472.95 499.17 472.16 499.39 471.37 499.39C470.02 499.39 468.69 498.73 467.9 497.52C466.68 495.67 467.13 493.21 468.89 491.92C468.95 491.86 469.01 491.82 469.07 491.78C469.56 491.46 481.16 483.92 500.96 480.81C501.02 480.81 501.07 480.79 501.13 480.78C503.4 480.43 505.52 481.98 505.87 484.25C506.22 486.52 504.67 488.64 502.4 488.99V488.99Z" fill="#9FA7C4"/>
<path d="M502.4 488.99C502.11 489.04 501.83 489.08 501.55 489.13C500.26 489.34 498.99 489.57 497.79 489.83C496.66 484.36 494.91 477.85 493.16 471.9L490.98 466.32C492.25 466.04 493.56 465.79 494.91 465.56C495.44 465.47 495.96 465.38 496.49 465.3C498.75 464.95 500.87 466.51 501.22 468.77C501.47 470.38 500.77 471.91 499.53 472.78C501.51 472.81 503.24 474.27 503.55 476.3C503.85 478.26 502.74 480.1 500.96 480.79C501.02 480.79 501.07 480.77 501.13 480.76C503.4 480.41 505.52 481.96 505.87 484.23C506.22 486.5 504.67 488.62 502.4 488.97V488.99Z" fill="#848BA3"/>
<path d="M465.27 485C463.66 485 462.18 484.19 461.32 482.83C460.66 481.78 460.45 480.53 460.72 479.32C461 478.11 461.73 477.08 462.78 476.42C462.91 476.34 476.1 467.96 496.41 464.81C497.64 464.62 498.86 464.92 499.87 465.66C500.87 466.4 501.53 467.47 501.72 468.7C501.99 470.45 501.27 472.18 499.83 473.2L499.7 473.29H499.54C499.33 473.29 499.11 473.31 498.9 473.34C479.49 476.35 467.77 483.99 466.69 484.71L466.64 484.8L466.43 484.86C466.08 484.96 465.69 485.01 465.28 485.01L465.27 485ZM497.12 465.75C496.93 465.75 496.74 465.76 496.56 465.79C476.46 468.91 463.45 477.18 463.32 477.26C462.49 477.78 461.92 478.59 461.7 479.54C461.48 480.49 461.65 481.47 462.17 482.29C462.84 483.36 464 483.99 465.27 483.99C465.56 483.99 465.82 483.96 466.06 483.9L466.1 483.87C466.54 483.56 478.55 475.46 498.72 472.33C498.93 472.3 499.14 472.28 499.35 472.27C500.4 471.46 500.92 470.16 500.71 468.83C500.56 467.87 500.04 467.02 499.26 466.44C498.63 465.98 497.88 465.73 497.11 465.73L497.12 465.75Z" fill="#676D80"/>
<path d="M468.68 492.42C467.12 492.42 465.68 491.65 464.82 490.37C463.42 488.33 463.91 485.52 465.9 484.04L465.92 484L466.11 483.89C466.55 483.58 478.56 475.48 498.73 472.35C499 472.31 499.26 472.29 499.53 472.29C501.8 472.32 503.7 473.98 504.05 476.24C504.39 478.41 503.19 480.48 501.14 481.28L501.04 481.31C481.33 484.41 469.83 491.89 469.35 492.2C469.29 492.24 469.25 492.27 469.22 492.3L469.11 492.4L468.96 492.42C468.86 492.43 468.78 492.43 468.68 492.43V492.42ZM466.68 484.7L466.58 484.78C464.95 485.92 464.54 488.18 465.65 489.81C466.32 490.82 467.45 491.42 468.68 491.42H468.7C468.7 491.42 468.78 491.36 468.82 491.34C469.28 491.04 480.93 483.45 500.82 480.32C502.4 479.68 503.31 478.07 503.05 476.39C502.78 474.62 501.29 473.31 499.51 473.29C499.3 473.29 499.09 473.31 498.87 473.34C479.46 476.35 467.74 483.99 466.66 484.71L466.68 484.7Z" fill="#676D80"/>
<path d="M471.37 499.89C469.79 499.89 468.34 499.1 467.48 497.79C466.12 495.73 466.61 492.97 468.59 491.51C468.65 491.46 468.73 491.39 468.82 491.34C469.28 491.04 480.95 483.44 500.88 480.31L501.05 480.28C503.59 479.89 505.97 481.63 506.36 484.17C506.75 486.71 505.01 489.09 502.47 489.48C484.91 492.2 474.36 498.84 473.92 499.12C473.16 499.62 472.28 499.88 471.37 499.88V499.89ZM500.96 480.81L501.04 481.3C481.33 484.4 469.83 491.88 469.35 492.19C469.29 492.23 469.25 492.26 469.22 492.29C467.64 493.46 467.26 495.62 468.32 497.24C468.99 498.27 470.13 498.89 471.37 498.89C472.08 498.89 472.78 498.68 473.37 498.29C473.83 498 484.55 491.25 502.32 488.5C504.31 488.19 505.68 486.32 505.37 484.33C505.06 482.34 503.19 480.97 501.2 481.28L500.96 480.81V480.81Z" fill="#676D80"/>
</svg>
