<svg width="620" height="1074" viewBox="0 0 620 1074" fill="none" xmlns="http://www.w3.org/2000/svg">
<path d="M388.269 910.85C382.348 911.46 376.337 911.77 370.256 911.77C364.025 911.77 357.724 911.45 351.343 910.81C344.962 904.02 349.752 899.58 349.752 899.58C363.625 901.17 377.107 901.17 390.119 899.58C394.62 905.41 388.549 910.61 388.269 910.85Z" fill="#9FA7C4"/>
<path d="M386.409 921.75C381.088 922.24 375.707 922.49 370.256 922.49C364.405 922.49 358.494 922.21 352.503 921.64C345.992 917.42 351.343 910.81 351.343 910.81C357.724 911.45 364.025 911.77 370.256 911.77C376.337 911.77 382.348 911.46 388.269 910.85C388.259 910.86 388.259 910.86 388.259 910.86C391.549 917.48 386.409 921.75 386.409 921.75Z" fill="#9FA7C4"/>
<path d="M384.988 932.48C380.138 932.89 375.227 933.09 370.266 933.09C364.105 933.09 357.864 932.78 351.543 932.15C346.972 925.74 352.503 921.64 352.503 921.64C358.494 922.21 364.405 922.49 370.256 922.49C375.707 922.49 381.088 922.24 386.409 921.75C391.269 926.44 384.988 932.48 384.988 932.48Z" fill="#9FA7C4"/>
<path d="M360.304 922.22C360.274 926.72 360.144 930.72 359.834 932.79C357.084 932.64 354.323 932.43 351.543 932.15C346.972 925.74 352.503 921.64 352.503 921.64C345.992 917.42 351.343 910.81 351.343 910.81C344.962 904.02 349.752 899.58 349.752 899.58C353.203 899.98 356.644 900.28 360.054 900.48C360.064 900.77 360.194 905.59 360.274 911.5C360.314 914.93 360.334 918.73 360.304 922.22Z" fill="#676D80"/>
<path d="M360.274 911.5C357.314 911.34 354.333 911.11 351.343 910.81C344.962 904.02 349.752 899.58 349.752 899.58C353.203 899.98 356.644 900.28 360.054 900.48C360.064 900.77 360.194 905.59 360.274 911.5Z" fill="#848BA3"/>
<path d="M360.304 922.22C357.714 922.08 355.113 921.89 352.503 921.64C345.992 917.42 351.343 910.81 351.343 910.81C354.333 911.11 357.314 911.34 360.274 911.5C360.314 914.93 360.334 918.73 360.304 922.22Z" fill="#848BA3"/>
<path d="M360.304 922.22C360.274 926.72 360.144 930.72 359.834 932.79C357.084 932.64 354.323 932.43 351.543 932.15C346.972 925.74 352.503 921.64 352.503 921.64C355.113 921.89 357.714 922.08 360.304 922.22Z" fill="#848BA3"/>
<path d="M370.256 912.27C364.045 912.27 357.664 911.95 351.293 911.31L351.103 911.29L350.973 911.15C348.602 908.63 347.442 906.11 347.522 903.68C347.622 900.89 349.332 899.28 349.402 899.21L349.573 899.05L349.803 899.08C363.585 900.66 377.127 900.66 390.049 899.08L390.329 899.04L390.499 899.27C395.16 905.3 389.269 910.64 388.579 911.23L388.459 911.33L388.299 911.35C382.368 911.96 376.287 912.27 370.256 912.27ZM351.573 910.33C363.945 911.56 376.157 911.58 388.049 910.37C389.009 909.51 393.48 905.07 389.879 900.11C377.037 901.66 363.605 901.65 349.923 900.1C349.202 900.92 346.392 904.7 351.573 910.33Z" fill="#676D80"/>
<path d="M370.256 922.99C364.385 922.99 358.394 922.7 352.453 922.14L352.333 922.13L352.233 922.06C350.292 920.8 349.152 919.21 348.852 917.33C348.292 913.83 350.843 910.63 350.953 910.5L351.123 910.29L351.393 910.32C357.724 910.96 364.075 911.28 370.256 911.28C376.257 911.28 382.308 910.97 388.219 910.36L389.619 910.22L388.869 910.97C391.969 917.68 386.788 922.1 386.738 922.14L386.618 922.24L386.468 922.25C381.098 922.74 375.647 922.99 370.256 922.99ZM352.673 921.15C363.915 922.21 375.177 922.27 386.198 921.26C386.908 920.61 390.519 916.92 387.949 911.38C382.118 911.97 376.167 912.27 370.246 912.27C364.125 912.27 357.844 911.96 351.563 911.33C351.043 912.06 349.412 914.58 349.832 917.17C350.092 918.73 351.043 920.07 352.673 921.15Z" fill="#676D80"/>
<path d="M370.266 933.59C364.075 933.59 357.764 933.27 351.493 932.65L351.263 932.63L351.133 932.45C346.332 925.72 352.143 921.29 352.203 921.25L352.353 921.14L352.543 921.16C363.875 922.24 375.247 922.29 386.359 921.27L386.589 921.25L386.759 921.41C388.089 922.69 388.759 924.19 388.759 925.86C388.759 929.54 385.479 932.73 385.338 932.86L385.208 932.98L385.028 932.99C380.228 933.38 375.257 933.59 370.266 933.59ZM351.823 931.67C362.955 932.77 374.197 932.87 384.768 931.99C385.338 931.39 387.759 928.7 387.759 925.82C387.759 924.5 387.249 923.3 386.229 922.26C375.197 923.26 363.915 923.21 352.663 922.15C351.843 922.83 348.172 926.35 351.823 931.67Z" fill="#676D80"/>
</svg>
