<?xml version="1.0" encoding="UTF-8" standalone="no"?>
<!-- Generator: Adobe Illustrator 26.0.3, SVG Export Plug-In . SVG Version: 6.00 Build 0)  -->

<svg
   version="1.1"
   id="Слой_1"
   x="0px"
   y="0px"
   viewBox="0 0 486.98 976.34"
   style="enable-background:new 0 0 486.98 976.34;"
   xml:space="preserve"
   sodipodi:docname="М-13.svg"
   inkscape:version="1.1.1 (3bf5ae0d25, 2021-09-20)"
   xmlns:inkscape="http://www.inkscape.org/namespaces/inkscape"
   xmlns:sodipodi="http://sodipodi.sourceforge.net/DTD/sodipodi-0.dtd"
   xmlns="http://www.w3.org/2000/svg"
   xmlns:svg="http://www.w3.org/2000/svg"><defs
   id="defs25168">
	
	
</defs><sodipodi:namedview
   id="namedview25166"
   pagecolor="#ffffff"
   bordercolor="#666666"
   borderopacity="1.0"
   inkscape:pageshadow="2"
   inkscape:pageopacity="0.0"
   inkscape:pagecheckerboard="0"
   showgrid="false"
   inkscape:zoom="0.85216213"
   inkscape:cx="243.49826"
   inkscape:cy="488.75676"
   inkscape:window-width="1920"
   inkscape:window-height="1017"
   inkscape:window-x="-8"
   inkscape:window-y="-8"
   inkscape:window-maximized="1"
   inkscape:current-layer="Слой_1" />
<style
   type="text/css"
   id="style25025">
	.st0{fill:#F6D3BD;}
	.st1{fill:#C4A996;}
	.st2{fill:#ED1C24;}
	.st3{fill:#998475;}
	.st4{fill:#BDB7B2;}
	.st5{fill:#E7E3E0;}
	.st6{fill:#4F5260;}
	.st7{fill:#555968;}
	.st8{fill:url(#SVGID_1_);}
	.st9{fill:url(#SVGID_00000027590186218462537510000006087667694472616088_);}
	.st10{fill:url(#SVGID_00000076562849279486918980000005423393414833008529_);}
	.st11{fill:url(#SVGID_00000009570705818957136620000015157416390158483100_);}
	.st12{fill:#63687A;}
	.st13{fill:#AEA89F;}
	.st14{fill:none;stroke:#998475;stroke-width:2;stroke-miterlimit:10;}
	.st15{fill:#FFFFFF;}
	.st16{fill:#1D1D1B;}
	.st17{fill:#E6E6E6;}
	.st18{fill:#333333;}
	.st19{fill:#4D4D4D;}
	.st20{fill:#1A1A1A;}
	.st21{fill:#A8A199;}
	.st22{fill:#E2D6CE;}
	.st23{fill:url(#SVGID_00000072247804025310224430000004915191219380086954_);}
	.st24{fill:url(#SVGID_00000053521069562971414540000001882978003296384899_);}
	.st25{fill:url(#SVGID_00000095323670742644377150000001059676822569620415_);}
	.st26{fill:url(#SVGID_00000046325080291923271570000007427976287274798483_);}
	.st27{fill:#555451;}
	.st28{fill:#578BAA;}
	.st29{fill:#6BABD1;}
	.st30{fill:#A6A6A6;}
	.st31{fill:#F3EFF5;}
	.st32{fill:#D4D1D6;}
	.st33{fill:#848BA3;}
	.st34{fill:#676D80;}
	.st35{fill:#9FA7C4;}
	.st36{fill:#BEBBBF;}
	.st37{fill:url(#SVGID_00000091723727440866131660000015050617268024926876_);}
	.st38{fill:url(#SVGID_00000173869063701666238370000006772245205150335108_);}
	.st39{fill:url(#SVGID_00000039121223975184427800000005052684753866827136_);}
	.st40{fill:url(#SVGID_00000155865243650269590870000005071541083331790472_);}
	.st41{fill:url(#SVGID_00000081608580296341086660000016498423972756170940_);}
	.st42{fill:url(#SVGID_00000039849974782734003920000008670622544585817761_);}
	.st43{fill:url(#SVGID_00000145746341508409074560000010639549208887323579_);}
	.st44{fill:url(#SVGID_00000044881145910005511190000008785164682541006258_);}
	.st45{fill:url(#SVGID_00000127005381901580096300000016329252000154759855_);}
	.st46{fill:url(#SVGID_00000017492660336213243540000012314124551981654918_);}
	.st47{fill:url(#SVGID_00000159432078553400208190000009699850846197725628_);}
	.st48{fill:url(#SVGID_00000151524331095675020240000010328459910425944491_);}
	.st49{fill:url(#SVGID_00000137843402314084427350000006107677690690260365_);}
	.st50{fill:url(#SVGID_00000031918312107765875430000002020517126614065849_);}
</style>
<g
   id="g25161">
		<g
   id="g25141">
			<path
   class="st35"
   d="m 332.75,719.25 c -9.02,1.47 -18.25,2.2 -27.67,2.2 -9.32,0 -18.82,-0.72 -28.49,-2.15 -7.2,-5.88 -1.67,-11.39 -1.67,-11.39 0,0 0,0 0.01,0 19.49,3.22 38.24,3.38 56.07,0.48 h 0.01 c 7.8,2.9 2.07,10.44 1.74,10.86 z"
   id="path25135" />
			<path
   class="st35"
   d="m 334.41,729.79 c -9.55,1.66 -19.34,2.48 -29.33,2.48 -9.2,0 -18.57,-0.7 -28.11,-2.1 -6.15,-5.76 -0.38,-10.87 -0.38,-10.87 9.67,1.43 19.17,2.15 28.49,2.15 9.42,0 18.65,-0.73 27.67,-2.2 -0.01,0 -0.01,0.01 -0.01,0.01 6.67,2.78 1.91,10.18 1.67,10.53 z"
   id="path25137" />
			<path
   class="st35"
   d="m 336.01,740.45 c -0.01,0.01 -0.01,0.01 -0.01,0.01 -10.05,1.84 -20.37,2.76 -30.92,2.76 -9.95,0 -20.1,-0.82 -30.43,-2.45 -2.45,-6.81 2.32,-10.6 2.32,-10.6 9.54,1.4 18.91,2.1 28.11,2.1 9.99,0 19.78,-0.82 29.33,-2.48 0,0.01 0,0.01 0,0.01 6.96,5.17 1.79,10.46 1.6,10.65 z"
   id="path25139" />
		</g>
		<path
   class="st35"
   d="m 288.92,709.7 v 32.81 c -4.72,-0.4 -9.47,-0.98 -14.27,-1.74 -2.45,-6.81 2.32,-10.6 2.32,-10.6 -6.15,-5.76 -0.38,-10.87 -0.38,-10.87 -7.2,-5.88 -1.67,-11.39 -1.67,-11.39 0,0 0,0 0.01,0 4.71,0.78 9.37,1.38 13.99,1.79 z"
   id="path25143" />
		<g
   id="g25151">
			<path
   class="st33"
   d="m 288.92,709.7 v 11.04 c -4.08,-0.35 -8.19,-0.83 -12.33,-1.44 -7.2,-5.88 -1.67,-11.39 -1.67,-11.39 0,0 0,0 0.01,0 4.71,0.78 9.37,1.38 13.99,1.79 z"
   id="path25145" />
			<path
   class="st33"
   d="m 288.92,720.74 v 10.82 c -3.95,-0.34 -7.94,-0.8 -11.95,-1.39 -6.15,-5.76 -0.38,-10.87 -0.38,-10.87 4.14,0.61 8.25,1.09 12.33,1.44 z"
   id="path25147" />
			<path
   class="st33"
   d="m 288.92,731.56 v 10.95 c -4.72,-0.4 -9.47,-0.98 -14.27,-1.74 -2.45,-6.81 2.32,-10.6 2.32,-10.6 4.01,0.59 8,1.05 11.95,1.39 z"
   id="path25149" />
		</g>
		<g
   id="g25159">
			<path
   class="st34"
   d="m 305.08,721.95 c -9.29,0 -18.9,-0.72 -28.56,-2.16 -0.09,-0.01 -0.17,-0.05 -0.24,-0.11 -2.46,-2.01 -3.76,-4.2 -3.87,-6.52 -0.16,-3.25 2.07,-5.51 2.17,-5.61 0.09,-0.09 0.22,-0.15 0.35,-0.15 19.47,3.21 38.28,3.37 56,0.49 0.06,0 0.21,0 0.26,0.02 2.29,0.85 3.71,2.18 4.21,3.95 0.97,3.46 -1.91,7.26 -2.25,7.69 -0.08,0.1 -0.19,0.17 -0.31,0.18 -8.99,1.47 -18.33,2.22 -27.76,2.22 z m -28.28,-3.13 c 9.57,1.41 19.08,2.12 28.28,2.12 9.31,0 18.52,-0.73 27.39,-2.16 0.54,-0.74 2.72,-3.93 1.96,-6.65 -0.4,-1.42 -1.57,-2.51 -3.48,-3.24 -17.66,2.87 -36.47,2.72 -55.84,-0.45 -0.48,0.56 -1.83,2.36 -1.71,4.68 0.1,1.99 1.25,3.91 3.4,5.7 z"
   id="path25153" />
			<path
   class="st34"
   d="m 305.08,732.77 c -9.19,0 -18.67,-0.71 -28.18,-2.1 -0.1,-0.02 -0.2,-0.06 -0.27,-0.13 -2.02,-1.89 -3.02,-3.92 -2.99,-6.04 0.05,-3.25 2.52,-5.48 2.62,-5.57 0.11,-0.1 0.26,-0.15 0.4,-0.12 9.62,1.42 19.18,2.14 28.42,2.14 9.38,0 18.66,-0.74 27.59,-2.19 v 0 c 0.13,-0.03 0.27,0.01 0.37,0.09 1.85,0.8 3.02,2.02 3.5,3.63 1.04,3.51 -1.69,7.56 -1.72,7.6 -0.08,0.11 -0.19,0.19 -0.33,0.21 -9.49,1.64 -19.39,2.48 -29.41,2.48 z M 277.2,729.7 c 9.41,1.37 18.79,2.07 27.88,2.07 9.89,0 19.65,-0.82 29.03,-2.43 0.47,-0.77 2.26,-3.94 1.48,-6.58 -0.39,-1.31 -1.37,-2.31 -2.92,-2.99 -8.93,1.45 -18.21,2.18 -27.58,2.18 -9.21,0 -18.74,-0.71 -28.32,-2.12 -0.52,0.53 -2.1,2.33 -2.13,4.69 -0.02,1.78 0.84,3.52 2.56,5.18 z"
   id="path25155" />
			<path
   class="st34"
   d="m 305.08,743.72 c -9.92,0 -20.18,-0.83 -30.51,-2.46 -0.18,-0.03 -0.33,-0.15 -0.39,-0.33 -2.54,-7.07 2.43,-11.12 2.48,-11.16 0.11,-0.09 0.25,-0.12 0.38,-0.1 9.47,1.39 18.9,2.09 28.04,2.09 9.96,0 19.8,-0.83 29.24,-2.47 0.15,-0.03 0.29,0.01 0.41,0.11 0.01,0.01 0.03,0.03 0.04,0.04 2.33,1.75 3.59,3.71 3.74,5.84 0.22,3.04 -1.96,5.32 -2.15,5.51 v 0 c -0.07,0.08 -0.17,0.14 -0.28,0.16 -10.02,1.84 -20.45,2.77 -31,2.77 z m -30.05,-3.4 c 10.17,1.59 20.28,2.4 30.06,2.4 10.43,0 20.75,-0.92 30.67,-2.72 0.4,-0.44 1.94,-2.28 1.77,-4.64 -0.13,-1.79 -1.22,-3.49 -3.25,-5.04 -9.43,1.62 -19.25,2.45 -29.19,2.45 -9.11,0 -18.52,-0.7 -27.96,-2.07 -0.78,0.7 -3.97,4.03 -2.1,9.62 z"
   id="path25157" />
		</g>
	</g>
</svg>
