<svg width="620" height="1074" viewBox="0 0 620 1074" fill="none" xmlns="http://www.w3.org/2000/svg">
<path d="M293.87 640.37C293.43 640.54 292.99 640.71 292.55 640.86C292.84 635.57 293.15 629.33 293.41 622.49C293.34 628.39 293.49 634.33 293.87 640.37Z" fill="#C4A996"/>
<path d="M209.43 567.96L207.45 567.8V567.79L209.43 567.96Z" fill="#998475"/>
<path d="M212.84 637.4L210.84 637.24L212.84 637.4Z" fill="#998475"/>
<path d="M294.99 644.31L293.55 644.2V644.19L294.99 644.31Z" fill="#998475"/>
<path d="M305.03 561.33C305.08 566.56 305.08 571.45 305.04 576L303.04 575.83L209.44 567.96L207.46 567.79C207.55 557.41 208.2 546.18 210.14 538C210.51 536.44 210.85 534.95 211.16 533.53L213.16 533.7L305.51 541.47L307.51 541.64C305.45 555.08 305.02 558.92 305.02 559.76C305.02 560.05 305.03 560.58 305.03 561.33Z" fill="#F3EFF5"/>
<path d="M305.04 576C304.9 590.18 304.3 601.07 303.25 608.46C303.16 609.08 303.06 609.72 302.95 610.4L300.95 610.23L210.88 602.66L208.86 602.49C208.55 598.54 208.33 595.97 208.32 595.88C208.3 595.66 207.31 582.58 207.46 567.8L209.44 567.96L303.04 575.84L305.04 576V576Z" fill="#F3EFF5"/>
<path d="M302.95 610.41C301.85 617.11 299.65 626.65 297.33 636.69C296.74 639.25 296.15 641.82 295.57 644.36L295 644.31L293.56 644.19L266.24 641.9L212.85 637.4L210.85 637.23C210.68 627.03 209.55 611.32 208.86 602.49L210.88 602.66L300.95 610.24L302.95 610.41V610.41Z" fill="#F3EFF5"/>
<path d="M295.57 644.36C292.6 657.41 289.98 669.74 289.98 675.85C289.98 676.72 289.97 677.59 289.95 678.47L287.96 678.3L219.42 672.53L217.24 672.35C213.98 662.82 210.87 650.8 210.87 639.59C210.87 638.85 210.86 638.06 210.85 637.24L212.85 637.4L266.24 641.9L293.56 644.2L295 644.31L295.57 644.36Z" fill="#F3EFF5"/>
<path d="M240.89 674.34L219.42 672.53L218.33 672.44L217.24 672.35C213.98 662.82 210.87 650.8 210.87 639.59C210.87 638.85 210.86 638.06 210.85 637.24L211.85 637.32L210.85 637.23C210.68 627.03 209.55 611.32 208.86 602.49C208.55 598.54 208.33 595.97 208.32 595.88C208.3 595.66 207.31 582.58 207.46 567.8L208.44 567.88L207.46 567.79C207.55 557.41 208.2 546.18 210.14 538C210.51 536.44 210.85 534.95 211.16 533.53L212.16 533.61L213.16 533.7L224.18 534.63C224.08 545.6 224.23 557.34 224.65 569.24C225.06 580.87 225.73 592.65 226.68 603.99C229.23 634.16 233.79 661.26 240.89 674.34Z" fill="#DCDCDC"/>
<path d="M305.03 561.33C305.08 566.56 305.08 571.45 305.04 576C304.9 590.18 304.3 601.07 303.25 608.46C303.16 609.08 303.06 609.72 302.95 610.4L301.95 610.32C301.03 615.88 299.36 623.43 297.5 631.5C296.54 635.68 295.54 640.01 294.56 644.27C293.42 649.28 292.33 654.2 291.42 658.72C291.42 658.72 291.85 653.14 292.38 644.1C292.89 635.26 293.48 623.12 293.84 609.64C294.13 598.64 294.26 586.77 294.06 575.08C293.85 562.9 293.28 550.92 292.15 540.35L305.51 541.47L306.51 541.55L307.51 541.64C305.45 555.08 305.02 558.92 305.02 559.76C305.02 560.05 305.03 560.58 305.03 561.33V561.33Z" fill="#DCDCDC"/>
<path d="M306.03 577.09L302.95 576.83L206.45 568.71V567.78C206.57 554.97 207.48 544.87 209.16 537.77C209.53 536.22 209.87 534.73 210.18 533.32L210.37 532.46L213.24 532.7L308.66 540.73L308.5 541.79C306.34 555.86 306.02 559.09 306.02 559.76V560.19C306.02 560.48 306.03 560.86 306.03 561.33C306.08 566.36 306.08 571.3 306.04 576.01V577.09H306.03ZM208.46 566.88L209.52 566.97L304.04 574.92C304.07 570.54 304.07 565.98 304.02 561.35C304.02 560.88 304.02 560.51 304.02 560.22V559.77C304.02 558.52 304.8 552.73 306.36 542.56L305.43 542.48L211.95 534.61C211.69 535.77 211.41 536.99 211.11 538.24C209.5 545.03 208.61 554.66 208.47 566.88H208.46Z" fill="#D4D1D6"/>
<path d="M303.79 611.48L300.87 611.23L207.93 603.42L207.86 602.57C207.55 598.63 207.34 596.12 207.32 595.99C207.31 595.86 206.3 582.71 206.45 567.79V566.72L209.51 566.97L306.04 575.08V576.01C305.89 590.22 305.28 601.18 304.23 608.6C304.14 609.23 304.04 609.87 303.93 610.56L303.78 611.48H303.79ZM209.79 601.57L302.11 609.33C302.16 608.99 302.21 608.65 302.26 608.32C303.28 601.15 303.87 590.59 304.03 576.93L302.96 576.84L208.45 568.89C208.36 583.35 209.31 595.68 209.31 595.8C209.31 595.88 209.51 598.07 209.78 601.57H209.79Z" fill="#D4D1D6"/>
<path d="M296.35 645.43L293.48 645.18L209.87 638.14L209.85 637.24C209.68 627 208.53 611.12 207.86 602.56L207.77 601.39L304.11 609.5L303.93 610.57C302.81 617.36 300.52 627.3 298.3 636.91C297.71 639.47 297.12 642.04 296.54 644.58L296.35 645.43V645.43ZM211.83 636.31L294.79 643.29C295.31 641.03 295.83 638.74 296.36 636.47C298.46 627.38 300.63 618 301.79 611.32L300.87 611.24L209.95 603.59C210.61 612.12 211.62 626.48 211.83 636.31V636.31Z" fill="#D4D1D6"/>
<path d="M290.92 679.56L287.87 679.3L216.5 673.3L216.29 672.68C212.03 660.22 209.87 649.09 209.87 639.6C209.87 638.92 209.87 638.2 209.85 637.46L209.83 636.17L212.92 636.42L296.56 643.46L296.53 644.61C293.84 656.43 290.97 669.57 290.97 675.87C290.97 676.75 290.96 677.63 290.94 678.51L290.92 679.57V679.56ZM217.97 671.41L219.5 671.54L288.97 677.39C288.97 676.88 288.98 676.37 288.98 675.86C288.98 670.16 291.11 659.51 294.34 645.27L293.48 645.2L211.86 638.33C211.86 638.76 211.86 639.19 211.86 639.6C211.86 648.72 213.91 659.42 217.97 671.42V671.41Z" fill="#D4D1D6"/>
</svg>
