<?xml version="1.0" encoding="UTF-8" standalone="no"?>
<!-- Generator: Adobe Illustrator 26.0.3, SVG Export Plug-In . SVG Version: 6.00 Build 0)  -->

<svg
   version="1.1"
   id="Слой_1"
   x="0px"
   y="0px"
   viewBox="0 0 486.98 976.34"
   style="enable-background:new 0 0 486.98 976.34;"
   xml:space="preserve"
   sodipodi:docname="М-07.svg"
   inkscape:version="1.1.1 (3bf5ae0d25, 2021-09-20)"
   xmlns:inkscape="http://www.inkscape.org/namespaces/inkscape"
   xmlns:sodipodi="http://sodipodi.sourceforge.net/DTD/sodipodi-0.dtd"
   xmlns="http://www.w3.org/2000/svg"
   xmlns:svg="http://www.w3.org/2000/svg"><defs
   id="defs14931">
	
	
</defs><sodipodi:namedview
   id="namedview14929"
   pagecolor="#ffffff"
   bordercolor="#666666"
   borderopacity="1.0"
   inkscape:pageshadow="2"
   inkscape:pageopacity="0.0"
   inkscape:pagecheckerboard="0"
   showgrid="false"
   inkscape:zoom="0.85216213"
   inkscape:cx="243.49826"
   inkscape:cy="488.75676"
   inkscape:window-width="1920"
   inkscape:window-height="1017"
   inkscape:window-x="-8"
   inkscape:window-y="-8"
   inkscape:window-maximized="1"
   inkscape:current-layer="Слой_1" />
<style
   type="text/css"
   id="style14794">
	.st0{fill:#F6D3BD;}
	.st1{fill:#C4A996;}
	.st2{fill:#ED1C24;}
	.st3{fill:#998475;}
	.st4{fill:#BDB7B2;}
	.st5{fill:#E7E3E0;}
	.st6{fill:#4F5260;}
	.st7{fill:#555968;}
	.st8{fill:url(#SVGID_1_);}
	.st9{fill:url(#SVGID_00000081617257966145095410000000700014483765043616_);}
	.st10{fill:url(#SVGID_00000062875168436369643220000017984821317687269054_);}
	.st11{fill:url(#SVGID_00000150080801572888439410000011324822404950986121_);}
	.st12{fill:#63687A;}
	.st13{fill:#AEA89F;}
	.st14{fill:none;stroke:#998475;stroke-width:2;stroke-miterlimit:10;}
	.st15{fill:#FFFFFF;}
	.st16{fill:#1D1D1B;}
	.st17{fill:#E6E6E6;}
	.st18{fill:#333333;}
	.st19{fill:#4D4D4D;}
	.st20{fill:#1A1A1A;}
	.st21{fill:#A8A199;}
	.st22{fill:#E2D6CE;}
	.st23{fill:url(#SVGID_00000119808351109830466440000010746757486749551800_);}
	.st24{fill:url(#SVGID_00000008149908141502965780000017197028418974090135_);}
	.st25{fill:url(#SVGID_00000053541234383948360990000017130659713198628794_);}
	.st26{fill:url(#SVGID_00000022542840974952761440000010858659222572352667_);}
	.st27{fill:#555451;}
	.st28{fill:#578BAA;}
	.st29{fill:#6BABD1;}
	.st30{fill:#A6A6A6;}
	.st31{fill:#F3EFF5;}
	.st32{fill:#D4D1D6;}
	.st33{fill:#848BA3;}
	.st34{fill:#676D80;}
	.st35{fill:#9FA7C4;}
	.st36{fill:#BEBBBF;}
	.st37{fill:url(#SVGID_00000132085733616525174800000008802703173302710686_);}
	.st38{fill:url(#SVGID_00000170265776345483534990000001111084883847387802_);}
	.st39{fill:url(#SVGID_00000049205070725143632230000005820608982956090283_);}
	.st40{fill:url(#SVGID_00000138563414771243298900000005585024542504605368_);}
	.st41{fill:url(#SVGID_00000083778793043978155980000017329550981301494413_);}
	.st42{fill:url(#SVGID_00000052084080694177287380000017623492383463213972_);}
	.st43{fill:url(#SVGID_00000156572763080051093400000000255275520752207285_);}
	.st44{fill:url(#SVGID_00000062185745949882658900000008583793037199605670_);}
	.st45{fill:url(#SVGID_00000046330983714464823930000015419674559538605247_);}
	.st46{fill:url(#SVGID_00000105400947602446546750000010557304702354553497_);}
	.st47{fill:url(#SVGID_00000047767077614084985130000013396161921069859470_);}
	.st48{fill:url(#SVGID_00000089557765392311119360000010575340645262091691_);}
	.st49{fill:url(#SVGID_00000085237098537099488120000006115066537868574596_);}
	.st50{fill:url(#SVGID_00000068642069964398465500000017250291392606704772_);}
</style>
<g
   id="g14924">
		<path
   class="st27"
   d="m 341.79,587.01 v 51.91 c -40.71,4.31 -75.93,1 -84.71,0.03 v -51.94 h -11.06 v 232.98 h 11.06 V 736.4 c 6.05,0.66 21.77,2.12 42.44,2.12 12.6,0 27.05,-0.56 42.26,-2.15 v 83.62 h 11.05 V 587.01 Z m 0,145.49 c -40.71,4.31 -75.93,1 -84.71,0.02 V 716.6 c 6.05,0.65 21.77,2.11 42.44,2.11 12.6,0 27.05,-0.56 42.26,-2.15 v 15.94 z m 0,-19.81 c -40.71,4.31 -75.93,1 -84.71,0.03 v -48.97 c 6.05,0.65 21.77,2.11 42.44,2.11 12.6,0 27.05,-0.55 42.26,-2.15 v 48.98 z m 0,-52.85 c -40.71,4.32 -75.93,1.01 -84.71,0.03 v -17.05 c 6.05,0.65 21.77,2.11 42.44,2.11 12.6,0 27.05,-0.56 42.26,-2.15 v 17.06 z"
   id="path14904" />
		<g
   id="g14912">
			<g
   id="g14910">
				<path
   class="st36"
   d="m 341.79,716.56 v 15.94 c -40.71,4.31 -75.93,1 -84.71,0.02 V 716.6 c 6.05,0.65 21.77,2.11 42.44,2.11 12.61,-0.01 27.06,-0.57 42.27,-2.15 z"
   id="path14906" />
				<path
   class="st36"
   d="m 341.79,642.79 v 17.06 c -40.71,4.32 -75.93,1.01 -84.71,0.03 v -17.05 c 6.05,0.65 21.77,2.11 42.44,2.11 12.61,-0.01 27.06,-0.57 42.27,-2.15 z"
   id="path14908" />
			</g>
		</g>
		<path
   class="st31"
   d="m 330.82,643.78 v 17.06 c -26.21,2 -49.17,1.05 -62.77,0.04 v -17.07 c 7.87,0.58 18.73,1.13 31.47,1.13 9.54,-0.01 20.12,-0.33 31.3,-1.16 z"
   id="path14914" />
		<path
   class="st31"
   d="m 330.82,717.55 v 15.95 c -26.21,1.99 -49.17,1.03 -62.77,0.02 v -15.94 c 7.87,0.58 18.73,1.13 31.47,1.13 9.54,-0.01 20.12,-0.33 31.3,-1.16 z"
   id="path14916" />
		<g
   id="g14922">
			<path
   class="st31"
   d="m 330.82,717.55 v 15.95 c -26.21,1.99 -49.17,1.03 -62.77,0.02 v -15.94 c 7.87,0.58 18.73,1.13 31.47,1.13 9.54,-0.01 20.12,-0.33 31.3,-1.16 z"
   id="path14918" />
			<path
   class="st31"
   d="m 330.82,643.78 v 17.06 c -26.21,2 -49.17,1.05 -62.77,0.04 v -17.07 c 7.87,0.58 18.73,1.13 31.47,1.13 9.54,-0.01 20.12,-0.33 31.3,-1.16 z"
   id="path14920" />
		</g>
	</g>
</svg>
