<svg width="620" height="1074" viewBox="0 0 620 1074" fill="none" xmlns="http://www.w3.org/2000/svg">
<path d="M402.93 826.03C402.39 830.67 401.7 835.48 400.92 840.2C399.24 850.44 397.23 860.17 395.92 866.49C395.42 868.89 395.03 870.78 394.81 871.99C394.81 872.03 394.79 872.09 394.78 872.14C394.09 875.88 392.5 885.39 390.9 895.02C376.77 896.23 361.42 896.12 349.19 895.68C348.95 893.98 348.71 892.22 348.47 890.37C346.52 875.45 343.24 866.1 340.6 858.58C339.05 854.16 337.71 850.35 337.15 846.64C336.96 845.4 336.81 843.97 336.68 842.41C336.36 838.52 336.2 833.79 336.18 828.95C360.21 828.48 386.36 827.06 402.93 826.03V826.03Z" fill="#9FA7C4"/>
<path d="M397.66 831.56C397.21 835.47 396.62 839.52 395.97 843.49C394.55 852.11 392.86 860.31 391.76 865.62C391.34 867.64 391.01 869.23 390.82 870.25C390.82 870.29 390.8 870.34 390.8 870.38C390.22 873.53 388.88 881.54 387.53 889.64C375.63 890.66 362.71 890.57 352.41 890.19C352.21 888.76 352 887.28 351.8 885.72C350.16 873.15 347.39 865.28 345.17 858.96C343.87 855.24 342.74 852.03 342.27 848.91C342.11 847.86 341.98 846.66 341.87 845.35C341.6 842.07 341.47 838.09 341.45 834.02C361.68 833.63 383.7 832.43 397.65 831.56H397.66Z" fill="#F3EFF5"/>
<path d="M359.8 895.94C356.45 895.89 353.23 895.81 350.19 895.71C349.94 893.97 349.69 892.14 349.44 890.23C346.29 866.14 339.57 856.1 338.12 846.48C337.46 842.1 337.18 835.62 337.15 828.93C341.09 828.85 345.08 828.75 349.07 828.62C349.81 840.72 351.45 852 353.97 856.78C356.94 862.41 358.91 879.01 359.8 895.94V895.94Z" fill="#848BA3"/>
<path d="M401.9 826.1C401.27 831.49 400.41 837.1 399.49 842.51C397.64 853.41 395.5 863.45 394.37 868.95C394.37 868.95 396.39 849.45 396.54 826.42C398.41 826.3 400.21 826.2 401.9 826.1Z" fill="#848BA3"/>
<path d="M353.97 856.78C356.61 861.79 358.47 875.49 359.47 890.39C357.02 890.34 354.65 890.27 352.41 890.19C352.21 888.76 352.01 887.28 351.8 885.72C350.16 873.15 347.4 865.28 345.18 858.96C343.87 855.24 342.74 852.03 342.27 848.9C342.12 847.85 341.98 846.65 341.88 845.34C341.6 842.07 341.47 838.09 341.45 834.01C344.09 833.96 346.77 833.9 349.45 833.82C350.3 843.86 351.82 852.69 353.97 856.78V856.78Z" fill="#C4C2C6"/>
<path d="M397.66 831.56C397.25 835.06 396.74 838.68 396.16 842.24C396.29 838.88 396.4 835.32 396.47 831.63C396.87 831.61 397.27 831.58 397.66 831.56V831.56Z" fill="#C4C2C6"/>
</svg>
