<svg width="620" height="1074" viewBox="0 0 620 1074" fill="none" xmlns="http://www.w3.org/2000/svg">
<g opacity="0.53">
<path d="M212.49 654.95C223.28 656.51 233.93 657.51 244.43 657.97C233.87 657.54 223.19 656.59 212.38 655.11C212.45 655 212.49 654.95 212.49 654.95Z" fill="#9FA7C4"/>
<path d="M293.12 656.11C284.11 657.2 274.99 657.86 265.75 658.11C274.96 657.84 284.06 657.13 293.02 655.97C293.01 655.98 293 655.98 293 655.98C293.04 656.02 293.08 656.07 293.12 656.11Z" fill="#9FA7C4"/>
<path d="M244.43 657.97C233.87 657.54 223.19 656.59 212.38 655.11C212.45 655 212.49 654.95 212.49 654.95C223.28 656.51 233.93 657.51 244.43 657.97Z" fill="#9FA7C4"/>
<path d="M218.02 674.6C228.04 675.88 237.93 676.67 247.7 676.99C237.89 676.69 227.97 675.94 217.94 674.74C217.99 674.65 218.02 674.6 218.02 674.6V674.6Z" fill="#9FA7C4"/>
<path d="M289.98 675.25C289.98 675.25 290.05 675.32 290.09 675.36C280.3 676.44 270.37 677.03 260.31 677.13C270.35 677.02 280.25 676.39 289.99 675.24H289.98V675.25Z" fill="#9FA7C4"/>
<path d="M293.12 656.11C284.11 657.2 274.99 657.86 265.75 658.11C274.96 657.84 284.06 657.13 293.02 655.97C293.01 655.98 293 655.98 293 655.98C293.04 656.02 293.08 656.07 293.12 656.11Z" fill="#9FA7C4"/>
<path d="M247.7 676.99C237.89 676.69 227.97 675.94 217.94 674.74C217.99 674.65 218.02 674.6 218.02 674.6C228.04 675.88 237.93 676.67 247.7 676.99V676.99Z" fill="#9FA7C4"/>
<path d="M290.09 675.36C280.3 676.44 270.37 677.03 260.31 677.13C270.35 677.02 280.25 676.39 289.99 675.24H289.98C290.02 675.29 290.05 675.32 290.09 675.36Z" fill="#9FA7C4"/>
</g>
<path d="M218.02 674.6C228.04 675.88 237.93 676.67 247.7 676.99C237.89 676.69 227.97 675.94 217.94 674.74C217.99 674.65 218.02 674.6 218.02 674.6V674.6Z" fill="#9FA7C4"/>
<path d="M289.98 675.25C289.98 675.25 290.05 675.32 290.09 675.36C280.3 676.44 270.37 677.03 260.31 677.13C270.35 677.02 280.25 676.39 289.99 675.24H289.98V675.25Z" fill="#9FA7C4"/>
<path d="M288.67 694.41C278.36 695.5 267.89 696.04 257.28 696.04C246.67 696.04 235.44 695.47 224.32 694.34C212.48 685.28 217.22 675.98 217.94 674.74C227.97 675.94 237.89 676.69 247.7 676.99C248.76 677.02 249.82 677.05 250.89 677.07C251.01 677.07 251.13 677.08 251.26 677.08C253.23 677.12 255.2 677.14 257.17 677.14C258.22 677.14 259.27 677.13 260.31 677.13C270.37 677.03 280.3 676.44 290.09 675.36C298.65 683.83 289.1 693.97 288.67 694.41V694.41Z" fill="#9FA7C4"/>
<path d="M289.99 675.24C280.25 676.39 270.35 677.02 260.31 677.13C259.27 677.13 258.22 677.14 257.17 677.14C255.2 677.14 253.23 677.12 251.26 677.08C251.13 677.08 251.01 677.07 250.89 677.07C249.82 677.05 248.76 677.02 247.7 676.99C237.93 676.67 228.04 675.88 218.02 674.6C204.82 667.04 211.41 656.52 212.38 655.11C223.19 656.59 233.87 657.54 244.43 657.97C244.94 657.98 245.45 658 245.96 658.02C246.72 658.05 247.48 658.08 248.24 658.1C250.19 658.16 252.13 658.2 254.06 658.22H254.27C255.73 658.24 257.19 658.24 258.65 658.23C259.13 658.23 259.61 658.22 260.1 658.22C261.04 658.22 261.98 658.2 262.91 658.18C263.86 658.16 264.8 658.14 265.75 658.11C274.99 657.86 284.11 657.2 293.12 656.11C300.74 664.14 290.39 674.83 289.99 675.24Z" fill="#9FA7C4"/>
<path d="M293.03 655.97C284.07 657.13 274.97 657.84 265.76 658.11C264.81 658.14 263.87 658.16 262.92 658.18C261.99 658.2 261.05 658.21 260.11 658.22C259.62 658.22 259.14 658.23 258.66 658.23H257.29C256.29 658.23 255.29 658.23 254.28 658.22H254.07C252.14 658.19 250.19 658.16 248.25 658.1C247.49 658.08 246.73 658.05 245.97 658.02C245.46 658 244.95 657.98 244.44 657.97C233.94 657.51 223.29 656.51 212.5 654.95C200.74 642.21 210.83 635.81 210.83 635.81C210.83 635.81 210.85 635.81 210.89 635.8C240.77 640.26 269.61 640.49 297.21 636.5C297.26 636.56 297.29 636.63 297.33 636.69C303.55 648 293.62 655.54 293.04 655.97H293.03Z" fill="#9FA7C4"/>
<path d="M212.49 654.95C223.28 656.51 233.93 657.51 244.43 657.97C233.87 657.54 223.19 656.59 212.38 655.11C212.45 655 212.49 654.95 212.49 654.95Z" fill="#9FA7C4"/>
<path d="M293 655.98C293 655.98 293.08 656.07 293.12 656.11C284.11 657.2 274.99 657.86 265.75 658.11C274.96 657.84 284.06 657.13 293.02 655.97C293.01 655.98 293 655.98 293 655.98Z" fill="#9FA7C4"/>
<path d="M288.83 681.78C288.83 681.78 288.83 681.76 288.84 681.75C288.62 686.34 288.19 690.76 287.62 694.51C287.06 694.58 286.5 694.63 285.94 694.68C287.33 691.07 288.56 686.62 288.83 681.78V681.78Z" fill="#9FA7C4"/>
<path d="M291.59 656.29C291.7 656.28 291.81 656.27 291.92 656.25C291.74 657.09 291.57 657.91 291.41 658.72C291.41 658.72 291.48 657.87 291.59 656.29V656.29Z" fill="#9FA7C4"/>
<path d="M293.03 655.97C292.66 656.02 292.3 656.06 291.96 656.11C291.84 656.12 291.72 656.14 291.61 656.15C291.85 652.69 292.3 645.93 292.76 637.1C293.95 636.95 295.14 636.79 296.32 636.62C296.62 636.59 296.91 636.54 297.21 636.5C297.26 636.56 297.29 636.63 297.33 636.69C303.55 648 293.62 655.54 293.04 655.97H293.03Z" fill="#848BA3"/>
<path d="M242.23 676.61C242.23 676.61 246.44 687.46 245.42 695.25C245.4 695.44 245.37 695.63 245.33 695.81C238.71 695.56 232.04 695.1 225.33 694.44C224.99 694.41 224.66 694.37 224.32 694.34C212.48 685.28 217.22 675.98 217.94 674.74C218.37 674.79 218.79 674.84 219.18 674.89C223.18 675.37 225.29 675.6 225.48 675.6C225.25 675.54 223.14 675.26 219.13 674.75C218.78 674.7 218.41 674.65 218.02 674.6C204.82 667.04 211.41 656.52 212.38 655.11C212.79 655.17 213.19 655.22 213.57 655.27C217.99 655.87 220.31 656.17 220.52 656.17C220.28 656.1 217.95 655.75 213.54 655.1H213.53C213.19 655.05 212.85 655 212.49 654.95C200.73 642.21 210.82 635.81 210.82 635.81C210.82 635.81 210.84 635.81 210.88 635.8C211.2 635.85 211.51 635.89 211.83 635.94C218.18 636.87 224.49 637.61 230.75 638.15C233.56 655.28 237.33 669.15 242.23 676.61V676.61Z" fill="#848BA3"/>
<path d="M288.84 681.75C288.62 686.34 288.19 690.76 287.62 694.51C287.06 694.58 286.5 694.63 285.94 694.68C287.33 691.07 288.56 686.62 288.83 681.78C288.83 681.77 288.83 681.76 288.84 681.75V681.75Z" fill="#848BA3"/>
<path d="M257.28 696.54C246.49 696.54 235.39 695.97 224.27 694.84H224.13L224.02 694.74C211.73 685.33 216.88 675.57 217.51 674.49L217.68 674.21L218.01 674.25C227.98 675.44 237.98 676.2 247.73 676.5C248.79 676.53 249.85 676.56 250.91 676.58H251.27C253.25 676.63 255.21 676.65 257.18 676.65H260.32C270.32 676.54 280.32 675.95 290.05 674.87L290.29 674.84L290.46 675.01C299.45 683.91 289.15 694.66 289.05 694.76L288.92 694.89L288.74 694.91C278.49 695.99 267.91 696.54 257.3 696.54H257.28ZM224.51 693.86C235.55 694.98 246.57 695.54 257.28 695.54C267.99 695.54 278.28 695 288.43 693.93C289.58 692.7 297.5 683.64 289.9 675.88C280.22 676.94 270.26 677.53 260.31 677.63H257.17C255.2 677.64 253.22 677.62 251.25 677.58H250.89C249.81 677.55 248.75 677.52 247.69 677.49C238.02 677.19 228.11 676.45 218.22 675.28C217.26 677.14 213.77 685.56 224.52 693.86H224.51Z" fill="#676D80"/>
<path d="M257.17 677.64C255.2 677.64 253.22 677.62 251.25 677.58H250.89C249.81 677.55 248.75 677.52 247.69 677.49C237.88 677.17 227.88 676.36 217.96 675.1L217.77 675.04C213.24 672.45 210.52 669.24 209.66 665.49C208.47 660.26 211.37 655.7 211.96 654.83L212.13 654.58L212.44 654.62C223.15 656.09 233.92 657.05 244.44 657.48C244.94 657.48 245.46 657.51 245.97 657.53C246.73 657.56 247.49 657.59 248.24 657.61C250.19 657.67 252.13 657.71 254.05 657.73H254.25C255.71 657.75 257.17 657.75 258.63 657.74H260.08C261.01 657.72 261.95 657.71 262.88 657.69C263.83 657.67 264.77 657.65 265.71 657.62C274.96 657.37 284.15 656.7 293.04 655.62L293.29 655.59L293.46 655.77C301.36 664.1 290.78 675.13 290.32 675.59L290.2 675.72L290.02 675.74C280.31 676.89 270.31 677.52 260.29 677.63H257.14L257.17 677.64ZM218.18 674.13C228.04 675.39 237.97 676.18 247.71 676.5C248.77 676.53 249.82 676.56 250.89 676.58H251.25C253.23 676.63 255.19 676.65 257.16 676.65H260.3C270.22 676.53 280.12 675.9 289.74 674.77C290.93 673.5 299.51 663.9 292.91 656.64C284.07 657.7 274.94 658.36 265.75 658.61C264.8 658.64 263.87 658.66 262.92 658.68C261.98 658.7 261.04 658.71 260.1 658.72H258.64C257.18 658.74 255.72 658.74 254.25 658.72H254.05C252.11 658.7 250.17 658.66 248.21 658.6C247.45 658.58 246.69 658.55 245.93 658.52C245.42 658.5 244.92 658.48 244.41 658.47C233.95 658.04 223.25 657.09 212.61 655.65C211.82 656.87 209.62 660.83 210.63 665.26C211.41 668.7 213.95 671.68 218.17 674.11L218.18 674.13Z" fill="#676D80"/>
<path d="M258.65 658.73H257.28C256.28 658.73 255.28 658.73 254.27 658.72H254.06C252.12 658.69 250.17 658.66 248.22 658.6C247.46 658.58 246.7 658.55 245.94 658.52C245.43 658.5 244.93 658.48 244.42 658.47C233.87 658.01 223.11 656.99 212.42 655.44L212.24 655.41L212.12 655.28C207.78 650.58 205.85 646.17 206.37 642.17C206.95 637.7 210.4 635.47 210.55 635.38L210.67 635.3H210.95C240.66 639.73 269.66 639.97 297.12 636L297.4 635.96L297.58 636.18C297.63 636.24 297.67 636.31 297.71 636.37C304.18 648.13 293.77 656.04 293.33 656.37L293.2 656.47H293.02C284.19 657.62 275 658.34 265.76 658.61C264.81 658.64 263.87 658.66 262.93 658.68C261.99 658.7 261.05 658.71 260.11 658.72H258.65V658.73ZM254.27 657.73C255.28 657.74 256.28 657.74 257.28 657.74H260.1C261.03 657.72 261.97 657.71 262.9 657.69C263.85 657.67 264.79 657.65 265.73 657.62C274.89 657.35 284 656.64 292.83 655.5C294.25 654.41 302.56 647.44 296.94 637.05C269.52 640.98 240.6 640.74 210.96 636.33C210.36 636.76 207.82 638.79 207.36 642.34C206.89 645.99 208.7 650.08 212.73 654.49C223.33 656.02 234 657.02 244.44 657.48C244.94 657.48 245.45 657.51 245.97 657.53C246.73 657.56 247.49 657.59 248.24 657.61C250.18 657.67 252.13 657.7 254.05 657.73H254.25H254.27Z" fill="#676D80"/>
</svg>
