<svg width="620" height="1074" viewBox="0 0 620 1074" fill="none" xmlns="http://www.w3.org/2000/svg">
<path d="M486.06 407.61L435.91 427.97C433.1 422.28 430.46 416.89 428.34 412.53C428.33 412.51 428.33 412.5 428.32 412.49C428.13 412.11 427.95 411.73 427.77 411.36C427.65 411.1 427.53 410.85 427.4 410.6C427.36 410.5 427.31 410.41 427.27 410.31C426.24 408.17 425.37 406.35 424.74 404.99C424.32 404.09 423.96 403.21 423.65 402.35L477.93 380.32C480.01 384.53 481.8 388.64 482.98 392.12C484.36 396.16 485.33 401.7 486.06 407.61V407.61Z" fill="#F3EFF5"/>
<path d="M488.62 437.18L448.53 453.45C446.56 449.47 443.98 444.3 441.25 438.78C439.46 435.17 437.65 431.51 435.91 427.97L486.06 407.62C486.88 414.33 487.39 421.51 487.82 427.51C488.1 431.53 488.35 435.01 488.62 437.18V437.18Z" fill="#F3EFF5"/>
<path d="M496.21 464.7L492.64 466.15L461.97 478.59C460.92 476.55 459.91 474.67 459.01 473.04C458.76 472.57 458.5 472.12 458.25 471.68C458.22 471.62 458.18 471.56 458.15 471.5C457.82 470.91 457.49 470.35 457.18 469.81C456.83 469.2 456.48 468.58 456.13 467.96C454.97 465.92 453.84 463.85 452.73 461.74C452.03 460.4 451.33 459.05 450.64 457.69C450.06 456.52 449.35 455.09 448.53 453.45L488.62 437.18C488.63 437.24 488.63 437.29 488.64 437.34C489.07 440.62 490.9 447.3 492.88 453.91C494.03 457.76 495.23 461.59 496.21 464.7V464.7Z" fill="#F3EFF5"/>
<path d="M504.37 491.98L471.26 505.42C471.25 505.07 471.22 504.71 471.18 504.34C471.16 504.13 471.14 503.91 471.11 503.7C471.06 503.26 470.99 502.82 470.92 502.37C470.83 501.81 470.72 501.25 470.6 500.68C470.57 500.57 470.55 500.46 470.53 500.35C468.97 493.29 465.31 485.11 461.97 478.59L492.64 466.15L496.21 464.7C497.53 468.81 498.49 471.69 498.52 471.78C498.72 472.47 502.17 483.94 504.37 491.98V491.98Z" fill="#F3EFF5"/>
<path d="M498.52 471.78C498.49 471.69 497.53 468.81 496.21 464.7C495.23 461.59 494.03 457.76 492.88 453.91C490.9 447.3 489.071 440.62 488.641 437.34C488.631 437.29 488.63 437.24 488.62 437.18C488.35 435.01 488.1 431.53 487.82 427.51C487.39 421.51 486.88 414.33 486.06 407.62L486 407.64L486.06 407.61C485.99 407.07 485.92 406.53 485.85 405.99V405.93C485.49 403.29 485.09 400.75 484.62 398.42C484.15 396.08 483.61 393.95 482.98 392.12C481.8 388.64 480.01 384.53 477.93 380.32L476.99 380.7L469.25 383.84C471.82 387.28 473.79 391.18 474.56 395.51C477.88 414.14 482.73 444.78 486.31 453.72L493.19 471.34C495.48 479.1 497.74 487.71 498.88 494.21L502.93 492.56L504.37 491.98C502.17 483.94 498.72 472.47 498.52 471.78Z" fill="#DCDCDC"/>
<path d="M424.59 401.97C424.89 402.82 425.24 403.68 425.65 404.57C427.75 409.11 432.43 418.68 437.46 428.88C435.88 418.8 434.6 408.11 433.59 398.31L424.59 401.97V401.97Z" fill="#DCDCDC"/>
<path d="M435.43 429.24L435.02 428.41C432.21 422.72 429.57 417.33 427.45 412.97L427.43 412.93C427.3 412.67 427.18 412.42 427.06 412.16L426.88 411.79C426.76 411.53 426.64 411.29 426.52 411.05L426.48 410.96C426.41 410.81 426.38 410.74 426.35 410.67C425.34 408.59 424.47 406.76 423.84 405.4C423.42 404.51 423.05 403.59 422.72 402.68L422.39 401.78L478.42 379.04L478.83 379.87C481.04 384.34 482.8 388.46 483.93 391.79C485.18 395.45 486.2 400.59 487.06 407.48L487.15 408.24L435.43 429.24V429.24ZM429.15 411.89L429.19 411.92L429.28 412.15C431.27 416.24 433.75 421.31 436.41 426.69L484.99 406.97C484.18 400.6 483.21 395.84 482.05 392.44C481.02 389.4 479.44 385.66 477.46 381.59L424.95 402.9C425.17 403.46 425.41 404.01 425.67 404.56C426.3 405.92 427.17 407.73 428.19 409.87L428.26 410.02C428.28 410.07 428.31 410.12 428.33 410.17C428.46 410.42 428.58 410.67 428.7 410.93L428.88 411.29C428.97 411.49 429.07 411.68 429.17 411.88L429.15 411.89Z" fill="#D4D1D6"/>
<path d="M448.05 454.72L447.64 453.89C446.78 452.14 445.79 450.17 444.73 448.04C443.37 445.31 441.89 442.32 440.36 439.22C438.57 435.61 436.76 431.95 435.02 428.41L434.55 427.45L486.91 406.21L487.07 407.51C487.88 414.16 488.4 421.4 488.82 427.22L488.84 427.45C489.13 431.61 489.37 434.95 489.63 437.07L489.72 437.83L448.06 454.74L448.05 454.72ZM437.29 428.49C438.88 431.73 440.53 435.05 442.15 438.33C443.68 441.43 445.17 444.42 446.52 447.14C447.42 448.94 448.25 450.63 449.01 452.16L487.53 436.53C487.29 434.37 487.07 431.29 486.81 427.57L486.79 427.34C486.4 421.92 485.92 415.26 485.21 409.03L437.27 428.48L437.29 428.49Z" fill="#D4D1D6"/>
<path d="M461.5 479.86L461.08 479.05C460.13 477.2 459.14 475.34 458.13 473.53C457.92 473.13 457.71 472.77 457.5 472.41L457.25 471.96C457.05 471.61 456.83 471.23 456.62 470.86L456.3 470.31C455.95 469.7 455.6 469.08 455.25 468.45C454.11 466.45 452.96 464.35 451.84 462.2C451.14 460.85 450.44 459.5 449.74 458.14C449.16 456.96 448.45 455.53 447.63 453.89L447.15 452.92L489.4 435.77L489.62 437.15C489.99 439.95 491.44 445.63 493.83 453.61C494.95 457.36 496.14 461.16 497.16 464.39L497.44 465.27L461.5 479.85V479.86ZM449.91 453.97C450.53 455.21 451.08 456.31 451.54 457.25C452.22 458.6 452.92 459.94 453.62 461.28C454.74 463.4 455.88 465.49 457 467.47C457.35 468.09 457.7 468.71 458.05 469.32L458.36 469.86C458.58 470.24 458.8 470.62 459.02 471.02C459.09 471.14 459.12 471.19 459.14 471.24L459.24 471.42C459.45 471.8 459.67 472.18 459.89 472.58C460.75 474.14 461.61 475.73 462.44 477.33L494.98 464.13C494.03 461.1 492.95 457.63 491.92 454.21C490.39 449.1 488.51 442.48 487.82 438.6L449.9 453.99L449.91 453.97Z" fill="#D4D1D6"/>
<path d="M470.3 506.89L470.26 505.45C470.26 505.12 470.22 504.79 470.19 504.45C470.17 504.21 470.15 504.02 470.12 503.85C470.07 503.43 470.01 503.03 469.95 502.63C469.85 502 469.74 501.45 469.62 500.9C469.6 500.82 469.57 500.68 469.54 500.54C467.95 493.34 464.06 484.88 461.07 479.06L460.57 478.09L496.82 463.38L497.15 464.41C498.43 468.4 499.37 471.23 499.45 471.47L499.74 472.45C500.65 475.52 503.43 484.85 505.32 491.74L505.55 492.6L470.28 506.92L470.3 506.89ZM463.35 479.11C466.31 484.98 469.94 493.09 471.5 500.14C471.52 500.26 471.54 500.34 471.56 500.42C471.7 501.06 471.81 501.64 471.9 502.21L471.92 502.31C471.99 502.74 472.05 503.16 472.1 503.59C472.12 503.71 472.13 503.84 472.15 503.98L503.17 491.39C501.3 484.63 498.71 475.94 497.84 473L497.56 472.06C497.49 471.87 496.7 469.49 495.59 466.03L463.36 479.11H463.35Z" fill="#D4D1D6"/>
</svg>
