<svg width="620" height="1074" viewBox="0 0 620 1074" fill="none" xmlns="http://www.w3.org/2000/svg">
<path d="M453.59 443.08C454.64 442.77 455.73 442.45 456.85 442.1C455.74 442.44 454.65 442.77 453.59 443.08Z" fill="#555451"/>
<path d="M491.53 415.74L495.48 427.33C492.95 428.51 490.45 429.63 487.97 430.7C487.01 431.12 486.05 431.52 485.1 431.91C484.62 432.11 484.15 432.31 483.67 432.5C483.15 432.72 482.62 432.93 482.1 433.14C481.5 433.39 480.89 433.63 480.3 433.87C480.02 433.98 479.74 434.09 479.46 434.2C477.88 434.83 476.32 435.42 474.78 436C474.51 436.1 474.25 436.2 473.98 436.3C468.87 438.2 464.04 439.84 459.6 441.24C459.52 441.27 459.45 441.29 459.38 441.31C458.53 441.58 457.68 441.84 456.85 442.1C455.74 442.44 454.65 442.77 453.59 443.08C453.08 443.23 452.58 443.37 452.09 443.52C451.39 443.72 450.71 443.92 450.05 444.1C448.91 444.42 447.81 444.72 446.78 445C445.65 445.3 444.59 445.58 443.6 445.84C439.93 446.78 437.18 447.41 435.59 447.76L431.64 436.18C433.34 435.8 436.08 435.17 439.64 434.25C440.14 434.12 440.65 433.99 441.18 433.85C441.73 433.7 442.29 433.55 442.87 433.4C444.14 433.06 445.49 432.69 446.9 432.28C447.35 432.15 447.8 432.02 448.26 431.89C449.43 431.55 450.64 431.19 451.89 430.81C452.62 430.6 453.35 430.37 454.1 430.13C454.61 429.97 455.13 429.81 455.65 429.64C456.47 429.39 457.3 429.12 458.14 428.84C459.46 428.42 460.8 427.97 462.17 427.5C465.28 426.44 468.53 425.27 471.89 424C472.17 423.9 472.45 423.78 472.73 423.68C473.64 423.34 474.57 422.97 475.49 422.61C476.38 422.27 477.26 421.92 478.16 421.55C478.28 421.51 478.39 421.46 478.51 421.41C479.21 421.13 479.91 420.84 480.61 420.55C481.04 420.38 481.48 420.2 481.91 420.01C482.6 419.72 483.3 419.43 484.01 419.13C486.49 418.07 488.99 416.94 491.52 415.77L491.53 415.74Z" fill="#BEBBBF"/>
<path d="M484.02 419.11L487.97 430.71C487.01 431.13 486.05 431.53 485.1 431.92C484.62 432.12 484.15 432.32 483.67 432.51C483.15 432.73 482.62 432.94 482.1 433.15C481.5 433.4 480.89 433.64 480.3 433.88C480.02 433.99 479.74 434.1 479.46 434.21C477.88 434.84 476.32 435.43 474.78 436.01C474.51 436.11 474.25 436.21 473.98 436.31C468.87 438.21 464.04 439.85 459.6 441.25C459.52 441.28 459.45 441.3 459.38 441.32C458.53 441.59 457.68 441.85 456.85 442.11C455.73 442.46 454.65 442.78 453.59 443.09C453.08 443.24 452.58 443.38 452.09 443.53C451.39 443.73 450.71 443.93 450.05 444.11C448.91 444.43 447.81 444.73 446.78 445.01C445.65 445.31 444.59 445.59 443.6 445.85L439.65 434.26C440.15 434.13 440.66 434 441.19 433.86C441.74 433.71 442.3 433.56 442.88 433.41C444.15 433.07 445.5 432.7 446.91 432.29C447.36 432.16 447.81 432.03 448.27 431.9C449.44 431.56 450.65 431.2 451.9 430.82C452.63 430.61 453.36 430.38 454.11 430.14C454.62 429.98 455.14 429.82 455.66 429.65C456.48 429.4 457.31 429.13 458.15 428.85C459.47 428.43 460.81 427.98 462.18 427.51C465.29 426.45 468.54 425.28 471.9 424.01C472.18 423.91 472.46 423.79 472.74 423.69C473.65 423.35 474.58 422.98 475.5 422.62C476.39 422.28 477.27 421.93 478.17 421.56C478.29 421.52 478.4 421.47 478.52 421.42C479.22 421.14 479.92 420.85 480.62 420.56C481.05 420.39 481.49 420.21 481.92 420.02C482.61 419.73 483.31 419.44 484.02 419.14V419.11Z" fill="#F3EFF5"/>
<path d="M484.02 419.11L487.97 430.71C487.01 431.13 486.05 431.53 485.1 431.92C484.62 432.12 484.15 432.32 483.67 432.51C483.15 432.73 482.62 432.94 482.1 433.15C481.5 433.4 480.89 433.64 480.3 433.88C480.02 433.99 479.74 434.1 479.46 434.21C477.88 434.84 476.32 435.43 474.78 436.01C474.51 436.11 474.25 436.21 473.98 436.31C468.87 438.21 464.04 439.85 459.6 441.25C459.52 441.28 459.45 441.3 459.38 441.32C458.53 441.59 457.68 441.85 456.85 442.11C455.73 442.46 454.65 442.78 453.59 443.09C453.08 443.24 452.58 443.38 452.09 443.53C451.39 443.73 450.71 443.93 450.05 444.11C448.91 444.43 447.81 444.73 446.78 445.01C445.65 445.31 444.59 445.59 443.6 445.85L439.65 434.26C440.15 434.13 440.66 434 441.19 433.86C441.74 433.71 442.3 433.56 442.88 433.41C444.15 433.07 445.5 432.7 446.91 432.29C447.36 432.16 447.81 432.03 448.27 431.9C449.44 431.56 450.65 431.2 451.9 430.82C452.63 430.61 453.36 430.38 454.11 430.14C454.62 429.98 455.14 429.82 455.66 429.65C456.48 429.4 457.31 429.13 458.15 428.85C459.47 428.43 460.81 427.98 462.18 427.51C465.29 426.45 468.54 425.28 471.9 424.01C472.18 423.91 472.46 423.79 472.74 423.69C473.65 423.35 474.58 422.98 475.5 422.62C476.39 422.28 477.27 421.93 478.17 421.56C478.29 421.52 478.4 421.47 478.52 421.42C479.22 421.14 479.92 420.85 480.62 420.56C481.05 420.39 481.49 420.21 481.92 420.02C482.61 419.73 483.31 419.44 484.02 419.14V419.11Z" fill="#F3EFF5"/>
<path d="M487.97 430.7C490.45 429.63 492.95 428.5 495.48 427.33L496.44 430.14C486.08 434.96 476 438.85 467.09 441.89C452.48 446.87 441 449.61 436.55 450.58L435.59 447.76C437.17 447.41 439.93 446.78 443.6 445.84C444.6 445.58 445.66 445.3 446.78 445C447.82 444.72 448.91 444.42 450.05 444.09C450.71 443.91 451.4 443.7 452.09 443.51C452.58 443.37 453.08 443.22 453.59 443.07C454.64 442.76 455.73 442.44 456.85 442.09C457.68 441.83 458.53 441.57 459.38 441.3C459.45 441.28 459.52 441.26 459.59 441.23C464.02 439.82 468.86 438.18 473.97 436.29C474.24 436.18 474.5 436.09 474.77 435.99C476.31 435.42 477.86 434.82 479.44 434.2C479.73 434.09 480.01 433.98 480.28 433.87C480.88 433.63 481.48 433.39 482.09 433.14C482.62 432.93 483.14 432.72 483.66 432.5C484.13 432.31 484.61 432.11 485.09 431.91C486.04 431.51 487 431.11 487.96 430.69L487.97 430.7Z" fill="#555451"/>
<path d="M490.57 412.93L491.53 415.75C489 416.92 486.5 418.05 484.02 419.11C483.32 419.42 482.62 419.71 481.92 420C481.49 420.18 481.05 420.37 480.62 420.54C479.92 420.84 479.22 421.12 478.52 421.4C478.4 421.46 478.29 421.5 478.17 421.54C477.27 421.91 476.38 422.26 475.5 422.61C474.57 422.97 473.66 423.33 472.74 423.68C472.46 423.78 472.18 423.9 471.9 424C468.55 425.27 465.29 426.44 462.18 427.5C460.81 427.97 459.47 428.42 458.16 428.84C457.31 429.11 456.48 429.38 455.67 429.64C455.14 429.81 454.63 429.97 454.11 430.13C453.37 430.37 452.63 430.6 451.91 430.81C450.65 431.19 449.45 431.55 448.27 431.89C447.81 432.02 447.35 432.15 446.91 432.28C445.5 432.69 444.14 433.06 442.88 433.4C442.3 433.56 441.74 433.71 441.19 433.86C440.66 434 440.15 434.13 439.65 434.26C436.09 435.19 433.35 435.81 431.65 436.19L430.69 433.37C437.14 431.96 462.86 425.88 490.58 412.92L490.57 412.93Z" fill="#555451"/>
<path d="M470.28 492.02C471.33 491.71 472.42 491.39 473.54 491.04C472.43 491.38 471.34 491.71 470.28 492.02Z" fill="#555451"/>
<path d="M508.21 464.68L512.16 476.27C509.63 477.45 507.13 478.57 504.65 479.64C503.69 480.06 502.73 480.46 501.78 480.85C501.3 481.05 500.83 481.25 500.35 481.44C499.83 481.66 499.3 481.87 498.78 482.08C498.18 482.33 497.57 482.57 496.98 482.81C496.7 482.92 496.42 483.03 496.14 483.14C494.56 483.77 493 484.36 491.46 484.94C491.19 485.04 490.93 485.14 490.66 485.24C485.55 487.14 480.72 488.78 476.28 490.18C476.2 490.21 476.13 490.23 476.06 490.25C475.21 490.52 474.36 490.78 473.53 491.04C472.42 491.38 471.33 491.71 470.27 492.02C469.76 492.17 469.26 492.31 468.77 492.46C468.07 492.66 467.39 492.86 466.73 493.04C465.59 493.36 464.49 493.66 463.46 493.94C462.33 494.24 461.27 494.52 460.28 494.78C456.61 495.72 453.86 496.35 452.27 496.7L448.32 485.12C450.02 484.74 452.76 484.11 456.32 483.19C456.82 483.06 457.33 482.93 457.86 482.79C458.41 482.64 458.97 482.49 459.55 482.34C460.82 482 462.17 481.63 463.58 481.22C464.03 481.09 464.48 480.96 464.94 480.83C466.11 480.49 467.32 480.13 468.57 479.75C469.3 479.54 470.03 479.31 470.78 479.07C471.29 478.91 471.81 478.75 472.33 478.58C473.15 478.33 473.98 478.06 474.82 477.78C476.14 477.36 477.48 476.91 478.85 476.44C481.96 475.38 485.21 474.21 488.57 472.94C488.85 472.84 489.13 472.72 489.41 472.62C490.32 472.28 491.25 471.91 492.17 471.55C493.06 471.21 493.94 470.86 494.84 470.49C494.96 470.45 495.07 470.4 495.19 470.35C495.89 470.07 496.59 469.78 497.29 469.49C497.72 469.32 498.16 469.14 498.59 468.95C499.28 468.66 499.98 468.37 500.69 468.07C503.17 467.01 505.67 465.88 508.2 464.71L508.21 464.68Z" fill="#BEBBBF"/>
<path d="M500.7 468.05L504.65 479.65C503.69 480.07 502.73 480.47 501.78 480.86C501.3 481.06 500.83 481.26 500.35 481.45C499.83 481.67 499.3 481.88 498.78 482.09C498.18 482.34 497.57 482.58 496.98 482.82C496.7 482.93 496.42 483.04 496.14 483.15C494.56 483.78 493 484.37 491.46 484.95C491.19 485.05 490.93 485.15 490.66 485.25C485.55 487.15 480.72 488.79 476.28 490.19C476.2 490.22 476.13 490.24 476.06 490.26C475.21 490.53 474.36 490.79 473.53 491.05C472.41 491.4 471.33 491.72 470.27 492.03C469.76 492.18 469.26 492.32 468.77 492.47C468.07 492.67 467.39 492.87 466.73 493.05C465.59 493.37 464.49 493.67 463.46 493.95C462.33 494.25 461.27 494.53 460.28 494.79L456.33 483.2C456.83 483.07 457.34 482.94 457.87 482.8C458.42 482.65 458.98 482.5 459.56 482.35C460.83 482.01 462.18 481.64 463.59 481.23C464.04 481.1 464.49 480.97 464.95 480.84C466.12 480.5 467.33 480.14 468.58 479.76C469.31 479.55 470.04 479.32 470.79 479.08C471.3 478.92 471.82 478.76 472.34 478.59C473.16 478.34 473.99 478.07 474.83 477.79C476.15 477.37 477.49 476.92 478.86 476.45C481.97 475.39 485.22 474.22 488.58 472.95C488.86 472.85 489.14 472.73 489.42 472.63C490.33 472.29 491.26 471.92 492.18 471.56C493.07 471.22 493.95 470.87 494.85 470.5C494.97 470.46 495.08 470.41 495.2 470.36C495.9 470.08 496.6 469.79 497.3 469.5C497.73 469.33 498.17 469.15 498.6 468.96C499.29 468.67 499.99 468.38 500.7 468.08V468.05Z" fill="#F3EFF5"/>
<path d="M500.7 468.05L504.65 479.65C503.69 480.07 502.73 480.47 501.78 480.86C501.3 481.06 500.83 481.26 500.35 481.45C499.83 481.67 499.3 481.88 498.78 482.09C498.18 482.34 497.57 482.58 496.98 482.82C496.7 482.93 496.42 483.04 496.14 483.15C494.56 483.78 493 484.37 491.46 484.95C491.19 485.05 490.93 485.15 490.66 485.25C485.55 487.15 480.72 488.79 476.28 490.19C476.2 490.22 476.13 490.24 476.06 490.26C475.21 490.53 474.36 490.79 473.53 491.05C472.41 491.4 471.33 491.72 470.27 492.03C469.76 492.18 469.26 492.32 468.77 492.47C468.07 492.67 467.39 492.87 466.73 493.05C465.59 493.37 464.49 493.67 463.46 493.95C462.33 494.25 461.27 494.53 460.28 494.79L456.33 483.2C456.83 483.07 457.34 482.94 457.87 482.8C458.42 482.65 458.98 482.5 459.56 482.35C460.83 482.01 462.18 481.64 463.59 481.23C464.04 481.1 464.49 480.97 464.95 480.84C466.12 480.5 467.33 480.14 468.58 479.76C469.31 479.55 470.04 479.32 470.79 479.08C471.3 478.92 471.82 478.76 472.34 478.59C473.16 478.34 473.99 478.07 474.83 477.79C476.15 477.37 477.49 476.92 478.86 476.45C481.97 475.39 485.22 474.22 488.58 472.95C488.86 472.85 489.14 472.73 489.42 472.63C490.33 472.29 491.26 471.92 492.18 471.56C493.07 471.22 493.95 470.87 494.85 470.5C494.97 470.46 495.08 470.41 495.2 470.36C495.9 470.08 496.6 469.79 497.3 469.5C497.73 469.33 498.17 469.15 498.6 468.96C499.29 468.67 499.99 468.38 500.7 468.08V468.05Z" fill="#F3EFF5"/>
<path d="M504.65 479.64C507.13 478.57 509.63 477.44 512.16 476.27L513.12 479.08C502.76 483.9 492.68 487.79 483.77 490.83C469.16 495.81 457.68 498.55 453.23 499.52L452.27 496.7C453.85 496.35 456.61 495.72 460.28 494.78C461.28 494.52 462.34 494.24 463.46 493.94C464.5 493.66 465.59 493.36 466.73 493.03C467.39 492.85 468.08 492.64 468.77 492.45C469.26 492.31 469.76 492.16 470.27 492.01C471.32 491.7 472.41 491.38 473.53 491.03C474.36 490.77 475.21 490.51 476.06 490.24C476.13 490.22 476.2 490.2 476.27 490.17C480.7 488.76 485.54 487.12 490.65 485.23C490.92 485.12 491.18 485.03 491.45 484.93C492.99 484.36 494.54 483.76 496.12 483.14C496.41 483.03 496.69 482.92 496.96 482.81C497.56 482.57 498.16 482.33 498.77 482.08C499.3 481.87 499.82 481.66 500.34 481.44C500.81 481.25 501.29 481.05 501.77 480.85C502.72 480.45 503.68 480.05 504.64 479.63L504.65 479.64Z" fill="#555451"/>
<path d="M507.25 461.86L508.21 464.68C505.68 465.85 503.18 466.98 500.7 468.04C500 468.35 499.3 468.64 498.6 468.93C498.17 469.11 497.73 469.3 497.3 469.47C496.6 469.77 495.9 470.05 495.2 470.33C495.08 470.39 494.97 470.43 494.85 470.47C493.95 470.84 493.06 471.19 492.18 471.54C491.25 471.9 490.34 472.26 489.42 472.61C489.14 472.71 488.86 472.83 488.58 472.93C485.23 474.2 481.97 475.37 478.86 476.43C477.49 476.9 476.15 477.35 474.84 477.77C473.99 478.04 473.16 478.31 472.35 478.57C471.82 478.74 471.31 478.9 470.79 479.06C470.05 479.3 469.31 479.53 468.59 479.74C467.33 480.12 466.13 480.48 464.95 480.82C464.49 480.95 464.03 481.08 463.59 481.21C462.18 481.62 460.82 481.99 459.56 482.33C458.98 482.49 458.42 482.64 457.87 482.79C457.34 482.93 456.83 483.06 456.33 483.19C452.77 484.12 450.03 484.74 448.33 485.12L447.37 482.3C453.82 480.89 479.54 474.81 507.26 461.85L507.25 461.86Z" fill="#555451"/>
<path d="M421.27 348.27C422.32 347.96 423.41 347.64 424.53 347.29C423.42 347.63 422.33 347.96 421.27 348.27Z" fill="#555451"/>
<path d="M459.21 320.93L463.16 332.52C460.63 333.7 458.13 334.82 455.65 335.89C454.69 336.31 453.73 336.71 452.78 337.1C452.3 337.3 451.83 337.5 451.35 337.69C450.83 337.91 450.3 338.12 449.78 338.33C449.18 338.58 448.57 338.82 447.98 339.06C447.7 339.17 447.42 339.28 447.14 339.39C445.56 340.02 444 340.61 442.46 341.19C442.19 341.29 441.93 341.39 441.66 341.49C436.55 343.39 431.72 345.03 427.28 346.43C427.2 346.46 427.13 346.48 427.06 346.5C426.21 346.77 425.36 347.03 424.53 347.29C423.42 347.63 422.33 347.96 421.27 348.27C420.76 348.42 420.26 348.56 419.77 348.71C419.07 348.91 418.39 349.11 417.73 349.29C416.59 349.61 415.49 349.91 414.46 350.19C413.33 350.49 412.27 350.77 411.28 351.03C407.61 351.97 404.86 352.6 403.27 352.95L399.32 341.37C401.02 340.99 403.76 340.36 407.32 339.44C407.82 339.31 408.33 339.18 408.86 339.04C409.41 338.89 409.97 338.74 410.55 338.59C411.82 338.25 413.17 337.88 414.58 337.47C415.03 337.34 415.48 337.21 415.94 337.08C417.11 336.74 418.32 336.38 419.57 336C420.3 335.79 421.03 335.56 421.78 335.32C422.29 335.16 422.81 335 423.33 334.83C424.15 334.58 424.98 334.31 425.82 334.03C427.14 333.61 428.48 333.16 429.85 332.69C432.96 331.63 436.21 330.46 439.57 329.19C439.85 329.09 440.13 328.97 440.41 328.87C441.32 328.53 442.25 328.16 443.17 327.8C444.06 327.46 444.94 327.11 445.84 326.74C445.96 326.7 446.07 326.65 446.19 326.6C446.89 326.32 447.59 326.03 448.29 325.74C448.72 325.57 449.16 325.39 449.59 325.2C450.28 324.91 450.98 324.62 451.69 324.32C454.17 323.26 456.67 322.13 459.2 320.96L459.21 320.93Z" fill="#BEBBBF"/>
<path d="M451.7 324.29L455.65 335.89C454.69 336.31 453.73 336.71 452.78 337.1C452.3 337.3 451.83 337.5 451.35 337.69C450.83 337.91 450.3 338.12 449.78 338.33C449.18 338.58 448.57 338.82 447.98 339.06C447.7 339.17 447.42 339.28 447.14 339.39C445.56 340.02 444 340.61 442.46 341.19C442.19 341.29 441.93 341.39 441.66 341.49C436.55 343.39 431.72 345.03 427.28 346.43C427.2 346.46 427.13 346.48 427.06 346.5C426.21 346.77 425.36 347.03 424.53 347.29C423.41 347.64 422.33 347.96 421.27 348.27C420.76 348.42 420.26 348.56 419.77 348.71C419.07 348.91 418.39 349.11 417.73 349.29C416.59 349.61 415.49 349.91 414.46 350.19C413.33 350.49 412.27 350.77 411.28 351.03L407.33 339.44C407.83 339.31 408.34 339.18 408.87 339.04C409.42 338.89 409.98 338.74 410.56 338.59C411.83 338.25 413.18 337.88 414.59 337.47C415.04 337.34 415.49 337.21 415.95 337.08C417.12 336.74 418.33 336.38 419.58 336C420.31 335.79 421.04 335.56 421.79 335.32C422.3 335.16 422.82 335 423.34 334.83C424.16 334.58 424.99 334.31 425.83 334.03C427.15 333.61 428.49 333.16 429.86 332.69C432.97 331.63 436.22 330.46 439.58 329.19C439.86 329.09 440.14 328.97 440.42 328.87C441.33 328.53 442.26 328.16 443.18 327.8C444.07 327.46 444.95 327.11 445.85 326.74C445.97 326.7 446.08 326.65 446.2 326.6C446.9 326.32 447.6 326.03 448.3 325.74C448.73 325.57 449.17 325.39 449.6 325.2C450.29 324.91 450.99 324.62 451.7 324.32V324.29Z" fill="#F3EFF5"/>
<path d="M451.7 324.29L455.65 335.89C454.69 336.31 453.73 336.71 452.78 337.1C452.3 337.3 451.83 337.5 451.35 337.69C450.83 337.91 450.3 338.12 449.78 338.33C449.18 338.58 448.57 338.82 447.98 339.06C447.7 339.17 447.42 339.28 447.14 339.39C445.56 340.02 444 340.61 442.46 341.19C442.19 341.29 441.93 341.39 441.66 341.49C436.55 343.39 431.72 345.03 427.28 346.43C427.2 346.46 427.13 346.48 427.06 346.5C426.21 346.77 425.36 347.03 424.53 347.29C423.41 347.64 422.33 347.96 421.27 348.27C420.76 348.42 420.26 348.56 419.77 348.71C419.07 348.91 418.39 349.11 417.73 349.29C416.59 349.61 415.49 349.91 414.46 350.19C413.33 350.49 412.27 350.77 411.28 351.03L407.33 339.44C407.83 339.31 408.34 339.18 408.87 339.04C409.42 338.89 409.98 338.74 410.56 338.59C411.83 338.25 413.18 337.88 414.59 337.47C415.04 337.34 415.49 337.21 415.95 337.08C417.12 336.74 418.33 336.38 419.58 336C420.31 335.79 421.04 335.56 421.79 335.32C422.3 335.16 422.82 335 423.34 334.83C424.16 334.58 424.99 334.31 425.83 334.03C427.15 333.61 428.49 333.16 429.86 332.69C432.97 331.63 436.22 330.46 439.58 329.19C439.86 329.09 440.14 328.97 440.42 328.87C441.33 328.53 442.26 328.16 443.18 327.8C444.07 327.46 444.95 327.11 445.85 326.74C445.97 326.7 446.08 326.65 446.2 326.6C446.9 326.32 447.6 326.03 448.3 325.74C448.73 325.57 449.17 325.39 449.6 325.2C450.29 324.91 450.99 324.62 451.7 324.32V324.29Z" fill="#F3EFF5"/>
<path d="M455.65 335.89C458.13 334.82 460.63 333.69 463.16 332.52L464.12 335.33C453.76 340.15 443.68 344.04 434.77 347.08C420.16 352.06 408.68 354.8 404.23 355.77L403.27 352.95C404.85 352.6 407.61 351.97 411.28 351.03C412.28 350.77 413.34 350.49 414.46 350.19C415.5 349.91 416.59 349.61 417.73 349.28C418.39 349.1 419.08 348.89 419.77 348.7C420.26 348.56 420.76 348.41 421.27 348.26C422.32 347.95 423.41 347.63 424.53 347.28C425.36 347.02 426.21 346.76 427.06 346.49C427.13 346.47 427.2 346.45 427.27 346.42C431.7 345.01 436.54 343.37 441.65 341.48C441.92 341.37 442.18 341.28 442.45 341.18C443.99 340.61 445.54 340.01 447.12 339.39C447.41 339.28 447.69 339.17 447.96 339.06C448.56 338.82 449.16 338.58 449.77 338.33C450.3 338.12 450.82 337.91 451.34 337.69C451.81 337.5 452.29 337.3 452.77 337.1C453.72 336.7 454.68 336.3 455.64 335.88L455.65 335.89Z" fill="#555451"/>
<path d="M458.25 318.11L459.21 320.93C456.68 322.1 454.18 323.23 451.7 324.29C451 324.6 450.3 324.89 449.6 325.18C449.17 325.36 448.73 325.55 448.3 325.72C447.6 326.02 446.9 326.3 446.2 326.58C446.08 326.64 445.97 326.68 445.85 326.72C444.95 327.09 444.06 327.44 443.18 327.79C442.25 328.15 441.34 328.51 440.42 328.86C440.14 328.96 439.86 329.08 439.58 329.18C436.23 330.45 432.97 331.62 429.86 332.68C428.49 333.15 427.15 333.6 425.84 334.02C424.99 334.29 424.16 334.56 423.35 334.82C422.82 334.99 422.31 335.15 421.79 335.31C421.05 335.55 420.31 335.78 419.59 335.99C418.33 336.37 417.13 336.73 415.95 337.07C415.49 337.2 415.03 337.33 414.59 337.46C413.18 337.87 411.82 338.24 410.56 338.58C409.98 338.74 409.42 338.89 408.87 339.04C408.34 339.18 407.83 339.31 407.33 339.44C403.77 340.37 401.03 340.99 399.33 341.37L398.37 338.55C404.82 337.14 430.54 331.06 458.26 318.1L458.25 318.11Z" fill="#555451"/>
<path d="M402.1 292.02C403.15 291.71 404.24 291.39 405.36 291.04C404.25 291.38 403.16 291.71 402.1 292.02Z" fill="#555451"/>
<path d="M440.04 264.68L443.99 276.27C441.46 277.45 438.96 278.57 436.48 279.64C435.52 280.06 434.56 280.46 433.61 280.85C433.13 281.05 432.66 281.25 432.18 281.44C431.66 281.66 431.13 281.87 430.61 282.08C430.01 282.33 429.4 282.57 428.81 282.81C428.53 282.92 428.25 283.03 427.97 283.14C426.39 283.77 424.83 284.36 423.29 284.94C423.02 285.04 422.76 285.14 422.49 285.24C417.38 287.14 412.55 288.78 408.11 290.18C408.03 290.21 407.96 290.23 407.89 290.25C407.04 290.52 406.19 290.78 405.36 291.04C404.25 291.38 403.16 291.71 402.1 292.02C401.59 292.17 401.09 292.31 400.6 292.46C399.9 292.66 399.22 292.86 398.56 293.04C397.42 293.36 396.32 293.66 395.29 293.94C394.16 294.24 393.1 294.52 392.11 294.78C388.44 295.72 385.69 296.35 384.1 296.7L380.15 285.12C381.85 284.74 384.59 284.11 388.15 283.19C388.65 283.06 389.16 282.93 389.69 282.79C390.24 282.64 390.8 282.49 391.38 282.34C392.65 282 394 281.63 395.41 281.22C395.86 281.09 396.31 280.96 396.77 280.83C397.94 280.49 399.15 280.13 400.4 279.75C401.13 279.54 401.86 279.31 402.61 279.07C403.12 278.91 403.64 278.75 404.16 278.58C404.98 278.33 405.81 278.06 406.65 277.78C407.97 277.36 409.31 276.91 410.68 276.44C413.79 275.38 417.04 274.21 420.4 272.94C420.68 272.84 420.96 272.72 421.24 272.62C422.15 272.28 423.08 271.91 424 271.55C424.89 271.21 425.77 270.86 426.67 270.49C426.79 270.45 426.9 270.4 427.02 270.35C427.72 270.07 428.42 269.78 429.12 269.49C429.55 269.32 429.99 269.14 430.42 268.95C431.11 268.66 431.81 268.37 432.52 268.07C435 267.01 437.5 265.88 440.03 264.71L440.04 264.68Z" fill="#BEBBBF"/>
<path d="M432.53 268.05L436.48 279.65C435.52 280.07 434.56 280.47 433.61 280.86C433.13 281.06 432.66 281.26 432.18 281.45C431.66 281.67 431.13 281.88 430.61 282.09C430.01 282.34 429.4 282.58 428.81 282.82C428.53 282.93 428.25 283.04 427.97 283.15C426.39 283.78 424.83 284.37 423.29 284.95C423.02 285.05 422.76 285.15 422.49 285.25C417.38 287.15 412.55 288.79 408.11 290.19C408.03 290.22 407.96 290.24 407.89 290.26C407.04 290.53 406.19 290.79 405.36 291.05C404.24 291.4 403.16 291.72 402.1 292.03C401.59 292.18 401.09 292.32 400.6 292.47C399.9 292.67 399.22 292.87 398.56 293.05C397.42 293.37 396.32 293.67 395.29 293.95C394.16 294.25 393.1 294.53 392.11 294.79L388.16 283.2C388.66 283.07 389.17 282.94 389.7 282.8C390.25 282.65 390.81 282.5 391.39 282.35C392.66 282.01 394.01 281.64 395.42 281.23C395.87 281.1 396.32 280.97 396.78 280.84C397.95 280.5 399.16 280.14 400.41 279.76C401.14 279.55 401.87 279.32 402.62 279.08C403.13 278.92 403.65 278.76 404.17 278.59C404.99 278.34 405.82 278.07 406.66 277.79C407.98 277.37 409.32 276.92 410.69 276.45C413.8 275.39 417.05 274.22 420.41 272.95C420.69 272.85 420.97 272.73 421.25 272.63C422.16 272.29 423.09 271.92 424.01 271.56C424.9 271.22 425.78 270.87 426.68 270.5C426.8 270.46 426.91 270.41 427.03 270.36C427.73 270.08 428.43 269.79 429.13 269.5C429.56 269.33 430 269.15 430.43 268.96C431.12 268.67 431.82 268.38 432.53 268.08V268.05Z" fill="#F3EFF5"/>
<path d="M432.53 268.05L436.48 279.65C435.52 280.07 434.56 280.47 433.61 280.86C433.13 281.06 432.66 281.26 432.18 281.45C431.66 281.67 431.13 281.88 430.61 282.09C430.01 282.34 429.4 282.58 428.81 282.82C428.53 282.93 428.25 283.04 427.97 283.15C426.39 283.78 424.83 284.37 423.29 284.95C423.02 285.05 422.76 285.15 422.49 285.25C417.38 287.15 412.55 288.79 408.11 290.19C408.03 290.22 407.96 290.24 407.89 290.26C407.04 290.53 406.19 290.79 405.36 291.05C404.24 291.4 403.16 291.72 402.1 292.03C401.59 292.18 401.09 292.32 400.6 292.47C399.9 292.67 399.22 292.87 398.56 293.05C397.42 293.37 396.32 293.67 395.29 293.95C394.16 294.25 393.1 294.53 392.11 294.79L388.16 283.2C388.66 283.07 389.17 282.94 389.7 282.8C390.25 282.65 390.81 282.5 391.39 282.35C392.66 282.01 394.01 281.64 395.42 281.23C395.87 281.1 396.32 280.97 396.78 280.84C397.95 280.5 399.16 280.14 400.41 279.76C401.14 279.55 401.87 279.32 402.62 279.08C403.13 278.92 403.65 278.76 404.17 278.59C404.99 278.34 405.82 278.07 406.66 277.79C407.98 277.37 409.32 276.92 410.69 276.45C413.8 275.39 417.05 274.22 420.41 272.95C420.69 272.85 420.97 272.73 421.25 272.63C422.16 272.29 423.09 271.92 424.01 271.56C424.9 271.22 425.78 270.87 426.68 270.5C426.8 270.46 426.91 270.41 427.03 270.36C427.73 270.08 428.43 269.79 429.13 269.5C429.56 269.33 430 269.15 430.43 268.96C431.12 268.67 431.82 268.38 432.53 268.08V268.05Z" fill="#F3EFF5"/>
<path d="M436.48 279.64C438.96 278.57 441.46 277.44 443.99 276.27L444.95 279.08C434.59 283.9 424.51 287.79 415.6 290.83C400.99 295.81 389.51 298.55 385.06 299.52L384.1 296.7C385.68 296.35 388.44 295.72 392.11 294.78C393.11 294.52 394.17 294.24 395.29 293.94C396.33 293.66 397.42 293.36 398.56 293.03C399.22 292.85 399.91 292.64 400.6 292.45C401.09 292.31 401.59 292.16 402.1 292.01C403.15 291.7 404.24 291.38 405.36 291.03C406.19 290.77 407.04 290.51 407.89 290.24C407.96 290.22 408.03 290.2 408.1 290.17C412.53 288.76 417.37 287.12 422.48 285.23C422.75 285.12 423.01 285.03 423.28 284.93C424.82 284.36 426.37 283.76 427.95 283.14C428.24 283.03 428.52 282.92 428.79 282.81C429.39 282.57 429.99 282.33 430.6 282.08C431.13 281.87 431.65 281.66 432.17 281.44C432.64 281.25 433.12 281.05 433.6 280.85C434.55 280.45 435.51 280.05 436.47 279.63L436.48 279.64Z" fill="#555451"/>
<path d="M439.08 261.87L440.04 264.69C437.51 265.86 435.01 266.99 432.53 268.05C431.83 268.36 431.13 268.65 430.43 268.94C430 269.12 429.56 269.31 429.13 269.48C428.43 269.78 427.73 270.06 427.03 270.34C426.91 270.4 426.8 270.44 426.68 270.48C425.78 270.85 424.89 271.2 424.01 271.55C423.08 271.91 422.17 272.27 421.25 272.62C420.97 272.72 420.69 272.84 420.41 272.94C417.06 274.21 413.8 275.38 410.69 276.44C409.32 276.91 407.98 277.36 406.67 277.78C405.82 278.05 404.99 278.32 404.18 278.58C403.65 278.75 403.14 278.91 402.62 279.07C401.88 279.31 401.14 279.54 400.42 279.75C399.16 280.13 397.96 280.49 396.78 280.83C396.32 280.96 395.86 281.09 395.42 281.22C394.01 281.63 392.65 282 391.39 282.34C390.81 282.5 390.25 282.65 389.7 282.8C389.17 282.94 388.66 283.07 388.16 283.2C384.6 284.13 381.86 284.75 380.16 285.13L379.2 282.31C385.65 280.9 411.37 274.82 439.09 261.86L439.08 261.87Z" fill="#555451"/>
<path d="M437.96 397.21C439.01 396.9 440.1 396.58 441.22 396.23C440.11 396.57 439.02 396.9 437.96 397.21Z" fill="#555451"/>
<path d="M475.89 369.87L479.84 381.46C477.31 382.64 474.81 383.76 472.33 384.83C471.37 385.25 470.41 385.65 469.46 386.04C468.98 386.24 468.51 386.44 468.03 386.63C467.51 386.85 466.98 387.06 466.46 387.27C465.86 387.52 465.25 387.76 464.66 388C464.38 388.11 464.1 388.22 463.82 388.33C462.24 388.96 460.68 389.55 459.14 390.13C458.87 390.23 458.61 390.33 458.34 390.43C453.23 392.33 448.4 393.97 443.96 395.37C443.88 395.4 443.81 395.42 443.74 395.44C442.89 395.71 442.04 395.97 441.21 396.23C440.1 396.57 439.01 396.9 437.95 397.21C437.44 397.36 436.94 397.5 436.45 397.65C435.75 397.85 435.07 398.05 434.41 398.23C433.27 398.55 432.17 398.85 431.14 399.13C430.01 399.43 428.95 399.71 427.96 399.97C424.29 400.91 421.54 401.54 419.95 401.89L416 390.31C417.7 389.93 420.44 389.3 424 388.38C424.5 388.25 425.01 388.12 425.54 387.98C426.09 387.83 426.65 387.68 427.23 387.53C428.5 387.19 429.85 386.82 431.26 386.41C431.71 386.28 432.16 386.15 432.62 386.02C433.79 385.68 435 385.32 436.25 384.94C436.98 384.73 437.71 384.5 438.46 384.26C438.97 384.1 439.49 383.94 440.01 383.77C440.83 383.52 441.66 383.25 442.5 382.97C443.82 382.55 445.16 382.1 446.53 381.63C449.64 380.57 452.89 379.4 456.25 378.13C456.53 378.03 456.81 377.91 457.09 377.81C458 377.47 458.93 377.1 459.85 376.74C460.74 376.4 461.62 376.05 462.52 375.68C462.64 375.64 462.75 375.59 462.87 375.54C463.57 375.26 464.27 374.97 464.97 374.68C465.4 374.51 465.84 374.33 466.27 374.14C466.96 373.85 467.66 373.56 468.37 373.26C470.85 372.2 473.35 371.07 475.88 369.9L475.89 369.87Z" fill="#BEBBBF"/>
<path d="M468.38 373.23L472.33 384.83C471.37 385.25 470.41 385.65 469.46 386.04C468.98 386.24 468.51 386.44 468.03 386.63C467.51 386.85 466.98 387.06 466.46 387.27C465.86 387.52 465.25 387.76 464.66 388C464.38 388.11 464.1 388.22 463.82 388.33C462.24 388.96 460.68 389.55 459.14 390.13C458.87 390.23 458.61 390.33 458.34 390.43C453.23 392.33 448.4 393.97 443.96 395.37C443.88 395.4 443.81 395.42 443.74 395.44C442.89 395.71 442.04 395.97 441.21 396.23C440.09 396.58 439.01 396.9 437.95 397.21C437.44 397.36 436.94 397.5 436.45 397.65C435.75 397.85 435.07 398.05 434.41 398.23C433.27 398.55 432.17 398.85 431.14 399.13C430.01 399.43 428.95 399.71 427.96 399.97L424.01 388.38C424.51 388.25 425.02 388.12 425.55 387.98C426.1 387.83 426.66 387.68 427.24 387.53C428.51 387.19 429.86 386.82 431.27 386.41C431.72 386.28 432.17 386.15 432.63 386.02C433.8 385.68 435.01 385.32 436.26 384.94C436.99 384.73 437.72 384.5 438.47 384.26C438.98 384.1 439.5 383.94 440.02 383.77C440.84 383.52 441.67 383.25 442.51 382.97C443.83 382.55 445.17 382.1 446.54 381.63C449.65 380.57 452.9 379.4 456.26 378.13C456.54 378.03 456.82 377.91 457.1 377.81C458.01 377.47 458.94 377.1 459.86 376.74C460.75 376.4 461.63 376.05 462.53 375.68C462.65 375.64 462.76 375.59 462.88 375.54C463.58 375.26 464.28 374.97 464.98 374.68C465.41 374.51 465.85 374.33 466.28 374.14C466.97 373.85 467.67 373.56 468.38 373.26V373.23Z" fill="#F3EFF5"/>
<path d="M468.38 373.23L472.33 384.83C471.37 385.25 470.41 385.65 469.46 386.04C468.98 386.24 468.51 386.44 468.03 386.63C467.51 386.85 466.98 387.06 466.46 387.27C465.86 387.52 465.25 387.76 464.66 388C464.38 388.11 464.1 388.22 463.82 388.33C462.24 388.96 460.68 389.55 459.14 390.13C458.87 390.23 458.61 390.33 458.34 390.43C453.23 392.33 448.4 393.97 443.96 395.37C443.88 395.4 443.81 395.42 443.74 395.44C442.89 395.71 442.04 395.97 441.21 396.23C440.09 396.58 439.01 396.9 437.95 397.21C437.44 397.36 436.94 397.5 436.45 397.65C435.75 397.85 435.07 398.05 434.41 398.23C433.27 398.55 432.17 398.85 431.14 399.13C430.01 399.43 428.95 399.71 427.96 399.97L424.01 388.38C424.51 388.25 425.02 388.12 425.55 387.98C426.1 387.83 426.66 387.68 427.24 387.53C428.51 387.19 429.86 386.82 431.27 386.41C431.72 386.28 432.17 386.15 432.63 386.02C433.8 385.68 435.01 385.32 436.26 384.94C436.99 384.73 437.72 384.5 438.47 384.26C438.98 384.1 439.5 383.94 440.02 383.77C440.84 383.52 441.67 383.25 442.51 382.97C443.83 382.55 445.17 382.1 446.54 381.63C449.65 380.57 452.9 379.4 456.26 378.13C456.54 378.03 456.82 377.91 457.1 377.81C458.01 377.47 458.94 377.1 459.86 376.74C460.75 376.4 461.63 376.05 462.53 375.68C462.65 375.64 462.76 375.59 462.88 375.54C463.58 375.26 464.28 374.97 464.98 374.68C465.41 374.51 465.85 374.33 466.28 374.14C466.97 373.85 467.67 373.56 468.38 373.26V373.23Z" fill="#F3EFF5"/>
<path d="M472.33 384.83C474.81 383.76 477.31 382.63 479.84 381.46L480.8 384.27C470.44 389.09 460.36 392.98 451.45 396.02C436.84 401 425.36 403.74 420.91 404.71L419.95 401.89C421.53 401.54 424.29 400.91 427.96 399.97C428.96 399.71 430.02 399.43 431.14 399.13C432.18 398.85 433.27 398.55 434.41 398.22C435.07 398.04 435.76 397.83 436.45 397.64C436.94 397.5 437.44 397.35 437.95 397.2C439 396.89 440.09 396.57 441.21 396.22C442.04 395.96 442.89 395.7 443.74 395.43C443.81 395.41 443.88 395.39 443.95 395.36C448.38 393.95 453.22 392.31 458.33 390.42C458.6 390.31 458.86 390.22 459.13 390.12C460.67 389.55 462.22 388.95 463.8 388.33C464.09 388.22 464.37 388.11 464.64 388C465.24 387.76 465.84 387.52 466.45 387.27C466.98 387.06 467.5 386.85 468.02 386.63C468.49 386.44 468.97 386.24 469.45 386.04C470.4 385.64 471.36 385.24 472.32 384.82L472.33 384.83Z" fill="#555451"/>
<path d="M474.93 367.05L475.89 369.87C473.36 371.04 470.86 372.17 468.38 373.23C467.68 373.54 466.98 373.83 466.28 374.12C465.85 374.3 465.41 374.49 464.98 374.66C464.28 374.96 463.58 375.24 462.88 375.52C462.76 375.58 462.65 375.62 462.53 375.66C461.63 376.03 460.74 376.38 459.86 376.73C458.93 377.09 458.02 377.45 457.1 377.8C456.82 377.9 456.54 378.02 456.26 378.12C452.91 379.39 449.65 380.56 446.54 381.62C445.17 382.09 443.83 382.54 442.52 382.96C441.67 383.23 440.84 383.5 440.03 383.76C439.5 383.93 438.99 384.09 438.47 384.25C437.73 384.49 436.99 384.72 436.27 384.93C435.01 385.31 433.81 385.67 432.63 386.01C432.17 386.14 431.71 386.27 431.27 386.4C429.86 386.81 428.5 387.18 427.24 387.52C426.66 387.68 426.1 387.83 425.55 387.98C425.02 388.12 424.51 388.25 424.01 388.38C420.45 389.31 417.71 389.93 416.01 390.31L415.05 387.49C421.5 386.08 447.22 380 474.94 367.04L474.93 367.05Z" fill="#555451"/>
<path d="M375.245 270.79L367.426 273.454L454.346 528.489L462.165 525.825L375.245 270.79Z" fill="#555451"/>
<path d="M442.969 247.707L435.15 250.372L522.07 505.407L529.889 502.742L442.969 247.707Z" fill="#555451"/>
</svg>
