<svg width="620" height="1074" viewBox="0 0 620 1074" fill="none" xmlns="http://www.w3.org/2000/svg">
<path d="M476.15 381.11C475.85 381.17 475.56 381.23 475.27 381.29C454.46 385.53 437.48 394.81 426.88 401.87C426.64 402.03 426.41 402.19 426.19 402.34C425.7 402.49 425.19 402.57 424.69 402.57C423.05 402.57 421.44 401.78 420.46 400.32C418.89 397.98 419.51 394.82 421.84 393.25L423.54 392.11C433.89 385.31 450.43 376.34 470.65 372.09C471.34 371.96 472 371.82 472.67 371.7C475.43 371.18 478.09 373 478.61 375.77C479.02 377.95 477.97 380.07 476.15 381.12V381.11Z" fill="#9FA7C4"/>
<path d="M481.4 389.81C481.1 389.81 480.79 389.85 480.49 389.91L480.36 389.93C479.76 390.06 479.17 390.17 478.61 390.3C458.14 394.68 441.52 403.84 431.17 410.76L430.91 410.93C430.42 411.26 429.95 411.57 429.5 411.9C429.39 411.98 429.3 412.05 429.2 412.14C428.86 412.21 428.52 412.25 428.18 412.25C426.56 412.25 424.99 411.49 424 410.08C422.39 407.77 422.95 404.6 425.26 402.98C425.56 402.77 425.87 402.57 426.18 402.35C426.4 402.2 426.63 402.04 426.87 401.88C437.48 394.82 454.46 385.54 475.26 381.3C475.56 381.23 475.85 381.18 476.14 381.12C476.49 381.05 476.82 380.99 477.18 380.92C479.94 380.39 482.6 382.2 483.13 384.97C483.49 386.85 482.76 388.69 481.39 389.83L481.4 389.81Z" fill="#9FA7C4"/>
<path d="M482.48 399.88L482.35 399.91C481.82 400.02 481.28 400.12 480.76 400.24C461.85 404.29 446.43 412.79 436.84 419.2L436.57 419.38C436.18 419.64 435.79 419.9 435.43 420.16C434.54 420.8 433.5 421.11 432.47 421.11C430.88 421.11 429.33 420.38 428.34 418.99C426.77 416.82 427.18 413.82 429.21 412.13C429.31 412.04 429.4 411.97 429.51 411.89C429.96 411.56 430.43 411.25 430.92 410.92L431.18 410.75C441.53 403.83 458.15 394.67 478.62 390.29C479.18 390.16 479.77 390.05 480.37 389.92L480.5 389.9C480.81 389.84 481.12 389.81 481.41 389.8C483.82 389.76 486 391.43 486.49 393.89C487.04 396.65 485.25 399.33 482.5 399.88H482.48Z" fill="#9FA7C4"/>
<path d="M436.84 419.2L436.57 419.38C436.18 419.64 435.79 419.9 435.43 420.16C435.17 420.34 434.9 420.51 434.62 420.63C433.94 420.96 433.2 421.11 432.47 421.11C430.88 421.11 429.33 420.38 428.34 418.99C426.77 416.82 427.18 413.82 429.21 412.13C428.87 412.2 428.53 412.24 428.19 412.24C426.57 412.24 425 411.48 424.01 410.07C422.4 407.76 422.96 404.59 425.27 402.97C425.5 402.81 425.73 402.65 425.97 402.49C426.05 402.44 426.11 402.38 426.19 402.34C426.1 402.37 426.02 402.39 425.93 402.41C425.53 402.53 425.1 402.57 424.69 402.57C423.05 402.57 421.44 401.78 420.46 400.32C418.89 397.98 419.51 394.82 421.84 393.25L423.54 392.11C423.7 391.99 423.88 391.89 424.05 391.78C426.72 390.03 429.79 388.16 433.21 386.26C434.06 395.95 435.27 407.69 436.84 419.2V419.2Z" fill="#848BA3"/>
<path d="M482.71 399.83C482.64 399.86 482.57 399.87 482.49 399.89L482.36 399.92C481.83 400.03 481.29 400.13 480.77 400.25C478.74 400.68 476.76 401.16 474.82 401.69C474.45 399.54 474.09 397.48 473.74 395.55C472.19 386.83 465.58 379.91 459.19 375.1C462.85 373.95 466.68 372.94 470.65 372.1C470.8 372.07 470.96 372.04 471.11 372C471.64 371.9 472.15 371.8 472.67 371.7C475.43 371.18 478.09 373 478.61 375.77C479.02 377.95 477.97 380.07 476.15 381.12C476.5 381.05 476.83 380.99 477.19 380.92C479.95 380.39 482.61 382.2 483.14 384.97C483.5 386.85 482.77 388.69 481.4 389.83C483.81 389.79 485.99 391.46 486.48 393.92C487.01 396.6 485.34 399.22 482.71 399.85V399.83Z" fill="#848BA3"/>
<path d="M424.68 403.07C422.81 403.07 421.07 402.15 420.03 400.6C418.31 398.04 418.99 394.56 421.55 392.84L423.25 391.7C433.62 384.89 450.23 375.88 470.54 371.61L471.29 371.46C471.72 371.37 472.14 371.29 472.57 371.21C474.04 370.93 475.52 371.25 476.76 372.09C477.99 372.93 478.82 374.21 479.1 375.68C479.54 378.01 478.45 380.37 476.4 381.55L476.25 381.61C475.96 381.67 475.67 381.72 475.38 381.79C454.63 386.02 437.7 395.27 427.15 402.29L426.33 402.82C425.79 402.99 425.24 403.07 424.68 403.07ZM473.62 372.11C473.34 372.11 473.05 372.14 472.76 372.19C472.33 372.27 471.91 372.35 471.49 372.44L470.75 372.59C450.6 376.82 434.11 385.77 423.82 392.54L422.12 393.68C420.02 395.09 419.46 397.95 420.87 400.05C421.96 401.68 424.07 402.45 425.97 401.89L426.6 401.46C437.23 394.39 454.28 385.07 475.17 380.81C475.44 380.75 475.7 380.7 475.97 380.64C477.61 379.65 478.48 377.74 478.12 375.86C477.89 374.65 477.21 373.61 476.2 372.91C475.43 372.38 474.53 372.11 473.62 372.11V372.11Z" fill="#676D80"/>
<path d="M428.18 412.74C426.35 412.74 424.63 411.85 423.59 410.35C421.83 407.82 422.45 404.32 424.97 402.56C425.14 402.44 425.31 402.32 425.48 402.21L426.59 401.45C437.22 394.38 454.27 385.06 475.16 380.8C475.45 380.73 475.75 380.68 476.05 380.62L477.09 380.42C478.56 380.14 480.04 380.45 481.28 381.28C482.51 382.12 483.35 383.39 483.63 384.86C484.01 386.86 483.28 388.91 481.72 390.2L481.59 390.31H481.42C481.13 390.32 480.84 390.35 480.58 390.4L479.83 390.55C479.45 390.63 479.08 390.7 478.73 390.78C458.3 395.15 441.75 404.28 431.46 411.17L431.2 411.34C430.72 411.66 430.25 411.98 429.8 412.3C429.71 412.37 429.63 412.43 429.54 412.51L429.44 412.6L429.31 412.63C428.93 412.71 428.55 412.75 428.19 412.75L428.18 412.74ZM478.15 381.31C477.86 381.31 477.57 381.34 477.28 381.39L476.24 381.59C475.95 381.65 475.66 381.7 475.37 381.77C454.62 386 437.69 395.25 427.14 402.27L426.04 403.02C425.87 403.14 425.7 403.25 425.54 403.36C423.46 404.81 422.95 407.68 424.4 409.76C425.26 410.99 426.67 411.72 428.17 411.72C428.42 411.72 428.69 411.7 428.96 411.65C429.03 411.59 429.11 411.53 429.19 411.47C429.65 411.14 430.12 410.82 430.62 410.49L430.88 410.32C441.24 403.39 457.92 394.19 478.49 389.79C478.85 389.71 479.22 389.63 479.61 389.55L480.4 389.4C480.65 389.35 480.92 389.32 481.2 389.31C482.39 388.25 482.94 386.63 482.64 385.04C482.41 383.83 481.72 382.79 480.71 382.1C479.94 381.58 479.05 381.31 478.15 381.31V381.31Z" fill="#676D80"/>
<path d="M432.47 421.61C430.66 421.61 428.97 420.74 427.93 419.27C426.23 416.91 426.64 413.6 428.88 411.74C428.97 411.65 429.08 411.57 429.2 411.48C429.66 411.15 430.13 410.83 430.63 410.5L430.89 410.33C441.25 403.4 457.93 394.2 478.5 389.8C478.86 389.72 479.23 389.64 479.62 389.56L480.41 389.41C480.71 389.35 481.04 389.32 481.38 389.31C484.09 389.27 486.43 391.15 486.96 393.8C487.56 396.82 485.6 399.77 482.58 400.38L482.3 400.44C481.82 400.54 481.33 400.63 480.86 400.74C462.03 404.77 446.67 413.24 437.11 419.63L436.84 419.81C436.45 420.07 436.07 420.33 435.7 420.58C434.75 421.26 433.63 421.62 432.45 421.62L432.47 421.61ZM481.48 390.3C481.48 390.3 481.43 390.3 481.41 390.3C481.12 390.3 480.84 390.34 480.58 390.39L479.83 390.54C479.45 390.62 479.08 390.69 478.73 390.77C458.3 395.14 441.75 404.27 431.46 411.16L431.2 411.33C430.72 411.65 430.25 411.97 429.8 412.29C429.71 412.36 429.63 412.42 429.54 412.5C427.69 414.04 427.35 416.75 428.75 418.69C429.62 419.91 430.97 420.61 432.48 420.61C433.45 420.61 434.37 420.31 435.15 419.75C435.52 419.49 435.91 419.22 436.31 418.96L436.57 418.78C446.21 412.34 461.68 403.81 480.67 399.74C481.14 399.64 481.64 399.54 482.12 399.44L482.39 399.38C484.87 398.89 486.48 396.46 485.99 393.98C485.56 391.83 483.67 390.3 481.49 390.3H481.48Z" fill="#676D80"/>
</svg>
