<svg width="620" height="1074" viewBox="0 0 620 1074" fill="none" xmlns="http://www.w3.org/2000/svg">
<path d="M303.8 586.93V586.99L303.63 586.95C303.69 586.95 303.74 586.94 303.8 586.93Z" fill="#C4A996"/>
<path d="M304.05 570.87C304.05 570.87 304.06 570.97 304.05 571.02C303.91 570.99 303.78 570.95 303.64 570.92C303.78 570.91 303.92 570.89 304.05 570.87Z" fill="#C4A996"/>
<path d="M267.62 894.26C267.7 893.72 267.77 893.16 267.84 892.6C267.76 893.2 267.69 893.75 267.62 894.26Z" fill="#C4A996"/>
<path d="M281.43 830.61L215.33 831.15C214.34 823.89 213.67 816.8 213.67 810.91C213.67 807.46 213.89 803.63 214.26 799.6L279.67 799.07C280.1 801.39 280.43 804.05 280.71 807.31C281.21 813.11 281.53 822.16 281.43 830.61V830.61Z" fill="#F3EFF5"/>
<path d="M281.43 830.62C281.38 834.87 281.23 838.97 280.94 842.41C280.81 843.96 280.65 845.39 280.47 846.63C279.91 850.34 278.57 854.16 277.02 858.57C276.61 859.73 276.19 860.94 275.75 862.21L220.92 862.66C219.67 856.57 218.08 848.55 216.7 840.2C216.21 837.21 215.74 834.17 215.33 831.16L281.43 830.62V830.62Z" fill="#F3EFF5"/>
<path d="M275.75 862.22C273.39 869.12 270.8 877.75 269.15 890.36C268.99 891.55 268.84 892.71 268.68 893.84L256.94 893.94L226.59 894.18C225.03 884.84 223.51 875.77 222.84 872.14C222.83 872.09 222.82 872.03 222.81 871.99C222.59 870.77 222.2 868.88 221.7 866.48C221.46 865.32 221.2 864.04 220.92 862.67L275.75 862.22V862.22Z" fill="#F3EFF5"/>
<path d="M267.3 903.45C265.93 912.72 264.94 919.44 265.19 925.43L231.89 925.7C231.72 924.64 231.54 923.6 231.37 922.61C231.34 922.43 231.31 922.27 231.28 922.1C231.17 921.43 231.05 920.78 230.94 920.16L230.79 919.34C230.31 916.62 229.09 909.28 227.68 900.78C227.32 898.61 226.95 896.39 226.59 894.18L256.94 893.94L268.68 893.85C268.2 897.35 267.73 900.55 267.3 903.45V903.45Z" fill="#F3EFF5"/>
<path d="M267.61 894.27C267.69 893.72 267.76 893.17 267.83 892.61C267.75 893.21 267.68 893.76 267.61 894.27Z" fill="#C4A996"/>
<path d="M234.87 925.51C234.59 927.81 234.19 930.05 233.65 932.24C233.52 930.11 233.22 927.79 232.87 925.52C232.52 923.28 232.12 921.07 231.78 919.16C230.63 912.72 225.2 879.33 223.8 871.8C222.39 864.27 214.67 830.7 214.67 810.91C214.67 807.43 214.9 803.54 215.28 799.43L228.85 799.32C228.43 823.44 228.28 857.84 230.35 872.31C232.75 889.05 236.99 908.57 234.87 925.51V925.51Z" fill="#DCDCDC"/>
<path d="M279.48 846.48C278.03 856.1 271.31 866.14 268.16 890.23C268.06 891.04 267.95 891.83 267.83 892.61C269.79 877.27 274.31 833.17 266.84 799.01L278.63 798.92C279.07 801.28 279.42 804.01 279.71 807.4C280.54 817.1 280.93 836.87 279.48 846.48Z" fill="#DCDCDC"/>
<path d="M214.46 832.16L214.34 831.29C213.23 823.17 212.67 816.31 212.67 810.91C212.67 807.64 212.87 803.81 213.26 799.51L213.34 798.61L280.49 798.07L280.64 798.89C281.07 801.2 281.4 803.85 281.69 807.23C282.22 813.43 282.51 822.62 282.41 830.63V831.61L214.44 832.16H214.46ZM215.18 800.6C214.84 804.47 214.67 807.94 214.67 810.92C214.67 816.04 215.19 822.5 216.2 830.15L280.44 829.63C280.5 821.92 280.22 813.3 279.71 807.41C279.46 804.5 279.18 802.15 278.83 800.09L215.17 800.61L215.18 800.6Z" fill="#D4D1D6"/>
<path d="M220.11 863.67L219.94 862.86C218.82 857.4 217.16 849.12 215.71 840.36C215.16 836.99 214.71 834.02 214.34 831.29L214.19 830.16L282.45 829.6V830.62C282.38 835.26 282.22 839.25 281.94 842.48C281.81 844.04 281.65 845.48 281.46 846.76C280.88 850.58 279.53 854.43 277.96 858.89C277.55 860.05 277.13 861.26 276.69 862.53L276.46 863.2L220.1 863.66L220.11 863.67ZM216.48 832.15C216.82 834.55 217.22 837.14 217.69 840.04C219.06 848.35 220.63 856.22 221.74 861.66L275.04 861.22C275.4 860.19 275.74 859.2 276.08 858.24C277.61 853.88 278.94 850.11 279.48 846.48C279.66 845.25 279.81 843.85 279.94 842.33C280.19 839.38 280.35 835.79 280.41 831.63L216.47 832.15H216.48Z" fill="#D4D1D6"/>
<path d="M225.75 895.19L225.61 894.35C224.08 885.21 222.54 875.98 221.86 872.33L222.82 872.01L221.84 872.23C221.6 870.92 221.18 868.87 220.72 866.69L219.7 861.69L277.16 861.22L276.7 862.55C274.38 869.34 271.78 877.97 270.15 890.5L270.01 891.51C269.9 892.35 269.79 893.18 269.67 893.99L269.55 894.84L225.74 895.19H225.75ZM222.15 863.66L222.69 866.28C223.16 868.55 223.57 870.54 223.8 871.82L223.82 871.92C224.49 875.53 225.96 884.32 227.44 893.18L267.81 892.85C267.88 892.32 267.95 891.78 268.03 891.24L268.16 890.23C269.72 878.33 272.12 869.91 274.35 863.23L222.14 863.66H222.15Z" fill="#D4D1D6"/>
<path d="M231.04 926.71L230.9 925.86C230.74 924.89 230.58 923.94 230.42 923.03L230.29 922.27C230.21 921.77 230.12 921.3 230.04 920.84L229.8 919.52C229.31 916.74 228.05 909.15 226.69 900.94L226.57 900.21C226.25 898.27 225.92 896.3 225.6 894.34L225.41 893.19L269.82 892.84L269.66 893.98C269.18 897.48 268.71 900.69 268.28 903.59C266.92 912.81 265.93 919.47 266.18 925.38L266.22 926.41L231.03 926.7L231.04 926.71ZM232.37 922.53L232.4 922.7C232.51 923.35 232.63 924.02 232.74 924.7L264.16 924.45C264.05 918.62 265.01 912.12 266.31 903.32C266.69 900.74 267.11 897.93 267.53 894.88L227.76 895.19C228.02 896.77 228.28 898.35 228.54 899.91L228.66 900.64C230.02 908.84 231.28 916.43 231.77 919.19L232.01 920.51C232.09 920.98 232.18 921.47 232.26 921.96L232.36 922.55L232.37 922.53Z" fill="#D4D1D6"/>
</svg>
