<?xml version="1.0" encoding="UTF-8" standalone="no"?>
<!-- Generator: Adobe Illustrator 26.0.3, SVG Export Plug-In . SVG Version: 6.00 Build 0)  -->

<svg
   version="1.1"
   id="Слой_1"
   x="0px"
   y="0px"
   viewBox="0 0 486.98 976.34"
   style="enable-background:new 0 0 486.98 976.34;"
   xml:space="preserve"
   sodipodi:docname="М-11.svg"
   inkscape:version="1.1.1 (3bf5ae0d25, 2021-09-20)"
   xmlns:inkscape="http://www.inkscape.org/namespaces/inkscape"
   xmlns:sodipodi="http://sodipodi.sourceforge.net/DTD/sodipodi-0.dtd"
   xmlns="http://www.w3.org/2000/svg"
   xmlns:svg="http://www.w3.org/2000/svg"><defs
   id="defs24486">
	
	
	
</defs><sodipodi:namedview
   id="namedview24484"
   pagecolor="#ffffff"
   bordercolor="#666666"
   borderopacity="1.0"
   inkscape:pageshadow="2"
   inkscape:pageopacity="0.0"
   inkscape:pagecheckerboard="0"
   showgrid="false"
   inkscape:zoom="0.85216213"
   inkscape:cx="243.49826"
   inkscape:cy="488.75676"
   inkscape:window-width="1920"
   inkscape:window-height="1017"
   inkscape:window-x="-8"
   inkscape:window-y="-8"
   inkscape:window-maximized="1"
   inkscape:current-layer="Слой_1" />
<style
   type="text/css"
   id="style24329">
	.st0{fill:#F6D3BD;}
	.st1{fill:#C4A996;}
	.st2{fill:#ED1C24;}
	.st3{fill:#998475;}
	.st4{fill:#BDB7B2;}
	.st5{fill:#E7E3E0;}
	.st6{fill:#4F5260;}
	.st7{fill:#555968;}
	.st8{fill:url(#SVGID_1_);}
	.st9{fill:url(#SVGID_00000044139585137344877780000018023114714029464999_);}
	.st10{fill:url(#SVGID_00000018931882920868231830000000563511005995275958_);}
	.st11{fill:url(#SVGID_00000052082989980704204420000013907084196096562826_);}
	.st12{fill:#63687A;}
	.st13{fill:#AEA89F;}
	.st14{fill:none;stroke:#998475;stroke-width:2;stroke-miterlimit:10;}
	.st15{fill:#FFFFFF;}
	.st16{fill:#1D1D1B;}
	.st17{fill:#E6E6E6;}
	.st18{fill:#333333;}
	.st19{fill:#4D4D4D;}
	.st20{fill:#1A1A1A;}
	.st21{fill:#A8A199;}
	.st22{fill:#E2D6CE;}
	.st23{fill:url(#SVGID_00000150064569477568819610000007410500607499111576_);}
	.st24{fill:url(#SVGID_00000121257334512864670760000013819075421468008636_);}
	.st25{fill:url(#SVGID_00000080194487458410344760000010614641574229309354_);}
	.st26{fill:url(#SVGID_00000010280354749593353280000014447436177323248298_);}
	.st27{fill:#555451;}
	.st28{fill:#578BAA;}
	.st29{fill:#6BABD1;}
	.st30{fill:#A6A6A6;}
	.st31{fill:#F3EFF5;}
	.st32{fill:#D4D1D6;}
	.st33{fill:#848BA3;}
	.st34{fill:#676D80;}
	.st35{fill:#9FA7C4;}
	.st36{fill:#BEBBBF;}
	.st37{fill:url(#SVGID_00000030451257754903264850000015415591290042359441_);}
	.st38{fill:url(#SVGID_00000121255088083273345030000007459833444856130706_);}
	.st39{fill:url(#SVGID_00000109022724638501828910000001078915680135995576_);}
	.st40{fill:url(#SVGID_00000036215788642041043380000017522219094742402473_);}
	.st41{fill:url(#SVGID_00000165943366273434682870000007620483142424882863_);}
	.st42{fill:url(#SVGID_00000003100937504956182310000014598001022483219596_);}
	.st43{fill:url(#SVGID_00000182505628001137469500000009294949244839230387_);}
	.st44{fill:url(#SVGID_00000165231408983398802600000010339034833270704535_);}
	.st45{fill:url(#SVGID_00000019667895768821108470000015454542743019591848_);}
	.st46{fill:url(#SVGID_00000066511496066170879750000014272003074945758134_);}
	.st47{fill:url(#SVGID_00000095313475834637810210000007032524346608177081_);}
	.st48{fill:url(#SVGID_00000012463711376451883170000017914296745021208208_);}
	.st49{fill:url(#SVGID_00000116215371629083459670000014868883932509264570_);}
	.st50{fill:url(#SVGID_00000060030512557239877300000009850396771982133888_);}
</style>
<g
   id="g24477">
		<g
   id="g24459">
			<path
   class="st27"
   d="m 281.47,733.67 c 1.12,0.05 2.28,0.09 3.46,0.12 -1.18,-0.04 -2.33,-0.08 -3.46,-0.12 z"
   id="path24439" />
			<g
   id="g24447">
				<g
   id="g24445">
					<path
   class="st36"
   d="m 340.5,715.88 v 15.94 c -3.73,0.39 -7.4,0.72 -11.02,1 -1.4,0.11 -2.8,0.2 -4.18,0.29 -0.7,0.05 -1.38,0.09 -2.07,0.13 -0.76,0.05 -1.52,0.09 -2.28,0.13 -0.87,0.05 -1.75,0.09 -2.61,0.14 -0.41,0.02 -0.81,0.04 -1.21,0.05 -2.29,0.11 -4.53,0.19 -6.74,0.25 -0.38,0.01 -0.76,0.02 -1.15,0.03 -7.32,0.19 -14.19,0.18 -20.44,0.05 -0.11,0 -0.21,0 -0.31,-0.01 -1.2,-0.03 -2.39,-0.06 -3.56,-0.09 -1.18,-0.04 -2.33,-0.08 -3.46,-0.12 -0.37,-0.01 -0.74,-0.02 -1.11,-0.04 -0.71,-0.03 -1.41,-0.06 -2.1,-0.09 -0.98,-0.05 -1.94,-0.09 -2.86,-0.14 -1.59,-0.08 -3.11,-0.17 -4.56,-0.26 -1.56,-0.1 -3.03,-0.2 -4.41,-0.3 -5.08,-0.38 -8.86,-0.76 -11.02,-1 v -15.92 c 2.33,0.25 6.09,0.62 11.02,0.98 0.69,0.05 1.4,0.1 2.13,0.15 0.77,0.05 1.54,0.1 2.35,0.15 1.76,0.11 3.64,0.22 5.62,0.31 0.62,0.03 1.26,0.06 1.9,0.09 1.64,0.07 3.34,0.14 5.1,0.19 1.01,0.04 2.05,0.07 3.1,0.09 0.72,0.02 1.45,0.04 2.19,0.05 1.15,0.03 2.33,0.05 3.52,0.06 1.86,0.03 3.76,0.04 5.71,0.04 4.41,0 9.06,-0.07 13.88,-0.23 0.41,-0.01 0.81,-0.03 1.22,-0.04 1.31,-0.04 2.64,-0.1 3.98,-0.16 1.28,-0.05 2.55,-0.11 3.86,-0.19 0.16,0 0.32,-0.01 0.5,-0.03 1,-0.05 2.02,-0.11 3.05,-0.18 0.62,-0.03 1.26,-0.07 1.89,-0.12 1.01,-0.06 2.02,-0.13 3.05,-0.21 3.62,-0.27 7.29,-0.6 11.02,-0.99 z"
   id="path24441" />
					<path
   class="st36"
   d="m 340.5,642.12 v 17.06 c -3.73,0.39 -7.4,0.72 -11.02,0.99 -1.41,0.11 -2.82,0.21 -4.21,0.3 -2.79,0.18 -5.53,0.33 -8.22,0.45 -2.7,0.13 -5.35,0.22 -7.94,0.28 -1.93,0.06 -3.85,0.09 -5.72,0.11 -0.63,0.01 -1.24,0.01 -1.87,0.02 -2.87,0.03 -5.66,0.02 -8.35,-0.01 -1.54,-0.02 -3.04,-0.04 -4.5,-0.07 -1.48,-0.04 -2.91,-0.07 -4.31,-0.11 -0.97,-0.03 -1.95,-0.07 -2.89,-0.1 -1.07,-0.04 -2.12,-0.08 -3.15,-0.13 -2.68,-0.12 -5.19,-0.26 -7.5,-0.4 -1.56,-0.1 -3.03,-0.2 -4.39,-0.3 -5.08,-0.38 -8.85,-0.76 -11.02,-1 v -17.05 c 2.33,0.25 6.09,0.62 11.02,0.98 0.69,0.05 1.4,0.1 2.13,0.15 0.77,0.05 1.54,0.1 2.35,0.15 1.76,0.11 3.64,0.22 5.62,0.31 0.62,0.03 1.26,0.06 1.9,0.09 1.64,0.07 3.34,0.14 5.1,0.19 1.01,0.04 2.05,0.07 3.1,0.09 0.72,0.02 1.45,0.04 2.19,0.05 1.15,0.03 2.33,0.05 3.52,0.06 1.86,0.03 3.76,0.04 5.71,0.04 1.58,0 3.19,-0.01 4.83,-0.03 0.82,-0.01 1.65,-0.02 2.48,-0.03 0.91,-0.02 1.83,-0.04 2.76,-0.06 0.76,-0.01 1.53,-0.03 2.3,-0.06 1.73,-0.05 3.48,-0.11 5.26,-0.18 0.87,-0.04 1.74,-0.07 2.62,-0.12 1.61,-0.07 3.26,-0.16 4.93,-0.26 0.31,-0.02 0.63,-0.04 0.95,-0.06 0.74,-0.04 1.5,-0.09 2.25,-0.15 4.59,-0.32 9.29,-0.72 14.07,-1.2 z"
   id="path24443" />
				</g>
			</g>
			<path
   class="st31"
   d="m 329.48,643.1 v 17.06 c -1.41,0.11 -2.82,0.21 -4.21,0.3 -2.79,0.18 -5.53,0.33 -8.22,0.45 -2.7,0.12 -5.35,0.21 -7.94,0.28 -1.93,0.05 -3.85,0.08 -5.72,0.11 -0.63,0.01 -1.24,0.01 -1.87,0.02 -2.87,0.02 -5.66,0.02 -8.35,-0.01 -1.54,-0.02 -3.04,-0.04 -4.5,-0.07 -1.48,-0.04 -2.91,-0.07 -4.31,-0.11 -0.97,-0.03 -1.95,-0.07 -2.89,-0.1 -1.07,-0.04 -2.12,-0.08 -3.15,-0.13 -2.68,-0.12 -5.19,-0.26 -7.5,-0.4 -1.56,-0.1 -3.03,-0.2 -4.39,-0.3 v -17.07 c 0.69,0.05 1.4,0.1 2.13,0.15 0.77,0.05 1.54,0.1 2.35,0.15 1.76,0.11 3.64,0.22 5.62,0.31 0.62,0.03 1.26,0.06 1.9,0.09 1.64,0.07 3.34,0.14 5.1,0.19 1.01,0.04 2.05,0.07 3.1,0.09 0.72,0.02 1.45,0.04 2.19,0.05 1.15,0.03 2.33,0.05 3.52,0.06 1.86,0.03 3.76,0.04 5.71,0.04 1.58,0 3.19,-0.01 4.83,-0.03 0.82,-0.01 1.65,-0.02 2.48,-0.03 0.91,-0.02 1.83,-0.04 2.76,-0.06 0.76,-0.01 1.53,-0.03 2.3,-0.06 1.73,-0.05 3.48,-0.11 5.26,-0.18 0.87,-0.04 1.74,-0.07 2.62,-0.12 1.61,-0.07 3.26,-0.16 4.93,-0.26 0.31,-0.02 0.63,-0.04 0.95,-0.06 0.74,-0.04 1.5,-0.09 2.25,-0.15 1.02,-0.06 2.03,-0.12 3.05,-0.21 z"
   id="path24449" />
			<path
   class="st31"
   d="m 329.48,716.88 v 15.95 c -1.4,0.11 -2.8,0.2 -4.18,0.29 -0.7,0.05 -1.38,0.09 -2.07,0.13 -0.76,0.05 -1.52,0.09 -2.28,0.13 -0.87,0.05 -1.75,0.09 -2.61,0.14 -0.41,0.02 -0.81,0.04 -1.21,0.05 -2.29,0.11 -4.53,0.19 -6.74,0.25 -0.38,0.01 -0.76,0.02 -1.15,0.03 -7.32,0.19 -14.19,0.18 -20.44,0.05 -0.11,0 -0.21,0 -0.31,-0.01 -1.2,-0.03 -2.39,-0.06 -3.56,-0.09 -1.18,-0.03 -2.34,-0.07 -3.46,-0.12 -0.37,-0.01 -0.74,-0.02 -1.11,-0.04 -0.71,-0.03 -1.41,-0.06 -2.1,-0.09 -0.98,-0.05 -1.94,-0.09 -2.86,-0.14 -1.59,-0.08 -3.11,-0.17 -4.56,-0.26 -1.56,-0.1 -3.03,-0.2 -4.41,-0.3 v -15.94 c 0.69,0.05 1.4,0.1 2.13,0.15 0.77,0.05 1.54,0.1 2.35,0.15 1.76,0.11 3.64,0.22 5.62,0.31 0.62,0.03 1.26,0.06 1.9,0.09 1.64,0.07 3.34,0.14 5.1,0.19 1.01,0.04 2.05,0.07 3.1,0.09 0.72,0.02 1.45,0.04 2.19,0.05 1.15,0.03 2.33,0.05 3.52,0.06 1.86,0.03 3.76,0.04 5.71,0.04 4.41,0 9.06,-0.07 13.88,-0.23 0.41,-0.01 0.81,-0.03 1.22,-0.04 1.31,-0.04 2.64,-0.1 3.98,-0.16 1.28,-0.05 2.55,-0.11 3.86,-0.19 0.16,0 0.32,-0.01 0.5,-0.03 1,-0.05 2.02,-0.11 3.05,-0.18 0.62,-0.03 1.26,-0.07 1.89,-0.12 1.01,-0.07 2.02,-0.13 3.05,-0.21 z"
   id="path24451" />
			<g
   id="g24457">
				<path
   class="st31"
   d="m 329.48,716.88 v 15.95 c -1.4,0.11 -2.8,0.2 -4.18,0.29 -0.7,0.05 -1.38,0.09 -2.07,0.13 -0.76,0.05 -1.52,0.09 -2.28,0.13 -0.87,0.05 -1.75,0.09 -2.61,0.14 -0.41,0.02 -0.81,0.04 -1.21,0.05 -2.29,0.11 -4.53,0.19 -6.74,0.25 -0.38,0.01 -0.76,0.02 -1.15,0.03 -7.32,0.19 -14.19,0.18 -20.44,0.05 -0.11,0 -0.21,0 -0.31,-0.01 -1.2,-0.03 -2.39,-0.06 -3.56,-0.09 -1.18,-0.03 -2.34,-0.07 -3.46,-0.12 -0.37,-0.01 -0.74,-0.02 -1.11,-0.04 -0.71,-0.03 -1.41,-0.06 -2.1,-0.09 -0.98,-0.05 -1.94,-0.09 -2.86,-0.14 -1.59,-0.08 -3.11,-0.17 -4.56,-0.26 -1.56,-0.1 -3.03,-0.2 -4.41,-0.3 v -15.94 c 0.69,0.05 1.4,0.1 2.13,0.15 0.77,0.05 1.54,0.1 2.35,0.15 1.76,0.11 3.64,0.22 5.62,0.31 0.62,0.03 1.26,0.06 1.9,0.09 1.64,0.07 3.34,0.14 5.1,0.19 1.01,0.04 2.05,0.07 3.1,0.09 0.72,0.02 1.45,0.04 2.19,0.05 1.15,0.03 2.33,0.05 3.52,0.06 1.86,0.03 3.76,0.04 5.71,0.04 4.41,0 9.06,-0.07 13.88,-0.23 0.41,-0.01 0.81,-0.03 1.22,-0.04 1.31,-0.04 2.64,-0.1 3.98,-0.16 1.28,-0.05 2.55,-0.11 3.86,-0.19 0.16,0 0.32,-0.01 0.5,-0.03 1,-0.05 2.02,-0.11 3.05,-0.18 0.62,-0.03 1.26,-0.07 1.89,-0.12 1.01,-0.07 2.02,-0.13 3.05,-0.21 z"
   id="path24453" />
				<path
   class="st31"
   d="m 329.48,643.1 v 17.06 c -1.41,0.11 -2.82,0.21 -4.21,0.3 -2.79,0.18 -5.53,0.33 -8.22,0.45 -2.7,0.12 -5.35,0.21 -7.94,0.28 -1.93,0.05 -3.85,0.08 -5.72,0.11 -0.63,0.01 -1.24,0.01 -1.87,0.02 -2.87,0.02 -5.66,0.02 -8.35,-0.01 -1.54,-0.02 -3.04,-0.04 -4.5,-0.07 -1.48,-0.04 -2.91,-0.07 -4.31,-0.11 -0.97,-0.03 -1.95,-0.07 -2.89,-0.1 -1.07,-0.04 -2.12,-0.08 -3.15,-0.13 -2.68,-0.12 -5.19,-0.26 -7.5,-0.4 -1.56,-0.1 -3.03,-0.2 -4.39,-0.3 v -17.07 c 0.69,0.05 1.4,0.1 2.13,0.15 0.77,0.05 1.54,0.1 2.35,0.15 1.76,0.11 3.64,0.22 5.62,0.31 0.62,0.03 1.26,0.06 1.9,0.09 1.64,0.07 3.34,0.14 5.1,0.19 1.01,0.04 2.05,0.07 3.1,0.09 0.72,0.02 1.45,0.04 2.19,0.05 1.15,0.03 2.33,0.05 3.52,0.06 1.86,0.03 3.76,0.04 5.71,0.04 1.58,0 3.19,-0.01 4.83,-0.03 0.82,-0.01 1.65,-0.02 2.48,-0.03 0.91,-0.02 1.83,-0.04 2.76,-0.06 0.76,-0.01 1.53,-0.03 2.3,-0.06 1.73,-0.05 3.48,-0.11 5.26,-0.18 0.87,-0.04 1.74,-0.07 2.62,-0.12 1.61,-0.07 3.26,-0.16 4.93,-0.26 0.31,-0.02 0.63,-0.04 0.95,-0.06 0.74,-0.04 1.5,-0.09 2.25,-0.15 1.02,-0.06 2.03,-0.12 3.05,-0.21 z"
   id="path24455" />
			</g>
		</g>
		<g
   id="g24475">
			<path
   class="st27"
   d="m 255.41,795.56 v 3.88 c 2.33,0.25 6.09,0.62 11.02,0.98 4.14,0.3 9.12,0.6 14.76,0.81 0.58,0.02 1.16,0.04 1.75,0.06 1.2,0.05 2.44,0.08 3.69,0.11 0.72,0.02 1.45,0.04 2.19,0.05 1.15,0.03 2.33,0.05 3.52,0.06 1.86,0.03 3.76,0.04 5.71,0.04 1.58,0 3.19,-0.01 4.83,-0.03 0.4,0 0.82,-0.01 1.24,-0.01 1.04,-0.02 2.12,-0.04 3.2,-0.06 0.26,0 0.53,-0.01 0.8,-0.02 0.76,-0.01 1.53,-0.03 2.3,-0.06 0.26,0 0.51,-0.01 0.77,-0.02 1.58,-0.05 3.2,-0.11 4.84,-0.18 0.75,-0.03 1.5,-0.06 2.27,-0.1 0.65,-0.03 1.31,-0.06 1.99,-0.1 0.65,-0.03 1.33,-0.07 2,-0.11 1.36,-0.07 2.74,-0.16 4.14,-0.26 4.59,-0.31 9.29,-0.71 14.07,-1.2 v -3.87 c -40.9,4.3 -76.27,0.99 -85.09,0.03 z"
   id="path24461" />
			<g
   id="g24467">
				<g
   id="g24465">
					<path
   class="st36"
   d="m 340.5,799.4 v 17.06 c -3.73,0.39 -7.4,0.72 -11.02,0.99 -1.41,0.11 -2.82,0.21 -4.21,0.3 -1.39,0.09 -2.78,0.17 -4.14,0.25 -1.38,0.07 -2.74,0.14 -4.08,0.2 -2.7,0.13 -5.35,0.22 -7.94,0.28 -1.29,0.03 -2.57,0.06 -3.84,0.08 -1.26,0.02 -2.51,0.04 -3.75,0.05 -2.87,0.03 -5.66,0.02 -8.35,-0.01 -1.54,-0.02 -3.04,-0.04 -4.5,-0.07 -1.48,-0.04 -2.91,-0.07 -4.31,-0.11 -0.97,-0.03 -1.95,-0.07 -2.89,-0.1 -1.07,-0.04 -2.12,-0.08 -3.15,-0.13 -2.68,-0.12 -5.19,-0.26 -7.5,-0.4 -0.77,-0.05 -1.53,-0.1 -2.26,-0.15 -0.73,-0.05 -1.44,-0.1 -2.13,-0.15 -5.08,-0.38 -8.85,-0.76 -11.02,-1 v -17.05 c 2.33,0.25 6.09,0.62 11.02,0.98 4.14,0.3 9.12,0.6 14.76,0.81 0.58,0.02 1.16,0.04 1.75,0.06 1.2,0.05 2.44,0.08 3.69,0.11 0.72,0.02 1.45,0.04 2.19,0.05 1.15,0.03 2.33,0.05 3.52,0.06 1.86,0.03 3.76,0.04 5.71,0.04 1.58,0 3.19,-0.01 4.83,-0.03 0.4,0 0.82,-0.01 1.24,-0.01 1.04,-0.02 2.12,-0.04 3.2,-0.06 0.26,0 0.53,-0.01 0.8,-0.02 0.76,-0.01 1.53,-0.03 2.3,-0.06 0.26,0 0.51,-0.01 0.77,-0.02 1.58,-0.05 3.2,-0.11 4.84,-0.18 0.75,-0.03 1.5,-0.06 2.27,-0.1 0.65,-0.03 1.31,-0.06 1.99,-0.1 0.65,-0.03 1.33,-0.07 2,-0.11 1.36,-0.07 2.74,-0.16 4.14,-0.26 4.59,-0.31 9.29,-0.72 14.07,-1.2 z"
   id="path24463" />
				</g>
			</g>
			<path
   class="st31"
   d="m 329.48,800.38 v 17.06 c -1.41,0.11 -2.82,0.21 -4.21,0.3 -1.39,0.09 -2.78,0.17 -4.14,0.25 -1.38,0.07 -2.74,0.14 -4.08,0.2 -2.7,0.12 -5.35,0.21 -7.94,0.28 -1.29,0.03 -2.57,0.06 -3.84,0.08 -1.26,0.02 -2.51,0.04 -3.75,0.05 -2.87,0.02 -5.66,0.02 -8.35,-0.01 -1.54,-0.02 -3.04,-0.04 -4.5,-0.07 -1.48,-0.04 -2.91,-0.07 -4.31,-0.11 -0.97,-0.03 -1.95,-0.07 -2.89,-0.1 -1.07,-0.04 -2.12,-0.08 -3.15,-0.13 -2.68,-0.12 -5.19,-0.26 -7.5,-0.4 -0.77,-0.05 -1.53,-0.1 -2.26,-0.15 -0.73,-0.05 -1.44,-0.1 -2.13,-0.15 v -17.07 c 4.14,0.3 9.12,0.6 14.76,0.81 0.58,0.02 1.16,0.04 1.75,0.06 1.2,0.05 2.44,0.08 3.69,0.11 0.72,0.02 1.45,0.04 2.19,0.05 1.15,0.03 2.33,0.05 3.52,0.06 1.86,0.03 3.76,0.04 5.71,0.04 1.58,0 3.19,-0.01 4.83,-0.03 0.4,0 0.82,-0.01 1.24,-0.01 1.04,-0.02 2.12,-0.04 3.2,-0.06 0.26,0 0.53,-0.01 0.8,-0.02 0.76,-0.01 1.53,-0.03 2.3,-0.06 0.26,0 0.51,-0.01 0.77,-0.02 1.58,-0.05 3.2,-0.11 4.84,-0.18 0.75,-0.03 1.5,-0.06 2.27,-0.1 0.65,-0.03 1.31,-0.06 1.99,-0.1 0.65,-0.03 1.33,-0.07 2,-0.11 1.36,-0.07 2.74,-0.16 4.14,-0.26 1.02,-0.05 2.03,-0.13 3.05,-0.21 z"
   id="path24469" />
			<g
   id="g24473">
				<path
   class="st31"
   d="m 329.48,800.38 v 17.06 c -1.41,0.11 -2.82,0.21 -4.21,0.3 -1.39,0.09 -2.78,0.17 -4.14,0.25 -1.38,0.07 -2.74,0.14 -4.08,0.2 -2.7,0.12 -5.35,0.21 -7.94,0.28 -1.29,0.03 -2.57,0.06 -3.84,0.08 -1.26,0.02 -2.51,0.04 -3.75,0.05 -2.87,0.02 -5.66,0.02 -8.35,-0.01 -1.54,-0.02 -3.04,-0.04 -4.5,-0.07 -1.48,-0.04 -2.91,-0.07 -4.31,-0.11 -0.97,-0.03 -1.95,-0.07 -2.89,-0.1 -1.07,-0.04 -2.12,-0.08 -3.15,-0.13 -2.68,-0.12 -5.19,-0.26 -7.5,-0.4 -0.77,-0.05 -1.53,-0.1 -2.26,-0.15 -0.73,-0.05 -1.44,-0.1 -2.13,-0.15 v -17.07 c 4.14,0.3 9.12,0.6 14.76,0.81 0.58,0.02 1.16,0.04 1.75,0.06 1.2,0.05 2.44,0.08 3.69,0.11 0.72,0.02 1.45,0.04 2.19,0.05 1.15,0.03 2.33,0.05 3.52,0.06 1.86,0.03 3.76,0.04 5.71,0.04 1.58,0 3.19,-0.01 4.83,-0.03 0.4,0 0.82,-0.01 1.24,-0.01 1.04,-0.02 2.12,-0.04 3.2,-0.06 0.26,0 0.53,-0.01 0.8,-0.02 0.76,-0.01 1.53,-0.03 2.3,-0.06 0.26,0 0.51,-0.01 0.77,-0.02 1.58,-0.05 3.2,-0.11 4.84,-0.18 0.75,-0.03 1.5,-0.06 2.27,-0.1 0.65,-0.03 1.31,-0.06 1.99,-0.1 0.65,-0.03 1.33,-0.07 2,-0.11 1.36,-0.07 2.74,-0.16 4.14,-0.26 1.02,-0.05 2.03,-0.13 3.05,-0.21 z"
   id="path24471" />
			</g>
		</g>
	</g><path
   class="st27"
   d="m 340.5,476.75 v 161.49 c -40.9,4.32 -76.27,1 -85.09,0.03 V 586.33 H 244.3 v 281.44 h 11.11 v -47.42 c 6.08,0.66 21.87,2.11 42.64,2.11 12.66,0 27.17,-0.55 42.45,-2.14 v 47.45 h 11.1 V 476.75 Z m 0,339.71 c -3.73,0.39 -7.4,0.72 -11.02,0.99 -1.41,0.11 -2.82,0.21 -4.21,0.3 -1.39,0.09 -2.78,0.17 -4.14,0.25 -1.38,0.08 -2.74,0.15 -4.08,0.2 -2.7,0.13 -5.35,0.22 -7.94,0.28 -1.29,0.04 -2.58,0.07 -3.84,0.08 -1.26,0.02 -2.51,0.04 -3.75,0.05 -2.87,0.03 -5.66,0.02 -8.35,-0.01 -1.54,-0.02 -3.04,-0.04 -4.5,-0.07 -1.48,-0.04 -2.91,-0.07 -4.31,-0.11 -0.97,-0.03 -1.95,-0.07 -2.89,-0.1 -1.07,-0.04 -2.12,-0.08 -3.15,-0.13 -2.68,-0.12 -5.19,-0.26 -7.5,-0.4 -0.77,-0.05 -1.53,-0.1 -2.26,-0.15 -0.73,-0.05 -1.44,-0.1 -2.13,-0.15 -5.08,-0.38 -8.85,-0.76 -11.02,-1 v -80.76 c 6.08,0.67 21.87,2.12 42.64,2.12 12.66,0 27.17,-0.56 42.45,-2.15 z m 0,-84.63 c -3.73,0.39 -7.4,0.72 -11.02,1 -1.4,0.11 -2.8,0.2 -4.18,0.29 -0.7,0.05 -1.38,0.09 -2.07,0.13 -0.76,0.05 -1.52,0.09 -2.28,0.13 -0.87,0.05 -1.75,0.09 -2.61,0.14 -0.41,0.02 -0.81,0.04 -1.21,0.05 -2.29,0.11 -4.53,0.19 -6.74,0.25 -0.38,0.01 -0.76,0.02 -1.15,0.03 -7.32,0.19 -14.19,0.18 -20.44,0.05 -0.11,0 -0.21,0 -0.31,-0.01 -1.2,-0.03 -2.39,-0.06 -3.56,-0.09 -1.18,-0.03 -2.34,-0.07 -3.46,-0.12 -0.37,-0.01 -0.74,-0.02 -1.11,-0.04 -0.71,-0.03 -1.41,-0.06 -2.1,-0.09 -0.98,-0.05 -1.94,-0.09 -2.86,-0.14 -1.59,-0.08 -3.11,-0.17 -4.56,-0.26 -1.56,-0.1 -3.03,-0.2 -4.41,-0.3 -5.08,-0.38 -8.86,-0.76 -11.02,-1 v -15.92 c 2.33,0.25 6.09,0.62 11.02,0.98 0.69,0.05 1.4,0.1 2.13,0.15 0.77,0.05 1.54,0.1 2.35,0.15 1.76,0.11 3.64,0.22 5.62,0.31 0.62,0.03 1.26,0.06 1.9,0.09 1.64,0.07 3.34,0.14 5.1,0.19 1.01,0.04 2.05,0.07 3.1,0.09 0.72,0.02 1.45,0.04 2.19,0.05 1.15,0.03 2.33,0.05 3.52,0.06 1.86,0.03 3.76,0.04 5.71,0.04 4.41,0 9.06,-0.07 13.88,-0.23 0.41,-0.01 0.81,-0.03 1.22,-0.04 1.31,-0.04 2.64,-0.1 3.98,-0.16 1.26,-0.05 2.55,-0.12 3.86,-0.19 0.16,0 0.32,-0.01 0.5,-0.03 1,-0.05 2.02,-0.11 3.05,-0.18 0.62,-0.03 1.26,-0.07 1.89,-0.12 1.01,-0.06 2.02,-0.13 3.05,-0.21 3.62,-0.27 7.29,-0.6 11.02,-0.99 z m 0,-19.81 c -40.9,4.32 -76.27,1.01 -85.09,0.03 v -48.96 c 6.08,0.65 21.87,2.11 42.64,2.11 12.66,0 27.17,-0.55 42.45,-2.15 z m 0,-52.85 c -3.73,0.39 -7.4,0.72 -11.02,0.99 -1.41,0.11 -2.82,0.21 -4.21,0.3 -2.79,0.18 -5.53,0.33 -8.22,0.45 -2.7,0.13 -5.35,0.22 -7.94,0.28 -1.93,0.06 -3.85,0.09 -5.72,0.11 -0.63,0.01 -1.24,0.01 -1.87,0.02 -2.87,0.03 -5.66,0.02 -8.35,-0.01 -1.54,-0.02 -3.04,-0.04 -4.5,-0.07 -1.48,-0.04 -2.91,-0.07 -4.31,-0.11 -0.97,-0.03 -1.95,-0.07 -2.89,-0.1 -1.07,-0.04 -2.12,-0.08 -3.15,-0.13 -2.68,-0.12 -5.19,-0.26 -7.5,-0.4 -1.56,-0.1 -3.03,-0.2 -4.39,-0.3 -5.08,-0.38 -8.85,-0.76 -11.02,-1 v -17.05 c 2.33,0.25 6.09,0.62 11.02,0.98 0.69,0.05 1.4,0.1 2.13,0.15 0.77,0.05 1.54,0.1 2.35,0.15 1.76,0.11 3.64,0.22 5.62,0.31 0.62,0.03 1.26,0.06 1.9,0.09 1.64,0.07 3.34,0.14 5.1,0.19 1.01,0.04 2.05,0.07 3.1,0.09 0.72,0.02 1.45,0.04 2.19,0.05 1.15,0.03 2.33,0.05 3.52,0.06 1.86,0.03 3.76,0.04 5.71,0.04 1.58,0 3.19,-0.01 4.83,-0.03 0.82,-0.01 1.65,-0.02 2.48,-0.03 0.91,-0.02 1.83,-0.04 2.76,-0.06 0.76,-0.01 1.53,-0.03 2.3,-0.06 1.73,-0.05 3.48,-0.11 5.26,-0.18 0.87,-0.04 1.74,-0.07 2.62,-0.12 1.62,-0.08 3.26,-0.17 4.93,-0.26 0.31,-0.02 0.63,-0.04 0.95,-0.06 0.74,-0.04 1.5,-0.09 2.25,-0.15 4.59,-0.31 9.29,-0.71 14.07,-1.2 z"
   id="path24479" />
</svg>
