<svg width="620" height="1074" viewBox="0 0 620 1074" fill="none" xmlns="http://www.w3.org/2000/svg">
<path d="M438.1 393.79C439.14 393.45 440.22 393.09 441.32 392.71C440.22 393.08 439.14 393.45 438.1 393.79Z" fill="#555451"/>
<path d="M475.33 365.7L479.5 376.8C477.01 378.05 474.54 379.24 472.09 380.38C471.14 380.82 470.19 381.25 469.26 381.67C468.79 381.89 468.32 382.1 467.85 382.3C467.34 382.53 466.82 382.76 466.3 382.99C465.7 383.25 465.11 383.51 464.52 383.77C464.24 383.89 463.97 384.01 463.69 384.12C462.13 384.79 460.59 385.44 459.07 386.06C458.81 386.17 458.54 386.27 458.28 386.38C453.23 388.43 448.45 390.22 444.06 391.77C443.98 391.8 443.92 391.82 443.84 391.84C443 392.13 442.16 392.42 441.34 392.71C440.24 393.08 439.16 393.45 438.12 393.79C437.62 393.96 437.12 394.12 436.64 394.28C435.95 394.5 435.27 394.72 434.62 394.93C433.49 395.29 432.41 395.63 431.38 395.94C430.27 396.28 429.21 396.6 428.23 396.89C424.6 397.95 421.87 398.68 420.3 399.08L416.13 388C417.82 387.56 420.53 386.84 424.06 385.8C424.55 385.65 425.06 385.5 425.58 385.35C426.13 385.18 426.68 385.02 427.26 384.84C428.51 384.46 429.85 384.04 431.25 383.59C431.69 383.45 432.14 383.3 432.6 383.15C433.76 382.77 434.96 382.37 436.2 381.95C436.92 381.71 437.65 381.46 438.39 381.2C438.9 381.03 439.4 380.85 439.93 380.66C440.74 380.38 441.56 380.09 442.4 379.78C443.7 379.31 445.03 378.82 446.38 378.31C449.45 377.15 452.67 375.89 455.99 374.52C456.27 374.41 456.55 374.29 456.82 374.17C457.72 373.8 458.64 373.41 459.55 373.02C460.43 372.65 461.3 372.27 462.19 371.88C462.3 371.84 462.42 371.79 462.53 371.73C463.22 371.43 463.91 371.12 464.61 370.81C465.04 370.63 465.47 370.43 465.9 370.23C466.58 369.92 467.27 369.61 467.97 369.29C470.42 368.15 472.89 366.96 475.38 365.72L475.33 365.7Z" fill="#BEBBBF"/>
<path d="M467.91 369.27L472.08 380.37C471.13 380.81 470.18 381.24 469.25 381.66C468.78 381.88 468.31 382.09 467.84 382.29C467.33 382.52 466.81 382.75 466.29 382.98C465.69 383.24 465.1 383.5 464.51 383.76C464.23 383.88 463.96 384 463.68 384.11C462.12 384.78 460.58 385.43 459.06 386.05C458.8 386.16 458.53 386.26 458.27 386.37C453.22 388.42 448.44 390.21 444.05 391.76C443.97 391.79 443.91 391.81 443.83 391.83C442.99 392.12 442.15 392.41 441.33 392.7C440.22 393.08 439.15 393.44 438.11 393.78C437.61 393.95 437.11 394.11 436.63 394.27C435.94 394.49 435.26 394.71 434.61 394.92C433.48 395.28 432.4 395.62 431.37 395.93C430.26 396.27 429.2 396.59 428.22 396.88L424.05 385.78C424.54 385.63 425.05 385.48 425.57 385.33C426.12 385.16 426.67 385 427.25 384.82C428.5 384.44 429.84 384.02 431.24 383.57C431.68 383.43 432.13 383.28 432.59 383.13C433.75 382.75 434.95 382.35 436.19 381.93C436.91 381.69 437.64 381.44 438.38 381.18C438.89 381.01 439.39 380.83 439.92 380.64C440.73 380.36 441.55 380.07 442.39 379.76C443.69 379.29 445.02 378.8 446.37 378.29C449.44 377.13 452.66 375.87 455.98 374.5C456.26 374.39 456.54 374.27 456.81 374.15C457.71 373.78 458.63 373.39 459.54 373C460.42 372.63 461.29 372.25 462.18 371.86C462.29 371.82 462.41 371.77 462.52 371.71C463.21 371.41 463.9 371.1 464.6 370.79C465.03 370.61 465.46 370.41 465.89 370.21C466.57 369.9 467.26 369.59 467.96 369.27H467.91Z" fill="#F3EFF5"/>
<path d="M467.91 369.27L472.08 380.37C471.13 380.81 470.18 381.24 469.25 381.66C468.78 381.88 468.31 382.09 467.84 382.29C467.33 382.52 466.81 382.75 466.29 382.98C465.69 383.24 465.1 383.5 464.51 383.76C464.23 383.88 463.96 384 463.68 384.11C462.12 384.78 460.58 385.43 459.06 386.05C458.8 386.16 458.53 386.26 458.27 386.37C453.22 388.42 448.44 390.21 444.05 391.76C443.97 391.79 443.91 391.81 443.83 391.83C442.99 392.12 442.15 392.41 441.33 392.7C440.22 393.08 439.15 393.44 438.11 393.78C437.61 393.95 437.11 394.11 436.63 394.27C435.94 394.49 435.26 394.71 434.61 394.92C433.48 395.28 432.4 395.62 431.37 395.93C430.26 396.27 429.2 396.59 428.22 396.88L424.05 385.78C424.54 385.63 425.05 385.48 425.57 385.33C426.12 385.16 426.67 385 427.25 384.82C428.5 384.44 429.84 384.02 431.24 383.57C431.68 383.43 432.13 383.28 432.59 383.13C433.75 382.75 434.95 382.35 436.19 381.93C436.91 381.69 437.64 381.44 438.38 381.18C438.89 381.01 439.39 380.83 439.92 380.64C440.73 380.36 441.55 380.07 442.39 379.76C443.69 379.29 445.02 378.8 446.37 378.29C449.44 377.13 452.66 375.87 455.98 374.5C456.26 374.39 456.54 374.27 456.81 374.15C457.71 373.78 458.63 373.39 459.54 373C460.42 372.63 461.29 372.25 462.18 371.86C462.29 371.82 462.41 371.77 462.52 371.71C463.21 371.41 463.9 371.1 464.6 370.79C465.03 370.61 465.46 370.41 465.89 370.21C466.57 369.9 467.26 369.59 467.96 369.27H467.91Z" fill="#F3EFF5"/>
<path d="M472.09 380.37C474.54 379.23 477.01 378.03 479.5 376.79L480.51 379.48C470.29 384.59 460.33 388.77 451.52 392.09C437.07 397.52 425.69 400.65 421.28 401.77L420.27 399.07C421.84 398.67 424.58 397.95 428.2 396.88C429.19 396.59 430.24 396.27 431.35 395.93C432.38 395.62 433.46 395.28 434.59 394.91C435.24 394.71 435.92 394.48 436.61 394.27C437.09 394.11 437.59 393.94 438.1 393.78C439.14 393.43 440.22 393.08 441.32 392.69C442.14 392.4 442.98 392.12 443.83 391.82C443.9 391.8 443.97 391.78 444.04 391.75C448.43 390.2 453.21 388.41 458.26 386.37C458.52 386.26 458.79 386.15 459.05 386.04C460.57 385.43 462.11 384.78 463.67 384.11C463.95 384 464.23 383.88 464.5 383.75C465.09 383.49 465.69 383.24 466.28 382.97C466.8 382.75 467.31 382.52 467.83 382.29C468.3 382.09 468.77 381.87 469.24 381.66C470.18 381.24 471.13 380.81 472.07 380.36L472.09 380.37Z" fill="#555451"/>
<path d="M474.31 363L475.32 365.7C472.82 366.94 470.35 368.13 467.9 369.27C467.21 369.6 466.51 369.91 465.83 370.22C465.4 370.42 464.98 370.61 464.54 370.8C463.85 371.12 463.15 371.42 462.47 371.72C462.35 371.78 462.24 371.83 462.13 371.87C461.24 372.26 460.36 372.64 459.49 373.02C458.58 373.41 457.67 373.8 456.76 374.17C456.48 374.28 456.2 374.41 455.93 374.52C452.62 375.89 449.4 377.16 446.32 378.31C444.96 378.82 443.64 379.31 442.34 379.78C441.5 380.08 440.68 380.38 439.87 380.66C439.35 380.85 438.84 381.03 438.33 381.2C437.6 381.46 436.87 381.71 436.15 381.95C434.91 382.37 433.71 382.77 432.55 383.15C432.1 383.3 431.64 383.44 431.2 383.58C429.8 384.03 428.46 384.45 427.21 384.83C426.64 385.01 426.08 385.17 425.54 385.34C425.02 385.49 424.51 385.65 424.02 385.79C420.49 386.83 417.78 387.56 416.09 387.99L415.08 385.29C421.48 383.66 446.97 376.71 474.31 362.99V363Z" fill="#555451"/>
<path d="M460.57 453.57C461.61 453.23 462.69 452.87 463.79 452.49C462.69 452.86 461.61 453.23 460.57 453.57Z" fill="#555451"/>
<path d="M497.8 425.47L501.97 436.57C499.48 437.82 497.01 439.01 494.56 440.15C493.61 440.59 492.66 441.02 491.73 441.44C491.26 441.66 490.79 441.87 490.32 442.07C489.81 442.3 489.29 442.53 488.77 442.76C488.17 443.02 487.58 443.28 486.99 443.54C486.71 443.66 486.44 443.78 486.16 443.89C484.6 444.56 483.06 445.21 481.54 445.83C481.28 445.94 481.01 446.04 480.75 446.15C475.7 448.2 470.92 449.99 466.53 451.54C466.45 451.57 466.39 451.59 466.31 451.61C465.47 451.9 464.63 452.19 463.81 452.48C462.71 452.85 461.63 453.22 460.59 453.56C460.09 453.73 459.59 453.89 459.11 454.05C458.42 454.27 457.74 454.49 457.09 454.7C455.96 455.06 454.88 455.4 453.85 455.71C452.74 456.05 451.68 456.37 450.7 456.66C447.07 457.72 444.34 458.45 442.77 458.85L438.6 447.77C440.29 447.33 443 446.61 446.53 445.57C447.02 445.42 447.53 445.27 448.05 445.12C448.6 444.95 449.15 444.79 449.73 444.61C450.98 444.23 452.32 443.81 453.72 443.36C454.16 443.22 454.61 443.07 455.07 442.92C456.23 442.54 457.43 442.14 458.67 441.72C459.39 441.48 460.12 441.23 460.86 440.97C461.37 440.8 461.87 440.62 462.4 440.43C463.21 440.15 464.03 439.86 464.87 439.55C466.17 439.08 467.5 438.59 468.85 438.08C471.92 436.92 475.14 435.66 478.46 434.29C478.74 434.18 479.02 434.06 479.29 433.94C480.19 433.57 481.11 433.18 482.02 432.79C482.9 432.42 483.77 432.04 484.66 431.65C484.77 431.61 484.89 431.56 485 431.5C485.69 431.2 486.38 430.89 487.08 430.58C487.51 430.4 487.94 430.2 488.37 430C489.05 429.69 489.74 429.38 490.44 429.06C492.89 427.92 495.36 426.73 497.85 425.49L497.8 425.47Z" fill="#BEBBBF"/>
<path d="M490.38 429.04L494.55 440.14C493.6 440.58 492.65 441.01 491.72 441.43C491.25 441.65 490.78 441.86 490.31 442.06C489.8 442.29 489.28 442.52 488.76 442.75C488.16 443.01 487.57 443.27 486.98 443.53C486.7 443.65 486.43 443.77 486.15 443.88C484.59 444.55 483.05 445.2 481.53 445.82C481.27 445.93 481 446.03 480.74 446.14C475.69 448.19 470.91 449.98 466.52 451.53C466.44 451.56 466.38 451.58 466.3 451.6C465.46 451.89 464.62 452.18 463.8 452.47C462.69 452.85 461.62 453.21 460.58 453.55C460.08 453.72 459.58 453.88 459.1 454.04C458.41 454.26 457.73 454.48 457.08 454.69C455.95 455.05 454.87 455.39 453.84 455.7C452.73 456.04 451.67 456.36 450.69 456.65L446.52 445.55C447.01 445.4 447.52 445.25 448.04 445.1C448.59 444.93 449.14 444.77 449.72 444.59C450.97 444.21 452.31 443.79 453.71 443.34C454.15 443.2 454.6 443.05 455.06 442.9C456.22 442.52 457.42 442.12 458.66 441.7C459.38 441.46 460.11 441.21 460.85 440.95C461.36 440.78 461.86 440.6 462.39 440.41C463.2 440.13 464.02 439.84 464.86 439.53C466.16 439.06 467.49 438.57 468.84 438.06C471.91 436.9 475.13 435.64 478.45 434.27C478.73 434.16 479.01 434.04 479.28 433.92C480.18 433.55 481.1 433.16 482.01 432.77C482.89 432.4 483.76 432.02 484.65 431.63C484.76 431.59 484.88 431.54 484.99 431.48C485.68 431.18 486.37 430.87 487.07 430.56C487.5 430.38 487.93 430.18 488.36 429.98C489.04 429.67 489.73 429.36 490.43 429.04H490.38Z" fill="#F3EFF5"/>
<path d="M490.38 429.04L494.55 440.14C493.6 440.58 492.65 441.01 491.72 441.43C491.25 441.65 490.78 441.86 490.31 442.06C489.8 442.29 489.28 442.52 488.76 442.75C488.16 443.01 487.57 443.27 486.98 443.53C486.7 443.65 486.43 443.77 486.15 443.88C484.59 444.55 483.05 445.2 481.53 445.82C481.27 445.93 481 446.03 480.74 446.14C475.69 448.19 470.91 449.98 466.52 451.53C466.44 451.56 466.38 451.58 466.3 451.6C465.46 451.89 464.62 452.18 463.8 452.47C462.69 452.85 461.62 453.21 460.58 453.55C460.08 453.72 459.58 453.88 459.1 454.04C458.41 454.26 457.73 454.48 457.08 454.69C455.95 455.05 454.87 455.39 453.84 455.7C452.73 456.04 451.67 456.36 450.69 456.65L446.52 445.55C447.01 445.4 447.52 445.25 448.04 445.1C448.59 444.93 449.14 444.77 449.72 444.59C450.97 444.21 452.31 443.79 453.71 443.34C454.15 443.2 454.6 443.05 455.06 442.9C456.22 442.52 457.42 442.12 458.66 441.7C459.38 441.46 460.11 441.21 460.85 440.95C461.36 440.78 461.86 440.6 462.39 440.41C463.2 440.13 464.02 439.84 464.86 439.53C466.16 439.06 467.49 438.57 468.84 438.06C471.91 436.9 475.13 435.64 478.45 434.27C478.73 434.16 479.01 434.04 479.28 433.92C480.18 433.55 481.1 433.16 482.01 432.77C482.89 432.4 483.76 432.02 484.65 431.63C484.76 431.59 484.88 431.54 484.99 431.48C485.68 431.18 486.37 430.87 487.07 430.56C487.5 430.38 487.93 430.18 488.36 429.98C489.04 429.67 489.73 429.36 490.43 429.04H490.38Z" fill="#F3EFF5"/>
<path d="M494.56 440.15C497.01 439.01 499.48 437.81 501.97 436.57L502.98 439.26C492.76 444.37 482.8 448.55 473.99 451.87C459.54 457.3 448.16 460.43 443.75 461.55L442.74 458.85C444.31 458.45 447.05 457.73 450.67 456.66C451.66 456.37 452.71 456.05 453.82 455.71C454.85 455.4 455.93 455.06 457.06 454.69C457.71 454.49 458.39 454.26 459.08 454.05C459.56 453.89 460.06 453.72 460.57 453.56C461.61 453.21 462.69 452.86 463.79 452.47C464.61 452.18 465.45 451.9 466.3 451.6C466.37 451.58 466.44 451.56 466.51 451.53C470.9 449.98 475.68 448.19 480.73 446.15C480.99 446.04 481.26 445.93 481.52 445.82C483.04 445.21 484.58 444.56 486.14 443.89C486.42 443.78 486.7 443.66 486.97 443.53C487.56 443.27 488.16 443.02 488.75 442.75C489.27 442.53 489.78 442.3 490.3 442.07C490.77 441.87 491.24 441.65 491.71 441.44C492.65 441.02 493.6 440.59 494.54 440.14L494.56 440.15Z" fill="#555451"/>
<path d="M496.78 422.77L497.79 425.47C495.29 426.71 492.82 427.9 490.37 429.04C489.68 429.37 488.98 429.68 488.3 429.99C487.87 430.19 487.45 430.38 487.01 430.57C486.32 430.89 485.62 431.19 484.94 431.49C484.82 431.55 484.71 431.6 484.6 431.64C483.71 432.03 482.83 432.41 481.96 432.79C481.05 433.18 480.14 433.57 479.23 433.94C478.95 434.05 478.67 434.18 478.4 434.29C475.09 435.66 471.87 436.93 468.79 438.08C467.43 438.59 466.11 439.08 464.81 439.55C463.97 439.85 463.15 440.15 462.34 440.43C461.82 440.62 461.31 440.8 460.8 440.97C460.07 441.23 459.34 441.48 458.62 441.72C457.38 442.14 456.18 442.54 455.02 442.92C454.57 443.07 454.11 443.21 453.67 443.35C452.27 443.8 450.93 444.22 449.68 444.6C449.11 444.78 448.55 444.94 448.01 445.11C447.49 445.26 446.98 445.42 446.49 445.56C442.96 446.6 440.25 447.33 438.56 447.76L437.55 445.06C443.95 443.43 469.44 436.48 496.78 422.76V422.77Z" fill="#555451"/>
<path d="M410.735 373.773L403.004 376.679L440.601 476.707L448.333 473.8L410.735 373.773Z" fill="#555451"/>
<path d="M477.704 348.6L469.972 351.507L507.57 451.534L515.302 448.628L477.704 348.6Z" fill="#555451"/>
</svg>
