<svg width="620" height="1074" viewBox="0 0 620 1074" fill="none" xmlns="http://www.w3.org/2000/svg">
<path d="M439.3 282.08L438.27 282.41L423.05 287.24L404.04 293.28L394.95 296.17C394.87 293.46 394.86 290.83 394.92 288.33C394.93 287.98 394.93 287.64 394.95 287.3C394.95 287.15 394.95 287.01 394.96 286.87C394.97 286.48 394.98 286.1 395 285.72C395.01 285.34 395.03 284.96 395.05 284.59C395.07 284.22 395.08 283.85 395.1 283.48C395.16 282.48 395.22 281.51 395.29 280.57C395.35 279.76 395.41 278.96 395.48 278.19C395.5 277.89 395.53 277.59 395.56 277.29C395.65 276.33 395.74 275.41 395.84 274.53C396.04 272.71 396.26 271.08 396.46 269.66C396.62 269.08 396.77 268.5 396.9 267.95L397.2 267.86L399.12 267.25L425.85 258.75L437.13 255.17L438.07 254.87C440.27 267.89 439.61 278.58 439.3 282.08V282.08Z" fill="#F3EFF5"/>
<path d="M449.11 306.57L398.55 322.63C396.19 313.55 395.2 304.44 394.95 296.17L439.3 282.09C439.27 282.43 439.24 282.7 439.22 282.9C444.15 289.99 447.21 298.59 449.11 306.57V306.57Z" fill="#F3EFF5"/>
<path d="M463.91 357.07L418.88 371.38L418.17 371.61C417.44 370.36 416.65 369.04 415.79 367.62C412.61 362.34 408.63 355.73 405.52 348.02L442.99 336.12L452.42 333.13C452.69 335.28 453.06 337.22 453.5 339.01C455.57 347.4 459.33 352.09 462.85 355.84C463.01 356.02 463.19 356.21 463.36 356.42C463.54 356.62 463.72 356.84 463.91 357.07V357.07Z" fill="#F3EFF5"/>
<path d="M452.42 333.12L442.99 336.12L405.52 348.02C404.13 344.56 402.91 340.89 402.02 337.01C402.02 337.01 400.96 332.11 400.81 330.1C399.94 327.62 399.19 325.13 398.55 322.63L449.11 306.57C449.99 310.28 450.62 313.86 451.08 317.09C452.19 325 452.23 330.81 452.23 331.34C452.29 331.95 452.35 332.54 452.42 333.12V333.12Z" fill="#F3EFF5"/>
<path d="M448.49 361.97C452.84 352.48 451.64 335.9 451.3 332.12C452.68 345.12 457.28 351.35 462.12 356.53C462.36 356.79 462.61 357.08 462.88 357.4L448.49 361.97Z" fill="#DCDCDC"/>
<path d="M450.27 318.79C447.72 297.25 422.9 288.27 422.9 288.27C422.9 288.27 425.24 273.58 425.85 258.75L437.12 255.17C439.77 270.96 438.17 283.17 438.17 283.17C445.77 293.89 448.93 308.49 450.26 318.79H450.27Z" fill="#DCDCDC"/>
<path d="M430.97 367.54L419.15 371.29C415.69 365.31 411.37 356.89 406.45 347.72C401.46 338.42 401.52 333.73 400.19 328.26C399.78 327 399.39 325.74 399.04 324.47C398.87 323.86 398.71 323.24 398.55 322.63C398.26 321.5 397.98 320.36 397.73 319.22C397.62 318.75 397.52 318.28 397.42 317.81C397.16 316.54 396.91 315.26 396.69 313.99C396.6 313.47 396.52 312.96 396.44 312.45C396.37 312 396.3 311.55 396.24 311.11C396.22 311 396.2 310.88 396.19 310.77C396.1 310.14 396.01 309.52 395.94 308.9C395.85 308.21 395.77 307.52 395.69 306.84C395.65 306.49 395.61 306.13 395.58 305.78C395.49 304.92 395.41 304.07 395.35 303.22C395.28 302.45 395.23 301.68 395.18 300.92H395.17V300.56C395.12 299.82 395.07 299.08 395.04 298.35C395 297.62 394.97 296.89 394.95 296.17C394.87 293.46 394.86 290.83 394.92 288.33C394.93 287.98 394.93 287.64 394.95 287.3C394.95 287.15 394.95 287.01 394.96 286.87C394.97 286.48 394.98 286.1 395 285.72C395.01 285.34 395.03 284.96 395.05 284.59C395.07 284.22 395.08 283.85 395.1 283.48C395.16 282.48 395.22 281.51 395.29 280.57C395.35 279.76 395.41 278.96 395.48 278.19C395.5 277.89 395.53 277.59 395.56 277.29C395.65 276.33 395.74 275.41 395.84 274.53C396.45 272.42 396.91 270.2 397.2 267.86L399.12 267.25C401.14 272.59 404.34 282.81 404.04 293.28C403.99 295.02 403.85 296.76 403.59 298.49C402.83 303.5 404.92 311.21 408.22 319.56C411.39 327.56 415.68 336.14 419.66 343.53C425.49 354.35 430.65 362.59 430.65 362.59C430.65 362.59 430.75 364.4 430.97 367.54V367.54Z" fill="#DCDCDC"/>
<path d="M393.99 297.52L393.95 296.19C393.87 293.46 393.86 290.81 393.92 288.3V287.96C393.93 287.72 393.94 287.47 393.95 287.23C393.95 287.11 393.95 286.95 393.96 286.79C393.96 286.44 393.98 286.05 394 285.66C394 285.3 394.03 284.91 394.05 284.53L394.1 283.42C394.16 282.41 394.22 281.43 394.29 280.49C394.35 279.67 394.41 278.87 394.48 278.09C394.5 277.8 394.53 277.49 394.56 277.18C394.65 276.22 394.74 275.29 394.84 274.41C395.05 272.53 395.27 270.88 395.46 269.51L395.49 269.38C395.65 268.81 395.79 268.24 395.92 267.71L396.05 267.15L398.81 266.29L438.85 253.56L439.04 254.7C441.21 267.57 440.63 278.19 440.28 282.16L440.22 282.82L393.97 297.51L393.99 297.52ZM397.44 269.86C397.25 271.2 397.03 272.8 396.83 274.64C396.73 275.52 396.64 276.43 396.55 277.38C396.52 277.68 396.49 277.96 396.47 278.25C396.4 279.04 396.34 279.83 396.28 280.64C396.21 281.58 396.15 282.54 396.09 283.54L396.04 284.64C396.02 285 396 285.37 395.99 285.74C395.97 286.14 395.96 286.51 395.95 286.89C395.94 287.05 395.95 287.17 395.95 287.29C395.94 287.56 395.93 287.78 395.93 288V288.35C395.87 290.41 395.87 292.58 395.92 294.8L438.36 281.32C438.69 277.13 439.08 267.64 437.27 256.16L397.74 268.72C397.65 269.09 397.55 269.47 397.44 269.84V269.86Z" fill="#D4D1D6"/>
<path d="M397.85 323.9L397.58 322.88C395.46 314.72 394.24 305.74 393.95 296.2L393.93 295.45L440.43 280.69L440.3 282.19C440.29 282.36 440.27 282.51 440.26 282.65C444.52 288.88 447.83 296.85 450.09 306.35L450.31 307.25L397.86 323.91L397.85 323.9ZM395.98 296.89C396.29 305.61 397.39 313.83 399.26 321.35L447.92 305.89C445.69 296.88 442.49 289.34 438.4 283.46L438.37 283.42L395.97 296.88L395.98 296.89Z" fill="#D4D1D6"/>
<path d="M417.72 372.81L417.31 372.12C416.58 370.87 415.8 369.56 414.94 368.14C411.73 362.81 407.74 356.18 404.6 348.4L404.2 347.4L453.27 331.82L453.42 333.01C453.67 335.01 454.02 336.9 454.48 338.78C456.54 347.14 460.26 351.62 463.59 355.16L463.74 355.33C463.87 355.48 464.01 355.63 464.15 355.8C464.29 355.95 464.46 356.16 464.64 356.37L465.58 357.51L464.22 358.03L417.72 372.82V372.81ZM406.87 348.65C409.89 355.86 413.63 362.08 416.66 367.11C417.36 368.27 418.02 369.37 418.64 370.42L462.18 356.58L462.12 356.51C458.38 352.53 454.62 347.67 452.55 339.26C452.16 337.68 451.85 336.1 451.61 334.45L406.88 348.65H406.87Z" fill="#D4D1D6"/>
<path d="M404.94 349.25L404.59 348.39C403.04 344.54 401.88 340.89 401.04 337.23C400.99 337.02 400 332.43 399.82 330.31C398.97 327.89 398.22 325.39 397.58 322.88L397.35 321.96L449.84 305.29L450.09 306.34C450.88 309.67 451.55 313.24 452.08 316.95C453.23 325.12 453.24 331.09 453.24 331.34C453.29 331.84 453.35 332.43 453.42 333L453.52 333.82L404.95 349.25H404.94ZM399.76 323.29C400.34 325.48 401.01 327.65 401.76 329.76L401.81 330.02C401.95 331.94 402.99 336.74 403 336.79C403.75 340.06 404.77 343.34 406.11 346.78L451.34 332.41C451.31 332.09 451.27 331.76 451.24 331.43C451.24 331.09 451.22 325.25 450.09 317.22C449.63 313.96 449.05 310.81 448.38 307.84L399.76 323.28V323.29Z" fill="#D4D1D6"/>
</svg>
