<svg width="620" height="1074" viewBox="0 0 620 1074" fill="none" xmlns="http://www.w3.org/2000/svg">
<path d="M234.73 751.84C236.34 751.91 238.01 751.97 239.73 752.02C238.02 751.97 236.34 751.91 234.73 751.84Z" fill="#555451"/>
<path d="M300.52 590.69V647.48C255.77 652.21 217.08 648.57 207.42 647.51V590.69H195.27V1029.18H312.66V590.69H300.52V590.69ZM207.42 651.76C209.97 652.03 214.08 652.44 219.48 652.83C220.23 652.88 221.01 652.94 221.81 652.99C222.65 653.05 223.5 653.1 224.38 653.15C226.31 653.27 228.36 653.39 230.53 653.49C231.21 653.52 231.91 653.56 232.61 653.59C234.4 653.67 236.26 653.74 238.18 653.8C239.29 653.84 240.43 653.88 241.58 653.9C242.37 653.92 243.16 653.94 243.97 653.95C245.23 653.98 246.52 654 247.82 654.02C249.85 654.05 251.93 654.06 254.06 654.06C255.79 654.06 257.55 654.05 259.35 654.03C260.25 654.02 261.16 654.01 262.07 654C263.06 653.98 264.07 653.96 265.08 653.93C265.92 653.92 266.75 653.9 267.6 653.86C269.49 653.8 271.4 653.74 273.35 653.66C274.29 653.62 275.25 653.58 276.21 653.53C277.99 653.44 279.79 653.34 281.6 653.25C281.95 653.23 282.29 653.21 282.64 653.18C283.45 653.14 284.28 653.08 285.1 653.02C290.12 652.68 295.27 652.24 300.49 651.71V670.37C296.41 670.8 292.39 671.16 288.43 671.45C286.89 671.57 285.34 671.68 283.82 671.78C280.77 671.99 277.77 672.15 274.83 672.27C271.88 672.41 268.98 672.51 266.15 672.58C264.03 672.65 261.94 672.68 259.89 672.7C259.2 672.71 258.53 672.71 257.84 672.72C254.69 672.75 251.64 672.74 248.7 672.71C247.01 672.69 245.37 672.67 243.77 672.63C242.16 672.6 240.59 672.55 239.06 672.51C238 672.48 236.93 672.43 235.9 672.4C234.73 672.36 233.58 672.31 232.45 672.26C229.52 672.13 226.77 671.98 224.24 671.82C222.53 671.71 220.93 671.6 219.43 671.49C213.88 671.07 209.75 670.66 207.37 670.4V651.75L207.42 651.76ZM207.42 674.66C214.07 675.37 231.35 676.97 254.07 676.97C267.92 676.97 283.79 676.37 300.52 674.62V728.19C255.77 732.92 217.08 729.29 207.42 728.22V674.66ZM207.42 732.47C209.97 732.74 214.08 733.15 219.48 733.54C220.23 733.59 221.01 733.65 221.81 733.7C222.65 733.75 223.5 733.81 224.38 733.86C226.31 733.98 228.36 734.1 230.53 734.2C231.21 734.23 231.91 734.27 232.61 734.3C234.4 734.38 236.26 734.45 238.18 734.51C239.29 734.55 240.43 734.59 241.58 734.61C242.37 734.63 243.16 734.65 243.97 734.66C245.23 734.69 246.52 734.71 247.82 734.73C249.85 734.76 251.93 734.77 254.06 734.77C258.89 734.77 263.98 734.69 269.25 734.52C269.69 734.51 270.14 734.49 270.58 734.48C272.02 734.44 273.47 734.37 274.93 734.3C276.32 734.25 277.73 734.17 279.15 734.09C279.33 734.09 279.51 734.08 279.7 734.06C280.8 734.01 281.91 733.94 283.04 733.86C283.72 733.83 284.42 733.78 285.11 733.73C286.21 733.66 287.32 733.59 288.45 733.5C292.41 733.2 296.43 732.84 300.51 732.42V749.86C296.43 750.29 292.41 750.65 288.45 750.95C286.92 751.07 285.39 751.17 283.88 751.27C283.11 751.32 282.36 751.37 281.61 751.41C280.78 751.46 279.95 751.51 279.12 751.55C278.16 751.6 277.21 751.65 276.26 751.7C275.82 751.72 275.37 751.74 274.93 751.75C272.43 751.87 269.98 751.96 267.56 752.02C267.14 752.03 266.72 752.04 266.3 752.05C258.29 752.26 250.77 752.25 243.93 752.1C243.81 752.1 243.7 752.1 243.6 752.09C242.28 752.06 240.98 752.02 239.7 751.99C237.98 751.95 236.31 751.88 234.7 751.81C233.92 751.78 233.16 751.74 232.4 751.71C231.34 751.66 230.28 751.61 229.28 751.56C227.53 751.47 225.87 751.37 224.29 751.28C222.58 751.17 220.96 751.06 219.46 750.95C213.91 750.53 209.77 750.12 207.4 749.86V732.44L207.42 732.47ZM207.42 754.13C214.07 754.86 231.35 756.45 254.07 756.45C267.92 756.45 283.79 755.84 300.52 754.1V842.45C296.44 842.88 292.42 843.24 288.46 843.53C286.92 843.65 285.37 843.76 283.85 843.86C282.33 843.96 280.81 844.05 279.32 844.13C277.81 844.22 276.33 844.29 274.86 844.35C271.91 844.49 269.01 844.59 266.18 844.66C264.77 844.7 263.36 844.74 261.98 844.75C260.59 844.77 259.23 844.79 257.88 844.8C254.73 844.83 251.68 844.82 248.74 844.79C247.05 844.77 245.41 844.75 243.81 844.71C242.2 844.68 240.63 844.63 239.1 844.59C238.04 844.56 236.97 844.51 235.94 844.48C234.77 844.44 233.62 844.39 232.49 844.34C229.56 844.21 226.81 844.06 224.28 843.9C223.43 843.85 222.61 843.79 221.8 843.74C221 843.69 220.22 843.63 219.47 843.58C213.92 843.16 209.79 842.75 207.41 842.49V754.14L207.42 754.13ZM207.42 846.72C214.07 847.44 231.35 849.03 254.07 849.03C267.92 849.03 283.79 848.43 300.52 846.69V900.26C255.77 904.98 217.08 901.35 207.42 900.29V846.72V846.72ZM207.42 904.54C208.7 904.67 210.36 904.85 212.38 905.02C212.88 905.06 213.41 905.12 213.96 905.16C214.08 905.17 214.2 905.18 214.32 905.19C214.68 905.22 215.05 905.26 215.43 905.29C216.69 905.4 218.04 905.5 219.47 905.61C219.78 905.63 220.1 905.65 220.43 905.68C220.67 905.7 220.9 905.71 221.14 905.73C221.91 905.78 222.68 905.83 223.5 905.88C223.69 905.89 223.89 905.91 224.11 905.91C224.22 905.92 224.33 905.93 224.43 905.93C224.53 905.94 224.62 905.95 224.72 905.95C225.32 905.99 225.94 906.03 226.56 906.06C226.98 906.08 227.39 906.1 227.8 906.13C228.69 906.17 229.59 906.23 230.53 906.27C230.71 906.28 230.89 906.29 231.08 906.29C232.19 906.34 233.34 906.4 234.53 906.44C234.61 906.44 234.69 906.45 234.77 906.45C235.87 906.49 236.98 906.54 238.13 906.57C240.02 906.64 241.97 906.69 243.98 906.72C245.25 906.75 246.53 906.77 247.83 906.79C248.52 906.8 249.22 906.81 249.92 906.81C250.24 906.82 250.58 906.82 250.91 906.82C251.95 906.83 253 906.83 254.07 906.83C256.49 906.83 258.97 906.81 261.51 906.78C261.7 906.77 261.88 906.77 262.07 906.77C262.79 906.76 263.49 906.74 264.21 906.73C264.58 906.72 264.96 906.71 265.33 906.7C265.65 906.7 265.98 906.69 266.31 906.68C266.74 906.67 267.17 906.66 267.6 906.65C268.15 906.64 268.7 906.62 269.25 906.6C269.69 906.59 270.14 906.57 270.58 906.56C272.02 906.52 273.46 906.46 274.93 906.38C275.26 906.37 275.59 906.36 275.92 906.34C276.28 906.33 276.64 906.31 277.02 906.29C277.46 906.28 277.91 906.25 278.36 906.22C278.8 906.2 279.25 906.18 279.7 906.14C280.8 906.09 281.91 906.02 283.04 905.94C283.72 905.91 284.42 905.86 285.11 905.81C286.21 905.74 287.32 905.67 288.45 905.58C292.41 905.27 296.43 904.92 300.51 904.5V921.94C296.43 922.37 292.41 922.73 288.45 923.03C288.34 923.04 288.23 923.04 288.13 923.05C287.11 923.13 286.1 923.19 285.09 923.26C284.09 923.34 283.09 923.4 282.09 923.46C281.1 923.53 280.1 923.58 279.12 923.63C277.15 923.74 275.2 923.83 273.27 923.9C272.7 923.93 272.12 923.95 271.56 923.97C271.17 923.99 270.78 924 270.4 924.01C269.44 924.04 268.5 924.08 267.57 924.1C266.9 924.12 266.23 924.14 265.57 924.15C264.92 924.17 264.27 924.18 263.62 924.19L262.11 924.22H262.01C260.18 924.25 258.39 924.26 256.63 924.27C254.76 924.28 252.93 924.28 251.14 924.27C250.92 924.27 250.72 924.27 250.51 924.26C248.25 924.25 246.05 924.23 243.91 924.17C243.34 924.16 242.76 924.15 242.2 924.13C242.01 924.13 241.83 924.13 241.64 924.12C241.2 924.12 240.75 924.1 240.31 924.09C239.93 924.08 239.56 924.07 239.19 924.06C237.47 924.01 235.79 923.95 234.18 923.89C233.58 923.87 233 923.84 232.42 923.81C232.18 923.8 231.95 923.79 231.71 923.78C230.86 923.74 230.04 923.7 229.22 923.66C228.3 923.61 227.39 923.56 226.5 923.51C226.15 923.49 225.82 923.48 225.48 923.46C225.2 923.44 224.94 923.43 224.67 923.41C224.55 923.41 224.42 923.4 224.3 923.39C223.44 923.34 222.61 923.28 221.81 923.23C221.01 923.18 220.22 923.12 219.47 923.07C216.69 922.86 214.28 922.65 212.26 922.47C211.84 922.43 211.45 922.39 211.06 922.35C210.65 922.32 210.27 922.27 209.9 922.24C209.57 922.21 209.24 922.17 208.94 922.14C208.37 922.09 207.85 922.03 207.41 921.98V904.56L207.42 904.54ZM207.42 1017.65V926.2C214.07 926.92 231.35 928.52 254.07 928.52C267.92 928.52 283.79 927.91 300.52 926.17V1017.65H207.42Z" fill="#555451"/>
<path d="M300.52 732.42V749.86C296.44 750.29 292.42 750.65 288.46 750.95C286.93 751.07 285.4 751.17 283.89 751.27C283.12 751.32 282.37 751.37 281.62 751.41C280.79 751.46 279.96 751.51 279.13 751.55C278.17 751.6 277.22 751.65 276.27 751.7C275.83 751.72 275.38 751.74 274.94 751.75C272.44 751.87 269.99 751.96 267.57 752.02C267.15 752.03 266.73 752.04 266.31 752.05C258.3 752.26 250.78 752.25 243.94 752.1C243.82 752.1 243.71 752.1 243.61 752.09C242.29 752.06 240.99 752.02 239.71 751.99C238 751.94 236.32 751.88 234.71 751.81C233.93 751.78 233.17 751.74 232.41 751.71C231.35 751.66 230.29 751.61 229.29 751.56C227.54 751.47 225.88 751.37 224.3 751.28C222.59 751.17 220.97 751.06 219.47 750.95C213.92 750.53 209.78 750.12 207.41 749.86V732.44C209.96 732.71 214.07 733.12 219.47 733.51C220.22 733.56 221 733.62 221.8 733.67C222.64 733.72 223.49 733.78 224.37 733.83C226.3 733.95 228.35 734.07 230.52 734.17C231.2 734.2 231.9 734.24 232.6 734.27C234.39 734.35 236.25 734.42 238.17 734.48C239.28 734.52 240.42 734.56 241.57 734.58C242.36 734.6 243.15 734.62 243.96 734.63C245.22 734.66 246.51 734.68 247.81 734.7C249.84 734.73 251.92 734.74 254.05 734.74C258.88 734.74 263.97 734.66 269.24 734.49C269.68 734.48 270.13 734.46 270.57 734.45C272.01 734.41 273.46 734.34 274.92 734.27C276.32 734.22 277.72 734.15 279.14 734.06C279.32 734.06 279.5 734.05 279.69 734.03C280.79 733.98 281.9 733.91 283.03 733.83C283.71 733.8 284.41 733.75 285.1 733.7C286.2 733.63 287.31 733.56 288.44 733.47C292.4 733.17 296.42 732.81 300.5 732.39L300.52 732.42Z" fill="#BEBBBF"/>
<path d="M300.52 651.72V670.38C296.44 670.81 292.42 671.17 288.46 671.46C286.92 671.58 285.37 671.69 283.85 671.79C280.8 672 277.8 672.16 274.86 672.28C271.91 672.42 269.01 672.52 266.18 672.59C264.06 672.66 261.97 672.69 259.92 672.71C259.23 672.72 258.56 672.72 257.87 672.73C254.72 672.76 251.67 672.75 248.73 672.72C247.04 672.7 245.4 672.68 243.8 672.64C242.19 672.61 240.62 672.56 239.09 672.52C238.03 672.49 236.96 672.44 235.93 672.41C234.76 672.37 233.61 672.32 232.48 672.27C229.55 672.14 226.8 671.99 224.27 671.83C222.56 671.72 220.96 671.61 219.46 671.5C213.91 671.08 209.78 670.67 207.4 670.41V651.76C209.95 652.03 214.06 652.44 219.46 652.83C220.21 652.88 220.99 652.94 221.79 652.99C222.63 653.05 223.48 653.1 224.36 653.15C226.29 653.27 228.34 653.39 230.51 653.49C231.19 653.52 231.89 653.56 232.59 653.59C234.38 653.67 236.24 653.74 238.16 653.8C239.27 653.84 240.41 653.88 241.56 653.9C242.35 653.92 243.14 653.94 243.95 653.95C245.21 653.98 246.5 654 247.8 654.02C249.83 654.05 251.91 654.06 254.04 654.06C255.77 654.06 257.53 654.05 259.33 654.03C260.23 654.02 261.14 654.01 262.05 654C263.04 653.98 264.05 653.96 265.06 653.93C265.9 653.92 266.73 653.9 267.58 653.86C269.47 653.8 271.38 653.74 273.33 653.66C274.27 653.62 275.23 653.58 276.19 653.53C277.96 653.45 279.77 653.36 281.58 653.25C281.93 653.23 282.27 653.21 282.62 653.18C283.43 653.14 284.26 653.08 285.08 653.02C290.1 652.68 295.25 652.24 300.47 651.71L300.52 651.72Z" fill="#BEBBBF"/>
<path d="M288.47 652.8V671.46C286.93 671.58 285.38 671.69 283.86 671.79C280.81 671.99 277.81 672.15 274.87 672.28C271.92 672.41 269.02 672.51 266.19 672.59C264.07 672.64 261.98 672.68 259.93 672.71C259.24 672.72 258.57 672.72 257.88 672.73C254.73 672.75 251.68 672.75 248.74 672.72C247.05 672.7 245.41 672.68 243.81 672.64C242.2 672.6 240.63 672.56 239.1 672.52C238.04 672.49 236.97 672.44 235.94 672.41C234.77 672.37 233.62 672.32 232.49 672.27C229.56 672.14 226.81 671.99 224.28 671.83C222.57 671.72 220.97 671.61 219.47 671.5V652.82C220.22 652.87 221 652.93 221.8 652.98C222.64 653.04 223.49 653.09 224.37 653.14C226.3 653.26 228.35 653.38 230.52 653.48C231.2 653.51 231.9 653.55 232.6 653.58C234.39 653.66 236.25 653.73 238.17 653.79C239.28 653.83 240.42 653.87 241.57 653.89C242.36 653.91 243.15 653.93 243.96 653.94C245.22 653.97 246.51 653.99 247.81 654.01C249.84 654.04 251.92 654.05 254.05 654.05C255.78 654.05 257.54 654.04 259.34 654.02C260.24 654.01 261.15 654 262.06 653.99C263.05 653.97 264.06 653.95 265.07 653.92C265.91 653.91 266.74 653.89 267.59 653.85C269.48 653.79 271.39 653.73 273.34 653.65C274.28 653.61 275.24 653.57 276.2 653.52C277.97 653.44 279.78 653.35 281.59 653.24C281.94 653.22 282.28 653.2 282.63 653.17C283.44 653.13 284.27 653.07 285.09 653.01C286.2 652.94 287.31 652.87 288.43 652.78L288.47 652.8Z" fill="#F3EFF5"/>
<path d="M288.47 733.51V750.96C286.94 751.08 285.41 751.18 283.9 751.28C283.13 751.33 282.38 751.38 281.63 751.42C280.8 751.47 279.97 751.52 279.14 751.56C278.18 751.61 277.23 751.66 276.28 751.71C275.84 751.73 275.39 751.75 274.95 751.76C272.45 751.88 270 751.97 267.58 752.03C267.16 752.04 266.74 752.05 266.32 752.06C258.31 752.27 250.79 752.26 243.95 752.11C243.83 752.11 243.72 752.11 243.62 752.1C242.3 752.07 241 752.03 239.72 752C238 751.96 236.33 751.89 234.72 751.82C233.94 751.79 233.18 751.75 232.42 751.72C231.36 751.67 230.3 751.62 229.3 751.57C227.55 751.48 225.89 751.38 224.31 751.29C222.6 751.18 220.98 751.07 219.48 750.96V733.52C220.23 733.57 221.01 733.63 221.81 733.68C222.65 733.73 223.5 733.79 224.38 733.84C226.31 733.96 228.36 734.08 230.53 734.18C231.21 734.21 231.91 734.25 232.61 734.28C234.4 734.36 236.26 734.43 238.18 734.49C239.29 734.53 240.43 734.57 241.58 734.59C242.37 734.61 243.16 734.63 243.97 734.64C245.23 734.67 246.52 734.69 247.82 734.71C249.85 734.74 251.93 734.75 254.06 734.75C258.89 734.75 263.98 734.67 269.25 734.5C269.69 734.49 270.14 734.47 270.58 734.46C272.02 734.42 273.47 734.35 274.93 734.28C276.33 734.23 277.73 734.16 279.15 734.07C279.33 734.07 279.51 734.06 279.7 734.04C280.8 733.99 281.91 733.92 283.04 733.84C283.72 733.81 284.42 733.76 285.11 733.71C286.21 733.64 287.32 733.57 288.45 733.48L288.47 733.51Z" fill="#F3EFF5"/>
<path d="M288.47 733.51V750.96C286.94 751.08 285.41 751.18 283.9 751.28C283.13 751.33 282.38 751.38 281.63 751.42C280.8 751.47 279.97 751.52 279.14 751.56C278.18 751.61 277.23 751.66 276.28 751.71C275.84 751.73 275.39 751.75 274.95 751.76C272.45 751.88 270 751.97 267.58 752.03C267.16 752.04 266.74 752.05 266.32 752.06C258.31 752.27 250.79 752.26 243.95 752.11C243.83 752.11 243.72 752.11 243.62 752.1C242.3 752.07 241 752.03 239.72 752C238 751.96 236.33 751.89 234.72 751.82C233.94 751.79 233.18 751.75 232.42 751.72C231.36 751.67 230.3 751.62 229.3 751.57C227.55 751.48 225.89 751.38 224.31 751.29C222.6 751.18 220.98 751.07 219.48 750.96V733.52C220.23 733.57 221.01 733.63 221.81 733.68C222.65 733.73 223.5 733.79 224.38 733.84C226.31 733.96 228.36 734.08 230.53 734.18C231.21 734.21 231.91 734.25 232.61 734.28C234.4 734.36 236.26 734.43 238.18 734.49C239.29 734.53 240.43 734.57 241.58 734.59C242.37 734.61 243.16 734.63 243.97 734.64C245.23 734.67 246.52 734.69 247.82 734.71C249.85 734.74 251.93 734.75 254.06 734.75C258.89 734.75 263.98 734.67 269.25 734.5C269.69 734.49 270.14 734.47 270.58 734.46C272.02 734.42 273.47 734.35 274.93 734.28C276.33 734.23 277.73 734.16 279.15 734.07C279.33 734.07 279.51 734.06 279.7 734.04C280.8 733.99 281.91 733.92 283.04 733.84C283.72 733.81 284.42 733.76 285.11 733.71C286.21 733.64 287.32 733.57 288.45 733.48L288.47 733.51Z" fill="#F3EFF5"/>
<path d="M288.47 652.8V671.46C286.93 671.58 285.38 671.69 283.86 671.79C280.81 671.99 277.81 672.15 274.87 672.28C271.92 672.41 269.02 672.51 266.19 672.59C264.07 672.64 261.98 672.68 259.93 672.71C259.24 672.72 258.57 672.72 257.88 672.73C254.73 672.75 251.68 672.75 248.74 672.72C247.05 672.7 245.41 672.68 243.81 672.64C242.2 672.6 240.63 672.56 239.1 672.52C238.04 672.49 236.97 672.44 235.94 672.41C234.77 672.37 233.62 672.32 232.49 672.27C229.56 672.14 226.81 671.99 224.28 671.83C222.57 671.72 220.97 671.61 219.47 671.5V652.82C220.22 652.87 221 652.93 221.8 652.98C222.64 653.04 223.49 653.09 224.37 653.14C226.3 653.26 228.35 653.38 230.52 653.48C231.2 653.51 231.9 653.55 232.6 653.58C234.39 653.66 236.25 653.73 238.17 653.79C239.28 653.83 240.42 653.87 241.57 653.89C242.36 653.91 243.15 653.93 243.96 653.94C245.22 653.97 246.51 653.99 247.81 654.01C249.84 654.04 251.92 654.05 254.05 654.05C255.78 654.05 257.54 654.04 259.34 654.02C260.24 654.01 261.15 654 262.06 653.99C263.05 653.97 264.06 653.95 265.07 653.92C265.91 653.91 266.74 653.89 267.59 653.85C269.48 653.79 271.39 653.73 273.34 653.65C274.28 653.61 275.24 653.57 276.2 653.52C277.97 653.44 279.78 653.35 281.59 653.24C281.94 653.22 282.28 653.2 282.63 653.17C283.44 653.13 284.27 653.07 285.09 653.01C286.2 652.94 287.31 652.87 288.43 652.78L288.47 652.8Z" fill="#F3EFF5"/>
<path d="M220.44 905.67C220.12 905.65 219.79 905.63 219.48 905.6C219.9 905.63 220.33 905.67 220.77 905.7C220.89 905.7 221.02 905.71 221.14 905.72C220.9 905.7 220.67 905.69 220.43 905.67H220.44ZM207.43 819.58V823.82C209.98 824.09 214.09 824.5 219.49 824.89C224.02 825.22 229.47 825.55 235.64 825.78C236.27 825.8 236.91 825.82 237.55 825.85C238.87 825.91 240.22 825.94 241.59 825.97C242.38 825.99 243.17 826.01 243.98 826.02C245.24 826.05 246.53 826.07 247.83 826.09C249.86 826.12 251.94 826.13 254.07 826.13C255.8 826.13 257.56 826.12 259.36 826.1C259.8 826.1 260.26 826.09 260.71 826.09C261.86 826.07 263.03 826.05 264.21 826.02C264.5 826.02 264.8 826.01 265.08 826C265.92 825.99 266.75 825.97 267.6 825.93C267.88 825.93 268.15 825.92 268.44 825.91C270.17 825.86 271.94 825.79 273.74 825.71C274.55 825.68 275.38 825.64 276.22 825.6C276.94 825.57 277.66 825.53 278.4 825.49C279.12 825.46 279.86 825.41 280.59 825.37C282.09 825.29 283.59 825.2 285.12 825.09C290.14 824.75 295.29 824.31 300.51 823.78V819.55C255.76 824.27 217.07 820.64 207.41 819.58H207.43Z" fill="#555451"/>
<path d="M300.52 904.49V921.93C296.44 922.36 292.42 922.72 288.46 923.02C288.35 923.03 288.24 923.03 288.14 923.04C287.12 923.12 286.11 923.18 285.1 923.25C284.1 923.33 283.1 923.39 282.1 923.45C281.11 923.52 280.11 923.57 279.13 923.62C277.16 923.72 275.21 923.82 273.28 923.89C272.71 923.92 272.13 923.94 271.57 923.96C271.18 923.98 270.79 923.99 270.41 924C269.45 924.03 268.51 924.07 267.58 924.09C266.91 924.11 266.24 924.13 265.58 924.14C264.93 924.16 264.28 924.17 263.63 924.18L262.12 924.21H262.02C260.19 924.24 258.4 924.25 256.64 924.26C254.77 924.27 252.94 924.27 251.15 924.26C250.93 924.26 250.73 924.26 250.52 924.25C248.26 924.24 246.06 924.22 243.92 924.16C243.35 924.15 242.77 924.14 242.21 924.12C242.02 924.12 241.84 924.12 241.65 924.11C241.21 924.11 240.76 924.09 240.32 924.08C239.94 924.07 239.57 924.06 239.2 924.05C237.48 924 235.8 923.94 234.19 923.88C233.59 923.86 233.01 923.83 232.43 923.8C232.19 923.79 231.96 923.78 231.72 923.77C230.87 923.73 230.05 923.68 229.23 923.65C228.31 923.6 227.4 923.55 226.51 923.5C226.28 923.49 226.06 923.48 225.83 923.46L224.68 923.39C224.56 923.39 224.43 923.38 224.31 923.37C223.45 923.32 222.62 923.26 221.82 923.21C221.02 923.16 220.23 923.1 219.48 923.05C216.7 922.84 214.29 922.63 212.27 922.45C211.85 922.41 211.46 922.37 211.07 922.33C210.66 922.3 210.28 922.25 209.91 922.22C209.58 922.19 209.25 922.15 208.95 922.12C208.38 922.07 207.86 922.01 207.42 921.96V904.54C208.7 904.67 210.36 904.85 212.38 905.02C212.88 905.07 213.41 905.12 213.96 905.16C214.08 905.17 214.2 905.18 214.32 905.19C214.68 905.22 215.05 905.26 215.43 905.29C216.69 905.4 218.04 905.5 219.47 905.61C219.78 905.63 220.1 905.65 220.43 905.68C220.67 905.7 220.9 905.71 221.14 905.73C221.91 905.78 222.68 905.83 223.5 905.88C223.69 905.89 223.89 905.91 224.11 905.91C224.22 905.92 224.33 905.93 224.43 905.93C224.53 905.94 224.62 905.95 224.72 905.95C225.32 905.99 225.94 906.03 226.56 906.06C226.98 906.08 227.39 906.1 227.8 906.13C228.69 906.18 229.59 906.23 230.53 906.27C230.71 906.28 230.89 906.29 231.08 906.29C232.19 906.34 233.34 906.4 234.53 906.44C234.61 906.44 234.69 906.45 234.77 906.45C235.87 906.49 236.98 906.54 238.13 906.57C240.02 906.64 241.97 906.69 243.98 906.72C245.25 906.75 246.53 906.77 247.83 906.79C248.52 906.8 249.22 906.81 249.92 906.81C250.24 906.82 250.58 906.82 250.91 906.82C251.95 906.83 253 906.83 254.07 906.83C256.49 906.83 258.97 906.81 261.51 906.78C261.7 906.77 261.88 906.77 262.07 906.77C262.79 906.76 263.49 906.74 264.21 906.73C264.41 906.72 264.62 906.72 264.82 906.72C265.31 906.71 265.81 906.7 266.32 906.68C266.75 906.67 267.18 906.66 267.61 906.65C268.16 906.64 268.71 906.62 269.26 906.6C269.7 906.59 270.15 906.57 270.59 906.56C272.03 906.52 273.47 906.46 274.94 906.38C275.27 906.37 275.6 906.36 275.93 906.34C276.29 906.33 276.65 906.31 277.03 906.29C277.47 906.28 277.92 906.25 278.37 906.22C278.81 906.2 279.26 906.18 279.71 906.14C280.81 906.09 281.92 906.02 283.05 905.94C283.73 905.91 284.43 905.86 285.12 905.81C286.22 905.74 287.33 905.67 288.46 905.58C292.42 905.27 296.44 904.92 300.52 904.5V904.49Z" fill="#BEBBBF"/>
<path d="M300.52 823.79V842.45C296.44 842.88 292.42 843.24 288.46 843.53C286.92 843.65 285.37 843.76 283.85 843.86C282.33 843.96 280.81 844.05 279.32 844.13C277.81 844.21 276.33 844.28 274.86 844.35C271.91 844.49 269.01 844.59 266.18 844.66C264.77 844.69 263.37 844.73 261.98 844.75C260.59 844.77 259.23 844.79 257.88 844.8C254.73 844.83 251.68 844.82 248.74 844.79C247.05 844.77 245.41 844.75 243.81 844.71C242.2 844.68 240.63 844.63 239.1 844.59C238.04 844.56 236.97 844.51 235.94 844.48C234.77 844.44 233.62 844.39 232.49 844.34C229.56 844.21 226.81 844.06 224.28 843.9C223.43 843.85 222.61 843.79 221.8 843.74C221 843.69 220.22 843.63 219.47 843.58C213.92 843.16 209.79 842.75 207.41 842.49V823.84C209.96 824.11 214.07 824.52 219.47 824.91C224 825.24 229.45 825.57 235.62 825.8C236.25 825.82 236.89 825.84 237.53 825.87C238.85 825.93 240.2 825.96 241.57 825.99C242.36 826.01 243.15 826.03 243.96 826.04C245.22 826.07 246.51 826.09 247.81 826.11C249.84 826.14 251.92 826.15 254.05 826.15C255.78 826.15 257.54 826.14 259.34 826.12C259.78 826.12 260.24 826.11 260.69 826.11C261.84 826.09 263.01 826.07 264.19 826.04C264.48 826.04 264.78 826.03 265.06 826.02C265.9 826.01 266.73 825.99 267.58 825.95C267.86 825.95 268.13 825.94 268.42 825.93C270.15 825.88 271.92 825.81 273.72 825.73C274.53 825.7 275.36 825.66 276.2 825.62C276.92 825.59 277.64 825.55 278.38 825.51C279.1 825.48 279.84 825.43 280.57 825.39C282.07 825.31 283.57 825.22 285.1 825.11C290.12 824.77 295.27 824.33 300.49 823.8L300.52 823.79Z" fill="#BEBBBF"/>
<path d="M288.47 824.87V843.53C286.93 843.65 285.38 843.76 283.86 843.86C282.34 843.96 280.82 844.05 279.33 844.13C277.82 844.21 276.34 844.28 274.87 844.35C271.92 844.48 269.02 844.58 266.19 844.66C264.78 844.69 263.38 844.73 261.99 844.75C260.6 844.77 259.24 844.79 257.89 844.8C254.74 844.82 251.69 844.82 248.75 844.79C247.06 844.77 245.42 844.75 243.82 844.71C242.21 844.67 240.64 844.63 239.11 844.59C238.05 844.56 236.98 844.51 235.95 844.48C234.78 844.44 233.63 844.39 232.5 844.34C229.57 844.21 226.82 844.06 224.29 843.9C223.44 843.85 222.62 843.79 221.81 843.74C221.01 843.69 220.23 843.63 219.48 843.58V824.9C224.01 825.23 229.46 825.56 235.63 825.79C236.26 825.81 236.9 825.83 237.54 825.86C238.86 825.92 240.21 825.95 241.58 825.98C242.37 826 243.16 826.02 243.97 826.03C245.23 826.06 246.52 826.08 247.82 826.1C249.85 826.13 251.93 826.14 254.06 826.14C255.79 826.14 257.55 826.13 259.35 826.11C259.79 826.11 260.25 826.1 260.7 826.1C261.85 826.08 263.02 826.06 264.2 826.03C264.49 826.03 264.79 826.02 265.07 826.01C265.91 826 266.74 825.98 267.59 825.94C267.87 825.94 268.14 825.93 268.43 825.92C270.16 825.87 271.93 825.8 273.73 825.72C274.54 825.69 275.37 825.65 276.21 825.61C276.93 825.58 277.65 825.54 278.39 825.5C279.11 825.47 279.85 825.42 280.58 825.38C282.08 825.3 283.58 825.21 285.11 825.1C286.22 825.03 287.33 824.96 288.45 824.87H288.47Z" fill="#F3EFF5"/>
<path d="M288.47 905.57V923.02C288.36 923.03 288.25 923.03 288.15 923.04C287.13 923.12 286.12 923.18 285.11 923.25C284.11 923.33 283.11 923.39 282.11 923.45C281.12 923.52 280.12 923.57 279.14 923.62C277.17 923.72 275.22 923.82 273.29 923.89C272.72 923.92 272.14 923.94 271.58 923.96C271.19 923.98 270.8 923.99 270.42 924C269.46 924.03 268.52 924.07 267.59 924.09C266.92 924.11 266.25 924.13 265.59 924.14C264.94 924.16 264.29 924.17 263.64 924.18L262.13 924.21H262.03C260.2 924.24 258.41 924.25 256.65 924.26C254.78 924.27 252.95 924.27 251.16 924.26C250.94 924.26 250.74 924.26 250.53 924.25C248.27 924.24 246.07 924.22 243.93 924.16C243.36 924.15 242.78 924.14 242.22 924.12C242.03 924.12 241.85 924.12 241.66 924.11C241.22 924.11 240.77 924.09 240.33 924.08C239.95 924.07 239.58 924.06 239.21 924.05C237.49 924 235.81 923.94 234.2 923.88C233.6 923.86 233.02 923.83 232.44 923.8C232.2 923.79 231.97 923.78 231.73 923.77C230.88 923.73 230.06 923.68 229.24 923.65C228.32 923.6 227.41 923.55 226.52 923.5C226.29 923.49 226.07 923.48 225.84 923.46C225.72 923.46 225.61 923.45 225.51 923.45C225.23 923.43 224.97 923.42 224.7 923.4C224.58 923.4 224.45 923.39 224.33 923.38C223.47 923.33 222.64 923.27 221.84 923.22C221.04 923.17 220.25 923.11 219.5 923.06V905.62C219.81 905.64 220.13 905.66 220.46 905.69C220.57 905.7 220.69 905.71 220.8 905.72C220.92 905.72 221.05 905.73 221.17 905.74C221.94 905.79 222.71 905.84 223.53 905.89C223.72 905.9 223.92 905.92 224.14 905.92C224.25 905.93 224.36 905.94 224.46 905.94C224.56 905.95 224.65 905.96 224.75 905.96C225.35 906 225.97 906.04 226.59 906.07C227.01 906.09 227.42 906.11 227.83 906.14C228.72 906.19 229.62 906.24 230.56 906.28C230.74 906.29 230.92 906.3 231.11 906.3C232.22 906.35 233.37 906.41 234.56 906.45C234.64 906.45 234.72 906.46 234.8 906.46C235.9 906.5 237.01 906.55 238.16 906.58C240.05 906.65 242 906.7 244.01 906.73C245.28 906.76 246.56 906.78 247.86 906.8C248.55 906.81 249.25 906.82 249.95 906.82C250.27 906.83 250.61 906.83 250.94 906.83C251.98 906.84 253.03 906.84 254.1 906.84C256.52 906.84 259 906.82 261.54 906.79C261.73 906.78 261.91 906.78 262.1 906.78C262.82 906.77 263.52 906.75 264.24 906.74C264.44 906.73 264.65 906.73 264.85 906.73C265.02 906.72 265.18 906.72 265.36 906.71C265.68 906.71 266.01 906.7 266.34 906.69C266.77 906.68 267.2 906.67 267.63 906.66C268.18 906.65 268.73 906.63 269.28 906.61C269.72 906.6 270.17 906.58 270.61 906.57C272.05 906.53 273.49 906.47 274.96 906.39C275.29 906.38 275.62 906.37 275.95 906.35C276.31 906.34 276.67 906.32 277.05 906.3C277.49 906.29 277.94 906.26 278.39 906.23C278.83 906.21 279.28 906.19 279.73 906.15C280.83 906.1 281.94 906.03 283.07 905.95C283.75 905.92 284.45 905.87 285.14 905.82C286.24 905.75 287.35 905.68 288.48 905.59L288.47 905.57Z" fill="#F3EFF5"/>
<path d="M288.47 905.57V923.02C288.36 923.03 288.25 923.03 288.15 923.04C287.13 923.12 286.12 923.18 285.11 923.25C284.11 923.33 283.11 923.39 282.11 923.45C281.12 923.52 280.12 923.57 279.14 923.62C277.17 923.72 275.22 923.82 273.29 923.89C272.72 923.92 272.14 923.94 271.58 923.96C271.19 923.98 270.8 923.99 270.42 924C269.46 924.03 268.52 924.07 267.59 924.09C266.92 924.11 266.25 924.13 265.59 924.14C264.94 924.16 264.29 924.17 263.64 924.18L262.13 924.21H262.03C260.2 924.24 258.41 924.25 256.65 924.26C254.78 924.27 252.95 924.27 251.16 924.26C250.94 924.26 250.74 924.26 250.53 924.25C248.27 924.24 246.07 924.22 243.93 924.16C243.36 924.15 242.78 924.14 242.22 924.12C242.03 924.12 241.85 924.12 241.66 924.11C241.22 924.11 240.77 924.09 240.33 924.08C239.95 924.07 239.58 924.06 239.21 924.05C237.49 924 235.81 923.94 234.2 923.88C233.6 923.86 233.02 923.83 232.44 923.8C232.2 923.79 231.97 923.78 231.73 923.77C230.88 923.73 230.06 923.68 229.24 923.65C228.32 923.6 227.41 923.55 226.52 923.5C226.29 923.49 226.07 923.48 225.84 923.46C225.72 923.46 225.61 923.45 225.51 923.45C225.23 923.43 224.97 923.42 224.7 923.4C224.58 923.4 224.45 923.39 224.33 923.38C223.47 923.33 222.64 923.27 221.84 923.22C221.04 923.17 220.25 923.11 219.5 923.06V905.62C219.81 905.64 220.13 905.66 220.46 905.69C220.57 905.7 220.69 905.71 220.8 905.72C220.92 905.72 221.05 905.73 221.17 905.74C221.94 905.79 222.71 905.84 223.53 905.89C223.72 905.9 223.92 905.92 224.14 905.92C224.25 905.93 224.36 905.94 224.46 905.94C224.56 905.95 224.65 905.96 224.75 905.96C225.35 906 225.97 906.04 226.59 906.07C227.01 906.09 227.42 906.11 227.83 906.14C228.72 906.19 229.62 906.24 230.56 906.28C230.74 906.29 230.92 906.3 231.11 906.3C232.22 906.35 233.37 906.41 234.56 906.45C234.64 906.45 234.72 906.46 234.8 906.46C235.9 906.5 237.01 906.55 238.16 906.58C240.05 906.65 242 906.7 244.01 906.73C245.28 906.76 246.56 906.78 247.86 906.8C248.55 906.81 249.25 906.82 249.95 906.82C250.27 906.83 250.61 906.83 250.94 906.83C251.98 906.84 253.03 906.84 254.1 906.84C256.52 906.84 259 906.82 261.54 906.79C261.73 906.78 261.91 906.78 262.1 906.78C262.82 906.77 263.52 906.75 264.24 906.74C264.44 906.73 264.65 906.73 264.85 906.73C265.02 906.72 265.18 906.72 265.36 906.71C265.68 906.71 266.01 906.7 266.34 906.69C266.77 906.68 267.2 906.67 267.63 906.66C268.18 906.65 268.73 906.63 269.28 906.61C269.72 906.6 270.17 906.58 270.61 906.57C272.05 906.53 273.49 906.47 274.96 906.39C275.29 906.38 275.62 906.37 275.95 906.35C276.31 906.34 276.67 906.32 277.05 906.3C277.49 906.29 277.94 906.26 278.39 906.23C278.83 906.21 279.28 906.19 279.73 906.15C280.83 906.1 281.94 906.03 283.07 905.95C283.75 905.92 284.45 905.87 285.14 905.82C286.24 905.75 287.35 905.68 288.48 905.59L288.47 905.57Z" fill="#F3EFF5"/>
<path d="M288.47 824.87V843.53C286.93 843.65 285.38 843.76 283.86 843.86C282.34 843.96 280.82 844.05 279.33 844.13C277.82 844.21 276.34 844.28 274.87 844.35C271.92 844.48 269.02 844.58 266.19 844.66C264.78 844.69 263.38 844.73 261.99 844.75C260.6 844.77 259.24 844.79 257.89 844.8C254.74 844.82 251.69 844.82 248.75 844.79C247.06 844.77 245.42 844.75 243.82 844.71C242.21 844.67 240.64 844.63 239.11 844.59C238.05 844.56 236.98 844.51 235.95 844.48C234.78 844.44 233.63 844.39 232.5 844.34C229.57 844.21 226.82 844.06 224.29 843.9C223.44 843.85 222.62 843.79 221.81 843.74C221.01 843.69 220.23 843.63 219.48 843.58V824.9C224.01 825.23 229.46 825.56 235.63 825.79C236.26 825.81 236.9 825.83 237.54 825.86C238.86 825.92 240.21 825.95 241.58 825.98C242.37 826 243.16 826.02 243.97 826.03C245.23 826.06 246.52 826.08 247.82 826.1C249.85 826.13 251.93 826.14 254.06 826.14C255.79 826.14 257.55 826.13 259.35 826.11C259.79 826.11 260.25 826.1 260.7 826.1C261.85 826.08 263.02 826.06 264.2 826.03C264.49 826.03 264.79 826.02 265.07 826.01C265.91 826 266.74 825.98 267.59 825.94C267.87 825.94 268.14 825.93 268.43 825.92C270.16 825.87 271.93 825.8 273.73 825.72C274.54 825.69 275.37 825.65 276.21 825.61C276.93 825.58 277.65 825.54 278.39 825.5C279.11 825.47 279.85 825.42 280.58 825.38C282.08 825.3 283.58 825.21 285.11 825.1C286.22 825.03 287.33 824.96 288.45 824.87H288.47Z" fill="#F3EFF5"/>
</svg>
