<?xml version="1.0" encoding="UTF-8" standalone="no"?>
<!-- Generator: Adobe Illustrator 26.0.3, SVG Export Plug-In . SVG Version: 6.00 Build 0)  -->

<svg
   version="1.1"
   id="Слой_1"
   x="0px"
   y="0px"
   viewBox="0 0 486.98 976.34"
   style="enable-background:new 0 0 486.98 976.34;"
   xml:space="preserve"
   sodipodi:docname="М-12.svg"
   inkscape:version="1.1.1 (3bf5ae0d25, 2021-09-20)"
   xmlns:inkscape="http://www.inkscape.org/namespaces/inkscape"
   xmlns:sodipodi="http://sodipodi.sourceforge.net/DTD/sodipodi-0.dtd"
   xmlns="http://www.w3.org/2000/svg"
   xmlns:svg="http://www.w3.org/2000/svg"><defs
   id="defs24821">
	
	
</defs><sodipodi:namedview
   id="namedview24819"
   pagecolor="#ffffff"
   bordercolor="#666666"
   borderopacity="1.0"
   inkscape:pageshadow="2"
   inkscape:pageopacity="0.0"
   inkscape:pagecheckerboard="0"
   showgrid="false"
   inkscape:zoom="0.85216213"
   inkscape:cx="243.49826"
   inkscape:cy="488.75676"
   inkscape:window-width="1920"
   inkscape:window-height="1017"
   inkscape:window-x="-8"
   inkscape:window-y="-8"
   inkscape:window-maximized="1"
   inkscape:current-layer="Слой_1" />
<style
   type="text/css"
   id="style24684">
	.st0{fill:#F6D3BD;}
	.st1{fill:#C4A996;}
	.st2{fill:#ED1C24;}
	.st3{fill:#998475;}
	.st4{fill:#BDB7B2;}
	.st5{fill:#E7E3E0;}
	.st6{fill:#4F5260;}
	.st7{fill:#555968;}
	.st8{fill:url(#SVGID_1_);}
	.st9{fill:url(#SVGID_00000089534148571314342930000012368066816941419650_);}
	.st10{fill:url(#SVGID_00000141451286203318188740000014557650068666201735_);}
	.st11{fill:url(#SVGID_00000023962990502299136940000010351293818657722505_);}
	.st12{fill:#63687A;}
	.st13{fill:#AEA89F;}
	.st14{fill:none;stroke:#998475;stroke-width:2;stroke-miterlimit:10;}
	.st15{fill:#FFFFFF;}
	.st16{fill:#1D1D1B;}
	.st17{fill:#E6E6E6;}
	.st18{fill:#333333;}
	.st19{fill:#4D4D4D;}
	.st20{fill:#1A1A1A;}
	.st21{fill:#A8A199;}
	.st22{fill:#E2D6CE;}
	.st23{fill:url(#SVGID_00000037667946053009821190000015418475737266446726_);}
	.st24{fill:url(#SVGID_00000012460504739806606550000003540711901228809389_);}
	.st25{fill:url(#SVGID_00000073691173753695342870000015013942661092593567_);}
	.st26{fill:url(#SVGID_00000072260743216217835830000016811549282986281407_);}
	.st27{fill:#555451;}
	.st28{fill:#578BAA;}
	.st29{fill:#6BABD1;}
	.st30{fill:#A6A6A6;}
	.st31{fill:#F3EFF5;}
	.st32{fill:#D4D1D6;}
	.st33{fill:#848BA3;}
	.st34{fill:#676D80;}
	.st35{fill:#9FA7C4;}
	.st36{fill:#BEBBBF;}
	.st37{fill:url(#SVGID_00000124843550980679363550000000459972392678442142_);}
	.st38{fill:url(#SVGID_00000054946261642272025300000002023001987553187477_);}
	.st39{fill:url(#SVGID_00000061449382113177510630000013546524641369197484_);}
	.st40{fill:url(#SVGID_00000035503153476795486190000013023232992839415191_);}
	.st41{fill:url(#SVGID_00000065033037076187360210000011633950546259710113_);}
	.st42{fill:url(#SVGID_00000105392368843732591010000007723920823730498193_);}
	.st43{fill:url(#SVGID_00000074440482700186373460000000316423239451337904_);}
	.st44{fill:url(#SVGID_00000152261162147906413450000006251699539759979660_);}
	.st45{fill:url(#SVGID_00000142864879221290458580000000264120676919882148_);}
	.st46{fill:url(#SVGID_00000104675243425333941220000001957035183983424946_);}
	.st47{fill:url(#SVGID_00000037654815282024277910000014913528440396304025_);}
	.st48{fill:url(#SVGID_00000111902636747281773890000005474911278174947716_);}
	.st49{fill:url(#SVGID_00000100345974121305544410000011349101692656799360_);}
	.st50{fill:url(#SVGID_00000078021088775140814490000015196815721766808706_);}
</style>
<g
   id="g24814">
		<path
   class="st35"
   d="m 333.6,619.6 c -8.4,2.18 -19.13,3.96 -32.3,4.33 -1.86,0.05 -3.67,0.08 -5.44,0.08 -15.41,0 -27.48,-1.83 -36.41,-4.06 -6.44,-6.21 -1.5,-10.65 -0.63,-11.36 9.13,2.59 23.06,5.06 42.17,4.54 16.75,-0.46 29.12,-3.4 37.34,-6.26 0.01,0.01 3.9,8.52 -4.73,12.73 z"
   id="path24794" />
		<path
   class="st35"
   d="m 330.27,630.8 c 0,0 0,0 0.01,0.01 -7.85,1.79 -17.48,3.2 -28.98,3.51 -1.86,0.05 -3.67,0.08 -5.44,0.08 -14.91,0 -26.68,-1.73 -35.51,-3.84 -6.91,-5.42 -0.9,-10.6 -0.9,-10.6 8.93,2.22 21,4.06 36.41,4.06 1.77,0 3.58,-0.02 5.44,-0.08 13.17,-0.37 23.9,-2.15 32.3,-4.33 0,-0.01 3.7,7.89 -3.33,11.19 z"
   id="path24796" />
		<path
   class="st35"
   d="m 330.85,641.35 -0.01,0.01 c -7.96,1.87 -17.77,3.32 -29.54,3.65 -1.86,0.04 -3.67,0.08 -5.44,0.08 -13.57,0 -24.54,-1.42 -33.06,-3.28 0,0 0,0 -0.01,0 -7.92,-4.29 -2.44,-11.26 -2.44,-11.26 8.83,2.12 20.61,3.84 35.51,3.84 1.77,0 3.58,-0.02 5.44,-0.08 11.51,-0.31 21.14,-1.72 28.98,-3.51 0.33,0.21 6.09,4.03 0.57,10.55 z"
   id="path24798" />
		<path
   class="st33"
   d="m 276.88,623 c -0.06,3.49 -0.22,7.12 -0.38,10.34 -0.3,5.69 -0.64,10.08 -0.64,10.08 0,0 -0.56,0.13 -1.51,0.36 -4.26,-0.54 -8.11,-1.22 -11.56,-1.98 0,0 0,0 -0.01,0 -7.92,-4.29 -2.44,-11.26 -2.44,-11.26 -6.91,-5.42 -0.9,-10.6 -0.9,-10.6 -6.44,-6.21 -1.5,-10.65 -0.63,-11.36 4.66,1.32 10.58,2.61 17.8,3.5 0,0.03 0.01,0.05 0.01,0.09 0.29,2.78 0.34,6.7 0.26,10.83 z"
   id="path24800" />
		<path
   class="st33"
   d="m 276.88,623 c -6.77,-0.74 -12.56,-1.85 -17.43,-3.05 -6.44,-6.21 -1.5,-10.65 -0.63,-11.36 4.66,1.32 10.58,2.61 17.8,3.5 0,0.03 0.01,0.05 0.01,0.09 0.28,2.77 0.33,6.69 0.25,10.82 z"
   id="path24802" />
		<path
   class="st33"
   d="m 276.88,623 c -0.06,3.49 -0.22,7.12 -0.38,10.34 -6.2,-0.7 -11.57,-1.7 -16.16,-2.8 -6.91,-5.42 -0.9,-10.6 -0.9,-10.6 4.88,1.22 10.67,2.32 17.44,3.06 z"
   id="path24804" />
		<path
   class="st33"
   d="m 276.5,633.34 c -0.3,5.69 -0.64,10.08 -0.64,10.08 0,0 -0.56,0.13 -1.51,0.36 -4.26,-0.54 -8.11,-1.22 -11.56,-1.98 0,0 0,0 -0.01,0 -7.92,-4.29 -2.44,-11.26 -2.44,-11.26 4.59,1.11 9.97,2.1 16.16,2.8 z"
   id="path24806" />
		<path
   class="st34"
   d="m 295.86,624.54 c -13.4,0 -25.69,-1.37 -36.54,-4.07 l -0.14,-0.03 -0.1,-0.1 c -2.37,-2.29 -3.53,-4.61 -3.42,-6.9 0.13,-2.88 2.2,-4.76 2.83,-5.26 l 0.22,-0.17 0.27,0.08 c 8.31,2.36 22.34,5.07 42.01,4.52 17.32,-0.48 29.78,-3.65 37.18,-6.23 l 0.46,-0.16 0.2,0.45 c 0.04,0.09 4.01,9.05 -4.99,13.44 l -0.1,0.04 c -9.86,2.56 -20.76,4.02 -32.42,4.35 -1.75,0.02 -3.53,0.04 -5.46,0.04 z m -36.14,-5.08 c 10.73,2.66 22.89,4.01 36.14,4.01 1.92,0 3.69,-0.02 5.42,-0.07 11.55,-0.32 22.36,-1.77 32.12,-4.3 6.98,-3.44 5.26,-9.78 4.62,-11.54 -7.53,2.57 -19.93,5.65 -37.01,6.12 -19.59,0.53 -33.65,-2.13 -42.06,-4.49 -0.69,0.61 -2.12,2.12 -2.22,4.29 -0.09,1.94 0.92,3.95 2.99,5.98 z"
   id="path24808" />
		<path
   class="st34"
   d="m 295.86,634.93 c -12.96,0 -24.95,-1.3 -35.64,-3.86 l -0.21,-0.1 c -2.29,-1.8 -3.48,-3.78 -3.53,-5.89 -0.07,-3.2 2.5,-5.45 2.61,-5.55 l 0.21,-0.18 0.27,0.07 c 10.76,2.68 22.97,4.04 36.28,4.04 1.92,0 3.69,-0.02 5.42,-0.07 11.57,-0.32 22.4,-1.77 32.18,-4.31 l 0.43,-0.11 0.19,0.41 c 0.04,0.08 0.98,2.11 1.02,4.58 0.04,2.19 -0.62,5.11 -3.9,6.97 l 0.2,0.18 -1.01,0.23 c -9.01,2.06 -18.79,3.24 -29.09,3.52 -1.74,0.04 -3.53,0.07 -5.43,0.07 z m -35.27,-4.88 c 10.57,2.52 22.44,3.8 35.27,3.8 1.89,0 3.67,-0.02 5.42,-0.08 10.18,-0.28 19.85,-1.44 28.76,-3.47 v 0 c 5.65,-2.65 3.86,-8.46 3.24,-10.07 -9.74,2.49 -20.49,3.91 -31.97,4.23 -1.74,0.05 -3.53,0.07 -5.46,0.07 -13.28,0 -25.47,-1.35 -36.25,-4 -0.56,0.56 -2.1,2.31 -2.04,4.53 0.05,1.75 1.07,3.42 3.03,4.99 z"
   id="path24810" />
		<path
   class="st34"
   d="m 295.86,645.63 c -11.95,0 -23.1,-1.1 -33.12,-3.28 h -0.08 l -0.13,-0.07 c -2.5,-1.35 -4,-3.12 -4.44,-5.24 -0.73,-3.52 1.72,-6.69 1.83,-6.83 l 0.21,-0.27 0.34,0.08 c 10.6,2.54 22.51,3.83 35.39,3.83 1.89,0 3.67,-0.02 5.42,-0.08 10.23,-0.28 19.94,-1.45 28.88,-3.49 l 0.22,-0.05 0.19,0.12 c 0.27,0.17 2.68,1.77 3.13,4.68 0.33,2.13 -0.49,4.37 -2.44,6.67 l -0.15,0.15 -0.15,0.03 c -9.11,2.14 -19.09,3.37 -29.65,3.66 -1.86,0.05 -3.68,0.09 -5.45,0.09 z m -32.89,-4.34 c 9.95,2.16 21.01,3.26 32.89,3.26 1.77,0 3.58,-0.03 5.43,-0.08 10.42,-0.29 20.27,-1.5 29.26,-3.59 1.66,-2 2.36,-3.92 2.09,-5.69 -0.32,-2.09 -1.92,-3.41 -2.46,-3.81 -8.94,2.02 -18.65,3.19 -28.86,3.47 -1.77,0.05 -3.55,0.08 -5.46,0.08 -12.82,0 -24.69,-1.27 -35.28,-3.77 -0.53,0.79 -1.94,3.19 -1.42,5.67 0.36,1.77 1.64,3.27 3.81,4.46 z"
   id="path24812" />
	</g>
</svg>
