<svg width="620" height="1074" viewBox="0 0 620 1074" fill="none" xmlns="http://www.w3.org/2000/svg">
<path d="M295.23 42.96C295.5 41.94 296.65 41.18 298.65 40.69C303.46 39.51 321.81 39.56 328 41.11C333.69 42.53 345.29 47.2 352.7 55.66C360.14 64.15 366.82 81.04 369.87 93.14C372.35 102.96 373.42 120.75 374.05 131.38C374.22 134.23 374.36 136.48 374.48 137.81C374.54 138.53 374.61 139.51 374.68 140.7C375.27 149.86 376.64 171.3 385.92 190.61C392.12 203.51 395.64 207.63 397.34 209.61C398.52 210.99 398.91 211.45 398.37 213.09L398.34 213.16C398.31 213.23 397.97 213.82 396.96 214C396.78 214.03 396.58 214.05 396.36 214.05C394.08 214.05 389.57 212.13 380.77 203.98C365.66 189.99 360.07 158.07 359.19 146.95C359.08 145.57 358.97 144.06 358.84 142.45C357.9 130.27 356.49 111.87 354.09 98.66C351.72 85.61 346.61 67.84 329.71 64.16C313.5 60.63 308.44 59.81 308.3 59.78C308.18 59.74 305.22 58.63 303.2 54.49C301.3 50.61 295.98 45.14 295.94 45.1C295.9 45.06 294.93 44.11 295.24 42.95L295.23 42.96ZM298.08 41.9C300.85 43.83 303.81 48.55 305.64 51.5C306.06 52.17 306.42 52.75 306.69 53.15C308.11 55.26 311.61 55.61 311.64 55.61C311.67 55.61 311.94 55.64 312.65 55.75C311.94 53.35 309.34 45.63 304.3 41.03C301.95 41.16 300.02 41.37 298.88 41.65C298.58 41.72 298.32 41.8 298.07 41.89L298.08 41.9ZM305.68 40.97C310.87 46.18 313.27 54.16 313.75 55.93C315 56.14 316.96 56.48 319.91 57.05C319.88 53.53 317.92 43.98 314.14 40.91L314.16 40.88C311.22 40.82 308.26 40.85 305.68 40.96V40.97ZM327.69 59.91C325.8 59.33 323.96 58.86 322.23 58.52C321.74 58.42 321.28 58.33 320.83 58.25C320.67 59.69 320.39 60.58 320.12 61.11C321.84 61.47 323.78 61.88 325.97 62.35C326.37 62.08 327.48 61.2 327.69 59.91ZM327.72 58.87C327.56 55.78 326.28 46.46 323.97 41.45C321.56 41.18 318.61 41 315.58 40.91C319.1 44.78 320.96 53.68 320.9 57.23C321.38 57.32 321.89 57.42 322.42 57.53C324.11 57.86 325.89 58.31 327.72 58.86V58.87ZM319.84 58.05C317.08 57.52 315.18 57.18 313.91 56.97C314.03 58.34 313.79 59.22 313.51 59.76C314.98 60.05 316.81 60.42 319.08 60.89C319.28 60.59 319.66 59.79 319.84 58.05ZM327.75 42.07C327.03 41.89 326.14 41.73 325.13 41.59C327.42 47.04 328.66 56.51 328.73 59.19C331.07 59.95 333.46 60.89 335.8 62.03C335.85 59.2 335.88 49.14 333.88 44.12C331.51 43.16 329.38 42.47 327.75 42.06V42.07ZM342.9 48.74C340.27 47.07 337.6 45.72 335.14 44.65C337.01 50.4 336.85 60.37 336.79 62.52C338.81 63.55 340.78 64.73 342.62 66.06C343.26 63.78 345.19 55.82 342.9 48.75V48.74ZM336.59 63.53C336.32 64.23 335.89 64.73 335.52 65.07C337.77 66.12 339.76 67.45 341.53 68.99C341.77 68.6 342.11 67.94 342.33 67.09C340.52 65.76 338.59 64.57 336.59 63.53ZM344.19 49.58C346.19 57.19 343.96 65.17 343.48 66.7C345.47 68.22 347.29 69.92 348.85 71.8C349.79 70.4 352.29 65.57 350.91 55.18C348.87 53.05 346.57 51.18 344.19 49.57V49.58ZM357.96 94.05C359.86 92.43 365.46 87.54 366.52 85.23C365.68 82.67 364.73 80.05 363.69 77.44C361.61 82.07 357.33 86.31 356.32 87.27C356.98 89.57 357.52 91.86 357.96 94.05ZM363.16 76.11C361.91 73.06 360.53 70.07 359.08 67.27C358.45 73.56 354.53 78.58 353.6 79.68C354.54 81.79 355.34 83.98 356.01 86.18C357.51 84.69 361.56 80.41 363.16 76.11ZM352.84 80.42C352.01 81.05 350.96 81.44 350.32 81.64C351.25 83.78 352.02 85.98 352.68 88.18C353.46 88.1 354.74 87.81 355.23 87.04C354.57 84.8 353.79 82.56 352.84 80.41V80.42ZM352.41 79.48C351.45 77.43 350.35 75.47 349.06 73.7C348.59 74.71 347.77 75.24 347.05 75.47C348.13 77.14 349.07 78.91 349.91 80.72C350.51 80.54 351.67 80.12 352.41 79.48ZM352.07 56.45C353.17 66.83 350.42 71.44 349.51 72.64C349.61 72.77 349.71 72.89 349.81 73.02C351.09 74.76 352.18 76.67 353.14 78.67C354.48 76.96 358.19 71.67 358.17 65.57C356.24 62.05 354.19 58.9 352.07 56.46V56.45ZM366.94 86.5C364.93 89.45 359.37 94.19 358.19 95.18C358.71 97.93 359.11 100.49 359.43 102.66C361.38 101.43 367.33 97.48 369.09 94.09C369.04 93.86 368.98 93.61 368.93 93.39C368.38 91.22 367.72 88.9 366.95 86.5H366.94ZM357.9 119.63C358.33 119.65 359.23 119.56 360.18 118.8C359.96 116.36 359.74 114 359.51 111.79C358.54 112.2 357.65 112.38 357.11 112.46C357.39 114.83 357.65 117.23 357.89 119.63H357.9ZM358.68 127.88C359.15 127.97 360.1 128.02 360.92 127.32C360.72 124.87 360.5 122.38 360.29 119.95C359.41 120.49 358.58 120.63 358 120.63C358.24 123.07 358.47 125.5 358.68 127.88ZM359.85 142.39C359.94 143.52 360.02 144.57 360.1 145.59C360.86 145.66 361.98 145.64 362.45 145.26C362.32 144.08 362.2 142.89 362.1 141.66C361.98 140.25 361.85 138.72 361.72 137.14C360.95 137.41 360.05 137.49 359.47 137.51C359.6 139.23 359.73 140.87 359.85 142.41V142.39ZM369.39 184.43C369.69 184.56 370.5 184.71 371.75 183.37C370.71 180.65 369.69 177.62 368.67 174.22C368.58 173.93 368.5 173.65 368.42 173.36C367.67 173.99 366.53 174.33 365.81 174.48C366.84 177.81 368.03 181.18 369.39 184.43ZM371.73 112.64C366.75 117.11 362.5 118.89 361.24 119.36C361.46 121.82 361.67 124.33 361.88 126.82C363.93 125.97 370.59 123.01 372.31 119.68C372.14 117.38 371.95 115.01 371.73 112.64ZM360.36 110.24C362.72 109 368.68 105.79 370.65 102.95C370.28 100.25 369.87 97.71 369.4 95.48C366.87 99.14 360.94 102.91 359.58 103.74C359.84 105.57 360.1 107.78 360.36 110.24ZM360.54 111.28L360.47 111.32C360.7 113.52 360.92 115.89 361.14 118.33C362.64 117.74 366.86 115.81 371.61 111.41C371.38 109 371.12 106.62 370.83 104.33C368.2 107.26 362.53 110.24 360.54 111.29V111.28ZM361.97 127.87C362.15 130 362.32 132.09 362.48 134.09C362.52 134.61 362.56 135.13 362.61 135.64C364.39 134.87 369.59 132.44 372.94 129.11C372.79 126.72 372.63 124.07 372.43 121.29C369.73 124.61 363.53 127.25 361.97 127.87ZM362.69 136.69C362.83 138.4 362.97 140.05 363.09 141.56C363.18 142.63 363.28 143.66 363.39 144.69C365.26 143.78 370.91 140.88 373.48 137.69C373.36 136.33 373.23 134.16 373.07 131.44C373.05 131.11 373.03 130.75 373.01 130.41C369.28 133.8 364.06 136.11 362.69 136.68V136.69ZM363.51 145.75C363.72 147.58 363.96 149.35 364.23 151.08C365.91 150.45 371.02 148.36 374.01 145.22C373.88 143.53 373.78 142.03 373.7 140.77C373.66 140.14 373.62 139.58 373.59 139.08C370.48 142.35 364.93 145.08 363.51 145.75ZM365.44 157.78C367.22 156.82 372.63 153.81 374.59 151.57C374.39 149.77 374.24 148.08 374.11 146.53C370.77 149.64 365.77 151.59 364.39 152.09C364.71 154.03 365.06 155.92 365.45 157.78H365.44ZM374.73 152.85C372.19 155.26 367.04 158.06 365.65 158.8C366.05 160.67 366.49 162.52 366.96 164.37C368.35 164 372.66 162.59 375.52 158.72C375.21 156.67 374.95 154.71 374.73 152.86V152.85ZM367.21 165.34C367.76 167.44 368.34 169.55 368.96 171.69C370.27 171.37 374.31 170.17 377.01 166.86C376.51 164.53 376.09 162.25 375.74 160.06C372.71 163.65 368.64 164.97 367.21 165.34ZM369.25 172.65C369.37 173.07 369.5 173.49 369.63 173.92C370.62 177.25 371.62 180.21 372.63 182.87C373.86 182.49 377.55 181.09 379.82 177.64C378.81 174.4 377.98 171.19 377.29 168.08C374.45 171.16 370.66 172.31 369.26 172.65H369.25ZM372.99 183.81C374.04 186.47 375.11 188.82 376.24 190.92C377.33 190.52 380.57 189.07 382.56 185.4C381.69 183.22 380.91 181.03 380.2 178.85C377.77 182.07 374.32 183.4 372.99 183.82V183.81ZM375.87 192.32C375.05 193.02 374.37 193.33 373.85 193.45C375.25 195.84 376.78 198.06 378.45 200.05C378.85 199.84 379.56 199.4 380.35 198.68C379.63 197.86 379.02 197.12 378.58 196.53C377.64 195.24 376.74 193.85 375.87 192.31V192.32ZM373.32 192.51C373.63 192.51 374.35 192.35 375.38 191.41C374.26 189.32 373.19 187 372.14 184.37C371.37 185.09 370.61 185.48 369.87 185.5C369.87 185.5 369.86 185.5 369.85 185.5C370.9 187.93 372.05 190.28 373.31 192.5L373.32 192.51ZM368.09 172.23C367.44 170.02 366.84 167.85 366.28 165.68C365.15 166.19 364.2 166.44 363.62 166.56C364.18 168.83 364.81 171.16 365.52 173.52C366.51 173.32 367.76 172.87 368.09 172.23ZM366.02 164.69C365.56 162.88 365.13 161.06 364.73 159.22C363.99 159.49 363.29 159.58 362.72 159.58C362.47 159.58 362.26 159.56 362.06 159.54C362.44 161.46 362.87 163.48 363.37 165.57C363.91 165.46 364.87 165.21 366.01 164.68L366.02 164.69ZM361.87 158.5C362.36 158.59 363.39 158.67 364.52 158.22C364.12 156.31 363.76 154.38 363.43 152.4C362.55 152.64 361.53 152.69 360.89 152.69C361.15 154.45 361.47 156.4 361.87 158.49V158.5ZM359.41 110.72C359.15 108.28 358.9 106.07 358.64 104.23C357.75 104.6 356.89 104.71 356.28 104.71C356.21 104.71 356.15 104.71 356.09 104.71C356.41 106.9 356.71 109.16 356.99 111.47C357.52 111.39 358.45 111.19 359.4 110.74L359.41 110.72ZM385.04 191.05C384.33 189.57 383.66 188.07 383.04 186.57C380.96 189.91 377.99 191.33 376.73 191.81C377.58 193.31 378.46 194.68 379.39 195.95C379.82 196.53 380.43 197.27 381.17 198.1C382.06 197.65 384.6 196.18 386.29 193.59C385.89 192.78 385.48 191.94 385.05 191.05H385.04ZM384.44 205.9C386.15 207.37 387.65 208.56 388.95 209.5C389.29 209.34 389.77 209.06 390.04 208.68C388.73 207.39 387.3 205.97 385.89 204.55C385.35 205.21 384.84 205.64 384.44 205.9ZM392.8 205.19C392.03 204.02 391.16 202.62 390.19 200.92C389.32 202.18 387.59 203.33 386.66 203.89C388.02 205.27 389.4 206.64 390.67 207.89C391.35 207.25 392.42 206.1 392.8 205.19ZM390.76 209.38C390.5 209.7 390.18 209.95 389.87 210.14C391.54 211.28 392.86 212 393.9 212.44C393.08 211.65 391.98 210.59 390.75 209.39L390.76 209.38ZM385.94 203.15C387.06 202.49 389.15 201.07 389.61 199.88C388.75 198.35 387.82 196.6 386.81 194.59C385.14 196.91 382.93 198.28 381.87 198.85C383.05 200.15 384.47 201.64 385.95 203.15H385.94ZM396.72 213.03C397.21 212.97 397.41 212.78 397.47 212.71C397.81 211.67 397.72 211.57 396.61 210.26C395.9 209.42 394.85 208.2 393.44 206.14C392.86 207.12 391.92 208.08 391.39 208.59C393.63 210.78 395.42 212.5 395.97 213.03C396.27 213.06 396.52 213.06 396.72 213.03ZM381.48 203.24C382.24 203.95 382.96 204.59 383.66 205.2C383.98 205.03 384.57 204.62 385.2 203.82C383.68 202.27 382.23 200.75 381.02 199.41C380.28 200.09 379.59 200.54 379.13 200.81C379.89 201.67 380.67 202.49 381.48 203.24ZM360.75 151.68C361.34 151.68 362.42 151.65 363.28 151.4C363.02 149.74 362.78 148.04 362.58 146.29C362.03 146.52 361.38 146.6 360.81 146.6C360.58 146.6 360.37 146.59 360.19 146.57C360.19 146.66 360.21 146.77 360.21 146.86C360.31 148.15 360.49 149.78 360.75 151.68ZM359.4 136.46C360.04 136.44 361.01 136.35 361.64 136.05C361.59 135.42 361.54 134.78 361.48 134.14C361.33 132.3 361.17 130.39 361.01 128.45C360.4 128.79 359.78 128.9 359.26 128.9C359.08 128.9 358.91 128.89 358.76 128.87C358.99 131.5 359.2 134.05 359.39 136.46H359.4ZM355.95 103.67C356.47 103.7 357.49 103.67 358.5 103.18C358.5 103.16 358.5 103.13 358.49 103.1C358.18 101.02 357.81 98.56 357.32 95.91C356.52 96.42 355.43 96.67 354.78 96.78C354.89 97.35 355 97.91 355.1 98.47C355.4 100.13 355.69 101.87 355.96 103.67H355.95ZM354.58 95.8C355.47 95.65 356.63 95.32 357.11 94.81C356.69 92.66 356.18 90.42 355.56 88.15C354.78 88.79 353.67 89.03 352.97 89.12C353.61 91.38 354.14 93.63 354.58 95.8ZM346.47 74.56C346.95 74.47 348 74.1 348.33 72.73C346.85 70.88 345.12 69.21 343.21 67.72C342.93 68.61 342.55 69.28 342.3 69.66C343.87 71.14 345.25 72.79 346.47 74.56ZM329.94 63.18C331.57 63.54 333.1 64.02 334.53 64.61C334.84 64.39 335.44 63.87 335.71 63.08C333.38 61.93 331 60.98 328.67 60.21C328.45 61.27 327.8 62.08 327.24 62.6C328.1 62.79 329 62.98 329.94 63.18ZM296.66 44.38C296.88 44.61 302.14 50.02 304.11 54.04C305.93 57.76 308.59 58.8 308.56 58.8C308.6 58.8 309.72 58.99 312.49 59.53C312.71 59.24 313.12 58.43 312.92 56.78C311.93 56.62 311.58 56.59 311.57 56.59C311.41 56.58 307.57 56.2 305.88 53.69C305.6 53.27 305.24 52.69 304.81 52.01C303 49.12 299.69 43.81 296.98 42.37C296.56 42.62 296.29 42.9 296.21 43.2C296.05 43.79 296.63 44.37 296.65 44.39L296.66 44.38Z" fill="#676D80"/>
<path d="M367.2 165.35C368.63 164.98 372.69 163.67 375.73 160.07C376.09 162.26 376.51 164.53 377 166.87C374.3 170.17 370.26 171.38 368.95 171.7C368.33 169.56 367.74 167.45 367.2 165.35Z" fill="white"/>
<path d="M362.46 134.09C362.3 132.09 362.13 129.99 361.95 127.87C363.5 127.25 369.71 124.61 372.41 121.29C372.61 124.07 372.77 126.72 372.92 129.11C369.57 132.44 364.37 134.87 362.59 135.64C362.55 135.13 362.51 134.61 362.46 134.09Z" fill="white"/>
<path d="M373.06 131.45C373.22 134.17 373.35 136.34 373.47 137.7C370.9 140.89 365.26 143.79 363.38 144.7C363.27 143.67 363.17 142.63 363.08 141.57C362.95 140.05 362.82 138.41 362.68 136.7C364.06 136.13 369.28 133.82 373 130.43C373.02 130.77 373.04 131.13 373.06 131.46V131.45Z" fill="white"/>
<path d="M382.54 185.4C380.55 189.07 377.31 190.52 376.22 190.92C375.09 188.82 374.02 186.48 372.97 183.81C374.3 183.39 377.76 182.06 380.18 178.84C380.88 181.02 381.66 183.21 382.54 185.39V185.4Z" fill="white"/>
<path d="M314.16 40.89L314.14 40.92C317.92 43.98 319.88 53.54 319.91 57.06C316.97 56.49 315.01 56.15 313.75 55.94C313.27 54.17 310.86 46.19 305.68 40.98C308.26 40.87 311.22 40.84 314.16 40.9V40.89Z" fill="white"/>
<path d="M312.66 55.7598C311.94 55.6498 311.67 55.6198 311.65 55.6198C311.62 55.6198 308.12 55.2698 306.7 53.1598C306.43 52.7498 306.07 52.1798 305.65 51.5098C303.81 48.5598 300.85 43.8398 298.09 41.9098C298.34 41.8298 298.61 41.7498 298.9 41.6698C300.05 41.3898 301.97 41.1798 304.32 41.0498C309.36 45.6398 311.95 53.3598 312.67 55.7698L312.66 55.7598Z" fill="white"/>
<path d="M323.98 41.4602C326.29 46.4702 327.57 55.7902 327.73 58.8802C325.9 58.3202 324.11 57.8802 322.43 57.5502C321.9 57.4502 321.39 57.3502 320.91 57.2502C320.97 53.7002 319.11 44.8002 315.59 40.9302C318.63 41.0202 321.57 41.1902 323.98 41.4702V41.4602Z" fill="white"/>
<path d="M395.94 213.04C395.39 212.52 393.59 210.8 391.36 208.6C391.9 208.09 392.83 207.13 393.41 206.15C394.82 208.21 395.87 209.44 396.58 210.27C397.7 211.57 397.78 211.68 397.44 212.72C397.38 212.79 397.18 212.98 396.69 213.04C396.49 213.06 396.24 213.07 395.94 213.04Z" fill="white"/>
<path d="M379.8 177.65C377.53 181.1 373.84 182.5 372.61 182.88C371.6 180.22 370.61 177.26 369.61 173.93C369.48 173.5 369.36 173.08 369.23 172.66C370.63 172.32 374.42 171.17 377.26 168.09C377.95 171.2 378.79 174.41 379.79 177.65H379.8Z" fill="white"/>
<path d="M371.71 112.64C371.93 115 372.12 117.37 372.29 119.68C370.57 123.01 363.91 125.97 361.86 126.82C361.65 124.33 361.44 121.82 361.22 119.36C362.48 118.89 366.73 117.11 371.71 112.64Z" fill="white"/>
<path d="M348.84 71.8201C347.28 69.9301 345.46 68.2301 343.47 66.7201C343.95 65.1901 346.18 57.2001 344.18 49.6001C346.56 51.2101 348.85 53.0801 350.9 55.2101C352.28 65.6101 349.78 70.4401 348.84 71.8301V71.8201Z" fill="white"/>
<path d="M335.81 62.0401C333.47 60.9001 331.08 59.9601 328.74 59.2001C328.66 56.5201 327.43 47.0501 325.14 41.6001C326.15 41.7401 327.04 41.9001 327.76 42.0801C329.39 42.4901 331.52 43.1701 333.89 44.1401C335.89 49.1601 335.86 59.2101 335.81 62.0501V62.0401Z" fill="white"/>
<path d="M342.91 48.7499C345.2 55.8199 343.27 63.7899 342.63 66.0599C340.79 64.7299 338.82 63.5499 336.8 62.5199C336.86 60.3799 337.02 50.4099 335.15 44.6499C337.62 45.7199 340.28 47.0799 342.91 48.7399V48.7499Z" fill="white"/>
<path d="M386.64 203.9C387.56 203.34 389.3 202.19 390.17 200.93C391.15 202.63 392.01 204.03 392.78 205.2C392.41 206.11 391.33 207.26 390.65 207.9C389.38 206.65 388 205.28 386.64 203.9Z" fill="white"/>
<path d="M381.15 198.1C380.41 197.27 379.8 196.53 379.37 195.95C378.44 194.69 377.56 193.32 376.71 191.81C377.98 191.33 380.95 189.91 383.02 186.57C383.64 188.07 384.31 189.57 385.02 191.05C385.45 191.94 385.86 192.78 386.26 193.59C384.57 196.18 382.03 197.64 381.14 198.1H381.15Z" fill="white"/>
<path d="M374.58 151.57C372.62 153.81 367.21 156.82 365.43 157.78C365.04 155.92 364.69 154.03 364.37 152.09C365.76 151.59 370.75 149.64 374.09 146.53C374.22 148.08 374.37 149.77 374.57 151.57H374.58Z" fill="white"/>
<path d="M375.51 158.72C372.65 162.59 368.33 164.01 366.95 164.37C366.48 162.52 366.05 160.67 365.64 158.8C367.02 158.07 372.17 155.26 374.72 152.85C374.94 154.7 375.19 156.66 375.51 158.71V158.72Z" fill="white"/>
<path d="M386.78 194.61C387.79 196.61 388.73 198.37 389.58 199.9C389.12 201.08 387.03 202.51 385.91 203.17C384.43 201.66 383.02 200.18 381.83 198.87C382.89 198.31 385.1 196.93 386.77 194.61H386.78Z" fill="white"/>
<path d="M363.68 77.4399C364.72 80.0499 365.67 82.6699 366.51 85.2299C365.45 87.5499 359.85 92.4299 357.95 94.0499C357.51 91.8599 356.97 89.5699 356.31 87.2699C357.31 86.3199 361.6 82.0799 363.68 77.4399Z" fill="white"/>
<path d="M366.93 86.5C367.69 88.9 368.36 91.22 368.91 93.39C368.97 93.61 369.02 93.86 369.07 94.09C367.31 97.48 361.37 101.43 359.41 102.66C359.08 100.48 358.69 97.93 358.17 95.18C359.36 94.19 364.92 89.45 366.92 86.5H366.93Z" fill="white"/>
<path d="M363.5 145.75C364.93 145.08 370.47 142.35 373.58 139.08C373.61 139.58 373.65 140.14 373.69 140.77C373.77 142.03 373.87 143.53 374 145.22C371.01 148.35 365.9 150.45 364.22 151.08C363.95 149.35 363.71 147.57 363.5 145.75Z" fill="white"/>
<path d="M360.46 111.31L360.53 111.27C362.53 110.22 368.19 107.24 370.82 104.31C371.11 106.6 371.37 108.98 371.6 111.39C366.85 115.8 362.63 117.72 361.13 118.31C360.91 115.87 360.68 113.5 360.46 111.3V111.31Z" fill="white"/>
<path d="M360.35 110.24C360.09 107.78 359.83 105.57 359.57 103.74C360.93 102.91 366.86 99.14 369.39 95.48C369.86 97.71 370.27 100.25 370.64 102.95C368.67 105.79 362.71 109 360.35 110.24Z" fill="white"/>
<path d="M358.16 65.5599C358.17 71.6599 354.46 76.9499 353.13 78.6599C352.17 76.6599 351.08 74.7499 349.8 73.0099C349.71 72.8799 349.6 72.7599 349.5 72.6299C350.41 71.4299 353.16 66.8199 352.06 56.4399C354.18 58.8899 356.24 62.0299 358.16 65.5499V65.5599Z" fill="white"/>
<path d="M353.59 79.68C354.52 78.58 358.44 73.57 359.07 67.27C360.52 70.07 361.9 73.06 363.15 76.11C361.55 80.41 357.5 84.69 356 86.18C355.33 83.98 354.53 81.79 353.59 79.68Z" fill="white"/>
<path d="M369.839 185.51C369.839 185.51 369.849 185.51 369.859 185.51C370.599 185.49 371.359 185.1 372.129 184.38C373.169 187.01 374.239 189.33 375.369 191.42C374.339 192.36 373.619 192.51 373.309 192.52C372.049 190.29 370.899 187.94 369.849 185.52L369.839 185.51Z" fill="#DCDCDC"/>
<path d="M369.37 184.43C368.01 181.18 366.82 177.81 365.79 174.48C366.51 174.33 367.65 173.99 368.4 173.36C368.48 173.65 368.57 173.93 368.65 174.22C369.67 177.63 370.68 180.65 371.73 183.37C370.48 184.7 369.67 184.56 369.37 184.43Z" fill="#DCDCDC"/>
<path d="M363.6 166.56C364.18 166.44 365.13 166.19 366.26 165.68C366.82 167.85 367.43 170.02 368.07 172.23C367.74 172.87 366.49 173.32 365.5 173.52C364.79 171.16 364.16 168.83 363.6 166.56Z" fill="#DCDCDC"/>
<path d="M296.97 42.3899C299.67 43.8299 302.99 49.1399 304.8 52.0299C305.23 52.7199 305.59 53.2999 305.87 53.7099C307.56 56.2199 311.4 56.5999 311.56 56.6099C311.56 56.6099 311.91 56.6499 312.91 56.7999C313.11 58.4499 312.71 59.2599 312.48 59.5499C309.7 59.0099 308.59 58.8299 308.55 58.8199C308.58 58.8199 305.92 57.7799 304.1 54.0599C302.13 50.0299 296.87 44.6299 296.65 44.3999C296.63 44.3899 296.05 43.7999 296.21 43.2099C296.29 42.9199 296.56 42.6399 296.98 42.3799L296.97 42.3899Z" fill="#DCDCDC"/>
<path d="M380.33 198.69C379.55 199.41 378.83 199.84 378.43 200.06C376.77 198.07 375.24 195.85 373.83 193.46C374.34 193.34 375.03 193.04 375.85 192.33C376.72 193.86 377.62 195.26 378.56 196.55C378.99 197.14 379.6 197.87 380.33 198.7V198.69Z" fill="#DCDCDC"/>
<path d="M362.049 159.55C362.239 159.57 362.459 159.59 362.709 159.59C363.279 159.59 363.979 159.5 364.719 159.23C365.119 161.07 365.549 162.88 366.009 164.7C364.859 165.23 363.899 165.48 363.369 165.59C362.869 163.5 362.439 161.48 362.059 159.56L362.049 159.55Z" fill="#DCDCDC"/>
<path d="M360.189 146.89C360.189 146.8 360.169 146.69 360.169 146.6C360.359 146.61 360.559 146.63 360.789 146.63C361.359 146.63 362.009 146.55 362.559 146.32C362.769 148.07 362.999 149.77 363.259 151.43C362.399 151.68 361.319 151.72 360.729 151.71C360.469 149.81 360.289 148.18 360.189 146.89Z" fill="#DCDCDC"/>
<path d="M359.839 142.39C359.719 140.85 359.599 139.21 359.459 137.49C360.039 137.47 360.939 137.39 361.709 137.12C361.839 138.71 361.969 140.23 362.089 141.64C362.189 142.87 362.309 144.06 362.439 145.24C361.959 145.62 360.849 145.64 360.089 145.57C360.009 144.55 359.929 143.5 359.839 142.37V142.39Z" fill="#DCDCDC"/>
<path d="M360.87 152.71C361.51 152.71 362.53 152.65 363.41 152.42C363.74 154.4 364.1 156.34 364.5 158.24C363.36 158.69 362.34 158.61 361.85 158.52C361.45 156.42 361.13 154.47 360.87 152.72V152.71Z" fill="#DCDCDC"/>
<path d="M319.85 58.06C319.67 59.8 319.29 60.6 319.09 60.9C316.82 60.43 314.99 60.06 313.52 59.77C313.8 59.23 314.04 58.34 313.92 56.98C315.19 57.19 317.09 57.53 319.85 58.06Z" fill="#DCDCDC"/>
<path d="M327.69 59.91C327.48 61.19 326.37 62.07 325.97 62.35C323.78 61.88 321.83 61.47 320.12 61.11C320.39 60.58 320.68 59.69 320.83 58.25C321.28 58.34 321.74 58.43 322.23 58.52C323.96 58.86 325.81 59.33 327.69 59.91Z" fill="#DCDCDC"/>
<path d="M335.52 65.08C335.89 64.74 336.32 64.23 336.59 63.54C338.59 64.58 340.52 65.77 342.33 67.1C342.1 67.95 341.77 68.61 341.53 69C339.76 67.46 337.77 66.13 335.52 65.08Z" fill="#DCDCDC"/>
<path d="M388.929 209.51C387.629 208.57 386.129 207.38 384.419 205.91C384.819 205.65 385.339 205.22 385.869 204.56C387.269 205.98 388.699 207.4 390.019 208.69C389.749 209.07 389.269 209.35 388.929 209.51Z" fill="#DCDCDC"/>
<path d="M389.85 210.15C390.15 209.97 390.48 209.71 390.74 209.39C391.97 210.6 393.06 211.65 393.89 212.44C392.85 212 391.53 211.28 389.86 210.14L389.85 210.15Z" fill="#DCDCDC"/>
<path d="M379.1 200.83C379.57 200.56 380.26 200.11 380.99 199.43C382.2 200.77 383.65 202.29 385.17 203.84C384.55 204.64 383.95 205.05 383.63 205.22C382.93 204.61 382.22 203.97 381.45 203.26C380.64 202.51 379.85 201.69 379.1 200.83Z" fill="#DCDCDC"/>
<path d="M343.189 67.7397C345.099 69.2297 346.829 70.8997 348.309 72.7497C347.979 74.1197 346.929 74.4897 346.449 74.5798C345.229 72.8098 343.849 71.1597 342.279 69.6797C342.529 69.2997 342.909 68.6297 343.189 67.7397Z" fill="#DCDCDC"/>
<path d="M328.65 60.2197C330.98 60.9897 333.37 61.9497 335.69 63.0897C335.41 63.8797 334.81 64.3997 334.51 64.6197C333.08 64.0297 331.55 63.5497 329.92 63.1897C328.98 62.9897 328.09 62.7897 327.22 62.6097C327.79 62.0897 328.43 61.2797 328.65 60.2197Z" fill="#DCDCDC"/>
<path d="M359.25 128.93C359.77 128.93 360.39 128.82 361 128.48C361.16 130.42 361.32 132.34 361.47 134.17C361.52 134.82 361.57 135.45 361.63 136.08C361 136.37 360.03 136.47 359.39 136.49C359.2 134.07 358.99 131.53 358.76 128.9C358.91 128.92 359.08 128.93 359.26 128.93H359.25Z" fill="#DCDCDC"/>
<path d="M355.529 88.1797C356.159 90.4397 356.659 92.6897 357.079 94.8397C356.599 95.3397 355.439 95.6797 354.549 95.8297C354.109 93.6697 353.579 91.4197 352.939 89.1497C353.639 89.0597 354.739 88.8297 355.529 88.1797Z" fill="#DCDCDC"/>
<path d="M356.08 104.7C356.14 104.7 356.2 104.7 356.27 104.7C356.88 104.7 357.74 104.6 358.63 104.22C358.88 106.06 359.14 108.27 359.4 110.71C358.45 111.16 357.52 111.36 356.99 111.44C356.71 109.13 356.41 106.87 356.09 104.68L356.08 104.7Z" fill="#DCDCDC"/>
<path d="M355.07 98.4897C354.97 97.9397 354.86 97.3697 354.75 96.7997C355.41 96.6897 356.49 96.4397 357.29 95.9297C357.78 98.5797 358.15 101.04 358.46 103.12C358.46 103.14 358.46 103.17 358.47 103.2C357.46 103.7 356.44 103.73 355.92 103.69C355.65 101.89 355.36 100.15 355.06 98.4897H355.07Z" fill="#DCDCDC"/>
<path d="M358.659 127.88C358.449 125.5 358.229 123.08 357.979 120.63C358.559 120.63 359.389 120.48 360.269 119.95C360.489 122.38 360.699 124.87 360.899 127.32C360.079 128.02 359.129 127.97 358.659 127.88Z" fill="#DCDCDC"/>
<path d="M357.1 112.45C357.64 112.37 358.53 112.19 359.5 111.78C359.72 113.98 359.95 116.35 360.17 118.79C359.21 119.55 358.32 119.64 357.89 119.62C357.65 117.22 357.39 114.82 357.11 112.45H357.1Z" fill="#DCDCDC"/>
<path d="M352.659 88.1799C351.999 85.9799 351.219 83.7799 350.299 81.6399C350.939 81.4399 351.999 81.0499 352.819 80.4199C353.759 82.5699 354.549 84.7999 355.209 87.0499C354.719 87.8199 353.439 88.1099 352.659 88.1899V88.1799Z" fill="#DCDCDC"/>
<path d="M347.04 75.4599C347.75 75.2299 348.58 74.6899 349.05 73.6899C350.34 75.4599 351.44 77.4199 352.4 79.4699C351.66 80.1199 350.5 80.5299 349.9 80.7099C349.07 78.8899 348.12 77.1299 347.04 75.4599Z" fill="#DCDCDC"/>
<path d="M323.89 42.96C323.62 41.94 322.47 41.18 320.47 40.69C315.66 39.51 297.31 39.56 291.12 41.11C285.43 42.53 273.83 47.2 266.42 55.66C258.98 64.15 252.3 81.04 249.25 93.14C246.77 102.96 245.7 120.75 245.07 131.38C244.9 134.23 244.76 136.48 244.64 137.81C244.58 138.53 244.51 139.51 244.44 140.7C243.85 149.86 242.48 171.3 233.2 190.61C227 203.51 223.48 207.63 221.78 209.61C220.6 210.99 220.21 211.45 220.75 213.09L220.78 213.16C220.81 213.23 221.15 213.82 222.16 214C222.34 214.03 222.54 214.05 222.76 214.05C225.04 214.05 229.55 212.13 238.35 203.98C253.46 189.99 259.05 158.07 259.93 146.95C260.04 145.57 260.15 144.06 260.28 142.45C261.22 130.27 262.63 111.87 265.03 98.66C267.4 85.61 272.51 67.84 289.41 64.16C305.62 60.63 310.68 59.81 310.82 59.78C310.94 59.74 313.9 58.63 315.92 54.49C317.82 50.61 323.14 45.14 323.18 45.1C323.22 45.06 324.19 44.11 323.88 42.95L323.89 42.96ZM321.04 41.9C318.27 43.83 315.31 48.55 313.48 51.5C313.06 52.17 312.7 52.75 312.43 53.15C311.01 55.26 307.51 55.61 307.48 55.61C307.45 55.61 307.18 55.64 306.47 55.75C307.18 53.35 309.78 45.63 314.82 41.03C317.17 41.16 319.1 41.37 320.24 41.65C320.54 41.72 320.8 41.8 321.05 41.89L321.04 41.9ZM313.44 40.97C308.25 46.18 305.85 54.16 305.37 55.93C304.12 56.14 302.16 56.48 299.21 57.05C299.24 53.53 301.2 43.98 304.98 40.91L304.96 40.88C307.9 40.82 310.86 40.85 313.44 40.96V40.97ZM291.43 59.91C293.32 59.33 295.16 58.86 296.89 58.52C297.38 58.42 297.84 58.33 298.29 58.25C298.45 59.69 298.73 60.58 299 61.11C297.28 61.47 295.34 61.88 293.15 62.35C292.75 62.08 291.64 61.2 291.43 59.91ZM291.4 58.87C291.56 55.78 292.84 46.46 295.15 41.45C297.56 41.18 300.51 41 303.54 40.91C300.02 44.78 298.16 53.68 298.22 57.23C297.74 57.32 297.23 57.42 296.7 57.53C295.01 57.86 293.23 58.31 291.4 58.86V58.87ZM299.28 58.05C302.04 57.52 303.94 57.18 305.21 56.97C305.09 58.34 305.33 59.22 305.61 59.76C304.14 60.05 302.31 60.42 300.04 60.89C299.84 60.59 299.46 59.79 299.28 58.05ZM291.37 42.07C292.09 41.89 292.98 41.73 293.99 41.59C291.7 47.04 290.46 56.51 290.39 59.19C288.05 59.95 285.66 60.89 283.32 62.03C283.27 59.2 283.24 49.14 285.24 44.12C287.61 43.16 289.74 42.47 291.37 42.06V42.07ZM276.22 48.74C278.85 47.07 281.52 45.72 283.98 44.65C282.11 50.4 282.27 60.37 282.33 62.52C280.31 63.55 278.34 64.73 276.5 66.06C275.86 63.78 273.93 55.82 276.22 48.75V48.74ZM282.53 63.53C282.8 64.23 283.23 64.73 283.6 65.07C281.35 66.12 279.36 67.45 277.59 68.99C277.35 68.6 277.01 67.94 276.79 67.09C278.6 65.76 280.53 64.57 282.53 63.53ZM274.93 49.58C272.93 57.19 275.16 65.17 275.64 66.7C273.65 68.22 271.83 69.92 270.27 71.8C269.33 70.4 266.83 65.57 268.21 55.18C270.25 53.05 272.55 51.18 274.93 49.57V49.58ZM261.16 94.05C259.26 92.43 253.66 87.54 252.6 85.23C253.44 82.67 254.39 80.05 255.43 77.44C257.51 82.07 261.79 86.31 262.8 87.27C262.14 89.57 261.6 91.86 261.16 94.05ZM255.96 76.11C257.21 73.06 258.59 70.07 260.04 67.27C260.67 73.56 264.59 78.58 265.52 79.68C264.58 81.79 263.78 83.98 263.11 86.18C261.61 84.69 257.56 80.41 255.96 76.11ZM266.28 80.42C267.11 81.05 268.16 81.44 268.8 81.64C267.87 83.78 267.1 85.98 266.44 88.18C265.66 88.1 264.38 87.81 263.89 87.04C264.55 84.8 265.33 82.56 266.28 80.41V80.42ZM266.71 79.48C267.67 77.43 268.77 75.47 270.06 73.7C270.53 74.71 271.35 75.24 272.07 75.47C270.99 77.14 270.05 78.91 269.21 80.72C268.61 80.54 267.45 80.12 266.71 79.48ZM267.05 56.45C265.95 66.83 268.7 71.44 269.61 72.64C269.51 72.77 269.41 72.89 269.31 73.02C268.03 74.76 266.94 76.67 265.98 78.67C264.64 76.96 260.93 71.67 260.95 65.57C262.88 62.05 264.93 58.9 267.05 56.46V56.45ZM252.18 86.5C254.19 89.45 259.75 94.19 260.93 95.18C260.41 97.93 260.01 100.49 259.69 102.66C257.74 101.43 251.79 97.48 250.03 94.09C250.08 93.86 250.14 93.61 250.19 93.39C250.74 91.22 251.4 88.9 252.17 86.5H252.18ZM261.22 119.63C260.79 119.65 259.89 119.56 258.94 118.8C259.16 116.36 259.38 114 259.61 111.79C260.58 112.2 261.47 112.38 262.01 112.46C261.73 114.83 261.47 117.23 261.23 119.63H261.22ZM260.44 127.88C259.97 127.97 259.02 128.02 258.2 127.32C258.4 124.87 258.62 122.38 258.83 119.95C259.71 120.49 260.54 120.63 261.12 120.63C260.88 123.07 260.65 125.5 260.44 127.88ZM259.27 142.39C259.18 143.52 259.1 144.57 259.02 145.59C258.26 145.66 257.14 145.64 256.67 145.26C256.8 144.08 256.92 142.89 257.02 141.66C257.14 140.25 257.27 138.72 257.4 137.14C258.17 137.41 259.07 137.49 259.65 137.51C259.52 139.23 259.39 140.87 259.27 142.41V142.39ZM249.73 184.43C249.43 184.56 248.62 184.71 247.37 183.37C248.41 180.65 249.43 177.62 250.45 174.22C250.54 173.93 250.62 173.65 250.7 173.36C251.45 173.99 252.59 174.33 253.31 174.48C252.28 177.81 251.09 181.18 249.73 184.43ZM247.39 112.64C252.37 117.11 256.62 118.89 257.88 119.36C257.66 121.82 257.45 124.33 257.24 126.82C255.19 125.97 248.53 123.01 246.81 119.68C246.98 117.38 247.17 115.01 247.39 112.64ZM258.76 110.24C256.4 109 250.44 105.79 248.47 102.95C248.84 100.25 249.25 97.71 249.72 95.48C252.25 99.14 258.18 102.91 259.54 103.74C259.28 105.57 259.02 107.78 258.76 110.24ZM258.58 111.28L258.65 111.32C258.42 113.52 258.2 115.89 257.98 118.33C256.48 117.74 252.26 115.81 247.51 111.41C247.74 109 248 106.62 248.29 104.33C250.92 107.26 256.59 110.24 258.58 111.29V111.28ZM257.15 127.87C256.97 130 256.8 132.09 256.64 134.09C256.6 134.61 256.56 135.13 256.51 135.64C254.73 134.87 249.53 132.44 246.18 129.11C246.33 126.72 246.49 124.07 246.69 121.29C249.39 124.61 255.59 127.25 257.15 127.87ZM256.43 136.69C256.29 138.4 256.15 140.05 256.03 141.56C255.94 142.63 255.84 143.66 255.73 144.69C253.86 143.78 248.21 140.88 245.64 137.69C245.76 136.33 245.89 134.16 246.05 131.44C246.07 131.11 246.09 130.75 246.11 130.41C249.84 133.8 255.06 136.11 256.43 136.68V136.69ZM255.61 145.75C255.4 147.58 255.16 149.35 254.89 151.08C253.21 150.45 248.1 148.36 245.11 145.22C245.24 143.53 245.34 142.03 245.42 140.77C245.46 140.14 245.5 139.58 245.53 139.08C248.64 142.35 254.19 145.08 255.61 145.75ZM253.68 157.78C251.9 156.82 246.49 153.81 244.53 151.57C244.73 149.77 244.88 148.08 245.01 146.53C248.35 149.64 253.35 151.59 254.73 152.09C254.41 154.03 254.06 155.92 253.67 157.78H253.68ZM244.39 152.85C246.93 155.26 252.08 158.06 253.47 158.8C253.07 160.67 252.63 162.52 252.16 164.37C250.77 164 246.46 162.59 243.6 158.72C243.91 156.67 244.17 154.71 244.39 152.86V152.85ZM251.91 165.34C251.36 167.44 250.78 169.55 250.16 171.69C248.85 171.37 244.81 170.17 242.11 166.86C242.61 164.53 243.03 162.25 243.38 160.06C246.41 163.65 250.48 164.97 251.91 165.34ZM249.87 172.65C249.75 173.07 249.62 173.49 249.49 173.92C248.5 177.25 247.5 180.21 246.49 182.87C245.26 182.49 241.57 181.09 239.3 177.64C240.31 174.4 241.14 171.19 241.83 168.08C244.67 171.16 248.46 172.31 249.86 172.65H249.87ZM246.13 183.81C245.08 186.47 244.01 188.82 242.88 190.92C241.79 190.52 238.55 189.07 236.56 185.4C237.43 183.22 238.21 181.03 238.92 178.85C241.35 182.07 244.8 183.4 246.13 183.82V183.81ZM243.25 192.32C244.07 193.02 244.75 193.33 245.27 193.45C243.87 195.84 242.34 198.06 240.67 200.05C240.27 199.84 239.56 199.4 238.77 198.68C239.49 197.86 240.1 197.12 240.54 196.53C241.48 195.24 242.38 193.85 243.25 192.31V192.32ZM245.8 192.51C245.49 192.51 244.77 192.35 243.74 191.41C244.86 189.32 245.93 187 246.98 184.37C247.75 185.09 248.51 185.48 249.25 185.5C249.25 185.5 249.26 185.5 249.27 185.5C248.22 187.93 247.07 190.28 245.81 192.5L245.8 192.51ZM251.03 172.23C251.68 170.02 252.28 167.85 252.84 165.68C253.97 166.19 254.92 166.44 255.5 166.56C254.94 168.83 254.31 171.16 253.6 173.52C252.61 173.32 251.36 172.87 251.03 172.23ZM253.1 164.69C253.56 162.88 253.99 161.06 254.39 159.22C255.13 159.49 255.83 159.58 256.4 159.58C256.65 159.58 256.86 159.56 257.06 159.54C256.68 161.46 256.25 163.48 255.75 165.57C255.21 165.46 254.25 165.21 253.11 164.68L253.1 164.69ZM257.25 158.5C256.76 158.59 255.73 158.67 254.6 158.22C255 156.31 255.36 154.38 255.69 152.4C256.57 152.64 257.59 152.69 258.23 152.69C257.97 154.45 257.65 156.4 257.25 158.49V158.5ZM259.71 110.72C259.97 108.28 260.22 106.07 260.48 104.23C261.37 104.6 262.23 104.71 262.84 104.71C262.91 104.71 262.97 104.71 263.03 104.71C262.71 106.9 262.41 109.16 262.13 111.47C261.6 111.39 260.67 111.19 259.72 110.74L259.71 110.72ZM234.08 191.05C234.79 189.57 235.46 188.07 236.08 186.57C238.16 189.91 241.13 191.33 242.39 191.81C241.54 193.31 240.66 194.68 239.73 195.95C239.3 196.53 238.69 197.27 237.95 198.1C237.06 197.65 234.52 196.18 232.83 193.59C233.23 192.78 233.64 191.94 234.07 191.05H234.08ZM234.68 205.9C232.97 207.37 231.47 208.56 230.17 209.5C229.83 209.34 229.35 209.06 229.08 208.68C230.39 207.39 231.82 205.97 233.23 204.55C233.77 205.21 234.28 205.64 234.68 205.9ZM226.32 205.19C227.09 204.02 227.96 202.62 228.93 200.92C229.8 202.18 231.53 203.33 232.46 203.89C231.1 205.27 229.72 206.64 228.45 207.89C227.77 207.25 226.7 206.1 226.32 205.19ZM228.36 209.38C228.62 209.7 228.94 209.95 229.25 210.14C227.58 211.28 226.26 212 225.22 212.44C226.04 211.65 227.14 210.59 228.37 209.39L228.36 209.38ZM233.18 203.15C232.06 202.49 229.97 201.07 229.51 199.88C230.37 198.35 231.3 196.6 232.31 194.59C233.98 196.91 236.19 198.28 237.25 198.85C236.07 200.15 234.65 201.64 233.17 203.15H233.18ZM222.4 213.03C221.91 212.97 221.71 212.78 221.65 212.71C221.31 211.67 221.4 211.57 222.51 210.26C223.22 209.42 224.27 208.2 225.68 206.14C226.26 207.12 227.2 208.08 227.73 208.59C225.49 210.78 223.7 212.5 223.15 213.03C222.85 213.06 222.6 213.06 222.4 213.03ZM237.64 203.24C236.88 203.95 236.16 204.59 235.46 205.2C235.14 205.03 234.55 204.62 233.92 203.82C235.44 202.27 236.89 200.75 238.1 199.41C238.84 200.09 239.53 200.54 239.99 200.81C239.23 201.67 238.45 202.49 237.64 203.24ZM258.37 151.68C257.78 151.68 256.7 151.65 255.84 151.4C256.1 149.74 256.34 148.04 256.54 146.29C257.09 146.52 257.74 146.6 258.31 146.6C258.54 146.6 258.75 146.59 258.93 146.57C258.93 146.66 258.91 146.77 258.91 146.86C258.81 148.15 258.63 149.78 258.37 151.68ZM259.72 136.46C259.08 136.44 258.11 136.35 257.48 136.05C257.53 135.42 257.58 134.78 257.64 134.14C257.79 132.3 257.95 130.39 258.11 128.45C258.72 128.79 259.34 128.9 259.86 128.9C260.04 128.9 260.21 128.89 260.36 128.87C260.13 131.5 259.92 134.05 259.73 136.46H259.72ZM263.17 103.67C262.65 103.7 261.63 103.67 260.62 103.18C260.62 103.16 260.62 103.13 260.63 103.1C260.94 101.02 261.31 98.56 261.8 95.91C262.6 96.42 263.69 96.67 264.34 96.78C264.23 97.35 264.12 97.91 264.02 98.47C263.72 100.13 263.43 101.87 263.16 103.67H263.17ZM264.54 95.8C263.65 95.65 262.49 95.32 262.01 94.81C262.43 92.66 262.94 90.42 263.56 88.15C264.34 88.79 265.45 89.03 266.15 89.12C265.51 91.38 264.98 93.63 264.54 95.8ZM272.65 74.56C272.17 74.47 271.12 74.1 270.79 72.73C272.27 70.88 274 69.21 275.91 67.72C276.19 68.61 276.57 69.28 276.82 69.66C275.25 71.14 273.87 72.79 272.65 74.56ZM289.18 63.18C287.55 63.54 286.02 64.02 284.59 64.61C284.28 64.39 283.68 63.87 283.41 63.08C285.74 61.93 288.12 60.98 290.45 60.21C290.67 61.27 291.32 62.08 291.88 62.6C291.02 62.79 290.12 62.98 289.18 63.18ZM322.46 44.38C322.24 44.61 316.98 50.02 315.01 54.04C313.19 57.76 310.53 58.8 310.56 58.8C310.52 58.8 309.4 58.99 306.63 59.53C306.41 59.24 306 58.43 306.2 56.78C307.19 56.62 307.54 56.59 307.55 56.59C307.71 56.58 311.55 56.2 313.24 53.69C313.52 53.27 313.88 52.69 314.31 52.01C316.12 49.12 319.43 43.81 322.14 42.37C322.56 42.62 322.83 42.9 322.91 43.2C323.07 43.79 322.49 44.37 322.47 44.39L322.46 44.38Z" fill="#676D80"/>
<path d="M251.92 165.35C250.49 164.98 246.43 163.67 243.39 160.07C243.03 162.26 242.61 164.53 242.12 166.87C244.82 170.17 248.86 171.38 250.17 171.7C250.79 169.56 251.38 167.45 251.92 165.35Z" fill="white"/>
<path d="M256.66 134.09C256.82 132.09 256.99 129.99 257.17 127.87C255.62 127.25 249.41 124.61 246.71 121.29C246.51 124.07 246.35 126.72 246.2 129.11C249.55 132.44 254.75 134.87 256.53 135.64C256.57 135.13 256.61 134.61 256.66 134.09Z" fill="white"/>
<path d="M246.06 131.45C245.9 134.17 245.77 136.34 245.65 137.7C248.22 140.89 253.86 143.79 255.74 144.7C255.85 143.67 255.95 142.63 256.04 141.57C256.17 140.05 256.3 138.41 256.44 136.7C255.06 136.13 249.84 133.82 246.12 130.43C246.1 130.77 246.08 131.13 246.06 131.46V131.45Z" fill="white"/>
<path d="M236.58 185.4C238.57 189.07 241.81 190.52 242.9 190.92C244.03 188.82 245.1 186.48 246.15 183.81C244.82 183.39 241.36 182.06 238.94 178.84C238.24 181.02 237.46 183.21 236.58 185.39V185.4Z" fill="white"/>
<path d="M304.96 40.89L304.98 40.92C301.2 43.98 299.24 53.54 299.21 57.06C302.15 56.49 304.11 56.15 305.37 55.94C305.85 54.17 308.26 46.19 313.44 40.98C310.86 40.87 307.9 40.84 304.96 40.9V40.89Z" fill="white"/>
<path d="M306.46 55.7598C307.18 55.6498 307.45 55.6198 307.47 55.6198C307.5 55.6198 311 55.2698 312.42 53.1598C312.69 52.7498 313.05 52.1798 313.47 51.5098C315.31 48.5598 318.27 43.8398 321.03 41.9098C320.78 41.8298 320.51 41.7498 320.22 41.6698C319.07 41.3898 317.15 41.1798 314.8 41.0498C309.76 45.6398 307.17 53.3598 306.45 55.7698L306.46 55.7598Z" fill="white"/>
<path d="M295.14 41.4602C292.83 46.4702 291.55 55.7902 291.39 58.8802C293.22 58.3202 295.01 57.8802 296.69 57.5502C297.22 57.4502 297.73 57.3502 298.21 57.2502C298.15 53.7002 300.01 44.8002 303.53 40.9302C300.49 41.0202 297.55 41.1902 295.14 41.4702V41.4602Z" fill="white"/>
<path d="M223.18 213.04C223.73 212.52 225.53 210.8 227.76 208.6C227.22 208.09 226.29 207.13 225.71 206.15C224.3 208.21 223.25 209.44 222.54 210.27C221.42 211.57 221.34 211.68 221.68 212.72C221.74 212.79 221.94 212.98 222.43 213.04C222.63 213.06 222.88 213.07 223.18 213.04Z" fill="white"/>
<path d="M239.32 177.65C241.59 181.1 245.28 182.5 246.51 182.88C247.52 180.22 248.51 177.26 249.51 173.93C249.64 173.5 249.76 173.08 249.89 172.66C248.49 172.32 244.7 171.17 241.86 168.09C241.17 171.2 240.33 174.41 239.33 177.65H239.32Z" fill="white"/>
<path d="M247.41 112.64C247.19 115 247 117.37 246.83 119.68C248.55 123.01 255.21 125.97 257.26 126.82C257.47 124.33 257.68 121.82 257.9 119.36C256.64 118.89 252.39 117.11 247.41 112.64Z" fill="white"/>
<path d="M270.28 71.8201C271.84 69.9301 273.66 68.2301 275.65 66.7201C275.17 65.1901 272.94 57.2001 274.94 49.6001C272.56 51.2101 270.27 53.0801 268.22 55.2101C266.84 65.6101 269.34 70.4401 270.28 71.8301V71.8201Z" fill="white"/>
<path d="M283.32 62.0401C285.66 60.9001 288.05 59.9601 290.39 59.2001C290.47 56.5201 291.7 47.0501 293.99 41.6001C292.98 41.7401 292.09 41.9001 291.37 42.0801C289.74 42.4901 287.61 43.1701 285.24 44.1401C283.24 49.1601 283.27 59.2101 283.32 62.0501V62.0401Z" fill="white"/>
<path d="M276.22 48.7499C273.93 55.8199 275.86 63.7899 276.5 66.0599C278.34 64.7299 280.31 63.5499 282.33 62.5199C282.27 60.3799 282.11 50.4099 283.98 44.6499C281.51 45.7199 278.85 47.0799 276.22 48.7399V48.7499Z" fill="white"/>
<path d="M232.48 203.9C231.56 203.34 229.82 202.19 228.95 200.93C227.97 202.63 227.11 204.03 226.34 205.2C226.71 206.11 227.79 207.26 228.47 207.9C229.74 206.65 231.12 205.28 232.48 203.9Z" fill="white"/>
<path d="M237.98 198.1C238.72 197.27 239.33 196.53 239.76 195.95C240.69 194.69 241.57 193.32 242.42 191.81C241.15 191.33 238.18 189.91 236.11 186.57C235.49 188.07 234.82 189.57 234.11 191.05C233.68 191.94 233.27 192.78 232.87 193.59C234.56 196.18 237.1 197.64 237.99 198.1H237.98Z" fill="white"/>
<path d="M244.54 151.57C246.5 153.81 251.91 156.82 253.69 157.78C254.08 155.92 254.43 154.03 254.75 152.09C253.36 151.59 248.37 149.64 245.03 146.53C244.9 148.08 244.75 149.77 244.55 151.57H244.54Z" fill="white"/>
<path d="M243.61 158.72C246.47 162.59 250.79 164.01 252.17 164.37C252.64 162.52 253.07 160.67 253.48 158.8C252.1 158.07 246.95 155.26 244.4 152.85C244.18 154.7 243.93 156.66 243.61 158.71V158.72Z" fill="white"/>
<path d="M232.34 194.61C231.33 196.61 230.39 198.37 229.54 199.9C230 201.08 232.09 202.51 233.21 203.17C234.69 201.66 236.1 200.18 237.29 198.87C236.23 198.31 234.02 196.93 232.35 194.61H232.34Z" fill="white"/>
<path d="M255.44 77.4399C254.4 80.0499 253.45 82.6699 252.61 85.2299C253.67 87.5499 259.27 92.4299 261.17 94.0499C261.61 91.8599 262.15 89.5699 262.81 87.2699C261.81 86.3199 257.52 82.0799 255.44 77.4399Z" fill="white"/>
<path d="M252.2 86.5C251.44 88.9 250.77 91.22 250.22 93.39C250.16 93.61 250.11 93.86 250.06 94.09C251.82 97.48 257.76 101.43 259.72 102.66C260.05 100.48 260.44 97.93 260.96 95.18C259.77 94.19 254.21 89.45 252.21 86.5H252.2Z" fill="white"/>
<path d="M255.63 145.75C254.2 145.08 248.66 142.35 245.55 139.08C245.52 139.58 245.48 140.14 245.44 140.77C245.36 142.03 245.26 143.53 245.13 145.22C248.12 148.35 253.23 150.45 254.91 151.08C255.18 149.35 255.42 147.57 255.63 145.75Z" fill="white"/>
<path d="M258.66 111.31L258.59 111.27C256.59 110.22 250.93 107.24 248.3 104.31C248.01 106.6 247.75 108.98 247.52 111.39C252.27 115.8 256.49 117.72 257.99 118.31C258.21 115.87 258.44 113.5 258.66 111.3V111.31Z" fill="white"/>
<path d="M258.78 110.24C259.04 107.78 259.3 105.57 259.56 103.74C258.2 102.91 252.27 99.14 249.74 95.48C249.27 97.71 248.86 100.25 248.49 102.95C250.46 105.79 256.42 109 258.78 110.24Z" fill="white"/>
<path d="M260.96 65.5599C260.95 71.6599 264.66 76.9499 265.99 78.6599C266.95 76.6599 268.04 74.7499 269.32 73.0099C269.41 72.8799 269.52 72.7599 269.62 72.6299C268.71 71.4299 265.96 66.8199 267.06 56.4399C264.94 58.8899 262.88 62.0299 260.96 65.5499V65.5599Z" fill="white"/>
<path d="M265.53 79.68C264.6 78.58 260.68 73.57 260.05 67.27C258.6 70.07 257.22 73.06 255.97 76.11C257.57 80.41 261.62 84.69 263.12 86.18C263.79 83.98 264.59 81.79 265.53 79.68Z" fill="white"/>
<path d="M249.29 185.51C249.29 185.51 249.28 185.51 249.27 185.51C248.53 185.49 247.77 185.1 247 184.38C245.96 187.01 244.89 189.33 243.76 191.42C244.79 192.36 245.51 192.51 245.82 192.52C247.08 190.29 248.23 187.94 249.28 185.52L249.29 185.51Z" fill="#DCDCDC"/>
<path d="M249.75 184.43C251.11 181.18 252.3 177.81 253.33 174.48C252.61 174.33 251.47 173.99 250.72 173.36C250.64 173.65 250.55 173.93 250.47 174.22C249.45 177.63 248.44 180.65 247.39 183.37C248.64 184.7 249.45 184.56 249.75 184.43Z" fill="#DCDCDC"/>
<path d="M255.52 166.56C254.94 166.44 253.99 166.19 252.86 165.68C252.3 167.85 251.69 170.02 251.05 172.23C251.38 172.87 252.63 173.32 253.62 173.52C254.33 171.16 254.96 168.83 255.52 166.56Z" fill="#DCDCDC"/>
<path d="M322.15 42.3899C319.45 43.8299 316.13 49.1399 314.32 52.0299C313.89 52.7199 313.53 53.2999 313.25 53.7099C311.56 56.2199 307.72 56.5999 307.56 56.6099C307.56 56.6099 307.21 56.6499 306.21 56.7999C306.01 58.4499 306.41 59.2599 306.64 59.5499C309.42 59.0099 310.53 58.8299 310.57 58.8199C310.54 58.8199 313.2 57.7799 315.02 54.0599C316.99 50.0299 322.25 44.6299 322.47 44.3999C322.49 44.3899 323.07 43.7999 322.91 43.2099C322.83 42.9199 322.56 42.6399 322.14 42.3799L322.15 42.3899Z" fill="#DCDCDC"/>
<path d="M238.8 198.69C239.58 199.41 240.3 199.84 240.7 200.06C242.36 198.07 243.89 195.85 245.3 193.46C244.79 193.34 244.1 193.04 243.28 192.33C242.41 193.86 241.51 195.26 240.57 196.55C240.14 197.14 239.53 197.87 238.8 198.7V198.69Z" fill="#DCDCDC"/>
<path d="M257.07 159.55C256.88 159.57 256.66 159.59 256.41 159.59C255.84 159.59 255.14 159.5 254.4 159.23C254 161.07 253.57 162.88 253.11 164.7C254.26 165.23 255.22 165.48 255.75 165.59C256.25 163.5 256.68 161.48 257.06 159.56L257.07 159.55Z" fill="#DCDCDC"/>
<path d="M258.94 146.89C258.94 146.8 258.96 146.69 258.96 146.6C258.77 146.61 258.57 146.63 258.34 146.63C257.77 146.63 257.12 146.55 256.57 146.32C256.36 148.07 256.13 149.77 255.87 151.43C256.73 151.68 257.81 151.72 258.4 151.71C258.66 149.81 258.84 148.18 258.94 146.89Z" fill="#DCDCDC"/>
<path d="M259.29 142.39C259.41 140.85 259.53 139.21 259.67 137.49C259.09 137.47 258.19 137.39 257.42 137.12C257.29 138.71 257.16 140.23 257.04 141.64C256.94 142.87 256.82 144.06 256.69 145.24C257.17 145.62 258.28 145.64 259.04 145.57C259.12 144.55 259.2 143.5 259.29 142.37V142.39Z" fill="#DCDCDC"/>
<path d="M258.25 152.71C257.61 152.71 256.59 152.65 255.71 152.42C255.38 154.4 255.02 156.34 254.62 158.24C255.76 158.69 256.78 158.61 257.27 158.52C257.67 156.42 257.99 154.47 258.25 152.72V152.71Z" fill="#DCDCDC"/>
<path d="M299.28 58.06C299.46 59.8 299.84 60.6 300.04 60.9C302.31 60.43 304.14 60.06 305.61 59.77C305.33 59.23 305.09 58.34 305.21 56.98C303.94 57.19 302.04 57.53 299.28 58.06Z" fill="#DCDCDC"/>
<path d="M291.43 59.91C291.64 61.19 292.75 62.07 293.15 62.35C295.34 61.88 297.29 61.47 299 61.11C298.73 60.58 298.44 59.69 298.29 58.25C297.84 58.34 297.38 58.43 296.89 58.52C295.16 58.86 293.31 59.33 291.43 59.91Z" fill="#DCDCDC"/>
<path d="M283.6 65.08C283.23 64.74 282.8 64.23 282.53 63.54C280.53 64.58 278.6 65.77 276.79 67.1C277.02 67.95 277.35 68.61 277.59 69C279.36 67.46 281.35 66.13 283.6 65.08Z" fill="#DCDCDC"/>
<path d="M230.19 209.51C231.49 208.57 232.99 207.38 234.7 205.91C234.3 205.65 233.78 205.22 233.25 204.56C231.85 205.98 230.42 207.4 229.1 208.69C229.37 209.07 229.85 209.35 230.19 209.51Z" fill="#DCDCDC"/>
<path d="M229.27 210.15C228.97 209.97 228.64 209.71 228.38 209.39C227.15 210.6 226.06 211.65 225.23 212.44C226.27 212 227.59 211.28 229.26 210.14L229.27 210.15Z" fill="#DCDCDC"/>
<path d="M240.02 200.83C239.55 200.56 238.86 200.11 238.13 199.43C236.92 200.77 235.47 202.29 233.95 203.84C234.57 204.64 235.17 205.05 235.49 205.22C236.19 204.61 236.9 203.97 237.67 203.26C238.48 202.51 239.27 201.69 240.02 200.83Z" fill="#DCDCDC"/>
<path d="M275.93 67.7397C274.02 69.2297 272.29 70.8997 270.81 72.7497C271.14 74.1197 272.19 74.4897 272.67 74.5798C273.89 72.8098 275.27 71.1597 276.84 69.6797C276.59 69.2997 276.21 68.6297 275.93 67.7397Z" fill="#DCDCDC"/>
<path d="M290.47 60.2197C288.14 60.9897 285.75 61.9497 283.43 63.0897C283.71 63.8797 284.31 64.3997 284.61 64.6197C286.04 64.0297 287.57 63.5497 289.2 63.1897C290.14 62.9897 291.03 62.7897 291.9 62.6097C291.33 62.0897 290.69 61.2797 290.47 60.2197Z" fill="#DCDCDC"/>
<path d="M259.87 128.93C259.35 128.93 258.73 128.82 258.12 128.48C257.96 130.42 257.8 132.34 257.65 134.17C257.6 134.82 257.55 135.45 257.49 136.08C258.12 136.37 259.09 136.47 259.73 136.49C259.92 134.07 260.13 131.53 260.36 128.9C260.21 128.92 260.04 128.93 259.86 128.93H259.87Z" fill="#DCDCDC"/>
<path d="M263.59 88.1797C262.96 90.4397 262.46 92.6897 262.04 94.8397C262.52 95.3397 263.68 95.6797 264.57 95.8297C265.01 93.6697 265.54 91.4197 266.18 89.1497C265.48 89.0597 264.38 88.8297 263.59 88.1797Z" fill="#DCDCDC"/>
<path d="M263.04 104.7C262.98 104.7 262.92 104.7 262.85 104.7C262.24 104.7 261.38 104.6 260.49 104.22C260.24 106.06 259.98 108.27 259.72 110.71C260.67 111.16 261.6 111.36 262.13 111.44C262.41 109.13 262.71 106.87 263.03 104.68L263.04 104.7Z" fill="#DCDCDC"/>
<path d="M264.05 98.4897C264.15 97.9397 264.26 97.3697 264.37 96.7997C263.71 96.6897 262.63 96.4397 261.83 95.9297C261.34 98.5797 260.97 101.04 260.66 103.12C260.66 103.14 260.66 103.17 260.65 103.2C261.66 103.7 262.68 103.73 263.2 103.69C263.47 101.89 263.76 100.15 264.06 98.4897H264.05Z" fill="#DCDCDC"/>
<path d="M260.46 127.88C260.67 125.5 260.89 123.08 261.14 120.63C260.56 120.63 259.73 120.48 258.85 119.95C258.63 122.38 258.42 124.87 258.22 127.32C259.04 128.02 259.99 127.97 260.46 127.88Z" fill="#DCDCDC"/>
<path d="M262.02 112.45C261.48 112.37 260.59 112.19 259.62 111.78C259.4 113.98 259.17 116.35 258.95 118.79C259.91 119.55 260.8 119.64 261.23 119.62C261.47 117.22 261.73 114.82 262.01 112.45H262.02Z" fill="#DCDCDC"/>
<path d="M266.46 88.1799C267.12 85.9799 267.9 83.7799 268.82 81.6399C268.18 81.4399 267.12 81.0499 266.3 80.4199C265.36 82.5699 264.57 84.7999 263.91 87.0499C264.4 87.8199 265.68 88.1099 266.46 88.1899V88.1799Z" fill="#DCDCDC"/>
<path d="M272.09 75.4599C271.38 75.2299 270.55 74.6899 270.08 73.6899C268.79 75.4599 267.69 77.4199 266.73 79.4699C267.47 80.1199 268.63 80.5299 269.23 80.7099C270.06 78.8899 271.01 77.1299 272.09 75.4599Z" fill="#DCDCDC"/>
</svg>
