<svg width="620" height="1074" viewBox="0 0 620 1074" fill="none" xmlns="http://www.w3.org/2000/svg">
<path d="M301.81 563.56C301.19 563.56 300.56 563.49 299.93 563.33L298.05 562.86C255.06 552.39 222.92 556.06 214 557.45L212.17 557.76C207.93 558.48 203.9 555.63 203.18 551.38C202.46 547.13 205.31 543.11 209.56 542.39L211.54 542.05C223.79 540.13 257.12 536.83 301.78 547.71L303.68 548.18C307.86 549.22 310.41 553.44 309.37 557.62C308.49 561.17 305.31 563.54 301.81 563.54V563.56Z" fill="#9FA7C4"/>
<path d="M301.76 579.21C301.09 579.21 300.4 579.12 299.72 578.94C299.26 578.81 298.79 578.7 298.32 578.59L298.09 578.54C254.68 567.97 222.51 571.76 213.68 573.17C213.02 573.28 212.42 573.39 211.94 573.47C207.69 574.22 203.66 571.39 202.91 567.15C202.16 562.91 204.99 558.87 209.23 558.12C209.74 558.03 210.38 557.92 211.15 557.79C223.47 555.82 256.8 552.44 301.74 563.39L301.92 563.43C302.54 563.58 303.17 563.73 303.79 563.89C307.95 565.01 310.41 569.29 309.28 573.45C308.34 576.93 305.19 579.22 301.76 579.22V579.21Z" fill="#9FA7C4"/>
<path d="M301.29 594.71C300.69 594.71 300.09 594.64 299.48 594.5L297.64 594.05C254.79 583.7 222.84 587.36 214.07 588.74C213.35 588.85 212.78 588.94 212.32 589.02C208.07 589.75 204.04 586.9 203.31 582.66C202.58 578.42 205.43 574.38 209.67 573.65C210.23 573.55 210.92 573.44 211.72 573.32C223.82 571.43 256.89 568.16 301.25 578.88L303.07 579.32C307.26 580.32 309.85 584.52 308.85 588.71C308 592.29 304.8 594.71 301.27 594.71H301.29Z" fill="#9FA7C4"/>
<path d="M309.28 573.45C308.42 576.66 305.66 578.83 302.55 579.14C302.49 579.14 302.44 579.16 302.38 579.16L302.55 579.2L303.1 579.34C307.29 580.33 309.87 584.53 308.88 588.72C308.06 592.19 305.04 594.56 301.65 594.69C301.54 594.71 301.43 594.71 301.31 594.71C300.71 594.71 300.1 594.64 299.5 594.5L297.66 594.06C296.1 593.68 294.56 593.33 293.03 592.99C293.3 577.41 293.19 560.63 292.2 545.56C295.33 546.21 298.53 546.93 301.79 547.72L303.27 548.09L303.69 548.2C307.87 549.23 310.41 553.46 309.38 557.64C308.59 560.86 305.9 563.1 302.8 563.49C302.67 563.51 302.54 563.53 302.4 563.54C302.54 563.57 302.66 563.61 302.8 563.64C303.13 563.72 303.46 563.81 303.79 563.89C307.95 565.01 310.41 569.29 309.29 573.45H309.28Z" fill="#848BA3"/>
<path d="M226.73 587.4C220.85 587.78 216.55 588.35 214.07 588.74C213.35 588.85 212.78 588.94 212.32 589.02C211.74 589.12 211.15 589.16 210.58 589.12C207.02 588.94 203.95 586.32 203.32 582.67C202.59 578.42 205.43 574.4 209.68 573.67C209.7 573.67 209.72 573.67 209.75 573.67C209.89 573.64 210.05 573.62 210.21 573.59C210.05 573.59 209.9 573.57 209.74 573.55C206.38 573.18 203.52 570.65 202.91 567.16C202.16 562.92 204.99 558.88 209.23 558.13C209.36 558.11 209.49 558.08 209.64 558.06C209.92 558.01 210.25 557.95 210.6 557.89C210.28 557.89 209.97 557.85 209.65 557.79C206.44 557.28 203.75 554.79 203.18 551.41C202.46 547.16 205.31 543.14 209.56 542.41L210.52 542.24L211.54 542.06C214.68 541.56 219.21 540.99 224.95 540.58C225.07 555.72 225.64 571.83 226.74 587.41L226.73 587.4Z" fill="#848BA3"/>
<path d="M301.81 564.06C301.14 564.06 300.46 563.98 299.81 563.82L297.93 563.35C255 552.89 222.9 556.58 214.08 557.95L212.26 558.26C210.08 558.63 207.88 558.13 206.07 556.85C204.26 555.57 203.06 553.66 202.69 551.47C202.32 549.29 202.82 547.09 204.1 545.28C205.38 543.47 207.29 542.27 209.48 541.9L211.46 541.56C223.75 539.63 257.15 536.33 301.91 547.23L303.81 547.7C305.96 548.23 307.78 549.57 308.92 551.47C310.06 553.37 310.4 555.6 309.87 557.75C308.95 561.46 305.64 564.05 301.82 564.05L301.81 564.06ZM239.96 555.19C254.92 555.19 274.98 556.73 298.17 562.38L300.05 562.85C300.63 562.99 301.22 563.07 301.81 563.07C305.17 563.07 308.08 560.79 308.89 557.53C309.36 555.64 309.06 553.68 308.06 552.01C307.06 550.34 305.46 549.16 303.57 548.69L301.67 548.22C257.09 537.36 223.85 540.65 211.63 542.57L209.66 542.91C207.74 543.24 206.06 544.29 204.93 545.88C203.8 547.47 203.36 549.4 203.69 551.33C204.02 553.25 205.07 554.93 206.66 556.06C208.25 557.19 210.18 557.63 212.1 557.3L213.93 556.99C218.03 556.35 227.12 555.22 239.97 555.22L239.96 555.19Z" fill="#676D80"/>
<path d="M301.76 579.71C301.03 579.71 300.3 579.61 299.59 579.42C299.16 579.3 298.71 579.2 298.28 579.09L297.98 579.02C254.66 568.47 222.57 572.25 213.76 573.65C213.11 573.76 212.5 573.86 212.02 573.95C207.51 574.75 203.2 571.73 202.41 567.22C201.61 562.72 204.63 558.4 209.14 557.61C209.65 557.52 210.3 557.41 211.07 557.28C223.37 555.31 256.84 551.92 301.86 562.89L302.03 562.93C302.66 563.08 303.29 563.23 303.92 563.4C308.34 564.59 310.96 569.16 309.77 573.57C308.79 577.18 305.5 579.71 301.77 579.71H301.76ZM239.94 570.84C254.91 570.84 274.95 572.39 298.21 578.05L298.44 578.1C298.96 578.22 299.41 578.33 299.86 578.45C300.48 578.62 301.13 578.7 301.77 578.7C305.06 578.7 307.95 576.48 308.81 573.3C309.86 569.42 307.55 565.4 303.67 564.35C303.06 564.18 302.43 564.04 301.82 563.89L301.64 563.85C256.79 552.93 223.48 556.3 211.24 558.26C210.48 558.39 209.83 558.5 209.32 558.59C205.36 559.29 202.7 563.08 203.4 567.05C204.1 571.01 207.89 573.66 211.86 572.96C212.34 572.88 212.95 572.77 213.61 572.66C217.73 572 226.92 570.83 239.95 570.83L239.94 570.84Z" fill="#676D80"/>
<path d="M301.29 595.21C300.65 595.21 300 595.13 299.37 594.98L297.53 594.53C254.76 584.19 222.9 587.86 214.15 589.22C213.43 589.33 212.87 589.42 212.41 589.5C207.9 590.27 203.6 587.24 202.83 582.73C202.45 580.55 202.95 578.35 204.23 576.54C205.51 574.73 207.42 573.53 209.6 573.15C210.17 573.05 210.86 572.93 211.67 572.82C223.84 570.92 256.94 567.65 301.39 578.39L303.21 578.83C305.36 579.34 307.19 580.66 308.35 582.55C309.51 584.44 309.87 586.66 309.36 588.82C308.47 592.58 305.15 595.2 301.3 595.2L301.29 595.21ZM239.95 586.47C254.8 586.47 274.71 587.99 297.76 593.56L299.6 594.01C300.16 594.14 300.73 594.21 301.29 594.21C304.68 594.21 307.6 591.9 308.38 588.6C308.83 586.7 308.52 584.75 307.49 583.09C306.46 581.43 304.86 580.27 302.96 579.82L301.14 579.38C256.86 568.68 223.91 571.93 211.8 573.83C211 573.95 210.31 574.06 209.75 574.16C207.83 574.49 206.15 575.55 205.03 577.14C203.91 578.73 203.47 580.67 203.8 582.59C204.48 586.55 208.27 589.22 212.23 588.54C212.7 588.46 213.26 588.36 213.99 588.26C218.06 587.62 227.12 586.49 239.94 586.49L239.95 586.47Z" fill="#676D80"/>
</svg>
