<svg width="620" height="1074" viewBox="0 0 620 1074" fill="none" xmlns="http://www.w3.org/2000/svg">
<path d="M235.01 577.68C236.62 577.75 238.29 577.81 240.01 577.86C238.3 577.81 236.62 577.75 235.01 577.68Z" fill="#555451"/>
<path d="M300.81 558.27V575.71C296.73 576.14 292.71 576.5 288.75 576.8C287.22 576.92 285.69 577.02 284.18 577.12C283.41 577.17 282.66 577.22 281.91 577.26C281.08 577.31 280.25 577.36 279.42 577.4C278.46 577.45 277.51 577.5 276.56 577.55C276.12 577.57 275.67 577.59 275.23 577.6C272.73 577.72 270.28 577.81 267.86 577.87C267.44 577.88 267.02 577.89 266.6 577.9C258.59 578.11 251.07 578.1 244.23 577.95C244.11 577.95 244 577.95 243.9 577.94C242.58 577.91 241.28 577.87 240 577.84C238.29 577.79 236.61 577.73 235 577.66C234.22 577.63 233.46 577.59 232.7 577.56C231.64 577.51 230.58 577.46 229.58 577.41C227.83 577.32 226.17 577.22 224.59 577.13C222.88 577.02 221.26 576.91 219.76 576.8C214.21 576.38 210.07 575.97 207.7 575.71V558.29C210.25 558.56 214.36 558.97 219.76 559.36C220.51 559.41 221.29 559.47 222.09 559.52C222.93 559.57 223.78 559.63 224.66 559.68C226.59 559.8 228.64 559.92 230.81 560.02C231.49 560.05 232.19 560.09 232.89 560.12C234.68 560.2 236.54 560.27 238.46 560.33C239.57 560.37 240.71 560.41 241.86 560.43C242.65 560.45 243.44 560.47 244.25 560.48C245.51 560.51 246.8 560.53 248.1 560.55C250.13 560.58 252.21 560.59 254.34 560.59C259.17 560.59 264.26 560.51 269.53 560.34C269.97 560.33 270.42 560.31 270.86 560.3C272.3 560.26 273.75 560.19 275.21 560.12C276.61 560.07 278.01 560 279.43 559.91C279.61 559.91 279.79 559.9 279.98 559.88C281.08 559.83 282.19 559.76 283.32 559.68C284 559.65 284.7 559.6 285.39 559.55C286.49 559.48 287.6 559.41 288.73 559.32C292.69 559.02 296.71 558.66 300.79 558.24L300.81 558.27Z" fill="#BEBBBF"/>
<path d="M288.75 559.35V576.8C287.22 576.92 285.69 577.02 284.18 577.12C283.41 577.17 282.66 577.22 281.91 577.26C281.08 577.31 280.25 577.36 279.42 577.4C278.46 577.45 277.51 577.5 276.56 577.55C276.12 577.57 275.67 577.59 275.23 577.6C272.73 577.72 270.28 577.81 267.86 577.87C267.44 577.88 267.02 577.89 266.6 577.9C258.59 578.11 251.07 578.1 244.23 577.95C244.11 577.95 244 577.95 243.9 577.94C242.58 577.91 241.28 577.87 240 577.84C238.28 577.8 236.61 577.73 235 577.66C234.22 577.63 233.46 577.59 232.7 577.56C231.64 577.51 230.58 577.46 229.58 577.41C227.83 577.32 226.17 577.22 224.59 577.13C222.88 577.02 221.26 576.91 219.76 576.8V559.36C220.51 559.41 221.29 559.47 222.09 559.52C222.93 559.57 223.78 559.63 224.66 559.68C226.59 559.8 228.64 559.92 230.81 560.02C231.49 560.05 232.19 560.09 232.89 560.12C234.68 560.2 236.54 560.27 238.46 560.33C239.57 560.37 240.71 560.41 241.86 560.43C242.65 560.45 243.44 560.47 244.25 560.48C245.51 560.51 246.8 560.53 248.1 560.55C250.13 560.58 252.21 560.59 254.34 560.59C259.17 560.59 264.26 560.51 269.53 560.34C269.97 560.33 270.42 560.31 270.86 560.3C272.3 560.26 273.75 560.19 275.21 560.12C276.61 560.07 278.01 560 279.43 559.91C279.61 559.91 279.79 559.9 279.98 559.88C281.08 559.83 282.19 559.76 283.32 559.68C284 559.65 284.7 559.6 285.39 559.55C286.49 559.48 287.6 559.41 288.73 559.32L288.75 559.35Z" fill="#F3EFF5"/>
<path d="M288.75 559.35V576.8C287.22 576.92 285.69 577.02 284.18 577.12C283.41 577.17 282.66 577.22 281.91 577.26C281.08 577.31 280.25 577.36 279.42 577.4C278.46 577.45 277.51 577.5 276.56 577.55C276.12 577.57 275.67 577.59 275.23 577.6C272.73 577.72 270.28 577.81 267.86 577.87C267.44 577.88 267.02 577.89 266.6 577.9C258.59 578.11 251.07 578.1 244.23 577.95C244.11 577.95 244 577.95 243.9 577.94C242.58 577.91 241.28 577.87 240 577.84C238.28 577.8 236.61 577.73 235 577.66C234.22 577.63 233.46 577.59 232.7 577.56C231.64 577.51 230.58 577.46 229.58 577.41C227.83 577.32 226.17 577.22 224.59 577.13C222.88 577.02 221.26 576.91 219.76 576.8V559.36C220.51 559.41 221.29 559.47 222.09 559.52C222.93 559.57 223.78 559.63 224.66 559.68C226.59 559.8 228.64 559.92 230.81 560.02C231.49 560.05 232.19 560.09 232.89 560.12C234.68 560.2 236.54 560.27 238.46 560.33C239.57 560.37 240.71 560.41 241.86 560.43C242.65 560.45 243.44 560.47 244.25 560.48C245.51 560.51 246.8 560.53 248.1 560.55C250.13 560.58 252.21 560.59 254.34 560.59C259.17 560.59 264.26 560.51 269.53 560.34C269.97 560.33 270.42 560.31 270.86 560.3C272.3 560.26 273.75 560.19 275.21 560.12C276.61 560.07 278.01 560 279.43 559.91C279.61 559.91 279.79 559.9 279.98 559.88C281.08 559.83 282.19 559.76 283.32 559.68C284 559.65 284.7 559.6 285.39 559.55C286.49 559.48 287.6 559.41 288.73 559.32L288.75 559.35Z" fill="#F3EFF5"/>
<path d="M288.75 576.8C292.71 576.49 296.73 576.13 300.81 575.71V579.94C284.09 581.68 268.21 582.29 254.36 582.29C231.65 582.29 214.36 580.71 207.71 579.97V575.73C210.08 575.99 214.22 576.41 219.77 576.82C221.28 576.93 222.89 577.04 224.6 577.15C226.18 577.25 227.84 577.35 229.59 577.43C230.59 577.49 231.65 577.53 232.71 577.59C233.46 577.62 234.23 577.65 235.01 577.69C236.62 577.75 238.29 577.82 240.01 577.86C241.29 577.89 242.59 577.93 243.91 577.96C244.01 577.97 244.12 577.97 244.24 577.97C251.08 578.11 258.6 578.12 266.61 577.92C267.03 577.9 267.45 577.89 267.87 577.88C270.28 577.82 272.73 577.73 275.23 577.61C275.68 577.6 276.12 577.58 276.56 577.55C277.51 577.5 278.46 577.46 279.42 577.4C280.25 577.36 281.08 577.31 281.91 577.26C282.66 577.22 283.42 577.17 284.18 577.12C285.69 577.02 287.22 576.92 288.75 576.8V576.8Z" fill="#555451"/>
<path d="M300.81 554.03V558.27C296.73 558.69 292.71 559.05 288.75 559.35C287.63 559.44 286.51 559.51 285.41 559.58C284.72 559.63 284.03 559.68 283.34 559.71C282.22 559.79 281.11 559.85 280.01 559.91C279.81 559.93 279.64 559.94 279.46 559.94C278.03 560.02 276.62 560.09 275.23 560.15C273.77 560.21 272.32 560.28 270.88 560.32C270.44 560.33 269.99 560.36 269.55 560.37C264.28 560.54 259.19 560.62 254.36 560.62C252.23 560.62 250.15 560.61 248.12 560.58C246.81 560.56 245.52 560.54 244.27 560.51C243.45 560.5 242.66 560.48 241.87 560.45C240.73 560.43 239.59 560.4 238.48 560.36C236.55 560.3 234.7 560.23 232.9 560.15C232.2 560.12 231.5 560.08 230.82 560.05C228.66 559.95 226.6 559.83 224.67 559.71C223.79 559.66 222.94 559.6 222.1 559.55C221.3 559.49 220.52 559.44 219.77 559.38C214.37 558.99 210.26 558.58 207.71 558.31V554.07C217.36 555.14 256.06 558.76 300.81 554.03V554.03Z" fill="#555451"/>
<path d="M235.01 661.04C236.62 661.11 238.29 661.17 240.01 661.22C238.3 661.17 236.62 661.11 235.01 661.04Z" fill="#555451"/>
<path d="M300.81 641.62V659.06C296.73 659.49 292.71 659.85 288.75 660.15C287.22 660.27 285.69 660.37 284.18 660.47C283.41 660.52 282.66 660.57 281.91 660.61C281.08 660.66 280.25 660.71 279.42 660.75C278.46 660.8 277.51 660.85 276.56 660.9C276.12 660.92 275.67 660.94 275.23 660.95C272.73 661.07 270.28 661.16 267.86 661.22C267.44 661.23 267.02 661.24 266.6 661.25C258.59 661.46 251.07 661.45 244.23 661.3C244.11 661.3 244 661.3 243.9 661.29C242.58 661.26 241.28 661.22 240 661.19C238.29 661.14 236.61 661.08 235 661.01C234.22 660.98 233.46 660.94 232.7 660.91C231.64 660.86 230.58 660.81 229.58 660.76C227.83 660.67 226.17 660.57 224.59 660.48C222.88 660.37 221.26 660.26 219.76 660.15C214.21 659.73 210.07 659.32 207.7 659.06V641.64C210.25 641.91 214.36 642.32 219.76 642.71C220.51 642.76 221.29 642.82 222.09 642.87C222.93 642.92 223.78 642.98 224.66 643.03C226.59 643.15 228.64 643.27 230.81 643.37C231.49 643.4 232.19 643.44 232.89 643.47C234.68 643.55 236.54 643.62 238.46 643.68C239.57 643.72 240.71 643.76 241.86 643.78C242.65 643.8 243.44 643.82 244.25 643.83C245.51 643.86 246.8 643.88 248.1 643.9C250.13 643.93 252.21 643.94 254.34 643.94C259.17 643.94 264.26 643.86 269.53 643.69C269.97 643.68 270.42 643.66 270.86 643.65C272.3 643.61 273.75 643.54 275.21 643.47C276.61 643.42 278.01 643.35 279.43 643.26C279.61 643.26 279.79 643.25 279.98 643.23C281.08 643.18 282.19 643.11 283.32 643.03C284 643 284.7 642.95 285.39 642.9C286.49 642.83 287.6 642.76 288.73 642.67C292.69 642.37 296.71 642.01 300.79 641.59L300.81 641.62Z" fill="#BEBBBF"/>
<path d="M288.75 642.7V660.15C287.22 660.27 285.69 660.37 284.18 660.47C283.41 660.52 282.66 660.57 281.91 660.61C281.08 660.66 280.25 660.71 279.42 660.75C278.46 660.8 277.51 660.85 276.56 660.9C276.12 660.92 275.67 660.94 275.23 660.95C272.73 661.07 270.28 661.16 267.86 661.22C267.44 661.23 267.02 661.24 266.6 661.25C258.59 661.46 251.07 661.45 244.23 661.3C244.11 661.3 244 661.3 243.9 661.29C242.58 661.26 241.28 661.22 240 661.19C238.28 661.15 236.61 661.08 235 661.01C234.22 660.98 233.46 660.94 232.7 660.91C231.64 660.86 230.58 660.81 229.58 660.76C227.83 660.67 226.17 660.57 224.59 660.48C222.88 660.37 221.26 660.26 219.76 660.15V642.71C220.51 642.76 221.29 642.82 222.09 642.87C222.93 642.92 223.78 642.98 224.66 643.03C226.59 643.15 228.64 643.27 230.81 643.37C231.49 643.4 232.19 643.44 232.89 643.47C234.68 643.55 236.54 643.62 238.46 643.68C239.57 643.72 240.71 643.76 241.86 643.78C242.65 643.8 243.44 643.82 244.25 643.83C245.51 643.86 246.8 643.88 248.1 643.9C250.13 643.93 252.21 643.94 254.34 643.94C259.17 643.94 264.26 643.86 269.53 643.69C269.97 643.68 270.42 643.66 270.86 643.65C272.3 643.61 273.75 643.54 275.21 643.47C276.61 643.42 278.01 643.35 279.43 643.26C279.61 643.26 279.79 643.25 279.98 643.23C281.08 643.18 282.19 643.11 283.32 643.03C284 643 284.7 642.95 285.39 642.9C286.49 642.83 287.6 642.76 288.73 642.67L288.75 642.7Z" fill="#F3EFF5"/>
<path d="M288.75 642.7V660.15C287.22 660.27 285.69 660.37 284.18 660.47C283.41 660.52 282.66 660.57 281.91 660.61C281.08 660.66 280.25 660.71 279.42 660.75C278.46 660.8 277.51 660.85 276.56 660.9C276.12 660.92 275.67 660.94 275.23 660.95C272.73 661.07 270.28 661.16 267.86 661.22C267.44 661.23 267.02 661.24 266.6 661.25C258.59 661.46 251.07 661.45 244.23 661.3C244.11 661.3 244 661.3 243.9 661.29C242.58 661.26 241.28 661.22 240 661.19C238.28 661.15 236.61 661.08 235 661.01C234.22 660.98 233.46 660.94 232.7 660.91C231.64 660.86 230.58 660.81 229.58 660.76C227.83 660.67 226.17 660.57 224.59 660.48C222.88 660.37 221.26 660.26 219.76 660.15V642.71C220.51 642.76 221.29 642.82 222.09 642.87C222.93 642.92 223.78 642.98 224.66 643.03C226.59 643.15 228.64 643.27 230.81 643.37C231.49 643.4 232.19 643.44 232.89 643.47C234.68 643.55 236.54 643.62 238.46 643.68C239.57 643.72 240.71 643.76 241.86 643.78C242.65 643.8 243.44 643.82 244.25 643.83C245.51 643.86 246.8 643.88 248.1 643.9C250.13 643.93 252.21 643.94 254.34 643.94C259.17 643.94 264.26 643.86 269.53 643.69C269.97 643.68 270.42 643.66 270.86 643.65C272.3 643.61 273.75 643.54 275.21 643.47C276.61 643.42 278.01 643.35 279.43 643.26C279.61 643.26 279.79 643.25 279.98 643.23C281.08 643.18 282.19 643.11 283.32 643.03C284 643 284.7 642.95 285.39 642.9C286.49 642.83 287.6 642.76 288.73 642.67L288.75 642.7Z" fill="#F3EFF5"/>
<path d="M288.75 660.15C292.71 659.84 296.73 659.48 300.81 659.06V663.29C284.09 665.03 268.21 665.64 254.36 665.64C231.65 665.64 214.36 664.06 207.71 663.32V659.08C210.08 659.34 214.22 659.76 219.77 660.17C221.28 660.28 222.89 660.39 224.6 660.5C226.18 660.6 227.84 660.7 229.59 660.78C230.59 660.84 231.65 660.88 232.71 660.94C233.46 660.97 234.23 661 235.01 661.04C236.62 661.1 238.29 661.17 240.01 661.21C241.29 661.24 242.59 661.28 243.91 661.31C244.01 661.32 244.12 661.32 244.24 661.32C251.08 661.46 258.6 661.47 266.61 661.27C267.03 661.25 267.45 661.24 267.87 661.23C270.28 661.17 272.73 661.08 275.23 660.96C275.68 660.95 276.12 660.93 276.56 660.9C277.51 660.85 278.46 660.81 279.42 660.75C280.25 660.71 281.08 660.66 281.91 660.61C282.66 660.57 283.42 660.52 284.18 660.47C285.69 660.37 287.22 660.27 288.75 660.15V660.15Z" fill="#555451"/>
<path d="M300.81 637.38V641.62C296.73 642.04 292.71 642.4 288.75 642.7C287.63 642.79 286.51 642.86 285.41 642.93C284.72 642.98 284.03 643.03 283.34 643.06C282.22 643.14 281.11 643.2 280.01 643.26C279.81 643.28 279.64 643.29 279.46 643.29C278.03 643.37 276.62 643.44 275.23 643.5C273.77 643.56 272.32 643.63 270.88 643.67C270.44 643.68 269.99 643.71 269.55 643.72C264.28 643.89 259.19 643.97 254.36 643.97C252.23 643.97 250.15 643.96 248.12 643.93C246.81 643.91 245.52 643.89 244.27 643.86C243.45 643.85 242.66 643.83 241.87 643.8C240.73 643.78 239.59 643.75 238.48 643.71C236.55 643.65 234.7 643.58 232.9 643.5C232.2 643.47 231.5 643.43 230.82 643.4C228.66 643.3 226.6 643.18 224.67 643.06C223.79 643.01 222.94 642.95 222.1 642.9C221.3 642.84 220.52 642.79 219.77 642.73C214.37 642.34 210.26 641.93 207.71 641.66V637.42C217.36 638.49 256.06 642.11 300.81 637.38V637.38Z" fill="#555451"/>
<path d="M235.01 744.39C236.62 744.46 238.29 744.52 240.01 744.57C238.3 744.52 236.62 744.46 235.01 744.39Z" fill="#555451"/>
<path d="M300.81 724.97V742.41C296.73 742.84 292.71 743.2 288.75 743.5C287.22 743.62 285.69 743.72 284.18 743.82C283.41 743.87 282.66 743.92 281.91 743.96C281.08 744.01 280.25 744.06 279.42 744.1C278.46 744.15 277.51 744.2 276.56 744.25C276.12 744.27 275.67 744.29 275.23 744.3C272.73 744.42 270.28 744.51 267.86 744.57C267.44 744.58 267.02 744.59 266.6 744.6C258.59 744.81 251.07 744.8 244.23 744.65C244.11 744.65 244 744.65 243.9 744.64C242.58 744.61 241.28 744.57 240 744.54C238.29 744.49 236.61 744.43 235 744.36C234.22 744.33 233.46 744.29 232.7 744.26C231.64 744.21 230.58 744.16 229.58 744.11C227.83 744.02 226.17 743.92 224.59 743.83C222.88 743.72 221.26 743.61 219.76 743.5C214.21 743.08 210.07 742.67 207.7 742.41V724.99C210.25 725.26 214.36 725.67 219.76 726.06C220.51 726.11 221.29 726.17 222.09 726.22C222.93 726.27 223.78 726.33 224.66 726.38C226.59 726.5 228.64 726.62 230.81 726.72C231.49 726.75 232.19 726.79 232.89 726.82C234.68 726.9 236.54 726.97 238.46 727.03C239.57 727.07 240.71 727.11 241.86 727.13C242.65 727.15 243.44 727.17 244.25 727.18C245.51 727.21 246.8 727.23 248.1 727.25C250.13 727.28 252.21 727.29 254.34 727.29C259.17 727.29 264.26 727.21 269.53 727.04C269.97 727.03 270.42 727.01 270.86 727C272.3 726.96 273.75 726.89 275.21 726.82C276.61 726.77 278.01 726.7 279.43 726.61C279.61 726.61 279.79 726.6 279.98 726.58C281.08 726.53 282.19 726.46 283.32 726.38C284 726.35 284.7 726.3 285.39 726.25C286.49 726.18 287.6 726.11 288.73 726.02C292.69 725.72 296.71 725.36 300.79 724.94L300.81 724.97Z" fill="#BEBBBF"/>
<path d="M288.75 726.06V743.51C287.22 743.63 285.69 743.73 284.18 743.83C283.41 743.88 282.66 743.93 281.91 743.97C281.08 744.02 280.25 744.07 279.42 744.11C278.46 744.16 277.51 744.21 276.56 744.26C276.12 744.28 275.67 744.3 275.23 744.31C272.73 744.43 270.28 744.52 267.86 744.58C267.44 744.59 267.02 744.6 266.6 744.61C258.59 744.82 251.07 744.81 244.23 744.66C244.11 744.66 244 744.66 243.9 744.65C242.58 744.62 241.28 744.58 240 744.55C238.28 744.51 236.61 744.44 235 744.37C234.22 744.34 233.46 744.3 232.7 744.27C231.64 744.22 230.58 744.17 229.58 744.12C227.83 744.03 226.17 743.93 224.59 743.84C222.88 743.73 221.26 743.62 219.76 743.51V726.07C220.51 726.12 221.29 726.18 222.09 726.23C222.93 726.28 223.78 726.34 224.66 726.39C226.59 726.51 228.64 726.63 230.81 726.73C231.49 726.76 232.19 726.8 232.89 726.83C234.68 726.91 236.54 726.98 238.46 727.04C239.57 727.08 240.71 727.12 241.86 727.14C242.65 727.16 243.44 727.18 244.25 727.19C245.51 727.22 246.8 727.24 248.1 727.26C250.13 727.29 252.21 727.3 254.34 727.3C259.17 727.3 264.26 727.22 269.53 727.05C269.97 727.04 270.42 727.02 270.86 727.01C272.3 726.97 273.75 726.9 275.21 726.83C276.61 726.78 278.01 726.71 279.43 726.62C279.61 726.62 279.79 726.61 279.98 726.59C281.08 726.54 282.19 726.47 283.32 726.39C284 726.36 284.7 726.31 285.39 726.26C286.49 726.19 287.6 726.12 288.73 726.03L288.75 726.06Z" fill="#F3EFF5"/>
<path d="M288.75 726.06V743.51C287.22 743.63 285.69 743.73 284.18 743.83C283.41 743.88 282.66 743.93 281.91 743.97C281.08 744.02 280.25 744.07 279.42 744.11C278.46 744.16 277.51 744.21 276.56 744.26C276.12 744.28 275.67 744.3 275.23 744.31C272.73 744.43 270.28 744.52 267.86 744.58C267.44 744.59 267.02 744.6 266.6 744.61C258.59 744.82 251.07 744.81 244.23 744.66C244.11 744.66 244 744.66 243.9 744.65C242.58 744.62 241.28 744.58 240 744.55C238.28 744.51 236.61 744.44 235 744.37C234.22 744.34 233.46 744.3 232.7 744.27C231.64 744.22 230.58 744.17 229.58 744.12C227.83 744.03 226.17 743.93 224.59 743.84C222.88 743.73 221.26 743.62 219.76 743.51V726.07C220.51 726.12 221.29 726.18 222.09 726.23C222.93 726.28 223.78 726.34 224.66 726.39C226.59 726.51 228.64 726.63 230.81 726.73C231.49 726.76 232.19 726.8 232.89 726.83C234.68 726.91 236.54 726.98 238.46 727.04C239.57 727.08 240.71 727.12 241.86 727.14C242.65 727.16 243.44 727.18 244.25 727.19C245.51 727.22 246.8 727.24 248.1 727.26C250.13 727.29 252.21 727.3 254.34 727.3C259.17 727.3 264.26 727.22 269.53 727.05C269.97 727.04 270.42 727.02 270.86 727.01C272.3 726.97 273.75 726.9 275.21 726.83C276.61 726.78 278.01 726.71 279.43 726.62C279.61 726.62 279.79 726.61 279.98 726.59C281.08 726.54 282.19 726.47 283.32 726.39C284 726.36 284.7 726.31 285.39 726.26C286.49 726.19 287.6 726.12 288.73 726.03L288.75 726.06Z" fill="#F3EFF5"/>
<path d="M288.75 743.5C292.71 743.19 296.73 742.83 300.81 742.41V746.64C284.09 748.38 268.21 748.99 254.36 748.99C231.65 748.99 214.36 747.41 207.71 746.67V742.43C210.08 742.69 214.22 743.11 219.77 743.52C221.28 743.63 222.89 743.74 224.6 743.85C226.18 743.95 227.84 744.05 229.59 744.13C230.59 744.19 231.65 744.23 232.71 744.29C233.46 744.32 234.23 744.35 235.01 744.39C236.62 744.45 238.29 744.52 240.01 744.56C241.29 744.59 242.59 744.63 243.91 744.66C244.01 744.67 244.12 744.67 244.24 744.67C251.08 744.81 258.6 744.82 266.61 744.62C267.03 744.6 267.45 744.59 267.87 744.58C270.28 744.52 272.73 744.43 275.23 744.31C275.68 744.3 276.12 744.28 276.56 744.25C277.51 744.2 278.46 744.16 279.42 744.1C280.25 744.06 281.08 744.01 281.91 743.96C282.66 743.92 283.42 743.87 284.18 743.82C285.69 743.72 287.22 743.62 288.75 743.5V743.5Z" fill="#555451"/>
<path d="M300.81 720.73V724.97C296.73 725.39 292.71 725.75 288.75 726.05C287.63 726.14 286.51 726.21 285.41 726.28C284.72 726.33 284.03 726.38 283.34 726.41C282.22 726.49 281.11 726.55 280.01 726.61C279.81 726.63 279.64 726.64 279.46 726.64C278.03 726.72 276.62 726.79 275.23 726.85C273.77 726.91 272.32 726.98 270.88 727.02C270.44 727.03 269.99 727.06 269.55 727.07C264.28 727.24 259.19 727.32 254.36 727.32C252.23 727.32 250.15 727.31 248.12 727.28C246.81 727.26 245.52 727.24 244.27 727.21C243.45 727.2 242.66 727.18 241.87 727.15C240.73 727.13 239.59 727.1 238.48 727.06C236.55 727 234.7 726.93 232.9 726.85C232.2 726.82 231.5 726.78 230.82 726.75C228.66 726.65 226.6 726.53 224.67 726.41C223.79 726.36 222.94 726.3 222.1 726.25C221.3 726.19 220.52 726.14 219.77 726.08C214.37 725.69 210.26 725.28 207.71 725.01V720.77C217.36 721.84 256.06 725.46 300.81 720.73V720.73Z" fill="#555451"/>
<path d="M207.71 535.91H195.56V767.1H207.71V535.91Z" fill="#555451"/>
<path d="M312.96 535.91H300.81V767.1H312.96V535.91Z" fill="#555451"/>
</svg>
