<svg width="620" height="1074" viewBox="0 0 620 1074" fill="none" xmlns="http://www.w3.org/2000/svg">
<path d="M234.73 751.84C236.34 751.91 238.01 751.97 239.73 752.02C238.02 751.97 236.34 751.91 234.73 751.84Z" fill="#555451"/>
<path d="M300.53 590.7V647.49C255.78 652.21 217.08 648.58 207.43 647.52V590.7H195.28V889.5H207.43V846.72C214.08 847.44 231.37 849.03 254.08 849.03C267.93 849.03 283.81 848.43 300.53 846.69V889.5H312.67V590.7H300.53ZM300.53 842.45C296.45 842.88 292.43 843.24 288.47 843.54C286.93 843.66 285.38 843.77 283.86 843.86C282.35 843.96 280.83 844.05 279.33 844.14C277.82 844.22 276.34 844.3 274.87 844.36C271.92 844.5 269.02 844.6 266.19 844.66C264.77 844.71 263.36 844.74 261.99 844.75C260.6 844.77 259.24 844.79 257.88 844.8C254.74 844.84 251.69 844.83 248.75 844.79C247.06 844.77 245.42 844.75 243.82 844.72C242.2 844.68 240.64 844.64 239.11 844.6C238.04 844.56 236.98 844.52 235.95 844.49C234.78 844.44 233.63 844.4 232.5 844.35C229.57 844.21 226.82 844.06 224.3 843.91C223.45 843.85 222.62 843.8 221.82 843.74C221.02 843.69 220.24 843.63 219.49 843.58C213.94 843.16 209.81 842.75 207.43 842.49V754.13C214.08 754.87 231.37 756.45 254.08 756.45C267.93 756.45 283.81 755.84 300.53 754.1V842.45V842.45ZM300.53 749.87C296.45 750.29 292.43 750.65 288.47 750.96C286.94 751.08 285.41 751.18 283.9 751.28C283.14 751.33 282.38 751.38 281.63 751.42C280.8 751.47 279.97 751.52 279.14 751.56C278.18 751.62 277.23 751.66 276.28 751.71C275.84 751.74 275.4 751.76 274.95 751.77C272.45 751.89 270 751.98 267.59 752.04C267.17 752.05 266.75 752.06 266.33 752.08C258.32 752.28 250.8 752.27 243.96 752.13C243.84 752.13 243.73 752.13 243.63 752.12C242.31 752.09 241.01 752.05 239.73 752.02C238.01 751.98 236.34 751.91 234.73 751.85C233.95 751.81 233.18 751.78 232.43 751.75C231.37 751.69 230.31 751.65 229.31 751.59C227.56 751.51 225.9 751.41 224.32 751.31C222.61 751.2 221 751.09 219.49 750.98C213.94 750.57 209.8 750.15 207.43 749.89V732.47C209.98 732.74 214.09 733.15 219.49 733.54C220.24 733.6 221.02 733.65 221.82 733.71C222.66 733.76 223.51 733.82 224.39 733.87C226.32 733.99 228.38 734.11 230.54 734.21C231.22 734.24 231.92 734.28 232.62 734.31C234.42 734.39 236.27 734.46 238.2 734.52C239.31 734.56 240.45 734.59 241.59 734.61C242.38 734.64 243.17 734.66 243.99 734.67C245.24 734.7 246.53 734.72 247.84 734.74C249.87 734.77 251.95 734.78 254.08 734.78C258.91 734.78 264 734.7 269.27 734.53C269.71 734.52 270.16 734.49 270.6 734.48C272.04 734.44 273.49 734.37 274.95 734.31C276.34 734.25 277.75 734.18 279.18 734.1C279.36 734.1 279.53 734.09 279.73 734.07C280.83 734.01 281.94 733.95 283.06 733.87C283.75 733.84 284.44 733.79 285.13 733.74C286.23 733.67 287.35 733.6 288.47 733.51C292.43 733.21 296.45 732.85 300.53 732.43V749.87ZM300.53 728.19C255.78 732.92 217.08 729.3 207.43 728.23V674.66C214.08 675.37 231.37 676.97 254.08 676.97C267.93 676.97 283.81 676.37 300.53 674.62V728.19V728.19ZM300.53 670.38C296.45 670.81 292.43 671.17 288.47 671.47C286.93 671.59 285.38 671.7 283.86 671.8C280.81 672 277.81 672.17 274.87 672.29C271.92 672.43 269.02 672.53 266.19 672.59C264.07 672.66 261.98 672.69 259.93 672.71C259.24 672.73 258.57 672.73 257.88 672.74C254.74 672.77 251.69 672.76 248.75 672.73C247.06 672.7 245.42 672.68 243.82 672.65C242.2 672.62 240.64 672.57 239.11 672.53C238.04 672.5 236.98 672.45 235.95 672.42C234.78 672.38 233.63 672.33 232.5 672.28C229.57 672.15 226.82 671.99 224.3 671.84C222.59 671.73 220.98 671.62 219.49 671.51C213.94 671.1 209.81 670.68 207.43 670.42V651.76C209.98 652.04 214.09 652.44 219.49 652.84C220.24 652.89 221.02 652.95 221.82 653C222.66 653.06 223.51 653.11 224.39 653.16C226.32 653.29 228.38 653.41 230.54 653.5C231.22 653.54 231.92 653.57 232.62 653.6C234.42 653.68 236.27 653.76 238.2 653.81C239.31 653.85 240.45 653.89 241.59 653.91C242.38 653.93 243.17 653.95 243.99 653.96C245.24 654 246.53 654.02 247.84 654.03C249.87 654.06 251.95 654.07 254.08 654.07C255.82 654.07 257.57 654.06 259.37 654.04C260.27 654.03 261.17 654.02 262.08 654.01C263.08 653.99 264.08 653.96 265.1 653.94C265.93 653.93 266.77 653.91 267.62 653.88C269.51 653.82 271.43 653.76 273.37 653.68C274.32 653.64 275.28 653.6 276.23 653.55C278.02 653.46 279.81 653.36 281.63 653.26C281.98 653.24 282.32 653.22 282.67 653.2C283.48 653.15 284.31 653.1 285.13 653.03C290.16 652.69 295.3 652.26 300.53 651.72V670.38V670.38Z" fill="#555451"/>
<path d="M300.52 732.42V749.86C296.44 750.29 292.42 750.65 288.46 750.95C286.93 751.07 285.4 751.17 283.89 751.27C283.12 751.32 282.37 751.37 281.62 751.41C280.79 751.46 279.96 751.51 279.13 751.55C278.17 751.6 277.22 751.65 276.27 751.7C275.83 751.72 275.38 751.74 274.94 751.75C272.44 751.87 269.99 751.96 267.57 752.02C267.15 752.03 266.73 752.04 266.31 752.05C258.3 752.26 250.78 752.25 243.94 752.1C243.82 752.1 243.71 752.1 243.61 752.09C242.29 752.06 240.99 752.02 239.71 751.99C238 751.94 236.32 751.88 234.71 751.81C233.93 751.78 233.17 751.74 232.41 751.71C231.35 751.66 230.29 751.61 229.29 751.56C227.54 751.47 225.88 751.37 224.3 751.28C222.59 751.17 220.97 751.06 219.47 750.95C213.92 750.53 209.78 750.12 207.41 749.86V732.44C209.96 732.71 214.07 733.12 219.47 733.51C220.22 733.56 221 733.62 221.8 733.67C222.64 733.72 223.49 733.78 224.37 733.83C226.3 733.95 228.35 734.07 230.52 734.17C231.2 734.2 231.9 734.24 232.6 734.27C234.39 734.35 236.25 734.42 238.17 734.48C239.28 734.52 240.42 734.56 241.57 734.58C242.36 734.6 243.15 734.62 243.96 734.63C245.22 734.66 246.51 734.68 247.81 734.7C249.84 734.73 251.92 734.74 254.05 734.74C258.88 734.74 263.97 734.66 269.24 734.49C269.68 734.48 270.13 734.46 270.57 734.45C272.01 734.41 273.46 734.34 274.92 734.27C276.32 734.22 277.72 734.15 279.14 734.06C279.32 734.06 279.5 734.05 279.69 734.03C280.79 733.98 281.9 733.91 283.03 733.83C283.71 733.8 284.41 733.75 285.1 733.7C286.2 733.63 287.31 733.56 288.44 733.47C292.4 733.17 296.42 732.81 300.5 732.39L300.52 732.42Z" fill="#BEBBBF"/>
<path d="M300.52 651.72V670.38C296.44 670.81 292.42 671.17 288.46 671.46C286.92 671.58 285.37 671.69 283.85 671.79C280.8 672 277.8 672.16 274.86 672.28C271.91 672.42 269.01 672.52 266.18 672.59C264.06 672.66 261.97 672.69 259.92 672.71C259.23 672.72 258.56 672.72 257.87 672.73C254.72 672.76 251.67 672.75 248.73 672.72C247.04 672.7 245.4 672.68 243.8 672.64C242.19 672.61 240.62 672.56 239.09 672.52C238.03 672.49 236.96 672.44 235.93 672.41C234.76 672.37 233.61 672.32 232.48 672.27C229.55 672.14 226.8 671.99 224.27 671.83C222.56 671.72 220.96 671.61 219.46 671.5C213.91 671.08 209.78 670.67 207.4 670.41V651.76C209.95 652.03 214.06 652.44 219.46 652.83C220.21 652.88 220.99 652.94 221.79 652.99C222.63 653.05 223.48 653.1 224.36 653.15C226.29 653.27 228.34 653.39 230.51 653.49C231.19 653.52 231.89 653.56 232.59 653.59C234.38 653.67 236.24 653.74 238.16 653.8C239.27 653.84 240.41 653.88 241.56 653.9C242.35 653.92 243.14 653.94 243.95 653.95C245.21 653.98 246.5 654 247.8 654.02C249.83 654.05 251.91 654.06 254.04 654.06C255.77 654.06 257.53 654.05 259.33 654.03C260.23 654.02 261.14 654.01 262.05 654C263.04 653.98 264.05 653.96 265.06 653.93C265.9 653.92 266.73 653.9 267.58 653.86C269.47 653.8 271.38 653.74 273.33 653.66C274.27 653.62 275.23 653.58 276.19 653.53C277.96 653.45 279.77 653.36 281.58 653.25C281.93 653.23 282.27 653.21 282.62 653.18C283.43 653.14 284.26 653.08 285.08 653.02C290.1 652.68 295.25 652.24 300.47 651.71L300.52 651.72Z" fill="#BEBBBF"/>
<path d="M288.47 652.8V671.46C286.93 671.58 285.38 671.69 283.86 671.79C280.81 671.99 277.81 672.15 274.87 672.28C271.92 672.41 269.02 672.51 266.19 672.59C264.07 672.64 261.98 672.68 259.93 672.71C259.24 672.72 258.57 672.72 257.88 672.73C254.73 672.75 251.68 672.75 248.74 672.72C247.05 672.7 245.41 672.68 243.81 672.64C242.2 672.6 240.63 672.56 239.1 672.52C238.04 672.49 236.97 672.44 235.94 672.41C234.77 672.37 233.62 672.32 232.49 672.27C229.56 672.14 226.81 671.99 224.28 671.83C222.57 671.72 220.97 671.61 219.47 671.5V652.82C220.22 652.87 221 652.93 221.8 652.98C222.64 653.04 223.49 653.09 224.37 653.14C226.3 653.26 228.35 653.38 230.52 653.48C231.2 653.51 231.9 653.55 232.6 653.58C234.39 653.66 236.25 653.73 238.17 653.79C239.28 653.83 240.42 653.87 241.57 653.89C242.36 653.91 243.15 653.93 243.96 653.94C245.22 653.97 246.51 653.99 247.81 654.01C249.84 654.04 251.92 654.05 254.05 654.05C255.78 654.05 257.54 654.04 259.34 654.02C260.24 654.01 261.15 654 262.06 653.99C263.05 653.97 264.06 653.95 265.07 653.92C265.91 653.91 266.74 653.89 267.59 653.85C269.48 653.79 271.39 653.73 273.34 653.65C274.28 653.61 275.24 653.57 276.2 653.52C277.97 653.44 279.78 653.35 281.59 653.24C281.94 653.22 282.28 653.2 282.63 653.17C283.44 653.13 284.27 653.07 285.09 653.01C286.2 652.94 287.31 652.87 288.43 652.78L288.47 652.8Z" fill="#F3EFF5"/>
<path d="M288.47 733.51V750.96C286.94 751.08 285.41 751.18 283.9 751.28C283.13 751.33 282.38 751.38 281.63 751.42C280.8 751.47 279.97 751.52 279.14 751.56C278.18 751.61 277.23 751.66 276.28 751.71C275.84 751.73 275.39 751.75 274.95 751.76C272.45 751.88 270 751.97 267.58 752.03C267.16 752.04 266.74 752.05 266.32 752.06C258.31 752.27 250.79 752.26 243.95 752.11C243.83 752.11 243.72 752.11 243.62 752.1C242.3 752.07 241 752.03 239.72 752C238 751.96 236.33 751.89 234.72 751.82C233.94 751.79 233.18 751.75 232.42 751.72C231.36 751.67 230.3 751.62 229.3 751.57C227.55 751.48 225.89 751.38 224.31 751.29C222.6 751.18 220.98 751.07 219.48 750.96V733.52C220.23 733.57 221.01 733.63 221.81 733.68C222.65 733.73 223.5 733.79 224.38 733.84C226.31 733.96 228.36 734.08 230.53 734.18C231.21 734.21 231.91 734.25 232.61 734.28C234.4 734.36 236.26 734.43 238.18 734.49C239.29 734.53 240.43 734.57 241.58 734.59C242.37 734.61 243.16 734.63 243.97 734.64C245.23 734.67 246.52 734.69 247.82 734.71C249.85 734.74 251.93 734.75 254.06 734.75C258.89 734.75 263.98 734.67 269.25 734.5C269.69 734.49 270.14 734.47 270.58 734.46C272.02 734.42 273.47 734.35 274.93 734.28C276.33 734.23 277.73 734.16 279.15 734.07C279.33 734.07 279.51 734.06 279.7 734.04C280.8 733.99 281.91 733.92 283.04 733.84C283.72 733.81 284.42 733.76 285.11 733.71C286.21 733.64 287.32 733.57 288.45 733.48L288.47 733.51Z" fill="#F3EFF5"/>
<path d="M288.47 733.51V750.96C286.94 751.08 285.41 751.18 283.9 751.28C283.13 751.33 282.38 751.38 281.63 751.42C280.8 751.47 279.97 751.52 279.14 751.56C278.18 751.61 277.23 751.66 276.28 751.71C275.84 751.73 275.39 751.75 274.95 751.76C272.45 751.88 270 751.97 267.58 752.03C267.16 752.04 266.74 752.05 266.32 752.06C258.31 752.27 250.79 752.26 243.95 752.11C243.83 752.11 243.72 752.11 243.62 752.1C242.3 752.07 241 752.03 239.72 752C238 751.96 236.33 751.89 234.72 751.82C233.94 751.79 233.18 751.75 232.42 751.72C231.36 751.67 230.3 751.62 229.3 751.57C227.55 751.48 225.89 751.38 224.31 751.29C222.6 751.18 220.98 751.07 219.48 750.96V733.52C220.23 733.57 221.01 733.63 221.81 733.68C222.65 733.73 223.5 733.79 224.38 733.84C226.31 733.96 228.36 734.08 230.53 734.18C231.21 734.21 231.91 734.25 232.61 734.28C234.4 734.36 236.26 734.43 238.18 734.49C239.29 734.53 240.43 734.57 241.58 734.59C242.37 734.61 243.16 734.63 243.97 734.64C245.23 734.67 246.52 734.69 247.82 734.71C249.85 734.74 251.93 734.75 254.06 734.75C258.89 734.75 263.98 734.67 269.25 734.5C269.69 734.49 270.14 734.47 270.58 734.46C272.02 734.42 273.47 734.35 274.93 734.28C276.33 734.23 277.73 734.16 279.15 734.07C279.33 734.07 279.51 734.06 279.7 734.04C280.8 733.99 281.91 733.92 283.04 733.84C283.72 733.81 284.42 733.76 285.11 733.71C286.21 733.64 287.32 733.57 288.45 733.48L288.47 733.51Z" fill="#F3EFF5"/>
<path d="M288.47 652.8V671.46C286.93 671.58 285.38 671.69 283.86 671.79C280.81 671.99 277.81 672.15 274.87 672.28C271.92 672.41 269.02 672.51 266.19 672.59C264.07 672.64 261.98 672.68 259.93 672.71C259.24 672.72 258.57 672.72 257.88 672.73C254.73 672.75 251.68 672.75 248.74 672.72C247.05 672.7 245.41 672.68 243.81 672.64C242.2 672.6 240.63 672.56 239.1 672.52C238.04 672.49 236.97 672.44 235.94 672.41C234.77 672.37 233.62 672.32 232.49 672.27C229.56 672.14 226.81 671.99 224.28 671.83C222.57 671.72 220.97 671.61 219.47 671.5V652.82C220.22 652.87 221 652.93 221.8 652.98C222.64 653.04 223.49 653.09 224.37 653.14C226.3 653.26 228.35 653.38 230.52 653.48C231.2 653.51 231.9 653.55 232.6 653.58C234.39 653.66 236.25 653.73 238.17 653.79C239.28 653.83 240.42 653.87 241.57 653.89C242.36 653.91 243.15 653.93 243.96 653.94C245.22 653.97 246.51 653.99 247.81 654.01C249.84 654.04 251.92 654.05 254.05 654.05C255.78 654.05 257.54 654.04 259.34 654.02C260.24 654.01 261.15 654 262.06 653.99C263.05 653.97 264.06 653.95 265.07 653.92C265.91 653.91 266.74 653.89 267.59 653.85C269.48 653.79 271.39 653.73 273.34 653.65C274.28 653.61 275.24 653.57 276.2 653.52C277.97 653.44 279.78 653.35 281.59 653.24C281.94 653.22 282.28 653.2 282.63 653.17C283.44 653.13 284.27 653.07 285.09 653.01C286.2 652.94 287.31 652.87 288.43 652.78L288.47 652.8Z" fill="#F3EFF5"/>
<path d="M220.44 905.67C220.12 905.65 219.79 905.63 219.48 905.6C219.9 905.63 220.33 905.67 220.77 905.7C220.89 905.7 221.02 905.71 221.14 905.72C220.9 905.7 220.67 905.69 220.43 905.67H220.44ZM207.43 819.58V823.82C209.98 824.09 214.09 824.5 219.49 824.89C224.02 825.22 229.47 825.55 235.64 825.78C236.27 825.8 236.91 825.82 237.55 825.85C238.87 825.91 240.22 825.94 241.59 825.97C242.38 825.99 243.17 826.01 243.98 826.02C245.24 826.05 246.53 826.07 247.83 826.09C249.86 826.12 251.94 826.13 254.07 826.13C255.8 826.13 257.56 826.12 259.36 826.1C259.8 826.1 260.26 826.09 260.71 826.09C261.86 826.07 263.03 826.05 264.21 826.02C264.5 826.02 264.8 826.01 265.08 826C265.92 825.99 266.75 825.97 267.6 825.93C267.88 825.93 268.15 825.92 268.44 825.91C270.17 825.86 271.94 825.79 273.74 825.71C274.55 825.68 275.38 825.64 276.22 825.6C276.94 825.57 277.66 825.53 278.4 825.49C279.12 825.46 279.86 825.41 280.59 825.37C282.09 825.29 283.59 825.2 285.12 825.09C290.14 824.75 295.29 824.31 300.51 823.78V819.55C255.76 824.27 217.07 820.64 207.41 819.58H207.43Z" fill="#555451"/>
<path d="M300.52 823.79V842.45C296.44 842.88 292.42 843.24 288.46 843.53C286.92 843.65 285.37 843.76 283.85 843.86C282.33 843.96 280.81 844.05 279.32 844.13C277.81 844.21 276.33 844.28 274.86 844.35C271.91 844.49 269.01 844.59 266.18 844.66C264.77 844.69 263.37 844.73 261.98 844.75C260.59 844.77 259.23 844.79 257.88 844.8C254.73 844.83 251.68 844.82 248.74 844.79C247.05 844.77 245.41 844.75 243.81 844.71C242.2 844.68 240.63 844.63 239.1 844.59C238.04 844.56 236.97 844.51 235.94 844.48C234.77 844.44 233.62 844.39 232.49 844.34C229.56 844.21 226.81 844.06 224.28 843.9C223.43 843.85 222.61 843.79 221.8 843.74C221 843.69 220.22 843.63 219.47 843.58C213.92 843.16 209.79 842.75 207.41 842.49V823.84C209.96 824.11 214.07 824.52 219.47 824.91C224 825.24 229.45 825.57 235.62 825.8C236.25 825.82 236.89 825.84 237.53 825.87C238.85 825.93 240.2 825.96 241.57 825.99C242.36 826.01 243.15 826.03 243.96 826.04C245.22 826.07 246.51 826.09 247.81 826.11C249.84 826.14 251.92 826.15 254.05 826.15C255.78 826.15 257.54 826.14 259.34 826.12C259.78 826.12 260.24 826.11 260.69 826.11C261.84 826.09 263.01 826.07 264.19 826.04C264.48 826.04 264.78 826.03 265.06 826.02C265.9 826.01 266.73 825.99 267.58 825.95C267.86 825.95 268.13 825.94 268.42 825.93C270.15 825.88 271.92 825.81 273.72 825.73C274.53 825.7 275.36 825.66 276.2 825.62C276.92 825.59 277.64 825.55 278.38 825.51C279.1 825.48 279.84 825.43 280.57 825.39C282.07 825.31 283.57 825.22 285.1 825.11C290.12 824.77 295.27 824.33 300.49 823.8L300.52 823.79Z" fill="#BEBBBF"/>
<path d="M288.47 824.87V843.53C286.93 843.65 285.38 843.76 283.86 843.86C282.34 843.96 280.82 844.05 279.33 844.13C277.82 844.21 276.34 844.28 274.87 844.35C271.92 844.48 269.02 844.58 266.19 844.66C264.78 844.69 263.38 844.73 261.99 844.75C260.6 844.77 259.24 844.79 257.89 844.8C254.74 844.82 251.69 844.82 248.75 844.79C247.06 844.77 245.42 844.75 243.82 844.71C242.21 844.67 240.64 844.63 239.11 844.59C238.05 844.56 236.98 844.51 235.95 844.48C234.78 844.44 233.63 844.39 232.5 844.34C229.57 844.21 226.82 844.06 224.29 843.9C223.44 843.85 222.62 843.79 221.81 843.74C221.01 843.69 220.23 843.63 219.48 843.58V824.9C224.01 825.23 229.46 825.56 235.63 825.79C236.26 825.81 236.9 825.83 237.54 825.86C238.86 825.92 240.21 825.95 241.58 825.98C242.37 826 243.16 826.02 243.97 826.03C245.23 826.06 246.52 826.08 247.82 826.1C249.85 826.13 251.93 826.14 254.06 826.14C255.79 826.14 257.55 826.13 259.35 826.11C259.79 826.11 260.25 826.1 260.7 826.1C261.85 826.08 263.02 826.06 264.2 826.03C264.49 826.03 264.79 826.02 265.07 826.01C265.91 826 266.74 825.98 267.59 825.94C267.87 825.94 268.14 825.93 268.43 825.92C270.16 825.87 271.93 825.8 273.73 825.72C274.54 825.69 275.37 825.65 276.21 825.61C276.93 825.58 277.65 825.54 278.39 825.5C279.11 825.47 279.85 825.42 280.58 825.38C282.08 825.3 283.58 825.21 285.11 825.1C286.22 825.03 287.33 824.96 288.45 824.87H288.47Z" fill="#F3EFF5"/>
<path d="M288.47 824.87V843.53C286.93 843.65 285.38 843.76 283.86 843.86C282.34 843.96 280.82 844.05 279.33 844.13C277.82 844.21 276.34 844.28 274.87 844.35C271.92 844.48 269.02 844.58 266.19 844.66C264.78 844.69 263.38 844.73 261.99 844.75C260.6 844.77 259.24 844.79 257.89 844.8C254.74 844.82 251.69 844.82 248.75 844.79C247.06 844.77 245.42 844.75 243.82 844.71C242.21 844.67 240.64 844.63 239.11 844.59C238.05 844.56 236.98 844.51 235.95 844.48C234.78 844.44 233.63 844.39 232.5 844.34C229.57 844.21 226.82 844.06 224.29 843.9C223.44 843.85 222.62 843.79 221.81 843.74C221.01 843.69 220.23 843.63 219.48 843.58V824.9C224.01 825.23 229.46 825.56 235.63 825.79C236.26 825.81 236.9 825.83 237.54 825.86C238.86 825.92 240.21 825.95 241.58 825.98C242.37 826 243.16 826.02 243.97 826.03C245.23 826.06 246.52 826.08 247.82 826.1C249.85 826.13 251.93 826.14 254.06 826.14C255.79 826.14 257.55 826.13 259.35 826.11C259.79 826.11 260.25 826.1 260.7 826.1C261.85 826.08 263.02 826.06 264.2 826.03C264.49 826.03 264.79 826.02 265.07 826.01C265.91 826 266.74 825.98 267.59 825.94C267.87 825.94 268.14 825.93 268.43 825.92C270.16 825.87 271.93 825.8 273.73 825.72C274.54 825.69 275.37 825.65 276.21 825.61C276.93 825.58 277.65 825.54 278.39 825.5C279.11 825.47 279.85 825.42 280.58 825.38C282.08 825.3 283.58 825.21 285.11 825.1C286.22 825.03 287.33 824.96 288.45 824.87H288.47Z" fill="#F3EFF5"/>
</svg>
