<svg width="620" height="1074" viewBox="0 0 620 1074" fill="none" xmlns="http://www.w3.org/2000/svg">
<path d="M438.1 393.79C439.14 393.45 440.22 393.09 441.32 392.71C440.22 393.08 439.14 393.45 438.1 393.79Z" fill="#555451"/>
<path d="M475.33 365.7L479.5 376.8C477.01 378.05 474.54 379.24 472.09 380.38C471.14 380.82 470.19 381.25 469.26 381.67C468.79 381.89 468.32 382.1 467.85 382.3C467.34 382.53 466.82 382.76 466.3 382.99C465.7 383.25 465.11 383.51 464.52 383.77C464.24 383.89 463.97 384.01 463.69 384.12C462.13 384.79 460.59 385.44 459.07 386.06C458.81 386.17 458.54 386.27 458.28 386.38C453.23 388.43 448.45 390.22 444.06 391.77C443.98 391.8 443.92 391.82 443.84 391.84C443 392.13 442.16 392.42 441.34 392.71C440.24 393.08 439.16 393.45 438.12 393.79C437.62 393.96 437.12 394.12 436.64 394.28C435.95 394.5 435.27 394.72 434.62 394.93C433.49 395.29 432.41 395.63 431.38 395.94C430.27 396.28 429.21 396.6 428.23 396.89C424.6 397.95 421.87 398.68 420.3 399.08L416.13 388C417.82 387.56 420.53 386.84 424.06 385.8C424.55 385.65 425.06 385.5 425.58 385.35C426.13 385.18 426.68 385.02 427.26 384.84C428.51 384.46 429.85 384.04 431.25 383.59C431.69 383.45 432.14 383.3 432.6 383.15C433.76 382.77 434.96 382.37 436.2 381.95C436.92 381.71 437.65 381.46 438.39 381.2C438.9 381.03 439.4 380.85 439.93 380.66C440.74 380.38 441.56 380.09 442.4 379.78C443.7 379.31 445.03 378.82 446.38 378.31C449.45 377.15 452.67 375.89 455.99 374.52C456.27 374.41 456.55 374.29 456.82 374.17C457.72 373.8 458.64 373.41 459.55 373.02C460.43 372.65 461.3 372.27 462.19 371.88C462.3 371.84 462.42 371.79 462.53 371.73C463.22 371.43 463.91 371.12 464.61 370.81C465.04 370.63 465.47 370.43 465.9 370.23C466.58 369.92 467.27 369.61 467.97 369.29C470.42 368.15 472.89 366.96 475.38 365.72L475.33 365.7Z" fill="#BEBBBF"/>
<path d="M467.91 369.27L472.08 380.37C471.13 380.81 470.18 381.24 469.25 381.66C468.78 381.88 468.31 382.09 467.84 382.29C467.33 382.52 466.81 382.75 466.29 382.98C465.69 383.24 465.1 383.5 464.51 383.76C464.23 383.88 463.96 384 463.68 384.11C462.12 384.78 460.58 385.43 459.06 386.05C458.8 386.16 458.53 386.26 458.27 386.37C453.22 388.42 448.44 390.21 444.05 391.76C443.97 391.79 443.91 391.81 443.83 391.83C442.99 392.12 442.15 392.41 441.33 392.7C440.22 393.08 439.15 393.44 438.11 393.78C437.61 393.95 437.11 394.11 436.63 394.27C435.94 394.49 435.26 394.71 434.61 394.92C433.48 395.28 432.4 395.62 431.37 395.93C430.26 396.27 429.2 396.59 428.22 396.88L424.05 385.78C424.54 385.63 425.05 385.48 425.57 385.33C426.12 385.16 426.67 385 427.25 384.82C428.5 384.44 429.84 384.02 431.24 383.57C431.68 383.43 432.13 383.28 432.59 383.13C433.75 382.75 434.95 382.35 436.19 381.93C436.91 381.69 437.64 381.44 438.38 381.18C438.89 381.01 439.39 380.83 439.92 380.64C440.73 380.36 441.55 380.07 442.39 379.76C443.69 379.29 445.02 378.8 446.37 378.29C449.44 377.13 452.66 375.87 455.98 374.5C456.26 374.39 456.54 374.27 456.81 374.15C457.71 373.78 458.63 373.39 459.54 373C460.42 372.63 461.29 372.25 462.18 371.86C462.29 371.82 462.41 371.77 462.52 371.71C463.21 371.41 463.9 371.1 464.6 370.79C465.03 370.61 465.46 370.41 465.89 370.21C466.57 369.9 467.26 369.59 467.96 369.27H467.91Z" fill="#F3EFF5"/>
<path d="M467.91 369.27L472.08 380.37C471.13 380.81 470.18 381.24 469.25 381.66C468.78 381.88 468.31 382.09 467.84 382.29C467.33 382.52 466.81 382.75 466.29 382.98C465.69 383.24 465.1 383.5 464.51 383.76C464.23 383.88 463.96 384 463.68 384.11C462.12 384.78 460.58 385.43 459.06 386.05C458.8 386.16 458.53 386.26 458.27 386.37C453.22 388.42 448.44 390.21 444.05 391.76C443.97 391.79 443.91 391.81 443.83 391.83C442.99 392.12 442.15 392.41 441.33 392.7C440.22 393.08 439.15 393.44 438.11 393.78C437.61 393.95 437.11 394.11 436.63 394.27C435.94 394.49 435.26 394.71 434.61 394.92C433.48 395.28 432.4 395.62 431.37 395.93C430.26 396.27 429.2 396.59 428.22 396.88L424.05 385.78C424.54 385.63 425.05 385.48 425.57 385.33C426.12 385.16 426.67 385 427.25 384.82C428.5 384.44 429.84 384.02 431.24 383.57C431.68 383.43 432.13 383.28 432.59 383.13C433.75 382.75 434.95 382.35 436.19 381.93C436.91 381.69 437.64 381.44 438.38 381.18C438.89 381.01 439.39 380.83 439.92 380.64C440.73 380.36 441.55 380.07 442.39 379.76C443.69 379.29 445.02 378.8 446.37 378.29C449.44 377.13 452.66 375.87 455.98 374.5C456.26 374.39 456.54 374.27 456.81 374.15C457.71 373.78 458.63 373.39 459.54 373C460.42 372.63 461.29 372.25 462.18 371.86C462.29 371.82 462.41 371.77 462.52 371.71C463.21 371.41 463.9 371.1 464.6 370.79C465.03 370.61 465.46 370.41 465.89 370.21C466.57 369.9 467.26 369.59 467.96 369.27H467.91Z" fill="#F3EFF5"/>
<path d="M472.09 380.37C474.54 379.23 477.01 378.03 479.5 376.79L480.51 379.48C470.29 384.59 460.33 388.77 451.52 392.09C437.07 397.52 425.69 400.65 421.28 401.77L420.27 399.07C421.84 398.67 424.58 397.95 428.2 396.88C429.19 396.59 430.24 396.27 431.35 395.93C432.38 395.62 433.46 395.28 434.59 394.91C435.24 394.71 435.92 394.48 436.61 394.27C437.09 394.11 437.59 393.94 438.1 393.78C439.14 393.43 440.22 393.08 441.32 392.69C442.14 392.4 442.98 392.12 443.83 391.82C443.9 391.8 443.97 391.78 444.04 391.75C448.43 390.2 453.21 388.41 458.26 386.37C458.52 386.26 458.79 386.15 459.05 386.04C460.57 385.43 462.11 384.78 463.67 384.11C463.95 384 464.23 383.88 464.5 383.75C465.09 383.49 465.69 383.24 466.28 382.97C466.8 382.75 467.31 382.52 467.83 382.29C468.3 382.09 468.77 381.87 469.24 381.66C470.18 381.24 471.13 380.81 472.07 380.36L472.09 380.37Z" fill="#555451"/>
<path d="M474.31 363L475.32 365.7C472.82 366.94 470.35 368.13 467.9 369.27C467.21 369.6 466.51 369.91 465.83 370.22C465.4 370.42 464.98 370.61 464.54 370.8C463.85 371.12 463.15 371.42 462.47 371.72C462.35 371.78 462.24 371.83 462.13 371.87C461.24 372.26 460.36 372.64 459.49 373.02C458.58 373.41 457.67 373.8 456.76 374.17C456.48 374.28 456.2 374.41 455.93 374.52C452.62 375.89 449.4 377.16 446.32 378.31C444.96 378.82 443.64 379.31 442.34 379.78C441.5 380.08 440.68 380.38 439.87 380.66C439.35 380.85 438.84 381.03 438.33 381.2C437.6 381.46 436.87 381.71 436.15 381.95C434.91 382.37 433.71 382.77 432.55 383.15C432.1 383.3 431.64 383.44 431.2 383.58C429.8 384.03 428.46 384.45 427.21 384.83C426.64 385.01 426.08 385.17 425.54 385.34C425.02 385.49 424.51 385.65 424.02 385.79C420.49 386.83 417.78 387.56 416.09 387.99L415.08 385.29C421.48 383.66 446.97 376.71 474.31 362.99V363Z" fill="#555451"/>
<path d="M455.72 440.64C456.76 440.3 457.84 439.94 458.94 439.56C457.84 439.93 456.76 440.3 455.72 440.64Z" fill="#555451"/>
<path d="M492.94 412.55L497.11 423.65C494.62 424.9 492.15 426.09 489.7 427.23C488.75 427.67 487.8 428.1 486.87 428.52C486.4 428.74 485.93 428.95 485.46 429.15C484.95 429.38 484.43 429.61 483.91 429.84C483.31 430.1 482.72 430.36 482.13 430.62C481.85 430.74 481.58 430.86 481.3 430.97C479.74 431.64 478.2 432.29 476.68 432.91C476.42 433.02 476.15 433.12 475.89 433.23C470.84 435.28 466.06 437.07 461.67 438.62C461.59 438.65 461.53 438.67 461.45 438.69C460.61 438.98 459.77 439.27 458.95 439.56C457.85 439.93 456.77 440.3 455.73 440.64C455.23 440.81 454.73 440.97 454.25 441.13C453.56 441.35 452.88 441.57 452.23 441.78C451.1 442.14 450.02 442.48 448.99 442.79C447.88 443.13 446.82 443.45 445.84 443.74C442.21 444.8 439.48 445.53 437.91 445.93L433.74 434.85C435.43 434.41 438.14 433.69 441.67 432.65C442.16 432.5 442.67 432.35 443.19 432.2C443.74 432.03 444.29 431.87 444.87 431.69C446.12 431.31 447.46 430.89 448.86 430.44C449.3 430.3 449.75 430.15 450.21 430C451.37 429.62 452.57 429.22 453.81 428.8C454.53 428.56 455.26 428.31 456 428.05C456.51 427.88 457.01 427.7 457.54 427.51C458.35 427.23 459.17 426.94 460.01 426.63C461.31 426.16 462.64 425.67 463.99 425.16C467.06 424 470.28 422.74 473.6 421.37C473.88 421.26 474.16 421.14 474.43 421.02C475.33 420.65 476.25 420.26 477.16 419.87C478.04 419.5 478.91 419.12 479.8 418.73C479.91 418.69 480.03 418.64 480.14 418.58C480.83 418.28 481.52 417.97 482.22 417.66C482.65 417.48 483.08 417.28 483.51 417.08C484.19 416.77 484.88 416.46 485.58 416.14C488.03 415 490.5 413.81 492.99 412.57L492.94 412.55Z" fill="#BEBBBF"/>
<path d="M485.53 416.12L489.7 427.22C488.75 427.66 487.8 428.09 486.87 428.51C486.4 428.73 485.93 428.94 485.46 429.14C484.95 429.37 484.43 429.6 483.91 429.83C483.31 430.09 482.72 430.35 482.13 430.61C481.85 430.73 481.58 430.85 481.3 430.96C479.74 431.63 478.2 432.28 476.68 432.9C476.42 433.01 476.15 433.11 475.89 433.22C470.84 435.27 466.06 437.06 461.67 438.61C461.59 438.64 461.53 438.66 461.45 438.68C460.61 438.97 459.77 439.26 458.95 439.55C457.84 439.93 456.77 440.29 455.73 440.63C455.23 440.8 454.73 440.96 454.25 441.12C453.56 441.34 452.88 441.56 452.23 441.77C451.1 442.13 450.02 442.47 448.99 442.78C447.88 443.12 446.82 443.44 445.84 443.73L441.67 432.63C442.16 432.48 442.67 432.33 443.19 432.18C443.74 432.01 444.29 431.85 444.87 431.67C446.12 431.29 447.46 430.87 448.86 430.42C449.3 430.28 449.75 430.13 450.21 429.98C451.37 429.6 452.57 429.2 453.81 428.78C454.53 428.54 455.26 428.29 456 428.03C456.51 427.86 457.01 427.68 457.54 427.49C458.35 427.21 459.17 426.92 460.01 426.61C461.31 426.14 462.64 425.65 463.99 425.14C467.06 423.98 470.28 422.72 473.6 421.35C473.88 421.24 474.16 421.12 474.43 421C475.33 420.63 476.25 420.24 477.16 419.85C478.04 419.48 478.91 419.1 479.8 418.71C479.91 418.67 480.03 418.62 480.14 418.56C480.83 418.26 481.52 417.95 482.22 417.64C482.65 417.46 483.08 417.26 483.51 417.06C484.19 416.75 484.88 416.44 485.58 416.12H485.53Z" fill="#F3EFF5"/>
<path d="M485.53 416.12L489.7 427.22C488.75 427.66 487.8 428.09 486.87 428.51C486.4 428.73 485.93 428.94 485.46 429.14C484.95 429.37 484.43 429.6 483.91 429.83C483.31 430.09 482.72 430.35 482.13 430.61C481.85 430.73 481.58 430.85 481.3 430.96C479.74 431.63 478.2 432.28 476.68 432.9C476.42 433.01 476.15 433.11 475.89 433.22C470.84 435.27 466.06 437.06 461.67 438.61C461.59 438.64 461.53 438.66 461.45 438.68C460.61 438.97 459.77 439.26 458.95 439.55C457.84 439.93 456.77 440.29 455.73 440.63C455.23 440.8 454.73 440.96 454.25 441.12C453.56 441.34 452.88 441.56 452.23 441.77C451.1 442.13 450.02 442.47 448.99 442.78C447.88 443.12 446.82 443.44 445.84 443.73L441.67 432.63C442.16 432.48 442.67 432.33 443.19 432.18C443.74 432.01 444.29 431.85 444.87 431.67C446.12 431.29 447.46 430.87 448.86 430.42C449.3 430.28 449.75 430.13 450.21 429.98C451.37 429.6 452.57 429.2 453.81 428.78C454.53 428.54 455.26 428.29 456 428.03C456.51 427.86 457.01 427.68 457.54 427.49C458.35 427.21 459.17 426.92 460.01 426.61C461.31 426.14 462.64 425.65 463.99 425.14C467.06 423.98 470.28 422.72 473.6 421.35C473.88 421.24 474.16 421.12 474.43 421C475.33 420.63 476.25 420.24 477.16 419.85C478.04 419.48 478.91 419.1 479.8 418.71C479.91 418.67 480.03 418.62 480.14 418.56C480.83 418.26 481.52 417.95 482.22 417.64C482.65 417.46 483.08 417.26 483.51 417.06C484.19 416.75 484.88 416.44 485.58 416.12H485.53Z" fill="#F3EFF5"/>
<path d="M489.7 427.22C492.15 426.08 494.62 424.88 497.11 423.64L498.12 426.33C487.9 431.44 477.94 435.62 469.13 438.94C454.68 444.37 443.3 447.5 438.89 448.62L437.88 445.92C439.45 445.52 442.19 444.8 445.81 443.73C446.8 443.44 447.85 443.12 448.96 442.78C449.99 442.47 451.07 442.13 452.2 441.76C452.85 441.56 453.53 441.33 454.22 441.12C454.7 440.96 455.2 440.79 455.71 440.63C456.75 440.28 457.83 439.93 458.93 439.54C459.75 439.25 460.59 438.97 461.44 438.67C461.51 438.65 461.58 438.63 461.65 438.6C466.04 437.05 470.82 435.26 475.87 433.22C476.13 433.11 476.4 433 476.66 432.89C478.18 432.28 479.72 431.63 481.28 430.96C481.56 430.85 481.84 430.73 482.11 430.6C482.7 430.34 483.3 430.09 483.89 429.82C484.41 429.6 484.92 429.37 485.44 429.14C485.91 428.94 486.38 428.72 486.85 428.51C487.79 428.09 488.74 427.66 489.68 427.21L489.7 427.22Z" fill="#555451"/>
<path d="M491.93 409.85L492.94 412.55C490.44 413.79 487.97 414.98 485.52 416.12C484.83 416.45 484.13 416.76 483.45 417.07C483.02 417.27 482.6 417.46 482.16 417.65C481.47 417.97 480.77 418.27 480.09 418.57C479.97 418.63 479.86 418.68 479.75 418.72C478.86 419.11 477.98 419.49 477.11 419.87C476.2 420.26 475.29 420.65 474.38 421.02C474.1 421.13 473.82 421.26 473.55 421.37C470.24 422.74 467.02 424.01 463.94 425.16C462.58 425.67 461.26 426.16 459.96 426.63C459.12 426.93 458.3 427.23 457.49 427.51C456.97 427.7 456.46 427.88 455.95 428.05C455.22 428.31 454.49 428.56 453.77 428.8C452.53 429.22 451.33 429.62 450.17 430C449.72 430.15 449.26 430.29 448.82 430.43C447.42 430.88 446.08 431.3 444.83 431.68C444.26 431.86 443.7 432.02 443.16 432.19C442.64 432.34 442.13 432.5 441.64 432.64C438.11 433.68 435.4 434.41 433.71 434.84L432.7 432.14C439.1 430.51 464.59 423.56 491.93 409.84V409.85Z" fill="#555451"/>
<path d="M400.917 347.686L393.185 350.592L440.592 476.717L448.324 473.81L400.917 347.686Z" fill="#555451"/>
<path d="M467.895 322.513L460.163 325.419L507.57 451.544L515.302 448.638L467.895 322.513Z" fill="#555451"/>
</svg>
