<svg width="620" height="1074" viewBox="0 0 620 1074" fill="none" xmlns="http://www.w3.org/2000/svg">
<path d="M398.951 767.87C389.929 769.34 380.698 770.07 371.276 770.07C361.955 770.07 352.453 769.35 342.781 767.92C335.58 762.04 341.111 756.53 341.111 756.53C341.111 756.53 341.111 756.53 341.121 756.53C360.614 759.75 379.367 759.91 397.2 757.01H397.21C405.012 759.91 399.281 767.45 398.951 767.87Z" fill="#9FA7C4"/>
<path d="M400.611 778.41C391.059 780.07 381.268 780.89 371.276 780.89C362.075 780.89 352.703 780.19 343.162 778.79C337.011 773.03 342.782 767.92 342.782 767.92C352.453 769.35 361.955 770.07 371.276 770.07C380.698 770.07 389.929 769.34 398.951 767.87C398.941 767.87 398.941 767.88 398.941 767.88C405.612 770.66 400.851 778.06 400.611 778.41Z" fill="#9FA7C4"/>
<path d="M402.211 789.07C402.201 789.08 402.201 789.08 402.201 789.08C392.15 790.92 381.828 791.84 371.276 791.84C361.324 791.84 351.173 791.02 340.841 789.39C338.391 782.58 343.162 778.79 343.162 778.79C352.703 780.19 362.075 780.89 371.276 780.89C381.268 780.89 391.059 780.07 400.611 778.41C400.611 778.42 400.611 778.42 400.611 778.42C407.572 783.59 402.401 788.88 402.211 789.07Z" fill="#9FA7C4"/>
<path d="M355.113 758.32V791.13C350.393 790.73 345.642 790.15 340.841 789.39C338.391 782.58 343.161 778.79 343.161 778.79C337.01 773.03 342.781 767.92 342.781 767.92C335.58 762.04 341.111 756.53 341.111 756.53C341.111 756.53 341.111 756.53 341.121 756.53C345.832 757.31 350.493 757.91 355.113 758.32Z" fill="#9FA7C4"/>
<path d="M355.113 758.32V769.36C351.033 769.01 346.922 768.53 342.781 767.92C335.58 762.04 341.111 756.53 341.111 756.53C341.111 756.53 341.111 756.53 341.121 756.53C345.832 757.31 350.493 757.91 355.113 758.32Z" fill="#848BA3"/>
<path d="M355.114 769.36V780.18C351.163 779.84 347.172 779.38 343.162 778.79C337.011 773.03 342.782 767.92 342.782 767.92C346.922 768.53 351.033 769.01 355.114 769.36Z" fill="#848BA3"/>
<path d="M355.114 780.18V791.13C350.393 790.73 345.642 790.15 340.841 789.39C338.391 782.58 343.162 778.79 343.162 778.79C347.172 779.38 351.163 779.84 355.114 780.18Z" fill="#848BA3"/>
<path d="M371.276 770.57C361.985 770.57 352.373 769.85 342.712 768.41C342.622 768.4 342.542 768.36 342.471 768.3C340.011 766.29 338.711 764.1 338.601 761.78C338.441 758.53 340.671 756.27 340.771 756.17C340.861 756.08 340.991 756.021 341.121 756.021C360.594 759.231 379.408 759.39 397.13 756.51C397.19 756.51 397.341 756.51 397.391 756.53C399.681 757.38 401.101 758.71 401.601 760.48C402.571 763.94 399.691 767.74 399.351 768.17C399.271 768.27 399.161 768.34 399.041 768.35C390.049 769.82 380.708 770.57 371.276 770.57ZM342.992 767.44C352.563 768.85 362.075 769.56 371.276 769.56C380.588 769.56 389.799 768.831 398.671 767.401C399.211 766.661 401.391 763.47 400.631 760.75C400.231 759.33 399.061 758.24 397.15 757.51C379.488 760.38 360.674 760.23 341.301 757.06C340.821 757.62 339.471 759.42 339.591 761.74C339.691 763.73 340.841 765.65 342.992 767.44Z" fill="#676D80"/>
<path d="M371.276 781.39C362.084 781.39 352.603 780.68 343.091 779.29C342.991 779.27 342.891 779.23 342.821 779.16C340.801 777.27 339.801 775.24 339.831 773.12C339.881 769.87 342.351 767.64 342.451 767.55C342.561 767.45 342.711 767.4 342.851 767.43C352.473 768.85 362.034 769.57 371.276 769.57C380.658 769.57 389.939 768.83 398.871 767.38C399.001 767.35 399.141 767.39 399.241 767.47C401.091 768.27 402.261 769.49 402.741 771.1C403.781 774.61 401.051 778.66 401.021 778.7C400.941 778.81 400.831 778.89 400.691 778.91C391.199 780.55 381.298 781.39 371.276 781.39ZM343.391 778.32C352.803 779.69 362.184 780.39 371.276 780.39C381.168 780.39 390.929 779.57 400.311 777.96C400.781 777.19 402.571 774.02 401.791 771.38C401.401 770.07 400.421 769.07 398.871 768.39C389.939 769.84 380.658 770.57 371.286 770.57C362.074 770.57 352.543 769.86 342.961 768.45C342.441 768.98 340.861 770.78 340.831 773.14C340.811 774.92 341.671 776.66 343.391 778.32Z" fill="#676D80"/>
<path d="M371.276 792.34C361.354 792.34 351.093 791.51 340.761 789.88C340.581 789.85 340.431 789.73 340.371 789.55C337.831 782.48 342.801 778.43 342.851 778.39C342.961 778.3 343.101 778.27 343.231 778.29C352.703 779.68 362.135 780.38 371.276 780.38C381.238 780.38 391.079 779.55 400.521 777.91C400.671 777.88 400.811 777.92 400.931 778.02C400.941 778.03 400.961 778.05 400.971 778.06C403.301 779.81 404.562 781.77 404.712 783.9C404.932 786.94 402.751 789.22 402.561 789.41C402.491 789.49 402.391 789.55 402.281 789.57C392.259 791.41 381.828 792.34 371.276 792.34ZM341.221 788.94C351.393 790.53 361.504 791.34 371.286 791.34C381.718 791.34 392.039 790.42 401.961 788.62C402.361 788.18 403.901 786.34 403.731 783.98C403.601 782.19 402.511 780.49 400.481 778.94C391.049 780.56 381.228 781.39 371.286 781.39C362.175 781.39 352.763 780.69 343.321 779.32C342.541 780.02 339.351 783.35 341.221 788.94Z" fill="#676D80"/>
</svg>
