<svg width="620" height="1074" viewBox="0 0 620 1074" fill="none" xmlns="http://www.w3.org/2000/svg">
<path d="M399.801 668.22C391.399 670.4 380.668 672.18 367.496 672.55C365.635 672.6 363.825 672.63 362.055 672.63C346.642 672.63 334.57 670.8 325.639 668.57C319.198 662.36 324.138 657.92 325.009 657.21C334.14 659.8 348.072 662.27 367.186 661.75C383.938 661.29 396.31 658.35 404.532 655.49C404.542 655.5 408.432 664.01 399.801 668.22Z" fill="#9FA7C4"/>
<path d="M396.47 679.42C396.47 679.42 396.47 679.42 396.48 679.43C388.629 681.22 378.997 682.63 367.495 682.94C365.635 682.99 363.825 683.02 362.054 683.02C347.142 683.02 335.37 681.29 326.539 679.18C319.628 673.76 325.639 668.58 325.639 668.58C334.57 670.8 346.642 672.64 362.054 672.64C363.825 672.64 365.635 672.62 367.495 672.56C380.668 672.19 391.399 670.41 399.801 668.23C399.801 668.22 403.501 676.12 396.47 679.42Z" fill="#9FA7C4"/>
<path d="M397.05 689.97L397.04 689.98C389.079 691.85 379.268 693.3 367.496 693.63C365.635 693.67 363.825 693.71 362.055 693.71C348.482 693.71 337.511 692.29 328.989 690.43C328.989 690.43 328.989 690.43 328.979 690.43C321.058 686.14 326.539 679.17 326.539 679.17C335.37 681.29 347.152 683.01 362.055 683.01C363.825 683.01 365.635 682.99 367.496 682.93C379.008 682.62 388.639 681.21 396.48 679.42C396.81 679.63 402.571 683.45 397.05 689.97Z" fill="#9FA7C4"/>
<path d="M343.072 671.62C343.012 675.11 342.852 678.74 342.691 681.96C342.391 687.65 342.051 692.04 342.051 692.04C342.051 692.04 341.491 692.17 340.541 692.4C336.28 691.86 332.43 691.18 328.979 690.42C328.979 690.42 328.979 690.42 328.969 690.42C321.048 686.13 326.529 679.16 326.529 679.16C319.618 673.74 325.629 668.56 325.629 668.56C319.188 662.35 324.128 657.91 324.999 657.2C329.659 658.52 335.58 659.81 342.801 660.7C342.801 660.73 342.812 660.75 342.812 660.79C343.102 663.57 343.152 667.49 343.072 671.62Z" fill="#848BA3"/>
<path d="M343.072 671.62C336.3 670.88 330.51 669.77 325.639 668.57C319.198 662.36 324.138 657.92 325.009 657.21C329.669 658.53 335.59 659.82 342.812 660.71C342.812 660.74 342.822 660.76 342.822 660.8C343.102 663.57 343.152 667.49 343.072 671.62Z" fill="#848BA3"/>
<path d="M343.071 671.62C343.011 675.11 342.851 678.74 342.691 681.96C336.49 681.26 331.119 680.26 326.529 679.16C319.618 673.74 325.629 668.56 325.629 668.56C330.509 669.78 336.3 670.88 343.071 671.62Z" fill="#848BA3"/>
<path d="M342.692 681.96C342.392 687.65 342.051 692.04 342.051 692.04C342.051 692.04 341.491 692.17 340.541 692.4C336.281 691.86 332.43 691.18 328.979 690.42C328.979 690.42 328.979 690.42 328.969 690.42C321.048 686.13 326.529 679.16 326.529 679.16C331.12 680.27 336.501 681.26 342.692 681.96Z" fill="#848BA3"/>
<path d="M362.055 673.16C348.652 673.16 336.36 671.79 325.509 669.09L325.369 669.06L325.269 668.96C322.898 666.67 321.738 664.35 321.848 662.06C321.978 659.18 324.048 657.3 324.679 656.8L324.899 656.63L325.169 656.71C333.48 659.07 347.512 661.78 367.186 661.23C384.508 660.75 396.97 657.58 404.372 655L404.832 654.84L405.032 655.29C405.072 655.38 409.042 664.34 400.041 668.73L399.941 668.77C390.079 671.33 379.178 672.79 367.516 673.12C365.765 673.14 363.985 673.16 362.055 673.16ZM325.909 668.08C336.641 670.74 348.803 672.09 362.055 672.09C363.975 672.09 365.745 672.07 367.476 672.02C379.027 671.7 389.839 670.25 399.601 667.72C406.582 664.28 404.862 657.94 404.222 656.18C396.69 658.75 384.288 661.83 367.206 662.3C347.612 662.83 333.55 660.17 325.139 657.81C324.449 658.42 323.018 659.93 322.918 662.1C322.828 664.04 323.838 666.05 325.909 668.08Z" fill="#676D80"/>
<path d="M362.055 683.55C349.092 683.55 337.101 682.25 326.409 679.69L326.199 679.59C323.908 677.79 322.718 675.81 322.668 673.7C322.598 670.5 325.169 668.25 325.279 668.15L325.489 667.97L325.759 668.04C336.52 670.72 348.732 672.08 362.045 672.08C363.965 672.08 365.735 672.06 367.465 672.01C379.037 671.69 389.869 670.24 399.651 667.7L400.081 667.59L400.271 668C400.311 668.08 401.251 670.11 401.291 672.58C401.331 674.77 400.671 677.69 397.39 679.55L397.59 679.73L396.58 679.96C387.569 682.02 377.787 683.2 367.486 683.48C365.745 683.52 363.955 683.55 362.055 683.55ZM326.779 678.67C337.351 681.19 349.222 682.47 362.055 682.47C363.945 682.47 365.725 682.45 367.475 682.39C377.657 682.11 387.329 680.95 396.24 678.92C401.891 676.27 400.101 670.46 399.481 668.85C389.739 671.34 378.987 672.76 367.505 673.08C365.765 673.13 363.975 673.15 362.045 673.15C348.762 673.15 336.57 671.8 325.789 669.15C325.229 669.71 323.688 671.46 323.748 673.68C323.798 675.43 324.818 677.1 326.779 678.67Z" fill="#676D80"/>
<path d="M362.055 694.25C350.103 694.25 338.951 693.15 328.929 690.97H328.849L328.719 690.9C326.219 689.55 324.719 687.78 324.278 685.66C323.548 682.14 325.999 678.97 326.109 678.83L326.319 678.56L326.659 678.64C337.261 681.18 349.173 682.47 362.055 682.47C363.945 682.47 365.725 682.45 367.476 682.39C377.707 682.11 387.419 680.94 396.36 678.9L396.58 678.85L396.77 678.97C397.04 679.14 399.451 680.74 399.901 683.65C400.231 685.78 399.411 688.02 397.46 690.32L397.31 690.47L397.16 690.5C388.049 692.64 378.067 693.87 367.506 694.16C365.645 694.21 363.825 694.25 362.055 694.25ZM329.159 689.91C339.111 692.07 350.173 693.17 362.055 693.17C363.825 693.17 365.635 693.14 367.486 693.09C377.907 692.8 387.759 691.59 396.75 689.5C398.411 687.5 399.111 685.58 398.841 683.81C398.521 681.72 396.92 680.4 396.38 680C387.439 682.02 377.727 683.19 367.516 683.47C365.745 683.52 363.965 683.55 362.055 683.55C349.233 683.55 337.361 682.28 326.769 679.78C326.239 680.57 324.829 682.97 325.349 685.45C325.709 687.22 326.989 688.72 329.159 689.91Z" fill="#676D80"/>
</svg>
