<svg width="620" height="1074" viewBox="0 0 620 1074" fill="none" xmlns="http://www.w3.org/2000/svg">
<path d="M447.72 424.2C448.89 423.81 450.1 423.41 451.35 422.98C450.11 423.4 448.9 423.81 447.72 424.2Z" fill="#555451"/>
<path d="M489.63 392.57L494.33 405.06C491.52 406.46 488.74 407.81 485.99 409.09C484.93 409.59 483.86 410.07 482.8 410.55C482.27 410.8 481.74 411.03 481.21 411.26C480.63 411.52 480.05 411.78 479.47 412.03C478.8 412.33 478.13 412.62 477.46 412.91C477.15 413.04 476.84 413.18 476.52 413.31C474.76 414.07 473.03 414.79 471.32 415.49C471.02 415.61 470.73 415.73 470.43 415.85C464.74 418.16 459.36 420.17 454.42 421.91C454.33 421.94 454.26 421.97 454.18 421.99C453.23 422.32 452.29 422.65 451.36 422.97C450.12 423.39 448.91 423.8 447.73 424.19C447.16 424.38 446.61 424.56 446.06 424.74C445.28 424.99 444.52 425.24 443.78 425.47C442.51 425.88 441.29 426.25 440.13 426.61C438.88 426.99 437.69 427.35 436.58 427.68C432.49 428.88 429.42 429.69 427.65 430.14L422.96 417.66C424.86 417.17 427.92 416.35 431.89 415.18C432.44 415.02 433.02 414.85 433.61 414.67C434.22 414.48 434.85 414.29 435.5 414.1C436.91 413.67 438.42 413.2 440 412.69C440.5 412.53 441 412.37 441.52 412.2C442.83 411.77 444.17 411.33 445.57 410.85C446.38 410.58 447.2 410.3 448.03 410.01C448.6 409.81 449.17 409.62 449.76 409.4C450.67 409.09 451.6 408.75 452.54 408.41C454.01 407.89 455.5 407.33 457.02 406.76C460.48 405.46 464.1 404.03 467.83 402.49C468.14 402.36 468.46 402.23 468.77 402.1C469.79 401.68 470.81 401.24 471.84 400.8C472.83 400.38 473.81 399.96 474.81 399.51C474.94 399.46 475.06 399.41 475.2 399.34C475.97 399 476.75 398.66 477.54 398.3C478.02 398.09 478.5 397.87 478.99 397.65C479.76 397.31 480.54 396.95 481.32 396.59C484.08 395.31 486.86 393.97 489.67 392.57H489.63Z" fill="#BEBBBF"/>
<path d="M481.29 396.59L485.99 409.09C484.93 409.59 483.86 410.07 482.8 410.55C482.27 410.8 481.74 411.03 481.21 411.26C480.63 411.52 480.05 411.78 479.47 412.03C478.8 412.33 478.13 412.62 477.46 412.91C477.15 413.04 476.84 413.18 476.52 413.31C474.76 414.07 473.03 414.79 471.32 415.49C471.02 415.61 470.73 415.73 470.43 415.85C464.74 418.16 459.36 420.17 454.42 421.91C454.33 421.94 454.26 421.97 454.18 421.99C453.23 422.32 452.29 422.65 451.36 422.97C450.11 423.4 448.91 423.8 447.73 424.19C447.16 424.38 446.61 424.56 446.06 424.74C445.28 424.99 444.52 425.24 443.78 425.47C442.51 425.88 441.29 426.25 440.13 426.61C438.88 426.99 437.69 427.35 436.58 427.68L431.88 415.19C432.43 415.03 433.01 414.86 433.6 414.68C434.21 414.49 434.84 414.3 435.49 414.11C436.9 413.68 438.41 413.21 439.99 412.7C440.49 412.54 440.99 412.38 441.51 412.21C442.82 411.78 444.16 411.34 445.56 410.86C446.37 410.59 447.19 410.31 448.02 410.02C448.59 409.82 449.16 409.63 449.75 409.41C450.66 409.1 451.59 408.76 452.53 408.42C454 407.9 455.49 407.34 457.01 406.77C460.47 405.47 464.09 404.04 467.82 402.5C468.13 402.37 468.45 402.24 468.76 402.11C469.78 401.69 470.8 401.25 471.83 400.81C472.82 400.39 473.8 399.97 474.8 399.52C474.93 399.47 475.05 399.42 475.19 399.35C475.96 399.01 476.74 398.67 477.53 398.31C478.01 398.1 478.49 397.88 478.98 397.66C479.75 397.32 480.53 396.96 481.31 396.6L481.29 396.59Z" fill="#F3EFF5"/>
<path d="M481.29 396.59L485.99 409.09C484.93 409.59 483.86 410.07 482.8 410.55C482.27 410.8 481.74 411.03 481.21 411.26C480.63 411.52 480.05 411.78 479.47 412.03C478.8 412.33 478.13 412.62 477.46 412.91C477.15 413.04 476.84 413.18 476.52 413.31C474.76 414.07 473.03 414.79 471.32 415.49C471.02 415.61 470.73 415.73 470.43 415.85C464.74 418.16 459.36 420.17 454.42 421.91C454.33 421.94 454.26 421.97 454.18 421.99C453.23 422.32 452.29 422.65 451.36 422.97C450.11 423.4 448.91 423.8 447.73 424.19C447.16 424.38 446.61 424.56 446.06 424.74C445.28 424.99 444.52 425.24 443.78 425.47C442.51 425.88 441.29 426.25 440.13 426.61C438.88 426.99 437.69 427.35 436.58 427.68L431.88 415.19C432.43 415.03 433.01 414.86 433.6 414.68C434.21 414.49 434.84 414.3 435.49 414.11C436.9 413.68 438.41 413.21 439.99 412.7C440.49 412.54 440.99 412.38 441.51 412.21C442.82 411.78 444.16 411.34 445.56 410.86C446.37 410.59 447.19 410.31 448.02 410.02C448.59 409.82 449.16 409.63 449.75 409.41C450.66 409.1 451.59 408.76 452.53 408.42C454 407.9 455.49 407.34 457.01 406.77C460.47 405.47 464.09 404.04 467.82 402.5C468.13 402.37 468.45 402.24 468.76 402.11C469.78 401.69 470.8 401.25 471.83 400.81C472.82 400.39 473.8 399.97 474.8 399.52C474.93 399.47 475.05 399.42 475.19 399.35C475.96 399.01 476.74 398.67 477.53 398.31C478.01 398.1 478.49 397.88 478.98 397.66C479.75 397.32 480.53 396.96 481.31 396.6L481.29 396.59Z" fill="#F3EFF5"/>
<path d="M485.98 409.09C488.73 407.8 491.52 406.46 494.33 405.06L495.47 408.09C483.96 413.84 472.75 418.55 462.83 422.28C446.56 428.4 433.75 431.92 428.79 433.18L427.65 430.14C429.42 429.69 432.5 428.87 436.58 427.67C437.69 427.34 438.87 426.99 440.13 426.61C441.29 426.26 442.51 425.88 443.78 425.47C444.51 425.24 445.28 424.99 446.06 424.74C446.61 424.56 447.17 424.37 447.73 424.19C448.9 423.8 450.11 423.4 451.36 422.97C452.28 422.65 453.23 422.33 454.18 421.99C454.25 421.97 454.33 421.94 454.42 421.91C459.36 420.17 464.75 418.15 470.43 415.85C470.73 415.72 471.02 415.6 471.32 415.48C473.03 414.79 474.76 414.06 476.52 413.3C476.84 413.17 477.15 413.04 477.46 412.9C478.13 412.61 478.8 412.32 479.47 412.02C480.05 411.77 480.63 411.51 481.22 411.25C481.75 411.02 482.28 410.78 482.81 410.54C483.86 410.06 484.93 409.58 486 409.08L485.98 409.09Z" fill="#555451"/>
<path d="M488.49 389.53L489.63 392.57C486.82 393.97 484.04 395.31 481.28 396.59C480.5 396.96 479.72 397.31 478.95 397.65C478.47 397.87 477.99 398.09 477.5 398.3C476.72 398.66 475.94 399 475.17 399.34C475.03 399.41 474.91 399.46 474.78 399.51C473.78 399.95 472.79 400.38 471.81 400.8C470.78 401.24 469.76 401.68 468.74 402.09C468.43 402.22 468.11 402.36 467.8 402.48C464.07 404.02 460.45 405.45 456.99 406.75C455.46 407.32 453.97 407.88 452.51 408.4C451.57 408.74 450.64 409.07 449.73 409.39C449.14 409.6 448.57 409.8 447.99 409.99C447.17 410.28 446.34 410.57 445.54 410.84C444.14 411.32 442.8 411.76 441.49 412.19C440.98 412.36 440.47 412.52 439.97 412.68C438.4 413.19 436.89 413.66 435.47 414.09C434.83 414.29 434.2 414.48 433.59 414.67C433 414.84 432.43 415.02 431.88 415.18C427.91 416.36 424.85 417.17 422.95 417.66L421.81 414.62C429.01 412.79 457.71 404.96 488.49 389.52V389.53Z" fill="#555451"/>
<path d="M477.74 504.03C478.91 503.64 480.12 503.24 481.37 502.81C480.13 503.23 478.92 503.64 477.74 504.03Z" fill="#555451"/>
<path d="M519.64 472.4L524.34 484.89C521.53 486.29 518.75 487.64 516 488.92C514.94 489.42 513.87 489.9 512.81 490.38C512.28 490.63 511.75 490.86 511.22 491.09C510.64 491.35 510.06 491.61 509.48 491.86C508.81 492.16 508.14 492.45 507.47 492.74C507.16 492.87 506.85 493.01 506.53 493.14C504.77 493.9 503.04 494.62 501.33 495.32C501.03 495.44 500.74 495.56 500.44 495.68C494.75 497.99 489.37 500 484.43 501.74C484.34 501.77 484.27 501.8 484.19 501.82C483.24 502.15 482.3 502.48 481.37 502.8C480.13 503.22 478.92 503.63 477.74 504.02C477.17 504.21 476.62 504.39 476.07 504.57C475.29 504.82 474.53 505.07 473.79 505.3C472.52 505.71 471.3 506.08 470.14 506.44C468.89 506.82 467.7 507.18 466.59 507.51C462.5 508.71 459.43 509.52 457.66 509.97L452.97 497.49C454.87 497 457.93 496.18 461.9 495.01C462.45 494.85 463.03 494.68 463.62 494.5C464.23 494.31 464.86 494.12 465.51 493.93C466.92 493.5 468.43 493.03 470.01 492.52C470.51 492.36 471.01 492.2 471.53 492.03C472.84 491.6 474.18 491.16 475.58 490.68C476.39 490.41 477.21 490.13 478.04 489.84C478.61 489.64 479.18 489.45 479.77 489.23C480.68 488.92 481.61 488.58 482.55 488.24C484.02 487.72 485.51 487.16 487.03 486.59C490.49 485.29 494.11 483.86 497.84 482.32C498.15 482.19 498.47 482.06 498.78 481.93C499.8 481.51 500.82 481.07 501.85 480.63C502.84 480.21 503.82 479.79 504.82 479.34C504.95 479.29 505.07 479.24 505.21 479.17C505.98 478.83 506.76 478.49 507.55 478.13C508.03 477.92 508.51 477.7 509 477.48C509.77 477.14 510.55 476.78 511.33 476.42C514.09 475.14 516.87 473.8 519.68 472.4H519.64Z" fill="#BEBBBF"/>
<path d="M511.3 476.42L516 488.92C514.94 489.42 513.87 489.9 512.81 490.38C512.28 490.63 511.75 490.86 511.22 491.09C510.64 491.35 510.06 491.61 509.48 491.86C508.81 492.16 508.14 492.45 507.47 492.74C507.16 492.87 506.85 493.01 506.53 493.14C504.77 493.9 503.04 494.62 501.33 495.32C501.03 495.44 500.74 495.56 500.44 495.68C494.75 497.99 489.37 500 484.43 501.74C484.34 501.77 484.27 501.8 484.19 501.82C483.24 502.15 482.3 502.48 481.37 502.8C480.12 503.23 478.92 503.63 477.74 504.02C477.17 504.21 476.62 504.39 476.07 504.57C475.29 504.82 474.53 505.07 473.79 505.3C472.52 505.71 471.3 506.08 470.14 506.44C468.89 506.82 467.7 507.18 466.59 507.51L461.89 495.02C462.44 494.86 463.02 494.69 463.61 494.51C464.22 494.32 464.85 494.13 465.5 493.94C466.91 493.51 468.42 493.04 470 492.53C470.5 492.37 471 492.21 471.52 492.04C472.83 491.61 474.17 491.17 475.57 490.69C476.38 490.42 477.2 490.14 478.03 489.85C478.6 489.65 479.17 489.46 479.76 489.24C480.67 488.93 481.6 488.59 482.54 488.25C484.01 487.73 485.5 487.17 487.02 486.6C490.48 485.3 494.1 483.87 497.83 482.33C498.14 482.2 498.46 482.07 498.77 481.94C499.79 481.52 500.81 481.08 501.84 480.64C502.83 480.22 503.81 479.8 504.81 479.35C504.94 479.3 505.06 479.25 505.2 479.18C505.97 478.84 506.75 478.5 507.54 478.14C508.02 477.93 508.5 477.71 508.99 477.49C509.76 477.15 510.54 476.79 511.32 476.43L511.3 476.42Z" fill="#F3EFF5"/>
<path d="M511.3 476.42L516 488.92C514.94 489.42 513.87 489.9 512.81 490.38C512.28 490.63 511.75 490.86 511.22 491.09C510.64 491.35 510.06 491.61 509.48 491.86C508.81 492.16 508.14 492.45 507.47 492.74C507.16 492.87 506.85 493.01 506.53 493.14C504.77 493.9 503.04 494.62 501.33 495.32C501.03 495.44 500.74 495.56 500.44 495.68C494.75 497.99 489.37 500 484.43 501.74C484.34 501.77 484.27 501.8 484.19 501.82C483.24 502.15 482.3 502.48 481.37 502.8C480.12 503.23 478.92 503.63 477.74 504.02C477.17 504.21 476.62 504.39 476.07 504.57C475.29 504.82 474.53 505.07 473.79 505.3C472.52 505.71 471.3 506.08 470.14 506.44C468.89 506.82 467.7 507.18 466.59 507.51L461.89 495.02C462.44 494.86 463.02 494.69 463.61 494.51C464.22 494.32 464.85 494.13 465.5 493.94C466.91 493.51 468.42 493.04 470 492.53C470.5 492.37 471 492.21 471.52 492.04C472.83 491.61 474.17 491.17 475.57 490.69C476.38 490.42 477.2 490.14 478.03 489.85C478.6 489.65 479.17 489.46 479.76 489.24C480.67 488.93 481.6 488.59 482.54 488.25C484.01 487.73 485.5 487.17 487.02 486.6C490.48 485.3 494.1 483.87 497.83 482.33C498.14 482.2 498.46 482.07 498.77 481.94C499.79 481.52 500.81 481.08 501.84 480.64C502.83 480.22 503.81 479.8 504.81 479.35C504.94 479.3 505.06 479.25 505.2 479.18C505.97 478.84 506.75 478.5 507.54 478.14C508.02 477.93 508.5 477.71 508.99 477.49C509.76 477.15 510.54 476.79 511.32 476.43L511.3 476.42Z" fill="#F3EFF5"/>
<path d="M516 488.92C518.75 487.63 521.54 486.29 524.35 484.89L525.49 487.92C513.98 493.67 502.77 498.38 492.85 502.11C476.58 508.23 463.77 511.75 458.81 513.01L457.67 509.97C459.44 509.52 462.52 508.7 466.6 507.5C467.71 507.17 468.89 506.82 470.15 506.44C471.31 506.09 472.53 505.71 473.8 505.3C474.53 505.07 475.3 504.82 476.08 504.57C476.63 504.39 477.19 504.2 477.75 504.02C478.92 503.63 480.13 503.23 481.38 502.8C482.3 502.48 483.25 502.16 484.2 501.82C484.27 501.8 484.35 501.77 484.44 501.74C489.38 500 494.77 497.98 500.45 495.68C500.75 495.55 501.04 495.43 501.34 495.31C503.05 494.62 504.78 493.89 506.54 493.13C506.86 493 507.17 492.87 507.48 492.73C508.15 492.44 508.82 492.15 509.49 491.85C510.07 491.6 510.65 491.34 511.24 491.08C511.77 490.85 512.3 490.61 512.83 490.37C513.88 489.89 514.95 489.41 516.02 488.91L516 488.92Z" fill="#555451"/>
<path d="M518.5 469.36L519.64 472.4C516.83 473.8 514.05 475.14 511.29 476.42C510.51 476.79 509.73 477.14 508.96 477.48C508.48 477.7 508 477.92 507.51 478.13C506.73 478.49 505.95 478.83 505.18 479.17C505.04 479.24 504.92 479.29 504.79 479.34C503.79 479.78 502.8 480.21 501.82 480.63C500.79 481.07 499.77 481.51 498.75 481.92C498.44 482.05 498.12 482.19 497.81 482.31C494.08 483.85 490.46 485.28 487 486.58C485.47 487.15 483.98 487.71 482.52 488.23C481.58 488.57 480.65 488.9 479.74 489.22C479.15 489.43 478.58 489.63 478 489.82C477.18 490.11 476.35 490.4 475.55 490.67C474.15 491.15 472.81 491.59 471.5 492.02C470.99 492.19 470.48 492.35 469.98 492.51C468.41 493.02 466.9 493.49 465.48 493.92C464.84 494.12 464.21 494.31 463.6 494.5C463.01 494.67 462.44 494.85 461.89 495.01C457.92 496.19 454.86 497 452.96 497.49L451.82 494.45C459.02 492.62 487.72 484.79 518.5 469.35V469.36Z" fill="#555451"/>
<path d="M416.907 401.661L408.202 404.933L489.206 620.442L497.912 617.17L416.907 401.661Z" fill="#555451"/>
<path d="M492.305 373.324L483.6 376.596L564.604 592.105L573.309 588.833L492.305 373.324Z" fill="#555451"/>
<path d="M573.296 588.771L570.024 580.066L485.919 611.679L489.191 620.384L573.296 588.771Z" fill="#555451"/>
</svg>
