<svg width="620" height="1074" viewBox="0 0 620 1074" fill="none" xmlns="http://www.w3.org/2000/svg">
<path d="M236.17 751.84C237.78 751.91 239.45 751.97 241.17 752.02C239.46 751.97 237.78 751.91 236.17 751.84Z" fill="#555451"/>
<path d="M301.97 590.69V647.48C257.22 652.21 218.53 648.57 208.87 647.51V590.69H196.72V1029.18H314.11V590.69H301.97V590.69ZM208.87 651.76C211.42 652.03 215.53 652.44 220.93 652.83C221.68 652.88 222.46 652.94 223.26 652.99C224.1 653.05 224.95 653.1 225.83 653.15C227.76 653.27 229.81 653.39 231.98 653.49C232.66 653.52 233.36 653.56 234.06 653.59C235.85 653.67 237.71 653.74 239.63 653.8C240.74 653.84 241.88 653.88 243.03 653.9C243.82 653.92 244.61 653.94 245.42 653.95C246.68 653.98 247.97 654 249.27 654.02C251.3 654.05 253.38 654.06 255.51 654.06C257.24 654.06 259 654.05 260.8 654.03C261.7 654.02 262.61 654.01 263.52 654C264.51 653.98 265.52 653.96 266.53 653.93C267.37 653.92 268.2 653.9 269.05 653.86C270.94 653.8 272.85 653.74 274.8 653.66C275.74 653.62 276.7 653.58 277.66 653.53C279.44 653.44 281.24 653.34 283.05 653.25C283.4 653.23 283.74 653.21 284.09 653.18C284.9 653.14 285.73 653.08 286.55 653.02C291.57 652.68 296.72 652.24 301.94 651.71V670.37C297.86 670.8 293.84 671.16 289.88 671.45C288.34 671.57 286.79 671.68 285.27 671.78C282.22 671.99 279.22 672.15 276.28 672.27C273.33 672.41 270.43 672.51 267.6 672.58C265.48 672.65 263.39 672.68 261.34 672.7C260.65 672.71 259.98 672.71 259.29 672.72C256.14 672.75 253.09 672.74 250.15 672.71C248.46 672.69 246.82 672.67 245.22 672.63C243.61 672.6 242.04 672.55 240.51 672.51C239.45 672.48 238.38 672.43 237.35 672.4C236.18 672.36 235.03 672.31 233.9 672.26C230.97 672.13 228.22 671.98 225.69 671.82C223.98 671.71 222.38 671.6 220.88 671.49C215.33 671.07 211.2 670.66 208.82 670.4V651.75L208.87 651.76ZM208.87 674.66C215.52 675.37 232.8 676.97 255.52 676.97C269.37 676.97 285.24 676.37 301.97 674.62V728.19C257.22 732.92 218.53 729.29 208.87 728.22V674.66ZM208.87 732.47C211.42 732.74 215.53 733.15 220.93 733.54C221.68 733.59 222.46 733.65 223.26 733.7C224.1 733.75 224.95 733.81 225.83 733.86C227.76 733.98 229.81 734.1 231.98 734.2C232.66 734.23 233.36 734.27 234.06 734.3C235.85 734.38 237.71 734.45 239.63 734.51C240.74 734.55 241.88 734.59 243.03 734.61C243.82 734.63 244.61 734.65 245.42 734.66C246.68 734.69 247.97 734.71 249.27 734.73C251.3 734.76 253.38 734.77 255.51 734.77C260.34 734.77 265.43 734.69 270.7 734.52C271.14 734.51 271.59 734.49 272.03 734.48C273.47 734.44 274.92 734.37 276.38 734.3C277.77 734.25 279.18 734.17 280.6 734.09C280.78 734.09 280.96 734.08 281.15 734.06C282.25 734.01 283.36 733.94 284.49 733.86C285.17 733.83 285.87 733.78 286.56 733.73C287.66 733.66 288.77 733.59 289.9 733.5C293.86 733.2 297.88 732.84 301.96 732.42V749.86C297.88 750.29 293.86 750.65 289.9 750.95C288.37 751.07 286.84 751.17 285.33 751.27C284.56 751.32 283.81 751.37 283.06 751.41C282.23 751.46 281.4 751.51 280.57 751.55C279.61 751.6 278.66 751.65 277.71 751.7C277.27 751.72 276.82 751.74 276.38 751.75C273.88 751.87 271.43 751.96 269.01 752.02C268.59 752.03 268.17 752.04 267.75 752.05C259.74 752.26 252.22 752.25 245.38 752.1C245.26 752.1 245.15 752.1 245.05 752.09C243.73 752.06 242.43 752.02 241.15 751.99C239.43 751.95 237.76 751.88 236.15 751.81C235.37 751.78 234.61 751.74 233.85 751.71C232.79 751.66 231.73 751.61 230.73 751.56C228.98 751.47 227.32 751.37 225.74 751.28C224.03 751.17 222.41 751.06 220.91 750.95C215.36 750.53 211.22 750.12 208.85 749.86V732.44L208.87 732.47ZM208.87 754.13C215.52 754.86 232.8 756.45 255.52 756.45C269.37 756.45 285.24 755.84 301.97 754.1V842.45C297.89 842.88 293.87 843.24 289.91 843.53C288.37 843.65 286.82 843.76 285.3 843.86C283.78 843.96 282.26 844.05 280.77 844.13C279.26 844.22 277.78 844.29 276.31 844.35C273.36 844.49 270.46 844.59 267.63 844.66C266.22 844.7 264.81 844.74 263.43 844.75C262.04 844.77 260.68 844.79 259.33 844.8C256.18 844.83 253.13 844.82 250.19 844.79C248.5 844.77 246.86 844.75 245.26 844.71C243.65 844.68 242.08 844.63 240.55 844.59C239.49 844.56 238.42 844.51 237.39 844.48C236.22 844.44 235.07 844.39 233.94 844.34C231.01 844.21 228.26 844.06 225.73 843.9C224.88 843.85 224.06 843.79 223.25 843.74C222.45 843.69 221.67 843.63 220.92 843.58C215.37 843.16 211.24 842.75 208.86 842.49V754.14L208.87 754.13ZM208.87 846.72C215.52 847.44 232.8 849.03 255.52 849.03C269.37 849.03 285.24 848.43 301.97 846.69V900.26C257.22 904.98 218.53 901.35 208.87 900.29V846.72V846.72ZM208.87 904.54C210.15 904.67 211.81 904.85 213.83 905.02C214.33 905.06 214.86 905.12 215.41 905.16C215.53 905.17 215.65 905.18 215.77 905.19C216.13 905.22 216.5 905.26 216.88 905.29C218.14 905.4 219.49 905.5 220.92 905.61C221.23 905.63 221.55 905.65 221.88 905.68C222.12 905.7 222.35 905.71 222.59 905.73C223.36 905.78 224.13 905.83 224.95 905.88C225.14 905.89 225.34 905.91 225.56 905.91C225.67 905.92 225.78 905.93 225.88 905.93C225.98 905.94 226.07 905.95 226.17 905.95C226.77 905.99 227.39 906.03 228.01 906.06C228.43 906.08 228.84 906.1 229.25 906.13C230.14 906.17 231.04 906.23 231.98 906.27C232.16 906.28 232.34 906.29 232.53 906.29C233.64 906.34 234.79 906.4 235.98 906.44C236.06 906.44 236.14 906.45 236.22 906.45C237.32 906.49 238.43 906.54 239.58 906.57C241.47 906.64 243.42 906.69 245.43 906.72C246.7 906.75 247.98 906.77 249.28 906.79C249.97 906.8 250.67 906.81 251.37 906.81C251.69 906.82 252.03 906.82 252.36 906.82C253.4 906.83 254.45 906.83 255.52 906.83C257.94 906.83 260.42 906.81 262.96 906.78C263.15 906.77 263.33 906.77 263.52 906.77C264.24 906.76 264.94 906.74 265.66 906.73C266.03 906.72 266.41 906.71 266.78 906.7C267.1 906.7 267.43 906.69 267.76 906.68C268.19 906.67 268.62 906.66 269.05 906.65C269.6 906.64 270.15 906.62 270.7 906.6C271.14 906.59 271.59 906.57 272.03 906.56C273.47 906.52 274.91 906.46 276.38 906.38C276.71 906.37 277.04 906.36 277.37 906.34C277.73 906.33 278.09 906.31 278.47 906.29C278.91 906.28 279.36 906.25 279.81 906.22C280.25 906.2 280.7 906.18 281.15 906.14C282.25 906.09 283.36 906.02 284.49 905.94C285.17 905.91 285.87 905.86 286.56 905.81C287.66 905.74 288.77 905.67 289.9 905.58C293.86 905.27 297.88 904.92 301.96 904.5V921.94C297.88 922.37 293.86 922.73 289.9 923.03C289.79 923.04 289.68 923.04 289.58 923.05C288.56 923.13 287.55 923.19 286.54 923.26C285.54 923.34 284.54 923.4 283.54 923.46C282.55 923.53 281.55 923.58 280.57 923.63C278.6 923.74 276.65 923.83 274.72 923.9C274.15 923.93 273.57 923.95 273.01 923.97C272.62 923.99 272.23 924 271.85 924.01C270.89 924.04 269.95 924.08 269.02 924.1C268.35 924.12 267.68 924.14 267.02 924.15C266.37 924.17 265.72 924.18 265.07 924.19L263.56 924.22H263.46C261.63 924.25 259.84 924.26 258.08 924.27C256.21 924.28 254.38 924.28 252.59 924.27C252.37 924.27 252.17 924.27 251.96 924.26C249.7 924.25 247.5 924.23 245.36 924.17C244.79 924.16 244.21 924.15 243.65 924.13C243.46 924.13 243.28 924.13 243.09 924.12C242.65 924.12 242.2 924.1 241.76 924.09C241.38 924.08 241.01 924.07 240.64 924.06C238.92 924.01 237.24 923.95 235.63 923.89C235.03 923.87 234.45 923.84 233.87 923.81C233.63 923.8 233.4 923.79 233.16 923.78C232.31 923.74 231.49 923.7 230.67 923.66C229.75 923.61 228.84 923.56 227.95 923.51C227.6 923.49 227.27 923.48 226.93 923.46C226.65 923.44 226.39 923.43 226.12 923.41C226 923.41 225.87 923.4 225.75 923.39C224.89 923.34 224.06 923.28 223.26 923.23C222.46 923.18 221.67 923.12 220.92 923.07C218.14 922.86 215.73 922.65 213.71 922.47C213.29 922.43 212.9 922.39 212.51 922.35C212.1 922.32 211.72 922.27 211.35 922.24C211.02 922.21 210.69 922.17 210.39 922.14C209.82 922.09 209.3 922.03 208.86 921.98V904.56L208.87 904.54ZM208.87 1017.65V926.2C215.52 926.92 232.8 928.52 255.52 928.52C269.37 928.52 285.24 927.91 301.97 926.17V1017.65H208.87Z" fill="#555451"/>
<path d="M301.97 732.42V749.86C297.89 750.29 293.87 750.65 289.91 750.95C288.38 751.07 286.85 751.17 285.34 751.27C284.57 751.32 283.82 751.37 283.07 751.41C282.24 751.46 281.41 751.51 280.58 751.55C279.62 751.6 278.67 751.65 277.72 751.7C277.28 751.72 276.83 751.74 276.39 751.75C273.89 751.87 271.44 751.96 269.02 752.02C268.6 752.03 268.18 752.04 267.76 752.05C259.75 752.26 252.23 752.25 245.39 752.1C245.27 752.1 245.16 752.1 245.06 752.09C243.74 752.06 242.44 752.02 241.16 751.99C239.45 751.94 237.77 751.88 236.16 751.81C235.38 751.78 234.62 751.74 233.86 751.71C232.8 751.66 231.74 751.61 230.74 751.56C228.99 751.47 227.33 751.37 225.75 751.28C224.04 751.17 222.42 751.06 220.92 750.95C215.37 750.53 211.23 750.12 208.86 749.86V732.44C211.41 732.71 215.52 733.12 220.92 733.51C221.67 733.56 222.45 733.62 223.25 733.67C224.09 733.72 224.94 733.78 225.82 733.83C227.75 733.95 229.8 734.07 231.97 734.17C232.65 734.2 233.35 734.24 234.05 734.27C235.84 734.35 237.7 734.42 239.62 734.48C240.73 734.52 241.87 734.56 243.02 734.58C243.81 734.6 244.6 734.62 245.41 734.63C246.67 734.66 247.96 734.68 249.26 734.7C251.29 734.73 253.37 734.74 255.5 734.74C260.33 734.74 265.42 734.66 270.69 734.49C271.13 734.48 271.58 734.46 272.02 734.45C273.46 734.41 274.91 734.34 276.37 734.27C277.77 734.22 279.17 734.15 280.59 734.06C280.77 734.06 280.95 734.05 281.14 734.03C282.24 733.98 283.35 733.91 284.48 733.83C285.16 733.8 285.86 733.75 286.55 733.7C287.65 733.63 288.76 733.56 289.89 733.47C293.85 733.17 297.87 732.81 301.95 732.39L301.97 732.42Z" fill="#BEBBBF"/>
<path d="M301.97 651.72V670.38C297.89 670.81 293.87 671.17 289.91 671.46C288.37 671.58 286.82 671.69 285.3 671.79C282.25 672 279.25 672.16 276.31 672.28C273.36 672.42 270.46 672.52 267.63 672.59C265.51 672.66 263.42 672.69 261.37 672.71C260.68 672.72 260.01 672.72 259.32 672.73C256.17 672.76 253.12 672.75 250.18 672.72C248.49 672.7 246.85 672.68 245.25 672.64C243.64 672.61 242.07 672.56 240.54 672.52C239.48 672.49 238.41 672.44 237.38 672.41C236.21 672.37 235.06 672.32 233.93 672.27C231 672.14 228.25 671.99 225.72 671.83C224.01 671.72 222.41 671.61 220.91 671.5C215.36 671.08 211.23 670.67 208.85 670.41V651.76C211.4 652.03 215.51 652.44 220.91 652.83C221.66 652.88 222.44 652.94 223.24 652.99C224.08 653.05 224.93 653.1 225.81 653.15C227.74 653.27 229.79 653.39 231.96 653.49C232.64 653.52 233.34 653.56 234.04 653.59C235.83 653.67 237.69 653.74 239.61 653.8C240.72 653.84 241.86 653.88 243.01 653.9C243.8 653.92 244.59 653.94 245.4 653.95C246.66 653.98 247.95 654 249.25 654.02C251.28 654.05 253.36 654.06 255.49 654.06C257.22 654.06 258.98 654.05 260.78 654.03C261.68 654.02 262.59 654.01 263.5 654C264.49 653.98 265.5 653.96 266.51 653.93C267.35 653.92 268.18 653.9 269.03 653.86C270.92 653.8 272.83 653.74 274.78 653.66C275.72 653.62 276.68 653.58 277.64 653.53C279.41 653.45 281.22 653.36 283.03 653.25C283.38 653.23 283.72 653.21 284.07 653.18C284.88 653.14 285.71 653.08 286.53 653.02C291.55 652.68 296.7 652.24 301.92 651.71L301.97 651.72Z" fill="#BEBBBF"/>
<path d="M289.91 652.8V671.46C288.37 671.58 286.82 671.69 285.3 671.79C282.25 671.99 279.25 672.15 276.31 672.28C273.36 672.41 270.46 672.51 267.63 672.59C265.51 672.64 263.42 672.68 261.37 672.71C260.68 672.72 260.01 672.72 259.32 672.73C256.17 672.75 253.12 672.75 250.18 672.72C248.49 672.7 246.85 672.68 245.25 672.64C243.64 672.6 242.07 672.56 240.54 672.52C239.48 672.49 238.41 672.44 237.38 672.41C236.21 672.37 235.06 672.32 233.93 672.27C231 672.14 228.25 671.99 225.72 671.83C224.01 671.72 222.41 671.61 220.91 671.5V652.82C221.66 652.87 222.44 652.93 223.24 652.98C224.08 653.04 224.93 653.09 225.81 653.14C227.74 653.26 229.79 653.38 231.96 653.48C232.64 653.51 233.34 653.55 234.04 653.58C235.83 653.66 237.69 653.73 239.61 653.79C240.72 653.83 241.86 653.87 243.01 653.89C243.8 653.91 244.59 653.93 245.4 653.94C246.66 653.97 247.95 653.99 249.25 654.01C251.28 654.04 253.36 654.05 255.49 654.05C257.22 654.05 258.98 654.04 260.78 654.02C261.68 654.01 262.59 654 263.5 653.99C264.49 653.97 265.5 653.95 266.51 653.92C267.35 653.91 268.18 653.89 269.03 653.85C270.92 653.79 272.83 653.73 274.78 653.65C275.72 653.61 276.68 653.57 277.64 653.52C279.41 653.44 281.22 653.35 283.03 653.24C283.38 653.22 283.72 653.2 284.07 653.17C284.88 653.13 285.71 653.07 286.53 653.01C287.64 652.94 288.75 652.87 289.87 652.78L289.91 652.8Z" fill="#F3EFF5"/>
<path d="M289.91 733.51V750.96C288.38 751.08 286.85 751.18 285.34 751.28C284.57 751.33 283.82 751.38 283.07 751.42C282.24 751.47 281.41 751.52 280.58 751.56C279.62 751.61 278.67 751.66 277.72 751.71C277.28 751.73 276.83 751.75 276.39 751.76C273.89 751.88 271.44 751.97 269.02 752.03C268.6 752.04 268.18 752.05 267.76 752.06C259.75 752.27 252.23 752.26 245.39 752.11C245.27 752.11 245.16 752.11 245.06 752.1C243.74 752.07 242.44 752.03 241.16 752C239.44 751.96 237.77 751.89 236.16 751.82C235.38 751.79 234.62 751.75 233.86 751.72C232.8 751.67 231.74 751.62 230.74 751.57C228.99 751.48 227.33 751.38 225.75 751.29C224.04 751.18 222.42 751.07 220.92 750.96V733.52C221.67 733.57 222.45 733.63 223.25 733.68C224.09 733.73 224.94 733.79 225.82 733.84C227.75 733.96 229.8 734.08 231.97 734.18C232.65 734.21 233.35 734.25 234.05 734.28C235.84 734.36 237.7 734.43 239.62 734.49C240.73 734.53 241.87 734.57 243.02 734.59C243.81 734.61 244.6 734.63 245.41 734.64C246.67 734.67 247.96 734.69 249.26 734.71C251.29 734.74 253.37 734.75 255.5 734.75C260.33 734.75 265.42 734.67 270.69 734.5C271.13 734.49 271.58 734.47 272.02 734.46C273.46 734.42 274.91 734.35 276.37 734.28C277.77 734.23 279.17 734.16 280.59 734.07C280.77 734.07 280.95 734.06 281.14 734.04C282.24 733.99 283.35 733.92 284.48 733.84C285.16 733.81 285.86 733.76 286.55 733.71C287.65 733.64 288.76 733.57 289.89 733.48L289.91 733.51Z" fill="#F3EFF5"/>
<path d="M289.91 733.51V750.96C288.38 751.08 286.85 751.18 285.34 751.28C284.57 751.33 283.82 751.38 283.07 751.42C282.24 751.47 281.41 751.52 280.58 751.56C279.62 751.61 278.67 751.66 277.72 751.71C277.28 751.73 276.83 751.75 276.39 751.76C273.89 751.88 271.44 751.97 269.02 752.03C268.6 752.04 268.18 752.05 267.76 752.06C259.75 752.27 252.23 752.26 245.39 752.11C245.27 752.11 245.16 752.11 245.06 752.1C243.74 752.07 242.44 752.03 241.16 752C239.44 751.96 237.77 751.89 236.16 751.82C235.38 751.79 234.62 751.75 233.86 751.72C232.8 751.67 231.74 751.62 230.74 751.57C228.99 751.48 227.33 751.38 225.75 751.29C224.04 751.18 222.42 751.07 220.92 750.96V733.52C221.67 733.57 222.45 733.63 223.25 733.68C224.09 733.73 224.94 733.79 225.82 733.84C227.75 733.96 229.8 734.08 231.97 734.18C232.65 734.21 233.35 734.25 234.05 734.28C235.84 734.36 237.7 734.43 239.62 734.49C240.73 734.53 241.87 734.57 243.02 734.59C243.81 734.61 244.6 734.63 245.41 734.64C246.67 734.67 247.96 734.69 249.26 734.71C251.29 734.74 253.37 734.75 255.5 734.75C260.33 734.75 265.42 734.67 270.69 734.5C271.13 734.49 271.58 734.47 272.02 734.46C273.46 734.42 274.91 734.35 276.37 734.28C277.77 734.23 279.17 734.16 280.59 734.07C280.77 734.07 280.95 734.06 281.14 734.04C282.24 733.99 283.35 733.92 284.48 733.84C285.16 733.81 285.86 733.76 286.55 733.71C287.65 733.64 288.76 733.57 289.89 733.48L289.91 733.51Z" fill="#F3EFF5"/>
<path d="M289.91 652.8V671.46C288.37 671.58 286.82 671.69 285.3 671.79C282.25 671.99 279.25 672.15 276.31 672.28C273.36 672.41 270.46 672.51 267.63 672.59C265.51 672.64 263.42 672.68 261.37 672.71C260.68 672.72 260.01 672.72 259.32 672.73C256.17 672.75 253.12 672.75 250.18 672.72C248.49 672.7 246.85 672.68 245.25 672.64C243.64 672.6 242.07 672.56 240.54 672.52C239.48 672.49 238.41 672.44 237.38 672.41C236.21 672.37 235.06 672.32 233.93 672.27C231 672.14 228.25 671.99 225.72 671.83C224.01 671.72 222.41 671.61 220.91 671.5V652.82C221.66 652.87 222.44 652.93 223.24 652.98C224.08 653.04 224.93 653.09 225.81 653.14C227.74 653.26 229.79 653.38 231.96 653.48C232.64 653.51 233.34 653.55 234.04 653.58C235.83 653.66 237.69 653.73 239.61 653.79C240.72 653.83 241.86 653.87 243.01 653.89C243.8 653.91 244.59 653.93 245.4 653.94C246.66 653.97 247.95 653.99 249.25 654.01C251.28 654.04 253.36 654.05 255.49 654.05C257.22 654.05 258.98 654.04 260.78 654.02C261.68 654.01 262.59 654 263.5 653.99C264.49 653.97 265.5 653.95 266.51 653.92C267.35 653.91 268.18 653.89 269.03 653.85C270.92 653.79 272.83 653.73 274.78 653.65C275.72 653.61 276.68 653.57 277.64 653.52C279.41 653.44 281.22 653.35 283.03 653.24C283.38 653.22 283.72 653.2 284.07 653.17C284.88 653.13 285.71 653.07 286.53 653.01C287.64 652.94 288.75 652.87 289.87 652.78L289.91 652.8Z" fill="#F3EFF5"/>
<path d="M208.85 486.8H196.72V610.89H208.85V486.8Z" fill="#555451"/>
<path d="M221.89 905.67C221.57 905.65 221.24 905.63 220.93 905.6C221.35 905.63 221.78 905.67 222.22 905.7C222.34 905.7 222.47 905.71 222.59 905.72C222.35 905.7 222.12 905.69 221.88 905.67H221.89ZM208.88 819.58V823.82C211.43 824.09 215.54 824.5 220.94 824.89C225.47 825.22 230.92 825.55 237.09 825.78C237.72 825.8 238.36 825.82 239 825.85C240.32 825.91 241.67 825.94 243.04 825.97C243.83 825.99 244.62 826.01 245.43 826.02C246.69 826.05 247.98 826.07 249.28 826.09C251.31 826.12 253.39 826.13 255.52 826.13C257.25 826.13 259.01 826.12 260.81 826.1C261.25 826.1 261.71 826.09 262.16 826.09C263.31 826.07 264.48 826.05 265.66 826.02C265.95 826.02 266.25 826.01 266.53 826C267.37 825.99 268.2 825.97 269.05 825.93C269.33 825.93 269.6 825.92 269.89 825.91C271.62 825.86 273.39 825.79 275.19 825.71C276 825.68 276.83 825.64 277.67 825.6C278.39 825.57 279.11 825.53 279.85 825.49C280.57 825.46 281.31 825.41 282.04 825.37C283.54 825.29 285.04 825.2 286.57 825.09C291.59 824.75 296.74 824.31 301.96 823.78V819.55C257.21 824.27 218.52 820.64 208.86 819.58H208.88Z" fill="#555451"/>
<path d="M301.97 904.49V921.93C297.89 922.36 293.87 922.72 289.91 923.02C289.8 923.03 289.69 923.03 289.59 923.04C288.57 923.12 287.56 923.18 286.55 923.25C285.55 923.33 284.55 923.39 283.55 923.45C282.56 923.52 281.56 923.57 280.58 923.62C278.61 923.72 276.66 923.82 274.73 923.89C274.16 923.92 273.58 923.94 273.02 923.96C272.63 923.98 272.24 923.99 271.86 924C270.9 924.03 269.96 924.07 269.03 924.09C268.36 924.11 267.69 924.13 267.03 924.14C266.38 924.16 265.73 924.17 265.08 924.18L263.57 924.21H263.47C261.64 924.24 259.85 924.25 258.09 924.26C256.22 924.27 254.39 924.27 252.6 924.26C252.38 924.26 252.18 924.26 251.97 924.25C249.71 924.24 247.51 924.22 245.37 924.16C244.8 924.15 244.22 924.14 243.66 924.12C243.47 924.12 243.29 924.12 243.1 924.11C242.66 924.11 242.21 924.09 241.77 924.08C241.39 924.07 241.02 924.06 240.65 924.05C238.93 924 237.25 923.94 235.64 923.88C235.04 923.86 234.46 923.83 233.88 923.8C233.64 923.79 233.41 923.78 233.17 923.77C232.32 923.73 231.5 923.68 230.68 923.65C229.76 923.6 228.85 923.55 227.96 923.5C227.73 923.49 227.51 923.48 227.28 923.46L226.13 923.39C226.01 923.39 225.88 923.38 225.76 923.37C224.9 923.32 224.07 923.26 223.27 923.21C222.47 923.16 221.68 923.1 220.93 923.05C218.15 922.84 215.74 922.63 213.72 922.45C213.3 922.41 212.91 922.37 212.52 922.33C212.11 922.3 211.73 922.25 211.36 922.22C211.03 922.19 210.7 922.15 210.4 922.12C209.83 922.07 209.31 922.01 208.87 921.96V904.54C210.15 904.67 211.81 904.85 213.83 905.02C214.33 905.07 214.86 905.12 215.41 905.16C215.53 905.17 215.65 905.18 215.77 905.19C216.13 905.22 216.5 905.26 216.88 905.29C218.14 905.4 219.49 905.5 220.92 905.61C221.23 905.63 221.55 905.65 221.88 905.68C222.12 905.7 222.35 905.71 222.59 905.73C223.36 905.78 224.13 905.83 224.95 905.88C225.14 905.89 225.34 905.91 225.56 905.91C225.67 905.92 225.78 905.93 225.88 905.93C225.98 905.94 226.07 905.95 226.17 905.95C226.77 905.99 227.39 906.03 228.01 906.06C228.43 906.08 228.84 906.1 229.25 906.13C230.14 906.18 231.04 906.23 231.98 906.27C232.16 906.28 232.34 906.29 232.53 906.29C233.64 906.34 234.79 906.4 235.98 906.44C236.06 906.44 236.14 906.45 236.22 906.45C237.32 906.49 238.43 906.54 239.58 906.57C241.47 906.64 243.42 906.69 245.43 906.72C246.7 906.75 247.98 906.77 249.28 906.79C249.97 906.8 250.67 906.81 251.37 906.81C251.69 906.82 252.03 906.82 252.36 906.82C253.4 906.83 254.45 906.83 255.52 906.83C257.94 906.83 260.42 906.81 262.96 906.78C263.15 906.77 263.33 906.77 263.52 906.77C264.24 906.76 264.94 906.74 265.66 906.73C265.86 906.72 266.07 906.72 266.27 906.72C266.76 906.71 267.26 906.7 267.77 906.68C268.2 906.67 268.63 906.66 269.06 906.65C269.61 906.64 270.16 906.62 270.71 906.6C271.15 906.59 271.6 906.57 272.04 906.56C273.48 906.52 274.92 906.46 276.39 906.38C276.72 906.37 277.05 906.36 277.38 906.34C277.74 906.33 278.1 906.31 278.48 906.29C278.92 906.28 279.37 906.25 279.82 906.22C280.26 906.2 280.71 906.18 281.16 906.14C282.26 906.09 283.37 906.02 284.5 905.94C285.18 905.91 285.88 905.86 286.57 905.81C287.67 905.74 288.78 905.67 289.91 905.58C293.87 905.27 297.89 904.92 301.97 904.5V904.49Z" fill="#BEBBBF"/>
<path d="M301.97 823.79V842.45C297.89 842.88 293.87 843.24 289.91 843.53C288.37 843.65 286.82 843.76 285.3 843.86C283.78 843.96 282.26 844.05 280.77 844.13C279.26 844.21 277.78 844.28 276.31 844.35C273.36 844.49 270.46 844.59 267.63 844.66C266.22 844.69 264.82 844.73 263.43 844.75C262.04 844.77 260.68 844.79 259.33 844.8C256.18 844.83 253.13 844.82 250.19 844.79C248.5 844.77 246.86 844.75 245.26 844.71C243.65 844.68 242.08 844.63 240.55 844.59C239.49 844.56 238.42 844.51 237.39 844.48C236.22 844.44 235.07 844.39 233.94 844.34C231.01 844.21 228.26 844.06 225.73 843.9C224.88 843.85 224.06 843.79 223.25 843.74C222.45 843.69 221.67 843.63 220.92 843.58C215.37 843.16 211.24 842.75 208.86 842.49V823.84C211.41 824.11 215.52 824.52 220.92 824.91C225.45 825.24 230.9 825.57 237.07 825.8C237.7 825.82 238.34 825.84 238.98 825.87C240.3 825.93 241.65 825.96 243.02 825.99C243.81 826.01 244.6 826.03 245.41 826.04C246.67 826.07 247.96 826.09 249.26 826.11C251.29 826.14 253.37 826.15 255.5 826.15C257.23 826.15 258.99 826.14 260.79 826.12C261.23 826.12 261.69 826.11 262.14 826.11C263.29 826.09 264.46 826.07 265.64 826.04C265.93 826.04 266.23 826.03 266.51 826.02C267.35 826.01 268.18 825.99 269.03 825.95C269.31 825.95 269.58 825.94 269.87 825.93C271.6 825.88 273.37 825.81 275.17 825.73C275.98 825.7 276.81 825.66 277.65 825.62C278.37 825.59 279.09 825.55 279.83 825.51C280.55 825.48 281.29 825.43 282.02 825.39C283.52 825.31 285.02 825.22 286.55 825.11C291.57 824.77 296.72 824.33 301.94 823.8L301.97 823.79Z" fill="#BEBBBF"/>
<path d="M289.91 824.87V843.53C288.37 843.65 286.82 843.76 285.3 843.86C283.78 843.96 282.26 844.05 280.77 844.13C279.26 844.21 277.78 844.28 276.31 844.35C273.36 844.48 270.46 844.58 267.63 844.66C266.22 844.69 264.82 844.73 263.43 844.75C262.04 844.77 260.68 844.79 259.33 844.8C256.18 844.82 253.13 844.82 250.19 844.79C248.5 844.77 246.86 844.75 245.26 844.71C243.65 844.67 242.08 844.63 240.55 844.59C239.49 844.56 238.42 844.51 237.39 844.48C236.22 844.44 235.07 844.39 233.94 844.34C231.01 844.21 228.26 844.06 225.73 843.9C224.88 843.85 224.06 843.79 223.25 843.74C222.45 843.69 221.67 843.63 220.92 843.58V824.9C225.45 825.23 230.9 825.56 237.07 825.79C237.7 825.81 238.34 825.83 238.98 825.86C240.3 825.92 241.65 825.95 243.02 825.98C243.81 826 244.6 826.02 245.41 826.03C246.67 826.06 247.96 826.08 249.26 826.1C251.29 826.13 253.37 826.14 255.5 826.14C257.23 826.14 258.99 826.13 260.79 826.11C261.23 826.11 261.69 826.1 262.14 826.1C263.29 826.08 264.46 826.06 265.64 826.03C265.93 826.03 266.23 826.02 266.51 826.01C267.35 826 268.18 825.98 269.03 825.94C269.31 825.94 269.58 825.93 269.87 825.92C271.6 825.87 273.37 825.8 275.17 825.72C275.98 825.69 276.81 825.65 277.65 825.61C278.37 825.58 279.09 825.54 279.83 825.5C280.55 825.47 281.29 825.42 282.02 825.38C283.52 825.3 285.02 825.21 286.55 825.1C287.66 825.03 288.77 824.96 289.89 824.87H289.91Z" fill="#F3EFF5"/>
<path d="M289.91 905.57V923.02C289.8 923.03 289.69 923.03 289.59 923.04C288.57 923.12 287.56 923.18 286.55 923.25C285.55 923.33 284.55 923.39 283.55 923.45C282.56 923.52 281.56 923.57 280.58 923.62C278.61 923.72 276.66 923.82 274.73 923.89C274.16 923.92 273.58 923.94 273.02 923.96C272.63 923.98 272.24 923.99 271.86 924C270.9 924.03 269.96 924.07 269.03 924.09C268.36 924.11 267.69 924.13 267.03 924.14C266.38 924.16 265.73 924.17 265.08 924.18L263.57 924.21H263.47C261.64 924.24 259.85 924.25 258.09 924.26C256.22 924.27 254.39 924.27 252.6 924.26C252.38 924.26 252.18 924.26 251.97 924.25C249.71 924.24 247.51 924.22 245.37 924.16C244.8 924.15 244.22 924.14 243.66 924.12C243.47 924.12 243.29 924.12 243.1 924.11C242.66 924.11 242.21 924.09 241.77 924.08C241.39 924.07 241.02 924.06 240.65 924.05C238.93 924 237.25 923.94 235.64 923.88C235.04 923.86 234.46 923.83 233.88 923.8C233.64 923.79 233.41 923.78 233.17 923.77C232.32 923.73 231.5 923.68 230.68 923.65C229.76 923.6 228.85 923.55 227.96 923.5C227.73 923.49 227.51 923.48 227.28 923.46C227.16 923.46 227.05 923.45 226.95 923.45C226.67 923.43 226.41 923.42 226.14 923.4C226.02 923.4 225.89 923.39 225.77 923.38C224.91 923.33 224.08 923.27 223.28 923.22C222.48 923.17 221.69 923.11 220.94 923.06V905.62C221.25 905.64 221.57 905.66 221.9 905.69C222.01 905.7 222.13 905.71 222.24 905.72C222.36 905.72 222.49 905.73 222.61 905.74C223.38 905.79 224.15 905.84 224.97 905.89C225.16 905.9 225.36 905.92 225.58 905.92C225.69 905.93 225.8 905.94 225.9 905.94C226 905.95 226.09 905.96 226.19 905.96C226.79 906 227.41 906.04 228.03 906.07C228.45 906.09 228.86 906.11 229.27 906.14C230.16 906.19 231.06 906.24 232 906.28C232.18 906.29 232.36 906.3 232.55 906.3C233.66 906.35 234.81 906.41 236 906.45C236.08 906.45 236.16 906.46 236.24 906.46C237.34 906.5 238.45 906.55 239.6 906.58C241.49 906.65 243.44 906.7 245.45 906.73C246.72 906.76 248 906.78 249.3 906.8C249.99 906.81 250.69 906.82 251.39 906.82C251.71 906.83 252.05 906.83 252.38 906.83C253.42 906.84 254.47 906.84 255.54 906.84C257.96 906.84 260.44 906.82 262.98 906.79C263.17 906.78 263.35 906.78 263.54 906.78C264.26 906.77 264.96 906.75 265.68 906.74C265.88 906.73 266.09 906.73 266.29 906.73C266.46 906.72 266.62 906.72 266.8 906.71C267.12 906.71 267.45 906.7 267.78 906.69C268.21 906.68 268.64 906.67 269.07 906.66C269.62 906.65 270.17 906.63 270.72 906.61C271.16 906.6 271.61 906.58 272.05 906.57C273.49 906.53 274.93 906.47 276.4 906.39C276.73 906.38 277.06 906.37 277.39 906.35C277.75 906.34 278.11 906.32 278.49 906.3C278.93 906.29 279.38 906.26 279.83 906.23C280.27 906.21 280.72 906.19 281.17 906.15C282.27 906.1 283.38 906.03 284.51 905.95C285.19 905.92 285.89 905.87 286.58 905.82C287.68 905.75 288.79 905.68 289.92 905.59L289.91 905.57Z" fill="#F3EFF5"/>
<path d="M289.91 905.57V923.02C289.8 923.03 289.69 923.03 289.59 923.04C288.57 923.12 287.56 923.18 286.55 923.25C285.55 923.33 284.55 923.39 283.55 923.45C282.56 923.52 281.56 923.57 280.58 923.62C278.61 923.72 276.66 923.82 274.73 923.89C274.16 923.92 273.58 923.94 273.02 923.96C272.63 923.98 272.24 923.99 271.86 924C270.9 924.03 269.96 924.07 269.03 924.09C268.36 924.11 267.69 924.13 267.03 924.14C266.38 924.16 265.73 924.17 265.08 924.18L263.57 924.21H263.47C261.64 924.24 259.85 924.25 258.09 924.26C256.22 924.27 254.39 924.27 252.6 924.26C252.38 924.26 252.18 924.26 251.97 924.25C249.71 924.24 247.51 924.22 245.37 924.16C244.8 924.15 244.22 924.14 243.66 924.12C243.47 924.12 243.29 924.12 243.1 924.11C242.66 924.11 242.21 924.09 241.77 924.08C241.39 924.07 241.02 924.06 240.65 924.05C238.93 924 237.25 923.94 235.64 923.88C235.04 923.86 234.46 923.83 233.88 923.8C233.64 923.79 233.41 923.78 233.17 923.77C232.32 923.73 231.5 923.68 230.68 923.65C229.76 923.6 228.85 923.55 227.96 923.5C227.73 923.49 227.51 923.48 227.28 923.46C227.16 923.46 227.05 923.45 226.95 923.45C226.67 923.43 226.41 923.42 226.14 923.4C226.02 923.4 225.89 923.39 225.77 923.38C224.91 923.33 224.08 923.27 223.28 923.22C222.48 923.17 221.69 923.11 220.94 923.06V905.62C221.25 905.64 221.57 905.66 221.9 905.69C222.01 905.7 222.13 905.71 222.24 905.72C222.36 905.72 222.49 905.73 222.61 905.74C223.38 905.79 224.15 905.84 224.97 905.89C225.16 905.9 225.36 905.92 225.58 905.92C225.69 905.93 225.8 905.94 225.9 905.94C226 905.95 226.09 905.96 226.19 905.96C226.79 906 227.41 906.04 228.03 906.07C228.45 906.09 228.86 906.11 229.27 906.14C230.16 906.19 231.06 906.24 232 906.28C232.18 906.29 232.36 906.3 232.55 906.3C233.66 906.35 234.81 906.41 236 906.45C236.08 906.45 236.16 906.46 236.24 906.46C237.34 906.5 238.45 906.55 239.6 906.58C241.49 906.65 243.44 906.7 245.45 906.73C246.72 906.76 248 906.78 249.3 906.8C249.99 906.81 250.69 906.82 251.39 906.82C251.71 906.83 252.05 906.83 252.38 906.83C253.42 906.84 254.47 906.84 255.54 906.84C257.96 906.84 260.44 906.82 262.98 906.79C263.17 906.78 263.35 906.78 263.54 906.78C264.26 906.77 264.96 906.75 265.68 906.74C265.88 906.73 266.09 906.73 266.29 906.73C266.46 906.72 266.62 906.72 266.8 906.71C267.12 906.71 267.45 906.7 267.78 906.69C268.21 906.68 268.64 906.67 269.07 906.66C269.62 906.65 270.17 906.63 270.72 906.61C271.16 906.6 271.61 906.58 272.05 906.57C273.49 906.53 274.93 906.47 276.4 906.39C276.73 906.38 277.06 906.37 277.39 906.35C277.75 906.34 278.11 906.32 278.49 906.3C278.93 906.29 279.38 906.26 279.83 906.23C280.27 906.21 280.72 906.19 281.17 906.15C282.27 906.1 283.38 906.03 284.51 905.95C285.19 905.92 285.89 905.87 286.58 905.82C287.68 905.75 288.79 905.68 289.92 905.59L289.91 905.57Z" fill="#F3EFF5"/>
<path d="M289.91 824.87V843.53C288.37 843.65 286.82 843.76 285.3 843.86C283.78 843.96 282.26 844.05 280.77 844.13C279.26 844.21 277.78 844.28 276.31 844.35C273.36 844.48 270.46 844.58 267.63 844.66C266.22 844.69 264.82 844.73 263.43 844.75C262.04 844.77 260.68 844.79 259.33 844.8C256.18 844.82 253.13 844.82 250.19 844.79C248.5 844.77 246.86 844.75 245.26 844.71C243.65 844.67 242.08 844.63 240.55 844.59C239.49 844.56 238.42 844.51 237.39 844.48C236.22 844.44 235.07 844.39 233.94 844.34C231.01 844.21 228.26 844.06 225.73 843.9C224.88 843.85 224.06 843.79 223.25 843.74C222.45 843.69 221.67 843.63 220.92 843.58V824.9C225.45 825.23 230.9 825.56 237.07 825.79C237.7 825.81 238.34 825.83 238.98 825.86C240.3 825.92 241.65 825.95 243.02 825.98C243.81 826 244.6 826.02 245.41 826.03C246.67 826.06 247.96 826.08 249.26 826.1C251.29 826.13 253.37 826.14 255.5 826.14C257.23 826.14 258.99 826.13 260.79 826.11C261.23 826.11 261.69 826.1 262.14 826.1C263.29 826.08 264.46 826.06 265.64 826.03C265.93 826.03 266.23 826.02 266.51 826.01C267.35 826 268.18 825.98 269.03 825.94C269.31 825.94 269.58 825.93 269.87 825.92C271.6 825.87 273.37 825.8 275.17 825.72C275.98 825.69 276.81 825.65 277.65 825.61C278.37 825.58 279.09 825.54 279.83 825.5C280.55 825.47 281.29 825.42 282.02 825.38C283.52 825.3 285.02 825.21 286.55 825.1C287.66 825.03 288.77 824.96 289.89 824.87H289.91Z" fill="#F3EFF5"/>
</svg>
