<svg width="76" height="76" viewBox="0 0 76 76" fill="none" xmlns="http://www.w3.org/2000/svg">
<path d="M49.9244 76H26.0756C24.8459 76 23.849 75.0031 23.849 73.7734V52.151H2.22656C0.996906 52.151 0 51.1541 0 49.9244V26.0756C0 24.8459 0.996906 23.849 2.22656 23.849H23.849V2.22656C23.849 0.996906 24.8459 0 26.0756 0H49.9244C51.1541 0 52.151 0.996906 52.151 2.22656V23.849H73.7734C75.0031 23.849 76 24.8459 76 26.0756V49.9244C76 51.1541 75.0031 52.151 73.7734 52.151H52.151V73.7734C52.151 75.0031 51.1541 76 49.9244 76Z" fill="#FF3838"/>
<path d="M49.9244 76C51.1541 76 52.151 75.0031 52.151 73.7734V52.151H73.7734C75.0031 52.151 76 51.1541 76 49.9244V26.0756C76 24.8459 75.0031 23.849 73.7734 23.849H52.151V2.22656C52.151 0.996906 51.1541 0 49.9244 0H38V76H49.9244Z" fill="#DC0C15"/>
</svg>
