<?xml version="1.0" encoding="utf-8"?>
<!-- Generator: Adobe Illustrator 26.0.3, SVG Export Plug-In . SVG Version: 6.00 Build 0)  -->
<svg version="1.1" id="Слой_1" xmlns="http://www.w3.org/2000/svg" xmlns:xlink="http://www.w3.org/1999/xlink" x="0px" y="0px"
	 viewBox="0 0 122.67 119.35" style="enable-background:new 0 0 122.67 119.35;" xml:space="preserve">
<style type="text/css">
	.st0{fill:#F6D3BD;}
	.st1{fill:#C4A996;}
	.st2{fill:#ED1C24;}
	.st3{fill:#998475;}
	.st4{fill:#BDB7B2;}
	.st5{fill:#E7E3E0;}
	.st6{fill:#4F5260;}
	.st7{fill:#555968;}
	.st8{fill:url(#SVGID_1_);}
	.st9{fill:url(#SVGID_00000021119934940724785530000000749023684603826588_);}
	.st10{fill:url(#SVGID_00000111904136422415015380000004806966563484392887_);}
	.st11{fill:url(#SVGID_00000062881174196393364350000004641166433310831261_);}
	.st12{fill:#63687A;}
	.st13{fill:#AEA89F;}
	.st14{fill:none;stroke:#998475;stroke-width:2;stroke-miterlimit:10;}
	.st15{fill:#FFFFFF;}
	.st16{fill:#1D1D1B;}
	.st17{fill:#E6E6E6;}
	.st18{fill:#333333;}
	.st19{fill:#4D4D4D;}
	.st20{fill:#1A1A1A;}
	.st21{fill:#A8A199;}
	.st22{fill:#E2D6CE;}
	.st23{fill:url(#SVGID_00000143616292392229515250000003831960947210397835_);}
	.st24{fill:url(#SVGID_00000177464233069535298000000010743331898073668535_);}
	.st25{fill:url(#SVGID_00000008852755942631684520000017405241295916175501_);}
	.st26{fill:url(#SVGID_00000105426551523832427100000016978141940551051708_);}
	.st27{fill:#555451;}
	.st28{fill:#578BAA;}
	.st29{fill:#6BABD1;}
	.st30{fill:#A6A6A6;}
	.st31{fill:#F3EFF5;}
	.st32{fill:#D4D1D6;}
	.st33{fill:#848BA3;}
	.st34{fill:#676D80;}
	.st35{fill:#9FA7C4;}
	.st36{fill:#BEBBBF;}
	.st37{fill:url(#SVGID_00000183945246875484487610000017247496921083799989_);}
	.st38{fill:url(#SVGID_00000152977367727419721710000009609680440997164433_);}
	.st39{fill:url(#SVGID_00000096772398941025392970000001053720383507540376_);}
	.st40{fill:url(#SVGID_00000095308872407822373720000007551286876978554511_);}
	.st41{fill:url(#SVGID_00000142878656673295431970000013752090237628214941_);}
	.st42{fill:url(#SVGID_00000103223708431790506350000009246793635527152292_);}
	.st43{fill:url(#SVGID_00000166653858394394957900000009958954967992169126_);}
	.st44{fill:url(#SVGID_00000166647698716249894910000005873012350250764434_);}
	.st45{fill:url(#SVGID_00000015315846679887588730000012152001417883334302_);}
	.st46{fill:url(#SVGID_00000083051902229290189450000017619457212403985836_);}
	.st47{fill:url(#SVGID_00000112621597892658983380000016833869535633032320_);}
	.st48{fill:url(#SVGID_00000104705907602496321070000000716207753590670732_);}
	.st49{fill:url(#SVGID_00000013908495327535334190000003404018145110591912_);}
	.st50{fill:url(#SVGID_00000013158688036392682030000013733209002850293648_);}
</style>
<g>
	<path class="st33" d="M104.03,19.77c-3.33-6.78-9.07-11.59-17.05-14.28C75.67,1.66,64.27,0.79,52.87,2.84
		C44,4.44,35.14,7.81,26.32,12.95C16.09,18.91,8.73,29.62,7.56,40.23c-0.95,8.67,2.15,16.59,8.98,22.91
		C28.42,74.13,44.26,78.21,60.3,75.18c7.29-1.38,14.62-4.22,21.64-8.56c11.08-6.84,17.78-17.13,18.39-28.23
		c0.39-7.16-1.99-13.48-6.37-16.88c-8.62-6.72-20.73-8.54-36.88-5.52c-2.31,0.43-4.69,0.96-7.17,1.59
		c-19.22,4.89-30.7,18.56-30.7,28.94c0,3.61,1.17,7.04,3.2,9.76c-0.16-1.15,0.32-3.43,3.51-7.76c5.49-7.47,18.3-13.96,18.3-13.96
		c-2.73,15.94-1.35,19.9-0.57,20.88c0.88-2.31,0.72-5.13,0.51-8.85c-0.19-3.32-0.41-7.08,0.02-11.68
		c0.56-5.92,5.68-11.53,13.7-14.98c2.27-0.98,4.82-1.78,7.51-2.34c8.07-1.66,17.36-1.07,23.77,3.94c5.71,4.46,8.85,9.54,9.35,15.1
		c0.61,6.88-2.83,14.57-10.24,22.86c-8.61,9.63-20.41,12.89-26.66,13.98c-2.44,0.43-4.04,0.52-4.25,0.53c0,0,0,0-0.01,0
		c-18.73,0-29.77-5.87-35.74-10.8c-6.95-5.74-11.1-13.64-11.1-21.14c0-16.17,13.06-28.78,35.83-34.6c1.71-0.44,3.44-0.81,5.17-1.12
		c16.74-3,33.95-0.05,44.07,7.81c6.8,5.28,10.39,12.63,10.39,21.27c0,23.64-27.3,43.25-48.57,46.72c-2.2,0.36-4.34,0.55-6.37,0.55
		c-0.01,0-0.02,0-0.03,0c-20.59-0.01-36.21-9.1-36.37-9.19l0.74-1.25c0,0,0,0,0,0l0.15-0.26c0,0,0,0,0,0l0,0
		c0.15,0.09,15.4,8.95,35.51,8.95c1.92,0,3.95-0.18,6.05-0.53c9.11-1.52,19.59-6.19,28.17-12.74c7.08-5.4,18.96-16.78,18.96-32.24
		c0-8.19-3.27-14.88-9.71-19.88C84.42,7.7,66.93,4.95,50.13,8.39c-1.12,0.23-2.24,0.49-3.35,0.77c-21.93,5.61-34.51,17.6-34.51,32.9
		c0,10.26,9.47,25.81,34.07,29.42c0.03-0.06,0.58-1.26,1.12-7.26c0.56-6.16-0.56-16.18-0.56-16.18s4.48-12.71,23.92-12.71
		c16.58,0,22.8,8.35,24.27,10.81c1.37-3.28,1.94-6.41,1.67-9.35c-0.45-5.06-3.37-9.73-8.68-13.87c-5.5-4.29-13.31-5.09-20.46-3.96
		c-3.25,0.51-6.36,1.42-9.05,2.58c-7.42,3.2-12.15,8.26-12.65,13.54c-0.42,4.47-0.21,8.16-0.02,11.42
		c0.4,6.88,0.69,11.84-6.56,15.55c-1.4,0.72-2.85,1.19-4.32,1.42c-3.23,0.51-6.53-0.15-9.49-1.95c-4.98-3.05-8.08-8.79-8.08-14.98
		c0-11.06,11.98-25.54,32.02-30.64c2.54-0.65,5-1.19,7.38-1.63c16.62-3.09,29.16-1.15,38.18,5.88c4.83,3.76,7.46,10.63,7.04,18.36
		c-0.63,11.68-7.64,22.48-19.22,29.63c-7.24,4.47-14.8,7.4-22.32,8.81c-16.55,3.11-32.91-1.13-45.19-12.5
		C8.1,57.72,4.8,49.28,5.82,40.04c0.48-4.35,1.95-8.72,4.19-12.8C6.24,32.48,3.73,38.48,2.78,44.8C1.36,54.2,3.66,63.36,9.08,69.95
		c1.65,2,3.47,3.78,5.43,5.34l0.01,0c0.4,0.32,0.8,0.62,1.21,0.91c0.29,0.21,0.59,0.42,0.88,0.63c0.26,0.18,0.51,0.36,0.77,0.53
		c0.24,0.16,0.49,0.31,0.74,0.47c0.24,0.15,0.49,0.31,0.74,0.45c0.26,0.15,0.51,0.3,0.77,0.45c0.24,0.14,0.49,0.28,0.74,0.41
		c0.26,0.14,0.53,0.28,0.8,0.42c0.25,0.13,0.5,0.25,0.75,0.37c0.27,0.13,0.54,0.26,0.81,0.39c0.25,0.12,0.51,0.23,0.77,0.34
		c0.27,0.12,0.55,0.24,0.82,0.36c0.26,0.11,0.53,0.21,0.8,0.32c0.27,0.11,0.54,0.22,0.81,0.32c0.51,0.19,1.02,0.37,1.54,0.55
		c0.27,0.09,0.55,0.17,0.82,0.26c0.28,0.09,0.56,0.18,0.84,0.26c0.28,0.08,0.57,0.16,0.86,0.24c0.27,0.08,0.55,0.15,0.82,0.23
		c0.29,0.08,0.58,0.15,0.86,0.22c0.28,0.07,0.56,0.13,0.83,0.2c0.29,0.07,0.57,0.13,0.86,0.19c0.28,0.06,0.57,0.12,0.85,0.17
		c0.28,0.06,0.57,0.11,0.85,0.16c0.3,0.05,0.59,0.1,0.89,0.15c0.27,0.05,0.55,0.09,0.82,0.13c0.33,0.05,0.67,0.09,1,0.14
		c0.24,0.03,0.48,0.07,0.72,0.1c0.55,0.07,1.1,0.13,1.66,0.18c0.24,0.02,0.48,0.04,0.72,0.06c0.34,0.03,0.68,0.06,1.02,0.08
		c0.26,0.02,0.51,0.03,0.77,0.05c0.32,0.02,0.64,0.04,0.96,0.05c0.26,0.01,0.52,0.02,0.78,0.03c0.32,0.01,0.64,0.02,0.96,0.02
		c0.26,0,0.51,0.01,0.77,0.01c0.33,0,0.65,0,0.98,0c0.25,0,0.49,0,0.73-0.01c0.35-0.01,0.7-0.02,1.04-0.03
		c0.22-0.01,0.43-0.01,0.65-0.02c0.46-0.02,0.92-0.04,1.38-0.07c0.1-0.01,0.2-0.01,0.3-0.02c0.55-0.03,1.1-0.08,1.65-0.12
		c0.18-0.02,0.36-0.03,0.55-0.05c0.37-0.03,0.74-0.07,1.1-0.11c0.21-0.02,0.42-0.05,0.63-0.07c0.33-0.04,0.67-0.08,1-0.12
		c0.22-0.03,0.43-0.06,0.64-0.09c0.32-0.05,0.65-0.09,0.97-0.14c0.21-0.03,0.42-0.07,0.63-0.1c0.32-0.05,0.64-0.11,0.96-0.16
		c0.2-0.04,0.4-0.07,0.6-0.11c0.34-0.06,0.68-0.13,1.02-0.2c0.17-0.03,0.34-0.07,0.51-0.1c0.48-0.1,0.95-0.2,1.42-0.31
		c0.02,0,0.04-0.01,0.06-0.01c19.79-4.6,38.19-24.23,42.16-35.72C107.61,40.31,108.65,29.18,104.03,19.77z"/>
	<g>
		<polygon class="st33" points="118.01,31.93 118.01,31.93 118.01,31.93 		"/>
		<path class="st33" d="M118.19,32.4c-0.1-0.27-0.17-0.43-0.18-0.46C118.08,32.09,118.13,32.25,118.19,32.4z"/>
		<path class="st33" d="M119.1,35c1.03,3.49,1.46,7.36,0.92,11.58c-3.3,25.34-36.63,51.49-39.59,53.76v19c0,0,31.1-27.4,39.05-45.89
			C125.68,59.05,121.32,41.88,119.1,35z"/>
	</g>
	<g>
		<path class="st34" d="M6.28,49.14c-0.64-2.92-0.8-5.96-0.46-9.1c0.48-4.36,1.95-8.73,4.2-12.81C6.24,32.47,3.73,38.48,2.78,44.8
			c-0.95,6.33-0.21,12.56,2.03,17.97C3.54,54.75,5.46,50.51,6.28,49.14z"/>
	</g>
	<path class="st33" d="M113.1,61.26c0.88-1.79,1.76-3.62,2.57-5.43c1.28-3.15,2.19-6.33,2.6-9.48c1.8-13.82-7.64-23.8-13.2-28.38
		c0.18,0.34,0.36,0.67,0.53,1.02c4.86,9.9,3.78,21.56,1.15,29.18c-4.65,13.46-24.62,32.49-43.42,36.86
		c-5.03,1.17-10.74,1.88-16.63,1.89c-14.11,0-29.3-4.1-38.98-15.85c-5.35-6.49-7.82-15.31-6.94-24.48l0-0.02
		c0,0-2.39,17.14,1.14,27.5c3.53,10.36,12.6,28.06,43.74,28.06c20.89,0,40.36-10.8,51.94-20.03
		C103.26,76.04,109.05,68.82,113.1,61.26z"/>
	<path class="st34" d="M110.78,53.78c-2.77,11.87-21.9,31.74-28.55,38.38c5.94-3.16,11.16-6.7,15.35-10.03
		c0.23-0.25,0.46-0.49,0.69-0.74c0.37-0.4,0.74-0.8,1.11-1.22c0.32-0.35,0.64-0.72,0.96-1.08c0.37-0.42,0.74-0.84,1.11-1.27
		c0.31-0.36,0.62-0.73,0.93-1.1c0.37-0.44,0.75-0.89,1.11-1.34c0.3-0.37,0.59-0.73,0.89-1.1c0.37-0.47,0.74-0.94,1.11-1.42
		c0.28-0.37,0.56-0.73,0.84-1.1c0.37-0.5,0.74-1,1.1-1.5c0.26-0.36,0.52-0.72,0.78-1.09c0.37-0.52,0.72-1.05,1.08-1.58
		c0.24-0.36,0.48-0.71,0.71-1.07c0.36-0.55,0.7-1.11,1.04-1.66c0.21-0.35,0.43-0.69,0.63-1.04c0.34-0.58,0.67-1.17,0.99-1.75
		c0.17-0.31,0.35-0.62,0.52-0.94c0.55-1.11,1.08-2.23,1.61-3.36c0.95-3.5,2.87-11.83,1.82-19.31c-1.37-9.77-11.53-20.46-11.53-20.46
		C108.37,23.31,114.14,39.37,110.78,53.78z"/>
	<path class="st35" d="M102.29,13.75c-3.59-4.5-8.53-7.83-14.76-9.93c-20.6-6.97-41.5-4.4-62.1,7.61c-1.74,1.02-3.4,2.17-4.97,3.42
		C9.92,21.82,2.83,32.63,1.04,44.54c-1.49,9.89,0.95,19.56,6.69,26.52c9.68,11.76,24.87,15.85,38.98,15.85
		c5.89,0,11.6-0.71,16.63-1.89c18.79-4.37,38.77-23.4,43.42-36.85c2.62-7.62,3.7-19.28-1.15-29.18c-0.18-0.34-0.35-0.68-0.54-1.02
		c5.55,4.58,14.99,14.56,13.2,28.37c-3.28,25.22-38.73,52.46-39.09,52.73c0,0-2.02,11.04,0,20.03l1.25,0.24v-19
		c3.11-2.4,36.3-28.5,39.58-53.77C122.55,27.05,104.09,14.89,102.29,13.75z M105.09,47.59c-3.97,11.49-22.36,31.12-42.15,35.73
		c-0.41,0.1-0.82,0.18-1.24,0.27c-0.09,0.02-0.17,0.04-0.25,0.05c-0.76,0.16-1.54,0.31-2.33,0.44c-0.25,0.04-0.5,0.09-0.75,0.13
		c-0.74,0.11-1.48,0.23-2.24,0.32c-0.33,0.04-0.67,0.09-1,0.12c-0.01,0-0.01,0-0.01,0c-0.75,0.09-1.51,0.17-2.27,0.24
		c-0.49,0.04-0.98,0.08-1.48,0.11c-1.4,0.1-2.83,0.14-4.27,0.15c-0.16,0-0.32,0.01-0.49,0.01c-0.16,0-0.32-0.01-0.49-0.01
		c-0.32,0-0.64-0.01-0.97-0.01c-0.25-0.01-0.5-0.02-0.75-0.03c-0.35-0.01-0.69-0.03-1.04-0.04c-0.24-0.01-0.47-0.02-0.71-0.04
		c-1.19-0.07-2.39-0.17-3.58-0.31c-0.19-0.02-0.39-0.04-0.58-0.06c-0.24-0.03-0.47-0.06-0.7-0.1c0,0-0.01,0-0.02,0
		c-0.33-0.04-0.67-0.09-1-0.14c-0.27-0.04-0.55-0.09-0.82-0.13c-0.3-0.05-0.59-0.11-0.89-0.16c-0.29-0.05-0.57-0.11-0.85-0.16
		c-0.29-0.06-0.57-0.11-0.86-0.18c-0.86-0.18-1.71-0.39-2.55-0.61c0,0,0,0-0.01,0c-0.2-0.06-0.41-0.11-0.62-0.18
		c-0.35-0.1-0.7-0.19-1.04-0.3c-0.01,0-0.01,0-0.01,0c-0.28-0.08-0.56-0.18-0.83-0.26c-0.01,0-0.01,0-0.01,0
		c-0.27-0.09-0.54-0.17-0.82-0.26c-0.52-0.17-1.03-0.35-1.54-0.54c-0.27-0.11-0.54-0.21-0.81-0.32c-0.01,0-0.01,0-0.01-0.01
		c-0.18-0.07-0.37-0.14-0.54-0.22c-0.36-0.14-0.72-0.3-1.07-0.45c0-0.01,0-0.01-0.01-0.01c-0.2-0.09-0.4-0.18-0.61-0.27
		c-0.32-0.15-0.64-0.3-0.96-0.46c-0.25-0.12-0.5-0.25-0.75-0.38c-0.26-0.14-0.53-0.28-0.8-0.42c-0.25-0.13-0.49-0.27-0.74-0.41
		c-0.97-0.54-1.9-1.13-2.83-1.76c-0.06-0.04-0.13-0.09-0.19-0.13c-0.62-0.43-1.23-0.87-1.82-1.34c-0.09-0.06-0.18-0.12-0.26-0.19
		c0,0,0,0,0-0.01c-0.08-0.06-0.16-0.12-0.24-0.19c-1.86-1.51-3.61-3.22-5.19-5.14C3.66,63.36,1.36,54.2,2.77,44.8
		c0.12-0.79,0.26-1.57,0.43-2.35c0.1-0.43,0.21-0.85,0.32-1.27c0.09-0.35,0.17-0.7,0.26-1.05c0.16-0.57,0.34-1.13,0.53-1.68
		c0.06-0.2,0.11-0.39,0.18-0.6c0.23-0.67,0.48-1.33,0.75-1.99c0.04-0.08,0.06-0.16,0.09-0.24c0.29-0.7,0.61-1.4,0.93-2.08
		c0.02-0.04,0.04-0.07,0.05-0.11c0.34-0.71,0.7-1.4,1.09-2.1c0.01-0.01,0.01-0.02,0.02-0.03c0.36-0.64,0.74-1.27,1.13-1.89
		c0.04-0.06,0.06-0.12,0.11-0.18c0.38-0.59,0.77-1.18,1.18-1.75c0.06-0.08,0.11-0.15,0.16-0.23c-2.25,4.07-3.7,8.44-4.18,12.78
		C4.8,49.29,8.1,57.72,15.35,64.43c0.05,0.05,0.11,0.11,0.17,0.15c0.62,0.57,1.25,1.12,1.9,1.65c0.24,0.2,0.47,0.39,0.71,0.58
		c0.52,0.41,1.04,0.82,1.56,1.2c0.22,0.17,0.45,0.33,0.67,0.5c0.72,0.51,1.45,1.01,2.18,1.48c0.18,0.11,0.37,0.22,0.55,0.33
		c0.59,0.37,1.18,0.72,1.79,1.06c0.25,0.15,0.52,0.29,0.78,0.44c0.61,0.32,1.22,0.64,1.84,0.94c0.19,0.1,0.38,0.19,0.57,0.29
		c0.78,0.37,1.58,0.72,2.38,1.04c0.25,0.1,0.49,0.19,0.73,0.29c0.61,0.24,1.22,0.46,1.83,0.68c0.26,0.1,0.54,0.18,0.81,0.27
		c0.79,0.26,1.59,0.51,2.4,0.73c0.08,0.03,0.17,0.05,0.25,0.07c0.82,0.22,1.64,0.41,2.47,0.6c0.26,0.05,0.54,0.11,0.81,0.17
		c0.66,0.12,1.31,0.25,1.97,0.35c0.25,0.04,0.49,0.08,0.74,0.11c0.87,0.13,1.75,0.24,2.63,0.32c0.18,0.02,0.37,0.03,0.55,0.04
		c0.72,0.06,1.45,0.11,2.18,0.13c0.28,0.02,0.56,0.03,0.84,0.04c0.74,0.02,1.47,0.02,2.21,0.01h0.54c0.9-0.03,1.81-0.07,2.72-0.14
		c0.24-0.02,0.48-0.04,0.72-0.06c0.71-0.06,1.42-0.13,2.12-0.22c0.27-0.04,0.54-0.07,0.81-0.11c0.92-0.13,1.84-0.27,2.77-0.45
		c0.86-0.16,1.72-0.34,2.58-0.54c0.26-0.06,0.54-0.13,0.8-0.2c0.61-0.15,1.21-0.31,1.82-0.47c0.3-0.09,0.6-0.18,0.89-0.26
		c0.61-0.18,1.2-0.37,1.81-0.57c0.26-0.09,0.54-0.17,0.8-0.26c1.72-0.59,3.42-1.26,5.12-2.01c0.26-0.12,0.53-0.25,0.8-0.37
		c0.59-0.27,1.18-0.54,1.77-0.84c0.3-0.14,0.59-0.29,0.89-0.44c0.59-0.3,1.18-0.61,1.76-0.94c0.26-0.14,0.53-0.28,0.78-0.43
		c0.84-0.46,1.67-0.95,2.5-1.47c11.57-7.14,18.58-17.94,19.21-29.63c0.42-7.74-2.21-14.6-7.05-18.36c-0.61-0.47-1.23-0.92-1.87-1.34
		c-0.21-0.14-0.43-0.27-0.64-0.4c-0.44-0.28-0.88-0.55-1.33-0.81c-0.26-0.15-0.53-0.29-0.79-0.43c-0.42-0.22-0.85-0.44-1.29-0.65
		c-0.28-0.13-0.57-0.26-0.86-0.39c-0.44-0.19-0.88-0.37-1.32-0.54c-0.3-0.12-0.6-0.24-0.9-0.34c-0.47-0.17-0.94-0.32-1.42-0.47
		c-0.3-0.09-0.59-0.18-0.89-0.27c-0.53-0.15-1.07-0.29-1.61-0.41c-0.26-0.07-0.53-0.14-0.79-0.19c-0.82-0.18-1.65-0.33-2.49-0.46
		c-0.01-0.01-0.02-0.01-0.03-0.01c-0.85-0.13-1.72-0.24-2.61-0.32c-0.29-0.04-0.6-0.04-0.89-0.07c-0.61-0.04-1.22-0.09-1.83-0.11
		c-0.36-0.02-0.73-0.03-1.09-0.04c-0.58-0.01-1.16-0.02-1.75-0.02c-0.39,0-0.78,0.01-1.18,0.02c-0.59,0.02-1.18,0.04-1.78,0.07
		c-0.4,0.03-0.82,0.04-1.23,0.08c-0.61,0.04-1.25,0.1-1.88,0.16c-0.4,0.04-0.81,0.07-1.21,0.12c-0.7,0.08-1.41,0.17-2.13,0.27
		c-0.35,0.04-0.7,0.09-1.06,0.14c-1.07,0.16-2.15,0.34-3.26,0.54c-0.02,0-0.03,0.01-0.04,0.01c-1.18,0.22-2.4,0.47-3.62,0.74
		c-1.23,0.27-2.47,0.57-3.75,0.89c-20.05,5.1-32.02,19.58-32.02,30.65c0,6.19,3.1,11.92,8.08,14.97c0.03,0.03,0.08,0.04,0.11,0.07
		c0.29,0.17,0.57,0.33,0.87,0.48c0.11,0.05,0.24,0.11,0.35,0.17c0.24,0.11,0.47,0.23,0.72,0.32c0.11,0.04,0.22,0.1,0.32,0.14
		c0.33,0.12,0.68,0.25,1.01,0.35c0.09,0.03,0.18,0.04,0.26,0.07c0.27,0.07,0.54,0.14,0.81,0.2c0.12,0.03,0.25,0.05,0.36,0.07
		c0.28,0.05,0.55,0.1,0.83,0.13c0.09,0.01,0.17,0.03,0.25,0.04c0.36,0.04,0.71,0.06,1.06,0.07c0.11,0.01,0.2,0,0.31,0
		c0.27,0.01,0.54,0,0.82-0.02c0.11,0,0.22-0.01,0.32-0.02c0.36-0.03,0.72-0.06,1.08-0.12c0.33-0.05,0.68-0.12,1.01-0.2
		c0.1-0.02,0.2-0.05,0.31-0.08c0.23-0.06,0.47-0.12,0.7-0.19c0.11-0.04,0.23-0.08,0.34-0.11c0.23-0.08,0.46-0.17,0.68-0.25
		c0.11-0.04,0.21-0.08,0.31-0.12c0.32-0.14,0.65-0.29,0.97-0.46c7.25-3.7,6.96-8.67,6.55-15.55c-0.18-3.26-0.4-6.94,0.02-11.41
		c0.5-5.27,5.23-10.34,12.65-13.54c0.61-0.26,1.25-0.51,1.91-0.75c0.2-0.08,0.41-0.14,0.61-0.21c0.47-0.17,0.95-0.32,1.43-0.47
		c0.24-0.07,0.47-0.14,0.72-0.2c0.49-0.14,0.99-0.26,1.49-0.39c0.23-0.05,0.45-0.11,0.68-0.16c0.73-0.16,1.47-0.3,2.22-0.42
		c0.57-0.09,1.14-0.16,1.72-0.22c0.16-0.02,0.32-0.04,0.48-0.05c0.51-0.05,1.01-0.09,1.52-0.12c0.09,0,0.18-0.01,0.26-0.02
		c0.58-0.03,1.16-0.04,1.74-0.04h0.48c0.47,0.01,0.95,0.03,1.41,0.05c0.13,0.01,0.26,0.01,0.39,0.02c0.57,0.04,1.13,0.1,1.69,0.17
		c0.15,0.03,0.3,0.04,0.45,0.07c0.45,0.06,0.89,0.14,1.33,0.22c0.16,0.04,0.31,0.06,0.46,0.09c0.54,0.12,1.09,0.25,1.61,0.4
		c0.13,0.04,0.25,0.08,0.39,0.11c0.42,0.13,0.85,0.27,1.26,0.42c0.16,0.06,0.31,0.11,0.47,0.18c0.51,0.2,1.01,0.41,1.5,0.66
		c0.09,0.04,0.18,0.1,0.27,0.14c0.41,0.21,0.81,0.43,1.21,0.67c0.14,0.09,0.29,0.18,0.43,0.27c0.44,0.28,0.86,0.57,1.27,0.89
		c0.04,0.03,0.06,0.04,0.09,0.06c5.31,4.15,8.23,8.82,8.68,13.87c0.03,0.31,0.04,0.61,0.05,0.91c0,0.07,0.01,0.14,0.01,0.21
		c0,0.28-0.01,0.57-0.02,0.85v0.3c-0.02,0.31-0.05,0.61-0.08,0.92c-0.01,0.08-0.02,0.16-0.03,0.24c-0.04,0.33-0.09,0.66-0.15,0.99
		c-0.01,0.06-0.02,0.11-0.03,0.18c-0.06,0.35-0.14,0.71-0.23,1.07c0,0.03-0.01,0.06-0.02,0.09c-0.09,0.39-0.19,0.77-0.32,1.16
		c0,0,0,0,0,0.01c-1.37,4.54-4.37,9.44-9,14.62C75.48,71.14,57.45,72.24,57.32,72.25c-3.96,0-7.61-0.28-10.98-0.77
		c-0.62-0.09-1.23-0.19-1.83-0.3c-0.18-0.04-0.37-0.07-0.55-0.1c-0.56-0.11-1.11-0.22-1.65-0.33c-0.21-0.04-0.42-0.09-0.62-0.14
		c-0.53-0.11-1.04-0.25-1.56-0.37c-0.2-0.05-0.4-0.11-0.61-0.17C39,69.94,38.5,69.8,38,69.65c-0.18-0.05-0.35-0.11-0.53-0.17
		c-0.51-0.15-1.01-0.32-1.5-0.48c-0.12-0.04-0.24-0.08-0.35-0.12c-2.32-0.82-4.45-1.75-6.39-2.8C29.16,66.05,29.08,66,29,65.96
		c-0.4-0.22-0.81-0.46-1.2-0.68c-0.13-0.08-0.25-0.15-0.39-0.23c-0.37-0.22-0.73-0.45-1.08-0.68c-0.14-0.1-0.28-0.18-0.42-0.27
		c-0.34-0.23-0.68-0.46-1-0.69c-0.14-0.1-0.26-0.19-0.39-0.29c-0.32-0.24-0.65-0.48-0.96-0.72c-0.11-0.1-0.23-0.18-0.33-0.27
		c-0.32-0.26-0.64-0.52-0.94-0.78c-0.05-0.04-0.1-0.09-0.15-0.13c-1.03-0.89-1.96-1.82-2.82-2.76c-0.09-0.1-0.18-0.19-0.26-0.29
		c-0.22-0.25-0.42-0.49-0.63-0.75c-0.11-0.14-0.23-0.27-0.34-0.41c-0.18-0.24-0.36-0.47-0.54-0.7c-0.11-0.16-0.23-0.32-0.35-0.47
		c-0.16-0.23-0.32-0.46-0.47-0.68c-0.11-0.18-0.23-0.34-0.33-0.52c-0.15-0.22-0.29-0.44-0.42-0.66c-0.11-0.18-0.22-0.36-0.32-0.54
		c-0.12-0.22-0.25-0.43-0.37-0.64c-0.11-0.19-0.2-0.39-0.3-0.58c-0.11-0.2-0.22-0.4-0.32-0.61c-0.17-0.34-0.32-0.69-0.47-1.04
		c-0.08-0.19-0.16-0.38-0.23-0.57c-0.11-0.24-0.2-0.47-0.29-0.72c-0.06-0.17-0.12-0.34-0.18-0.51c-0.07-0.23-0.15-0.45-0.22-0.67
		c-0.05-0.18-0.11-0.35-0.15-0.52c-0.07-0.22-0.13-0.44-0.18-0.66c-0.04-0.17-0.08-0.33-0.12-0.5c-0.05-0.22-0.1-0.44-0.14-0.66
		c-0.04-0.16-0.06-0.32-0.09-0.47c-0.04-0.23-0.08-0.46-0.11-0.68c-0.03-0.15-0.04-0.29-0.06-0.44c-0.04-0.25-0.05-0.48-0.07-0.73
		c-0.01-0.11-0.03-0.24-0.04-0.35c-0.02-0.36-0.03-0.71-0.03-1.05c0-15.3,12.57-27.3,34.51-32.9c1.11-0.28,2.23-0.54,3.34-0.77
		c1.09-0.22,2.18-0.41,3.27-0.58c0.37-0.06,0.74-0.11,1.11-0.16c0.72-0.1,1.44-0.2,2.16-0.28c0.45-0.04,0.89-0.08,1.33-0.12
		c0.64-0.05,1.28-0.11,1.92-0.16c0.47-0.03,0.95-0.04,1.41-0.07c0.61-0.03,1.22-0.05,1.83-0.06c0.48-0.01,0.97-0.01,1.45-0.01
		c0.59,0.01,1.18,0.01,1.75,0.03c0.48,0.01,0.97,0.04,1.46,0.05c0.57,0.04,1.13,0.06,1.69,0.11c0.49,0.04,0.97,0.08,1.46,0.12
		c0.54,0.05,1.09,0.11,1.63,0.18c0.48,0.06,0.96,0.13,1.44,0.2c0.53,0.07,1.05,0.16,1.58,0.25c0.47,0.09,0.94,0.17,1.4,0.26
		c0.52,0.11,1.03,0.21,1.53,0.32C79,8.57,79.46,8.67,79.9,8.79c0.5,0.13,0.99,0.27,1.47,0.4c0.44,0.13,0.88,0.25,1.31,0.39
		c0.48,0.16,0.95,0.32,1.42,0.48c0.41,0.15,0.83,0.29,1.25,0.45c0.46,0.18,0.9,0.37,1.35,0.56c0.39,0.17,0.79,0.32,1.18,0.5
		c0.45,0.21,0.87,0.43,1.31,0.65c0.35,0.18,0.72,0.36,1.07,0.54c0.44,0.25,0.86,0.51,1.28,0.76c0.32,0.19,0.64,0.37,0.94,0.56
		c0.53,0.34,1.02,0.71,1.51,1.07c0.18,0.13,0.36,0.25,0.53,0.38c6.45,5,9.71,11.7,9.71,19.88c0,15.46-11.87,26.84-18.95,32.23
		c-0.08,0.06-0.17,0.12-0.25,0.18c-0.52,0.39-1.04,0.78-1.58,1.16c-0.23,0.17-0.47,0.32-0.7,0.49c-0.39,0.27-0.8,0.54-1.2,0.82
		c-0.25,0.17-0.52,0.33-0.78,0.5c-0.39,0.26-0.8,0.52-1.2,0.76c-0.25,0.16-0.51,0.31-0.76,0.47c-0.47,0.29-0.96,0.56-1.45,0.84
		c-0.18,0.1-0.35,0.2-0.53,0.31c-0.66,0.36-1.31,0.71-1.97,1.05c-0.22,0.11-0.45,0.22-0.67,0.33c-0.46,0.23-0.91,0.46-1.38,0.68
		c-0.26,0.12-0.53,0.25-0.79,0.37c-0.43,0.2-0.86,0.39-1.29,0.58c-0.26,0.11-0.53,0.23-0.79,0.34c-0.47,0.2-0.94,0.39-1.41,0.58
		c-0.21,0.09-0.43,0.18-0.64,0.25c-0.68,0.26-1.34,0.51-2.02,0.74c-0.16,0.06-0.32,0.11-0.47,0.16c-0.53,0.18-1.04,0.35-1.56,0.51
		c-0.25,0.08-0.48,0.15-0.73,0.22c-0.44,0.13-0.89,0.25-1.33,0.37c-0.25,0.07-0.49,0.13-0.74,0.19c-0.46,0.12-0.91,0.23-1.36,0.32
		c-0.21,0.05-0.43,0.11-0.64,0.15c-0.65,0.13-1.3,0.26-1.93,0.37h-0.04c-0.62,0.11-1.24,0.19-1.85,0.26
		c-0.18,0.03-0.37,0.04-0.55,0.06c-0.45,0.05-0.89,0.09-1.34,0.12c-0.18,0.01-0.36,0.03-0.54,0.04c-0.6,0.03-1.18,0.05-1.75,0.05
		c-20.12,0-35.36-8.86-35.51-8.95l-0.16,0.25l-0.74,1.25c0.01,0.01,0.07,0.04,0.18,0.1c0.09,0.05,0.2,0.11,0.34,0.19
		c2.87,1.56,17.35,8.9,35.84,8.91h0.04c0.61,0,1.24-0.03,1.87-0.05c0.18-0.02,0.36-0.03,0.54-0.04c0.48-0.04,0.96-0.08,1.44-0.13
		c0.19-0.02,0.38-0.04,0.56-0.05c0.65-0.08,1.3-0.17,1.96-0.27c0,0,0,0,0.01,0c0,0,0.01-0.01,0.02-0.01c0.69-0.11,1.4-0.25,2.1-0.39
		c0.25-0.05,0.48-0.11,0.73-0.17c0.47-0.11,0.95-0.22,1.43-0.33c0.29-0.08,0.58-0.16,0.86-0.24c0.44-0.11,0.88-0.24,1.32-0.37
		c0.3-0.09,0.61-0.18,0.92-0.28c0.42-0.14,0.85-0.27,1.28-0.42c0.31-0.11,0.62-0.21,0.94-0.32c0.43-0.15,0.85-0.31,1.27-0.47
		c0.32-0.12,0.64-0.25,0.96-0.37c0.42-0.17,0.85-0.34,1.27-0.53c0.32-0.13,0.63-0.26,0.95-0.4c0.43-0.18,0.86-0.39,1.3-0.59
		c0.3-0.14,0.61-0.27,0.9-0.42c0.46-0.22,0.9-0.45,1.36-0.68c0.28-0.14,0.55-0.27,0.83-0.42c0.52-0.27,1.04-0.55,1.54-0.83
		c0.21-0.11,0.42-0.23,0.62-0.34c0.72-0.4,1.43-0.82,2.14-1.25c0.14-0.1,0.28-0.18,0.43-0.28c0.56-0.34,1.11-0.7,1.67-1.06
		c0.25-0.17,0.5-0.34,0.75-0.51c0.45-0.3,0.89-0.6,1.32-0.91c0.28-0.19,0.54-0.39,0.82-0.6c0.39-0.29,0.8-0.59,1.19-0.89
		c0.28-0.22,0.55-0.44,0.83-0.66c0.38-0.3,0.75-0.6,1.12-0.91c0.27-0.23,0.54-0.46,0.82-0.68c0.37-0.32,0.73-0.63,1.09-0.95
		c0.26-0.24,0.53-0.47,0.79-0.72c0.35-0.32,0.69-0.66,1.04-0.98c0.25-0.25,0.5-0.49,0.75-0.74c0.35-0.35,0.68-0.7,1.03-1.05
		c0.23-0.25,0.46-0.48,0.68-0.73c0.35-0.39,0.69-0.78,1.04-1.17c0.19-0.23,0.39-0.45,0.58-0.68c0.42-0.49,0.82-1,1.21-1.5
		c0.11-0.13,0.21-0.26,0.32-0.39c0.48-0.63,0.96-1.28,1.41-1.94c0.12-0.19,0.25-0.39,0.37-0.57c0.32-0.47,0.63-0.95,0.93-1.43
		c0.16-0.25,0.31-0.52,0.46-0.77c0.25-0.43,0.5-0.85,0.73-1.28c0.16-0.28,0.3-0.57,0.45-0.85c0.21-0.41,0.42-0.82,0.61-1.25
		c0.14-0.3,0.28-0.6,0.41-0.89c0.18-0.41,0.36-0.83,0.53-1.25c0.12-0.31,0.24-0.62,0.35-0.93c0.16-0.42,0.3-0.84,0.44-1.26
		c0.11-0.32,0.2-0.62,0.3-0.94c0.13-0.43,0.25-0.87,0.35-1.3c0.08-0.32,0.16-0.62,0.23-0.94c0.11-0.46,0.19-0.91,0.27-1.38
		c0.05-0.3,0.11-0.59,0.16-0.89c0.08-0.5,0.13-1.02,0.18-1.53c0.03-0.25,0.06-0.51,0.08-0.76c0.06-0.77,0.09-1.54,0.09-2.33
		c0-8.63-3.59-15.99-10.39-21.27c-0.59-0.46-1.21-0.89-1.84-1.32c-0.07-0.05-0.14-0.1-0.21-0.15c-0.61-0.39-1.24-0.77-1.89-1.14
		c-0.11-0.06-0.21-0.12-0.32-0.18c-0.64-0.36-1.3-0.7-1.97-1.03c-0.11-0.05-0.24-0.11-0.35-0.17c-0.68-0.32-1.39-0.64-2.11-0.93
		c-0.11-0.04-0.21-0.08-0.32-0.12c-0.75-0.3-1.51-0.59-2.3-0.85c-0.04-0.02-0.08-0.03-0.12-0.04c-0.78-0.26-1.59-0.51-2.4-0.74
		c-0.08-0.03-0.15-0.04-0.22-0.07c-0.81-0.22-1.62-0.43-2.46-0.61c-0.12-0.04-0.25-0.06-0.38-0.09c-0.81-0.18-1.63-0.35-2.46-0.5
		c-0.15-0.03-0.3-0.04-0.44-0.07c-0.83-0.15-1.68-0.27-2.54-0.39c-0.13-0.02-0.26-0.04-0.4-0.05C72,5.59,71.11,5.5,70.22,5.43
		c-0.08-0.01-0.16-0.02-0.24-0.02c-0.91-0.08-1.83-0.13-2.76-0.17c-0.04,0-0.09-0.01-0.13-0.01c-0.93-0.04-1.86-0.04-2.8-0.04H63.9
		C63,5.2,62.09,5.23,61.18,5.26c-0.15,0.01-0.31,0.02-0.47,0.03c-0.9,0.04-1.81,0.11-2.72,0.18c-0.15,0.02-0.3,0.04-0.45,0.04
		c-0.93,0.09-1.85,0.19-2.78,0.32c-0.11,0.02-0.22,0.04-0.32,0.04c-0.97,0.14-1.95,0.29-2.92,0.47h-0.01
		c-0.76,0.13-1.53,0.29-2.3,0.45c-0.19,0.04-0.39,0.09-0.58,0.13c-0.75,0.17-1.52,0.34-2.26,0.54h-0.03
		c-22.77,5.83-35.82,18.44-35.82,34.6c0,7.5,4.15,15.4,11.1,21.14c5.97,4.93,17.01,10.8,35.74,10.8h0.01c0.04,0,0.15-0.01,0.3-0.02
		h0.05c0.05-0.01,0.12-0.01,0.19-0.02c0.05-0.01,0.11-0.01,0.16-0.02c0.07,0,0.15-0.01,0.22-0.02c0.08-0.01,0.15-0.02,0.24-0.03
		c0.08-0.01,0.17-0.02,0.25-0.03c0.1-0.01,0.19-0.02,0.3-0.04c0.09-0.01,0.18-0.02,0.28-0.04c0.11-0.01,0.25-0.03,0.37-0.04
		c0.11-0.02,0.2-0.03,0.31-0.04c0.14-0.02,0.3-0.04,0.46-0.07c0.1-0.01,0.19-0.03,0.3-0.04c0.24-0.04,0.49-0.08,0.75-0.12
		c0.03,0,0.06-0.01,0.09-0.02c0.34-0.05,0.7-0.12,1.07-0.19c0.11-0.03,0.21-0.04,0.32-0.07c0.32-0.06,0.67-0.13,1.02-0.21
		c0.07-0.02,0.14-0.04,0.21-0.05c0.41-0.1,0.84-0.19,1.28-0.31c0.11-0.03,0.22-0.06,0.33-0.09c0.37-0.1,0.74-0.19,1.11-0.3
		c0.11-0.04,0.22-0.06,0.33-0.1c0.47-0.14,0.95-0.28,1.43-0.44c0.11-0.04,0.2-0.07,0.31-0.1c0.4-0.13,0.82-0.28,1.23-0.42
		c0.14-0.05,0.27-0.1,0.41-0.15c0.51-0.18,1.03-0.38,1.55-0.59c0.05-0.03,0.11-0.04,0.16-0.07c0.47-0.19,0.95-0.39,1.43-0.61
		c0.15-0.07,0.3-0.13,0.44-0.2c0.48-0.22,0.97-0.45,1.47-0.69c0.05-0.03,0.11-0.05,0.18-0.08c0.54-0.27,1.07-0.56,1.61-0.85
		c0.14-0.08,0.28-0.17,0.42-0.25c0.45-0.25,0.89-0.52,1.34-0.79c0.11-0.07,0.23-0.13,0.33-0.2c0.54-0.33,1.08-0.68,1.61-1.05
		c0.12-0.09,0.25-0.18,0.37-0.26c0.44-0.31,0.87-0.62,1.3-0.95c0.13-0.11,0.26-0.21,0.4-0.32c0.52-0.4,1.04-0.83,1.55-1.28
		c0.09-0.07,0.17-0.15,0.25-0.22c0.44-0.39,0.87-0.79,1.3-1.2c0.14-0.13,0.27-0.26,0.4-0.4c0.5-0.5,1-1.01,1.47-1.54
		c7.41-8.28,10.86-15.98,10.25-22.86c-0.5-5.56-3.64-10.64-9.35-15.1c-0.48-0.38-0.98-0.73-1.5-1.05c-0.15-0.1-0.31-0.18-0.46-0.28
		c-0.39-0.23-0.78-0.45-1.18-0.66c-0.16-0.08-0.32-0.17-0.47-0.25c-1.1-0.53-2.24-0.97-3.41-1.32c-0.18-0.05-0.36-0.1-0.54-0.15
		c-0.44-0.12-0.88-0.23-1.32-0.33c-0.18-0.04-0.36-0.08-0.54-0.11c-1.21-0.25-2.46-0.42-3.71-0.52c-0.18-0.01-0.38-0.02-0.56-0.04
		c-0.47-0.03-0.93-0.04-1.39-0.05c-0.19-0.01-0.38-0.01-0.56-0.01c-1.26-0.01-2.54,0.05-3.79,0.18c-0.18,0.02-0.37,0.04-0.55,0.06
		c-0.47,0.05-0.93,0.11-1.39,0.18c-0.18,0.03-0.37,0.05-0.54,0.08c-3.36,0.54-6.57,1.47-9.34,2.67c-8.03,3.47-13.15,9.06-13.7,14.99
		c-0.43,4.61-0.21,8.37-0.02,11.69c0.39,6.9,0.61,10.7-5.61,13.88c-3.92,2.01-8.34,1.83-12.1-0.47c-2.63-1.61-4.68-4.09-5.91-6.98
		c-0.02-0.04-0.04-0.09-0.06-0.14c-0.15-0.36-0.28-0.72-0.4-1.09c-0.01-0.03-0.02-0.05-0.03-0.07c-0.13-0.4-0.25-0.81-0.35-1.22
		c-0.01-0.04-0.02-0.07-0.03-0.1c-0.08-0.36-0.15-0.71-0.21-1.07c-0.02-0.11-0.04-0.23-0.05-0.34c-0.04-0.3-0.08-0.6-0.11-0.89
		c-0.01-0.11-0.02-0.24-0.03-0.35c-0.04-0.4-0.05-0.82-0.05-1.22c0-10.39,11.48-24.06,30.7-28.94c2.31-0.59,4.54-1.08,6.69-1.49
		c0.16-0.04,0.32-0.07,0.49-0.11c1.08-0.2,2.14-0.38,3.18-0.54c0.35-0.05,0.68-0.1,1.03-0.14c0.69-0.1,1.39-0.19,2.07-0.27
		c0.39-0.04,0.79-0.08,1.18-0.11c0.61-0.06,1.22-0.11,1.82-0.16c0.4-0.04,0.81-0.05,1.2-0.08c0.58-0.04,1.14-0.05,1.7-0.07
		c0.39-0.01,0.78-0.02,1.17-0.03c0.56,0,1.11,0,1.66,0.01c0.37,0.01,0.73,0.02,1.09,0.03c0.58,0.03,1.15,0.06,1.71,0.11
		c0.31,0.03,0.62,0.04,0.93,0.07c0.78,0.07,1.55,0.17,2.32,0.27c0.13,0.02,0.27,0.04,0.4,0.06c0.75,0.11,1.47,0.25,2.19,0.4
		c0.29,0.06,0.57,0.13,0.85,0.2c0.49,0.11,0.99,0.24,1.47,0.37c0.32,0.09,0.62,0.18,0.93,0.28c0.44,0.13,0.87,0.27,1.29,0.42
		c0.32,0.11,0.63,0.23,0.94,0.35c0.4,0.16,0.8,0.32,1.19,0.49c0.31,0.13,0.61,0.26,0.9,0.4c0.39,0.18,0.77,0.39,1.15,0.58
		c0.28,0.15,0.56,0.29,0.83,0.45c0.39,0.23,0.78,0.47,1.17,0.7c0.25,0.16,0.49,0.3,0.73,0.46c0.5,0.33,1,0.69,1.48,1.06
		c0.1,0.08,0.19,0.14,0.28,0.21c4.38,3.4,6.76,9.72,6.37,16.88c-0.61,11.1-7.3,21.39-18.38,28.23c-0.82,0.5-1.63,0.97-2.45,1.44
		c-0.23,0.13-0.46,0.25-0.69,0.38c-0.59,0.32-1.18,0.64-1.78,0.95c-0.27,0.13-0.54,0.27-0.81,0.4c-0.6,0.29-1.19,0.58-1.79,0.85
		c-0.24,0.11-0.47,0.22-0.71,0.32c-1.66,0.73-3.33,1.39-4.99,1.97c-0.25,0.09-0.5,0.17-0.75,0.25c-0.59,0.2-1.18,0.39-1.77,0.56
		c-0.29,0.09-0.57,0.17-0.86,0.25c-0.59,0.17-1.18,0.32-1.77,0.47c-0.25,0.06-0.51,0.13-0.76,0.18c-1.74,0.41-3.47,0.73-5.19,0.97
		c-0.25,0.04-0.51,0.07-0.77,0.1c-0.69,0.09-1.38,0.17-2.07,0.22c-0.23,0.03-0.46,0.04-0.68,0.06c-0.89,0.07-1.76,0.11-2.65,0.14
		h-0.49c-0.73,0.02-1.46,0.01-2.18-0.01c-0.26-0.01-0.52-0.02-0.78-0.03c-0.73-0.03-1.45-0.07-2.17-0.13
		c-0.16-0.01-0.32-0.02-0.48-0.04c-0.87-0.08-1.72-0.18-2.58-0.31c-0.22-0.03-0.44-0.07-0.66-0.11c-0.67-0.11-1.32-0.22-1.98-0.35
		c-0.24-0.04-0.48-0.1-0.73-0.15c-0.84-0.18-1.68-0.38-2.52-0.6c-0.83-0.23-1.66-0.48-2.47-0.75c-0.24-0.08-0.47-0.16-0.71-0.24
		c-0.62-0.22-1.25-0.45-1.87-0.69c-0.21-0.08-0.42-0.16-0.62-0.25c-0.8-0.32-1.58-0.67-2.36-1.04c-0.14-0.07-0.29-0.14-0.43-0.21
		c-0.64-0.32-1.28-0.64-1.91-0.98c-0.23-0.12-0.46-0.25-0.68-0.38c-0.63-0.35-1.25-0.72-1.87-1.11c-0.13-0.08-0.27-0.16-0.41-0.25
		c-0.73-0.47-1.46-0.96-2.17-1.47c-0.18-0.13-0.37-0.27-0.54-0.4c-0.55-0.4-1.1-0.82-1.63-1.25c-0.2-0.17-0.4-0.32-0.6-0.48
		c-0.69-0.58-1.38-1.16-2.04-1.78C9.71,56.82,6.61,48.9,7.56,40.23c1.17-10.61,8.53-21.32,18.76-27.29
		c1.01-0.59,2.02-1.14,3.03-1.68c0.14-0.08,0.29-0.16,0.44-0.24c0.96-0.51,1.92-0.99,2.88-1.46c0.18-0.09,0.37-0.18,0.54-0.26
		c0.96-0.47,1.93-0.9,2.89-1.32c0.15-0.07,0.3-0.12,0.45-0.19c1.01-0.43,2.02-0.84,3.03-1.23c1.02-0.39,2.03-0.74,3.04-1.08
		c0.15-0.05,0.3-0.11,0.45-0.15c0.96-0.32,1.93-0.61,2.9-0.89c0.18-0.05,0.36-0.1,0.54-0.15c0.97-0.26,1.93-0.52,2.9-0.74
		c0.15-0.04,0.3-0.07,0.45-0.11c1.01-0.23,2.02-0.44,3.04-0.62h0.01c0.68-0.12,1.35-0.23,2.03-0.33c0.21-0.03,0.43-0.05,0.64-0.09
		c0.47-0.06,0.93-0.12,1.39-0.18c0.25-0.03,0.51-0.05,0.76-0.08c0.43-0.04,0.85-0.09,1.28-0.13c0.26-0.02,0.53-0.04,0.8-0.06
		c0.41-0.04,0.82-0.06,1.25-0.09c0.26-0.01,0.54-0.03,0.81-0.04c0.41-0.02,0.83-0.04,1.25-0.04c0.26-0.01,0.53-0.02,0.79-0.02
		c0.44-0.01,0.87-0.01,1.31-0.01h0.72c0.5,0.01,0.99,0.03,1.48,0.04c0.18,0.01,0.37,0.02,0.54,0.02c1.37,0.07,2.73,0.18,4.1,0.32
		c0.17,0.02,0.34,0.04,0.51,0.06c0.51,0.05,1.01,0.11,1.52,0.18c0.22,0.04,0.45,0.07,0.67,0.11c0.46,0.06,0.91,0.13,1.37,0.21
		c0.24,0.04,0.48,0.09,0.72,0.13c0.45,0.08,0.89,0.17,1.32,0.25c0.25,0.04,0.48,0.1,0.73,0.15c0.45,0.1,0.89,0.19,1.33,0.3
		c0.24,0.05,0.47,0.11,0.7,0.17c0.46,0.11,0.94,0.23,1.4,0.35c0.2,0.06,0.41,0.11,0.62,0.17c0.54,0.15,1.07,0.31,1.61,0.47
		c0.13,0.04,0.27,0.08,0.41,0.12c0.68,0.21,1.37,0.43,2.05,0.66c7.99,2.69,13.73,7.5,17.06,14.28
		C108.66,29.18,107.61,40.31,105.09,47.59z"/>
	<path class="st34" d="M13.61,74.53L13.61,74.53c0.22,0.19,0.44,0.39,0.67,0.57c0.08,0.06,0.15,0.13,0.23,0.19l0,0c0,0,0,0,0,0l0,0
		c0.08,0.07,0.17,0.13,0.26,0.2c0.6,0.47,1.21,0.91,1.83,1.34c0,0,0,0,0,0c0.06,0.04,0.13,0.08,0.19,0.13
		c0.92,0.63,1.86,1.22,2.83,1.77c0,0,0,0,0,0c0.24,0.14,0.49,0.28,0.74,0.41v0c0.26,0.14,0.53,0.28,0.79,0.42c0,0,0,0,0,0
		c0.25,0.13,0.5,0.25,0.75,0.37c0,0,0,0,0,0c0.32,0.16,0.64,0.31,0.96,0.45c0.2,0.09,0.41,0.19,0.62,0.28c0,0,0,0,0.01,0
		c0.35,0.16,0.71,0.31,1.07,0.46c0.18,0.07,0.37,0.15,0.55,0.22c0,0,0,0,0,0c0.27,0.11,0.54,0.22,0.81,0.32c0,0,0,0,0,0
		c0.51,0.19,1.02,0.37,1.54,0.55c0,0,0,0,0,0c0.27,0.09,0.54,0.17,0.81,0.26c0,0,0,0,0.01,0c0.28,0.09,0.56,0.18,0.84,0.26
		c0,0,0,0,0,0c0.35,0.1,0.7,0.2,1.05,0.3c0.21,0.06,0.42,0.12,0.63,0.17c0,0,0,0,0,0c0.85,0.22,1.7,0.42,2.55,0.61c0,0,0,0,0,0
		c0.28,0.06,0.57,0.12,0.85,0.17c0,0,0,0,0,0c0.28,0.06,0.57,0.11,0.85,0.16c0,0,0,0,0,0c0.3,0.05,0.59,0.1,0.89,0.15c0,0,0,0,0,0
		c0.27,0.05,0.55,0.09,0.82,0.13c0,0,0,0,0,0c0.33,0.05,0.67,0.09,1,0.14c0.01,0,0.01,0,0.02,0c0.23,0.03,0.47,0.07,0.7,0.09
		c0,0,0,0,0,0c0.19,0.02,0.38,0.04,0.58,0.06c1.19,0.14,2.39,0.24,3.58,0.31c0,0,0,0,0.01,0c0.24,0.01,0.47,0.03,0.71,0.04
		c0.07,0,0.14,0.01,0.22,0.01c-18.42-1.96-28.93-11.6-28.93-11.6l0.74-1.25l0.15-0.26c0.08,0.05,4.51,2.62,11.7,4.99
		C20.75,73.8,7.53,65.52,6.52,50.24l-0.01-0.05c-0.05-0.18-0.09-0.36-0.13-0.53c-0.25,0.74-1.87,5.81-1.49,12.01
		c0.05,0.79,0.21,1.57,0.45,2.34c1,2.14,2.25,4.15,3.73,5.95C10.48,71.64,12,73.15,13.61,74.53z"/>
	<path class="st34" d="M16.55,63.14c0.66,0.62,1.35,1.2,2.03,1.77c0.2,0.16,0.4,0.32,0.6,0.48c0.54,0.43,1.08,0.85,1.63,1.26
		c0.18,0.13,0.36,0.27,0.55,0.4c0.71,0.51,1.44,1,2.17,1.47c0.14,0.09,0.28,0.17,0.41,0.25c0.61,0.38,1.24,0.75,1.86,1.1
		c0.22,0.13,0.45,0.25,0.68,0.37c0.63,0.34,1.27,0.67,1.91,0.98c0.14,0.07,0.29,0.15,0.43,0.21c0.78,0.37,1.57,0.71,2.36,1.04
		c0.2,0.08,0.41,0.16,0.62,0.24c0.55,0.22,1.11,0.42,1.67,0.62c-0.36-0.21-18.75-11.06-21.97-22c-1.28-4.37-1.94-10.66,0.14-17.24
		c3.49-11.91,15-21.19,32.82-26.16c-5.08,0.76-15.12,3.61-27.53,14.14C6.21,31.2,5.75,46.46,12.06,58.01
		C13.31,59.82,14.81,61.53,16.55,63.14z"/>
	<path class="st34" d="M15.28,36.38c-3.2,14.73,5.61,23.65,6.74,24.72c0.04,0.04,0.08,0.07,0.12,0.11
		c-3.44-3.86-4.66-8.12-4.52-12.3c-0.1-0.79-0.16-1.59-0.16-2.4c0-11.06,11.98-25.54,32.02-30.64
		C41.58,15.16,18.69,20.66,15.28,36.38z"/>
	<path class="st34" d="M22.39,55.82c0.02-1.26,0.73-3.48,3.53-7.3c5.49-7.47,18.3-13.96,18.3-13.96c-0.12,0.67-0.22,1.32-0.32,1.95
		l0.17-0.15c0.03-0.48,0.07-0.96,0.11-1.45c0.03-0.35,0.09-0.69,0.15-1.04c0.01-0.07,0.03-0.14,0.04-0.21
		c0.06-0.27,0.12-0.54,0.19-0.81c0.02-0.08,0.05-0.17,0.07-0.25c0.09-0.29,0.18-0.58,0.29-0.86c0.02-0.05,0.03-0.09,0.05-0.14
		c0.13-0.32,0.27-0.65,0.42-0.97c0.04-0.09,0.1-0.19,0.14-0.28c0.11-0.22,0.23-0.44,0.35-0.66c0.07-0.13,0.15-0.25,0.22-0.38
		c0.11-0.18,0.23-0.37,0.35-0.55c0.09-0.13,0.17-0.27,0.27-0.4c0.14-0.21,0.3-0.41,0.46-0.61c0.18-0.23,0.36-0.46,0.56-0.69
		c0.1-0.12,0.2-0.24,0.31-0.36c0.16-0.18,0.32-0.35,0.49-0.52c0.09-0.1,0.18-0.19,0.28-0.29c0.18-0.19,0.37-0.37,0.56-0.55
		c0.04-0.04,0.09-0.08,0.13-0.12c0.7-0.65,1.47-1.28,2.3-1.88c0.06-0.04,0.12-0.09,0.18-0.13c0.27-0.19,0.54-0.38,0.82-0.57
		c0.01-0.01,0.02-0.01,0.03-0.02c-2.23-0.17-9.41,0.07-19.37,8.32C21.36,40.98,22.39,55.82,22.39,55.82z"/>
	<path class="st34" d="M87.86,37.8c-3.73-2.84-1.94-4.66-8.66-7.95C72.47,26.57,58.74,27.8,54.8,35c-1.88,3.45-3.7,6.4-5.08,8.56
		c3.16-3.66,9.43-8.24,21.09-8.24c12.68,0,19.3,4.89,22.37,8.28c0.27-0.09,0.42-0.14,0.42-0.14S91.59,40.64,87.86,37.8z"/>
	<g>
		
			<ellipse transform="matrix(0.3852 -0.9228 0.9228 0.3852 -34.3068 145.7953)" class="st13" cx="92.27" cy="98.65" rx="4.8" ry="2.48"/>
		<path class="st4" d="M91.48,98.57c-0.19,0.44-0.32,0.89-0.39,1.31c-0.08,0.43,0.16,0.85,0.56,1.02l2.14,0.89
			c0.43-0.46,0.82-1.07,1.12-1.79c0.3-0.72,0.46-1.43,0.48-2.06l-2.14-0.89c-0.4-0.17-0.87-0.04-1.12,0.32
			C91.89,97.72,91.67,98.13,91.48,98.57z"/>
		
			<ellipse transform="matrix(0.3852 -0.9228 0.9228 0.3852 -34.0922 151.3259)" class="st32" cx="96.53" cy="101.25" rx="9.24" ry="4.76"/>
	</g>
	<path class="st4" d="M87.92,91.66c-1.97,1.8-3.74,3.33-5.15,4.51l-0.27-0.16c0,0-0.59-0.98-0.39-1.75c0.2-0.77,0.4-0.75,0.06-1.05
		c-0.29-0.25-0.82-0.9-0.82-0.9l1.45,0.06c0,0,0.72-1.32,2.17-1.39C85.68,90.95,86.88,91.3,87.92,91.66z"/>
	<g>
		
			<ellipse transform="matrix(0.3852 -0.9228 0.9228 0.3852 -12.3087 149.3966)" class="st13" cx="105.98" cy="83.94" rx="4.8" ry="2.48"/>
		<path class="st4" d="M105.18,83.86c-0.19,0.44-0.32,0.89-0.39,1.31c-0.08,0.43,0.16,0.85,0.56,1.02l2.14,0.89
			c0.43-0.46,0.82-1.07,1.12-1.79c0.3-0.72,0.46-1.43,0.48-2.06l-2.14-0.89c-0.4-0.17-0.87-0.04-1.12,0.32
			C105.59,83.01,105.37,83.42,105.18,83.86z"/>
		
			<ellipse transform="matrix(0.3852 -0.9228 0.9228 0.3852 -12.094 154.9272)" class="st32" cx="110.23" cy="86.54" rx="9.24" ry="4.76"/>
	</g>
	<path class="st4" d="M102.06,77.1c-1.48,1.75-2.97,3.42-4.47,5.01l-1.39-0.82c0,0-0.59-0.97-0.39-1.75
		c0.19-0.77,0.4-0.75,0.05-1.05c-0.28-0.25-0.81-0.89-0.81-0.89l1.44,0.06c0,0,0.73-1.33,2.18-1.39
		C99.49,76.24,100.94,76.7,102.06,77.1z"/>
</g>
</svg>
