<svg width="620" height="1074" viewBox="0 0 620 1074" fill="none" xmlns="http://www.w3.org/2000/svg">
<path d="M175.2 331.19C175.41 331.33 175.62 331.47 175.83 331.61C190.64 341.47 206.18 346.08 216.64 348.21C216.88 348.26 217.11 348.3 217.33 348.34C217.71 348.54 218.06 348.8 218.35 349.1C219.32 350.08 219.8 351.5 219.51 352.94C219.05 355.25 216.8 356.75 214.49 356.29L212.8 355.95C202.65 353.82 187.55 349.28 173.08 339.78C172.59 339.45 172.13 339.14 171.65 338.81C169.71 337.48 169.22 334.82 170.56 332.88C171.61 331.35 173.49 330.72 175.19 331.19H175.2Z" fill="#9FA7C4"/>
<path d="M177.27 322.94C177.45 323.11 177.65 323.28 177.87 323.43L177.96 323.49C178.39 323.77 178.81 324.06 179.21 324.31C193.91 333.89 209.16 338.36 219.39 340.42L219.65 340.47C220.13 340.57 220.6 340.66 221.06 340.74C221.17 340.76 221.27 340.77 221.38 340.78C221.62 340.94 221.85 341.12 222.04 341.32C222.99 342.28 223.47 343.67 223.22 345.09C222.8 347.41 220.58 348.95 218.26 348.53C217.96 348.48 217.66 348.41 217.34 348.36C217.12 348.32 216.89 348.27 216.65 348.23C206.19 346.1 190.65 341.49 175.84 331.63C175.62 331.49 175.42 331.36 175.21 331.21C174.97 331.04 174.73 330.88 174.48 330.71C172.54 329.38 172.04 326.73 173.37 324.78C174.28 323.46 175.8 322.8 177.28 322.95L177.27 322.94Z" fill="#9FA7C4"/>
<path d="M182.62 316.34L182.72 316.4C183.1 316.65 183.48 316.91 183.85 317.15C197.43 326 211.58 330.14 221.06 332.05L221.33 332.1C221.72 332.18 222.1 332.26 222.47 332.32C223.38 332.47 224.18 332.91 224.78 333.52C225.72 334.46 226.2 335.82 225.96 337.23C225.59 339.44 223.57 340.98 221.38 340.76C221.27 340.76 221.17 340.74 221.06 340.72C220.6 340.64 220.13 340.55 219.65 340.45L219.39 340.4C209.17 338.34 193.91 333.87 179.21 324.29C178.81 324.03 178.39 323.75 177.96 323.47L177.87 323.41C177.65 323.26 177.46 323.1 177.27 322.92C175.82 321.51 175.53 319.23 176.7 317.49C178.02 315.53 180.67 315.01 182.62 316.32V316.34Z" fill="#9FA7C4"/>
<path d="M185.98 318.51C181.92 330.23 180.4 338.39 180.05 343.97C178.45 343.1 176.86 342.17 175.27 341.17C174.54 340.73 173.81 340.27 173.09 339.79C172.6 339.46 172.13 339.15 171.66 338.82C169.72 337.49 169.23 334.84 170.57 332.89C171.62 331.36 173.5 330.74 175.2 331.2C174.96 331.03 174.72 330.87 174.47 330.7C172.52 329.37 172.02 326.72 173.36 324.77C174.27 323.45 175.78 322.79 177.27 322.94C175.82 321.53 175.53 319.25 176.7 317.51C177.53 316.28 178.89 315.61 180.26 315.62C181.08 315.62 181.89 315.85 182.62 316.34L182.71 316.4C183.09 316.66 183.47 316.91 183.84 317.15C184.55 317.62 185.27 318.07 185.98 318.51V318.51Z" fill="#848BA3"/>
<path d="M225.95 337.24C225.65 339.08 224.19 340.45 222.44 340.73C222.34 340.97 222.24 341.21 222.15 341.44C223.03 342.39 223.46 343.72 223.21 345.08C222.81 347.31 220.74 348.82 218.52 348.56C218.44 348.71 218.36 348.87 218.27 349.03C218.3 349.06 218.32 349.08 218.35 349.11C219.32 350.08 219.8 351.5 219.51 352.95C219.05 355.25 216.83 356.75 214.53 356.3H214.5L212.81 355.96C209 355.16 204.48 354.02 199.56 352.4C199.27 350.61 198.93 349.49 198.93 349.49C198.93 349.49 207.52 343.8 214.97 330.65C217.15 331.22 219.19 331.68 221.05 332.05L221.32 332.11C221.71 332.19 222.09 332.26 222.46 332.33C223.37 332.48 224.17 332.91 224.77 333.52C224.84 333.59 224.91 333.66 224.97 333.74C225.78 334.67 226.18 335.93 225.95 337.24V337.24Z" fill="#848BA3"/>
<path d="M215.33 356.88C215.02 356.88 214.71 356.85 214.4 356.79L212.72 356.45C202.54 354.31 187.36 349.76 172.82 340.2L172.29 339.85C171.98 339.64 171.68 339.44 171.38 339.23C170.33 338.51 169.63 337.42 169.4 336.17C169.17 334.92 169.44 333.65 170.16 332.6C171.3 330.94 173.38 330.18 175.33 330.71L175.48 330.78C175.69 330.92 175.89 331.06 176.1 331.19C190.86 341.02 206.35 345.6 216.74 347.73L217.56 347.91C217.98 348.13 218.37 348.42 218.7 348.76C219.82 349.89 220.31 351.5 220 353.05C219.55 355.32 217.55 356.89 215.33 356.89V356.88ZM174.08 331.54C172.86 331.54 171.69 332.13 170.98 333.17C170.41 334 170.19 335 170.38 335.99C170.56 336.98 171.12 337.84 171.95 338.41C172.25 338.62 172.55 338.82 172.85 339.02L173.37 339.37C187.77 348.83 202.83 353.35 212.91 355.47L214.59 355.8C216.63 356.21 218.61 354.88 219.02 352.84C219.27 351.61 218.88 350.34 217.99 349.45C217.74 349.2 217.46 348.99 217.15 348.82L216.54 348.7C206.05 346.56 190.43 341.93 175.55 332.02C175.36 331.9 175.18 331.78 174.99 331.65C174.69 331.57 174.38 331.54 174.08 331.54V331.54Z" fill="#676D80"/>
<path d="M219.01 349.09C218.73 349.09 218.45 349.07 218.17 349.01C218 348.98 217.83 348.95 217.65 348.91L216.55 348.7C206.06 346.56 190.44 341.93 175.56 332.02C175.35 331.89 175.14 331.75 174.93 331.6L174.19 331.1C173.14 330.38 172.43 329.3 172.2 328.05C171.97 326.8 172.23 325.53 172.95 324.48C173.94 323.05 175.62 322.26 177.33 322.43L177.5 322.45L177.62 322.57C177.78 322.72 177.96 322.87 178.16 323.01L178.7 323.38C178.96 323.56 179.22 323.73 179.48 323.89C194.13 333.44 209.32 337.88 219.49 339.93L219.75 339.98C220.23 340.08 220.69 340.17 221.14 340.24C221.23 340.25 221.32 340.26 221.41 340.27H221.55L221.66 340.35C221.94 340.54 222.19 340.74 222.4 340.96C223.5 342.06 223.99 343.64 223.72 345.17C223.3 347.47 221.28 349.09 219.02 349.09H219.01ZM176.86 323.41C175.64 323.41 174.48 324.02 173.77 325.05C173.2 325.88 172.99 326.88 173.18 327.87C173.37 328.86 173.92 329.71 174.75 330.28L175.48 330.78C175.69 330.92 175.89 331.05 176.1 331.19C190.86 341.02 206.35 345.6 216.74 347.73L217.83 347.94C218 347.97 218.17 348.01 218.33 348.03C220.38 348.4 222.34 347.03 222.71 344.99C222.93 343.78 222.54 342.54 221.67 341.66C221.53 341.52 221.37 341.38 221.19 341.25C221.12 341.25 221.04 341.23 220.97 341.22C220.5 341.14 220.03 341.05 219.54 340.95L219.28 340.9C209.03 338.84 193.71 334.35 178.93 324.72C178.68 324.56 178.41 324.38 178.14 324.2L177.57 323.81C177.4 323.69 177.22 323.55 177.06 323.41C176.99 323.41 176.93 323.41 176.86 323.41V323.41Z" fill="#676D80"/>
<path d="M221.77 341.29C221.62 341.29 221.47 341.29 221.32 341.27C221.21 341.27 221.09 341.25 220.97 341.23C220.5 341.15 220.03 341.06 219.54 340.96L219.28 340.91C209.03 338.85 193.71 334.36 178.93 324.73C178.68 324.57 178.41 324.39 178.14 324.21L177.57 323.82C177.35 323.67 177.13 323.48 176.93 323.3C175.28 321.69 175.01 319.14 176.29 317.23C177.76 315.05 180.72 314.46 182.9 315.92L183.12 316.06C183.45 316.28 183.79 316.51 184.12 316.73C197.63 325.53 211.72 329.66 221.16 331.56L221.42 331.61C221.81 331.69 222.18 331.77 222.55 331.83C223.53 331.99 224.43 332.46 225.13 333.17C226.21 334.26 226.71 335.81 226.45 337.32C226.07 339.62 224.06 341.29 221.78 341.29H221.77ZM180.25 316.12C179.04 316.12 177.84 316.7 177.12 317.79C176.11 319.3 176.32 321.31 177.62 322.58C177.78 322.73 177.96 322.88 178.15 323.01L178.69 323.38C178.95 323.56 179.21 323.73 179.47 323.89C194.12 333.44 209.31 337.88 219.48 339.93L219.74 339.98C220.22 340.08 220.68 340.17 221.13 340.24C221.22 340.25 221.31 340.26 221.4 340.27C223.36 340.46 225.14 339.09 225.46 337.15C225.67 335.94 225.29 334.75 224.42 333.87C223.86 333.31 223.15 332.94 222.38 332.81C222 332.74 221.61 332.67 221.22 332.59L220.96 332.54C211.43 330.62 197.21 326.46 183.57 317.57C183.24 317.35 182.89 317.12 182.55 316.9L182.34 316.76C181.7 316.33 180.97 316.12 180.25 316.12V316.12Z" fill="#676D80"/>
</svg>
