<svg width="620" height="1074" viewBox="0 0 620 1074" fill="none" xmlns="http://www.w3.org/2000/svg">
<path d="M309.64 49.0601C323.73 49.0601 332.84 53.7701 338.71 59.4101C345.44 65.8901 348.99 75.0101 348.99 84.3501V107.47C350.17 106.17 355.36 107.17 355.83 108.95C356.3 110.72 357.72 117.03 354.71 125.18C351.7 133.32 341.67 138.75 341.67 138.93C341.67 139.11 340.25 144.95 339.6 149.49C338.95 154.03 336.47 158.99 336.47 158.99L336.12 178.52C336.12 178.52 339.78 195.39 348.86 202.83C357.95 210.26 352.46 208.49 387.86 215.22C423.26 221.95 427.24 282.4 427.24 282.4C429.13 291.58 430.34 291.25 437.42 310.81C444.5 330.37 445.03 354.89 445.03 354.89C445.03 354.89 456 368.43 462.82 382.15C469.63 395.87 471.05 410.91 472.64 421C474.23 431.09 482.02 460.15 484.79 468.41C487.56 476.67 494.36 489.9 496.58 493.93C498.79 497.96 499.5 502.34 500.08 504.02C500.66 505.7 509.46 508.93 514.06 510.13C518.66 511.32 522.6 514.56 524.99 519.02C527.38 523.49 535.74 533.71 538.62 535.75C541.5 537.79 542.74 541.86 535.43 543.1C528.12 544.34 518.79 531.24 518.66 530.75C518.53 530.26 517.73 530.17 517.73 531.9C517.73 533.63 521.45 546.77 521.45 546.77C521.45 546.77 525.21 551.73 526.89 555.09C528.57 558.45 533.75 569.6 533.75 569.6C533.75 569.6 538.44 577.39 534.68 580.31C530.92 583.23 527.02 578.14 527.02 578.14C527.02 578.14 519.59 565.93 518.79 564.33C517.99 562.73 514.28 560.61 514.28 560.75C514.28 560.89 515.96 567.43 515.96 567.43C515.96 567.43 520.69 582.21 521.85 586.02C523 589.83 523.22 595.98 519.42 596.77C515.61 597.57 512.61 591.95 512.61 591.95C512.61 591.95 507.65 579.69 505.57 573.63C503.49 567.57 500.13 563.27 500.13 563.27L501.5 571.01C501.5 571.01 505.22 591.28 504.77 594.55C504.33 597.82 502.29 599.9 499.28 599.02C496.27 598.13 492.6 585.04 491.14 575.21C489.68 565.39 488.75 563.7 488.75 563.7C488.75 563.7 487.42 575.83 486.67 581.89C485.92 587.95 483.75 590.61 479.99 590.78C476.23 590.96 478.13 576.27 478.75 574.1C479.37 571.93 478.75 561.71 478.75 561.71C478.75 561.71 475.34 552.73 473.88 547.64C472.42 542.55 471.98 531.49 472.38 526.31C472.78 521.13 471.82 515.01 471.82 515.01C471.82 515.01 469.84 510.35 468.55 507.34C467.25 504.33 466.72 499.4 466.72 499.4C466.72 499.4 450.44 463.02 450.17 463.02C449.9 463.02 426.72 422.4 422.73 412.22C418.75 402.04 412.91 385.76 412.2 377C411.49 368.24 403.26 353.28 398.42 344.19C393.58 335.1 387.33 308.43 387.33 308.43C389.22 324.01 381.78 344.42 379.19 354.81C376.59 365.19 372.23 386.2 372.23 394.81C372.23 403.42 383.56 423.72 387.81 432.1C392.06 440.48 405.63 485.08 404.21 536.54C402.79 587.99 383.09 675.79 381.2 680.98C379.31 686.17 373.41 710.84 373.41 710.84L370.52 750.84C370.52 750.84 382.56 771.73 382.56 793.68C382.56 815.63 372.12 854.93 366.57 874.16C361.02 893.4 359.19 944.55 358.25 950.39C357.31 956.23 358.55 959.48 358.72 961.9C358.9 964.32 358.71 971.89 358.71 971.89C358.71 971.89 358.44 976.62 361.1 982.47C363.76 988.31 376.59 1005.92 378.05 1008.93C379.51 1011.94 377.78 1017.07 376.28 1018.58C374.78 1020.08 371.9 1017.34 371.9 1017.34C371.9 1017.34 370.84 1020.48 368.4 1020.48C365.96 1020.48 363.18 1019.02 363.18 1019.02C363.18 1019.02 362.6 1022.47 359.64 1022.47C356.68 1022.47 355.17 1020.57 355.17 1020.57C355.17 1020.57 352.82 1024.55 348.84 1024.55C344.86 1024.55 341.1 1022.29 338.79 1018.4C336.49 1014.51 334.67 1005.26 333.35 1001.98C332.02 998.71 329.19 997.6 328.08 994.81C326.97 992.02 327.59 969.19 327.59 963.88C327.59 958.57 329.04 948.16 329.39 943.67C329.74 939.19 330.69 876.17 330.45 866.49C330.21 856.81 322.19 839.94 322.19 824.13C322.19 808.32 328.09 798.76 328.09 785.66C328.09 772.56 327.97 761.59 325.61 754.74C323.25 747.9 318.88 734.56 317.7 726.54C316.52 718.52 319.53 660.93 319.53 660.93C319.53 660.93 314.75 649.07 312.1 626.24C309.44 603.41 313.87 544.2 313.87 544.2H305.37C305.37 544.2 309.8 603.41 307.14 626.24C304.48 649.07 299.71 660.93 299.71 660.93C299.71 660.93 302.72 718.52 301.54 726.54C300.36 734.56 295.99 747.9 293.63 754.74C291.27 761.58 291.15 772.56 291.15 785.66C291.15 798.76 297.05 808.32 297.05 824.13C297.05 839.94 289.03 856.82 288.79 866.49C288.55 876.16 289.5 939.18 289.85 943.67C290.2 948.15 291.65 958.57 291.65 963.88C291.65 969.19 292.27 992.02 291.16 994.81C290.05 997.6 287.22 998.7 285.89 1001.98C284.56 1005.25 282.75 1014.5 280.45 1018.4C278.15 1022.29 274.39 1024.55 270.4 1024.55C266.41 1024.55 264.07 1020.57 264.07 1020.57C264.07 1020.57 262.57 1022.47 259.6 1022.47C256.63 1022.47 256.06 1019.02 256.06 1019.02C256.06 1019.02 253.27 1020.48 250.84 1020.48C248.41 1020.48 247.34 1017.34 247.34 1017.34C247.34 1017.34 244.46 1020.08 242.96 1018.58C241.46 1017.08 239.73 1011.94 241.19 1008.93C242.65 1005.92 255.48 988.31 258.14 982.47C260.8 976.63 260.53 971.89 260.53 971.89C260.53 971.89 260.34 964.32 260.52 961.9C260.7 959.48 261.94 956.24 260.99 950.39C260.04 944.54 258.22 893.39 252.67 874.16C247.12 854.92 236.68 815.63 236.68 793.68C236.68 771.73 248.72 750.84 248.72 750.84L245.83 710.84C245.83 710.84 239.93 686.18 238.04 680.98C236.15 675.79 216.44 587.99 215.03 536.54C213.61 485.09 227.18 440.48 231.43 432.1C235.68 423.72 247.01 403.42 247.01 394.81C247.01 386.2 242.64 365.19 240.05 354.81C237.46 344.43 230.02 324.01 231.91 308.43C231.91 308.43 225.66 335.1 220.82 344.19C215.98 353.28 207.75 368.23 207.04 377C206.33 385.76 200.49 402.05 196.51 412.22C192.53 422.39 169.34 463.02 169.07 463.02C168.8 463.02 152.52 499.4 152.52 499.4C152.52 499.4 151.99 504.33 150.69 507.34C149.39 510.35 147.42 515.01 147.42 515.01C147.42 515.01 146.46 521.13 146.86 526.31C147.26 531.49 146.82 542.55 145.36 547.64C143.9 552.73 140.49 561.71 140.49 561.71C140.49 561.71 139.87 571.93 140.49 574.1C141.11 576.27 143.01 590.96 139.25 590.78C135.49 590.6 133.32 587.95 132.57 581.89C131.82 575.83 130.49 563.7 130.49 563.7C130.49 563.7 129.56 565.38 128.1 575.21C126.64 585.03 122.97 598.13 119.96 599.02C116.95 599.91 114.92 597.83 114.47 594.55C114.03 591.28 117.74 571.01 117.74 571.01L119.11 563.27C119.11 563.27 115.75 567.56 113.67 573.63C111.59 579.69 106.63 591.95 106.63 591.95C106.63 591.95 103.62 597.57 99.82 596.77C96.01 595.97 96.24 589.82 97.39 586.02C98.54 582.22 103.28 567.43 103.28 567.43C103.28 567.43 104.96 560.88 104.96 560.75C104.96 560.62 101.24 562.74 100.45 564.33C99.65 565.92 92.22 578.14 92.22 578.14C92.22 578.14 88.33 583.23 84.56 580.31C80.8 577.39 85.49 569.6 85.49 569.6C85.49 569.6 90.67 558.45 92.35 555.09C94.03 551.73 97.79 546.77 97.79 546.77C97.79 546.77 101.51 533.63 101.51 531.9C101.51 530.17 100.71 530.26 100.58 530.75C100.45 531.24 91.11 544.34 83.81 543.1C76.51 541.86 77.75 537.79 80.62 535.75C83.5 533.71 91.86 523.49 94.25 519.02C96.64 514.55 100.58 511.32 105.18 510.13C109.78 508.94 118.59 505.7 119.16 504.02C119.73 502.34 120.44 497.96 122.66 493.93C124.87 489.9 131.67 476.67 134.45 468.41C137.23 460.15 145.01 431.09 146.6 421C148.19 410.91 149.61 395.86 156.42 382.15C163.23 368.43 174.21 354.89 174.21 354.89C174.21 354.89 174.74 330.37 181.82 310.81C188.9 291.25 190.1 291.58 192 282.4C192 282.4 195.98 221.95 231.38 215.22C266.78 208.49 261.29 210.26 270.38 202.83C279.47 195.4 283.12 178.52 283.12 178.52L282.77 158.99C282.77 158.99 280.29 154.03 279.64 149.49C278.99 144.95 277.57 139.11 277.57 138.93C277.57 138.75 267.54 133.32 264.53 125.18C261.52 117.04 262.94 110.72 263.41 108.95C263.88 107.18 269.07 106.18 270.25 107.47V84.3501C270.25 75.0001 273.8 65.8901 280.53 59.4101C286.4 53.7601 295.51 49.0601 309.6 49.0601H309.64Z" fill="#F6D3BD"/>
<path d="M101.75 525.58C97.01 533.13 87.98 539.5 82.64 542.83C83.01 542.92 83.4 543.01 83.83 543.08C91.13 544.32 100.47 531.22 100.6 530.73C100.73 530.24 101.53 530.15 101.53 531.88C101.53 533.61 97.81 546.75 97.81 546.75C97.81 546.75 94.05 551.71 92.37 555.07C90.69 558.43 85.51 569.58 85.51 569.58C85.51 569.58 81.08 576.97 84.33 580.04C92.01 558.31 102.04 548.9 102.04 548.9C99.8 543.24 105.29 541.05 105.29 541.05C102.63 537.16 105.35 536.15 105.35 536.15C116.32 532.37 120.57 523.76 120.57 523.76C111.84 530.6 101.75 525.56 101.75 525.56V525.58Z" fill="#C4A996"/>
<path d="M104.98 560.73C104.98 560.86 103.3 567.41 103.3 567.41C103.3 567.41 98.57 582.19 97.41 586C96.36 589.46 96.1 594.85 98.92 596.4C100.06 582.66 104.51 571.65 106 567.35C107.68 562.48 104.98 560.73 104.98 560.73Z" fill="#C4A996"/>
<path d="M119.14 563.26L117.77 571C117.77 571 114.05 591.27 114.5 594.54C114.78 596.59 115.68 598.17 117.05 598.85C115.53 588.52 119.37 579.07 120.58 571.92C121.82 564.6 119.15 563.25 119.15 563.25L119.14 563.26Z" fill="#C4A996"/>
<path d="M299.02 312.67C298.48 313.06 275.99 329.04 254.66 319.72C240.71 313.62 231.62 298.38 237.75 273.36L231.38 281.15C231.38 281.15 223.59 283.75 224.89 267.58L212.97 282.1C212.97 282.1 223.84 277.15 225.72 289.21C224.64 332.45 198.93 349.48 198.93 349.48C198.93 349.48 201.29 357.27 198.93 364.58C196.57 371.9 180.05 368.36 180.05 368.36C180.05 368.36 181.94 372.84 186.42 389.13C190.9 405.41 167.75 456.38 167.75 456.38C161.87 468.24 156 481.44 151.61 491.66C147.21 501.88 144.29 509.14 144.29 509.14C144.29 509.14 144.06 513.98 138.75 513.04C133.77 512.15 138.03 500.78 138.57 499.37C137.87 500.79 131.93 512.26 121.52 511.15C121.52 511.15 142.52 521.3 141.46 535.81C140.4 550.33 131.51 550.44 131.51 550.44C131.51 550.44 137.39 551.62 137.27 558.05C137.19 562.77 138.72 574.47 140.49 582.31C140.82 583.74 141.15 585.03 141.48 586.14C141.48 585.98 141.5 585.82 141.51 585.66C141.51 585.5 141.52 585.34 141.53 585.17V585.14C141.56 584.19 141.55 583.19 141.5 582.19C141.48 581.8 141.46 581.42 141.43 581.04V580.94C141.43 580.94 141.43 580.86 141.43 580.82C141.41 580.55 141.38 580.29 141.37 580.03C141.37 579.99 141.37 579.94 141.37 579.9C141.36 579.85 141.36 579.81 141.35 579.76C141.33 579.54 141.31 579.33 141.29 579.11C141.23 578.47 141.16 577.86 141.08 577.29C141.06 577.08 141.03 576.88 141 576.69C140.83 575.46 140.65 574.52 140.53 574.09C139.91 571.93 140.53 561.7 140.53 561.7C140.53 561.7 143.94 552.72 145.4 547.63C146.86 542.54 147.3 531.48 146.91 526.3C146.51 521.12 147.47 515 147.47 515C147.47 515 149.44 510.34 150.74 507.33C152.04 504.32 152.57 499.4 152.57 499.4C152.57 499.4 168.86 463.02 169.12 463.02C169.38 463.02 192.57 422.4 196.56 412.22C200.54 402.04 206.38 385.76 207.09 376.99C207.8 368.23 216.03 353.27 220.87 344.19C225.7 335.1 231.96 308.43 231.96 308.43C230.07 324.01 237.51 344.42 240.1 354.81C242.7 365.19 247.06 386.2 247.06 394.81C247.06 395.04 247.05 395.28 247.03 395.53C247.03 395.6 247.03 395.68 247.03 395.76C247.01 396.02 246.98 396.29 246.94 396.56C246.91 396.81 246.87 397.07 246.82 397.34C246.81 397.42 246.79 397.51 246.77 397.6C246.73 397.84 246.68 398.09 246.62 398.35C246.31 399.75 245.85 401.3 245.29 402.94C245.21 403.17 245.13 403.4 245.04 403.63C244.96 403.86 244.88 404.1 244.79 404.33C244.62 404.8 244.44 405.27 244.25 405.75C243.88 406.71 243.48 407.69 243.05 408.68C242.84 409.18 242.63 409.68 242.4 410.18C242.22 410.61 242.02 411.04 241.82 411.48C241.11 413.06 240.36 414.65 239.6 416.23C239.28 416.9 238.95 417.57 238.62 418.23C238.29 418.89 237.96 419.54 237.64 420.19C235.69 424.07 233.8 427.64 232.37 430.39C232.23 430.68 232.08 430.97 231.94 431.24C231.78 431.54 231.64 431.83 231.5 432.1C227.25 440.48 213.68 485.09 215.09 536.54C216.51 587.99 236.22 675.79 238.11 680.98C239.99 686.17 245.89 710.83 245.89 710.83L248.78 750.84C248.78 750.84 236.75 771.72 236.75 793.67C236.75 815.62 247.19 854.92 252.74 874.15C258.28 893.39 260.11 944.54 261.06 950.39C262 956.23 260.76 959.47 260.59 961.89C260.41 964.31 260.59 971.88 260.59 971.88C260.59 971.88 260.86 976.61 258.2 982.45C255.55 988.3 242.71 1005.91 241.25 1008.92C240.86 1009.72 240.7 1010.68 240.7 1011.68C240.7 1011.82 240.7 1011.96 240.71 1012.1C240.71 1012.24 240.73 1012.38 240.74 1012.52L240.77 1012.88C240.79 1013.05 240.82 1013.22 240.85 1013.39C240.85 1013.38 241.13 1012.83 241.7 1012.01C243.24 1009.76 246.92 1005.53 252.76 1005.53C252.76 1005.53 249.4 1002.88 253.11 998.1C256.83 993.32 264.35 979.6 270.81 978.27L265.33 979.07C265.33 979.07 264.35 964.91 265.77 960.13C265.77 960.13 267.54 958.8 268.69 962.87C269.84 966.95 268.51 957.3 267.63 952.79C266.74 948.27 262.67 929.07 261.96 911.98C261.26 894.9 256.39 869.5 253.73 861.45C251.08 853.39 244 813.83 242.76 801.18C241.52 788.52 250.52 753.53 256.18 755.42C261.7 757.26 270.32 751.17 270.79 750.83C270.19 750.88 258.34 751.97 255.36 746.33C252.63 741.2 250.75 727.22 257.83 722.5C257.83 722.5 250.87 704.21 250.52 695.35C250.52 695.35 227.98 558.59 231.52 523.54C235.06 488.49 244.26 469.37 244.26 469.37C244.26 469.37 233.29 455.04 235.06 446.01C236.83 436.98 249.75 407.77 251.7 401.05C253.64 394.32 258.42 406.83 259.37 417.45C260.31 428.07 262.23 395.83 255.95 388.66C249.66 381.49 249.4 366.8 254.26 368.65C254.26 368.65 246.12 362.46 245.32 353.61C244.59 345.4 252.08 351.2 253.16 352.07C251.99 350.82 243.11 341.03 243.77 328.46C243.77 328.46 269.66 348.3 299.04 312.67H299.02ZM225.98 293.89L225.73 289.26C225.93 290.59 226.02 292.12 225.98 293.89Z" fill="#C4A996"/>
<path d="M192.02 282.39C190.13 291.57 188.92 291.24 181.84 310.8C174.76 330.36 174.23 354.88 174.23 354.88C174.23 354.88 163.26 368.42 156.44 382.14C149.9 395.3 148.33 409.66 146.81 419.72C146.81 419.72 156.56 382.3 173.67 368.38C173.67 368.38 173.91 357.88 181.69 355.05C181.69 355.05 175.32 347.73 187 315.64C198.68 283.54 203.52 274.46 203.52 274.46C203.52 274.46 187.69 269.47 212.06 226.54C194.42 245.98 192.01 282.42 192.01 282.42L192.02 282.39Z" fill="#C4A996"/>
<path d="M306.11 233.13C306.11 233.13 300.3 217.32 286.73 215.08C273.16 212.84 260.82 216.26 271.12 202.22C270.89 202.43 270.65 202.64 270.41 202.84C261.69 209.97 266.37 208.64 235.49 214.46C235.5 214.46 253.81 217.51 262.3 217.16C270.8 216.81 300.44 217.57 306.11 233.15V233.13Z" fill="#C4A996"/>
<path d="M292.39 204.1C292.39 204.1 290.73 189.93 283.13 177.33L283.15 178.52C283.15 178.52 282.16 183.06 279.95 188.46C284.15 191.35 289.15 196.22 292.39 204.1V204.1Z" fill="#C4A996"/>
<path d="M304.98 166.62C306.04 166.97 306.66 167.13 306.66 167.13C306.06 166.92 305.51 166.76 304.98 166.62Z" fill="#C4A996"/>
<path d="M277.94 140.48C277.82 139.97 277.7 139.45 277.6 138.92C277.6 138.97 277.73 139.56 277.94 140.48Z" fill="#C4A996"/>
<path d="M278.05 140.95C277.74 138.78 279.26 146.55 279.67 149.48C280 151.76 280.78 154.15 281.49 155.96C281.53 156.05 281.56 156.14 281.6 156.22C281.65 156.35 281.7 156.47 281.75 156.59C281.78 156.66 281.8 156.72 281.83 156.79C281.88 156.92 281.94 157.06 281.99 157.18C281.99 157.2 282 157.21 282.01 157.23C282.31 157.94 282.56 158.47 282.69 158.75C282.71 158.79 282.72 158.81 282.73 158.84C282.77 158.92 282.8 158.97 282.8 158.97L283.02 170.84C283.02 170.84 283.09 162.55 289.57 165.15C289.59 165.15 289.6 165.16 289.62 165.17C289.97 165.36 290.32 165.52 290.66 165.62C294.02 166.68 296.77 168.45 298.01 175.27C298.01 175.27 297.74 168.18 297.3 167.12C297.3 167.12 298.89 164.95 305 166.61C300.43 163.54 280.87 160.78 278.06 140.94L278.05 140.95Z" fill="#C4A996"/>
<path d="M298.49 141.79C298.49 141.79 305.1 144.92 310.29 144.92C315.48 144.92 319.02 142.91 319.02 142.91C319.02 142.91 316.31 147.39 313.71 148.52C311.11 149.65 307.46 149.52 303.62 147.58C299.78 145.64 298.49 141.8 298.49 141.8V141.79Z" fill="#C4A996"/>
<path d="M296.96 139.7C296.96 139.7 304.34 134.57 307.52 135.69C310.7 136.81 311.03 135.31 312.98 135.31C314.93 135.31 319.62 137.14 322.54 140.96C322.54 140.96 313.57 137.88 311.54 139.18C309.5 140.48 307.88 138.38 296.97 139.71L296.96 139.7Z" fill="#C4A996"/>
<path d="M341.01 219.79C355.61 221.12 361.54 224.39 361.54 224.39C361.54 224.39 360.83 219.08 367.82 216.87C374.81 214.66 386.25 213.79 396.84 218.33C394.1 216.9 391.12 215.83 387.88 215.21C352.48 208.48 357.97 210.25 348.88 202.82C339.79 195.39 336.14 178.51 336.14 178.51L336.49 158.98C336.49 158.98 338.97 154.02 339.62 149.48C340.27 144.94 341.68 139.1 341.68 138.92C341.68 138.74 351.71 133.31 354.72 125.17C357.73 117.03 356.31 110.71 355.84 108.94C355.37 107.17 350.18 106.17 349 107.46V84.34C349 74.99 345.45 65.88 338.72 59.4C337.77 58.48 336.72 57.59 335.59 56.74C335.63 56.84 342.68 76.07 334.02 84.72C334.02 84.72 340.13 91 338.71 95.69C338.71 95.69 322.43 84.1 315.35 100.47C315.35 100.47 320.93 96.69 327.71 96.69C334.49 96.69 337.03 102.86 335.44 104.89C335 105.46 328.12 110.44 319.57 105.07C319.57 105.07 321.16 109.5 329.13 109.26C337.1 109.02 349.78 116.28 332.08 129.97C332.08 129.97 341.2 132.19 337.92 145.49C334.65 158.79 324.38 164.13 315.35 166.6C315.35 166.6 330.66 163.04 329.24 170.04C327.82 177.03 321.27 199.6 321.27 199.6C321.27 199.6 328.44 189.16 333.31 192.79C338.18 196.42 341.75 208.46 335.14 214C328.53 219.55 318.15 218.72 313.9 230.76C313.9 230.76 326.42 218.46 341.02 219.79H341.01Z" fill="#C4A996"/>
<path d="M309.99 119.87C309.99 119.87 309.06 119.91 307.84 120.14C307.84 120.14 306.75 114.03 307.55 110.71C308.32 107.49 305.19 95.6801 295.21 93.5701C295.04 93.5301 294.87 93.4901 294.69 93.4601C294.57 93.4401 294.46 93.4001 294.33 93.3801C294.02 93.3301 293.73 93.3001 293.46 93.2601C293.39 93.2601 293.31 93.2401 293.24 93.2401C292.39 93.1501 291.78 93.1201 291.35 93.1601C290.5 93.1601 286.07 93.3301 284.75 95.7701C284.75 95.7701 281.39 94.0401 282.76 91.0801C284.13 88.1201 286.48 89.0001 286.48 89.0001C286.48 89.0001 281.91 78.6101 283.68 70.2301C285.45 61.8501 293.21 52.8801 307.6 49.7001C308.33 49.5401 308.72 49.3301 308.81 49.0901C295.19 49.2701 286.31 53.8901 280.56 59.4301C273.83 65.9101 270.28 75.0301 270.28 84.3701V107.49C269.1 106.19 263.91 107.19 263.44 108.97C263 110.64 261.72 116.33 264.08 123.78C264.01 120.49 264.34 115.65 266.84 115.31C270.65 114.78 268.3 122.52 270.2 123.98C270.2 123.98 270.29 117.17 272.77 117.87C275.25 118.58 276.67 127.07 277.77 131.68C278.96 131.33 278.43 126.66 284.39 127.14C284.39 127.14 276.26 119.03 277.5 116.02C278.74 113.01 282.15 115.49 282.15 115.49C282.15 115.49 278.43 107.35 281.8 104.87C281.8 104.87 285.58 110.21 296.67 107.61C296.67 107.61 284.19 107.88 284.19 101.59C284.19 96.9001 292.18 95.5001 297.81 97.6401C297.98 97.7101 298.25 97.8301 298.51 97.9501C299.12 98.2201 299.69 98.5901 300.2 99.0301C301.99 100.58 305.22 105.51 305.33 108.97C305.46 113.44 302.88 122.47 302.88 122.47C302 123.54 301.79 125.04 303.05 127.16C303.05 127.16 304.71 124.64 306.08 125.43C307.45 126.23 307.83 126.85 310 126.85C312.17 126.85 312.55 126.23 313.92 125.43C315.29 124.63 316.95 127.16 316.95 127.16C320.98 120.39 310 119.9 310 119.9L309.99 119.87Z" fill="#C4A996"/>
<path d="M514.09 510.11C509.49 508.92 500.68 505.68 500.11 504C499.53 502.32 498.83 497.94 496.61 493.91C494.4 489.88 487.6 476.65 484.82 468.39C482.05 460.13 474.26 431.07 472.67 420.98C471.08 410.89 469.66 395.84 462.85 382.13C456.03 368.41 445.06 354.87 445.06 354.87C445.06 354.87 444.53 330.35 437.45 310.79C430.37 291.23 429.17 291.56 427.27 282.38C427.27 282.38 425.19 250.82 410.68 230.77C410.74 230.94 427.75 277.29 412.2 293.54C412.2 293.54 428.96 297.08 433.91 314.78C438.87 332.48 437.69 363.4 433.91 367.88C433.91 367.88 444.53 362.1 450.67 377.91C456.81 393.72 474.74 460.87 474.74 460.87C474.74 460.87 485.24 488.01 484.06 500.05C484.06 500.05 481.11 499.22 479.81 493.68C479.81 493.68 480.64 504.42 485 510.2C485 510.2 492.55 505.01 500.58 508.9C508.6 512.79 515.65 510.09 525.02 518.99C522.63 514.52 518.69 511.29 514.09 510.1V510.11Z" fill="#C4A996"/>
<path d="M518.69 530.73C518.82 531.22 528.16 544.32 535.46 543.08C536.37 542.92 537.15 542.73 537.81 542.49C535.07 541.6 528.18 538.82 525.01 532.66C521.01 524.87 515.7 524.87 509.33 526.2C502.96 527.53 493.22 523.37 493.22 523.37C493.22 523.37 510.74 531.6 511.45 536.2C512.16 540.8 510.3 543.72 510.3 543.72C510.3 543.72 518.8 542.83 518.44 546.46C518.09 550.09 517.55 551.77 517.55 551.77C517.55 551.77 520.65 549.47 525.25 557.43C529.85 565.39 528.26 571.38 535.6 573.74C534.89 571.47 533.76 569.57 533.76 569.57C533.76 569.57 528.58 558.42 526.9 555.06C525.22 551.7 521.46 546.74 521.46 546.74C521.46 546.74 517.74 533.6 517.74 531.87C517.74 530.14 518.54 530.23 518.67 530.72L518.69 530.73Z" fill="#C4A996"/>
<path d="M522.36 585.85C521.22 582.09 516.52 567.41 516.48 567.29C516.02 565.49 515.38 563.01 515.05 561.67C515.92 562.21 517.24 563.12 517.99 563.99C518.15 564.17 518.4 564.19 518.61 564.07C518.63 564.07 518.65 564.05 518.66 564.03C518.83 563.9 518.89 563.65 518.82 563.44C518.66 563.1 518.45 562.66 518.22 562.15C517.1 559.73 515.37 555.82 515.18 554.67C515.15 554.51 515.05 554.37 514.91 554.3C514.76 554.23 514.59 554.23 514.45 554.31L508.96 557.2C508.77 557.3 508.67 557.51 508.71 557.72C508.74 557.94 508.92 558.1 509.13 558.14C509.17 558.14 512.89 558.84 513.89 569.55C514.53 576.42 518.19 583.45 521.42 588.45C521.65 588.82 521.88 589.17 522.11 589.51C522.21 589.66 522.36 589.74 522.53 589.74C522.53 589.74 522.56 589.74 522.58 589.74C522.62 589.74 522.66 589.73 522.7 589.72C522.91 589.64 523.05 589.42 523.02 589.19C522.9 588.05 522.67 586.9 522.36 585.86V585.85Z" fill="#C4A996"/>
<path d="M499.43 574.92C500.67 580.3 503.25 586.65 504.79 592.66C504.39 586.64 501.53 571 501.53 571L500.16 563.26C500.16 563.26 497.62 567.05 499.44 574.92H499.43Z" fill="#C4A996"/>
<path d="M341.66 967.03C341.78 967.09 341.86 967.13 341.86 967.13C341.86 967.13 341.79 967.09 341.66 967.03Z" fill="#C4A996"/>
<path d="M492.97 569.92C493.5 563.25 493.8 561.95 493.8 561.95C493.8 561.95 481.41 558.65 480.17 551.09C480.17 551.09 484.18 553.57 490.2 552.92C490.2 552.92 477.22 547.7 477.57 537.52C477.92 527.34 478.9 525.13 478.9 525.13L475.09 525.57C475.09 525.57 475.8 518.67 481.11 516.19C481.11 516.19 476.68 509.49 477.1 504.01C477.1 504.01 471.38 503.54 469.08 498.35C466.78 493.16 453.44 459.53 449.43 449.97C445.42 440.41 427.3 388.78 427.3 388.78C427.3 388.78 425.06 379.69 420.22 379.52C420.22 379.52 392.16 304.06 392.34 296.8C392.52 289.54 385.44 276.27 399.86 279.45L389.42 267.5C389.42 267.5 390.75 279.01 386.32 279.01C381.89 279.01 376.85 265.82 376.85 265.82C376.85 265.82 386.35 290.72 376.32 309.13C366.29 327.54 331.6 319.28 324.16 310.55C324.16 310.55 335.31 329.17 355.37 329.17C375.43 329.17 378.33 320.23 378.33 320.23C378.33 320.23 377.74 336.51 366.41 346.55C366.41 346.55 377.38 343.72 374.2 352.1C371.01 360.48 368.06 362.6 368.06 362.6C368.06 362.6 373.37 360.83 372.19 368.15C371.01 375.47 354.61 393.19 355.31 419.73C355.31 419.73 370.65 405.44 377.73 422.43C384.81 439.42 367.82 472.94 367.82 472.94C367.82 472.94 384.11 476.48 388 488.16C391.89 499.84 389.53 583.16 380.57 640.51C371.6 697.86 351.3 722.64 351.3 722.64C351.3 722.64 362.04 720.99 362.16 733.85C362.25 744 353.16 749.01 349.32 750.67C352.91 749.49 361.42 747.85 366.17 756.63C372.31 767.96 380.09 803.6 373.01 824.84C365.93 846.08 360.21 892.46 358.08 918.48C355.96 944.5 350.29 956.89 350.29 956.89C350.29 956.89 355.78 955.12 356.25 964.09C356.72 973.06 350 974.36 350 974.36C350 974.36 356.61 976.37 359.44 982.5C362.27 988.64 375.49 1008.7 375.49 1011.65C375.49 1014.6 371.71 1016.02 371.71 1016.02C371.71 1016.02 369.11 1015.78 365.22 1016.02C361.33 1016.26 356.37 1017.44 356.37 1017.44C356.37 1017.44 348.11 1022.4 343.98 1016.85C339.85 1011.3 335.84 1001.75 335.84 993.96V983.22C335.84 983.22 329.82 972.01 334.07 968.59C337.73 965.64 340.86 966.72 341.66 967.08C340.32 966.43 332.03 962.24 332.55 958.44C333.12 954.31 338.79 880.08 338.55 858.84C338.31 837.6 331.71 830.28 335.72 816.12C339.73 801.96 335.25 758.53 335.25 758.53C335.25 758.53 333.13 739.65 336.67 732.57C340.21 725.49 340.21 722.89 340.21 722.89C340.21 722.89 331.24 736.81 326.99 728.08C322.74 719.35 321.8 657.39 321.8 657.39C321.8 657.39 317.32 559.09 334.31 516.61C334.31 516.61 311 532.78 286.72 518.5C286.72 518.5 293.83 547.82 295.6 579.86C297.37 611.9 294.89 658.28 294.89 658.28C294.89 658.28 298.96 715.28 297.37 723.6C295.78 731.92 288.17 748.56 279.31 752.19C279.31 752.19 287.28 754.05 287.19 770.51C287.1 786.97 286.93 799.83 286.72 822.49C286.51 845.15 284.39 862.73 284.39 862.73C284.39 862.73 286.16 902.97 286.16 915.36C286.16 927.75 288.28 964.57 279.32 969.05C279.32 969.05 286.93 965.75 288.26 977.07C289.59 988.4 283.57 984.86 283.57 984.86C283.57 984.86 284.19 990.08 283.39 994.6C282.59 999.11 278.52 1017.79 276.84 1018.76C275.16 1019.73 270.47 1018.67 267.55 1018.14C264.63 1017.61 262.24 1016.64 261.27 1016.64C260.3 1016.64 253.3 1016.37 250.83 1015.93C248.74 1015.56 246.73 1017.01 246.15 1018.32C246.87 1017.86 247.4 1017.36 247.4 1017.36C247.4 1017.36 248.46 1020.5 250.9 1020.5C253.34 1020.5 256.12 1019.04 256.12 1019.04C256.12 1019.04 256.7 1022.49 259.66 1022.49C262.62 1022.49 264.13 1020.59 264.13 1020.59C264.13 1020.59 266.48 1024.57 270.46 1024.57C274.44 1024.57 278.2 1022.31 280.51 1018.42C282.81 1014.53 284.63 1005.28 285.95 1002C287.28 998.73 290.11 997.62 291.22 994.83C292.33 992.04 291.71 969.21 291.71 963.9C291.71 958.59 290.26 948.18 289.91 943.69C289.56 939.21 288.61 876.19 288.85 866.51C289.09 856.83 297.11 839.96 297.11 824.15C297.11 808.34 291.21 798.78 291.21 785.68C291.21 772.58 291.33 761.61 293.69 754.76C296.05 747.92 300.42 734.58 301.6 726.56C302.78 718.54 299.77 660.95 299.77 660.95C299.77 660.95 304.55 649.09 307.2 626.26C309.86 603.43 305.43 544.22 305.43 544.22H313.93C313.93 544.22 309.5 603.43 312.16 626.26C314.82 649.09 319.59 660.95 319.59 660.95C319.59 660.95 316.58 718.54 317.76 726.56C318.94 734.58 323.31 747.92 325.67 754.76C328.03 761.6 328.15 772.58 328.15 785.68C328.15 798.78 322.25 808.34 322.25 824.15C322.25 839.96 330.27 856.84 330.51 866.51C330.75 876.19 329.8 939.2 329.45 943.69C329.1 948.17 327.65 958.59 327.65 963.9C327.65 969.21 327.03 992.04 328.14 994.83C329.25 997.62 332.08 998.72 333.41 1002C334.74 1005.27 336.55 1014.52 338.85 1018.42C341.15 1022.31 344.91 1024.57 348.9 1024.57C352.89 1024.57 355.23 1020.59 355.23 1020.59C355.23 1020.59 356.73 1022.49 359.7 1022.49C362.67 1022.49 363.24 1019.04 363.24 1019.04C363.24 1019.04 366.03 1020.5 368.46 1020.5C370.89 1020.5 371.96 1017.36 371.96 1017.36C371.96 1017.36 374.84 1020.1 376.34 1018.6C377.84 1017.1 379.57 1011.96 378.11 1008.95C376.65 1005.94 363.82 988.33 361.16 982.49C358.5 976.65 358.77 971.91 358.77 971.91C358.77 971.91 358.96 964.34 358.78 961.92C358.6 959.5 357.36 956.26 358.31 950.41C359.26 944.56 361.08 893.41 366.63 874.18C372.18 854.95 382.62 815.65 382.62 793.7C382.62 771.75 370.58 750.86 370.58 750.86L373.47 710.86C373.47 710.86 379.37 686.2 381.26 681C383.15 675.81 402.86 588.01 404.27 536.56C405.69 485.11 392.12 440.5 387.87 432.12C383.62 423.74 372.29 403.44 372.29 394.83C372.29 386.22 376.66 365.21 379.25 354.83C381.85 344.45 389.28 324.03 387.39 308.45C387.39 308.45 393.64 335.12 398.48 344.21C403.32 353.3 411.55 368.25 412.26 377.02C412.97 385.78 418.81 402.07 422.79 412.24C426.77 422.42 449.96 463.04 450.23 463.04C450.5 463.04 466.78 499.42 466.78 499.42C466.78 499.42 467.31 504.35 468.61 507.36C469.91 510.37 471.88 515.03 471.88 515.03C471.88 515.03 472.84 521.15 472.44 526.33C472.04 531.51 472.48 542.57 473.94 547.66C475.4 552.75 478.81 561.73 478.81 561.73C478.81 561.73 479.43 571.95 478.81 574.12C478.19 576.29 476.29 590.98 480.05 590.8C483.81 590.62 485.98 587.97 486.73 581.91C487.48 575.85 488.81 563.72 488.81 563.72C488.81 563.72 489.74 565.4 491.2 575.23C492.45 583.63 495.31 594.4 498 597.91C497.85 597.35 492.48 576.53 493 569.95L492.97 569.92Z" fill="#C4A996"/>
<path d="M349.32 750.64C348.28 750.98 347.64 751.29 347.64 751.29C347.64 751.29 348.29 751.08 349.32 750.64Z" fill="#C4A996"/>
<path d="M276.25 338.63C276.25 338.63 288.61 336.27 293.57 334.15C298.53 332.03 305.87 335.65 305.87 335.65C305.87 335.65 303.04 329.72 298.88 329.19C294.72 328.66 290.35 336.03 276.25 338.63Z" fill="#C4A996"/>
<path d="M277.78 359.87C277.78 359.87 282.15 366.71 291.94 367.78C301.73 368.84 308.46 368.84 307.4 376.75C307.4 376.75 301.5 371.2 293.71 370.73C285.92 370.26 278.02 362.23 277.78 359.87V359.87Z" fill="#C4A996"/>
<path d="M273.18 395.27L274.36 389.25C274.36 389.25 288.52 403.17 302.21 397.98C302.21 397.98 294.3 404 284.63 399.93C274.95 395.86 277.61 394.32 273.18 395.27V395.27Z" fill="#C4A996"/>
<path d="M273.18 452.74C273.18 452.74 283.8 498.64 324.87 480C324.87 480 310.95 476.11 310.36 469.26C310.36 469.26 294.13 492.92 273.19 452.74H273.18Z" fill="#C4A996"/>
<path d="M344.57 338.63C344.57 338.63 332.21 336.27 327.25 334.15C322.29 332.03 314.95 335.65 314.95 335.65C314.95 335.65 317.78 329.72 321.94 329.19C326.1 328.66 330.47 336.03 344.57 338.63Z" fill="#C4A996"/>
<path d="M343.03 359.87C343.03 359.87 338.66 366.71 328.87 367.78C319.08 368.85 312.35 368.84 313.41 376.75C313.41 376.75 319.31 371.2 327.1 370.73C334.89 370.26 342.79 362.23 343.03 359.87V359.87Z" fill="#C4A996"/>
<path d="M347.64 395.27L346.46 389.25C346.46 389.25 332.3 403.17 318.61 397.98C318.61 397.98 326.52 404 336.19 399.93C345.87 395.86 343.21 394.32 347.64 395.27V395.27Z" fill="#C4A996"/>
<path d="M371.47 1015.54L371.33 1015.95C371.58 1015.97 371.72 1015.98 371.72 1015.98C371.72 1015.98 371.77 1015.96 371.87 1015.91L371.47 1015.54V1015.54ZM539.23 534.91C536.42 532.92 528.2 522.81 525.9 518.53C523.38 513.81 519.17 510.39 514.34 509.14C508.88 507.72 501.66 504.74 501.05 503.67C500.92 503.28 500.76 502.66 500.58 501.95C500.02 499.79 499.19 496.52 497.49 493.43C495.75 490.26 488.67 476.69 485.77 468.07C483.08 460.06 475.28 431.1 473.66 420.82C473.44 419.43 473.22 417.94 472.99 416.37C471.6 406.78 469.68 393.64 463.74 381.68C457.48 369.08 447.62 356.48 446.05 354.5C446.05 354.25 446.03 353.88 446.01 353.39C445.78 348.22 444.64 330.2 439.66 314.25C439.27 312.96 438.84 311.7 438.39 310.45C435.43 302.29 433.51 297.61 432.11 294.2C430.21 289.58 429.34 287.47 428.26 282.25C428.03 278.89 423.54 220.96 388.07 214.22C384.01 213.45 380.49 212.79 377.43 212.22C363.777 209.667 355.33 206.997 352.09 204.21C351.36 203.58 350.53 202.87 349.52 202.04C341.18 195.22 337.47 179.85 337.14 178.41L337.49 159.22C337.97 158.21 340.01 153.79 340.61 149.62C341.09 146.25 342 142.17 342.43 140.21C342.5 139.89 342.55 139.67 342.59 139.5C342.65 139.46 342.72 139.41 342.8 139.36C349.55 135 353.88 130.35 355.66 125.52C358.62 117.52 357.45 111.08 356.81 108.68C356.38 107.08 354.17 106.38 353.23 106.15C352.21 105.9 351.01 105.78 350 105.96V84.35C350 74.52 346.14 65.17 339.41 58.69C332.08 51.63 322.07 48.05 309.65 48.05C297.23 48.05 287.21 51.63 279.88 58.69C273.15 65.17 269.29 74.52 269.29 84.35V105.96C268.28 105.78 267.08 105.9 266.06 106.15C265.12 106.38 262.91 107.08 262.48 108.68C261.84 111.08 260.67 117.52 263.63 125.52C265.42 130.35 269.74 135 276.49 139.36C276.57 139.41 276.64 139.46 276.7 139.5C276.74 139.67 276.79 139.89 276.86 140.21C277.29 142.17 278.2 146.24 278.68 149.62C279.28 153.79 281.32 158.21 281.8 159.22L282.15 178.41C281.82 179.86 278.11 195.23 269.78 202.04C268.76 202.87 267.93 203.58 267.2 204.21C263.96 206.997 255.517 209.667 241.87 212.22C238.8 212.79 235.28 213.45 231.22 214.22C195.75 220.96 191.26 278.89 191.03 282.25C189.95 287.47 189.08 289.58 187.18 294.2C185.78 297.62 183.86 302.29 180.9 310.45C174.3 328.69 173.34 351.45 173.24 354.5C171.67 356.48 161.81 369.08 155.55 381.68C149.61 393.64 147.69 406.78 146.3 416.37C146.07 417.94 145.85 419.43 145.63 420.82C144.01 431.1 136.21 460.06 133.52 468.07C130.62 476.69 123.54 490.26 121.8 493.43C120.1 496.52 119.27 499.79 118.71 501.95C118.53 502.66 118.37 503.28 118.25 503.64C117.63 504.74 110.42 507.72 104.95 509.14C100.12 510.39 95.91 513.81 93.39 518.53C91.1 522.82 82.88 532.92 80.06 534.91C78.06 536.33 77.07 538.3 77.47 540.05C77.79 541.46 79.12 543.29 83.66 544.06C90.15 545.17 97.59 536.58 100.41 532.75C99.92 535.26 98.12 541.95 96.9 546.29C96.24 547.17 93.03 551.5 91.47 554.62C89.86 557.85 84.99 568.32 84.62 569.11C84.17 569.88 79.68 577.75 83.96 581.08C85.11 581.96 86.37 582.33 87.71 582.15C90.67 581.77 92.93 578.85 93.03 578.73L93.09 578.64C93.39 578.14 100.55 566.37 101.36 564.76C101.64 564.2 102.55 563.44 103.44 562.8C103.1 564.16 102.66 565.86 102.34 567.11C102.3 567.25 97.59 581.94 96.46 585.71C95.51 588.82 95.23 593.08 96.72 595.59C97.4 596.73 98.41 597.47 99.64 597.73C104.13 598.67 107.4 592.66 107.54 592.4L107.59 592.3C107.64 592.18 112.58 579.95 114.64 573.93C115.42 571.67 116.38 569.65 117.28 568.03L116.78 570.82C116.4 572.91 113.05 591.34 113.5 594.67C113.8 596.86 114.74 598.57 116.15 599.49C117.32 600.25 118.74 600.41 120.26 599.97C124.36 598.76 128 582.86 129.11 575.35C129.49 572.8 129.83 570.82 130.13 569.28C130.58 573.29 131.18 578.62 131.6 582C132.1 586.07 133.44 591.5 139.23 591.78C139.77 591.81 140.55 591.66 141.21 590.82C143.82 587.54 141.9 575.3 141.48 573.82C141.06 572.38 141.27 565.82 141.5 561.92C141.96 560.71 144.97 552.69 146.34 547.91C147.86 542.61 148.28 531.35 147.88 526.22C147.53 521.62 148.29 516.15 148.42 515.28C148.73 514.54 150.46 510.45 151.64 507.73C152.86 504.89 153.42 500.56 153.53 499.66C159.78 485.7 169.25 464.67 169.91 463.59H169.89C170.43 462.91 171.39 461.23 173.81 457.01C176.39 452.51 179.48 447.01 182.3 441.92C187 433.44 195.21 418.35 197.47 412.58C201.11 403.29 207.32 386.31 208.07 377.07C208.72 369.02 216.03 355.33 220.87 346.27L221.73 344.66C224.85 338.8 228.48 326.01 230.74 317.35C231.38 327.86 234.61 339.11 237.12 347.85C237.92 350.62 238.6 353.01 239.11 355.05C241.91 366.23 246.04 386.6 246.04 394.81C246.04 401.96 237.73 417.91 232.76 427.43C231.92 429.03 231.18 430.46 230.58 431.65C226.52 439.65 212.63 484.38 214.06 536.57C215.49 588.29 235.46 676.7 237.14 681.32C238.93 686.25 244.5 709.44 244.87 710.99L247.74 750.61C246.33 753.16 235.72 773.06 235.72 793.67C235.72 816.39 246.93 857.72 251.75 874.43C255.79 888.46 257.82 919.26 259.04 937.66C259.47 944.21 259.78 948.95 260.04 950.54C260.71 954.71 260.24 957.44 259.87 959.64C259.73 960.45 259.61 961.14 259.56 961.82C259.38 964.26 259.56 971.59 259.56 971.93C259.56 971.98 259.77 976.52 257.26 982.04C255.7 985.47 250.45 993.21 246.22 999.43C243.27 1003.78 240.94 1007.21 240.32 1008.48C238.63 1011.97 240.58 1017.57 242.28 1019.27C243.64 1020.63 245.59 1019.89 247.02 1018.9C247.68 1020.01 248.91 1021.47 250.87 1021.47C252.56 1021.47 254.35 1020.86 255.46 1020.39C256.05 1021.83 257.33 1023.46 259.63 1023.46C261.64 1023.46 263.08 1022.7 263.94 1022.05C265 1023.37 267.23 1025.54 270.43 1025.54C274.8 1025.54 278.88 1023.05 281.33 1018.9C282.85 1016.33 284.1 1011.78 285.2 1007.77C285.8 1005.58 286.37 1003.51 286.84 1002.35C287.46 1000.83 288.43 999.84 289.46 998.79C290.46 997.76 291.5 996.7 292.11 995.17C292.99 992.95 292.9 981.02 292.73 968.98C292.7 966.76 292.67 964.95 292.67 963.87C292.67 960.26 292.01 954.32 291.48 949.55C291.21 947.13 290.98 945.05 290.87 943.58C290.54 939.42 289.56 876.55 289.81 866.51C289.91 862.49 291.39 857.18 293.11 851.03C295.43 842.72 298.07 833.31 298.07 824.12C298.07 815.72 296.45 809.14 294.88 802.78C293.49 797.12 292.17 791.77 292.17 785.65C292.17 771.85 292.34 761.58 294.59 755.06C297.05 747.93 301.35 734.76 302.54 726.67C303.7 718.81 300.96 665.51 300.73 661.08C301.4 659.35 305.67 647.68 308.15 626.34C310.59 605.37 307.04 553.32 306.46 545.18H312.81C312.23 553.32 308.68 605.37 311.12 626.34C313.6 647.68 317.87 659.35 318.54 661.08C318.31 665.51 315.57 718.81 316.73 726.67C317.92 734.76 322.22 747.93 324.68 755.06C326.93 761.58 327.1 771.85 327.1 785.65C327.1 791.77 325.79 797.12 324.39 802.78C322.82 809.14 321.2 815.72 321.2 824.12C321.2 833.31 323.84 842.72 326.16 851.03C327.88 857.18 329.37 862.49 329.46 866.51C329.71 876.53 328.73 939.41 328.41 943.58C328.29 945.04 328.06 947.12 327.79 949.53C327.26 954.31 326.6 960.25 326.6 963.87C326.6 964.95 326.58 966.76 326.54 968.99C326.37 981.02 326.28 992.95 327.16 995.17C327.77 996.7 328.81 997.76 329.81 998.79C330.84 999.84 331.81 1000.83 332.43 1002.35C332.9 1003.5 333.47 1005.57 334.07 1007.76C335.17 1011.78 336.42 1016.33 337.94 1018.9C340.4 1023.05 344.47 1025.54 348.84 1025.54C352.04 1025.54 354.27 1023.37 355.33 1022.05C356.19 1022.7 357.63 1023.46 359.64 1023.46C361.94 1023.46 363.22 1021.83 363.81 1020.39C364.92 1020.86 366.72 1021.47 368.4 1021.47C370.36 1021.47 371.6 1020.01 372.25 1018.9C373.68 1019.89 375.63 1020.63 376.99 1019.27C378.69 1017.57 380.65 1011.97 378.95 1008.48C378.33 1007.21 376 1003.77 373.04 999.42C368.82 993.21 363.57 985.47 362.01 982.04C359.5 976.52 359.71 971.98 359.71 971.9C359.72 971.59 359.9 964.26 359.72 961.82C359.67 961.14 359.55 960.45 359.42 959.64C359.04 957.44 358.57 954.71 359.24 950.54C359.5 948.95 359.81 944.22 360.24 937.67C361.46 919.27 363.49 888.46 367.54 874.43C372.35 857.72 383.56 816.39 383.56 793.67C383.56 773.06 372.95 753.16 371.55 750.61L374.41 710.99C374.78 709.44 380.35 686.25 382.15 681.32C383.83 676.7 403.79 588.29 405.22 536.57C406.65 484.38 392.76 439.65 388.71 431.65C388.1 430.46 387.36 429.03 386.52 427.43C381.55 417.91 373.24 401.96 373.24 394.81C373.24 386.6 377.37 366.23 380.17 355.05C380.68 353.01 381.37 350.62 382.16 347.86C384.67 339.11 387.91 327.86 388.54 317.35C389.4 320.65 390.46 324.54 391.61 328.42C393.49 334.74 395.62 341.03 397.55 344.66L398.41 346.27C401.22 351.53 404.87 358.35 407.56 364.73C409.5 369.33 410.95 373.69 411.22 377.07C411.96 386.31 418.18 403.29 421.81 412.58C424.07 418.35 432.29 433.44 436.98 441.92C439.8 447.01 442.9 452.51 445.47 457.01C447.89 461.23 448.86 462.91 449.39 463.58H449.37C450.03 464.67 459.5 485.7 465.76 499.66C465.86 500.56 466.42 504.89 467.64 507.73C468.82 510.45 470.55 514.54 470.87 515.28C470.99 516.15 471.75 521.62 471.4 526.22C471 531.35 471.42 542.61 472.94 547.91C474.31 552.69 477.32 560.7 477.78 561.91C478.01 565.82 478.22 572.38 477.81 573.82C477.38 575.3 475.46 587.54 478.07 590.82C478.73 591.66 479.52 591.8 480.05 591.78C485.84 591.5 487.18 586.07 487.68 582C488.1 578.62 488.71 573.29 489.16 569.28C489.45 570.82 489.79 572.81 490.17 575.35C491.29 582.86 494.92 598.76 499.02 599.97C500.54 600.42 501.96 600.25 503.13 599.49C504.54 598.57 505.48 596.86 505.78 594.67C506.23 591.34 502.88 572.91 502.5 570.82L502 568.03C502.9 569.65 503.86 571.67 504.64 573.93C506.7 579.95 511.64 592.18 511.69 592.3L511.74 592.4C511.88 592.66 515.15 598.67 519.64 597.73C520.88 597.47 521.88 596.73 522.56 595.59C524.05 593.08 523.77 588.82 522.83 585.71C521.69 581.94 516.98 567.25 516.95 567.16C516.62 565.89 516.19 564.17 515.84 562.8C516.73 563.44 517.64 564.2 517.92 564.76C518.73 566.37 525.89 578.14 526.19 578.64L526.25 578.73C526.35 578.85 528.61 581.77 531.57 582.15C532.92 582.32 534.18 581.96 535.32 581.08C539.6 577.75 535.11 569.88 534.66 569.11C534.29 568.32 529.42 557.85 527.81 554.62C526.25 551.5 523.04 547.17 522.38 546.29C521.16 541.96 519.36 535.27 518.88 532.75C521.69 536.58 529.12 545.15 535.62 544.06C540.16 543.29 541.49 541.46 541.81 540.05C542.21 538.3 541.22 536.33 539.22 534.91H539.23ZM539.87 539.61C539.65 540.59 538.33 541.42 536.23 541.91H536.22C535.93 541.97 535.62 542.03 535.3 542.09C529.01 543.15 520.34 531.6 519.63 530.35C519.4 529.73 518.79 529.35 518.18 529.43C517.75 529.49 516.76 529.84 516.76 531.88C516.76 533.65 519.89 544.8 520.52 547.02L520.57 547.2L520.68 547.35C520.68 547.35 524.41 552.27 526.03 555.51C527.69 558.82 532.83 569.89 532.88 570L532.93 570.1C533.36 570.81 533.96 571.99 534.43 573.3C535.26 575.59 535.69 578.27 534.1 579.5C533.39 580.05 532.65 580.28 531.84 580.17C529.86 579.92 528.13 577.85 527.88 577.55C525.31 573.32 520.33 565.09 519.72 563.87C519.48 563.39 518.91 562.77 518.22 562.15C517.69 561.69 517.1 561.22 516.52 560.83C515.49 560.13 514.52 559.65 514.09 559.75L513.31 559.94V560.73C513.31 560.89 513.31 560.99 515.04 567.72C515.09 567.86 519.06 580.24 520.58 585.17C520.71 585.61 520.83 585.98 520.92 586.29C521.12 586.95 521.29 587.69 521.42 588.45C521.77 590.67 521.72 593.1 520.85 594.57C520.46 595.24 519.93 595.63 519.24 595.77C516.76 596.29 514.31 592.91 513.54 591.5C513.18 590.62 508.52 579.05 506.54 573.28C504.43 567.13 501.08 562.82 500.94 562.63L498.47 559.48L499.43 564.93L500.54 571.18C501.4 575.88 502.47 582.17 503.15 587.08C503.65 590.63 503.94 593.44 503.81 594.4C503.59 596.01 502.97 597.22 502.06 597.81C501.38 598.25 500.55 598.33 499.59 598.05C498.91 597.85 498 596.4 497.02 594.06C495.27 589.85 493.31 582.79 492.16 575.05C490.71 565.33 489.76 563.4 489.65 563.21L488.13 560.45L487.79 563.59C487.77 563.71 486.45 575.77 485.71 581.76C484.85 588.67 482.19 589.67 479.97 589.78C479.91 589.79 479.81 589.79 479.65 589.58C477.92 587.41 479.11 576.58 479.74 574.37C480.39 572.1 479.84 562.71 479.78 561.64L479.71 561.35C479.68 561.26 476.3 552.34 474.87 547.36C473.46 542.44 473.02 531.41 473.4 526.38C473.8 521.14 472.87 515.1 472.83 514.85L472.77 514.61C472.77 514.61 470.79 509.95 469.49 506.94C468.27 504.1 467.74 499.34 467.74 499.29L467.65 498.99C467.65 498.99 463.58 489.89 459.48 480.8C453.38 467.28 451.67 463.5 450.89 462.43L450.96 462.38C449.93 460.99 427.56 421.77 423.69 411.85C420.79 404.45 413.97 386.23 413.22 376.91C412.94 373.37 411.47 368.87 409.49 364.16C406.76 357.62 403.05 350.68 400.19 345.33L399.33 343.72C397.48 340.24 395.4 334.08 393.55 327.85C390.68 318.18 388.37 308.36 388.33 308.2L386.36 308.55C387.85 320.84 383.46 336.14 380.25 347.3C379.45 350.09 378.76 352.49 378.24 354.57C375.42 365.84 371.25 386.43 371.25 394.81C371.25 402.45 379.71 418.67 384.76 428.36C385.59 429.95 386.33 431.37 386.93 432.55C390.94 440.46 404.65 484.71 403.23 536.51C401.81 588.04 381.95 676.04 380.28 680.64C378.39 685.82 372.7 709.59 372.46 710.6L369.52 751.07L369.67 751.34C369.79 751.54 381.57 772.26 381.57 793.67C381.57 816.13 370.42 857.24 365.62 873.88C361.52 888.11 359.48 919.05 358.26 937.54C357.85 943.79 357.52 948.72 357.28 950.23C356.55 954.72 357.07 957.76 357.46 959.98C357.59 960.74 357.7 961.39 357.74 961.96C357.91 964.31 357.72 971.78 357.72 971.82C357.72 972.03 357.48 976.87 360.2 982.87C361.83 986.45 367.14 994.27 371.4 1000.54C374.08 1004.49 376.61 1008.21 377.16 1009.35C378.4 1011.91 376.88 1016.56 375.58 1017.86C375.03 1018.42 373.33 1017.3 372.6 1016.6L371.88 1015.91L371.48 1015.54L371.34 1015.95L370.97 1017C370.97 1017 370.1 1019.47 368.42 1019.47C366.27 1019.47 363.69 1018.13 363.66 1018.12L362.45 1017.49L362.22 1018.84C362.2 1018.95 361.73 1021.46 359.66 1021.46C357.25 1021.46 356.02 1019.99 355.98 1019.94L355.07 1018.8L354.33 1020.05C354.33 1020.05 352.21 1023.54 348.86 1023.54C345.21 1023.54 341.77 1021.42 339.68 1017.88C338.3 1015.54 337.03 1010.94 336.02 1007.23C335.37 1004.89 334.82 1002.86 334.3 1001.59C333.54 999.71 332.33 998.48 331.26 997.39C330.31 996.42 329.5 995.59 329.04 994.43C328.23 992.4 328.46 976.6 328.56 969.01C328.6 966.78 328.62 964.96 328.62 963.87C328.62 960.37 329.28 954.48 329.8 949.75C330.07 947.33 330.3 945.23 330.42 943.74C330.75 939.55 331.73 876.5 331.48 866.46C331.38 862.2 329.86 856.77 328.11 850.49C325.82 842.31 323.22 833.03 323.22 824.12C323.22 815.96 324.81 809.5 326.35 803.26C327.78 797.48 329.12 792.01 329.12 785.65C329.12 771.66 328.94 761.22 326.59 754.41C324.63 748.72 319.94 734.6 318.73 726.38C317.58 718.55 320.54 661.54 320.57 660.97V660.75L320.5 660.54C320.45 660.43 315.73 648.51 313.13 626.11C310.51 603.63 314.86 544.84 314.9 544.25L314.98 543.18H304.33L304.41 544.25C304.45 544.84 308.8 603.63 306.18 626.11C303.58 648.51 298.86 660.43 298.82 660.54L298.73 660.75V660.97C298.77 661.54 301.73 718.55 300.58 726.38C299.37 734.6 294.68 748.72 292.72 754.41C290.37 761.22 290.19 771.66 290.19 785.65C290.19 792.01 291.53 797.48 292.96 803.26C294.5 809.5 296.09 815.96 296.09 824.12C296.09 833.03 293.49 842.31 291.2 850.49C289.45 856.77 287.93 862.2 287.83 866.46C287.58 876.52 288.56 939.57 288.89 943.74C289.01 945.24 289.24 947.34 289.51 949.77C290.04 954.49 290.69 960.37 290.69 963.87C290.69 964.96 290.72 966.78 290.75 969.01C290.86 976.6 291.08 992.4 290.27 994.43C289.81 995.59 289 996.42 288.05 997.39C286.98 998.48 285.77 999.71 285.01 1001.59C284.5 1002.86 283.94 1004.89 283.29 1007.24C282.28 1010.94 281.01 1015.54 279.63 1017.88C277.54 1021.42 274.11 1023.54 270.45 1023.54C267.1 1023.54 265 1020.08 264.98 1020.05L264.25 1018.82L263.34 1019.93C263.29 1019.99 262.06 1021.46 259.65 1021.46C257.58 1021.46 257.12 1018.95 257.1 1018.84L256.87 1017.48L255.65 1018.12C255.65 1018.12 253.04 1019.47 250.89 1019.47C249.21 1019.47 248.35 1017.03 248.34 1017L248.12 1016.35L247.84 1015.53L246.7 1016.6C245.97 1017.3 244.28 1018.42 243.72 1017.86C242.8 1016.94 241.77 1014.35 241.69 1012.01C241.65 1011.03 241.78 1010.1 242.14 1009.35C242.69 1008.22 245.22 1004.49 247.9 1000.55C252.16 994.27 257.47 986.45 259.1 982.87C261.83 976.87 261.59 972.03 261.58 971.85C261.58 971.78 261.39 964.31 261.56 961.96C261.61 961.39 261.72 960.74 261.85 959.98C262.23 957.76 262.75 954.72 262.02 950.23C261.78 948.72 261.46 943.78 261.04 937.53C259.82 919.04 257.78 888.11 253.68 873.88C248.88 857.25 237.73 816.14 237.73 793.67C237.73 771.2 249.51 751.54 249.63 751.34L249.78 751.07L246.87 710.76L246.85 710.6C246.6 709.59 240.91 685.82 239.02 680.64C237.36 676.04 217.49 588.05 216.07 536.51C214.65 484.71 228.36 440.46 232.37 432.55C232.97 431.37 233.71 429.95 234.54 428.36C239.6 418.67 248.05 402.45 248.05 394.81C248.05 386.43 243.88 365.84 241.06 354.57C240.54 352.49 239.85 350.09 239.05 347.3C235.84 336.14 231.45 320.84 232.94 308.55L230.97 308.2C230.91 308.47 224.7 334.85 219.97 343.72L219.11 345.33C214.2 354.54 206.77 368.44 206.08 376.91C205.33 386.23 198.51 404.45 195.62 411.85C191.74 421.77 169.37 460.99 168.35 462.38L168.41 462.44C167.63 463.5 165.92 467.3 159.82 480.8C155.72 489.89 151.65 498.99 151.65 498.99L151.57 499.29C151.57 499.29 151.04 504.1 149.81 506.94C148.51 509.95 146.54 514.61 146.54 514.61L146.47 514.85C146.43 515.1 145.5 521.14 145.9 526.38C146.29 531.41 145.84 542.44 144.43 547.36C143 552.35 139.62 561.26 139.59 561.35L139.53 561.64C139.46 562.71 138.91 572.1 139.56 574.37C139.89 575.51 140.36 578.95 140.5 582.31C140.64 585.45 140.5 588.53 139.66 589.58C139.49 589.79 139.39 589.78 139.33 589.78C137.11 589.67 134.45 588.67 133.6 581.76C132.85 575.77 131.53 563.71 131.52 563.59L131.17 560.45L129.65 563.21C129.54 563.4 128.59 565.33 127.14 575.05C125.35 587.11 121.61 597.49 119.71 598.05C118.75 598.33 117.93 598.25 117.25 597.81C117.12 597.73 117 597.64 116.89 597.53C116.17 596.88 115.68 595.79 115.49 594.4C115.18 592.12 117.28 579.26 118.76 571.17L120 564.18L120.83 559.48L118.36 562.63C118.22 562.82 114.87 567.13 112.76 573.28C110.78 579.05 106.12 590.62 105.76 591.5C104.99 592.91 102.54 596.29 100.06 595.77C99.67 595.69 99.32 595.53 99.03 595.28C98.81 595.09 98.62 594.86 98.45 594.57C97.28 592.59 97.59 588.89 98.38 586.29C99.51 582.53 104.21 567.87 104.28 567.66C105.18 564.15 105.61 562.46 105.81 561.62C105.99 560.87 105.99 560.81 105.99 560.73V559.93L105.21 559.75C104.24 559.53 100.33 562.37 99.58 563.87C98.97 565.09 94 573.32 91.42 577.55C91.18 577.85 89.44 579.92 87.46 580.17C86.66 580.27 85.92 580.05 85.2 579.5C85.01 579.36 84.85 579.19 84.72 579.01C83.07 576.75 85.29 571.9 86.37 570.1L86.43 570C86.48 569.89 91.62 558.82 93.27 555.51C94.89 552.27 98.58 547.4 98.62 547.35L98.73 547.2L98.78 547.02C99.41 544.8 102.54 533.65 102.54 531.88C102.54 529.84 101.55 529.49 101.12 529.43C100.5 529.35 99.9 529.73 99.68 530.35C98.96 531.6 90.3 543.16 84 542.09C83.95 542.09 83.91 542.07 83.86 542.06H83.85C81.29 541.6 79.68 540.71 79.43 539.61C79.22 538.69 79.94 537.45 81.23 536.54C84.26 534.4 92.73 524.03 95.16 519.47C97.42 515.25 101.17 512.19 105.46 511.07C105.6 511.04 119.14 507.26 120.14 504.32C120.3 503.85 120.46 503.23 120.66 502.45C121.19 500.38 121.99 497.26 123.57 494.39C125.32 491.19 132.48 477.47 135.42 468.71C138.13 460.65 145.98 431.49 147.62 421.14C147.84 419.73 148.06 418.24 148.29 416.66C148.47 415.46 148.64 414.23 148.84 412.96C148.84 412.95 148.84 412.93 148.84 412.92C150.23 403.67 152.25 392.84 157.34 382.57C164.02 369.12 174.9 355.63 175.01 355.5L175.23 355.23V354.89C175.23 354.65 175.84 330.31 182.79 311.13C185.73 303.01 187.64 298.36 189.03 294.96C190.99 290.21 191.88 288.04 193 282.58L193.02 282.45C193.05 282.02 195.27 251.45 209.16 231.81C209.16 231.8 209.16 231.8 209.16 231.79C214.63 224.06 221.91 218.03 231.58 216.19C234.06 215.72 236.33 215.29 238.42 214.9C239.76 214.65 241.03 214.41 242.22 214.19C256.22 211.563 264.98 208.743 268.5 205.73C268.68 205.58 268.86 205.42 269.06 205.25C269.06 205.25 269.06 205.24 269.07 205.24C269.64 204.75 270.29 204.2 271.03 203.59C275.52 199.92 278.69 194.13 280.79 189.06C282.8 184.2 283.83 180 284.06 178.95C284.09 178.83 284.11 178.76 284.12 178.72L284.15 178.61L283.94 166.86L283.79 158.73L283.68 158.53C283.66 158.48 281.33 153.79 280.68 149.5C280.66 149.44 280.66 149.39 280.65 149.34C280.16 145.88 279.24 141.76 278.8 139.78C278.7 139.29 278.62 138.96 278.59 138.82C278.56 138.32 278.25 138.12 277.56 137.68C271.19 133.56 267.13 129.24 265.49 124.82C264.9 123.21 264.48 121.68 264.2 120.23V120.2C263.18 114.95 263.94 110.93 264.4 109.2C264.46 108.98 265.14 108.43 266.52 108.1C268.13 107.71 269.34 107.92 269.54 108.14L271.28 110.05V84.35C271.28 75.06 274.92 66.2301 281.26 60.1301C287.37 54.2401 295.51 50.9001 305.49 50.2001C306.84 50.1001 308.22 50.05 309.63 50.05C320.47 50.05 329.38 52.87 336.12 58.46C336.77 58.99 337.39 59.5501 338 60.1301C344.34 66.2301 347.98 75.06 347.98 84.35V110.05L349.72 108.14C349.92 107.92 351.14 107.71 352.74 108.1C354.12 108.43 354.8 108.98 354.86 109.2C355.45 111.41 356.52 117.36 353.77 124.82C352.13 129.24 348.07 133.56 341.7 137.68C341.01 138.12 340.7 138.32 340.67 138.82C340.64 138.96 340.57 139.29 340.46 139.78C340.02 141.76 339.1 145.89 338.61 149.34C337.99 153.66 335.6 158.48 335.58 158.53L335.48 158.73L335.12 178.61L335.14 178.72C335.29 179.42 338.98 196.02 348.23 203.59C349.23 204.41 350.05 205.11 350.77 205.73C354.283 208.743 363.04 211.563 377.04 214.19C378.51 214.47 380.09 214.76 381.78 215.08C381.79 215.08 381.8 215.08 381.81 215.08C383.63 215.41 385.58 215.78 387.68 216.18C398.46 218.23 406.28 225.51 411.93 234.54C424.2 254.15 426.22 282.03 426.25 282.44L426.27 282.57C427.39 288.03 428.28 290.2 430.24 294.95C431.63 298.35 433.55 303 436.49 311.12C436.93 312.33 437.34 313.56 437.73 314.8C442.83 331.12 443.84 349.7 444 353.97C444.03 354.54 444.04 354.85 444.04 354.88V355.22L444.26 355.49C444.37 355.62 455.25 369.11 461.93 382.56C467.73 394.24 469.54 406.66 470.99 416.65C471.22 418.23 471.44 419.72 471.66 421.13C473.3 431.48 481.15 460.64 483.86 468.7C486.8 477.46 493.96 491.18 495.72 494.38C497.29 497.25 498.09 500.37 498.62 502.44C498.82 503.22 498.98 503.84 499.14 504.31C500.15 507.25 513.69 511.03 513.82 511.06C517.09 511.92 520.05 513.9 522.27 516.66C522.97 517.53 523.59 518.46 524.12 519.46C526.55 524.02 535.02 534.39 538.05 536.53C539.34 537.44 540.06 538.68 539.85 539.6L539.87 539.61ZM371.47 1015.54L371.33 1015.95C371.58 1015.97 371.72 1015.98 371.72 1015.98C371.72 1015.98 371.77 1015.96 371.87 1015.91L371.47 1015.54V1015.54Z" fill="#998475"/>
<path d="M309.04 423.58C309.04 423.58 313.02 423.93 312.23 419.77C311.43 415.61 310.69 413.66 310.69 413.66C310.69 413.66 314.44 417.82 315.33 420.21C316.22 422.6 317.01 429.68 312.19 429.68C307.37 429.68 309.05 423.57 309.05 423.57L309.04 423.58Z" fill="#C4A996"/>
<path d="M268.26 289.02C268.26 289.02 270.8 291.56 270.8 293.76C270.8 295.96 268.86 300.77 262.52 300.77C256.18 300.77 252.37 292.36 257.18 287.02C257.18 287.02 257.95 291.69 259.22 292.03C260.49 292.36 261.22 289.83 261.22 289.83C261.22 289.83 260.92 292.13 262.02 292.13C263.12 292.13 263.56 290.59 263.09 289.66C263.09 289.66 266.46 290.96 265.36 294.83C265.36 294.83 270.23 294.93 268.26 289.02V289.02Z" fill="#C4A996"/>
<path d="M351.25 289.02C351.25 289.02 348.71 291.56 348.71 293.76C348.71 295.96 350.65 300.77 356.99 300.77C363.33 300.77 367.14 292.36 362.33 287.02C362.33 287.02 361.56 291.69 360.29 292.03C359.02 292.36 358.29 289.83 358.29 289.83C358.29 289.83 358.59 292.13 357.49 292.13C356.39 292.13 355.95 290.59 356.42 289.66C356.42 289.66 353.05 290.96 354.15 294.83C354.15 294.83 349.28 294.93 351.25 289.02V289.02Z" fill="#C4A996"/>
<path style="mix-blend-mode:multiply" d="M196.588 403.355C198.74 393.627 190.888 383.619 179.051 381.001C167.215 378.383 155.875 384.148 153.724 393.876C151.573 403.604 159.424 413.612 171.261 416.23C183.097 418.847 194.437 413.083 196.588 403.355Z" fill="url(#paint0_radial_1_2208)"/>
<defs>
<radialGradient id="paint0_radial_1_2208" cx="0" cy="0" r="1" gradientUnits="userSpaceOnUse" gradientTransform="translate(176.705 396.615) rotate(12.47) scale(21.92 18.084)">
<stop stop-color="#A41907"/>
<stop offset="0.2" stop-color="#A51D0B" stop-opacity="0.98"/>
<stop offset="0.36" stop-color="#AB2B1A" stop-opacity="0.92"/>
<stop offset="0.5" stop-color="#B44233" stop-opacity="0.82"/>
<stop offset="0.63" stop-color="#C16256" stop-opacity="0.68"/>
<stop offset="0.76" stop-color="#D18C83" stop-opacity="0.5"/>
<stop offset="0.88" stop-color="#E6C0BB" stop-opacity="0.27"/>
<stop offset="1" stop-color="white" stop-opacity="0"/>
</radialGradient>
</defs>
</svg>
