<svg width="620" height="1074" viewBox="0 0 620 1074" fill="none" xmlns="http://www.w3.org/2000/svg">
<path d="M186.44 301.07C186.65 301.21 186.86 301.35 187.07 301.49C201.88 311.35 217.42 315.96 227.88 318.09C228.12 318.14 228.35 318.18 228.57 318.22C228.95 318.42 229.3 318.68 229.59 318.98C230.56 319.96 231.04 321.38 230.75 322.82C230.29 325.13 228.04 326.63 225.73 326.17L224.04 325.83C213.89 323.7 198.79 319.16 184.32 309.66C183.83 309.33 183.37 309.02 182.89 308.69C180.95 307.36 180.46 304.7 181.8 302.76C182.85 301.23 184.73 300.6 186.43 301.07H186.44Z" fill="#9FA7C4"/>
<path d="M188.51 292.81C188.69 292.98 188.89 293.15 189.11 293.3L189.2 293.36C189.63 293.64 190.05 293.93 190.45 294.18C205.15 303.76 220.4 308.23 230.63 310.29L230.89 310.34C231.37 310.44 231.84 310.53 232.3 310.61C232.41 310.63 232.51 310.64 232.62 310.65C232.86 310.81 233.09 310.99 233.28 311.19C234.23 312.15 234.71 313.54 234.46 314.96C234.04 317.28 231.82 318.82 229.5 318.4C229.2 318.35 228.9 318.28 228.58 318.23C228.36 318.19 228.13 318.14 227.89 318.1C217.43 315.97 201.89 311.36 187.08 301.5C186.86 301.36 186.66 301.23 186.45 301.08C186.21 300.91 185.97 300.75 185.72 300.58C183.78 299.25 183.28 296.6 184.61 294.65C185.52 293.33 187.04 292.67 188.52 292.82L188.51 292.81Z" fill="#9FA7C4"/>
<path d="M193.85 286.21L193.95 286.27C194.33 286.52 194.71 286.78 195.08 287.02C208.66 295.87 222.81 300.01 232.29 301.92L232.56 301.97C232.95 302.05 233.33 302.13 233.7 302.19C234.61 302.34 235.41 302.78 236.01 303.39C236.95 304.33 237.43 305.69 237.19 307.1C236.82 309.31 234.8 310.85 232.61 310.63C232.5 310.63 232.4 310.61 232.29 310.59C231.83 310.51 231.36 310.42 230.88 310.32L230.62 310.27C220.4 308.21 205.14 303.74 190.44 294.16C190.04 293.9 189.62 293.62 189.19 293.34L189.1 293.28C188.88 293.13 188.69 292.97 188.5 292.79C187.05 291.38 186.76 289.1 187.93 287.36C189.25 285.4 191.9 284.88 193.85 286.19V286.21Z" fill="#9FA7C4"/>
<path d="M237.19 307.11C236.82 309.32 234.8 310.85 232.6 310.64C232.84 310.8 233.07 310.99 233.27 311.19C234.22 312.15 234.7 313.53 234.45 314.95C234.17 316.46 233.14 317.64 231.81 318.17C231.1 318.45 230.3 318.54 229.49 318.4C229.47 318.4 229.46 318.4 229.44 318.4C229.41 318.52 229.37 318.64 229.34 318.76C229.42 318.83 229.51 318.91 229.59 318.99C230.56 319.97 231.04 321.39 230.75 322.83C230.4 324.62 228.97 325.93 227.27 326.21C226.77 326.29 226.25 326.29 225.73 326.18L224.05 325.85C222.22 325.46 220.24 325 218.12 324.45C221.11 317.84 223.62 309.8 224.88 300.18C227.56 300.91 230.06 301.49 232.29 301.94L232.55 301.99C232.94 302.07 233.32 302.14 233.69 302.21C234.6 302.36 235.4 302.79 236.01 303.41C236.95 304.35 237.43 305.71 237.19 307.12V307.11Z" fill="#848BA3"/>
<path d="M197.37 288.47C195.07 294.15 192.06 301.86 188.29 312.14C186.97 311.35 185.64 310.53 184.32 309.66C183.83 309.33 183.37 309.02 182.9 308.7C182.82 308.65 182.74 308.59 182.67 308.52C180.92 307.14 180.52 304.63 181.8 302.76C182.68 301.5 184.11 300.85 185.54 300.94C185.59 300.81 185.64 300.68 185.69 300.56C183.76 299.23 183.26 296.59 184.59 294.64C185.5 293.32 187.02 292.66 188.51 292.81C187.06 291.4 186.77 289.12 187.94 287.38C188.73 286.2 190 285.55 191.31 285.5C192.18 285.46 193.07 285.69 193.85 286.21L193.95 286.28C194.32 286.53 194.7 286.78 195.08 287.03C195.84 287.53 196.6 288.01 197.37 288.47Z" fill="#848BA3"/>
<path d="M226.57 326.75C226.26 326.75 225.95 326.72 225.64 326.66L223.96 326.32C213.78 324.18 198.6 319.63 184.06 310.07L183.51 309.7C183.21 309.5 182.92 309.3 182.63 309.1C181.58 308.38 180.88 307.29 180.65 306.04C180.42 304.79 180.69 303.52 181.41 302.47C182.55 300.81 184.63 300.04 186.58 300.58L186.73 300.65C186.94 300.79 187.14 300.93 187.35 301.06C202.11 310.88 217.59 315.47 227.99 317.6L228.81 317.78C229.23 318 229.62 318.29 229.95 318.63C231.07 319.76 231.56 321.37 231.25 322.92C230.8 325.19 228.8 326.76 226.58 326.76L226.57 326.75ZM185.32 301.41C184.1 301.41 182.93 302 182.22 303.04C181.65 303.87 181.43 304.87 181.62 305.86C181.8 306.85 182.36 307.71 183.19 308.28C183.48 308.48 183.77 308.68 184.06 308.87L184.61 309.24C199.01 318.7 214.07 323.22 224.15 325.34L225.83 325.67C227.87 326.08 229.85 324.75 230.26 322.71C230.51 321.48 230.12 320.21 229.23 319.32C228.98 319.07 228.7 318.86 228.39 318.69L227.78 318.57C217.29 316.43 201.67 311.8 186.79 301.89C186.6 301.77 186.42 301.65 186.23 301.52C185.93 301.44 185.62 301.41 185.32 301.41Z" fill="#676D80"/>
<path d="M230.24 318.96C229.96 318.96 229.68 318.94 229.4 318.88C229.23 318.85 229.06 318.82 228.88 318.78L227.78 318.57C217.29 316.43 201.67 311.8 186.79 301.89C186.58 301.76 186.37 301.62 186.16 301.47L185.42 300.97C184.37 300.25 183.66 299.17 183.43 297.92C183.2 296.67 183.46 295.4 184.18 294.35C185.16 292.92 186.83 292.13 188.56 292.3L188.73 292.32L188.85 292.44C189.01 292.59 189.19 292.74 189.39 292.88L189.93 293.25C190.19 293.43 190.45 293.6 190.71 293.76C205.36 303.31 220.55 307.75 230.72 309.8L230.98 309.85C231.46 309.95 231.92 310.04 232.37 310.11C232.46 310.12 232.55 310.13 232.64 310.14H232.78L232.89 310.22C233.17 310.41 233.42 310.61 233.63 310.83C234.73 311.93 235.22 313.51 234.95 315.04C234.53 317.34 232.51 318.96 230.25 318.96H230.24ZM188.09 293.28C186.87 293.28 185.71 293.89 185 294.92C184.43 295.75 184.22 296.75 184.41 297.74C184.6 298.73 185.15 299.58 185.98 300.15L186.71 300.65C186.92 300.79 187.12 300.92 187.33 301.06C202.09 310.88 217.57 315.47 227.97 317.6L229.06 317.81C229.23 317.84 229.4 317.88 229.56 317.9C231.61 318.27 233.57 316.9 233.94 314.86C234.16 313.65 233.77 312.41 232.9 311.53C232.76 311.39 232.6 311.25 232.42 311.12C232.35 311.12 232.27 311.1 232.2 311.09C231.73 311.01 231.26 310.92 230.77 310.82L230.51 310.77C220.26 308.71 204.94 304.22 190.16 294.59C189.91 294.43 189.64 294.25 189.37 294.07L188.8 293.68C188.63 293.56 188.45 293.42 188.29 293.28C188.22 293.28 188.16 293.28 188.09 293.28V293.28Z" fill="#676D80"/>
<path d="M233.01 311.16C232.86 311.16 232.71 311.16 232.56 311.14C232.45 311.14 232.34 311.12 232.21 311.1C231.74 311.02 231.27 310.93 230.78 310.83L230.52 310.78C220.27 308.72 204.95 304.23 190.17 294.6C189.92 294.44 189.65 294.26 189.38 294.08L188.81 293.69C188.59 293.54 188.37 293.35 188.17 293.17C186.52 291.56 186.25 289.01 187.53 287.1C189 284.92 191.96 284.34 194.14 285.8L194.4 285.97C194.72 286.18 195.04 286.4 195.36 286.61C208.87 295.41 222.96 299.54 232.4 301.44L232.66 301.49C233.05 301.57 233.42 301.65 233.79 301.71C234.77 301.87 235.67 302.34 236.37 303.05C237.45 304.14 237.95 305.69 237.69 307.2C237.31 309.5 235.3 311.17 233.02 311.17L233.01 311.16ZM191.49 285.99C190.28 285.99 189.08 286.57 188.35 287.66C187.34 289.17 187.55 291.18 188.85 292.45C189.01 292.6 189.19 292.75 189.38 292.88L189.92 293.25C190.18 293.43 190.44 293.6 190.7 293.76C205.35 303.31 220.54 307.75 230.71 309.8L230.97 309.85C231.45 309.95 231.91 310.04 232.36 310.11C232.45 310.12 232.54 310.13 232.63 310.14C234.61 310.33 236.37 308.96 236.69 307.02C236.9 305.81 236.52 304.62 235.65 303.74C235.09 303.18 234.38 302.81 233.61 302.68C233.23 302.61 232.84 302.54 232.45 302.46L232.19 302.41C222.66 300.49 208.44 296.33 194.8 287.44C194.48 287.23 194.15 287.01 193.83 286.8L193.57 286.63C192.93 286.2 192.2 285.99 191.48 285.99H191.49Z" fill="#676D80"/>
</svg>
