<?xml version="1.0" encoding="UTF-8" standalone="no"?>
<!-- Generator: Adobe Illustrator 26.0.3, SVG Export Plug-In . SVG Version: 6.00 Build 0)  -->

<svg
   version="1.1"
   id="Слой_1"
   x="0px"
   y="0px"
   viewBox="0 0 464.53 977.49"
   style="enable-background:new 0 0 464.53 977.49;"
   xml:space="preserve"
   sodipodi:docname="Ж-05.svg"
   inkscape:version="1.1.1 (3bf5ae0d25, 2021-09-20)"
   xmlns:inkscape="http://www.inkscape.org/namespaces/inkscape"
   xmlns:sodipodi="http://sodipodi.sourceforge.net/DTD/sodipodi-0.dtd"
   xmlns="http://www.w3.org/2000/svg"
   xmlns:svg="http://www.w3.org/2000/svg"><defs
   id="defs1030">
	
	
	
	
	
	
	
	
	
	
	
	
	
	
	
	
	
	
	
	
	
	
	
	
	
	
	
	
	

		
		
		
	
		
		
		
	</defs><sodipodi:namedview
   id="namedview1028"
   pagecolor="#ffffff"
   bordercolor="#666666"
   borderopacity="1.0"
   inkscape:pageshadow="2"
   inkscape:pageopacity="0.0"
   inkscape:pagecheckerboard="0"
   showgrid="false"
   inkscape:zoom="0.82762995"
   inkscape:cx="430.74807"
   inkscape:cy="299.04669"
   inkscape:window-width="1920"
   inkscape:window-height="1017"
   inkscape:window-x="-8"
   inkscape:window-y="-8"
   inkscape:window-maximized="1"
   inkscape:current-layer="Слой_1" />
<style
   type="text/css"
   id="style928">
	.st0{fill:#F6D3BD;}
	.st1{fill:#C4A996;}
	.st2{fill:#ED1C24;}
	.st3{fill:#998475;}
	.st4{fill:#BDB7B2;}
	.st5{fill:#E7E3E0;}
	.st6{fill:#4F5260;}
	.st7{fill:#555968;}
	.st8{fill:url(#SVGID_1_);}
	.st9{fill:url(#SVGID_00000000912073599955803220000014439606192230105022_);}
	.st10{fill:url(#SVGID_00000046341982221209416040000018154175427098003103_);}
	.st11{fill:url(#SVGID_00000023968578070323461660000000133562314996654219_);}
	.st12{fill:#63687A;}
	.st13{fill:#AEA89F;}
	.st14{fill:none;stroke:#998475;stroke-width:2;stroke-miterlimit:10;}
	.st15{fill:#FFFFFF;}
	.st16{fill:#1D1D1B;}
	.st17{fill:#E6E6E6;}
	.st18{fill:#333333;}
	.st19{fill:#4D4D4D;}
	.st20{fill:#1A1A1A;}
	.st21{fill:#A8A199;}
	.st22{fill:#E2D6CE;}
	.st23{fill:url(#SVGID_00000129898247813021805740000000718419150197965208_);}
	.st24{fill:url(#SVGID_00000146475433253591386520000013227544551567692950_);}
	.st25{fill:url(#SVGID_00000120553139163635371530000012263167178546233747_);}
	.st26{fill:url(#SVGID_00000065063110966102264680000006136339085588573064_);}
	.st27{fill:#555451;}
	.st28{fill:#578BAA;}
	.st29{fill:#6BABD1;}
	.st30{fill:#A6A6A6;}
	.st31{fill:#F3EFF5;}
	.st32{fill:#D4D1D6;}
	.st33{fill:#848BA3;}
	.st34{fill:#676D80;}
	.st35{fill:#9FA7C4;}
	.st36{fill:#BEBBBF;}
	.st37{fill:url(#SVGID_00000145047326409501159190000012726238963726763425_);}
	.st38{fill:url(#SVGID_00000104693652998521254170000000002833923308748935_);}
	.st39{fill:url(#SVGID_00000001641862247443841900000004998043072694547091_);}
	.st40{fill:url(#SVGID_00000183959655715715744940000007095778963362801043_);}
	.st41{fill:url(#SVGID_00000139268507037453921240000009245869128266177939_);}
	.st42{fill:url(#SVGID_00000103237607766386744520000012664682575364568984_);}
	.st43{fill:url(#SVGID_00000026145431770776947880000009743155106790286257_);}
	.st44{fill:url(#SVGID_00000057854156029236863320000007791420090449877425_);}
	.st45{fill:url(#SVGID_00000111886266363766815220000000995179428094960256_);}
	.st46{fill:url(#SVGID_00000032613860557244671260000006188958547069354895_);}
	.st47{fill:url(#SVGID_00000083049858597654498450000002252727264400427915_);}
	.st48{fill:url(#SVGID_00000098212625612674439140000014905454215862184336_);}
	.st49{fill:url(#SVGID_00000048496802974847974700000008277856753913694621_);}
	.st50{fill:url(#SVGID_00000121986015630409296380000018339990185843198607_);}
</style>

<g
   id="g1008">
	<g
   id="g1006">
		<path
   class="st36"
   d="M360.37,266.76l1.91-0.56c4.98,15.95,6.12,33.97,6.35,39.14c-11.42,4.24-24.43,7.95-38.44,11.34    c-2.69-6.38-6.34-13.2-9.15-18.46l-0.86-1.61c-1.93-3.63-4.06-9.92-5.94-16.24l1.93-0.57    C329.83,273.02,344.64,268.83,360.37,266.76z"
   id="path1002" />
		<path
   class="st31"
   d="M324.3,282.63c0,0,9.36,22.98,10.7,26.81l29.87-9.51c0,0,1.62-5.41-4.22-28.68    C360.65,271.25,335.98,275.17,324.3,282.63z"
   id="path1004" />
	</g>
</g>
<radialGradient
   id="SVGID_1_"
   cx="344.688"
   cy="290.3474"
   r="13.3617"
   gradientUnits="userSpaceOnUse">
	<stop
   offset="0"
   style="stop-color:#ED1C24"
   id="stop1010" />
	<stop
   offset="1"
   style="stop-color:#F3EFF5"
   id="stop1012" />
</radialGradient>
<circle
   class="st8"
   cx="344.69"
   cy="290.35"
   r="13.36"
   id="circle1015" />
<g
   id="g1025">
	<path
   class="st2"
   d="M348,301.56c-0.1,0.13-0.2,0.25-0.3,0.38c-0.6,0.75-1.17,1.53-1.72,2.32c-0.63,0.91-1.24,1.84-1.79,2.81   c-0.35,0.61-0.68,1.23-0.96,1.87c-0.31,0.68-0.58,1.38-0.75,2.12c-0.12,0.5-0.17,1-0.13,1.51c0.05,0.77,0.25,1.51,0.6,2.2   c0.5,0.98,1.23,1.76,2.18,2.32c0.63,0.37,1.31,0.61,2.03,0.72c0.46,0.07,0.92,0.08,1.39,0.04c1.04-0.1,1.99-0.46,2.83-1.08   c0.81-0.6,1.42-1.36,1.82-2.29c0.2-0.46,0.34-0.93,0.41-1.43c0.11-0.7,0.07-1.4-0.1-2.08c-0.17-0.68-0.41-1.32-0.7-1.96   c-0.46-1.03-1.02-2.02-1.62-2.98c-0.72-1.16-1.5-2.28-2.33-3.37c-0.27-0.35-0.55-0.7-0.82-1.05   C348.03,301.58,348.02,301.57,348,301.56z M349.78,315.98c0,0,0-0.01-0.01-0.01c0.05-0.16,0.11-0.33,0.16-0.49   c0.17-0.57,0.31-1.14,0.41-1.73c0.05-0.29,0.09-0.59,0.12-0.89c0.04-0.4,0-0.8-0.04-1.2c-0.05-0.44-0.13-0.88-0.22-1.31   c-0.17-0.79-0.38-1.57-0.61-2.34c-0.2-0.67-0.41-1.34-0.61-2.02c-0.14-0.48-0.29-0.96-0.38-1.45c-0.02-0.08-0.03-0.16-0.04-0.25   c0.02,0.01,0.03,0.03,0.04,0.05c0.12,0.23,0.23,0.47,0.36,0.69c0.47,0.83,0.95,1.65,1.43,2.48c0.31,0.55,0.63,1.1,0.93,1.66   c0.27,0.51,0.51,1.04,0.69,1.6c0.1,0.31,0.17,0.62,0.19,0.94c0.03,0.54-0.04,1.07-0.19,1.58c-0.3,1.03-0.88,1.85-1.79,2.43   C350.07,315.82,349.92,315.9,349.78,315.98z"
   id="path1017" />
	<path
   class="st2"
   d="M342.18,324.55c-0.17-0.68-0.41-1.33-0.7-1.96c-0.46-1.03-1.02-2.02-1.62-2.98c-0.72-1.16-1.5-2.28-2.33-3.37   c-0.27-0.35-0.54-0.7-0.82-1.05c-0.01-0.01-0.02-0.02-0.03-0.03c-0.1,0.12-0.2,0.25-0.3,0.37c-0.6,0.76-1.17,1.53-1.72,2.32   c-0.63,0.91-1.24,1.84-1.79,2.81c-0.35,0.61-0.67,1.23-0.96,1.87c-0.31,0.68-0.58,1.38-0.75,2.11c-0.12,0.5-0.17,1-0.13,1.51   c0.05,0.78,0.24,1.51,0.59,2.2c0.51,0.99,1.23,1.76,2.18,2.33c0.63,0.37,1.31,0.61,2.03,0.72c0.46,0.07,0.93,0.08,1.39,0.03   c1.04-0.1,1.99-0.46,2.83-1.08c0.81-0.6,1.42-1.36,1.82-2.29c0.2-0.46,0.34-0.93,0.41-1.43   C342.39,325.93,342.35,325.24,342.18,324.55z M340.67,326.9c-0.3,1.03-0.88,1.85-1.79,2.43c-0.14,0.09-0.28,0.17-0.43,0.25v-0.01   c0.05-0.16,0.11-0.33,0.16-0.49c0.17-0.57,0.31-1.14,0.41-1.73c0.05-0.29,0.09-0.59,0.12-0.89c0.04-0.4,0-0.8-0.05-1.2   c-0.04-0.44-0.12-0.87-0.21-1.31c-0.17-0.79-0.38-1.57-0.62-2.34c-0.2-0.67-0.41-1.34-0.61-2.02c-0.15-0.47-0.29-0.95-0.38-1.44   c-0.02-0.08-0.03-0.17-0.04-0.25c0.02,0.02,0.02,0.03,0.03,0.05c0.12,0.23,0.23,0.47,0.36,0.69c0.47,0.83,0.96,1.66,1.43,2.48   c0.31,0.55,0.63,1.1,0.93,1.66c0.27,0.51,0.51,1.04,0.68,1.6c0.1,0.3,0.17,0.62,0.19,0.94   C340.88,325.85,340.82,326.38,340.67,326.9z"
   id="path1019" />
	<path
   class="st15"
   d="M340.85,325.32c0.03,0.53-0.03,1.06-0.18,1.58c-0.3,1.03-0.88,1.85-1.79,2.43c-0.14,0.09-0.28,0.17-0.43,0.25   v-0.01c0.05-0.16,0.11-0.33,0.16-0.49c0.17-0.57,0.31-1.14,0.41-1.73c0.05-0.29,0.09-0.59,0.12-0.89c0.04-0.4,0-0.8-0.05-1.2   c-0.04-0.44-0.12-0.87-0.21-1.31c-0.17-0.79-0.38-1.57-0.62-2.34c-0.2-0.67-0.41-1.34-0.61-2.02c-0.15-0.47-0.29-0.95-0.38-1.44   c-0.02-0.08-0.03-0.17-0.04-0.25c0.02,0.02,0.02,0.03,0.03,0.05c0.12,0.23,0.23,0.47,0.36,0.69c0.47,0.83,0.96,1.66,1.43,2.48   c0.31,0.55,0.63,1.1,0.93,1.66c0.27,0.51,0.51,1.04,0.68,1.6C340.76,324.68,340.83,325,340.85,325.32z"
   id="path1021" />
	<path
   class="st15"
   d="M349.78,315.98c0.14-0.08,0.29-0.16,0.42-0.25c0.91-0.58,1.49-1.4,1.79-2.43c0.15-0.52,0.22-1.05,0.19-1.58   c-0.02-0.32-0.09-0.63-0.19-0.94c-0.17-0.56-0.41-1.08-0.69-1.6c-0.3-0.56-0.61-1.11-0.93-1.66c-0.47-0.83-0.95-1.65-1.43-2.48   c-0.13-0.23-0.24-0.46-0.36-0.69c-0.01-0.02-0.02-0.03-0.04-0.05c0.01,0.08,0.02,0.16,0.04,0.25c0.09,0.49,0.24,0.97,0.38,1.45   c0.2,0.67,0.41,1.34,0.61,2.02c0.23,0.77,0.44,1.55,0.61,2.34c0.09,0.43,0.17,0.87,0.22,1.31c0.04,0.4,0.08,0.8,0.04,1.2   c-0.03,0.3-0.07,0.59-0.12,0.89c-0.1,0.58-0.24,1.16-0.41,1.73c-0.05,0.16-0.11,0.33-0.16,0.49   C349.78,315.97,349.78,315.98,349.78,315.98z"
   id="path1023" />
</g>
</svg>
