<svg width="620" height="1074" viewBox="0 0 620 1074" fill="none" xmlns="http://www.w3.org/2000/svg">
<path d="M162.28 369.93C159.93 373.62 157.55 377.65 155.55 381.68C149.61 393.64 147.69 406.78 146.3 416.37C146.2 417.02 146.11 417.65 146.02 418.27C158.71 421.68 175.87 427.92 187.54 432.35C191.62 424.79 195.93 416.52 197.47 412.58C200.19 405.64 204.34 394.4 206.58 385.31C190.19 376.38 172.96 371.98 162.28 369.93V369.93Z" fill="#9FA7C4"/>
<path d="M170.17 371.64C163.27 378.91 157.76 389.72 153.83 399.26C150.2 408.08 147.91 415.79 147.13 418.59C147.08 418.57 147.04 418.56 146.99 418.55C146.66 418.45 146.34 418.37 146.02 418.28C146.11 417.66 146.2 417.03 146.3 416.38C147.69 406.79 149.61 393.65 155.55 381.69C157.55 377.65 159.93 373.62 162.28 369.93C162.62 370 162.97 370.06 163.33 370.14C165.41 370.55 167.7 371.05 170.17 371.64V371.64Z" fill="#848BA3"/>
<path d="M206.58 385.32C204.34 394.41 200.19 405.64 197.47 412.59C195.93 416.52 191.61 424.8 187.54 432.36C187.23 432.24 186.91 432.12 186.59 432C184.15 431.08 181.49 430.08 178.7 429.06C183.95 414.24 188.67 397.32 186.42 389.14C184.67 382.8 183.32 378.24 182.33 375.05C189.72 377.44 197.77 380.62 205.67 384.84C205.97 384.99 206.28 385.16 206.58 385.32V385.32Z" fill="#848BA3"/>
<path d="M164.09 373.95C162.04 377.16 159.97 380.67 158.23 384.19C153.06 394.61 151.38 406.06 150.17 414.41C150.09 414.98 150.01 415.53 149.92 416.07C160.98 419.04 175.93 424.47 186.09 428.33C189.64 421.75 193.4 414.54 194.74 411.11C197.11 405.06 200.73 395.27 202.68 387.35C188.4 379.57 173.39 375.74 164.08 373.95H164.09Z" fill="#F3EFF5"/>
<path d="M167.55 374.66C161.86 381.71 157.25 390.96 153.83 399.26C153.09 401.07 152.4 402.82 151.77 404.5C153.01 398.04 154.89 390.9 158.22 384.19C159.97 380.68 162.04 377.16 164.09 373.95C165.17 374.16 166.33 374.39 167.55 374.66Z" fill="#848BA3"/>
<path d="M202.68 387.35C200.73 395.28 197.11 405.06 194.74 411.11C193.4 414.54 189.64 421.76 186.09 428.34C184.14 427.6 182.02 426.8 179.78 425.97C184.57 411.95 188.52 396.76 186.42 389.14C185.31 385.1 184.35 381.78 183.55 379.08C189.68 381.15 196.25 383.85 202.68 387.35V387.35Z" fill="#848BA3"/>
<path d="M164.09 373.95C165.17 374.16 166.33 374.39 167.55 374.66C161.86 381.71 157.25 390.96 153.83 399.26C153.09 401.07 152.4 402.82 151.77 404.5C153.01 398.04 154.89 390.9 158.22 384.19C159.97 380.68 162.04 377.16 164.09 373.95Z" fill="#C4C2C6"/>
<path d="M202.68 387.35C200.73 395.28 197.11 405.06 194.74 411.11C193.4 414.54 189.64 421.76 186.09 428.34C184.14 427.6 182.02 426.8 179.78 425.97C184.57 411.95 188.52 396.76 186.42 389.14C185.31 385.1 184.35 381.78 183.55 379.08C189.68 381.15 196.25 383.85 202.68 387.35V387.35Z" fill="#C4C2C6"/>
</svg>
