<svg width="620" height="1074" viewBox="0 0 620 1074" fill="none" xmlns="http://www.w3.org/2000/svg">
<path d="M207.59 380.62C206.32 387.82 203.05 397.64 200.14 405.56L153.4 386.47C154.05 384.86 154.77 383.27 155.55 381.69C158.75 375.24 162.9 368.8 166.39 363.78L207.59 380.62V380.62Z" fill="#F3EFF5"/>
<path d="M200.13 405.57C199.18 408.17 198.26 410.56 197.47 412.59C196.15 415.97 192.78 422.55 189.27 429.12L146.98 411.84C148.14 404.27 149.85 395.23 153.4 386.47L200.13 405.57V405.57Z" fill="#F3EFF5"/>
<path d="M189.27 429.12C186.8 433.77 184.25 438.42 182.3 441.93C180.47 445.24 178.52 448.72 176.68 451.98L169.79 449.16L141.9 437.77C143.6 430.91 145.03 424.61 145.63 420.83C145.85 419.44 146.07 417.95 146.3 416.38C146.51 414.94 146.73 413.42 146.98 411.84L189.27 429.12Z" fill="#F3EFF5"/>
<path d="M173.81 457.02C171.39 461.24 170.43 462.92 169.89 463.59H169.91C169.61 464.09 167.46 468.78 164.62 475.04L135.1 462.98C137.01 456.51 139.69 446.67 141.9 437.77L169.79 449.16L176.68 451.98C175.68 453.74 174.71 455.44 173.81 457.02Z" fill="#F3EFF5"/>
<path d="M146.82 419.71H146.81C148.34 409.65 149.91 395.29 156.44 382.13C159.67 375.63 163.85 369.16 167.33 364.16L173.81 366.81C173.68 367.77 173.67 368.37 173.67 368.37C156.56 382.29 146.82 419.71 146.82 419.71V419.71Z" fill="#C4A996"/>
<path d="M207.59 380.62C206.32 387.82 203.05 397.64 200.14 405.56H200.13C199.18 408.17 198.26 410.56 197.47 412.59C196.15 415.97 192.78 422.55 189.27 429.12C186.8 433.77 184.25 438.42 182.3 441.93C180.47 445.24 178.52 448.72 176.68 451.98C175.68 453.74 174.71 455.44 173.81 457.02C171.39 461.24 170.43 462.92 169.89 463.59H169.91C169.61 464.09 167.46 468.78 164.62 475.04L163.69 474.66L159.83 473.08C162.37 467.51 165.06 461.81 167.75 456.39C167.75 456.39 190.9 405.42 186.42 389.14C183.17 377.32 181.28 371.72 180.49 369.54L206.64 380.23L207.59 380.62Z" fill="#DCDCDC"/>
<path d="M173.81 366.81C173.68 367.77 173.67 368.37 173.67 368.37C156.56 382.29 146.82 419.71 146.82 419.71H146.81C148.34 409.65 149.91 395.29 156.44 382.13C159.67 375.63 163.85 369.16 167.33 364.16L173.81 366.81V366.81Z" fill="#DCDCDC"/>
<path d="M200.72 406.88L152.1 387.02L152.47 386.1C153.11 384.53 153.84 382.89 154.65 381.25C157.34 375.83 161.01 369.77 165.57 363.21L166.03 362.55L208.72 380L208.58 380.79C207.26 388.28 203.77 398.58 201.08 405.9L200.72 406.87V406.88ZM154.71 385.93L199.56 404.25C202.07 397.35 205.13 388.19 206.46 381.25L166.76 365.02C162.47 371.24 159 377 156.45 382.15C155.82 383.43 155.24 384.7 154.71 385.94V385.93Z" fill="#D4D1D6"/>
<path d="M189.73 430.38L145.88 412.46L146 411.68C147.1 404.49 148.83 395.09 152.48 386.09L152.86 385.16L201.41 405L201.08 405.9C200.09 408.6 199.14 411.08 198.41 412.94C197.26 415.9 194.48 421.49 190.16 429.58L189.74 430.38H189.73ZM148.09 411.21L188.81 427.85C192.8 420.36 195.46 414.97 196.54 412.22C197.18 410.58 198 408.45 198.86 406.12L153.96 387.77C150.77 395.98 149.14 404.49 148.09 411.21V411.21Z" fill="#D4D1D6"/>
<path d="M177.12 453.24L140.72 438.37L140.93 437.53C142.82 429.91 144.1 424.08 144.64 420.67C144.86 419.28 145.08 417.8 145.31 416.23L145.36 415.88C145.55 414.54 145.76 413.14 145.99 411.68L146.19 410.43L190.67 428.61L190.15 429.59C187.52 434.54 184.9 439.3 183.17 442.42C181.34 445.73 179.39 449.21 177.55 452.48L177.12 453.25V453.24ZM143.08 437.17L176.24 450.72C177.95 447.69 179.74 444.49 181.42 441.45C183.03 438.54 185.42 434.21 187.86 429.63L147.77 413.25C147.62 414.26 147.48 415.23 147.34 416.18L147.29 416.53C147.06 418.1 146.84 419.6 146.62 420.99C145.96 425.14 144.37 431.92 143.08 437.17V437.17Z" fill="#D4D1D6"/>
<path d="M165.13 476.33L133.88 463.56L134.14 462.69C136.2 455.71 138.86 445.83 140.93 437.52L141.21 436.4L178.11 451.48L174.52 457.79C172.35 461.57 171.42 463.19 170.83 464L170.76 464.12C170.51 464.54 168.75 468.35 165.53 475.45L165.13 476.33V476.33ZM136.31 462.4L164.1 473.75C166.76 467.89 167.98 465.25 168.56 464.04L168.35 463.93L169.1 462.96C169.58 462.37 170.58 460.62 172.77 456.8L175.23 452.47L142.57 439.13C140.63 446.88 138.23 455.78 136.29 462.39L136.31 462.4Z" fill="#D4D1D6"/>
</svg>
