<?xml version="1.0" encoding="UTF-8" standalone="no"?>
<!-- Generator: Adobe Illustrator 26.0.3, SVG Export Plug-In . SVG Version: 6.00 Build 0)  -->

<svg
   version="1.1"
   id="Слой_1"
   x="0px"
   y="0px"
   viewBox="0 0 464.53 977.49"
   style="enable-background:new 0 0 464.53 977.49;"
   xml:space="preserve"
   sodipodi:docname="Ж-04 Шина рука после остановки кровотечения.svg"
   inkscape:version="1.1.1 (3bf5ae0d25, 2021-09-20)"
   xmlns:inkscape="http://www.inkscape.org/namespaces/inkscape"
   xmlns:sodipodi="http://sodipodi.sourceforge.net/DTD/sodipodi-0.dtd"
   xmlns="http://www.w3.org/2000/svg"
   xmlns:svg="http://www.w3.org/2000/svg"><defs
   id="defs2060">
	
	
	

		
		
			<radialGradient
   id="SVGID_1_"
   cx="349.07971"
   cy="319.52429"
   r="15.9097"
   gradientTransform="matrix(0.9524,-0.3448,0.5446,1.5043,-154.0124,-40.6935)"
   gradientUnits="userSpaceOnUse">
			<stop
   offset="0"
   style="stop-color:#ED1C24"
   id="stop1900" />
			<stop
   offset="1"
   style="stop-color:#F6D3BD"
   id="stop1902" />
		</radialGradient>
		
		
		
		
		
		
		
		
		
		
		
		
		
		
		
		
		
		
		
		
		
		
		
		
		
		
		
		
		
	
		
		
		
	
		
		
	</defs><sodipodi:namedview
   id="namedview2058"
   pagecolor="#ffffff"
   bordercolor="#666666"
   borderopacity="1.0"
   inkscape:pageshadow="2"
   inkscape:pageopacity="0.0"
   inkscape:pagecheckerboard="0"
   showgrid="false"
   inkscape:zoom="0.85115961"
   inkscape:cx="232.03639"
   inkscape:cy="395.34301"
   inkscape:window-width="1920"
   inkscape:window-height="1017"
   inkscape:window-x="-8"
   inkscape:window-y="-8"
   inkscape:window-maximized="1"
   inkscape:current-layer="Слой_1" />
<style
   type="text/css"
   id="style1896">
	.st0{fill:#F6D3BD;}
	.st1{fill:#C4A996;}
	.st2{fill:#ED1C24;}
	.st3{fill:#998475;}
	.st4{fill:#BDB7B2;}
	.st5{fill:#E7E3E0;}
	.st6{fill:#4F5260;}
	.st7{fill:#555968;}
	.st8{fill:url(#SVGID_1_);}
	.st9{fill:url(#SVGID_00000079462933260304692840000002698832112279850675_);}
	.st10{fill:url(#SVGID_00000052823494962829798560000012774951549524838587_);}
	.st11{fill:url(#SVGID_00000072983898213153776350000003559111905667556266_);}
	.st12{fill:#63687A;}
	.st13{fill:#AEA89F;}
	.st14{fill:none;stroke:#998475;stroke-width:2;stroke-miterlimit:10;}
	.st15{fill:#FFFFFF;}
	.st16{fill:#1D1D1B;}
	.st17{fill:#E6E6E6;}
	.st18{fill:#333333;}
	.st19{fill:#4D4D4D;}
	.st20{fill:#1A1A1A;}
	.st21{fill:#A8A199;}
	.st22{fill:#E2D6CE;}
	.st23{fill:url(#SVGID_00000112602763002006969220000004514874628186325943_);}
	.st24{fill:url(#SVGID_00000098192954488602297680000000737436847480589228_);}
	.st25{fill:url(#SVGID_00000107548016011581922650000005054253275878083981_);}
	.st26{fill:url(#SVGID_00000004534272381425230280000006138403982622534797_);}
	.st27{fill:#555451;}
	.st28{fill:#578BAA;}
	.st29{fill:#6BABD1;}
	.st30{fill:#A6A6A6;}
	.st31{fill:#F3EFF5;}
	.st32{fill:#D4D1D6;}
	.st33{fill:#848BA3;}
	.st34{fill:#676D80;}
	.st35{fill:#9FA7C4;}
	.st36{fill:#BEBBBF;}
	.st37{fill:url(#SVGID_00000181805053462846379400000002839586769355308732_);}
	.st38{fill:url(#SVGID_00000174580998264535499000000001123063361127824268_);}
	.st39{fill:url(#SVGID_00000034796833267466229020000013253471867673134519_);}
	.st40{fill:url(#SVGID_00000182497287825534841580000011403189696896587919_);}
	.st41{fill:url(#SVGID_00000103955366365368636660000015027849691630637981_);}
	.st42{fill:url(#SVGID_00000157308808562951173600000000957241523412190111_);}
	.st43{fill:url(#SVGID_00000092436226276615222650000001756657810526876546_);}
	.st44{fill:url(#SVGID_00000156574111348887847570000003745170742103393928_);}
	.st45{fill:url(#SVGID_00000093855039645460915570000011848272778501362835_);}
	.st46{fill:url(#SVGID_00000174594232410209966740000004385325323533772417_);}
	.st47{fill:url(#SVGID_00000005948464771470271870000015926024632633584015_);}
	.st48{fill:url(#SVGID_00000048497867119154154340000008003590592648964281_);}
	.st49{fill:url(#SVGID_00000092448696194081401380000007555210392363969177_);}
	.st50{fill:url(#SVGID_00000157280197327005879540000005097253049344452543_);}
</style>
<g
   id="g1983">
			<path
   class="st35"
   d="m 351.36,236.31 c -13.29,4.33 -27.35,7.05 -42.08,8.16 0,0 -5.01,-2.92 -0.92,-10.97 v -0.01 c 14.58,-1.08 28.43,-3.84 41.47,-8.27 0,0 5.9,3.33 1.53,11.09 z"
   id="path1977" />
			<path
   class="st35"
   d="m 354.84,246.44 c -14.21,4.76 -29.29,7.67 -45.16,8.71 -0.3,-0.22 -5.3,-4.15 -0.41,-10.68 14.73,-1.11 28.79,-3.83 42.08,-8.16 -0.01,0 -0.01,0.01 -0.01,0.01 0,0 7.29,2.61 3.5,10.12 z"
   id="path1979" />
			<path
   class="st35"
   d="m 358.63,255.98 c -15.1,5.28 -31.2,8.45 -48.2,9.49 0,0 -4.65,-5.2 -0.73,-10.31 0,0 0,0 -0.01,-0.01 15.87,-1.04 30.95,-3.95 45.16,-8.71 -0.01,0 6.17,0.82 3.78,9.54 z"
   id="path1981" />
		</g><g
   id="g1997">
			<path
   class="st33"
   d="m 311.38,233.24 c 0.39,2.95 0.94,6.76 1.64,10.91 -1.24,0.12 -2.49,0.22 -3.75,0.32 0,0 -5.01,-2.92 -0.92,-10.97 v -0.01 c 1.02,-0.08 2.03,-0.16 3.03,-0.25 z"
   id="path1985" />
			<path
   class="st33"
   d="m 351.36,236.31 c -1.72,0.56 -3.45,1.09 -5.2,1.6 -1.11,-3.52 -2.38,-7.08 -3.83,-10.36 2.53,-0.71 5.03,-1.49 7.5,-2.33 0,0 5.9,3.33 1.53,11.09 z"
   id="path1987" />
			<path
   class="st33"
   d="m 313.02,244.15 c 0.57,3.39 1.24,7.01 2.02,10.57 -1.77,0.17 -3.56,0.31 -5.36,0.43 -0.3,-0.22 -5.3,-4.15 -0.41,-10.68 1.27,-0.1 2.52,-0.2 3.75,-0.32 z"
   id="path1989" />
			<path
   class="st33"
   d="m 354.84,246.44 c -1.92,0.64 -3.86,1.25 -5.81,1.83 -0.78,-3.16 -1.74,-6.73 -2.88,-10.36 1.75,-0.51 3.48,-1.04 5.2,-1.6 -0.01,0 -0.01,0.01 -0.01,0.01 0,0 7.29,2.61 3.5,10.12 z"
   id="path1991" />
			<path
   class="st33"
   d="m 315.04,254.72 c 0.77,3.54 1.65,7.02 2.62,10.17 -2.39,0.24 -4.81,0.43 -7.24,0.58 0,0 -4.65,-5.2 -0.73,-10.31 0,0 0,0 -0.01,-0.01 1.8,-0.12 3.59,-0.26 5.36,-0.43 z"
   id="path1993" />
			<path
   class="st33"
   d="m 358.63,255.98 c -2.44,0.85 -4.9,1.65 -7.39,2.39 -0.29,-1.55 -1.03,-5.35 -2.2,-10.1 1.95,-0.58 3.89,-1.19 5.81,-1.83 -0.01,0 6.17,0.82 3.78,9.54 z"
   id="path1995" />
		</g><g
   id="g2005">
			<path
   class="st34"
   d="m 309.27,244.97 c -0.09,0 -0.17,-0.02 -0.25,-0.07 -0.05,-0.03 -5.36,-3.25 -1.13,-11.6 0.07,-0.17 0.23,-0.29 0.42,-0.31 14.49,-1.07 28.4,-3.85 41.35,-8.24 0.14,-0.04 0.28,-0.03 0.41,0.04 0.06,0.04 6.28,3.67 1.72,11.77 -0.06,0.11 -0.16,0.19 -0.28,0.23 -13.25,4.32 -27.45,7.07 -42.2,8.18 -0.01,0 -0.02,0 -0.04,0 z m -0.59,-11 c -3.3,6.71 0.01,9.49 0.73,9.99 14.54,-1.11 28.53,-3.82 41.61,-8.06 3.52,-6.42 -0.33,-9.5 -1.25,-10.12 -12.88,4.34 -26.7,7.1 -41.09,8.19 z m 42.67,2.34 z"
   id="path1999" />
			<path
   class="st34"
   d="m 309.68,255.65 c -0.11,0 -0.21,-0.03 -0.3,-0.1 -0.09,-0.07 -2.25,-1.68 -2.67,-4.57 -0.32,-2.17 0.41,-4.47 2.16,-6.81 0.09,-0.12 0.22,-0.19 0.36,-0.2 14.67,-1.11 28.79,-3.84 41.96,-8.14 v 0 c 0.14,-0.05 0.31,-0.02 0.43,0.06 0.61,0.25 3.28,1.45 4.36,4.15 0.77,1.94 0.54,4.16 -0.7,6.62 -0.06,0.12 -0.16,0.21 -0.29,0.25 -14.2,4.76 -29.44,7.7 -45.29,8.74 0.01,0 0,0 -0.02,0 z m -0.14,-10.7 c -1.49,2.06 -2.11,4.04 -1.84,5.88 0.31,2.09 1.7,3.43 2.14,3.8 15.62,-1.04 30.64,-3.93 44.64,-8.61 1.02,-2.11 1.22,-4 0.58,-5.61 -0.89,-2.24 -3.16,-3.33 -3.75,-3.58 -13.12,4.28 -27.18,7 -41.77,8.12 z m 45.3,1.49 z"
   id="path2001" />
			<path
   class="st34"
   d="m 310.42,265.97 c -0.14,0 -0.28,-0.06 -0.37,-0.17 -0.05,-0.05 -4.84,-5.53 -0.81,-10.88 0.08,-0.15 0.23,-0.26 0.41,-0.27 15.76,-1.03 30.91,-3.96 45.03,-8.68 0.07,-0.03 0.15,-0.03 0.22,-0.02 0.09,0.01 2.32,0.33 3.71,2.42 1.23,1.86 1.4,4.46 0.49,7.75 -0.04,0.16 -0.16,0.29 -0.32,0.34 -15.09,5.28 -31.35,8.48 -48.33,9.52 0,-0.01 -0.02,-0.01 -0.03,-0.01 z m -0.46,-10.34 c -3.06,4.2 -0.06,8.4 0.68,9.32 16.71,-1.04 32.71,-4.19 47.57,-9.36 0.75,-2.86 0.6,-5.1 -0.42,-6.66 -0.97,-1.48 -2.5,-1.89 -2.91,-1.98 -14.09,4.71 -29.2,7.63 -44.92,8.68 z m 48.67,0.35 z"
   id="path2003" />
		</g><g
   id="g2029">
			<path
   class="st27"
   d="m 349.74,206.99 -7.7,1.97 33.19,89.06 C 349.2,310.96 324.96,317.47 318.88,319 l -6.34,-17.06 -7.38,2.69 84.12,226.22 7.36,-2.74 -15.03,-40.41 c 4.19,-1.06 15.02,-3.99 28.76,-9.1 8.39,-3.12 17.86,-7.06 27.59,-11.88 l 15.04,40.44 7.34,-2.73 z m -29.9,114.58 c 1.3,-0.33 3.25,-0.84 5.73,-1.55 0.58,-0.16 1.18,-0.33 1.81,-0.51 0.19,-0.06 0.39,-0.12 0.59,-0.18 0.28,-0.08 0.57,-0.16 0.86,-0.25 0.52,-0.16 1.04,-0.31 1.59,-0.48 1.19,-0.36 2.47,-0.75 3.8,-1.18 0.42,-0.13 0.85,-0.27 1.28,-0.41 1.1,-0.36 2.24,-0.73 3.42,-1.13 0.69,-0.22 1.38,-0.46 2.08,-0.7 0.48,-0.17 0.97,-0.33 1.46,-0.51 0.77,-0.26 1.56,-0.54 2.35,-0.82 1.24,-0.44 2.5,-0.9 3.79,-1.38 1.05,-0.39 2.11,-0.8 3.19,-1.21 0.54,-0.21 1.09,-0.42 1.64,-0.64 0.3,-0.11 0.59,-0.23 0.89,-0.35 0.3,-0.12 0.61,-0.24 0.92,-0.36 0.5,-0.2 1,-0.4 1.51,-0.61 0.73,-0.3 1.47,-0.6 2.21,-0.91 0.41,-0.16 0.82,-0.34 1.23,-0.51 0.56,-0.23 1.13,-0.47 1.7,-0.72 1.06,-0.45 2.12,-0.92 3.2,-1.38 0.21,-0.1 0.41,-0.19 0.62,-0.28 0.48,-0.21 0.96,-0.43 1.45,-0.65 2.96,-1.34 5.98,-2.76 9.02,-4.26 h 0.01 l 4.2,11.3 h -0.01 c -1.19,0.58 -2.37,1.16 -3.54,1.72 -1.17,0.56 -2.35,1.11 -3.51,1.64 -0.46,0.22 -0.91,0.42 -1.36,0.63 -0.46,0.21 -0.9,0.41 -1.35,0.61 -0.91,0.4 -1.8,0.8 -2.69,1.19 -0.89,0.39 -1.78,0.77 -2.65,1.13 -1.76,0.75 -3.49,1.46 -5.19,2.14 -1.26,0.52 -2.51,1.01 -3.75,1.48 h -0.01 c -0.41,0.17 -0.82,0.32 -1.23,0.48 -0.95,0.36 -1.89,0.72 -2.81,1.06 -0.92,0.34 -1.83,0.67 -2.72,0.99 -1.03,0.37 -2.03,0.72 -3,1.06 -0.99,0.34 -1.95,0.67 -2.88,0.99 -0.66,0.22 -1.31,0.43 -1.94,0.64 -0.72,0.24 -1.42,0.47 -2.12,0.69 -1.8,0.58 -3.5,1.11 -5.06,1.59 -1.06,0.31 -2.06,0.61 -2.99,0.88 -3.45,1 -6.04,1.67 -7.54,2.05 z m 5.15,13.86 c 4.19,-1.07 15.01,-3.99 28.76,-9.1 8.38,-3.12 17.86,-7.06 27.59,-11.88 l 12.06,32.43 c -26.03,12.93 -50.27,19.45 -56.35,20.98 z M 338,370.42 v 0 c 1.61,-0.4 4.19,-1.08 7.55,-2.06 0.23,-0.07 0.47,-0.14 0.71,-0.21 0.24,-0.07 0.49,-0.14 0.73,-0.21 0.26,-0.08 0.52,-0.16 0.79,-0.24 0.27,-0.08 0.53,-0.17 0.81,-0.25 0.89,-0.27 1.83,-0.56 2.81,-0.86 0.33,-0.11 0.66,-0.21 0.99,-0.32 0.21,-0.06 0.42,-0.13 0.63,-0.2 0.21,-0.06 0.43,-0.13 0.65,-0.2 1.1,-0.36 2.24,-0.73 3.42,-1.13 0.68,-0.23 1.38,-0.46 2.08,-0.71 0.48,-0.16 0.96,-0.33 1.46,-0.5 0.77,-0.27 1.55,-0.54 2.34,-0.83 1.24,-0.44 2.5,-0.9 3.79,-1.38 2.93,-1.09 5.99,-2.28 9.14,-3.57 0.27,-0.11 0.53,-0.22 0.8,-0.33 0.86,-0.35 1.72,-0.71 2.59,-1.08 0.84,-0.35 1.67,-0.71 2.51,-1.08 0.11,-0.04 0.22,-0.09 0.33,-0.14 0.65,-0.28 1.31,-0.57 1.97,-0.87 0.41,-0.18 0.82,-0.36 1.23,-0.55 0.1,-0.04 0.2,-0.09 0.3,-0.13 0.55,-0.25 1.1,-0.5 1.66,-0.76 2.34,-1.07 4.69,-2.19 7.06,-3.37 l 3.93,10.56 c -2.38,1.17 -4.73,2.3 -7.06,3.37 -0.9,0.42 -1.8,0.83 -2.69,1.23 -0.45,0.2 -0.9,0.4 -1.35,0.59 -0.48,0.22 -0.98,0.44 -1.47,0.65 -0.57,0.25 -1.14,0.49 -1.7,0.74 -0.26,0.11 -0.52,0.22 -0.79,0.33 -1.48,0.63 -2.95,1.24 -4.4,1.82 -0.25,0.1 -0.5,0.2 -0.75,0.3 -4.8,1.93 -9.35,3.62 -13.53,5.07 -0.07,0.03 -0.13,0.05 -0.2,0.07 -0.81,0.28 -1.6,0.55 -2.38,0.82 -1.06,0.36 -2.08,0.69 -3.07,1.02 -0.48,0.15 -0.95,0.31 -1.41,0.46 -0.66,0.2 -1.31,0.41 -1.93,0.61 -1.07,0.34 -2.1,0.65 -3.08,0.95 -1.06,0.32 -2.06,0.61 -3,0.89 -3.45,0.99 -6.05,1.67 -7.54,2.05 z m 20.57,55.31 -0.96,-2.57 -14.73,-39.62 c 4.19,-1.06 15.01,-3.99 28.76,-9.1 8.39,-3.12 17.86,-7.06 27.59,-11.88 l 14.73,39.62 0.96,2.57 4.2,11.29 c -1.19,0.59 -2.37,1.17 -3.55,1.73 -1.18,0.56 -2.34,1.1 -3.51,1.64 -0.91,0.42 -1.81,0.84 -2.71,1.24 -0.9,0.4 -1.8,0.8 -2.68,1.19 -0.14,0.06 -0.27,0.12 -0.41,0.17 -0.75,0.33 -1.5,0.65 -2.25,0.96 -1.75,0.75 -3.49,1.46 -5.18,2.14 -0.85,0.34 -1.69,0.68 -2.53,1 -0.84,0.33 -1.65,0.65 -2.47,0.96 -0.94,0.36 -1.88,0.72 -2.8,1.06 -0.92,0.34 -1.83,0.67 -2.73,0.99 -1.03,0.36 -2.02,0.72 -3,1.06 -0.99,0.34 -1.94,0.67 -2.88,0.99 -0.65,0.22 -1.31,0.43 -1.94,0.64 -0.72,0.24 -1.42,0.47 -2.12,0.69 -1.8,0.58 -3.5,1.11 -5.06,1.58 -0.53,0.16 -1.04,0.32 -1.54,0.46 -0.49,0.15 -0.98,0.29 -1.45,0.43 -3.45,1 -6.04,1.67 -7.54,2.05 z m 5.15,13.85 c 4.19,-1.06 15.01,-3.99 28.76,-9.1 8.38,-3.12 17.86,-7.05 27.59,-11.87 l 12.06,32.43 c -26.03,12.93 -50.27,19.44 -56.35,20.97 z m 66.24,27.95 c -0.07,0.03 -0.13,0.06 -0.2,0.09 -0.59,0.27 -1.19,0.54 -1.79,0.81 -0.59,0.27 -1.17,0.54 -1.77,0.79 -0.59,0.27 -1.18,0.52 -1.76,0.78 -1.17,0.5 -2.33,1 -3.48,1.48 -0.23,0.1 -0.45,0.2 -0.68,0.29 -0.11,0.04 -0.23,0.09 -0.34,0.13 -0.11,0.05 -0.23,0.11 -0.35,0.15 -0.11,0.05 -0.23,0.1 -0.34,0.14 -0.57,0.24 -1.14,0.47 -1.7,0.69 -0.4,0.17 -0.8,0.33 -1.19,0.49 -0.39,0.16 -0.78,0.31 -1.17,0.46 l -0.91,0.36 -0.06,0.02 c -1.1,0.43 -2.18,0.85 -3.24,1.25 -1.13,0.42 -2.24,0.84 -3.33,1.23 -0.13,0.05 -0.25,0.1 -0.38,0.14 -1.37,0.5 -2.71,0.98 -4.02,1.43 -0.35,0.13 -0.7,0.25 -1.04,0.36 -0.12,0.04 -0.23,0.08 -0.35,0.12 -0.26,0.1 -0.54,0.19 -0.81,0.28 -0.23,0.08 -0.46,0.16 -0.69,0.23 -1.05,0.36 -2.08,0.7 -3.07,1.03 -0.37,0.12 -0.73,0.23 -1.08,0.35 -0.06,0.02 -0.13,0.04 -0.19,0.05 -0.08,0.03 -0.16,0.06 -0.24,0.08 -0.53,0.17 -1.04,0.33 -1.54,0.49 -0.57,0.18 -1.13,0.35 -1.68,0.52 -0.14,0.04 -0.28,0.09 -0.42,0.13 -0.07,0.02 -0.14,0.04 -0.2,0.07 -0.07,0.02 -0.14,0.03 -0.2,0.05 -0.1,0.03 -0.21,0.07 -0.31,0.1 -0.07,0.02 -0.15,0.05 -0.23,0.07 -0.53,0.16 -1.04,0.31 -1.54,0.46 -0.5,0.14 -0.99,0.29 -1.46,0.43 -0.43,0.12 -0.85,0.24 -1.25,0.35 -1.21,0.34 -2.3,0.64 -3.25,0.9 -0.26,0.07 -0.51,0.14 -0.75,0.2 -0.13,0.04 -0.26,0.07 -0.38,0.1 -0.12,0.03 -0.23,0.06 -0.34,0.09 -0.08,0.02 -0.16,0.05 -0.24,0.07 -0.13,0.03 -0.25,0.06 -0.37,0.09 -0.36,0.1 -0.68,0.18 -0.96,0.25 l -3.92,-10.55 c 0.1,-0.03 0.2,-0.05 0.31,-0.08 0.22,-0.06 0.45,-0.12 0.69,-0.18 0.25,-0.06 0.51,-0.13 0.78,-0.2 0.41,-0.11 0.86,-0.23 1.33,-0.36 0.32,-0.08 0.65,-0.17 0.99,-0.27 0.07,-0.02 0.15,-0.04 0.22,-0.06 0.23,-0.06 0.46,-0.13 0.7,-0.19 0.78,-0.22 1.62,-0.46 2.52,-0.72 0.19,-0.06 0.39,-0.12 0.59,-0.18 0.04,-0.01 0.08,-0.02 0.11,-0.03 0.03,-0.01 0.07,-0.02 0.1,-0.02 0.03,-0.01 0.05,-0.02 0.08,-0.03 0.05,-0.01 0.1,-0.03 0.15,-0.04 0.48,-0.14 0.96,-0.29 1.46,-0.44 0.12,-0.04 0.25,-0.07 0.38,-0.12 0.07,-0.02 0.13,-0.03 0.2,-0.06 0.06,-0.01 0.12,-0.03 0.18,-0.05 0.37,-0.11 0.75,-0.23 1.14,-0.35 0.26,-0.08 0.51,-0.16 0.77,-0.24 0.54,-0.16 1.1,-0.34 1.68,-0.53 0.11,-0.03 0.22,-0.06 0.34,-0.11 0.68,-0.21 1.39,-0.44 2.12,-0.68 0.05,-0.02 0.09,-0.03 0.14,-0.05 0.68,-0.22 1.36,-0.44 2.07,-0.68 1.15,-0.39 2.35,-0.79 3.57,-1.22 0.78,-0.27 1.55,-0.54 2.35,-0.83 0.42,-0.15 0.84,-0.3 1.27,-0.46 0.2,-0.07 0.4,-0.14 0.6,-0.22 0.63,-0.22 1.27,-0.46 1.92,-0.7 1.46,-0.54 2.96,-1.12 4.49,-1.71 0.11,-0.05 0.22,-0.09 0.34,-0.13 0.43,-0.17 0.85,-0.34 1.28,-0.51 0.22,-0.09 0.45,-0.18 0.67,-0.27 0.1,-0.04 0.2,-0.08 0.3,-0.12 0.05,-0.02 0.1,-0.04 0.15,-0.06 0.05,-0.02 0.09,-0.04 0.14,-0.06 0.26,-0.1 0.52,-0.2 0.78,-0.31 0.33,-0.13 0.66,-0.26 0.99,-0.4 0.26,-0.11 0.52,-0.22 0.79,-0.33 0.86,-0.35 1.72,-0.71 2.59,-1.08 h 0.01 c 0.2,-0.09 0.39,-0.16 0.59,-0.25 0.21,-0.09 0.42,-0.18 0.65,-0.28 0.27,-0.11 0.53,-0.23 0.8,-0.35 0.26,-0.11 0.52,-0.22 0.79,-0.34 0.65,-0.28 1.31,-0.57 1.98,-0.87 0.4,-0.18 0.81,-0.36 1.22,-0.55 0.65,-0.29 1.31,-0.58 1.97,-0.89 1.55,-0.72 3.12,-1.45 4.7,-2.22 0.78,-0.37 1.56,-0.76 2.35,-1.15 l 3.93,10.56 c -2.38,1.17 -4.73,2.3 -7.05,3.37 z"
   id="path2009" />
			<g
   id="g2017">
				<g
   id="g2015">
					<path
   class="st36"
   d="m 394.35,349.45 3.93,10.56 c -2.37,1.18 -4.72,2.3 -7.05,3.38 -0.9,0.42 -1.8,0.82 -2.69,1.22 -0.45,0.21 -0.9,0.4 -1.34,0.6 -0.49,0.22 -0.98,0.43 -1.47,0.65 -0.57,0.25 -1.14,0.49 -1.7,0.74 -0.26,0.11 -0.53,0.23 -0.79,0.33 -1.49,0.64 -2.95,1.24 -4.4,1.82 -0.25,0.1 -0.5,0.2 -0.75,0.3 -4.8,1.93 -9.35,3.61 -13.53,5.07 -0.07,0.03 -0.14,0.05 -0.21,0.07 -0.8,0.28 -1.6,0.55 -2.38,0.82 -1.05,0.35 -2.07,0.7 -3.07,1.02 -0.48,0.16 -0.95,0.31 -1.41,0.46 -0.66,0.21 -1.3,0.42 -1.92,0.61 -1.08,0.34 -2.11,0.65 -3.08,0.95 -1.06,0.32 -2.06,0.62 -3,0.89 -3.45,1 -6.05,1.68 -7.54,2.05 L 338,370.43 c 1.6,-0.41 4.19,-1.09 7.54,-2.07 0.47,-0.14 0.95,-0.28 1.45,-0.43 0.52,-0.16 1.05,-0.31 1.59,-0.48 1.19,-0.36 2.47,-0.75 3.8,-1.18 0.42,-0.13 0.85,-0.27 1.28,-0.41 1.1,-0.36 2.24,-0.73 3.42,-1.13 0.68,-0.22 1.38,-0.46 2.08,-0.71 0.48,-0.16 0.97,-0.33 1.46,-0.51 0.77,-0.26 1.55,-0.54 2.35,-0.83 1.24,-0.44 2.5,-0.9 3.79,-1.38 2.93,-1.09 5.99,-2.28 9.14,-3.57 0.27,-0.11 0.53,-0.22 0.79,-0.33 0.86,-0.35 1.73,-0.72 2.6,-1.09 0.83,-0.35 1.67,-0.7 2.51,-1.08 0.11,-0.04 0.21,-0.09 0.33,-0.14 0.65,-0.28 1.31,-0.57 1.98,-0.87 0.41,-0.17 0.82,-0.36 1.22,-0.55 0.65,-0.29 1.31,-0.58 1.97,-0.89 2.32,-1.03 4.68,-2.16 7.05,-3.33 z"
   id="path2011" />
					<path
   class="st36"
   d="m 376.18,300.59 4.2,11.3 c -2.37,1.18 -4.72,2.3 -7.05,3.37 -0.91,0.42 -1.82,0.83 -2.71,1.24 -1.8,0.81 -3.58,1.59 -5.33,2.32 -1.76,0.75 -3.49,1.46 -5.19,2.14 -1.27,0.52 -2.53,1.01 -3.76,1.48 -0.42,0.16 -0.82,0.31 -1.23,0.47 -1.9,0.73 -3.75,1.41 -5.53,2.05 -1.03,0.37 -2.02,0.72 -3,1.06 -0.98,0.34 -1.94,0.67 -2.88,0.99 -0.65,0.22 -1.31,0.43 -1.94,0.64 -0.72,0.24 -1.42,0.47 -2.12,0.69 -1.8,0.58 -3.5,1.11 -5.07,1.58 -1.06,0.32 -2.05,0.61 -2.98,0.88 -3.45,1 -6.04,1.67 -7.54,2.05 l -4.2,-11.29 c 1.6,-0.41 4.19,-1.09 7.54,-2.07 0.47,-0.14 0.95,-0.28 1.45,-0.43 0.52,-0.16 1.05,-0.31 1.59,-0.48 1.19,-0.36 2.47,-0.75 3.8,-1.18 0.42,-0.13 0.85,-0.27 1.28,-0.41 1.1,-0.36 2.24,-0.73 3.42,-1.13 0.68,-0.22 1.38,-0.46 2.08,-0.71 0.48,-0.16 0.97,-0.33 1.46,-0.51 0.77,-0.26 1.55,-0.54 2.35,-0.83 1.24,-0.44 2.5,-0.9 3.79,-1.38 1.05,-0.39 2.11,-0.79 3.19,-1.21 0.54,-0.21 1.09,-0.42 1.64,-0.63 0.6,-0.24 1.2,-0.48 1.81,-0.72 0.5,-0.2 1.01,-0.4 1.51,-0.61 1.13,-0.46 2.28,-0.93 3.44,-1.41 0.56,-0.24 1.13,-0.47 1.7,-0.72 1.05,-0.44 2.13,-0.91 3.2,-1.39 0.21,-0.09 0.41,-0.18 0.62,-0.27 0.48,-0.21 0.97,-0.43 1.45,-0.65 2.95,-1.3 5.97,-2.73 9.01,-4.23 z"
   id="path2013" />
				</g>
			</g>
			<path
   class="st31"
   d="m 369.13,303.96 4.2,11.3 c -0.91,0.42 -1.82,0.83 -2.71,1.24 -1.8,0.81 -3.58,1.58 -5.33,2.32 -1.76,0.74 -3.49,1.46 -5.19,2.14 -1.27,0.51 -2.53,1 -3.76,1.48 -0.42,0.16 -0.82,0.31 -1.23,0.47 -1.9,0.72 -3.75,1.41 -5.53,2.05 -1.03,0.37 -2.02,0.72 -3,1.06 -0.99,0.34 -1.94,0.67 -2.88,0.99 -0.65,0.22 -1.31,0.43 -1.94,0.64 -0.72,0.24 -1.42,0.47 -2.12,0.69 -1.8,0.58 -3.5,1.11 -5.07,1.58 -1.06,0.32 -2.05,0.61 -2.98,0.88 l -4.2,-11.3 c 0.47,-0.14 0.95,-0.28 1.45,-0.43 0.52,-0.16 1.05,-0.31 1.59,-0.48 1.19,-0.36 2.47,-0.75 3.8,-1.18 0.42,-0.13 0.85,-0.27 1.28,-0.41 1.1,-0.36 2.24,-0.73 3.42,-1.13 0.68,-0.22 1.38,-0.46 2.08,-0.71 0.48,-0.16 0.97,-0.33 1.46,-0.51 0.77,-0.26 1.55,-0.54 2.35,-0.83 1.24,-0.44 2.5,-0.9 3.79,-1.38 1.05,-0.39 2.11,-0.79 3.19,-1.21 0.54,-0.21 1.09,-0.42 1.64,-0.63 0.6,-0.24 1.2,-0.48 1.81,-0.72 0.5,-0.2 1.01,-0.4 1.51,-0.61 1.13,-0.46 2.28,-0.93 3.44,-1.41 0.56,-0.24 1.13,-0.47 1.7,-0.72 1.05,-0.44 2.13,-0.91 3.2,-1.39 0.21,-0.09 0.41,-0.18 0.62,-0.27 0.48,-0.21 0.97,-0.43 1.45,-0.65 0.65,-0.27 1.3,-0.56 1.96,-0.87 z"
   id="path2019" />
			<path
   class="st31"
   d="m 387.29,352.82 3.93,10.56 c -0.9,0.42 -1.8,0.82 -2.69,1.22 -0.45,0.21 -0.9,0.4 -1.34,0.6 -0.49,0.22 -0.98,0.43 -1.47,0.65 -0.57,0.25 -1.14,0.49 -1.7,0.74 -0.26,0.11 -0.53,0.23 -0.79,0.33 -1.49,0.64 -2.95,1.24 -4.4,1.82 -0.25,0.1 -0.5,0.2 -0.75,0.3 -4.8,1.93 -9.35,3.61 -13.53,5.07 -0.07,0.03 -0.14,0.05 -0.21,0.07 -0.8,0.28 -1.6,0.55 -2.38,0.82 -1.05,0.36 -2.07,0.7 -3.07,1.02 -0.48,0.16 -0.95,0.31 -1.41,0.46 -0.66,0.21 -1.3,0.42 -1.92,0.61 -1.08,0.34 -2.11,0.65 -3.08,0.95 -1.06,0.32 -2.06,0.62 -3,0.89 l -3.93,-10.56 c 0.47,-0.14 0.95,-0.28 1.45,-0.43 0.52,-0.16 1.05,-0.31 1.59,-0.48 1.19,-0.36 2.47,-0.75 3.8,-1.18 0.42,-0.13 0.85,-0.27 1.28,-0.41 1.1,-0.36 2.24,-0.73 3.42,-1.13 0.68,-0.22 1.38,-0.46 2.08,-0.71 0.48,-0.16 0.97,-0.33 1.46,-0.51 0.77,-0.26 1.55,-0.54 2.35,-0.83 1.24,-0.44 2.5,-0.9 3.79,-1.38 2.93,-1.09 5.99,-2.28 9.14,-3.57 0.27,-0.11 0.53,-0.22 0.79,-0.33 0.86,-0.35 1.73,-0.72 2.6,-1.09 0.83,-0.35 1.67,-0.7 2.51,-1.08 0.11,-0.04 0.21,-0.09 0.33,-0.14 0.65,-0.28 1.31,-0.57 1.98,-0.87 0.41,-0.17 0.82,-0.36 1.22,-0.55 0.64,-0.26 1.29,-0.56 1.95,-0.86 z"
   id="path2021" />
			<g
   id="g2027">
				<path
   class="st31"
   d="m 387.29,352.82 3.93,10.56 c -0.9,0.42 -1.8,0.82 -2.69,1.22 -0.45,0.21 -0.9,0.4 -1.34,0.6 -0.49,0.22 -0.98,0.43 -1.47,0.65 -0.57,0.25 -1.14,0.49 -1.7,0.74 -0.26,0.11 -0.53,0.23 -0.79,0.33 -1.49,0.64 -2.95,1.24 -4.4,1.82 -0.25,0.1 -0.5,0.2 -0.75,0.3 -4.8,1.93 -9.35,3.61 -13.53,5.07 -0.07,0.03 -0.14,0.05 -0.21,0.07 -0.8,0.28 -1.6,0.55 -2.38,0.82 -1.05,0.36 -2.07,0.7 -3.07,1.02 -0.48,0.16 -0.95,0.31 -1.41,0.46 -0.66,0.21 -1.3,0.42 -1.92,0.61 -1.08,0.34 -2.11,0.65 -3.08,0.95 -1.06,0.32 -2.06,0.62 -3,0.89 l -3.93,-10.56 c 0.47,-0.14 0.95,-0.28 1.45,-0.43 0.52,-0.16 1.05,-0.31 1.59,-0.48 1.19,-0.36 2.47,-0.75 3.8,-1.18 0.42,-0.13 0.85,-0.27 1.28,-0.41 1.1,-0.36 2.24,-0.73 3.42,-1.13 0.68,-0.22 1.38,-0.46 2.08,-0.71 0.48,-0.16 0.97,-0.33 1.46,-0.51 0.77,-0.26 1.55,-0.54 2.35,-0.83 1.24,-0.44 2.5,-0.9 3.79,-1.38 2.93,-1.09 5.99,-2.28 9.14,-3.57 0.27,-0.11 0.53,-0.22 0.79,-0.33 0.86,-0.35 1.73,-0.72 2.6,-1.09 0.83,-0.35 1.67,-0.7 2.51,-1.08 0.11,-0.04 0.21,-0.09 0.33,-0.14 0.65,-0.28 1.31,-0.57 1.98,-0.87 0.41,-0.17 0.82,-0.36 1.22,-0.55 0.64,-0.26 1.29,-0.56 1.95,-0.86 z"
   id="path2023" />
				<path
   class="st31"
   d="m 369.13,303.96 4.2,11.3 c -0.91,0.42 -1.82,0.83 -2.71,1.24 -1.8,0.81 -3.58,1.58 -5.33,2.32 -1.76,0.74 -3.49,1.46 -5.19,2.14 -1.27,0.51 -2.53,1 -3.76,1.48 -0.42,0.16 -0.82,0.31 -1.23,0.47 -1.9,0.72 -3.75,1.41 -5.53,2.05 -1.03,0.37 -2.02,0.72 -3,1.06 -0.99,0.34 -1.94,0.67 -2.88,0.99 -0.65,0.22 -1.31,0.43 -1.94,0.64 -0.72,0.24 -1.42,0.47 -2.12,0.69 -1.8,0.58 -3.5,1.11 -5.07,1.58 -1.06,0.32 -2.05,0.61 -2.98,0.88 l -4.2,-11.3 c 0.47,-0.14 0.95,-0.28 1.45,-0.43 0.52,-0.16 1.05,-0.31 1.59,-0.48 1.19,-0.36 2.47,-0.75 3.8,-1.18 0.42,-0.13 0.85,-0.27 1.28,-0.41 1.1,-0.36 2.24,-0.73 3.42,-1.13 0.68,-0.22 1.38,-0.46 2.08,-0.71 0.48,-0.16 0.97,-0.33 1.46,-0.51 0.77,-0.26 1.55,-0.54 2.35,-0.83 1.24,-0.44 2.5,-0.9 3.79,-1.38 1.05,-0.39 2.11,-0.79 3.19,-1.21 0.54,-0.21 1.09,-0.42 1.64,-0.63 0.6,-0.24 1.2,-0.48 1.81,-0.72 0.5,-0.2 1.01,-0.4 1.51,-0.61 1.13,-0.46 2.28,-0.93 3.44,-1.41 0.56,-0.24 1.13,-0.47 1.7,-0.72 1.05,-0.44 2.13,-0.91 3.2,-1.39 0.21,-0.09 0.41,-0.18 0.62,-0.27 0.48,-0.21 0.97,-0.43 1.45,-0.65 0.65,-0.27 1.3,-0.56 1.96,-0.87 z"
   id="path2025" />
			</g>
		</g><g
   id="g2051">
			<path
   class="st27"
   d="m 384.98,472.31 c -0.03,0.01 -0.07,0.02 -0.11,0.03 -0.2,0.06 -0.4,0.12 -0.59,0.18 0.26,-0.08 0.53,-0.15 0.8,-0.23 -0.03,0 -0.07,0.01 -0.1,0.02 z m 28.98,-70.13 c -26.03,12.93 -50.27,19.45 -56.35,20.98 l 0.96,2.57 c 1.6,-0.41 4.19,-1.09 7.54,-2.07 2.82,-0.82 6.19,-1.84 9.98,-3.09 0.1,-0.03 0.19,-0.07 0.29,-0.1 0.29,-0.1 0.58,-0.19 0.88,-0.29 0.4,-0.13 0.81,-0.27 1.22,-0.41 0.41,-0.14 0.83,-0.28 1.25,-0.43 0.49,-0.17 0.97,-0.33 1.46,-0.51 0.38,-0.13 0.78,-0.26 1.17,-0.4 0.39,-0.14 0.79,-0.28 1.18,-0.42 0.62,-0.22 1.25,-0.45 1.88,-0.68 0.63,-0.23 1.27,-0.46 1.91,-0.7 1.05,-0.39 2.11,-0.8 3.19,-1.21 0.27,-0.1 0.54,-0.21 0.82,-0.31 0.69,-0.28 1.39,-0.55 2.1,-0.83 0.18,-0.07 0.36,-0.14 0.53,-0.21 0.5,-0.2 1,-0.4 1.51,-0.61 0.17,-0.06 0.33,-0.13 0.5,-0.2 1.04,-0.43 2.1,-0.86 3.17,-1.32 0.48,-0.2 0.97,-0.4 1.47,-0.62 0.21,-0.09 0.43,-0.18 0.64,-0.27 0.21,-0.09 0.43,-0.18 0.65,-0.28 0.43,-0.19 0.87,-0.38 1.3,-0.57 0.89,-0.38 1.78,-0.78 2.68,-1.19 0.66,-0.29 1.32,-0.59 1.97,-0.89 2.33,-1.08 4.68,-2.2 7.06,-3.37 z"
   id="path2031" />
			<g
   id="g2039">
				<g
   id="g2037">
					<path
   class="st36"
   d="m 433.08,453.61 3.93,10.56 c -2.37,1.18 -4.72,2.3 -7.05,3.38 -0.06,0.03 -0.13,0.06 -0.19,0.09 -0.6,0.28 -1.2,0.54 -1.79,0.81 -0.59,0.27 -1.18,0.54 -1.77,0.79 -0.59,0.26 -1.17,0.52 -1.76,0.77 -1.17,0.5 -2.33,1 -3.48,1.48 -0.34,0.15 -0.68,0.29 -1.02,0.42 -0.23,0.1 -0.46,0.19 -0.69,0.29 -0.57,0.24 -1.14,0.47 -1.7,0.69 -0.4,0.16 -0.8,0.33 -1.2,0.48 -0.39,0.16 -0.78,0.31 -1.17,0.47 l -0.9,0.36 -0.06,0.02 c -1.1,0.43 -2.18,0.84 -3.25,1.24 -1.13,0.43 -2.23,0.84 -3.32,1.24 -0.13,0.05 -0.25,0.09 -0.39,0.14 -1.37,0.5 -2.71,0.98 -4.02,1.43 -0.35,0.12 -0.7,0.25 -1.05,0.36 -0.12,0.04 -0.22,0.08 -0.34,0.12 -0.27,0.1 -0.54,0.19 -0.81,0.28 -0.23,0.08 -0.46,0.16 -0.69,0.23 -1.05,0.35 -2.08,0.7 -3.07,1.02 -0.37,0.12 -0.73,0.23 -1.08,0.35 -0.15,0.05 -0.29,0.09 -0.43,0.14 -0.52,0.16 -1.03,0.32 -1.53,0.49 -0.57,0.17 -1.13,0.35 -1.68,0.52 -0.14,0.04 -0.28,0.09 -0.42,0.13 -0.24,0.07 -0.47,0.15 -0.71,0.22 -0.07,0.03 -0.15,0.05 -0.23,0.07 -0.53,0.16 -1.05,0.31 -1.54,0.46 -0.5,0.15 -0.99,0.29 -1.46,0.43 -1.73,0.5 -3.24,0.92 -4.5,1.26 -0.26,0.07 -0.51,0.14 -0.75,0.2 -0.25,0.07 -0.5,0.13 -0.73,0.19 -0.21,0.06 -0.41,0.11 -0.6,0.16 -0.36,0.1 -0.68,0.18 -0.96,0.25 l -3.92,-10.54 c 0.8,-0.21 1.85,-0.48 3.11,-0.83 0.32,-0.08 0.64,-0.17 0.99,-0.27 0.07,-0.02 0.15,-0.04 0.22,-0.06 0.22,-0.06 0.46,-0.12 0.7,-0.19 0.78,-0.22 1.63,-0.46 2.52,-0.72 0.19,-0.06 0.39,-0.12 0.59,-0.18 0.15,-0.04 0.29,-0.09 0.44,-0.13 0.48,-0.14 0.96,-0.29 1.46,-0.44 0.12,-0.04 0.25,-0.07 0.38,-0.12 0.07,-0.02 0.14,-0.04 0.2,-0.06 0.06,-0.01 0.12,-0.03 0.18,-0.05 0.37,-0.11 0.76,-0.23 1.14,-0.35 0.26,-0.08 0.51,-0.16 0.77,-0.24 0.55,-0.17 1.11,-0.34 1.68,-0.53 0.11,-0.03 0.22,-0.07 0.34,-0.11 0.69,-0.22 1.39,-0.44 2.12,-0.68 0.05,-0.02 0.1,-0.03 0.15,-0.05 0.68,-0.22 1.36,-0.45 2.06,-0.68 1.16,-0.39 2.35,-0.79 3.58,-1.22 0.77,-0.27 1.55,-0.54 2.35,-0.83 0.42,-0.15 0.84,-0.3 1.27,-0.46 0.2,-0.07 0.4,-0.14 0.6,-0.22 0.63,-0.23 1.27,-0.46 1.91,-0.7 1.46,-0.54 2.96,-1.12 4.49,-1.71 0.11,-0.05 0.22,-0.09 0.34,-0.13 0.43,-0.17 0.85,-0.34 1.29,-0.51 0.12,-0.05 0.24,-0.1 0.37,-0.14 0.29,-0.12 0.6,-0.24 0.9,-0.36 0.26,-0.1 0.52,-0.21 0.77,-0.31 0.33,-0.13 0.66,-0.27 0.99,-0.4 0.27,-0.11 0.53,-0.22 0.79,-0.33 0.86,-0.35 1.72,-0.71 2.6,-1.09 0.2,-0.08 0.39,-0.16 0.59,-0.25 0.21,-0.09 0.43,-0.18 0.65,-0.28 0.27,-0.11 0.53,-0.23 0.8,-0.34 0.26,-0.11 0.53,-0.23 0.79,-0.35 0.65,-0.28 1.31,-0.57 1.98,-0.87 0.41,-0.17 0.82,-0.36 1.22,-0.55 0.65,-0.29 1.31,-0.58 1.97,-0.89 2.3,-1.08 4.66,-2.2 7.03,-3.37 z"
   id="path2033" />
					<path
   class="st36"
   d="m 414.91,404.75 4.2,11.3 c -2.37,1.18 -4.72,2.3 -7.05,3.37 -0.91,0.42 -1.82,0.83 -2.71,1.24 -0.9,0.4 -1.8,0.8 -2.68,1.19 -0.9,0.39 -1.78,0.77 -2.65,1.14 -1.76,0.75 -3.49,1.46 -5.19,2.14 -0.85,0.34 -1.69,0.67 -2.52,1 -0.84,0.33 -1.66,0.65 -2.47,0.96 -1.9,0.73 -3.75,1.41 -5.53,2.05 -1.03,0.37 -2.02,0.72 -3,1.06 -0.98,0.34 -1.94,0.67 -2.88,0.99 -0.65,0.22 -1.31,0.43 -1.94,0.64 -0.72,0.24 -1.42,0.47 -2.12,0.69 -1.8,0.58 -3.5,1.11 -5.07,1.58 -0.53,0.16 -1.04,0.31 -1.54,0.46 -0.5,0.15 -0.98,0.29 -1.45,0.43 -3.45,1 -6.04,1.67 -7.54,2.05 l -4.2,-11.29 c 1.6,-0.41 4.19,-1.09 7.54,-2.07 2.82,-0.82 6.19,-1.85 9.97,-3.1 0.39,-0.13 0.78,-0.26 1.17,-0.39 0.81,-0.26 1.63,-0.55 2.47,-0.84 0.48,-0.16 0.97,-0.33 1.46,-0.51 0.77,-0.26 1.55,-0.54 2.35,-0.83 1.24,-0.44 2.5,-0.9 3.79,-1.38 1.05,-0.39 2.11,-0.79 3.19,-1.21 0.27,-0.1 0.54,-0.21 0.82,-0.31 0.69,-0.27 1.39,-0.55 2.11,-0.83 0.17,-0.06 0.35,-0.14 0.52,-0.21 0.5,-0.2 1.01,-0.4 1.51,-0.61 0.17,-0.06 0.33,-0.13 0.5,-0.2 1.04,-0.42 2.09,-0.86 3.16,-1.31 0.48,-0.2 0.98,-0.41 1.47,-0.62 0.43,-0.18 0.85,-0.36 1.29,-0.56 0.43,-0.18 0.87,-0.37 1.3,-0.57 0.89,-0.38 1.78,-0.78 2.68,-1.19 2.99,-1.33 6,-2.76 9.04,-4.26 z"
   id="path2035" />
				</g>
			</g>
			<path
   class="st31"
   d="m 407.86,408.12 4.2,11.3 c -0.91,0.42 -1.82,0.83 -2.71,1.24 -0.9,0.4 -1.8,0.8 -2.68,1.19 -0.9,0.39 -1.78,0.77 -2.65,1.14 -1.76,0.74 -3.49,1.46 -5.19,2.14 -0.85,0.34 -1.69,0.67 -2.52,1 -0.84,0.33 -1.66,0.65 -2.47,0.96 -1.9,0.72 -3.75,1.41 -5.53,2.05 -1.03,0.37 -2.02,0.72 -3,1.06 -0.99,0.34 -1.94,0.67 -2.88,0.99 -0.65,0.22 -1.31,0.43 -1.94,0.64 -0.72,0.24 -1.42,0.47 -2.12,0.69 -1.8,0.58 -3.5,1.11 -5.07,1.58 -0.53,0.16 -1.04,0.31 -1.54,0.46 -0.5,0.15 -0.98,0.29 -1.45,0.43 l -4.2,-11.3 c 2.82,-0.82 6.19,-1.85 9.97,-3.1 0.39,-0.13 0.78,-0.26 1.17,-0.39 0.81,-0.26 1.63,-0.55 2.47,-0.84 0.48,-0.16 0.97,-0.33 1.46,-0.51 0.77,-0.26 1.55,-0.54 2.35,-0.83 1.24,-0.44 2.5,-0.9 3.79,-1.38 1.05,-0.39 2.11,-0.79 3.19,-1.21 0.27,-0.1 0.54,-0.21 0.82,-0.31 0.69,-0.27 1.39,-0.55 2.11,-0.83 0.17,-0.06 0.35,-0.14 0.52,-0.21 0.5,-0.2 1.01,-0.4 1.51,-0.61 0.17,-0.06 0.33,-0.13 0.5,-0.2 1.04,-0.42 2.09,-0.86 3.16,-1.31 0.48,-0.2 0.98,-0.41 1.47,-0.62 0.43,-0.18 0.85,-0.36 1.29,-0.56 0.43,-0.18 0.87,-0.37 1.3,-0.57 0.89,-0.38 1.78,-0.78 2.68,-1.19 0.68,-0.3 1.34,-0.6 1.99,-0.9 z"
   id="path2041" />
			<path
   class="st31"
   d="m 426.03,456.98 3.93,10.56 c -0.06,0.03 -0.13,0.06 -0.19,0.09 -0.6,0.28 -1.2,0.54 -1.79,0.81 -0.59,0.27 -1.18,0.54 -1.77,0.79 -0.59,0.26 -1.17,0.52 -1.76,0.77 -1.17,0.5 -2.33,1 -3.48,1.48 -0.34,0.15 -0.68,0.29 -1.02,0.42 -0.23,0.1 -0.46,0.19 -0.69,0.29 -0.57,0.24 -1.14,0.47 -1.7,0.69 -0.4,0.16 -0.8,0.33 -1.2,0.48 -0.39,0.16 -0.78,0.31 -1.17,0.47 l -0.9,0.36 -0.06,0.02 c -1.1,0.43 -2.18,0.84 -3.25,1.24 -1.13,0.43 -2.23,0.84 -3.32,1.24 -0.13,0.05 -0.25,0.09 -0.39,0.14 -1.37,0.5 -2.71,0.98 -4.02,1.43 -0.35,0.12 -0.7,0.25 -1.05,0.36 -0.12,0.04 -0.22,0.08 -0.34,0.12 -0.27,0.1 -0.54,0.19 -0.81,0.28 -0.23,0.08 -0.46,0.16 -0.69,0.23 -1.05,0.35 -2.08,0.7 -3.07,1.02 -0.37,0.12 -0.73,0.23 -1.08,0.35 -0.15,0.05 -0.29,0.09 -0.43,0.14 -0.52,0.16 -1.03,0.32 -1.53,0.49 -0.57,0.17 -1.13,0.35 -1.68,0.52 -0.14,0.04 -0.28,0.09 -0.42,0.13 -0.07,0.03 -0.14,0.04 -0.21,0.07 -0.17,0.05 -0.33,0.1 -0.5,0.15 -0.07,0.03 -0.15,0.05 -0.23,0.07 -0.53,0.16 -1.05,0.31 -1.54,0.46 -0.5,0.15 -0.99,0.29 -1.46,0.43 l -3.93,-10.56 c 0.19,-0.06 0.39,-0.12 0.59,-0.18 0.07,-0.02 0.14,-0.04 0.21,-0.06 0.07,-0.03 0.15,-0.05 0.23,-0.07 0.48,-0.14 0.96,-0.29 1.46,-0.44 0.12,-0.04 0.25,-0.07 0.38,-0.12 0.07,-0.02 0.14,-0.04 0.2,-0.06 0.06,-0.01 0.12,-0.03 0.18,-0.05 0.37,-0.11 0.76,-0.23 1.14,-0.35 0.26,-0.08 0.51,-0.16 0.77,-0.24 0.55,-0.17 1.11,-0.34 1.68,-0.53 0.11,-0.03 0.22,-0.07 0.34,-0.11 0.69,-0.22 1.39,-0.44 2.12,-0.68 0.05,-0.02 0.1,-0.03 0.15,-0.05 0.68,-0.22 1.36,-0.45 2.06,-0.68 1.16,-0.39 2.35,-0.79 3.58,-1.22 0.77,-0.27 1.55,-0.54 2.35,-0.83 0.42,-0.15 0.84,-0.3 1.27,-0.46 0.2,-0.07 0.4,-0.14 0.6,-0.22 0.63,-0.23 1.27,-0.46 1.91,-0.7 1.46,-0.54 2.96,-1.12 4.49,-1.71 0.11,-0.05 0.22,-0.09 0.34,-0.13 0.43,-0.17 0.85,-0.34 1.29,-0.51 0.12,-0.05 0.24,-0.1 0.37,-0.14 0.1,-0.04 0.2,-0.08 0.31,-0.13 0.2,-0.07 0.39,-0.15 0.59,-0.23 0.26,-0.1 0.52,-0.21 0.77,-0.31 0.33,-0.13 0.66,-0.27 0.99,-0.4 0.27,-0.11 0.53,-0.22 0.79,-0.33 0.86,-0.35 1.72,-0.71 2.6,-1.09 0.2,-0.08 0.39,-0.16 0.59,-0.25 0.21,-0.09 0.43,-0.18 0.65,-0.28 0.27,-0.11 0.53,-0.23 0.8,-0.34 0.26,-0.11 0.53,-0.23 0.79,-0.35 0.65,-0.28 1.31,-0.57 1.98,-0.87 0.41,-0.17 0.82,-0.36 1.22,-0.55 0.64,-0.27 1.3,-0.57 1.96,-0.87 z"
   id="path2043" />
			<g
   id="g2049">
				<path
   class="st31"
   d="m 426.03,456.98 3.93,10.56 c -0.06,0.03 -0.13,0.06 -0.19,0.09 -0.6,0.28 -1.2,0.54 -1.79,0.81 -0.59,0.27 -1.18,0.54 -1.77,0.79 -0.59,0.26 -1.17,0.52 -1.76,0.77 -1.17,0.5 -2.33,1 -3.48,1.48 -0.34,0.15 -0.68,0.29 -1.02,0.42 -0.23,0.1 -0.46,0.19 -0.69,0.29 -0.57,0.24 -1.14,0.47 -1.7,0.69 -0.4,0.16 -0.8,0.33 -1.2,0.48 -0.39,0.16 -0.78,0.31 -1.17,0.47 l -0.9,0.36 -0.06,0.02 c -1.1,0.43 -2.18,0.84 -3.25,1.24 -1.13,0.43 -2.23,0.84 -3.32,1.24 -0.13,0.05 -0.25,0.09 -0.39,0.14 -1.37,0.5 -2.71,0.98 -4.02,1.43 -0.35,0.12 -0.7,0.25 -1.05,0.36 -0.12,0.04 -0.22,0.08 -0.34,0.12 -0.27,0.1 -0.54,0.19 -0.81,0.28 -0.23,0.08 -0.46,0.16 -0.69,0.23 -1.05,0.35 -2.08,0.7 -3.07,1.02 -0.37,0.12 -0.73,0.23 -1.08,0.35 -0.15,0.05 -0.29,0.09 -0.43,0.14 -0.52,0.16 -1.03,0.32 -1.53,0.49 -0.57,0.17 -1.13,0.35 -1.68,0.52 -0.14,0.04 -0.28,0.09 -0.42,0.13 -0.07,0.03 -0.14,0.04 -0.21,0.07 -0.17,0.05 -0.33,0.1 -0.5,0.15 -0.07,0.03 -0.15,0.05 -0.23,0.07 -0.53,0.16 -1.05,0.31 -1.54,0.46 -0.5,0.15 -0.99,0.29 -1.46,0.43 l -3.93,-10.56 c 0.19,-0.06 0.39,-0.12 0.59,-0.18 0.07,-0.02 0.14,-0.04 0.21,-0.06 0.07,-0.03 0.15,-0.05 0.23,-0.07 0.48,-0.14 0.96,-0.29 1.46,-0.44 0.12,-0.04 0.25,-0.07 0.38,-0.12 0.07,-0.02 0.14,-0.04 0.2,-0.06 0.06,-0.01 0.12,-0.03 0.18,-0.05 0.37,-0.11 0.76,-0.23 1.14,-0.35 0.26,-0.08 0.51,-0.16 0.77,-0.24 0.55,-0.17 1.11,-0.34 1.68,-0.53 0.11,-0.03 0.22,-0.07 0.34,-0.11 0.69,-0.22 1.39,-0.44 2.12,-0.68 0.05,-0.02 0.1,-0.03 0.15,-0.05 0.68,-0.22 1.36,-0.45 2.06,-0.68 1.16,-0.39 2.35,-0.79 3.58,-1.22 0.77,-0.27 1.55,-0.54 2.35,-0.83 0.42,-0.15 0.84,-0.3 1.27,-0.46 0.2,-0.07 0.4,-0.14 0.6,-0.22 0.63,-0.23 1.27,-0.46 1.91,-0.7 1.46,-0.54 2.96,-1.12 4.49,-1.71 0.11,-0.05 0.22,-0.09 0.34,-0.13 0.43,-0.17 0.85,-0.34 1.29,-0.51 0.12,-0.05 0.24,-0.1 0.37,-0.14 0.1,-0.04 0.2,-0.08 0.31,-0.13 0.2,-0.07 0.39,-0.15 0.59,-0.23 0.26,-0.1 0.52,-0.21 0.77,-0.31 0.33,-0.13 0.66,-0.27 0.99,-0.4 0.27,-0.11 0.53,-0.22 0.79,-0.33 0.86,-0.35 1.72,-0.71 2.6,-1.09 0.2,-0.08 0.39,-0.16 0.59,-0.25 0.21,-0.09 0.43,-0.18 0.65,-0.28 0.27,-0.11 0.53,-0.23 0.8,-0.34 0.26,-0.11 0.53,-0.23 0.79,-0.35 0.65,-0.28 1.31,-0.57 1.98,-0.87 0.41,-0.17 0.82,-0.36 1.22,-0.55 0.64,-0.27 1.3,-0.57 1.96,-0.87 z"
   id="path2045" />
				<path
   class="st31"
   d="m 407.86,408.12 4.2,11.3 c -0.91,0.42 -1.82,0.83 -2.71,1.24 -0.9,0.4 -1.8,0.8 -2.68,1.19 -0.9,0.39 -1.78,0.77 -2.65,1.14 -1.76,0.74 -3.49,1.46 -5.19,2.14 -0.85,0.34 -1.69,0.67 -2.52,1 -0.84,0.33 -1.66,0.65 -2.47,0.96 -1.9,0.72 -3.75,1.41 -5.53,2.05 -1.03,0.37 -2.02,0.72 -3,1.06 -0.99,0.34 -1.94,0.67 -2.88,0.99 -0.65,0.22 -1.31,0.43 -1.94,0.64 -0.72,0.24 -1.42,0.47 -2.12,0.69 -1.8,0.58 -3.5,1.11 -5.07,1.58 -0.53,0.16 -1.04,0.31 -1.54,0.46 -0.5,0.15 -0.98,0.29 -1.45,0.43 l -4.2,-11.3 c 2.82,-0.82 6.19,-1.85 9.97,-3.1 0.39,-0.13 0.78,-0.26 1.17,-0.39 0.81,-0.26 1.63,-0.55 2.47,-0.84 0.48,-0.16 0.97,-0.33 1.46,-0.51 0.77,-0.26 1.55,-0.54 2.35,-0.83 1.24,-0.44 2.5,-0.9 3.79,-1.38 1.05,-0.39 2.11,-0.79 3.19,-1.21 0.27,-0.1 0.54,-0.21 0.82,-0.31 0.69,-0.27 1.39,-0.55 2.11,-0.83 0.17,-0.06 0.35,-0.14 0.52,-0.21 0.5,-0.2 1.01,-0.4 1.51,-0.61 0.17,-0.06 0.33,-0.13 0.5,-0.2 1.04,-0.42 2.09,-0.86 3.16,-1.31 0.48,-0.2 0.98,-0.41 1.47,-0.62 0.43,-0.18 0.85,-0.36 1.29,-0.56 0.43,-0.18 0.87,-0.37 1.3,-0.57 0.89,-0.38 1.78,-0.78 2.68,-1.19 0.68,-0.3 1.34,-0.6 1.99,-0.9 z"
   id="path2047" />
			</g>
		</g>
</svg>
