<svg width="620" height="1074" viewBox="0 0 620 1074" fill="none" xmlns="http://www.w3.org/2000/svg">
<path d="M121.58 505.38C122.52 505.76 123.48 506.15 124.49 506.54C123.49 506.15 122.52 505.76 121.58 505.38Z" fill="#555451"/>
<path d="M164.55 507.44L160.75 518.05C158.26 517.45 155.81 516.82 153.41 516.17C152.48 515.92 151.56 515.66 150.65 515.4C150.19 515.27 149.73 515.14 149.28 515.01C148.78 514.87 148.28 514.72 147.78 514.57C147.2 514.4 146.63 514.23 146.06 514.06C145.79 513.98 145.53 513.9 145.27 513.81C143.77 513.36 142.31 512.89 140.87 512.42C140.62 512.34 140.37 512.26 140.12 512.17C135.36 510.61 130.94 509.02 126.94 507.49C126.87 507.46 126.81 507.44 126.75 507.41C125.98 507.11 125.22 506.82 124.48 506.53C123.48 506.14 122.51 505.75 121.57 505.37C121.12 505.19 120.68 505 120.24 504.83C119.63 504.57 119.01 504.32 118.44 504.08C117.43 503.66 116.47 503.25 115.57 502.86C114.59 502.43 113.66 502.03 112.8 501.64C109.62 500.22 107.28 499.09 105.94 498.43L109.73 487.84C111.17 488.54 113.51 489.66 116.6 491.03C117.03 491.22 117.48 491.42 117.94 491.62C118.42 491.83 118.91 492.04 119.42 492.26C120.53 492.74 121.71 493.25 122.97 493.76C123.36 493.92 123.77 494.09 124.17 494.26C125.21 494.68 126.28 495.12 127.41 495.56C128.06 495.82 128.72 496.08 129.39 496.34C129.85 496.52 130.31 496.7 130.79 496.88C131.52 497.16 132.28 497.45 133.04 497.73C134.23 498.18 135.45 498.62 136.71 499.07C139.56 500.09 142.57 501.11 145.71 502.12C145.97 502.21 146.24 502.29 146.5 502.37C147.35 502.65 148.23 502.91 149.1 503.18C149.94 503.44 150.77 503.7 151.63 503.94C151.74 503.98 151.84 504.01 151.96 504.04C152.62 504.24 153.29 504.43 153.97 504.62C154.38 504.74 154.8 504.86 155.22 504.98C155.88 505.17 156.55 505.36 157.24 505.54C159.64 506.2 162.08 506.82 164.58 507.42L164.55 507.44Z" fill="#BEBBBF"/>
<path d="M157.21 505.56L153.41 516.17C152.48 515.92 151.56 515.66 150.65 515.4C150.19 515.27 149.73 515.14 149.28 515.01C148.78 514.87 148.28 514.72 147.78 514.57C147.2 514.4 146.63 514.23 146.06 514.06C145.79 513.98 145.53 513.9 145.27 513.81C143.77 513.36 142.31 512.89 140.87 512.42C140.62 512.34 140.37 512.26 140.12 512.17C135.36 510.61 130.94 509.02 126.94 507.49C126.87 507.46 126.81 507.44 126.75 507.41C125.98 507.11 125.22 506.82 124.48 506.53C123.48 506.14 122.51 505.75 121.57 505.37C121.12 505.19 120.68 505 120.24 504.83C119.63 504.57 119.01 504.32 118.44 504.08C117.43 503.66 116.47 503.25 115.57 502.86C114.59 502.43 113.66 502.03 112.8 501.64L116.6 491.03C117.03 491.22 117.48 491.42 117.94 491.62C118.42 491.83 118.91 492.04 119.42 492.26C120.53 492.74 121.71 493.25 122.97 493.76C123.36 493.92 123.77 494.09 124.17 494.26C125.21 494.68 126.28 495.12 127.41 495.56C128.06 495.82 128.72 496.08 129.39 496.34C129.85 496.52 130.31 496.7 130.79 496.88C131.52 497.16 132.28 497.45 133.04 497.73C134.23 498.18 135.45 498.62 136.71 499.07C139.56 500.09 142.57 501.11 145.71 502.12C145.97 502.21 146.24 502.29 146.5 502.37C147.35 502.65 148.23 502.91 149.1 503.18C149.94 503.44 150.77 503.7 151.63 503.94C151.74 503.98 151.84 504.01 151.96 504.04C152.62 504.24 153.29 504.43 153.97 504.62C154.38 504.74 154.8 504.86 155.22 504.98C155.88 505.17 156.55 505.36 157.24 505.54L157.21 505.56Z" fill="#F3EFF5"/>
<path d="M157.21 505.56L153.41 516.17C152.48 515.92 151.56 515.66 150.65 515.4C150.19 515.27 149.73 515.14 149.28 515.01C148.78 514.87 148.28 514.72 147.78 514.57C147.2 514.4 146.63 514.23 146.06 514.06C145.79 513.98 145.53 513.9 145.27 513.81C143.77 513.36 142.31 512.89 140.87 512.42C140.62 512.34 140.37 512.26 140.12 512.17C135.36 510.61 130.94 509.02 126.94 507.49C126.87 507.46 126.81 507.44 126.75 507.41C125.98 507.11 125.22 506.82 124.48 506.53C123.48 506.14 122.51 505.75 121.57 505.37C121.12 505.19 120.68 505 120.24 504.83C119.63 504.57 119.01 504.32 118.44 504.08C117.43 503.66 116.47 503.25 115.57 502.86C114.59 502.43 113.66 502.03 112.8 501.64L116.6 491.03C117.03 491.22 117.48 491.42 117.94 491.62C118.42 491.83 118.91 492.04 119.42 492.26C120.53 492.74 121.71 493.25 122.97 493.76C123.36 493.92 123.77 494.09 124.17 494.26C125.21 494.68 126.28 495.12 127.41 495.56C128.06 495.82 128.72 496.08 129.39 496.34C129.85 496.52 130.31 496.7 130.79 496.88C131.52 497.16 132.28 497.45 133.04 497.73C134.23 498.18 135.45 498.62 136.71 499.07C139.56 500.09 142.57 501.11 145.71 502.12C145.97 502.21 146.24 502.29 146.5 502.37C147.35 502.65 148.23 502.91 149.1 503.18C149.94 503.44 150.77 503.7 151.63 503.94C151.74 503.98 151.84 504.01 151.96 504.04C152.62 504.24 153.29 504.43 153.97 504.62C154.38 504.74 154.8 504.86 155.22 504.98C155.88 505.17 156.55 505.36 157.24 505.54L157.21 505.56Z" fill="#F3EFF5"/>
<path d="M153.41 516.17C155.81 516.82 158.25 517.45 160.75 518.05L159.83 520.62C149.61 518.15 140.12 515.18 131.97 512.25C118.6 507.46 108.76 502.85 105.01 501L105.93 498.42C107.27 499.08 109.61 500.21 112.79 501.63C113.66 502.02 114.58 502.42 115.56 502.85C116.47 503.24 117.42 503.65 118.44 504.07C119.02 504.32 119.63 504.57 120.24 504.83C120.68 505.01 121.12 505.19 121.57 505.38C122.5 505.76 123.47 506.15 124.48 506.54C125.23 506.83 125.98 507.13 126.75 507.42C126.81 507.45 126.87 507.47 126.94 507.5C130.94 509.03 135.36 510.62 140.12 512.19C140.37 512.27 140.62 512.35 140.87 512.43C142.3 512.9 143.76 513.36 145.26 513.82C145.53 513.91 145.79 513.99 146.06 514.06C146.63 514.23 147.2 514.41 147.78 514.57C148.28 514.72 148.78 514.87 149.28 515.01C149.73 515.14 150.19 515.27 150.65 515.4C151.56 515.66 152.48 515.92 153.41 516.17V516.17Z" fill="#555451"/>
<path d="M165.47 504.86L164.55 507.44C162.06 506.84 159.61 506.21 157.21 505.55C156.53 505.37 155.86 505.18 155.19 504.99C154.77 504.87 154.36 504.76 153.94 504.63C153.26 504.44 152.6 504.24 151.94 504.05C151.82 504.02 151.72 503.99 151.61 503.95C150.75 503.7 149.91 503.44 149.07 503.19C148.2 502.92 147.33 502.66 146.47 502.38C146.21 502.29 145.94 502.22 145.68 502.13C142.54 501.12 139.53 500.1 136.68 499.08C135.43 498.63 134.2 498.19 133.01 497.74C132.24 497.45 131.49 497.17 130.76 496.89C130.28 496.71 129.82 496.53 129.36 496.35C128.69 496.1 128.03 495.84 127.38 495.58C126.26 495.14 125.18 494.7 124.14 494.28C123.73 494.11 123.33 493.94 122.94 493.78C121.69 493.26 120.5 492.76 119.39 492.28C118.88 492.06 118.4 491.85 117.91 491.64C117.45 491.43 117 491.24 116.58 491.05C113.49 489.67 111.15 488.56 109.71 487.86L110.63 485.28C116.08 487.97 138.08 498.33 165.46 504.89L165.47 504.86Z" fill="#555451"/>
<path d="M152.65 418.61C153.59 418.99 154.55 419.38 155.56 419.77C154.56 419.38 153.59 418.99 152.65 418.61Z" fill="#555451"/>
<path d="M195.62 420.67L191.82 431.28C189.33 430.68 186.88 430.05 184.48 429.4C183.55 429.15 182.63 428.89 181.72 428.63C181.26 428.5 180.8 428.37 180.35 428.24C179.85 428.1 179.35 427.95 178.85 427.8C178.27 427.63 177.7 427.46 177.13 427.29C176.86 427.21 176.6 427.13 176.34 427.04C174.84 426.59 173.38 426.12 171.94 425.65C171.69 425.57 171.44 425.49 171.19 425.4C166.43 423.84 162.01 422.25 158.01 420.72C157.94 420.69 157.88 420.67 157.82 420.64C157.05 420.34 156.29 420.05 155.55 419.76C154.55 419.37 153.58 418.98 152.64 418.6C152.19 418.42 151.75 418.23 151.31 418.06C150.7 417.8 150.08 417.55 149.51 417.31C148.5 416.89 147.54 416.48 146.64 416.09C145.66 415.66 144.73 415.26 143.87 414.87C140.69 413.45 138.35 412.32 137.01 411.66L140.8 401.07C142.24 401.77 144.58 402.89 147.67 404.26C148.1 404.45 148.55 404.65 149.01 404.85C149.49 405.06 149.98 405.27 150.49 405.49C151.6 405.97 152.78 406.48 154.04 406.99C154.43 407.15 154.84 407.32 155.24 407.49C156.28 407.91 157.35 408.35 158.48 408.79C159.13 409.05 159.79 409.31 160.46 409.57C160.92 409.75 161.38 409.93 161.86 410.11C162.59 410.39 163.35 410.68 164.11 410.96C165.3 411.41 166.52 411.85 167.78 412.3C170.63 413.32 173.64 414.34 176.78 415.35C177.04 415.44 177.31 415.52 177.57 415.6C178.42 415.88 179.3 416.14 180.17 416.41C181.01 416.67 181.84 416.93 182.7 417.17C182.81 417.21 182.91 417.24 183.03 417.27C183.69 417.47 184.36 417.66 185.04 417.85C185.45 417.97 185.87 418.09 186.29 418.21C186.95 418.4 187.62 418.59 188.31 418.77C190.71 419.43 193.15 420.05 195.65 420.65L195.62 420.67Z" fill="#BEBBBF"/>
<path d="M188.29 418.79L184.49 429.4C183.56 429.15 182.64 428.89 181.73 428.63C181.27 428.5 180.81 428.37 180.36 428.24C179.86 428.1 179.36 427.95 178.86 427.8C178.28 427.63 177.71 427.46 177.14 427.29C176.87 427.21 176.61 427.13 176.35 427.04C174.85 426.59 173.39 426.12 171.95 425.65C171.7 425.57 171.45 425.49 171.2 425.4C166.44 423.84 162.02 422.25 158.02 420.72C157.95 420.69 157.89 420.67 157.83 420.64C157.06 420.34 156.3 420.05 155.56 419.76C154.56 419.37 153.59 418.98 152.65 418.6C152.2 418.42 151.76 418.23 151.32 418.06C150.71 417.8 150.09 417.55 149.52 417.31C148.51 416.89 147.55 416.48 146.65 416.09C145.67 415.66 144.74 415.26 143.88 414.87L147.68 404.26C148.11 404.45 148.56 404.65 149.02 404.85C149.5 405.06 149.99 405.27 150.5 405.49C151.61 405.97 152.79 406.48 154.05 406.99C154.44 407.15 154.85 407.32 155.25 407.49C156.29 407.91 157.36 408.35 158.49 408.79C159.14 409.05 159.8 409.31 160.47 409.57C160.93 409.75 161.39 409.93 161.87 410.11C162.6 410.39 163.36 410.68 164.12 410.96C165.31 411.41 166.53 411.85 167.79 412.3C170.64 413.32 173.65 414.34 176.79 415.35C177.05 415.44 177.32 415.52 177.58 415.6C178.43 415.88 179.31 416.14 180.18 416.41C181.02 416.67 181.85 416.93 182.71 417.17C182.82 417.21 182.92 417.24 183.04 417.27C183.7 417.47 184.37 417.66 185.05 417.85C185.46 417.97 185.88 418.09 186.3 418.21C186.96 418.4 187.63 418.59 188.32 418.77L188.29 418.79Z" fill="#F3EFF5"/>
<path d="M188.29 418.79L184.49 429.4C183.56 429.15 182.64 428.89 181.73 428.63C181.27 428.5 180.81 428.37 180.36 428.24C179.86 428.1 179.36 427.95 178.86 427.8C178.28 427.63 177.71 427.46 177.14 427.29C176.87 427.21 176.61 427.13 176.35 427.04C174.85 426.59 173.39 426.12 171.95 425.65C171.7 425.57 171.45 425.49 171.2 425.4C166.44 423.84 162.02 422.25 158.02 420.72C157.95 420.69 157.89 420.67 157.83 420.64C157.06 420.34 156.3 420.05 155.56 419.76C154.56 419.37 153.59 418.98 152.65 418.6C152.2 418.42 151.76 418.23 151.32 418.06C150.71 417.8 150.09 417.55 149.52 417.31C148.51 416.89 147.55 416.48 146.65 416.09C145.67 415.66 144.74 415.26 143.88 414.87L147.68 404.26C148.11 404.45 148.56 404.65 149.02 404.85C149.5 405.06 149.99 405.27 150.5 405.49C151.61 405.97 152.79 406.48 154.05 406.99C154.44 407.15 154.85 407.32 155.25 407.49C156.29 407.91 157.36 408.35 158.49 408.79C159.14 409.05 159.8 409.31 160.47 409.57C160.93 409.75 161.39 409.93 161.87 410.11C162.6 410.39 163.36 410.68 164.12 410.96C165.31 411.41 166.53 411.85 167.79 412.3C170.64 413.32 173.65 414.34 176.79 415.35C177.05 415.44 177.32 415.52 177.58 415.6C178.43 415.88 179.31 416.14 180.18 416.41C181.02 416.67 181.85 416.93 182.71 417.17C182.82 417.21 182.92 417.24 183.04 417.27C183.7 417.47 184.37 417.66 185.05 417.85C185.46 417.97 185.88 418.09 186.3 418.21C186.96 418.4 187.63 418.59 188.32 418.77L188.29 418.79Z" fill="#F3EFF5"/>
<path d="M184.49 429.4C186.89 430.05 189.33 430.68 191.83 431.28L190.91 433.85C180.69 431.38 171.2 428.41 163.05 425.48C149.68 420.69 139.84 416.08 136.09 414.23L137.01 411.65C138.35 412.31 140.69 413.44 143.87 414.86C144.74 415.25 145.66 415.65 146.64 416.08C147.55 416.47 148.5 416.88 149.52 417.3C150.1 417.55 150.71 417.8 151.32 418.06C151.76 418.24 152.2 418.42 152.65 418.61C153.58 418.99 154.55 419.38 155.56 419.77C156.31 420.06 157.06 420.36 157.83 420.65C157.89 420.68 157.95 420.7 158.02 420.73C162.02 422.26 166.44 423.85 171.2 425.42C171.45 425.5 171.7 425.58 171.95 425.66C173.38 426.13 174.84 426.59 176.34 427.05C176.61 427.14 176.87 427.22 177.14 427.29C177.71 427.46 178.28 427.64 178.86 427.8C179.36 427.95 179.86 428.1 180.36 428.24C180.81 428.37 181.27 428.5 181.73 428.63C182.64 428.89 183.56 429.15 184.49 429.4V429.4Z" fill="#555451"/>
<path d="M196.55 418.1L195.63 420.68C193.14 420.08 190.69 419.45 188.29 418.79C187.61 418.61 186.94 418.42 186.27 418.23C185.85 418.11 185.44 418 185.02 417.87C184.34 417.68 183.68 417.48 183.02 417.29C182.9 417.26 182.8 417.23 182.69 417.19C181.83 416.94 180.99 416.68 180.15 416.43C179.28 416.16 178.41 415.9 177.55 415.62C177.29 415.53 177.02 415.46 176.76 415.37C173.62 414.36 170.61 413.34 167.76 412.32C166.51 411.87 165.28 411.43 164.09 410.98C163.32 410.69 162.57 410.41 161.84 410.13C161.36 409.95 160.9 409.77 160.44 409.59C159.77 409.34 159.11 409.08 158.46 408.82C157.34 408.38 156.26 407.94 155.22 407.52C154.81 407.35 154.41 407.18 154.02 407.02C152.77 406.5 151.58 406 150.47 405.52C149.96 405.3 149.48 405.09 148.99 404.88C148.53 404.67 148.08 404.48 147.66 404.29C144.57 402.91 142.23 401.8 140.79 401.1L141.71 398.52C147.16 401.21 169.16 411.57 196.54 418.13L196.55 418.1Z" fill="#555451"/>
<path d="M171.08 367.14C172.02 367.52 172.98 367.91 173.99 368.3C172.99 367.91 172.02 367.52 171.08 367.14Z" fill="#555451"/>
<path d="M214.06 369.2L210.26 379.81C207.77 379.21 205.32 378.58 202.92 377.93C201.99 377.68 201.07 377.42 200.16 377.16C199.7 377.03 199.24 376.9 198.79 376.77C198.29 376.63 197.79 376.48 197.29 376.33C196.71 376.16 196.14 375.99 195.57 375.82C195.3 375.74 195.04 375.66 194.78 375.57C193.28 375.12 191.82 374.65 190.38 374.18C190.13 374.1 189.88 374.02 189.63 373.93C184.87 372.37 180.45 370.78 176.45 369.25C176.38 369.22 176.32 369.2 176.26 369.17C175.49 368.87 174.73 368.58 173.99 368.29C172.99 367.9 172.02 367.51 171.08 367.13C170.63 366.95 170.19 366.76 169.75 366.59C169.14 366.33 168.52 366.08 167.95 365.84C166.94 365.42 165.98 365.01 165.08 364.62C164.1 364.19 163.17 363.79 162.31 363.4C159.13 361.98 156.79 360.85 155.45 360.19L159.24 349.6C160.68 350.3 163.02 351.42 166.11 352.79C166.54 352.98 166.99 353.18 167.45 353.38C167.93 353.59 168.42 353.8 168.93 354.02C170.04 354.5 171.22 355.01 172.48 355.52C172.87 355.68 173.28 355.85 173.68 356.02C174.72 356.44 175.79 356.88 176.92 357.32C177.57 357.58 178.23 357.84 178.9 358.1C179.36 358.28 179.82 358.46 180.3 358.64C181.03 358.92 181.79 359.21 182.55 359.49C183.74 359.94 184.96 360.38 186.22 360.83C189.07 361.85 192.08 362.87 195.22 363.88C195.48 363.97 195.75 364.05 196.01 364.13C196.86 364.41 197.74 364.67 198.61 364.94C199.45 365.2 200.28 365.46 201.14 365.7C201.25 365.74 201.35 365.77 201.47 365.8C202.13 366 202.8 366.19 203.48 366.38C203.89 366.5 204.31 366.62 204.73 366.74C205.39 366.93 206.06 367.12 206.75 367.3C209.15 367.96 211.59 368.58 214.09 369.18L214.06 369.2Z" fill="#BEBBBF"/>
<path d="M206.72 367.32L202.92 377.93C201.99 377.68 201.07 377.42 200.16 377.16C199.7 377.03 199.24 376.9 198.79 376.77C198.29 376.63 197.79 376.48 197.29 376.33C196.71 376.16 196.14 375.99 195.57 375.82C195.3 375.74 195.04 375.66 194.78 375.57C193.28 375.12 191.82 374.65 190.38 374.18C190.13 374.1 189.88 374.02 189.63 373.93C184.87 372.37 180.45 370.78 176.45 369.25C176.38 369.22 176.32 369.2 176.26 369.17C175.49 368.87 174.73 368.58 173.99 368.29C172.99 367.9 172.02 367.51 171.08 367.13C170.63 366.95 170.19 366.76 169.75 366.59C169.14 366.33 168.52 366.08 167.95 365.84C166.94 365.42 165.98 365.01 165.08 364.62C164.1 364.19 163.17 363.79 162.31 363.4L166.11 352.79C166.54 352.98 166.99 353.18 167.45 353.38C167.93 353.59 168.42 353.8 168.93 354.02C170.04 354.5 171.22 355.01 172.48 355.52C172.87 355.68 173.28 355.85 173.68 356.02C174.72 356.44 175.79 356.88 176.92 357.32C177.57 357.58 178.23 357.84 178.9 358.1C179.36 358.28 179.82 358.46 180.3 358.64C181.03 358.92 181.79 359.21 182.55 359.49C183.74 359.94 184.96 360.38 186.22 360.83C189.07 361.85 192.08 362.87 195.22 363.88C195.48 363.97 195.75 364.05 196.01 364.13C196.86 364.41 197.74 364.67 198.61 364.94C199.45 365.2 200.28 365.46 201.14 365.7C201.25 365.74 201.35 365.77 201.47 365.8C202.13 366 202.8 366.19 203.48 366.38C203.89 366.5 204.31 366.62 204.73 366.74C205.39 366.93 206.06 367.12 206.75 367.3L206.72 367.32Z" fill="#F3EFF5"/>
<path d="M206.72 367.32L202.92 377.93C201.99 377.68 201.07 377.42 200.16 377.16C199.7 377.03 199.24 376.9 198.79 376.77C198.29 376.63 197.79 376.48 197.29 376.33C196.71 376.16 196.14 375.99 195.57 375.82C195.3 375.74 195.04 375.66 194.78 375.57C193.28 375.12 191.82 374.65 190.38 374.18C190.13 374.1 189.88 374.02 189.63 373.93C184.87 372.37 180.45 370.78 176.45 369.25C176.38 369.22 176.32 369.2 176.26 369.17C175.49 368.87 174.73 368.58 173.99 368.29C172.99 367.9 172.02 367.51 171.08 367.13C170.63 366.95 170.19 366.76 169.75 366.59C169.14 366.33 168.52 366.08 167.95 365.84C166.94 365.42 165.98 365.01 165.08 364.62C164.1 364.19 163.17 363.79 162.31 363.4L166.11 352.79C166.54 352.98 166.99 353.18 167.45 353.38C167.93 353.59 168.42 353.8 168.93 354.02C170.04 354.5 171.22 355.01 172.48 355.52C172.87 355.68 173.28 355.85 173.68 356.02C174.72 356.44 175.79 356.88 176.92 357.32C177.57 357.58 178.23 357.84 178.9 358.1C179.36 358.28 179.82 358.46 180.3 358.64C181.03 358.92 181.79 359.21 182.55 359.49C183.74 359.94 184.96 360.38 186.22 360.83C189.07 361.85 192.08 362.87 195.22 363.88C195.48 363.97 195.75 364.05 196.01 364.13C196.86 364.41 197.74 364.67 198.61 364.94C199.45 365.2 200.28 365.46 201.14 365.7C201.25 365.74 201.35 365.77 201.47 365.8C202.13 366 202.8 366.19 203.48 366.38C203.89 366.5 204.31 366.62 204.73 366.74C205.39 366.93 206.06 367.12 206.75 367.3L206.72 367.32Z" fill="#F3EFF5"/>
<path d="M202.92 377.93C205.32 378.58 207.76 379.21 210.26 379.81L209.34 382.38C199.12 379.91 189.63 376.94 181.48 374.01C168.11 369.22 158.27 364.61 154.52 362.76L155.44 360.18C156.78 360.84 159.12 361.97 162.3 363.39C163.17 363.78 164.09 364.18 165.07 364.61C165.98 365 166.93 365.41 167.95 365.83C168.53 366.08 169.14 366.33 169.75 366.59C170.19 366.77 170.63 366.95 171.08 367.14C172.01 367.52 172.98 367.91 173.99 368.3C174.74 368.59 175.49 368.89 176.26 369.18C176.32 369.21 176.38 369.23 176.45 369.26C180.45 370.79 184.87 372.38 189.63 373.95C189.88 374.03 190.13 374.11 190.38 374.19C191.81 374.66 193.27 375.12 194.77 375.58C195.04 375.67 195.3 375.75 195.57 375.82C196.14 375.99 196.71 376.17 197.29 376.33C197.79 376.48 198.29 376.63 198.79 376.77C199.24 376.9 199.7 377.03 200.16 377.16C201.07 377.42 201.99 377.68 202.92 377.93V377.93Z" fill="#555451"/>
<path d="M214.98 366.62L214.06 369.2C211.57 368.6 209.12 367.97 206.72 367.31C206.04 367.13 205.37 366.94 204.7 366.75C204.28 366.63 203.87 366.52 203.45 366.39C202.77 366.2 202.11 366 201.45 365.81C201.33 365.78 201.23 365.75 201.12 365.71C200.26 365.46 199.42 365.2 198.58 364.95C197.71 364.68 196.84 364.42 195.98 364.14C195.72 364.05 195.45 363.98 195.19 363.89C192.05 362.88 189.04 361.86 186.19 360.84C184.94 360.39 183.71 359.95 182.52 359.5C181.75 359.21 181 358.93 180.27 358.65C179.79 358.47 179.33 358.29 178.87 358.11C178.2 357.86 177.54 357.6 176.89 357.34C175.77 356.9 174.69 356.46 173.65 356.04C173.24 355.87 172.84 355.7 172.45 355.54C171.2 355.02 170.01 354.52 168.9 354.04C168.39 353.82 167.91 353.61 167.42 353.4C166.96 353.19 166.51 353 166.09 352.81C163 351.43 160.66 350.32 159.22 349.62L160.14 347.04C165.59 349.73 187.59 360.09 214.97 366.65L214.98 366.62Z" fill="#555451"/>
<path d="M136.61 463.39C137.55 463.77 138.51 464.16 139.52 464.55C138.52 464.16 137.55 463.77 136.61 463.39Z" fill="#555451"/>
<path d="M179.58 465.46L175.78 476.07C173.29 475.47 170.84 474.84 168.44 474.19C167.51 473.94 166.59 473.68 165.68 473.42C165.22 473.29 164.76 473.16 164.31 473.03C163.81 472.89 163.31 472.74 162.81 472.59C162.23 472.42 161.66 472.25 161.09 472.08C160.82 472 160.56 471.92 160.3 471.83C158.8 471.38 157.34 470.91 155.9 470.44C155.65 470.36 155.4 470.28 155.15 470.19C150.39 468.63 145.97 467.04 141.97 465.51C141.9 465.48 141.84 465.46 141.78 465.43C141.01 465.13 140.25 464.84 139.51 464.55C138.51 464.16 137.54 463.77 136.6 463.39C136.15 463.21 135.71 463.02 135.27 462.85C134.66 462.59 134.04 462.34 133.47 462.1C132.46 461.68 131.5 461.27 130.6 460.88C129.62 460.45 128.69 460.05 127.83 459.66C124.65 458.24 122.31 457.11 120.97 456.45L124.76 445.86C126.2 446.56 128.54 447.68 131.63 449.05C132.06 449.24 132.51 449.44 132.97 449.64C133.45 449.85 133.94 450.06 134.45 450.28C135.56 450.76 136.74 451.27 138 451.78C138.39 451.94 138.8 452.11 139.2 452.28C140.24 452.7 141.31 453.14 142.44 453.58C143.09 453.84 143.75 454.1 144.42 454.36C144.88 454.54 145.34 454.72 145.82 454.9C146.55 455.18 147.31 455.47 148.07 455.75C149.26 456.2 150.48 456.64 151.74 457.09C154.59 458.11 157.6 459.13 160.74 460.14C161 460.23 161.27 460.31 161.53 460.39C162.38 460.67 163.26 460.93 164.13 461.2C164.97 461.46 165.8 461.72 166.66 461.96C166.77 462 166.87 462.03 166.99 462.06C167.65 462.26 168.32 462.45 169 462.64C169.41 462.76 169.83 462.88 170.25 463C170.91 463.19 171.58 463.38 172.27 463.56C174.67 464.22 177.11 464.84 179.61 465.44L179.58 465.46Z" fill="#BEBBBF"/>
<path d="M172.25 463.57L168.45 474.18C167.52 473.93 166.6 473.67 165.69 473.41C165.23 473.28 164.77 473.15 164.32 473.02C163.82 472.88 163.32 472.73 162.82 472.58C162.24 472.41 161.67 472.24 161.1 472.07C160.83 471.99 160.57 471.91 160.31 471.82C158.81 471.37 157.35 470.9 155.91 470.43C155.66 470.35 155.41 470.27 155.16 470.18C150.4 468.62 145.98 467.03 141.98 465.5C141.91 465.47 141.85 465.45 141.79 465.42C141.02 465.12 140.26 464.83 139.52 464.54C138.52 464.15 137.55 463.76 136.61 463.38C136.16 463.2 135.72 463.01 135.28 462.84C134.67 462.58 134.05 462.33 133.48 462.09C132.47 461.67 131.51 461.26 130.61 460.87C129.63 460.44 128.7 460.04 127.84 459.65L131.64 449.04C132.07 449.23 132.52 449.43 132.98 449.63C133.46 449.84 133.95 450.05 134.46 450.27C135.57 450.75 136.75 451.26 138.01 451.77C138.4 451.93 138.81 452.1 139.21 452.27C140.25 452.69 141.32 453.13 142.45 453.57C143.1 453.83 143.76 454.09 144.43 454.35C144.89 454.53 145.35 454.71 145.83 454.89C146.56 455.17 147.32 455.46 148.08 455.74C149.27 456.19 150.49 456.63 151.75 457.08C154.6 458.1 157.61 459.12 160.75 460.13C161.01 460.22 161.28 460.3 161.54 460.38C162.39 460.66 163.27 460.92 164.14 461.19C164.98 461.45 165.81 461.71 166.67 461.95C166.78 461.99 166.88 462.02 167 462.05C167.66 462.25 168.33 462.44 169.01 462.63C169.42 462.75 169.84 462.87 170.26 462.99C170.92 463.18 171.59 463.37 172.28 463.55L172.25 463.57Z" fill="#F3EFF5"/>
<path d="M172.25 463.57L168.45 474.18C167.52 473.93 166.6 473.67 165.69 473.41C165.23 473.28 164.77 473.15 164.32 473.02C163.82 472.88 163.32 472.73 162.82 472.58C162.24 472.41 161.67 472.24 161.1 472.07C160.83 471.99 160.57 471.91 160.31 471.82C158.81 471.37 157.35 470.9 155.91 470.43C155.66 470.35 155.41 470.27 155.16 470.18C150.4 468.62 145.98 467.03 141.98 465.5C141.91 465.47 141.85 465.45 141.79 465.42C141.02 465.12 140.26 464.83 139.52 464.54C138.52 464.15 137.55 463.76 136.61 463.38C136.16 463.2 135.72 463.01 135.28 462.84C134.67 462.58 134.05 462.33 133.48 462.09C132.47 461.67 131.51 461.26 130.61 460.87C129.63 460.44 128.7 460.04 127.84 459.65L131.64 449.04C132.07 449.23 132.52 449.43 132.98 449.63C133.46 449.84 133.95 450.05 134.46 450.27C135.57 450.75 136.75 451.26 138.01 451.77C138.4 451.93 138.81 452.1 139.21 452.27C140.25 452.69 141.32 453.13 142.45 453.57C143.1 453.83 143.76 454.09 144.43 454.35C144.89 454.53 145.35 454.71 145.83 454.89C146.56 455.17 147.32 455.46 148.08 455.74C149.27 456.19 150.49 456.63 151.75 457.08C154.6 458.1 157.61 459.12 160.75 460.13C161.01 460.22 161.28 460.3 161.54 460.38C162.39 460.66 163.27 460.92 164.14 461.19C164.98 461.45 165.81 461.71 166.67 461.95C166.78 461.99 166.88 462.02 167 462.05C167.66 462.25 168.33 462.44 169.01 462.63C169.42 462.75 169.84 462.87 170.26 462.99C170.92 463.18 171.59 463.37 172.28 463.55L172.25 463.57Z" fill="#F3EFF5"/>
<path d="M168.45 474.19C170.85 474.84 173.29 475.47 175.79 476.07L174.87 478.64C164.65 476.17 155.16 473.2 147.01 470.27C133.64 465.48 123.8 460.87 120.05 459.02L120.97 456.44C122.31 457.1 124.65 458.23 127.83 459.65C128.7 460.04 129.62 460.44 130.6 460.87C131.51 461.26 132.46 461.67 133.48 462.09C134.06 462.34 134.67 462.59 135.28 462.85C135.72 463.03 136.16 463.21 136.61 463.4C137.54 463.78 138.51 464.17 139.52 464.56C140.27 464.85 141.02 465.15 141.79 465.44C141.85 465.47 141.91 465.49 141.98 465.52C145.98 467.05 150.4 468.64 155.16 470.21C155.41 470.29 155.66 470.37 155.91 470.45C157.34 470.92 158.8 471.38 160.3 471.84C160.57 471.93 160.83 472.01 161.1 472.08C161.67 472.25 162.24 472.43 162.82 472.59C163.32 472.74 163.82 472.89 164.32 473.03C164.77 473.16 165.23 473.29 165.69 473.42C166.6 473.68 167.52 473.94 168.45 474.19V474.19Z" fill="#555451"/>
<path d="M180.51 462.88L179.59 465.46C177.1 464.86 174.65 464.23 172.25 463.57C171.57 463.39 170.9 463.2 170.23 463.01C169.81 462.89 169.4 462.78 168.98 462.65C168.3 462.46 167.64 462.26 166.98 462.07C166.86 462.04 166.76 462.01 166.65 461.97C165.79 461.72 164.95 461.46 164.11 461.21C163.24 460.94 162.37 460.68 161.51 460.4C161.25 460.31 160.98 460.24 160.72 460.15C157.58 459.14 154.57 458.12 151.72 457.1C150.47 456.65 149.24 456.21 148.05 455.76C147.28 455.47 146.53 455.19 145.8 454.91C145.32 454.73 144.86 454.55 144.4 454.37C143.73 454.12 143.07 453.86 142.42 453.6C141.3 453.16 140.22 452.72 139.18 452.3C138.77 452.13 138.37 451.96 137.98 451.8C136.73 451.28 135.54 450.78 134.43 450.3C133.92 450.08 133.44 449.87 132.95 449.66C132.49 449.45 132.04 449.26 131.62 449.07C128.53 447.69 126.19 446.58 124.75 445.88L125.67 443.3C131.12 445.99 153.12 456.35 180.5 462.91L180.51 462.88Z" fill="#555451"/>
<path d="M163.961 336.448L156.806 333.886L73.2431 567.267L80.3983 569.829L163.961 336.448Z" fill="#555451"/>
<path d="M225.93 358.648L218.775 356.086L135.213 589.468L142.368 592.029L225.93 358.648Z" fill="#555451"/>
</svg>
