<?xml version="1.0" encoding="UTF-8" standalone="no"?>
<!-- Generator: Adobe Illustrator 26.0.3, SVG Export Plug-In . SVG Version: 6.00 Build 0)  -->

<svg
   version="1.1"
   id="Слой_1"
   x="0px"
   y="0px"
   viewBox="0 0 464.53 977.49"
   style="enable-background:new 0 0 464.53 977.49;"
   xml:space="preserve"
   sodipodi:docname="Ж-07 Венозный жгут на левое плечо ниже кровотечения.svg"
   inkscape:version="1.1.1 (3bf5ae0d25, 2021-09-20)"
   xmlns:inkscape="http://www.inkscape.org/namespaces/inkscape"
   xmlns:sodipodi="http://sodipodi.sourceforge.net/DTD/sodipodi-0.dtd"
   xmlns="http://www.w3.org/2000/svg"
   xmlns:svg="http://www.w3.org/2000/svg"><defs
   id="defs2072">
	
	
		<radialGradient
   id="SVGID_1_"
   cx="73.9495"
   cy="-372.1642"
   r="12.8554"
   gradientTransform="matrix(0.9524,-0.3448,0.5446,1.5043,486.3755,906.0419)"
   gradientUnits="userSpaceOnUse">
		<stop
   offset="0"
   style="stop-color:#ED1C24"
   id="stop2042" />
		<stop
   offset="1"
   style="stop-color:#F6D3BD"
   id="stop2044" />
	</radialGradient>
	
	
	
</defs><sodipodi:namedview
   id="namedview2070"
   pagecolor="#ffffff"
   bordercolor="#666666"
   borderopacity="1.0"
   inkscape:pageshadow="2"
   inkscape:pageopacity="0.0"
   inkscape:pagecheckerboard="0"
   showgrid="false"
   inkscape:zoom="0.85115961"
   inkscape:cx="232.03639"
   inkscape:cy="489.33243"
   inkscape:window-width="1920"
   inkscape:window-height="1017"
   inkscape:window-x="-8"
   inkscape:window-y="-8"
   inkscape:window-maximized="1"
   inkscape:current-layer="Слой_1" />
<style
   type="text/css"
   id="style1968">
	.st0{fill:#F6D3BD;}
	.st1{fill:#C4A996;}
	.st2{fill:#ED1C24;}
	.st3{fill:#998475;}
	.st4{fill:#BDB7B2;}
	.st5{fill:#E7E3E0;}
	.st6{fill:#4F5260;}
	.st7{fill:#555968;}
	.st8{fill:url(#SVGID_1_);}
	.st9{fill:url(#SVGID_00000038395440045899373420000017699295321788327352_);}
	.st10{fill:url(#SVGID_00000062149987209500152790000004471249022519508648_);}
	.st11{fill:url(#SVGID_00000152981254947198763580000001983124829509048975_);}
	.st12{fill:#63687A;}
	.st13{fill:#AEA89F;}
	.st14{fill:none;stroke:#998475;stroke-width:2;stroke-miterlimit:10;}
	.st15{fill:#FFFFFF;}
	.st16{fill:#1D1D1B;}
	.st17{fill:#E6E6E6;}
	.st18{fill:#333333;}
	.st19{fill:#4D4D4D;}
	.st20{fill:#1A1A1A;}
	.st21{fill:#A8A199;}
	.st22{fill:#E2D6CE;}
	.st23{fill:url(#SVGID_00000163045397398615384040000008550744999351791751_);}
	.st24{fill:url(#SVGID_00000039134916407159295560000000546532454025964175_);}
	.st25{fill:url(#SVGID_00000119076771917035302780000009188236656883106708_);}
	.st26{fill:url(#SVGID_00000142880784235807359040000012907585189085098655_);}
	.st27{fill:#555451;}
	.st28{fill:#578BAA;}
	.st29{fill:#6BABD1;}
	.st30{fill:#A6A6A6;}
	.st31{fill:#F3EFF5;}
	.st32{fill:#D4D1D6;}
	.st33{fill:#848BA3;}
	.st34{fill:#676D80;}
	.st35{fill:#9FA7C4;}
	.st36{fill:#BEBBBF;}
	.st37{fill:url(#SVGID_00000016788272738478577890000007256346806053843861_);}
	.st38{fill:url(#SVGID_00000042721659795802312450000004444898012484500113_);}
	.st39{fill:url(#SVGID_00000151501320411403387650000005308843387759853718_);}
	.st40{fill:url(#SVGID_00000064348526321386186260000009948611214138792615_);}
	.st41{fill:url(#SVGID_00000000919230361116389620000012594148321613984431_);}
	.st42{fill:url(#SVGID_00000041275445856222997720000008737085125510148793_);}
	.st43{fill:url(#SVGID_00000115492765658953553110000008927527433650325429_);}
	.st44{fill:url(#SVGID_00000087386748092814979160000000388116436410243729_);}
	.st45{fill:url(#SVGID_00000115504850076479209380000006283793671069685129_);}
	.st46{fill:url(#SVGID_00000005986382918886900660000000818975145263004848_);}
	.st47{fill:url(#SVGID_00000062912307717376999030000011251787094439503261_);}
	.st48{fill:url(#SVGID_00000069355883716128880700000016022162907058564997_);}
	.st49{fill:url(#SVGID_00000055697770814440331480000012876350311762599087_);}
	.st50{fill:url(#SVGID_00000005986177883011090600000000711472324294080135_);}
</style>
<g
   id="g2055">
		<path
   class="st35"
   d="m 389.37,346.53 c -6.74,3.57 -13.72,6.83 -20.94,9.76 -7.4,3 -15.03,5.65 -22.91,7.96 -10.84,-4.99 -7.29,-12.57 -7.29,-12.57 17.23,-4.78 33.24,-11.27 47.92,-19.42 8.14,4.76 3.44,13.85 3.22,14.27 z"
   id="path2049" />
		<path
   class="st33"
   d="m 357.09,360.87 c -3.59,1.23 -7.24,2.39 -10.93,3.48 -10.84,-4.99 -7.29,-12.57 -7.29,-12.57 4.29,-1.18 8.52,-2.48 12.66,-3.89 0.15,0.34 2.62,6 5.56,12.98 z"
   id="path2051" />
		<path
   class="st34"
   d="m 369.31,356.98 c -7.38,2.99 -15.11,5.67 -22.98,7.98 l -0.23,0.07 -0.22,-0.1 c -4.03,-1.86 -6.61,-4.28 -7.68,-7.21 -1.23,-3.35 0.03,-6.1 0.08,-6.21 l 0.12,-0.27 0.28,-0.08 c 17.12,-4.75 33.2,-11.27 47.78,-19.36 l 0.32,-0.18 0.31,0.18 c 8.43,4.92 4,14.09 3.47,15.12 l -0.09,0.18 -0.18,0.09 c -6.74,3.6 -13.81,6.89 -20.98,9.79 z m -23.1,6.68 c 15.28,-4.49 29.79,-10.34 43.32,-17.5 0.72,-1.48 3.9,-8.9 -2.76,-13.06 -14.5,8.01 -30.45,14.47 -47.43,19.21 -0.48,1.32 -1.99,7.17 6.87,11.35 z"
   id="path2053" />
	</g>
</svg>
