<?xml version="1.0" encoding="UTF-8" standalone="no"?>
<!-- Generator: Adobe Illustrator 26.0.3, SVG Export Plug-In . SVG Version: 6.00 Build 0)  -->

<svg
   version="1.1"
   id="Слой_1"
   x="0px"
   y="0px"
   viewBox="0 0 464.53 977.49"
   style="enable-background:new 0 0 464.53 977.49;"
   xml:space="preserve"
   sodipodi:docname="Ж-05 Артериальный жгут на левое плечо ниже кровотечения.svg"
   inkscape:version="1.1.1 (3bf5ae0d25, 2021-09-20)"
   xmlns:inkscape="http://www.inkscape.org/namespaces/inkscape"
   xmlns:sodipodi="http://sodipodi.sourceforge.net/DTD/sodipodi-0.dtd"
   xmlns="http://www.w3.org/2000/svg"
   xmlns:svg="http://www.w3.org/2000/svg"><defs
   id="defs1803">
	
	
		<radialGradient
   id="SVGID_1_"
   cx="272.0188"
   cy="554.3114"
   r="13.8164"
   gradientTransform="matrix(0.9524,-0.3448,0.5446,1.5043,-206.4841,-421.1727)"
   gradientUnits="userSpaceOnUse">
		<stop
   offset="0"
   style="stop-color:#ED1C24"
   id="stop1759" />
		<stop
   offset="1"
   style="stop-color:#F6D3BD"
   id="stop1761" />
	</radialGradient>
	
	
	
</defs><sodipodi:namedview
   id="namedview1801"
   pagecolor="#ffffff"
   bordercolor="#666666"
   borderopacity="1.0"
   inkscape:pageshadow="2"
   inkscape:pageopacity="0.0"
   inkscape:pagecheckerboard="0"
   showgrid="false"
   inkscape:zoom="0.85115961"
   inkscape:cx="232.03639"
   inkscape:cy="489.33243"
   inkscape:window-width="1920"
   inkscape:window-height="1017"
   inkscape:window-x="-8"
   inkscape:window-y="-8"
   inkscape:window-maximized="1"
   inkscape:current-layer="Слой_1" />
<style
   type="text/css"
   id="style1685">
	.st0{fill:#F6D3BD;}
	.st1{fill:#C4A996;}
	.st2{fill:#ED1C24;}
	.st3{fill:#998475;}
	.st4{fill:#BDB7B2;}
	.st5{fill:#E7E3E0;}
	.st6{fill:#4F5260;}
	.st7{fill:#555968;}
	.st8{fill:url(#SVGID_1_);}
	.st9{fill:url(#SVGID_00000178203696402185063270000012890112249208266667_);}
	.st10{fill:url(#SVGID_00000088823816358490130730000007048504308036455861_);}
	.st11{fill:url(#SVGID_00000174566378704638249180000016571643834921004702_);}
	.st12{fill:#63687A;}
	.st13{fill:#AEA89F;}
	.st14{fill:none;stroke:#998475;stroke-width:2;stroke-miterlimit:10;}
	.st15{fill:#FFFFFF;}
	.st16{fill:#1D1D1B;}
	.st17{fill:#E6E6E6;}
	.st18{fill:#333333;}
	.st19{fill:#4D4D4D;}
	.st20{fill:#1A1A1A;}
	.st21{fill:#A8A199;}
	.st22{fill:#E2D6CE;}
	.st23{fill:url(#SVGID_00000146491029640397560440000015054026780527134881_);}
	.st24{fill:url(#SVGID_00000114753517166836284150000002453466301042932642_);}
	.st25{fill:url(#SVGID_00000149349121895852572270000016816242442428731014_);}
	.st26{fill:url(#SVGID_00000032626879718236317590000017346439666395345315_);}
	.st27{fill:#555451;}
	.st28{fill:#578BAA;}
	.st29{fill:#6BABD1;}
	.st30{fill:#A6A6A6;}
	.st31{fill:#F3EFF5;}
	.st32{fill:#D4D1D6;}
	.st33{fill:#848BA3;}
	.st34{fill:#676D80;}
	.st35{fill:#9FA7C4;}
	.st36{fill:#BEBBBF;}
	.st37{fill:url(#SVGID_00000046319227191900127260000005834166576246395525_);}
	.st38{fill:url(#SVGID_00000000904823871424792820000004977785661523184033_);}
	.st39{fill:url(#SVGID_00000065064266721049903140000013719120497872343224_);}
	.st40{fill:url(#SVGID_00000095338544179132059950000003014548370903891617_);}
	.st41{fill:url(#SVGID_00000078755318135573871180000006915266700107210143_);}
	.st42{fill:url(#SVGID_00000161597631033752052220000006674480563189929130_);}
	.st43{fill:url(#SVGID_00000132061769989993811450000015989047573796174780_);}
	.st44{fill:url(#SVGID_00000109009106831266192990000002648381967743551395_);}
	.st45{fill:url(#SVGID_00000118396803034437104040000008819372523021823672_);}
	.st46{fill:url(#SVGID_00000170976759730908943010000001179266233053722280_);}
	.st47{fill:url(#SVGID_00000150812259401160942110000017758766703850185401_);}
	.st48{fill:url(#SVGID_00000115497036653179414420000016113640430602416523_);}
	.st49{fill:url(#SVGID_00000118363242117463395670000005424501234591238025_);}
	.st50{fill:url(#SVGID_00000147189088841506017540000009874974807435567017_);}
</style>
<g
   id="g1786">
		<path
   class="st35"
   d="m 385.26,337.19 c -6.77,3.59 -13.79,6.87 -21.05,9.81 -7.44,3.01 -15.11,5.68 -23.03,8 -10.9,-5.02 -7.33,-12.63 -7.33,-12.63 17.32,-4.81 33.41,-11.33 48.17,-19.52 8.19,4.77 3.46,13.91 3.24,14.34 z"
   id="path1766" />
		<path
   class="st35"
   d="m 388.31,351.09 c -6.11,3.16 -12.41,6.06 -18.92,8.69 -6.98,2.83 -14.17,5.35 -21.6,7.57 -9.81,-1.89 -6.62,-12.36 -6.62,-12.36 7.92,-2.32 15.6,-4.99 23.03,-8 7.26,-2.94 14.28,-6.22 21.05,-9.81 -0.01,0.02 -0.01,0.02 -0.01,0.02 7.14,6.31 3.07,13.89 3.07,13.89 z"
   id="path1768" />
		<path
   class="st35"
   d="m 391.81,364.59 c -5.59,2.83 -11.35,5.45 -17.27,7.85 -7.35,2.98 -14.95,5.63 -22.8,7.93 -8.55,-5.44 -3.94,-13.01 -3.94,-13.01 7.42,-2.22 14.61,-4.74 21.6,-7.57 6.5,-2.64 12.8,-5.54 18.92,-8.69 8.06,3.24 3.49,13.49 3.49,13.49 z"
   id="path1770" />
		<path
   class="st34"
   d="m 358.04,364.38 c 2.14,5.39 3.92,10.22 4.55,12.84 -3.35,1.15 -6.75,2.23 -10.2,3.24 -8.55,-5.44 -3.94,-13.01 -3.94,-13.01 -9.81,-1.89 -6.62,-12.36 -6.62,-12.36 -10.9,-5.02 -7.33,-12.63 -7.33,-12.63 4.31,-1.19 8.56,-2.5 12.73,-3.91 0.15,0.34 2.64,6.03 5.59,13.05 1.7,4.08 3.56,8.6 5.22,12.78 z"
   id="path1772" />
		<path
   class="st33"
   d="m 352.82,351.6 c -3.61,1.24 -7.28,2.41 -10.99,3.49 -10.9,-5.02 -7.33,-12.63 -7.33,-12.63 4.31,-1.19 8.56,-2.5 12.73,-3.91 0.15,0.35 2.63,6.04 5.59,13.05 z"
   id="path1774" />
		<path
   class="st33"
   d="m 358.04,364.38 c -3.16,1.09 -6.35,2.12 -9.59,3.08 -9.81,-1.89 -6.62,-12.36 -6.62,-12.36 3.71,-1.09 7.38,-2.25 10.99,-3.49 1.7,4.07 3.56,8.59 5.22,12.77 z"
   id="path1776" />
		<path
   class="st33"
   d="m 358.04,364.38 c 2.14,5.39 3.92,10.22 4.55,12.84 -3.35,1.15 -6.75,2.23 -10.2,3.24 -8.55,-5.44 -3.94,-13.01 -3.94,-13.01 3.23,-0.95 6.43,-1.98 9.59,-3.07 z"
   id="path1778" />
		<path
   class="st34"
   d="m 365.1,347.7 c -7.42,3 -15.19,5.7 -23.09,8.02 l -0.23,0.07 -0.22,-0.1 c -4.05,-1.87 -6.65,-4.3 -7.72,-7.24 -1.23,-3.37 0.03,-6.13 0.08,-6.25 l 0.12,-0.27 0.29,-0.08 c 17.21,-4.78 33.37,-11.33 48.03,-19.46 l 0.32,-0.18 0.32,0.19 c 8.47,4.95 4.02,14.16 3.49,15.2 l -0.09,0.18 -0.18,0.09 c -6.81,3.6 -13.91,6.91 -21.12,9.83 z m -23.22,6.71 c 15.36,-4.51 29.94,-10.39 43.55,-17.59 0.73,-1.49 3.92,-8.95 -2.77,-13.13 -14.58,8.05 -30.61,14.55 -47.68,19.31 -0.49,1.32 -2.01,7.2 6.9,11.41 z"
   id="path1780" />
		<path
   class="st34"
   d="m 370.28,360.49 c -7.01,2.84 -14.29,5.39 -21.65,7.59 l -0.15,0.04 -0.15,-0.03 c -2.93,-0.56 -5.05,-1.91 -6.32,-4.02 -2.36,-3.91 -0.86,-8.96 -0.8,-9.17 l 0.1,-0.33 0.33,-0.1 c 7.87,-2.3 15.6,-4.99 22.97,-7.98 7.16,-2.9 14.23,-6.19 20.99,-9.78 l 1.6,-0.85 -0.54,1.27 c 6.95,6.51 2.9,14.28 2.85,14.36 l -0.09,0.18 -0.18,0.09 c -6.13,3.19 -12.52,6.12 -18.96,8.73 z m -21.87,6.31 c 13.93,-4.16 27.4,-9.55 40.06,-16.07 0.54,-1.12 3.06,-7.26 -2.68,-12.64 -6.68,3.52 -13.64,6.75 -20.69,9.61 -7.31,2.96 -14.96,5.62 -22.75,7.92 -0.27,1.13 -0.99,4.92 0.76,7.81 1.05,1.72 2.83,2.86 5.3,3.37 z"
   id="path1782" />
		<path
   class="st34"
   d="m 375.42,373.14 c -7.38,2.99 -15.07,5.67 -22.86,7.95 l -0.28,0.08 -0.25,-0.16 c -8.98,-5.71 -4.19,-13.8 -4.14,-13.89 l 0.13,-0.21 0.24,-0.07 c 14.05,-4.19 27.64,-9.62 40.4,-16.22 l 0.26,-0.13 0.27,0.11 c 2.2,0.89 3.73,2.35 4.53,4.34 1.77,4.39 -0.59,9.78 -0.69,10.01 l -0.09,0.21 -0.2,0.1 c -5.53,2.81 -11.36,5.46 -17.32,7.88 z m -22.94,6.63 c 13.81,-4.07 27.28,-9.38 39.46,-15.54 0.4,-0.99 1.98,-5.37 0.59,-8.81 -0.64,-1.57 -1.83,-2.75 -3.55,-3.51 -12.68,6.53 -26.17,11.92 -40.11,16.09 -0.63,1.21 -3.31,7.19 3.61,11.77 z"
   id="path1784" />
	</g>
</svg>
