<?xml version="1.0" encoding="UTF-8" standalone="no"?>
<!-- Generator: Adobe Illustrator 26.0.3, SVG Export Plug-In . SVG Version: 6.00 Build 0)  -->

<svg
   version="1.1"
   id="Слой_1"
   x="0px"
   y="0px"
   viewBox="0 0 464.53 977.49"
   style="enable-background:new 0 0 464.53 977.49;"
   xml:space="preserve"
   sodipodi:docname="Ж-06 Артериальный жгут на левое плечо выше кровотечения.svg"
   inkscape:version="1.1.1 (3bf5ae0d25, 2021-09-20)"
   xmlns:inkscape="http://www.inkscape.org/namespaces/inkscape"
   xmlns:sodipodi="http://sodipodi.sourceforge.net/DTD/sodipodi-0.dtd"
   xmlns="http://www.w3.org/2000/svg"
   xmlns:svg="http://www.w3.org/2000/svg"><defs
   id="defs1506">
	
	
		<radialGradient
   id="SVGID_1_"
   cx="307.2114"
   cy="446.2032"
   r="13.0543"
   gradientTransform="matrix(0.9524,-0.3448,0.5446,1.5043,-182.3719,-246.3325)"
   gradientUnits="userSpaceOnUse">
		<stop
   offset="0"
   style="stop-color:#ED1C24"
   id="stop1462" />
		<stop
   offset="1"
   style="stop-color:#F6D3BD"
   id="stop1464" />
	</radialGradient>
	
	
</defs><sodipodi:namedview
   id="namedview1504"
   pagecolor="#ffffff"
   bordercolor="#666666"
   borderopacity="1.0"
   inkscape:pageshadow="2"
   inkscape:pageopacity="0.0"
   inkscape:pagecheckerboard="0"
   showgrid="false"
   inkscape:zoom="0.85115961"
   inkscape:cx="232.03639"
   inkscape:cy="489.33243"
   inkscape:window-width="1920"
   inkscape:window-height="1017"
   inkscape:window-x="-8"
   inkscape:window-y="-8"
   inkscape:window-maximized="1"
   inkscape:current-layer="Слой_1" />
<style
   type="text/css"
   id="style1388">
	.st0{fill:#F6D3BD;}
	.st1{fill:#C4A996;}
	.st2{fill:#ED1C24;}
	.st3{fill:#998475;}
	.st4{fill:#BDB7B2;}
	.st5{fill:#E7E3E0;}
	.st6{fill:#4F5260;}
	.st7{fill:#555968;}
	.st8{fill:url(#SVGID_1_);}
	.st9{fill:url(#SVGID_00000020372209862669793660000004482764427190161300_);}
	.st10{fill:url(#SVGID_00000155121941895306567470000014291514149883347362_);}
	.st11{fill:url(#SVGID_00000013882793971082493310000007413844139921741733_);}
	.st12{fill:#63687A;}
	.st13{fill:#AEA89F;}
	.st14{fill:none;stroke:#998475;stroke-width:2;stroke-miterlimit:10;}
	.st15{fill:#FFFFFF;}
	.st16{fill:#1D1D1B;}
	.st17{fill:#E6E6E6;}
	.st18{fill:#333333;}
	.st19{fill:#4D4D4D;}
	.st20{fill:#1A1A1A;}
	.st21{fill:#A8A199;}
	.st22{fill:#E2D6CE;}
	.st23{fill:url(#SVGID_00000001634846130862661530000015588024171854454929_);}
	.st24{fill:url(#SVGID_00000052075088425382767590000016185036236834305679_);}
	.st25{fill:url(#SVGID_00000150098259435217682030000017948371312081524895_);}
	.st26{fill:url(#SVGID_00000170998394385119694000000015130109607966766727_);}
	.st27{fill:#555451;}
	.st28{fill:#578BAA;}
	.st29{fill:#6BABD1;}
	.st30{fill:#A6A6A6;}
	.st31{fill:#F3EFF5;}
	.st32{fill:#D4D1D6;}
	.st33{fill:#848BA3;}
	.st34{fill:#676D80;}
	.st35{fill:#9FA7C4;}
	.st36{fill:#BEBBBF;}
	.st37{fill:url(#SVGID_00000114052166322649727160000005749172572798918031_);}
	.st38{fill:url(#SVGID_00000132082793112346999980000018442418076246944939_);}
	.st39{fill:url(#SVGID_00000023977756556577918140000010182202187142014106_);}
	.st40{fill:url(#SVGID_00000096057849192610986210000000889272690935819161_);}
	.st41{fill:url(#SVGID_00000033336521832692718390000006073001349477610923_);}
	.st42{fill:url(#SVGID_00000060021758339697231670000005792807320593968028_);}
	.st43{fill:url(#SVGID_00000145773747793293729590000002794221376051969952_);}
	.st44{fill:url(#SVGID_00000053537451058296108930000009444469786282704572_);}
	.st45{fill:url(#SVGID_00000049183096993944377600000005443793307703571642_);}
	.st46{fill:url(#SVGID_00000043436925664071466570000014337265989956125882_);}
	.st47{fill:url(#SVGID_00000013880745005938380980000008184797942838409137_);}
	.st48{fill:url(#SVGID_00000139290268798839931630000011868378599063059857_);}
	.st49{fill:url(#SVGID_00000140693844957191662590000005140794144054441137_);}
	.st50{fill:url(#SVGID_00000067231602167199777140000004816352502446954627_);}
</style>
<g
   id="g1499">
		<g
   id="g1475">
			<path
   class="st35"
   d="m 351.36,236.31 c -13.29,4.33 -27.35,7.05 -42.08,8.16 0,0 -5.01,-2.92 -0.92,-10.97 v -0.01 c 14.58,-1.08 28.43,-3.84 41.47,-8.27 0,0 5.9,3.33 1.53,11.09 z"
   id="path1469" />
			<path
   class="st35"
   d="m 354.84,246.44 c -14.21,4.76 -29.29,7.67 -45.16,8.71 -0.3,-0.22 -5.3,-4.15 -0.41,-10.68 14.73,-1.11 28.79,-3.83 42.08,-8.16 -0.01,0 -0.01,0.01 -0.01,0.01 0,0 7.29,2.61 3.5,10.12 z"
   id="path1471" />
			<path
   class="st35"
   d="m 358.63,255.98 c -15.1,5.28 -31.2,8.45 -48.2,9.49 0,0 -4.65,-5.2 -0.73,-10.31 0,0 0,0 -0.01,-0.01 15.87,-1.04 30.95,-3.95 45.16,-8.71 -0.01,0 6.17,0.82 3.78,9.54 z"
   id="path1473" />
		</g>
		<g
   id="g1489">
			<path
   class="st33"
   d="m 311.38,233.24 c 0.39,2.95 0.94,6.76 1.64,10.91 -1.24,0.12 -2.49,0.22 -3.75,0.32 0,0 -5.01,-2.92 -0.92,-10.97 v -0.01 c 1.02,-0.08 2.03,-0.16 3.03,-0.25 z"
   id="path1477" />
			<path
   class="st33"
   d="m 351.36,236.31 c -1.72,0.56 -3.45,1.09 -5.2,1.6 -1.11,-3.52 -2.38,-7.08 -3.83,-10.36 2.53,-0.71 5.03,-1.49 7.5,-2.33 0,0 5.9,3.33 1.53,11.09 z"
   id="path1479" />
			<path
   class="st33"
   d="m 313.02,244.15 c 0.57,3.39 1.24,7.01 2.02,10.57 -1.77,0.17 -3.56,0.31 -5.36,0.43 -0.3,-0.22 -5.3,-4.15 -0.41,-10.68 1.27,-0.1 2.52,-0.2 3.75,-0.32 z"
   id="path1481" />
			<path
   class="st33"
   d="m 354.84,246.44 c -1.92,0.64 -3.86,1.25 -5.81,1.83 -0.78,-3.16 -1.74,-6.73 -2.88,-10.36 1.75,-0.51 3.48,-1.04 5.2,-1.6 -0.01,0 -0.01,0.01 -0.01,0.01 0,0 7.29,2.61 3.5,10.12 z"
   id="path1483" />
			<path
   class="st33"
   d="m 315.04,254.72 c 0.77,3.54 1.65,7.02 2.62,10.17 -2.39,0.24 -4.81,0.43 -7.24,0.58 0,0 -4.65,-5.2 -0.73,-10.31 0,0 0,0 -0.01,-0.01 1.8,-0.12 3.59,-0.26 5.36,-0.43 z"
   id="path1485" />
			<path
   class="st33"
   d="m 358.63,255.98 c -2.44,0.85 -4.9,1.65 -7.39,2.39 -0.29,-1.55 -1.03,-5.35 -2.2,-10.1 1.95,-0.58 3.89,-1.19 5.81,-1.83 -0.01,0 6.17,0.82 3.78,9.54 z"
   id="path1487" />
		</g>
		<g
   id="g1497">
			<path
   class="st34"
   d="m 309.27,244.97 c -0.09,0 -0.17,-0.02 -0.25,-0.07 -0.05,-0.03 -5.36,-3.25 -1.13,-11.6 0.07,-0.17 0.23,-0.29 0.42,-0.31 14.49,-1.07 28.4,-3.85 41.35,-8.24 0.14,-0.04 0.28,-0.03 0.41,0.04 0.06,0.04 6.28,3.67 1.72,11.77 -0.06,0.11 -0.16,0.19 -0.28,0.23 -13.25,4.32 -27.45,7.07 -42.2,8.18 -0.01,0 -0.02,0 -0.04,0 z m -0.59,-11 c -3.3,6.71 0.01,9.49 0.73,9.99 14.54,-1.11 28.53,-3.82 41.61,-8.06 3.52,-6.42 -0.33,-9.5 -1.25,-10.12 -12.88,4.34 -26.7,7.1 -41.09,8.19 z m 42.67,2.34 z"
   id="path1491" />
			<path
   class="st34"
   d="m 309.68,255.65 c -0.11,0 -0.21,-0.03 -0.3,-0.1 -0.09,-0.07 -2.25,-1.68 -2.67,-4.57 -0.32,-2.17 0.41,-4.47 2.16,-6.81 0.09,-0.12 0.22,-0.19 0.36,-0.2 14.67,-1.11 28.79,-3.84 41.96,-8.14 v 0 c 0.14,-0.05 0.31,-0.02 0.43,0.06 0.61,0.25 3.28,1.45 4.36,4.15 0.77,1.94 0.54,4.16 -0.7,6.62 -0.06,0.12 -0.16,0.21 -0.29,0.25 -14.2,4.76 -29.44,7.7 -45.29,8.74 0.01,0 0,0 -0.02,0 z m -0.14,-10.7 c -1.49,2.06 -2.11,4.04 -1.84,5.88 0.31,2.09 1.7,3.43 2.14,3.8 15.62,-1.04 30.64,-3.93 44.64,-8.61 1.02,-2.11 1.22,-4 0.58,-5.61 -0.89,-2.24 -3.16,-3.33 -3.75,-3.58 -13.12,4.28 -27.18,7 -41.77,8.12 z m 45.3,1.49 z"
   id="path1493" />
			<path
   class="st34"
   d="m 310.42,265.97 c -0.14,0 -0.28,-0.06 -0.37,-0.17 -0.05,-0.05 -4.84,-5.53 -0.81,-10.88 0.08,-0.15 0.23,-0.26 0.41,-0.27 15.76,-1.03 30.91,-3.96 45.03,-8.68 0.07,-0.03 0.15,-0.03 0.22,-0.02 0.09,0.01 2.32,0.33 3.71,2.42 1.23,1.86 1.4,4.46 0.49,7.75 -0.04,0.16 -0.16,0.29 -0.32,0.34 -15.09,5.28 -31.35,8.48 -48.33,9.52 0,-0.01 -0.02,-0.01 -0.03,-0.01 z m -0.46,-10.34 c -3.06,4.2 -0.06,8.4 0.68,9.32 16.71,-1.04 32.71,-4.19 47.57,-9.36 0.75,-2.86 0.6,-5.1 -0.42,-6.66 -0.97,-1.48 -2.5,-1.89 -2.91,-1.98 -14.09,4.71 -29.2,7.63 -44.92,8.68 z m 48.67,0.35 z"
   id="path1495" />
		</g>
	</g>
</svg>
