<?xml version="1.0" encoding="UTF-8" standalone="no"?>
<!-- Generator: Adobe Illustrator 26.0.3, SVG Export Plug-In . SVG Version: 6.00 Build 0)  -->

<svg
   version="1.1"
   id="Слой_1"
   x="0px"
   y="0px"
   viewBox="0 0 464.53 977.49"
   style="enable-background:new 0 0 464.53 977.49;"
   xml:space="preserve"
   sodipodi:docname="Ж-08 Венозный жгут на левое плечо выше кровотечения.svg"
   inkscape:version="1.1.1 (3bf5ae0d25, 2021-09-20)"
   xmlns:inkscape="http://www.inkscape.org/namespaces/inkscape"
   xmlns:sodipodi="http://sodipodi.sourceforge.net/DTD/sodipodi-0.dtd"
   xmlns="http://www.w3.org/2000/svg"
   xmlns:svg="http://www.w3.org/2000/svg"><defs
   id="defs2345">
	
	
		<radialGradient
   id="SVGID_1_"
   cx="29.2381"
   cy="-261.2523"
   r="12.6428"
   gradientTransform="matrix(0.9524,-0.3448,0.5446,1.5043,468.2025,722.2041)"
   gradientUnits="userSpaceOnUse">
		<stop
   offset="0"
   style="stop-color:#ED1C24"
   id="stop2313" />
		<stop
   offset="1"
   style="stop-color:#F6D3BD"
   id="stop2315" />
	</radialGradient>
	
	
	
</defs><sodipodi:namedview
   id="namedview2343"
   pagecolor="#ffffff"
   bordercolor="#666666"
   borderopacity="1.0"
   inkscape:pageshadow="2"
   inkscape:pageopacity="0.0"
   inkscape:pagecheckerboard="0"
   showgrid="false"
   inkscape:zoom="0.85115961"
   inkscape:cx="232.03639"
   inkscape:cy="489.33243"
   inkscape:window-width="1920"
   inkscape:window-height="1017"
   inkscape:window-x="-8"
   inkscape:window-y="-8"
   inkscape:window-maximized="1"
   inkscape:current-layer="Слой_1" />
<style
   type="text/css"
   id="style2239">
	.st0{fill:#F6D3BD;}
	.st1{fill:#C4A996;}
	.st2{fill:#ED1C24;}
	.st3{fill:#998475;}
	.st4{fill:#BDB7B2;}
	.st5{fill:#E7E3E0;}
	.st6{fill:#4F5260;}
	.st7{fill:#555968;}
	.st8{fill:url(#SVGID_1_);}
	.st9{fill:url(#SVGID_00000032619195643382541240000014906943103516117923_);}
	.st10{fill:url(#SVGID_00000011751492341857335030000009699367047440245657_);}
	.st11{fill:url(#SVGID_00000005245714589761414750000004770566039884520366_);}
	.st12{fill:#63687A;}
	.st13{fill:#AEA89F;}
	.st14{fill:none;stroke:#998475;stroke-width:2;stroke-miterlimit:10;}
	.st15{fill:#FFFFFF;}
	.st16{fill:#1D1D1B;}
	.st17{fill:#E6E6E6;}
	.st18{fill:#333333;}
	.st19{fill:#4D4D4D;}
	.st20{fill:#1A1A1A;}
	.st21{fill:#A8A199;}
	.st22{fill:#E2D6CE;}
	.st23{fill:url(#SVGID_00000049934974859596122000000005328688897507494273_);}
	.st24{fill:url(#SVGID_00000091733087854379136280000008857481910719517358_);}
	.st25{fill:url(#SVGID_00000152965382359382871950000006741595137062482111_);}
	.st26{fill:url(#SVGID_00000015323211000571212550000005237972014589598903_);}
	.st27{fill:#555451;}
	.st28{fill:#578BAA;}
	.st29{fill:#6BABD1;}
	.st30{fill:#A6A6A6;}
	.st31{fill:#F3EFF5;}
	.st32{fill:#D4D1D6;}
	.st33{fill:#848BA3;}
	.st34{fill:#676D80;}
	.st35{fill:#9FA7C4;}
	.st36{fill:#BEBBBF;}
	.st37{fill:url(#SVGID_00000084500829045079601440000005802123717287184297_);}
	.st38{fill:url(#SVGID_00000003105243737347638860000004842434357575978388_);}
	.st39{fill:url(#SVGID_00000124841483437617648390000002804199703817632901_);}
	.st40{fill:url(#SVGID_00000140715060816452280190000001572954078379136642_);}
	.st41{fill:url(#SVGID_00000035526055667802877500000007630090936884689032_);}
	.st42{fill:url(#SVGID_00000139986588870057022890000004984581540185219259_);}
	.st43{fill:url(#SVGID_00000119095344454532149570000003244021958651191446_);}
	.st44{fill:url(#SVGID_00000121997158067986274880000007411728774695342485_);}
	.st45{fill:url(#SVGID_00000080171507751067168080000003851912254948041360_);}
	.st46{fill:url(#SVGID_00000047039088543162084410000000749862672133831345_);}
	.st47{fill:url(#SVGID_00000002386420602785764980000005485684550008716452_);}
	.st48{fill:url(#SVGID_00000094600308587779621760000005399586812590185905_);}
	.st49{fill:url(#SVGID_00000013151942266525140810000008903025791512748929_);}
	.st50{fill:url(#SVGID_00000102537212383581756540000010102425312871889548_);}
</style>
<g
   id="g2328">
		<path
   class="st35"
   d="m 359.52,256.66 c -14.59,6.55 -30.37,11.08 -47.22,13.57 0,0 -5.08,-4.78 -1.61,-10.21 0,0 0,0 -0.01,-0.01 15.72,-2.39 30.5,-6.58 44.25,-12.53 0.01,0 6.24,0.29 4.59,9.18 z"
   id="path2320" />
		<path
   class="st33"
   d="m 315.99,259.12 c 1.07,3.46 2.24,6.85 3.48,9.91 -2.36,0.44 -4.76,0.84 -7.16,1.2 0,0 -5.08,-4.78 -1.61,-10.21 0,0 0,0 -0.01,-0.01 1.78,-0.28 3.56,-0.57 5.3,-0.89 z"
   id="path2322" />
		<path
   class="st33"
   d="m 359.52,256.66 c -2.36,1.05 -4.74,2.06 -7.16,3.01 -0.42,-1.52 -1.48,-5.24 -3.05,-9.88 1.89,-0.74 3.77,-1.52 5.63,-2.32 0,0.01 6.23,0.3 4.58,9.19 z"
   id="path2324" />
		<path
   class="st34"
   d="m 312.35,270.72 c -0.14,0.01 -0.28,-0.04 -0.39,-0.13 -0.05,-0.05 -5.29,-5.09 -1.73,-10.77 0.07,-0.16 0.21,-0.28 0.38,-0.31 15.62,-2.37 30.46,-6.58 44.13,-12.49 0.07,-0.03 0.14,-0.05 0.22,-0.04 0.1,0 2.34,0.13 3.9,2.1 1.38,1.74 1.77,4.33 1.15,7.67 -0.03,0.16 -0.14,0.3 -0.29,0.36 -14.58,6.54 -30.51,11.12 -47.35,13.61 0,0 -0.01,0 -0.02,0 z m -1.34,-10.26 c -2.69,4.45 0.65,8.37 1.47,9.23 16.56,-2.47 32.23,-6.97 46.59,-13.38 0.5,-2.92 0.17,-5.14 -0.99,-6.6 -1.1,-1.39 -2.65,-1.67 -3.07,-1.72 -13.63,5.89 -28.43,10.09 -44,12.47 z m 48.51,-3.8 z"
   id="path2326" />
	</g>
</svg>
