<svg width="620" height="1074" viewBox="0 0 620 1074" fill="none" xmlns="http://www.w3.org/2000/svg">
<path d="M162.76 478.81C162.61 478.65 162.44 478.51 162.27 478.37C147.56 467.27 134.6 464.5 134.06 464.39C134.04 464.39 134.02 464.38 134.01 464.39C133.74 464.23 133.5 464.03 133.28 463.81C132.4 462.9 131.99 461.58 132.31 460.27C132.81 458.24 134.86 456.99 136.89 457.48C137.47 457.61 151.08 461 165.74 472.06C167.41 473.32 167.74 475.7 166.48 477.37C165.59 478.56 164.13 479.07 162.77 478.82L162.76 478.81Z" fill="#9FA7C4"/>
<path d="M158.41 484.85C143.77 473.84 131.44 471.03 130.92 470.92C130.85 470.9 130.79 470.89 130.71 470.89C130.66 470.85 130.62 470.81 130.57 470.76C129.72 469.88 129.3 468.62 129.58 467.34C129.99 465.31 131.97 464 134 464.39C134.02 464.39 134.04 464.39 134.05 464.39C134.59 464.5 147.55 467.27 162.26 478.37C162.44 478.5 162.6 478.65 162.75 478.81C163.99 480.13 164.13 482.19 163 483.69C161.91 485.13 159.99 485.58 158.4 484.85H158.41Z" fill="#9FA7C4"/>
<path d="M153.96 491.01C140.68 480.98 129.4 478.36 129.29 478.34C128.54 478.17 127.89 477.79 127.39 477.28C126.53 476.4 126.12 475.11 126.41 473.81C126.85 471.84 128.75 470.57 130.71 470.89C130.79 470.89 130.85 470.9 130.92 470.92C131.44 471.04 143.77 473.84 158.41 484.85C158.45 484.88 158.49 484.91 158.53 484.94C160.2 486.21 160.54 488.58 159.27 490.26C158 491.93 155.63 492.27 153.95 491L153.96 491.01Z" fill="#9FA7C4"/>
<path d="M158.4 484.86C158.4 484.86 158.49 484.92 158.53 484.95C158.66 485.05 158.78 485.15 158.89 485.26C158.92 485.2 158.95 485.14 158.98 485.07C158.78 485.02 158.59 484.95 158.4 484.86Z" fill="#C4A996"/>
<path d="M166.46 477.37C165.56 478.55 164.11 479.07 162.75 478.81C164 480.13 164.13 482.2 163 483.7C162.04 484.97 160.44 485.46 158.98 485.07C158.78 485.02 158.59 484.95 158.4 484.86C158.44 484.89 158.49 484.92 158.53 484.95C158.66 485.05 158.78 485.15 158.89 485.26C160.24 486.57 160.44 488.72 159.27 490.27C158.46 491.33 157.21 491.85 155.97 491.77C155.26 491.72 154.56 491.47 153.95 491.01C153.42 490.61 152.9 490.23 152.38 489.86C155.08 483.61 158.27 476.41 161.64 469.14C162.78 469.91 163.93 470.72 165.09 471.58C165.3 471.73 165.51 471.89 165.72 472.05C167.39 473.31 167.72 475.7 166.46 477.37V477.37Z" fill="#848BA3"/>
<path d="M163.45 479.38C163.19 479.38 162.93 479.36 162.66 479.31L162.5 479.28L162.39 479.17C162.26 479.03 162.11 478.9 161.95 478.78C147.68 468.01 135.25 465.17 134.02 464.91L133.92 464.94L133.73 464.83C133.43 464.66 133.16 464.44 132.89 464.16C131.85 463.09 131.44 461.59 131.79 460.15C132.06 459.04 132.75 458.1 133.73 457.5C134.71 456.9 135.86 456.72 136.98 457C137.11 457.03 151.02 460.36 166.01 471.67C167.9 473.09 168.27 475.79 166.85 477.68C166.02 478.77 164.77 479.39 163.44 479.39L163.45 479.38ZM162.99 478.35C164.16 478.51 165.33 478.03 166.06 477.07C167.15 475.62 166.87 473.55 165.42 472.46C150.59 461.27 136.89 458 136.76 457.96C135.9 457.75 135.02 457.89 134.27 458.35C133.52 458.81 132.99 459.53 132.78 460.38C132.51 461.49 132.83 462.64 133.63 463.46C133.81 463.65 133.99 463.79 134.18 463.91H134.21C134.7 464.01 147.67 466.73 162.57 477.98C162.72 478.1 162.87 478.22 163 478.35H162.99Z" fill="#676D80"/>
<path d="M160 485.7C159.4 485.7 158.78 485.57 158.2 485.3L158.11 485.25C143.54 474.3 131.33 471.52 130.81 471.41C130.74 471.39 130.71 471.39 130.66 471.39H130.51L130.39 471.28C130.33 471.23 130.27 471.18 130.22 471.12C129.2 470.07 128.78 468.62 129.09 467.23C129.54 465 131.71 463.51 133.96 463.87H134L134.21 463.91C134.7 464.01 147.67 466.72 162.57 477.97C162.77 478.12 162.95 478.28 163.12 478.46C164.56 479.99 164.68 482.31 163.41 483.99C162.58 485.1 161.31 485.7 160 485.7ZM158.67 484.42C160.07 485.04 161.69 484.62 162.61 483.39C163.58 482.1 163.49 480.32 162.4 479.15C162.27 479.02 162.12 478.89 161.97 478.77C147.7 468 135.27 465.16 134.04 464.9L133.91 464.88C132.14 464.54 130.43 465.69 130.07 467.44C129.84 468.51 130.16 469.62 130.93 470.41C130.97 470.41 131.01 470.43 131.05 470.44C131.54 470.55 143.93 473.36 158.66 484.42H158.67Z" fill="#676D80"/>
<path d="M156.24 492.27C155.34 492.27 154.43 491.99 153.66 491.4C140.71 481.62 129.65 478.93 129.18 478.82C128.36 478.64 127.62 478.22 127.03 477.62C126.02 476.57 125.6 475.11 125.92 473.69C126.41 471.47 128.55 470.02 130.79 470.39C130.87 470.39 130.96 470.41 131.05 470.44C131.54 470.55 143.96 473.37 158.7 484.45L158.82 484.54C159.74 485.23 160.33 486.24 160.49 487.38C160.65 488.52 160.36 489.65 159.66 490.56C158.82 491.68 157.53 492.27 156.22 492.27H156.24ZM130.11 471.34C128.58 471.34 127.24 472.39 126.9 473.91C126.65 475 126.97 476.12 127.75 476.92C128.2 477.38 128.77 477.7 129.4 477.84C129.88 477.95 141.14 480.7 154.26 490.6C155.71 491.7 157.78 491.41 158.88 489.95C159.41 489.25 159.64 488.38 159.51 487.51C159.39 486.64 158.93 485.87 158.23 485.33L158.41 484.84L158.11 485.24C143.54 474.29 131.33 471.51 130.81 471.4C130.74 471.38 130.71 471.38 130.66 471.38C130.47 471.35 130.29 471.33 130.1 471.33L130.11 471.34Z" fill="#676D80"/>
</svg>
