<svg width="620" height="1074" viewBox="0 0 620 1074" fill="none" xmlns="http://www.w3.org/2000/svg">
<path d="M163.75 371C163.95 371.14 164.14 371.28 164.34 371.42C178.1 381.42 192.77 386.43 202.67 388.88C202.9 388.93 203.11 388.99 203.32 389.03C203.68 389.24 204 389.5 204.27 389.79C205.16 390.76 205.56 392.14 205.23 393.51C204.7 395.7 202.5 397.05 200.31 396.52L198.71 396.13C189.1 393.7 174.85 388.77 161.4 379.13C160.95 378.79 160.51 378.48 160.07 378.15C158.27 376.8 157.9 374.24 159.26 372.44C160.33 371.01 162.15 370.5 163.75 371V371Z" fill="#9FA7C4"/>
<path d="M166.05 363.19C166.22 363.36 166.4 363.53 166.6 363.68L166.68 363.74C167.08 364.02 167.47 364.31 167.84 364.58C181.5 374.3 195.9 379.17 205.59 381.54L205.83 381.6C206.29 381.71 206.73 381.82 207.17 381.91C207.27 381.93 207.37 381.95 207.47 381.96C207.69 382.12 207.9 382.31 208.08 382.5C208.95 383.45 209.36 384.8 209.06 386.15C208.57 388.35 206.39 389.73 204.19 389.24C203.9 389.18 203.62 389.11 203.32 389.04C203.11 388.99 202.89 388.94 202.67 388.89C192.76 386.44 178.1 381.43 164.34 371.43C164.14 371.29 163.95 371.15 163.75 371.01C163.52 370.84 163.3 370.68 163.07 370.51C161.26 369.17 160.89 366.61 162.24 364.8C163.16 363.57 164.64 363 166.05 363.2V363.19Z" fill="#9FA7C4"/>
<path d="M171.42 357.1L171.51 357.16C171.86 357.42 172.21 357.68 172.56 357.92C185.18 366.9 198.54 371.41 207.52 373.61L207.77 373.67C208.14 373.76 208.5 373.85 208.85 373.92C209.71 374.1 210.46 374.55 211.01 375.15C211.87 376.09 212.28 377.4 211.99 378.74C211.55 380.84 209.56 382.23 207.47 381.94C207.37 381.93 207.27 381.91 207.17 381.89C206.73 381.8 206.29 381.69 205.83 381.58L205.59 381.52C195.9 379.15 181.5 374.28 167.84 364.56C167.46 364.3 167.07 364.01 166.68 363.72L166.6 363.66C166.4 363.51 166.22 363.34 166.05 363.17C164.72 361.77 164.53 359.58 165.72 357.96C167.05 356.14 169.61 355.75 171.42 357.08V357.1Z" fill="#9FA7C4"/>
<path d="M212 378.76C211.57 380.86 209.58 382.24 207.48 381.95C207.71 382.12 207.92 382.3 208.1 382.5C208.97 383.45 209.38 384.8 209.08 386.14C208.6 388.24 206.6 389.61 204.49 389.29C204.43 389.47 204.38 389.66 204.32 389.85C205.18 390.82 205.56 392.17 205.24 393.52C204.86 395.04 203.68 396.16 202.25 396.52C201.63 396.67 200.97 396.68 200.31 396.52L198.72 396.13C195.3 395.27 191.3 394.09 186.95 392.49C186.87 391.26 186.7 390.14 186.42 389.14C181.94 372.85 180.05 368.37 180.05 368.37C180.05 368.37 187.2 369.9 192.76 368.87C198.28 371.09 203.37 372.6 207.52 373.61L207.63 373.63L207.78 373.67C208.14 373.77 208.5 373.85 208.86 373.93C209.72 374.11 210.46 374.56 211.02 375.16C211.88 376.1 212.29 377.42 212 378.76V378.76Z" fill="#848BA3"/>
<path d="M175.9 360.19C173.77 364.04 173.68 368.37 173.68 368.37C169.87 371.47 166.42 375.74 163.36 380.5C162.71 380.06 162.05 379.6 161.4 379.13C160.95 378.8 160.52 378.48 160.08 378.15C159.69 377.86 159.37 377.51 159.11 377.12C158.2 375.73 158.2 373.86 159.27 372.44C160.15 371.27 161.53 370.71 162.89 370.83C162.95 370.73 163.01 370.62 163.08 370.52C163.08 370.51 163.08 370.5 163.06 370.5C161.26 369.15 160.89 366.6 162.24 364.79C163.16 363.56 164.63 363 166.05 363.19C164.72 361.79 164.53 359.6 165.71 357.98C167.05 356.17 169.6 355.77 171.41 357.1L171.5 357.17C171.7 357.31 171.9 357.46 172.1 357.61C172.25 357.71 172.4 357.82 172.55 357.93C173.66 358.72 174.77 359.47 175.89 360.19H175.9Z" fill="#848BA3"/>
<path d="M201.27 397.13C200.91 397.13 200.55 397.09 200.19 397L198.59 396.61C188.95 394.17 174.62 389.22 161.1 379.53L160.62 379.17C160.33 378.96 160.05 378.75 159.77 378.54C158.79 377.81 158.16 376.74 157.99 375.53C157.82 374.32 158.13 373.11 158.86 372.13C160.02 370.58 162.05 369.93 163.9 370.52L164.05 370.6C164.24 370.74 164.43 370.88 164.62 371.01C178.33 380.97 192.94 385.96 202.79 388.39L203.57 388.6C203.97 388.83 204.32 389.12 204.64 389.46C205.67 390.59 206.08 392.15 205.72 393.63C205.21 395.72 203.33 397.13 201.27 397.13V397.13ZM162.52 371.31C161.41 371.31 160.35 371.82 159.66 372.74C159.08 373.51 158.84 374.45 158.98 375.4C159.12 376.35 159.61 377.18 160.37 377.76C160.65 377.97 160.93 378.18 161.21 378.38L161.69 378.73C175.08 388.33 189.27 393.23 198.83 395.65L200.42 396.04C202.33 396.51 204.27 395.32 204.74 393.4C205.02 392.24 204.71 391.02 203.9 390.14C203.68 389.89 203.42 389.68 203.13 389.51L202.55 389.37C192.61 386.92 177.87 381.88 164.04 371.83C163.87 371.71 163.7 371.58 163.52 371.45C163.19 371.35 162.85 371.31 162.52 371.31V371.31Z" fill="#676D80"/>
<path d="M205.08 389.83C204.75 389.83 204.42 389.79 204.09 389.72C203.93 389.69 203.77 389.65 203.6 389.61L202.55 389.36C192.61 386.91 177.87 381.87 164.04 371.82C163.84 371.68 163.65 371.54 163.45 371.39L162.77 370.88C161.79 370.15 161.15 369.08 160.98 367.87C160.8 366.66 161.11 365.45 161.84 364.47C162.84 363.13 164.48 362.45 166.12 362.67L166.29 362.69L166.41 362.81C166.56 362.96 166.72 363.11 166.9 363.25L167.39 363.61C167.64 363.79 167.88 363.97 168.12 364.14C181.74 373.83 196.08 378.67 205.7 381.02L205.94 381.08C206.39 381.19 206.83 381.3 207.26 381.39C207.34 381.41 207.43 381.42 207.51 381.43H207.65L207.76 381.52C208.01 381.71 208.25 381.91 208.45 382.13C209.46 383.23 209.87 384.76 209.55 386.22C209.07 388.35 207.17 389.8 205.07 389.8L205.08 389.83ZM165.49 363.65C164.38 363.65 163.32 364.18 162.64 365.09C162.07 365.86 161.83 366.8 161.97 367.75C162.11 368.69 162.61 369.53 163.37 370.1L164.05 370.6C164.24 370.74 164.43 370.88 164.62 371.02C178.33 380.98 192.94 385.97 202.79 388.4L203.83 388.64C203.99 388.68 204.14 388.71 204.3 388.75C206.23 389.18 208.15 387.96 208.58 386.03C208.83 384.89 208.51 383.69 207.72 382.83C207.59 382.69 207.44 382.55 207.28 382.43C207.21 382.43 207.14 382.41 207.07 382.39C206.62 382.3 206.18 382.19 205.71 382.08L205.47 382.02C195.76 379.65 181.3 374.77 167.55 364.99C167.31 364.82 167.06 364.64 166.8 364.46L166.28 364.08C166.12 363.96 165.96 363.82 165.81 363.68C165.7 363.67 165.59 363.66 165.48 363.66L165.49 363.65Z" fill="#676D80"/>
<path d="M208.03 382.49C207.83 382.49 207.62 382.48 207.41 382.45C207.31 382.45 207.2 382.42 207.08 382.4C206.63 382.31 206.19 382.2 205.72 382.09L205.48 382.03C195.77 379.66 181.31 374.78 167.56 365C167.32 364.83 167.07 364.65 166.81 364.47L166.29 364.09C166.08 363.93 165.88 363.75 165.69 363.56C164.16 361.95 164.01 359.49 165.31 357.71C166.8 355.67 169.67 355.23 171.7 356.72L171.93 356.89C172.23 357.11 172.54 357.33 172.84 357.54C185.4 366.48 198.69 370.96 207.63 373.15L207.88 373.21C208.25 373.3 208.6 373.39 208.95 373.46C209.89 373.65 210.73 374.13 211.38 374.85C212.38 375.94 212.79 377.45 212.48 378.88C212.04 381.01 210.14 382.51 208.02 382.51L208.03 382.49ZM169.02 356.81C167.92 356.81 166.83 357.32 166.13 358.27C165.11 359.66 165.23 361.58 166.42 362.84C166.56 362.99 166.73 363.14 166.91 363.27L167.4 363.63C167.65 363.81 167.89 363.99 168.13 364.16C181.75 373.85 196.09 378.69 205.71 381.04L205.95 381.1C206.4 381.21 206.84 381.32 207.27 381.41C207.35 381.43 207.44 381.44 207.52 381.45C209.37 381.71 211.12 380.47 211.5 378.65C211.75 377.51 211.43 376.36 210.64 375.5C210.13 374.94 209.47 374.57 208.74 374.42C208.38 374.34 208.01 374.25 207.64 374.16L207.39 374.1C198.36 371.89 184.94 367.36 172.25 358.33C171.95 358.12 171.64 357.89 171.33 357.67L171.1 357.51C170.47 357.05 169.73 356.82 169 356.82L169.02 356.81Z" fill="#676D80"/>
</svg>
